<svg xmlns="http://www.w3.org/2000/svg" width="51" height="51" viewBox="0 0 51 51"><path fill="#fff" fill-rule="evenodd" stroke="#fff" stroke-width=".314" d="M18.5 50.9c-5.93-.06-6.31-.07-7.4-.29-4.45-.86-7.85-3.42-9.82-7.36C.73 42.15 0 40.12.01 39.72l.01-.37.12.4.11.39.14-.44c.98-3.28 4.59-7.52 8.48-9.96.49-.3.92-.59.97-.64.04-.04-.27-.36-.7-.7-1.32-1.03-1.75-1.41-1.69-1.51.04-.05 1.15-.09 2.63-.09h2.57l.84-2.51c.65-1.96.86-2.49.99-2.47.1.02.39.74.92 2.33.54 1.59.81 2.3.91 2.28.08 0 .84-.19 1.69-.41 3.08-.8 4.22-.91 10.15-1.02 4.55-.09 5.13-.13 6.58-.43.83-.18.68.01 1.2-1.47.56-1.59.65-1.62 1.07-.33.42 1.26.3 1.21 1.63.74 5.62-1.99 10.8-6.25 12.29-10.11.27-.7.28-.72.24-.31-.33 3.12-6.65 8.56-12.28 10.55-.76.27-1.38.52-1.38.56 0 .06.35 1.06.76 2.17l.16.43 2.56.02c2.2.03 2.57.05 2.57.18 0 .08-.91.86-2.02 1.73l-2.01 1.59.25.76c.14.42.29.81.33.85s.42-.47.85-1.15.94-1.44 1.13-1.7l.34-.48h.87c1.23 0 1.21-.03 1.21 1.91v1.55l.33.15.32.14v1.7l-.28.03c-.33.04-.34.07-.39.9-.03.45-.01.62.08.62.43 0 .65 2.01.29 2.7-.22.42 0 .41-8.87.38l-8.07-.03-.23-.23c-.21-.21-.23-.33-.26-1.46l-.04-1.24 1.07-1.16c.58-.63 1.1-1.16 1.14-1.18s.5-.43 1.02-.91c1.08-1.02 1.19-1.03-1.45.22-1.13.53-1.53.68-1.63.59-.36-.29-.04-.48 3.37-2 1.47-.65 2.3-1.08 2.3-1.17 0-.04-.68-.61-1.52-1.26-1.87-1.48-2.29-1.85-2.22-1.96.03-.05 1.21-.09 2.63-.09h2.58l.36-1.05c.42-1.22.53-1.14-1.08-.84-.95.17-1.76.21-5.85.29-5.88.11-7.18.24-10.3 1.06-1.96.51-1.89.54 1.13.54 2.21 0 2.67.02 2.67.14 0 .07-.77.74-1.72 1.47-.94.74-1.86 1.46-2.03 1.61l-.32.28.73 2.27c.41 1.25.77 2.42.8 2.6.05.29.1.33.38.33l.31-.01-.26-.14c-.3-.16-.39-.48-.39-1.36 0-.75.13-.83.91-.57.82.28 1.54.22 1.54-.12 0-.27-.24-.37-1.01-.39-.46-.01-.54-.16-.54-1.06 0-.68.05-.73.71-.81.61-.07.79-.18.6-.37-.07-.07-.27-.07-.68.02-.32.07-.74.13-.93.14l-.35.02-.09-.66c-.15-1.11-.06-1.23 1.07-1.5 2.08-.51 3.89 1.22 3.03 2.89-.16.31-.16.33.06.63.68.92-.03 3.19-1.01 3.19-.08 0 .01.1.2.23l.34.23.03 1.15c.02 1.03 0 1.19-.17 1.4l-.19.24h-8.41c-10.03 0-8.86.27-8.83-2l.02-1 .82-.7c.46-.39 1.25-1.08 1.78-1.55.52-.47 1.15-1.02 1.4-1.22.43-.36.37-.34-1.55.48-2.25.96-2.29.97-2.33.67-.04-.27.28-.44 2.7-1.44 3.29-1.36 3.4-1.44 2.73-2.04-.72-.65-.8-.65-1.81-.05-3.86 2.34-6.96 5.91-8.58 9.89l-.25.63.39 1.03c1.92 5.11 5.44 8.11 10.7 9.11 1.42.27 25.4.47 27.62.23 5.69-.61 10.11-5.06 11.73-11.79.15-.63.31-1.24.36-1.35.2-.5.07.51-.2 1.56-1.52 6-5.35 10.37-10.06 11.47-1.9.45-4.69.49-22.35.32Zm-6.95-4.87c-.85-.22-1.08-.84-1.03-2.81.03-1.63.12-1.9.69-2.19.39-.2 28.39-.18 28.78.02.51.26.61.65.61 2.43 0 1.8-.1 2.09-.8 2.44-.34.17-27.59.27-28.25.11Zm28.28-.26c.66-.43.99-3.01.53-4.12-.29-.7.79-.65-14.87-.65H11.38l-.33.33-.32.32-.05 1.43c-.08 2.14.1 2.65.99 2.82.94.19 27.87.06 28.16-.13Zm-27.91-.69c-.08-.08-.12-.62-.12-1.75V41.7l.24-.06c.13-.03.37-.04.52-.02l.29.03.03 1.32.03 1.32.62.03.62.03.03.34c.02.2-.02.37-.1.42-.21.14-2.02.11-2.16-.03Zm2.61.05c-.1-.03-.13-.4-.13-1.34V42.5h1v1.29c0 1.43-.14 1.64-.87 1.34Zm2-.05c-.13-.17-.91-2-.99-2.33-.06-.26-.06-.26.46-.23l.53.03.21.57c.29.76.28.76.55.02l.23-.64H18c.27 0 .51.04.54.08.05.09-.86 2.25-1.05 2.48-.14.17-.83.18-.96.02Zm2.6-.03c-.96-.41-.91-2.09.07-2.49.99-.39 1.82-.09 2.01.73.16.73.08.81-.88.81-.75 0-.84.02-.73.15.14.17.67.2 1.06.05.49-.19.66.57.19.78-.35.16-1.33.14-1.72-.03Zm4.29-.06c-.88-.44-1.23-1.88-.66-2.66.66-.92 2.98-1 2.8-.11-.08.42-.1.43-.55.3-.91-.28-1.43.02-1.45.82-.02.74.34 1.01 1.25.92l.67-.07.04.36c.06.53-.02.59-.89.63-.64.02-.86-.01-1.21-.19Zm2.55.15c-.04-.04-.07-.65-.07-1.36v-1.29h1.5c.25-.01.7.01 1 .03l.55.03.03 1.24c.03 1.36.01 1.41-.53 1.41-.47 0-.55-.15-.55-1.06v-.82l-.36-.07c-.51-.09-.58.03-.64 1.03l-.05.87-.4.03c-.23.02-.44 0-.48-.04Zm3.97-.04c-.94-.38-1-2.11-.09-2.54.52-.25 1.71-.18 1.82.1.17.44-.06.66-.61.59-.61-.08-.86.08-.86.53 0 .54.19.62 1.2.5.36-.04.42.52.08.76-.24.17-1.17.21-1.54.06Zm1.98.02c-.09-.07-.12-.5-.1-1.83l.03-1.74h1l.05.85.05.85.29-.37c.27-.36.32-.38.82-.38.67 0 .68.1.07.72l-.47.47.52.6c.59.67.62.78.27.87-.49.12-.88-.04-1.2-.49l-.3-.42-.03.4c-.04.51-.55.75-1 .47Zm3.2-.12c-.87-.53-.78-2.08.13-2.46 1.06-.44 2.05.11 2.05 1.15 0 .39-.04.4-.94.43-.47.01-.75.06-.73.13.04.09.79.12 1.22.04.28-.05.35.59.09.78-.29.21-1.43.17-1.82-.07Zm3.02.08c-.31-.15-.44-.5-.44-1.23 0-.58-.02-.65-.2-.65-.16 0-.2-.07-.2-.31 0-.22.05-.32.2-.36s.2-.14.2-.39c0-.63.93-.64.98-.02.03.36.05.38.37.38.36 0 .45.12.35.5-.05.21-.12.25-.38.24l-.32-.02v1.07l.38.03c.32.03.37.07.4.3.06.48-.74.76-1.34.46Zm-24.3-.14c.46-.18.16-.44-.49-.44h-.65v-2.7H12v1.53c0 .85.03 1.57.07 1.6.08.09 1.56.09 1.77.01Zm3.43-.02c.1-.07 1.03-2.02 1.03-2.18 0-.03-.14-.04-.32-.02-.29.03-.33.08-.54.68-.43 1.25-.37 1.24-.75.22-.33-.9-.34-.92-.66-.92h-.32l.45 1.07c.51 1.22.7 1.41 1.11 1.15Zm3.44-.02c.42-.23.22-.38-.41-.33-.65.06-1-.11-1-.49 0-.16.09-.18.85-.18H21v-.34c0-.85-.84-1.23-1.75-.81-.73.35-.78 1.71-.07 2.09.31.18 1.24.21 1.53.06Zm4.43.04c.5-.19.17-.52-.48-.47-.62.05-.66.04-.95-.24-1-1.01.09-2.47 1.41-1.89.15.07.18.03.18-.17 0-.45-1.42-.52-1.98-.1-1.55 1.13 0 3.57 1.82 2.87Zm6.17-.04c.38-.21.23-.42-.25-.35-.7.11-1.06-.14-1.06-.76 0-.54.36-.84.94-.76.49.07.72-.14.36-.33-1.16-.62-2.49.83-1.69 1.84.34.44 1.21.62 1.7.36Zm5.43.04c.45-.17.16-.42-.43-.37-.5.05-.61.03-.8-.16-.42-.42-.3-.51.7-.51h.92l-.07-.42c-.12-.82-1.04-1.16-1.83-.68-.73.44-.62 1.84.17 2.13.21.08 1.15.08 1.34.01Zm2.37-.04c.3-.17.25-.44-.07-.36-.42.11-.54-.08-.54-.85V43h.35c.24 0 .35-.05.35-.15s-.11-.15-.35-.15c-.34 0-.35-.01-.35-.4 0-.38-.02-.4-.3-.4s-.3.02-.3.4c0 .33-.03.4-.2.4-.11 0-.2.07-.2.15s.09.15.2.15c.18 0 .2.07.2.69 0 .8.11 1.17.37 1.24.33.08.64.07.84-.03ZM15.2 43.8v-1.1h-.6v2.2h.6zm11.5.37c0-.88.24-1.23.79-1.15.17.03.31.01.31-.03 0-.46-.56-.53-.95-.12-.24.27-.25.27-.25.05 0-.17-.06-.22-.25-.22h-.25v2.2h.6zm2.08-.37.03-1.1h-.61v2.2h.55zm3.82.86c0-.81.25-.9.7-.26.32.45.39.5.74.5h.39l-.24-.28c-.13-.15-.37-.42-.53-.6l-.3-.32.49-.5.49-.5h-.35c-.3 0-.41.07-.79.55-.6.72-.62.71-.58-.5l.03-1.05h-.27c-.27 0-.28.02-.29.53 0 .48 0 2.42.01 2.6.01.22.5.06.5-.17Zm-13.28-1.28c.07-.53 1.13-.56 1.13-.03 0 .17-.08.2-.58.23-.56.03-.58.02-.55-.2Zm16.1-.05c.06-.55 1.08-.48 1.08.07 0 .18-.07.2-.56.2-.54 0-.55-.01-.52-.27Zm-20.96-1.09a.46.46 0 0 1 0-.68c.33-.34.94-.12.94.34s-.61.68-.94.34Zm13.6 0c-.19-.18-.21-.55-.04-.72s.64-.15.82.04c.32.32.08.84-.39.84-.13 0-.31-.07-.39-.16ZM5.8 37.95c-.12-.33-.03-.55.24-.55.18-.01.19-.02.04-.1-.29-.17-.33-.68-.08-1.02l.22-.29-.29.03-.28.03-.03.94c-.03.98 0 1.21.17 1.21.07 0 .07-.09.01-.25Zm6.9.11c-.19-.24-.08-.59.2-.67.14-.04.19-.07.13-.08-.32-.03-.32-.87-.01-1.13.2-.17.18-.18-.56-.18h-.76l.2.2c.23.23.26.67.06.96-.29.41 0 1.04.47 1.04.33 0 .38-.02.27-.14Zm3.26-.09c-.13-.13-.25-.28-.27-.35-.1-.27-.89-.01-.89.29v.29h1.39zm4.94.03c-.13-.25.03-.6.27-.6.15 0 .15-.02 0-.18-.1-.1-.17-.24-.17-.3 0-.39-.38-.09-.44.34-.11.83-.09.94.19.94.23 0 .24-.02.15-.2Zm6.98-.04c-.14-.31-.04-.56.22-.56h.2l-.2-.2c-.29-.29-.22-.88.14-1.12.06-.04-.04-.08-.21-.08h-.33v1.03c0 .57.03 1.07.07 1.1.15.16.22.05.11-.17Zm6.92.05c-.16-.3-.12-.52.1-.58.15-.04.17-.09.1-.23-.15-.29-.12-.81.07-1.02.15-.17.13-.18-.63-.18-.74 0-.77.01-.56.16.26.18.31.78.08 1.09-.25.35.1.95.57.95.34 0 .37-.02.27-.19Zm3.16-.15c-.42-.45-1.01-.42-1.08.05l-.05.29h1.45zm3.89-.18c.03-.29.09-.61.11-.7.09-.3-.2-.2-.38.13-.15.26-.16.36-.05.7.16.52.24.49.32-.13Zm1.17.3c-.11-.3-.04-.58.13-.58.11 0 .11-.06-.01-.3-.18-.36-.44-.4-.44-.06 0 .13-.03.44-.06.7-.07.45-.06.46.19.46.23 0 .25-.03.19-.22Zm-36.08-.14c.26-.26.2-.63-.14-.82-.41-.23-.41-.56 0-.5.24.04.3.01.28-.11-.05-.25-.53-.26-.77-.02-.28.28-.27.37.15.75.48.44.42.71-.14.62-.34-.06-.36-.05-.18.09.25.19.6.19.8-.01Zm1.1-.11c.03-.16.08-.49.12-.75.06-.45.08-.48.35-.48.2 0 .29-.05.29-.15 0-.13-.12-.15-.68-.13-.66.03-.93.2-.39.26.22.03.26.07.22.25-.13.56-.22 1.17-.17 1.22.12.11.21.04.26-.22Zm1.39-.13c.36 0 .46.04.5.2.14.56.23.12.1-.47-.31-1.37-.39-1.39-1.01-.24-.45.84-.53 1.1-.23.74.15-.18.3-.23.64-.23Zm1.37.21c0-.57.24-.65.47-.16.09.19.23.35.3.35.17 0 .16-.05-.02-.39-.13-.26-.13-.3.05-.46.2-.18.27-.69.12-.79-.16-.1-.78-.16-.89-.08-.17.11-.3 1.72-.14 1.72.06 0 .11-.09.11-.19Zm3.08.07c.22-.22.13-.54-.24-.86-.4-.35-.37-.57.07-.48.34.07.47-.09.19-.24-.25-.14-.68-.03-.8.2-.14.27-.14.29.26.66.47.42.41.69-.12.61-.3-.05-.34-.04-.24.08.15.18.71.2.88.03Zm.68-.2c.08-.28.16-.34.48-.39.88-.14.74-.99-.17-.99h-.34l-.06.63c-.04.34-.1.72-.13.84-.03.13-.02.23.03.23.06 0 .14-.15.19-.32Zm2.87.03c.26-.26.28-.92.03-1.2-.6-.66-1.85.23-1.47 1.05.21.47 1.04.55 1.44.15Zm.87.06c.01-.6.2-.58.64.08.2.3.3.11.12-.23-.14-.28-.14-.31.04-.47.44-.39.19-.85-.46-.85h-.42l-.06.47c-.04.27-.09.65-.12.85-.05.3-.03.38.1.38.1 0 .16-.09.16-.23Zm1.95-.25c.13-.99.14-1.02.45-1.02.16 0 .3-.07.34-.15.04-.13-.07-.15-.69-.15-.6 0-.75.03-.75.15 0 .1.1.15.26.15h.27l-.07.75c-.08.83.09 1.07.19.27Zm1.83.36c.23-.23.14-.65-.18-.88-.43-.31-.4-.54.06-.47.37.06.43-.07.11-.27-.6-.38-1.02.47-.46.93.45.38.35.66-.19.57-.34-.06-.36-.05-.18.09.24.18.67.2.84.03Zm6.92-.06c.3-.24.21-.61-.2-.84-.43-.24-.41-.52.04-.45.39.06.51 0 .35-.2-.25-.29-.99-.02-.99.37 0 .1.17.31.37.48.46.36.34.68-.21.57-.29-.06-.3-.05-.12.1.26.2.49.19.76-.03Zm2.53-.22c.37 0 .46.04.52.23.17.5.15-.18-.03-.88-.22-.9-.35-.9-.89.05-.44.8-.57 1.22-.24.83.15-.18.3-.23.64-.23Zm1.35.08c.11-.44.26-.45.5-.03.27.45.47.46.26.01-.16-.32-.16-.34.05-.55.38-.38.2-.76-.41-.86-.45-.08-.51.03-.62 1.08-.07.71.07.93.22.35Zm3.06.1c.22-.31.21-.36-.2-.73-.41-.38-.38-.6.07-.51.37.07.41-.21.05-.3-.68-.17-.95.46-.41.93.44.38.36.68-.17.61-.28-.05-.39.06-.16.15.31.13.68.06.82-.15Zm.7-.13c.06-.32.1-.35.41-.35.39 0 .65-.22.65-.54 0-.33-.22-.48-.66-.44-.42.03-.42.04-.59 1.2-.07.56.09.67.19.13Zm2.89.04c.24-.3.22-.94-.03-1.19-.62-.62-1.78.26-1.41 1.06.21.48 1.09.56 1.44.13Zm.85-.07c.04-.42.23-.41.46.03.26.47.52.49.3.01-.16-.32-.16-.34.05-.55.43-.43.25-.81-.39-.81h-.47l-.12.69c-.14.89-.14 1.04.02.99.06-.03.13-.19.15-.36Zm1.96.21c.02-.1.07-.44.11-.75.06-.56.07-.58.36-.58.19 0 .29-.05.29-.15 0-.12-.14-.15-.7-.15s-.7.03-.7.15c0 .1.1.15.31.15.3 0 .31.02.26.33-.17.99-.18 1.17-.09 1.17.06 0 .13-.08.16-.17Zm1.8.01c.25-.25.19-.5-.21-.81-.42-.35-.38-.59.09-.49.24.05.29.03.26-.12-.07-.39-.98-.15-.98.27 0 .1.16.32.36.5.42.38.33.67-.18.57-.3-.06-.4.09-.1.17.35.09.61.07.76-.09Zm-13.99-.41c.12-.88.15-.93.46-.93.19 0 .29-.05.29-.15 0-.12-.14-.15-.65-.15s-.65.03-.65.15c0 .09.1.15.26.15.2 0 .25.04.2.16-.03.09-.09.4-.12.7-.08.68.11.74.21.07Zm-13.91.12c-.29-.44.07-1.05.61-1.05.55 0 .75.52.41 1.05-.23.35-.79.35-1.02 0Zm22.12.03c-.21-.3-.2-.5.05-.82.38-.49 1.09-.27 1.09.35 0 .61-.81.94-1.14.47Zm-21.34-.15c.35-.31.12-.77-.34-.65-.27.07-.36.52-.13.69.24.16.25.16.47-.04Zm22.08-.03c.38-.38.06-.84-.41-.6-.21.12-.25.5-.07.68.17.17.25.15.48-.08ZM8.85 34.35c.83-.69 1.57-1.35 1.66-1.48.17-.25.6-1.39.54-1.45-.09-.1-1.27.79-2.73 2.06-.89.77-1.81 1.56-2.04 1.76l-.43.36h1.5zm1.23.05.41-1.2-.37.31c-.2.17-.83.69-1.4 1.16-.56.47-1.02.87-1.02.89s.45.04.99.04h.99zm8.55 1.14c.06-.07-1.63-1.3-3.31-2.42l-.83-.56-2.04 1.38c-1.12.76-2.09 1.44-2.16 1.52-.12.15 8.19.23 8.34.08Zm12.29-1.43 1.65-1.42.31-.91c.37-1.07.36-1.08-.2-.75-.64.37-4.78 4.28-4.78 4.51 0 .05.31.06.68.04l.69-.05zm1.16.22c.23-.7.4-1.28.39-1.29s-.47.37-1.02.85l-1.5 1.28-.5.42 1.1.01h1.1zm8.46 1.19c.03-.05-.14-.22-.37-.38-.23-.17-1.15-.81-2.05-1.43l-1.64-1.14-2.04 1.38c-1.12.76-2.09 1.44-2.15 1.51-.1.12.55.14 4.04.14 2.29 0 4.18-.04 4.21-.08Zm1.88-.04c-.07-.07-.12-.37-.12-.69v-.56l-.71-.07c-.88-.08-.86-.1-.64.66.23.83.17.78.93.78.51 0 .63-.03.54-.12Zm-2.06-1.74c-.25-.82-.61-1.95-.8-2.51l-.35-1.03 2.05-1.57 2.05-1.58-2.54-.03-2.55-.02-.39-1.13c-.22-.61-.59-1.7-.83-2.4s-.46-1.24-.5-1.2-.43 1.13-.86 2.4L34.86 27l-2.54.02-2.53.03 2 1.57 2 1.58-.24.61c-.38.96-1.47 4.3-1.42 4.35.02.03.89-.54 1.93-1.27 2.37-1.64 2.39-1.65 2.67-1.45.12.08 1.07.75 2.12 1.49s1.91 1.33 1.93 1.32c.01-.01-.18-.69-.42-1.51Zm-28.99.63c1.8-1.27 3.01-2.07 3.12-2.07.1 0 1.26.79 3.19 2.17.57.41 1.06.73 1.08.71.04-.05-.53-1.92-1.15-3.78-.47-1.38-.66-1.06 1.7-2.86.99-.75 1.82-1.4 1.85-1.45s-1-.09-2.49-.09h-2.55l-.15-.38c-.08-.2-.42-1.23-.77-2.27-.34-1.04-.65-1.96-.7-2.04-.04-.08-.38.82-.86 2.25l-.79 2.39-2.53.05-2.53.05 1.68 1.32c.92.73 1.83 1.45 2.02 1.6l.34.29L11 32.6c-.46 1.29-.85 2.41-.88 2.48-.07.2.02.15 1.25-.71Zm10.89.54c1.05-.48 1.31-2.31.39-2.73-.25-.11-.35-.38-.15-.38.43 0 .64-1.29.32-1.9-.56-1.03-3.02-1.07-3.02-.04v.46l.32-.09c.52-.13 1.43-.1 1.61.06.52.42.01 1.31-.74 1.31-.39 0-.39 0-.39.4 0 .39.01.4.36.4.84 0 1.41.62 1.12 1.24-.24.54-.99.7-1.91.42l-.47-.14v.48c0 .47.01.48.38.58.64.17 1.72.14 2.18-.07Zm21.72-.58.03-.73h.34c.35 0 .35 0 .35-.45s0-.45-.35-.45H44v-3.5h-1.39l-.48.73c-.26.39-.75 1.16-1.09 1.69l-.61.97.1.51.1.5h2.17v.68c0 .82.01.84.65.8l.5-.03zm-32.46-1.09c.03-.11.27-.91.52-1.78.26-.88.43-1.62.39-1.66s-.62-.49-1.28-1-1.19-.96-1.18-.99c.02-.03.78-.08 1.7-.11l1.67-.05.52-1.5c.28-.82.56-1.51.62-1.53.05-.01.33.67.62 1.52l.52 1.56h1.68c.94 0 1.71.04 1.75.09.03.06-.53.55-1.25 1.11-.71.56-1.3 1.03-1.3 1.06 0 .02.2.75.45 1.63.57 2.03.59 1.96-.28 1.33-.29-.21-.88-.63-1.33-.94l-.8-.57-1.35.9c-1.7 1.15-1.73 1.17-1.67.93Zm21.96.1c-.03-.02.17-.77.43-1.65.27-.88.49-1.66.49-1.74s-.54-.58-1.2-1.11-1.17-1-1.14-1.05.76-.09 1.63-.09h1.59l.57-1.55c.31-.85.62-1.55.69-1.55.06 0 .34.69.62 1.52l.5 1.53 1.72.03c1.28.02 1.72.06 1.72.15 0 .06-.59.57-1.3 1.11-.72.55-1.3 1.04-1.3 1.1s.21.82.47 1.68c.25.87.44 1.6.41 1.64-.03.03-.67-.38-1.41-.9-.75-.53-1.42-.96-1.48-.96-.07 0-.72.4-1.43.88-1.54 1.04-1.52 1.03-1.58.96ZM13.19 32c1.42-.97 1.23-.97 2.64 0 .64.45 1.17.8 1.17.78s-.18-.66-.4-1.43-.4-1.44-.4-1.5c.01-.05.52-.48 1.15-.95l1.14-.85-1.5-.05c-1.04-.03-1.52-.09-1.57-.17-.05-.07-.25-.64-.46-1.25-.22-.62-.42-1.17-.46-1.21s-.26.49-.5 1.18c-.51 1.5-.34 1.38-2.02 1.45l-1.38.05 1.09.84c.82.64 1.07.89 1.03 1.03-.06.24-.01.23 1.02-.17.49-.19.91-.33.93-.31s-.39.21-.92.42c-.52.21-.99.42-1.04.48-.1.13-.31.86-.25.86.17 0 1.6-.81 2.08-1.18.33-.25.56-.41.52-.34-.15.25-1.26 1.02-1.98 1.38l-.75.37-.2.68c-.11.38-.18.69-.16.69.03 0 .57-.36 1.22-.8Zm22.21-.17c1.17-.78.99-.79 2.37.17.63.45 1.17.79 1.19.77s-.14-.63-.36-1.35c-.22-.73-.4-1.38-.4-1.46s.52-.54 1.16-1.03l1.17-.88-1.46-.05c-1.72-.06-1.54.08-2.08-1.57-.24-.73-.46-1.27-.5-1.2-.04.06-.26.66-.49 1.32-.54 1.51-.37 1.39-2.01 1.45l-1.39.05.92.73c.51.4.98.76 1.04.8.07.04.14.16.15.28.04.21.07.2 1.08-.18.57-.21 1.05-.37 1.07-.35s-.47.23-1.08.48c-1.12.44-1.13.44-1.24.86-.12.42-.12.42.11.33.55-.21 1.45-.71 2.03-1.14.34-.25.62-.44.62-.41 0 .13-1.44 1.11-2.16 1.46l-.83.41-.2.68c-.12.37-.21.71-.21.75 0 .08.07.03 1.5-.92Zm6.1.81c0-.09 1.21-2.04 1.26-2.04.02 0 .04.47.04 1.05v1.05h-.65c-.36 0-.65-.03-.65-.06ZM6 20.03c-.55-.1-.6-.25-.6-1.65 0-.98.04-1.34.15-1.52.13-.2 3.03-2.95 3.75-3.56l.25-.21-.35.14c-.19.08-1.04.47-1.88.86-1.56.73-1.87.81-1.87.46 0-.16.5-.42 2.65-1.42 1.46-.67 2.78-1.28 2.94-1.36l.29-.13-1.89-1.53c-1.04-.85-1.9-1.59-1.92-1.66-.02-.1.56-.14 2.57-.2l2.59-.07.62-1.82c.34-.99.71-2.1.83-2.46.35-1.03.41-.94 1.34 1.75.45 1.32.83 2.43.85 2.47s1.18.1 2.58.14 2.59.1 2.63.14c.07.06-1.26 1.2-3.21 2.74-.39.31-.72.6-.72.64s.15.54.34 1.12.56 1.71.81 2.53l.46 1.47h.62c.47 0 .58-.03.49-.12s-.12-.68-.12-2.05v-1.94l-.3.16c-.58.3-.7.16-.7-.86 0-.98-.03-.93.84-1.64.58-.47 1.94-.65 2.29-.3.2.2.26 6.48.07 6.6-.06.04.04.16.22.29l.33.22.03 1.15c.03 1.13.02 1.15-.24 1.39l-.26.25-8.11.01c-4.47.01-8.23-.01-8.37-.03Zm22.05 0c-.56-.14-.65-.38-.65-1.68 0-1.47-.16-1.21 1.96-3.15 2.47-2.27 2.44-2.24 2.09-2.07-2.09 1-3.89 1.77-3.97 1.69-.29-.29.01-.47 2.64-1.68 1.47-.67 2.79-1.29 2.94-1.38l.26-.17-1.89-1.49c-1.03-.82-1.89-1.56-1.91-1.65-.03-.13.2-.15 1.75-.15 1.92-.01 3.34-.08 3.45-.18.03-.04.41-1.1.83-2.37.42-1.26.82-2.36.9-2.44.18-.18.18-.17 1.16 2.7l.74 2.16 1.49.07c.82.03 2 .06 2.63.06 1.35 0 1.4.06.51.72-1.12.82-3.33 2.59-3.37 2.69-.02.06.25 1 .6 2.1.5 1.59.65 1.96.71 1.78.05-.12.55-.7 1.11-1.28 1.49-1.55 1.72-2.11.86-2.11-.28 0-.59.1-.96.31-.75.43-.86.32-.87-.88l-.01-.88.59-.3c2.96-1.47 5.24 1.71 2.95 4.12l-.4.42.68.03.68.03.03.94c.03 1.03-.01 1.11-.52 1.11-.23 0-.27.03-.18.12.22.22.16 2.31-.07 2.59l-.19.24-8.19.01c-4.5.01-8.27 0-8.38-.03Zm-22.06-.46c-.28-.21-.32-.53-.1-.74.14-.13.17-.23.11-.33-.15-.24-.12-.72.07-.92.15-.17.14-.18-.15-.18H5.6v1.05c0 .88.03 1.06.18 1.14.24.14.4.13.21-.02Zm6.94.03c-.13-.05-.23-.14-.23-.19s-.03-.16-.06-.25c-.03-.08.03-.22.14-.32.18-.15.18-.19.06-.43-.18-.35-.18-.44.07-.75l.2-.26h-.67c-.64 0-.66.01-.51.18.21.23.22.8.01 1.03-.13.14-.13.22-.04.39.07.12.1.33.07.46-.04.23-.02.24.57.23.47 0 .56-.02.39-.09Zm2.98.04.35-.06-.26-.27c-.15-.14-.29-.32-.31-.38-.1-.32-.75-.03-.86.38l-.1.39h.41c.23 0 .57-.03.77-.06Zm3.87-.74c.01-.44-.01-.8-.06-.8-.17 0-.43.7-.32.9.05.1.1.28.1.39 0 .1.06.22.12.24.07.03.13.06.13.06s.01-.35.03-.79Zm1.32.71a.19.19 0 0 0-.1-.16c-.18-.11-.11-.57.1-.62.19-.05.19-.06-.02-.34-.33-.45-.43-.36-.54.46l-.09.75h.32c.18 0 .33-.04.33-.09Zm13.8.01c0-.04-.05-.13-.11-.19-.19-.19-.06-.58.19-.61.23-.03.23-.04.06-.23-.23-.25-.22-.73.01-.99.18-.2.18-.2-.54-.2h-.72l.21.22c.25.27.25.55.01.92-.15.23-.17.34-.09.49.05.11.08.3.05.43-.04.23-.01.24.44.24.27 0 .49-.04.49-.08Zm3.24.02c.14-.05.11-.12-.14-.4-.16-.19-.3-.39-.3-.44s-.12-.02-.27.06c-.16.07-.34.14-.41.14-.06 0-.12.09-.12.19 0 .11-.03.26-.06.35-.06.17.93.24 1.3.1Zm3.74-.74c.03-.88-.03-.95-.33-.47-.23.37-.14 1.13.14 1.2.09.03.16.05.16.06 0 0 .01-.35.03-.79Zm1.29.62c-.26-.28-.22-.72.06-.72.19-.01.2-.02.06-.13a.9.9 0 0 1-.22-.3c-.14-.36-.32-.1-.42.61l-.11.72h.39c.38 0 .39-.01.24-.18Zm-15.25-.04c-.27-.27-.01-.9.3-.72.07.04.03-.04-.1-.18-.31-.34-.29-.81.04-1.07l.27-.21h-.73v1.15c0 1.02.02 1.15.17 1.15.13 0 .14-.03.05-.12Zm-21.09-.17c.43-.16.41-.49-.04-.91-.43-.39-.38-.66.09-.53.16.04.22.01.22-.11 0-.11-.09-.16-.26-.16-.67 0-.87.53-.34.92.5.36.24.87-.3.58-.22-.12-.27-.01-.08.18.14.14.38.15.71.03Zm1.16-.13c.05-.13.12-.47.16-.75.06-.5.08-.53.36-.53.19 0 .29-.05.29-.15 0-.12-.13-.15-.58-.15-.69 0-1.04.16-.56.26.34.07.33-.04.1 1.26-.07.34.11.37.23.06Zm2-.72c-.27-1.08-.38-1.09-.97-.03-.39.7-.51 1.2-.18.74.17-.22 1.06-.25 1.06-.03 0 .13.2.27.28.21.02-.01-.07-.42-.19-.89Zm.81.75c0-.55.32-.69.49-.21.05.17.17.3.25.3.2 0 .2-.04.02-.39-.13-.25-.13-.28.05-.39.3-.19.26-.7-.07-.82-.3-.12-.71-.13-.78-.02-.11.19-.18 1.72-.07 1.72.06 0 .11-.09.11-.19Zm2.94.09c.41-.15.36-.6-.12-.99-.4-.33-.34-.52.14-.43.26.05.34-.15.09-.24-.66-.26-1.05.65-.4.94.44.2.33.52-.17.52-.4.01-.42.02-.24.15.23.18.36.18.7.05Zm3.34-.01c.96-.33.62-1.89-.37-1.64-.84.21-1.04 1.34-.28 1.65.29.12.29.12.65-.01Zm3.22-.38c0-.73.11-1.01.41-1.01.15 0 .3-.04.34-.09.07-.13-.5-.23-1-.19-.48.04-.61.28-.15.28.25 0 .3.03.26.17-.17.6-.19 1.38-.02 1.24.09-.07.16-.25.16-.4Zm1.84.3c.23-.25.14-.54-.25-.81-.42-.31-.39-.54.07-.47.37.06.43-.07.11-.27-.63-.4-1.03.52-.42.98.44.34.34.61-.19.51-.29-.06-.3-.05-.12.1.27.21.59.19.8-.04Zm6.84.03c.34-.24.29-.61-.13-.85-.53-.31-.47-.54.13-.49.27.02.29-.16.02-.25-.71-.22-1.08.49-.45.86.53.32.35.8-.22.58-.17-.06-.23-.05-.23.05 0 .28.54.34.88.1Zm3.94-.22c.11-.41.24-.4.45.03.09.19.2.35.25.35.11 0 .1-.15-.04-.45-.1-.22-.08-.28.1-.46.43-.39.23-.82-.39-.83l-.43-.01-.12.75c-.16.97-.16 1.02-.02.98.07-.03.16-.19.2-.36Zm3.06.11c.19-.26.15-.4-.23-.7-.51-.41-.47-.58.13-.53.3.02.28-.18-.03-.26-.64-.16-.97.44-.47.86.47.39.32.85-.22.64-.09-.03-.16-.01-.16.04 0 .26.77.22.98-.05Zm.67-.12c.05-.22.13-.3.37-.35.91-.18.85-1.06-.07-1.06-.3 0-.56.77-.55 1.68 0 .23.18.03.25-.27Zm2.83.02c.52-.57.09-1.53-.62-1.39-.65.13-1.03.84-.71 1.32.32.49.92.52 1.33.07Zm.92-.15c0-.29.26-.21.4.12.07.17.19.3.26.3.17 0 .17-.02.03-.33-.09-.21-.07-.3.12-.56.32-.43.18-.65-.44-.69-.53-.04-.53-.04-.62 1.03-.06.64-.05.68.09.51.09-.11.16-.28.16-.38Zm2.05-.4c.06-.55.08-.58.35-.58.16 0 .3-.07.34-.15.04-.13-.07-.15-.69-.15-.6 0-.75.03-.75.15q0 .15.3.15c.32 0 .34.12.14 1.08-.03.13-.01.28.02.34.11.17.22-.16.29-.84Zm1.66.82c.3-.17.25-.66-.08-.87-.54-.34-.57-.57-.08-.51.28.03.35.01.33-.11-.05-.25-.54-.25-.77-.02-.28.28-.27.38.14.75.48.45.41.74-.14.59-.12-.03-.21-.01-.21.05 0 .21.5.28.81.12Zm-29.53-.32c.03-.21.1-.27.42-.32.75-.12.84-.85.12-1-.53-.11-.57-.06-.66.76-.04.33-.1.66-.13.75-.04.11-.02.14.08.11.08-.02.15-.16.17-.3Zm3.76.02c.03-.16.12-.3.2-.3.07 0 .19.14.26.3.07.17.19.3.26.3.12 0 .12-.05-.01-.3-.14-.28-.14-.31.05-.5.44-.44.14-.95-.53-.88-.31.03-.32.05-.39.58-.04.3-.1.67-.13.83-.07.38.21.36.29-.03Zm11.76.1c0-.69.21-1.2.51-1.2.19 0 .29-.05.29-.15 0-.12-.14-.15-.65-.15s-.65.03-.65.15c0 .08.09.15.2.15.22 0 .24.14.11.92-.06.37-.05.48.06.48.07 0 .13-.09.13-.2Zm.9 0c.08-.15.21-.2.5-.2s.42.05.5.2c.21.39.28.19.14-.42-.18-.81-.31-1.11-.47-1.05-.11.03-.96 1.43-.97 1.6 0 .15.2.06.3-.13Zm-14.57.02c-.42-.26-.27-1.16.21-1.28.34-.08.51-.01.71.3.36.54-.38 1.32-.92.98Zm21.96-.13c-.39-.39-.01-1.19.56-1.19.53 0 .74.78.32 1.18-.29.28-.61.28-.88.01ZM17.1 18.7c.24-.44-.23-.83-.58-.48-.13.13-.16.5-.05.61.14.15.53.06.63-.13Zm22.05.04c.19-.2.16-.43-.07-.58-.33-.2-.69.2-.54.6.07.19.41.18.61-.02Zm-8.68-2.8c2.01-1.65 2.03-1.67 2.39-2.68.18-.5.32-.91.31-.93-.1-.09-1.04.69-3 2.47l-2.26 2.05.37.07c.75.13.95.04 2.19-.98Zm.7.96h.51l.41-1.21.4-1.21-.29.24c-2.83 2.3-2.86 2.34-2.08 2.24.29-.03.76-.06 1.05-.06Zm-22.59-.99c1.98-1.67 1.88-1.55 2.26-2.63.19-.54.34-.98.32-.98-.34 0-2.07 1.45-4.36 3.67l-.95.92.78.01h.78zm1.43-.18.37-1.12-1.29 1.1c-.71.61-1.29 1.13-1.29 1.15 0 .03.41.03.92.02l.91-.03zm8.68 1.13c-.02-.02-.98-.7-2.13-1.5-2.09-1.46-2.09-1.46-2.35-1.3-.68.43-4.01 2.76-4.01 2.8 0 .02 1.92.04 4.27.04 2.34 0 4.24-.02 4.22-.04Zm21.79-.16c-1.58-1.23-3.94-2.77-4.12-2.68-.22.12-3.85 2.65-4 2.79-.06.05 1.69.09 4.13.09h4.24zm-29.59-.68c2.4-1.69 3.54-2.41 3.7-2.33.09.05 1.06.72 2.15 1.5 1.1.77 2.02 1.39 2.04 1.36.02-.02-.3-1.13-.73-2.47l-.77-2.43.3-.25c.16-.14 1.03-.83 1.93-1.55l1.64-1.3-2.5-.03-2.5-.02-.69-2.08c-.38-1.14-.75-2.23-.83-2.42l-.15-.35-.81 2.4-.82 2.4-2.48.05-2.48.05 1.58 1.28c.87.7 1.73 1.4 1.92 1.55l.34.29-.21.59c-.11.32-.46 1.31-.77 2.19-.74 2.07-.77 2.17-.62 2.09.07-.04.41-.27.76-.52Zm22.64-.35c.73-.51 1.69-1.19 2.14-1.5l.82-.57.98.67c.54.37 1.5 1.04 2.12 1.5.63.45 1.16.81 1.18.79.02-.01-.31-1.1-.72-2.41-.41-1.32-.75-2.44-.75-2.5 0-.1 1.93-1.66 3.23-2.6l.69-.5-2.52-.05-2.52-.05-.81-2.37c-.45-1.31-.84-2.34-.88-2.3s-.41 1.12-.84 2.39l-.77 2.33-2.5.02-2.51.03 1.85 1.47c2.26 1.79 2.13 1.64 1.88 2.15-.16.33-1.5 4.26-1.5 4.39 0 .1.2-.03 1.43-.89Zm11.57.38v-.45h-1.05c-1.26 0-1.24.07-.24-.97 1.48-1.55 1.63-2.87.4-3.7-.8-.54-2.8-.17-2.67.48.03.17.06.39.06.49 0 .16.05.15.47-.06 1.35-.69 2.33.24 1.54 1.47-.15.24-.7.89-1.22 1.44-.88.94-.94 1.02-.91 1.37l.03.38h3.59zM21.9 13.5v-2.9h-.59c-.89 0-1.61.59-1.61 1.31 0 .56-.02.55.5.29.22-.11.44-.2.5-.2s.1.74.1 2.2v2.2h1.1zm11.6 1.13c0-.1.2-.83.45-1.63.57-1.84.64-1.6-.75-2.69-.66-.52-1.2-.98-1.2-1.02 0-.05.75-.1 1.66-.11l1.66-.03.5-1.4c.74-2.07.69-2.07 1.36-.04l.49 1.44 1.66.03c2.02.03 2.01 0 .56 1.12-1.59 1.23-1.48.92-.94 2.75.25.86.44 1.6.41 1.63-.06.05-.81-.44-2.12-1.37l-.71-.5-1.14.77c-1.73 1.19-1.89 1.28-1.89 1.05Zm-22.08-.09c.03-.1.24-.75.45-1.44.22-.69.43-1.37.46-1.52.07-.25-.02-.34-1.13-1.25-.66-.53-1.2-1.01-1.2-1.05s.74-.08 1.64-.08h1.64l.38-1.08c.57-1.64.7-1.96.81-1.99.09-.03 1.13 2.72 1.13 2.98 0 .05.74.09 1.75.09.96 0 1.75.04 1.75.08 0 .05-.59.55-1.3 1.12-.9.72-1.29 1.08-1.25 1.19.19.65.85 2.97.85 3.03 0 .22-.53-.1-2.22-1.34l-.67-.49-1.37.92c-1.49.99-1.81 1.15-1.72.83Zm1.7-1.14c1.42-.97 1.31-.96 2.54-.09 1.01.72 1.34.93 1.34.85 0-.03-.5-1.81-.76-2.68-.03-.11.27-.41 1.06-1.03.61-.48 1.1-.89 1.08-.9-.02-.02-.68-.06-1.46-.08-.79-.03-1.45-.06-1.47-.08s-.22-.58-.44-1.24c-.23-.66-.44-1.27-.47-1.35s-.27.44-.54 1.2l-.47 1.35-1.36.05c-.75.03-1.39.09-1.42.12s.37.4.9.83.99.84 1.04.92c.06.11.31.04 1.32-.37 1.49-.62 1.63-.66 1.24-.44-.16.1-.81.39-1.44.65-1.34.57-1.19.45-1.36 1.07-.13.5-.13.51.09.42.69-.26 1.3-.61 1.96-1.15 1.3-1.05 1.38-1.03.13.02-.83.7-1.08.86-1.93 1.21-.42.18-.46.23-.67.85-.26.82-.33.83 1.09-.13Zm22.06 0c1.41-.97 1.22-.97 2.67.02.65.45 1.16.75 1.13.67s-.22-.72-.42-1.42c-.44-1.5-.52-1.28.88-2.36l.99-.76-1.42-.06c-1.67-.07-1.48.07-2.02-1.51-.24-.7-.45-1.25-.49-1.22-.03.03-.25.62-.5 1.32l-.45 1.27-1.45.1-1.44.1.89.7c.5.38 1 .8 1.12.93l.22.24 1.13-.47c1.47-.6 1.44-.59 1.36-.51-.03.04-.66.33-1.39.64-1.28.55-1.33.59-1.46.96-.07.22-.11.41-.09.43.1.1 1.97-.89 2.51-1.33.33-.26.54-.41.47-.32-.3.37-1.3 1.06-2.15 1.48l-.92.45-.22.6c-.39 1.06-.42 1.06 1.05.05ZM.01 10.51c-.05-2.95 3.39-7.39 7-9.05 1.4-.64 4.6-1.47 5.62-1.45.44.01.31.05-.8.27-1.2.23-1.69.42-1.1.42.12 0 1.68.24 3.47.54 9.64 1.61 14.69 1.61 24.35 0 1.48-.25 2.71-.47 2.74-.49.07-.08-2.93-.55-3.52-.55-.15 0-.27-.04-.27-.1 0-.46 5.2.56 6.87 1.35 3.58 1.69 6.86 5.99 6.82 8.95v.55l-.19-.9c-.75-3.53-3.27-6.7-6.65-8.36-1.68-.82-2.09-.88-3.68-.6-6.77 1.19-8.91 1.43-13.49 1.48-5.27.07-6.42-.03-13.03-1.13C9.78.72 9.75.72 8.7 1.05 4.33 2.44 1.21 5.82.2 10.25l-.18.8z"/></svg>