<svg xmlns="http://www.w3.org/2000/svg" width="51" height="51" viewBox="0 0 51 51"><path fill="#fff" fill-rule="evenodd" stroke="#fff" stroke-width=".332" d="M27.92 49.53c-.02-.81-.03-.83-.26-.83s-.25.04-.29.53l-.03.52-.02-.57c-.02-.72-.06-.73-1.08-.53-.47.09-.96.14-1.1.11-.47-.12-.69.02-.88.55-.1.28-.2.48-.22.46s.03-.23.11-.47c.08-.23.15-.44.15-.45 0-.15-2.9-.18-3.07-.03-.09.07-.13.07-.13-.01s-.26-.11-.82-.1c-.46 0-1.15-.02-1.53-.06q-1.545-.15-1.56.48c-.01.18-.05.46-.1.62-.06.22-.07.12-.04-.32l.05-.63h-.69l-.04.58-.03.57-.02-.6-.02-.61-.47-.12c-.37-.1-.48-.1-.55 0-.06.1-.08.09-.08-.03 0-.5-.28-.37-.35.16-.16 1.32-.3 1.45-.27.24.04-1.06.02-1.15-.17-1.33-.12-.11-.22-.17-.24-.15l-.22.44c-.12.24-.33.47-.54.57-.3.15-.35.23-.38.6-.06.59-.13.61-.13.03v-.48l-.68.06c-.38.03-.87.02-1.08-.03-.45-.11-1.14-.02-1.19.14-.01.06-.08.27-.14.46l-.11.35.05-.42c.05-.42.05-.43-.24-.43-.27 0-.3.04-.34.38-.04.37-.04.37-.05-.07l-.02-.44-.38.07c-.2.03-.47.06-.59.06-.14 0-.23.07-.26.23-.04.19-.04.18-.06-.05-.01-.24-.05-.28-.3-.28-.16 0-.42-.03-.58-.06-.29-.06-.29-.05-.53.7-.28.89-.38.94-.16.08.21-.79.21-.8-.17-.96-.91-.37-.91-.79-.08-4.14.78-3.15.9-3.47 1.36-3.69.23-.11.41-.33.65-.82.48-.97.96-1.67 1.73-2.48l.68-.72-.4-.4c-.43-.43-.9-1.27-1.12-1.99-.11-.37-.16-.42-.33-.37-1.04.31-1.87.08-2.21-.6-.11-.22-.24-.42-.28-.43C5.53 32.58 5 31.71 5 31.05c0-1.15.82-1.92 2.72-2.54.54-.18.98-.36.98-.39 0-.04-.07-.32-.15-.62s-.15-.68-.15-.84v-.28l-.41.37c-1.66 1.5-4.29.67-4.29-1.35 0-1.26 1.26-2.35 2.3-1.98.37.12.24.28-.25.28-.9 0-1.6 1.26-1.09 1.98.57.81 1.94-.27 1.94-1.54.01-1.78.9-3.27 2.58-4.26 1.58-.94 2.44-2.3 2.67-4.23.47-3.82 1.86-6.04 5.28-8.46.72-.52 1.64-1.19 2.03-1.5 2.33-1.86 4.7-2.68 8.59-2.99 2.85-.22 2.94-.2 5.45 1.29.63.38 1.4.82 1.7.97 2.04 1.07 4.94 8.56 4.66 12.03-.1 1.2-.1 1.13.04 2.41.15 1.37.09 2.21-.21 2.91-.32.73.23 2.23 1 2.78l.3.22.21-.42c.61-1.19.34-2.18-.46-1.68-.41.25-.48.06-.11-.29.91-.85 1.7-.02 1.71 1.79l.01.96.28-.09c1.34-.47 2.04-3.75.86-4.05-.38-.1-.34-.29.06-.26 1.39.08 1.38 3.12-.01 4.62l-.53.58.27.12c1.46.67 2.19 2.06 2.06 3.93-.06.9-.05.98.17 1.29.79 1.11-.09 3-1.85 3.99l-.57.33.73.46c1.46.94 2.06 1.94 1.95 3.27-.04.56-.02.65.19.85.35.33.36.57.24 3.46-.17 4.11-.38 4.52-2.33 4.53-.22 0-.33.09-.55.44-.46.75-.54.83-.23.24.17-.32.31-.6.31-.62 0-.03-.82-.04-1.83-.03-1.56.02-1.86 0-2.08-.15-.25-.16-.3-.16-.8 0l-.54.17.02.75c.01.64 0 .69-.07.35-.05-.22-.09-.56-.09-.76-.01-.36-.02-.37-.5-.43-.6-.08-1.13-.29-1.57-.63l-.33-.24-.3.22c-.3.22-.31.25-.32 1.13l-.02.91-.08-.7c-.05-.38-.06-.76-.04-.82.05-.16.05-.16-.32-.03l-.3.11.03.77c.03.64.02.7-.06.37-.05-.22-.09-.55-.09-.72-.01-.54-.58-.49-.64.05l-.04.37-.01-.36c-.02-.35-.03-.36-.48-.43-.55-.07-1.3-.39-1.61-.68l-.22-.21-.12.26c-.17.38-.83.67-1.51.67-1.15 0-1.17.01-1.21.89l-.03.76zm-2.61-1.54c.31.01.92-.07 1.35-.18l.78-.2.2.21c.17.18.28.2 1.17.16 1.25-.05 1.29-.09 1.44-1.25l.11-.88.26.51c.91 1.76 2.88 2.13 4.25.81l.42-.4.46.42c.86.79 2.02.99 2.95.5.56-.3.58-.29.73.01.19.38 2.11.53 2.53.19.06-.05.23-.04.42.03.39.15 2.02-.03 2.37-.26.29-.19.31-.37.45-3.68.14-3.1.23-2.88-1.21-2.88-.61 0-1.19.05-1.3.11-.16.08-.25.07-.4-.07-.17-.15-.33-.16-1.31-.11-1.23.07-1.48.19-1.48.69 0 .33-.12.35-.48.09-.9-.63-2.35-.5-3.26.3l-.46.41-.19-.24c-.62-.78-2.23-1.09-3.18-.62-.38.19-.43.2-.43.05 0-.57-.15-.61-2.41-.61-1.29 0-2.18.04-2.3.11-.15.08-.31.06-.67-.08-1.4-.54-3.72.04-3.72.93 0 .43-.17.25-.23-.23-.08-.7-.2-.76-1.57-.7-1.4.06-1.47.08-1.62.61l-.13.41-.05-.4c-.07-.59-.48-.77-1.61-.73-1.67.07-2.63 1.05-2.89 2.98-.36 2.59.76 4.13 2.84 3.95 1.15-.1 1.41-.1 2.33 0 .58.05.87.04.96-.03.1-.09.21-.09.44 0 .22.08.47.08.94.01.35-.06.69-.07.74-.03.16.13.84.18 1.55.13.36-.03.9-.05 1.21-.04Zm-16.53-.11c.09-.09.17-.09.36.02.18.09.43.11.93.05.37-.04.73-.07.78-.06.8.12 1.86.11 2.17-.02.45-.19.45-.17.58-2.77.06-1.07.15-2.26.19-2.64.15-1.14.04-1.26-1.17-1.26-1.4.01-1.82.17-1.82.68 0 .36-.17.25-.24-.17-.09-.6-.21-.65-1.5-.58-1.73.08-1.5-.26-2.42 3.5-.68 2.75-.68 2.77-.49 2.97.33.31 2.37.54 2.63.28Zm31.25-.35c-.1-.03-.13-.41-.14-1.36-.01-1-.03-1.22-.1-.9-.49 2.51-3.28 2.89-4.3.59l-.22-.5-.18.48c-1 2.63-4.24 1.8-4.24-1.1 0-3.07 3.56-3.92 4.35-1.04.06.23.09.21.3-.27.95-2.19 3.51-1.94 4.26.42.12.38.13.35.14-.65.03-1.59 0-1.54 1-1.61 1.04-.07.98-.11 1.52 1.14l.43 1.02.05-.95c.03-.52.09-1.01.13-1.07.09-.15 1.62-.19 1.71-.05.05.09-.24 5.45-.3 5.52-.11.11-1.7.28-1.79.19-.06-.06-.28-.58-.51-1.16l-.41-1.06-.06.69c-.04.38-.07.88-.07 1.12 0 .25-.05.44-.12.46-.23.07-1.33.14-1.45.09Zm-28.73-.18c-.08-.09-.23-.1-.61-.03-.88.16-1.21.08-1.31-.29-.12-.48-.75-.5-.85-.03-.08.42-.13.43-1.09.35-.74-.06-.84-.09-.84-.26 0-.32 1.22-5.08 1.34-5.23.22-.28 1.95-.31 2-.04.23 1.11 1.17 4.73 1.25 4.81s.11-.6.11-2.31c0-1.85.03-2.44.13-2.47.06-.02.5-.06.96-.1l.84-.07-.08 1.34c-.04.73-.1 1.97-.14 2.75-.04.79-.11 1.47-.16 1.52-.17.15-1.43.2-1.55.06Zm4.8-.01c-2.86-1.24-.95-6.84 1.96-5.74l.27.11-.07.87c-.08.99-.13 1.08-.6 1.04-.72-.07-1.22.5-1.09 1.21.11.55.81.73 1.57.42.18-.08.19-.04.14.81-.07 1.14-.01.97.64-1.8.63-2.74.5-2.53 1.67-2.58l.95-.03.41 1.5c.23.83.53 1.88.68 2.35l.26.85v-1.81c.01-3.01-.04-2.91 1.67-3.01 1.24-.08 2.31.41 2.35 1.06 0 .09.06-.09.12-.39l.12-.55 1.84-.03c1.02-.01 1.88.01 1.92.05.04.05.05.49.01.98l-.07.9-.46.03-.46.03-.12 1.76c-.16 2.19-.07 2.01-.98 2.05-.93.04-.83.26-.83-1.89V43.7h-.45c-.41 0-.45.02-.45.25 0 .34-.26.94-.52 1.22l-.2.22.31.75c.42 1.01.42 1.02-.26 1.16-.32.06-.68.14-.8.17-.25.06-.32-.06-.58-.99-.23-.8-.42-.76-.5.1-.03.37-.08.73-.1.8-.06.17-1.44.17-1.51-.01-.04-.11-.21-.11-.92-.01-.92.12-1.02.09-1.02-.31 0-.28-.19-.45-.47-.45-.24 0-.27.04-.37.52-.07.32-.47.37-1.46.18-.41-.08-.62-.07-.97.05-.55.19-1.18.19-1.63-.01Zm1.7-.24c.13-.07.19-.28.23-.82.07-.85.08-.83-.36-.67-.87.31-1.59-.5-1.27-1.45.16-.49.53-.76 1.05-.76.49 0 .5-.02.6-.92l.07-.66-.41-.07c-2.72-.46-3.96 4.48-1.36 5.43.32.12 1.17.07 1.45-.08Zm6.5-.39c0-1.48.69-1.6 1.01-.18.15.71.17.72.89.57l.58-.12-.33-.8-.34-.79.34-.45c1.39-1.81-.21-3.7-2.65-3.12l-.55.13-.03 2.68-.02 2.67h1.1zm17.04.37c.03-.13.08-.71.11-1.29.1-1.68.16-1.67.85.16l.45 1.2.6-.03c.96-.06.9.09 1.03-2.39.07-1.2.12-2.35.12-2.57v-.39l-.61.06c-.77.07-.71-.04-.77 1.42-.06 1.56-.11 1.55-.8-.13l-.54-1.32h-.67c-.94 0-.88-.19-.93 2.82l-.05 2.68h.58c.53 0 .59-.02.63-.22Zm-32.98-.25c.14-.59 1.04-.59 1.18 0l.1.39.6-.07c.81-.09.8-.02.37-1.55-.21-.74-.48-1.82-.61-2.4-.12-.58-.24-1.11-.26-1.17-.02-.09-.28-.13-.83-.13h-.8l-.1.38c-.23.87-1.1 4.39-1.13 4.57-.03.17.04.21.47.26.94.11.91.12 1.01-.28Zm4.2.29c.08-.04.16-.82.23-2.15.06-1.15.14-2.28.18-2.53l.06-.44h-.45c-.25 0-.6.03-.77.06l-.31.06v5.08h.48c.26 0 .52-.04.58-.08Zm7.38-.04c.03-.07.07-.25.1-.4.06-.26.1-.28.56-.28s.5.02.56.28c.12.55.1.54.71.46 1-.12.96-.01.52-1.54-.22-.74-.53-1.88-.71-2.52l-.31-1.18h-.79c-.98 0-.8-.42-2.02 4.93-.03.11.03.19.17.22.12.02.31.06.42.08.41.09.76.07.79-.05Zm9.43-.01c.05-.06.31-2.74.33-3.39 0-.25.04-.28.34-.28.63 0 .66-.05.66-.88v-.75l-1.67.06c-.91.04-1.67.08-1.69.1-.01.01-.03.36-.06.78l-.03.76.5-.01.5-.01.03 1.89.02 1.89.5-.05c.28-.03.53-.08.57-.11Zm4.38-.06c2.07-.95 1.57-4.81-.63-4.81-2.26 0-2.88 3.76-.8 4.79.52.26.91.26 1.43.02Zm4.66-.06c.74-.39 1.25-1.49 1.17-2.55-.17-2.32-2.76-3.03-3.78-1.04-1.04 2.02.78 4.53 2.61 3.59Zm-11.21-.81c-.25-.58-.25-.53.05-1.05l.25-.44v.97c0 1.12-.02 1.15-.3.52Zm5.25-.76c-.51-.6-.12-1.68.6-1.68.31 0 .75.53.75.9 0 .99-.79 1.45-1.35.78Zm4.56.05c-.29-.36-.35-.66-.21-1.07.32-.98 1.45-.8 1.57.25.1.9-.85 1.48-1.36.82Zm-3.7-.12c.44-.35.21-1.41-.31-1.41-.04 0-.18.09-.31.19-.44.35-.21 1.41.31 1.41.04 0 .18-.09.31-.19Zm4.59.01c.26-.21.32-.91.1-1.17-.18-.22-.77-.19-.9.04-.39.75.22 1.6.8 1.13Zm-17.63.02c-.11-.11.19-1.44.32-1.44.11 0 .31.79.31 1.19 0 .3-.42.46-.63.25ZM8.6 45.22c0-.26.23-1.28.3-1.36.12-.12.26.24.35.92l.07.52h-.36c-.2 0-.36-.04-.36-.08Zm8.57-.39c-.31-.3.16-.75.74-.71.59.04.59.22 0 .52-.53.27-.64.3-.74.19Zm7.33-1.05c0-.85.18-1.06.7-.78.67.36.41 1.41-.37 1.52l-.33.05zm.64.39c.3-.22.18-.91-.16-.95-.28-.03-.28-.02-.28.52 0 .59.09.68.44.43Zm-9.84-3.52c0-.06.18-.46.4-.9.46-.93.44-.99-.39-1-.58 0-.6.01-1 .46-.22.26-.54.52-.7.59-.3.12-.53.51-.34.57.49.17 1 .53 1.13.8l.15.32.38-.37c.2-.2.37-.41.37-.47Zm20.15.75c.31-.51 2.25-.88 3.1-.6.33.11.39.1.58-.08.12-.12.34-.25.49-.31.33-.12.36-.33.08-.61-.11-.11-.16-.2-.11-.2.1 0 .47.43.53.62.03.07.29.08.81.03l.77-.07-.21-.27c-.11-.14-.41-.38-.66-.53l-.45-.26-.62.29c-.9.43-1.77.35-2.58-.23l-.31-.22-.86.18c-.47.09-.93.23-1.02.29-.09.07-.5.36-.92.66l-.77.55.64.16c.35.09.79.28.97.42.38.3.45.32.54.18Zm-3.12-.72c.29-.15 1.2-.82 1.83-1.35.55-.46.97-.64 1.9-.82 1.19-.23 1.13-.19.58-.5-.27-.16-.8-.58-1.19-.93-.89-.81-1.13-.98-1.45-.98-.23.01-.24.01-.06.12.18.1.18.11-.06.22-.13.06-1.02.94-1.97 1.96l-1.71 1.85.54.06c.3.03.69.15.88.27.4.25.43.25.71.1Zm-8.75-.37c.72-.15 1.99-.14 2.54.03.27.08.52.1.59.05.08-.05.59-.09 1.14-.09h1.01l1.34-1.42c.74-.78 1.56-1.69 1.82-2.02l.48-.61-.25-.08c-.39-.13-.3-.27.18-.27.25-.01.5-.08.63-.19l.22-.18-.34-.69c-.47-.95-.78-1.95-1.14-3.59-.29-1.28-.51-1.84-.76-1.92-.05-.01-.31.32-.59.73-1.38 2.09-5.76 4.73-8.27 4.99l-.68.07v.92c0 1.5-.24 3.02-.66 4.09-.04.11.09.15.54.19.33.03.72.13.88.21.24.13.33.13.54.02.14-.07.49-.18.78-.24Zm-11.65.13c.26-.08.21-.24-.2-.58-.29-.26-.36-.39-.38-.72 0-.21-.09-.57-.19-.79-.13-.28-.16-.52-.12-.83l.06-.43-.37.28c-.74.57-2.13 2.47-2.13 2.92 0 .08.21.09.68.05.48-.04.78-.01 1.07.09.37.14 1.09.14 1.58.01Zm8.09-.1c.29-.09.81-1.58.85-2.44.05-1.02.01-1.07-.78-.87-.35.08-.87.18-1.16.22-.28.04-.58.12-.66.18-.5.4-2.27 2.81-2.15 2.93.02.01.21-.01.43-.06.56-.13 1.33-.11 1.8.05.37.13 1.22.12 1.67-.01Zm24.73-.36c.14-.73-.29-1.82-.94-2.41-.53-.48-.57-.47-.26.1.3.57.3.61.07.86-.16.19-.16.2.09.14.31-.08.39.05.39.57 0 .41-.34.75-.84.83-.66.1-.37.23.54.23h.89zm-31.64-.33c.88-.31 1.82-1.75 1.58-2.43-.12-.34.02-.72.4-1.06.33-.3.28-.5-.09-.31-.35.18-.57.56-.66 1.15-.08.5-.98 1.24-1.94 1.61-1.43.54-.74 1.55.71 1.04Zm30.47-.01c.39-.27.28-.47-.4-.68-.99-.31-1.62-1-1.77-1.96-.04-.27-.04-.5 0-.5.05 0 .09.11.09.25 0 .65.72 1.56 1.39 1.76.79.24.9-.05.32-.79-.41-.52-.91-1.42-.91-1.65 0-.07.25-.37.55-.67.72-.71.95-1.31.95-2.43 0-1.51-.63-2.31-2.75-3.47-2.25-1.24-2.49-1.7-2.8-5.4-.09-1.02-.32-2-.55-2.3-.27-.36-.33-.21-.19.49.18.92.04.84-.17-.1-.14-.62-.24-.85-.41-.97-.35-.22-.36-.13-.08.64.54 1.51.67 2.21.73 4.1.1 2.49.15 2.57 2.62 4 2.07 1.2 3.53 3.37 2.87 4.28-.1.14-.12.08-.12-.41 0-1.27-1.12-2.58-3.3-3.88-2.09-1.24-2.35-1.69-2.35-4.02 0-1.51-.08-1.96-.66-3.75-.62-1.93-.86-2.25-2.44-3.31-1.3-.88-1.94-1.52-2.42-2.45-.47-.9-.41-.92.16-.04.52.8.69.99 1.42 1.53.79.6.76.45-.16-.83-1.43-1.96-2.75-3.36-4.2-4.44l-.84-.63-.31.37c-.16.2-.54.63-.82.96-1.03 1.15-.54 2.47 1.22 3.27.71.32.7.32.5-.14-.19-.45-.19-1.71-.01-2.12.12-.27.13-.22.09.55-.06.99.08 1.62.43 1.97s.37.26.08-.33c-.43-.87-.42-2.05.02-2.59.15-.19.15-.19.09.05-.35 1.4.05 2.78.95 3.33.21.13.3.15.23.07-.23-.3-.52-1.38-.58-2.15-.07-.96.11-.72.26.35.05.36.27 1.02.48 1.5.21.47.46 1.08.55 1.36.14.44.37.72 1.54 1.9 1.67 1.69 2.15 2.4 2.19 3.29.02.55.02.57-.08.25-.21-.74-.82-1.81-1.43-2.52-1.07-1.25-1.01-1.25-1.01 0 0 1.28-.14 1.64-1.2 3.11-2.02 2.79-.97 5.23 2.24 5.2h.86l-1.08-.38c-1.84-.65-2.3-1.4-1.63-2.68.23-.45.38-.51.21-.09-.36.86-.1 1.86.56 2.19.4.19.43.18.29-.17-.34-.91.49-2.62 1.54-3.18.24-.13.27-.18-.47.75-1.2 1.48-1.17 2.55.08 3.08 1.31.56 1.3.69-.08.69h-1.18l.17.31c.79 1.54 3.62 2.55 4.09 1.46.09-.2.14-.25.15-.14 0 .1-.04.27-.1.37-.08.14-.05.19.13.25.47.15-.61.39-1.78.39-1.14.01-1.93-.22-2.48-.72-.43-.38.03 1.9.55 2.7.53.85 3.36 3.44 3.54 3.25.09-.09-.53-1.43-.94-2.04s-.72-1.17-.72-1.3c0-.04.12.1.27.32.14.22.41.58.6.79.18.22.6.95.94 1.62.66 1.33 1.05 1.79 1.64 1.9 1.89.35 2.37-1.9.78-3.66-.24-.27-.42-.54-.39-.59.13-.21-.59-1.05-1.19-1.38s-.54-.45.09-.19c.52.22 1.03.73 1.42 1.42.2.35.4.62.45.58.2-.12.1-1.1-.16-1.48-.13-.2-.21-.36-.17-.36.16 0 1.09.6 1.31.84.32.34.48.33.56-.04.15-.71-.66-1.62-2.31-2.61-.85-.5-.4-.45.51.06 1.31.73 2.07 1.58 2.09 2.3.01.52.21.45.32-.12q.27-1.41-3.36-3.48c-1.69-.96-2.04-1.4-2.04-2.62 0-.44.04-.77.12-.85.09-.09.12.04.12.63 0 1.35.27 1.64 2.86 3.14 2.04 1.17 3.28 3.11 2.7 4.23-.23.45-.28.4-.2-.2.06-.49.05-.52-.09-.32-.09.11-.34.29-.57.39l-.41.18-.37-.36c-.47-.46-.47-.46-.48.07 0 .25-.08.55-.16.68-.15.22-.14.26.03.49.33.42.62 1.54.55 2.1-.05.37-.03.49.06.49.07 0 .05.05-.05.11-.16.09-.11.14.4.38.32.16.8.42 1.07.6.55.34.99.4 1.34.15Zm-30.89-1.49c.59-.29.65-.4.19-.3-.5.11-.27-.04.44-.28l.63-.22.07-.68c.06-.6.18-1.05.18-.67 0 .09.1.04.28-.12.15-.14.43-.35.62-.45.72-.4.78-1.21.25-3.8-.19-.95-.34-1.98-.34-2.3.02-.57.02-.57.1.2.04.43.25 1.38.45 2.1.44 1.57.52 2.88.21 3.44-.15.29-.15.32-.01.26.15-.05.15-.03 0 .25-.77 1.48.37 3.25 1.55 2.41.38-.27.37-.4-.03-.28-.77.22-1.32-.04-1.44-.66-.08-.42.11-.76.98-1.81.93-1.13.83-.85-.14.4-.21.27-.37.51-.34.53.14.15 1.19-.64 1.47-1.12.11-.16.19-.23.19-.15 0 .3-.4.79-1.09 1.34-.39.31-.71.61-.71.66 0 .27.15.4.45.4.62 0 1.39-1.01 1.85-2.43.19-.61.22-.36.04.43-.11.51-.29.9-.6 1.36-.5.72-.4.83.27.31.32-.24.55-.55.86-1.17.23-.47.42-.8.43-.74 0 .18-.31 1.19-.41 1.29-.26.27.29.26 1.29-.01.51-.14.52-.15.52-.54 0-.48-.15-.9-.32-.9-.96 0-2.82-2.02-4.33-4.69-.78-1.39-1.22-2.67-1.4-4.07-.07-.47-.1-.52-.52-.74-1-.53-1.78-1.78-1.9-3.06-.04-.49-.11-.68-.29-.85-.13-.13-.24-.33-.24-.46 0-.33-.06-.3-.87.37-.79.65-1.43 1.44-1.69 2.05l-.16.4.23-.22c.5-.46 1.58-.79 1.74-.53.04.06-.06.1-.23.1-1.44 0-2.56 2.37-2.06 4.35.2.79.16.97-.39 1.71-1.17 1.58-1.66 2.95-1.29 3.59.25.42.2.44-.22.09-.37-.32-.5-.12-.21.32.46.71 1.94.5 2.09-.3.04-.2.16-.55.27-.78l.2-.43-.08.5c-.31 1.9.26 3.33 1.59 4.01 1.01.52 1.44.24 1.36-.88-.05-.64-.04-.69.08-.47.34.61.14 1.58-.36 1.79-.52.22-.77 1-.49 1.53.23.42.31.42 1.28-.08Zm25.61-.23c-.46-.49-1.3-1.82-1.15-1.82.03 0 .29.33.59.73.89 1.21 1.37 1.55 1.7 1.21.38-.37.23-.63-1.21-2.04-1-.98-1.24-1.25-.88-1 1.01.68 2.55 2.3 2.55 2.67 0 .95-.81 1.07-1.6.25Zm-8.49-.13c-.61-1.42-1-4.77-.65-5.57.08-.18.1.03.11.9 0 1.16.26 2.95.63 4.38.23.89.2.98-.09.29Zm-17.41-.11c0-.03.18-.44.4-.89s.45-1.08.51-1.4.16-.56.21-.53.06.19.03.35c-.14.63.5.04.8-.75.41-1.08-.09-3.35-.81-3.68-.26-.12-.32-.28-.1-.28.58 0 1.27 1.33 1.34 2.55.06 1.23-.25 2.05-.95 2.5-.18.12-.38.37-.47.6-.15.38-.96 1.67-.96 1.53Zm-1.07-2.14c-.24-.53-.24-2.42 0-3.34l.16-.65-.06 1.6c-.04 1.05-.02 1.78.06 2.14.14.66.07.77-.16.25Zm-1.13-.91c-.3-.75-.39-2.13-.17-2.63.14-.34.14-.32.1.5-.04.65 0 1.06.16 1.74q.375 1.575-.09.39Zm13.57-.36c2.09-.86 5.1-3.27 6.28-5.05l.24-.37-.29-.59c-.62-1.22-.42-2.09.94-3.96.62-.86 1.17-1.94 1.03-2.06-.01-.01-.33.1-.71.25l-.69.26-.23.87c-.6 2.26-1.52 3.2-3.26 3.34-1.89.15-3.79-.78-4.47-2.18-.26-.55-.35-.59-.49-.2l-.1.27-.01-.28c-.01-.15.04-.35.1-.45.07-.11.08-.45.02-1.02l-.08-.85-.35-.12c-.19-.07-.65-.12-1.02-.12L20 22l.01.38c.01.2.03.29.06.2.02-.1.09-.18.14-.18.27 0-.09 1.46-.62 2.52-.41.81-.41.82-.24 1.11l.18.3-.27-.07c-.24-.06-.26-.04-.26.26-.01.31-.01.32-.15.14-.25-.34-.19-.96.16-1.51l.31-.49-.44.46c-.58.59-1.23.82-2.39.82h-.86l.13.71c.4 2.07 2.32 6.06 3.41 7.06 1.04.96 3.01 1.2 4.6.56Zm-7.42-.07c.03-.14.13-.51.21-.83.1-.36.14-.87.12-1.32-.02-.5 0-.71.07-.64.27.27.17 1.81-.15 2.44-.17.33-.28.49-.25.35Zm21.35 0c-.14-.11-.64-.41-1.13-.67-.48-.26-.95-.55-1.03-.65-.25-.27 1.68.8 2.12 1.18.42.36.45.46.04.14Zm6.8-.73c.73-2.09-.12-4.2-2.22-5.48-1.81-1.12-2.33-1.82-3.43-4.66-.26-.68-.76-1.39-.62-.88.12.44.26 1.34.33 2.1.21 2.67.77 3.62 2.79 4.75 2.09 1.17 2.8 2.15 2.78 3.88-.01 1.14.05 1.19.37.29Zm-31.15-.48c-.03-.46-.15-1.09-.25-1.41-.14-.44-.15-.56-.05-.48.25.21.47 1.07.46 1.86 0 1.02-.07 1.03-.16.03Zm-6.6-1.49c.07 0 .21-.22.33-.49.11-.27.36-.75.57-1.06.45-.71.44-.72-.41-.3-1.24.61-1.68 1.42-1.17 2.14l.16.24.19-.27c.11-.14.25-.26.33-.26Zm13.4-.09c-.89-.22-1.26-.49-1.65-1.22-.17-.33-.37-.59-.44-.59-.19 0-.39-.27-.31-.4.05-.08.11-.08.2 0 .22.18.51.03.91-.46.43-.53.74-.63 1.11-.39.23.16.33.16.74.06.58-.15 1.06.02 1.9.69.57.45 1.2.8 1.43.8 1.04 0-1.33 1.27-2.57 1.37-.51.05-.67.09-.63.19.03.08.04.14.03.13-.01 0-.34-.08-.72-.18Zm.95-.69c.36-.05.83-.17 1.05-.27l.4-.17-.5-.14c-.56-.15-1.59-.19-1.51-.05.03.05-.11 0-.31-.1-.76-.39-1.63-.37-1.13.02l.25.2-.29-.07c-.25-.06-.27-.05-.18.12.34.64.58.69 2.22.46Zm2.5-.71c0-.05-.1-.11-.22-.15-.13-.03-.61-.33-1.07-.66-.87-.62-1.11-.69-1.69-.49-.24.08-.38.07-.66-.06-.33-.16-.76-.13-.76.04 0 .04-.15.23-.33.42l-.33.34 1.35.01c1.25 0 1.44.03 2.26.31.91.31 1.45.4 1.45.24Zm20.96-1.04c-.28-.96-1.31-2.04-1.84-1.94-.16.03-.53-.13-1.15-.49-1.06-.63-1.14-.65-.9-.23.26.44.82.9 1.86 1.51.95.56 1.91 1.48 2.04 1.96l.08.27.03-.28c.02-.15-.04-.51-.12-.8Zm-30.52.41c.06-.19.24-1.96.29-2.83.02-.27.04-.05.05.51.02 1.01-.11 2.06-.3 2.34-.08.12-.09.12-.04-.02Zm19.66-.57c0-.31.84-1.33 1.52-1.86l.63-.49-.66.7c-.36.38-.83.95-1.04 1.27-.42.63-.45.66-.45.38Zm-21.19-.03c-.01-.09.12-.87.29-1.73s.3-1.7.3-1.86.05-.29.11-.29c.19 0 .03 1.21-.35 2.7-.19.74-.35 1.28-.35 1.18Zm28.79-.4c-1.28-.72-2.28-1.92-2.46-2.98-.04-.29-.01-.26.18.2.47 1.09 1.2 1.89 2.51 2.75.49.32.65.46.55.45-.02 0-.37-.19-.78-.42Zm-30.7-.14c0-.06.26-.47.58-.92.63-.86 1.22-1.93 1.42-2.54.15-.5.35-.62.25-.17-.13.62-.51 1.45-.98 2.15-.54.79-1.27 1.64-1.27 1.48Zm11-.64c0-.05.08-.1.18-.1.49 0 .79-.85.49-1.36-.51-.88-.51-.91-.09-.44.63.69.64 1.47.03 1.83-.32.19-.61.22-.61.07Zm-14.67-.56c1.02-.35 1.61-1.31 1.77-2.9.17-1.59.77-2.48 2.41-3.55l1.11-.73.43-.9c.41-.85.85-1.49 1.78-2.59.37-.45.38-.45.26-.92-.4-1.57.92-3.31 3.66-4.84 1.46-.82-.03-.58-1.73.28-2.15 1.08-3.71 3.66-3.72 6.13 0 .31-.03.39-.1.28-.45-.69.25-3.19 1.35-4.8 2.06-3.03 8.14-3.96 12.3-1.88 2.66 1.34 5.11 3.59 7.8 7.18.26.36.74.94 1.05 1.3s.69.82.84 1.03c.16.21.69.62 1.2.94.5.31 1.08.69 1.28.85.21.16.42.27.47.24.22-.14.31-1.33.2-2.53-.06-.65-.11-1.76-.1-2.48.06-3.95-2.47-10.62-4.45-11.73-.32-.19-1.11-.63-1.74-.99s-1.46-.81-1.85-1.01l-.7-.37-1.85.01c-3.58.03-6.63.89-8.65 2.44-.44.34-1.5 1.13-2.35 1.75-3.76 2.74-4.99 4.68-5.45 8.57-.22 1.87-1 3.17-2.54 4.2-1.95 1.32-2.51 2.21-2.71 4.34-.19 2-.86 2.73-1.94 2.11-.57-.32-.79-.67-.79-1.23 0-.38-.02-.43-.09-.24-.51 1.39 1.19 2.61 2.85 2.04Zm23.77.03c0-.29.51-.94 1.27-1.62 1.34-1.22 1.39-1.2.17.06-.61.63-1.19 1.25-1.28 1.39-.09.13-.16.21-.16.17Zm-20.5-.24c0-.12.14-.59.3-1.04.17-.45.35-1.05.4-1.33.09-.5.09-.5.06.19-.03.68-.75 2.74-.76 2.18Zm17.95-.51c1.46-.75 2.36-3.82 1.4-4.78-.12-.12-.2-.26-.16-.3.03-.04-.04-.04-.17-.01-.19.04-.22.02-.17-.12.05-.15.01-.17-.22-.13-.26.05-.27.04-.13-.13s.13-.17-.09-.1c-.2.06-.23.04-.18-.09.06-.14.03-.16-.15-.1-.17.05-.2.03-.15-.1.04-.1.01-.16-.07-.16s-.17.06-.19.13c-.03.06-.06.02-.06-.1-.01-.25-.1-.28-1.08-.43-1.74-.27-3.53.39-3.99 1.47-.45 1.04.14 3.34 1.06 4.17 1.09.99 3.21 1.37 4.35.78Zm-17.05.13c0-.19.51-2.49.57-2.55.09-.08-.07 1.08-.24 1.75-.14.58-.32 1.01-.33.8Zm30.64-1.12c.05-.43-.07-1.59-.18-1.7-.02-.02-.09.24-.15.58s-.19.77-.3.95l-.2.34.27.14c.42.23.49.19.56-.31Zm-24.23.11c1.18-.35 2.23-2.27 1.91-3.49l-.08-.3-.07.32c-.21 1.07-2.77 1.02-3.39-.06-.15-.27-.28-.39-.38-.35-.08.03-.04-.06.09-.2l.24-.26h-.66l.07.88c.14 1.82.37 3.46.49 3.54.21.13 1.21.09 1.78-.08Zm-2.73-3.03c-.04-1.36-.06-1.55-.23-1.67-.18-.14-.18-.14.01-.28.29-.22.11-.28-.31-.11-.55.24-.53.12.05-.24.47-.29.59-.5.33-.58-.19-.07-1.08.63-1.39 1.09-.77 1.15-.29 3.21.96 4.16l.45.35.08-.59c.04-.33.07-1.28.05-2.13Zm10.97 1.13c-.38-.14-.87-.31-1.07-.38-.75-.24-.74-.55.02-1.57 1.03-1.38 2.58-1.43 4.19-.14.55.44.47.45-.21.02-1.1-.7-2.33-.87-3.13-.44-.38.2-.29.21.25.02 1.06-.37 2.01-.05 2.99 1.01.32.35.66.64.75.64.29 0 .07.19-.37.32l-.42.12.35.06.35.06-.35.11c-.19.06-.48.14-.63.17-.15.04-.26.1-.23.14.14.22-1.81.12-2.49-.14Zm1.68-.27c.64-.27.88-.99.47-1.42-.3-.32-.42-.32-.29.01.21.56-.28 1.3-.93 1.4-.69.12-1.25-.72-.99-1.47.14-.42.09-.46-.31-.21-.96.6-1.13 1.09-.43 1.27.28.08.7.23.95.34.52.24 1.07.27 1.53.08Zm8.39-.7c-.31-1.12-.71-1.74-1.82-2.85-1.07-1.08-.66-.87.53.27.9.86 1.31 1.59 1.47 2.65.14.92.1.9-.18-.07ZM18.7 22.2c.36-.25.55-.71.44-1.07-.07-.27-.08-.27-.14.12-.08.52-.28.82-.66 1-.94.45-1.67-.51-1.2-1.57.13-.28-.12-.22-.45.11-.98.98.83 2.25 2.01 1.41Zm13.17-.35c.47-.31.29-.54-.19-.25-.18.11-.54.23-.81.26-.52.07-.65.18-.47.39.12.15.99-.09 1.47-.4Zm-9.7-.19c-.11-.29-2.32-.37-2.32-.08 0 .1.23.14.9.16.5.01.99.07 1.1.13.23.13.41.02.32-.21Zm9.28-.38c.36-.16.33-.35-.4-2.02-.77-1.77-.5-1.49-1.93-2.01-2.06-.75-2.91-1.52-2.92-2.67v-.38l-.63.35c-.81.44-1.34.63-2.21.76-.39.06-.89.2-1.11.32-.45.23-1.57.34-1.94.2-.15-.06-.41-.06-.69 0-.24.05-.45.07-.48.05-.08-.08.27-1.79.46-2.23l.19-.45-.47.24c-.89.45-1.53 1.37-1.67 2.41-.12.79-.21.87-.42.38-.1-.24-.2-.43-.23-.43-.06 0-.7 1.2-.7 1.31 0 .04.44.09.98.11 1.35.07 1.68.23 1.77.83s.09.6-.72.35c-1.4-.44-3.03-.36-3.03.15 0 .23.04.25.44.25 1.6 0 3.03.65 3.74 1.69l.34.49.58-.05c.32-.03.87 0 1.23.07l.65.12.64-.64c1.7-1.74 5.93-1.43 7.22.53.29.43.75.53 1.31.27Zm-18.16-1.21c.09-.11-.08-.03-.38.17-.29.2-.57.36-.62.36-.13 0-.11.34.02.47.08.08.21-.01.47-.35a11 11 0 0 1 .51-.65Zm3.01.45c.63-.3 1.72-.41 2.11-.23.23.11.23.11.05-.03-.11-.09-.4-.23-.65-.32s-.53-.19-.61-.22a.9.9 0 0 0-.34-.03c-.1.02-.23-.03-.27-.11-.07-.11-.09-.1-.09.01s-.05.09-.22-.05c-.12-.1-.18-.13-.14-.06.09.15-.2.17-.29.02-.03-.05-.11-.1-.16-.1-.06 0-.07.05-.04.1.08.13-.01.13-.25-.02s-.3-.1-.23.23c.03.19.1.25.22.22.1-.02.33 0 .52.05.33.1.33.1-.18.11-.29.01-.53.05-.53.11s.07.1.15.1.15.04.15.09-.07.14-.15.21c-.48.39.05.35.95-.08Zm13.61-.78c-.02-.24-.76-.96-1.22-1.2-1.13-.57-3.43-.71-4.77-.29-.63.19-.65.18-.56-.29.09-.52.24-.62 1.12-.82 1.14-.26 2.6-.23 3.37.06.95.36 2.27 1.91 2.12 2.48-.03.09-.05.12-.06.06Zm-15.64-.87c.03-.04.19-.07.35-.07.24 0 .28-.04.28-.28 0-.16.09-.64.2-1.07.24-.95.25-1.01.03-.84-.21.18-1.59 2.03-1.78 2.39l-.15.28.5-.17c.28-.1.53-.21.57-.24Zm9.54.23c.52-.3 3.18-.56 3.32-.32.03.04-.41.08-.98.09-.56.01-1.32.09-1.69.17-.77.18-.87.19-.65.06Zm8.03-.63c-.02-.38-.11-.72-.34-1.18-.37-.72-.6-1.5-.59-1.94.02-.27.02-.27.06-.05.08.5.26.97.69 1.82.43.84.5 1.18.38 1.66-.1.37-.19.25-.2-.31Zm-15.36-2.35c.32-.48.46-1.32.23-1.32-.24 0-.62.7-.68 1.24-.07.68.02.7.45.08Zm-.73-.36c.05-.27.2-.54.54-.9.88-.93.95-1.33.08-.46-.78.79-1 1.27-.81 1.82.05.15.09.17.1.08.02-.08.06-.32.09-.54Zm.83-2.05c.88-.87 1.57-1.44 2.75-2.26 2-1.38 2.12-1.5 1.37-1.41-2.89.37-6.22 3.5-5.69 5.36l.12.45.15-.49c.12-.41.32-.67 1.3-1.65Zm3.5 1.68c.13-.05.29-.24.37-.42.16-.4.45-.68.45-.45 0 .08-.11.36-.24.62l-.24.48.26-.07c.36-.09.46-.18 1.07-1 .71-.95 1.85-2.02 3.1-2.9.43-.3.05.08-1.56 1.6-.41.38-.95.99-1.19 1.34-.25.35-.51.72-.58.82-.5.67 2.05-.92 3.22-2.01.38-.36.91-.94 1.17-1.29.27-.35.49-.59.49-.54 0 .2-.87 1.28-1.58 1.97-.39.38-.7.73-.69.78.01.04-.2.22-.48.38-.58.34-.4.39.37.1.83-.31 3.28-2.77 3.28-3.29 0-.16-1.91-1.05-2.25-1.05-.81 0-3.22 1.89-3.83 3.01-.35.64-.44.46-.12-.25.36-.79 2.68-2.82 3.22-2.82.3 0-.1-.19-.52-.25-1.46-.2-3.85 2.55-4.27 4.93-.11.57-.13.56.55.31Zm-2.68-.18c0-.55 1.04-1.68 2-2.16.53-.27.79-.48 1.14-.93.24-.32.79-.91 1.22-1.31.92-.86.89-.97-.11-.47-1.46.72-3.74 2.71-4.23 3.69-.23.46-.32 1.54-.12 1.42.06-.03.1-.14.1-.24Zm18.78-.61c-.7-.77-.73-.79-.85-.57-.15.26-.17.18-.04-.16.08-.2.06-.29-.08-.41-.18-.16-.19-.15-.25.18-.04.19-.11.38-.16.41-.04.03-.04-.11.02-.31.1-.37.04-.84-.1-.84-.04 0-.13.21-.2.46-.15.57-.24.54-.11-.03.17-.77-.14-1.19-.44-.6-.13.24-.15.25-.1.07.18-.65-.05-1.1-.25-.5-.06.16-.13.3-.16.3s.01-.17.08-.37c.22-.64-.02-.89-.29-.3-.1.21-.12.23-.08.07.11-.39.09-.73-.04-.77-.06-.02-.14.1-.18.27s-.09.29-.12.26-.01-.18.05-.35c.11-.31.07-.39-.36-.76-.2-.16-.25-.17-.33-.05s-.09.1-.05-.06c.07-.22-.03-.33-1.18-1.22-.91-.7-2.35-1.54-3.56-2.09-1.09-.49-.98-.57.2-.13 2.58.94 5.65 3.44 8.39 6.83.52.64.98 1.17 1.02 1.17.23 0 .47-2.16.49-4.34 0-.48.02-.57.12-.47.16.16.15 3.09-.02 4-.25 1.36-.42 1.4-1.42.31Zm-9.21-1.71c.43-.5.78-.95.78-1.01 0-.31-.28-.12-.71.48-.26.37-.67.92-.91 1.22-.73.88-.06.34.84-.69Zm-10.57.03c0-.24.96-1.01 1.8-1.46 1.13-.59 1.17-.54.08.1-.46.27-1.07.71-1.35.98-.29.27-.53.44-.53.38Z"/></svg>