<svg xmlns="http://www.w3.org/2000/svg" width="51" height="51" viewBox="0 0 51 51"><path fill="#fff" fill-rule="evenodd" stroke="#fff" stroke-width=".545" d="M24.29 45.99c-3.22-.23-8.38-2.05-10.84-3.82-11.96-8.6-10.75-27.07 2.23-34l.97-.52.06-.5c.23-1.87 2.48-2.71 3.83-1.42l.41.39.8-.16c3.53-.69 7.7-.27 11.22 1.14l.75.3.54-.55c2.34-2.44 5.76-.03 4.23 2.98l-.2.38 1.24 1.29c9.28 9.57 7.68 24.12-3.43 31.4-2.98 1.95-7.93 3.44-10.6 3.19-.08-.01-.63-.05-1.21-.1Zm2.93-.29c1.39-.12 2.74-.39 4.19-.86l1.07-.34.04-.88c.12-2.03-.2-4.61-.83-6.89l-.33-1.18-.12 1.05c-.5 4.19-2.8 7.03-6.94 8.55l-1.15.43.55.06c1.56.17 2.05.18 3.52.06Zm-3.98-.49c1.71-.66 3.84-2.49 5.03-4.33.24-.37.48-.68.53-.68.57 0-1.51 2.66-3.05 3.89l-.4.32.55-.27c2.92-1.41 4.89-4.58 5.06-8.14l.05-1.15-.71 1.44c-1.73 3.55-4.74 6.5-7.1 6.98-.55.1-.31-.16.41-.46.7-.3 1.34-.69.93-.57-.54.16-1.63.36-1.97.36-.69 0-.36-.24.51-.38 3.64-.55 5.54-2.5 7.73-7.9.26-.65.53-.1 1.19 2.43.61 2.35.72 3.08.77 5.43.03 1.16.09 2.12.13 2.12s.54-.24 1.11-.53c12.53-6.38 15.09-22.01 5.26-32.14l-1.29-1.32.27-.67c1.17-2.93-2.12-4.92-3.97-2.39-.39.53-.45.54-1.39.14-3.51-1.46-8.57-1.89-11.74-1.01-.27.08-.34.04-.71-.34C19.24 4.81 17 5.61 17 7.25c0 .2-.05.45-.1.56-.09.17-.07.19.18.19.27 0 .3-.04.36-.4.23-1.45 2.23-1.72 2.91-.39.49.95-.26 2.26-1.28 2.22-2.73-.1-3.23-.21-3.29-.73l-.03-.28-.92.57C3.1 16.14 2.19 33.38 13.1 41.57c2.13 1.59 6.19 3.3 9.37 3.93.01 0 .36-.13.77-.29Zm10.78-2.88c-.05-.1-.12-.58-.16-1.06-.1-1.24-.29-2.38-.88-5.09-.28-1.3-.48-2.44-.45-2.52.07-.16 9.31-.25 9.71-.1.31.12.09.89-.69 2.44-1.07 2.13-4.02 4.87-6.66 6.21-.68.34-.75.35-.87.12Zm-16.86-.23c-3.01-.53-6.65-3.7-8.08-7.02-.46-1.07-.46-1.08-.07-1.53l.31-.35h8.53l.38.25c.68.47.67.41.67 4.63 0 2.95-.03 3.82-.13 3.9-.18.16-1.05.22-1.61.12Zm2.87-.02c-.14-.23-.03-8.45.13-9.08.56-2.18 2.28-3.79 3.44-3.2.56.29.56.36.03.64-1.42.72-2.09 2.09-2.19 4.51-.08 1.7-.15 1.62 1.03 1.13 1.85-.77 3.1-1.95 4.43-4.18l.85-1.43.62-.29c.77-.35.79-.35.98.02 2.01 3.88-1.96 10.49-7.1 11.8-.89.23-2.09.27-2.22.08Zm15.5-.59c2.68-1.62 5.07-4.02 5.93-5.96.51-1.13.53-1.03-.25-1.03h-.68l.08.52c.16.97-.11 1.49-1.33 2.62-1.25 1.15-2.21 1.9-2.94 2.32-.76.43-.84.43-.84-.02 0-.51-.24-.39-.3.16-.03.24-.11.45-.18.48-.09.03-.12-.27-.12-1.28v-1.31l.78.03.77.03.03.68c.02.37.07.67.12.67.22 0 3-2.41 3-2.61 0-.04-.48-.1-1.07-.11l-1.08-.03-.03-.68-.03-.68 1.18.03 1.18.03.05.57c.04.41.08.55.17.5.28-.17.42-1.11.27-1.69l-.06-.23h-6.05l-.06.36c-.1.59.1 1.73.44 2.57.21.54.28.82.21.89-.3.3-.94-1.63-.96-2.89l-.01-.93h-.43c-.37 0-.43.03-.38.18.35 1.1 1.11 5.18 1.22 6.6.08 1 .05 1 1.37.21Zm-17.15.31h.22v-3.79c0-3.71 0-3.79-.2-3.74-.6.16-.87 2.94-.49 5.01.23 1.27.23 2.07-.01 2.07-.12 0-.15-.15-.17-.67-.01-.37-.09-1.05-.17-1.51-.28-1.49-.18-3.09.3-4.76l.07-.24-4.38.06c-2.41.04-4.41.09-4.43.12-.1.09.87 1.92 1.43 2.7 1.93 2.71 5.67 5.12 7.4 4.79.11-.02.3-.04.43-.04Zm2.75-4.12c.04-4.57.04-4.54.62-5.71.36-.7.84-1.27 1.34-1.57.47-.29.5-.37.16-.46-.87-.22-2.36 1.43-2.79 3.09-.11.44-.26 8.1-.17 8.8.01.04.19.07.4.07h.39zm1.22 4c1.87-.46 4.7-2.65 5.43-4.19.59-1.25 1.14-3.92 1.11-5.48v-.46l-.13.35c-1.07 2.89-3.49 5.11-6.58 6.01l-.78.23v3.76l.28-.06c.15-.03.45-.1.67-.16Zm-6.7-.86c-1.42-.57-3.11-1.92-4.2-3.38-.31-.4-.63-.74-.72-.74s-.13-.06-.09-.15c.03-.08-.12-.52-.34-.96-.22-.45-.37-.86-.34-.9.12-.2.25-.06.49.46.57 1.3 1.02 1.54 1.07.58l.03-.58h2.4v1.2l-.88.03-.88.03.51.59c.95 1.09 2.27 2.2 2.62 2.2.04 0 .08-.22.08-.5 0-.79.65-1.05 1.21-.49.18.18.19.31.17 1.52-.03 1.55-.01 1.53-1.13 1.09Zm-.25-.8c0-.24-.12-.37-.85-.86-.54-.36-1.2-.95-1.77-1.57-.84-.91-1.48-1.31-1.48-.92 0 .45 2.15 2.55 3.35 3.27.71.43.75.44.75.08Zm20.73-.35c.04.03.07-.26.07-.65v-.72h-1v.55c0 .52.01.55.19.45.33-.17.41-.12.41.28.01.33.02.35.14.2.07-.1.16-.15.19-.11Zm-19.63-.55c0-.58-.17-.85-.51-.8-.36.05-.42 1.03-.07 1.17.49.2.58.15.58-.37Zm5.84-1.57c3.16-1.03 5.39-3.26 6.27-6.27.26-.87.24-.93-.17-.78-.43.17-.59.35-1.11 1.24-1.55 2.68-2.9 3.94-5.1 4.78l-.83.31v.49c0 .56-.04.55.94.23Zm12.81-1.1c-.48-.47-.19-1.15.48-1.15.55 0 .87.52.62.99-.24.48-.72.55-1.1.16Zm-19.73.03c-.17-.17-.15-.73.02-.87.25-.21.79-.09.95.2.3.53-.53 1.11-.97.67Zm24.02-.24c.22-.57.12-.64-.84-.64h-.9v.8h.84c.67 0 .85-.03.9-.16Zm-10.03-2.09c.23-.99.24-1.65.02-2.58l-.18-.72-.06 1.5c-.06 1.26-.28 2.8-.54 3.72-.03.1.08-.11.25-.47s.4-1.01.51-1.45Zm-15.71 1.6v-.35h-.79c-.99 0-1.11.05-1.11.41v.29h1.9zm8.17-.97c-.15-1.48.87-2.35 1.74-1.49.59.59.24 1.61-.55 1.61-.44 0-.64-.59-.29-.85.15-.11.15-.13-.04-.24-.4-.21-.52-.05-.55.72-.04.86-.23 1.01-.31.25Zm20.21-.8c.03-.17-.24-.18-4.62-.18-4.7 0-4.91.02-4.59.33.17.18 9.18.03 9.21-.15Zm-23.78-.07c.03-.01-.09-.1-.25-.21-.29-.19-.48-.2-4.43-.2-4.12 0-4.43.02-4.56.35-.05.13 8.29.18 9.24.06Zm15.15-1.66c-.39-.14-.71-.25-.72-.25-.13-.02-.33-.38-.33-.6 0-.4.28-.54.8-.4s.6.08.6-.45c0-.49.16-.65.67-.65.49 0 .68.21.54.6-.15.44-.11.45.37.1.49-.35.77-.38.92-.09.2.36.02.67-.77 1.34-.88.75-.99.77-2.08.4Zm4.17.09c-.34-.23-.31-.88.06-1.22.15-.15.33-.46.4-.69.3-1.02 1.93-1.6 2.51-.89.16.19-.03.3-.28.16-.87-.46-2.07.31-1.99 1.28.05.61.53.6.62-.02.18-1.18 1.23-1.29 2.4-.25.43.38.57.45 1.05.49.71.06.8.33.14.38-.5.04-.91-.15-1.49-.69-.87-.79-1.62-.71-1.79.19-.06.29-.17.57-.25.62-.37.24-1.24-.02-.98-.28.09-.09.08-.12-.04-.12-.18 0-.28.2-.28.56 0 .3.21.36 1.3.32l.85-.03-.03-.42c-.05-.69.98-1 1.22-.37.07.19-.21.31-.37.15-.27-.27-.52.11-.29.45.1.15 2.51.28 2.85.15.8-.31.26-1.5-.55-1.22-.3.11-.39-.04-.16-.27.43-.43 1.38.15 1.38.83 0 .87-.36 1.05-2.12 1.05-1.35 0-1.51-.03-1.61-.3-.04-.12-.06-.12-.06.01-.02.34-2.05.44-2.49.13Zm-29.77-.18c-.88-.88-1.49-4.32-.92-5.19l.17-.27h1.35c1.71 0 1.57-.25 1.53 2.85-.04 2.9.01 2.78-1.13 2.83-.69.04-.76.02-1-.22Zm2.46.05c-.28-.28-.33-4.99-.06-5.38.2-.28.59-.37.93-.19.23.12.31.12.52 0 .35-.19.53-.17.84.07l.26.2v5.19l-.25.16c-.17.11-.35.14-.57.1-.4-.09-.62-.09-1.1 0-.29.05-.4.02-.57-.15Zm3.86-.12c-.31-.23-.36-.64-.12-.95.08-.1.15-.29.15-.42.02-1.7 2.61-2.18 3.4-.62.17.34.24.38.69.43.82.1 1.31.61 1.35 1.41l.01.31-2.61.03c-2.52.02-2.62.02-2.87-.19Zm20.61-.03c.36-.18 1.4-1.28 1.26-1.33-.2-.07-1.33.76-1.36 1-.04.31-.31.32-.64.03-.28-.25-.29-.25-.06-.26.18 0 .28-.12.47-.52.3-.63.31-.78.07-.78-.28 0-.42.21-.42.61 0 .51-.17.62-.85.54-.92-.12-.74.22.3.57.95.32.89.31 1.23.14ZM8.5 29.96c0-1.62.03-2.16.12-2.19.07-.03-.27-.06-.76-.06l-.89-.01.07.93c.12 1.77.77 3.47 1.32 3.47.12 0 .14-.35.14-2.14Zm.79 2.08.31-.06v-2.14c0-2.1 0-2.14-.21-2.14-.19 0-.19.01-.04.16.27.27.15.67-.23.79l-.32.09v1.68c0 .92.04 1.68.09 1.68s.23-.03.4-.06Zm1.82-.04c.18-.1.19-.24.19-2.48 0-2.6-.01-2.65-.51-2.6l-.34.03-.03 2.49c-.03 2.78.01 2.92.69 2.56Zm1.27.02c.09-.07.12-.65.1-2.58l-.03-2.49-.28-.03c-.56-.07-.57-.01-.57 2.59 0 2.16.02 2.39.18 2.48.21.13.43.13.6.03Zm4.32-.37c.08-.45.39-.56 1.42-.49.49.04.88.04.88 0 0-.12-.68-.36-1.05-.36-.32 0-.37-.04-.56-.44-.3-.64-.38-.69-.95-.55-.62.16-1.14.68-1.34 1.34-.1.33-.23.53-.38.6-.44.19-.2.26.85.23l1.08-.03zm-2.17-.17c.09-.07.23-.32.32-.56.22-.65.5-.97 1.08-1.27l.52-.27-.5.06c-.73.09-1.45.74-1.45 1.3 0 .12-.07.34-.15.5-.21.41-.16.49.18.24Zm26.89-1.56-.63-.57 1.19-1.17c1.21-1.2 1.3-1.25 1.97-1.18.48.05.72.7.44 1.21-.13.25-2.15 2.29-2.26 2.29-.04-.01-.36-.26-.71-.58Zm-10.49.18c-.03-.11-.11-.2-.18-.2-.37 0-.38-.3-.03-.65.34-.34.68-.4.68-.11 0 .06.09.17.2.24.25.15.26.4.02.49-.09.04-.23.15-.3.25-.17.24-.33.23-.39-.02Zm12.26-1.04c1.23-1.25 1.36-1.68.54-1.74-.42-.03-.45-.01-1.43.94-.55.53-1 1.02-1 1.07 0 .06.4-.28.89-.76.78-.77 1.21-1.05 1.21-.78 0 .04-.41.48-.91.96l-.9.87.22.24c.3.32.22.37 1.38-.8Zm-23.82.16c-.37-.41-.06-1.12.48-1.12.55 0 .87.77.47 1.13-.25.22-.75.21-.95-.01Zm4.25-.12c-3.4-.89-5.46-3.74-5.46-7.55-.01-9.62 13.04-10.17 14.14-.59.6 5.22-3.86 9.4-8.68 8.14Zm3.08-.2c2.94-.66 5.08-3.22 5.35-6.42.08-.97.06-1-.52-.81-2.13.65-5.28-.11-7.38-1.78-.42-.33-.78-.59-.79-.57-1.07 1.76-2.04 2.37-3.95 2.46l-1.03.05.06.68c.42 4.21 4.35 7.25 8.26 6.39Zm6.74-.31c-.27-.3-.14-.81.29-1.08.27-.18.37-.31.37-.51 0-1.48 1.84-2.11 2.77-.95.21.26.36.35.58.35 1.1 0 1.77 2.03.78 2.34-.47.15-4.64.01-4.79-.15Zm4.88-.44c.3-.67-.17-1.06-1-.81-.69.21-.79.18-.88-.3-.2-1.05-1.44-.89-1.44.19 0 .44 0 .44-.57.7-.58.26-.84.27-.49.01.11-.08.16-.14.1-.14-.19 0-.39.2-.4.4s.04.2 2.28.2h2.28zm-21.16-.07c-.49-.69.51-1.52 1.07-.9.41.45.08 1.12-.53 1.12-.29 0-.43-.06-.54-.22ZM9.6 27.2c0-.19-.07-.2-1.2-.2-.66 0-1.2.02-1.2.04s-.03.11-.06.2c-.05.14.09.16 1.2.16 1.19 0 1.26-.01 1.26-.2Zm4.55-.11c-.23-.19-.26-.27-.2-.56.05-.29.02-.38-.14-.5-.53-.37-.18-.93.57-.93.87 0 1.3.39.8.73-.22.14-.22.15-.06.34.59.65-.27 1.46-.97.92Zm20.54-.23c.28-1.13 1.86-1.13 2.07 0 .05.28.1.34.23.28.09-.04.36-.12.6-.19.42-.11.43-.12.19-.18a.9.9 0 0 0-.52.03c-.24.09-.28.06-.46-.3-.63-1.24-2.4-.8-2.4.6 0 .36.17.21.29-.24Zm-19.73-.11c.03-.08-.04-.26-.15-.41-.27-.34-.26-.49 0-.68l.22-.15-.25-.06c-.41-.1-.82-.02-.86.17-.02.11.03.18.12.18.24 0 .38.34.26.65-.06.15-.08.31-.04.36.09.15.64.1.7-.06Zm25.76-1.31c-.12-.08-.22-.23-.22-.32 0-.13-.06-.11-.25.11-.39.41-.85.26-.85-.28 0-.21-.03-.23-.33-.18-.41.06-.61-.15-.55-.57.04-.27.02-.3-.22-.28-.47.04-.71-.47-.38-.8.09-.09.08-.12-.08-.12-.45 0-.66-.86-.24-.97.11-.03.2-.08.2-.12 0-.03-.09-.12-.2-.19-.36-.22-.2-.82.22-.82.22 0 .22-.04.02-.35-.12-.18-.13-.28-.04-.44.11-.22.19-.25.58-.21.19.01.21-.02.13-.22-.16-.44.04-.71.47-.65.36.04.39.03.48-.27.12-.4.54-.48.78-.15.08.13.17.21.18.18.02-.02.08-.13.14-.24.18-.32.71-.32.86 0l.11.25.24-.22c.28-.26.77-.09.79.27s.04.39.16.27c.15-.15.51-.15.66 0s.15.51 0 .66c-.16.16-.02.28.17.12.12-.1.2-.09.4.04.25.17.34.59.15.71-.16.1-.11.25.09.25.52 0 .59.74.09.93-.09.03-.06.1.1.22.39.28.25.95-.21.95-.16 0-.17.02-.04.21.29.4-.07.86-.58.73-.28-.07-.29-.05-.14.3.18.38-.04.6-.54.53-.34-.05-.38-.03-.34.13.12.47-.44.7-.79.33-.18-.19-.24-.22-.24-.1 0 .14-.35.47-.5.47-.03 0-.16-.07-.28-.16Zm-33.07-.13c-.78-.34-.81-1.71-.03-1.71.11 0 .37-.19.58-.42l.37-.43-.14-.4c-.09-.24-.13-.58-.09-.86.05-.5.02-.53-.86-.88-.72-.28-.35-1.16.48-1.16.46 0 .5.02.63.33.17.37.23.39.59.12.58-.41 1.46-.44 2.18-.07.31.16.31.15.53-.14.4-.55 1.18-.3 1.36.44.09.35-.17.67-.55.67-.36 0-.65.41-.5.69.12.23.12.77.01 1.06-.13.31.16.72.56.8.72.13.78.9.11 1.5-.64.58-1.46.22-1.2-.53.17-.49-.3-.88-.86-.71-.32.09-.54.09-.98 0l-.58-.11-.26.32c-.22.26-.26.39-.23.73.07.6-.53 1.01-1.12.76Zm25.22-.05c-.02-.05.03-.48.11-.95.07-.47.16-1.78.2-2.91l.07-2.05.34.02c2.17.1 2.07 5.63-.11 5.92-.37.05-.59.04-.61-.03Zm-16.56-.09c-.29-.14-.63-.77-.92-1.7-.58-1.85.33-4.07 1.66-4.07.36 0 .39.16.21 1.21-.2 1.15-.2 1.81-.01 2.89.22 1.25.21 1.37-.18 1.6-.37.23-.44.24-.76.07Zm23.79-.38c0-.28.59-.14.7.17.12.31.24.3.38-.01s.56-.34.72-.05c.15.27.3.25.3-.04s.27-.59.46-.52c.08.03.2.09.28.12.11.04.13-.03.09-.34-.06-.47.17-.67.63-.56.24.06.25.05.15-.14-.19-.35-.13-.61.17-.74.15-.07.29-.13.31-.15.02-.01-.08-.12-.22-.24-.34-.26-.34-.44-.02-.73.31-.29.31-.36 0-.36-.34 0-.49-.36-.29-.67.19-.3.18-.34-.1-.27-.52.13-.81-.29-.55-.78.1-.19.09-.2-.07-.13-.56.23-.84.12-.84-.31 0-.27-.12-.31-.3-.09a.43.43 0 0 1-.72-.1c-.14-.31-.22-.31-.36-.01-.16.36-.48.39-.77.08l-.25-.27v.31c0 .51-.25.63-.83.39-.16-.07-.17-.03-.11.33.07.45-.13.66-.54.55-.26-.06-.27 0-.06.32.2.31.04.65-.31.65-.32 0-.32.13.01.34.31.21.29.57-.03.71s-.3.45.02.45c.34 0 .52.35.31.59-.22.24-.2.34.06.28.41-.11.61.1.54.55-.06.36-.05.4.11.33.58-.24.89-.1.79.36-.03.15-.02.3.02.33.06.07.32-.21.32-.35Zm-31.62-.07a.53.53 0 0 0-.13-.39c-.16-.15-.13-.2.37-.69l.53-.53.55.15c.49.13.6.13 1.03-.01l.48-.16.43.48c.43.47.43.49.29.76-.29.57.2.76.68.27.41-.4.38-.84-.06-.88-.53-.05-.88-.68-.74-1.3.2-.84-.09-1.12-.46-.45-.42.77-1.27 1.03-1.79.54-1-.94-.03-2.63 1.18-2.06.63.3.91 0 .34-.35-.49-.3-1.34-.27-1.82.05-.53.36-.82.33-1-.1-.18-.42-.67-.5-.86-.14-.13.23.02.49.27.49.07 0 .32.09.54.21l.4.2-.07.55c-.05.41-.02.66.11.99.18.49.2.44-.4 1.18-.2.25-.38.37-.56.37-.5 0-.67.52-.28.91.29.29.93.24.97-.09Zm8.45.06c.16-.12.16-.19.01-1.03-.11-.61-.15-1.27-.12-2.04l.04-1.14-.22.28c-.53.66-.65 1.62-.34 2.56.21.62.19.89-.05.69-.81-.67-.49-3.08.51-3.88.59-.47.37-.72-.27-.29-.84.57-1.21 2.33-.75 3.6.5 1.39.7 1.61 1.19 1.25Zm17.23-.13c.16-.25.16-.27-.05-.46-.19-.18-.2-.26-.14-.77.17-1.22.01-2.55-.33-2.83-.12-.1-.14.06-.14.97 0 .6-.07 1.58-.15 2.19s-.15 1.11-.15 1.13c-.01.17.82-.02.96-.23Zm-13.12-.1c-.83-.43-.85-1.76-.02-2.21 1.27-.71 2.45 1.21 1.28 2.08-.36.26-.89.32-1.26.13Zm7.31.05c-.67-.27-.94-1.19-.53-1.8.52-.77 1.73-.69 2.12.14.49 1.03-.54 2.1-1.59 1.66Zm.94-.35c.4-.2.55-.66.37-1.1-.37-.87-1.76-.67-1.76.25 0 .77.71 1.2 1.39.85Zm-7.08-.14c.33-.27.34-1.01.01-1.33-.55-.55-1.52-.11-1.52.68 0 .73.93 1.12 1.51.65Zm12.41-.49c.17-.49.17-2.45 0-2.95-.16-.44-.66-.97-.93-.97-.25 0-.24.22.02.46.53.48.64.89.63 2.42 0 1.47.05 1.68.28 1.04Zm5.88.29c-1.57-.51-2.03-2.25-.91-3.44 1.37-1.48 3.94-.04 3.42 1.9-.3 1.11-1.53 1.86-2.51 1.54Zm1.26-.5c1.13-.51 1.28-2.19.25-2.86-.74-.48-1.62-.41-2.18.17-1.33 1.42.16 3.49 1.93 2.69Zm-1.21-.45c-1.08-.47-.71-2.16.46-2.16 1.19 0 1.52 1.7.43 2.16-.4.17-.5.17-.89 0Zm.98-.53c.26-.24.23-.88-.05-1.07-.53-.38-1.18-.08-1.18.54 0 .7.7 1 1.23.53Zm-10.05-1.07c.42-.14.52-.21.52-.39 0-.22-.02-.22-1.48-.23-2.9-.03-5.34-1.05-7.04-2.94-.65-.73-.94-.86-1.03-.48-.03.13-.09.43-.14.68-.36 1.69-1.35 2.52-3.21 2.69l-.65.06-.03.37-.03.38h.71c1.78 0 3.11-.72 3.85-2.08.35-.65.3-.65 1.26.13 2.1 1.71 5.15 2.47 7.27 1.81Zm-19.43-.53c.2-.22.44-.38.57-.38.32 0 .38-.49.08-.65-.32-.17-.56-.04-.69.4-.06.22-.23.47-.36.56-.14.09-.25.23-.25.3 0 .25.31.14.65-.23Zm19.8-.44c.09-.1-.05-.79-.17-.79-.05 0-.55-.26-1.11-.59-1.13-.65-4.92-2.69-6.04-3.24-.39-.2-.73-.42-.75-.49-.07-.21-1.09.17-1.92.73-1.41.94-2.34 2.35-2.61 3.97l-.07.43.39-.07c1.4-.25 2.11-1 2.49-2.61.28-1.21.63-1.27 1.51-.27 1.32 1.5 3.3 2.55 5.48 2.9.8.13 2.68.15 2.8.03Zm-12.95-.17c0-2.12 2.26-4.71 4.66-5.32 1.28-.33.88-.48 5.39 2.02.99.55 1.88 1.07 1.98 1.16.39.34.16-.18-.43-.96-3.42-4.55-10.12-3.35-11.79 2.12-.27.88-.27 1.16-.01 1.16.13 0 .2-.07.2-.18Zm12.55-1.46c-.13-.32-.18-.36-.31-.25-.12.1-.19.08-.37-.09-.24-.23-2.92-1.77-4.83-2.78-1.1-.58-1.26-.64-1.56-.56l-.33.09.75.38c1.04.52 6.31 3.35 6.54 3.51.27.18.29.13.11-.3Zm1.45-1.25c-.22-.43.04-.91.51-.91.38 0 .65.7.37.98-.2.2-.76.15-.88-.07ZM10 17.5c-1.04-.08-1.26-.19-1.41-.7-.15-.48.01-.75.38-.65.2.05.29-.04.69-.66C11.14 13.18 12.62 11 12.7 11c.24 0 3.23 4.68 3.17 4.96-.04.21.01.32.19.47.47.36.19.93-.49 1.01-.72.09-4.67.13-5.57.06Zm25.86-.16c-.15-.4-.06-3.49.11-3.74.33-.49 2.04-2.5 2.11-2.5.14 0 .48.36 1.29 1.37 1.24 1.53 1.13 1.23 1.13 3.25v1.78h-2.29c-1.99 0-2.3-.02-2.35-.16ZM15.9 17c.05-.08.1-.18.1-.21s-1.48-.05-3.29-.05c-2.65.01-3.33-.02-3.55-.13-.33-.18-.43-.08-.23.23.22.33.29.34 3.8.32 2.62-.01 3.09-.03 3.17-.16Zm21.3-.61c0-1 .28-1.39 1-1.39s1 .39 1 1.39v.81h1v-3.1h-4.1v3.1h1.1zm1.7.09c0-.83-.21-1.18-.72-1.18-.5 0-.68.3-.68 1.15v.75h1.4zm-21.83.44c-.29-.32-.21-.69.2-.91.57-.3 1.13.49.65.92-.24.22-.65.21-.85-.01Zm-1.54-.89c.08-.45.05-.5-.41-.63-.26-.07-.46-.23-.65-.5l-.27-.41-1.51.03-1.51.03-.64.93-.65.92h5.58zM11.05 16c-.15-.16-.17-.26-.09-.48.13-.38.82-.4 1.01-.02.26.53-.51.95-.92.5Zm2.53.09c-.21-.12-.24-.59-.06-.77.22-.22.77-.15.9.13.22.5-.35.93-.84.64Zm19.42-.8a.7.7 0 0 1-.07-.45c.04-.22.01-.24-.33-.24-.45 0-.65-.2-.56-.55.05-.21.12-.25.45-.25s.4-.04.45-.25c.11-.44.82-.48 1.03-.05.09.18.23.26.5.3.62.08.58.74-.04.78-.42.03-.42.03-.45.45-.04.52-.75.71-.98.26Zm.72-.51c.03-.41.05-.43.38-.46.55-.05.61-.22.07-.22-.43 0-.47-.02-.47-.25 0-.33-.37-.35-.42-.02-.02.18-.1.23-.45.25-.24.02-.43.07-.43.12s.19.1.43.12c.42.03.42.03.45.46.03.33.07.42.22.42s.19-.09.22-.42Zm-16.59-.54c-.03-.08 0-.26.07-.39.19-.36.07-.53-.42-.57l-.43-.03v-1l.47-.03.48-.03v-.55c0-.49.02-.55.26-.64.45-.17.64.02.64.65v.55h.37c.55 0 .65.1.61.61-.03.44-.03.44-.5.53-.53.1-.56.15-.31.57.23.38.09.49-.65.49-.39 0-.54-.04-.59-.16Zm-4.93-.29c0-.79 1.11-.85 1.14-.07.01.29.04.32.34.32h.33l-.63-.92c-.77-1.12-.75-1.12-1.2-.35-.21.34-.47.77-.59.95l-.21.32h.41c.37 0 .41-.02.41-.25Zm5.72-.37.03-.53.48-.03c.69-.05.69-.39 0-.44l-.48-.03-.05-.63c-.07-.82-.24-.85-.28-.04-.03.6-.04.62-.3.62-.84.01-1.06.47-.25.52l.48.03.03.53c.02.36.07.52.17.52s.15-.16.17-.52Zm21.99.04c-.22-.37-1.67-2.07-1.78-2.07-.09 0-1.13 1.19-1.86 2.13-.07.09.3.12 1.82.12 1.8 0 1.91-.01 1.82-.18Zm-31.72-.16c-.3-.14-.36-.51-.13-.77.22-.24.56-.24.77-.01.43.47-.07 1.07-.64.78Zm18.17-1.1c-.21-2.02-.15-2.2 1.08-3.34 2.16-2 2.06-1.98 3.14-.8l.61.67.06-.37c.11-.66.11-.65.67-.58.87.12.92.17.84.98-.06.68-.05.71.24 1.04.35.4.38.72.11 1.05-.19.24-.19.24.15.7.35.48.45 1.01.22 1.16-.07.04-1.69.08-3.59.08l-3.47.01zm15.06.28c-.26-.18-.28-.41-.06-.72.29-.41.94-.19.94.33 0 .23-.32.55-.55.55-.06 0-.21-.07-.33-.16Zm-14.14-.92.03-.93.72.03.72.03.03.88.03.87h1.28l.03-.87.03-.88.77-.03.77-.03.03.93.03.93h.75c.62 0 .75-.03.78-.17.04-.22-.63-1.14-.88-1.21-.13-.03-.2-.14-.2-.29 0-.26-.14-.49-.79-1.28-1-1.21-1.74-2-1.87-2-.14 0-1.37 1.03-2.31 1.94l-.53.5v2.57l.28-.03.27-.03zm1.22.13v-.75h-.9v1.5h.9zm2.9 0v-.75h-1v1.5h1zM20.54 12c-.5-.2-.58-1.12-.1-1.2.22-.04.32-.12.37-.33.13-.48.27-.57.91-.57.74 0 .95.11 1.04.55.05.29.1.34.38.37.27.03.31.07.34.35.09.91-.94 1.22-1.18.35-.12-.47-.31-.65-.61-.6-.23.03-.31.14-.45.62-.11.36-.42.57-.7.46Zm-6.26-.54c-.35-.18-.38-.82-.04-.97.58-.27 1.15.25.83.74-.19.3-.48.38-.79.23Zm18.7-.82c.02-.13-.09-.35-.28-.55-.29-.32-.3-.38-.28-1.03l.03-.7-.39-.08c-.48-.1-.48-.11-.5.54-.01.48.03.59.4 1.08.23.3.45.65.49.78.09.3.49.27.53-.04Zm-8.22-.5c-.32-.31-.06-.74 1.22-1.96.73-.71.83-.78 1.2-.78 1.03 0 .96.23-.52 1.68-1.29 1.27-1.55 1.41-1.9 1.06Zm10.35-.08c-.6-.33-.66-.95-.13-1.45.2-.2.46-.53.56-.74.54-1.06 2.06-.81 2.06.33 0 .96-1.75 2.27-2.49 1.86Zm-8.73-1.18c1.13-1.08 1.16-1.13.89-1.16-.44-.05-2.5 1.88-2.32 2.17.12.21.27.1 1.43-1.01Zm10.24.3c.8-.81.87-1.23.26-1.57-.35-.2-.75-.07-.98.32-.25.4-.25.46 0 .4.48-.13.69.54.25.83-.28.18-.6.11-.75-.17-.14-.26-.28-.24-.41.05-.21.45.23.88.8.78.14-.03.52-.32.83-.64ZM19.7 8.91c.87-.62.53-2.06-.53-2.26-.72-.14-1.31.33-1.45 1.16l-.08.44h-.71c-.78 0-.77 0-.87.32-.1.33.22.44 1.27.43.5-.01 1.06.03 1.22.09.37.12.82.05 1.15-.18Zm3.48-.42c-.24-.14-.23-.61.02-.84s.62-.14.8.19c.26.5-.31.95-.82.65Z"/></svg>