<svg xmlns="http://www.w3.org/2000/svg" width="51" height="51" viewBox="0 0 51 51"><path fill="#fff" fill-rule="evenodd" stroke="#fff" stroke-width=".79" d="M20.1 40.36c-3-1.72-6.46-3.72-7.7-4.43l-2.25-1.3V16.57l3.8-2.19c2.09-1.21 5.17-2.98 6.85-3.95 1.68-.96 3.43-1.97 3.89-2.25.46-.27.88-.45.92-.41.05.05.1 4.06.11 8.92l.03 8.83 2.7 1.55c7.08 4.07 12.41 7.17 12.47 7.27.04.06.08.14.08.17 0 .07-6.56 3.9-11.7 6.84-1.9 1.08-3.49 2.01-3.54 2.06-.14.13.21.32-5.66-3.05Zm5.4-10.01V17.5H10.4l.02 8.51.03 8.5 3.6 2.09c4.96 2.87 11.39 6.58 11.43 6.59.01.01.02-5.77.02-12.84Zm4.66 10.24c4.45-2.55 10.32-5.97 10.47-6.09.05-.04-1.57-1.03-3.6-2.2-4.16-2.41-10.76-6.21-11.1-6.39l-.23-.12v8.66c0 4.76.02 8.65.04 8.65s2.01-1.13 4.42-2.51Zm-4.66-28V7.98l-.32.2c-.18.11-1.7.98-3.38 1.94-1.68.97-4.35 2.51-5.95 3.43-1.59.92-3.5 2.01-4.23 2.43-1.23.71-1.47.93-1.25 1.15.03.04 3.45.07 7.6.07h7.53z"/></svg>