<svg xmlns="http://www.w3.org/2000/svg" width="51" height="51" viewBox="0 0 51 51"><path fill="#fff" fill-rule="evenodd" stroke="#fff" stroke-width=".445" d="M31.61 50.7c-.01-.94.88-3.61 1.91-5.72.89-1.83 1.03-2.28.54-1.75-.22.24-.28.25-.55.16-.24-.08-.35-.08-.46.01-.09.08-.27.1-.46.06-.19-.03-.38-.01-.46.05-.08.07-.3.09-.57.06-.31-.05-.47-.02-.55.07-.06.07-.28.16-.49.19-.22.04-.42.15-.5.28-.11.17-.2.2-.47.15-.19-.04-.36-.02-.4.03-.11.19-.83.33-1.05.21-.15-.08-.2-.08-.2.02 0 .07-.09.81-.19 1.63-.11.83-.25 2.12-.32 2.87-.14 1.54-.2 1.72-.45 1.46-.18-.18-.12-1.48.21-4.08.27-2.11.45-4.33.51-6.25.04-1.42.11-2.09.26-2.66l.2-.77-.25-.6c-.38-.95-1.57-3.07-2.13-3.8-.28-.37-.53-.78-.57-.92-.23-.92-1.29-1.18-1.6-.39-.08.21-.11.39-.06.41.13.05-.02.21-.47.5-.26.17-.56.51-.83.97-.24.39-.47.71-.52.71s-.09.09-.09.2.07.2.15.2c.18 0 .19.12.03.28-.22.22-.18.42.08.42.17 0 .24.06.24.19 0 .21-.23.44-.34.33-.04-.04-.05.1-.01.31.08.42-.06.67-.37.67-.16 0-.18.04-.12.18.04.09.07.28.07.42-.07 1.7-.18 2.02-.73 2.23l-.27.1-.07 2.29c-.04 1.49-.13 2.7-.26 3.46-.11.64-.23 1.44-.28 1.77l-.1.6-.01-.75c0-.41.04-1.56.1-2.55.05-.99.09-2.65.07-3.69l-.03-1.88-.68 1.01c-1.18 1.74-2.27 2.64-3.62 2.99l-.7.17.75.37c2.7 1.34 4.21 3.6 4.46 6.7.11 1.31-.15 1.04-.32-.32-.47-3.86-4.19-6.95-8.34-6.92-4.43.03-7.9 3.08-8.65 7.59-.11.67-.25.61-.25-.1 0-2.07 1.53-4.77 3.58-6.29.47-.35.52-.42.4-.56-.11-.15-.11-.15.03-.04.17.13.69-.01.69-.19 0-.33-1.73-2.21-2.99-3.24-1.47-1.21-1.49-2.17-.06-3.01.72-.42.64-.77-.12-.48-.5.19-.93.12-.93-.15 0-.15-.1-.21-.4-.26-.92-.15-1.35-.69-1.48-1.83-.07-.59-.17-.94-.34-1.2-.14-.2-.33-.5-.42-.67l-.18-.3.21.25c.68.81 1 1.47 1.01 2.12.01 1.04 1.42 1.85 1.88 1.08.8-1.31.92-2.3.35-2.77-.08-.06-.12-.16-.08-.22.09-.16-.26-.71-.46-.71-.09 0-.33-.11-.53-.25s-.46-.25-.57-.25-.31-.07-.44-.16c-.19-.13-.28-.14-.39-.05-.08.07-.25.09-.39.06-.18-.05-.28-.02-.36.12-.1.17-.1.17-.11-.03a.5.5 0 0 0-.15-.34c-.25-.2-.18-.47.12-.53.16-.03.34-.01.4.05.07.06.23.08.35.05.23-.07.58.08.71.29.04.08.24.14.45.14.26 0 .41.06.5.2.08.13.23.2.43.2h.3l-.31-.59c-.29-.54-1.4-1.81-1.59-1.81-.04 0-.16-.07-.27-.15-.18-.15-.18-.15.09-.09.28.06.39-.09.12-.2-.08-.03-.15-.12-.15-.2s-.12-.21-.28-.28c-.32-.15-.41-.62-.18-.93.2-.27.44-.06.3.26-.08.18-.02.29.43.76.29.3.55.65.59.76.04.12.23.4.44.63.57.62 1.23 1.8 1.17 2.06-.07.29.47 1.48.56 1.24.64-1.65.25-3.03-1.22-4.36-.43-.39-1.01-.98-1.27-1.31-.47-.57-.85-.75-1.08-.51-.04.04-.23.07-.42.07-.47 0-.48-.45-.03-1.01.26-.33.3-.45.24-.74-.4-2.21-.21-3.25.99-5.55.96-1.82.98-1.95 1.21-6.07.29-5.21.77-6.67 2.89-8.81C9.76-.09 18.68.24 18.72 4.56l.01.53.41.06c2.24.37 3.19 2.63 3.71 8.9.2 2.42.3 3.09.6 4.2.37 1.38 1.41 4.37 1.73 5.02.16.32.48 1.09.71 1.72.23.62.55 1.39.71 1.7l.3.56-.03-4.37-.02-4.36-.37-.06c-.42-.07-.51-.32-.22-.57.24-.2 1.88-2.19 2.98-3.62 1.16-1.5.88-1.43 3.11-.76 2.09.62 4.4 1.21 5.63 1.44l.92.18.82 1.01c.46.56 1.2 1.46 1.65 2 .92 1.09.95 1.16.56 1.16h-.28l.03 1.02c.04 1.23-.06 1.11 1.19 1.42 1.29.33 1.23.34 1.23-.18 0-.51.03-.54.63-.62.76-.11 1.37.39 1.37 1.11 0 .49.02.55.2.55.34 0 .9.35 1.65 1.01.39.33 1.06.91 1.5 1.26l.8.65.05-.28c.03-.16.11-.29.18-.28.06.01.21.02.32.02.24.02.26.27.05.97-.09.3-.17 1.09-.2 2-.03.82-.07 1.98-.1 2.57-.04 1.04.02 1.27.26.94.14-.18.39.04.39.34s-.08.35-.52.31c-.2-.02-.26.33-.08.44.06.04.08.11.05.16-.04.05-.01.09.05.09s.18.07.26.15c.33.33-.67.09-1.18-.28-.29-.21-.58-.17-.58.08 0 .09.08.19.18.22.09.04.22.12.29.19.19.19-.18.24-.56.08-.17-.07-.38-.11-.46-.08-.08.04-.15.01-.15-.06 0-.06-.05-.08-.12-.03-.27.16-.8.11-1.23-.11-.54-.29-.91-.3-1.1-.03-.15.21-.15.21-.43-.06-.47-.45-1.06-.29-.63.17.19.2.28.46.16.46-.05 0-.22-.07-.62-.28-.13-.07-.42-.09-.72-.05-.43.05-.51.03-.51-.11 0-.1-.08-.16-.24-.16-.13 0-.27-.06-.29-.13-.04-.09-.08-.08-.16.03-.16.23-.13.27.17.22.42-.06.69.27.42.51-.17.14-.2.14-.2.02 0-.08-.04-.15-.1-.15s-.1.07-.1.15-.07.15-.16.15c-.08 0-.12-.04-.09-.1.03-.05-.01-.1-.09-.1-.09 0-.16-.04-.16-.1s-.05-.1-.12-.1c-.06 0-.02.1.1.23l.21.23h-.59c-.45 0-.6-.04-.63-.15-.04-.13-.05-.12-.06.01-.01.2-.26.24-.37.07-.03-.06-.09-.07-.13-.02-.27.38-1.05.49-1.91.28-.64-.16-2.95-.17-3.44-.01l-.49.15.32-.33c.45-.46.41-.49-.68-.43-.54.03-1.03.01-1.08-.04s-.31-.02-.64.08c-.29.09-.58.17-.64.18-.51.1-.98.75-.53.75.11 0 .22.08.25.2.03.11.1.2.15.2.13 0 .86.57 1.28 1.01.2.2.45.41.57.47.12.07.26.27.32.45.07.21.23.39.46.51.24.13.38.3.48.6.14.42.39.56.75.4a.56.56 0 0 1 .26-.05c.04.01.15-.04.24-.11.13-.11.14-.11.08.01-.07.1-.03.12.15.06.19-.05.21-.04.09.05s-.08.1.19.06c.18-.03.38-.06.43-.06.06 0 .08-.07.04-.15-.05-.13-.01-.13.31 0 .51.22 2.93.22 2.93 0 0-.12.13-.15.56-.15.34 0 .53-.04.49-.1s.13-.1.45-.1c.43 0 .5-.03.48-.17-.02-.13.03-.17.17-.16.11.02.34.02.5.02s.51 0 .76.01c.33 0 .49-.05.53-.15.03-.1.19-.15.45-.15.32 0 .39-.03.35-.15-.05-.12.03-.15.4-.15.39 0 .46-.03.46-.2 0-.16.05-.19.24-.14.16.04.25.01.3-.11.04-.12.13-.15.31-.11.21.05.25.03.25-.15 0-.2.04-.21.55-.16.45.05.55.03.55-.1 0-.12.07-.14.29-.1.2.04.31.02.34-.07.03-.08.3-.17.68-.21.39-.05.57-.1.48-.16-.14-.08.42-.69.65-.69.06 0 .06-.04-.02-.08-.09-.06-.06-.15.14-.33l.26-.24-.03.6c-.02.51-.06.61-.23.65-.11.03-.23.17-.26.3-.06.27-.38.39-.86.32a.57.57 0 0 0-.54.18c-.12.12-.28.19-.36.16s-.26.01-.39.1c-.16.1-.34.14-.54.09-.24-.05-.3-.02-.36.14-.04.15-.15.21-.35.21-.16 0-.32.05-.35.1-.03.06-.15.1-.26.1s-.22.07-.25.15c-.04.09-.19.15-.35.15a.8.8 0 0 0-.5.21c-.13.13-.29.19-.44.16-.13-.02-.26.01-.29.08-.02.07-.39.15-.92.19-.49.03-.93.11-.98.16-.06.06-.25.1-.42.1-.18 0-.36.05-.39.1-.03.06-.29.1-.57.1-.32 0-.55.05-.62.14-.13.17-1.38.25-3.89.26-1.06 0-1.66.04-1.62.1.03.05-.03.17-.15.27-.11.1-.2.22-.2.28 0 .07-.11.22-.25.35-.32.3-.32.35.11.74.25.23.35.4.33.57-.02.13.03.35.1.48.09.16.1.26.02.34-.05.05-.07.22-.04.38.06.3-.25.56-.54.45-.09-.04-.13-.01-.1.06.05.15-.16.63-1.06 2.48-.66 1.35-1.26 3.01-1.67 4.61-.22.86-.39 1.29-.39.99Zm-11.6-2.5c0-.3.04-.73.1-.95.15-.58 3.04-6.36 3.56-7.14.5-.74.6-1.08.43-1.42-.11-.24-.11-.24.09.01.31.37.26.73-.18 1.38-.21.31-.88 1.56-1.49 2.77s-1.31 2.56-1.56 3c-.52.9-.76 1.55-.86 2.35l-.07.55zm-7.75-.82c-.04-.09-.05-.22-.01-.27.17-.29-.32-1.2-.82-1.5-.17-.1-.17-.12.01-.26.15-.11.16-.15.05-.15a.48.48 0 0 0-.28.13c-.11.1-.13.1-.07 0 .04-.08.01-.13-.08-.13s-.16.05-.16.11-.08.21-.18.34-.24.48-.32.79c-.2.86-1.04.02-.86-.88.04-.17.1-.49.14-.71.09-.52.36-.65 1.35-.65.82 0 1.47.19 1.47.43 0 .08.09.26.2.4.25.31.27 1.05.04 1.49-.16.31-.33.25-.34-.12 0-.08-.07-.28-.15-.44-.21-.4-.19-.53.05-.26.11.13.2.31.2.41 0 .34.17.29.23-.07.09-.57.02-.64-.62-.63l-.56.02.32.34c.36.37.56.97.51 1.46-.03.25-.06.28-.12.15Zm-1.9-2.47c.07.06.2.09.28.06s.16-.02.18.02c.02.05.26.05.53.01.28-.04.55-.04.61.01.07.06.16.03.24-.06.23-.27-.11-.48-.82-.53-1.15-.06-1.92.28-1.43.64.18.14.2.13.23-.06.03-.17.06-.19.18-.09Zm18.35-.81c.1-.06.19-.16.19-.23.01-.31.17-.4.41-.23.36.25.49.21.43-.14-.07-.31.03-.39.24-.18.09.09.15.08.25-.06.13-.18.15-.18.3.05l.17.23v-.28c0-.3.08-.31.98-.09.18.04.22.01.22-.17 0-.19.04-.21.22-.15.53.16.71.18.64.06-.16-.25.06-.3.44-.11.5.25.63.25.55 0-.05-.16-.02-.2.15-.2.18 0 .21-.05.18-.24-.05-.24-.04-.25.44-.19.51.06.6-.01.31-.23-.17-.13-.17-.15.02-.29.2-.16.09-.34-.21-.35-.26 0-.38-.3-.13-.3.48 0 .57-.18.17-.35-.21-.08-.42-.15-.48-.15-.13 0-.13-.17 0-.25.16-.1.01-.25-.26-.25-.36 0-.29-.19.14-.37.59-.24.67-.34.4-.49-.23-.13-.23-.13.17-.29.39-.17.32-.45-.12-.45-.2 0-.15-.18.07-.25.11-.03.2-.12.2-.2 0-.21-1.73-2.06-2.03-2.18-.09-.03-.17-.11-.17-.17 0-.05-.07-.1-.15-.1s-.2-.09-.27-.2a.45.45 0 0 0-.34-.2c-.12 0-.24-.06-.27-.13-.02-.07-.28-.18-.55-.26-.32-.08-.53-.19-.57-.3-.04-.13-.13-.17-.28-.14-.17.03-.26-.02-.35-.21-.09-.2-.19-.26-.41-.26-.2 0-.34-.07-.41-.2-.08-.15-.17-.19-.31-.15-.11.04-.27.01-.35-.06a.8.8 0 0 0-.44-.11c-.2 0-.33-.06-.4-.19-.06-.1-.18-.19-.27-.19s-.32-.12-.51-.26c-.34-.26-.33-.25.37 1.07.4.74.9 1.71 1.13 2.16l.4.82-.26.88c-.24.8-.26 1.04-.26 2.73-.01 1.02-.05 2.19-.1 2.6-.11 1 .17 1.48.71 1.2ZM7.95 42.48c.47-.16.47-.19.4-1.35l-.07-1.1-.33-.12c-.32-.11-1-.76-1.23-1.17-.09-.15-.13-.17-.23-.06-.45.44-1.4-.18-1.74-1.15-.09-.26-.2-.56-.24-.66-.05-.16-.11-.14-.49.19-1.01.86-.97 1.2.26 2.3 1.23 1.12 2.22 2.14 2.7 2.81.25.35.42.5.52.47.08-.04.29-.11.45-.16Zm1.6-.43c.44-.08 1.18-.14 1.65-.15.82 0 .84-.01.6-.16-.41-.28-1.29-1.15-1.77-1.77-.43-.56-.46-.57-.59-.38-.08.11-.3.25-.5.31-.33.11-.36.15-.3.42.03.17.06.66.06 1.09 0 .44.01.79.02.79.02 0 .39-.07.83-.15Zm4.49-.27c-.03-.13-.2-.49-.35-.8-.16-.32-.25-.58-.19-.58.12 0 .58.72.78 1.22.18.45.31.47 1.25.18 1.39-.43 2.4-1.46 3.92-3.99l.38-.64-.12-1.31c-.19-2.11-.17-2.03-.67-2.26-2.47-1.09-2.81-3.7-1.14-8.88.28-.87.27-.88-.33-.39-1.8 1.47-5.17 1.39-8.28-.19-.27-.13-.49-.22-.49-.2 0 .03.39.92.86 1.98.77 1.72 1.6 3.98 1.78 4.84.06.28.12.32.48.37.39.05.89.4.76.52-.03.04-.2-.01-.37-.09-.31-.17-.71-.21-.71-.09 0 .04.07.57.16 1.18.32 2.16.05 5.46-.48 5.79-.25.15-.68-.03-.93-.4l-.21-.31-.16.56-.17.55.49.67c.91 1.21 1.84 1.93 2.98 2.3.77.24.85.24.76-.03Zm-5.2-2.38c.32-.12.32-.28.05-1.08-.32-.96-.06-1.31.33-.44l.22.47.12-.4c.07-.22.13-.7.13-1.07.01-1.06.35-1.03.71.08.12.35.3.74.4.86l.18.23.18-.6c.28-.92.26-3.98-.04-5.58-.47-2.51-2.57-7.78-3.69-9.27-.49-.66-.72-1.11-1.07-2.1-.15-.41-.29-.82-.32-.9-.07-.2-.16-.04-.54.91-.92 2.36-.58 3.56 1.65 5.89 1.51 1.58 1.92 2.26 2.31 3.77.47 1.84.41 3.7-.15 4.98-.33.74-.41.44-.13-.47.36-1.18.36-3-.01-4.4-.46-1.74-.94-2.45-2.83-4.18-2.13-1.95-2.31-3.71-.74-7.1 1.24-2.67 1.9-4.96 2.09-7.21.27-3.12.33-3.56.57-4.28.61-1.81 2.12-3.35 3.69-3.75 2.14-.56 4.27.08 5.23 1.59.2.32.04-.72-.18-1.16-1.06-2.06-5.62-2.42-8.55-.66-2.72 1.63-3.69 4.23-3.1 8.32.43 2.93.13 4.27-1.56 7.16-1.92 3.3-1.8 4.46.73 7.07 1.74 1.8 2.91 3.78 2.64 4.49-.1.24-.2.08-.5-.82-.47-1.37-.95-2.06-2.51-3.6-2.55-2.53-2.7-3.99-.74-7.27 1.54-2.57 1.86-3.82 1.58-6.28-.15-1.28-.2-1.26-.42.17-.32 2.02-.71 3.05-2.17 5.68-2.3 4.14-2.05 6.32 1.04 9.19 1.58 1.46 2.26 2.51 2.75 4.27.36 1.29.2 1.56-.22.36-.14-.39-.38-.99-.54-1.32l-.28-.6-.03.45c-.08 1.22-.57 2.91-1.22 4.19-.16.34-.28.61-.25.61.14 0 .71-.34.88-.52.33-.34.42-.17.48.89.07 1.11.39 2.01.78 2.23.36.19.44.03.38-.77-.05-.64-.02-.85.24-1.61.32-.93.59-2.29.59-2.93 0-.44.16-.52.26-.13.09.35-.12 1.9-.37 2.71-.62 2 .6 4.45 1.95 3.93Zm11.95-1.13c.11-.21.11-.35.01-.77s-.1-.54 0-.6c.11-.07.11-.17 0-.55-.14-.51-.06-.67.31-.58.23.06.23.04.03-.57-.12-.36-.13-.53-.05-.68.29-.55.16-.72-.55-.7l-.65.02.05.36c.11.69.25 2.27.32 3.37.07 1.2.18 1.35.53.7Zm10.34-4.47c.07 0 .18-.09.24-.19.13-.22.67-.51.93-.51.1 0 .23-.07.3-.15a.54.54 0 0 1 .36-.15c.27 0 .32-.15.08-.24-.47-.18-2.55-.01-2.47.2.04.1-.03.14-.21.14-.16 0-.26-.06-.26-.14 0-.26-1.93-.4-2.3-.16-.17.11.31.34.65.31.11-.01.36.08.55.2s.46.23.59.24c.13 0 .29.08.36.18.06.09.28.24.48.32s.39.2.44.27c.06.09.09.06.11-.1.02-.12.09-.22.15-.22Zm-10.02-.6c.63-.18.82-.5.3-.5-1.89 0-2.35-2.72-1.15-6.7.64-2.13 1.04-4.63 1.04-6.57 0-.71.02-.83.17-.83.49 0-.14 5.18-.93 7.61-.08.25-.16.59-.19.75-.02.16-.12.58-.21.94-.48 1.74-.11 3.67.78 4.15l.38.2.46-.24c.43-.23 1.34-1.13 1.34-1.32 0-.13-.19-.11-.79.07-.91.27-1.06.2-1.04-.48.01-.32-.02-.58-.08-.58-.11 0-.12-.6-.01-.77.15-.23 1.07-.83 1.27-.83.15 0 .12.05-.15.21-.54.31-.86.81-.6.91.21.08.21.26-.02.87-.12.33-.09.33.5.11.76-.29 1.47-.34 2.17-.16.72.19.86.2.81.04-.03-.07-.07-.25-.1-.39-.04-.17-.22-.36-.51-.55-.33-.2-.45-.34-.41-.46.03-.15-.03-.18-.45-.18-.39 0-.47-.03-.43-.15.17-.44-.58-.54-1.43-.19-.18.08-.35.14-.37.14-.12 0-.17-.72-.08-1 .11-.29.1-.3-.1-.19-.54.29-.6-.37-.14-1.52.85-2.12 1.21-3.83 1.13-5.46-.07-1.58.23-1.64.43-.1.18 1.43-.13 3.14-.94 5.22-.55 1.39-.54 1.3-.14 1.3s.49.31.23.71c-.09.14-.14.28-.12.31.08.07.67-.26.67-.38 0-.07-.05-.08-.13-.03-.07.05-.06.02.03-.06.67-.66.98-2.79.66-4.7-.14-.86-.1-1.27.1-1.07.46.45.49 3.58.05 4.82-.17.49-.34.98-.37 1.08-.05.14 0 .17.39.17.46 0 .62.11.69.45.02.14.12.21.35.23.34.03.63.33.63.64 0 .11.07.18.19.18.15 0 .18-.05.14-.21-.04-.12-.02-.2.04-.18.19.08.86.9.79.97-.05.04-.19-.07-.32-.23-.28-.35-.27-.36-.1.75.12.76.17.89.5 1.23.2.21.36.45.36.53s.05.14.11.14c.07 0 .1-.33.07-1.02l-.03-1.03-.75-1.49c-.75-1.5-.96-1.77-1.02-1.34-.1.76-.23-.01-.24-1.45 0-1.93-.11-2.5-.95-5.15-.99-3.13-1.01-3.18-1.29-6.47-.39-4.44-.86-6.35-1.86-7.54-.52-.63-1.85-1.04-1.98-.63-.04.11-.18.37-.32.57l-.24.37.22.39c.12.21.56.68.99 1.04 1.57 1.31 1.68 1.79 1.72 7.9.02 3.1.1 2.68-2.01 10.65-.79 3-.66 4.4.51 5.53.59.57.62.7.08.42-1.6-.82-1.77-2.8-.62-7.29.39-1.53.71-2.82.71-2.87 0-.04-.2.14-.45.4-.32.34-.45.57-.45.77 0 .41-.43 2.17-.86 3.59-1.17 3.78.51 6.74 3.37 5.95Zm19.73-.18c.2.02.36 0 .36-.04s.16-.08.35-.08c.28 0 .35-.04.35-.2 0-.19-.07-.2-1.51-.2-1.48 0-1.5 0-1.47.21.02.18.11.22.5.26.26.02.58.07.7.12.14.05.26.05.29-.01.04-.06.23-.09.43-.06Zm5.55-.82c.15 0 .32.05.39.12.09.09.12.03.12-.29 0-.51-.02-.52-.81-.54-.76-.02-.53-.16.31-.2l.55-.02-.53-.06-.54-.06.31-.18c.17-.1.31-.14.31-.08 0 .05.09.09.19.08.14-.01.17-.05.1-.13s-.06-.13.02-.16c.07-.02-.04-.21-.27-.45-.21-.23-.44-.5-.5-.6-.13-.21-.37-.28-.62-.18-.14.06-.13.09.08.18.23.09.23.1.05.15-.25.05-.56.32-.5.42.03.04-.02.1-.1.14-.39.15-.09.26.73.28l.87.02-.94.05c-.95.06-.95.06-1.03.36-.05.2-.03.32.05.37.09.06.09.08-.01.08-.06 0-.12.11-.12.25 0 .22.04.25.34.25.19 0 .41.06.48.13s.21.16.3.2c.1.03.18.12.19.19 0 .07.07.03.16-.09.09-.14.26-.23.42-.23ZM38 31.15v-.75h-.35c-.19 0-.35-.04-.35-.1 0-.05.15-.1.34-.1.41 0 .46-.13.46-1.17v-.73l-.48-.02c-.47-.01-.47-.01-.07-.05.65-.07.66-.23.02-.23H37v3.9h1zm11.78.41c.05-.41-.01-.44-1.35-.51l-1.23-.08v.82l.68.04c1.61.09 1.87.05 1.9-.27Zm-15.98-.67c0-.14.05-.19.14-.16.13.05.98-.21 1.11-.34.09-.1-4.44-.18-6.24-.12l-1.72.06.03.31c.03.34.17.36 1.38.2.5-.06.54-.06 2.97-.04 1.36.02 1.73.05 1.77.16.09.24.56.18.56-.07Zm16-.33c0-.42-.19-.47-1.84-.45-1.07.01-1.15.02-1.06.18.22.42.43.47 2.63.59.24.02.27-.01.27-.32ZM39.12 29.1l.03-1.1h-.75v2.2h.69zm-10.52.45v-.45h-.64c-.69 0-.76.05-.76.61V30h1.4zm6.5.15v-.3h-.69c-.52 0-.7.04-.75.15-.03.08-.1.15-.16.15-.05 0-.1-.07-.1-.15 0-.1-.11-.15-.35-.15-.32 0-.35.02-.35.3v.3h2.4zm14.7-.1c0-.25-.05-.4-.12-.4s-.5-.06-.95-.14l-.83-.13v.85l.88.09c.48.06.9.11.95.12.04 0 .07-.17.07-.39Zm-18.66-1.17c-.07-1.6-.05-1.55-.51-1.51-.49.04-.67.88-.19.88.13 0 .31.03.4.06.29.11.16.24-.25.24-.36 0-.4.02-.37.23.02.12.08.22.13.22.28.01.39.19.15.25-.21.05-.25.12-.27.48l-.02.42h.99zm-4.24.43c0-.3-.16-.83-.51-1.68-.28-.67-.69-1.7-.91-2.28s-.42-1.07-.45-1.1c-.16-.16.1 2.47.28 2.72.1.14.32.52.49.83.17.32.38.64.45.72.08.08.22.39.31.69.19.65.34.7.34.1Zm19.07-1.12c-.03-.75-.07-1.37-.09-1.39a4 4 0 0 0-.37-.09l-.34-.06.06.67c.04.38.07 1.03.07 1.46v.77h.72zm-9.32.76v-.45l-.63-.03-.62-.03v1.02l.62-.03.63-.03zm13.08.09c-.04-.24-1.09-.59-1.75-.59-.05 0-.08.15-.08.34 0 .34.01.35.48.42.26.03.65.1.87.14.48.08.55.03.48-.31ZM35.1 27.7v-.4h-1.4v.8h1.4zm14.68-.12-.03-.53-1.5-.27c-2.08-.37-2.05-.37-2.05.11 0 .45.09.51.84.51.29 0 .61.06.73.15.16.11 1.53.49 1.96.54.04.01.07-.23.05-.51Zm-8.48-.03v-.35h-2.72c-1.5 0-2.83-.03-2.96-.06-.2-.06-.22-.03-.22.3v.36h.65c.51 0 .65-.03.65-.15 0-.13.23-.15 1.5-.15 1.43 0 1.5.01 1.5.2 0 .18.07.2.8.2h.8zm3.7-.79v-.53l-.72-.07c-.4-.03-.85-.09-1-.12-.28-.06-.28-.06-.28.44 0 .49 0 .49.38.56.77.12.82.1.82-.35 0-.24.04-.38.1-.34.06.03.1.21.1.4 0 .32.06.38.58.54.01.01.02-.23.02-.53Zm-9.92-.03c-.02-.2-.09-.29-.25-.31-.13-.02-.23-.1-.23-.18 0-.11-.2-.14-1.01-.14-.88 0-1 .02-.95.16.03.09.06.27.06.4 0 .27.64.36.88.12.09-.09.12-.08.12.05 0 .14.11.17.71.17h.7zm6.22-.13c0-.2-.07-.2-2.95-.2s-2.95 0-2.95.2.07.2 2.95.2 2.95 0 2.95-.2Zm8.5-.19c0-.5.07-.46-1.35-.66-.66-.1-1.24-.21-1.3-.25s-.29-.08-.53-.09l-.42-.02v.4c0 .37.02.41.33.46.82.15 3.03.53 3.15.54.08.01.12-.13.12-.38Zm-3.87-.84c-.07-.53 0-.48-.85-.62-.4-.07-.99-.18-1.31-.25-.7-.14-.72-.12-.7.52.01.6-.03.56.63.6.53.03.54.02.61-.27l.06-.3.04.35c.06.52.56.58.62.08l.03-.33.08.32c.07.26.14.32.4.35.43.05.45.03.39-.45Zm-16.33.13c.84-.13 2.53-.09 2.72.08.22.18 2.45.03 2.7-.18.63-.51-1.12-.63-6.15-.43l-1.67.06v.69l.83-.05c.45-.03 1.16-.1 1.57-.17Zm12.13-.47c.93-.05.98-.07.95-.27-.03-.21-.06-.21-3.28-.24-3.62-.03-3.9-.01-3.9.29 0 .22.1.21.77-.07.38-.15.44-.03.16.29-.19.2 2.09.21 5.3 0Zm-9.26-.4c2.19-.05 2.6-.08 2.45-.19-.16-.12-.15-.15.13-.38l.3-.25-3.61-.01c-4.53 0-4.54 0-4.54.51v.39h1.33c.72 0 2.5-.03 3.94-.07Zm-16.17-.39c3.11-1.47 4.34-4.42 4.01-9.58-.14-2.08-.26-2.6-.91-3.91-.65-1.29-.64-1.52.01-.63.34.48.37.41.08-.19-.19-.4-.25-.44-.89-.63-.78-.23-1.66-.94-2-1.6l-.19-.37-.82.23c-1.13.33-2.21.39-4.28.24-.97-.07-1.98-.1-2.23-.06l-.46.07-.11.77c-.06.42-.14 1.28-.17 1.9l-.07 1.13.39-.07c.55-.12 2.64-.08 2.76.04.32.32.01.42-1.29.41-1.81-.03-1.89 0-1.97.63-.09.62-.1.6.49.43.88-.27 1.95-.13 2.74.36.43.26.29.49-.16.26-.16-.09-.47-.19-.68-.23l-.4-.07.19.21c.23.26.24.67.02.91-.18.2-.17.2.93-.04.56-.13.33.17-.29.38-.66.22-2.28.24-2.88.04l-.41-.14-.26.86c-.15.47-.46 1.34-.7 1.93l-.44 1.06.36 1.09c.65 1.99 1.04 2.59 2.21 3.36 2.16 1.43 5.73 2.01 7.42 1.21Zm26.4-.02c0-.04-.22-.25-.49-.45l-.48-.37-2.21-.08-2.2-.07-.58.52-.59.53h3.28c1.8 0 3.27-.04 3.27-.08Zm-9-.71 1.85-.06.03-.37.03-.38h-.89c-1.43 0-2.42.11-2.42.26 0 .11-.31.14-1.55.14s-1.55-.03-1.55-.14c0-.15-1.1-.27-1.68-.18-.3.04-.32.07-.32.43v.39l2.33-.01c1.27-.01 3.15-.04 4.17-.08Zm7.7-.44c0-.3-1.14-.76-2.03-.82l-.99-.07-.39.38-.4.39.33.06c.34.07 3.48.12 3.48.06Zm-5.82-.94-.03-.38-1.04-.03c-1.13-.03-1.21 0-1.21.51v.27h2.31zm2.19-.65c.36-.41.34-.43-.5-.45-.47-.01-.83-.06-.85-.12s-.15-.11-.28-.11c-.35 0-.36.67-.02.75.97.2 1.41.18 1.65-.07Zm-2.2-.38-.02-.4h-1.07c-1.15 0-1.3.08-1.13.6.06.18.15.2 1.15.2h1.1zm5.81-.42c.04-.3-.01-.31-3.08-.68-.96-.12-1.9-.24-2.07-.27-.43-.07-.53.7-.11.8.64.15 2.49.3 2.59.2.09-.09 1.86.1 1.98.23.17.17.66-.02.69-.28Zm-28.49.11c-.2-.06-.57-.28-.84-.5-.4-.33-.65-.44-.95-.41-.03 0-.13.04-.22.07-.28.11-.22-.2.06-.33.16-.07.37-.07.65-.01.25.05 1.15.06 2.28 0 1.04-.04 1.9-.06 1.93-.04.08.07-.32.33-.5.33-.08 0-.21.13-.27.29-.19.53-1.3.83-2.14.6Zm15.53-.41c.03-.08.19-.12.41-.1.34.03.37.01.37-.22V20h-2v.7h.59c.38 0 .61-.04.63-.12Zm7.18-.33v-.45h-1.04c-1.86 0-2.26.07-2.26.43v.3l.5-.06c.4-.05.5-.03.5.08 0 .12.21.15 1.15.15h1.15zm5.75-.3v-.3l-1.31-.07c-.73-.04-1.58-.13-1.9-.21-.33-.09-.86-.18-1.19-.22-.33-.03-.7-.09-.83-.12-.19-.05-.22-.01-.22.26 0 .39-.17.35 2.55.7 2.81.36 2.9.36 2.9-.04Zm-12.2-.3c.11-.02 1.61-.04 3.33-.04l3.12-.01v-.29c0-.29-.01-.3-.66-.37-.64-.06-3.98 0-6.51.13l-1.23.06v.7l.88-.07c.48-.04.96-.08 1.07-.11Zm5.38-1.02c.04-.02-.01-.18-.1-.34l-.18-.3-.85.05c-.47.03-1.64.08-2.6.11-3.3.1-3.6.14-3.6.42v.25l3.63-.07c1.99-.04 3.65-.09 3.7-.12Zm-21.4-.15c-.07-.15-.19-.22-.39-.23-.24 0-.3-.05-.32-.27-.02-.16.01-.28.07-.28s.11.05.11.1c0 .06.13.1.29.1.31 0 .57.22.46.4-.12.19.54.11.75-.1.24-.24.25-.53.04-1.32-.08-.33-.13-.67-.11-.77.07-.29.49.78.54 1.4.06.63.35.71.49.14.08-.31.24-.33.24-.02s-.28.69-.49.65c-.09-.02-.3.07-.45.2-.4.31-1.09.31-1.23 0Zm19.53-.64 1.41-.07-.23-.24-.23-.25-1.88.06c-3.65.12-3.85.14-4.07.43l-.19.26 1.89-.07c1.04-.03 2.52-.09 3.3-.12Zm5.67-.22c-.1-.15-.46-.67-.81-1.15-.66-.93-.94-1.54-.47-1.03.34.36.73.37.49.01a.76.76 0 0 0-.4-.3c-.13-.03-.35-.07-.49-.1-.32-.07-.32-.08.1.72.43.82.43.77-.05.69-.23-.04-.4-.02-.4.03 0 .19.45.41.85.42.3.01.34.03.17.07l-.22.07.25.37c.25.37.39.45.88.47l.27.01zM5.8 17.05c.56-1.51.69-3.73.35-5.85-.36-2.22-.15-4.8.38-4.62.04.01.26-.33.48-.77.22-.45.63-1.04.92-1.35.57-.61.98-.78.53-.23C7.07 5.96 6.84 6.61 6.9 8.6c.13 4.16-.11 6.56-.78 8.1-.31.71-.56.97-.32.35Zm30.7.15c-.12-.17-.31-.3-.43-.31-.2-.01-.2-.02.03-.08l.24-.07-.22-.22c-.18-.18-.33-.22-.85-.22l-.62.01.28.24c.15.14.25.25.21.25-.03 0 0 .08.07.17.13.16.13.16-.11 0-.34-.23-.74-.23-.65.01.05.14.04.15-.06.05-.07-.07-.24-.13-.38-.13h-.24l.22.24c.21.23.29.24 1.33.24.6 0 1.12.03 1.15.06.19.19.21.01.03-.24Zm-5.48-.06 2.47-.07-.3-.38-.31-.39h-1.41c-1.65 0-2.79.09-2.71.21.03.05.01.09-.05.09-.12 0-.61.51-.61.63 0 .05.1.07.23.04.12-.03 1.33-.09 2.69-.13Zm8.48-.1c0-.03-.12-.21-.26-.4-.33-.42-.24-.56.13-.23l.28.24-.2-.25c-.32-.41-.47-.5-.82-.5h-.33l.25.53c.14.28.18.42.09.3-.11-.16-.27-.23-.5-.23-.61 0-.25.46.41.53.7.07.95.07.95.01Zm-17.72-.94c-.04-.14-.19-1.26-.33-2.5-.38-3.29-.65-4.53-1.24-5.72-.51-1.04-.46-1.36.08-.48.84 1.37 1.24 3.02 1.51 6.26.12 1.45.11 2.9-.02 2.44Zm13.65-.2c-.09-.17-.25-.3-.35-.3s-.18-.06-.18-.14c0-.25-.3-.46-.67-.46h-.35l.21.35.2.35h-.46c-1.05 0 .25.41 1.55.49.23.01.23.01.05-.29Zm-3.16.14c.22-.06.21-.07-.14-.45l-.37-.39h-2.13l-.32.45-.32.45h1.53c.84 0 1.63-.03 1.75-.06Zm-28.52-2c.13-.54.34-1.6.46-2.34.13-.78.28-1.4.35-1.46.1-.08.14-.37.14-1.01 0-4.09 3.44-7.16 8.05-7.16 3.35-.01 5.59 1.86 4.86 4.05l-.11.33.2-.23c.21-.25.6-1.23.6-1.51 0-3.64-8.12-4.04-11.94-.59-2.2 1.99-2.73 3.44-3.01 8.33-.08 1.43-.17 2.78-.19 3l-.04.4.19-.41c.1-.22.3-.85.44-1.4ZM34 15.39c-.06-.11-.18-.23-.26-.26s-.14-.14-.14-.24-.07-.19-.15-.19-.21-.13-.29-.29c-.09-.17-.31-.35-.56-.45-.7-.28-.77-.21-.31.32.79.9.75.82.38.82-.43 0-.51.09-.3.32.26.29 1.79.27 1.63-.03Zm-18.03-.48c-.93-.12-.49-.26.81-.27 1.27 0 1.96-.13 2.18-.39.05-.08.16-.1.22-.06.09.05.06.15-.11.33-.39.42-1.6.58-3.1.39Zm-6.5-.19c-.35-.38-.15-.95.38-1.11.29-.09.29-.09-.11-.1-.79-.02-1.96.47-1.75.73.07.09.07.16-.01.24-.17.17.5.39 1.26.41.37.01.38 0 .23-.17Zm7.29-.25c-.24-.17-.24-.62 0-.89l.19-.21-.4.07c-.22.04-.57.18-.77.32-.57.37-.81.27-.36-.16.78-.73 2.74-.92 3.4-.33.16.14.2.14.45-.02.18-.12.28-.14.31-.07.02.07.13.12.24.12.27 0 .18.21-.18.42-.32.19-.4.17-1.29-.16-.22-.08-.58-.15-.8-.15s-.33.03-.25.06.21.12.27.21c.42.53-.27 1.19-.81.79Zm2.69-2.07c-.37-.41-1.15-.53-2.88-.46-1.39.05-1.58.04-1.64-.1-.09-.23.12-.32.97-.4 2.11-.22 3.38.08 3.81.88.13.25-.06.31-.26.08Zm-8.61-5.91c-.04-.08.01-.09.17-.04.15.04.09-.03-.16-.19-.45-.29-.32-.33.38-.11.65.2.63-.01-.05-.49-.37-.26-.46-.36-.32-.36.11 0 .39.16.62.36.5.43.97.56.87.24-.08-.25.11-.27.36-.04.1.09.24.14.31.12.23-.08-.86-1.05-1.32-1.18-.69-.19-.81-.07-.25.24.28.15.43.25.34.22-.1-.02-.35-.1-.57-.17-.57-.17-.84-.06-1.32.51-.37.44-.4.51-.23.56.1.03.36.14.58.24.46.21.69.25.59.09Zm2.83-.96c-.19-.36-.41-.55-1.02-.88-.47-.25-.48-.27-.15-.2.52.1 1.2.55 1.57 1.03.35.46.49.3.17-.18-.62-.92-1.26-1.24-2-1l-.36.12.4.18c.22.1.64.43.93.73.58.6.69.65.46.2Z"/></svg>