<svg xmlns="http://www.w3.org/2000/svg" width="51" height="51" viewBox="0 0 51 51"><path fill="#fff" fill-rule="evenodd" stroke="#fff" stroke-width=".69" d="M16.34 44.67c-1.13-.54-1.73-1.54-1.82-2.99-.03-.49-.08-.91-.13-.93-.04-.03-.74 0-1.56.06-1.28.1-1.53.09-1.85-.04-.99-.41-1-1.72-.02-2.29 1.26-.74 19.32-1.1 25.94-.53 3.01.27 3.38.36 3.77.94.75 1.11-.22 2.11-1.86 1.91-3.89-.49-11.54-.66-18.12-.41-.13.01-.15.18-.15 1.14.01 1.62-.49 2.53-1.73 3.14-.6.29-1.84.29-2.47 0Zm2.44-.23c1.36-.68 1.76-1.8 1.5-4.19l-.14-1.2-1.19.02c-1.32.03-4.27.22-4.34.29-.14.14.18 3.12.38 3.6.64 1.49 2.4 2.17 3.79 1.48Zm-5.35-3.9.97-.06v-.69c0-.44.04-.69.11-.69.06 0 1.11-.07 2.33-.15 1.21-.08 2.49-.16 2.84-.17l.62-.03.04.3c.03.17.07.47.1.69.03.21.07.4.08.42.02.01 1.77-.01 3.88-.07 4.16-.1 8.6 0 11.88.27 3.85.31 3.64.31 4.03-.04.45-.4.49-1.07.09-1.47-1.14-1.13-15.2-1.36-27.6-.44-1.65.12-2.01.24-2.25.76-.42.87.24 1.56 1.4 1.47.28-.02.94-.06 1.48-.1Zm4-7.9c-2.96-1.09-4.15-7.82-2.19-12.35.2-.45.36-.84.36-.86s-3.51-.03-7.8-.03H0v-4.6h51.2v4.59l-7.79.03c-4.29.02-7.82.06-7.86.09-.03.04.03.22.14.4 1.9 3.23 1.33 9.76-1.03 11.97-4.14 3.87-8.13-5.2-5.16-11.75.17-.36.3-.67.3-.69 0-.06-8.27-.04-8.43.02-.12.04-.08.21.24.88 1.15 2.47 1.31 6.08.38 8.92-.87 2.66-2.75 4.05-4.56 3.38Zm1.77-.2c3.01-.89 4.23-7.97 2.11-12.24l-.38-.75-2.43-.03c-2.83-.03-2.62-.1-3.13 1.12-2.33 5.57.07 13.02 3.83 11.9Zm14.18.01c1.24-.37 2.32-1.94 2.89-4.2.67-2.67.23-6.79-.9-8.47l-.23-.33-2.52-.03-2.53-.02-.4.85c-2.48 5.3-.06 13.31 3.69 12.2Zm-15.11-8.16c-1.64-.87-.95-3.49.93-3.49 1.91 0 2.51 2.61.8 3.51-.46.25-1.24.24-1.73-.02Zm14.28.02c-1.13-.68-1.34-1.97-.48-2.92 1.43-1.58 3.93.17 2.97 2.09-.46.93-1.68 1.33-2.49.83Zm-12.47-.28c.91-.67.97-1.95.13-2.66-1.42-1.19-3.4.67-2.37 2.24.46.69 1.59.91 2.24.42Zm14.17.02c1.1-.64 1.04-2.29-.11-2.85-1.9-.93-3.37 1.82-1.54 2.89.49.29 1.13.27 1.65-.04ZM51.1 17.1V15H.1l.03 2.1.02 2.1H51.1zM0 2.1V0h51.2v4.2H0zm51.1-.05V.1H.1V4h51z"/></svg>