<svg xmlns="http://www.w3.org/2000/svg" width="51" height="51" viewBox="0 0 51 51"><path fill="#fff" fill-rule="evenodd" stroke="#fff" stroke-width=".78" d="M26.04 41.6c-5.4-.62-10.24-3.97-12.66-8.77-.86-1.71-1.56-4.05-1.27-4.23.24-.15 8.18-1.65 8.26-1.56.03.03.17.38.3.78 1.57 4.66 6.7 6.64 10.84 4.18.37-.22.73-.4.79-.4s.87.57 1.78 1.27c.92.7 2.28 1.73 3.02 2.29.74.57 1.51 1.16 1.7 1.33l.35.29-.35.37c-2.98 3.14-8.24 4.98-12.76 4.45Zm5.01-.48c2.34-.53 4.72-1.67 6.38-3.04l.28-.23-2.93-2.2-2.93-2.21-1.05.54c-1.81.91-3.38 1.13-5.2.73-2.78-.62-5.19-2.86-5.89-5.49-.1-.36-.15-.41-.34-.37-.12.02-.94.2-1.82.4-2.11.46-4.74 1.11-4.82 1.19-.11.11.17.88.77 2.11 2.17 4.45 6.43 7.71 11.3 8.64 1.45.28 4.88.24 6.25-.07Zm7.35-3.88.45-.45-.21-.17c-.12-.09-1.42-1.09-2.9-2.21-1.48-1.13-2.86-2.18-3.06-2.34l-.37-.3-.78.46c-4.21 2.46-9.63.33-11.09-4.37l-.18-.58-.53.06c-.53.06-4.43.79-6.31 1.18-.64.13-1.06.26-1.09.35-.05.11.15 1.33.22 1.33.01 0 .73-.18 1.61-.4 1.95-.48 5.21-1.2 5.45-1.2.13 0 .21.12.29.43 1.24 4.85 6.91 7.13 11.24 4.52.32-.19.62-.35.66-.35.05 0 1.43 1.01 3.07 2.24 1.64 1.24 3 2.25 3.03 2.25.03.01.26-.19.5-.45Zm-19.7-13.2c-.63-.14-2.36-.47-3.85-.75-1.48-.28-2.73-.54-2.78-.58-.1-.1.44-2.18.82-3.14 3.4-8.54 13.68-12.4 21.97-8.24 1.65.83 4.24 2.73 4.24 3.12 0 .12-.78.74-5.03 4l-1.78 1.37-.38-.25c-4.29-2.84-9.95-.77-11.36 4.16-.2.68-.14.67-1.85.31Zm1.75-.71c1.71-4.89 7.24-6.79 11.57-3.97.26.18.26.18.95-.35.37-.29 1.57-1.21 2.65-2.03 1.09-.83 1.98-1.53 1.98-1.57s-.3-.3-.67-.58c-5.9-4.45-13.53-4.41-19.48.1-2.38 1.81-4.78 5.23-5.11 7.28l-.06.36 1.23.23c.68.12 2.43.46 3.89.76 1.46.29 2.68.53 2.71.53.04.01.19-.34.34-.76Zm-6.54-4.92c3.75-5.75 11.49-8.49 18.08-6.39 1.8.57 3.96 1.72 5.36 2.85l.5.41.47-.37c.61-.47.61-.49-.23-1.2-4.1-3.45-9.48-4.65-14.64-3.26-4.06 1.1-7.77 4.03-9.62 7.61-.42.82-.82 1.73-.6 1.4.07-.1.37-.57.68-1.05Z"/></svg>