<svg xmlns="http://www.w3.org/2000/svg" width="51" height="51" viewBox="0 0 51 51"><path fill="#fff" fill-rule="evenodd" stroke="#fff" stroke-width=".734" d="M38.86 43.73c-1.78-.38-3.63-1.57-5.12-3.31-.64-.74-4.02-5.74-6.09-9.02-.54-.85-1.34-2.09-1.79-2.74-.87-1.29-.94-1.54-.95-3.06-.01-.74.03-.78.95-1 2.14-.51 3.66-1.65 4.46-3.36.79-1.69.82-4.56.06-6.79-.38-1.12-.36-2.7.05-4.38.31-1.23.34-1.26.91-.96 2.35 1.25 3.6 3.51 3.73 6.74.16 4.09-1.36 6.72-5.29 9.18l-.88.55.83 1.18c1.09 1.56 3.45 5.01 5.42 7.94 3.63 5.38 5.25 6.9 7.79 7.34 1.01.18 1.09.22 1.04.62-.1.86-3.14 1.5-5.12 1.07Zm-27.54-.09c-.5-.35-.24-.91.55-1.2 1.91-.69 2.47-1.27 2.81-2.92.19-.96.31-26.33.12-27.57-.3-2.02-.9-2.61-3.11-3.1-1.38-.31-1.49-.37-1.49-.8 0-.64.15-.69 1.85-.59 2.14.12 4.53.11 8.25-.05 4.79-.2 6.99 0 9.18.81.72.27.76.4.51 1.8-.11.62-.26 1.86-.33 2.75-.16 1.88-.3 2.23-.91 2.23-.43 0-.5-.13-.65-1.19-.25-1.8-.64-2.5-1.55-2.76-1.63-.47-6.95-.84-7.1-.49-.13.32-.05 13.21.08 13.63.14.43.39.49 1.31.31 1.36-.27 1.93-.83 2.45-2.43.24-.72.45-.91.86-.81s.42.18.39 4.82c-.02 4.87 0 4.75-.63 4.7-.44-.04-.65-.37-.93-1.45-.42-1.64-1.06-2.13-2.81-2.17l-.72-.01v6.1c0 5.48.02 6.16.17 6.65.41 1.29 1.41 1.9 4.09 2.5 1.03.23 1.33.42 1.27.81-.05.37-.43.5-1.28.44-2.35-.16-9.08-.16-10.2-.01-1.43.2-1.9.2-2.18 0Zm30.98-.29c.79-.25 1.4-.55 1.4-.7 0-.16-.12-.2-1-.35-2.42-.43-4.19-2.11-7.75-7.4-.87-1.29-2.61-3.84-3.85-5.65-2.1-3.06-2.5-3.66-2.5-3.78 0-.03.45-.33 1-.66 3.84-2.36 5.33-4.94 5.17-8.96-.12-3.08-1.29-5.26-3.43-6.41-.42-.23-.41-.24-.65.87-.39 1.84-.38 2.99.05 4.28 1.6 4.86-.31 9.12-4.59 10.24l-.9.24.04 1.14.03 1.14.98 1.45c.53.8 1.35 2.06 1.82 2.8 1.95 3.09 5.2 7.91 5.85 8.65 2.36 2.73 5.6 3.94 8.33 3.1Zm-28.75 0c1.49-.18 6.83-.2 9.05-.03 1.62.12 2.1.08 2.1-.17 0-.21-.23-.3-1.32-.54-2.83-.61-3.81-1.37-4.13-3.18-.2-1.08-.21-11.95-.02-12.33.15-.31.6-.37 1.56-.2 1.46.24 2.04.77 2.42 2.17.34 1.31.55 1.64.88 1.44.24-.15.22-8.89-.02-8.97-.25-.08-.32.01-.52.71-.45 1.62-1.48 2.45-3.21 2.62-1.25.12-1.23.29-1.25-7.62-.02-6.99-.02-6.99.49-7.12.72-.18 5.71.27 7.05.64 1.02.28 1.42.94 1.76 2.91.14.87.18.97.39 1 .34.05.49-.43.57-1.83.04-.66.18-1.85.31-2.64.28-1.65.33-1.51-.71-1.85-2.47-.8-4.76-.91-11.63-.55-1.8.1-2.68.1-3.9.01-2.09-.16-2.77-.15-2.91.02-.23.27-.01.44.77.61 2.74.59 3.41 1.15 3.78 3.24.17.97.2 25 .04 26.77-.25 2.53-.91 3.49-2.87 4.15-.77.25-.97.42-.83.7.13.23.48.24 2.15.04Z"/></svg>