<svg xmlns="http://www.w3.org/2000/svg" width="51" height="51" viewBox="0 0 51 51"><path fill="#fff" fill-rule="evenodd" stroke="#fff" stroke-width=".449" d="M15.11 32.91c-.62-.16-1.16-.7-1.27-1.29-.1-.51.54-.49.79.03.38.8 1.93.76 2.12-.06.08-.33-.13-.55-.63-.68-.2-.06-.62-.17-.93-.26-.99-.26-1.37-.79-1.19-1.62.3-1.34 2.65-1.51 3.3-.23.3.59.27.7-.2.7-.32 0-.4-.04-.4-.18 0-.5-1.21-.83-1.75-.48-.64.42-.26.94.9 1.22.92.22 1.22.38 1.45.77.72 1.17-.65 2.46-2.19 2.08Zm6.28-.01c-.93-.28-1.1-.64-1.07-2.27l.03-1.28h.6l.05 1.23c.06 1.39.18 1.62.84 1.62.63 0 .81-.35.83-1.62.02-1.17.07-1.32.44-1.26l.24.03.03 1.77.02 1.77-.67-.01c-.38-.01-.77.01-.88.04-.11.04-.32.03-.46-.02Zm3.79 0c-.79-.24-1.34-1.06-1.26-1.9.14-1.39 1.24-2.08 2.51-1.55.15.06.17 0 .17-.7v-.76l.33.03.32.03.03 2.38c.03 2.58.01 2.64-.52 2.39-.17-.08-.34-.07-.62.03-.44.16-.58.17-.96.05Zm3.87-.05c-1.79-.64-1.41-3.55.47-3.55.99 0 1.57.5 1.66 1.43.07.7-.06.78-1.13.7-1.3-.09-1.58.04-1.1.52.38.38 1.07.35 1.37-.05.27-.37.71-.39.76-.04.1.7-1.15 1.31-2.03.99Zm-10.5-.19c-.24-.24-.25-.3-.25-1.45v-1.2l-.27-.03c-.45-.05-.48-.68-.04-.68.3 0 .31-.01.31-.45 0-.45 0-.45.35-.45s.35 0 .35.45c0 .44 0 .45.34.45.36 0 .51.18.41.51-.05.14-.16.19-.41.19H19v2.09l.38.03c.35.03.37.05.37.38 0 .48-.78.58-1.2.16Zm13.32.18c-.04-.04-.07-.83-.07-1.76 0-1.82.03-1.93.54-1.7.15.07.28.07.4 0 .33-.18 1.14-.14 1.43.08.62.46.68.64.71 2.1l.04 1.34h-.72v-1.09c0-1.55-.2-1.91-.97-1.76-.59.11-.75.5-.71 1.75l.03 1.05-.3.03c-.17.02-.34 0-.38-.04Zm4.18-.18c-.24-.24-.25-.3-.25-1.46V30h-.25c-.18 0-.26-.07-.31-.24-.08-.32.02-.46.32-.46.22 0 .24-.04.24-.45 0-.45 0-.45.34-.45s.35.01.38.43c.03.41.04.42.41.45.56.05.53.64-.03.72l-.35.05.02.9c.01.5.03.95.03 1.02 0 .06.15.13.33.15.29.03.32.06.32.38 0 .48-.78.58-1.2.16Zm-19.73-.06c.46-.13.88-.61.88-1.01 0-.71-.4-1.03-1.64-1.29-1.03-.22-1.41-.74-1.06-1.41.38-.69 2.01-.63 2.4.1.06.12.15.21.21.21s.03-.13-.07-.29c-.55-.93-2.39-.86-2.71.12-.25.76.07 1.11 1.27 1.42 1.17.29 1.5.54 1.5 1.14 0 1.02-2.14 1.26-2.68.3-.22-.37-.37-.38-.18-.01.34.66 1.2.96 2.08.72Zm6.3-.21c.23-.16.28-.17.28-.05 0 .08.03.17.08.2.04.02.08-.64.08-1.47l.02-1.52-.08 1.1c-.09 1.46-.34 1.85-1.2 1.85-.84 0-1.02-.29-1.1-1.8l-.06-1.15-.02 1.13c-.03 1.43.09 1.7.88 1.95.26.09.84-.04 1.12-.24Zm3.85-.05.31-.24.1.28c.08.19.1-.36.09-1.93 0-1.21-.02-1.93-.04-1.6s-.05.74-.08.92l-.06.32-.36-.25c-.59-.39-1.25-.34-1.73.14-1.32 1.31.3 3.46 1.77 2.36Zm3.52.26c.35-.1.81-.46.81-.63 0-.05-.16.05-.35.22-.76.66-1.89.29-2.02-.67l-.06-.44 1.24.03 1.24.03.03-.32c.07-.69-.49-1.22-1.3-1.22-1.83 0-1.85 2.88-.03 3.09.06 0 .25-.03.44-.09Zm-10.49-.1c0-.05-.16-.1-.35-.1-.44 0-.47-.1-.43-1.55l.03-1.1.4-.04.4-.05-.4-.05c-.39-.06-.4-.07-.46-.51l-.05-.45-.05.45c-.04.41-.07.45-.34.49l-.3.04.3.06.3.06.03 1.3c.02 1.08.05 1.32.19 1.43.2.14.73.16.73.02Zm12.93-2.28c.64-.69 1.5-.68 1.89.01.07.12.16.72.19 1.32l.06 1.1-.01-1.17c-.01-1.02-.04-1.2-.22-1.45-.43-.57-1.26-.6-1.86-.06-.17.15-.18.14-.18-.1 0-.15-.04-.27-.1-.27s-.09.56-.08 1.52c.02 1.37.03 1.41.05.43.03-.97.06-1.12.26-1.33ZM37 32.5c0-.05-.13-.1-.3-.1-.44 0-.51-.24-.48-1.52l.03-1.13.4-.06.4-.05-.4-.05c-.39-.04-.4-.05-.46-.49l-.06-.45-.01.47c-.02.47-.03.48-.35.5l-.32.01.32.04.33.04v1.34c0 1.17.02 1.35.17 1.44.23.13.73.14.73.01Zm-12.15-.31c-.95-.84-.45-2.49.77-2.49.45 0 .91.3 1.11.73.65 1.36-.79 2.71-1.88 1.76Zm1.38-.23c.51-.47.43-1.52-.13-1.81-.74-.38-1.44.08-1.44.95 0 .93.94 1.45 1.57.86Zm2.13-1.23c.28-1.18 1.89-1.42 2.33-.34.24.56.15.61-1.19.61h-1.2zm2.04-.15c-.01-.55-1.01-.78-1.45-.33-.4.39-.32.45.6.45.61 0 .85-.03.85-.12Zm4.68-4.67-.33-.29-.03-4.08c-.02-2.96.01-4.16.09-4.37.24-.56.3-.57 4.75-.57h4.06l.34.34.35.35-.03 4.16-.03 4.17-.33.29-.32.29h-8.2zm8.69-.22.23-.22v-4.03c0-4.36.01-4.28-.41-4.49-.42-.22-7.76-.22-8.19 0-.48.25-.51.57-.48 4.69l.03 3.74.24.26c.3.32.22.31 4.65.29 3.65-.02 3.69-.03 3.93-.24ZM6.9 24.6c-.15-.09.6-2.55 1.72-5.67l.3-.83h1.09c1.31 0 1.04-.41 2.35 3.48 1.12 3.31 1.12 3.12.04 3.12-.81 0-.84-.02-1.06-.72l-.18-.58H8.92l-.17.53c-.09.28-.22.58-.27.65-.12.14-1.35.16-1.58.02Zm6.9 0c-.07-.04-.09-1.16-.08-3.26l.03-3.19h1.9l.95 1.75.95 1.75.05-1.75.05-1.75.74-.03c.53-.02.77.01.82.1.13.2.11 6.25-.02 6.33-.23.15-1.64.17-1.81.03-.09-.07-.57-.92-1.07-1.88l-.91-1.75v1.78c0 1.33-.03 1.79-.12 1.82-.24.07-1.38.11-1.48.05Zm6.62.02c-.09-.07-.12-.79-.1-3.28l.03-3.19h1.6l.03 3.19c.03 3.61.09 3.36-.83 3.36-.33 0-.66-.04-.73-.08Zm4.11.01-.23-.04V19.8h-.79c-.44 0-.82-.03-.85-.08-.05-.08-.09-.9-.07-1.35l.01-.27 2.52.02 2.53.03.07.7c.09.91.05.95-.93.95H26v4.78l-.22.06c-.25.06-.9.06-1.25-.01Zm4.86-.07c-.94-.33-1.43-.91-1.55-1.8l-.07-.46h.87c.85 0 .86 0 .86.25 0 .58 1.29.95 1.74.49.47-.46.16-.72-1.19-.99-1.75-.34-2.54-1.43-1.96-2.7.93-2.06 4.93-1.56 4.95.63l.01.47-.73.03-.73.03-.14-.35c-.24-.56-1.1-.77-1.63-.4-.52.36-.18.63 1.27.95 1.79.4 2.38 1.12 2.01 2.49-.32 1.2-2.21 1.9-3.71 1.36Zm2.5-.35c.7-.36 1.01-.88 1.01-1.66 0-.94-.34-1.22-1.96-1.6-1.34-.32-1.54-.44-1.54-.9 0-.9 1.83-1.03 2.21-.16.13.29.17.31.71.31h.56l-.1-.37c-.47-1.74-3.55-2.11-4.39-.53-.64 1.19.03 2.12 1.82 2.51 1.08.23 1.43.43 1.47.85.1 1-2.02 1.14-2.39.17-.12-.33-1.19-.35-1.19-.03 0 1.29 2.33 2.15 3.79 1.41Zm-23.34-.46.22-.6h2.58l.2.63.19.62h.63c.35 0 .63-.04.63-.09s-.34-1.08-.76-2.28-.87-2.51-1.01-2.91l-.25-.73-.96.03-.97.03-.97 2.85c-1.17 3.43-1.13 3.12-.37 3.08l.61-.03zm6.55-1.26v-1.9l.22.03c.18.02.42.41 1.19 1.88l.96 1.85.77.03.76.03V18.4h-1.1l-.01.53c0 .28-.02 1.09-.03 1.79-.02 1.99-.04 1.98-1.55-.79l-.83-1.53H14v6h1.1zm6.6-1.09v-3h-1.2v6h1.2zm4.02.58.03-2.43.87-.03.88-.03V18.4h-4.7v1.09l.88.03.87.03.03 2.43.02 2.42h1.1zm12.79 1.84c-1.42-.72-.81-2.32.89-2.32.46 0 .6-.03.6-.15 0-.35-.69-.46-1-.15-.27.27-1.1.29-1.1.03 0-.66.8-1.18 1.71-1.11 1.2.09 1.49.57 1.49 2.46v1.32h-.44c-.24 0-.46-.05-.48-.1-.02-.07-.16-.05-.4.05-.48.2-.85.19-1.27-.03Zm-2.39-.49.03-.58h1.1v1.1l-.58.03-.58.03zm5.68-1.27V20.2h1.1l-.02 1.83-.03 1.82-.52.03-.53.03zm-1.92 1.44c.39-.24.52-.25.52-.05 0 .09.09.15.25.15.52 0 .31-2.43-.25-2.92-.54-.49-1.98-.29-2.18.3-.06.18.38.15.59-.04.32-.29.97-.23 1.26.1.43.51.3.69-.56.73-.78.04-1.24.21-1.41.52-.49.92.81 1.8 1.78 1.21ZM37 23.3c0-.27-.03-.3-.3-.3s-.3.03-.3.3.03.3.3.3.3-.03.3-.3Zm5.6-1.31v-1.6l-.27.03-.28.03-.01 1.58-.02 1.57h.58zm-3.58 1.31c-.58-.24-.51-1.04.1-1.15 1.07-.2 1.5.2.91.84-.31.34-.67.45-1.01.31Zm.75-.42c.39-.36.3-.49-.29-.46-.58.03-.78.29-.42.55.25.19.44.16.71-.09Zm-30.39-.75c-.35-.05-.35-.05.1-1.33.51-1.44.62-1.43 1.14.09.47 1.37.36 1.48-1.24 1.24Zm.99-1.18-.31-.94-.33.92c-.18.51-.33.93-.33.95 0 .01.29.02.64.02h.64zm31.35-1.72.03-.48h1.1l.03.48.03.47h-1.22zm.88-.03c0-.16-.07-.2-.3-.2s-.3.04-.3.2.07.2.3.2.3-.04.3-.2Z"/></svg>