<svg xmlns="http://www.w3.org/2000/svg" width="51" height="51" viewBox="0 0 51 51"><path fill="#fff" fill-rule="evenodd" stroke="#fff" stroke-width=".765" d="M15.33 35.93c-.1-.03-.13-.39-.13-1.29V33.4h-2.5v-2.5h-1.18c-1.48 0-1.42.06-1.42-1.42V28.3H8.92c-.78 0-1.22-.04-1.3-.12-.13-.13-.18-4.61-.06-5.06.06-.21.1-.22 1.3-.22h1.23l.03-1.22.03-1.23h5.3l.03 1.23.03 1.22h2.28l.03-1.22.03-1.23 2.5-.07c1.52-.04 2.56-.03 2.67.03.16.08.18.25.18 1.3v1.2l1.1-.03 1.1-.03.04-1.25c.02-.69.04-1.82.05-2.53l.01-1.27h2.49l.03-1.23.03-1.22 2.45-.08c3.13-.1 2.9-.21 2.9 1.33v1.2h2.3v-1.18c0-.78.04-1.22.12-1.3.15-.15 4.95-.17 5.18-.02.12.07.15.33.15 1.27v1.18l1.2.03c.8.02 1.22.07 1.27.15.14.22.1 5.03-.05 5.15-.07.06-.64.13-1.26.14l-1.13.03-.04 1.15c-.06 1.53.07 1.4-1.34 1.4h-1.2v1.13c0 .61-.04 1.17-.08 1.24-.05.08-.47.13-1.27.15l-1.2.03L36 29.6l-.05 1.25-1.2.03c-1.78.04-1.65.15-1.65-1.33v-1.24l-1.22-.03-1.23-.03-.03-1.22-.03-1.23h-1.17c-1.48 0-1.42.06-1.42-1.42V23.2h-2.2v2.39c0 1.32-.03 2.46-.06 2.55-.05.13-.26.16-1.3.16H23.2v1.24c0 1.47.11 1.36-1.46 1.36h-1.13l-.03 1.22-.03 1.23-1.2.05-1.2.05-.03 1.2c-.02.8-.07 1.22-.15 1.27-.13.08-2.44.1-2.64.01Zm2.47-1.38V33.4h-2.3v2.3h2.3zM15.2 32v-1.1H13v2.2h2.2zm2.62-.12.03-1.23 1.2-.05 1.2-.05.05-1.25.05-1.25 1.27-.03 1.28-.03V23.2h-4.8v1.24c0 1.46.11 1.36-1.41 1.36-1.54 0-1.49.05-1.49-1.4v-1.2h-4.8V28h1.24c1.47 0 1.36-.11 1.36 1.46v1.14h2.5v2.5h2.29zm2.48.12v-1.1h-2.2v2.2h2.2zm2.58-2.57.03-1.13H20.6v2.31l1.13-.03 1.12-.03zm12.82.02V28.3h-2.3v2.3h2.3zm-23 .41c0-.35-.03-.84-.06-1.1l-.07-.46H10.4v2.2h2.3zm-2.6-4.26v-2.4H9.01c-1.32 0-1.19-.27-1.21 2.61L7.79 28h2.31zm15.34 2.23c.04-.09.06-1.17.05-2.4l-.01-2.23H23.2V28h1.09c.93 0 1.1-.03 1.15-.17Zm7.66-.93v-1.1h-2.2V28h2.2zm2.6.01c0-1.51-.1-1.41 1.31-1.41h1.19v-1.11c0-1.54-.05-1.49 1.4-1.49h1.19l.03-2.4.03-2.4h-4.84l-.03 1.23-.03 1.22h-2.8l-.03-1.22-.03-1.23h-4.82l.07.38c.03.2.06 1.28.06 2.39v2.02l1.22.03 1.23.03.03 1.27.03 1.27 1.22.03 1.22.03.03 1.23.03 1.22h2.29zm2.56-.01.01-1.1h-2.14l-.07.53c-.03.28-.06.78-.06 1.1V28h2.25zm-7.68-2.57.03-1.13H28.3v1.08c0 .6.03 1.12.07 1.16.04.03.54.05 1.12.04l1.06-.03zm10.22.02V23.2h-2.2v2.3h2.2zm-23-.05v-1.1h-2.3v2.2h2.3zm-2.6-2.5v-1.1h-4.8v2.2h4.8zm7.7 0v-1.1h-4.8v2.2h4.8zm5.12-1.3.03-2.4H25.8v4.8h2.19zm15.31 2.28c.02-.07.05-1.15.06-2.4l.02-2.28H41.2v4.8h1.04c.74 0 1.05-.04 1.09-.12ZM35.7 19.2v-1.1h-2.3v2.2h2.3zm-2.6-2.5v-1.1h-4.8v2.2h4.8zm7.7-.05V15.5h-2.18c-2.88 0-2.62-.11-2.62 1.21v1.09h4.8z"/></svg>