<svg xmlns="http://www.w3.org/2000/svg" width="51" height="51" viewBox="0 0 51 51"><path fill="#fff" fill-rule="evenodd" stroke="#fff" stroke-width=".482" d="M21.85 41.74c-1.13-.4-1.43-.94-1.96-3.51-.22-1.09-.44-2.15-.5-2.35l-.09-.37-.73.3c-3.95 1.64-7.35.45-8.22-2.86-.8-3.08 1.08-5.89 6.22-9.29.04-.03-.65-3.23-1.03-4.76-.47-1.95-.48-2.47-.06-3.33 1.09-2.2 6.07-4.92 10.89-5.94 1.64-.34 4.07-.39 5.12-.1 4.08 1.12 5.3 4.91 3.15 9.73-.03.07.1.14.33.19.59.11 1.49.5 2.32 1.02 4.01 2.5 4.25 7.77.57 12.47-3.76 4.8-13 9.87-16.01 8.8Zm2.11-.2c4.43-.91 11.09-5.25 13.97-9.09 2.39-3.19 2.95-7.17 1.36-9.7-.85-1.37-2.7-2.66-4.37-3.05-.66-.15-.67-.17-.36-.85.69-1.5 1.03-3.9.75-5.26-.66-3.15-3.97-4.65-8.43-3.81-4.74.89-10.14 3.73-11.18 5.86-.39.82-.37 1.2.18 3.56 1.12 4.77 1.12 4.52.19 5.1-5.3 3.3-7.14 7.9-4.28 10.69 1.64 1.6 3.7 1.73 7.13.44.31-.11.51-.14.57-.08.05.06.3 1.11.55 2.35s.48 2.35.51 2.48c.07.29.7.99 1.06 1.18.68.35 1.32.4 2.35.18Zm-.29-3.7c-.02-.05-.08-.25-.12-.44s-.27-1.19-.51-2.22-.44-1.89-.44-1.92c0-.02.66-.59 1.47-1.27 2.71-2.27 5.84-5.6 7.6-8.07.78-1.1.74-1.08 1.64-.93 2.32.38 3.39 1.42 3.4 3.27.01 3.15-2.99 6.62-8.39 9.7-2.04 1.17-4.48 2.15-4.65 1.88Zm2.83-1.2c9.02-4.3 13.15-11.77 7.35-13.29-1.14-.29-1.34-.24-1.82.49-1.52 2.32-6.06 7.04-8.87 9.24l-.3.23.43 1.82c.23 1 .47 1.99.52 2.19l.1.37.72-.25c.4-.14 1.24-.5 1.87-.8Zm-12.1-3.97c-1.18-.6-.3-2.51 2.01-4.37 1.14-.91 1.24-.95 1.38-.42.3 1.13.43 1.7.61 2.57.11.54.2 1.01.2 1.07 0 .13-1.94 1.03-2.52 1.17-.62.15-1.37.14-1.68-.02Zm2.18-.41c.97-.33 1.72-.74 1.72-.93 0-.25-.71-3.37-.79-3.45-.04-.04-.43.21-.86.55-3.3 2.62-3.34 4.94-.07 3.83Zm5.11-3.14c0-.04-.17-.81-.38-1.72-.3-1.28-.35-1.68-.26-1.78.47-.52 6.12-2.39 6.39-2.12.15.15-.18.56-1.98 2.39-2.59 2.63-3.73 3.61-3.77 3.23Zm2.41-2.19c1.44-1.39 3.06-3.11 2.99-3.17-.18-.15-5.89 1.77-5.89 1.98 0 .01.14.63.3 1.37.17.73.33 1.44.36 1.57l.05.23.37-.29c.2-.17 1.02-.93 1.82-1.69Zm-4.03-5c-.03-.05-.08-.24-.12-.43-.03-.19-.27-1.22-.52-2.28-.54-2.31-.55-2.27.4-2.9 3.53-2.38 9-3.9 11.05-3.07 1.41.57 1.43 2.2.06 5.15-.51 1.09-.52 1.1-1.19 1.1-1.69 0-5.42.93-8.25 2.05-1.17.46-1.35.51-1.43.38Zm1.93-.82c2.49-.94 4.6-1.48 7-1.79l1.31-.17.43-.95c1.61-3.49 1.26-4.8-1.29-4.88-2.51-.08-7.55 1.65-9.67 3.32l-.56.45.19.83c.1.46.33 1.5.51 2.31.3 1.36.35 1.48.53 1.43.11-.02.81-.27 1.55-.55Z"/></svg>