<svg xmlns="http://www.w3.org/2000/svg" width="51" height="51" viewBox="0 0 51 51"><path fill="#fff" fill-rule="evenodd" stroke="#fff" stroke-width=".391" d="M25.31 50.59c-1.74-.53-2.19-2.85-.71-3.72l.3-.18v-2.15c0-1.32.04-2.14.1-2.14.05 0 .3.1.54.22l.45.21.51-.21c.29-.12.56-.19.61-.16s.09.98.09 2.12v2.08l.46.38c1.81 1.52-.01 4.27-2.35 3.55Zm1.42-.3c1.44-.4 1.84-2.09.72-3.08-.2-.17-.4-.31-.45-.31-.06 0-.1-.8-.1-2.05 0-1.13-.02-2.05-.05-2.05-.02 0-.23.07-.46.16-.38.16-.43.16-.75 0-.19-.09-.37-.16-.39-.16-.03 0-.05.91-.05 2.03l-.01 2.02-.42.26c-1.87 1.13-.23 3.79 1.96 3.18Zm-1.28-.68c-1.27-.58-.83-2.24.6-2.24 1.41 0 1.87 1.67.62 2.24-.52.23-.72.23-1.22 0Zm1.15-.26c.77-.4.65-1.41-.19-1.66-.72-.21-1.41.2-1.41.84 0 .77.85 1.21 1.6.82Zm-7.81-1.83c-1.44-.75-1.63-2.72-.34-3.52l.35-.22v-2.03c0-1.12.04-2.06.08-2.09.12-.07 1.95.72 2.1.91.08.12.12.63.12 1.69v1.51l.39.26c.72.48 1.02 1.58.66 2.45-.5 1.19-2.11 1.69-3.36 1.04Zm12.59.18c-1.7-.51-2.16-2.72-.78-3.68l.39-.27.01-1.58v-1.58l.94-.45c1.37-.65 1.26-.78 1.26 1.52v1.95l.46.42c1.86 1.68.16 4.41-2.28 3.67Zm-10.41-.41c1.28-.62 1.39-2.49.19-3.14l-.36-.2v-1.4c0-1.86.02-1.8-.88-2.21-.41-.19-.76-.34-.78-.34s-.04.89-.04 1.98v1.97l-.36.2c-2.2 1.18-.03 4.24 2.23 3.14Zm12.08.02c.72-.33 1.15-.95 1.15-1.67 0-.66-.22-.98-1.18-1.75-.09-.07-.12-.6-.12-1.99v-1.88l-.8.36-.8.37v3.12l-.39.26c-2.01 1.33-.08 4.21 2.14 3.18Zm-13.86-.64c-.45-.3-.61-.63-.55-1.12.14-1.15 1.76-1.46 2.43-.46.74 1.1-.74 2.35-1.88 1.58Zm12.23.03c-1.1-.67-.59-2.2.73-2.2.65 0 1.08.31 1.26.9.31 1.02-1.02 1.89-1.99 1.3Zm-10.71-.39c.62-.62.17-1.51-.76-1.51-.38 0-.52.05-.76.29-.62.62-.17 1.51.76 1.51.38 0 .52-.05.76-.29Zm11.98.15c.54-.29.65-.9.24-1.35-.62-.67-1.83-.3-1.83.56 0 .73.86 1.16 1.59.79Zm-7.49-4.57c-.36-.17-1.55-.71-2.65-1.21-3.44-1.55-4.29-2.02-5.15-2.88-1.51-1.5-2.04-2.79-2.02-4.95.01-1.54.38-9.59.48-10.43.07-.63-.09-.55 2.24-1.21.96-.27 3.01-.86 4.55-1.3s2.96-.82 3.15-.86c.27-.04 1.26.2 4.2 1.03 5.99 1.7 6.11 1.74 6.21 1.97.09.22.5 8.85.51 10.8.01 1.78-.37 2.94-1.37 4.25-.97 1.26-1.7 1.74-4.82 3.15-1.31.6-2.81 1.28-3.33 1.52-1.13.51-1.17.52-2 .12Zm1.7-.3c.36-.17 1.6-.74 2.75-1.26 3.5-1.59 4-1.86 4.85-2.73 1.68-1.71 2.04-2.91 1.89-6.25-.04-.99-.15-3.46-.24-5.5-.09-2.03-.18-3.71-.18-3.72-.04-.03-3.35-.99-6.66-1.93-2.17-.61-3.33-.89-3.5-.85-.89.21-9.48 2.69-9.55 2.75-.18.17-.68 11.03-.55 11.96.22 1.6 1.21 3.18 2.65 4.2.68.48 7.31 3.61 7.69 3.63.11.01.49-.13.85-.3Zm-13.55-.58c-1.18-.72-.87-2.26.49-2.46 1.17-.18 2.12 1.06 1.51 1.99-.39.6-1.41.84-2 .47Zm23.9 0c-1.29-.79-.78-2.45.75-2.45 1.52 0 2.01 1.84.66 2.48-.45.21-1.04.2-1.41-.03Zm-22.49-.3c.6-.37.68-1.1.17-1.57-.5-.46-1.25-.44-1.74.06-.9.9.44 2.2 1.57 1.51Zm23.9 0c.6-.37.68-1.1.17-1.57-.72-.67-2.03-.2-2.03.73 0 .82 1.08 1.31 1.86.84ZM23.6 39.26c-4.94-2.26-5.8-2.99-6.2-5.24-.17-.93.27-10.74.48-10.93.04-.04 1.9-.57 4.15-1.18l4.08-1.12 3.42.96c1.88.53 3.72 1.05 4.08 1.16l.67.19.06.68c.15 1.57.47 9.42.41 9.9a5.05 5.05 0 0 1-2.45 3.76c-.46.27-4.8 2.32-5.95 2.81-.28.12-.42.07-2.75-.99Zm3.3.43c.36-.17 1.39-.65 2.3-1.06 3.47-1.57 4.08-2.01 4.75-3.37.56-1.13.59-1.52.41-5.18-.09-1.78-.18-3.79-.21-4.48s-.08-1.48-.11-1.76l-.05-.52-2.02-.57c-1.11-.31-2.88-.81-3.94-1.11l-1.92-.55-3.88 1.06c-2.13.59-3.93 1.08-4 1.1-.15.05-.21.7-.38 4.5-.08 1.76-.18 3.77-.21 4.46-.18 3.51.5 4.25 6.36 6.93 2.13.97 2.05.96 2.9.55ZM6.99 37.52c-1.75-.91-1.53-3.14.37-3.79.96-.33 2.27.02 2.84.74l.22.28 2.27.03 2.27.03.27.83c.15.45.27.88.27.94 0 .09-.64.12-2.53.12h-2.53l-.3.31c-.76.81-2.14 1.04-3.15.51Zm36 .14c-.41-.14-.85-.44-1.13-.75-.18-.2-.27-.21-2.78-.21-1.56 0-2.58-.04-2.58-.09 0-.06.14-.48.31-.95l.31-.86h4.4l.49-.44c1.32-1.18 3.33-.95 4.04.47.86 1.74-1.09 3.54-3.06 2.83Zm-33.73-.37c.25-.12.57-.37.72-.55l.27-.34h4.94l-.21-.63c-.28-.81-.12-.77-2.57-.76l-2.14.01-.25-.32c-.87-1.11-2.99-1.03-3.67.14-.95 1.62 1.06 3.31 2.91 2.45Zm35.64-.02c1.42-.72 1.46-2.42.08-3.11-.94-.47-2.02-.31-2.77.41l-.45.43H40.6c-.64 0-1.64.03-2.23.06l-1.05.07-.21.54c-.12.3-.21.59-.21.64s1.04.09 2.43.09h2.43l.3.31c.71.76 1.97 1.01 2.84.56Zm-37.36-.56c-1.44-.88-.26-2.72 1.31-2.07.38.16.75.68.75 1.04 0 .89-1.26 1.52-2.06 1.03Zm35.66.01c-1.11-.6-.73-2.08.57-2.19.6-.05 1.09.19 1.35.68.57 1.05-.78 2.11-1.92 1.51Zm-34.4-.27c.58-.3.67-.9.21-1.36-.52-.51-1.57-.33-1.8.31-.28.83.72 1.5 1.59 1.05Zm35.69 0c.34-.17.55-.62.45-.99-.17-.68-1.42-.88-1.91-.32-.71.83.42 1.85 1.46 1.31Zm-24.16-3.87c-.23-.29-2.04-4.52-1.99-4.64.07-.19 1.59-.2 1.74-.01.06.07.31.63.55 1.25l.44 1.11.38-.94c.63-1.57.61-1.55 1.5-1.55.59 0 .77.03.81.15.07.17-1.71 4.39-1.94 4.61-.18.18-1.36.19-1.49.02Zm3.79.06c-.2-.09-.17-4.7.04-4.78.26-.1 2.1-.07 2.63.05 2.52.54 2 3.49-.61 3.49h-.47l-.03.62-.03.63-.7.02c-.38.01-.76-.01-.83-.03Zm4.7-.01-.22-.04.02-2.37.03-2.37.75-.03.75-.02.8 1.04.8 1.04.03-.99c.03-1.14.01-1.12 1.12-1.07l.65.03v4.7l-.59.09c-.73.12-.71.13-1.76-1.11l-.85-1.01-.03 1.01c-.03 1.21-.22 1.34-1.5 1.1Zm17.91-.15c-.61-.1-1.08-.35-1.43-.75l-.31-.35-3.79.03c-2.09.01-3.82 0-3.85-.03s-.08-.48-.12-1.02l-.06-.96h7.76l.44-.41c1.28-1.18 3.27-.89 3.99.58.77 1.57-.74 3.24-2.63 2.91Zm-43.01-.24c-.94-.47-1.4-1.44-1.12-2.37.5-1.7 2.92-2.17 4.19-.83l.35.36H15l-.06.88c-.03.48-.07.92-.09.98-.03.09-1.11.13-3.88.15l-3.84.04-.41.37c-.83.75-2.01.91-3 .42Zm18.09-.26c.12-.23.53-1.14.91-2.02.38-.89.72-1.67.75-1.73.04-.09-.07-.13-.38-.13-.8 0-.81.02-1.38 1.36-.6 1.39-.7 1.47-.99.71-.11-.3-.34-.88-.52-1.3l-.32-.77h-.59c-.73 0-.76-.18.32 2.25l.92 2.05h.53c.53 0 .54-.01.75-.42Zm3.61-.21.03-.62.75-.06c1.34-.1 1.9-.54 1.9-1.51 0-1-.66-1.38-2.52-1.46l-1.28-.05v4.28l.55.02.54.01zm4.51.54c.04-.01.07-.46.07-1 0-1.65-.01-1.65 1.3-.11 1.06 1.25 1.14 1.31 1.78 1.14.22-.06.22-.07.22-2.15V28.1h-1.2v1.15c0 .9-.03 1.15-.13 1.15-.08 0-.55-.52-1.06-1.15L30 28.1h-1.1v4.25l.47-.02c.27-.01.51-.02.56-.02Zm-23.77-.42c.19-.11.43-.32.55-.47l.21-.27 3.84-.03 3.84-.03v-.47c0-.26.03-.57.06-.69l.06-.23H7.04l-.35-.36c-1.35-1.4-3.7-.83-3.87.95-.14 1.52 1.9 2.5 3.34 1.6Zm42.3-.05c.57-.45.76-.77.81-1.31.17-1.84-2.47-2.66-3.86-1.19l-.35.36H37.5v.54c0 .94-.36.86 3.89.86h3.76l.27.34c.66.83 2.25 1.04 3.04.4Zm-44.21-.4c-1.34-.69-.42-2.59 1.04-2.15.87.26 1.22 1.28.64 1.83-.51.48-1.14.6-1.68.32Zm42.28.01c-.18-.08-.42-.29-.53-.47-.81-1.33 1.31-2.47 2.28-1.23.78.99-.52 2.24-1.75 1.7Zm-41.04-.3c.16-.08.34-.28.41-.45.37-.9-1.01-1.6-1.76-.89-.84.79.27 1.9 1.35 1.34Zm42.4-.11c.9-.76-.21-1.95-1.29-1.39-.5.26-.65.79-.34 1.23.34.49 1.15.57 1.63.16ZM25.4 29.66c0-.76.01-.78.7-.67 1.23.19 1.08 1.31-.17 1.31h-.53zm1.15-.01c0-.28-.03-.3-.43-.33l-.42-.03v.77l.42-.05c.4-.06.43-.08.43-.36Zm-19.29-2.6c-.21-.07-.54-.28-.73-.47-2.22-2.1 1.22-4.93 3.5-2.89l.5.46h4.62l-.03.85c-.01.47-.04.91-.07.98-.03.09-.59.12-2.33.12h-2.28l-.3.31c-.66.71-1.91.99-2.88.64Zm35.47-.1c-.29-.15-.64-.4-.77-.56l-.25-.29h-2.3c-1.26 0-2.32-.03-2.34-.07-.03-.05-.07-.48-.08-.98l-.04-.9 2.28.04 2.29.03.41-.4c1.83-1.79 5.03-.36 4.28 1.91-.41 1.22-2.22 1.86-3.48 1.22Zm-33.47-.24c.23-.1.54-.35.7-.55l.29-.36h4.52l.07-.37c.03-.21.06-.53.06-.7v-.33h-4.65l-.29-.36c-.79-.99-2.56-1-3.43-.01-1.34 1.53.76 3.58 2.73 2.68Zm35.59 0c.81-.36 1.25-1.15 1.12-1.97-.25-1.5-2.63-1.96-3.82-.74l-.39.4h-4.59l.07.46c.03.26.06.57.06.7v.24h4.55l.27.34c.57.71 1.84.98 2.73.57Zm-37.21-.55c-.93-.41-1.01-1.56-.14-2.05.68-.38 1.52-.2 1.9.41.61.98-.63 2.13-1.76 1.64Zm35.59-.07c-1.33-.66-.51-2.45.98-2.15 1.2.24 1.43 1.63.35 2.16-.53.25-.8.25-1.33-.01Zm-34.48-.25c.64-.3.71-1.09.12-1.44-.86-.53-2.02.16-1.67 1 .22.53.94.73 1.55.44Zm35.7 0c.92-.43.51-1.64-.55-1.64-1.05 0-1.47 1.2-.57 1.64.41.2.71.2 1.12 0ZM13.4 20.82c-1.07-.53-1.03-1.91.07-2.38.7-.3 1.68-.03 1.98.56.62 1.21-.78 2.46-2.05 1.82Zm23.9 0c-1.34-.67-.83-2.52.7-2.52 1.13 0 1.87 1.14 1.28 1.99-.45.66-1.28.89-1.98.53Zm-22.28-.49c.5-.5.39-1.27-.24-1.59-1.02-.53-2.27.44-1.77 1.37.34.65 1.46.77 2.01.22Zm23.58.22c1.12-.58.6-2.03-.68-1.93-.47.04-.6.1-.84.37-.83.92.37 2.16 1.52 1.56Zm-19.74-.12c-.03-.03-.06-.93-.06-1.98v-1.92l-.27-.14c-.67-.36-1.12-1.4-.93-2.19.52-2.18 4.04-2.28 4.66-.13.26.89-.25 2.15-.96 2.38-.18.06-.2.18-.22 1.77l-.03 1.72-.8.21c-1.22.33-1.32.35-1.39.28ZM32 20.21l-.95-.28-.03-1.7-.02-1.7-.27-.14c-1.45-.77-1.21-3 .38-3.69 2.45-1.05 4.72 2.11 2.58 3.59l-.38.26-.01.76c0 1.56-.13 3.19-.24 3.18-.06 0-.54-.13-1.06-.28Zm-11.71-.37.51-.15V18c0-1.22.03-1.7.12-1.7.23 0 .81-.54.99-.94.84-1.86-1.64-3.39-3.4-2.08-.98.73-.82 2.46.28 2.92l.31.12v3.8l.34-.06c.19-.04.57-.13.85-.22Zm12.62-.72c.01-.53.03-1.04.04-1.12s.03-.49.04-.9l.01-.75.37-.2c1.21-.65 1.08-2.47-.22-3.11-2.31-1.12-4.37 1.82-2.21 3.16l.36.22v3.26l.63.2c1.02.33.97.36.98-.76Zm-6.31-.43c-.19-.05-.65-.06-1.02-.03l-.68.06v-4.94l-.54-.51c-1.25-1.2-.82-3.02.83-3.51 2.57-.76 4.4 1.87 2.49 3.59l-.43.39-.05 2.5c-.03 1.54-.09 2.5-.15 2.52-.05.01-.26-.02-.45-.07Zm.73-5.44c1.61-1.16.77-3.31-1.27-3.3-2.16.01-2.98 2.46-1.15 3.41l.29.15v4.89l.53-.05c.28-.03.66-.02.82.03l.3.08.03-2.45.03-2.46zm-14.46 1.91c-.84-1.56-.84-1.57-.34-2.04.29-.27.24-.29 1.84.65 1.13.66 1.11.64.72 1.12l-.32.4-.36-.24c-.35-.24-.36-.24-.54-.06-.19.18-.18.19.12.62l.31.43-.27.28c-.36.38-.29.46-1.16-1.16Zm24.65.57-.6-.87.18-.26c.1-.14.59-.68 1.07-1.2l.89-.94.43.57c.23.32.51.73.63.93l.21.36-.25.24-.25.25-.28-.4c-.3-.45-.37-.48-.54-.27-.08.1-.06.23.12.54l.22.41-.22.22-.21.22-.24-.37c-.27-.42-.29-.42-.53-.16-.17.18-.16.21.14.59.33.42.33.6-.03.9-.12.1-.24-.03-.74-.76Zm-23.62.37c0-.06-.19-.45-.42-.86-.62-1.1-.7-1.25-.66-1.29.06-.06 1.24.51 1.6.77.3.21.31.21.45.03.17-.25.12-.3-1.07-.99l-.95-.55-.25.25c-.24.23-.24.25-.07.52.09.15.4.71.68 1.25q.69 1.305.69.87Zm24.1-.45c-.37-.54-.37-.54.04-.94l.35-.34.27.32c.32.38.45.34.15-.05-.28-.35-.27-.45.1-.8l.31-.29.33.4c.52.61.5.37-.02-.4l-.48-.68-.91.97-.91.98.46.68c.25.38.49.67.53.64s-.05-.25-.22-.49Zm-18.94-.16c-.83-.72-.43-1.86.71-2.05.84-.13 1.59.53 1.49 1.31-.12.98-1.43 1.42-2.2.74Zm12.36.17c-.77-.42-.8-1.61-.04-1.99 1.17-.6 2.44.28 1.98 1.37-.27.65-1.3.98-1.94.62Zm-10.69-.47c.43-.47.34-1.05-.23-1.34-.52-.27-1.26-.1-1.5.34-.53 1 .93 1.85 1.73 1Zm11.81.27c.66-.28.83-.84.41-1.34-.6-.72-1.85-.37-1.85.51 0 .73.7 1.14 1.44.83ZM14.6 12.98c-.47-.72-.86-1.35-.88-1.39s.16-.25.4-.47l.43-.4.53.45.52.45-.2-.52c-.12-.29-.25-.61-.3-.71-.08-.14-.02-.24.32-.53.59-.51.5-.57 1.52 1.06.83 1.34.81 1.27.41 1.61l-.34.28-.32-.5c-.17-.28-.33-.51-.35-.51-.03 0 .32.96.41 1.1.02.04-.09.2-.25.35-.32.31-.41.28-.92-.3-.26-.29-.22-.1.08.42l.27.45-.24.24-.24.24zm21.32.71-.34-.3.28-.42c.15-.23.47-.69.71-1.02l.44-.6-.26-.18c-.31-.23-.32-.38 0-.74l.24-.28.92.92.92.91-.32.41c-.31.39-.51.52-.51.32 0-.05-.05-.22-.11-.38l-.1-.28-.2.25c-.11.14-.43.58-.71.98-.6.83-.53.8-.96.41Zm-20.76-.72c-.67-1.22-.6-1.28.39-.35.89.83.99.72.57-.64-.47-1.49-.41-1.56.37-.43.74 1.06 1.2 1.06.52-.01-.22-.32-.55-.86-.76-1.18l-.37-.59-.24.25-.25.24.35 1.04c.19.57.33 1.06.3 1.09-.02.03-.36-.26-.73-.63l-.69-.69-.31.22c-.36.26-.39.19.57 1.64.78 1.17.91 1.19.28.04Zm21.79-.27c.78-1.13.75-1.11 1.09-.68.22.28.26.3.32.14.07-.19-1.32-1.7-1.48-1.6s-.08.31.17.44c.36.19.33.28-.44 1.37-.65.91-.69.99-.54 1.15.09.1.17.18.18.18s.33-.45.7-1Zm-11.5.11c-1.28-.59-.84-2.21.6-2.21 1.43 0 1.89 1.63.62 2.21-.52.23-.72.23-1.22 0Zm1.1-.25c.81-.34.73-1.42-.13-1.66-.75-.2-1.42.2-1.42.83 0 .75.76 1.16 1.55.83Zm7.8-.27c-.28-.23-.8-.62-1.17-.87-.38-.25-.68-.5-.68-.55 0-.12 1.06-2.43 1.26-2.74l.14-.22.38.21c.2.12.38.22.4.23.01.01-.22.53-.52 1.16l-.54 1.14.46.22c.33.16.46.28.44.4-.03.19.03.1.82-1.19.51-.84.5-.83 1.05-.4.28.23.34.07-.63 1.7-.92 1.52-.78 1.43-1.41.91Zm1.24-1.17c.64-1.05.69-1.18.54-1.29-.25-.19-.23-.21-.87.9-.33.56-.66 1.09-.73 1.19-.13.14-.12.18.04.27.29.17.28.17 1.02-1.07Zm-1.45.33c.04-.1-.08-.22-.37-.36-.23-.12-.44-.23-.46-.25-.03-.02.2-.56.49-1.2.52-1.13.55-1.33.19-1.34-.08 0-1.23 2.5-1.16 2.56.1.1 1.12.73 1.18.74.04 0 .09-.07.13-.15Zm-14.83-.67a32 32 0 0 0-.41-1.16c-.35-.99-.38-1.02-.65-.72-.26.28-.33.25-.46-.21-.15-.49-.13-.51 1.16-1.2.9-.47 1-.47 1.11.07.05.27.02.31-.29.42l-.35.13.39 1.16c.47 1.42.47 1.35.04 1.56-.45.21-.44.21-.54-.05Zm.53-.27c.05-.07-.46-1.8-.69-2.33-.05-.13.01-.21.29-.35.3-.14.5-.43.3-.43-.24 0-1.74.97-1.74 1.13 0 .17.02.17.31-.04.38-.27.36-.29.85 1.09.33.93.52 1.19.68.93Zm11.06-.33c-.41-.16-1.24-.43-1.84-.58-.59-.16-1.09-.3-1.11-.32s.27-1.79.5-3.05c.07-.38.09-.38 1.02-.17.92.2.97.24.89.67-.06.34-.08.35-.39.26-.56-.16-.69-.12-.65.18.02.22.1.29.36.34.42.09.43.1.36.48-.07.31-.07.32-.5.25-.36-.05-.44-.03-.44.09 0 .08-.03.22-.06.3-.04.11.08.18.45.27.32.07.51.18.53.28.02.09.21-.47.43-1.26.21-.78.43-1.42.47-1.42.23 0 .78.31.78.43 0 .11-.36 1.39-.64 2.24-.06.19-.02.22.44.28.27.04.5.12.5.17 0 .19-.23.88-.29.87-.03 0-.4-.14-.81-.31Zm.77-.25c.02-.06-.19-.16-.47-.23-.39-.09-.5-.16-.46-.29.76-2.6.73-2.47.47-2.54-.17-.04-.91 2.15-.91 2.7 0 .24 1.3.58 1.37.36ZM21.24 9.9c-.24-.1-.31-.28-.69-1.77-.32-1.28-.31-1.29.06-1.42.53-.18.55-.17.84 1.14.24 1.04.32 1.25.47 1.25.23 0 .23-.15-.04-1.56-.23-1.23-.21-1.31.26-1.36.35-.04.35-.03.62 1.89.14 1.02.15 1.25.04 1.38-.31.37-1.17.62-1.56.45Zm1.11-.44c.3-.19.3-.33.1-1.64-.19-1.19-.23-1.32-.39-1.32-.09 0-.06.29.11 1.12.32 1.61.29 1.78-.4 1.78-.22 0-.25-.08-.52-1.25-.27-1.19-.45-1.53-.61-1.12-.05.15.42 2.2.58 2.51.12.22.73.18 1.13-.08Zm.91-.08c-.07-.21-.38-3.29-.34-3.33.02-.02.23-.08.46-.13.47-.11.45-.13.91.73l.22.4-.05-.63c-.04-.59-.03-.62.2-.68.36-.09.54.02.54.34 0 .15.05.88.11 1.61.11 1.46.11 1.46-.44 1.54l-.39.06-.35-.75c-.41-.91-.43-.9-.31.04.11.82.13.77-.25.86-.18.04-.29.02-.31-.06Zm6.44-.02c0-.09-.15-.17-.38-.21-.61-.1-.64-.14-.51-.74l.11-.53.44.07c.54.08.59-.09.07-.22-.37-.09-.38-.1-.36-.53.03-.67.06-.7.53-.58.36.1.61.06.49-.07-.07-.07-1.3-.37-1.34-.33-.02.02-.14.68-.27 1.46l-.24 1.42.36.1c.33.08 1.02.27 1.08.29.01.01.02-.05.02-.13Zm-6.17-1.22c-.07-1.27.04-1.34.54-.33.57 1.15.59 1.18.83 1.12s.24-.17.03-2.31c-.09-.99-.19-.72-.16.46.04 1.24-.05 1.23-.63-.12-.28-.65-.34-.71-.62-.74-.37-.04-.37-.08-.22 1.36.2 1.91.34 2.24.23.56Zm3.3.94c-.05-.07-.18-.45-.29-.83l-.19-.7-.03.78-.03.77h-.69V5.69l.57.03.58.03.17.64c.23.86.28.87.28.02v-.72l.33.03.32.03-.02 1.4c-.04 2.01-.05 2.05-.52 2.05-.21 0-.43-.06-.48-.12Zm-.67-2.27c.08-.09.32.21.39.47.3 1.24.46 1.62.69 1.62.24 0 .24-.02.31-1.22.08-1.38.03-2.07-.08-1.13-.04.33-.11.83-.15 1.1l-.08.5-.16-.3c-.08-.17-.23-.64-.32-1.05-.18-.78-.26-.9-.64-.9-.22 0-.22.01-.2 1.53l.01 1.52.1-1.05c.05-.58.11-1.07.13-1.09Z"/></svg>