<svg xmlns="http://www.w3.org/2000/svg" width="51" height="51" viewBox="0 0 51 51"><path fill="#fff" fill-rule="evenodd" stroke="#fff" stroke-width=".763" d="m11.31 41.26-.22-.23.01-12.93c0-14.6-.07-13.34.8-13.77.7-.34 8.28-1.58 8.74-1.43s.5.2 5.31 6.21l4.2 5.26.05-6.36c.04-4.72.08-6.41.17-6.57.22-.38-.11-.31 8.7-1.79.26-.05.38 0 .65.24l.33.29v25.37l-.28.58c-.3.6-.51.77-1.23.96-.52.14-7.34 1.21-7.71 1.21-.52 0-.91-.38-2.74-2.67-2.32-2.9-7.2-8.93-7.22-8.93-.01 0-.02 2.87-.02 6.38 0 7.13.03 6.8-.69 7.06-.4.15-7.86 1.36-8.37 1.36-.14 0-.35-.11-.48-.24Zm2.19-.25c.69-.11 2.42-.39 3.85-.62 2.15-.34 2.97-.52 3.17-.72.02-.01.05-3.01.08-6.66.04-4.9.08-6.65.17-6.68.12-.04.82.8 5.71 6.92 1.67 2.09 3.26 4.02 3.54 4.29l.49.49.72-.06c.76-.05 6.14-.89 7.06-1.09.74-.16 1.12-.45 1.33-.98.16-.42.17-1.4.17-13 .01-13.65.04-13-.52-13-.63 0-8.43 1.42-8.57 1.55-.13.14-.16 1.02-.2 6.78-.04 5.04-.08 6.62-.17 6.62-.07 0-2.15-2.54-4.63-5.65-2.49-3.11-4.64-5.75-4.78-5.87-.37-.31-.47-.31-4.23.32-4.49.75-4.68.79-5.02 1.13l-.28.28v12.9c0 7.09 0 12.95.01 13.02 0 .16.38.31.65.27.11-.02.76-.13 1.45-.24Z"/></svg>