<svg xmlns="http://www.w3.org/2000/svg" width="51" height="51" viewBox="0 0 51 51"><path fill="#fff" fill-rule="evenodd" stroke="#fff" stroke-width=".707" d="M7.02 51C3.53 50.08.39 46.65.05 43.37c-.04-.43-.01-.36.2.43.98 3.64 3.46 6.12 7.1 7.09.74.2.98.3.75.3-.19 0-.68-.09-1.08-.19Zm36.18.08c2.01-.56 2.75-.87 3.7-1.51 2.13-1.44 3.52-3.54 4.15-6.27l.15-.65-.05.6c-.29 3.32-3.48 6.85-7.01 7.75-.81.21-1.64.28-.94.08Zm-3.95-9.93c-1.06-.19-2.93-.73-4.46-1.3-3.2-1.19-5.19-1.26-9.24-.32-3.77.86-6 .43-7.97-1.56l-.78-.78-5.12.01C.8 37.22 0 37.21 0 37.05c0-.13 2.91-.15 25.6-.15s25.6.02 25.6.15-1.96.15-17 .15c-9.7 0-17 .04-17 .09s.31.38.7.74c1.76 1.67 4.22 2.14 7.21 1.4 1.86-.47 2.88-.63 4.39-.7 2.16-.09 2.82.03 6 1.17 4.52 1.61 6.61 1.59 9.93-.07 1.76-.88 5.77-1.94 5.77-1.53 0 .05-.17.12-.37.15-2.42.36-3.48.68-5.53 1.65-2.35 1.12-4.02 1.41-6.05 1.05ZM0 35.4v-.9h25.6c22.69 0 25.6.02 25.6.15s-2.91.15-25.55.15H.1V36l2.68.01c1.47 0 12.96 0 25.55-.01 20.68-.01 22.87 0 22.87.14 0 .15-2.45.16-25.6.16H0zm.06-11.69c-.03-.04.83-.11 1.92-.14 2.43-.08 2.99-.19 5.04-1.01 5.8-2.31 10.88-2.62 16.28-.98 6.66 2.02 11.02 1.63 14.5-1.28 1.79-1.51 4.32-2.53 7.65-3.08l1.1-.19-2.89-.06c-1.59-.04-12.07-.07-23.28-.07C8.64 16.9 0 16.86 0 16.81c0-.18 7.11-.23 25.95-.17 10.73.03 20.79.06 22.38.06 2.48 0 2.87.02 2.87.15s-.23.15-1.45.15c-4.32 0-9.39 1.4-11.51 3.18-2.23 1.87-3.84 2.56-6.57 2.81-1.87.18-5.17-.27-7.87-1.06-3.36-1-4.34-1.16-6.95-1.17-3.3-.01-6.81.71-9.89 2.03-1.33.57-2.07.77-3.36.91-1.17.12-3.47.13-3.54.01ZM0 14.95v-.85l3.12-.01c1.72 0 10.8-.03 20.18-.05 17.37-.05 27.9.01 27.9.17 0 .05-10.89.09-25.55.09H.1v1.3h25.55c16.97 0 25.55.03 25.55.1s-8.6.1-25.6.1H0zm24.5-2.51c-4.27-1.13-5.75-6.5-2.64-9.59 3.5-3.49 9.41-1.24 9.71 3.7.23 3.83-3.41 6.86-7.07 5.89Zm3.21-.33c4.24-1.63 5.02-7.32 1.34-9.76-5.33-3.53-11.28 2.88-7.45 8.01 1.29 1.72 4.1 2.52 6.11 1.75ZM51.07 8c-.63-3.61-3.29-6.59-6.79-7.61-.53-.15-1.17-.23-2.33-.28l-1.6-.08 1.56-.01c3.29-.04 5.9 1.34 7.78 4.1.76 1.12 1.58 3.34 1.49 4.05-.03.23-.05.19-.11-.17ZM.01 8.05c-.02-.55.39-1.78.94-2.9C2.1 2.82 4.07 1.14 6.65.29c.69-.23.74-.24 5.9-.24l5.2-.01-5 .06c-4.29.05-5.08.08-5.6.23C3.61 1.34 1.09 3.97.2 7.6c-.12.47-.19.64-.19.45Z"/></svg>