<svg xmlns="http://www.w3.org/2000/svg" width="51" height="51" viewBox="0 0 51 51"><path fill="#fff" fill-rule="evenodd" stroke="#fff" stroke-width=".711" d="M24.79 42.41c-1.47-.2-2.78-.84-3.84-1.86-.93-.9-1.24-1.46-2.38-4.25-.57-1.4-1.63-3.97-2.35-5.7-.71-1.73-2.01-4.86-2.87-6.95s-2.18-5.22-2.92-6.95C8.87 13.08 8.86 13.06 9 12.64c.27-.8.9-.86 2.38-.23 1.77.75 2.28 1.28 2.77 2.88.04.13.1.19.14.13.03-.05.2.24.38.66.5 1.2 5.31 13.41 6.7 17.02.69 1.79 1.29 3.31 1.35 3.38.19.23.77.14 1.07-.15.28-.28.35-.46 1.4-3.28 1.29-3.5 6.91-18.16 7.09-18.52.81-1.57 1.98-2.09 5.35-2.38 2.57-.23 4.08-.18 4.39.13.5.5.77-.24-4.77 12.97-2.87 6.84-4.14 9.88-4.94 11.79-.89 2.13-1.18 2.62-2.11 3.56-1.39 1.4-3.42 2.08-5.41 1.81Zm2.95-.59c2.34-.81 2.99-1.66 5.1-6.74 2.02-4.82 4.37-10.44 5.16-12.33 4.2-9.97 4.19-9.95 3.79-10.31-.51-.46-6.42.01-7.6.62-1.46.74-1.29.36-5.31 11.04-.38 1.02-1.33 3.49-2.1 5.5s-1.6 4.2-1.84 4.87c-.71 2.01-.92 2.29-1.72 2.4-.84.11-.77.24-3.58-6.92-5.09-13-6.1-15.54-6.41-16.08-.22-.36-.59-.6-1.88-1.16-1.27-.56-1.57-.6-1.91-.26-.38.38-.34.51 1.09 3.82 1.75 4.04 1.93 4.47 7.42 17.83 2.03 4.96 2.1 5.08 2.85 5.92 1.72 1.92 4.51 2.64 6.94 1.8Z"/></svg>