<svg xmlns="http://www.w3.org/2000/svg" width="51" height="51" viewBox="0 0 51 51"><path fill="#fff" fill-rule="evenodd" stroke="#fff" stroke-width=".757" d="M22.4 35.24c-8.41-2.45-7.95-2.3-8.44-2.84-.58-.64-.58-.63-.54-6.65.03-5.24.04-5.52.22-5.8.52-.79.81-.77 4.89.41 1.82.53 3.76 1.08 4.29 1.23 1.89.54 2.11.86 2.16 3.03l.03 1.48h-1.44c-1.55 0-1.77.07-1.77.57 0 .44.27.52 1.75.55l1.4.03.03 3.65c.03 3.2.01 3.69-.13 3.96-.36.68-1.05.79-2.45.38Zm4.12.01c-.52-.43-.53-.52-.5-4.4l.03-3.6 1.41-.05c1.51-.05 1.74-.13 1.74-.56 0-.48-.2-.54-1.76-.54H26v-1.43c0-1.91.32-2.54 1.44-2.86.17-.05 2.13-.61 4.36-1.26 4.19-1.21 4.75-1.32 5.22-1.01.58.38.59.47.56 6.56l-.03 5.55-.28.47c-.43.73-.76.86-5.36 2.17-4.55 1.3-4.91 1.36-5.39.96Zm-2.02-.3c.13-.13.16-.69.2-3.8l.05-3.65-.4-.01c-.22-.01-.84-.02-1.39-.03-1.15-.02-1.54-.27-1.42-.9.13-.67.44-.79 1.88-.74l1.28.05v-1.26c0-1.41-.16-1.95-.65-2.27-.29-.19-7.92-2.44-8.95-2.65-.75-.15-1.05-.04-1.26.46-.18.43-.21 11.04-.03 11.52.31.82.57.95 3.95 1.94 6.31 1.84 6.25 1.83 6.74 1.34Zm7.26-.91c4.73-1.35 4.98-1.45 5.33-2.16.28-.58.34-11.25.06-11.77-.36-.7-.44-.7-4.74.54-6.59 1.9-6.11 1.59-6.11 3.92v1.31l1.36-.01 1.36-.02.24.28c.53.61.13 1.27-.78 1.27-.29 0-.9.03-1.36.07l-.82.06v3.52c0 3.86.01 3.9.64 4.15.33.14.2.17 4.82-1.16Zm-8.61.69c-1.01-.25-8.15-2.38-8.37-2.49-.7-.36-.68-.18-.68-6.21 0-5.62.02-5.88.42-5.98.35-.09 9.08 2.42 9.38 2.7.32.29.41.67.38 1.71l-.03.99-.5-.03c-1.65-.1-2.45.21-2.6 1.02-.19.97.38 1.36 2 1.36h1.15v3.34c0 3.91.01 3.88-1.15 3.59Zm3.69-.14c-.24-.27-.29-1.29-.19-4.47l.07-2.32h1.15c1.56 0 1.99-.26 1.97-1.21-.03-.89-.55-1.19-2.08-1.19h-1.04l-.07-.64c-.04-.35-.04-.87 0-1.14.12-.9.07-.88 5.12-2.33 5.01-1.44 4.66-1.36 4.93-1.09.31.31.31 11.07 0 11.58-.29.47-.54.56-5.11 1.86-4.36 1.25-4.46 1.27-4.75.95Zm-2.94-.09c.15-.09.27-5.89.13-6.26-.04-.11-.28-.14-1.05-.14-1.5 0-2.12-.43-2.1-1.46.01-1.05.57-1.44 2.06-1.44h1.04l.07-.58c.07-.67-.06-1.38-.32-1.63-.1-.09-1.12-.45-2.28-.79-5.4-1.56-6.73-1.93-6.89-1.87-.28.11-.24 11.04.04 11.4.25.32.7.47 5.4 1.82 4.13 1.18 3.7 1.08 3.9.95Zm7.75-1.15c2.25-.64 4.22-1.23 4.37-1.31.6-.31.58-.09.56-6.15l-.03-5.54-.3.01c-.27 0-8.1 2.2-8.78 2.46-.44.17-.58.56-.55 1.51l.03.82 1.09.02c1.54.04 2.08.39 2.09 1.4.02 1.11-.56 1.53-2.09 1.53h-1.01l-.07.61c-.03.34-.06 1.73-.06 3.1 0 2.62.05 2.88.49 2.75.09-.03 2-.58 4.26-1.21ZM21.52 19.83c-4.01-1.39-4.74-1.74-2.85-1.39 1.13.21 3.04.46 3.49.46.53 0 .55-.22.13-1.27-.19-.47-.06-.5.48-.1 1.68 1.22 2 1.05 2.56-1.31.15-.63.29-.68.4-.15.34 1.52.68 2.23 1.08 2.23.23 0 1.25-.54 1.71-.91.47-.37.54-.25.23.45-.38.86-.35 1.06.18 1.06.38 0 3.25-.4 4.03-.56.34-.07.55.1.26.21-.91.36-7.56 2.65-7.68 2.64-.05 0-1.86-.61-4.02-1.36Zm6.6.23c2.46-.84 3.36-1.19 2.88-1.11-.45.08-1.94.25-2.22.25-.54 0-.71-.5-.42-1.25.07-.19.06-.19-.12-.03-.26.22-1.24.68-1.48.68-.35 0-.83-.64-1.02-1.39l-.18-.7-.22.77c-.38 1.31-.82 1.54-1.87 1-.34-.18-.65-.34-.69-.36-.03-.02-.02.13.04.32.27.85-.13 1.04-1.74.83-.62-.07-1.14-.13-1.16-.12-.04.03 5.43 1.93 5.6 1.94.09.01 1.26-.37 2.6-.83Z"/></svg>