<svg xmlns="http://www.w3.org/2000/svg" width="51" height="51" viewBox="0 0 51 51"><path fill="#fff" fill-rule="evenodd" stroke="#fff" stroke-width=".785" d="M21.09 39.49c-1.62-1.39-3.34-2.88-3.84-3.32l-.9-.79-.06-.97c-.04-.53-.07-1.35-.08-1.83l-.01-.87 2.42-1.99c1.34-1.1 2.83-2.34 3.32-2.76.48-.42.92-.76.97-.76s.1 1.26.11 2.8l.03 2.8 2.05-1.68 2.05-1.67.03-2.62.02-2.61 2.38-2c1.3-1.09 3.12-2.63 4.05-3.41.92-.77 1.72-1.41 1.77-1.41.07 0 .1 2.76.1 8.04v8.05l-4.42 3.68c-2.44 2.03-4.95 4.11-5.58 4.63-.63.51-1.22 1-1.31 1.07-.15.12-.51-.15-3.1-2.38Zm5.26-.09c4.3-3.55 8.35-6.93 8.43-7.03.12-.15.24-14.57.13-14.76-.07-.1-.65.34-2.37 1.81-1.26 1.06-2.84 2.4-3.51 2.96l-1.23 1.03-.01.92c-.03 3.43-.09 4.31-.32 4.54-.52.5-4.82 3.93-4.94 3.93-.1 0-.13-.58-.13-2.75v-2.76l-1.72 1.42c-.95.78-2.21 1.83-2.8 2.32l-1.08.9v3.14l.62.54c.34.3 1.97 1.7 3.62 3.12l2.99 2.57.46-.37c.25-.2 1.09-.89 1.86-1.53ZM27 21.23c0-.05.09-1 .2-2.13s.2-2.13.2-2.22c0-.17-.19-.18-2.54-.18h-2.54l-3.91-2.92c-2.15-1.61-3.91-2.98-3.91-3.04 0-.08 1.92-.13 6.58-.18 3.61-.03 8.24-.09 10.29-.13l3.72-.06.05.24c.03.13.07 1.12.1 2.2l.06 1.95-3.63 2.94c-1.99 1.62-3.8 3.09-4.03 3.27-.39.32-.64.41-.64.26Zm4.48-3.63L35 14.75v-4.18l-5.22.06c-2.88.04-7.42.1-10.1.14l-4.88.06 3.62 2.71c1.98 1.49 3.7 2.77 3.82 2.83.15.09.92.13 2.79.13h2.57v.32c0 .41-.28 3.41-.36 3.87l-.05.34.39-.29c.21-.16 1.97-1.57 3.9-3.14Z"/></svg>