<svg xmlns="http://www.w3.org/2000/svg" width="51" height="51" viewBox="0 0 51 51"><path fill="#fff" fill-rule="evenodd" stroke="#fff" stroke-width=".459" d="M24.74 42.55c-1.79-.39-2.6-1.8-1.88-3.24.51-1.02 1.42-1.36 3.63-1.34l1.43.01-.06-.51c-.15-1.06-.78-1.57-1.99-1.57-.71 0-1.56.26-2 .6-.37.29-.54.25-.77-.2-.27-.54-.27-.56.28-.91 1.43-.91 3.69-.94 4.84-.06.97.74 1.06 1.2 1.01 5.3l-.03 1.88-.62-.03-.63-.03.01-.33c.02-.38.01-.39-.4-.07-.69.53-1.82.73-2.82.5Zm7.84.02c-1.41-.4-1.58-.85-1.58-4.1v-2.56l-.62-.03-.63-.03v-1.1l.62-.03.62-.03.03-.77.03-.77.59-.03c.72-.04.76.01.76.9v.67l1.08.03 1.07.03.03.58.03.57H32.4v4.98l.31.26c.36.31.98.35 1.56.11.45-.19.4-.2.56.13.34.66.33.7-.25.97-.67.3-1.4.38-2 .22Zm5.82.02c-2.04-.34-3.35-1.92-3.35-4.04.01-2.44 1.6-3.95 4.04-3.83 2.16.11 3.93 2.11 3.57 4.03l-.07.35H39.5c-3.48 0-3.28-.05-2.95.74.58 1.38 2.34 1.98 3.85 1.3.32-.14.67-.35.76-.45.24-.26.35-.24.74.16l.34.35-.38.39c-.47.48-1.22.86-2 1-.67.12-.69.12-1.46 0ZM8.8 38.66v-3.84l.23-.06c.71-.19 1.07-.02 1.07.51v.33l.42-.3c1.25-.91 3.4-.79 4.44.25l.43.43.38-.35c1.34-1.27 3.95-1.22 5.08.1.59.69.65 1.06.65 4.09v2.68h-1.29l-.03-2.69-.03-2.69-.3-.43c-.94-1.32-3-1.13-3.78.35-.2.38-.21.59-.25 2.94l-.04 2.52H14.5v-2.49c0-1.59-.04-2.6-.11-2.82-.53-1.57-2.6-1.9-3.71-.59-.51.59-.58 1.04-.58 3.65v2.25H8.8zm18.16 3.41c.27-.14.6-.37.73-.51.36-.39.51-.34.51.18 0 .42.02.45.31.51.47.11.49.02.49-2.61 0-3.19-.18-3.77-1.34-4.34-1.21-.58-3.72-.32-4.36.45-.11.13.07.69.19.62 2.53-1.4 4.61-.81 4.61 1.3v.58h-1.57c-2.65 0-3.63.55-3.63 2.06 0 1.66 2.29 2.66 4.06 1.76Zm7.29.12c.59-.22.62-.26.42-.54-.12-.16-.18-.16-.47-.07-.8.28-1.63.04-1.95-.57-.13-.26-.15-.7-.13-2.83l.03-2.53 1.06-.03 1.07-.03.04-.29.05-.3H32.1v-1.6h-.79l-.03.78-.03.77-.63.03c-.61.03-.62.03-.62.32s.01.29.62.32l.63.03.05 2.8c.05 3.03.06 3.06.63 3.48.67.51 1.43.59 2.32.26Zm6.42-.14c.52-.23 1.14-.7 1.13-.84-.02-.38-.3-.42-.73-.12-1.17.85-3 .79-4.04-.12-.4-.35-.93-1.37-.93-1.79v-.28l3.13-.02 3.12-.03.03-.43c.19-2.57-2.87-4.3-5.31-3s-2.41 4.98.05 6.42c1.06.62 2.48.7 3.55.21ZM9.82 39.88c.03-2.41.03-2.43.3-2.94 1.12-2.12 4.15-1.82 4.58.45.05.3.1 1.52.1 2.73v2.19l.38-.03.37-.03.05-2.5c.06-2.81.08-2.94.78-3.57 1.09-.98 2.82-.83 3.64.32.42.58.49 1.13.47 3.55l-.02 2.2h.78v-2.6c0-2.27-.02-2.66-.18-3.07-.72-1.86-3.75-2.19-5.29-.56l-.47.49-.15-.28c-.8-1.54-3.46-1.74-4.83-.37l-.53.53V35h-.7v7.3h.68zM25 41.71c-1.51-.49-1.8-2-.5-2.64.41-.2.6-.22 2-.22h1.55l.03.67c.04 1.02-.35 1.66-1.28 2.04-.42.18-1.45.27-1.8.15Zm1.85-.48c.69-.35 1.04-.94 1.05-1.75v-.38h-1.32c-1.48 0-1.93.09-2.31.44-1.22 1.13.93 2.53 2.58 1.69Zm9.25-3.3c0-.46.44-1.27.9-1.66 1.61-1.37 4.24-.51 4.56 1.5l.07.43H36.1zm5.2-.08c0-.29-.31-.9-.63-1.24-1.14-1.19-3.32-.87-4.08.61-.42.81-.51.78 2.26.78 2.13 0 2.45-.02 2.45-.15Zm-29.7-7.41c-.86-.23-1.36-.51-1.84-1.05-.8-.89-.8-.9-.84-5.46l-.03-4.03h-.67c-.99 0-.97.03-.95-1.52.03-1.56.04-1.58 1-1.58h.63v-1.44c0-1.82-.14-1.7 1.95-1.74 2.08-.04 1.95-.16 1.95 1.73v1.43l1.23.04c.67.02 1.28.07 1.35.11.17.11.17 2.68 0 2.85q-.12.12-1.35.12H12.8v3.35c0 3.6.02 3.74.52 4.09.29.2 1.2.21 1.57.01.26-.13.3-.13.44.03.25.28 1.07 2.04 1.07 2.29 0 .71-3.16 1.21-4.8.77Zm7.02.09c-.09-.04-.12-1.49-.12-6.79V17l.26-.1c.45-.18 3.3-.13 3.48.06.19.19.25 13.09.06 13.45-.1.18-.22.19-1.83.18-.95 0-1.78-.03-1.85-.06Zm9.34-.45c-.13-.29-.53-1.16-.89-1.93-1.84-3.98-3.28-7.36-3.25-7.62.05-.49.32-.38 1.4.57 2.98 2.63 4.59 4.02 4.63 3.98.05-.05 1.13-2.86 2.21-5.73 1.02-2.72.83-2.55 2.83-2.55 1.68 0 2.11.08 2.11.38 0 .27-4.13 11.48-4.74 12.86l-.25.56h-3.82zm10.74.32c-.17-.31-.09-13.25.08-13.42s3.21-.24 3.51-.08c.29.15.33 13.53.05 13.64-.09.03-.92.06-1.84.06-1.58 0-1.7-.01-1.8-.2Zm-24.55-.1c1.07-.16 1.95-.47 1.95-.71 0-.11-.21-.6-.46-1.1-.41-.82-.47-.9-.67-.84-1.01.35-1.93.07-2.27-.68-.23-.49-.31-6.78-.1-7.18.1-.17.22-.19 1.35-.19h1.24l.06-.42c.03-.24.05-.79.03-1.23l-.03-.8-1.35-.05-1.35-.05-.03-1.57-.03-1.58H9.21l-.03 1.58-.03 1.57-.8.05-.8.05-.03 1.23-.03 1.22h.74c.43 0 .78.05.85.12.09.09.12 1.11.12 3.98 0 2.91.03 3.98.13 4.38.33 1.26 1.33 1.99 3.07 2.22.8.11.97.11 1.75 0ZM32 29.95c.53-1.24 4.7-12.52 4.7-12.72 0-.19-3.33-.19-3.49 0-.06.08-.67 1.62-1.35 3.43-1.53 4.07-1.74 4.6-1.91 4.74-.1.08-.31-.05-.91-.57-.82-.72-3.01-2.64-4.22-3.71-.4-.36-.74-.63-.77-.6-.06.05 1.02 2.52 2.7 6.23l1.47 3.23.19.42h3.4zm-9.9-6.25v-6.6h-3.3v13.2h3.3zm20.1 0v-6.6l-1.62.02-1.63.03-.03 6.58-.02 6.57h3.3zm-22.3-8.39c-1.11-.35-1.67-1.16-1.58-2.27.17-2.08 3.03-2.59 4-.7.76 1.48-.86 3.47-2.42 2.97Zm20.09-.05c-2.02-.72-1.9-3.58.18-4.07 1.02-.24 2.26.51 2.53 1.51.42 1.56-1.21 3.1-2.71 2.56Zm-18.57-.51c.96-.63 1.12-1.84.37-2.69-1.13-1.29-3.19-.49-3.19 1.24 0 1.45 1.58 2.27 2.82 1.45Zm19.86.2c1.31-.55 1.62-2.12.59-3.02-.95-.83-2.33-.59-2.86.49-.74 1.53.73 3.17 2.27 2.53Z"/></svg>