<svg xmlns="http://www.w3.org/2000/svg" width="51" height="51" viewBox="0 0 51 51"><path fill="#fff" fill-rule="evenodd" stroke="#fff" stroke-width=".378" d="M41.87 44.91c-.5-.15-.47.62-.47-11.98V21.29l.25-.24.24-.25h6.6l.2.26c.3.38.33 23.27.04 23.63-.18.2-.27.21-3.46.23-1.8.02-3.33.01-3.4-.01Zm6.57-.27c.26-.1.24-23.41-.01-23.52-.2-.08-6.35-.07-6.56.01-.18.07-.35 23.04-.17 23.37.11.2 6.24.33 6.74.14Zm-4.24-.66c0-.07.12-.25.28-.41l.27-.29-.37.07c-1.04.19-2.06-1.13-1.52-1.95.25-.37 2.17-2.3 2.29-2.3.11 0 1.89 1.78 2.23 2.24.66.88-.31 2.25-1.4 1.98l-.4-.11.31.33c.49.51.43.56-.69.56-.71 0-1-.03-1-.12Zm1.31-.44c-.18-.23-.29-.74-.16-.74.02 0 .2.07.39.16.63.3 1.49-.11 1.58-.75.06-.47-1.73-.85-2.94-.62-1.42.28-1.62.43-1.22.99.35.51.93.63 1.53.32.57-.28.62.11.09.68l-.21.22h1.14zm-11.82-1.51-.21-.28.06-10.3c.07-10.23.07-10.3.28-10.48.34-.29 6.64-.26 7.02.04l.26.2v20.6l-.25.24-.24.25h-6.7zm7.09-10.42c.01-7.13-.01-10.38-.08-10.45-.16-.16-6.57-.11-6.76.05-.15.12-.22 20.57-.07 20.72.04.04 1.6.06 3.47.05l3.41-.03zm3.04 9.83c.79-.21 2.16-.21 2.83 0 .72.22.69.15-.45-.99l-1.05-1.05-1.02 1.02c-.91.91-1.14 1.18-.99 1.18.02 0 .33-.07.68-.16Zm-7.71-1.09c-1.44-1.48-1.75-2.2-1.31-3.1.37-.77 1.37-1.01 2.13-.49l.38.25.29-.25c1.37-1.14 2.83.48 1.97 2.19-.21.43-2.13 2.45-2.32 2.45-.07 0-.58-.47-1.14-1.05Zm2.32-.4c1.23-1.27 1.5-2.24.83-2.91-.52-.52-1.22-.46-1.73.14l-.21.25-.36-.31c-1.21-1.06-2.57.16-1.85 1.66.12.24.64.87 1.15 1.4l.93.97.28-.25c.15-.14.58-.56.96-.95Zm-12.56-.43c-.16-.17-.17-.96-.17-9.25v-9.06l.26-.2c.41-.32 6.72-.33 7.04-.01.3.3.32 18.26.02 18.53s-6.91.25-7.15-.01Zm6.98-.18c.17-.17.12-17.98-.05-18.17-.1-.11-6.62-.09-6.72.01-.08.09-.23 17.6-.14 17.95.08.35.02.35 3.58.36 2.78.01 3.19-.01 3.33-.15Zm-4.35-.56c0-.07.11-.23.24-.37l.25-.26h-.59c-.63 0-.96-.2-1.26-.77-.35-.67-.06-1.22 1.36-2.63l.91-.9 1.26 1.27 1.26 1.27-.05.52c-.08.79-.57 1.24-1.38 1.24h-.59l.3.3c.42.44.4.45-.71.45-.71 0-1-.03-1-.12Zm1.33-.4c-.47-.53-.34-.8.27-.53.52.24 1.17-.03 1.44-.6.21-.44.19-.46-.64-.72-1.22-.39-3.6-.04-3.6.52 0 .63.87 1.02 1.67.73.45-.16.52-.04.25.43l-.23.39h1.04zm15.47-.63v-.34l-.72-.03-.73-.03-.02-.45c-.03-.61 1.42-2.45 1.93-2.45h.29l.03 1.03c.03 1.02.03 1.02.28 1.02.36 0 .33.83-.03.88-.19.03-.23.1-.23.38 0 .33-.01.34-.4.34s-.4-.01-.4-.35Zm.58-.28c.03-.29.07-.37.23-.37.28 0 .25-.38-.03-.42-.22-.03-.23-.08-.24-.96-.02-1.32-.02-1.32-1.15.09-.9 1.13-.89 1.29.1 1.29h.68l.07.41c.08.5.3.48.34-.04Zm-27.68-.4-.25-.13-.03-7.89-.02-7.9.21-.17c.34-.29 6.66-.27 7 .01l.24.19-.03 7.84c-.03 6.71-.06 7.85-.18 7.98-.2.21-6.55.27-6.94.07Zm6.78-.29c.15-.15.17-15.34.03-15.57-.12-.18-6.56-.18-6.78.01-.18.15-.19 15.38-.01 15.56.17.17 6.59.17 6.76 0Zm19.38-.06c-.06-.1.68-1.16.97-1.4.21-.18.29.11.25.89l-.03.54-.57.03c-.31.02-.59-.01-.62-.06Zm-16.11-.48c.85-.2 2.01-.18 2.74.05.34.1.61.16.61.14 0-.11-2.04-2.13-2.15-2.13-.1 0-1.77 1.65-2.06 2.04-.13.18-.12.19.06.12.11-.04.47-.14.8-.22Zm-7.88-1.15c-.6-.65-1.07-1.23-1.05-1.29.05-.14 2.12-2.59 2.2-2.59.04-.01.59.58 1.23 1.3l1.16 1.31-.32.36c-.83.95-1.96 2.12-2.05 2.11-.05 0-.58-.54-1.17-1.2Zm2.74-1.16c-.91-.39-2.07-.39-3.04 0l-.29.12.88.99.88.98.92-.99.92-.98zm15.23 1.77c-.17-.18-.24-.19-.53-.09-1.89.66-3.23-2.45-1.53-3.58 1.64-1.08 3.54.77 2.67 2.61-.16.34-.16.38-.01.55.4.44-.17.93-.6.51Zm.27-.47-.2-.25.22-.3c1.02-1.37-.84-3.43-2.2-2.42-1.56 1.16-.23 3.82 1.52 3.02.22-.1.29-.09.47.1.29.28.43.17.19-.15Zm-1.57-.24c-1.28-.37-1.09-2.59.23-2.59.57 0 .88.21 1.09.76.26.7-.04 1.66-.46 1.44-.31-.16-.42-.12-.28.1.11.17.1.22-.02.3-.17.11-.15.11-.56-.01Zm.29-.44c-.05-.26.32-.45.58-.3.4.25.4-.96 0-1.36-.8-.79-1.8.14-1.4 1.3.17.5.9.83.82.36ZM10.2 34.3c-.2-.2-.2-.33-.2-6.64v-6.45l.26-.2c.26-.2.38-.21 3.56-.21h3.29l.24.25.25.24v12.78l-.23.21c-.35.33-6.84.35-7.17.02Zm7.07-6.55c.02-3.64-.01-6.46-.06-6.54-.11-.16-6.69-.17-6.85-.01-.09.09-.19 12.28-.1 12.73l.06.27 3.46-.02 3.47-.03zm24.57 6.22c-.02-.07-.03-.62-.02-1.23l.03-1.09h6.6v2.4l-3.28.03c-2.65.02-3.28 0-3.33-.11Zm6.36-1.12v-.95h-6.1v1.9h6.1zm-27.32.58c.72-.17 1.57-.08 2.37.23.16.06.13 0-.12-.32-.49-.63-1.6-1.8-1.65-1.74-.02.03-.44.52-.93 1.09-.69.81-.83 1.03-.65.97.14-.04.58-.14.98-.23Zm-8.08.1c0-.04.12-.19.26-.34l.27-.28-.54.05c-1.57.15-2.08-2.13-.55-2.41.3-.06.31-.08.31-.55 0-.9.81-1.56 1.58-1.29.57.2.82.58.82 1.25 0 .39.04.54.13.54.51 0 1.19.89 1.08 1.42-.14.71-.8 1.16-1.52 1.05l-.35-.06.21.29c.29.4.29.4-.75.4-.52 0-.95-.03-.95-.07Zm1.32-.41c-.18-.24-.27-.53-.23-.74 0-.04.16.01.34.12.48.3 1.02.26 1.38-.09.71-.72.04-1.15-1.81-1.16-1.97 0-2.66.41-1.91 1.16.36.35.9.39 1.39.09.41-.25.42-.25.42.07 0 .16-.11.39-.27.55l-.27.28h1.15zm13.75-.38c-.04-.04-.07-.85-.07-1.81V29.2h1v.55c0 .3.02.55.05.55.02 0 .3-.25.61-.55.53-.51.6-.55 1.06-.55.61 0 .61.02-.13.76l-.61.62.67.98c.89 1.3.88 1.24.22 1.24h-.54l-.5-.75c-.58-.89-.79-.85-.85.15l-.03.55-.4.03c-.23.02-.44 0-.48-.04Zm2.87-.26c-.04-.07-.34-.53-.66-1.01l-.59-.88.46-.54c.26-.29.52-.56.58-.59.07-.02.01-.05-.12-.05-.16-.01-.47.22-1 .74-.94.91-.91.91-.91.05 0-.63-.02-.7-.2-.7-.19 0-.2.07-.2 1.5s.01 1.5.2 1.5c.17 0 .2-.07.2-.48 0-.42.05-.53.34-.81l.34-.33.58.86c.45.68.62.86.81.86.17 0 .22-.04.17-.12Zm-28.36-.69c-.28-.16-.27-10.57 0-10.82.3-.27 6.91-.25 7.15.01.27.3.26 10.51-.01 10.75-.22.2-6.81.25-7.14.06Zm6.86-.15c.24-.09.24-10.49 0-10.58-.26-.1-6.31-.07-6.58.04l-.26.1v5.13c0 3.86.03 5.16.12 5.25.13.13 6.4.18 6.72.06ZM34 30.25V29l3.33.02 3.32.03v2.4l-3.32.03-3.33.02zm7.87 1.18c-.04-.03-.07-.6-.07-1.25V29h6.71l-.03 1.23-.03 1.22-3.26.03c-1.79.01-3.28-.01-3.32-.05Zm-28.12-.46c.78 0 1.23.05 1.54.17.24.09.46.15.48.13.1-.1-.43-.42-.8-.47-.3-.04-.41-.1-.38-.2.26-.86 0-1.54-.63-1.66-.73-.13-1.21.43-1.14 1.33l.03.48-.36.03a.93.93 0 0 0-.59.27l-.22.24.48-.16c.32-.1.87-.16 1.59-.16Zm26.65-.77v-1h-6.2v2h6.2zm7.8 0v-1h-6.1v2h6.1zm-43.47-.24c-1.01-1.06-1.3-1.49-1.4-2.11-.23-1.43 1.22-2.37 2.28-1.48l.3.26.22-.21c1.34-1.25 2.97.34 2.11 2.06-.3.61-2.08 2.52-2.34 2.52-.1 0-.63-.47-1.17-1.04Zm2.19-.24c.98-1.03 1.23-1.42 1.33-2.08.17-1.15-1.07-1.78-1.95-.98l-.4.36-.28-.3c-1.07-1.15-2.6.26-1.86 1.71.16.31 2.01 2.27 2.15 2.27.03 0 .49-.44 1.01-.98Zm13.96.62c-.28-.15-.58-.61-.58-.89 0-.21.54-.2.91.02.22.13.34.15.46.07.35-.22.26-.34-.24-.34-1.62 0-1.67-2.42-.06-2.57 1.02-.1 1.58.52 1.58 1.78 0 1.55-1.02 2.5-2.07 1.93Zm1.25-.34c.5-.39.73-1.72.43-2.44-.36-.86-1.62-.92-2.01-.09-.44.92.47 1.84 1.36 1.39.42-.21.45-.16.25.39-.24.61-.76.86-1.06.5-.14-.16-.5-.21-.5-.06 0 .44 1.09.66 1.53.31Zm3.99-2.38.03-1.17 3.33-.03 3.32-.02v2.4h-6.71zM34 27.6v-1.2h6.71l-.03 1.18-.03 1.17-3.32.03-3.33.02zm7.82.02.03-1.17 3.33-.03 3.32-.02v2.4h-6.71zm-20.66.87c-.54-.42-.26-1.29.42-1.29.57 0 .85.87.42 1.3-.26.26-.51.25-.84-.01Zm11.44-.89v-1h-6.2v2h6.2zm7.8 0v-1h-6.2v2h6.2zm7.8 0v-1h-6.1v2h6.1zm-26.28.55c.12-.27-.11-.75-.37-.75-.18 0-.45.28-.45.46 0 .53.61.75.82.29Zm-9-.55c-.61-.37-.76-1.3-.27-1.7.13-.11.13-.15 0-.33-.31-.44-.08-1.15.45-1.37 1.14-.47 2.37.49 1.75 1.37-.14.21-.14.24.05.43.94.94-.77 2.33-1.98 1.6Zm1.31-.13c.69-.29.86-.91.38-1.36l-.31-.29.25-.3c.6-.71-.32-1.49-1.28-1.08-.59.24-.68 1.08-.15 1.29.09.04.02.15-.19.32-.88.71.19 1.88 1.3 1.42Zm-1.01-.33c-.28-.19-.3-.74-.04-.97.36-.33 1.09-.21 1.31.2.33.64-.63 1.22-1.27.77Zm.96-.26c.35-.35-.14-.82-.63-.6-.31.14-.41.37-.25.57.15.18.71.2.88.03ZM18.3 25v-1.2h6.59l.06.32c.03.18.04.71.01 1.18l-.05.85-3.3.03-3.31.02zm7.82.03.03-1.18 3.33-.03 3.32-.02v2.4h-6.71zM34 25v-1.2h6.7v2.4H34zm7.82.03.03-1.18 3.33-.03 3.32-.02v2.4h-6.71zm-17.14 0 .03-.93H18.5V26l3.08-.02 3.07-.03zm7.9.01.03-.91-.68-.05c-.37-.03-1.04-.04-1.48-.04-.44.01-1.53.02-2.42.04l-1.63.02V26l3.08-.02 3.07-.03zM40.4 25v-1l-3.07.02-3.08.03-.03.98-.03.97h6.21zm7.8 0v-1h-6.1v2h6.1zm-34.77.6c-.32-.13-.44-.41-.3-.71.19-.38 1.05-.36 1.27.03.25.45-.41.91-.97.68Zm.65-.32c.19-.19.14-.37-.12-.44-.34-.08-.66.04-.66.26 0 .29.55.41.78.18Zm-9.52-.17c-.18-.29.08-.93.52-1.29 1.26-1.03 1.44-1.29 1.04-1.51-.25-.13-.49.03-.57.39-.06.28-.1.3-.49.3-.54 0-.56-.02-.45-.53.28-1.27 2.06-1.5 2.54-.33.26.63-.07 1.27-1 1.94l-.3.21.73.01h.73l-.03.43-.03.42-1.32.03c-.77.01-1.34-.01-1.37-.07ZM7 24.75c0-.12-.15-.15-.79-.15-.98 0-1.04-.08-.44-.56.86-.68 1.13-.97 1.19-1.3.24-1.29-1.72-1.55-2.11-.26-.05.19-.03.22.19.22.16 0 .26-.06.26-.15 0-.51.87-.73 1.16-.29.26.39 0 .81-.9 1.51-.61.47-.75.63-.76.85v.28h1.1c.91 0 1.1-.03 1.1-.15Zm3.44-1.18c-.02-.07-.03-.62-.02-1.23l.03-1.09 3.25-.03c3.83-.03 3.5-.15 3.5 1.3 0 .84-.02.99-.18 1.07-.31.17-6.51.15-6.58-.02Zm7.88-1.09.03-1.23h6.5l.05 1.13c.03.62.04 1.17.02 1.22-.02.06-1.27.1-3.33.1h-3.3zm7.82 1.09c-.02-.07-.03-.62-.02-1.23l.03-1.09h6.6l.03 1.23.03 1.22H29.5c-2.64 0-3.32-.03-3.36-.13Zm7.9 0c-.02-.07-.03-.62-.02-1.23l.03-1.09h6.6l.03 1.14c.02.85-.01 1.17-.1 1.23-.24.14-6.48.1-6.54-.05Zm7.8 0c-.02-.07-.03-.62-.02-1.23l.03-1.09h6.6v2.4l-3.28.03c-2.65.02-3.28 0-3.33-.11ZM16.9 22.4v-1h-6.2v2h6.2zm7.78.03-.03-.98-3.07-.03-3.08-.02v2h6.21zm7.9 0-.03-.98-3.07-.03-3.08-.02v2h6.21zm7.82-.03v-1h-6.2v2h6.2zm7.8 0v-1h-6.1v2h6.1zM43 17.52c-.98-.02-1.28-.06-1.42-.19-.29-.26-.28-10.29.01-10.64l.19-.24 3.29-.03c3.22-.03 3.3-.02 3.56.18l.27.21v5.18c0 4.81-.01 5.19-.17 5.33-.19.17-3 .26-5.73.2Zm-40.68-.14c-.19-.19-.17-10.52.03-10.71.34-.34 6.76-.37 7.14-.03.31.28.33 10.42.03 10.69-.24.22-6.99.26-7.2.05Zm7.84-.04c-.29-.28-.24-10.44.05-10.7.2-.18.41-.19 3.61-.19h3.4l.19.24c.27.33.3 10.21.03 10.59l-.15.22H13.8c-3.04 0-3.51-.02-3.64-.16Zm7.86.04c-.2-.2-.17-10.52.03-10.72.25-.25.65-.27 3.88-.24l3.09.03.19.24c.27.33.3 10.21.03 10.59l-.15.22h-3.48c-2.56 0-3.5-.03-3.59-.12Zm7.85-.06c-.3-.32-.25-10.41.04-10.68.32-.28 6.88-.3 7.16-.01.26.26.33 10.25.08 10.63l-.15.24h-3.49c-3.24 0-3.49-.01-3.64-.18ZM9.35 12V6.75l-3.34-.03c-2.38-.02-3.38.01-3.47.09-.15.12-.22 10.28-.07 10.42.04.04 1.6.06 3.47.05l3.41-.03zm7.9 0V6.75l-3.39-.03c-2.3-.01-3.43.01-3.5.08-.16.16-.22 10-.07 10.29.12.21.14.21 3.54.19l3.42-.03zm7.83.11c.01-3.71-.01-5.18-.09-5.27-.16-.19-6.58-.21-6.77-.02-.17.17-.17 10.19 0 10.36.09.09.95.12 3.48.1l3.35-.03zm7.8 5.07c.19-.19.17-10.21-.02-10.37-.09-.08-1.09-.11-3.47-.09l-3.34.03-.03 5.15c-.01 2.83 0 5.21.03 5.28.06.17 6.65.18 6.83 0Zm15.6.04c.1-.07.12-1.19.1-5.28l-.03-5.19-3.2-.03c-1.76-.01-3.3 0-3.42.03l-.23.05v5.19c0 2.85.03 5.21.07 5.24.09.1 6.55.08 6.71-.01Zm-6.56-.14c-.19-.19-.17-10.01.02-10.17.09-.08 1.05-.11 3.32-.09l3.19.03.03 5.04c.01 3.64-.01 5.08-.09 5.17-.16.19-6.28.21-6.47.02Zm6.3-5.08.03-4.9H42.1v9.8h6.1zM4.77 15.62c-1.42-1.45-1.75-2.24-1.31-3.18.4-.83 1.75-1 2.34-.29.07.09.16.12.19.08.34-.49 1.25-.69 1.81-.4.68.34.9 1.38.48 2.26-.19.4-2.2 2.61-2.37 2.61-.04 0-.55-.49-1.14-1.08Zm8.09.99c-.04-.05.06-.24.21-.41l.26-.32-.44.07c-1.61.22-2.17-1.95-.63-2.45.27-.09.33-.16.29-.3-.1-.31.13-.94.43-1.23.82-.79 2.11-.06 1.99 1.11-.03.24-.03.41 0 .38.11-.11.65.18.93.5.73.83-.03 2.13-1.17 2.01l-.43-.05.25.3c.35.42.26.48-.75.48-.49 0-.91-.04-.94-.09Zm7.56-1.11c-.75-.79-1.11-1.24-1.06-1.32.17-.28 2.16-2.48 2.24-2.48.09 0 2.23 2.34 2.28 2.5.04.1-2.16 2.5-2.27 2.5-.04-.01-.57-.55-1.19-1.2Zm8.14 1.11c-.04-.05.06-.24.21-.41l.27-.32-.32.07c-.81.17-1.62-.51-1.62-1.37v-.51l1.13-1.13c.62-.63 1.19-1.14 1.28-1.14.29 0 2.35 2.21 2.41 2.59.14.98-.74 1.79-1.69 1.55l-.28-.07.28.32c.15.18.27.37.27.42 0 .12-1.87.12-1.94 0Zm-14.41-.46c-.45-.44-.28-.95.19-.6.55.42 1.62-.08 1.54-.72-.09-.8-4.11-.88-4.26-.09-.14.73.86 1.18 1.68.76l.4-.2v.3c0 .19-.09.4-.25.55l-.24.25h1.18zm15.66-.01c-.41-.52-.24-.9.25-.58.56.37 1.71-.19 1.62-.79-.08-.54-2.36-.81-3.66-.42-.72.21-.8.31-.57.74.31.61.92.73 1.78.36.25-.11.23.35-.04.69l-.2.26h1.02zm-22.89-.81c1.08-1.11 1.31-1.48 1.32-2.15.02-1.17-1.13-1.64-2.03-.83l-.38.34-.21-.28c-.96-1.3-2.57.14-1.85 1.66.17.37 1.92 2.23 2.09 2.23.06 0 .53-.44 1.06-.97Zm15.62.05.86-.93-.42-.14c-.55-.17-2.09-.17-2.7.01l-.46.13.85.93c.47.5.89.92.93.92.05 0 .47-.42.94-.92Zm-8.74-1.42c.94 0 1.34.04 1.63.16.2.1.37.13.37.07 0-.15-.63-.49-.92-.49h-.28l.07-.59c.05-.57.04-.61-.25-.9-.8-.81-1.94.12-1.52 1.23.09.25.08.26-.23.26-.33 0-.97.32-.97.49 0 .05.19.01.42-.07.31-.12.78-.16 1.68-.16Zm15.43-.03c.75-.04 1.13-.02 1.63.12.88.24.88.23-.31-.95l-1.05-1.05-1.05 1.05c-1.18 1.17-1.23 1.26-.62 1.03.23-.08.86-.18 1.4-.2ZM20.5 14c.6-.16 1.71-.14 2.43.03.31.08.57.12.57.1 0-.06-1.82-2.07-1.9-2.1-.04-.01-.29.26-1.59 1.79-.27.31-.3.39-.15.35.1-.03.39-.11.64-.17ZM4.17 10.92c-.14-.21 1.28-3.57 1.54-3.66.59-.2.74-.05 1.17 1.16.22.62.52 1.44.66 1.81.29.76.27.81-.39.75-.33-.03-.39-.07-.49-.38-.11-.34-.13-.35-.68-.38l-.57-.03-.18.38c-.18.38-.9.62-1.06.35Zm7.74-.04c0-.07.31-.9.68-1.83l.68-1.7h.97l.67 1.75c.71 1.88.72 1.93.13 1.88-.34-.03-.41-.08-.57-.41l-.18-.38-.57.03c-.55.03-.58.04-.75.4-.18.39-1.08.6-1.06.26Zm7.96.05c-.03-.05.27-.88.65-1.85l.71-1.78h.95l.36.92c1.16 3.04 1.11 2.78.51 2.78-.43 0-.46-.02-.61-.4l-.16-.4h-.58c-.57 0-.57 0-.75.4-.18.39-.91.61-1.08.33Zm7.82.02c-.04-.03.26-.86.64-1.85l.71-1.8h.94l.65 1.77c.73 1.95.72 1.93.16 1.93-.36 0-.4-.03-.55-.4l-.16-.4h-.59c-.58 0-.59 0-.76.38-.17.35-.83.59-1.04.37ZM5.03 10.3l.16-.41.73.03.73.03.18.38c.2.39.66.56.54.2C6.73 8.56 6.24 7.5 5.98 7.5c-.2 0-.31.07-.38.23-.87 2.05-1.16 2.97-.95 2.97.16 0 .26-.1.38-.4Zm7.75.06c.15-.41.19-.43 1.05-.38.66.04.69.05.84.38.18.36.6.51.49.17-.54-1.68-1.15-2.98-1.41-2.98-.25 0-.3.09-.89 1.57-.6 1.49-.62 1.58-.42 1.58.16 0 .25-.1.34-.34Zm7.98-.01.14-.35h1.56l.17.35c.22.45.63.52.46.08-.06-.16-.3-.8-.54-1.43s-.46-1.23-.5-1.32c-.19-.48-.62-.22-.9.54-.15.4-.43 1.09-.61 1.53-.4.95-.4.95-.13.95.13 0 .25-.11.35-.35Zm7.79-.02.2-.37.74-.01h.75l.15.37c.12.27.22.38.38.38h.22l-.18-.42c-.1-.24-.37-.96-.61-1.6-.67-1.88-.77-1.8-2.18 1.93-.11.28.36.03.53-.28ZM5.3 9.54c0-.28.54-1.52.65-1.48.14.06.65 1.34.58 1.47-.05.08-1.23.1-1.23.01Zm7.8-.01c0-.24.55-1.53.64-1.5.12.04.66 1.38.59 1.5-.02.04-.31.07-.64.07-.32 0-.59-.03-.59-.07Zm8-.06c0-.22.47-1.41.57-1.44.09-.03.63 1.24.63 1.48 0 .05-.27.09-.6.09-.41 0-.6-.04-.6-.13Zm7.8-.01c0-.23.47-1.4.58-1.44.09-.03.62 1.2.62 1.46 0 .08-.19.12-.6.12-.44 0-.6-.04-.6-.14Z"/></svg>