<svg xmlns="http://www.w3.org/2000/svg" width="51" height="51" viewBox="0 0 51 51"><path fill="#fff" fill-rule="evenodd" stroke="#fff" stroke-width=".439" d="M6.97 31.4c-2.09-.81-2.72-3.55-1.19-5.13.94-.97 2.48-1.26 3.65-.69 1.04.51 1.06.58.52 1.31l-.45.62-.36-.27c-1.39-1.07-3.25.54-2.34 2.03.48.8 1.84.95 2.4.27.21-.24.37-.16.74.36.46.63.45.73-.06 1.1-.81.59-2 .76-2.91.4Zm5.27.06c-2.27-.71-2.97-3.74-1.23-5.31.86-.78 2.13-1.06 3.16-.71.43.15.49.15.59.01.13-.18 1.39-.22 1.49-.04.07.11.07 5.97.01 6.08-.08.13-1.46 0-1.46-.14 0-.11-.12-.09-.55.06-.62.22-1.41.24-2.01.05Zm4.61.02c-.03-.07-.04-1.48-.03-3.13l.03-3 .73-.03c.67-.03.74-.01.79.18.06.24.03.24.42.04.62-.31 2.26-.27 2.46.07.03.04-.09.36-.26.71l-.31.63h-.63c-.69 0-.99.15-1.39.69-.19.25-.22.46-.26 2.09l-.05 1.82-.73.03c-.52.02-.74-.01-.77-.1Zm5.65.03c-.69-.21-1.65-1.05-1.58-1.39.02-.07.34-.3.71-.5.66-.35.69-.36.8-.18.26.43.47.56.9.56 1.06-.01.91-.45-.29-.86-1.08-.37-1.47-.64-1.74-1.19-.8-1.65.95-3.1 2.99-2.49.61.18 1.34.83 1.29 1.15-.04.29-1.26.95-1.35.74-.14-.38-.94-.57-1.29-.3-.27.21-.03.38.87.6 2.01.49 2.65 2.16 1.31 3.37-.59.53-1.76.75-2.62.49Zm5.48-.07c-.7-.21-1.61-1.09-1.89-1.82-.99-2.55 1.39-5.04 3.97-4.16.43.15.48.15.56 0 .07-.12.25-.16.78-.16.87 0 .81-.26.78 3.3l-.03 2.85-.77.03c-.67.02-.78.01-.78-.14 0-.12-.05-.14-.17-.09-.91.39-1.64.44-2.45.19Zm4.74.03c-.19-.22-.16-9.11.02-9.26.09-.07.4-.11.83-.09l.68.03.03 4.64c.02 3.65 0 4.66-.1 4.73-.21.13-1.34.09-1.46-.05Zm4.28.04c-2.28-.7-3.1-3.57-1.49-5.22 1.99-2.04 5.33-.78 5.34 2.01v.85l-2.17.03c-2.28.03-2.37.05-1.88.46.42.35 1.06.43 1.69.2l.49-.17.56.37c.67.44.69.55.14.95-.71.52-1.9.75-2.68.52Zm5.05-.15c-.51-.24-1.25-.95-1.25-1.21 0-.08.27-.3.61-.5.61-.36.89-.43.89-.25 0 .43 1.05.79 1.48.51.35-.21.07-.46-.86-.77-1.4-.46-2.05-1.22-1.89-2.22.27-1.61 2.78-2.21 4.04-.95.58.58.56.74-.14 1.12-.68.37-.66.37-.97.06-.29-.29-.81-.34-1.12-.11-.27.21-.11.32.75.56 1.71.48 2.32 1.22 2.07 2.54-.23 1.21-2.21 1.88-3.61 1.22Zm-17.47-.28c.67-.31.96-.82.9-1.59-.07-.93-.49-1.26-2.15-1.69-.51-.13-.73-.33-.73-.66 0-.54 1.09-.66 1.61-.18.18.16.21.16.64-.07.54-.29.55-.38.1-.77-1.25-1.1-3.55-.42-3.55 1.05 0 .86.39 1.27 1.63 1.67 1.17.38 1.38.56 1.22 1.05-.19.61-1.75.46-1.97-.2-.04-.11-.76.21-1.07.48-.08.06.63.74.93.9.68.35 1.69.36 2.44.01Zm19.92.02c.73-.37 1.08-1.08.9-1.85-.14-.61-.62-.99-1.67-1.31-.98-.29-1.23-.46-1.23-.81 0-.52 1-.65 1.61-.22.26.18.27.18.68-.04.48-.26.5-.35.14-.69-1.25-1.17-3.63-.55-3.63.94 0 .9.5 1.4 1.79 1.79 1.1.33 1.4.75.85 1.18-.46.36-1.48.19-1.74-.28l-.11-.22-.5.27c-.6.33-.59.32-.06.81.39.36.71.52 1.32.66.35.09 1.29-.05 1.65-.23Zm-35.49.05c.24-.08.57-.26.73-.38l.29-.23-.28-.42-.27-.41-.46.26c-1.69.99-3.56-1.07-2.38-2.61.66-.87 1.51-.96 2.78-.28.15.08.61-.77.49-.92-.47-.57-2.07-.77-2.96-.37-3.35 1.49-1.41 6.54 2.06 5.36Zm5.37-.1c.66-.3.62-.3.62 0 0 .24.03.25.55.25h.55v-5.7h-.55c-.52 0-.55.01-.55.26 0 .14-.03.24-.07.22-1.5-.77-2.66-.68-3.71.27-2.38 2.15.25 6.06 3.16 4.7Zm3.74-1.43c.04-1.76.07-1.92.56-2.45.3-.32 1.21-.62 1.58-.53.31.08.8-.78.54-.94-.48-.31-1.9-.03-2.42.47l-.28.27v-.84h-1v5.7h.98zm12.12 1.39.57-.28.06.28c.05.27.09.29.54.29h.49v-5.7h-.55c-.52 0-.55.01-.55.25 0 .3.05.3-.54 0-1.46-.74-3.55.12-4 1.65-.74 2.49 1.72 4.65 3.98 3.51Zm3.85-4.16-.04-4.45H32.9v8.9h1.23zm4.72 4.3c.24-.08.57-.25.73-.38l.28-.23-.42-.28c-.29-.19-.49-.26-.64-.21-1.07.33-1.67.23-2.2-.36-.63-.69-.62-.69 1.62-.69 2.54 0 2.42.03 2.42-.74 0-2.36-2.91-3.56-4.74-1.95-2.32 2.04-.01 5.85 2.95 4.84Zm-26.14-.98c-1.69-.54-1.67-2.97.03-3.48 1.27-.38 2.46.7 2.26 2.04-.17 1.12-1.23 1.78-2.29 1.44Zm15.79-.02c-1.51-.53-1.67-2.61-.26-3.32.97-.5 1.96-.16 2.41.82.68 1.47-.66 3.03-2.15 2.5Zm-14.37-.42c.85-.63.8-2.17-.1-2.65-1.06-.57-2.29.16-2.29 1.36 0 1.22 1.43 1.99 2.39 1.29Zm15.61.09c.96-.48 1.09-1.83.26-2.61-.37-.35-1.27-.41-1.74-.12-1.61 1.02-.22 3.59 1.48 2.73Zm6.46-2.01c-.21-.34.96-1.21 1.64-1.21.71.01 1.6.63 1.6 1.11 0 .21-3.12.3-3.24.1Zm2.78-.42c-.29-.32-.69-.49-1.14-.49s-.85.17-1.14.49l-.19.21h2.66zm5.76-2.59c-1.73-1.33-4.69-2.43-6.97-2.59-.84-.06-1.07-.11-1.26-.28-1.06-.98-4.57-2.65-6.88-3.27-3.05-.82-6.47-.85-9.44-.09-2.91.75-6.36 2.54-8.52 4.41l-.82.72-.95-.15c-.52-.07-1.75-.21-2.73-.31-.98-.09-1.84-.18-1.92-.2-.15-.05-.11-1.4.05-1.65.09-.15 1.83-.07 3.53.16 1.52.2 1.42.21 2.03-.31 2.09-1.81 5.91-3.72 8.98-4.49 5.56-1.41 11.77-.3 16.75 2.99.69.46.89.54 1.45.6 2.86.3 6.08 1.58 8.03 3.19.58.48.58.54 0 1.19-.59.67-.56.67-1.33.08Zm1.15-.28.38-.43-.23-.24c-1.26-1.35-4.9-2.81-8.02-3.24-.69-.1-.86-.17-1.69-.71-4.96-3.26-11.15-4.29-16.79-2.79-2.89.77-6.08 2.39-8.42 4.28l-.78.63-1.27-.16c-1.76-.22-3.46-.37-3.51-.31-.05.05-.23 1.18-.19 1.21.01.01.79.09 1.72.18.93.1 2.15.24 2.69.32 1.12.16.91.24 1.95-.69 2.95-2.63 7.95-4.6 12.21-4.83 4.05-.21 9.32 1.38 12.44 3.75.49.37.55.39 1.46.45 2.18.14 5.47 1.36 7 2.6.64.52.56.52 1.05-.02Z"/></svg>