<svg xmlns="http://www.w3.org/2000/svg" width="51" height="51" viewBox="0 0 51 51"><path fill="#fff" fill-rule="evenodd" stroke="#fff" stroke-width=".399" d="M8.95 47.45c-.05-.02-.27-.06-.47-.1-.4-.06-.68-.27-.68-.51 0-.18.28-.18.76.02.6.25 1.34-.05 1.34-.56 0-.07-.11-.05-.3.05-.88.46-1.99-.3-1.86-1.28.12-.98 1.06-1.49 1.93-1.04.27.14.32.15.37.02.07-.18.36-.2.37-.02.06.9-.05 2.66-.17 2.84-.21.33-.98.67-1.29.58Zm11.75-.08c-.36-.18-.32-.42.07-.42.71 0 .73-.2.14-1.59-.29-.69-.5-1.3-.46-1.36.2-.33.56.14 1 1.33.22.57.24.56.67-.53.33-.83.56-1.06.79-.83.14.14-1.15 3.03-1.46 3.31-.3.25-.4.27-.75.09Zm4.17-.04c-.19-.18-.06-.44.21-.43.81.06.83-.13.17-1.55-.61-1.29-.65-1.45-.35-1.45.16 0 .31.21.67.96.37.77.49.93.55.78.04-.11.21-.5.37-.89.31-.74.53-.97.71-.79.13.13-.97 2.93-1.27 3.26-.16.18-.92.26-1.06.11Zm-20.05-.72c-.27-.16-.11-2.65.16-2.69.17-.03.25.02.29.17.05.21.05.21.3.01.27-.21.78-.27.88-.1.04.06.13.05.24-.02.44-.27.52-.08.49 1.29-.03 1.16-.05 1.28-.22 1.31-.29.06-.36-.16-.36-1.15v-.91l-.29-.07c-.66-.14-1.01.32-1.01 1.32 0 .74-.17 1.04-.48.84Zm9.64-.12c-.25-.19-.26-.25-.26-1.14s-.01-.94-.22-.97c-.33-.04-.35-.36-.04-.44.22-.05.26-.12.26-.4 0-.3.03-.34.25-.34s.25.04.25.34c0 .33.02.35.38.38.29.02.37.07.37.23s-.08.21-.37.23l-.38.03v.78c0 .87.11 1.06.54.95.34-.08.48.22.21.42s-.68.17-.99-.07Zm3.77.01c-.27-.16-.33-.17-.33-.05 0 .09-.1.15-.25.15h-.25l.02-1.82.03-1.83h.25c.23 0 .25.04.3.63.05.61.06.63.25.48.3-.23 1.07-.2 1.39.05 1.32 1.04 0 3.26-1.41 2.39Zm9.93.02c-.62-.43-.85-1.26-.51-1.92.81-1.56 3.18-.38 2.47 1.23-.34.78-1.32 1.12-1.96.69Zm3.14.05c-.59-.29-.9-2.62-.35-2.62.18 0 .2.08.25.93.07 1.24.47 1.64 1.13 1.12.24-.19.26-.27.29-1.13.03-.84.05-.92.23-.92.19 0 .2.08.23 1.33l.03 1.32h-.26c-.14 0-.25-.05-.25-.11 0-.05-.1-.03-.22.05-.27.19-.74.2-1.08.03Zm6.12-.02c-.36-.16-.51-.4-.34-.57.08-.08.21-.06.45.06.39.18.65.2.85.07.27-.17.08-.45-.43-.64-.82-.29-1.06-.77-.65-1.3.35-.45 1.35-.41 1.64.06.17.28-.1.39-.5.2-.43-.21-.86-.11-.82.2.02.16.14.26.43.35.63.2.83.33.95.63.32.76-.65 1.34-1.58.94Zm4.03.05c-.94-.39-1.13-1.78-.33-2.45.35-.3 1.1-.34 1.46-.09l.22.15v-.64c0-.64.08-.8.38-.7.09.04.12.5.12 1.88 0 1.9-.05 2.1-.41 1.79-.14-.12-.2-.12-.45.01-.32.16-.68.18-.99.05Zm3.19.01c-.91-.39-1.09-1.86-.3-2.46.84-.64 2.06-.02 2.06 1.04v.3l-1.07.03-1.08.03.32.33c.35.35.71.41 1.13.17.58-.33.82-.02.29.38-.3.22-1.03.32-1.35.18ZM11.1 44.75V42.9h.25c.24 0 .25.02.25.64v.63l.38-.18c.5-.25 1.05-.11 1.33.34.3.5.24 2.21-.08 2.25-.22.03-.23.01-.23-.85 0-1.05-.13-1.33-.64-1.33-.58 0-.76.31-.76 1.33 0 .86 0 .87-.25.87h-.25zm22.68 1.78c-.16-.34.05-2.63.24-2.63.11 0 .22.08.25.2.05.19.05.19.33-.01.32-.24.73-.22.78.04.03.12-.09.22-.41.36-.58.25-.61.31-.67 1.26-.05.72-.07.8-.27.83-.11.02-.23 0-.25-.05Zm5.78-.15c-.03-.13-.04-.72-.03-1.33l.02-1.1h.5v1.3c0 1.27-.01 1.3-.22 1.33-.17.02-.24-.03-.27-.2Zm-20.08-.54c.49-.56.14-1.44-.59-1.44-1.02 0-1.25 1.37-.29 1.73.26.1.64-.03.88-.29Zm9.82.21c.54-.28.6-1.28.1-1.55-.98-.52-1.93.74-1.09 1.44.35.3.58.32.99.11Zm13.28-.21c.51-.58.14-1.44-.63-1.44-.83 0-1.15.91-.55 1.52.37.37.81.34 1.18-.08Zm-33.15.04c.66-.35.64-1.23-.03-1.46a.853.853 0 0 0-1.06.4c-.38.73.36 1.45 1.09 1.06Zm36.35-1.13c-.2-.44-.79-.52-1.2-.17-.37.31-.22.42.57.42h.75zm-39.14-1.4c-.08-.21.04-.35.31-.35.29 0 .41.16.25.35s-.49.19-.56 0Zm17.28-4.16c-7.84-.68-14.37-6.56-15.93-14.35-.24-1.21-.37-4.41-.22-5.49.08-.58.07-.61-.19-.83q-1.125-.96.51-2.67c.43-.44.84-.96.91-1.15 1.66-4.41 5.86-8.37 10.66-10.03 9.11-3.16 19.57 1.89 22.45 10.83.24.75.3.85.58.95.78.26 1.04 1.13.48 1.61-.27.23-.28.25-.18.79.71 3.82-.45 8.93-2.82 12.53-3.47 5.26-9.93 8.36-16.25 7.81Zm4.58-.44c6.28-1.12 11.58-5.74 13.53-11.8.92-2.84 1.18-7.12.54-8.92-.3-.87-1.48.54-1.79 2.14-.25 1.32-.26 1.33-.61 1.33-.62 0-.72-.17-.72-1.22v-.93l-.63.67c-.78.83-1.34 1.12-2.01 1.06-2.09-.2-1.94-3.85.17-4.49 1.87-.56 1.98 1.65.14 2.82-.47.3-.34.48.26.34.71-.16 2.26-1.75 2.38-2.44.13-.71.3-.91.77-.91.46 0 .67.13.67.43 0 .2.8-.19.88-.43.13-.38-1.11-3.21-1.98-4.55-4.87-7.43-14.61-10.01-22.61-6-3.37 1.69-6.33 4.7-7.85 8-.44.94-.41.97.37.44 2.1-1.42 5.07-2.32 6.62-2 2.09.44 1.72 2.88-.73 4.74l-.35.27h.48c.78 0 1.4.33 1.78.95.11.17.19.23.19.14 0-.29.31-1.18.46-1.34.45-.45 1.11.02.98.69-.08.46-.04.45.34-.08.64-.89 1.48-1.12 2.04-.55.27.27.34.29.55.2.82-.37 1.11-.06.95 1.03-.25 1.7.1 1.62.82-.18.52-1.31 1.17-1.96 2.12-2.12 1.04-.16 1.71.58 1.15 1.27-.17.21-.22.22-.45.11-.78-.35-1.55.45-1.56 1.61 0 .88.48.7 1.29-.47.63-.92.99-1.09 1.39-.66.19.21.19.2.32-.92.44-4.06 1.01-5.44 1.9-4.63.26.23.25.4-.05 1.79-.26 1.21-.65 3.48-.65 3.8 0 .14.08.08.3-.22 1-1.39 2.15-1.11 2.41.58.06.41.13.81.15.89.1.33.86-1.13 1.09-2.1l.07-.27-.41.11c-.51.14-.73-.03-.73-.57 0-.48.22-.71.8-.86.26-.07.55-.14.64-.17.11-.02.29-.4.53-1.12.49-1.49.85-1.8 1.49-1.3.32.25.34.59.06 1.29-.29.75-.28.78.27.69 1.42-.23 2.14-.03 1.99.56q-.12.45-.96.45c-.48 0-1.79.27-1.95.4-.51.42-.54 3.13-.06 4.57.39 1.17.33 1.43-.35 1.43-.69 0-1.18-.74-1.32-2l-.07-.65-.23.38c-.82 1.31-1.58.87-2.17-1.26-.21-.75-.32-.67-.93.63-.63 1.32-.76 1.5-1.16 1.5s-.62-.22-.8-.81q-.135-.435-.15-.21c-.11 2.62-1.88 6.02-3.13 6.02-.92 0-1.09-.6-.36-1.27.9-.84 1.52-2 1.92-3.59.25-.96.23-.98-.36-.61-.75.47-1.29.45-1.73-.06-.3-.34-.34-.36-.46-.2-.75.91-1.98.95-2.15.07-.04-.2-.04-.76-.02-1.24l.05-.88-.22.1c-.16.07-.29.07-.43-.01-.63-.34-1.17.4-1.77 2.44-.34 1.14-.53 1.34-1.09 1.15-.43-.14-.46-.22-.47-1.23 0-.81-.01-.81-.14-.45-.88 2.4-4.23 4.6-7 4.61-2.71 0-3.19-2.04-.86-3.63l.57-.38.12-1.29c.27-3 .47-3.68 1.11-3.68.68 0 .85.29.66 1.15-.16.73-.55 3.02-.55 3.25 0 .12.15.15.79.15.96 0 1.31.2 1.31.75 0 .46-.07.48-1.44.49-1.15.01-1.24.03-1.74.31-1.64.9-1.03 1.76 1.01 1.4 2.63-.46 5.76-3.45 4.71-4.49-.25-.25-1.43-.21-2.45.09-1.06.31-1.45.32-1.6.04-.27-.52.17-1.18 1.23-1.85 1.71-1.08 3.08-2.44 3.08-3.07 0-1.11-3.82-.03-6.17 1.75-2.11 1.59-2.62 2.67-2.63 5.53-.02 11.03 9.85 19.41 20.6 17.5ZM17.14 30.1c-.49-.15-.58-.33-.39-.7.13-.26.21-.31.38-.25.48.16 1.1.18 1.05.04-.03-.08-.13-.15-.24-.17-.96-.15-1.45-.65-1.24-1.28.22-.66 1.13-.94 1.95-.6.66.28.28.93-.42.73-.33-.08-.46-.08-.55.01-.12.12.25.32.62.32.39 0 .8.48.8.94 0 .81-.94 1.27-1.96.96Zm3.77-.08c-.63-.32-.75-.6-.79-1.83l-.04-1.09H21v.83c0 .94.14 1.31.51 1.35.39.05.48-.16.51-1.19l.03-.94.43-.03.42-.03v1.08c0 1.73-.79 2.47-1.99 1.85Zm7.12.1c-.13-.08-.23-2.85-.12-2.96.09-.09 1.76-.19 2.03-.12.22.05.26.12.26.4 0 .41-.11.46-.91.46-.46 0-.59.03-.59.15s.14.15.65.15H30v.8h-.6c-.91 0-.85.28.08.32l.67.03.03.38.03.37h-.74c-.41 0-.87.02-1.03.05s-.35.02-.41-.03Zm-3.89-.17c-.08-.2.01-2.73.1-2.82.1-.1 1.04-.16 1.52-.08 1.49.22 1.38 2.11-.14 2.31-.48.06-.51.08-.54.38-.04.37-.82.54-.94.21Zm7.26-1.35v-1.5l.53-.02c1.82-.06 2.57.66 1.87 1.8l-.21.34.21.32c.29.48.26.56-.24.56-.4 0-.46-.03-.65-.35-.13-.22-.28-.35-.41-.35-.16 0-.2.06-.2.35 0 .35 0 .35-.45.35h-.45zm-12.96 1.19c.65-.3.55-1.1-.16-1.29a4 4 0 0 1-.68-.24c-.59-.28-.04-.86.64-.67.26.07.36.06.4-.04.13-.35-1.14-.36-1.49 0-.47.46-.22.95.57 1.15.58.14.72.23.76.48.06.38-.7.54-1.29.28-.11-.05-.19-.02-.23.09-.11.31.95.48 1.48.24Zm3.86-.17c.44-.45.58-2.23.18-2.3-.16-.03-.18.06-.18.88 0 1.09-.23 1.48-.83 1.36-.57-.11-.66-.29-.69-1.3-.03-.79-.05-.91-.21-.94-.29-.06-.22 1.85.08 2.18.44.49 1.22.55 1.65.12Zm2.5-.11v-.39l.6-.04c.78-.06 1.1-.33 1.1-.93 0-.64-.23-.79-1.26-.84l-.84-.03v1.31c0 1.24.01 1.31.2 1.31.17 0 .2-.07.2-.39Zm5.2.24c0-.12-.15-.15-.75-.15h-.75v-.9h.65c.83 0 .85-.18.03-.22l-.63-.03-.03-.42-.03-.43h.75c.61 0 .76-.03.76-.15s-.17-.15-.95-.15h-.95v2.6h.95c.78 0 .95-.03.95-.15Zm2-.26v-.4l.42.03c.37.03.46.08.67.41.36.56.71.53.38-.04l-.25-.41.24-.23c.78-.78-.02-1.65-1.41-1.53l-.4.03-.03 1.27c-.02 1.23-.02 1.28.18 1.28.17 0 .2-.06.2-.41Zm-7.12-.75c-.05-.04-.08-.31-.08-.61v-.53h.53c1.15 0 1.2 1 .06 1.16-.24.03-.47.02-.51-.02Zm7.16-.08c-.18-.46.01-1.01.35-1.04.7-.07 1.08.21.95.72-.1.4-1.17.67-1.3.32Zm-6.24-.31c.2-.24.04-.45-.35-.45-.32 0-.35.02-.35.3 0 .34.46.44.7.15Zm7.2 0c.2-.24.04-.45-.35-.45-.32 0-.35.02-.35.3 0 .34.46.44.7.15Zm-7.34-3.04c1.04-.76 2.15-3.93 2.18-6.21.01-1.4-.17-1.48-.89-.4-1.06 1.59-1.95 1.63-1.82.07.11-1.22 1.02-2.07 1.79-1.66.16.09.23.08.29-.02.25-.39-.04-.79-.57-.79-1.04 0-1.88.84-2.38 2.36-.21.65-.8 1.36-1.1 1.32-.24-.03-.28-.55-.12-1.81l.08-.68-.33.03c-.48.04-.62.39-.67 1.69-.07 1.67.71 1.94 1.79.6.39-.5.45-.51.53-.06.18.94 1.39.93 2.14-.01.52-.65.6-.48.37.73-.34 1.79-.97 3.14-1.92 4.13-.68.7-.69.7-.51.88.21.21.73.14 1.14-.17Zm-13.33-1.07c2.74-.71 5.25-3.18 5.3-5.21.03-1.14-1.03-1.69-2.55-1.34-.61.14-.47-.08.52-.82 1.7-1.27 2.46-2.69 1.95-3.67-.71-1.38-4.76-.55-7.78 1.6-1.84 1.32-2.6 2.39-2.23 3.16.22.47.36.43.71-.23.81-1.56 3.18-3.29 5.56-4.07 4.04-1.31 4.31.6.47 3.25-1.21.83-1.68 1.29-1.68 1.63 0 .33.15.33 1.39.01 1.47-.39 2.65-.3 2.85.2.48 1.26-1.45 3.46-3.9 4.47-1.52.62-3.44.45-3.44-.32 0-.96 1.22-1.65 2.93-1.65 1.11 0 1.17-.01 1.17-.2 0-.38-.19-.45-1.23-.45h-.99l.06-.27c.2-1.01.6-3.55.6-3.88.01-.62-.57-.67-.74-.07-.13.52-.37 2.25-.45 3.32-.09 1.23-.1 1.27-.56 1.5-.55.29-1.17.86-1.4 1.31-.78 1.53.92 2.39 3.44 1.73Zm22.93-2.37c.02-.07-.06-.42-.2-.78-.72-1.92-.48-4.95.42-5.18.48-.13 1.56-.3 2.07-.33.32-.03.4-.07.4-.23 0-.26-.79-.32-1.83-.12-.85.16-.84.18-.47-.88.32-.9.32-1.12-.01-1.27-.37-.17-.54.07-.98 1.4l-.36 1.08-.58.12c-.88.18-1.19.49-.93.9.07.11.17.11.61-.02.65-.2.6-.2.6.03 0 .56-.96 2.7-1.32 2.95-.33.23-.47.03-.59-.85-.29-2.03-1.21-2.09-2.38-.16-.12.2-.27.37-.32.37-.22 0-.03-1.82.43-4.05.43-2.1.44-2.16.23-2.31-.54-.4-.87.64-1.35 4.25-.17 1.29-.18 3.44-.01 3.64.35.43.58.23 1.16-.97.51-1.07.89-1.56 1.21-1.56.12 0 .26.36.58 1.5.37 1.33.96 1.34 1.69.05.34-.59.44-.54.51.22.17 1.66.47 2.33 1.07 2.33.16 0 .32-.06.35-.13ZM19.3 20.2c.44-1.31.92-2.21 1.25-2.34.26-.1.6-.07.72.05.3.3.62-.24.36-.6-.38-.55-1.22-.1-1.89 1-.47.78-.58.72-.62-.3-.03-.92-.3-1.12-.61-.47-.21.45-.39 3.7-.21 3.91.33.4.52.16 1-1.25Zm21 .98c.28-1.97 1.14-3.65 1.95-3.8.28-.06.55.13.55.38 0 .2.18.17.3-.06.14-.27.02-.68-.26-.86-.37-.25-.81-.09-1.45.53-.62.59-.77.58-.54-.07.18-.51.14-.6-.3-.6-.32 0-.34.02-.5.58-.37 1.28-1.98 2.82-2.93 2.82-.6 0-1.07-.62-.54-.73.95-.2 2-1.99 1.4-2.41-1.27-.89-2.93 1.47-2.19 3.11.55 1.2 1.72.97 3.2-.64.89-.97.95-.99.81-.23-.11.6-.13 1.83-.03 1.93.06.07.53.1.53.05Zm-4.1-2.4c0-.75.67-1.54 1.23-1.46.48.07.01 1.17-.66 1.58-.45.28-.57.25-.57-.12Zm.88-.63c.35-.51.29-.73-.1-.39-.18.17-.48.72-.48.9 0 .17.29-.08.58-.51ZM23 16.2c-.51-.51.08-1.9.81-1.9.7 0 .76 1.15.09 1.82-.33.33-.62.36-.9.08Zm.75-.34c.37-.57.41-1.26.06-1.26-.4 0-.85.89-.68 1.35.09.23.45.18.62-.09Z"/></svg>