<svg xmlns="http://www.w3.org/2000/svg" width="51" height="51" viewBox="0 0 51 51"><path fill="#fff" fill-rule="evenodd" stroke="#fff" stroke-width=".77" d="M14.15 40.48c-.03-.07-.04-2.24-.03-4.82l.03-4.69 3.9-1.54c5.36-2.11 6.55-2.55 6.71-2.49.12.05.14 1.09.12 6.83l-.03 6.78-5.33.03c-4.21.02-5.34 0-5.37-.1Zm12.12.05c-.09-.16.06-18.83.15-18.83.04 0 1.47.55 3.16 1.22 1.69.66 4.04 1.59 5.22 2.05 1.18.47 2.2.89 2.27.95.17.14.19 14.18.03 14.49-.1.18-.27.19-5.45.19-2.93 0-5.36-.03-5.38-.07Zm-1.59-.28c.08-.07-.12-13.05-.2-13.05-.09 0-3.58 1.36-7.83 3.04l-2.3.91-.03 4.57-.02 4.57 1.22.04c1.33.03 9.11-.03 9.16-.08Zm12.22-7.08v-7.12l-.88-.34c-.48-.19-2.8-1.1-5.15-2.03-2.36-.93-4.3-1.68-4.33-1.66-.02.02-.05 4.14-.06 9.16l-.03 9.12 2.9.02c1.6.02 3.95.02 5.23 0l2.32-.03zm-22.74-3.74c-.03-.04-.06-4.26-.06-9.4V10.7l5.38.02 5.37.03.03 7.26c.02 5.76 0 7.28-.1 7.32-5.02 2.03-10.55 4.17-10.62 4.1Zm5.19-2.21c2.64-1.04 4.9-1.92 5.03-1.96.22-.07.22-.1.22-1.69 0-.89.03-4.11.07-7.14l.06-5.53H14.3v9.16c0 7.29.03 9.15.13 9.11.06-.03 2.28-.9 4.92-1.95Zm17.35-2.99c-.61-.22-10.09-3.97-10.22-4.05-.17-.08-.18-.41-.18-4.78v-4.7l5.43.02 5.42.03.03 6.35c.03 7.43.04 7.32-.48 7.13Zm.2-6.78V10.9H26.5v9.07l.73.28c.39.15 2.45.96 4.57 1.8 4.26 1.68 4.92 1.94 5.03 1.94.04.01.07-2.94.07-6.54Z"/></svg>