<svg xmlns="http://www.w3.org/2000/svg" width="51" height="51" viewBox="0 0 51 51"><path fill="#fff" fill-rule="evenodd" stroke="#fff" stroke-width=".371" d="M23.1 49.7c-3.05-.29-5.93-1.06-8.25-2.22-.83-.42-.98-.46-1.85-.51-4.01-.23-7.56-3.36-8.29-7.29-.07-.41-.26-.82-.67-1.45C.24 32.36-.85 25.16 1.01 18.2c.59-2.23 1.59-4.41 2.97-6.5.56-.85.81-1.32.94-1.83.57-2.21 2.43-4.41 4.63-5.47.89-.44 2.31-.9 2.75-.9.09 0 .95-.4 1.91-.88 7.31-3.7 16.02-3.57 23.47.34.57.3 1.16.54 1.31.54.16 0 .68.12 1.17.26 3.19.92 5.4 3.15 6.3 6.33.2.7.41 1.17.8 1.76 4.95 7.59 4.98 18.38.09 25.91-.36.56-.54.95-.6 1.29-.66 4.41-4.2 7.71-8.45 7.9-.9.04-1.01.07-2.04.55-3.68 1.74-8.84 2.6-13.16 2.2Zm4.8-.69c.39-.05-.08-.09-1.6-.14-5.15-.16-9.32-1.27-12.92-3.42C3 39.24-1.08 25.9 4.2 15.4l.4-.8v-1.22l-.01-1.23-.35.6c-4.66 7.94-4.4 17.2.71 25.3C9.64 45.5 19.24 50.08 27.9 49.01Zm2.95-.07c1.53-.31 3.02-.74 4.13-1.2.94-.39 2.82-1.32 2.82-1.39 0-.03-.48.19-1.07.48-1.87.93-3.66 1.53-6.18 2.07-.71.16-1.22.29-1.13.29.09.01.74-.11 1.43-.25Zm-1.6-.44c7.42-.39 14.77-5.55 18.49-12.97 3.47-6.91 3.26-15.87-.52-22.28l-.42-.7v1.36c0 1.35 0 1.37.35 2.12 3.04 6.57 2.23 15.84-1.91 22.07-1.21 1.83-3.23 4.05-3.46 3.82-.1-.1.07-.32.78-1.05 5.81-5.93 7.7-15.44 4.71-23.67-.59-1.62-.65-1-.07.73 3.95 11.75-3.01 24.87-15.04 28.33-2.17.63-3.15.76-5.86.81-4.36.09-7.19-.52-11.09-2.37l-1.09-.52-.57.32c-.65.37-.71.28.7 1.07 3.97 2.25 9.11 3.25 15 2.93Zm-11.88-.4c-.59-.21-1.42-.54-1.84-.74s-.78-.35-.79-.33c-.12.12 3.14 1.45 3.56 1.46.08 0-.34-.17-.93-.39Zm11.35-1.45c3.05-.4 2.83-.43-2.97-.43h-5.4l.95.19c2.05.42 5.29.52 7.42.24Zm-16.38-.53c-2.12-1.23-4.38-2.86-4.85-3.51-.23-.31-2.4-2.81-2.45-2.81-.02 0 .12.43.31.96 1.11 3.1 3.43 5.13 6.65 5.79 1.4.28 1.45.21.34-.43Zm27.37.34c2.6-.55 4.98-2.54 6.03-5.03.26-.63.7-2.12.64-2.18-.02-.02-.44.51-.95 1.18-1.99 2.64-3.83 4.36-5.33 4.99-.19.09-.73.38-1.2.67l-.85.51h.5c.28 0 .8-.07 1.16-.14Zm-26.41-.2c0-.02-.4-.27-.9-.55-5.02-2.9-8.55-7.52-10.71-14.01C-.4 25.41.38 18.91 3.98 12.56c.78-1.37.74-1.49-.07-.19C-3 23.46.68 38.71 11.9 45.5c1.29.78 1.4.84 1.4.76Zm20.48-.84c1.5-.61 3.26-1.53 4.39-2.28.85-.57 2.93-2.27 2.93-2.4 0-.02-4.98-.04-11.08-.04H18.95l.07.88c.1 1.37.09 3.42-.02 3.42-.05 0-.35-.16-.66-.36-.79-.51-1.71-.92-2.2-1-.43-.06-1.54.18-1.54.34 0 .14 2.16 1.13 3.55 1.63l.8.29 6.9-.03 6.9-.02zm7.72-1.22c1.01-.78 2.29-2.14 3.44-3.65l.38-.5-.42.5c-1.28 1.49-3.29 3.3-5.1 4.58-.14.09.07.02.45-.17.39-.19.95-.53 1.25-.76Zm-28.8-.29v-.69l-.92-.73C4.31 36.58 1.27 26.84 4.15 18.03c.23-.69.35-1.28.38-1.85l.05-.83-.38.8c-4.5 9.36-1.08 21.77 7.7 27.98.83.59.8.59.8-.22Zm6.05-1.49-.07-1.52-2.77.02-2.76.03-.06 1.65c-.03.91-.05 1.68-.03 1.71.02.04.48-.16 1.03-.44 1.56-.79 2.3-.75 3.99.23l.67.39.04-.27c.01-.15 0-.96-.04-1.8Zm-5.95-.44c0-.46.03-.93.06-1.05l.06-.23h-1.33l-1.34.01.63.6c.69.65 1.73 1.49 1.85 1.49.04 0 .07-.37.07-.82Zm28.88-1.84.27-.23-16.24-.01H9.47l.24.26.24.25 15.73-.02 15.74-.02zm.8-.88c.75-.67 2.48-3.29 3.41-5.13l.61-1.2v-4.66l-.21.19c-.39.35-2.23.28-2.55-.1-.23-.26-.26-.27-.42-.12-.89.8-2.91.61-3.46-.33-.63-1.09.16-2.25 1.85-2.71 1.38-.37 1.58-.47 1.65-.85.13-.7-.32-1.24-.91-1.09-.24.06-.25.09-.19.54.08.59-.05.85-.52 1-.75.25-1.68-.06-1.88-.62-.46-1.29 2.87-2.33 4.65-1.45.96.47 1.03.67 1.09 2.95l.05 1.95.43.13.43.12-.03-8.41c-.05-9.63.01-9.02-1-11.07-.84-1.72-2.57-3.29-4.41-4.01-1.8-.69-.59-.64-15.37-.63l-13.35.01-.84.22c-3.13.82-5.55 3.15-6.32 6.09-.27 1.01-.41 7.04-.37 16.37l.03 6.5.66 1.3c1.01 1.99 1.76 3.15 3.08 4.73l.53.63 16.56-.07 16.57-.06zm4.47-1.46c4.66-6.98 4.98-17.01.8-24.52-.32-.59-.67-1.17-.78-1.3-.1-.13 0 .11.23.52 1.21 2.22 1.9 3.82 2.39 5.55 1.92 6.89.9 14.09-2.8 19.8-.39.61-.64 1.03-.56.95s.41-.53.72-1Zm.69-9.21c.51-3.02.41-6.07-.29-8.94-.56-2.3-.54-2.48-.54 5.15v6.95l.34-1.11c.18-.61.4-1.53.49-2.05ZM4.48 21.42l-.03-3.37-.37 1.5c-.94 3.79-.89 7.78.15 11.25l.22.75.03-3.38c.01-1.85.01-4.89 0-6.75Zm23.27 7.38c-.27-.03-.73-.14-1-.24-.5-.18-.51-.18-.93.03-.88.45-.82.75-.82-3.78 0-4.46.02-4.35-.7-4.5-.32-.06-.35-.1-.38-.44l-.03-.37h3.31l.02 1.03c.02.56.02 1.3.01 1.65-.01.34 0 .62.02.62s.3-.07.62-.15c2.21-.58 3.73.58 3.73 2.85 0 2.19-1.61 3.57-3.85 3.3Zm-16.02-.36c-.09-.23.08-.46.43-.57.66-.22.64-.09.64-3.39 0-3.33.01-3.3-.66-3.6-.36-.15-.45-.24-.42-.41.06-.45 5.49-.52 6.59-.09 1.8.71 1.76 2.89-.08 3.57-.24.08-.31.14-.18.14.11.01.43.12.71.25 1.81.84 1.73 3.32-.12 4.02-.73.27-6.81.35-6.91.08Zm8.77-.18c0-.3.04-.35.3-.41.45-.1.5-.29.5-2.13 0-1.9-.05-2.05-.71-2.26-.28-.09-.35-.17-.37-.42l-.03-.31 1.61-.06c.89-.04 1.66-.05 1.71-.01.05.03.09 1.13.09 2.5v2.44l.35.17c.35.17.54.51.4.72-.04.07-.73.11-1.96.11H20.5zm11.2 0c0-.29.04-.35.27-.41.54-.13.53-.03.53-3.65 0-3.82.02-3.65-.57-3.91-.39-.17-.44-.22-.41-.46l.03-.28h3.2l.05 4 .05 4 .38.24c.3.2.37.3.35.5l-.03.26-1.93.03-1.92.02zm4.06.18c-.14-.37-.06-.53.33-.64.49-.13.51-.23.51-2.21 0-1.77-.04-1.92-.62-2.11-.37-.13-.43-.19-.46-.45l-.03-.31.93-.07c.51-.03 1.24-.05 1.63-.03l.7.03.05 2.44c.05 2.64.02 2.49.63 2.71.24.09.28.15.25.42l-.03.33-1.91.03c-1.68.02-1.92 0-1.98-.14ZM27 28.27c2.22.75 4.14-.4 4.28-2.54.15-2.26-1.57-3.5-3.66-2.65-.73.3-.72.32-.72-1.54V19.9h-1.14c-.63 0-1.21-.03-1.3-.06s-.16-.01-.16.05.09.11.21.11c.11 0 .34.13.5.29l.29.29v7.92l.48-.24.47-.24zm15.95-.22.66-.34.29.32c.28.32.29.32 1.16.3.73-.02 1.54-.23.88-.23-.58 0-.62-.13-.66-2.29-.03-2.29-.06-2.37-.94-2.81-1.02-.52-3.22-.24-3.96.51-.54.54-.22.99.7.99.85 0 .99-.14.84-.8-.15-.64-.13-.67.43-.76.89-.13 1.35.27 1.35 1.18 0 .7-.24.91-1.5 1.29-1.72.51-2.2.9-2.2 1.77 0 1.15 1.54 1.61 2.95.87Zm-24.43 0c1.15-.41 1.56-1.6.93-2.71-.26-.45-.59-.65-1.58-.97-.85-.27-.86-.36-.09-.63 1.1-.38 1.52-.83 1.52-1.64 0-1.39-1.18-1.78-4.99-1.65-2.02.07-2.12.08-1.81.23.65.31.65.33.65 3.72 0 3.37-.02 3.5-.63 3.67-.36.11 2.08.21 4.03.17 1.08-.02 1.63-.07 1.97-.19Zm8.96.1c-.52-.29-.58-.56-.58-2.6v-1.86l.43-.19c1.4-.64 2.12.05 2.12 2.05 0 2.11-.85 3.23-1.97 2.6Zm-3.79-.18-.34-.23-.03-2.37L23.3 23l-1.43.01h-1.42l.41.19c.71.31.74.4.74 2.5 0 1.99-.05 2.2-.54 2.4-.13.06.38.09 1.38.09l1.59.01zm11.29.07c-.47-.25-.48-.32-.48-4.33V19.9h-1.32c-1.19.01-1.3.02-1.03.14.71.32.7.23.73 3.82.03 3.66 0 3.97-.51 4.19-.29.13-.17.14 1.28.14 1.47 0 1.58-.01 1.33-.15Zm4.07 0c-.55-.29-.55-.3-.55-2.76V23h-1.38c-.92 0-1.32.03-1.22.1.08.05.22.1.32.1.55 0 .68.49.68 2.46 0 2.02-.04 2.18-.53 2.39-.29.13-.16.14 1.33.14 1.56 0 1.63-.01 1.35-.15Zm-23.82-.13-.33-.21v-3.4h.64c1.42 0 2.16.66 2.16 1.93 0 1.42-1.39 2.36-2.47 1.68Zm13.11-.05c1.07-.44 1.18-3.74.14-4.17-.3-.12-.7-.06-1.05.17-.22.14-.23.19-.23 1.85v1.71l.29.29c.34.33.39.34.85.15Zm13.73-.11c-.4-.41-.44-1.07-.08-1.73.14-.25 1.06-.72 1.43-.72h.28v.85c0 1.56-.84 2.38-1.63 1.6Zm-25.27-.24c1.24-.87.59-2.74-1-2.88l-.6-.06v1.45c0 1.51.02 1.6.45 1.71.31.08.88-.02 1.15-.22Zm26.34-.11c.15-.15.2-.37.24-.99l.05-.8-.38.12c-.64.19-.95.57-.95 1.15 0 .78.51 1.03 1.04.52Zm-28.19-3.52c-.03-.07-.04-.83-.03-1.68l.03-1.55.49-.03c1.21-.08 1.9.53 1.84 1.62-.04.83-.27 1.24-.83 1.51-.51.24-1.43.32-1.5.13Zm1.36-.43c.41-.22.69-.71.69-1.22 0-.85-.34-1.18-1.31-1.3l-.49-.06v2.73h.4c.23 0 .54-.07.71-.15Zm5.32-1.81c-.88-.44-.89-1.65-.01-2.1.8-.41 1.88.19 1.88 1.05 0 .89-1.03 1.46-1.87 1.05Zm15.27-.02c-.5-.25-.76-.81-.61-1.32.27-.91 1.44-1.19 2.12-.51.99.99-.23 2.48-1.51 1.83Zm-13.95-.47c.84-.83-.56-1.94-1.42-1.13-.33.31-.32.9.03 1.17.39.31 1.07.29 1.39-.04Zm15.23.05c.3-.29.3-.89 0-1.17-.9-.82-2.15.25-1.35 1.15.28.3 1.03.31 1.35.02Zm-14.02-4.19c-.03-.05-.51-.23-1.06-.41-1.15-.37-1.2-.46-.52-.91 1.19-.81 2.62-2.16 2.62-2.49 0-.04-.21-.13-.46-.19-1.53-.39-3.32-1.77-3.98-3.08-.38-.76-.2-.86 1.01-.53 1.2.32 3.41.35 3.71.05.11-.11-.21-.87-.53-1.3-.63-.83-.48-.97.75-.71 1.61.34 2.96 1.1 3.26 1.83l.14.33.53-.4c.58-.44 1.23-.7 1.76-.7h.35l-.27-.28c-.15-.15-.27-.37-.27-.49 0-.15-.12-.25-.45-.37-.54-.21-.68-.51-.36-.77l.22-.18-.37-.16c-.5-.21-1.04-.62-1.04-.8 0-.47 1.09-.41 1.93.1l.55.32.06-.38c.15-.93 1.22-.18 1.14.79-.05.53-.05.54.1.26.26-.51.42-.55.77-.19.35.34.34.97-.01 1.48-.22.32-.24.42-.15.7.27.88.16 1.97-.21 2.21-.28.17-.42-.04-.3-.48.12-.42.13-.42-.37-.16-.81.41-1.22.98-1.47 2.06-.49 2.13-2.01 3.24-4.48 3.28l-1.1.02-.64.82c-.62.8-.75.91-.86.73Zm.56-.89c.93-1.17.84-1.12 1.96-1.12 2.35 0 3.82-1.01 4.27-2.94.3-1.34.68-1.88 1.67-2.43.58-.32.52-.45-.3-.69-1.03-.3-2.11.04-2.91.92-.62.68-.71.68-.71 0 0-.86-.79-1.48-2.5-1.95-1.17-.33-1.27-.3-.9.21.33.45.62 1.3.54 1.53-.19.48-3.46.4-4.78-.11-.37-.14.35.95 1.04 1.58.68.62 1.76 1.21 2.83 1.54.51.16.57.2.57.45 0 .52-1.22 1.84-2.42 2.62-.59.37-.61.31.2.56.37.11.74.25.82.31.08.05.15.1.16.1s.21-.26.46-.58Zm8.29-8.07c.51-.27.81-.93.63-1.39-.15-.39-.44-.1-.44.44 0 .42-.15.44-.45.09-.22-.27-.25-.37-.19-.75.05-.33.02-.51-.1-.69-.27-.41-.46-.32-.46.2 0 .61-.2.67-.63.21-.41-.43-.93-.66-1.44-.65-.37.01-.35.02.45.4.91.43.96.51.5.79l-.32.19.45.2c.53.25 1.09.28 1.09.06 0-.35.37-.14.57.33.24.54.23.59-.09.39-.26-.16-1.08-.31-1.08-.2.02.46.91.68 1.51.38ZM18.75 3.06c3.96-1.34 9.58-1.32 13.59.04l.9.3h2.3l2.31-.01-.7-.36C30.28-.51 21.7-.68 14.95 2.59c-1.96.95-1.97.93.6.87 2.16-.06 2.22-.07 3.2-.4Zm2.05.13c2.75-.66 6.42-.68 9.59-.03 2.14.44 2.15.18 0-.3-3.07-.68-7.37-.6-10.51.19-.57.15-1.05.28-1.07.31-.13.12 1.26.01 1.99-.17Zm8.35.03c-1.13-.21-5.86-.21-7 .01-.77.14-.64.15 3.5.15 4.16 0 4.27-.01 3.5-.16Z"/></svg>