<svg xmlns="http://www.w3.org/2000/svg" width="51" height="51" viewBox="0 0 51 51"><path fill="#fff" fill-rule="evenodd" stroke="#fff" stroke-width=".456" d="M23.15 43.15C12.13 41.39 5.39 30.57 8.77 20.05c1.75-5.46 6.36-9.9 11.9-11.45 8.19-2.3 16.64 1.27 20.57 8.71 5.49 10.39-.54 23.21-12.08 25.65-1.53.33-4.56.42-6.01.19Zm4.16-.15c6.68-.68 12.35-5.11 14.72-11.5.19-.52.38-1.09.42-1.27l.06-.32-1.03-.03-1.03-.03-.47-.94c-.63-1.27-.69-1.71-.66-5.01l.03-2.75.9-.37c1.41-.57 1.35-.61 1.35.82v1.2h1.3l-.06-.27c-1.17-5.19-3.7-8.99-7.69-11.59-8.19-5.32-19.3-2.83-24.47 5.48C9.96 17.58 9 19.69 9 20.12c0 .04 1.44.08 3.2.08 2.48 0 3.22.03 3.25.13.03.06-.03.53-.13 1.02l-.18.9-1.32.03-1.32.03v2.58c0 1.42-.03 3.13-.07 3.79l-.06 1.22h-2.24l-.07-.77c-.03-.42-.06-2.13-.06-3.8V22.3H8.42l-.13.73c-.35 1.86-.13 5.18.48 7.27 2.34 8.13 10.24 13.53 18.54 12.7Zm-6.42-13.13c-3.09-1.05-3.36-5.6-.42-6.94.83-.38 2.23-.44 3.22-.14.82.25.81.25.48 1.21-.26.73-.1.67-1.47.55-1.32-.12-2.07.76-1.79 2.13.22 1.09.87 1.48 2.3 1.39.58-.04.89-.02.91.05.06.18-.16 1.57-.27 1.67-.37.34-2.05.39-2.96.08Zm13.43.12c-3.91-.77-4.19-6.23-.37-7.25 2-.54 4.07.25 4.76 1.82.28.62.45 1.87.31 2.19l-.12.25h-2.55c-1.4 0-2.55.04-2.55.08 0 .05.16.27.35.49.59.69 1.58.89 2.8.58.32-.09.62-.12.67-.07.09.09-.08 1.52-.2 1.64-.28.28-2.2.45-3.1.27Zm-18.57-.22c-.03-.06-.04-1.67-.03-3.57l.03-3.45 1.13-.03 1.12-.03v7.21h-1.1c-.8 0-1.12-.04-1.15-.13Zm7.68-.08c.29-.08.37-.15.37-.33 0-.13.03-.44.06-.68l.06-.46-.53.1c-1.62.3-2.79-.61-2.79-2.15 0-1.35 1.11-2.14 2.56-1.84l.61.13.2-.62.21-.63-.42-.16c-1.37-.56-3.58-.08-4.33.92-.79 1.08-.98 2.92-.4 4.01.82 1.56 2.51 2.22 4.4 1.71Zm1.25-3.07c-.01-1.8-.01-3.98 0-4.85l.04-1.58 1.06.03 1.07.03.05 2.6.05 2.6.41-.55c.22-.3.66-.92.98-1.38l.58-.83 1.16.03c.65.02 1.17.07 1.19.13.01.06-.42.66-.97 1.33-1.12 1.39-1.11 1.37-.7 1.46.53.1.74.47 1.35 2.29.32.94.6 1.78.63 1.85.03.1-.22.12-1.19.1l-1.23-.03-.31-1.07c-.46-1.55-.66-1.78-1.56-1.78h-.39v2.9h-2.18zm12.08 3.07c.49-.09.52-.12.58-.47.12-.75.08-.95-.16-.87-1.57.49-3.27-.12-3.62-1.31-.07-.24 1.02-.34 3.81-.34h1.43v-.52c0-2.12-1.33-3.34-3.65-3.32-2.34.02-3.6 1.19-3.6 3.34 0 2.76 2 4.1 5.21 3.49Zm-24.54-3.76.03-3.78 1.35-.05 1.34-.05.16-.83.16-.82-3.2.02-3.19.03-.19.65c-.29 1.03-.31.99.7 1.02l.87.03.03 3.78.02 3.77h1.9zm5.58.37v-3.4H16v6.8h1.8zm8.9 1.95V26.8h.6c1.08 0 1.34.3 1.82 2.1l.21.8h1.96l-.15-.49c-.32-1.09-1.03-2.93-1.2-3.12-.09-.1-.35-.22-.56-.25-.21-.04-.41-.1-.43-.15-.05-.08.59-.97 1.48-2.04l.5-.6-.88-.03c-1.13-.04-.98-.14-2 1.32-1.36 1.93-1.35 1.93-1.35-1.3V20.5h-1.8v9.2h1.8zm15.8 1.39c0-.03-.24-.53-.52-1.11l-.53-1.06-.04-1.53-.03-1.54h1.1l.15-.62c.2-.78.19-.78-.59-.78h-.64v-1.15c0-1.33.06-1.27-1-.86l-.75.28-.03 2.99c-.03 3.31 0 3.48.64 4.76l.34.68h.95c.52 0 .95-.03.95-.06Zm.51-2.64c.08-.81.09-1.64.04-2.35l-.09-1.1-.14.52c-.15.55-.27.63-.89.63h-.33v1.03c0 1.22.17 1.94.68 2.91l.37.7.12-.54c.07-.3.18-1.11.24-1.8Zm-9.46-1.77c.2-.8.77-1.23 1.64-1.23.94 0 1.61.51 1.61 1.23v.27h-3.32zm2.99-.01c.08-.13-.22-.7-.43-.81-.83-.45-2.31.03-2.31.75 0 .15 2.64.22 2.74.06Zm-20.8-3.35c-.03-.08-.04-.47-.02-.88l.03-.74 1.13-.03 1.12-.03V22h-1.1c-.83 0-1.12-.03-1.16-.13Zm2.06-.77v-.7H16v1.4h1.8z"/></svg>