<svg xmlns="http://www.w3.org/2000/svg" width="51" height="51" viewBox="0 0 51 51"><path fill="#fff" fill-rule="evenodd" stroke="#fff" stroke-width=".783" d="M23.07 40.7c-5.49-1-10.33-5.14-12.01-10.25-1.26-3.87-.94-8.29.86-11.9 3.75-7.47 12.91-10.54 20.53-6.86 10.61 5.12 11.64 19.97 1.85 26.59-3.18 2.15-7.55 3.09-11.23 2.42Zm5.49-.29c5.84-1.2 10.4-5.5 11.77-11.11 2.12-8.64-2.92-16.74-11.57-18.62-1.38-.3-4.63-.33-6.01-.05-6.28 1.28-10.77 5.84-12.02 12.22-.27 1.37-.24 4.36.05 5.72 1.41 6.52 6.71 11.26 13.52 12.07.85.1 3.29-.03 4.26-.23Zm-4.51-2.78c-7.54-1.02-12.29-8.64-9.94-15.93 2.24-6.95 10.37-10.33 17-7.05 6.12 3.02 8.45 10.36 5.26 16.59-2.28 4.46-7.32 7.07-12.32 6.39Zm4.35-.47c9.75-2.25 12.47-15.21 4.45-21.19-3.78-2.82-9.11-3.13-13.14-.78-8.64 5.05-7.72 17.76 1.54 21.44 2.24.89 4.77 1.08 7.15.53Z"/></svg>