<svg xmlns="http://www.w3.org/2000/svg" width="51" height="51" viewBox="0 0 51 51"><path fill="#fff" fill-rule="evenodd" stroke="#fff" stroke-width=".741" d="M21.28 39.55c-3.47-.58-6.48-3.28-7.33-6.55-.33-1.27-.09-1.33.68-.17 2.66 3.98 7.36 4.98 12.07 2.56.93-.48 2.3-1.41 2.3-1.56-.01-.05-.39-.34-.85-.67-1.81-1.26-1.81-1.25 2.13-1.25 3.83 0 3.63-.06 3.4 1-.09.41-.4 1.84-.68 3.19-.68 3.17-.69 3.2-.83 3.2-.07 0-.32-.56-.56-1.25s-.45-1.25-.48-1.25-.22.15-.43.32c-2.19 1.88-6.35 2.95-9.42 2.43Zm4.17-.4c1.82-.38 3.2-.96 4.72-2.01.51-.35.99-.64 1.07-.64s.28.42.51 1.07c.21.59.4 1.03.41.98.31-1.16 1.33-6.2 1.26-6.27-.04-.04-1.42-.07-3.06-.06l-2.98.03 1.01.73c.56.41 1.01.77 1.01.82 0 .16-1 .96-1.79 1.44-3.84 2.32-8.25 2.32-11.18 0-.67-.53-1.17-1.05-1.79-1.88-.24-.32-.44-.56-.44-.54 0 .4.77 2.02 1.35 2.83 2.13 3 5.88 4.33 9.9 3.5Zm-17.07-7c-.06-.06.23-1.63 1.16-6.27l.72-3.58h-.48c-.63 0-.65-.08-.42-1.23l.19-.92.54-.05c.34-.03.57-.11.62-.2.05-.08.25-.51.46-.95 1.18-2.49 4.03-3.62 6.87-2.73.5.16.51.21.26 1.33-.24 1.06-.22 1.05-1.04.8-.59-.18-1.75-.2-2.11-.03-.26.12-.7.89-.81 1.43l-.05.3 1.16.01c.64.01 1.19.04 1.22.07.08.09-.37 1.96-.5 2.04-.06.04-.58.07-1.15.08-.71.01-1.06.06-1.12.14-.04.07-.24.99-.45 2.04-1.04 5.33-1.46 7.44-1.51 7.59-.05.17-3.4.29-3.56.13Zm3.35-.47c.03-.13.47-2.32.97-4.88.68-3.46.95-4.68 1.08-4.78.13-.11.43-.13 1.19-.09l1.03.05.11-.42c.05-.22.14-.57.2-.76.05-.19.09-.38.09-.42 0-.05-.54-.08-1.2-.08-1.39 0-1.35.05-.99-1.03.43-1.3 1.44-1.7 3.08-1.21.29.08.54.14.56.12.07-.09.34-1.51.3-1.58-.11-.19-1.17-.35-2.2-.34-2.19.02-3.62.93-4.56 2.93-.23.47-.45.93-.49 1.01-.04.1-.25.16-.58.18l-.51.03-.16.7c-.19.85-.17.89.46.89.27 0 .49.04.49.09s-.11.6-.24 1.23c-.55 2.53-1.66 8.2-1.66 8.45 0 .1.31.13 1.49.13 1.46 0 1.49 0 1.54-.22Zm6.03-1.93c-2.79-.71-3.63-3.06-2.13-6 1.25-2.47 3.66-3.93 6.32-3.83 2.35.09 3.63 1.16 3.73 3.08.2 3.95-4.19 7.69-7.92 6.75Zm10.65.05c-2.91-.62-3.78-2.97-2.24-6.1 1.65-3.38 6.14-4.92 8.82-3.03 1.49 1.05 1.61 3.46.28 5.73-.46.78-1.99 2.28-2.72 2.67-1.29.68-2.98.97-4.14.73Zm8.87-.04c-2.5-.89-2.12-4.8.75-7.83 1.31-1.38 2.56-1.97 4.18-1.96h.96l.43-1.91c.24-1.05.47-1.97.53-2.04.07-.09.51-.12 1.76-.1l1.66.03-.01.35c-.01.31-2.26 11.61-2.57 12.85l-.12.5h-3.4l.01-.35c.01-.19.04-.51.09-.7l.08-.35-.34.32c-1.15 1.07-2.9 1.59-4.01 1.19Zm-33.54-.2c-.07-.18 1.74-9.28 1.87-9.41.1-.1 3.38-.09 3.48.01.08.08-1.78 9.26-1.9 9.4-.17.21-3.37.2-3.45 0Zm16.6-.16c2.83-.72 5.06-3.43 5.06-6.15 0-1.35-.46-2.07-1.69-2.68-.65-.32-.68-.32-2.06-.32-1.58.01-2.12.16-3.35.96-2.87 1.85-4.07 5.86-2.22 7.39 1.11.92 2.66 1.21 4.26.8Zm10.41.05c2.91-.74 5.16-3.5 5.15-6.32-.01-1.28-.47-1.99-1.7-2.57-.89-.42-2.91-.46-4.03-.07-3.61 1.24-5.83 6.26-3.59 8.11 1.06.87 2.73 1.21 4.17.85Zm9.08-.27c.41-.2 1-.59 1.31-.87.81-.73 1-.65.72.33-.09.3-.16.59-.16.65 0 .13 2.86.16 2.93.04.03-.05.62-2.92 1.32-6.38.7-3.47 1.3-6.4 1.32-6.52l.05-.23h-1.51c-.83 0-1.51.02-1.51.05 0 .09-.91 4.1-.94 4.12-.01.02-.28-.02-.59-.08-2.63-.53-5.79 2.15-6.67 5.68-.72 2.87 1.11 4.45 3.73 3.21Zm-32.79.05c.06-.2 1.76-8.76 1.76-8.88 0-.13-2.9-.01-2.99.13-.07.11-1.81 8.63-1.81 8.85 0 .18 2.98.08 3.04-.1ZM5.85 18.8c-.06-.1.38-2.29.55-2.68.09-.22.13-.22 1.73-.22 1.02 0 1.67.04 1.74.11.1.1-.08 1.05-.48 2.52l-.1.37H7.6c-1 0-1.71-.04-1.75-.1Zm3.34-.62c.17-.66.41-1.72.41-1.86 0-.09-.36-.12-1.49-.12H6.63l-.23 1.08c-.12.59-.25 1.13-.27 1.2-.04.09.29.12 1.45.12h1.49z"/></svg>