<svg xmlns="http://www.w3.org/2000/svg" width="51" height="51" viewBox="0 0 51 51"><path fill="#fff" fill-rule="evenodd" stroke="#fff" stroke-width=".764" d="M20.66 43.12c-.05-.09 1.04-2.49 3.26-7.12 3.63-7.56 3.95-8.37 3.63-8.99-.28-.55-.34-.55-6.29-.61l-5.5-.05-.41-.7c-.23-.38-.93-1.6-1.55-2.7s-2.29-4.02-3.7-6.5c-3.66-6.42-4.7-8.3-4.7-8.55v-.21l5.77.03c8.27.05 7.65-.29 10.88 5.91 1.82 3.49 6.09 11.42 6.27 11.65.25.29.48.13.8-.55.63-1.4 1.73-3.84 2.53-5.63.46-1.02 1.3-2.91 1.88-4.2 1.71-3.83 2.42-5.4 2.87-6.32l.42-.88h4.29c2.59 0 4.3.04 4.34.09.03.06-.77 1.91-1.79 4.13-1.76 3.85-4.01 8.78-9.81 21.48-1.44 3.16-3.04 6.66-3.56 7.78l-.93 2.02h-4.32c-2.38 0-4.35-.04-4.38-.08Zm8.51-.24c.12-.16 1.78-3.73 4.78-10.33 1.23-2.69 2.64-5.8 3.15-6.9.5-1.1 2.01-4.41 3.35-7.35s2.95-6.46 3.58-7.82c1.07-2.31 1.13-2.47.93-2.52-.28-.08-7.36-.08-7.74 0-.34.07-.23-.17-4.07 8.44-1.17 2.61-2.59 5.77-3.15 7.03l-1.03 2.27h-.33c-.24 0-.38-.07-.52-.27-.39-.57-4.02-7.29-6.46-11.97-2.6-4.98-2.88-5.24-6.06-5.48-1.37-.1-9.73-.08-9.84.03-.08.08.58 1.3 3.94 7.19 1.58 2.78 3.62 6.36 4.53 7.95l1.64 2.9 5.44.05c5.95.05 5.9.05 6.37.65.55.69.02 2.08-3.53 9.4-.97 1.99-2.27 4.74-2.91 6.13l-.33.72h4.08c3.15 0 4.11-.03 4.18-.12Z"/></svg>