<svg xmlns="http://www.w3.org/2000/svg" width="51" height="51" viewBox="0 0 51 51"><path fill="#fff" fill-rule="evenodd" stroke="#fff" stroke-width=".48" d="M18.2 44.79c-.3-.12-11.55-11.32-11.76-11.71-.2-.38-.17-.97.05-1.35.32-.51 12.08-12.25 12.25-12.21.23.05 12.96 12.68 12.96 12.86 0 .22-11.95 12.18-12.36 12.37-.36.17-.77.18-1.14.04Zm17.07.05c-.03-.03-.03-.44 0-.9s.04-.84.01-.84c-.07 0-1.66.29-1.97.36-.25.05-.26-.11-.06-.81.04-.16-.15-.36-1-1.04-1.11-.9-1.26-1.14-.74-1.25.2-.04.29-.1.26-.18-.66-1.51-.66-1.56.21-1.34.76.2.69.22.86-.19.2-.47.26-.45.87.3.29.36.54.64.55.62.02-.02-.06-.45-.17-.97-.25-1.15-.34-1.8-.25-1.8.04 0 .24.09.46.2s.42.2.44.2c.03 0 .22-.36.42-.8.45-.99.52-.99.93-.05.4.91.39.9.89.62.51-.28.58-.2.43.46-.35 1.49-.48 2.18-.41 2.15.04-.02.29-.29.54-.6.54-.66.7-.71.85-.27.09.26.15.3.33.25.52-.14 1.28-.19 1.28-.08 0 .06-.11.37-.25.69-.28.63-.27.8.06.85.43.06.29.26-.81 1.18-.82.68-1.09.97-1.05 1.09.3.77.22.81-1.12.56-.43-.08-.79-.15-.81-.15-.01 0-.02.41-.02.9v.9h-.33c-.19 0-.36-.03-.4-.06Zm-12.45-.11c-.16-.06-.42-.56-.42-.82 0-.69 1.05-1.07 1.55-.56.71.7-.17 1.77-1.13 1.38Zm12.97-.9c-.04-1.06.09-1.1 1.88-.66.21.05.22.03.12-.26-.16-.44-.12-.49 1-1.42l1.01-.84-.3-.08c-.36-.09-.37-.12-.04-.88.3-.73.33-.69-.37-.56-.66.12-.89.06-.89-.23 0-.31-.12-.24-.55.31-.48.6-.68.74-.84.55-.11-.13.14-1.66.39-2.38.11-.33.1-.34-.32-.08-.46.28-.45.29-.87-.6l-.37-.8-.34.71c-.44.9-.48.93-.95.68-.25-.14-.36-.16-.33-.07.03.07.15.63.28 1.25.34 1.64.21 1.79-.64.78l-.54-.64-.11.29c-.11.33-.27.36-1 .19-.55-.12-.54-.14-.26.51.31.7.31.78 0 .92s-.29.17.86 1.09c.92.73 1.03.93.79 1.4-.13.23-.15.23.83.04 1.34-.26 1.28-.29 1.27.68-.02 1.04-.03.97.16.97.13 0 .15-.13.13-.87Zm-16.4.63c.15-.08 2.94-2.83 6.19-6.11l5.9-5.95-6.36-6.35-6.37-6.34-5.98 5.97C6.8 31.64 6.5 31.96 6.5 32.45s.29.81 5.97 6.48l5.68 5.67h.48c.26 0 .61-.06.76-.14Zm4.16.08c.14-.06.13-.08-.05-.21-.16-.12-.24-.12-.35-.03-.3.25-.04.4.4.24Zm-.55-.35c.09-.15.08-.24-.01-.35-.23-.28-.43-.06-.28.34.1.27.15.28.29.01Zm.95-.1c.15-.45-.66-1.02-.98-.7-.12.12.32.53.47.44.04-.03.03-.09-.04-.13-.08-.05-.05-.09.09-.13.27-.07.33.02.16.26-.11.15-.12.24-.03.34.15.19.26.16.33-.08Zm-1.22-8.4c-2.65-.5-3.67-3.67-1.79-5.55 2.11-2.11 5.63-.62 5.6 2.37-.02 1.49-1.2 2.91-2.59 3.14-.22.03-.49.08-.6.09-.11.02-.39 0-.62-.05Zm-9.55-.09c-1.75-.53-2.76-2.83-1.97-4.51 1.5-3.2 6.22-2.21 6.24 1.31.01 2.24-2.14 3.84-4.27 3.2Zm2.3-.39c2.08-1.06 2.41-3.67.66-5.15-1.95-1.63-4.97-.18-4.98 2.39-.01 2.2 2.41 3.74 4.32 2.76Zm8.86.08c2.06-.77 2.63-3.43 1.07-5-1.92-1.91-5.21-.58-5.21 2.1 0 2.16 2.13 3.66 4.14 2.9Zm1.49-10.05c-3.54-3.54-6.43-6.46-6.43-6.51 0-.12 12.12-12.19 12.37-12.32.34-.17 1.04-.13 1.38.08.27.16 6.17 6.01 10 9.91 1.69 1.71 1.85 1.98 1.64 2.75-.12.46-12.1 12.57-12.39 12.53-.08-.01-3.04-2.91-6.57-6.44Zm12.58.29c3.23-3.24 5.94-5.99 6.03-6.13.2-.3.21-.92.02-1.28-.18-.33-11.22-11.35-11.53-11.51-.32-.16-.84-.13-1.14.07-.2.13-12.08 12.01-12.09 12.09-.01.06 12.67 12.63 12.75 12.63.06 0 2.74-2.64 5.96-5.87Zm-6.61-3.57c-2.35-.5-3.42-3.26-2-5.19 1.39-1.89 4.41-1.65 5.55.44 1.28 2.36-.93 5.31-3.55 4.75Zm1.94-.46c2.41-1.22 2.29-4.67-.21-5.6-2.6-.97-5.06 1.71-3.82 4.18.75 1.5 2.58 2.15 4.03 1.42Z"/></svg>