<svg xmlns="http://www.w3.org/2000/svg" width="51" height="51" viewBox="0 0 51 51"><path fill="#fff" fill-rule="evenodd" stroke="#fff" stroke-width=".458" d="m8.68 35.27-.03-4.82-1.83-.03-1.83-.02.03-.83.03-.82 4.67-.03 4.68-.02.05.23c.04.12.05.5.03.82l-.03.6-1.87.03-1.88.02v9.7h-2zm6.39 4.76c-.03-.04.58-1.56 1.34-3.38.77-1.81 1.78-4.24 2.25-5.4 1.13-2.77.96-2.55 1.99-2.55.78 0 .86.02 1 .24.16.24 1.53 3.44 2.45 5.71.27.66.85 2.08 1.29 3.14 1.03 2.49 1.05 2.31-.17 2.31h-.98l-1.63-3.96c-.9-2.19-1.7-4.17-1.78-4.4-.08-.24-.18-.44-.22-.44-.06 0-1.93 4.62-1.88 4.67.02.01.44.05.95.09l.92.07.41.54c.6.79.57.81-1.24.75-1.81-.05-1.56-.22-2.25 1.48l-.47 1.15-.97.03c-.53.01-.99-.01-1.01-.05Zm13.03-.06c0-.16 3.04-4.18 3.24-4.29.15-.08.29.08.65.79.29.57.33.45-.8 2.13l-1.02 1.5h-1.03c-.8 0-1.04-.03-1.04-.13Zm6.89-1.24a908 908 0 0 1-6.03-8.85c-.78-1.2-.79-1.19.51-1.16l1.08.03 1.29 2.08 1.28 2.07.9-1.47c.49-.81 1.09-1.75 1.32-2.08l.42-.6.97-.03c.79-.02.98 0 1.03.12.06.15-.46.94-2.58 3.98-.48.69-.88 1.31-.88 1.37s.82 1.34 1.82 2.84c1.01 1.49 1.84 2.8 1.86 2.9.03.15-.07.17-1 .17h-1.04zm7.13-4.3.03-5.68h1.9v11.3l-.98.03-.97.03zm-31.62.62V30.2h3.7v-1.3H5.3v1.3h3.6v9.59l.43.04c.23.02.59.04.79.05l.38.02zm6.48 4.48c.11-.21.36-.82.57-1.35l.38-.98 1.59-.02 1.6-.03-.4-.42-.39-.43h-1.02c-.57 0-1.01-.03-.99-.07.02-.05.49-1.25 1.06-2.68s1.1-2.66 1.17-2.74c.16-.16.11-.24.65 1.19.26.68.81 2.04 2.6 6.38l.62 1.52h1.57l-.68-1.67c-.65-1.58-3.19-7.72-3.63-8.75l-.2-.48h-1.64l-.53 1.33c-.78 1.91-3.37 8.11-3.72 8.86-.16.35-.29.65-.29.67s.34.04.75.04h.75zm13.35-.1c.82-1.15 1.57-2.32 1.57-2.47 0-.22-.38-.96-.49-.96-.04 0-.7.82-1.46 1.83-.76 1-1.43 1.88-1.48 1.95-.07.09.08.12.71.12h.8zm7.37.42c0-.02-.83-1.28-1.85-2.79S34 34.27 34 34.2c0-.06.64-1.04 1.43-2.18l1.76-2.54.32-.48h-1.69l-1.26 2.03a369 369 0 0 1-1.34 2.17c-.12.19.03.39-1.47-2.03-1.45-2.36-1.27-2.19-2.29-2.15l-.77.03 1.42 2.1c1.95 2.89 5.47 8.03 5.76 8.43.24.31.25.32 1.04.32.43 0 .79-.02.79-.05Zm6.1-5.45v-5.51l-.72.03-.73.03-.03 5.48-.02 5.47h1.5zM11 25.79c0-.07.52-.93 1.16-1.93 4.71-7.35 4.21-6.67 4.96-6.74.37-.03.64.01.84.11.45.24 8.26 7.68 8.32 7.94.06.24-.09.14-.82-.53-.39-.37-1.32-1.17-2.06-1.77-.74-.61-2.25-1.88-3.35-2.82-1.1-.93-2.15-1.82-2.33-1.98-.39-.31-.94-.36-1.3-.12-.22.16-1.78 2.48-4.02 5.99-1.16 1.82-1.4 2.14-1.4 1.85Zm30.23-.7c-.32-.29-1.92-1.82-3.56-3.41l-2.97-2.9-1.03.18c-4.31.76-8.31-.5-11.34-3.58-3.38-3.43-4.57-8.55-3.01-12.97C19.82.99 20.38 0 20.67 0c.15 0 .15.02.01.18-.09.09-.34.53-.56.97-3.29 6.61.33 14.96 7.48 17.23 1.77.56 4.29.67 6.4.28l.75-.14 1.2 1.17c6.25 6.06 5.81 5.67 6.11 5.51.33-.18.37.05-.92-5.22-1.19-4.86-1.14-4.55-.73-4.94C43.9 11.73 44.83 4.83 42.35.67c-.4-.66-.4-.67-.21-.67.2 0 1.12 1.91 1.41 2.94 1.18 4.16.11 8.94-2.65 11.91-.41.44-.59.71-.56.83.06.19 1.6 6.48 2.01 8.2.29 1.23.28 1.29-.27 1.58-.27.14-.29.13-.85-.37Zm-2.5-5.26c-1.15-1.7-1.47-2.29-1.13-2.08.14.09 2.52 3.66 2.57 3.86.12.46-.21.05-1.44-1.78Zm-17.38.86c-1.09-1.12-3.32-3.13-3.61-3.25-.3-.12-1-.09-1.08.05-.02.03.16.07.4.07.52.02.47-.02 2.89 2.07.99.86 1.82 1.56 1.85 1.56.02.01-.18-.22-.45-.5Zm8.6-9.18c-3.96-1.14-5.3-6.01-2.45-8.88 3.41-3.44 9.25-1.07 9.22 3.73-.01 3.52-3.43 6.11-6.77 5.15Zm2.98-.33c3.51-1.07 4.73-5.51 2.27-8.22-3.06-3.34-8.63-1.47-8.96 3.03-.27 3.6 3.17 6.26 6.69 5.19Z"/></svg>