<svg xmlns="http://www.w3.org/2000/svg" width="51" height="51" viewBox="0 0 51 51"><path fill="#fff" fill-rule="evenodd" stroke="#fff" stroke-width=".709" d="M15.5 48.44c-2-.52-3.59-2.11-4.17-4.14-.28-1.01-.28-35.12 0-36.04.64-2.07 2.25-3.59 4.26-4.02 1.02-.21 21.38-.2 22.3.01 4.2.99 5.66 6.09 2.61 9.16-1.67 1.69-1.65 1.69-10.72 1.69H22.5v1.68c0 .93-.03 2.37-.07 3.2l-.06 1.52h5.84c7.24 0 7.45.04 9 1.59 3.09 3.09 1.51 8.35-2.79 9.26-.53.12-1.8.15-6.3.15-4.42 0-5.62.03-5.63.12l-.02 5.73-.02 5.6-.26.72c-1.04 2.84-3.96 4.49-6.69 3.77Zm2.81-.34c1.82-.56 3.37-2.2 3.78-4 .07-.28.11-2.61.11-6.17v-5.72l6.13-.03 6.12-.03.69-.28c4.64-1.85 4.59-7.97-.08-9.85-.36-.15-1.15-.18-6.61-.22l-6.2-.05-.03-3.47-.02-3.48h7.52c8.3 0 8.23 0 9.42-.63 4.12-2.18 3.41-8.26-1.11-9.6-.8-.24-21.7-.26-22.56-.03-1.79.49-3.22 1.78-3.79 3.44l-.23.67v35.3l.26.72c1 2.73 3.94 4.26 6.6 3.43Zm-2.58-1.54a4.13 4.13 0 0 1-2.41-2.14l-.27-.57-.03-6.73c-.03-7.17-.03-7.04.44-6.5.3.33 1.43 1.03 2.09 1.28.55.21.8.24 2.83.28l2.23.04-.03 5.77-.03 5.76-.32.67c-.81 1.72-2.84 2.69-4.5 2.14Zm2.34-.38c.7-.26 1.51-1.01 1.88-1.75l.3-.58.03-5.72.03-5.71-2.23-.04-2.23-.03-.79-.38c-.43-.2-1-.53-1.26-.72s-.49-.35-.51-.35c-.1 0-.1 12.09 0 12.57.45 2.27 2.62 3.5 4.78 2.71Zm-1.9-15.29c-.62-.15-1.37-.58-1.89-1.1-2.1-2.1-1.24-5.53 1.64-6.6l.63-.24 8.35-.03c9.02-.03 9.2-.02 10.23.49 3.2 1.62 2.91 6.11-.48 7.38-.55.21-.69.21-9.33.2-4.82-.01-8.94-.05-9.15-.1Zm17.68-.18c4.15-.6 4.33-6.46.23-7.41-.59-.13-16.77-.13-17.49 0-4.32.81-4.21 6.83.13 7.39.86.11 16.38.13 17.13.02ZM13 18.35c0-3.65.03-5.15.11-5.15.06 0 .29.15.5.34 1.19 1.01 2.14 1.26 4.92 1.26h2.07l-.02 3.48-.03 3.47-2.3.05c-2.73.07-3.06.16-4.53 1.24-.34.25-.64.46-.67.46S13 21.18 13 18.35Zm.79 4.31c1.3-.94 2.16-1.16 4.64-1.16h1.87v-6.4h-1.73c-2.62-.01-3.45-.19-4.72-1.06l-.65-.45v4.71c0 2.58.03 4.7.06 4.7.04 0 .27-.15.53-.34Zm2.53-9.17c-3.38-.59-4.38-5.07-1.54-6.87 1.96-1.25 4.5-.48 5.5 1.66.26.56.27.62.3 2.9l.04 2.32h-1.39c-.76 0-1.61.02-1.88.04-.28.03-.74.01-1.03-.05Zm5.93-.01c-.02-.07-.06-1.19-.08-2.48-.05-2.9-.22-3.56-1.19-4.73-.26-.31-.37-.52-.31-.58s3.27-.09 8.49-.07l8.39.03.67.32c2.1.99 2.97 3.29 1.99 5.28-.64 1.3-1.71 2.08-3.09 2.26-1.13.14-14.82.11-14.87-.03Zm-1.97-2.45c-.03-2.18-.04-2.3-.27-2.78-1.21-2.44-4.73-2.62-6.18-.32-1.2 1.91-.08 4.6 2.17 5.21.39.1 1.11.15 2.43.15l1.88.01zm17.84 1.95c2.64-1.23 3.01-4.81.66-6.38-1.18-.78-.33-.74-13.85-.71L21 5.9l.37.48c.86 1.13 1.03 1.88 1.03 4.69v2.24l7.58-.03 7.57-.03z"/></svg>