<svg xmlns="http://www.w3.org/2000/svg" width="51" height="51" viewBox="0 0 51 51"><path fill="#fff" fill-rule="evenodd" stroke="#fff" stroke-width=".568" d="M19.62 37.61c-1.08-.28-1.71-.81-2.29-1.94-.17-.34-.3-.44-1.09-.76-.49-.21-2.02-.94-3.41-1.63-2.69-1.35-3.08-1.48-4.36-1.48-1.24 0-1.45-.18-2.1-1.76-.3-.75-.71-2.33-.87-3.34-.06-.41-.16-.83-.22-.94-.19-.36-.22-2.36-.05-2.97.36-1.22.82-1.6 2.37-1.94 1.42-.31 1.6-.42 1.6-.95 0-.22-.04-.4-.09-.4-.1 0-3.55.82-4.29 1.01-.49.14-.49.12-.17.91.14.34.23.63.21.65-.05.05-.85-.27-1.13-.45-.26-.16-.76-1.39-.77-1.91l-.01-.36.7-.18c1.42-.35 7.44-1.67 8.85-1.92 1.87-.35 1.74-.3 1.55-.59-.28-.43-.16-.9.25-.99 3.82-.85 12.16-2.34 12.32-2.2.24.22.23.62-.03.89-.32.34-.19.54.37.54 1.61 0 4.23.71 6.4 1.75 1.33.63 1.37.64 1.28.31-.14-.59 0-.69.91-.64 1.45.08 1.65.83.41 1.46l-.4.19.5.23.49.22 1.2-.17c3.91-.56 5.66-.16 7.5 1.69 1.79 1.81 3.04 4.61 3.46 7.77.13.95.13.96.48 1.15.52.28.51.54-.03 1.33-.74 1.09-1.2 1.48-1.56 1.34-.27-.1-.39-.07-1.03.22-2.22 1.02-7.07 2.56-9.9 3.14-.85.17-1 .24-1.56.69-.55.44-.68.5-1.24.55-.34.03-1.52.15-2.62.26-2.87.29-4.69.41-6.42.41-1.38 0-1.55.02-1.72.19-.46.46-2.62.84-3.49.62Zm1.83-.57c1.48-.24 1.57-.34.46-.49-.73-.1-.94-.32-.86-.89.06-.4-.29-2.93-.43-3.06-.03-.03-.02.27.01.65.17 1.92-.51 3.46-1.6 3.64l-.38.07.45.17c.49.17.8.16 2.35-.09Zm-1.82-.61c1.75-1.56-.05-9.53-2.16-9.53-1.54 0-1.88 3.38-.68 6.92.85 2.52 1.87 3.46 2.84 2.61Zm4.85-.12c.22-.06.19-.11-.51-.79-.93-.9-1.53-1.02-1.84-.37-.21.44-.24.41.75.55.85.11 1.32.26 1.32.42 0 .11-.05.11-1.48-.08-1.1-.14-1.45-.14-1.31.01.21.2 2.56.41 3.07.26Zm-5.97-.19c-1.46-.74-2.77-6.16-1.9-7.85 1.12-2.17 3.31 1.23 3.33 5.18.02 2.32-.44 3.18-1.43 2.67Zm9.89-.02c.91-.06 2.37-.17 3.25-.26l1.6-.15.35-.38c.19-.21.63-.7.97-1.09.45-.5.72-.72.95-.77.39-.09 4.39-1.25 5.48-1.6 3.91-1.24 5.12-1.56 5.41-1.44.16.06.32.09.36.06.07-.08-1.18-2.63-1.47-2.99l-.2-.26-.73.2c-4.01 1.11-7.86 2.22-8.04 2.34-.11.07-.27.3-.34.51-.46 1.43-2.15 4.42-2.78 4.96-.44.37-3.25.67-6.31.67h-1.75l-.7-.74-.7-.74-.9-.05-.9-.05.8.13.8.14.79.86.8.86.8-.06c.45-.03 1.55-.1 2.46-.15Zm1.75-.5c1.64-.14 2.67-.3 2.84-.43.28-.23 1.34-1.94 1.82-2.92.59-1.22.64-1.48.08-.45-1.44 2.65-1.69 2.86-3.51 2.99-1.42.11-3.61.13-3.26.04.13-.03-.06-.32-.84-1.26-.98-1.2-2.18-2.89-2.18-3.08 0-.06.68-.09 1.68-.09.92 0 2.37-.04 3.22-.1 2.7-.17 4.66-.34 4.48-.38-.09-.02-1.14.04-2.32.12-1.19.09-3.33.16-4.76.16h-2.59l-.57-.82c-.47-.7-1.16-1.31-1.3-1.15-.06.07 1.85 2.92 2.97 4.44.73.98 1.52 2.06 1.77 2.41.53.72.4.69 2.47.52Zm-2.41-.12c-.04-.07-.77-1.05-1.62-2.17s-1.96-2.68-2.48-3.46l-.92-1.42-.49-.06c-1.42-.18-2.83-.3-2.87-.26-.03.03.14.43.38.89.47.92 1.08 2.51 1.52 3.95.33 1.09.22 1.01 1.52 1.08l1.07.06.69.75.7.76h1.29c1 0 1.27-.03 1.21-.12Zm10.52-1.33c2.62-.65 8.21-2.55 8.4-2.86.09-.15-.24-.59-.43-.59-.09 0-1.5.4-3.12.89-1.63.5-3.93 1.17-5.11 1.51-2.47.71-2.35.64-2.12 1.12.22.47.19.47 2.38-.07Zm-21.92-.33c-1.02-.89-2.09-1.63-4.05-2.8-.91-.55-1.35-.63-2.42-.46l-.38.07.78.45c1.8 1.03 6.62 3.21 6.07 2.74Zm-.23-1.26-.18-.59-.99-.52c-.95-.49-1.38-.75-3.97-2.35l-1.18-.73-.83.19-.83.18.17.78c.21.95.14.89.8.72 1.08-.28 2.09-.19 2.92.25 1.13.59 3.17 1.89 3.73 2.37.58.5.61.48.36-.3Zm2.55-.51c-.06-.98-.18-1.33-.48-1.44-.45-.17-.67.39-.29.73.21.19.34.56.2.56-.04 0-.15-.12-.23-.28-.18-.33-.19-.28-.05.37.07.36.19.58.41.76.43.36.51.25.44-.7Zm18.19.15c-.11-.18-.45-1.91-.4-2.01.22-.35.37-.09.56.91.15.8.16.83.65.71.23-.05.3-.09.17-.1-.26-.01-.42-.48-.46-1.33l-.02-.53 3.4-.97c1.87-.53 3.43-.94 3.47-.9s.09.45.11.92l.03.85.02-.91c.02-.86.15-1.27.35-1.07.08.08.09 1.8.01 2.09-.07.28-1.83.87-5.77 1.95-1.95.53-2.03.54-2.12.39Zm-28-.85c.38-.04.74-.09.78-.12.15-.09-.67-.52-1-.53-.37 0-.31.13-.74-1.75-.34-1.52-.68-2.7-.75-2.62-.02.02 0 .17.07.33.5 1.3.82 3.95.54 4.44-.21.36-.18.42.13.36.15-.02.59-.08.97-.11Zm6.9-.16c-.03-.08-.6-.5-1.28-.94-.67-.44-1.59-1.08-2.04-1.41-.77-.58-1.33-.76-1.33-.43 0 .16 4.57 3.06 4.67 2.96.02-.02.01-.1-.02-.18Zm25.7-.79c2.81-.82 2.55-.68 2.55-1.41v-.61l-.27.07c-.16.03-1.56.43-3.13.88l-2.85.82.03.5c.06.88-.23.9 3.67-.25Zm6.98.14c.73-.9.93-1.3.68-1.44-.32-.16-.36-.13-.86.63-.26.39-.57.82-.68.95-.2.22-.2.22-.01.37.26.2.33.16.87-.51Zm-32.95-.46c-.45-1.76-.58-2.66-.58-3.95v-1.29l-.74-.43c-1.28-.73-3.17-1.54-3.3-1.41-.23.23-.19 1.69.07 2.86.39 1.71.56 2.03 1.46 2.73.56.43 3.19 2.21 3.27 2.21 0 0-.08-.33-.18-.72Zm32.3-.4c.73-1.14.72-1.56-.02-.75-.77.83-.92.76-1.7-.81-.15-.28-.29-.52-.31-.52-.03 0 .11.33.31.73.2.39.52 1.05.7 1.45.41.89.38.89 1.02-.1Zm-12.16-.18c.23-.17.65-.37.92-.45.28-.08 2.29-.65 4.46-1.26 2.17-.62 4.1-1.13 4.27-1.13.55 0 .56-.48.04-1.54-.46-.92-.66-1.08-.27-.21.36.82.4 1.12.19 1.31-.17.15-2.02.71-6.98 2.13-2.2.63-2.5.75-2.82 1.14l-.21.26-.24-.22c-.62-.58-3.38-1.93-3.38-1.65 0 .21-3.98.61-6.12.62-.84 0-.88.07-.27.49l.48.33 4.1-.12 4.09-.12.47.23c.25.13.51.29.57.36.15.19.23.17.7-.17Zm-.27-.3c.12-.19.79-.41 4.4-1.45 5.64-1.61 5.35-1.51 5.35-1.84 0-.31-.78-2.28-1.35-3.42-.47-.92-.4-.99.1-.09.42.73.54.85.31.29-.24-.6-.3-.87-.13-.67.12.16.15.08.25-.64.07-.45.21-.96.32-1.15l.19-.33-.49-.39c-1.35-1.06-3.11-1.42-5.37-1.1-.87.13-1.28.28-.77.29.85.01 2.94.77 3.54 1.29.16.13-.03.07-.5-.18-1.29-.68-3.39-1.15-4.33-.97-.51.1-.41.2.51.5 2.46.82 4.35 2.34 5.69 4.57.94 1.57.95 1.51-.29 1.84-.57.16-2.33.65-3.92 1.11l-2.89.83-.82-.64c-2.29-1.79-6.4-3.86-9.35-4.71-1.04-.29-1.37-.29-4.3-.01l-1.25.13.8.07c3.39.33 8.07 1.95 11.18 3.89.92.56 3.28 2.3 3.22 2.37-.05.04-.13-.01-1.75-1.18-3.25-2.35-7.5-4.06-11.61-4.66-1.53-.22-2.08-.18-.74.06 4.95.87 11.05 3.39 12.6 5.2.19.22.18.22-.15-.02-4.12-3.04-10-5.08-15.21-5.26-1.58-.06-2.46.07-1.54.22 1.36.21 2.74.88 3.75 1.82.56.51.62.54.78.4 1.14-1.02 7.35.21 10.79 2.13.77.44 2.5 1.57 2.57 1.69.09.14.33.14.41.01Zm-19.42-2.54c.52-1.14 1.8-.77 2.92.84.29.41.85.6.71.24-.32-.84-1.6-2.22-2.3-2.49-1.18-.45-2 1.06-1.78 3.28l.06.62.08-.98c.05-.71.14-1.13.31-1.51Zm-2.58 1.81c-1.01-1.06-1.45-3.6-.71-4.12l.28-.21.44.44c.69.67.98 1.4 1.24 3.08.21 1.33-.38 1.71-1.25.81Zm34.87-.89c-.05-.98-.8-3.68-1.02-3.68-.07 0-.91 2.12-.86 2.17.02.02.15-.24.29-.59.31-.77.44-.79.79-.08.34.68.51 1.56.46 2.37-.04.61-.03.62.17.49.17-.12.2-.23.17-.68Zm-39.43.61c.66-.14.66-.13.26-1.1l-.34-.84-.58.03c-.71.04-.66-.05-.44.78.11.38.22.81.25.97.07.3.14.32.85.16Zm1.36-1.02c-.63-1.63-.88-2.67-.89-3.69-.01-.99-.04-1.02-.53-.53-.34.34-.35.38-.29.9.14 1.24 1.21 3.96 1.68 4.29.46.32.46.16.03-.97Zm18.3.85c.6-.05.09-.08-2.1-.12-3.12-.06-3.22-.07-3.71-.62-.48-.52-.61-1.23-.3-1.57.59-.65 4.67-.07 7.71 1.09 1.16.44 1.53.56 1.45.47-.26-.28-3.95-1.47-5.53-1.79-1.44-.28-4.08-.12-4.23.26-.09.24.89 1.89 1.26 2.1.61.36 2.8.43 5.45.18Zm-17.3-.03c.04-.06-.05-.37-.19-.69-.51-1.12-.69-2.03-.7-3.52l-.01-1.38h-.58l.06 1.22c.07 1.78 1.1 4.91 1.42 4.37Zm10.68-1.2c-.26-.52-.51-1.03-.56-1.14-.64-1.44-4.69-2.88-5.4-1.92-.54.71-.56.81-.62 2.47-.03.94-.02 1.05.05.62.48-2.61 1.96-2.48 4.2.37.24.31.28.32 1.5.44.69.07 1.26.12 1.28.12.01-.01-.19-.44-.45-.96Zm2.43.5c.28-.31.25-1.06-.06-1.31-.55-.44-1.3-.13-1.3.54 0 .77.9 1.28 1.36.77Zm1.74.03c.52-.42.26-1.27-.43-1.39-.72-.11-.87 0-.87.64 0 .88.67 1.26 1.3.75Zm13.43-.76c1.83-.52 3.51-1 3.75-1.06.58-.15.51-.38-.71-2.2-1.47-2.19-5.22-4.52-6.14-3.81-.7.56-5.51 1.73-10.18 2.49l-.5.08.89.32c3.49 1.27 6.64 2.93 8.76 4.6.79.63.22.69 4.13-.42Zm-9.49.77c.09-.09-.64-.37-1.93-.73-1.73-.5-1.79-.41-.27.39.78.4 1.95.59 2.2.34ZM8.46 25.67c.03-.03-.06-.43-.21-.9-.45-1.48-.38-1.72.62-2.29l.53-.3-.35-.41c-.19-.22-.35-.44-.35-.49 0-.16-1.85.05-2.42.27-.39.16-1.06 1.32-.69 1.2.44-.14.92.54 1.52 2.19l.33.88.48-.04c.27-.03.51-.08.54-.11Zm28.89-.27c-2.22-.09-2.28-.1-3.07-1.02-1.33-1.54-1.68-1.75-3.16-1.85-.93-.07-.94-.08-.5-.56.28-.29.44-.36 1.03-.46.38-.07 1.01-.26 1.39-.43 1.53-.67 4.5-.9 4.58-.35.02.15.32.36 1.08.77 2.15 1.13 2.56 1.83 1.71 2.84-.27.32-.55.71-.62.87-.08.2-.18.29-.33.27-.11 0-1.07-.04-2.11-.08Zm8.7-.27c.03-.16.23-.65.42-1.11.34-.78.35-.85.22-1.13l-.14-.3-.55.77c-.3.42-.59.82-.63.88-.1.13.4 1.29.52 1.22.05-.03.12-.18.16-.33Zm-6.5-.23c.03-.11.28-.46.56-.77.27-.32.49-.63.49-.7 0-.29-1.03-1.11-2.11-1.68-.72-.38-1.18-.68-1.24-.82-.18-.41-2.57-.13-3.9.45-.39.16-.97.35-1.3.41-.99.19-1.08.22-1 .29.03.04.36.12.73.18 1.08.18 1.53.46 2.35 1.42 1.11 1.32.98 1.26 3.05 1.33.97.03 1.89.06 2.04.07.19.01.28-.04.33-.18Zm-3.91-.2c-.22-.09-.88-.79-1.44-1.53-.38-.5-.91-.79-1.79-.98-.65-.14-.64-.23.02-.36.28-.06.86-.25 1.27-.41.51-.21 1.11-.35 1.89-.45l1.14-.15.46.33c.25.18.83.51 1.28.74.46.23 1.07.64 1.39.94l.57.53-.42.48c-.23.27-.49.59-.58.72-.16.25-3.24.37-3.79.14Zm-20.29-.77c.16-.32.31-.61.33-.65.07-.14-1.86-.51-2.73-.52-1.02-.01-1.25-.11-1.51-.66-.09-.19-.23-.46-.31-.6s-.24-.46-.36-.72c-.25-.57-.3-.58-.96-.13-.28.2-.51.31-.51.25 0-.13.88-.78 1.15-.86.18-.04.75-.82.75-1.01 0-.03-.24.16-.53.43s-.83.7-1.2.97l-.68.47.18.31c.27.45.67.8 1.04.89.9.23 3.79 1.57 4.59 2.14.46.33.42.34.75-.31Zm21.45.42c0-.13-.07-.15-.34-.1-.43.09-1.13-.52-1.01-.89.23-.7.2-.8-.35-1.1-.64-.35-.97-.21-.65.28.1.15.15.29.12.32s-.13-.08-.22-.26-.18-.3-.21-.27c-.17.17 1.41 2.03 1.79 2.1.53.1.87.07.87-.08Zm2.73-.39c.57-.66.56-.56.03-.94-.46-.33-.71-.41-.64-.2.03.07.11.13.19.13.18 0 .22.06.14.27-.04.09-.13.14-.21.11s-.14 0-.14.06c0 .07-.06.11-.12.09-.38-.07-1.88.56-1.88.79s.02.23 1.08.23h1.08zm-3.04-.92c.24-.08.55-.14.68-.14.12 0 .23-.04.23-.1 0-.05.07-.1.16-.1s.41-.07.72-.16l.56-.17-.59-.29c-.33-.17-.77-.41-.97-.55l-.37-.25-1.23.12c-1.08.11-2.15.37-2.41.6-.29.25.57.28.95.04.28-.18.43-.22.48-.15.26.43 1.28.54 2.24.25.11-.04.16-.02.12.04-.03.05-.18.13-.33.16-1.06.26-1.03.24-1.03.62 0 .31.03.35.18.29.09-.04.37-.14.61-.21Zm-22.83-.6c.11-.03.25-.19.31-.35l.12-.31-.42.09c-.23.04-.77.08-1.2.08-.84 0-.86.01-.57.33.21.22 1.2.31 1.76.16Zm4.12-.02c.48-.31-2-4.49-2.68-4.52-.49-.03-.68-.16-.32-.23.35-.07.44-.27.12-.27-.26 0-2.1.62-2.1.71 0 .04.17.03.39-.02 1.26-.28 2.22.34 3.03 1.96.3.59.47 1.02.93 2.33.05.14.43.16.63.04Zm1.14-.22c.18 0 .16-.05-.16-.47-.55-.72-1.2-1.67-1.1-1.6.05.03.41.48.79 1.01.48.64.76.95.9.95.19 0 1.93-.25 3.35-.48.36-.06 1.23-.19 1.94-.29l1.28-.17.19-.49c.1-.28.26-.57.34-.65.11-.11.08.03-.09.44-.13.33-.23.62-.21.64.11.1.54-.12.6-.31s.08-.2.12-.05c.02.09.06.17.08.17.01 0 .47-.09 1.01-.2.94-.19 1.14-.29 1.14-.58 0-.06.04-.12.1-.12s.1.09.1.19c0 .18.04.18.93-.06.5-.14 1.15-.28 1.42-.33 1.54-.25 3.52-.78 3.39-.9-.1-.09-1.97-.43-4.88-.9-2.11-.34-2.43-.45-2.87-1.02-.29-.36-.34-.39-.69-.33-.33.06-.41.03-.66-.23-.23-.23-.34-.28-.54-.22l-.25.06.33.18c.18.09.3.21.27.26-.09.15-.27.12-.7-.1-.49-.25-.53-.25-.3 0 .26.29.11.39-.76.56-.41.08-.76.14-.79.14s-.17-.11-.32-.25c-.28-.26-.53-.32-.63-.16-.03.05.04.13.15.16.45.14.17.39-.7.62-1.12.29-1.38.29-1.7-.02-.22-.21-.32-.24-.59-.19l-.34.07.24.18c.34.26.14.42-.94.78-1.11.37-1.17.38-1.47.06-.2-.22-.6-.35-.6-.2 0 .03.14.24.31.48.62.85 1.37 2.29 1.73 3.31.04.11.12.16.22.12.09-.03.25-.06.36-.06Zm27.14-.16c.12-.17.11-.26-.09-.65-.35-.7-.77-.64-.77.11 0 .7.54 1.04.86.54Zm-29.99 0c.3-.06.29-.12-.16-1.26-.81-2.05-2.05-2.93-3-2.12-.73.61-1.33 2.58-.73 2.4.09-.03.46-.12.82-.21s.69-.2.74-.25c.08-.08.18-.03.58.34.16.14.19.25.13.5-.04.17-.09.41-.12.53-.05.23.81.26 1.74.07Zm10.37-.44c4.52-.76 8.32-1.7 9.06-2.25.41-.3.36-.31-.27-.04-.74.32-4.01 1.12-6.63 1.63-1.29.25-2.61.51-2.92.57-.32.07-.58.16-.58.2 0 .12-.06.12 1.34-.11Zm-22.3-.87c-.31-.95-.33-.98-.64-1.01-.32-.03-.32-.03-.26.33.16.84.73 1.65 1.17 1.65.03 0-.09-.44-.27-.97Zm9.35.75c.25-.06.52-.17.6-.24.27-.25-.15-.27-1.12-.04-.5.11-1.02.23-1.14.26-.13.02-.23.09-.23.16 0 .13 1.13.05 1.89-.14ZM6.73 19.8c2.97-.71 4.67-1.16 5.02-1.34.4-.21.34-.2-.95.1-1.03.24-1.12.25-1.35.1-.32-.21-.38-.2-.3.04.05.15.01.21-.17.25-.13.03-1.24.29-2.47.58-1.25.29-2.26.58-2.29.65-.06.2.28.15 2.51-.38Zm-.58-.7c2.41-.54 2.59-.6 2.48-.71-.14-.14-4.83.91-4.83 1.07 0 .11.74 0 2.35-.36Zm29.45-.6c-.37-.28-3.53-1.85-4.35-2.16-1.57-.59-1.93-.65-2.75-.48-.35.08.25.34.79.35.61.01.07.15-.86.23-1.29.1-1.33.14-.81.62.42.39.47.41 1.83.63.77.13 2.3.4 3.4.61s2.23.39 2.5.39l.5.01zm-24.13-.55c.93-.19 1.97-.44 2.33-.55l.65-.2-.55.05c-.47.05-3.68.65-4.38.82-.18.04-.21.08-.1.14.19.13.22.12 2.05-.26Zm5.78-.26c2.45-.77 6.97-1.71 9.9-2.05 1.54-.18 1.67-.28.5-.39-1.56-.15-11.26 1.61-11.38 2.06-.03.1-.21.25-.41.33s-.36.19-.36.23c0 .14.22.32.34.27.06-.02.7-.22 1.41-.45Zm18.78-.28c.69-.39.48-.74-.46-.79-.67-.03-.7-.03-.51.12.11.08.45.16.75.18.5.03.52.04.31.16-.27.16-.79.19-1.04.08-.14-.06-.18-.04-.18.12 0 .42.52.48 1.13.13ZM20.35 16c1.47-.3 4.8-.9 5-.9.02 0 .01-.09-.02-.2s-.06-.2-.07-.2c-.02 0-.74.14-1.62.3-4.94.94-7.32 1.45-7.48 1.6-.26.25.13.26 1.16.03.62-.13 1.99-.42 3.03-.63Zm-4 .02c.88-.22 3.5-.77 5.83-1.23 2.89-.57 4.22-.88 4.22-.96 0-.07-.01-.13-.03-.13-.06 0-3.74.7-4.97.94-.69.13-2.33.45-3.65.71-1.32.25-2.64.51-2.92.56-.42.08-.53.14-.53.3 0 .27.2.25 2.05-.19Z"/></svg>