<svg xmlns="http://www.w3.org/2000/svg" width="51" height="51" viewBox="0 0 51 51"><path fill="#fff" fill-rule="evenodd" stroke="#fff" stroke-width=".7" d="M16.9 25.51c0-22.62.02-25.51.15-25.51.21 0 .18 50.91-.02 50.98-.1.03-.13-5.11-.13-25.47Zm17.1 0C34 2.89 34.02 0 34.15 0c.21 0 .18 50.91-.03 50.98-.09.03-.12-5.11-.12-25.47Zm-8.9 5.69v-1.51l.63.03.62.03.03 1.48.03 1.47H25.1zm1 .05V30h-.8v2.5h.8zm19.42.96c-.29-.1-.78-.36-1.09-.57-.56-.38-.58-.39-1.52-.4-1.93-.01-3.46-1.09-3.82-2.68-.31-1.4.67-2.93 2.15-3.37l.46-.13v-.49c0-1.27 1.69-2.57 3.36-2.57.02 0 .18-.28.36-.62.38-.72 1.02-1.26 1.85-1.59.94-.37 2.77-.29 3.31.14.12.09.18 1.27.07 1.27-.03 0-.34-.09-.68-.21-1.72-.58-3.25.1-3.67 1.64l-.17.62-.84.06c-1.94.14-2.72.92-2.15 2.15.29.61.22.74-.39.74-1.84 0-3.03 1.46-2.22 2.69.64.96 2 1.31 3.43.86.17-.05.3.03.63.38 1.36 1.45 3.3 1.38 4.49-.15.55-.7.44-.7 1.14-.01l.57.56-.06.51c-.07.68-.15.74-.6.44l-.38-.25-.62.43c-1.08.74-2.45.95-3.61.55Zm2.68-.3c.29-.11.75-.39 1.01-.61l.49-.41.29.2c.65.47.76-.27.14-.91-.47-.48-.4-.49-1.15.25-1.29 1.3-2.95 1.33-4.28.1-.58-.53-.6-.54-.97-.44-1.76.49-3.73-.58-3.73-2.04 0-1.06.98-1.89 2.48-2.1.28-.04.52-.08.52-.1 0-.01-.07-.19-.15-.38-.56-1.35.67-2.47 2.72-2.47.18 0 .35-.06.37-.12.47-1.64 1.32-2.31 2.91-2.31.49 0 .96.06 1.23.16l.42.16v-.39c0-.39 0-.39-.57-.56-1.79-.52-3.9.37-4.48 1.91-.16.41-.18.43-.68.48-1.68.17-2.95 1.28-2.85 2.48l.03.41-.64.23c-3.46 1.26-2.22 5.5 1.61 5.5.94 0 1.1.03 1.3.21 1.1.98 2.61 1.27 3.98.75Zm-27.58-1.2c-.44-.55-.52-.42 1.36-2.16l.42-.39.4.39c.51.5.56.39-.6 1.55-1.14 1.14-1.15 1.14-1.58.61Zm8.48-.66L28.05 29l.41-.41c.51-.51.48-.52 1.74.75l.94.96-.39.4c-.52.53-.45.55-1.65-.65Zm-7.07-.13.88-.88-.25-.23-.25-.23-.28.2c-.15.11-.57.5-.92.86l-.65.66.24.25c.31.33.23.37 1.23-.63Zm8.51.6.27-.29-.92-.87-.91-.87-.27.25-.27.25.86.9c.99 1.04.89.99 1.24.63Zm-29.97.01c-.1-.09-.08-1.25.01-1.41.07-.09.95-.12 4.08-.1l3.99.03v1.5l-4.01.03c-2.2.01-4.03-.01-4.07-.05Zm7.83-.68v-.55H.8v1.1h7.6zm15.89-.48c-2.29-.96-3.21-3.65-1.92-5.63.13-.21.08-.28-.97-1.29-1.26-1.24-1.24-1.17-.67-1.73l.44-.43 1.07 1.12 1.08 1.11-.43.46-.44.46.45-.4c.59-.52 1.04-.79 1.66-.99l.5-.16-.03-1.12c-.02-.62 0-1.32.05-1.57l.07-.45.49-.03c.74-.05.76-.01.76 1.64v1.44l-.62.01-.63.02.8.07c4.91.43 4.77 7.51-.15 7.67-.82.03-1.03 0-1.51-.2Zm3.11-.44c2.58-1.32 2.57-5.1-.02-6.37-3.17-1.56-6.41 1.58-4.95 4.78.86 1.88 3.03 2.58 4.97 1.59Zm-2.85-.66c-2.68-1.31-1.77-5.31 1.21-5.29 2.28.02 3.54 2.84 2.04 4.56-.81.92-2.21 1.23-3.25.73Zm2.37-.34c2.46-1.34 1.06-5.23-1.67-4.66-2.57.54-2.75 4.16-.24 4.92.51.16 1.36.04 1.91-.26ZM.6 25.6v-.8l4.02.02 4.03.03.03.77.03.78H.6zm18.07.73c-.15-.14-.07-1.21.09-1.27.09-.03.78-.06 1.55-.06h1.39v1.4h-1.48c-.82 0-1.52-.03-1.55-.07Zm11.03-.58v-.65l.58-.02c.31-.01.8-.01 1.07 0 .27 0 .72.01.98.01l.48.01-.03.63-.03.62-1.52.03-1.53.03zm-21.37.37c.13-.03.17-.15.17-.53v-.49H.8v1.12l3.68-.03c2.02-.02 3.75-.05 3.85-.07Zm13.17-.42v-.4h-2.7v.8h2.7zm11 0v-.4h-2.6v.8h2.6zm-3.98-2.73c-.45-.46-.44-.48.65-1.58 1.11-1.13 1.08-1.13 1.58-.58l.37.41-.59.61c-.32.34-.76.81-.98 1.05-.47.51-.61.52-1.03.09Zm-6.43-1.37c-.91-.99-.95-1.01-1.29-.65l-.24.26.93.93.94.94.24-.29.25-.29zm7.78.58c.91-.91.93-.95.6-1.26l-.23-.22-.89.9-.89.89.24.26c.31.33.23.37 1.17-.57ZM.6 21.5v-.8h8.11l-.03.78-.03.77-4.03.03-4.02.02zm7.78.45c.09-.03.12-.2.1-.52l-.03-.48-3.83-.03L.8 20.9v.53c0 .3.02.56.05.58.06.06 7.36 0 7.53-.06ZM26.1 20.3V19h-.8v2.6h.8zm-1.5-7.41c-2.17-.24-4.09-1.88-4.86-4.14l-.27-.8.01-3.8c0-2.09.01-3.88.01-3.97.01-.12.09-.18.24-.17.12 0 .16.03.1.06-.21.08-.18 7.38.02 8.18 1.26 4.95 7.58 6.06 10.35 1.83.74-1.13.78-1.44.85-5.81.03-2.59.02-3.95-.05-4.08-.09-.16-.07-.19.1-.19.27 0 .31 7.36.05 8.47-.53 2.26-2.64 4.19-4.79 4.39-.28.03-.65.06-.81.08-.16.01-.59-.01-.95-.05Zm-3.35-2.9c-.98-.87-.51-2.36.78-2.47 1.23-.1 1.99.99 1.43 2.06-.4.77-1.55.99-2.21.41Zm1.77-.26c.55-.55.47-1.44-.17-1.83-1.08-.67-2.28.47-1.7 1.6.34.66 1.31.78 1.87.23ZM21.5 6.91c-.22-.11-.44-.36-.58-.63-.75-1.46 1.2-2.74 2.34-1.53 1.1 1.17-.33 2.93-1.76 2.16Zm3.23.03c-.9-.46-.99-1.84-.16-2.42 1.2-.84 2.74.38 2.15 1.71-.34.76-1.25 1.09-1.99.71Zm-2.1-.18c1.2-.51.88-2.26-.42-2.26-1.31 0-1.66 1.73-.46 2.26.38.17.49.17.88 0Zm3.21 0c1.24-.52.88-2.26-.47-2.26-.28 0-.46.08-.73.33-.98.9-.03 2.44 1.2 1.93Zm-4.45-3.1c-.71-.49-.84-1.49-.27-2.12 1.01-1.09 2.86-.15 2.48 1.26-.25.94-1.44 1.4-2.21.86Zm3.35.06c-1.3-.82-.83-2.64.67-2.64 1.83 0 1.92 2.64.1 2.79-.33.03-.54-.01-.77-.15Zm3.04-.07c-.74-.5-.84-1.57-.2-2.18.91-.87 2.42-.26 2.42.98 0 1.14-1.29 1.83-2.22 1.2Zm-5.13-.09c.89-.38.99-1.68.15-2.11-1.38-.72-2.5 1.15-1.21 2.02.4.27.59.28 1.06.09Zm3.2 0c1.19-.5.84-2.26-.45-2.26-1.27 0-1.63 1.75-.47 2.25.41.18.5.18.92.01Zm3.43-.12c.61-.4.64-1.32.06-1.83-.82-.73-2.06-.08-1.91 1.01.12.89 1.09 1.32 1.85.82Z"/></svg>