<svg xmlns="http://www.w3.org/2000/svg" width="51" height="51" viewBox="0 0 51 51"><path fill="#fff" fill-rule="evenodd" stroke="#fff" stroke-width=".688" d="M.05 25.25c0-13.64.01-19.21.02-12.37.02 6.84.02 18 0 24.8-.01 6.8-.02 1.21-.02-12.43Zm6.23 19.26c-.56-.08-.94-.4-1.08-.9-.17-.66-.08-21.92.1-22.19.33-.5.51-.52 4.39-.52h3.61v-.32c0-1.07 2.19-8.85 2.87-10.23.3-.61.76-1.11 1.23-1.35 1.48-.75 9.44-2.92 10.8-2.93 1.19-.02 1.92.55 6 4.63 4.12 4.12 4.12 4.12 3.1 8.15-.27 1.1-.5 2.01-.5 2.03 0 .01 1.89.02 4.2.02 4.64 0 4.61 0 4.93.62.3.56.21 22.04-.09 22.45-.46.62 1.04.58-19.94.59-10.53.01-19.36-.01-19.62-.05Zm38.97-.35c.58-.24.55.29.55-11.54V21.63l-.25-.23-.24-.23-4.28.02c-2.35.01-4.31.05-4.34.09s-.3.9-.59 1.92c-.97 3.39-1.36 4.12-2.52 4.69-.69.34-3.35 1.12-6.63 1.96l-2.1.54 1.3.01c.71 0 1.36.04 1.43.08.09.07.12.53.1 1.98l-.03 1.89-1.97.03-1.98.02v-3.67l-.78-.05c-1.04-.06-1.43-.27-2.72-1.43l-1.04-.94-.81-.03-.8-.03-.03-.81-.03-.8-.99-.99-1-1v3.65h-4v-4h3.71l-.7-.8c-.75-.84-1.21-1.63-1.21-2.05v-.25H5.81l-.2.26c-.21.27-.21.29-.21 11.26v11l.29.29.29.29h19.47c16.55 0 19.51-.02 19.8-.14ZM8.67 42.13c-.04-.03-.07-1.25-.07-2.7V36.8l.26-.1c.36-.14 33.39-.14 33.65 0 .27.15.3 5.34.03 5.44-.22.08-33.79.08-33.87-.01Zm31.61-.2 2.22-.06V36.9H8.8v4.99l1.43.03c3.06.07 27.95.08 30.05.01Zm-28.76-9.5.03-1.98h3.9l.03 1.98.02 1.97h-4zm6.15 1.9c-.04-.03-.07-.91-.07-1.94 0-2.24-.26-2.01 2.2-1.97l1.75.03.03 1.98.02 1.97h-1.93c-1.07 0-1.97-.03-2-.07Zm12.1 0c-.16-.16-.08-3.81.09-3.87.31-.12 3.59-.07 3.72.06s.18 3.41.06 3.72c-.06.17-3.71.25-3.87.09Zm6.05-1.9.03-1.98h3.9v3.9l-1.98.03-1.97.02zm-20.52.02V30.7h-3.6v3.5h3.6zm6.08-.01c.02-1.32 0-1.73-.1-1.75-.07-.02-.88-.03-1.8-.01l-1.68.03v1.68c0 .92.03 1.71.07 1.75.04.03.84.05 1.77.04l1.71-.03zm6.02 1.64c.05-1.28-.03-3.34-.13-3.4-.14-.08-2.56-.1-3.04-.01l-.33.05v3.48h1.75c1.33 0 1.75-.03 1.75-.12Zm6-1.63V30.7h-3.5v1.68c0 .93.03 1.72.07 1.75.03.04.82.07 1.75.07h1.68zm6.18-.02.02-1.73H36v3.5l1.77-.02 1.78-.03zm-15.76-2.08c1.07-.23 4.49-1.09 6.33-1.61 4.62-1.29 4.41-1.06 6-6.59 1.04-3.63 1.48-5.51 1.48-6.35.01-1.21-.5-1.87-4.39-5.7-3.66-3.61-4.02-3.87-5.28-3.77-1.92.15-9.99 2.49-10.83 3.13-.64.48-1.06 1.52-2.18 5.34-1.35 4.6-1.64 6.35-1.22 7.23.39.79 2.51 3.11 5.07 5.56 3.12 2.97 3.36 3.1 5.02 2.76Zm12-4.02.03-1.98h3.9v3.9l-1.98.03-1.97.02zm-20.54 0-.03-1.78-1.77-.03-1.78-.02v3.6h3.6zm3.62 1.74c0-.01-.25-.27-.55-.57l-.55-.54v1.14h.55c.3 0 .55-.01.55-.03Zm20.65-1.77v-1.75l-1.78-.03L36 24.5v3.6l1.77-.02 1.78-.03zm-18.9-1.89c-1.26-.33-2.24-1.45-2.4-2.75-.05-.38.02-.96.29-2.3.2-.98.35-1.81.33-1.83s-.23.04-.47.12c-.68.24-1.04.2-1.34-.16-.55-.66-.31-1 1.04-1.48 1.2-.42 1.08-.26 1.41-1.9.32-1.58.4-1.78.75-1.91.38-.15.5-.12.83.16.37.3.39.55.15 1.69-.19.94-.22.91.69.64.45-.13.86-.19 1.01-.15.52.13.7 1.01.28 1.39-.22.21-1.74.69-1.83.6-.11-.11.21-1.33.34-1.33.1 0 .04.61-.1.96-.03.09-.02.15.03.12s.35-.13.66-.22c.67-.19.88-.37.88-.75 0-.58-.26-.65-1.26-.36-.48.14-.89.26-.9.28-.01.01-.21.99-.43 2.17s-.48 2.53-.57 3c-.32 1.63.38 2.63 1.65 2.35.76-.16 1.03-.63 1.51-2.58.33-1.32.39-1.43.87-1.53.56-.11.93.37.93 1.19 0 1.36 1.08 2.04 2.17 1.37.45-.27.69-.81 1.02-2.27.31-1.37.47-1.63 1.01-1.63.55 0 .74.29.81 1.2.08 1.14.46 1.55 1.43 1.55 1.05 0 1.29-.33 1.77-2.36.2-.82.38-1.38.5-1.5.38-.38 1.16-.15 1.34.4.08.25-.58 2.99-.85 3.52-.84 1.63-3.07 2.2-4.46 1.14-.19-.15-.37-.25-.38-.24-.02.02-.13.22-.24.44-.36.72-1.27 1.44-2.01 1.6-.86.18-2.16-.08-2.52-.51-.18-.22-.27-.17-.48.24-.6 1.17-2.24 1.95-3.46 1.63Zm1.68-.37c.62-.21 1.27-.8 1.61-1.48.33-.66.28-.64.77-.26 1.43 1.14 3.65.49 4.38-1.29.16-.37.23-.38.65-.06 1.16.88 2.79.74 3.77-.32.51-.55.62-.83.99-2.38.36-1.49.37-1.69.08-1.89-.57-.4-.81-.09-1.18 1.54-.32 1.45-.59 1.98-1.1 2.25-1.25.65-2.5-.14-2.5-1.56 0-.74-.19-1.09-.58-1.09s-.53.24-.77 1.39c-.32 1.49-.41 1.76-.78 2.17-1.13 1.3-2.85.6-2.93-1.18-.04-.79-.14-.98-.54-.98s-.49.16-.81 1.5c-.48 2.03-.94 2.6-2.07 2.6-1.45 0-1.87-1.06-1.37-3.47 1.26-6.08 1.35-7.13.65-7.13-.45 0-.56.2-.79 1.47-.39 2.12-.17 1.85-2.16 2.55-.63.22-.78.73-.29 1.04.2.14.3.13.99-.06.42-.12.79-.19.82-.17.03.03-.11.83-.31 1.77s-.36 1.97-.36 2.29c0 2.05 1.89 3.41 3.83 2.75Z"/></svg>