<svg xmlns="http://www.w3.org/2000/svg" width="51" height="51" viewBox="0 0 51 51"><path fill="#fff" fill-rule="evenodd" stroke="#fff" stroke-width=".752" d="M9.85 37.88c-5.67-7.13-5.62-17.75.12-24.81.31-.37.58-.67.62-.67.18 0 2.21 1.83 2.21 1.99 0 .1-.09.26-.2.36-.79.71-2.45 3.7-3.04 5.48-1.76 5.27-.6 11.64 2.93 16.01.17.21.31.44.31.51 0 .12-1.98 1.86-2.2 1.93-.05.02-.39-.34-.75-.8Zm29.68-.08c-1.28-1.13-1.23-1-.65-1.73 1.67-2.11 2.73-4.44 3.39-7.47.31-1.44.26-5.3-.08-6.75-.61-2.52-1.61-4.6-3.3-6.83l-.49-.65.22-.25c.13-.13.63-.58 1.12-1l.89-.76.49.54c4.95 5.52 5.97 14.35 2.48 21.45-.9 1.83-2.51 4.18-2.95 4.31-.06.02-.56-.37-1.12-.86Zm-27.97-.21c.52-.44.94-.83.94-.86s-.22-.35-.49-.72C7.29 29.6 7.28 21.3 12 15.09l.58-.76-.95-.79c-.53-.44-.99-.79-1.02-.78-.1 0-1 1.16-1.57 2.02-4.52 6.79-4.12 16.39.95 22.89.31.4.58.72.6.73.01 0 .45-.36.97-.81Zm29.71.03c5.51-7.12 5.54-17.08.07-24.06-.37-.47-.69-.86-.71-.86-.04 0-1.42 1.18-1.82 1.56-.12.11-.08.2.26.61 1.11 1.33 2.23 3.35 2.86 5.19 1.83 5.29.65 11.97-2.86 16.18l-.41.48.6.52c.32.28.75.66.94.83.45.42.38.45 1.07-.45Zm-26.84-3.44c-.74-.95-.89-1.17-1.42-2.25-2-3.99-2.06-8.48-.15-12.52.58-1.24 1.87-3.11 2.14-3.11.1 0 1.37 1.01 1.88 1.49l.34.31-.5.63c-2.98 3.79-3.09 9.07-.28 13.25.36.54.66 1.03.66 1.08 0 .12-1.94 1.74-2.08 1.74-.06 0-.32-.28-.59-.62Zm20.67-.24c-.55-.48-1-.89-1-.91 0-.03.25-.39.56-.81 3.01-4.12 2.91-10.16-.24-13.64-.19-.21-.32-.44-.29-.52.08-.19 1.95-1.76 2.1-1.76.53.03 2.34 3.07 2.96 4.95 1.4 4.31.29 10.07-2.52 13.12-.5.55-.39.57-1.57-.43Zm-19.27-.05c.4-.34.78-.67.86-.75.12-.11.07-.24-.38-.89-2.77-4-2.88-9.12-.29-13 .22-.33.52-.72.65-.87l.25-.26-.91-.76c-1.04-.87-.97-.83-1.22-.54-3.57 4.18-4.04 10.92-1.1 15.87.38.65 1.26 1.81 1.37 1.81.03 0 .37-.28.77-.61Zm21.11-.26c2.48-3.3 3.29-8.29 2.01-12.28-.51-1.59-2.33-4.75-2.73-4.75-.06 0-1.22.94-1.8 1.45-.02.02.22.36.52.77 2.92 3.82 2.91 9.38-.01 13.46l-.53.73.33.28c.9.79 1.42 1.21 1.48 1.21.04 0 .37-.39.73-.87Zm-17.82-2.94c-.39-.42-1.07-1.7-1.38-2.61-.83-2.46-.33-5.55 1.23-7.46.46-.56.55-.54 1.56.31.95.8.98.86.62 1.33-1.32 1.73-1.36 4.3-.11 6.34.46.75.5.65-.54 1.56-1.1.95-1.01.92-1.38.53Zm11.66-.42c-1.07-.89-1.06-.88-.62-1.54 1.35-2.04 1.35-4.48-.02-6.4-.18-.26-.3-.52-.26-.59.1-.17 1.83-1.64 1.93-1.64.05 0 .29.26.54.57 2.12 2.71 2.1 6.85-.06 9.76-.52.7-.46.71-1.51-.16Zm-10.44-.31.79-.73-.36-.59c-1.23-1.99-1.22-4.46.02-6.3.4-.58.43-.49-.5-1.28-.9-.76-.77-.77-1.38.09-1.41 1.99-1.69 4.87-.71 7.47.22.59 1.14 2.08 1.27 2.08.05-.01.44-.34.87-.74Zm11.81.24c1.64-2.23 1.98-5.45.84-7.98-.26-.57-1.06-1.82-1.17-1.82-.06 0-1.72 1.41-1.72 1.46 0 .02.18.29.4.6 1.27 1.81 1.24 4.33-.06 6.3l-.37.55.44.37c.24.2.6.52.79.69.45.41.42.42.85-.17Z"/></svg>