<svg xmlns="http://www.w3.org/2000/svg" width="51" height="51" viewBox="0 0 51 51"><path fill="#fff" fill-rule="evenodd" stroke="#fff" stroke-width=".772" d="m24.6 39.7-13.75-.05-.56-.28c-1.25-.61-1.98-1.62-2.19-3.02-.07-.47-.1-4.59-.08-12.35.03-13.02-.02-12.18.72-12.43.45-.15.71.03 3.47 2.35 2.39 2 5.3 4.42 7.68 6.38.57.47 1.67 1.38 2.45 2.02 1.97 1.65 2.6 1.88 4.2 1.58.74-.14.78-.16 2.67-1.81 3.03-2.62 12.36-10.33 12.67-10.46.47-.2.95.04 1.16.58.2.5.25 23.37.05 24.31-.42 1.97-2.24 3.36-4.29 3.25-.25-.01-6.64-.04-14.2-.07Zm10.88-11.41c.02-10.91.02-11.11-.17-10.98-.8.58-7.42 6.25-10.31 8.83-2.19 1.96-2.54 2.18-3.61 2.24-1.31.08-1.19.16-8.89-6.27-1.68-1.4-3.27-2.74-3.55-2.98-.27-.24-.53-.43-.58-.43-.04 0-.06 4.04-.05 8.98l.03 8.97.23.56c.43 1.07 1.42 1.93 2.48 2.14.33.06 4.61.09 12.45.08l11.94-.02zm5.04 10.93c1.13-.45 1.89-1.28 2.22-2.41.23-.8.24-24.16.01-24.61-.16-.32-.44-.45-.76-.35-.29.09-6.19 5.02-6.19 5.18-.01.1-.01 17.54 0 21.2v1.29l2.08-.04c1.85-.04 2.13-.06 2.64-.26ZM22.46 27.84c.32-.15 1.25-.89 2.41-1.92l1.9-1.69-1.06.01c-.87 0-1.14-.03-1.51-.21-.36-.16-4-3.08-6.95-5.57-3.07-2.59-7.75-6.45-7.92-6.54-.88-.47-.97-.14-1.01 3.38l-.03 2.95 3.82 3.2c7.16 5.99 7.9 6.55 8.69 6.68.45.08 1.14-.04 1.66-.29Z"/></svg>