<svg xmlns="http://www.w3.org/2000/svg" width="51" height="51" viewBox="0 0 51 51"><path fill="#fff" fill-rule="evenodd" stroke="#fff" stroke-width=".457" d="M32.48 36.93c-1.95-.04-1.82.08-1.33-1.28.2-.54.33-1 .3-1.04-.04-.03-.56-.08-1.16-.09-.81-.03-1.09-.07-1.09-.17 0-.14 1.43-4.11 1.88-5.2l.29-.7 2.91-.05c1.75-.03 2.95-.09 3-.15.09-.1 1.12-2.84 1.12-2.98 0-.04-.69-.07-1.52-.07-.84 0-1.59-.04-1.66-.08-.11-.08.1-.81.63-2.14.06-.16.01-.18-.37-.18-.98 0-1.98-.13-1.98-.26s2.02-5.51 2.2-5.84c.1-.2.18-.2 3.58-.2 1.91 0 3.53.04 3.61.09.13.08-.2 1.22-.67 2.33-.02.04.48.08 1.12.08.87 0 1.16.03 1.16.13 0 .06-.25.81-.55 1.66s-.55 1.58-.55 1.63c0 .04.76.08 1.7.08 1.98 0 1.85-.13 1.31 1.34l-.39 1.06h1.14c1.02 0 1.14.02 1.14.18 0 .09-.5 1.48-1.09 3.07l-1.09 2.9-2.99.05-2.98.05-1.01 2.73c-.55 1.51-1.06 2.82-1.12 2.93-.13.2-.34.21-5.54.12Zm5.99-2.03c.35-.96.84-2.27 1.07-2.9l.43-1.15 2.99-.05 2.98-.05.22-.6c.13-.33.56-1.5.97-2.6s.78-2.08.82-2.17c.07-.17-.02-.18-.98-.18h-1.04l-.23.58c-.12.31-.4 1.06-.61 1.67-.22.6-.45 1.13-.52 1.17s-1.43.08-3.02.08h-2.91l-1.03 2.83c-.57 1.55-1.08 2.88-1.13 2.95-.08.09-.68.12-2.38.12h-2.28l-.36 1.01c-.2.55-.36 1.02-.36 1.05 0 .02 1.51.03 3.36.02l3.36-.03zm-1.23-3.2c.52-1.4 1.01-2.72 1.09-2.92l.16-.38h5.96l.44-1.23c.24-.67.7-1.92 1.02-2.77s.55-1.57.53-1.6c-.03-.03-1.35-.07-2.92-.1-1.83-.03-2.86-.09-2.85-.15.01-.05.45-1.31.97-2.79.53-1.49.96-2.76.96-2.83 0-.1-.66-.13-3.34-.13h-3.34l-.1.27c-.06.16-.53 1.42-1.06 2.82-.53 1.39-.96 2.55-.96 2.57s1.33.04 2.95.04 2.95.04 2.95.08c0 .08-.77 2.16-1.96 5.34l-.26.68-2.96.02-2.96.03-.23.6c-.36.92-1.83 4.94-1.83 5 0 .03 1.53.04 3.41.03l3.4-.03zm-20.17-1.9c-.97-.17-1.57-.72-1.57-1.42v-.28h1.15c1.13 0 1.15 0 1.21.24.12.49 1.2.37 1.71-.18.46-.5.45-.68-.05-.51-2.41.84-4.01-.67-2.97-2.8.79-1.63 3.19-2.48 4.5-1.6l.36.25.09-.25c.09-.25.11-.25 1.24-.25.63 0 1.17.04 1.2.09.06.09-1.28 3.82-1.59 4.41-.94 1.85-2.95 2.73-5.28 2.3Zm2.48-.35c1.27-.34 2.08-1.03 2.65-2.3.26-.57 1.4-3.66 1.4-3.79 0-.03-.41-.06-.91-.06h-.9l-.1.3c-.13.35-.2.37-.44.1-1.08-1.19-3.99-.2-4.59 1.57-.65 1.9 1.08 2.96 3.19 1.96.44-.21.51-.13.36.36-.25.84-.87 1.31-1.75 1.31-.46 0-.58-.04-.74-.25-.18-.23-.26-.25-1.06-.25-.97 0-1.09.12-.62.63.21.23.45.33 1.21.5.46.11 1.75.06 2.3-.08Zm-9.6-1.5c-2.32-.88-1.08-4.23 1.82-4.91 2.55-.6 4.22.54 3.58 2.45l-.17.51H11.1v.33c0 .42.15.57.6.57.37 0 1.13-.3 1.24-.49.11-.18 2.06-.15 2.06.03 0 .25-1.08 1.14-1.68 1.37-.74.29-2.74.37-3.37.14Zm14.45-.02c-.43-.22-.8-.76-.8-1.16 0-1.08 1.19-1.94 2.75-1.98.71-.02-.08-.16-.97-.18-.9-.01-.93-.05-.38-.65 1.13-1.22 4.26-1.49 5.26-.45.49.51.3 1.49-.81 4.11l-.15.38h-1.05c-.84 0-1.07-.03-1.11-.15-.05-.13-.1-.12-.37.02-.49.26-1.92.29-2.37.06Zm-21.2-.09c0-.16.97-2.8 1.51-4.09l.31-.76 1.12.03c.99.03 1.11.05 1.1.21-.02.21 0 .21.35.02.39-.19 1.69-.41 1.81-.29.05.05-.08.42-.3.89l-.4.8-.68.06c-1.11.08-1.39.4-2.15 2.39l-.32.85-1.17.03c-1.03.02-1.18.01-1.18-.14Zm9.21-.09c.57-.07 1.56-.54 1.88-.89l.24-.26h-.66c-.56 0-.74.05-1.06.26-.99.65-2.01.35-2.01-.6v-.44l.66-.07c.36-.04 1.27-.04 2.03 0 1.63.08 1.61.09 1.69-.95.08-1.13-.56-1.6-2.19-1.6-2.19 0-3.91 1.34-3.93 3.07-.01.88.53 1.38 1.66 1.52.62.07.8.07 1.69-.04Zm14.34-.21c.79-.33.81-.33.77-.06-.03.22-.02.23.8.2l.83-.03.57-1.5c.64-1.67.7-2.1.35-2.43-.94-.88-3.66-.74-4.69.25-.16.15-.28.3-.28.34 0 .15 1.68.09 1.74-.06.08-.23.68-.55 1.02-.55.48 0 .69.21.67.69-.03.59 0 .57-1.4.64-1.63.08-2.24.25-2.8.82-1.3 1.3.44 2.52 2.42 1.69Zm-21.01-.85c.7-1.78 1.21-2.29 2.29-2.29h.47l.3-.61.31-.61-.28.06c-.15.03-.45.08-.65.12-.21.03-.58.19-.84.36-.53.33-.61.31-.46-.11l.11-.31H6.1c-1.06 0-.87-.24-1.8 2.24-.38.99-.71 1.89-.75 1.99-.07.15.01.17.86.17h.94zm20.23.23c-.6-.66.2-1.42 1.49-1.42.59 0 .69.16.41.71-.4.79-1.47 1.19-1.9.71Zm-7.14-.12c-.56-.23-.66-.96-.23-1.8.74-1.45 2.68-1.42 2.46.03-.2 1.25-1.32 2.14-2.23 1.77Zm8.6-.4c.38-.43.36-.6-.1-.6-.84 0-1.44.36-1.29.76.16.42.94.33 1.39-.16Zm-7.31-.17c.59-.55.86-1.53.52-1.87-.61-.62-2.04.49-2.04 1.58 0 .7.9.88 1.52.29Zm-8.92-1.3c0-.8 1.65-1.5 2.19-.92.26.28.36.76.21.94-.19.23-2.4.22-2.4-.02Zm27.73-1.01c.21-.55.37-1.02.37-1.06 0-.03-.7-.05-1.56-.04l-1.56.03-.34.95c-.19.52-.34.98-.34 1.03 0 .04.69.07 1.53.07h1.54zm-25.53.7c0-.65-.95-.75-1.58-.17l-.37.34.98.01c.87 0 .97-.02.97-.18Zm14.85-.03c.29-.46-.42-.79-.93-.43-.55.38-.48.54.22.54.36 0 .68-.05.71-.11Zm15.36-3.69.56-1.55-1-.03c-.55-.01-1.02-.01-1.04.02-.06.06-1.13 2.98-1.13 3.09 0 .04.46.06 1.02.05l1.03-.03z"/></svg>