<svg xmlns="http://www.w3.org/2000/svg" width="51" height="51" viewBox="0 0 51 51"><path fill="#fff" fill-rule="evenodd" stroke="#fff" stroke-width=".764" d="M5.82 50.94C2.74 50.03.28 47.26.03 44.41c-.08-.9.06-.7.34.47.73 3.03 2.92 5.2 6.01 5.94.5.13.92.26.92.3 0 .15-.65.07-1.48-.18Zm38.18.18c0-.05.39-.18.87-.3 3.19-.79 5.38-3.06 6.04-6.25.23-1.13.33-1.24.26-.27-.18 2.36-1.89 4.8-4.22 6.01-1.15.6-2.95 1.09-2.95.81ZM6.05 41.81c-2.16-.09-2.5-.16-3.29-.7-1.75-1.21-1.85-4.72-.18-6.23.85-.76 1.12-.81 4.54-.86 1.64-.02 2.98-.05 2.98-.07s-.18-.36-.39-.77c-3.29-6.13-2.32-14.37 2.27-19.2 2.42-2.53 5.25-4.01 9.17-4.76 1.03-.2 24.55-.31 25.65-.12 1.89.32 2.87 1.47 2.98 3.45.1 1.91-.54 3.21-1.88 3.84-.55.26-.57.26-3.43.29-1.59.02-2.87.06-2.85.1s.28.57.6 1.17c1.42 2.77 2.08 6.04 1.79 8.95-.84 8.38-6.18 13.84-14.46 14.8-1.1.12-20.61.21-23.5.11Zm24.15-.44c8.47-1.42 13.54-7.38 13.54-15.92 0-2.95-.47-4.9-1.84-7.54-.39-.73-.68-1.36-.65-1.4.02-.04 1.34-.09 2.92-.1 3.12-.02 3.16-.03 3.84-.37 1.83-.91 2.11-4.58.47-5.98-.88-.76.06-.71-14.03-.71h-12.6l-1.15.24C13.35 11.1 8.81 16.19 8.09 23.7c-.32 3.42.65 7.69 2.31 10.17.29.44.44.42-3.2.46-3.63.03-3.81.07-4.61.87-.63.63-.89 1.44-.89 2.74 0 2.06.84 3.18 2.61 3.51 1.25.23 24.47.15 25.89-.08Zm-6.21-7.08c-5.21-.55-8.38-4.54-7.88-9.91.54-5.75 5.22-8.74 12.34-7.87 4.96.61 8.21 4.79 7.64 9.86-.64 5.75-5.09 8.67-12.1 7.92ZM28.2 34c4.82-.63 7.64-3.82 7.64-8.65 0-5.07-3.1-8.27-8.37-8.65-6.94-.5-11.12 2.74-11.11 8.6 0 4.88 2.64 8.01 7.29 8.69.83.12 3.64.12 4.55.01ZM51.06 7.28c-.02-.07-.13-.53-.25-1.02-.73-3.12-3.17-5.41-6.38-5.97-.67-.12-.85-.29-.3-.29 1.06 0 2.96.81 4.18 1.78 1.51 1.2 2.7 3.28 2.86 4.99.05.56-.01.85-.11.51ZM.03 6.64C.26 4.59 2.22 1.92 4.27.87 5.18.4 6.45 0 7.02 0c.43 0 .33.17-.14.25C3.72.77 1.12 3.19.36 6.29c-.2.84-.41 1.06-.33.35Z"/></svg>