<svg xmlns="http://www.w3.org/2000/svg" width="51" height="51" viewBox="0 0 51 51"><path fill="#fff" fill-rule="evenodd" stroke="#fff" stroke-width=".751" d="M46.25 50.26c1.76-.88 3.06-2.13 3.87-3.72.23-.45.44-.81.46-.79s-.17.44-.43.94c-.88 1.71-2.95 3.5-4.55 3.95-.14.04.16-.13.65-.38ZM30.78 35.62 25.15 30l-.54.57C22.94 32.34 14.35 40.9 14.24 40.9c-.15 0-4.54-4.49-4.54-4.65 0-.09 6.65-6.76 9.78-9.8l1.22-1.19-1.1-1.11-1.1-1.1V20.9l-.01-2.15-.44-.33-.45-.33v.69c0 .38-.03 1.09-.07 1.58l-.06.89-.83.68c-.45.37-.89.67-.97.67-.15 0-1.39-1.25-3.52-3.58-.77-.83-1.46-1.52-1.53-1.52s-.44.25-.81.55c-.86.7-.93.7-.85.02.73-6.11 5.16-9.79 8.81-7.32.83.56 6.43 5.98 6.43 6.22 0 .06-.27.36-.6.65s-.59.56-.58.59c.02.04.59.64 1.27 1.34l1.23 1.27 1.21-1.19c1.66-1.61 1.56-1.41.97-2.1-.27-.32-.5-.63-.5-.69 0-.1 1.69-1.79 4.59-4.58 2.04-1.97 2.89-2.38 4.46-2.15 2.79.39 5.73 4.04 5.92 7.36.08 1.31.02 1.36-.94.67-.42-.3-.8-.53-.84-.52-.05.02-1.23 1.15-2.64 2.51-1.4 1.37-2.6 2.47-2.65 2.45s-.46-.34-.9-.72l-.8-.7v-3.27l-.6.53-.6.53v4.3l-1.05 1.05-1.05 1.05 5.5 5.51c3.03 3.02 5.5 5.57 5.5 5.65 0 .12-1.89 2.04-4.02 4.09l-.67.64zm9.47 1.59.69-.71-5.49-5.49c-3.03-3.03-5.51-5.56-5.53-5.63-.01-.07.45-.6 1.03-1.18L32 23.15v-2.1c0-1.15.04-2.15.08-2.21.2-.29 1.34-1.24 1.42-1.19.06.04.1.76.1 1.73v1.67l.73.63c.39.34.76.62.82.62s.98-.87 2.05-1.93 2.23-2.19 2.57-2.51l.61-.59.83.58.82.58-.06-.89c-.23-3.51-3.28-7.11-6.1-7.23-1.65-.06-1.95.14-5.65 3.77l-2.83 2.77.55.66.55.66-1.45 1.44c-.8.79-1.51 1.43-1.57 1.41-.17-.05-2.61-2.62-2.65-2.8-.02-.08.24-.4.58-.71l.63-.56-2.44-2.39c-4.13-4.04-4.52-4.31-6.24-4.31-.8.01-1.11.05-1.57.23-2.17.87-4 3.67-4.5 6.89-.15.93-.11.96.6.34.32-.28.65-.51.73-.51.09 0 .99.91 2.01 2.02 1.03 1.12 2.14 2.3 2.47 2.62l.6.59.79-.67.8-.66.07-1.65c.04-.91.11-1.65.16-1.65s.33.19.63.42l.54.42.07 1.03c.04.57.04 1.54 0 2.16l-.07 1.12 1.11 1.1c.61.6 1.11 1.14 1.11 1.2s-.6.69-1.32 1.4c-.73.71-3.21 3.16-5.5 5.44L9.9 36.24l.62.65c.34.36 1.32 1.37 2.17 2.24l1.56 1.59 5.43-5.46c2.99-3 5.46-5.46 5.5-5.46.03 0 2.57 2.5 5.64 5.57l5.57 5.56 1.58-1.51c.87-.83 1.89-1.82 2.28-2.21ZM.55 5.5C1.08 3.67 3.71 1.04 5.5.56c.14-.04-.11.11-.55.32C3.2 1.73 1.84 3.08.92 4.9c-.24.47-.41.74-.37.6Zm49.6-.88C49.5 3.39 48.33 2.16 47 1.31c-.36-.22-.61-.41-.56-.41.26 0 1.84 1.2 2.48 1.89.65.7 1.68 2.25 1.57 2.36-.03.02-.18-.22-.34-.53Z"/></svg>