<svg xmlns="http://www.w3.org/2000/svg" width="51" height="51" viewBox="0 0 51 51"><path fill="#fff" fill-rule="evenodd" stroke="#fff" stroke-width=".409" d="m13.73 46.33-.63-.04v-4.78l-1.11-.03-1.11-.03-.44-1.05c-.65-1.5-.62-1.51-.85.18l-.12.92H6.61l-.58-1.13-.58-1.14.21-1.43.21-1.44-.51-.95-.51-.95h-2.4l-2.4-.01-.03-5.09c-.03-4.83-.02-5.13.17-5.85.12-.48.2-1.11.21-1.74 0-.54.05-1.09.11-1.24.1-.28.05-.27 1.16-.04.53.1.53.1.53-.58 0-1.04.43-1.6 1.3-1.71.41-.04.45-.07.43-.3-.25-2.96-.22-3.06 1.23-3.43l.89-.23.09-.42c.09-.45.29-.57.77-.5.3.04.59-.3.59-.67 0-.28.51-.33 1.03-.11.15.07.17.02.17-.5 0-1.03.36-1.8.97-2.09.36-.17 2.48-.22 2.58-.05.03.06.28.1.55.1.56 0 .47.18.69-1.43.2-1.44 1.11-2.04 1.59-1.04.07.15.16.27.2.27.11 0 .56-.82.63-1.15l.06-.3.02.33c.01.25.05.32.21.32.31 0 .7.44.7.79 0 .25.06.33.34.45.18.08.4.23.47.34.2.27.74.38.95.18.18-.19.33-.2.69-.06.24.09.26.08.23-.17-.02-.21.02-.28.22-.33.22-.05.26-.12.3-.6.06-.66.7-1.01.7-.39 0 .11.05.16.13.13.22-.08.69.15.74.36.03.11.11.2.19.2.07 0 .19.09.27.21.2.28.57.1.57-.27 0-.13.07-.27.15-.3.08-.04.15-.14.15-.23 0-.17.71-.54 1.28-.66.17-.04.32-.1.32-.13 0-.04.45-.05 1-.04l1 .04v-.55c0-1.01 1.94-1.72 3.1-1.13.18.09.34.15.35.14.01-.02.11-.16.22-.31.18-.23.2-.33.11-.57-.27-.79.14-1.16 1.67-1.49 1.31-.27 1.66-.27 2.02.03.16.13.49.26.78.31.97.14 1.42.56 1.32 1.24l-.05.39.46.06c.68.09 1.2-.15 1.57-.72.55-.85 2.03-1.29 2.8-.83.23.13.53.21.82.21.39 0 .5.05.78.34.17.18.46.37.63.41.19.04.44.21.6.41.32.4.55.43.7.1.27-.6 2.04-.5 2.37.14.35.67.12 1.2-.55 1.29-.38.05-.45.1-.54.38-.2.59-.37.64-.3.08.08-.61.11-.65.63-.72 1.03-.14.75-1.23-.32-1.23-.65 0-1.07.1-1.07.26 0 .08-.11.19-.24.25-.29.14-.76.04-.76-.14 0-.23-.45-.57-.76-.57-.22-.01-.34-.09-.49-.33-.19-.3-.25-.32-.76-.32-.42-.01-.62-.06-.85-.24-.6-.47-2.04-.04-2.5.75-.36.61-1.12.96-1.75.82-.72-.17-.74-.2-.71-.75.05-.65-.22-.89-1.08-.99-.43-.05-.65-.13-.81-.3-.29-.31-.7-.31-2.08 0-1.29.29-1.48.49-1.21 1.22.09.23.07.33-.14.62l-.24.34.39.38c.44.41.54 1.03.23 1.34-.17.18-.84.22-.84.06 0-.05.09-.1.19-.1.8 0 .72-.76-.14-1.35-.71-.49-1.17-.59-1.91-.39-1.12.29-1.28.41-1.34 1.04-.05.58-.26.8-.77.8-.41 0-.34.19.17.45l.51.26.75-.17c.87-.19 1.06-.16 1.94.37l.66.39.75-.19c2.04-.52 3.52-.25 3.74.69.1.44-.84 1-1.26.74-.17-.1 0-.21.39-.28.73-.11.77-.57.09-.93-.39-.21-1.62-.23-2.52-.03-.88.18-.95.23-.95.75 0 .33-.04.45-.15.45s-.15-.12-.15-.44c0-.65-1.24-1.44-2.08-1.31-1.07.16-1.31-.03 4.63 3.65 1.26.79 2.73 1.69 3.25 2.02l.95.59.05-.43c.06-.52.57-.71 1.37-.5.24.07.7.12 1.03.12h.6v.83c0 .79-.01.85-.3 1.12-.16.16-.3.24-.3.17 0-.06.05-.14.11-.17.06-.04.08-.13.05-.21s-.01-.14.04-.14c.06 0 .1-.29.1-.64v-.64l-.62-.05c-.35-.04-.78-.09-.95-.13-1.07-.21-1.21.62-.22 1.23 1.91 1.18 2.9 1.88 2.93 2.07.02.12.18 1.18.36 2.36.4 2.67.47 2.98.71 3.05.1.04.19.1.19.15 0 .16.35.2.87.1.29-.06.53-.16.53-.21 0-.06.13-.01.28.1l.29.2.21-.52c.28-.68.29-.86.01-.61l-.2.18.07-.54c.09-.78.46-1.01.95-.61.19.15.28.16.56.08.29-.09.36-.07.58.13.34.32 1.44.21 1.18-.12-.13-.16-.22-.57-.34-1.56-.1-.83-.11-.92-.07-1.37.03-.24-.01-.31-.19-.33-.29-.04-.4-.44-.24-.87.21-.59.14-1.68-.12-1.93-.25-.24-.83-.3-.9-.1-.03.1-.07.1-.18.01a.45.45 0 0 0-.36-.07c-.18.05-.21.02-.16-.15.04-.16.01-.21-.15-.21-.14 0-.22.08-.24.23-.03.19-.07.17-.26-.2-.42-.81-1.13-1.06-1.77-.63-.16.11-.4.2-.51.2-.16 0-.23.07-.26.3-.05.31.07.42.39.34.11-.03.24.01.3.08.09.11-.02.13-.58.13-.47 0-.7-.04-.74-.13-.07-.2-.45.04-.45.28 0 .11-.04.2-.1.2-.15 0-.12-.58.03-.67.08-.05.18-.52.26-1.28.07-.66.15-1.32.18-1.47.05-.27.03-.28-.33-.29l-.39-.01.39-.09c.43-.1.58-.03.79.4.22.47.77.37.91-.16.11-.42.71-1.03 1.02-1.03.07 0 .26-.11.42-.25.17-.14.38-.25.47-.25.25 0-.46.68-.85.82-.17.05-.3.14-.3.19s-.11.14-.25.19c-.2.08-.25.16-.25.44 0 .25-.07.4-.23.53-.21.15-.23.21-.14.5.08.25.07.37-.06.57-.25.37-.21.4.17.17.62-.39 1.66-.17 1.96.4.06.1.21.19.33.19.13 0 .32.07.43.15.1.08.41.15.67.15 1.13 0 1.59.97 1.15 2.42-.11.36-.1.4.18.69.26.27.29.37.3 1.02.01.4.04 1.02.08 1.39l.07.66.42-.1c1.26-.28 1.34-.12 1.41 2.72.03 1.29.08 2.63.12 2.98l.07.62h.49c.85 0 .82-.12.83 3.44 0 1.71-.02 3.48-.04 3.94l-.04.82h-2.52c-1.82 0-2.54.03-2.63.12-.16.16-.15.28.02.28.27 0 .58 2.08.36 2.35-.11.14-.1.17.07.21.17.05.23.19.32.8.19 1.3.2 1.26-.83 2.87l-.37.57H38.1v4.8h-.72c-6.47.02-20.12-.02-20.19-.06-.05-.03-.09-.25-.09-.5v-.44h-.55c-.6 0-.82.43-.38.76.1.07.15.15.12.18-.08.09-1.8.14-2.56.09Zm1.5-.95c.04-.32.02-.57-.04-.65-.08-.09-.08-.13 0-.13.07 0 .11-.2.11-.5 0-.49.01-.5.3-.5h.3v1.2h1.05v-1.15l.33-.03.32-.03v2.31h1.7v-5.7h-1.7v2.28l-.27.05c-.39.07-.43.02-.43-.59v-.54h-1v.55c0 .54 0 .55-.3.55h-.3v-2.31l-.87.03-.88.03-.03 1.73-.02 1.72h.7l-.02.58-.02.57-.03-.52c-.04-.51-.05-.53-.34-.53h-.29v.98c0 1.18-.05 1.12.9 1.12h.77zm6.39-.6.03-1.13h.3c.3 0 .3 0 .33.63l.03.62h1.59v-4.6H20v2.58c0 1.41-.03 2.67-.06 2.8-.06.22-.05.22.8.22h.85zm2.28.67V45h-.86c-.74 0-.85.02-.8.16.03.09.06.29.06.45v.29h1.6zm2.3-.39v-.84l1.15.05 1.15.06V43.1h-.55c-.54 0-.55 0-.55-.3s.01-.3.55-.3h.55v-2.2h-1.6v.8c0 .94.01.93-.95.81-.63-.08-.65-.09-.22-.1l.47-.01v-1.5h-1.7v.45c0 .64.56.71.63.08l.04-.38.01.43c.02.42.02.42-.33.42h-.35v4.6h1.7zm2.3.09v-.75h-1.6v1.5h1.6zm1.28.11c-.01-.35 0-.62.05-.59.04.02.07.31.07.64v.59h3.2v-1.1h-2.25l.03-.6.04-.6h2.18v-1h-2.17l-.07-.31c-.03-.17-.06-.44-.06-.6v-.29h2.3v-1.1h-3.97l.03.58c.02.31.03.63.04.7 0 .06.12.13.28.13l.27.02-.27.04-.28.04-.01 1.27c-.02 1.47-.01 1.55.14 1.64.08.05.06.08-.05.08-.14 0-.18.09-.18.39 0 .58.08.71.42.71h.3zm4.92.04v-.6h.7v-.56c0-.84.53-.81.58.04.03.45.06.52.25.53l.22.02-.22.04c-.21.04-.23.1-.23.59v.54h1.7v-2.8h-.31c-.43 0-.4-.53.04-.58l.27-.03V40.3h-4v.7c0 .69 0 .7.28.71l.27.02-.27.04-.28.04v4.09h1zM8.9 40.91c0-.05-.16-.43-.35-.85l-.35-.76-1.04.01-1.05.01.22.44c.2.43.67.65.67.32 0-.09.04-.08.1.02.07.12.03.16-.2.2-.28.05-.28.05-.15.38l.14.32H7.9c.55 0 1-.04 1-.09Zm4.22-.48.03-.58.58-.03c.48-.02.58-.06.53-.18-.03-.09-.06-.2-.06-.25s-.6-.09-1.35-.09c-.74 0-1.35.02-1.35.04s.09.23.2.47.2.51.2.59c0 .11-.5-.96-.5-1.07 0-.02-.18-.03-.41-.03-.46 0-.46-.09-.01 1.02l.27.68h1.84zm26.34-.28c.19-.44.34-.81.34-.82 0-.02-.49-.03-1.1-.03s-1.1.04-1.1.09-.03.16-.06.24c-.04.11.04.17.25.22.3.06.31.08.31.61v.55l.51-.03.52-.03zm5.85 0 .47-.8-.74-.03c-.67-.03-.76-.01-.97.21-.12.12-.16.16-.09.07.21-.28.15-.3-1.14-.3-1.09 0-1.29.02-1.4.18-.13.16-.14.16-.08 0 .05-.15 0-.18-.34-.18-.35 0-.41.04-.5.28-.06.15-.22.53-.36.85l-.26.57 2.47-.02 2.46-.03zm-28.16-.12c.05-.22.11-.23.85-.23.79 0 .8 0 .8-.25v-.25h-1.1c-.61 0-1.1.04-1.1.09 0 .04.04.21.1.37.05.16.15.49.22.74l.12.45.03-.35c.02-.19.06-.45.08-.57Zm16.59-.39c.03-.09.06-.2.06-.25s-1.09-.09-2.6-.09h-2.6v.5h2.54c2.22 0 2.55-.02 2.6-.16ZM8.2 38.88c.01-.07.15-1.17.33-2.43l.33-2.3.72-.03c.51-.02.72-.07.72-.16 0-.07.03-.34.06-.6l.07-.46H5.52l-.07.37c-.03.21-.09.48-.12.61-.05.21-.03.22.72.22.68 0 .76.02.71.17-.03.1-.19 1.08-.36 2.18s-.33 2.12-.36 2.28l-.06.27h1.11c.82 0 1.11-.03 1.11-.12Zm3.11-.1.02-.23.04.23c.04.22.07.22 1.42.22h1.38l-.05-.3c-.04-.3-.04-.3.39-.28l.44.01-.38.04c-.77.08-.47.47.39.51.79.03.84-.01.84-.75v-.33h-3.01l.07-.63c.04-.34.09-.65.11-.69.02-.05.69-.08 1.47-.08h1.44l.06-.31c.03-.17.06-.42.06-.55v-.24h-1.45c-1.63 0-1.51.07-1.39-.84l.07-.46h2.84l.07-.37c.03-.21.06-.48.06-.61v-.22h-2.44c-1.35 0-2.47.03-2.49.08-.24.38-.17 1.38.1 1.49l.28.12-.27-.06c-.35-.06-.34-.08-.53 1.52-.2 1.76-.22 1.63.27 1.68l.43.04-.46.01-.46.02-.07.46c-.1.74-.1.74.34.74.34 0 .4-.03.41-.22Zm7.43 0c.03-.13.06-.39.06-.58.01-.93.1-1.12.49-1.05.46.09.43-.01.33.99l-.08.86h.68c.67 0 .68 0 .69-.27l.02-.28.04.28c.04.24.08.27.43.27h.39l.03-1.5c.03-1.7.09-1.6-.89-1.6-.52 0-.53 0-.53-.3v-.3h1.5v-.97c0-.54.03-1.08.06-1.21.06-.22.05-.22-1-.22H19.9v.59c0 1.06-.07 1.21-.51 1.21H19v-1.8h-2.1l.01.96.01.96.34-.04c.19-.02.34 0 .34.04s-.18.08-.4.08c-.33 0-.4.03-.4.2 0 .18.07.2.7.2s.7.02.7.2v.27c0 .05-.3.1-.67.13l-.68.05-.06.6c-.04.33-.09 1.02-.13 1.53l-.07.92h1.04c1 0 1.05-.01 1.11-.22Zm7.46-2.27v-2.49l.23-.06c.12-.03.46-.06.75-.06h.52v-1h-4.8v1l.43.01c.85.01.8-.16.78 2.62L24.09 39h2.11zm7.65 2.07c-.06-.48-.45-5.18-.45-5.49 0-.17-.08-.19-1.01-.19h-1.01l.06 1.53c.11 2.64.13 2.77.44 2.78l.27.02-.27.04c-.23.04-.28.09-.28.34 0 .29-.01.3-.42.27l-.43-.03-.06-1.4c-.04-.77-.07-1.46-.08-1.52-.02-.26-1.19-.17-1.24.09-.04.2-.04.19-.06-.04-.01-.28-.01-.28.64-.28h.65v-1.8h-2.13l.06 2.03c.04 1.11.07 2.48.07 3.05V39h5.31zm2.02-.29-.06-.7.42.03.42.03v-1.1h.8l.05.5c.05.46.07.5.35.56l.3.07-.27.01c-.31.01-.34.17-.22.93l.07.38h2.19l-.06-.32c-.03-.18-.13-.88-.22-1.56l-.17-1.22h-.32c-.27 0-.34-.05-.37-.25-.06-.31-.02-.35.34-.35.33 0 .33.09.04-1.65l-.12-.7-2.41-.02-2.4-.02.04.47c.09 1.06.11 1.12.43 1.12.28 0 .29-.02.33-.52l.03-.53.02.57.02.58h-.35c-.27 0-.35.04-.35.17 0 .25.28 3.29.35 3.81l.06.42h1.12zm5.54.44.02-.28.04.28.04.27h2.69v-.3c0-.26.03-.3.28-.29.23.02.24.02.05.06-.16.03-.23.11-.23.29 0 .23.02.24.8.24h.8l-.06-.42c-.03-.24-.07-.49-.1-.56-.02-.09-.41-.12-1.48-.12-.8 0-1.47-.04-1.5-.08-.02-.04-.08-.36-.12-.7l-.07-.62h2.92l-.06-.38c-.12-.75-.03-.71-1.61-.75-1.65-.05-1.5.02-1.58-.7l-.07-.57h2.95l-.05-.22c-.03-.13-.09-.4-.12-.61l-.07-.37h-5l.06.22c.03.13.06.35.06.5 0 .24.04.28.33.3l.32.01-.31.04c-.45.06-.36.42.1.44l.31.01-.3.07c-.16.03-.29.1-.29.14.01.04.04.35.08.7.04.34.13 1.07.21 1.62s.17 1.24.2 1.53c.08.63.73.84.76.25ZM23.82 35.4c.03-1.24.06-1.2-.79-1.2h-.55l.07-.6c.06-.49.04-.6-.08-.6-.17 0-.27.95-.27 2.52v.98h1.59zm4.36-.02-.03-1.13-.82-.03-.83-.03v2.31h1.71zm-14.73-3.09c.06-.06.48-5.59.43-5.65-.03-.02-.34.06-.69.18l-.64.23-.16 1.9c-.09 1.05-.19 2.24-.23 2.65l-.07.75.66-.01c.36-.01.68-.03.7-.05Zm1.93.03c.08-.01.12-.25.12-.77v-.75l-.26.06c-.15.04-.52.14-.83.23l-.56.17-.06.5c-.03.27-.05.51-.03.54.02.05 1.33.06 1.62.02Zm3.21-.07c.18-.18.24-3.84.06-3.79-.11.03-.28.08-.37.1-.18.05-.23.41-.33 2.56l-.06 1.26.33-.05c.18-.03.35-.06.37-.08Zm1.55.04c.02-.02.06-1.8.1-3.96l.07-3.92-.46.15c-.31.11-.47.23-.5.37-.04.17-.45 6.92-.45 7.35 0 .08 1.17.09 1.24.01Zm13.08-.79c-.01-.47-.09-2.09-.17-3.6s-.15-2.78-.15-2.81c0-.07-1.78-.64-1.84-.58-.02.02 0 .65.04 1.39.05.74.12 2.51.16 3.93l.07 2.58.96-.03.96-.03zm2.04.82c.08-.05.1-.31.07-.79-.06-.81 0-.75-1.13-1.03-.25-.06-.52-.13-.6-.16-.14-.04-.18 1.54-.05 1.93.05.14 1.51.18 1.71.05Zm5.72-.07c.02-.02-.2-.08-.48-.15-.65-.16-.63-.09-.94-2.65-.15-1.15-.3-2.12-.34-2.16-.07-.06-1-.39-1.12-.39-.03 0-.03.28.01.63.04.34.15 1.45.24 2.47.22 2.54.11 2.29 1.03 2.32.69.03 1.52-.01 1.6-.07Zm-31.67-.02c0-.05.1-1.01.22-2.15.15-1.36.19-2.08.12-2.08-.32.01-.37.2-.46 1.68-.07 1.41-.14 2.02-.26 2.44-.03.13.01.18.16.18.12 0 .21-.03.22-.07Zm2.53-.4c.29-2.17.41-4.63.24-4.63-.34.01-.39.19-.58 2.36-.11 1.2-.23 2.31-.26 2.46-.05.26-.03.28.24.28.28 0 .3-.03.36-.47Zm4.7.31c.12-.33.07-3.14-.06-3.14-.53.01-.56.06-.62 1.23-.04.62-.09 1.33-.12 1.6l-.06.47h.4c.27 0 .42-.05.46-.16Zm1.1-.36c.1-1.04.16-3.08.09-3.08-.05 0-.25.05-.45.11l-.38.1v.78c0 .43-.03 1.19-.06 1.69l-.07.92h.82zm3.7-2.66c.04-1.74.1-3.68.14-4.31l.07-1.13.65-.25c.36-.13 1.29-.46 2.08-.73l1.42-.5 2.63.95c1.44.52 4.06 1.44 5.82 2.05s4.18 1.45 5.38 1.87c1.19.42 2.2.73 2.23.7.11-.11-.07-1.17-.19-1.17-.07 0-.46-.13-.87-.28-.41-.16-1.07-.41-1.47-.56l-.71-.27-.07-.74c-.04-.41-.12-.76-.19-.79-.06-.02-1.5-.61-3.19-1.3l-3.08-1.25.03.7.03.71.9.34c.5.2 1.69.64 2.65.99 2.48.9 2.35.84 2.23.96-.11.11-1.01-.2-7.8-2.75l-4.42-1.66-1.08.39c-.59.22-1.72.64-2.51.95-1.84.72-1.72.73-1.72-.23v-.79l-.4.15-.39.16-.03.84-.03.85-4.6 1.72c-6 2.25-5.35 1.94-5.35 2.55v.5l1.18-.4c4.87-1.69 9.68-3.29 9.78-3.25.11.04.11 5.86 0 7.64l-.03.52h.85zM24 31.6c0-.77 0-.77-.62-.59l-.38.1v1.19h1zm1.4-.2v-.9l-.28.06c-.84.21-.77.13-.8.97l-.03.77h1.11zm1.48.13-.03-.77-.54-.13c-.64-.17-.57-.26-.64.8l-.05.87h1.29zm1.52.19v-.59l-.51-.11c-.28-.07-.55-.12-.6-.12s-.09.31-.09.7v.7h1.2zm8.05.3c-.03-.15-.1-.79-.15-1.42-.12-1.26-.12-1.25-.54-1.36l-.29-.07.06 1.08c.04.59.07 1.3.07 1.57v.48h.45c.43 0 .44-.01.4-.28Zm1.02.14c-.03-.07-.11-.66-.18-1.31-.12-1.08-.15-1.18-.37-1.26-.42-.16-.45-.12-.39.49.04.31.09.94.13 1.4l.07.82h.39c.3 0 .39-.04.35-.14Zm.79-.18c-.03-.18-.08-.72-.12-1.21-.07-.87-.07-.87-.38-.96-.17-.04-.31-.08-.32-.07s.06.58.14 1.29l.16 1.27h.29c.27 0 .29-.02.23-.32Zm3.92-.45c-.34-3.42-.33-3.37-.69-3.46-.19-.05-.2-.03-.15.26.05.31.29 2.23.41 3.4.06.51.09.57.29.57.22 0 .22-.02.14-.77Zm-31.98.19c0-.27.29-3.23.35-3.6.05-.27.03-.32-.13-.32-.33 0-.39.2-.56 2-.09.96-.19 1.87-.22 2.02-.05.27-.05.27.25.17.18-.06.31-.18.31-.27Zm.78-.07c.02-.02.42-3.93.42-4.12 0-.06-.26-.02-.38.06-.12.07-.51 3.09-.52 3.99 0 .21.27.25.48.07Zm-3.75-.71c-.03-.08-.09-.14-.14-.14S7 30.72 7 30.63c0-.14.04-.13.24.06l.25.23.2-.33c.36-.59.14-1.43-.23-.87-.09.14-.14.32-.11.41.04.1-.01.18-.17.23-.13.04-.37.18-.55.31l-.32.25.22.33.22.34.27-.26c.14-.14.24-.32.21-.39ZM31 30.41c0-1.11-.17-4.77-.26-5.58-.05-.49-.42-.83-.9-.83-.05 0 .01 3.02.12 5.77l.06 1.41.37.1c.63.17.61.21.61-.87Zm-8.3-.42c0-.66-.03-.87-.12-.84-.07.02-.32.09-.55.15l-.43.11v1.76l.55-.15.55-.15zm7 .49c0-.99-.24-1.28-1.04-1.28-.03 0-.06.38-.06.84v.83l.43.1c.69.17.67.19.67-.49Zm-15.17.23c.07-.07.3-2.71.24-2.77-.02-.02-.17.01-.34.07-.34.11-.33.09-.49 2.08l-.07.84.29-.07c.16-.04.32-.11.37-.15Zm9.11-.07.36-.06v-1.75l-.5.11-.5.1v.89c0 .73.03.88.14.84.08-.03.31-.09.5-.13Zm4.74-.64c-.05-.93-.02-.88-.67-1.05l-.52-.13.03.85.03.86.4.13c.78.24.78.24.73-.66Zm-12.82.46c.07-.07.14-2.76.07-2.76-.54.01-.57.09-.68 1.93l-.06.99.33-.07c.18-.04.34-.08.34-.09Zm9.94-1.12c0-.46-.03-.84-.07-.84-.05 0-.31.06-.58.13l-.5.13-.03.86-.03.86.61-.15.6-.15zm1.33-.54c-.08-.07-.93-.3-1.12-.3-.07 0-.11.31-.11.83v.82l.63.15.62.15.03-.79c.02-.43-.01-.82-.05-.86Zm8.39 1.32c-.02-.2-.06-.89-.1-1.52-.07-1.13-.07-1.15-.34-1.24-.4-.14-.4-.12-.32 1.44l.07 1.42.31.14c.43.18.42.19.38-.24Zm6.08.11c-.01-.63-.3-2.27-.42-2.34-.4-.26-.45-.08-.27 1.18.15 1.13.17 1.21.37 1.26.3.08.32.07.32-.1Zm-7.04-.4c-.03-.21-.08-.9-.12-1.55l-.06-1.16-.41-.1-.4-.11.07 1.06c.03.58.06 1.28.06 1.54 0 .46.02.49.33.58.56.16.59.15.53-.26Zm6.06-.95c-.16-1.25-.17-1.28-.44-1.37-.33-.12-.33-.2-.1 1.39.16 1.1.35 1.44.69 1.26.01-.01-.06-.58-.15-1.28Zm-2.33.3c-.04-1.47-.24-2.41-.52-2.51-.16-.05-.3-.07-.33-.05-.1.11.24 2.71.37 2.79.31.19.49.1.48-.23Zm-.94-.35c-.03-.27-.1-.86-.15-1.33-.06-.46-.1-.9-.1-.96 0-.07-.14-.17-.31-.23l-.31-.11.06.38c.03.2.08.75.11 1.22.08 1.15.13 1.38.33 1.43.41.11.43.08.37-.4Zm-14.65.07c.28-.07.46-1.6.19-1.6-.5 0-.89.24-.89.55 0 .18-.03.53-.06.79l-.07.47.29-.07c.16-.04.4-.1.54-.14Zm7.22-1.32c-.02-.84-.07-2.02-.1-2.62l-.07-1.09-.43-.15c-.56-.18-.52-.44-.45 2.55l.06 2.62.36.09c.7.19.66.28.63-1.4Zm6.54 1.15c-.02-.16-.07-.64-.11-1.08-.11-1.5-.22-1.75-.79-1.75-.01 0 .02.44.05.97.04.54.07 1.2.08 1.46.01.4.05.49.23.57.45.17.6.13.54-.17Zm-19.56-.09c.06-.07.24-2.94.18-2.99-.03-.03-.18 0-.35.05-.32.12-.43.77-.43 2.59 0 .51.27.67.6.35Zm11.7-2.08c0-3.07 0-3.08-.61-3.34l-.49-.2v5.47l.48.14c.26.08.5.15.55.16.04.01.07-1 .07-2.23Zm-4.68 2.03.38-.1v-.81c0-.8 0-.8-.25-.74-.75.19-.75.19-.75 1.01s0 .82.62.64Zm19.09-.21c.07-.18.17-.36.22-.39.05-.04.1-.18.1-.33 0-.14.05-.26.11-.26.07 0 .22-.13.34-.29l.22-.3-.26-.2c-.49-.38-.53-.34-1.04 1.11-.19.55-.21.7-.1.82.18.23.26.2.41-.16Zm-25.2.07c.28-.07.39-.81.39-2.62v-.61l-.39.15-.39.15-.06 1.12c-.04.61-.09 1.31-.13 1.55-.05.39-.04.43.13.38.11-.04.31-.09.45-.12Zm9.39-.83v-.88l-.62-.15c-.57-.14-.7-.13-1.28.01l-.65.16-.03.82c-.03.92-.06.9.75.69.45-.12 1.41 0 1.81.22.01 0 .02-.39.02-.87Zm-8.24.53c.2-.05.22-.14.28-1.43.04-.75.09-1.49.12-1.64l.05-.27-.45.15c-.44.15-.46.18-.46.53 0 .21-.03.93-.07 1.61-.07 1.35-.12 1.24.53 1.05Zm3.75-1.11c.31-.07.39-.54.39-2.4v-1.12l-.47.18c-.56.21-.6.36-.62 2.39-.01 1.13-.01 1.13.22 1.07.12-.04.34-.09.48-.12Zm1.2-.36c.24-.07.39-.17.39-.27.02-.54-.01-3.26-.04-3.28-.01-.02-.21.05-.44.14l-.42.16v.56c0 .31-.03 1.07-.07 1.69-.07 1.24-.09 1.2.58 1Zm-12.06-.99 1.5-.57.03-.56c.04-.68.11-.68-1.39-.06-1.69.69-1.58.77-1.38-.96.11-1 .08-1.18-.15-.93-.11.12-.56 3.01-.56 3.63 0 .21-.06.23 1.95-.55Zm13.59.56c.46-.14.57-.14 1.01 0 .77.23.75.24.75-.63v-.78l-.65-.16c-.59-.14-.71-.14-1.3 0l-.65.16v.78c0 .89-.01.88.84.63Zm16.51-.67c-.15-1.86-.29-2.8-.42-2.94-.28-.28-.36-.16-.3.44.24 2.29.38 2.1-1.15 1.48l-1.08-.43.01.41c.01.7.06.75 1.4 1.27 1.68.65 1.62.66 1.54-.23Zm-24.62-1.93 2.17-.8v-.68c0-.81.27-.84-2.24.2-1 .41-2.2.9-2.68 1.1l-.88.35v1.17l.73-.27c.4-.15 1.71-.63 2.9-1.07Zm-5.9.74c.08-.06.37-2.2.32-2.27-.02-.02-.18.03-.37.11l-.35.15-.11 1.01c-.16 1.4-.17 1.33.16 1.19.15-.07.31-.15.35-.19Zm29.67.09c-.04-1.35-.36-2.38-.75-2.38-.16 0 .18 2.29.36 2.41.2.13.39.11.39-.03Zm-15.7-.12c.45-.1.64-.1 1.05.01.77.2.75.22.75-.66v-.79l-.6-.2-.6-.21-.67.23-.68.23-.03.76c-.03.86-.07.83.78.63Zm-12.76-.7c.1-.59.18-2.06.12-2.06-.22 0-.66.34-.71.53-.04.2-.25 1.93-.25 2.09 0 .25.79-.28.84-.56Zm27.46-.56c-.09-.66-.19-1.22-.21-1.24-.11-.1-.91-.47-.95-.43-.06.06.18 2.2.26 2.36.06.12.79.48 1.01.5.03.01-.02-.53-.11-1.19Zm-33.95.85c.11-.03.62-.14 1.13-.24 1.07-.22 1.07-.22.93-.49-.19-.35-.12-.35.23.02.3.33.38.36.89.36h.55l.15-.87c.28-1.57.31-2.03.14-2.03-.08 0-.18-.12-.22-.27-.13-.52-.46-.95-.69-.91-.16.03-.22-.01-.22-.13 0-.13.04-.15.12-.08.14.11.76-.11.89-.31.04-.07-.07-.26-.26-.48l-.34-.35.32.22c.18.12.35.26.38.32.04.05.11.07.16.04.16-.11.1.08-.11.3-.2.21-.2.22-.01.39.23.21.24.2.41-1.59.14-1.48.14-1.42-.13-1.17-.13.12-.26.19-.3.16-.03-.04.04-.14.16-.24.21-.18.22-.18.03-.39-.24-.27-.34-.26-.46.02-.05.12-.09.17-.09.1-.03-.43.21-.53.58-.24.25.19 2.4-.91 2.66-1.37.06-.09.17-.16.25-.15.18.04 1.83-1.01 1.74-1.1s.06-.48.17-.42c.05.04.05.14-.02.26-.1.2-.1.2.22.03.54-.27 4.12-2.46 4.32-2.62.2-.17.23-.77.05-.86-.1-.05-.1-.07 0-.12.21-.1.15-.62-.09-.69-.22-.07-.93.1-1.16.28-.24.17-.61-.01-.68-.33-.05-.22-.17-.35-.43-.48-.3-.14-.38-.25-.47-.61-.21-.87-.76-.78-1 .16-.18.7-.53.7-.71-.01-.29-1.12-1.03-.75-1.17.6-.06.5-.06.51.29.63.2.07.34.15.31.17-.02.03-.17 0-.32-.06-.35-.13-.48.01-.41.46l.04.32-.61.09c-.52.09-.66.08-.87-.06-.37-.24-2.13-.2-2.49.06-.49.36-.71.97-.71 1.95v.87l.43.04.42.04-.47.01c-.38.02-.46.05-.42.17.04.08.03.15-.01.15-.12 0-.35-.28-.35-.43 0-.12-.39-.37-.59-.37-.04 0-.22.22-.39.5-.29.46-.34.49-.68.47-.24-.01-.39.03-.43.13-.04.08-.14.28-.22.45-.11.22-.24.31-.54.38-1.56.34-1.65.43-1.65 1.56 0 1.16.09 1.61.34 1.61h.21l-.21.18c-.12.09-.24.25-.27.34-.05.14-.17.18-.5.18-.74 0-1.13.47-1.17 1.4-.03.63-.01.7.23.7.46 0 1 .85.66 1.05-.03.03 0 .39.07.82.21 1.25.21 1.23.54 1.23.17 0 .3.04.3.09 0 .06.19.14.43.2.39.09.58.08 1.12-.04Zm10.09-1.46c1.76-.71 3.46-1.4 3.76-1.53l.55-.23.07-.54c.07-.64.1-2.49.03-2.49-.38 0-.75.37-.75.75 0 .23-.03.63-.06.87l-.06.46-1.03.46c-1.32.59-1.25.6-1.25-.29v-.75l-.36.15c-.48.2-.54.14-.54-.56s.05-.68-.75-.23c-.74.41-.72.35-.81 1.84-.09 1.55-.07 1.51-1.13 1.96-.58.24-.91.44-.91.54 0 .08-.03.32-.06.53-.08.48-.4.57 3.3-.94Zm22.51.21c-.08-.58-.15-1.13-.15-1.22 0-.1-.13-.24-.29-.32l-.29-.16.05.59c.07.75.04.76-1.02.31-1.01-.43-1.15-.59-1.15-1.35 0-.62-.05-.69-.56-.9-.43-.17-.54-.44-.54-1.35 0-.2-.08-.3-.36-.43l-.36-.18.06.38c.1.72.18 2.63.11 2.63-.04 0-.67-.27-1.39-.59-.72-.33-1.47-.66-1.67-.74-.38-.15-.49-.48-.49-1.42 0-.28-.05-.34-.41-.48s-.4-.14-.35-.01c.03.09.06.73.06 1.43v1.27l1.38.57c2.53 1.05 7.47 3.05 7.49 3.03.01-.01-.05-.49-.12-1.06Zm-6.82-1.41c-.07-.06-3.04-1.3-5.17-2.15-.8-.32-.76-.34-.76.54v.78l2.98 1.11 2.97 1.11.03-.66c.02-.36-.01-.68-.05-.73Zm-18.23.58c.01-.12.14-1.55.29-3.17.16-1.62.27-2.96.26-2.98-.03-.03-.42.15-.53.23-.03.03-.62 5.9-.62 6.22 0 .34.6.04.6-.3Zm10.15-.7 1.9-.73.03-.77c.02-.42 0-.77-.03-.77-.07 0-2.61 1.03-3.9 1.58l-.9.38-.03.72-.03.72.53-.2c.29-.11 1.39-.53 2.43-.93Zm-9.13-.09c.12-1.25.39-5.8.35-5.85-.13-.12-.47.2-.52.5-.04.26-.55 5.95-.55 6.19 0 .05.15.02.33-.05.3-.13.32-.17.39-.79Zm26.43-1.74c-.24-1.51-.36-1.84-.65-1.84-.04 0 .01.62.11 1.38.28 2.07.28 2.08.52 2.19.31.14.31.08.02-1.73Zm-29.21 1.17c.03-.09.1-.81.16-1.61s.13-1.6.16-1.78c.06-.36-.01-.36-.5.01-.17.13-.54 2.56-.56 3.64 0 .27.66.03.74-.26Zm28.61-.03c-.02-.13-.14-.9-.25-1.72-.2-1.44-.31-1.74-.62-1.76-.1 0-.11-.08.12 1.7.11.85.2 1.6.2 1.66 0 .1.34.32.53.33.04.01.05-.09.02-.21Zm-18.61-1.32c.04-.56.07-2.62.09-4.58l.02-3.57-.4.22-.4.22-.02.7c-.05 1.47-.24 6.05-.3 7.22l-.06 1.23.51-.22.5-.21zm-9.3 1.19c.2-.08.36-.21.36-.28 0-.06.09-.95.2-1.97s.2-1.86.2-1.88c0-.01-.18.07-.39.18-.44.22-.42.14-.61 2.4-.06.69-.13 1.35-.16 1.48-.05.26-.06.26.4.07Zm25.02-.02c-.02-.1-.08-.58-.11-1.08-.08-1.14-.1-1.19-.41-1.34-.35-.16-.34-.22-.22 1.12.1 1.12.12 1.19.37 1.32.35.19.43.18.37-.02Zm-18.75-.46c.39-.18.58-.33.63-.49.06-.26.08-1.08.02-1.08-.02 0-.43.18-.9.4l-.86.39v.5c0 .27-.03.57-.06.66-.07.18-.09.19 1.17-.38Zm15.05-.44c-.13-1.78-.16-1.9-.42-2.02-.35-.16-.34-.17-.34.41 0 1.91.16 2.41.79 2.48.02 0 0-.39-.03-.87Zm5.55-.79c-.27-2.06-.24-1.95-.72-2.22-.55-.29-.53-.39-.3 1.59.21 1.85.21 1.83.78 2.09.49.22.47.35.24-1.46Zm-16.8 1.17.36-.14.06-2.55c.04-1.4.07-3.51.07-4.68v-2.12l-.4.21c-.22.12-.42.31-.45.42-.08.4-.16 9.07-.08 9.04.04-.02.24-.1.44-.18Zm6.99-1.21v-1.4l-.32-.2c-.57-.35-.58-.34-.58 1.24v1.43l.38.16c.2.08.4.15.45.16.04.01.07-.62.07-1.39Zm6.96.47c-.1-1.3-.13-1.4-.47-1.59l-.31-.18.07.68c.15 1.73.15 1.71.43 1.87.15.08.29.14.31.15.02 0 0-.42-.03-.93Zm-3.66.55c0-.44-.3-5.72-.36-6.29s-.09-.64-.4-.82l-.34-.2v.3c0 .27.18 3.37.36 6.05.05.87.07.91.32 1.01.39.16.42.15.42-.05Zm5.36-.29c-.03-.16-.12-.98-.21-1.83-.13-1.16-.21-1.58-.33-1.67-.27-.21-.34-.15-.28.24.03.21.1 1.01.17 1.78.1 1.22.14 1.42.33 1.57.3.25.38.22.32-.09Zm-14.42-.03.46-.21V16l-.5.25-.5.25V18c0 .83.02 1.5.04 1.5s.24-.09.5-.2Zm4.66-.32c0-.29-.03-.96-.06-1.49l-.07-.96-.44-.22c-.24-.11-.46-.21-.48-.21-.03 0-.05.69-.05 1.52v1.53l.38.17c.65.28.72.25.72-.34Zm7.15-.25c-.11-1.52-.14-1.63-.42-1.74-.35-.13-.35-.15-.27 1.1.07 1.07.08 1.13.33 1.26.41.22.42.2.36-.62Zm-3.8-.55c-.32-5.86-.34-6.07-.85-6.36l-.4-.22.05.87c.03.49.1 2.14.16 3.68s.13 2.82.16 2.85c.03.04.75.34.92.39.02.01 0-.54-.04-1.21Zm-14.49.68c.11-.1.28-2.56.18-2.56-.35 0-.62.33-.67.82-.21 1.67-.03 2.28.49 1.74Zm8.96-.12c.29.09.59.2.66.23.09.03.12-.14.12-.7v-.75l-.61-.22-.61-.23-.62.19-.61.2-.03.77-.03.76.6-.21c.59-.21.62-.21 1.13-.04Zm-8.18-.18.33-.14.06-1.28c.07-1.49.1-1.4-.37-1.18l-.36.18v.97c0 .53-.03 1.11-.06 1.28-.07.35-.06.36.4.17Zm-2.64-.27c.06-.1.1-.55.11-1.01 0-.46.04-1.22.07-1.7.07-.93.07-.95-.2-.75-.15.12-.38 2.2-.38 3.47 0 .33.23.32.4-.01Zm4.04-1.26c.04-.49.08-1.07.11-1.3.05-.47-.01-.51-.45-.28-.31.16-.34.3-.44 2.02l-.04.82.38-.19.38-.19zM37 16.55c-.05-.6-.11-1.09-.12-1.1-.02 0-.16-.09-.31-.19l-.29-.18.07.79c.11 1.39.14 1.52.43 1.67.35.19.34.24.22-.99Zm-6.63.43c-.04-.18-.09-1.32-.12-2.53-.08-2.94-.09-3.01-.47-3.21l-.31-.16.06 1.58c.04.88.07 2.2.07 2.95v1.35l.33.17c.46.22.5.21.44-.15Zm5.73-.69c-.05-.52-.1-1.04-.1-1.16 0-.15-.11-.28-.31-.39l-.31-.16.06.61c.03.34.09.88.12 1.21.05.52.1.62.33.74.34.18.33.23.21-.85Zm4.2.11c-.12-.08-.88-.57-1.68-1.08l-1.47-.92-.03.37c-.03.37.38.9.59.77.04-.02.09.01.11.07s.62.46 1.33.89l1.3.77.03-.36c.03-.28-.01-.39-.18-.51Zm-28.81.36c.42-.23.97-.55 1.22-.69.41-.23.81-1.17.51-1.17-.07 0-2.43 1.43-2.46 1.49-.09.14-.18.81-.1.81.04 0 .41-.2.83-.44Zm14.64.18c.29.1.58.2.65.23.09.03.12-.13.12-.64v-.69l-.55-.27c-.31-.15-.62-.27-.7-.27s-.39.12-.7.27l-.55.27v1.33l.61-.2c.58-.2.62-.2 1.12-.03Zm7.26-1.24c-.16-2.46-.16-2.43-.51-2.63l-.31-.18.06.63c.04.35.09 1.24.13 1.99l.07 1.37.31.15c.39.18.35.36.25-1.33Zm-17.21.9c.25-.16.32-.26.32-.52 0-.18.03-.71.07-1.17l.06-.83-.41.23c-.4.23-.42.26-.42.75 0 .28-.03.79-.06 1.13-.07.67-.04.7.44.41Zm19.02-1.01c-.1-.98-.15-1.17-.33-1.31-.36-.29-.39-.22-.33.7.1 1.37.14 1.5.44 1.66.36.19.34.25.22-1.05Zm-5.9-.86c0-3.63-.11-4.23-.74-4.23-.03 0-.06 1.33-.06 2.95v2.96l.33.14c.17.08.35.14.4.15.04 0 .07-.89.07-1.97Zm-11.89.06c.07-1.32.08-1.25-.24-1.04-.23.15-.26.24-.32 1.13-.03.53-.08 1.08-.11 1.21l-.05.23.33-.19.33-.19zm16.93 1.04c-.03-.27-.08-.82-.12-1.22-.07-.7-.09-.76-.39-.93l-.31-.19.04.83c.08 1.49.12 1.66.42 1.83.4.21.42.19.36-.32Zm-6.04-1.5c-.01-1.04-.04-2.39-.07-3l-.06-1.13-.49-.3c-.26-.16-.5-.3-.53-.3-.07 0-.06 3.14.02 4.74l.06 1.37.46.24c.25.13.49.24.54.25.04 0 .07-.84.07-1.87Zm-7.76.76c.03-.34.06-1.25.06-2.01v-1.4l-.32.21c-.37.23-.37.23-.52 2.94l-.08 1.28.4-.2c.38-.19.39-.22.46-.82Zm3.11.79.45-.22V9.58l-.37.23c-.21.12-.41.25-.44.28-.09.08-.23 6.01-.15 6.01.03 0 .26-.1.51-.22Zm-5.56-.32c.25-.14.29-.22.34-.83.09-.92.09-1.75 0-1.71-.74.36-.71.29-.75 1.71-.03 1.03-.02 1.05.41.83Zm-3.56-.61c.93-.55 1.21-.83 1.1-1.12-.03-.06 0-.2.05-.3.09-.15.11-.12.17.2.09.47-.21.59 2.5-1.03l2.35-1.41v-.98l-.72.43c-.4.24-1.52.92-2.48 1.51s-2.16 1.32-2.65 1.62c-1.24.75-1.32.81-1.39 1.31-.04.24-.03.42.01.39.05-.02.52-.3 1.06-.62Zm11.1.05c.1 0 .4.11.67.25s.52.25.55.25.05-.29.05-.65v-.65l-.62-.31-.62-.31-.63.31-.63.31v1.29l.53-.24c.28-.14.6-.25.7-.25Zm-6.1-.92c.04-.46.07-1.05.07-1.31v-.48l-.39.23-.38.22-.07.89c-.03.5-.06 1.07-.06 1.29v.38l.38-.19.39-.2zm17.28.18c-.09-.11-1.52-1.01-2.94-1.86l-.38-.22.03.47.03.48 1.65.98 1.65.99.03-.36c.02-.19-.01-.41-.07-.48Zm-10.56-.7c.68.36.62.55.56-2.01l-.06-2.2-.5-.32c-.61-.41-.58-.41-1.28.03l-.57.36v4.47l.65-.31.66-.3zm15.09-.24c.04-.35.14-.55.32-.71.21-.18.29-.76.11-.76-.01 0-.16-.13-.33-.28l-.31-.28-.13 1.16c-.11.99-.1 1.19.01 1.26.23.15.26.11.33-.39Zm-8.18-1.27c-.04-.12-2.57-1.75-2.71-1.75-.03 0-.05.2-.05.45 0 .5-.13.39 1.8 1.57l.95.58.03-.36c.02-.2.01-.42-.02-.49Zm-11.34-1.79c.04-.48.28-.62.28-.17 0 .4-.16.46 1.82-.73l1.73-1.05.3.18c.16.1 1.07.66 2 1.26.94.59 1.82 1.13 1.98 1.21l.27.15v-.99l-.92-.6c-1.23-.79-2.99-1.87-3.36-2.06-.3-.15-.32-.15-1.09.3-2.13 1.26-3.94 2.48-3.88 2.61.03.08.05.28.05.44v.3l.4-.23c.34-.2.39-.28.42-.62Zm-.84-.45.92-.53v-.49c0-.39-.05-.51-.25-.67-.14-.11-.25-.25-.25-.31s-.07-.11-.15-.11c-.12 0-.15.15-.17.68-.01.42-.03.53-.05.29-.03-.21-.13-.47-.24-.58-.1-.1-.19-.32-.19-.49s-.04-.3-.1-.3c-.05 0-.1.24-.1.54 0 .49-.02.55-.22.58-.22.03-.23.08-.26 1.01-.01.55.01.97.05.95.05-.01.5-.27 1.01-.57Zm3.43-2.13c.65-.39 1.16-.75 1.13-.8-.19-.31-2.34.31-2.34.68 0 .08-.06.17-.14.2s-.13.12-.1.2c.17.56.03.59 1.45-.28ZM18.92 5.3c-.53-.12-.49-.2.07-.13l.52.06-.11-.29c-.08-.21-.08-.34.01-.52.17-.3.03-.54-.39-.67-.34-.1-.36-.13-.32-.91.03-.73-.63-1.39-1.01-1.02-.34.32-.54.43-.31.16.2-.22.22-.29.12-.48-.14-.26-.05-.4.13-.18.06.08.31.2.54.27.54.15.73.49.73 1.31 0 .44.04.6.14.6.42 0 .61.36.61 1.14 0 .84.01.84-.73.66Z"/></svg>