<svg xmlns="http://www.w3.org/2000/svg" width="51" height="51" viewBox="0 0 51 51"><path fill="#fff" fill-rule="evenodd" stroke="#fff" stroke-width=".688" d="M24.2 44.89c-4.28-.32-8.45-2.06-11.24-4.69-5.81-5.47-7.94-12.7-5.87-20C9.04 13.31 14.84 8.05 22 6.67c2.5-.48 6.45-.31 8.87.39 5.26 1.5 9.65 5.15 12.03 9.99 1.48 3 1.95 5.05 1.95 8.5 0 7.73-4.11 14.26-11.05 17.59-2.34 1.12-6.12 1.96-8.29 1.85-.14-.01-.73-.05-1.31-.1Zm4.5-.44c10.67-1.78 17.74-12.08 15.59-22.7-.57-2.82-2.36-6.56-3.95-8.23l-.54-.57.16.4c.9 2.23-1.67 4.91-3.94 4.12l-.43-.15.15.21c3.15 4.43 3.63 9 1.45 13.66-3.34 7.14-12.66 9.54-19.08 4.91-.49-.36-.8-.53-.76-.43.65 1.59-.04 3.46-1.57 4.24-.51.26-1.78.38-2.3.21-1.1-.37 1.68 1.6 3.57 2.53 3.63 1.78 7.86 2.44 11.65 1.8Zm-13.03-4.81c1.67-.81 2.18-3 1.04-4.5-1.69-2.24-5.34-.96-5.34 1.86 0 2.2 2.3 3.62 4.3 2.64Zm-1.82-1.34c-.38-.15-.76-.66-.82-1.07-.2-1.52 1.97-2.16 2.59-.77.5 1.14-.63 2.32-1.77 1.84Zm14.84-.44c5.79-1.62 9.5-6.41 9.54-12.31.07-9.45-10.04-15.53-18.52-11.15-8.95 4.63-8.96 17.57-.01 22.39 2.5 1.34 6.36 1.8 8.99 1.07Zm-13.76.13c.37-.17.6-.64.54-1.11-.19-1.38-2.17-1.21-2.17.19 0 .82.82 1.29 1.63.92Zm-3.78-.97c0-2.21 2.03-3.75 4.22-3.19l.32.08-.65-.96c-1.64-2.45-2.29-4.57-2.29-7.45.01-10.38 11.41-16.3 20.23-10.51.88.58.92.6.85.33-.69-2.44 1.96-4.77 4.32-3.79.62.26-.62-.86-1.91-1.73-10.18-6.81-24.22-2.31-28.48 9.12-2.25 6.04-1.15 13.33 2.73 18.15.36.46.66.83.66.83zm1.61-4.04c-1.54-2.36-2.36-7.12-1.72-10.08.48-2.23 1.81-5.39 2.13-5.06.04.03-.14.45-.39.94-2.2 4.18-2.21 9.19-.03 13.52.19.38.35.74.35.8 0 .18-.19.11-.34-.12Zm11.49-1.04c-5.09-1.08-6.87-7.48-3.07-11.06 3.57-3.37 9.5-1.61 10.72 3.18 1.17 4.57-3 8.86-7.65 7.88Zm2.84-.29c4.45-1.05 6.24-6.52 3.29-10.03-3.7-4.4-10.98-1.82-10.98 3.89 0 4.11 3.71 7.07 7.69 6.14Zm10.84-14.51c1.85-.63 2.54-3.13 1.27-4.58-.84-.95-2.39-1.24-3.55-.67-3.3 1.63-1.21 6.44 2.28 5.25Zm-1.72-1.62c-1.22-.65-.76-2.52.61-2.52.9 0 1.38.46 1.38 1.3 0 1.05-1.08 1.71-1.99 1.22Zm1.39-.41c.55-.54.5-1.28-.09-1.68-.61-.41-1.35-.21-1.67.45-.5 1.06.93 2.06 1.76 1.23Z"/></svg>