<svg xmlns="http://www.w3.org/2000/svg" width="51" height="51" viewBox="0 0 51 51"><path fill="#fff" fill-rule="evenodd" stroke="#fff" stroke-width=".735" d="M13.7 40.59c-1.64-.32-2.86-1.7-3.1-3.5-.12-.95-.13-21.53-.01-22.69.24-2.24 1.46-3.52 3.61-3.79 1.15-.15 21.54-.15 22.7-.01 2.03.25 3.32 1.42 3.66 3.28.16.92.2 21.2.04 22.83-.22 2.28-1.35 3.54-3.5 3.9-.7.11-22.8.1-23.4-.02Zm23.85-.31c1.56-.47 2.42-1.37 2.75-2.89.17-.73.26-20.99.11-22.63-.2-2.24-1.08-3.39-2.9-3.8-.88-.2-22.8-.24-23.73-.05-.65.14-1.49.52-1.73.79-.17.19.01.39 9.69 10.02 8.67 8.64 10.37 10.41 9.78 10.16-.05-.02-1.08-1.07-2.29-2.33s-3.6-3.67-5.29-5.35c-1.7-1.68-5.15-5.08-7.66-7.57l-4.57-4.52-.25.29c-.64.77-.61.11-.61 13.3v11.95l.32.66c.61 1.24 1.7 1.96 3.17 2.09 1.7.16 22.66.05 23.21-.12Z"/></svg>