<svg xmlns="http://www.w3.org/2000/svg" width="51" height="51" viewBox="0 0 51 51"><path fill="#fff" fill-rule="evenodd" stroke="#fff" stroke-width=".379" d="M28.6 47.42c0-3.98-.03-4.3-.56-5.34-.37-.73-1.35-1.68-2.14-2.06-1.29-.64-.86-.62-13.98-.62-7.93 0-11.91-.03-11.87-.1.14-.22 23.91-.13 24.79.1 1.88.48 3.35 1.89 3.81 3.65.18.71.23 8.05.05 8.05-.06 0-.1-1.29-.1-3.68ZM10.45 48.7c-2.31-.72-2.46-5.9-.2-6.96 1.91-.9 3.45.59 3.45 3.36 0 2.65-1.38 4.18-3.25 3.6Zm11.45-.02c-1.92-.35-2.81-3.88-1.54-6.06.94-1.61 3.36-1.52 4 .14.2.52.18.54-.38.65-.71.14-.82.11-.96-.2-.4-.9-1.45-.39-1.68.82l-.07.39.41-.21c1.37-.7 2.84.23 2.99 1.9.16 1.68-1.13 2.88-2.77 2.57Zm-18.47-.14c-.31-.82.58-2.23 2.2-3.46.53-.4.84-.72.94-.96.53-1.27-1.23-1.92-1.79-.66l-.19.45-.57-.03-.57-.03.02-.37c.13-2.21 3.61-2.72 4.48-.66.49 1.19.11 1.94-1.75 3.47-.41.34-.83.73-.93.87l-.19.24h1.55c1.73 0 1.7-.01 1.56.71-.04.24-.08.47-.09.51-.01.17-4.6.09-4.67-.08Zm10.82-.04c-.26-.81.47-1.95 2.11-3.32.98-.82 1.14-1.05 1.14-1.62 0-1.01-1.63-1.06-1.9-.06l-.11.4h-.64c-.77 0-.83-.16-.41-1.06 1.01-2.17 4.46-1.61 4.46.72 0 1-.19 1.29-1.87 2.76-.57.49-1.03.94-1.03.99s.67.09 1.56.09h1.57l-.07.56c-.04.31-.09.61-.12.65-.13.21-4.62.1-4.69-.11Zm-2.03-.23c1.54-.85 1.72-4.89.28-6.1-1.25-1.06-2.96-.27-3.44 1.58-.8 3.07 1.04 5.7 3.16 4.52Zm-4.32-.03c.25-.64.26-.64-1.44-.64-.97 0-1.57-.04-1.61-.1-.11-.18.42-.76 1.46-1.61 1.56-1.26 1.94-2.19 1.31-3.21-.95-1.54-3.92-.98-3.92.74 0 .38.77.34.85-.04.21-.93 1.76-1.13 2.19-.29.38.72.12 1.34-.86 2.08-1.34 1.01-2.04 1.89-2.17 2.71-.1.67-.27.62 2.06.62H7.8zm10.83.16c.02-.03.07-.22.1-.42l.06-.38h-1.6c-1.97 0-1.99-.03-.72-1.17 1.97-1.75 2.22-2.14 2.1-3.19-.18-1.67-3.02-2.04-3.91-.51-.47.8-.46.97.08.97.39 0 .46-.03.46-.19 0-.86 1.75-1.32 2.22-.58.46.7.29 1.28-.6 2.04-1.81 1.56-2.41 2.35-2.42 3.16v.38l2.09-.03c1.15-.02 2.11-.05 2.14-.08Zm4.45-.05c.95-.4 1.45-1.45 1.22-2.52-.31-1.37-1.49-1.99-2.64-1.38-.62.33-.66.32-.66-.13 0-1.37 1.13-2.31 1.88-1.56.16.16.31.35.33.41.04.12.72.03.86-.11.2-.19-.5-1.06-1-1.25-1.44-.55-2.79.53-3.09 2.45-.43 2.73 1.2 4.88 3.1 4.09Zm-12.34-.69c-1.19-.51-1.44-3.78-.37-4.77.6-.56 1.35-.42 1.75.33.32.6.35 3.08.04 3.76-.29.65-.86.92-1.42.68Zm11.17-.09c-.87-.44-.97-2.18-.15-2.56.81-.36 1.55.26 1.56 1.3 0 1.07-.65 1.66-1.41 1.26Zm-10.32-.23c.74-.53.84-3.41.14-4.25-.8-.95-1.78.14-1.77 1.96.02 1.91.73 2.92 1.63 2.29Zm11.26-.14c.44-.48.24-1.74-.32-1.99-.68-.31-1.26.4-1.09 1.33.14.75.98 1.14 1.41.66Zm10.3-9.04c-10.7-1.96-10.26-1.85-10.9-2.73-.16-.23-.35-.42-.42-.42-.16-.01-3.48.98-7.13 2.14-5.38 1.7-5.53 1.64-6.98-3.1C6.12 28.5 3.29 19.38 2.84 18c-.64-2-.63-2.18.17-3.79.88-1.77 1.28-2.15 2.69-2.59C18.17 7.7 20.34 7.07 21.11 7.13c1.56.13 2 .77 2.99 4.43.48 1.76.69 2.38.7 2.05.01-.51.73-4.96.86-5.35.26-.75 1.83-2.15 3.18-2.83.65-.33 1.77-.28 4.06.16.85.16 3.66.7 6.25 1.2 6.01 1.15 7.1 1.38 7.65 1.62.91.4 1.62 1.38 1.76 2.41.06.47.06.52-.91 7.08-.36 2.45-1.02 6.93-1.45 9.95-1.06 7.33-1.06 7.3-1.4 8-.75 1.53-1.97 3.23-2.51 3.51-.64.33-1 .28-9.04-1.2Zm8.93.94c.41-.25.4-.29-.06-.23-.23.03-1.15-.09-2.28-.3-1.04-.2-4.27-.79-7.17-1.32-9.15-1.66-9.12-1.65-9.66-2.85-.28-.62-.27-1.36.09-3.78.16-1.11.32-2.12.35-2.25.03-.12.23-1.41.45-2.87 1.36-9 1.75-11.63 2.06-13.95.37-2.84.5-3.63.65-4.03l.1-.27-.25.24c-.5.47-.66 1.04-1.02 3.5-.49 3.43-1.37 9.45-1.84 12.56-1.78 11.76-1.72 10.97-.97 11.82.62.7.24.62 10.52 2.49 4.07.74 7.44 1.36 7.5 1.38.31.13 1.22.04 1.53-.14Zm.51-.66c.23-.13 1.01-1.12 1.01-1.28 0-.03-.16.02-.35.1-.58.24-1.02.18-7.85-1.06-10.04-1.83-9.9-1.8-10.71-2.6-.95-.94-1.07-1.79-.64-4.54.13-.89.47-3.12.75-4.96s.63-4.23.8-5.3c.16-1.07.5-3.43.75-5.25.67-4.88.83-5.81 1.09-6.46s.22-.73-.16-.31c-.56.59-.69 1.12-1.13 4.57-.3 2.26-1.22 8.52-1.96 13.3-1.51 9.74-1.49 9.44-.62 10.27.57.54.9.62 8.73 2.03 2.94.53 6.09 1.11 7 1.3 1.86.37 2.88.43 3.29.19Zm-30.79-.68c.47-.13 1.77-.53 2.9-.89 1.9-.6 4.1-1.28 6.23-1.91.71-.22.87-.3.87-.46 0-.11-.05-.2-.11-.2-.12 0-4.02 1.17-7.67 2.31-3.05.94-3.38.97-4.17.28-.63-.56-.81-1.04-3.1-8.64-.68-2.25-1.7-5.61-2.28-7.45s-1.17-3.78-1.32-4.3c-.41-1.44-.4-1.42-.54-.85-.14.59-.38-.29 2.28 8.3 1.06 3.41 2.31 7.46 2.77 9 1.32 4.34 1.43 4.56 2.51 4.89.64.2.66.2 1.63-.08Zm-.04-.74c.14-.1.38-.98.29-1.11-.03-.06-.23-.11-.43-.11-.76-.01-1.73-.65-2.13-1.42-.18-.35-.64-1.81-2.84-9.03l-1.6-5.2c-1.25-3.97-1.56-5.07-1.63-5.67l-.08-.63-.17.5c-.22.67-.18.88 1.33 5.7.67 2.15 1.63 5.25 2.12 6.9 2.56 8.58 2.88 9.46 3.62 9.9.41.25 1.27.34 1.52.17Zm3.08-.93c1.44-.44 2.86-.88 3.16-.98l.55-.18-.02-.43c-.01-.23-.04-.45-.07-.47-.04-.05-1.13.27-5.07 1.48l-.96.3-.15.54c-.08.3-.13.55-.1.55s1.23-.36 2.66-.81Zm28.62.6c1.08-.52 1.18-.83 1.85-5.44.27-1.92.81-5.64 1.2-8.25.38-2.61.92-6.27 1.19-8.13.65-4.43.64-4.62-.29-5.57-.75-.77-.48-.7-10.36-2.59-2.59-.49-5.1-.97-5.6-1.06-3.03-.56-3.55.03-4.21 4.7-.64 4.56-1.04 7.34-2 13.7-1.19 7.83-1.2 8.2-.32 9.02.75.7 3.05 1.25 12.58 3.02 4.61.86 5.29.93 5.96.6Zm-30.3-3.92.9-2.52-.28-.1c-.73-.26-1.48-1.29-1.48-2.02 0-.38.23-.45.4-.13.49.92 1.2.33 1.2-1.01 0-.87-.07-.87-.9-.04-.71.71-.99.81-1.25.41-.33-.49-.3-.87.1-1.46.74-1.1.85-1.48.28-1.01-.88.73-1.32-.23-.58-1.25.39-.55.85-1.38.85-1.54 0-.07-.16-.1-.42-.08l-.41.03-.42 1.3c-.64 2.01-1.06 2.61-2.08 3-.82.31-1 0-.46-.81.44-.65.85-1.65 1.19-2.94l.28-1.1-.41-.25c-.23-.13-.66-.34-.94-.46-1.16-.48-.38-1.12 1.17-.97.58.06.6.03.6-.88 0-.6-.02-.64-.22-.64-.27-.01-.5-.14-1.06-.59-.51-.42-.56-.71-.12-.71.43 0 .7-.21 1.24-.94.26-.36.54-.67.62-.7.7-.27 1.84.36 1.84 1.02 0 .5.82-.23 1.27-1.13.32-.64.34-.87.13-1.23-.51-.83-.06-1.07 1.17-.61.77.3 1.06.56.99.9-.06.32-.84 1.55-1.16 1.84-.3.27-.25.35.24.35.63 0 1.39-.89 1.6-1.87.13-.57.45-.52 1.22.19.68.63.63.92-.27 1.64-.39.31-.67.6-.62.64.43.38 3 .99 4.33 1.03l.73.02.43-1.7c.51-2.02.49-1.78.22-1.9-.32-.15-.56-.69-.79-1.81-.77-3.69-.55-3.57-4.42-2.47-1.14.32-1.67.38-1.27.13.21-.13 2.95-.88 3.73-1.01 1.3-.24 1.59.12 2.05 2.52q.705 3.615 1.17 1.92c.09-.32.18-.63.2-.69s-.04-.24-.12-.4-.37-.86-.64-1.56c-1.31-3.44-1.33-3.44-10.84-.58-8.69 2.61-8.42 2.49-8.33 3.69.08.95.68 2.81.68 2.08 0-.39.75-1.64 1.33-2.21 1.02-1 3.15-1.86 4.58-1.86.75 0 .58.16-.3.29-2.97.44-4.51 1.55-5.35 3.87l-.24.66.39 1.26c.22.7 1.37 4.42 2.56 8.27C8.75 30.5 9.8 33.81 9.9 34c.4.77 1.21 1.28 2.05 1.29l.4.01zm.79 2.13c.77-.22 1.5-.4 1.63-.4.23 0 2.58-.74 2.78-.88.06-.04.45-1.49.87-3.22.43-1.73.8-3.25.83-3.37.05-.18.01-.25-.19-.32-.63-.24-.73-.2-1.19.49-.93 1.4-2.45 1.92-3.03 1.04-.25-.39-.13-.54.43-.54.53 0 .85-.25 1.31-1.03.38-.63-.13-.92-1.18-.67-.77.18-.91.41-1.01 1.57-.11 1.15-.3 1.85-.66 2.38-.19.28-2.04 5.1-2.04 5.32 0 .05-.05.06 1.45-.37Zm6.4-.49 1.3-.39.08-.47c.11-.64.17-.63-1.5-.12l-1.48.45.01.31c.04.72-.05.71 1.59.22Zm-1.08-1.06c.27-.07.24.03 1.02-3.54.62-2.82.63-2.9.21-2.91-.12 0-.34.73-.94 3.18-.44 1.74-.81 3.23-.84 3.31-.04.09.01.12.14.08.1-.03.29-.08.41-.12Zm2.54-.83c.04-.04.22-1.06.39-2.27s.33-2.31.36-2.45c.04-.24 0-.27-.66-.49-.4-.12-.73-.21-.74-.19-.02.01-.31 1.29-.65 2.83s-.65 2.9-.68 3.02c-.05.21-.04.21.93-.08.54-.16 1.02-.33 1.05-.37Zm11.83.37c-.37-.61.1-6.81.7-9.21l.22-.88h-.92c-1.06 0-1.36-.09-1.81-.52-.24-.23-.34-.27-.37-.17-.02.08-.09.34-.16.59-.25.92-.52.93-1.35.07-1.08-1.13-1.53-2.4-1.4-3.97.08-.89.08-1.2.02-2.79-.04-1.23.79-.8 1.65.85l.33.63.5-.5c.69-.69 1.83-1.23 3.47-1.63 1.55-.39 1.46-.28 1.88-2.13.26-1.12.34-1.75.15-1.11-.59 1.95-1.11 2.36-.85.68.58-3.76 1.34-4.18 3.38-1.87.52.59.53.76.08 2.1-.18.56-.36 1.16-.39 1.34l-.06.31 1.12.07c.7.04 1.44.02 1.96-.05 1.23-.17 1.2-.19 3.63 2.11.44.42.5.81.17 1.23-.4.5-3.03 2.15-4.56 2.85l-.72.33.27.49c.32.58.19 1.06-.29 1.02l-1.47-.11c-.68-.05-1.32-.08-1.42-.05-.21.06-.61 1.4-1.06 3.52-.77 3.69-2.28 7.48-2.7 6.8Zm1.51-3.44c.25-.77.67-2.37.94-3.55.71-3.12.86-3.57 1.2-3.65.23-.05 1.58.03 2.96.18.3.03.3-.3.01-.72-.42-.6-.34-.69 1.29-1.56 2.12-1.14 3.95-2.39 3.95-2.7 0-.13-2.25-2.31-2.56-2.48-.08-.05-.63-.04-1.22.03-.67.07-1.48.08-2.17.03l-1.1-.08.03-.4c.01-.22.18-.9.37-1.52.48-1.53.49-1.45-.49-2.41-1.24-1.22-1.66-1.11-2.05.55-.27 1.17-.26 1.32.04.59.32-.75.43-.9.61-.75.33.27-.61 4.07-1.06 4.3-.08.04-.67.19-1.3.34-1.62.36-2.78.94-3.54 1.76-.6.65-.65.65-.86.09-.18-.46-.54-1.04-.98-1.59-.46-.57-.58-.35-.35.65.13.55.13.8.04 1.35-.23 1.42-.08 2.62.47 3.62.29.55 1.21 1.57 1.39 1.57.13 0 .43-.88.43-1.24.01-.52.18-.53.64-.04.56.61.76.68 1.96.68.54 0 1.01.04 1.04.08.03.05-.08.62-.24 1.26-.5 2.02-.88 6.22-.72 8.01l.05.6.38-.8c.21-.44.59-1.43.84-2.2Zm-20.69.13c.27-.51.43-1.25.51-2.22.09-1.3.48-1.66 1.79-1.66 1.2 0 1.37.31.73 1.32-.43.66-.83.98-1.25.98-.38 0-.44.14-.15.3.73.39 1.95-.37 2.61-1.62.31-.6-.19-.66 3.58.44.41.12.38.15.47-.5.06-.43.04-.52-.08-.52-.08 0-.92-.19-1.87-.41l-1.72-.41.06-.27c.33-1.39.17-2.12-.46-2.13-.88 0-.88-.16.02-1.12.77-.84.77-.82.54-1.15-.14-.2-.22-.22-.63-.17-.25.03-.57.07-.71.09l-.24.02.01-1c.01-1.24-.03-1.23 1.44-.34 1.79 1.08 2.26 1.14 3.97.53 1.01-.37 1.22-1.06.32-1.12-2.97-.18-6.4-1.02-6.4-1.57 0-.08.21-.31.47-.52 1-.81 1.06-.89.89-1.22-.25-.48-1.06-.9-1.06-.55 0 .7-1.17 2.04-1.78 2.04-.97 0-1.03-.21-.32-1.09.98-1.23 1.06-1.57.43-1.9-.97-.49-1.62-.48-1.22.03.51.64-.1 2.04-1.24 2.87-.46.33-.57.3-.57-.15 0-.38-.27-.67-.83-.91-.5-.21-.71-.13-1.06.38-.38.55-1.16 1.27-1.38 1.27-.3.01.46.59.97.74l.45.13-.03.99c-.03 1.15-.05 1.19-.6 1-.88-.31-2.12.06-1.27.38.68.26 1.36.66 1.43.84.16.42-.78 3.29-1.4 4.24-.35.56-.32.66.14.47.9-.37 1.33-1.04 1.97-3.07l.42-1.33.56.03c.76.04.83.18.5.91-.14.31-.42.77-.61 1.03-.27.35-.36.57-.36.85 0 .48.12.49.61.04.97-.87.99.05.04 1.35-.36.49-.43.86-.25 1.21.17.31.35.23 1.03-.46 1-1.01 1.34-.85 1.24.58-.08 1.17-.62 1.67-1.37 1.27-.25-.13-.25-.09-.01.39.49.94 1.35 1.3 1.67.69Zm.4-3.87c-.19-.35-.33-.41-1.02-.41-.67 0-.68-.07-.09-.94.72-1.08.71-1.29-.07-1.42-.48-.08-.48-.16.08-1.19.5-.92.52-1.13.14-1.33-.44-.23-1.05-.09-1.6.37-.93.78-.99.54-.41-1.52.5-1.81.57-1.86 2.27-1.87 1.19 0 1.34.27.47.81-.53.33-.33.32.48-.02 1.01-.42 1.14-.44 1.6-.24.48.22.48.43 0 .59-.23.07-.5.31-.81.71s-.57.63-.79.69c-.24.07-.3.13-.25.25.04.09.1.76.13 1.49.06 1.32.06 1.34.35 1.59.44.38.5.17.43-1.59-.07-1.64-.02-1.79.58-1.94.34-.08.34-.08.41.67.08.8.16.96.54 1.04.39.09.39.33-.02.93-.57.85-1.1 1.42-1.54 1.68-.49.29-.53.38-.23.54.34.19.76.01 1.44-.61.96-.87 1.17-.81 1.13.32l-.03.74-.91.06c-.96.07-1.34.21-1.73.63-.31.33-.37.33-.55-.03Zm8.47-2.91c.24-1.62.43-2.96.42-2.97-.08-.12-.96.33-1 .5-.03.12-.28 1.28-.55 2.57-.28 1.29-.53 2.43-.56 2.52-.04.13.02.19.23.24.15.03.42.09.58.14.43.1.39.23.88-3Zm-7.4 2.17c.14-.03.09-.05-.13-.06-.75-.03-1.06-.57-.5-.89.36-.21.37-.26.05-.4-.45-.21-.65-.83-.65-2.01 0-.57-.05-1.21-.12-1.43-.13-.45-.04-.58.36-.51.18.04.3-.04.52-.32.6-.79.86-1.04 1.07-1.08.2-.03.19-.04-.07-.12a.9.9 0 0 0-.6.05c-1.5.61-1.86.68-1.86.35 0-.14.15-.3.65-.7.21-.17-1.56-.17-1.96-.01-.13.06-.89 2.53-.89 2.9 0 .04.18-.07.4-.24.72-.57 1.61-.6 2.1-.08.25.27.2.5-.31 1.45-.21.4-.35.74-.31.76s.19.07.34.11c.68.16.65.88-.07 1.82-.32.42-.31.44.07.44.36 0 .89.24 1 .45.06.1.15.06.38-.15.17-.16.41-.31.53-.33Zm5.5.31c.2-.77 1.08-5.01 1.05-5.03-.02-.01-.13.01-.24.05-.28.11-1.52 4.98-1.31 5.12.23.14.45.08.5-.14Zm-.29-2.3c.32-1.28.6-2.39.63-2.45.03-.1-.1-.13-.49-.13-.6 0-1.08-.2-2.38-.99-.47-.28-.87-.51-.9-.51s-.06.32-.07.71c-.03.64-.01.7.15.64.59-.23 1.22-.11 1.42.26.22.4.11.68-.56 1.39l-.66.7h.36c.89 0 1.17.78.8 2.24-.06.24.3.4.97.45.13.01.28-.47.73-2.31Zm-3.26 1.27c.04-.65-.09-.71-.54-.24-.16.17-.46.44-.66.59l-.37.27.77-.03.77-.03zm-.88-1.94c.36-.54.37-.57.04-.65-.32-.08-.54-.58-.54-1.21 0-.49-.1-.55-.4-.25-.15.15-.18.27-.12.52.04.18.07.88.07 1.56v1.23l.33-.38c.18-.21.46-.58.62-.82Zm14.24-1.66c-.12-.31.06-1.3.36-1.92.45-.92.81-1.19 1.71-1.27.41-.04 1.08-.14 1.49-.22 1.3-.24 1.21-.43.76 1.65-.3 1.41-.16 1.29-2.02 1.57-.86.13-1.71.26-1.9.3-.26.05-.35.02-.4-.11Zm2.21-.45c.83-.12 1.52-.24 1.55-.27.07-.06.59-2.37.55-2.41-.02-.02-.35.03-.73.12s-1.01.19-1.41.22c-.67.07-.73.09-1.07.47-.69.75-1.13 2.26-.63 2.14.13-.03.92-.15 1.74-.27Zm4.19-.43c-.05-.14.49-3.34.58-3.43.18-.17 3.32-.63 3.57-.51.83.39-.65 2.1-3.09 3.57-.9.54-.98.57-1.06.37Zm1.43-1.03c1.52-1.12 2.94-2.46 2.74-2.58-.05-.03-.6.03-1.22.14-1.76.3-2.09.37-2.16.43-.05.05-.53 2.48-.53 2.7 0 .12.37-.1 1.17-.69Zm-14.88-1.86c.37-2.44.37-2.55.08-3.23l-.25-.6-.12.45c-.06.25-.17.65-.25.9-.2.64-.95 3.62-.95 3.77 0 .11.28.17 1.01.21l.26.02zM8.1 13.41c0-.06.03-.11.08-.11.41 0 2.19-.38 3.52-.75 4.48-1.25 9.3-2.16 9.3-1.77 0 .14-.22.19-1.15.27-1.8.17-3.31.5-9.09 2.01-1.43.38-2.66.54-2.66.35Zm2.65-2.63c11.2-3.4 11.18-3.4 12.55.22.82 2.18.93 2.05.26-.31-.66-2.29-.9-2.74-1.71-3.1-.9-.41-1.49-.26-12.7 3.23-1.6.49-3.12.97-3.4 1.05-.66.2-1.15.46-1.42.75-.21.22-.17.22.95-.15.64-.21 3.1-.97 5.47-1.69Z"/></svg>