<svg xmlns="http://www.w3.org/2000/svg" width="51" height="51" viewBox="0 0 51 51"><path fill="#fff" fill-rule="evenodd" stroke="#fff" stroke-width=".758" d="M27.92 51.15c.03-.03.63-.15 1.34-.26 11.63-1.78 20.47-10.97 21.73-22.58.13-1.17.26-1.35.17-.23-.92 11.48-10.13 21.21-21.71 22.93-1.38.2-1.62.22-1.53.14Zm-7.42-.34C9.9 48.62 1.93 40.37.2 29.79c-.11-.68-.19-1.42-.19-1.64.01-.28.06-.12.16.5.95 6.1 3.03 10.52 6.79 14.43 4.07 4.25 8.5 6.62 14.49 7.76.9.17 1.16.24.85.25-.25 0-1.06-.13-1.8-.28Zm3.32-13.46c-.82-.36-1.62-1.43-1.62-2.17v-.28h2.55c2.91 0 2.72-.07 2.35.92-.49 1.32-2.07 2.06-3.28 1.53Zm1.59-.17c.77-.22 1.58-1.18 1.59-1.85v-.23h-2.3c-2.57 0-2.44-.05-2.06.76.51 1.11 1.67 1.66 2.77 1.32Zm7.93-2.19-1.02-1.02-7.29.02c-4.02.01-7.91-.01-8.65-.05l-1.36-.07-.06-.59c-.09-.74-.07-.78 1.36-2.24l1.08-1.1.02-4.74.03-4.74.25-.06c.14-.03.31-.18.39-.32.16-.27-.51-.99-2.83-3.09-.29-.27-.37-.39-.3-.51.18-.33 1.65-1.78 1.8-1.78.16 0 19.44 19.24 19.44 19.4 0 .11-1.69 1.9-1.79 1.9-.03 0-.52-.46-1.07-1.01Zm1.85-.04c.39-.41.71-.79.71-.84 0-.06-4.3-4.41-9.56-9.67l-9.55-9.57-.82.82-.82.83 1.67 1.61c.93.9 1.68 1.66 1.68 1.71 0 .16-.51.76-.64.76-.18 0-.26 1.71-.26 5.93v3.49l-1.2 1.25-1.2 1.25v1.15l5.4.07c2.97.04 6.83.04 8.57 0l3.18-.06 1 1.01c.55.56 1.03 1.01 1.06 1.01.04 0 .39-.34.78-.75Zm-14.76-3.53-.63-.03v-3.67c.01-4.2.16-5.92.53-5.92.16 0 9.37 9.22 9.37 9.38 0 .07-.06.14-.12.17-.16.05-8.28.11-9.15.07Zm8.81-.31c.06-.09-8.8-9.09-8.87-9-.17.19-.27 1.81-.33 5.17l-.07 3.92h4.61c2.62 0 4.63-.04 4.66-.09Zm1.38-5.73c-1.1-1.1-1.22-1.25-1.22-1.57-.03-2.84-1.82-4.9-4.34-4.99l-1.01-.04-.97-.96c-1.1-1.09-1.16-1.23-.57-1.41.37-.11.41-.15.36-.39-.15-.79.3-1.85.92-2.17 1.4-.72 2.9.25 2.91 1.87 0 .55.01.57.33.63 2.05.45 4 2.51 4.71 4.98.42 1.46.57 5.12.21 5.24-.06.01-.65-.52-1.33-1.19Zm1.25-1.18c-.06-1.96-.22-2.77-.8-4.02-.81-1.75-2.31-3.1-3.91-3.53l-.63-.17-.05-.67c-.1-1.3-.65-1.91-1.74-1.91-1.11 0-1.64.6-1.64 1.87v.72l-.41.11-.41.11.88.9.88.89h.66c2.74 0 4.89 2.24 4.9 5.1 0 .44.03.48 1.13 1.58.84.84 1.13 1.08 1.16.95.02-.1.01-.97-.02-1.93ZM.01 23c-.01-.63.32-2.51.73-4.11C3.32 8.81 12.4 1.04 22.75.05c1.06-.1.73.02-.51.2-7.85 1.09-14.47 5.4-18.51 12.03C1.79 15.47.87 18.13.16 22.6c-.11.7-.14.77-.15.4Zm50.8-1.36c-.79-5.29-3.08-9.94-6.76-13.73C39.65 3.37 34.39.83 27.8.07c-.19-.03.06-.03.55-.01 2.01.09 4.78.77 7.23 1.8 8.6 3.6 14.61 11.67 15.55 20.87.11 1.07-.1.36-.32-1.09Z"/></svg>