<svg xmlns="http://www.w3.org/2000/svg" width="51" height="51" viewBox="0 0 51 51"><path fill="#fff" fill-rule="evenodd" stroke="#fff" stroke-width=".675" d="M23.4 50.9C8.83 49.51-1.43 36.7.45 22.24 2.25 8.41 14.76-1.2 28.82.45c15.94 1.86 26.09 18.34 20.73 33.64-3.81 10.89-14.71 17.9-26.15 16.81Zm5.08-.31C42.2 49.1 52.08 36.7 50.6 22.82 49.45 12.1 41.29 3.11 30.79 1 26.28.1 21.06.48 16.93 2.01-1.26 8.74-5.32 32.52 9.58 45c5.1 4.28 12.07 6.34 18.9 5.59Zm-5.43-1.26C7.6 47.42-1.86 32.49 3.04 17.75 6.84 6.32 19.21-.45 31.15 2.37c9.43 2.22 16.6 10.05 18 19.64 1.92 13.18-7.01 25.27-20.1 27.2-1.21.18-4.94.25-6 .12Zm6.15-.38C41.76 47 50.34 35.71 49.01 22.88 47.34 6.78 29.78-2.8 15.15 4.4-.58 12.14-2.64 33.88 11.36 44.45c3.54 2.68 7.3 4.12 12.24 4.69.81.09 4.6-.03 5.6-.19Zm-13.07-5.86c-.7-.26-.65-.44 1.48-5.56 3.63-8.69 4.36-10.48 4.32-10.53-.03-.03-1.37-.07-2.98-.1-3.23-.06-3.35-.08-3.35-.7 0-.26 8.1-16.53 8.72-17.52.16-.25.37-.49.46-.53.24-.1 8.22-.19 9.15-.11 1.74.17 1.77.09-3.28 7.96-1.96 3.05-2.25 3.52-2.25 3.64 0 .03 1.51.06 3.35.06h3.36l.24.25c.31.3.31.53.01.98-.23.33-4.86 5.9-6.81 8.18-.49.58-1.33 1.57-1.86 2.2s-2.22 2.63-3.75 4.44c-1.54 1.81-3.33 3.93-3.98 4.7-2.4 2.84-2.37 2.81-2.83 2.64Zm.53-.37c.21-.16 11.38-13.36 16.27-19.21 2.1-2.52 2.38-2.88 2.35-3.15l-.03-.31-2.8-.06c-1.54-.04-3.13-.07-3.52-.08-1.16-.02-1.41.51 2.99-6.36 1.74-2.72 2.65-4.24 2.79-4.64.22-.63.39-.61-4.97-.61h-4.83l-.21.22c-.21.23-8.69 17.02-8.82 17.47-.17.58-.06.61 2.1.62 3.02.02 4.16.1 4.2.31.03.17-.91 2.5-4.22 10.42-2.17 5.19-2.12 5.06-1.96 5.35.13.25.38.27.66.03Z"/></svg>