<svg xmlns="http://www.w3.org/2000/svg" width="51" height="51" viewBox="0 0 51 51"><path fill="#fff" fill-rule="evenodd" stroke="#fff" stroke-width=".444" d="M22.85 45.51c-.65-.27-.6.55-.6-10.55 0-11.06-.04-10.42.61-10.66.47-.18 8.67-.15 9.69.04 4.15.76 5.91 2.71 5.89 6.51-.02 4.41-2.31 6.35-7.91 6.67l-2.02.12-.03 3.73c-.04 4.71.34 4.17-2.96 4.2-1.36.01-2.56-.02-2.67-.06Zm15.96-.12c-1.69-.33-2.87-1.48-2.85-2.79.01-1.98 1.94-3.05 4.16-2.31 3.87 1.29 2.69 5.89-1.31 5.1Zm-10.77-.25c.14-.13.16-.51.17-2.52.02-3.43.07-5.03.19-5.17.07-.08.66-.14 1.82-.18 5.57-.2 7.98-2.15 7.98-6.46-.01-3.54-1.66-5.41-5.45-6.18-.92-.18-9.1-.26-9.79-.09-.46.11-.46.09-.46 10.47 0 9.76 0 9.89.2 10.09.27.27 5.07.31 5.34.04Zm13.12-.3c1.54-.95 1.33-3.12-.39-4-2.31-1.19-4.57-.27-4.57 1.85 0 1.82 3.24 3.22 4.96 2.15ZM11.2 42.5c-3.51-.44-6-2.43-6.79-5.45-.48-1.83-.6-11.91-.15-12.52l.21-.28 2.62-.03 2.62-.02.24.24c.23.23.25.32.26 1.33.06 7.27.15 9.37.38 9.86.89 1.81 3.68 1.72 4.52-.15l.24-.53V21.28l.28-.24.28-.24h2.58c2.88 0 2.93.01 3.06.72.03.18.05 3.5.03 7.38-.04 7.97-.02 7.71-.88 9.46-1.45 2.95-5.35 4.65-9.5 4.14Zm4.11-.49c3.29-.75 5.32-2.83 5.9-6.01.2-1.06.19-14.51-.01-14.75-.22-.26-5.35-.22-5.5.04-.06.13-.1 2.45-.1 6.84 0 5.59-.02 6.71-.15 7.14-.66 2.23-3.89 2.65-4.98.64-.41-.74-.46-1.5-.47-6.47 0-4.3-.01-4.53-.19-4.75l-.19-.24H4.68l-.19.24c-.22.27-.29 9.23-.08 10.91.46 3.77 2.66 5.99 6.55 6.6.94.14 3.36.04 4.35-.19Zm24.4-2.54c-2.17-.55-2.1-.47-1.81-2.23.21-1.32.7-4.09 1.4-7.94.22-1.18.62-3.5.9-5.15.78-4.62.43-4.3 3.8-3.54 3.31.75 3.57.88 3.46 1.66-.03.24-.42 1.66-.86 3.16-.43 1.5-1.53 5.25-2.43 8.34s-1.71 5.73-1.81 5.87c-.23.37-.67.34-2.65-.17Zm2.43.01c.19-.29.71-2.05 3.06-10.18.49-1.68 1.14-3.9 1.44-4.94.65-2.2.68-2.49.28-2.7-.63-.32-5.25-1.35-5.56-1.23-.26.1-.35.45-.87 3.52-.26 1.6-.6 3.53-.74 4.3-1.86 10.37-1.86 10.38-1.57 10.53.13.07 2.1.57 3.37.85.38.09.45.07.59-.15Zm-15.11-6.44c-.07-.18.05-.42 1.57-3.29 1.11-2.09 1.3-2.36 1.58-2.19.35.22 2.99 5.22 2.89 5.48-.1.24-5.94.25-6.04 0Zm5.77-.15c0-.14-2.24-4.43-2.52-4.81-.29-.41-.3-.4-1.13 1.2-.43.81-1.04 1.98-1.37 2.6l-.6 1.12h2.81c2.04 0 2.81-.03 2.81-.11ZM4.22 19.08c-.15-.15-.17-10.23-.02-10.62.23-.61.52-.42 2.74 1.75L9 12.22l2.15-2.06c1.85-1.79 2.17-2.05 2.34-1.97.3.17.31.26.31 3.89v3.47l.58-1.1c.32-.61 1.16-2.2 1.86-3.55C17.55 8.4 17.81 8 18.1 8c.31 0 .59.45 2.33 3.78.96 1.83 1.77 3.35 1.79 3.37.03.03.04-1.46.04-3.3-.01-4.63-.28-4.49 3.23-1.8 1.26.96 2.31 1.75 2.33 1.75.01 0 .03-1.08.03-2.41V6.98l.24-.19c.2-.16.4-.19 1.46-.19 1.65 0 1.58-.09 1.56 2.02l-.02 1.62.63-.61c1.07-1.02 2.16-1.43 3.84-1.43 1.43 0 3.44.64 3.73 1.19.12.22-.25 1.02-.85 1.85-.4.54-.41.54-1.39.12-.7-.3-1.87-.36-2.33-.12-1.77.93-1.17 3.56.81 3.56.87 0 .87.01.87-1 0-1.21-.01-1.2 1.6-1.2 1.24 0 1.6.08 1.6.38 0 .03-.52 1.06-1.17 2.29-1.35 2.58-1.09 2.38-2.98 2.38-1.87 0-3.17-.53-4.02-1.64l-.32-.42-.03.97c-.05 1.62-.1 1.61-3.18-.8l-2.35-1.83-.05 1.76-.05 1.76-2.64.03c-1.92.02-2.67-.01-2.78-.1-.08-.06-.55-.96-1.05-2l-.91-1.88-.92 1.85c-.5 1.02-.98 1.92-1.06 2-.24.24-5.18.23-5.36-.01-.09-.12-.13-.57-.13-1.48v-1.29l-.74.71c-.91.88-.91.88-1.82 0l-.74-.71v2.19c0 1.58-.03 2.23-.12 2.32-.08.08-.56.12-1.48.12s-1.4-.04-1.48-.12Zm2.76-.2c.09-.09.12-.75.12-2.35 0-2.63-.04-2.58 1.04-1.53.4.38.77.7.82.7s.47-.34.92-.76c.5-.46.87-.73.92-.68s.11.75.12 1.54l.03 1.45 2.45-.03c1.34-.02 2.48-.06 2.53-.09s.49-.87.98-1.86c.93-1.87 1.05-2.07 1.21-2.07.05 0 .52.89 1.04 1.97.52 1.09.99 2 1.04 2.03.04.03 1.2.05 2.57.05h2.48l.03-1.82c.02-1.53.05-1.83.17-1.83.08 0 .7.44 1.37.98 2.47 1.97 3.66 2.84 3.85 2.8.16-.03.18-.15.19-1.11.01-1.21.07-1.35.38-.92 1.02 1.45 2.25 2.04 4.22 2.05 1.71 0 1.48.19 2.74-2.25.6-1.17 1.1-2.15 1.1-2.19 0-.03-.58-.06-1.3-.06h-1.3v.88c0 1.15-.15 1.32-1.16 1.32-2.11 0-2.91-2.74-1.16-3.95.62-.42 1.95-.43 2.86-.02.79.36.76.38 1.3-.52.64-1.06.63-1.09-.09-1.48-2.44-1.3-5.72-.71-7.07 1.27-.18.27-.36.5-.4.5s-.09-.89-.1-1.97l-.03-1.98-1.29-.03c-.97-.02-1.31.01-1.38.1-.04.07-.08 1.27-.08 2.66 0 1.74-.03 2.52-.11 2.52-.1 0-.75-.49-4.02-2.99-.61-.47-1.15-.81-1.25-.79-.16.03-.17.31-.2 3.66-.02 3.35-.04 3.63-.19 3.6-.11-.02-.67-.98-1.53-2.63-2.43-4.68-2.44-4.7-2.7-4.7-.19 0-.36.27-1.17 1.8-3.02 5.78-3.09 5.91-3.29 5.74-.11-.09-.14-.81-.14-3.8 0-2.37-.04-3.69-.1-3.69-.05 0-1.04.92-2.19 2.05-1.14 1.13-2.14 2.05-2.22 2.05-.07 0-1.06-.93-2.2-2.06C5.64 9.31 4.65 8.4 4.58 8.42c-.1.04-.14 1.1-.16 5.31L4.4 19h1.23q1.23 0 1.35-.12Zm30.68-1.44c-.05-.14 2.26-4.58 4.38-8.44.5-.91.78-1.02 1.19-.48.5.67 4.68 8.67 4.64 8.88-.02.13-.28.15-1.62.15h-1.6l-.96-1.92-.96-1.93-.81 1.63c-.45.89-.9 1.77-1.02 1.95l-.2.32h-1.49c-1.27 0-1.5-.02-1.55-.16Zm3.02-.32c.11-.15.57-1.02 1.02-1.92.45-.91.87-1.71.95-1.79.16-.17.07-.32 1.33 2.19l.87 1.75 1.38.03c.87.02 1.37-.01 1.37-.08 0-.1-3.69-7.15-4.27-8.15-.59-1.02-.56-1.03-1.65 1.04-1.13 2.16-3.48 6.52-3.64 6.76-.29.42-.21.45 1.15.45h1.3z"/></svg>