<svg xmlns="http://www.w3.org/2000/svg" width="51" height="51" viewBox="0 0 51 51"><path fill="#fff" fill-rule="evenodd" stroke="#fff" stroke-width=".483" d="m10.22 48.73.03-2.48h30.6l.03 2.48c.01 1.62-.01 2.47-.08 2.47-.06 0-.1-.84-.1-2.4v-2.4H10.53l-.06 1.28c-.04.7-.07 1.78-.07 2.4 0 .69-.04 1.12-.1 1.12-.07 0-.09-.85-.08-2.47Zm1.03-7.9c-.46-.24-.66-.45-.86-.88-.18-.38-.19-1.03-.19-14.33 0-14.95-.02-14.29.48-14.86.53-.59-.39-.56 14.95-.56 15.09 0 14.22-.03 14.81.49.5.44.48-.32.48 14.87V39.7l-.24.42c-.14.25-.39.51-.63.65l-.4.23-14.05-.01c-12.63 0-14.08-.01-14.35-.16Zm28.71-.29c.76-.56.69.99.69-15V11.3l-.38-.37-.37-.38-14.19-.03-14.18-.02-.33.22c-.18.13-.43.36-.54.51l-.21.28-.03 13.81c-.02 9.48.01 13.92.08 14.19.14.5.63 1.06 1.04 1.18.18.06 6.03.09 14.23.08 13.89-.02 13.92-.02 14.19-.23Zm-23.45-6.75c-1.04-.18-1.48-.63-1.33-1.35.13-.64.4-.76 1.49-.63 1.53.18 1.73.08 2.08-1.13.2-.69.16-.78-.36-.78-.9 0-1.58-.52-1.88-1.44-.39-1.19-1.52-5.33-1.61-5.88-.15-.94.05-1.33.74-1.43 1.02-.16 1.07-.06 2.07 3.6.9 3.3.88 3.25 1.33 3.25h.32l.23-.97c1.42-6.03 1.43-6.06 2.53-5.88.62.11.83.35.81.92-.02.63-2.26 9.7-2.52 10.21-.66 1.3-2.07 1.84-3.9 1.51Zm2.54-.46c1.05-.55 1.2-.93 2.54-6.43 1.32-5.41 1.31-5.35.58-5.47-.95-.15-.97-.12-1.78 3.31-.32 1.38-.66 2.75-.75 3.05l-.15.53-.47-.07c-.26-.03-.52-.12-.59-.18-.06-.07-.48-1.47-.93-3.12-1.01-3.71-.94-3.55-1.67-3.55-1.02 0-1.01.14.28 4.76.91 3.25 1.01 3.39 2.41 3.51.72.07.72.08.53.85-.4 1.51-.57 1.63-2.22 1.54-1.36-.07-1.43-.04-1.43.62 0 .63.77.93 2.25.89.78-.02 1.09-.08 1.4-.24Zm12.68-3.28c-2.11-.46-2.92-1.68-2.93-4.41 0-2.32.67-3.72 2.09-4.38.77-.36 2.96-.31 3.75.08 1.44.71 2.28 3.55 1.37 4.68-.19.23-.21.23-2.65.26l-2.45.03.06.32c.11.63.4 1.15.75 1.33.37.21 1.97.26 3.25.11.65-.08.73-.07.92.12.25.25.28.79.06 1.2-.34.67-2.57 1.02-4.22.66Zm-6.44-.1c-.48-.26-.49-.44-.49-5.92l-.01-5.13h-.3c-.74 0-1.12-1.28-.55-1.85.48-.48 2.28-.42 2.74.1l.22.26v6c0 6.47 0 6.49-.52 6.63-.38.1-.81.06-1.09-.09Zm9.43-.19c.97-.23 1.38-.7 1.08-1.26-.11-.21-.15-.22-1.13-.14-1.09.1-2.11.09-2.65-.01-.7-.13-1.32-1.04-1.32-1.96v-.27l2.45-.03c2.37-.04 2.45-.05 2.67-.26.6-.61.17-3.04-.69-3.85-.91-.87-3.15-1.02-4.47-.3-2.2 1.2-2.23 6.6-.03 7.73.92.48 2.86.64 4.09.35Zm-8.21-.13c.19-.22.27-11.36.1-12.01-.14-.51-.56-.66-1.68-.6-.85.04-.95.11-1 .75-.05.61.05.75.59.82l.43.06.05 5.37c.05 5.08.06 5.37.24 5.57.24.27 1.06.3 1.27.04Zm4.31-4.91c-.19-.51.27-1.66.79-1.97.5-.29 1.86-.29 2.26.01.55.41 1 1.85.62 1.98-.37.13-3.62.11-3.67-.02Zm2.66-.22h.82v-.38c0-.91-.47-1.32-1.55-1.32s-1.53.36-1.7 1.39l-.07.44.83-.06c.46-.04 1.21-.07 1.67-.07Z"/></svg>