<svg xmlns="http://www.w3.org/2000/svg" width="51" height="51" viewBox="0 0 51 51"><path fill="#fff" fill-rule="evenodd" stroke="#fff" stroke-width=".318" d="M13.12 49.94c-.97-3.53-2.02-5.01-4.92-6.92-1.37-.9-3.1-2.43-3.1-2.74 0-.06.37.27.83.74.59.6 1.24 1.11 2.32 1.82 2.44 1.6 3.43 2.74 4.35 5.01.47 1.15.93 2.75.88 3.08-.02.12-.18-.32-.36-.99Zm4.69.33c-3.27-6.12-7.25-10.16-11.71-11.88-.9-.34-1.26-.55-.75-.43 2.15.49 5.79 2.94 7.93 5.34 1.77 1.98 5.54 7.81 5.04 7.8-.04 0-.27-.37-.51-.83Zm4.04-.08c-1.91-3.43-6.02-8.03-9.62-10.75-.8-.61-2.91-1.94-3.26-2.07-.07-.02-.09-.08-.05-.12.25-.27 3.89 2.28 6.15 4.32 2.55 2.31 7.42 8.5 7.43 9.46 0 .23-.21-.04-.65-.84Zm7.65.83c0-.28-3.37-4.07-5.27-5.93-3.54-3.48-7.79-6.4-11.48-7.9-.8-.33-1.24-.58-.75-.44 2.3.66 6.31 3.04 9.5 5.64 2.81 2.28 8.78 8.71 8.1 8.71-.05 0-.1-.03-.1-.08Zm4.73-.95C30.12 44.84 22.7 38.91 17.8 36.95c-.25-.1-.4-.19-.34-.22.6-.22 6.12 3.09 9.09 5.46 2.7 2.15 6.94 6.44 8.3 8.41.56.81.16.47-.62-.53Zm12.12-.3c-4.01-3.7-9.76-7.96-14-10.36-.88-.5-1.66-.95-1.73-1.01-.45-.39-4.33-1.22-7.17-1.54-3.61-.41-9.36-.51-13.18-.22-2.34.18-2.43.19-3.1.53-.54.27-.84.27-1.01.01-.13-.21-.07-.26 1.29-1.04 9.83-5.66 20.16-7.89 34.9-7.53 4.12.1 7.89.37 8.26.6.3.18-.08.18-1.92 0-2.66-.27-7.98-.45-11.14-.37-11.93.29-20.11 2.23-28.7 6.83-2.42 1.29-3.35 1.97-1.61 1.17 1.51-.69 10.79-.86 15.86-.28 8.93 1 18.23 4.8 25.95 10.59 1.5 1.12 1.83 1.41 1.73 1.51-.03.03-.7-.44-1.49-1.04-4.94-3.73-10.61-6.72-16.28-8.58-2.35-.78-2.43-.78-1.15-.1 4.17 2.22 10.92 7.19 14.79 10.89.61.58 1.08 1.07 1.05 1.1-.03.02-.64-.5-1.35-1.16Zm3.2-2.74c-10.61-8.18-23.98-12.12-37.81-11.11-3.05.22-3.05.22-.73-.94 8.33-4.16 17.86-5.96 30.54-5.74 5.67.09 9.46.39 9.14.71-.04.03-.76-.01-1.6-.1-10.58-1.07-23.25-.01-31.14 2.59-3.09 1.02-8.87 3.49-7.75 3.31 1.5-.23 6.8-.32 9.55-.15 9.25.57 17.58 3.26 25.55 8.23 2.29 1.43 5.59 3.78 5.6 4 .01.19-.33-.01-1.35-.8ZM.44 44.73c.03-.81.08-2.58.11-3.93.09-4.05.52-8.2.84-8.2.04 0 .02.32-.06.72-.38 2.05-.57 4.7-.69 9.81-.04 1.64-.11 3-.16 3.03-.05.04-.07-.55-.04-1.43Zm46.36-1.48c-7.25-1.61-8.16-13.04-1.01-12.73 1.92.08 3.09 1.1 3.61 3.14.36 1.42.41 1.36-1.22 1.49l-.76.06-.11-.51c-.65-3.03-4.22-2.31-4.22.84 0 2.4 1.18 4.12 3.2 4.68 1.07.3 1.21.27 1.21-.26 0-.98-.01-1-1.13-1.38l-1.02-.35-.03-1.03c-.03-1.17.04-1.35.52-1.24.8.17 3.63 1.07 3.75 1.19.17.17.29 3.8.17 5.08l-.08.76-.46.16c-.67.23-1.66.27-2.42.1Zm2.04-.46.43-.11.06-1.11c.03-.62.03-1.8 0-2.63l-.06-1.52-1.7-.51c-.94-.28-1.71-.5-1.72-.49-.01.02-.05.35-.08.73l-.07.71 1.04.38c1.19.43 1.16.38 1.16 1.56 0 1.12-.05 1.17-1 1.01-2.69-.44-4.5-2.81-4.26-5.56.28-3.1 4.01-4.02 4.92-1.2.22.67.23.68.97.6l.65-.07-.15-.62c-.5-2.17-1.48-3.01-3.48-3.01-6.35 0-5.35 10.21 1.15 11.8.68.17 1.58.18 2.14.04Zm-9.44-2.87c-.42-.15-.81-.31-.88-.35-.07-.05-.71-1.26-1.42-2.69l-1.3-2.6v.8c0 1.62-.13 3.24-.26 3.29-.07.02-.52-.1-1-.28l-.87-.34.07-1.25c.03-.69.06-2.26.06-3.5 0-2.69-.07-2.53 1.13-2.58l.94-.04.89 1.63c.48.9 1.11 2.08 1.4 2.62l.51.98.07-2.63c.05-1.44.1-2.66.13-2.7.02-.05.47-.08 1-.08h.96l-.07 1.73c-.03.94-.11 3.09-.17 4.77-.1 2.84-.17 3.51-.36 3.49-.05 0-.42-.13-.83-.27Zm.81-4.77c.09-2.42.13-4.44.09-4.48-.04-.05-.29-.07-.56-.05l-.49.03-.08 2.9c-.04 1.6-.1 2.96-.12 3.03-.12.35-.22.2-2.52-4.08l-.89-1.65-.64.03c-.36.02-.65.04-.66.05s-.06 1.49-.1 3.28l-.07 3.25.54.21.54.2.06-1.56c.04-.86.07-1.91.08-2.33.02-1.35.16-1.18 1.88 2.26l1.52 3.05.48.14c.84.26.76.63.94-4.28Zm-8.13 1.97c-.42-.15-.8-.3-.83-.34-.09-.09-.06-6.11.03-6.2.04-.04.48-.08.97-.1l.9-.03.02 1.15c.04 1.83-.11 5.73-.22 5.76-.05.01-.45-.1-.87-.24Zm.62-3.11c0-1.54.03-2.86.06-2.95.05-.13-.03-.16-.48-.16h-.55l-.06.83c-.04.45-.07 1.7-.07 2.77v1.96l.42.16c.24.09.49.17.56.17.09.01.12-.61.12-2.78Zm-3.15 2.3-.6-.17-.57-1.05c-.32-.57-.59-1.08-.62-1.14-.1-.25-.71.56-.81 1.08l-.1.52-.5-.03c-.68-.03-.66.06-.49-2.27.18-2.38.13-2.24.88-2.32l.56-.06v1.55l.73-.64c1.24-1.1 1.21-1.08 2.03-1.08.98 0 .97.07-.26 1.2l-.99.92.79 1.59c.76 1.51.95 2.1.68 2.08-.07-.01-.4-.09-.73-.18Zm-.4-1.92c-.91-1.84-.92-1.63.09-2.51.82-.71.83-.73.54-.76-.34-.04-.52.09-1.82 1.27-1.14 1.02-1.13 1.03-1.12-.12.01-.89-.1-1.12-.41-.83-.01.01-.07.71-.13 1.56s-.13 1.67-.16 1.81c-.04.21-.01.28.16.32s.21-.01.26-.36c.07-.45 1.02-1.51 1.27-1.41.07.02.38.56.71 1.2.57 1.12.74 1.32 1.18 1.33.14.01.02-.3-.57-1.5Zm-21.8.88c-.02-.06-.22-1.04-.45-2.16-.48-2.42-.35-2.21-1.04-1.75-.75.49-.82.39-.08-.12.64-.44.63-.42.47-1.76l-.08-.67.86-.56c1.88-1.22 2.97-1.35 3.56-.42l.21.32v-.32c.01-2 1.51-3.88 3.51-4.39 4.11-1.05 4.89 6.44.88 8.45-2.09 1.04-3.62.35-4.17-1.9l-.19-.74-.06.4c-.12.74-.78 1.54-1.86 2.25l-.22.15.26 1.05c.38 1.48.42 1.36-.5 1.86-.85.46-1.03.52-1.1.31Zm1-.78c.04-.06-.03-.59-.15-1.19-.27-1.29-.27-1.29.47-1.75 1.5-.95 2.15-2.19 1.7-3.27-.35-.84-1.18-.84-2.62-.02-1.32.74-1.22.56-1.01 1.87.19 1.24.85 4.57.92 4.69.06.09.59-.16.69-.33ZM.47 32.33c.04-.45-.01-.76-.22-1.37-.14-.43-.24-.8-.22-.83.2-.2.72 1.7.62 2.27-.11.62-.24.56-.18-.07Zm14.15-.63c2.04-.76 3.22-3.35 2.67-5.88-.84-3.92-6.09-1.87-6.09 2.37 0 2.96 1.3 4.3 3.42 3.51Zm-13.52.12c0-.18 1.97-2.67 3.19-4.04 2.52-2.82 5.39-5.58 9.42-9.05.77-.66 1.8-1.7 2.66-2.68.77-.88 1.61-1.82 1.86-2.08.27-.29.48-.62.51-.82.17-.88.72-1.15 2.32-1.15h1.16l-.04 1.23c-.06 2.04-.94 2.79-1.99 1.71-.38-.39-.45-.41-.54-.14-.08.26-.29.26-.22 0 .03-.13 0-.2-.09-.2-.17 0-.18-.22-.03-.37.09-.09-.28-.48-.53-.57-.09-.03-3.6 4.06-3.54 4.12.04.03 1.29.08 2.79.1l2.72.04 1.71-.85c2.13-1.07 3.13-1.5 6.64-2.86l.55-.21-1.4.05c-.77.03-1.59.08-1.82.11-.24.03-.43.01-.43-.04 0-.13.7-.2 2.6-.27 1.94-.08 3.68-.54 3.13-.83-.11-.06-1.43-1.4-2.94-2.98-1.51-1.59-2.99-3.14-3.3-3.46-.52-.54-.59-.58-1.02-.58-.71 0-.83.09-2.68 2.08-.96 1.03-2.98 3.15-4.49 4.72s-3.95 4.11-5.41 5.65c-3.38 3.56-3.78 3.93-4.19 3.82-.16-.04-.5.27-1.63 1.46-2 2.13-1.97 2.1-2.04 2.03-.04-.03.09-.23.28-.44.19-.2.89-.95 1.54-1.67.66-.71 2.01-2.13 3-3.15s2.12-2.19 2.5-2.6c.39-.41 1.7-1.79 2.93-3.07 1.22-1.27 2.22-2.34 2.22-2.38 0-.06-1.43 1.09-2.85 2.28-2.4 2.03-4.45 4.09-6.11 6.17-.38.47-1.36 1.66-2.19 2.65-2.48 2.97-3.91 4.91-4.42 6.02-.33.71-.32.74-.22-1.12.1-1.98.45-3.86 1.14-6.06.13-.41.4-1.44.59-2.28.82-3.53 1.72-5.57 4.16-9.51 1.93-3.11 5.17-7.26 7.59-9.72 1.11-1.14 1.27-1.14.21-.01-5.05 5.39-9.59 12.2-10.99 16.49-.67 2.06-.68 2.02.37 1.04 4.71-4.41 5.81-5.38 8.94-7.81 5.32-4.14 7.65-5.72 11.58-7.85 1.91-1.03 5.6-2.76 5.79-2.71.09.02-.22.21-.69.42-5.81 2.64-10.56 5.54-15.3 9.34-2.72 2.18-7.32 7.46-11.03 12.66-.57.79-.76.81-.24.02 1.43-2.14 4.78-6.34 7.16-8.97.57-.63 1.18-1.3 1.35-1.49.88-.98-3.3 2.66-6.31 5.5-2.11 1.99-2.22 2.12-2.36 2.62-.07.29-.28 1.04-.47 1.67C1.32 24.9.9 27 .9 28.3v.75l.5-.79c.56-.86 2.01-2.77 3.07-4.02.37-.45 1.46-1.75 2.42-2.9 2.78-3.34 4.99-5.48 9.2-8.89 1.06-.86 2.38-2.05 3.1-2.8 4.49-4.64 4.33-4.51 5.42-4.43.58.04.62.06 1.22.66l.63.62 1.84-.79a86 86 0 0 1 3.3-1.31c1.09-.39 1.8-.73 2.87-1.37l1.41-.85.89.03c.79.02 1.06-.03 2.73-.48C42.02 1.03 45.99 0 46.13 0c.46 0-.57.32-3.73 1.15-4.75 1.25-4.72 1.24-4.63 1.38.04.07.21.32.39.57s1.01 1.66 1.85 3.15c2.24 3.97 2.33 4.1 2.55 4.08.1-.01.82-.11 1.59-.22 3.14-.46 6.37-.71 6.5-.52.06.11-.4.18-1.75.26-9.14.53-20.91 4.28-30.81 9.83C13.2 22.41 4.03 28.88 3.45 30c-.24.47-.11.39 1.55-.96 13.35-10.79 28.33-17.28 43.39-18.79 1.91-.19 2.21-.19 2.21-.02 0 .11-.28.16-1.12.21-14.28.87-30.67 7.83-44.38 18.86-1.78 1.44-1.93 1.53-2.04 1.23-.22-.57.39-1.16 3.89-3.78 4.7-3.51 8.45-5.96 12.1-7.91l1.29-.69-2.7-.07-2.69-.07-.31.24c-3.22 2.46-9.85 9.09-12.48 12.48-.83 1.07-1.06 1.31-1.06 1.09Zm6.52-1.29c-.06-.38-.14-.82-.18-1-.1-.48 1.24-1.25 1.8-1.03.86.32.46 1.63-.73 2.39-.69.45-.75.42-.89-.36Zm6.1.26c-2.11-.44-1.87-5.31.28-5.89 1.36-.37 2.21.52 2.28 2.37.09 2.31-1.03 3.85-2.56 3.52Zm4.93-.31c-.15-.66-1.45-8.74-1.45-9.04 0-.21 1.82-.97 1.95-.82.07.07.24.8.39 1.62.14.82.27 1.51.29 1.52.02.02.56-1.02 1.2-2.3 1.27-2.58 1.15-2.43 2.56-3.06 1.48-.66 1.48-.63.01 2.21-.66 1.29-1.19 2.39-1.18 2.46.03.12 4.94 4.86 5.1 4.92.06.02.08-.05.04-.15-.32-1.01-2.04-10.3-1.93-10.41.13-.13 2.49-1.02 5.68-2.14 1.96-.68 1.9-.69 2.14.49.25 1.25.37 1.13-1.75 1.86-1.86.64-3.22 1.14-3.29 1.21-.02.03.04.45.14.95.21 1.07-.06 1.01 2.48.56 2.75-.49 2.74-.49 2.82-.35.11.16.35 1.47.35 1.86 0 .35-.01.35-.85.48-.22.03-1.24.22-2.26.41l-1.85.36.22 1.19c.12.66.23 1.22.25 1.24s1.08-.07 2.34-.21c2.97-.3 3.13-.31 3.2-.01.19.85.41 2.37.35 2.47-.05.07-1.06.2-2.76.35-4.34.39-4.91.45-6.44.72l-1.45.25-1.9-1.92-1.9-1.92-.42.89-.41.88.19 1.3c.27 1.83.3 1.75-.66 2.07-1 .33-1.13.34-1.2.06Zm-10.06-.13c.68-.46.96-1.45.4-1.45-.54 0-1.18.48-1.09.82.04.18.11.45.14.61.08.33.07.33.55.02Zm6.23-.13c1.55-1.02 1.41-4.92-.18-4.94-1.23-.01-1.94.95-1.94 2.66 0 1.96.99 3.03 2.12 2.28Zm4.96-.27c.49-.16.53-.19.48-.43-.03-.15-.13-.78-.22-1.4L19.88 27l.53-1.15c.35-.76.59-1.15.69-1.14.08 0 .92.82 1.85 1.81 2.18 2.3 1.91 2.14 3.15 1.92.55-.09.99-.2.98-.24-.02-.04-1.18-1.16-2.58-2.5-1.4-1.33-2.56-2.48-2.58-2.55s.47-1.09 1.07-2.27c.61-1.18 1.11-2.18 1.11-2.21 0-.04-.36.11-.79.32l-.79.4-1.36 2.76c-.74 1.51-1.39 2.75-1.45 2.75-.11 0-.13-.08-.51-2.09-.17-.91-.32-1.67-.35-1.69-.11-.12-1.15.44-1.15.62 0 .19.5 3.46 1 6.5.17.99.3 1.84.3 1.89s.06.07.12.05c.07-.03.37-.13.66-.23Zm27.51-1.94-1.66-.16-.9-1.2c-1.05-1.39-2.94-3.68-3.61-4.37l-.46-.48h-2.01l.58 2.91c.45 2.27.55 2.94.46 3.05s-.44.14-1.6.14c-1.73 0-1.57.12-1.83-1.3-.24-1.32-1.32-7-1.82-9.54-.6-3.04-.71-2.71 1.11-3.24 7.7-2.21 7.95-2.24 9.16-.95 1.73 1.85 1.7 5.26-.07 7-.3.28-.62.54-.74.58-.26.08-.26.22 0 .3.77.25 2.56 2.43 4.54 5.53 1.32 2.08 1.38 1.98-1.15 1.73Zm-15.49-.22c1.84-.17 3.36-.32 3.37-.33 0 0-.06-.44-.15-.96l-.17-.95-.4.03c-.22.02-1.28.12-2.35.23-2.56.25-2.68.25-2.79-.03-.18-.51-.55-2.88-.45-2.97.07-.08 2.97-.68 4.57-.96.34-.05.38-.09.33-.28-.03-.12-.08-.41-.12-.65-.09-.58.04-.57-2.46-.12-2.41.43-2.74.47-2.8.28-.13-.37-.51-2.48-.46-2.53.04-.04 1.14-.45 2.45-.91 2.9-1.03 2.84-1 2.78-1.16-.02-.07-.09-.39-.15-.7l-.11-.57-1.27.44c-2.26.77-5.46 1.95-5.55 2.04-.08.08.06.85 1.25 6.78.67 3.32.75 3.63.93 3.63.11 0 1.71-.14 3.55-.31Zm17-.14c0-.13-2.37-3.66-2.95-4.4-.89-1.14-1.84-2.01-2.49-2.3-.68-.3-.7-.47-.12-.69 2.15-.82 2.99-3.82 1.76-6.26-.79-1.56-1.59-1.86-3.58-1.35-1.2.3-6.93 1.93-6.97 1.97-.01.02.46 2.55 1.05 5.63s1.14 5.94 1.21 6.35l.14.75 1.23.03c.67.01 1.22 0 1.22-.03 0-.14-1.12-5.6-1.17-5.68-.16-.27.22-.37 1.38-.37h1.19l.42.38c.5.44 2.66 3.02 3.85 4.59.71.94.91 1.13 1.17 1.17.25.04 1.23.14 2.48.25.1 0 .18-.01.18-.04ZM9.85 20.18c.88-.9 2.43-2.51 3.45-3.59s2.98-3.13 4.35-4.55c1.38-1.43 3.26-3.39 4.18-4.37 2.63-2.76 2.38-2.8 5.77.78 3.14 3.31 4.97 5.06 4.78 4.56-.02-.07-3.04-3.2-6.64-6.88l-.61-.63h-.68c-.55 0-.76.05-1.02.23-.32.21-4.16 4.21-9.59 9.97a349 349 0 0 1-4.22 4.41c-.94.97-1.72 1.79-1.72 1.83 0 .18.47-.25 1.95-1.76Zm-9.84-.77c-.01-.45.98-4.29 1.55-6.01C2.69 10 6.46 3.52 9.19.3c.57-.67.43-.2-.16.52-1.67 2.07-3.9 5.51-5.36 8.28S1.66 13.37.61 17.45c-.34 1.3-.6 2.15-.6 1.96Zm37.74.07c-.16-.48-.66-3.61-.59-3.68.09-.08 3.32-.91 4.06-1.04 2.13-.37 2.84 3.06.82 3.95-.86.38-4.22.98-4.29.77Zm2.29-.74c.94-.19 1.84-.43 2.01-.53 1.24-.71.89-3.01-.46-3.01-.35 0-3.86.84-3.97.95-.04.03.2 1.5.44 2.67.07.34-.06.35 1.98-.08ZM21.35 15.1c.43-.17.65-.79.65-1.92v-.98h-1.02c-1.29 0-1.8.19-1.98.74-.17.51.31 1.16.74 1 .11-.04.16 0 .16.1 0 .09.04.16.09.16s.11.13.14.3c.1.5.71.8 1.22.6Zm12.35-2.49c1.57-.49 4.9-1.39 6.37-1.72.76-.17 1.4-.32 1.42-.34.1-.11-3.85-6.95-4.2-7.28-.68-.63-2.26.18-8.31 4.24l-.97.65 1.01 1.02c.56.56 1.02 1.01 1.03 1 .01-.02.12-.46.24-.98s.3-1.1.41-1.28c.6-.98 2.07-.64 1.98.45-.03.34 0 .38.22.41.99.14.9 1.65-.12 1.92-.33.1-.59.09-1.29-.04-.48-.09-.93-.16-1.01-.16s.37.54 1 1.2c.64.66 1.18 1.2 1.22 1.2.03 0 .48-.13 1-.29Zm-10.22-.36c-.46-.53-.46-.99 0-.53.09.09.15.08.27-.08.32-.41.29-.61-.15-1.14l-.42-.5-.49.25c-.43.22-.48.28-.39.45.29.53-.07.54-.5 0-.3-.38-.33-.6-.07-.6.07 0 .93-.38 1.92-.85 2.57-1.21 2.53-1.23 1.46 1-.44.91-.86 1.83-.92 2.05-.15.5-.25.5-.71-.05Zm1.22-2.34.4-.8-.38.16c-1.21.5-1.22.52-.8 1.04.39.49.31.53.78-.4Zm8.47.34c.5-.58.29-1.15-.48-1.3l-.36-.07.11-.39c.18-.67-.32-1.11-.99-.89-.5.17-.71.49-.94 1.51-.27 1.16-.27 1.19.07 1.19.15.01.54.07.87.15.86.2 1.44.13 1.72-.2Zm8.87.26c.04-.05-.34-.78-.82-1.63-.49-.84-1.33-2.32-1.87-3.28-1.68-2.97-1.75-3.05-2.77-3.17-.54-.06-.85.09-3.05 1.49-.71.44-1.71 1.08-2.23 1.41-1.83 1.16-3.6 2.37-3.6 2.47 0 .21.29.08 1.14-.5.48-.33 1.49-.99 2.24-1.46.75-.48 1.96-1.24 2.67-1.69 2.76-1.75 3.3-1.85 4.01-.73.47.74 2.95 5.07 3.7 6.45.39.72.47.82.58.64Zm-3.54-.18c-.81-.02-1.39-.08-1.45-.15-.13-.14 3.49-.04 3.85.11.2.08.12.09-.4.08-.36-.01-1.26-.03-2-.04Zm-4.23-1.69c-.45-.55-.34-.92.14-.48.16.15.19.13.44-.25l.27-.4-.37-.51c-.42-.57-.36-.55-.92-.34-.42.16-.43.18-.37.5q.135.705-.51-.12c-.38-.51-.43-.64-.2-.64.08 0 1.07-.3 2.21-.66 1.95-.62 2.08-.65 2.2-.49.08.1.1.23.07.29-.04.06-.55.84-1.15 1.73-.59.89-1.08 1.67-1.08 1.72 0 .25-.38.06-.73-.35Zm-5.03-2.27c.94-.62 1.99-1.3 2.34-1.51s.61-.4.59-.43c-.05-.05-2.82 1.04-4.43 1.74l-1.11.48.36.43c.46.54.28.6 2.25-.71Zm6.6.19c.25-.36.46-.67.46-.7 0-.05-1.4.41-1.48.48-.03.04.48.85.55.86.01 0 .22-.29.47-.64Z"/></svg>