<svg xmlns="http://www.w3.org/2000/svg" width="51" height="51" viewBox="0 0 51 51"><path fill="#fff" fill-rule="evenodd" stroke="#fff" stroke-width=".724" d="M17.34 39.17c-7.88-3.94-7.75-3.86-8.09-5-.23-.78-.22-16.49.01-17.26.31-1.07.33-1.08 8.09-4.96l7-3.5h1.6l3.29 1.63 3.3 1.63.85-.35c3.99-1.59 8.31.41 9.68 4.49.75 2.22.15 5.16-1.43 6.98l-.36.42.01 4.9c.02 5.05-.02 5.73-.39 6.45-.43.84-.78 1.04-7.95 4.62l-6.86 3.43-.82.03-.82.04zm15.51-.15c8.4-4.2 7.99-3.88 8.17-6.17.1-1.2.07-9.1-.04-9.2-.03-.03-.29.11-.59.31-2.15 1.45-4.51 1.76-6.78.91-5.41-2.03-6.36-9-1.72-12.68l.44-.35-3.24-1.59-3.24-1.6h-.7l-.7.01-7 3.49C9.75 16 9.76 16 9.46 17.01c-.23.77-.24 16.28-.01 17.05.32 1.09.16.99 7.99 4.91l7.11 3.55.73-.04.72-.03zM21.08 35l-.77-.4-.03-2.77-.03-2.78-.28-.48c-.35-.59-.91-.97-1.46-1-.76-.03-.76-.03-.79 2.98-.02 1.61-.07 2.65-.13 2.65-.05 0-.42-.16-.81-.36l-.71-.36.07-1.96c.12-3.43-.28-4.61-1.62-4.79-.79-.11-.82-.02-.82 2.86 0 1.58-.04 2.52-.1 2.56-.06.03-.42-.11-.8-.31l-.7-.38V28.2c.01-2.4.07-2.94.45-3.51.83-1.26 3.04-.82 4.22.85.19.28.22.29.51.17 1.51-.63 3.78.8 4.54 2.87.24.64.35 6.72.13 6.78-.06.02-.45-.15-.87-.36Zm.56-6.19c-.59-2.04-2.74-3.46-4.31-2.86-.45.17-.47.17-.57.01-1.11-1.86-3.4-2.39-4.13-.95-.21.42-.22.58-.24 2.87l-.02 2.44.52.29.51.29.01-2.02c.01-3.27.24-3.77 1.56-3.27 1.12.42 1.43 1.4 1.43 4.57v2.17l.5.27c.28.16.52.28.55.28.02 0 .05-1.15.07-2.56l.03-2.56.29-.25c.59-.5 1.7-.07 2.28.88.4.63.48 1.31.48 3.86v2.23l.58.29.57.29.03-2.86c.02-2.39 0-2.95-.14-3.41Zm16.12-3.91c5.95-1.5 7.39-9.29 2.33-12.65-4.76-3.17-10.92.16-10.92 5.9 0 4.52 4.23 7.85 8.59 6.75Z"/></svg>