<svg xmlns="http://www.w3.org/2000/svg" width="51" height="51" viewBox="0 0 51 51"><path fill="#fff" fill-rule="evenodd" stroke="#fff" stroke-width=".531" d="M24.65 48.07c-.42-.42-.48-.78-.43-2.65.03-1.36.02-1.43-.17-1.47-.11-.02-.59-.14-1.07-.25-1.07-.26-.9-.38-1.84 1.31-1 1.8-1.46 2.12-2.31 1.59-.84-.51-.8-.99.23-2.79.41-.74.72-1.37.67-1.41-.33-.3-1.75-1.4-1.81-1.4-.04 0-.61.31-1.27.7-1.51.88-2.09.92-2.55.18-.51-.84-.18-1.4 1.31-2.24.54-.31.99-.58.99-.6 0-.03-.11-.21-.24-.42s-.4-.71-.6-1.11c-.33-.64-.39-.71-.59-.65-.43.14-2.99.07-3.78-.1-3.22-.69-5.46-2.87-6.43-6.27-1.94-6.8 2.8-15.65 10.53-19.66.85-.43.79-.35 1.21-1.71a8.5 8.5 0 0 1 2.17-3.58c.88-.9.88-.87.01-.99-1.11-.15-1.33-1.47-.28-1.7.32-.07 2.16.29 2.64.51.32.16.37.15 1.12-.09 2.24-.73 4.35-.74 6.53-.05l.93.3.48-.21c.59-.25 2.15-.54 2.52-.45.97.21.85 1.54-.15 1.69-1.05.16-1.01.09-.39.72 1.17 1.2 2.21 2.99 2.59 4.44l.17.66 1.1.56c6.67 3.38 11.18 10.77 10.56 17.32-.56 5.82-4.52 9.15-10.16 8.52l-.7-.08-.57 1.16c-.31.64-.57 1.18-.57 1.2s.44.3.98.61c1.5.88 1.69 1.17 1.33 2-.42.95-1.03.94-2.62-.02-1.26-.76-1.14-.76-2.14.03-.33.27-.71.55-.84.63l-.23.16.62 1.08c.84 1.46 1.03 1.91.95 2.26-.15.7-1.01 1.17-1.64.9-.35-.14-.57-.46-1.41-2.03-.44-.83-.66-1.17-.76-1.13-.25.1-1.27.34-1.71.41l-.43.07v1.74c0 1.93-.07 2.21-.6 2.49-.5.26-.97.2-1.35-.18Zm1.34-.28c.45-.49.41-3.76-.06-4.18-.3-.26-.84-.24-1.12.04s-.29 3.72-.01 4.08c.28.35.89.38 1.19.06Zm-5.97-1.67c.43-.46 1.68-2.83 1.68-3.19 0-.63-.84-.96-1.33-.5-.36.32-1.77 2.86-1.77 3.17 0 .7.94 1.04 1.42.52Zm11.9-.02c.41-.41.36-.61-.53-2.19-.86-1.52-1.02-1.71-1.45-1.71-1 0-1.01.64-.05 2.41 1.06 1.94 1.36 2.16 2.03 1.49Zm-7.05-2.89c.42-.21.99-.14 1.36.19.58.5 2.48.1 2.58-.55.13-.77 1.04-1.2 1.82-.84.22.1.32.06.83-.29.91-.63 1.37-1.12 1.04-1.12-.3 0-.5-.93-.28-1.33.06-.12-.22.1-.63.48-3.62 3.42-8.6 3.39-12.29-.08-1.21-1.14-2.06-2.58-1.81-3.04.09-.18.07-.22-.19-.33-.33-.14-.52-.38-.69-.92-.17-.51-.14-.5-1.32-.32-7.53 1.15-11.32-5.43-7.7-13.36 1.91-4.18 5.03-7.38 9.13-9.35l1.14-.55.16-.84c.38-1.96 1.8-4.2 3.12-4.93.24-.13-.13-.71-.68-1.04-.44-.27-.43-.27-1.23.51-1.32 1.28-1.96 2.33-2.53 4.17l-.31 1.02-.97.52c-7.51 4-12.07 12.31-10.38 18.9 1.19 4.67 4.74 6.91 10.09 6.37.27-.03.32.04.94 1.19.64 1.16.67 1.21.9 1.1.2-.09.21-.12.09-.26-.14-.16-1.26-2.08-1.26-2.17 0-.29.75.85 1.34 2.03.08.17.2.23.44.23.75 0 1.25.58 1.2 1.37-.02.38.62 1.09 1.37 1.5.24.14.27.18.12.21-.18.04-.9-.49-1.37-1-.23-.25-.26-.26-.45-.12-.19.15-.19.17.25.55.71.63 1.32 1 1.5.92.78-.36 1.69 0 1.87.74l.09.38 1.09.26c1.05.26 1.11.26 1.25.09.08-.1.25-.23.37-.29Zm-8.67-1.7c2.1-1.2 2.15-1.23 2.18-1.69.07-.99-.59-1.06-2.1-.22-2.01 1.11-2.14 1.24-1.97 1.85.2.71.74.72 1.89.06Zm11.55.25c2.72-.76 5.98-3.94 5.41-5.27-.06-.13.01-.2.27-.28.52-.18 1.16-1.16.91-1.41-.28-.28-.72-.23-.79.09-.04.18-.15.37-.26.44-.12.07-.19.23-.19.41 0 .16-.19.63-.41 1.05-2.73 4.98-8.71 6.02-12.73 2.22-.96-.92-2.06-2.67-2.06-3.29 0-.1-.09-.27-.19-.36-.11-.1-.23-.31-.26-.46-.06-.27-.07-.27-.45-.18l-.39.1.16.42c.17.45.5.86.68.86.33 0 .48.26.31.52-.65.99 2.6 4.17 5.09 4.98 1.3.43 3.65.51 4.9.16Zm8.55-.01c.59-.62.3-1.02-1.49-2.04-1.64-.93-2.31-.92-2.31.02 0 .44.16.57 1.74 1.51 1.41.83 1.7.9 2.06.51Zm-8.94-.9c1.54-.4 3.28-1.56 4.26-2.84.61-.78.65-.75-.82-.51-3.51.57-10.06.43-11.84-.26-.15-.06-.12.03.15.42 1.83 2.66 5.21 3.97 8.25 3.19Zm-2.88-.16c-1.63-.21-3.65-1.32-4.6-2.51-.41-.53-.4-.53 1.29-.29 3.24.46 7.21.41 9.91-.15.49-.1.4.05-.5.92-1.65 1.58-3.87 2.32-6.1 2.03Zm2.97-.6c1.12-.34 1.96-.81 2.75-1.52.53-.48.56-.47-.8-.29-1.74.22-5.89.22-7.58-.01-1.66-.23-1.68-.22-.91.41 1.85 1.53 4.39 2.08 6.54 1.41Zm7.41-2.49.59-1.21.95.08c7.73.65 11.7-5.68 8.93-14.22-1.53-4.72-5.78-9.43-10.18-11.3l-.62-.27-.22-.78c-.52-1.8-1.32-3.18-2.54-4.38l-.74-.74-.29.15c-.16.08-.47.31-.69.51l-.4.36.25.2c.14.12.44.37.68.56 1 .83 2.08 2.65 2.33 3.94.25 1.32.14 1.17 1.29 1.69 8.99 4.03 13.8 15.79 8.6 21.02-1.69 1.7-4 2.3-7.04 1.84-.55-.08-1.01-.15-1.03-.15s-.13.21-.24.48c-.23.53-.54.9-.85 1.02-.16.07-.19.15-.16.43.04.39-.22.98-.72 1.62-.24.31-.27.37-.11.3.38-.16.81-.17 1.15-.02.45.18.38.26 1.06-1.13ZM28 37.5c3.41-.3 4.28-.52 4.6-1.2.28-.6.26-.64-.36-.5-3.7.83-8.05.88-12.48.14-1.67-.28-1.63-.29-1.45.21.26.72.3.73 2.77 1.1 2.2.33 4.87.43 6.92.25Zm-16.4-1.25c-5.4-1.16-7.79-6.99-5.63-13.7C7.44 18 11 13.88 15.57 11.47l1.16-.62.22-.8c.41-1.57 1.16-2.85 2.33-3.97 1.04-1.01 1.09-.82.05.25-1.24 1.28-1.93 2.53-2.24 4.06l-.13.63-1.1.55c-4.46 2.24-8.32 6.62-9.69 10.98-1.79 5.7-.32 10.99 3.57 12.84 1.75.84 4.62 1.05 6.1.45.14-.05.17-.03.14.07-.13.39-3.07.63-4.38.34Zm16.65-.15c1.1-.1 3.46-.5 4.4-.73.54-.14.84-.51.69-.85-.06-.14-.08-.14-.11.06-.08.43-1.06.71-4.13 1.14-3.37.47-10.91-.2-11.21-1-.06-.17-.13-.22-.2-.15-.2.2.07.61.48.73 2.53.71 7.08 1.07 10.08.8Zm-.59-.5c1.4-.11 4.87-.66 5.16-.81.39-.21.21-.45-.59-.78-.43-.18-.93-.41-1.11-.52-.31-.18-.37-.18-1.75-.02-2.01.22-5.91.22-7.59-.01-1.03-.14-1.31-.15-1.5-.05-.79.43 6.26.71 9.04.36 1.56-.19 1.86-.21 1.72-.08-.62.59-10.18.57-10.92-.02-.09-.07-.32-.01-.8.21-.37.17-.79.36-.94.41-.48.18-.36.46.24.59 3.06.67 6.33.93 9.04.72Zm-12.96-.71c4.63-.57 7.87-2.64 10.23-6.54.66-1.1.7-1.1 1.27-.09 2.17 3.87 6.19 6.35 10.85 6.69 7.52.56 10.12-7.84 4.88-15.8-4.04-6.13-10.72-9.05-18.88-8.26-7.42.72-13.47 5.48-15.89 12.5-2.36 6.82 1.22 12.29 7.54 11.5Zm-2.26-.69c-4.13-.51-6.22-4.66-4.88-9.67 1.62-6.08 6.58-10.87 12.93-12.48 1.73-.44 4.6-.71 4.76-.45.08.13.62.13.7 0 .26-.42 4.69.28 6.8 1.07 8.54 3.18 13.91 13.66 9.89 19.29-2.64 3.7-10.32 2.68-14.26-1.89-1.01-1.17-2.67-4-2.68-4.54 0-.07-.04-.13-.1-.13-.05 0-.1.06-.1.13 0 .25-1.12 2.43-1.68 3.27-2.42 3.63-7.21 5.91-11.38 5.4Zm2.71-.31c4.33-.6 7.73-3.18 9.65-7.35.28-.6.55-1.17.6-1.26.07-.13.03-.43-.15-1.05-1-3.42-1.19-7.33-.55-10.79.12-.6.23-1.24.27-1.42.07-.38-.01-.39-1.65-.22-5.7.61-10.42 3.44-13.38 8.01-2.53 3.91-3.22 8.16-1.79 11.06 1.23 2.48 3.58 3.5 7 3.02Zm24.29-.09c3.82-.98 5.24-5.1 3.55-10.3-1.72-5.28-6.14-9.46-11.66-11.04-1.76-.5-5.13-.94-5.13-.66 0 .06.09.64.2 1.28.65 3.84.49 7.7-.46 11.05-.29 1.03-.32.88.68 2.85 1.61 3.18 3.86 5.2 7.03 6.32 1.91.67 4.32.88 5.79.5Zm-27.39-.25c-3.37-.61-5.09-4.38-3.97-8.67 1.62-6.19 6.71-11.05 12.98-12.37.92-.2 3.45-.53 3.51-.47.02.02-.06.54-.16 1.17-.63 3.71-.52 7 .34 10.41l.34 1.36-.25.63c-2.27 5.59-7.59 8.89-12.79 7.94Zm24.4.08c-4.69-.61-8-3.19-10.01-7.82l-.36-.84.31-1.26c.8-3.32.93-6.98.35-10.59-.2-1.23-.29-1.12.86-1.01 6.28.61 11.24 3.82 14.04 9.09 3.78 7.14 1.23 13.26-5.19 12.43Zm-7.67-.47c1.59-.17 1.52-.13.94-.57l-.47-.35-.8.07c-1.1.1-4.85.1-5.7 0-.7-.09-.7-.09-1.24.27l-.54.37.36.07c1.4.29 5.32.36 7.45.14Zm-11.58-.47c.35-.11.95-.35 1.34-.52l.71-.32-.6-.06c-.33-.04-2.51-.07-4.84-.08l-4.25-.01.3.31c.16.17.52.44.79.6l.5.29h2.71c2.47 0 2.76-.02 3.34-.21Zm23.13.05c.18-.09.52-.33.76-.52l.45-.36-.35-.08c-.31-.07-9.19-.09-9.19-.01 0 .07 1.26.65 1.92.88.95.32 5.82.39 6.41.09Zm-11.75-.84c.11-.06-.89-.09-2.97-.1-3.04 0-3.86.08-2.18.22 1.13.09 4.95 0 5.15-.12Zm-7.87-1.13c.41-.35.98-.9 1.28-1.23l.54-.59-2.49-.06c-5-.14-11.64-.1-11.71.06-.08.23.33 1.45.66 1.98l.31.47h10.67zm7.15.21c-.2-.24-.66-.82-1.02-1.29l-.65-.87-.67.03c-.4.01-.68.07-.7.14-.06.17-1.18 1.67-1.31 1.75-.05.04-.2.2-.31.36l-.21.3h5.24zm14.36-.13c.28-.5.74-1.82.66-1.9-.09-.09-9.23-.15-11.63-.08l-2.59.08.64.69c.36.38.94.93 1.3 1.23l.64.53 5.36-.02 5.35-.03zm3.53-2.97c.23-3.48-1.39-8.07-3.99-11.28-1.88-2.33-5.5-4.96-7.49-5.45-.19-.05-.27-.14-.27-.29 0-1.19-1.12-3.37-2.44-4.73-.8-.84-.72-.99.11-.21 1.08 1.03 1.97 2.57 2.39 4.12.11.44.27.83.35.87.08.05.61.3 1.19.57 4.18 1.97 7.62 5.7 9.23 10.02.89 2.39 1.34 5.22 1.11 6.94-.13.89-.26.49-.19-.56Zm-22.61.17.36-.55H8.07l.07.38c.03.2.06.45.06.55 0 .16.41.17 7.29.17h7.28zm19.64.49c.19-.06.22-.13.22-.55v-.49H27.7l.36.55.37.55h7.06c3.88 0 7.16-.03 7.29-.06Zm-18.65-2.31c.25-.54.49-1.1.52-1.25l.07-.28-4.58-.01-4.89-.02c-.16 0-1.75 0-3.52.01l-3.21.02-.12.53c-.06.28-.14.85-.17 1.25l-.06.72h15.5zm18.87.75c0-.31-.19-1.44-.31-1.9l-.1-.38H26.48l.07.27c.08.32.69 1.68.91 2.01l.14.22H43zM24.5 24.3c0-.05-.05-.29-.12-.53l-.11-.44-2.16-.06c-2.79-.09-10.19-.09-11.84 0-1.42.07-1.38.04-1.54.85l-.05.28h7.91c5.13 0 7.91-.03 7.91-.1Zm18 .04c0-.04-.08-.28-.17-.54l-.17-.48-2.81-.07c-3.12-.08-12.3-.03-12.4.07-.03.03-.12.29-.2.57l-.13.51h7.94c4.37 0 7.94-.03 7.94-.06ZM25.93 22.7c.48-2.47.63-5.66.37-7.75-.31-2.52-.41-2.95-.7-2.95-.23 0-.29.06-.34.33-.72 3.49-.72 7.31-.01 10.42.14.6.25 1.18.25 1.29 0 .5.19-.1.43-1.34Zm-1.83.13c0-.09-.07-.55-.15-1.02-.09-.47-.18-1.01-.21-1.19l-.05-.32H10.5l-.26.42c-.34.54-1.04 1.98-1.04 2.15 0 .11 1.4.13 7.45.13 6.9 0 7.45-.01 7.45-.17Zm17.85-.05c-.04-.13-.33-.72-.64-1.33l-.56-1.1-6.66-.03-6.66-.02-.16 1.02c-.09.57-.19 1.18-.23 1.36l-.06.32h15.03zm-18.29-3.16c-.03-.2-.06-.45-.06-.55 0-.19-11.52-.27-12.02-.08-.13.05-.38.29-.56.55l-.33.46h13.04zm16.74.32c0-.13-.61-.92-.75-.98-.23-.09-11.88-.07-12.01.02-.06.04-.14.28-.18.55l-.07.47h6.5c3.58 0 6.51-.03 6.51-.06Zm-16.78-2.58.03-1.24-1.55-.04c-.85-.02-2.98-.02-4.72 0l-3.18.05-.69.61c-.38.33-.95.89-1.26 1.24l-.57.62h11.91zm15.46.73c-.24-.27-.81-.84-1.27-1.25l-.84-.74H27.5v2.5h12.01zM23.7 15.43c0-.16.03-.38.06-.5l.06-.23h-7.49l-.64.41c-.35.23-.68.45-.73.5-.06.05 1.71.09 4.32.09h4.42zm12.55.18c-.06-.05-.39-.27-.74-.5l-.64-.41H27.4v1h4.47c2.64 0 4.43-.04 4.38-.09Zm-12.41-1.49c.18-.88.27-1.55.22-1.6-.07-.07-1.71.14-2.76.34-1.12.22-2.57.69-3.51 1.13l-.84.39 3.42.01 3.41.01zm10.09.22c.09-.09-.77-.48-1.97-.9-1.81-.63-5.07-1.17-4.93-.82.03.09.11.52.17.97l.12.81h3.27c1.8 0 3.31-.03 3.34-.06Zm-15.26-2.79c.16-.04.23-.17.28-.48 1.13-6.9 11.42-7.2 13.03-.38.15.66.62 1.14.87.89.14-.14-.37-1.92-.78-2.74-.64-1.25-2.16-2.81-2.64-2.69-.39.09-.27-.18.35-.76.81-.78 1.16-.96 2.1-1.1.85-.14.96-.23.62-.54-.62-.56-2.89.43-3.7 1.63-.37.54-.78.77-.45.24 1.08-1.69 3.64-2.85 4.34-1.96l.21.27v-.26c0-1.1-3.3-.14-4.25 1.23-.24.35-.33.41-.54.36-.15-.03-.6-.13-1.01-.22-.95-.2-2.74-.14-3.72.14l-.67.19-.28-.4c-.98-1.42-4.34-2.43-4.33-1.3l.01.28.15-.27c.37-.69 2.51-.12 3.55.95.59.61 1.04 1.27.85 1.27-.08 0-.24-.15-.36-.34-.35-.58-1.35-1.43-1.93-1.64-.99-.37-1.97-.41-1.97-.07 0 .08-.06.15-.12.15-.33.01.23.18.77.24.79.09 1.55.47 2.05 1.03.51.58.5.75-.02 1.11-1.51 1.04-2.52 2.78-2.92 5-.06.35-.09.34.51.17Zm.69-.23c.06-.04.19-.34.29-.67 1.67-5.86 9.9-5.93 11.7-.11.22.71.45.98.45.53 0-.87-.79-2.37-1.74-3.32-3.34-3.33-9.19-1.95-10.64 2.5-.36 1.1-.37 1.28-.06 1.07Zm1.8-.42c2.83-.49 7.89-.4 9.77.16.16.05.18.02.12-.18-.04-.12-.09-.31-.11-.4-.05-.17-.4-.18-5.44-.18h-5.38l-.06.24c-.03.13-.09.31-.12.4-.08.2-.19.2 1.22-.04Zm9.32-1.52c-.13-.23-.49-.7-.82-1.05l-.58-.63H22l-.45.41c-.45.41-1.15 1.38-1.15 1.58 0 .08 1.53.11 5.16.11h5.15zm-2.26-2.1c-.81-.79-4.98-.78-5.47.02-.03.05 1.21.08 2.74.07 1.54-.01 2.77-.05 2.73-.09ZM24.76 4.7c1-.1 2.34 0 3.02.24.39.14.41.14.57-.1.09-.14.34-.43.55-.64l.39-.39-.78-.25c-2.05-.65-4.44-.61-6.39.1l-.43.16.58.62.58.62.5-.13c.27-.07.91-.17 1.41-.23Zm-1.96-.69c0-.12.83-.3 1.89-.41 1.27-.14 3.61.13 3.61.4 0 .12.09.13-.8-.06-.96-.2-2.84-.2-3.81.01-.87.18-.89.18-.89.06Z"/></svg>