<svg xmlns="http://www.w3.org/2000/svg" width="51" height="51" viewBox="0 0 51 51"><path fill="#fff" fill-rule="evenodd" stroke="#fff" stroke-width=".448" d="M19.53 43.9c-2.8-.59-2.66-5.23.18-5.69 1.58-.26 2.76.6 2.87 2.09l.05.7h-1.62c-1.8 0-1.72-.04-1.5.74.25.89 1.3 1.25 2.35.81.7-.29.85.07.26.62-.68.64-1.67.92-2.59.73Zm4.62.05c-.06-.02-.22-.06-.37-.09-.37-.08-.88-.54-1.05-.93-.41-1 .95-2.32 2.41-2.33.42 0 .49-.14.43-.79-.09-1.04-.66-1.28-.98-.42-.19.53-.41.71-.89.71-1.16 0-1.04-1.3.17-1.76.91-.35 2.49-.23 3.04.23.52.44.59.74.59 2.61v1.7l.48.15c.73.25.72.3.72-3.1v-2.92l-.29-.15c-.28-.15-.45-.41-.37-.55.07-.1 2.22-.35 2.41-.28.13.06.15.5.15 3.57 0 1.92.04 3.5.08 3.5.18 0 .51.41.45.56-.05.13-.3.15-1.77.15-.94-.01-1.99.02-2.33.05-.53.05-.68.03-1-.16l-.37-.22-.35.2c-.35.19-.96.34-1.16.27Zm8.5-.04c-.97-.24-1.05-.45-1.05-2.8v-1.9l-.32-.03c-.54-.05-.47-.31.2-.76.35-.24.74-.63.97-.97.35-.5.42-.56.69-.53.31.03.31.03.34.7l.03.68.64-.03c.76-.03.83.03.62.48-.16.34-.19.35-.72.35h-.55l.02 1.83.03 1.82h.63c.5 0 .66.04.77.19.31.41.35.07.35-2.93v-2.97l-.3-.22c-.3-.23-.41-.62-.17-.62.06-.01.57-.07 1.13-.14 1.34-.16 1.24-.27 1.24 1.3 0 .74.01 1.34.03 1.34s.23-.1.48-.22c.34-.18.61-.23 1.21-.23 1.37 0 1.6.47 1.57 3.23-.01.9 0 1.64.02 1.65l.24.13c.11.06.2.2.2.3 0 .25-2.89.35-2.98.11-.07-.18.02-.31.3-.46.32-.17.36-3.36.05-3.64-.22-.2-.51-.22-.87-.05l-.25.11v1.7c0 1.7 0 1.7.26 1.94.45.42.3.48-1.25.51-.88.01-1.48-.01-1.56-.08s-.24-.06-.51.04c-.55.19-1.14.26-1.49.17Zm-22.73-.33c.02-.13.15-.29.31-.36l.27-.13v-5.68l-.3-.16c-.21-.11-.3-.23-.3-.4v-.25l1.68.02c1.64.03 1.67.03 1.7.25.03.17-.04.26-.25.35-.41.18-.43.23-.43 1.46v1.13l.98-.03.97-.03.03-1.16.03-1.15-.36-.17c-.28-.13-.36-.22-.33-.4.03-.22.05-.22 1.68-.22h1.65v.25c0 .17-.08.29-.27.38l-.28.13v5.64l.3.17c.18.1.3.25.3.38 0 .19-.05.2-1.71.2h-1.7l.03-.22c.02-.12.14-.28.28-.35.34-.17.38-.34.39-1.55l.01-1.08h-2v1.15c0 .79.04 1.17.13 1.25.06.05.23.18.36.28.55.42.27.52-1.54.52H9.89zm11.3-.12c.19-.09.5-.3.69-.46l.34-.3-.44.15c-1.4.48-2.34 0-2.62-1.32-.16-.81-.11-.83 1.73-.83h1.48l-.06-.42c-.36-2.35-3.58-2.5-4.4-.21-.81 2.27 1.22 4.36 3.28 3.39Zm4.09-.1.4-.27.3.26c.35.29 1.07.33 1.69.11l.35-.13-.33-.07c-.47-.11-.52-.33-.52-2.22 0-2.36-.18-2.59-2-2.59-1.4 0-2.33.54-2 1.16.25.45 1.01.22 1.14-.36.11-.45.24-.55.72-.55.65 0 .82.39.76 1.71-.02.36-.03.37-.49.44-1.87.28-2.83 1.19-2.26 2.16.41.7 1.46.86 2.24.35Zm8.92.05c.58-.25.63-.46.08-.37-.5.08-.97-.09-1.05-.37-.08-.29-.07-2.92 0-3.39l.07-.38h.51c.47 0 .76-.12.76-.32 0-.04-.3-.08-.67-.1l-.68-.03-.03-.62c-.03-.71-.21-.84-.46-.35-.2.39-.91 1.08-1.27 1.24l-.3.13.28.05.28.05.05 2c.03 1.4.09 2.07.18 2.23.31.54 1.29.64 2.25.23ZM12 43.53c.86-.06.91-.07.66-.2l-.26-.14V40.3h2.4v2.89l-.32.18c-.45.24-.2.27 1.32.18 1.07-.07 1.12-.08.87-.21l-.27-.15v-2.87c0-3.02.01-3.06.45-3.3.15-.09-.15-.11-1.25-.11-1.34 0-1.42.01-1.12.14l.32.14V40h-2.4v-2.81l.33-.14c.29-.13.2-.14-1.13-.14-1.06 0-1.38.03-1.2.1.13.06.28.15.32.22.14.22.1 5.85-.04 5.97-.07.06-.22.17-.33.25-.24.17.13.19 1.65.08Zm18.34-.03c.48 0 .49-.01.26-.13l-.25-.13-.03-3.48-.02-3.49-.83.08c-.98.08-1.19.16-.82.33l.25.12v6.39l-.3.16c-.46.24-.36.28.47.21.42-.03.99-.06 1.27-.06Zm6.55 0c.45 0 .45 0 .22-.17l-.24-.16.05-1.85c.06-2 .03-1.93.69-2.13.44-.14.87.03 1.06.41.25.5.18 3.57-.09 3.72-.25.14.4.25 1.57.26.48.01.49 0 .28-.15-.23-.15-.23-.2-.23-2.09 0-1.06-.04-2.04-.09-2.17-.29-.76-1.26-.91-2.4-.37-.35.17-.66.28-.69.25-.03-.02-.04-.65-.03-1.39s-.01-1.36-.06-1.39c-.1-.05-1.75.12-1.83.19-.02.03.06.14.2.24l.25.19.03 3.11.03 3.1-.36.21c-.5.3-.45.33.42.25.42-.03.97-.06 1.22-.06Zm-12.34-.65c-.68-.67-.09-1.75.95-1.75h.3v.84c0 .97-.11 1.16-.66 1.16-.24 0-.43-.08-.59-.25Zm.95-.24c.05-.11.1-.42.1-.7 0-.5-.01-.51-.29-.51-.46 0-.76.31-.76.79 0 .59.69.89.95.42Zm-6.34-2.58C19.39 38.18 21 38.15 21 40v.5h-1.9zm1.58-.2c-.22-1.3-1-1.27-1.29.05l-.07.32h1.43zm-10.72-7.95c-.34-.34-.15-.97.56-1.82 2.07-2.45 6.17-7.86 6.86-9.03l.48-.83h2.46l.16.73c.09.39.47 1.72.85 2.95l.68 2.23.28-.37.29-.37-.82-2.46c-.45-1.36-.82-2.52-.82-2.59 0-.1.33-.12 1.41-.1l1.42.03.41 1.42c.22.78.44 1.44.47 1.48.06.05 1.05-1.25 1.88-2.47l.32-.48H28c.6 0 1.11.04 1.14.08.03.05-.78 1.13-1.79 2.4-1.02 1.27-1.85 2.37-1.85 2.45s.05.28.11.45l.11.32 1.45-1.88c.8-1.03 1.74-2.31 2.1-2.84l.65-.98h2.37l.11.42c.53 2.09 1.69 5.86 2.75 8.95.42 1.23.73 2.27.7 2.33-.04.06-.64.1-1.49.1h-1.44l-.25-1.02c-.14-.57-.47-1.67-.72-2.45l-.46-1.43h-4.45l-.32.45-.31.45.39 1.12c.21.62.52 1.49.69 1.93.17.43.27.83.23.87-.05.05-.71.07-1.48.06l-1.39-.03-.2-.62c-.24-.78-.23-.78-.75.02l-.43.66-1.16-.03-1.16-.03-.17-.64c-.09-.35-.18-.65-.2-.67-.02-.01-.23.29-.48.67l-.45.69h-1.07c-.6 0-1.09-.04-1.13-.1-.03-.05.44-.72 1.06-1.47.62-.76 1.17-1.44 1.22-1.51.07-.08.02-.41-.14-.98l-.24-.84-2.24.02-2.24.03-1.51 1.96c-.83 1.08-1.66 2.17-1.83 2.43l-.33.46h-.63c-.36 0-.68-.05-.75-.12Zm1.78-.9c.29-.4 1.13-1.51 1.87-2.46l1.35-1.72 2.36.02 2.36.03.27.85c.15.47.28.93.28 1.02.01.17-1.3 1.9-1.97 2.61l-.36.37h1.73l.51-.75c.63-.94.72-.94.97-.02l.19.72 1.01.03 1.01.03.47-.76c.58-.93.66-.93.95 0l.24.75h1.19c1.09 0 1.19-.02 1.14-.17-.03-.1-.29-.81-.57-1.58-.7-1.89-.71-1.93-.26-2.6l.36-.55h4.77l.53 1.62c.28.88.61 1.99.73 2.45l.22.83h2.44l-.7-2.02c-.79-2.29-1.92-5.88-2.46-7.85l-.37-1.33h-2.01l-.62.94c-.34.51-1.11 1.55-1.7 2.31s-1.27 1.63-1.51 1.94-.48.56-.54.56c-.11 0-.46-.85-.47-1.16-.01-.13.61-.95 3.21-4.21l.3-.38h-1.69l-.35.53c-.57.84-1.95 2.68-2.04 2.7-.04.01-.29-.7-.55-1.58l-.46-1.6-1.18-.03c-1.09-.02-1.17-.01-1.1.15.2.49 1.55 4.59 1.55 4.71 0 .19-.8 1.14-.92 1.1-.11-.04-1.35-4.01-1.64-5.24l-.18-.74h-2.07l-.37.61c-.83 1.36-4.44 6.13-6.61 8.73-.8.96-.91 1.14-.91 1.48v.38h1.08zm11.15-1.3c-.03-.07-.16-.46-.3-.87l-.25-.74.35-.47c.65-.88.63-.89 1.05.31l.23.67-.47.61c-.5.65-.54.68-.61.49Zm.59-1.73c-.21-.65-.26-.67-.59-.17-.27.41-.27.37.1 1.41.04.1.15.01.36-.27l.3-.41zM16.1 25.6c0-.12 2.2-3.1 2.29-3.1.06 0 .82 2.86.81 3.08 0 .16-3.1.18-3.1.02Zm11.95 0c-.04-.06.38-.7.93-1.43.54-.73 1.04-1.42 1.11-1.55.06-.12.15-.22.19-.22.07 0 .82 2.72.86 3.1.01.19-2.98.28-3.09.1Zm-9.15-.25c0-.03-.09-.37-.19-.77-.11-.4-.25-.92-.31-1.16l-.11-.43-.56.78c-.31.43-.72.97-.91 1.21l-.34.42h1.21c.66 0 1.21-.02 1.21-.05Zm11.9-.05c0-.08-.29-1.2-.56-2.18-.02-.07-.4.36-.85.95s-.86 1.14-.92 1.21c-.07.09.16.12 1.12.12.74 0 1.21-.04 1.21-.1Zm-3.25-6c-.09-.15-.47.37 6.78-9.32l4.99-6.68h.94c.83 0 .94.02.94.18 0 .09-1.13 1.68-2.5 3.52-1.38 1.84-3.56 4.77-4.85 6.5a545 545 0 0 1-3.38 4.5l-1.03 1.35-.91.03c-.55.02-.94-.01-.98-.08Zm6.37-6.35c2.52-3.35 5.11-6.83 5.78-7.72l1.2-1.63h-1.47l-1.7 2.28c-7.59 10.16-9.7 12.99-9.77 13.1-.06.1.08.12.66.1l.73-.03z"/></svg>