<svg xmlns="http://www.w3.org/2000/svg" width="51" height="51" viewBox="0 0 51 51"><path fill="#fff" fill-rule="evenodd" stroke="#fff" stroke-width=".791" d="M27.15 42.84c-4.91-.75-8.73-3.2-10.84-6.96-.27-.47-.43-.63-.97-.93-6.62-3.7-9.01-12.92-5.07-19.56 5.53-9.32 19.21-9.37 24.63-.08.35.58.48.71 1.17 1.11 2.07 1.21 4.19 3.52 5.35 5.83 1.64 3.25 1.93 7.32.77 10.78-1.6 4.82-5.51 8.37-10.48 9.54-1.04.24-3.71.4-4.56.27Zm3.6-.29c4.56-.74 8.41-3.57 10.49-7.72 1.86-3.7 1.95-8.11.25-11.98-1.05-2.41-3.27-4.95-5.4-6.18-.58-.34-.63-.34-.45.02.09.16.27.59.41.96.22.6.37.8 1.19 1.59 3.16 3.09 4.58 7.19 3.92 11.36-1.11 7.03-7.94 11.84-14.91 10.49-2.79-.53-5.61-2.13-7.2-4.08-.44-.53-.59-.65-1.25-.9-.41-.16-.92-.37-1.14-.46l-.38-.16.22.38c2.88 4.81 8.77 7.57 14.25 6.68Zm.05-1.61c3.88-.69 7.3-3.29 9.05-6.88 2.04-4.18 1.58-9.22-1.18-12.91-.54-.73-2.07-2.38-2.14-2.31-.02.02.06.5.17 1.07.45 2.15.26 5-.46 7.18-2.32 7.01-9.35 11.07-16.58 9.56-.38-.08-.72-.13-.74-.1-.02.02.36.44.84.93 2.83 2.85 7.02 4.16 11.04 3.46Zm-6.65-4.24c10.96-1.24 16.34-13.82 9.7-22.65-4.1-5.44-11.93-7.09-18.01-3.8-7 3.8-9.39 12.73-5.29 19.7 2.73 4.62 8.23 7.35 13.6 6.75Z"/></svg>