<svg xmlns="http://www.w3.org/2000/svg" width="51" height="51" viewBox="0 0 51 51"><path fill="#fff" fill-rule="evenodd" stroke="#fff" stroke-width=".769" d="M16.05 41.5c-5.45-.83-8.63-6.61-6.4-11.64 1.17-2.64 4.12-4.69 6.89-4.79l.71-.02.06.95a7.65 7.65 0 0 0 4.25 6.36l.94.46v.58c0 1.21.45 3.01 1.04 4.17.35.71.36.7-.46 1.5-1.97 1.9-4.57 2.8-7.03 2.43Zm15.67-.21c-3.61-.64-6.42-3.52-6.95-7.1-.14-.97-.16-.94 1.02-1.02 3.02-.19 5.56-1.97 6.76-4.72l.34-.8.94-.12c1.31-.17 2.17-.38 3.2-.79 1.04-.42 1.02-.42 1.89.58 2.76 3.15 3.03 7.23.71 10.64-1.61 2.36-5.12 3.84-7.91 3.33Zm-12.99-.13c1.45-.28 3.08-1.16 4.24-2.29.57-.55.58-.63.22-1.43a11 11 0 0 1-.88-3.41c-.05-.58-.11-1.06-.13-1.07-.02-.02-.38-.2-.82-.42-2.43-1.2-4.06-3.66-4.32-6.53l-.07-.74-.61.06c-3.39.33-6.31 2.94-7.01 6.26-1.18 5.61 3.76 10.64 9.38 9.57Zm16.67-.45c5.74-1.95 7.41-8.93 3.19-13.35l-.66-.7-.81.32c-1.01.4-2.24.7-3.19.79-.87.07-.84.05-1.12.73-1.14 2.72-3.66 4.55-6.75 4.91l-1.06.13v.36c0 1.08.74 2.94 1.61 4.03 2.17 2.73 5.67 3.84 8.79 2.78ZM24.34 29.89c-3.44-.59-4.86-4.81-2.45-7.28 2.84-2.91 7.7-.82 7.49 3.23-.13 2.59-2.51 4.5-5.04 4.05Zm2.39-.56c2.67-1.26 3.27-4.71 1.15-6.69-2.38-2.23-6.31-.95-6.9 2.26-.59 3.15 2.83 5.79 5.75 4.43Zm5.93-3.55c-.03-.18-.07-.64-.1-1.03-.17-2.47-2.12-5.13-4.48-6.1l-.45-.19-.11-1.25c-.14-1.5-.38-2.45-.92-3.51-.49-.98-.5-.9.08-1.52 1.62-1.74 3.51-2.53 6.02-2.53 1.67 0 2.28.13 3.57.74 7.1 3.39 5.73 13.92-2.01 15.52-1.35.28-1.54.26-1.6-.13Zm2.08-.24c7.05-1.79 8.06-11.64 1.51-14.84-3.05-1.5-6.26-1.07-8.9 1.17-.93.79-.94.82-.45 1.85.49 1.06.79 2.24.87 3.51l.06.98.67.34c2.46 1.24 4.17 3.78 4.37 6.51l.06.8.59-.08c.33-.04.88-.15 1.22-.24Zm-23-1.88c-3.1-3.24-3.3-8.03-.47-11.38 2.3-2.73 6.42-3.63 9.71-2.12 2.66 1.22 4.59 3.92 4.79 6.72l.06.82h-.74c-3.35.02-6.38 2.08-7.38 5.03l-.18.52-1.09.06c-1.2.07-2.12.27-3.22.7-.91.36-.76.4-1.48-.35Zm1.86-.05c.97-.34 2.36-.61 3.19-.61h.57l.17-.53c.83-2.64 3.61-4.63 6.97-4.99.58-.06 1.06-.12 1.08-.14.02-.01-.02-.37-.08-.79-.48-3.15-2.59-5.59-5.7-6.57-.98-.3-3.26-.33-4.3-.05-4.81 1.28-7.33 6.63-5.25 11.14.57 1.24 2 3 2.34 2.89.09-.02.54-.18 1.01-.35Z"/></svg>