<svg xmlns="http://www.w3.org/2000/svg" width="51" height="51" viewBox="0 0 51 51"><path fill="#fff" fill-rule="evenodd" stroke="#fff" stroke-width=".355" d="M4.4 45.53c-.14-.02-.39-.06-.56-.08-.43-.07-1.1-.68-1.39-1.26l-.25-.48V17.92l.28-.53C2.95 16.48 3.77 16 4.85 16h.5l-.03-.62c-.08-1.3.18-1.59 1.99-2.27 3.41-1.29 8.17-1.85 11.34-1.33 2.18.36 4.7 1.08 6.28 1.8l.67.31 1.83-.98c1.65-.89 9.58-5.08 12.52-6.62 1.69-.89 1.55-1.14 1.55 2.76 0 2.52.03 3.26.12 3.29 3.68 1.09 4.31 1.52 4.3 2.92l-.01.74h.4c1.03 0 1.96.55 2.38 1.43.28.58.34 25.87.06 26.54-.24.57-.61 1-1.13 1.3l-.47.28-21.25.01c-11.69.01-21.36-.01-21.5-.03Zm42.98-.42c.43-.22.83-.63 1.06-1.08.14-.29.16-1.55.16-13.26V17.83l-.23-.44c-.38-.72-.93-1.03-1.88-1.08l-.79-.03v12.79c0 11.41-.02 12.81-.16 13.01l-.15.22H25.6c-17.85 0-19.8-.02-19.94-.16s-.16-1.46-.16-13V16.3l-.27-.01c-1.51-.05-2.48.56-2.72 1.73-.22 1.07-.1 25.55.13 26.01.23.48.71.96 1.11 1.13.56.25 43.15.2 43.63-.05ZM25.4 41.56c0-.66.02-.65-1.42-1.2-5.77-2.23-10.06-2.28-16.5-.19l-1.78.57v.56c0 .87-.89.8 9.97.8h9.73zm19.84.48c.12-.05.16-.21.16-.7v-.63l-1.42-.46c-6.82-2.2-12.17-2.07-17.5.4l-.78.36v1.09h9.69c5.33 0 9.76-.03 9.85-.06ZM29.35 39.3c4.67-1.36 8.98-1.17 14.54.65.75.25 1.41.45 1.44.45.04 0 .07-5.41.07-12.03 0-10.88.02-12.05.16-12.25.3-.43.16-1.68-.23-2.02-.34-.3-1.91-.95-3.23-1.33l-.85-.25V9.26c0-2.27-.03-3.26-.11-3.26-.06 0-.6.26-1.2.59-.6.32-3.63 1.92-6.74 3.56-3.11 1.63-6.07 3.2-6.58 3.48l-.92.51v26.54l1.31-.54c.72-.3 1.78-.68 2.34-.84ZM25.4 27.35V14.1l-.37-.19c-5.11-2.58-13.09-2.67-18.48-.21-.93.42-.98.51-.92 1.67.02.54.05 6.37.06 12.95 0 7.83.04 11.99.11 12.03.05.03.92-.21 1.92-.54 6.24-2.03 11.75-1.84 17.12.6.22.1.44.19.49.19.04 0 .07-5.96.07-13.25Zm2.15 8.86c-.53-.22-.73-.87-.43-1.33.1-.15.72-.5 1.69-.95.85-.39 2.94-1.38 4.64-2.19 3.61-1.72 3.99-1.79 4.2-.85.13.61-.04.77-1.67 1.55-.84.4-2.93 1.41-4.63 2.24-3.25 1.57-3.47 1.66-3.8 1.53Zm13.17-.5c-2.39-.63-2.39-.62-.69-1.36l1.12-.48.85.17c1.4.28 1.84.69 1.61 1.47-.25.82-.44.83-2.89.2Zm-32.75.19c-.88-.69-.34-1.36 1.43-1.81 1.57-.38 2.1-.25 2.1.53 0 .65-.12.73-1.85 1.19-1.31.34-1.35.35-1.68.09Zm22.98-1.31c1.6-.77 3.62-1.75 4.5-2.16 1.81-.86 1.95-.95 1.95-1.34 0-.88-.24-.82-4.14 1.03-1.88.88-3.92 1.85-4.55 2.14-1.58.73-1.83 1.02-1.31 1.54.33.33.54.26 3.55-1.21Zm12.27 1.14c.21-.19.25-.85.05-1.01-.55-.46-2.08-.6-2.84-.26-.32.14-.74.33-.93.41l-.35.16 1.6.42c1.79.48 2.2.52 2.47.28Zm-33.78-.12c.39-.11.9-.25 1.13-.31.7-.18.93-.61.56-1.02-.21-.24-.48-.23-1.73.07-1.28.32-1.5.44-1.5.88 0 .62.35.7 1.54.38Zm32.46-2.6-.75-.17-.03-.92c-.03-1.08-.09-1.04 1.21-.71 1.02.26 1.27.47 1.27 1.06 0 .87-.39 1.04-1.7.74Zm-34.06-.15c-.66-.56-.3-1.24.85-1.6 3.93-1.24 9.21-1.29 13.27-.11 1.36.39 1.54.53 1.54 1.19 0 .77-.64.93-2.15.51-3.54-.99-7.38-1.02-11.24-.09-1.7.4-1.91.41-2.27.1Zm2.04-.32c4.03-.97 7.5-.97 11.3.02 1.54.4 1.65.41 1.92.14.5-.5.17-.92-1.01-1.26-4.19-1.22-9.51-1.19-13.39.08-.96.31-1.19.69-.7 1.18.25.25.16.26 1.88-.16Zm33.42.17c.32-.6.05-.97-.9-1.21-1.13-.3-1.1-.31-1.1.45v.64l.38.1c.65.17.76.19 1.14.2.27.01.4-.04.48-.18Zm-16.07-.45c-.21-.19-.28-.33-.28-.64 0-.68-.33-.49 6.29-3.62 1.76-.83 3.3-1.53 3.42-1.56.53-.13 1.14.55 1 1.11-.1.39-.25.48-2.62 1.61-7.52 3.61-7.31 3.53-7.81 3.1Zm5.41-2.23c5.05-2.41 4.76-2.25 4.76-2.66 0-.96-.33-.9-3.83.76-1.66.79-3.69 1.75-4.5 2.12-1.83.86-2.16 1.17-1.79 1.71.33.5.02.61 5.36-1.93Zm9.21.08-.7-.16-.03-.98c-.03-1.19-.05-1.18 1.2-.82 1.27.37 1.57.73 1.28 1.61-.19.58-.51.64-1.75.35Zm-34.06-.2c-.33-.34-.39-.82-.14-1.19.64-.91 8.77-1.91 9.62-1.18.23.2.28.32.28.71 0 .73-.22.85-1.51.85-1.9 0-4.78.38-6.86.91-.99.25-1.04.24-1.39-.1Zm12.98-.15c-1.78-.48-2.02-.63-2-1.23.03-.89.7-1.01 2.76-.49 1.59.4 2.09.76 1.94 1.38-.21.84-.66.89-2.7.34Zm22.47.12c.47-.67.15-1.17-.95-1.47-1.04-.29-.99-.32-.99.54v.74l.38.1c.2.05.53.14.72.19.54.15.68.14.84-.1ZM9.38 29.7c1.9-.48 4.34-.8 6.24-.81 1.44-.01 1.68-.1 1.68-.64 0-.73-.42-.83-2.85-.67-3.82.25-6.54.89-6.71 1.57-.18.7.36.88 1.64.55Zm13.66.01c.27-.3.18-.83-.17-.99-1.09-.52-3.5-.89-3.73-.58-.47.65-.22.85 1.61 1.34 1.72.46 2.05.5 2.29.23Zm4.23-1.21c-.56-.44-.39-1.23.34-1.57.24-.12 1.79-.85 3.44-1.63 6.14-2.91 5.93-2.84 6.39-2.29.7.83.4 1.1-3.09 2.75-6.88 3.24-6.58 3.13-7.08 2.74Zm3.32-1.25c1.46-.69 3.58-1.7 4.71-2.23l2.05-.98.03-.41c.04-.53-.29-.81-.75-.65-.54.18-9.08 4.25-9.25 4.4-.39.33-.07 1.1.46 1.12.05 0 1.29-.56 2.75-1.25Zm11.61-.17c-.19-.05-.52-.14-.72-.19l-.38-.1v-.89c0-1.08-.02-1.07 1.12-.74 1.19.34 1.25.37 1.37.79.26.94-.34 1.43-1.39 1.13Zm1-.28c.28-.28.27-.85-.02-1.04-.2-.12-1.61-.56-1.81-.56-.1 0-.09 1.4.01 1.4.04 0 .39.09.77.2.88.24.81.24 1.05 0Zm-36.03-.77c-.18-.18-.07-9.69.11-9.86 1.41-1.28 7.09-2.75 9.55-2.48 3.05.34 7.45 1.92 7.63 2.74.06.28-.04 9.58-.1 9.65-.02.01-.45-.18-.97-.42-5.6-2.61-9.54-2.63-14.88-.1-1.19.57-1.24.58-1.34.47Zm3.69-1.69c4.45-1.49 8.31-1.14 12.86 1.17.21.11.4.19.43.19s.05-2.12.05-4.71v-4.7l-1.03-.48c-5.25-2.46-9.45-2.47-14.59-.04l-1.18.56v9.46l1.06-.51c.59-.27 1.66-.7 2.4-.94Zm16.4.35c-.34-.27-.36-.86-.03-1.23.12-.14 1.38-.79 2.87-1.49 1.46-.69 3.51-1.66 4.55-2.16 2.31-1.1 2.79-1.14 3.01-.24.17.67.23.63-5.45 3.35-4.27 2.04-4.5 2.12-4.95 1.77Zm1.67-.48c6-2.86 8.24-3.94 8.34-4.03.37-.31-.06-1.15-.52-1.04-.46.12-9.3 4.37-9.42 4.53-.19.25-.16.6.07.83.28.28.38.26 1.53-.29Zm13.47-.07c-.3-.08-.72-.19-.92-.25l-.38-.1v-.9c0-.68.03-.91.14-.95.21-.08 1.92.46 2.16.68.32.3.29 1.2-.06 1.47-.31.24-.23.24-.94.05Zm.9-.33c.34-.65.07-1.05-.93-1.36-1.13-.34-1.07-.36-1.07.45v.69l.38.1c.2.05.53.14.72.19.55.16.78.14.9-.07ZM9.19 22.57c-.6-.4-.84-1.29-.63-2.36.06-.3.09-.31.54-.31h.48l-.1.43c-.21.93.02 1.47.64 1.47.8 0 1.05-.46.93-1.76l-.07-.74h1.04l-.03 1.18c-.05 1.36-.22 1.78-.9 2.12-.55.29-1.45.27-1.9-.03Zm4.28.16c-.04-.03-.07-.25-.07-.48v-.42l.53-.06c.96-.11 1.19-.74.77-2.09-.28-.89-.28-.9.27-.86l.48.03.19.68.2.67h.97l-.16-.3c-.54-1.04.54-2.32 1.52-1.77.49.27.83 1.01.83 1.8v.38l.58-.03.57-.03.03-1.98.02-1.98.48.03.47.03.03 1.75c.04 3.16-.08 3.29-2.93 3.11-1.29-.09-2.48.12-2.56.43-.21.77-1.77 1.54-2.22 1.09Zm-2.57-.31c.19-.09.44-.31.56-.49.42-.62.44-2.43.03-2.43-.17 0-.19.08-.19.8 0 1.23-.36 1.8-1.14 1.8-.72 0-1.01-.43-.94-1.4.05-.76-.29-.88-.45-.15-.31 1.48.86 2.51 2.13 1.87Zm3.62.08c.44-.13.83-.56.99-1.1l.12-.4.96-.01c.53-.01 1.07-.04 1.21-.08.13-.04.54-.01.9.07 1.08.22 1.91.02 2.1-.51.21-.61.13-3.87-.1-3.87-.18 0-.2.07-.21.63-.01.34-.04 1.2-.08 1.92l-.06 1.3h-1.56l-.04-.62c-.05-.7-.22-1.12-.61-1.42-.96-.75-1.89.84-1.03 1.75.28.3.15.36-.76.32l-.67-.03-.22-.7c-.19-.62-.25-.7-.49-.73l-.26-.03.2.58c.51 1.43.11 2.43-.96 2.43-.32 0-.35.02-.35.3 0 .34.23.39.92.2Zm12.67-1.49c-.19-.2-.29-.4-.29-.6 0-.67.14-.78 2-1.68 8.52-4.14 8.06-3.95 8.54-3.47.25.26.3.43.26.94-.03.41-.22.52-3.7 2.21-6.75 3.26-6.31 3.09-6.81 2.6Zm14.71.05-.75-.22-.03-.88c-.04-1.12-.04-1.11 1.03-.8 1.35.38 1.63.65 1.49 1.42-.14.75-.5.85-1.74.48Zm-29.2-2.34v-2.48l-.3-.29c-.62-.59-.26-.84.79-.54.4.1.77.17.82.13.05-.03.17 0 .25.07.18.15-.04.44-.42.53l-.24.06v5h-.9zm9.1.03V16.3h.44c.6 0 .57-.13.49 2.54l-.06 2.36h-.87zm-8.4-.1c0-2.35 0-2.36.24-2.6l.24-.23-.7-.17c-.82-.2-.92-.15-.52.26l.29.3V21h.45zm9.1.1c0-2.12-.01-2.25-.18-2.25-.18 0-.19.15-.25 2.17-.06 2.33-.06 2.33.24 2.33.18 0 .19-.09.19-2.25Zm9.85.18c2.26-1.1 4.31-2.1 4.58-2.22.68-.33.78-1.07.18-1.37-.33-.17-.3-.18-5.36 2.28-4.74 2.31-4.78 2.33-4.54 2.94.26.71.46.64 5.14-1.63Zm10.95 1.88c.15-.29.12-.77-.05-.95-.13-.13-1.75-.69-1.82-.63-.04.05-.06 1.37-.02 1.41.29.29 1.75.42 1.89.17Zm-25.55-.84c-.5-.28-.66-.68-.4-.97.37-.41.82-.07.92.7.07.48-.04.54-.52.27ZM9.8 18.55v-.45h1v.9h-1zm32.2-.48-.85-.22-.03-.88c-.03-1.09-.04-1.08 1.27-.68 1.1.34 1.21.44 1.21 1.11 0 .85-.35.99-1.6.67Zm1.29-.39c.29-.51.08-.79-.84-1.1-1.1-.37-1.05-.39-1.05.4v.69l.63.15c.83.22 1.08.19 1.26-.14Zm-26.67-.7.03-.43h2v.8l-1.03.03-1.03.03zm10.66.13c-.41-.37-.45-.9-.07-1.25.13-.13 1.43-.8 2.89-1.49s3.51-1.66 4.55-2.16c1.05-.5 2.03-.91 2.18-.91.6 0 1.02.93.65 1.43-.18.23-9.45 4.67-9.77 4.67-.06 0-.25-.13-.43-.29Zm3.47-1.34c7.29-3.47 6.65-3.13 6.65-3.55 0-.34-.27-.62-.61-.62-.23 0-6.21 2.77-8.79 4.07-.86.44-1.08.92-.58 1.27.35.25.36.24 3.33-1.17Zm-.42-5.82c-.25-.11-.33-.2-.33-.4q0-.27.12-.21c.58.24.88.28 1.03.16.27-.22.17-.46-.26-.65-1.37-.62-.65-2.13.75-1.59.45.17.12.58-.34.43-.75-.27-.76.27-.01.66 1.29.65.37 2.18-.96 1.6ZM16.1 8.85V7.7h-.4c-.36 0-.4-.02-.4-.25V7.2h2.2v.25c0 .22-.04.25-.35.25h-.35V10h-.7zm1.7-.25V7.2h.3c.3 0 .3 0 .3.56v.55l.48-.03.47-.03.03-.52c.03-.51.04-.53.33-.53H20V10h-.6V8.8h-1V10h-.6zm2.72.02.03-1.37.88-.03.87-.03v.26c0 .24-.03.25-.55.25-.54 0-.55 0-.55.3 0 .29.02.3.45.3.41 0 .45.02.45.25s-.04.25-.45.25c-.45 0-.45 0-.45.35v.35h.55c.52 0 .55.01.55.25 0 .25-.01.25-.9.25h-.91zm3.18-.02V7.2h.85c.84 0 .85 0 .85.25 0 .24-.03.25-.55.25-.54 0-.55 0-.55.3 0 .29.02.3.45.3.41 0 .45.02.45.25s-.04.25-.45.25c-.45 0-.45 0-.45.35v.34l.58.03c.5.03.57.06.6.26.03.21.01.22-.87.22h-.91zm2.7.83c0-.49-.07-.7-.4-1.31-.48-.88-.48-.92-.1-.92.26 0 .33.07.56.52l.26.51.26-.49c.23-.41.32-.49.6-.52.4-.04.41-.07-.13.88-.38.68-.45.87-.45 1.35 0 .54 0 .55-.3.55s-.3 0-.3-.57Zm1.72-.81.03-1.37.83-.03c.82-.03.82-.03.82.23 0 .23-.03.25-.5.25-.72 0-.79.57-.07.62.66.05.69.48.03.48-.46 0-.46 0-.46.35v.35h.55c.52 0 .55.01.55.25 0 .25-.01.25-.9.25h-.91zM26.33 5.3c-1.52-.35-1.17-2.82.39-2.82.81 0 1.56.69 1.02.94-.22.1-.28.1-.32 0-.18-.55-1.02-.58-1.31-.05-.34.66-.02 1.43.59 1.43.49 0 .88-.41.48-.5-.16-.04-.24-.14-.26-.33-.03-.27-.03-.27.58-.27.54 0 .61.02.57.18-.03.09-.08.33-.11.53-.09.51-.42.79-1.16.94-.08.01-.3-.01-.47-.05Zm17.38-.01c-1.26-.26-1.29-2.37-.04-2.77 1.18-.38 2.07.71 1.63 2.02-.19.58-.87.9-1.59.75ZM2.4 3.89v-1.4l.47.03.48.03.31.88c.4 1.12.38 1.11.64.3.39-1.17.45-1.25.93-1.21l.42.03.03 1.38.03 1.37h-.72l.06-1.07.06-1.08-.42 1.08c-.56 1.46-.81 1.51-1.24.25-.41-1.23-.44-1.24-.45-.15v.97h-.6zm4.22 1.25c-.75-.52-.69-2.09.1-2.5 1.28-.66 2.51.54 1.94 1.9-.29.7-1.42 1.04-2.04.6Zm2.56.05c-.1-.05-.18-.22-.18-.36 0-.2.04-.24.18-.18 1.08.44 1.67-.11.61-.56-.61-.27-.83-.64-.66-1.12.23-.66 1.57-.72 1.57-.06 0 .26-.02.29-.19.19-.35-.18-.81-.13-.81.1 0 .14.14.26.5.41.78.33.93.87.41 1.4-.32.31-1.05.41-1.43.18Zm2.52-1.04V3h-.4c-.36 0-.4-.02-.4-.25V2.5h2.2v.25c0 .22-.04.25-.35.25h-.35v2.3h-.7zm3.01.89c-.71-.6-.57-2.05.24-2.42.69-.32 1.73 0 1.41.43-.12.16-.17.18-.27.07-.45-.43-1.19.08-1.19.82s.56 1.05 1.31.72c.11-.05.19-.01.23.11.21.53-1.16.75-1.73.27ZM17 5.03c-.68-.61-.57-1.98.2-2.38 1.31-.68 2.55.7 1.85 2.05-.33.65-1.49.83-2.05.33Zm2.7-1.14v-1.4l.47.03.47.03.31.87c.17.48.33.89.36.92s.2-.37.38-.89l.33-.95H23v2.8h-.59l-.03-1.06-.03-1.07-.39 1.07c-.55 1.49-.77 1.51-1.29.09l-.36-.98v.98l-.01.97h-.6zm3.8.01V2.5h.8c.79 0 .8 0 .8.25 0 .23-.03.25-.5.25-.49 0-.5.01-.5.29s.02.3.48.33c.74.05.77.48.03.48h-.51v.7h.55c.52 0 .55.01.55.25 0 .25-.01.25-.85.25h-.85zm5 0V2.5h.69c1.09 0 1.62.69 1 1.31-.19.19-.19.22-.05.38.09.1.22.39.3.64l.14.47h-.31c-.28-.01-.35-.07-.57-.53-.36-.74-.6-.75-.6-.03 0 .56 0 .56-.3.56h-.3zm2.9.25V3H31c-.36 0-.4-.02-.4-.25V2.5h1.1c1.1 0 1.1 0 1.1.24 0 .21-.05.25-.37.28l-.38.03.01 1.12.01 1.13h-.67zm1.1 1.04c0-.13.77-2.24.91-2.51.11-.2.63-.25.74-.08.09.15.95 2.52.95 2.62 0 .25-.62.06-.71-.22-.1-.28-.14-.3-.64-.3-.51 0-.54.01-.6.3-.07.3-.65.47-.65.19Zm2.9-1.29V2.5h.69c1.03 0 1.55.56 1.05 1.12-.16.17-.15.19.1.39.71.55.03 1.29-1.19 1.29h-.65zm2.45.1c-.08-1.44-.06-1.5.36-1.5h.29v2.3h.5c.47 0 .5.02.5.25 0 .25-.01.25-.79.25h-.78zm1.85-.1V2.5h.9c.89 0 .9 0 .9.25 0 .24-.03.25-.55.25-.54 0-.55 0-.55.3 0 .29.02.3.45.3.41 0 .45.02.45.25s-.04.25-.45.25c-.45 0-.45 0-.45.35v.35h.55c.52 0 .55.01.55.25 0 .25-.01.25-.9.25h-.9zm6.1 0V2.5h.38c.35 0 .4.04.72.58.18.31.42.71.52.87l.18.3V2.5h.6v2.81l-.37-.03c-.37-.03-.4-.06-.88-.98l-.5-.95-.03.98-.03.97h-.59zm-37.86.68c.22-.3.21-1.16-.01-1.4-.53-.59-1.32.03-1.2.95.09.69.85.97 1.21.45Zm10.46.07c.46-.55.15-1.65-.45-1.65-.67 0-1.03.95-.59 1.58.18.27.84.31 1.04.07Zm18.35-.2c0-.27-.03-.3-.37-.33-.38-.03-.38-.03-.38.33s0 .36.38.33c.34-.03.37-.06.37-.33Zm7.71.27c.35-.23.46-1.11.18-1.5-.21-.31-.87-.31-1.08 0-.54.77.19 1.98.9 1.5Zm-10.4-.77c-.09-.36-.26-.78-.3-.74-.02.02-.1.25-.19.52l-.16.47h.36c.32 0 .35-.02.29-.25Zm-4.33-.46c.16-.26.01-.49-.33-.49-.28 0-.3.03-.3.36 0 .39.41.48.63.13Zm6.92-.19c0-.21-.05-.26-.32-.28-.31-.03-.33-.01-.33.28s.02.31.33.28c.27-.02.32-.07.32-.28Z"/></svg>