<svg xmlns="http://www.w3.org/2000/svg" width="51" height="51" viewBox="0 0 51 51"><path fill="#fff" fill-rule="evenodd" stroke="#fff" stroke-width=".79" d="M21.17 42.83c-.12-.11-.08-8.42.03-8.64.14-.25 8.58-.3 8.79-.05.14.16.12 8.42-.02 8.64-.09.13-8.67.19-8.8.05Zm8.63-4.38V34.3h-8.4v8.3h8.4zm-8.63-12.72c-.04-.03-.07-1.95-.07-4.25V17.3h-8.38l-.07-.73c-.09-.98-.02-7.89.08-8.04.15-.23 25.66-.18 25.75.05s.09 8.32 0 8.54c-.07.17-.37.18-4.23.18H30.1v4.09c0 2.25-.03 4.16-.06 4.25-.06.17-8.71.26-8.87.09Zm8.63-4.38V17.2l.26-.1c.15-.06 1.89-.1 4.25-.1h3.99v-3.77c0-2.08-.03-3.95-.06-4.15l-.07-.38H12.9V17h4.09c2.25 0 4.16.03 4.25.06.14.05.16.52.16 4.25v4.19h8.4z"/></svg>