<svg xmlns="http://www.w3.org/2000/svg" width="51" height="51" viewBox="0 0 51 51"><path fill="#fff" fill-rule="evenodd" stroke="#fff" stroke-width=".538" d="M25.46 50.94c-.03-.09-.06-3.69-.06-8.01v-7.85l-1.02.04c-.67.02-1.13.09-1.32.19l-.28.16.31.22c.48.35.41.37-1.26.45-.87.04-1.78.11-2.03.15l-.45.07.49.08c1.35.22 1.3.76-.08.76-.22 0-1 .12-1.73.26l-1.32.27-2.3-.47c-1.27-.25-2.71-.49-3.21-.53-1.36-.09-1.36-.25-.03-.54 1.39-.3 1.66-.49.86-.63-.21-.04-.76-.18-1.23-.31s-1.11-.31-1.43-.4c-.73-.2-.75-.4-.05-.54 1.21-.24 1.31-.24 1.26-.1-.03.08-.3.19-.64.25-.32.06-.52.13-.44.16.38.13 2.49.68 2.83.74.81.14.45.73-.56.95l-.62.13.9.12c.5.07 1.46.25 2.15.39 2.51.53 2.33.52 3.92.22.79-.15 1.66-.28 1.93-.28l.5-.01-.73-.18c-1.66-.4-.58-.78 2.33-.81.68-.01.77-.03.61-.14-.55-.41.25-.86 1.66-.93l.98-.05v-.98c0-1.15.17-1.03-1.61-1.23-1.23-.14-1.39-.19-1.39-.4 0-.28 1.1-.55 2.22-.56h.78v-.7h-.5c-.54 0-.8-.23-.47-.42.25-.13.21-.22-.14-.35-.55-.21-.35-.47.44-.57l.67-.08v-.71l-.94.07c-1.05.07-2.43.43-1.74.45.35.01.57.14.4.25-.04.02-.36.02-.7-.01-1.43-.13-.01-.82 1.86-.91l1.12-.05v-.85l-1.02-.08c-.71-.06-1.03-.13-1.06-.23-.04-.11.14-.12 1.02-.06l1.06.07V26.3h-1.26c-1.76 0-1.72-.24.04-.28.7-.01 1.22-.07 1.22-.12 0-.06-1.35-.1-3.62-.1C10.49 25.8 0 25.67 0 25.52c0-.12 1.69-.13 12.7-.07l12.7.08v-1.61c0-1.77.05-1.66-.72-1.77-.61-.09-1.43.13-3.01.81-1.01.43-1.31.52-1.46.44-.41-.22-2.29.29-3.71 1l-.55.27-7.97.02C.62 24.71 0 24.7 0 24.55s.55-.17 6.88-.16c9.33.01 8.99.02 9.92-.42 1.53-.72 3.2-1.13 3.47-.86.08.08.42-.03 1.24-.39 1.86-.81 2.61-.98 3.52-.79l.37.08v-1.56l-.72-.04c-1.5-.1-1.89-.05-2.73.29-1.61.66-1.81.72-2.7.81-.78.09-1.06.18-2.15.69-1.84.86-3.5 1.39-4.72 1.52l-1 .1-.42-.29c-.77-.54-1.34-.83-1.67-.83-.18 0-.45-.1-.63-.24-.26-.19-.49-.25-1.21-.31-.5-.03-1.18-.16-1.51-.28-.56-.19-.66-.2-1.17-.07-.54.13-.58.12-1.12-.16l-.57-.28-.46.18c-.89.34-.97.33-1.43-.18-.23-.25-.59-.53-.8-.63-.42-.18-.56-.49-.16-.38.39.12.81.43 1.11.8.32.41.43.42 1.27.09l.46-.18.56.29c.54.27.58.27 1.14.16.5-.11.64-.1 1.03.04.4.15 1.5.32 2.21.34.14.01.43.12.63.26s.51.25.68.25c.31 0 1.14.42 1.76.89.36.26 1.73.22 2.77-.1l.4-.12-.45-.14c-.27-.09-.64-.12-.92-.08-.36.04-.57.01-.87-.15-.22-.11-.52-.2-.66-.2-.21 0-.29-.08-.45-.44-.17-.42-.21-.44-.67-.5-1.47-.17-1.4-.15-1.85-.68-.45-.54-.69-.59-1.44-.28-.35.15-1.29-.56-1.94-1.46-.18-.25-.41-.44-.57-.48s-1-.3-1.87-.58l-1.59-.52-.48.27c-.44.24-.49.25-.49.09 0-.12.17-.26.49-.42l.5-.23 1.73.56c.95.31 1.82.58 1.94.62.11.03.35.25.52.49s.59.67.92.96l.61.53.35-.16c.66-.32 1.27-.11 1.63.56.14.26.15.26 1.49.43.51.07.87.32.96.7.04.16.13.24.29.24.12 0 .4.09.61.21.31.16.49.19.86.14.34-.05.63-.01 1.1.15l.63.21.86-.32c.47-.17 1.26-.52 1.75-.76.75-.38 1.06-.47 1.9-.58.79-.1 1.3-.25 2.3-.65l1.29-.52 1.31.03 1.31.04.03-3.84c.02-3.62.01-3.83-.15-3.76-.3.11-.35.11-.4-.03-.03-.08.08-.18.26-.25l.31-.11V9.2c0-2.22-.03-2.99-.12-3.08-.1-.1-.1-.14-.01-.2.1-.06.13-.82.15-2.97.02-1.87.07-2.89.13-2.88.06.02.11.63.13 1.5l.02 1.48h1.13c1.26 0 1.85.21 2.57.9.37.36.79.47 2.28.61.46.04.81.13.94.24l.22.17-.21.12c-.44.23-1.85.34-4.35.35l-2.58.01v2.91l1 .12c2.1.25 2.15.73.1.95l-1.1.11v2.26h.55c.69 0 1.12.17 1.59.64.7.71.52.86-1.05.86H25.7v3.39c0 3.15.01 3.4.18 3.46.09.03.32.26.5.5.3.41.37.45.75.45.23 0 .51.07.61.15.11.08.36.15.55.15.28 0 .42.08.77.45.3.32.49.45.69.45.15 0 .42.09.6.2.29.18.38.19.77.09.38-.11.49-.09.91.09.73.32 2.77-.23 3.59-.97l.51-.46 1-.06c.99-.06 1.02-.07 2.19-.68.74-.38 1.38-.64 1.66-.68.26-.03.75-.21 1.1-.41.56-.31.69-.34 1.13-.29.66.08.81.01 1.8-.84 1.31-1.12 1.99-1.35 2.41-.79.49.67.94.37 2.55-1.67.93-1.18 1.23-1.48 1.23-1.27 0 .1-.98 1.4-1.78 2.36-1.02 1.24-1.56 1.47-2.09.88-.45-.51-1.01-.32-2.23.76-.91.81-1.19.94-1.86.87-.46-.05-.58-.01-1.16.31-.39.22-.78.36-.99.36-.22 0-.79.23-1.65.66-1.27.65-1.34.67-2.25.73-.94.06-.95.06-1.51.52-.39.32-.75.51-1.19.63-.35.1-1.31.37-2.12.62-2.08.62-2.69.62-3.91-.01-.49-.25-1.03-.45-1.2-.45-.18 0-.5-.13-.76-.3-.8-.53-.8-.54-.8 1.35v1.65h12.71c10.12 0 12.7.03 12.67.12-.04.1-2.69.14-12.71.16-8.33.01-12.67.05-12.67.12 0 .12-.09.12 13.88.1 10.82-.02 11.72 0 11.34.24-.04.03-4.35.05-9.58.06-8.97.01-12.19.06-11.66.19.37.09.25.26-.18.26-1.99-.03-2.3-.05-2.3-.2 0-.11.18-.15.83-.18.46-.01.14-.04-.75-.05l-1.58-.02v.59l1.5.03c2 .04 2 .22.01.26-1.13.02-1.5.06-1.54.16s.24.15 1.35.2c1.87.09 4.35-.02 4.42-.2.03-.09.22-.14.48-.14.28 0 .38-.03.29-.09-.18-.12-.04-.19.57-.27.29-.03.52-.1.52-.15 0-.21 1.87-.1 1.93.11.04.15.14.2.42.2.25 0 .35.04.32.12-.03.1-.38.12-1.43.1-1.01-.02-1.35 0-1.24.08.13.09.12.12-.04.25-.19.14-.19.15.07.15.15 0 .27.06.27.13 0 .09-.84.11-3.95.09l-3.95-.04v.36c0 .2.04.36.08.36.05 0 2.04.12 4.43.26s5.12.29 6.08.32c1.37.06 1.75.1 1.79.21.06.17-4.28.1-6.68-.09-.74-.07-2.33-.17-3.52-.23l-2.18-.12v.27c0 .26.02.27.68.3.37.02.67.07.67.13s-.3.11-.67.13l-.68.03v1.38c0 1.62-.09 1.51 1.27 1.51.71 0 .84.03.96.2.1.15.33.24.77.31 1.42.23 1.32.51-.3.83-.41.08-1.07.26-1.46.4-.81.29-.84.3-.84.15 0-.22 1.52-.72 2.84-.94.61-.1.39-.15-1.21-.25-.82-.05-1.62-.14-1.77-.19l-.26-.11v1.75l.88.28c1.46.46 2.91.59 3.47.31.29-.14.29-.14-.27-.1-.99.08-.9-.18.1-.3.67-.07.88.08.64.46-.1.16-.05.18.53.25 1.7.18.89.75-1.07.75-.39 0-.68.04-.68.1 0 .12-.3.11 4.44.13 4.68.02 5.1.24 1.52.77-1.46.22-1.85.19-4.86-.39-.85-.16-1.9-.33-2.33-.37-.67-.06-.98-.16-.86-.29.02-.02.94-.08 2.04-.15 1.91-.11 2.92-.3 1.58-.3-.59 0-.88-.12-.61-.24.07-.03-.05-.02-.27.02-.66.11-1.56.04-2.89-.23-.69-.14-1.28-.25-1.31-.25s-.05 3.53-.05 7.84c0 7.15-.04 8.33-.24 7.8Zm-9.21-7.6c-1.85-.44-1.62-.51 1.73-.56 3.05-.04 3.25.01 1.85.47-1.23.4-2.15.42-3.58.09Zm17.05-.56c-2.09-.2-2.2-.22-2.2-.38 0-.14.66-.12 2.83.09 1.89.18 2.04.21 1.92.4-.08.13-.11.13-2.55-.11Zm-11.85-.55c-.22-.02-.92-.13-1.56-.23-1.31-.22-2.57-.25-3.58-.09-.59.1-.81.09-1.67-.09-.54-.12-1.23-.24-1.52-.27-.28-.04-.52-.11-.52-.16 0-.16 1.02-.1 1.9.12.69.17.99.19 1.6.13.41-.05 1.03-.08 1.38-.07.34.01.62 0 .62-.03 0-.18-1.11-.54-1.67-.54-.6 0-.81-.11-.47-.24.42-.16 1.03-.05 1.85.35 1.21.59 2.55.81 5.11.83 1.9.02 2.29.07 1.98.26-.14.09-2.59.11-3.45.03Zm4.7-.03c-.11-.18.18-.2 2.09-.18 1.41.02 1.9.06 1.94.16.05.15-3.93.18-4.03.02Zm.82-1.52c-.29-.18.2-.26 1.82-.29 1.27-.03 1.75-.01 1.78.08.07.19-3.31.39-3.6.21Zm6.03.02c-.58-.04-1.2-.08-1.38-.09-.22-.01-.32-.06-.32-.17 0-.15.15-.16 1.43-.1 2.43.11 2.97.17 2.97.32 0 .16-.79.16-2.7.04Zm-12.87-.62c-.1-.17.07-.21 1.49-.3 2.33-.15 3.91-.06 3.62.21-.12.12-5.03.2-5.11.09Zm8.54-.75c-.2-.19.07-.23 1.53-.23 1.36 0 1.6.02 1.6.15 0 .16-2.98.24-3.13.08Zm-8.01-.74c-.93-.1-1.18-.17-1.13-.32.02-.07.11-.1.18-.07.08.03 1.19.05 2.48.05 1.7 0 2.35.03 2.38.12.07.2-2.65.36-3.91.22Zm-9.16-.2c-1.79-.23-1.9-.26-1.9-.44 0-.08.02-.15.05-.15s.92.11 1.97.25c1.32.17 2.39.25 3.45.25 1.29 0 1.53.02 1.53.15 0 .23-3.2.19-5.1-.06Zm15.48-.16c-.63-.1-.3-.33.45-.33 1.54 0 2.87.12 2.87.27 0 .13-2.55.18-3.32.06Zm8.61-1.03c1.35-.22 1.75-.37.72-.26-.35.03-1.63.06-2.85.07-2.22.01-2.33.06-.66.28 1.04.14 1.47.12 2.79-.09Zm3.78-.17c-.2-.2.12-.23 2.05-.21 1.58.02 2.12.06 2.16.16.04.13-4.08.19-4.21.05Zm-23.61-.32c-1.1-.13-.63-.31.83-.31 1.12 0 1.41.03 1.41.14 0 .23-1.06.31-2.24.17Zm17.46-1.06c-.04-.09-.31-.22-.59-.29-1.5-.4-1.79-1.21-.36-.98.49.07.4.22-.14.22-1.07 0-.23.09 1.87.19 3.82.19 5.1.39 4.53.7-.57.3-5.15.44-5.31.16Zm4.43-.23c.45-.09-1.38-.27-3.65-.37-.69-.03-1.41-.08-1.6-.1-.28-.03-.26-.01.15.11l.9.29c.44.15 3.48.2 4.2.07Zm-2.6-1.02c-.28-.11-.69-.2-.93-.2-.31 0-.42-.04-.4-.12.05-.15 3.54-.23 3.77-.09.65.42-1.49.78-2.44.41Zm6.55-.07c-.19-.02-.99-.07-1.78-.11-1.62-.08-1.96-.26-.57-.3 1.6-.04 3.09.1 3.13.31.04.18 0 .18-.78.1Zm-24.93-.3c-.4-.03-.57-.08-.54-.16.03-.11 4.04-.12 4.16-.02.24.23-1.47.31-3.62.18Zm-6.47-.22c0-.12.47-.19 1.85-.26 2.21-.11 2.18-.2-.1-.35-2.33-.16-2.85-.32-2.16-.66.18-.09.02-.12-.88-.16-1.16-.05-1.46-.16-1.36-.49.04-.11.03-.19-.02-.19-3.1-.11-4.06-.23-4.01-.48s2.76-.77 2.96-.57c.13.13-.22.23-1.22.34-1.54.19-1.44.27.41.35 1.99.08 2.13.1 2.13.42s.04.33 1.2.39c1.56.08 2.24.34 1.29.49-.64.1-.46.14 1.25.25 3.66.25 4.1.6 1.08.86-2.12.17-2.42.18-2.42.06Zm5.35-.67c-.99-.16-1.38-.45-.8-.6.78-.19 3.75.05 3.75.31 0 .24-2.02.44-2.95.29Zm16.22-.01c-.2-.19.12-.23 2.13-.23 1.89 0 2.2.02 2.2.15 0 .16-4.18.24-4.33.08Zm5.15-.25c.06-.16 4.88-.19 4.88-.03 0 .06-.9.11-2.46.13-1.95.02-2.45 0-2.42-.1Zm-11.52-.76v-.38l-.87.09c-.49.04-1.08.14-1.33.21l-.45.13.6.07c.33.05.83.11 1.1.16.94.15.95.14.95-.28Zm1.92.01c-1.08-.03-1.42-.07-1.39-.16.05-.16 3.18-.22 3.47-.07.3.16.15.3-.28.28-.2-.01-1.01-.04-1.8-.05Zm10.26.02c-.17-.18.09-.25.95-.25.51 0 1.8-.05 2.87-.1 4.34-.23 6.08-.66 2.8-.69-1.52-.01-2.32-.1-2.23-.24.08-.13 3.89 0 4.15.14.44.24.13.5-.82.69-1.41.29-7.54.65-7.72.45Zm-5.47-.62c-.28-.04-.32-.08-.29-.28l.05-.23-1.9-.08c-1.37-.07-1.92-.13-1.95-.21-.03-.1.63-.13 3.06-.13 1.7 0 3.3-.03 3.56-.06.38-.06.46-.04.46.09 0 .18-.07.2-1.35.4l-.9.14 2.18.02c1.7.01 2.18.04 2.15.14-.07.19-3.86.34-5.07.2Zm-16.94-.2c-.82-.06-.71-.27.16-.31.37-.02.67-.07.67-.12 0-.11 2.15-.13 2.98-.04.81.1.65.29-.37.42-.83.11-2.11.13-3.44.05Zm-4.02-.73c-.1-.17.09-.18 3.23-.23 2.27-.04 3.02-.02 2.99.06-.08.25-6.07.41-6.22.17Zm-4.55-.28c0-.14.22-.21.88-.29l.57-.07-.45-.07c-.25-.04-.74-.08-1.1-.08-1.19-.02-1.39-.21-.7-.67.37-.25.39-.28.23-.4-.29-.22.09-.44.74-.44.56 0 .76.2.21.21-.5.01-.79.14-.5.21.34.09.26.22-.3.49l-.53.26.95.07c2.59.2 3.4.45 2 .62-.52.06-1.19.15-1.48.19-.33.05-.52.04-.52-.03Zm28.75-.02c-.11-.05-.56-.09-1-.1-.74-.02-1.43-.14-1.2-.21.06-.02-.53-.06-1.29-.09-.99-.03-1.41-.09-1.44-.17-.04-.15 2.83-.19 2.92-.04.08.12 1.25.2 4.42.3 2.72.08 3.11.12 2.99.32-.08.11-5.13.11-5.4-.01Zm8.09-.15c.11-.08.26-.15.33-.15s.13-.04.13-.09c0-.12-.72-.19-2.68-.27-1.13-.05-1.62-.1-1.59-.18.09-.26 4.26-.02 4.55.27.18.19-.28.57-.67.57-.25-.01-.25-.01-.07-.15Zm-26.09-.02c-1.28-.06-1.85-.15-1.85-.27 0-.09-.32-.15-1.16-.19-1.23-.07-1.3-.09-1.19-.28.11-.17 2.26-.03 2.41.16.1.13 2.94.29 6.63.38.65.01.96.06.99.15.03.11-3.83.15-5.83.05Zm-.6-.8c-.22-.01-.74-.08-1.15-.14s-2.21-.16-3.99-.23c-2.62-.09-3.25-.14-3.29-.25-.04-.12.4-.13 2.92-.08 2.5.04 3.26.02 4.79-.14 2.18-.22 3.21-.25 3.15-.06-.04.1-1.85.33-3.03.36-.23.01-.27.04-.15.11.08.05 1.09.1 2.32.1 1.76 0 2.18.03 2.18.13 0 .21-2.25.33-3.75.2Zm14.5-.68c-.71-.07-1.4-.13-1.52-.14-.14-.01-.23-.07-.23-.17 0-.14.12-.15 1-.09.91.06 1 .06 1-.1 0-.19.51-.18 3.15.06.61.06 2.19.14 3.53.18 2.22.07 2.85.16 2.54.35-.1.06-5.18-.1-6.55-.21-.63-.05-.77-.03-.75.08.04.19-.53.2-2.17.04Zm-28.84-.06c-.93-.08-1.31-.22-.98-.35.09-.03.78-.01 1.55.05.76.06 1.48.11 1.6.11.13 0 .22.06.22.15 0 .17-.76.18-2.39.04Zm9.69-.33c0-.1.25-.14.99-.19 1.13-.06 1.94-.37.98-.37-.35 0-.47-.04-.47-.15s.11-.15.37-.15c.2 0 .33-.03.3-.07-.16-.16.19-.33.67-.33.78 0 1.25-.1 1.2-.25-.06-.15 1.72-.33 2.03-.2.26.09-.1.35-.49.35-.19 0-.26.04-.22.14.07.17-.35.26-1.4.27-.95.02-1.3.09-1.34.28-.02.1.07.12.4.07.24-.04.81-.11 1.28-.15.47-.05 1.09-.12 1.39-.17.59-.08.73.16.15.27-.16.03.86.03 2.26.01 2.5-.03 2.92.01 2.75.28-.05.09-.25.1-.66.06-.99-.11-6.23.14-6.32.3-.12.2-3.87.21-3.87 0Zm-5.36-.27c-.1-.16 0-.2.73-.28l.68-.08-.65-.02c-.69-.01-1.02-.13-.85-.3.12-.12 2.85.08 2.85.21 0 .04.32.08.7.08.53 0 .7.03.7.14s-.32.15-1.57.2c-.87.03-1.79.08-2.05.11-.26.02-.5-.01-.54-.06Zm32.79.04c-.13-.02-.23-.12-.23-.2 0-.14.13-.15 1.07-.1.58.04 1.26.07 1.5.07.32 0 .43.04.43.15 0 .15-2.11.21-2.77.08ZM9.05 27.01c-.13-.22.41-.31 1.92-.31 1.55 0 1.93.06 1.79.29-.09.14-3.62.15-3.71.02Zm29.2-.12c-.13-.21.09-.24 1.65-.24s1.78.03 1.65.24c-.09.15-3.21.15-3.3 0Zm-17.29-.08c-1.63-.1-1.41-.31.31-.3 1.81.02 2.75.11 2.81.27.04.13-1.09.14-3.12.03ZM5.25 26.3c-2.86-.03-5.21-.06-5.22-.08-.22-.19.47-.22 5.15-.21 6.18.02 8.34.09 8.4.27.03.09-.32.11-1.55.1-.87-.02-3.92-.05-6.78-.08Zm26.25-3.07c.33-.09.6-.2.6-.24 0-.15-.73-.22-1.07-.1-.29.11-.38.1-.67-.08a1.4 1.4 0 0 0-.67-.21c-.27 0-.41-.09-.75-.45-.34-.37-.47-.45-.76-.45-.2 0-.41-.07-.48-.15-.08-.1-.3-.15-.61-.15-.47 0-.5-.02-.86-.5-.49-.66-.53-.64-.53.24 0 .74 0 .74.29.81.16.03.43.17.62.31.19.13.47.24.65.24s.7.2 1.2.45c1.03.52 1.9.6 3.04.28Zm-15.1-3.57c-1.25-.33-2-1.3-2-2.58.01-2.83 3.87-3.69 5.06-1.13.93 1.99-.96 4.27-3.06 3.71Zm17.05.05c-2.16-.57-2.77-3.38-1.05-4.83l.35-.3-.45.08c-.56.11-4.24.07-4.65-.04-.6-.17-.19-.72.54-.72.11 0 .38-.18.61-.4.65-.63 1.51-.66 2.77-.12 1.07.46 2.11.5 2.49.1.43-.46 1.19-.78 1.84-.78.3 0 .77-.07 1.04-.15.86-.26 1.35-.2 2.23.27.43.22 1.36.58 2.07.79 1.25.37 1.56.53 1.36.73-.11.11-3.54.14-4.95.06-.6-.04-.95 0-1.38.13l-.58.18.36.41c1.84 2.03.01 5.28-2.6 4.59Zm-15.86-.32c1.05-.24 1.83-1.2 1.84-2.27.02-2.07-2.36-3.19-3.93-1.84-1.92 1.64-.37 4.68 2.09 4.11Zm17.68-.17c.86-.44 1.42-1.55 1.28-2.5-.38-2.52-3.8-2.94-4.7-.59-.82 2.15 1.38 4.13 3.42 3.09ZM5.21 18.2c-.71-.15-.85-.54-.26-.73.17-.05.37-.16.46-.23.08-.08.34-.14.57-.14.22 0 .44-.04.47-.1.09-.15.58-.12.82.05.12.09.48.2.8.26s.74.18.93.27.63.19.98.22c.34.03.62.09.62.15 0 .19-4.64.41-5.39.25Zm10.16-.17c-.16-.03-.26-.1-.24-.16.09-.28 3.67-.19 3.67.09 0 .14-2.62.19-3.43.07Zm-7.02-.12.7-.06-.72-.18c-.4-.09-.78-.17-.86-.17s-.2-.07-.27-.15c-.14-.17-.56-.2-.65-.05-.04.06-.24.1-.45.08-.24-.01-.44.04-.55.15-.09.09-.25.17-.35.17-.33 0-.31.19.02.23.52.06 2.36.05 3.13-.02Zm23.99-.32c-.14-.23.25-.29 1.71-.26 1.26.02 1.5.04 1.5.17 0 .19-3.09.28-3.21.09Zm-11.37-.06c-.2-.19.12-.23 2.13-.23 1.89 0 2.2.02 2.2.15 0 .16-4.18.24-4.33.08Zm-10.9-.09c-.2-.2.1-.24 1.99-.24 1.6 0 2.05.03 2.02.12-.05.14-3.88.25-4.01.12Zm4.77-.05c-.13-.22.23-.29 1.63-.29 1.49 0 1.73.04 1.73.26 0 .18-3.25.21-3.36.03Zm32.71-1c-.9-.1-5.3-.3-6.57-.3-1.8.01-1.46-.19 1.27-.74l1.9-.38.85.21c.47.12 1.34.28 1.95.37 2.69.38 3.24 1.15.6.84Zm.76-.3c-.14-.05-.84-.18-1.58-.29-.73-.11-1.6-.27-1.93-.37-.6-.16-2.05-.03-2.85.27-.22.08 1.36.2 3.35.26.69.02 1.63.08 2.1.12 1.15.12 1.19.12.91.01Zm-28.36-.3c-.16-.25.21-.29 2.56-.27 2.09.03 2.44.05 2.44.18 0 .19-4.89.28-5 .09Zm-8.82-1.18c-1.31-.06-1.51-.1-1.38-.3.14-.23 3.95.01 3.95.25 0 .15-.12.16-2.57.05Zm25.07-.34c.61-.21.71-.22 3.58-.12 2.23.08 2.46.01 1.15-.33-.48-.13-1.25-.43-1.72-.68-.95-.49-1.36-.54-2.31-.29-.3.08-.78.15-1.05.15-.64.01-1.22.27-1.77.82l-.43.43.67.07c.37.03.75.11.85.17s.25.08.33.04c.08-.03.4-.15.7-.26Zm-4.2.13c1.58-.19 1.86-.34.77-.42-.38-.03-.92-.17-1.4-.36-1.2-.49-1.99-.42-2.54.21-.13.15-.38.29-.6.33-.72.13-.58.19.57.25 2.03.09 2.34.09 3.2-.01Zm-13.08-.12c.07-.21 5.68-.24 5.68-.03 0 .13-.37.15-2.86.15-2.24 0-2.85-.03-2.82-.12ZM6.75 13.6c-.27-.04-1.06-.09-1.75-.09-.7-.01-1.8-.1-2.5-.21-.69-.11-1.53-.2-1.88-.2H0v-.33c0-.55.91-1.16 1.71-1.17.36 0 .36 0 .54-.67.41-1.56.82-1.52 2.22.23l.31.39.54-.52c.69-.68.88-.68 1.31 0 .4.62.9 1.07 1.85 1.66.74.46.86.59.72.81-.1.17-1.68.23-2.45.1Zm2.99-.21c-.17-.28.16-.32 1.92-.23 1.27.06 1.79.13 1.82.22.05.16-3.63.18-3.74.01Zm-.9-.08c.04-.05-.29-.29-.72-.54-.79-.46-1.48-1.1-1.76-1.66-.22-.41-.3-.4-.92.19-.71.68-.63.71-1.78-.64-.66-.78-.84-.75-1.11.2-.25.88-.37 1.04-.84 1.04-.45 0-1.08.29-1.4.64l-.24.26h.54c.3 0 1.1.09 1.79.2.73.12 1.79.2 2.55.21.72 0 1.5.04 1.75.08.64.12 2.08.13 2.14.02Zm19.06-.39c0-.3-.89-.79-1.5-.82-.7-.04-.7-.04-.7.45V13h1.1c.61 0 1.1-.04 1.1-.08Zm-13.57-.29c-3.59-.03-4.13-.05-4.13-.18s.6-.15 4.92-.13c4.3.03 4.93.05 4.93.18 0 .17.26.17-5.72.13Zm.57-1.58c0-.13.49-.15 3.85-.15s3.85.02 3.85.15-.49.15-3.85.15-3.85-.02-3.85-.15Zm31.7-.76c-1.73-.1-3.62-.26-4.2-.36-1.43-.24-5.69-.17-8.38.14-.43.05-.52.03-.52-.09 0-.55 13.74-.93 15.75-.44.8.19 1.5.55 1.5.76s-.46.21-4.15-.01Zm3.27-.25c-.26-.26-1.37-.36-4.42-.39-3.58-.04-3.58.07.02.25 1.26.06 2.33.13 2.38.15.18.06 2.08.05 2.02-.01Zm-29.52-.15c-.13-.2.04-.21 2.21-.2 2.16.02 2.34.04 2.34.22 0 .13-4.47.12-4.55-.02ZM9.74 9.51c-.12-.12-.01-.21.25-.21.5 0 .44-.17-.11-.3-.41-.1-.71-.1-1.48 0-.8.11-1.25.1-2.61-.01-2.13-.18-4.09-.17-4.69.04l-.45.15.75.01c.82.01 1.2.08 1.2.22 0 .05-.58.09-1.3.09-1.32 0-1.45-.04-1.11-.34.65-.59 2.29-.76 4.85-.51 1.23.12 2.07.15 2.7.1 1.78-.14 2.17-.12 2.77.18l.56.27h2.49c2.31 0 2.91.06 2.7.27-.08.08-6.44.12-6.52.04Zm27.99-1.5c-.85-.07-1.15-.19-.91-.38.3-.23 2.94-.87 3.63-.88.5-.01.83-.07 1.15-.23.34-.16.64-.22 1.22-.22h.77l.43-.51c.39-.47.83-.79 1.07-.79.05 0 .31.19.58.41.75.66.94.71 2.02.53 1.76-.28 3.06.59 1.64 1.1-.3.1-.53.25-.53.33 0 .56-6.91.95-11.07.64ZM9.7 7.85c0-.13.39-.15 2.95-.15s2.95.02 2.95.15-.39.15-2.95.15-2.95-.02-2.95-.15Zm37.15-.24c1.53-.17 1.61-.19 1.73-.45.07-.15.25-.27.56-.36.99-.27.04-.79-1.13-.61-1.41.21-1.68.15-2.5-.53-.55-.47-.54-.47-1.26.29l-.63.65h-.78c-.63 0-.87.04-1.19.22-.3.17-.57.23-1.1.23-.45 0-1.09.11-1.8.3l-1.1.3.45.07c.69.1 7.63.01 8.75-.11Zm-18.6-.41c-.08-.13-.04-.14 1.45-.39.69-.11 1.54-.32 1.9-.47 1.08-.44 1.66-.43 3.06.04.65.22 1.46.46 1.79.53.33.08.6.19.6.24 0 .14-8.71.19-8.8.05Zm-9.85-.07c-.64-.05-.86-.19-.44-.28 1.2-.24 2.42-.62 3.11-.96.93-.46 1.86-.56 2.53-.27.55.24 1.63 1.09 1.52 1.2-.22.22-5.06.45-6.72.31Zm16.72-.28c-1.41-.61-2.29-.68-3.4-.26-.42.16-.84.31-.92.34s.93.06 2.25.06c2.18 0 2.37-.01 2.07-.14Zm-10.95-.11.52-.07-.42-.34c-.9-.72-1.9-.78-3.07-.18-.36.18-.95.41-1.3.5-.36.09-.67.19-.7.22-.06.07 4.26-.05 4.97-.13ZM2.11 6.2c-1-.09-1.22-.19-1.05-.48.21-.35 1.02-.65 1.93-.71l.86-.06.22-.8c.48-1.69.74-1.95 1.31-1.29.55.64 1.39.45 2.32-.51.97-1.01 1.67-.99 2.24.04.32.61.28.6.82.16.9-.74 1.47-.45 2.14 1.07l.33.76.71.28c.53.22.88.29 1.37.29.74 0 1.09.19 1.09.61 0 .27-.33.48-.61.41-.14-.04-.19 0-.19.15 0 .18-.04.19-.72.11-.87-.1-6.91-.11-9.78-.01-1.13.03-2.47.02-2.99-.02Zm8.69-.35c1.73 0 3.48.03 3.88.08.46.04.71.04.68-.02-.09-.14.15-.26.46-.22.22.02.28-.02.28-.17 0-.24-.32-.33-1.01-.31-.29.01-.74-.08-1.23-.26l-.77-.28-.43-.91c-.72-1.5-.99-1.62-1.9-.86-.61.51-.61.51-.92-.15-.52-1.08-.95-1.13-1.95-.19-1.12 1.05-1.96 1.24-2.59.59-.51-.53-.51-.53-.97 1.05-.29 1.02-.38 1.1-1.22 1.1-.69.01-1.68.28-1.64.45.04.18 1.21.23 3.73.16 1.35-.03 3.87-.06 5.6-.06Zm20.95-.84c.49-.07.49-.07-.5-.2-1.38-.17-1.67-.26-2-.62-.67-.7-2.05-1.06-3.19-.85l-.36.07v1.68l.48.04c.64.07 4.95-.03 5.57-.12Z"/></svg>