<svg xmlns="http://www.w3.org/2000/svg" width="51" height="51" viewBox="0 0 51 51"><path fill="#fff" fill-rule="evenodd" stroke="#fff" stroke-width=".762" d="M21.45 51C10.6 49.17 2.09 40.75.25 30.03c-.27-1.57-.3-1.82-.16-1.67.04.05.16.61.26 1.24 1.59 10.45 9.84 19.03 20.22 21.04 1.5.3 2.63.45 3.53.49.36.02.16.04-.45.04-.66.01-1.54-.06-2.2-.17Zm5.87.09c9.28-.66 17.09-5.95 21.24-14.37 1.16-2.36 1.71-4.18 2.4-7.97.06-.29.09-.34.11-.18.07.38-.37 2.72-.78 4.15-2.1 7.33-7.41 13.4-14.41 16.49-2.74 1.21-6.17 2-8.58 1.97l-1.05-.01zM15.04 40.71c-4.3-1.58-4.17-7.7.2-9.03.8-.24 2.25-.22 2.88.05.27.11.38.12.41.04.02-.07.05-1.85.06-3.97.02-3.05.05-3.88.15-3.98.15-.16 1.41-.42 1.99-.42.7 0 .68-.16.65 7.13l-.03 6.42-.26.67c-.55 1.41-1.31 2.25-2.59 2.87-.94.45-2.55.55-3.46.22Zm2.55-.16c1.61-.38 3.03-1.82 3.4-3.46.17-.71.14-13.1-.02-13.33-.14-.19-1.74.01-2.04.26-.1.08-.13 1.02-.13 4.14 0 2.25-.04 4.04-.09 4.04s-.24-.06-.43-.14c-1.64-.69-3.77-.21-4.98 1.11-2.98 3.26 0 8.39 4.29 7.38Zm11.39-3.91c-4.06-.98-5.01-6.35-1.53-8.6 1.29-.82 2.66-.94 4.43-.39l.22.07v-4.96c0-2.73-.02-4.96-.05-4.96-.02 0-1.56.32-3.42.7-12.84 2.68-11.93 2.52-12.5 2.15-.57-.38-.63-.63-.63-2.7 0-2.09.07-2.49.51-2.99.47-.54.6-.57 7.94-2.11 13.46-2.81 12.58-2.65 13.11-2.39.67.33.74.59.74 2.79 0 3.05-.15 3.28-2.57 3.94l-.43.12v7.48c0 4.56-.04 7.69-.1 8.02-.49 2.62-3.21 4.44-5.72 3.83Zm2.01-.25c1.52-.35 2.85-1.59 3.32-3.1.18-.57.19-1.03.19-8.28 0-5.99.03-7.71.12-7.82.07-.09.51-.26.98-.38 1.8-.46 1.9-.65 1.9-3.54 0-3.15.34-3.01-4.8-1.98-2.93.59-8.96 1.85-14.44 3.01-2.38.51-2.45.6-2.49 3.47-.02 2.19.02 2.42.55 2.69.44.23.74.18 5.54-.81 9.2-1.92 10.36-2.15 10.45-2.09.05.03.09 2.27.09 5.31 0 4.96-.01 5.25-.17 5.2-.1-.04-.45-.16-.78-.28-2.53-.93-5.4.79-5.87 3.49-.52 3.05 2.39 5.81 5.41 5.11ZM50.96 22.4c-.03-.19-.15-.91-.26-1.6-.98-5.96-4.65-11.88-9.75-15.69-3.4-2.55-8.16-4.48-12-4.87-.78-.08-.78-.18 0-.15 1.34.04 4.14.76 6.25 1.6 8.47 3.39 14.56 11.09 15.81 19.98.11.8.07 1.41-.05.73ZM.04 22.28c.54-3.36 1.25-5.69 2.45-8.09C6.47 6.27 13.89 1.03 22.55.04c1.12-.12.48.07-1.01.31C10.66 2.12 2.14 10.53.39 21.24c-.13.75-.26 1.36-.31 1.36s-.07-.15-.04-.32ZM9.63.03c2.02-.02 5.32-.02 7.35 0 2.02.01.36.02-3.68.02S7.6.04 9.63.03Zm25.3 0c2.24-.02 5.9-.02 8.15 0 2.24.01.4.02-4.08.02S32.68.04 34.93.03Z"/></svg>