<svg xmlns="http://www.w3.org/2000/svg" width="51" height="51" viewBox="0 0 51 51"><path fill="#fff" fill-rule="evenodd" stroke="#fff" stroke-width=".8" d="M11.64 36.27c-.05-.14.76-2.38 3.74-10.32.99-2.64 2.58-6.87 3.52-9.4.94-2.52 1.76-4.65 1.82-4.72.08-.1 1.12-.13 4.9-.13h4.79l.23.53c.63 1.42 8.97 23.89 8.92 24.02-.08.21-9.27.23-9.45.01-.06-.07-1.08-2.71-2.25-5.86-1.18-3.15-2.19-5.77-2.24-5.82-.1-.1-.18.1-2.68 6.82-.97 2.61-1.81 4.81-1.86 4.87-.16.19-9.36.19-9.44 0Zm9.24-.19c.05-.07.76-1.91 1.57-4.08s1.83-4.89 2.27-6.05C27.94 17.42 30 11.97 30 11.94c0-.02-2.04-.04-4.54-.04h-4.55l-.31.83c-.18.45-1.03 2.73-1.9 5.07s-2.2 5.89-2.95 7.9c-2.37 6.32-3.85 10.31-3.85 10.41 0 .15 8.85.12 8.98-.03Zm18.39-.1c-.08-.39-8.86-23.71-8.96-23.81-.05-.05-.15.09-.24.35-.08.24-.97 2.59-1.97 5.23-2.67 7.04-2.41 6.29-2.26 6.62.08.15.98 2.51 1.99 5.23 1.02 2.72 2 5.32 2.17 5.78l.32.82h9z"/></svg>