<svg xmlns="http://www.w3.org/2000/svg" width="51" height="51" viewBox="0 0 51 51"><path fill="#fff" fill-rule="evenodd" stroke="#fff" stroke-width=".726" d="M23.05 50.9C12.21 49.69 3.67 42.31.99 31.83-2.77 17.11 7.08 2.51 22.2.38c1.44-.2 5.74-.17 7.23.05 4.89.73 9.98 3.14 13.15 6.22 1.11 1.09 1.12 1.04-.98 3.19-.94.96-1.7 1.8-1.7 1.88s.16.3.36.49c.46.43 1.47 1.72 2.09 2.66l.48.73 1.66-1.7c2.33-2.39 2.45-2.38 3.85.4 3.39 6.78 3.54 14.93.39 21.85-1.04 2.27-1.48 2.85-2.18 2.85-.38 0-.46-.06-1.97-1.61-.87-.89-1.58-1.58-1.58-1.53s.42 1.69.94 3.64c1.23 4.68 1.3 4.95 1.22 5.24-.12.48-.38.51-1.56.21l-1.07-.28-.73.61c-3.25 2.73-7.82 4.76-12.3 5.47-1.23.19-5.22.28-6.45.15Zm5.11-.21c3.45-.33 7.03-1.48 10.07-3.21 1.77-1.02 4.07-2.72 3.9-2.89-.07-.07-4.96-1.44-6.06-1.7-.34-.08-.52-.03-1.85.55-5.19 2.24-9.86 2.53-14.8.91C7.16 40.31 1.99 25.52 9.07 14.75c6.7-10.17 21.24-12 29.96-3.76l.58.55 1.75-1.75c2.03-2.06 2.01-2.01 1.22-2.86-2.6-2.74-8.02-5.42-12.48-6.17C10.14-2.58-5.35 16.93 2.46 35.58c4.18 9.99 14.71 16.18 25.7 15.11Zm.34-5.75c1.75-.25 3.62-.81 5.45-1.62 2-.89.75-1.05 8.83 1.17 1 .28 1.89.48 1.97.45.36-.14.32-.33-1.41-6.87-.57-2.19-.66-2.62-.57-2.85.06-.15.34-.76.61-1.37 4.21-9.27.89-20.03-7.74-25.11C22.55 1.04 6.1 10.42 6.1 25.58c0 11.97 10.51 21.05 22.4 19.36Zm18.8-6.56c.42-.57 1.4-2.61 1.85-3.81 2.46-6.68 2.13-13.78-.94-20.02-1.37-2.79-1.35-2.79-3.62-.44l-1.66 1.72.58 1.21c1.35 2.81 1.84 5.08 1.83 8.46-.01 3.44-.58 6.02-1.94 8.82l-.5 1.02.78.81c2.76 2.83 2.57 2.65 2.96 2.65.31 0 .4-.06.66-.42ZM16.66 27.46c-1.97-.73-1.61-3.61.48-3.74 2.53-.16 2.81 3.48.29 3.83-.21.03-.55-.01-.77-.09Zm8.69.09c-.05-.02-.22-.06-.37-.09-1.55-.34-1.72-2.83-.23-3.58 1.77-.91 3.62 1.2 2.49 2.83-.35.51-1.45 1-1.89.84Zm8.24-.05c-1.07-.18-1.78-1.32-1.49-2.39.56-2.08 3.6-1.81 3.78.34.11 1.28-1 2.27-2.29 2.05Zm-15.3-.49c1.3-.93.63-3.1-.97-3.11-1.74-.01-2.37 2.19-.92 3.18.47.32 1.39.28 1.89-.07Zm8.1.15c1.63-.85 1.06-3.26-.76-3.26-1.7.01-2.36 2.22-.94 3.17.4.27 1.26.31 1.7.09Zm8.45-.1c1.51-.89.86-3.15-.9-3.16-1.07 0-1.87 1.01-1.64 2.07a1.697 1.697 0 0 0 2.54 1.09Z"/></svg>