<svg xmlns="http://www.w3.org/2000/svg" width="51" height="51" viewBox="0 0 51 51"><path fill="#fff" fill-rule="evenodd" stroke="#fff" stroke-width=".701" d="M23.4 45.09C12.41 43.75 4.72 33.94 6.14 23.1c.8-6.09 4.13-11.21 9.31-14.32 6.09-3.65 13.83-3.76 19.85-.26 12.77 7.41 13.31 25.38 1 33.51-3.67 2.42-8.59 3.59-12.9 3.06Zm4.11-.19c13.35-1.35 21.37-15.61 15.58-27.69C37.28 5.08 21.23 2.42 11.72 12 6.55 17.21 4.8 25.44 7.39 32.34c3.11 8.26 11.4 13.44 20.12 12.56Zm-3.56-1.47C12.92 42.48 5.44 31.61 8.36 20.8c1.62-5.98 6.34-10.72 12.39-12.44 10.8-3.06 21.73 4.5 22.67 15.7.93 11.05-8.39 20.33-19.47 19.37Zm3.2-.23c7.13-.67 13.06-5.42 15.23-12.21.97-3.01 1.1-6.75.36-9.71C40.14 10.89 28.95 5.21 18.96 9.2 7.29 13.87 4.18 29.13 13.09 38c3.9 3.88 8.79 5.69 14.06 5.2Zm-9.84-6.64c-.53-.19-1.11-.74-1.37-1.3l-.24-.51.01-9.15c0-9.86-.02-9.53.53-10.24.56-.74 1.15-.9 3.25-.9 2.16.01 2.55.08 3.17.66.76.7.84 1.07.84 3.94v2.45l1.93-.06c4.97-.17 6.72.25 8.33 1.99 1.52 1.64 1.74 2.56 1.74 7.41 0 4.54-.06 4.81-1.28 5.52l-.47.28-3.02.03-3.03.03v-3.55c0-1.95-.03-3.56-.08-3.58-.04-.02-.98-.02-2.09 0l-2.02.03-.03 2.67c-.04 3.26-.16 3.62-1.48 4.21-.54.25-4.06.3-4.69.07Zm4.75-.33c1.09-.58 1.24-1.1 1.24-4.4V29.3h4.6l.02 3.58.03 3.57h5.61l.49-.26c1.18-.6 1.28-1.05 1.23-5.77-.05-4.65-.24-5.38-1.83-6.98-1.51-1.52-2.37-1.74-6.87-1.74h-3.27l-.03-2.63c-.04-2.97-.09-3.21-.79-3.81-.57-.49-.95-.56-2.9-.56-2.08 0-2.39.07-3 .69-.73.72-.7.25-.67 10.38.03 9.98-.01 9.33.62 10.01.55.62 1.03.72 3.26.69 1.68-.03 1.89-.05 2.26-.24Zm-4.11-1.33c-.52-.21-.5.22-.53-9.14-.03-9.14-.03-9.05.28-9.36.39-.39 3.65-.27 3.92.14.04.06.08 1.56.08 3.32v3.22l4.08.04c5.02.06 5.58.19 6.79 1.63.98 1.17 1.12 1.8.53 2.36-.71.68-.8.69-6.42.69H21.7v3.32c-.01 3.59 0 3.57-.54 3.78-.32.12-2.92.13-3.21 0Zm11.5-.02c-.03-.07-.04-1.35-.03-2.83l.03-2.7 1.4-.06c1.5-.06 1.79-.11 2.37-.4.21-.11.4-.19.43-.19s.05 1.32.05 2.93c0 2.86-.01 2.94-.21 3.13-.27.25-3.95.36-4.04.12Zm-8.13-.35c.17-.15.18-.39.18-3.54v-3.38l5.23-.03c5.77-.04 5.59-.02 6.26-.69.35-.35.35-.41-.06-1.23-.32-.63-1.15-1.46-1.76-1.75-1-.48-1.26-.51-5.59-.51H21.5v-3.34c0-2.95-.02-3.35-.16-3.47-.25-.21-3.41-.2-3.54.01-.15.24-.13 17.83.02 17.98.2.2 3.27.16 3.5-.05Zm12.08-.02c.2-.38.13-5.44-.07-5.36-.47.18-1.32.35-1.74.35-.25 0-.8.03-1.22.06l-.77.07v5.07h1.85c1.72 0 1.85-.01 1.95-.19Z"/></svg>