<svg xmlns="http://www.w3.org/2000/svg" width="51" height="51" viewBox="0 0 51 51"><path fill="#fff" fill-rule="evenodd" stroke="#fff" stroke-width=".741" d="M11.05 44.6c-2.1-.42-3.88-2.06-4.4-4.07-.12-.45-.15-1.3-.15-4.1V32.9h1.39l.03 3.48c.03 3.39.04 3.48.28 4.09a4.5 4.5 0 0 0 2.5 2.55c.53.22.7.23 4.08.26l3.52.03v1.39l-3.42-.01c-1.89-.01-3.61-.05-3.83-.09Zm21.92.03c-.04-.03-.07-.35-.07-.69v-.63l3.48-.03c3.3-.03 3.5-.04 4.06-.25.81-.31 1.56-.91 2.05-1.63.73-1.1.75-1.22.79-5.07l.03-3.43h1.39v3.43c0 3.77-.03 4.06-.62 5.27-.66 1.36-2.39 2.67-3.96 2.99-.57.12-7.04.16-7.15.04Zm-16.35-.23h1.49l-.03-.42-.03-.43-3.5-.05c-3.87-.06-3.85-.06-4.91-.76-.61-.41-1.1-.96-1.44-1.64-.49-.97-.53-1.26-.57-4.72l-.05-3.28H6.7v3.13c0 4.22.19 5.12 1.37 6.38 1.38 1.49 3.32 2.03 6.47 1.83.32-.02 1.26-.04 2.08-.04Zm24.01-.24c1.83-.62 3.06-1.86 3.62-3.66.15-.47.18-1.02.19-3.98l.01-3.42h-.83l-.05 3.23c-.03 1.91-.1 3.4-.16 3.66-.35 1.34-1.27 2.48-2.49 3.08l-.76.38-3.48.03-3.48.03v.94l3.33-.01c3.31-.01 3.32-.01 4.1-.28ZM24.27 39.8c-8.06-4.48-11.58-11.51-11.33-22.6.08-3.64-.1-3.23 1.54-3.54 5.58-1.08 13.87-1.25 19.78-.41 2.08.3 3.64.61 3.78.75.19.19.14 7.02-.07 8.69-1.01 8.09-4.62 13.59-11.3 17.2-1.17.63-1.09.63-2.4-.09Zm2.55-.29c6.72-3.74 10.3-9.57 10.98-17.84.11-1.41.13-5.46.04-6.73l-.07-.81-.51-.11c-1.81-.4-4.68-.77-6.99-.93-2.07-.13-9.04-.07-10.72.11-1.52.15-5.09.67-5.7.82l-.5.13-.08.6c-.16 1.21-.01 7.27.21 8.65 1.28 7.8 4.51 12.61 10.8 16.11 1.3.72 1.24.72 2.54 0Zm-2.09-.8c-6.01-3.28-9.34-8.46-10.39-16.16-.21-1.56-.27-7.36-.08-7.55.06-.06.47-.17.9-.25 5.14-.89 12.27-1.09 17.54-.49 1.64.18 3.94.54 4.09.63.19.12.16 5.79-.04 7.56-.86 7.54-4.19 12.76-10.33 16.24-.89.5-.81.5-1.69.02Zm2.02-.51c7.12-4.35 9.95-10.22 9.95-20.66v-2.42l-.87-.16c-4.45-.81-11.26-1.02-16.29-.51-1.92.19-4.94.62-5.03.7-.12.13-.06 6.18.07 7.25.91 7.34 3.94 12.26 9.74 15.77 1.26.77 1.21.77 2.43.03ZM6.57 18.24c-.15-.16-.08-6.96.08-7.59.47-1.79 1.95-3.32 3.76-3.9.79-.25.84-.25 4.35-.25h3.54v1.4h-3.39c-4.34 0-4.93.16-6.13 1.68-.8 1-.82 1.13-.88 5.12l-.05 3.55-.6.03c-.34.02-.64 0-.68-.04Zm9.62-.21c-.16-.44-.11-1.21.09-1.27.25-.07 2.71-.34 4.47-.48 1.92-.15 7.33-.15 9.4.01 1.95.14 4.55.4 4.73.46.12.04.1.98-.03 1.4-.02.07-.48.05-1.4-.06-4.86-.61-11.57-.59-16.19.05l-.98.13zm27.18.21c-.04-.04-.07-1.48-.07-3.19 0-1.72-.05-3.37-.1-3.66-.25-1.32-1.19-2.51-2.47-3.12l-.68-.32-3.55-.05-3.55-.05-.03-.68-.03-.68 3.73.03c3.59.03 3.75.04 4.33.26a5.84 5.84 0 0 1 3.1 2.73c.61 1.16.66 1.56.63 5.36l-.03 3.38-.6.03c-.34.02-.64 0-.68-.04ZM7.6 15.08c0-4.17.21-5.02 1.5-6.21 1.23-1.15 1.81-1.27 5.92-1.27h3.08v-.91l-3.52.03c-4.25.04-4.81.18-6.2 1.51-1.48 1.43-1.61 1.93-1.66 6.25L6.68 18h.92zm10.2 2.72c4.98-.58 11.09-.56 15.82.04l.97.12.07-.43c.08-.57.13-.55-1.24-.69-4.95-.54-10.14-.57-14.97-.09-2.18.22-2.05.17-2.05.77 0 .49 0 .5.28.44.15-.03.65-.1 1.12-.16Zm26.6-3.18c0-4.35-.13-4.86-1.54-6.28-1.45-1.46-2.18-1.64-6.46-1.64h-3.2v.9h2.98c4.42 0 5.24.25 6.49 1.93.76 1.04.82 1.41.85 5.19l.03 3.28h.85z"/></svg>