<svg xmlns="http://www.w3.org/2000/svg" width="51" height="51" viewBox="0 0 51 51"><path fill="#fff" fill-rule="evenodd" stroke="#fff" stroke-width=".5" d="M34.55 36.65c-5.85-1.29-7.97-8.55-3.73-12.76 2.31-2.29 5.66-2.81 8.61-1.33l.67.34V11.45c0-7.57.03-11.45.1-11.45s.1 3.94.1 11.61c0 6.38-.03 11.59-.07 11.57-.05-.02-.46-.22-.93-.46-2.2-1.1-4.3-1.1-6.49-.01-4.15 2.09-5.35 7.54-2.44 11.14 3.72 4.59 10.8 3.26 12.8-2.4l.28-.8.03-15.32C43.49 5.39 43.54 0 43.6 0c.19 0 .13 29.76-.06 30.67-.86 4.16-4.94 6.87-8.99 5.98Zm-13.6-1.72c-5.4-.47-7.24-7.34-2.78-10.36 3.09-2.09 7.2-.78 8.52 2.73.29.78.36 2.6.12 3.45-.71 2.55-3.3 4.4-5.86 4.18Zm2-.44c4.42-1.36 5.24-7.39 1.35-9.89-3.34-2.14-7.93.02-8.42 3.96-.49 3.93 3.29 7.1 7.07 5.93ZM9.51 33c-2.91-.61-4.01-4.31-1.9-6.42 1.9-1.9 4.97-1.34 6.13 1.12 1.27 2.71-1.29 5.91-4.23 5.3Zm1.77-.28c2.72-.85 3.51-4.31 1.39-6.17-1.52-1.33-3.68-1.2-5.06.3-2.41 2.65.26 6.93 3.67 5.87Z"/></svg>