<svg xmlns="http://www.w3.org/2000/svg" width="51" height="51" viewBox="0 0 51 51"><path fill="#fff" fill-rule="evenodd" stroke="#fff" stroke-width=".697" d="M12.37 46.16c-.72-.26-1.4-.93-1.72-1.69-.18-.44-.23-36.83-.05-37.46.16-.55.59-1.2 1.01-1.51.67-.48 1.06-.51 5.78-.48l4.34.03.14.7c.88 4.32 6.78 4.23 7.54-.13l.11-.63 4.57.03c4.07.03 4.6.05 4.94.2.66.3 1.15.76 1.44 1.36l.28.57v36.9l-.28.57c-.32.66-.8 1.12-1.53 1.45l-.51.23-4.49-.02-4.48-.03-.13-.69c-.58-3.15-4.17-4.34-6.38-2.12-.59.6-.92 1.25-1.09 2.16l-.12.65-4.5.02c-3.55.02-4.57-.01-4.87-.11Zm9.3-.76c.61-3.24 4.57-4.43 6.82-2.05.6.63.99 1.41 1.08 2.14l.06.51h4.44c4.94 0 4.84.01 5.57-.68.21-.2.49-.59.62-.87l.24-.5V7.32l-.28-.53c-.31-.59-.92-1.12-1.5-1.3-.45-.14-6.44-.25-7.95-.14l-1.04.07-.12.51c-.47 2.1-1.94 3.32-4.01 3.32s-3.37-1.02-3.89-3.06l-.19-.74-.83-.08c-1.62-.16-8.3-.04-8.64.15-.45.24-.86.68-1.06 1.13-.28.63-.32 37.32-.04 37.85.33.63.59.92 1.1 1.21l.5.29h9zM24 34.99c-7.93-1.32-10.66-11.71-4.39-16.72 6.13-4.91 15.12-.91 15.46 6.88.26 6.07-5.09 10.83-11.07 9.84Zm2.78-.19c4.3-.54 7.58-3.94 8.08-8.38l.07-.64-2.46.04c-1.35.01-2.48.06-2.51.09-.04.03-.13.32-.21.64-.7 2.67-3.61 4.06-6.05 2.88-1.08-.53-2.11-1.9-2.26-3.03-.08-.6-.06-.6-2.91-.6H16.4v.49c0 .27.07.8.15 1.18 1.01 4.77 5.42 7.93 10.23 7.33Zm.54-5.58c1.12-.55 2.06-1.76 2.24-2.88.06-.4.05-.42-.22-.45-.5-.07-.84.01-.84.19 0 .3-.5 1.26-.83 1.6-1.03 1.08-2.94 1.16-3.87.17l-.22-.24.43-.3c.24-.17.79-.55 1.22-.85.88-.6.86-.66-.2-.66-.58 0-.74.05-1.39.4-.78.44-.79.44-.92-.18-.49-2.17 2.1-4.09 4.13-3.05.99.51.97.55-1.15 1.91l-.95.62h1.96l1.19-.76c1.37-.86 1.36-.84 1.16-1.21-.85-1.62-3.36-2.42-5.09-1.61-2.37 1.11-3.1 4.03-1.52 6.17 1.05 1.44 3.22 1.94 4.87 1.13Zm-.59-1.13c.78-.39 1.41-1.22 1.49-1.95l.03-.29-.81-.03-.81-.03-1.37.92c-1.51 1-1.5.99-.71 1.38.57.28 1.61.28 2.18 0Zm-5.3-3.16c.38-3.7 5.64-4.87 7.68-1.7.5.77.57.64-.77 1.49l-1.17.73 3.83.03c2.11.01 3.85 0 3.88-.03s0-.45-.06-.93c-.43-3.2-2.15-5.68-4.93-7.12-5.9-3.04-12.91.83-13.53 7.48l-.06.62h5.07zm4.4-.4c1.57-1.03 1.56-1.02.94-1.35-1.51-.81-3.56.22-3.83 1.91l-.07.41h1.51z"/></svg>