<svg xmlns="http://www.w3.org/2000/svg" width="51" height="51" viewBox="0 0 51 51"><path fill="#fff" fill-rule="evenodd" stroke="#fff" stroke-width=".56" d="M18.19 50.33c.68-.89 1.14-1.58 1.56-2.33l.46-.85-.25-.2c-1.16-.93-1.6-.97-2.71-.26l-.5.32v1.62c0 .89-.04 1.68-.08 1.75-.17.26-.23.01-.14-.53.07-.39.07-.97-.01-1.88-.1-1.26-.08-1.63.08-1.37.06.09.24.03.67-.24 1.2-.74 1.31-.73 3.04.46 1.1.75 1.51.92 1.21.5-.06-.09-.21-.34-.32-.54-.26-.48-1.66-2.15-1.91-2.29-.14-.07-.52-.06-1.31.05-1.3.19-1.76.2-1.62.06s1.77-.4 2.5-.4h.63l.68.78c.37.42.8.93.95 1.12l.28.35.16-.23c.11-.15.23-.22.35-.19.23.06.26.11-.84-1.4-1.16-1.6-.96-1.49-2.29-1.29-1.11.16-1.31.15-1.12-.04.12-.12 2.2-.44 2.39-.36.07.02.69.78 1.36 1.68 1.5 2.01 1.52 2.03 1.37 1.55-.12-.39 0-.67.28-.67.31 0-.14-.57-1.8-2.28l-.81-.83-.57.06c-.31.03-1.3.12-2.2.2-1.93.16-3.05.39-3.12.63s-.51 3.05-.81 5.27c-.26 1.9-.29 2.04-.42 1.92-.14-.14.86-7.17 1.07-7.57.15-.29-.1-.26-1.26.11-1.21.39-2.05 1.14-3.6 3.24-1.04 1.4-3.48 4.12-3.71 4.14-.29.02-.08-.27.96-1.34.59-.63 1.64-1.87 2.32-2.77 1.36-1.8 2.46-3.01 2.99-3.28.86-.44 2.03-.72 3.2-.77l1.15-.05 1.05-.63c2.21-1.32 2.5-1.42 3.7-1.2 1.66.31 1.68.31 1.76 0s-.03-2.86-.14-3.49-1.52-1.47-2.22-1.33c-.33.06-.63.06-.9-.01-.35-.09-.39-.08-.29.04.09.12.06.14-.2.14-1.24 0-2.7-1.61-3.81-4.19-.34-.81-.48-1-1.1-1.58-1.38-1.28-1.97-3.01-1.67-4.94.16-1.01.15-1.07-.06-2.1-.19-.95-.2-1.16-.1-1.85.12-.86.01-1.17-.25-.68-.14.26-.48.45-.69.37s-.15-.31.09-.35c.35-.05.27-.23-.11-.26-.23-.02-.4.03-.56.18-.4.37-.95.61-1.17.49-.23-.13-.31-.07-.57.42-.21.39-.62.5-.95.26-.19-.14-.19-.16-.04-.39.2-.31.09-.53-.23-.45-.13.03-.29.01-.36-.05-.1-.08-.13-.06-.13.11 0 .11-.04.21-.1.21-.05 0-.1.09-.1.2 0 .28-.31.26-.64-.05-.19-.17-.25-.31-.21-.44.06-.21-.1-.38-.2-.22-.03.06-.12.08-.19.05s-.16.02-.19.1c-.08.21-.36.2-.6-.01-.15-.13-.21-.15-.24-.05-.05.12-.33.18-.33.07 0-.14.31-.65.4-.65.05 0 .15.09.23.2.2.29.3.02.16-.4-.12-.34-.13-.34-.38-.18-.15.09-.25.09-.46 0-.19-.09-.32-.09-.46-.02-.15.08-.21.07-.25-.03-.08-.21-.51-.09-.58.16-.06.22-.06.22-.21.02-.21-.26-.15-.49.13-.53.12-.02.22-.09.22-.17 0-.07.03-.2.06-.29.05-.12 0-.16-.18-.16-.27 0-.55-.39-.45-.63.03-.08 0-.2-.06-.26-.08-.08-.08-.14.01-.23.07-.07.12-.22.12-.35 0-.29-.3-.31-.55-.03-.21.23-.39.16-.31-.13.03-.12 0-.27-.06-.34-.07-.09-.07-.17.01-.27.06-.07.1-.24.09-.37-.02-.19.01-.24.17-.22.15.01.24-.07.33-.29.14-.39.08-.47-.17-.24-.19.18-.61.06-.61-.18 0-.04-.07-.03-.15.04-.23.19-.4-.01-.26-.29.13-.23.31-.27.49-.09.08.08.14.05.21-.14.05-.15.15-.29.2-.33.31-.19-.1-.38-.44-.2-.25.12-.65.52-.59.58.02.02-.02.1-.11.17-.11.09-.15.09-.15.01s-.08-.1-.2-.06c-.14.04-.22.01-.27-.11-.04-.1-.02-.19.05-.22.07-.02.12-.12.12-.23 0-.22.11-.24.27-.08.09.09.16.03.29-.25.19-.38.28-.44.4-.24.05.08.14-.02.24-.27.16-.39.16-.4-.06-.57-.3-.24-.37-.23-.3.07.07.26-.16.37-.29.15-.11-.18.06-.9.21-.9.08 0 .14-.09.14-.21 0-.11-.04-.18-.1-.14-.05.03-.18 0-.29-.07-.15-.09-.23-.09-.36.02-.21.17-.37-.02-.33-.39.03-.27.28-.42.28-.16 0 .12.04.14.19.06.1-.06.21-.07.25-.04.03.03.14-.02.25-.11.14-.13.21-.14.27-.05.05.09.11.07.21-.06.19-.28.17-.3-.32-.31-.33-.01-.45.03-.45.13 0 .2-.24.1-.28-.11-.06-.31.17-.46.61-.4.51.05.76-.2.52-.52-.08-.11-.14-.14-.15-.06 0 .06-.09.12-.2.12s-.2-.06-.2-.12c-.01-.08-.06-.06-.14.04-.24.32-.49-.16-.27-.51.08-.12.12-.12.25-.02.13.11.18.1.31-.03.2-.19.27-.2.43-.04.09.09.12.08.12-.04 0-.22.26-.43.35-.28.05.08.11.08.21-.01.21-.17.17-.27-.15-.34-.49-.11-.73-.48-.62-.97.12-.51.19-.56.91-.54.56.01.59 0 .63-.27.05-.34 0-.39-.25-.26-.35.19-.91-.36-.57-.56.06-.04.16 0 .22.09.11.15.16.14.47-.09l.35-.26.03.25c.03.2.09.26.28.26.25 0 .32-.14.13-.26-.06-.03-.09-.19-.07-.35.03-.2 0-.29-.09-.29-.19 0-.16-.24.06-.44.12-.11.21-.14.26-.07.03.06.17.11.29.11.13 0 .29.07.36.15.11.14.15.13.28-.06.12-.18.21-.2.55-.15.31.05.38.04.34-.08-.17-.45.51-.71.9-.34.19.17.23.19.23.05 0-.42.88-.67 1.08-.31.07.13.11.09.16-.2.08-.41.55-.53.74-.19.09.15.11.15.28-.01.11-.12.26-.16.44-.12.16.03.36-.01.46-.09.13-.09.24-.1.36-.04s.25.06.39-.02c.12-.06.32-.09.45-.06.16.03.24 0 .24-.1 0-.21.44-.12.48.1.02.11-.03.17-.14.17-.53 0 .13.19.84.24.77.06.82.05.82-.14 0-.3.45-.38.73-.12.12.11.34.25.49.31.16.06.28.17.28.24 0 .1.11.14.36.13.41-.01.62.2.5.5-.07.18-.09.17-.26-.06-.21-.28-.25-.26-.36.14-.07.28-.06.29.28.22.27-.05.41-.02.59.13l.24.19.18-.3c.14-.23.24-.29.45-.26.38.04.44.38.05.35-.23-.02-.28.03-.33.28-.1.5-.03.62.38.61.42-.01.56.28.28.57-.15.14-.14.16.06.19s.23.08.21.43c-.03.48.42.62.54.18.08-.33.41-.3.54.05.07.18.07.32 0 .44s-.06.18.04.22c.08.03.22.2.31.38l.16.33h1.31c1.14 0 1.4.03 1.95.23l.63.24.38-.25c.96-.64 2.19-.91 3.63-.81.95.06 1.34-.05.72-.2-.36-.09-.32-.79.04-.84.16-.03.25.02.28.16.04.14.12.18.31.14.2-.04.23-.09.18-.26-.04-.11-.06-.28-.06-.36.01-.08.01-.34.01-.56.01-.45.35-.69.64-.45.23.19.05-.49-.2-.76-.13-.14-.24-.21-.24-.14 0 .06-.07.11-.15.11-.2 0-.19-.24.01-.44.29-.3.63-.12.65.34 0 .19.02.21.07.08.09-.21.56-.58.75-.58.25 0 .42-.27.27-.45-.12-.14-.16-.13-.35.05-.32.3-.44.06-.14-.26.15-.16.32-.23.48-.22.23.03.26 0 .23-.23-.04-.33.67-1.02.95-.92.32.11.44.25.34.37-.15.17.77.1 1.05-.09.13-.08.32-.15.42-.15.11 0 .25-.07.32-.15.1-.13.09-.15-.09-.15-.12 0-.21-.06-.21-.15 0-.17.36-.39.44-.26.09.13.89.19 1.08.07.11-.07.24-.06.42.02.16.07.28.08.31.02.09-.14.59-.12.73.02.07.07.13.09.13.05.01-.04.03-.11.04-.17l.04-.19c.03-.22.5-.07.61.19l.11.28.24-.24c.34-.34.95-.26.95.11 0 .22.18.18.25-.05.12-.39.82-.39.92 0 .04.16.14.2.47.2.23 0 .47.05.54.12.08.08.14.05.22-.17s.15-.26.35-.23c.14.03.25.01.25-.03 0-.05.06-.09.14-.09.17 0 .49.41.38.5-.09.07-.09.9.01.9h.22c.08 0 .12-.06.09-.15-.11-.27.06-.36.38-.19.29.15.32.15.44-.01.13-.18.34-.13.34.09 0 .21-.38.49-.56.42-.12-.05-.15-.02-.1.1.03.08.06.24.06.35 0 .16.03.18.19.09 1.03-.55 1.84.5.97 1.26-.39.34-.38.46.04.38.21-.05.31-.01.42.15.13.18.17.19.21.06.07-.17.37-.21.37-.05 0 .14.27.12.34-.02.03-.09.09-.07.2.06.26.33.14.56-.32.59-.36.02-.5.33-.27.56.13.13.17.12.34-.03.26-.23.71-.14.71.14 0 .23-.2.37-.3.2-.1-.16-.5.08-.5.3 0 .23.2.5.2.28 0-.26.2-.32.35-.12.09.11.14.14.15.07 0-.07.09-.13.2-.13s.23-.07.26-.15c.09-.22.23-.18.3.09.09.36-.12.69-.35.56-.14-.07-.22-.06-.31.05-.07.08-.19.15-.26.15-.08 0-.14.06-.14.13 0 .08.1.13.23.13.19-.01.22.05.25.42.03.44-.11.58-.22.2-.06-.23-.07-.23-.31.07-.22.26-.36.6-.18.42.03-.04.14.05.24.19.16.25.17.25.28.08.1-.18.12-.18.21-.02.06.1.18.18.25.18.08 0 .15.09.15.21 0 .16.04.19.21.14.13-.04.25-.02.29.05.06.09.1.06.15-.09.08-.25.28-.23.33.03a.37.37 0 0 1-.43.43c-.17-.03-.28.06-.49.41-.18.29-.32.42-.41.38-.09-.03-.19.03-.25.14-.08.15-.17.19-.34.14a.37.37 0 0 0-.37.12c-.13.16-.12.17.13.11.32-.08.68.2.68.52 0 .11.06.21.13.24.09.03.09.07 0 .17-.09.09-.09.17 0 .31.15.24.01.36-.23.21a.8.8 0 0 0-.35-.12c-.17 0-.2.25-.05.35.06.04.1.23.1.43v.57c.01.11-.11.3-.26.41-.26.22-.26.44.02.44.08 0 .14.04.14.1s.07.1.15.1c.09 0 .15.09.15.24 0 .31-.2.44-.32.22-.05-.09-.16-.16-.23-.16-.08 0-.15-.06-.15-.12 0-.07-.07-.02-.16.1-.11.16-.22.21-.35.17-.12-.04-.21-.01-.25.09-.07.18-.55.21-.71.05-.15-.15-.26.23-.18.61.08.35.21.39.3.1.11-.33.65-.06.65.32 0 .13-.28.09-.32-.04-.03-.08-.12-.01-.22.15-.2.3-.38.34-.55.13-.27-.32-.66-.12-.63.32.05.55-.67 1.03-.84.57-.04-.08-.12-.15-.2-.15s-.14-.06-.14-.14c0-.28-.54-.14-.67.18-.15.33-.16.39-.05.32.04-.02.16.02.27.11.23.16-.08.53-.44.53-.2 0-.61-.4-.61-.58 0-.14-.14-.15-.56-.03-.24.07-.43.03-.94-.2-.47-.22-.72-.28-.97-.23-.41.08-.42.22-.03.36.34.11.35.31.02.36-.14.02-.32-.07-.48-.25l-.27-.28.06.25c.16.68.37 2.08.37 2.5 0 .37.06.55.3.85 1.02 1.28.59 4.47-.82 6.01-.11.12-.31.7-.47 1.35-.34 1.38-.48 1.72-1.05 2.58-.55.82-1.58 1.83-1.79 1.75-.08-.03-.33.06-.56.2-.68.43-.91.32-.45-.2.54-.62.42-.65-.15-.04-1.19 1.28-1.16 1.2-1.16 3.04 0 .89.03 1.73.08 1.88l.07.28h2.38l1.29-.7c2.62-1.42 5.18-1.85 6.33-1.05 1.53 1.05 2.09 1.94 3.08 4.85 1.16 3.4 1.65 4.37 3.08 6.11 1.26 1.52 1.21 1.42.9 1.84-.25.33-.46.45-.46.27 0-.05.07-.17.15-.28.23-.3.2-.37-.66-1.41-1.59-1.91-2.08-2.86-3.29-6.37-.98-2.87-1.19-3.23-2.46-4.25-.88-.71-1.28-.84-2.42-.79l-.84.03-.41.5c-1.43 1.76-5.29 4.82-7.17 5.68-2.05.94-3.25 1.15-6.92 1.2-.94.01-1.44.06-1.4.12.03.06.21.3.4.54.54.71.95 1.6.82 1.76-.21.26-.7.29-1 .07l-.27-.21.05.44c.05.5.07.49-1.04.6-.52.05-.65.03-.95-.18-.19-.12-.39-.26-.45-.3-.08-.04-.32.3-.68.96-.62 1.13-1.48 2.27-1.72 2.27-.13 0-.12-.05.05-.27Zm15.43-1.32c-.27-1.8-.39-3.51-.25-3.51.06 0 .13.3.17.68.14 1.45.4 3.32.46 3.32.04 0 .13-.44.19-.97.25-2.02.82-4.88 1.01-5.07.14-.14.13.2-.05 1.06-.25 1.14-.65 3.5-.64 3.73 0 .11.16-.2.35-.7.46-1.22.56-1.42.61-1.29.02.07-.17.67-.42 1.35-.26.68-.56 1.55-.67 1.94-.2.68-.33.95-.47.95-.04 0-.17-.67-.29-1.49Zm9.93-3.49c0-1.86-.03-3.57-.07-3.82-.07-.44-.07-.45.07-.15.15.33.22 7.19.07 7.28-.04.03-.07-1.46-.07-3.31Zm-6.64-.35c-.06-.85 3.37-3.73 3.85-3.25.07.08-.3.98-.67 1.63-.5.88-.45.57.08-.48.54-1.11.53-1.19-.19-.84-1 .49-1.96 1.41-2.9 2.77-.09.14-.17.21-.17.17ZM27 44.11c1.15-.07 1.61-.14 2.25-.35l.8-.27 1.67-1.67c1.67-1.66 1.77-1.81 1.19-1.82-.13 0-.44-.07-.7-.16l-.46-.17-.59.42c-.9.62-3.51 1.35-5.33 1.48-.69.05-.86.09-.94.25-.13.25-.68.48-1.14.48-.25 0-.37.05-.41.18-.04.09-.19.46-.35.81s-.29.69-.29.77c0 .16 1.85.18 4.3.05Zm-4-1.59c0-.1-.19-.12-.76-.1-1 .04-1.15.21-.64.73l.34.35.12-.3c.17-.4.26-.38.18.05-.13.72.05.74.41.05.19-.36.34-.71.35-.78Zm9.08-.01c1.91-1.13 2.16-1.36 2.47-2.36l.23-.76-.56.47c-.79.66-1.62 1.46-2.44 2.37-.75.82-.7.87.3.28Zm-12.48-.42c.41-.06 1.47-.1 2.36-.1 1.63.01 2.47-.08 2.67-.28.17-.17 0-.25-.73-.32-.38-.03-.77-.12-.86-.2-.18-.15-2.1-.58-2.59-.58-.24 0-.46.15-1.12.79-.51.49-.76.8-.65.8.09 0 .51-.05.92-.11Zm8.2-1.03c1.83-.42 2.8-.77 3.4-1.25l.25-.2-.37.06c-.46.07-.47.01-.05-.38.31-.29.31-.3.07-.25-.14.02-1.37.28-2.75.56-2.17.45-2.66.51-3.68.52-1.16 0-1.18 0-1.28.25-.14.38-.14.38.66.35.8-.04 1.05.12.38.23s-.69.13-.17.14c.34.01.56.06.65.17.19.23 1.35.14 2.89-.2Zm-1.27-1.42c.49-.09.47-.17-.1-.32-1.05-.29-2.83-1.27-2.83-1.58 0-.16.16-.19.25-.05.11.19 1.52.9 2.4 1.21 1.73.61 2.42.4 3.68-1.15.68-.84.97-1.06.97-.75 0 .05-.34.5-.76 1-.42.51-.74.94-.71.96.07.07.77-.13 1.29-.36l.43-.19v-1.45c0-1.44 0-1.45-.2-1.27-1.82 1.6-1.96 1.68-3.59 1.96-1.52.26-2.3.09-4.17-.92-.03-.02-.02.2.02.49.05.29.13.95.18 1.45.05.51.13.98.17 1.04.07.12 2.17.07 2.97-.07Zm1.29-2.5c1.13-.23 1.31-.35 2.97-2.01 2.46-2.47 3.09-3.35 3.57-5.01.31-1.09.3-1.1-.27-.78-1.89 1.03-4.68.74-5.93-.61-.32-.34-.8-1.24-.97-1.81-.41-1.4-2.89-1.35-2.89.05 0 3.44-3.34 5.33-6.83 3.88-.18-.07-.18-.06.01.31.11.21.23.5.27.64.37 1.23 5.46 4.84 7.65 5.44.6.17 1.28.14 2.42-.1Zm-9.19-2.24c-.86-.64-2.23-2.98-2.23-3.82 0-.33.25-.05.4.44.54 1.84 2.29 3.76 3.33 3.66.31-.03.3-.03-.29-.42-1.31-.87-2.56-2.36-2.95-3.54-.12-.37-.39-.87-.59-1.13-.2-.25-.42-.6-.49-.77s-.18-.3-.24-.29c-.34.06-1.27-4.61-1.27-6.38 0-.92.31-2.7.49-2.88.2-.2.21 0 .06.64-.37 1.55-.21 4.38.4 6.99l.13.55-.06-.6c-.37-3.3.22-6.24 1.88-9.45 1.15-2.23 2.88-3.19 5.73-3.2h1.08l-.06-1.32c-.17-3.81-.16-3.79-.31-3.68-.1.09-.28.06-.76-.14-1.3-.52-2.47-.56-2.93-.11-.25.25-.55.33-.55.15 0-.06.06-.13.14-.16.33-.13.26-.33-.07-.22-.18.06-.4.11-.49.11-.14.01-.18.1-.18.42 0 .22-.05.57-.11.78-.13.49-.14.49.56.3 1.1-.29 3.25-.21 3.25.12 0 .15-.1.18-.85.3-.22.04-.59.13-.83.21-.49.17-.79.14-.45-.04.12-.07.46-.19.75-.27l.53-.15-.86.04c-1.47.08-2.59.92-3.12 2.31-.33.87-.34.83.06.9.29.05.38 0 .94-.54.97-.92 2.3-1.26 3.43-.88.5.17.42.28-.41.6-.41.15-1.14.46-1.62.68-.86.39-1.16.44-.86.14.18-.18 1.82-.9 2.28-1 .47-.1.21-.25-.45-.25-1.29 0-2.79 1.05-2.52 1.76.1.26.07.38-.16.89l-.26.58-.6-.06c-.59-.05-.6-.05-.8.28-.25.41-.26.36.1.76.4.46.38.64-.14 1.15-.5.51-.99.6-1.31.24-.37-.41-.69.11-1.11 1.8-.21.89-.27 3.95-.08 4.08.06.04.14.43.18.87.4 4.65 2.16 8.73 4.21 9.78.46.23.51.09.08-.23Zm6.55-.47c-.47-.12-.18-.35.35-.29.35.05.79.01 1.28-.09 1.41-.3 1.36-.3 1.19-.11-.34.36-2.14.67-2.82.49Zm-1.95-.99c-.32-.14-.12-.31.3-.27.65.08 1.85-.14 2.21-.4.27-.19.44-.22 1.41-.23 1.2-.01 1.92-.14 2.43-.45.4-.23.42-.23.42-.05 0 .56-5.94 1.78-6.77 1.4Zm11.47-1.65c1.16-2.26 1.48-5.56.9-9.26-.26-1.61-.73-3.8-.96-4.43-.28-.79-.28-.8-.09-.8.08 0 .15.01.15.03s.11.36.26.77c.62 1.78 1.11 4.9 1.21 7.65.09 2.88-.17 4.23-1.24 6.23-.56 1.07-.54 1.17.1.46 1.35-1.51 1.72-2.95 1.82-7.13.03-1.49.09-2.39.16-2.48.2-.23.48-.14.74.24.29.43.35 1.13.1 1.13-.08 0-.15-.06-.15-.14s-.11-.28-.25-.43l-.24-.28-.01.86c0 .65.04.9.15.99.22.18.19.76-.05.98-.18.17-.21.29-.18.93l.03.74.39-.68c1.17-2.06 1.09-4.91-.14-5.22-.57-.14-.61.01-.72 2.36-.1 2.27-.12 2.44-.28 2.34-.13-.08-.13-2.6 0-3.83.15-1.43-.19-2.94-1.1-4.91-.24-.5-.4-.94-.36-.98.32-.33 1.51 2.58 1.71 4.2.07.52.08.53.36.49s.29-.06.29-.63c0-.58-.37-2.72-.65-3.76-.17-.66-.02-.8.25-.22.18.42.2.43.6.4.23-.01.47.02.54.08.1.08.16.05.24-.14.14-.31.47-.35.37-.05-.05.15-.03.19.1.14.11-.05.18 0 .22.15.05.18.1.21.34.16.16-.04.34-.03.41.01.21.13 1.38.05 1.61-.11.12-.08.32-.15.44-.15.16 0 .23-.06.23-.2 0-.13.07-.2.2-.2.11 0 .2.04.2.1 0 .22.28.08.34-.16.06-.21.11-.25.31-.2.18.05.27.01.35-.14.07-.14.07-.2 0-.2-.31 0-.03-.54.29-.55.08 0 .26-.21.39-.47.14-.27.3-.48.37-.48s.15-.09.18-.2c.03-.13.11-.18.2-.14.17.06.33-.28.22-.46-.03-.06.03-.23.14-.39.17-.24.18-.31.07-.4-.07-.06-.16-.33-.19-.59-.02-.26-.08-.55-.12-.65s-.03-.17.04-.17c.15 0 .31.43.31.81 0 .22.05.29.2.29.24 0 .25-.06.05-.26-.18-.19-.2-.38-.02-.28.06.04.09.04.05-.01-.04-.04-.03-.14.04-.22.08-.1.08-.2-.02-.38-.12-.22-.11-.27.05-.45.17-.19.17-.22.01-.59-.1-.21-.15-.48-.12-.58.04-.11 0-.33-.09-.49-.19-.38-.19-.54.04-.83.14-.19.17-.31.1-.49-.05-.13-.07-.28-.03-.33.03-.05-.05-.09-.17-.09-.16 0-.2-.05-.16-.19.03-.12-.01-.22-.09-.25s-.14.01-.14.09c0 .15-.2.22-.2.08 0-.05-.03-.19-.07-.33-.06-.22-.05-.24.1-.11.15.12.17.11.17-.08 0-.11-.06-.2-.12-.19-.07.02-.13-.04-.13-.12 0-.09.07-.14.18-.12.24.04.21-.15-.04-.23-.13-.04-.25-.02-.29.05-.13.22-.3.01-.24-.3.05-.22 0-.34-.2-.55-.14-.14-.26-.34-.26-.45 0-.1-.05-.22-.1-.25-.06-.04-.08-.15-.05-.25.03-.11 0-.2-.11-.24s-.14-.13-.1-.3c.05-.22.03-.25-.21-.23-.23.02-.28-.03-.33-.28-.05-.28-.4-.5-.4-.26 0 .23-.2.09-.36-.24-.09-.19-.21-.35-.26-.35-.06 0-.05.06.02.15.15.18.05.35-.22.35-.11 0-.22-.08-.25-.2-.03-.11-.11-.2-.18-.2-.08 0-.17-.1-.21-.22-.11-.34-.31-.51-.5-.4-.09.05-.24.07-.33.05s-.25.05-.35.16c-.36.39-.62.18-.31-.23.36-.47.17-.67-.23-.26-.34.34-.57.32-.66-.06-.08-.3-.41-.32-.56-.04-.12.22-.4.26-.57.09-.09-.09-.2-.06-.46.1-.3.18-.36.19-.47.06s-.15-.13-.33 0c-.27.19-.47.19-.47 0 0-.08-.04-.15-.09-.15s-.07.09-.04.2c.06.24-.21.38-.41.21-.1-.08-.19-.06-.37.08-.2.15-.33.18-.65.12-.34-.06-.48-.04-.8.16-.59.35-.65.37-.83.26-.23-.14-.41-.05-.41.23 0 .13-.05.24-.12.24-.06 0-.2.07-.3.16-.14.13-.21.14-.32.05-.2-.17-.28.01-.21.43.04.2.02.36-.04.4s-.11.18-.11.32c0 .21-.04.24-.19.19-.13-.04-.28.02-.42.16-.15.15-.18.24-.11.27.23.07.12.33-.18.43-.28.1-.7.9-.7 1.35 0 .08-.05.25-.11.36-.08.15-.08.22.01.28.12.07.04.56-.11.66-.05.03-.25-.02-.44-.12-.28-.13-.38-.14-.5-.04-.09.07-.3.1-.52.07-.66-.08-2.06.11-2.89.4l-.79.28.03 2.4c.04 3.25-.13 2.89 1.4 3.02 2.5.22 4.67 1.23 7.15 3.32.54.44.97.79.97.76 0-.32-.56-1.33-.81-1.44-.61-.27-.89-1.02-.54-1.41.29-.33-.2-1-.74-1-.43 0-.62-.16-.86-.73-.32-.76-.1-1.09.84-1.28.72-.14.72-.13.2-.72-1.48-1.69-4.35-2.48-5.54-1.53l-.28.23 1.09.06c1.58.09 3.03.63 3.69 1.38l.2.22-.23-.06c-.23-.05-.23-.05-.06.14.25.27.03.24-.64-.1-.81-.41-1.33-.53-2.29-.52-.95 0-1.1-.14-.27-.25.72-.08 1.68.07 2.42.4.76.35.36.04-.53-.39-.81-.4-1.61-.55-2.92-.55-.7 0-.93-.03-.93-.13 0-.14.53-.68.85-.85.19-.11.19-.11-.02-.12-.14 0-.23-.06-.23-.15 0-.21 2.06-.21 2.75 0 .28.08.66.12.9.08.77-.1 3.15.74 3.15 1.12 0 .22-.1.19-.87-.19-.62-.31-1.71-.66-2.04-.66-.08 0 .11.14.41.31.53.29 1.54 1.23 1.95 1.82.16.22.3.29.74.34.8.09 1.12.4.88.84-.28.5.02 1.03.52.95.56-.09.79.34.5.96-.09.2-.03.34.39.98.52.79 1.02 1.72 1.02 1.9 0 .24-.17.05-.48-.53-.43-.8-1.05-1.77-1.14-1.77-.03 0-.16.15-.27.34-.12.19-.39.5-.61.69l-.39.36.36.83c1.81 4.29 1.92 10.04.24 13.62-.82 1.75-.45 1.56.49-.25Zm-12.95-1.27c2.34-1.07 2.75-4.95.71-6.79-2.57-2.31-6.63-1.07-6.59 2.02.02 1.24.3 2.91.59 3.44.23.43.25.39.09-.16-.03-.13-.02-.23.03-.23.12 0 .32.54.32.86 0 .94 3.35 1.54 4.85.86Zm-1.27.02c-.04-.03-.25-.08-.47-.09-1.48-.11-1.75-1.76-.29-1.79.55-.01.57.15.06.39-.54.26-.64.54-.17.47.22-.03.3-.01.25.07-.04.06-.17.11-.29.11-.47 0 .11.32.7.39.49.05.58.09.58.26 0 .19-.25.32-.37.19Zm-5.78-1.2c-.08-.26-.27-.62-.43-.81-.23-.26-.28-.39-.23-.61.04-.15.07-.31.08-.37.06-.27-.27-1.95-.37-1.95-.15 0-.35.43-.35.75 0 .3-.14.39-.3.2-.27-.32.11-1.35.5-1.35.13 0 .2-.07.2-.19 0-.81-.65-.63-.89.24-.33 1.21.26 3.09 1.32 4.18.56.57.65.55.47-.09Zm18.62-.16c1.46-.68 1.61-1.02 1.62-3.68.02-2.92-.29-3.67-1.7-4.2-3.72-1.39-7.23 3.28-5.05 6.72.87 1.37 3.43 1.95 5.13 1.16Zm-2.3.09c-.21-.25.27-.57.87-.57.31 0 .51-.16.51-.41 0-.29-.29-.49-.71-.49-.33 0-.4-.03-.37-.17.05-.26.77-.39 1.14-.22.89.43.44 1.69-.6 1.69-.22 0-.47.07-.56.15-.14.13-.19.13-.28.02ZM16.5 26.62c-.47-.23-.46-.46.03-.5l.38-.03-.22-.18c-.31-.25-.17-.45.19-.27.57.29.75.31.62.05-.12-.21-.11-.22.19-.16.29.06.3.05.19-.13-.18-.29-.01-.37.25-.12.29.27.37.28.37.02 0-.24.13-.26.31-.04.11.14.14.13.26-.11.14-.26.33-.26.33.01 0 .21.28.17.35-.06.03-.11.11-.2.17-.2.05 0 .12.09.15.2s.14.2.24.2.23-.09.29-.2c.16-.29.3-.24.3.1 0 .33.23.4.61.2.16-.09.19-.07.19.15 0 .19.05.25.23.25.26 0 .46.14.72.5.17.25.17.25.12.02-.04-.15-.01-.22.06-.19.07.02.12.12.12.23 0 .25-.35.24-1.45-.06-1.21-.32-2.52-.26-3.65.18-.94.37-.9.37-1.35.14Zm8.72-1.13c.48-.12 1.17-.05 1.44.16.28.21.34.18.34-.19 0-1.95 1.64-4.09 3.5-4.57.8-.2.59-.29-1.7-.7-1.15-.21-1.22-.59-.11-.59.8 0 2.06.22 2.83.49.95.34 2.22.93 2.56 1.18.43.33.46.27.27-.48-.23-.89-.34-1.06-1.17-1.85-3.46-3.29-9.08-4.64-13.11-3.17-1.78.66-3.46 3.53-4.08 7.01-.24 1.37-.23 1.46.18.88.69-.98 2.8-2.38 4.51-3 1.58-.56 2.3-.25.8.36-1.65.66-2.38 1.06-1.97 1.07 2.12.05 4.33 1.76 4.64 3.61l.07.4.29-.25c.17-.13.49-.29.71-.36Zm3.54.52c-.04-.06.02-.24.13-.4.12-.16.21-.36.21-.45s.06-.16.13-.16.19-.09.27-.21c.08-.11.3-.27.48-.34.21-.09.32-.21.32-.34 0-.24.15-.28.24-.06.08.22.37.18.43-.05.07-.25.3-.26.35-.02.03.15.07.13.31-.1.33-.33.37-.34.37-.08s.11.25.35-.02l.2-.23.03.23c.04.27.14.28.37.02.28-.31.52-.27.31.05-.19.29.01.37.24.1.18-.21.33-.19.27.05s.17.15.47-.19c.11-.12.23-.21.28-.21.13 0 .09.27-.07.4-.08.07-.15.16-.15.21s.07.09.15.09c.2 0 .2.44 0 .6-.13.11-.32.1-1.03-.03-1.81-.35-3.25-.04-4.23.9-.23.22-.39.31-.43.24ZM18.4 24.7c0-.2 1.14-.43 2.15-.44 1.04-.01 1.65.14 1.65.4 0 .17.04.17-.45-.01-.62-.22-1.81-.18-3.13.1-.12.03-.22.01-.22-.05Zm-4.68-1.65c-.05-1.84.22-3.22.85-4.48.31-.63.1-1.06-.32-.67-1.16 1.09-1.64 3.2-1.16 5.07.12.45.21.93.21 1.08 0 .22.04.26.22.23.22-.03.23-.06.2-1.23Zm15.3.77c.07-.39 2.34-.88 3.12-.68.49.12.26.21-.57.22-.64.01-1.01.07-1.7.31-.74.26-.88.28-.85.15ZM9.67 20.07c.12 0 .24-.05.27-.13s.19-.14.36-.14c.19 0 .3-.05.3-.14 0-.21.21-.31.31-.15s.12.05.1-.41l-.02-.25.26.3c.23.27.27.28.36.13.12-.21.45-.24.52-.05.03.08.09.06.2-.08.12-.16.18-.17.3-.07.13.11.23.03.68-.49.3-.34.67-.75.82-.92.28-.29.28-.3.13-.69-.18-.45-.21-1.28-.05-1.28.06 0 .09.06.06.13-.03.08.07.12.32.12.2.01.52.09.7.18.35.17.35.17.57-.1l.23-.28-.45-.38c-.79-.68-.52-1.13.75-1.24.7-.06.7-.06.82-.42.22-.7.73-1.53 1.18-1.93l.46-.41-.45.24c-.24.13-.73.53-1.08.88-.4.4-.67.6-.73.54-.14-.14.36-.78 1.14-1.46.69-.6.81-.83.91-1.72.06-.54.01-.68-.27-.78-.21-.08-.39-.48-.27-.61.1-.1-.09-.58-.28-.69-.07-.05-.12-.18-.11-.3.03-.39-.01-.47-.19-.47-.09 0-.22-.1-.27-.22-.07-.16-.2-.24-.43-.26-.35-.04-.39-.12-.2-.42.17-.27-.04-.41-.45-.33-.26.05-.28.03-.25-.18.02-.2-.01-.23-.19-.21-.17.02-.24-.03-.29-.25-.12-.55-.13-.57-.3-.42-.14.11-.18.1-.3-.06-.1-.14-.24-.19-.44-.17-.22.03-.3-.01-.3-.12 0-.13-.06-.15-.27-.1-.22.06-.25.04-.2-.11.06-.15.03-.16-.29-.11-.21.05-.41.03-.49-.04-.1-.09-.19-.08-.36 0-.19.11-.25.09-.4-.11-.1-.13-.21-.21-.25-.17s-.01.14.05.22c.16.2-.23.44-.43.27-.07-.06-.27-.08-.43-.05-.25.05-.31.02-.38-.18-.06-.19-.08-.2-.12-.05-.05.18-.38.23-.48.07-.04-.06-.14-.04-.28.05-.2.13-.26.13-.52-.01-.19-.1-.31-.11-.33-.05s-.12.21-.22.33l-.18.23-.24-.22c-.13-.13-.3-.23-.36-.23-.12 0-.14.06-.16.45-.01.28-.47.32-.71.05-.36-.4-.5-.12-.15.33.32.41.13.52-.36.21-.23-.15-.26-.15-.44.01-.1.09-.24.14-.29.1-.06-.03-.11-.01-.11.04 0 .06-.06.11-.14.11-.09 0-.12.08-.08.25.03.17-.01.27-.12.31-.09.03-.16.14-.16.24 0 .14-.07.18-.31.16-.21-.02-.33.04-.4.16a.37.37 0 0 1-.29.18c-.15 0-.2.07-.2.25s-.07.26-.26.31c-.21.05-.24.11-.19.31.03.15 0 .29-.1.39-.17.18-.2.7-.04.79.07.05.04.15-.09.29-.2.21-.26.39-.22.66.01.08.05.04.09-.09.07-.25.31-.42.31-.22 0 .24-.54.97-.58.79-.02-.11-.12-.18-.25-.18-.21.01-.2.02.07.24.3.25.28.56-.08 1.06-.39.54-.4.71-.04 1.21.19.28.16.89-.05.89-.05 0-.03.08.06.18.19.2.23.67.07.77-.18.11-.1.23.2.3.33.07.39.29.16.6-.17.24-.1.45.15.45.23 0 .23.03.03.41-.15.3-.15.3.08.27.26-.04.48-.96.25-1.1-.07-.04-.03-.15.15-.33.16-.16.29-.22.33-.15.07.12-.03.32-.13.26-.04-.02-.08.28-.1.68-.02.57-.07.74-.23.88l-.2.17.2.23c.12.12.21.29.21.39 0 .09.07.19.15.23.08.03.15.12.15.19 0 .1.08.13.25.09.19-.03.25 0 .25.13s.06.16.25.11c.22-.06.27-.01.46.44.16.38.26.49.42.47.15-.01.22.05.27.23.05.21.11.25.37.22.29-.03.56.13.65.39.03.08.13.06.32-.06.27-.18.29-.18.41-.02.07.1.19.15.27.12.07-.03.22.01.33.1.15.11.32.13.65.08.25-.04.55-.07.67-.06Zm6.63-2.32c0-.21-1.1-1.05-1.38-1.05-.15 0 .21.66.62 1.12.25.29.76.24.76-.07Zm14.96-1.49c-1.46-1.09-2.98-1.83-4.46-2.17-1.37-.31-1.6-.39-1.6-.54 0-.47 2.12-.66 3.55-.31.94.23 1.75.6 1.75.82 0 .12-.05.14-.17.08-1.28-.56-2.9-.89-3.91-.78-.83.09-.84.17-.05.32 1.77.34 3.92 1.41 5.23 2.6.6.54.4.53-.34-.02Zm2.65-1.36c.13 0 .11-.18-.06-.44l-.16-.24-.69.31-.68.31.26.37.26.36.49-.33c.27-.19.53-.34.58-.34Zm-28.16-1c-.11-.18.04-.27.32-.22.36.07.16-.23-.22-.32-.42-.11-.3-.29.14-.23.31.04.38.02.34-.09-.03-.1.02-.14.19-.14.49 0 .38-.43-.33-1.38-.46-.6-.45-.81.02-.36.88.83 1.16 2.04.48 2.04-.12 0-.16.06-.12.19.1.38-.62.83-.82.51Zm35.97-2.82a.4.4 0 0 1-.12-.24c0-.06-.13-.14-.3-.17-.61-.13-.43-.92.39-1.71.57-.55.62-.39.08.27-.79.97-.76 1.17.2 1.1.63-.04.67-.03.49.11-.11.09-.3.16-.43.16-.14 0-.23.06-.23.15 0 .11.11.15.41.15.36 0 .4.02.29.15-.15.18-.61.2-.78.03ZM10.8 7.94c0-.12-.06-.15-.2-.1-.11.03-.29.09-.39.12-.14.04-.28-.03-.47-.21-.19-.19-.33-.25-.49-.21-.27.07-.8-.32-.9-.64-.04-.11-.15-.2-.25-.2-.26 0-.58-.31-.66-.62-.09-.39.18-.37.33.02.13.35.3.39.35.08.03-.19.07-.16.26.23.34.69.64.94.91.77.2-.12.25-.1.51.22.27.33.29.34.54.21.2-.11.31-.12.51-.03.27.13.35.52.1.52-.08 0-.15-.07-.15-.16Zm24.54-1.28c-.08-.2.21-.66.42-.66.08 0 .22-.07.3-.15.09-.08.24-.15.33-.15.1 0 .24.07.31.15.2.25.38.17.6-.25.18-.36.23-.39.5-.34.33.07.7-.38.7-.88 0-.31.18-.47.31-.27.1.15.29-.03.29-.28 0-.07.05-.13.1-.13.13 0 .13.36 0 .61-.06.1-.17.19-.24.19-.08 0-.19.14-.26.3-.22.53-.49.8-.8.8-.22 0-.33.07-.45.29-.21.41-.5.48-.86.22l-.29-.22v.31c0 .3-.3.44-.45.2-.1-.17-.25-.11-.25.09 0 .26-.18.37-.26.17Z"/></svg>