<svg xmlns="http://www.w3.org/2000/svg" width="51" height="51" viewBox="0 0 51 51"><path fill="#fff" fill-rule="evenodd" stroke="#fff" stroke-width=".635" d="M24.76 43.08c-.24-.24-.43-.66-.75-1.58-1.01-2.92-3.25-8.89-3.53-9.42-.84-1.57-1.84-2.05-10.48-5.05-2.76-.95-3.01-1.14-2.87-2.16.11-.79.16-.82 3.92-1.97 7.85-2.41 8.19-2.54 8.95-3.37.72-.78.87-1.14 1.85-4.23 1.36-4.33 2.44-7.58 2.59-7.89.42-.8 1.61-.91 2.2-.2.25.3.66 1.48 1.74 5.09 2.02 6.7 1.96 6.54 2.73 7.35.79.83.92.88 10.77 3.91 1.6.5 2.09 1.04 1.82 2.05-.15.56-.43.73-2.35 1.42-7.65 2.77-9.21 3.43-9.89 4.18-.65.72-.59.57-2.95 7.09-1.57 4.32-1.68 4.59-2.1 4.87-.54.36-1.24.32-1.65-.09Zm1.62-.27c.19-.2.7-1.45 1.76-4.37 2.24-6.13 2.22-6.09 2.52-6.64.77-1.42 1.36-1.7 10.49-5.01 2.1-.77 2.25-.87 2.25-1.56 0-.93.35-.77-5.8-2.68-6.03-1.87-6.21-1.95-7.04-3.06-.54-.71-.67-1.1-3.73-11.21-.32-1.05-.91-1.46-1.65-1.15-.5.21-.31-.33-3.64 10.12-.42 1.31-.7 1.81-1.41 2.56-.78.82-1.29 1.01-9.32 3.49-3.32 1.02-3.41 1.07-3.41 1.75 0 .74.11.81 2.85 1.75 1.41.49 5.39 1.91 6.94 2.49 1.85.69 2.94 1.49 3.54 2.6.29.52 1.66 4.16 3.08 8.19 1.08 3.04 1.06 3.01 1.87 3.02.36 0 .49-.05.7-.29Zm-1.02-2.12c-.79-.22-.8-.25-2.88-5.94-.92-2.54-1.33-3.44-1.81-4-.35-.41-.39-.65-.09-.6.72.14.91.13.97-.05.07-.23.36-.33.9-.34.6-.01.59-.34-.02-1.25-.52-.77-.73-.79-.73-.07 0 1.07-1.6 1.66-2.9 1.07-.25-.11-.53-.21-.62-.21-.1 0-.18-.06-.18-.14 0-.07-.35-.26-.82-.44-.46-.18-1.82-.7-3.04-1.16-1.21-.47-2.32-.88-2.47-.91-.62-.16-.38-.83.45-1.24.38-.18.4-.21.17-.21-.71 0-.91.11-1.13.62-.24.55-.42.58-1.21.17-.5-.26-.55-.34-.55-.86 0-.64.28-.81 2.62-1.57 1.12-.35 3.23-1.03 4.7-1.51 4.24-1.36 4.41-1.55 6.07-6.85 1.82-5.8 1.92-6 2.82-6 .77 0 1.08.48 1.73 2.67 1.99 6.7 2.28 7.52 2.97 8.27.94 1.03 1.55 1.29 6.89 2.91 4.07 1.24 4.3 1.35 4.3 2.07 0 1.19-1.24 1.68-1.91.75-.22-.3-.39-.44-.63-.48l-.33-.05.31.31c.44.45.6.92.35 1.05-.32.18-5.51 2.2-6.16 2.41-1.83.58-2.84 1.73-3.78 4.29-.24.63-.81 2.19-1.27 3.45-1.36 3.7-1.67 4.12-2.72 3.84Zm.97-.57c.15-.15.27-.31.27-.35 0-.13-.51-.07-.75.09-.18.12-.28.13-.44.05a1.2 1.2 0 0 0-.47-.11h-.28l.29.3c.4.42.99.42 1.38.02Zm-.53-.91c0-.6-.52-.94-.89-.59-.11.11-.12.09-.06-.09.06-.2.03-.23-.25-.23-.7 0-.31 1.16.42 1.23.23.02.51.04.6.05.14.02.18-.06.18-.37Zm1.2-.31c.35-.9.35-.9.01-.9-.16 0-.33-.04-.36-.1s-.21-.1-.39-.1c-.22 0-.39-.08-.54-.25-.12-.14-.28-.25-.36-.25s-.21-.12-.28-.28c-.09-.19-.21-.27-.39-.27-.15-.01-.41-.13-.58-.28-.18-.15-.43-.27-.57-.27h-.24l.21.53c.12.28.28.7.35.92.14.39.16.41.57.41.99.02 1.69.44 1.71 1.04.02.54.63.4.86-.2Zm.37-1.28c.16-.1.45-.91.37-1.03-.1-.17-.81-.1-1.07.11s-.77.27-.77.1c0-.06-.13-.1-.3-.1-.16 0-.3.04-.3.08 0 .14.23.32.42.32q.18 0 .18.21c0 .17.05.2.35.18.19-.02.4.02.47.09.14.14.47.16.65.04Zm-.97-1.02c0-.21.63-.42 1.09-.37l.46.05.48-1.26c.26-.7.47-1.3.47-1.34 0-.28-.6.17-.72.53-.02.07-.19.02-.41-.11-.57-.34-1.45.04-1.35.59.05.27.25.22.31-.07.08-.39.67-.56.67-.2 0 .06-.06.08-.14.05-.22-.09-.5.17-.43.38.05.12.15.16.33.12.15-.03.23 0 .21.07-.08.26-.67.18-1.04-.14-.25-.23-.44-.31-.67-.29-.77.05-.95 0-1.11-.31-.26-.5-.98-.53-1.08-.04-.05.27.14.54.38.54.26 0 .29-.23.05-.42-.21-.17-.21-.18-.02-.18.35 0 .43.22.22.58-.22.36-.04.45.41.22.2-.11.28.03.09.15-.51.31-1.3-.01-1.3-.52 0-.14-.31-.33-.54-.33-.13 0-.13.04-.02.32.07.18.21.54.3.81.16.41.21.47.46.47.18 0 .43.12.64.31.33.29.37.3.86.21.43-.08.58-.06.88.09.43.21.52.23.52.09Zm0-2.56c.42-.39.81-.48 1.26-.29.28.12.4.13.43.04.07-.22.42-.5.71-.55.16-.04.31-.12.34-.2.07-.18.05-.17-.44.02-.39.16-.42.16-.94-.1-.71-.35-.91-.33-1.42.14-.59.54-.92.54-1.52-.01l-.44-.42-.97.06c-1.32.07-1.33.07-1.14.63.15.44.22.5.82.69.16.05.21.04.17-.04-.04-.06-.21-.15-.39-.2-.3-.09-.28-.1.23-.11.3-.01.7-.02.88-.02.22-.01.41.07.6.25.16.15.35.27.44.27s.19.04.22.09c.11.17.9-.01 1.16-.25Zm-.21-1.23c.2-.22.45-.41.56-.44.16-.04.14-.05-.06-.06-.15 0-.3-.08-.33-.18-.06-.14-.09-.14-.27.05-.24.27-.39.28-.4.05-.01-.17-.02-.17-.06 0-.05.21-.33.23-.33.02 0-.08-.04-.15-.09-.15s-.11.07-.15.15c-.1.28-.36.17-.36-.16 0-.25.04-.3.23-.29.49.04.73 0 .57-.1-.08-.05-.3-.07-.47-.04-.25.05-.33.03-.33-.09 0-.19.66-.33.85-.17.09.08.15.08.2 0 .1-.17.43-.11.54.09.11.19.4.35.49.27.02-.03-.03-.12-.12-.21a.6.6 0 0 1-.16-.35c0-.4-1.01-.56-1.55-.25-.25.15-.45.23-.45.18s.17-.18.38-.28l.37-.18-.35-.11c-.58-.18-.6-.21-.45-.71.17-.56.16-.56-.42.06-.64.69-.65.69-.48 1.26.13.44.19.5.51.59.39.09.69.43.47.51-.18.06.84.93 1.08.93.12 0 .38-.18.58-.39Zm2.81-.14c.21-.02.32-.17.67-.85.22-.46.55-1.01.73-1.23.28-.35.29-.4.13-.45-.1-.03-.32-.13-.49-.21-.54-.27-1.24.31-.85.7.08.08.11.05.11-.11 0-.23.38-.4.59-.27.2.12.12.54-.13.7-.27.18-.61.09-.88-.24-.23-.27-.38-.27-.35.01.02.17-.05.23-.31.29-.23.04-.32.03-.29-.05.02-.06.14-.12.26-.14.21-.03.21-.05.07-.27-.18-.28-.12-.35.31-.35.19 0 .32-.04.28-.09-.09-.16.46-.51.8-.51.18 0 .56.1.84.22.49.2.53.2.69.05.15-.16.13-.17-.36-.17-.57 0-.53.06-.57-.77-.01-.26-.22-.52-.5-.63-.19-.08-.19-.09.03-.09.22-.01.62.3.62.48 0 .05.1.11.22.13.16.02.25.12.29.33l.07.3.01-.28c.02-.46 1.42-.84 2.04-.56.31.14 1.07-.03 1.07-.24.01-.27.18-.41.34-.28.25.21.66.06.66-.23 0-.49.38-.68.7-.36.24.24.3.25.3.05 0-.58-.78-.7-1.26-.2-.18.19-.41.35-.51.35s-.3.14-.45.3c-.24.28-.31.3-.97.3-.63 0-1.07-.16-.73-.28.08-.02.08-.08-.02-.18-.24-.23-.37-.17-.26.11l.1.25h-.89c-.86 0-1.16-.1-1.1-.36.07-.32-.49-.62-.65-.35-.03.05-.29.09-.56.09-.48 0-.5-.01-.3-.15.11-.08.3-.13.43-.11.12.01.33-.05.47-.15.3-.21.69-.22.76-.02.08.19.2.19.27.01.05-.12-.06-.26-.59-.74-.25-.23-.91.02-1.7.64-.51.41-.88.59-1.51.73-.5.12-.52.14-.58.54a4.6 4.6 0 0 1-.3.94c-.26.58-.27.58.47.79 1.06.31 1.68.87 1.68 1.49 0 .27.01.27.18.12.38-.35.97-.04.85.44-.14.52-.82.59-1.22.13-.12-.14-.32-.24-.46-.24h-.26l.2.22c.42.44.74.59 1.16.53.22-.03.51-.06.65-.08Zm-6.26-.49a2.4 2.4 0 0 1-.06-.65v-.43H21.3l.17.35c.15.32.19.35.5.29.4-.07.63.08.63.42 0 .13.05.24.11.24s.08-.09.03-.22Zm.66-.37c0-.1-.07-.38-.15-.61-.2-.56-.14-.73.51-1.43.84-.91 1.05-1.48.84-2.26-.14-.53-.07-.63.14-.22.17.32.17 2.33.01 2.73-.05.13.02.19.37.28 1.71.44 1.73.45 1.76.73s.34.38.48.16c.12-.21-.35-.52-1.17-.79-1.05-.33-1.1-.42-.77-1.16.41-.92.41-1.28.01-1.32-.63-.06-.18-.32.55-.32.53 0 1.42-.33 1.82-.68l.41-.35-.39-.23c-.69-.41-.57-.55.17-.22l.68.31.34-.24c.56-.39.98-.81.93-.93-.06-.15.79-.61 1-.53.18.07.22.15.31.7.03.2.11.37.17.37s.08-.1.03-.27c-.03-.16-.09-.48-.13-.73-.09-.56-.23-.6-1.12-.29-.8.27-1 .22-1-.23 0-.18-.09-.46-.21-.63-.4-.6-1.52-2.9-1.31-2.71.16.14.3.17.59.12.5-.09.73-.09 1.06-.01.21.06.27.04.27-.08 0-.1.07-.14.23-.11.17.03.16.01-.05-.08-.35-.15-.36-.38-.02-.38.14 0 .23-.04.19-.1-.03-.05-.19-.1-.35-.1-.15 0-.5-.15-.78-.34-.27-.18-.62-.36-.78-.39s-.37-.09-.46-.12c-.14-.06-.18-.02-.18.14 0 .12-.06.21-.14.21-.56 0-.94 1.07-1.05 2.89-.11 1.96-.41 2.33-2.18 2.76-1.05.25-1.49.61-1.79 1.48-.15.44-.18.48-.43.42-.44-.1-.63.14-.72.9-.05.37-.16.79-.24.92-.16.24-.16.24.04.14.29-.16.51-.51.51-.83 0-.54.65-1.27.78-.88.02.06.26.45.53.85.57.85.61 1.17.24 1.82-.24.4-.25.45-.1.65.08.12.15.37.15.56 0 .31.16.61.33.62.04 0 .07-.08.07-.19Zm-3.57-2.52c.52-.14.77-.56.77-1.33 0-.67.44-1.26.94-1.26.14 0 .26-.04.26-.1 0-.05-.18-.1-.39-.1-.56 0-.92.34-1.15 1.06-.2.64-.6 1.09-1.05 1.19-.47.1-.47.41-.01.58.22.08.21.08.63-.04Zm7.66-.28c-.06-.16-.2-.32-.32-.35-.18-.05-.2-.08-.07-.16.2-.13.57-.13.65 0 .03.06.19.1.36.1.24 0 .29.04.29.25 0 .25.01.25.3.1.37-.19.71-.19.96 0 .18.14.16.15-.19.09-.26-.04-.44-.01-.62.1-.44.29-1.24.22-1.36-.13Zm-9.29-.56c0-.16.06-.25.16-.25.12 0 .15-.07.11-.26-.02-.15.02-.38.11-.53.1-.19.13-.38.08-.64l-.07-.37h-5.02l.2.22c.11.13.23.29.27.36.13.22-.05.12-.34-.2-.26-.28-.37-.32-.92-.36-.78-.05-.7.04.38.46l.8.32.42-.2c.49-.24.99-.26 1.3-.04.19.13.22.13.22 0 0-.16.34-.31.5-.21.05.03.1.15.1.26 0 .1.07.19.15.19s.15-.09.15-.2c0-.16.07-.2.35-.2.32 0 .35.02.35.3v.3l-.72.01c-.59.01-.66.03-.4.09.4.09.78.43.86.75.04.16.17.26.43.33.54.14.53.14.53-.13Zm13.65-.95c.82 0 .91-.08.46-.39-.35-.25-.45-.26-.61-.06-.27.32-.79-.49-.8-1.23 0-.66-.15-.87-.45-.62-.13.11-.12.16.11.36.27.26.33 1.57.09 2.09-.09.19-.08.2.18.02.19-.12.47-.17 1.02-.17Zm6-.51c1.34-.52 1.3-.5 1.11-.87-.18-.34-.57-.65-1.12-.88-.25-.11-.33-.18-.25-.23.07-.05.11-.19.09-.32-.05-.37-.76-.39-1.01-.04-.17.24-.17.25.03.25.11 0 .2-.04.2-.1 0-.05.07-.1.15-.1.21 0 .19.26-.03.36-.09.05-1.07.11-2.17.14l-2 .06 2.1.03c2.4.03 2.32.15-.18.27-1.44.06-1.57.08-1.57.26 0 .15.05.17.25.12s.25-.02.26.12c.01.17.02.17.06.02.07-.28.61-.24.73.04l.09.23v-.23c.01-.27.58-.33.68-.06.05.15.07.15.15 0 .15-.26.78-.22.78.06v.22l.19-.21c.36-.38 2.39-.21 2.15.18-.03.05-.14.09-.25.09-.17 0-.66.23-1.65.78-.31.17-.31.36-.02.27.13-.04.68-.25 1.23-.46Zm-18.3-.19c.07-.34.36-.54.64-.45.1.03.35-.02.56-.11.28-.11.53-.14.87-.1.46.06.48.05.85-.35.21-.24.37-.48.37-.56-.02-.15.13-.18.18-.04.11.31 2.3-.55 2.58-1.02.23-.38.18-.47-.13-.2-.33.3-.56.42-.38.2.16-.2-.1-.36-.32-.2-.3.24-.56.22-.46-.04.23-.62-.03-.85-.39-.35-.29.38-.52.18-.34-.31.18-.51.16-.58-.14-.47-.58.23-.63-.16-.06-.51.31-.19.34-.23.17-.27-.31-.06-.38-.17-.3-.52.04-.2.12-.3.2-.26.07.02.21-.02.32-.09.1-.08.26-.15.37-.15.16 0 .16-.02-.05-.19-.25-.2-.14-.51.17-.51.17 0 .18-.11.02-.45-.24-.54.7-.96 1.22-.55.33.26.46.25.66-.05.12-.19.25-.25.53-.26l.36-.01-.35-.15c-.78-.33-.89-.68-.38-1.2.41-.42.91-.45 1.27-.08.13.14.21.28.17.32-.03.03-.06 0-.07-.08s-.07.11-.15.41c-.15.62-.03.95.22.63.13-.17.15-.17.29.01.08.11.21.16.3.12.1-.04.19.02.24.17.12.3.42.56.79.66l.3.09-.18-.31c-.09-.18-.3-.69-.45-1.14-.2-.58-.34-.85-.48-.89-.15-.05-.17-.08-.06-.14.22-.14 0-.83-.29-.9-.24-.05-.27-.26-.04-.24.19.03-.02-.86-.65-2.64-.27-.78-1.3-1.72-1.88-1.72-1.05 0-2.41 1.73-2.05 2.6.15.36.33.4.24.06-.08-.33.3-1.16.72-1.57.44-.43.43-.33-.06.5-.5.85-.49 1.41.04 1.41.07 0 .21.09.3.19.27.3-.05.55-.9.71-1.13.21-1.05.13-1.53 1.65-.5 1.56-.86 2.19-1.85 3.13-.47.45-.61.65-.51.69.23.08.43-.04.47-.29.04-.28.39-.36.58-.13.11.13.09.15-.13.15-.19 0-.26.07-.31.27-.12.44.27.56.79.25.24-.15.35-.16.58-.08.22.09.34.07.59-.07.39-.22.51-.12.18.15-.19.16-.35.19-.72.16-.68-.07-.86.08-.64.51.43.82-.5 1.44-1.43.96-.66-.33-.46-1.45.26-1.45.13 0 .23-.04.23-.1 0-.05-.13-.1-.29-.1-.17 0-.32-.04-.36-.09-.03-.06-.21-.03-.43.06-.2.09-1.02.37-1.82.62-1.05.34-1.46.51-1.48.64-.02.09.02.17.09.17.19 0 .49.31.49.51 0 .1.13.25.3.34.16.08.34.24.39.34.14.26 1.28.79 1.76.83.51.04.54.29.05.44-.34.11-.51.36-.32.48.06.03.08.32.05.66l-.06.6h.31c.26 0 .31-.05.37-.3Zm17.44-.12.45-.28h-2.25c-2.4 0-2.4 0-2.31.32.05.2.09.21 1.57.14 1.22-.05 1.55-.03 1.7.08.11.08.24.11.3.08.05-.03.3-.19.54-.34Zm-4.39-.08a.8.8 0 0 1 .2-.5c.23-.23.26-.5.06-.5-.15 0-.66-.37-.66-.49 0-.04.3-.17.68-.29.88-.29 1.03-.39.8-.53-.34-.19-.11-1.09.27-1.09.11 0 .41-.71.32-.75-.01-.01-.62-.2-1.35-.44-1-.33-1.48-.54-1.92-.86l-.58-.43-.06.29c-.04.23-.12.31-.36.35-.19.04-.3.13-.3.23 0 .52-.79.78-1 .33-.05-.13-.1-.29-.1-.37s-.09-.15-.2-.15-.2.03-.2.08c0 .12.75 1.54 1.04 1.96.14.21.26.49.26.62 0 .3.17.31.92.04.43-.15.64-.17.82-.1.25.09.28.17.4.88.03.18.17.49.3.68.19.29.23.42.15.61-.12.32-.12.29.13.53.3.27.38.25.38-.1Zm-20.45-.4c.07-.21.57-.3.53-.09-.02.06.03.14.1.16.07.03.12-.04.12-.16 0-.2.06-.21.93-.22.83-.01 1.8-.15 1.21-.18a.57.57 0 0 1-.34-.16c-.07-.08-.29-.15-.49-.15l-.36-.01.3-.14c.27-.13.27-.14.05-.1-.14.02-.47.07-.75.1-.89.12-1.85.67-1.85 1.06 0 .19.49.09.55-.11Zm3.79-.56c.04-.1-.01-.22-.11-.29-.1-.08-.15-.17-.1-.21.04-.04.07-.02.07.05 0 .08.05.09.19.01.27-.14.41-.13.41.05 0 .08-.04.15-.1.15-.05 0-.1.09-.1.2 0 .25.04.25.57-.01.37-.18.42-.24.37-.45-.05-.18-.02-.24.1-.24.2 0 .17-.27-.07-.64-.2-.29-.57-.22-.57.12 0 .2-.69.46-.84.31-.06-.06-.06-.09.02-.09.07 0 .12-.11.12-.25 0-.26-.26-.33-.77-.19-.49.13-.51 1.24-.02 1.24.1 0 .28.09.39.2.24.24.36.25.44.04Zm-4.65-.68c.07-.08.21-.12.31-.09.24.06.28-.24.05-.33a.31.31 0 0 1-.15-.26c0-.17.03-.18.15-.08s.15.09.15-.05c0-.21-.35-.16-1.1.16-.65.28-.76.76-.15.66.19-.03.37-.01.4.04.09.13.21.11.34-.05Zm1.75.08c.09-.03.16-.13.16-.22 0-.12.03-.13.12-.04.23.23.51.15.46-.13-.06-.3.14-.49.42-.4.43.14.66-.29.24-.45-.15-.06-.24-.16-.21-.24.1-.25-.08-.38-.36-.27-.3.12-.36.23-.1.19.1-.02.19.04.2.12.03.11-.06.15-.32.17-.24.01-.35-.03-.35-.13 0-.18 0-.18-.68.03-.32.09-.49.19-.39.21.21.04.23.32.02.32s-.29.24-.15.49c.12.23.5.29.51.09 0-.07.05-.03.11.1.12.25.11.24.32.16Zm26.34-.06c.1-.1.17-.1.31-.01.22.14.31.08.31-.2 0-.1-.08-.21-.19-.24-.12-.03-.17-.11-.14-.23.06-.21-.22-.33-.79-.33-.21 0-.38-.05-.38-.11s-.05-.03-.11.07c-.05.09-.17.17-.24.17-.1 0-.15.11-.15.35 0 .39.21.55.44.36.11-.09.15-.07.19.09.06.23.55.28.75.08Zm-3.63-.28c.03-.06.16-.08.29-.04.48.12.62-.66.14-.8-.2-.06-.21-.08-.07-.19.23-.18.3-.54.12-.61-.11-.04-.13-.02-.09.09.04.12-.02.15-.29.15-.34 0-.48-.14-.23-.22.19-.07-.02-.29-.25-.27-.12.02-.33-.03-.46-.1-.17-.09-.26-.1-.34-.02s-.06.11.06.11c.09 0 .17.04.17.1s-.09.1-.2.1c-.24 0-.27.31-.05.54.21.2.19.29-.05.23-.11-.03-.23-.01-.26.04-.03.06-.14.07-.25.04-.14-.05-.19-.02-.19.1 0 .13.06.16.22.12.33-.09.58.1.58.43 0 .3.01.3.54.3.3 0 .58-.05.61-.1Zm-16.65-.1a.84.84 0 0 0-.36-.1.5.5 0 0 1-.35-.16c-.07-.09-.25-.21-.39-.27-.2-.08-.22-.11-.07-.14.09-.03.17-.08.17-.13 0-.33.67-.53.89-.26.06.07.22.11.35.09.16-.03.3.03.45.18.25.27.27.39.05.39-.08 0-.13-.04-.1-.09.09-.14-.21-.33-.54-.35-.16 0-.3-.04-.3-.08 0-.15-.58-.08-.64.07-.14.37.29.74.64.55.16-.08.2-.08.18.02-.04.2.5.22.78.03.3-.19.32-.02.02.19-.25.18-.56.2-.78.06Zm-2.6-.75c.08-.09.08-.15.02-.15s-.12-.1-.14-.22c-.02-.19-.09-.23-.42-.23-.22 0-.41-.05-.43-.13-.03-.06.02-.12.11-.12s.16-.07.16-.15c0-.19.05-.19-.73.05-.59.18-.64.22-.59.45.02.15.11.25.22.25.1 0 .23.07.3.15.09.11.23.14.46.09.18-.03.41-.01.51.05.25.14.38.14.53-.04Zm14.26-.15c-.82-.25-.52-1.5.36-1.5.83 0 1.27.82.73 1.35-.25.26-.57.3-1.09.15Zm1.05-.46c.15-.42-.11-.74-.61-.74-.43 0-.7.2-.7.54 0 .53 1.11.7 1.31.2ZM21.11 23c.23-.13.26-.71.05-.89-.66-.55-1.79.14-1.2.73.21.21.21.21.17-.16-.03-.25-.02-.3.06-.18.06.08.11.23.11.32 0 .27.45.37.81.18Zm3.58-5.36c-.33-.18-.5-.92-.24-1.07.1-.05.14-.16.1-.28-.07-.2.18-.28.3-.09.03.05.12.07.19.04.08-.03.17-.01.21.05.21.36 1.21 0 1.6-.56.83-1.23-.23-2.52-1.72-2.1-.66.18-.76.16-.38-.09 1.12-.73 2.65.03 2.65 1.31 0 .74-.7 1.65-1.39 1.8-.28.06-.31.1-.31.45 0 .56-.49.82-1.01.54Zm.01-5.69c.19-.1.48-.24.63-.32.27-.14 1.37.23 1.37.46 0 .04.09.12.2.19.34.21.23-.07-.15-.41-.19-.17-.35-.36-.35-.43 0-.41-1.45-.22-1.96.25-.36.33-.62.89-.28.6.11-.09.35-.24.54-.34Zm.34-.9c.26-.09.62-.15.8-.14.18.02.42-.04.56-.14l.23-.16-.18-.41c-.5-1.11-1.31-.94-1.85.39-.34.83-.35.88-.17.73.07-.06.34-.18.61-.27Z"/></svg>