<svg xmlns="http://www.w3.org/2000/svg" width="51" height="51" viewBox="0 0 51 51"><path fill="#fff" fill-rule="evenodd" stroke="#fff" stroke-width=".724" d="M19.76 39.32c-.22-.31-1.03-1.47-1.81-2.57C16.07 34.1 10.44 26.1 9.6 24.9 8.15 22.82 8 22.6 8 22.5c0-.06.97-.1 2.73-.1h2.73l2.45 3.28c1.35 1.8 3.57 4.81 4.94 6.69l2.5 3.42h3.08c1.69.01 3.07-.02 3.07-.05 0-.08-1.19-1.81-3-4.34-3.02-4.24-13.14-18.56-13.73-19.45-.15-.21-.23-.42-.19-.46s4.68-.08 10.32-.1c10.06-.02 10.27-.02 11.41.19 5.32.97 8.79 4.97 8.79 10.12 0 5.35-4.01 9.73-9.39 10.26-.56.05-.71.1-.67.21.03.07.91 1.29 1.94 2.71 2.21 3 3.42 4.7 3.49 4.89.04.11-1.53.13-9.13.13l-9.19-.01zm17.98-.29c-.26-.38-1.09-1.51-1.83-2.53-2.51-3.43-3.21-4.42-3.21-4.54 0-.07.39-.16 1.03-.24 4.44-.53 7.84-3.42 8.89-7.58.3-1.16.32-3.69.05-4.78-.81-3.25-3.2-5.9-6.32-7.02-2.14-.76-2.04-.76-13.4-.74-5.55 0-10.11.02-10.12.04-.02.02.54.84 1.24 1.82s1.95 2.76 2.78 3.94c2.55 3.63 9.25 13.1 9.93 14.04 1.6 2.22 3.02 4.29 3.02 4.42 0 .12-.53.14-3.27.14l-3.28-.01-1.95-2.67c-1.07-1.47-3.29-4.48-4.94-6.7l-2.99-4.02h-2.54c-1.39 0-2.53.02-2.53.04 0 .04 1.78 2.61 2.91 4.21.47.66 1.84 2.6 3.04 4.3 3.39 4.81 5.55 7.87 5.82 8.23l.24.32h17.91zm-7.21-10.9c-.5-.05-.39.07-2.6-2.88-.86-1.16-2.86-3.83-4.45-5.93-1.83-2.43-2.87-3.89-2.84-3.99.09-.22 11.17-.13 12.21.1 3.65.81 5.62 3.15 5.41 6.42-.27 4.28-3.32 6.75-7.73 6.28Zm3.02-.38c2.39-.63 3.9-2.35 4.41-5.03.68-3.55-1.29-6.23-5.21-7.09-.85-.19-11.85-.32-11.85-.15 0 .05.26.43.57.83.31.41 2.27 3.01 4.35 5.79 4.83 6.44 4.27 5.78 4.91 5.83.85.07 2.18-.01 2.82-.18Z"/></svg>