<svg xmlns="http://www.w3.org/2000/svg" width="51" height="51" viewBox="0 0 51 51"><path fill="#fff" fill-rule="evenodd" stroke="#fff" stroke-width=".362" d="M7.85 43.91a1.87 1.87 0 0 1-1-1.03c-.13-.33-.15-1.61-.15-10.78 0-9.03-.02-10.4-.15-10.4-.1 0-.15.16-.18.63l-.03.62-.02-.72c-.02-.66-.04-.72-.24-.75-.27-.04-.29-.21-.47-4.53-.06-1.43-.14-2.84-.17-3.13-.05-.52-.05-.52.25-.58.17-.04.31-.1.31-.15s.09-.19.21-.31c.33-.37 1.11-1.5 1.06-1.54-.11-.11-1.47.5-1.73.77l-.29.3.04 4.08c.03 3.73.02 4.08-.13 4.14-.27.11-.28-.03-.29-4.2-.02-4.63-.06-4.42.98-4.99 1.37-.75 5.48-1.43 6.13-1.01.26.17-.02.27-.81.27-.45 0-.89.05-.97.1-.12.08-.12.1-.01.1.18 0 1.96 1.75 3.09 3.03l.87.98.55-.06c.93-.1 3.04-.46 3.19-.55.1-.05.05-.1-.18-.18-.21-.07-.31-.18-.31-.31s-.08-.21-.22-.23c-.15-.02-.24-.11-.26-.25a.29.29 0 0 0-.25-.25c-.13-.02-.23-.12-.27-.28s-.14-.26-.28-.28c-.13-.02-.24-.13-.28-.28s-.13-.24-.26-.24c-.12 0-.23-.11-.29-.3-.07-.19-.18-.3-.3-.3s-.19-.07-.19-.2-.07-.2-.18-.2c-.21 0-.42-.18-.42-.37 0-.06-.12-.24-.26-.38-.38-.38-.28-.57.36-.72 1.01-.24 4.31-.83 4.6-.83.34 0 1 .36 1 .55 0 .07.11.16.25.19.18.05.25.13.25.31 0 .17.06.25.18.25.23 0 .42.19.42.41 0 .11.09.19.23.21s.23.11.25.25.11.23.25.25.23.11.25.25c.02.13.13.24.28.27.19.05.24.13.24.36 0 .25.04.3.25.3.18 0 .26.07.31.25.04.15.13.25.25.25.1 0 .22.07.27.16.08.14.27.12 1.9-.1 2.14-.31 2.11-.3 1.92-.12-.08.07-.71.21-1.4.31-2.13.3-2.32.33-2.38.39-.03.03.25.06.61.06 1.1 0 .76.16-.61.28-.7.07-2.06.28-3.02.48-1.57.32-1.89.37-2.32.32-.21-.02-2.91.43-3.13.52-.14.06.03.09.5.09.88.01 1.47.11 1.42.24-.02.06-.88.1-2.17.12-1.18.01-2.42.06-2.76.1l-.6.07.18.22c.1.11.34.44.53.71.34.48.35.49.29.17l-.07-.33.69.03c.67.03.69.04.72.31l.03.27h4.48l.16-.3.16-.3h2.43c2.67 0 2.76.01 2.76.36V17h4.18l.12-.3.13-.3 2.71.02 2.71.03-.03.28-.03.27h4.26l.26-.31.25-.31 2.5.08c2.21.08 2.49.11 2.46.25-.03.2.35.29 1.29.29.39 0 .69.04.69.1s-.41.1-1.04.1h-1.03l-.13.46c-.07.25-.19.48-.26.51-.07.02-.16.18-.19.34-.04.16-.12.32-.19.36-.07.05-.22.29-.34.56-.12.26-.26.47-.31.47s-.12.11-.15.25c-.04.14-.11.25-.16.25-.06 0-.1.06-.1.14s-.07.21-.15.3c-.08.08-.19.26-.25.41-.05.14-.14.24-.19.2-.05-.03-.13.04-.16.16-.08.25-1.58.22-3.2-.07-.44-.08-.92-.14-1.07-.14-.26 0-.46-.15-.35-.27.03-.02.54.03 1.14.12.59.09 1.56.19 2.14.22l1.06.06.23-.39c.13-.21.3-.43.37-.47s.13-.14.13-.21.09-.23.2-.36c.1-.12.29-.42.41-.66.11-.24.25-.46.3-.5.05-.03.09-.14.09-.24s.06-.23.14-.27c.07-.04.21-.26.31-.48s.24-.47.3-.55c.48-.6.05-.7-3.04-.7l-1.46.01-.33.52c-.17.28-.32.6-.32.69s-.04.19-.09.23c-.05.03-.53.79-1.07 1.69-.61 1.03-1.06 1.68-1.21 1.75-.12.06-.23.14-.23.19 0 .08 4.66.22 7.52.22.75 0 1.42.02 1.5.05.17.07.14 20.34-.02 20.66-.22.4-.68.52-2.19.57-1.05.03-1.42.02-1.37-.07.04-.06.38-.11.84-.12 1.98-.01 2.45-.18 2.57-.94.06-.37.05-.39-.09-.21-.09.11-.17.18-.19.15-.02-.02 0-4.45.05-9.84.04-5.38.05-9.82.02-9.85-.08-.08-33.17-.13-34.81-.05l-1.43.07v10.03c0 9.83 0 10.03.2 10.27l.19.25 8.21.05c5.57.03 8.23.07 8.31.15.18.18-16.53.12-16.75-.06-.47-.4-.46-.05-.46-10.84V22.13l.92-.07c.5-.03 2.06-.06 3.47-.06 5.75 0 9.01-.11 9.01-.31 0-.21-4.63-.2-4.84.01-.3.3-.43.09-.17-.28.85-1.25 2.41-3.86 2.41-4.05 0-.04-.92-.07-2.04-.07h-2.04l-.04.63c-.04.55-.49 1.92-.77 2.37-.19.28-.23 0-.07-.4l.16-.4-.88-1.33c-.49-.72-1.15-1.75-1.47-2.27-.33-.52-.8-1.22-1.06-1.55s-.46-.64-.45-.7c0-.06-.65-.11-1.76-.13L5.9 13.5l.01 2.32c.03 4.23.1 5.32.37 5.36.12.02.22.08.22.13s.12.09.27.09h.26l-.07-1.19c-.08-1.5-.08-1.51.59-1.51h.54l.06.55c.1.76.05.85-.5.85H7.2v1.2h2.39l.03-1.27.03-1.28.63-.03.62-.03v.63c0 .35.03.94.07 1.31l.06.68 1.58-.03c1.42-.03 1.83.02 1.67.17-.03.03-1.66.09-3.62.12l-3.56.06v10.46c0 11.72-.05 10.91.71 11.36.34.2.54.2 17.63.23 18.62.02 18.18.04 18.73-.5.53-.51.54-.61.43-5.94-.05-2.69-.1-7.37-.1-10.4v-5.5l.43-.1c.32-.07.42-.14.42-.29s.06-.19.21-.17c.39.05.48-3.88.1-4.26-.25-.26-3.81-.32-17.41-.31-12.26.01-12.6.01-12.57-.17a.6.6 0 0 1 .08-.23c.08-.09 26.7-.01 28.2.08 2.4.14 2.36.07 2.32 3.1-.03 2.3-.02 2.23-.58 2.35-.25.05-.25.07-.22.86.02.52 0 .8-.07.8s-.11-.28-.11-.76c0-.72-.01-.75-.22-.72l-.23.03.03 6c.02 3.3.08 7.91.13 10.25.11 4.89.1 4.99-.56 5.66-.25.24-.59.47-.81.53-.79.22-35.31.14-35.79-.08Zm10.1-1.92c-1.54-.03-4.18-.07-5.86-.08l-3.06-.01-.07-.87c-.23-2.97-.46-17.83-.27-17.83.08 0 .11.84.11 2.98 0 1.63.04 4.32.1 5.97.05 1.65.15 4.44.2 6.19.06 1.76.11 3.21.13 3.22.06.06 11.85.27 15.99.29 2.63.01 4.8.04 4.83.07.18.18-6.03.22-12.1.07Zm15.15-.08c0-.07.21-.11.52-.11.48 0 1.99-.07 5.73-.26.89-.04 1.27-.03 1.2.04-.09.09-1.16.16-6.07.38-.98.04-1.38.03-1.38-.05Zm8.4-.51c0-.06-.78-.1-2.14-.1h-2.14l-.07-2.07c-.04-1.15-.06-4.06-.03-6.48.03-2.81.02-4.04-.04-3.4-.05.55-.12 3.45-.16 6.45l-.07 5.45-2 .03-2 .02.02-2.42c.02-1.34.05-2.8.09-3.26l.06-.82h3.56l.06-1.03c.1-1.72.28-7.31.24-7.47-.03-.13.29-.15 2.32-.18 2.64-.03 2.5.02 2.5-.84 0-.31.05-.6.1-.63.06-.03.1-.17.1-.3s.05-.27.1-.3c.12-.07.14 3.29.03 4.98-.08 1.44-.22 1.35-.25-.15-.02-.68-.05 1.85-.08 5.62-.03 4.51-.02 6.88.05 6.92.06.04.02.08-.07.08-.1 0-.18-.04-.18-.1Zm-24.1-.3c-.05-.03-.07-1.35-.03-3.13l.06-3.07h3.37v6.31l-1.66-.03c-.91-.02-1.69-.05-1.74-.08Zm-3.02-.07c-.73-.04-.78-.05-.78-.26 0-.12.07-1.03.15-2.02s.15-2.19.15-2.67c0-1.26-.11-1.18 1.51-1.18h1.39v6.2l-.82-.02c-.46-.01-1.18-.04-1.6-.05Zm-4.33-.16c-.03-.07-.04-1.43-.03-3.02l.03-2.9 1.43-.03 1.42-.03v1.24c0 .68-.03 2.06-.07 3.05L12.77 41h-1.34c-.98 0-1.35-.03-1.38-.13ZM34.9 39.7v-1.3h-1.7V41h1.7zm1.7.06c0-1.4.03-1.36-.92-1.36h-.48V41h1.4zm1.02.42c-.01-.46.01-1.84.05-3.08l.08-2.25h2.7l.05 3.05c.03 1.68.07 3.06.08 3.08.01.01.2.02.42.02h.4v-6.84c0-3.76.03-7.04.06-7.3l.07-.46H37.2l.01.68c.01.37.03.59.06.5.15-.59.18.51.15 6.62-.03 5.56-.01 6.8.1 6.8.1 0 .12-.2.1-.82Zm2.65-.3c-.04-.62-.07-1.95-.07-2.95V35.1h-2.17l-.06 2.02c-.04 1.12-.07 2.45-.07 2.96V41h2.43zM20.5 38.06V35.2h-2.77l-.06 2.77c-.03 1.52-.04 2.79-.03 2.82.02.03.68.08 1.45.09l1.41.04zm-4-.06v-2.81l-1.12.03-1.13.03-.02.6c-.03.78-.22 3.54-.3 4.27l-.06.57 1.04.04c.57.01 1.16.04 1.32.05l.27.02zm-3.97 1.12c.04-.86.07-2.1.07-2.74V35.2h-2.3v5.5h2.17zm9.67-.46c0-.57.04-.96.1-.96s.1.36.1.89c0 .5-.04.93-.1.96-.06.04-.1-.28-.1-.89Zm3.15.27c-.16-.01-.55-.06-.85-.09-.47-.05-.52-.08-.37-.18.14-.11.09-.15-.42-.27-.33-.08-.6-.18-.6-.22 0-.05-.18-.21-.4-.37-.5-.37-1.12-1.14-1.46-1.83-.24-.5-.53-1.82-.42-1.93.06-.06 9.98-.06 10.04 0 .07.07-.18 1.18-.33 1.48-.08.15-.14.36-.14.48 0 .11-.06.2-.14.2s-.18.09-.21.21c-.09.27-1.21 1.46-1.45 1.54-.11.03-.17.12-.14.19.03.09-.07.15-.33.2-1.13.19-1.79.36-1.26.31.48-.04.83.09.51.19-.2.07-1.7.13-2.03.09Zm17.55-3.17c0-2.11.04-3.26.1-3.26s.1 1.13.1 3.19c0 2.03-.04 3.22-.1 3.26-.07.04-.1-1.05-.1-3.19Zm-15.94 2.53c.32-.05.71-.19.86-.3.15-.1.34-.19.43-.19.59 0 2.05-2.08 2.05-2.91 0-.22.04-.39.1-.39s.1-.07.1-.17c0-.14-.11-.15-.97-.1-.54.04-2.66.07-4.71.07h-3.74l.07.43c.2 1.26 1.63 3.17 2.38 3.17.09 0 .17.05.19.11.1.31 2.1.49 3.24.28Zm9.64-1.69v-1.5h-1.64c-1.94 0-1.76-.17-1.76 1.66v1.34h3.4zm-23.15-3.55c-.06-.02-.49-.07-.98-.1-.48-.04-.85-.11-.81-.16.05-.08.27-.07 1.72.07.29.03.5.1.47.15-.06.09-.21.11-.4.04Zm17.52-.19c-1.91-.71-2.82-2.93-1.92-4.7.16-.32.38-.64.47-.7.1-.06.18-.16.18-.23s.14-.19.3-.28.3-.2.3-.25c0-.06.11-.1.25-.1.15 0 .25-.06.25-.14 0-.16.14-.22.82-.31.5-.07.92.01.83.16-.04.05.03.09.14.09 1.91 0 3.36 2.76 2.42 4.63-.76 1.54-2.59 2.37-4.04 1.83Zm-7.47-.46c0-.06.7-.1 1.89-.1 1.16 0 1.92.04 1.96.1.04.07-.62.1-1.89.1-1.24 0-1.96-.04-1.96-.1Zm9.65-.01c2.33-.59 2.56-4.27.34-5.38-.86-.43-2.95-.42-2.86.02.01.07-.07.12-.18.12-.3 0-.45.13-.45.41 0 .17-.06.24-.19.24-.27 0-.48.39-.41.79.04.31.06.33.19.18.4-.5 1.03-.12.98.59l-.03.49-.57.01c-.55 0-.57-.01-.57-.25 0-.41-.26-1.06-.34-.86-.43 1.13.49 3.21 1.59 3.6.48.17 1.9.19 2.5.04Zm-16.78-.46c.08-.92.02-.86 1.33-1.34 1.23-.45 1.35-.53.99-.62-.3-.08-.14-.27.24-.27.57 0 .14-.2-.57-.27-.57-.05-1.04-.22-.64-.23.07 0 .04-.06-.07-.13-.14-.09-1.25-.13-3.93-.17-4.77-.06-5.13-.24-.56-.28l3.22-.02-.05-.64c-.08-.96-.27-.99 3.39.45 2.43.96 2.42.96 2.52 1.5.09.51.09.51-4.02 1.95-1.93.68-1.91.68-1.85.07Zm-6.27-.03c.09-.06 1.1-.1 2.35-.1 1.46 0 2.15.04 2.05.1-.09.06-1.1.1-2.35.1-1.46 0-2.15-.04-2.05-.1Zm9.35-.87c1.32-.47 2.42-.87 2.44-.89.34-.3-1.59-1.24-4.86-2.38l-.43-.15v.32c0 .46.02.47 1.7 1.03 1.28.42 1.88.74 1.38.74-.06 0-.03.06.08.14.27.2.22.23-1.49.86l-1.52.56-.03.39c-.03.33-.01.37.15.31.1-.04 1.26-.46 2.58-.93Zm5.91.89c-.07-.11.62-.2 2.14-.27 1.41-.06.97.1-.54.2-.55.03-1.13.08-1.28.11-.14.03-.29.01-.32-.04Zm12.71-.19c-.09-.08-.09-.9 0-2.27l.06-1.07 1.11.03 1.11.03.03 1.67.02 1.68h-1.13c-.63 0-1.17-.03-1.2-.07Zm-14.67-.14c0-.12.93-.19 2.39-.19.92 0 1.4.04 1.31.1-.18.1-3.7.19-3.7.09Zm-13.1-.09c0-.06.85-.1 2.38-.09 1.31.01 2.24.05 2.07.09-.46.12-4.45.12-4.45 0Zm29.78-1.38-.03-1.37h-.77c-.96.01-.87-.13-.94 1.43l-.07 1.32h1.84zm-8.3 1.11c-.72-.05-.79-.33-.25-1.04.19-.24.39-.54.46-.66.15-.29.35-.3.28-.02-.06.21-.05.21.19-.02.37-.35.3-.39-.56-.39-.65 0-.8-.03-.8-.15 0-.23 1.93-.18 1.98.05.01.08-.31.54-.72 1.01l-.74.87.45.06c.25.03.59.06.74.06.19 0 .29.05.29.15 0 .16-.03.16-1.32.08Zm-6.98-.43c0-.06.68-.1 1.85-.1s1.85.04 1.85.1-.68.1-1.85.1-1.85-.04-1.85-.1Zm-1.6-.6c0-.06.8-.1 2.2-.1s2.2.04 2.2.1-.8.1-2.2.1-2.2-.04-2.2-.1Zm-.26-.51c-.06-.11 4.37-.2 4.96-.1.41.06-.17.09-2.18.12-1.51.02-2.76.01-2.78-.02Zm1.76-.56c0-.12.63-.2 2.23-.29.76-.05 1.17-.04 1.17.03 0 .06-.6.13-1.48.17-.81.03-1.57.09-1.69.12-.13.04-.23.02-.23-.03Zm-3.1-2.48V24.7H10.2v3.39l1.22.03c.88.02 1.23.07 1.26.16.03.1-.26.12-1.35.1l-1.38-.03-.03-1.98-.02-1.97 5.97.02 5.98.03.03 2.08c.02 1.8 0 2.07-.13 2.07s-.15-.27-.15-1.95Zm1.82 1.7c.15-.16 5.18-.41 5.18-.27 0 .05-.66.12-1.48.16-.81.03-1.99.09-2.62.12-.63.04-1.12.03-1.08-.01Zm7.44-.14c-.1-.16.05-.19 1.24-.21 1.41-.03 1.47-.02 1.35.09-.14.12-2.52.24-2.59.12Zm-19.7-1.09c-.02-.04-.08-.35-.11-.68-.09-.76.01-.86.82-.82.57.03.58.03.61.36.02.18-.01.32-.07.32s-.11-.09-.11-.2c0-.17-.07-.2-.5-.2h-.5v1h.63c.76 0 .95-.12.99-.65.04-.58.22-.49.26.13l.03.52h.99v-.4c0-.38-.01-.4-.32-.4-.23 0-.29-.03-.21-.11.06-.06.26-.09.44-.07.37.03.56.8.28 1.14-.16.19-1.27.2-1.35 0-.05-.12-.09-.12-.32 0-.29.15-1.47.19-1.56.06Zm3.64-.62c0-.59.01-.6.48-.15.2.19.4.35.45.35.04 0 .07.05.07.1 0 .18-.23.1-.52-.17l-.28-.27v.32c0 .18-.04.32-.1.32s-.1-.22-.1-.5Zm8.9.41c0-.08.74-.11 2.42-.11 1.33 0 2.39.02 2.37.04-.11.1-4.79.17-4.79.07Zm-6.1-.6c0-.13-.08-.21-.22-.23-.13-.02-.22-.07-.21-.13.04-.14 1.03-.19 1.03-.06 0 .06-.09.11-.2.11-.15 0-.2.07-.2.25 0 .14-.04.25-.1.25s-.1-.09-.1-.19Zm6.01-.05c.1-.08 5.39-.14 5.39-.05 0 .05-1.12.09-2.72.09-1.49 0-2.69-.02-2.67-.04Zm-.15-.66c.07-.07.92-.12 2.45-.15 1.95-.03 2.12-.02 1.04.05-3.2.2-3.6.21-3.49.1Zm1.74-.7c-1-.05-.87-.06.95-.08 1.22-.01 2.16.02 2.25.08.16.11-1.18.11-3.2 0Zm13.76-.01c-1.02-.11-1.16-.17-.41-.18.79-.01 1.65.1 1.65.2s-.12.1-1.24-.02Zm-25.7-1.28c.05-.05.58-.14 1.19-.2.61-.07 1.82-.2 2.7-.3 1.37-.16 2.43-.13 1.44.03-1.64.28-5.49.62-5.33.47ZM25.4 21.8c0-.19-.07-.2-1.85-.2-1.58 0-1.85-.02-1.85-.15s.29-.15 1.98-.15h1.98l.57-.98c.31-.55.78-1.41 1.04-1.93s.51-.97.57-1.01-.84-.08-2-.08h-2.12l-.16.4c-.09.22-.24.48-.35.59-.1.1-.25.35-.32.55s-.19.36-.25.36c-.07 0-.15.13-.19.3-.04.16-.12.33-.19.37-.07.05-.21.29-.31.56-.1.26-.23.47-.3.47s-.16.15-.22.33c-.07.24-.15.32-.31.31-.27-.01-.31.32-.04.39.66.17 4.32.06 4.32-.13Zm3.82.1c1.13 0 1.38-.03 1.38-.14 0-.08.06-.21.13-.28s.19-.28.26-.45c.07-.18.17-.33.21-.33.05 0 .14-.16.2-.35s.15-.35.19-.35.24-.34.45-.75.42-.75.47-.75.09-.08.09-.19c0-.1.06-.24.14-.3.08-.07.17-.23.2-.36.04-.14.11-.25.16-.25.06 0 .1-.11.1-.25 0-.16.06-.25.15-.25.08 0 .15-.04.15-.1s-.91-.1-2.53-.1h-2.53l-.24.48c-.13.26-.24.52-.26.57-.04.22-2.08 3.7-2.22 3.81-.44.32-.06.47 1.05.41.58-.04 1.68-.07 2.45-.07Zm5.84-.01c.15-.24-.2-.28-2.13-.22-1.6.05-2.03.09-2.03.2 0 .17 4.05.2 4.16.02Zm-.19-.55.61-.07.7-1.16c.38-.64.9-1.53 1.15-1.99l.46-.82h-2.1c-1.75 0-2.09.02-2.09.14 0 .08-.09.18-.2.21s-.2.14-.2.24-.13.35-.3.57c-.16.21-.3.44-.3.51 0 .06-.06.18-.13.25s-.24.36-.37.63-.27.52-.31.55c-.05.03-.2.27-.33.53l-.25.47h1.53c.84 0 1.8-.03 2.13-.06Zm-24.19-.61c-.03-.57-.03-.58-.35-.61-.41-.04-.43-.22-.03-.22.29 0 .3-.02.3-.45V19h-.8v2.3h.91zm10.48.39c.15-.43.38-.88.5-.95.08-.04.14-.17.14-.27 0-.11.09-.24.2-.3s.2-.19.2-.28c0-.1.05-.23.11-.29.13-.13.29-.41.61-1.05.12-.27.29-.48.35-.48.07 0 .13-.11.13-.24s.07-.26.15-.3c.54-.2-.01-.26-2.31-.24l-2.45.03-.16.3c-.09.16-.2.37-.24.45-.32.61-1.2 2.07-1.59 2.65-.26.39-.52.8-.59.93l-.12.22h2.51c2.3 0 2.51-.01 2.56-.18Zm23.77-1.17c.04-.25.1-.95.13-1.55.04-.68.11-1.07.17-1.03.1.06.03 2.12-.1 2.73-.09.49-.26.36-.2-.15Zm-33.91-.52.03-.68.64-.03c.8-.04.85.01.76.77l-.07.61h-1.39zm2.52-.61c.03-.15.08-.36.11-.48.06-.18.03-.2-.28-.16-.34.04-.36.03-1.12-1.12-.64-.95-1.09-1.47-.93-1.08.08.21 2.04 3.12 2.09 3.12.04 0 .09-.12.13-.28Zm.86-.82c0-.06.44-.1 1.13-.09.72 0 1.05.03.92.09-.29.12-2.05.12-2.05 0Zm-1.95-2.82c1.22-.14 1.17-.1.71-.57l-.37-.38-.81.29c-1.01.36-1 .35-.88.59.13.23.08.22 1.35.07Zm1.36-.35c-.15-.29-3.06-3.36-3.42-3.62-.19-.14.27.38 1.01 1.15s1.6 1.67 1.9 2.02c.57.65.67.73.51.45Zm-6.85-.59c-.08-.59-.04-.64.5-.62.79.03.82 1.01.03 1.06l-.46.03zm4.56.21c.39-.14.81-.26.94-.27.34-.03.39.04-1.36-1.78l-1.59-1.64-.77.13c-.42.07-.83.15-.9.18-.13.05 1.49 2.13 1.67 2.13.05 0 .09-.38.09-.85 0-.5.04-.85.1-.85s.1.35.1.85v.85h.85c.5 0 .85.04.85.1s-.37.1-.9.1h-.9l.51.65c.28.36.53.65.56.65s.37-.11.75-.25Zm9.02-.55c1.1-.22 2.09-.4 2.21-.4.27 0 .65-.27.65-.46 0-.1-.09-.14-.28-.12-.23.03-.27-.01-.3-.24-.02-.2-.09-.28-.23-.28-.13 0-.24-.1-.3-.29-.06-.16-.19-.31-.29-.34s-.2-.15-.22-.28c-.02-.16-.11-.25-.25-.27a.29.29 0 0 1-.25-.25c-.02-.13-.12-.23-.28-.27s-.26-.14-.28-.28-.1-.22-.23-.22-.24-.1-.3-.29c-.07-.19-.19-.31-.32-.33s-.23-.11-.25-.23c-.09-.61-.86-.58-4.46.17-.97.2-1.53.48-.98.48.14 0 .22.09.27.29.04.2.13.31.28.33.14.02.23.11.25.25.02.13.13.24.28.27.15.04.24.14.24.26 0 .13.07.2.18.2.23 0 .42.19.42.42 0 .11.07.18.2.18.12 0 .25.1.32.25.06.13.19.27.28.3.1.03.2.14.23.24.02.11.15.21.28.23.14.02.25.12.29.25.03.12.23.36.45.52l.4.31zm-12.09-.69.5-.07-.3-.13c-.47-.2-2.19-.11-2.23.12-.04.19 1 .23 2.03.08Zm17.45.02c0-.11 1.48-.28 1.58-.19.11.12-.09.18-.82.23-.48.04-.76.02-.76-.04Zm2.1-.68c-.14-.08-.4-.14-.57-.15-.36 0-.45-.19-.13-.27.25-.07.26-.2.01-.28a.4.4 0 0 1-.24-.24c-.02-.11-.15-.21-.28-.23-.16-.02-.25-.11-.27-.24-.02-.15-.12-.24-.33-.28-.23-.04-.29-.11-.29-.3 0-.18-.06-.25-.22-.28-.15-.02-.24-.11-.26-.25a.28.28 0 0 0-.25-.25.44.44 0 0 1-.31-.24.72.72 0 0 0-.3-.3.42.42 0 0 1-.24-.27c-.02-.1-.14-.29-.28-.42-.13-.13-.24-.35-.24-.49s-.05-.28-.1-.31c-.25-.15.07-.25.81-.25 1 0 1.09.23.11.28-.34.02-.62.06-.62.1.01.28.15.51.34.54.14.02.22.11.24.3s.1.28.25.3c.14.02.23.11.25.25.02.13.13.24.28.27.15.04.24.14.24.26 0 .13.07.2.18.2.23 0 .42.19.42.41 0 .11.09.19.23.21s.23.11.25.25c.02.15.11.23.3.25s.28.1.3.26c.02.12.09.22.15.22.22 0 .4.18.42.41.03.47.45.46 2.52-.04 1.03-.25 2.03-.49 2.21-.52.43-.09.5-.75.07-.75-.18 0-.25-.05-.25-.2 0-.13-.09-.22-.25-.26s-.25-.13-.25-.25-.1-.23-.25-.29a.58.58 0 0 1-.31-.34.34.34 0 0 0-.27-.28.28.28 0 0 1-.25-.25c-.02-.15-.1-.23-.24-.23-.13 0-.24-.1-.31-.3-.06-.16-.19-.3-.3-.32-.23-.04-.76-.93-.62-1.06.06-.05 1.11-.21 2.35-.35l2.25-.25.27.29c.15.16.31.29.36.29.06 0 .13.11.16.24.04.15.14.26.29.28.14.02.23.11.25.26.02.14.1.22.23.22.11 0 .21.09.24.23.04.12.16.27.28.32.12.06.23.2.25.33.02.14.1.22.24.22.13 0 .24.1.31.3.06.17.19.3.27.3.09 0 .29.18.46.39.21.29.35.39.49.36.11-.03.94-.18 1.85-.35 2.78-.52 3.05-.6 2.82-.76a.74.74 0 0 1-.26-.38c-.03-.13-.15-.26-.26-.29a.265.265 0 0 1-.2-.25c0-.14-.08-.22-.22-.24-.15-.02-.24-.11-.26-.25-.02-.15-.13-.24-.33-.28-.22-.05-.29-.12-.29-.31 0-.17-.06-.24-.2-.24-.12 0-.22-.09-.26-.24a.34.34 0 0 0-.27-.28.28.28 0 0 1-.25-.25c-.02-.15-.13-.25-.28-.29-.14-.04-.27-.16-.3-.29-.03-.12-.16-.27-.3-.34-.16-.07-.24-.19-.24-.35 0-.26.08-.3.78-.41.53-.08.58.11.04.21-.62.11-.72.21-.34.34.24.09.32.18.32.35s.07.25.23.27c.14.02.23.11.25.25s.13.25.27.29c.14.03.27.14.3.23.03.1.17.23.3.29.14.07.25.2.25.31 0 .12.09.21.25.25s.25.13.25.25.09.21.25.25c.15.04.27.16.31.3.03.13.14.26.24.29s.21.18.25.36c.07.34.46.4 1.6.25l.47-.07-.07-.46c-.29-2.02-.83-3.77-1.22-3.92-.33-.12-.29-.31.05-.23.38.09.44.14.38.29-.02.07.01.18.07.24s.2.31.3.54.15.31.12.17c-.17-.76-.17-.86-.02-.67.23.28.51 1.49.36 1.57-.08.06-.07.32.05 1.06.09.55.19 1.12.21 1.27.05.33-.1.41-1 .52-.33.04-.64.11-.7.15-.23.18-5.29 1.17-7.28 1.42-.53.06-.94.15-.91.19.05.09-.29.15-1.3.25-.38.03-.76.12-.83.2-.08.08-.22.14-.31.14s-1.09.23-2.21.5c-2.27.56-2.17.55-2.51.35Zm-19.95-.6-.47-.55-.34.43c-.45.56-.45.56.44.6.42.01.78.04.8.05s-.18-.23-.43-.53Zm27.04-1.2c1.82-.18 2.3-.25 2.36-.35.07-.12-.26-.35-.49-.35-.15 0-.22-.09-.29-.36-.07-.3-.14-.38-.38-.43-.22-.04-.29-.11-.29-.3 0-.16-.07-.25-.21-.29a.4.4 0 0 1-.26-.25c-.02-.11-.16-.25-.29-.31S35 7.93 35 7.85c0-.09-.11-.2-.25-.25-.15-.06-.25-.17-.25-.29s-.09-.21-.24-.25c-.13-.03-.26-.14-.29-.25-.04-.16-.12-.19-.43-.15-.22.02-1.06.11-1.89.19-2.05.21-2.1.22-1.91.44.09.1.16.22.16.27s.13.15.29.21c.19.07.3.19.33.34.02.16.11.25.25.27s.25.12.29.27c.03.14.15.25.27.27.14.02.23.11.25.24.02.12.12.24.22.27.11.03.24.16.29.3.05.13.19.27.3.3.12.03.21.12.21.21s.12.21.26.26c.14.06.28.19.31.31.04.13.11.18.21.14.08-.03.85-.12 1.71-.2Zm-18.24-.16c-.06-.09 1.44-.59 1.77-.59.12 0 .19.02.16.05-.12.12-1.89.62-1.93.54Zm-5.75-.58c0-.1 1.7-.44 1.78-.36.1.1-.08.17-.8.31-.86.16-.98.17-.98.05Zm34.56-1.43c-.03-.07-.07-.31-.09-.53-.03-.22-.09-.55-.12-.72-.05-.21-.04-.33.03-.33.06 0 .16.26.22.58.06.31.13.69.16.85.06.27-.13.4-.2.15Zm-18.91-.96c.06-.05.53-.13 1.05-.17.68-.05.92-.04.85.04-.06.06-.53.14-1.05.17-.64.05-.92.03-.85-.04Zm8.85-.61c0-.07.26-.11.78-.11.42 0 1.08-.02 1.47-.05.58-.05.66-.03.45.06-.36.16-2.7.25-2.7.1Zm.15-.68c.05-.06.62-.13 1.25-.17.83-.05 1.12-.04 1.04.04-.06.06-.62.14-1.25.17-.76.04-1.11.02-1.04-.04Zm-1.45-.91c0-.06.38-.13.88-.17.48-.03 1.08-.08 1.34-.11.29-.04.48-.02.48.04 0 .11-.45.18-1.82.28-.58.04-.88.03-.88-.04Z"/></svg>