<svg xmlns="http://www.w3.org/2000/svg" width="51" height="51" viewBox="0 0 51 51"><path fill="#fff" fill-rule="evenodd" stroke="#fff" stroke-width=".698" d="M11.4 33.81V16.43l-.47-.07c-.27-.03-2.82-.05-5.68-.03l-5.2.02-.03-1.63L0 13.1l12.67-.02c6.98-.01 13.93-.01 15.45.01l2.78.02v-2.38c0-1.31.03-4.24.07-6.5L31.03.1 15.49.07-.05.05 15.58.02 31.2 0v6.53c0 3.93-.04 6.58-.1 6.67-.08.13-1.94.15-15.5.18l-15.4.04v2.68h5.74c3.76 0 5.77.03 5.81.1.14.23-.07 35-.22 35-.11 0-.13-2.91-.13-17.39Zm3.1 3.31c0-7.75.03-15.65.07-17.55l.06-3.47H51.1v-2.8H33.9V0l8.68.02 8.67.03-8.51.02-8.52.03-.07 4.13c-.03 2.26-.05 5.18-.03 6.47l.03 2.35 8.53.03 8.52.02v3.25l-17.83-.01c-9.8-.01-17.99.01-18.19.03l-.38.05v17.39c0 15.39-.02 17.39-.15 17.39s-.15-1.63-.15-14.08Zm16.66 6.98c-8.68-1.37-12.14-11.94-5.91-18.05 6.75-6.61 18.01-1.92 17.98 7.5-.01 4.96-3.17 9.09-7.91 10.32-1.09.28-3.12.39-4.16.23Zm4.1-.45c9.1-2.31 10.62-14.8 2.34-19.24-8.64-4.62-18.25 4.24-14.44 13.31 1.92 4.59 7.2 7.17 12.1 5.93Zm-3.8-2.55c-7.26-1.32-8.7-11.06-2.11-14.31 6.79-3.34 13.7 4.22 9.83 10.76-1.5 2.52-4.86 4.07-7.72 3.55Zm3.56-.54c6.33-2.16 6.84-10.69.83-13.61-6.26-3.04-12.87 3.7-9.75 9.95 1.63 3.26 5.47 4.84 8.92 3.66Z"/></svg>