<svg xmlns="http://www.w3.org/2000/svg" width="51" height="51" viewBox="0 0 51 51"><path fill="#fff" fill-rule="evenodd" stroke="#fff" stroke-width=".511" d="M3.95 47.48c-.02-.07-.09-.3-.15-.51-.13-.41-.34-.57-.75-.57-.31 0-.3-.23.01-.29.39-.07.54-.31.54-.9 0-.62.08-.59.34.12.1.27.23.5.3.52.69.25.72.27.52.39-.44.26-.56.46-.56.91 0 .41-.15.62-.25.33Zm5.54-.21c-2.06-.7-2.51-1.58-3.23-6.32-.2-1.26-.44-2.84-.55-3.5-1.32-7.85-1.31-8.01.62-10.01.57-.6.93-1.04.84-1.04-1.64 0-2.8-1.64-3.33-4.68-.13-.81-.36-2.03-.49-2.72-.88-4.55-1.5-8.63-1.4-9.29.17-1.13 2.66-4.23 3.61-4.5.86-.25 4.77-.55 11.69-.91 3.94-.21 5.22.46 6 3.13l.16.57.36-.48c.88-1.18 2.26-2.33 3.06-2.57 1.09-.33 9.39-.66 11.36-.46 2.43.25 3.24 1.13 4.02 4.36 2.44 10.18 2.4 9.98 2.19 10.75-.2.78-.88 2.06-1.33 2.53l-.44.45.46.06c1.26.17 2.48 1.43 3.07 3.17.51 1.5 2.43 10.64 2.51 11.94.12 1.95-1.56 4.55-3.57 5.54-.7.34-.52.31-5.2.86-1.18.14-3.41.44-4.95.66-4.47.65-5.9.35-6.86-1.45-.29-.56-.3-.56-.64-.05-1.36 2.06-2.01 2.34-6.8 3-9.82 1.34-10 1.36-11.16.96Zm4.58-.37c4.53-.61 9.49-1.3 10.03-1.41 1.13-.23 2.26-1.09 3.13-2.39.53-.78.47-.85-.35-.4-.86.45-1.45.62-3.28.9-2.9.45-8.33 1.18-10.1 1.35-2.35.24-3.99-1.08-4.59-3.7-.57-2.5-2.15-12.72-2.07-13.45l.06-.55-.65.7c-.73.78-1.12 1.48-1.21 2.15-.05.42.43 4.09.96 7.2.1.63.35 2.21.55 3.5.61 3.94.75 4.41 1.59 5.28 1.12 1.18 2.14 1.32 5.93.82Zm21.26-2.45c1.72-.24 4.13-.56 5.37-.7 4.27-.49 4.35-.52 5.74-1.93.47-.48.93-.97 1.02-1.1l.16-.24-.38.2c-.96.48-.89.47-7.69 1.38-6.76.92-7.21.89-8.43-.4-.86-.91-.88-1.01-2.07-7.21-.25-1.32-.5-2.63-.56-2.91l-.1-.51-.59.58c-.33.32-.58.64-.55.71s.32 1.68.66 3.58c.69 3.91.74 4.84.31 5.67-.6 1.15.47 2.71 2.18 3.17.87.23 1.6.19 4.93-.29Zm-18.88-.16c10.52-1.31 11.75-1.75 11.75-4.24 0-.6-.7-4.78-1.5-8.9-.22-1.15-.4-2.14-.4-2.19 0-.18-.31.33-.32.52 0 .09.14.85.31 1.67 1.81 8.98 1.65 10.5-1.25 11.24-1.12.28-6.6 1.16-10.07 1.62-3.88.5-4.91-.63-5.86-6.41-1.41-8.66-1.48-9.75-.61-10.74.7-.79 1.03-.87 5.22-1.25 8.61-.79 9.52-.78 10.5.08l.35.31.19-.21c.19-.21.18-.21-.06-.41-1.04-.86-1.98-.92-7.05-.49-1.98.17-4.45.38-5.5.46-5.28.41-5.44.65-4.52 6.55 1.63 10.4 1.83 11.15 3.14 12.07 1.15.82 1.53.84 5.68.32Zm-.98-.69c2.26-.29 7.91-1.18 9.03-1.41 3.08-.66 3.2-1.34 1.74-9.39-.54-2.98-.52-2.92-.69-2.59-.11.21-.04.73.46 3.64 1.03 5.9 1.03 5.93.49 6.79-.61.96-.9 1.03-7.6 2.02-6.49.95-6.51.95-7.51-.08-1.05-1.09-1.4-2.5-2.48-10.2-.56-3.92-.53-4.47.25-5.2.67-.63.86-.66 6.27-1.14 6.95-.61 7.73-.6 8.48.12.15.14.29.21.33.16.03-.06-.09-.23-.28-.4-.86-.75-1.51-.75-9.96-.01-6.06.53-6.14.61-5.5 5.39 1.68 12.4 1.98 12.94 6.97 12.3Zm.13-.85c1.13-.13 3.44-.45 5.15-.7 6.46-.95 6.23-.61 5.05-7.38l-.64-3.68-.23.3c-.68.87-1.99.49-2.34-.68-.2-.68-.04-1.39.61-2.67l.58-1.15-.21-.21c-.66-.63-.96-.63-9.52.12-5.48.48-5.34.28-4.45 6.39 1.08 7.42 1.3 8.25 2.43 9.27.42.38.86.57 1.42.63.06 0 1.02-.1 2.15-.24Zm20.53-.55c1.17-.16 3.52-.48 5.22-.7 7.45-.97 7.63-1.14 6.56-6.4-1.79-8.81-2.15-10.07-3.16-11.12-1.15-1.21-1.45-1.23-7.23-.64l-3.82.4v.33c0 .18.03.33.07.33.23 0 3.53-.32 5.08-.5.99-.11 1.88-.2 1.97-.2.11 0 .15-.05.12-.14-.13-.33 1.95-.38 2.62-.06 1.35.66 1.89 1.89 2.97 6.8 1.67 7.54 1.71 8.27.46 9.34-.82.7-2.26.98-9.5 1.85-5.88.71-5.73.86-7.48-7.63-.88-4.31-.91-4.42-1.3-4.17-.19.12-.1.78.79 5.46 1.11 5.82 1.15 5.92 2.36 6.75.95.66 1.48.7 4.27.3Zm2.26-1.15c7.09-.88 7.76-1.02 8.5-1.77.94-.94.88-1.78-.63-8.63-1.33-6.05-1.94-7.08-4.16-7.04l-.65.02.66.07c2.13.25 2.62 1.2 3.94 7.65 1.3 6.29 1.32 6.79.3 7.78-.61.59-1.29.73-7.1 1.42-1.21.14-2.69.33-3.29.41-3.14.41-3.78-.13-4.5-3.81-.49-2.48-1.36-7.33-1.36-7.57 0-.19-.31-.19-.53.01-.04.04.26 1.74.68 3.77 1.83 8.97 1.36 8.53 8.14 7.69Zm-19.59-.38c-.46-.16-.73-.64-.73-1.31v-.52l-1.46.18c-3.32.4-3.5.38-3.87-.34-.38-.74-.6-2.73-.37-3.35.05-.13.08.23.08.95 0 1.89.43 2.92 1.21 2.92.18 0 1.02-.09 1.86-.19.84-.11 1.78-.22 2.09-.26l.57-.06.04.72c.07 1.26 1.1 1.58 3.38 1.04.2-.05.22-.04.09.04-.42.27-2.29.38-2.89.18Zm18.6-.21c8.78-1.11 8.36-1.03 8.93-1.78.63-.83.62-1.03-.38-6.03-1.22-6.06-1.55-7.17-2.35-7.89-.58-.52-.8-.53-4-.17-1.57.17-3.54.38-4.38.46-1.76.17-1.68.14-1.76.59-.21 1.09-1.38 2.64-2.48 3.29l-.65.38.29 1.57c1.99 10.9 1.53 10.25 6.78 9.58Zm-18.5-.31c-.07-.08-.15-.55-.18-1.05-.04-.74-.08-.9-.21-.9-.09 0-1.22.14-2.51.3-2.43.31-2.64.31-2.75.02-.42-1.09-.44-2.51-.06-3.45.34-.84 3.03-6.34 3.22-6.6.15-.18 3.03-.54 3.4-.42.3.1.5.95 1.14 4.85.36 2.23.25 2 .95 2s.81.12.99 1c.29 1.42.2 1.67-.57 1.77l-.52.06.07 1.01c.07 1.24.08 1.23-1.24 1.42-1.26.18-1.58.17-1.73-.01Zm1.7-.36c1.09-.14 1.04-.08.95-1.03-.14-1.43-.19-1.3.54-1.4l.64-.09-.07-.59a9 9 0 0 0-.17-1.04l-.12-.46-.64.05c-.79.06-.67.33-1.19-2.76-.24-1.44-.51-2.95-.6-3.36l-.16-.74-1.07.06c-2.01.12-1.96.1-2.37.83-.76 1.35-2.96 6.1-3.07 6.6-.1.48.11 2.35.28 2.52.04.04 4.05-.4 5.07-.55l.38-.06v.59c0 1.33.09 1.65.44 1.59.17-.03.69-.1 1.16-.16Zm16.58-.88c-.87-.28-1.51-.7-2.08-1.36-.14-.16-.01-.08.28.18 2.1 1.84 5.78 1.62 7.68-.46.31-.34.51-.51.44-.37-.84 1.62-4.2 2.69-6.32 2.01Zm.1-.6c-2.54-.82-3.57-3.73-1.97-5.55l.4-.45-.52-.48c-1.74-1.61-1.12-4.43 1.16-5.33.81-.32 2.99-.36 3.83-.07 1.99.7 2.92 3.6 1.57 4.87l-.24.23.42.27c1.85 1.17 2.23 3.63.81 5.29-.95 1.11-3.8 1.75-5.46 1.22Zm2.95-.35c1.51-.29 2.44-.98 2.87-2.12.55-1.46-.19-3.28-1.58-3.89-.47-.21-.51-.33-.21-.61 1.4-1.27.75-3.79-1.17-4.55-.79-.31-2.59-.34-3.45-.06-2.4.79-2.98 3.79-.97 5.09.58.38.58.34.08.87-.69.73-.85 1.14-.85 2.11 0 2.45 2.18 3.75 5.28 3.16ZM38.18 36c-1.14-.62-1.24-2.39-.15-2.97 1.56-.83 3.66.98 2.78 2.4-.42.69-1.85 1-2.63.57Zm-22.38-.22c0-.09.32-.82.71-1.64.84-1.77 1.14-2.43 1.22-2.66.16-.45.25-.03.42 1.87.21 2.47.26 2.3-.72 2.39-.43.03-.97.09-1.2.12-.34.05-.43.03-.43-.08Zm24.32-.14c.89-.46.58-1.99-.48-2.34-1.17-.39-2.1.17-2.02 1.21.09 1.18 1.32 1.74 2.5 1.13Zm-22.14-.29c.02-.02-.04-.64-.12-1.39-.09-.74-.16-1.39-.16-1.43-.01-.07-1.49 2.86-1.5 2.95 0 .04 1.73-.09 1.78-.13Zm9.88-4.22c.63-.88.59-1.41-.14-1.59-.29-.08-.65-.2-.8-.28l-.29-.15.26 1.29.25 1.28.25-.13c.15-.07.35-.26.47-.42Zm-3.17-.08c.17-.2.31-.41.31-.47s.23-.53.52-1.04c.85-1.55 1.78-2.5 3.11-3.2.94-.49.85-1.15-.27-1.96-.73-.53-.82-.94-.41-2.01.67-1.8.34-2.71-1.41-3.83-.68-.44-.95-.76-.8-.92.04-.03.19.06.34.2.15.13.49.37.76.53 1.64.93 2.12 2.24 1.46 4-.39 1.04-.39 1.07.2 1.69.63.67.85.7 1.39.21.83-.76 1.2-2.29.87-3.69-.56-2.38-2.52-4.09-5.08-4.45-.93-.13-.89-.2-.61 1.16.26 1.25.27 1.28.82 1.38.54.1 1.39.55 1.67.88.38.45.32.71-.26 1.13s-.66.61-.15.37c.19-.09.35-.23.35-.31 0-.07.06-.12.12-.09.28.09.14 1.26-.25 2.07-.19.41-.39.9-.42 1.08l-.07.33.41-.07c.49-.08.55.08.11.26-.42.17-.45.27-.07.22.24-.03.38.03.56.22.34.36.22.64-.5 1.11-.78.52-1.74 1.53-2.3 2.44-.43.69-.78.96-.64.49.24-.79 1.81-2.62 2.78-3.23.47-.3.6-.58.33-.68-.84-.33-3.52 2.04-4.37 3.87-.49 1.05-.37 2.35.24 2.6.44.17.96.05 1.26-.29Zm13.15.24c-.18-.05-.46-.25-.64-.45-1.26-1.44.06-3.26 1.77-2.43 1.78.86.77 3.43-1.13 2.88Zm1.23-.49c1.05-.63.4-2.2-.91-2.2-.64 0-.92.18-1.07.7-.35 1.16.94 2.14 1.98 1.5Zm-8.66-1.92c2.46-1.22 3.63-4.33 2.5-6.63-.28-.57-1.57-1.95-1.82-1.95-.16 0 .16.92.35 1.02 2.59 1.32 1.01 6.29-2.1 6.64-1.16.13-1.06-.37.28-1.38 1.58-1.19 2.41-2.66 2.1-3.72-.29-1.01-.86-.2-.75 1.06.09 1.01-.52 1.86-1.77 2.49-.87.43-1.76 1.07-2.28 1.63-.49.53-.5.56-.19.75 1.02.65 2.48.69 3.68.09Zm-.24-1.53c2.05-1.02 2.94-3.89 1.64-5.28-.38-.41-.61-.52-.61-.3 0 .11.12.23.3.3 1.44.54.35 3.41-1.87 4.91-.34.23-.65.46-.68.52-.12.2.72.1 1.22-.15ZM8.01 25.8c.78-.43 1.61-.57 4.54-.8 1.43-.11 3.86-.31 5.4-.44 1.54-.14 3.3-.28 3.9-.31l1.1-.07.44-.45c.44-.46.87-1.25.71-1.31-.05-.02-.26.05-.47.16-.7.35-4.34.76-11.92 1.33-3.15.23-4.38-.25-5.23-2.07C5.9 20.61 3.81 8.42 4 7.39c.05-.24.07-.45.06-.46-.04-.05-1.12 1.34-1.41 1.83-.63 1.05-.61 1.24 1.19 11.29.67 3.73.96 4.58 1.83 5.35.81.71 1.55.84 2.34.4Zm17.58-1.24c.23-1.28.46-2.01.65-2.04.21-.04.21-.08-.14 1.26-.26.99-.24 1.08.18.82.23-.14.32-.27.32-.47 0-.16.06-.51.14-.78.13-.48.12-.52-.13-.97-.41-.75-.59-.67-1.26.6-.48.92-.59.97-.84.4-.11-.23-.2-.38-.2-.31-.01.06-.26.39-.57.72-.44.48-.52.61-.37.61.26 0 1.35.55 1.57.79.29.32.53.08.65-.63ZM13.01 23.5c7.84-.63 9.82-.86 10.56-1.24 1.55-.78 1.8-1.75 1.23-4.69-.16-.83-.59-3.23-.95-5.32-.89-5.14-1.17-6.06-2.15-6.88-1.13-.95-1.4-.97-9.6-.47-6.61.4-6.9.46-7.47 1.55-.53 1.01-.49 1.48.82 9 1.1 6.29 1.11 6.33 1.98 7.23 1.03 1.07 1.52 1.14 5.58.82Zm25.49-.56c4.08-.42 3.97-.38 4.81-1.6.38-.56.38-.57-.23-.24-.8.42-2.66.67-8.81 1.15-.48.04-.87.11-.87.16s.06.3.12.55l.13.46.75-.06c.41-.04 2.26-.22 4.1-.42Zm-12.61-1.29c.17-.08.37-.15.46-.15.1 0 .15-.09.15-.29 0-.28.18-.51.78-.98l.23-.18-.21-.28c-.26-.32-1-.72-1.53-.82l-.37-.07v.85c0 .91-.23 1.85-.6 2.45-.18.29-.19.38-.09.75l.11.42.39-.77c.27-.54.48-.82.68-.93Zm3.28 1.48c-.11-.1-.08-.47.09-1.14.52-2.03-.88-3.96-3.33-4.59-.87-.22-.67-.95.24-.88 1.79.15 3.82 2.13 4.13 4.02.21 1.31-.59 3.14-1.13 2.59Zm-20.11-.19c-.62-.2-1.43-.98-1.78-1.74-.36-.76-.49-1.32-1.12-4.75C4.29 6.2 4.33 6.08 9.47 5.7c11.49-.86 11.78-.84 12.65.77.46.84 1.33 5.18 2.19 10.93.57 3.83-.04 4.47-4.71 4.89-1.24.12-3.46.32-4.95.46-3.74.35-4.97.39-5.59.19Zm2.79-.29c.86-.06 1.63-.13 7.84-.7 3-.28 3.46-.41 4.01-1.16.69-.96.69-1.03-.61-8.59-.96-5.56-1.25-6.33-2.56-6.69-.63-.18-4.22-.01-11.43.54-4.39.33-4.39.34-2.64 10.15 1.04 5.79 1.61 6.73 3.99 6.54.28-.02.91-.06 1.4-.09Zm18.01-.63c.61-2.09-1.28-4.75-3.68-5.18-.63-.11-.44.11.3.35 2.53.82 3.81 3.2 2.95 5.47-.06.17-.05.17.1.05.1-.07.24-.39.33-.69Zm-20.62.29c-1.42-.65-1.63-1.28-2.89-8.76-.91-5.42-.92-5.59-.2-6.42.63-.74.89-.8 4.95-1.08 1.24-.08 3.17-.22 4.3-.3 6.34-.45 6.29-.49 7.16 5.5.26 1.84.79 4.8 1.14 6.4s.23 2.31-.5 3.07c-.59.61-.96.71-3.85 1.02-6.46.71-9.43.88-10.11.57Zm4.48-.41c3.67-.33 8-.79 8.39-.9 1.28-.36 1.58-1.39 1.11-3.75-.17-.82-.53-2.89-.81-4.6-1.18-7.19-.8-6.8-6.36-6.45-7.91.5-8.66.59-9.19 1.08-.88.83-.86 1.2.49 8.84 1.12 6.32 1.04 6.25 6.37 5.78Zm23.38-.2c4.88-.43 5.23-.49 6.02-.99 1.28-.81 1.29-1.21.13-6.06-.47-1.98-1.06-4.45-1.31-5.49-1.02-4.32-1.41-4.52-8.19-4.35-8.74.22-8.86.3-8.01 5.19.78 4.53 1.15 6.08 1.49 6.2.41.14.41.22.02-1.35-1.69-6.79-1.59-8.67.48-9.22.62-.16 7.42-.37 9.92-.31 2.83.08 3.31.58 4.2 4.33.24 1.05.63 2.64.85 3.55.94 3.85 1.03 4.27 1.03 4.9.02 2.38-.96 2.74-8.83 3.3-2 .14-2.03.15-1.88.4.16.25 0 .26 4.08-.1Zm-.02-.8c4.69-.4 5.37-.57 5.95-1.52.56-.89.54-1.06-.58-5.63-.4-1.65-.84-3.47-.96-4.03-.13-.57-.25-.99-.27-.94-.01.05.2 1.1.48 2.33 1.72 7.62 1.66 7.14 1.11 8.01-.59.94-1.14 1.06-6.51 1.47-4.33.34-4.04.3-3.83.47s.94.15 4.61-.16Zm-25.32-.41c-.53-.41-.97-1.62-.95-2.59l.02-.55.07.7c.14 1.25.59 2.24 1.12 2.46.43.18 7.2-.39 7.86-.67.17-.07.32-.09.32-.04 0 .23-1.4.43-5.18.75-2.51.21-2.93.2-3.26-.06Zm23.49-.14c8.36-.63 8.06-.36 6.76-6.05-.4-1.73-.9-3.96-1.13-4.95-.81-3.56-.44-3.44-8.78-3.07-5.8.26-5.61-.12-3.9 7.86l.6 2.78.73.78c.46.49.84 1.01 1.03 1.4.66 1.42 1.05 1.52 4.69 1.25Zm-23.27-.27c-.21-.16-.49-1.25-.51-1.93-.02-.73.26-1.14 1.98-2.95 2.05-2.16 2.46-2.84 2.25-3.76-.31-1.36-2.05-1.21-2.25.19-.13.84-.32.96-1.6 1.04-1.4.07-1.4.07-1.4-1.26 0-3.95 6.02-5.22 8.04-1.7 1.02 1.8.45 3.73-1.89 6.37l-.83.94.44-.06c1.56-.19 3.4-.28 3.53-.17.19.16.46 1.35.46 2 0 .71.05.69-4.04 1.07-4.17.39-3.97.38-4.18.22Zm3.79-.58c4.33-.38 4.13-.35 4.13-.68 0-.36-.28-1.64-.37-1.73-.05-.04-.94 0-1.99.08-2.62.23-2.58.26-1.3-1.17 2.64-2.94 3.08-5.19 1.37-6.91-.77-.76-1.44-1.03-2.66-1.03-2.78-.01-4.41 1.43-4.18 3.69l.06.58 1-.07c1.16-.07 1.22-.11 1.3-.71.22-1.56 2.02-1.91 2.75-.54.56 1.04.15 1.9-1.96 4.14-1.9 2.02-2.12 2.33-2.12 2.92 0 .62.29 1.73.46 1.73.07 0 1.65-.14 3.51-.3Zm16.83-.07c-.21-.08-.5-.34-.5-.46 0-.06.1-.01.23.11.27.25.82.28 2.32.12.5-.05 1.88-.17 3.09-.25 3.05-.22 3.11-.26 2.81-1.79-.19-1-.12-1.11.09-.17.4 1.76.28 1.86-2.58 2.07-1.11.08-2.68.21-3.5.29-1.58.16-1.73.17-1.96.08Zm-.3-.9c-.18-.41-.25-1.82-.1-2.27.08-.24.52-.79 1.28-1.59 1.94-2.03 2.22-2.44 2.22-3.26 0-1.37-1.58-1.75-1.95-.48-.21.73-.27.77-1.41.88-1.5.14-1.73-.05-1.61-1.31.3-3.31 5-4.26 7.17-1.46 1.37 1.79 1.06 3.5-1.09 5.95l-.72.8 1.78-.02 1.78-.02.27.8c.62 1.82.74 1.76-3.67 2.1-3.13.24-3.79.22-3.95-.12Zm4.65-.38c3.42-.28 3.12-.12 2.72-1.4l-.23-.7-1.87.04c-2.25.04-2.21.08-1.11-1.19 1.85-2.14 2.32-3.54 1.65-4.92-1.64-3.4-7.14-2.79-6.99.77l.03.7.9-.04c1.07-.04 1.35-.13 1.35-.41 0-1.37 1.82-1.59 2.48-.3.5.97.17 1.7-1.69 3.67-1.72 1.81-1.84 2.02-1.76 2.99.11 1.23-.23 1.17 4.52.79Zm-8.81-2.26c-1.07-3.67-1.72-7.93-1.35-8.74.49-1.06.79-1.15 4.11-1.26 3.82-.12 4.25-.15 2.7-.16-6.43-.06-7.22.21-7.21 2.42.01 2.07 1.5 8.55 1.97 8.55.01 0-.09-.36-.22-.81Zm-1.96-1.86c-.88-4.26-1.22-6.76-.98-7.37.15-.41-.03-.31-.57.32-.66.76-1.14 1.52-1.08 1.72.02.08.29 1.59.6 3.35.3 1.76.57 3.3.6 3.42.05.2.52.32 1.66.42.13.01.1-.26-.23-1.86Zm16.31-7.15c-.01-.02-.07-.45-.14-.96-.17-1.27-.44-1.5-1.82-1.52-.53 0-.56-.17-.05-.25 1.49-.23 1.57-.33 1.56-1.9-.02-1.49.14-1.65.34-.35.25 1.62.55 1.95 1.87 2.07 1.11.09 1 .25-.27.37-1.12.11-1.28.34-1.28 1.72 0 .67-.1 1.07-.21.82Z"/></svg>