<svg xmlns="http://www.w3.org/2000/svg" width="51" height="51" viewBox="0 0 51 51"><path fill="#fff" fill-rule="evenodd" stroke="#fff" stroke-width=".781" d="M14.32 38.29c-1.45-.28-2.74-1.45-3.19-2.87-.18-.57-.3-17.89-.13-19.25.22-1.8 1.47-3.13 3.24-3.46.76-.14 6.39-.14 7.25-.01 1.09.18 1.95.74 2.66 1.73l.4.56 5.9.03 5.9.03.67.33c1.31.65 1.81 1.55 1.86 3.41l.04 1.24.43.53c.24.28.53.78.66 1.11l.24.58v12.91l-.38.76c-.62 1.26-1.74 2.13-3.07 2.38-.65.12-21.85.12-22.48-.01Zm23.29-.55c1.14-.54 1.9-1.41 2.23-2.53.26-.91.24-12.34-.03-13.2-.27-.85-.84-1.58-1.62-2.04-1.3-.77-.44-.72-12.69-.72H14.55l-.69.29c-.9.37-.88.39-.83-1.66.05-1.89.21-2.43.84-2.84.55-.37 7.02-.47 7.77-.13.15.07.65.6 1.11 1.16l.83 1.04 5.98-.01c3.7 0 6.13.04 6.35.1.54.15.78.48.91 1.23.1.64.12.67.47.78.2.06.56.22.8.35s.45.24.47.24.04-.42.04-.93c0-1.7-.47-2.6-1.67-3.19l-.68-.33-5.91-.03-5.92-.03-.5-.68c-.54-.71-.96-1.06-1.77-1.43-.78-.36-7.68-.36-8.57 0-1.23.5-2.1 1.62-2.28 2.95-.19 1.37-.06 18.71.14 19.27.5 1.35 1.39 2.17 2.79 2.55.44.12 2.28.14 11.62.12l11.1-.02zm-22.98-1.6c-.53-.13-1.09-.63-1.33-1.19-.17-.37-.18-.9-.22-6.25l-.03-5.85.29-.53c.32-.58.96-1.07 1.55-1.19.2-.05 5.11-.08 10.91-.08 11.59 0 10.82-.04 11.58.6.8.67.77.41.8 6.7.04 6.05.02 6.35-.48 7.03-.63.87.27.81-11.89.84-7.64.02-10.87 0-11.18-.08Zm21.78-.24c.54-.15 1-.5 1.23-.95.21-.39.21-.51.21-6.32v-5.91l-.3-.44c-.19-.27-.48-.52-.8-.68l-.5-.25h-10.6c-11.52 0-11.03-.02-11.64.57-.7.69-.66.29-.62 6.83.04 6.37.01 6.14.59 6.68.61.58.16.56 11.57.57 6.74 0 10.63-.04 10.86-.1ZM13.9 19.17l.55-.22 11.05-.03 11.05-.02-.02-.41c-.05-1.11.06-1.1-7.1-1.08l-5.98.01-.73-.94c-1.19-1.52-.67-1.38-4.89-1.38h-3.61l-.31.26c-.42.35-.51.75-.53 2.52-.02.83-.03 1.52-.03 1.52s.25-.1.55-.23Z"/></svg>