<svg xmlns="http://www.w3.org/2000/svg" width="51" height="51" viewBox="0 0 51 51"><path fill="#fff" fill-rule="evenodd" stroke="#fff" stroke-width=".364" d="M8.1 51.04c-4.22-.9-7.73-4.65-8.07-8.61-.08-.94.02-.94.17 0 .75 4.52 4.35 8.02 8.78 8.54.29.03.55.1.58.14.08.13-.72.09-1.46-.07Zm33.55.09c.06-.06.46-.16.9-.23 4.3-.65 7.82-4.26 8.4-8.6.11-.83.27-.99.21-.2-.32 3.99-3.56 7.79-7.52 8.8-.9.23-2.14.37-1.99.23ZM8.4 49.95c-3.6-.78-6.41-3.6-7.14-7.17-.13-.62-.16-1.48-.16-4.43V34.7h15.8l-.02 7.68-.03 7.67-3.9.02c-3.02.01-4.05-.02-4.55-.12Zm9.05.03c-.03-.07-.04-3.53-.03-7.68l.03-7.55 8.13-.03 8.12-.02v15.4h-8.1c-6.39 0-8.12-.03-8.15-.12Zm16.8 0c-.03-.07-.04-3.53-.03-7.68l.03-7.55 7.93-.03 7.94-.02-.04 3.87c-.05 4.41-.09 4.66-.92 6.38-1.18 2.44-3.23 4.13-5.96 4.91-.85.24-8.86.35-8.95.12ZM16.7 42.4v-7.5H1.29l.03 3.83.04 3.82.27.88c.85 2.75 2.79 4.87 5.37 5.86 1.42.55 1.81.59 5.93.6l3.77.01zm16.8 0v-7.5H17.73l-.07 5.55c-.04 3.05-.04 6.43 0 7.5l.07 1.95H33.5zm9.78 7.21c2.66-.82 4.54-2.4 5.68-4.76.82-1.69.86-1.99.92-6.23l.04-3.72H34.5v15.01l4.03-.03c3.84-.04 4.05-.05 4.75-.27ZM8.34 46.69c-2.3-.28-3.22-3.03-1.43-4.24l.45-.31-.37-.26c-1.29-.92-.93-3.01.63-3.68 2.79-1.2 5.65 1.84 3.44 3.66l-.36.3.46.32c.63.45.99 1.23.91 1.99-.16 1.58-1.65 2.47-3.73 2.22Zm17.33-.06c-.04-.03-.07-1.63-.07-3.55 0-1.91-.03-3.48-.06-3.48s-.46.25-.95.55c-1.11.69-1.11.69-1.07-.07l.03-.63 1.05-.72c1.04-.72 1.05-.72 1.73-.73H27v8.7h-.63c-.35 0-.67-.03-.7-.07Zm13.8.01c-.04-.04-.07-.29-.07-.56v-.5l1.84-1.88c2.29-2.35 2.61-2.91 2.22-3.85-.49-1.17-2.76-.75-2.76.51 0 .23-.03.24-.66.24h-.67l.06-.45c.39-2.78 4.87-3.02 5.48-.29.28 1.22-.11 1.94-2.18 4.05l-1.46 1.49h3.83v1.2h-2.64c-1.45 0-2.71.02-2.78.05-.08.03-.17.02-.21-.01Zm-28.84-.48c1.63-.79 1.67-2.93.08-3.68-.61-.28-.61-.26-.03-.63 1.85-1.18.88-3.51-1.51-3.63-2.65-.13-3.89 2.63-1.67 3.74l.45.23-.3.1c-2.08.75-1.92 3.42.25 4.12.6.19 2.12.06 2.73-.25Zm16.17-3.87v-4.11l-.58.04c-.91.06-2.52 1.21-2.52 1.79 0 .46-.07.48 1.23-.33.44-.27.81-.47.84-.44s.06 1.65.07 3.61l.01 3.55h.95zM44.9 46v-.41l-1.96.01c-1.08.01-1.98-.01-2.01-.04-.03-.02.67-.79 1.55-1.69 2.12-2.17 2.49-2.85 2.22-3.98-.59-2.43-4.51-2.28-5.05.19l-.07.32h.45c.43 0 .46-.02.52-.31.3-1.34 2.5-1.59 3.09-.35.48 1.02.13 1.67-2.2 4.05-1.7 1.74-1.84 1.91-1.84 2.25v.36h5.3zm-36.73-.34c-1.51-.56-1.34-2.58.25-2.96 1.7-.41 3.09 1.12 2.19 2.39-.44.61-1.61.88-2.44.57Zm1.88-.34c.65-.38.83-1.36.33-1.89-1.16-1.24-3.48-.3-2.98 1.21.28.86 1.7 1.22 2.65.68ZM8.1 41.61c-1-.53-.98-2.06.03-2.52 1.54-.69 3.11.64 2.32 1.98-.4.68-1.58.96-2.35.54Zm1.66-.17c.82-.39.91-1.62.15-2.07-1.34-.79-2.83.33-2.17 1.61.29.57 1.31.8 2.02.46ZM1.1 25.95V17.8l7.87.02 7.88.03v16.2l-7.88.03-7.87.02zm16.37 8.08c-.09-.08-.09-15.86-.01-16.07.06-.14.63-.16 5.48-.16h5.43l.23-.25.23-.25-5.69-.02-5.69-.03V1.15l8.13-.03 8.12-.02v5.65c0 4.72.02 5.64.14 5.59.32-.12.35-.52.4-5.84.03-2.94.06-5.36.06-5.38 0-.11 7.79 0 8.42.12 3.54.68 6.21 3.21 7.1 6.72.22.86.23 1.05.23 5.09v4.2l-4.19.03c-4.15.02-4.18.02-4.5.25l-.31.22 4.5.05 4.5.05v16.2h-15.8v-4.68c0-2.57-.03-4.67-.07-4.67s-.16.12-.27.26c-.21.26-.21.37-.21 4.7v4.44h-8.08c-4.45 0-8.12-.03-8.15-.07Zm-.79-8.05-.03-7.93-7.68-.03L1.3 18v15.9h15.4zm16.82 3.7v-4.22l-.44.43-.43.42-4.34 1.24c-2.39.68-4.37 1.21-4.41 1.17-.09-.09 2.28-8.39 2.5-8.74.09-.14.52-.62.95-1.07.42-.44.77-.83.77-.86S25.77 18 22.91 18h-5.18l-.05 6.16c-.03 3.39-.03 6.96 0 7.95l.05 1.79H33.5zm16.38-3.7-.03-7.93-4.45-.02-4.45-.03-3.22 3.22-3.23 3.21v9.47h15.4zM8.4 30.33c-1.25-.22-2.11-.99-2.35-2.1l-.07-.33h.7c.69 0 .71 0 .77.29.17.78 1.46 1.2 2.22.72.48-.3 1.03-1.6 1.03-2.42 0-.04-.23.08-.51.26-2.11 1.43-4.65-.32-4.18-2.89.53-2.91 4.64-3.2 5.68-.4 1.3 3.45-.58 7.36-3.29 6.87ZM43 29.4v-.8h-3.97l-.07-.38c-.09-.61.01-.82 1.79-3.57.92-1.43 1.72-2.68 1.79-2.77.09-.15.26-.18.93-.18h.83v5.6h1.1v1.3h-1.1v1.6H43zm-33.04.49c2.47-1.19 2.59-6.74.16-7.9-.63-.3-1.77-.31-2.42-.02C4.93 23.2 6.23 27.63 9.18 27c.51-.12 1.28-.58 1.39-.85.12-.33.33-.15.33.28-.01.98-.51 2.26-1.03 2.6-.92.6-2.19.29-2.57-.63-.11-.27-.16-.3-.61-.3h-.48l.15.45c.44 1.27 2.3 1.97 3.6 1.34Zm34.14-.69v-.8h1.1v-.79l-.52-.03-.53-.03-.03-2.82-.02-2.83h-1.29l-.49.72c-2.2 3.29-3.12 4.85-3.12 5.32v.46h4V30h.9zm-17.85-1.31c2.12-.61 1.94-.51 1.63-.91-.59-.78-2.51-2.48-2.65-2.35-.04.04-1.13 3.73-1.13 3.83 0 .03.08.03.18 0 .09-.03.98-.28 1.97-.57Zm13.85-.36c.01-.15 2.87-4.47 2.98-4.51.1-.03.12.51.1 2.25l-.03 2.28-1.53.03c-.83.01-1.52-.01-1.52-.05Zm2.11-.23H43l-.01-1.92c0-1.53-.03-1.89-.12-1.75-2.74 4.19-2.55 3.82-1.92 3.74.26-.04.83-.07 1.26-.07Zm-11.73-.61c1-.29 1.82-.55 1.82-.59s-.31-.58-.69-1.21l-.69-1.14-.73-.3c-1-.41-.95-.36-1.09-1.09-.07-.36-.17-.71-.24-.79-.15-.2-2.33-1.33-2.41-1.26-.06.06-1.15 3.83-1.15 3.98 0 .04.24.24.53.44.6.41 1.94 1.72 2.29 2.23.13.2.29.32.38.3.08-.03.97-.28 1.98-.57Zm-22.33-.55c-.75-.39-1.09-1.01-1.03-1.85.18-2.47 3.61-2.26 3.62.22.01 1.31-1.45 2.23-2.59 1.63Zm1.74-.33c1.29-.92.59-3.04-1-3.05-1.71 0-2.21 2.48-.64 3.2.43.2 1.25.13 1.64-.15Zm27.37-4.48c2.59-2.58 6.46-6.46 8.61-8.63l3.9-3.95-.13-.62c-.51-2.47-2.48-4.96-4.68-5.93l-.44-.2-8.88 8.91c-4.89 4.89-8.92 8.96-8.96 9.02-.04.09.32.33 1.15.77.67.35 1.24.64 1.26.66s.11.37.2.8l.16.77.7.26c.94.35.85.27 1.66 1.61.39.66.72 1.2.73 1.2s2.13-2.1 4.72-4.67Zm-3.39.3c-.07-.11 14.92-14.98 15.01-14.89.03.04-2.68 2.8-6.03 6.14-7.88 7.85-8.92 8.86-8.98 8.75Zm-1.8-.2c-.08-.12 16-16.19 16.1-16.1.04.04-3.55 3.7-7.99 8.14-4.43 4.43-8.08 8.01-8.11 7.96Zm-1.64-.4c.75-.84 16.74-16.7 16.8-16.66.12.07-16.53 16.73-16.72 16.73-.08 0-.11-.03-.08-.07Zm-1.63-.61c0-.1 16.93-17.02 17.03-17.02.2 0-.36.57-8.42 8.65-7.74 7.75-8.61 8.6-8.61 8.37ZM1.1 13.2c0-4.52.04-4.96.61-6.4 1.06-2.65 3.24-4.61 6.06-5.42.75-.22.92-.23 4.93-.23h4.15v16.1l-7.88.03-7.87.02zm15.58-4.03.02-7.88-4.07.03c-4.5.05-4.61.06-6.18.77-2.54 1.15-4.42 3.53-4.99 6.33-.13.63-.16 1.5-.16 4.73v3.95l7.67-.02 7.68-.03zm14.64 5.76 2.18-2.17V1.3H17.7v15.8h11.44zm18.56-1.43c.02-1.95 0-3.75-.03-3.99l-.07-.44-2.45 2.44c-1.34 1.34-3.12 3.15-3.95 4.02l-1.51 1.57 3.99-.02 3.99-.03zm-42.16-.14c-.86-.28-1.55-1.04-1.68-1.83l-.07-.43h1.29l.17.38c.62 1.41 3.17 1.02 3.17-.49 0-.86-.76-1.39-2.02-1.39H8.1V8.4h.69c1.17 0 1.85-.74 1.5-1.66-.39-1.03-2.25-1.06-2.68-.03l-.16.39h-.67c-.79 0-.82-.05-.44-.86.82-1.76 3.88-2.05 4.99-.46.64.93.4 2.44-.47 3.02l-.26.17.48.3c1.43.89 1.2 3.07-.42 3.9-.62.33-2.21.43-2.94.19Zm16.74-.01c-.8-.28-1.5-1.13-1.58-1.9l-.03-.3.61-.03.62-.03.22.46c.62 1.28 2.53.98 2.91-.47.43-1.6-1.41-2.78-2.79-1.79-.22.16-1.29.07-1.48-.12-.05-.04.43-3.92.51-4.14.03-.1.6-.13 2.4-.13h2.35v1.2h-3.58l-.05.43c-.14.98-.19 1.57-.14 1.57.02 0 .21-.07.4-.15 1.84-.77 3.72.58 3.72 2.65 0 2.18-1.97 3.51-4.09 2.75Zm-13.91-.37c1.74-.9 1.69-3.16-.07-3.79-.48-.17-.48-.19.11-.51.93-.51 1.21-1.82.59-2.76-1.01-1.51-4.23-1.1-4.75.61l-.11.37h.46c.44 0 .48-.03.7-.4.81-1.42 3.34-.72 3.09.86-.13.77-.54 1.11-1.57 1.27-.7.11-.7.11-.7.42v.32l.65.05c1.53.13 2.34 1.32 1.62 2.38-.72 1.07-2.71 1-3.28-.12-.26-.51-1.15-.6-1.03-.1.36 1.49 2.66 2.24 4.29 1.4Zm16.25.11c1.01-.45 1.6-1.38 1.6-2.49 0-1.96-1.9-3.18-3.67-2.35l-.53.24v-.42c0-.52.19-2.1.26-2.17.03-.03.84-.04 1.8-.02l1.74.04V5.1h-4.36l-.25 1.93c-.17 1.29-.21 1.94-.14 1.98.32.2.85.19 1.25-.02 1.74-.91 3.6.72 2.81 2.46-.61 1.36-2.6 1.51-3.18.25-.2-.45-1.03-.63-1.03-.22.02 1.33 2.21 2.29 3.7 1.61Zm17.33-11.2c-.43-.42-1.5-.53-5.6-.57l-4.03-.03v5.23l.01 5.23 4.85-4.89c2.67-2.69 4.81-4.93 4.77-4.97ZM.01 8.99C-.05 4.89 5.03-.08 9.19.01l.56.01-.45.1C4.15 1.17 1.16 3.86.34 8.15.12 9.33.02 9.59.01 8.99Zm50.95-.11C50.38 4.43 46.89.9 42.4.21c-1-.16-1.03-.25-.05-.18 3.11.21 6.41 2.6 7.9 5.72.6 1.25 1.18 3.65.88 3.65-.06 0-.14-.24-.17-.52Z"/></svg>