<svg xmlns="http://www.w3.org/2000/svg" width="51" height="51" viewBox="0 0 51 51"><path fill="#fff" fill-rule="evenodd" stroke="#fff" stroke-width=".394" d="M37.08 39.74c-.61-.33-.58.31-.58-11.76 0-12.47-.06-11.54.77-11.77.62-.18 8.05-.15 8.48.03.67.28.63-.4.71 11.62.08 11.9.09 11.49-.5 11.85-.42.26-8.41.29-8.88.03Zm8.83-.43.29-.29v-6.5c0-6.25-.01-6.51-.19-6.73l-.19-.24h-4.3c-5.29 0-4.72-.26-4.72 2.12 0 2.33.15 2.37.95.27.52-1.36.53-1.41.23-1.46-.44-.06-.29-.25.24-.3.72-.07.67-.14 1.28 1.39.3.75.65 1.49.77 1.64.36.43.3.49-.47.49-.69 0-.86-.1-.6-.36.24-.24-.13-.59-.67-.62-.49-.03-.53-.01-.68.27-.09.18-.11.31-.05.31.05 0 .1.09.1.2 0 .18-.07.2-.55.2h-.55v9.37l.26.27.27.26h8.29zm-5.41-.36c0-.05.08-.33.19-.6.1-.27.21-.64.24-.82l.06-.31-.47.26c-.92.52-1.92.27-2.5-.6-.77-1.17.22-2.88 1.66-2.88.2 0 .23-.03.16-.17-.22-.44-.1-1.58.19-1.96 1.32-1.74 3.99-.08 3.13 1.94-.06.13.02.17.41.23 1.36.18 2.11 1.51 1.53 2.71-.5 1.04-1.85 1.34-2.75.63l-.28-.22.07.5c.04.27.16.69.27.93.1.24.19.44.19.45 0 0-.47.01-1.05.01-.63 0-1.05-.04-1.05-.1Zm1.55-.42c-.04-.1-.14-.53-.23-.96-.2-.99-.1-1.11.47-.63.75.62 1.52.69 2.12.19 1.25-1.06.38-2.95-1.29-2.79-.28.02-.52.03-.52.02 0-.02.1-.25.21-.51.54-1.23-.12-2.39-1.36-2.39-1.19 0-1.85 1.27-1.25 2.44.26.52.27.5-.29.43-1.3-.15-2.26 1.09-1.71 2.22.51 1.04 1.68 1.22 2.6.38.56-.5.68.15.25 1.37l-.14.4h.61c.53 0 .59-.02.53-.17Zm-15.53-1.96c-.58-.33-.55.27-.53-9.91.03-10.86-.03-10.3.98-10.47.92-.15 7.9-.11 8.28.05.69.29.66-.28.68 10.27l.02 9.5-.37.35-.38.34h-4.22c-3.2-.01-4.29-.04-4.46-.13Zm8.92-.48.26-.31V22.89l-.25-.24-.24-.25h-4.24c-3.9 0-4.26.01-4.45.18-.23.2-.44 3.54-.22 3.67.2.13.57-.43 1.03-1.58.55-1.37.53-1.25.25-1.29-.45-.07-.28-.25.29-.31.7-.07.64-.13 1.06.98.41 1.06.86 2.03.98 2.11.37.22.07.44-.61.44-.71 0-.86-.1-.58-.38s-.07-.62-.65-.62c-.56 0-1 .4-.66.61.3.18 0 .39-.56.39h-.55v2.93c0 1.6-.03 3.55-.07 4.33-.12 2.76-.53 2.54 4.73 2.54h4.22zm-4.69-.34c-.73-1.2-1.8-2.41-2.94-3.31-.62-.48-.62-.53-.07-.98.8-.65 1.68-1.59 2.38-2.53.38-.51.75-.93.82-.93.06 0 .44.39.83.88.7.85 2.04 2.21 2.73 2.75l.35.27-.4.33c-1.59 1.3-2.56 2.34-3.36 3.57l-.16.24zm.87-1.15c.61-.81 1.31-1.52 2.19-2.22l.56-.45-.95-.89c-.53-.49-1.28-1.27-1.66-1.74-.89-1.06-.77-1.05-1.45-.13-.58.8-1.41 1.69-2.2 2.38l-.44.38.29.24c.73.61 2.19 2.14 2.57 2.7.23.34.44.58.47.55zm-15.48-1.04c-.17-.08-.41-.26-.53-.42l-.22-.27.03-8.01c.03-8.67.01-8.28.57-8.58.43-.23 8.48-.19 8.85.05.57.37.55.17.56 8.65 0 8.44.02 8.19-.54 8.5-.43.23-8.22.3-8.72.08Zm8.72-.49.24-.28v-6.38c0-7.28.06-6.77-.86-6.92-1.18-.19-7.86-.1-8.21.11l-.33.2v6.48c0 7.02-.02 6.79.54 7.02.11.05 2.05.08 4.29.07l4.09-.02zm-5.46-.37c0-.05.08-.28.19-.52.1-.24.22-.59.26-.77l.07-.34-.36.22c-.89.55-2.17.29-2.63-.54-.79-1.4.55-4.11 2.77-5.58.7-.47.85-.46 1.56.06 2.19 1.63 3.36 4.05 2.64 5.47-.48.95-1.88 1.23-2.7.54l-.31-.27.07.29c.04.16.15.53.26.81.11.29.2.56.21.59.01.04-.44.08-1 .09-.57.02-1.03-.01-1.03-.05Zm1.45-.73c-.37-1.26-.24-1.84.27-1.25.77.86 2.02.78 2.53-.15.56-1.04-.09-2.71-1.65-4.28-1.31-1.31-1.42-1.35-2.31-.74-2.89 1.97-3.7 5.75-1.23 5.75.47 0 1.17-.33 1.38-.65.3-.45.5-.32.42.26-.05.36-.4 1.54-.46 1.54 0 0 .26-.01.59-.03l.59-.04zM5.64 30.6c-.11-.04-.33-.23-.48-.4l-.27-.32.03-6.52c.03-7.31-.01-6.94.77-7.16.61-.17 8.14-.13 8.56.04.67.28.65.04.65 7.21v6.45l-.34.38-.34.37-4.19.02c-2.3.01-4.27-.02-4.39-.07Zm8.67-.49.29-.29V23.4c0-6.85.01-6.72-.52-6.89-.72-.23-8.36-.07-8.61.18l-.22.22-.03 6.46c-.03 7.06-.05 6.7.53 6.94.11.04 2.01.08 4.23.08l4.04.01zm-4.99-.66c-2.84-2.14-4.06-5.3-2.64-6.87.84-.93 2-.95 2.81-.03.17.2.31.4.31.46 0 .05.24-.16.53-.47 1.42-1.53 3.68-.16 3.42 2.06-.19 1.63-2.02 4.29-3.52 5.12l-.31.18zm33.98.31c0-.08.04-.18.1-.21.22-.14.12-.47-.11-.34-.9.48-1.69-.83-.91-1.52.18-.16.38-.29.45-.29s.13-.16.14-.41c.03-.94 1.09-1.3 1.59-.53.1.14.17.41.17.6-.01.26.04.35.2.4.33.1.65.43.72.75.16.71-.7 1.34-1.36.99-.23-.13-.25-.01-.04.26.27.35.19.44-.4.44-.41 0-.55-.04-.55-.14Zm-32.63-.74c2.52-2.11 3.52-4.97 2.21-6.31-.88-.9-2.03-.67-2.74.55-.31.53-.29.53-.52.01-.5-1.14-1.78-1.44-2.63-.61-1.41 1.37-.35 4.32 2.31 6.41.68.53.67.53 1.37-.05Zm29.21.29c-.58-1.59-1.15-2.81-1.31-2.81-.17 0-.17.02-.03.28.09.15.32.7.52 1.22.19.52.4 1.05.45 1.18.08.2.45.33.37.13Zm3.45-.43c.33-.17.68-.18.98-.02.79.4 1.45-.31.84-.91a.77.77 0 0 0-.56-.25c-.26 0-.3-.03-.24-.17.34-.9-.3-1.59-.92-.97-.22.22-.24.31-.18.7.06.43.06.44-.21.44-.15 0-.38.1-.51.22-.58.55.08 1.35.8.96Zm-4.5-.55c.02-.05-.05-.28-.16-.53l-.2-.45-.18.4c-.1.22-.18.43-.18.47-.02.13.65.23.72.11Zm-6.26-2.58-.87-.94.82-.9c.45-.5.84-.91.87-.91.07 0 1.53 1.58 1.64 1.76.04.07-.12.31-.36.55s-.61.65-.82.91l-.4.48zm-3.07.46c0-.04-.2-.53-.44-1.08s-.49-1.17-.56-1.37c-.07-.23-.18-.36-.29-.36-.16 0-.11.18.35 1.33.3.72.54 1.38.54 1.45 0 .06.09.12.2.12s.2-.04.2-.09Zm4.6-.72.62-.7-.63-.68c-.76-.81-.6-.81-1.38.01l-.64.68.64.69c.78.85.64.85 1.39 0Zm3.22-.69c.02-.22 0-.46-.03-.53-.1-.16.08-1.09.22-1.18.14-.08 4.98-.17 6.57-.11 1.52.06 1.54.07 1.56 1.39.01.75.04.88.19.91.28.06.26-2.27-.04-2.54-.32-.29-8.36-.29-8.68 0-.31.28-.33 2.73-.02 2.57.12-.07.2-.24.23-.51Zm-8.98.18c-.03-.13-.12-.36-.18-.52l-.12-.3-.21.52-.22.52h.4c.37 0 .4-.02.33-.22ZM45.3 25c0-.13-.1-.24-.27-.31-.32-.12-.43-.26-.43-.57 0-.18-.06-.22-.31-.22-.24 0-.32-.06-.4-.3l-.11-.3h-4.63l-.15.33c-.1.22-.23.33-.41.35s-.28.11-.35.35c-.06.21-.17.33-.34.37-.16.04-.26.14-.28.28l-.03.22h3.85c3.81 0 3.86 0 3.86-.2Zm-22.95-1.3c-.03-.05.02-.21.11-.35l.17-.27-.34.07c-1.32.25-1.56-1.2-.41-2.47.74-.82 1.45-.77 2.14.14.96 1.27.81 2.34-.33 2.32-.42 0-.49.02-.43.15.2.49.19.51-.34.51-.28 0-.54-.04-.57-.1Zm-3.42-.18c-.64-.03-.75-.1-.49-.31.11-.1.12-.19.04-.42-.16-.46-1.21-.45-1.37.01-.08.25-.07.32.04.37.41.15.13.33-.5.33s-.89-.16-.45-.27c.21-.05.49-.59 1.06-1.98.32-.8.32-.8.11-.85-.46-.12-.24-.35.34-.38l.57-.03.31.78c.67 1.63.94 2.23 1.07 2.34.38.32.14.45-.73.41Zm.37-.36c0-.02-.17-.41-.38-.87-.22-.46-.47-1.07-.57-1.36s-.25-.55-.33-.58c-.2-.07-.27.02-.14.17.06.08.27.58.47 1.13s.41 1.12.47 1.28c.08.21.48.41.48.23Zm3.25-.45c.39-.17.41-.17.78.02 1.3.67 1.36-1 .08-2.1-.55-.47-1.31-.07-1.77.92-.5 1.06-.07 1.61.91 1.16Zm14.77-.98c.02-.24-.01-.48-.06-.53-.06-.06-.05-.18.02-.32.06-.13.13-.36.14-.53.04-.4.2-.42 4.1-.44 4.27-.02 4.13-.07 4.1 1.46-.02.73 0 .84.18.93.31.17.31-2.29 0-2.6-.32-.32-8.23-.31-8.64.01-.35.28-.42 2.79-.07 2.57.13-.08.2-.26.23-.55Zm-1.82-.63c0-1.76.46-1.6-4.49-1.6-4.99 0-4.54-.15-4.59 1.55-.04 1.09-.03 1.17.15 1.13.21-.04.35-.71.2-1.02-.06-.11-.05-.27.02-.4.05-.11.11-.32.13-.46.04-.36.47-.4 4.39-.37 3.71.02 3.87.05 3.76.64-.02.13 0 .26.05.29s.06.13.02.23c-.17.42.04 1.21.33 1.21.02 0 .03-.54.03-1.2Zm8.74 1.03c1.01-.06 1.07-.07 1.04-.27a.31.31 0 0 0-.23-.24q-.45-.09-.45-.48c0-.17-.06-.23-.27-.26-.2-.02-.32-.12-.43-.35l-.15-.33h-2.01c-2.42 0-2.57.02-2.71.41-.09.23-.17.29-.42.29-.28 0-.31.03-.31.3 0 .29-.32.56-.51.44-.04-.02-.09.07-.11.21-.04.16 0 .25.11.28.26.07 5.3.08 6.45 0Zm-26.22-.53c-.19-.6-.25-.62-.41-.12-.07.2-.15.43-.17.5-.04.08.06.12.34.12h.4zm16.78.32c0-.1-.12-.22-.3-.29-.22-.08-.32-.2-.36-.42-.05-.23-.12-.31-.32-.33-.16-.02-.32-.14-.42-.33l-.17-.3-2.26-.03-2.27-.02-.14.35c-.12.29-.2.35-.44.35-.25 0-.3.05-.35.29-.04.19-.14.32-.29.37a.57.57 0 0 0-.3.18c-.24.35-.16.36 3.77.36 3.63 0 3.85-.01 3.85-.18ZM5.68 20.54c-.24-.07-.23-.15.1-.45.15-.15.48-.77.77-1.45.28-.65.52-1.22.53-1.26.02-.05-.08-.08-.23-.08-.2 0-.26-.04-.23-.18s.14-.17.63-.17h.59l.46 1.2c.51 1.31.73 1.8.92 2.08.18.25-.04.37-.67.37-.62 0-.84-.12-.66-.34.35-.42-.18-.84-.88-.7-.37.08-.58.54-.32.71.3.2-.51.41-1.01.27Zm5.92-.41c-.93-.84-1.32-1.85-1-2.67.21-.56 1.11-.78 1.54-.37l.23.21.18-.2c.26-.29.95-.27 1.3.03.65.56.38 1.75-.64 2.79-.8.81-.92.83-1.61.21Zm1.39-.38c.59-.62.9-1.23.91-1.76 0-.83-.78-1.12-1.3-.49l-.27.33-.22-.31c-.39-.56-1-.5-1.26.12-.27.65.09 1.52.91 2.25.59.52.61.52 1.23-.14Zm-4.21.37c-.01-.04-.28-.69-.58-1.44-.33-.84-.6-1.38-.68-1.38s-.11.06-.09.13c.03.06.25.72.49 1.44.39 1.2.45 1.33.66 1.33.13 0 .22-.03.2-.08Zm18-1.54c-.08-1.09.1-1.52.67-1.6.27-.04.56-.03.65.02.11.06.21.05.27-.01.07-.07 1.19-.09 3.26-.07 3.77.04 3.5-.06 3.49 1.27-.01.8.01.92.19 1.01.18.1.19.07.19-1.09 0-1.77.45-1.61-4.51-1.61-4.99 0-4.53-.17-4.57 1.65l-.04 1.27.22-.12c.2-.11.22-.18.18-.72Zm-10.48.15c0-.18-.06-.42-.12-.53-.11-.17-.1-.22.01-.29.08-.05.12-.18.08-.3-.11-.44.88-.89 1.34-.6.07.04.19.03.26-.03.09-.07 1.13-.09 3.29-.06 3.49.05 3.53.06 3.4.69-.03.14 0 .31.07.38s.08.14.01.21c-.16.16-.04.89.17 1.01.34.18.28-2.13-.06-2.47l-.25-.25-4.16.03-4.16.03-.19.24c-.16.2-.19.4-.19 1.37v1.14l.25-.12c.19-.09.25-.19.25-.45Zm20.87.49c.09-.05.12-.35.11-.92-.03-1.48-.27-1.4 4.59-1.37 4.07.02 3.76-.08 3.75 1.26-.01.8.01.92.19 1.01.33.18.29-2.17-.04-2.49l-.24-.22-4.17.03c-4.96.04-4.46-.14-4.46 1.6 0 1.16.02 1.26.27 1.1Zm-29.48-.15c0-.06-.08-.32-.18-.56l-.17-.43-.2.48c-.1.27-.21.52-.22.56-.02.05.15.08.37.08.26 0 .41-.04.4-.13Zm16.61-.14c0-.1-.15-.25-.33-.33-.23-.11-.33-.23-.35-.42-.03-.22-.09-.28-.27-.28-.26 0-.55-.24-.55-.46 0-.12-.39-.14-2.4-.14-2.32 0-2.4.01-2.4.2 0 .21-.27.4-.58.4-.14 0-.19.07-.19.27 0 .26-.25.53-.5.53-.07 0-.13.09-.13.2 0 .2.07.2 3.85.2 3.6 0 3.85-.01 3.85-.17Zm10.5-.03c0-.11-.07-.2-.15-.2-.23 0-.57-.4-.52-.6.04-.15-.02-.2-.26-.22-.29-.03-.39-.13-.51-.51-.09-.29-4.69-.21-4.74.08-.05.26-.3.45-.58.45-.17 0-.23.07-.26.28-.02.19-.12.31-.35.42-.18.08-.33.23-.33.33 0 .16.25.17 3.85.17 3.78 0 3.85 0 3.85-.2Zm10.5-.05c0-.17-.06-.25-.17-.25-.22 0-.53-.29-.53-.5 0-.12-.11-.2-.31-.24-.22-.04-.34-.14-.42-.36l-.11-.3h-2.33c-2.11 0-2.33.02-2.33.17 0 .24-.3.53-.56.53-.17 0-.23.06-.26.28-.02.19-.12.31-.35.42-.18.08-.33.23-.33.33 0 .16.25.17 3.85.17h3.85zM0 17.12c0-.38 1.65-2.37 2.6-3.14 1.98-1.61 2.5-1.73 11.99-2.73 7.49-.79 13.01-1.43 14.06-1.61 4.23-.77 6.16-3.01 7.37-8.57.13-.59.26-1.07.31-1.07.25 0-.69 3.61-1.33 5.12-.91 2.15-2.61 3.68-4.83 4.37-1.35.41-4.22.78-14.57 1.86-8.83.92-9.86 1.08-11.34 1.79-1.37.66-2.75 1.95-3.74 3.48-.34.53-.52.7-.52.5Zm3.07-7.73c-1.66-.88-1.05-4.17.9-4.83 2.12-.72 3.57 1.14 2.58 3.32-.65 1.44-2.27 2.15-3.48 1.51Zm1.7-.24c1.82-.54 2.45-3.55.9-4.28-1.16-.55-2.72.29-3.13 1.69-.54 1.85.53 3.1 2.23 2.59Zm2.53.08c-.34-.13-.38-.82-.19-2.96.17-2.02.27-2.13 1.96-2.24 1.17-.08 1.93.33 1.93 1.05 0 .21.02.24.1.12.05-.08.1-.32.1-.52 0-.83.67-1.32 1.26-.93.26.17.27.19.21.89-.03.39-.11 1.36-.18 2.16-.13 1.66-.19 1.87-.54 2-.86.33-.99.08-.92-1.7.03-.81.02-1.3-.03-1.11-.04.18-.17.46-.29.62-.26.35-.26.4-.01.89.25.5.25.71-.01 1.04-.57.73-1.06.65-1.29-.22-.17-.61-.22-.66-.64-.58-.36.07-.36.08-.36.56 0 .52-.23.9-.54.9-.08 0-.2.02-.28.04a.45.45 0 0 1-.28-.01Zm.61-.43c.13-.08.19-.22.2-.48.02-.76.09-.86.67-.92.61-.06.63-.05.86.67.21.63.29.7.62.48.37-.24.38-.38.09-1.04l-.27-.6.26-.31c1.19-1.42.12-2.61-1.97-2.19-.83.17-.89.34-1.03 3.12-.08 1.5-.03 1.59.57 1.27Zm6.16-.34c-1.5-.56-1.79-2.8-.56-4.2.8-.92 2.72-1.24 3.34-.56.37.41-.28 1.4-.8 1.2-1.1-.42-2.19.69-1.66 1.69.15.27.74.46 1.01.31.25-.13.26-.4.02-.4-.57 0-.79-.59-.39-1.06.34-.39 1.53-.48 1.87-.14.31.31.25 1.53-.11 2.26-.41.82-1.74 1.27-2.72.9Zm-2.1-.08c.06-.07.15-.83.22-1.68.06-.85.14-1.81.18-2.12l.06-.58h-.36c-.51 0-.53.09-.66 2.13-.16 2.51-.17 2.37.18 2.37.16 0 .33-.06.38-.12ZM3.84 8.2c-.48-.19-.71-1.08-.43-1.63.72-1.4 2.46-1.13 2.26.35-.12.93-1.07 1.59-1.83 1.28Zm12.06-.22c.56-.28.8-.75.88-1.64.06-.77-.05-.94-.6-.94-.91 0-1.55.65-.7.72.35.03.37.05.4.4.1 1.15-1.57 1.01-1.87-.16-.27-1.07.79-2.15 1.82-1.85.48.14.55.12.73-.22.44-.87-1.49-.88-2.62-.02-1.23.93-1.13 3.3.16 3.82.46.18 1.32.13 1.8-.11Zm1.4.06c-.3-.36.11-4.53.48-4.81.43-.34 1.29-.04 1.18.41-.03.12-.1.93-.16 1.81-.14 2.09-.18 2.42-.36 2.6-.21.2-.98.2-1.14-.01ZM19.18 8c-.27-.17-.3-.58-.13-2.58.17-2.19.23-2.39.73-2.48.52-.1.77.09 1.46 1.08.66.97.76.98.76.07 0-1.03.24-1.39.94-1.39.56 0 .6.16.46 2.03-.06.89-.14 1.73-.17 1.87-.03.15.05.06.2-.22.14-.25.56-1.02.93-1.7 1.31-2.41 1.35-2.46 1.93-2.31.5.13 2.01 3.68 1.81 4.28-.26.79-1.04.88-1.31.15l-.17-.45-.7-.03c-.8-.03-.83-.02-1.33.8-.35.59-.73.65-1.11.19l-.24-.28-.12.27c-.12.26-.48.5-.77.5-.25 0-.76-.52-1.3-1.32l-.52-.79-.07.38c-.03.21-.06.57-.06.81 0 .57-.22.97-.61 1.11-.38.13-.39.13-.61.01ZM4.91 7.75C5.6 7.12 5.52 6 4.78 6c-.67 0-1.2.56-1.2 1.29 0 .66.8.93 1.33.46Zm13.3-.01c.08-.1.16-.62.2-1.37.04-.67.11-1.61.14-2.09l.07-.88h-.3c-.4 0-.48.13-.6 1-.14 1-.26 3.26-.17 3.39.1.16.51.13.66-.05Zm1.75-.3c.06-.08.15-.68.19-1.35.04-.76.11-1.19.17-1.17s.47.58.92 1.23c.86 1.26 1.22 1.51 1.55 1.11.14-.17.44-4.07.31-4.2-.04-.04-.22-.05-.39-.01-.34.07-.36.13-.45 1.42-.1 1.3-.17 1.3-1.01.11-1.24-1.77-1.65-1.89-1.79-.48-.14 1.42-.25 3.43-.2 3.52.08.13.56.01.7-.18Zm4.49-.66c.17-.26.35-.53.4-.62.11-.17 1.8-.26 1.94-.1.05.05.14.26.21.47.22.68 1.01.32.84-.39-.07-.33-1.2-2.87-1.42-3.21-.2-.32-.59-.3-.78.04-2.23 4.07-2.21 4.02-1.86 4.22.25.15.34.1.67-.41Zm4.08.11c-.22-.27-.25-.7-.13-2.26.18-2.41.25-2.6.96-2.7.7-.09.77.09.59 1.63-.08.71-.15 1.44-.15 1.63v.34l.86-.07c1.13-.09 1.54.28 1.14 1.04-.2.38-3 .71-3.27.39Zm1.68-.3c1.18-.12 1.39-.2 1.39-.54 0-.25 0-.25-1.05-.25H29.5v-.62c.01-.35.07-1.13.15-1.73.15-1.2.12-1.3-.33-1.2-.42.09-.49.43-.67 3.13-.1 1.44-.16 1.39 1.56 1.21ZM8.35 6.52c-.07-.07-.06-.63.01-1.01.12-.6 1.54-.42 1.54.19 0 .31-.31.68-.63.74-.42.09-.87.13-.92.08Zm1.09-.54c.27-.38.2-.48-.34-.48h-.5v.35c0 .44.57.53.84.13Zm15.92-.66c-.06-.1.51-1.12.62-1.12.08 0 .52.97.52 1.13 0 .1-1.08.09-1.14-.01Z"/></svg>