<svg xmlns="http://www.w3.org/2000/svg" width="51" height="51" viewBox="0 0 51 51"><path fill="#fff" fill-rule="evenodd" stroke="#fff" stroke-width=".44" d="M29.48 43.68c-2.54-.19-4.97-1.19-7.95-3.26-3.42-2.37-5.69-3.53-7.52-3.83l-.71-.12v-1.78c0-2.09-.19-1.87 1.65-1.91 1.43-.04 1.75-.18 2.93-1.31.96-.93 1.32-1.64 1.32-2.59 0-1.42-.66-1.36-2.31.19-.82.77-.8.78-1.15-.43-.38-1.31-.2-2.03.93-3.62 2.49-3.51 6.19.23 5.03 5.08-.34 1.41-.94 2.48-2.42 4.33l-.23.29 1.02.99c3.98 3.84 8.03 5.89 11.65 5.89 1.67 0 3.09-.44 3.92-1.2.65-.6.72-.32.15.63-1.24 2.08-3.16 2.89-6.31 2.65Zm1.86-.28c1.76-.2 2.84-.72 3.67-1.75.63-.77.62-.78-.18-.38-2.71 1.32-7.03.52-10.83-2.02-1.83-1.22-5.2-4.15-5.2-4.52 0-.08.3-.51.66-.96 2.42-3.01 2.9-6.89 1.12-8.92-1.42-1.62-3.06-1.09-4.33 1.38-.52 1.02-.55 1.29-.24 2.34l.22.72.66-.6c1.72-1.58 2.69-1.45 2.58.36-.06 1-.34 1.54-1.36 2.56-1.21 1.22-1.57 1.38-3.21 1.46l-1.3.06v3.14l.52.06c1.53.15 4.28 1.55 7.48 3.8 2.86 2 5.13 2.97 7.61 3.26 1.05.12 1.14.12 2.13.01Zm3.11-5.3c-.86-.34-1.58-2.16-1.72-4.37-.03-.46-.09-.83-.12-.83s-.46.43-.95.96c-1.55 1.67-2.2 1.61-2.57-.25-.12-.62-.07-3.05.09-4.41l.07-.55.83-.28c.46-.15.87-.25.92-.22.06.04.1.66.1 1.4 0 1.94-.05 1.9 1.53 1.15 2.29-1.08 2.33-1.08 2.11.05-.61 3.16.58 5.91 2.86 6.56 1.01.28.8.44-.96.69-1.51.21-1.88.23-2.19.1Zm1.6-.3c.39-.05.85-.12 1.03-.15l.34-.06-.54-.26c-1.18-.59-2.13-1.9-2.45-3.36-.16-.78-.13-2.83.06-3.44.13-.43.14-.44-1.49.32-2.11.97-2.13.96-2.18-1.05l-.04-1.38-.63.21-.64.21-.07.55c-.04.31-.08 1.42-.08 2.46-.01 3.26.39 3.65 2 1.92 1.52-1.62 1.64-1.65 1.64-.37 0 .91.39 2.9.68 3.46.49.96.93 1.14 2.37.94Zm6.32-.57c-.04-.03-.07-.67-.07-1.4 0-1.35 0-1.35-.28-1.63-.87-.86-2.04-.27-3.62 1.84-.84 1.12-.83 1.11-1.44.46-.6-.64-.59-.65.3-1.77 1.58-2.01 1.58-2.38-.01-2.89-.47-.16-.95-.37-1.06-.47-.55-.51.16-2 1.82-3.8.6-.65.89-.76 1.97-.77.84 0 .82.1-.24 1.5-1.04 1.38-1.04 1.47-.2 2.05.33.22.71.58.85.82.26.41.27.41.91.45.36.02.73.08.82.12.17.08.18-.3.18-7.1 0-3.96.04-7.24.08-7.31.11-.17 1.49-.66 1.67-.59.13.04.15.36.15 2.06v2h.69c.88 0 .89.04.45.92-.44.89-.6 1.08-.91 1.08h-.23v13.71l-.85.4c-.95.43-.89.41-.98.32Zm1-.63.53-.23.02-6.91.03-6.91.35-.05c.31-.04.39-.12.67-.65.42-.78.44-.74-.35-.77l-.67-.03-.03-2.02c-.01-1.12-.04-2.03-.05-2.03-.02 0-.3.1-.62.23l-.6.23-.03 7.38c-.02 6.97-.03 7.38-.2 7.33-.09-.03-.37-.13-.62-.22-.37-.14-.52-.15-.83-.05-.39.11-.57.07-.57-.13 0-.26-.52-.86-1.04-1.21-1-.66-.98-.92.16-2.43l.81-1.06-.79.05-.79.05-.53.59c-1.24 1.36-1.92 2.45-1.92 3.11 0 .34.09.39 1.57.87 1.22.4 1.13 1.25-.32 3.07-.86 1.07-.86 1.05-.41 1.48.43.42.42.42 1.13-.54 1.41-1.9 2.57-2.55 3.61-2.01.59.31.72.65.72 2 0 .91.03 1.17.13 1.13.06-.03.36-.15.64-.27Zm-20.36.07c-.17-.17-.15-8.08.02-8.29.13-.17 1.62-.7 1.71-.6.17.17.06 8.41-.12 8.51-.44.23-1.51.48-1.61.38Zm3.41-4.18.03-4.21.79-.29c.44-.16.84-.25.88-.21.05.05.07 1.97.06 4.27l-.03 4.18-.69.24c-1.18.39-1.07.85-1.04-3.98Zm-2.52 3.74.6-.16v-3.99c0-2.19-.03-3.98-.06-3.98-.04 0-.33.1-.65.21l-.59.22v3.93c0 2.17.02 3.94.05 3.94s.32-.07.65-.17Zm3.45-.02.5-.18.03-3.96c.01-2.19.01-3.97-.01-3.97-.1 0-1.03.34-1.1.39-.12.11-.14 7.91-.02 7.9.06 0 .33-.08.6-.18Zm-.8-9.42c-.14-.22.6-1.43 1.3-2.14 1.76-1.77 4.65-2.11 7.16-.84 1.67.84 1.96 1.58.95 2.46-.84.75-2.1.8-3.86.16-1.66-.6-3.5-.49-5.02.28-.43.22-.45.22-.53.08Zm8.57-.34c.51-.18 1.03-.67 1.13-1.06.22-.88-2.28-2.02-4.45-2.03-1.95-.01-3.29.68-4.41 2.27-.59.85-.61.93-.09.67 1.32-.68 3.22-.72 4.95-.12 1.34.46 2.09.53 2.87.27Zm-10.65-.61c-.14-.14-.08-15.21.06-15.32.21-.17 1.5-.63 1.64-.58.14.06.2 15.01.05 15.22-.04.06-.38.23-.77.38-.38.16-.75.3-.81.32-.05.03-.13.01-.17-.02Zm.89-.58.59-.24.03-7.4.02-7.4-.65.26-.65.25v7.39c0 4.06.01 7.38.03 7.38s.3-.11.63-.24ZM21 22.92v-1.78l-1.41-.73c-.77-.4-1.41-.72-1.43-.7s-.26.51-.54 1.09c-1.27 2.64-2.96 3.58-6.22 3.47-3.31-.11-5.63-2.07-6.7-5.66-.4-1.34-.25-1.51.43-.49 1.27 1.91 3.08 2.95 5.32 3.06 3.8.17 5.83-2.18 5.78-6.68-.03-2.45.04-2.42-1.44-.65-1.19 1.43-1.52 1.75-1.63 1.64-.22-.22-.87-3.15-.75-3.35.21-.32 3.63-4.47 3.83-4.63.15-.12.21-.09.6.31.91.95 1.54 3.58 1.72 7.13l.07 1.4 1.06.34c.58.18 1.12.36 1.18.38.1.04.13-.8.15-3.83l.03-3.87.82-.28c.45-.15.84-.25.87-.21.03.03.06 3.44.06 7.57v7.52l-.8.37c-.43.2-.84.36-.9.36s-.1-.62-.1-1.78Zm1.5-6.41c.03-4.84.02-7.31-.05-7.3-.06 0-.33.08-.6.18l-.5.18-.05 3.89c-.04 3.35-.07 3.89-.2 3.91-.08.02-.73-.16-1.45-.39l-1.3-.43-.02-.6c-.13-3.34-.59-5.99-1.28-7.35-.26-.51-.59-.85-.74-.76-.08.06-3.37 4.02-3.65 4.41-.06.08.03.61.28 1.53l.39 1.4 1.31-1.56c1.4-1.66 1.49-1.74 1.65-1.44.16.31.33 2.39.26 3.27-.32 3.94-2.26 5.98-5.7 5.99-2.41 0-4.63-1.09-5.78-2.84-.28-.43.32 1.09.76 1.93 1.27 2.39 3.19 3.51 5.97 3.49 2.97-.02 4.45-.96 5.71-3.59.27-.57.55-1.03.62-1.03.06.01.8.35 1.62.78l1.5.77v3.42l.6-.28.6-.27zm14.45 6.47c-.02-.07-.06-.83-.07-1.68-.03-1.45-.05-1.58-.3-2.06-.78-1.49-2.09-1.57-2.56-.14-.23.68-.31.68-.74.05-1.35-2.01-3.71-1.24-3.96 1.28l-.07.72-.4.13c-.96.31-1.2.29-1.33-.16-.7-2.31.03-4.85 1.61-5.61 1.24-.6 2.92-.2 3.72.89l.24.32.14-.29c.63-1.2 2.21-1.43 3.26-.47l.41.36v-4.11l-.55-.2c-.77-.29-2.12-.51-3.12-.51-.77 0-.84-.02-.93-.22-.21-.5-.89-3.11-.84-3.2.11-.18 2.77-.02 3.71.21 1.43.36 2.38.78 2.96 1.31l.52.48v12.57l-.6.22c-.69.25-1.04.28-1.1.11Zm.98-.37.47-.13v-6.07c0-7.12.13-6.44-1.35-7.17-1.13-.55-3.49-1.04-5.03-1.04-.3 0-.29.1.14 1.66l.36 1.31 1.17.06c1.18.07 2.46.33 3.1.65l.36.17.03 2.48c.03 2.71-.02 2.91-.5 2.06-.73-1.3-2.8-1.2-3.3.17-.16.45-.3.43-.67-.08-1.41-1.92-4.14-1.41-4.92.9-.27.79-.31 2.23-.1 3.1l.13.54.35-.07c.75-.14.79-.18.87-.87.26-2.55 3.03-3.44 4.4-1.41l.24.35.12-.36c.41-1.25 1.68-1.44 2.6-.4.63.72.74 1.12.78 2.82.03 1.09.07 1.52.16 1.5.06-.02.32-.1.59-.17Z"/></svg>