<svg xmlns="http://www.w3.org/2000/svg" width="51" height="51" viewBox="0 0 51 51"><path fill="#fff" fill-rule="evenodd" stroke="#fff" stroke-width=".656" d="M25.86 41.84c-.03-.09-.06-.29-.06-.45v-.29h-.71c-.89 0-1.09-.1-1.09-.55 0-.35-.01-.35-.44-.35-1.09 0-1.36-.09-1.42-.5l-.06-.38-.87-.08-.86-.09-.03-.37-.03-.36-.82-.09-.82-.08-.05-.35-.05-.35-.65-.03c-1.02-.04-1.1-.07-1.1-.46 0-.4-.11-.46-.83-.46-.85 0-.97-.07-.97-.5v-.37l-.52-.07c-.29-.03-.69-.06-.89-.06-.4 0-.5-.12-.42-.52.05-.28.05-.29-1.29-.43-.59-.07-.76-.23-.66-.65.02-.11-.16-.17-.77-.23-.9-.1-1.05-.18-1.05-.57 0-.26-.02-.27-.83-.36l-.82-.09-.05-.4c-.05-.39-.06-.4-.47-.43-.43-.03-.43-.03-.43-.43 0-.38-.01-.39-.34-.39-.54 0-.57-.1-.54-1.95.03-1.81.02-1.77.6-1.89.21-.05.27-.13.3-.38.03-.32.15-.43.6-.52.22-.05.28-.13.34-.44.08-.42.18-.52.57-.52.24 0 .27-.04.27-.34 0-.39.13-.53.55-.58.27-.03.31-.07.35-.43.05-.39.06-.4.48-.43s.42-.04.42-.42c0-.41.11-.5.6-.5.24 0 .28-.04.34-.39.06-.4.19-.51.61-.51.2 0 .25-.07.31-.37.08-.44.18-.53.62-.53.28 0 .32-.03.32-.26 0-.44.17-.64.55-.64.33 0 .35-.02.35-.32 0-.45.09-.55.52-.63.34-.06.37-.1.4-.43.03-.34.06-.37.45-.45.39-.07.42-.1.45-.45.02-.28.08-.38.23-.4.6-.09.64-.11.67-.5.03-.35.05-.37.43-.42s.4-.07.45-.45.07-.4.44-.45c.36-.05.4-.08.5-.45.1-.35.16-.41.46-.45.31-.05.35-.09.41-.44.07-.42.21-.56.61-.56.24 0 .27-.04.3-.42.03-.42.04-.43.43-.48.3-.04.41-.1.43-.25.09-.59.11-.62.51-.69.37-.06.4-.08.43-.44.03-.35.06-.38.45-.46s.42-.11.45-.45c.03-.33.06-.37.45-.45.39-.09.42-.12.45-.45l.03-.36.85-.07c1.02-.07 2.7.01 2.88.15.06.05.12.22.12.38 0 .23.04.29.22.29.57 0 .68.1.68.56v.44h.78c.87 0 1.02.08 1.02.56v.32l.8.04c.87.03 1 .11 1 .61v.27h.78c.88 0 1.02.08 1.02.57v.33h.64c.96 0 1.16.1 1.16.6v.4h.64c.93 0 1.16.11 1.16.55v.35h.69c.98 0 1.21.11 1.21.55v.35h.78c.88 0 1.02.08 1.02.57v.33h.8c.84 0 1 .09 1 .57 0 .14.11.22.43.29.4.08.42.11.47.49.05.37.08.4.4.45l.35.05.03 2.55c.03 3.02.03 3-.43 3-.33 0-.35.02-.35.34 0 .39-.13.53-.55.58-.25.02-.31.08-.33.33-.05.4-.16.52-.57.59-.31.06-.35.1-.35.39 0 .4-.15.57-.52.57-.22 0-.29.05-.33.28-.1.45-.2.57-.56.62-.28.04-.34.1-.4.38-.09.42-.16.5-.54.54-.26.03-.31.08-.35.37-.05.36-.17.46-.62.56-.21.04-.28.11-.28.28 0 .35-.21.56-.6.59-.31.03-.35.06-.38.35-.04.38-.17.5-.57.55-.26.02-.3.08-.33.35-.04.38-.17.5-.57.55-.25.02-.31.08-.33.33-.05.4-.19.55-.53.55-.23 0-.3.05-.34.28-.1.45-.2.57-.56.62-.3.04-.35.09-.39.39-.05.36-.17.46-.62.56-.21.04-.28.11-.28.29 0 .43-.11.56-.51.62-.36.06-.39.09-.39.39 0 .38-.14.52-.55.57-.26.02-.3.08-.33.35-.04.38-.17.5-.57.55-.25.02-.31.08-.33.33-.05.41-.19.55-.56.55-.3 0-.33.03-.42.43-.08.38-.12.42-.44.47-.29.04-.35.1-.41.36-.09.45-.17.54-.5.54-.25 0-.29.04-.29.29 0 .59-.04.61-1.1.61-.8 0-.99-.03-1.04-.16Zm1.82-.41c.03-.22 0-.23-.72-.23-.75 0-.76 0-.76.25 0 .38 1.43.35 1.48-.02Zm-.88-2.22v-1.59l-.76-.07c-.96-.09-.95-.11-.87 1.28l.06 1.17h.37c.43 0 .6.14.6.52 0 .24.04.28.3.28h.3zm.9-.51v-2.1h-.23c-.25 0-.37 1.12-.37 3.47v.73h.6zm-2.88-.52-.03-1.58h-.49v1.64c0 1.63 0 1.65.23 1.68.32.05.32 0 .29-1.74Zm-.85.9c-.04-.46-.07-1.4-.07-2.1V35.7h-.25c-.2 0-.25.05-.25.26 0 .36-.34.29-.38-.09-.03-.24-.07-.27-.41-.27-1.06 0-1.31-.1-1.31-.5v-.37l-.86-.06c-.89-.05-1.09-.15-.98-.49.07-.23-.21-.34-1.11-.45l-.7-.08-.05-.35-.05-.35-.85-.1-.85-.1-.03-.37-.03-.37-.67-.06c-.37-.03-.76-.07-.87-.08-.15-.02-.21-.11-.23-.39l-.03-.37-.87-.03-.87-.03-.03-.37-.03-.37-.92-.03-.92-.03-.03-.38-.03-.38-.72.03-.72.03-.05.75-.05.75-.37.03c-.32.03-.38.07-.38.27 0 .25.19.31 1.25.37.28.02.41.08.43.2.03.15-.05.17-.82.11L8 31.97v.27c0 .25.02.26.62.27.97.02 1.12.08 1.16.5l.03.36.8.06c.96.08.99.09.99.52v.33l.68.07c1.19.11 1.22.12 1.22.5s.12.45.75.45c.88 0 1.05.08 1.05.5v.38l.73.07c1.03.09 1.07.11 1.07.49v.34l.88.08.87.09.03.36.03.36.8.06c.96.08.99.09.99.51v.33l.76.06c.85.06 1.04.17 1.04.58 0 .27.02.28.58.32.31.02.66.04.76.05.18.02.19-.03.13-.8Zm4.63-.47c0-.41.11-.51.56-.51.19 0 .24-.05.24-.24 0-.43.1-.56.44-.56.43 0 .54-.1.58-.5.03-.33.06-.35.43-.4.38-.05.4-.07.43-.45.04-.45.14-.55.6-.55.3 0 .32-.02.32-.33 0-.18.05-.38.12-.45s.27-.12.45-.12c.31 0 .33-.02.33-.34 0-.39.13-.53.55-.58.27-.03.31-.07.35-.43.04-.3.1-.41.25-.43.6-.09.64-.11.67-.5.03-.35.06-.38.45-.46s.42-.11.45-.45c.03-.33.06-.36.45-.44.39-.07.42-.1.45-.45.03-.36.04-.37.45-.4.42-.03.42-.03.45-.45l.03-.42.47-.03c.47-.03.48-.04.48-.35 0-.44.1-.55.5-.59.33-.03.35-.06.4-.43.05-.38.07-.4.45-.45s.4-.07.45-.45c.05-.37.07-.4.48-.48s.42-.09.42-.47c0-.41.02-.43.65-.52.15-.02.21-.12.23-.41.02-.21.09-.4.15-.42.07-.02.24-.06.4-.09l.27-.06v-2.3h-.29c-.28 0-.3.03-.33.43-.03.41-.04.42-.43.47-.37.05-.4.08-.45.39-.04.3-.1.36-.45.45-.34.1-.41.16-.43.41-.04.38-.12.46-.54.54-.29.06-.34.11-.38.46-.05.39-.06.4-.47.43s-.43.05-.43.35c0 .44-.09.54-.57.62-.41.06-.43.09-.43.4 0 .37-.08.45-.54.54-.26.06-.32.12-.36.41-.04.3-.1.36-.45.46-.36.1-.4.14-.43.47-.03.34-.06.37-.45.44-.38.08-.42.12-.47.43s-.09.35-.47.43c-.39.07-.42.1-.45.45-.03.34-.06.37-.45.45-.39.07-.42.1-.45.45s-.05.37-.4.4-.38.06-.45.45c-.08.39-.11.43-.5.51s-.42.11-.45.45-.06.37-.45.45c-.41.08-.43.1-.43.46 0 .41-.11.5-.61.5-.26 0-.29.03-.29.35 0 .38-.2.55-.64.55-.23 0-.25.04-.28.48-.03.47-.03.47-.4.5l-.38.03V39h.3c.28 0 .3-.02.3-.39Zm-1.8-1.71v-.3h-1.7v.6h1.7zm.9-.9v-.3h-2.6v.6h2.6zm-3.68-1.07c.03-.36.05-.38.43-.43.39-.05.4-.06.43-.46.03-.43.16-.54.68-.54.17 0 .23-.09.3-.42.08-.41.11-.43.47-.46.33-.03.37-.06.37-.32 0-.49.09-.6.51-.6.37 0 .39-.02.39-.3 0-.29-.02-.3-.42-.3-.24 0-.5-.05-.58-.1-.26-.16.04-.32.54-.29.41.04.46.02.46-.17 0-.2-.08-.22-1.27-.33-1.56-.14-1.76-.18-1.7-.34.03-.08.23-.11.61-.09.49.02.56 0 .56-.17 0-.16-.11-.19-.9-.25l-.9-.08v-.33c0-.39-.04-.41-1.05-.51-.38-.03-.74-.09-.8-.12-.1-.06-.17-.07-.92-.1-.32-.02-.43-.06-.43-.18 0-.14.1-.16.65-.12.56.03.65.02.65-.13 0-.14-.13-.19-.67-.24-2.51-.23-2.83-.28-2.83-.43 0-.13.13-.14.9-.09.76.06.9.04.9-.08 0-.19.25-.13-1.85-.39l-1.8-.22-.03-.37-.03-.37h-.78c-.87 0-1.01-.08-1.01-.57 0-.35-.02-.36-.37-.27-.18.05-.23.14-.23.4 0 .37-.21.54-.64.54-.23 0-.26.04-.26.34 0 .39-.13.53-.55.58-.24.02-.3.09-.36.35-.09.45-.26.63-.59.63-.24 0-.28.05-.36.43s-.12.42-.44.47c-.29.04-.36.1-.38.33l-.03.27h.78c.89 0 1.03.08 1.03.57v.32l.88.03.87.03.05.35.05.34.75.11c.9.12 1 .18 1 .55 0 .27.01.28.72.35.91.09 1.08.18 1.08.55 0 .25.04.3.33.34.17.03.57.08.87.13.5.07.56.11.64.4.1.34.33.43 1.08.43.54 0 .78.15.78.49 0 .27.01.28.83.37l.82.09.09.38c.08.32.14.37.37.37.25 0 .28-.04.31-.37Zm3.68.03c0-.37.12-.46.6-.46.27 0 .29-.03.32-.42.03-.42.04-.43.41-.46.33-.03.37-.06.37-.32 0-.43.1-.6.34-.6.5 0 .65-.11.68-.49.03-.33.06-.37.45-.45.39-.09.42-.12.45-.45.02-.27.08-.37.23-.39.6-.09.64-.11.67-.5.03-.35.05-.37.39-.4.33-.03.36-.06.45-.45.08-.39.11-.42.46-.45s.37-.05.44-.47c.06-.43.07-.44.48-.47.4-.03.41-.04.46-.43.05-.38.07-.4.45-.45s.4-.07.45-.45.07-.4.41-.43c.38-.03.49-.18.49-.69 0-.18.07-.23.45-.29.44-.06.45-.07.45-.44 0-.41.11-.5.61-.5.25 0 .29-.04.29-.28 0-.4.19-.6.6-.64.33-.03.35-.06.4-.43.05-.38.07-.4.42-.43s.38-.06.45-.45c.08-.4.11-.42.48-.47s.4-.07.43-.4c.04-.39.15-.5.55-.5.24 0 .27-.04.27-.34 0-.39.13-.53.55-.58.23-.02.31-.09.33-.27.05-.32-.12-.41-.85-.41h-.62l-.03.42c-.03.41-.04.43-.45.51-.39.07-.42.1-.45.45s-.06.38-.45.46-.42.11-.45.45c-.03.33-.06.37-.45.45-.4.09-.43.12-.43.43 0 .37-.21.53-.69.53-.27 0-.3.03-.33.38s-.06.38-.45.46c-.39.09-.42.12-.45.45-.03.34-.05.36-.43.41-.39.05-.4.06-.43.46-.03.44-.16.54-.69.54-.19 0-.22.06-.25.42-.03.42-.04.43-.4.46-.35.03-.38.06-.45.45-.08.4-.11.42-.48.47-.38.05-.4.07-.45.45-.05.37-.08.4-.39.45-.3.04-.36.1-.45.45-.08.27-.18.41-.31.43-.6.09-.64.11-.67.49-.02.29-.08.39-.23.41-.61.09-.65.12-.65.46 0 .37-.12.46-.61.46-.26 0-.29.03-.29.33 0 .42-.15.57-.56.57-.31 0-.33.02-.36.43-.03.42-.03.42-.45.45s-.42.03-.45.45-.03.42-.45.45c-.41.03-.42.04-.45.45-.02.33-.07.42-.23.45-.58.08-.65.13-.65.37 0 .25.01.25.8.25h.8zM6.8 29.19v-1.6l-.25.03-.26.03-.05 1.48c-.05 1.62-.04 1.67.32 1.67h.24zm.9-.04V27.5h-.6v3.3h.6zm.8.55v-1.1H8v2.2h.5zm20 .77c0-.18.05-.38.12-.45s.27-.12.45-.12c.29 0 .33-.03.33-.25 0-.21-.05-.25-.29-.25-.52 0-.61-.08-.61-.56v-.43l-.88-.03-.87-.03-.03-.37c-.04-.42-.05-.43-1.1-.52-.79-.07-.82-.09-.82-.5 0-.37-.22-.45-1.15-.46-.52 0-.63-.08-.67-.5l-.03-.35-.75-.05c-.91-.07-1-.12-1-.56v-.34l-.62-.01c-.97-.02-1.12-.08-1.16-.52l-.03-.36-.87-.03-.87-.03-.03-.83-.03-.83-.27.03c-.23.03-.28.08-.32.43-.05.38-.07.4-.45.45-.36.04-.4.08-.43.35-.05.4-.19.55-.53.55-.24 0-.29.04-.29.25 0 .24.02.24.82.27l.83.03.03.42.03.41.82.07c.93.08 1.07.16 1.07.56 0 .16.01.29.03.3.01 0 .4.06.87.12l.85.12.03.33c.02.17.04.32.05.33.01 0 .37.04.8.08.89.1.87.09.96.53.07.32.08.33.71.4 1.06.12 1.1.14 1.1.53V29h.68c.84 0 1.16.15 1.2.56l.03.31.75.06c.85.06 1.04.17 1.04.58 0 .24.04.29.25.29.22 0 .25-.04.25-.33Zm-16.4-.77c0-.3-.01-.3-.54-.3-.7 0-.86.07-.86.36 0 .23.03.24.7.24h.7zm18.2-.95c0-.24-.02-.25-.7-.25s-.7.01-.7.25.02.25.7.25.7-.01.7-.25Zm-21.78-1.2c0-.36.01-.71.02-.77.01-.07-.1-.13-.24-.13-.24 0-.25.02-.28.78-.03.77-.03.77.23.77.24 0 .25-.02.27-.65Zm1 .28c.03-.37.04-.38.45-.41.42-.03.42-.03.45-.45.03-.41.04-.42.46-.51.4-.09.42-.11.42-.48 0-.39.02-.41.65-.5.14-.02.22-.15.29-.45.09-.42.23-.53.74-.53.19 0 .22-.05.22-.39 0-.42.11-.51.61-.51.26 0 .29-.03.29-.35 0-.38.2-.55.64-.55.23 0 .26-.04.26-.39 0-.42.11-.51.61-.51.27 0 .29-.02.29-.4s.01-.4.33-.4c.44 0 .55-.09.59-.5.03-.32.06-.36.46-.44.4-.09.42-.1.42-.47s.01-.38.45-.45c.44-.06.45-.07.45-.45 0-.4.02-.42.65-.51.15-.02.21-.12.23-.38.04-.41.15-.5.6-.5.3 0 .32-.02.32-.33 0-.18.05-.38.12-.45s.27-.12.45-.12c.32 0 .33-.02.33-.39 0-.42.11-.51.61-.51.26 0 .29-.03.29-.33 0-.18.05-.38.12-.45s.27-.12.45-.12c.32 0 .33-.01.33-.44 0-.48.09-.56.61-.56.26 0 .29-.03.29-.33 0-.42.15-.57.56-.57.31 0 .33-.02.36-.42.03-.41.04-.42.48-.53.38-.09.45-.15.48-.38l.03-.27h-1.6l-.03.43c-.03.42-.03.42-.45.45-.38.03-.43.06-.43.28 0 .44-.17.64-.55.64-.32 0-.35.03-.35.29 0 .48-.1.61-.51.67-.35.06-.39.1-.39.34 0 .44-.1.6-.37.6-.43 0-.63.18-.63.55 0 .36-.03.38-.65.47-.15.02-.21.12-.23.4-.03.34-.06.38-.4.44-.41.08-.52.18-.52.52 0 .23-.04.26-.52.36-.23.05-.29.13-.34.45-.06.35-.1.4-.43.46-.41.08-.51.19-.51.57 0 .24-.04.27-.43.3-.42.03-.42.03-.45.46-.03.38-.06.42-.3.42-.38 0-.48.1-.58.55-.09.37-.13.4-.46.43s-.36.06-.42.41c-.06.41-.19.51-.67.51-.27 0-.29.03-.29.39 0 .42-.11.51-.61.51-.25 0-.29.04-.29.29 0 .38-.23.61-.61.61-.24 0-.29.04-.29.26 0 .44-.17.64-.55.64-.32 0-.35.03-.35.29 0 .5-.09.61-.5.61-.36 0-.38.02-.46.42-.08.41-.11.43-.46.46l-.38.03v.57c0 .31-.03.67-.06.8-.06.2-.03.22.29.22.34 0 .36-.02.39-.37Zm21.7-.05c.03-.43.03-.43.51-.52.45-.08.47-.09.47-.42 0-.35.03-.38.52-.48.21-.05.27-.13.33-.46.07-.4.11-.43.7-.52.15-.02.21-.12.23-.41.02-.21.09-.4.15-.42.07-.02.24-.06.39-.09.23-.05.28-.12.28-.36 0-.3-.01-.3-.57-.31-1.03-.02-1.18-.09-1.18-.51v-.37l-.75-.06c-.99-.08-1-.09-1-.48s-.19-.47-1.11-.47c-.56 0-.79-.18-.79-.61 0-.26-.03-.29-.32-.29-1.08 0-1.37-.1-1.4-.49-.03-.32-.06-.36-.33-.39-.16-.01-.58-.05-.92-.08l-.63-.06v-.34c0-.19-.01-.34-.02-.35-.02 0-.41-.04-.87-.08-.86-.09-1.01-.17-1.01-.58 0-.23-.24-.3-1.3-.36-.44-.02-.45-.03-.48-.39-.05-.61-.58-.5-.64.12-.03.33-.06.35-.43.4-.38.05-.4.07-.45.45s-.07.4-.45.45-.4.07-.45.45c-.05.36-.08.4-.42.48-.3.07-.38.14-.44.4-.09.44-.22.57-.55.57-.25 0-.29.04-.29.3v.29l.82.03c.66.02.83.06.83.18s-.16.15-.85.15c-.84 0-.85 0-.85.25 0 .24.02.25.85.3l.85.05.03.36.03.36.8.06c.96.08.99.09.99.53v.34l.62.01c.97.02 1.12.08 1.16.51.04.41.17.48.95.48.66 0 .87.13.87.54v.33l.93.09.92.09.03.43.03.42h.84c.9 0 1.05.09 1.05.59 0 .25.14.28 1.32.3l.97.01zm-4.52-.83c0-.21-.05-.25-.27-.25-.16 0-.52-.03-.81-.06-.51-.07-.52-.06-.52.19 0 .28.12.31 1.18.35.39.02.42 0 .42-.23Zm-3.78-1.9c.04-.2.01-.25-.16-.25-.11 0-.45-.03-.74-.07-.52-.06-.54-.05-.5.18.06.43 1.32.56 1.4.14ZM16.7 25c0-.4-1.42-.43-1.48-.02-.03.21 0 .22.72.22.69 0 .76-.02.76-.2Zm27.22-1.92c.02-.73.02-1.66 0-2.05l-.03-.73h-.59v4.1h.59zm.68-1.18c0-2.16-.02-2.5-.15-2.5s-.15.34-.15 2.5.02 2.5.15 2.5.15-.34.15-2.5Zm-25.2 1.35c0-.24-.02-.25-.75-.25s-.75.01-.75.25.02.25.75.25.75-.01.75-.25Zm16.35-.14c.06-.37.09-.4.43-.43.32-.03.37-.07.4-.3.03-.28-.02-.31-.63-.4-.15-.02-.21-.12-.23-.4-.03-.41-.01-.4-1.24-.53l-.58-.06v-.76l-.82-.07c-.86-.07-.98-.14-.98-.57 0-.25-.02-.26-.82-.33-.98-.08-.98-.08-.98-.52v-.34h-.71c-.89 0-1.09-.1-1.09-.55v-.35h-.59c-1.02 0-1.19-.07-1.23-.49l-.03-.36-.9-.05-.9-.05-.03-.82-.03-.83h-.29c-.28 0-.3.02-.3.39 0 .42-.11.51-.6.51-.26 0-.29.04-.32.38s-.06.38-.4.46c-.3.08-.38.14-.38.33 0 .22.03.23.84.23.91 0 .96.03.96.61v.29h.68c.98 0 1.12.06 1.12.45 0 .4.11.45.91.45.76 0 .99.12.99.5 0 .17.01.3.03.31.01 0 .37.04.81.08.83.09.96.17.96.64 0 .27.01.27.64.27.92 0 1.16.11 1.16.53v.34l.77.07c.88.08 1.03.17 1.03.57v.29h.66c.84 0 1.04.11 1.04.55 0 .56.55.52.65-.04Zm2.85-2.66c.05-.38.07-.4.42-.43s.37-.05.44-.48c.06-.42.08-.44.45-.5.33-.06.39-.1.39-.31 0-.43.18-.63.55-.63.31 0 .35-.03.35-.25 0-.23-.03-.25-.52-.25-1.09 0-1.28-.08-1.28-.51v-.37l-.62-.06c-.35-.03-.76-.07-.93-.08-.27-.03-.3-.07-.33-.4-.03-.4-.13-.44-1.32-.51-.44-.02-.45-.02-.5-.42l-.05-.4-.73-.06c-.97-.09-1.02-.12-1.02-.53v-.34l-.78-.07c-.94-.07-1.06-.13-1.1-.53-.03-.33-.05-.33-1.37-.44-.27-.03-.3-.07-.33-.39l-.03-.36-.81-.07c-.98-.08-.98-.08-.98-.52 0-.55-.57-.52-.62.04-.03.35-.05.37-.43.42-.39.05-.4.06-.43.48-.03.39-.05.42-.32.42-.45 0-.6.1-.6.4 0 .36-.24.6-.6.6-.28 0-.4.15-.4.51 0 .17.08.19.83.19.84 0 1.15.09 1.03.29-.05.08-.34.1-.97.05l-.89-.07v.25c0 .24.03.25.85.31 1.02.07 1.05.09 1.05.53v.34l.53.01c1.11.01 1.32.09 1.29.52-.04.37-.03.37.35.37.21 0 .62.03.91.06l.52.07v.77h.52c1.09 0 1.28.08 1.28.5v.37l.87.09.88.09.03.37.03.36.82.08c.45.05 1.24.08 1.76.09.6 0 .96.04.98.11.04.13-.5.24-1.25.24-.49 0-.52.01-.52.25v.26l1.27-.03 1.28-.03zm-2.9.1c0-.22-.04-.25-.37-.25-.21 0-.55-.03-.75-.06-.36-.06-.38-.05-.38.19 0 .28.13.32 1.07.35.4.02.43 0 .43-.23Zm7.25-1.75c.1-.33-.03-.4-.76-.4h-.69v.6h.69c.61 0 .7-.03.76-.2Zm-12.65-.95c0-.27.06-.25-1.22-.29-.45-.02-.36.42.09.47 1.03.1 1.13.09 1.13-.18Zm-6.4-.1c0-.38-1.43-.35-1.48.03-.03.21 0 .22.72.22.75 0 .76 0 .76-.25Zm4.6-.8c0-.21-.05-.25-.29-.25-.15 0-.49-.03-.75-.06-.44-.07-.46-.06-.46.19 0 .28.13.32 1.08.35.39.02.42 0 .42-.23Zm12.68.03c-.05-.38-1.48-.41-1.48-.03 0 .25.01.25.76.25.72 0 .75-.01.72-.22Zm-14.48-.92c0-.23-.03-.25-.76-.28-.79-.03-.93.04-.8.37.11.29 1.56.21 1.56-.09Zm9-1.81c0-.21-.05-.25-.29-.25-.15 0-.49-.03-.75-.06-.46-.07-.48-.06-.44.17.03.21.1.25.53.3.95.11.95.11.95-.16Zm-8.1-3.74c0-.36-.7-.47-2.3-.36l-1 .08v.57h3.3zm-1.42-.71c1.31 0 1.43-.01 1.4-.18-.03-.15-.19-.17-1.63-.17h-1.6l-.03.24c-.03.21-.01.23.2.18.12-.04.87-.07 1.66-.07Z"/></svg>