<svg xmlns="http://www.w3.org/2000/svg" width="51" height="51" viewBox="0 0 51 51"><path fill="#fff" fill-rule="evenodd" stroke="#fff" stroke-width=".693" d="M7.78 50.7c-2.54-1.91-4.23-5.58-3.89-8.46.22-1.82 1.27-4.31 1.66-3.92.03.02.09.49.15 1.04.27 2.62 1.49 4.47 3.23 4.89l.27.07v-.56c0-1.42-.81-3.2-2.85-6.25-2.91-4.39-3.79-7.17-3.46-11.06.22-2.57.82-4.95 1.63-6.48.44-.82.61-.78.83.21.3 1.36 1.13 2.94 2.14 4.04.43.47 1.87 1.58 2.05 1.58.11 0 .06-1.13-.1-2.5-.36-3.01-.14-5.31.85-8.84 1.02-3.61.92-5.47-.48-9.02-.74-1.87-.74-1.87 1.09-.83 5.69 3.24 8.13 6.47 8.9 11.8.27 1.85.68 2.97 1.66 4.52.46.73.45.74.27-.58-.67-4.94.97-9.64 4.3-12.3.92-.73 3.53-2.12 3.8-2.02.2.08.36.43 1.03 2.4.61 1.78.81 2.17 1.54 2.99.84.94 1.07 1.04 1.88.82.46-.12 1.06-.18 1.94-.19l1.28-.01 1.07-1.05c2.63-2.56 3.75-2.57 4.56-.04.14.46.31.78.5.94.31.26.66.9.91 1.68l.17.53.4-.21c1.41-.71 2.17-.18 2.94 2.07 1.51 4.39 1.17 10.93-.75 14.74l-.32.64.26 1.36c1.03 5.32 1.11 11.64.2 17.27-.09.55-.2 1.07-.25 1.14-.18.3-.2-.05-.06-.93.95-5.62.89-12.29-.15-17.46-.27-1.37-.27-1.45.2-2.39 1.96-3.91 2.07-11.33.22-15.29-.43-.94-.67-1.14-1.3-1.14-.45 0-1.27.37-1.23.56 0 .05.1.54.21 1.09.51 2.47.53 5.58.07 8.09-.24 1.29-.49 2.08-1.2 3.76l-.28.65.16.8c.18.89.49 3.08.69 4.9.19 1.79.17 6.8-.05 8.75-.5 4.49-1.52 9.08-1.93 8.68-.03-.03.1-.56.3-1.16 1.65-5.21 2.02-13.13.95-19.87-.37-2.29-.37-2.18.16-3.4 1.69-3.88 1.69-10.34 0-13.92-.67-1.42-1.36-1.25-3.64.93l-.94.89-1.31.06c-1.07.06-1.49.12-2.3.38l-.99.31-.51-.23c-.28-.13-1.07-.68-1.76-1.23-3.22-2.57-3.87-2.83-4.76-1.9-1.44 1.51-1.83 8.28-.78 13.56.31 1.58.28 1.8-.41 2.61-.3.35-.88 1.05-1.3 1.54-2.29 2.71-3.84 6.06-4.79 10.37-.06.28-.2.36-.3.19-.04-.05.01-1.73.11-3.73.28-6.26-.07-8.86-1.87-13.68-1.69-4.52-3.21-6.97-4.28-6.88-1.02.08-.98 1.71.22 9.9.87 5.88.82 8.08-.35 13.63-1.66 7.92-1.66 9.33.02 10.98.53.51.65.67.5.67-.35 0-1.35-1.08-1.58-1.7-.7-1.86-.59-3.43.57-8.85 1.47-6.85 1.51-8.57.41-15.95-.96-6.44-1.01-7.84-.3-8.74 1.45-1.84 5.41 5.79 6.75 12.99.2 1.03.27 8.07.11 9.45-.06.54-.06.53.18-.25 1.2-3.98 2.6-6.55 5.18-9.48 1.23-1.39 1.24-1.42.87-3.06-.93-4.17-.75-10.76.35-12.98.97-1.97 1.99-1.8 5.31.88 2.13 1.72 2.18 1.74 3.33 1.34.91-.31 2.27-.49 2.98-.41l.54.06 1.09-1.05c1.16-1.12 1.82-1.59 2.41-1.75l.37-.1-.13-.44c-.73-2.43-1.65-2.43-4.24.02l-1.19 1.12h-1.24c-.93 0-1.41.05-1.97.2l-.73.21-.33-.21c-1.17-.72-1.96-1.97-2.74-4.31-.69-2.07-.63-2-1.42-1.64-5.45 2.42-7.94 7.43-7.03 14.13.1.75.19 1.41.19 1.46.01.56-1.09-1.05-1.89-2.74-.45-.97-.67-1.81-.86-3.29-.53-4.09-2.76-7.43-6.7-10.03-1.84-1.21-3.27-2-3.15-1.72 1.18 2.74 1.5 4.06 1.5 6.24v1.75l-.52 1.9c-1.16 4.19-1.31 5.71-.93 9 .22 1.88.25 2.81.1 2.9-.17.11-1.31-.67-2.13-1.44-1.23-1.17-2.17-2.77-2.54-4.3-.19-.82-.22-.8-.72.39-1.03 2.4-1.58 6.67-1.17 9.12.41 2.52 1.27 4.4 3.58 7.85 1.76 2.64 2.51 4.24 2.64 5.72.08.85-.05 1.16-.44 1.06-1.95-.48-3.31-2.43-3.6-5.16l-.08-.74-.28.55c-.99 1.9-1.21 4.18-.61 6.1.79 2.47 2.37 4.62 4.17 5.65.43.25.43.25.13.25-.2 0-.51-.16-.97-.5ZM.05 25.45c0-14.02.01-19.75.02-12.72.02 7.03.02 18.51 0 25.5-.01 7-.02 1.25-.02-12.78Zm34.7-3.14c-1.18-.53-1.55-1.96-.5-1.96.34 0 .43.05.63.35.18.27.32.36.6.4.55.08.78-.01 1.04-.4.46-.69 1.24-.44 1.15.37-.13 1.16-1.66 1.81-2.92 1.24Zm5.1.03c-1.18-.61-1.53-2.04-.5-2.04.27 0 .38.07.56.32.32.47.48.58.89.58s.57-.11.89-.58c.48-.7 1.38-.25 1.12.56-.34 1.1-1.9 1.71-2.96 1.16Zm-3.25-.26c.7-.36 1.08-1.08.75-1.42-.2-.19-.31-.2-.44-.04-.06.07-.22.28-.37.46-.47.58-1.53.42-1.9-.29-.2-.41-.67-.39-.72.03-.12 1.05 1.55 1.83 2.68 1.26Zm5.1 0c.7-.35 1.11-1.13.78-1.46-.2-.2-.47-.13-.63.17-.42.82-1.33.89-2 .15-.46-.5-.78-.56-.83-.15-.16 1.08 1.5 1.88 2.68 1.29ZM8.72.03c2.23-.02 5.92-.02 8.2 0 2.27.01.44.02-4.07.02S6.48.04 8.72.03Z"/></svg>