<svg xmlns="http://www.w3.org/2000/svg" width="51" height="51" viewBox="0 0 51 51"><path fill="#fff" fill-rule="evenodd" stroke="#fff" stroke-width=".424" d="M30.86 35.85c-.38-.2-.52-.39-.72-1.03-.2-.63-.26-.59-.53.36-.4 1.35-1.01.93-1.7-1.19-.24-.74-.47-1.38-.52-1.44-.2-.2-.06-.26.58-.23.62.03.66.05.7.28.02.14.13.56.25.95l.21.7.19-.64c.15-.5.17-.7.09-.88-.18-.4-.14-.43.54-.43.65 0 .65 0 .65.28 0 .32.28 1.33.4 1.45.14.15.52-1.04.45-1.4l-.06-.33h.57c.49 0 .55.02.49.18-.24.59-.48 1.31-.8 2.35-.2.64-.39 1.17-.43 1.17s-.2-.07-.36-.15ZM8.6 35.82c0-.04.04-.12.1-.18.12-.12.3-1.72.3-2.66v-.68h1.18l.33.8c.19.44.36.8.39.8s.18-.36.35-.8l.29-.8h.68c.66 0 .79.05.58.26-.14.14.06 2.34.25 2.81.22.52.21.53-.58.53h-.72l.03-.8c.05-1.02-.08-1.03-.4-.02-.38 1.17-.89 1.07-1.42-.27-.36-.91-.39-.89-.34.19l.04.9h-.53c-.29 0-.53-.04-.53-.08Zm5.75-.06c-1.22-.53-1.42-2.4-.34-3.17.35-.24 1.39-.43 1.97-.34l.42.06-.06.42c-.08.53-.07.51-.43.33-.89-.46-1.51.08-1.38 1.21.06.6.41.95.94.97.48.01 1.23-.23 1.23-.39 0-.17.29-.39.7-.55.56-.21.61-.33.11-.27l-.43.05.06-.31c.08-.39.14-.45.51-.48 1.13-.08 1.44.16 1.5 1.19.05.76.09.92.26.92.06 0 .07-.04.04-.1-.13-.2.06-.3.28-.15.23.16.87.21.87.06 0-.05-.19-.2-.42-.33-1.12-.62-.78-1.59.56-1.6.72-.01.94.12.88.52-.03.24-.08.3-.21.25-.26-.1-.71-.18-.71-.12 0 .02.24.17.54.31.83.41.96 1.18.27 1.56-.36.19-1.68.13-1.9-.09-.19-.19-.19-.19-.24 0-.06.23-.73.27-1.02.05-.16-.11-.21-.11-.33 0-.23.24-.89.17-1.17-.11-.17-.16-.25-.19-.25-.1 0 .35-1.59.5-2.25.21Zm7.73-.24c.1-.52.09-2.72-.01-3-.08-.21-.06-.22.56-.22h.64l-.05.53-.04.52.56-.03c.87-.06 1.06.19 1.06 1.37 0 .49.04.93.1.96.26.16.03.25-.65.25-.73 0-.75-.01-.65-.2.2-.38.08-1.65-.15-1.65-.22 0-.3 1.28-.11 1.68.07.15.01.17-.62.17h-.71zm10.44.15c-.22-.23-.28-.6-.15-.92.03-.1.33-.3.67-.46l.61-.29-.42.02c-.47.02-.49 0-.34-.42.1-.31.22-.35.91-.3.77.05 1 .31 1 1.1 0 .54.14 1 .3 1 .08 0 .1-.47.08-1.55l-.03-1.55h1.2v3.6h-.57c-.36 0-.58-.05-.61-.13q-.06-.135-.06 0c-.01.19-.95.17-1.11-.02-.12-.14-.15-.14-.3 0-.26.24-.92.19-1.18-.08Zm4.13-1.57v-1.8h1.2v1.62c0 .9.04 1.71.09 1.81.07.15.01.17-.6.17h-.69zm1.98 1.6a1 1 0 0 1-.44-.59c-.41-1.39 1.12-2.47 2.21-1.55.17.15.28.19.24.11-.04-.11.05-.19.31-.27.27-.09.41-.21.51-.46.21-.5.64-.49.64.01 0 .32.02.35.3.35s.3.02.3.41c0 .41 0 .41-.3.35l-.31-.06.03.58c.03.48.07.59.26.67.5.22.19.65-.47.65-.73 0-.91-.24-.91-1.23 0-.43-.04-.67-.12-.7-.09-.03-.13.07-.13.32v.36l-.78.05-.79.05.22.28c.24.3.35.31 1.13.12.36-.09.39.35.05.59s-1.54.22-1.95-.04Zm-29.31-.72c-.03-.82.08-1.6.23-1.6.05 0 .28.43.5.96.66 1.57.78 1.59 1.2.23.49-1.55.75-1.47.75.24v.89h.34c.43 0 .5-.1.37-.57-.06-.21-.13-.89-.17-1.51l-.07-1.12h-.73l-.35.97c-.19.53-.39.98-.44 1-.06.02-.3-.42-.54-.97-.44-1-.48-1.05-.87-.94-.19.05-.22.17-.33 1.44-.06.77-.14 1.46-.17 1.55q-.06.15.12.15c.17 0 .19-.07.16-.72Zm6.75.66c.44-.12.23-.22-.34-.17-.75.06-1.14-.17-1.38-.81-.47-1.23.4-2.33 1.53-1.93.17.06.22.05.22-.07 0-.4-1.69-.14-2.14.33-1.23 1.28.26 3.14 2.11 2.65Zm1.59-.13c-.25-.27-.17-.63.18-.8.33-.16.46-.05.46.41 0 .31.32.58.68.58.22 0 .22-.01.08-.22-.11-.15-.16-.45-.16-.94 0-.53-.04-.75-.16-.85-.2-.17-1.19-.25-1.28-.1-.05.07.03.11.22.11.72 0 .68.56-.07.81-.74.24-.96.7-.49 1.03.35.25.77.22.54-.03Zm3.84-.06c.37-.34.23-.66-.42-.99-.79-.39-.72-.98.09-.8.22.04.25.03.13-.05-.23-.16-1.02-.13-1.28.05-.42.29-.3.68.33 1.03.36.2.55.38.55.5 0 .24-.17.38-.55.44-.16.03-.02.04.32.03.45-.02.68-.08.83-.21Zm1.5-.64c0-.95.03-1.01.56-1.01.33 0 .46.38.42 1.2l-.03.65.34.03.33.03-.03-.91c-.05-1.27-.26-1.44-1.39-1.15-.25.06-.26.06-.25-.52 0-.56-.01-.58-.27-.61l-.28-.03v3.21h.6zm6.55-.34c.32-1.06.41-1.06.76.02.51 1.58.69 1.53 1.28-.37.28-.88.43-1.52.37-1.52s-.21.36-.33.79c-.26.95-.49 1.51-.6 1.51-.05 0-.24-.52-.42-1.15l-.33-1.15h-.35c-.3 0-.33.02-.23.2.12.23-.37 2.13-.54 2.07-.06-.02-.27-.54-.46-1.15-.35-1.12-.35-1.12-.67-1.12h-.32l.45 1.33c.32.97.51 1.38.71 1.56.32.28.28.34.68-1.02Zm3.85 1.14a.19.19 0 0 0-.1-.16c-.19-.12-.1-.54.15-.71.34-.22.55-.12.55.28 0 .45.11.58.54.65l.38.06-.16-.31c-.09-.17-.16-.55-.16-.85 0-.74-.2-.98-.87-1.04-.31-.03-.53-.01-.57.06-.05.07.03.11.22.11.72 0 .65.54-.1.79-.79.28-.98.61-.58 1.01.2.2.7.28.7.11Zm2.65-1.51v-1.6h-.34c-.26 0-.32.03-.27.16.03.09.06.81.06 1.6v1.44h.55zm1.55 0v-1.6h-.65v3.2h.65zm2.8 1.44c.07-.07-.02-.09-.25-.06-.68.08-1.01-.13-1.2-.75-.06-.23-.05-.23.73-.23.91 0 .94-.02.8-.41-.23-.67-1.23-.83-1.77-.28-.56.55-.4 1.55.29 1.82.22.09 1.29.02 1.4-.09Zm1.83.09c.04-.03-.02-.12-.13-.2-.34-.24-.3-1.63.05-1.63s.31-.19-.05-.26c-.24-.05-.3-.12-.3-.33-.01-.23-.02-.24-.11-.08-.06.1-.25.27-.42.37-.26.16-.28.2-.14.26.14.05.17.2.17.9 0 .68.03.85.18.93.19.12.65.14.75.04Zm-17.13-.8c0-.39.63-.73 1.36-.73.84 0 .83-.01.48.46-.26.34-.27.34-1.05.34-.44 0-.79-.03-.79-.07Zm13.9-.66c0-.41.55-.73.77-.44.32.39.23.57-.28.57-.33 0-.49-.04-.49-.13Zm-23.74-2.82c-.82-.29-1.59-1.14-1.97-2.17-.45-1.25-.38-13.06.1-14.12.32-.73.84-1.31 1.44-1.61l.53-.25 7.1.02c7.98.03 7.44-.02 8.27.81.75.75.92 1.29.94 3.1l.02 1.58.45.5c1.63 1.81 1.65 4.56.05 6.64l-.46.61-.05 1.21c-.06 1.89-.85 3.23-2.15 3.67-.65.22-13.65.23-14.27.01Zm14.16-.27c1.22-.36 1.91-1.56 1.96-3.43l.04-1.29.44-.49c1.67-1.86 1.65-4.91-.04-6.65l-.45-.46.06-1.02c.12-2.21-.36-3.44-1.58-4l-.5-.24h-7.03c-7.89 0-7.41-.04-8.1.75-.9 1.02-.94 1.34-.9 8.55l.03 5.85.24.6c.29.71 1.2 1.68 1.72 1.83s13.61.15 14.11 0Zm5.79-.64c-.53-.44-.45-.95.28-1.86 3.13-3.9 3.09-8.69-.1-12.14-.7-.75-.74-1.35-.12-1.84.56-.44 1.11-.18 2.09.99 3.18 3.79 3.29 9.6.27 13.67-1.1 1.47-1.72 1.77-2.42 1.18Zm1.3-.32c3.45-3.11 4.05-9.39 1.28-13.51-1.15-1.72-1.94-2.26-2.49-1.71-.38.38-.27.72.55 1.68 2.87 3.32 2.92 8.33.11 11.81-.97 1.2-1.05 1.43-.61 1.86.34.35.68.32 1.16-.13Zm-3.53-1.48c-.7-.37-.67-1.05.08-1.99 1.97-2.47 2.08-5.51.28-7.83-.73-.95-.84-1.14-.84-1.5 0-1.07 1-1.31 1.85-.43 3.05 3.15 3.08 8.14.06 11.31-.61.65-.89.74-1.43.44Zm1.21-.56c2.69-2.74 2.94-7.22.57-10.35-.87-1.15-1.43-1.41-1.85-.87-.33.42-.26.66.44 1.54 2.08 2.61 2.04 5.8-.1 8.43-.6.74-.66 1-.34 1.41.33.42.77.36 1.28-.16Zm-11.92-2.05c-.12-.12-.08-3.11.04-3.19.19-.11.3.16.75 1.87l.17.66-.39.36c-.41.38-.46.41-.57.3Zm.59-1.01c-.03-.21-.12-.57-.2-.82l-.14-.45-.01.93c-.01.91-.01.93.2.81.18-.09.2-.17.15-.47Zm-1.88-.19-.47-.48.5-.79c.71-1.16.69-1.17.69.37 0 1.58-.02 1.61-.72.9Zm.51-.86c-.01-.32-.03-.56-.05-.55-.09.1-.54.8-.54.85 0 .04.1.17.22.3.29.31.38.15.37-.6Zm1.71-.92-.33-.94-.28.15-.29.15V21.3h2.4c1.87 0 2.4.03 2.4.13 0 .07-.5.62-1.1 1.22l-1.11 1.1-.18-.24-.19-.24-.44.36c-.58.47-.51.52-.88-.58Zm-3.83.27c-.43-.44-.42-.58.08-.96.51-.39.55-.35.55.54 0 .94-.08.99-.63.42Zm10.96.19c-1.27-.58-.8-2.41.61-2.41 1.5 0 1.82 2.1.38 2.5-.48.13-.5.13-.99-.09Zm-5.68-.41c.26.28.24.29 1.22-.65l.88-.84-2.13-.01c-1.89 0-2.12.02-2.12.16 0 .12.07.15.24.12.33-.07.39 0 .53.52.06.25.19.62.28.84l.16.39.38-.37c.37-.36.37-.36.56-.16Zm7.01-.04c.43-.43.46-.9.08-1.35-.49-.59-1.44-.48-1.79.2-.55 1.06.85 2.01 1.71 1.15Zm-11.86-.23v-.48l-.27.27-.27.27.25.2c.13.11.25.2.27.21.01 0 .02-.21.02-.47Zm.71-.55-.01-.98h.54c.72 0 .73.04.18.87-.26.38-.52.78-.59.89-.1.15-.12.01-.12-.78Zm-2.49-.31c-.62-.63-.58-.67.58-.67 1.14 0 1.17.02.57.65-.54.56-.62.56-1.15.02Zm.88-.12.23-.25h-1.06l.23.25c.13.14.26.25.3.25s.17-.11.3-.25Zm-1.4-.81c0-.13 1.24-1.34 1.37-1.34.19 0 1.33 1.09 1.33 1.27 0 .1-.28.13-1.35.13-.74 0-1.35-.03-1.35-.06Zm3.6-.07c0-.15 1.11-1.27 1.27-1.27.18 0 1.35 1.18 1.28 1.3-.1.16-2.55.13-2.55-.03Zm3.3.04c0-.14 1.29-1.31 1.44-1.31s1.26 1.15 1.26 1.31c0 .05-.57.09-1.35.09-.74 0-1.35-.04-1.35-.09Zm-4.48-.64c-.86-.87-.86-.87.67-.87 1.6 0 1.64.04.79.86-.8.78-.7.78-1.46.01Zm3.41 0c-.87-.87-.87-.87.72-.87 1.61 0 1.62.01.71.88-.78.75-.66.75-1.43-.01Zm-3.96.06-.47-.48-.47.48-.48.47h1.9zm3.51.02c-.57-.55-.54-.55-1.08 0l-.44.45h1.99zm3.42 0c-.53-.54-.44-.54-1.05 0l-.49.45h1.98zm-5.17-.2.49-.45h-1.93l.43.44c.52.54.43.54 1.01.01Zm3.86-.42c.02-.02-.38-.03-.89-.03h-.94l.44.45.44.45.45-.42c.25-.24.48-.44.5-.45Z"/></svg>