<svg xmlns="http://www.w3.org/2000/svg" width="51" height="51" viewBox="0 0 51 51"><path fill="#fff" fill-rule="evenodd" stroke="#fff" stroke-width=".47" d="M23.5 46.94C9.55 45.29.94 31.56 5.56 18.3 9.66 6.5 23.57.86 34.98 6.35c10.65 5.13 15.06 17.77 9.93 28.5-3.01 6.28-8.76 10.6-15.86 11.91-.87.15-4.69.28-5.55.18Zm3.64-.24c8.27-.6 15.6-6.15 18.37-13.91 5.07-14.23-5.6-28.83-20.66-28.25-12.56.47-21.74 11.4-20.1 23.91 1.28 9.78 9.47 17.54 19.24 18.24 1.56.12 1.64.12 3.15.01Zm4.56-11.6c-4.53-.44-6.64-4.43-5.54-10.46 1.01-5.58 3.99-8.54 8.59-8.54 3.65.01 5.7 1.73 6.25 5.24.15.94.18.92-1.66.88l-1.51-.03-.12-.66c-.3-1.64-1.14-2.45-2.68-2.59-3.33-.3-5.49 2.83-5.7 8.28-.11 2.68.46 4.06 1.95 4.8 1.01.5 3.64.17 4.48-.56.25-.21.57-1.46.79-3.04l.07-.53-1.77.01c-.97.01-1.79-.01-1.82-.03-.09-.1.45-2.49.58-2.58.08-.05 1.63-.08 3.44-.06l3.3.02.03.26c.03.27-.7 5.58-.89 6.53-.39 1.84-4.34 3.4-7.79 3.06Zm-14.5-.33c0-.12.45-3.05.56-3.65l.06-.32H10.3v-.57c0-1.53-.12-1.29 2.54-4.65l4.26-5.39c1.01-1.28 2.13-2.69 2.48-3.12l.64-.77h1.64c1.37 0 1.66.03 1.7.15.04.08-.1 1.11-.3 2.27-.61 3.52-1.57 8.92-1.62 9.09-.04.14.1.17.96.22.55.03 1.04.09 1.09.11.09.06-.23 2.06-.39 2.44-.09.2-.16.22-.92.22-1.31 0-1.19-.15-1.56 1.92-.43 2.41-.22 2.18-2.07 2.18-1.17 0-1.55-.03-1.55-.13Zm17.88-.11c1.96-.42 3.87-1.62 4.13-2.59.06-.22.3-1.78.53-3.46l.43-3.06-.36-.08c-.35-.09-5.98-.04-6.06.05-.05.05-.45 1.93-.45 2.1 0 .06.62.07 1.75.03 1.54-.07 1.75-.06 1.81.08.08.21-.54 3.47-.71 3.73-.43.66-2.92 1.28-4.12 1.04-2.08-.43-2.99-1.91-2.97-4.85.02-4.55 1.64-7.99 4.12-8.75 2.38-.74 4.32.25 4.76 2.43l.13.62 1.38.03 1.37.03-.07-.58c-.41-3.29-2.51-5.08-5.95-5.08-3.94.01-6.55 2.09-7.89 6.29-1.61 5.02-.7 9.69 2.21 11.4 1.41.83 3.82 1.07 5.96.62Zm-14.84-.23c.03-.1.19-.97.36-1.93s.34-1.78.38-1.81c.04-.04.51-.09 1.05-.11 1.14-.05 1.09 0 1.26-1.11.07-.45.14-.9.17-.99.05-.16-.04-.18-1-.18-.58 0-1.07-.03-1.09-.07-.03-.05.11-.91.29-1.93.19-1.02.41-2.23.48-2.7.08-.47.38-2.15.65-3.75.28-1.59.51-2.98.51-3.07 0-.16-.14-.18-1.49-.18h-1.49l-.49.58c-.27.31-1.31 1.61-2.3 2.87-1 1.27-2.97 3.75-4.37 5.53l-2.56 3.23v.67c0 .37-.03.77-.06.9l-.06.22h3.81c2.09 0 3.81.03 3.81.08 0 .04-.14.86-.3 1.82s-.3 1.83-.3 1.93c0 .15.13.17 1.34.17 1.2 0 1.35-.02 1.4-.17ZM13.9 28.2c0-.2 5.9-7.71 6-7.65.04.02-.04.62-.17 1.32-.73 3.92-1.14 6.01-1.23 6.21-.1.22-.11.22-2.35.22-1.5 0-2.25-.03-2.25-.1Zm4.48-.67c.1-.47.3-1.5.91-4.72l.29-1.55-.29.35c-.32.38-1.31 1.65-3.13 3.99-.66.85-1.35 1.74-1.54 1.98l-.34.42h4z"/></svg>