<svg xmlns="http://www.w3.org/2000/svg" width="51" height="51" viewBox="0 0 51 51"><path fill="#fff" fill-rule="evenodd" stroke="#fff" stroke-width=".722" d="M15.5 48.74c-1.48-.21-4.19-.76-4.38-.9-.24-.18-.13-.25 1.28-.79 4.44-1.69 8.29-4.35 10.47-7.22.93-1.22 1.02-1.5.58-1.79-.37-.24-.58-.11-1.49.99-2.94 3.56-7.63 6.36-13.1 7.83-.71.19-2.08-.41-3.68-1.64-.7-.53-.65-.63.32-.77 2.16-.32 5.41-1.32 7.75-2.39.91-.42 1.25-.7 1.25-1.02 0-.24-.47-.68-.64-.6-.06.03-.6.27-1.21.54-2.49 1.12-8.53 2.68-9.29 2.39-.23-.09-.92-1.19-1.12-1.79-.23-.7-.2-.71 2.06-1.17 8.03-1.62 13.67-4.57 17-8.88.74-.96.69-.95 1.4-.42 1.76 1.34 4.13 1.7 7.33 1.14.61-.11 1.02-.14 1.08-.08.37.37.54 3.27.2 3.38-.7.22-1.81 1.74-2.1 2.85-.17.68-.19.71-.77 1.08-2.22 1.45-2.99 4.15-1.78 6.31.34.61.31.74-.23 1.09-1.71 1.09-4.29 1.92-6 1.92-.64 0-.55-.19.45-1.02 1.21-1.01 2.81-2.64 2.88-2.95.08-.29-.31-.73-.63-.73-.09 0-.66.48-1.27 1.08-1.26 1.21-2.38 2.09-3.63 2.83-1.4.82-1.61.88-2.73.73Zm21.69.05c-1.35-.19-2.34-.73-3.32-1.79l-.64-.69-.88.31c-1.97.68-3.68.1-4.54-1.52-.97-1.82-.05-4.18 1.9-4.87l.46-.17.12-.67c.48-2.64 2.8-3.89 5.15-2.77.97.47.86.48 1.59-.18 1.66-1.5 3.72-1.76 5.69-.72 1.14.61 2.28 2.04 2.44 3.1.07.44.15.51.69.68.75.23 1.72.81 2.24 1.33 3.18 3.16-.65 8.1-4.71 6.06l-.57-.29-.62.53c-1.27 1.08-1.8 1.36-3.02 1.61-.82.17-1.12.18-1.98.05Zm-20.26-.38c1.59-.68 3.08-1.81 5.41-4.1 3.33-3.28 4.87-5.32 6.78-8.97.63-1.21.88-1.56.88-1.22 0 .16-1.29 2.6-1.96 3.7-1.05 1.74-3.01 4.24-4.27 5.47l-.56.54.32.17c.43.23.61.59.47.96-.14.35-1.91 2.16-2.9 2.97l-.75.6.75-.07c1.63-.14 3.48-.76 4.88-1.62l.72-.45-.24-.42c-1.32-2.32-.45-5.42 1.91-6.78.37-.21.44-.31.54-.74.26-1.1 1.25-2.52 2.11-3.03l.3-.17-.07-.85c-.03-.47-.11-1.11-.17-1.44l-.11-.58-.41.06c-4.27.61-6.04.38-7.93-1.05-.64-.48-.5-.52-1.16.34-3.33 4.34-9.17 7.37-17.35 8.98-1.07.21-1.66.37-1.69.46-.07.18.59 1.53.87 1.78.24.22.91.15 3.19-.31 5.4-1.11 8.79-2.87 13.08-6.83.78-.72 1.44-1.31 1.47-1.31.2 0-.05.31-.92 1.14-1.8 1.72-3.3 2.93-5.05 4.03-.85.54-.88.57-.69.72.47.38.5.9.08 1.3-.74.7-5.02 2.22-7.89 2.81-.56.12-1.13.23-1.25.26-.23.05-.23.06.13.34.53.42 1.82 1.16 2.45 1.4l.55.21 1.2-.36c5.19-1.57 9.57-4.29 12.18-7.55.9-1.13 1.21-1.3 1.76-1 .62.33.47.92-.59 2.28-2.23 2.89-6.17 5.59-10.49 7.21-.69.26-.97.41-.85.44.84.24 3.89.8 4.71.86.06.01.32-.08.56-.18Zm22.91-.1c.82-.29 1.3-.59 2.08-1.3.77-.71.83-.72 1.74-.28 2.5 1.18 5.29-.55 5.29-3.28 0-1.77-.88-2.79-3.2-3.7-.79-.31-.8-.31-.83-.71-.08-1.1-1.19-2.51-2.5-3.17-1.83-.91-3.71-.62-5.26.82-.78.72-.72.72-1.78.2-2.24-1.09-4.35.01-4.83 2.54-.15.79-.22.87-.87 1.11-2.07.76-2.67 3.59-1.09 5.17.94.94 2.25 1.19 3.56.69 1.1-.41 1.1-.41 1.99.49 1.53 1.57 3.72 2.11 5.7 1.42ZM13.62 32.92c-.34-.05-1.89-1.56-2.02-1.98-.24-.73.2-1.34.99-1.34.56 0 2.14 1.47 2.26 2.12.14.74-.46 1.32-1.23 1.2Zm-5.55-.3c-.4-.41-.37-.98.06-1.49 1.24-1.49 2.03-1.88 2.62-1.29.6.6.46 1.08-.64 2.18-1.02 1.03-1.5 1.17-2.04.6Zm1.85-.8c.94-.94 1.06-1.22.73-1.69-.36-.51-.9-.36-1.71.49-1.03 1.07-1.13 1.36-.68 1.82.45.44.68.36 1.66-.62Zm4.43.63c.46-.46.36-.77-.59-1.73-.95-.97-1.38-1.12-1.77-.63-.39.48-.27.78.7 1.73.98.97 1.23 1.07 1.66.63Zm11.35-1.4c-1.09-.25-3-1.33-3-1.7 0-.33.55-1.22 1.09-1.75 1.54-1.55 4.12-1.34 5.81.47.92.98 1.58 2.53 1.13 2.67-1.29.4-3.91.56-5.03.31Zm3.88-.34c1.12-.22 1.08-.18.88-.79-.95-2.84-4.53-4.06-6.44-2.19-.49.47-1.02 1.26-1.02 1.5 0 .34 1.49 1.21 2.6 1.51.79.21 2.82.2 3.98-.03Zm16.82-.58c-.45-.24-.8-.76-.8-1.22 0-1.43 1.85-1.92 2.6-.69.69 1.13-.62 2.52-1.8 1.91Zm1.36-.47c.28-.28.34-.42.34-.76 0-1.19-1.7-1.54-2.16-.44-.46 1.11.96 2.06 1.82 1.2ZM8.69 28.22c-.97-.97-1.08-1.26-.74-1.91.36-.7 1.09-.64 1.97.17 1.25 1.15 1.44 1.68.84 2.28-.62.62-.99.52-2.07-.54Zm3.12.53c-.53-.61-.41-.93.76-2.07.89-.86 1.18-.99 1.7-.74.91.43.78 1.2-.42 2.35-1.04.99-1.48 1.09-2.04.46Zm14.6.09c-.8-.67.12-1.88.97-1.28.52.36.48 1.1-.09 1.39-.39.21-.53.19-.88-.11Zm-15.79-.25c.37-.44.25-.76-.65-1.66-.91-.9-1.21-1.02-1.68-.64-.49.4-.34.82.64 1.78.95.93 1.27 1.03 1.69.52Zm2.75-.2c1.19-1.04 1.45-1.58.98-2.04-.43-.44-.69-.35-1.67.63s-1.07 1.24-.63 1.67c.37.38.66.32 1.32-.26Zm13.93.21c.36-.36.13-.9-.4-.9-.35 0-.5.17-.5.57 0 .51.52.71.9.33Zm.88-3.01c-.2-.1-.7-.24-1.1-.3-.4-.07-.76-.15-.8-.18-.12-.1.3-2.37 2.47-13.56 1.68-8.65 1.73-8.93 1.9-9.25.45-.87 1.52-1.05 2.21-.36.56.56.56.54-.61 6.53-.58 3.01-1.33 6.87-1.66 8.58-1.07 5.51-1.68 8.56-1.74 8.66-.08.13-.24.1-.67-.12Zm1.25-4.01c1.78-9.08 3.5-17.96 3.54-18.4.12-1.06-.75-1.7-1.66-1.23-.49.25-.59.68-2.7 11.7-.27 1.43-.74 3.88-1.05 5.45-.46 2.4-1.06 5.68-1.06 5.83 0 .02.26.07.58.1.32.02.79.14 1.03.25s.46.21.49.21c.03.01.4-1.76.83-3.91ZM5.77 24.39c-.36-.21-.47-.63-.47-1.87 0-1.52.11-1.72.96-1.72.93 0 1.04.19 1.04 1.8v1.32l-.29.29c-.31.31-.87.39-1.24.18Zm35.36-.03c-.8-.36-.68-1.62.18-1.81.92-.2 1.55.86.92 1.54-.34.37-.68.45-1.1.27Zm-34.27-.37c.32-.35.28-2.53-.05-2.8a.81.81 0 0 0-1.02 0c-.33.27-.37 2.45-.05 2.8.26.29.86.29 1.12 0ZM42 24c.28-.28.27-.84-.02-1.04-.73-.51-1.55.38-.93.99.29.3.68.32.95.05ZM2.5 21.03c-.53-.19-.68-1.16-.25-1.58.23-.24.29-.25 1.58-.25 1.62 0 1.77.07 1.84.86.09.85-.24 1.04-1.8 1.03-.67 0-1.29-.03-1.37-.06ZM7.37 21c-.49-.3-.58-1.14-.16-1.58.33-.37 2.85-.33 3.2.04.33.35.34 1.04.01 1.36-.26.26-2.68.4-3.05.18Zm-2.07-.39c.19-.37.12-.89-.15-1.07-.35-.23-2.46-.17-2.72.08-.2.21-.23.79-.04 1.02.22.26 2.76.23 2.91-.03Zm4.92.02c.22-.2.23-.7.02-.98-.22-.3-2.68-.31-2.9-.01-.19.27-.18.75.03.98.23.26 2.56.27 2.85.01Zm-4.67-1.48c-.31-.3-.38-2.31-.1-2.85.3-.58 1.07-.69 1.54-.22.29.28.53 2.17.35 2.68-.24.68-1.28.91-1.79.39Zm1.29-.16c.25-.2.26-.24.26-1.24 0-1.32-.21-1.75-.85-1.75-.81 0-1.1 2.79-.33 3.1.37.14.64.11.92-.11Z"/></svg>