<svg xmlns="http://www.w3.org/2000/svg" width="51" height="51" viewBox="0 0 51 51"><path fill="#fff" fill-rule="evenodd" stroke="#fff" stroke-width=".333" d="M10.37 49.52c-.2-.22-.22-.63-.05-.8.18-.18-.61-.15-1.08.04-.75.31-1.67.05-2.02-.57-.26-.45-.32-.35-.32.56v.85h-1l-.02-.67c-.05-1.68.09-2.15.73-2.42.21-.09.39-.22.39-.29 0-.61.7-1.12 1.53-1.12 1.04 0 1.49.47 1.57 1.65l.05.7h1l.03-1.17.03-1.18h1.09v2.4h1.08c1.51 0 1.52-.01 1.52-.66 0-.69-.19-.79-1.04-.6l-.56.13-.2-.44c-.24-.54-.22-.58.34-.72 1.69-.42 2.56.1 2.56 1.53v.66h1.2v-2.3h1.1v1.15c0 .7.04 1.15.1 1.15s.1-.45.1-1.15V45.1h1.1v1.15c0 .7.04 1.15.1 1.15s.1-.45.1-1.15V45.1h1.1v1.3c0 2.28.31 2.14-4.82 2.18l-4.08.03.16.25c.29.43-.28 1-.76.74-.14-.07-.26-.08-.39 0-.28.15-.46.12-.64-.08Zm12-.09c-.3-.59-.3-.69.04-.83.49-.21.59-.58.59-2.15v-1.36l.53.03.52.03.03 1.19.03 1.18.31-.06c.17-.03.39-.06.49-.06.17 0 .19-.09.19-1.15V45.1h1.2v1.26c0 1.29-.14 1.88-.47 2.01-.1.04-.05.11.16.24.64.39.08 1.35-.57 1-.15-.08-.28-.08-.46 0-.51.24-1.04-.49-.64-.89.09-.09.07-.12-.12-.12-.17 0-.32.11-.47.35-.21.31-.86.75-1.12.75-.06 0-.17-.12-.24-.27Zm4.23-.05c-.28-.47-.25-.67.11-.8.43-.15.49-.4.49-2.04v-1.45l.58.03.57.03.03 1.18.03 1.17h.38c.49 0 .52-.05.35-.45-.58-1.41.9-2.48 2.51-1.81.53.23.76 1.2.43 1.91-.15.33-.09.37.41.29l.41-.07v-1.72c0-1.9-.02-1.85.63-1.85.59 0 .59 0 .55 2.02-.05 2.77-.02 2.74-3.03 2.7-2.6-.03-2.78-.01-3.04.43-.18.31-.84.75-1.11.75-.06 0-.19-.15-.3-.32Zm14.22.16c-.24-.17-.3-.62-.1-.82.09-.09-.27-.12-1.64-.12-2.13 0-2.08.01-2.08-.6 0-.57.05-.6.96-.6h.64v-.38c0-.53-.17-.71-.8-.85l-.55-.12-.03-.48-.03-.47h.63c1.25 0 1.88.58 1.88 1.72v.56l.5.04.5.03V45.1h1.2v2.3h.29c.29 0 .29 0 .33-.7.06-1.15.61-1.64 1.75-1.58.84.05.93.16.65.73-.19.4-.25.45-.47.39-.56-.14-.75.01-.75.61 0 .61-.07.56.93.6.71.03.79.1.75.66l-.03.44-1.98.03-1.98.02.16.22c.37.54-.19 1.1-.73.72ZM11 49.35c.15-.18.04-.52-.2-.6-.28-.09-.4.02-.4.35 0 .38.36.54.6.25Zm.94-.01c.34-.33-.02-.76-.45-.54-.24.13-.25.46-.01.59.23.14.28.14.46-.05Zm11.51-.36c.14-.16.25-.36.25-.44 0-.11.17-.14.74-.14 1.47 0 1.66-.23 1.66-2v-1.1h-.8v2.3h-1.4v-2.3h-.69l-.03 1.46-.03 1.46-.37.34c-.41.37-.44.45-.28.74.14.25.6.1.95-.32Zm1.59.3c.16-.26-.26-.67-.48-.48-.19.15-.21.56-.03.63.2.09.39.03.51-.15Zm.87.12c.43-.24.09-.82-.36-.62-.27.12-.33.4-.13.6.15.15.24.15.49.02Zm15.43-.06c.26-.25.01-.72-.31-.6-.08.03-.17.06-.19.06-.1 0-.03.59.09.63.2.09.25.08.41-.09Zm-34.6-.51c-.11-1.02.22-1.8.46-1.08.25.76 1.06 1.1 1.94.81.44-.14 1.18-.17 5.71-.19 2.86-.01 5.28-.06 5.38-.11.36-.17.47-.6.47-1.81V45.3H20v1.1c0 .99-.02 1.1-.2 1.2-.35.19-.4.03-.4-1.16V45.3h-.7v2.3h-.6v-2.3h-.7v2.3h-1.6v-.75c0-.89-.12-1.19-.55-1.4-.54-.25-2.05-.13-2.05.16 0 .38.18.46.91.41.89-.06.99.03.99.94v.63l-1.4.03c-.77.02-1.45.02-1.5 0-.06-.02-.1-.52-.1-1.18V45.3h-.7v2.3H9.9v-.65c0-1.17-.39-1.65-1.35-1.65-.75 0-1.16.3-1.34.99-.05.16-.18.28-.41.36-.63.21-.77.61-.72 2.13l.02.62h.7zm20.78.37c.14-.1.31-.33.38-.5.15-.36-.14-.32 2.75-.35 3.35-.03 3.16.12 3.23-2.52l.05-1.72-.27-.07c-.54-.13-.55-.09-.58 1.77l-.03 1.73-.27.07c-.14.04-.47.04-.72.02l-.45-.06.19-.38c.19-.37.26-1.11.14-1.44-.17-.43-1.61-.62-2.24-.3-.53.27-.62 1.09-.2 1.81l.18.32-.71.04c-.92.06-.9.09-.85-1.21l.03-1.11h-.75v1.4c0 1.55-.11 1.95-.55 2.06-.27.07-.3.16-.15.45.14.25.5.24.82-.01Zm6.93-1.82c-.03-.62-.05-1.67-.03-2.33l.03-1.2h1.1l.03 2.33.02 2.32h-1.08zm10.73.68c.05-.39-.1-.46-.95-.46h-.73v-.62c0-.76.16-.98.71-.98.52 0 .88-.55.44-.66-1.19-.3-1.95.35-1.95 1.66v.6h-1v-2.3h-.68l-.07 1.15-.07 1.15h-1.35l-.05-.8c-.07-1.14-.47-1.5-1.65-1.5-.69 0-.65.55.04.66.68.1.93.39.93 1.08v.55l-.78.03c-.72.03-.77.05-.8.26-.08.54-.24.52 4 .5l3.93-.03zm-9.78-1.85c0-2.03-.01-2.09-.21-2.14-.48-.13-.49-.09-.49 2.14v2.09h.7zM8.23 47.9c-.76-.31-.54-1.9.26-1.9.55 0 .71.23.71.98 0 .81-.37 1.16-.97.92Zm.75-.8c.05-.72-.03-.9-.43-.9-.41 0-.55.2-.55.77 0 .96.91 1.07.98.13Zm21.51.33c-.29-.32-.5-.83-.47-1.11.04-.33.94-.46 1.18-.18.32.39-.38 1.67-.71 1.29Zm.41-.45c.35-.57.28-.78-.25-.78-.4 0-.45.02-.45.23s.34.87.45.87c.03 0 .14-.15.25-.32Zm-7.74-2.14c-.33-.32-.1-.94.35-.94.23 0 .59.34.59.55 0 .42-.65.69-.94.39Zm4.3 0c-.31-.3-.1-.94.3-.94.34 0 .54.2.54.55 0 .5-.5.73-.84.39Zm-3.67-.23c.13-.24-.08-.55-.35-.49-.2.03-.3.29-.2.54.08.2.43.17.55-.05Zm4.3 0c.13-.24-.08-.55-.35-.49-.2.03-.3.29-.2.54.08.2.43.17.55-.05Zm-4.79-1.22c-2.91-.36-5.59-1.35-7.93-2.93-.99-.67-1.19-.78-.98-.52.07.08.11.27.09.43l-.03.28h-5.8l-.03-2.75c-.03-2.95.03-3.35.51-3.83l.2-.2-.39-.78-.38-.79H5.8v-2.01c0-1.93.01-2.01.21-2.18.28-.22.28-.66 0-.95-.28-.3-.33-3.62-.06-3.72.28-.11.37-.42.24-.77-.1-.3-.09-.37.2-.82 1.22-1.92.79-3.75-1.39-6l-1.16-1.2-1.12 1.17C.7 17.94.29 19.63 1.3 21.67c.34.69.39.85.29 1.01-.16.25-.04.69.21.77.35.11.3 3.42-.05 3.73-.34.3-.34.78 0 .94l.25.11v6.13c0 4.41-.03 6.15-.11 6.2-.19.12-1.89.18-1.89.07 0-.13.49-.23 1.15-.23h.52l.06-1.82c.04-.99.07-3.67.07-5.93v-4.12l-.25-.27c-.32-.34-.33-.81-.02-1.14.34-.37.34-3.27 0-3.64-.24-.25-.29-.62-.13-.88.06-.1 0-.29-.2-.65-1.17-2.07-.75-4.04 1.35-6.24.56-.59 1.08-1.17 1.14-1.3.12-.22.12-.22.36.12.12.19.7.81 1.28 1.38 2.03 2.01 2.45 4.14 1.21 6.1-.2.32-.22.43-.14.6.15.27.03.77-.21.92-.31.19-.29 3.2.03 3.54.3.32.3.89 0 1.13-.21.18-.22.25-.22 2.04v1.86h1.2c.66 0 1.2-.02 1.2-.04s-.15-.51-.34-1.08C4.4 20 12.42 7.84 23.86 7.04c1.56-.1 1.89-.33 1.12-.78-2.17-1.29-2.26-4.3-.16-5.37.51-.26.52-.24.2.4C23.73 3.9 26.63 6.08 29 4.28c.61-.46.65-.45.5.13-.35 1.32-1.29 2.11-2.75 2.32-1.05.15-.94.23.43.3 7.07.35 13.88 5.66 16.12 12.57 1.24 3.82 1.18 8.65-.14 11.93l-.24.57h2.38v-1.84c0-1.73-.01-1.84-.2-1.97-.34-.23-.37-.79-.06-1.16.4-.47.4-3.28.01-3.67-.26-.26-.31-.55-.16-.84.07-.13-.01-.39-.31-.99-1.02-2.06-.55-3.86 1.59-6.03.52-.52.96-1.05.99-1.17.07-.26.34-.31.34-.07 0 .09.46.61 1.01 1.17 2.19 2.17 2.73 4.1 1.72 6.08-.32.62-.4.86-.33 1 .16.29.11.68-.1.86-.3.26-.3 3.22 0 3.6.26.33.26.87 0 1.13-.2.2-.2.31-.18 6.23l.03 6.02.35.01c.88.01 1.2.05 1.2.14 0 .07-.32.1-.87.08l-.88-.03-.03-6.22c-.02-6.14-.02-6.22.18-6.33.3-.16.27-.7-.05-.98-.35-.31-.4-3.6-.05-3.69.26-.07.36-.48.19-.79-.11-.22-.11-.29.05-.52 1.38-2.12.93-4.18-1.44-6.52l-.96-.95-1.08 1.15c-2.15 2.27-2.57 4.36-1.26 6.2.2.28.22.37.12.64-.14.38-.06.73.19.81.34.11.29 3.43-.06 3.73-.37.32-.26 1.02.16 1.02.05 0 .09.86.09 2.05v2.05h-2.66l-.41.84c-.41.82-.41.84-.23 1.01.44.4.51.94.48 3.81l-.03 2.69-2.75.03c-1.51.01-2.85 0-2.97-.03-.26-.06-.32-.52-.11-.73.28-.28-.11-.07-1.25.65-3.67 2.32-8.1 3.34-12.27 2.82Zm4.97-.48.28-.08-.3-.07c-.83-.19-1.16-.3-1.21-.38-.08-.12.94-.01 1.52.17.25.07.49.09.64.03.31-.11.27-.14-.53-.32-1.41-.33-2.48-.16-2.98.48-.21.26-.53.34-.64.16-.08-.13-1.45-.13-1.45 0 0 .19 3.98.2 4.67.01Zm-5.98-.92c.41-.38.8-.73.87-.77.09-.05.1-.12.04-.22-.07-.1-.1-.11-.1-.02 0 .06-.05.12-.12.12-.06 0-.62.29-1.23.65-.62.36-1.15.65-1.19.65-.29 0 .62-.66 2.02-1.46.81-.46.44-1.14-.5-.92-1.77.4-4.64.95-4.71.89-.13-.13.26-.37 1.1-.7.87-.33 1.08-.37.98-.21-.1.17.17.11.73-.15.44-.21.56-.23.73-.12.17.1.23.09.4-.12.27-.33.21-.65-.13-.69-.66-.08-4.11 1.05-4.66 1.53l-.26.22.65.36c1.09.61 1.56.78 1.69.62.16-.2 1.2-.77 1.32-.73.05.02-.21.23-.58.47-.8.5-.83.47.71.97 1.37.46 1.37.46 2.24-.37Zm3.24.34c.17-.37-.05-.45-1.08-.37-1.04.07-.98.05-.9.37.1.38 1.81.38 1.98 0Zm4.14-.19c-1.09-.56-2.97-.73-3.61-.31-.38.26-.29.29.29.11.68-.21 1.81-.13 2.65.19.9.34 1.32.35.67.01Zm1.93-.21c.36-.14.7-.29.76-.34.11-.09-.04-1.41-.18-1.54-.09-.09-.4.53-.33.65.06.1-.06.14-1 .3-.99.16-1.35.74-.67 1.09.4.22.46.21 1.42-.16ZM19.8 42c0-.14.74-.62 1.67-1.09 1.64-.82 1.24-.29-.44.59-1.24.65-1.23.65-1.23.5Zm4.16-.64c-.05-.24-.02-.39.09-.49.08-.09.15-.23.15-.32s.07-.3.16-.46c.12-.24.13-.34.03-.45-.09-.11-.09-.14.01-.14.06 0 .1-.06.07-.12-.02-.07.01-.2.09-.28.12-.14.25-.77.28-1.3.01-.14.05-.31.09-.37.05-.08.04-.13-.02-.13-.13 0-.41.29-.41.43-.01.07-.07.01-.15-.13-.13-.23-.14-.23-.15-.05 0 .12-.04.25-.1.31s-.06.15 0 .24c.09.13.11.13.19 0 .31-.48-.01.96-.58 2.55-.32.92-.32 1.05.05 1.05.24 0 .26-.02.2-.34Zm.62.11c.01-.07.04-.32.07-.57.04-.25.07-.55.07-.67 0-.13.04-.23.09-.23.04 0 .06-.07.03-.15-.04-.08-.09-.15-.13-.15-.11 0-.32.5-.26.6.03.05-.01.28-.1.52q-.315.9.03.81c.1-.02.19-.1.2-.16Zm1.59-.02c.19-.08.5-.15.69-.15.5 0 .58-.16.92-1.77.36-1.66.37-1.72.2-1.55-.07.07-.2.12-.3.12q-.18 0-.18.24c0 .33-.1.57-.21.5-.05-.03-.09-.16-.09-.3 0-.13-.04-.24-.1-.24-.11 0-.14.13-.29 1.31-.12.94-.28 1.49-.42 1.49-.12 0-.12 0 .06-1 .31-1.74.13-2.08-.39-.75-.47 1.19-.45.53.02-.74.03-.08-.01-.12-.13-.1-.12.03-.22.21-.32.54-.25.94-.63 2.4-.63 2.48 0 .13.79.08 1.17-.08Zm3.51-.09c.17-.37.56-.58 1.2-.65l.57-.06.33-.63c.63-1.18.34-1.19-1.17-.04-1.17.89-1.59 1.32-1.47 1.51s.42.12.54-.13Zm-.73-.31c.09-.19.36-.5.6-.69.36-.3.44-.43.49-.83.04-.26.25-1.24.46-2.18s.49-2.24.61-2.9c.2-1.08.39-1.68.39-1.22 0 .25.15.21.28-.08.06-.14.16-.25.22-.25.12 0 .08.08-.2.5-.1.14-.22.61-.28 1.05s-.14.96-.18 1.15c-.13.68.14.17.35-.66.48-1.88 1.53-4.44 1.82-4.44.13 0 .13.01-.35 1.13-.43 1.02-1.22 3.44-1.14 3.52.02.03.21-.25.42-.61.66-1.12 2.46-3.2 2.46-2.83 0 .08-.05.2-.12.27-.18.18.03.14.23-.04.1-.09.23-.14.3-.12s-.33.49-.87 1.03c-1.22 1.22-2.19 2.46-2.71 3.45-.39.74-.62.97-.64.63-.01-.29-.17.2-.45 1.32-.5 2.08-.3 1.92.96-.77.64-1.35 1.07-2.13 1.36-2.45.51-.58.64-.54.23.07-.66.98-.66 1.05-.02.56.32-.24.85-.73 1.18-1.07.57-.6.56-.6-.18.1s-1.01.85-.79.44c.15-.28 1.53-1.56 1.88-1.74.17-.09.33-.26.36-.37.06-.2.02-.19-.39.09-.24.17-.47.29-.49.26-.07-.07.68-.67.83-.67.28 0-.08-2.14-.38-2.31-.16-.08-.19-.06-.19.15 0 .81-1.19.65-1.21-.16-.01-.75-.1-.7-1.19.7-.71.92-1.35 1.62-2.01 2.2-1.27 1.1-1.42 1.48-2.48 6.22-.17.74-.33 1.45-.37 1.57-.05.2-.02.22.42.26.27.02.52.04.56.05s.14-.14.23-.33Zm5.67-.36c4.75-2.42 8.04-7.21 8.83-12.84C45.06 16.44 35.86 6.67 24.29 7.5 11.58 8.41 3.78 21.9 9.44 33.18c.31.62.6 1.12.65 1.12s.27-.44.5-.97c.74-1.72 1.18-2.24 3.01-3.55 1.25-.9 1.44-.97 2.92-1.07.91-.06 1.21-.12 1.44-.28.57-.4 1.72-.66 3.4-.79l.91-.06.07-.91c.11-1.62.08-2.17-.19-2.98-.14-.42-.31-1.05-.39-1.4-.12-.58-.15-.64-.44-.71-.63-.17-.74-.47-.7-1.92l.03-1.28.34-.28.34-.29-.08-2.43c-.14-4.28-.08-4.82.61-5.85.64-.94 1.3-1.23 2.82-1.23.51 0 1.02-.05 1.12-.1.76-.41 3.56-.09 4.87.55 2.51 1.23 3.61 4.72 2.18 6.94-.28.44-.35.66-.4 1.29-.04.43-.14.96-.21 1.19-.14.41-.14.42.17.73l.32.31-.07.81c-.13 1.57-.65 2.56-1.26 2.43-.22-.05-.29-.02-.33.12-.15.53-.29 1.31-.46 2.48l-.19 1.3.25.26c.28.3.46.97.37 1.33-.07.3-.04.32 1.41.81.6.2 1.37.5 1.7.65s1.19.53 1.9.84c2.96 1.29 4.57 3.28 4.21 5.2-.11.57-.21.43-.32-.44-.21-1.56-1.1-2.85-2.55-3.71-.84-.5-.82-.52-.68.48.11.77-.04 1.97-.48 3.71-.03.12-.01.22.05.22.05 0 .12-.19.15-.41.03-.23.1-.46.16-.52.08-.08.09.02.05.38-.06.39-.05.47.07.43 1.4-.52 2.23-.68 1.76-.34-.09.07-.17.18-.17.24 0 .07-.19.24-.42.39-.24.14-.8.5-1.25.8-.45.29-1.06.62-1.36.73-.52.19-.55.22-.6.61-.03.24-.16.52-.3.68-.14.14-.33.42-.42.61-.1.19-.26.44-.36.55-.18.2-.17.42.06 1.12.05.14.26.08.97-.28Zm-20.34-.37c.02-.08-.53-.69-1.25-1.4-1.48-1.44-2.24-2.37-3.08-3.75-.67-1.1-.64-1.08-.9-.65-.18.3-.2.55-.23 3.13l-.03 2.8h2.72c2.18 0 2.73-.03 2.77-.13Zm1.98-.03c.23-.25 1.12-.72 1.72-.89.55-.17.58-.22.83-1.19.29-1.13.25-1.37-.23-1.33-.27.03-.39-.01-.46-.15-.12-.21-.13-.2-.37.77-.16.61-.34 1.07-.35.85 0-.19.3-1.77.36-1.86.03-.05-.06-.09-.2-.09-.23 0-.28.1-.72 1.43-.27.78-.5 1.35-.52 1.26-.04-.22.34-1.72.6-2.31.17-.41.18-.5.07-.64s-.1-.19.09-.34c.16-.13.22-.29.22-.57.01-.21.07-.52.15-.68l.13-.3.01.33c.01.49.34.43.6-.12l.21-.43-.25-1.04c-.41-1.7-.31-2.65.41-3.98l.35-.63-.28.07c-.73.18-.86.38-1.92 2.96-.68 1.66-.68 1.68-1.21 4.07-.22.97-.49 2.15-.6 2.62-.25 1.09-.26 1.46-.01 1.59.23.13.43-.45.92-2.64.39-1.74.83-3.16 1.09-3.47.27-.32.25-.15-.14 1.25-.19.67-.46 1.76-.61 2.42s-.4 1.55-.56 1.97l-.28.78.32.25c.39.3.39.3.63.04Zm26.24-2.46c0-2.43-.02-2.72-.2-3.1-.25-.57-.29-.55-.77.29-.88 1.56-2.38 3.32-3.84 4.54-1.13.94-1.32.87 2.49.92l2.32.02zm-19.27 1.68c-.02-.22 0-.42.06-.45.05-.03.07-.15.04-.26-.03-.13.01-.22.11-.26.13-.05.14-.1.05-.2-.13-.16-.04-.34.17-.34.12 0 .12-.03.02-.2-.1-.16-.1-.22-.01-.28.07-.05.1-.19.07-.35-.03-.19 0-.29.11-.34.09-.03.15-.15.14-.27 0-.11 0-.23.01-.26.1-.2.04-.87-.08-.96-.15-.11-.13-.46.03-.44.06.01.12-.09.15-.21a.6.6 0 0 1 .25-.33c.11-.06.25-.17.31-.25.07-.09.16-.11.24-.06.1.06.12.04.07-.08-.1-.27.1-.67.33-.67.11 0 .2-.04.2-.1 0-.05.07-.1.15-.1s.15-.04.15-.09.09-.07.21-.04c.15.04.22 0 .26-.16.03-.12.11-.2.17-.18s.18-.06.28-.17c.14-.17.19-.18.27-.07.07.1.11.06.16-.18.05-.25.11-.31.25-.26.1.03.21.01.25-.05s.24-.22.45-.35c.49-.31.74-.7.38-.6-.29.08-.91.38-.98.47a.9.9 0 0 1-.33.13c-.15.04-.27.12-.27.17 0 .06-.11.07-.26.04-.24-.06-.26-.05-.2.19.05.18.02.25-.09.25-.08 0-.15-.04-.15-.08s-.11-.09-.25-.1c-.21-.01-.25.03-.25.23 0 .29-.15.33-.29.08-.09-.16-.1-.16-.11.04-.01.58-.3.73-.31.15v-.37l-.16.37c-.08.21-.19.38-.23.38-.11 0 .05-.56.25-.86.14-.22.14-.25 0-.3-.12-.05-.13-.1-.04-.2.06-.07.08-.22.05-.32-.06-.18-.03-.19.37-.15.82.1 4.25-1.25 4.44-1.74.03-.07.14-.13.24-.13s.18-.03.18-.08c-.03-.19.02-.32.14-.32.07 0 .19-.21.26-.47.08-.27.16-.55.19-.63.02-.08-.12.08-.32.37-.45.65-1.89 1.7-2.18 1.61-.06-.02.09-.16.34-.3.69-.41 1.41-1.11 1.72-1.67.39-.72.3-.97-.12-.32-.6.92-2.25 1.95-4.02 2.51-1.14.36-1.54.67-1.47 1.14.05.31-.05.68-1.13 4.36-1.2 4.06-1.22 4.18-.8 4.27.17.03.33.1.36.14.12.21.21.06.17-.3Zm10.88-.92c.17-.22.29-.49.29-.66 0-.35.21-.56.7-.72.48-.16 3.29-1.81 3.07-1.81-.05 0-1.36.47-3.12 1.12l-.9.33-.05.73c-.05.68-.07.75-.38 1-.28.23-.32.33-.32.72l.01.45.21-.4c.11-.22.34-.56.49-.76Zm.19 1.01c0-.05.04-.1.1-.1s.1-.07.1-.15.09-.19.2-.25.17-.16.14-.25c-.04-.09.15-.37.5-.72.64-.66.77-.55.15.12-.34.37-.38.46-.25.51.26.1.18.24-.26.45l-.43.19.35-.04c.19-.03.51-.08.7-.12.54-.1.25.11-.39.3-.63.18-.91.2-.91.06Zm-9.3-.13c0-.07.05-.18.12-.25s.13-.2.14-.3c0-.09.01-.29.02-.44s.08-.33.15-.4c.21-.22.16-.69-.08-.66-.13.02-.2.11-.21.26-.01.12-.03.25-.04.3a.8.8 0 0 0-.01.24c.01.09-.03.19-.09.23-.05.03-.1.24-.1.45s-.04.42-.1.45c-.15.09-.12.25.05.25.08 0 .15-.06.15-.13Zm-10.84-.94c-.08-.79-.41-3.05-.56-3.78-.06-.27-.19-1.09-.3-1.8s-.23-1.4-.26-1.52c-.05-.17-.02-.23.09-.23.17 0 .34.55.53 1.77l.13.88-.05-1.23c-.04-.77-.02-1.22.04-1.22.15 0 .21.33.32 1.86.25 3.38.33 3.46.5.47.13-2.38.22-3.03.42-3.03.08 0 .09.33.04 1.18l-.07 1.17.28-.55c.22-.44.35-.57.63-.66.32-.11.38-.19.73-1.05.21-.52.46-1.13.57-1.37l.2-.42-.83.05c-1.31.1-1.73.23-2.41.74-.33.26-.88.66-1.22.88-.84.57-1.2 1.01-1.71 2.12-.24.53-.55 1.18-.69 1.44l-.24.48.6.88c.84 1.23 1.07 1.39.54.39-.24-.46-.44-.89-.44-.96 0-.24.24-.07.42.29.21.42.22.3.03-.41s-.19-1.33 0-1.7.38-.4.25-.04c-.27.7.56 4.01 1.21 4.82l.22.27-.06-.4c-.03-.22-.11-1.01-.17-1.75-.05-.74-.17-1.84-.26-2.45-.17-1.16-.16-2.06.01-2.12.12-.04.49 2.94.66 5.37l.11 1.55.36.38c.47.48.46.48.38-.3Zm15.29-1.1c-.07-1.6.04-2.43.45-3.23.4-.78.5-.64.2.3-.29.91-.42 1.83-.4 2.85.05 2.12-.14 2.17-.25.08Zm2.52.65c.26-.45.83-1.19 1.27-1.65.78-.83.94-1.14.38-.74-.75.53-1.7 1.85-2.11 2.94-.18.46-.04.3.46-.55Zm.68.57c.21-.15.35-.36.39-.58.1-.54.64-1.25 1.25-1.65.57-.38.71-.5.71-.66 0-.05-.08-.02-.18.07-.1.1-.23.17-.29.17-.44 0-2.75 2.52-2.57 2.82.09.15.37.08.69-.17Zm-12.35-.22c.06-.16.16-.38.22-.5.06-.13.08-.26.05-.3-.04-.03-.03-.11.02-.17.25-.3.23-1.01-.03-1.25-.33-.31-.48-.19-.36.29.08.34.08.34.09.05.01-.22.04-.26.12-.18.09.09.09.23 0 .55-.07.24-.13.51-.14.61-.03.25-.22.16-.22-.1 0-.42-.12-.33-.18.14-.06.52-.01.66.13.43.12-.19.12-.04.01.38-.12.42.14.46.29.05Zm1.65-.1c.1-.59.52-2.18.85-3.28.49-1.61.69-2.65.52-2.65-.1 0-.42 1.26-.39 1.55.02.22-.28.33-.36.13-.02-.07.05-.5.17-.95.2-.79.2-.84.03-1.12-.22-.38-.24-.69-.02-.51.12.1.16.09.21-.04.03-.09.1-.16.15-.16.04 0 .06.07.03.15-.04.08-.01.15.05.15.41 0 .1-.88-.58-1.66-.91-1.02-.81-1.1.15-.12l.75.76.31-.15.31-.16-.44-.39c-1.13-1-1.38-1.27-1.47-1.59l-.1-.34-.16.39c-.16.35-.29 1.86-.16 1.83.27-.06.7.39.7.73 0 .17-.29-.01-.36-.23-.06-.18-.07-.19-.16-.03-.05.09-.13.14-.18.11-.04-.03-.1.13-.12.35s0 .4.05.4.07.07.03.15c-.03.08.01.21.09.29s.15.19.15.25.03.11.08.11c.12 0 .35.61.34.93-.01.53-.33.64-.36.13 0-.15-.08-.29-.18-.32s-.15-.11-.11-.2c.03-.09 0-.14-.08-.12-.09.02-.15-.08-.17-.24s-.07-.28-.12-.28-.07-.07-.04-.15c.04-.08.02-.15-.04-.15-.17 0-.23-.5-.09-.79a.78.78 0 0 0 .06-.54c-.04-.15-.03-.29.02-.33.05-.03.07-.09.04-.14s-.01-.19.06-.31c.08-.15.08-.19 0-.15-.2.13-.42.66-.52 1.24-.1.59.14 2.12.32 2.12.05 0 .09.07.09.15 0 .22.2.54.63 1.02.2.24.37.47.37.52 0 .07-.56 1.75-.77 2.31-.03.08-.07.26-.09.4-.03.26-.11.63-.2.93-.04.11.02.2.18.26.39.16.46.12.53-.26Zm4.79-.24c.15-.11.33-.18.41-.15s.17.01.2-.04c.04-.06.15-.1.26-.1.3 0 .22-.44-.08-.48-.19-.03-.21-.07-.13-.22s.05-.25-.14-.46c-.23-.27-.23-.28-.34-.07-.07.11-.32.33-.57.47-.44.26-.6.56-.31.56.23 0 .29.2.12.39-.32.35.16.43.58.1Zm1.84-1.89c.17-.63.33-1.24.37-1.35.14-.41-.55.51-.71.95-.09.25-.25.64-.35.88-.14.32-.15.42-.05.42.08 0 .19.07.26.15.17.2.14.27.48-1.05Zm-13.27-1.5c.17-.8.42-1.73.55-2.08.24-.65.17-.78-.18-.31-.29.4-.8 2.74-.92 4.29l-.06.65.15-.55c.08-.3.28-1.2.46-2Zm9.45 2.32c-.03-.05.32-.27.77-.49.45-.23.99-.55 1.21-.72.21-.17.43-.31.48-.31s.31-.2.57-.45c.27-.25.53-.44.57-.43.05.02.2-.05.34-.15.21-.14.22-.17.06-.17-.15 0-.16-.03-.06-.15.14-.17.35-.21.25-.05-.03.06.01.07.1.04.12-.05.13-.09.04-.2-.06-.08-.09-.15-.05-.15.03-.01.1-.03.16-.04s.16-.03.23-.04c.09-.01.09-.03.01-.09-.15-.09.57-.78.8-.76.14.02.14.01.01-.03s-.14-.08-.04-.19c.14-.17.33-.19.23-.03-.04.07-.01.1.07.07s.13-.11.11-.18c-.05-.21.19-.41.42-.34.18.06.19.05.08-.09-.18-.21-.07-.37.24-.37.15 0 .23-.04.19-.1s-.11-.08-.16-.05-.06-.01-.03-.09c.03-.09.11-.16.16-.16.06 0 .17-.08.24-.18.07-.09.17-.18.23-.18.24-.03.25-.05.12-.13-.11-.07-.09-.13.08-.3.11-.11.21-.25.21-.31s.04-.1.1-.1c.16 0 .64-.54.51-.58-.06-.02-.08-.09-.04-.15.04-.07-.02-.05-.13.03-.31.23-1.38 1.24-1.44 1.35-.3.57-.78 1.1-2.28 2.51-1.08 1.01-1.78 1.61-1.81 1.53-.12-.36-.31-.41-.31-.07 0 .26.03.3.11.18.09-.13.1-.13.07 0-.05.21-1.88 1.4-2.14 1.4-.08 0-.2.15-.28.32-.12.3-.12.48 0 .48.03 0 .03-.04 0-.08Zm-5.92-.69c.23-.27.24-.27.51-.09.22.15.27.15.22.03-.03-.08-.01-.19.04-.24.06-.06.04-.14-.06-.23-.08-.07-.15-.19-.15-.26 0-.08-.05-.14-.11-.14s-.18-.09-.27-.2c-.17-.2-.18-.2-.53-.02-.31.16-.38.16-.57.04-.2-.13-.42-.1-.42.07 0 .05.1.11.22.14.25.07.1.33-.27.47-.23.09.16.3.57.3.11 0 .22.08.25.2.07.28.3.25.57-.07Zm2.46.09c0-.05-.13-.21-.3-.37-.16-.16-.3-.35-.3-.42s-.06-.1-.12-.08c-.13.05-.53-.53-.44-.62.09-.1.46.09.46.23 0 .11.06.13.2.09.15-.05.18-.03.14.09-.04.1 0 .18.1.22.09.03.16.12.16.2s.09.14.2.14c.26 0 .25-.06-.06-.47-.19-.25-.22-.33-.1-.33.09 0 .16-.04.16-.08 0-.05-.1-.08-.22-.07-.3.03-.44-.05-.27-.16.12-.07.11-.15-.05-.44-.19-.34-.36-.46-.36-.24 0 .05-.04.07-.1.04s-.1-.15-.1-.26.04-.18.1-.14c.05.03.04-.09-.03-.27l-.12-.33-.03.28c-.04.34-.18.35-.26.02-.07-.28 0-.49.14-.4.05.03.03-.16-.05-.42s-.15-.74-.15-1.06c0-.59-.13-.69-.29-.24-.05.12-.1.16-.14.1s.04-.25.18-.41c.31-.37.31-.45.03-.37-.19.05-.16 0 .12-.24.33-.28.33-.3.12-.31-.13 0-.2-.04-.17-.1.03-.05.14-.1.24-.1s.25-.08.32-.17c.12-.15.12-.16-.03-.1-.49.18-.21-.28.4-.67.43-.27.53-.48.14-.27-.37.2-.48.11-.18-.14.25-.2.28-.26.17-.39-.12-.15-.63-.03-.58.13.01.04-.11.19-.27.34s-.25.27-.2.27-.07.14-.26.3c-.26.22-.3.3-.17.3.26 0 .21.15-.1.3-.26.12-.27.13-.08.21.2.08.2.08-.02.14-.11.04-.23.16-.26.26-.04.16-.03.18.08.09.17-.14.26.08.13.33-.09.18-.05 1.23.07 1.69.05.18.03.28-.04.28-.06 0-.11.05-.11.1 0 .06.08.1.17.08.12-.02.19.06.24.27.11.48.28.85.39.85.05 0 .1.06.1.14 0 .07.07.19.15.26.12.1.12.16.04.26a.38.38 0 0 0-.05.31c.05.16.05.16-.08 0-.08-.11-.12-.25-.09-.33q.045-.135-.09-.09c-.08.03-.21-.08-.32-.3-.11-.19-.22-.35-.26-.35s-.1-.1-.13-.23c-.03-.12-.17-.53-.31-.92-.55-1.5 0-3.79 1.08-4.47l.31-.19-.33.05c-1.2.17-1.92 2.95-1.27 4.86.15.41.27.8.27.87.01.07.06.09.11.06.06-.04.08 0 .04.1-.03.1-.03.17.01.17.12 0 .43.58.35.63-.05.02-.03.03.03.01.22-.05.81.66.64.76-.11.07-.05.08.18.05.17-.02.32 0 .32.05 0 .11.62.7.73.7.04 0 .07-.04.07-.08Zm3.7-.51c.01-.13.04-.12.16.04.14.19.15.19.2-.03.04-.12.1-.2.14-.17.12.07.21-.38.1-.49-.06-.06-.11-.04-.14.05-.15.5-.17.52-.28.41-.12-.12.04-.64.19-.6.12.02.47-.14.56-.26.05-.07.1-.06.17.04q.09.15 0 .18c-.06.02-.1.11-.1.2 0 .15-.02.15-.1.02-.08-.12-.1-.11-.1.06 0 .43.39.34.41-.1.01-.17.02-.17.06-.03.07.28.23.19.23-.14 0-.27-.02-.3-.15-.19-.12.1-.15.1-.15-.03 0-.14.36-.41 1-.74.45-.24.96-.77 1.44-1.51.26-.4.76-1.03 1.1-1.4.6-.66 1.86-2.25 1.86-2.36 0-.4-1.87 1.47-1.97 1.96-.04.22-.15.34-.4.44-.18.08-.39.26-.45.39-.06.14-.16.25-.22.25s-.32.19-.57.43c-.94.86-1.17 1.03-1.96 1.43-.17.09-.36.28-.42.41s-.19.27-.29.31c-.6.23-1.35 1.25-.84 1.15.06-.02.14.08.17.2.07.26.35.32.35.08Zm9.76-.73c.19-.36.36-.37.28 0-.04.15-.04.24-.01.21.07-.05.47-1.55.47-1.73 0-.05-.14.11-.31.35s-.52.66-.78.93c-.45.49-.45.49-.08.22.4-.29.54-.14.17.19-.11.1-.2.22-.2.28 0 .15.3-.14.46-.45Zm-4.46.05c0-.5.4-1.66.54-1.53.05.06-.37 1.66-.47 1.76-.04.04-.07-.06-.07-.23Zm-18.28-2.41c.04-.79.17-1.28.31-1.11.08.09-.14 1.84-.24 1.94-.08.07-.1-.17-.07-.83Zm17.07.13c.05.02.06-.08.04-.23-.04-.23-.03-.24.07-.1.12.2.3.24.3.07 0-.05-.04-.07-.1-.04s-.1 0-.09-.07c.01-.16.17-.56.18-.45.01.04.34-.29.73-.74.67-.74.73-.79.78-.58s.07.21.13.07c.03-.1.04-.26.01-.35-.05-.15-.04-.16.05-.03.09.12.11.09.11-.15 0-.23.03-.27.1-.15.08.12.1.11.1-.07 0-.23.14-.37.4-.39.27-.03.6-.16.62-.25.04-.26 0-.32-.29-.44l-.33-.14-.95 1.17c-.52.64-1.2 1.46-1.51 1.82-.66.77-.82 1.02-.59.94.1-.04.14-.01.12.07s-.02.11 0 .06c.03-.04.08-.05.12-.02Zm-5.14-.75c-.03-.04.02-.13.09-.19.08-.07.19-.27.25-.44l.11-.32-.19.25c-.25.32-.41.03-.21-.36.19-.34-.04-.59-.26-.3-.18.25-.18.5 0 .85.08.15.12.38.09.51-.04.16-.03.21.06.16.06-.04.09-.11.06-.16Zm10.68-1.46c.03-.03.02-.14-.03-.23s-.16-.33-.24-.53c-.3-.76-.45-.25-.2.64.05.17.34.24.47.12Zm-8.55-1.19c1.44-.44 3.08-1.42 3.67-2.19.23-.3.29-.55.46-1.85.21-1.64.61-3.46.75-3.45.05 0 .21.04.37.08.18.05.32.04.42-.04.37-.31.8-2.64.55-2.95-.17-.2-.57-.19-.69.03-.07.12-.08-.31-.04-1.38.06-1.51.05-1.57-.21-2.21-.14-.36-.26-.77-.26-.9 0-.62-1.2-1.46-2.6-1.83-2.39-.62-3.99-.58-5.39.13-1.78.91-1.87 9.38-.11 11.59 1.33 1.7 2.46 2.09 4.52 1.57 1.27-.33 1.44-.28.46.13-2.1.88-3.01.72-4.59-.77l-.69-.66v1.6c0 1.87 0 1.87 1.15 3.07l.7.73.33-.22c.19-.12.73-.34 1.2-.48Zm0-4.22c-.44-.04-.48-.06-.48-.3 0-.19.03-.23.13-.15.06.05.29.08.5.06.2-.03.37 0 .37.05s.03.16.06.25.02.15-.02.14c-.05-.01-.3-.03-.56-.05Zm-.87-2.61c-.19-.09-.37-.22-.39-.29-.02-.08.08-.06.3.05.19.1.65.18 1.1.2.43.02.75.08.72.13-.1.16-1.37.1-1.73-.09Zm.99-.58c-.52-.07-1.18-.13-1.46-.12-.9.02-1.04-.27-.16-.34.61-.06 1.34.02 2.75.28 1.63.31.77.45-1.13.18Zm5.2-.73c0-.06.05-.13.1-.16.06-.03.1-.31.1-.61 0-.52.11-.71.24-.38.16.43-.02 1.24-.29 1.24-.08 0-.15-.04-.15-.09Zm-9.95-.58c-.09-.57-.12-1.63-.05-2.17.06-.46-.11-.59-.34-.24-.3.47-.31 1.39-.02 1.71.31.34.33.41.06.34-.3-.08-.28.46.02.67.36.25.41.2.33-.31Zm3.45-.73c-.3-.3-.2-.83.21-1.08.23-.14.25-.03.04.24-.19.25-.19.58 0 .74.08.07.15.16.15.21 0 .15-.19.1-.4-.11Zm3.4-1.93c-.3-.09-.32-.11-.12-.15.24-.04.26-.1.12-.32-.07-.12-.12-.12-.28.04-.15.13-.22.14-.28.05-.33-.55 1.39-.63 1.91-.09.34.36.26.52-.13.24-.26-.19-.28-.19-.44-.02-.17.17-.17.18.15.18.24 0 .28.03.17.1-.19.12-.65.11-1.1-.03Zm-5.4-.43c0-.07.18-.23.59-.52.13-.09.45-.19.7-.23l.46-.06-.4-.02c-.24 0-.53.07-.73.19-.55.34-.61.18-.07-.19.48-.32 1.28-.27 1.79.13.54.4.37.72-.25.49-.23-.09-.29-.08-.29.02 0 .29-.64.34-.82.06-.1-.17-.14-.17-.32-.06-.27.17-.66.28-.66.19Zm4.5-.28c0-.47 1.48-.69 2.06-.31.35.23.25.29-.19.1-.52-.22-.94-.19-1.44.1-.34.21-.43.23-.43.11Zm2.9-.41c-.47-.35-1.21-.55-2-.55-1.07 0-1.42-.51-.45-.66.91-.13 1.95.24 2.56.93.46.53.41.66-.11.28Zm-7.88-.48c.48-.72 1.41-1.07 2.35-.87 1.12.24.92.81-.21.6-.78-.15-1.17-.09-1.68.25-.48.32-.65.33-.46.02ZM0 16.61c0-.12.53-.55 2.7-2.21.96-.73 2.25-1.73 2.85-2.2.61-.48 2.83-2.21 4.95-3.85s5.07-3.94 6.55-5.1C20.65.44 21.27-.03 21.41.02c.06.02-.33.37-.87.78-.55.41-2.41 1.85-4.14 3.2-1.73 1.36-5.49 4.28-8.35 6.5s-5.78 4.49-6.49 5.04C.09 16.69 0 16.75 0 16.61Zm32.56-1.56c-.09-.34-1.27-1.58-2.01-2.1-2.22-1.58-4.52-1.91-6.37-.93-.73.39-.7.45.08.16.94-.35 2.91-.32 3.98.05 1.65.58 2.45 1.14 3.77 2.63.54.61.67.66.55.19Zm.44-.34c0-1.09-3.11-3.3-5.26-3.74-2.08-.43-5.14.82-5.99 2.44-.09.16.09.03.48-.35 1.62-1.59 3.73-2.21 5.71-1.67 1.81.5 4.08 2.09 4.71 3.31.16.32.35.32.35.01Zm.05-1.1c-.32-1.47-5.68-4.35-5.98-3.22-.04.17-.01.21.18.21 1.32 0 3.69 1.26 5.15 2.74.7.71.75.73.65.27Zm-9.52-2.15c.38-.22 1.01-.49 1.4-.63.71-.23.71-.24.22-.17-1.38.17-3.65 1.59-3.65 2.29 0 .17.13.08.68-.45.37-.37.98-.83 1.35-1.04Zm9.62.99c-.33-2.21-2.75-4.05-5.32-4.05-.73 0-.96.12-.46.25.15.03.23.09.17.13-.05.04-.1.28-.1.53l-.01.47.84.21c1.6.4 3.55 1.56 4.5 2.66.42.48.48.45.38-.2Zm-31.53.08C1.35 12.4.6 11.54.6 11.37c0-.12.44-.47.58-.47.08 0 .31.19.51.42l.38.42.34-.22c.19-.11.44-.31.57-.44l.22-.24-.55-.66-.55-.66-.47.44c-.52.48-.55.49-.84.34-.23-.13-.25-.54-.03-.72.09-.07.26-.23.39-.36.29-.29.59-.28.82.02l.18.23.34-.25.33-.26.32.34c.17.19.43.5.57.68l.25.33.27-.21.27-.21-.55-.67-.55-.66.31-.31.3-.3.62.68.62.68.24-.25.23-.25-.57-.7c-.32-.39-.64-.72-.72-.75-.16-.07-.17-.58-.01-.74s.54-.15.68 0c.06.07.28.31.48.54 1.25 1.36 1.37 1.94.57 2.61-.42.35-.43.37-.25.5.29.21.25.59-.07.8a3 3 0 0 0-.5.36c-.25.22-.59.1-.65-.22-.02-.16-.17-.08-.88.5-1.27 1.05-1.53 1.15-2.18.82Zm1.05-.23c1-.61 3.71-2.94 3.79-3.26.08-.3-.89-1.85-1.14-1.84-.48.03-.44.3.13.97l.57.67-.37.33c-.49.43-.46.44-1.07-.32-.51-.65-.52-.65-.71-.46s-.19.2.32.82c.61.76.6.7.17 1.03-.45.34-.48.33-.8-.12-.51-.75-.8-.95-1-.73-.16.18-.15.21.38.83.61.72.61.69-.12 1.26-.67.52-.82.52-1.25.01-.34-.39-.93-.45-.7-.06.57.97 1.16 1.26 1.8.87Zm20.7-1.38c.4-.18 1.03-.39 1.4-.45.94-.16.95-.47.02-.47-1.84 0-3.18.74-3.34 1.83l-.07.49.64-.53c.35-.29.95-.68 1.35-.87Zm-1.25-.54c.44-.31 1.35-.57 2.19-.64l.79-.07v-.34c0-.21.06-.36.15-.39.53-.21.12-.36-.82-.32-1.42.06-2 .41-2.58 1.57-.26.53-.24.54.27.19Zm4.62 0c.09-.13.13-.31.1-.45-.05-.18-.03-.22.09-.18.09.04.16-.02.2-.16.07-.28.01-.37-.15-.21-.18.18-1.16.15-1.35-.04-.13-.13-.17-.13-.24-.02-.14.21-.11.28.11.28.15 0 .2.07.2.28 0 .38.26.73.39.53.06-.09.06-.22 0-.32-.15-.28-.11-.39.15-.39.34 0 .41.16.21.46-.26.41.01.62.29.22Zm-.72-1.41c.05-.35.58-.38.58-.03q0 .42.27.15c.09-.09.08-.19-.03-.4-.24-.47-1.14-.35-1.14.15 0 .4.26.51.32.13ZM8.2 8.49c-.33-.13-.72-.51-1.27-1.22-.48-.62-.49-.76-.07-1.04l.27-.17.31.39c.84 1.07 1.03 1.21 1.33 1.05.43-.24.39-.41-.36-1.36-.39-.49-.71-.94-.71-1 0-.16.57-.67.68-.6.23.14 1.53 1.95 1.62 2.24.28 1-.86 2.08-1.8 1.71Zm.77-.2c1.12-.42 1.14-1.16.06-2.61-.71-.96-.72-.97-.97-.69-.16.17-.13.23.54 1.06.77.97.82 1.14.45 1.5-.48.49-.63.4-1.77-.98-.23-.28-.24-.28-.4-.1s-.14.22.42.95c.71.91 1.08 1.1 1.67.87ZM0 7.98c.01-.14.07-.18 5.5-4.39C10.01.09 10.17-.03 10.29.02c.05.01-1.89 1.57-4.32 3.45C3.54 5.36 1.2 7.17.78 7.51c-.43.33-.78.55-.78.47Zm10.73-1.43c-.13-.28-.23-.35-.45-.35-1.2 0-1.74-2.38-.62-2.8 1.17-.45 2.9 1.43 2.33 2.53-.41.79-1.03 1.1-1.26.62Zm.81-.35c1.04-1.15-.96-3.5-2.05-2.41-.88.88.38 2.76 1.35 2 .29-.23.34-.56.11-.65-.08-.04-.22-.01-.3.06-.36.3-1.04-.24-.91-.74.16-.64.73-.52 1.24.26.39.61.4.84.06 1.19-.18.19-.24.33-.19.48.1.31.28.26.69-.19Zm15.9.04c.51-.18 1.03-.58 1.27-.98.27-.45.24-.47-.28-.24-2.25 1-4.41-.82-3.9-3.27l.09-.4-.31.29c-1.28 1.22-.97 3 .77 4.28l.77.57.6-.06c.33-.03.77-.12.99-.19Zm-1.45-.08c-1.09-.39-2.19-1.58-2.19-2.37 0-.36.22-.16.42.39.25.68.98 1.41 1.8 1.81.64.3.62.41-.03.17Zm-.07-.56c-.74-.37-1.22-.77-1.22-1.02 0-.05.14.02.31.16.44.37.75.52 1.42.67.62.13.94.36.36.25l-.34-.07.35.2c.68.39-.04.23-.88-.19ZM6.7 5.42c-.45-.36-.01-.99.5-.72.27.14.23.57-.06.77-.19.12-.24.11-.44-.05Zm3.99-.83c-.15-.29-.47-.43-.65-.28-.2.16-.17.39.08.66l.22.23.22-.21c.18-.17.21-.26.13-.4Zm1.32-.18c-.28-.38-.27-.41.16-.77.62-.52.09-.98-.62-.54l-.32.2-.21-.3c-.65-.88 1.19-1.54 1.95-.7.31.35.44.37.67.11.17-.19.16-.22-.33-.83l-.52-.63.32-.28c.37-.34.42-.31 1.21.75.37.51.49.75.46.93-.05.22-.02.25.23.25.48 0 .64.49.25.75-.29.2-.63.07-.68-.25-.03-.17-.2-.06-1.13.7-1.25 1.03-1.17.99-1.44.61Zm1.5-.92c1.28-1.07 1.29-1.09.59-2.02-.59-.78-.67-.84-.87-.64-.14.14-.11.21.31.74.55.71.56.73.1 1.08l-.36.28-.38-.42c-.45-.49-.88-.54-1.51-.19-.43.24-.45.27-.25.53.12.17.14.17.37.02.76-.54 1.58.33.84.89-.29.22-.33.29-.24.45.15.29.24.25 1.4-.72Z"/></svg>