<svg xmlns="http://www.w3.org/2000/svg" width="51" height="51" viewBox="0 0 51 51"><path fill="#fff" fill-rule="evenodd" stroke="#fff" stroke-width=".388" d="M4.2 50.55c-1.35-.66-2.07-1.24-2.84-2.24C.71 47.47 0 46.13 0 45.76c.01-.26.09-.16.53.69 1.1 2.12 1.86 2.89 3.76 3.83.74.37 1.36.73 1.39.8.06.2-.17.12-1.48-.53Zm8.14.46c.17-.11.47-.23.68-.26.33-.06.38-.11.44-.41.06-.33.2-.51.3-.41.03.03 0 .16-.07.29-.12.22-.11.23.08.06.26-.23.36-.23.24.01-.09.16-.08.18.11.13.12-.03.19-.01.16.04-.04.05.05.1.18.1.22.02.21-.01-.2-.55-.25-.31-.7-.96-1-1.45-.44-.7-.57-.85-.62-.7-.04.11-.14.27-.22.37-.09.1-.11.17-.04.17.06 0 .14-.04.17-.1.03-.05.1-.1.15-.1.14 0 .08.43-.08.63-.12.13-.12.17-.02.17.09 0 .08.06-.05.2-.28.31-.37.13-.14-.33.11-.23.14-.35.07-.27-.41.47-.56-.08-.16-.58.27-.33-.13-.01-.54.44-.55.6-1.28.94-2.22 1.03-.89.08-.86.1-.86-.44 0-.41-.01-.43-.41-.53-1.99-.5-2.19-3.31-.35-4.99.99-.91 2.01-.98 2.99-.2.28.21.39.26.34.15-.03-.1-.09-.41-.12-.7-.1-.85-.14-.98-.33-.98-.15-.01-.15-.02-.01-.13.12-.09.18-.39.23-1.22.04-.61.13-1.4.2-1.76l.12-.66-.7-.07a8 8 0 0 1-1.23-.2l-.53-.14-.73.38c-.99.51-1.93.67-3.02.51-.58-.09-.98-.09-1.45-.02-1.02.17-2.25-.13-3.04-.74-.28-.21.18-.83.96-1.33.33-.2.9-.64 1.26-.97.37-.34 1.12-.95 1.67-1.38.55-.42 1.2-.93 1.45-1.13 1.56-1.27 3.31-.86 3.8.9.13.46.1 1.85-.05 2.21-.07.17-.03.16.21-.06.41-.38 1.25-.78 1.9-.91.53-.11.56-.13.81-.62.36-.72 1.08-1.82 1.55-2.4.46-.54.47-.51-.38-.92-.94-.44-1.98-.65-3.59-.71-4.97-.19-7.39 1.13-10.03 5.47-.21.33-.22.34-.22.1 0-.9 2.39-3.72 3.92-4.61 2.58-1.51 7.53-1.72 10.15-.43l.73.36.72-.67c.4-.38.94-.84 1.21-1.04.61-.46.64-.4-.61-.99-2.27-1.08-4.35-1.6-6.68-1.69-3.55-.13-5.55.65-8.63 3.37l-.81.71v-.31c0-.17.04-.29.09-.26.04.03.34-.17.65-.44 2.96-2.59 4.79-3.34 8.11-3.34 2.76-.01 4.91.5 7.44 1.76l1.25.61.3-.18c2.2-1.3 4.14-1.84 6.86-1.92 3.79-.11 7 1.04 9.84 3.53l.75.66.83-.55c2.52-1.68 4.84-2.31 8.48-2.3 2.8.01 6.6.75 6.6 1.3 0 .1-.05.13-.17.08-4.74-1.85-10.95-1.43-14.53.98-3.43 2.31-4.94 5.14-3.44 6.46.82.72.44.69 9.77.77 6.96.06 8.37.09 8.37.2s-.3.14-1.47.15c-.82.01-1.37.04-1.23.08.22.06.23.08.07.14-.31.12-.47.08-.4-.09.05-.13-.04-.15-.53-.15-.33 0-3.49-.03-7.04-.07-7.11-.08-6.77-.04-7.62-.72-.46-.37-.44-.38-.67.08-.43.83-.36 1.53.21 2.17.72.82 1.73.84 3.21.07 1.52-.8 2.27-.78 3.87.11 1.04.58 1.89.6 2.95.05 1.7-.87 2.56-.91 4.04-.16 1.45.73 2.19.76 3.28.1.68-.41 1.19-.57 1.25-.38.02.05-.13.14-.32.21s-.57.26-.83.43c-1.08.68-1.92.66-3.45-.1-1.34-.66-1.86-.68-3.19-.13-2.24.94-2.41.94-4.02.13-1.51-.76-2.05-.76-3.56.02-1.04.54-1.08.55-1.86.54-.91-.02-1 .09-.53.65l.26.31 8.76.02c6.89.02 8.76.06 8.8.16.05.16-17.11.18-17.54.02-.44-.17-.61.35-.28.85l.16.25h11.86l.79.73c2.2 2.04 2.17 2.05 4.28-.12.5-.52.65-.61.65-.38 0 .16-2.12 2.14-2.45 2.29-.49.22-.87.03-2.14-1.12l-1.22-1.1h-2.78c-1.53 0-4.12-.03-5.77-.07l-2.99-.06-.29.24c-.48.42-.49 1.67-.01 2.15l.24.24h8.53c8.24 0 8.98.02 8.98.21 0 .05-3.74.09-8.71.09-9.55 0-9.11.03-9.39-.58l-.11-.25-.29.28c-.7.67-.91 1.8-.47 2.46.61.9 1.67 1.04 3.03.4 1.92-.91 2.65-.95 4.11-.2 1.33.68 1.94.67 3.53-.06 1.53-.7 2.07-.7 3.53.03 1.49.76 2.2.75 3.8-.04.36-.17.62-.24.74-.19.14.06.03.15-.52.41-1.76.85-2.56.86-4.16.05-1.39-.7-1.81-.69-3.39.04-1.62.75-2.21.75-3.55.04-1.32-.71-1.94-.74-3.25-.15-.47.21-1.13.47-1.48.58l-.62.2v.45c0 .72.32 1.23 1.06 1.7.17.11.16.12-.1.12-.58.02-1.26-1.02-1.26-1.91 0-.37.05-.34-1.1-.62l-.25-.07.25.11c.53.23.87.7.51.7-.26 0-.17.34.15.55.3.19.31.35.01.36-.2.01-.19.02.06.11.15.05.25.14.21.19-.03.05.06.14.2.21.3.13.35.32.07.23-.11-.03-.22-.01-.26.05-.03.05-.16.1-.28.1l-.22-.01.23-.19c.12-.1.18-.21.13-.25-.06-.03-.18.06-.27.2-.25.38-.49.34-.29-.04.21-.42.05-.45-.25-.05-.14.18-.33.34-.43.34-.16 0-.15-.03.06-.22.28-.26.73-.98.61-.98-.04 0-.18.09-.3.21-.13.12-.24.16-.28.1-.04-.05.03-.15.15-.21.2-.11.2-.13.04-.31-.16-.17-.17-.2-.01-.44.19-.29.11-.33-.16-.08-.26.23-.33.1-.12-.22.18-.27.18-.28-.04-.21-.21.07-.22.05-.18-.36.07-.8-.21-1.46-.63-1.5-.35-.03-.36-.05-.39-.45l-.03-.43h.44c.4 0 .48-.04.72-.37.16-.21.39-.5.53-.65.2-.22.25-.38.26-.86.01-.4.09-.7.24-.96.2-.34.21-.39.06-.61-.1-.15-.15-.44-.14-.82.02-.99-.11-1.47-.48-1.78-.78-.66-.94-1.7-.42-2.71.28-.52.3-.61.18-.88-.44-1.08.14-2.38 1.89-4.17l.94-.96-.68-.62c-5.27-4.8-13.6-4.73-18.74.17-5.64 5.36-5.84 14.05-.47 19.89.34.36.37.43.21.43-.11 0-.28-.09-.39-.21l-.18-.2-.08.2c-.06.17-.16.21-.53.21-.42 0-.45-.02-.36-.19.09-.16.08-.18-.08-.14-.11.03-.22.11-.25.19s-.18.13-.33.13c-.17-.01-.21-.03-.11-.06.1-.02.18-.08.18-.13 0-.04-.09-.06-.2-.03s-.2.08-.2.12c0 .03-.19.07-.43.09l-.42.02zm13.61 0c-.03-.06-.17-.43-.3-.81l-.24-.71.26-.1c.15-.05.33-.08.42-.07.21.04.73 1.44.57 1.57-.19.16-.63.23-.71.12Zm-13.52-.44c.15-.23.34-1.25.3-1.59-.03-.17.24-.45.33-.35.03.03.01.14-.05.25-.17.31-.14.47.04.32.44-.36.15.69-.36 1.34-.26.32-.47.34-.26.03Zm6.96-.03-.24-.26.58-.54c.59-.55.78-.59.98-.22.11.21-.22.65-.82 1.09-.26.18-.26.18-.5-.07Zm6.94-.05c-.03-.42-.32-.99-.47-.93-.12.05-.11.15.07.65.21.59.44.74.4.28Zm3.48-.37c-.49-.94-.45-1.62.1-1.62.25 0 .78 1.27.63 1.51-.12.2-.64.28-.73.11Zm.44-.34c-.02-.07-.09-.32-.15-.55-.09-.37-.4-.63-.4-.35 0 .26.34 1.02.46 1.02.07 0 .11-.06.09-.12Zm-19.95-.7c.85-.25 1.73-1.09 1.57-1.51-.09-.24.11-.56.32-.5.19.05.2.03.1-.26-.16-.45-.12-.48-1.69 1.06l-1.45 1.42.4-.05c.22-.03.56-.1.75-.16Zm15.62-.3c.02-.34.07-.43.2-.42.1 0 .48.01.84.02l.65.02-.03.38-.03.37-.83.03-.83.03zM11.7 46.41c0-.04-.06-.13-.12-.2-.11-.11-.08-.12.14-.07s.26.03.22-.09c-.07-.18-.1-.18-.34-.05-.12.07-.17.16-.13.27s.02.14-.08.11c-.08-.03-.13-.11-.11-.18.05-.2-.51-.05-.97.26-.59.39-1.08 1.23-1.3 2.22l-.09.42 1.39-1.31c.76-.72 1.39-1.34 1.39-1.38Zm15.58 2.37c-.07-.2-1.18-.23-1.18-.03 0 .12.13.15.61.15.44 0 .6-.03.57-.12Zm-10.12-.7c-.16-1.15-.14-1.23.23-1.26.46-.05.5.02.57.91l.07.77h-.41c-.4 0-.41 0-.46-.42Zm-8.05-.48c.35-.76.94-1.39 1.53-1.64.23-.1.34-.2.31-.29-.03-.07.03-.22.15-.32.18-.17.2-.17.2-.01s.01.16.16.02c.28-.28.11-.37-.3-.16-.54.27-.75.09-.42-.36.19-.25.31-.12.16.16-.1.19-.1.2.07.11.34-.2.53-.38.53-.52 0-.1-.03-.1-.12-.01-.16.16-.26.15-.3-.04-.02-.14-.08-.12-.35.1-.25.21-.33.24-.33.12 0-.09.19-.29.42-.46.28-.21.35-.3.22-.3-.1 0-.33.14-.51.32s-.33.27-.33.2c0-.06-.06-.09-.14-.06-.49.19-.17-.21.35-.44l.63-.28-.38-.29c-.82-.62-2.13-.37-2.87.56-1.21 1.52-1.14 3.45.13 4.08.71.35.82.3 1.19-.49Zm8.59.2c0-.48-.08-.7-.26-.7-.13 0-.12.64.02 1.08.08.26.24 0 .24-.38Zm-13.36-.08c-1.04-.67-1.69-1.62-1.81-2.62-.03-.28-.11-.53-.17-.55C.95 44.17.1 43.2.1 41.97c0-.99.56-1.37 2.03-1.37.93 0 .94 0 1.58-.41 1.98-1.28 3.79-.63 3.79 1.37 0 1.28-1.12 2.74-2.1 2.74-.23 0-.24.07-.09.47.32.84.29 2.14-.07 3.01-.16.4-.18.4-.9-.06Zm18.58-.18-.23-.16.36-.66c.47-.87.45-.85.83-.62l.32.2-.35.7c-.37.74-.52.83-.93.54ZM3.88 45.32c-.45-1.22-.86-2.18-.9-2.14-.3.3-.25 2.21.07 2.83.28.54 1.48 1.69 1.62 1.56.01-.02-.34-1.03-.79-2.25Zm1.39.58c-.06-.95-.37-1.59-1.14-2.3-.64-.6-.91-.75-.78-.42.04.09.4 1.07.81 2.17s.77 2.07.81 2.15c.11.27.34-.93.3-1.6Zm18.3 1.04c.24-.41.29-.64.14-.64-.11 0-.61.83-.61 1 0 .22.25.03.47-.36Zm-7.42-.56c-.11-.06-.22-.12-.24-.14-.07-.06.74-1.44.86-1.44.06 0 .23.1.38.23l.25.22-.4.63c-.41.64-.5.7-.85.5Zm.61-.64c.38-.65.17-.81-.24-.18-.29.45-.33.64-.12.64.05 0 .21-.21.36-.46Zm7.63-.35c-1.89-.21-3.57-1.88-3.9-3.87-.62-3.76 3.49-6.57 6.8-4.65 4.32 2.51 2.08 9.09-2.9 8.52Zm5.54-.11c-.3-.14-.29-.19.14-.99.4-.74.55-.82.93-.51l.23.19-.39.71c-.4.73-.5.8-.91.6Zm-4.12-.18c3.32-.63 4.67-4.85 2.3-7.21-1.11-1.1-2.46-1.56-3.89-1.3-1.05.19-1.05.18-.7 1.36.69 2.39.72 4.08.09 5.91-.34 1-.34 1.01.41 1.19.67.17 1.11.18 1.79.05Zm4.77-.52c.29-.5.32-.68.12-.68-.13 0-.7 1.02-.64 1.12.11.17.23.06.52-.44Zm-11.76.02c-.2-.33-.14-.43.45-.85.74-.52.68-.51.92-.16l.21.29-.61.46c-.68.52-.79.54-.97.26Zm4.51-.7c.7-1.88.62-3.63-.3-6.72-.1-.33-1.02.36-1.58 1.17-1.26 1.83-.91 4.38.81 5.77.75.61.77.61 1.07-.22Zm-20.8-.04c.21-1.52.65-1.57 2.04-.23.52.5.52.5.91.39 2.33-.7 2.34-4.22.02-4.22-.58 0-.78.08-1.84.73-.57.35-.61.36-1.5.34-1.03-.02-1.5.16-1.74.67-.4.82.43 2.22 1.54 2.61.53.19.51.2.57-.29Zm15.73-2.98c-.09-.26-.27-1.5-.23-1.54.02-.02.21-.05.42-.07l.39-.02.13.79c.08.43.12.8.11.81-.14.12-.79.14-.82.03Zm-3.22-.47c-.28-.22-.64-.41-.8-.43-.24-.02-.29-.08-.32-.34-.04-.43 1.15-.99 1.48-.69.22.2.27.65.08.65-.07 0 .04.16.25.35.37.34.38.37.24.58-.22.33-.37.31-.93-.12Zm3.71-.18c-.09-.65-.12-.73-.3-.73-.16 0-.16.17.01.98.1.48.36.25.29-.25Zm11-.22c-.03-.06-.08-.46-.12-.9l-.06-.81h.82l.06.58c.03.31.08.67.11.8s-.01.24-.08.26c-.4.13-.67.15-.73.07Zm-15.11-.42c.16-.13.33-.18.46-.14.16.05.2.02.2-.14 0-.26-.06-.26-.66 0-.59.26-.58.25-.49.38.09.16.19.14.49-.1Zm15.62.05c-.03-.09-.06-.36-.06-.6 0-.36-.03-.44-.19-.44s-.18.06-.14.48c.06.63.1.72.29.72.11 0 .14-.05.1-.16ZM4.59 37.9c.71-.38 1.42-1.05 1.01-.96-.14.03-1.19.19-2.35.36-2.52.37-2.37.33-1.98.54 1.07.55 2.35.57 3.32.06Zm2.92.11c1.48-.56 2.33-1.95 2.15-3.49-.26-2.17-1.98-2.71-3.76-1.17-.3.27-.95.78-1.45 1.16-.49.37-1.02.8-1.17.96l-.27.28.5-.04c.88-.06 2.79.62 2.79.99 0 .18-.74.92-1.24 1.26l-.29.18.24.08c.45.14 1.91.01 2.5-.21Zm4.05-.81c.17-.57.25-.56-1.07-.11l-1.14.38.45.11c.25.06.72.1 1.04.09l.59-.02zm-8-.21c1.23-.19 2.24-.36 2.24-.4s-.28-.17-.62-.3c-.97-.37-2.24-.34-2.97.06-.68.38-1.47 1.09-1.13 1.01.13-.02 1.24-.19 2.48-.37Zm7.03-.21 1.24-.42.18-.44c.26-.6.25-.65-.13-.57-.85.17-2.29 1.1-2.58 1.66-.14.25-.13.25 1.29-.23ZM37 36.66c-.18-.23-.08-.61.17-.64.26-.04.57.37.47.62-.08.2-.47.21-.64.02Zm9.31-.2c-.15-.18 0-.5.31-.67.39-.21.64.34.3.64-.23.21-.46.22-.61.03Zm-5.67-.21c-.45-.45-.13-.85.4-.49.31.2.34.49.06.64-.17.09-.25.06-.46-.15Zm-21.96-.18c-.72-.34-.81-.49-.5-.86l.17-.22.73.36c.76.36.84.5.5.92-.13.17-.11.17-.9-.2Zm24.76.1c-.32-.28-.28-.57.09-.57.33 0 .65.36.51.57-.16.26-.3.26-.6 0Zm-23.94-.26c0-.13-1.09-.61-1.16-.5-.08.13-.09.11.51.42.47.23.65.26.65.08Zm2.18.03c-.35-.18-.35-.14.08-.91.33-.6.38-.64.62-.58.46.11.47.21.09.92-.4.76-.42.78-.79.57Zm9.38-.12c-.03-.05-.08-.46-.12-.9l-.07-.82h.41c.45 0 .45-.01.57 1.13.06.56.06.57-.18.57-.14 0-.32.03-.4.06s-.18.01-.21-.04Zm3.34-.1c-.23-.19-.23-.2-.07-.46.21-.31.38-.33.61-.07.42.46-.06.92-.54.53Zm-2.84-.46c-.03-.11-.06-.36-.06-.53 0-.25-.04-.33-.18-.33-.15 0-.17.07-.15.37.07.69.12.83.29.76.1-.04.14-.13.1-.27Zm17.05-.35c-.08-.14-.05-.23.13-.41.44-.4.9-.03.5.41-.22.24-.5.24-.63 0Zm-10.25-.07c-.25-.25-.17-.47.24-.62.48-.18.66.11.34.56-.18.26-.37.28-.58.06Zm2.91-1.12c-.21-.23-.22-.61-.02-.68.27-.11.67.24.63.54-.04.33-.37.41-.61.14Zm3.03.02c-.19-.22-.01-.68.27-.72.33-.05.49.32.28.64-.18.28-.37.31-.55.08Zm6.53-.01c-.19-.07-.15-.48.06-.67.26-.23.39-.02.15.25-.16.17-.16.19-.01.19.1 0 .17.07.17.15 0 .15-.14.18-.37.08Zm-23.19-.85c-.26-.68-.26-.72-.09-.85.29-.2.63-.16.71.09.06.21.07.21.21-.05.17-.34.25-.34.98.06.54.29.6.35.58.61-.04.47-.16.5-.81.17-.76-.38-.73-.39-.66.08.07.41.04.45-.38.55-.25.06-.28.02-.54-.66Zm-9.04.17v-.46l.83.03.82.03v.8l-.82.03-.83.03zm9.58-.37c-.09-.26-.22-.44-.32-.46-.2-.04-.18.07.11.76.22.52.4.27.21-.3Zm7.97.42c-.09-.27.19-.7.46-.7.35 0 .23.84-.13.88-.2.02-.28-.02-.33-.18ZM20 33.05c0-.12-.13-.15-.6-.15s-.6.03-.6.15.13.15.6.15.6-.03.6-.15Zm27.1-.25c-.24-.24-.25-.34-.04-.55.26-.26.85.22.71.59-.09.22-.43.2-.67-.04Zm-17.3-.03c0-.1-.87-.67-1.04-.67-.32 0 .54.68 1.02.79.01.01.02-.05.02-.12Zm-9.1-.88v-.41l2.23.07c2.56.08 4.12-.02 6.12-.4 1.38-.25 3.03-.44 3.38-.37.42.08.1.21-.7.27-.49.04-1.6.21-2.48.37-1.46.28-1.83.31-4.22.35l-2.63.05v.24c0 .23-.02.24-.85.24h-.85zm18.21.24c-.26-.21-.21-.44.14-.67.5-.33.77.2.32.63-.23.21-.25.21-.46.04Zm-21.69-.8c.05-.26 1.29-1.26 2.06-1.66 2.37-1.25 6.61-1.7 9.36-1.01.37.09.65.21.64.26-.05.13 0 .13-1.13-.08-3.72-.7-8.12.21-10.25 2.14-.62.56-.73.62-.68.35Zm32.03-.25c-.28-.16-.36-.3-.23-.45.14-.17.63-.16.78.02.3.36-.11.68-.55.43Zm-7.4-.21c-.12-.1-.15-.2-.1-.36.09-.3.88-.28.93.03.07.33-.51.56-.83.33Zm3.35-.27c-.21-.21-.23-.29-.14-.54.12-.31.52-.15.78.31.18.32-.35.52-.64.23Zm-24.72-.05c-.19-.2-.01-.25.9-.25 1.74 0 6.74-.31 7.97-.5.66-.1 1.23-.16 1.27-.13.22.12-.01.21-.94.37-1.59.27-9.04.68-9.2.51Zm4.5-7.36c-3.9-.92-4.53-6.59-.94-8.34 2.31-1.13 5.56-.11 5.56 1.74 0 1.13-1.24 1.5-2.22.67-1.39-1.19-3.28-.31-3.28 1.53 0 1.92 1.77 2.73 3.29 1.51 1.5-1.21 3.06.7 1.64 2.01-.85.8-2.7 1.2-4.05.88Zm8-.08c-4.18-1.38-3.87-7.77.42-8.67 1.07-.22 2.16-.03 2.86.51.41.32.46.31.67-.04.53-.9 1.97-.67 2.27.37.21.71.09 7.01-.14 7.35-.48.71-1.39.78-1.98.16l-.39-.41-.22.2c-.69.65-2.36.9-3.49.53Zm-24.25-.1c-.64-.4-.63-.34-.63-5.21 0-3.57.03-4.47.14-4.75.39-.92 1.74-.93 2.23-.02.22.38.34 8.5.14 9.17-.24.83-1.2 1.24-1.88.81Zm6.47.03c-3.55-.95-4.48-5.72-1.53-7.84 3.02-2.16 7.18-.1 7.18 3.56 0 2.98-2.74 5.06-5.65 4.28Zm26.3.09c-.23-.09-.6-.45-.76-.75-.26-.5-.2-8.79.06-9.34.46-.94 1.73-.96 2.22-.04.25.47.28 8.87.04 9.45-.24.56-.99.89-1.56.68Zm-6.45-.18c.52-.09 1.11-.4 1.48-.78.18-.2.31-.27.34-.2.36.97 1.3 1.27 1.89.62.24-.26.35-6.88.13-7.41-.34-.81-1.54-.74-1.89.12-.14.35-.26.37-.54.11-1.53-1.43-4.45-.84-5.6 1.13-1.67 2.85.59 6.94 3.59 6.5.11-.02.38-.06.6-.09Zm-7.07-.29c1.04-.48 1.58-1.24 1.32-1.87-.27-.64-1.13-.78-1.76-.28-1.66 1.32-3.75.39-3.74-1.68.01-1.42.89-2.33 2.27-2.33.71 0 .78.03 1.63.68.52.39.88.41 1.28.07 1.1-.93-.42-2.47-2.58-2.62-4.9-.35-6.29 6.54-1.65 8.2.81.28 2.41.2 3.23-.17Zm-18.15.13c.61-.28.62-.33.61-4.95-.01-3.92-.02-4.24-.2-4.6-.33-.68-1.19-.83-1.62-.29-.21.27-.41 8.28-.22 9.1.16.7.79 1.03 1.43.74Zm8.41-.28c3.05-1.5 3.17-5.87.21-7.39-4.15-2.11-8.19 2.57-5.39 6.23 1.11 1.45 3.5 1.99 5.18 1.16Zm24.32.16c.39-.33.43-.77.43-4.72 0-4.22-.05-4.79-.43-5.11-.47-.41-1.28-.24-1.56.33-.15.33-.27 6.56-.15 8.17.1 1.43.88 2.04 1.71 1.33ZM34 21.21c-2.52-.77-2.19-4.65.4-4.79 1.27-.07 2.22.6 2.5 1.79.44 1.83-1.19 3.52-2.9 3Zm1.8-.55c1.29-.85 1.18-3.06-.2-3.76-1.76-.89-3.53.67-2.97 2.61.39 1.33 2.01 1.92 3.17 1.15Zm-20.04.14c-1.27-.38-1.89-1.83-1.29-3 1.26-2.45 5.05-.68 3.9 1.82-.44.97-1.59 1.48-2.61 1.18Zm1.5-.39c1.37-.62 1.37-2.7 0-3.32-1.32-.6-2.76.27-2.76 1.66 0 1.38 1.45 2.25 2.76 1.66Z"/></svg>