<svg xmlns="http://www.w3.org/2000/svg" width="51" height="51" viewBox="0 0 51 51"><path fill="#fff" fill-rule="evenodd" stroke="#fff" stroke-width=".333" d="M19.33 47.43C1.01 47.4 0 47.39 0 47.22c0-.16 1.3-.17 25.6-.17 23.33 0 25.6.01 25.6.16 0 .19-3.82.3-9.2.27-1.84-.02-12.05-.04-22.67-.05ZM0 46.42c0-.33-.24-.32 26.23-.35l24.97-.02v.45H27.48c-13.05 0-24.57.03-25.6.07-1.86.06-1.88.06-1.88-.15Zm23.65-.7c-.95-.08-1.2-.31-1.12-1.07.02-.16-.05-.21-.3-.23-.32-.03-.33-.02-.33.36 0 .74-.26.92-1.33.92-1.44 0-1.51-.08-1.33-1.41.06-.48.05-.57-.1-.63-.23-.09-.24-.07-.41.81-.22 1.15-.31 1.23-1.6 1.23-1.6 0-1.57.08-.9-2.82l.34-1.48h-.32c-.26 0-.32.04-.29.18.07.28-.82 3.71-1.01 3.92-.41.45-2.55.23-2.55-.26 0-.42.92-3.46 1.13-3.71.07-.1.02-.13-.22-.13-.18 0-.3.04-.27.09.11.17-1.15 3.75-1.41 3.99-.27.24-1.74.33-2.27.12-.38-.14-.34-.34.47-2.37l.74-1.83h-.28c-.2 0-.27.04-.23.14.09.24-1.45 3.63-1.78 3.91-.51.43-2.58.34-2.58-.11 0-.16.84-1.87 1.54-3.14l.45-.8h-.35c-.25 0-.34.04-.34.16 0 .21-1.75 3.47-2.07 3.85-.25.29-.25.29-1.38.29-1.73 0-1.72.05-.17-2.43.62-.98 1.12-1.8 1.12-1.82 0-.18-.49-.02-.54.17-.07.32-2.19 3.53-2.52 3.83s-1.44.38-1.44.1c0-.11.12-.15.49-.15.6 0 .68-.08 1.87-1.97 1.38-2.19 1.37-2.13.47-2.13-.74 0-.86.1-1.85 1.6C.12 44.2.05 44.29.02 44c-.03-.24.11-.53.67-1.37.78-1.16.81-1.23.5-1.23-.11 0-.17.04-.14.1.03.05-.18.4-.47.77l-.53.67-.03-.32c-.02-.23.04-.41.22-.63.33-.38.33-.57.01-.65-.16-.04-.25-.13-.25-.25 0-.18.23-.19 8.4-.19 5.53 0 8.4-.03 8.4-.1s-2.76-.11-8.02-.12c-4.42-.01-8.2-.02-8.41-.03-.27 0-.37-.04-.37-.16 0-.28.71-.3 7.74-.29 3.69.01 7.15.01 7.69.01l.97-.01-.35-.53c-.97-1.47-1.53-3.96-2.1-9.37-.63-6.01-.87-7.34-1.71-9.27-.82-1.91-.3-3.2 1.76-4.36.45-.25.77-.53 1.03-.88l.38-.52-.69-1.86c-1.3-3.47-1.29-3.27-.34-3.75 2.82-1.41 3.67-1.58 4.13-.81.25.4 1.32 2.84 1.61 3.65l.23.65.47.03.47.03.03-.43c.04-.53.2-.62 1.32-.77.44-.06.82-.14.85-.16.07-.07-.38-.38-.68-.47s-.5.01-.27.14c.24.13.19.28-.09.28-.44 0-.37-.75.08-.84.83-.16 1.97-.52 1.97-.63 0-.34.92-.62 1.02-.31.05.15 1.4.47 2.01.48.33 0 .47.04.47.14 0 .07.3.28.67.46.41.2.93.58 1.3.95.35.33.63.55.63.48 0-.08.2-.22.44-.33.24-.1.47-.23.5-.29.21-.33.5.05.62.79.06.38.11.42.87.82 1.16.6 1.77 1.23 2.36 2.38.4.79.56 1 .95 1.26 1.22.82 1.55 1.82 1.11 3.44-.19.72-.19.7.13.7 2.06.01 3.79 2.07 3.98 4.74.25 3.6-1.48 6.66-5.15 9.09l-.97.65-.23.86c-.27 1.02-.87 2.31-1.42 3.04l-.4.52h8.91c8.83 0 8.9 0 8.9.2s-.07.2-9.11.2c-7.24 0-9.1.03-9.07.13.04.09 1.97.13 9.11.15 8.99.02 9.07.02 9.07.22 0 .13-.07.2-.2.2-.25 0-.25.05.01.46.11.19.19.46.17.61-.03.25-.06.22-.41-.34-.29-.48-.44-.63-.68-.68-.44-.1-.44-.11.38 1.13.68 1.03.74 1.17.71 1.57l-.03.44-.8-1.29c-1.12-1.83-1.11-1.82-1.77-1.88-.77-.06-.77-.06.29 1.88 1.18 2.17 1.12 2.1 1.8 2.1.47 0 .54.03.51.18-.05.22-.97.22-1.31 0-.19-.13-1.76-2.8-2.23-3.8-.16-.34-.21-.38-.56-.38h-.39l.26.43c.69 1.14 1.85 3.37 1.85 3.55 0 .41-1.65.62-2.3.29-.3-.15-2.03-3.56-2.02-3.99.01-.25-.02-.26-.44-.26-.24.01-.44.02-.44.03 0 0 .38.82.85 1.81 1.15 2.42 1.13 2.54-.32 2.54-.93 0-1.32-.19-1.61-.77-.34-.68-1.24-3.24-1.18-3.38.07-.2-.07-.26-.42-.19l-.3.06.29.71c.52 1.25 1.09 2.86 1.09 3.06 0 .71-2.18.73-2.54.02-.29-.54-1.18-3.44-1.13-3.67.04-.22.01-.24-.34-.24-.22 0-.39.01-.39.03 0 .01.24.77.54 1.69.9 2.72.9 2.72-.69 2.66-1.3-.04-1.33-.08-1.69-1.98-.15-.78-.3-1.64-.33-1.91l-.06-.49h-.49c-.44 0-.49.02-.43.18.1.26.63 2.71.7 3.27.1.76-.1.9-1.27.9-1.13 0-1.19-.06-1.43-1.42-.19-1.09-.27-1.25-.51-1.02-.13.14-.14.29-.05 1.05.15 1.33-.02 1.5-1.44 1.42-.92-.04-1.07-.16-1.13-.92-.04-.56-.11-.63-.46-.5-.12.04-.16.2-.16.55 0 .76-.19.89-1.3.89-1.05 0-1.3-.14-1.3-.75 0-.35 0-.35-.45-.35-.44 0-.45.01-.45.33 0 .66-.45.89-1.55.79Zm-19.19-.47c.12-.04 2.04-3.54 2.04-3.72 0-.25-1.12-.32-1.42-.09-.09.07-.52.71-.96 1.42-.43.71-.93 1.52-1.1 1.8-.18.28-.32.56-.32.61 0 .09 1.47.07 1.76-.02Zm3.51-.08c.3-.3 1.65-3.58 1.53-3.72-.21-.25-1.06-.19-1.35.09-.19.19-1.95 3.53-1.95 3.7 0 .18 1.57.12 1.77-.07Zm3.16.14c.37-.14 1.54-3.69 1.29-3.89-.19-.15-1.18-.1-1.34.06-.14.14-1.48 3.44-1.48 3.64 0 .25 1.03.38 1.53.19Zm3.45-.03c.05-.07.18-.49.27-.93.1-.44.3-1.24.45-1.78l.28-.98-.24-.16c-.29-.19-1.08-.13-1.31.1-.13.12-1.23 3.43-1.23 3.68 0 .19 1.63.25 1.78.07Zm3.38.04c.06-.04.2-.49.32-1l.2-.93-.57-.36c-.31-.19-.66-.47-.78-.62-.25-.31-.2-.42-.63 1.36-.18.73-.3 1.4-.26 1.48.06.16 1.49.22 1.72.07Zm3.32 0c.07-.05.15-.31.18-.58l.06-.49-.68-.14c-1.21-.24-1.17-.26-1.27.48-.06.49-.05.66.05.73.17.1 1.49.1 1.66 0Zm3.26.02c.1-.04.16-.18.16-.4 0-.33-.01-.34-.44-.34-.24 0-.64-.03-.9-.06l-.46-.07v.36c0 .5.92.79 1.64.51Zm3.5 0c.11-.04.16-.19.16-.51v-.45l-.37.06c-.21.03-.62.08-.9.12-.58.06-.72.33-.37.68.16.16 1.15.23 1.48.1Zm3.16 0 .32-.07-.07-.61c-.03-.34-.08-.72-.11-.86l-.05-.26-.79.26-.79.25-.01.58c0 .73.4.92 1.5.71Zm3.2 0 .32-.07-.06-.51c-.15-1.16-.66-3.21-.83-3.33-.28-.21-.53-.16-.53.11 0 .13-.16.47-.36.76l-.36.53.17 1.1c.24 1.47.45 1.64 1.65 1.41Zm3.86-.07c.12-.12-1.05-3.62-1.27-3.79-.24-.21-.89-.24-1.07-.06-.29.29.26 3.4.66 3.77.25.22 1.48.29 1.68.08Zm3.08.07c.09-.03.16-.12.16-.19 0-.29-1.22-3.31-1.42-3.52-.27-.29-1.24-.34-1.35-.07-.06.16.91 3.39 1.09 3.61.13.16 1.23.28 1.52.17Zm3.24 0c.31-.09.31-.08-.54-1.93-.84-1.84-.94-1.99-1.47-2.08-1.02-.16-1.05.01-.32 2 .73 1.97 1.14 2.33 2.33 2.01Zm3.62-.04c.13-.08.13-.12-.01-.37-.09-.15-.56-.99-1.04-1.86s-.95-1.61-1.04-1.65c-.33-.13-1.13-.07-1.23.08-.16.25 1.59 3.73 1.92 3.82.39.1 1.23.09 1.4-.02Zm-19.95-1.34c2.26-.38 4.65-1.62 4.65-2.41 0-.26-.28-.73-.46-.77-.12-.02 0-.21.48-.73 1.04-1.14 1.43-1.88 1.93-3.7l.22-.8.8-.57c2.65-1.89 4.27-4.71 4.49-7.86.06-.85.05-.94-.14-1.15-.11-.12-.31-.47-.45-.77-.58-1.31-1.73-1.8-2.92-1.23-.48.23-.57.78-.11.69 1.13-.24 1.62-.16 2.39.35 1.82 1.2 1.1 5.12-1.39 7.63-.9.9-1.59 1.4-1.8 1.28-.14-.08-.04-.18.58-.64 3.65-2.7 4.39-8.38 1.09-8.38-.89 0-1.3.2-1.31.63 0 .16.02.16.3.02 1.81-.94 3.04 1.16 2.16 3.7-.54 1.57-2.03 3.59-2.96 4.02-.32.14-.4.23-.4.45 0 .15-.07.31-.16.36s-.23.43-.35.95c-.4 1.81-1.24 4.04-1.63 4.37-.17.13-.17.12-.01-.25.99-2.26 1.35-3.82 1.6-6.83.38-4.51 1.13-8.81 2.06-11.72.47-1.44.32-2.51-.4-2.9-.18-.09-.18-.08 0 .27.41.8.14 1.81-.66 2.5-3.65 3.19-11.03 3.93-17.23 1.74-4.7-1.66-5.94-2.81-5-4.64l.2-.4-.29.21c-1.42 1.01-1.7 1.94-1 3.38.95 1.95 1.24 3.42 1.92 9.69.62 5.76 1.22 8.19 2.44 9.8.34.45.4.59.31.74-.74 1.39 1.34 2.4 6.45 3.15.61.09 3.73-.03 4.6-.18Zm-1.55-.15c.08-.05.44-.11.8-.14 1.62-.15 3.76-.93 4.65-1.7.51-.45.4-.58-.17-.19-.58.39-1.28.74-1.28.64 0-.14 1.52-1.13 1.68-1.1.92.18-.43 1.38-2.21 1.97-1.41.47-4.11.87-3.47.52Zm-4.15-.42c-2.27-.31-4.22-1.1-4.02-1.63.11-.28.34-.29 1-.02 3.23 1.29 7.71 1.27 10.45-.04 1.25-.6 1.55-.53.79.17-1.3 1.2-5.22 1.93-8.22 1.52Zm1.3-1.15c-1.94-.23-4.32-.78-4.39-1.02-.03-.09-.35-.39-.72-.66-1.91-1.41-2.39-2.84-3.04-9.01-.35-3.34-.8-6.28-1.36-8.9-.19-.92-.3-1.63-.25-1.68.11-.11.27.35.46 1.38.09.44.19.82.23.85.3.25.82.6.82.57s-.18-.57-.39-1.21c-.37-1.09-.4-1.45-.07-.94.16.26.76 2.02.76 2.24 0 .21 2.2 1.07 2.35.92.03-.03-.03-.4-.13-.82-.11-.42-.16-.73-.1-.7.12.08.28.48.42 1.08.11.47.37.78.52.64.03-.04-.08-.55-.24-1.15-.17-.59-.28-1.1-.26-1.12.12-.12.29.28.58 1.31l.32 1.13.88.18c1.04.22.99.25.86-.54-.13-.82-.13-1.36 0-1.23.05.05.12.43.16.84.11 1.2.07 1.16 1.26 1.31 2.32.3 5.32.1 7.77-.52 1.38-.34 1.29-.26 1.37-1.27.09-1.07.24-1.06.24.02v.85l.71-.29c1.56-.65 2.45-1.39 3.06-2.56.24-.47.49-.72.59-.61.02.02-.1.57-.25 1.23-.97 3.97-1.57 7.16-2.16 11.29-.73 5.14-.95 5.8-2.21 6.75-1.64 1.23-5.06 1.95-7.79 1.64Zm4.67-1.12c1.93-.5 3.3-1.36 4.04-2.54.42-.67.26-.64-.45.07-1.49 1.5-3.34 2.18-6.29 2.31-1.78.08-2.16-.09-.56-.25 3.11-.31 4.31-.85 5.53-2.49.27-.37.78-.91 1.12-1.21.95-.84 1.04-1.11.99-3.06-.14-5.07-.06-6.16.64-8.55.28-.97.27-.99-.11-.73-.15.11-.57.32-.93.46s-.66.32-.67.39-.12 1.71-.23 3.63c-.4 6.71-.9 8.59-2.69 10.08-.59.49-.55.28.08-.38 1.22-1.3 1.74-2.86 2.05-6.05.14-1.41.46-6.39.46-7.01v-.25l-.9.22c-2.16.55-4.87.75-7.15.54-.77-.08-1.56-.14-1.75-.14-.19-.01-.37-.03-.4-.06s-.47-.15-.97-.26l-.92-.2.04.2c.17.78.35 4.09.21 3.95-.02-.02-.11-.65-.2-1.39-.3-2.45-.37-2.9-.52-2.9-.1 0-.12.22-.07 1.08.03.59.02 1.04-.02 1-.05-.05-.34-1.76-.35-2.1 0-.03-.3-.16-.68-.29-.37-.12-.87-.31-1.11-.41-.55-.23-.54-.24-.37.53.27 1.16.81 4.96 1.26 8.84.44 3.79.98 5.14 2.41 6 .69.42.73.5.22.4-1.03-.19-2.02-1.09-2.52-2.29-.46-1.11-.56-1.75-1.02-6.91-.23-2.61-.39-3.77-.74-5.52-.14-.67-.25-1.31-.25-1.41 0-.18-.57-.68-.67-.59-.02.03.05.47.16.99.28 1.31.56 3.38.91 6.63.88 8.17 1.54 9.09 7.25 9.99 1.04.16 4.02-.02 5.17-.32Zm-2.42-2.03c.37-.68.68-1.6.85-2.52l.13-.72.01.55c.01.94-.57 2.58-1.09 3.05-.15.14-.13.06.1-.36Zm5.3-2.7c0-.13.09-1.07.2-2.09.1-1.02.24-2.55.31-3.4.13-1.75.22-2.18.34-1.56.1.5-.01 2.2-.26 4.2-.26 2.06-.59 3.66-.59 2.85Zm4.97-4.01c2.6-2.46 3.21-6.68.96-6.68-.92 0-1.06.34-1.43 3.24-.55 4.41-.55 4.39.47 3.44Zm-1.58-6.63c.27-1.32.52-2.49.56-2.6s-.15.03-.43.32-.53.65-.56.8c-.36 1.79-.76 5.7-.75 7.25l.01 1.13.34-2.25c.19-1.24.56-3.33.83-4.65ZM40.05 31c1.47-2.44 1.57-6.04.22-7.86-.65-.87-2.4-1.74-3.01-1.51-.33.13-.14.24.47.29 3.49.28 4.28 6.04 1.4 10.23l-.34.5.39-.43c.22-.24.6-.79.87-1.22Zm.01-6.36c-.19-1.42-1.45-2.56-2.63-2.39-.45.07-.43.03-.69 1.09-.06.27-.05.29.17.22 1.3-.37 2.79.26 3.05 1.31.1.4.17.25.1-.23Zm-10.97-1.9c2.74-.4 6.21-2.23 6.86-3.61.22-.46.15-1.14-.19-1.82-.33-.64-.52-.76-.25-.16 1.8 4.07-7.64 6.9-15.5 4.63-3.92-1.12-5.69-2.45-5.59-4.17.04-.72.04-.72-.22-.21-.24.46-.26 1.19-.05 1.59.77 1.5 5.63 3.44 9.65 3.84 1.08.11 4.31.06 5.29-.09Zm.16-.69c4.31-.8 6.8-2.74 6.05-4.71-.14-.35-.18-.29-.26.37-.14 1.24-.6 1.74-2.44 2.63-4.94 2.39-12.38 1.86-16.52-1.19-.89-.65-1.19-1.72-.74-2.6.29-.57.33-.77.11-.69-.59.23-.95 2.06-.55 2.83.66 1.31 4.46 2.96 8 3.46 1.31.19 5.12.13 6.35-.1Zm-.8-.8c2.21-.34 3.6-.86 4.76-1.8.38-.31.69-.6.69-.65 0-.23-.52-.22-.98.02-.98.53-1.42.43-.48-.1.47-.27.53-.34.49-.57a.53.53 0 0 1 .1-.43c.17-.2.77-1.37.77-1.51 0-.06-.19.1-.42.36-.87.94-2.26 1.57-3.79 1.69-.82.07-.9.12-.62.39.37.37 1.06.42 1.34.09.21-.26.49-.17.49.15 0 .61-.88 1.21-1.78 1.21-.99 0-1.68-.91-1.28-1.71.21-.41.19-.42-.53-.34-.58.07-.91.35-.42.35.11 0 .22.04.25.09.15.23-2.86.28-4.42.06-2.12-.3-2.45-.54-1.43-1.09l.53-.29-.06-.45c-.03-.24-.06-.53-.06-.63 0-.11-.07-.19-.15-.19-.18 0-.19.02-.01.45l.15.35-1.07.63c-1.15.68-1.59.87-2.04.87-.52 0-1.66.51-1.71.77-.05.29 0 .33 1.14.88l.94.45.33-.36c.28-.29.33-.42.3-.72l-.03-.37.53-.03c.63-.04.85.1.8.49-.03.2.01.3.16.38l.21.1h-.21c-.13.01-.31.16-.48.41-.14.22-.34.4-.44.41-.61.02 2.27.62 3.78.78 1.09.12 3.37.05 4.65-.14Zm-8.35-1.37c.26-.44.26-.78 0-.78-.14 0-.2.07-.2.24 0 .13-.09.35-.2.48-.1.14-.16.28-.13.32.14.14.34.04.53-.26Zm9.87-.41c.03-.04-.25-.07-.64-.07-.74 0-1.17-.22-.92-.47.13-.13-.07-.57-.22-.48-.36.23.09 1.09.61 1.17.3.04 1.07-.06 1.17-.15Zm-12.88-1.16c.12-.08.07-.28-.29-1.21l-.44-1.13.23-.18c.13-.11.35-.22.5-.25 1.19-.29 3.05-1.27 3.09-1.65.05-.39-1.44-4.21-1.92-4.94l-.16-.24-.64.24c-.35.13-1.04.4-1.52.6-.48.19-.98.35-1.1.35-.21 0-.94.26-.94.34 0 .07.87 2.48 1.7 4.71.45 1.21.91 2.48 1.02 2.83.21.64.24.68.47.53Zm9.04-.33c-.08-.75-.02-.71-1.18-.64-.83.06-1.06.05-1.1-.06-.03-.1-.45-3.63-.45-3.83 0-.03-.09-.05-.21-.05-.17 0-.2.04-.15.24.12.5.47 3.49.42 3.62-.19.5-.29.17-.57-1.96-.3-2.25-.31-2.13.11-2.16 1.54-.12 2.65-.4 2.68-.68l.03-.28-.63.07c-1.79.2-2.83.4-2.81.55.43 3.67.55 5.02.44 5.13-.15.15-.31-.07-.31-.44 0-.14-.12-1.22-.26-2.4-.14-1.17-.23-2.22-.2-2.32.03-.13 0-.17-.12-.15-.13.03-.17.14-.15.48.05 1 .46 4.96.53 5.03.14.15 1.05.25 2.52.26l1.46.01zm8.32.22c.03-.11.07-.35.07-.52 0-.18.05-.41.1-.5.07-.15.04-.18-.22-.18-.34 0-.35.02-.18.3.23.37-.01.76-.45.72-.46-.04-.47.04-.04.22.45.2.65.19.72-.04Zm-18.52-.31c.22-.39.21-.57-.02-1.1l-.2-.43-.12.29c-.13.32-.16 1.25-.05 1.44.11.18.2.13.39-.2Zm1.9.14c.03-.05-.12-.44-.33-.88-.43-.92-.43-.9.1-.99.59-.09 2.6-.97 2.53-1.1-.04-.07-.02-.08.05-.01.19.18.28.73.1.57-.12-.1-.26-.07-.74.14-.32.15-.88.37-1.24.5-.73.26-.72.24-.34 1.1l.25.57.44-.06c.38-.04 1.44-.59 2.43-1.25.2-.14-.58-2.17-.81-2.09-.07.03-.11.09-.1.16.06.24-2.47 1.25-2.94 1.18-.63-.11-.62-.04.18 2.01.08.21.33.3.42.15Zm12.25-.12c3.09-.64 4.4-2.61 2.61-3.91l-.42-.3-.18.39c-.19.44-.44.61-.87.61-.27 0-.3.04-.42.58-.25 1.12-.93 2.13-1.7 2.47-.84.38-.43.45.98.16Zm-6.92 0c.13-.15 1.81-.29 2.38-.21l.41.06-.4.07c-.83.15-2.51.2-2.39.08Zm5.3-.37c.72-.2 1.49-1.06 1.78-2.01.07-.21.04-.23-.34-.23-.49 0-.96-.19-1.32-.53-.52-.49-.26-.68.92-.71l.55-.01-.03-.44c-.03-.56-.45-1.34-.92-1.72-.72-.6-1.82-.96-1.66-.54.14.38-.6.47-1.14.13-.34-.21-.92-.33-2.15-.43l-.6-.05.43.2c.51.23.54.34.08.28-.3-.03-.32-.02-.22.15s.19.18.88.12c1.36-.11 1.44 0 1.59 2.13.16 2.21.04 2.08 1.44 1.72.43-.11.8-.18.83-.15.1.1-1.08.56-1.57.62-.54.06-.74.33-.25.33.35 0 1.41-.28 1.77-.46.48-.25.54-.09.07.18-.42.24-1.14.49-1.84.63-.19.04-.26.09-.19.16.14.14 1.2-.06 2-.38.78-.31.89-.25.3.16-.55.38-1.28.67-1.9.76-.31.05-.47.12-.47.22 0 .17 1.13.1 1.96-.13ZM26 17.07c0-.06-.07-.98-.15-2.02s-.15-1.93-.15-1.97c0-.05-.07-.08-.15-.08-.19 0-.22 3.16-.03 3.71.14.43.48.69.48.36Zm8.74-.69c.22-.31.2-.54-.09-1.03-.19-.33-.95-1.07-.95-.93 0 .02.11.25.25.51.13.27.27.75.31 1.08.07.64.22.75.48.37Zm-18.63-1.26c-.59-1.27-1.88-4.78-1.79-4.87.17-.19.43.34 1.36 2.8 1.01 2.67.97 2.55.79 2.55-.08 0-.23-.21-.36-.48Zm5.33-.09c-.08-.72-.09-.73-.45-.73-.35 0-.35-.05-.03.69.35.81.58.83.48.04Zm-5.18-1.65c-.33-.84-.72-1.8-.87-2.13-.26-.56-.25-.86 0-.7.27.16 1.55 3.19 1.67 3.95.14.9-.21.4-.8-1.12Zm1.25 1.1c-.39-1.01-1.27-3.11-1.47-3.5-.13-.26-.24-.51-.24-.56 0-.2 2.18-1.08 2.33-.93.09.09 1.67 4 1.67 4.14 0 .07-2.03 1.07-2.16 1.07-.03 0-.08-.1-.13-.22Zm13.99-.38c.19-.19.3-1.36.14-1.52-.21-.21-.61.18-.7.69-.12.64.08.54.38-.2l.17-.42v.47c.01.36-.05.53-.24.76-.38.45-.17.64.25.22Zm-13.07-.62c.61-.2.89-.4.75-.53-.07-.07-1.52.52-1.56.64-.05.15.02.14.81-.11Zm8.49-.18c-.73-.18-.61-.33.2-.25.49.04.78.03.78-.03 0-.14-.25-.22-.67-.22s-.41-.23.01-.28c.49-.06 1.22.37.99.59-.22.22-.85.31-1.31.19Zm-8.67-.44c.77-.28.77-.28.69-.49s-1.57.31-1.62.57c-.05.22.15.2.93-.08Zm-.29-.66c.64-.22.8-.33.7-.49-.04-.06-.17-.06-.39.03-.17.07-.53.21-.8.3-.88.33-.43.47.49.16Zm.01-.71c.34-.13.5-.25.47-.33-.05-.12-1.42.29-1.61.48-.14.14.1.24.35.15.15-.06.5-.2.79-.3Zm-.38-.55c.48-.18.68-.3.64-.39-.04-.11-.22-.08-.85.16-.43.16-.82.29-.84.29-.03 0-.02.05.01.1.09.15.27.12 1.04-.16Zm-.27-.61c.38-.14.68-.32.68-.4 0-.18-.1-.17-.67.08-.26.11-.63.27-.81.35-.33.13-.36.41-.03.29.09-.03.46-.18.83-.32Zm6.66-2.24c-1.02-.15-1.58-.57-1.58-1.2 0-.37-.01-.38-.51-.48-.7-.15-1.43-.48-1.7-.77l-.22-.24H9.98C.54 5.4 0 5.39 0 5.22c0-.16.53-.17 9.88-.17h9.87l.03-.24.04-.24-9.91.07C.18 4.71 0 4.71 0 4.52c0-.26 2.16-.32 12.05-.32h7.7l-.03-.95-.03-.94-.32-.05c-.18-.03-.95-.13-1.72-.21-2.16-.25-2.59-.44-3.23-1.41-.37-.56-.39-.64-.12-.64.11 0 .2.04.2.09 0 .23 1.03 1.21 1.43 1.35 1.51.55 14.29.99 16.56.57.02-.01.01-.07-.02-.14-.04-.1.11-.19.47-.3.66-.21 1.24-.64 1.56-1.16.27-.44.56-.56.45-.18-.16.53-1.16 1.46-1.59 1.47-.11 0-.16.03-.13.06.29.29 1.89-.78 2.17-1.46.1-.24.19-.3.41-.3h.29l-.2.4c-.7 1.38-2.45 2-5.62 2h-.58v.48c0 .26-.03.64-.06.85l-.07.37h10.82c10.74 0 10.81 0 10.81.2s-.08.2-10.77.22l-10.78.03-.03.24-.04.24 10.81-.06 10.81-.05v.48H40.28c-10.54 0-10.93.01-11.12.19-.29.26-.92.57-1.46.71-.25.06-.52.13-.61.16-.11.03-.18.2-.22.5-.1.94-1.23 1.38-2.89 1.13Zm.82-.79c0-.43-.03-.5-.19-.5-.11 0-.26-.03-.35-.06-.13-.05-.16.02-.16.44 0 .52.06.6.48.61.2.01.22-.04.22-.49Zm.8-.11c0-.49-.04-.54-.34-.43-.31.12-.22 1.02.09.96.23-.04.25-.09.25-.53Zm-1.9-.04c0-.25-.04-.45-.09-.45s-.23-.03-.4-.06c-.49-.1-.39.65.12.86.35.14.37.12.37-.35Zm1.1-1.2V5.5h-.44c-.24 0-.97-.09-1.61-.2s-1.19-.2-1.21-.2-.04.2-.04.44v.45l.73.15c1.01.21 1.13.23 1.89.25l.68.01zm1.04.29c.19-.49.08-.74-.34-.74h-.4v.45c0 .44 0 .45.34.45.22 0 .36-.06.4-.16Zm.94-.1c.07-.02.12-.2.12-.42 0-.38 0-.38-.35-.34-.31.04-.35.08-.35.32 0 .16-.03.36-.06.45-.06.16.11.16.64-.01Zm.8-.2c.39-.11.32-.82-.08-.76-.27.04-.3.08-.3.43 0 .41.02.42.38.33Zm-6.38-.52c0-.35-.24-.62-.55-.62-.17 0-.02.71.17.84.33.23.38.2.38-.22Zm7.31.18c.36-.2.26-.82-.11-.69-.25.09-.3.16-.3.45 0 .36.09.41.41.24Zm-3.67-.77c.03-.21.06-.81.06-1.34 0-1.07-.01-1.09-.66-1.09h-.34v1.34c0 1.45 0 1.44.56 1.45.29.01.32-.02.38-.36ZM23.6 3.75V2.4h-.7v1.29c0 1.41-.03 1.33.58 1.4.09.01.12-.32.12-1.34Zm2.38.03c.02-1.17.01-1.28-.15-1.28-.1 0-.28-.03-.4-.06l-.23-.06v2.73l.38-.03.37-.03zm.86 1.1c.03-.07.07-.64.09-1.26l.06-1.12h-.28c-.33 0-.41.33-.41 1.71 0 .78 0 .79.25.79.14 0 .27-.06.29-.12ZM22.6 3.65V2.4h-.5v2.5h.5zm-.82-.03c-.02-1.21-.05-1.32-.46-1.32-.22 0-.23.01-.2 1.17.03 1.25.03 1.24.61 1.32.04.01.06-.52.05-1.17Zm5.94.68c.17-1.12.1-1.8-.17-1.8-.22 0-.25.04-.25.38 0 .22-.03.74-.07 1.16l-.06.78.24-.04c.2-.02.25-.1.31-.48Zm.62.24c.27-.1.23-2.04-.04-2.04-.18 0-.2.07-.2.68 0 .37-.03.84-.06 1.05-.07.38-.01.43.3.31Zm-7.54-.46c0-1.1-.12-1.78-.31-1.78-.17 0-.19.09-.19 1.04 0 1.08 0 1.08.43 1.15.04 0 .07-.18.07-.41Zm8.38.15c.25-.48.21-1.83-.04-1.83-.24 0-.24.01-.24 1 0 .96.08 1.21.28.83ZM16.73 1.51C16.13 1.41 15 .48 15 .09c0-.22.3-.05.55.31.26.37 1.29 1 1.63 1 .06 0 .14.05.17.1.07.11.01.11-.62.01Z"/></svg>