<svg xmlns="http://www.w3.org/2000/svg" width="51" height="51" viewBox="0 0 51 51"><path fill="#fff" fill-rule="evenodd" stroke="#fff" stroke-width=".445" d="M9.85 41.05c-1.06-.37-1.31-1.12-1.1-3.37.08-.9.33-4.33.55-7.63.34-5.11.73-10.53.96-13.45.09-1.08.21-1.46.61-1.9.51-.58.69-.6 4.54-.6h3.46l.06-.98c.26-4.06 3.13-6.84 7.07-6.85 3.98-.01 7 3.12 7 7.24v.59h3.2c3.48 0 3.61.02 4.12.56.37.4.46.68.58 1.91.06.59.17 1.62.25 2.28s.33 3.02.55 5.25.58 5.74.8 7.8c.68 6.4.7 6.63.7 7.29 0 .81-.29 1.35-.92 1.71l-.43.25-15.8.02c-13.39.02-15.86 0-16.2-.12Zm32.21-.35c.45-.22.71-.53.85-1.04.09-.3.02-1.01-.96-10.21-.13-1.26-.36-3.47-.5-4.9s-.39-3.86-.55-5.4c-.17-1.54-.33-3.04-.36-3.33-.04-.36-.14-.62-.31-.82-.52-.63-.56-.63-4.21-.68l-3.32-.04v-.7c0-4.07-2.78-7-6.65-7.02-3.9-.01-6.61 2.64-6.84 6.69l-.06 1.1-3.75.05c-4.87.06-4.68-.04-4.89 2.7-.19 2.39-.48 6.58-.81 11.35-.38 5.69-.57 8.3-.71 9.74-.16 1.54.07 2.23.85 2.57.6.26 31.68.2 32.22-.06ZM16.8 37.06v-1.54l.3-.07c.44-.1.6.08.6.66v.49h1.09l.03-.58.03-.57h.8v3.1h-.8l-.03-.57-.03-.58h-1.08l-.03.58-.03.57-.42.03-.43.03zm4.09 1.4c-.74-.42-.95-2.96-.26-3.04.49-.06.57.1.57 1.17 0 1.06.07 1.21.51 1.21.46 0 .59-.31.59-1.36 0-.99.13-1.17.71-.99.41.13.21 2.37-.25 2.84-.32.32-1.43.41-1.87.17Zm2.31.02c.01-.07.33-.78.73-1.58 1.03-2.08 1.11-2.07 2.12.2.67 1.51.67 1.5.11 1.5-.39 0-.45-.03-.56-.3-.19-.46-1.16-.46-1.42 0-.18.32-.99.46-.98.18Zm4.06.03c-.15-.24-.96-2.67-.96-2.87 0-.21.05-.24.34-.24.41 0 .48.08.75.93.13.37.24.67.25.67.02 0 .16-.34.32-.75.45-1.17.89-1.19 1.25-.06.28.87.29.87.59.05.27-.7.45-.87.88-.82.36.04.34.19-.3 1.81-.7 1.75-1.04 1.86-1.49.49-.3-.92-.32-.92-.58-.1-.13.4-.28.79-.33.86-.12.14-.64.16-.72.03Zm4.01.03c-.13-.13-.08-2.89.05-3.02.19-.19 2.22-.16 2.38.03.34.41.05.65-.8.65-.64 0-.8.03-.8.15 0 .11.11.15.39.15.59 0 .71.08.71.45 0 .34-.21.45-.86.45-.17 0-.24.06-.24.2 0 .18.07.2.86.2h.85l-.03.38-.03.37-1.21.03c-.66.01-1.23-.01-1.27-.04Zm3.05-1.51.03-1.58.31-.03c.5-.05.55.1.52 1.69l-.03 1.44-.43.03-.43.03zM22.6 38.05c.36-.36.45-2.35.11-2.35-.2 0-.21.05-.21.93 0 1.19-.11 1.37-.8 1.37s-.8-.18-.8-1.37c0-.86-.01-.93-.2-.93-.26 0-.3 1.48-.05 2.06.28.67 1.4.83 1.95.29Zm7.09.18c.44-.85.98-2.54.79-2.51-.15.02-.29.25-.56.96-.37.96-.46 1.07-.57.7-.53-1.89-.77-2.06-1.23-.86-.53 1.37-.49 1.37-.92.03-.21-.65-.3-.81-.48-.83l-.22-.03.18.48c.11.26.32.85.47 1.31.38 1.16.56 1.12.99-.16.42-1.26.41-1.26 1.1.61.19.5.3.58.45.3Zm-12.27-.5.03-.58h1.6l.03.58c.02.42.07.57.17.57.12 0 .15-.23.15-1.3 0-1.09-.02-1.3-.15-1.3-.12 0-.15.13-.15.55 0 .64-.07.68-1.05.63l-.6-.03-.03-.58c-.03-.49-.06-.57-.22-.57-.19 0-.2.08-.2 1.3s.01 1.3.2 1.3c.16 0 .19-.08.22-.57Zm6.63.27c.15-.29.18-.3.85-.3s.7.01.85.3c.09.17.24.3.34.3.17 0 .13-.15-.37-1.3-.73-1.69-.82-1.71-1.42-.32-.23.53-.51 1.12-.62 1.3-.2.32-.2.32.01.32.13 0 .26-.11.36-.3Zm9.55.2c0-.13-.09-.14-.95-.14l-.7-.01-.03-.47-.03-.48h.55c.43 0 .56-.03.56-.15s-.13-.15-.56-.15h-.55l.03-.42.03-.43.78-.03c1.13-.04.95-.22-.23-.22h-1v2.6h1.05c.63 0 1.05-.04 1.05-.1Zm1.3-1.2c0-1.23-.01-1.3-.2-1.3s-.2.07-.2 1.3.01 1.3.2 1.3.2-.07.2-1.3Zm-10.5.35c0-.24.5-1.16.59-1.1.12.07.51.92.51 1.1 0 .12-.13.15-.55.15-.43 0-.55-.03-.55-.15Zm-4.6-3.92c-.46-.23-1.28-1.07-1.36-1.4-.1-.37.07-.43 1.41-.44.66 0 1.58-.04 2.05-.08l.85-.08-.97-.01c-2.79-.05-4.03-.59-4.73-2.09-.46-.97-.47-2.43-.02-2.43.35 0 4.4 2.22 6.59 3.62.8.51.94.73.56.87l-.22.08.22.05c.34.09.18.33-.52.77-1.95 1.23-3.04 1.55-3.86 1.14Zm10.08-.21c-1.63-.85-2.48-1.53-2.17-1.73.12-.08.11-.11-.04-.2-.36-.21.38-.73 3.59-2.55 4.01-2.26 4.03-2.26 3.92-.65-.15 2.12-1.5 3.19-4.02 3.22-.45 0-1.01.04-1.26.08-.55.08.82.21 2.31.21 1.54 0 1.66.21.67 1.2-.91.91-1.81 1.04-3 .42Zm-8.31-.09c.51-.23 2.21-1.22 2.27-1.32.03-.04-.27-.06-.67-.04-.4.03-1.59.07-2.66.11l-1.94.07.49.52c.85.9 1.56 1.09 2.51.66Zm10.6-.08c.34-.21 1.03-.92 1.03-1.07 0-.03-.89-.08-1.97-.12-1.09-.03-2.27-.09-2.63-.12-.78-.06-.76-.04.67.82 1.51.92 2.01 1 2.9.49Zm-8.23-1.92c.07-.08-.23-.27-2.36-1.51-2.1-1.23-4.3-2.42-4.46-2.42-.24 0-.11 1.45.18 2.05.59 1.22 1.55 1.71 3.61 1.84 1.55.11 2.94.12 3.03.04Zm7.67-.13c1.71-.13 2.5-.59 2.99-1.72.38-.88.47-2.08.16-2.08-.4 0-6.85 3.78-6.66 3.9.13.08 1.72.04 3.51-.1Zm-4.41-.5c-.51-.33 4.52-8.2 5.25-8.2.51 0 1.37 1.29 1.57 2.37.33 1.76-1.2 3.22-5.79 5.52-.94.47-.84.44-1.03.31Zm-2.65-.14c-1.65-.72-4.88-2.78-5.59-3.57-.94-1.05-.87-2.53.18-3.81.78-.97.91-.89 2.7 1.73 1.34 1.95 1.34 1.94.61.34-1.21-2.65-.63-4.58 1.51-5.06 1.08-.24 1.4.4 1.9 3.86.07.49.07.47.25-.7.18-1.25.57-2.64.84-3.03.48-.67 2.54.29 3.06 1.43.26.55.25 1.58-.02 2.38-.41 1.24-2.49 5.01-3.3 5.97-.4.48-.43.38-.6-1.53-.07-.89-.15-1.53-.16-1.42-.02.11-.09.84-.17 1.63-.07.78-.16 1.45-.2 1.5-.08.07-.5-.35-.94-.93-.19-.24-.17-.18.08.32.45.93.42 1.14-.15.89Zm4.6-.99c3.7-1.98 4.8-3.07 4.62-4.59-.11-.94-1-2.3-1.4-2.15-.3.11-2.24 2.83-3.29 4.61-.4.66-1.42 2.56-1.51 2.78-.08.23 0 .19 1.58-.65Zm-5.17-.69c-.94-1.83-3.79-6.08-4.08-6.08-.16 0-.83.84-1.06 1.34-.67 1.43-.17 2.55 1.7 3.81.79.53 3.93 2.33 4.09 2.34.04.01-.25-.63-.65-1.41Zm1.61-1.53c.22-3.44-.41-6.95-1.24-6.95-1.45 0-2.53 1.49-2.24 3.07.2 1.08 1.67 4.15 2.68 5.58l.56.8.07-.5c.04-.28.11-1.17.17-2Zm1.9 1.06c2.87-4.51 3.15-6.76.96-7.77-1.12-.52-1.43-.3-1.8 1.3-.52 2.24-.57 4.25-.18 7.46l.05.45.21-.3c.12-.16.46-.67.76-1.14Zm-8.37-10.22c-1.02-.51-1.22-2.21-.33-2.69.37-.19.41-.12.41.65 0 .83.18 1.15.64 1.15.43 0 .66-.43.66-1.21 0-.83.21-.93.66-.34 1.03 1.36-.51 3.2-2.04 2.44Zm12.33.07c-.86-.39-1.28-1.41-.89-2.19.51-1 .95-.93.87.13-.08.94.58 1.46 1.06.84.17-.21.21-.41.21-.95 0-.95.36-.96.84-.02.63 1.25-.8 2.76-2.09 2.19Zm-10.96-.32c.64-.38.89-1.2.56-1.84-.24-.46-.35-.36-.35.31 0 .95-.57 1.42-1.29 1.04-.35-.18-.43-.34-.5-1.1l-.06-.6-.18.32c-.63 1.18.69 2.54 1.82 1.87Zm12.17 0c.68-.33.95-1.25.54-1.91-.27-.44-.34-.41-.26.11.17 1.13-.8 1.85-1.52 1.13-.24-.25-.27-.34-.26-.92.02-.75.01-.76-.26-.32-.7 1.14.53 2.49 1.76 1.91Zm-12.04-3.41c-.4-.16-.06-2.7.51-3.77 2.71-5.13 10.47-2.91 10.25 2.94l-.03.85-5.3.02c-2.91.01-5.36-.01-5.43-.04Zm10.52-.62c.15-.96-.25-2.49-.91-3.48-2.33-3.51-7.98-2.71-9.22 1.31-.2.65-.38 2.27-.27 2.45.05.08 1.62.11 5.2.11h5.13z"/></svg>