<svg xmlns="http://www.w3.org/2000/svg" width="51" height="51" viewBox="0 0 51 51"><path fill="#fff" fill-rule="evenodd" stroke="#fff" stroke-width=".487" d="M25.45 50.9c-.03-.05-.06-1.58-.05-3.39v-3.28l-.27-.06c-.9-.19-1.79-1.3-1.76-2.2.03-.76.84-1.75 1.63-1.98l.4-.12v-2.15c0-2-.01-2.14-.17-2.09-1.06.35-2.04.61-2.83.74-.52.09-.96.17-.97.18-.02.01.13.4.32.88.38.93.8 2.36.72 2.43-.03.03-.13-.19-.22-.48-.1-.29-.23-.66-.3-.83-.07-.16-.28-.68-.46-1.15-.34-.86-.51-.88-.3-.05.14.58.13.77-.04.41l-.13-.3-.22.45c-.37.72-.59.99-1.24 1.46-.49.36-.67.58-.92 1.09-.27.55-.32.62-.37.42q-.06-.225.15-.45c.12-.13.19-.25.16-.28-.1-.11-5.41 2.56-5.97 3-.32.25-.68.45-.82.45-.26 0-1.78.56-1.94.71-.05.05-.28.09-.51.09-.92 0-3.18 2.22-4.25 4.17-.67 1.22-1.28 2.15-1.39 2.08-.16-.1-.11-.33.13-.57.12-.13.51-.74.85-1.35 1.24-2.23 3.56-4.63 4.47-4.63.18 0 .83-.2 1.45-.45s1.16-.42 1.21-.39.37-.16.72-.42c.34-.25 1.6-.94 2.8-1.52 1.63-.8 2.17-1.1 2.17-1.24 0-.2.16-.25.22-.06.25.73.43-1.13.24-2.37l-.13-.9-.02.66c-.03 1.96-1.23 3.39-2.83 3.39-.31 0-.6-.04-.63-.1-.04-.06.15-.1.5-.1.62 0 .67-.05.8-.93.05-.35.04-.47-.05-.47-.1 0-.1-.03 0-.15.29-.35-.19-1.94-1.39-4.58-.44-.98-.88-2.05-.96-2.37-.16-.63-.2-2.9-.05-3.25.05-.12.09.34.09 1.24.01 1.77.1 2.14 1.01 4.11 1.58 3.44 1.89 4.76 1.4 6.05l-.1.25.39-.19c1.27-.65 1.82-2.42 1.32-4.25-.3-1.07-.68-1.86-2.06-4.25-1.18-2.06-1.62-2.96-2.06-4.26l-.23-.7-.12 1.05c-.37 3.15-.19 4.31 1.06 6.91.74 1.52 1.05 2.29.94 2.29-.17 0-2.07-4.11-2.29-4.95l-.12-.5-.13.6c-.16.75.02 4.42.25 5.29.05.18.04.19-.05.04-.06-.09-.15-.52-.2-.95s-.14-1.16-.2-1.63c-.15-1.26-.12-2.1.1-3.11.19-.83.19-.94.05-1.35-.23-.68-.06-4.86.18-4.47.04.06.03.62-.03 1.25-.05.62-.09 1.58-.09 2.13l.02 1 .09-.9c.04-.49.15-1.41.23-2.03.14-1.09.14-1.16-.08-2-.29-1.14-.31-6.07-.03-8.04.5-3.54 1.67-5.97 3.82-7.95 1.05-.96 1.14-1.15.27-.58-1.47.97-2.08 1.71-2.98 3.6-.87 1.82-1.18 2.69-1.46 4.2-.25 1.34-.28 6.31-.05 7.85.03.22-.01.14-.11-.2-.14-.46-.17-1.04-.17-3.7 0-4.08.16-5.01 1.25-7.43.5-1.12.57-1.33.38-1.21-.51.31.77-2.02 1.51-2.76 1.02-1.03 1.27-1.05.3-.04-.54.57-.98 1.15-1.21 1.59-.55 1.05-.57 1.31-.03.4.59-1 1.45-1.86 2.57-2.59.73-.48.9-.64 1.07-1.03.11-.26.35-.65.54-.87.18-.23.38-.5.44-.61s.12-.14.12-.07c0 .28.26.09.45-.33.15-.35.24-.44.37-.39.1.03.18.02.18-.03 0-.17.96-1.07 1.54-1.44.66-.43.66-.45.07-.24-.25.08-.41.1-.41.04 0-.19 1.04-.58 1.91-.72.66-.11.97-.21 1.35-.47.45-.3.47-.31.25-.07l-.24.27h1.13V1.41c0-1.08.03-1.3.16-1.35.43-.16.44-.12.44 1.3v1.36l2.43-.04c2.83-.05 4.67-.36 6.62-1.13.19-.07.19-.07.03.1-.1.11-.92.37-2.23.7-2.14.54-2.26.61-1.28.71.96.1 3.53-.58 3.53-.93 0-.07.12-.25.28-.41.15-.15.22-.21.16-.13-.45.62.09.68.99.12.73-.45 2.41-.09 3.22.69.27.26 1.39.9 1.58.9.04 0-.06-.2-.23-.45-.61-.89-1.87-1.51-3.37-1.66-1.42-.15-1.58-.29-.28-.24.66.02 1.28.1 1.54.19.24.09.46.14.48.12.03-.03-.33-.17-.79-.32-1.14-.37-2.15-.42-2.93-.16-.74.25-.85.2-.19-.1 1.19-.52 2.59-.31 4.69.72.66.32 1.39.64 1.63.7.23.06.42.12.42.14 0 .09-.79-.03-1.05-.16-.4-.21-1.05-.48-1.05-.44 0 .02.18.15.4.3.22.14.4.33.4.41 0 .09.06.18.14.21.07.03.26.29.41.57.16.29.42.68.59.88s.44.53.6.74c.26.34 1.15 1 1.23.91.02-.02-.13-.31-.33-.66-.19-.34-.34-.64-.31-.67.03-.02.24.27.47.65.49.84.63.97 1.15 1.11.9.25.74.36-.21.14l-.21-.05.23.82c.4 1.37.6 3.5.36 3.86-.04.07-.07-.38-.08-1-.01-1.07-.33-2.79-.66-3.52-.09-.19-1.03-.84-1.22-.84-.03 0 .08.29.25.65.37.83.55 1.84.43 2.5-.08.48-.08.47-.14-.5-.05-.73-.14-1.18-.32-1.65-.15-.36-.29-.75-.32-.87-.04-.11-.14-.27-.23-.35-.14-.12-.15-.11-.05.07.44.84.76 3.23.53 4.05-.06.2.03.34.59.9.73.72 1.1 1.36 1.36 2.4.16.61.22.71.55.9 1.28.71 2.11 1.63 2.49 2.75.45 1.3.35 3.27-.21 4.05-.37.5-.38.46.26.53.89.09.91.22.02.19l-.82-.04-.53.56c-.29.31-.68.64-.85.74l-.32.17.48.03c.63.04.61.22-.03.22h-.5l.33.43c.17.23.45.71.61 1.07s.51.88.78 1.17c.91.98 1.13 2.11.69 3.54-.41 1.35-.5 2.08-.54 4.49-.03 1.66-.69 2.85-1.9 3.44-.9.44-4.5 1.25-4.7 1.06-.05-.04.18-.1.5-.14 3.8-.43 5.8-1.79 5.9-4.01l.03-.8-.23.6c-.88 2.27-2.5 3.33-5.09 3.36l-1.21.01-.51.46-.51.46.45-.47.45-.48-.49.03c-.49.03-.49.03-.82.63-.37.65-.52 1.85-.19 1.41.18-.23.2-.14.04.16-.08.15-.08.27.02.44.16.3.22.3.39-.01.13-.24.67-.65.86-.65.05 0-.06.1-.24.21-.67.43-.75.98-.13.99 1.06.01 1.98-.52 2.71-1.54.3-.42.56-.72.58-.66.05.13-.34.76-.78 1.24-.63.7.41.24 1.22-.54.29-.28.54-.47.57-.45.02.03-.22.31-.55.63-.82.79-2.32 1.44-3.46 1.5l-.78.04v.35c0 .46.46.91 1.41 1.39.49.24.79.48 1.06.83.45.58.75.78 1.31.87.23.04.39.1.36.15s-.04.09-.02.09c1.88.05 4.93 1.28 6.38 2.58.64.57.41.64-.29.09-1.2-.95-3.78-2.1-4.97-2.22-1.35-.14-2.17-.49-2.8-1.21-.39-.44-.73-.71-1.11-.89-1.06-.48-1.63-1.09-1.63-1.76 0-.18-.1-.43-.23-.59-.37-.44-.53-1.37-.39-2.28.12-.71.11-.77-.13-1.26-.37-.77-.9-3.54-.56-2.96.04.08.11.46.15.83.1 1.03.76 2.95.76 2.21 0-.09.11-.47.25-.85.71-1.98.33-2.89-1.22-2.89-1.02 0-1.28-.12-1.58-.69-.26-.53-.43-1.06-.26-.81.08.11.11-.02.11-.52 0-.91.15-.87.18.05.03.75.09 1.07.2 1.07.04 0 .06-.33.04-.72l-.03-.73.23.34c.25.38.35.27.19-.2-.09-.27-.09-.3.04-.19.09.07.15.29.15.51 0 .44.14.54.17.11 0-.15.04-.41.07-.57s.03-.22 0-.12c-.03.09-.1.15-.15.11-.05-.03-.06-.11-.02-.17.1-.16.13-.67.04-.67-.04 0-.17-.13-.29-.29l-.21-.29.37.1c.76.21 2.02-.15 2.37-.68l.17-.26-.38.26c-.22.15-.52.26-.69.25-.28 0-.26-.02.21-.23.64-.29.7-.4.36-.57l-.27-.13.33-.04.33-.03-.07-.52c-.04-.29-.15-.82-.24-1.19-.21-.8-.08-.92.15-.14.12.4.34 1.53.35 1.74 0 .01.04.02.08.02.14 0-.07-1.83-.28-2.44-.11-.33-.2-.71-.19-.85 0-.17.1.01.27.49.25.74.26.75.35.43.08-.27.05-.37-.2-.75-.17-.23-.32-.5-.35-.58-.02-.08-.15.19-.27.6-.49 1.62-1.46 2.82-2.55 3.16l-.55.17-.15.71c-.24 1.1-.64 3.32-.76 4.26-.38 3.03-.38 3.01-1.08 3.38-1.71.91-4.97.74-6.37-.32-.25-.2-.69-.42-.97-.51-.95-.28-.88-.46-.88 2.17l.01 2.33.5.24c1.54.72 1.48 3.14-.11 3.86l-.4.18v3.23c0 1.77-.03 3.29-.06 3.38-.07.18-.49.22-.59.06Zm.47-3.57.03-3.36.3-.1c2.13-.69 1.29-4.08-.91-3.68-2.09.39-2.24 3.14-.21 3.71l.47.13v3.33c0 2.89.02 3.34.15 3.34s.15-.47.17-3.37Zm11.8-7.38c-.02-.31-.17-1.48-.58-4.48-.25-1.89-.28-2.25-.17-2.13.18.17.88 5.92.8 6.56-.04.33-.04.33-.05.05ZM25.83 22.03c-.02-9.84-.04-18.77-.03-19.85C25.8.92 25.76.2 25.7.2c-.07 0-.1 6.68-.1 19.85 0 16.52.02 19.85.13 19.85.12 0 .13-2.98.1-17.87Zm-6.86 17.42c.8-.54 1.33-1.08 1.32-1.36-.03-1.13-.24-1.84-.59-2-.45-.22-.46-.17-.2 1.06.45 2.2.17 2.02-.4-.25-.46-1.86-.85-3.12-1.06-3.5-.18-.3-.17-.29.36 1.49.62 2.05.8 5.05.27 4.52-.08-.08-.08-.2.01-.45.16-.44.01-2.1-.28-3.18-.11-.4-.36-1.32-.55-2.03-.27-1.03-.51-1.62-1.14-2.87-1.23-2.43-1.71-4.26-1.55-6.02.04-.5-.01-1.12-.16-2.11-.12-.77-.26-1.83-.31-2.35-.06-.52-.14-1.07-.19-1.22-.05-.16-.04-.3.01-.34.05-.03.09-.47.09-.97 0-1.55.52-3.54 1.06-4.07.1-.1.07.07-.12.55-.33.87-.52 1.71-.45 2.05.04.17.07.07.12-.35.08-.79.27-1.38.44-1.32.08.04.27-.33.57-1.08.36-.92.42-1.15.3-1.17-.09-.02.04-.15.32-.33.38-.24.43-.31.29-.36-.18-.06.24-.3.86-.47.24-.06.22-.07-.14-.12-.48-.08-.32-.16.5-.26.6-.08.6-.08.2-.14l-.4-.06.4-.08c.58-.12.61-.17.25-.33-.45-.18-.35-.24.22-.11.56.13.87.05.68-.17-.07-.08-.09-.15-.05-.15s.01-.07-.06-.17c-.13-.15-.12-.15.1-.04.19.11.21.15.1.23s-.1.09.04.04c.1-.03.16-.02.13.03-.03.04.04.17.16.27.12.11.18.14.15.07-.05-.07.02-.13.19-.15.24-.03.23-.05-.26-.42-.64-.49-.77-.75-.78-1.56-.01-.72.03-.65.13.23.05.42.13.65.32.85.2.22.23.23.18.07-.38-1.14-.21-2.39.35-2.49.42-.07.58-.17.53-.36-.11-.42-1.35.05-1.82.7-.15.22-.31.37-.33.34-.03-.03-.31.31-.62.75-.31.45-.61.8-.66.78-.17-.04-1.67 1.32-2.15 1.95-.84 1.11-1.96 3.69-2.24 5.18-.31 1.65-.56 5.52-.45 7.05.13 1.8.26.62.29-2.6.02-3.08.08-3.59.54-4.79.21-.54.21-.19 0 .6-.25.92-.37 3.27-.21 3.84.09.3.1.23.11-.55.02-1.8.83-5.48 1.12-5.05.08.13.11.13.19-.01.33-.55.46-.58.2-.04-.65 1.34-.89 3.69-.56 5.57.29 1.71.37 2.52.46 4.73.12 2.97.28 3.61 1.9 7.3 1.04 2.36 1.6 4.76 1.6 6.81 0 .86-.01.85.67.39Zm16.18-2.2c.02-.44.17-1.43.34-2.2.16-.77.32-1.65.36-1.95.07-.48.09-.52.18-.33.11.26.03.83-.37 2.58-.14.61-.32 1.46-.41 1.9l-.15.8zm6.1-.59c.4-.17.5-.45.41-1.14-.04-.39-.03-.43.06-.27.2.33.16 1.1-.07 1.35l-.2.22 1.1-.03c2.38-.09 4.66-2.02 4.67-3.96 0-.18.04-.31.08-.28.09.05.2-.43.2-.87 0-.29-.02-.28-.43.28-1.24 1.69-2.47 2.24-5.39 2.4l-1.17.07-.38.61c-.73 1.17-.88 1.69-.45 1.64.21-.02.32-.13.49-.48.25-.53.29-.49.08.1-.14.41-.14.42.05.37.11-.03.18-.01.14.04-.08.14.43.11.81-.05Zm-23.49-.37c-.22-1.4-.99-3.22-2.02-4.78-1.23-1.89-2.08-3.85-2.59-6.01-.24-.99-.25-1.01-.19-.4.13 1.55 1.08 3.99 2.4 6.21 1.39 2.31 2.34 4.43 2.34 5.18 0 .12.03.21.06.21.04 0 .04-.18 0-.41Zm13.38.06c.25-.13.27-.13.22 0-.06.17.43.2 1.28.09.45-.07.47-.08.42-.33s-.05-.25.06-.03c.24.47.78.19.79-.41 0-.23.05-.51.1-.62.06-.14.08-.04.04.33-.04.31-.02.52.04.52.24 0 .62-.25.66-.44.15-.75.41-3.05.37-3.31-.01-.06.05-.44.12-.85l.14-.74-.29.33c-.3.35-.37.35-.19 0 .08-.13.07-.19 0-.19-.06 0 .01-.16.16-.35.23-.3.25-.39.16-.65-.11-.29-.1-.3.1-.19s.21.1.14-.31c-.04-.26-.03-.39.03-.35.09.05.41-.54.41-.76 0-.05-.14-.09-.3-.09-.72 0-1.31-.75-1.02-1.26.1-.17.11-.16.12.08.01.92.95 1.15 2.32.56 1.87-.8 3.1-4.55 1.88-5.76-.65-.66-1.98-.41-2.7.5l-.19.26h.25c.13 0 .29-.08.34-.18.33-.62 2.4-.53 2.4.1 0 .14-.05.13-.42-.1-.43-.26-1.13-.26-1.56 0-.44.27-.4.4.1.4.24 0 .49.04.57.09s-.03.07-.31.04c-.49-.06-.88.09-.88.32 0 .1.1.15.27.15.3 0 .96.63 1.06 1.01.05.17-.04.12-.36-.23-.47-.51-.9-.69-1.13-.46-.12.12-.06.18.46.41.33.16.58.32.55.37s-.29-.02-.58-.15c-.51-.24-.52-.24-.55-.05-.05.3-.22.24-.22-.07 0-.27 0-.27-.19-.08-.25.26-.08 1.2.19 1.09.39-.16.51-.13.15.04-.22.11-.46.29-.53.41-.18.31-.5.26-.93-.18-.49-.48-.51-.35-.04.18.53.59.9.7 1.16.37.28-.35.51-.33.88.1.28.32.73.42.7.16-.04-.26.02-.37.11-.22.09.13.16.09.44-.22.42-.44.52-.98.37-1.94-.06-.37-.09-.7-.06-.72.08-.08.25.39.33.9l.09.53.07-.56c.05-.33.04-.77-.02-1.04-.09-.42-.08-.46.05-.32.4.39.33 1.66-.14 2.65-.49 1.04-1 1.42-1.9 1.42-.47-.01-.48-.01-.19-.13l.29-.13-.28-.22c-.37-.29-.42-.28-.66.12l-.2.35-.52-.32c-2.17-1.32-3.21-2.7-4.39-5.85-.39-1.05-.27-.42.27 1.36.63 2.1.81 3.26.95 6.12.13 2.9.2 8.02.09 7.11-.08-.69-.19-1.07-.19-.67 0 .28-.3.77-.42.7-.07-.05-.08-.02-.03.07.06.1.05.11-.03.04-.08-.08-.08-.21.02-.5.32-.94.29-2.52-.14-7.35-.19-2.07-1.06-5.54-2.26-8.95-.59-1.67-.85-2.55-.82-2.72.1-.5 2.61 7.34 2.98 9.29.35 1.86.4 1.95.35.68-.06-1.47-.18-1.98-1.16-5.2-1.27-4.13-1.24-4.07-2.96-7.08-1.05-1.84-1.33-2.53-.5-1.25.24.37 1.02 1.65 1.72 2.83 1.2 2.02 1.67 2.7 1.88 2.7.04 0 0-.12-.11-.28-.11-.15-.27-.43-.36-.62l-.16-.35.22.3c.27.36 1.53 1.65 1.44 1.48-.13-.24.11-.21.39.04.27.26.28.26.23.05-.08-.28.08-.29.17-.01.19.58 3.78 1.45 6.37 1.53 1.25.04 1.31.04.5-.04-1.3-.11-1.26-.19.1-.18 1.38 0 1.63-.09 2.38-.88.53-.56.99-1.42 1.06-1.97.02-.18.08-.5.13-.72.21-.83.05-2.65-.22-2.48q-.09.045-.03-.06c.07-.11-.13-.81-.24-.81-.03 0-.14.3-.24.67-.38 1.45-1.62 3.24-2.58 3.74-.56.29-.68.23-.17-.1.76-.49 1.25-1.18 1.58-2.24.11-.36.29-.83.39-1.04.11-.21.23-.54.27-.73s.12-.38.17-.41c.06-.04.07-.2.03-.39l-.07-.32-.47.46c-.42.42-.48.53-.59 1.15-.3 1.74-.94 3.01-1.75 3.47l-.37.21.3.44c.75 1.07.83 1.2.78 1.25-.03.02-.36-.36-.73-.85l-.67-.9-.37.16c-1.47.65-4.36.56-5.83-.18-1.16-.58-1.79-1.27-3.72-4.06-.98-1.42-1.24-1.74-1.57-1.88-.49-.22-.45-.31.04-.1.49.2.51.2.3-.16-.16-.27-.77-.69-1-.69-.05 0-.08.67-.08 1.5v1.49l.31.28c.16.15.41.41.55.58l.24.3-.25-.2c-.14-.11-.37-.31-.52-.44l-.28-.25v.28c0 .2.19.49.65 1.02 2.03 2.33 3.58 8.67 3.11 12.74-.3 2.52-.85 4.97-1.31 5.76-.21.38-.19.22.28-1.56.77-2.95 1.08-6.82.64-8l-.17-.45.04.6c.07.89-.1.25-.24-.94-.26-2.14-.57-3.96-.74-4.28-.01-.01-.15-.04-.31-.08l-.3-.07.3.27c.23.2.25.24.07.15-.34-.17-1.95-.29-2.04-.16s-.1 1.48-.02 1.7c.03.09.18.16.33.17.24 0 .24.01.06.1-.17.08-.15.09.1.05.26-.04.28-.03.12.09-.2.14-.05.25.35.25.15 0 .19.05.15.2-.03.11 0 .2.06.2s.02.06-.08.14c-.18.13-.18.14.04.25.35.19.18.24-.23.07-.35-.14-.36-.14-.26.04.12.23-.22.39-.45.2-.11-.09-.15-.05-.21.24-.08.44-.01 12.52.07 12.61.09.08 1.98-.91 3.22-1.7.59-.37 1.1-.65 1.13-.62.14.14-3.11 2.27-3.45 2.27-.29 0-.16.21.18.3.22.06.63.28.93.5.58.44 1.07.61 1.8.64.27 0 .48.04.48.09 0 .12.43.08.74-.08ZM22.8 36c.52-.1 1.32-.31 1.78-.46l.82-.28v-6.17c0-4.46-.03-6.26-.12-6.46l-.11-.28-.07.3c-.06.24-.08.25-.09.08-.01-.18-.07-.23-.26-.23-.29 0-.52.39-.31.52.07.05.05.08-.06.08-.14 0-.16-.06-.11-.3.06-.31-.12-.43-.23-.15-.04.08-.11.15-.16.15-.06 0-.07-.08-.04-.17.09-.22-.1-.33-.56-.33-.21 0-.38-.04-.38-.09 0-.16.27-.31.45-.25.15.06.16.04.06-.14-.06-.11-.11-.3-.11-.41 0-.12-.04-.21-.1-.21s-.1.07-.1.15c0 .2-.56.82-.75.82s-.19-.12.03-.64c.09-.24.22-.41.29-.39.2.08.23-.06.06-.38l-.16-.31.24.2c.13.11.18.13.11.04-.14-.18-.07-.3.14-.22.09.03.14-.02.14-.13 0-.14.03-.15.12-.06.18.18.38.14.38-.08 0-.11.05-.2.1-.2.06 0 .1.06.1.13 0 .18.82.16 1.04-.02.14-.12.16-.11.16.08 0 .12.06.21.15.21.12 0 .15-.18.15-1.01 0-1 0-1.01-.22-.96-.13.03-.45.09-.72.13-.27.03-.72.15-1 .26-.55.21-.84.29-1.03.3-.07.01-.13.05-.13.09 0 .05-.07.06-.15.03-.09-.04-.15 0-.16.07 0 .08-.04.05-.09-.06s-.09-.15-.09-.08c-.01.06-.12.1-.26.08-.19-.02-.25.02-.26.19-.01.33-.37-.53-.38-.91-.01-.27.03-.33.19-.33.12 0 .2-.07.21-.17 0-.15.02-.15.09.02s.09.17.09.02c.01-.1.09-.17.19-.17s.22-.03.26-.08c.04-.04.35-.13.69-.19.34-.07.87-.18 1.17-.24s.64-.11.75-.11.35-.02.53-.04l.32-.05V15.4c0-1.05-.04-1.8-.09-1.8-.18 0-1.8-1.61-2.12-2.12-.27-.41-.34-.47-.39-.33-.04.11-.09.14-.13.08-.07-.11-.77-.11-.96.01-.06.04-.11.02-.11-.04 0-.08-.06-.08-.2 0-.13.07-.2.07-.2.01s-.16-.03-.36.05c-.32.14-.36.14-.31 0 .07-.19-.45-.03-.64.2-.18.22-.32.16-.25-.11.04-.14.02-.25-.03-.25-.16 0-.86.32-1.01.46-.45.42-.79.63-.82.53-.05-.14-.76.7-1.1 1.31-.8 1.4-1.46 4.78-.93 4.73.24-.02.95.17 1.13.3.08.06.12.05.12-.04 0-.07.1-.03.26.12.18.17.23.19.18.06-.09-.23.12-.22.29.03.08.11.17.17.2.13.08-.07.58.97.52 1.07-.03.04-.17.05-.32.03-.16-.02-.35-.04-.43-.05-.21-.01-1.09-.24-1.44-.37-.18-.08-.32-.08-.35-.02-.04.05-.18.12-.33.16l-.26.07.19.56.19.57.57.02c.91.04 1.52.27 2.11.78l.52.47v-.35c0-.19-.05-.48-.11-.65-.17-.51-.04-.61.19-.15.37.72.27 1.32-.65 3.88-.62 1.75-.62 1.77.52 2.69.43.34.4.44-.07.2-.3-.15-.32-.15-.19-.01.09.11.09.17.02.17-.55 0-1.1-1.53-.82-2.27.26-.68 1.01-2.94 1.01-3.07 0-.04-.11-.01-.23.07-.13.08-.42.2-.64.26-.24.07-.45.2-.52.33l-.12.23.05-.23c.06-.32-.03-.27-.19.11l-.14.32-.01-.4c0-.44-.2-.31-.2.13 0 .13-.04.2-.1.17s-.08-.18-.05-.33c.04-.2-.01-.15-.18.18l-.25.45-.03-.53c-.03-.37 0-.57.11-.67.12-.13.1-.15-.17-.15-.28 0-.36-.07-.59-.45-.36-.62-.39-.52-.2.62.09.54.22 1.67.31 2.5.09.97.22 1.74.36 2.1.11.32.22.74.24.93.08.98.99 3.35 1.73 4.48.22.35.46.8.53 1 .61 1.93.78 2.13 2.02 2.47.71.19 1.16.18 2.27-.05Zm20.53-2.06c1.55-.26 2.18-.59 3.11-1.61l.38-.43-.39-.47c-.22-.27-.52-.67-.67-.9l-.26-.43h-.99c-1.19 0-1.41-.17-1.63-1.2l-.12-.6h-.37c-.39 0-.59.29-.59.87 0 .14-.04.21-.1.18-.06-.04-.1.1-.1.36 0 .23.03.39.07.35.24-.24.54 2.02.33 2.49-.06.13-.07.03-.03-.32.05-.46-.1-1.42-.26-1.68-.07-.12-.2.72-.26 1.63-.02.35-.11.88-.2 1.17-.28.96-.24.97 2.08.59Zm-2.89-.15c.14-.17.26-.37.26-.45s.08-.31.17-.52c.24-.53.23-1.22-.02-.82-.03.05-.11.1-.18.1-.06 0-.02-.07.1-.15.46-.33.74-1.78.44-2.33-.06-.11-.05-.38.02-.71.08-.44.12-.51.19-.35.06.13.07.07.04-.2-.06-.49-.09-.51-.39-.31-.35.22-.44.02-.11-.24.32-.26.26-.56-.1-.49-.21.04-.23.03-.13-.13.09-.15.08-.22-.06-.36-.18-.17-.18-.16-.15.22.02.29.07.39.18.37.12-.03.13-.01.03.09-.14.14-.17.55-.05.62.04.03.07.7.06 1.49 0 1.59-.14 2.14-.76 2.99l-.31.42.17.54c.2.62.25.64.6.22Zm-21.66-1.2c-.27-.29-.39-.51-.44-.86-.04-.26-.16-.6-.27-.75-.23-.31-.12-.98.24-1.5.19-.26.23-.27.78-.21.42.04.74.01 1.15-.12.66-.21.69-.2 1.84.53.91.58 1.42 1 1.42 1.18s-.38.37-.58.29c-.22-.09-1.34-.19-1.97-.16-.27.01-.89.01-1.36.01-1.07-.01-1.19.08-1.01.78.19.71.52.96 1.21.9.31-.03.88 0 1.26.07.83.15.76.17-.75.2l-1.15.03zm20.85-.27c.43-.47.7-1.34.75-2.36.02-.56.01-.98-.04-.93-.04.04-.07.24-.06.45.01.2-.02.51-.08.67-.09.28-.09.27-.07-.16.01-.27-.02-.46-.09-.46-.06 0-.11.14-.11.31-.02.63-.14 1.41-.24 1.51s-.07-.44.06-1.27c.04-.25.02-.38-.05-.38-.06 0-.1.11-.08.24.01.13-.03.31-.11.39-.07.09-.11.23-.08.32.04.08.02.17-.03.2-.06.04-.1.19-.1.35 0 .21-.04.28-.14.24-.16-.06-.3.11-.21.26.04.07.14.06.28-.01l.22-.11-.22.22c-.2.21-.2.25-.06.46.18.29.25.29.46.06Zm7.77-1.42c.05-.19.1-.51.11-.7 0-.27.02-.31.08-.15.2.5.2-.79.01-1.67-.22-1.02-.23-1.03-.45-.94-.3.11-.16 1.12.15 1.09.25-.03.25-.03.03.08-.17.09-.23.22-.25.58l-.03.46-.24-.4c-.14-.22-.28-.42-.31-.45s-.12-.25-.19-.5l-.13-.44-.3.59c-.16.33-.46.77-.66.98l-.36.37h.91c.94 0 1.53.07 1.53.19 0 .04-.36.06-.8.05-.44-.02-.8 0-.8.04 0 .13.52.86.89 1.25l.36.37.17-.22c.1-.13.22-.39.28-.58Zm-31.67-.17c-.37-.85-.81-2.09-1.02-2.88-.1-.39-.35-1.26-.55-1.94-.25-.85-.33-1.28-.26-1.35s.1-.04.1.1c.01.1.14.57.29 1.04l.28.85-.04-1.85c-.06-2.61-.58-6.48-.75-5.55-.04.22-.07.9-.08 1.5-.01.61-.05 1.3-.09 1.55l-.08.45-.02-.55c-.01-.3-.05-.61-.1-.69-.09-.14-.08.25.04 2.74.08 1.82.4 3.04 1.26 4.85.82 1.72 1.62 3.08 1.02 1.73Zm7.32-.03c-.08-.13-1.53-1.14-1.94-1.35-.32-.16-.36-.16-.98.04-.71.23-.96.26-1.23.11-.24-.13-.56.25-.66.76-.07.38-.02.5.17.39.06-.04.49-.07.95-.06.88.02.94-.01.73-.42-.08-.16-.03-.13.16.08s.25.24.2.11c-.06-.19-.05-.19.13-.03.11.1.23.17.28.16.15-.04 1.37.13 1.59.22.28.11.67.11.6-.01Zm21.45-1.17c0-.14.02-.15.09-.05.11.18.68-.31.99-.86.18-.33.2-.41.07-.46-.09-.03-.12-.12-.09-.23.04-.14.04-.15-.04-.04-.05.07-.29.14-.53.16-.24.01-.3 0-.14-.02.17-.02.35-.09.4-.15.12-.13-.75 0-.89.13-.06.05-.04.31.03.64.07.31.11.59.08.61-.02.02-.1-.23-.17-.56-.23-1.08-.37-.86-.24.39.07.59.44.96.44.44Zm-.77-.93c-.03-1.43-.12-1.75-.49-1.73l-.29.02.24-.13c.23-.13.21-.14-.48-.35-.66-.2-.75-.21-.96-.07l-.23.15.24.58c.13.32.24.7.24.86 0 .3.1.32.75.17.22-.05.46-.17.53-.27.13-.17.14-.17.1.02-.02.11-.13.24-.26.3-.25.11-.27.28-.1.76l.13.34.07-.4c.06-.38.06-.37.05.12-.01.28.01.49.06.46.04-.02.07.01.07.07s.08.1.18.08c.15-.03.17-.15.15-.98Zm4.44-1.1c-.04-.84-.26-1.37-.76-1.84-.42-.4-.39-.19.04.35.4.5.43.67.16 1-.18.22-.18.25-.01.74.1.28.21.71.25.96l.08.44.14-.45c.09-.28.13-.73.1-1.2Zm-3.28.14c.19-.04.31-.13.32-.23.01-.14.02-.14.06.01.03.13.09.15.28.08.12-.05.26-.06.29-.03.17.18.14-.31-.04-.69-.4-.78-.64-.95-.8-.55-.07.18-.09.18-.09.04-.01-.11-.06-.16-.13-.12s-.03-.02.09-.13l.23-.2-.23-.41c-.12-.22-.26-.41-.31-.41-.17 0-.56-.43-.56-.62 0-.24-.54-.83-.68-.74-.15.09-.05.63.34 1.81.25.78.54 1.95.54 2.22 0 .05.35.03.69-.03Zm1.31-.96c-.06-.29-.16-.66-.21-.82-.12-.4-.05-.44.11-.06.07.16.19.3.27.3.1 0 .13-.06.08-.17-.04-.1-.12-.3-.17-.46-.1-.28-.23-.33-.9-.4-.48-.04-.48.03.06.73.24.32.52.79.62 1.04.24.57.29.51.14-.16Zm-10.76-1.44c.09-.24.07-.62-.04-.69-.06-.03-.1-.14-.1-.23 0-.1-.25-.37-.56-.61-.94-.74-1.89-2.16-2.4-3.61-.12-.36-.23-.57-.23-.48-.02.33.47 2.45.63 2.76.09.17.16.39.16.48 0 .1.03.15.06.11.03-.03.2.1.36.29.36.41.77.64 1.12.64.22 0 .76.38.76.54 0 .12-.28.06-.4-.09-.39-.47-.63-.06-.26.44.43.58.78.76.9.45Zm-1.42-.46c-.03-.22-.22-.52-.59-.9-.84-.89-1.23-1.93-1.44-3.78-.12-1.07-.22-1.34-.61-1.63-.4-.3-.4-.26.02 1.33.2.8.37 1.52.37 1.6 0 .81.77 2.32 1.58 3.09.74.71.73.71.67.29Zm1.85-1.25c.55-.69.6-1.22.08-.82-.13.09-.96.39-1.1.39-.05-.01-.01-.07.09-.15.19-.14.19-.15-.06-.15-.14 0-.47-.11-.73-.25l-.48-.26.41.48c.22.26.58.58.8.71l.4.22.07-.3c.04-.16.1-.32.15-.35s.05.09-.01.27c-.19.69-.07.76.38.21Zm5.26-.07c.22-.17.35-.46.58-1.25.16-.57.36-1.16.44-1.31.08-.16.16-.39.18-.5.02-.12.1-.26.18-.31.23-.16-2.21.01-2.66.18-.44.17-2.05.31-1.92.17.05-.05.32-.14.6-.2l.52-.1-1.2-.12c-.66-.07-1.81-.26-2.55-.42-.74-.15-1.36-.27-1.38-.25-.09.09 1.67 1.74 1.92 1.81.18.04.64 0 1.17-.11 1.64-.33 2.58.19 2.84 1.58.05.25.2.48.46.72.46.41.46.41.82.11Zm-5.32-1.41.57-.55-.36-.1c-.58-.16-.91-.42-1.72-1.36-.68-.78-1.57-1.4-1.76-1.21-.16.16 1.14 2.35 1.79 3.02.86.89.76.88 1.48.2Zm10.32-.01c.45-.28.97-.73.97-.84 0-.04-.33-.1-.74-.13-.46-.03-.89-.13-1.15-.26l-.42-.22.14.33c.67 1.58.58 1.5 1.2 1.12Zm1.57-1.51c1.06-1.29.65-3.03-.72-3.03-.18 0-.6-.07-.93-.14-.64-.15-.75-.11-.75.3 0 .11-.18.58-.41 1.04-.73 1.53-.26 2.01 1.53 1.54.33-.08.65-.13.71-.11.17.05-.71.37-1.28.46l-.5.08.45.06c1.51.22 1.54.22 1.9-.2Zm-5.05-.93c.94-.36 1.45-2.94.92-4.62-.34-1.07-.32-1.07-.33.05-.02 1.88-.83 3.67-2.04 4.49l-.45.3.82-.06c.46-.04.94-.11 1.08-.16Zm-2.34-.91c1.64-.64 2.45-2.35 1.96-4.14-.07-.27-.07-.28.04-.1.07.11.19.43.26.7l.13.5-.04-.8c-.04-.67-.03-.74.06-.45.09.31.07.83-.06 1.95-.11.9-1.16 2.07-2.18 2.43-.93.33-1.05.26-.17-.09Zm4.65-.71c.32-.97.07-1.32-.44-.62-.34.46-.38.9-.15 1.51.08.19.38-.26.59-.89Zm-16.71.05c-.22-.89-.89-2.28-1.39-2.88-.25-.3-.25-.3-.2-.05.03.16-.03.11-.16-.16-.45-.93-.51-.82-.48.92.03 1.47.04 1.59.21 1.58.1-.01.16.01.13.04-.04.03.27.16.67.28.4.13.81.3.92.38.3.23.38.19.3-.11Zm19.71-.68c-.79-.95-2.26-1.86-2.48-1.53-.55.86-.12 1.38 1.15 1.38.59 0 1.32.31 1.49.63.07.14.13.17.16.09.02-.07-.12-.33-.32-.57Zm.25-.47c-.22-1.02-.69-1.78-1.55-2.43-.37-.28-.46-.31-.46-.12 0 .06-.11.35-.24.63l-.24.52.41.18c.27.13.59.18.96.16.4-.02.52 0 .41.08-.08.05-.26.1-.39.1-.22 0-.19.05.3.49.3.26.61.6.68.75.21.37.24.25.12-.36Zm-11.81.42.55-.07-.7-.02c-1.7-.03-4.18-1.2-6.6-3.09l-.6-.47.35.49c1.91 2.67 3.94 3.59 7 3.16Zm1.29-.72c.41-.2.87-.54 1.28-.95.35-.35.59-.54.52-.42-.17.33-.97 1.07-1.38 1.29-.44.23-.31.25.38.04.66-.19 1.22-.7 1.5-1.34.2-.47.73-2.31.68-2.36-.01-.02-.42.32-.91.76-1.14 1.01-2.46 1.51-3.96 1.49-.52-.01-.49-.02.45-.19 2.53-.45 3.34-1.01 3.85-2.67.79-2.55.32-5.15-.93-5.18-.07 0-.18-.04-.24-.08-.09-.06-.13-.01-.13.15-.01.19-.03.18-.16-.11-.19-.44-.3-.33-.14.14.15.45.07.57-.1.16l-.12-.3-.31.2c-.47.28-.58.23-.14-.07.39-.26.41-.38.08-.47-.19-.04-.5.5-.43.75.03.14-1.2.87-1.85 1.1-.7.24-7.17.3-7.92.08-.31-.1 2.59-.16 4.99-.12 2.79.06 4.7-.72 4.7-1.92 0-.25-5.76.28-6.04.55-.06.05-.01.09.13.09.12 0 .2.04.16.09-.03.05-.74.1-1.59.1-2.43 0-4.55.71-3.8 1.26.17.12.11.4-.07.3-.05-.04-.09.03-.09.13 0 .24.56.46 2.7 1.03.85.22 2.23.63 3.07.9 2.63.85 4.73 1.04 5.73.54.64-.32.89-.32.3.01l-.45.24.5-.06c1.07-.13 1.47-.56 1.67-1.8.14-.92-.03-2.29-.32-2.56-.11-.1-.2-.22-.2-.25s.09.02.21.13c.73.66.79 2.75.13 4.12-.3.62-1.95 2.09-3.22 2.88-1.05.66-1 .47.06-.23l.9-.59h-1.87c-1.73 0-3.33-.17-4.84-.5-.28-.06-.28-.06.24.8.29.48.5.89.47.91-.02.03-.26-.31-.52-.75-.27-.43-.72-1.06-1.02-1.39-.59-.65-.73-.93-.21-.44.84.81 2.58 1.17 5.73 1.17l2.01.01.4-.28c.22-.15.53-.41.69-.58l.29-.31-1 .06c-.55.04-1.36.12-1.79.18-1.92.27-4.59-.12-6.31-.92-.5-.24-2.21-.9-2.32-.9-.02 0 .04.11.13.25.08.13.12.3.08.36-.04.07-.03.09.04.05.12-.07.21.04.27.35.16.81 1.54 2.14 3.58 3.45 3.05 1.96 4.81 2.4 6.46 1.62Zm7.41-3.28a4.7 4.7 0 0 0-1.32-2.64c-.65-.64-.85-.68-.46-.08.75 1.12 1.08 2.18 1.08 3.44v.78l.38.19.37.19.03-.56c.02-.32-.02-.91-.08-1.32Zm-19.7-.15c0-.02-.25-.3-.56-.61-.66-.66-.64-.88.02-.23.27.26.42.35.35.22-.06-.12-.16-.25-.21-.28-.14-.09-.12-.27.03-.22.06.02.12.09.12.15 0 .07.05.12.1.12.06 0 .11-.57.13-1.44l.03-1.45-.61-.12c-.68-.13-.7-.15-.29-.47.23-.19.29-.2.29-.08 0 .19.01.19.34.06l.25-.09V4.62l-.57.13c-1.21.29-2.42.87-2.42 1.18 0 .09-.04.17-.1.17-.05 0-.1-.07-.1-.15s-.05-.15-.1-.15c-.06 0-.1.03-.09.08.01.04-.02.18-.07.32-.08.24-.08.24-.15-.1-.05-.22-.04-.36.03-.39.06-.02.18-.13.27-.25.68-.88 1.41-1.31 2.69-1.57.62-.13.62-.13.62-.48v-.34l-1.07.06c-1.14.07-2.38.26-2.29.34.03.03-.14.19-.38.34-.56.37-1.34 1.06-1.46 1.29-.06.12.12.04.51-.22.33-.22.58-.43.55-.46-.07-.06.88-.66 1.38-.87.48-.2.46-.11-.03.14-.53.27-1.52 1.2-1.28 1.21.09 0 .17.07.17.15s.03.15.08.15c.06 0 .07.32.03 1.15-.01.12-.04.16-.09.09-.08-.14-.56.01-.48.15.03.04-.04.17-.16.27-.91.81-.87 2.29.07 2.76l.4.2-.24-.25c-.48-.53-.59-1.84-.18-2.24.14-.14.14-.11 0 .36-.24.84 0 1.51.67 1.86.43.22.47.18.16-.13-.16-.18-.29-.44-.32-.68l-.05-.39.21.4c.11.22.3.49.42.6l.21.2-.08-.2c-.15-.39-.23-1-.18-1.32.08-.47.19-.49.15-.04-.08.8.13 1.19 1.22 2.3.73.74.92.99.69.87-.37-.19-.4-.12-.19.39.28.66 1.56 1.98 1.56 1.6Zm15.04-.54c-.02-.02.03-.16.12-.3.08-.14.21-.46.29-.71.15-.47.15-.28-.01.55-.08.44.15.06.32-.54l.14-.46-.05.44c-.07.54.1.45.5-.27s.12-1.77-.72-2.72l-.4-.45.04 1.2c.05 1.14-.09 2.17-.43 3.34-.07.22-.06.23.08.1.09-.07.14-.16.12-.18ZM34.45 12c-.27-.05-.97-.2-1.55-.34s-1.48-.28-2-.31l-.95-.05.87.3c1.06.36 1.82.48 3.13.48.84 0 .92-.02.5-.08Zm-3.56-1.05c-.03-.02-.99-.29-2.14-.59-1.16-.3-2.23-.59-2.38-.65-.16-.06-.26-.07-.22-.02.17.29 2.7 1.11 3.7 1.21s1.09.11 1.04.05Zm11.06-3.64c-.23-.34-.87-.88-1.42-1.22-.35-.21-.27-.32.09-.13.56.28 1.23.81 1.38 1.08.38.72.4-.62.01-1.49-.12-.26-.19-.5-.17-.52s.1.1.17.26c.23.53.38.41.16-.12-.16-.38-.52-.73-.42-.41.04.1-.01.06-.11-.11-1.08-1.88-3.54-2.31-4.79-.84-.33.4-.32.44.16.75l.41.26.62-.33c.52-.28.74-.33 1.46-.37.96-.05 1.05.07.11.14-.65.05-1.41.26-1.79.51-.33.21-.03.6.32.41.28-.15 1.44-.15 1.8 0 .42.18.26.25-.28.11-.46-.11-1.25-.07-1.5.08-.1.06-.09.17.06.51l.19.43.26-.21c.26-.2.93-.28.93-.1 0 .05-.07.07-.15.04-.09-.04-.29-.01-.45.06-.37.15-.3.27.43.69.29.16.87.64 1.3 1.06s.81.75.83.72c.07-.07-.3-.78-.78-1.52l-.39-.6.41.45c.22.25.57.79.78 1.2l.36.75.13-.59c.13-.57.13-.6-.12-.95ZM26.4 8.44c.19-.31.6-.41 2.7-.69.24-.03.3-.02.2.05-.08.05-.4.13-.7.17l-.55.07.5.07c.56.08 1.52-.04 2.15-.26.68-.24.8-.16.2.13-.51.24-.67.26-2.41.32-1.45.04-1.9.08-2.04.2-.17.14-.17.14-.05-.06Zm.35-.82c.47-.23 1.58-.52 2.01-.52.16 0 .39-.06.5-.13.69-.4 1.06-.57 1.63-.76 1.09-.36.94-.18-.24.29-.77.3-1.3.62-.75.44.14-.04.33-.08.43-.08.09 0 .17-.04.17-.09s.07-.06.15-.03c.09.03.86-.06 1.73-.21.86-.14 1.8-.27 2.07-.27.28-.01.66-.03.85-.05l.35-.03-.5-.18c-.27-.1-.63-.19-.8-.19-.21-.01-.26-.04-.16-.1.13-.08-1.32-.71-1.65-.71-.09 0-.13-.04-.1-.09.04-.05-.18-.09-.46-.09-.29 0-.85-.03-1.25-.07-.55-.06-.83-.03-1.23.1-.29.1-.73.18-.99.2-.53.03-.69.06-1.68.41-.76.27-.91.45-.77 1 .07.25.07.25.51-.23.38-.42.42-.44.26-.15-.1.18-.33.47-.5.63-.39.35-.54 1.6-.15 1.27.09-.09.35-.25.57-.36ZM38 6.1c0-.17-.23-.6-.33-.6-.05 0-.27.05-.48.12-.43.12-1.31-.01-1.65-.26-.15-.11-.07-.11.4.01.39.1.69.12.88.06l.29-.08-.23-.34c-.26-.39-.48-.51-.48-.27 0 .09-.04.16-.1.16s-.1-.11-.1-.25c0-.29-.08-.32-.25-.08-.1.14-.11.11-.08-.14.05-.29.02-.31-.63-.55l-.67-.25-.46.25c-.25.14-.57.34-.7.44s-.33.18-.45.18c-.17 0-.18.02-.06.1.08.05.24.07.35.04.16-.04.17-.03.05.05-.08.06-.28.09-.45.06-.16-.02-.03.04.3.15s.8.3 1.05.44c.93.51 3.8 1.09 3.8.76ZM27.35 3.99c.66-.21 2.18-.29 2.85-.14.36.08.76.17.9.2.21.04.2.03-.05-.09-.79-.37-4.8-.97-4.96-.74-.22.33.03.57.65.6l.61.03-.62.09c-.35.05-.63.12-.63.16 0 .09.85.02 1.25-.11Zm4.53-.05c-.57-.17-.73-.35-.2-.23.81.19 1.83-.03 2.46-.52.44-.35.29-.38-.61-.13-1.05.29-1.62.3-2.74.06-.61-.14-1.08-.17-1.74-.14l-.9.05.6.12c.82.17 2.18.54 2.74.76.25.1.55.18.66.18s-.01-.07-.27-.15Zm4.47-.32.11-.54c.04-.14-.02-.15-.38-.11-1.35.15-1.9.44-1.16.63.24.06.59.17.78.24.53.21.59.19.65-.22Z"/></svg>