<svg xmlns="http://www.w3.org/2000/svg" width="51" height="51" viewBox="0 0 51 51"><path fill="#fff" fill-rule="evenodd" stroke="#fff" stroke-width=".638" d="M8.92 46.59c-2.33-.3-4.02-1.69-4.69-3.84-.17-.57-.18-1.2-.18-11.25V20.85l.22-.87c.59-2.29 1.78-4.1 3.63-5.53.81-.62 8.5-6.35 11.33-8.44 3.63-2.67 4.27-2.96 6.47-2.95 2.54.02 2.07-.27 13.6 8.33 6.11 4.56 6.86 5.38 7.67 8.37l.27.99.04 9.25c.03 10.06-.03 12.23-.39 13.28-.49 1.45-1.85 2.64-3.65 3.18-.65.2-32.89.32-34.32.13Zm33.28-.52c2.06-.56 3.5-1.85 3.97-3.57.28-1.01.28-21.4 0-22.4-.81-2.93-1.45-3.52-13.17-12.15-4.41-3.25-4.87-3.53-6.15-3.8-2.19-.46-3.33-.05-6.6 2.35-3.74 2.74-11.68 8.72-12.29 9.24-1.24 1.06-2.41 2.9-2.81 4.41-.39 1.49-.49 21.01-.12 22.43.54 2.03 2.04 3.27 4.37 3.6 1.34.2 32.06.09 32.8-.11Zm2.07-.39c1.41-.71 2.3-1.94 2.55-3.53.2-1.34.15-20.51-.06-21.73-.55-3.2-1.3-4.03-8.15-9.14-11.02-8.22-10.48-7.89-12.86-7.91-2.52-.02-2.05-.3-12.2 7.26-6.9 5.14-7.14 5.34-8.09 7.08-1.11 2.02-1.09 1.84-1.09 13.89 0 10.82 0 10.8.44 11.79.3.68.3.45.01-.39l-.27-.75v-21.2l.22-.78c.51-1.77 1.38-3.21 2.71-4.49.78-.74 9.76-7.53 13.85-10.46 2.92-2.09 5.42-2.18 8.18-.29.8.54 6.2 4.53 10.44 7.71 5.24 3.92 6.38 5.36 6.76 8.56.21 1.84-.03 20.7-.28 21.47-.4 1.2-1.32 2.31-2.43 2.92-.73.41-.55.39.27-.01Zm-31.8-3.98c-1.43-.24-2.64-1.46-2.96-2.98-.18-.86-.14-15.64.04-16.67.36-2.03 1.25-3.09 4.85-5.76 10.12-7.52 9.19-6.94 11.2-6.94 2.31 0 2.11-.11 7.35 3.75 10.11 7.43 9.4 6.07 9.32 18.11-.05 7.77-.05 7.79-1.44 9.29-1.15 1.25-1.45 1.3-8.18 1.29-5.56 0-6.08-.03-6.37-.39-.8-.99 1.14-5.16 3.83-8.23 1.62-1.86 1.8-2.1 2.25-3.02 1.78-3.65.78-7.65-2.48-9.81C24.8 16.96 18 20.4 18 26.35c0 2.41.69 3.95 2.9 6.5 3.85 4.43 5.4 8.4 3.44 8.85-.48.12-11.2.11-11.87 0Zm12.1-.65c.68-.92-1.16-4.46-4.07-7.8-2.34-2.69-3.09-4.46-2.97-7.04.35-7.71 10.4-10.53 14.88-4.18 2.25 3.2 1.77 7.28-1.28 10.72-3.09 3.49-5.25 7.63-4.36 8.36.29.24 11.59.2 12.34-.04 1.51-.5 2.1-1.4 2.2-3.37.18-3.47.05-15.51-.18-16.17-.62-1.86-1.6-2.9-5.18-5.53l-5.12-3.77c-3.31-2.44-3.69-2.61-5.66-2.51-1.44.08-.93-.23-7.17 4.38-5.55 4.09-6.45 4.86-7.17 6.03-.91 1.5-.94 1.9-.91 11.22l.03 7.5.23.5c.45.98 1.43 1.71 2.52 1.86 1.39.19 11.71.05 11.87-.16Zm17.39-7.7c.08-4.9-.08-10.76-.31-11.59-.16-.58-.7-1.76-.8-1.76-.03 0 .04.19.16.42.68 1.33.63.68.68 9.58.04 8.48.16 9.96.27 3.35Zm-17.31-2.39c-3.32-.81-4.52-4.9-2.14-7.29 2.9-2.9 7.93-.42 7.37 3.64-.34 2.48-2.85 4.23-5.23 3.65Zm1.89-.51c2.88-.75 3.89-4.33 1.81-6.41-1.83-1.83-5.09-1.36-6.2.9-1.45 2.97 1.23 6.33 4.39 5.51Z"/></svg>