<svg xmlns="http://www.w3.org/2000/svg" width="51" height="51" viewBox="0 0 51 51"><path fill="#fff" fill-rule="evenodd" stroke="#fff" stroke-width=".8" d="M25.84 48.05c-.04-.09.14-.64.41-1.27 1.17-2.77.99-3.93-.92-6-.51-.55-1.03-1.19-1.17-1.43-.95-1.61-1.12-4.16-.41-6.19.13-.39.23-.71.22-.72s-.27-.09-.57-.19c-3.28-1.05-7.04-5.3-8.34-9.42-2.27-7.25 1.45-14.41 8.17-15.68 6.41-1.22 12.01 3.82 12.43 11.19.3 5.14-4.12 12.22-8.59 13.78-.45.16-.87.3-.94.33-.08.03-.04.24.13.72.46 1.32.29 1.54-1.3 1.69l-.76.07-.06.34c-.03.18-.05.77-.02 1.31.05 1.42.35 1.99 1.78 3.48 1.59 1.64 2.04 2.77 1.79 4.49-.26 1.86-1.55 4.29-1.85 3.5Zm1.25-2.3c.76-2.34.41-3.76-1.37-5.49-1.07-1.04-1.46-1.61-1.73-2.47-.21-.68-.26-2.19-.08-2.81l.1-.38.62-.01c.34 0 .85-.06 1.12-.13.58-.13.59-.21.24-1.23-.32-.93-.31-.94.71-1.26 4.88-1.56 9.29-9.01 8.61-14.54-.8-6.45-5.41-10.63-11.18-10.12-7.18.64-11.45 8.64-8.58 16.09 1.57 4.09 5.23 7.94 8.28 8.71.54.13.53.12.28.77-.53 1.34-.66 3.39-.31 4.76.28 1.11.7 1.82 1.77 2.98 1.87 2.04 2.12 3.43 1.08 5.95-.49 1.18-.51 1.27-.16.63.17-.3.44-.96.6-1.45Z"/></svg>