<svg xmlns="http://www.w3.org/2000/svg" width="51" height="51" viewBox="0 0 51 51"><path fill="#fff" fill-rule="evenodd" stroke="#fff" stroke-width=".714" d="M29.23 51.1c-.81-.33-.5-2.57.47-3.45.29-.26.25-.03-.1.53-.43.7-.6 1.27-.58 1.91.01.53.02.54.05.11.02-.25.1-.49.17-.55s.16-.27.2-.47c.13-.72.23-.37.22.82-.01 1.23-.02 1.26-.43 1.1Zm14.97-.82c-.11-.51-.28-1.41-.37-2-.17-1.13-.2-1.16-.67-.98-3.02 1.15-6.99-1.25-7.71-4.65-.8-3.79 2.14-7.35 6.07-7.35.79 0 .77.06.48-1.12-.14-.57-.24-1.42-.3-2.68-.11-2.4-.35-3.26-1.35-4.96-.25-.41-.45-.78-.45-.8s-.2-.39-.45-.82c-.35-.6-.53-1.09-.8-2.15-.66-2.62-1.27-3.43-3.44-4.52-2.39-1.2-4.5-1.6-8.41-1.59-7.17 0-11.63 1.6-14.63 5.23-.96 1.15-2.68 4.06-2.46 4.13.18.06-.11 1.16-1.11 4.18-1.03 3.09-1.36 4.34-1.49 5.65-.17 1.65.24 3.65.92 4.48.6.74.71 1.31.47 2.32-.05.22-.17.85-.26 1.4s-.36 1.7-.6 2.55c-.45 1.58-.84 3.46-.84 4.08 0 .22-.04.32-.12.29-.16-.05-.12-.82.07-1.77.17-.84.17-.83-.39.05-.44.69-.66.91-.66.64 0-.06.11-.25.24-.42.48-.65.95-1.65 1.24-2.67.26-.89.62-2.31.62-2.45 0-.03-.13-.11-.29-.2L7.22 44l-.16.68c-.08.37-.17.9-.21 1.17q-.24 1.95-.36 1.95c-.16 0 .09-2.25.36-3.29l.14-.55-.39-.42c-.81-.88-1.15-1.94-1.07-3.33.06-1.1.94-4.74 1.46-6.03.68-1.7 1.31-3.96 1.31-4.67 0-1.5.77-3.41 2.42-5.97l.39-.62-.18-.88c-.33-1.64-.25-4.44.15-5.69.25-.78.36-1.42.52-2.9.35-3.35.5-3.8 1.89-5.66 1.55-2.08 3.88-3.79 6.36-4.68.45-.17.66-.3.83-.57.38-.59.94-.77 2.49-.82 1.19-.04 1.36-.02 1.66.16.28.16.52.2 1.33.2.55 0 1.28.06 1.64.15s1.1.23 1.65.33c2.6.43 5.48 2.07 7.17 4.08 1.71 2.03 2.31 3.52 2.57 6.37.07.87.14 1.14.34 1.45.51.78.68 1.85.87 5.64.08 1.45.08 2.42.01 3.25-.18 2.07-.17 2.22.27 2.74.93 1.11 1.27 1.86 1.41 3.18.05.48.15 1.39.22 2.01.06.62.15 1.14.18 1.17.04.02.06.73.05 1.57l-.03 1.53-1 .02c-5.61.09-8.02 6.7-3.76 10.33 1.53 1.31 3.23 1.68 5.31 1.15l.99-.25.28.3c.15.17.25.35.22.4s.01.2.09.32c.21.32.63 1.93.71 2.73l.07.65h-.31c-.24 0-.31-.04-.31-.19 0-.11-.04-.23-.1-.26-.06-.04-.1.05-.1.19 0 .54-.19.22-.4-.66Zm-27.25.62c.04-.06.22-.34.41-.63.18-.28.42-.74.51-1.02.25-.72.29-.31.08.77-.16.8-.28 1.08-.41.95-.02-.02 0-.17.06-.33l.1-.29-.28.33c-.26.29-.62.46-.47.22Zm1-.21c.6-1.87.1-5.54-1.13-8.23-.45-.98-.54-.89 1.68-1.51 2.79-.78 3.22-1.26 3.04-3.39l-.06-.83-1.37-.62c-3.3-1.49-5.39-3.09-5.73-4.37-.07-.24-.18-.44-.25-.44-.34 0-.87-1.66-.81-2.49.06-.61.43-1.71.6-1.71.06 0 .09.62.07 1.78-.01.97.02 1.87.07 1.99.06.14.09-.57.09-1.95 0-2.03.02-2.28.32-3.82.18-.91.35-1.85.38-2.1.27-1.87 1.51-4.81 1.83-4.32.07.1.13.08.27-.08.19-.21.35-.26.35-.12 0 .05-.2.34-.44.65-1.02 1.31-1.39 2.32-2.03 5.47-.49 2.45-.57 6.32-.14 7.28.57 1.26 3.12 3.03 6.32 4.36l.66.28.07.6c.27 2.65-.2 3.28-3 4.03-.54.15-1.02.3-1.06.34-.04.03.12.67.36 1.41.72 2.23 1.08 4.34.89 5.18-.15.62-.24.32-.28-.9-.03-1.18-.5-3.57-.74-3.81-.22-.22-.2.76.03 1.55.56 1.96.72 4.46.35 5.52-.15.43-.47.67-.34.25Zm27-1c-.23-1.12-.77-2.59-.96-2.59-.1 0-.04.39.29 2.15.26 1.4.42 1.58.24.29-.06-.38-.06-.73-.02-.78.1-.11.16.11.3 1.09.13.94.22 1.21.27.88.03-.13-.03-.59-.12-1.04ZM29.7 46.94c-.35-.91.17-4.1.91-5.56.35-.7.35-.63-.01-.78-.85-.35-1.24-1.2-1.24-2.72-.01-1.42-.11-1.29 1.6-2.01 3.89-1.63 6.42-4.14 6.7-6.64.09-.74.11-.78-.91 1.22-.92 1.78-1.01 1.93-1.11 1.82-.07-.07 1.83-3.79 1.99-3.89.08-.05.07-.65-.02-2.1-.07-1.12-.16-2.86-.2-3.88-.07-1.9-.11-2.11-.54-2.57-.26-.29-.14-.43.14-.17.52.45.62.94.7 3.19.04 1.16.12 2.86.19 3.8.15 2.08.09 2.85-.3 3.82-.94 2.36-3.25 4.3-6.87 5.79-1.19.49-1.13.41-1.13 1.53 0 1.84.47 2.49 2.2 3.01.67.2.68.12-.07 2.15-.59 1.61-1.08 2.65-1.22 2.65-.05 0-.13-.25-.17-.56-.11-.92.23-2.25 1.03-4.01.03-.07-.01-.13-.09-.13-.56 0-1.4 3.16-1.37 5.14.01.8.16.57.18-.26.01-.67.21-.6.21.07 0 .94-.39 1.65-.6 1.09Zm10.43-.49c-2.93-.79-4.62-3.96-3.6-6.77 1.74-4.81 8.75-4.51 9.92.43.91 3.88-2.55 7.35-6.32 6.34Zm2.57-.27c2.98-.71 4.51-4.27 3.08-7.12-1.45-2.88-5.52-3.46-7.83-1.12-3.54 3.58-.18 9.41 4.75 8.24ZM31.21 43.5c.43-2.08.45-2.4.11-1.73-.39.77-.64 1.69-.68 2.48l-.05.8.26-.55c.15-.3.3-.75.36-1Zm10.04.6c-.18-.06-.21-.19-.25-1.16l-.05-1.09-1.1-.05c-1.06-.05-1.1-.06-1.13-.28-.06-.41.12-.49 1.23-.57l1.05-.07v-.97c0-1.08.1-1.35.51-1.29.27.03.36.44.38 1.71l.01.67H43c1.08 0 1.11.01 1.22.25.21.46 0 .55-1.23.55H41.9v.93c0 1.33-.11 1.56-.65 1.37Zm-33.31-.36c.06-.24-.08-.9-.23-1.07-.04-.04-.15.18-.25.49-.17.54-.17.56.01.7.27.2.4.17.47-.12Zm33.68-.96.03-1.13 1.14-.07c.62-.04 1.16-.1 1.19-.13.16-.16-.32-.25-1.3-.25h-1.07l-.03-1.15c-.04-1.42-.22-1.6-.25-.25-.04 1.51.05 1.4-1.23 1.4-.96 0-1.35.08-1.18.26.03.02.56.07 1.19.11l1.14.08.03 1.13c.02.89.06 1.12.17 1.12s.15-.23.17-1.12ZM7.24 41.14c-.46-1.27-.82-3.26-.55-2.98.06.05.19.55.3 1.11.28 1.33.4 1.64.4 1.03.01-.25-.11-.81-.26-1.25-.24-.72-.27-.95-.27-2.27l-.01-1.48-.17.68c-1.23 4.78-1.23 5.95.05 7.3l.32.33.26-.78.26-.78zm10.46 1.77c0-.51-.29-1.31-.48-1.31-.41.01-.46.16-.23.62.17.31.21.35.17.16-.04-.17-.02-.28.04-.28.15 0 .3.44.3.86 0 .21.04.33.1.29.06-.03.1-.19.1-.34Zm25.76-7.23c-.03-.07-.07-.47-.1-.88-.07-1.02-.27-1.95-.37-1.78-.06.09-.12.02-.23-.22-.08-.19-.12-.39-.08-.45.03-.05.12.04.18.2.28.64.12-.01-.21-.89-.38-1.03-.39-1.06-.26-1.06.39 0 1.29 3.48 1.31 5.02 0 .2-.19.24-.24.06ZM5.94 34.1c.18-1.33 1.56-4.5 1.97-4.5.05 0-.11.37-.35.83-.76 1.39-1.19 2.57-1.4 3.8-.11.58-.3.47-.22-.13Zm3.36-6.94c.12-.43.19-.8.17-.82-.15-.15-.79 1.79-.91 2.76-.08.58.43-.73.74-1.94Zm30.83-5.31c.01-4.06-.24-6.26-.83-7.29-.24-.43-.3-.69-.39-1.66-.29-3.06-1.19-4.93-3.36-6.98-1.3-1.25-3.6-2.53-5.21-2.91-1.84-.44-3.72-.73-4.58-.7-.75.03-.87.01-1-.16-.18-.25-2.21-.29-2.99-.06-.43.13-1.07.66-1.07.9 0 .05-.28.18-.62.31-3.16 1.13-6.01 3.52-7.42 6.2-.45.87-.5 1.12-.92 5.23-.03.32-.21 1.08-.4 1.69-.38 1.23-.48 3.77-.21 5.31.14.82.15.82.76.1 1.98-2.38 4.11-3.71 7.23-4.53 4.96-1.3 10.66-1.29 14.44.01 3.34 1.15 4.63 2.38 5.24 4.99.32 1.38.39 1.58.79 2.33l.36.69.09-.49c.04-.26.08-1.6.09-2.98Zm-20.87-8.28c-.14-.1-.18-.43-.26-1.77-.11-2-.07-2.38.29-2.52.51-.19 2.06-.49 2.28-.43.29.07.3.39.03.58-.18.13-.19.2-.1 1.18.12 1.32.13 2.66.01 2.73-.04.03-.41.1-.82.16s-.86.12-1 .15c-.15.02-.34-.01-.43-.08Zm1.24-.3.75-.12-.02-1.89c-.02-1.69-.01-1.9.15-2.02.27-.21-.28-.17-1.28.09l-.85.23.01 1.54c.01 1.81.07 2.3.32 2.29.09 0 .51-.06.92-.12Z"/></svg>