<svg xmlns="http://www.w3.org/2000/svg" width="51" height="51" viewBox="0 0 51 51"><path fill="#fff" fill-rule="evenodd" stroke="#fff" stroke-width=".792" d="M24.66 38.04c-3.02-.97-4.72-5.97-4.53-13.32.16-5.95 1.6-10.08 3.91-11.22 1.81-.89 4.46-.37 5.85 1.16.81.89.79 1.23-.14 2.25-1.51 1.63-1.6 3.62-.24 4.97 1.54 1.51 3.83 1.07 4.76-.93.26-.56.28-.69.28-1.9 0-1.64-.32-2.65-1.46-4.57-.21-.35-.21-.68.02-.68.06 0 1.01.88 2.12 1.95s3.58 3.44 5.48 5.25c3.74 3.55 3.79 3.62 3.79 4.62 0 .92-.14 1.09-4.02 4.84-5.23 5.04-7.18 6.89-7.34 6.92-.3.07-.23-.27.2-1.02 2.29-4.02 1.43-7.78-1.79-7.8-1.81-.01-2.9 1.16-2.9 3.09 0 1.22.19 1.69 1.06 2.6.73.77.8.92.69 1.4-.38 1.7-3.64 3.06-5.74 2.39Zm2.76-.29c1.14-.28 2.2-1 2.59-1.76.29-.59.25-.75-.42-1.47-1.61-1.72-1.71-3.94-.24-5.36 1.18-1.15 3.35-1.16 4.5-.01 1.39 1.4 1.37 4.06-.06 6.89l-.5.98 3.48-3.33c7.33-7.02 7.52-7.23 7.53-8.1 0-.73-.39-1.24-2.37-3.09-2.1-1.96-4.16-3.94-6.68-6.4-2.11-2.06-2.14-2.08-1.65-1.24 1.63 2.78 1.71 5.73.2 7.24-1.28 1.28-3.39 1.2-4.59-.16-1.36-1.55-1.19-3.56.45-5.35.8-.88.64-1.52-.6-2.34-2.26-1.51-4.91-1.19-6.37.75-2.8 3.73-3.18 14.93-.68 20.08 1.2 2.47 2.86 3.29 5.41 2.67Zm-11.47-2.28c-6.37-6.13-8.82-8.53-9-8.81-.27-.42-.28-1.55-.01-2.08.11-.23 1.31-1.45 3.04-3.1 1.57-1.5 4.03-3.84 5.45-5.21 1.42-1.36 2.65-2.47 2.73-2.47.32 0 .24.32-.24.97-2.53 3.44-3.59 6.32-3.7 10.08-.13 4.69.91 7.86 3.93 11.97.28.37.27.58-.03.58-.09 0-1.07-.87-2.17-1.93Zm1.57.91c-2.56-3.47-3.78-7.45-3.58-11.66.18-3.77 1.31-6.78 3.82-10.19.19-.25-.01-.1-.56.42-8.86 8.4-9.84 9.36-10.07 9.79-.18.34-.2 1.25-.04 1.64.07.16 1.95 2.07 4.19 4.23s4.63 4.48 5.32 5.16c.68.67 1.26 1.2 1.28 1.18s-.14-.27-.36-.57Z"/></svg>