<svg xmlns="http://www.w3.org/2000/svg" width="51" height="51" viewBox="0 0 51 51"><path fill="#fff" fill-rule="evenodd" stroke="#fff" stroke-width=".793" d="M24.07 41.73c-1.15-1.69-3.68-5.43-5.62-8.31-4.29-6.35-4.74-7.18-5.31-9.82-.31-1.42-.26-4.13.09-5.53 2.56-10.2 15.09-13.72 22.52-6.32 3.78 3.77 4.91 9.25 2.95 14.33-.44 1.14-.92 1.93-3.36 5.52-1.22 1.79-3.59 5.3-5.28 7.8-3.79 5.6-3.61 5.34-3.78 5.38-.08.01-.96-1.2-2.21-3.05Zm2.37 2.71c.06-.15 1.24-1.92 4.91-7.32.78-1.14 2.46-3.62 3.75-5.52 3.72-5.47 4.3-6.9 4.3-10.49 0-11.56-13.92-17.45-22.24-9.41-3.77 3.65-4.99 8.59-3.35 13.55.57 1.73.99 2.43 4.93 8.25 1.95 2.89 4.44 6.57 5.52 8.18 1.09 1.6 2.01 2.92 2.05 2.92s.1-.07.13-.16Zm-.79-12.31c-7.99-.64-12.73-8.68-9.31-15.78C19.63 9.52 28.6 8 34.08 13.34c2.25 2.19 3.3 4.82 3.19 8-.2 5.76-4.34 10.21-10.03 10.76-.54.05-1.03.09-1.09.08s-.28-.03-.5-.05Zm2.62-.38c8.55-1.62 11.85-12.25 5.66-18.26-6.73-6.54-17.85-2.33-18.49 7-.47 6.9 5.98 12.56 12.83 11.26Zm-.41-2.28c-.12-.12-.55-.83-.96-1.57-2.12-3.9-1.72-3.63-5.92-4-2.4-.2-2.38-.2-2.38-.59 0-.37-.15-.25 4.65-3.68 2.31-1.65 4.87-3.48 5.7-4.08 1.85-1.34 2.09-1.48 2.35-1.4.39.12.41.36.15 1.52-.13.59-.63 3.04-1.1 5.43-1.02 5.12-1.6 7.85-1.73 8.21-.14.36-.49.43-.76.16Zm.63-.39c.13-.4 1.03-4.76 1.66-8.03.26-1.32.64-3.23.86-4.24.43-2.04.46-2.36.23-2.45-.2-.08.41-.49-5.49 3.74-2.8 2.01-5.52 3.95-6.02 4.3-.7.49-.93.71-.93.88 0 .12.01.22.02.22.02 0 1.02.09 2.24.2 2.53.22 3.52.41 3.94.76.36.31.84 1.08 1.85 2.94 1.17 2.17 1.4 2.41 1.64 1.68Z"/></svg>