<svg xmlns="http://www.w3.org/2000/svg" width="51" height="51" viewBox="0 0 51 51"><path fill="#fff" fill-rule="evenodd" stroke="#fff" stroke-width=".673" d="M38.45 49.34c-1.47-.76-3.02-1.72-3.97-2.46l-.37-.29-1.13.39C18.27 52.04 3.11 41.36 3.1 25.93 3.1 13.81 12 4.22 24.03 3.38c11-.77 21.16 6.82 23.38 17.47.15.68.3 1.16.41 1.25.22.2.42 2.89.32 4.37l-.07 1.01.59.06c1.25.14 1.43.17 1.56.33.17.21.25 10.17.09 11.5-.34 2.75-4.02 6.41-9.85 9.77-1.14.66-1.12.66-2.01.2Zm2.3-.67c5.28-3.16 8.7-6.46 9.26-8.92.15-.65.2-11.03.06-11.56-.06-.25-.1-.26-1.01-.33-2.48-.17-7.16-2.03-9.22-3.67l-.6-.48-.8.6c-1.89 1.42-6.36 3.25-9.04 3.69-.41.07-.78.18-.82.24-.12.18-.09 10.15.03 11.03.25 1.77 1.39 3.48 3.69 5.52 2.59 2.28 6.69 4.88 7.24 4.59.11-.06.65-.38 1.21-.71Zm-15.43-.85c.05-.05.01-.28-.07-.53-.23-.62-.21-1.19.05-1.7.26-.5 1.93-3.19 2.73-4.39l.54-.8-.13-.62c-.1-.47-.14-1.81-.14-5.13 0-2.47-.04-4.55-.08-4.62-.19-.3-2.12-.73-3.24-.73-1 0-1.97-.57-3.4-1.99l-1.17-1.17-.91.04c-.71.04-.9.02-.92-.09-.01-.08-.02-.43-.03-.79s-.07-.91-.15-1.22c-.23-.95-.11-1.08.98-1.08.93 0 1.45.21 1.96.78.36.41.59.07.71-1.02.1-.95.21-1.24 1.11-2.68.44-.7 1.05-1.7 1.36-2.22.56-.92.59-.95 1.27-1.26.66-.31.72-.36 1.05-1 .46-.86.45-.9-.11-1.4-1.33-1.17-1.86-1.08-3.73.6-.8.73-1.19.9-1.75.76-.27-.07-1.95-2.08-1.95-2.34 0-.07.28-.7.61-1.38l.62-1.25-.23-.42c-.49-.9-.58-.92-1.64-.43-.77.35-1.43.44-3.35.47-.95.02-.74.15-1.96-1.23-.71-.8-1.36-.91-2.05-.33-1.82 1.49-2.56 2.45-2.75 3.56l-.07.37 1.23.83c.67.46 1.3.95 1.4 1.09.22.3.49 2.06.83 5.43.18 1.82.28 2.43.41 2.64.42.65 2.05 2.02 2.05 1.73 0-.07-.18-.7-.41-1.41-.48-1.5-.47-1.62.13-1.53.51.07 1.01.55 1.97 1.88.6.83.61.84.76 1.92.17 1.2.48 2.27.74 2.53.1.1.5.22 1.01.3 1.07.16 1 .12 2.1 1.31l.93 1.01.01 2.02.01 2.03.73 1.03c.4.57.82 1.2.94 1.4l.21.37-.42 4.34c-.23 2.39-.44 4.51-.47 4.7-.02.2.01.41.08.5.17.2 1.18 1.04 1.43 1.19.21.12 1.03.07 1.17-.07Zm2.46.07c1.84-.2 5.6-1.13 5.94-1.47.04-.04-.25-.33-.66-.65-1.61-1.27-3.73-3.64-4.16-4.66-.18-.44-.21-.42-.96.72-2.72 4.14-2.8 4.32-2.42 5.49l.22.68h.53c.3 0 .97-.05 1.51-.11Zm-4.34-.21c-1.1-.82-1.14-.93-.94-2.68.2-1.77.7-7.21.7-7.58 0-.32-.15-.6-.9-1.7l-.9-1.31v-2.03l-.01-2.03-.93-.97-.94-.98-.98-.15c-.73-.12-1.03-.21-1.16-.35-.27-.33-.67-1.68-.8-2.74l-.12-.99-.72-.96c-1.06-1.4-1.06-1.4-1.43-1.51-.49-.14-.49-.12-.03 1.24.51 1.5.52 1.66.13 1.66-.34 0-.99-.49-1.77-1.31-.71-.76-.72-.78-.89-2.65-.17-1.83-.49-4.42-.66-5.4l-.11-.62-.76-.54c-.42-.3-1.01-.69-1.3-.87-.65-.41-.72-.54-.62-1.11.11-.59.12-.59-.47.18C.05 22.54 2.55 37.21 13.3 44.33c2.87 1.9 7.26 3.46 9.99 3.56l.44.01zm12.33-6.96c-.64-.64-1.17-1.22-1.17-1.28 0-.07 1.24-1.37 2.75-2.9l2.75-2.78-.37-.38c-.2-.21-.4-.38-.44-.38s-1.26 1.2-2.7 2.66c-1.45 1.46-2.72 2.7-2.82 2.76-.19.1-2.47-2-2.47-2.28 0-.14 3.73-3.98 4.93-5.07l.86-.78 1.08 1.11 1.08 1.1 1.05-1.05c.58-.58 1.1-1.05 1.15-1.05.13 0 2.35 2.22 2.35 2.34 0 .05-1.21 1.32-2.7 2.82-1.48 1.51-2.7 2.78-2.7 2.82s.19.26.43.48l.42.41 1.39-1.46c.77-.8 2.02-2.06 2.79-2.8l1.39-1.34 1.19 1.19c.65.65 1.19 1.23 1.19 1.29 0 .13-5.62 5.75-5.75 5.75-.06 0-.58-.5-1.16-1.12l-1.07-1.13-1.07 1.13c-.59.61-1.1 1.12-1.14 1.12-.03 0-.59-.53-1.24-1.18Zm10.55-5.16c-.73-.78-1.47-1.46-1.58-1.46-.08 0-2.86 2.77-4.68 4.66l-.68.72 1.03 1.06 1.03 1.07 2.72-2.72 2.73-2.73zm-8.27 4.94.98-1-.47-.5c-.25-.27-.46-.55-.46-.63 0-.07 1.22-1.38 2.72-2.91l2.71-2.77-.29-.28c-.16-.15-.64-.61-1.08-1.02l-.78-.74-.94 1c-1.1 1.17-1.05.99-.48 1.57.25.26.44.52.42.57-.01.05-1.26 1.34-2.76 2.87l-2.73 2.77 1.03 1.04c.56.57 1.05 1.03 1.08 1.03.04 0 .5-.45 1.05-1Zm.95-7.79c0-.17-1.79-2.01-1.95-2.01-.13 0-5.45 5.28-5.45 5.41 0 .04.46.53 1.02 1.08l1.03 1 2.68-2.67C37.8 34.05 39 32.79 39 32.71Zm-10.7-3.89c0-.86.08-1.02.52-1.02 1.26 0 5.08-1.28 7.51-2.52 1.86-.95 2.62-1.57 3.46-2.81l.69-1.04.65-.06c.48-.04.78-.14 1.14-.36 1.24-.77 1.19-.77 2.54.39l.81.7h.68c1.13 0 1.15-.03.8-1.5-.38-1.6-.7-2.5-.86-2.5-.18 0-.18-.01.16.94.46 1.28.14 1.44-1.07.52-1.05-.81-.9-.82-2.25.15-1.27.91-1.55.97-2.48.49-.75-.38-.65-.67.55-1.46.75-.49.87-.61 1.1-1.12.14-.31.31-.68.38-.82.16-.32.96-.93 1.74-1.31l.62-.31-.24-.47c-.7-1.37-2.54-3.72-3.94-5.03-7.76-7.24-19.06-8.13-27.9-2.2l-.85.57.44.06c.39.05.52.15 1.29.97l.86.92 1.65-.09c1.61-.09 1.67-.1 2.35-.45 1.11-.56 1.34-.47 1.94.72l.22.43-.61 1.23c-.74 1.52-.75 1.32.18 2.46 1.05 1.29 1.34 1.34 2.38.38 2.09-1.91 2.66-1.99 4.22-.62.61.53.62.64.21 1.47-.41.82-.52.93-1.31 1.33-.67.34-.68.35-1.4 1.56-.39.68-.95 1.6-1.24 2.05-.78 1.21-.83 1.33-.94 2.29-.07.65-.16.97-.35 1.26-.31.47-.32.47-.8-.03-.58-.59-.89-.72-1.73-.72-.92 0-.95.03-.75.83.08.36.15.93.14 1.28l-.02.62.86-.06.86-.07 1.22 1.2c1.6 1.58 2.1 1.85 3.82 2.01.67.06 1.48.2 1.8.31.98.31.95.33.95-.57Zm19.56-2.09c.07-.69-.03-4.2-.13-4.36-.03-.05-.5-.06-1.08-.02l-1.03.07-.99-.82c-1.23-1.03-1.07-1-2.06-.46-.61.33-.95.46-1.25.46-.61 0-.69.06-1.32 1.01l-.59.87.36.32c1.13.99 4.56 2.67 6.84 3.34 1.21.36 1.16.37 1.25-.41Zm-4.81-7.33c1.33-.96 1.22-.95 2.31-.15 1.2.88 1.16.9.73-.31l-.32-.87.24-.17.23-.18-.39-.87c-.67-1.52-.7-1.53-1.75-.91-.97.56-1.23.84-1.5 1.55-.24.66-.52.96-1.47 1.61-.83.56-.86.65-.31.9.78.35 1.01.29 2.23-.6Zm-14.72-7.51c-.46-.13-.58-.37-.97-1.88-.19-.73-.36-1.35-.38-1.36-.02-.02-.59-.21-1.28-.44-1.9-.62-2.02-.79-.93-1.35.24-.12.63-.47.91-.81l.48-.6.88-.03c.57-.02.96-.08 1.1-.17.22-.16 1.6-.2 2.46-.07.38.06.47.12.59.4.14.3.18.32.66.32 1 0 1.49.7.91 1.29-.43.44-.43.46-.1.94.33.49.26.65-.41 1.05-.42.25-.63.47-.91.95-.42.72-.48.77-.91.77-.28 0-.37.07-.68.55-.38.6-.62.67-1.42.44Zm1.23-.61c.34-.55.51-.68.9-.68.29 0 .36-.06.69-.65.3-.54.46-.71.91-.96.63-.36.61-.3.27-.96l-.28-.52.37-.38c.56-.58.35-.93-.56-.93-.65 0-.81-.08-.87-.45-.05-.26-.36-.33-1.59-.34-.74 0-1.12.04-1.3.14-.16.09-.55.14-1.05.15h-.8l-.45.58c-.27.34-.64.67-.93.82-.26.14-.47.28-.47.32 0 .08.92.43 1.93.72.96.28.89.18 1.22 1.56.44 1.84.53 1.98 1.37 1.99.34.01.4-.03.64-.41Zm-6.62-.75c-.51-.76-.7-.95-1.39-1.4-.96-.63-1.15-.84-1.15-1.29 0-.38.02-.39 1.13-.49l.68-.07.61.57c.33.31.86.69 1.17.83.66.32.74.58.64 1.94l-.06.78h-1.05zm1.44-.35-.03-1.03-.52-.25c-.29-.14-.77-.49-1.07-.79l-.55-.54-.76.06c-.42.03-.79.08-.83.11-.15.15.25.61.9 1.03.86.55 1.04.74 1.7 1.71.45.66.51.72.84.72h.35z"/></svg>