<svg xmlns="http://www.w3.org/2000/svg" width="51" height="51" viewBox="0 0 51 51"><path fill="#fff" fill-rule="evenodd" stroke="#fff" stroke-width=".484" d="M29.92 42.64c-2.12-.57-4.93-2.17-7.72-4.4-7.98-6.4-14.4-17.3-12.82-21.77.34-.96 1.9-2.83 2.73-3.27.14-.08.47.25 1.82 1.78.92 1.03 2.02 2.27 2.46 2.75 1.13 1.25 2.41 2.84 2.41 3 0 .08-.09.22-.19.31-.69.63-.88 2.4-.42 4.02.51 1.84 1.72 3.74 3.46 5.49 2.61 2.61 5.04 3.47 7.09 2.5.29-.14.56-.25.59-.25s.89.96 1.91 2.13l2.93 3.33c1.24 1.39 1.68 1.98 1.6 2.17-.09.25-1.67 1.44-2.31 1.76-1.21.59-2.43.75-3.54.45Zm2.09-.18c1.18-.25 3.49-1.7 3.49-2.18 0-.14-.52-.78-1.55-1.93-1.06-1.16-3.62-4.08-4.21-4.79l-.4-.49-.7.28c-2.24.91-4.7-.06-7.46-2.93-2.25-2.34-3.43-4.82-3.43-7.17 0-1.26.02-1.32.6-2.31l.19-.31-.86-1.04c-.47-.57-1.36-1.6-1.99-2.29a167 167 0 0 1-2.23-2.5c-.6-.69-1.15-1.28-1.21-1.32-.15-.09-1.68 1.38-2.14 2.05-1.17 1.71-.97 4.14.64 7.78 3.3 7.52 11.03 15.65 17.53 18.46 1.9.82 2.54.94 3.73.69Zm4.64-2.53c-.33-.08-.79-.58-4.51-4.84-3.26-3.74-3.2-3.51-1.23-5.28 1.47-1.32 2.08-1.57 2.67-1.09.47.39 6.21 6.99 6.52 7.51.25.41.25.81 0 1.22-.26.42-2.07 2.03-2.62 2.33-.42.22-.48.23-.83.15Zm1.12-.61c1.01-.8 2.22-2.03 2.28-2.32.11-.49-.34-1.06-5.02-6.35l-1.59-1.8-.47-.03c-.56-.04-.56-.03-1.93 1.19-1.53 1.36-1.58 1.6-.66 2.69 1.57 1.85 5.95 6.81 6.1 6.89q.54.315 1.29-.27Zm-.16-18.93-.23-.41-.37.36c-.46.45-.45.45-.65-.09l-.18-.45-.45.27c-.51.3-.63.23-.63-.35 0-.36-.1-.37-.73-.05-.34.17-.41.05-.35-.57.04-.41.04-.41-.27-.34-.72.17-.74.15-.64-.61.04-.3.03-.3-.38-.27-.6.05-.65-.02-.43-.54.11-.25.2-.48.2-.5s-.2-.04-.45-.04c-.59 0-.65-.17-.26-.73l.3-.45-.44-.11c-.54-.13-.58-.32-.15-.68.38-.32.38-.36-.06-.62-.42-.25-.4-.39.09-.67l.37-.2-.35-.34c-.42-.41-.43-.48-.07-.6.67-.25.65-.21.36-.63-.34-.51-.27-.67.31-.67h.45l-.2-.41c-.29-.56-.21-.72.35-.67l.45.03-.06-.49-.07-.49.52.07.51.07V8.7c0-.55.12-.62.6-.35.42.24.5.19.5-.29 0-.56.08-.61.53-.31.45.31.41.32.62-.15.22-.48.3-.49.71-.09l.31.3.23-.35c.27-.45.44-.45.72-.01l.23.34.32-.31c.32-.31.63-.28.63.06 0 .38.25.49.61.27.48-.29.56-.27.62.2.07.52.08.53.52.35.53-.23.55-.22.55.35 0 .56-.02.55.73.33.24-.07.31.18.19.66l-.1.4.48-.06c.59-.08.66.01.41.59l-.19.45.49.06c.56.08.59.16.24.69l-.26.37.26.1c.15.06.3.1.34.1.29 0 .29.28.01.59-.34.37-.33.43.1.61.27.11.44.49.23.5-.05.01-.21.12-.38.25l-.3.24.35.36c.34.35.34.37.16.51-.11.08-.28.14-.37.14-.3 0-.31.18-.05.56.31.45.28.5-.29.58-.25.04-.45.09-.45.1 0 .02.07.2.15.39.26.62.22.69-.36.65l-.51-.03.06.38c.04.21.07.44.09.5.02.13-.21.14-.68.03l-.3-.07.03.51c.04.56-.18.68-.66.34-.24-.16-.42-.12-.42.11 0 .08-.05.26-.1.4l-.1.27-.44-.26-.44-.26-.13.33c-.23.59-.29.61-.66.25l-.35-.33-.24.3c-.13.17-.24.33-.24.38 0 .21-.29.02-.49-.34Zm-18.08-.01c-.19-.09-6-6.7-6.6-7.52-.27-.36-.31-1.1-.08-1.43s2.35-2.13 2.71-2.31c.76-.36 1.04-.13 3.74 3.02.8.94 1.93 2.25 2.52 2.92 2.05 2.34 2.06 2.43.06 4.19-1.42 1.27-1.75 1.42-2.35 1.13Zm18.72-.29.27-.41.34.33c.18.18.35.31.38.28.02-.02.11-.19.2-.36.19-.38.38-.41.74-.12l.27.21.13-.46c.15-.52.18-.53.71-.26l.39.19-.02-.52c-.01-.56-.01-.57.62-.43l.33.08-.07-.39c-.03-.21-.07-.42-.08-.48 0-.05.2-.11.47-.13.52-.03.55-.08.31-.54-.19-.37-.02-.58.48-.58.33 0 .35-.09.08-.43-.3-.37-.25-.52.21-.66l.41-.13-.33-.35-.34-.35.4-.35c.22-.2.36-.37.3-.39-.67-.26-.74-.42-.39-.84.28-.33.23-.49-.17-.5-.34 0-.4-.24-.14-.63.32-.46.33-.44-.2-.51-.5-.08-.54-.16-.31-.71l.15-.35h-1.01l.06-.36c.04-.19.1-.42.13-.51.05-.13 0-.14-.28-.08-.63.14-.64.14-.67-.38-.03-.51-.05-.53-.42-.32-.45.26-.58.19-.66-.3-.07-.52-.06-.52-.52-.23-.39.24-.55.14-.69-.39-.07-.3-.14-.29-.48.07l-.29.31-.32-.38-.31-.37-.24.37c-.29.45-.42.46-.71.07-.28-.38-.34-.38-.48.06-.15.45-.32.51-.66.25-.37-.29-.44-.27-.44.19 0 .48-.16.58-.59.36-.45-.24-.5-.21-.53.31s-.04.52-.71.39c-.27-.06-.28-.05-.21.32.03.2.07.42.08.47 0 .06-.2.11-.46.13-.52.03-.54.05-.33.42.26.45.19.58-.3.66-.53.07-.52.05-.2.51.29.43.26.49-.26.64l-.4.12.31.32c.39.4.38.51-.06.77l-.36.21.36.2c.44.25.46.49.06.77-.39.28-.38.36.06.44.47.09.52.29.2.74l-.26.37.4.06c.56.08.65.2.46.57-.24.46-.2.52.3.52h.47l-.07.51-.07.5.38-.07c.21-.03.42-.07.48-.08.06 0 .09.2.07.51l-.03.52.45-.2c.56-.24.66-.2.66.32 0 .44.05.47.4.19.41-.32.65-.26.79.21l.13.41.32-.31c.41-.39.51-.39.78.04.28.42.2.43.53-.06Zm-17.63-.07c.58-.38 2.31-2.08 2.44-2.39.2-.47.04-.77-1.07-2.03-.51-.58-1.88-2.16-3.06-3.52-2.35-2.72-2.41-2.78-2.95-2.78-.32 0-.5.11-1.27.75-2.36 1.98-2.35 1.86-.31 4.2.53.61 1.83 2.11 2.9 3.35 1.06 1.24 2.03 2.33 2.14 2.42.27.23.84.23 1.18 0Zm19.28-4.43c-.55-.22-1-.89-1-1.5 0-.26-.02-.28-.19-.17-.17.1-.17.14-.05.32.55.85.48 1.39-.18 1.34-.38-.03-.41-.06-.61-.57-.3-.75-.45-.76-.49-.04l-.03.58h-.9v-3.2h.97c1.11 0 1.48.2 1.48.79v.31l.23-.39c.6-1.07 2.31-1.08 2.81-.02.71 1.49-.6 3.12-2.04 2.55Zm-5.95-.11c-.03-.08-.04-.81-.03-1.63l.03-1.49.4-.08c1-.21 1.95.26 1.95.97 0 .78-.23 1.05-1.04 1.2-.34.07-.35.08-.38.59l-.03.51-.43.03c-.28.02-.44-.01-.47-.1Zm7.34-.25c.7-.51.82-1.76.24-2.35-.65-.65-1.83-.47-2.24.34-.71 1.39.79 2.89 2 2.01Zm-6.57-.4.03-.58.47-.05c.64-.08.88-.32.88-.86 0-.59-.29-.78-1.27-.82l-.73-.04v2.92h.3c.28 0 .29-.01.32-.57Zm2.46-.05c.05-.88.61-.83.88.08.14.5.18.54.46.54.35 0 .34-.2-.02-.94-.19-.39-.19-.4 0-.67.57-.79.1-1.29-1.21-1.29h-.69v2.91l.28-.03c.26-.03.27-.06.3-.6Zm2.86.09c-.62-.54-.29-2.07.45-2.07.31 0 .7.39.81.81.27.99-.58 1.84-1.26 1.26Zm.9-.29c.38-.54.1-1.48-.43-1.48-.37 0-.52.2-.59.75-.09.82.61 1.32 1.02.73Zm-6.17-.75c-.15-.14-.07-.91.09-.97.24-.09.69.16.72.41.06.38-.57.81-.81.56Zm2.43-.46c0-.54.01-.55.48-.48.69.11.52.91-.2.91-.26 0-.28-.03-.28-.43Zm-1.85-.03c0-.12-.08-.2-.23-.22-.19-.03-.22.01-.22.27 0 .27.02.3.22.22.13-.05.23-.17.23-.27Zm2.39.2c.26-.1.2-.44-.08-.44s-.4.14-.32.35c.06.16.16.18.4.09Z"/></svg>