<svg xmlns="http://www.w3.org/2000/svg" width="51" height="51" viewBox="0 0 51 51"><path fill="#fff" fill-rule="evenodd" stroke="#fff" stroke-width=".458" d="M12.1 51.1c-2.78-.06-3.24-.09-3.92-.28C4.26 49.74 1.47 46.9.32 42.8l-.27-.95-.03-15.99C-.01 8.23-.04 9.19.61 7.32 1.87 3.72 5.15.83 8.66.23 8.98.18 7.74.13 5.05.1 2.79.07 12.22.05 26 .05S49.03.07 46.55.1c-2.47.03-4.38.06-4.23.08.15.01.63.13 1.07.27 4.49 1.42 7.62 5.45 7.77 10l.03 1.2-.14-1.1C50.34 4.95 47.21 1.42 42 .33 41.21.17 40.09.15 26.7.12 11.7.09 10.23.12 8.49.5 4.23 1.43 1 4.98.28 9.5c-.19 1.23-.19 30.26 0 31.77.68 5.35 4.53 9.13 9.81 9.63 1.48.14 29.49.13 31-.01 2.71-.25 4.83-1.23 6.68-3.08 1.88-1.88 2.78-3.81 3.22-6.87.17-1.21.19-1.25.2-.63.09 5.19-4.35 10.21-9.49 10.73-.82.08-25.96.13-29.6.06Zm-1.35-4.14c-.3-.3-.4-.93-.31-2.12.08-1.22.05-1.29-1.35-2.66-1.49-1.47-1.69-1.95-1.02-2.48.56-.44.85-.31 2.12.95l1.17 1.15 1.04-1.06c1.37-1.39 1.9-1.6 2.4-.96.48.6.34.89-1.15 2.42l-1.35 1.38v1.55c0 1.53 0 1.54-.26 1.81-.36.35-.95.36-1.29.02Zm6.31 0c-.73-.31-1.47-1.02-1.84-1.76-.39-.79-.41-2.97-.03-3.73 1.26-2.53 5.02-2.62 6.27-.15.56 1.1.54 3.04-.03 4.09-.81 1.5-2.81 2.21-4.37 1.55Zm7.16.03c-.68-.27-1.45-1.03-1.8-1.76-.27-.58-.27-.59-.27-2.91v-2.34l.28-.24a.92.92 0 0 1 1.24 0l.28.24.05 2.14c.04 1.79.08 2.18.23 2.45.56 1.04 2.17 1 2.72-.07.08-.16.15-.96.2-2.3.04-1.13.12-2.14.18-2.25.28-.54.89-.6 1.39-.16l.33.29v2.19c-.01 2.52-.1 2.92-.9 3.8-.91 1.02-2.65 1.43-3.93.92Zm6.01.11c-.53-.21-.54-.31-.51-3.85l.03-3.27.28-.24c.4-.34.9-.32 1.28.05l.29.29v6.6l-.31.26c-.31.27-.66.32-1.06.16Zm3.26-1.48c-2.3-2.32-2.3-2.27.09-4.65 1.68-1.66 1.97-1.8 2.56-1.21.56.57.43.87-.99 2.32l-1.24 1.28 1.15 1.15c1.34 1.31 1.53 1.63 1.29 2.13-.18.37-.5.56-.98.56-.27 0-.51-.2-1.88-1.58Zm5.81 1.49c-1.05-.34-1.98-1.26-2.3-2.28-.26-.83-.3-4.2-.06-4.78.25-.59.93-.74 1.43-.31l.28.24.05 2.14c.07 2.77.27 3.18 1.6 3.18s1.59-.52 1.6-3.13c0-2.35.12-2.67 1.03-2.67.75 0 .97.59.97 2.55-.01 2.91-.52 4.1-2.08 4.83-.6.28-1.98.41-2.52.23Zm-27.46-.32.26-.2v-3.12l1.29-1.31c1.37-1.39 1.55-1.7 1.3-2.15-.11-.2-.24-.27-.53-.29-.36-.03-.43.01-1.6 1.17l-1.21 1.2-1.21-1.19c-1.29-1.28-1.49-1.39-1.95-1.02-.5.41-.35.7 1.14 2.21l1.37 1.38v1.56c0 1.44.02 1.59.2 1.77.26.26.6.25.94-.01Zm8.01-.18c1.32-.65 1.79-1.59 1.73-3.46-.03-1.06-.07-1.26-.3-1.71-1.26-2.41-4.96-2.22-5.94.31-.28.74-.27 2.61.03 3.26.8 1.75 2.75 2.45 4.48 1.6Zm6.65.23c1.84-.54 2.3-1.48 2.3-4.65v-2.08l-.26-.2c-.33-.26-.55-.26-.85-.02-.24.19-.24.23-.29 2.28-.06 2.35-.13 2.65-.79 3.08-.71.47-1.57.42-2.23-.13-.52-.44-.58-.71-.58-2.82 0-2.09-.08-2.44-.56-2.56-.34-.09-.72.1-.84.42-.15.39-.13 3.8.03 4.41.47 1.82 2.25 2.81 4.07 2.27Zm4.73-.16c.15-.18.17-.5.17-3.35v-3.14l-.25-.24c-.29-.3-.64-.32-.96-.06l-.24.19-.03 2.99c-.02 1.64 0 3.13.03 3.3.11.6.88.79 1.28.31Zm4.71.11c.53-.42.41-.68-1.03-2.13l-1.3-1.31 1.3-1.37c1.38-1.47 1.49-1.69 1.07-2.08-.52-.48-.95-.19-2.93 1.96-1.44 1.55-1.45 1.43.28 3.27 1.8 1.91 2.07 2.09 2.61 1.66Zm5.71-.08c.65-.28 1.38-1.01 1.67-1.65.35-.77.41-4.67.08-5.09-.26-.32-.67-.36-1.01-.08-.24.19-.24.23-.29 2.33-.04 1.92-.07 2.17-.26 2.48-.72 1.23-2.57 1.15-3.15-.14-.16-.35-.19-.68-.19-2.39 0-1.97 0-1.98-.25-2.22-.31-.32-.65-.32-.96.01-.33.35-.37 4.01-.06 4.91.6 1.72 2.71 2.6 4.42 1.84ZM17.8 45.48q-1.245-.345-1.23-2.19c.01-1.3.48-1.98 1.49-2.15 1.29-.2 2.14.66 2.14 2.16 0 1.65-1.02 2.57-2.4 2.18Zm1.4-.41c1.02-.68 1.06-2.87.07-3.47-.81-.5-1.99-.16-2.33.67-.21.49-.18 1.81.05 2.23.41.79 1.49 1.06 2.21.57Zm-.69-9.02c-4.68-1.02-6.5-6.88-3.18-10.27.77-.79 1.04-.97 4.47-2.93 4.05-2.31 3.99-2 .78-3.81-4.2-2.37-4.28-2.42-5.09-3.23-4.93-4.92.84-13.01 7.06-9.89.69.35 1.36.73 6.25 3.56 9.05 5.23 8.88 5.12 10.03 6.93 2.34 3.68 1.15 8.81-2.61 11.23-1.31.85-12.27 7.16-13.52 7.79-1.46.73-2.76.93-4.19.62Zm2.88-.32c.3-.07.91-.33 1.35-.56.84-.44 11.53-6.6 12.4-7.14l.48-.3-1.18-.7c-.66-.39-1.53-.89-1.94-1.13-.41-.23-1.31-.75-2-1.15-3-1.75-7.2-4.15-7.24-4.15-.02 0-.09.15-.15.33-.13.38-.11.36-3.46 2.27-2.91 1.66-3.47 2.03-4.12 2.69-1.86 1.89-2.22 4.85-.86 7.09 1.43 2.36 4.07 3.44 6.72 2.75Zm15.97-9.37c1.73-1.73 2.38-3.3 2.39-5.71 0-3.05-1.26-5.21-3.97-6.84C34.06 12.78 23 6.4 22.44 6.12c-4.49-2.26-9.62 1.86-8.39 6.73.58 2.31 1.34 3 6.25 5.77 1.51.86 3.9 2.22 5.3 3.03s4.15 2.4 6.09 3.53c1.95 1.12 3.68 2.13 3.85 2.23.41.25.68.09 1.82-1.05Z"/></svg>