<svg xmlns="http://www.w3.org/2000/svg" width="51" height="51" viewBox="0 0 51 51"><path fill="#fff" fill-rule="evenodd" stroke="#fff" stroke-width=".621" d="M38.87 50.58c-.44-.05-1.11-.2-1.5-.34-.4-.14-.86-.3-1.03-.35-.33-.1-.69-.41-1.13-.98-.24-.32-.26-.42-.26-1.38 0-.57-.02-1.03-.05-1.03-.02 0-.45.16-.95.35-5.63 2.17-11.23 2.14-16.95-.09-.12-.05-.15.05-.15.56 0 .82-.21 1.18-1.09 1.82-.51.37-.77.5-1.02.49-.18-.01-.35.05-.38.12-.06.17-1.97.62-3.16.75-2.2.23-5.53.07-6.6-.32-.3-.11-.82-.29-1.15-.39-.75-.24-.84-.32-1.26-.99l-.33-.54V46.7c.02-3.65.01-3.46.3-4.01.15-.27.48-.69.74-.93.27-.26.53-.62.64-.9.1-.25.3-.56.45-.68.23-.19.36-.53.8-2.1l.53-1.87-.52-1.12C.11 24.86 3.63 12.58 13 6.51c14.69-9.52 34.06.02 35.41 17.44.29 3.85-.63 8.7-2.21 11.51l-.29.51.53 2.09c.49 1.99.54 2.11.89 2.46.26.26.37.45.37.66 0 .27.07.35.56.63.84.48 1.06 1.11.96 2.79-.01.08.01.88.04 1.78.04.89.03 1.74 0 1.88-.14.53-1.66 1.85-1.66 1.44 0-.05-.07-.07-.15-.04s-.13.11-.12.17c.12.63-5.34 1.11-8.46.75Zm5.76-.62c1.67-.28 3-.8 3.51-1.37.62-.69.63-.78.43-4.5-.05-1.12-.49-1.88-1.21-2.12-.05-.02-.12-.23-.15-.48-.05-.38-.11-.47-.43-.64-.43-.23-.45-.28-1.03-2.4-.63-2.29-1.65-8.53-1.65-10.06 0-.43.03-.51.25-.59.45-.17.45-1.19-.01-1.12-1.26.19-4.13.07-4.38-.18-.13-.13.21-.13 1.44.01.52.05 1.36.07 1.85.04l.9-.07.01-.51c.01-.35.24-1.22.72-2.67.39-1.18.7-2.16.68-2.18-.02-.01-.62.01-1.33.06-1.83.12-4.4-.03-5.68-.34-.19-.05-.12.21.62 2.47.94 2.87.93 2.8.53 3.26-.43.48-.24 1.33.3 1.33.17 0 .12.73-.25 3.71-.67 5.37-1.41 8.57-2.12 9.17-.23.19-.24.22-.05.13.14-.08.22-.08.22-.01 0 .05-.04.1-.09.1-.19 0-.41.32-.41.61 0 .22-.08.34-.38.53-.9.56-1.46 1.7-1.23 2.47.09.29.09.44 0 .61-.06.12-.13.85-.16 1.67l-.05 1.46.47.47c1.14 1.15 5.35 1.7 8.68 1.14Zm-33.68-.11c3.14-.42 4.9-1.2 5.15-2.3.19-.81.12-2.7-.1-2.9-.16-.15-.19-.29-.17-.94.02-.89-.12-1.23-.72-1.7-.34-.27-.44-.3-.61-.21-.24.13-.24.11-.06-.25.19-.36.05-.67-.39-.88-.18-.09-.36-.24-.39-.34-1.01-3.34-1.89-7.67-2.36-11.62l-.12-.93.31-.27c.17-.14.33-.37.36-.51.11-.5.01-.53-1.97-.55-1-.01-2.09-.08-2.41-.14-1.36-.28-1.61.55-.41 1.37.14.09.15.14.06.18-.07.03-.12.25-.12.52 0 1.19-.55 5.18-.98 7.14-.16.7-.25 1.25-.2 1.22.16-.1-.04.76-.57 2.5-.19.65-.35 1.19-.35 1.22 0 .02-.11.04-.23.04-.13 0-.32.1-.43.23-.1.12-.12.16-.04.1.25-.23.28-.14.08.25-.12.23-.17.48-.14.66.05.25.03.28-.15.23-.3-.08-.9.5-1.18 1.15-.13.29-.27.6-.31.68s-.02.29.03.47c.07.23.07.44-.01.72-.25.81-.14 3 .17 3.51.71 1.17 4.69 1.82 8.26 1.35Zm17.74-1.81c1.49-.22 3.46-.74 4.97-1.32l1.29-.49.12-.64c.06-.35.09-.84.06-1.09s0-.63.06-.85c.1-.37.09-.41-.27-.89-1.01-1.38-1.16-1.86-.66-2.25.52-.41.87-.26 1.49.66l.45.67-.23.26c-.12.14-.03.07.21-.15.23-.21.42-.47.42-.58 0-.28.26-.72.54-.91.77-.5 1.47-3.77 2.26-10.51l.19-1.59-.32-.27c-.42-.35-.48-1.4-.09-1.81.31-.33.32-.26-.64-3.15l-.85-2.58.1-.73c.17-1.12.2-1.16.98-1.08.58.06.66.05.82-.15.16-.21.21-.21.64-.11.63.16.67.16.67-.14 0-.86.31-1.17 1.98-1.99 1.83-.9 2.08-.96 2.38-.63.39.42.39.76.01 1.12-.4.38-2.17 1.21-2.17 1.02 0-.07.29-.25.64-.4 1.45-.62 1.89-1.13 1.38-1.59-.24-.22-.42-.16-2.17.69-1.17.58-1.35.69-1.1.71.93.09 1.25.37 1.25 1.09 0 .43.36.56 1.39.48.79-.06.91-.05.97.1.03.09.14.16.24.16.29 0 .41.25.47.92.03.39.11.68.2.75.14.11.14.17-.02.55-.21.52-1.15 3.36-1.15 3.49 0 .05.47.09 1.05.09 1.17 0 1.45.14 1.45.72 0 .61-.35.78-1.6.78-1.06 0-1.1.01-1 .19.05.11.1.35.11.53.01.31.01.31.09.08.07-.22.08-.21.09.13.01.41-.2.91-.44 1.04-.23.13.16 3.37.78 6.58l.14.7.42-.88c.51-1.06 1.11-2.87 1.41-4.22 2.56-11.79-4.31-23.33-15.93-26.74-3.53-1.04-8.17-1.09-11.93-.11C8.13 6.73.87 18.57 3.46 30.4c.45 2.06 1.76 5.52 1.95 5.17.16-.28.58-2.87.84-5.16l.27-2.33-.37-.38c-.3-.31-.37-.45-.38-.84l-.02-.46h-.86c-.98 0-1.25-.13-1.35-.65-.12-.63.21-.84 1.4-.87l1.03-.03-1.08-2.3c-1.27-2.7-1.26-2.64-.56-3.32.66-.66.87-.73 2.08-.73h1l-.03-.32-.03-.33-.7-.05-.7-.05-.09-.99c-.12-1.28-.09-1.32.8-1.29l.69.02v-1.24l1.25-.03c.69-.02 1.39 0 1.57.03l.32.06.03.77.03.77.7.05c.6.04.7.08.73.25.02.11.08.3.14.42s.08.49.06.84c-.06.81-.2.93-1.06.85-.56-.06-.62-.05-.62.12 0 .2.51.31 1.4.32.88.01 2.18 1.2 2.05 1.89-.03.2-.06.5-.06.66-.01.41-1.82 4.51-1.98 4.47-.07-.01-.11.03-.08.1.02.07.12.12.21.11.74-.06.65 1.94-.09 2.13-.22.05-.23.08-.11.18.11.08.22.6.36 1.71.39 2.97 1.15 6.73 1.76 8.75.14.46.28.97.3 1.13.02.15.18.42.39.61.19.18.35.42.35.53 0 .1.16.34.35.53.23.22.35.29.35.19 0-.21.86-1.09 1.07-1.1 1.19-.08 1.32.69.33 1.96-.48.62-.79 1.82-.5 2 .06.03.1.46.1.95v.9l.34.14c3.35 1.4 8.16 2.02 11.65 1.5Zm-3.34-.34c-.46-.18-.5-.34-.53-2.23-.05-2.33.06-2.67.81-2.67.71 0 .77.19.77 2.47v2.01l-.31.26c-.32.28-.42.3-.74.16Zm18.78-.17c.03-.05.46-.15.94-.23.97-.14 1.98-.42 2.55-.71.41-.21.58-.24.58-.1 0 .13-1.11.59-1.93.8-.9.24-2.23.38-2.14.24Zm-18.09-.25c.13-.18.16-.56.16-2.03 0-1.97-.07-2.25-.55-2.25-.51 0-.55.15-.55 2.29 0 1.4.03 2 .12 2.09.2.2.65.14.82-.1Zm14.41.16c-2.92-.32-5.16-1.43-4.32-2.13.19-.15.28-.03.14.2-.31.5 1.17 1.2 3.27 1.54 2.42.39 6.26-.02 7.98-.85.24-.11.46-.16.51-.11.1.1-.77.52-1.54.75-1.48.44-4.61.75-6.04.6Zm-28.39-.23c-.04-.06.1-.13.31-.16 1.18-.21 1.85-.41 2.96-.89.2-.09.37-.12.37-.06 0 .22-1.75.91-2.65 1.05-.22.04-.52.09-.67.11-.14.03-.29.01-.32-.05ZM7 47.14c-2.57-.37-4.2-1.03-4.2-1.7 0-.14.06-.24.15-.24s.12.06.09.15c-.12.31.4.66 1.52 1.03 2.75.9 7.64.69 10.23-.44.64-.29.84-.3.53-.04-1.02.85-5.93 1.58-8.32 1.24Zm32.88-1.19c-.82-.14-1.47-.32-1.62-.46-.2-.18.02-.17.74.02 1.84.49 4.41.29 5.43-.43.39-.28.49-.12.12.18-.83.66-2.95.98-4.67.69ZM6.4 45.6c-.47-.1-.97-.23-1.12-.29-.34-.13-.38-.36-.05-.27 2.04.59 3.69.67 5.17.28.88-.24 1.7-.64 1.7-.84 0-.09.04-.08.13.01.28.28-.84.87-2.23 1.17-.9.19-2.57.17-3.6-.06Zm33.75-1.66c-1.43-.21-2.81-.7-3.19-1.12-.16-.19-.17-.22-.03-.22.09 0 .19.05.23.11.03.06.3.22.59.35 2.27 1 6.81.91 9.02-.18.68-.33.92-.33.45.01-1.11.79-4.96 1.36-7.07 1.05Zm-33.31-.28C5.4 43.38 4 42.88 4 42.64c0-.18.02-.18.43.06 1.92 1.13 7.38 1.11 9.72-.05.55-.27.73-.24.35.05-1.09.83-5.47 1.38-7.66.96Zm33.02-.36c-.83-.18-1.17-.32-1.04-.45.03-.03.16-.01.3.04 1.11.42 2.86.44 4.56.05.75-.17.72-.16.72-.05 0 .46-3.03.73-4.54.41Zm-32.61-.16c-1.16-.21-1.68-.37-1.73-.53-.03-.1 0-.12.12-.08 1.12.43 3.45.54 5.09.23.97-.18 1.35-.16.82.04-.97.37-3.21.55-4.3.34Zm9.79-.86c.52-.69.61-1.19.27-1.38-.35-.18-.56-.11-1 .34l-.44.45.27.32c.15.17.3.45.33.6.07.37.04.39.57-.33Zm18.64-.11.25-.37-.38-.56c-.48-.69-.74-.83-1.1-.6-.38.25-.32.59.27 1.49.44.67.53.76.61.6.05-.1.21-.35.35-.56Zm7.32-.89c0-.68-.05-1.84-.1-2.58-.33-4.73-.41-5.96-.47-7.74-.05-1.69-.04-1.98.08-1.94.11.04.15.47.21 2.14.03 1.15.16 3.44.27 5.09.29 4.27.35 5.48.27 5.89-.14.74-.26.34-.26-.86Zm-32.83-.5c-.12-2.85-.28-5.27-.47-7.4-.21-2.25-.26-4.58-.11-4.58.04 0 .11.6.15 1.32.04.73.15 2.32.26 3.53.24 2.77.54 8.31.45 8.45-.17.27-.22-.01-.28-1.32Zm-3.67.49c0-.08.11-.68.24-1.33.54-2.64.84-5.43.93-8.62.05-1.99.12-2.47.3-2.29.18.19-.27 6.79-.62 9.07-.29 1.85-.85 3.94-.85 3.17Zm32.93-.29c.55-2.2 1.17-7.65 1.17-10.28 0-.99.08-1.5.23-1.5.43 0-.46 9.11-1.13 11.59-.11.42-.37.6-.27.19Zm-25.46-4.3c-.35-1.85-1.07-6.24-1.07-6.52 0-.71.2 0 .45 1.59.14.94.42 2.53.61 3.55.35 1.9.4 2.3.26 2.3-.04 0-.15-.42-.25-.92Zm26.79-8.57c-.05-.07.06-.11.31-.12l.38-.01-.35-.1c-.63-.18-.9-.3-.9-.4 0-.06.11-.07.28-.03.89.25 1.85.22 2.58-.05.15-.06.29-.09.31-.06.1.1-.46.36-.97.46-.88.17-.72.23.4.15.87-.05 1.03-.04.92.07-.17.17-2.86.25-2.96.09Zm-32.92-.65c-.51-.16-.66-.25-.59-.36.03-.04.26-.02.52.06.25.08.72.14 1.03.14s.78-.06 1.03-.14c.4-.12.73-.07.5.07-.54.33-1.8.44-2.49.23Zm17.01-.88c-.2-.17-.52-.63-.72-1.02s-.61-1.16-.93-1.71c-.54-.94-2.81-5-6.58-11.75-2.45-4.41-2.49-4.48-2.32-5.12.28-1.01 1.75-.92 2.45.16.18.28 1.42 2.47 2.76 4.86 3.8 6.83 4.01 7.21 4.04 7.18.01-.02-.06-.59-.16-1.28-.68-4.59-.69-5.01-.13-5.49.87-.77 1.92-.23 2.13 1.11.2 1.22 1.51 11.73 1.51 12.08 0 1.09-1.25 1.69-2.05.98Zm1.31-.07c.61-.37.61-.33-.01-5.27-1.12-8.94-1.05-8.53-1.56-8.8-.58-.3-1.28-.05-1.5.53-.17.45.92 8.01 1.57 10.96.32 1.43.36 1.83.18 1.64-.03-.03-.17-.54-.31-1.13-.28-1.17-.65-1.89-3.3-6.44-.66-1.13-1.77-3.04-2.48-4.25-.7-1.21-1.61-2.75-2.01-3.43-.41-.68-.74-1.25-.74-1.28 0-.15.28.01.41.24.09.15 1.19 2.02 2.44 4.17 1.26 2.14 2.93 5.02 3.72 6.4 1.55 2.68 1.54 2.66 1.48 2.38-.02-.1-.12-.63-.21-1.18-.19-1.14-.28-1.32-1.89-4.2-1.71-3.06-3.42-6.12-4.46-7.99-1.2-2.15-1.6-2.53-2.45-2.32-1.02.26-.89.65 1.76 5.41 3.08 5.53 6.46 11.57 6.8 12.15.21.36.53.97.73 1.35.59 1.18 1.13 1.49 1.83 1.06Zm-20.21-.58.34-.27-.2-.28c-.43-.59-2.39-.35-2.39.29 0 .59 1.61.77 2.25.26Zm6.17-2.26c.59-1.38 1.1-2.59 1.13-2.67.05-.13-.25-.15-2.33-.12-1.96.03-2.73 0-4.31-.18-1.06-.12-1.95-.19-1.97-.17-.03.03.32.83.76 1.78C6.52 24.68 7 25.76 7 25.88c0 .06.26.13.58.17.31.04.62.08.67.1s.71.04 1.45.04l1.35.01zm35.17 2.34c.6-.6.17-.92-1.16-.89l-1.05.03-.13.39c-.08.22-.12.44-.09.5s-.02.02-.1-.08c-.09-.11-.16-.15-.16-.1 0 .39 2.33.51 2.69.15Zm-3.01-5.1c.1-.06.11-.22.06-.58l-.06-.5-.9.22-.89.23-.45-.2c-.38-.16-.57-.18-1.18-.13-.55.05-.84.03-1.2-.09-.64-.22-.76-.21-.76.09 0 .14.05.25.12.25.08 0 .06.07-.05.18-.23.22-.35.05-.29-.44.06-.45.17-.49.91-.3.44.11.83.14 1.36.09.61-.05.83-.03 1.16.12.39.18.44.18 1.07.02 1.2-.31 1.42-.2 1.42.7 0 .36 0 .36.38.29.2-.03.45-.06.55-.06.13 0 .17-.08.17-.37 0-.62-.1-.83-.36-.83-.15 0-.24-.06-.24-.16 0-.13-.1-.14-.69-.08-.54.05-.79.03-1.15-.11s-.5-.15-.58-.07c-.18.18-1.39.15-2.08-.05-.59-.16-.61-.16-.83.04-.19.19-.28.2-.76.12-.66-.1-.6-.16-.68.63l-.06.65 1.14.17c1.55.22 1.64.23 3.29.24.8.01 1.51-.02 1.58-.07Zm-31.95-.28c1.22-.07 1.22-.07.61-.78-.45-.53-.46-.54-1.12-.6-.37-.03-.91-.08-1.2-.11l-.52-.05v-.5c0-.77-.19-.57-.22.23l-.03.73-.7.03c-1.14.05-1.55-.04-1.55-.35v-.26l-1.12.07c-.62.04-1.13.08-1.13.09 0 .02-.22.25-.48.53l-.48.51 1.31.18c2.49.33 4.52.41 6.63.28Zm-5.07-.83c-.54-.11-1.01-.22-1.04-.25-.16-.16.21-.15 1.3.02.96.16 1.53.2 2.58.16.9-.03 1.32-.02 1.25.05-.21.21-3.02.22-4.09.02Zm2.39-1.25v-.8l.55-.03c.84-.04.99-.09.93-.32-.09-.34.08-1.01.17-.7l.08.25.01-.27.01-.27-.87-.03-.88-.03-.03-.39c-.04-.48.14-.72.23-.3.11.5.13.5.14.04.01-.25.04-.55.07-.67.04-.14.02-.23-.05-.23-.06 0-.11.11-.11.25s-.04.25-.1.25c-.05 0-.1-.11-.1-.25 0-.22-.04-.25-.34-.25-.18 0-.61-.03-.95-.06l-.61-.07V16H6.4v1.27l.72.09.73.09.03.92.03.92.72.04c.4.02.79.03.87.02.12 0 .15-.16.15-.8Zm24.46-7.81c-.4-.51-.39-.54 1.21-2.55 1.27-1.61 1.45-1.73 2-1.29.59.46.45.83-1 2.62-1.29 1.61-1.72 1.84-2.21 1.22Zm.97-.12c.23-.19.89-.99 1.75-2.11.65-.84.73-1.2.32-1.47-.38-.25-.55-.11-1.72 1.34-1.35 1.69-1.42 1.82-1.2 2.16.2.31.55.34.85.08Zm-9.95-2.36-.28-.24-.03-1.89c-.03-2.05.02-2.28.51-2.51.32-.15.6-.09.87.21.34.36.3 4.08-.05 4.42-.31.32-.66.32-1.02.01Zm.7-.07c.36-.19.37-.26.37-2.14 0-2-.06-2.25-.59-2.25-.49 0-.51.09-.51 2.21 0 1.93.01 1.98.22 2.13.27.19.24.19.51.05Z"/></svg>