<svg xmlns="http://www.w3.org/2000/svg" width="51" height="51" viewBox="0 0 51 51"><path fill="#fff" fill-rule="evenodd" stroke="#fff" stroke-width=".592" d="M.2 45.95c0-.13.67-.15 5.52-.15h5.51l1.21-1.18c1.89-1.85 2.62-2.42 3.65-2.85.87-.37.9-.39.96-.77s.08-.39.53-.42l.47-.03.05-.85.05-.85h1l.03.5c.01.27.04.65.07.82l.06.33.38-.19c.47-.25 5.31-2.39 7.03-3.12l1.28-.54-6.26-.03c-6.13-.02-6.26-.02-6.51.18-.38.3-3.58.31-3.94.01l-.24-.19.01-3.77c.01-3.37.03-3.79.18-3.93.15-.15.6-.17 4.29-.19 2.27-.02 4.18-.03 4.25-.03.09 0 .12-.51.12-2.2v-2.19l-4.05-.03c-3.63-.03-4.06-.05-4.21-.2-.25-.25-.22-6.66.03-6.86.12-.08.66-.12 1.84-.12 1.93 0 1.99.03 1.99.92v.48h4.4v-.53c0-.83.08-.87 1.81-.87h1.44l-.03-3.64-.03-3.63.23-.07c.13-.03.38-.06.56-.06.29 0 .32-.03.32-.3 0-.37.1-.38-1.01.13-.52.24-1.59.68-2.39.97-1.97.71-8.22 3.12-13.66 5.25-4.97 1.95-4.65 1.84-4.7 1.7-.02-.06 1.21-.6 2.73-1.19 6.27-2.45 10.51-4.1 13.18-5.11.77-.29 1.52-.58 1.67-.64.34-.13.21-.57-.18-.67-.13-.04-.24-.15-.26-.27a.28.28 0 0 0-.25-.25c-.39-.06-.35-1.49.05-1.54.19-.02.28-.09.3-.26.02-.14.1-.22.23-.22.11 0 .22-.07.25-.15.04-.09.19-.15.38-.15.45 0 .54-.1.58-.6.03-.44.04-.45.4-.48.35-.03.37-.05.4-.4.03-.32.07-.37.31-.4.21-.03.27-.09.27-.28s.05-.24.24-.24c.18 0 .27-.08.35-.3.09-.26.14-.3.35-.24.21.05.25.02.28-.23.03-.26.06-.28.55-.31l.52-.03.03-.37.03-.37h3.9l.03.37.03.38h.55c.53 0 .55.01.61.3.05.27.09.3.44.3s.39.03.39.24c0 .19.06.25.28.28.21.02.27.08.25.26s.02.22.27.22c.31 0 .33.05.3.52-.01.22.03.27.27.3.26.03.28.07.31.49.03.43.06.47.35.56l.32.09-.03.62c-.04.59-.03.62.2.62.32 0 .47.12.45.35-.01.14.04.2.18.2.16 0 .21.08.23.43.03.4.04.42.36.42h.34l.07 2.53c.03 1.38.05 3.97.03 5.75-.03 3.73.02 3.52-1 3.52h-.58v.8c0 .92-.17 1.2-.72 1.2h-.31l.06 1.43c.04.78.07 1.97.07 2.65 0 1.22 0 1.22.24 1.22.21 0 .24-.06.29-.51.1-.81.04-.79 2.17-.79h1.89l.2.26c.32.41.33 7.12.01 7.44-.19.19-.33.2-2.99.2h-2.78l-.89.39c-.49.21-2.06.89-3.49 1.51-4.88 2.1-7.38 3.24-7.24 3.28.33.1.39.35.39 1.58v1.23l.58.03.57.03.03 1.17.03 1.18h1.29l.01-.92c.01-1.37.04-1.42.67-1.46l.51-.03.03-1.37.03-1.37.47-.03.47-.03.03-.87.03-.87h1.1l.03.88.03.87h.99v2.79l.58.03.57.03.03 1.17.03 1.18h1.18l.03-1.18.03-1.17.58-.03.57-.03.01-.92c.01-1.64.06-1.81.56-1.85l.43-.03v-.84c0-.94.05-1.01.81-.93.39.04.46.21.48 1.16l.01.62h.44c.53 0 .56.09.56 1.71v1.09h.54c.66 0 .66 0 .66 1.36v1.04h7.85c6.92 0 7.85.02 7.85.15s-.93.15-7.97.13l-7.98-.03-.03-1.17-.03-1.17-.57-.03-.57-.03-.03-1.37-.03-1.37-.47-.03-.47-.03-.03-.87-.03-.88h-.68l-.03.88-.03.87-.47.03-.47.03-.03 1.37-.03 1.37-.57.03-.57.03-.03 1.17-.03 1.17h-1.6l-.02-.45c-.02-.25-.05-.77-.09-1.17l-.06-.72-.51-.03-.52-.03-.03-1.37-.03-1.37-.47-.03-.47-.03-.03-.87-.03-.88h-.34c-.4 0-.43.08-.47 1.1l-.03.65-.42.03-.42.03-.03 1.37-.03 1.37-.57.03-.57.03-.03 1.17-.03 1.17-.79.03c-.98.04-.94.09-1.02-1.25l-.07-1.12-.56-.03-.56-.03-.03-1.37-.03-1.38h-.33c-.64 0-.66-.04-.66-.97v-.84l-.32.03-.33.03-.05.85-.05.85-.47.03-.47.03-.03 1.37-.03 1.37-.57.03-.57.03-.03 1.17-.03 1.17-7.93.03c-7 .02-7.92 0-7.92-.13Zm15.63-1.25c.07-1.32.06-1.3.68-1.3H17v-.85c0-.47-.02-.85-.04-.85-.72 0-3.39 2.03-5.05 3.84l-.24.26h4.1zm28.57-7.29a.48.48 0 0 0-.32-.23c-.27-.04-.4-.58-.15-.58q.27 0 .27-.63v-.3l-.25.23c-.14.13-.25.33-.25.45 0 .34-.33.59-.6.45-.16-.09-.25-.08-.36.01-.25.2-.63-.24-.46-.52.1-.16.1-.24.01-.35-.18-.22-.04-.42.4-.55.65-.19.85-.49.34-.49-.21 0-.48.07-.59.15-.27.2-.54.19-.54-.03 0-.11-.11-.24-.25-.3s-.25-.2-.25-.3.11-.25.25-.32.25-.22.25-.32c0-.24.34-.24.6.02.3.3.88.28.68-.02a.95.95 0 0 0-.44-.31c-.5-.16-.76-.58-.43-.69.09-.03.08-.1-.02-.25-.1-.18-.11-.24 0-.37.15-.18.47-.21.56-.06.05.08.11.07.2 0 .16-.13.54-.04.56.13.01.07.01.19 0 .28-.01.1.12.27.29.39l.3.21v-.4c0-.3-.05-.43-.2-.51-.3-.16-.25-.47.1-.65.17-.09.3-.22.3-.3 0-.25.4-.17.5.1.06.15.17.25.29.25.11 0 .25.09.31.21.13.23.14.22-.17.38-.24.12-.35.91-.14.91.15 0 .41-.42.41-.66 0-.34.34-.59.53-.39.14.13.2.14.36.03.29-.18.62.13.44.4-.08.14-.07.23.03.37.16.22-.06.55-.36.55-.2 0-.7.37-.7.51 0 .19.75.1.88-.11.14-.23.52-.27.52-.06 0 .08.14.24.3.36.17.12.3.28.3.37 0 .08-.13.2-.3.26-.18.07-.3.19-.3.29 0 .22-.33.24-.5.03-.07-.09-.29-.15-.52-.15-.5 0-.4.17.28.49.43.21.59.51.33.66-.07.05-.05.13.06.25.24.27-.17.72-.43.47-.13-.14-.17-.14-.37-.01-.28.18-.55-.02-.55-.4 0-.12-.11-.33-.25-.46l-.25-.23v.41c0 .31.05.44.21.52.3.17.22.54-.13.58-.16.02-.3.11-.33.23-.08.24-.31.25-.45 0Zm.68-.52c.13 0 .11-.03-.06-.11-.25-.12-.3-1.37-.06-1.45.22-.07.94.67.94.98 0 .29.01.29.22.15.16-.12.26-.13.42-.04.19.1.2.09.08-.05-.1-.12-.11-.21-.03-.36.14-.26.14-.31-.04-.31-.22 0-.95-.7-.95-.91 0-.26 1.1-.28 1.31-.03.12.14.14.14.21-.05a.31.31 0 0 1 .28-.21c.11 0 .2-.04.2-.1s-.09-.1-.2-.1c-.12 0-.24-.09-.29-.22-.06-.18-.09-.19-.14-.05-.07.2-1.31.25-1.43.06-.1-.17.49-.82.82-.91.27-.07.3-.11.29-.47 0-.35-.02-.38-.19-.29-.12.07-.22.06-.29-.01-.17-.17-.27-.13-.27.12 0 .3-.73 1.02-.94.94-.26-.1-.22-1.23.04-1.39s.25-.28-.01-.28c-.13 0-.23-.08-.26-.2l-.06-.21-.14.21c-.08.11-.21.2-.29.2-.2 0-.18.09.07.29.23.19.21 1.22-.03 1.37-.14.09-.98-.76-.98-.98 0-.16-.03-.17-.21-.07-.15.08-.24.08-.32 0-.17-.17-.31-.13-.16.05.1.13.1.19 0 .36-.14.22-.02.37.29.38.16 0 .8.72.8.89 0 .19-1.29.14-1.37-.04-.05-.13-.08-.13-.2.05-.08.11-.21.2-.29.2s-.14.04-.14.1.04.1.09.1.17.07.25.15c.12.13.2.14.37.04.21-.11 1.23-.08 1.35.04.13.12-.36.64-.78.82-.55.24-.53.22-.38.41.1.11.11.2.03.32-.09.15-.05.17.33.18.37.01.44-.02.44-.18 0-.26.76-1.06.88-.93.1.1.16.66.13 1.13 0 .15-.09.26-.22.29-.2.06-.19.08.12.22.28.14.36.14.47.04.07-.07.21-.13.3-.14Zm-29.9-.54c.01-.22.05-.55.08-.73l.05-.32h10.77c9.59 0 10.8-.02 11-.16l.22-.15v-3.53c0-2.6-.03-3.55-.12-3.64-.08-.08-.67-.12-1.99-.12-2.09 0-1.98-.04-1.99.75 0 .44-.12.57-.51.53l-.34-.03-.03-2.82-.02-2.82.42-.03.43-.03.03-.87c.03-.83.02-.88-.18-.88-.18 0-.2.06-.2.69v.7l-.42.03-.43.03v6.3l.7.03c.83.04.95-.07.95-.8V28h3.3v6.9H14.8V32h-.81l.03 1.43.03 1.42.4.05.4.05.03.57c.05.99.06.99-1.71.96l-1.52-.03-.03-3.57-.02-3.58h8.8v-5.5H12v-6.21l1.48.03 1.47.03v1.25l2.72.06 2.72.06.03-.68.03-.69 1.63-.03 1.62-.02v-2.39c0-2.01-.02-2.4-.15-2.45-.12-.04-.15-.33-.18-1.48-.01-.79-.04.25-.05 2.29l-.02 3.72-1.57.03-1.58.03-.03.57c-.04.76.04.73-2.54.7l-2.27-.03-.03-.62-.03-.62-1.69-.03c-1.16-.02-1.73.01-1.82.09-.22.18-.2 6.31.02 6.53.13.14.66.16 4.25.16h4.09l-.02 2.38-.03 2.37-4.3.05c-2.37.03-4.36.09-4.42.13-.17.11-.19 7.28-.03 7.58.1.18.21.19 1.98.17l1.87-.03zm14.47-.4.9-.4-.65-.07c-.36-.04-3.77-.05-7.57-.01l-6.93.06v.88l6.68-.03 6.67-.03zM14.6 35.7v-.5h-.69c-1.1 0-1.01.2-1.01-2.36V30.6h7.5v-1.1h-8.5v6.7h2.7zm-.7-1.87c0-1.58-.06-1.83-.41-1.83h-.29v2.9h.7zm22.66.74c.01-.01.04-1.44.05-3.17l.04-3.15-1.2-.03c-1.61-.04-1.65-.03-1.65.53v.44l.93.03.92.03-.02 1.88c0 1.03-.04 1.94-.07 2.02-.05.13-1.34.15-10.26.15H15.1v1.35l10.72-.03c5.89-.01 10.73-.03 10.74-.05ZM16.1 32.5V32h-1v1h1zm5.6 0V32h-5.3v1h5.3zm1.4 0V32H22v1h1.1zm5.4 0V32h-5.1v1h5.1zm1.2 0V32h-1v1h1zm5.7.4c0-.05-.42-.11-.92-.12l-.93-.03-.03-.37-.03-.38H30v1h2.7c1.66 0 2.7-.04 2.7-.1Zm0-.65c0-.25-.01-.25-.85-.25s-.85 0-.85.25.01.25.85.25.85 0 .85-.25Zm-13.64-.79c.08-.33.02-.61-.14-.6-.06.01-1.27.02-2.67.03l-2.55.01v.8h5.3zm1.34-.16v-.4H22v.8h1.1zm5.38-.02.03-.38H23.4v.8l2.53-.02 2.52-.03zm1.3 0 .03-.38H28.7v.81l.53-.03.52-.03zm3.72.02v-.4H30v.8h3.5zm1.9 0v-.4h-1.7v.8h1.7zm-13.64-.94c.07-.3.01-.92-.08-.88-.05.01-.28.02-.53.02h-.45v1.1h.5c.44 0 .5-.03.56-.24Zm1.34-.34c0-.86-.19-.82 3.47-.82h3.23v-.7l-3.87.02-3.88.03-.03.89c-.04 1.15-.03 1.16.58 1.16h.5zm5.3.19c0-.22.03-.46.06-.55.06-.14-.21-.16-2.5-.16H23.4v1.1h5zm5.1-.16v-.55h-1.78l-.07-1.05c-.04-.58-.04-2.11 0-3.4l.08-2.35h.26c.39 0 .48-.11.56-.62l.07-.48h-1.63l.05 4.02c.02 2.39.01 3.62-.04 3.03-.04-.55-.08-2.36-.09-4.03l-.01-3.03-1.07.03-1.08.03-.03.52-.03.52.68.03.68.03.03 3.15c.03 3.88.09 3.6-.73 3.6h-.65v1.1h4.8zm1.9 0v-.55h-1.6v1.1h1.6zm-13.62-3.52.02-2.63h-1.1v5.31l.53-.03.52-.03zM5.15 28.5c-.03-.11-.14-.2-.24-.2-.37 0-.45-.27-.16-.54.21-.19.26-.32.23-.61l-.03-.36-.22.21c-.13.11-.23.32-.23.45 0 .33-.44.63-.65.45-.12-.1-.18-.1-.31 0-.24.21-.6-.19-.45-.49.09-.15.08-.25-.01-.4-.16-.26 0-.44.51-.59.21-.07.44-.19.51-.27.21-.26-.65-.2-.91.06-.24.24-.43.21-.47-.09-.02-.11-.12-.24-.22-.27-.46-.15-.41-.75.07-.75.07 0 .13-.09.13-.2 0-.31.31-.38.48-.12.11.17.24.22.55.22h.4l-.22-.24c-.13-.14-.35-.26-.49-.28-.37-.04-.51-.32-.28-.57.16-.17.16-.2.01-.28-.09-.06-.13-.16-.09-.26.08-.22.44-.33.54-.16.07.1.11.1.25-.01.25-.21.65.02.65.38 0 .26.25.62.43.62s.06-.76-.14-.88c-.27-.17-.22-.56.09-.6.12-.02.22-.07.22-.12 0-.36.54-.44.63-.09.03.11.14.19.25.19.38 0 .47.26.18.55-.25.25-.38.95-.18.95.18 0 .44-.39.38-.57-.1-.31.36-.69.57-.48.14.13.2.14.36.03.29-.18.62.13.44.41-.09.14-.08.22.05.35.23.22.06.48-.4.61-.6.17-.78.45-.3.45.26 0 .45-.06.57-.2.23-.26.45-.26.45 0 0 .12.12.26.3.35.37.19.39.48.05.63-.14.06-.25.18-.25.26 0 .31-.29.4-.53.17-.32-.29-.99-.31-.73-.02.09.1.3.21.47.25.34.06.47.31.31.56-.09.14-.08.21.03.3.2.17.19.26-.07.5-.19.18-.23.18-.38.05-.15-.14-.18-.14-.3 0-.25.3-.76-.1-.68-.54.03-.19-.18-.51-.33-.51-.18 0-.09.68.12.94.24.3.19.56-.1.56-.11 0-.25.09-.31.2s-.19.2-.3.2c-.1 0-.22-.09-.25-.2Zm.69-.4c.09 0 .16-.04.16-.1a.1.1 0 0 0-.1-.1c-.05 0-.14-.1-.21-.21-.14-.27-.03-1.29.15-1.29.19 0 .89.77.81.9-.15.25.03.42.27.26.16-.1.28-.12.38-.06.25.16.31.11.16-.13-.1-.15-.12-.27-.06-.37.14-.22.12-.3-.08-.3-.26 0-.92-.58-.92-.81 0-.25 1.27-.29 1.36-.04.08.19.24.2.24.01 0-.07.1-.2.22-.29l.23-.15-.27-.07c-.2-.05-.28-.14-.28-.28 0-.21 0-.21-.16.01-.18.27-1.44.34-1.44.08 0-.18.88-.98 1-.91.21.13.31-.07.14-.27-.15-.16-.16-.23-.06-.39.07-.1.08-.19.03-.19-.06 0-.13.05-.16.1-.09.14-.21.12-.38-.05-.17-.16-.34.06-.21.27.07.11-.64.88-.82.88-.35 0-.32-1.12.03-1.45l.28-.25h-.28c-.19 0-.3-.07-.35-.21-.08-.2-.08-.2-.2.05-.07.17-.2.26-.34.26-.22.01-.22.02.05.16.35.19.36 1.29 0 1.41-.18.06-.83-.57-.83-.81q0-.48-.3-.21c-.15.14-.18.14-.3 0-.19-.23-.33-.18-.16.07.14.2.14.24-.01.4-.15.17-.15.18.06.18.28 0 1.17.82 1.07.98-.12.19-1.46.16-1.46-.03 0-.08-.04-.15-.1-.15-.05 0-.1.06-.1.13s-.12.18-.28.23l-.27.11.27.13c.16.07.28.19.28.27 0 .17.08.17.27-.02s1.34-.17 1.4.02c.04.12-.54.73-.69.73-.3 0-.59.21-.48.35.1.12.1.22.02.4-.11.23-.1.24.17.19.16-.04.32-.01.35.05.11.16.26.03.26-.22 0-.22.66-.97.86-.97.31 0 .34 1.1.04 1.4-.25.25-.25.3 0 .3.11 0 .23.07.27.16.06.16.07.16.18 0 .07-.09.2-.16.29-.16Zm23.96-.6v-.8h-.58c-.76 0-.82-.07-.82-1.07v-.83h-5v1.79l-.67.03-.68.03-.03.83-.03.82h7.81zm-6.7-1.96v-.74H22v.64c0 .9.01.92.6.88l.5-.04zm6.7.26v-.6h-1.1v1.2h1.1zm0-1.4v-.5h-1.1v1h1.1zm-1.4-.2v-.39l-.92-.03-.93-.03-.03-.37-.03-.38H25.1c-1.79 0-1.7-.04-1.7.86v.74h5zm-5.3-.4v-.7h-2.4v.25c0 .24.02.25.64.25.68 0 .75.06.76.68 0 .2.05.22.5.22h.5zm-2.7-.5V23l-3.52-.02-3.53-.03 3.53-.02 3.52-.03V22l-3.52-.02-3.53-.03-.03-1.3c-.04-1.8-.06-1.75.73-1.75h.65v-1h-2.4v5.6l3.82.03c2.11.01 3.93.03 4.06.05.18.02.22-.03.22-.28Zm8 0V23h-.8c-.77 0-.8.01-.8.23 0 .34.06.37.87.37h.73zm-5.22-.92.03-.38h-.69c-.8 0-.82-.02-.82-.86v-.54h-1v2.21l1.23-.03 1.22-.03zm3.32.2c0-.07.03-.23.06-.35l.06-.23H23.4v.7h1.55c1.17 0 1.55-.03 1.55-.12Zm1.95-.1c.02-.13.06-.43.07-.68l.03-.45 1.98-.03 1.97-.02v-.7l-2.17.02-2.18.03-.03.88c-.04 1.15-.22 1.13-.22-.03v-.9h-4.5v1.1h3.4v1h.8c.74 0 .8-.01.85-.22Zm-8.05-1.33v-.55l-2.83-.02-2.82-.03-.03-.67-.03-.68H13.6v2.5h6.8zm2.7 0v-.55H22v1.1h1.1zm11.58.03c.13-.13.16-10.06.03-10.88l-.07-.45-.08.4c-.04.22-.07.87-.06 1.45s.02 2.91.01 5.18L34.5 21h-.6c-.46 0-.6-.03-.61-.15-.01-.08-.03-.19-.04-.25-.01-.05-.03-.59-.04-1.2l-.01-1.1-2.67-.02c-1.97-.01-2.45-.03-1.83-.09.47-.04 1.67-.07 2.68-.08l1.82-.01v-.8h-5.9v1.2h.45c.38 0 .45.03.45.2 0 .19.08.2 2.33.22l2.32.03-.03 1.17-.04 1.18h.89c.56 0 .93-.04 1.01-.12ZM34 17.19v-3.6l-.32.03c-.29.03-.33.07-.32.31l.02 3.57.02 3.3h.6zm.3-.39c0-2.6-.03-4-.1-4-.06 0-.1 1.4-.1 4s.04 4 .1 4c.07 0 .1-1.4.1-4Zm-1.7 2.95v-.55h-4.4v1.15l2.2-.03 2.2-.03zm-12.2 0v-.55H15v1.1h5.4zm1.32 0 .03-.55H20.7v1.1h.98zm1.38 0v-.55H22v1.1h1.1zm1.9-2.79v-3.35l-.38-.03c-.34-.03-.37-.06-.4-.35-.02-.18-.07-.33-.13-.33-.05 0-.09 1.24-.09 3.09 0 1.96-.04 3.12-.1 3.16s-.1-.18-.1-.59v-.66h-3.1v1h2.7v1.4H25zm2.9 2.79v-.55h-2.6v1.1h2.6zm-1.8-2.15v-1.3h-.8v2.6h.8zm1.8 1.2c0-.05-.2-.1-.45-.1H27v-2.41l-.38.03-.37.03-.03 1.27-.03 1.28h.86c.5 0 .85-.04.85-.1Zm4.18-1.8h1.02v-.73l-1 .06c-.86.05-1.36-.03-.98-.15.21-.07-.03-.28-.32-.28-.22 0-.29.05-.32.22-.03.23-.03.23-1.6.19l-1.58-.04v.86l1.88-.06c1.03-.04 2.33-.07 2.9-.07Zm11.09-.87c-.04-.03-.07-.16-.07-.28 0-.14-.09-.26-.25-.33-.14-.06-.25-.18-.25-.27 0-.08-.09-.15-.21-.15-.56 0-.8-.51-.34-.72.14-.06.25-.2.25-.31 0-.1.09-.21.2-.24.18-.05.34-1.93.16-1.93-.1 0-.66.56-.66.66 0 .06-.09.14-.2.17-.17.04-.2.14-.2.62s-.03.58-.19.62a.36.36 0 0 0-.24.24c-.07.26-.54.26-.62-.01-.05-.14-.15-.2-.37-.2-.21 0-.31.06-.35.2-.07.26-.53.28-.6.02-.02-.1-.14-.22-.26-.27-.29-.13-.28-.47.01-.6.25-.11.32-.65.08-.65-.2 0-.37-.25-.3-.44.03-.09.14-.16.24-.16.12 0 .2-.09.22-.22.03-.2.1-.23.58-.26.3-.02.6-.09.65-.16.06-.07.2-.18.33-.25.12-.06.22-.18.22-.25 0-.08.09-.16.21-.19.49-.13.03-.27-.87-.27-.86 0-.94.02-.94.19 0 .12-.09.21-.25.25-.14.04-.25.13-.25.22 0 .34-.55.12-.58-.23-.03-.26-.09-.33-.33-.38-.16-.04-.29-.12-.29-.2 0-.07-.14-.15-.3-.18-.43-.09-.44-.62-.01-.7.17-.04.3-.14.34-.26.03-.15.13-.21.31-.21.24 0 .26-.04.26-.4 0-.38.02-.4.3-.4.19 0 .3.05.3.14 0 .08.1.16.22.18.15.02.24.11.26.26.03.21.08.22.97.22s1.3-.11.84-.23a.4.4 0 0 1-.26-.25.38.38 0 0 0-.24-.25c-.1-.03-.19-.12-.19-.21 0-.13-.12-.16-.59-.16-.5 0-.59-.03-.64-.2a.27.27 0 0 0-.26-.2c-.3 0-.3-.59-.01-.67.31-.08.27-.57-.06-.72-.3-.13-.29-.42.03-.56.12-.05.24-.17.26-.27.07-.24.44-.23.59.02.17.26.59.26.76 0 .17-.27.41-.25.52.04.05.14.19.26.32.28.21.03.23.07.2.6-.03.48-.01.58.12.58.09 0 .21.11.26.25.06.15.17.25.3.25.11 0 .2.07.2.15s.05.15.1.15c.06 0 .1-.38.1-.95 0-.88-.01-.95-.2-.95-.13 0-.2-.07-.2-.2s-.1-.24-.25-.3c-.45-.17-.29-.7.2-.7.27 0 .34-.04.37-.23.02-.14.11-.23.26-.25s.22-.1.22-.26c0-.54.53-.59.63-.07.05.22.12.31.27.31.13 0 .22.09.26.25.05.2.13.25.35.25s.32.06.39.26c.14.36.13.39-.15.52-.14.06-.25.18-.25.27 0 .08-.09.15-.2.15-.19 0-.2.07-.2 1 0 .6.04 1 .1 1a.1.1 0 0 0 .1-.1c0-.06.11-.16.25-.22s.25-.18.25-.26c0-.07.09-.16.2-.19.17-.04.2-.14.2-.57 0-.56.06-.69.32-.79.1-.03.18-.13.18-.21 0-.25.29-.26.56-.01.33.31.39.31.68 0 .28-.3.56-.32.63-.05.03.1.13.22.23.25.35.11.26.65-.11.65-.05 0-.09.16-.09.35 0 .28.04.35.2.35.15 0 .2.07.2.26 0 .17-.06.28-.2.31-.11.03-.2.14-.2.24 0 .17-.08.19-.65.19-.58 0-.65.02-.65.19 0 .11-.09.23-.2.26s-.2.12-.2.19c0 .08-.1.21-.22.29-.22.15-.18.16.68.16.83.01.92-.01.97-.19.03-.12.14-.2.26-.2.14 0 .21-.06.21-.19 0-.19.32-.34.55-.25.07.03.15.23.19.45.05.31.11.39.27.39.12 0 .23.08.26.19s.18.24.34.3c.39.13.39.46-.01.66-.16.09-.3.19-.3.24s-.14.14-.3.2c-.24.08-.3.16-.3.4 0 .28-.03.31-.3.31-.16 0-.3-.05-.3-.1 0-.06-.11-.16-.25-.22s-.25-.17-.25-.23c0-.16-.46-.25-1.26-.25-.64 0-.92.2-.44.33.11.03.2.12.2.2s.09.17.2.2.2.12.2.21c0 .13.12.16.6.16.55 0 .61.02.7.25.05.14.16.25.25.25.23 0 .19.47-.05.6-.2.11-.29.6-.11.6.05 0 .17.07.25.16.2.2.05.54-.24.54-.13 0-.2.07-.2.2 0 .15-.07.2-.25.2s-.25-.05-.25-.2c0-.16-.07-.2-.34-.2-.26 0-.36.05-.41.2-.08.27-.55.27-.62.01a.36.36 0 0 0-.24-.24c-.16-.04-.19-.15-.19-.66 0-.48-.03-.61-.15-.61-.09 0-.2-.11-.25-.25s-.16-.25-.25-.25c-.08 0-.15-.07-.15-.15s-.07-.15-.15-.15c-.26 0-.22 1.87.05 1.95.11.04.2.15.2.27 0 .11.08.22.19.25.46.12.3.73-.18.73-.21 0-.3.06-.34.21a.42.42 0 0 1-.26.26c-.12.03-.21.13-.21.22 0 .31-.43.54-.63.34Zm-13.87-.58V15h-4v1.1h4zm.95.09v-.39h1.2l.03.43c.03.41.04.42.38.42h.34V15H30v.56c0 .4.03.54.12.51.08-.02.13-.2.13-.43Zm13.52-.32c.14-.02.23-.12.25-.25.02-.17.12-.23.43-.28l.4-.05-.29-.12c-.21-.09-.27-.17-.23-.32.04-.16 0-.2-.19-.2h-.25l.03-1.22.03-1.23.38-.03c.32-.03.39 0 .44.17.03.12.11.21.18.21.08 0 .16.09.2.19.03.1.15.21.25.24.17.04.2.14.2.65 0 .52.03.62.2.67.11.03.2.14.21.23 0 .14.02.14.06.02.15-.38 1.03-.44 1.21-.07.08.17.11.18.11.05.01-.11.12-.2.28-.25l.28-.06-.28-.1c-.36-.12-.42-.95-.07-1.04.24-.06.27-.23.04-.23-.09 0-.18-.09-.21-.2-.05-.17-.14-.2-.6-.2s-.56-.03-.6-.19a.35.35 0 0 0-.27-.23.276.276 0 0 1-.24-.24.35.35 0 0 0-.23-.27c-.35-.09-.26-.63.12-.71.92-.18 2.19-.02 2.19.29 0 .08.09.15.2.15s.2.07.2.15.05.15.1.15c.06 0 .1-.16.1-.35 0-.31.03-.35.26-.35.17 0 .28-.06.31-.2.03-.13.14-.2.29-.2.12 0 .26-.04.29-.1.04-.06-.07-.1-.24-.1-.24 0-.31-.04-.31-.2s-.07-.2-.3-.2c-.29 0-.3-.02-.3-.45 0-.25-.04-.45-.1-.45-.05 0-.1.09-.1.2 0 .15-.07.2-.24.2-.18 0-.25.06-.28.23-.03.21-.06.22-1.18.22h-1.15l-.03-.28c-.03-.22.01-.3.17-.34.12-.03.21-.14.21-.25s.08-.22.19-.25c.1-.02.24-.16.3-.29.09-.21.17-.24.65-.24.39 0 .55-.04.6-.15a.24.24 0 0 1 .21-.15c.22 0 .18-.17-.06-.23-.32-.09-.24-.97.11-1.14.19-.1.21-.13.07-.13-.1 0-.21-.1-.26-.22l-.08-.22-.12.22c-.13.25-.97.32-1.19.1-.08-.08-.12-.08-.12-.01 0 .06-.09.13-.2.16-.17.04-.2.14-.2.66 0 .37-.04.61-.11.61-.06 0-.28.18-.5.41-.32.33-.44.4-.71.37l-.33-.03v-1.2c0-1.17.01-1.2.23-1.23.14-.02.22-.1.22-.23 0-.12.07-.19.2-.19.36 0 .21-.19-.17-.22-.33-.03-.38-.07-.41-.31-.03-.21-.09-.27-.28-.27-.2 0-.24-.05-.25-.32l-.01-.33-.07.3c-.04.21-.13.31-.29.33-.14.02-.22.1-.22.22 0 .21-.28.4-.59.4-.12 0-.21.05-.21.1 0 .06.09.1.21.1s.23.08.26.19.14.21.24.24c.18.05.19.14.17 1.24l-.03 1.18-.31.03c-.25.02-.33-.01-.37-.17a.26.26 0 0 0-.26-.21c-.14 0-.21-.06-.21-.19s-.08-.21-.22-.23c-.21-.03-.23-.09-.24-.63-.01-.51-.04-.61-.2-.64a.9.9 0 0 1-.31-.13c-.09-.07-.13-.07-.13.01 0 .24-1 .13-1.1-.12-.05-.12-.09-.17-.09-.1-.01.07-.13.19-.27.26l-.27.14.27.07c.38.09.36 1.09-.02 1.14-.26.04-.2.22.07.22.1 0 .21.09.24.2.04.16.13.19.54.17.49-.02 1.13.39 1.13.72 0 .06.09.11.21.11.17 0 .2.05.17.38l-.03.37h-1.2c-1.17 0-1.2-.01-1.23-.22-.05-.35-.62-.33-.62.02 0 .2-.05.25-.24.25-.15 0-.26.07-.29.2s-.14.2-.3.2c-.14 0-.29.05-.32.1-.04.06.07.1.25.1.23 0 .33.05.37.2.03.13.14.2.28.2.18 0 .24.07.31.38.04.22.09.3.11.2.03-.11.14-.18.29-.18.17 0 .24-.06.24-.2 0-.26.25-.31 1.4-.28l.95.03.03.32c.02.24-.02.34-.17.43-.12.06-.21.17-.21.26 0 .08-.11.19-.24.23-.13.05-.26.17-.29.25-.05.12-.2.16-.61.16-.46 0-.56.03-.61.2-.03.11-.13.2-.21.2-.21 0-.17.17.07.23.31.08.24.87-.11 1.04l-.24.12.26.1c.14.05.28.16.31.23q.06.135.06-.03c.02-.46 1.07-.36 1.24.11.04.1.06.08.06-.07.01-.12.09-.24.21-.28.15-.05.2-.15.2-.45 0-.5.15-.9.35-.9.08 0 .15-.05.15-.11 0-.24.6-.7.87-.67l.28.03v1.2c0 1.17-.01 1.2-.22 1.23-.15.02-.23.1-.23.24 0 .11-.08.22-.2.25-.32.09-.23.23.15.23.28 0 .36.04.41.24.03.15.14.26.27.28.16.02.23.12.26.33l.04.3.06-.3c.04-.21.13-.31.28-.33Zm-10.73-.61c.03-.04.03-.31-.01-.6l-.06-.51H29.6v1.09l1.33.04c.72.01 1.49.04 1.69.05s.39-.02.42-.07ZM28 14.6c0-.06-.22-.1-.5-.1H27v-.45c0-.45 0-.45-.35-.45h-.35v1.1h.85c.5 0 .85-.04.85-.1Zm1.36-.21c-.03-.17-.06-.42-.06-.55 0-.21-.05-.24-.4-.24h-.4v1.1h.93zm4.54-1.34v-.25h-1.39c-1.03 0-1.4.03-1.44.13-.03.09-.6.12-2.42.12s-2.39.03-2.42.13c-.04.09.77.12 3.81.12h3.86zm-2.96-.4c.04-.12.33-.15 1.48-.17l1.43-.03.02-.5c.03-.92.25-.85-2.61-.85-3.4 0-3.76-.04-3.76-.41 0-.29-.01-.29-.61-.29s-.6 0-.57.28c.03.27.02.27-.59.3l-.63.03v1.56l.77.07c.42.03 1.58.06 2.59.06h1.83l.03-.27.03-.28h1.53c1.99 0 2.12.19.14.23-1.34.02-1.42.04-1.42.22 0 .23.25.27.34.05Zm-6.74-1.4V9.9h-.6v2.7h.6zm.7.4v-.95h.6c.57 0 .6-.01.6-.25 0-.25.01-.25.83-.25h.83l-.01.28v.27l1.43.03c1.33.02 1.42.01 1.42-.16 0-.21-.68-.32-1.92-.32-.45 0-.58-.03-.58-.15 0-.13-.23-.15-1.42-.15-.79 0-1.6-.03-1.8-.06l-.38-.07v1.37c0 1.29.01 1.36.2 1.36s.2-.07.2-.95Zm8.98-1.27-.03-.43-.52-.03c-.47-.03-.52-.01-.55.2-.03.22-.06.23-.98.23-.91 0-.95.01-.98.23l-.03.22h3.12zM32.6 9.36c0-.65-.02-.74-.2-.79-.17-.04-.2-.14-.2-.71V7.2h-.29c-.34 0-.42-.16-.34-.64.05-.33.04-.36-.2-.36-.32 0-.42-.15-.38-.57.02-.31 0-.33-.28-.33-.27 0-.31-.03-.31-.29 0-.31-.05-.33-1.17-.47l-.43-.06v2.3c0 2.61-.07 2.42.9 2.42.64 0 1.2.09 1.2.19s-1.23.03-1.91-.1c-.3-.06-1.18-.14-1.95-.17-1.32-.07-1.4-.08-1.49-.29-.2-.46-.45-.28-.45.32v.55h1.59c1.5 0 1.59.01 1.64.2s.14.2 2.16.2h2.11zm-9.24-.13c.56-.24.84-.42.84-.53 0-.21.2-.4.42-.4.13 0 .18-.08.18-.25 0-.23-.04-.25-.45-.25-.38 0-.45.03-.45.19 0 .43-.1.51-.65.51h-.54l-.03.37c-.02.3-.08.38-.27.43-.31.07-.4.3-.11.3.11 0 .59-.17 1.06-.37Zm-1.46-.37c0-.13.03-.38.06-.55.06-.28.04-.31-.2-.31-.15 0-.29-.07-.32-.15-.06-.15-.67-.21-.98-.09-.16.06-.24 1.13-.09 1.27.03.04.39.07.8.07.7 0 .73-.01.73-.24ZM28.59 6l-.03-3h-3.45l-.03.73-.03.72-.6.08c-1.02.15-1.17.23-1.09.66.04.2.07.4.08.45 0 .05-.04.1-.11.13-.06.02-.13-.06-.15-.19-.06-.45-.48-.36-.48.11 0 .36-.03.4-.27.43-.26.03-.28.07-.33.53-.04.45-.08.5-.31.53-.22.03-.25.07-.21.28.05.25 1.02.39 1.02.14 0-.05.23-.1.5-.1.42 0 .5-.03.5-.19 0-.49 1.29-.6 1.4-.11.04.18.13.26.33.28.24.03.27.07.27.43 0 .47-.05.47.75.03.9-.5.92-.37.03.17-1.24.75-1.15.8 1.45.87l.78.02z"/></svg>