<svg xmlns="http://www.w3.org/2000/svg" width="51" height="51" viewBox="0 0 51 51"><path fill="#fff" fill-rule="evenodd" stroke="#fff" stroke-width=".772" d="m24.62 35.13-2.22-.03v-2.8h6.3v2.77l-.37.07c-.21.03-.63.05-.93.04-.3-.02-1.55-.04-2.78-.05Zm-9.92-1.32c0-.71.03-1.36.06-1.44.04-.13.52-.15 3.15-.16l3.09-.02v2.91h-6.3zm15.73 1.22c-.23-.04-.23-.07-.23-1.44V32.2h6.21l-.03 1.42-.03 1.43-2.85.01c-1.57.01-2.95-.01-3.07-.03Zm-9.63-1.4v-1.26l-2.86.06c-1.58.04-2.88.08-2.89.09-.02.02-.05.56-.07 1.21l-.03 1.17h5.85zm7.7.07v-1.2h-5.9v2.4h5.9zm7.7-.05V32.4h-5.8v2.39l.88.04c.48.01 1.78.04 2.9.05l2.02.02zm-21.46-2.68c-.02-.07-.03-.71-.02-1.43l.03-1.29 3.13-.03 3.13-.02-.03 1.42-.03 1.43-3.08.03c-2.47.02-3.09 0-3.13-.11Zm7.7 0c-.02-.07-.03-.71-.02-1.43l.03-1.29 3.13-.03 3.12-.02v2.9h-3.1c-2.46 0-3.12-.03-3.16-.13Zm7.84.08c-.05-.05-.08-.71-.08-1.47V28.2h6.2V31h-1.57c-.87 0-2.23.03-3.03.06-.8.04-1.48.03-1.52-.01Zm-9.48-1.42V28.4h-5.79l-.03 1.21c-.02.66-.01 1.23.02 1.25.02.03 1.34.04 2.92.03l2.88-.02zm7.7.02V28.4l-2.92.02-2.93.03-.03 1.23-.03 1.22h5.91zm7.7-.05v-1.2h-5.8v2.4h5.8zm-20.6-2.59-.85-.06.01-1.33c.01-.73.04-1.35.06-1.37.04-.04 2.01-.07 4.56-.06l1.62.01V27l-.88.01c-.48 0-1.5.02-2.27.03s-1.78 0-2.25-.03Zm6.88.04c-.05-.05-.08-.71-.08-1.47V24.2h6.3V27h-.92c-.51 0-1.9.03-3.08.06-1.18.04-2.18.03-2.22-.01Zm7.72-1.5V24.1h6.2V27h-6.2zm-4.49 1.25h2.79v-2.4h-5.9v1.26c0 1.11.02 1.25.16 1.2.09-.03 1.41-.06 2.95-.06Zm-4.91-1.2v-1.2h-5.79l-.03 1.2-.03 1.2h5.85zm15.4-.05V24.3h-5.8v2.5h5.8zm-13.78-3.97.03-1.43 3.09-.03c2.41-.02 3.11.01 3.18.1.09.16.11 1.66.02 2.32l-.07.46h-6.28zm7.78-.02v-1.44l.38-.05c.2-.03.73-.04 1.17-.02.44.01 1.67.03 2.73.04l1.93.01-.03 1.43-.03 1.42-3.08.03-3.07.02zm-1.7-.01V20.3l-2.92.02-2.93.03-.03 1.23-.03 1.22h5.91zm7.7.01v-1.24l-.73-.07c-.41-.04-1.36-.05-2.13-.01-.76.03-1.74.05-2.16.06h-.78v2.5h5.8zm-13.8-3.9c0-.74.03-1.41.06-1.5.08-.21 6.02-.24 6.22-.04.13.13.18 2.42.06 2.72-.05.14-.43.16-3.2.16H22.4zm6.15.22c.04-.51.05-1.09.03-1.28l-.03-.35h-5.9l-.03 1.28-.03 1.27h5.89z"/></svg>