<svg xmlns="http://www.w3.org/2000/svg" width="51" height="51" viewBox="0 0 51 51"><path fill="#fff" fill-rule="evenodd" stroke="#fff" stroke-width=".47" d="M7.25 50.91c-3.51-1.05-6.16-3.78-7.06-7.28C.01 42.89 0 42.4 0 29.28V15.7h25.6c16.97 0 25.6.03 25.6.1s-8.62.11-25.52.12l-25.53.03L.12 29C.09 43.06.08 42.86.62 44.4c1.06 3.03 3.77 5.58 6.76 6.35 1.09.28 35.72.24 36.64-.05 3.68-1.14 6.28-4.12 6.99-8.04l.19-1.01-.05.75c-.2 3.58-3.04 7.07-6.85 8.42l-.65.23-17.9.02c-16.92.02-17.93.01-18.5-.16Zm-.71-8.52c-.19-.21-.18-.64.02-.83.24-.24 37.84-.24 38.08 0 .2.19.21.68.02.83-.25.21-37.93.21-38.12 0Zm37.96-.44v-.35H6.7v.7h37.8zM6.52 34.48c-.17-.17-.15-.74.04-.92.26-.27 37.84-.24 38.07.02.19.21.22.54.07.83-.11.19-.42.19-19.08.19-14.63 0-19.01-.03-19.1-.12ZM44.45 34v-.35l-18.87-.03L6.7 33.6v.69l.88.04c.48.01 8.97.03 18.87.02h18zM6.56 26.51a.66.66 0 0 1-.14-.48l.03-.28h38.3l.03.28c.02.17-.04.37-.14.48-.27.3-37.81.3-38.08 0Zm37.87-.11c.03-.03.07-.14.09-.25.03-.2-.03-.2-18.9-.23L6.7 25.9v.25c0 .24.02.24.92.28 1.46.05 36.76.03 36.81-.03ZM2.65 19.46c-.19-.29-.06-.71.25-.81.29-.09.7.19.7.5 0 .53-.66.75-.95.31Zm2 0c-.33-.5.2-1.04.7-.72.3.2.33.56.07.79-.26.24-.59.21-.77-.07Zm2.1.04c-.36-.4.11-1.04.6-.82.32.15.4.47.21.77-.2.3-.56.32-.81.05Zm2.07.08c-.29-.29-.01-.98.4-.98.21 0 .48.32.48.58 0 .42-.59.69-.88.4Zm2.06.01c-.38-.21-.1-.99.35-.99.43 0 .66.79.28 1-.24.12-.41.12-.63-.01Zm1.96-.14c-.33-.5.2-1.04.71-.71.3.2.33.56.07.79-.27.24-.59.21-.78-.08Zm2.12.09c-.4-.4.07-1.09.59-.86.32.15.41.47.21.77-.19.29-.57.33-.8.09Zm2.11.05c-.24-.14-.22-.62.04-.85.44-.39 1.03.33.63.77-.19.21-.4.24-.67.08Zm1.99-.02c-.38-.28-.13-.97.34-.97.09 0 .24.08.33.18.46.51-.13 1.19-.67.79Zm1.98-.12c-.19-.29-.11-.6.18-.76.49-.26 1 .4.63.81-.25.27-.61.25-.81-.05Zm2.08.13c-.29-.29-.01-.98.4-.98.23 0 .48.33.48.63 0 .4-.59.64-.88.35Zm2.03-.08c-.36-.4.11-1.04.6-.82.32.15.4.47.21.77-.2.3-.56.32-.81.05Zm2 0c-.23-.25-.13-.67.2-.82.53-.24 1 .46.57.85-.25.23-.55.21-.77-.03Zm2.12.02c-.24-.27-.21-.59.08-.78.33-.21.72-.06.81.31.13.52-.53.86-.89.47Zm2.11.07c-.38-.21-.1-.99.35-.99.22 0 .57.48.5.68-.13.37-.51.51-.85.31Zm1.98-.05c-.37-.37-.01-1.03.49-.9.14.04.31.17.37.31.23.52-.46 1-.86.59Zm2.12.05c-.24-.13-.23-.61 0-.82.24-.22.45-.21.65.01.45.49-.08 1.15-.65.81Zm1.98-.05c-.4-.4.07-1.09.59-.86.32.15.41.47.21.77-.19.29-.57.33-.8.09Zm2.06.04c-.24-.3-.13-.83.19-.93.28-.09.69.2.69.49 0 .43-.62.74-.88.44Zm1.92-.13c-.21-.33-.06-.72.31-.81.52-.13.86.53.47.89-.27.24-.59.21-.78-.08Zm2.1 0c-.19-.29-.11-.6.18-.76.49-.26 1 .4.63.81-.25.27-.61.25-.81-.05Zm2.12.09c-.3-.29-.03-.94.39-.94.08 0 .24.09.35.2s.2.27.2.35c0 .42-.65.69-.94.39Zm2 0c-.37-.37-.01-1.03.49-.9.14.04.31.17.37.31.23.52-.46 1-.86.59Zm-44.28-.42c-.05-.24-.52-.23-.56.02-.02.1.02.22.09.27.18.11.51-.09.47-.29Zm4.02.02c0-.19-.05-.24-.25-.24-.27 0-.38.44-.12.53.22.07.37-.04.37-.29Zm2.08-.02c-.04-.22-.46-.28-.54-.08-.04.09-.01.23.06.31.16.19.53.01.48-.23Zm1.92.23c.17-.2.05-.45-.2-.45-.11 0-.23.07-.26.15-.06.15.11.45.26.45.04 0 .13-.07.2-.15Zm2.11-.06c.13-.25 0-.43-.27-.37-.23.04-.31.37-.12.49.2.13.26.11.39-.12Zm2.09-.15c0-.19-.05-.24-.24-.24-.29 0-.4.24-.2.44s.44.09.44-.2Zm2.08-.02c-.04-.22-.46-.28-.54-.08-.04.09-.01.23.06.31.16.19.53.01.48-.23Zm8.1.04c-.04-.25-.43-.34-.51-.12-.04.09.01.22.09.3.2.2.46.09.42-.18Zm2.02-.03c0-.2-.04-.24-.22-.21-.25.03-.37.36-.17.48.2.13.39 0 .39-.27Zm2.04.22c.2-.21.1-.45-.2-.45-.26 0-.36.44-.11.53.06.03.13.06.14.06.01.01.08-.06.17-.14Zm2.06 0c.17-.2.05-.45-.2-.45-.11 0-.23.07-.26.15-.06.15.11.45.26.45.04 0 .13-.07.2-.15Zm2.1-.25c0-.14-.07-.2-.24-.2-.27 0-.42.26-.25.46.15.18.49 0 .49-.26Zm4.1.04c0-.19-.05-.24-.24-.24-.29 0-.4.24-.2.44s.44.09.44-.2Zm4 .21c.18-.21.05-.47-.22-.43-.26.03-.37.36-.16.49.18.12.24.11.38-.06Zm2.1-.22c0-.2-.04-.24-.22-.21-.25.03-.37.36-.17.48.2.13.39 0 .39-.27Zm2.1-.04c0-.13-.07-.19-.24-.19-.3 0-.4.24-.2.45.19.19.44.04.44-.26Zm1.9.26c.16-.19.06-.45-.19-.45-.23 0-.35.28-.2.46s.24.18.39-.01Zm-42.86-.12c.04-.09.02-.21-.03-.26-.15-.15-.46-.03-.49.21-.04.27.42.32.52.05Zm14.31-.08c0-.22-.31-.33-.47-.17-.17.17-.01.44.24.4.15-.02.23-.1.23-.23Zm2.05-.01c0-.21-.04-.25-.22-.22-.35.05-.38.48-.04.48.21 0 .26-.05.26-.26Zm2.05.01c0-.22-.31-.33-.47-.17-.17.17-.01.44.24.4.15-.02.23-.1.23-.23Zm12.3 0c0-.22-.31-.33-.47-.17-.17.17-.01.44.24.4.15-.02.23-.1.23-.23Zm4.1 0c0-.31-.49-.28-.53.03-.03.2 0 .23.25.2.2-.02.28-.08.28-.23Zm10.91-10.4c-.69-4.32-3.75-7.62-7.89-8.5C42.59.12 39.97.1 25.56.1H8.63l-.99.25C4.03 1.26 1.2 4.13.29 7.8c-.19.77-.25.88-.27.61-.05-.45.4-1.86.9-2.86C2.21 2.98 4.66.96 7.41.2c.75-.2.81-.2 18.45-.18l17.69.03.7.26C47.7 1.6 50.19 4.25 51 7.52c.11.48.2 1.07.18 1.3l-.03.43z"/></svg>