<svg xmlns="http://www.w3.org/2000/svg" width="51" height="51" viewBox="0 0 51 51"><path fill="#fff" fill-rule="evenodd" stroke="#fff" stroke-width=".33" d="M0 51.05c0-.13.59-.15 4.75-.15H9.5V38.75c0-13.21.03-12.57-.55-12.83-.19-.09-1.45-.12-4.6-.12-3.8 0-4.35-.02-4.35-.15s.54-.15 4.25-.15c4.77 0 4.84-.01 5.1-.64.13-.3.15-2.06.15-12.51V.2H4.75C1.65.2 0 .17 0 .1S8.6 0 25.6 0s25.6.03 25.6.1-1.67.1-4.8.1h-4.8l.02 12.28c.03 10.31.05 12.3.17 12.48.33.49.28.49 4.99.52 3.8.02 4.42.05 4.42.17 0 .13-.6.15-4.34.15-2.82 0-4.44.04-4.64.11-.66.23-.62-.51-.62 12.88V50.9h4.8c4.2 0 4.8.02 4.8.15s-2.91.15-25.6.15S0 51.18 0 51.05Zm25.34-12.33c0-12.96.01-12.57-.5-12.78-.44-.18-13.91-.21-14.43-.03-.65.23-.61-.54-.61 12.84V50.9h15.55zm15.96-.06V26.41l-.24-.28-.24-.28-7.14-.03c-5.24-.02-7.2.01-7.41.09-.6.25-.57-.44-.57 12.84V50.9h15.6zm-14.8 8.69c0-.1.63-1.36.71-1.41.04-.02.06-.11.02-.2-.03-.08.04-.26.17-.39.15-.16.2-.3.16-.42-.71-1.83-.44-2.28 1.87-3.17.66-.25 1.23-.49 1.29-.52.11-.07-.2-.44-.37-.44-.16 0-.21-.14-.3-.74-.06-.35-.11-.46-.26-.46-.1 0-.21-.04-.24-.1-.03-.05-.19-.07-.35-.03-.37.07-.41-.2-.1-.6.4-.51.37-1.06-.09-1.52-.22-.22-.4-.47-.41-.55 0-.09-.06-.22-.12-.28-.1-.1-.05-.19.24-.45.52-.46.68-.8.34-.71-.31.07-.36-.18-.1-.47.15-.17.15-.19-.1-.3-.39-.18-.34-.45.12-.52.65-.11 2-.82 2.04-1.08.03-.2.14-.26.83-.42.44-.1.92-.21 1.07-.25l.27-.07-.26-.57c-.25-.56-.27-.57-.91-.78-3.98-1.29-1.62-3.57 3-2.9 3.55.51 5.03 2.33 2.58 3.16-.46.16-.85.19-2.36.19h-1.8l.26.45c.26.45.27.45.95.52.37.04.71.11.74.16s.2.14.38.2c.28.09 1.15.73 1.97 1.45.29.25.3.28.14.41-.23.17.21.83.82 1.21.49.31.56 1.1.12 1.3-.27.12-.27.29-.01 1.22.22.8.19.98-.17.89-.21-.06-.24-.03-.24.19 0 .18-.05.25-.2.25-.13 0-.27.14-.41.43-.26.51-.23.48-.46.51-.21.03-.43.44-.46.83-.02.26.03.29 1.13.68 2.21.79 2.47 1.13 1.79 2.4l-.31.57.33.34c.18.19.3.37.26.4-.03.04.01.2.09.36.24.47.05.53-.32.09-.19-.22-.48-.5-.64-.61l-.29-.2-.65.45c-.75.53-2.58 1.42-3 1.47-.44.05-.43-.19.01-.38 2.79-1.22 3.86-1.97 4.29-3.01.3-.71.1-.87-1.86-1.53-.69-.23-1.33-.47-1.43-.52-.18-.09-.24-.38-.07-.38.06 0 .1-.06.1-.14 0-.21.51-1.07.67-1.13.21-.08.63-.86.63-1.18 0-.22.04-.26.19-.22.13.03.21-.01.24-.14.03-.11.12-.19.21-.19.19 0 .19.07.01-.8-.16-.74-.14-.9.1-.9.15 0 .11-.23-.08-.48-.08-.1-.12-.07-.21.1-.22.44-.84.37-1.5-.17-.47-.37-.6-.44-.76-.35-.29.15-.33.14-.74-.39-.43-.53-.85-.5-.86.07 0 .13-.06.22-.15.22-.16 0-.2-.16-.3-.96-.06-.58 0-.84.21-.84.1 0 .14.14.15.48 0 .46.01.46.16.25.22-.32.28-.3.84.27.43.44.52.49.7.39.18-.09.26-.06.58.24.4.38.61.51 1.05.61.26.06.28.05.17-.08-.18-.22-.07-.46.18-.39.28.07.26-.06-.09-.47-.17-.19-.3-.4-.3-.47 0-.08-.13-.13-.36-.13-.45 0-.41-.23.05-.3l.32-.05-.87-.67c-.72-.57-.93-.68-1.24-.68-.21 0-.43-.07-.5-.15-.26-.31-3.24-.02-3.18.3.03.13-.79.64-1.68 1.04-.42.2-.55.71-.18.71.22 0 .17.15-.26.86-.43.7-.49.98-.25 1.08.08.03.15.12.15.2 0 .09.09.2.2.26.22.12.29 1.04.1 1.4-.08.15-.07.17.12.12.18-.04.2-.02.16.16-.08.28.16.18.3-.14.22-.47.47-.26.27.23s-.19.86.05 1.13c.11.13.2.29.2.36 0 .08.09.13.23.11.18-.02.22.02.19.22-.01.14.03.28.09.32.27.16-.05.37-1.17.78-2.49.91-2.67 1.05-2.44 1.89.18.66 2.65 2.46 3.94 2.86.52.17.7.36.46.51-.19.12-1.68-.56-2.63-1.2l-.98-.66-.39.31c-.39.31-1.3 1.44-1.3 1.61 0 .05-.07.09-.15.09s-.15-.02-.15-.05Zm8.93-.72c-.23-.08-.14-.2.36-.53 1.43-.91 2.59-2.63 1.91-2.81-.23-.06-.23-.07-.06-.14.12-.05.29-.03.45.06.46.26.41.72-.16 1.38-.43.51-.38.51.4-.04.7-.49.83-.72.69-1.14-.12-.34-.02-.4.22-.15.4.39.08 1.08-.81 1.76-1.09.83-2.72 1.71-3 1.61Zm-4.18-.32c-.98-.39-1.21-.55-2.35-1.64-1-.97-1.09-1.12-.89-1.48.14-.27.29-.15.29.23 0 .59 1.74 1.96 3.27 2.6.48.2.65.39.45.52-.04.02-.39-.08-.77-.23ZM.34 45.98c-.1-.15-.03-.17 1.09-.24 1.26-.08 1.29-.13.4-.49-1.7-.7-1.58-.63-1.38-.85.22-.24.73-.26 1.57-.06.69.16.68.2.21-.73-.42-.81-.49-1.53-.29-3.03l.09-.68h-.36c-.64 0-.96-.33-.97-.97-.01-.15-.14-.53-.3-.83-.58-1.06-.3-2.03.96-3.38l.62-.67h.98c1.33 0 2.14.24 2.54.76.73.91.97 1.95.65 2.72-.08.2-.15.58-.15.84 0 .56-.17.85-.59 1.03-.45.18-.56.8-.29 1.74.33 1.18.35 1.82.07 2.12l-.23.24.23.73c.39 1.2.44 1.27.87 1.16.39-.11.69-.05.59.11-.03.05-.02.1.04.1.05 0 .13-.04.16-.1.09-.14.42-.12.48.03.03.09.09.07.24-.05.29-.26.46-.23.39.06q-.06.24.09.3c.08.03.15.09.15.13 0 .12-7.79.13-7.86.01Zm4.96-.36c-.02-.32-.7-1.97-.81-1.95-.08.01-.36.08-.64.16l-.5.13.28.18c.15.1.5.49.77.87.44.6.91.93.9.61Zm-1.66-.52c.1-.1-.31-.75-.66-1.07-.2-.17-.2-.16.02.27.25.5.25.49-.01.68-.32.22-.23.35.19.27.2-.03.41-.11.46-.15Zm43.18-.62c-.08-.11-.2-.88-.21-1.5-.01-.16-.03-.16-.21.02-.43.43-1.04.16-1.06-.47-.06-2.21-.23-2.72-.9-2.73-1.15-.01-1.3-3.04-.21-4.18 1.24-1.3 3.54-1.23 4.49.14.18.24.39.44.49.44.51 0 .88.68.69 1.26-.1.29-.09.38.1.64.33.47.41.87.25 1.25-.25.61-.75.72-1.05.23s-.26-.04.03.47c.26.45.31 2.29.08 2.88-.07.19-.08.34-.01.47.38.71-.24 1.39-.87.95-.23-.16-.47-1.01-.37-1.32.03-.1-.02-.06-.1.09-.09.15-.15.45-.14.71.03.67-.63 1.09-1 .65Zm-14.46-.36c-.65-.15-.38-.3.63-.34.94-.03 1.01-.05 1.38-.34.41-.33.44-.39.69-1.57.16-.74.28-.97.41-.83.17.16-.32 2.01-.62 2.35-.51.58-1.67.92-2.49.73ZM4.5 43.19c.71-.36.74-.62.24-1.99-.42-1.13-.83-1.5-1.67-1.5h-.66l-.06.48c-.03.26-.1.75-.15 1.08-.21 1.32-.08 1.62.81 1.71.44.04.59.02.72-.12.27-.26.21-.32-.38-.4-.69-.08-.69-.08-.39-.89.3-.85.3-1.11-.01-1.4s-.31-.36-.03-.36c.56 0 .76.78.43 1.7-.21.6-.21.6.35.6.6 0 .68.12.51.71-.14.46-.31.52-1.21.47-.52-.03-.58-.01-.43.1.27.2 1.37.09 1.93-.19Zm43.2-.38c.05-.11.1-.31.1-.44 0-.22.06-.26.48-.32.64-.09.82-.21.82-.51 0-.21-.03-.25-.17-.19-.58.24-1.15.35-1.79.35-.73 0-.97.19-.43.33.15.04.19.14.19.44 0 .57.55.8.8.34Zm-30.95-.35c-1.46-.34-2.65-1.07-2.65-1.64 0-.12-.23-.44-.53-.74-3.77-3.8-1.09-10.17 4.29-10.2 5.52-.02 8.09 6.88 3.91 10.45-.48.41-.55.52-.61.95-.04.29-.14.56-.25.66-.57.52-2.92.81-4.16.52Zm3-.46c.96-.25 1.05-.32 1.05-.85 0-.63-.26-.84-.77-.6-.82.39-3.29.06-4.52-.61-.35-.19-.65-.34-.66-.32-.16.18-.35.74-.35 1.01 0 1.14 3.05 1.93 5.25 1.37Zm27.65-.69a.19.19 0 0 0-.1-.16c-.05-.03-.1-.22-.1-.41 0-.36-.35-.5-.57-.21-.13.16-.24.73-.16.81.1.1.93.07.93-.03Zm-1.29-.41c.08-.37-.01-.5-.33-.5-.15 0-.18.09-.18.46 0 .6.39.63.51.04Zm2.32.24c.69-.23.73-.33.4-.97l-.28-.55-.3.24-.3.25.28-.07c.24-.05.29-.02.42.29.18.43.11.67-.19.67-.12 0-.26.04-.31.09-.06.05-.19.11-.3.14-.13.03-.14.05-.04.06.08 0 .36-.06.62-.15Zm-26.37-1.51c3.4-3.51.77-9.54-4.16-9.53-5.14.01-7.8 6.24-4.17 9.78l.45.44.23-.64c.27-.7.94-1.18 1.66-1.18h.33v-.59c0-.42-.07-.75-.26-1.15-.21-.45-.25-.69-.23-1.26.02-.51-.02-.75-.13-.87-.24-.28-.3-.59-.14-.75a.5.5 0 0 0 .09-.41c-.07-.35.31-.39.41-.04.07.28.56-.23.55-.58-.02-.35.01-.45.11-.45.06 0 .1.3.1.7 0 .67-.01.7-.23.7-.35 0-.73.43-.53.59.12.1.15.34.14.99-.01.73.03.96.24 1.42.14.3.29.82.33 1.14.08.68.25.59.25-.13 0-.4.02-.43.22-.36.13.04.57.15.98.24l.75.17.33.69c.61 1.25.41 1.5-.77 1-.38-.16-.94-.3-1.35-.34-.57-.05-.7-.09-.68-.22.03-.19-1.08-.1-1.33.11-.52.44 1.76 1.2 3.6 1.2h1.01l-.01-.57c0-.35-.08-.71-.18-.9-.38-.71-.13-.71.44 0 .23.28.39.43.34.32-.16-.43-.16-.54 0-.85.38-.73 0-1.28-1.29-1.9-1.23-.58-1.9-1.12-1.83-1.47a1 1 0 0 0-.09-.52c-.23-.45-.18-1.51.07-1.51.21 0 .89.64.8.73-.07.07-.19.04-.35-.07-.25-.16-.26-.15-.32.08-.07.27.02.49.16.41.37-.23.63.4.3.7-.38.35.11.82 1.45 1.38.33.14.77.39.97.56.35.3.45.49.67 1.37.06.23.25.58.41.79.49.62.25 1.51-.26.94-.17-.19-.18-.19-.31.12-.12.28-.11.34.03.51.21.22.25.19 1.2-.79Zm9.71.8c-.04-.03-.07-.15-.07-.26s-.09-.34-.19-.51c-.11-.17-.25-.62-.31-.98-.05-.37-.13-.74-.16-.82-.04-.11 0-.16.14-.16.23 0 .32.18.32.68 0 .2.12.64.25.97.32.77.33 1.39.02 1.08Zm15.83-.63c.4-.2.66-.47.56-.57-.03-.03-.14.01-.24.1-.86.78-2.49.65-2.94-.22-.24-.48-.28-.48-.14.01.26.88 1.68 1.23 2.76.68Zm-45.45-.36c.19-.12.42-.15.9-.12.36.02.65.02.65-.01 0-.07-.63-1.05-.72-1.11-.04-.03-.04-.48 0-.99l.08-.93-.23.28c-.13.16-.37.62-.55 1.01-.36.79-.64 1.01-.46.36.25-.93 1.35-2.53 1.73-2.53.21 0 .24.12.11.39-.44.86-.28 1.06.24.28.28-.42.65-.87.83-1.01.17-.14.29-.28.25-.31-.16-.16-1.22-.35-2-.35h-.86l-.56.62C.45 36.26.22 37.03.68 37.92c.16.3.31.74.35.98.09.67.57.9 1.12.54Zm11.53-.23c-3.27-3.85.69-9.85 5.65-8.56 3.25.85 4.99 5.08 3.21 7.83-.35.54-.55.2-.25-.43.45-.93.73-2.17.51-2.3-.05-.03-.1-.3-.1-.6 0-1.62-1.07-3.12-2.8-3.94-.86-.4-2.65-.44-3.46-.07-.31.14-.64.26-.74.26-.3 0-.99.58-1.34 1.13-.19.29-.43.61-.55.71-1.15 1.03-1.1 4.26.1 5.68.21.26.39.51.39.57 0 .23-.3.09-.62-.28Zm5.41-.43-.31-.64-.65-.12c-.36-.07-.67-.11-.68-.1-.01.02-.05.21-.08.44l-.07.4.78.23c.42.12.88.28 1.02.36.35.19.35.15-.01-.57Zm28.16.5c.27-.14.65-.49.76-.71.08-.15.02-.13-.4.08-.57.3-1.4.42-1.94.27-.39-.11-.45-.06-.24.21.25.35 1.27.43 1.82.15Zm2.65.07c.17-.2.06-.73-.23-1.09l-.23-.28-.13.41c-.22.75.2 1.44.59.96Zm-44.86-.21c.53-.18.68-.42.65-1.03-.01-.2.06-.62.16-.93.26-.81-.28-2.23-.76-1.98-.57.31-1.53 2.09-1.47 2.74.03.29.04.28.35-.3C4.45 36.74 5 36.39 5 37c0 .11.04.2.08.2.14 0 .33.63.22.74s-.47-.17-.55-.45c-.08-.24-.25-.15-.25.12 0 .1-.04.19-.1.19-.05 0-.14.09-.2.21-.11.19-.1.2.11.09.17-.1.23-.09.3.01.14.23.1.35-.16.47-.19.09-.25.19-.25.42 0 .36.13.38.84.14Zm42.55-.87c.85-.57.05-1.87-1.14-1.87-1.24 0-2.26 1.51-1.35 2 .16.09.2.08.2-.05 0-.08-.04-.15-.1-.15-.15 0-.32-.39-.25-.6.04-.11.15-.2.25-.2.23 0 .42.32.34.54-.26.69 1.17.91 2.05.33Zm-3.41-.66c-.02-2.01 2.52-3.04 3.93-1.59.33.35.39.37.39.2 0-.3-.59-.86-1.07-1-2.02-.6-4.06 1.02-3.57 2.86.14.5.32.23.32-.47Zm-30.1.39c-.04-.08-.09-.33-.13-.55-.04-.21-.14-.44-.22-.5-.23-.17-.1-.31.33-.38.61-.1.87.47.4.84a.83.83 0 0 0-.28.47c-.03.18-.06.22-.1.12Zm34.98-.23a4 4 0 0 1-.06-.72c-.01-.45-.02-.48-.15-.32-.2.28-.29.95-.15 1.12.2.24.43.19.36-.08Zm-19.15-.44c.01-.21-.01-.47-.05-.58-.04-.14.03-.31.23-.55.35-.41.49-.34.33.17-.06.2-.1.39-.08.4.1.1.65-.62.83-1.08.21-.55.43-.76.43-.4 0 .49-.52 1.51-.91 1.79-.21.15-.41.35-.45.44-.11.35-.35.2-.33-.19Zm-8.65-.39c-.26-.67.12-1.39.59-1.14.14.07.25.19.25.27 0 .16-.12.17-.28.01-.23-.23-.45.11-.38.59.05.42-.06.59-.18.27Zm-19.91-.26c.13-.44.7-1.52.83-1.56.22-.07.12.3-.29 1.04-.39.71-.68.98-.54.52Zm46.58-.2c-.56-.96-2.4-.95-3.02.02l-.16.25.32-.27c.79-.64 2.26-.56 2.8.16.25.34.29.24.06-.16Zm-40.48-.57c-.07-.12.7-1.36.87-1.39.56-.11.51.89-.05 1.2-.32.17-.76.27-.82.19Zm22.75-.31c-.13-.08-.12-.13.03-.39.22-.38.22-.4-.08-.51-.26-.1-.32-.24-.15-.35.1-.06.77.21.86.36.14.24-.44 1.03-.66.89Zm-10.4-.08c0-.04.05-.13.11-.19s.11-.27.11-.47c0-.31.27-.66.53-.66.11 0 .04.28-.1.4-.08.07-.15.23-.15.37 0 .32-.17.63-.35.63-.08 0-.15-.04-.15-.08Zm1.86-.57c.05-.19 0-.3-.25-.51-.18-.15-.31-.35-.31-.49 0-.64-.35-1.04-.91-1.05-.57 0-.84.28-.82.85.01.38-.01.46-.15.43-.3-.06-.2-.94.14-1.29.74-.77 2.03-.16 2.04.98 0 .14.07.23.22.25.22.03.53.7.44.95-.1.26-.47.15-.4-.12Zm-7.22 0c-.09-.22.05-.53.15-.36.15.23.31.02.31-.4 0-.43.16-.53.26-.15.15.59-.52 1.43-.72.91Zm.76-2.2c0-.31.49-1.05.7-1.05.17 0 .16.05-.12.5-.38.62-.58.8-.58.55Zm3.17-.8c-.17-.61-.93-.91-1.27-.5-.13.16-.5.21-.5.07 0-.26.44-.47.97-.47.67 0 .97.28.91.86l-.03.34zm19.08-1.39c.8-.25.93-.37.71-.71-.83-1.26-6.37-1.85-7.43-.78-.55.54 1.03 1.34 3.32 1.67.64.09 2.91-.03 3.4-.18Zm-11.63-5.18-.25-.27-.26.26-.26.26.25.26.25.26.25-.25.26-.25zm-15.91.01-.26-.26-.25.26-.26.25.25.22.25.22.26-.22.26-.21zm31.83.02-.23-.25-.25.23-.25.24.21.22.22.23.27-.21.27-.22zm-17.05 0c.71-.2.66.8.69-12.92L25.42.2H9.8l.02 12.34c.03 13.81-.03 12.63.72 12.85.36.11 13.79.12 14.15.02Zm15.93-.02c.73-.2.68.71.68-12.94V.2H25.7v12.23c0 13.73-.05 12.73.72 12.96.47.13 13.72.14 14.2 0ZM4.64 22.8c-.11-.04-.36-.38-.56-.75-.29-.55-.43-.72-.79-.89-.47-.24-.57-.48-.58-1.43-.01-.3-.07-.46-.21-.56-.45-.32-.28-1.87.21-1.87.08 0 .1-.97.08-3.35l-.03-3.35-.81-.01c-1.44-.02-1.9-.11-1.93-.37-.03-.22-.01-.23.27-.17 3.49.76 7.45-1.69 7.86-4.87.06-.42.05-.41-.2.21C6.89 8.05 4.68 9.63 1.62 9.9.51 10 0 9.95 0 9.75c0-.09.28-.15.98-.19 1.27-.08 2.51-.38 3.32-.78l.65-.33L5 7.3c.03-.63.02-1.18-.03-1.21-.09-.06.12-.49.24-.49.21 0 .27.3.19 1-.2 1.65-.15 1.73.54 1.04 1.35-1.35 2.1-3.15 2.05-4.93-.03-1.11.1-1.28.38-.49.33.97.26 3.13-.14 4.11-.54 1.28-1.27 2.21-2.45 3.11l-.38.28v2.24c0 1.92.02 2.24.15 2.24.27 0 .3-.04.3-.4 0-.39.27-.51.33-.15.03.11.1.24.18.28.11.06.09.18-.13.59l-.26.5-.13-.25c-.08-.13-.2-.27-.29-.31-.27-.1-.22 3.05.05 3.22.21.13.31 1.34.11 1.46-.13.08-.21-.19-.21-.69 0-.24-.04-.46-.09-.49-.05-.04-.08.06-.06.21a.9.9 0 0 1-.08.48c-.22.41.26 2.67.63 2.92.6.42-.52 1.53-1.26 1.23Zm.8-.51c.3-.23.33-.45.11-.69-.22-.25-.85-2.08-.85-2.49 0-.3-.02-.33-.22-.27-.13.03-.3.06-.38.07-.1 0-.08.03.05.09.17.07.17.09.02.09-.13.01-.17.09-.16.34.01.29.02.3.08.07.1-.35.41-.4.41-.07 0 .38-.1.57-.31.57-.24 0-.27-.08.32 1.04.43.81.48.97.34 1.02-.09.04-.22-.01-.31-.12-.1-.14-.1-.09.03.18.2.44.46.49.87.17Zm-1.58-1.54c.04-.08.01-.22-.06-.3s-.16-.47-.2-.85c-.13-1.21-.4-1.04-.4.26 0 .74.02.82.23.92.3.15.37.14.43-.03Zm.85-2.58c.18-.4-.04-.77-.46-.77-.4 0-.56.33-.36.76.15.33.67.34.82.01Zm10.62-.07c-.64-.13-.91-.36-1.07-.91-.09-.28-.27-.59-.42-.72-.22-.19-.29-.36-.35-.88l-.07-.64.41-.53c.23-.28.52-.67.64-.85.37-.53.41-.55.88-.62.53-.09.53-.07.15-.55-.39-.49-.49-.76-.7-1.95l-.18-1 .28-.55c.15-.3.39-.92.54-1.38.5-1.5 1.95-2.33 3.84-2.19 1.99.15 2.94 2 2.26 4.37-.09.3-.25.89-.36 1.3-.46 1.77-1.39 2.45-3.24 2.38-.79-.03-.82-.02-.67.15.15.16.15.22 0 .71-.22.7-.22.79.09 1.26l.27.4-.18.47c-.1.26-.14.48-.09.5.53.18 1.69.94 1.69 1.09 0 .21-2.83.31-3.72.14Zm2.67-.41c-.08-.05-.36-.21-.62-.34-.59-.31-.62-.36-.43-.81.21-.51.19-.63-.18-1.23-.58-.92-1.06-1.1-1.59-.61l-.33.3.43-.06c.65-.1.51.26-.19.46-.38.11-.79-.09-.79-.38 0-.18.93-1.02 1.14-1.03.06 0 .31-.01.55-.03.4-.02.44 0 .53.26s.27.39.29.21c0-.05.02-.22.03-.39.03-.25-.01-.34-.19-.42-.77-.35-1.57-.37-1.48-.03.03.11-.05.22-.22.31-.38.2-1.15 1.19-1.15 1.48 0 .05.11.14.25.2.27.13.25.42-.04.42-.11 0-.06.08.15.25.21.16.35.39.43.69.07.27.19.5.32.56.44.24 3.43.42 3.09.19Zm10.97.04c-.04-.03-.07-.21-.07-.4 0-.18-.04-.33-.1-.33-.05 0-.1-.07-.1-.15 0-.12.17-.15.9-.15h.9v.35c0 .46.27.49.32.02l.03-.32 1.85-.03 1.86-.02-.01.45c-.01.55-.2.79-.39.52-.12-.16-.14-.16-.2-.02-.12.33-1.1.16-1.17-.2l-.06-.3-.04.29c-.05.37-.26.45-.37.15l-.09-.23-.06.23c-.08.33-2.59.3-2.76-.03-.1-.21-.1-.21-.17.01-.06.23-.15.28-.27.16Zm5.89-.02c-.03-.04-.02-.28.02-.52l.08-.44 1.78-.03c1.7-.02 2.21.04 1.91.26-.12.08-.13.42-.02.59.11.18-.07.24-.73.21-.4-.01-.64-.07-.69-.16-.07-.12-.09-.11-.14.02-.07.19-.38.21-.55.04-.07-.07-.12-.08-.12-.02 0 .18-.59.13-.63-.05-.04-.13-.05-.13-.06.01-.01.21-.21.24-.39.06-.09-.09-.12-.09-.12 0 0 .14-.26.16-.34.03ZM6.15 17.6a.4.4 0 0 1 0-.29c.05-.15.01-.18-.21-.13-.23.04-.26.02-.21-.12.04-.1.02-.26-.04-.38-.08-.15-.07-.24.05-.37.09-.1.16-.25.16-.34s.07-.17.15-.17.15.05.15.12c0 .09.03.09.12 0 .18-.18.28-.14.28.12 0 .18.07.25.28.29.26.05.29.09.29.51 0 .25-.02.46-.03.46s-.14-.04-.28-.1c-.23-.08-.28-.06-.41.2-.17.33-.21.35-.3.2Zm-2.79-.45c.04-.08.16-.15.29-.15.14 0 .25-.07.28-.2.03-.11.1-.2.16-.2s.08.07.05.15c-.05.11.02.15.26.15.21 0 .38.08.5.22.17.22.18.1.16-3.5 0-2.04-.02-3.72-.02-3.72-.01 0-.19.07-.4.17-.22.09-.66.24-.98.33l-.6.17.01.59c0 5.59.05 6.62.29 5.99Zm-3.32-.29c.03-.12.08-.4.12-.63.07-.43.2-.55.3-.29.03.08.14.16.24.19.15.04.18.13.17.49l-.02.45H.42c-.39 0-.43-.02-.38-.21Zm14.78-.12c-.63-.44.51-1.54 1.41-1.37.7.13.82.56.13.47-.48-.07-1.07.08-1.27.32-.19.23.05.34.79.34.55 0 .62.02.62.2 0 .27-1.31.3-1.68.04Zm13.86-.32c-.03-.09-.04-.67-.04-1.27l.01-1.1.88-.03.89-.03.33.35.32.35.11-.23c.27-.6 1.48-.73 2.02-.21l.28.27.04-.28c.02-.25.08-.29.36-.32.33-.03.42.03 1 .77l.18.24v-.49l-.01-.49 1.7-.03c2.13-.03 2.17-.03 2.13.46-.03.32-.07.37-.3.4-.27.03-.27.04-.3.9l-.03.87-.42.03-.43.03V14.8h-.3q-.3 0-.3.15c0 .15-.06.18-.5.19-.24.01-.25.04-.28.74l-.03.72h-.34c-.48 0-.62-.08-.87-.48l-.23-.37-.05.4c-.07.55-.91.64-1 .1-.04-.23-.07-.26-.12-.13-.24.6-1.51.63-2.05.05-.31-.35-.33-.35-.43-.16-.3.55-2.1.89-2.22.41Zm1.69-.23c.29-.18.43-.51.43-1.02-.01-.71-.35-.97-1.29-.97h-.61v2.23l.63-.05c.35-.03.73-.11.84-.19Zm2.75-.2c.4-.43.4-1.09-.01-1.5-.69-.69-1.91-.22-1.91.73 0 1.06 1.21 1.54 1.92.77Zm1.08-.29c0-.86.04-.86.58-.05.36.56.46.65.72.65h.3v-1.05c0-1.05 0-1.05-.25-1.05-.23 0-.24.03-.27.72l-.03.71-.53-.71c-.79-1.07-.92-1.02-.92.38 0 1.03.01 1.1.2 1.1.18 0 .2-.07.2-.7Zm3.86-.25.02-.9.31-.03c.19-.02.31-.09.31-.18 0-.21-1.75-.21-1.84.01-.04.12.03.15.34.15h.4v.96c0 .93.01.95.23.92.21-.03.22-.08.23-.93Zm-8.64-.17c.03-.85.26-1.01.73-.54.48.48.16 1.26-.52 1.26-.23 0-.24-.02-.21-.72Zm2.5.56c-.29-.2-.31-.93-.04-1.17.42-.38 1.02-.04 1.02.58s-.51.93-.98.59ZM8.1 15.82c0-.05-.09-.12-.2-.15-.14-.03-.2-.14-.21-.34-.02-.27-.02-.27-.08.05-.07.39-.25.43-.29.07-.02-.14-.1-.25-.18-.25S7 15.11 7 15s.05-.2.1-.2c.06 0 .1-.11.1-.25 0-.18.05-.25.2-.25.13 0 .2-.07.2-.19 0-.2.25-.35.41-.25.05.03.09.12.09.2s.09.14.2.14c.16 0 .2.07.2.3 0 .19.07.33.2.4.3.16.26.44-.04.36-.22-.05-.24-.03-.22.26.01.23-.04.33-.16.36-.1.02-.18-.01-.18-.06Zm21.95-.57c0-.34-.03-.4-.22-.43-.21-.03-.23.01-.23.43s.02.46.23.43c.19-.03.22-.09.22-.43Zm2.53.33c.17-.17.15-.42-.06-.68-.31-.39-.72 0-.58.56.07.26.43.33.64.12Zm-31.02-.05c-.04-.05-.17-.08-.29-.08-.27 0-.41-.49-.24-.87.15-.34.3-.31.37.08.04.21.11.29.25.29.16 0 .19.06.17.25-.04.3-.15.43-.26.33Zm45.82-.3c-.43-.05-.68-.32-.68-.76 0-.37.24-.31.28.06.02.15.06.27.1.28s.27.02.51.03l.43.02-.05-.43c-.05-.44.14-.62.27-.27.18.46-.16 1.3-.46 1.12-.02-.01-.2-.03-.4-.05ZM3.85 13.88c-.09-.2-.13-.43-.1-.6.06-.25.04-.28-.19-.28-.3 0-.36-.29-.08-.37.21-.05.45-.6.31-.69-.17-.1-.1-.46.09-.4.09.02.36.08.6.11.53.08.54.25.02.59-.22.14-.4.33-.4.41 0 .11.11.15.4.15.38 0 .4.02.4.3 0 .29-.13.4-.25.2-.12-.19-.45-.1-.57.16-.09.2-.09.3 0 .45.14.23.15.29.03.29-.05 0-.17-.14-.26-.32Zm44.35-.96c0-.1.09-.35.19-.55.17-.33.17-.39.05-.44q-.15-.06-.12-.39c.03-.42-.21-.69-.76-.83-.33-.08-.47-.18-.58-.41l-.15-.3-.18.4c-.1.22-.18.56-.17.75.01.37-.08.44-.28.2-.16-.2-.04-.89.26-1.44.14-.25.22-.52.19-.63-.08-.22.47-.26.9-.06.3.14.31.26.06.7l-.19.33.59.27.59.27v-.23c0-.12-.05-.27-.12-.34-.09-.09-.07-.16.06-.31.23-.25.13-.41-.24-.41-.32 0-.41-.15-.29-.47.06-.17.16-.23.38-.23s.29.04.25.14c-.04.09.06.18.3.26.19.06.46.2.6.31.18.14.26.16.26.07 0-.19-.12-.33-.39-.47-.3-.16-.14-.35.22-.26.68.18.74.92.11 1.4-.3.23-.34.3-.29.59.05.26 0 .42-.31.86-.2.3-.45.74-.56.98-.2.43-.38.55-.38.24Zm-31.52-.52c.19-.56.2-.6.03-.6-.15 0-.51.8-.51 1.13 0 .31.32-.04.48-.53Zm2.36.49c1.44-.4 2.35-2.36 1.35-2.9-.25-.13-.24-.13-.37.34-.1.37-.1.37.19.37.39 0 .37.15-.09.81-.54.78-1.21 1.12-2.32 1.19-.8.05-.83.06-.5.17.46.15 1.25.16 1.74.02Zm25.93-.54c-.33-.3-.38-.4-.35-.73.04-.48.33-.53.34-.05 0 .22.1.43.27.61.53.55.31.69-.26.17Zm1.87.1a.91.91 0 0 1 .65-1.42l.39-.05-.05.48c-.07.58-.26.99-.52 1.14-.27.14-.28.13-.47-.15Zm-17.22.05c-1.18-.25-1.85-.96-1.9-2.04-.06-1.05.03-1.09 1.15-.51 1.1.58 1.16.63 1.09.91-.11.41.77.79.99.43.05-.07.39-.08 1.05-.04l.97.07.11-.31c.06-.17.16-.31.21-.31.15 0 .14.53-.01.68-.09.09-.03.12.28.12h.41l-.01-.4c-.01-.45.17-.59.22-.18.04.36.31.43 1.24.34.46-.04.82-.02 1.04.06.54.19.88.02.94-.47s1.79-1.5 2.08-1.22c.58.59.01 2.05-1.02 2.6-.88.47-3.09.22-3.24-.36-.04-.17-.11-.19-.61-.12-.66.09-1.15.09-1.92-.01-.52-.06-.56-.05-.62.15-.11.45-1.53.8-2.45.61Zm-10.73-.48c.17-.12.37-.22.45-.22.16 0 .57-.6.5-.72-.08-.13-.41-.09-.53.06-.07.08-.23.17-.37.2-.14.04-.38.15-.53.26-.14.1-.47.21-.73.25-.4.05-.48.1-.48.27 0 .3 1.25.23 1.69-.1ZM31.1 12c.81-.23.81-.49 0-.3-.92.22-1.79-.17-1.64-.75.06-.23.01-.27-.57-.55-.86-.41-.93-.4-.86.12.15 1.15 1.67 1.88 3.07 1.48Zm7.28-.25c.67-.36 1.3-1.65.82-1.65-.42 0-1.42.61-1.36.84.14.57-.67 1-1.45.77-.36-.11-.88-.07-.75.06.4.41 1.98.4 2.74-.02Zm4.62 0c0-.14.52-1.05.75-1.33.14-.17.29-.52.35-.82.13-.68.54-1.42 1.11-2.01 1.7-1.75 4.59-1.34 4.59.65v.35l-1.12-.05c-1.37-.07-2.19.09-3.14.62-.37.21-.64.31-.64.24 0-.1-.03-.1-.15 0a.5.5 0 0 0-.15.34c0 .13-.18.39-.41.61s-.54.64-.71.93c-.25.44-.48.66-.48.47Zm-23.9-.93c0-.2-.49-.54-.68-.48-.26.09-.45.32-.37.46.07.12 1.05.14 1.05.02Zm-1.65-.11c-.06-.04-.31-.16-.57-.26s-.53-.23-.59-.31c-.06-.07-.25-.16-.42-.19-.18-.04-.4-.14-.5-.23-.24-.22-.31-.09-.17.33.08.23.21.4.37.46.56.21 2.06.37 1.88.2Zm2.19-.47c.1-.26.07-.34-.19-.46-.14-.06-.25-.17-.25-.23 0-.16-.52-.38-.77-.33-.4.07-.28.55.16.63.26.04.45.15.56.31.18.28.4.31.49.08Zm-1.84-.04c.4-.22.13-.5-.49-.5-.76 0-.97.14-.51.33.74.3.75.31 1 .17Zm3.39-.6c.16-.53.26-1.7.15-1.7-.05 0-.18.19-.3.42-.21.41-.48.68-.58.57-.03-.03.1-.45.29-.94.41-1.03.42-1.14.14-1.49-.38-.48-.95-.7-1.84-.7-1.06-.01-1.26.06-.98.37.56.6.64 1.15.33 2.04-.22.63-.2.75.1.48.48-.43 1.2-.15 1.2.46 0 .23.06.28.45.38.25.06.53.2.63.3.24.27.27.26.41-.19Zm-4.49-.31c0-.08.12-.1.35-.06.45.07.47.02.34-.85-.22-1.43-1.12-1.66-1.59-.41-.12.32-.27.64-.33.72-.09.11-.09.15.01.18.06.03.12.13.12.23 0 .15.06.17.3.14.17-.03.3-.01.3.05s.11.11.25.11.25-.05.25-.11Zm28.84-.58c.69-.42 1.36-.55 2.67-.56h1.26l-.08-.29c-.43-1.49-3.06-1.2-4.29.47-.45.61-.24.79.44.38Zm-29.7-.15c-.14-.36.45-.84.86-.71.28.09.53.58.37.74-.17.17-1.16.14-1.23-.03Zm2.36-1.22c0-1.09-.86-1.54-1.63-.84l-.32.29.41.01c.48 0 .89.34.98.81.03.16.09.44.13.61l.06.33.18-.4c.1-.22.19-.58.19-.81Z"/></svg>