<svg xmlns="http://www.w3.org/2000/svg" width="51" height="51" viewBox="0 0 51 51"><path fill="#fff" fill-rule="evenodd" stroke="#fff" stroke-width=".427" d="M.2 51c-.13-.08-.15-3.05-.18-25.5L-.01.1l25.53.02 25.53.03.03 25.39c.02 20.25 0 25.41-.1 25.48-.19.11-50.6.1-50.78-.02Zm50.62-6.57c.02-3.51.04-14.85.06-25.19L50.9.42l-.22-.06C50.55.33 39.17.3 25.38.3H.3v50.5h50.5zM8.14 37.87c-.02-.07-.03-3.14-.02-6.83l.03-6.69.26-.55c.69-1.45 1.2-1.64 4.61-1.68 3.25-.04 3.51.01 4.32.81.97.94 1.01 1.15 1.01 4.92 0 3.62-.08 4.09-.8 5.08-.84 1.13-1.34 1.27-4.57 1.27H10.4l-.02 1.88-.03 1.87-1.08.03c-.83.02-1.09 0-1.13-.11Zm21.62-.03c-.03-.09-.06-.51-.06-.94 0-1.22-.39-1.1 3.61-1.1h3.48l.27-.23c.22-.19.28-.34.32-.8l.04-.56-2.73-.03-2.74-.03-.57-.28c-.61-.3-1.05-.74-1.4-1.4-.23-.42-.23-.42-.23-5.37v-4.95l1.04-.03c.77-.02 1.07.01 1.13.1.04.07.08 2.15.08 4.61v4.49l.29.29.29.29h2.15c1.97 0 2.17-.02 2.38-.19l.24-.19.05-4.69.05-4.68h2.2v6.7c0 7.72.04 7.38-.89 8.3-.84.84-.89.85-5.22.85-3.3 0-3.73-.02-3.78-.16Zm-19.64-2.01.03-1.88L13 33.9c3.2-.06 3.43-.11 4.12-.89.84-.96 1.02-2.03.96-5.76-.06-3.01-.12-3.28-.87-4.06-.7-.72-1.04-.79-3.97-.79-2.84 0-3.42.11-4.06.77-.76.78-.73.39-.76 7.86l-.03 6.67h1.71zm27.79 1.59c.31-.16.68-.46.86-.7.63-.83.63-.78.63-7.89V22.4h-1.69l-.03 4.61-.03 4.61-.33.29-.32.29h-2.18c-3.36 0-3.12.42-3.12-5.45V22.4H30v4.63c0 5.64.04 5.81 1.44 6.55l.51.27 2.89.03 2.88.03-.04.69c-.08 1.47-.15 1.5-4.3 1.5H30v1.6h7.38zm-16.44-3.33c-.97-.23-1.99-1.15-2.36-2.14-.47-1.27-.24-3.89.44-4.92.79-1.2 1.18-1.31 4.55-1.35 2.84-.03 2.76-.01 2.64-.64-.12-.65-.02-.63-4.05-.66l-3.64-.03-.03-1.13-.03-1.13 4.03.03c4.56.03 4.59.04 5.31.89.55.63.58.87.67 4.24.13 4.87-.12 5.8-1.82 6.65l-.61.3-2.36-.01c-1.3-.01-2.53-.05-2.74-.1Zm5.62-.42c1.54-.84 1.78-1.84 1.63-6.67-.14-4.68.04-4.54-5.6-4.58l-3.82-.03v1.71h7.17l.26.25c.35.36.46 1.55.13 1.55-2.4 0-5.39.13-5.76.25-.67.22-1.15.67-1.52 1.43l-.33.67v1.7c0 2.39.5 3.26 2.2 3.81.68.22 5.2.14 5.64-.09Zm-16.44-1.69c-.52-.41-.55-.62-.55-3.75 0-4.38-.19-4.13 3.11-4.13h2.39l.32.29.33.29.03 3.29.03 3.29-.23.34c-.39.57-.51.6-2.94.6-2.12 0-2.22-.01-2.49-.22Zm11.18.15c-.73-.15-.96-.78-.91-2.44.05-1.92.23-2.04 3.08-2.04 2.76 0 3.02.15 3.06 1.75.03 1.47-.08 2.06-.44 2.43l-.32.32-2.13.01c-1.16.01-2.22 0-2.34-.03Zm-6.16-.47.28-.24.03-3.26.03-3.26-.25-.25-.25-.25H13.2c-3.1 0-2.83-.39-2.78 4.02l.03 2.96.24.26.24.26h2.23c2.21 0 2.23 0 2.51-.24Zm10.73-.04c.32-.32.47-1.33.37-2.44-.1-1.12-.44-1.28-2.77-1.28-2.61 0-2.8.14-2.8 2.01 0 1.97.02 1.98 2.88 1.99h2.04zm10.61-11.27L35.65 19l.25-.2c.14-.12 1.12-.84 2.18-1.62 1.93-1.41 2.28-1.71 1.5-1.25-3.21 1.85-4.39 2.48-4.56 2.43-.35-.11-2.02-1.91-2.02-2.18 0-.59-.14-.54 6.25-2.04 3.85-.91 4.08-.94 4.13-.54.02.24-1.45 3.14-3.25 6.4-1.22 2.21-1.23 2.21-3.12.35Zm-2.31.99c-.12-.13-.28-1.47-.3-2.36 0-.5.31-.32 1.4.77 1.18 1.19 1.18 1.16.17 1.53-.69.26-1.1.28-1.27.06Zm4.58-.42c.48-.79 3.82-7.08 3.82-7.2 0-.16.08-.17-2.1.32-4.29.98-6.71 1.56-7.38 1.77-.53.17-.43.44.57 1.43l.9.89 2.38-1.35c1.31-.75 2.93-1.68 3.61-2.07 1.18-.68 1.52-.82 1.52-.62 0 .12-.39.42-3.65 2.82-1.43 1.05-2.66 1.96-2.73 2.03-.1.1.11.35 1.07 1.29 1.41 1.38 1.54 1.42 1.99.69Zm-3.29.01.42-.18-.85-.84-.85-.84.05.94c.08 1.36.14 1.41 1.23.92Zm-25.85-.57c-.12-.31 0-.81.21-.84.71-.1.65.09.65-2.07V15.5h-.22c-.58 0-.69-.1-.66-.54l.03-.41 1.73-.03 1.72-.02v.44c0 .43-.01.44-.37.53l-.38.09v3.89l.35.05c.34.05.35.06.35.5v.45l-1.68.03c-1.38.02-1.68 0-1.73-.12Zm3.9 0c-.15-.39 0-.81.31-.84.54-.07.55-.09.55-2.13V15.5l-.4-.06c-.42-.07-.56-.28-.48-.71.03-.16.16-.18 1.58-.18h1.55l.65 1.52c.36.84.68 1.53.71 1.53s.34-.64.69-1.42c.81-1.86.57-1.68 2.27-1.68h1.44l-.03.43c-.03.39-.05.43-.41.51l-.37.1.02 1.95.03 1.96.35.05c.34.05.35.06.35.5v.45l-1.73.03-1.72.02V20c0-.48.01-.5.28-.5.51 0 .53-.07.5-1.41l-.03-1.24-.44 1c-1.18 2.66-1.17 2.65-1.49 2.65-.38 0-.36.04-1.28-2l-.79-1.75-.03 1.24c-.03 1.51-.03 1.51.48 1.51h.41l-.03.48-.03.47-1.43.03c-1.16.02-1.43 0-1.48-.12Zm9.32-.2c-.09-.49 0-.64.42-.68l.37-.03.08-1.63c.12-2.12.09-2.28-.43-2.36-.4-.06-.4-.07-.4-.51v-.45l3.13.02 3.12.03.06 1.05c.07 1.27.02 1.4-.51 1.4-.43 0-.6-.18-.6-.64 0-.56-.35-.75-1.45-.78l-1-.03-.03.68c-.03.73-.03.73.56.61.28-.06.31-.1.34-.48.03-.44.27-.56.84-.42l.25.07-.03 1.42-.03 1.42h-1l-.03-.4c-.04-.45-.14-.55-.59-.55h-.33v1.5h1c1.3 0 1.41-.1 1.52-1.35.03-.29.05-.3.53-.3h.5v2.7l-3.11.03-3.12.02zM13.3 20c0-.15-.07-.2-.24-.2-.49 0-.56-.27-.56-2.31 0-2.17 0-2.15.51-2.29.23-.06.39-.17.39-.25 0-.13-.25-.15-1.5-.15s-1.5.02-1.5.15c0 .08.16.19.39.25.51.14.51.12.51 2.3 0 2.19 0 2.18-.51 2.26-.29.05-.39.11-.39.25 0 .18.1.19 1.45.19 1.38 0 1.45-.01 1.45-.2Zm3.4 0c0-.15-.07-.2-.25-.2-.59 0-.66-.23-.63-2.18.02-1.09.07-1.77.13-1.77s.55.98 1.1 2.17c.67 1.46 1.05 2.18 1.15 2.18s.3-.33.55-.92c.71-1.68 1.54-3.38 1.64-3.38.12 0 .16 3.36.05 3.64-.04.09-.23.19-.45.22-.29.05-.39.11-.39.25 0 .18.1.19 1.5.19 1.43 0 1.5-.01 1.5-.2 0-.14-.07-.2-.22-.2-.54 0-.58-.16-.58-2.35 0-2.16 0-2.16.51-2.29.15-.03.29-.13.33-.21.05-.13-.13-.15-1.22-.15h-1.28l-.74 1.62c-.44.95-.81 1.64-.9 1.66-.12.02-.34-.42-.85-1.63l-.69-1.66-1.3.03c-1.3.03-1.78.18-1.02.32.54.1.58.25.54 2.42-.03 2.13-.06 2.24-.65 2.24-.16 0-.23.06-.23.2 0 .19.07.2 1.2.2s1.2-.01 1.2-.2Zm12.7-.9V18h-.25c-.22 0-.25.04-.25.35 0 1.07-.39 1.35-1.93 1.35h-1.18l.03-1.02.03-1.03h.56c.67 0 .89.15.89.61 0 .3.03.34.25.34h.25v-2.4h-.25c-.22 0-.25.04-.25.34 0 .39-.12.51-.62.6-.8.14-.88.05-.88-.95v-.89h1.15c1.42 0 1.69.11 1.86.73.06.23.13.48.15.54.02.07.13.13.24.13.19 0 .2-.06.2-.95v-.95h-2.9c-2.42 0-2.9.02-2.9.14 0 .08.19.2.42.28.35.11.44.19.49.43.09.39.09 2.75.01 3.45l-.07.55-.42.09c-.4.09-.53.23-.36.39.03.04 1.34.07 2.9.07h2.83z"/></svg>