<svg xmlns="http://www.w3.org/2000/svg" width="51" height="51" viewBox="0 0 51 51"><path fill="#fff" fill-rule="evenodd" stroke="#fff" stroke-width=".301" d="M11.08 49.82c-.81-1.66-1.37-2.59-3.89-6.47-3.21-4.92-3.82-6.04-4.94-9.05C.29 29.05.23 23.37 2.06 17.91c.8-2.38 1.98-4.57 4.59-8.56C9.8 4.55 11.9.85 11.9.11c0-.07.41-.11 1.2-.11h1.2l-.22.58c-.11.31-.5 1.2-.86 1.97-.86 1.88-.94 2.09-.82 2.39.14.38.28.4.78.08C20.33.56 29.96.5 37.54 4.87c1.19.68 1.43.26.68-1.23-.49-.98-1.21-2.65-1.38-3.22l-.13-.43 1.16.03 1.15.03.22.6c.44 1.23 1.74 3.5 4.29 7.5 1.55 2.43 1.87 2.95 1.87 3.09.01.56-5.57-8.6-6.25-10.27l-.34-.82-.92-.03-.91-.03.07.28c.12.49.56 1.54 1.16 2.8.62 1.27.71 1.72.44 2.1-.15.21-.13.24.47.64 8.5 5.73 12.31 16.17 9.67 26.49-1.34 5.23-4.72 10.02-9.39 13.32-.47.34-.86.61-.87.62s.05.22.14.47l.16.45-.86 1.81c-.48 1-.87 1.84-.87 1.87s.43.06.95.06H39l.31-.62c1.04-2.07 5.93-9.9 6.45-10.33.29-.24 2.02-3.64 2.63-5.17.23-.56.36-.68.56-.49.19.17.52.22.58.08.04-.1-.02-.13-.21-.1-.15.02-.21 0-.14-.03.21-.1.13-.25-.12-.2-.35.06-.36-.14-.09-1.09 1.57-5.46 1.31-11.33-.72-16.4-.73-1.8-1.97-4.22-2.52-4.88-.29-.36-.29-.48 0-.75.65-.61 1.04-.05 3.17 4.47 1.11 2.37 1.14 2.6.28 2.93-.04.02.06.49.22 1.06.86 3.04 1.02 7.04.44 10.62-.17 1.02-.58 2.81-.74 3.17-.08.19-.06.23.1.23.78 0 .74.61-.14 2.43-.41.84-1.1 2.27-1.54 3.18-1.02 2.14-1.16 2.29-1.7 1.84l-.3-.25-1.08 1.62c-2.47 3.73-4.2 6.58-4.92 8.1l-.37.77-1.17.01c-.65 0-1.18-.02-1.18-.05s.41-.93.91-2c.86-1.86.9-1.97.79-2.3-.14-.43-.06-.43-.85.05-7.2 4.41-17.07 4.41-24.3.01-1.15-.7-1.28-.12-.39 1.7.31.63.71 1.47.9 1.87l.33.72-1.22-.01h-1.22zm2.71.99c-.06-.16-.44-.98-.85-1.81-.76-1.56-.85-1.93-.6-2.39.13-.24.12-.26-.58-.74-9.81-6.74-13.24-19.86-8-30.63 1.72-3.55 4.97-7.26 8.21-9.42.51-.33.52-.36.37-.53-.26-.28-.2-.87.13-1.54C12.89 2.93 14 .35 14 .21c0-.07-.32-.11-.94-.11h-.94l-.17.52c-.38 1.2-2.11 4.2-4.78 8.28C2.27 16.4.95 20.02.96 26c0 5.8 1.43 9.61 6.5 17.41 2.36 3.65 2.96 4.63 3.79 6.26l.65 1.28.93.06c.5.03.95.06.99.07s.02-.11-.03-.27Zm14.66-.96c8.44-.99 16.09-6.93 19.29-15C54 19.06 42.38 1.83 25.5 1.86 9.72 1.89-1.79 16.92 2.36 32.09c2.71 9.89 10.59 16.62 20.89 17.84.86.11 4.04.05 5.2-.08Zm-4.6-.52C7.37 48.2-2.88 30.01 4.69 15.35 12.45.34 32.66-1.99 43.42 10.9c8.34 9.98 6.75 25.42-3.42 33.29-4.99 3.86-10.27 5.54-16.15 5.14Zm4.97-.38c7.71-1.15 14.8-6.6 17.82-13.7C52.69 21.09 44.01 5.29 28.9 2.93 13.61.55-.01 14.47 2.7 29.7c2.24 12.54 13.83 21.08 26.12 19.25Zm-3.65-3.52c-.04-.03-.07-.22-.07-.41 0-.21-.07-.4-.17-.48-.17-.13-.17-.15.02-.29.33-.26.49-.15.56.4.03.28.07.45.07.38.01-.07.14-.19.3-.27.25-.14.26-.15.05-.16-.31 0-.29-.28.02-.4.52-.2.87.22.54.64-.17.22-.18.26-.05.26.21 0 .21.26 0 .34-.25.1-.69.07-.81-.05-.08-.08-.13-.08-.17 0-.08.12-.2.14-.29.04Zm-4.32-.56c-.23-.17-.12-.37.4-.69l.3-.19-.28.07c-.25.06-.28.04-.25-.12.02-.13.13-.2.34-.22.43-.04.54.14.46.73-.08.55-.52.74-.97.42Zm9.36-.09c-.05-.13-.12-.31-.15-.42-.04-.11-.12-.16-.21-.12-.21.08-.31-.2-.15-.39.35-.42 1.14.58.85 1.05-.1.17-.25.11-.34-.12ZM20.2 44.6c0-.12.05-.3.1-.4.08-.14.07-.25-.02-.4-.12-.19-.01-.39.23-.4.34-.01.42.28.23.81-.2.56-.54.81-.54.39Zm10.93.08c-.06-.07-.14-.28-.18-.45-.05-.23-.12-.33-.26-.33-.23 0-.24-.13-.03-.35.29-.28.48-.14.64.48.15.59.06.93-.17.65Zm-7.68-.84C12.27 42.26 5.22 31.23 8.55 20.52c1.22-3.89 3.94-7.54 7.1-9.49l.79-.5.01-.49c0-.27.05-.57.09-.68.07-.14.06-.18-.04-.14-.15.05-.4.81-.37 1.12.01.12-.05.22-.15.24-.22.04-.35-.41-.2-.73.11-.23.1-.24-.13-.13-.14.06-.28.09-.31.05-.12-.11.07-.46.29-.53.12-.03.31-.14.42-.24.35-.3.54-.32.81-.05.15.15.36.25.53.25.16 0 .39.08.51.18.22.18.25.18.59.01 2.27-1.09 6.76-1.69 9.77-1.3 6.97.92 13.15 6.38 14.88 13.16 2.6 10.15-3.56 20.03-13.95 22.41-.72.16-4.93.29-5.74.18Zm1.75-1.09v-.85h1.23l-.05.85-.06.85h1.09l-.03-.57c-.02-.46 0-.58.12-.58.11 0 .16.14.18.53.03.59.01.58.99.41.46-.08.63-.15.59-.25-.13-.34-.27-.97-.22-1.01.14-.14.36.1.42.45.1.61.12.62.87.44.74-.17.73-.17.52-.69-.19-.44-.19-.63-.01-.63.08 0 .21.21.31.5.09.28.18.5.2.5.03 0 .69-.24 1.07-.39l.27-.1-.19-.43c-.23-.51-.25-.68-.06-.68.08 0 .22.2.33.45.21.53.19.52.83.2l.48-.24-.44-.78-.44-.77.43-.18c.59-.24.58-.25 1.01.47.21.36.4.65.42.65s.23-.12.47-.27l.44-.26-.28-.46c-.32-.5-.23-.88.09-.43.1.12.24.33.33.44l.17.22.56-.43c.65-.51.64-.47.26-.91-.16-.19-.29-.41-.3-.47 0-.24.25-.13.57.24l.33.38.51-.53.52-.53-.39-.4c-.29-.3-.35-.42-.26-.51s.2-.03.46.25c.44.47.44.47.89-.13s.45-.58.02-1c-.58-.56-.36-.72.27-.2l.37.3.3-.44c.39-.56.43-.48-.39-.97-.81-.48-.77-.39-.43-.92.15-.23.28-.43.29-.45s.34.15.73.36l.7.4.19-.31c.34-.59.34-.65-.01-.77-.47-.16-.73-.38-.61-.5.07-.07.26-.04.58.1.26.11.49.2.51.2.05 0 .45-1.09.45-1.23 0-.07-.19-.19-.42-.27-.57-.2-.65-.45-.12-.37.22.03.47.08.56.12.14.05.2-.03.32-.47.26-.92.26-.91-.22-1-.86-.15-.89-.44-.03-.35l.59.06.06-.47c.04-.26.09-.59.12-.74.05-.26.04-.27-.43-.3-.37-.02-.49-.07-.51-.22-.03-.16.02-.18.5-.15l.53.04.03-.57.03-.58h-1.6l-.03.88-.03.87h-5.1l-.03-.53c-.03-.46-.06-.53-.2-.47-1.53.64-1.97.68-3.15.25l-.87-.32V23.8l4.68.02 4.67.03.03.68.03.67h.79c.86 0 .86.01.74-.59-.06-.3-.08-.31-.6-.31-.39 0-.54-.04-.54-.14 0-.16.3-.26.78-.26.31 0 .33-.02.28-.28-.03-.15-.08-.49-.12-.75-.05-.37-.1-.47-.23-.43-.45.12-.9.16-.95.07-.09-.14.15-.28.62-.36.23-.04.42-.09.42-.11 0-.07-.33-1.38-.35-1.42-.01-.01-.22.05-.45.13-.51.18-.79.13-.6-.1.07-.08.3-.2.51-.27.22-.06.39-.12.39-.13 0-.03-.25-.73-.39-1.08l-.11-.28-.39.21c-1.05.53-.91.09.17-.56.02-.01-.18-.43-.43-.94s-.49-.9-.52-.87.04.21.16.4c.11.19.21.37.21.41s-.78.48-1.31.74c-.07.03-.59-.81-.59-.95 0-.05.32-.24.7-.43.81-.39.78-.33.44-.82-.32-.46-.3-.46-.83-.07-.33.25-.45.29-.54.2-.12-.13-.09-.16.61-.72l.24-.18-.48-.56-.48-.55-.36.35c-.36.35-.6.45-.6.24 0-.07.16-.27.36-.45l.35-.34-.37-.45c-.56-.69-.66-.71-1.03-.25-.18.22-.36.4-.41.4-.19 0-.09-.36.21-.7l.3-.35-.33-.28a10 10 0 0 0-.6-.48l-.27-.2-.27.41c-.26.39-.54.53-.54.27 0-.07.12-.3.26-.51.15-.21.22-.41.17-.45-.43-.29-.85-.53-.87-.5-.01.02-.17.3-.35.61-.41.72-.42.73-.91.48s-.49-.25-.01-1.03l.39-.64-.55-.27c-.31-.15-.56-.26-.57-.24s-.11.24-.24.51c-.12.26-.26.47-.32.47-.15 0-.12-.41.05-.7.23-.4.18-.47-.42-.7-.65-.24-.78-.22-.86.17-.07.35-.33.71-.43.6-.07-.07.03-.59.2-.98.06-.13-.05-.19-.52-.33-.85-.23-.87-.23-.98.31-.06.35-.14.49-.28.51-.2.04-.2-.05-.01-.8.08-.3 0-.34-.84-.44l-.61-.07v.36c0 .46-.09.67-.27.67-.12 0-.14-.11-.11-.52l.03-.53-.47-.03-.48-.03v1.82l-.57-.03-.58-.03-.03-.87-.03-.88H24l.06.55c.06.46.04.55-.09.55-.12 0-.18-.14-.23-.5-.07-.56-.08-.56-.94-.4-.66.13-.63.08-.49.64.08.33.09.5.01.58-.13.13-.27-.12-.37-.65-.04-.2-.09-.37-.12-.37-.14 0-1.43.32-1.43.36 0 .03.07.21.15.41.08.19.15.44.15.54 0 .34-.21.2-.42-.28-.11-.27-.22-.5-.24-.52-.03-.03-1.24.37-1.32.44-.01.01.07.23.18.49.24.56.25.66.06.66-.07 0-.24-.24-.36-.52l-.23-.53-.09.32c-.19.7-1.38.74-1.38.04 0-.54.57-.71.86-.26.21.32.09.47-.12.17-.25-.37-.74-.19-.53.2.13.23.5.23.8-.01.22-.18.22-.19.06-.44-.33-.51-.98-.47-1.24.08-.27.56.3 1.15.84.86.18-.09.21-.04.36.43.22.69.22.72-.11.84-.15.05-.35.13-.44.17-.14.05-.24-.06-.49-.58l-.33-.66-.5.26c-.28.14-.53.27-.55.29s.09.24.24.5c.38.65.18.82-.24.2l-.32-.46-.59.45-.59.46.35.46c.5.65.29.87-.25.25l-.37-.42-.52.53-.52.52.37.38c.3.3.35.39.25.49-.11.11-.2.06-.48-.24-.42-.47-.34-.49-.88.19l-.45.57.4.29c.37.27.52.57.28.57-.06 0-.25-.11-.43-.25-.42-.32-.4-.33-.76.19l-.3.45.67.37.72.4c.07.06-.21.63-.4.8-.18.16-.22.15-.84-.24l-.65-.41-.25.49c-.31.62-.33.56.2.79.27.12.45.26.45.37 0 .18-.11.17-.73-.1l-.38-.16-.19.46c-.37.85-.36.9.07 1.04.42.14.63.28.63.41 0 .14-.34.11-.75-.07-.2-.08-.38-.14-.39-.12-.04.06-.36 1.28-.36 1.37 0 .05.17.12.38.16.5.08.7.21.56.35-.09.09-.22.08-.53 0-.54-.14-.57-.11-.66.56-.04.32-.09.63-.12.71-.04.09.06.13.35.13.91 0 1.04.37.14.42l-.57.03-.03.43-.03.42h.68c1.08 0 1.13.03 1.13.66v.54H7.98l.06.31c.03.17.06.44.06.59 0 .27.02.28.53.26.75-.02.75.28-.01.32l-.53.03.07.37c.03.2.1.54.16.75l.09.38.55-.07c.68-.08.82.21.15.32-.6.1-.64.15-.51.64.25.93.23.91.75.73.25-.08.49-.13.52-.1.13.14-.08.34-.46.46-.23.06-.41.14-.41.16 0 .09.43 1.2.49 1.27.03.04.26-.02.5-.12.72-.33.88-.03.16.32-.53.26-.53.44.01 1.17.02.01.29-.13.61-.33.72-.44.82-.45 1.11-.01.31.48.3.51-.43.96-.75.48-.72.4-.4.96.31.51.33.52.7.13.27-.28.65-.41.65-.21 0 .05-.18.25-.4.45-.44.4-.44.39.07 1.04l.35.43.4-.37c.58-.52.77-.3.23.26l-.39.4.52.53.53.52.32-.38c.32-.37.57-.48.57-.24 0 .07-.14.29-.3.49l-.3.37.56.45c.68.56.64.55.94.06.25-.41.5-.53.5-.24 0 .08-.11.3-.25.48-.32.42-.32.39.15.7.5.33.42.36.86-.36.21-.35.39-.65.41-.67.07-.1.93.4.93.53 0 .08-.16.41-.34.72-.4.65-.39.67.15.95.47.23.5.22.74-.31.1-.22.22-.4.26-.4.19 0 .19.23 0 .64l-.19.45.63.26c.72.31.8.29.89-.19.07-.35.31-.64.43-.52.04.03-.01.29-.09.57-.12.37-.13.51-.05.54.07.02.32.09.57.15s.53.13.62.16c.13.04.19-.06.28-.51.07-.32.17-.55.24-.55.15 0 .23-.36 1.25-5.85.38-2.04.93-4.94 1.22-6.45l.52-2.75-.44-.46c-.48-.5-1.93-1.52-6.92-4.89l-1.38-.93-.47.21c-1.89.84-3.69-1.04-2.59-2.7.75-1.13 3.07-.94 3.29.26.02.13.76.7 2.03 1.56 1.1.74 3.05 2.07 4.33 2.94s2.35 1.56 2.36 1.54c.02-.01.14-.57.27-1.23.22-1.1.26-1.2.48-1.23.69-.1.84.17.6 1.14-.06.25-.09.47-.06.51.05.05 2.69-2.05 9.1-7.22.92-.75 1.73-1.33 1.78-1.29.25.15.98 1.27.91 1.39-.04.07-.24.27-.44.43l-.38.3.42.06c1.68.27 1.59 1.89-.12 2.15-.46.08-.7.17-.82.32-.35.43-.26.48.9.51l1.07.03.03.29c.05.41-.09.46-1.28.45-1.6-.02-1.66-.04-1.62-.64.06-.85.58-1.49 1.3-1.6.96-.15 1.21-.35.92-.7-.19-.23-.98-.19-1.39.06-.19.11-.42.18-.52.16-.22-.06-9.61 7.56-9.96 8.08-.12.18-.36.38-.53.43-.16.06-.3.14-.3.19 0 .04-.27 1.48-.6 3.2-.33 1.71-.6 3.17-.6 3.22 0 .07.41.11 1.14.11 1.31 0 1.26-.04 1.26.96v.63l-1.37.03-1.38.03-.31 1.7c-1.06 5.79-1.13 6.1-1.49 6.01-.18-.05-.25-.02-.25.08 0 .13 1.35.45 1.44.35.02-.02.07-.26.12-.52.11-.59.28-.58.31.03.01.25.02.48.02.53.01.04.26.07.56.07h.55zm.88.13c-.03-.7-.04-.73-.28-.73s-.25.03-.28.73l-.03.72h.62zm-9.58.19c0-.08-.09-.22-.2-.32-.24-.22-.16-.35.4-.6.48-.22.74-.1.52.25-.06.11-.12.29-.12.4 0 .1-.09.24-.19.3-.27.14-.41.13-.41-.03Zm18.26-.26c-.09-.16-.24-.31-.36-.34-.11-.03-.2-.1-.2-.15 0-.16.31-.43.44-.39.14.04.66.99.6 1.09-.11.17-.34.07-.48-.21Zm.45-.28c-.62-.78 0-1.58.63-.82.32.38.33.73.04.93-.31.22-.43.2-.67-.11Zm-19.61-.01c0-.1.07-.28.16-.4.11-.16.13-.27.05-.35-.17-.21.03-.41.33-.33.4.1.41.3.06.8-.32.47-.6.6-.6.28Zm9.2-1.24c-1.61-.82-.96-3.28.93-3.54.85-.12 1.9.57 1.44.95-.1.08-.23.06-.52-.09-.66-.34-1.46-.18-1.81.34-.21.33-.16.38.27.26 1.44-.42 2.63.36 2.26 1.48-.27.8-1.56 1.1-2.57.6Zm-7.3-.54c.18-.3.31-.57.29-.58-.4-.34-.53-.26-.93.52-.17.32-.17.34.01.48.27.2.29.19.63-.42Zm9.42.17c1.03-1.15-.6-1.98-2.45-1.25-.22.08-.16-.31.12-.8.34-.6 1.44-.86 2.12-.5.4.2.49.11.13-.13-1.53-1-3.53 1.15-2.33 2.52.58.65 1.89.74 2.41.16Zm7.63.25c.19-.14.19-.14 0-.49-.34-.64-.47-.76-.73-.66l-.23.09.33.6c.36.66.36.66.63.46Zm-9.4-.2c-.4-.18-.78-.6-.73-.83.08-.48 1.57-.79 2.18-.45 1.15.63-.21 1.83-1.45 1.28Zm-1.91-1.46c.51-2.7 1.16-6.31 1.15-6.43-.01-.24-.09.11-.44 2.03l-.71 3.8c-.34 1.88-.37 2.07-.3 1.99.02-.02.16-.65.3-1.39Zm3.36 1.1c.26-.26.25-.45-.02-.64-.45-.32-1.88-.1-1.88.29 0 .48 1.49.76 1.9.35Zm-14.26-.38c-.37-.24-.36-.52.03-.87.65-.6 1.45-.22.88.42-.14.15-.29.34-.35.41-.12.13-.39.16-.56.04Zm26.78-.19a.23.23 0 0 1-.12-.19c0-.08-.06-.14-.13-.14-.39 0-.58-.57-.29-.83.37-.33 1.22.08 1.22.58 0 .26-.46.65-.68.58Zm-21.2-.25c-.19-.19-.16-.26.68-1.58l.79-1.25-1.02-.05-1.02-.05-.03-.33c-.04-.37-.19-.34 1.67-.33 1.76 0 1.75-.07.36 2.15-.96 1.54-1.14 1.73-1.43 1.44Zm21.98.06c0-.03.4-.52.89-1.09 3.15-3.65 4.65-7.74 4.66-12.7.01-8.83-5.21-16.24-13.36-18.96-7.8-2.61-15.72-.4-22.66 6.33q-1.965 1.905-.9.66c2.93-3.43 8.73-6.9 12.98-7.77 16.51-3.41 29.58 13.62 22.03 28.7-.69 1.39-3.64 5.3-3.64 4.83Zm-20.66-1.79c.52-.82.93-1.52.9-1.57-.08-.12-2.54-.1-2.54.02 0 .06.43.1 1.1.1 1.32 0 1.3-.12.25 1.53-.47.74-.85 1.4-.85 1.47 0 .22.14.04 1.14-1.55Zm12.61 1.51c-.84-.26-.99-.43-.71-.81.13-.19.15-.19.55 0 .9.4 1.91.21 1.91-.36 0-.49-.96-.68-1.76-.34-.64.26-.74.12-.74-1.05v-1h3v.7h-2.3v.31c0 .26.03.29.2.24.75-.24 1.83.04 2.13.54.7 1.19-.69 2.27-2.28 1.77Zm-20.3-.16c-.04-.06.07-.23.23-.39.19-.19.26-.33.19-.4-.29-.29.17-.39.53-.11l.25.19-.44.4c-.45.41-.65.49-.76.31Zm22.27-.39c.91-1.02-.25-1.85-2.04-1.45l-.28.06V36.4h1.2c.73 0 1.2-.04 1.2-.1s-.5-.1-1.3-.1h-1.3v.79c0 .93.01.95.66.75 1-.31 1.95.03 1.94.69-.01.68-1.21 1.02-2.17.62-.43-.18-.46-.18-.41-.03.17.5 2.05.49 2.5-.01Zm-7.88-1.96c-.07-.17-.34-.21-.34-.05 0 .21-.3.09-.36-.14-.11-.44-.01-.81.24-.84.18-.03.22.01.22.22 0 .31.11.33.28.06.19-.3.29-.24.36.21.09.53-.24.97-.4.54ZM9.2 36.21c-.16-.31-.12-.48.21-.75.68-.57 1.43.04.78.65-.37.34-.83.39-.99.1Zm32.53-.42c-.4-.25-.49-.53-.29-.84.37-.57 1.5.06 1.26.69-.15.4-.48.45-.97.15Zm-32.99-.34c-.07-.18.1-.42.37-.5.12-.04.19-.16.19-.31 0-.29.2-.31.43-.06.25.27.22.34-.33.69-.57.38-.59.38-.66.18Zm2.73-.97c.32-.19.33-.36.07-.67-.01-.01-.3.12-.63.3l-.6.33.17.28c.15.27.17.27.41.12.13-.09.39-.25.58-.36Zm15.21-.02-.03-.51-.9-.03c-1.06-.03-1.21.05-1.31.64l-.06.42h2.33zm14.39 0c-.02-.05-.27-.23-.56-.39l-.53-.3-.18.23-.18.24.48.28c.27.15.52.33.56.39.08.13.46-.29.41-.45Zm-16.37.14c0-.11.07-.2.15-.2.14 0 .19-.12.16-.32 0-.05.15-.08.34-.08.28 0 .35.04.35.2 0 .11.05.2.1.2.06 0 .1-.09.1-.2s.07-.2.15-.2.15.09.15.2c0 .13.07.2.19.2.14 0 .18.05.14.2-.07.25-.63.29-.63.05 0-.08-.04-.15-.1-.15-.05 0-.1.07-.1.15 0 .11-.12.15-.5.15-.43 0-.5-.03-.5-.2Zm-11.86-.01c-.68-.19-.94-.99-.55-1.65.16-.26.19-.4.12-.47-.36-.36-.06-1.1.53-1.32 1.4-.54 2.93.25 2.43 1.24-.13.25-.12.31.04.52.87 1.13-.77 2.2-2.57 1.68Zm25.43-.06c-.04-.03-.07-.21-.07-.38v-.32l-.77-.07c-.42-.03-.93-.06-1.15-.06-.37 0-.38-.01-.38-.33 0-.45 2.1-2.3 2.66-2.35l.33-.03.03 1.03.03 1.03.3.05c.51.09.42.7-.11.7-.21 0-.24.05-.24.4 0 .39-.38.59-.63.33Zm-23.36-.23c.54-.25.63-.84.21-1.31-.28-.31-.28-.33-.1-.51a.66.66 0 0 0-.17-1.05c-1.21-.63-2.92.21-2.11 1.02.24.24.24.25.05.35-.82.44-.56 1.38.46 1.64.33.08 1.38-.01 1.66-.14Zm-1.81-.1c-1.02-.25-.69-1.28.44-1.38 1.08-.09 1.66.19 1.66.78 0 .54-1.1.86-2.1.6Zm25.6-.3c0-.38.02-.4.3-.4.16 0 .3-.04.3-.1s-.14-.1-.3-.1h-.3v-1c0-1.29-.04-1.29-1.49-.05-1.43 1.23-1.43 1.25.09 1.25h1.2v.4c0 .22.05.4.1.4.06 0 .1-.18.1-.4Zm-23.92-.06c.54-.38.08-.74-.95-.74-.79 0-1.2.21-1.06.56.13.35 1.58.49 2.01.18Zm21.69-.61c-.07-.12 1.86-1.72 1.96-1.63.04.04.07.42.05.86l-.03.79-.97.03c-.53.01-.99-.01-1.01-.05Zm1.73-.75c0-.57.07-.59-.78.15L37 33h1.2zm-25.3-.08c-.51-.51-.11-.91.93-.92.9 0 1.17.12 1.17.52 0 .59-1.6.9-2.1.4Zm16.32-.05c.04-.19.01-.25-.13-.25-.27 0-.24-.27.07-.72.39-.55.78-.54.49.01-.14.28-.14.29.06.24.12-.04.25 0 .3.08.05.09.09.1.09.02 0-.2.51-.73.7-.73.21 0 .3.19.3.61 0 .34-.02.34.41.12l.34-.18-.27-.03c-.22-.03-.28-.09-.28-.28 0-.28.67-.36.92-.11.11.12.16.12.26 0 .15-.16.54-.17.69-.02.08.08.17.08.33-.01.35-.19.43.02.15.4-.29.39-.31.5-.1.5.09 0 .15-.1.15-.26s.05-.24.13-.21c.07.02.12.21.12.48 0 .5-.3.66-.64.35-.16-.15-.19-.15-.31-.01-.15.18-.5.2-.5.04 0-.07.08-.18.18-.25.16-.13.16-.13-.01-.14-.1 0-.2-.07-.24-.15-.05-.14-.08-.14-.22-.02-.09.08-.23.17-.31.2s-.03.06.12.06c.21.01.28.06.28.22 0 .34-1.02.24-1.11-.11l-.06-.25-.04.25c-.04.27-.39.41-.39.16 0-.11-.09-.16-.3-.16-.17 0-.33-.07-.39-.18-.06-.09-.11-.12-.11-.06 0 .15-.46.64-.61.64-.07 0-.09-.1-.07-.25Zm-14.48-.27c.14-.23.04-.3-.53-.36-.92-.09-1.49.17-1.14.52.15.15 1.55.02 1.67-.16Zm-7.39-.57c-.26-.04-.4-.11-.4-.21 0-.22 1.27-.27 1.44-.06.28.33-.07.42-1.04.27Zm35.97-.4c-.16-.1.01-.91.19-.91.06 0 .29.16.52.35.22.19.44.35.48.35.05 0 .06.07.03.15-.08.2-.29.19-.6-.01-.23-.16-.26-.16-.37-.01-.08.11-.17.14-.25.08Zm-35.37-.32c-.07-.22-.15-.22-.89-.03-.23.05-.26.03-.26-.19s.06-.26.4-.32c.26-.04.4-.12.4-.22 0-.46.5.06.65.7.09.33-.2.39-.3.06Zm25.57-1.25c-.52-.36-.05-1.2.55-.98.29.1.51.39.4.51-.04.04-.17.02-.27-.05-.29-.18-.5-.15-.5.08 0 .4.76.22.94-.22.21-.54.51-.52.76.05l.2.42v-.37c0-.31.04-.38.2-.38s.2.07.2.34c0 .3.03.35.27.38.17.02.28.09.28.18 0 .22-1.13.24-1.37.03-.16-.15-.2-.14-.38.02-.14.13-.23.15-.33.07-.08-.07-.18-.07-.27-.02-.22.14-.43.12-.68-.06Zm3.78-.2c0-.23-.06-.41-.17-.49-.3-.22-.04-.34.77-.34.63 0 .8.03.8.14 0 .09-.1.16-.22.16-.17.01-.19.02-.05.06.25.06.21.31-.05.36-.2.04-.19.04.05.06.2.01.27.06.27.22 0 .53-.74.2-.81-.36-.05-.53-.16-.45-.21.15-.04.52-.38.56-.38.04Zm1.63.24c-.5-.64-.16-1.06.87-1.06.8-.01 1.05.09.77.31-.09.07-.17.28-.19.47-.04.48-.32.48-.36 0-.03-.42-.26-.59-.62-.49l-.25.07.27.01c.36.01.52.31.32.59-.17.24-.65.3-.81.1ZM41.5 26v-1.9l-.42.02-.43.01.38.04.37.04v3.59H37v-3.59l.38-.04.37-.04-.42-.01-.43-.02v3.8h4.6zm-.4-.07V24.4h-3.8v3.07l1.9-.01 1.9-.01zm-5.74 1.23c1.06-.37 1.04-.35 1.04-.67 0-.44-.38-.41-.42.03-.03.28-.09.35-.48.49-.97.35-1.01.35-.98-.1.01-.22-.01-.44-.05-.47-.04-.04-.07.13-.07.39v.46l-.67-.23c-.63-.21-.68-.25-.71-.54-.04-.42-.32-.44-.32-.03 0 .27.05.31.78.6.95.37 1.02.37 1.88.07Zm2.04-1.26v-1.4h3.45l.01 1.4v1.4H37.4zm3.2 0v-1.1h-2.95l-.01 1.1-.01 1.1h2.97zm-30.16.87c-.03-.08-.04-.36-.02-.63l.03-.49.75-.4.75-.4-.39-.03c-.28-.02-.42.01-.48.12-.2.36-.68.2-.68-.22 0-.55.12-.62 1.11-.62 1.02 0 1.12.07 1.07.77l-.03.48-.7.4c-.75.43-.66.62.16.35.54-.18.71-.08.67.37l-.03.38-1.08.03c-.85.02-1.08 0-1.13-.11Zm2.5-.01c-.03-.07-.04-.35-.02-.62l.03-.49.72-.35c.4-.19.73-.39.73-.44 0-.12-.84 0-.88.13-.11.33-.62.11-.62-.27 0-.55.12-.62 1.05-.62 1.02 0 1.09.05 1.1.72v.53l-.75.4c-.81.42-.77.53.12.37.65-.12.68-.11.68.39v.39h-1.05c-.81 0-1.07-.03-1.11-.14Zm2.43.07c-.29-.29-.06-.73.38-.73h.45v.4c0 .4 0 .4-.38.4-.21 0-.42-.03-.45-.07Zm1.23-.12c-.17-.33-.13-2.27.06-2.45.19-.2 1.73-.23 1.92-.04.08.08.12.51.12 1.28s-.04 1.2-.12 1.28c-.22.22-1.85.16-1.98-.07Zm2.57.01c-.22-.24-.22-.95-.02-1.12.14-.12.14-.15 0-.3-.51-.56-.03-1.2.9-1.2.85 0 1.21.29 1.11.88-.08.46-.08.58 0 1.05.11.68-.12.87-1.05.87-.63 0-.81-.04-.94-.18Zm-12.84-.04c-.36-.46-.25-.58.54-.58.89 0 1.09.32.24.38-.25.02-.5.1-.56.19-.09.12-.13.12-.22.01Zm19.88-.01c.86-.66.07-1.9-.96-1.51-.19.08-.45.55-.45.83 0 .59.94 1.04 1.41.68Zm-13.81-.12c0-.12-.16-.15-.8-.15-.73 0-.8-.02-.8-.2 0-.15.2-.3.8-.6.8-.4.8-.4.8-.8v-.4h-1.7l.01.28c.01.16.03.2.06.1.09-.35 1.33-.25 1.33.1 0 .24-.09.31-.73.62-.73.36-.9.61-.73 1.06.08.21 1.76.2 1.76-.01Zm2.48-.02c.03-.1-.17-.13-.77-.13-1.11 0-1.13-.22-.08-.77.71-.37.72-.39.75-.8l.03-.43h-.85c-.88 0-.98.05-.76.4.08.13.1.12.1-.02 0-.15.1-.18.65-.18.57 0 .65.02.65.19 0 .31-.11.51-.29.51-.25.01-1.16.54-1.15.68.01.06.02.26.03.42l.01.31.82-.03c.54-.02.83-.07.86-.15Zm3.5.09c.09-.06.12-.36.1-1.13l-.03-1.04-.46-.09c-.25-.05-.62-.06-.81-.02l-.35.06-.06.98c-.06 1.27-.03 1.32.81 1.32.37 0 .73-.04.8-.08Zm2.33-.02c.21-.12.27-.78.08-.97-.08-.08-.08-.17.01-.32.06-.12.1-.36.08-.54l-.03-.32-.77-.03c-.84-.03-1.07.16-.79.65.09.15.1.14.11-.13 0-.3.02-.32.5-.38.76-.1 1 .07.8.58-.08.22-.16.26-.5.26-.48 0-.75.12-.9.41-.15.26-.03.77.18.82.33.09 1.04.07 1.23-.03Zm4.79.03c-.54-.2-.66-.78-.24-1.19.42-.43 1.14-.08 1.14.56 0 .41-.51.77-.9.63Zm-8.47-.19c-.09-.04-.13-.33-.13-.95v-.89h1.4v.9c0 .87-.01.9-.23.9-.12 0-.38.02-.57.05-.19.02-.41.02-.47-.01Zm2.49-.02c-.08-.05-.12-.23-.1-.43l.03-.34.62-.03.61-.03.07.32c.04.17.03.35-.02.4-.14.14-1.06.22-1.21.11Zm6.56-.14c.16-.16.15-.53-.02-.67-.42-.35-1.1.23-.76.63.15.19.61.21.78.04Zm17.88-.05c-.08-.09-.07-.65.02-.79.33-.52 1.5.04 1.25.59-.11.23-1.08.38-1.27.2ZM18 25.5v-.7h-.8v1.4h.8zm-8.5.3v-.3H8.1v.6h1.4zm33.8 0v-.3h-1.5v.6h1.5zm-36.99.06c-.29-.34-.09-.81.34-.83.6-.02.82.05.88.27.07.28-.32.74-.56.65-.21-.09-.23-.35-.02-.35.08 0 .15-.05.15-.11s-.1-.09-.22-.07c-.17.02-.23.1-.23.27 0 .29-.17.37-.34.17Zm18.23-.05c-.09-.09-1.45-1.02-5.97-4.1l-2.67-1.83.24-.4c.13-.22.27-.39.32-.38.1.03 3.42 2.24 6.63 4.42 1.12.77 2.07 1.38 2.13 1.36.05-.02-.69-.56-1.64-1.2a588 588 0 0 1-5.98-4.06c-.36-.25-.79-.53-.96-.62l-.31-.18-.33.54c-.18.3-.31.56-.29.58.02.01.74.49 1.59 1.06 1.45.97 5.14 3.5 6.6 4.53.55.38.95.56.64.28Zm4.16-1.43c.91-.74 2.66-2.17 3.9-3.19 1.92-1.58 4.67-3.8 5.46-4.42l.24-.19-.31-.44c-.44-.65-.47-.64-1.61.28-2.45 2-8.91 7.19-9.32 7.5-.25.18-.47.39-.5.46-.08.2.04.1 1.69-1.23.83-.67 2.67-2.15 4.1-3.3s3.17-2.55 3.87-3.11l1.27-1.03.32.4c.39.49.74.11-2.76 2.96-1.49 1.2-3.8 3.09-5.15 4.19s-2.6 2.11-2.78 2.24c-.17.13-.32.28-.32.33 0 .11-.13.21 1.9-1.45Zm7.7.62v-.9h-.79c-.44 0-.86.03-.95.06-.3.11-.05.24.37.18.52-.06.77.07.57.3-.11.14-.1.19.04.35.31.34.04.68-.58.73-1.45.1-1.98-.14-1.64-.76.05-.08.04-.17-.02-.21-.19-.12-.1-.33.18-.43.24-.09.2-.11-.31-.11l-.57-.01v1.7h3.7zm-20.82.42c-.39-.05-.42-.68-.04-.78.45-.11.61-.02.64.37.03.4-.08.47-.6.41Zm9.22-.13c.07-.11.1-.22.08-.24-.1-.1-3.13-2.15-5.57-3.78-2.8-1.87-3-1.97-3.01-1.52 0 .06.89.71 1.97 1.45s2.94 2.01 4.12 2.83c2.35 1.61 2.26 1.56 2.41 1.26Zm2.44-.21c4.11-3.23 9.18-7.47 9.09-7.6-.03-.07-.01-.08.05-.04.14.09 1.32-.79 1.32-.98 0-.43-.29-.36-1.01.23-.92.75-2.11 1.7-6.59 5.29-1.95 1.56-3.59 2.88-3.64 2.93-.08.07.19.49.32.49.02 0 .23-.15.46-.32Zm-1.01-.46c.03-.15.15-.69.27-1.21.11-.52.2-.96.2-.98s-.13-.03-.28-.03c-.28 0-.29.01-.54 1.18-.27 1.29-.27 1.32.06 1.32.18 0 .25-.07.29-.28Zm7.3-1.22c-.23-.1-.39-.49-.3-.74.19-.5 1.06-.51 1.15-.02.04.19-.06.19-.5.01-.22-.09-.36.21-.19.38.09.09.17.08.33-.02s.23-.1.26-.02c.05.16.22.14.22-.04 0-.68.48-.82.77-.22l.22.42v-.42c.01-.36.04-.43.21-.43.12 0 .2.07.2.17 0 .15.01.15.18 0 .37-.33.52-.22.52.38 0 .55-.22.79-.36.4-.04-.08-.12-.15-.2-.15s-.14.07-.14.15c0 .1-.11.15-.35.15-.19 0-.35-.04-.35-.1 0-.14-.26-.13-.51.03-.17.09-.23.09-.26 0-.04-.1-.1-.09-.26.02-.24.17-.33.18-.64.05Zm7.08-.17c-.22-.26-.22-.27-.28-.05-.07.27-.7.32-.79.07-.04-.08-.12-.15-.2-.15s-.14.07-.14.15-.09.15-.2.15c-.41 0-.24-1.14.17-1.18.48-.05.71.12.76.56l.04.37.01-.42c.02-.5.29-.6.56-.21l.16.22v-.22c0-.29.3-.29.31.01.01.12.02.35.03.5.03.43-.18.53-.43.2Zm-3.91-.38c0-.89.91-.97 1.04-.09.08.6.04.64-.55.64h-.49zm1.22-.02.03-.58h.35c.45 0 .56.31.13.38l-.28.04.28.02c.34.01.32.22-.04.32-.24.07-.24.07.04.08.47.02.34.31-.13.31h-.41zM6.74 21.56c-.1-.27.01-.5.26-.57.14-.04.2-.07.13-.08-.2-.02-.26-.41-.09-.66.43-.66 1.48-.04 1.2.69-.12.31-.47.2-.41-.13.06-.28-.23-.55-.39-.38-.13.13-.12.67.01.67.24 0 .65.23.65.36 0 .22-.18.25-.62.12-.32-.09-.42-.1-.46 0-.05.16-.21.15-.28-.02Zm36.68-.08c-.15-.19-.25-.85-.14-.92.55-.34 1.27-.08 1.34.48.04.36-.19.46-.31.14-.07-.16-.1-.18-.1-.06-.02.38-.56.63-.79.36Zm-31.1-2.1.03-1.83h.6v3.6l-.33.03-.32.03zm3.29 1.51c.19-.07.41-.18.49-.27.13-.13.13-.14-.05-.07-1.21.47-2.15.13-2.43-.88-.42-1.51 1.42-2.36 2.67-1.24l.25.22-.16-.25c-.59-.95-2.35-.84-2.83.17-.64 1.33.65 2.79 2.06 2.32Zm8.46-.67-1.47-.77.02-2.35.03-2.35h6.1v4.77l-1.4.74c-1.71.9-1.49.9-3.28-.04Zm-11.37-.87c0-.97-.04-1.55-.1-1.55s-.1.58-.1 1.55.04 1.55.1 1.55.1-.58.1-1.55Zm26.2 1.45c0-.06-.42-.1-1.05-.1-1.19 0-1.26-.04-1.01-.63.18-.45.49-.65 1.12-.73 1.56-.2 1.45-1.64-.12-1.64-.33 0-.56.05-.63.14-.11.13-.07.13.25.04.47-.13.91-.04 1.21.24.48.45.12.92-.77 1.01-.85.1-1.4.66-1.4 1.45v.32h1.2c.73 0 1.2-.04 1.2-.1Zm-23.46-.31.38-.11-.23-.24-.22-.24.36-.59c.45-.72.45-.76.06-.97-.67-.34-1.57-.17-1.84.36-.43.83.03 1.66 1.05 1.89.03 0 .22-.04.44-.1Zm10.46-1.24c0-1.18-.01-1.25-.2-1.25s-.2.07-.2 1.25.01 1.25.2 1.25.2-.07.2-1.25Zm1.51.58 1.09-.58V18h-2.3v1.2c0 .66.03 1.2.06 1.2s.55-.26 1.15-.57Zm-2.21-.68V18h-2.3v.53c0 .28.04.57.08.63.07.11 2.01 1.14 2.14 1.14.05 0 .08-.52.08-1.15ZM11.7 17.7c.12-.23-1.02-.9-1.16-.68q-.075.105.06.03c.09-.05.1-.02.06.13-.05.16.02.27.36.5.46.32.52.32.68.02Zm28.76-.06c.43-.25.43-.26.26-.49l-.17-.23-.46.26c-.43.24-.46.28-.36.49.13.29.19.29.73-.03Zm-31.31-.28c-.13-.14-.32-.26-.42-.28-.31-.06-.28-.52.03-.73.35-.23.69.06.36.31-.16.13-.16.13 0 .14.1 0 .18.04.18.1s.09.1.19.1c.24 0 .33.13.25.33-.1.27-.34.28-.59.03Zm14.98.01c-.03-.13.07-.51.2-.85l.26-.62h-.45c-.44 0-.44 0-.44-.35v-.35h.85c1.06 0 1.09.05.65 1.06-.19.42-.33.83-.33.92s-.04.23-.1.3c-.07.09.09.12.74.12h.84l-.32-.2c-1.15-.7-.11-2.73 1.08-2.1.38.21.04.7-.48.7a.42.42 0 0 0-.33.2c-.26.48.23.84.7.52l.25-.17-.27-.03c-.59-.07-.32-.33.3-.3l.57.03-.02.34c-.02.41-.31.83-.64.92-.14.04.08.07.54.08l.77.01v-2.5h-5.6v2.5h.64c.61 0 .63-.01.59-.23Zm3.15-.25c.23-.2.39-.62.23-.62-.06 0-.11.08-.11.19 0 .48-.97.65-1.31.22-.39-.48.03-1.31.68-1.31q.285 0 .15-.09c-.41-.25-1.12.35-1.12.95 0 .71.94 1.13 1.48.66Zm14.39.02c-.03-.03-.03-.12-.01-.18.03-.07-.02-.19-.11-.26-.2-.17-.19-.5.02-.5a.6.6 0 0 1 .35.17c.17.15.18.15.18 0 0-.21.33-.22.5-.02.2.24-.71 1.01-.93.79ZM9.45 16.7c-.03-.06-.03-.1 0-.1.05 0-.04-.13-.33-.45-.16-.18-.08-.51.15-.59.25-.1.87.26.97.56.16.45-.55.96-.79.58Zm8.22-.77c-.04-.03-.07-.84-.07-1.8V12.4h.7V16h-.28c-.16 0-.32-.03-.35-.07Zm1.7 0c-.04-.03-.07-.84-.07-1.79v-1.72l.27-.05c.43-.08.43-.07.43 1.84V16h-.28c-.16 0-.32-.03-.35-.07Zm13.23-1.78v-1.86l.33.03.32.03v3.6l-.32.03-.33.03zm-14.5.06c0-.89-.04-1.52-.1-1.56-.07-.04-.1.48-.1 1.49 0 .97.04 1.56.1 1.56s.1-.56.1-1.49Zm14.9-.06c0-.97-.04-1.55-.1-1.55s-.1.58-.1 1.55.04 1.55.1 1.55.1-.58.1-1.55Zm-8.26-.2c-.34-.87.58-2.15 1.53-2.15.53 0 .83-.14.83-.39 0-.34-.91-.43-1.57-.16-.4.17-.51.12-.55-.25-.07-.55 1.77-.8 2.41-.32.85.63.23 1.82-.95 1.82-.47 0-.94.3-.94.6 0 .18.1.2 1.12.22l1.13.03v.7l-1.48.03c-1.27.02-1.48 0-1.53-.13Zm-1.24-1.7V10.5h.7V14h-.7zm.42-.02c-.02-.79-.07-1.43-.12-1.43-.04 0-.06.64-.04 1.43.02.78.04 1.46.04 1.51 0 .07.03.07.08 0 .04-.05.06-.73.04-1.51Zm3.68 1.47c0-.06-.47-.1-1.2-.1h-1.2v-.26c0-.5.44-1.03.87-1.04 1.37-.01 2.02-.97 1.01-1.51-.41-.22-1.88-.07-1.88.19 0 .05.28.02.61-.06.79-.2 1.38-.04 1.54.42.13.39-.17.62-.95.71-.9.1-1.4.61-1.4 1.4v.35h1.3c.8 0 1.3-.04 1.3-.1Zm-15.64-.16c-.03-.09-.06-.32-.06-.52-.01-.33-.02-.35-.14-.19-.16.21-.35.22-.43.02-.07-.21.25-.55.52-.55.29 0 .45.19.45.54 0 .23.03.27.12.18.16-.16.38-.15.38.01 0 .36-.73.8-.84.51Zm26.6-.55c-.14-.17-.26-.34-.26-.38 0-.18.15-.2.37-.06.23.15.23.15.23-.24 0-.43.13-.54.45-.38.38.19.49.65.17.74-.1.02-.23.18-.29.34-.14.37-.35.37-.67-.02Zm-25.82-.58c-.14-.16-.32-.27-.4-.24s-.17-.02-.2-.11c-.07-.17.11-.46.29-.46.14 0 .87.81.87.97 0 .23-.29.14-.56-.16Zm4.93-.67c.38-.1.01-.74-.44-.74h-.33l.2.4c.22.42.23.43.57.34Zm16.68-.34c.47-.74.16-1.08-.35-.38-.32.44-.37.63-.17.71.23.1.27.07.52-.33Zm.59-1.15c-.64-.27-.6-.63.11-.79.26-.07.27-.09.12-.17-.3-.17-.2-.39.18-.39.45 0 .64.3.4.66-.11.17-.25.24-.48.24l-.32.01.28.15c.48.26.24.52-.29.29Zm-9.06-.41c.2-.06.22-.12.22-.75V8.4h-.6v.75c0 .41.03.75.08.75.04 0 .17-.03.3-.06Zm-5.82-1.33c-.07-.12.09-.57.23-.66.21-.12.11-.25-.14-.19-.21.05-.25.03-.25-.15 0-.23.34-.42.58-.34.07.03.19 0 .26-.07.26-.21.81-.08.84.2.02.14.08.3.14.37.28.35-.53.86-.85.54-.13-.13.18-.45.34-.36.04.03.11 0 .15-.06.05-.09-.01-.1-.21-.05-.24.06-.27.05-.22-.13.03-.12.02-.21-.03-.21-.04 0-.1.22-.14.5-.07.56-.5.93-.7.61Zm10.27-.66c.04-.27.03-.45-.03-.45s-.1-.09-.1-.2c0-.16.07-.2.36-.2h.37l-.07.45c-.07.56-.22.85-.43.85-.13 0-.15-.08-.1-.45Zm-5.53-.32c0-.09.12-.3.28-.46l.27-.29-.27.07c-.34.09-.4-.18-.09-.35.29-.15.49-.12.67.09.16.18.17.18.36-.01.28-.28.4-.19.53.4.1.42.1.54-.01.63-.24.19-.44.02-.44-.36v-.36l-.3.18c-.3.17-.3.18-.1.33.28.21.16.3-.42.3-.38 0-.48-.03-.48-.17Z"/></svg>