<svg xmlns="http://www.w3.org/2000/svg" width="51" height="51" viewBox="0 0 51 51"><path fill="#fff" fill-rule="evenodd" stroke="#fff" stroke-width=".784" d="m11.51 38.76-.64-.64.23-.39c.13-.21.68-1.04 1.21-1.84l.98-1.46-.43-1.02c-.24-.56-.45-1.04-.48-1.06-.03-.03-1-.22-2.16-.43-1.17-.21-2.14-.41-2.16-.43s-.07-1.56-.11-3.41l-.07-3.37.23-.06c.13-.03 1.11-.21 2.18-.4 1.07-.18 1.97-.37 2.01-.42.05-.04.26-.54.47-1.09l.4-1.02-1.26-1.86-1.25-1.87 2.4-2.4 2.4-2.4 1.77 1.21c.98.66 1.83 1.2 1.89 1.2s.57-.19 1.13-.41l1.02-.42.39-2.16.39-2.16 3.41-.03 3.42-.02.05.22c.03.13.2 1.06.37 2.08.18 1.02.36 1.89.4 1.93.04.05.56.28 1.14.52l1.07.43.62-.44c1.92-1.34 2.96-2.04 3.04-2.04.04 0 1.16 1.05 2.47 2.33l2.39 2.33-1.26 1.87-1.26 1.87.28.62c.15.35.34.81.41 1.03.17.56.03.5 2.35.9 1.15.2 2.13.39 2.17.41.1.06.11 6.84.01 6.84-.2 0-4 .73-4.11.8-.08.03-.34.54-.58 1.11L38 34.25l1.2 1.77c.66.98 1.2 1.83 1.2 1.89 0 .19-.91 1.2-1.06 1.17-.13-.03-3.32-2.67-4.44-3.66l-.54-.49.42-.65c4.35-6.67.9-15.28-6.83-17.06-1.19-.28-3.85-.22-5.07.11-7.5 2-10.72 10.82-6.27 17.18.23.32.38.63.34.69-.06.09-2.29 2.08-4.36 3.88-.46.4-.33.43-1.08-.32Zm2.89-1.59c1.13-.99 2.11-1.86 2.19-1.93.12-.1.06-.24-.34-.86-5.02-7.61.27-17.56 9.36-17.58 2.43-.01 4.24.51 6.15 1.75 5.24 3.41 6.75 10.23 3.44 15.51l-.5.79.58.54c.47.44 2.64 2.28 3.76 3.19l.29.23.38-.37c.22-.21.39-.44.39-.52s-.52-.9-1.15-1.82c-.63-.93-1.15-1.77-1.14-1.87 0-.1.22-.68.48-1.28l.47-1.1 1.99-.37c1.1-.21 2.06-.4 2.13-.43.1-.03.12-.73.1-3.22l-.03-3.18-2.13-.36c-1.17-.2-2.14-.38-2.16-.4-.08-.08-.96-2.3-.96-2.41 0-.06.54-.91 1.19-1.88l1.2-1.78-2.24-2.21c-1.23-1.21-2.27-2.21-2.32-2.21-.04 0-.84.54-1.78 1.2s-1.75 1.2-1.81 1.2c-.07 0-.57-.18-1.13-.4-.55-.22-1.07-.4-1.15-.4s-.17-.08-.2-.17c-.06-.2-.76-4.02-.76-4.15 0-.05-1.45-.07-3.22-.06l-3.22.03-.18 1c-.09.55-.27 1.52-.38 2.16l-.21 1.16-1.17.47c-.65.25-1.2.46-1.24.46s-.84-.52-1.77-1.15-1.75-1.15-1.83-1.15c-.07 0-1.12.99-2.33 2.2l-2.19 2.19 1.24 1.83c.68 1.01 1.23 1.88 1.22 1.93-.02.25-.93 2.31-1.04 2.37-.07.04-.96.21-1.98.38s-1.93.33-2.04.37c-.18.05-.19.18-.14 3.2.03 2.05.09 3.17.16 3.22.05.03.97.21 2.04.4 1.06.18 1.98.34 2.04.36.05.02.33.57.6 1.22l.51 1.2-1.14 1.69c-.63.93-1.17 1.75-1.2 1.82-.07.17.86 1.14 1.01 1.05.06-.04 1.03-.88 2.16-1.86Zm10.01-4.62c-3.14-.71-4.85-4.31-3.43-7.19 1.37-2.77 4.87-3.76 7.38-2.1.29.19.57.4.63.47.08.1.54.07 2.23-.14 1.17-.15 2.15-.26 2.17-.24.08.08-.11.35-1.38 1.93l-1.31 1.63v.73c0 3.22-3.1 5.64-6.29 4.91Zm2.5-.31c2.18-.65 3.56-2.5 3.59-4.79v-.7l1.25-1.55c.68-.85 1.23-1.55 1.22-1.57-.01-.01-.89.09-1.94.23l-1.92.25-.61-.45c-1.72-1.27-3.98-1.28-5.73-.02-2.02 1.43-2.6 3.82-1.51 6.12.97 2.05 3.44 3.13 5.65 2.48Zm-2.41-1.71c-.64-.23-1.61-1.22-1.83-1.87-1.05-3.08 2.64-5.59 5.06-3.45 2.6 2.29.06 6.47-3.23 5.32Zm2.33-.31c.64-.28 1.31-1.01 1.56-1.68 1.06-2.83-2.54-5.17-4.72-3.06-2.34 2.26.19 6.05 3.16 4.74Z"/></svg>