<svg xmlns="http://www.w3.org/2000/svg" width="51" height="51" viewBox="0 0 51 51"><path fill="#fff" fill-rule="evenodd" stroke="#fff" stroke-width=".72" d="M23.5 43.23C13.63 42.11 6.54 32.71 8.1 22.82 10.23 9.4 26.09 3.36 36.79 11.89c6.83 5.45 8.52 15.43 3.9 22.98-3.59 5.85-10.34 9.14-17.19 8.36Zm5.1-.38c7.9-1.39 13.83-7.97 14.39-15.98C44.02 12.4 28.18 3.15 15.95 11.08c-10.39 6.74-10.44 22.04-.1 29.02 2.46 1.66 5.01 2.57 8.25 2.94.75.09 3.6-.04 4.5-.19Zm-11.63-8.63c-.32-.36-.18-.72 1.96-5 1.18-2.35 2.24-4.58 2.36-4.97.51-1.55 1.61-2.59 3.29-3.08.29-.09 2.41-1.11 4.72-2.27 4.44-2.22 4.43-2.22 4.84-1.89s.37.43-1.88 4.95c-1.18 2.36-2.18 4.43-2.22 4.59-.38 1.61-1.69 2.94-3.44 3.5-.3.1-2.43 1.12-4.73 2.26-4.23 2.11-4.59 2.25-4.9 1.91Zm4.54-2.01c2.22-1.09 3.97-2.01 3.89-2.04-.08-.02-.42-.09-.75-.16-1.71-.32-3.29-1.95-3.51-3.62-.04-.27-.1-.51-.14-.54-.1-.06-4 7.68-4 7.94 0 .17.22.4.41.41.04 0 1.88-.89 4.1-1.99Zm5.81-2.69c.36-.18.88-.53 1.15-.78.27-.26.32-.33.11-.16-.78.64-1.92 1.12-2.66 1.12-.4 0-.16-.16.45-.3 1.39-.3 2.62-1.28 3.23-2.55.18-.39 1.3-2.64 2.47-5.02 2.29-4.62 2.33-4.73 1.66-4.73-.14 0-2.09.92-4.32 2.04s-4.33 2.11-4.66 2.21c-2.16.61-3.4 2.17-3.4 4.25 0 3.12 3.22 5.24 5.97 3.92Zm-2.78-1.51c-1.66-.75-2.04-2.92-.75-4.21 2.35-2.35 5.9 1.04 3.71 3.53-.74.84-1.98 1.12-2.96.68Zm2.07-.29c1.48-.77 1.78-2.6.63-3.76-1.31-1.3-3.55-.64-3.94 1.17-.41 1.93 1.58 3.49 3.31 2.59Zm-5.01-3.05c0-.23.74-1.37 1.2-1.85.69-.7 1.93-1.42 2.46-1.42.32 0 .1.19-.45.39-1.12.41-2.31 1.49-2.84 2.59-.21.41-.37.54-.37.29Z"/></svg>