<svg xmlns="http://www.w3.org/2000/svg" width="51" height="51" viewBox="0 0 51 51"><path fill="#fff" fill-rule="evenodd" stroke="#fff" stroke-width=".49" d="M18 43.88c0-.02-.52-1.56-1.15-3.41-.63-1.86-1.15-3.45-1.15-3.53 0-.12.16-.14.87-.12l.87.03.79 2.45.8 2.45.82-2.45.82-2.45.86-.03c.71-.02.87 0 .87.12 0 .14-1.74 5.29-2.17 6.41l-.19.5-1.02.03c-.56.01-1.02.01-1.02 0Zm5.07-.04c-.04-.04-.07-1.64-.07-3.56V36.8h1.68c1.86.01 2.4.09 2.94.47 1.22.84 1.17 3.14-.09 3.93-.47.3-.7.35-1.95.46l-.77.06-.03 1.07-.03 1.06-.8.03c-.45.01-.84 0-.88-.04Zm6.19-.18c-.07-.28-.06-6.54.01-6.73.04-.09.26-.13.73-.13h.69l1.38 1.99 1.38 1.99.05-1.96.05-1.97.83-.03.82-.03-.02 3.53-.03 3.53-.66.03-.67.03-1.43-2.03-1.44-2.03-.03 2.03-.02 2.02h-.79c-.75 0-.79-.01-.85-.24Zm-9.31-.23c.22-.54 2.15-6.23 2.15-6.32 0-.08-.2-.11-.62-.09l-.62.03-.84 2.53c-.67 1.99-.88 2.52-1.01 2.5-.11-.02-.38-.72-.91-2.38l-.82-2.52c-.06-.15-.2-.18-.72-.18h-.66l.3.83c.16.45.63 1.83 1.06 3.07.42 1.24.81 2.35.85 2.48.12.3 1.72.34 1.84.05Zm4.57-.9.03-1.08 1.05-.06c2.07-.12 2.98-1.07 2.61-2.74-.29-1.28-.94-1.6-3.31-1.6h-1.65l-.03.35c-.02.19-.01 1.67.03 3.28l.07 2.92h1.17zm6.18-1.04c0-1.64.03-2.1.13-2.07.06.02.79.97 1.6 2.11l1.48 2.07h.99V37h-1.1v2.09c0 1.16-.04 2.12-.08 2.15-.16.1-.29-.07-2.58-3.34l-.6-.85-.52-.03-.52-.03v6.61h1.2zm-6.12-1.05c-.15-.14-.09-2.31.06-2.43.25-.21 1.74.02 2.03.32.48.48.37 1.54-.21 1.92-.27.18-1.75.33-1.88.19Zm1.93-.53c.21-.25.26-.99.09-1.31-.13-.24-.62-.4-1.26-.4h-.54v2.02l.76-.04c.65-.03.79-.07.95-.27Zm-13.69-9.93c-.91-1.39-1.81-3.62-2.19-5.38-.29-1.34-.26-4.6.05-5.98 1.39-6.2 5.95-10.7 12.07-11.89 1.27-.25 4.44-.24 5.7.01 8.26 1.64 13.53 9.38 12.1 17.76-.37 2.12-2.13 6.1-2.71 6.1-.12 0-1.48-2.15-5.59-8.8-.86-1.4-1.6-2.59-1.64-2.63s-.21.11-.36.35l-.28.43.26 1.35c.15.74.3 1.45.33 1.58.1.34-.19.27-.4-.1-1-1.74-4.41-7.46-4.51-7.57-.15-.15-2.95 4.44-2.95 4.84 0 .12.11.84.25 1.6.37 2 .35 1.99-1.15-.55-.62-1.04-1.15-1.9-1.2-1.9-.07 0-.93 1.38-4.2 6.7-2.17 3.54-2.93 4.7-3.05 4.7-.07 0-.31-.28-.53-.62Zm1.97-1.95c.78-1.26 2.37-3.83 3.54-5.73 1.18-1.9 2.19-3.45 2.27-3.45s.59.75 1.14 1.67 1 1.67 1.01 1.65c.01-.01-.06-.53-.17-1.15l-.19-1.13 1.48-2.51c.81-1.37 1.54-2.53 1.62-2.56.21-.08.27.02 2.51 3.81 1.12 1.9 2.06 3.44 2.08 3.43.02-.02-.06-.5-.17-1.07l-.2-1.04.34-.55c.19-.32.41-.55.5-.55.12 0 1 1.34 2.77 4.2 1.43 2.31 2.97 4.81 3.43 5.55 1.22 1.98 1.04 1.86 1.58.99 1.53-2.46 2.12-4.62 2.12-7.84 0-2.32-.14-3.26-.77-5.04-3.5-9.96-16.04-13.23-24.01-6.26-5.41 4.72-6.62 13-2.81 19.13.25.39.47.72.48.72.02 0 .67-1.02 1.45-2.27Z"/></svg>