<svg xmlns="http://www.w3.org/2000/svg" width="51" height="51" viewBox="0 0 51 51"><path fill="#fff" fill-rule="evenodd" stroke="#fff" stroke-width=".422" d="M22.69 46.75C6.49 44.54-1.37 25.06 8.83 12.42c.37-.45.67-.85.67-.88 0-.02-2.08-.04-4.63-.04H.12c-.07 0-.1-.04-.07-.1.04-.07 4.11-.1 11.88-.1 6.81 0 12.06-.04 12.39-.09 1.6-.27 3.09-1.59 3.69-3.31.22-.62.24-.8.27-4.28.03-3.14.06-3.62.19-3.62s.14.3.12 2.22l-.03 2.22.75.12c6.63 1.03 13.03 5.95 15.75 12.14 6.8 15.45-5.76 32.32-22.37 30.05Zm6.05-.3C44.48 44.09 52 25.58 42.42 12.8c-3.04-4.06-8.29-7.22-13.23-7.98l-.57-.09-.06.6c-.03.33-.06.88-.06 1.23v.63l.58.11C39.6 9.38 46.12 19.43 43.69 29.83c-3.18 13.62-19.99 18.99-30.36 9.69-8.05-7.22-8.45-19.19-.9-27.08l.89-.94h-1.64c-1.85 0-1.7-.06-2.51.92-4.01 4.81-5.56 11.81-4.01 18.17 2.58 10.58 12.83 17.47 23.58 15.86Zm-.09-2.79c13.16-2.35 19.57-17.3 12.16-28.38-2.59-3.87-7.53-7.07-11.92-7.73l-.46-.07-.23.64c-.56 1.55-1.76 2.74-3.21 3.19-.56.18-.99.19-5.91.19h-5.3l-.75.73C7.17 17.89 5.65 26.36 9.2 33.64c2.68 5.5 7.84 9.23 14 10.12 1.22.17 4.21.12 5.45-.1Zm-12.51-6.6c-.49-.49-.49-1.2 0-1.74l.34-.37 8.99-.03c10.09-.02 9.49-.07 9.87.71.24.51.15 1-.29 1.44l-.33.33H16.48zm18.61-.02c.49-.19.59-1.12.16-1.55l-.29-.29h-8.99c-8.99 0-8.99 0-9.22.21-.46.44-.5 1.02-.09 1.47l.21.22h9.03c4.96 0 9.1-.03 9.19-.06Zm-9.57-3.62c-.09-.04-.92-.86-1.84-1.82s-2.75-2.86-4.06-4.22c-3.24-3.38-3.39-3.62-2.69-4.4l.29-.33 2.06-.03 2.06-.03v-3.48c0-3.99.05-4.4.55-4.91l.35-.35 3.58-.03 3.58-.03.34.23c.66.45.67.49.74 3.98.03 1.73.06 3.48.06 3.88v.72h1.92c2.19 0 2.46.07 2.67.73.25.74.12.9-5.92 7.23-2.85 3-3.02 3.13-3.69 2.86Zm.81-.31c.19-.1 4.69-4.8 6.86-7.16 1.84-2 1.98-2.25 1.56-2.76-.19-.24-.23-.24-2.33-.29l-2.13-.05-.05-3.95c-.07-5.33.4-4.8-4.32-4.83-4.71-.03-4.28-.49-4.29 4.65-.01 2-.04 3.74-.08 3.88l-.07.25-2.06.05c-2.35.06-2.48.1-2.48.81 0 .49-.06.42 4.68 5.36 4.17 4.34 4.16 4.33 4.71 4.04ZM20.93 9.2c-.74-.17-1.63-.93-1.63-1.37 0-.11.22-.31.56-.52l.56-.33.3.36c.66.81 1.99.31 1.67-.63-.14-.4-.51-.51-1.75-.51-.57 0-1.05-.03-1.07-.08-.05-.09.22-3.55.29-3.61.1-.11 3.3-.12 3.57-.02s.28.13.25.73l-.03.63-1.22.03-1.23.03v.38c0 .43.12.5.8.51.78.01 1.68.71 1.89 1.47.51 1.84-1.05 3.39-2.96 2.93Zm-10.5-.25c-1.61-.82-2.06-4.11-.78-5.79.86-1.12 3.01-1.12 3.94.01.9 1.09.89 3.96-.02 5.14-.67.88-2.09 1.17-3.14.64ZM4.1 8.76c0-.19-.03-.41-.06-.5-.04-.1.29-.52.98-1.26 1.59-1.7 1.92-2.15 1.92-2.57 0-.71-.83-.88-1.44-.29l-.35.35-.57-.35c-.68-.42-.68-.39-.22-.93 1.51-1.76 4.4-.73 4.1 1.46-.09.64-.46 1.23-1.39 2.2l-.8.84.94-.07c1.2-.08 1.39 0 1.39.59 0 .94.17.87-2.31.87H4.1zm10.4-.22v-.56l1.15-1.21c1.68-1.76 1.95-2.23 1.59-2.75-.27-.39-1.17-.23-1.47.25-.12.2-.32.16-.87-.18l-.51-.31.17-.27c.82-1.29 2.52-1.6 3.62-.66 1.15.99.94 2.33-.64 4.03l-.76.82H19v.39c0 .21-.03.53-.06.7l-.06.31H14.5zm-1.8.16c.89-.46 1.23-1.28 1.24-3 .01-2.17-.68-3.09-2.33-3.1-1.52 0-2.26.88-2.38 2.85-.16 2.67 1.52 4.25 3.47 3.25Zm10.01.04c.61-.36.93-.87.97-1.59.08-1.3-.57-1.99-2.01-2.11l-.77-.07V4.6c0-.21.03-.52.06-.69l.07-.31h2.37v-.9h-1.65c-1.92 0-1.7-.18-1.8 1.5-.03.58-.09 1.2-.12 1.38l-.05.32h.78c1.59.01 2.14.3 2.14 1.1 0 .92-1.35 1.36-2.07.68-.35-.34-.4-.34-.78-.04l-.3.24.21.29c.55.76 2.1 1.06 2.95.57ZM8.28 8.38l.03-.47-1.28-.03-1.28-.03.85-.88c1.35-1.4 1.55-1.74 1.55-2.6 0-1.52-1.64-2.28-3.09-1.43-.73.43-.82.67-.34.95l.4.23.28-.27c.7-.67 1.8-.3 1.8.59 0 .54-.23.87-1.75 2.49C4.5 7.94 4.3 8.2 4.3 8.46c0 .45-.02.45 2.04.42l1.91-.03zm10.4 0 .03-.47-1.22-.03-1.23-.03.87-.93c1.36-1.45 1.73-2.33 1.38-3.25-.45-1.17-2.37-1.43-3.39-.45-.4.4-.4.41.04.68l.35.22.29-.27c.92-.88 2.24-.02 1.69 1.11-.18.39-2.27 2.79-2.59 2.99-.06.03-.1.26-.1.51v.44l1.93-.02 1.92-.03zm-7.58-.45c-1.11-.44-1.38-3.14-.41-4.07.63-.6 1.72-.41 2.14.38.3.58.32 2.32.02 2.9-.33.65-1.17 1.03-1.75.79Zm1.18-.48c.68-.57.72-2.76.07-3.41-.55-.55-1.62-.17-1.85.64-.54 1.96.61 3.75 1.78 2.77Z"/></svg>