<svg xmlns="http://www.w3.org/2000/svg" width="51" height="51" viewBox="0 0 51 51"><path fill="#fff" fill-rule="evenodd" stroke="#fff" stroke-width=".673" d="M36.42 42.97c-.76-.77-.76-.79-.02-1.52.7-.69.79-.68 1.55.21.56.65.57.58-.18 1.32-.75.75-.6.75-1.35-.01Zm-15.57-.37-.7-.7.72-.72.71-.71.66.63c.81.77.81.81.03 1.58-.76.75-.59.76-1.42-.08Zm16.77.23c.59-.58.59-.58-.02-1.18l-.5-.49-.5.49c-.6.6-.6.52-.04 1.14.55.62.48.61 1.06.04Zm-26.79.21c-1.17-.58-.63-2.66 1.57-6.02.78-1.2 3.34-4.67 3.52-4.78.06-.04-1.07-1.24-2.5-2.68-3.05-3.06-3.19-3.32-2.56-4.6.19-.37 13.2-13.45 13.81-13.87.56-.39 1.18-.47 1.8-.24.56.2 13.72 13.22 14.21 14.05.34.57.36 1.36.05 1.95-.42.79-13.81 14.02-14.33 14.15-1.12.3-1.54.06-3.44-1.87-1.14-1.16-1.57-1.53-1.68-1.47-.08.05-.7.52-1.38 1.04-4.63 3.52-7.72 5-9.07 4.34Zm2.02-.31c2.34-.73 7.85-4.64 11.95-8.47 1.02-.96 4.46-4.33 5.84-5.73l.98-1-.17-.27c-.27-.41-.31-.38-2.67 1.92-4.85 4.75-8.19 7.62-11.43 9.84-2.18 1.5-4.46 2.58-5.1 2.42-1.07-.27-.79-2.12.7-4.64.48-.82-.11-.04-.71.93-2.52 4.07-2.3 5.9.61 5Zm9.3-1.33c-.59-.6-.48-.6-1.15 0l-.55.49.55.56.55.55.55-.55.55-.55zm-7.77-.91c1.79-.89 5.82-3.67 5.82-4.01 0-.13-3.7-3.88-3.82-3.88-.26 0-3.27 4.39-3.89 5.67-1.35 2.82-.75 3.53 1.89 2.22Zm12.32.1c.58-.34 13.68-13.52 13.85-13.93.19-.45.19-1.07 0-1.54-.16-.38-13.27-13.52-13.9-13.93-.36-.23-1.23-.26-1.63-.05-.42.23-13.9 13.77-14.02 14.09-.18.5-.12 1.21.13 1.58.13.19 2.29 2.41 4.79 4.93 5.12 5.15 4.52 4.7 5.31 4.03l.29-.24-4.66-4.64c-4.05-4.04-4.66-4.69-4.66-4.94 0-.41 13.2-13.65 13.6-13.65.41 0 13.6 13.24 13.6 13.65 0 .38-12.93 13.39-13.43 13.51-.38.09-.59-.07-2.09-1.54-1.38-1.36-1.37-1.35-1.97-.81l-.34.31 1.54 1.54c.84.84 1.67 1.6 1.84 1.69.45.22 1.33.19 1.75-.06Zm5.06-1.21c-.45-.52-.45-.55.07-1.06l.43-.42.49.5.49.5-.44.45c-.54.55-.6.55-1.04.03Zm.78-.78-.3-.3-.27.27-.26.28.26.34.26.33.31-.31.31-.31zm.1-5.95c4.23-4.19 6.56-6.57 6.56-6.7 0-.26-13.18-13.34-13.45-13.35-.22 0-13.21 12.91-13.31 13.24-.06.17 9.06 9.46 9.28 9.46s4.35-3.78 7.29-6.67c1.07-1.06 2.03-1.93 2.11-1.93.18 0 .78.64.78.83 0 .23-6.91 6.98-8.7 8.5l-.44.38 1.39 1.4c1.17 1.16 1.44 1.39 1.66 1.37.19-.02 1.95-1.71 6.83-6.53ZM16.1 37.34l-.42-.46.48-.49.49-.49.49.5.5.5-.44.45c-.55.56-.58.56-1.1-.01Zm.83-.76-.32-.32-.3.3-.3.29.32.33.31.32.3-.3.31-.3zm-8.63-.93-.44-.45.44-.45c.54-.55.56-.55 1.03-.07.46.48.46.52-.05 1.01-.52.5-.45.5-.98-.04Zm.84-.17.26-.33-.3-.3-.3-.3-.31.31-.3.31.28.31c.34.39.36.39.67 0Zm29.98-2.01c-.52-.53-.52-.53.03-1.07l.45-.44.45.44c.56.54.56.58 0 1.09-.54.49-.42.5-.93-.02Zm.81-.25.27-.28-.3-.29-.3-.29-.3.29-.3.29.27.28c.15.15.3.28.33.28s.18-.13.33-.28ZM4.84 28.99l-.68-.69.64-.65c.79-.8.84-.8 1.54-.04.68.73.68.68.04 1.35-.78.83-.75.83-1.54.03Zm27.28.45c-.3-.21-.28-.47.08-.87.64-.74.55-1.33-.35-2.16-.59-.54-.96-.55-1.56-.06-.64.54-.74.58-1 .36-.34-.27-.21-.52.91-1.72 1.11-1.2 1.62-1.55 2.35-1.64.52-.07.53-.08.74-.57.18-.44.23-.49.48-.46.27.03.28.05.28.63 0 .82.8 1.65 1.58 1.65.93 0 1.02.69.12.86-.37.07-.37.08-.5.86-.08.51-.78 1.41-1.87 2.41-1.04.95-.97.92-1.26.71ZM6.15 27.8c-.59-.6-.49-.6-1.14.01l-.53.51.53.54.54.54.55-.55.55-.55zm27.42.38c1.21-1.24 1.41-1.54 1.5-2.29.06-.53.14-.6.76-.73.45-.1.3-.26-.25-.26-.49 0-.54-.03-.97-.48-.25-.26-.57-.55-.69-.63-.22-.13-.23-.18-.14-.67.15-.82-.07-.8-.38.03-.15.39-.16.4-.76.46-.76.07-.94.19-2.23 1.55-1.2 1.26-1.46 2.03-.35 1.05.78-.68 1.29-.64 2.05.16.94.98 1.02 1.41.44 2.17-.36.48-.44.76-.22.76.07 0 .63-.51 1.24-1.12Zm10.85-3.55c-.73-.78-.74-.65.06-1.47.74-.76.74-.76 1.55.18.58.68.59.59-.16 1.34-.77.76-.68.76-1.45-.05Zm1.28-1.28-.55-.55-.55.55-.55.55.55.55.55.55.55-.55.55-.55zm-36.96-.43c-.06-.04-.28-.26-.49-.5l-.38-.43.43-.44c.25-.25.48-.45.53-.45.12 0 .87.82.87.95 0 .18-.84.95-.96.87Zm.41-.62.29-.3-.24-.25c-.3-.31-.37-.31-.72.02l-.28.27.27.28c.33.35.33.35.68-.02Zm25.65-8.75c-.47-.48-.48-.45.09-1.07.33-.37.45-.35.92.1.48.48.48.47-.03.99s-.45.52-.98-.02Zm5.32-.19c-.34-.35-.62-.67-.62-.71 0-.12 1.23-1.35 1.35-1.35.13 0 1.35 1.23 1.35 1.37 0 .12-1.23 1.33-1.36 1.33-.06 0-.39-.29-.72-.64Zm-24.1-.19c-.34-.34-.62-.67-.62-.73 0-.13 1.22-1.34 1.36-1.34.09 0 .56.47 1.11 1.1l.22.25-.63.68c-.76.81-.68.81-1.44.04Zm25.4.01.46-.53-.51-.53-.51-.52-.53.52-.53.52.52.53c.63.64.53.64 1.1.01Zm-5.85.2c.29-.27.29-.39-.02-.68l-.25-.24-.3.29-.3.29.27.28c.32.34.31.33.6.06Zm-18.35-.35c.59-.58.59-.58-.02-1.18l-.5-.49-.5.49c-.6.59-.6.49-.04 1.13.55.63.48.62 1.06.05Zm-7.11-2.87c-.49-.5-.48-.57.13-1.16l.36-.34.45.44c.55.54.55.54.03 1.07-.51.52-.45.52-.97-.01Zm17.31-.09c-.51-.52-.51-.54-.04-1 .45-.44.44-.44.88-.1.6.46.62.59.13 1.09-.52.53-.46.53-.97.01Zm10.3 0c-.23-.23-.42-.47-.42-.53 0-.13.73-.84.87-.84.15 0 .93.7.93.84 0 .11-.8.96-.9.96-.03 0-.25-.19-.48-.43Zm-26.79-.15.27-.28-.3-.29-.3-.29-.3.29-.3.29.27.28c.15.15.3.28.33.28s.18-.13.33-.28Zm17.27-.66-.3-.3-.29.28-.3.29.26.34.26.34.34-.33.33-.32zm10.33.56.27-.28-.3-.29-.3-.29-.3.29-.3.29.27.28c.15.15.3.28.33.28s.18-.13.33-.28ZM23.02 6.37c-.52-.53-.52-.53.03-1.07l.45-.44.45.44c.55.54.55.54.03 1.07-.51.52-.45.52-.96 0Zm.81-.25.27-.28-.3-.29-.3-.29-.3.29-.3.29.27.28c.15.15.3.28.33.28s.18-.13.33-.28Z"/></svg>