<svg xmlns="http://www.w3.org/2000/svg" width="51" height="51" viewBox="0 0 51 51"><path fill="#fff" fill-rule="evenodd" stroke="#fff" stroke-width=".463" d="M24.05 42.89c-1.35-.2-2.8-.88-2.8-1.29.01-.21 1.43-2.36 3.11-4.71l.34-.47-1.32-.92c-.73-.51-1.39-.93-1.47-.94-.09-.01-.87 1.04-1.92 2.57-.97 1.42-1.96 2.82-2.19 3.1-1.89 2.33-5.24 3.04-8 1.69-.91-.45-.93-.52-.37-1.33.24-.35 2.18-3.16 4.32-6.24s4.39-6.35 5.01-7.26 1.19-1.71 1.28-1.78c.12-.1.38.04 1.53.83.76.52 2.46 1.68 3.78 2.57 5.17 3.5 5.9 4.4 6.02 7.39.18 4.08-3.39 7.39-7.32 6.79Zm2.09-.34c4-.85 6.17-5.24 4.41-8.91-.6-1.24-1.61-2.17-4.45-4.09-1.29-.88-3.09-2.11-4-2.74s-1.72-1.16-1.81-1.18c-.14-.04-3.45 4.65-10.46 14.83-.65.94-.66.89.09 1.24 2.57 1.22 5.85.57 7.57-1.5.27-.32 1.31-1.79 2.32-3.25 1-1.47 1.89-2.69 1.96-2.72.15-.06.46.13 2.06 1.26.59.42 1.07.83 1.07.92 0 .08-.75 1.23-1.66 2.55-.92 1.31-1.69 2.47-1.72 2.57-.03.13.12.25.73.53 1.34.62 2.56.77 3.89.49Zm8.61-9.66c-1.72-.26-1.57-.17-14.14-9.03-.58-.41-.73-.47-.85-.37-.08.07-.87 1.2-1.76 2.51-1.78 2.64-1.8 2.66-2.08 2.51-.37-.2-1.41-1.41-1.78-2.08-2.48-4.43.58-9.74 5.61-9.77 2.31-.01 1.4-.54 13.39 7.8 1.26.87 2.35 1.62 2.41 1.66.07.05.72-.79 1.78-2.3 2.06-2.94 1.99-2.86 2.36-2.68.78.41 1.81 1.87 2.26 3.19 1.54 4.59-2.42 9.3-7.2 8.56Zm2.28-.35c4.28-.94 6.32-5.75 4.05-9.51-.3-.5-1.42-1.73-1.58-1.73-.08 0-.99 1.26-2.6 3.58-.74 1.08-1.17 1.61-1.26 1.58-.08-.03-2.56-1.73-5.51-3.78-8.11-5.62-7.69-5.35-9.08-5.65-5.11-1.09-9.17 4.22-6.84 8.96.41.83 1.71 2.37 1.9 2.26.04-.03.7-.97 1.45-2.08 1.69-2.49 2.13-3.07 2.29-3.07.15 0 .4.16 3.5 2.36 5.56 3.94 9.31 6.49 9.88 6.72 1.28.52 2.55.64 3.8.36Zm-5.98-12.2c-4.44-1.08-6.19-6.78-3.07-10.02C31.85 6.3 38.5 8.88 38.5 14.4c0 3.95-3.65 6.86-7.45 5.94Zm2.85-.29c4.39-1.17 5.87-6.67 2.63-9.76-3.74-3.56-9.88-1.01-9.87 4.11.01 3.78 3.63 6.61 7.24 5.65Z"/></svg>