<svg xmlns="http://www.w3.org/2000/svg" width="51" height="51" viewBox="0 0 51 51"><path fill="#fff" fill-rule="evenodd" stroke="#fff" stroke-width=".699" d="M10.83 44.63c-.09-.03-.13-.37-.13-1.19V42.3h29.5l.01.23c.03 1.02-.04 2.03-.14 2.09-.13.08-29.04.1-29.24.01Zm29.12-.55c.03-.18.05-.6.03-.93l-.03-.6-14.44-.03c-7.95-.01-14.48.01-14.52.05-.04.05-.05.47-.02.96l.06.87h28.86zM11.8 41.97c0-.07.19-.22.43-.34q1.23-.6 1.5-1.74c.04-.15.07-2.19.08-4.55s.05-4.39.1-4.51l.09-.23 11.52.02 11.53.03.05 4.7c.06 5.18.04 5.08.7 5.72.17.17.52.42.76.55.94.5 1.4.48-13.16.48-11.1 0-13.6-.02-13.6-.13Zm25.22-.14 1.26-.06-.36-.25c-1.07-.72-1.06-.71-1.1-6.04l-.03-4.58H14.1v4.4c0 5.25-.03 5.41-1.12 6.2l-.4.29.69.04c1.28.06 22.47.07 23.75 0Zm-13.8-1c-.04-.1-.07-1.01-.07-2.03 0-2.49.28-3.09 1.7-3.7.74-.32 1.43-.14 2.13.53.73.69.77.88.77 3.22v2.1l-2.23.03c-2.05.02-2.23.01-2.3-.15Zm4.28-2.01c0-1.82-.01-1.9-.26-2.4-.43-.86-1.46-1.4-2.17-1.11-1.4.56-1.61 1-1.65 3.47l-.04 1.92h4.12zm-11.63-3.48c-.16-.16-.07-2.48.11-2.84.47-.95 1.52-1.04 2.14-.18.21.31.23.43.23 1.68v1.35l-1.21.03c-.66.01-1.23-.01-1.27-.04Zm3.23-1.27c0-1.51.12-1.87.71-2.19 1.23-.66 2.05.57 1.84 2.78l-.07.74H19.1zm10.1.06c0-1.68.4-2.43 1.29-2.43.91 0 1.33.8 1.29 2.47l-.03 1.18-1.27.03-1.28.03zm3.3-.04c0-1.36.04-1.55.48-2.01.5-.54 1.34-.43 1.79.25.22.33.28.88.24 2.4l-.01.67h-2.5zm-14.4-.13c0-1.34-.17-1.74-.83-1.9-.82-.21-1.17.36-1.17 1.92v1.12h2zm3.26-.01c-.09-1.49-.33-1.95-1.01-1.95-.71 0-.95.5-.95 1.95v1.15h2.03zm10.14.1c0-1.47-.2-1.9-.94-2.02-.31-.05-.4-.01-.71.3l-.35.35v2.42h2zm3.22.89c.02-.09.01-.66-.02-1.26-.05-1.09-.05-1.1-.38-1.39-.43-.39-.76-.37-1.18.05l-.34.34v2.42h.94c.79 0 .95-.03.98-.16ZM15.4 28.79v-1.51l-.45-.86c-.25-.47-.45-.91-.45-.97 0-.17 1.95-.26 3.79-.18 1.74.07 1.68.01 1.09 1.05l-.43.73-.05 1.6-.05 1.6-1.73.03-1.72.02zm7.23 1.35c-.1-.28.05-2.47.22-3.14.52-1.99 1.89-3.85 3.65-4.99.74-.48.8-.56.85-1.13.06-.56.44-1.17 1.11-1.76l.55-.5-.25-.25c-.42-.43-.17-1.23.44-1.42.26-.08.25-.27 0-.5-.24-.21-.26-.63-.05-.71.23-.09.18-.27-.15-.59-.32-.3-.39-.7-.2-1.06.17-.31.42-.25.29.07-.13.35.11.74.46.74.31 0 .48-.32.4-.72-.09-.38.13-.35.33.05.17.35.06.72-.31 1.03l-.32.27.23.15c.27.18.28.53.02.77-.28.25-.25.42.1.6.59.3.7 1.45.15 1.45-.23 0-.19.05.41.62.64.6 1.14 1.4 1.14 1.81 0 .44.14.62.89 1.11 2.38 1.58 3.74 4.09 3.75 6.91l.01 1.3-6.83.03c-6.14.02-6.83.01-6.89-.14Zm13.45-1.42c-.12-2.76-1.4-4.97-3.84-6.59-.29-.19-.55-.41-.58-.49-.08-.21-4.11-.21-4.23 0-.05.08-.37.34-.73.57-2.42 1.56-3.8 4.07-3.8 6.91v.93l6.61-.03 6.62-.02zm-17.48-.14v-1.43l.4-.73c.22-.41.38-.78.35-.83-.07-.11-4.58-.12-4.53-.01.02.04.22.44.46.89l.42.83V30h2.9zm-2.3-3.67-.75-.06-.05-1.8-.05-1.8-.37-.72c-.58-1.11-.74-1.03 2.01-1.03 1.52 0 2.42.04 2.46.1s-.14.48-.39.94l-.46.84v1.69c0 1.18-.04 1.73-.12 1.81q-.18.18-2.28.03Zm2.1-1.88v-1.68l.4-.73c.22-.4.4-.75.4-.78 0-.02-.95-.04-2.1-.04h-2.11l.41.75.4.76v3.39h2.6zm12.96-2.18c.16-.41-1.58-2.36-1.93-2.16-.7.37-1.83 1.73-1.83 2.19 0 .2 3.69.17 3.76-.03Zm-15.42-3.07c.07-1.47.27-2.93.57-4.11l.2-.78-.26-.3c-.34-.41-.32-.65.1-1.05s.49-1 .15-1.34a.71.71 0 0 1-.01-.96c.35-.38.35-.61.02-.78-.63-.33-.79-.94-.37-1.43.28-.33.41-.27.27.11-.19.49.19 1.03.64.92.41-.1.61-.51.46-.93-.16-.43-.09-.51.18-.24.46.46.38 1.1-.19 1.49-.39.27-.42.5-.1.82.26.26.26.74 0 1-.33.33-.28 1.01.1 1.28.41.3.43.91.05 1.19l-.26.18.2.85c.3 1.24.51 2.77.58 4.17l.06 1.23h-2.46zm2.06.53c0-2.03-.73-5.89-1.01-5.38-.28.49-.79 4.01-.79 5.39v.58H18zm12.09-.1c.4-.26-.03-1.01-.58-1.01-.52 0-.92.65-.59.98.14.14.96.16 1.17.03ZM17.7 12.29c.18-.32-.11-.69-.55-.69-.53 0-.85.46-.53.78.21.21.96.15 1.08-.09Z"/></svg>