<svg xmlns="http://www.w3.org/2000/svg" width="51" height="51" viewBox="0 0 51 51"><path fill="#fff" fill-rule="evenodd" stroke="#fff" stroke-width=".369" d="M8.47 48.54c-.04-.04-.07-.9-.07-1.9V44.8l.24-.06c.13-.03.37-.04.52-.02l.29.03.02 1.15c.04 1.67 0 1.6.81 1.6.86 0 .94.06.9.61l-.03.44-1.31.03c-.71.01-1.33-.01-1.37-.04Zm3 0c-.04-.04-.07-.9-.07-1.91V44.8h1.1l-.02 1.88-.03 1.87-.45.03c-.25.02-.49 0-.53-.04Zm2.33-.14c-.2-.38-1.2-3.2-1.2-3.4 0-.24.53-.36.92-.21.21.08.31.25.55.97l.29.87.33-.91c.37-1.03.51-1.14 1.22-.95.21.05.44.06.51.02.17-.11 2.39-.11 2.56 0 .09.05.12.24.1.52l-.03.44-.88.03c-.64.02-.87.06-.84.15.02.07.13.11.23.09.1-.01.47 0 .82.04l.62.06v.87l-.82.03c-.77.03-.83.05-.86.25-.03.21 0 .22.9.25l.93.03v1h-2.9l-.05-1.68-.05-1.68-.54 1.43c-.78 2.06-.73 1.98-1.26 1.98-.34 0-.47-.05-.55-.2Zm8.05.07c-1.38-.63-1.41-3-.05-3.62.82-.37 1.77-.09 2.28.65.29.43.25.51-.31.69l-.46.14-.3-.31c-.52-.57-1.05-.29-1.05.56 0 .96.82 1.31 1.13.49.12-.3.17-.3.89-.01.38.15.4.3.1.74-.48.7-1.5 1-2.23.67Zm2.69 0c-.02-.07-.03-.91-.02-1.87l.03-1.75.64-.09c.85-.12 1.95.04 2.27.34.44.42.39 1.29-.1 1.67l-.22.18.43.59.43.58v-3.33l.58.03.57.03.03 1.74c.03 2.11.1 2-1.21 2-1.19 0-1.11.04-1.66-.76-.54-.78-.61-.78-.61-.05 0 .32-.05.63-.12.7-.16.16-.97.16-1.04-.01Zm5.96-.03c-1.87-.81-1.3-3.74.74-3.74 1.17 0 2.12 1.24 1.15 1.5-.47.13-.69.08-.69-.15 0-.22-.46-.38-.7-.25-.28.15-.4.43-.4.89 0 .8.79 1.12 1.09.43.16-.34.19-.35.89-.06.37.15.4.33.12.8-.4.64-1.43.91-2.2.58Zm2.77.09c-.04-.03-.07-.89-.07-1.9V44.8h1.09l.03.55.03.55.44-.55.44-.55h.63c.81 0 .82.11.13.91l-.5.58.53.91.53.9.03-1.64.02-1.64.31-.06c.18-.03.78-.06 1.35-.06 1.19 0 1.4.1 1.28.64-.1.46-.09.46-.95.46-.64 0-.79.03-.79.15s.15.15.79.15c.88 0 .96.05.87.56l-.07.34h-.79c-.78 0-.8.01-.8.25s.02.24.88.27l.87.03v1l-2.01.02c-2.28.02-2.1.07-2.56-.72-.42-.74-.52-.75-.56-.05-.02.3-.08.6-.14.67-.11.13-.9.18-1.01.06Zm7.5.01c-.04-.04-.07-.67-.07-1.41V45.8h-.34c-.57 0-.66-.08-.66-.55 0-.36.04-.44.23-.48.3-.08 2.53-.08 2.72-.01.19.08.21.94.03.95-.07 0-.27.02-.43.02l-.3.02-.05 1.4-.05 1.4-.5.03c-.28.02-.54 0-.58-.04ZM11 48.05c0-.24-.02-.24-.82-.27l-.83-.03-.03-1.37L9.29 45H8.6v3.3H11zm1.3-1.4V45h-.7v3.3h.7zm2.75.68c.21-.54.48-1.25.61-1.57.31-.76.3-.76-.1-.76-.37 0-.45.13-.92 1.61-.25.8-.27.79-.7-.46L13.56 45h-.75l.4 1.12c.76 2.16.77 2.18 1.14 2.18.32 0 .34-.02.7-.97Zm3.85.73c0-.25-.4-.36-1.36-.36h-.44v-.9h.85c.84 0 .85 0 .85-.25s-.01-.25-.86-.25h-.85l.03-.37.03-.38.88-.03c.85-.03.87-.03.87-.27V45h-2.4v3.3h1.2c1.19 0 1.2 0 1.2-.24Zm4.5.09c.6-.31.75-.78.31-.93-.26-.09-.32-.08-.46.14a.805.805 0 0 1-1.4-.07c-.57-1.09.5-2.35 1.31-1.54.24.24.84.27.84.05 0-.72-1.66-1.12-2.36-.57-1.57 1.23-.01 3.84 1.76 2.92Zm2-.49c0-.98.41-.97 1.11.03.41.59.45.61.86.61.52 0 .5-.08-.21-.87-.55-.6-.54-.57-.16-.73.36-.15.5-.37.5-.79 0-.73-.32-.91-1.68-.91h-.99l-.07.77c-.03.42-.06 1.16-.06 1.65v.88h.7zm3.5-1.01V45h-.7v3.3h.7zm3.1 1.5c.59-.3.76-.78.33-.93-.25-.08-.31-.05-.54.21-.68.81-1.7-.07-1.4-1.21.2-.72.88-.96 1.37-.47.5.5 1.02.25.61-.29-.67-.87-2.12-.65-2.59.41-.66 1.5.81 3.01 2.22 2.28Zm2.1-.29c0-.44.29-.96.53-.96.07 0 .29.32.5.7l.38.7h.91l-.23-.37c-.13-.21-.4-.64-.61-.96-.47-.72-.48-.65.12-1.3.6-.66.6-.67.11-.67-.37 0-.44.05-.97.68-.73.86-.74.86-.74.03V45h-.7v3.3h.35c.35 0 .35 0 .35-.44Zm5.3.2c0-.26-.19-.31-1.45-.39-.43-.02-.52-.17-.41-.63.06-.23.1-.24.86-.24.79 0 .8 0 .8-.25s-.01-.25-.8-.25c-.77 0-.8-.01-.86-.25-.12-.49-.02-.55.91-.55.84 0 .85 0 .85-.25V45h-1.26c-1.26 0-1.26 0-1.2.23.03.12.06.86.06 1.65v1.42h2.5zm2.3-1.16v-1.4h.45c.41 0 .45-.02.45-.25V45h-2.7v.25c0 .23.03.25.5.25h.5v2.8h.8zm-16.28-.92.03-.43h.58c.4 0 .61.05.67.15.27.42-.04.7-.76.7h-.55zM7.45 37.86c-.25-.18-.31-1.2-.09-1.53.16-.25.9-.33 1.11-.12.08.08.13.08.17 0 .12-.18 1.56-.14 1.56.04 0 .12.04.11.2-.05.39-.39.95.03 1.02.77.01.1.04-.07.07-.37l.06-.55.65.02c.76.02 1.07.26.94.72-.08.3-.08.46.01.83.12.47-.66.52-.81.05l-.08-.22-.06.25c-.08.35-1.02.43-1.22.11-.16-.26-.3-.27-.45-.02-.1.17-.23.2-.75.18l-.63-.02-.03-.62c-.03-.54-.06-.63-.22-.63-.22 0-.35.16-.2.25.2.12.11.73-.12.89-.28.2-.88.21-1.13.02Zm6.36-.05c-.16-.16-.19-.3-.16-.73.02-.29.04-.59.04-.65.02-.35 1.18-.53 1.37-.21.04.06.1.05.15-.03.12-.21 1.14-.19 1.35.03.15.15.19.15.48-.03.39-.24.68-.24.96-.01.23.18.24.18.43-.01.16-.16.28-.18.76-.13.46.04 1.56.06 3 .04.55 0 .85 1.28.4 1.73-.51.51-1.42.13-1.37-.59.02-.29-.01-.47-.1-.49-.09-.03-.12.12-.12.56v.61h-.7v-.6c0-.64-.1-.76-.28-.35-.1.21-.09.32.02.54q.27.51-.36.51c-.18 0-.31-.07-.39-.22l-.12-.22-.08.22c-.1.27-.53.3-.67.06-.09-.16-.11-.16-.33 0-.38.26-.96.21-1.29-.12-.35-.35-.87-.34-.92.02-.03.23-.41.34-.61.17-.08-.06-.18-.06-.27-.01-.27.17-.98.12-1.19-.09Zm12.64.07c-.32-.18-.39-.6-.26-1.51.03-.24.67-.39 1.04-.24.21.09.39.12.42.06.08-.12 1.45-.12 1.45 0 0 .06.12.04.26-.03.39-.21.61-.09.81.43l.18.46.05-.5.05-.5h.62c.86 0 1.24.38.93.94-.06.12-.05.29.03.5.18.49-.45.75-.76.31l-.14-.21-.06.21c-.07.25-.97.3-1.17.05-.16-.19-.37-.19-.56 0-.13.12-1 .16-1.31.06-.02-.01-.03-.28-.03-.6 0-.67-.05-.75-.38-.57-.21.11-.22.14-.08.25.57.47-.42 1.27-1.09.89Zm6.29-.13c-.18-.18-.23-.31-.19-.43.04-.09.07-.33.06-.54-.03-.62.6-.96 1.19-.65.22.12.28.11.39-.01.18-.19 1.21-.12 1.35.1.08.14.13.13.43-.04.37-.22.92-.19 1.13.07.11.14.15.13.28-.06s.21-.21.71-.15c.78.08 2.4.09 2.76.01.73-.16 1.26 1.35.62 1.8-.52.36-1.3.07-1.27-.49.03-.54 0-.66-.15-.66-.12 0-.15.13-.15.6v.6h-.7v-.6c0-.67-.07-.74-.31-.32-.15.27-.15.3.04.56.33.46-.25.66-.7.24l-.23-.21v.21c0 .26-.57.32-.66.07-.05-.13-.09-.13-.34 0-.49.26-.89.19-1.26-.2-.18-.19-.36-.31-.39-.25-.03.05-.17.1-.3.1-.16 0-.25.07-.29.25-.07.26-.48.36-.61.15-.04-.07-.12-.07-.25 0-.35.19-.89.12-1.16-.15Zm-24.33-.14c.3-.25.18-.51-.32-.67-.42-.14-.52-.44-.15-.44.14 0 .29.07.34.16.07.12.11.13.16.05.11-.17-.13-.41-.39-.41-.78 0-.78.59 0 .85.17.06.3.17.3.25 0 .22-.43.25-.66.04-.1-.09-.22-.14-.27-.1-.29.3.65.55.99.27Zm1.14-.88c.04-.16.13-.23.3-.23.14 0 .25-.04.25-.1s-.29-.1-.67-.09c-.44.01-.59.03-.43.08.22.06.25.13.28.61.03.73.16.97.19.4.02-.25.06-.55.08-.67Zm5.36.88c.29-.24.18-.5-.27-.66-.4-.14-.55-.25-.49-.36.1-.16.53-.1.64.09.09.16.1.16.17-.02.09-.22-.1-.36-.51-.36-.69 0-.75.52-.1.8.48.21.57.35.26.45-.21.06-.51-.03-.51-.16 0-.05-.07-.09-.15-.09-.22 0-.18.17.07.34.3.21.61.2.89-.03Zm2.92.08c.7-.32.46-1.39-.3-1.39-.7 0-1.01.86-.47 1.29.3.24.43.26.77.1Zm4.57-.09c.32-.32.22-.52-.33-.65-.36-.09-.38-.45-.02-.45.13 0 .29.08.35.18.09.15.1.14.08-.08-.03-.22-.08-.25-.42-.25-.7 0-.76.59-.08.79.17.05.33.15.36.23.09.22-.25.28-.57.09-.37-.21-.5-.11-.18.15.3.24.56.24.81-.01Zm4.74.1c.43-.16.35-.54-.14-.74-.22-.09-.4-.23-.4-.31 0-.21.46-.19.6.03.09.15.1.14.08-.08-.03-.27-.24-.36-.64-.26-.39.1-.29.56.16.77.19.09.35.23.35.3 0 .21-.34.23-.55.04-.11-.1-.2-.12-.24-.06-.15.23.4.46.78.31Zm6.66-.08c.29-.24.2-.6-.18-.68-.47-.1-.52-.13-.52-.29 0-.17.45-.21.55-.05.09.15.25.12.25-.04 0-.28-.79-.37-1-.11-.21.25-.07.49.38.65.42.15.55.36.27.46-.08.04-.26-.01-.4-.1-.3-.2-.35-.2-.35-.01 0 .33.67.44 1 .17Zm3.22-.14c.57-.66-.39-1.6-1.04-1.01-.21.19-.24.81-.05 1.05.26.33.8.32 1.09-.04Zm4.29.22c.34-.19.24-.56-.21-.74-.41-.16-.55-.46-.21-.46.31 0 .51.11.44.24-.04.07-.02.07.07-.01.22-.21-.07-.45-.49-.41-.58.05-.58.58-.01.81.25.1.4.21.38.29-.07.2-.38.21-.59.02s-.33-.15-.23.09c.09.25.53.33.85.17Zm-30.95-.15c.08-.21.64-.19.8.02.25.35.27.02.03-.59-.33-.84-.54-.85-.86-.03-.13.32-.23.63-.23.67 0 .14.2.09.26-.07Zm1.64-.1c0-.15.06-.25.14-.25s.23.11.34.25c.28.35.59.36.37.01-.13-.2-.14-.28-.04-.44.27-.43.04-.72-.56-.72h-.55v.7c0 .56.03.7.15.7.09 0 .15-.09.15-.25Zm3.7-.01c0-.19.04-.25.15-.2.25.09.64-.12.71-.39.09-.38-.11-.55-.67-.55h-.49v.7c0 .56.03.7.15.7.09 0 .15-.1.15-.26Zm3.2.01c0-.15.06-.25.15-.25.08 0 .22.11.31.25s.25.25.35.25c.18 0 .19-.01.03-.25-.13-.2-.14-.28-.04-.39.31-.39.09-.71-.52-.74l-.58-.03V37c0 .56.03.7.15.7.09 0 .15-.09.15-.25Zm1.92-.37c.03-.57.05-.63.28-.69.15-.04-.02-.07-.45-.07-.61 0-.66.02-.42.11.25.1.27.15.27.69 0 .86.28.82.32-.04Zm7.58.02c0-.57.01-.6.25-.6.14 0 .25-.04.25-.1s-.27-.1-.6-.1-.6.04-.6.1.11.1.25.1c.24 0 .25.03.25.6 0 .33.04.6.1.6s.1-.27.1-.6Zm.84.45c.03-.09.19-.15.41-.15.24 0 .35.04.35.15 0 .08.07.15.16.15.1 0 .13-.06.1-.18-.45-1.4-.7-1.54-1.04-.6-.12.35-.22.66-.22.7 0 .14.18.08.24-.07Zm1.66-.1c0-.15.06-.25.15-.25.08 0 .22.11.31.25s.25.25.35.25c.18 0 .18-.02.04-.24-.13-.2-.14-.26-.01-.51.26-.49-.12-.82-.8-.69l-.34.06v.69c0 .55.03.69.15.69.09 0 .15-.09.15-.25Zm3.65.06c.03-.12.19-.22.38-.26.9-.2.78-.95-.15-.95h-.48v.7c0 .67.12.91.25.51Zm3.25-.06c0-.18.05-.25.18-.25.1 0 .25.11.32.25s.19.25.27.25c.16 0 .17-.12.01-.28-.09-.09-.07-.2.07-.46.26-.49.1-.66-.61-.66h-.54v.7c0 .56.03.7.15.7.09 0 .15-.09.15-.25Zm1.9-.35c0-.53.02-.6.2-.6.11 0 .2-.04.2-.1s-.25-.1-.57-.09c-.49 0-.55.02-.35.11.19.1.22.19.22.7 0 .45.03.58.15.58s.15-.13.15-.6Zm-22.48.28c-.07-.07-.12-.24-.12-.38 0-.48.42-.66.73-.32.32.35.15.82-.28.82a.5.5 0 0 1-.33-.12Zm18.86-.13c-.11-.25.1-.75.33-.75.42 0 .66.59.37.88-.21.21-.57.14-.7-.13Zm-24.54-1.49c-.03-.09.04-.48.16-.88.36-1.25.36-1.16.04-.87-.52.46-1.51 1.18-1.57 1.13-.03-.03-.28.07-.56.21-.28.15-.55.25-.61.23-.1-.03.05-.16 2.05-1.74.96-.75 1.45-1.27 1.33-1.39-.02-.02-.39.19-.83.47-1.75 1.12-4.1 2.48-4.25 2.46-.12-.03-.15-.24-.15-1.23v-1.19l1.05-.59c.58-.33 1.69-.97 2.48-1.44l1.43-.84-1.65-1.25c-.91-.68-1.66-1.28-1.66-1.33 0-.04 1.18-.11 2.62-.14 1.43-.03 2.65-.1 2.7-.15.04-.04.45-1.15.89-2.45.62-1.79.86-2.37.98-2.37s.36.58.97 2.43l.8 2.42 2.65.08c1.45.05 2.66.11 2.68.13.1.1-.55.64-2.29 1.91-1.02.75-1.86 1.37-1.88 1.38-.01.01.33 1.05.75 2.31.74 2.18.78 2.27.83 1.84l.05-.45 1.03.04c1.11.04 1.32-.04 1.32-.45 0-.29-.2-.4-.93-.49l-.58-.07.03-.52.03-.51.62-.07c.76-.08.83-.12.83-.45v-.26l-.78.06c-.42.03-.86.07-.97.09-.38.06-.29-1.02.1-1.22.46-.22 2.2-.21 2.63.03.72.39.93 1.36.44 2.05-.19.25-.2.31-.07.42.75.63.18 2.32-.89 2.61-.57.15-2.13.07-2.54-.13-.28-.15-.34-.15-.39-.02-.1.27-.35.14-2.4-1.21-2.34-1.55-2.07-1.45-2.64-1.02-.55.42-3.34 2.34-3.6 2.48-.15.07-.21.06-.25-.05Zm18.96-.03c0-.05.13-.54.29-1.08l.3-.98-.37.34c-.66.62-1.43 1.21-1.49 1.16-.03-.04-.28.05-.55.19-.61.31-1 .29-.48-.02.19-.12.6-.44.91-.71s.92-.77 1.36-1.11c.67-.52 1.19-1.12.97-1.12-.04 0-.52.29-1.09.64-2.25 1.41-3.85 2.36-3.99 2.36-.24 0-.29-.36-.21-1.46l.07-1.04.41-.24c2.96-1.66 4.06-2.3 4.25-2.44l.23-.18-1.6-1.19c-.89-.66-1.61-1.23-1.61-1.27s.01-.11.03-.15c.01-.03 1.17-.08 2.57-.11 1.4-.02 2.58-.07 2.61-.1.06-.06.35-.85 1.37-3.72.39-1.08.63-1.36.77-.88.04.13.41 1.23.82 2.46l.75 2.22h2.6c2.28 0 2.59.02 2.65.16.07.19.09.17-2.31 1.97-.94.71-1.72 1.32-1.74 1.37s.28 1.11.67 2.36c.39 1.24.71 2.32.71 2.4 0 .29-.38.1-2.38-1.23-1.95-1.29-2.07-1.35-2.29-1.22-.12.08-1.03.7-2 1.38-1.64 1.15-2.23 1.48-2.23 1.24Zm11.2-.68v-.65h-.77c-1.18 0-1.23-.03-1.23-.62 0-.47.05-.57.92-1.76 1.12-1.53.98-1.43 1.83-1.4l.7.03.03 1.27.03 1.27.32.03c.32.03.32.03.32.58v.55l-.37.03-.38.03v1.29h-1.4zm-18.1.3c.74-.38.97-1.6.4-2.17l-.3-.3.24-.19c.35-.27.48-.81.33-1.27-.18-.54-.6-.72-1.67-.71-1.2.01-1.34.07-1.38.51l-.03.36.43-.1c.51-.11 1.22-.06 1.43.12.42.35-.07 1-.76 1-.55 0-.69.08-.69.41 0 .27.03.29.4.29.88 0 1.38.47 1.12 1.05-.19.42-1.4.58-2.16.29-.15-.06-.17-.01-.14.32.03.38.04.39.58.51.69.15 1.79.09 2.2-.12Zm19.3-.55v-.7h.34c.58 0 .66-.57.09-.62l-.38-.03.04-1.27.04-1.28h-.66c-.6 0-.66.02-.82.28-.1.15-.48.68-.86 1.17-.37.5-.68 1.02-.69 1.15-.05.61-.08.59.98.62l.97.03-.03.68-.03.67h1.01zm-30.07-.02c.51-.34 1.38-.95 1.94-1.35s1.07-.73 1.13-.73c.07 0 .89.51 1.83 1.13 2.23 1.46 2.28 1.5 2.34 1.43.03-.02-.29-1.07-.71-2.32-.42-1.26-.72-2.31-.68-2.35.04-.03.91-.68 1.94-1.43s1.9-1.41 1.93-1.47c.04-.05-.88-.09-2.43-.09h-2.5l-.77-2.27c-.42-1.26-.8-2.31-.83-2.35-.04-.04-.32.63-.61 1.5-.3.86-.68 1.92-.84 2.35l-.29.77h-5l1.33 1.02c.74.56 1.6 1.24 1.92 1.51.52.45.6.49.82.39.42-.19.29-.37-.96-1.31-.74-.55-1.16-.93-1.08-.96s.88-.06 1.79-.07l1.65-.03.55-1.59c.3-.88.6-1.61.65-1.63.06-.02.35.7.66 1.59l.56 1.63 1.67.03c1.81.03 1.94.08 1.34.52-1.06.76-2.28 1.76-2.28 1.86 0 .07.2.72.45 1.45.64 1.88.69 1.85-1 .73l-1.44-.96-.63.49c-.97.76-2.17 1.57-2.24 1.51-.03-.03.04-.36.15-.73.24-.77.26-1.11.09-1.19-.17-.06.11-.29.74-.62.57-.29.77-.31.56-.06-.52.6-.26.5.88-.37 1-.75 1.72-1.4 1.58-1.41-.24 0-2.13.6-2.76.89-.36.16-1.01.39-1.44.51-.85.23-2.28.8-2.2.87.02.02.55-.1 1.17-.27 1.3-.36 1.33-.35 1.08.45-.4 1.24-1.07 3.55-1.03 3.55.03 0 .46-.28.97-.62Zm20.31-.9c.93-.66 1.73-1.2 1.76-1.21.04-.01.98.58 2.09 1.32s2.03 1.32 2.05 1.3-.27-1.01-.65-2.19c-.37-1.18-.68-2.22-.68-2.31-.01-.09.84-.79 1.99-1.65l2-1.49-2.51-.03-2.5-.02-.14-.33c-.07-.17-.44-1.23-.82-2.34-.37-1.12-.7-2.03-.73-2.03s-.36.89-.74 1.98-.76 2.14-.85 2.33l-.16.34-2.49.03-2.49.02 1.34 1c.74.55 1.59 1.22 1.89 1.48.42.36.62.46.83.44.53-.06.34-.41-.6-1.12-.47-.36-1-.77-1.17-.92l-.31-.27 1.65-.01c.91 0 1.72-.05 1.8-.1s.38-.78.65-1.61c.27-.84.55-1.54.6-1.56.06-.02.35.71.65 1.62l.55 1.65h1.67c.92 0 1.69.04 1.72.09s-.55.56-1.29 1.12c-.74.57-1.35 1.08-1.35 1.12 0 .05.2.7.45 1.46s.45 1.45.45 1.53c0 .1-.48-.17-1.41-.79-1.24-.83-1.43-.92-1.59-.81-.1.07-.63.45-1.17.84-1.7 1.23-1.72 1.24-1.39.29.26-.74.3-1.15.12-1.15-.37 0-.11-.29.57-.63.91-.46.95-.46.61-.02-.38.5-.2.43.76-.3 1.38-1.04 2.02-1.67 1.65-1.59-.67.14-1.95.59-2.76.95-.48.22-.93.39-1.01.39-.22 0-1.8.55-2.14.74-.37.22-.17.19 1.08-.15 1.07-.28 1.07-.29.75.73-.48 1.55-.97 3.2-.97 3.3 0 .12.09.06 2.24-1.44Zm-4.99.21c2.03-1.23 2.37-1.61.67-.74-1.71.87-2.37 1.29-2.4 1.54-.04.28-.09.3 1.73-.8Zm-19.46.25c2.14-1.2 2.91-1.94.94-.88-.59.32-1.34.71-1.65.88-.37.2-.58.37-.58.49 0 .24.02.24 1.29-.49Zm20.81-1.65c1.79-.78 2.06-.93 2.21-1.2.09-.17.07-.17-.33-.03-.24.09-.92.28-1.53.44-1.22.31-3.45 1.32-3.45 1.56 0 .21.22.17 1.1-.22.45-.19.84-.33.87-.3.07.07-.46.38-1.23.73-.35.15-.66.34-.68.41-.03.07.27-.05.67-.27.39-.22 1.46-.72 2.37-1.12Zm-20.95.57c.79-.35 1.06-.39.69-.11-.1.08-.17.15-.14.15.17.01 3.28-1.43 3.44-1.6.25-.25.17-.34-.2-.2-.16.07-.82.25-1.46.41-1.43.36-3.48 1.31-3.48 1.61 0 .23.03.22 1.15-.26Zm32.35.1c0-.18.9-1.38 1.08-1.44.1-.03.12.14.1.75l-.03.78-.57.03c-.46.02-.58 0-.58-.12Zm-25.85-1.25c.96-.74.67-.76 2.1.19.65.43 1.2.78 1.22.77.01-.02-.16-.6-.39-1.3l-.42-1.26.24-.26c.14-.14.66-.58 1.17-.98l.92-.72-1.38-.03c-1.64-.03-1.45.12-2.05-1.61-.25-.74-.48-1.36-.5-1.38-.02-.03-.25.59-.51 1.37s-.52 1.43-.59 1.45c-.06.02-.74.07-1.52.12l-1.41.08.83.63.83.63 1.97-.4c1.98-.41 2.18-.42 2.08-.16-.08.2-1.4 1.33-2.71 2.31-1.11.83-1.34 1.07-1.48 1.53-.08.28.14.14 1.6-.98Zm18.72.24c1.32-.98 1.03-.99 2.62.08.57.38 1.01.62.98.54-.03-.09-.22-.68-.42-1.32-.43-1.37-.52-1.16.98-2.32l.99-.78-.73-.06c-.41-.04-1.08-.07-1.49-.08l-.75-.01-.5-1.46-.5-1.45-.48 1.45-.49 1.46-1.31.01c-1.8.01-1.81.01-.82.77l.83.62 1.47-.35c1.91-.45 2.55-.54 2.55-.32 0 .19-1.22 1.26-2.78 2.45-1.02.77-1.42 1.2-1.42 1.52 0 .18.09.12 1.27-.75ZM7.63 19.7c-.45-.18-.6-1.33-.22-1.71.23-.23.81-.25.99-.04.1.12.15.13.21.03.11-.17 1.35-.24 1.54-.08.12.1.18.1.29 0 .28-.23.6-.08.83.4l.22.45.01-.47v-.48h.62c.69 0 .79.04.97.38.09.17.1.32.02.52-.07.2-.06.38.02.59.18.49-.4.65-.74.2l-.17-.23-.04.25c-.04.29-1.03.33-1.24.04-.14-.19-.2-.19-.43.04-.15.15-.29.17-.72.14-.8-.07-.79-.06-.79-.68 0-.5-.02-.55-.22-.55-.17 0-.19.03-.1.12.55.55-.27 1.39-1.05 1.08Zm6.4 0c-.46-.19-.53-1.45-.1-1.75.28-.2.81-.19.98.01.11.14.13.14.21 0 .13-.24 1.08-.22 1.39.03.24.19.25.19.48 0 .28-.23.78-.25 1.08-.04.19.13.22.13.27 0 .07-.19 1.16-.21 1.34-.03.09.09.15.09.24 0 .14-.14 1.26-.16 1.47-.03.07.05.25.04.4-.02.56-.21 1.24.28.92.67-.08.1-.09.16-.01.21.27.16.09.74-.29.94-.62.34-1.27-.15-1.15-.88.05-.34.04-.41-.1-.41-.13 0-.16.12-.16.65v.65h-.7v-.6c0-.64-.14-.78-.31-.33-.08.22-.07.34.06.55.25.44-.38.69-.72.28-.17-.19-.17-.19-.3 0-.16.23-.47.26-.65.07-.1-.11-.17-.11-.41.01-.38.19-.9.08-1.19-.26-.31-.36-.88-.34-.88.03 0 .28-.3.41-.6.25-.14-.07-.26-.08-.39 0-.23.12-.58.12-.88 0Zm12.5 0c-.33-.14-.43-.42-.36-1.01.09-.82.53-1.11 1.15-.78.14.08.23.08.31 0 .25-.25 1.47-.11 1.47.17 0 .13.04.11.16-.06.26-.37.62-.29.84.2l.19.42.03-.4.03-.39.67-.03c.83-.04 1.14.18 1.04.71-.09.41-.09.56-.01.88.09.37-.29.47-.67.19-.22-.16-.28-.17-.28-.06 0 .32-.89.37-1.2.06-.24-.24-.36-.25-.48-.03-.11.18-1.17.26-1.39.09-.08-.05-.13-.31-.13-.66 0-.54-.02-.58-.21-.53-.14.04-.18.11-.13.22.3.72-.3 1.32-1.03 1.01Zm6.42-.02c-.4-.23-.5-1.33-.14-1.69.24-.24.86-.25 1.11-.02.17.15.18.15.18 0 0-.26 1.13-.24 1.38.01.18.18.19.18.42 0 .29-.24.81-.23 1.13.02.24.19.25.19.3.01.05-.22 2.69-.3 2.94-.1.08.07.18.07.32 0 .53-.29 1.03-.03 1.09.55.1 1.1-.02 1.29-.74 1.29-.54 0-.74-.2-.74-.76 0-.62-.17-.54-.25.11l-.07.6h-.68v-.65c0-.71-.09-.82-.27-.35-.1.25-.09.36.05.6.27.47-.44.65-.8.19-.18-.21-.18-.21-.18-.01 0 .12-.04.23-.1.27-.16.1-.6-.06-.6-.23 0-.13-.02-.13-.18.01-.42.38-1.26.26-1.52-.22-.12-.23-.8-.09-.8.16 0 .21-.46.39-.64.24-.11-.09-.2-.1-.35-.02-.25.14-.61.13-.86-.01Zm-24.41-.4c.15-.25-.01-.48-.44-.62-.18-.06-.35-.17-.38-.23-.06-.21.26-.26.53-.09.14.09.25.12.25.06 0-.23-.5-.43-.76-.31-.37.16-.3.61.11.74.61.2.69.47.14.47-.19 0-.29-.05-.29-.15 0-.08-.07-.15-.15-.15-.18 0-.18.05-.04.31.13.26.86.23 1.03-.03Zm.98-.4c.03-.61.04-.63.33-.69.19-.04.04-.07-.4-.06-.38 0-.58.02-.42.04.26.04.27.06.27.69 0 .82.18.84.22.02Zm.84.47c.04-.09.19-.15.39-.15s.35.06.39.15c.07.19.26.2.26.02 0-.34-.49-1.32-.66-1.32-.16 0-.62.96-.63 1.33-.01.17.18.15.25-.03Zm1.64-.1c0-.18.05-.25.19-.25.1 0 .26.11.35.25.26.39.51.34.31-.06-.12-.23-.14-.34-.05-.44.33-.4-.38-.93-.94-.72-.23.09-.23 1.47-.01 1.47.09 0 .15-.09.15-.25Zm3.04.03c.16-.26-.03-.51-.48-.63-.21-.06-.37-.15-.37-.2.01-.16.51-.18.68-.03.14.11.15.11.11-.02-.09-.27-.5-.43-.8-.31-.49.19-.32.64.29.8.15.04.28.14.28.22 0 .21-.34.23-.55.04-.26-.24-.47-.09-.24.16s.92.23 1.08-.03Zm.66-.03c0-.21.05-.25.29-.25.87 0 .77-.82-.11-.95l-.48-.06v.75c0 .61.03.76.15.76.09 0 .15-.09.15-.25Zm2.35.09c.25-.25.16-.92-.15-1.16-.67-.49-1.49.53-.9 1.12.24.24.82.27 1.05.04Zm.85-.09c0-.15.06-.25.15-.25.08 0 .22.11.31.25s.25.25.35.25c.19 0 .19-.01.03-.25-.15-.22-.15-.29-.03-.51.2-.38.02-.58-.6-.64l-.51-.06v.73c0 .58.03.73.15.73.09 0 .15-.09.15-.25Zm1.9-.39c0-.63.01-.65.28-.69.15-.02-.04-.04-.43-.04-.38 0-.58.02-.42.04.26.04.27.06.27.69 0 .5.03.64.15.64s.15-.14.15-.64Zm1.7.49c.06-.08.1-.22.08-.31-.03-.17-.12-.24-.62-.43-.23-.1-.26-.14-.16-.26.16-.19.35-.19.54 0 .08.08.17.11.2.06.09-.14-.21-.34-.5-.34-.65 0-.7.65-.06.8.46.11.58.43.16.43-.15 0-.36-.07-.46-.17-.15-.13-.18-.14-.18-.02 0 .37.74.55 1 .24Zm4.8 0a.36.36 0 0 0-.12-.56c-.1-.05-.26-.13-.35-.18-.1-.04-.18-.14-.18-.22 0-.2.3-.23.48-.04.09.08.18.11.21.06.1-.16-.22-.32-.56-.29-.54.05-.53.5.01.72.23.09.41.23.41.31 0 .21-.49.19-.66-.03-.12-.16-.13-.15-.14.05 0 .33.66.47.9.18Zm1.12-.47c.03-.57.05-.63.28-.69.16-.04.01-.07-.4-.07-.36.01-.53.03-.37.05.26.04.27.06.27.69 0 .82.18.84.22.02Zm.82.47c.08-.21.66-.19.82.02.25.35.24.04-.02-.66-.27-.74-.47-.89-.63-.48-.05.12-.18.46-.3.75-.16.41-.18.52-.07.52.08 0 .16-.07.2-.15Zm1.66-.1c0-.14.06-.25.13-.25.08 0 .24.11.37.25.33.35.58.34.35-.02-.16-.24-.16-.28-.02-.53.26-.43.01-.7-.64-.7h-.49v.75c0 .6.03.75.15.75.09 0 .15-.09.15-.25Zm3.04.03c.16-.26-.04-.51-.48-.61-.43-.11-.49-.37-.08-.37.15 0 .33.05.4.12.06.06.15.08.19.04.1-.1-.34-.46-.57-.46-.66 0-.73.65-.09.86.46.15.52.44.09.44-.18 0-.33-.06-.36-.15-.07-.18-.24-.2-.24-.02 0 .39.91.5 1.14.15Zm.64-.06c.03-.17.1-.22.32-.22.3 0 .6-.22.6-.45 0-.37-.12-.45-.66-.45h-.54v.71c0 .69.2.97.28.41Zm2.51-.03c.3-.53-.16-1.26-.72-1.15-.97.19-.81 1.51.16 1.44.32-.02.45-.09.56-.29Zm.71.06c0-.18.05-.25.19-.25.1 0 .26.11.35.25s.24.25.32.25c.15 0 .15-.02 0-.25s-.15-.27-.01-.49c.3-.45-.11-.82-.81-.74-.34.04-.53 1.48-.2 1.48.1 0 .16-.09.16-.25Zm1.9-.39c0-.63.01-.65.28-.69.15-.02-.01-.05-.36-.06-.34 0-.62.03-.62.08s.09.07.2.04c.17-.05.2 0 .21.33.01.22.03.46.04.54s.03.21.04.28c.04.41.21.02.21-.52Zm1.64.58c.19-.07.22-.63.04-.68-.07-.03-.26-.07-.41-.11-.2-.04-.27-.11-.25-.23.04-.17.29-.21.61-.07.1.04.17.03.17-.04 0-.38-.93-.3-1.05.09-.09.27 0 .36.45.47.45.12.54.43.13.43-.16 0-.34-.05-.41-.12-.17-.17-.28-.02-.12.17.13.15.56.2.84.09Zm-24.12-.26c-.07-.07-.12-.24-.12-.38 0-.52.61-.71.82-.25.23.51-.32 1.01-.7.63Zm18.86-.13c-.16-.35.03-.75.35-.75.3 0 .47.18.47.5 0 .52-.61.71-.82.25Zm-24.54-1.6c-.03-.08.08-.55.24-1.05.17-.49.27-.9.22-.9s-.1.04-.12.08c-.06.16-1.62 1.31-1.7 1.26-.04-.03-.3.07-.58.21-.29.14-.55.25-.6.23-.09-.03 1.44-1.28 2.6-2.13.61-.46 1.16-1.19.69-.95-.12.07-.55.34-.95.6-.71.46-3.28 2.01-3.79 2.28-.4.21-.45.08-.45-1.07 0-1.3-.03-1.25 1.3-1.97 2.25-1.21 3.73-2.15 3.58-2.29-.07-.07-.78-.61-1.58-1.2C9 9.5 8.8 9.33 8.8 9.18c0-.05 1.19-.08 2.65-.08h2.65l.1-.22c.06-.13.45-1.24.88-2.48.54-1.59.81-2.25.92-2.25s.39.71.98 2.47l.84 2.48h2.64c2.23 0 2.64.02 2.64.14 0 .08-.82.76-1.82 1.51-1.01.74-1.95 1.45-2.11 1.58l-.27.22.8 2.44c.54 1.64.77 2.48.7 2.55-.1.1-.77-.33-3.16-2-1.37-.96-1.24-.93-1.86-.48-3.2 2.31-3.74 2.65-3.84 2.39Zm19.01.05c-.03-.05.06-.47.2-.92.14-.46.28-.92.31-1.03.05-.15-.03-.11-.32.16-.68.63-1.31 1.09-1.48 1.09-.09 0-.39.12-.67.26s-.53.24-.55.21c-.06-.06 1.45-1.3 2.79-2.3.2-.15.44-.42.53-.58.18-.35.08-.32-.71.21-.76.51-4.24 2.6-4.33 2.6-.16 0-.18-.2-.14-1.37l.04-1.12 1.11-.62c2.55-1.41 3.8-2.21 3.65-2.34-.07-.07-.78-.61-1.58-1.2-1.51-1.13-1.64-1.25-1.52-1.37.04-.04 1.25-.09 2.67-.1l2.6-.03.84-2.48c.66-1.97.87-2.47 1-2.45.11.02.4.74.99 2.5l.84 2.48h2.64c2.45 0 2.64.01 2.64.18 0 .11-.76.74-2.05 1.71-1.13.84-2.05 1.57-2.05 1.61s.29.99.65 2.1c.76 2.35.85 2.8.61 2.8-.09 0-1.05-.61-2.13-1.36-1.09-.75-2.03-1.38-2.1-1.41-.06-.03-1.03.61-2.15 1.41-2 1.43-2.21 1.56-2.33 1.36Zm9.19-.25c-.19-.48.04-.86 1.26-2.11 1.42-1.45 1.5-1.67.64-1.72-.28-.02-.71.04-.95.12-.54.19-.61.12-.57-.54s.35-.81 1.7-.81c2.25-.01 2.67 1.47.93 3.24-.8.8-.81.76.13.79l.77.03v1.1l-1.93.03c-1.67.02-1.93 0-1.98-.13Zm-18.12-1.7.05-1.75h-.29c-.28 0-.28-.01-.28-.61v-.6l.45-.2c.32-.14.62-.19 1.03-.17l.57.03.03.9c.02.49 0 1.63-.03 2.53l-.07 1.62h-1.51zm-7.57.12 1.89-1.35.86.6c1.53 1.08 3.22 2.2 3.25 2.16.02-.02-.29-1.07-.7-2.33-.41-1.27-.75-2.31-.75-2.33 0-.01.9-.69 2.01-1.51l2.01-1.49-.74-.05c-.4-.03-.98-.05-1.28-.04s-1.1.01-1.76-.01l-1.21-.02-.78-2.27c-.85-2.48-.89-2.58-.99-2.16-.13.52-1.45 4.26-1.53 4.34-.04.04-1.15.09-2.46.1-1.3 0-2.39.04-2.42.09-.02.04.37.38.88.76.5.38 1.34 1.02 1.86 1.42.93.73 1.41.89 1.41.47 0-.13-1.62-1.51-2.17-1.86-.42-.26-.24-.29 1.56-.29h1.79l.54-1.62c.3-.89.59-1.63.65-1.65s.34.67.64 1.59l.54 1.63 1.65.03c.9.01 1.68.06 1.73.11.06.06-1.87 1.66-2.56 2.12-.06.04.1.68.37 1.54.43 1.38.52 1.75.42 1.75-.03 0-.64-.41-1.37-.9-1.57-1.06-1.38-1.03-2.29-.35-.98.74-1.99 1.39-2.06 1.33-.02-.03.07-.45.21-.93.3-1.03.29-.95.09-.95-.28 0 .04-.29.68-.61.7-.35.73-.36.52-.04-.09.14-.12.25-.07.25.14 0 1.6-1.09 2.13-1.59l.45-.42-.4.06c-.22.04-.87.25-1.45.47s-1.52.54-2.1.72c-.98.3-2.34.85-2.27.92.01.02.48-.1 1.02-.26 1.24-.37 1.18-.37 1.13.08-.04.28-.81 2.97-1.13 3.9-.07.19.1.08 2.2-1.41Zm19.55-.38c1.01-.73 1.38-.95 1.5-.88.08.05.98.67 2 1.39 1.02.71 1.88 1.3 1.93 1.3.1 0 .02-.29-.64-2.35-.32-.99-.61-1.92-.64-2.07-.06-.25.05-.35 1.89-1.74 1.08-.81 1.94-1.5 1.9-1.53-.03-.03-1.16-.08-2.51-.11l-2.46-.05-.76-2.32c-.42-1.28-.78-2.33-.81-2.33s-.41 1.05-.85 2.33l-.8 2.32-2.42.06c-1.34.03-2.45.08-2.48.11s.54.5 1.27 1.04 1.57 1.18 1.86 1.42c.42.34.59.42.78.38.47-.12.27-.4-.91-1.32-.63-.49-1.15-.92-1.15-.96 0-.05.78-.08 1.74-.08h1.75l.5-1.54c.63-1.9.61-1.87.71-1.81.04.03.31.79.61 1.7l.53 1.65 1.2.01c.67.01 1.46.04 1.76.07l.55.07-.65.54c-.36.3-.97.79-1.37 1.08-.39.3-.7.6-.68.66.32.92.95 3.01.91 3.04-.02.02-.68-.38-1.47-.91-.87-.58-1.47-.92-1.53-.87-.63.5-2.61 1.91-2.67 1.91-.11 0-.12.06.11-.85.24-.95.25-1.05.04-1.05-.36 0 .47-.62 1.19-.89l.29-.11-.23.37-.23.37.5-.34c.7-.47 2.16-1.71 2.1-1.77-.08-.09-1.18.24-2.41.72-.61.23-1.45.52-1.85.63-.77.21-1.96.7-1.88.77.02.02.52-.1 1.11-.27s1.1-.28 1.13-.25c.04.04-.21.98-.55 2.11-.33 1.12-.61 2.09-.61 2.16 0 .11.3-.09 2.7-1.81Zm9.8 1.46v-.35h-.95c-.52 0-.95-.02-.95-.04s.38-.41.84-.87c1.9-1.91 1.53-3.26-.84-3.06-.91.08-1.1.18-1.1.63 0 .33.01.34.22.23.41-.22 1.44-.17 1.69.08.34.33.12.7-1.18 2.02-.91.92-1.13 1.19-1.13 1.42v.29h3.4zm-20.5-1.23c0-.82.03-1.83.06-2.25l.07-.77h-.57c-.82 0-1.16.2-1.16.69 0 .36.01.37.32.33l.31-.05-.06 1.77-.05 1.76h1.08zm-13.1-.09c.47-.29.96-.62 1.1-.73l.25-.2-.34.11c-.18.07-.74.33-1.25.59-2.08 1.09-2.16 1.14-2.16 1.38 0 .26.59-.02 2.4-1.15Zm18.14.53c2.19-1.3 2.67-1.78.89-.88-1.73.87-2.38 1.28-2.41 1.51-.05.3-.04.3 1.52-.63ZM8.45 15c1-.42 1.34-.5 1-.23-.25.2-.22.19 1.42-.48 1.9-.79 2.52-1.43.87-.9-.49.16-1.11.34-1.37.4-.82.19-2.97 1.23-2.97 1.43 0 .23-.04.24 1.05-.22Zm19.33-.14c.79-.34 1.06-.35.6-.03-.29.21 1.32-.43 2.39-.94 1.2-.57 1.38-.97.27-.59-.32.12-.93.29-1.34.39-.41.11-1.2.4-1.75.66s-1.1.51-1.22.56c-.13.05-.23.17-.23.29 0 .22-.06.24 1.28-.34Zm-12.99-.8c1.25-.92 1.02-.92 2.39 0 .63.41 1.15.74 1.17.72s-.14-.62-.36-1.32c-.46-1.5-.54-1.27.9-2.39l1.06-.82-1.39-.03c-1.69-.03-1.54.08-2.12-1.65l-.47-1.42-.49 1.47-.5 1.48H13.5c-.82 0-1.51.03-1.54.08-.06.11 1.51 1.32 1.72 1.32.1 0 .93-.16 1.85-.35 1.72-.36 2.17-.41 2.17-.26 0 .16-1.18 1.19-2.56 2.22-1.34 1.01-1.55 1.22-1.69 1.67-.09.31 0 .26 1.34-.72Zm18.98.01c1.24-.94 1.08-.94 2.52.02l1.18.79-.38-1.2c-.53-1.64-.58-1.48.78-2.53l1.16-.9-1.51-.05c-.83-.03-1.52-.07-1.55-.1-.02-.03-.26-.7-.53-1.5l-.48-1.45-.46 1.42c-.25.78-.48 1.44-.5 1.47-.03.02-.73.06-1.57.08-1.16.02-1.49.06-1.4.15.07.06.43.37.82.68.81.66.62.65 2.93.16 1.49-.32 1.92-.37 1.92-.22 0 .16-1.28 1.28-2.62 2.29-.79.6-1.33 1.09-1.43 1.29-.19.39-.2.59-.03.46.07-.06.59-.44 1.15-.86Z"/></svg>