<svg xmlns="http://www.w3.org/2000/svg" width="51" height="51" viewBox="0 0 51 51"><path fill="#fff" fill-rule="evenodd" stroke="#fff" stroke-width=".67" d="M11 38.1c-.43-.1-.85-.56-.99-1.07S9.86 15.3 10 14.79c.05-.19.24-.48.41-.65l.3-.29 3.82-.03 3.82-.03.27-.72c.31-.83 1.13-2.2 1.62-2.72l.33-.35h10.64l.3.32c.48.52 1.2 1.74 1.56 2.62l.32.81 3.88.05c4.32.06 4.24.04 4.57.75.29.59.19 22.53-.1 22.91-.56.76 1.06.69-15.57.71-8.15.01-14.98-.02-15.17-.07Zm30.03-.41c.6-.31.57.33.57-9.61V19h-9.04l.31.32c4.99 5.32 2.1 14.26-5.09 15.72-8.87 1.81-15.04-8.61-9.2-15.51l.44-.53H10.3v18.12l.34.34.34.34H25.9c10.79 0 14.97-.03 15.13-.11Zm-12.69-3.04c3.06-.9 5.33-3.09 6.37-6.13.42-1.22.5-3.91.15-5.12-1.56-5.46-7.47-8.34-12.69-6.19-6.42 2.65-7.6 11.43-2.12 15.79 2.3 1.82 5.54 2.47 8.29 1.65Zm-4.09-.5c-1.87-.34-3.69-1.43-5.02-2.99-.58-.67-1.43-2.23-1.43-2.62v-.24h9.46l.52-.87c.28-.49.62-1.04.75-1.23l.24-.35-.6-1.22-.61-1.21-1.13-.07c-1.88-.12-1.9-.11-2.64 1.02-.8 1.23-.79 1.14-.2 2.31.54 1.08.61 1.36.35 1.46-.44.17-6.23.06-6.32-.11-.21-.41-.35-1.33-.34-2.32.03-7.63 9.21-11.33 14.62-5.91 5.87 5.88.54 15.87-7.65 14.35Zm3.35-.29c1.3-.29 2.89-1.11 3.87-2.02l.42-.39-.92-1.6c-.51-.88-1.17-2.04-1.47-2.58-.6-1.07-.59-1.06-.8-.74-1.47 2.29-4.38 7.32-4.28 7.39.21.13 2.49.09 3.18-.06Zm-2.2-2.57c.82-1.39 1.5-2.56 1.5-2.6 0-.05-1.98-.09-4.4-.09-4.97 0-4.59-.07-4.14.83.77 1.52 2.16 2.92 3.68 3.69.64.32 1.52.67 1.73.68.07 0 .8-1.13 1.63-2.51Zm7.25-.83c1.29-1.81 1.85-4.5 1.33-6.41l-.13-.5-2.92-.03c-1.61-.01-2.93.01-2.93.04 0 .17 4.07 7.54 4.16 7.54.02 0 .24-.29.49-.64Zm-9.53-3.98c-.72-1.37-3.36-5.96-3.51-6.11-.24-.24-1.45 1.89-1.83 3.2-.26.89-.33 3.43-.1 3.96l.12.27h6.02zm.73-2.76c.99-1.51 3.65-5.9 3.65-6.03 0-.3-3-.22-4.05.11-1.51.48-3.7 1.88-3.54 2.27.02.04.43.73.9 1.53s1.12 1.91 1.45 2.47c.32.57.61 1.02.64 1.02s.45-.62.95-1.37Zm9.79-.84c-.59-1.93-2.59-3.97-4.69-4.8-.97-.38-.97-.38-1.46.45-.24.39-.95 1.55-1.57 2.57l-1.13 1.85 3.73.05c2.05.03 4.06.06 4.46.08.72.02.73.02.66-.2ZM20.15 18.1c3.2-2.42 7.85-2.44 11.25-.05l.79.55h9.41v-1.91c0-2.82.41-2.59-4.63-2.59h-3.84l-.13-.42c-.2-.71-.75-1.79-1.3-2.56l-.51-.72H20.62l-.25.3c-.62.73-1.4 2.2-1.71 3.23-.05.16-.32.17-3.76.17-4.98 0-4.6-.22-4.6 2.59v1.91h9.19zm-5.42-.75c-.43-.18-.73-.69-.73-1.23 0-1.41 2.11-1.63 2.49-.25.28 1.02-.78 1.91-1.76 1.48Zm21.08-.03c-.83-.45-.91-1.42-.18-2.1s2.07-.04 2.07.98c0 .62-.68 1.3-1.3 1.3-.14 0-.41-.08-.59-.18Zm1.2-.38c.1-.09.23-.31.29-.49.36-1.11-1.31-1.66-1.76-.58-.37.88.77 1.71 1.47 1.07Zm-21.2.03c.65-.5.41-1.55-.38-1.7-.98-.19-1.53 1.09-.74 1.7.21.16.91.16 1.12 0Z"/></svg>