<svg xmlns="http://www.w3.org/2000/svg" width="51" height="51" viewBox="0 0 51 51"><path fill="#fff" fill-rule="evenodd" stroke="#fff" stroke-width=".572" d="M9.85 46.38c-2.93-.32-5.56-2.67-6.56-5.88l-.24-.75.01-18.18c.01-17.85.02-18.62.3-18.34.03.03.06 1.33.05 2.89L3.4 8.95l.38-.8c1.08-2.24 3.21-3.89 5.77-4.46 1.04-.24 31.58-.2 32.44.04 2.53.7 4.43 2.24 5.4 4.39.65 1.42.61.45.61 16.14.01 15.76-.03 17.46-.35 16.93-.04-.06-.21.23-.39.63-.93 2.14-2.89 3.79-5.29 4.46-.64.18-30.56.28-32.12.1Zm5.75-.42c.15-.3.07-.56-.17-.56-.1 0-.26-.09-.36-.2-.19-.23-.52-.26-.6-.06-.03.07-.19.16-.36.18-.2.03-.3.01-.28-.06.03-.06.09-.1.14-.09.06.01.21-.09.33-.22.27-.28.61-.32.8-.09.08.08.28.21.45.29.36.15.52.53.35.85-.11.2-.06.2 5.64.2h5.75l.12-.22c.09-.17.09-.23-.01-.26-.25-.09-.5-.42-.5-.67 0-.26-.04-.28-.59-.25-.44.02-.37-.21.1-.35.92-.27.8-.49-.24-.43l-.82.05-.18-.56c-.27-.88-.11-1.07.19-.23l.17.48.77-.04c.91-.05 1.31.21.91.61-.22.23-.1.68.27 1.06.17.16.23.31.2.52l-.05.29h5.38l-.07-.22c-.23-.71.07-1.78.58-2.07.15-.09.28-.22.28-.29 0-.18.36-.86.53-1.01.08-.06.18-.27.21-.46.05-.24.23-.5.58-.83.27-.26.69-.66.92-.9.24-.24.56-.51.73-.6s.5-.3.74-.47c.37-.26.51-.3 1.03-.29.34.01.78.02.99.02.22.01.45.06.53.13.11.09.24.02.64-.35 1.1-1.03 3.23-1.46 4.34-.89.25.13.31.13.35.02.12-.37.6-.69 1.01-.69.34 0 .48-.06.7-.3.15-.16.37-.3.49-.3h.21V16.1l-.27.11c-.42.16-1.6.97-1.83 1.26-.28.36-.26.43.3.91.28.24.5.5.5.58 0 .21-.06.18-.71-.36-.79-.66-1.11-.81-2.58-1.26-1.45-.43-1.73-.4-2.46.27-.59.54-.57.56 1.18 1.29 1.01.43 1.6.73 1.77.92.13.15.3.28.37.28.06 0 .18.08.25.18.07.09.31.3.53.47.92.67 1.05.9 1.05 1.79 0 .94-.03 1-.53 1.21-1.02.42-2.15.23-2.28-.4-.14-.64-.1-2.05.06-2.29.17-.26-.27-.61-1.62-1.3-.43-.21-.72-.56-.48-.56.13 0 1.44.64 1.86.9.52.34.59.36.59.15 0-.13-1.3-.82-1.9-1-.14-.04-.46-.18-.72-.31l-.48-.24.03 1.87.02 1.88-1.25-.03c-1.62-.03-1.5.18-1.5-2.63 0-2.9-.03-2.87 1.45-1.15l.9 1.04.03-.49c.04-.63-.37-1.25-1.12-1.74-.54-.34-.79-.59-.89-.87-.03-.09-.46-.44-.95-.77-.5-.33-1-.74-1.12-.91-.23-.32-1.78-1.55-1.86-1.48-.02.03 0 1.06.06 2.29.05 1.23.1 2.34.1 2.47 0 .14.08.26.23.31.49.19.79.86.47 1.06-.06.04-.1-.08-.1-.27 0-.38-.15-.58-.42-.58-.14 0-.18.08-.18.31v.32l-.66-.06-.66-.06.15.22c1.87 2.86 2.18 5.82.93 8.86-2.96 7.21-13.16 7.47-16.7.43-.31-.62-.39-.72-.59-.67-.25.05-3.46.4-5.16.55-.63.06-1.53.19-2 .29s-2.03.4-3.46.66-2.66.48-2.73.51c-.09.02-.12.66-.12 2.72v2.68l.33.12c.18.07.53.12.76.12.36 0 .49.06.81.38.21.2.5.45.65.55.85.6 1.28 1.72 1.27 3.32l-.01 1.2.32.16c.28.14.76.86.99 1.49.11.31.3-.09.58-1.21.3-1.24.52-1.83.77-2.11.15-.17.14-.18-.18-.13l-.34.06.3-.23c.16-.13.45-.4.64-.6.81-.89.72.06-.09 1-.42.47-.58.84-.33.75.13-.05.14.01.07.38-.1.57-.07 1.01.09 1.42l.13.32.18-.5c.1-.28.2-.89.23-1.37.08-1.16.23-1.13.23.04-.01 2.21-1.01 2.94-1.19.88l-.06-.65-.21.88c-.15.61-.18.84-.09.77.17-.14.21-.06.29.63.14 1.07.65 1.43 1.11.77.2-.29.34-.4.48-.38.38.06.27.5-.12.52-.12 0-.27.12-.34.26-.31.62-1.17.09-1.32-.82-.1-.59-.14-.63-.39-.39-.37.35-.81.38-1.1.07-.24-.27-.24-.27-.28-.05-.07.47-.26.3-.33-.28-.1-.9-.15-1.07-.27-.95-.2.2-.38 1.11-.27 1.39.12.32.08.37-.17.19-.27-.2-.23-.78.13-1.61.43-.99.43-2.85-.01-3.8-.26-.58-.99-1.45-1.21-1.45-.05 0-.21-.14-.35-.3-.2-.25-.35-.32-.7-.34-.25-.02-.57-.07-.73-.11l-.27-.07v1.78c0 2.21.12 2.84.82 4.3.32.67.81.91 1.28.62.25-.16.38-.02.17.19-.1.1-.31.17-.52.16-.94-.03 1.35 2.08 3.02 2.77 1.26.53 1.72.58 4.69.59l2.71.01zm25.67.13c3.84-.53 6.69-4.18 6.51-8.33-.04-.81-.15-.9-.55-.46-.22.25-.34.31-.58.27-.65-.1-1.2.42-.95.88.19.36.04.43-.28.12-1.94-1.86-6.42.74-5.28 3.06.3.62.32.75.1.56-.5-.41-.71-1.67-.39-2.3.21-.4.11-.53-.36-.45-.21.03-.4.02-.44-.04-.19-.3-1.32-.02-1.74.44-.14.14-.31.26-.4.26-.08 0-.38.22-.65.49-.28.28-.72.7-.98.95-.29.27-.49.57-.53.78-.04.18-.17.44-.29.58-.28.31-.66 1.31-.66 1.73 0 .38-.17.25-.22-.18l-.03-.29-.18.27c-.27.41-.34 1.2-.13 1.52l.16.25h3.55c1.99 0 3.88-.05 4.32-.11Zm-28.99-1.06c-.09-.1-.22-.38-.28-.63-.07-.25-.18-.59-.25-.75-.25-.57-.35-1.14-.29-1.54.07-.41-.02-.51-.24-.29-.18.18-.27.01-.14-.27.24-.52.66-.18.68.54.02 1.08.04 1.1.24.48.1-.32.3-.76.44-.97.35-.53.35-1.05-.01-1.42-.37-.38-.23-.46.16-.09.29.27.32.36.3.78-.02.33.03.57.15.75.18.27.24 1.46.11 1.89-.16.51.62.1 1.01-.53.23-.36.29-.4.55-.34.26.05.29.03.29-.18 0-.36.1-.56.29-.56.14 0 .15-.1.13-.66-.05-.81.04-1.45.23-1.7.3-.41 1.11.85 1.22 1.9.05.51.08.56.3.56.33 0 .69.39 1.03 1.13.29.63.39.67.19.08-.14-.39-.04-.53.12-.18.2.44.26.22.16-.63-.05-.45-.07-.84-.04-.87.15-.14.25.14.37.97.14 1.01.17 1.06.48.84.18-.12.22-.26.23-.72.02-1.7.67-2.13 1.18-.78.12.33.24.5.34.48.11-.02.16.15.2.73.04.42.12.86.18.97l.12.21.13-.24c.07-.13.16-.53.19-.89.1-.99.12-1.03.48-.96.17.04.43.18.58.32l.26.25-.18-1.18c-.1-.65-.18-1.19-.19-1.2 0-.02-.09-.03-.2-.03-.29 0-.38-.3-.15-.46.37-.27.93-.06.63.24-.07.07-.07.21.01.44.49 1.53.49 4.14-.01 4.44-.19.12-.2-.06-.04-.52.22-.64.2-1.1-.05-1.45-.29-.41-.33-.37-.47.37-.15.78-.37 1.34-.52 1.34-.06 0-.09-.08-.06-.17.19-.64.18-.79-.01-.43-.38.73-.8.38-.97-.82l-.07-.46-.48.2c-.27.1-.7.38-.97.6-.45.37-.49.39-.61.21-.13-.17-.32-.06-.33.2-.01.34-.41-.01-.65-.57-.15-.35-.4-.78-.57-.96l-.29-.32-.23.21-.24.22-.07-.74c-.04-.5-.16-.95-.35-1.35-.5-1.06-.61-.91-.59.75.01 1.03-.06 1.49-.18 1.16-.08-.21-.23-.15-.23.1 0 .56-.29.9-.44.52-.09-.24-.3-.18-.49.14-.23.39-.74.81-.97.81-.11 0-.23.08-.29.17-.23.41-.28.06-.2-1.44.05-1.04-.09-1.25-.42-.62-.33.65-.38 1.99-.1 2.54.22.42.15.67-.11.38Zm12.09-2.36c-.04-.26-.2-.74-.37-1.08s-.29-.63-.26-.66c.11-.11.34.19.57.72.27.62.36.66.7.29.27-.29.78-.58.86-.5.04.03-.23.34-.58.68-.35.35-.69.72-.75.83-.09.17-.12.13-.17-.28Zm3.68-9.42c8.58-2.52 8.59-14.49.02-17.14-3.88-1.2-8.61.87-10.47 4.58-3.43 6.85 3.11 14.71 10.45 12.56ZM4.41 29.51c.52-.11 1.86-.36 2.99-.55 1.13-.2 2.15-.39 2.27-.41.19-.04.22-.13.27-.87.17-2.66.27-4.11.32-4.76l.06-.74-.39.25c-.83.54-2.03.52-2.03-.03 0-.37 1.18-1.48 2.08-1.94.2-.1.32-.24.32-.37 0-.11.06-.22.14-.25s.11-.15.08-.3c-.07-.37.16-.8.63-1.22.45-.39 3.77-2.36 4.6-2.73.73-.32 2.69-1.4 2.73-1.5.02-.05.08-.09.14-.09s.65-.26 1.32-.58c.66-.33 1.42-.68 1.68-.78.34-.13.48-.25.49-.39 0-.11.03-.14.06-.07.08.2.16.17 2.72-.97 1.35-.6 2.65-1.17 2.89-1.26.49-.2.5-.21.17-.65-.49-.66-.37-1.41.35-2.2.4-.44.55-.67.47-.72s-.05-.08.08-.08c.23 0 1.45-1.47 1.45-1.74 0-.45 1.05-.43 1.25.02.06.15.15.2.25.16.43-.19.59-.09 1.59 1.04l1.01 1.14v.63c0 .51-.04.66-.19.77-.18.13-.19.25-.14 2.4l.06 2.27.88.66c.49.36 1.03.84 1.21 1.06s.7.63 1.15.92c.65.4.87.61 1 .9.09.2.22.37.28.37s.34.16.61.35c.6.43.84.44 1.33.05.59-.48 1.29-.7 2.21-.7.76 0 .8-.01.96-.28.1-.15.28-.44.42-.64.21-.32.23-.42.14-.65-.07-.17-.11-.92-.1-1.84 0-.86-.03-1.62-.06-1.68-.05-.08-.82-.11-2.46-.11-1.55 0-2.41-.04-2.45-.1s-.06-1.77-.06-3.8l.01-3.7H15.33v.7c0 .65.01.69.19.59.11-.06.22-.08.25-.06.02.03-.05.1-.16.17-.12.06-.21.19-.21.28 0 .1-.06.26-.14.37-.07.11-.16.34-.19.5-.13.74-.27 1.07-.57 1.41-.21.24-.29.42-.24.53.09.2.09.39 0 .72-.07.24-.05.26.51.38.32.07.78.22 1.03.33.92.42 1.92.77 2.05.71.08-.02.22 0 .32.06.17.1.16.1-.04.11-.2 0-.2.01.07.29.17.16.36.52.45.85.26.88.28.88-1.99.85-1.07-.01-2.33.04-2.86.11-.87.11-2.39.08-2.95-.06-.15-.04-.11.02.13.23.56.49.47.53-1.15.53-.82 0-1.93.05-2.48.1-.65.07-1.03.06-1.09 0a.43.43 0 0 0-.28-.1c-.09 0-.36-.1-.58-.21-.34-.18-.52-.21-1.01-.16-.69.06-.8-.03-.5-.44.32-.43.24-.6-.32-.74l-.27-.07v.82c0 .82 0 .83.2.65.11-.1.2-.14.2-.08 0 .05-.09.18-.2.28s-.2.28-.2.39c0 .18.04.16.21-.11.34-.53.41-.38.09.17l-.3.51v7.64c0 4.4.04 7.65.09 7.65s.51-.09 1.02-.19Zm17.76-.28c-.16-.15-.08-9.03.08-9.09.2-.08 8.89 4.28 8.93 4.48.03.17-3.52 2.09-6.99 3.78-1.99.96-1.92.93-2.02.83Zm1.39-.84c1.2-.57 7.04-3.57 7.18-3.7.05-.04-1.81-1.02-4.13-2.18L22.4 20.4v4.25c0 2.34.02 4.25.04 4.25.01 0 .52-.23 1.12-.51Zm-12.06-.13c.69-.08 1.63-.18 2.1-.22.93-.07 1.18-.15.8-.24-.21-.05-.25-.12-.28-.48-.03-.4-.04-.41-.34-.35-.22.04-.29.03-.24-.05.04-.07.14-.12.22-.12s.14-.06.14-.14.04-.16.09-.18c.16-.06.25-1.18.1-1.17-.47.03-.59.13-.46.39.1.18.1.34.03.58-.14.47-.28.39-.21-.12.05-.33.03-.44-.08-.49-.11-.04-.16.06-.19.45-.07.7-.28.87-1.15.95-.98.08-1.33-.08-1.33-.59 0-.29-.04-.38-.17-.38-.14 0-.15-.02-.01-.17.24-.28.32-1.13.11-1.13-.14 0-.14-.03.03-.21.19-.21.19-.21-.01-.18-.17.04-.21.15-.26.84-.1 1.27-.2 3.15-.17 3.15.02 0 .59-.06 1.28-.14Zm5.07-.52.29-.06-.23-.86c-.12-.48-.22-1.02-.22-1.21-.01-.31-.03-.33-.29-.27-.15.03-.57.11-.94.18-.38.07-.68.17-.68.24 0 .06-.03.25-.06.43l-.06.31.73-.25c.82-.28.79-.28.79-.17 0 .1-1.12.62-1.34.62-.12 0-.16.1-.16.39 0 .39.01.4.43.46.55.07 1-.06 1.12-.33.05-.12.15-.22.22-.22.21 0 .15.29-.12.55l-.24.25h.23c.13 0 .37-.03.53-.06Zm-3.87-1.1c.15-.15.26-1.14.12-1.14-.06 0-.16.09-.22.2-.13.25-.75.28-.84.05-.06-.17-.33-.19-.56-.05-.11.07-.09.11.13.19.15.06.27.15.27.2s.2.12.45.15c.25.04.45.11.45.17 0 .15-.86.11-.99-.05-.24-.28-.51-.27-.51.03 0 .15.03.31.08.35.1.11 1.49.03 1.62-.1Zm10-.5c0-.09 3.54-2.39 3.85-2.5.52-.2-.09.27-1.67 1.28-1.87 1.19-2.18 1.37-2.18 1.22Zm-6.28-2.47c.05-.37.12-.86.17-1.09.13-.55.23-.54-1.33-.16-.9.22-1.36.3-1.36.22 0-.16.35-.28 1.73-.63.65-.16 1.2-.31 1.21-.33.01-.01.15-.32.31-.68.15-.36.45-.92.66-1.25l.38-.6-.37-.08c-.2-.04-1.46-.07-2.78-.05-2.82.03-2.55-.07-3.41 1.33-.3.49-.71 1.06-.9 1.26-.2.21-.3.39-.25.43.07.04.08.46.05 1.16-.06 1.16.09 1.45.36.68.1-.29.31-.31.31-.02s.34.1.49-.27c.13-.35 1.2-.42 1.28-.08.07.26.21.24.35-.06.3-.67-.62-.81-1.94-.3-.12.05-.18.02-.18-.08 0-.34 1.94-.74 2.06-.43.04.1.17.21.29.26.18.07.21.14.17.35-.06.35.38.32.53-.02.11-.25.38-.32.29-.08-.05.13-.02.14.21.05.57-.22.65-.16.65.49 0 .87.03.92.53.77l.42-.12zm28.82-1.1c.53-.35.18-1.08-.85-1.72-.5-.32-.53-.32-.79.11-.62.99-.19 1.91.86 1.82.29-.03.64-.12.78-.21Zm-5.09-.69c-.04-.18-.21-.51-.39-.73-.17-.22-.6-.77-.96-1.23l-.65-.82-.03.4c-.03.37.04.49.85 1.55.92 1.21 1.32 1.48 1.18.83Zm-.27-1.91c-.18-.23-.64-.8-1.03-1.25l-.7-.82-.03.35c-.03.31.08.48 1 1.62l1.03 1.28.03-.37c.03-.3-.04-.46-.3-.81Zm-28.5-.86c.07-.04.12-.14.1-.21-.02-.08.11-.2.27-.28.17-.08.32-.18.35-.22.07-.08.99-.51 1.24-.57.46-.11 3.99-.03 5.08.12.6.08.66.05 1.63-.77.05-.05-.15 0-.45.1-.77.26-1.18.33-1.26.21-.04-.07-.76-.08-2.2-.04-1.53.05-2.14.04-2.14-.04 0-.11.57-.16 1.4-.12.25.01.86-.03 1.35-.08.65-.08 1.05-.08 1.45.01.46.09.61.08.9-.05.19-.08.58-.22.85-.31.61-.2.89-.36.63-.36-.09 0-.3.05-.45.11-1.08.44-1.13.45-.87.18.12-.12.46-.28.75-.35.3-.08.55-.18.57-.23.01-.04.13-.06.25-.04s.4-.03.62-.11c.45-.16.22-.21-.37-.07-.53.12-.48-.06.04-.19.24-.06.95-.28 1.59-.5.64-.21 1.45-.44 1.8-.51.87-.16 1.18-.44.4-.36-.3.04-.59.11-.65.17-.05.05-.24.1-.41.1-.3 0-1.2.25-1.4.4-.06.04-.35.15-.65.24-.71.22-2.58 1.13-2.87 1.39-.23.21-.28.2-1.36-.04-.5-.11-.65-.11-1.21.04-.42.11-.8.15-1.1.11-.72-.1-.54-.24.3-.22.43.01.78-.03.82-.09.15-.22.65-.24 1.39-.03l.74.2.29-.2c.15-.11.31-.2.34-.2s.57-.25 1.2-.55 1.2-.55 1.26-.55c.07 0 .47-.16.9-.35s.84-.35.92-.35c.09 0 .44-.09.78-.2s.74-.2.89-.2c.14 0 .49-.14.76-.31l.5-.31-.45.07-.9.11c-.25.03-.72.18-1.05.34-.33.15-.8.34-1.05.43-.56.18-2.27.94-3.37 1.49l-.82.4-.76-.17c-.77-.17-1.25-.14-1.49.1-.16.16-1.16.33-1.01.17.11-.11 1.15-.5 1.55-.59.14-.02.54.02.89.1.68.16 1.82-.03 1.49-.25-.09-.05-.06-.08.09-.08.12 0 .25-.04.28-.1.03-.05.15-.1.26-.1.1 0 .19-.06.19-.13s.23-.18.52-.25c.28-.06.54-.16.57-.21.03-.04.24-.14.46-.21s.56-.2.75-.3c.19-.09.49-.2.66-.23.18-.03.54-.2.8-.37.35-.22.59-.3.84-.29.19.02.51-.01.7-.05s.42-.08.5-.09c.08-.02.21-.06.28-.11.07-.04.37-.1.67-.13.31-.03.6-.12.67-.21.11-.13.1-.14-.09-.04-.12.07-.37.12-.57.12-.19 0-.46.04-.61.1-.14.05-.69.14-1.23.19-.53.06-1.19.19-1.47.29-.76.29-.95.34-.95.24 0-.16 1.62-.71 2.3-.77 1.3-.12 2.8-.5 2.8-.7 0-.09-.54.07-.75.21-.23.17-.35.18-.35.03 0-.09.22-.2 1.19-.6.13-.05.21-.12.19-.15-.05-.04-1.13.31-2.32.75-.32.12-.73.21-.9.19-.28-.03-.26-.05.2-.15.28-.07.86-.28 1.28-.48.43-.2 1.09-.43 1.47-.52.77-.17.82-.33.11-.33-.32.01-.6.08-.87.25-.22.14-.47.25-.56.25-.17 0-.96.31-1.41.56-.14.07-.31.14-.37.14s-.38.13-.72.3c-.34.16-.65.28-.69.25-.04-.02-.16.02-.26.1-.27.2-.85.2-.78 0 .04-.09.19-.15.38-.15.18 0 .36-.04.41-.09.06-.05.46-.24.9-.41s.94-.37 1.1-.45c.65-.29 1.37-.55 1.55-.55.1 0 .23-.06.27-.14.16-.28 1.83-.52 1.83-.26 0 .05.07.1.15.1s.12-.06.09-.13c-.07-.18.1-.3.76-.55.42-.15.56-.25.58-.42.04-.26-.43-.22-.64.05-.06.08-.14.12-.17.09-.03-.04-.24.01-.47.1-.51.2-.7.2-.7 0 0-.21-.01-.21-3.05 1.14-1.43.63-2.87 1.25-3.2 1.39-.79.33-3.21 1.51-4.15 2.03-.41.23-1.42.77-2.25 1.19-2.04 1.06-3.83 2.14-4.22 2.56-.42.44-.45.82-.05.56ZM34 17.96c0-.29-.11-.33-1.55-.42l-1.1-.07.32.27c.26.22.47.28 1.1.35 1.27.13 1.23.14 1.23-.13Zm11.9-1.14c.25-.24.78-.59 1.18-.79l.73-.37-.02-2.13-.02-2.13h-3.38l.07.22c.05.13.07.34.06.48s-.01.63-.01 1.1v1.15c0 .17.05.47.11.68.1.35.09.4-.2.81-.18.24-.32.49-.32.55 0 .05-.16.23-.35.38l-.34.27.87.32.87.32.15-.21c.08-.12.35-.41.6-.65Zm-12 .29c0-.33-.08-.36-1.6-.46-.47-.03-1.06-.08-1.32-.11-.41-.05-.48-.03-.48.11 0 .33.41.54 1.1.56.36.01.94.05 1.3.09s.73.08.83.08c.13.02.17-.05.17-.27Zm-3.8-2.59v-2.07l-.36-.53c-.44-.66-.33-.72-1.51.83q-.99 1.29-1.23 1.35c-.3.07-1.28 1.28-1.08 1.34.07.02.52.09.99.15.9.12 1.97.44 2.64.79.22.12.43.21.48.22.04 0 .07-.93.07-2.08Zm3.8 1.69c0-.32-.1-.35-1.85-.46-.49-.03-1.05-.08-1.22-.11-.31-.05-.33-.03-.33.26 0 .17.05.3.12.31s.72.07 1.43.14c1.99.19 1.85.19 1.85-.14Zm-15.35-.51c-.11-.05-.46-.09-.77-.09-.32-.01-.58-.05-.58-.11 0-.16.69-.23 1.17-.11.45.12.48.11 1.59-.44 1.21-.6 1.85-.85 2.16-.85.29 0 .12.18-.25.25-.17.04-.48.15-.67.26-.19.1-.59.28-.87.4-.29.12-.53.25-.53.29 0 .05-.13.13-.3.19-.16.05-.3.15-.3.2 0 .13-.37.13-.65.01Zm15.25-.39c0-.28-.02-.3-.53-.36-.9-.1-2.68-.21-2.73-.16-.04.04-.06.5-.01.52.04.01 2.73.26 2.99.28.25.01.28-.03.28-.28Zm-15.56-.4c.03-.05.47-.27.98-.49.51-.23 1.16-.51 1.43-.63 1.12-.5 1.7-.64 1.46-.35-.07.08-.24.17-.39.21-.15.03-.64.24-1.09.46-.45.21-.86.39-.92.39-.05 0-.31.11-.57.25-.46.24-1.01.34-.9.16Zm15.56-.5c0-.32-.05-.33-2.22-.47l-1.08-.07v.27c0 .32-.19.26 1.35.41 2.04.19 1.95.2 1.95-.14Zm-.02-.88-.03-.28-1.2-.11c-1.99-.2-2.05-.19-2.05.15v.29l1.23.09c2.13.17 2.09.17 2.05-.14Zm-26.89-.6c.22-.84.23-.93.12-.93-.06 0-.17-.13-.25-.29-.27-.51-.73-.51-.83.01l-.06.29-.21-.21a.85.85 0 0 0-.49-.2c-.26 0-.33.07-.81.81l-.24.36.39-.08c.32-.08.46-.05.86.16.32.17.56.24.74.2.19-.04.28-.01.32.09.11.29.36.17.46-.21Zm2.82.17h1.07l-.27-.27c-.15-.16-.48-.66-.73-1.13-.26-.47-.56-.94-.67-1.04s-.18-.22-.15-.27c.04-.07-.65-.49-.8-.49-.13 0-.37.66-.65 1.77-.17.66-.34 1.29-.38 1.38-.06.17-.01.18.72.12.43-.04 1.26-.07 1.86-.07Zm24.09-.39c0-.36-.04-.37-1.4-.46-.58-.03-1.19-.08-1.36-.11-.29-.05-.32-.03-.36.25-.04.26-.01.31.16.32.26.01 2.78.25 2.89.27.04.01.07-.11.07-.27Zm-19.9-.32c.36-.05 1.54-.1 2.63-.09 1.08 0 1.97-.01 1.97-.03 0-.76-.56-1.4-1.53-1.76-.32-.12-.72-.28-.88-.36-.26-.14-.28-.14-.23.02.05.14.02.14-.13-.03-.18-.21-.69-.42-1.15-.48-.4-.05-.72-.23-1.21-.7-.26-.25-.51-.46-.56-.46s-.14-.07-.21-.15c-.38-.46-1.15-.24-1.5.44-.1.21-.38.55-.6.74-.31.26-.42.44-.46.73-.03.22-.1.49-.16.61-.11.22.09.75.48 1.28.21.29 2.34.43 3.54.24Zm19.9-.58c0-.32-.03-.32-2.22-.47l-.98-.07v.27c0 .14.06.26.13.27.06 0 .68.06 1.37.14 1.82.19 1.7.19 1.7-.14ZM4.58 11.6c.32-.31.78-.4.99-.19.08.08.14.05.22-.1.13-.24.59-.29.9-.09.25.15.71-.04.71-.29 0-.34.47-1.2.69-1.26.27-.07 1.17.38 1.38.69.2.31.33.22.33-.22 0-.29.08-.42.4-.72.23-.2.5-.52.62-.72.74-1.24 1.52-1.18 3 .26.23.22.39-.08.31-.62-.04-.34-.01-.43.26-.68.2-.19.31-.4.31-.57 0-.15.04-.31.1-.34s.1-.21.1-.39c0-.17.06-.38.13-.45.08-.08.12-.45.12-1.13v-1l-2.65.05c-2.35.04-2.73.07-3.4.26-3.24.95-5.45 3.51-5.76 6.66l-.06.6.49.26c.26.15.49.27.5.28.01 0 .15-.12.31-.29Zm29.12-.65c0-.32-.11-.34-1.75-.37-1.26-.03-1.3-.02-1.33.18s.03.22 1.1.31c1.95.17 1.98.17 1.98-.12Zm14.06-.51c-.38-3.68-3.72-6.63-7.53-6.64h-.83v7.3h8.43zm-14.06-.33v-.29l-.87-.06c-.96-.06-1.78-.09-2.05-.07-.12.01-.18.09-.18.25 0 .24.37.29 2.83.44.24.02.27-.02.27-.27Zm7.42-.18c-.04-.1-.05-.81-.02-1.58l.05-1.4.5-.06c.67-.08.85 0 1.31.6.47.61.58.63.49.11-.12-.69-.02-.8.66-.8h.59v3.19l-.44.06c-.67.1-.77.05-1.36-.73l-.55-.72-.03.69c-.03.68-.03.69-.34.75-.51.1-.77.07-.86-.11Zm.9-.96c.04-1.05.14-1.06.93-.02.56.75.63.8 1.01.83l.41.03.06-.53c.04-.29.07-.9.07-1.35V7.1h-.8v.64c0 .87-.08.88-.81.05-.61-.69-.64-.71-1.02-.66-.51.07-.46-.04-.54 1.4l-.06 1.27h.72zm-8.32.25v-.29l-1.47-.11c-1.55-.11-1.67-.09-1.61.29.03.23.07.24 1.18.3.63.03 1.32.06 1.53.07.34.02.37 0 .37-.26Zm-4.37-.95.97-.42v-.37c0-.49-.05-.48-1.23.07-.96.46-1.07.56-1.07 1.02 0 .29-.09.31 1.33-.3Zm4.33.15c-.08-.07-2.03-.31-2.63-.32-.82 0-.53.27.35.35.42.04 1.11.1 1.52.13.68.07.93.01.76-.16Zm.14-.67c0-.14.05-.25.11-.25s.09.06.06.13c-.03.08-.01.2.04.28.06.1.09.03.09-.22v-.36l-.57-.07c-.34-.04-.6-.03-.67.04-.12.12-.29.13-.22.01.1-.15-.22-.21-1.1-.21h-.84v.35c0 .35 0 .35.44.35.24 0 .65.02.92.05.42.04.45.03.19-.05-.4-.13-.97-.59-.73-.6.09 0 .21.06.25.13.09.13 1.03.53 1.43.6.55.09.6.08.6-.18Z"/></svg>