<svg xmlns="http://www.w3.org/2000/svg" width="51" height="51" viewBox="0 0 51 51"><path fill="#fff" fill-rule="evenodd" stroke="#fff" stroke-width=".458" d="M35.02 34.73c-.1-.2-.33-.93-2.72-8.81-2.1-6.91-2-6.66-2.92-7.13-.35-.18-.39-.24-.36-.52l.03-.32h5.5v.33c0 .3-.04.35-.4.48-1.22.41-1.19 1.07.3 5.94.98 3.23 1.95 6.48 1.96 6.58.03.31 3.32-9.37 3.53-10.41.25-1.19-.07-1.88-.97-2.14-.28-.08-.32-.13-.32-.43v-.35l2.52-.03c2.21-.02 2.53 0 2.67.14.16.16.13.55-.04.62-.49.19-.99.66-1.27 1.18-.32.61-2.77 7.12-5.44 14.47l-.21.57h-.89c-.74 0-.9-.03-.97-.17Zm-26.4 0c-.23-.09-.12-.73.24-1.46.35-.68.91-1.73 5.29-9.77 1.92-3.52 2.25-4.15 2.25-4.25 0-.04-1.02-.05-2.28-.03-2.99.04-3.1.1-3.74 2.11l-.31.98-.71-.03-.71-.03-.03-2.04c-.02-1.42.01-2.08.09-2.17.18-.22 10.61-.2 10.83.02.31.3.44.04-5.49 10.94-.67 1.24-1.48 2.73-1.79 3.33l-.58 1.07h2.44c3.24 0 3.26-.01 3.92-2.09l.33-1.06.63-.03c.44-.02.66.01.71.1.17.26.11 4.15-.07 4.32-.15.16-10.64.24-11.02.09Zm13.66-.04c-.36-.2-.22-.57.32-.84.89-.45.83.12.84-7.48.01-7.65.07-7.1-.85-7.51-.53-.23-.66-.44-.49-.76.14-.26 4.98-.32 5.2-.05.19.23.07.49-.31.67-.2.09-.48.31-.63.48l-.26.32v13.75l.23.2c.12.12.4.29.62.4.45.2.56.5.3.77-.19.19-4.65.24-4.97.05Zm14.39-.12c.02-.03.49-1.26 1.03-2.74 4.15-11.38 4.65-12.58 5.47-13.12.29-.19.5-.38.47-.43-.08-.12-4.76-.1-4.72.02.02.05.23.2.48.32 1.05.53 1.16 1.5.42 3.78-.43 1.33-2.77 8.11-3.09 8.95-.29.78-.4.66-.9-1-.24-.82-.91-3.05-1.48-4.95-1.71-5.65-1.75-6.21-.5-6.82.25-.12.45-.26.45-.3s-1.15-.08-2.55-.08c-2.36 0-2.94.06-2.34.25.32.1.98.74 1.19 1.14.1.2.91 2.75 1.79 5.66 2.07 6.79 2.81 9.18 2.85 9.3.03.1 1.33.12 1.43.02ZM19.5 32.5v-2H19c-.39 0-.5.03-.5.16 0 .34-.62 2-.87 2.32-.5.66-.77.72-3.64.72-1.41 0-2.58-.03-2.62-.06-.07-.07.28-.78 1.5-3.04 6.23-11.49 6.58-12.14 6.48-12.29-.04-.08-1.68-.11-5.26-.11H8.9v3.91l.46-.03.47-.03.31-.92c.72-2.06.91-2.16 4.01-2.21 1.83-.03 2.34-.01 2.48.1.21.16.5-.42-4.8 9.31-2.49 4.57-3.13 5.81-3.13 6.04 0 .1 1.08.13 5.4.13h5.4zm7.55 1.9c.03-.05-.12-.18-.33-.29-.22-.11-.51-.34-.66-.51l-.26-.32V26.5c0-4.55.04-6.88.11-7.07.14-.37.54-.79.9-.93.59-.25.23-.3-2.12-.3-2.54 0-2.65.03-1.9.42.55.29.81.63.92 1.19.09.5.1 5.97 0 10.51l-.06 3.06-.25.27c-.14.15-.42.36-.62.46-.21.11-.38.24-.38.29 0 .13 4.57.13 4.65 0Z"/></svg>