<svg xmlns="http://www.w3.org/2000/svg" width="51" height="51" viewBox="0 0 51 51"><path fill="#fff" fill-rule="evenodd" stroke="#fff" stroke-width=".598" d="M25.01 48.79C8.92 47.11-.54 29.54 6.77 14.95 12.14 4.23 25.49-.76 36.27 3.92c1.14.49 1.13.31.13 2.57C35.33 8.91 35 9.7 35.04 9.7c.02 0 .88-.95 1.9-2.1 2.28-2.56 2.58-2.72 1.95-.99-.6 1.63-1.69 4.93-1.64 4.97.06.06.36-.17 2.47-1.89 3.27-2.68 3.35-2.59 1.13 1.31-1.05 1.85-1.38 2.5-1.26 2.5.05 0 1.28-.65 2.73-1.45 2.57-1.41 2.98-1.59 2.98-1.32 0 .16-1.08 1.58-2.62 3.47-1.44 1.76-1.45 1.78-.2 1.33.53-.2 1.89-.65 3-1 3-.96 2.99-.92-.73 2.21-2.1 1.77-2.13 1.69.51 1.32 4.93-.69 4.92-.69 2.44.79-2.11 1.27-3.71 2.27-3.67 2.31.02.02 1.37.1 3.01.19 4.17.22 4.19.25 1.01 1.39-3.79 1.35-3.82 1.36-3.32 1.5.12.04 1.5.34 3.07.67s2.89.64 2.94.69c.23.23-.07.37-1.25.58-2.97.54-4.99.95-4.99 1.01 0 .04 1.14.53 2.53 1.1 2.97 1.23 3.3 1.38 3.24 1.54-.03.09-.92.15-3.23.22l-3.19.1 2.55 1.59c4.1 2.56 4.16 2.54-3 1.1-.34-.07 1.4.78 2.7 1.31 1.6.66 2.37 1.02 2.44 1.14.04.05-.14.51-.39 1.02-4.23 8.4-13.62 13.47-23.14 12.48Zm6.6-.52c3.91-.76 7.39-2.37 10.38-4.8.8-.65 2.53-2.28 2.48-2.33-.01-.02-.38.08-.82.21-3.44 1.06-6.9 1.38-11 1.02-1.16-.1-1.54-.1-2.2.01-4.61.8-10.42-.77-14.02-3.76-5.12-4.26-7.2-11.94-5.02-18.54C14.37 11.1 24.67 6.17 33.4 9.55c.52.2 1.01.37 1.08.38.08.01.31-.41.58-1.03.25-.58.76-1.75 1.14-2.61.82-1.84.8-1.73.32-1.98-5.12-2.59-13.17-2.41-18.97.44C.57 13.05.07 36.99 16.7 45.93c4.41 2.37 10.12 3.26 14.91 2.34ZM12.8 47.26C2.33 42.91-2.7 30.47 1.85 20.2c.24-.52.46-.93.51-.9s.08.07.07.1c-.55 1.69-.77 6.86-.4 9.6.62 4.57 2.48 8.89 5.4 12.5 1.65 2.05 5.04 5.09 6.6 5.9 1.15.6.34.51-1.23-.14Zm-1.12-1.18C4.1 40.07.59 31.4 1.75 21.5l.05-.45-.21.5c-.11.28-.33 1-.49 1.6-2.14 8.32 1.18 17.14 8.27 21.97.71.48 3.07 1.77 3.26 1.78.04 0-.38-.37-.95-.82Zm19.07-4.03c9.04-1.64 15.09-10.91 13.11-20.06-2.81-12.98-18.82-17.66-28.21-8.24-5.7 5.71-6.46 14.68-1.85 21.59 3.37 5.04 10.54 7.88 16.95 6.71Zm7.16.15c3.69-.37 6.72-1.22 7.45-2.07.26-.3.45-.56.43-.58-.03-.02-.63.14-1.34.36-3.14.97-5.38 1.42-7.9 1.58-1.42.09-3.34.45-3.2.6.18.18 3.15.25 4.56.11Zm1.29-1.27c1.66-.27 4.08-.91 6.67-1.76.52-.17 2.65-3.62 2.35-3.81-.04-.02-.35-.16-.7-.3l-.62-.26-.68.54c-2.79 2.25-5.59 3.97-8.77 5.38l-1.1.49.95-.06c.52-.03 1.38-.13 1.9-.22Zm-1.85-.97c2.57-1.13 4.97-2.57 7.3-4.38l1.44-1.12-.35-.15c-.35-.14-.36-.14-.82.31-1.57 1.51-3.97 3.07-5.79 3.76-.26.1-.86.47-1.33.81-.47.35-1.2.84-1.62 1.09-.43.24-.78.46-.78.48 0 .05.1 0 1.95-.8ZM26 39.39c-6.94-.81-12.24-6.73-12.25-13.69 0-2.53.04-2.62.82-1.59 1.01 1.32 2.09 2.11 3.34 2.44 1.24.33 3.48.07 4.7-.56.5-.25.52-.23.72.72.75 3.52 2.76 5.48 5.63 5.49 1.07 0 3.09-.68 3.77-1.28.26-.23.32-.08.28.78-.08 2.08 1.36 3.5 3.54 3.5 1.02 0 1.03.01.18.8-2.68 2.52-6.87 3.83-10.73 3.39Zm1.7-1.02c-.83-1.77-1.11-4.05-.68-5.58l.15-.55-.76-.39c-1.42-.72-2.41-1.99-2.98-3.77-.22-.72-.2-.72-.77.15-2.26 3.44-2.59 6.14-1.1 8.83.61 1.1 1.56 1.59 3.74 1.94.41.06.82.13.9.15.08.01.54.03 1.02.04l.87.01zm1.7.67c0-.02-.12-.23-.27-.47-1.04-1.65-1.45-3.68-1.08-5.41.17-.81.2-.72-.26-.81l-.37-.07-.16.71c-.4 1.76-.08 3.86.85 5.61l.29.55.5-.03c.28-.02.5-.06.5-.08Zm1.46-.24c1.89-.45 4.11-1.59 5.48-2.81l.5-.44-.71-.06c-1.89-.17-3.3-1.58-3.41-3.4l-.04-.75-.77.38c-.87.43-1.76.68-2.76.77l-.7.06-.13.6c-.36 1.68.09 3.84 1.11 5.37.37.55.35.54 1.43.28Zm-9.46-1.47c-1.4-2.2-1.4-4.64-.01-7.4.23-.46.39-.83.36-.83-.28 0-1.39 2.96-1.56 4.16-.19 1.37.27 3.26 1.02 4.17.43.52.54.46.19-.1Zm-.96-.66c-1.26-2.65-.38-6.3 2.28-9.49.35-.42.42-.88.14-.88-.04 0-1.03 1.36-1.54 2.11-1.66 2.46-2.32 5.51-1.64 7.67.2.64.76 1.32 1.08 1.32.02 0-.13-.33-.32-.73Zm20.41.13c1.16-.7 2.27-1.51 3.14-2.28l.74-.66-.89-.43c-.49-.24-.92-.43-.96-.43-.03 0-.29.42-.56.93-.58 1.07-1.29 2.1-1.97 2.84-.58.65-.54.66.5.03Zm-21.94-1.36c-.46-2.48.22-5.19 1.96-7.73.75-1.1.76-1.03-.12-.84-.85.18-2.5.13-3.12-.1l-.42-.16-.54.82C15.59 29.07 15 30.19 15 30.61c0 .7 1.63 3.23 2.92 4.53 1.1 1.1 1.14 1.12.99.3Zm29.59-2.05c-1.22-.8-4.64-2.88-4.68-2.85-.02.03-.21.47-.42.98l-.37.93.81.18c2.91.63 4.98.97 4.66.76ZM19.74 30.8c.26-.69 1.12-2.26 1.72-3.13.56-.82.64-.98.39-.77-.88.73-2.43 3.78-2.6 5.1-.05.43-.04.42.14-.15.1-.33.26-.8.35-1.05Zm16.06.56c-1.42-.39-2.25-1.27-2.45-2.6l-.07-.45-.52.29c-3.52 1.95-7.55.47-8.79-3.24-.29-.83-.23-.81-.99-.47-3.14 1.43-5.96.69-8.29-2.15l-.6-.73.26-.78c2.7-8.17 11.9-12.04 19.48-8.19 1.48.75 3.18 2 3.04 2.24-.22.34-.66.24-1.6-.36-1.81-1.17-3.33-1.79-4.69-1.9-1-.09-1.03-.27-.04-.26 1.3.02 2.74.57 4.63 1.75 1.32.83 1.7.87.63.07C28.31 9 18 12.15 14.7 21.02l-.32.87.23.33c.29.42 1.56 1.74 1.9 1.99l.27.19.83-.86c3.6-3.71 8.2-6.46 12.69-7.61.77-.19 1.48-.32 1.57-.29.28.11.02.23-.87.41-4.14.82-8.78 3.45-12.64 7.16-1.4 1.34-1.38 1.32-.95 1.54l.31.16 1.01-.98c1.21-1.17 3.13-2.83 3.28-2.83.25 0-.03.32-1.01 1.17-1.54 1.32-2.92 2.65-2.83 2.73.51.48 3.05.33 4.45-.25 1.26-.53 1.18-.51 1.28-.35.08.12.34-.09 1.27-1 3.02-2.95 3.13-3.04 3.23-2.94.08.08-.55.74-2.1 2.24-2.51 2.42-2.35 2.11-1.74 3.38.4.83 1.42 1.98 2.11 2.39.53.31 1.64.67 1.73.56.06-.07 2.58-3.57 4.5-6.25.7-.99 1.1-1.39 1.1-1.13 0 .05-2.79 3.97-4.53 6.36-.42.58-.77 1.09-.77 1.14 0 .12 1.89-.02 2.4-.18.76-.25 1.33-.49 1.82-.8.57-.34.68-.3.68.27 0 2.48 3.13 3.54 6.31 2.13l.55-.24.22-.74c1.32-4.49.35-9.19-2.65-12.92-.61-.75-.73-.97-.54-.97.14 0 1.2 1.32 1.76 2.18 2.23 3.45 2.87 7.93 1.68 11.77-.29.95-.3.95-1.13 1.27-1.4.55-2.99.72-4 .44Zm-19.5-4.28c.4-.59.41-.63.23-.76-.48-.36-.47-.36-1.16.67-.98 1.48-1.08 1.71-.95 2.17.23.86.25.86.88-.34.32-.61.77-1.39 1-1.74Zm32.75 2.64.5-.07L47 28.59l-2.55-1.05-.22 1.1c-.12.61-.23 1.12-.23 1.14 0 .05 4.59 0 5.05-.06Zm-34.21-2.74c.31-.51.62-1.01.68-1.1.1-.14.04-.26-.42-.75-.3-.32-.67-.74-.81-.93l-.27-.35-.07.88c-.09 1.07.08 3.32.25 3.22.04-.02.33-.46.64-.97Zm32.54-.69c1.47-.27 2.71-.51 2.77-.53.11-.03-.32-.13-3.35-.76-1.07-.23-2.03-.44-2.12-.46-.16-.05-.18.05-.18 1.1 0 .72.04 1.16.1 1.16s1.31-.23 2.78-.51ZM39.4 24.7c-1.56-3.01-4.51-6.28-7.13-7.89-.27-.16-.35-.27-.28-.34.31-.31 3.97 2.81 5.48 4.68.75.93 1.5 2.11 2.18 3.43.67 1.3.8 1.25.79-.28-.01-2.34-1.14-5.13-2.91-7.24-.36-.43-.63-.8-.59-.83.32-.32 2.02 2.09 2.88 4.1.7 1.6 1.17 4.18.94 5.1-.05.2-.45.47-.71.47-.02 0-.31-.54-.65-1.2Zm-14.8.57c0-.16 5.02-4.8 5.25-4.85.35-.08.02.26-2.45 2.54-2.66 2.44-2.8 2.56-2.8 2.31Zm21.55-2.15c.88-.32 2.04-.74 2.57-.92.53-.19.95-.36.93-.39-.04-.04-4.39-.29-5.26-.3l-.36-.01.18.88c.1.48.19.97.19 1.1 0 .29-.08.31 1.75-.36Zm-1.48-2.75c.38-.24 1.41-.87 2.31-1.41s1.62-1 1.59-1.02c-.03-.04-3.98.47-4.97.64-.53.09-.52.04-.08 1.29.38 1.08.3 1.05 1.15.5Zm.58-4.43c.72-.61 1.44-1.22 1.6-1.37l.3-.27-.3.09c-1.14.35-4.37 1.43-4.72 1.58l-.41.18.44.75c.24.41.48.83.54.93.12.21-.06.34 2.55-1.89Zm-2.2-2.64c.61-.76 1.26-1.59 1.45-1.86l.34-.48-.34.21c-.19.11-1.07.6-1.95 1.08-.88.49-1.85 1.02-2.16 1.19l-.57.32.72.86.71.87.35-.41c.19-.23.85-1.03 1.45-1.78Zm-2.35-2.6c.65-1.18 1.22-2.24 1.26-2.35.04-.1-.53.3-1.27.9-.74.61-1.74 1.42-2.21 1.8-.48.39-.87.72-.87.75s.37.35.82.72c.75.61.83.66.95.5.07-.09.66-1.14 1.32-2.32Zm-2.82-2.02c.5-1.44.9-2.63.88-2.65s-.63.65-1.37 1.49c-.73.84-1.57 1.78-1.86 2.09l-.53.56.92.56c.51.31.96.56.99.56.03.01.47-1.17.97-2.61Z"/></svg>