<svg xmlns="http://www.w3.org/2000/svg" width="51" height="51" viewBox="0 0 51 51"><path fill="#fff" fill-rule="evenodd" stroke="#fff" stroke-width=".681" d="M38.75 34.4c-.12-.19.28-.25 1.83-.28 1.48-.04 2.02.03 1.81.22-.09.08-3.6.13-3.64.06ZM8.35 33c-.04-.06.08-.18.26-.28.9-.48 2.58-1.93 3.46-2.97.44-.51.67-.55.42-.08-.53 1.02-3.9 3.73-4.14 3.33Zm15.05-.63c0-.22 1.11-.49 4.2-1.03 3.24-.56 3.8-.57 5.8-.13 2.01.43 5.33.54 6.73.2.92-.22 2.01-.27 2.27-.11s0 .25-.63.22c-.4-.02-.92.04-1.44.17-1.66.43-4.93.29-7.81-.33-1.1-.24-1.85-.2-4.47.25-2.05.34-2.83.5-4.43.86-.15.04-.22.01-.22-.1Zm22.66-1.38c-1.04-.17-.87-.44.19-.3.42.06 1.03.11 1.36.11.46 0 .59.03.59.15 0 .17-1.24.2-2.14.04ZM0 30.19c0-.2.66-.57 1.33-.73.21-.05.27-.12.27-.34l.01-.27.14.25c.14.24.14.23.15-.25.01-.92.12-1.85.23-1.78.06.04.07.46.03 1.14l-.06 1.08.52-.18c.29-.1.8-.32 1.13-.49 1.15-.57 3.03-1.32 4.85-1.92 1.34-.44 2.01-.71 2.53-1.05.68-.44.97-.54.97-.36 0 .29-1.66 1.15-3.22 1.66-1.89.61-3.17 1.11-4.84 1.89-.65.3-1.53.64-1.94.75-1.23.33-1.4.39-1.76.6l-.34.2zm.82-1.27c-.24-.51-.29-1.29-.11-1.63.08-.15.07-.24-.03-.36-.18-.22-.17-2.98.01-3.16.09-.09.12.2.1 1.33-.01.82.03 1.56.09 1.7.13.29.17-.16.13-1.25-.02-.43 0-.57.08-.5.14.14.25 2.41.11 2.5-.06.04-.1-.04-.1-.19 0-.18-.04-.24-.15-.2-.21.08-.2 1.21.01 1.74.23.57.13.59-.14.02Zm43.83-.52c-.97-.04-1.23-.07-1.01-.14.33-.1 3.28.01 3.6.14.23.1-.39.1-2.59 0ZM2.31 26.95c-.23-.66-.54-2.45-.44-2.55s.21.26.32 1.07c.07.47.19 1.02.27 1.23.09.21.14.51.12.67-.02.23-.07.16-.27-.42Zm.76.58c-.04-.03-.07-.28-.07-.55 0-.26-.04-.48-.1-.48-.05 0-.1-.06-.1-.13 0-.08-.15-.69-.34-1.38-.19-.68-.33-1.26-.31-1.28.05-.05.36.66.51 1.19.12.43.13.44.13.12.01-.2.05-.31.11-.27s.07.23.04.45c-.08.48.04 1.33.17 1.25.05-.04.09.19.09.54 0 .62-.01.66-.13.54Zm1.54-1.2c-.12-.32-.28-.77-.37-1.01a5.3 5.3 0 0 0-.5-.92c-.23-.33-.3-.5-.2-.5.24 0 .85 1.08 1.15 2.04.11.34.22.69.26.79.04.09.03.17-.03.17s-.2-.26-.31-.57Zm31.06.28c-1.2-.31-1.13-.55.08-.26 1.4.34 3.33.29 7.35-.19 1.18-.14 1.14-.18-.46-.41-1.57-.22-7.98-.09-11.99.25-1.69.14-4.48.22-4.89.14-.42-.07-1.33-1.03-2.68-2.82-.91-1.2-.83-1.3.11-.12.77.97 2.05 2.36 2.3 2.49.24.13 1.11.23 1.1.14 0-.04-.25-.28-.55-.52-.31-.24-.75-.69-.97-1.01-.23-.31-.62-.85-.86-1.19-.66-.92-.95-1.06-2.1-1.04l-.94.02-.7-.7-.7-.7.07.43c.04.27.03.39-.02.33-.16-.17-.3-.76-.37-1.55-.2-2.14-1.21-2.73-4.5-2.61-.56.02-1.22-.05-2.13-.23-2.04-.4-3.14-.35-6.82.29-1.8.32-2.65.3-3.79-.09-.73-.25-1.61-.71-1.61-.85 0-.2.17-.19.57.05 1.51.88 2.74.97 5.73.39 2.75-.52 4.3-.53 6.39-.04 2.04.49 3.44 0 5.13-1.8 1.21-1.29 1.66-2.39 1.55-3.82-.15-1.92-1.03-3.16-4.02-5.66-1.77-1.48-3.28-3.58-3.74-5.2-.13-.46.16-.46.31 0 .61 1.77 1.92 3.52 3.83 5.12 2.91 2.44 3.81 3.77 3.93 5.81.1 1.95-1.22 4.17-3.14 5.25l-.58.33.69.16c1.57.36 2.37 1.19 2.52 2.61.06.58.09.63.75 1.35l.7.74h.82c1.42 0 1.73.19 2.77 1.7.79 1.16.84 1.22 1.64 1.85l.69.55h.94c.52 0 1.89-.06 3.06-.14 7.2-.49 10.08-.51 12.56-.09 1.72.3 1.78.3 3.5.2 2.36-.14 2.73-.14 2.77-.01s-1.58.32-3.88.44c-.9.05-1.98.13-2.39.19-2.98.43-6.84.53-8.03.22Zm-34-.55c-.15-.27-.27-.59-.27-.73 0-.13-.09-.51-.2-.84s-.23-.8-.27-1.04c-.09-.69.12-.55.27.17.17.81.29 1.05.3.58 0-.26.03-.31.1-.2.05.08.09.49.08.9-.02.55.03.84.16 1.08.28.54.12.6-.17.08Zm4.35-.5c-.51-.4-1.21-1.75-1.09-2.1.06-.19.59.83.64 1.24.03.22.11.4.17.4.13 0 .92.77.85.84-.02.02-.28-.15-.57-.38Zm-1.29-.08c-.06-.07-.17-.35-.26-.61a3 3 0 0 0-.48-.85c-.36-.41-.64-.99-.75-1.56-.1-.58.12-.37.31.29.16.52.67 1.35.84 1.35.18 0-.03-1.06-.3-1.55-.36-.62-.36-.55-.03.4.14.42.23.79.2.82-.14.15-.69-1.32-.57-1.55.04-.09.05-.26 0-.37-.1-.27-.11-.35 0-.35.05 0 .14.15.21.33.07.17.23.46.35.62.37.51.46.86.4 1.57-.03.45 0 .8.1 1.09.16.44.15.58-.02.37Zm42.37-.23c-.5-.16-1.09-.59-.97-.71.04-.04.29.03.55.16s.71.28 1.01.34c.66.14.81.36.24.35-.21 0-.58-.07-.83-.14Zm-40.35-.37c-.49-.35-.95-.81-.95-.95 0-.07-.04-.13-.08-.13-.13 0-.39-.67-.54-1.35-.09-.44-.21-.69-.46-.95l-.34-.35.22.33c.12.17.2.4.18.5-.02.11-.13-.01-.34-.38-.48-.85-.55-1.64-.08-.92.09.15.45.56.79.92.89.95 1.27 1.41 1.2 1.48-.03.03-.28-.16-.56-.44-.43-.41-.5-.45-.44-.24.1.37.39.74.61.79.1.02.27.12.37.22.1.11.4.3.67.44.41.21.72.45.57.45-.09 0-1.13-.5-1.37-.66s-.24-.16.02.07c.14.13.29.35.33.49.07.25.07.25-.26-.05l-.34-.3.29.32c.16.18.32.31.35.29.03-.01.22.13.41.31.4.37.23.45-.25.11Zm1.95-1.09c-.44-.23-.51-.23-.43-.03.05.14.03.15-.15.05-.31-.17-.36-.31-.1-.32.13 0 .17-.03.1-.06-.06-.02-.32-.3-.56-.61-.24-.32-.53-.67-.64-.78-.19-.2-.2-.34-.01-.34.04 0 .33.34.64.76.46.6.68.81 1.13 1.02.3.15.57.33.6.4.05.16-.16.14-.58-.09Zm-.38-.9c-.7-.62-1.21-1.32-1.03-1.44.06-.03.15.05.22.17.18.35.51.69.78.79.13.05.21.13.17.16-.03.04.13.26.36.5.63.64.3.52-.5-.18Zm-1.61-.48c-.38-.44-.77-.94-.86-1.11s-.2-.28-.24-.26c-.09.06-.36-.22-.74-.8-.15-.23-.49-.59-.75-.8-.59-.49-1.37-1.33-1.29-1.4.03-.03.28.17.57.46.28.28.55.48.61.45.05-.04.08-.02.07.03-.02.05.2.32.48.6.28.27.61.72.74.99.19.41.24.45.3.28.06-.14.01-.27-.15-.45-.25-.27-.6-1.21-.52-1.42.04-.13.11 0 .38.71.07.19.35.57.63.86s.56.66.63.84c.16.44.03.38-.32-.16-.16-.26-.36-.49-.44-.51-.15-.05.18.44.79 1.15 1.25 1.48 1.35 1.94.11.54Zm3.79.72c-.14-.03-.42-.21-.63-.41-.62-.59-.73-.94-.14-.44.15.14.17.13.17-.09.01-.24.01-.24.25.06.14.17.25.34.25.39 0 .14.33.35.57.36.12 0 .25.05.28.1.06.1-.27.11-.75.03Zm-1.38-.83c-.23-.21-.52-.61-.66-.87-.13-.26-.54-.84-.9-1.28-.62-.76-.84-1.13-.5-.84.13.11.14.09.09-.12-.12-.49-.21-1.6-.14-1.65.04-.02.12.19.18.47s.2.58.31.67c.11.1.23.33.26.52.05.35.05.35-.16-.1-.28-.56-.38-.35-.15.28.21.56.82 1.35.97 1.26.06-.04.08-.01.05.07-.06.18.34.9.85 1.52.48.57.36.62-.2.07Zm5.73-.62c.61-2.78.63-2.95.45-3.57-.14-.49-.03-.52.16-.05.24.58-.25 3.84-.57 3.84-.05 0-.07-.1-.04-.22Zm-6.87-.3c-.24-.24-.61-.63-.82-.88s-.33-.35-.27-.22c.17.32-.03.27-.24-.05-.09-.16-.46-.55-.82-.89-.57-.53-.66-.66-.7-1.02-.05-.48-.01-.5.35-.21l.27.22-.28-.07c-.4-.1-.23.2.63 1.04.45.44.61.56.49.36-.47-.77-.14-.55.56.37.3.4.73.93.96 1.2.54.6.46.7-.13.15Zm2.82.21c0-.06-.25-.41-.55-.77-.79-.95-1.39-2.52-.96-2.52.06 0 .11.16.11.35 0 .38.44 1.34.83 1.81.13.16.32.43.41.59.15.27.16.27.11.05-.09-.36-.27-.7-.35-.65-.09.05-.79-1.27-.74-1.41.03-.06-.02-.37-.11-.69-.17-.68-.2-1.29-.05-1.2.05.03.1.15.1.26 0 .36.5 1.7.85 2.3.19.32.38.74.44.94.06.21.26.52.48.72.36.32.28.37-.09.05-.16-.13-.18-.13-.18 0 0 .09-.07.18-.15.22-.08.03-.15.01-.15-.05Zm-1.07-.21c-.06-.07-.27-.43-.47-.8-.21-.38-.4-.68-.43-.68s.1.26.27.58c.28.48.29.54.1.37-.36-.32-.9-1.48-.6-1.3.13.08.14.11-.2-.8-.31-.84-.36-1.05-.21-1.05.04 0 .18.3.3.68.12.37.42 1.05.67 1.51.24.45.41.87.38.92s-.01.09.03.09c.05 0 .17.14.26.3.18.29.09.43-.1.18Zm2.5-.29c-.44-.92-.71-1.59-.63-1.59.05 0 .14.08.19.18.29.5.07-.37-.29-1.13-.41-.87-.51-1.02-.44-.62.05.22.05.22-.05 0-.1-.21-.04-.63.08-.63.04 0 .25.37.46.81.22.45.54.93.7 1.07.26.22.27.25.08.2-.2-.05-.22-.03-.16.19.04.18.02.24-.06.19-.16-.1-.14.02.09.7.22.62.24 1.05.03.63ZM8.3 20.5a1 1 0 0 1-.01-.23c.01-.04-.05-.2-.12-.35-.08-.15-.24-.72-.37-1.27-.12-.55-.24-1.08-.27-1.17-.08-.32.06-.19.22.19.22.52.67 2.59.62 2.81-.04.13-.05.13-.07.02Zm5.55-1.43c-.04-.13-.08-.17-.12-.09-.06.15-.39.16-.49 0-.05-.07-.02-.09.08-.06.36.14.43-.1.13-.42-.36-.37-.22-.4.17-.03s.41-.05.02-.44c-.3-.3-.27-.37.08-.21.2.1.28.23.33.56.05.34.12.45.33.55.36.15.35.14.27.27-.05.08-.15.04-.31-.11l-.24-.22v.21c0 .29-.16.28-.25-.01Zm19.62-1.47c-.46-.09-1.02-.57-.86-.76.14-.17 1.56-.54 2.08-.54.67 0 .45.23-.35.37-1.71.3-1.71.54-.01.68.57.05.77.1.77.21 0 .16-.92.18-1.63.04Zm-2.72-1.73c-.44-.1-.96-.23-1.15-.28-.62-.15-1.44-.78-1.26-.97.03-.02.27.09.54.26.29.2.82.39 1.37.52 1.28.3 1.55.4 1.55.56 0 .17-.03.17-1.05-.09Zm9.75-.47c0-.13.43-.34 1.26-.58 1.01-.31 1.72-1.11 2.17-2.44.09-.26.27-.22.27.05 0 .4-.56 1.41-1.06 1.93-.59.6-2.64 1.41-2.64 1.04Zm-8.66-1.01c-.23-.26-.97-.64-1.41-.74l-.33-.07v-.81c.01-.74.02-.8.15-.63.08.11.15.41.15.67v.47l.49.17c.6.2 1.41.88 1.25 1.04-.08.08-.16.06-.3-.1Zm4.38-.86c.11-.59 3.52-.74 3.98-.18.2.24.06.28-.44.11-.63-.22-1.64-.22-1.46-.01.07.08.08.15.02.15-.05 0-.15-.07-.22-.15-.17-.2-.46-.19-1.22.05s-.7.24-.66.03Z"/></svg>