<svg xmlns="http://www.w3.org/2000/svg" width="51" height="51" viewBox="0 0 51 51"><path fill="#fff" fill-rule="evenodd" stroke="#fff" stroke-width=".444" d="M21.65 43.17c-1.96-.5-3.04-2.07-3.05-4.46v-.54l-2.13 2.1c-2.66 2.62-2.93 2.78-4.57 2.78-2.26 0-3.75-1.49-3.75-3.75.01-1.59.19-1.88 2.87-4.57l2.21-2.21-1.24-.04c-1.5-.04-2.23-.32-3.03-1.18-1.33-1.42-1.4-3.72-.16-5.13.49-.55.49-.47-.05-1.19-1.24-1.66-1.1-3.84.34-5.21.93-.89 1.49-1.08 3.08-1.08h1.04l-.87-.92c-.48-.51-1.43-1.45-2.1-2.1-1.37-1.31-1.76-1.85-1.99-2.72-.78-3.02 1.86-5.57 4.86-4.69.87.26 1.13.46 3.37 2.68l2.12 2.1v-.49c.02-2.63 1.14-4.19 3.3-4.57 1.13-.19 2.62.26 3.35 1.02l.28.29.53-.44c2-1.62 4.95-1.03 6.05 1.2.29.59.45 1.52.49 2.85 0 .08.98-.83 2.17-2.02 2.67-2.65 2.79-2.73 4.48-2.73 2.93 0 4.61 2.63 3.43 5.36-.18.43-.68 1-2.45 2.84l-2.22 2.3 1.23.05c1.12.05 1.27.08 1.88.38 2.26 1.11 2.84 3.98 1.21 5.98l-.44.55.45.5c1.49 1.66 1.11 4.49-.78 5.75-.76.5-1.31.64-2.55.64h-1.05l2.22 2.23c2.4 2.42 2.62 2.72 2.8 3.92.38 2.42-1.3 4.4-3.73 4.4-1.62 0-1.9-.17-4.57-2.82l-2.18-2.17v.96c0 .68-.06 1.14-.2 1.59-.83 2.65-4.27 3.54-6.33 1.65l-.38-.35-.54.43c-.94.77-2.32 1.1-3.4.83Zm2.46-.5c.31-.15.75-.45.99-.67.53-.49.42-.5 1.06.09 1.48 1.35 3.77 1.22 5.17-.29.73-.78.88-1.23.94-2.82.03-.71.08-1.28.11-1.28s1.07 1 2.31 2.23c2.78 2.73 3.42 3.11 4.96 2.92 1.89-.24 3.1-1.64 3.1-3.6 0-1.56-.1-1.72-2.87-4.49-1.26-1.26-2.25-2.33-2.21-2.37s.64-.09 1.33-.11c1.1-.03 1.32-.07 1.82-.3 2.34-1.09 2.92-4.03 1.17-5.93-.48-.52-.48-.48.07-1.07 1.43-1.53 1.22-4.1-.44-5.33-.72-.53-1.54-.75-2.82-.75-.66 0-1.11-.04-1.15-.11-.04-.05.94-1.12 2.17-2.37s2.34-2.43 2.45-2.62c1.62-2.75-.6-5.99-3.71-5.41-1.1.2-1.37.41-3.79 2.8-1.25 1.24-2.32 2.27-2.37 2.29-.06.02-.1-.37-.1-1-.01-2.83-1.21-4.23-3.65-4.23-1.3 0-1.75.16-2.55.91l-.5.47-.46-.43c-1.43-1.31-3.75-1.34-5.12-.06-.82.77-1.05 1.37-1.1 2.91-.02.72-.07 1.34-.12 1.38-.04.05-1.08-.93-2.31-2.16-1.63-1.64-2.38-2.32-2.74-2.5-2.82-1.39-5.83.7-5.34 3.71.17 1.12.4 1.42 2.89 3.89 1.27 1.25 2.3 2.34 2.3 2.41 0 .09-.3.12-1.18.12-.8 0-1.36.05-1.72.16-2.6.77-3.41 4.03-1.52 6.06l.44.48-.45.5c-1.75 1.94-1.2 4.79 1.13 5.89.49.22.71.26 1.93.29.87.03 1.37.08 1.37.15 0 .06-1.03 1.12-2.3 2.36-2.8 2.75-2.85 2.84-2.85 4.56 0 2.14 1.35 3.5 3.45 3.49 1.53-.01 1.67-.1 4.43-2.82 1.41-1.4 2.41-2.32 2.46-2.26.05.05.11.65.13 1.34.04 1.37.18 1.85.77 2.59.98 1.24 2.99 1.68 4.42.98Zm-1.37-5.76c-.23-.1-.54-.36-.7-.57l-.29-.37-.03-2-.04-1.99-2.31 2.29c-2.48 2.46-2.73 2.65-3.48 2.65-1.32-.01-2.03-1.25-1.42-2.47.08-.16 1.21-1.37 2.51-2.67l2.35-2.37-2.1-.03-2.1-.03-.37-.29c-.98-.74-.85-2.26.23-2.83.52-.27 4.88-.37 4.95-.11.02.07.08.39.14.7.38 2.01 2.27 3.86 4.4 4.29.78.16.75.04.7 2.61-.04 2.23-.08 2.41-.68 2.91-.55.47-1.14.56-1.76.28Zm4.49.08c-1-.3-1.23-.98-1.23-3.62 0-2.18-.04-2.06.8-2.27 2.14-.51 3.75-2.16 4.29-4.39l.16-.66h4.72l.37.29c.81.62.96 1.71.34 2.42-.54.61-.66.64-2.89.64h-2.01l2.37 2.38c2.67 2.66 2.75 2.76 2.75 3.48 0 1.19-1.21 1.97-2.37 1.53-.15-.05-1.34-1.16-2.64-2.46l-2.37-2.35-.04 1.88c-.03 1.79-.04 1.91-.28 2.32-.4.71-1.21 1.04-1.97.81Zm-3.02-.42c.63-.42.69-.66.69-3.02v-2.11l-.57-.12c-2.11-.44-3.95-2.21-4.44-4.27-.06-.27-.13-.56-.15-.63-.03-.1-.51-.12-2.33-.1-2.29.03-2.29.03-2.56.28-.65.6-.72 1.45-.19 2.02.5.53.74.58 2.93.58 1.23 0 2.02.04 2.06.1.03.06-1.03 1.19-2.36 2.53-1.33 1.33-2.5 2.56-2.6 2.72-.5.79-.02 1.93.89 2.11.81.16.89.1 3.65-2.64 2.05-2.04 2.6-2.54 2.68-2.42.05.09.08.99.07 2.15-.01 1.69.01 2.05.15 2.31.37.72 1.4.97 2.08.51Zm4.45-.08c.51-.48.54-.63.54-2.83 0-1.13.04-2.07.08-2.1.04-.02 1.17 1.03 2.5 2.35 1.34 1.32 2.57 2.49 2.75 2.59 1.16.71 2.58-.56 2.03-1.83-.08-.18-1.25-1.42-2.6-2.77s-2.46-2.51-2.46-2.57c0-.1.48-.13 2.08-.13 2.32 0 2.56-.06 3-.7.44-.65.21-1.7-.47-2.05-.48-.24-4.71-.22-4.71.03 0 .09-.13.54-.29.99-.65 1.87-2.23 3.35-4.11 3.84l-.65.17v4.53l.43.41c.54.5 1.39.53 1.88.07Zm-4.25-6.25a4.82 4.82 0 0 1-2.53-7.7c1.43-1.81 4.27-2.29 6.21-1.05 1.14.74 2.11 2.17 2.14 3.18l.02.48h-2.07l-.19-.51c-1-2.67-4.94-1.94-4.94.91 0 2.89 3.71 3.69 4.89 1.06l.27-.61h2.09v.28c0 .45-.35 1.36-.75 1.97-1.13 1.7-3.22 2.51-5.14 1.99Zm2.66-.35c1.39-.45 2.63-1.84 2.97-3.31l.06-.28h-1.78l-.12.34c-.06.19-.29.55-.51.8-1.74 1.98-4.95.78-4.93-1.85.03-3.09 4.25-3.96 5.41-1.12l.18.43h1.77l-.06-.25c-.91-3.62-5.08-4.84-7.67-2.26-3.41 3.42.07 8.99 4.68 7.5Zm-11.8-4.83c-1.25-.45-1.57-1.98-.61-2.88.47-.43.74-.48 2.7-.48 1.01 0 1.84-.03 1.84-.08 0-.04-1.04-1.1-2.31-2.37-2.3-2.29-2.69-2.78-2.69-3.34 0-.88.82-1.71 1.7-1.71.66 0 1.03.29 3.43 2.68l2.37 2.36V17.5c0-1.91.07-2.33.47-2.81.73-.87 2.1-.73 2.68.26.29.48.45 3.01.28 4.34l-.08.64-.7.17c-2.18.52-3.59 1.89-4.25 4.15l-.26.9-2.1.02c-1.57.02-2.19-.01-2.47-.11Zm16 .06c-.03-.04-.1-.34-.17-.67-.43-2.14-2.22-3.95-4.35-4.38l-.7-.14v-2.24c0-2.12.01-2.26.22-2.66.74-1.37 2.71-1.16 3.12.34.06.21.11 1.17.11 2.13v1.75l2.38-2.37c1.3-1.3 2.51-2.43 2.69-2.52.89-.45 2.1.15 2.32 1.15.2.94.08 1.1-3.33 4.57l-1.61 1.62h1.85c1.73 0 1.89.02 2.3.23 1.43.72 1.22 2.76-.33 3.16-.51.12-4.43.16-4.5.03Zm-11.51-.5c.33-1.47.7-2.19 1.64-3.12.94-.94 1.87-1.44 3.23-1.74l.28-.07-.03-2.19c-.03-2.4-.04-2.44-.71-2.94-.38-.28-1.13-.27-1.55.03-.61.43-.66.64-.7 2.98-.02 1.17-.07 2.13-.11 2.13-.03 0-1.16-1.11-2.51-2.46-2.61-2.62-2.77-2.74-3.4-2.74-.99 0-1.64.81-1.39 1.74.09.34.52.82 2.61 2.93 1.77 1.77 2.49 2.56 2.45 2.67-.06.14-.33.16-2.09.13-1.77-.02-2.07 0-2.35.15-1.01.56-1.08 1.91-.13 2.56.32.21.41.22 2.51.22h2.19zm16.32.08c.81-.5.98-1.54.35-2.2-.51-.54-.99-.62-3.15-.53-1.61.06-1.68.05-1.68-.13 0-.12.88-1.07 2.26-2.44 2.39-2.38 2.84-2.93 2.84-3.47 0-1.01-.87-1.68-1.84-1.42-.35.09-.81.51-2.94 2.66-1.39 1.4-2.56 2.52-2.6 2.48-.03-.03-.07-.98-.08-2.1-.01-2.29-.1-2.62-.74-2.99-.7-.41-1.47-.2-1.98.54-.22.33-.22.39-.2 2.48l.03 2.14.71.18c2.1.54 3.83 2.33 4.26 4.42l.12.58h2.16c1.97 0 2.18-.02 2.48-.2Z"/></svg>