<svg xmlns="http://www.w3.org/2000/svg" width="51" height="51" viewBox="0 0 51 51"><path fill="#fff" fill-rule="evenodd" stroke="#fff" stroke-width=".8" d="M20.95 39.16c-1.46-.37-2.48-1.45-2.75-2.88-.17-.87-.13-15.83.04-15.97.09-.08 1.13-.11 3.62-.09l3.49.03.03 3.27.02 3.26 3.22-3.29 3.21-3.29h5.04c4.9 0 5.03 0 5.03.19 0 .37-17.94 18.26-18.6 18.56-.68.3-1.67.39-2.35.21Zm-9.22-.24c-1.08-.39-1.7-.99-2.15-2.11l-.23-.56v-24.2l3.52-.03L16.4 12l.05.22c.03.13.04 5.52.03 11.98l-.03 11.75-.23.63c-.41 1.15-1.01 1.85-1.91 2.25-.65.29-1.89.33-2.58.09Zm11.18-.08c.53-.15.78-.4 9.61-9.22 5-4.99 9.08-9.11 9.08-9.16s-1.99-.07-4.85-.04l-4.85.05-2.88 2.94c-1.59 1.62-3.05 3.13-3.26 3.37-.21.23-.42.42-.47.42s-.09-1.47-.09-3.34v-3.33l-.61-.07c-.8-.08-4.44-.08-5.42 0l-.77.07v7.82c0 8.62-.01 8.43.63 9.26.92 1.21 2.38 1.67 3.88 1.23Zm-8.65-.28c.92-.42 1.59-1.31 1.83-2.44.08-.38.11-3.95.11-12.22V12.2H9.6l.02 12.08.03 12.07.23.56c.66 1.64 2.7 2.4 4.38 1.65Z"/></svg>