<svg xmlns="http://www.w3.org/2000/svg" width="51" height="51" viewBox="0 0 51 51"><path fill="#fff" fill-rule="evenodd" stroke="#fff" stroke-width=".441" d="M21.68 40.23c-.27-.04-.28-.06-.28-.69v-.64l-6.92-.02-6.93-.03.02-11.7c.01-6.43.02-11.74.03-11.78 0-.04.26-.07.58-.05l.57.03.03 11.17.02 11.18 6.88.02 6.87.03.03.69c.03.65.04.68.25.62.12-.03 1.47-.06 3-.06h2.77v-1.3h13.8V15.3h.59c.39 0 .6.04.62.13.02.06.03 5.37.01 11.8l-.03 11.67H29.8v.59c0 .35-.05.63-.12.69-.13.1-7.41.15-8 .05Zm7.84-.85.03-.63 6.93-.03 6.92-.02V15.49l-.37.03-.38.03-.03 11.18-.02 11.17H28.8v1.4l-3.22-.02-3.23-.03-.03-.67-.03-.68h-6.84c-5.41 0-6.85-.03-6.86-.13 0-.06 0-5.1.01-11.19l.01-11.08H7.8l-.02 11.2c-.01 6.16-.02 11.37-.03 11.57v.38l6.93.03 6.92.02V40h7.89zM9.6 25.3V13.69l.24-.22c1.83-1.7 6.2-2.88 9.19-2.48 1.77.24 4.34 1.26 5.7 2.26l.47.35v11.65c0 6.41-.04 11.65-.08 11.65-.05 0-.6-.27-1.23-.6-4.26-2.21-8.63-2.16-13.22.16-.49.24-.93.44-.98.44s-.09-4.5-.09-11.6Zm16.4-.1V13.51l.58-.4c4.3-2.92 9.74-2.92 14.15-.01l.77.51v11.65c0 6.4-.02 11.64-.05 11.64s-.54-.24-1.14-.54c-4.43-2.22-8.83-2.24-12.99-.05-.63.32-1.18.59-1.23.59S26 32.23 26 25.2ZM12.74 35.32c3.89-1.39 7.97-1.07 11.54.9l.72.4-.01-11.47-.01-11.47-.66-.43c-3.73-2.4-7.85-2.77-11.8-1.07-.9.39-2.3 1.2-2.49 1.44-.1.13-.26 22.59-.16 22.84.02.07.37-.05.88-.31.47-.24 1.36-.61 1.99-.83Zm14.61.72c4.27-2.19 9.22-2.09 13.41.27l.54.31V25.33c0-8.82-.03-11.33-.13-11.53-.28-.56-2.88-1.87-4.52-2.29-3.35-.84-6.71-.25-9.82 1.71l-.63.4v11.5c0 6.32.03 11.48.07 11.46.05-.02.53-.26 1.08-.54Zm8-8.37c-.57-.19-2.06-.26-3.3-.15-.19.02-.3-.02-.29-.09s.02-1.72.03-3.67c.01-4.09-.14-3.65 1.27-3.73.86-.05 1.73.04 2.56.27.37.11.38.13.38.55 0 .51-.02.52-.75.3-.27-.09-.92-.18-1.42-.22l-.93-.06v2.1l.78.07c.42.03 1 .12 1.27.19l.5.13v.45c-.01.49.06.47-1 .29-.33-.05-.81-.1-1.07-.1h-.48v2.5h.7c.72 0 2.09.24 2.43.42.14.07.17.19.15.5-.04.5-.07.51-.83.25ZM17 27.53c-1.2-.16-1.88-.44-2.44-1-1.31-1.29-.51-3.53 1.27-3.53 1.88 0 1.76 2.88-.12 3.02-.39.03-.39.04.07.27.96.49 2.54.49 3.61-.01l.46-.21-.46-.08c-.92-.14-1.39-.7-1.39-1.62 0-.9.77-1.58 1.63-1.44.28.05.27.03-.13-.16-.35-.16-.65-.21-1.38-.22l-.92-.01-.75-.74-.75-.74.27-.28c.33-.34.27-.36 1.02.35l.61.57 1.01-.95c1.09-1.03 1.15-1.06 1.47-.72.31.33.3.35-.48 1.02-.74.64-.81.75-.5.75 1.3 0 2.54 2.19 2.1 3.74-.36 1.3-2.36 2.25-4.2 1.99Zm18.86-.4c-.15-.15-1.22-.35-2.13-.4l-1.03-.06v-2.9l1.03.06c.56.03 1.12.09 1.25.12.19.06.22.04.22-.18 0-.31-.59-.47-1.76-.47h-.75l.03-1.27.03-1.28.74-.03c.65-.03 1.15.04 1.98.24.19.05.23.02.23-.19 0-.24-.05-.26-.96-.42-.91-.17-2.37-.16-2.65 0-.05.04-.09 1.46-.09 3.55v3.48l.43-.1c.54-.13 2.39-.03 2.97.15.43.14.45.13.48-.05.02-.11.01-.22-.02-.25Zm-17.02.06c1.59-.32 2.43-1.44 2.17-2.9-.23-1.29-.93-2.07-2.05-2.28-.61-.11-.65-.16-.3-.43.88-.67 1.39-1.27 1.24-1.42-.14-.14-.26-.05-1.17.79-1.19 1.12-1.13 1.1-1.83.4-.56-.56-.74-.65-.83-.41-.03.08.21.39.58.76l.63.62.93.01c.79.02 1.02.06 1.43.27.81.41.91.78.17.61-.9-.2-1.61.32-1.61 1.16 0 .87.6 1.43 1.54 1.43.52 0 .56.07.22.39-.89.84-3.42.92-4.58.15-.54-.35-.5-.54.1-.54 1.11 0 1.85-1.08 1.37-2-.59-1.14-2.45-.53-2.71.88-.34 1.8 2 3.05 4.7 2.51Zm-4.03-1.95c-.69-.87.56-2.12 1.43-1.43.39.3.37.99-.03 1.4-.41.4-1.1.42-1.4.03Zm4.13-.08c-.93-.93.21-2.13 1.19-1.26.39.34.5.69.35 1.12-.21.6-1.01.67-1.54.14Zm-2.89-.11c.47-.47.24-1.25-.37-1.25-.39 0-.88.48-.88.86 0 .63.77.87 1.25.39Zm4.09.09c.42-.41-.06-1.34-.7-1.34-.5 0-.83.7-.51 1.11.3.39.93.51 1.21.23ZM1.2 14.85c.63-.63 1.17-1.15 1.2-1.15.02 0-.47.52-1.1 1.15S.13 16 .1 16c-.02 0 .47-.52 1.1-1.15Zm5.2-5.28C7.36 8.6 8.16 7.8 8.18 7.8c.09 0-1.33 1.47-2.38 2.45-.82.77-.64.57.6-.68Zm-2.69.64c-.21-.2-.31-.38-.31-.59 0-.91 1.22-1.15 1.65-.32.44.86-.62 1.58-1.34.91Zm.93-.17c.33-.32.07-.94-.4-.94-.53 0-.7.56-.28.89.32.25.47.26.68.05Zm.23-1.59c-.88-.98-.87-.94-.48-1.23.34-.25.53-.12.27.17s.03.48.38.26c.32-.21.32-.28.04-.65l-.21-.29.24-.2c.35-.29.6-.16.29.15-.07.07-.04.16.1.29.11.1.2.13.2.07 0-.07.09-.12.2-.12.24 0 .26.16.03.28-.14.08-.1.16.3.59.26.28.47.55.47.62 0 .24-.3.09-.68-.36l-.4-.46-.31.26-.31.25.45.5c.25.28.45.55.45.61 0 .28-.33.04-1.03-.74Zm-2.75-.88c-.51-.52-.64-.77-.39-.77.06 0 .19-.15.27-.33.09-.18.24-.33.36-.35s.27-.16.35-.35c.26-.59.65-.48 1.31.36.48.6.2.65-.37.07-.58-.59-.61-.6-.7-.2-.05.25-.01.37.29.72.2.23.36.45.36.49 0 .23-.22.13-.65-.31-.59-.6-.62-.6-.71-.14-.06.32-.03.4.3.73.2.2.36.42.36.49 0 .25-.27.1-.78-.41Zm4.31-.62C5.56 6 5.5 5.9 5.77 5.9c.18 0 1.63 1.5 1.63 1.69 0 .3-.26.13-.97-.64Zm4.32-1.67c1.16-1.13 2.14-2.1 2.2-2.14.06-.05-.71.74-1.7 1.75-.99 1-1.98 1.97-2.2 2.14-.21.18.55-.61 1.7-1.75ZM7.25 6.5c-.49-.49-.56-.6-.41-.66.18-.07 1.15.88 1.16 1.14 0 .22-.15.13-.75-.48Zm.71-.59c-.48-.48-.71-.98-.36-.76.04.02.13-.09.2-.26.15-.35.43-.53.7-.44.24.08 1 .98 1 1.19 0 .27-.15.18-.59-.35-.47-.55-.69-.59-.84-.16-.08.26-.05.33.27.66.33.34.48.71.28.71-.04 0-.34-.27-.66-.59Zm-3.81-.32c-.72-.64-.18-1.63.66-1.19.26.15.24.42-.06.7-.29.28-.31.36-.08.44.11.04.28-.04.5-.26.26-.26.35-.29.46-.19.1.1.05.19-.25.47-.47.42-.77.43-1.23.03Zm2.25-.58c0-.1.1-.25.22-.33.15-.1.19-.2.15-.32-.07-.17-.09-.16-.27.07-.28.35-.53.38-.94.11-.64-.44-.73-.88-.26-1.27.16-.14.3-.3.3-.36 0-.24.3-.08.77.42.81.85.88 1 .67 1.36-.23.38-.64.59-.64.32Zm2.81-.3c-.54-.5-.33-1.31.33-1.31s.79.47.27.94c-.11.1-.18.23-.15.27.11.18.43.08.67-.21.28-.33.47-.39.47-.14 0 .64-1.06.95-1.59.45Zm-2.96-.55c.28-.43-.17-.99-.6-.76-.36.19-.39.4-.08.72.33.34.48.35.68.04Zm3.55-.4c0-.03-.08-.06-.19-.06-.26 0-.44.25-.36.49.06.2.08.2.31-.08.13-.16.24-.32.24-.35ZM7 3.31c-.14-.28-.12-.64.05-.87.2-.26.19-.34-.05-.34-.12 0-.25.1-.32.25-.12.26-.28.29-.36.07-.05-.16.52-.72.74-.72.09 0 .34.18.56.41.21.22.43.37.48.34.27-.17.29.1.03.36-.15.16-.36.38-.45.49-.23.25-.54.26-.68.01Z"/></svg>