<svg xmlns="http://www.w3.org/2000/svg" width="51" height="51" viewBox="0 0 51 51"><path fill="#fff" fill-rule="evenodd" stroke="#fff" stroke-width=".473" d="M34.25 36.94c-2.83-.46-4.35-2.08-4.35-4.62.01-3.79 2.8-5.63 9.08-5.98l1.22-.07v-.81c0-1.37-.3-2.02-1.15-2.48-1.28-.69-4.07-.74-6.93-.12-1.52.32-1.42.35-1.41-.33 0-.62.22-2.09.31-2.19.33-.33 3.41-.76 5.48-.76 4.15-.01 6.04 1.05 6.77 3.82.2.77.22 2.34.09 6.45-.07 2.29-.06 2.9.09 4.05.09.74.19 1.63.22 1.96l.06.62-1.24.07c-1.86.11-1.81.12-1.97-.62l-.14-.63-.41.29c-1.44.98-4.09 1.61-5.72 1.35Zm3.38-.58c.99-.3 1.59-.58 2.32-1.1.64-.46.62-.46.75.22.06.31.13.64.16.73.04.15 2.04.18 2.5.04.08-.02.05-.44-.08-1.42-.23-1.61-.28-4.32-.14-7.98.16-4.57-.59-5.95-3.7-6.75-1.83-.48-5.67-.32-7.86.32-.31.09-.39.17-.43.42-.08.42-.23 1.9-.19 1.94.01.02.6-.09 1.31-.23 1.7-.36 4.6-.47 5.75-.21 1.85.42 2.52 1.32 2.46 3.32l-.03.89-1.4.06c-5.56.25-8.19 1.66-8.82 4.75-.54 2.62.98 4.74 3.77 5.28.71.13 2.77-.02 3.63-.28Zm-30.1.17c-.41-.16-.11-.94 4.62-12.08 2.12-5 3.2-7.67 3.65-9.05l.38-1.15h2.07c1.75 0 2.09.02 2.16.15.04.08.21.58.37 1.1.35 1.12 1.5 4.05 3.27 8.3 3.28 7.89 4.7 11.7 4.63 12.42l-.03.33-1.84.03c-2.1.03-2.04.05-2.21-.81-.17-.9-.91-3.41-1.46-4.94l-.46-1.33H13.3l-.15.36c-.24.58-1.32 4.08-1.67 5.44l-.33 1.25-1.75.02c-.96.01-1.81-.01-1.87-.04Zm3.67-1.2c.27-1.15 1.54-5.2 1.78-5.72l.17-.36 4.82-.03c4.52-.02 4.83-.01 4.92.15.35.67 1.67 4.94 2.05 6.65l.06.28h3.5l-.06-.32c-.18-.99-1.65-4.83-4.26-11.18-2.41-5.83-3.37-8.26-3.73-9.42l-.27-.88h-3.83l-.28.93c-.35 1.12-1.59 4.2-3.87 9.57-3.39 7.99-4.6 10.96-4.6 11.26 0 .02.76.04 1.68.04h1.68zm23.57-1.04c-1.52-.36-2.19-1.59-1.71-3.18.45-1.53 2.26-2.38 5.55-2.61 2.11-.15 1.89-.41 1.89 2.3v2.28l-.51.32c-1.37.84-3.72 1.24-5.22.89Zm3.18-.35c.38-.07 1.03-.31 1.45-.52l.75-.38.03-2.19.02-2.18-1.22.06c-4.05.21-5.87 1.29-5.76 3.4.08 1.78 1.76 2.42 4.73 1.81Zm-24.01-6.98c-.03-.07.17-.67.45-1.33 1.07-2.58 2.46-6.12 3.37-8.61.22-.58.31-.51.63.48.16.47 1.03 2.77 1.95 5.12s1.64 4.32 1.61 4.38c-.11.17-7.94.13-8.01-.04Zm7.67-.38c-.05-.13-.75-1.92-1.56-3.98s-1.59-4.1-1.74-4.52c-.3-.89-.32-.91-.5-.4-.3.84-2.29 5.88-2.92 7.41-.38.9-.69 1.66-.69 1.68 0 .01 1.69.03 3.75.03h3.75z"/></svg>