<svg xmlns="http://www.w3.org/2000/svg" width="51" height="51" viewBox="0 0 51 51"><path fill="#fff" fill-rule="evenodd" stroke="#fff" stroke-width=".335" d="M19.86 50.68c-.13-.29-.64-1.43-1.13-2.53-1.11-2.44-3.47-7.8-5.35-12.1-.77-1.76-1.87-4.28-2.45-5.6s-1.41-3.21-1.83-4.2c-.95-2.21-2.58-5.91-4.18-9.5C1.44 8.93 1.5 9.18 2.71 6.92 3.55 5.35 3.94 5.09 6.2 4.6c7.77-1.69 15.28-3.11 16.1-3.06 1.56.09 2.77.71 3.55 1.8.66.93 20.52 40.81 20.87 41.89.62 1.98-.3 3.85-2.2 4.48-.37.12-1.41.51-2.32.86-1.11.43-1.75.63-1.97.61-.27-.02.02-.17 1.59-.77 4.13-1.58 4.64-2.03 4.62-4.13l-.01-.78-6.05-12.17C24.07.55 25.41 3.11 24.31 2.56c-1.86-.93-1.15-1.01-14.13 1.65-6.48 1.33-6.52 1.34-6.92 2.7-.35 1.17-.47.83 2.76 8.09 2.8 6.27 4.41 9.94 7.53 17.05 1.99 4.55 4.19 9.51 6.95 15.69 1.36 3.05 1.61 3.71 1.3 3.4-.16-.16-4.23-9.27-8.31-18.56-2.81-6.43-6.14-13.95-8.67-19.63-1.73-3.88-2.01-4.61-2.03-5.24l-.01-.36-.19.42c-.54 1.19-.47 2 .37 3.89.31.71 1.25 2.84 2.09 4.74 1.74 3.93 3.49 7.92 6.25 14.25 3.88 8.89 7.17 16.35 8.48 19.23.43.94.57 1.32.46 1.32-.08 0-.25-.24-.38-.52Zm2.7.15c-.2-.42-3.47-7.75-5.81-13.03-.84-1.9-1.85-4.17-2.25-5.05-.39-.88-1.58-3.56-2.65-5.95-2.4-5.4-5.11-11.45-6.84-15.22-1.67-3.67-1.76-4.11-1.04-5.06.48-.63.63-.67 13.28-3.22 7.5-1.51 7.15-1.65 10.04 4.22.98 2 3.48 7.09 5.56 11.33 2.07 4.24 5.89 11.97 8.48 17.19l4.72 9.49-.01.66c-.01 1.66-.56 2.18-3.52 3.34-3.8 1.5-4.31 1.68-4.59 1.65-.22-.02-.04-.13.82-.46 3.12-1.22 5.42-2.17 5.6-2.3.13-.1.15-.13.04-.09-8.62 2.88-9.49 3.14-9.49 2.78 0-.12-.54-1.3-3.32-7.3-2.57-5.53-2.44-5.26-2.53-5.12-.51.83-4.09 1.39-5.48.86-.13-.06-.39.24-1.03 1.14-.07.09-.14.72-.17 1.41l-.06 1.25.29-.53c1.05-1.93 4.31-2.06 5.91-.23.5.56.49.67-.06.91-1.9.81-3.99.96-5.3.37-.81-.37-.89-.26-1.23 1.54l-.09.47.34-.2c.48-.29 1.45-.35 2.19-.13 1.22.35 2.7 2.54 1.92 2.84-1.35.5-3.64 0-4.31-.95-.36-.52-.43-.54-.52-.15-.05.23.1.64.7 1.98.42.92.79 1.74.82 1.81.14.31-.25.08-.41-.25Zm25.54-1.04v-1.41l-.57.52c-.9.8-2.47 1.79-2.61 1.65-.08-.08.05-.18 1.1-.86.95-.61 1.78-1.36 2.03-1.83.11-.2.23-.36.27-.36.1 0 .1 1.73.01 2.88-.1 1.29-.23.96-.23-.59Zm-11.4.82c.74-.26 2.88-.99 4.75-1.61 5.44-1.8 5.35-1.39 1.94-8.2-3.66-7.32-10.59-21.39-15.65-31.75-1.24-2.54-2.42-4.83-2.62-5.1-.72-.95-1.82-1.43-2.96-1.3-.67.07-2.47.43-2.54.5-.02.02 1.09 2.31 2.49 5.09l2.52 5.04-.33.33c-.32.32-.32.33-.11.43.11.05.21.17.21.26 0 .1.07.23.14.3.23.18.41.81.27.9-.08.05-.03.13.14.24.19.13.25.24.21.38-.03.15.03.27.2.41.63.49.15.79-.8.48-.6-.19-.67-.2-1.01-.05-.46.19-.88.11-1.14-.22a.59.59 0 0 0-.49-.24c-.53 0-.54-.43-.02-.55.32-.07.51-.25.26-.25-.16 0-.56-.59-.56-.83 0-.16.04-.18.76-.36.3-.08.41-.16.4-.29s.08-.18.43-.2c.39-.03.79-.29.81-.53 0-.03-.61-.12-1.35-.2-.75-.08-1.35-.18-1.35-.24 0-.12.8-.12 2.03 0 .48.04.87.05.87.02 0-.13-4.92-9.87-4.99-9.87-.12 0-5.55 1.1-5.68 1.15-.14.05-.26-.23 2.22 5.05.92 1.95 2.63 5.62 3.8 8.15 2.39 5.17 4.46 9.58 4.51 9.64.01.02.28-.07.59-.2.76-.31.78-.28.67 1.27l-.09 1.29.67 1.44.66 1.43 1.09-.01c1.65-.02 1.74.22.54 1.42l-.7.71.59 1.24.59 1.25.64.26c.76.33.81.43.39.86l-.32.33.32.69c.56 1.17 3.72 7.98 4.65 10.01.49 1.05.91 1.92.95 1.92.03 0 .66-.22 1.4-.49Zm-31.63-.63c-1.96-1.19-3.29-2.63-4.3-4.68l-.62-1.26.03 3.18c.03 2.24 0 3.18-.07 3.18-.08 0-.11-1.09-.11-3.65 0-3.71.04-4.07.35-3.13.81 2.52 2.44 4.62 4.68 6 1.28.8 1.38.87 1.12.88-.11 0-.59-.24-1.08-.52Zm30.01-1.75c-.27-.31-.98-2.04-.98-2.39 0-.58 1.83-1.35 2.55-1.07.2.07 1.25 2.17 1.25 2.49 0 .64-2.39 1.46-2.82.97Zm-9.5 0c.65-.07.71-.18.41-.8-.35-.72-1.14-1.47-1.71-1.61-1.14-.29-2.48.09-2.48.71 0 .02.42.07.93.1 1.07.06 1.67.22 1.67.42 0 .18-.01.18-.71.06-1.66-.28-1.87-.24-1.44.27.57.67 1.93 1.02 3.33.85Zm11.12-.41c1.01-.34 1.02-.37.6-1.4-.66-1.58-.75-1.63-2.09-1.14-1.01.38-1.02.39-.51 1.58.61 1.45.59 1.43 2 .96Zm1.9-.82c-.28-.28-1.1-2.07-1.1-2.4 0-.36.1-.43 1.09-.79 1.45-.54 1.56-.49 2.31 1.14.65 1.4.62 1.45-.88 1.96-1.02.34-1.16.35-1.42.09Zm-2.92-.06c-.47-.25-.66-.84-.28-.84.13 0 .2.07.2.2 0 .25.35.43.74.37.38-.05.56 0 .56.18 0 .28-.77.34-1.22.09Zm4.39-.35c1.12-.37 1.12-.37.49-1.72-.56-1.22-.59-1.23-1.72-.85-1.28.44-1.26.4-.74 1.5.75 1.6.62 1.52 1.97 1.07Zm-18.97-.95c.47-1.55.2-2.36-1.3-3.84-.53-.52-1.14-1.18-1.35-1.45-.7-.91-.71-.95.35 1.4.39.88 1.01 2.26 1.37 3.08.36.81.67 1.47.69 1.47s.12-.3.24-.66Zm17.91-.09c-.5-.54-.49-.65.08-.84.7-.22 1.3.24.95.74-.08.11-.17.28-.21.38-.09.29-.38.19-.82-.28Zm3.02.23c-.31-.33-1.13-2.07-1.13-2.38 0-.37.1-.44 1.2-.81 1.35-.46 1.4-.44 2.08.9.81 1.6.77 1.74-.64 2.21-1.05.36-1.24.37-1.51.08Zm1.51-.38c1.1-.41 1.1-.41.4-1.84-.55-1.13-.61-1.14-2.17-.56-.7.26-.71.33-.17 1.48.65 1.38.68 1.39 1.94.92Zm6.31-.17c.13-.33.55-1.68.65-2.11.14-.56.35-.56.26 0-.13.77-.67 2.28-.83 2.28-.1 0-.13-.06-.08-.17Zm-7.32-.38c-.3-.21-.48-.78-.33-1.05.11-.21.29-.26.46-.12.05.04.08.05.07.03-.02-.02.02-.1.08-.17.23-.28.89.27.89.74 0 .51-.75.88-1.17.57Zm-9.22-.29c-.22-.26-1.01-2.11-1.01-2.35 0-.58 2.01-1.42 2.55-1.07.58.38 1.37 2.55 1.03 2.83-.54.46-2.35.86-2.57.59Zm1.55-.45c1-.36 1.04-.51.46-1.73-.51-1.1-.57-1.14-1.26-.94-1.65.48-1.69.56-1.02 2 .53 1.13.54 1.13 1.82.67Zm-12.98-.42c.17-.73-.23-1.39-.85-1.39-.29 0-.29-.01.11.6.19.29.38.7.41.91.09.53.19.49.33-.12Zm5.26-.04c.48-.14 1.02-.33 1.19-.42l.31-.16-.52-.48c-1.31-1.2-3.56-1.34-4.75-.29-.47.42-.69.85-.39.76 1.23-.35 2.91-.51 2.99-.29.03.07-.09.14-.29.17-.18.03-.68.1-1.11.16-.43.07-.97.17-1.2.25l-.42.12.38.17c.95.42 2.4.42 3.81.01Zm6.7-.03c-.48-.31-.54-.8-.17-1.31.02-.03.1.04.19.15.14.18.15.18.1.01-.09-.28.02-.39.27-.25.12.07.29.12.37.13.17 0 .54.71.44.86-.06.11-.48.3-.89.43-.11.03-.25.02-.31-.02Zm3-.34c-.28-.31-1.04-1.98-1.04-2.3 0-.34.23-.51 1.08-.82 1.35-.48 1.47-.42 2.17 1.07.67 1.44.66 1.48-.55 1.9-1.16.4-1.41.43-1.66.15Zm1.67-.45c.85-.31.85-.34.21-1.63-.56-1.13-.66-1.17-1.82-.73-.94.36-.97.49-.39 1.65.63 1.26.58 1.24 2 .71Zm-1.11-.38c0-.08 0-.18.01-.22 0-.04-.09-.11-.21-.15-.15-.06-.21-.14-.17-.27.02-.1 0-.26-.05-.35-.08-.14-.05-.19.11-.23.12-.03.21-.09.21-.13s.16-.08.35-.08c.23 0 .35.05.35.14 0 .08.06.14.14.14.19 0 .23.07.31.51.07.37-.25.66-.59.53-.07-.03-.16.02-.19.1-.08.2-.27.21-.27.01ZM22.09 40c.01-1.76-.18-2.17-1.3-2.76-1.51-.8-4.26-4.16-4.65-5.68l-.07-.29.69.06c.85.07 1.87.44 2.67.97.33.22.62.39.64.37.09-.09-.48-1.92-.62-2-1.11-.62-3.15-3.37-3.15-4.24 0-.38 1.8.07 2.7.67l.45.3.05-.8c.08-1.12.34-1.31.67-.49.2.51.29.49.38-.08.18-1.31.51-1.75.39-.53-.04.43-.03.75.03.82.2.25.75 3.39.71 4.02-.03.41.03.89.18 1.5l.22.91v-1.1c.01-1.72.36-2.77 1.28-3.75.55-.58.68-.09-1.02-3.73-.81-1.71-2.02-4.31-2.69-5.77-1.57-3.4-5.37-11.53-6.04-12.92-.4-.83-.55-1.05-.68-1.02l-4.06.84c-6.01 1.24-5.93 1.11-3.65 6.08 1.7 3.72 6.32 14.04 10.1 22.57 1.21 2.71 1.05 2.49 1.81 2.62 2.42.41 4.68 3.07 4.78 5.62.04.78.17-.88.18-2.19Zm18.14 2.08c-.26-.28-1.13-2.05-1.13-2.29 0-.28.4-.52 1.39-.84 1.2-.38 1.29-.34 1.93.95.74 1.5.69 1.67-.57 2.1-1.06.36-1.35.37-1.62.08Zm-18.76-.69c-.17-1.89-2.42-4.26-4.33-4.55-.61-.09-.6-.11-.08 1.01.73 1.57 3.02 4.05 3.74 4.05.2 0-.93-1.52-1.82-2.46-.84-.87-1.02-1.14-.77-1.14.29 0 2.26 2.24 2.83 3.23.38.65.5.61.43-.14Zm20.25.35c1.06-.35 1.07-.36.62-1.36-.68-1.53-.67-1.52-1.94-1.1-1.15.39-1.15.39-.52 1.66.61 1.23.59 1.22 1.84.8Zm-1.16-.78c-.31-.66-.13-1.16.43-1.16.38 0 .81.44.81.81 0 .71-.94.97-1.24.35Zm-9.04-.21c-.11-.14-.39-.7-.63-1.26-.57-1.35-.55-1.4.94-1.88l1.08-.34.27.2c.3.22 1.11 2 1.12 2.44 0 .69-2.34 1.4-2.78.84Zm1.65-.32c1-.33 1.01-.37.47-1.64-.56-1.31-.53-1.29-1.76-.88-1.22.4-1.22.39-.73 1.51.64 1.47.63 1.46 2.02 1.01ZM23.3 38.9c0-.05-.09-.14-.2-.2-.71-.38.61-1.58 2.08-1.89.68-.14 1.86-.14 2.52 0 .67.14.67.19.07-1.04l-.52-1.07-.63.44c-.81.57-1.73.93-2.7 1.08-.69.1-.8.15-1.09.47l-.32.36v1.6l-.01 1.6.4-.63c.22-.34.4-.67.4-.72Zm8.72 1.08c-.16-.21-.52-.96-.52-1.1 0-.13.83-.48 1.14-.48.17 0 .66.87.66 1.18 0 .13-.14.23-.53.35-.64.2-.62.2-.75.05Zm3.15-.26c-.25-.28-1.07-2.07-1.07-2.34 0-.34.23-.51 1.08-.82 1.33-.47 1.53-.36 2.21 1.18.6 1.37.59 1.38-.81 1.85-1.08.36-1.19.37-1.41.13Zm1.38-.41c1.04-.37 1.05-.4.61-1.41-.63-1.45-.68-1.48-1.87-1.09-1.08.36-1.08.38-.43 1.79.54 1.16.49 1.14 1.69.71Zm-9.14-.1c.86-.27 2.19-1.13 2.19-1.42 0-.04-.28-.18-.62-.32-1.81-.72-3.99-.62-5.16.23-.9.65-.65 1.12.32.58.28-.15.59-.28.69-.28.26 0 .2.28-.1.44-.36.19-.25.19.83.01.85-.15 1.27-.14 1.08.04-.14.13-1.42.41-2.19.49-1.52.15-.43.54 1.31.47.6-.03 1.26-.13 1.65-.24Zm5.37-.01c-.13-.37-.16-.39-.55-.28-.49.13-.27.58.28.58.38 0 .38 0 .27-.3Zm2.51-.91c-.24-.47-.22-.51.44-.72.55-.19.7-.15.86.19.21.47.14.61-.36.78-.65.22-.7.21-.94-.25Zm3.27.3c-.55-.32-1.27-2.49-.91-2.75s1.88-.67 2.15-.58c.35.13 1.31 1.95 1.27 2.44-.03.51-1.98 1.19-2.51.89Zm1.31-.46c1.12-.34 1.12-.33.46-1.64-.56-1.1-.55-1.09-1.69-.74-1.01.31-1.03.34-.7 1.15.65 1.6.67 1.61 1.93 1.23Zm-17.96-3.49c-.27-2.67-.48-3.36-1.06-3.45-.22-.03-.5-.09-.62-.13-.39-.13.01 1.55.57 2.44.7 1.1 1.08 2.4.97 3.31-.05.38-.02.59.11.83l.17.31.03-.65c.01-.36-.06-1.56-.17-2.66Zm17.36 2.99c-.04-.03-.07-.17-.07-.3 0-.18-.05-.23-.25-.23-.28 0-.33-.21-.1-.4a.48.48 0 0 0 .15-.31c0-.28.18-.23.38.1.17.29.21.31.47.31.22 0 .18.31-.05.37-.13.03-.2.14-.2.29 0 .23-.19.32-.33.17Zm-9.33-.4c-.1-.1-.32-.49-.5-.88-.78-1.71-.76-1.8.58-2.24 1.4-.47 1.54-.4 2.12.93.66 1.54.65 1.58-.76 2.05-1.08.36-1.2.37-1.44.14Zm1.43-.44c1.09-.36 1.08-.32.57-1.51-.53-1.24-.57-1.27-1.47-1.01-1.49.44-1.47.4-.92 1.66.57 1.31.53 1.29 1.82.86Zm-10.27.09c0-.18-1.17-1.88-1.94-2.83-.46-.55-.62-.83-.55-.9.17-.16 1.71 1.66 2.55 3.02l.36.58-.07-.65c-.24-2.36-2.52-4.5-4.78-4.5h-.29l.32.58c1.14 2.02 2.87 4.08 3.87 4.61.45.24.53.25.53.09Zm1.6-.69c.2-.38.2-.46.09-1.15s-.1-1.12.07-2.08c.09-.51-.27-.36-.52.22-.16.38-.16.54.02 2.65.08.9.07.89.34.36Zm10.77-.01c-.09-.07-.4-.62-.68-1.22-.69-1.45-.68-1.48.69-1.94 1.36-.45 1.46-.41 1.97.71.82 1.79.82 1.82-.63 2.27-1.09.34-1.12.35-1.35.18Zm-2.73-.13c-.04-.1-.16-.14-.33-.13-.3.03-.45-.37-.18-.48.09-.03.13-.13.1-.24-.07-.25.36-.39.52-.16.07.09.23.15.36.14.3-.04.39.28.1.37-.18.05-.19.09-.08.26.1.16.09.21-.03.29-.22.14-.4.12-.46-.05Zm3.95-.31c.48-.14.92-.31.99-.38.19-.19-.71-2.24-1.02-2.31-.27-.07-1.87.47-2 .67-.12.19.85 2.28 1.06 2.28.06 0 .5-.12.97-.26Zm-9.25-.27c1.15-.55 3.26-2.29 3.26-2.69 0-.16-1.85-.08-2.51.1-1.19.33-2.24 1.14-2.69 2.07-.35.72-.26.82.29.33.56-.49 1.43-1.04 1.83-1.13.43-.11.36.21-.08.4-.41.17-1.53.94-1.75 1.21-.24.29.82.11 1.65-.29Zm8.36-.36c-.16-.31-.12-.41.22-.56q.315-.135.15-.15c-.1 0-.26.04-.36.09-.1.06-.23.06-.31.01-.2-.12.04-.62.28-.59.09.01.25-.01.34-.06.29-.12.51.02.44.28-.04.17 0 .25.17.32.49.22.22.6-.55.79-.21.05-.3.02-.38-.13Zm2.98-.09c-.62-.69-1.18-2.32-.9-2.6.24-.24 1.88-.75 2.18-.68.35.09 1.34 1.88 1.34 2.44 0 .53-2.25 1.26-2.62.84Zm-13.02-.98c.42-.52 1.22-1.06 1.94-1.3.3-.1.56-.19.58-.2.05-.03-1.12-2.53-1.18-2.53-.03 0-.17.26-.32.57s-.53.86-.84 1.22c-.8.91-1.13 2.02-.89 2.96l.07.29.15-.3c.09-.16.31-.49.49-.71Zm14.54.58c.94-.34.95-.4.33-1.63-.56-1.1-.55-1.1-1.73-.72-1.01.33-1.03.37-.59 1.36.64 1.42.7 1.44 1.99.99Zm-1.29-.8c-.43-.8.57-1.44 1.1-.72.32.43.29.74-.06.77-.16.01-.44.05-.62.08-.25.06-.33.03-.42-.13Zm-13.74-1.85c1.06-.81 1.62-1.89 1.75-3.4.13-1.52.13-1.51-.38-1.28-1.31.59-2.24 2.2-2.24 3.85v.81l.59-1.1c.32-.6.66-1.31.76-1.57.17-.46.45-.66.45-.32 0 .28-.51 1.47-1.01 2.35-.65 1.15-.64 1.22.08.66ZM21 30.82c0-.05-.12-.15-.26-.23-.35-.18-2.54-2.48-2.54-2.66 0-.25.15-.13 1.43 1.15l1.28 1.27-.24-.57c-.77-1.75-2.14-2.94-3.61-3.14l-.49-.07.47.9c.54 1.05 1.33 2.05 2.03 2.56.82.6 1.93 1.05 1.93.79Zm.1-2.65c-.32-1.59-.29-1.5-.45-1.37-.22.19-.44.05-.65-.42l-.2-.43v1.75l.44.61c.24.33.57.92.73 1.3l.28.69.03-.55c.02-.31-.06-1.02-.18-1.58Zm8.07.65c-.22-.24-.21-.75.02-1.42.24-.68.21-.73-.39-.65-.85.12-1.07-.53-.25-.74 1.46-.37 1.85.12 1.39 1.71-.05.16 0 .17.39.12.39-.06.46-.04.65.21.32.4.34.39-1.49.91-.09.02-.23-.04-.32-.14Zm1.09-.38c.67-.19.59-.37-.09-.22-.62.15-.7.06-.51-.57.37-1.22.07-1.66-.93-1.39-.34.09-.28.24.07.18.77-.16 1.01.17.7.95-.3.76-.26 1.39.07 1.26.08-.02.39-.12.69-.21Zm1.13-.51c-.64-.54-1.08-1.9-.78-2.44.53-1 2.38.42 2.39 1.84 0 .82-.93 1.17-1.61.6Zm1.19-.15c.31-.31-.05-1.44-.65-2-.88-.83-1.47-.06-.89 1.18.37.8 1.15 1.21 1.54.82Zm-.64-.08c-.85-.34-1.33-2.29-.51-2.04.68.2 1.44 1.79.98 2.04-.22.11-.19.11-.47 0Zm.36-.35c0-.35-.82-1.51-.99-1.4-.26.15.45 1.45.79 1.45.11 0 .2-.02.2-.05Zm-5.98-1.07c-.19-.19-.14-.35.21-.62l.32-.26h-.37c-.59 0-.69-.31-.21-.66.21-.16.41-.31.46-.34.04-.04-.2-.04-.54-.02-.55.04-.61.03-.57-.14.03-.16.14-.19.85-.22l.82-.03-.06-.29c-.06-.34.1-.6.38-.6.23 0 .23.04.04.34-.08.12-.16.38-.18.57-.02.29-.1.39-.57.69l-.54.35.42.03c.3.02.42.08.42.19 0 .1.1.04.3-.17.32-.35.38-.35 1.64-.14l.31.06-.25-.22c-.14-.11-.42-.3-.62-.4l-.38-.2.2-.32.19-.31-.37-.37c-.2-.19-.49-.41-.64-.47-.15-.07-.3-.23-.34-.37-.08-.35-.75-.45-1.11-.16-.42.33-.98.27-1.2-.12-.13-.24-.25-.33-.43-.33s-.25-.05-.25-.19c0-.19.22-.29 1.88-.81.83-.26.99-.37.59-.4-.68-.06-1.33-.68-1.04-.97.11-.11.42.17.42.38 0 .08.12.19.26.24.44.17.46.11.09-.25-.34-.35-.46-.77-.25-.9.17-.11.11-.25-.1-.25-.24 0-.76-.25-1.02-.48-.22-.19-.23-.42-.03-.42.08 0 .15.04.15.09s.15.19.34.3c.36.23.61.28.35.08-.62-.49-.69-.56-.63-.71.07-.18 1.01.53 1.11.83.03.09.1.26.15.38.08.17.08.26-.03.39-.12.14-.09.2.21.47.37.33.73.95.66 1.14-.03.06.02.14.1.17s.21.21.29.4.19.37.25.41c.05.03.1.13.1.22s.07.25.16.35.17.32.18.5c.01.2.1.42.24.56.13.13.21.3.18.38s-.09.2-.12.28.14.27.45.49c.63.45.82 1.11.27.91-.57-.2-1.24-.2-1.1 0 .07.11.14.24.14.28 0 .14-.28.08-.34-.07-.09-.25-.3-.17-.95.35-.68.54-.71.56-.89.38Zm4.81-1.65c-1.25-.08-1.25-.73.01-1.56.6-.4 1.12 0 .61.47-.32.3-.31.36.05.36.31 0 .7.3.7.54 0 .16-.23.27-.53.24-.12-.01-.5-.03-.84-.05Zm.97-.33c0-.06-.28-.1-.65-.1-.78 0-.84-.14-.25-.55.36-.25.51-.45.34-.45-.11 0-1.04.71-1.04.8 0 .14.24.28.55.33.58.08 1.05.07 1.05-.03Zm-6.13-.58c-.46-.19-.72-.96-.35-1.06.41-.11.55-.06.67.2.16.36.24.25.1-.15-.09-.27-.09-.35.02-.42.18-.11.62-.12.55 0-.03.05.01.25.1.46.28.69-.35 1.26-1.09.97Zm4.07-.78c-.43-.21-.7-.83-.43-.99.12-.08 1.17-.34 1.37-.35.15 0 .52.58.52.82 0 .38-1 .74-1.46.52Zm.48-.43c.21.03.48-.12.48-.27 0-.17-.31-.18-.83-.03-.38.1-.38.11-.21.3.12.14.2.16.3.08a.42.42 0 0 1 .26-.08Zm-2.93-.92c-.08-.04-.31-.11-.51-.14-.23-.04-.38-.12-.38-.21 0-.12.19-.19.42-.15.05 0 .08-.03.08-.09 0-.18-.83-.1-1.6.15-.68.22-.62.25.19.09.27-.05.61.15.61.36 0 .17 1.25.38 1.28.22a.23.23 0 0 0-.09-.23Zm1.52-.36c-.52-.65-.45-.79.54-1.04.92-.24 1.09-.2 1.36.33.25.49.19.73-.16.64-.14-.04-.25-.02-.25.03 0 .36-1.22.4-1.49.04Zm-15.19.05c-.22-.22.02-.79.27-.64.09.06.09.11 0 .22s-.08.15.04.2c.24.09.35-.03.29-.31-.04-.24-.02-.26.24-.22.16.02.33.01.39-.03.28-.21.74-.21.85 0 .18.35.05.57-.21.34-.19-.17-.2-.17-.13 0 .05.14.03.17-.12.14-.1-.02-.25.03-.31.12-.11.13-.14.13-.23 0-.08-.13-.1-.13-.1.01 0 .1-.12.19-.31.23-.44.08-.53.08-.67-.06Zm10.33-.52c-.48-.48-.33-.77.49-.99.56-.15.7-.16.77-.05.12.18-.12.34-.73.48-.42.11-.48.15-.36.26.11.11.21.11.62-.01.64-.2.87-.19.8 0-.05.13-.02.14.21.05.32-.12.45-.13.45-.02 0 .04-.36.16-.79.26-.44.1-.89.2-1 .23-.13.03-.29-.04-.46-.21Zm-8.07-.18c-.21-.32-.12-.48.26-.48.18 0 .37-.05.44-.12.15-.15.52.16.52.44 0 .23-.18.23-.37.01-.13-.17-.14-.16-.08.05.08.28-.09.29-.29 0l-.16-.22v.27c0 .33-.13.35-.32.05Zm-3.47-.41c-.26-.42-.26-.5-.02-.42.13.04.23 0 .29-.12.09-.14.13-.15.26-.04s.19.11.31.01c.08-.07.22-.1.3-.06.08.03.15.01.15-.04 0-.06.08-.1.18-.1.09 0 .26-.07.36-.15.22-.17.36-.11.36.15 0 .1.06.2.13.23.09.04.09.07 0 .18-.1.1-.16.09-.32-.05-.19-.17-.19-.17-.14.03.06.24 0 .26-.28.11-.15-.08-.19-.07-.19.04 0 .21-.19.3-.35.16-.12-.1-.15-.08-.15.11v.22l-.26-.24-.26-.24.04.24c.05.37-.17.36-.41-.02Zm2.62-.79c-.21-.31-.22-.61 0-.39.07.07.14.05.23-.07.1-.12.16-.14.21-.05.14.19 1.13-.05 1.13-.28 0-.11.07-.19.15-.19s.15.05.15.11c0 .08.04.08.14 0 .15-.12.35.03.22.16-.03.04.01.15.11.25.19.21.18.23-.2.32-.24.06-.3.03-.35-.16l-.06-.23-.06.25c-.04.17-.12.24-.24.22-.1-.02-.23.04-.3.14-.08.11-.15.13-.19.06-.08-.12-.47-.04-.47.09 0 .2-.26.07-.47-.23Zm12.63.07c-.49-.74-.18-1.2.65-.98.33.09.39.08.35-.03-.05-.14.18-.44.34-.44.1 0 .7 1.02.7 1.18s-.52.24-.96.14c-.37-.08-.4-.07-.4.12.01.33-.46.34-.68.01Zm-4.36-.27c-.4-.65.19-1.28.74-.8.18.16.19.16.13 0-.05-.13-.01-.18.13-.18.44 0 .7.99.31 1.2-.45.24-1.1.13-1.31-.22Zm-.38-.95c-.15-.06-.42-.56-.42-.78s.4-.2.41.03c0 .13.02.13.09-.05.21-.52 1.3-.19 1.3.39 0 .22-.34.2-.52-.02l-.19-.24.06.26c.04.14.03.28-.02.31-.16.09-.58.15-.71.1Zm4.21-.15c-.53-.26-.61-.88-.15-1.12.88-.44 1.82-.12 1.82.62 0 .35-1.23.72-1.67.5Zm-15.81-.69c-1.61-.47-2.53-3.71-1.15-4.05 1.63-.41 3.5 3.38 1.97 4.02-.38.16-.37.16-.82.03Zm2.59-.45c-.42-.54-.27-.64.95-.64.8 0 1.24.1 1.24.29 0 .04-.37.07-.82.07-1.07-.01-1.29.06-.97.34l.24.19-.22.01c-.12 0-.31-.12-.42-.26ZM12.5 17c.39-.25.06-1.76-.56-2.58-.84-1.09-1.95-.92-1.81.28.17 1.44 1.57 2.81 2.37 2.3Zm12.8-.15c0-.03-.2-.14-.45-.25-.46-.2-.57-.42-.29-.58.12-.06.06-.11-.26-.21-.46-.13-.49-.34-.07-.39.4-.05.33-.2-.15-.33-.41-.1-.88-.43-.88-.61 0-.14.42-.09.54.06.06.08.24.18.41.21l.3.06-.27-.16c-.16-.09-.28-.2-.28-.25 0-.06-.22-.1-.5-.1-.55 0-.56.01-.36.33.28.44.29.65.03.91l-.24.24.32-.05c.28-.04.35 0 .64.35.32.42 1.51 1.01 1.51.77Zm1.21-.21c-.61-.77.03-1.34.98-.87l.4.2-.14-.27c-.08-.15-.11-.3-.08-.34.17-.16.36-.01.6.49.35.71.25.85-.46.61-.62-.2-.67-.2-.5 0 .11.14.1.18-.06.3-.28.21-.51.17-.74-.12Zm-9.18-.55c.03-.13.09-.34.12-.47.06-.17.04-.21-.07-.17-.39.15-.83-.68-.53-.99.21-.2.23-.2.62.04.43.26.52.73.24 1.28-.25.49-.47.66-.38.31Zm-1.24-.1c-.27-.27-.21-.61.13-.77s.65-.02.74.32c.14.57-.44.88-.87.45Zm-2.01.01c-.27-.16-1.38-1.59-1.55-1.98-.63-1.51 1.46-1.84 2.18-.34.59 1.2.16 2.78-.63 2.32Zm.54-.7c.27-1.24-1-2.8-1.74-2.13-.29.26-.22.56.29 1.25.98 1.34 1.31 1.53 1.45.88Zm11.26.03c-.43-.5-.5-.99-.15-1.12.12-.05.25-.07.29-.04.05.02.18-.03.3-.11.3-.21.81-.2 1 .02.21.24.48.78.48.97 0 .24-.38.18-.46-.07a1 1 0 0 0-.22-.4c-.12-.14-.12-.18-.02-.18s.11-.03.03-.11c-.35-.35-.8.16-.48.56.16.19.16.19.05-.03-.22-.45.11-.58.35-.12.22.43.2.47-.39.64-.66.19-.6.2-.78-.01Zm-4.61-.9c-.14-.14-.06-.34.18-.43.36-.14.31-.3-.09-.3-.22 0-.36-.06-.4-.17-.1-.25.09-.39.36-.25.13.06.49.14.8.17.7.08.82.21.28.3-.32.05-.39.1-.3.2.2.24-.61.71-.83.48Zm28.53-.99c-1.02-1.03-1.9-1.38-3.98-1.59-4.23-.41-6.49-2.79-6.68-7.05-.09-2.03-.28-2.68-1.05-3.61-.5-.6-.52-.59 1.37-.59 5.3 0 9.05 2.67 10.65 7.56.24.74.42 5.45.22 5.65-.05.05-.27-.1-.53-.37Zm.36-2.74c-.21-5.69-4.31-9.64-10.15-9.78L38.17.88l.27.32c.66.79.84 1.41.96 3.4.27 4.49 2.27 6.62 6.58 7 1.82.16 3.12.67 3.87 1.51l.2.21.08-.58c.05-.33.06-1.24.03-2.04Zm-3.36.03c-.65-.34-.9-1.37-.4-1.68.32-.2.68.23.47.55-.28.46.43.8.82.41.33-.33.27-.69-.12-.86-.73-.3-.63-.65.46-1.53l.41-.33.65.65.66.66-.22.21-.21.21-.44-.4c-.42-.39-.46-.41-.67-.26l-.22.16.31.34c.83.95-.37 2.45-1.5 1.87Zm.9-.28c.67-.35.83-1.17.3-1.55-.38-.27-.38-.39.04-.72.44-.35.43-.35.89.1.27.25.36.3.28.15-.06-.12-.27-.34-.47-.49l-.35-.27-.32.29c-.7.64-.78.79-.45.9.61.18.75.72.33 1.22-.6.71-1.65.33-1.36-.49.1-.29-.02-.42-.13-.13-.27.72.53 1.36 1.24.99Zm-3.14-1.7c-1.09-1.08-.97-1.25.91-1.34.98-.05 1.17-.09 1.29-.25.34-.48.03-.85-.55-.66-.66.21-.89-.4-.26-.68.75-.34 1.55.18 1.55 1.01 0 .86-.59 1.27-1.84 1.27h-.76l.45.41c.46.42.55.65.33.87-.21.21-.35.13-1.12-.63Zm.46-.18c-.72-.73-.7-.75.57-.79 1.19-.03 1.51-.18 1.65-.73.18-.73-.81-1.42-1.25-.88-.13.15-.12.15.08.05.82-.44 1.44.61.72 1.22-.28.24-.38.26-1.27.26-1.52.01-1.61.11-.76.88.82.74.99.73.26-.01ZM0 4.45V.6h3.15C4.88.6 6.3.64 6.3.68c0 .05-.43.35-.96.68C2.8 2.92 1.07 5.1.34 7.63c-.1.37-.22.67-.26.67C.03 8.3 0 6.57 0 4.45ZM.75 5.9c.99-1.98 2.33-3.45 4.22-4.62L5.74.8H.2v2.64C.2 4.88.18 6.36.15 6.71.1 7.33.1 7.34.23 7c.08-.19.31-.69.52-1.1Zm41.86.99c-.48-.48-.36-1.13.36-1.99 1.25-1.49 3.24-.97 2.48.64-.65 1.37-2.12 2.07-2.84 1.35Zm1.61-.32c1.24-.94 1.47-2.27.38-2.27-1.13 0-2.45 1.75-1.8 2.4.32.32.9.27 1.42-.13Zm-1.37.03c-.5-.55.78-2.2 1.7-2.2.72 0 .84.49.33 1.26-.66.98-1.6 1.42-2.03.94Zm.75-.1c.31 0 1.3-1.18 1.3-1.56 0-.63-1.31.02-1.76.88-.25.48-.13.84.24.72.08-.02.17-.04.22-.04Zm-2.84-1.39c-1.07-1.08-1-1.2.76-1.3 1.16-.07 1.48-.22 1.48-.68 0-.3-.24-.4-.57-.22-.23.12-.27.11-.45-.11l-.2-.24.27-.23c.89-.77 2.17.58 1.44 1.51-.35.44-.76.6-1.61.6l-.77.01.45.46c.39.4.44.5.35.67-.2.38-.37.31-1.15-.47Zm.46-.14c-.64-.66-.59-.77.38-.77 1.5 0 2.3-.8 1.58-1.57-.27-.29-1.2-.31-1.03-.02.03.04.17.03.3-.03.53-.24 1.02.32.77.87-.21.45-.57.59-1.66.63-1.3.05-1.33.09-.61.82.32.33.61.57.64.55.03-.03-.14-.25-.37-.48Zm7.23-1.53c-.63-.74-1.73-1.6-2.79-2.2-.47-.27-.86-.52-.86-.56 0-.05.97-.08 2.15-.08h2.15v1.64c0 1.91-.01 1.93-.65 1.2Zm.44-1.51L48.9.8h-3.44l.79.49c.86.53 1.9 1.38 2.26 1.85.31.4.37.21.38-1.21Z"/></svg>