<svg xmlns="http://www.w3.org/2000/svg" width="51" height="51" viewBox="0 0 51 51"><path fill="#fff" fill-rule="evenodd" stroke="#fff" stroke-width=".336" d="M1.07 50.94C.49 50.64 0 50 .01 49.56l.01-.31.08.27c.23.78.81 1.31 1.7 1.54.44.12.44.13.1.13-.19 0-.56-.11-.83-.25Zm48.52.07c.74-.26 1.02-.49 1.34-1.11.22-.44.27-.49.27-.28 0 .63-1.13 1.58-1.85 1.58-.25-.01-.22-.03.24-.19ZM9.44 47.85c-.04-.08-.04-.31-.02-.5.04-.33.03-.35-.27-.35-1.05 0-.81-1.64.25-1.72l.45-.03-.03.58c-.04.63.11.72.23.14.12-.59.16-.67.36-.67.18 0 .19.05.13.6-.11.97.18.85.31-.12.11-.83.49-.7.4.13-.08.71.06.74.24.06.19-.76 1.02-.99 1.09-.31.02.22.09.34.23.37.22.06.13.45-.18.79-.18.2-.73.24-.91.06-.08-.08-.15-.08-.24 0-.07.05-.36.1-.63.1s-.56-.05-.63-.1c-.19-.17-.33.03-.39.56-.05.45-.29.69-.39.41Zm17.6.01c-.06-.15.09-2.43.17-2.5.18-.16.82-.13 1 .05.24.24.25.24.32-.02.05-.17.11-.19.44-.14.62.11.61.1.52.57-.11.56-.11.7 0 .64.04-.03.11-.2.15-.38.15-.76.96-1.15 1.12-.53l.06.25.2-.25c.24-.31.72-.34.87-.06.08.14.07.22-.04.31-.17.14-.38.04-.28-.13.03-.07-.04-.03-.16.07-.24.22-.26.76-.03.84.17.05.63-.49.76-.9.21-.64.5-.5.43.21-.05.47-.04.61.06.61.2 0 .45-.61.4-.97-.06-.37.34-.51.43-.15.03.09.19.25.36.35l.32.18.24-.31c.18-.24.31-.3.55-.29.18.01.39 0 .47-.02.19-.05.25.37.11.85-.05.22-.06.38 0 .42.05.03.09.02.09-.03.01-.18.38-.55.49-.49.15.1-.23.83-.46.9-.44.12-1.14.05-1.3-.13-.15-.18-.16-.18-.34 0-.21.21-.69.25-.87.07-.09-.09-.15-.09-.24 0-.17.17-.55.15-.66-.04-.09-.16-.11-.16-.33 0-.29.2-.73.21-.89.01-.12-.14-.15-.14-.3 0-.2.18-.71.2-.88.03-.08-.08-.15-.08-.26.01-.37.31-.61.1-.59-.51.02-.69 0-.71-.25-.15-.25.57-.47.77-.86.77-.31 0-.33.03-.42.47-.09.47-.29.67-.4.39ZM5.7 46.92c-.9-.45-.9-2.6 0-3.07 1.04-.54 1.87.21 1.78 1.59-.09 1.37-.81 1.97-1.78 1.48Zm8.02-.04c-.29-.37-.25-1 .09-1.37.27-.28.66-.28.74.02.04.12.19.31.32.43.25.2.25.21.09.52-.25.49-.98.72-1.24.4Zm2.02-.14c-.33-.5-.08-2.77.3-2.72.22.03.22.04.1.89l-.06.46.31-.05c.28-.04.33-.01.44.27.14.38.18.39.4.01.24-.4.78-.43 1.03-.05q.3.465.36.03c.03-.23.82-.46.93-.27.03.03.25.04.49.02.52-.06.62.1.51.8l-.07.42.25-.27c.46-.49.55-.11.11.42-.48.56-.8.4-.76-.37.04-1-.19-.78-.43.4-.13.61-.4.28-.36-.43.04-.83-.24-.7-.35.16-.08.68-.4.8-.46.16l-.04-.37-.13.33c-.19.48-.82.58-1.05.17l-.13-.24c-.02-.02-.14.08-.27.22-.34.37-.89.37-1.12.01Zm5.86-.36c0-1.01.04-1.08.61-1.08.58 0 .68.13.61.78-.06.56.12.5.28-.08.13-.5.46-.72.97-.68l.38.03-.03.58c-.04.71.02.72.33.02.36-.82 1.09-.97 1.3-.27.05.18.15.32.22.32.22 0 .14.28-.18.65-.36.41-.9.49-1.1.16-.11-.17-.13-.17-.3 0-.19.19-1.1.25-1.41.08-.14-.07-.23-.07-.33.01-.38.32-.6.09-.57-.6.03-.79-.24-.68-.36.16-.12.8-.42.75-.42-.08Zm15.26.47c-.36-.36-.19-1.57.23-1.63.13-.02.21.02.21.1s.13.24.3.36l.29.22.16-.3c.16-.31.66-.43.8-.19.05.06.11.04.19-.07q.135-.165.27-.09c.07.05.27.09.44.09.32.01.33.03.21.74-.06.36-.06.37.1.15.4-.56.57-.17.19.4-.48.69-.93.43-.81-.46l.06-.42-.25.55c-.34.71-.82.95-1.15.55-.11-.13-.15-.13-.33 0-.28.19-.71.19-.91 0Zm4.4-.01c-.24-.23-.21-.95.05-1.28s.81-.34.87-.02c.05.26-.16.45-.29.26-.12-.19-.39.12-.39.46 0 .54.6.28.78-.34.17-.57.3-.64 1.19-.63.43.01.9.01 1.05.01.35 0 .39.09.27.54-.19.68-.04.74.27.11.41-.85 1.23-.92 1.28-.12.01.17.06.23.19.19.27-.07.21.23-.14.63-.34.39-.86.48-1.09.2-.12-.14-.15-.14-.3 0-.43.39-.86.02-.77-.66.07-.56-.05-.48-.28.19l-.2.57-.6.02c-.41.02-.64-.02-.76-.13-.14-.13-.18-.13-.29.01-.16.2-.64.19-.84-.01Zm-34.6-.32c.62-.41.52-2.22-.12-2.38s-1.04.37-1.04 1.36c0 .95.55 1.43 1.16 1.02Zm31.79-4.21c-.58-.25-.6-.33-.63-2.97-.04-3.05.08-3.34 1.33-3.34s1.37.29 1.33 3.35l-.03 2.45-.27.27c-.29.29-1.29.43-1.73.24Zm3.17-.04c-.55-.31-.57-.42-.57-3.07 0-3.02.08-3.2 1.39-3.2.9 0 1.28.48 1.24 1.53l-.03.72-.47.03-.47.03-.03-.58c-.03-.55-.04-.58-.31-.61l-.27-.03.02 2.08.03 2.08h.25c.23 0 .25-.04.28-.57l.03-.58h.49c.65 0 .7.2.43 1.63-.1.57-1.35.9-2.01.54ZM5 39.21c0-2.38.03-3.1.12-3.14.24-.09 1.73.06 2.01.2q.57.285.57 1.5c0 1.28-.36 1.85-1.24 1.98l-.44.07.06 1.24.05 1.24H5zm3.1.01v-3.09l.48-.06c.75-.08.73-.21.7 3.17l-.03 3.01-.57.03-.58.03zm1.5 2.89c0-.15.94-3.97 1.16-4.73.04-.14-.04-.17-.48-.2l-.53-.03-.03-.49c-.04-.63.01-.66 1.15-.66 1.48 0 1.42-.23.67 2.68-.31 1.19-.59 2.27-.61 2.4-.05.21-.02.22.56.22h.61v1h-1.25c-1.16 0-1.25-.01-1.25-.19Zm2.83-.28c.05-.37.83-3.44 1.13-4.45.05-.16-.02-.18-.55-.18h-.61v-1.07l.53-.07c1.27-.15 1.97-.05 1.97.28 0 .2-1.1 4.38-1.25 4.78-.06.16 0 .18.59.18h.67l-.03.48-.03.47-1.24.03-1.24.03zm2.62.25c.03-.13.25-1.49.51-3.03.25-1.54.5-2.85.56-2.92.12-.15 1.14-.18 1.22-.04.07.11.73 4.06.81 4.86.03.33.08.77.11.98l.06.37h-.55c-.61 0-.67-.07-.67-.82 0-.37-.01-.38-.39-.38h-.39l-.08.58-.09.57-.58.03c-.56.03-.57.02-.52-.2Zm5.15-2.88v-3.1l.25-.06c.14-.03.6-.03 1.01.01 1.11.1 1.37.36 1.42 1.39.08 1.57-.22 2.18-1.13 2.32l-.45.06v2.48h-1.1zm2.6 3.02c0-.69.81-5.55 1-5.99.1-.24.88-.33 1.18-.15.13.09.46 1.85.82 4.39.28 1.97.3 1.83-.34 1.83h-.54l-.07-.6c-.07-.6-.07-.6-.4-.6-.36 0-.4.06-.5.74l-.07.46h-.54c-.3 0-.54-.04-.54-.08Zm3.52-2.97c.04-3.54-.05-3.29 1.12-3.21 1.31.09 1.61.42 1.6 1.8 0 .93-.1 1.26-.45 1.56-.18.14-.17.2.21 1.39.51 1.58.52 1.51-.14 1.51h-.54l-.26-.87c-.15-.49-.31-.99-.36-1.13-.05-.16-.07.14-.06.85l.01 1.1-.58.03-.59.03zm3.02 2.83c.03-.13.17-1.04.32-2.03.37-2.6.62-3.88.76-3.97.19-.12 1.16-.1 1.24.03.06.1.75 4.41.89 5.62l.07.58-.58-.03c-.55-.03-.59-.05-.62-.28-.09-.86-.11-.9-.47-.9-.29 0-.34.04-.39.3-.03.16-.09.44-.12.6-.05.29-.07.3-.6.3-.51 0-.54-.01-.5-.22Zm5.72-.55c-.03-.43-.23-1.77-.43-2.99-.42-2.51-.42-2.54.21-2.54.57 0 .51-.13.78 1.91l.23 1.74.28-1.75c.15-.96.33-1.77.39-1.81.1-.06.88-.01.97.07.02.02-.18 1.4-.45 3.06l-.49 3.03-.71.03-.71.03zm9.21.7c-.15-.14-.08-5.91.07-6.05.15-.16 2.02-.24 2.24-.1.09.06.12.26.1.58l-.03.49-.67.03-.68.03v1.37l.31.06c.17.03.44.06.6.06.28 0 .29.01.29.55v.55h-1.2v1.5h1.4v1h-1.18c-.65 0-1.22-.03-1.25-.07ZM5.78 40.79l.03-1.27.5-.04c.82-.08 1.03-.37 1.07-1.46.06-1.42-.21-1.72-1.53-1.72H5.2v2.83c0 2.94.01 3 .35 2.95.19-.03.2-.11.23-1.29Zm3.2-1.61L9 36.3h-.6v5.81l.28-.03.27-.03zm2.83 2.65c.08-.22.06-.23-.55-.23-.34 0-.65-.02-.68-.05-.02-.03.24-1.16.59-2.52.34-1.37.63-2.54.63-2.6 0-.1-.25-.13-.9-.13H10v.3c0 .3.01.3.55.3.67 0 .68-.27-.05 2.62-.33 1.31-.6 2.42-.6 2.47 0 .23 1.82.07 1.91-.16Zm2.5.22c.59-.13.37-.45-.3-.45-.8 0-.8.1-.12-2.4.33-1.22.63-2.37.67-2.56l.06-.34H12.7v.6h.6c.73 0 .73-.25 0 2.5-.68 2.55-.68 2.57-.37 2.62.48.08 1.11.09 1.38.03Zm3.64-.47c-.03-.29-.17-1.25-.31-2.13s-.3-1.95-.36-2.37l-.11-.78h-.43c-.51 0-.41-.33-.98 3.16L15.35 42h.27c.24 0 .28-.05.33-.38.14-.87.1-.82.74-.82h.6l.07.58c.08.7.09.72.41.72.24 0 .25-.01.18-.52ZM21 40.8l.05-1.25.45-.05c.92-.12 1.1-.41 1.1-1.81 0-1.2-.21-1.39-1.56-1.39h-.54v5.81l.23-.03c.21-.03.22-.08.27-1.28Zm2.75.65.1-.6.56-.03c.62-.03.68.04.69.73 0 .41.12.55.38.48.29-.07.26-.3-.44-4.65l-.18-1.08h-.83l-.22 1.18c-.21 1.1-.71 4.24-.71 4.48 0 .06.12.11.27.1.25-.01.28-.05.38-.61Zm3.45-.65c.07-1.82.22-1.76.86.32.25.83.28.88.54.88h.28l-.22-.72c-.13-.4-.31-.98-.41-1.29l-.18-.57.34-.3.34-.3v-.96c0-1.3-.17-1.49-1.35-1.54l-.8-.04v5.83l.28-.03.27-.03zm3.05.65.11-.6h1.19l.08.63c.07.48.13.62.25.62.44-.01.44-.05.02-2.86-.22-1.49-.4-2.76-.4-2.82 0-.08-.18-.12-.49-.12h-.48l-.27 1.68c-.71 4.49-.68 4.15-.31 4.1.16-.02.22-.14.3-.63Zm6.05.59c0-.03.2-1.29.45-2.81.53-3.25.51-2.95.18-2.91l-.28.03-.31 2.02c-.5 3.2-.49 3.2-.88.33-.34-2.52-.31-2.4-.61-2.4-.32 0-.32-.1.09 2.44.19 1.16.38 2.39.41 2.74l.07.62h.44c.24 0 .44-.03.44-.06Zm3.65-.19.25-.24v-4.9l-.26-.2c-.39-.31-1.26-.29-1.58.02-.24.24-.46 3.81-.3 4.8.13.76 1.32 1.09 1.89.52Zm3.15.15c.48-.26.57-1.6.1-1.6-.29 0-.3.01-.3.5 0 .68-.46.94-.9.5-.2-.2-.31-3.62-.14-4.28.18-.65 1.04-.34 1.04.38 0 .49 0 .5.31.5h.31l-.04-.62c-.09-1.24-1.84-1.62-2.13-.45-.19.76 0 4.79.24 4.98.26.21 1.18.27 1.51.09Zm3.14.04c.46-.18.16-.44-.49-.44h-.65v-2.09l.58-.03c.53-.03.57-.05.57-.28s-.04-.25-.57-.28l-.58-.03V36.9h1.3v-.6h-1.9v5.8h.79c.44 0 .86-.03.95-.06Zm-7.46-.55c-.29-.16-.27-4.43.01-4.59.26-.14.64-.13.79.02.23.23.16 4.45-.07 4.58a.73.73 0 0 1-.73-.01Zm.62-2.28c0-2.12-.04-2.33-.38-2.13-.08.06-.19 3.32-.13 4.1.01.06.12.12.26.12h.25zm-23.2.89c0-.23.27-2.13.36-2.49.03-.14.09-.2.14-.15.1.11.4 1.96.4 2.48v.36h-.45c-.38 0-.45-.03-.45-.2Zm14.34-.36c.31-2.67.49-2.9.74-.96.18 1.43.16 1.52-.39 1.52h-.42zm-6.64.4c0-.29.44-2.61.5-2.68.11-.11.16.09.35 1.41.21 1.42.23 1.33-.35 1.33-.28 0-.5-.03-.5-.06ZM5.8 37.9v-1h.38c.54 0 .62.13.62 1s-.08 1-.62 1H5.8zm15.2 0v-1h.39c.58 0 .71.18.71 1s-.13 1-.71 1H21zm6.14.84c.03-.09.06-.54.06-1v-.84h.38c.54 0 .62.13.62 1 0 .89-.08 1-.68 1-.36 0-.43-.03-.38-.16Zm-20.66-.16c.3-.3.1-1.48-.25-1.48-.1 0-.13.21-.13.8 0 .81.09.97.38.68Zm15.16.06c.31-.12.22-1.44-.09-1.44-.24 0-.25.02-.25.75 0 .74.03.81.34.69Zm6.26-.73c0-.6-.03-.69-.19-.74-.29-.07-.31-.01-.31.75 0 .66.01.68.25.68s.25-.02.25-.69Zm-7.03-3.21c-1.51-.27-2.69-1.55-3.32-3.61-.27-.87-.33-.76 1.81-3.56 1.09-1.43 3.69-5.06 3.88-5.43.17-.33-2.14 2.43-3.35 4.01-1.62 2.1-2.77 3.55-2.97 3.72-.47.42-1.18-.37-2.35-2.63-.41-.8-1.05-1.94-1.41-2.54-1.28-2.11-1.24-2.15 2.72-2.76 2.61-.41 7.99-1.37 7.72-1.39-.16-.01-4.58.58-8.19 1.08l-2.14.31-.32-.2c-1.75-1.08-4.26-9.97-3.08-10.9.47-.37 1.21-.28 1.86.23.31.23 1.09.83 1.74 1.33s1.99 1.55 2.98 2.34c.99.78 2.41 1.86 3.15 2.38.74.53 1.91 1.4 2.58 1.94 1.27 1.01 1.86 1.32.97.52-.76-.69-2.82-2.34-3.6-2.89-1.24-.87-2.95-2.17-4.8-3.64-2-1.6-2.87-2.24-3.87-2.82-.83-.49-.84-.51-.28-2.21 1.59-4.83 4.76-6.97 8.82-5.94 2.13.54 2.21.62 2.37 2.31.15 1.65.5 4.21 1.06 7.95.24 1.62.58 3.93.75 5.13.3 2.15.4 2.57.62 2.57.12 0 .12-.07-.26-3.5-.38-3.38-1.13-9.11-1.43-10.8-.37-2.11-.38-2.39-.14-2.77.72-1.15 1.5-.61 3.47 2.38 1.86 2.82 2.13 2.91 5.34 1.84 3.51-1.16 4-1.03 2.59.7-1.4 1.73-3.71 4.81-5.79 7.71-.48.67-1.34 1.79-1.92 2.5-1.12 1.38-1.44 1.82-1.36 1.89.16.16 8.04-9.84 9.67-12.27.98-1.47 1.06-1.52 2.06-1.45 5.22.36 8.65 6.33 6.34 11.04-.36.75-.42.78-1.44.87-.44.04-2.08.25-3.65.46-1.57.22-4.18.55-5.8.75-6.54.79-7.01.89-7.56 1.46-.25.26-.26.31-.16.71.18.69.21.91.47 3.36.33 3.18.9 6.85 1.16 7.49.29.74.24.92-.41 1.31-1.34.8-3.29 1.24-4.53 1.02Zm1.93-.4c.17-.06 0-.08-.55-.09-2.18-.03-4.05-1.47-4.05-3.12 0-.39.23-.13.48.56.74 2 2.85 2.71 5.47 1.85.62-.2 1.01-.28 1.03-.22.05.16.52-.07.52-.25 0-.08-.09-.31-.2-.53s-.2-.49-.2-.62c0-.17-.06-.12-.3.25-.16.26-.37.5-.45.53-.08.04-.15.12-.15.19 0 .6-2.82.55-3.72-.06-.73-.48-2.18-2.58-2.18-3.14 0-.23.31.04.49.43.12.26.31.58.42.72l.2.25-.06-.26c-.18-.75.6-1.44 1.3-1.14.99.41.7 1.85-.38 1.85h-.38l.48.41c.92.8 1.61.93 1.55.3-.03-.32.01-.45.22-.65.54-.55 1.36-.17 1.36.64 0 .46 0 .46.54.2.74-.35.83-.92.52-3.3-.08-.63-.27-2.26-.41-3.63-.23-2.23-.4-3.45-.48-3.54-.02-.01-.59.77-1.27 1.75-1.53 2.18-2.98 4.15-4.02 5.45-1.03 1.3-1.04 1.58-.17 3.28.78 1.55 2.78 2.4 4.39 1.89Zm3.48-1.68c-.26-.29-.27-.36-.38-1.58-.07-.65-.23-1.77-.36-2.49-.13-.71-.31-2.04-.4-2.94a62 62 0 0 0-.48-3.99c-.1-.65.49-.31 2.99 1.74.94.76 2.41 1.9 3.27 2.53 2.33 1.68 2.3 1.42.39 3.32-2.69 2.7-4.56 3.96-5.03 3.41Zm-3.11.02c.52-.14.3-1.04-.26-1.04-.34 0-.53.2-.53.55 0 .46.27.63.79.49Zm4.09-.42c.96-.65 3.28-2.56 3.79-3.11.2-.23-1.92 1.15-3.29 2.13-.7.5-.96.6-.96.37 0-.09 1.58-1.24 2.95-2.13.91-.6 1.62-1.22 1.98-1.72.19-.27.41-.12.26.17l-.12.22.22-.2c.51-.45.52-.45-1.17-1.66-.86-.62-2.15-1.6-2.87-2.19-3.2-2.61-3.07-2.52-2.94-2.08.13.45.27 1.75.39 3.48.05.8.21 2.06.35 2.8s.3 1.91.36 2.59c.14 1.72.25 1.87 1.05 1.33ZM21 31c.39-.39.05-1.2-.5-1.2-.34 0-.73.46-.66.78.14.57.78.8 1.16.42Zm5.57-.07c-.12-.11-.08-.33.06-.33.4 0 3.53-2.63 3.83-3.22.19-.36.61-.58.74-.38.3.48-.84 1.59-3.57 3.48-.75.51-.93.59-1.06.45Zm-9.63-1.6c.33-.39 2.27-2.92 2.54-3.29l.22-.31-.45.05c-.84.09-1.41-.8-1-1.58.5-.96 2.04-.5 1.92.56l-.04.42.7-.86c.98-1.21 1.81-2.17 2.46-2.84.63-.66.63-.66-.75-.38-1.84.36-4.98.9-7.08 1.2-3.25.48-3.19.41-1.86 2.5.26.41.73 1.27 1.05 1.9.68 1.35 1.15 2.12 1.58 2.58.38.39.42.39.71.05Zm9.75-.22c-.74-.75.08-1.94 1-1.47.61.32.71 1.07.2 1.5-.41.35-.83.34-1.2-.03Zm-10.55-.23c-.28-.34-.33-.45-.79-1.66-.15-.41-.54-1.11-.89-1.6-.59-.81-1.16-1.82-1.16-2.03 0-.29.31-.01.6.53.17.35.54.92.8 1.28.56.77.68.99 1.09 2.06.18.45.45 1 .61 1.22.26.37.29.52.09.52-.04 0-.2-.15-.35-.32Zm11.65-.04c.27-.34.26-.5-.04-.79-.6-.61-1.47.22-.9.85.26.29.69.26.94-.06Zm-5.56.05c-.91-.27-1.21-1.49-.52-2.18.8-.81 2.19-.25 2.19.88 0 .96-.77 1.56-1.67 1.3Zm1.04-.41c.77-.63.31-1.88-.69-1.88-1.08 0-1.36 1.57-.34 2.01.26.11.83.04 1.03-.13Zm-6.35-.21c-.12-.12-.4-.63-.63-1.12-.22-.5-.65-1.21-.94-1.6-.54-.72-.78-1.25-.9-2.06-.11-.74.41-.95.59-.23l.07.25.25-.2c.56-.44 1.42-.35 1.89.2.52.63.23 1.74-.53 2.07l-.38.16.48 1c.26.56.54 1.12.61 1.26.26.5-.11.7-.51.27Zm12.15-.38c-.43-.25-.41-1.16.03-1.39.52-.28 1.3.15 1.3.72 0 .52-.85.95-1.33.67Zm.85-.36c.36-.33.11-.83-.42-.83-.31 0-.5.22-.5.57 0 .42.57.58.92.26Zm-3.44-.49c-.32-.17-.58-.61-.58-.98 0-1.19 1.65-1.5 2.18-.42.45.91-.69 1.9-1.6 1.4Zm6.45-.21c-.23-.16-.72-.5-1.1-.77-.37-.27-1.06-.76-1.53-1.1-.47-.33-1.23-.92-1.7-1.31s-1.51-1.22-2.32-1.84c-1.54-1.18-1.66-1.3-1.2-1.23.15.02 1.19-.08 2.32-.23 3.74-.47 8.12-1.05 10.4-1.36 3.21-.44 3.78-.47 4.13-.19.49.39.38.59-.87 1.7-.63.56-1.7 1.62-2.38 2.37-1.29 1.43-2.17 2.25-3.58 3.34-1.32 1.02-1.49 1.07-2.17.62Zm-5.35-.13c.47-.44.41-1.11-.12-1.37-.62-.29-1.26.07-1.26.72 0 .72.87 1.13 1.38.65Zm6.63-.22c1.25-.89 2.05-1.66 2.92-2.82.83-1.11 3.29-3.76 3.49-3.76.27 0-.06.47-1.15 1.58-.67.7-1.31 1.38-1.42 1.51-.11.14.43-.39 1.2-1.18.76-.78 1.67-1.65 2.02-1.93.69-.55.76-.72.37-.9-.27-.13-.36-.12-5.09.51-1.6.22-9.68 1.27-10.47 1.37l-.47.06 1.18.85c.66.46 1.62 1.22 2.15 1.68.52.46 1.35 1.11 1.83 1.43.48.33 1.26.89 1.73 1.26.97.75 1.1.78 1.71.34Zm-18.06-.7c0-.27.04-.33.32-.4 1.2-.32.9-2.19-.34-2.05-1.13.12-1.04 1.2.12 1.58.5.16.5.17.21.24-.48.13-.95-.19-1.33-.9-.18-.33-.33-.55-.33-.48 0 .28.42 1.22.66 1.44.14.13.34.38.45.56.25.4.24.4.24.01Zm17.42.05c-.03-.05.28-.37.69-.73 1.72-1.5 4.98-5.06 4.92-5.36-.02-.12-.45.29-1.38 1.32-2.09 2.31-4.53 4.75-4.64 4.64-.06-.06.39-.59 1.25-1.47a83 83 0 0 0 2.18-2.33c2.2-2.48 2.52-2.75 2.79-2.48.42.42-.05 1.06-3.08 4.11-2.14 2.15-2.59 2.53-2.73 2.3Zm-13.88-.59c.44-.56.14-1.28-.54-1.28-.45 0-.75.31-.75.77 0 .7.87 1.04 1.29.51Zm10.13-1.34c-1.23-.75-.73-2.5.72-2.5.49 0 1.11.57 1.21 1.13.2 1.04-1.03 1.92-1.93 1.37Zm3.24-.15c-1.14-.6-.41-2.31.77-1.81.82.34.83 1.42.02 1.8-.41.2-.43.2-.79.01Zm-2.13-.06c.32-.14.57-.59.57-1.02 0-.88-1.16-1.32-1.81-.68-.82.82.18 2.19 1.24 1.7Zm3.02-.34c.32-.31.32-.69-.01-1.02-.46-.46-1.18-.14-1.18.53 0 .68.72.97 1.19.49Zm-13.6-.1c-.33-.32-.31-.6.05-.97.48-.48 1.2-.19 1.2.49s-.76.98-1.25.48Zm.81-.13c.41-.28.05-.93-.42-.77-.32.11-.44.46-.24.71.13.15.48.19.66.06Zm-7.54-1.57c.03-.03-.07-.19-.23-.36-.38-.41-.38-.42-1.29-4.88-.87-4.29-.87-4.29-.64-4.38.38-.14.61.54 1.04 3.07.12.69.3 1.59.4 2 .11.41.3 1.34.44 2.06.13.72.33 1.52.45 1.79.11.26.18.52.15.57-.04.06.01.08.12.05.22-.07 4.4-.67 7.08-1.01 1.03-.14 1.9-.26 1.91-.28.06-.05-1.93-1.59-3.45-2.68-1.43-1.02-1.71-1.23-4-3.05-.63-.5-1.6-1.26-2.15-1.68-.55-.41-1.31-1.01-1.68-1.31-.73-.6-1.29-.74-1.72-.42-.6.43.58 6.05 1.8 8.61.61 1.28 1.47 2.2 1.77 1.9Zm20.83-.3c-.52-.51-.14-1.39.6-1.39.29 0 .43.07.61.28.49.56.13 1.36-.61 1.36a.77.77 0 0 1-.6-.25Zm.93-.11c.41-.28.18-1.04-.31-1.04-.53 0-.77.75-.35 1.04.12.09.27.16.33.16s.21-.07.33-.16Zm-20.01-1.09c-.72-.25-1.02-.71-.95-1.47.1-1.02 1.2-1.6 2.06-1.08 1.45.89.49 3.11-1.11 2.55Zm-3.25-.08c-.12-.16-.39-1.01-.47-1.52-.07-.46-.72-3.27-1.21-5.29-.2-.8-.31-1.43-.26-1.48.21-.21.29.07 1.37 4.82.2.91.47 2.07.6 2.58.21.87.2 1.18-.03.89Zm4.44-.38c.78-.73.29-1.99-.76-1.99-1.22 0-1.57 1.66-.47 2.16.41.18.93.11 1.23-.17Zm1.99.06c-.51-.5-.11-1.55.59-1.55.41 0 .9.51.9.93 0 .79-.94 1.18-1.49.62Zm8.65-.04c2.22-.31 5.99-.79 7.54-.96.77-.09 2.3-.29 3.4-.46 1.11-.16 2.44-.32 2.96-.36 1.12-.07 1.19-.11 1.55-1 1.84-4.6-1.2-9.77-6.06-10.28-.96-.1-.99-.08-1.99 1.38-.49.73-1.62 2.27-2.51 3.42-.9 1.16-2.07 2.69-2.62 3.4-.55.72-1.72 2.17-2.6 3.24-1.2 1.45-1.54 1.92-1.36 1.88.13-.03.89-.15 1.69-.26Zm-7.65-.16c.42-.41.18-1.05-.39-1.05-.25 0-.66.41-.66.67 0 .19.45.63.65.63.09 0 .27-.11.4-.25Zm3.66-2.11c-.17-1.04-.42-2.63-.56-3.54-.15-.91-.35-2.19-.45-2.85-.35-2.22-.7-5.19-.77-6.53l-.06-1.33-.38-.19c-1.26-.65-3.43-.95-4.76-.67-2.48.53-4.32 2.62-5.43 6.14-.38 1.19-.37 1.24.27 1.57.66.33 2.53 1.68 3.87 2.8.61.51 1.7 1.37 2.41 1.91l1.3.97-.9-.85c-.49-.48-1.45-1.33-2.12-1.89-1.07-.91-1.41-1.28-1.15-1.28.09 0 2.11 1.7 3.37 2.84.55.5 2 1.76 3.22 2.79s2.25 1.92 2.28 1.98c.17.26.14-.12-.14-1.87Zm4.42-1.89c1.33-1.88 4.74-6.4 5.66-7.49.5-.6.91-1.13.91-1.18 0-.21-1.05.05-3.35.84-2.8.95-3.38.71-5.31-2.24-.94-1.44-2.08-2.78-2.35-2.78-.22 0-.69.62-.69.9 0 .15.09.7.19 1.21.24 1.18.93 5.95 1.21 8.34.11.99.29 2.43.4 3.2s.22 1.65.25 1.95c.12 1.12.05 1.14 1.27-.37.61-.76 1.42-1.83 1.81-2.38Zm2.36 3.11c-.86-.49-.82-1.85.06-2.22 1.27-.53 2.34 1.02 1.37 1.99-.36.35-1.02.46-1.43.23Zm1.22-.45c.6-.6.19-1.61-.66-1.61-.45 0-.95.45-.95.85 0 .93.97 1.39 1.61.76Zm3.35-.17c-.56-.56-.2-1.44.59-1.44.35 0 .48.05.64.26.69.88-.45 1.96-1.23 1.18Zm1.1-.29c.42-.64-.47-1.29-.96-.7-.16.19-.16.61 0 .8.21.25.77.19.96-.1Zm6.17-.17c.03-.13.15-.57.26-.98.96-3.58-.02-6.36-3.01-8.46-1.02-.72-.95-1 .09-.33 1.79 1.16 3.11 3.02 3.49 4.93.28 1.37-.01 4.06-.51 4.83-.2.3-.39.3-.32.01Zm-.7-.8c.67-1.69.02-4.46-1.47-6.27-.9-1.09-3.14-2.55-4.13-2.7-.48-.07-.62-.24-.23-.29.14-.02.33-.11.42-.19.31-.28 2.66 1.08 3.92 2.27 2.07 1.95 2.91 5.4 1.78 7.34-.33.57-.54.46-.29-.16Zm-27.66.11c-.43-.25-.58-.98-.32-1.49.48-.93 1.95-.51 1.95.55 0 .81-.93 1.35-1.63.94Zm.87-.19c.32-.12.58-.62.5-.94-.23-.92-1.58-.75-1.58.2 0 .6.52.96 1.08.74Zm6.45-.18c-.46-.38-.1-1.32.51-1.32.33 0 .73.43.73.78 0 .64-.72.95-1.24.54Zm4.33-.09c-.85-.42-.84-1.86.02-2.27.47-.22.87-.2 1.27.07 1.35.91.17 2.92-1.29 2.2Zm13.13.05c-1.53-.53-1.84-2.63-.54-3.58 1.33-.96 3.12-.01 3.12 1.65 0 1.41-1.3 2.38-2.58 1.93Zm-16.67-.14c.44-.3.2-.89-.35-.82-.42.05-.57.53-.24.79.28.23.31.23.59.03Zm4.83-.33c.42-.43.42-1.09-.02-1.45-.54-.46-1.38-.26-1.59.38-.34 1.04.85 1.83 1.61 1.07Zm13.06.18c.38-.14.83-.57.99-.96.69-1.6-1.24-3.13-2.62-2.08-1.56 1.19-.2 3.73 1.63 3.04Zm-6.55-1.38c-1-.63-.95-2.12.08-2.63 1.61-.81 2.98 1.27 1.66 2.51-.37.35-1.27.41-1.74.12Zm1.22-.15c1.25-.52.93-2.36-.42-2.36-1.44 0-1.76 1.85-.42 2.39.34.13.46.13.84-.03Zm-15.39-.5c-1.11-.48-1.16-2.1-.1-2.6.99-.47 2.13.32 2.02 1.41-.1.99-1.05 1.57-1.92 1.19Zm.99-.26c.35-.13.66-.67.66-1.13 0-1.16-1.72-1.47-2.17-.4-.4.97.53 1.91 1.51 1.53Zm6.82-.96c-.19-.18-.21-.65-.04-.82s.73-.15.88.03c.46.56-.33 1.3-.84.79Zm2.36-.82c-.66-.2-1.1-1.1-.8-1.63l.15-.26-.48-.12c-.7-.18-1.16-.56-2.19-1.79-.9-1.09-1.59-1.62-2.08-1.62-.14 0-.21-.09-.26-.31-.09-.48-.08-.5.22-.43.76.17 1.29.52 1.98 1.3 1.99 2.26 2.26 2.39 4.28 1.94 1.55-.34 1.91-.27 1.94.37l.02.33-.34-.17c-.31-.14-.42-.15-.91-.03l-.55.13.19.21c.57.61.27 2.05-.43 2.06-.06 0-.2.02-.31.04-.11.03-.3.01-.43-.02Zm.9-.51c.49-.44.47-1.01-.06-1.47-.43-.37-.43-.37-.01-.53.21-.08.22-.09.05-.05-1.31.31-2.36.13-3.12-.53-.44-.39-.47-.41-.18-.09.47.5.85.72 1.55.9.72.19.72.19.46.52-.71.9.45 2.02 1.31 1.25Zm-5.12.12c-.56-.2-.83-.89-.56-1.41.47-.91 1.86-.62 1.86.38 0 .79-.62 1.28-1.3 1.03Zm.85-.43c.27-.3.25-.88-.04-1.11-.72-.58-1.66.46-1.01 1.11.27.27.81.26 1.05 0Zm-11.31-.04c-.98-.44-1.04-1.8-.11-2.36.79-.48 1.84.07 1.94 1.02.1.97-.95 1.74-1.83 1.34Zm1.06-.33c.68-.4.68-1.43 0-1.78-.45-.23-.85-.19-1.22.14-.93.83.15 2.28 1.22 1.64Zm22.13 0c-.58-.11-.8-.92-.39-1.39.49-.58 1.46-.2 1.46.56 0 .52-.53.93-1.07.83Zm.59-.4c.36-.32.12-1.03-.35-1.03-.49 0-.75.64-.4 1.02.2.22.51.23.75.01Zm-26.07-.8c.42-2.98 2.46-5.4 5.15-6.09 1.25-.32 3.3-.08 4 .46.44.33.12.46-.44.16-1.42-.76-3.73-.56-5.23.44-.66.44-1.36 1.04-1.11.95.15-.06.16 0 .11.47-.17 1.63 1.87 2.38 2.66.98.49-.87.03-1.95-.92-2.21-.48-.13-.36-.35.13-.24 1.07.23 1.61 1.71.97 2.66-1.05 1.55-3.47.59-3.13-1.24l.06-.32-.36.4c-.57.65-1.22 2.08-1.42 3.1-.14.7-.22.91-.36.93-.15.03-.17-.02-.11-.45Zm6.07.12c-.36-.3-.47-.66-.32-1.1.35-1.05 1.9-.76 1.9.35 0 .87-.92 1.3-1.58.75Zm1.07-.19c.23-.18.33-.57.21-.87-.22-.52-1.04-.58-1.29-.1-.4.73.43 1.48 1.08.97Zm-8.25-.19c-.28-.74 1.87-4.43 3.18-5.46 1.31-1.02 3.81-1.82 4.12-1.32.08.12-.18.21-.63.21-2.37 0-5.07 2.51-6.11 5.69-.32.97-.45 1.17-.56.88Zm16.45-.87c-.45-.24-1.07-.91-2.22-2.45-.5-.66-1.19-1.54-1.54-1.96-.67-.82-.71-.89-.49-.89.18 0 .86.8 2.06 2.4 1.03 1.38 1.96 2.4 2.47 2.71.6.37.36.53-.28.19Zm2.81-.18c0-.16 2.47-1.22 2.83-1.22.57 0-1.52 1.02-2.6 1.27-.13.03-.23.01-.23-.05Zm-6.34-.18c-.2-.19-.21-.58-.02-.73.45-.37 1.2.26.82.68-.23.25-.58.27-.8.05ZM19.25 5.5c-.41-.45-.09-1.2.52-1.2.27 0 .73.41.73.65 0 .65-.83 1.02-1.25.55Zm.79-.16c.3-.3.13-.74-.29-.74-.43 0-.58.39-.28.72.2.22.37.23.57.02ZM.01 1.82C-.02 1.05 1.13-.02 1.97.01c.22 0 .14.05-.31.21C.96.47.39 1 .17 1.61c-.11.31-.16.37-.16.21Zm51.09.04c0-.57-.63-1.27-1.46-1.61-.41-.17-.51-.25-.34-.25.86 0 2.3 1.53 1.86 1.97-.03.04-.06-.01-.06-.11Z"/></svg>