<svg xmlns="http://www.w3.org/2000/svg" width="51" height="51" viewBox="0 0 51 51"><path fill="#fff" fill-rule="evenodd" stroke="#fff" stroke-width=".616" d="M28.4 48.7c-5.85-2.86-8.67-4.2-9.21-4.39-.96-.33-1.93-.82-2.24-1.1-.16-.16-1.97-1.08-4-2.07-2.03-.98-4.64-2.26-5.8-2.85l-2.1-1.07-.22-.54c-.69-1.7-.33-4.09.81-5.45.34-.4.37-.34-.48-.72-.56-.24-.77-.39-.85-.59-.83-2.13-.53-4.45.75-5.82l.45-.48-.63-.35c-1.04-.58-1.36-1.11-1.58-2.66-.29-1.98.41-3.78 2.02-5.12.59-.49 3.21-1.84 6-3.09.43-.19.77-.41.78-.47 0-.2 1.01-.73 1.38-.73.26 0 1.75-.68 2.11-.96.02-.02-.11-.26-.29-.53-.95-1.49-1.9-4.18-1.72-4.88.25-.91.46-1.13 1.09-1.13.61 0 .44-.12 1.79 1.31.33.35 1.01 1.01 1.52 1.47l.91.83.25-.49c.22-.44.32-.52.88-.75.81-.32.86-.27.63.72-.1.43-.16.85-.13.93.07.17 5.16 1.55 5.27 1.42.04-.05.21-.74.36-1.54.72-3.81 1.28-4.83 2.26-4.16.2.14.49.28.64.32.3.07 1.03 1 1.57 1.99.56 1.02.5 2.09-.19 3.46-.28.57-.49 1.07-.45 1.1.33.29 2.14.61 2.51.45.58-.27 2.03.14 2.11.59.06.32-.66.1 9.2 2.79 3.37.92 3.4.93 2.75 1.49-.66.58-.86 1.53-.92 4.39l-.05 2.36.31.16c.4.21.39.3-.07.8-.91.99-1.32 6.17-.51 6.45.38.13.37.24-.11.81-.98 1.17-1.38 5.69-.52 5.94.48.13.41.34-.46 1.27-2.68 2.86-4.43 4.87-4.51 5.16-.05.18-.31.59-.57.9-.27.32-.51.62-.56.67-.04.05-.13.04-.21-.02-.11-.1-.24-.02-.63.41-4.73 5.08-5.05 5.38-5.73 5.36-.25 0-1.37-.5-3.61-1.59Zm4.08 1.16c.49-.25 5.79-5.84 5.94-6.27.09-.23.28-.17.28.09 0 .11.1.06.35-.18.19-.19.35-.43.35-.55 0-.31.25-.61 2.82-3.42 2.37-2.6 2.48-2.73 2.28-2.73-.13 0-1.26 1.17-3.35 3.48-.76.83-1.43 1.52-1.48 1.52-.06 0-.08-.32-.04-.86.03-.47.11-1.9.18-3.17l.12-2.32 2.66-2.64c1.57-1.55 2.61-2.66 2.53-2.68-.07-.03-1.13.94-2.42 2.21-1.26 1.24-2.36 2.26-2.44 2.26-.17 0-.17.17.05-4.35.06-1.21.12-2.28.15-2.37s.96-.97 2.07-1.96c3.21-2.86 3.47-3.11 3.17-3.11-.18-.01-.79.47-2.3 1.8-2.31 2.04-2.68 2.34-2.76 2.26-.06-.06.2-4.99.33-6.21.06-.55.05-.58-.13-.47-.66.37-.62.21-.79 3.21-.23 4.1-.25 4.31-.49 4.55-.21.2-4.08 3.67-5.35 4.78-.75.67-1.27.97-1.68.97-.25.01-.26.02-.1.11.25.15.7.05 1.15-.26.2-.14.43-.25.5-.25.14 0 .74-.52 3.9-3.34 1.68-1.5 1.86-1.6 1.78-.93-.16 1.15-.27 2.61-.35 4.44-.1 2.29-.07 2.16-.97 3.03-.38.36-1.64 1.58-2.81 2.72-2.26 2.2-2.64 2.5-3.4 2.69-.46.12-.47.13-.2.22.79.26 1.18-.02 4.13-2.94 2.63-2.61 3.04-2.94 3.04-2.46 0 1.75-.36 5.89-.53 6.22-.06.11-.67.79-1.36 1.5-.69.72-1.9 2.01-2.69 2.87-1.71 1.88-2.13 2.26-2.69 2.41-.27.07-.38.14-.3.19.19.12.55.09.85-.06Zm-1.36-.9c-.1-1.58.76-4.52 1.83-6.23l.26-.43-.26.1c-.63.24-.38.33-8.55-3.25-4.92-2.16-5.91-2.57-5.98-2.5-.23.23 0 5.08.31 6.58l.12.58.8.33c.44.18 2.53 1.18 4.65 2.21s4.5 2.18 5.28 2.56c.79.37 1.47.7 1.5.73s.06.06.07.06 0-.33-.03-.74Zm1.22.21.28-.2-.31-.13c-.33-.14-.7-.66-.72-.99v-.2l-.09.2c-.13.31-.12 1.39.02 1.53s.42.07.82-.21Zm1.51-1.44c.43-.49 1.64-1.8 2.69-2.92l1.91-2.04.12-.92c.12-.96.34-4.77.28-4.84-.1-.09-4.89 4.78-5.33 5.43-1.56 2.25-2.17 4.89-1.36 5.86.47.55.79.45 1.69-.57Zm-15.51-4.9c-.2-1.11-.36-3.75-.33-5.33.01-.74-.04-4.01-.11-7.26-.15-6.97-.17-6.78.79-8.4.98-1.66 1.14-1.79 4.46-3.79l2.96-1.79-.4-.39c-.48-.49-.4-.52-2.67.78-4.37 2.51-4.84 2.86-5.84 4.31-1.16 1.68-1.29 3.83-.8 13.24.06 1.02.15 2.98.2 4.35.17 4.14.23 4.39 1.13 4.8.77.35.76.36.61-.52Zm-1.85-.95c-.04-.35-.12-1.78-.18-3.18-.15-3.55-.05-3.21-1.09-3.65-.48-.21-1.39-.61-2.02-.91-.63-.29-2.45-1.12-4.05-1.84l-2.9-1.31-.33.38c-1.04 1.21-1.43 3.36-.89 4.93l.22.65 1.04.54 1.04.53-.08-.33c-.21-.96-.24-1.19-.25-1.75 0-.86.12-.93.89-.58.34.15.61.29.61.33.01.03.02.47.04.96.01.5.11 1.19.21 1.54l.19.64 3.15 1.54c1.74.84 3.43 1.66 3.76 1.82.33.17.63.3.66.3.03.01.02-.27-.02-.61Zm14.94-1.7c.07-2.24.47-3.58 1.54-5.2.26-.4.52-.79.56-.85.06-.1.02-.11-.18-.03-.15.06-.38.1-.52.1-.3 0-13.19-4.25-14.06-4.64l-.57-.25v2.12c0 1.17.03 2.7.07 3.41l.06 1.29.61.28c.34.15 2.59 1.14 5.01 2.2 6.64 2.9 7.29 3.18 7.36 3.19.04 0 .09-.73.12-1.62Zm5.44-2.61 2.11-2.09.06-1.07c.1-1.81.26-4.13.33-4.75l.06-.6-2.04 1.83c-4.53 4.05-5.43 5.43-5.65 8.66l-.07.92.79.31.79.3.75-.71c.41-.39 1.7-1.65 2.87-2.8Zm5.53.9 1.55-1.69.01-1.81c0-1.52.04-1.95.21-2.62.12-.44.21-.81.2-.81-.01-.01-.95.9-2.09 2.01l-2.08 2.04v.83c0 .74-.09 2.3-.25 4.13l-.05.6.48-.5c.26-.28 1.17-1.26 2.02-2.18Zm-33.94-.14c-.17-.56-.26-1.16-.26-1.79v-.72l-.4-.16c-.52-.21-.5-.22-.5.22 0 1.16.37 2.33.78 2.49.39.16.44.15.38-.04Zm7.55-5.76c-.06-1.28-.11-2.73-.11-3.23 0-1.12.29-.91-2.8-2.09-1.4-.54-3.71-1.44-5.14-2.01l-2.58-1.03-.25.27c-.9.96-1.22 3.34-.67 4.92l.19.55 1.09.47c1.25.56 1.2.56 1-.02-.3-.85-.12-3.46.26-3.84.12-.12 1.15.1 1.29.28.07.08.05.3-.06.72-.29 1.06-.21 2.85.18 3.85.11.28 7.6 3.77 7.67 3.57.02-.05-.01-1.13-.07-2.41ZM42.59 32l2.01-1.95v-1.7c0-1.5.16-3.22.36-3.92.1-.37-.01-.29-1.3.9-.67.61-1.61 1.45-2.08 1.86l-.86.75-.07 1.3c-.14 2.63-.2 4.76-.14 4.74.03-.02.97-.91 2.08-1.98Zm-10.86-.32c.04-1.57.09-1.96.31-2.77.31-1.11.38-1.01-.94-1.41-2.13-.65-8.02-2.53-10.34-3.31-1.73-.58-2.42-.77-2.5-.69-.13.13-.21 3.23-.11 4.55l.07.94.66.27c.72.29 12.5 4.23 12.68 4.23.08.01.13-.55.17-1.81Zm3.45-.2c.87-.79 2.19-1.98 2.94-2.65l1.36-1.22.06-.83c.08-.91.35-5.82.32-5.85-.04-.05-4.23 3.28-4.93 3.93-1.86 1.7-2.77 3.66-2.9 6.24l-.06 1.15.74.32c.41.17.77.32.81.32.04.01.79-.63 1.66-1.41Zm-27.23-.49c-.3-.85-.3-2.25.01-3.71.06-.28.01-.31-.61-.4-.81-.12-.5 4.06.33 4.39.41.17.42.16.27-.28Zm7.88-5.26c.09-3.14.27-3.81 1.38-5.3.92-1.22 1.6-1.71 5.97-4.22.39-.23.72-.44.72-.46s-.33-.14-.72-.25c-1.33-.39-6.3-1.91-8.53-2.61l-2.2-.7-2.05.97c-5.03 2.38-5.63 2.81-6.48 4.6-.26.56-.27.66-.27 2.04.01 2.21.28 2.72 1.77 3.38.45.2.61.43.38.57-.24.15.08.31 3.08 1.49 3.93 1.56 6.75 2.65 6.83 2.66.03 0 .09-.98.12-2.17Zm17.4.6c.55-.88 2.01-2.23 4.35-4.03 2.09-1.61 2.13-1.65 1.85-1.74-.1-.02-2.05-.62-4.33-1.31s-4.22-1.28-4.31-1.31c-.13-.04-.17.06-.22.47-.11.87-.27 1.03-1 .95-.74-.08-.87-.18-.87-.7 0-.22-.03-.64-.06-.92l-.07-.52-1.08-.31c-.59-.17-1.13-.31-1.2-.31-.14 0-5.24 3.04-5.87 3.5-.45.32-1.11 1.21-1.67 2.22l-.36.67.37.16c.56.23 6.97 2.33 10.11 3.3 1.53.48 2.96.92 3.18.99.39.13.4.13.59-.18.1-.17.37-.59.59-.93Zm10.33-2.27 1.69-1.49.06-2.51c.05-1.79.11-2.67.22-3.06.08-.3.14-.56.12-.58-.06-.06-4.06 3.11-4.19 3.32-.13.2-.28 1.92-.41 4.56-.03.63-.08 1.37-.12 1.64l-.05.5.49-.45c.28-.24 1.26-1.11 2.19-1.93Zm-36.35.04c-.87-.34-1.16-1.12-1.16-3.1 0-1.13.32-2.5.58-2.5.21 0 1.16.3 1.21.38.02.04-.05.39-.16.77-.29 1-.29 2.45 0 3.48.35 1.24.33 1.29-.47.97Zm.16-.87c-.26-.9-.28-2.61-.03-3.52.2-.72.19-.73-.3-.75-.37-.01-.38 0-.51.49-.47 1.78-.11 4.07.68 4.32.19.06.35.11.35.12.01.01-.08-.29-.19-.66Zm6.31-1.03c-.09-.06-.85-.28-1.68-.5-1.75-.46-2.65-.85-3.09-1.35-.57-.66-.37-.88.23-.26.51.52 1.22.83 3.05 1.31 1.65.43 1.91.53 1.91.75 0 .17-.17.19-.42.05Zm26.79-2.12c.38-.28.42-.34.26-.4-.26-.1-8-2.46-9.18-2.79-1.17-.34-1.24-.35-1.2-.11.17.83-.68.47 5.8 2.46 4.36 1.35 3.77 1.23 4.32.84Zm2.78-2.23c3.23-2.52 3.3-2.58 3.09-2.67-.11-.04-2.78-.78-5.94-1.64s-5.84-1.62-5.96-1.69c-.19-.12-.31-.07-1.25.47-1.19.69-3.8 2.28-3.92 2.38-.05.04.07.17.27.28.25.15.39.34.52.7l.18.49 1.55.46c.86.25 3.09.92 4.96 1.5 4.45 1.38 4.38 1.36 4.5 1.27.06-.04.96-.74 2-1.55Zm-13 .21c-.03-.17-.09-.58-.14-.92-.27-1.75-.72-2.18-2.78-2.59-.2-.04-.33-.13-.33-.22 0-.2.81-1.54 1.89-3.13 1.81-2.68 2.17-4.02 1.42-5.35-.45-.81-1.06-1.62-1.33-1.76-.17-.09-.14-.01.15.38.2.28.53.85.73 1.27.75 1.58.54 2.19-1.98 5.76-.25.36-.69 1.1-.97 1.65-.64 1.24-.61 1.21-1.1 1.29-.53.08-.6.27-.27.74.7.98.85 1.08 2.01 1.42 1.34.39 1.32.37 1.4 1.13l.07.62.64.01.64.02zm-5.56-3.35c.17-.11.28-.07-2.04-.64-2.67-.66-3.63-.93-5.45-1.52-1.8-.59-3.4-1.05-3.64-1.05-.32 0-.99.33-.84.41.58.32 7.34 2.31 8.5 2.49.73.12 1.53.25 1.78.3.62.11 1.52.11 1.69.01Zm5.46-.92c.7-.45 1.93-1.19 2.73-1.64l1.44-.84-.43-.11c-.24-.06-.57-.15-.72-.2-.33-.11-.38-.08-1.87.78-1.84 1.06-3.9 2.34-3.9 2.41 0 .06 1.02.36 1.36.4.06 0 .68-.35 1.39-.8Zm-4.91.19c.03-.24.11-.94.17-1.56s.16-1.51.23-1.97l.13-.85-.51-.15c-1.03-.29-4.64-1.25-4.7-1.25-.03 0-.06.18-.06.39 0 .38.06.45 1.22 1.53 2.39 2.21 2.88 2.78 2.88 3.39 0 .24.37.89.5.89.05 0 .11-.19.14-.42Zm-.88-.05c-.26-.5-1.43-1.77-2.38-2.58-.51-.43-1.39-1.25-1.95-1.81-.57-.56-1.03-.99-1.03-.97 0 .55 1 1.87 2 2.63.96.73 1.62 1.47 1.92 2.16.23.51.55.69 1.51.83.04 0 .01-.11-.07-.26Zm1.86-.38c.04-.27.16-1.31.28-2.3.38-3.21 1.12-6.83 1.5-7.37.19-.26.13-.38-.21-.38-.49 0-1.51 4.22-1.98 8.2-.12.96-.23 1.9-.26 2.08-.04.32-.03.33.28.3.3-.03.32-.06.39-.53Zm-3.52.05c0-.4-.93-1.42-2.09-2.3-.65-.49-1.55-1.59-1.73-2.12-.05-.13-2.18.83-2.18.99 0 .05.58.67 1.3 1.39l1.3 1.32 1.57.4c1.74.45 1.83.46 1.83.32Zm8.85-2.34c.18-.06.01-.14-.92-.39l-.93-.25-.78 1.11c-1.38 1.95-1.4 1.93.7.67 1.01-.61 1.88-1.12 1.93-1.14Zm-4.52 1.02c.2-.35.56-.92.81-1.27.52-.73.52-.72-.26-.94-.68-.18-.6-.29-.78 1.18-.06.5-.13 1.07-.16 1.28-.08.51-.01.47.39-.25Zm-9.43-.07c0-.05-.39-.45-.87-.89l-.87-.8-.73.36c-.91.45-.91.44.15.72.48.13 1.16.33 1.52.46.76.26.8.27.8.15Zm11.17-2.54c1.3-1.9 1.41-2.58.68-4.03C29.02 4.77 28.47 4 28.3 4c-.18 0-.72 2.26-1.24 5.21l-.06.36.72.21c.4.11.75.21.78.21s.15-.14.27-.32Zm-11.22-.34c1.68-.84 1.82-.5-2.06-4.77-1-1.09-1.37 1.06-.52 3 .34.78 1.26 2.34 1.39 2.34.02 0 .56-.26 1.19-.57Zm2.64-1.69c.01-.22.07-.62.15-.87.16-.53.11-.56-.43-.29-.22.11-.43.34-.58.61l-.23.45.47.48c.54.55.6.51.62-.38Z"/></svg>