<svg xmlns="http://www.w3.org/2000/svg" width="51" height="51" viewBox="0 0 51 51"><path fill="#fff" fill-rule="evenodd" stroke="#fff" stroke-width=".447" d="M19.42 48.92c-.09-.07-.12-.73-.1-2.98l.03-2.89h1.05c1.67 0 2.5.55 2.5 1.67 0 1.06-.78 1.74-2.22 1.93l-.48.06v1.08c0 1.04-.01 1.09-.22 1.15-.3.08-.4.07-.56-.02Zm4.33-.05c-.03-.07-.04-1.4-.03-2.97l.03-2.85h1.05c1.63 0 2.48.46 2.65 1.44.11.67-.6 1.81-1.13 1.81-.3 0-.15.27.68 1.25 1.04 1.23 1.09 1.38.48 1.33-.41-.03-.46-.07-1.33-1.15-.85-1.05-.92-1.12-1.27-1.12l-.38-.01v1.14c0 .95-.03 1.15-.16 1.2-.26.1-.54.07-.59-.07Zm6.58.03c-2.57-.52-3.06-4.37-.7-5.56 1.74-.89 3.69.12 4.06 2.09.38 2.07-1.36 3.87-3.36 3.47ZM19.9 47.56v-1.13l.65-.06c1.33-.13 2.05-.69 2.05-1.61 0-.96-.58-1.36-2.07-1.44l-.93-.05v2.72c0 2.34.02 2.71.15 2.71.12 0 .15-.19.15-1.14Zm4.32-.03.03-1.18.55-.02.55-.03.4.52c.85 1.09 1.47 1.78 1.61 1.78.08 0-.25-.48-.76-1.09-1.06-1.28-1.04-1.19-.38-1.51.69-.33.93-.67.93-1.32 0-.92-.82-1.38-2.45-1.38H24V46c0 1.67.04 2.7.1 2.7.05 0 .11-.5.12-1.17Zm7.44 1.02c1.45-.43 2.2-2.23 1.54-3.72-.89-2.01-3.68-2.04-4.59-.03-.96 2.12.89 4.4 3.05 3.75Zm-1.74-.26c-1.76-.88-1.75-3.79.02-4.6 1.96-.89 3.87 1.16 3.11 3.32-.44 1.24-1.96 1.86-3.13 1.28Zm1.75-.2c.9-.34 1.43-1.49 1.22-2.64-.46-2.5-3.99-2.12-3.99.43 0 1.7 1.32 2.76 2.77 2.21ZM19.9 44.86V43.5h.58c2.58 0 2.67 2.49.1 2.68l-.68.05zm4.32-.02.03-1.29.85.01c1.24 0 1.82.38 1.82 1.17 0 .87-.58 1.28-1.9 1.35l-.83.05zm-2.75.87c.5-.23.65-.48.61-1.03-.04-.57-.38-.81-1.23-.86l-.65-.04v2.12h.42c.24 0 .62-.09.85-.19Zm4.39-.02c.45-.14.78-.53.78-.93 0-.63-.53-.96-1.54-.96h-.6v2.11l.53-.07c.28-.03.66-.1.83-.15ZM0 40.6c0-.2.07-.2 25.43-.2 25.62 0 25.67 0 25.67.32 0 .04-11.5.08-25.55.08C.07 40.8 0 40.8 0 40.6Zm18.4-3.06c-.79-.13-1.1-.27-1.1-.48 0-.38.17-.45.67-.3.9.27 1.74.09 1.94-.42.18-.48-.03-.77-.94-1.25-1.69-.91-2.05-1.99-.91-2.7.7-.43 2.54-.29 2.54.2 0 .4-.22.53-.62.36-.58-.24-1.24-.2-1.53.1-.46.45-.2.86.88 1.39 1.14.56 1.37.83 1.37 1.63 0 .99-1.06 1.67-2.3 1.47Zm3.6 0c-1.01-.2-1.18-.35-.87-.77.11-.16.15-.16.61-.01.97.33 1.96.02 1.96-.62 0-.44-.26-.69-1.17-1.15-1.5-.76-1.8-1.91-.68-2.65.58-.38 2.37-.23 2.43.21.05.39-.12.5-.56.37-.99-.3-1.71-.05-1.72.59 0 .32.18.48.96.87 1.44.72 1.9 1.63 1.28 2.57-.3.45-1.41.75-2.24.59Zm8.85-.03c-2.97-.78-2.42-5.35.65-5.35 3.38 0 3.55 5.09.18 5.38-.29.03-.66.02-.83-.03ZM8.89 35.83c0-.93-.02-2.01-.05-2.42-.09-1.27-.12-1.24 1.14-1.19 1.51.05 2.22.53 2.22 1.52 0 .78-.88 1.66-1.66 1.66-.12 0-.36.03-.53.06l-.31.06v1.98h-.8zM12 37.4c0-.1 1.64-4.11 2.01-4.94.1-.21.19-.26.49-.26h.37l.73 1.82c1.34 3.37 1.36 3.48.81 3.48h-.39l-.19-.62-.19-.63-1.09-.03c-1.28-.02-1.26-.03-1.52.68-.2.53-.22.55-.62.58-.26.02-.41-.01-.41-.08Zm13.3-2.54V32.2h.98c1.26 0 1.75.22 2.1.92.5 1-.19 2.07-1.45 2.24-.89.12-.82.03-.85 1.12l-.03.97-.37.03-.38.03zm9.4 0V32.2h1.03c.87 0 1.1.04 1.47.23 1.18.59 1.2 2.04.04 2.62l-.4.2.84.98c.9 1.04.97 1.27.39 1.27-.29 0-.41-.1-1.16-1-.7-.85-.87-1-1.11-1h-.29l-.03.98-.03.97-.37.03-.38.03zm5.2.34v-2.3h-1.5v-.7l1.93.02 1.92.03v.6l-.77.03-.78.03v4.59h-.8zm-20.05 1.86c.62-.41.78-1.25.34-1.72-.13-.14-.59-.44-1.02-.66-1.09-.57-1.4-1.06-1.06-1.7.23-.43 1.19-.61 1.84-.34.4.17.48.05.1-.12-.7-.32-1.93-.04-2.2.49-.34.65-.06 1.11 1.09 1.73 1.09.6 1.26.77 1.26 1.33 0 .92-1.4 1.44-2.42.91-.11-.05-.18-.05-.18.01 0 .31 1.81.36 2.25.07Zm3.81.01c.57-.29.72-1.14.3-1.64-.14-.16-.61-.49-1.06-.73-1.14-.61-1.38-.98-1.09-1.64.23-.51 1.22-.7 2.04-.4.16.06.18.05.07-.07-.36-.38-1.84-.19-2.22.29-.52.65-.21 1.24.98 1.87 1.28.67 1.66 1.42 1.04 2.04-.4.41-1.77.5-2.33.16-.05-.04-.09-.02-.09.04s.12.13.28.17c.15.03.31.08.37.1.23.09 1.42-.04 1.71-.19Zm8.57.12c1.86-.51 2.17-3.52.46-4.48-1.64-.93-3.49.23-3.49 2.17.01 1.71 1.4 2.77 3.03 2.31ZM9.4 36.21v-.98l.66-.06c1.29-.12 1.91-.65 1.81-1.54-.08-.77-.65-1.11-1.97-1.15l-.75-.03-.03 2.38c-.02 2.06 0 2.37.13 2.37.12 0 .15-.17.15-.99Zm3.42.44c.27-.68.2-.65 1.61-.71 1.43-.06 1.41-.06 1.68.83.09.33.39.62.39.4 0-.04-1.18-3.07-1.56-4-.44-1.07-.5-1.01-1.59 1.59-.5 1.21-.95 2.26-1 2.33-.05.09-.02.12.1.09.1-.02.26-.24.37-.53Zm12.98-.44v-.99l.63-.07c1.14-.13 1.69-.49 1.83-1.19.16-.87-.49-1.41-1.85-1.52l-.81-.07v2.42c0 1.54.04 2.41.1 2.41s.1-.4.1-.99Zm5.22.9c-2.4-.61-2.03-4.51.43-4.53 2.71-.03 2.97 4.23.28 4.56-.21.03-.53.01-.71-.03Zm4.18-.91v-1h.97l.79.92c.42.51.81.97.85 1.02.04.04.12.07.19.04.06-.02-.25-.46-.7-.98-.94-1.1-.92-1.04-.37-1.28.58-.26.79-.53.84-1.09.09-.89-.42-1.26-1.89-1.38l-.88-.07v2.41c0 1.54.04 2.41.1 2.41s.1-.4.1-1Zm5.22-1.27.03-2.28.78-.03c.42-.02.77-.07.77-.12 0-.12-.74-.13-2.3-.02l-1.15.07.8.05.8.05.03 2.28c.01 1.37.06 2.27.12 2.27s.11-.9.12-2.27Zm-8.25 1.82c1.9-.8 1.37-3.95-.67-3.95-1.14 0-1.87.92-1.78 2.25.09 1.38 1.26 2.19 2.45 1.7Zm-18.96-1.07c.01-.25 1.14-2.81 1.25-2.85.12-.04 1.25 2.77 1.17 2.9s-2.43.08-2.42-.05Zm2.05-.35c-.04-.1-.23-.6-.43-1.11l-.36-.92-.39.92c-.6 1.41-.64 1.28.37 1.28.79 0 .87-.02.81-.17Zm-5.84-1.49.03-1.19.42-.03c.95-.07 1.83.45 1.83 1.08 0 .78-.53 1.2-1.63 1.28l-.68.05zm16.4-.01.03-1.18.66.01c.82.01 1.29.25 1.45.74.3.9-.47 1.6-1.74 1.6h-.43zm9.4 0 .03-1.18.3-.03c.7-.08 1.38.09 1.72.43.86.86-.05 1.95-1.64 1.95h-.44zm-24.37.73c1.01-.43.61-1.54-.6-1.64l-.55-.04v1.82h.4c.22 0 .56-.06.75-.14Zm16.35-.04c1.02-.51.56-1.62-.67-1.62h-.43v1.8h.38c.2 0 .53-.08.72-.18Zm9.23.09c1.49-.35 1.05-1.71-.54-1.71h-.39v1.8h.27c.16 0 .45-.04.66-.09Zm-8.74-8.14c-1.03-3.11-3.21-9.5-5.59-16.36l-.77-2.25-1.08 3.25c-1.65 4.96-3.53 10.4-3.65 10.53-.1.13-1.44.15-1.56.03-.06-.05.97-3.05 4.81-14.02l1.61-4.6 1.9-.08c2.42-.11 3.31-.04 3.4.26.11.37 4.99 14.11 7.49 21.12 1.4 3.91 1.85 5.25 1.85 5.47 0 .17-.2.18-3.62.18l-3.63-.01zm8.07 3.2c.03-.02-.65-2-1.5-4.38-4-11.21-6.59-18.53-7.32-20.63l-.47-1.38-2.38.04c-1.31.02-2.4.06-2.44.09-.06.07-1.01 2.75-2.95 8.34-1.3 3.75-3.23 9.28-3.34 9.55-.05.13.02.14.5.1l.56-.05.26-.7c.14-.38 1.2-3.51 2.37-6.95 1.69-5 2.15-6.25 2.29-6.25.12 0 .26.28.55 1.15.22.63 1.1 3.2 1.96 5.7 1.77 5.13 3.87 11.28 4.64 13.6.28.85.55 1.61.59 1.67.11.18 6.51.28 6.68.1Z"/></svg>