<svg xmlns="http://www.w3.org/2000/svg" width="51" height="51" viewBox="0 0 51 51"><path fill="#fff" fill-rule="evenodd" stroke="#fff" stroke-width=".437" d="M14.68 42.34c-.04-.03-.02-.18.02-.32.2-.62 3.19-10.09 3.25-10.29.22-.78.92.24 1.41 2.07l.26.98-.21.63c-.11.34-.2.64-.18.65.02.02 1.18-.81 2.59-1.85 3.74-2.74 3.93-2.86 4.2-2.74.13.06 1.27.86 2.53 1.79 3.18 2.32 3.89 2.83 3.92 2.81.01-.02-.32-1.06-.72-2.32-.41-1.27-.78-2.44-.81-2.6-.18-.98 1.88-4.52 3.32-5.71.55-.44.79-.35.46.18-.23.39-.92 2.09-.92 2.29 0 .25.18-.06.55-.96.2-.49.59-1.32.87-1.83.59-1.09.57-1.2-.11-.62-1.31 1.09-2.73 2.85-3.71 4.58-.64 1.12-.72 1.13-1.04.14-.45-1.44-.5-1.86-.34-2.95.14-.97.14-.98-.06-.93-.12.02-.38.08-.58.11l-.38.07v.72c-.01 2.57-1.69 4.22-3.73 3.65-.83-.23-1.59-1.33-1.43-2.1.07-.37.11-.38-.92.25-.83.52-.88.57-1.14 1.18-.15.34-.54 1.28-.88 2.07-1.12 2.64-1.23 2.78-1.55 1.89-.4-1.14-.74-1.65-1.39-2.03-.19-.11-.53-1.44-.4-1.54.45-.32 1.68-1.11 1.75-1.11.05 0 .09-.03.09-.07 0-.05-.24-.06-.54-.05l-.55.04-.15-.52c-.08-.28-.18-.67-.22-.87-.04-.22-.1-.31-.16-.25s.02.42.21.97c.36 1.01.35.95.17.95-.15 0-2.56-1.74-2.68-1.93-.1-.16-.02-.25.42-.47.54-.28.68-.25.79.13.11.37.14.15.05-.32-.08-.4-.07-.4-1.2.23l-.96.54-.72 1.33c-.83 1.57-.95 1.64-1.13.64-.2-1.17-.17-1.37.33-2.36.25-.5.44-.93.41-.95-.02-.02-.51.12-1.09.32l-1.06.35-1.09 2.36c-1.14 2.48-1.26 2.65-1.41 2.11-.05-.18-.21-.63-.35-.99l-.25-.67.35-.78c.59-1.36.57-1.27.26-1.2-2.36.57-2.56.7-3.87 2.49-.44.59-.84 1.06-.89 1.04-.06-.02-.25-.38-.44-.81l-.34-.77.58-.72c2.54-3.16 7.07-7.15 10.69-9.43 1.08-.67 1.15-.67 1.29.14l.12.64-.4.61c-.22.34-.96 1.36-1.64 2.25-1.2 1.58-1.36 1.85-.96 1.64.38-.21 2.06-.72 2.34-.72.29 0 .29 0 .29.6 0 .7-.04.68.63.31.95-.53 1.58-.76 1.67-.61.04.07.11.61.15 1.2l.07 1.07 1.01-1.01c1.36-1.36 2.75-2.09 4.17-2.18l.45-.03.03.63c.04.81-.11 1.52-.48 2.3-.16.34-.27.62-.25.62s.59-.35 1.27-.77c2.01-1.25 3.08-1.84 3.26-1.81.14.03.18.16.2.68.03.76.02.78-.59 1.13-.69.4-1.5 1.09-1.86 1.59l-.32.45.3.29c.65.62 1.71.31 2.37-.69.26-.4.27-.44.25-1.73l-.03-1.33.48-.06c.76-.11 1.41-.34 2.41-.87 1.32-.71 1.47-.37.91 1.98-.1.44-.17.8-.16.81.01.02.31-.34.67-.79 1.18-1.49 2.86-2.98 3.37-2.98.06 0 .13.3.17.68.03.37.07.75.08.85.01.11.21-.15.5-.63.66-1.1.8-1.08 1.02.11l.16.91-.35.6c-.2.32-.36.62-.36.64 0 .03.26-.13.59-.35 1.8-1.23 4.27-2.11 5.89-2.11h.59l.07.38c.2 1.2.08 2.29-.35 3.13-.32.65-.37.8-.22.75 1.09-.34 3.86-.56 4.09-.33.04.04-.01.38-.12.75l-.19.67-.55.02c-2.05.09-3.56.46-4.54 1.12-.72.48-.71.48-.87-.39-.11-.63-.14-.69-.29-.58-1.46 1.1-2.09 1.34-2.68 1.04-.33-.17-.35-.21-.52-1.09-.13-.67-.06-.96.44-1.8l.34-.56-.6.37c-1.19.74-2.5 1.99-3.05 2.93-.25.43-.38.36-.58-.31-.1-.33-.2-.6-.22-.6-.04 0-.5.35-1.06.8-.04.04.1.56.31 1.16.46 1.26 2.94 8.92 3.47 10.68.47 1.57.43 1.59-.97.56-1.64-1.22-8.76-6.32-9.42-6.75-.66-.45-.26-.64-3.31 1.6-6.56 4.82-8.26 6.01-8.37 5.89Zm1.47-1.23c2-1.44 6.08-4.41 7.3-5.31 1.75-1.29 2.21-1.6 2.38-1.6.14 0 6.16 4.26 9.37 6.62.79.59 1.46 1.06 1.47 1.04.06-.06-3.04-9.74-3.73-11.63-.42-1.16-.43-1.04.17-1.48.44-.33.49-.41.44-.65-.06-.26.1-.82.5-1.75l.17-.4-.27.25c-1.01.93-2.75 3.92-2.75 4.72 0 .11.38 1.4.85 2.86s.85 2.71.83 2.79c-.04.17-.49-.14-3.53-2.38-2.58-1.89-3.42-2.49-3.51-2.49s-.87.55-4.17 2.98c-1.53 1.12-2.81 2.01-2.84 1.98-.04-.03.06-.47.22-.96l.27-.91-.27-1.02c-.23-.85-.72-2.04-.81-1.95-.01.02-.66 2.03-1.43 4.48-.78 2.45-1.5 4.71-1.61 5.03-.12.36-.15.55-.07.5.07-.04.53-.36 1.02-.72Zm4.68-10.36 1.02-2.39 1.1-.68c1.21-.73 1.41-.81 1.31-.45-.42 1.43.35 2.47 1.84 2.47 1.55 0 2.55-1.3 2.55-3.33V25.3l.35-.06c.19-.03.59-.12.89-.2.67-.19.64-.25.45.92-.18 1.14-.14 1.74.19 2.88l.23.79.29-.54c.8-1.53 2.04-3.12 3.54-4.49l.91-.85v-.52c0-.28-.04-.54-.08-.57-.31-.19-2.4 1.85-3.52 3.42-.97 1.36-1.05 1.3-.59-.5.34-1.38.48-2.48.31-2.48-.07 0-.34.14-.62.31-.63.39-1.37.67-2.15.83l-.6.13v1.19c0 1.33-.12 1.69-.77 2.31-.78.76-1.69.8-2.42.13l-.41-.38.39-.56c.46-.66.86-1.04 1.78-1.63l.68-.44v-1.01l-.57.32c-.32.18-1.38.82-2.36 1.41-2.28 1.4-2.22 1.4-1.56-.1.34-.78.42-1.08.47-1.77l.05-.83-.39.06c-1.58.23-3.19 1.23-4.47 2.77-.54.65-.57.85-.26 1.9l.11.39.89-.06c.49-.03.89-.02.89.03s-.52.42-1.17.82c-.64.4-1.2.76-1.25.79-.15.1.13 1.18.33 1.24.42.14 1.1 1.14 1.43 2.09.09.27.05.34 1.19-2.29Zm-1.65-.16c-.36-.51-.38-.47.38-.97.85-.55.88-.5.4.52-.47.99-.43.97-.78.45Zm-8.65-3.29.63-1.35 1.3-.42c1.81-.6 1.75-.65.99.85l-.65 1.27.11.55c.06.3.13.62.15.7.03.08.33-.39.69-1.05l.63-1.2 1.13-.62c.63-.35 1.19-.63 1.26-.63.11 0 .33.8.33 1.2 0 .25.11.25.44-.01.29-.23.31-.4.2-1.86l-.07-.82-1.08.55c-1.35.67-1.29.68-1.29-.11 0-.49-.03-.65-.14-.65-.16 0-2.41.77-2.69.92-.64.34-.26-.36 1.38-2.52 1.73-2.27 1.83-2.45 1.74-2.97-.05-.25-.1-.48-.12-.5-.06-.05-2.62 1.72-4.04 2.8-2.47 1.89-5.33 4.59-7.02 6.62l-.79.96.25.59.25.58.88-1.17c.48-.64.95-1.23 1.06-1.32.29-.26 3.37-1.19 3.49-1.07.03.03-.2.57-.5 1.2l-.55 1.16.27.72.27.73.43-.89c.23-.49.71-1.5 1.06-2.24Zm29.16 1.63c.35-.21.99-.73 1.42-1.15.89-.88.99-.88.57-.03-.26.54-.34 1.55-.12 1.55.02 0 .32-.15.66-.34 1.05-.58 2.74-.96 4.2-.96.52 0 .55-.03.72-.74l.07-.29-1.18.06c-.73.04-1.56.16-2.17.32-.55.13-1.02.22-1.05.2-.03-.03.17-.49.43-1.03.5-1.02.53-1.19.48-2.64l-.02-.68h-.52c-1.62.01-3.68.79-5.82 2.19-1.39.93-1.43.9-.61-.54l.46-.8-.12-.62c-.15-.81-.15-.81-.81.35-1.73 3.01-2.14 4.16-1.79 5.05l.11.28.36-.48c.84-1.11 2.02-2.11 3.36-2.83.97-.52 1.1-.45.51.28-.78.96-.97 1.5-.83 2.3.19 1.05.61 1.18 1.69.55Zm-1.19-.81c0-.48 2.1-2.61 3.38-3.42 1.15-.74 1.22-.64.35.43-1.55 1.9-3.73 3.65-3.73 2.99Zm-20.8-.37c-.12-.35-.13-.36-.31-.19-.19.17-.19.18.08.4.35.28.38.25.23-.21Zm22.27-.68c.54-.47 1.93-1.92 1.93-2.03 0-.12-.87.62-1.82 1.55-1.26 1.22-1.33 1.53-.11.48Zm-23.48-.23c-.14-.49-.11-.47-.43-.33-.33.16-.33.19.12.5.45.32.44.32.31-.17Zm2.31.41c0-.51 2.99-2.85 3.65-2.85.63 0-1.18 2.1-2.22 2.57-.55.25-1.43.43-1.43.28Zm1.43-.62c.59-.29 1.19-.83 1.6-1.42l.31-.45-.4.24c-1.02.61-2.7 2.06-2.24 1.94.14-.04.47-.17.73-.31ZM8 25.86c0-.25 4.21-3.96 4.49-3.96.17 0 .18-.01-1.06 1.81l-1.18 1.73-1.05.27c-1.25.33-1.2.33-1.2.15Zm1.67-.56c.38-.1.47-.19 1.11-1.15.39-.58.68-1.05.65-1.05-.07 0-1.52 1.23-2.28 1.93-.59.55-.6.56-.25.47.19-.06.54-.14.77-.2Zm27.97-1.37c-.12-.74-.43-1.86-.53-1.96-.08-.08-.24.04-.55.37-.48.53-.61.53-.7.01-.04-.19-.11-.37-.16-.4-.13-.08-.98.37-1.58.84-.67.53-1.97.63-2.07.16-.03-.14-.07-.36-.1-.5-.07-.33-.1-.33-.9.25l-.69.5h-1.94l-.36-1.06c-.19-.59-.33-1.11-.3-1.15.06-.1 8.68-.12 9.92-.02l.82.06v.88c0 .5.04.91.1.94.06.04.7-.22 1.43-.58 1.98-.97 3.52-1.39 3.52-.97 0 .25-1.47 1.14-2.72 1.65-.65.26-1.58.67-2.06.91-1.07.53-1.05.53-1.13.07Zm2.72-1.13c.14 0 1.67-.72 2.1-.99 1.08-.67-.76-.06-2.63.88-1.51.75-1.63.7-1.63-.68v-.81H28.03l.3.85.3.85h1.63l.71-.5c.94-.66 1.11-.65 1.3.1.16.6 1 .57 1.85-.06.95-.71 1.43-.9 1.74-.7.13.09.24.23.24.31 0 .22.13.18.4-.1.55-.58.96-.27 1.24.95.1.41.19.8.21.87.03.08.44-.07 1.2-.42.63-.3 1.18-.55 1.21-.55Zm-26.96.77c0-.08.43-.71.96-1.4l.95-1.27h4.29c2.49 0 4.31.04 4.34.09.04.05-.06.37-.2.7-.24.56-.3.62-.68.71-.22.06-.75.25-1.16.42l-.75.32-3.35.06c-2.83.04-3.4.08-3.65.21-.49.27-.75.32-.75.16Zm4.35-.67c2.71-.04 3.45-.08 3.65-.19.14-.08.61-.27 1.05-.42.77-.25 1.12-.56 1.15-1.01 0-.05-1.83-.08-4.07-.08h-4.08l-.74.97c-.4.53-.65.92-.55.87.11-.05 1.72-.11 3.59-.14Zm20.89-.34c-.03-.07-.04-.4-.02-.72l.03-.59.6-.32c1.62-.87 3.69-1.52 4.95-1.56l.75-.02v1.4l-.85.07c-1.28.1-2.96.67-4.47 1.49-.79.43-.91.46-.99.25ZM9 22.12c-1.53-1.16-1.53-1.17.32-1.21 1.87-.03 1.96.05.97.87-.85.71-.82.7-1.29.34Zm31.21-.42c1.43-.68 2.73-1.09 3.77-1.17l.72-.06v-.43c0-.42-.01-.44-.29-.44-.97 0-2.86.56-4.56 1.35l-.95.44v.45c0 .25.02.46.04.46s.59-.27 1.27-.6Zm-29.96-.24.3-.25-1.14-.01c-.63 0-1.12.02-1.1.04s.28.22.58.45l.54.4.26-.19c.14-.1.4-.3.56-.44Zm15.23-.73-.28-.04V17.6h.68c1.29.01 1.82.47 1.82 1.57 0 1.19-.86 1.79-2.22 1.56Zm4.43-.11c-1-.5-1.07-2.37-.11-2.87.76-.39 1.66-.07 1.95.69.56 1.46-.59 2.82-1.84 2.18Zm-9.85-1.31c-.08-1.74-.09-1.71.63-1.71 1.5.01 2.19.76 1.5 1.64-.2.26-.2.26-.02.76l.19.51.38-1.13c.58-1.76.59-1.78 1-1.78.43 0 .43 0 .95 1.59.51 1.55.51 1.51-.03 1.51-.38 0-.45-.03-.5-.25-.09-.36-.72-.37-.86 0-.09.23-.13.24-.9.24h-.8l-.25-.5c-.32-.62-.45-.62-.45.01v.5h-.77zm7.96-.13.03-1.53h.8l.03 1.53.03 1.52h-.92zm-6.22.68-.2-.48.25-.2c.19-.15.25-.29.25-.58 0-.51-.33-.7-1.2-.7h-.61l.03 1.22c.03 1.3.2 1.71.32.78.1-.77.52-.74.9.06.34.71.57.62.26-.1Zm1.16.56c.06-.04.14-.17.18-.3.11-.35 1.08-.33 1.24.03.26.56.41.28.21-.37-.72-2.32-.86-2.39-1.43-.73-.53 1.55-.53 1.59-.2 1.37Zm3.66-.02c.55-.16.78-.51.78-1.19 0-.9-.44-1.31-1.4-1.31h-.5v2.6h.38c.2 0 .54-.05.74-.1Zm1.98-1.2c0-1.09-.02-1.3-.15-1.3s-.15.2-.15 1.24c0 1.17.02 1.27.28 1.35.01.01.02-.57.02-1.29Zm2.4 1.17c.76-.38.78-2.02.04-2.36-.62-.28-1.26-.06-1.48.51-.4.98.08 1.98.94 1.98.14 0 .36-.06.5-.13Zm-.75-.17c-.82-.32-.61-2.1.25-2.1.93 0 1.06 1.89.15 2.13-.11.03-.29.02-.4-.03Zm-4.45-1v-1h.38c.49 0 .79.22.91.66.21.75-.23 1.34-.99 1.34h-.3zm5 .6c.4-.4.2-1.4-.28-1.4-.31 0-.44.17-.49.64-.09.78.33 1.2.77.76Zm-4.24.02c.39-.26.4-1 .01-1.27-.41-.28-.47-.2-.47.6 0 .77.1.91.46.67Zm-3.06-.75c.11-.28.2-.53.2-.54 0-.19.2.07.29.38.07.23.15.47.18.55.04.11-.06.14-.41.14h-.46zm-2.8-.42v-.45h.43c.47 0 .67.13.67.45s-.2.45-.67.45h-.43zm.78-.03c-.05-.27-.58-.29-.58-.03 0 .17.06.21.31.21.24 0 .3-.04.27-.18Zm1.22-1.3c0-.43 2.96-9.37 3.12-9.4.17-.03.27.25 1.71 4.63.98 2.96 1.47 4.55 1.47 4.78 0 .16-.11.17-1.27.15l-1.28-.03-.31-.93c-.18-.52-.34-.9-.36-.85-.03.04-.16.47-.29.95l-.24.88h-1.27c-1.15 0-1.28-.02-1.28-.18Zm2.65-1.22c.21-.71.36-1.05.46-1.05.09 0 .27.37.5 1.05l.36 1.05 1.02.03c.55.01 1.01.01 1.01-.02 0-.08-1.76-5.51-2.33-7.21-.3-.88-.57-1.53-.6-1.45s-.49 1.5-1.01 3.15c-.53 1.65-1.14 3.54-1.36 4.2-.22.65-.4 1.23-.4 1.27 0 .05.46.07 1.02.06l1.03-.03z"/></svg>