<svg xmlns="http://www.w3.org/2000/svg" width="51" height="51" viewBox="0 0 51 51"><path fill="#fff" fill-rule="evenodd" stroke="#fff" stroke-width=".382" d="M4.83 51.04c-.85-.42-1.07-.95-1.22-2.84-.06-.74-.24-3.08-.41-5.2-.16-2.12-.43-5.51-.6-7.55-.49-6.07-.78-9.72-1.2-15.05C.6 10.13.39 7.6.2 5.66-.1 2.62-.08 1.24.29.73.87-.07-1.64 0 25.6 0c26.51 0 24.55-.04 25.11.57.53.57.61 1.25.39 3.53-.11 1.13-.54 6.52-1.5 18.7-2.35 29.77-2.1 27.17-2.61 27.74-.63.72 1.27.66-21.41.66-18.48 0-20.46-.02-20.75-.16Zm40.82-.24c.86-.11 1.3-.49 1.39-1.22.07-.49.7-7.86.86-10.08.06-.8.19-2.51.3-3.8s.29-3.59.4-5.1.31-4.08.45-5.7.38-4.75.55-6.95c.28-3.67.49-6.32 1.12-13.68l.23-2.68-.23-.43a1.7 1.7 0 0 0-.61-.64L49.72.3H1.48l-.39.22c-.89.5-.93.78-.64 3.92.13 1.43.31 3.55.4 4.71s.29 3.72.45 5.7.32 3.94.35 4.35.19 2.39.35 4.4.39 4.86.5 6.35.31 4.01.45 5.6c.14 1.6.41 4.97.6 7.5.61 7.9.52 7.55 1.89 7.75.74.11 39.37.11 40.21 0Zm-10.2-2.27c-3.32-.46-4.9-2.86-3.94-5.98.9-2.92 4.91-4.6 8.72-3.67 1.06.26 1.04.21.74 1.49a27 27 0 0 0-.29 1.33c-.03.22-.09.25-.47.28-.76.06-.88-.01-.94-.55-.22-1.97-3.62-.98-4.33 1.25-.86 2.73 1.16 4.47 4.36 3.77 1.08-.24 1.04-.26.97.59-.04.4-.09.8-.13.89-.17.44-3.1.82-4.69.6Zm-17.06-.16c-.94-.27-1.83-1.25-2.87-3.16l-.39-.71-.21.97c-.28 1.26-.28 1.41.03 1.55.3.14.32.25.19 1.06l-.05.32-2.57-.02c-2.89-.03-2.63.05-2.41-.81.08-.31.16-.39.4-.44.55-.11.69-.49 1.5-4.06.55-2.45.55-2.68.09-2.89-.33-.14-.35-.24-.19-.83.16-.56.09-.55 2.62-.55 2.56 0 2.44-.04 2.32.75-.05.39-.11.47-.4.59-.37.16-.39.21-.75 1.75-.11.47-.18.87-.15.89.04.04 1.66-1.29 2.7-2.22.39-.35.4-.36.16-.42-.25-.07-.26-.45-.02-1.06l.11-.28h2.14c2.38 0 2.4.01 2.27.62-.12.5-.16.55-.59.63-.48.08-.55.13-2.51 1.74-.98.81-1.6 1.4-1.57 1.48.3.77 2.79 3.79 3.21 3.88.59.13.58.12.5.63-.04.26-.1.5-.14.54-.14.15-2.93.19-3.42.05Zm4.99.06-.98-.04v-.27c0-.15.07-.56.16-.92.52-2.22 1.44-6.43 1.44-6.6 0-.15-.11-.26-.35-.36-.4-.16-.46-.48-.21-1.09l.15-.35h4.21c3.63 0 4.21.02 4.26.15.03.08-.07.74-.22 1.47l-.29 1.33h-1.3l-.06-.44c-.08-.64-.23-.71-1.59-.71h-1.15l-.23 1.03c-.12.56-.22 1.08-.22 1.15 0 .09.39.12 1.5.12 1.76 0 1.69-.05 1.43 1.06l-.18.79-1.62.03-1.61.02-.16.71c-.25 1.09-.22 1.35.15 1.55.33.17.36.49.09 1.18-.1.28-.16.29-3.22.19Zm15.78-.37.71-.17.11-.62c.12-.76.2-.71-.78-.53-2.95.56-4.65-.51-4.65-2.93 0-1.98 1.23-3.46 2.97-3.59 1.25-.09 1.78.18 1.99 1.02.14.55.83.72.93.24l.25-1.1c.26-1.1.28-1.03-.16-1.16-1.9-.56-4.38-.36-6.12.49-3.39 1.66-3.99 6.3-1.02 7.88 1.35.72 3.91.93 5.77.47Zm-24.24-.23c.04-.32 0-.42-.24-.65-.34-.32-.34-.41 0-1.88.33-1.42.41-1.44 1.03-.29.89 1.69 1.92 2.88 2.68 3.09.63.17 3.18.13 3.25-.06.14-.37.07-.64-.18-.64-.31 0-.75-.37-1.4-1.19-.82-1.02-2.16-2.93-2.16-3.06 0-.27 3.89-3.35 4.24-3.35.3 0 .43-.11.51-.43l.07-.27h-4.11l-.07.36c-.05.29-.03.38.15.5.35.25.26.36-1.23 1.63-2.47 2.11-2.45 2.11-1.96.06.3-1.27.33-1.36.7-1.67.21-.18.41-.45.44-.6l.06-.28h-4.48l-.07.37c-.06.33-.03.39.24.6.42.33.41.68-.1 2.9-.85 3.76-.99 4.14-1.55 4.35-.19.07-.36.21-.4.32-.17.61-.38.56 2.19.56h2.35zm11.53-.05c.05-.3.04-.43-.05-.46-.52-.18-.59-.56-.31-1.8.22-1.02.01-.91 1.89-.99l1.6-.06.06-.36c.03-.2.08-.51.12-.68l.07-.33h-1.57c-1.42 0-1.56-.02-1.56-.17.01-.1.13-.72.28-1.38l.27-1.2 1.17-.03c1.52-.03 1.83.08 1.99.72.12.48.69.78.89.46.07-.11.5-2.12.5-2.32 0-.05-1.82-.08-4.05-.08H23.7l-.06.28c-.03.15-.07.32-.08.37-.02.06.1.18.26.28.42.25.49.54.33 1.28-.13.62-1.39 6.21-1.5 6.67l-.05.22h3.78zm-.97-12.5.02-1.83-.3.7c-.64 1.49-1.15 2.4-1.3 2.36-.78-.22-1.4-.48-1.4-.59 0-.07.23-.63.51-1.25.53-1.15 1.59-3.81 1.59-3.98 0-.05-.65-.08-1.57-.07l-1.58.03-.03-1.14c-.03-1.36-.04-1.34.95-1.41l.76-.05-.79-.61c-2.13-1.66-3.09-3.38-3.59-6.46-.05-.31-.1-.38-.29-.38-.59 0-.75-.33-1.62-3.35-.77-2.71-.8-3.17-.25-3.67l.32-.29-.2-.62c-.77-2.41-.8-2.98-.16-3.66.53-.57.52-.53.19-1.35-.42-1.01-.06-1.56 1.01-1.56h.46l-.35-.44c-.33-.39-.47-.85-.29-.87.05 0 .32-.03.62-.05.89-.07 1.37-.36 1.72-1.05.34-.69 1.02-1.1 2.51-1.53 5.9-1.7 11.18 1.49 12 7.24.09.63.18.9.37 1.12.28.35.23.96-.2 2.3l-.22.67.28.24c.49.42.46.97-.2 3.52-.72 2.76-1.07 3.45-1.77 3.45-.1 0-.19.3-.3 1.03-.42 2.62-1.54 4.41-3.75 5.99l-.45.33.61.03c.78.04.82.11.79 1.49l-.03 1.08-1.39-.04-1.39-.04.07.34c.29 1.34.37 2.08.43 3.86l.06 2.02-.24.09c-.13.05-.55.13-.94.17l-.7.07zm1.49-.63c-.03-1.49-.1-2.28-.26-3.08-.28-1.38-.35-1.31 1.24-1.24 1.31.07 1.33.07 1.39-.16.08-.29.08-1.06 0-1.46l-.06-.31h-1.44c-1.19 0-1.44.03-1.44.14 0 .26-.19.28-.54.07-.31-.19-.49-.21-2.24-.21-2.18 0-2.02-.08-2.02 1 0 1.07-.11 1 1.7 1 .88 0 1.61.03 1.63.08.06.1-1.11 3.08-1.69 4.32-.26.55-.45 1.01-.43 1.03.11.07 1.11.38 1.14.35.1-.12.47-.92.95-2.07.31-.74.62-1.37.67-1.38.15-.05.27 1.89.2 3.12l-.07 1 .66-.1.66-.09zM4.13 36.28c-.06-.07-.13-.47-.17-.88-.25-2.8-.59-6.98-.76-9.45-.11-1.59-.31-4.23-.45-5.85-.13-1.62-.34-4.12-.45-5.55s-.29-3.61-.4-4.85c-.7-8.12-.69-7.73-.31-8.11l.29-.29H13l-.02 17.52-.03 17.53-4.36.03c-3.42.02-4.39-.01-4.46-.1ZM38.2 18.85V1.3h5.51c5.91 0 5.82-.01 6.04.53.13.34.09.94-.95 13.67-.22 2.72-.65 8.12-.95 12-.57 7.22-.7 8.63-.8 8.8-.04.06-1.72.1-4.46.1H38.2zm-25.5-.05V1.5l-5.22.01c-2.88.01-5.34.04-5.48.08-.53.15-.6-1.24.95 17.46.14 1.59.34 4.18.45 5.75.25 3.57.56 7.46.75 9.58.08.89.15 1.65.15 1.67 0 .03 1.89.05 4.2.05h4.2zm34.24 16.58c.09-1.05.51-6.39.86-10.93.17-2.14.48-6.06.7-8.7.21-2.64.48-6.02.6-7.5.11-1.48.28-3.48.36-4.42.16-1.88.13-2.06-.32-2.23-.15-.06-2.42-.1-5.5-.1H38.4v34.6h8.47zm-20.42-7.83c.36-.43.45-.64.53-1.17s.11-.55.43-.32c.33.23.91.1 1.62-.37 1.26-.85 2.13-2.64 2.39-4.91.14-1.26.44-1.73.93-1.47.33.18.44-.04.88-1.71.22-.85.48-1.83.57-2.18.19-.67.13-.94-.22-1-.26-.06-.35.17-.29.69.07.52-.17.89-.56.89-.18 0-.2-.07-.2-.84 0-.93-.03-.99-.46-.87-.22.06-.31.15-.37.42-.37 1.57-.71 2.23-1.27 2.51-.68.35-1.4.16-1.25-.31.06-.2.13-.23.67-.35.5-.11.84-.76.4-.76-.1 0-.29-.11-.42-.25-.22-.23-.3-.25-1.24-.25-.56 0-1.19-.05-1.41-.1-.49-.11-.49-.11-.35.39.08.3.2.48.43.61.3.19.41.22 1.2.35.62.1.45.28-.21.22-.61-.05-1.39-.38-1.48-.62-.09-.22-.67-.39-.6-.17.05.16.26 2.09.26 2.38 0 .2.23.17.49-.07.19-.18.21-.27.15-.65-.13-.88 1.04-.36 1.78.78.17.27.5.62.74.79.57.39.68.61.67 1.39 0 .72-.25 1.4-.54 1.47-.12.03-.19.2-.24.51-.19 1.29-.76 1.58-.85.44-.07-.87-.24-.96-1.3-.67-.32.09-.94.15-1.5.15-.52-.01-1.03-.01-1.12-.01-.22.01-.24.21-.03.21.29 0 .65.47.65.83 0 .48-.18.62-.46.36-.22-.21-.23-.21-.17-.01.03.11-.07.62-.22 1.12-.39 1.34-.09 2.23 1.03 3.05l.46.33.12-.26c.06-.15.22-.41.36-.57Zm-1.66.19c-.76-.78-.93-1.67-.56-2.85.12-.35.2-.8.2-.99-.03-.67.06-.76.43-.43.18.17.19.17.16-.06-.04-.22-.12-.29-.59-.51-.2-.09-.25-.37-.1-.56.1-.11.4-.14 1.34-.14.81 0 1.37-.04 1.7-.15.98-.3 1.64.06 1.53.85-.11.81.15.57.28-.25.11-.65.16-.76.39-.85.16-.06.27-.22.35-.54.23-.94.11-1.4-.47-1.82-.22-.16-.58-.54-.81-.85-.7-.95-1.36-1.37-1.24-.79.07.4-.15.71-.66.95-.7.31-.56.43.29.23l.52-.12.57.6c.32.32.7.68.85.79.71.54-1.36.9-2.89.49-.55-.14-.67-.14-1.41.02-1.38.28-3.05.06-2.92-.39.02-.07.39-.36.82-.64.91-.62 1.29-.67 2.06-.28.81.41 1.5.31 1.5-.22 0-.19-.05-.23-.32-.23-.46-.01-1.1-.32-1.37-.66-.12-.16-.31-.4-.42-.54l-.2-.25.07.47c.09.72-.62.75-.8.04-.14-.55.41-1.08.79-.76.18.15.38-.28.7-1.59.4-1.56 1.27-1.97 1.51-.7.07.36.21.59.35.59.05 0 .04-.12-.02-.27-.16-.43.06-.58.7-.44.29.06 1 .11 1.58.11h1.06l-.29-.22c-.16-.12-.31-.23-.33-.25-.02-.01.01-.09.08-.17.15-.18-.05-.26-.61-.26-.31 0-.41.04-.45.2-.05.19-.23.26-.35.14-.45-.45.93-.85 1.58-.45l.31.19-.05-.24c-.04-.23-.02-.24.47-.24.86 0 1.13.3.73.8-.16.2-.21.21-.41.11-.21-.12-.22-.11-.11.08.13.26.06.41-.21.41-.21 0-.22.01-.13.24.03.09.17.16.29.16.8 0 .58 1.07-.27 1.31-.58.17-.7.29-.27.29.78 0 1.36-.75 1.6-2.06.16-.91.16-.91.69-1.04.67-.16.7-.12.7.86 0 .64.03.85.13.81.08-.02.12-.25.12-.66 0-.89.47-1.2 1-.66.32.31.32.4-.09 1.83-.19.66-.44 1.6-.56 2.1-.27 1.17-.49 1.46-1 1.37-.45-.08-.55.11-.65 1.24-.27 3.04-2.6 6.12-4.19 5.51-.23-.08-.26-.07-.26.13-.01.31-.33.98-.59 1.21-.68.61.73.52 1.58-.1 2.44-1.77 3.91-4.27 3.91-6.63 0-.45.1-.61.39-.61.66-.01.87-.43 1.56-3.1.67-2.54.7-3.07.23-3.43l-.32-.25.29-.93c.39-1.29.44-1.84.17-2.06-.16-.14-.25-.41-.36-1.13-.63-4-2.99-6.55-6.79-7.35-2.55-.55-6.57.36-7.21 1.63C19.74 4.6 19.12 5 18.25 5c-.49 0-.61.16-.19.26.73.19 1.69-.02 2.3-.5.33-.25.86-.55 1.19-.68.43-.16.54-.24.38-.26-.75-.11-.47-.54.56-.86 5.19-1.64 10.3 1.22 11.02 6.16.32 2.17-.27 4.42-.71 2.7-.06-.26-.33-1.01-.58-1.67l-.47-1.2-.08.63c-.07.58-.06.65.17.95.38.5.64 1.15.71 1.82.09.77-.03.9-.66.76-1.54-.36-4.42-.08-5.28.52-.62.42-1.72.44-2.21.04-.58-.5-1.24-.61-3.4-.62h-1.95l.03-.5c.02-.37.08-.54.23-.65.57-.41.66-.56.93-1.65.77-3.07 2.15-3.98 4.88-3.2 1.57.45 1.04-.55-.78-1.46-1.09-.55-1.74-.61-3.1-.27-.75.18-1.25.24-2.07.24l-1.08-.01.25.22c.46.39.22.63-.61.63-.92 0-1.13.4-.68 1.3.35.68.32.82-.25 1.45-.62.69-.62.77.19 3.57.21.73.22.69-.28 1.1-.36.3-.28.98.39 3.37.76 2.71.91 3.03 1.46 3.15l.4.09.12.76c.42 2.81 1.48 4.58 3.77 6.31l.8.6h1.56zm-2.73-2.55c-1.09-.54-2.31-2.46-2.41-3.78-.06-.86.34-1.41 1.02-1.41.4 0 .37-.07.55 1.31.19 1.44.57 2.33.71 1.64.15-.71.46-.95 1.21-.95.57 0 .46.23-.14.3-.64.08-.75.21-.54.62.23.47.7 2.25.62 2.37-.1.17-.57.13-1.02-.1Zm.71-.31c-.04-.13-.17-.59-.29-1.02-.22-.8-.22-.8-.33-.48-.34.98-1.05-.38-1.28-2.46-.08-.73-.1-.75-.51-.55-1.08.52-.11 3.2 1.61 4.45.49.36.91.39.8.06Zm1.78-3.13c-.26-.11-.33-.2-.3-.37.03-.23.04-.23 1.43-.19 1.51.03 1.57.04 1.49.26-.15.38-1.96.59-2.62.3Zm1.93-.25c.13-.05-.2-.09-.9-.09s-1.03.04-.9.09c.11.05.52.09.9.09.39 0 .79-.04.9-.09Zm-1.69-1.06c.59-.15.69-.15 1.22 0 .59.16 2.13.21 2.61.07l.24-.07-.29-.18c-.16-.1-.47-.39-.7-.64l-.4-.45-.46.11c-.27.07-.59.25-.76.42-.4.4-.97.41-1.67.03-.68-.36-1.04-.32-1.81.18-.35.23-.64.45-.64.49 0 .23 1.8.25 2.66.04Zm-4.54-1.46c-.26-.13-.67-.93-.82-1.62-.15-.7-.09-.8.36-.61.46.19 1 .21.69.02-.98-.59-1.21-1.78-.24-1.26.16.08.29.04.66-.2.26-.17.58-.31.72-.32.73-.01 2.36.03 2.4.06.02.03-.02.19-.1.37-.07.18-.12.43-.11.55.06.41-.77.93-1.46.93-.11 0-.24.05-.27.1-.04.06.1.1.35.1 1.02 0 .4 1.04-1.07 1.79-.46.23-.76.25-1.11.09Zm1.23-.47c.94-.54 1.33-1.11.76-1.11-.67 0-.66-.64.02-.75.85-.14 1.26-.39 1.24-.77 0-.18.02-.4.06-.48.06-.13-.07-.15-.9-.14-1.31.01-1.28 0-1.66.34-.37.32-.56.36-.89.19-.11-.06-.22-.09-.24-.06-.08.07.46.67.6.67.22 0 .48.37.41.59-.08.26-.3.3-.83.15-.48-.14-.47-.15-.27.52.36 1.19.76 1.39 1.7.85Zm4.65-.24c0-.39-.22-2.41-.36-3.29-.12-.76-.65-.43-.83.52-.07.33-.23.9-.37 1.26-.35.95-.26 1.29.5 1.75.6.37 1.06.26 1.06-.24Zm-8.17-.2c-.17-.2-1.03-2.9-1.03-3.2 0-.38.43-.81.73-.73.12.03.31.06.43.06.24 0 .27.87.04 1.15-.09.11-.09.27 0 .67.36 1.66.39 1.82.29 2-.11.21-.32.24-.46.05Zm.07-1.17c-.21-.93-.26-1.75-.1-1.85.19-.12.1-.45-.15-.57-.75-.34-.66.62.3 3.21.15.38.12-.04-.05-.79Zm2.57-1.97c-.35-.35.97-1.23 1.85-1.23.32 0 .74.45.59.64-.11.12-.17.13-.35.04-.13-.07-.16-.13-.08-.16.21-.07.03-.22-.26-.22-.36.01-1.17.38-.84.39.31.01.27.18-.1.41-.33.2-.69.26-.81.13Zm-1.17-.44c-.16-.29-.06-.48.35-.64.71-.3 1.59-.06 1.03.28-1.03.63-1.21.68-1.38.36Zm12-.84c-.17-.21-.04-.35.34-.35.4 0 .68.26.45.41-.22.14-.65.11-.79-.06Zm-12.75-.11c-.22-.23-.08-.32.43-.26.33.03.42.08.42.23 0 .25-.61.27-.85.03Zm7.75-.2c.83-.56 3.64-.82 5.39-.51l.44.08-.06-.54c-.06-.62-.4-1.47-.68-1.73-.16-.15-.19-.31-.19-1.13 0-1.23.02-1.21-1-1.2-.84 0-2.99-.54-3.82-.97-.23-.12-.3-.12-.56.03-.28.16-.33.16-1.03-.05-1.45-.42-2.21-.37-2.98.19-.8.57-.97.92-1.71 3.47-.18.62-.26.76-.54.93-.31.18-.45.43-.46.76 0 .08.58.12 2.08.15 2.2.03 2.57.11 3.27.66.33.27 1.37.19 1.85-.14Zm-9.05-1.21c-.64-2.14-.64-2.23-.02-2.81.48-.45.52-.74.23-1.38-.4-.88-.39-.9.53-.97.57-.05 1.08-.17 1.87-.48 1.23-.46 2.25-.59 2.32-.28.02.12-.12.24-.45.4-.65.31-1.24.88-1.73 1.66-.23.35-.56.81-.75 1.02-.46.51-.53.72-.84 2.51-.25 1.51-.27 1.55-.52 1.58-.24.03-.27-.02-.64-1.25Zm.89-.45c.23-1.51.41-2.03.85-2.51.21-.23.55-.69.76-1.02.47-.75.87-1.19 1.45-1.57l.45-.3-.4.07c-.21.04-.84.24-1.4.45-.57.21-1.29.41-1.67.45-.38.03-.68.09-.68.11s.09.21.2.41c.34.64.27 1.11-.26 1.73s-.53.51.03 2.38c.43 1.38.43 1.38.67-.2Zm14.93-1.63c-.03-.73-.13-1.56-.22-1.9-1.13-4.1-5.93-6.36-10.49-4.93l-.68.21.33.11c.51.17.48.4-.08.61-1.29.48-2.58 1.44-1.36 1.01 1.9-.67 3.64-.25 5.19 1.25l.73.71 1.43.46c1.3.42 1.51.45 2.34.44.87-.02.92-.01 1.17.26s1.31 2.77 1.44 3.44l.07.33.09-.35c.05-.19.07-.93.04-1.65Z"/></svg>