<svg xmlns="http://www.w3.org/2000/svg" width="51" height="51" viewBox="0 0 51 51"><path fill="#fff" fill-rule="evenodd" stroke="#fff" stroke-width=".771" d="M23.2 41.4C12.82 40.13 5.13 30.83 5.88 20.43c.12-1.71.46-3.63.81-4.65.59-1.7.75-1.71 1.6-.1 2.73 5.18 7.95 8.96 13.95 10.09 1.17.22 5.12.25 6.26.05 6.31-1.13 11.24-4.65 14.3-10.2.9-1.65 1-1.7 1.43-.74 1.64 3.65 1.63 9.34 0 13.72-2.4 6.42-7.86 11.09-14.71 12.56-1.31.29-4.84.42-6.32.24Zm5.79-.34c9.55-1.8 16.26-9.78 16.26-19.36 0-1.02-.06-2.25-.13-2.75-.26-1.74-1.08-4.45-1.36-4.45-.07 0-.43.55-.8 1.23-4.31 7.86-13 11.9-21.65 10.05-5.48-1.17-10.69-5.14-13.2-10.05-.29-.57-.59-1.03-.66-1.03-.49 0-1.27 3.52-1.4 6.31-.48 10.03 7.1 18.93 17.18 20.19 1.1.13 4.77.05 5.76-.14Z"/></svg>