<svg xmlns="http://www.w3.org/2000/svg" width="51" height="51" viewBox="0 0 51 51"><path fill="#fff" fill-rule="evenodd" stroke="#fff" stroke-width=".682" d="M23.7 49.3c-9.89-.78-18.36-7.73-20.96-17.2-1.07-3.87-1.15-8.53-.23-12.29C6.62 3.08 26.9-3.79 40.4 6.97c7.17 5.71 10.35 14.85 8.34 23.93C46.2 42.33 35.45 50.23 23.7 49.3Zm5.75-.49C41.7 46.67 50.09 35.77 49.01 23.4c-.97-11.03-9.85-20.09-20.8-21.2C11.57.53-1.26 15.39 2.85 31.56 5.24 40.94 13.31 47.9 23.05 49c1.4.15 5.04.05 6.4-.19Zm-5.3-6.61c-4.82-.4-9.65-3.14-12.17-6.91l-.53-.79H9.48c-1.25 0-1.98-.04-1.98-.1 0-.07 5.19-.1 15.38-.1 9.45 0 15.43-.04 15.52-.1.37-.23-.45-.48-1.61-.49l-.57-.01-.23-.47c-.4-.79-.9-.98-2.63-.98-.84 0-1.4-.04-1.42-.1-.01-.06-.1-.44-.19-.85-.22-.99-.88-2.35-1.65-3.42-5.32-7.42-16.32-5.89-19.6 2.72-.54 1.42-.61 1.34-1.15-1.25C7.12 18.46 14.68 8.99 25.6 8.98c12.53-.01 20.41 12.71 14.95 24.11-.3.62-.55 1.14-.55 1.15 0 0 .52.01 1.17.01.84 0 1.17.03 1.2.13.04.09-.27.12-1.29.12l-1.33.01-.35.52c-3.37 5-9.07 7.68-15.25 7.17Zm4.6-.44c3.39-.63 6.7-2.51 9.14-5.21.56-.62 1.51-1.87 1.51-1.99 0-.03-6.21-.06-13.8-.06s-13.8.03-13.8.06c0 .19 1.27 1.79 2 2.53 2.56 2.57 5.91 4.25 9.5 4.77 1.26.17 4.24.12 5.45-.1Zm11.48-8.58c5.44-10.9-1.83-23.44-13.88-23.95-10.73-.45-18.74 8.7-16.9 19.32.18 1.08.63 2.79.64 2.48.01-.13.21-.68.45-1.23 1.63-3.7 4.94-6.22 8.97-6.81.8-.11 3.32-.08 3.75.06.2.06.2.04.16-1.42-.07-2.28.39-3.76 1.61-5.24 3.83-4.63 11.51-3.09 13.26 2.66.32 1.05.36 3.22.07 4.25-.86 3.16-3.78 5.59-6.74 5.6-.3 0-.52.03-.5.08.47.93.66 1.44 1.04 2.89.02.09.37.12 1.21.11 1.73-.01 2.56.34 2.93 1.22.12.3.13.3.96.3 1.01 0 1.32.11 1.47.5.1.27.16.3.53.3h.41zm-7.38-4.69c3.78-.8 6.27-5.14 5.25-9.13-1.22-4.8-7.11-7.02-11.25-4.25-2.46 1.65-3.65 4.54-3.12 7.6l.08.45.71.23c2.17.7 4.58 2.54 5.88 4.5l.55.81.7-.05c.39-.03.93-.11 1.2-.16Z"/></svg>