<svg xmlns="http://www.w3.org/2000/svg" width="51" height="51" viewBox="0 0 51 51"><path fill="#fff" fill-rule="evenodd" stroke="#fff" stroke-width=".713" d="M40.7 51.1c-.02-.03-.07-5.43-.1-12-.06-13.4-.02-12.62-.82-15.1-2.65-8.19-10.8-12.74-18.52-10.34-5.08 1.59-9.23 6.41-10.35 12.03-.37 1.83-.41 3.21-.41 14.32 0 7.18-.03 10.78-.1 10.74-.18-.11-.13-21.83.05-23.39.86-7.34 5.76-13 12.4-14.33 1.41-.28 4.27-.25 5.64.05 6.39 1.43 11.49 7.35 12.21 14.17.11 1.07.11 23.97 0 23.85Zm1.08-11.75c-.04-11.78-.04-11.8-.27-13.04-.19-1.04-.62-2.7-.86-3.32-.04-.12.32-.51 1.36-1.44 2.17-1.97 2.65-2.89 2.57-4.93-.11-2.7-1.79-4.54-4.29-4.7-1.44-.09-2.48.38-4.25 1.93-.66.58-1.22 1.05-1.25 1.05-.04 0-.37-.21-.75-.46-5.03-3.38-11.91-3.4-16.87-.05-.42.28-.79.51-.82.51-.04 0-.52-.41-1.08-.91-1.69-1.52-2.55-1.97-3.93-2.07-3.62-.24-5.98 3.82-4.26 7.36.2.42.68 1 1.83 2.17l1.56 1.6-.24.73c-.78 2.45-.83 3.42-.84 16.32 0 6.15-.04 10.76-.09 10.65-.12-.29-.12-21.44 0-23.01.13-1.63.23-2.23.61-3.57l.3-1.09-1.48-1.51c-1.96-2.01-2.43-2.91-2.43-4.68.01-2.94 2.06-5.19 4.73-5.19 1.58 0 2.54.47 4.43 2.17.96.86.84.85 1.7.26 4.84-3.27 11.76-3.27 16.79.01l.85.55.57-.53c1.72-1.56 2.42-2.03 3.5-2.31 3.15-.82 5.97 1.57 5.96 5.05-.01 1.87-.57 2.89-2.6 4.73-.73.66-1.33 1.24-1.33 1.28 0 .05.14.57.3 1.16.77 2.71.73 1.95.77 14.78.02 6.75 0 11.67-.05 11.9-.06.25-.11-3.93-.14-11.4Zm-17.13-7.31c-2.22-.31-4.77-1.24-4.91-1.78-.23-.91.25-1.1 1.49-.57 1.03.44 2.35.84 3.1.95l.47.07v-2.46l-.72-.55c-2.04-1.57-2.46-2.13-2.47-3.31-.03-1.81 2.07-2.74 3.46-1.54l.38.32.37-.32c1.74-1.48 4.16.2 3.42 2.38-.21.62-.73 1.19-2.04 2.23l-1.1.87v2.37h.44c.61 0 2.19-.42 3.23-.86 1.37-.57 1.93-.54 1.93.13 0 1.02-4.69 2.41-7.05 2.07Zm3-.39c2.23-.4 4.17-1.39 3.75-1.9-.18-.22-.38-.19-1.41.25-1.22.5-2.75.9-3.5.9h-.59v-2.67l.88-.69c1.8-1.42 2.26-1.97 2.38-2.88.25-1.81-2.01-2.88-3.28-1.55-.45.47-.42.47-.79.05-1.15-1.31-3.28-.49-3.29 1.27 0 .97.41 1.55 2.05 2.82l1.15.9v2.75h-.27c-.58-.01-2.1-.41-3.19-.86-1.3-.52-1.58-.54-1.62-.08-.03.28.02.33.55.61 2.14 1.14 4.71 1.52 7.18 1.08ZM9.46 20.68c-1.5-1.56-1.93-2.29-2.03-3.43-.2-2.45 1.43-4.4 3.67-4.39 1.28.01 1.98.37 3.55 1.86l.86.81-.74.76a21.2 21.2 0 0 0-3.51 4.83c-.26.49-.49.88-.51.88s-.6-.59-1.29-1.32Zm30.38.44a22.2 22.2 0 0 0-3.53-4.82l-.72-.75.78-.74c1.79-1.71 2.93-2.2 4.39-1.91 2.85.57 3.95 4.54 1.87 6.76-.45.49-2.28 2.14-2.36 2.14-.03 0-.23-.3-.43-.68Zm-27.67-1.98c.61-.9 1.55-2.05 2.33-2.88l.7-.73-.63-.59c-1.78-1.7-2.87-2.16-4.27-1.8-2.06.53-3.18 2.84-2.43 5.05.22.66.58 1.14 1.8 2.41l1.06 1.11.51-.98c.29-.54.7-1.26.93-1.59Zm28.89 1.7c.41-.36.94-.85 1.18-1.09 2.9-2.81.38-7.76-3.31-6.51-.6.2-1.36.74-2.36 1.66l-.67.62.62.69c1.63 1.8 2.82 3.44 3.44 4.72.34.69.22.7 1.1-.09Zm-22.46.49c-.93-.35-1.68-2.33-1.06-2.79.39-.28.6-.06.75.78.27 1.53 1.69 1.53 2.02-.01.15-.66.24-.81.53-.81.69 0 .57 1.49-.17 2.28-.47.51-1.47.77-2.07.55Zm12.19-.21c-.86-.55-1.42-2.2-.87-2.56.45-.29.57-.15.82.96.32 1.4 1.99 1.11 2.22-.39.13-.91.93-.92.94-.02.01 1.72-1.76 2.86-3.11 2.01Zm-10.92-.03c.65-.24 1.15-1.03 1.17-1.84.02-.73-.32-.73-.49 0-.44 1.94-2.26 1.92-2.51-.02-.06-.54-.37-.78-.46-.35-.29 1.41 1.03 2.69 2.29 2.21ZM32.6 21c.61-.31 1.1-1.2 1.1-2.02 0-.51-.43-.34-.52.2-.33 1.97-2.48 1.96-2.74 0-.05-.38-.1-.48-.26-.48-.27 0-.31.21-.18.83.27 1.34 1.5 2.03 2.6 1.47ZM9.93 19.17c-.9-.93-1.13-1.43-1.13-2.37 0-1.98 1.74-3.15 3.42-2.32.76.38 1.78 1.35 1.63 1.56-.06.08-.61.81-1.24 1.62-.63.82-1.28 1.68-1.45 1.91-.39.54-.3.57-1.23-.4Zm30.09.45c-.16-.2-.87-1.13-1.57-2.07l-1.28-1.7.69-.62c1.6-1.47 3.35-1.35 4.22.31.6 1.16.31 2.46-.8 3.62-.86.9-.9.92-1.26.46ZM10.6 18.54c-.93-.96-1.13-1.71-.69-2.61.5-1.03 1.68-1.01 2.81.05.47.44.49.44.68.27.3-.27.25-.38-.42-.99-1.89-1.72-4.24-.56-3.95 1.94.08.67.29 1.04 1.06 1.83l.66.69.23-.27.23-.27zm30.49.52c1.19-1.24 1.41-2.48.65-3.67-.79-1.27-2.31-1.28-3.72-.04-.59.52-.59.54-.33.86l.18.23.59-.51c.76-.65.93-.73 1.51-.73 1.68 0 1.99 1.93.54 3.35-.57.55-.57.56-.35.9s.22.34.93-.39Zm-28.85-1.28.85-1.13-.32-.34c-1.31-1.38-2.87-1.11-2.87.5 0 .58 1.02 2.09 1.42 2.09.04 0 .46-.51.92-1.12Zm28.19.53c.64-.67.77-.93.77-1.57 0-1.53-1.34-1.82-2.67-.58-.24.22-.43.44-.43.48 0 .12 1.61 2.26 1.7 2.26.04 0 .32-.27.63-.59Z"/></svg>