<svg xmlns="http://www.w3.org/2000/svg" width="51" height="51" viewBox="0 0 51 51"><path fill="#fff" fill-rule="evenodd" stroke="#fff" stroke-width=".487" d="M10.33 39.77c-.08-.12-.12-27.54-.04-28.09l.04-.28h16.63c16.13 0 16.64.01 16.64.19s-.64 1.13-1.71 2.52c-.33.42-.59.8-.58.85 0 .05.52.52 1.14 1.04.63.52 1.17 1 1.19 1.07.03.07-.48.68-1.14 1.35l-1.18 1.23 1.19 1.21c.65.66 1.19 1.25 1.19 1.31 0 .05-.52.64-1.15 1.3-.63.67-1.15 1.24-1.15 1.28s.52.57 1.15 1.19c.63.61 1.15 1.18 1.15 1.27 0 .08-.55.73-1.22 1.43l-1.22 1.28 1.12 1.05c1.57 1.47 1.56 1.22.11 2.69l-1.23 1.24 1.22 1.23c.67.67 1.22 1.28 1.22 1.35 0 .13-1.5 2.07-1.78 2.29-.22.18-31.47.18-31.59 0Zm30.07-.15 1.45-.03.83-1.06.83-1.06-1.2-1.21c-.67-.67-1.21-1.27-1.21-1.35s.52-.67 1.15-1.32 1.15-1.23 1.15-1.28-.52-.57-1.15-1.16c-1.29-1.2-1.31-1.25-.74-1.8.22-.22.76-.79 1.2-1.26l.79-.87-1.11-1.08c-1.51-1.49-1.5-1.23-.17-2.65.62-.66 1.15-1.25 1.17-1.31.02-.05-.49-.63-1.14-1.28-.83-.83-1.15-1.22-1.09-1.31.04-.08.55-.65 1.13-1.27s1.07-1.16 1.09-1.2c.01-.04-.5-.5-1.13-1.02-.73-.6-1.15-1.02-1.15-1.14 0-.1.52-.88 1.15-1.72s1.15-1.56 1.15-1.59-7.4-.05-16.45-.05H10.5v28.09l14.23-.02c7.82-.01 14.87-.03 15.67-.05Zm-20.74-7.8c-.03-.05 3.74-10.42 4.43-12.14l.11-.28h1.2c1.13 0 1.2.01 1.34.22.18.29 3.76 9.89 4.3 11.55.24.73.23.73-1.29.73h-1.34l-.39-1.22-.38-1.23h-4.37l-.32 1c-.5 1.58-.33 1.45-1.9 1.45-.73 0-1.36-.03-1.39-.08Zm3.08-1.37.41-1.2 2.31-.03 2.32-.02.39 1.22.39 1.23 1.17.03c1.3.03 1.26.06 1.03-.68-.29-.93-3.98-10.87-4.17-11.21-.12-.24-2.23-.29-2.32-.06-.46 1.2-4.37 11.86-4.37 11.91 0 .04.55.05 1.21.04l1.22-.03zm1.12-3.23c-.03-.05.1-.55.28-1.13.19-.57.51-1.57.71-2.22.29-.89.42-1.17.53-1.15.17.03 1.66 4.34 1.56 4.5-.07.11-3.01.1-3.08 0Zm2.84-.19c0-.05-.3-.98-.67-2.08l-.66-2-.63 1.95c-.35 1.07-.64 2.01-.64 2.08 0 .09.33.12 1.3.12.71 0 1.3-.03 1.3-.07Z"/></svg>