<svg xmlns="http://www.w3.org/2000/svg" width="51" height="51" viewBox="0 0 51 51"><path fill="#fff" fill-rule="evenodd" stroke="#fff" stroke-width=".754" d="M36.56 51.11c-.13-.21-.18-2.73-.07-3.76.59-5.54 4.57-9.86 9.95-10.8 1.03-.17 4.76-.22 4.76-.05 0 .06-.64.1-1.72.1-3.13.01-4.97.44-6.94 1.62-3.12 1.87-5.08 4.68-5.7 8.18-.15.89-.21 3.76-.09 4.43.07.35-.05.51-.19.28Zm4.06-3.63c-.15-.15-.16-.63-.02-.89.13-.23 6.25-.3 6.48-.07.2.2.15.86-.07.98-.29.15-6.23.14-6.39-.02Zm6.3-.26c.05-.05.08-.2.06-.33l-.03-.24-3.01-.03c-3.27-.03-3.34-.01-3.2.51l.05.23 3.01-.01c1.89-.02 3.05-.06 3.12-.13Zm-3.88-1.84c-2.47-2.56-2.68-3.16-1.15-3.28l.66-.05.05-1.38c.06-1.65.08-1.67 1.09-1.67 1.26 0 1.31.08 1.31 1.85v1.25h.54c.98 0 1.39.38 1.02.94-.19.3-2.25 2.68-2.4 2.78-.29.2-.63.07-1.12-.44Zm1.42-.21c2.26-2.48 2.37-2.75 1.16-2.79l-.77-.03-.05-1.4c-.07-1.73-.02-1.65-1.05-1.65-1.01 0-.94-.12-.98 1.74l-.02 1.3-.55-.03c-.67-.03-1.1.12-1.1.37 0 .31 2.44 3.02 2.72 3.02.09 0 .38-.24.64-.53Zm-29.44-.34c-.49-.2-.66-4.15-.19-4.67.12-.13 3.62-2.22 7.77-4.64 10.94-6.37 11.12-6.48 10.97-6.6-.1-.08-6.19-3.62-10.22-5.94-1.87-1.07-1.98-1.46-.66-2.3 1.11-.71.01-1.22 10.86 5.06 1.49.86 2.78 1.66 2.88 1.77.3.37.26 4.98-.05 5.32-.23.25-1.21.83-8.58 5.12-2.06 1.2-5.59 3.26-7.83 4.57-4.16 2.42-4.4 2.53-4.95 2.31Zm3.63-1.81c3.42-1.98 12.2-7.1 13.85-8.07.63-.37 1.69-.99 2.35-1.37 1.69-.98 1.55-.67 1.55-3.44 0-2.7.11-2.42-1.24-3.2-.44-.25-2.23-1.29-3.96-2.29-8.34-4.82-7.35-4.37-8.37-3.78-.63.37-.79.6-.71.99.02.12 1.28.9 3.53 2.19 6.41 3.68 8.3 4.81 8.3 4.95 0 .08-.58.49-1.3.91-.71.42-2.72 1.59-4.45 2.61s-5.38 3.14-8.1 4.72-5.03 2.97-5.12 3.08c-.22.25-.27 3.62-.07 4.01.33.62.55.54 3.74-1.31Zm-1.7-5.8c-.74-.47-.7-.14-.73-5.03-.03-4.86-.04-4.8.61-5.19.74-.45.89-.39 4.67 1.79 4.04 2.32 4.2 2.45 4.2 3.23 0 .86-.2 1.06-2.1 2.16-.91.52-2.51 1.44-3.55 2.05-2.1 1.22-2.53 1.35-3.1.99Zm3.3-1.39c5.63-3.22 5.33-2.99 5.22-3.91-.07-.61-.05-.59-3.47-2.58-4.49-2.6-4.34-2.53-5.01-2.18-.57.29-.59.43-.59 4.94 0 4.42.01 4.48.52 4.82.64.42.77.38 3.33-1.09ZM27.62 31c-.13-.06-2.11-1.17-4.4-2.48s-5.09-2.91-6.23-3.55c-1.13-.64-2.13-1.25-2.23-1.35-.15-.18-.17-.43-.14-2.65.04-2.91-.14-2.55 1.82-3.69 3.63-2.09 12.15-7.07 16.61-9.71 2.5-1.47 2.74-1.56 3.26-1.09l.34.3v1.94c0 2.37.12 2.15-1.8 3.28-.83.47-3.52 2.05-6 3.5-2.47 1.44-5.98 3.48-7.8 4.52-1.82 1.05-3.36 1.95-3.43 2.02-.14.14-.33.03 5.43 3.26 6.45 3.62 6.65 3.75 6.65 4.29 0 .72-1.42 1.68-2.08 1.41Zm1.01-.46c.87-.54 1.11-1.01.7-1.36-.18-.15-3.53-2.07-9.05-5.18-1.7-.96-3.08-1.79-3.08-1.86 0-.14.6-.51 4-2.46 1.29-.75 4.64-2.7 7.45-4.34 2.81-1.63 5.61-3.27 6.23-3.62 1.59-.91 1.52-.78 1.52-2.94 0-1.9-.05-2.13-.46-2.29-.36-.13-.57-.03-4.74 2.43-6.1 3.59-8.57 5.03-12.44 7.28-2.58 1.5-3.74 2.23-3.83 2.4-.22.43-.18 4.62.05 4.88.09.11 1.95 1.2 4.12 2.43 2.17 1.22 4.99 2.83 6.25 3.56 2.5 1.44 2.61 1.48 3.28 1.07Zm4.12-6.52c-1.77-.98-6.62-3.86-6.83-4.05-.49-.46-.46-1.37.08-1.86.25-.24 5.05-3.08 6.64-3.93 1.04-.57 1.89-.45 2.28.33.27.52.27 8.56 0 9.08-.43.85-1.15.99-2.17.43Zm1.75-.2c.38-.39.42-.93.38-5.42-.03-3.99-.03-3.97-.62-4.22-.6-.25-.96-.14-2.57.8-6.15 3.55-5.89 3.36-5.89 4.07 0 .32.06.51.23.69.17.19 5.62 3.44 7.02 4.19.5.27 1.12.22 1.45-.11Z"/></svg>