<svg xmlns="http://www.w3.org/2000/svg" width="51" height="51" viewBox="0 0 51 51"><path fill="#fff" fill-rule="evenodd" stroke="#fff" stroke-width=".446" d="M24.44 47.4c-.94-.14-2.24-1-2.24-1.5 0-.38 1.31-.98 1.43-.66.21.54 1.97.69 1.97.17 0-.29-.22-.41-1.1-.56-1.65-.29-2.46-1.19-2.11-2.36.48-1.61 3.16-2.02 4.46-.69.47.49.44.59-.35 1.07l-.53.32-.29-.25c-.42-.34-1.48-.33-1.48.02 0 .14.4.27 1.39.43 3.32.54 2.19 4.48-1.15 4.01Zm13.84-.01c-.95-.14-1.83-.9-2.08-1.77-.15-.54-.12-2.31.04-2.86.67-2.21 4.2-2.34 5.03-.18.24.64.24 2.79 0 3.33-.51 1.13-1.64 1.69-2.99 1.48Zm-28.52-.25c-.1-.27-.07-3.61.05-4.14.49-2.29 4.05-2.7 5.12-.59.98 1.92-.74 4.17-2.81 3.71-.41-.1-.42-.09-.42.17 0 .14-.03.43-.06.64l-.07.37h-.87c-.71 0-.89-.03-.94-.16Zm6.21.1c-.13-.14-.07-4.16.07-4.57.62-1.72 3.22-2.22 4.56-.88.64.65.7.92.7 3.4v2.12l-.92-.03-.93-.03-.03-.92-.03-.93h-1.48l-.03.93-.03.92-.9.03c-.5.01-.94 0-.98-.04Zm12.27-.08c-.03-.08-.04-1.15-.02-2.38l.03-2.25.3-.49c.54-.87 1.58-1.22 2.69-.9.52.15.6.15 1.13 0 1.31-.38 2.51.15 2.88 1.26.12.37.15.89.13 2.66l-.03 2.19h-1.9l-.05-2.2-.05-2.2h-.5l-.06 1.37c-.08 1.67-.03 1.58-.98 1.58-1.01 0-1 .02-1.03-1.61l-.03-1.34h-.5l-.06 1.85c-.04 1.02-.07 2.02-.08 2.23l-.01.37h-.9c-.69 0-.92-.03-.96-.14Zm-1.98-.24c.79-.4 1.13-1.05 1.01-1.94-.1-.75-.73-1.18-2.11-1.42-.97-.17-1.16-.27-1.16-.61 0-.53.84-.71 1.6-.35l.49.23.41-.27c.46-.31.48-.35.18-.63-.99-.9-3.18-.81-3.84.16-.76 1.12-.01 2.19 1.76 2.51 1.12.2 1.49.54 1.16 1.05-.2.3-.52.39-1.16.33-.43-.04-.62-.13-1.16-.52-.14-.11-.83.2-.91.42-.11.27.72.93 1.5 1.18.6.2 1.72.12 2.23-.14Zm13.45.13c.58-.21 1.14-.77 1.34-1.33.18-.55.21-2.42.04-2.93-.63-1.87-3.69-2.04-4.5-.25-.25.55-.27 2.67-.03 3.24.47 1.14 1.89 1.71 3.15 1.27Zm-28.29-.67c.03-.57.05-.63.23-.6 1.56.23 2.31-.01 2.92-.91 1.51-2.24-1.35-4.65-3.68-3.1-.76.5-.89.97-.89 3.25V47h1.39zm6.2-.3.03-.93.94-.03c1.13-.03 1.11-.05 1.11 1.06V47h1.42l-.04-2.07c-.03-2.34-.12-2.66-.87-3.17-1.04-.7-2.71-.57-3.48.26-.5.53-.57.9-.61 3.01L16.08 47h1.51zm12.28-1.11c0-2.18.03-2.31.52-2.42.55-.14.68.17.68 1.65v1.3h1.4v-1.2c0-1.27.09-1.65.44-1.74.69-.19.76.02.76 2.39V47h1.4v-2.18c0-2.06-.01-2.2-.22-2.62-.41-.81-1.65-1.15-2.68-.74-.37.15-.43.15-.8 0-1.34-.54-2.68.16-2.9 1.5-.11.67-.14 3.87-.03 3.97.03.04.37.07.75.07h.68zm8.19.64c-.35-.36-.44-2.03-.14-2.62.29-.55 1-.65 1.46-.2.42.42.45 2.46.04 2.86-.36.37-.97.35-1.36-.04Zm1.16-.16c.29-.28.37-1.86.12-2.35-.17-.35-.84-.41-1.12-.1-.23.26-.34 1.74-.16 2.19.22.52.78.65 1.16.26Zm-27.34-1.01c-.64-.45-.58-1.43.11-1.77.74-.36 1.48.09 1.48.9 0 .84-.92 1.34-1.59.87Zm1.1-.33c.36-.36.37-.73.04-1.06-.34-.35-.86-.34-1.14.01-.65.83.36 1.79 1.1 1.05Zm4.66-.17c-.3-.3.13-1.2.64-1.34.75-.2 1.33.24 1.27.98l-.03.37-.9.03c-.5.01-.94 0-.98-.04Zm1.68-.51c-.21-.85-1.45-.83-1.45.02 0 .24.02.25.76.25h.76zm18.73-4.27c-.83-.3-1.37-.95-1.57-1.87-.12-.54-.13-3.82-.03-4.64l.07-.5h1.9l.05 2.36c.05 2.48.09 2.69.51 2.69.25 0 .39-.37.39-1.01v-.49h2v.97c0 1.12-.19 1.64-.76 2.12-.62.5-1.74.66-2.56.37Zm-24.57-.07c-1.05-.2-1.84-.89-1.97-1.69-.09-.58-.15-.62-.94-.64-.86-.03-.9-.07-.9-1.04 0-1.06.05-1.12.95-1.12.68 0 .75-.02.75-.2s-.07-.2-.65-.2h-.66l.03-1.02.03-1.03 2.89-.03c3.34-.03 3.06-.13 3.06 1.09 0 1.04.08.99-1.46.99-1.07 0-1.14.01-1.14.2s.07.2 1.33.2c1.6 0 1.57-.02 1.57 1.04 0 1.11.05 1.07-1.49 1.14-1.09.04-1.29.07-1.2.18.08.1.35.14.85.14 1.19 0 1.24.04 1.24.99 0 1.15.03 1.11-.99 1.1-.47-.01-1.06-.05-1.3-.1Zm3.46-.04c-.09-.21-.09-1.58-.01-1.79.04-.1.18-.16.35-.16 1.06 0 1.3-.45 1.38-2.55l.06-1.6.77-.09c.43-.04.89-.05 1.04-.02l.27.07-.05 1.92c-.07 2.56-.43 3.48-1.62 4.09-.57.3-2.1.39-2.19.13Zm6.83.06c-1.38-.42-1.79-1.21-1.8-3.37v-1.51l-.4-.16c-1.09-.42-.81-2.02.35-2.02.49 0 1.05.42 1.05.79 0 .16.06.11.23-.19.37-.65.94-.82 1.54-.45.75.45.55 1.6-.33 1.92l-.34.12v1.21c0 1.38.07 1.53.78 1.64l.37.06.03.8c.04 1.22.03 1.25-.66 1.24-.31 0-.68-.04-.82-.08Zm4.85-.03c-.03-.07-.06-.63-.07-1.24l-.03-1.12-.65.4c-.56.34-.72.38-1.15.36l-.5-.03-.03-.97-.03-.97.51-.25c.46-.23 1.71-1.1 3.97-2.75.85-.62.81-.63 1.49.38.51.76.53.71-.52 1.5l-.84.64v1.86c0 2.51.09 2.31-1.11 2.31-.71 0-1.01-.04-1.04-.12Zm3.97-.89.03-1.04.39-.06c.6-.1.66-.25.66-1.7 0-1.7-.08-1.59 1.12-1.59h.99l-.03 1.88-.03 1.89-.3.49c-.46.73-1.06 1.06-2.06 1.12l-.8.05zm-13.76.55c1.2-.43 1.58-1.3 1.62-3.76l.04-1.88h-1.49l-.07 1.52c-.09 2.08-.33 2.53-1.39 2.73l-.37.07v1.56l.62-.05c.35-.02.81-.11 1.04-.19Zm21.11.15c.76-.28 1.23-1.16 1.23-2.31V36h-1.6v.55c0 .88-.53 1.23-1.05.7l-.25-.24V32.4h-1.61l.03 2.53c.04 3.01.14 3.33 1.23 3.9.35.19 1.59.23 2.02.06Zm-24.47-.74v-.75h-.85c-.94 0-1.25-.16-1.25-.65v-.25h2.7v-1.6h-2.8v-1h2.5v-1.5h-5.5v1.49l.68.03.67.03v.9l-.82.03-.83.03v1.58l.82.03.81.03.12.55c.26 1.3 1.03 1.79 2.83 1.8h.92zm9.5.02v-.73l-.42-.14c-.63-.22-.78-.58-.78-1.87V34.4h-1.6v1.22c0 2.29.69 3.28 2.27 3.28H25zm5.5-1.26v-1.98l.9-.69.9-.68-.17-.25c-.51-.8-.66-1.01-.7-1.01-.03 0-.78.53-1.67 1.18-1.96 1.44-2.77 1.99-3.11 2.12-.24.09-.25.13-.25.85v.75h.41c.45 0 .61-.07 1.36-.57.7-.48.73-.43.73 1.03v1.24h1.6zm3.78 1.84c1.03-.44 1.25-.97 1.3-3.07l.04-1.68H34v1.34c0 1.54-.15 1.89-.86 2.02l-.34.06v1.48h.55c.31 0 .72-.07.93-.15Zm-10.81-4.92c-.14-.16-.3-.39-.36-.53l-.1-.25v.23c-.01.13-.14.37-.3.53l-.29.29h1.32zm-1.12.01c.19-.08.45-.55.45-.82 0-.6-.91-.93-1.37-.5-.65.61.07 1.64.92 1.32Zm2.34-.11c.12-.1.24-.35.27-.55.12-.72-.78-1.18-1.33-.66-.71.66.31 1.82 1.06 1.21Zm9.76-3.17c-.47-.21-1.05-.75-1.05-.97 0-.05-.2-.09-.45-.09-.6 0-1.04-.38-1.12-.96l-.05-.41-1.2-.07c-.66-.04-3.53-.04-6.37 0-6.26.08-6.3.08-7.7-1.22-1.23-1.13-1.38-1.68-1.68-6.09-.25-3.75-.24-5.77.04-6.38.39-.84.91-1.44 1.68-1.96 1.22-.82 1.8-.95 5.54-1.26 1.02-.08 1.87-.17 1.89-.2.03-.03.22-.98.42-2.13l.37-2.07-.33-.37c-1.37-1.53.68-3.59 2.18-2.19.64.59.66 1.48.07 2.16-.31.35-.31.36-.25 1.13.12 1.32.38 3.27.44 3.34.04.03 1.22.11 2.62.17 3.62.16 4.5.4 5.6 1.57 1.11 1.17 1.4 2.33 1.4 5.53v2.31h.29c.17 0 .42.1.58.24l.28.24.06 3.14c.04 2.6.08 3.2.22 3.53.81 1.96-1.48 3.95-3.48 3.01Zm2.15-.26c1.36-.69 1.63-2.52.51-3.52-.5-.46-.68-.47-.86-.05-.13.29-.12.35.11.74.75 1.3.09 2.03-1.85 2.03h-.95l.3.31c.73.77 1.81.96 2.74.49Zm-.66-1.21c.24-.11.46-.54.46-.89 0-.16-.15-.17-1.83-.12-1.63.04-1.85.03-2-.12-.29-.29-.26-6.57.04-6.87s4.22-.26 4.45.05c.11.16.14.71.14 2.77 0 1.61.04 2.6.1 2.64.22.13.13-5.4-.09-5.66-.28-.35-4.47-.38-4.8-.04-.29.31-.39 7.87-.1 8.16.23.23 3.17.29 3.63.08Zm-1.97-.15c-.04-.04-.07-.2-.07-.36v-.28h.8c.85 0 1.06.12.83.49-.11.17-1.41.29-1.56.15Zm1.33-.34c0-.13-.9-.13-1.1 0-.11.07.03.1.48.1.35 0 .62-.04.62-.1Zm-3.4-3.11c0-1.77-.03-2.29-.12-2.29-.07 0-3.34-.02-7.26-.03-4.86-.02-7.16-.07-7.23-.14-.1-.1.03-8.08.13-8.18.09-.09 16.1-.27 16.19-.18s.24 1.52.54 5.01l.07.72h1.98v-2.42c0-3.6-.38-4.75-1.92-5.78-1.05-.7-1.56-.8-4.68-.92-1.84-.07-2.79-.15-2.88-.23-.14-.12-.33-1.35-.52-3.28l-.11-1.18.3-.28c.94-.88.42-2.31-.85-2.31-1.22 0-1.75 1.39-.86 2.27l.36.37-.33 1.95c-.18 1.08-.38 2.12-.45 2.31l-.11.35-2.05.17c-3.67.3-4.25.43-5.39 1.19-1.72 1.15-1.99 2.15-1.71 6.26.32 4.69.39 5.6.48 5.88.41 1.33 1.58 2.51 2.85 2.9.33.11 1.86.13 7 .13h6.57zm4.3 2.22c0-.05-.07-.14-.15-.21-.38-.32.07-1.35.58-1.35l.27.01-.02-2.46-.03-2.45h-4.1l-.03 3.28-.02 3.27h1.75c.96 0 1.75-.04 1.75-.09ZM23.1 26c-.25-.25-.26-.61-.01-.91.19-.24.21-.24 2.47-.27 2.87-.04 3.04 0 3.04.73 0 .64-.04.65-2.81.65-2.36 0-2.5-.01-2.69-.2Zm5.25-.3c.18-.57.05-.6-2.5-.6-2.6 0-2.65.01-2.65.39 0 .42-.04.41 2.61.41 2.37 0 2.48-.01 2.54-.2Zm4.82-.67c-.13-.12-.08-2.78.05-2.91.15-.15.61-.15.76 0 .13.13.17 2.33.06 2.76-.06.22-.69.33-.87.15Zm1.18-.05c-.03-.08-.04-.77-.03-1.53.03-1.52.05-1.56.64-1.41l.25.07-.03 1.47-.03 1.47-.38.03c-.24.02-.39-.01-.42-.1Zm1.22.05c-.13-.12-.08-2.78.05-2.91.19-.19.66-.15.78.07.11.21.14 2.48.04 2.75-.06.16-.73.23-.87.09Zm-1.79-1.46c.02-1.22.02-1.27-.18-1.27-.19 0-.2.06-.2 1.23 0 .68.03 1.27.07 1.31.21.21.28-.1.31-1.27Zm1.16 1.24c.13-.2-.07-2.51-.21-2.51-.1 0-.13.28-.13 1.3 0 1.07.03 1.3.14 1.3.08 0 .17-.04.2-.09Zm1.24-1.24c.02-1.22.02-1.27-.18-1.27-.19 0-.2.06-.2 1.31 0 1.19.02 1.3.18 1.27.15-.03.17-.19.2-1.31Zm-4.26-1.68c.04-1.3.2-1.49 1.29-1.49.82 0 .76.26.54-2.25-.08-.94-.18-2.08-.22-2.54l-.06-.84-1.46.07c-.8.03-4.35.09-7.89.13-3.54.03-6.44.09-6.47.12-.02.03-.06 1.8-.11 3.94l-.07 3.87h14.41zm-11.37-.51c-.52-.31-1-1.1-1.14-1.91-.43-2.49 1.69-4.33 3.16-2.74 1.81 1.96.1 5.88-2.02 4.65Zm8.59.08c-.77-.34-1.34-1.46-1.34-2.6 0-2.77 2.66-3.79 3.71-1.43.94 2.11-.64 4.82-2.37 4.03Zm-6.79-.56c1.37-1.33.66-4.5-1-4.5-1.42 0-2.22 2.21-1.4 3.85.56 1.12 1.62 1.41 2.4.65Zm8.16.17c1.68-1.13 1.15-4.67-.7-4.67-1.49 0-2.26 2.19-1.4 3.98.42.86 1.38 1.18 2.1.69Zm-9.47-.17c-1.05-.42-1.28-2.77-.37-3.72.43-.45 1.19-.33.78.12-.59.65-.56 2.45.05 3.23.2.26.2.26.01.36-.22.12-.19.12-.47.01Zm8.3-.09c-1.25-.76-.99-3.91.32-3.91.39 0 .41.07.14.53-.45.76-.46 2.23-.03 2.85.1.14.23.31.28.39.07.1.06.16-.05.23-.21.14-.31.12-.66-.09Zm-8.3-.56c-.44-.88-.41-1.79.11-2.98.12-.29-.17-.11-.42.26-.56.82-.5 2.22.12 2.84.44.44.47.42.19-.12Zm8.39-.11c-.33-.73-.31-1.94.05-2.63l.23-.44-.23.15c-.88.58-.92 2.72-.07 3.32.13.09.24.16.26.16.01 0-.1-.25-.24-.56Z"/></svg>