<svg xmlns="http://www.w3.org/2000/svg" width="51" height="51" viewBox="0 0 51 51"><path fill="#fff" fill-rule="evenodd" stroke="#fff" stroke-width=".798" d="M14.95 35.95c-.41-.43-.51-.82-.32-1.28.2-.46 6.05-8.25 6.46-8.6.37-.31 1.02-.37 1.38-.12.12.08.58.65 1.03 1.26s.85 1.07.9 1.02c.04-.04.83-1.12 1.75-2.38 2.31-3.17 2.29-3.14 2.9-3.15.54 0 .91.36 2.38 2.32.79 1.06 2.51 3.35 3.82 5.08 3.68 4.88 3.62 4.78 3.2 5.6-.33.63.36.6-11.96.6H15.27zm23.16-.23c.6-.67.66-.57-3.13-5.59-1.77-2.35-3.66-4.86-4.19-5.56-1.06-1.41-1.25-1.59-1.74-1.6-.47-.01-.54.06-2.53 2.78-1.74 2.39-2.1 2.85-2.21 2.85-.04 0-.46-.53-.95-1.19-1.05-1.41-1.45-1.66-2.04-1.25-.19.13-5.22 6.72-6.2 8.12-.34.5-.4.91-.18 1.31.29.53-.23.51 11.74.48l11.14-.02zm-21.51-1.1c0-.16 3.51-4.93 4.77-6.5.47-.58.51-.56 1.37.62 1.58 2.17 1.59 2.16 4.37-1.65 1-1.37 1.88-2.49 1.95-2.49s1.18 1.41 2.47 3.13c1.29 1.71 2.96 3.92 3.71 4.91.75.98 1.36 1.87 1.36 1.97 0 .18-.27.19-10 .19-9.66 0-10-.01-10-.18Zm19.7-.11c0-.05-1.24-1.72-2.76-3.72s-3.13-4.14-3.58-4.76c-.44-.62-.84-1.13-.87-1.13-.04 0-.91 1.15-1.93 2.55-2.1 2.85-2.19 2.95-2.85 2.95-.59 0-.78-.17-1.71-1.43-.39-.54-.75-.97-.8-.95-.11.04-4.9 6.38-4.9 6.48 0 .05 4.37.09 9.7.09 5.34 0 9.7-.04 9.7-.08ZM18.83 24.45c-3.69-1-4.95-5.49-2.29-8.2 2.61-2.66 7.05-1.59 8.18 1.98 1.15 3.62-2.24 7.2-5.89 6.22Zm2.66-.34c3.31-1.03 4.31-5.24 1.82-7.71-3.2-3.18-8.52-.5-7.9 3.98.38 2.77 3.34 4.58 6.08 3.73Zm-2.78-1.98c-1.37-.72-.7-2.89.8-2.59l.28.05.03-1.22.03-1.22 1.13-.03 1.12-.03v1.21h-1.4v1.35c0 1.51-.13 2.01-.6 2.35-.41.29-.98.34-1.39.13Zm1.28-.39c.42-.35.49-.71.43-2.27l-.05-1.36.74-.03.74-.03.03-.32.03-.33h-.9c-.66 0-.91.04-.92.13-.03.25-.05.74-.07 1.53l-.02.82-.45-.06c-.83-.09-1.37.36-1.37 1.14 0 .89 1.11 1.37 1.81.78Z"/></svg>