<svg xmlns="http://www.w3.org/2000/svg" width="51" height="51" viewBox="0 0 51 51"><path fill="#fff" fill-rule="evenodd" stroke="#fff" stroke-width=".432" d="M22.87 46.15C8.96 44.17 1.01 29.36 7.04 16.65 12.35 5.47 26.7 1.52 37.06 8.39c8.57 5.68 11.65 16.35 7.45 25.81-2.67 6.02-8.23 10.43-14.82 11.76-1.65.33-5.14.43-6.82.19Zm6.03-.3c12.51-2.1 20.13-14.65 16.2-26.69C41.3 7.52 27.76 1.9 16.65 7.34c-14.29 6.99-15.36 27-1.9 35.58 4.12 2.62 9.42 3.72 14.15 2.93Zm-5.8-1.8C12.32 42.3 5.4 32.38 7.56 21.82 10.4 7.94 27.45 2.39 38.13 11.87c5.42 4.81 7.44 12.54 5.13 19.58-2.12 6.44-7.56 11.21-14.18 12.46-1.46.27-4.7.35-5.98.14Zm4.38-.16c7.95-.87 14.33-6.56 16.06-14.3C46.67 15.5 33.23 3.68 19.5 8.46c-9.2 3.2-14.21 13.29-11.25 22.67 2.61 8.26 10.79 13.69 19.23 12.76Zm-3.55-15.63c-2.19-.71-2.45-4.1-.39-5.11 2.37-1.16 4.7.87 3.91 3.39-.45 1.44-2.03 2.21-3.52 1.72Zm5.67-.01c-2.49-.78-2.29-4.82.25-5.35 1.94-.4 3.39.75 3.39 2.7.01 2.05-1.66 3.26-3.64 2.65Zm-17.4-.06c0-.06.35-.64.78-1.28s.82-1.21.85-1.28c.04-.06-.29-.66-.73-1.33-.9-1.36-.91-1.4-.15-1.4h.55l.56.8c.3.44.57.8.59.8.03 0 .23-.28.46-.61.62-.92.72-.99 1.28-.99.64 0 .7.12.34.64-.16.22-.53.76-.82 1.19l-.54.77.83 1.25c.94 1.41.96 1.55.21 1.55h-.5l-.62-.91c-.58-.85-.64-.9-.76-.73-.08.11-.36.52-.64.92l-.5.72h-.59c-.38 0-.6-.04-.6-.11Zm5.53.04c-.14-.05-.2-4.84-.07-5.17.08-.2 2.63-.23 3.26-.04.89.26 1.29 1.23.85 2.07l-.24.47.23.28c.65.75.09 2.11-.96 2.35-.45.11-2.84.14-3.07.04Zm16-.05c-.1-.17-.06-5.09.05-5.2.05-.05.33-.08.63-.06l.54.03.72 1.8.73 1.8.15-.4c.09-.22.42-1.03.74-1.8l.57-1.4h1.29l.03 2.63c.01 1.44-.01 2.62-.05 2.63-.05 0-.28.01-.53.02l-.45.02-.06-1.2c-.04-.66-.07-1.29-.08-1.4s-.27.43-.59 1.2l-.57 1.4h-.89l-.55-1.38-.56-1.39-.03 1.33c-.02.83-.07 1.36-.14 1.4-.17.11-.87.09-.95-.03Zm-8.24-.09c2.34-.5 2.53-4.26.25-4.89-.55-.16-1.68-.09-2.09.13-1.99 1.03-1.54 4.33.65 4.78.52.1.64.1 1.19-.02Zm6.01-.11c1.79-.55 2.09-3.52.45-4.53-1.14-.71-2.85-.37-3.5.69-.44.72-.45 2.16-.02 2.88.56.96 1.79 1.34 3.07.96Zm-17.55-.89c.33-.49.65-.88.72-.87.07.02.38.41.7.88.54.79.61.85.95.88.48.04.51.12-.42-1.28l-.8-1.21.52-.77c.28-.42.64-.94.8-1.14l.3-.38h-.41c-.39 0-.43.03-.89.67-.86 1.21-.7 1.18-1.38.2-.56-.83-.61-.87-.96-.87-.47 0-.5-.12.32 1.14.39.58.7 1.12.7 1.19 0 .06-.34.63-.75 1.24-.88 1.32-.85 1.23-.37 1.23.36-.01.39-.04.97-.91Zm7.23.71c.67-.41.8-1.44.26-2.01l-.27-.28.27-.31c.46-.56.29-1.52-.34-1.85-.22-.11-.64-.15-1.75-.15H17.9V28h1.48c1.3 0 1.51-.02 1.8-.2Zm13.33-1.37c0-1.48.08-2.1.21-1.87.04.05.34.79.68 1.64s.64 1.61.67 1.68c.03.08.18.12.35.1.29-.03.33-.1.96-1.67.88-2.16.92-2.16.92-.02V28h.73l-.06-1.07c-.04-.6-.07-1.68-.07-2.4V23.2h-.43c-.51 0-.4-.17-1.29 2.05-.33.82-.64 1.58-.7 1.69-.09.17-.23-.11-.88-1.75l-.78-1.94-.46-.03-.46-.03V28h.6zm-10.46.98c-2.07-1.27-.51-4.71 1.65-3.61 1.33.68 1.29 3.1-.07 3.66-.47.2-1.22.18-1.58-.05Zm5.66.02c-1.2-.59-1.24-2.89-.07-3.58 1.32-.77 2.66.14 2.66 1.79-.01 1.52-1.31 2.42-2.59 1.79Zm-11.19-.75.03-.83 1.03-.03c1.2-.03 1.52.14 1.52.83 0 .68-.31.85-1.55.85h-1.06zm7.08.53c1.13-.6 1.08-2.72-.07-3.23-1.25-.55-2.4.49-2.17 1.99.17 1.14 1.28 1.76 2.24 1.24Zm5.78-.08c1.05-.79.96-2.66-.16-3.15-1.37-.61-2.61.74-2.12 2.28.32 1.01 1.5 1.45 2.28.87Zm-10.72-.05c.2-.2.23-.73.05-.91-.07-.07-.49-.13-1.01-.15l-.9-.04v1.34l.85-.03c.63-.03.89-.08 1.01-.21Zm-2.1-2.42c-.1-.96-.1-.96 1.01-.96 1.08 0 1.43.2 1.43.8s-.35.8-1.43.8h-.94zm2.14.09c.23-.62-.08-.85-1.16-.85h-.74V25h.9c.87 0 .91-.01 1-.25Z"/></svg>