<svg xmlns="http://www.w3.org/2000/svg" width="51" height="51" viewBox="0 0 51 51"><path fill="#fff" fill-rule="evenodd" stroke="#fff" stroke-width=".66" d="M7.41 48.77c-.76-.38-1.58-1.35-1.76-2.09-.04-.15-.13-.32-.21-.39-.12-.1-.14-2.09-.14-13.18V20.05l-.9.03c-1.02.04-1.57-.17-2.01-.79-.46-.66-.48-2.23-.04-3.56.07-.22 1.33-1.07 3.3-2.24 1.02-.6 7.1-4.31 9.75-5.94 2.11-1.3 8.07-4.91 8.7-5.27.52-.3 2.21-.35 2.7-.09.34.19 7.58 4.55 12.45 7.51 2.2 1.33 4.86 2.94 5.9 3.58 3.52 2.13 3.81 2.34 3.83 2.82.01.08.05.42.1.75.33 2.14-.49 3.29-2.31 3.23l-.87-.03v13.08c0 11.28-.02 13.08-.14 13.13-.08.03-.18.18-.21.34-.03.15-.19.49-.36.74-.16.26-.29.51-.29.56s-.14.17-.3.27c-.16.09-.3.22-.3.28 0 .05-.24.2-.53.33l-.52.22-17.7-.01H7.85zm.39-.87c-.78-.42-2.22-2.21-1.98-2.45.02-.02.17.21.33.52.41.78 1.14 1.54 1.84 1.91l.59.32 16.99-.02 16.98-.03.57-.27c.72-.33 1.47-1.07 1.87-1.84.18-.33.29-.48.25-.34-.18.71-1.15 1.81-1.99 2.23l-.5.26.53.01c.98 0 1.92-1.21 2.12-2.72.05-.42.1-5.8.1-12.69V20.83l-8.81-5.29c-4.84-2.91-9.36-5.62-10.03-6.02l-1.23-.72-.69.41c-.38.23-1.68 1.03-2.89 1.77s-4.38 2.68-7.05 4.3-5.66 3.44-6.64 4.04c-.99.61-1.95 1.17-2.13 1.26l-.33.16v12.41c0 13.85-.05 12.91.72 14.05.5.75.87 1 1.48 1h.45zm16.9-3.87c-1.73-.26-2.48-.41-3.79-.74-1.86-.47-1.71-.47-2.12-.04-.3.31-.4.35-.86.35h-.53v-8.98l.56-.04c.66-.04.64-.06.85.99.59 2.9 2.76 5.5 5.23 6.29 5.35 1.7 8.66-3.38 4.4-6.76-.92-.74-1.91-1.33-4.33-2.6-3.69-1.93-5.21-3.08-5.94-4.47-1.98-3.8-.21-8.6 3.72-10.12 1.99-.77 4.01-.72 7.13.18 1.67.48 1.56.48 2.22-.04.52-.4.64-.45 1.11-.45.79 0 .76-.22.73 4.26l-.03 3.99-.71.03-.72.03-.36-1.14c-1.15-3.66-2.92-5.31-5.93-5.53-3.06-.22-5.11 1.78-4.37 4.27.52 1.76 1.32 2.38 5.89 4.63 4.66 2.3 6.15 3.49 7.16 5.71 2.37 5.23-3.04 11.14-9.31 10.18Zm3.88-.52c5.58-1.62 7.57-7.85 3.74-11.68-1.21-1.21-1.81-1.58-5.62-3.49-1.69-.84-3.41-1.76-3.82-2.03-3.89-2.6-2.62-7.31 1.97-7.31 3.33 0 5.6 1.97 6.69 5.8l.24.85.49.03.5.03.06-.92c.09-1.17.09-3.3 0-5.31l-.06-1.58h-.49c-.43 0-.56.05-.98.41-.6.5-.55.5-3.05-.15-2.16-.57-3.47-.69-4.82-.43-3.39.65-5.65 3.22-5.8 6.62-.15 3.25 1.09 4.97 5.17 7.16 4.8 2.58 5.33 2.91 6.36 3.93 1.85 1.85 1.94 4.59.23 6.47l-.5.54.55-.75c.31-.41.6-.88.66-1.05l.1-.3-.22.3c-.9 1.21-2.08 1.75-3.86 1.75-3.8 0-6.79-2.85-7.67-7.32-.05-.25-.1-.28-.45-.28h-.4v8.6h.22c.26 0 .52-.14 1.01-.53l.35-.28 1.74.45c3.17.82 5.89.98 7.66.47ZM9.35 18.3c1.93-1.17 4.11-2.5 4.85-2.96 3.54-2.16 10.87-6.62 11.06-6.72.18-.1 1.4.61 10.1 5.84 5.44 3.27 9.93 5.93 9.99 5.91.12-.04.19-.51.11-.82-.04-.15-.32-.39-.79-.68-2.69-1.64-5.27-3.22-7.52-4.57-1.43-.86-4.62-2.79-7.08-4.29-2.47-1.49-4.53-2.71-4.58-2.71-.06 0-2.83 1.67-6.17 3.71-3.34 2.05-7.77 4.76-9.85 6.03l-3.77 2.3v.59c0 .32.03.56.08.54.04-.03 1.65-1 3.57-2.17Zm-4.38 1.22c.18-.09 1.01-.6 1.85-1.13s2.63-1.64 3.98-2.46 4.16-2.55 6.25-3.83 4.72-2.89 5.85-3.58c1.13-.68 2.16-1.31 2.29-1.39.31-.2.06-.33 4.54 2.38 2.1 1.28 5.01 3.04 6.47 3.92s3.28 1.99 4.05 2.45c2.66 1.62 5.3 3.25 5.6 3.48.87.66 2.3.32 2.81-.67.25-.49.17-.65-.15-.3-.16.17-.33.31-.37.31s.06-.15.23-.32c.57-.61.65-.99.37-1.81-.2-.6-.51-.86-2.2-1.88-.77-.45-3.46-2.09-5.99-3.62-2.53-1.54-6.09-3.7-7.9-4.8s-4.03-2.44-4.91-2.98c-1.58-.97-1.63-.99-2.22-.99-.72 0 .39-.63-10.12 5.78-4.1 2.5-8.48 5.18-9.75 5.94-3.01 1.82-3.34 2.16-3.35 3.36 0 .49.03.55.45.97.54.54.51.59-.05.09-.44-.4-.47-.39-.26.09.4.96 1.68 1.46 2.53.99Z"/></svg>