<svg xmlns="http://www.w3.org/2000/svg" width="51" height="51" viewBox="0 0 51 51"><path fill="#fff" fill-rule="evenodd" stroke="#fff" stroke-width=".429" d="M.1 51.14c0-.09 4.19-4.87 5.65-6.44.33-.36 1.77-2.02 3.2-3.7 1.43-1.67 3.03-3.51 3.55-4.1 1.28-1.42 2.54-2.89 2.58-3 .05-.14-.74-.21-1.84-.18l-1.02.03.39.64c.48.79.48.94.04 1.21-.3.19-.35.27-.35.6 0 .48-.12.53-.98.4-.9-.13-1.02-.13-.82.01.11.07-.24.08-1.17.04l-1.32-.07-.56.32c-.39.22-.55.37-.51.47.03.08.06.29.06.46v.31l.31-.42.31-.42.38.3c1.08.85 1.2 1.78.3 2.25-.24.12-.3.22-.3.48 0 .27-.05.35-.31.44-.4.16-.53.08-.34-.2.21-.3.19-.46-.07-.56-.23-.08-.23-.08-.28 1.04-.06 1.32.07 1.12-1.7 2.68l-1.25 1.1-1.93-.05c-1.06-.03-1.95-.08-1.99-.12-.19-.18.27-.22 1.82-.16.94.03 1.73.05 1.78.03.04-.02.07-.71.07-1.52v-1.48l-.28-.06c-.15-.03-1.01-.09-1.9-.13-1.11-.05-1.61-.1-1.59-.18.04-.13.95-.14 2.6-.03l1.18.08-.03-.28-.03-.28-1.6-.06c-.88-.04-1.72-.07-1.87-.08-.19-.01-.28-.07-.28-.17 0-.15.19-.16 1.88-.13l1.87.04-.01-.6c0-.33-.01-1.29-.02-2.13L3.7 36H1.85C.27 36 0 35.98 0 35.85s.28-.15 1.95-.15H3.9v-.5H1.95C.28 35.2 0 35.18 0 35.05s.27-.15 1.86-.15c1.73 0 1.86-.01 1.79-.17-.03-.1-.29-.82-.57-1.61l-.51-1.42h-2.6l.07-.47c.1-.69.1-.75.02-1.11-.09-.4.1-.44.25-.04.11.27.08.8-.06 1.15-.06.14-.01.17.29.17H.9v-.74c0-.53-.04-.77-.15-.86-.24-.2-.18-.4.26-.87.78-.85.18-1.76-.85-1.29-.14.07-.17.05-.14-.1.05-.28.51-.4 1.01-.27.28.08.46.08.54.02.28-.23.78-.06.81.28l.03.31.3-.16.29-.17-.02-1.24-.03-1.24-1.47.02c-1.29.02-1.48 0-1.48-.13 0-.14.2-.16 1.4-.16 1.59 0 1.6-.01.86-.64l-.54-.46H.86c-.51 0-.86-.04-.86-.1 0-.05.11-.1.24-.1h.24l.07-1.6c.06-1.25.11-1.6.21-1.6s.14.15.14.55v.55h1.4v-.55c0-.42.03-.55.15-.55.11 0 .15.12.15.49 0 .27.05.73.12 1.01l.12.51.55-.07c.31-.03.58-.08.6-.1.1-.09-.01-4.19-.12-4.33-.18-.21-.16-5.23.02-5.29.12-.04 1.24-1.7 1.55-2.31.18-.34.21-1.32.05-1.48-.08-.08-.08-.17 0-.32.47-.88 1.35-3.62 1.39-4.33.06-1.05.32-1.04.32 0 0 .32.1.68.31 1.12.91 1.93 1.41 3.24 1.3 3.42-.37.6.27 2.36 1.3 3.53.1.11.2.37.24.57.05.24.14.39.26.43.28.09.57.51.64.95.1.58.61 1 1.21 1 .84 0 1.32.19 1.94.77.52.48.66.55 1.19.64 1.12.18 3.66 1.19 3.58 1.42-.1.3-4.09.14-6-.23-1.64-.33-2.77-.38-2.77-.13 0 .11-.07.26-.15.33-.12.1-.15.42-.15 1.69v1.56l2.93.02c1.6.01 3.24.06 3.62.1l.7.08.03.58.03.57h2.99v.44c0 .26.06.48.15.56.1.08.15.31.15.71 0 .7.06.72.65.18.48-.44.57-.69.26-.69-.32 0-.31-.13 0-.64.68-1.09 1.29-2.21 1.29-2.38 0-.09.1-.28.23-.4.29-.29.9-1.93.81-2.2-.03-.11.01-.27.1-.37.1-.11.27-.97.51-2.66.39-2.66.39-2.69.29-3.29-.05-.3-.03-.42.09-.51.11-.08.17-.31.19-.75.04-.87.28-.96.28-.1 0 .47.05.68.22.9.19.27.2.33.09.67-.17.52.59 5.42.9 5.79.06.08.08.21.05.31-.08.2.6 2.12.81 2.29.07.06.13.21.13.33s.29.8.65 1.5c.69 1.36.74 1.51.5 1.51-.12 0-.15.13-.15.55v.55h.44c.24 0 .51.03.6.06.14.05.16-.05.16-.67.01-.44.07-.9.17-1.14.09-.22.16-.62.15-.88-.03-.66.08-.8.71-1 .8-.25 1.04-.49 1.54-1.54.47-.99.78-1.3 1.96-1.98.62-.35.7-.48 1.13-1.78.26-.78.34-1.17.3-1.4-.22-1.07-.29-.94 1.02-2.06.48-.41.56-.53.82-1.25l.11-.29.29.28c.21.21.33.46.45.99.09.4.27.85.42 1.04.14.19.41.72.59 1.18.19.47.51 1.09.7 1.39.31.46.38.69.54 1.72.4 2.6.46 1.44.31-5.52l-.06-2.8-.65-.26c-.59-.24-.74-.26-1.56-.21l-.91.05-.46-.42c-.39-.37-.54-.43-1.14-.53-.99-.15-1.84-.6-1.6-.84.03-.03 1.8-.49 3.94-1.03l3.88-.96-.07-.4c-.32-1.86.19-3.05 1.31-3.05.83 0 .84.01 1.41 1.43.73 1.84 1 1.97 4.05 1.97 1.13 0 2.05.04 2.05.09 0 .08-.94.21-1.55.21-.29 0-.49.17-1.75 1.5-.79.82-1.47 1.5-1.51 1.5-.21 0-.01-.26 1.2-1.56l1.29-1.39-.87-.08c-1.14-.1-1.19-.08-1.68.67l-.42.65.15 1.03c.38 2.59.75 3.93.72 2.6-.03-.91.22-1.39.38-.76.08.29-.02 3.71-.16 6.09-.06.83-.13 2.39-.16 3.47l-.07 1.97.44.03.44.03-.03 1.55c-.02.85-.08 1.59-.13 1.65-.07.06-1.51.09-4.01.08-2.99-.01-3.88.01-3.79.1s1.27.13 4.21.17c2.24.03 4.12.08 4.16.12.04.05-.68.08-1.61.08h-1.68l.73.76c.76.8 1.3 1.78 1.82 3.27l.23.67h1.82c1.56 0 1.83.02 1.83.15s-.32.15-2.22.16c-1.34 0-2.15.04-2.03.09.11.05 1.11.09 2.23.09 1.73.01 2.02.03 2.02.16s-.27.15-1.8.15h-1.8v.69c0 .52.04.7.15.75.08.03.15.16.15.29s.05.28.11.34c.07.07.13.22.14.35s.03.26.04.31c0 .04.69.07 1.51.07 1.27 0 1.5.02 1.5.15s-.31.15-2.22.15h-2.22l.62.45.62.45h1.6c1.36 0 1.6.02 1.6.15s-.24.15-1.58.15h-1.59l-.28.73c-.15.39-.39.93-.51 1.19-.13.26-.24.5-.24.53s.95.05 2.1.05c2.03 0 2.1.01 2.1.2s-.07.2-2.2.2h-2.2v.6H49c1.89 0 2.2.02 2.2.15s-.3.15-2.1.15c-1.15 0-2.1.03-2.1.08 0 .04.96.07 2.12.06l2.13-.01-2.1.07c-1.15.04-2.11.08-2.12.08-.06.04-.03 5.31.03 5.46.05.12.21.16.68.16.72 0 1.18-.37 1.71-1.37.34-.63.45-.68 1.01-.44.42.19.44.22.44.6 0 .3.04.41.15.41.08 0 .15.07.15.16 0 .13-.06.15-.27.09-.35-.08-.63-.33-.62-.54.01-.13.02-.13.06.02.06.24.23.11.23-.18 0-.2-.37-.45-.66-.45-.02 0-.04.14-.04.31 0 .25-.03.29-.13.2-.11-.09-.18-.03-.32.28-.09.22-.32.54-.51.72-.2.19-.34.43-.34.56s-.07.26-.15.29c-.21.08-.19.16.1.5.18.21.25.41.25.7 0 .44.17.66.6.79.36.11.4.21.4 1.03v.72h.6v-.68c0-.37-.05-.73-.11-.79-.07-.07.03-.13.36-.18.26-.03.49-.04.52-.01.09.09-.08.26-.28.26-.17 0-.19.07-.19.75 0 .93.06.9-1.57.78l-1.3-.09c-.01.01.32.42.73.91 1.3 1.56 1.37 1.65 1.21 1.65-.09 0-.62-.56-1.19-1.25-.86-1.04-1.08-1.25-1.3-1.25-.38 0-.4-.02.72 1.31.7.84.94 1.19.82 1.19-.11 0-.59-.5-1.21-1.25-.66-.82-1.22-1.39-1.57-1.62q-.54-.36-.54-.57c-.01-.12-.61-.94-1.36-1.86-.74-.91-2.05-2.52-2.91-3.58-.87-1.09-1.66-1.97-1.8-2.03-.29-.11-1.33-.12-1.33-.01 0 .06 6.13 8.51 7.39 10.19.31.41.47.69.39.72-.14.05-.24-.07-1.96-2.42-.75-1.04-2.29-3.16-3.43-4.7-1.13-1.55-2.76-3.83-3.63-5.07-.88-1.24-1.88-2.65-2.25-3.13-.74-.99-.71-1-.9.23-.95 6.19-7.7 9.17-13.81 6.1-2.28-1.15-3.63-2.67-4.35-4.9-.1-.3-.21-.59-.25-.63-.04-.05-1.08 1.3-2.31 2.99-4.25 5.83-8.51 11.43-8.77 11.52-.25.08-.09-.17 1.05-1.63 1.63-2.09 4.75-6.26 6.3-8.4.71-.99 1.8-2.49 2.42-3.33.61-.84 1.09-1.58 1.05-1.64-.04-.07-.03-.08.04-.04.13.08.14-.18.03-.68l-.06-.29-.39.43c-.36.4-.38.44-.2.51.16.06.15.08-.08.08-.23.01-.53.32-1.85 1.93-2.88 3.49-4.74 5.72-5.46 6.54-.4.44-1.84 2.1-3.22 3.67-1.61 1.85-2.57 2.87-2.69 2.87-.14 0-.03-.18.46-.72.55-.62 4.49-5.16 4.97-5.72.15-.18.15-.19-.14-.12-.44.11-1.08.79-4.84 5.14C.56 50.99.1 51.41.1 51.14Zm49.38-2.96c.02-.27-.01-.38-.1-.38-.08 0-.25-.14-.4-.3-.17-.2-.22-.3-.12-.3.2 0 .18-.08-.11-.42a1 1 0 0 1-.25-.67c0-.22-.08-.48-.19-.62-.28-.37-.35-.68-.17-.75.35-.13.13-.24-.49-.24-.84 0-.91-.04-2.24-1.41l-1.14-1.17.02-.76.01-.76h-1.17l-.97-.91-.96-.91V33.4h-1.39l-.11.57c-.09.4-.21.65-.41.84-.22.21-.29.36-.29.66 0 .56-.2.89-.5.85-.35-.05-.35-.06-.33-.75l.03-.62-.4-.17c-.34-.14-.41-.23-.52-.62l-.12-.46h-1.03c-.57 0-1.03.02-1.03.05 0 .02.55.68 1.23 1.47.67.79 1.87 2.21 2.65 3.16.79.94 1.47 1.72 1.51 1.72.03 0 .13.11.21.24s.38.5.67.82c.29.33.87 1.02 1.3 1.54.88 1.07 1 1.19 1.28 1.21.17.01.17.02.03.06-.14.03.18.45 1.35 1.81.84.97 1.7 1.98 1.91 2.24.37.46.4.47.99.51 1.2.07 1.22.07 1.25-.35Zm-2.4.04c-.44-.62-.68-.82-1-.83s-.32-.02-.06-.08c.35-.08-2.32-3.23-2.79-3.29-.32-.04-.35-.09 1.11 1.71.67.82 1.3 1.65 1.41 1.85.21.39.85.82 1.23.82.21 0 .22-.02.1-.18Zm-40.26-3.8c.18-.07 3.28-3.71 3.28-3.85 0-.31-.56.2-1.8 1.63-.79.91-1.57 1.8-1.73 1.98-.32.33-.22.43.25.24Zm-.79-1.72.67-.66v-1.23c0-.75-.04-1.21-.1-1.19-.05.02-.64.43-1.3.91l-1.2.88v3.01l.63-.54c.34-.29.92-.82 1.3-1.18Zm40.71-1.45c-.01-2.66-.02-2.86-.2-3.06-.22-.24-1.8-1.49-1.88-1.49-.03 0-.06 1.16-.06 2.59v2.58l1.06 1.12c.58.61 1.07 1.11 1.07 1.11.01 0 .02-1.28.01-2.85ZM.43 42.84c.06-1.07.06-1.07 1.06-.98l.82.07-.03.86-.03.86-.94.03-.94.03zm4.07-.44v-.79l.38-.26.37-.25.03.77c.03.77.03.78-.3 1.06-.46.38-.48.36-.48-.53Zm21.97.55c6.31-1.2 9.13-7.97 5.59-13.44-4.88-7.55-16.53-4.11-16.59 4.89-.05 5.58 5.2 9.65 11 8.55Zm-3.38-.3c-5.64-1.07-8.6-5.75-6.88-10.9 2.61-7.83 13.44-8.18 16.39-.53 2.5 6.47-2.7 12.73-9.51 11.43Zm2.65-.35c.4-.09.99-.6 1.78-1.53l.4-.48-.38-.87c-.21-.48-.4-.9-.43-.94-.03-.03-.58-.14-1.21-.23-.63-.08-1.43-.22-1.77-.29l-.62-.13-.78.65c-1.53 1.27-1.38 1.09-1.24 1.5.48 1.36.83 2.01 1.14 2.11.83.27 2.4.38 3.11.21Zm-20.1-.45c-.11-.77.39-1.85.72-1.53.21.22.05 1.53-.22 1.75-.39.31-.42.3-.5-.22Zm21.82.14c1.11-.34 1.98-.84 2.72-1.54l.67-.65-.46.2c-.57.24-1.54.5-1.9.5-.21 0-.47.2-1.11.85-.91.93-.91.95.08.64Zm-5.69-.56c-.13-.27-.34-.76-.46-1.1-.23-.62-.24-.63-1.1-1.09-.47-.26-1.13-.65-1.45-.87-.67-.45-.75-.42-.98.34-.21.73 1.34 2.11 3.24 2.89.99.4 1.03.39.75-.17Zm26.85-.65.03-1.03h1.6l.03.94c.03 1.12.04 1.11-.96 1.11h-.73zm-2.6.09c-.28-.3-.34-2.07-.07-2.07.4 0 .55.36.55 1.35 0 1.04-.08 1.15-.48.72ZM11.28 39.2c.42-.52 1.35-1.65 2.07-2.5 1.43-1.69 1.81-2.17 1.74-2.24-.02-.02-.33.3-.69.72s-1.06 1.21-1.56 1.77c-1.96 2.17-2.95 3.38-2.82 3.46.17.11.36-.08 1.26-1.21Zm33.89.98c-.27-.2-.44-2.18-.18-2.18.42 0 .61.41.61 1.35 0 1.05-.04 1.12-.43.83ZM6.13 38.75l.57-.45-.06-1.63c-.04-.89-.07-1.63-.08-1.64s-.59.28-1.3.63l-1.28.66.05 1.91c.03 1.06.06 1.93.06 1.95.01.04 1.32-.88 2.04-1.43Zm23.33 1.24c1.45-.45 1.96-.87 2.51-2.08.54-1.2.53-1.33-.12-2.7-.67-1.39-.54-1.34-1.89-.83l-.99.37-.38.88c-.22.48-.59 1.23-.84 1.66l-.45.79.36.83c.2.46.4.94.45 1.07.11.28.45.29 1.35.01Zm14.84-1.72c0-1.81-.01-1.95-.2-2.12-.28-.25-.26-.33.2-.77.25-.23.35-.38.25-.38-.12 0-.15-.14-.15-.7v-.7h.5c.35 0 .52.05.58.16.07.13.15.08.47-.3.37-.45.38-.46.96-.46.46 0 .59-.03.59-.15 0-.13-.28-.15-1.95-.15H43.6v.98c0 .53-.03 2.22-.07 3.75l-.06 2.77h.83zm-5.17 1.69c-.04-.07-.75-1-1.58-2.06l-1.5-1.92-.37.05c-.21.03-.38.01-.38-.04s.12-.09.26-.09c.35 0 .31-.06-.71-1.25-1.05-1.21-1.01-1.19-.96-.57.03.38.12.59.53 1.11.28.35 1.09 1.47 1.81 2.5.72 1.02 1.39 1.98 1.51 2.14.23.31 1.57.44 1.39.13Zm4.16-3.71.01-3.51-.85-.41c-.46-.24-.86-.39-.89-.35-.02.04-.05 1.51-.05 3.27l-.02 3.19.83.83c1.04 1.04.96 1.28.97-3.02ZM.4 39.19c-.5-.2-.62-1.94-.15-2.25.38-.25 2.11-.17 2.31.1.28.39.19 2.04-.12 2.16-.32.13-1.71.12-2.04-.01Zm21.89-.76c.99-.85 1.02-.89.96-1.21-.03-.18-.15-.99-.26-1.79-.1-.81-.2-1.47-.22-1.49-.24-.21-2.91-1.43-3.02-1.37-.07.05-.59.48-1.14.98-1.23 1.09-1.25 1.22-.6 3.47l.19.66.98.61c.95.59 1.77 1 1.97 1.01.06 0 .57-.39 1.14-.87Zm-17.72.2c-.4-.39.13-2 .62-1.91.4.08.24 1.61-.19 1.83-.33.17-.34.17-.43.08Zm13.11-.46.23-.44-.26-.89c-.14-.49-.29-1.2-.32-1.59-.08-.87-1-2.21-1.16-1.67-.23.79.18 3.03.79 4.27.43.88.42.88.72.32ZM5.7 37.31c0-.84.15-1.11.62-1.11.26 0 .26 1.3.01 1.52-.57.49-.63.45-.63-.41Zm21.5.37c.41-.66 1.18-2.24 1.31-2.66l.13-.43-1.1-1.1c-1.5-1.52-1.12-1.49-3.37-.22-1.2.68-1.11.44-.87 2.25.28 2.03.25 1.96.69 2.08 1.79.48 2.95.51 3.21.08Zm20.1-2.08c.27-.63.47-1.17.44-1.22-.13-.21-1.36-1-1.44-.92-.04.05-.43.51-.85 1.03-.88 1.09-.92.92.39 1.86.93.65.83.7 1.46-.75ZM8.25 36c.38-.26.78-.49.87-.53.17-.06.29-2.27.13-2.27-.03 0-.29.12-.58.26-.63.32-.55.2.11-.16.51-.27.82-1.1.35-.94-.16.06-.16.05.01-.08.16-.13.2-.33.24-1.43l.05-1.28-.24.07c-.13.04-.61.17-1.06.29l-.83.22.01 3.23c0 2.5.02 3.21.12 3.16.07-.04.44-.28.82-.54Zm3.45.15c0-.17-.09-.29-.29-.39-.5-.26-.42-.82.27-1.88l.25-.38h.83c.65 0 .84-.03.84-.14 0-.19-.32-.26-1.31-.26-1.38 0-1.47.03-1.51.59l-.03.46-.55.05-.55.05-.03.54c-.04.61.04.71.59.71.52 0 .54.09.12.52l-.37.38h.87c.86 0 .87 0 .87-.25Zm26.98-.56c.04-.68.1-.86.32-.92.35-.09.69-1.45.45-1.8-.07-.1-.14-.15-.16-.1s-.22.22-.44.37l-.4.28.38-.34c.42-.4.44-.47.2-1.05-.25-.59-.87-.65-.97-.09-.04.19-.22.55-.42.8-.32.42-.34.5-.25.79.05.17.13.46.18.62.07.24.17.33.52.44l.43.14-.04.68c-.02.45 0 .68.07.66.05-.02.11-.23.13-.48Zm-5.91-.7c.08-1.45-.31-3.37-.85-4.08-.39-.52-.42-.41-.42 1.34v1.68l.52 1.07c.61 1.25.68 1.25.75-.01Zm-27.44.3c1.19-.6 1.57-.85 1.57-1.04 0-.09-.33.01-1.02.34-.57.26-1.2.54-1.4.6-.39.13-.42.18-.32.45.08.21 0 .23 1.17-.35Zm7.13.16.27-.22-.29-.53-.29-.54-.06.7-.05.69-.02-.62c-.03-.81-.12-.84-.46-.16-.4.83.17 1.27.9.68Zm-7.14-.91c1.51-.67 1.54-.55-.47-1.72-1.53-.9-1.95-1.11-1.95-.99 0 .06.68 2.02.9 2.6.26.69.24.69 1.52.11Zm24.88-.48.95-.34.03-1.74.02-1.75-.83-.8c-1.34-1.29-1.12-1.24-3.18-.62l-.66.2-.05 1.51-.05 1.51 1.26 1.23c.77.76 1.32 1.21 1.41 1.19.08-.03.58-.2 1.1-.39Zm-11.66-.75 1.06-.95v-.7c0-.38.07-1.12.17-1.63.19-1.11.27-1.02-.76-.92-.98.1-.98.1-1.57 1.06-1.07 1.7-1.23 2.69-.57 3.53.56.72.38.76 1.67-.39Zm-7.71-.35.22-.06-.25-.21c-.22-.18-.22-.19-.03-.1.12.06.25.16.29.22.12.21.24-.14.24-.75 0-.65-.26-1.2-.62-1.32-.45-.14-1.28 1.26-.89 1.5.09.06.33.66.26.66-.02 0-.11-.12-.19-.28l-.15-.27-.01.32c0 .3.03.32.38.35l.37.03.05.55.04.55.04-.56c.02-.49.06-.58.25-.63Zm12.78.34c.34-.22 1.03-.61 1.54-.87l.93-.47.06-.61c.03-.33.07-.98.08-1.45l.03-.85-.5-.33c-.68-.44-2.2-1.22-2.39-1.22-.22 0-1.17.43-2.22 1.01l-.91.51-.17.98c-.09.55-.16 1.28-.16 1.63v.64l1.53.71c1.8.85 1.44.8 2.18.32ZM6.9 31.75V30H1.2v.71c0 .61.02.7.16.65.09-.03.22-.06.3-.06s.14-.09.14-.19c0-.23.19-.31.73-.31.68 0 .83.08.93.48.07.29.2.42.64.69l.55.33.05-.73.05-.72.68-.03c.85-.04.97.05.97.69 0 .86-.1.99-.77.99h-.58l.85.5c.47.28.88.5.92.5.05 0 .08-.79.08-1.75ZM37 33.26c0-.51-.61-.76-1.89-.76h-1.12l.36.44c.4.49.44.5 1.98.54.64.02.67.01.67-.22Zm4.32-2.33c.06-.08.34-.13.74-.13h.64v-2.6h-5.1v2.08c0 1.37.04 2.02.1 1.92.05-.08.1-.28.1-.43s.06-.3.14-.33.16-.19.2-.35c.1-.52.79-.39.87.16.03.22.24.71.46 1.1l.4.7.64.05.64.05.03-1.04c.01-.58.08-1.11.14-1.18Zm-26.51 1.59c.49-.21.71-.43.51-.5-.21-.07-.16-1.14.06-1.1.11.03.16.12.14.28-.04.35.14.13.23-.27.08-.41-.01-.41-1.47-.02l-.38.1v.94c0 1.07-.1 1.01.91.57Zm-1.21-.61v-.89l-.89-.07c-1.09-.09-1.36-.03-1.2.27.07.14.09.45.05.89l-.07.69h2.11zm23.7-1.59v-2.48l-.5-.16-.5-.16v4.73l.43.27c.23.15.45.28.5.28.04 0 .07-1.12.07-2.48Zm11.47 2.11c-.04-.03-.07-.33-.07-.65v-.58h1.1v1.3h-.48c-.27 0-.52-.03-.55-.07Zm-8.95-.81.03-.77h.8l.03.77.03.78h-.92zM35.9 31c0-.73-.04-1.2-.1-1.2s-.1.12-.1.26c0 .35-.33.88-.64 1.02-.2.09-.25.2-.28.54l-.03.43-.6.06c-.47.04-.34.06.58.07l1.17.02zm10.9.76c0-.36-1.4-.66-3.04-.66l-1.71.01.75.33c.68.31 4 .57 4 .32Zm.52-.36c.18-.54-.05-1.2-.49-1.4-.72-.32-.74-.3-.71.46l.03.66.45.19c.52.21.67.23.72.09Zm-12.2-.78c.5-.54.46-.95-.22-1.89l-.4-.56-.1.27c-.05.14-.3.46-.55.71-.84.81-.49 1.75.66 1.75.26 0 .42-.07.61-.28Zm10.68-.52v-.7h1.52l-.07-.28c-.31-1.23-1.24-2.91-2.13-3.86l-.53-.56h-2.14c-1.18 0-2.45-.05-2.82-.11l-.68-.12-1.5.58c-.83.32-1.51.58-1.52.59s.08.29.2.63l.23.62.62-.34c.47-.27.74-.35 1.11-.35.48 0 .5-.01 1.16-.75.37-.42.7-.73.73-.7s-.25.37-.63.75c-.58.58-.66.7-.51.76.19.07 2.23-.02 2.47-.11.09-.03.44.22.92.66l.77.71v3.28h2.8zm-35.65.4c.21-.23.52-.25.79-.05.19.14 2.56.23 2.56.1 0-.02-.1-.25-.22-.5l-.22-.45H9.7v.55c0 .6.13.7.45.35Zm4.58-.03c.58-.14.59-.2.11-.58-.32-.25-1.44-.45-1.44-.25 0 .02.09.24.2.5.23.51.29.53 1.13.33Zm1.59-.6c.17-.34.22-.61.23-1.36l.01-.93-.44.06c-.25.03-.71.06-1.03.06h-.59v1.57l.71.57c.78.62.8.62 1.11.03Zm-9.36-.53c-.03-.09-.3-.46-.58-.83l-.53-.68-1.45.01-1.45.01-.76.52c-.41.29-.87.65-1.01.8l-.27.28 3.05.02c2.71.02 3.05 0 3-.13Zm1.58-.13c.76-.2.74-.26-.15-.8-.64-.38-.83-.45-1.42-.49l-.69-.04.54.8c.6.89.49.86 1.72.53Zm27.38-1.01.03-1.3h-3.42l-.02 1.2-.02 1.2h.31c.44 0 1.06-.46 1.31-.97.16-.33.26-.43.46-.43.22 0 .24-.04.21-.32-.02-.28.01-.34.2-.36.2-.03.22 0 .22.47 0 .28-.04.51-.1.51-.19 0-.1.25.25.69.19.24.35.48.35.52 0 .05.04.09.09.09.06 0 .11-.57.13-1.3Zm-21.72.25v-.75H9.5v.44c0 .24.03.58.06.75l.06.31h4.58zm-3.88.17.03-.47h1.2l.03.47.03.48h-1.32zm2.1 0 .03-.47h1.1l.03.47.03.48h-1.22zm19.81-.57c-.05-.96-.07-1.02-.39-1.39l-.34-.4-.35.34c-.34.33-.5.9-.25.9.06 0 .1.06.1.14 0 .42.3.37.32-.05.01-.43.01-.43.07.1.06.56.26.79.34.39.03-.14.05-.08.06.16.01.33.36.96.46.83.02-.01 0-.47-.02-1.02Zm-14.15-.49.21-.18-.2-.4c-.24-.46-.27-.44-.79.33-.33.5-.4.69-.4 1.1v.5l.49-.58c.26-.32.58-.66.69-.77Zm2.83.61c.35-.2 1-.53 1.43-.72 1.1-.52 1.53-1.41.59-1.24-1.42.27-3.29 1.23-4.13 2.13l-.25.27.86-.04c.75-.03.92-.08 1.5-.4Zm6.21.24c.3-.1.8-.24 1.1-.31l.56-.13-.15-.44c-.43-1.26-4.55-2.09-4.97-1-.22.57-.24.53.46.85.35.16.97.5 1.38.75.86.53.88.54 1.62.28Zm-17.9-.61.03-.7H6.4v.25c0 .24.03.25.58.25.5 0 .67.06 1.32.45.94.56.88.58.92-.25Zm32.96-.65-.56-.55h-2.07c-1.95 0-2.1.01-2.46.22-.5.28-.49.33.06.47.25.06.48.18.51.26.05.13.45.15 2.58.15h2.51zM5 27.24c0-.42-.45-.94-.81-.94-.34 0-.99.67-.99 1.02v.28H5zm9.16.13c.04-.04-.03-.3-.16-.57l-.23-.5H10.3l-.4.52c-.31.39-.38.53-.28.6.15.11 4.43.06 4.54-.05Zm2.12-.05c.09-.06.01-.21-.31-.55l-.43-.47h-.77c-.86 0-.85-.01-.57.64l.21.46h.87c.48 0 .93-.04 1-.08Zm.92-.42c.17-.27.33-.57.34-.67.05-.34.34-.26.51.14.09.21.23.48.31.61l.15.22.34-.26c.31-.23.35-.32.35-.7v-.44h-2.1c-1.33 0-2.1.04-2.1.1s.14.1.32.1c.29 0 1.48 1.06 1.48 1.33 0 .15.09.06.4-.43Zm13.24.18c-.2-.28-.05-2.8.17-2.85.17-.05.19-.15.19-1.24 0-.68.04-1.2.1-1.24s.1.38.1 1.19v1.26h.5v-2.17l.32-.07c.18-.04.59-.04.91 0l.57.07-.05 1.66c-.03.91-.02 1.59.01 1.51.04-.08.16-.27.26-.43.17-.23.2-.5.24-1.7.06-1.81-.02-1.67.93-1.67h.8l.09.33c.05.18.05.62.01 1.02-.11.84-.07.95.26.95.25 0 .25.01.25.75 0 .41.03.75.06.75.04 0 .59-.2 1.23-.44s1.49-.54 1.89-.65l.72-.22v-.62c0-.59-.02-.65-.36-.98-2.78-2.66-3.66-6.81-1.99-9.39.29-.45.35-.63.33-.99-.04-.55-.22-.64-.37-.18-.1.31-.47.69-1.6 1.68-.18.16-.22.26-.16.47.2.78.17 1.11-.19 2.2-.45 1.34-.51 1.42-1.36 1.92-1.07.63-1.28.85-1.75 1.85-.46.99-.7 1.25-1.43 1.5-.75.26-.77.29-.75.71.02.21-.06.65-.17.96-.31.9-.3 3.61.02 3.95.23.25.36.31.22.11Zm-20.9-.3c.15-.25.32-2.04.21-2.37-.06-.19-.15-.21-1.13-.23l-1.07-.02 1.1-.05 1.1-.06.03-1.31.03-1.31-.68-.06c-.37-.04-1.17-.07-1.76-.07H6.29l.05 2.68c.04 1.47.06 2.75.06 2.85 0 .3 2.94.26 3.14-.05Zm-3.64-1c0-.62.03-1.23.06-1.35.06-.22.04-.23-.7-.23H4.5v.89c0 .9.19 1.43.21.59.01-.24.05-.54.1-.68.05-.17.08-.02.06.5-.02.97.2 1.4.7 1.4h.33zm30 .72c0-.06-.07-.26-.14-.45l-.15-.35h-.83c-.46 0-1.06-.03-1.35-.06l-.51-.07-.21.41c-.33.64-.37.62 1.49.62 1.1 0 1.7-.04 1.7-.1Zm-15.45-.72c.04-.1.03-.49-.01-.88l-.07-.7h-.78c-.9 0-.93.04-.59.7.25.49.27.49.22.05-.04-.31-.01-.35.18-.35.22 0 .22.02.15.95l-.07.96.46-.28c.25-.15.48-.36.51-.45Zm9.1-.45c-.06-.26-.89-.35-.97-.11-.14.41-.38-.05-.38-.72v-.7h-.34c-.31 0-.35-.04-.65-.65-.94-1.9-3.3-1.79-4.02.18-.12.35-.16.37-.56.37h-.43v.42c0 .24-.03.6-.06.81l-.07.38.44-.07c.88-.13 1.45-.52.82-.55-.24-.02-.23-.03.08-.08.3-.05.47-.19 1-.86.9-1.11.96-1.11 1.91.17.47.64.52.68.91.7l.42.01-.38.04-.37.04.29.36c.2.24.64.53 1.33.87l1.03.51.03-.44c.02-.25.01-.55-.03-.68Zm2.86.62c.12-.3.31-.57.41-.61.16-.05.18-.18.18-1.1V23.2h-1.32l.06.53c.03.28.08.73.12 1l.06.47h-.56c-.56 0-.56 0-.56.31v.31l.55-.04c.54-.03.56-.02.5.2-.06.23.09.52.25.52.05 0 .18-.25.31-.55Zm-18.77.02.5-.02.01-.98c.01-1.25.15-1.18-2.16-1.15l-1.94.03-.03 1.1-.03 1.1 1.58-.03c.87-.01 1.8-.03 2.07-.05Zm5.36-.54c0-.48-.45-.65-1.75-.7l-1.3-.05-.4.41-.39.41h1.92c1.06 0 1.92-.03 1.92-.07ZM3.48 24.18l-.03-1.13-.33-.03c-.31-.03-.32-.02-.32.37 0 .23-.04.41-.1.41-.05 0-.1-.16-.1-.35v-.35h-.9c-.83 0-.9.01-.9.2 0 .18.07.2.57.2.63 0 1.83.95 1.83 1.46 0 .22.08.34.22.34.05 0 .07-.51.06-1.12Zm32.42.53c0-.33-.04-.63-.1-.66s-.1-.02-.1.04c0 .36-.76.81-1.37.81-.35 0-.63.02-.63.04s-.03.11-.06.2c-.05.14.08.16 1.1.16h1.16zm-9.12.31c-.49-.68-1.31-1.73-1.38-1.77-.13-.08-1.6 1.57-1.6 1.78 0 .04.57.08 1.28.1.7.01 1.4.04 1.55.05.25.02.27 0 .15-.16Zm-8.26-.79.03-.28 1-.05c1.39-.07.4-.23-1.14-.18-1.09.03-1.26.14-1.07.65.12.29 1.14.16 1.18-.14Zm-3.82.05c0 .08.19.12.6.12h.6l-.04-.42-.04-.43-.62-.03c-.71-.03-.78.02-.72.54.03.25.07.32.13.23.06-.1.09-.11.09-.01Zm-8.78-1.5c.03-.78.01-1.38-.05-1.45-.05-.07-.06-.13-.01-.13.1 0 .13-3.35.03-3.44-.04-.04-.39-.01-.79.05l-.73.12.06 2.98c.06 3.43 0 3.19.81 3.19h.64zm37.91 1.02h.57v-1.07c0-.6.05-1.15.1-1.23.07-.1.1.25.1 1.08v1.22h1.8l.01-.92c.01-1.02.17-.67.18.4.01.52.02.53.29.5.3-.03.34-.19.45-1.87l.05-.74-2.92.06c-1.6.04-3.17.07-3.48.07h-.58v2.5h.25c.24 0 .25-.03.26-.62.02-1.31.16-1.72.18-.51l.01 1.12.28.04c.15.03.63.03 1.07.01s1.06-.04 1.38-.04Zm-29.43-.62c0-.24-.03-.74-.07-1.11l-.06-.68-.71.03c-.95.04-.95.15-.05 1.27.83 1.04.89 1.07.89.49Zm-.78.05c-.11-.16-.39-.49-.62-.75l-.42-.48h-.77c-.43 0-.99.03-1.25.06l-.46.07v1.37h3.71zm6.58-.08v-.35h-2.91l.03.28c.04.38.16.4 1.61.41l1.27.01zM23 23c1.07-2.1 3.45-2.08 4.46.04.16.33.21.36.61.36h.43l-.62-1.24-.62-1.24-1.1-.07c-.61-.03-1.51-.05-2-.03l-.9.03-.53.94c-.29.51-.62 1.08-.74 1.27l-.21.34h.51c.49 0 .51-.01.71-.4Zm-7.09-.07.01-.28.07.25c.06.22.13.25.54.28l.47.03v-.35c0-.36 0-.36-.43-.36-.24 0-.78-.03-1.2-.06l-.77-.07v.83h.65c.64 0 .65 0 .66-.27Zm23.66-2.22c-.39-.42-.81-.94-1.01-1.29-.04-.07.3.26.76.74l.84.87.47-.07.47-.07v-.56c0-.37-.09-.78-.25-1.19-.14-.35-.32-1.09-.4-1.65-.11-.84-.2-1.11-.5-1.62-.21-.34-.5-.95-.66-1.36-.17-.4-.43-.93-.59-1.17-.17-.23-.3-.47-.3-.53s-.04-.11-.1-.11-.1-.08-.1-.17c-.01-.16-.02-.15-.13.03-.07.11-.24.36-.38.55-1.54 2.02-.72 6.02 1.81 8.73l.45.49.03-.58c.03-.57.02-.59-.41-1.04ZM9.7 19.75c0-1.31-.02-1.45-.17-1.46-.14 0-.13-.02.05-.09.59-.24.17-.34-1.99-.46-1.39-.07-1.26-.26-1.28 1.84l-.02 1.62H9.7zm32.1-5.2c0-6.22 0-6.34-.2-6.45-.2-.1-.2-.06-.17 6.35.02 6.07.03 6.45.19 6.45.17 0 .18-.37.18-6.35Zm1.36 6.13c-.03-.13-.08-.97-.1-1.88-.05-1.71 0-1.41.2 1.28l.06.82h.61l-.06-3.02c-.04-1.66-.07-4.45-.07-6.2V8.5h-1.47l-.06 1.53c-.05 1.33-.03 1.55.12 1.77.32.47.36.56.14.37-.2-.18-.2-.17-.26 1.3l-.05 1.48.36.38c.37.38.35.52-.03.17l-.22-.21-.06.92c-.04.51-.07 1.77-.07 2.81v1.88h.51c.48 0 .51-.01.45-.22Zm1.87-.75c.04-.54.07-1.43.07-1.99v-1l-.35-.17c-.2-.09-.38-.17-.4-.17-.03 0-.05.97-.05 2.15v2.15h.67zm1.37.8c0-.1.07-1.61.15-3.37.22-4.76.22-4.81-.16-6.21-.24-.9-.72-2.97-.88-3.83-.01-.02-.28.18-.61.43l-.6.46v6.75l.35.17c.2.09.38.17.4.17.03 0 .06-.89.07-1.97.01-2.15.14-1.36.17 1.04l.01 1.11.32.22c.29.19.23.2-.19.03-.1-.04-.13.11-.13.55v.6l.45.29c.25.15.45.31.45.36 0 .11-.05.09-.43-.13l-.34-.2-.07.46c-.03.26-.06 1.09-.06 1.85v1.39h.55c.46 0 .55-.03.55-.17Zm-21.85-.93c.55-1.64.83-1.71 1.35-.36.17.42.3.84.3.92 0 .1.12.14.4.14.48 0 .48.09.01-1.25l-.39-1.1-.91-.03c-.68-.02-.92.01-.95.1-.03.07-.19.51-.36.98-.5 1.33-.5 1.32-.05 1.28.37-.03.38-.05.6-.68Zm-6.35-2.16c-.74-.32-2-.73-2.61-.85-.53-.1-.73-.2-1.14-.57-.62-.56-1.17-.81-1.75-.82-.87-.01-1.7-.62-1.7-1.26 0-.23-.35-.74-.51-.74-.05 0-.09.77-.09 1.84v1.83l.81.06c.44.04 1.29.16 1.88.27 2.07.39 5.87.57 5.11.24Zm-12.8-.12.55-.07.03-2.47c.01-1.63-.01-2.48-.08-2.48-.05 0-.1.18-.1.4 0 .51-.17.53-.23.03l-.04-.38-.01.43c-.02.43-.22.61-.22.2 0-.13-.05-.3-.11-.38-.07-.11-.09-.05-.07.25.04.6-.48.68-.55.08l-.04-.38-.01.42c-.02.32-.07.43-.22.48-.19.06-.2.15-.2 2.06v1.99l.38-.06c.2-.03.62-.09.92-.12Zm19.72-.32c.11-.27.24-.5.29-.5.04 0 .15.23.24.5.16.49.59.77.49.33-.18-.88-.49-2.54-.59-3.23l-.13-.85-.02 1.35c-.03 1.65-.17 1.31-.2-.5l-.02-1.25-.23 1.6c-.12.88-.28 1.87-.34 2.19-.15.8-.14.86.1.86.15 0 .25-.13.41-.5ZM10 15.14c0-1.92-.03-2.45-.12-2.42-.07.03-.14.24-.16.47-.04.55-.26.49-.3-.08-.04-.49-.22-.45-.22.05 0 .19-.05.34-.1.34-.06 0-.1-.1-.1-.22 0-.34-.11-.68-.21-.68-.05 0-.09.18-.09.4 0 .29-.04.4-.15.4s-.15-.11-.15-.4-.04-.4-.15-.4-.15.11-.15.41c0 .55-.24.47-.28-.09-.04-.54-.22-.55-.22-.02 0 .22-.04.4-.09.4s-.11-.18-.15-.4c-.04-.26-.11-.4-.21-.4-.11 0-.15.11-.15.4 0 .22-.04.4-.1.4-.05 0-.1-.2-.1-.45 0-.37-.03-.45-.18-.45-.18 0-.44 4.81-.28 4.98.04.04 2.15.18 3.13.21l.53.01zm-5.24 1.61c-.59-.59-.35-2.65.31-2.65.27 0 .61.47.68.94.18 1.2-.43 2.26-.99 1.71Zm2.72-.23c-.93-.87-.46-2.35.76-2.35 1.35 0 1.84 1.91.65 2.55-.55.29-.94.24-1.41-.2ZM5.3 12.24l.75-.16.24-.82c.12-.44.25-.89.28-.98.04-.14-.01-.18-.2-.18-.42 0-.56.1-.91.64-.18.28-.49.77-.7 1.09-.2.31-.33.57-.29.57s.41-.07.83-.16Zm4.5.07c0-.17-1.12-1.92-1.29-2-.09-.05-.49-.12-.87-.16l-.71-.07-.23.73c-.12.4-.23.84-.23.98l-.02.26 1.6.16c.88.09 1.63.17 1.68.18.04 0 .07-.03.07-.08Zm31.96-5.89c.51-.58.81-.99.75-1.05-.09-.09-1.55.18-2.51.47-.67.2-1.17.33-2 .52-.54.12-.69.19-.55.24.13.05.02.07-.3.08-.43 0-1.43.2-1.95.38-.26.1.33.33 1.15.46.68.1.79.15 1.11.5l.36.39 1.01-.01c.8-.01 1.13.03 1.52.18l.5.2.03-.7.03-.69zM8.57 8.33c-.02-.05-.35-.79-.72-1.65-.38-.87-.7-1.57-.71-1.55-.06.07-.25 2.99-.19 3.05.04.04.32.1.63.13.88.09 1.04.1.99.02Zm36.04-.78c.56-.44.7-.61 1.11-1.45l.47-.95-.67-.05c-.37-.03-.62-.08-.56-.12.12-.08.07-.43-.16-1.05-.14-.38-.24-.36-.39.08-.1.28-.09.3.05.18.34-.28.59.44.26.74-.37.33-.64.11-.58-.47l.05-.51-.13.45c-.08.25-.17.57-.2.71-.05.22-.13.28-.48.33-.39.06-.51.16-1.26 1.02l-.83.95.27.22c.15.12.35.28.43.35.11.08.45.12 1.07.1l.9-.03zm-1.12-3.34c.2-.05.28-.2.46-.86.12-.44.26-.89.3-1 .07-.17.04-.16-.21.06-.29.25-.99.69-1.11.69-.1 0 .47-.53.85-.79.45-.31.4-.41-.21-.41s-1.07.3-.7.44c.16.07.16.09.02.19-.1.08-.18.36-.22.85-.08.87.09 1.04.82.83Z"/></svg>