<svg xmlns="http://www.w3.org/2000/svg" width="51" height="51" viewBox="0 0 51 51"><path fill="#fff" fill-rule="evenodd" stroke="#fff" stroke-width=".689" d="M24.5 41.34c-6.48-2.78-10.49-5.88-11.68-9.02-.42-1.1-.5-1.7-.67-5.12-.09-1.68-.25-4.6-.35-6.5-.11-1.9-.23-4.04-.27-4.76l-.06-1.31.69-.26c.79-.3 8.35-3.05 11.24-4.09 1.07-.39 2.08-.71 2.25-.71.16 0 1.49.44 2.95.97 1.46.54 4.38 1.6 6.5 2.37s4.01 1.46 4.2 1.53l.35.14-.02.99c-.05 2.46-.84 15.11-.99 15.73-.83 3.59-4.68 6.85-11.79 9.98-1.29.56-1.18.56-2.35.06Zm1.91-.15c5.87-2.47 9.9-5.43 11.37-8.34.62-1.24.7-1.7.92-5.28.27-4.5.7-12.11.7-12.51 0-.3-.04-.33-.52-.5-.51-.18-6.77-2.46-11.06-4.02-1.11-.41-2.09-.74-2.18-.74-.16 0-2.3.76-9.39 3.34-2.37.87-4.36 1.59-4.43 1.61-.09.03-.11.18-.07.52.03.27.19 2.96.35 5.98.57 10.65.49 9.78 1.03 11.1 1.19 2.94 4.47 5.54 10.42 8.27 2.22 1.01 1.94.96 2.86.57Zm-1.81-1.63c-3.8-1.69-6.27-3.19-8.1-4.93s-2.32-2.75-2.5-5.18c-.1-1.43-.8-13.2-.8-13.54 0-.22-.18-.14 2.4-1.06 1.13-.4 3.74-1.34 5.81-2.08 2.07-.75 3.87-1.39 4.01-1.42.29-.07.92.14 7.63 2.54 5.22 1.88 4.95 1.77 4.95 1.93 0 .07-.09 1.48-.2 3.13s-.29 4.53-.4 6.4c-.31 5.31-.35 5.74-.63 6.43-.92 2.27-3.38 4.38-7.58 6.52-3.4 1.73-3.48 1.75-4.59 1.26Zm1.77-.2c5.77-2.5 9.43-5.35 10.23-7.95.16-.51.24-1.32.4-4 .1-1.85.31-5.2.46-7.44s.25-4.09.23-4.11c-.09-.06-11.35-4.08-11.73-4.18-.46-.12-.46-.12-5.41 1.67-1.32.48-3.41 1.23-4.65 1.67s-2.29.84-2.34.88c-.06.06-.03 1.24.08 2.97.75 13.01.68 12.19 1.22 13.28.75 1.52 2.68 3.3 5.26 4.86 1 .61 4.98 2.57 5.45 2.69.01 0 .37-.15.8-.34Zm-1.84-4.32c-1.57-.56-2.3-2.57-1.47-4.04.37-.66.94-1.12 1.66-1.35.29-.1.54-.18.55-.19s.29-1.24.63-2.74c.77-3.43.85-3.68 1.16-3.88.45-.3 1.24-.02 1.44.52.06.14-.16 1.27-.64 3.41l-.72 3.19.43.42c2.12 2.12-.19 5.67-3.04 4.66Zm2.09-.36c1.68-.71 2.01-3.14.59-4.29l-.37-.29.43-1.93c.23-1.05.56-2.51.73-3.24.39-1.71.34-1.93-.45-1.93-.51 0-.56.13-1.3 3.4-.36 1.62-.69 3.03-.71 3.12-.03.1-.26.23-.59.33-1.93.56-2.62 2.88-1.27 4.28.82.85 1.79 1.03 2.94.55Zm-1.97-1.19c-.67-.6-.68-1.58 0-2.18.96-.84 2.35-.22 2.35 1.06 0 1.22-1.44 1.91-2.35 1.12Zm-8.02-8.05c-.1-.26.05-2.15.22-2.78.4-1.51.98-2.55 2.05-3.69 5.38-5.75 14.75-2.69 15.62 5.11.17 1.58.33 1.46-2.13 1.5-2.34.03-2.29.05-2.29-.84 0-1.02.03-1.04 1.3-1.04 1.01 0 1.11-.02 1.06-.17-.82-2.96-2.57-4.79-5.18-5.42-.82-.2-.78-.26-.78 1.12 0 1.54.03 1.49-1.01 1.45l-.84-.03-.03-1.32c-.03-1.55.05-1.48-1.17-1.09-2.14.68-3.8 2.32-4.52 4.46l-.32.95 1.1.05c.83.04 1.12.09 1.19.2.14.22.12 1.44-.02 1.58-.2.2-4.17.17-4.25-.04Zm4.07-.79v-.64l-1.17-.03-1.18-.03.03-.3c.29-2.68 3.48-5.8 6.02-5.89l.45-.01.01.5c.01.28.02.87.03 1.33l.01.82h1.3v-2.7h.28c2.46 0 5.43 2.59 6.12 5.34.25 1 .29.96-1.06.96H30.4v1.3h3.9v-.44c0-5.49-5.32-9.65-10.68-8.36-3.91.94-6.42 3.89-6.78 7.98l-.07.82h3.93z"/></svg>