<svg xmlns="http://www.w3.org/2000/svg" width="51" height="51" viewBox="0 0 51 51"><path fill="#fff" fill-rule="evenodd" stroke="#fff" stroke-width=".459" d="M24.4 44.05c-1.42-.4-2.42-1.5-2.7-2.94-.12-.64-.13-5.7-.02-5.89.06-.09.36-.12 1.13-.1l1.04.03.05 2.95c.05 3.23.07 3.3.69 3.83.7.59 1.83.35 2.28-.48.2-.38.22-.57.28-3.25.04-1.57.08-2.91.11-2.98.03-.09.29-.12 1.06-.1l1.03.03.03 2.84c.03 3.18-.04 3.67-.6 4.54-.82 1.29-2.78 1.96-4.38 1.52Zm-11.68-4.47.03-4.43 1.08-.03 1.07-.03v3.71l1.67-.02 1.68-.03.05-1.8.05-1.8 1.08-.03 1.07-.03V44h-2.2v-3.6h-3.4V44h-2.2zm17.8 0 .03-4.43.72-.03c.86-.03.54-.33 3.06 2.82l1.92 2.39.05-2.59.05-2.59h2l.03 4.43.02 4.42h-1.76l-2.05-2.57-2.04-2.58-.03 2.58L32.5 44h-2zm-3.3 3.99c.7-.34 1.49-1.18 1.74-1.84.15-.41.18-.9.22-3.4l.04-2.93H27.4v2.62c0 1.45-.05 2.79-.1 2.99-.5 1.78-2.57 2.04-3.37.42l-.28-.58V35.4h-1.76l.03 3.03.03 3.02.27.51c.75 1.43 1.7 1.96 3.43 1.91.86-.02 1.08-.06 1.57-.3ZM14.7 42v-1.8h3.8v3.6h1.8v-8.4h-1.8V39h-3.85l.03-1.8.04-1.8H12.9v8.4h1.8zm17.6-.72c-.01-3.08-.02-2.88.08-2.88.05 0 .84.96 1.77 2.13.93 1.16 1.91 2.38 2.18 2.7l.49.57h1.38v-8.4h-1.7l-.02 2.77-.03 2.78-.55-.7c-.3-.39-1.31-1.64-2.23-2.78l-1.68-2.07H30.7v8.4h1.61zM12.45 30.62c-1.65-.57-2.04-1.41-2.05-4.4V24.1l15.18.02 15.17.03v4.32l-.35.69c-.41.8-1.1 1.36-1.91 1.53-.96.21-25.43.14-26.04-.07Zm26.34-.28c.61-.23 1.24-.84 1.52-1.47.23-.49.24-.62.22-2.5 0-1.09-.03-1.99-.05-2-.01-.01-6.75-.01-14.95.01l-14.93.02v1.83c0 2.16.1 2.61.71 3.31.51.57 1.07.87 1.79.95 1.46.16 25.24.02 25.69-.15ZM10.36 15.53c-.13-3.39.35-4.57 2.06-5.08.82-.24 25.62-.23 26.38.02.65.21 1.4.87 1.71 1.5.25.5.41 3.88.24 5l-.06.43H10.43zm30.19.61c.23-3.38-.16-4.71-1.59-5.36l-.51-.23L26 10.52c-13.41-.03-13.4-.03-14.2.48-1.03.67-1.19 1.19-1.2 3.98v2.22h29.88z"/></svg>