<svg xmlns="http://www.w3.org/2000/svg" width="51" height="51" viewBox="0 0 51 51"><path fill="#fff" fill-rule="evenodd" stroke="#fff" stroke-width=".8" d="m23.52 34.1-.83-.05-.26-.65c-.23-.58-4.84-11.65-6.01-14.42-.37-.89-.43-1.1-.32-1.23.18-.22 6.01-.23 6.23 0 .08.08.84 1.87 1.67 3.97.84 2.11 1.56 3.86 1.59 3.91.04.04.76-1.67 1.61-3.8.84-2.14 1.6-3.96 1.68-4.05.14-.16.41-.18 3.08-.18 2.97 0 3.24.02 3.24.25 0 .17-2.48 6.09-5.72 13.67-.95 2.22-1.13 2.57-1.34 2.62-.27.07-3.31.05-4.62-.04Zm5.63-2.4c.99-2.3 2.07-4.85 4.22-9.95.74-1.76 1.41-3.35 1.49-3.52l.14-.33h-3c-2.77 0-3.01.01-3.07.17-.56 1.57-3.24 8.08-3.33 8.08-.06 0-.27-.4-.45-.9-.19-.49-.92-2.34-1.63-4.1l-1.29-3.2-2.96-.03c-1.95-.01-2.97.01-2.97.08 0 .05.56 1.42 1.24 3.02 1.08 2.55 5.02 12.03 5.27 12.66l.09.22 2.66-.02 2.67-.03z"/></svg>