<svg xmlns="http://www.w3.org/2000/svg" width="51" height="51" viewBox="0 0 51 51"><path fill="#fff" fill-rule="evenodd" stroke="#fff" stroke-width=".75" d="M21.44 44c-.66-.26-.84-1.16-.35-1.69l.29-.31h3.22v-1.07l-.79-.16c-4.1-.82-7.18-4.33-7.38-8.42-.07-1.35.08-1.63.88-1.72.79-.09 1.07.26 1.19 1.52.28 2.74 1.69 4.81 4.05 5.95 4.53 2.17 9.81-.92 10.22-5.97.09-1.22.46-1.64 1.27-1.49.83.16 1.06 1.09.7 2.84-.77 3.75-3.77 6.68-7.51 7.33-.69.12-.71.16-.57.88l.07.31h1.52c1.5 0 1.54.01 1.84.26.59.49.49 1.32-.19 1.66-.38.2-8 .27-8.46.08Zm8.56-.4c.29-.29.27-.84-.05-1.15-.24-.25-.27-.25-1.9-.25H26.4v-1.49l.38-.06c4.42-.74 7.63-4.14 7.8-8.26.05-1.32-.04-1.49-.79-1.49-.53 0-.65.21-.78 1.34-.42 3.62-2.98 6.28-6.51 6.76-4.23.58-8.3-3.01-8.3-7.31 0-.74-.89-1.1-1.41-.58-.46.46-.03 3.03.77 4.62 1.35 2.69 3.62 4.29 6.97 4.92.27.05.27.06.27.8v.75h-3.22l-.29.29c-.36.36-.37.73-.04 1.06l.24.25h4.16c4.02 0 4.16-.01 4.35-.2Zm-5.25-6.57c-2.23-.3-4.06-1.98-4.6-4.24-.21-.91-.22-8.61 0-9.62 1.18-5.59 9.39-5.7 10.93-.15.23.84.26 8.87.03 9.78-.71 2.89-3.33 4.63-6.36 4.23Zm2.39-.39c1.66-.43 2.86-1.52 3.54-3.23l.27-.66v-4.7c0-4.67 0-4.7-.23-5.38-.9-2.6-3.53-3.97-6.44-3.36-1.78.37-3.29 1.79-3.82 3.58-.27.9-.24 9.34.04 10.22.85 2.77 3.71 4.29 6.64 3.53ZM8.28 24.67c-.47-.39-.52-.61-.51-2.12.07-8.03 5.7-14.71 13.67-16.2 1.63-.31 2.21-.27 2.62.17.37.41.44.84.22 1.32-.19.42-.57.59-1.78.77-7.39 1.14-12.39 7.04-12.4 14.62v.99l-.34.34c-.43.43-1.05.48-1.48.11Zm33.2.03c-.39-.3-.46-.63-.52-2.4-.22-7.13-5.14-12.59-12.36-13.7-1.5-.23-1.85-.47-1.85-1.23 0-.98.6-1.34 1.99-1.17 6.89.83 12.43 5.65 14.1 12.25.5 2.01.72 4.62.46 5.57-.22.78-1.22 1.16-1.82.68Zm-31.84-.3c.19-.19.22-.37.27-1.88.29-7.68 5.46-13.23 13.3-14.27.89-.11 1.28-.98.71-1.55-.38-.37-.86-.39-2.5-.1-7.88 1.42-13.68 8.54-13.41 16.48.04 1.03.04 1.04.38 1.34.39.35.89.34 1.25-.02Zm32.97.2c.45-.24.52-.61.47-2.49-.17-6.11-3.49-11.33-8.96-14.06-1.87-.94-4.49-1.65-6.07-1.65-1.39 0-1.47 1.67-.09 1.85 7.9 1.04 13.18 6.74 13.28 14.34l.02 1.54.32.28c.33.3.69.36 1.03.19Zm-28.52-.49-.39-.39v-1.1c0-4.81 3.32-9.08 7.99-10.29 1.9-.48 2.77-.35 3.12.49.34.83-.21 1.36-1.76 1.67-4.25.85-7.05 4.29-7.05 8.68 0 1.26-1.06 1.79-1.91.94Zm21.64.29c-.47-.19-.63-.65-.63-1.81 0-3.92-2.87-7.31-6.8-8.05-1.59-.31-2-.58-2-1.32 0-.96.65-1.32 2.02-1.12 5.3.77 9.18 5.32 9.18 10.78 0 1.23-.79 1.91-1.77 1.52Zm-20.11-.51c.14-.17.18-.4.18-1.11 0-4.31 3.32-8.04 7.69-8.63 1.01-.14 1.47-1 .85-1.62-.25-.25-.29-.26-1.12-.2-4.16.28-8.19 3.89-9.07 8.12-.26 1.28-.32 2.83-.11 3.24.32.61 1.16.72 1.58.2Zm21.03.27c.53-.22.58-.43.52-1.9-.21-4.9-3.5-8.8-8.27-9.82-1.78-.38-2.69.07-2.25 1.12.17.41.33.49 1.21.63 4.31.66 7.31 3.99 7.51 8.31.06 1.31.13 1.52.58 1.71.28.11.31.11.7-.05Z"/></svg>