<svg xmlns="http://www.w3.org/2000/svg" width="51" height="51" viewBox="0 0 51 51"><path fill="#fff" fill-rule="evenodd" stroke="#fff" stroke-width=".756" d="M10.98 49.83c-.15-3.87.34-7.49 1.26-9.31 1-1.96 2.17-2.39 4.83-1.78 1.59.37 1.48.41 1.79-.62.14-.48.34-1.16.45-1.51.27-.9.28-.88-.48-.93-.83-.05-1.21-.41-1.49-1.44-.12-.47-.21-.64-.34-.64-.28 0-.67-.37-.73-.69-.04-.17-.22-.45-.42-.63a1.53 1.53 0 0 1-.47-.84c-.1-.43-.17-.53-.49-.68-1.1-.54-1.26-1.17-.65-2.56.44-1 .45-1.28.02-2.6-1.52-4.72-1.52-6.87 0-9.95 1.65-3.36 4.96-5.1 9.69-5.09 5.63.02 10.34 2.71 11.8 6.74.95 2.64 1.02 4.94.39 11.8-.33 3.5-.14 6.36.59 8.7l.23.75.45-.05c3.16-.36 4.46 1.15 5.25 6.05.25 1.53.32 6.65.1 6.65-.14 0-.16-.26-.16-2.42 0-5.84-1.05-9.23-3.07-9.92-.65-.22-1.38-.2-3.2.1-2.58.43-3.45.24-4.61-1-.46-.5-.69-.86-1.03-1.64l-.43-1.01-.3.17c-.76.42-2.92 2.74-3.32 3.56-1.17 2.4.13 5.17 2.69 5.7 2.07.43 3.67-1.39 2.53-2.89-1.07-1.39-3.35-.75-3.1.87.09.52-.1.44-.27-.12-.35-1.16.78-2.43 2.16-2.42 2.25 0 3.4 2.57 2.02 4.49-1.23 1.72-4.61 2.05-6.87.68-1.88-1.14-3.03-2.92-3.31-5.14l-.11-.86h-1.96c-1.88 0-2.04-.02-3.46-.34-2.13-.48-2.94-.36-3.77.56-1.37 1.51-1.92 4.12-1.93 9.05-.01 1.82-.04 2.58-.12 2.58-.07 0-.13-.47-.16-1.37Zm19.63-4.13c1.66-.51 2.51-1.66 2.36-3.17-.15-1.48-1.68-2.5-3.01-1.99-.64.24-.95.6-.34.39.84-.29 1.98.06 2.45.76 1.08 1.6-.17 3.5-2.23 3.38-3.55-.21-5.09-4.27-2.74-7.22 1-1.25 3.08-3.02 3.3-2.79.04.05.26.51.48 1.02 1.06 2.47 2.42 3.19 5.05 2.68.84-.16.81-.12.57-.8-.75-2.2-.98-5.11-.66-8.56.71-7.75.58-10.21-.7-12.87-2.16-4.51-9.74-7.01-15.54-5.11-3.84 1.25-6.15 4.61-6.14 8.93.01 3.2.92 5.05 3.25 6.6.63.42 2.24 1.05 2.68 1.05.13 0 .5.26.9.64.37.35.77.69.89.75.18.1.22.21.22.6 0 .71.23 1.82.63 3.01.25.74.32 1.1.26 1.22-.14.25-.89.75-1.72 1.13l-.73.33-.49 1.66c-.26.91-.45 1.7-.41 1.74.1.09 2.1.09 3.02 0l.71-.08.06.88c.18 2.76 2.12 5.19 4.67 5.86.83.22 2.44.2 3.21-.04ZM19.74 35.35c.7-.19 1.85-.77 2.16-1.1l.23-.24-.27-.73c-.39-1.05-.66-2.24-.66-2.94 0-.6-.01-.63-.37-.89-.21-.16-.58-.47-.83-.7-.38-.36-.58-.46-1.26-.63-1.35-.34-2.32-.9-3.51-2.06-.77-.73-.84-.73-.56-.04.28.71.23 1.31-.19 2.3-.58 1.34-.45 1.79.7 2.3.38.17.42.22.42.54 0 .5.26.93.65 1.1.3.12.34.17.29.43-.06.31.31.71.66.71.13 0 .22.17.35.66.35 1.3.9 1.62 2.19 1.29Z"/></svg>