<svg xmlns="http://www.w3.org/2000/svg" width="51" height="51" viewBox="0 0 51 51"><path fill="#fff" fill-rule="evenodd" stroke="#fff" stroke-width=".8" d="M16.73 32.37c-2.87-2.86-4.34-4.39-4.32-4.5.05-.24 4.17-4.47 4.35-4.47.08 0 1.11.95 2.3 2.12l2.15 2.12 1.11-1.1c.61-.6 3.55-3.53 6.52-6.51 2.98-2.99 5.48-5.43 5.56-5.43.2-.01 4.4 4.27 4.4 4.48 0 .2-17.39 17.62-17.59 17.62-.08 0-2.09-1.95-4.48-4.33Zm13.24-4.59c4.75-4.75 8.63-8.66 8.63-8.7 0-.15-4.03-4.18-4.19-4.18-.09 0-3.06 2.9-6.61 6.45s-6.51 6.45-6.59 6.45c-.07 0-1.1-.95-2.29-2.12l-2.16-2.12-2.08 2.13c-1.64 1.69-2.05 2.17-1.98 2.3.17.31 8.36 8.41 8.5 8.41.08 0 4.03-3.88 8.77-8.62Z"/></svg>