<svg xmlns="http://www.w3.org/2000/svg" width="51" height="51" viewBox="0 0 51 51"><path fill="#fff" fill-rule="evenodd" stroke="#fff" stroke-width=".672" d="M19.91 44.24C10.81 41.79 8.2 17.74 16 8.07c1.27-1.59 3.21-2.88 3.76-2.52.3.19.3.24-.1 1.53-.51 1.66-.6 2.46-.6 5.27 0 3.83.57 7.03 1.78 10l.24.59.06-.69c.59-6.67 2.18-11.48 4.79-14.52 4.49-5.22 10.59-2.1 13.15 6.72.8 2.76.85 3.25.34 3.43-.42.15-.67-.01-.87-.55-.34-.92-1.27-2.61-1.91-3.46-2.64-3.52-5.52-2.71-7.52 2.13-2.54 6.14-1.99 15.73 1.16 20.37 2.29 3.38 5.42 2.44 7.81-2.35.36-.71.45-.82.67-.82.81 0 .82.38.09 2.58-2.29 6.84-6.45 10.05-10.43 8.03-2.82-1.43-6.94-6.37-9.41-11.29-.4-.78-.43-.78-.24.06 1.05 4.64 2.88 8.11 5.16 9.79.72.53.66.84-.28 1.35-1.19.64-2.58.83-3.74.52Zm2.44-.18c1.07-.3 1.85-.74 1.85-1.06 0-.12-.27-.41-.68-.73-2.29-1.83-3.85-5.02-5.12-10.45-.21-.93-.22-1.42-.01-.89.16.42 1.36 2.59 2.04 3.72 4.41 7.27 8.34 10.41 11.73 9.37 2.88-.88 5.32-4.16 6.79-9.11.35-1.17.35-1.41-.01-1.55-.24-.09-.31-.01-.7.77-2.31 4.61-5.34 5.75-7.69 2.9-4.46-5.41-4.2-19.66.46-24.44 2.26-2.32 5.44-.59 7.44 4.06.49 1.13.56 1.22.9 1.07.39-.18.31-.69-.52-3.47C35.76 4.02 28.37 2.33 24.1 10.88c-1.6 3.21-2.8 8.44-2.8 12.19 0 .35-.04.63-.09.63-.1 0-.97-2.42-1.37-3.8-1.22-4.19-1.36-9.63-.33-12.97.46-1.46.35-1.58-.84-.96-6.38 3.35-9.15 18.6-5.43 29.84 1.98 5.95 5.59 9.22 9.11 8.25Zm-2-.17c-8.67-1.24-11.67-25.13-4.4-35.09.95-1.3 3.22-3.16 3.51-2.87.03.02-.09.53-.26 1.13-1.3 4.63-.71 10.53 1.63 16.44l.62 1.55.07-1.65c.37-8.43 3.22-15.42 7.04-17.26 4.2-2.02 8.49 1.95 10.44 9.66.43 1.68.36 2.37-.1 1.13-.48-1.28-1.73-3.24-2.69-4.21-4.28-4.32-8.83 1.6-9.08 11.78-.22 9.17 3.58 16.04 7.71 13.95 1.19-.6 2.85-2.49 3.58-4.07.18-.38.38-.68.45-.68.18 0 .19-.03-.42 1.85-1.88 5.8-4.99 8.89-8.41 8.35-3.22-.51-7.44-5.32-11.31-12.87-1.03-2.01-1.06-2.01-.73-.06.91 5.34 3.18 10.09 5.59 11.69.51.34.51.35-.06.67-.93.5-2.13.71-3.18.56Zm2.47-.61.58-.27-.93-.93c-2.7-2.71-4.69-8.04-5.12-13.7-.08-1.02.01-1.1.34-.3 2.71 6.39 7.38 12.91 10.6 14.81 3.49 2.06 7.14-.32 9.37-6.1.42-1.1.42-1.16 0-.54-1.66 2.47-3.9 3.47-5.79 2.58-4.96-2.34-6.82-15.55-3.31-23.45 2.04-4.62 5.02-5.71 7.85-2.89.72.73 1.1 1.23 1.96 2.58.18.28.07-.11-.39-1.47-3.06-8.99-9.46-10.26-13.27-2.63-1.86 3.72-2.88 8.74-2.92 14.38l-.01 1.1-.48-1.03c-2.76-5.8-3.73-12.05-2.69-17.32.12-.57.25-1.15.3-1.29.39-1.02-2.02 1.12-3.06 2.73-6.4 9.86-4 31.1 3.82 33.83.96.33 2.32.29 3.15-.09Z"/></svg>