<svg xmlns="http://www.w3.org/2000/svg" width="51" height="51" viewBox="0 0 51 51"><path fill="#fff" fill-rule="evenodd" stroke="#fff" stroke-width=".478" d="M14.56 39.89c-3.14-.46-5.92-2.37-7.41-5.11-1.58-2.9-1.89-7.88-.71-11.35 1.79-5.26 7.03-7.95 13.37-6.88 2.18.38 3.63 1.21 3.99 2.3.2.6.08 1.62-.25 2.23-.49.91-.52.92-1.48.44-4.04-2.01-8.67-1.29-10.52 1.63-1.91 3.02-1.52 8.48.77 10.87 2.38 2.47 6.62 2.58 10.87.28.3-.17.58-.3.63-.3.04 0 .08.99.08 2.21v2.2l-.53.23c-2.4 1.07-6.3 1.62-8.81 1.25Zm28.26.01c-1.75-.37-2.1-.76-4.87-5.5-.92-1.57-1.73-2.91-1.8-2.99-.11-.12-.36.05-1.57 1.06-.79.65-1.74 1.43-2.13 1.73s-.72.56-.75.58-.07 1.1-.1 2.4c-.05 2.25-.06 2.37-.25 2.41-.1.02-1.11 0-2.22-.04l-2.03-.07.02-15.97.03-15.96h4.4l.03 10.98c.01 7.07.06 10.97.12 10.95.05-.02.92-.83 1.93-1.8 3.65-3.5 6.16-7.14 8.02-11.62.32-.76.42-.84.88-.68.76.25 3.52 1.24 3.55 1.27.02.02-.2.61-.48 1.32-1.24 3.05-2.83 5.68-5.34 8.82-.5.63-.9 1.17-.89 1.21s1.38 2.34 3.03 5.11c3.28 5.48 3.7 6.2 3.7 6.37 0 .32-2.34.62-3.28.42Zm-23.51-.36c1.2-.19 2.19-.45 3.42-.9l.97-.37V34.3l-.62.31c-3.65 1.84-7.2 2.07-9.63.61-2.89-1.73-4.11-6.09-2.89-10.31.59-2.01 1.68-3.33 3.4-4.12 2.09-.95 5.67-.75 8.07.46l.88.44.3-.47c1.71-2.7-.83-4.62-6.12-4.62-3.75 0-6.56 1.2-8.66 3.7-3.45 4.1-3.32 12.41.25 16.21 1.57 1.67 3.6 2.78 5.64 3.08.4.06.84.13.98.15.46.08 3.07-.04 4.01-.2Zm25.97.05c.28-.06.52-.15.52-.2 0-.16-.02-.19-3.47-5.97-1.79-2.99-3.23-5.48-3.2-5.55s.39-.54.81-1.05c1.73-2.12 3.36-4.56 4.34-6.5.72-1.41 1.55-3.43 1.44-3.53-.1-.1-3.23-1.21-3.45-1.23-.13-.01-.26.19-.51.79-1.7 4.11-4.18 7.76-7.43 10.96-1.61 1.58-2.72 2.59-2.85 2.59-.04 0-.09-4.98-.1-11.08l-.03-11.07-1.5-.03c-.82-.02-1.74 0-2.02.03l-.53.06V39.3h4.1v-4.58l.57-.43c.32-.24 1.35-1.08 2.3-1.86.96-.79 1.78-1.43 1.83-1.43.08 0 1.06 1.61 3.46 5.69 1.62 2.76 2.93 3.42 5.72 2.9Z"/></svg>