<svg xmlns="http://www.w3.org/2000/svg" width="51" height="51" viewBox="0 0 51 51"><path fill="#fff" fill-rule="evenodd" stroke="#fff" stroke-width=".586" d="M24.7 46.3c-1.05-.13-8.08-2.71-8.18-3-.02-.06-.11-.1-.2-.1-.32 0-6.04-2.33-6.59-2.69-.78-.51-1.45-1.28-1.9-2.19l-.38-.76.03-7.8c.04-9.19 0-8.78.87-9.54.83-.73-.84-.67 17.18-.7 17.46-.02 16.72-.05 17.36.54.85.76.84.67.85 6.84.01 4.43.03 5.48.14 5.59.17.17.12 1.77-.11 3.72-.42 3.52-.86 3.94-6.21 6.06-9.73 3.84-10.98 4.26-12.11 4.12-.05-.01-.39-.05-.75-.09Zm.9-1.5v-1.3h-.32c-.87-.01-2.5-.56-6.96-2.36-.74-.3-1.38-.54-1.43-.54-.06 0-.08.53-.07 1.31l.03 1.3 2.8 1.1c3.65 1.42 4.63 1.73 5.68 1.78l.27.01zm1.91 1c.36-.09 2.1-.73 3.87-1.41l3.22-1.24v-1.27c0-.71-.04-1.28-.09-1.28s-1.39.51-2.98 1.14c-3.45 1.37-3.94 1.54-4.89 1.69l-.74.12v2.56l.48-.07c.26-.04.77-.14 1.13-.24Zm-.23-2.79c.85-.22 2.34-.8 9.94-3.84.26-.1.48-.81.48-1.51 0-.09.04-.14.1-.11.13.08.13.91 0 1.16-.13.24-.04.24.49.03.48-.19.76-.89.31-.77-.22.06-.29-.15-.07-.21.94-.3 1.07-.38 1.07-.72 0-.19.05-.34.1-.34.06 0 .1.12.1.28l.01.27.15-.28c.08-.15.18-.5.21-.77.05-.39.1-.5.24-.5.19 0 .49-.35.49-.58 0-.1-.07-.12-.24-.08-.15.04-.26.01-.29-.07-.03-.06-.1 0-.16.16s-.16.25-.22.22c-.06-.04-.08-.13-.05-.21s-.01-.14-.09-.14c-.22 0-.18-.21.06-.27.12-.04.33-.31.55-.75.19-.38.41-.71.49-.75.08-.03.15-.16.15-.28 0-.35.18-.4.26-.08.04.15.11.31.17.34.14.1-.02.31-.19.25-.21-.08-.49.24-.73.82-.27.65-.25.68.36.52.75-.21.95-.37.88-.71-.08-.37.22-.3.31.07.07.29-.34.74-.67.74-.25 0-.57.66-.4.83.06.06.11.19.11.28s.09.19.2.22.2.11.2.17q0 .12-.12.03c-.21-.16-1.08-.04-1.08.15 0 .38-.5 1.01-.89 1.12-.29.08-.4.17-.45.36-.1.37-.06.38.54.15.61-.23.7-.33.7-.78 0-.18.04-.33.1-.33s.1.16.1.35.05.35.1.35c.24 0 .88-.4.92-.58.03-.11.25-.3.48-.43.45-.25.87-.73.59-.67-.11.02-.13-.07-.11-.39.02-.22-.02-.44-.07-.48-.16-.09-.13-.35.03-.35.18 0 .37.55.3.89-.05.25-.05.26.11.06.62-.73.6-.45.6-7.8 0-7.49.04-7.05-.72-7.77-.52-.5.07-.48-16.99-.48-17.68 0-16.44-.04-17.18.6-.81.72-.77.26-.74 7.73l.03 6.63.37.75c.49.99 1.08 1.59 2.05 2.07 1.27.64 1.21.64 1.37-.11.04-.15.11-.25.17-.21.11.06.03.62-.12.8-.07.08.02.16.28.27l.38.15.06-.37c.29-1.6.52-2.71.65-2.98.22-.49.19-.64-.12-.53-.32.12-.74.13-.74.01 0-.05.23-.15.51-.21.41-.1.55-.19.68-.43.09-.17.24-.38.33-.48.1-.11.2-.43.24-.81.07-.65.27-1.18.44-1.18.12 0 .13-.03-.05.45-.08.22-.14.61-.15.87 0 .34-.06.54-.23.75-.13.15-.32.53-.41.83-.1.3-.25.77-.33 1.03-.19.6-.12.69.17.23.17-.28.28-.36.51-.36.25 0 .29-.04.29-.26 0-.18.04-.25.14-.21.25.1.61-.4.61-.84 0-.32.03-.39.19-.39.37 0 .01 1.26-.4 1.36-.14.04-.24.16-.28.36-.09.45.01.48.47.16.14-.11.19-.1.27.02.15.23.12.4-.05.34-.11-.05-.15.01-.15.2 0 .14.04.27.1.27.06.01.15.02.2.03.06 0 .14.06.18.13.13.21.35-.03.34-.36 0-.17.04-.31.09-.31.12 0 .12-.87-.01-.95a.19.19 0 0 1-.1-.16c0-.05.04-.09.1-.09s.1.07.1.15.06.14.12.12c.34-.06.2 1.73-.14 1.88-.15.07-.25.21-.28.43-.07.47-.24.44-.28-.04-.04-.58-.37-.89-.47-.45-.04.17-.11.33-.16.36-.15.1-.1.43.11.85.27.53.27.84 0 .51-.11-.13-.2-.3-.2-.38s-.07-.21-.15-.29a.64.64 0 0 1-.15-.37c0-.12-.05-.29-.11-.37-.09-.13-.1-.13-.06.01.17.53.18 1.06.03 1.18-.14.12-.16.09-.16-.25 0-.53-.07-.6-.67-.67-.39-.04-.53-.03-.57.09-.03.08 0 .14.06.14.07 0 .06.05-.02.15-.07.08-.1.22-.06.3.03.08.02.15-.03.15-.24 0-.17.49.08.59.14.05 2.55 1 5.35 2.1 6.61 2.62 7.06 2.73 9.04 2.22Zm-10.78-1.3v-1.29l-2.72-1.07c-4.43-1.76-5.05-2.15-5.83-3.7-.36-.71-.38-.63-.27.82.13 1.69.85 2.94 2.19 3.8.43.27 6.28 2.71 6.56 2.72.04.01.07-.57.07-1.28Zm21.44.1c3.31-1.33 3.45-1.4 4.08-1.99.9-.84 1.31-1.82 1.43-3.4.09-1.09.08-1.09-.38-.34-.81 1.32-1.08 1.48-5.07 3.07-1.62.65-2.99 1.21-3.03 1.25-.09.08-.17 2.47-.08 2.56.03.02.1.03.15 0 .06-.02 1.37-.54 2.9-1.15ZM32 40.97c0-.06.04-.26.09-.44.07-.23.05-.37-.05-.5-.07-.1-.14-.26-.14-.36s-.09-.36-.2-.57c-.11-.22-.16-.4-.1-.4.14 0 .4.43.54.91l.12.42.13-.31c.14-.33.67-.89.77-.79.03.03-.07.23-.24.44-.16.21-.4.68-.52 1.06-.19.6-.4.88-.4.54Zm3.15-1.67c.05-.28.16-.54.31-.68.2-.19.22-.27.14-.43-.09-.15-.07-.21.05-.25.09-.04.15-.19.15-.4 0-.35.13-.46.24-.18.03.09.06.29.06.45 0 .33.06.35.38.13.57-.39.73-.64.66-1-.07-.38-.07-.38-.35-.24-.26.15-.25-.05.02-.24.19-.13.21-.21.14-.61-.12-.84.18-.48.35.41.12.67.15.74.2.46.06-.38.23-.44.3-.1.04.16.08.19.14.1.04-.06.23-.12.42-.12.31 0 .34-.02.34-.31v-.31l.2.23c.1.13.19.19.2.12 0-.06.09-.14.19-.18.12-.03.21-.19.26-.41.08-.46.28-.39.29.1.01.26-.04.4-.14.44-.08.03-.29.16-.46.29s-.45.23-.63.23c-.34 0-.75.28-1.68 1.12-.28.27-.58.48-.66.48-.18 0-.77.53-.77.71 0 .08-.1.25-.21.39l-.2.25zm-11-.65c-1.88-.39-2.04-.55-1.17-1.12.82-.54 1.95-1.72 2.26-2.35.22-.44.35-.58.74-.77.26-.13 1.02-.54 1.68-.92 1.43-.81 1.38-.81 1.65-.27.79 1.54 1.11 3.86.61 4.32-.98.87-4.05 1.47-5.77 1.11Zm2.92-.31c.94-.19 1.95-.56 2.47-.9l.39-.26-.06-.84c-.09-1.25-.67-3.13-.98-3.18-.27-.05-3.22 1.82-3.39 2.14-.33.64-.98 1.39-1.78 2.01-.97.78-.97.72 0 .93.46.1.87.2.93.21.3.1 1.76.03 2.42-.11Zm-5.83-.8c-2.14-1.44-3.56-3.49-3.9-5.61-.09-.58.06-.61.95-.14 1 .52 1.75.71 2.8.71h.84l1.06.68c.58.38 1.32.83 1.63 1.01.66.37.7.5.32 1.07-.66.97-1.55 1.77-2.48 2.24-.72.36-.74.36-1.22.04Zm1.04-.23c.96-.49 2.62-2.11 2.62-2.56 0-.05-.24-.23-.53-.39-.28-.16-.95-.56-1.47-.9l-.94-.61-1.06-.06c-1.16-.07-2.04-.31-2.83-.8-.55-.34-.56-.3-.26.67.57 1.86 1.67 3.32 3.38 4.51.55.38.61.39 1.09.14Zm-8.31-.4c-.03-.12.01-.22.09-.25s.14-.01.14.05c0 .31.45.02.51-.33.08-.5 0-.59-.54-.65-.41-.05-.47-.03-.63.23-.1.16-.29.39-.41.51-.13.12-.23.27-.23.33 0 .18.27.11.44-.12l.17-.23-.04.27c-.03.19.01.28.12.31.35.1.43.07.38-.12Zm16.39-.73c-.12-1.18-.61-2.83-1.02-3.42-.11-.16-.14-.64-.14-2.28v-2.07l.42-.13c1.14-.34 3.56-.04 3.95.48.18.24.26 1.17.2 2.18-.13 2.05-.93 3.81-2.4 5.32-.83.84-.93.84-1.01-.08Zm1.88-1.42c.51-.77.92-1.75 1.11-2.65.16-.75.2-2.87.07-3.08-.3-.48-2.25-.78-3.43-.54l-.54.11.01 1.88c.02 1.87.02 1.87.33 2.54.45.98.81 2.31.81 3.02l.01.61.62-.65c.34-.36.8-.92 1.01-1.24Zm3.21 1.25c-.03-.06.05-.26.19-.44.4-.52.27-.74-.25-.47-.12.07-.19.07-.19.01 0-.05-.15-.11-.32-.13-.43-.04-.37-.23.07-.24.19 0 .38-.03.41-.07.04-.04.13-.02.21.04.1.09.13.06.13-.12.01-.22.02-.23.14-.07.17.23.26.23.26-.01 0-.11.05-.21.11-.23.1-.03.44-.79.75-1.64.16-.45.63-.99.51-.59-.12.42-.36 1.03-.71 1.79-.2.44-.35.8-.34.8l.24.12c.19.11 1.78.03 1.91-.09.04-.05.06-.49.04-1.04-.01-.2-.04-.21-.27-.13-.31.12-.54.13-.54.02 0-.05.18-.14.4-.21.29-.09.4-.17.4-.31 0-.11.07-.2.15-.2.11 0 .15.12.16.43 0 .54.15.24.34-.71l.13-.62h-.35c-.37 0-.73-.15-.73-.3 0-.06.25-.07.61-.03l.6.06-.03-.38c-.03-.34-.07-.4-.36-.47-.22-.06-.3-.13-.25-.21.04-.07.09-.22.11-.35.08-.64.26-.79.3-.26.02.39.09.57.27.74.16.15.25.35.25.53 0 .37.09.29.27-.21.17-.48.16-.51-.06-.45-.37.09-.3-.14.09-.3q.39-.15.45-.39c.05-.19.13-.25.34-.25.23 0 .27.04.23.19-.02.1-.07.16-.1.14-.08-.09-.5.53-.63.93-.09.26-.09.36 0 .39.22.07.11.2-.33.38-.42.18-.44.2-.5.72-.07.57-.39 1.32-.58 1.32-.07 0-.09.14-.05.39.04.34.01.45-.24.72-.16.18-.29.38-.29.45 0 .23-.57.74-.84.74-.34 0-.33-.13.02-.26.15-.06.34-.24.44-.4l.16-.29h-.61c-.34 0-.76-.03-.94-.07-.3-.07-.33-.05-.53.36-.24.51-.55.82-.65.67Zm-18.85-.25c0-.09-.05-.16-.1-.16-.07 0-.1-.25-.08-.65.02-.54.05-.65.19-.65.19 0 .34.16.21.22-.21.08-.22 1.08-.02 1.08.1 0 .22-.05.25-.11.04-.05.12-.08.18-.06.07.02.26-.02.44-.1.46-.19.49-.17.45.24-.04.33-.06.35-.18.18-.11-.15-.18-.16-.41-.07-.57.22-.93.25-.93.08Zm-5.4-.17c0-.06.07-.17.15-.25.08-.09.15-.3.14-.47 0-.29-.01-.3-.09-.1-.05.13-.16.23-.25.23-.19 0-.19-.14-.01-.3.08-.06.16-.28.18-.48.04-.36.04-.37.15-.12l.12.25v-.27c.01-.46.21-.43.23.04.01.49.01.53-.08.9-.05.22-.02.27.17.3.12.02.24.09.27.15.02.09-.05.11-.26.07-.17-.04-.32-.01-.36.05-.09.14-.36.14-.36 0Zm-1.8-2.03c0-.09.07-.16.15-.16.14 0 .23-.24.44-1.18.1-.47.17-.59.28-.48.04.03-.01.38-.1.78-.2.83-.22.78.3.71.41-.05.41-.05.45-.54.09-.86.23-.82.31.07l.05.61-.72.12c-.39.07-.81.14-.94.18-.16.04-.22.01-.22-.11Zm10.28-1.41c-.63-.17-1.74-.7-2.17-1.02l-.34-.26.07-1c.14-2.17.99-4.03 2.49-5.44.79-.75.97-.66.97.49 0 .67.31 1.8.71 2.62l.39.78v3.98l-.82-.01c-.46 0-1.04-.07-1.3-.14Zm1.84-1.96c-.02-1.81-.04-1.93-.27-2.32-.4-.7-.76-1.92-.82-2.84l-.06-.84-.54.53c-1.43 1.4-2.33 3.5-2.33 5.43v.63l.49.31c.93.6 2.09.97 3.16 1l.4.01zm-5.39 1.15c.07-.23.13-.5.21-.86.07-.32-.45-.53-1.03-.42-.2.04-.31.03-.31-.05 0-.06.04-.11.1-.11s.1-.04.1-.1c0-.05-.13-.1-.3-.1-.21 0-.3-.05-.3-.16 0-.14.06-.15.38-.09.2.04.5.09.67.1.17.02.34.03.39.04.05 0 .03.07-.03.15-.1.12-.07.15.21.18.29.03.33.07.36.33.03.39-.2 1.17-.37 1.23-.09.03-.11-.02-.08-.14Zm19.77-.09c0-.08.09-.32.2-.52.29-.55.26-.62-.21-.6-.26.01-.44-.03-.46-.1-.03-.09.09-.13.42-.13.43 0 .47-.02.61-.36.19-.46.19-.46-.48-.32-.58.12-1.05.05-.78-.12.08-.06.25-.1.38-.1.65 0 1.02-.23 1.02-.63 0-.23.04-.36.1-.32.06.03.1-.01.1-.1 0-.22.28-.75.4-.75.05 0 0 .26-.12.58-.11.31-.22.8-.23 1.07-.02.27-.11.75-.2 1.05s-.15.74-.13.98c.03.42-.07.56-.19.25-.05-.14-.08-.13-.14.05-.09.25-.29.3-.29.07Zm-23.86-.84c.06-.39.05-.41-.19-.41-.35 0-.31-.17.05-.25.57-.12.53-.94-.05-.95-.24 0-.52-.16-.43-.25.03-.03.27-.02.54.02l.49.08.03.48c.03.42.05.47.23.42.11-.04.19-.02.19.04s-.03.11-.07.11c-.21.01-.47.34-.52.66-.03.21-.12.39-.2.42-.11.04-.13-.04-.07-.37Zm30.11-.12c-.14-.49-.59-1.29-.72-1.29-.18 0-.17-.16.02-.24.22-.08.19-.62-.05-.86-.25-.25-.25-.3-.02-.3.28 0 .42.21.42.61 0 .21.05.41.12.45.08.05.09 0 .05-.15-.03-.14-.01-.21.06-.18.23.07.21.57-.02.57-.13 0-.21.06-.21.16 0 .12.06.15.21.11.17-.05.2-.02.16.14-.03.12.01.39.09.62.09.25.11.44.05.5-.05.05-.12 0-.16-.14Zm-27.09-1.08a.3.3 0 0 0-.22-.11c-.08 0-.31-.07-.52-.16-.4-.17-1.14-.26-1.06-.12.03.04-.02.08-.1.08-.09 0-.16-.04-.16-.08 0-.11.46-.32.7-.32.21 0 .24-.1.14-.47-.05-.19-.13-.23-.45-.21-.73.03-.68-.19.06-.24.54-.03.49-.09.73.82.05.18.17.27.45.33.41.1.61.02.37-.14-.13-.08-.13-.11.03-.2.38-.22.21-.58-.25-.52-.52.07-.44-.11.12-.28.46-.14.76-1.25.38-1.41-.1-.04-.18-.13-.18-.19 0-.11.11-.1.74.04.27.05.33.27.08.27-.22 0-.32.25-.32.79 0 .24.04.32.14.28.08-.03.22.01.33.08.17.14.17.14-.05.15-.44 0-.62.18-.62.6 0 .39.01.4.35.4.4 0 .44.11.15.4-.24.24-.75.37-.84.21ZM32.6 28.1c-.7-.24-1.97-.25-2.9-.04l-.69.15-1.03-.64c-.57-.35-1.32-.79-1.67-.97l-.63-.34.05-.38c.14-1.08 1.35-2.77 2.23-3.14 1.16-.49 4.27 2.19 5.2 4.47.44 1.07.36 1.19-.56.89Zm-11.01-.61c-.66-1.32-.94-3.64-.49-4.09.91-.91 3.72-1.51 5.56-1.19 1.04.18 1.09.28.44.87-.67.61-1.17 1.41-1.5 2.43l-.26.78-.79.42c-.44.23-1.14.64-1.56.9-.97.63-1.02.62-1.4-.12Zm8.26.26c.79-.19 1.98-.19 2.64.01.66.19.66.18.41-.45-.64-1.64-2.15-3.23-3.84-4.07l-.75-.37-.45.27c-.77.45-1.64 1.71-1.82 2.63-.06.3-.03.33.45.6.28.15.95.56 1.49.89 1.09.7 1.05.69 1.87.49Zm-6.94-.42c.42-.27 1.1-.66 1.52-.88.43-.22.77-.47.77-.55.02-.7 1.06-2.54 1.71-3.02l.3-.22-.23-.09c-1.2-.46-3.92-.03-5.45.86l-.33.19v.88c0 1.1.13 1.76.52 2.62.37.81.26.79 1.19.21Zm10.79-.27c.06-.08.28-.2.48-.27.38-.12.82-.45.82-.62 0-.06-.28-.08-.7-.05-.39.03-.7.04-.7.03s.07-.18.15-.38c.14-.33.13-.36-.08-.5-.12-.08-.19-.18-.15-.22s.14-.03.22.04c.19.16.27-.06.19-.53-.03-.22-.02-.36.05-.36.21 0 .29.89.12 1.34-.09.25-.08.26.28.26.31 0 .59.11.91.37.02.01-.04.12-.15.24l-.19.21.55-.07c.64-.08.7-.11.7-.31 0-.08.05-.14.11-.14s.09-.12.07-.27c-.02-.16.02-.28.11-.31.11-.04.13.05.08.47l-.06.51h.33c.74 0 1.71.28 1.55.44-.03.03-.45-.01-.94-.09-.99-.16-2.36-.07-3.08.21-.51.19-.84.19-.67 0Zm-20.8-.47c0-.06.14-.16.3-.22.4-.15.43-1.17.03-1.17-.34 0-.75-.19-.68-.31.04-.06.18-.08.31-.05.2.05.24.02.29-.27.13-.66.03-1.02-.27-1.05-.36-.04-.38-.32-.03-.32.23 0 .25-.04.25-.46 0-.29.04-.43.11-.39.06.04.09.27.08.52-.02.28.02.47.1.52.1.06.11.27.06.85-.07.73-.07.76.14.76.16 0 .21-.06.21-.27.01-.35.24-.8.34-.65.04.07.02.2-.04.31-.15.3-.13.71.05.71.08 0 .15.04.15.1 0 .11-.12.13-.46.11-.2-.02-.21.01-.14.39.09.5.15.57.35.4s.33-.04.14.14c-.28.26-1.29.54-1.29.35Zm25.7-.16c0-.02.07-.14.15-.27.09-.13.18-.47.22-.75.08-.69.26-.66.21.04-.02.43 0 .54.1.5.08-.03.15-.05.18-.05.02 0 .01-.06-.02-.14s-.01-.17.05-.21c.06-.03.13 0 .16.07.04.1.22.13.68.1.51-.03.66-.01.77.14.14.16.12.17-.31.11-.36-.05-.66 0-1.33.22-.47.16-.86.26-.86.24Zm-26.58-11c.04-2.35.06-2.53.32-3.38 1.04-3.4 3.89-5.95 7.49-6.69 1.44-.3 10.66-.23 11.93.09 3.22.8 5.81 3.19 6.86 6.35l.32.95.04 2.58.04 2.57h-7.19l-.05-1.58c-.07-1.93-.22-2.43-1.05-3.32-1.09-1.18-2.06-1.45-5.13-1.45-5.24.01-6.8 1.35-6.8 5.81v.54h-6.82zm6.52 1.64c.03-.28.06-.72.06-.97.01-2.42 1.45-4.13 3.89-4.63.82-.17.78-.15.83-.41.02-.14-.04-.21-.21-.26-.34-.08-.39-.3-.07-.3.24 0 1.07-1.02.94-1.15-.17-.17-1.84.25-2.95.75-.69.31-.7.32-.7.68 0 .82-.65 2.03-1.26 2.35-.39.2-.68.14-.33-.07.7-.41 1.36-1.56 1.36-2.33 0-.29-.02-.29-.8.12-.36.19-.89.45-1.18.59-.28.14-.52.31-.52.38 0 .06-.08.2-.17.31-.18.19-.17.2.09.13.61-.14.86.66.38 1.21-.16.18-.3.42-.3.53 0 .1-.04.22-.1.25-.23.14-.1-.63.15-.86.47-.46.35-.81-.27-.78-.92.04-1.28.22-1.28.66 0 .3-.58.88-1.02 1.02-.37.12-.59.71-.27.71.06 0 .09.06.06.12-.02.07-.11.12-.2.1-.17-.03-.31.14-.32.38 0 .1-.12.16-.38.18-.33.03-.4.08-.58.45-.28.56-.48.77-.72.77-.19 0-.18-.03.08-.3.16-.17.39-.5.5-.73.17-.35.25-.43.53-.45.19-.02.32-.09.32-.17 0-.07.06-.2.14-.28s.19-.3.23-.48c.07-.26.19-.39.53-.57.51-.27.9-.66.9-.9 0-.09.07-.36.17-.6.2-.53.12-.64-.54-.72-.65-.07-.69-.29-.06-.26.27.01.54.06.61.1.18.11.32-.02.32-.29 0-.13.09-.48.2-.76.29-.72.1-1-.48-.7-.09.05-.37.17-.62.27-.25.11-.52.26-.6.35-.37.41-1.24 1.01-1.29.88-.02-.07.13-.27.35-.44.8-.62 1-.88 1.23-1.62.22-.71.41-1.02.41-.66 0 .1-.07.4-.15.67s-.13.51-.11.53c.06.07 1.21-.41 1.29-.54.04-.07.15-.13.23-.13.21 0 .3-.35.33-1.24.02-.79.12-1.16.32-1.16.06 0 .07.09.03.23-.04.12-.08.56-.09.98l-.02.75.43-.2c.3-.13.47-.29.55-.5.07-.17.14-.34.17-.38.02-.04-.15-.1-.38-.14s-.39-.11-.37-.18c.04-.12.32-.13.57-.02.11.05.21-.09.38-.58.13-.36.3-.7.38-.77.2-.16.18-.01-.1.73-.19.51-.22.68-.13.78s.09.14 0 .17c-.15.05-.18.33-.04.33.04 0 .2-.09.35-.21.14-.11.3-.18.34-.15.15.09.54-.25.7-.63.11-.26.17-.31.2-.18.02.09.08.17.13.17.19 0 1.39-.52 1.5-.66.15-.18.29-.18.29.01 0 .2-.5.5-1.27.76-.57.19-.89.44-1.07.82-.05.09-.07.09-.12 0-.04-.09-.18-.06-.52.12-.26.14-.54.25-.62.25-.15 0-.6.77-.6 1 0 .06.14.1.3.1.17 0 .3.05.3.1s.16.1.35.1.35.04.35.09c0 .11-.73.23-.8.12s-.6-.23-.6-.14c0 .16-.19 1.26-.25 1.44-.11.33.55-.06.88-.52.36-.5.62-.55.36-.07l-.11.21.33-.19c.19-.11.47-.39.64-.61.29-.4.85-.61.85-.33 0 .06.07.1.15.1s.15-.04.15-.1c0-.05.11-.12.25-.16.14-.03.25-.1.25-.14s.03-.21.06-.38c.05-.27.04-.3-.17-.29-.13 0-.31-.03-.4-.07-.12-.05-.18-.01-.22.13-.03.14-.13.21-.29.21-.21-.01-.22-.02-.05-.14.09-.07.17-.2.17-.28 0-.09.1-.23.23-.31l.22-.16h-.27c-.19-.01-.28-.06-.28-.17 0-.12.09-.15.42-.12.39.03.42.01.54-.32.1-.27.13-.3.13-.12.01.19.06.22.45.22.46 0 .68.13.4.24-.09.03-.29.06-.46.06-.3 0-.88.33-.88.51 0 .05.16.09.35.09h.35v.5c0 .28.02.5.04.5s.2-.07.39-.15c.37-.15.39-.19.63-1.18.03-.15.1-.3.15-.33.14-.08.11.37-.06.92-.08.27-.15.5-.15.51 0 .07.52-.16.85-.38.29-.2.44-.4.57-.76.09-.26.24-.57.32-.68l.15-.2.01.2c0 .37-.48 1.4-.73 1.55-.23.14-.2.15.61.18.89.02 1.06.07.96.24-.04.06-.3.08-.7.03l-.63-.06-.22.43c-.12.24-.3.55-.41.71-.19.27-.19.27.01.27.28 0 .26.14-.05.37-.26.19-.24.19 1.93.19 4.98.01 6.52 1.34 6.53 5.62v.72h6.57l.06-.98c.29-4.73-1.12-7.84-4.43-9.83-1.73-1.03-2.82-1.29-5.76-1.36l-2.31-.06-.07.38c-.09.47-.06.5.4.29.54-.23 1.04-.34 1.04-.23 0 .05.13.03.3-.06.38-.2.67-.21.51-.01-.06.08-.24.19-.39.25-.26.11-.27.14-.28.95v.83l.7.13c.39.07.78.17.87.23.13.08.22.07.33-.02.13-.11.16-.11.16.02 0 .19-.18.34-.53.42-.21.06-.27.04-.27-.08 0-.48-2.18-.45-3.09.04-.58.31-.76.35-.86.19-.03-.05.16-.19.43-.3l.49-.21.01-.65c.01-.98.22-1.05.3-.1l.04.53.42-.08c.73-.14.76-.16.76-.69 0-.27.03-.55.06-.63.07-.19-.25-.5-.45-.43-.09.02-.36.12-.6.21-.59.21-.78.06-.63-.49.14-.49.1-.5-2.92-.43-3.38.07-4.57.37-6.51 1.62-3.07 1.98-4.45 5.03-4.2 9.27l.07 1.28h6.15zm-1.47-4.9c.14-.1.54-1.11.59-1.47.1-.8.19-1.19.35-1.52.25-.49.24-.51-.1-.34-.16.09-.32.12-.35.08-.07-.06-.26.16-.26.31 0 .04.11.05.25.01.19-.05.25-.02.25.1s-.09.15-.4.14c-.5-.02-.57.05-.43.43.1.26.09.37-.07.68-.18.33-.28.69-.47 1.64-.06.28.21.26.64-.06Zm14.11.27c-.03-.03.05-.17.19-.32.47-.51.58-1.12.2-1.12-.13 0-.28-.05-.34-.11-.14-.14-.34.2-.43.71-.06.42-.26.38-.23-.05.02-.17.03-.45.04-.64.01-.24.04-.3.12-.22s.15.06.28-.05c.11-.1.19-.12.24-.05.03.06.24.11.46.11h.4l-.07.53c-.07.65-.64 1.44-.86 1.21Zm4.84-.71c-.2-.04-.22-.1-.22-.68v-.63l-.46-.18c-.37-.14-.5-.15-.65-.06-.25.16-.28.15-.22-.06.03-.14-.08-.24-.47-.42-.7-.33-.5-.51.22-.2.29.13.6.24.68.25.2.02.8.33 1.03.53.12.11.17.3.17.69 0 .57.04.62.32.36.17-.15.18-.15.18.03 0 .19-.18.45-.3.43-.03-.01-.15-.04-.28-.06Zm-6.24-1.51c-.37-.04-.36-.22.02-.22.24 0 .31-.05.36-.27.03-.16.12-.46.2-.69s.12-.48.08-.58c-.04-.11-.01-.16.13-.16.11 0 .25-.11.31-.26.12-.26.36-.25.25.01-.04.11.03.15.25.15.16 0 .44.03.61.06.27.06.31.04.31-.14 0-.28.1-.52.22-.52.05 0 .08.14.06.31-.03.32 0 .35.32.26.12-.03.21-.17.25-.41.08-.41.25-.49.25-.11 0 .28.08.3.45.13.21-.1.28-.09.35.02.13.21.02.3-.36.3-.2 0-.47.09-.65.23-.27.19-.43.22-1.32.22h-1.02l-.19.4c-.1.22-.21.59-.24.82-.05.44-.15.51-.64.45Z"/></svg>