<svg xmlns="http://www.w3.org/2000/svg" width="51" height="51" viewBox="0 0 51 51"><path fill="#fff" fill-rule="evenodd" stroke="#fff" stroke-width=".473" d="m31.28 46.6-.03-4.59-.85-.8-.85-.8-5.96-.01c-7.09 0-6.87.03-7.94-1.03-.47-.46-.68-.77-.84-1.2l-.21-.59.02-12.21.03-12.22.24-.45c.36-.67.59-.95 1.08-1.31.87-.62.57-.6 9.66-.59 9.43.01 8.85-.04 9.88.88.99.89.99.87.99 5.29v3.82l.6.47c1.56 1.22 2 2.26 2.65 6.18 1.05 6.41 1.08 6.71 1.09 10.16l.01 3.15.57 4.1c.81 5.8.88 6.59.62 6.32-.04-.03-.13-.57-.2-1.19-.08-.62-.38-2.84-.66-4.93-.6-4.48-.68-5.55-.61-8.15.05-1.66.03-2.15-.15-3.3-.12-.74-.35-2.27-.52-3.4-.75-5-.95-5.93-1.53-7.05-.3-.57-1.55-1.95-1.77-1.95-.07 0-.1 2.44-.1 7.2 0 6.1-.02 7.21-.14 7.26-.2.07-2.35-.5-2.87-.77-.64-.32-1.5-1.19-2.47-2.49-1.77-2.36-2.85-3.19-4.26-3.28-.89-.05-1.3.12-1.52.64-.26.62-.31.47 2.08 5.74.68 1.51 1.38 3.06 1.53 3.44.31.73.39.82 1.75 2.11l.85.8.06.95c.15 2.05.1 8.4-.06 8.4-.12 0-.15-.64-.17-4.6Zm-4.21-6.5h2.11l-.3-.55-.3-.55h-5.75c-5.6 0-5.77-.01-6.08-.2-.69-.43-.65.45-.65-13.2 0-13.63-.04-12.74.64-13.23l.31-.22h8.47c8.45 0 8.47 0 8.75.21.73.55.67-.38.73 11.83l.05 10.95.5.13c.28.07.56.13.63.13.1 0 .12-2.17.1-11.07l-.03-11.08-.28-.57c-.32-.66-.7-1.01-1.47-1.37l-.55-.26h-16.7l-.66.31c-.44.21-.77.46-1.02.76-.71.87-.67-.02-.67 13.48v12.17l.31.61c.44.89 1.25 1.49 2.3 1.72.25.05 1.94.07 3.94.05 1.93-.03 4.45-.05 5.62-.05Zm1.34-1.52c-.05-.13-.16-.4-.25-.6L28 37.6h-4.38c-4.77 0-4.92-.02-5.52-.56-.75-.68-.71.03-.68-11.59.03-11.8-.04-10.86.87-11.5l.43-.3h13.74l.41.27c.89.59.83-.19.83 10.97v9.82l.35.15c.71.29.65 1.3.65-10.66 0-11.78.03-11.12-.56-11.59-.27-.21-.3-.21-8.58-.21-8.94 0-8.59-.02-9 .53-.21.28-.21.3-.24 12.28-.04 12.98-.05 12.74.39 13.18.4.4.07.38 6.26.4l5.53.01zm-.61-1.34c0-.03-.64-1.46-1.42-3.17-1.38-3.02-1.43-3.14-1.43-3.79 0-1.08.64-1.57 1.92-1.45 1.41.14 2.53 1 4.27 3.31.9 1.19 1.7 2.07 2.06 2.26.2.11.2.03.2-9.67 0-11.01.06-10.13-.76-10.64l-.39-.24h-6.6c-7.4 0-7.05-.03-7.63.73l-.27.35v21.32l.24.34c.5.7.54.71 5.44.71 2.4 0 4.37-.03 4.37-.06Zm.64-3.67c-1.21-.66-1.76-1.26-1.82-2.02-.13-1.66 1.87-1.15 3.17.82.67 1.01-.22 1.81-1.35 1.2Zm1.18-.24c.31-.28.22-.58-.38-1.22-1.14-1.24-1.94-1.61-2.3-1.06-.61.94 1.84 3.04 2.68 2.28Zm-4.73-7.12c-.64-.64-.19-1.76.71-1.76.35 0 .47.06.71.33.62.7.2 1.72-.71 1.72-.33 0-.48-.06-.71-.29Zm2.92.03c-.58-.49-.46-1.4.22-1.69.7-.29 1.37.2 1.37 1 0 .84-.93 1.25-1.59.69Zm2.78-.03c-.16-.16-.29-.38-.3-.48-.08-1.23 1.31-1.79 1.85-.74.56 1.07-.71 2.06-1.55 1.22Zm-4.46-.2c.42-.41.05-1.31-.53-1.31-.34 0-.73.43-.72.79.02.71.74 1.01 1.25.52Zm5.7-.03c.56-.66-.35-1.66-1.02-1.1-.37.31-.38.76-.02 1.13.36.35.72.34 1.04-.03Zm-2.75-.11c.17-.34.09-.69-.2-.97-.66-.61-1.58.41-.96 1.07.33.35.97.29 1.16-.1Z"/></svg>