<svg xmlns="http://www.w3.org/2000/svg" width="51" height="51" viewBox="0 0 51 51"><path fill="#fff" fill-rule="evenodd" stroke="#fff" stroke-width=".753" d="M7.26 50.92c-3.38-.97-6.01-3.62-7-7.06-.15-.52-.26-1.11-.25-1.45l.01-.56.18.9c.79 3.87 3.2 6.65 6.78 7.85l.93.31h17.71l17.7-.01.89-.3c3.68-1.23 6.1-4.1 6.8-8.04l.17-1.01.01.61c.05 3.52-3.09 7.4-7.03 8.68l-.78.26-17.66.02-17.67.03zm7.38-13.61c-.25-.12-.5-.33-.65-.57l-.24-.39v-7.12c0-8.01-.06-7.35.76-7.91.49-.33 4.3-.3 4.75.04.74.55.69-.06.72 7.78l.02 7.02-.23.45c-.41.78-.77.89-2.92.89-1.54 0-1.86-.03-2.21-.19Zm8.81.05c-.39-.17-.7-.52-.9-.98-.13-.33-.15-1.62-.15-10.81V15.13l.23-.43c.38-.73.73-.84 2.62-.89 2.28-.05 2.83.12 3.32 1.02.17.3.18.99.18 10.82v10.5l-.25.45c-.44.79-.8.9-2.95.9-1.28-.01-1.89-.05-2.1-.14Zm8.6-.06c-.22-.11-.51-.36-.65-.57l-.25-.37v-4.2c0-5.59-.16-5.32 3.1-5.3 2.09.01 2.29.05 2.78.64.38.44.38.55.35 4.95l-.03 4-.24.34c-.44.61-.82.71-2.86.71-1.6 0-1.84-.02-2.2-.2Zm-12.97-.25c.74-.45.72-.2.72-7.81 0-8.63.27-7.87-2.83-7.92-2.1-.03-2.39.03-2.79.58-.19.28-.36 13.44-.18 14.26.11.46.56.93 1.01 1.05.7.17 3.7.06 4.07-.16Zm8.69.02c.18-.1.43-.36.55-.6l.23-.42v-10.4c0-10.31 0-10.4-.21-10.75-.43-.74-.63-.8-2.81-.8-2.14 0-2.34.05-2.67.61-.24.41-.26 21.3-.02 21.76.38.74.69.83 2.86.8 1.44-.02 1.81-.06 2.07-.2Zm8.7 0c.68-.36.68-.36.68-4.92 0-5.41.2-5.07-3.03-5.03l-2.04.03-.32.36-.33.35-.05 4.03c-.03 2.23-.02 4.17.03 4.35.12.43.6.87 1.06.97.75.15 3.65.05 4-.14ZM51.01 8.55c-.66-3.89-3.34-6.92-7.18-8.12l-.88-.28H8.45L7.6.38C3.83 1.39 1.02 4.42.21 8.35l-.19.9-.01-.6C0 7.93.55 6.21 1.12 5.19A10.37 10.37 0 0 1 7.34.25L8.22 0h34.86l.86.25c2.78.81 5.21 2.91 6.46 5.58.48 1.03.82 2.33.78 3.01l-.03.51z"/></svg>