<svg xmlns="http://www.w3.org/2000/svg" width="51" height="51" viewBox="0 0 51 51"><path fill="#fff" fill-rule="evenodd" stroke="#fff" stroke-width=".499" d="M17.26 34.4c-2.01-.43-4.11-1.16-5.78-2.03-1.1-.56-1.14-.63-.98-1.45.36-1.77 1.87-3.49 4.19-4.77.5-.27.91-.52.91-.56 0-.03-.21-.15-.48-.28-2.54-1.24-4.37-3.32-4.67-5.33-.08-.56 0-.63 1.67-1.43 1.71-.82 5.39-1.95 6.36-1.95.31 0 .32.12.32 3.33v3.02l.28.5c.33.6.32.6 1.87.16 3.36-.95 6.48-.91 9.83.11l1.04.32.19-.25c.43-.55.49-1.06.49-4.16 0-2.38.03-2.95.14-2.99.58-.22 4.62 1 6.6 2.01 1.63.81 1.65.84 1.48 1.62-.37 1.79-1.92 3.56-4.3 4.88-.84.47-.84.45-.3.75 2.95 1.62 4.8 3.83 4.66 5.56l-.03.39-1.43.71c-1.97.99-5.32 2.04-6.5 2.04h-.31l-.03-3.12c-.03-3.06-.04-3.14-.27-3.61-.31-.64-.31-.64-1.83-.23-3.6.97-6.08.95-9.74-.06-1.32-.37-1.36-.36-1.63.37-.2.52-.21.76-.21 3.45 0 1.58-.03 2.95-.06 3.04-.08.2-.36.19-1.48-.04Zm1.52-6.57c.41-.9.44-.91 1.75-.55 3.73 1.04 6.02 1.08 9.56.15 1.95-.51 1.88-.52 2.31.31l.35.69.03 2.98.04 2.99.21-.05c.12-.03.63-.14 1.12-.24 1.97-.43 3.44-.95 5.22-1.83 1.3-.64 1.27-.61 1.09-1.42-.41-1.77-1.8-3.26-4.33-4.66-.51-.29-.93-.56-.93-.61s.28-.23.62-.4c2.66-1.34 4.35-3.21 4.72-5.21l.07-.37-.84-.45c-1.67-.91-4.75-1.96-6.49-2.2l-.46-.07-.04 2.98-.03 2.98-.33.68c-.42.85-.41.85-1.54.49a17.23 17.23 0 0 0-10.13-.1c-1.52.45-1.4.45-1.7 0-.5-.76-.55-1.12-.55-4.19V16.9h-.22c-1.36.01-6.93 1.99-7.5 2.67-.17.21.03 1.1.44 1.93.56 1.15 2.61 2.97 4.13 3.66.87.39.87.4-.33 1.08-2.56 1.46-4.12 3.22-4.29 4.88l-.06.57 1.34.65c1.6.78 3.6 1.46 5.24 1.78l1.2.24.05-3c.05-2.89.06-3.03.28-3.53Zm4.97-.76c-1.31-.28-2.74-.9-2.99-1.3-.15-.23.15-.51.98-.92 2.26-1.11 5.75-1.1 7.86.01 1.23.64 1.24.82.12 1.42-1.45.77-4.28 1.15-5.97.79Zm4.17-.41c1.07-.27 2.23-.82 2.23-1.06 0-.25-1.59-.97-2.54-1.16-1.91-.37-4.42-.07-5.94.73-.8.42-.8.48-.01.9 1.68.92 4.07 1.15 6.26.59Z"/></svg>