<svg xmlns="http://www.w3.org/2000/svg" width="51" height="51" viewBox="0 0 51 51"><path fill="#fff" fill-rule="evenodd" stroke="#fff" stroke-width=".449" d="M31.15 45.89c-.71-.11-3.3-.47-5.75-.8-8.97-1.21-8.48-1.1-8.89-1.92-.37-.76-.07-1.62.72-2.01.38-.18.4-.18 2.7.13 7.87 1.06 13.26 1.85 13.54 1.98.71.33 1.02 1.49.57 2.1-.57.77-.84.82-2.89.52Zm2.25-.25c.76-.46.78-1.72.02-2.13-.27-.15-14.95-2.21-15.72-2.21-.85 0-1.38 1.16-.87 1.91.32.48.4.5 5.42 1.18 2.48.34 5.74.79 7.25 1 3.18.45 3.52.47 3.9.25Zm5.85-4.95c-.64-.1-3.77-.45-18.9-2.14-9.85-1.1-10.08-1.13-11.2-1.69-2.01-1-2.84-2.42-2.93-5-.05-1.72-.08-1.66.88-1.65 1.12.02 1.14.03 1.21.9.14 1.71 1.48 3.16 3.32 3.59.38.09 4.8.6 18.22 2.1 2.42.28 4.75.55 5.18.61 2.41.35 4-.64 4.59-2.86.2-.75.19-20.96-.01-21.75-.4-1.59-1.44-2.62-2.92-2.9-.39-.08-1.47.02-5.31.45-2.66.3-8.02.91-11.93 1.35s-7.38.86-7.72.94c-2.01.48-3.27 1.83-3.4 3.64-.07 1-.09 1.02-1.03 1.02-1.16 0-1.1.08-1.1-1.39.01-2.46.61-3.86 2.14-4.95 1.37-.98 1.14-.94 11.51-2.11 22.76-2.57 21.1-2.41 22-2.1 1.56.54 2.75 1.97 3.16 3.8.24 1.04.2 25.46-.04 26.39-.72 2.8-2.85 4.2-5.72 3.75Zm2.55-.37c1.19-.36 2.27-1.51 2.77-2.97l.28-.8.03-12.44c.03-13.67.04-13.47-.57-14.77-.58-1.24-1.75-2.19-3.02-2.46-.58-.12-.9-.09-19.99 2.07-2.67.3-6.07.69-7.55.85-3.88.44-4.61.67-5.8 1.84-1.11 1.09-1.45 2.05-1.45 4.11V17H8v-.43c0-1.88 1.34-3.51 3.4-4.11.3-.09 2.73-.41 5.4-.71 2.67-.31 6.4-.73 8.3-.95 12.18-1.4 11.47-1.35 12.58-.85 1.07.48 1.87 1.49 2.17 2.77.22.94.22 20.92 0 21.86-.6 2.55-2.2 3.45-5.36 3.03-.9-.12-3.44-.41-5.64-.66-17.52-1.94-17.39-1.93-18.4-2.4-1.31-.62-2.32-2.03-2.42-3.39l-.06-.66H6.5v1.23c0 1.98.37 2.95 1.53 4.03 1.36 1.27 1.81 1.37 9.67 2.24 8.6.95 21.52 2.4 22.2 2.5.65.09 1.16.05 1.9-.18ZM6.25 28.98c-.03-.07-.04-2.42-.03-5.23l.03-5.1 1.38-.03L9 18.59l-.02 5.23-.03 5.23-1.33.03c-1 .02-1.34-.01-1.37-.1Zm4 0c-.03-.07-.04-2.42-.03-5.23l.03-5.1h5.5l.56.26c1.39.65 1.94 1.53 1.94 3.09 0 2.31-1.14 3.32-3.82 3.38l-1.43.04v3.68h-1.35c-.99 0-1.37-.03-1.4-.12Zm11.13-4-.03-4.13-1.32-.03-1.33-.03V18.6h11.08l1.18 3.53c.64 1.93 1.19 3.56 1.22 3.61s.6-1.52 1.26-3.5l1.21-3.59 1.43-.03c1.13-.02 1.42 0 1.42.11 0 .12-2.43 7.12-3.3 9.5l-.32.87h-1.64c-1.61 0-1.65 0-1.74-.22-.05-.13-.68-1.87-1.39-3.88s-1.49-4.19-1.72-4.84l-.44-1.19-.03.91c-.02.64-.07.92-.15.93-.07 0-.67 0-1.34-.01l-1.23-.01-.02 4.13-.03 4.13-1.37.03-1.38.03zm-8.68 2.39c0-.78.03-1.59.06-1.79l.07-.38h.91c2.3-.01 3.39-.48 4.01-1.75.66-1.34.28-3.07-.86-3.91-.81-.6-1.23-.67-3.91-.72l-2.48-.04v10.07l1.1-.03 1.1-.03zm21.53-.01c.62-1.68 2.97-8.42 2.97-8.5 0-.04-.53-.05-1.17-.04l-1.18.03-1.27 3.8c-.71 2.09-1.32 3.81-1.36 3.83-.04.01-.65-1.71-1.35-3.83l-1.28-3.85h-1.21c-1.1 0-1.2.01-1.13.18.08.2 3.08 8.66 3.32 9.34l.17.47 1.4.03c1.67.04 1.5.15 2.09-1.46ZM8.7 23.8v-5H6.5v10h2.2zm15.2.9v-4.1h2.7v-1.8H19v1.79l1.33.03 1.32.03.03 4.08.02 4.07h2.2zm-11.2-2.71v-1.41l1.14.04c1.42.04 1.96.44 1.96 1.44 0 .95-.59 1.34-2.02 1.34H12.7zm2.2 1.03c.57-.28.77-1 .45-1.61-.19-.37-.54-.5-1.5-.53l-.8-.03-.03 1.18-.03 1.17h.78c.54 0 .89-.05 1.13-.18Z"/></svg>