<svg xmlns="http://www.w3.org/2000/svg" width="51" height="51" viewBox="0 0 51 51"><path fill="#fff" fill-rule="evenodd" stroke="#fff" stroke-width=".784" d="M31.39 46.3c-4.05-.48-7.69-3.96-8.14-7.8l-.07-.55h1.94c1.06 0 2.17-.02 2.47-.05l.54-.05.27.67c.37.92.9 1.6 1.61 2.07 1.12.75.5.71 11.41.71 6.57 0 9.78.03 9.78.1s-3.27.09-10.02.08l-10.03-.03-.58-.27c-1.01-.47-2.01-1.59-2.42-2.69l-.16-.46-.52.09c-.63.1-3.66.12-3.92.02-.16-.07-.17-.03-.1.41.42 2.87 2.58 5.61 5.35 6.81 1.84.8 1.33.77 12.44.78 7.82.01 9.9.04 9.93.14.05.14-18.57.16-19.78.02Zm-6.89-9.55c-.08-.02-.49-.09-.9-.15-3.56-.58-6.84-3.2-8.33-6.64-1.96-4.56-.65-9.94 3.18-13.03 7.6-6.13 18.7-.67 18.32 9.02-.23 5.99-4.85 10.62-10.77 10.8-.74.02-1.42.02-1.5 0Zm3.35-.39c4.08-.86 7.34-3.98 8.42-8.03.31-1.17.39-4.02.15-5.03-1.37-5.65-6.14-9.18-11.73-8.69-7.83.68-12.44 8.91-8.91 15.94 2.18 4.36 7.3 6.82 12.07 5.81Zm-3.2-4.47c-4.5-.66-6.92-5.95-4.45-9.74 2.27-3.49 7-3.99 9.9-1.06 3.75 3.79 1.63 10.07-3.63 10.8-.87.12-.97.12-1.82 0Zm2.4-.31c3.38-.7 5.54-4.51 4.46-7.88-1.31-4.11-6.48-5.67-9.78-2.96-5.09 4.2-1.17 12.19 5.32 10.84Zm-4.01-18.34c-.76-2.25-2.14-3.27-4.62-3.4-.59-.03-4.96-.01-9.71.05-8.24.1-8.83.1-8.68-.05.12-.12 18.15-.26 19.11-.15 1.87.22 3.35 1.37 3.92 3.06.15.43.19.46.43.41.54-.12 2.98-.17 3.61-.08.36.05.67.08.69.06.03-.03-.05-.48-.17-1.02-.85-3.81-3.94-6.51-8.04-7.02-.67-.08-3.57-.11-10.26-.08C4.2 5.03 0 5.02 0 4.98c0-.27 19.5-.23 20.6.05 3.42.85 5.87 2.98 6.91 6 .29.84.57 2.22.47 2.32-.03.03-.5 0-1.04-.06-.91-.1-2.2-.07-3.36.07-.41.06-.49.04-.54-.12Z"/></svg>