<svg xmlns="http://www.w3.org/2000/svg" width="51" height="51" viewBox="0 0 51 51"><path fill="#fff" fill-rule="evenodd" stroke="#fff" stroke-width=".26" d="M9.8 51.15c0-.03.09-.23.2-.45.19-.36.5-1.47.5-1.78 0-.08-.13 0-.3.16-.77.77-1.89.25-1.64-.75.43-1.74 6.49-2.67 17.39-2.67 10.53-.01 16.8 1.05 16.8 2.84 0 .93-1.08 1.29-1.74.59l-.21-.23v.25c0 .23.21 1.27.36 1.77.12.4-.16.24-.36-.21-.38-.85-.45-2.23-.15-2.98.14-.36-3.47-1.02-7.03-1.28l-1.34-.1-.66.48c-1.27.92-4.12 2.69-3.77 2.34.06-.05.92-.65 1.92-1.33 2.33-1.56 2.28-1.5 1.14-1.5h-.92l-1.87 1.45c-1.03.8-1.97 1.48-2.1 1.51-.23.06-1.55-.76-3.69-2.3l-.92-.66h-.86c-.47 0-.84.04-.81.09.1.15 2.87 1.96 3.69 2.41 1.37.74.82.57-.73-.24-.75-.38-2.6-1.58-3.14-2.03-.33-.27-.55-.27-3.61.03-3.73.37-5.78.87-5.34 1.31.38.38.1 2.41-.43 3.08-.18.23-.38.33-.38.2Zm32.56-.41c-.15-.38-.04-.65.48-1.24 1.17-1.31.65-2.15-1.78-2.84-7.54-2.12-29.37-1.66-32.56.69-.9.66-.93 1.21-.1 2.1q.6.645.6.9c0 .35-.16.31-.24-.06-.07-.37-.92-1.21-1.53-1.5-1.24-.61-1.8-2.81-1.28-5.04l.12-.54-.46-.07c-1.75-.25-2.25-1.65-1.37-3.8.68-1.65.71-1.74.52-1.92-.11-.12-.19-.13-.27-.05s-.08.13 0 .17c.26.16.08.25-.2.1-.44-.22-1.31-.86-1.25-.91.05-.06.65.25.89.45.09.08.17.11.17.05 0-.17-.24-.39-.75-.69-.5-.29-.5-.29-.2-.32.49-.05.8-.21.99-.52.22-.39.32-.38.46.05.08.24.24.42.51.58.44.25.46.4.05.45-.32.04-.45.28-.25.48.12.11.17.1.33-.14.1-.15.41-.45.7-.66.42-.33.59-.56.99-1.37.92-1.87 1-1.93 2.12-1.54.82.28.85.35.51 1.11-.32.69-.33.64.09.64.33 0 .46-.12.26-.25-.05-.03-.01-.29.1-.6.1-.3.19-.6.19-.67 0-.08.21-.33.46-.57 1.24-1.17 1.36-3.25.26-4.69-.34-.44-.35-.48-.23-.87.89-3.06.89-3.74.01-4.33-.79-.54-1.55-.2-2.43 1.08-.74 1.09-1.13 1.3-1.82.98-1.39-.63.2-3.82 2.21-4.42.2-.06.21-.02.28.96.07 1.16.05 1.09.34 1.01.21-.05.21-.08.15-1.09l-.06-1.04h.36c.92 0 2.16.83 3.15 2.1.47.61.47.61.93.57.9-.07 2.3-.97 3.75-2.4.86-.84.97-.87 1.08-.35.58 2.93 4.52.93 6.61-3.36 1.36-2.78 1.18-3.82-.64-3.65-1.19.11-1.39.07-.54-.12 2.38-.54 5.72.11 7.83 1.52 6.11 4.09 7.25 11.55 2.55 16.67-.8.86-.71.88.73.18 2.67-1.32 4.92-1.49 6.02-.46.42.4.39.74-.15 1.69-.24.44-.61 1.19-.81 1.68-.78 1.9-1.5 2.52-2.99 2.53-1.64.01-2.52-.87-2.43-2.4.04-.79-.11-.81-.32-.05-.42 1.49.42 2.57 2.23 2.85 1.83.29 3.07-.37 3.68-1.96.39-1.02.78-1.72 1.46-2.62 1.49-1.95-1.42-3.6-4.6-2.62-.86.27-.93.24-.61-.24 1.87-2.75 2.02-7.43.33-10.66-4.13-7.93-15.38-8.67-20.77-1.37-.83 1.12-2.02 3.7-2.02 4.38 0 .41.4-.22.59-.93 1.24-4.57 6.9-8.92 9.95-7.64 1.2.5.03 3.46-2.38 5.94-2.19 2.27-3.89 1.23-2.7-1.64.37-.91.4-1.27.11-1.32-.3-.06-.44.15-.77 1.14-.65 1.94-2.2 3.53-4.54 4.65-.95.46-1.04.45-1.46-.21-1.8-2.81-5.13-2.73-6.93.16-.63 1.02-.7 1.58-.33 2.8.12.43.26 1.04.3 1.34.1.82.48 2.6.55 2.6.04 0 .15-.15.26-.32.28-.49 1.24-1.46 1.67-1.7l.38-.22v-.7c0-.39-.05-.99-.1-1.34-.19-1.14.81-2.13 1.69-1.68.74.39.65 1.55-.26 3.29-.45.85-.53.77-.78-.78-.25-1.53-.33-1.58-.27-.17.06 1.44.02 1.63-.37 1.8-1.24.54-2.41 2.53-2.4 4.07 0 .71.25 1.66.45 1.72.14.05.35-.42.23-.54-.91-.91.51-4.4 1.98-4.83 1.54-.46 2.77 2.04 1.91 3.91-.43.94-1.09 1.24-1.97.89-.97-.38-1.3-.19-2.09 1.16-.45.78-.94 1.31-.53.58.18-.32.21-.46.13-.6-.21-.39-.42-1.46-.52-2.61-.06-.65-.16-1.82-.23-2.61l-.13-1.42-.55-.56c-.71-.74-1.65-1.4-2.31-1.64-.29-.11-.41-.18-.26-.15.14.03.34.08.45.12.22.08.11-.07-.82-1.08-.33-.36-.2-.24.3.26s1.13 1.08 1.4 1.29c.27.22.78.66 1.12 1 .74.71.74.7.42-.87-.13-.63-.19-1.26-.17-1.65.04-.66.03-.68-.37-.5-.3.14-.5.47-.6 1.01-.1.5-.31.47-.4-.04-.09-.52-.5-.98-.94-1.08-.48-.09-.49-.25-.02-.41.49-.16.75-.42.91-.93.14-.46.16-.46.35 0 .23.55 1.03 1.28 1.21 1.1.25-.25-.11-1.15-.57-1.41-.64-.35-.63-.44 0-.11l.5.25-.06-.73c-.04-.59-.09-.75-.27-.87a4.9 4.9 0 0 1-1.99-3.01c-.13-.63-.5-1.25-1.49-2.51-.16-.21-.27-.38-.24-.38.04 0 .39.45.8 1l.73.99.06-.67c.09-.89.29-1.56.66-2.14l.3-.47-.15-.73C2.82 8.78 5.42 4.9 8.77 4.9c.74 0 .72-.05.31.77-.54 1.1-.53 3.14.03 3.43.14.08.18.06.21-.12.02-.18.26-.33 1.23-.75.9-.39 1.21-.57 1.23-.72.04-.22-.41-.51-.8-.51-.23 0-.57-.16-.48-.22.03-.02.3-.15.61-.3.43-.2.59-.34.68-.6.3-.78.28-.76.4-.43.23.61.37.79.76.96.3.13.41.15.47.06.05-.08.08-.05.08.08 0 .14-.13.25-.45.39-.71.28-.82.61-.12.34.28-.11 1.14-.37 1.9-.58 1.65-.46 1.53-.37 1.26-.94-.3-.65-.67-.92-1.67-1.22-.96-.3-.95-.33.18-.55.87-.17 1.2-.51 1.47-1.51.23-.82.26-.8.57.33.22.8.46 1.05 1.11 1.2.52.12.78.39.37.39-.65.01-1.33.67-1.47 1.43-.08.43-.08.43.77.23.91-.21 1.31-.57 1.12-1.01-.23-.56-.18-.9.17-1.18.23-.18.32-.34.36-.68.07-.54.36-1.15.62-1.29.23-.12.26-.08.35.44.11.58.42 1.19.88 1.71.53.6.63.57.27-.07-.16-.29-.29-.58-.28-.63 0-.05.11.11.24.36.27.53.87 1.09 1.15 1.09.23 0 .37-.19.21-.29-.47-.29-.73-1.09-.51-1.52.08-.14.07-.25-.05-.41-.55-.79.31-1.69 1.18-1.23.2.1.35.12.53.05.36-.14.77-.12.98.03.16.12.22.1.42-.1.52-.52 1.2-.13 1.11.65-.04.36-.01.52.15.73.25.34.2.98-.11 1.4-.14.19-.17.29-.08.32.35.13 1.15-.63 1.24-1.18.06-.36.07-.37.14-.15.06.24.07.24.23-.12.18-.41.22-1.43.06-1.53-.05-.03-.1-.16-.09-.28 0-.12.03-.17.05-.11.03.06.15.09.28.07.56-.11 1.18.5 1.37 1.35.08.33.18.52.3.55.26.07.53.55.53.98.01.37.05.41.59.74.32.2.75.48.95.64.28.21.6.33 1.27.45.86.16 3.99.9 4.28 1.02.09.03.17-.06.25-.28l.1-.33-.01.34c-.02.29.02.35.28.44.17.05.86.3 1.55.54.69.25 1.3.46 1.35.48.06.01.37.14.69.29.33.14.66.24.73.22.29-.11.06-2.25-.28-2.6-.05-.06-.19.15-.36.52-.14.34-.28.6-.3.58s.09-.34.26-.71c.29-.62.3-.69.16-.95-.21-.41-.19-.5.15-.5.17 0 .34-.07.4-.17.11-.17.11-.17.06-.01-.05.15.01.18.37.18 2.13 0 4.09 1.63 4.93 4.1.25.72.26 3.1.02 3.82l-.15.46.27.21c.45.33.82 1.21.88 2.08.04.59.07.71.15.57.17-.3 1.38-1.94 1.44-1.94.02 0-.11.21-.3.48-1.02 1.42-1.28 1.83-1.5 2.44-.44 1.16-1.83 2.98-2.28 2.98-.05 0-.09.39-.09.88 0 .92-.16 3.77-.26 4.75-.09.87.75.67 1.17-.29.23-.5.34-.5.43.01.09.48.18.5.81.21.67-.3.71-.27.1.08-.55.33-.56.42-.07.63l.37.15-.52.23c-.35.16-.62.37-.83.67-.37.51-.39.51-.56.02-.2-.59-.93-1.03-.94-.58-.01.11-.07.71-.14 1.34s-.12 1.17-.1 1.19c.01.02.36-.28.76-.66 1.36-1.28 4.71-3.83 4.85-3.69.04.03.04.08.02.09-.02.02-.69.52-1.47 1.11-3.2 2.4-7.23 6.37-8.34 8.21-.63 1.05-.66 1 .71 1h1.18l2.47-2.43c1.36-1.33 2.57-2.47 2.69-2.53s-.92 1.03-2.31 2.43c-2.83 2.85-2.65 2.61-2.13 2.77.22.06.63.27.93.47.69.47.82.39 1.34-.91l.16-.4.17.52c.29.85.47 1.05 1.24 1.33.36.13.34.27-.03.35-.43.09-.85.48-1.04.95-.09.22-.19.4-.24.4-.04 0-.08.46-.07 1.03v1.02l.54-.18c.88-.3 1.07-.16.24.17-.9.36-1.43 1.15-1.59 2.36-.01.13-.14.33-.28.43-.25.18-.25.18-.09.6.57 1.49-.11 4.37-1.16 4.89-.87.43-1.8 1.68-1.51 2.03.1.12.09.15-.03.15-.08 0-.18-.07-.21-.16Zm-32.51-1.7c.4-.16.56-1.14.18-1.14-.22 0-.65.25-.91.53-.42.45.07.86.73.61Zm32.25-.09c.25-.3-.38-1.05-.88-1.05-.3 0-.31.66-.02.98.24.25.72.29.9.07Zm-15.09-.76c2.04-1.56 2.45-1.94 2.15-1.97-.19-.02-.4.07-.74.36-.9.75-2.32 1.82-2.4 1.82-.09 0-1.28-.74-2.65-1.64-.68-.45-.94-.57-1.19-.54-.31.03 3.42 2.67 3.78 2.68.07 0 .54-.32 1.05-.71Zm-19.47-.16c.7-1.34 4.16-2.27 10.16-2.73 1.87-.14 14.63-.15 16.15-.01 5.82.54 9.01 1.38 9.73 2.56.32.52.35.53.68.18.65-.7.87-2.77.45-4.27l-.21-.78.24-.52c.62-1.27.85-3.85.43-4.66-.51-.97-1.3-1.33-2.97-1.38-1.46-.04-1.57-.01-2.02.58-.69.91-2.61 1.37-4.13.97-.3-.07-.3-.07-.3.36v.43l.52-.15c.81-.22.98-.1 1.38.94.06.16.1.1.25-.34.22-.64.33-.73.85-.65 1.16.18 1.48.78 1.16 2.17l-.09.37h.42c1.23 0 1.55 2.48.39 2.96-.42.18-1.02.11-1.34-.15-.21-.17-.24-.17-.58.01-.76.39-2.22.15-2.46-.39-.12-.29-.18-.29-.3-.01-.17.38-.52.5-1.25.43-.84-.08-.97-.08-1.45 0-.26.04-.55.02-.85-.09-.26-.09-.48-.12-.55-.06-.17.15-3.15.1-3.45-.05-.21-.11-.28-.11-.44 0-.23.17-3.14.19-3.34.02-.07-.06-.19-.25-.27-.44-.2-.48-.59-.47-.75.02-.22.66-1.33.88-2.04.42-.21-.14-.25-.14-.4.01-.24.24-1.48.3-1.8.08-.21-.13-.28-.13-.53-.02-.2.1-.75.14-1.88.14h-1.6l-.42-.44c-.24-.24-.43-.51-.43-.59 0-.25-.14-.17-.35.22-.58 1.07-3.28 1.16-3.64.12-.14-.4-.14-1.22-.01-1.71.09-.3.08-.44-.06-.7-.21-.41-.32-2.87-.15-3.31.17-.43.63-.57 1.84-.57 1.67 0 2.07.21 2.07 1.1 0 .77-.06.81-1.12.73-.63-.04-.88-.03-.88.06 0 .07.18.11.48.11.26 0 .63.05.82.1.46.13.85-.29.94-1.03.1-.75.32-.91 1.22-.85.94.06 1.04.15 1.04.89 0 .53.02.59.2.59.12 0 .24.09.29.23.06.15.09-.03.08-.56-.02-.94.09-1.07.89-1.07.64 0 .84.21.84.87v.43h.5c1.38 0 1.89.73 1.91 2.7.01 1.94.13 2.23.94 2.36.67.1.82 0 1.01-.62.16-.48.34-.72.34-.44 0 .06.14.1.3.1.43 0 .42-.35-.01-.44-.59-.12-.67-.08-.88.4-.33.73-1.5.42-1.51-.39 0-.52 1.24-4.36 1.52-4.73.37-.46 1.57-.44 1.82.04.33.65 1.15 4.11 1.16 4.89 0 .62-1.07.76-1.25.15-.06-.21-.15-.32-.28-.32-.2 0-.19.08.09.88.17.46.76.59 1.39.3.19-.09.28-.09.37 0 .07.07.38.12.7.12.73 0 .78-.08.78-1.39 0-.92.02-1.01.19-1.01s.19.1.23 1.06c.03.9.06 1.08.23 1.2.23.17 1.08.18 1.35.02.16-.1.24-.1.4 0 .11.06.44.12.75.12.7 0 .75-.09.75-1.39 0-.94.01-1.01.2-1.01s.2.07.2 1.08c0 .71.04 1.12.12 1.2.18.18 1.23.15 1.38-.03.11-.13.15-.14.29-.02.21.19.85.3 1.22.22.41-.09.49-.32.53-1.41.01-.52.08-1 .13-1.05.13-.13.14-.09.39 1.06.29 1.36.38 1.46 1.43 1.46.74.01.98-.06 1.06-.32.08-.23.28-.25.46-.03.56.68 1.56.56 1.75-.21.07-.29.06-.29-.12-.14-.77.66-1.85-.13-1.56-1.14.63-2.16.52-2.74-.5-2.93-.44-.07-.53.1-.1.21.81.2.82.22.24 2.28-.43 1.55-.45 1.58-1.08 1.64-.86.07-.92 0-1.4-1.84-.47-1.77-.74-2.42-.93-2.2-.07.09-.08.24-.01.45.11.4.01 3.23-.13 3.4-.12.15-.99.16-1.15 0-.08-.08-.12-.57-.12-1.55 0-1.01-.03-1.43-.11-1.43-.07 0-.34-.2-.6-.45l-.48-.45h-1.03c-1.32 0-1.44.04-1.58.46-.15.44-.3.44-.3 0 0-1.01 2.83-1.29 3.53-.34.26.36.42.07.24-.45-.17-.49.07-1.05.53-1.26l.38-.17-.19-.24c-.1-.14-.19-.3-.19-.37-.01-.39-2.52-.57-8-.57-4.92 0-5.86.05-11.03.6l-2.47.26-.83-.2c-2.8-.7-4.78-.44-5.77.76-.28.33-.37.58-.68 1.72-.1.35-.1.35-.11-.16-.05-2.47 3.03-3.74 6.54-2.69.99.3.71.3 4-.04 6.54-.68 13.94-.78 17.73-.25.33.05.42.03.42-.09 0-.51-9.62-.74-14.15-.34-1.1.1-2.92.27-4.05.39-2.52.26-3.29.27-4 .05-2.8-.86-5.62-.11-6.54 1.75-.47.93-.29 1.76.98 4.61l.26.59-.15.91c-.15.94-.2 2.29-.09 2.4.04.03.23-.2.44-.51.2-.31.52-.7.7-.87.31-.28.3-.26-.12.35-1.1 1.59-1.15 1.87-.46 2.66.36.41.43.42.62.07Zm19.63-.8c.63-.48 1.16-.9 1.19-.95.03-.04-1.15-.08-2.63-.07-2.55 0-2.67.01-2.44.17.42.3 2.63 1.72 2.69 1.72.03 0 .57-.39 1.19-.87Zm-13.7-3.8c.53-.39.68-.86.68-2.13 0-1.65-.26-2-1.46-2-.72 0-.72.35.01.43.9.11 1.26.56 1.24 1.54-.03 1.26-.68 1.87-1.92 1.8-.9-.05-1-.14-1.04-.94-.04-.9-.18-.66-.18.31 0 .62.04.87.15.96.42.35 2.07.37 2.52.03Zm3.63.15c.14.01.54.02.88.04.86.04.92-.05.92-1.39 0-.96.01-1.03.2-1.03s.2.07.2 1.07c0 1.31.07 1.43.86 1.43.68 0 .81-.13.9-.97.18-1.71-.1-3.29-.63-3.56-.38-.19-1.39-.31-1.48-.18-.04.07.12.11.47.11 1.16 0 1.38.36 1.38 2.29 0 1.57-.02 1.62-.7 1.63-.54.01-.6-.09-.6-1.02 0-1.24-.07-1.5-.41-1.5h-.29v.99c0 1.4-.05 1.51-.75 1.51-.72 0-.75-.07-.76-2.03-.01-.99-.04-1.37-.09-1.08-.07.47-.3.71-.67.71-.44 0-.31.54.17.73.92.36.58 1.65-.47 1.74-.92.08-1.3-.37-1.4-1.66-.04-.59-.1-.81-.2-.81-.2 0-.28.29-.15.51.07.1.12.42.12.71 0 1.24.63 1.93 1.65 1.82.33-.03.71-.06.85-.06Zm9.43-.7c-.04-.07-.07-.83-.05-1.68.03-1.88.01-1.85 1.28-1.95 1.76-.15 2.08.14 2.12 1.93.04 1.66-.01 1.82-.67 1.82-.64 0-.65-.02-.71-1.4l-.05-1.15h-.7l-.02 1.05c-.04 1.51-.04 1.5-.63 1.5-.28 0-.52-.05-.57-.12Zm3.87.02c-.12-.07-.16-.39-.18-1.58-.04-1.89-.05-1.88 1.27-2.04 1.77-.2 2.14.09 2.19 1.75.05 1.7-.02 1.91-.62 1.95-.64.04-.66 0-.66-1.36V40.5h-.68l-.08 1.23-.09 1.22-.5.03c-.27.01-.57-.02-.65-.08Zm15.09-.78c1.34-4.42-.16-6.7-4.12-6.28-1.19.13-.9.33.4.28 3.61-.14 4.93 2.26 3.37 6.12-.29.72-.3.8-.05.67.11-.07.27-.37.4-.79ZM6 42.73c0-.05-.13-.39-.3-.78-.16-.39-.47-1.17-.69-1.75l-.39-1.05-.18.6c-.44 1.46-.19 2.51.71 2.91.33.14.85.19.85.07Zm34.73-.25c.35-.41.09-.98-.44-.98-.39 0-.59.24-.59.71 0 .6.6.76 1.03.27Zm-27.5-.17c.82-.98.19-2.31-1.09-2.31-.26 0-.34-.17-.34-.71 0-.74.09-.81 1.08-.78l.87.03.03-.44c.05-.64-.08-.7-1.47-.7-1.85 0-1.88.04-1.77 1.85.09 1.71.14 1.78 1.42 1.91.61.06.66.06.62-.12-.03-.16-.16-.2-.73-.26-.9-.09-1.01-.21-1.1-1.27-.08-.89 0-1.54.21-1.75.29-.29 2.77-.3 2.63-.01-.02.05-.56.09-1.21.1-1.41 0-1.33-.07-1.33 1.25 0 1.29.01 1.31.92 1.39 1.3.11 1.28 1.11-.02 1.11h-.65v.44c0 .52.03.53 1.02.55.62.01.68-.01.91-.28Zm3.51.13c.29-.28.2-.62-.23-.83-.45-.23-.51-.35-.51-1.02v-.49h.91l-.03-.52-.03-.53h-.4c-.53 0-.65-.09-.65-.51 0-.56-.55-.51-.64.06-.05.33-.11.41-.34.46-.53.11-.53.12-.5.56.03.39.06.43.32.46.3.04.31-.02.11-.5-.1-.26.26-.24.48.02l.18.21.26-.21c.16-.12.4-.2.62-.19h.36l-.5.18c-1.15.41-1.05.29-1.05 1.3 0 .95.1 1.38.37 1.59.24.18 1.08.15 1.27-.04Zm1.74-1.03c.03-1.26.09-1.41.56-1.41.62 0 .69.14.74 1.44l.05 1.16h.67v-1.25q0-2.97-1.89-1.62c-.55.4-.71.5-.71.43 0-.03.21-.19.46-.37.26-.18.42-.34.36-.38s-.12-.42-.14-.86l-.03-.8h-.45c-.53 0-.76.34-.23.36.26.01.27.01.05.08-.24.06-.24.07-.29 2.09-.06 2.35-.06 2.34.44 2.3l.38-.03zm4.49.79.16-.4h.78c.82 0 1.09.12 1.09.5 0 .26.15.33.51.25l.31-.07-.07-.55c-.06-.46-.47-2.06-.98-3.85-.13-.44-.31-.53-.93-.43-.54.08-.74.45-1.29 2.4-.19.66-.41 1.4-.5 1.64-.16.45-.2.79-.08.68.04-.04.3-.89.58-1.9.41-1.41.56-1.83.7-1.85.22-.05.22-.03-.5 2.12-.46 1.36-.55 1.7-.44 1.77.3.19.51.09.66-.31Zm4.44-.83c.06-1.31.09-1.37.7-1.37.54 0 .64.18.66 1.29.01.53.03 1.01.03 1.07 0 .16.21.23.53.17l.27-.05v-1.09c0-1.69-.26-1.98-1.63-1.84-1.09.1-1.13.14-1.21 1.02-.14 1.75-.09 2.06.34 2.01.25-.03.25-.04.31-1.21Zm3.89 1.04c.05-.11.1-.65.1-1.2 0-1.11.06-1.21.68-1.21.48 0 .56.19.54 1.34-.03 1.14.06 1.34.53 1.22.3-.08.38-1.85.11-2.5-.27-.64-2.29-.74-2.68-.13-.14.21-.1 2.55.04 2.6.28.12.58.06.68-.12Zm3.92-1.36c.08-1.91.1-1.85-.58-1.85-.3 0-.54.03-.54.08 0 .04-.03.18-.05.32-.05.24-.05.24.04.02.26-.58.34-.23.28 1.26-.07 1.64-.04 1.75.48 1.7l.3-.03zm3.06 1.43c.15-.19.63-1.94.69-2.55l.06-.52-.34-.09-.34-.08-.12.55c-.46 2.04-.49 2.06-.9.81-.29-.87-.53-1.11-.81-.78-.12.15.39 2.4.6 2.65.14.17 1.02.17 1.16.01Zm-29.58-.2c0-.27-.87-1.93-1.58-3.01-.63-.96-.83-1.37-.67-1.37.39 0 2.57 4.22 2.31 4.48-.03.03-.06-.01-.06-.1Zm34.34-.8c.03-.09.1-.34.15-.56.17-.62.68-1.8 1.09-2.51.2-.37.4-.77.43-.91.06-.23.07-.22.08.07.01.21-.22.79-.67 1.7-.37.76-.78 1.61-.9 1.88-.12.28-.2.42-.18.33Zm-17.01-.44c-.12-.31.04-1.95.2-2.11.2-.2.89-.32 1.94-.32.99-.01 1.27.08 1.53.51.35.57.2.66-.28.18-.33-.33-1.77-.44-2.64-.2l-.36.11-.08.99c-.06.94-.16 1.21-.31.84Zm-2.53-.18c0-.08.07-.45.16-.82.08-.37.18-.92.22-1.23.1-.79.48-.9.49-.14 0 .26.07.86.16 1.33.08.46.13.88.11.92-.1.15-1.14.09-1.14-.06Zm14.35-.63c.06-.38.05-.41-.14-.36-.16.04-.25-.05-.46-.47l-.27-.52-.41.06c-.76.12-.78.57-.03.49.57-.07.8.15.97.92.13.6.22.57.34-.12Zm-2.5-1.67c.35-.53-.42-1.17-.95-.78-.48.36-.39.53.23.46.32-.04.57-.02.6.04.04.05-.17.12-.53.16-.46.05-.58.1-.53.21.1.27.99.2 1.18-.09Zm-20.45-.15c0-.53.08-.61.59-.61.56 0 .71.12.72.6 0 .33.01.34.1.1.06-.13.09-.38.07-.55l-.03-.3h-1.5l-.05.53c-.03.28-.02.52.02.52.05 0 .08-.13.08-.29Zm31.97-1.19.39-.38-.24-.18c-.13-.1-.34-.34-.45-.54-.2-.33-.21-.34-.29-.12-.04.12-.18.35-.29.51l-.21.3.25.2c.14.11.29.28.32.39.08.25.05.26.52-.18Zm-8.54-.4c.65-.29 1-.72 1.46-1.79.23-.54.64-1.37.92-1.84.76-1.33.62-1.63-.93-1.95-1.19-.25-2.31-.03-4.08.83-2.46 1.18-2.88 1.01-1.44-.58 3.47-3.83 3.7-9.07.6-13.2-.69-.91-2.28-2.49-2.77-2.74l-.29-.16v.31c0 .41-.36 1.09-1.1 2.09-.34.46-.6.84-.58.85.02.02.26.13.53.26.96.45 2.45 2.26 2.45 2.98 0 .06.12.12.28.12 2.09 0 .68 3.57-2.42 6.06-3.25 2.62-9.46 4.32-9.46 2.59 0-.29.08-.32 1.38-.4 3.95-.26 7.81-2.41 9.16-5.12.71-1.42.66-1.45-.49-.35-1.23 1.19-2.36 2.02-2.76 2.02-.37 0-1.3-.72-2.22-1.7l-.73-.79-.52.19c-.32.12-.77.2-1.16.2h-.64l.21.53c.9 2.3-.57 4.8-2.83 4.81-2.49.01-4.18-2.69-3.22-5.13.26-.66.25-.67-.42-.75-.77-.1-1.27-.47-1.49-1.1-.05-.14-.65.22-.78.46-.18.33-.04 3.21.2 4.28.75 3.29 2.25 5.03 5.75 6.62l1.31.6 4.1.03c2.88.02 4.58.07 5.7.19 2.14.21 2.02.22 2.1-.16.15-.73 1.06-1.8 1.95-2.32.31-.18.3-.15-.2.45-1.91 2.29-.23 4.79 2.43 3.61ZM7.95 35.51c.33-.07.7-.14.81-.16.12-.03.24-.13.27-.22.02-.1.08-.27.13-.37.07-.18.03-.19-.77-.12-.92.07-.94.09-1.34.8l-.28.48.29-.15c.16-.08.56-.2.89-.26Zm5.24.3c.21-.06.15-.12-.63-.7-.47-.35-.86-.66-.86-.68 0-.05 1.08.65 1.58 1.02.37.29.48.32.85.28 1.22-.15 1.28-.06-.85-1.36-1.05-.64-1.87-1.17-1.8-1.17.2 0 3.25 1.77 3.81 2.22.24.18.87.19 1.7.02.26-.06.29-.04-3.48-2.11l-1.75-.96-.15.24c-.08.13-.39.47-.68.75s-.53.59-.53.69-.05.34-.12.52c-.17.47.07.68 1.23 1.02.97.3 1.28.34 1.68.22Zm7.14-.6.98-.06-1.18-.52c-.65-.28-1.99-.83-2.98-1.21s-2.54-.99-3.45-1.36c-1.72-.69-1.74-.69-1.84-.21-.06.3-.05.3 1.56 1.18.9.48 2.21 1.21 2.93 1.62l1.3.75.85-.06c.47-.04 1.29-.1 1.83-.13Zm-11.55-.96c.77-.09.8-.25.08-.49-.65-.22-.76-.19-1.05.29l-.21.37.27-.06c.16-.03.56-.08.91-.11Zm9.17-.92c-.34-.19-.93-.43-3.78-1.59-2.24-.9-2.2-.89-2.15-.73.02.06 1.36.64 2.98 1.29 2.72 1.09 3.7 1.44 2.95 1.03Zm3.3-.79c-1.83-1.37-3.07-2.58-3.62-3.51-.35-.6-.24-.53.21.11.46.67 1.65 1.82 3.06 2.96 1.32 1.07 1.46 1.19 1.4 1.19-.03 0-.5-.33-1.05-.75Zm-12.87-.01c.2.03.58.13.85.23 1.64.64 2.42-2.5.99-3.98-1.27-1.33-3.54 1.63-2.98 3.88l.07.25.35-.21c.25-.16.45-.21.72-.17Zm8.39-.55c-1.33-1.64-2.03-3.86-2.14-6.76-.07-1.82-.26-2.23-.31-.66-.11 3.3 1.48 7.82 2.76 7.84.02 0-.12-.19-.31-.42Zm7.14.17c2.19-.71 6.88-1.37 8.36-1.19.65.08.62.09-.82.15-1.19.05-1.98.16-3.8.52-1.26.25-2.55.48-2.85.51-.3.04-.73.09-.95.11l-.4.05zm20.74-1.85c.25-.48.71-5.33.82-8.58l.06-1.93.47-.34c1.68-1.23 2.44-3.07 1.95-4.71-.22-.74-.53-1.08-.87-.95-.38.14-.4.04-.17-.7 1.1-3.43-.71-7.18-3.66-7.6-.82-.11-.8-.13-.56.43.45 1 .47 2.29.05 3.09-.28.56-.44.55-2.14-.07-2.17-.79-6.9-2.14-7.5-2.14-.05 0 .07.35.26.77.47 1.09.46 1.28-.21 2.04-.3.35-.53.64-.52.65s.58.13 1.27.28c2.66.55 6.6 1.81 8.68 2.77l.82.38v.94c0 2.95-.61 9.54-1.31 14.05l-.31 2.02.45.41c.33.28.48.51.53.76l.07.35.84-.84c.46-.45.9-.94.98-1.08Zm-28.83 1.32c-1.06-1.49-1.78-3.94-1.89-6.44-.06-1.31-.07-1.38-.27-1.38a1.4 1.4 0 0 1-.45-.14c-.21-.12-.34-.11-.89.05-.77.22-.75.2-.66.53.07.3.08.3.94.11.94-.21.9-.23.9.43 0 1.01-.53 2.81-1.25 4.22-.27.54-.32.97-.13 1.22.1.12 3.62 1.65 3.86 1.68.02 0-.05-.12-.16-.28Zm9.09-.86c4.02-1.05 7.34-3.5 8.8-6.5.5-1.03.53-1.58.09-1.81-.47-.24-.67-.2-.62.13.08.6-.59 2.37-1.34 3.49-1.66 2.5-5.21 4.3-8.86 4.5-.65.03-1.18.09-1.18.13 0 .39 1.7.42 3.11.06Zm16.57-1.7c.68-4.13 1.4-11.88 1.3-14l-.03-.69-1.38-.58c-3.3-1.4-9.03-3.12-9.15-2.74-.02.05.7.29 1.6.52 2.99.79 5.82 1.76 7.91 2.71l.77.35v.47c0 2.82-1.06 13.73-1.46 15.13-.03.1 0 .17.09.17.1 0 .19-.37.35-1.34Zm-3.35 1.03c.68-.11 1.64-.08 2.33.06l.31.07.17-1.09c.56-3.73 1.25-11.29 1.26-13.81v-.53l-.72-.33c-2.47-1.12-9.11-3.24-9.47-3.01-.16.09-.22.6-.12.87.14.37-.02.88-.39 1.23l-.3.28.73.4c5.64 3.05 8.05 9.48 5.62 15-.2.45-.39.88-.42.96-.05.11-.02.13.11.08.1-.04.5-.12.89-.18Zm-8.37-.57c1.66-.99 3.01-2.22 3.99-3.64.42-.61.55-.75.5-.53-.29 1.28-2.35 3.25-4.52 4.34-.9.45-.88.38.03-.17Zm-7.94.08c1.54-.57 2.27-2.52 1.62-4.3-.37-1.01-.53-.8-.47.59.09 1.84-.35 2.81-1.42 3.1-2.17.6-3.87-1.85-2.87-4.12.23-.51.21-.57-.19-.57-.32 0-.5.38-.69 1.41-.48 2.64 1.71 4.76 4.02 3.89Zm-9.72-.98c.08-.2.17-.41.19-.45.03-.08-.86.01-1.02.1-.08.05.51.73.63.73.03 0 .12-.17.2-.38Zm9.6-.01c.44-.23.89-.85.97-1.35.06-.36.05-.38-.15-.27-.91.49-1.66-.66-.96-1.48.21-.26.33-.31.69-.31.4 0 .42-.01.37-.25-.05-.3-.06-.3-1.92-.44-1.66-.12-1.59-.15-1.85.73-.67 2.24 1.09 4.31 2.85 3.37Zm-9.19-.98c.23-.24.22-.66-.02-.6-.13.03-.45.09-.71.12-.56.08-.75.21-.83.56l-.07.26.78-.13c.43-.08.81-.17.85-.21Zm35.08-.99.22-.16-.26-.2c-.14-.1-.25-.26-.25-.34 0-.1-.15-.02-.43.22l-.44.38.29.24c.15.13.28.31.28.4 0 .12.06.08.19-.11.1-.15.28-.35.4-.43Zm-35.46.12c.79-.15.76-.13.88-.67.12-.53.14-.52-.64-.38-.84.16-.84.16-1.01.72-.16.54-.2.52.77.33Zm-1.82-.74c.26-.59.25-.61-.22-.48-.4.1-.41.12-.35.46.03.19.06.46.06.6.01.32.22.08.51-.58Zm12.19.58c.22-.22.27-.79.08-.98-.36-.36-.98.01-.98.58 0 .6.48.82.9.4Zm7.14-.62c.65-.49 2.7-2.31 3.09-2.75.23-.27.1-1.3-.27-2.03-.75-1.5-2.31-2.56-2.85-1.93l-.24.28.31.06c.76.16 2.22 1.72 2.38 2.56.07.37-.59 1.14-2.25 2.59-1.11.98-1.18.97-2.52-.34-.67-.64-1.09-.75-1.09-.27 0 .36 2.15 2.34 2.55 2.35.11 0 .51-.24.89-.52Zm-16.99-.61c.65-.16.88-.86.23-.73-.18.04-.52.09-.76.13-.23.03-.42.11-.42.17s-.03.21-.06.34c-.07.26.16.28 1.01.09Zm-2.44-.19c.49-.16.72-.68.32-.68-.55 0-.93.21-.93.5 0 .33.09.36.61.18Zm19.26-.47c.32-.27.98-.89 1.46-1.39.98-1 .98-1.01.51-1.74-.3-.47-.29-.48-.86.09-.61.6-.63.48-.02-.17.54-.57.49-.75-.34-1.3-.64-.42-1.02-.41-1.38.08-.15.2-.62.79-1.03 1.31-.53.66-.75 1.02-.73 1.17.02.13-.03.35-.11.51-.17.32.16.77 1.12 1.55.59.48.68.48 1.38-.11Zm-22.19-.22c.57-.11.66-.16.92-.54l.3-.43-.63.14c-1.53.35-1.67.42-1.67.75 0 .27.03.3.23.26.12-.03.5-.11.85-.18Zm15.86-.31c.03-.13 0-.28-.07-.34-.11-.11-4.23-.67-5.82-.8-.38-.03-.8-.07-.93-.1-.31-.06-.29.21.06.55.34.35.87.45 3.42.66 1.02.08 2.01.16 2.2.18.94.1 1.07.08 1.14-.15Zm2.47-.13c.61-.3 1.05-.68 1.12-.96s-.01-.24-.54.26c-.71.66-1.17.71-1.78.19-.55-.46-.87.11-.35.63.32.32.75.28 1.55-.12Zm-21.07-.52c.14-.08.11-.14-.2-.43-.31-.31-.37-.33-.47-.2-.07.09-.22.23-.35.32l-.23.16.3.21c.16.12.33.31.36.42.07.2.08.19.25-.09.1-.17.26-.34.34-.39Zm2.47.02c.3-.08.8-.23 1.11-.32l.58-.16v-.99l-.32.07c-1.24.23-1.26.24-1.61.78-.58.9-.6.85.24.62Zm16.79-.4c.1-.11.21-.39.25-.61q.105-.675.78-.93c.29-.11.36-.38.15-.59-.23-.23-.51-.11-1.18.51-.77.71-1.52 1.18-2.31 1.47-.3.1-.52.2-.49.2s.54.07 1.13.14c.6.08 1.14.19 1.2.25.08.08.14.06.2-.06.06-.1.18-.27.27-.38Zm-11.12.09c.02-.01-.03-.11-.1-.23-.15-.24-.32-.26-1.12-.1l-.57.12.26.27.26.27.62-.15c.34-.08.63-.16.65-.18Zm13.1.08c.73-.48 4.06-4.63 5.31-6.59.68-1.08.35-1.65-.39-.66-.93 1.24-3.97 5-4.53 5.6-.62.66-.76.73-.97.48-.39-.48-.98.07-.8.74.19.73.7.89 1.38.43Zm-4.44-.57c.81-.28 1.45-.7 2.39-1.54.99-.88 1.79-.73 1.63.31-.12.75.23.46 1.76-1.42 1.33-1.64 2.8-3.49 3.28-4.14.25-.32.58-.65.75-.72l.3-.13-.88-.41c-1.59-.75-4.55-1.32-4.28-.82.7 1.31-1.07 5.12-3.36 7.21-1.76 1.62-3.61 1.71-4.35.22l-.25-.5-.39.4c-.22.22-.7.64-1.07.92-.58.44-.64.52-.45.55 2.93.38 4 .4 4.92.07Zm14.13-.22c-.13-.89-.87-2.21-1.8-3.2-.57-.61-.69-.78-.4-.55 1.14.89 2.45 3.17 2.31 4.04-.02.13-.07 0-.11-.29Zm-21.33-.68c.81-2.56 2.27-4.63 4.42-6.27.84-.63.94-.74.78-.83-.53-.3-.74-.62-.74-1.17 0-.54-.5-1.51-.84-1.64-.35-.13-5.22 1.4-7.26 2.28l-1.25.54.01 1.19c0 .66.06 1.9.14 2.76l.13 1.56.59.07c1.07.11 2.27.94 3.09 2.12.44.64.56.56.93-.61Zm25.99.16c-.22-.47-.69-1.29-1.04-1.81-1.28-1.95-1.69-2.61-1.59-2.55.25.16 2.48 3.67 2.78 4.39.44 1.05.37 1.04-.15-.03Zm-28.7.57c.65-.12.7-.23.24-.59-.78-.62-1.11-.61-1.57.03-.56.76-.3.87 1.33.56Zm-4.57-1.15c.29-.29.78-.63 1.13-.8.52-.24.61-.31.56-.49-.07-.3-.32-3.24-.41-4.71l-.06-1.22.33-.2c.85-.52 3.84-1.7 6.71-2.66l1.57-.52-.39-.37c-.22-.21-.4-.47-.4-.58 0-.29.48-1.67.76-2.17.13-.24.24-.45.24-.47 0-.16-3.4.89-5.22 1.62-2.42.95-2.95.95-3.44-.02-.28-.57-.26-1.99.04-2.74.29-.72.3-.69-.3-.58-2.76.5-4.5 4.45-3.46 7.86.26.84.16 1.13-.22.67-.45-.54-.98 1.43-.79 2.9.17 1.33.98 2.72 1.79 3.05l.3.12v1.07c0 1.53.05 1.65.44 1.15.16-.21.53-.62.82-.91Zm8.88.38c1.6-1.07 2.54-2.21 3-3.66.39-1.22.93-1.67 1.41-1.18.22.21.16.57-.25 1.59-.75 1.85-.29 2.87 1.03 2.3 1.01-.43 3.02-2.96 3.73-4.69.54-1.34.41-1.76-.6-1.85-2.95-.24-7.62 3.53-8.87 7.17-.3.86-.29.87.55.32Zm22.11-2.18c-.37-.71-.82-1.52-.98-1.82-.52-.93-.1-.45.49.55.59 1.01 1.28 2.43 1.21 2.5-.02.02-.34-.53-.72-1.23Zm-28.6.35c-.07-.42-.35-4.29-.35-4.85 0-.41.02-.44.5-.68 1.38-.7 4.21-1.71 6.7-2.4 1.53-.42 1.58-.45 1.38-.56-.36-.2-4.77 1.22-7.72 2.48l-1.09.47.07 1.65c.06 1.61.23 3.83.31 4.09.09.27.26.11.2-.2Zm4.44-.86c.81-1.1 2.05-2.5 2.7-3.06.27-.23.23-.17-.14.24-.28.3-1.13 1.3-1.89 2.23-.76.92-1.4 1.67-1.42 1.67s.32-.48.75-1.08Zm27.43.41c-.65-1.77-2.28-3.6-4.19-4.69-.9-.51-.9-.58 0-.13 2.18 1.1 3.58 2.63 4.27 4.68.27.8.2.91-.08.14Zm-30.62-.4c0-.26 1.57-2.55 2.37-3.46.66-.74.3-.15-.98 1.65-1.5 2.09-1.39 1.94-1.39 1.81Zm9.95-4.98c.3-.3.32-.64.04-.99-.34-.43-.88-.31-1.08.26-.13.37-.35.21-.25-.18.11-.43-.86-1.8-1.9-2.69-.71-.6-.77-.78-.37-1.19.17-.17.42-.6.57-.95.69-1.71 2.18-3.06 3.03-2.76.2.07.7.18 1.11.24.41.07.84.15.95.18.15.04.17.02.09-.06-.06-.06-.39-.16-.75-.22-.35-.06-.87-.24-1.15-.4-.67-.38-.8-.37-1.53.12-1.19.79-2.27 2.28-2.82 3.87l-.2.57.92.85c1.19 1.09 1.93 2.18 1.85 2.71-.12.77.92 1.22 1.49.64Zm1.78-.55c.51-.16 1.11-.35 1.35-.4.49-.13.54-.27.13-.41-.79-.28-.86-1.6-.1-1.76.25-.05.29-.1.29-.38 0-.91 1.49-1 1.66-.09.05.27.11.34.3.34.86 0 1.06 1.43.23 1.72-.53.18-.3.25 1.03.31.73.03 1.62.13 1.98.21.36.09.75.18.88.21l.24.06-.26-.34c-.39-.51-.34-.75.3-1.43.4-.43.54-.53.51-.36-.09.39.17.24.36-.21.09-.23.44-.83.77-1.32.95-1.41.45-2.68-1.54-3.94-1.19-.74-1.67-.93-.71-.26.71.49 1.33 1.17 1.9 2.11.42.7.61 1.24.34.97-.14-.14-1.02.83-.92 1.01.03.06.03.08-.02.04-.04-.04-.32.15-.62.42-.86.79-1.32.8-1.73.05-.3-.54-.24-.54-.69-.06-.61.66-.7.65-1.66-.32l-.85-.84v-.59c0-.77.16-1.74.4-2.43.38-1.08.27-1.21-1.08-1.21-1.12 0-1.83.2-2.03.57-.11.21-.11.27-.01.31.31.1.46.67.5 1.89l.04 1.21-.63.89c-.35.48-.65.9-.67.93s-.23-.17-.47-.45c-.24-.27-.45-.48-.47-.45-.07.09-.28.61-.28.68 0 .03.07-.04.16-.16l.16-.23.44.41c.55.51.58.5 1.17-.35.26-.38.56-.78.67-.9.35-.38.17-2.42-.3-3.34-.24-.48-.2-.63.1-.36.45.41.97 3.34.67 3.76-1.57 2.24-1.57 2.23-2.22 1.73l-.47-.36-.3.36c-.47.58-.75.47-2.19-.84-.91-.82-.93-.89-.49-1.76.52-1.04 1.82-2.26 2.29-2.16.07.02.1-.01.06-.07-.35-.58-1.99.91-2.6 2.36-.2.49-.48 1-.62 1.15l-.26.27 1.04 1.08c.57.6 1.12 1.24 1.22 1.43.18.33.22.35.69.35.63 0 1.08.42 1.08 1.01 0 .28.03.35.15.3zm9.15-.43c.23-.22.29-.65.13-.96-.19-.34.88-2.37 1.53-2.9.88-.73-.62-3.29-2.49-4.27-.74-.39-2-.73-2.19-.59-.07.06-.41.31-.76.58-.38.29-.77.5-1.01.53-.21.04-.4.12-.43.19-.08.23.93-.12 1.53-.53.91-.62.92-.62 1.52-.41 1.36.48 2.81 1.74 3.39 2.94.18.38.38.73.43.77.06.03-.11.35-.41.75-.64.87-1.32 2.02-1.32 2.25 0 .2-.29.38-.63.38-.13 0-.31.08-.4.18-.16.18-.15.18.13.14.3-.04.44.18.2.33-.08.05-.07.11.01.21.15.19.04.18-.26-.02s-.32-.09-.05.31c.32.48.63.52 1.08.12Zm-6.19-.23c.38-.08.39-.17.06-.56-.14-.16-.25-.39-.25-.51.01-.2.03-.19.28.11.28.34.67.43.9.2.17-.17.15-.73-.03-.88-.14-.12-.23-.11-.92.07-.2.05-.23.01-.23-.25 0-.63-.44-.66-.55-.03l-.06.39-.35-.11c-.37-.11-.6.01-.64.33-.11.79.81 1.07.97.3.03-.16.09-.27.14-.24.14.08.11.48-.06.7-.36.47-.09.64.74.48Zm-4.63-2.36c.19-.23.19-.23-.01-.07-.28.23-.4.17-1.32-.74-.96-.95-.96-.93-.41-1.77.89-1.35 2-1.87 3.29-1.54.54.14.76.16.67.08-.28-.28-1.5-.38-2.14-.18-1.72.54-2.89 2.32-2.08 3.16 1 1.05 1.7 1.41 2 1.06Zm.08-1.08c.23-.39.49-.37.86.09l.32.41.54-.7.54-.7V7.03l-.6-.16c-1.4-.39-2.49.07-3.26 1.39-.32.54-.34.47.51 1.37l.7.74.13-.31c.07-.17.19-.42.26-.56Zm9.71.1c1.11-1.09 1.15-1.17.84-1.82-.44-.95-2.69-2.92-2.99-2.62-.05.05.19.24.58.44 1.09.57 2.52 2.14 2.4 2.65-.05.21-1.58 1.95-1.71 1.95-.07 0-.3-.29-.52-.63-.49-.76-.61-.77-1.14-.1-.53.68-.56.67-1.36-.22-.37-.42-.7-.73-.73-.7-.07.06 1.48 1.65 1.61 1.65.08 0 .42-.36.85-.9l.2-.24.37.59c.61.96.56.96 1.6-.05Zm-.14-.61.62-.7-.2-.42c-.54-1.09-1.52-1.77-2.56-1.77-.68 0-2.11.68-2.21 1.05-.18.65-.08.91.66 1.7l.71.76.52-.55c.66-.72.93-.66 1.52.35.23.39.22.39.94-.42Zm-19.43-.38c1.95-.82 5.52-1.91 6.23-1.91.12 0 .32-.09.46-.2 1.03-.81-6.74 1.62-7.83 2.45-.32.24-.09.17 1.14-.34Zm14.33-.43c-.01-1.01.15-2.28.35-2.77.21-.5.25-.34.08.27-.09.29-.21 1.16-.28 1.95-.13 1.39-.13 1.4-.15.55Zm16.98.68c-.36-.35-4.79-1.81-7.09-2.34-2.47-.57-2.58-.59-2.42-.39.07.08.36.18.65.22 1.55.21 6.02 1.5 7.92 2.29.52.22 1.07.35.94.22Zm-29.51-2.1c.06-.03-.03-.19-.2-.36l-.3-.3-.19.24c-.11.14-.29.28-.41.32-.2.06-.19.07.1.19.17.08.36.23.42.35.12.22.12.22.3-.08.1-.16.23-.33.28-.36Zm27.34-.96c-.34-1.28-.91-1.9-1.75-1.9-.6-.01-.55-.2.12-.42.08-.02.21-.2.28-.39l.13-.34-.06.32c-.16.92.98-.05 1.2-1.02.29-1.25.35-1.27.61-.25.3 1.17.5 1.39 1.48 1.6.32.08.61.18.64.23s.12-.01.2-.14l.14-.24-.07.25c-.09.34-.46 1.11-.38.8.04-.14.09-.31.12-.39.07-.18-.69-.06-1.18.18-.52.27-.68.61-1.04 2.24-.1.45-.22.31-.44-.53Zm-5.47-.18c-.16-.75-.28-1.03-.56-1.26-.17-.14-.35-.26-.4-.26-.21 0-.07-.19.21-.28.33-.12.65-.57.81-1.16.12-.45.21-.39.39.27.13.48.43.87.9 1.2.28.19.21.29-.31.46-.32.1-.4.2-.63.71-.29.68-.33.71-.41.32Zm-17.92-.45c.08-.18.3-.47.5-.64.33-.28.34-.32.17-.38-.29-.09-.68-.62-.76-1.02l-.07-.36-.19.39c-.28.59-.67.94-1.12 1.01l-.39.06.42.16c.4.15 1.21.84 1.21 1.02s.1.08.23-.24Zm5.7.13c.04-.16-.01-.22-.21-.26-.95-.23-1.88-1.16-2.13-2.15-.14-.56-.21-.6-.37-.24-.24.53.03 1.65.4 1.65.05 0 .3.17.54.39.38.33 1.28.78 1.6.8.07.01.14-.08.17-.19Zm18.15-.34c.14-.52.54-1.04.97-1.22.26-.11.27-.13.08-.14-.36 0-.9-.55-1.09-1.12l-.16-.5-.18.51c-.19.57-.41.86-.84 1.08l-.28.15.3.18c.35.22.77.81.87 1.22.1.39.19.35.33-.16Zm-20.47-.39c-.07-.07-.16-.06-.29.06-.17.16-.21.16-.32.02-.1-.12-.09-.16.04-.21.19-.07.21-.28.03-.42-.37-.31-.74.48-.47.98.1.18.12.18.61-.06.36-.19.48-.29.4-.37Zm7.3.35c.91-.69 1.06-.87 1.01-1.2-.04-.32.19-.82.38-.82.13 0 .13.33-.01.47-.21.21.01.62.4.72.84.22.88.23.94.08.15-.4-.32-1.1-.53-.77-.05.09-.05.19.02.27.08.1.05.13-.15.13-.25 0-.25-.01-.2-.59.07-.73 0-1.01-.33-1.4-.4-.48-.56-.41-.48.19.1.78-.52 1.83-1.54 2.6-.24.18-.32.3-.27.43.1.24.34.21.76-.11Zm8.06-.62c.11 0 .06-.1-.15-.34-.17-.19-.33-.44-.37-.56-.07-.21-.07-.21-.24.06-.1.16-.25.35-.34.43-.16.12-.14.16.13.48.17.18.3.39.3.46s.12-.03.26-.21c.14-.17.32-.32.41-.32Zm-10.59-.05c.7-.03.98-.07 1.12-.2.61-.56.41-1.62-.23-1.2-.13.08-.48.14-.87.14-.36 0-1 .05-1.43.1-.43.06-.83.1-.9.08-.27-.05-.18.51.14.88.32.36.35.37.78.3.26-.04.88-.09 1.39-.1Zm-1.33-1.67c-.03-.13-.1-.38-.15-.57-.09-.36-.24-.51-.53-.51-.56 0-.75.54-.36 1.04.29.37 1.16.4 1.04.04Zm1.11-.33c.16-.46 0-.68-.45-.63-.33.04-.45.28-.37.72.11.56.61.5.82-.09Z"/></svg>