<svg xmlns="http://www.w3.org/2000/svg" width="51" height="51" viewBox="0 0 51 51"><path fill="#fff" fill-rule="evenodd" stroke="#fff" stroke-width=".423" d="M5.35 51.01C2.55 50-.02 47.15.01 45.08v-.53l.18.6c.8 2.73 2.76 4.77 5.41 5.66.52.17.97.33.99.35.13.12-.81.01-1.24-.15Zm39.15.15c0-.02.39-.16.88-.31 2.88-.9 4.88-2.99 5.58-5.85l.19-.75.03.47c.12 1.82-1.97 4.67-4.28 5.83-.97.49-2.4.85-2.4.61Zm-23.92-2.61c-7.92-1.29-12.4-9.95-8.83-17.06 2.09-4.18 6.15-6.69 10.8-6.69h1.34l.03-3.64c.03-3.5.04-3.66.24-3.93.52-.71 1.49-.77 1.96-.1l.23.32.03 9.7c.03 10.38.03 10.3-.49 11.33-1.79 3.6-7.24 2.3-7.24-1.73 0-2.34 1.8-3.95 4.43-3.95h.82V31h-.82c-.46 0-1.28.07-1.83.15-1.38.21-1.85-.02-1.85-.9s1.25-1.34 3.63-1.35h.87v-1.83l-1.47.06c-7.77.3-12.15 8.43-8 14.84 4.11 6.37 13.54 5.69 16.77-1.21.89-1.89.83-1.04.9-12.86.05-11.29.03-10.75.6-11.05.5-.26.97-.2 1.36.19l.34.34v7.42h2.65c2.92 0 3.11.03 3.4.6.19.37.19.73 0 1.1-.29.57-.48.6-3.4.6H34.4v5.7h2.55c2.7 0 2.99.04 3.38.48.27.3.33.92.12 1.31-.29.57-.54.61-3.45.61h-2.6v1.5c0 7.44-6.53 13.04-13.82 11.85Zm4.86-.48c5.4-1.43 9.11-6.59 8.69-12.11-.09-1.13-.28-1.06 2.94-1.06h2.74l.24-.25c.38-.37.35-.95-.06-1.29l-.31-.26h-5.45l-.06-1.57c-.1-2.26-.08-4.36.03-4.53.08-.13.49-.15 2.52-.17 1.34-.01 2.58-.02 2.76-.02.64-.02 1.03-.74.71-1.33-.23-.43-.63-.49-3.34-.48-1.4.01-2.59-.02-2.65-.05-.06-.04-.1-1.39-.1-3.77 0-3.68 0-3.72-.22-3.95-.45-.48-1.47-.15-1.49.49 0 .13 0 4.48.01 9.68.01 10.22-.02 10.86-.5 12.32-3.23 9.68-16.8 9-19.1-.95-1.13-4.89 2.09-10.18 7.04-11.57.9-.25 2.97-.44 3.78-.35l.58.07v2.28h-1.19c-2.5 0-3.65.46-3.32 1.33.16.42.48.52 1.33.39 1.03-.16 2.62-.26 2.92-.18l.26.06v2.3h-1.04c-.76 0-1.21.05-1.67.2-3.97 1.25-3.18 6.94.96 6.95 1.58 0 2.58-.62 3.27-2.03l.33-.67.03-10.01c.02-9.98.02-10.01-.18-10.27-.38-.48-1.31-.42-1.56.1-.05.1-.11 1.87-.14 3.93l-.05 3.75-1-.03c-3.42-.11-6.38 1.04-8.83 3.42-6.3 6.12-3.82 16.66 4.56 19.41 1.92.63 4.65.72 6.56.22Zm-4.51-3.77c-1.28-.34-1.73-.69-1.73-1.37 0-.92.57-1.15 1.91-.79 1.48.41 2.41.34 3.88-.28.98-.42 1.66-.11 1.66.74 0 1.4-3.23 2.35-5.72 1.7Zm3.4-.26c1.71-.42 2.49-1.23 1.85-1.91-.28-.29-.52-.29-1.21.02-1.29.59-2.37.66-3.99.23-.97-.25-1.29-.19-1.5.26-.52 1.16 2.4 2 4.85 1.4Zm-8.67-3.96c-1.62-1.65-1-7.03.81-7.03.9 0 1.14.69.67 1.92-.43 1.14-.45 2.21-.04 3.43.22.67.31 1.06.26 1.25-.2.78-1.12 1.02-1.7.43Zm1.27-.2c.24-.28.21-.64-.1-1.39-.42-1.01-.4-2.31.07-3.61l.35-.97-.21-.28c-.92-1.23-2.13.81-2.02 3.42.1 2.32 1.09 3.8 1.91 2.83Zm4.67-1.6c-1-.68-1.17-1.83-.4-2.7.49-.56.94-.7 2.1-.66l.85.03.03 1.05c.03 1.26-.12 1.77-.65 2.17-.51.39-1.44.44-1.93.11Zm1.68-.24c.49-.32.62-.71.62-1.81V35.2h-.86c-1.34 0-1.92.4-2.02 1.4-.12 1.24 1.24 2.1 2.26 1.44Zm5.47-.26c-.54-.29-.55-.31-.55-3.4V31.5l.29-.32c.41-.47 1.01-.47 1.42 0l.29.32v2.88c0 2.57-.02 2.89-.18 3.08-.33.42-.86.55-1.27.32Zm.95-.38c.32-.32.31-5.72-.02-6.07a.65.65 0 0 0-.95-.03c-.45.41-.48 5.75-.04 6.11.3.25.76.24 1.01-.01Zm5.69-6.55c-.57-.31-.61-1.14-.07-1.6.33-.28 3.26-.39 3.82-.14.61.28.69 1.18.14 1.64-.36.31-3.37.38-3.89.1Zm3.67-.23c.36-.24.43-.79.14-1.1-.32-.34-3.41-.34-3.77 0-.29.27-.3.71-.03.98.21.21 3.37.31 3.66.12Zm-10.22-3.31c-.62-.26-.64-.38-.64-3.4 0-3.03 0-3.05.61-3.37.4-.2.82-.1 1.14.28l.25.3v5.58l-.27.3c-.3.32-.75.45-1.09.31Zm.86-.41c.32-.32.31-5.62-.02-5.97-.28-.3-.6-.29-.95.01l-.28.24v5.4l.24.26c.3.32.73.34 1.01.06ZM.02 21.88c.03-.07 1.57-.59 3.44-1.16 3.41-1.04 5.77-1.76 17.04-5.24 3.38-1.04 7.25-2.23 8.6-2.65 1.35-.41 3.69-1.13 5.2-1.6s3.92-1.21 5.35-1.65c1.43-.43 4.42-1.35 6.65-2.03s4.17-1.27 4.32-1.31c.33-.07.34-.14.09-.85-.88-2.58-2.81-4.4-5.46-5.16l-.8-.23.7.03c2.16.08 4.89 2.53 5.8 5.19.37 1.1.38 1.08-1.01 1.5-2.58.78-12.25 3.74-14.94 4.58-1.57.48-4.76 1.47-7.1 2.19-5.38 1.65-11.97 3.68-14.95 4.61C8.77 19.4.2 22 .09 22c-.06 0-.09-.06-.07-.12Zm6.5-4.57c-1.05-.36-1.65-1.24-1.65-2.41 0-1.6 1.23-2.72 3.33-3.02 1.3-.19 1.83.06 1.64.77l-.09.37-1.05.02c-1.62.02-2.4.54-2.48 1.65-.1 1.35 1.12 2.06 2.65 1.55.81-.27 1.14-.58 1.01-.94-.14-.41-.15-.41-.93-.23-.68.15-.69.15-.87-.07-.43-.53-.28-.66 1.24-1.05 1.32-.34 1.32-.35 1.62.67.37 1.27.37 1.26.1 1.57-.83.99-3.2 1.58-4.52 1.12Zm2.33-.25c.62-.16 1.42-.56 1.84-.92.36-.3.36-.25 0-1.48l-.21-.68-.32.05c-.84.14-1.96.5-1.96.63 0 .23.22.26.89.1.85-.2 1.11-.01 1.11.8 0 .75-2.17 1.4-3.15.95-2.27-1.03-1.09-3.76 1.63-3.76h.93l-.03-.3c-.03-.29-.05-.3-.58-.33-2.09-.12-3.9 1.17-3.9 2.77 0 1.74 1.7 2.72 3.75 2.17Zm3.09-.91c-.1-.24.73-5.47.89-5.62.07-.08.29-.16.48-.19.33-.05.39-.01 2.37 1.99 1.11 1.12 2.02 2.09 2.02 2.15s-.28.2-.63.31l-.62.19-.27-.26-.28-.25-.82.22c-1.94.52-1.86.48-1.98.92-.11.4-.21.48-.83.63-.2.05-.29.02-.33-.09Zm.89-.66c.12-.49.18-.53 1.69-.94l1.37-.37.3.25c.28.23 1.11.21 1.11-.03 0-.03-.85-.9-1.9-1.95-1.82-1.82-1.9-1.89-2.17-1.79l-.28.09-.37 2.4c-.46 2.98-.45 2.85-.11 2.76.2-.05.29-.16.36-.42Zm.28-1.41c.01-.75.34-2.33.48-2.33.15 0 1.81 1.78 1.81 1.94 0 .11-1.81.71-2.12.71-.14 0-.18-.08-.17-.32Zm5.2.18c-.13-.17-1.51-4.46-1.51-4.72 0-.46 3.48-1.48 4.46-1.3 1.14.22 1.49 1.69.61 2.56l-.34.32.8.72c.99.88 1 .91.42 1.16-.65.28-.62.28-1.59-.51-.94-.77-1.1-.81-1.88-.5-.33.13-.34.26-.08 1.09.11.35.2.72.2.81 0 .22-.94.55-1.09.37Zm-4.1-.38c.44-.11.79-.24.79-.27 0-.16-1.31-1.51-1.34-1.39-.09.26-.33 1.88-.28 1.88.02 0 .4-.1.83-.22Zm4.87-.03c.03-.02-.05-.4-.18-.83-.3-1.06-.27-1.12.45-1.34.88-.26.93-.24 1.88.52.94.76.93.76 1.33.58l.27-.12-.84-.78-.84-.78.37-.32c.68-.62.79-1.34.29-1.9-.51-.57-2.45-.35-4.43.51l-.36.16.71 2.23.72 2.23.29-.05c.16-.04.32-.08.34-.11Zm5.14-2.06C23.8 10.48 23 7.74 23 7.58c0-.17.75-.48 1.17-.48.17 0 .57.31 1.34 1.07.6.58 1.12 1.03 1.17.99.04-.04.25-.77.47-1.64l.4-1.56.59-.18c.33-.1.63-.15.67-.11.11.12 1.5 4.47 1.52 4.78.02.24-.03.29-.43.41-.64.2-.64.2-1.16-1.43l-.46-1.48-.33 1.4c-.49 2.07-.5 2.1-.67 2.1-.09 0-.7-.53-1.37-1.17-.66-.65-1.21-1.14-1.21-1.1s.15.57.34 1.17c.53 1.72.53 1.73.19 1.86-.75.28-.79.27-1.01-.42Zm.85.21c.18 0 .15-.19-.38-1.87-.61-1.95-.59-1.96 1.16-.28.71.69 1.32 1.25 1.35 1.25s.26-.82.5-1.82c.25-1 .5-1.83.57-1.85.07-.03.31.57.64 1.62.52 1.64.53 1.66.78 1.6.43-.11.43-.16-.1-1.81-.28-.87-.6-1.89-.71-2.26-.2-.64-.22-.67-.47-.61-.66.15-.66.16-.9 1.2-.34 1.5-.62 2.53-.7 2.53-.04 0-.64-.54-1.33-1.19l-1.26-1.19-.43.12c-.57.17-.58.06.11 2.37.74 2.5.67 2.32.86 2.25.09-.03.22-.06.31-.06Zm-6.61-.83c-.19-.31-.4-1.13-.33-1.31s1.47-.63 2.22-.72c.84-.1 1.25.39.9 1.06-.19.36-.45.5-1.55.85-.47.15-.91.28-.97.3-.07.03-.19-.06-.27-.18Zm2.09-.69c.54-.28.72-.72.4-.98-.19-.16-.9-.08-1.86.2-.78.24-.82.31-.5 1.12l.1.27.83-.26c.46-.14.92-.3 1.03-.35Zm11.31-.6c-.39-.88-1.47-4.61-1.36-4.72.06-.06.29-.16.52-.23.49-.14.63-.07.77.41.05.17.36 1.21.7 2.31.72 2.37.71 2.22.2 2.35-.22.06-.47.14-.54.17-.09.03-.2-.07-.29-.29Zm.92-.18c.04 0 .05.02-.68-2.4-.34-1.13-.65-2.08-.69-2.13-.11-.11-.73.13-.68.27.04.11 1.23 3.94 1.33 4.28.04.13.11.15.37.07.17-.05.33-.09.35-.09Zm1.89-.47c-.09-.15-1.3-4.28-1.35-4.6-.04-.29 0-.34.24-.44.73-.28.79-.26 2.78.81 1.03.56 1.89 1 1.91.98.01-.02-.17-.66-.4-1.43-.49-1.6-.5-1.48.12-1.69s.61-.24 1.21 1.79c.98 3.29.95 3.07.33 3.26l-.39.12-2.09-1.16c-1.14-.63-2.09-1.15-2.1-1.14-.01.02.18.72.43 1.57.48 1.7.49 1.74.07 1.83-.15.04-.38.09-.49.13-.12.03-.24.02-.27-.03Zm.75-.42c.03-.03-.14-.77-.39-1.64-.25-.86-.42-1.64-.39-1.72.07-.19.11-.17 2.68 1.26 1.75.98 1.91 1.05 2.22.93.22-.09.23-.06-.48-2.42-.73-2.45-.64-2.25-1.03-2.11l-.31.1.49 1.57c.27.86.49 1.61.49 1.65 0 .15-.36-.02-2.31-1.09-1.91-1.03-2.16-1.12-2.62-.95l-.24.1.62 2.11c.79 2.64.7 2.43.97 2.35.13-.04.26-.1.3-.14Zm5.3-1.47c-.28-.19-.3-.74-.04-.97.61-.55 1.4.35.82.93-.24.24-.48.25-.78.04Zm.56-.23c.2-.12.11-.55-.12-.59-.27-.06-.48.25-.35.49.1.2.26.24.47.1ZM.01 6.17C-.02 3.68 3.71-.02 6.23.01h.52l-.9.28C2.97 1.16 1.02 3.13.24 5.95l-.23.8z"/></svg>