<svg xmlns="http://www.w3.org/2000/svg" width="51" height="51" viewBox="0 0 51 51"><path fill="#fff" fill-rule="evenodd" stroke="#fff" stroke-width=".69" d="M5.37 45.73c-.14-.13-.08-40.31.06-40.4.18-.12 40.2-.04 40.32.08.07.07.1 6.94.1 20.22v20.12l-20.21.03c-11.11.01-20.24-.01-20.27-.05Zm17.48-7.25c3.86-3.87 9.14-9.21 11.74-11.88s6.05-6.16 7.67-7.76l2.95-2.9-.97-1.3a97 97 0 0 1-2.07-2.93l-1.11-1.63-2.55 2.58c-9.33 9.45-11.83 11.97-16.66 16.84-2.97 3-7.76 7.82-10.65 10.73L5.95 45.5h9.9zm22.75-7.69V16.08l-.57.5c-.63.55-8.41 8.36-11.98 12.02-1.21 1.24-5.48 5.55-9.49 9.58l-7.3 7.32H45.6zm-15.81-9.72C35.93 14.86 40.95 9.74 40.95 9.7c0-.05-1.16-.99-2.59-2.1l-2.58-2.01-.43.36c-.72.59-3.13 2.93-10.7 10.4-3.96 3.9-8.73 8.58-10.6 10.39s-4.54 4.42-5.93 5.79l-2.52 2.5v5.21l.01 5.21 6.51-6.55c3.58-3.6 11.53-11.63 17.67-17.83ZM8.75 31.49c1.32-1.3 4-3.9 5.95-5.79s6.68-6.52 10.5-10.29c3.82-3.78 7.64-7.53 8.49-8.34l1.55-1.47-5 .01-4.99.01-3.55 3.64C16.99 14.1 8.43 22.66 6.87 24.1l-1.25 1.15-.01 4.64-.01 4.65.38-.34c.2-.19 1.45-1.41 2.77-2.71Zm.66-10.26c1.9-1.86 4.96-4.91 6.79-6.78 1.84-1.87 4.51-4.58 5.95-6.03 1.43-1.44 2.61-2.66 2.63-2.71.06-.18-15.07-.3-17.96-.14l-1.22.06v9.59c0 9.1.01 9.58.18 9.49.09-.05 1.73-1.62 3.63-3.48Zm36.19-9.3c0-2.08-.03-4.35-.07-5.05l-.06-1.28h-4.61l-4.61.01.3.22c2.28 1.69 4.75 3.71 4.75 3.89 0 .35 3.95 5.98 4.2 5.98.07 0 .1-1.31.1-3.77Z"/></svg>