<svg xmlns="http://www.w3.org/2000/svg" width="51" height="51" viewBox="0 0 51 51"><path fill="#fff" fill-rule="evenodd" stroke="#fff" stroke-width=".783" d="M24.07 39.73c-.04-.03-.07-1.1-.07-2.37v-2.31l-1.01-.29c-3.5-1-6.25-3.54-7.33-6.77-.25-.74-.56-2.36-.56-2.91v-.28h2.76l.12.83c.57 3.97 3.62 6.6 7.67 6.6 4.03.01 7.17-2.8 7.7-6.89l.07-.52 1.06-.06c1.55-.1 1.68-.04 1.64.7-.19 4.14-3.54 8.1-7.87 9.31l-.95.27v1.41c0 .77-.03 1.84-.07 2.38l-.06.97h-1.52c-.83 0-1.55-.03-1.58-.07ZM27 37.16v-2.34l.68-.16c4.27-1.05 7.35-4.24 8.07-8.35.25-1.42.34-1.31-1-1.31H33.6v.31c0 .16-.07.62-.16 1.02-1.41 6.2-9.25 8.33-13.65 3.7-1.19-1.25-1.82-2.62-2.14-4.65l-.06-.38h-2.22l.07.68c.42 4.43 3.59 7.86 8.34 9.02l.42.11v.77c0 .42.03 1.48.07 2.35l.06 1.57H27zm-2.85-7.97c-1.28-.45-2.39-1.55-2.88-2.87-.32-.83-.34-10.81-.03-11.72 1.14-3.32 5.18-4.31 7.62-1.86 1.29 1.3 1.34 1.58 1.34 7.64 0 5.3-.02 5.49-.58 6.61-.94 1.88-3.48 2.9-5.47 2.2Zm2.24-.09c1.59-.3 2.95-1.56 3.37-3.14.25-.92.2-10.55-.06-11.38-1.25-4.07-7.4-3.77-8.29.4-.22 1.04-.15 10.38.09 11.14.65 2.1 2.75 3.39 4.89 2.98Zm-1.49-2.36c-.45-.2-.68-.41-.91-.86-.32-.63-.29-10.42.03-11 .57-1 1.96-1.23 2.82-.47.67.58.67.57.64 6.14l-.03 5-.32.47c-.54.78-1.43 1.07-2.23.72Zm1.5-.36c.8-.55.75-.15.75-6.04v-5.25l-.41-.39c-.72-.66-1.58-.66-2.24 0-.52.52-.52.47-.48 6 .03 4.58.04 4.76.24 5.1.46.78 1.45 1.05 2.14.58Z"/></svg>