<svg xmlns="http://www.w3.org/2000/svg" width="51" height="51" viewBox="0 0 51 51"><path fill="#fff" fill-rule="evenodd" stroke="#fff" stroke-width=".649" d="M23.1 44.65c-9.65-1.17-17.13-9.92-16.77-19.6C6.98 8.14 27.4.13 39.31 12.12c7.09 7.13 7.36 18.67.62 26.24-4.27 4.8-10.37 7.08-16.83 6.29Zm4.51-.16c9.56-.97 17-9.24 16.99-18.89C44.59 8.62 24.17.26 12.1 12.3-.48 24.85 9.86 46.31 27.61 44.49Zm-4.01-1.16c-3.01-.34-6.01-1.53-8.48-3.35-1.13-.83-1.17-1.02-.27-1.05 7.68-.31 15.12-4.02 19.27-9.59 2.51-3.38 4.86-9.05 4.64-11.21-.23-2.29-2.07-3.84-4.39-3.71-2.12.13-3.21 1.14-4.07 3.78-2.83 8.72-13.03 12.95-21.27 8.82-1.35-.68-1.27-.52-1.2-2.45.27-7.6 5.79-14.35 13.28-16.21C34.09 5.12 45.73 16.3 43 29.38c-1.84 8.82-10.38 14.96-19.4 13.95Zm4.39-.29c14.33-2.1 20.27-19.34 10.22-29.68-4.38-4.49-10.39-6.27-16.61-4.9-7.64 1.69-13.48 8.72-13.54 16.29l-.01 1.5 1 .52c8.06 4.18 18.4-.09 21.06-8.69.81-2.62 2.09-3.77 4.31-3.86 3.38-.14 5.32 2.73 4.24 6.28-3.03 9.98-9.41 15.93-19.37 18.05-1.58.33-3.14.55-4.06.55-.91 0-.91.03.1.76 3.61 2.65 8.29 3.83 12.66 3.18Zm-16.07-6.42c-1.56-2.08-2.65-3.99-2.65-4.63 0-.35.63-1.9 1.04-2.58.17-.28.24-.32.47-.28 2.71.59 2.46.37 2.61 2.27.06.75.25 2.3.42 3.45.17 1.16.32 2.28.33 2.5l.01.4-.67.03-.67.03zm2.02.9c.02-.04-.08-.89-.24-1.87-.15-.99-.36-2.52-.45-3.4s-.18-1.78-.21-2l-.05-.4-1.04-.23c-.58-.12-1.12-.25-1.2-.28-.19-.08-1.16 1.89-1.22 2.5-.09.75 2.49 5.04 3.41 5.68.15.1.94.1 1 0Zm2.7-.24c-.26-.76.03-6.99.34-7.3.04-.04.58-.17 1.19-.28 1.32-.24 3.19-.77 4.22-1.19 1.05-.44 1.05-.44 2.23.62 1.28 1.16 3.78 3.76 3.78 3.93 0 .33-3.7 2.44-4.28 2.44-.05 0-.37-.55-.7-1.23-.65-1.31-1.82-3.17-2.25-3.56-.65-.59-.94.06-.62 1.42.19.84.65 3.73.65 4.14 0 .37-.26.47-2.3.88-1.94.39-2.17.41-2.26.13Zm3.06-.53c.58-.15 1.12-.3 1.19-.34.14-.09-.09-1.86-.54-4.18-.3-1.49-.18-1.93.49-1.93.47 0 1.64 1.63 2.71 3.77l.61 1.21.78-.34c.87-.39 2.58-1.34 3.01-1.68l.28-.22-1.39-1.44c-1.5-1.54-3.3-3.2-3.49-3.2-.07 0-.45.14-.86.31-1.02.42-2.9.95-4.22 1.19-.61.11-1.12.22-1.14.24-.22.22-.48 6.87-.28 7.08.08.08 1.72-.19 2.85-.47Zm9.94-5.63c-.75-1.37-1.78-3.07-2.4-3.98-.35-.52-.64-1-.64-1.08 0-.3 2.01-2.27 2.24-2.2.11.04 1.01.42 1.98.85 1.8.8 2.24.92 2.35.63.15-.39-.96-1.62-2.54-2.82-.75-.57-.75-.42-.07-1.74.3-.6.73-1.62.94-2.27.45-1.41.58-1.66 1.02-2.07 1.45-1.37 3.91-.95 4.74.81 1.14 2.41-2.67 10.59-6.55 14.08-.67.59-.63.6-1.07-.21Zm1.7-.75c2.6-2.83 4.47-6.16 5.62-10.03.82-2.77-.11-4.49-2.41-4.47-1.57.02-2.15.57-2.86 2.75-.21.66-.63 1.67-.93 2.24l-.54 1.03.47.38c2.39 1.92 3.13 2.95 2.46 3.39-.3.2-.28.2-2.48-.77-.98-.44-1.83-.79-1.9-.79-.11 0-1.13 1-1.76 1.72l-.23.26.95 1.44c.52.78 1.21 1.9 1.53 2.48.85 1.56.82 1.52 1.03 1.4.11-.05.58-.52 1.05-1.03Z"/></svg>