<svg xmlns="http://www.w3.org/2000/svg" width="51" height="51" viewBox="0 0 51 51"><path fill="#fff" fill-rule="evenodd" stroke="#fff" stroke-width=".311" d="M15.99 49.55c-.9-.29-1.52-1.25-1.66-2.56-.07-.69-.05-.67-.86-.84-1.24-.26-3.13-1.23-3.3-1.7-.26-.67.05-.95 1.07-.95h.78l-.27-.32c-.21-.25-.25-.38-.2-.64.05-.27.02-.34-.15-.39-.34-.11-1.35-1.11-1.55-1.54-.23-.51-.15-.71.27-.71.25 0 .29-.03.18-.1a.46.46 0 0 0-.35-.03c-.17.05-.18.03-.08-.09s.02-.22-.48-.57l-.61-.43-.56.38c-.61.42-1.49 1.26-2.77 2.67-.95 1.03-1.09 1.07-1.29.35-.47-1.7-.16-3.5.99-5.79l.36-.7-.43-.51c-.24-.28-1.28-1.41-2.33-2.5C.77 30.5 0 29.49 0 28.96c0-.29.03-.26.34.31.65 1.2 1.62 2.24 2.39 2.57.2.08.37.2.37.25 0 .14-.06.14-.33-.01-.26-.14-.01.16 1.14 1.32.41.42 1.21 1.29 1.79 1.93.93 1.05 3.06 3.02 3.94 3.65.17.12.36.29.42.36.05.08.64.3 1.3.5.66.19 1.27.38 1.35.41.15.06.14-.02-.03-.62-.45-1.54-.24-3.12.39-3 .19.03.23 0 .23-.19 0-.38.27-.56.79-.53.69.05.9-.35.44-.83-.4-.41-.63-.95-.63-1.47 0-.5.09-.46-1.66-.72-1.71-.24-1.76-.27-2.89-1.48a78 78 0 0 0-1.62-1.66c-.51-.51-.93-.97-.93-1.03 0-.35-.29-.07-.36.33-.1.69-.24.54-.24-.26 0-1.31-.77-3.86-1.39-4.6l-.29-.34.05 1.21c.07 1.49.01 1.55-.65.67-.91-1.23-2.5-2.49-3.55-2.83-.25-.08-.37-.17-.37-.3 0-.18.03-.18.39-.05.66.23 1.57.86 2.96 2.02l.4.34.23-.27c.18-.21.22-.34.18-.59-.08-.41.13-.63.47-.48.17.08.3.05.62-.15.88-.56 1.28-.31 1.82 1.14.16.41.31.74.34.74.07 0 .32-.88.49-1.72l.11-.58h.74c1.96 0 4.31.92 5.88 2.3.91.8.89.85-.57 1.67-2.53 1.41-4.77 3.18-4.35 3.44.18.11 3.18 1.21 4.05 1.49l.7.22.37-.25c.44-.3.97-.43 2.39-.61l1.07-.12.67-.6c.36-.32 1.01-.88 1.43-1.23s.8-.7.85-.78c.24-.42.26-3.43.02-3.43s-1.34-.62-1.82-1.03c-.42-.36-.6-.45-1.06-.5-.73-.09-1.15-.25-1.21-.46-.03-.13-.22-.21-.68-.31-.75-.15-1-.26-.96-.43.01-.08-.17-.13-.58-.15-.79-.03-.91-.08-.75-.27.11-.13.08-.15-.17-.15-.76 0-1.97-.61-1.63-.82.17-.11-.54-.92-2.78-3.15-.72-.73-1.32-1.38-1.32-1.46 0-.13.97-.77 1.17-.77.06 0 .25-.12.42-.26 1.09-.91 3.84-1.67 5.06-1.4l.3.06-.01-.85c-.01-.59.04-1.06.17-1.48.21-.7.23-.66-.28-.77-2.19-.5-4.57-.68-9.78-.75C.41 10.08 0 10.04 0 9.58v-.3l.28.18c.25.17.63.19 4.42.25 5.54.1 6.55.15 8.55.44.94.14 1.88.28 2.1.31l.4.06.33-.79c.17-.44.52-1.08.77-1.44l.44-.64-.32-.17c-.72-.38-1.5-.51-2.19-.38-1.71.33-1.77.3-1.75-1.07.02-1.46-.86-2.75-2.38-3.49-1.73-.84-6.06-.01-7.87 1.51l-.26.22-.67-.33C1.49 3.76.92 3.56.6 3.49c-.52-.1-.6-.15-.6-.34 0-.29 1.01-.12 1.9.33l.56.27.54-.37c1.74-1.19 5.06-1.93 6.89-1.54 2 .42 3.54 2.18 3.57 4.06.01.52.06.95.1.94.05-.01.41-.07.81-.14.96-.17 1.79-.09 2.56.27l.62.3.62-.62c.34-.35.64-.6.67-.58.06.06.87-.49 1.05-.71.08-.09.21-.16.3-.16s.27-.06.41-.13c2.22-1.16 6.09-.64 8.1 1.07.36.31.7.56.76.56s.17.06.23.14c.26.32.62.26 1.18-.2.94-.77 1.78-1.07 3.82-1.39.57-.09 1.16-.22 1.32-.3.61-.32.59-.36.8 2.02.1 1.1.16 1.43.27 1.43.14 0 .12.47-.04 1.16-.08.33.19.36.82.08 1.33-.59 3.77-.82 5.07-.49.26.07.27.06.27-.36.01-1.66.85-3.25 2.03-3.86 1.07-.54 4.17-.99 4.17-.6 0 .17-.21.23-1.25.32-3.1.28-4.17 1.19-4.49 3.83-.13 1.01-.24 1.28-.52 1.18-2-.73-6.09.19-6.06 1.36 0 .17-.06.47-.14.66s-.14.42-.14.51-.16.4-.36.7c-.36.52-.51 1.17-.29 1.24.05.02-.05.24-.23.48-.67.9-.85 1.3-.98 2.13-.22 1.31-.19 1.55.15 1.67.16.06.37.21.45.34s.31.28.51.35c.19.06.35.16.35.21 0 .12 1.13.65 1.67.78.21.05.63.19.93.3.33.13.78.21 1.13.21.41 0 .59.04.63.14.11.3.67.39.85.14.25-.33 2.45-4.65 2.39-4.7-.03-.03-.72-.01-1.55.03-1.34.06-1.83.02-1.58-.14.05-.03.58-.08 1.18-.12 2.06-.11 2.11-.12 2.26-.47.27-.65.63-.93 5.11-3.91.16-.11.28-.17.28-.14 0 .17-.97.93-2.65 2.06-2.23 1.52-2.23 1.51-2.7 2.61-.95 2.24-2.65 5.27-3.91 6.97-.3.4-.54.77-.54.82 0 .38 2.92.04 3.91-.45l.47-.23-.05-.83-.06-.83.62-.29c.33-.17.61-.33.61-.38 0-.04.07-.08.15-.08.09 0 .34-.09.55-.2.54-.28.51-.18-.05.14-.42.25-.45.29-.45.7 0 .61.1 1.07.23.99.05-.03.24-.05.41-.05.19.01.75-.19 1.49-.55.65-.31 1.33-.57 1.53-.58.19-.01.44-.11.56-.21.17-.16.15-.09-.1.36-.17.3-.38.84-.47 1.2-.24.89-.91 2.3-1.58 3.31-.82 1.25-.81 1.22-.68 2.36.05.54.15 1.61.22 2.38.11 1.35.47 2.78 1.19 4.6l.12.3.29-.77c.2-.52.45-.93.75-1.25l.44-.48-.31.52c-.17.28-.48.96-.68 1.49-.53 1.42-.59 1.39-1.17-.53-.54-1.79-.61-1.93-.94-1.93-.27 0-.91.4-1.2.75-.24.29-1.77 1.56-3.22 2.67-.75.57-1.51 1.22-1.69 1.44-.48.6-1.58 2.88-1.45 3.01.08.08.9-.39 1.25-.71.18-.17.31-.24.27-.16-.03.08-.09.22-.12.31-.03.08-.17.22-.31.31-.24.14-.23.15.29.12.68-.04.98-.13.98-.3 0-.07.17-.33.39-.57.21-.25.63-.81.94-1.24 1.07-1.52 1.2-1.35.16.22-.4.61-.68 1.14-.65 1.22s-.06.6-.2 1.15c-.45 1.81-.32 1.82.69.04 1.09-1.92 1.45-2.38 2.33-2.98.86-.58 1.25-.74.61-.24-.32.25-.46.43-.43.53.03.08.06.25.06.38v.24l.52-.24c.29-.13.73-.26.98-.29s.39-.03.31 0c-.18.08 1.05.63 1.42.64.16 0 .26.04.22.1-.03.06.01.1.09.1.09 0 .16.05.16.1 0 .18-1.18-.08-1.48-.33-.58-.47-1.89-.13-2.36.61-.13.2-.31.43-.4.51-.09.07-.32.4-.52.72-.39.64-.96.95-1.33.72-.15-.09-.23.02-.65.84-.59 1.16-1.02 1.37-1.16.57-.05-.28-.06-.28-.3.22l-.25.5.3.15c1.12.54-.86 2.12-3.32 2.65l-.81.17.05.53c.21 2.01-1.61 3.19-3.43 2.23l-.55-.28-.64.17c-.6.15-.69.15-1.27 0-.44-.11-.87-.14-1.4-.11-.65.05-.83.02-1.22-.17-.45-.21-.47-.21-.91-.05-.33.13-.59.16-1.02.11-.7-.08-.8-.08-1.64 0-.66.06-1.16-.08-1.7-.47-.12-.09-.24-.06-.59.2-1.08.78-2.62.58-3.31-.43-.3-.45-.35-.45-.54.02-.45 1.06-1.73 1.63-2.86 1.27Zm1.55-.7c.46-.22.75-.62.84-1.17.07-.42.09-.43.59-.54l.51-.11.11.37c.37 1.26 2.03 1.56 3.01.55.39-.4.59-.44.86-.14.49.55 1.45.75 2.06.43.28-.15.34-.15.69.01.48.22 1.2.16 1.61-.15.26-.19.31-.2.46-.07.52.45 1.5.61 2 .33.2-.11.3-.09.7.12.56.28 1.21.25 1.82-.09l.39-.22.4.36c1.21 1.09 2.91.4 2.91-1.18 0-.61-.39-1.34-.8-1.51-.32-.14-.43-.54-.15-.54.08 0 .15.07.15.15 0 .38 2.2.09 3.65-.48 1.06-.42.8-.44-1.4-.12-2 .29-2.04.29-1.35-.09.55-.3.63-.4.25-.3-.59.15-.39-.9.25-1.32.49-.33.5-.38.05-.3-.34.07-.41.01-.36-.27.01-.05-.09-.01-.21.07-.44.31-1.93.12-2.35-.3-.2-.2-.27-.22-.47-.12-.39.17-.95.02-1.14-.33-.23-.39-1.02-.43-1.32-.07-.23.28-.89.31-1.18.05-.17-.16-.21-.16-.32-.02-.38.46-1.2.09-1.27-.59-.06-.52-.14-.5-.33.07-.33 1.05-1.18.93-1.6-.24-.17-.47-.19-.5-.2-.23 0 .48-.2.93-.43 1-.38.12-.79.06-.99-.14-.2-.19-.2-.19-.43.04-.44.44-1.34.21-1.35-.33-.01-.13-.05-.1-.16.09-.39.73-.97.67-1.88-.22l-.72-.7.04.58c.06.84-.73 1.37-1.25.85-.2-.2-.2-.2-.43.04-.29.3-.89.32-1.15.03-.31-.34-1.2-.23-1.3.17-.07.28-.55.52-.9.45-.47-.09-.6-.37-.57-1.25.02-.7 0-.78-.11-.62-.1.13-.21.16-.39.12-.23-.06-.25-.04-.21.13.03.12 0 .2-.07.2-.06 0 .05.19.24.42.45.52.46.72.04.85l-.33.09.32.17c.36.19.63.44.63.58 0 .06-.14 0-.32-.12-.3-.22-1.58-.42-1.58-.25 0 .03.33.24.74.46.79.43.94.61.7.81-.13.11-.11.15.15.32.17.1.31.26.31.35 0 .13-.02.13-.19-.02-.2-.19-1.35-.41-2.61-.5l-.85-.07.37.2c.65.36 1.86.71 2.6.76.68.04.88.16.58.35-.1.06.06 1.72.21 2.17.34 1.04 1.4 1.47 2.43.98Zm-1.48-.56c-.34-.27-1.06-3.31-1.06-4.51 0-.62 1.11-.99 2.94-.99 2.76 0 3.07 3.25.37 3.89l-.71.16v.52c0 1.02-.8 1.51-1.54.93Zm18.42.06c-.16-.09-.56-.57-.9-1.08s-.63-.85-.65-.77c-.01.08-.05.37-.08.64-.19 1.42-1.95 1.28-1.95-.16.01-1.1.28-3.79.41-3.96.65-.86 1.84-.46 1.83.62-.01.68-.09.68.79.01 1.09-.84 1.67-.91 2.16-.29.45.57.26 1.06-.64 1.65-.77.5-.75.38-.21 1.07.55.7.79 1.25.71 1.62-.13.61-.92.96-1.47.65Zm-17.22-.4c.12-.18.15-.39.12-.76-.06-.58 0-.63.83-.74 2.03-.26 2.31-2.82.36-3.36-.5-.14-2.38.03-2.93.26-.43.18-.44.37-.09 2.42.41 2.37.43 2.42 1.17 2.43.29 0 .41-.06.54-.25ZM35.5 48c.36-.36.26-.78-.39-1.69-.7-.96-.7-.93.15-1.49.77-.51.95-.81.72-1.2-.39-.64-.86-.55-2.1.38-1.11.85-1.04.85-1 .01.05-.83-.06-1.08-.53-1.17-.81-.15-.89.03-1.1 2.52-.19 2.26-.07 2.67.76 2.49.42-.09.58-.4.65-1.28.08-.95.1-.95.75.05 1.03 1.57 1.55 1.92 2.09 1.38Zm-14.66-.1c-.29-.12-.64-.58-.64-.86 0-.63 1.18-3.93 1.56-4.35.46-.51 1.67-.44 2.21.13.49.52 1.83 3.48 1.83 4.04 0 .91-1.14 1.25-1.78.55l-.39-.43-.71.08c-.53.05-.72.1-.72.21 0 .47-.81.85-1.36.63Zm8.51.01c-.26-.12-.64-.53-1.07-1.19l-.35-.53-.07.52c-.14 1.03-.95 1.42-1.61.76-.58-.58-.67-4.3-.12-4.85.32-.32 1.96-.38 3.12-.13 1.44.32 2.04 2.08 1.01 2.98l-.31.28.32.49c.63.93.01 2.06-.92 1.67Zm-7.43-.66.22-.45h.87c.87 0 .88 0 1.05.3.44.73 1.49.52 1.46-.3-.01-.31-.98-2.68-1.39-3.38-.57-1-1.8-1.12-2.39-.24-.3.45-1.24 3.33-1.24 3.81 0 .84 1.05 1.03 1.42.26Zm8.23.2c.34-.33.32-.5-.15-1.19-.41-.62-.41-.78.01-.91.72-.23.62-1.87-.15-2.34-.99-.6-3.56-.59-3.72.02-.15.62.01 4.05.2 4.26.58.64 1.26.15 1.26-.91 0-.9.1-.91.7-.06 1.06 1.53 1.31 1.68 1.85 1.13Zm-7.75-1.91c0-.22.37-1.29.44-1.29.08 0 .58 1.16.53 1.22-.09.08-.97.15-.97.07Zm-5.23-.21c-.03-.04-.07-.26-.08-.47-.04-.45.48-.69.98-.47.41.19.21.91-.25.91-.09 0-.27.03-.38.06-.12.03-.24.02-.27-.03Zm10.6-.79c-.13-.13-.07-.65.08-.7.37-.14.9.1.9.41 0 .3-.75.52-.98.29Zm10.31-1.06c.52-.36.49-.42-.13-.32-.53.07-1.15.54-1.15.85 0 .23.45.04 1.28-.53Zm1.66-.08c.29-.27.34-.37.3-.63-.05-.3-.01-.35.6-.79.54-.39.7-.58.91-1.05.32-.72.27-.91-.08-.3-.34.58-1.06 1.2-1.88 1.64-.38.19-.56.33-.43.33.69 0 .59.43-.26 1.03l-.25.18.37-.05c.23-.03.5-.17.72-.36Zm1.16-.52c.07-.18.16-.47.2-.65l.08-.32-.34.26c-.33.25-.38.33-.35.63.06.49.24.53.41.08Zm-24.8-.75c.23-.48 1.26-.66 1.64-.28.51.51 1.18.16.98-.51-.35-1.17-1.62-2.74-2.21-2.74-.74 0-1.41 1.52-1.41 3.19 0 .78.68 1.02 1 .34Zm20.55.03c.12-.35-.15-.61-.75-.71-.47-.08-.47-.07-.25-1.44.19-1.17.09-1.44-.53-1.39-.49.04-.57.22-.77 1.91-.19 1.6-.16 1.69.59 1.86.85.19 1.59.1 1.71-.23Zm1.75 0c.87-.35 1.68-.9 1.39-.94-.51-.08-2.56.82-2.67 1.17-.06.19.48.1 1.28-.23Zm-24 .05c0-.37-.87-.86-2.24-1.25-1.11-.33-1.42-.34-1.06-.06.78.6 3.3 1.6 3.3 1.31Zm-8.56-1.29c.71-.79 1.45-1.5 1.96-1.87l.81-.6-.48-.4c-.26-.22-.92-.82-1.45-1.33l-.97-.94-.39.78c-1.02 2.03-1.39 4.17-.93 5.37.16.41.2.37 1.45-1.01Zm27.85 1.02c.29-.21.26-.43-.24-2.01-.7-2.23-1.36-2.34-2.49-.42-.74 1.24-.94 1.83-.71 2.09.26.28.69.26.94-.06.28-.36 1.42-.27 1.6.12.09.2.38.41.61.43.03.01.16-.06.29-.15Zm3.85-.46c-.03-.04.04-.21.15-.37.31-.43.26-.43-.18 0-.82.83-1.19-.02-.67-1.53.12-.38.21-.68.19-.68-.03 0-.13.05-.24.1-.15.09-.19.07-.2-.07-.03-.47.05-.92.22-1.38.23-.61.23-.58-.02-.5-.2.07-.21.05-.16-.24.04-.2.01-.41-.11-.6-.15-.27-.15-.33-.03-.53.58-.91.65-1.96.18-2.66-.81-1.23-3.13-1.57-4.5-.64l-.37.25-.4-.32c-1.48-1.19-3.96-1.17-5.09.03l-.23.24-.6-.44c-1.33-.97-3.13-1.01-4.48-.08l-.52.36-.21-.21c-.89-.82-4.97-.38-5.57.62-.48.78.04 2.17.81 2.17.11 0 .19.03.19.07 0 .13-.84 1.78-.94 1.85-.06.04-.06.11.01.2.43.55.4 1.92-.04 1.56-.19-.15-.18-.09.15.8l.19.52.28-.66c.71-1.67 1.87-1.31 3.15.97l.31.54-.08-.8c-.17-1.73-.05-2.05.79-2.05.36 0 .47.07 1.09.67l.69.66v-.54c0-1.2 1.33-1.42 1.6-.26l.08.32.01-.3c.04-.77 1.05-1.11 1.57-.53.15.15.2.41.24 1.11l.05.92.24-.95c.29-1.14.5-1.4 1.13-1.4.57.01.86.24 1.07.89l.18.51.17-.43c.23-.62.54-.88 1.05-.89.82-.01.99.26 1.22 2 .11.88.13.92.24.65.17-.41 1.12-1.93 1.38-2.2.14-.16.32-.23.59-.23.85 0 1.13.36 1.64 2.09l.28.95.13-.99c.21-1.69.71-2.18 1.52-1.49.36.3.38.49.16 1.74-.08.47-.15.86-.15.87s.19.05.42.08c.5.08.72.22.82.52l.07.23.29-.22c.16-.12.27-.25.24-.3Zm-17.39.26c.15-.15.15-.65-.01-1.41-.08-.42.21-.24 1.04.62.89.93 1.08 1 1.49.59.24-.25.25-.28.18-1.12-.15-2-.26-2.32-.8-2.32-.5 0-.59.18-.51 1.07.04.43.05.75.02.73l-.84-.82c-1.6-1.54-2.03-1.15-1.68 1.49.17 1.3.56 1.71 1.11 1.17Zm4.21-.08c.22-.16.34-2.49.17-3.17-.16-.6-1.08-.67-1.23-.09-.16.63.06 3.03.3 3.22.27.22.49.23.76.04Zm3.36.02c.09-.07.28-.5.43-.95.24-.74.44-1.05.45-.7.05 1.31.23 1.77.71 1.77.55 0 .6-.63.24-2.73-.17-.94-.17-.95-.59-1.03-.59-.1-.75.02-1.12.84-.38.83-.43.83-.69.02-.27-.83-.54-1.06-1.15-.93-.39.07-.45.19-.69 1.39-.41 2.05-.38 2.34.28 2.34.38 0 .48-.15.56-.85.13-1.17.23-1.2.57-.14.31.97.62 1.27 1 .97Zm9.83-.94c.27-.29.48-.88.66-1.81.16-.89.09-.93-.44-.27-.97 1.22-1.17 3.11-.22 2.08Zm-21.25.11c0-.23.24-1.05.31-1.05.13 0 .52.81.42.9-.09.08-.73.22-.73.15Zm-1.6-.77c0-.52-.31-1.15-.9-1.79l-.49-.54v.35c-.01.19.06.63.14.98.36 1.52 1.25 2.23 1.25 1Zm30.09-.19c.59-.7.58-.67.22-.96l-.29-.23-.35.53c-.86 1.28-.53 1.8.42.66Zm-13.09.56c0-.03.12-.29.26-.57.29-.57.38-.54.5.2l.07.42h-.42c-.22 0-.41-.02-.41-.05Zm8.05-1.76c.68-1.36 1.04-1.75 2.72-3 1.4-1.04 1.57-1.28 1.09-1.5-.63-.29-1.5.15-2.46 1.26-.24.28-.76.83-1.14 1.23-.7.72-.71.73-.72 1.3-.01.31-.04.85-.07 1.2-.08.82-.06.8.58-.49Zm-5.93-1.05c-2.53-.46-2.61-.95-.42-2.6.49-.37.91-.73.94-.81.09-.24-.3-.14-.69.17-.61.48-1.26.34-1.43-.33-.36-1.34 1.58-2.2 3.17-1.4 1.31.66 1.4 1.89.2 2.97-.43.39-.48.46-.29.46.7 0 1.1 1.01.61 1.51-.35.34-.36.34-2.09.03ZM15.7 37.6c-.37-.37-.17-1.1.6-2.25.14-.22.37-.57.5-.78l.23-.39-.74.07c-.96.09-1.32-.13-1.27-.78.04-.54.32-.73 1.4-.91 3.59-.62 4.12-.23 2.65 1.96-.45.67-.83 1.26-.85 1.29-.01.03.31.04.72.01 1.1-.07 1.65.37 1.36 1.08-.16.37-.37.44-2.39.7-1.9.25-1.96.25-2.21 0Zm20.1-.19c.27-.52 0-.97-.65-1.08-.58-.09-.54-.27.24-1.02.92-.88 1-1.46.32-2.11-.87-.83-2.71-.77-3.16.1-.44.84.25 1.45.97.85.53-.45 1.33-.32 1.07.17-.06.11-.38.4-.72.66-.92.7-1.77 1.53-1.77 1.72 0 .51 3.45 1.17 3.7.71Zm-17.2-.16c1.37-.19 1.5-.24 1.5-.65 0-.45-.19-.52-1.3-.48-.55.01-1 0-1-.05 0-.04.43-.72.97-1.52 1.22-1.83 1.21-1.95-.09-1.95-1.64 0-3.32.35-3.43.71-.18.57.19.75 1.31.66.96-.09.96-.1.07 1.34-1.45 2.36-1.42 2.4 1.97 1.94Zm3.82-.05c-1.64-.34-2.59-2.24-1.88-3.76.96-2.06 4.44-1.97 5.22.13.22.6.34.75.34.42.01-1.13 1.7-2.24 3.14-2.04 3.53.46 3.27 5.26-.29 5.29-1.43.01-2.83-1.09-2.85-2.24 0-.18-.07-.1-.24.31-.61 1.5-1.9 2.2-3.44 1.89Zm16.2-.4c.17 0 .19-.05.16-.29-.02-.17 0-.27.05-.24.09.06.77-.55.77-.7 0-.05-.3-.48-.67-.96-.77-1-.41-.72.54.41.36.43.71.78.79.78.13 0 .79-.65.97-.96.08-.14-.32-.65-2.1-2.71-.63-.73-.74-.98-.51-1.21.42-.42 2.72.38 4.65 1.64.79.51.85.53 1.35.48.99-.09 1.16-.14 1.53-.44.23-.18.5-.3.68-.3.29 0 .29-.01.24-.37-.04-.21-.11-.99-.17-1.73s-.15-1.7-.21-2.14l-.12-.78.37-.7.36-.7-.21-.29c-.11-.16-.25-.29-.3-.29s-.41-.32-.81-.7c-1.03-1.02-1.39-1.15-2.17-.84-.95.38-3.2.66-3.88.48-.48-.13-.4-.37.73-1.98l.56-.79-.61-.22a6.6 6.6 0 0 0-1.16-.29c-.31-.03-.63-.11-.73-.16-.09-.05-.59-.25-1.09-.45-1.09-.42-2.2-1.04-2.51-1.4-.26-.29-.48-.32-.56-.07-.04.1-.43.79-.88 1.53-.44.74-.81 1.42-.8 1.51.02.56.62 2.56 1.17 3.94.69 1.7.7 1.74.56 1.74-.22 0-1.45-3.18-1.77-4.55-.1-.44-.19-.82-.21-.84-.02-.03-.19.14-.39.37s-.45.47-.57.54c-.25.13-.29.19.66-1.11.79-1.09 2.06-3.27 2.11-3.65.4-2.67.44-2.84.81-3.31.37-.5.44-.71.2-.61-.23.08-.18-.13.11-.47.15-.18.22-.33.15-.35-.06-.02.06-.28.29-.59.22-.31.4-.65.4-.75s.07-.3.16-.43c.19-.29.29-1.36.13-1.45-.07-.05-.08-.19-.01-.46.2-.79.23-1.24.09-1.18-.11.04-.15-.25-.21-1.43-.04-.81-.11-1.52-.17-1.59-.05-.07-.07-.24-.03-.38.07-.3.05-.31-.38-.11-.18.08-.88.23-1.55.34-1.91.32-2.73.65-3.67 1.5-.22.21-.48.4-.56.43-.11.03-.09.08.1.18.14.07.35.24.47.39.2.23.22.24.23.07.01-.77 1.6-1.58 3.51-1.8l.57-.06.16.88c.3 1.65.16 2.82-.49 3.97-.46.83-.56.94-.85 1.01-.55.12-.55.12-.53-.42.02-.44-.01-.53-.17-.57-.13-.03-.23-.17-.26-.36-.04-.17-.1-.31-.14-.31s-.05-.12-.02-.26c.03-.19.01-.25-.07-.2-.13.08-.63-.43-.86-.89-.13-.25-.29-.53-.43-.75-.02-.02-.07.01-.11.08-.05.08.22.73.71 1.7.88 1.75 1.38 2.92 1.38 3.24 0 .33-.14.11-.46-.71-.15-.4-.42-.9-.6-1.09-.18-.2-.45-.61-.6-.91-.16-.3-.55-.8-.86-1.12-.32-.31-.58-.62-.58-.69 0-.06-.05-.08-.1-.05-.06.03-.24-.03-.4-.15s-.34-.19-.39-.16-.14-.01-.21-.09c-.06-.07-.18-.11-.26-.08s-.2 0-.28-.06c-.07-.06-.21-.09-.3-.05-.09.03-.16.01-.16-.05 0-.09-.05-.09-.21-.01-.11.07-.28.09-.36.06-.09-.04-.24.01-.34.1-.11.1-.19.14-.19.09 0-.04-.07-.02-.15.05-.08.06-.19.09-.24.06-.05-.04-.12-.02-.16.03-.03.06-.12.08-.19.05s-.16.02-.2.12c-.06.16-.08.16-.25 0-.19-.17-.2-.17-.23.06-.02.13-.1.23-.18.23s-.18.08-.22.18-.12.16-.17.13-.11.01-.15.09c-.03.08-.12.15-.2.15s-.2.16-.26.35-.15.35-.18.35c-.04 0-.2.21-.37.48-.47.75-.68.95-.8.8-.13-.17-.35-.21-.35-.07 0 .08-.04.08-.15-.01a.4.4 0 0 0-.34-.05c-.1.03-.22.01-.26-.05-.04-.07-.18-.09-.31-.06a.6.6 0 0 1-.44-.06c-.17-.11-.22-.11-.29.01-.07.1-.13.11-.29.02-.25-.13-.62-.14-.62-.02 0 .06-.2.08-.45.06-.35-.04-.45-.01-.45.1 0 .09-.09.15-.24.15-.13 0-.26.06-.29.14-.06.14-.59.3-.9.27-.15-.02-.17.02-.12.18q.06.21-.09.27c-.09.03-.16.12-.16.19 0 .08-.09.16-.19.2-.11.03-.21.16-.23.28s-.09.21-.17.19c-.1-.02-.11.07-.06.39.06.36.05.41-.08.36-.14-.05-.15-.02-.06.2.07.18.06.28-.01.33-.07.04-.07.17.02.4.08.25.08.35 0 .38-.08.02-.08.11-.01.29.05.15.06.29.01.32-.12.09-.06.69.12 1.2.09.24.16.51.16.61 0 .09.22.46.48.81.27.35.55.75.62.89.24.47-.25-.06-.72-.76-.37-.56-.68-.79-.6-.45.03.15.01.14-.52-.09-.59-.25-.64-.54-.09-.44l.37.07-.16-.25c-.1-.16-.13-.29-.07-.35.05-.05-.09-.49-.36-1.12-.24-.56-.44-1.06-.44-1.09.17-1.18-1.78-1.21-4.19-.07-.53.25-.99.5-1.02.54-.03.05-.39.25-.8.46-.41.2-.77.39-.79.41s.45.52 1.06 1.12c.6.6 1.49 1.53 1.98 2.06.5.55.96.96 1.07.96.1 0 .17.05.16.12-.02.07.17.19.42.27.56.19.57.2.4.31-.23.14-.06.22.65.27.61.05.65.07.5.23s-.11.18.57.24c1.03.1 1.17.15.93.32-.21.15-.22.15.7.37.46.11.59.18.57.31-.03.18.34.36.73.36.18 0 .23-.04.18-.16-.04-.12-.02-.15.08-.12.08.03.13.1.12.16-.02.06.06.13.16.17.1.03.49.3.87.6 1.05.84 1.71 1.02 4.29 1.19.4.02.9.13 1.16.25 2.49 1.11 4.46.64 5.74-1.38.35-.56.42-.47.13.15-.9 1.92-2.99 2.54-5.56 1.65a8.5 8.5 0 0 0-1.9-.42c-.53-.05-1.18-.11-1.44-.14l-.48-.06v1.23c-.01.68-.05 1.43-.09 1.67-.05.24-.06.99-.03 1.68l.05 1.24.31-.08c.97-.25 2.4-.1 3.26.34l.82.42.54-.3c1.45-.82 3.35-.78 4.73.1l.48.31.44-.19c3.08-1.36 6.41 1.12 5.11 3.8-.3.62-.29.69.16.69.53 0 .83.31.59.58-.3.33-.22.58.09.33.15-.12.36-.21.46-.21Zm1.48-.95c-.31-.38-1.33.56-1.1 1.01l.14.26.54-.56c.45-.47.52-.59.42-.71Zm-16.11.99c1.32-.39 2.09-1.94 1.58-3.17-1.05-2.5-5.36-1.56-5.03 1.11.2 1.65 1.74 2.57 3.45 2.06Zm5.85.04c1.63-.48 2.2-2.75 1-3.95-1.28-1.28-3.93-.78-4.42.83-.6 2.03 1.28 3.75 3.42 3.12Zm10.12.03c1.1-1.02 3-2.48 3.1-2.39.06.06-2.97 2.48-3.1 2.48q-.09 0 0-.09Zm-27.71-.68c.13-.66-.05-1.25-.51-1.72-.42-.43-.7-.99-.61-1.24.02-.06.09.06.15.28.07.23.27.56.48.75.6.59.87 1.62.53 2.1-.08.11-.09.07-.04-.17Zm10.16-.68c-.4-.34-.56-.84-.41-1.3.43-1.31 2.3-1.03 2.3.35 0 1.02-1.13 1.58-1.89.95Zm5.88.11c-.75-.43-.73-1.73.02-2.11 1.17-.61 2.29.87 1.41 1.86-.33.37-1 .49-1.43.25Zm-4.69-.21c.42-.22.58-.8.36-1.27a.916.916 0 0 0-1.76.39c0 .81.69 1.25 1.4.88Zm5.79-.05c.44-.23.51-1.18.12-1.54-.85-.77-2.02.47-1.3 1.38.22.28.81.36 1.18.16Zm13.64-1.85c.81-.44.8-.35.04-.83-1.8-1.14-4.37-2.02-4.37-1.49 0 .12.93 1.25 2.17 2.64l.65.73.41-.34c.23-.19.72-.51 1.1-.71Zm1.93-.23c-.47-.04-1.38.14-1.62.33-.18.13-.17.14.14.15.26 0 .37.06.5.29l.16.29.6-.51.6-.52zm-30.76-.85c0-.04-.19-.17-.42-.27-.59-.27-3.69-.3-3.48-.04.23.26.43.32 1.71.49.68.09 1.39.2 1.59.24.34.07.58-.1.6-.42Zm-10.83-.44c-.17-.16-.04-.23.31-.17.71.11 1.91-.39 1.92-.81 0-.16.02-.17.09-.06.33.52-1.86 1.51-2.32 1.04Zm7.88-.63c-.6-.2-1.45-.54-1.88-.73-.91-.42-.9-.32.01.56l.61.57 1.18-.01 1.18-.01zm9.71-.06c.49-.29.51-.4.38-1.73-.09-.77 0-.8-1.45.47l-1.23 1.07.6.06c.32.03.72.13.89.21.17.09.31.16.33.17s.23-.11.48-.25ZM2.97 29.83c-.78-1.02-1.67-2.36-1.61-2.42.07-.07.24.16 1.22 1.59.89 1.3.95 1.4.88 1.4-.03 0-.25-.26-.49-.57Zm8.7-1.69c.55-.38 1.52-.98 2.16-1.34 1.32-.74 1.3-.7.79-1.17-1.34-1.23-3.23-2.09-5.15-2.33-1.24-.16-1.2-.18-1.46.92-.36 1.58-.66 1.88-.97.95-.56-1.7-.78-1.95-1.44-1.62-.62.32-.64.35-.35.76.31.47.51.97.81 2.04.5 1.78 1.36 2.98 2.49 3.5l.7.32.71-.67c.4-.37 1.17-.99 1.71-1.36Zm37.73-2.21c0-.16.11-.63.24-1.05s.27-.95.31-1.18c.07-.44.24-.57.53-.44.15.07.14.08-.05.11-.16.03-.23.11-.23.26 0 .12-.13.68-.29 1.25-.17.57-.27 1.1-.24 1.18s-.01.14-.11.14c-.11 0-.16-.09-.16-.27Zm-48.4.1c0-.03.08-.15.17-.25.19-.21-.1-.6-.79-1.04-.21-.13-.38-.31-.38-.39 0-.23.43.02 1.09.61.37.33.55.44.63.36.16-.16-.78-1.18-1.29-1.39-.45-.19-.62-.5-.2-.38.41.12.93.53 1.4 1.08.55.63.56.72.19.91-.15.08-.36.23-.46.35-.19.21-.36.28-.36.14Zm49.14-.2c.25-1.05.71-2.33.83-2.33.16 0 .18-.09-.34 1.53-.3.95-.66 1.54-.49.8Zm-1.78-1.68c.41-.87.92-2.51.8-2.62-.03-.03-.63.22-1.33.56-.85.4-1.4.61-1.65.61-.2 0-.6.12-.89.26l-.53.27.58.29c.31.16.6.36.63.44s.18.21.34.3c.16.08.29.23.29.32 0 .11.14.25.35.35.19.09.4.26.47.37l.13.21.19-.23c.1-.13.38-.64.62-1.13Zm-22.81-.04c-1.06-.5-2.47-1.67-2.81-2.32-.23-.46-.13-.94.35-1.71.75-1.2 1.01-1.97.9-2.7-.12-.76.01-2.04.19-2 .07.01.23-.03.35-.09.21-.11.2-.1-.03.15-.26.29-.41 1.51-.26 2.11l.07.26.33-.26c.44-.34 1.31-.64 2.07-.72.33-.03.62-.1.65-.14.06-.1-1.4-1.2-1.84-1.38-.36-.15-.44-.36-.09-.25.49.15 1 .47 1.97 1.24l1.01.81.74.04c1.39.06 1.87.56 2.06 2.12.34 2.67-1 4.85-3.05 5l-.51.03.57-.19c1.5-.5 2.51-1.54 2.65-2.74l.05-.42-.26.52c-.79 1.53-3.42 2.67-5.08 2.2-.52-.14-.28-.24.5-.19 1.63.09 3.55-.73 4.16-1.8.17-.28.13-.26-.31.19-1.62 1.66-4.35 1.91-6.16.58l-.62-.46.55.51c.9.84 1.91 1.47 2.66 1.69l.69.2h-.45c-.3.01-.65-.09-1.05-.28Zm19.85-2.24v-.67l-.51.26-.52.26.07.55c.09.74.1.75.56.5l.4-.22zM27 22.6c.23.12.4.06.4-.16 0-.17.21-.19.37-.03.18.18.58.07.61-.18.03-.18.1-.23.31-.23.24 0 .3-.05.35-.3.03-.18.12-.3.21-.3.21 0 .19-.23-.04-.44-.15-.14-.29-.15-.82-.09l-.64.08.02.45.03.45-.17-.32c-.21-.41-.31-.41-.99.02-.51.33-.55.39-.49.63.1.41.24.53.46.41.13-.07.25-.06.39.01Zm-1.76-.96c1.43-.48 1.86-1.06 1.44-1.92-.29-.57-.51-.67-1.17-.53-.76.16-.99.14-1.26-.14-.14-.13-.25-.18-.25-.12 0 .07-.27.59-.61 1.14-.34.57-.58 1.07-.54 1.14.06.08.1.07.16-.02.07-.11.1-.09.15.08.15.55 1.04.71 2.08.37ZM14.4 20.47c-.69-.28-1.55-.85-1.95-1.28-.34-.37-.21-.31.5.22.51.38 1.89 1.09 2.12 1.09.07 0 .13.05.13.1 0 .15-.19.12-.8-.13Zm12.7-.82c-.31-.91-.16-2.23.29-2.4.21-.08.38.12.23.27-.14.14-.16.28-.02.28s.31-.37.24-.54c-.17-.45-2.6.1-3.23.73-.4.4-.22 1.02.29 1l.25-.01-.27-.1c-.28-.1-.37-.31-.18-.43.17-.1.49.05.55.26.05.16.12.18.44.13.67-.11 1.47.68 1.52 1.48 0 .07.03.08.05.03.02-.06-.05-.37-.16-.7Zm2.02.48c1.45-.39 2.11-1.85 1.12-2.49-.31-.21-1.97-.34-1.92-.16.05.16-.6.81-.88.88-.35.09-.31.79.11 1.93.06.15.64.1 1.57-.16Zm-14.15-.27c-1.6-.66-3.19-2.2-3.82-3.69L11 15.8l.27-.11c2.23-.85 3.51-.81 4 .13.38.73.38.72.15.65-.2-.04-.2-.03-.1.16.22.4.16.77-.12.78-.24 0-.23.01.08.17.18.09.31.21.28.27-.02.07.09.2.26.29.17.11.27.24.24.32-.03.07 0 .16.06.2.07.05.05.12-.07.21-.11.07-.14.13-.08.13s.21.16.32.36c.42.71-.22.95-1.32.5Zm1.03-.19c0-.08-.09-.22-.2-.32-.12-.11-.28-.33-.36-.49-.08-.17-.29-.4-.46-.51-.45-.29-.57-.53-.36-.69.17-.12.17-.14-.02-.31-.28-.25-.25-.35.1-.35h.31l-.16-.31c-.12-.23-.13-.34-.05-.44.08-.09.08-.15 0-.2-.16-.1-.12-.25.07-.25.15 0 .14-.03-.05-.22-.41-.42-3.42-.03-3.42.43 0 .49 1.27 2.12 2.13 2.73 1.15.82 2.47 1.31 2.47.93Zm4.15-.56c-3.17-.83-2.92-5.18.31-5.39 2.14-.14 3.47 1.65 2.82 3.79-.34 1.16-1.86 1.94-3.13 1.6Zm-9.21-1.19c-1.38-1.47-1.58-1.75-.65-.92.8.72 1.61 1.63 1.61 1.81 0 .13.01.15-.96-.89Zm11.23.61c1.22-.79 1.33-3.02.2-3.98-1.74-1.49-4.53-.09-4.22 2.14.1.7.28.89.2.21-.2-1.84 1.58-3.33 3.16-2.66.42.18 1.36 1.15 1.45 1.5.28 1.13-.19 2.4-1.06 2.83-.24.13-.37.23-.29.23s.34-.12.56-.27ZM.71 18.52c-.19-.04-.36-.13-.39-.21-.03-.1.01-.12.19-.08.13.04.8.07 1.49.07.97 0 1.21.03 1.12.12-.14.14-1.86.21-2.41.1Zm21.23-.29c.45-.32.75-.85.83-1.43.07-.53-.08-.51-.41.04-.7 1.2-1.96 1.36-2.7.34-.57-.79.1-2.28 1.02-2.28.26 0 .75-.33.65-.44-.33-.33-1.74.1-2.16.66-1.41 1.88.88 4.44 2.77 3.11Zm3.44.1c-.44-.12-.17-.3.38-.25.5.04.56.03.61-.17.03-.11.12-.21.19-.21.12 0 .12.05.01.33-.14.33-.64.46-1.19.3ZM2.65 17.26c-.31-.16-.61-.21-1.35-.23C0 17-.03 16.8 1.27 16.8c1.01 0 1.81.24 1.91.58.05.16-.05.14-.53-.12Zm19.23-1.62c.24-.28.28-.54.1-.72-.33-.33-.98.12-.98.69 0 .46.47.48.88.03Zm-5.68.17c0-.04-.05-.23-.11-.41-.09-.25-.09-.34.02-.4.1-.07.1-.16.01-.46-.08-.26-.08-.4-.01-.45.06-.04.08-.21.04-.43-.05-.23-.03-.36.03-.36s.12-.1.14-.22c.02-.13.09-.22.16-.2.09.01.13-.06.12-.2-.04-.4-.01-.46.2-.41.16.04.2 0 .2-.21 0-.17.05-.26.15-.26.12 0 .13-.04.05-.19-.18-.35-.01-.44.3-.16.09.08.25.12.38.08l.22-.05-.2-.25c-.28-.36-.14-.49.18-.18.24.24.27.25.33.08.04-.14.14-.17.42-.15.24.02.37-.01.37-.08 0-.08.1-.1.25-.08.14.03.28.01.31-.04s.19-.06.35-.03c.32.07.34.04.19-.26-.14-.25-.02-.24.4.04.27.18.47.23.85.22.28-.02.56.02.62.07.07.06.2.07.29.04.09-.04.23-.01.3.05.26.22.15-.15-.37-1.27-.91-1.93-1.67-3.94-1.5-3.94.05 0 .24.42.44.92.19.51.61 1.51.92 2.23.32.72.66 1.5.76 1.74l.19.44.3-.42c.17-.22.3-.5.3-.61 0-.13.07-.2.2-.2.15 0 .2-.07.2-.24 0-.14.06-.31.14-.38.07-.08.17-.24.2-.36.08-.24.22-.29.29-.1.03.08.08.04.14-.1.08-.22.1-.22.23-.07.13.16.15.14.26-.16.09-.26.16-.33.33-.32.12.02.24-.04.27-.12.07-.17.34-.21.34-.05 0 .06.09.1.2.1.16 0 .2-.07.2-.3 0-.34.17-.4.28-.09.07.19.09.19.21.05.16-.19.41-.21.41-.04 0 .09.03.09.12 0 .08-.08.15-.09.25-.01.1.09.15.06.21-.11.08-.21.08-.21.22.04.1.19.21.26.39.24.14-.01.46.11.71.27.24.15.46.23.47.18.02-.06.29.15.6.46.47.47.53.51.37.23-.26-.46-2.79-2.69-3.51-3.1-3.56-2-8.56-.58-10.72 3.06-1.24 2.07-1.64 5.13-.89 6.77.11.24.28.34.28.16Zm11.27-.08c-1.86-.69-2.35-3.06-.94-4.47 2.08-2.07 5.4.02 4.55 2.86-.4 1.34-2.19 2.13-3.61 1.61Zm-.44-.62c-1.32-.96-1.15-3.27.29-4.03 2.42-1.27 4.73 2.17 2.67 3.96-.24.21-.34.33-.22.27 2.09-1.07 1.09-4.61-1.31-4.61-2.25 0-3.32 2.96-1.59 4.39.21.17.42.31.47.31s-.09-.13-.31-.29Zm2.32 0c.47-.22.89-.64 1.04-1.04.13-.32.15-1.07.04-1.07-.18.01-.31.17-.38.48-.14.68-.83 1.22-1.55 1.22-1.83 0-2.07-2.68-.26-2.95.27-.04.53-.16.66-.31l.23-.23-.27-.07c-1.75-.44-3.16 1.77-2.1 3.29.57.8 1.69 1.1 2.59.68Zm-26.8-1.44c-.22-.22-.35-.45-.35-.6 0-.24-.02-.25-.32-.16-.91.26-1.88-.02-1.88-.54v-.21l.15.21c.37.53 1.98.5 2.39-.04.23-.3.2-.33-.4-.37-.34-.02-.65-.13-.99-.35-.58-.37-.62-.37-.92-.09-.22.21-.23.21-.23.02 0-.5.64-.59 1.25-.17.24.16.62.3.95.35 1.57.23 1.63.24 1.87.52.88 1.02-.56 2.39-1.52 1.43Zm1.35-.25c.42-.53.08-1.22-.6-1.22-.82 0-1.12 1.13-.38 1.45.39.16.74.08.98-.23Zm25.5-1.02c.51-.36.48-.9-.05-.9-.28 0-.65.43-.65.75 0 .41.26.46.7.15Zm5.12-1.39c.67-1.06.81-2.5.41-4.19-.09-.38-1.82-.06-2.95.56-.51.27-.58.41-.32.63.08.07.24.3.35.51.25.49.75 1.02.88.94.14-.09.25.12.36.69.1.49.11.5.44.47.36-.03.37 0 .15.75-.11.39.35.15.68-.36Zm.68.55c0-.02.12-.53.27-1.13.24-.96.27-1.27.28-2.75 0-1.49.02-1.66.15-1.52.43.42-.1 5.08-.61 5.39-.05.04-.09.04-.09.01ZM23.12 8.72c-.49-.93-.83-2.01-.88-2.77-.04-.77.01-.65.3.66.09.41.36 1.19.6 1.72.48 1.06.47 1.31-.02.39Zm14.54-.17c-1.04-.55-.68-2.15.49-2.15s1.56 1.71.5 2.16c-.43.18-.63.18-.99-.01Zm1.12-.35c.29-.27.3-.88.01-1.24-.46-.59-1.49-.19-1.49.59 0 .74.94 1.15 1.48.65Zm2.72-3c-.64-.64.33-1.66 1-1.05.26.24.27.85.02 1.08s-.78.21-1.02-.03Zm.84-.16c.31-.3.09-.84-.34-.84-.45 0-.63.47-.3.8.24.24.43.25.64.04Z"/></svg>