<svg xmlns="http://www.w3.org/2000/svg" width="51" height="51" viewBox="0 0 51 51"><path fill="#fff" fill-rule="evenodd" stroke="#fff" stroke-width=".442" d="M5.81 47.14c-.5-.42-.53-.65-.49-4.74.04-5.07-.31-4.64 3.79-4.68 3.57-.04 3.35-.18 2.93 1.86-.19.92-.2.92-1.98.92H8.6v4.3h1.79c1.34 0 1.8.03 1.83.13.03.06.02.64-.01 1.27l-.06 1.15-3.02.03-3.01.02zm6.73.11c-.11-.29.06-1.64.8-6.17.13-.81.27-1.52.31-1.57.13-.22 4.13-.14 4.24.08.19.34 1.04 5.92 1.05 6.86l.01.9h-1.29c-1.47 0-1.37.06-1.51-.97-.06-.48-.07-.48-.44-.48h-.38l-.09.72-.09.73-1.28.03c-1.08.02-1.28 0-1.33-.13Zm7.53.09c-.04-.04-.07-1.33-.07-2.86V41.7h-.59c-.78 0-.82-.06-.79-1.26l.03-.99h5.6l.03.38c.03.39-.22 1.42-.4 1.65-.06.06-.32.12-.59.12h-.49l-.02 2.88-.03 2.87-1.31.03c-.71.01-1.33-.01-1.37-.04Zm4.68-.06c-.03-.07-.04-2.22-.03-4.78l.03-4.65h3.2l.03 3.41.02 3.41.98.06c.53.04 1.18.07 1.45.07h.47v.84c0 .46-.03 1.04-.06 1.3l-.07.46h-2.99c-2.3 0-3-.03-3.03-.12Zm6.67-2.6.03-2.73 1.21-.03c.94-.02 1.24.01 1.33.11.08.1.11.88.09 2.73l-.03 2.59-1.33.03-1.32.03zm3.25 2.65c-.04-.03-.07-1.81-.07-3.94v-3.88l2.63-.03c1.44-.02 2.68-.01 2.75.01.17.04.14.62-.06 1.41l-.17.65-1.2.05-1.2.05-.03.47-.03.48h.95c1.47 0 1.46-.01 1.46 1.19v1l-1.17.03-1.18.03-.03 1.27-.03 1.28h-1.28c-.7 0-1.31-.03-1.34-.07Zm5.83-3.88c0-3.09.03-3.95.12-3.96.12-.01 5.01 0 5.21.01.11 0 .08.77-.06 1.45l-.13.6-1.22.03-1.22.03v.58l1.18.03 1.17.03.03.9c.05 1.43.12 1.35-1.23 1.35H43.2v.7h1.29c1.5 0 1.41-.07 1.41 1.1 0 1.21.27 1.1-2.76 1.1H40.5zm-28.6 3.48c0-.16.03-.65.07-1.1l.06-.83H8.3v-4.8h1.64c1.03 0 1.67-.04 1.71-.1.06-.1.35-1.72.35-1.98 0-.1-.58-.12-2.91-.1l-2.91.03-.29.33-.29.32v3.86c0 4.16.01 4.27.54 4.53.13.06 1.34.1 2.98.1l2.78.01zm3.05-.1c.04-.21.1-.56.14-.78l.07-.4h1.19l.07.64c.11.97.04.92 1.2.89l1.03-.03.03-.65c.02-.61-.88-6.63-1.02-6.77-.1-.1-3.73-.16-3.79-.07-.09.15-.97 5.87-1.04 6.74l-.06.8h2.12zm7.55-2.53v-2.9h.54c.33 0 .58-.05.65-.14.14-.16.42-1.46.35-1.58-.03-.04-1.2-.08-2.6-.08H18.9v1.79l.68.03.67.03.03 2.88.02 2.87h2.2zm8.05 2.78c.02-.07.06-.57.08-1.1l.05-.97-1.46-.03-1.47-.03-.03-3.47L27.7 38H25v9.2h2.75c2.12 0 2.77-.03 2.8-.12Zm3.25-2.38v-2.5h-2.07l-.07.77c-.03.42-.06 1.54-.06 2.5v1.73h2.2zm3.28 1.18.03-1.28h2.29v-1.7h-2.3v-1.49l1.23-.03 1.22-.03.11-.45c.06-.25.14-.62.18-.82l.07-.38H34.9v7.51l1.08-.03 1.07-.03zm8.52.48c0-1 .07-.96-1.58-.96h-1.13l.03-.57.03-.58 1.17-.03 1.18-.03v-1.68l-1.18-.03-1.17-.03-.03-.52-.03-.53h1.25c1.38 0 1.28.05 1.4-.75.04-.22.09-.52.12-.67l.06-.28H40.8v7.5h4.8zm-30.36-2.63c.03-.1.1-.65.17-1.21.08-.71.17-1.06.26-1.09.25-.1.31.1.38 1.3l.07 1.17h-.46c-.4 0-.47-.03-.42-.17Zm.56-.65c-.01-.71-.14-.62-.22.15-.04.36-.02.47.08.47s.14-.16.14-.62Zm15.67-1.54c-.04-.04-.07-.51-.07-1.05 0-1.15-.08-1.09 1.4-1.09 1.33 0 1.32-.02 1.28 1.21l-.03.94-1.26.03c-.69.01-1.28-.01-1.32-.04Zm2.33-1.04v-.81l-1.07.03-1.08.03-.03.78-.03.77h2.21zM9.25 36.35c-.63-.32-.75-.48-.75-1.01 0-.47.31-.94.79-1.19.41-.21 4.45-1.18 6.93-1.67l2.2-.43.51-.59.51-.58-.6.07c-.75.08-1.99-.08-3.12-.42-.48-.14-1.23-.29-1.67-.34-.44-.04-.89-.11-1.01-.14-.19-.06-.22-.01-.28.34-.04.27-.11.41-.21.41-.08 0-.15.09-.15.2 0 .12-.07.2-.16.2-.14 0-.15-.07-.1-.42l.07-.42-.27.27c-.15.15-.31.27-.35.27-.18 0-.08-.27.21-.55.45-.43.36-.52-.12-.11-.4.34-.78.47-.78.26 0-.05.12-.16.28-.24.64-.34.94-.79.76-1.15-.25-.51-.15-1.27.24-1.82.17-.24.39-.68.48-.98.28-.94.99-1.8 1.95-2.35.45-.26.46-.27.63-1.08.22-1.05.6-2.22.89-2.72.52-.91.85-.76 1.62.76.34.66.77 1.34 1.04 1.63.26.28.59.67.75.87l.28.37.36-.16c2.33-1.02 5.07-1.44 6.72-1.02 2.24.57 5.26-1.05 7.14-3.83l.39-.57-.13-1.43c-.44-4.94.25-9.66 1.63-11.15 2.18-2.36 4.98.72 6.13 6.74.34 1.79.43 2 1.1 2.52 1.07.83 1.85 2.13 2.25 3.72.3 1.15.23 3.89-.12 5.19-.38 1.44-.34 2.92.12 3.95.55 1.21.55 1.35.14 2.85-.19.71-.51 1.9-.71 2.62-.54 1.99-1 2.7-2.04 3.17-.67.3-1.73.29-2.04-.02-.16-.16-.29-.21-.42-.16-.33.13-1.24.1-1.54-.06-.83-.43-.48-1.51.69-2.14.71-.38.71-.37.78-2.29l.06-1.53-1.3.95c-2.7 1.97-4.23 2.8-6.13 3.35-4.12 1.17-4.58 1.24-6.38.98-1.79-.27-3.86-.29-4.84-.06-1.34.32-2.09.39-4.93.49-2.29.07-2.9.13-4 .35-1.92.39-2.87.42-3.5.1Zm33.42-.21c1.02-.37 1.42-1.1 2.24-4.16.85-3.17.84-2.83.13-4.48-.38-.86-.4-2.19-.06-3.57.9-3.7.32-6.59-1.73-8.58-1.13-1.1-1.08-1-1.45-2.85-1.14-5.79-3.58-8.77-5.56-6.8-1.32 1.3-2.06 5.54-1.75 10.05.17 2.36.13 2.29.73 1.48.65-.87.64-.84.73-2.63.19-4.41.81-7.48 1.52-7.58.77-.11 1.89 3.26 1.81 5.48-.04 1.27-.23 1.67-1.01 2.2-.84.57-2.77 2.56-3.71 3.83-2.67 3.6-5.39 5.07-7.97 4.31-1.21-.36-3.96.07-5.98.93l-.85.36-.25-.34c-.14-.19-.5-.6-.79-.91-.34-.36-.76-.99-1.16-1.75-.7-1.34-.86-1.44-1.23-.78-.27.47-.64 1.66-.88 2.8l-.17.81-.52.27c-.93.49-1.96 1.8-1.96 2.49 0 .1-.16.38-.35.64-.37.48-.39.56-.35 1.19.05.87.53 1.2 1.95 1.35.44.05 1.18.21 1.65.35 1.21.37 2.5.51 3.36.38.95-.15.97-.06.2.86l-.67.8-.72.15c-.4.08-1.33.27-2.07.41-3.01.58-6.29 1.45-6.65 1.77-.58.5-.52 1.38.08 1.38.13 0 .28.05.35.12.24.24 1.36.2 2.99-.12 1.41-.28 1.87-.33 4.28-.4 2.82-.09 3.68-.18 4.94-.5.81-.2 4-.14 4.96.1.95.23 1.99.13 4-.41 3.93-1.05 4.58-1.35 7.68-3.58 1.76-1.27 1.94-1.38 2.04-1.27.23.23.09 3.37-.17 3.86-.05.1-.34.3-.65.44-.89.44-1.32 1.26-.83 1.6.3.22.51.2.66-.04.14-.23.35-.18.25.05-.07.2.29.2.67 0 .28-.14.29-.14.42.12.21.44.91.5 1.85.17Zm-.74-2.01c-.03-.09-.01-.34.05-.57.07-.23.24-.86.39-1.41.36-1.34.63-1.54.63-.46 0 1.43-.78 3.21-1.07 2.44Zm.57-.99c.23-.8.25-1.07.04-.49-.27.74-.44 1.39-.34 1.29.06-.06.19-.42.3-.8Zm-26.26-5.33c-.34-.2-.47-.36-.95-1.14-.39-.64-.63-.61-.67.07-.03.44-.02.48.13.36.12-.1.18-.11.28-.01.09.1.08.15-.07.27-.42.31-.71-.01-.63-.69.12-1 .66-1.03 1.27-.09.15.23.15.22.12-.2-.07-.86.47-.85 1.04.02.38.57.44 1.22.13 1.44-.29.2-.27.2-.65-.03Zm.53-.27c.12-.33-.4-1.44-.68-1.44-.21 0-.04 1.22.2 1.41.28.23.4.24.48.03Zm21.25-5.22c-.52-.33-.41-3.18.13-3.38.21-.08.65.33 1.19 1.11.4.58.41.62.38 1.33l-.02.73.27-.03c.62-.07 1.16-2.04.83-3.02-.22-.67-.35-.37-.41 1-.03.71-.11 1.42-.18 1.57-.14.35-.36.25-.26-.12.03-.14.09-.83.13-1.53.08-1.38.19-1.67.6-1.54.53.17.67 1.78.26 2.89-.53 1.38-1.64 1.48-1.49.13.06-.59.05-.63-.34-1.21-.95-1.44-1.11-1.38-1.11.4 0 1.37.22 1.93.33.85.11-1 .32-.99.28.02-.03.79-.21 1.04-.59.8Zm.05-7.79c.81-.6.94-.92.94-2.27-.01-1.66-.62-3.95-1.26-4.71-.24-.29-.25-.3-.4-.1-.52.67-.96 3.45-1.11 7l-.07 1.7.64-.59c.35-.32.92-.78 1.26-1.03Z"/></svg>