<svg xmlns="http://www.w3.org/2000/svg" width="51" height="51" viewBox="0 0 51 51"><path fill="#fff" fill-rule="evenodd" stroke="#fff" stroke-width=".773" d="M18.4 36.13c-.08-.03-.25-.15-.37-.26l-.23-.2V15.51l.24-.28.24-.28 2.59-.03c1.61-.02 2.71 0 2.93.07.42.13.37.05 2.55 3.96 5.07 9.07 5.18 9.26 5.28 9.16.04-.04.11-2.91.13-6.37.06-6.53.06-6.58.5-6.74.42-.16 3.4-.12 3.73.05.53.27.52-.02.49 10.62l-.03 9.93-.28.27-.27.28h-2.75c-2.62 0-2.75-.01-2.93-.2-.11-.11-.69-1.1-1.29-2.2-.61-1.1-2.03-3.64-3.15-5.65-1.13-2.01-2.29-4.09-2.59-4.62-.3-.54-.57-.97-.61-.98-.04 0-.08 2.94-.1 6.53-.03 7.03-.02 6.82-.55 7.06-.24.11-3.25.14-3.53.04Zm3.63-.41c.15-.16.17-.84.19-6.75.03-5.53.05-6.59.17-6.66.22-.14.38-.03.64.42.74 1.3 5.03 8.96 5.75 10.27.47.85 1.03 1.85 1.24 2.23l.39.67h2.68c2.46 0 2.71-.02 2.91-.18l.23-.19.01-9.95c.01-9.66 0-9.97-.18-10.17-.23-.26-3.77-.33-3.93-.08-.04.06-.1 2.98-.13 6.48-.05 6.59-.06 6.69-.45 6.69-.07 0-.41-.51-.75-1.12-.35-.62-.91-1.62-1.25-2.23-1.88-3.36-3.19-5.7-4.08-7.3-.55-.99-1.12-1.98-1.26-2.2l-.27-.4-2.79-.03c-2.75-.02-2.8-.02-2.97.19-.26.31-.28 19.91-.02 20.27.21.31 3.59.35 3.87.04ZM9.79 19.41l-.29-.29v-1.81c0-1.76.01-1.81.24-2.08l.24-.28h2.16c2.86 0 2.76-.11 2.66 2.73-.07 2.13.07 2.02-2.66 2.02h-2.06zm4.52-.1c.32-.25.43-3.43.14-3.87l-.15-.24h-2.15c-2.67 0-2.45-.19-2.45 2.11 0 1.62.01 1.67.25 1.93l.24.26h1.94c1.77 0 1.97-.02 2.18-.19Z"/></svg>