<svg xmlns="http://www.w3.org/2000/svg" width="51" height="51" viewBox="0 0 51 51"><path fill="#fff" fill-rule="evenodd" stroke="#fff" stroke-width=".402" d="M25.41 46.72c-.05-.1-.35-1.04-.66-2.08l-.66-2.21-.11-.33h-4.77c-4.99 0-5.32-.02-6.81-.46-7.29-2.17-8.8-12.25-2.46-16.39l.77-.5-4.88-.05-4.88-.05-.03-8.99c-.01-6.56.01-9.02.09-9.12.19-.23 18.14-.2 18.23.02.03.09.06 1.03.06 2.1v1.95l.33-.25.34-.26h5.84c7.8.01 8.14.05 9.12 1.03 1.09 1.09 1.25 2.58.43 3.98-.67 1.13-.69 1.35-.09.76l.49-.47h10.79l1.26 1.28c.68.7 1.55 1.59 1.93 1.99l.67.72-.03 5.31-.03 5.3-1.91 1.9-1.9 1.9h-8.56l1.16.93c.8.64 1.15.98 1.16 1.13 0 .28-3.1 10.43-3.32 10.87-.14.27-11.42.27-11.57-.01Zm10.09-.22 1.24-.05.67-2.15c1.25-3.99 2.59-8.43 2.57-8.46-.02-.01-.59-.47-1.26-1.02l-1.24-1-.84-.04-.85-.03-1.68-1.7c-.92-.94-1.93-2.03-2.25-2.43-.31-.39-.61-.72-.66-.72-.06 0-1.46 1.09-3.11 2.43-1.66 1.33-3.19 2.56-3.4 2.72l-.38.3-.01 3.8v3.79l.66 2.26c.36 1.24.68 2.29.71 2.33.05.09 7.72.07 9.83-.03Zm-7.22-2.41c-.27-.15-.31-.69-.17-2.37.07-.86.14-2.92.15-4.57.04-4.01.11-4.92.38-5.11.22-.15 3.74-.2 4.25-.05.32.09 1.28 1.76 1.49 2.6.16.66.07 2.11-.2 3.16-.13.53-.89 1.66-1.4 2.1-.4.34-.45.35-1.2.35-.96 0-.94-.06-.84 2.06.09 1.96.1 1.94-1.31 1.94-.54 0-1.06-.05-1.15-.11Zm1.99-.27c.08-.05.13-.63.15-1.91.04-2.17 0-2.11 1.18-2.11h.77l.51-.53c.96-1.02 1.49-2.92 1.23-4.4-.13-.72-.98-2.37-1.32-2.54-.28-.15-3.76-.18-3.98-.04-.11.07-.16.9-.23 4.32-.05 2.33-.12 4.9-.14 5.71l-.05 1.47.58.04c.32.02.72.04.88.05.17.01.35-.02.42-.06Zm-6.47-2.19c0-.1-.22-.85-.5-1.68-.71-2.13-1.28-4.08-1.23-4.21.02-.05.41-.39.87-.75.97-.74.96-.71.96-2.33 0-1.24-.15-1.98-.61-3.15l-.31-.78-1.46-.07c-1.41-.07-1.7-.13-2.43-.53-.03-.02 0 .31.08.74.27 1.48.56 10.7.35 11.01-.06.09-.45.14-1.38.15l-1.29.02-.06-.55c-.04-.3-.12-1.48-.19-2.62l-.13-2.08h-.83c-.46 0-.85.04-.88.09s-.01 1.25.05 2.67c.13 3.11.28 2.84-1.53 2.84-1.24 0-1.29-.01-1.38-.22-.08-.21-.16-1.55-.5-9.18-.17-3.62-.14-4.29.14-4.4.56-.21 2.63-.24 2.7-.04.08.27.26 3.03.26 4.12v.92h.68c.37 0 .78-.03.91-.07l.24-.06-.08-1.91c-.05-1.05-.09-2.22-.09-2.61l-.01-.7.78-.03.77-.03v-1.36l-.92-.05c-1.96-.12-5.56.03-5.74.23-.15.17-.15.35.01 2.51.19 2.57.31 8.81.18 9.41-.21.96-.27.3-.29-2.88-.01-2.78-.28-8.6-.4-8.74-.16-.18-1.95 1.44-2.59 2.34-4 5.63-.54 13.3 6.35 14.04 1.67.18 9.5.13 9.5-.06Zm.1-4.03v-2.9l-.75.57c-.65.5-.74.61-.69.83.07.36 1.37 4.4 1.41 4.4.02 0 .03-1.31.03-2.9Zm-9.35 2.38c.01-.02-.02-1.19-.08-2.6-.05-1.42-.07-2.64-.04-2.71.07-.2 2.06-.33 2.23-.15.07.08.18 1.1.28 2.68.1 1.4.19 2.56.21 2.58s.51 0 1.1-.04l1.08-.07-.06-2.86c-.08-3.75-.24-6.76-.42-7.81-.08-.47-.15-1.22-.15-1.67v-.83h-2.31l.08.98c.04.53.08 1.73.08 2.67v1.7h-2.3l-.07-1.55c-.04-.85-.11-2.01-.14-2.58l-.06-1.04-.87.07c-.47.03-1.01.08-1.19.11l-.33.05.06 1.72c.03.95.12 3.16.2 4.92s.17 3.83.2 4.6c.04.77.09 1.53.12 1.69l.05.29 1.15-.06c.64-.04 1.17-.08 1.18-.09Zm16.02-2.55c-.04-.03-.07-.68-.07-1.44 0-1.69.09-1.79 1.32-1.43.65.19.83 2.2.25 2.7-.28.24-1.32.36-1.5.17Zm1.27-.42c.13-.14.19-.41.22-.95.05-.92-.15-1.23-.81-1.28l-.4-.03-.03.8-.03.79.24-.22c.36-.34.7-.19.35.16-.09.09-.07.12.08.12.26 0 .34.08.27.26-.06.16-.43.19-.43.03 0-.25-.45-.03-.48.24-.04.35.72.41 1.02.08Zm-5.89-4.43c.77-.63 2.18-1.76 3.13-2.51l1.73-1.37h-7.48l.33.83c.44 1.1.68 2.47.61 3.6-.04.8-.03.87.12.74.09-.08.79-.66 1.56-1.29Zm10.89.74c-.07-.07-1.92-1.51-2.61-2.05-.5-.38.03.44.77 1.21l.9.92h.52c.29 0 .48-.04.42-.08Zm11.39-1.7L50 29.85V19.47l-.52-.56c-.29-.31-1.09-1.16-1.79-1.89l-1.27-1.32H35.96l-.48.47c-.58.57-.57.49-.09 1.43.71 1.35.72 2.22.05 3.3-.65 1.06-.65 1.32-.02 2.73.86 1.91.75 2.72-.52 3.99-.88.88-1.25 1.08-2.05 1.08-.54 0-.55.01-.55.29 0 .26.28.51 2.58 2.35l2.57 2.06h9zm-8.42-.7c-.07-.02-.11-.88-.11-2.55v-2.51l-.34-1.1c-.76-2.47-1.38-4.71-1.4-5l-.01-.31 1.02-.03 1.02-.03.25.83c.14.46.29.99.34 1.18l.09.35.17-.6c.09-.33.25-.85.34-1.15l.17-.55 1.03-.03c.84-.02 1.03 0 1.08.13.05.12-.87 3.71-1.4 5.47-.12.39-.12.47-.01.52.15.05.32.73.21.83-.03.03-.12 0-.21-.07-.24-.2-.24-.18-.31 2.24-.05 1.5-.11 2.29-.18 2.31-.16.05-1.63.11-1.75.07Zm1.6-1.99c.01-2.66.08-3.09.93-6.16.87-3.14.87-3.07.14-3.07-.89 0-.94.04-1.13.78-.31 1.26-.57 2.03-.68 1.99-.06-.02-.27-.61-.47-1.32-.4-1.41-.42-1.43-1.22-1.44-.89-.02-.95-.57.53 4.4l.49 1.67v4.82h1.4zm-19.02-1.1c-.18-.27-.58-.74-.88-1.06l-.56-.59-.1.59c-.14.79-.3.69-.3-.19v-.72l-.8-.53c-.68-.45-.86-.53-1.27-.53H18v1.39l.48.03.47.03.05.68c.08 1.08.6 1.36 2.48 1.37h1.23zM32 23.8v-4.5l1.24-1.29c1.18-1.23 1.23-1.31 1.28-1.78.03-.34.17-.7.47-1.18 1.03-1.71.6-3.4-1.07-4.22l-.57-.28-3.55-.07c-1.95-.03-4.91-.07-6.58-.07l-3.03-.01-.45.3-.44.31v6.82l.01 6.82.57.35c.31.19.59.36.63.38s.09-.07.12-.19c.08-.28.27-.15.27.19 0 .2.15.42.56.82.31.3.81.9 1.11 1.33l.55.77H32zm1.96 4.22c1.73-1.26 2.02-2.37 1.14-4.31-.66-1.46-.65-1.79.11-3.09.59-1 .53-1.77-.23-3.1l-.31-.55-1.13 1.19-1.13 1.19-.01 4.48v4.47h.58c.49 0 .66-.05.98-.28Zm8.83-2.49c-.12-.31-.06-.53.15-.53.16 0 .29.41.2.64-.09.24-.23.19-.35-.11Zm-13.58-.72-.75-.06-.29-.72c-.35-.86-.3-.84-1.93-.91l-1.3-.04-.45.78-.44.79-.7.03c-.38.02-1.07 0-1.52-.03l-.83-.07v-.43c0-.34-.04-.44-.2-.48-.24-.06-.26-.36-.05-.77.18-.34.41-.41.31-.1-.03.11-.09.29-.12.4-.04.13-.02.2.07.2.17 0 .76-1.61 2.24-6.01.56-1.69 1.05-3.12 1.09-3.18.08-.13 4.13-.16 4.32-.03.15.1.34.71.99 3.27.31 1.21.67 2.57.81 3.03.42 1.38 1.11 4.16 1.07 4.3-.05.13-.87.14-2.32.03Zm1.99-.27c0-.13-.55-2.23-1-3.79-.26-.93-.74-2.69-1.05-3.9s-.62-2.26-.67-2.33c-.08-.09-.57-.12-2.01-.1l-1.9.03-.97 2.9c-.54 1.6-1.27 3.75-1.64 4.78-.85 2.42-.93 2.18.66 2.15l1.33-.03.39-.74.38-.73 1.52.04c1.79.04 1.82.06 2.16.94l.26.69 1.14.06c.63.03 1.21.06 1.28.07.06.01.12-.01.12-.04ZM12 24.16c1.54-.63 3.65-.74 5.23-.28l.68.19.25-.43c.62-1.05.64-1.61.08-2.57-.8-1.37-.81-1.94-.04-3.51.62-1.28.63-1.44.01-2.51-.58-1.01-.67-1.48-.46-2.3.15-.59.76-1.62 1.02-1.72.1-.04.13-.52.13-2.19V6.7H1.3v2.98c0 1.64-.03 5.63-.07 8.85l-.06 5.87H11.4zm5.2.08c-1.25-.4-3.28-.39-4.37.01-.34.12-.12.14 2.22.13 2.39 0 2.56-.01 2.15-.14Zm1.7-.56v-.73l-.3.59c-.36.7-.35.65-.07.76.36.14.37.13.37-.62Zm18.46-.24c-.14-.36.02-1.1.19-.92.13.12.11 1.08-.01 1.08-.07 0-.15-.07-.18-.16Zm-27.05-.81c-.23-.26-.38-.49-.32-.51.28-.09.08-.31-.34-.38-.43-.06-.68-.04-1.22.12-.25.07-.34-.2-.1-.3.08-.03.04-.11-.13-.23-.99-.71-1.48-1.57-1.53-2.63l-.02-.65.84-.08c1.05-.1 1.29-.05 1.37.31.14.65.25.84.4.65.08-.1.14-.13.14-.06s.09.21.21.32.18.24.14.3c-.14.23.92.13 1.2-.12.36-.3.45-1.18.21-2-.18-.63-.25-.68-1.4-1.11-2.58-.97-3.51-2.02-3.63-4.11C5.98 9.61 7.36 8 9.69 8c1.82 0 3.13 1.37 3.15 3.29.01.74.02.73-1.19.86-.72.08-.63.16-1-.88-.19-.53-.53-.78-1.07-.76l-.33.01.28.11c.28.11.36.32.15.4-.19.06-.48-.11-.48-.28 0-.22-.13-.18-.4.1-.21.22-.25.37-.26.98-.01.4 0 .6.03.45.06-.37.19-.35.27.04.07.38.42.78.67.78.31 0 .49.12.49.33 0 .2 0 .2.15.01.16-.2.41-.02.28.21-.03.05 0 .04.08-.03.21-.19.41-.15.34.07-.05.16.03.22.5.36.72.21 1.31.74 1.7 1.54.19.39.36.6.45.58.11-.01.14.05.12.23-.03.27-.03.29-.01 1.42.01.56.05.78.14.78.08 0 .15.19.17.52.05.61-.04.8-.24.49-.17-.28-.24-.27-.31.07-.17.84-1.12 1.68-2.21 1.97-.59.15-.96.35-.6.32.12-.02.2.08.26.33.05.19.12.45.15.58.09.37-.2.26-.66-.25Zm1.22-1.43c1.89-.71 2.41-3.86.98-5.94-.42-.61-.52-.66-2.11-1.2-1.92-.65-2.2-.92-2.2-2.14 0-1.12.5-1.72 1.42-1.72.73 0 1.48.7 1.48 1.39 0 .29.1.31.85.19l.67-.11-.06-.51c-.46-3.98-5.74-3.8-6.13.2-.22 2.33.77 3.62 3.64 4.69.96.35 1.19.56 1.38 1.17.32 1.09.07 2.36-.5 2.58-.43.16-1.35.13-1.41-.05-.04-.1-.13-.13-.25-.1-.2.07-.69-.77-.69-1.17 0-.2-1.53-.28-1.64-.09-.09.14.14 1.1.35 1.52.63 1.25 2.67 1.87 4.22 1.29Zm7.37-2.02-.01-2.23-.34.65c-.51.95-.68 1.59-.57 2.08.09.37.77 1.72.87 1.72.03 0 .05-1 .05-2.22Zm7.3 1.8c-1.24-.12-1.21-.05-.71-1.6.69-2.13.8-2.38 1.02-2.38.34 0 1 2.17 1.02 3.4.02.76.11.72-1.33.58Zm1.05-.75c-.11-.77-.67-2.85-.75-2.76-.09.1-1 2.83-1 3 0 .12.38.18 1.33.21l.48.02zm16.45-1.48c-.08-.02-1.11-.09-2.28-.16-2.01-.12-2.37-.18-2.15-.4.2-.2 5.82.25 5.86.46.02.09-1.1.17-1.43.1Zm-24.8-5.31c0-2.28-.01-2.31-.56-1.32-.46.85-.43 1.8.11 2.7.22.37.41.68.43.68.01 0 .02-.93.02-2.06Zm12.8-1.11c-2-.09-3.33-.28-3.27-.46.08-.24 4.16-.02 4.41.23.13.13-.1.31-.34.28-.08-.01-.44-.03-.8-.05Z"/></svg>