<svg xmlns="http://www.w3.org/2000/svg" width="51" height="51" viewBox="0 0 51 51"><path fill="#fff" fill-rule="evenodd" stroke="#fff" stroke-width=".423" d="M7.2 45.78c-.66-.25-1.45-1.01-1.8-1.73l-.25-.5-.03-17.87C5.1 8.05 5.1 7.81 5.3 7.28c.33-.88 1.13-1.67 1.99-1.96.24-.09 5.07-.12 18.32-.12l17.99-.01.5.22c.68.29 1.52 1.21 1.76 1.91.2.58.23 35.62.03 36.3-.25.89-1.14 1.84-2.05 2.18-.54.2-.69.2-18.32.19H7.75zm36.71-.29c.69-.33 1.27-.88 1.59-1.54l.25-.5V7.65l-.21-.46c-.29-.63-.83-1.2-1.41-1.49l-.48-.25H7.45l-.46.27c-.62.36-1.22 1.04-1.45 1.64-.3.77-.3 35.61 0 36.39.34.87 1.32 1.74 2.21 1.96.17.04 8.24.06 17.95.06l17.65-.02zM18.8 40.28c-1.5-1.94-1.58-1.98-3.96-2.07-2.02-.08-2.44-.22-3-1.04-.56-.81-.55-.63-.51-12.41l.04-10.86.29-.57c.35-.69.98-1.16 1.77-1.33 1.02-.21 25.03-.09 25.52.13.5.23 1 .7 1.28 1.22l.22.4.03 11c.02 7.7 0 11.15-.08 11.5-.15.69-.67 1.37-1.27 1.66l-.48.24-8.1.05-8.1.05-.48.24c-.37.18-.7.5-1.39 1.35-1.1 1.34-1.09 1.34-1.78.44Zm1.26-.2c.7-.9 1.44-1.67 1.79-1.86.27-.15 1.12-.18 8.4-.23 8.72-.06 8.57-.05 9.2-.6.79-.7.73.23.76-12.29.02-8.77 0-11.21-.1-11.45-.23-.54-.63-.97-1.15-1.21l-.51-.24H25.99c-14.05 0-13.06-.06-13.78.77-.64.72-.63.33-.59 12.43l.03 10.95.25.45c.52.92 1.31 1.19 3.51 1.2 1.69 0 2.18.3 3.64 2.18.5.63.43.64 1.01-.1Zm13.3-3.79c-.08-.77-.08-2.07 0-2.36.14-.52 2.06-.26 2.32.32.38.82-.06 1.44-1.12 1.6l-.46.07v.49c0 .49 0 .49-.34.49h-.33zm2.64-.57v-1.2l.62-.04c.35-.03.68-.01.74.03.2.16.04.57-.27.68-.27.09-.28.12-.31.88l-.03.78-.37.03-.38.03zm1.91 1.02c-1.01-.72-.4-2.47.81-2.31 1.38.18 1.24 2.47-.14 2.47-.24 0-.54-.07-.67-.16Zm-4.01-.6.05-.49.58-.06c.74-.08.97-.28.97-.84 0-.62-.24-.79-1.16-.83l-.74-.04v1.42c0 1.09.03 1.41.13 1.38.06-.03.14-.27.17-.54Zm5.03.45c.23-.1.47-.46.47-.69 0-.06-.27-.1-.6-.1s-.6.02-.6.04c0 .31.5.51.65.26.09-.15.25-.12.25.05 0 .38-.89.38-1.04 0-.11-.29-.06-.8.1-1.03.26-.38.86-.24.98.23.08.32.26.32.26 0 0-.66-.99-.92-1.47-.39-.7.77.09 2.04 1 1.63Zm-2.35-.78c.03-.71.04-.73.32-.84.43-.16.37-.23-.2-.24l-.5-.01v.95c0 .85.02.94.18.91.14-.03.18-.16.2-.77Zm-11.18-.07c-.14-.02-.56-.09-.95-.15-.9-.14-2.49-.65-2.65-.84-.1-.12-.02-.31.44-1.04.74-1.17.76-1.18 1.34-1.02 2.36.66 4.26.54 6.09-.38 3.41-1.71 5.2-5.58 4.28-9.22-.16-.65-1.09-2.69-1.23-2.69-.04 0-.33.3-.66.66-.32.36-.62.62-.67.57-.08-.09-.79-4.23-.79-4.65 0-.14.07-.29.16-.32.27-.1 4.82-.07 4.89.04.03.05-.21.41-.54.8-.73.84-.72.75-.16 1.51 4.02 5.46 1.35 13.83-5.15 16.14-1.31.46-3.46.75-4.4.59Zm2.85-.43C35.6 33.78 39.06 25 34.66 19.02c-.57-.77-.57-.68.09-1.47l.56-.65h-4.53l.06.25c.07.27.66 3.93.66 4.09 0 .05.26-.2.59-.55.71-.77.74-.76 1.4.55 1.51 3.01 1.15 6.5-.92 9.06-2.1 2.59-5.48 3.68-8.59 2.77l-.87-.25-.55.85c-.66 1.01-.67.95.36 1.28 1.8.57 3.71.7 5.33.36Zm5.65-.56v-.55h.48c.56 0 .82.2.82.63 0 .33-.25.47-.84.47h-.46zm.94.19c.29-.29.1-.54-.41-.54-.31 0-.33.02-.33.35 0 .4.43.51.74.19Zm-18.2-1.39c-.06-.16.06-.34.79-1.18l.48-.55-.34-.49c-3.48-4.91-2.2-11.8 2.8-15.09 2.87-1.89 6.83-2.26 9.91-.94.29.12.52.29.52.36 0 .13-.84 1.38-1.27 1.91l-.18.22-.7-.24c-6.87-2.35-13.12 5.52-9.27 11.7l.29.47.61-.68c.39-.44.65-.65.71-.59.13.14.62 4.58.52 4.68-.05.05-1.02.17-2.17.27-1.15.11-2.22.22-2.37.24q-.285.06-.33-.09Zm2.71-.41c1.04-.09 1.92-.18 1.93-.19.02-.02-.07-.97-.19-2.1l-.23-2.07-.59.62c-.71.75-.76.73-1.43-.65-3.2-6.58 3.21-13.86 10.05-11.41.24.09.45.15.46.14.01-.02.15-.23.3-.48s.41-.61.56-.81c.4-.51.39-.52-.48-.82-9.63-3.3-17.83 7.54-11.97 15.8.52.72.52.72.18 1.04-.14.13-.44.46-.67.73l-.41.48.3-.06c.16-.03 1.15-.13 2.19-.22Zm9.2-4.35c-.39-.11-1.37-.38-2.2-.61-.82-.23-1.56-.45-1.62-.51-.22-.16-.18-6.48.04-6.94.34-.73 1.33-.78 1.71-.1.15.28.17.68.2 2.94l.03 2.63.37.09c.2.05.91.22 1.56.38 1.63.37 2.1.75 1.91 1.5-.19.78-.78.96-2 .62Zm1.28-.11c.33-.17.46-.39.47-.75 0-.53-.23-.66-1.95-1.07-.88-.21-1.68-.42-1.77-.47-.15-.08-.17-.37-.2-2.83-.03-2.53-.04-2.76-.22-2.95-.26-.29-.71-.27-1.01.04l-.25.24v6.6l.7.21c.55.16 3.82 1.06 3.98 1.09.02.01.13-.04.25-.11Z"/></svg>