<svg xmlns="http://www.w3.org/2000/svg" width="51" height="51" viewBox="0 0 51 51"><path fill="#fff" fill-rule="evenodd" stroke="#fff" stroke-width=".753" d="M7.85 41.19c-1.55-.96-1.41-.84-1.27-1.13.11-.24 3.69-6.08 7.97-13.01 1.09-1.76 2.84-4.59 3.9-6.3 1.05-1.71 2.69-4.36 3.65-5.9.95-1.54 1.75-2.87 1.77-2.95.03-.1-.34-.39-1.16-.9-.66-.41-1.2-.8-1.2-.86-.01-.06.5-.35 1.11-.64 2.32-1.09 6.11-2.8 6.21-2.8.07 0 .08 1.31.03 3.99l-.07 3.99 3.43.04c3.89.05 4.32.11 5.76.8 3.81 1.81 4.65 7.84 1.55 11.09l-.75.78.54.27c4.4 2.22 4.12 10.96-.42 13.17-1.64.8-1.69.81-7.71.85l-5.36.03-.07-1.31c-.04-.72-.04-3.46 0-6.09l.07-4.78-1.77-.08c-.97-.04-2.98-.04-4.46 0l-2.7.08-1.42 2.31c-3.57 5.82-6.11 9.92-6.21 10.03-.09.09-.41-.06-1.42-.68Zm3.95-3.86c1.45-2.36 3.17-5.15 3.83-6.21l1.19-1.92H26v12.25l5.02-.03c6.31-.03 7.1-.16 8.74-1.43 2.33-1.79 3.18-6.53 1.72-9.59-.52-1.08-1.62-2.23-2.5-2.61-.7-.29-.71-.37-.12-.85 3.41-2.8 2.91-9.23-.86-11.14-1.42-.72-1.6-.74-7.07-.78L26 14.99l-.02 5.67-.03 5.67-3.59.02c-2.84.01-3.59-.01-3.63-.11-.03-.08.42-.89 1-1.81.57-.92 2-3.23 3.17-5.13s2.48-4.02 2.92-4.72c.91-1.46.71-1.4 1.94-.57l.72.48.06-1.62c.1-2.8.12-5.77.03-5.77s-5.48 2.45-6.25 2.84l-.43.22 1.15.74c.64.41 1.16.81 1.16.89s-.8 1.43-1.77 3c-2.28 3.69-4.22 6.83-7.18 11.61-7.4 11.97-8.52 13.83-8.39 13.87.05.02.54.32 1.09.67s1.05.65 1.11.65c.06.01 1.3-1.91 2.74-4.26Zm16.97 1.1c-.04-.03-.07-2.1-.07-4.58v-4.52l.53-.07c1.09-.13 5.51-.07 6.43.09 2.45.43 3.74 2.02 3.74 4.59-.01 2.49-1.33 4.06-3.73 4.42-.96.14-6.77.21-6.9.07Zm6.9-.34c1.54-.21 2.44-.85 3.06-2.17.43-.9.47-2.97.08-3.95-.84-2.11-2.53-2.67-7.53-2.52l-2.28.07v8.68h2.94c1.62 0 3.3-.05 3.73-.11Zm-6.9-11.96c-.12-.11-.08-7.91.03-7.98.22-.14 5.13-.18 6.05-.06 2.45.33 3.47 1.38 3.62 3.71.15 2.34-.89 3.81-3 4.24-.79.16-6.55.24-6.7.09Zm-3.02-.75c.03-.4.05-2.87.03-5.48l-.03-4.75-.39.65c-.57.92-6.03 9.77-6.22 10.06l-.16.24h6.7zm10.39.23c2.64-1.05 2.83-5.81.28-6.88-.91-.38-5.79-.63-7.11-.37l-.31.07v7.48l3.27-.03c3.17-.03 3.3-.04 3.87-.27ZM27.57 14.2c-.43-.28-.81-.5-.85-.5-.07 0-.62.85-.62.95 0 .03.51.05 1.13.05h1.12z"/></svg>