<svg xmlns="http://www.w3.org/2000/svg" width="51" height="51" viewBox="0 0 51 51"><path fill="#fff" fill-rule="evenodd" stroke="#fff" stroke-width=".459" d="M11.08 43.01c-3.44-1.14-4.59-5.3-2.17-7.86 3.3-3.49 9.03-.8 8.38 3.93-.39 2.81-3.55 4.81-6.21 3.93Zm13.15-.84c-2.6-2.28-3.52-3.54-3.61-4.92-.15-2.41 2.56-3.78 4.61-2.33l.27.2.46-.31c1.44-.95 3.56-.39 4.25 1.13.56 1.24.03 2.79-1.56 4.53-.75.83-2.91 2.73-3.1 2.73-.08 0-.68-.46-1.32-1.03Zm13.27.93c-3.27-.68-4.96-4.65-3.11-7.33 2.55-3.72 8.2-2.45 8.83 1.98.44 3.12-2.63 5.99-5.72 5.35Zm-23.79-.26c3.48-1.01 4.58-5.31 2-7.77-2.71-2.59-7.19-1.09-7.83 2.6-.55 3.22 2.68 6.09 5.83 5.17Zm13.21-.98c3-2.73 3.8-4.29 3.04-5.92-.68-1.46-3.02-1.86-4.22-.73l-.21.2-.51-.35c-2.46-1.65-5.17.77-3.85 3.44.47.96 3.92 4.5 4.38 4.5.06 0 .68-.51 1.37-1.14Zm12.41.99c2.94-.62 4.55-3.82 3.27-6.49-1.62-3.41-6.63-3.42-8.3-.02s1.34 7.3 5.03 6.51Zm-27.9-12.5c-1.41-.31-2.65-1.31-3.31-2.64-.54-1.09-.56-2.96-.05-4.04 1.75-3.69 7-3.77 8.78-.13 1.76 3.6-1.51 7.71-5.42 6.81Zm13.27.05c-3.52-.61-5.2-4.83-3.05-7.67 2.19-2.9 6.59-2.46 8.21.83 1.71 3.44-1.35 7.5-5.16 6.84Zm12.83-.05c-2.8-.61-4.5-3.66-3.52-6.32 1.23-3.32 5.35-4.29 7.9-1.87 3.54 3.38.41 9.23-4.38 8.19Zm-23.78-.27c1.98-.49 3.35-2.3 3.35-4.44 0-4.87-6.6-6.4-8.74-2.02-1.77 3.61 1.43 7.45 5.39 6.46Zm12.45.12c1.49-.23 2.79-1.2 3.47-2.57.49-.98.56-2.73.15-3.73-1.08-2.7-4.46-3.73-6.91-2.09-3.41 2.27-2.23 7.7 1.81 8.38.73.12.75.12 1.48.01Zm13.1 0c2.76-.43 4.52-3.22 3.71-5.88-1.03-3.39-5.22-4.42-7.74-1.91-3.11 3.11-.35 8.47 4.03 7.79Zm-1.35-12.5c-3.3-.58-5.07-4.04-3.59-7 1.96-3.91 7.88-3.28 8.99.95.87 3.36-2.06 6.64-5.4 6.05Zm-26.8-.14c-5.4-1.72-4.23-9.45 1.43-9.46 5.51-.01 6.53 7.86 1.23 9.44-.65.19-2.08.2-2.66.02Zm13 0c-4.2-1.33-4.7-7.04-.79-8.97 4.79-2.38 9.32 3.72 5.66 7.63-1.18 1.26-3.29 1.84-4.87 1.34Zm-10.26-.25c2.37-.74 3.7-3.18 3.06-5.64-1.12-4.29-7.29-4.55-8.82-.37-1.32 3.58 2.1 7.15 5.76 6.01Zm13.64-.24c.93-.46 1.75-1.3 2.2-2.24.48-1.02.48-2.84 0-3.86-2.04-4.29-8.51-3.14-8.81 1.57-.13 2.16 1.08 4.04 3.08 4.74 1.05.37 2.53.28 3.53-.21Zm12.56.24c3.7-1.15 4.36-6.19 1.09-8.32-2-1.29-5.04-.7-6.29 1.22-2.46 3.75.97 8.42 5.2 7.1Z"/></svg>