<svg xmlns="http://www.w3.org/2000/svg" width="51" height="51" viewBox="0 0 51 51"><path fill="#fff" fill-rule="evenodd" stroke="#fff" stroke-width=".385" d="M10.2 51.16c0-.03-.11-1.14-.25-2.48-.37-3.72-.47-5.43-.43-7.86.02-1.22 0-2.22-.04-2.22-.03 0-.8.29-1.7.64s-2.31.87-3.15 1.16l-1.52.52-.16.42c-.1.22-.36.95-.6 1.61-.6 1.7-1.35 3.14-1.35 2.62 0-.09.14-.46.31-.84.17-.37.55-1.33.84-2.13.78-2.14.59-1.9 1.93-2.34 1.42-.47 1.37-.42 1.18-1.07-.2-.65-.2-.69-.02-.69.15 0 .19.1.31.68.04.18.09.31.12.28.12-.11-.21-1.16-.38-1.21-.09-.03-.46-.31-.8-.62l-.63-.56-.46.5C2.05 39.05 1.12 41.7.79 45.05c-.13 1.38-.15 1.49-.29 1.4-.28-.17.18-3.7.72-5.45.21-.68.79-1.96 1.23-2.7l.26-.45-.49.52c-.92.99-1.8 3-2.07 4.71l-.13.87-.01-.91c-.02-1.91 1.28-4.55 2.78-5.64l.62-.45-.05-.8c-.03-.44-.06-1.08-.06-1.42v-.63H1.65c-1.4 0-1.65-.02-1.65-.15s.64-.15 5.18-.15h5.18l.32-.33.32-.33V18.13l-.25-.23c-.37-.35-.85-.38-6.08-.39-3.7-.01-4.68-.04-4.65-.13.04-.1.53-.14 1.94-.16l1.9-.02.19-.35c.1-.2.41-.56.68-.82l.49-.46 2.17.06c1.67.04 2.27.09 2.66.22.78.27 2.61 1.19 3.56 1.78l.87.55.07-1.12c.09-1.47.49-4.27.96-6.63.15-.77 2.8-4.35 3.66-4.95 3.04-2.13 3.51-2.41 4.67-2.71 2.17-.56 3.14-.32 5.94 1.49 2.37 1.52 2.17 1.35 3.03 2.56.39.55 1.05 1.43 1.48 1.96.42.53.81 1.03.85 1.1.13.22.35 1.27.66 3.17.16.99.37 2.14.46 2.55.09.42.16 1.13.15 1.62l-.01.87.77-.53c2.5-1.72 3.54-2.07 6.3-2.14 2.59-.06 2.47-.09 3.17.96 1.08 1.63 1.56 3.1 1.86 5.7.28 2.51.28 2.65-.1 2.57l-.3-.07v.74c-.01.4-.05 1.07-.1 1.48-.06.41-.16 2.32-.24 4.25-.09 1.93-.18 4.06-.22 4.75l-.06 1.25.58.46c1.71 1.32 2.92 4.03 3.11 6.93.08 1.24-.18 1.2-.3-.04-.23-2.53-1.17-4.92-2.37-6.05l-.33-.3.25.4c.88 1.41 1.48 3.12 1.89 5.34.17.91.32 1.68.35 1.72.07.12-.17.22-.26.13-.05-.05-.18-.65-.3-1.34-.48-2.87-1.49-5.41-2.65-6.74l-.35-.39-.48.44c-.26.24-.61.54-.77.66-.17.13-.23.22-.15.2.12-.02.14.07.11.43-.09 1.03-.18.91 1.09 1.35 1.34.47 1.21.3 2.15 2.64.43 1.07.63 1.67.57 1.73-.12.12-.2-.01-.62-1.08-.17-.43-.49-1.2-.72-1.71l-.4-.92-.81-.27c-.45-.15-1.86-.67-3.14-1.15-1.28-.49-2.33-.89-2.35-.89s-.04.66-.06 1.48c-.04 2.71-.22 4.96-.69 8.9-.24 1.99-.29 2.22-.45 2.22-.14 0-.17-.06-.14-.22.45-2.05 1.01-9.03.97-11.94l-.01-.6-1.21-.45c-.67-.24-1.27-.46-1.32-.48-.06-.02-.07.04-.04.13.24.63.46 2.11.37 2.51-.05.23-.42 2.65-.81 5.36-.39 2.72-.73 5.11-.76 5.32-.04.28-.1.37-.25.37-.14 0-.18-.05-.14-.17.1-.35.26-1.43.91-5.97.36-2.52.7-4.77.75-4.99.08-.39-.29-2.51-.48-2.68-.07-.07-2.27-.89-2.37-.89-.03 0-.05.27-.05.59 0 1.89-1.15 3.25-3.85 4.56-1.54.74-4.52 2.1-5.47 2.49l-.38.15v3.45c0 3.01-.02 3.46-.15 3.46s-.15-.44-.15-3.34v-3.34l-.4-.04-.4-.04v3.38c0 2.92-.02 3.38-.15 3.38s-.15-.48-.17-3.47l-.03-3.47-2.6-1.16c-4.22-1.89-4.63-2.1-5.42-2.79-.88-.77-1.32-1.71-1.41-3.04-.02-.42-.05-.77-.07-.77-.01 0-.55.2-1.21.44l-1.19.43-.29 1.14-.28 1.14.26 1.65c.25 1.56.82 6.09 1.06 8.4.06.58.13 1.15.16 1.28.03.15 0 .22-.11.22-.19 0-.17.14-.7-4.35-.25-2.14-.58-4.63-.72-5.52l-.26-1.62.22-1.02c.13-.55.2-1.03.17-1.06-.03-.04-.57.13-1.2.36-1.36.51-1.26.24-1.26 3.21 0 2.28.09 3.7.45 7.31.3 2.91.29 2.69.1 2.69-.08 0-.15-.02-.15-.04Zm15.49-7.05c.11-.07.13-.45.1-1.96l-.04-1.87.35-.12c.93-.32 3.31-1.45 4.75-2.25 1.92-1.06 1.66-.34 2-5.61.14-2.17.37-5.25.5-6.85.45-5.54.59-9.38.46-12.78l-.1-2.49-.41-.51c-.22-.29-.8-1.05-1.28-1.71l-.87-1.18-1.9-1.27c-3.55-2.38-4.49-2.35-8.15.26l-1.65 1.18-1.16 1.56-1.16 1.55-.12 1.65c-.27 3.98-.1 8.01.74 17.55.24 2.8.5 5.68.56 6.39.06.72.13 1.33.15 1.36.18.3 4.18 2.37 5.59 2.9.5.18.91.34.93.35s.03.88.02 1.92c-.01 1.75.01 1.91.17 1.95.29.08.37.07.52-.02Zm-1.01-1.67-.03-1.46-1.65-.67c-2.21-.9-5.34-2.43-5.72-2.8-.13-.13-1.19-10.66-1.53-15.16-.5-6.68-.49-6.1-.2-9.8.06-.87-.07-.23-.41 1.95-.3 1.99-.3 7.02.01 11.4.08 1.13.19 4.23.25 6.9l.12 4.85.3.9c.53 1.55 1.01 1.87 6.33 4.26 1.32.6 2.43 1.08 2.48 1.09.04 0 .06-.66.05-1.46Zm3.59.57c5.5-2.46 6.28-2.98 6.92-4.59l.3-.77.05-4.85c.03-2.91.13-6.33.25-8.55.37-6.79.37-7.5.07-9-.14-.71-.32-1.66-.39-2.1-.13-.76-.13-.64-.2 2.7-.06 3.1-.27 6.99-.57 10.45-.25 2.96-.83 9.26-.93 10.2l-.12 1.05-2.02 1.01c-1.11.55-2.81 1.32-3.77 1.7l-1.76.69v1.48c0 .82.04 1.47.09 1.47s.99-.4 2.08-.89Zm-3.57-2.45c0-.02-.37-.18-.82-.36-1.14-.45-3.61-1.69-4.77-2.39l-.96-.58-.17-1.84c-1.39-15.27-1.6-19.35-1.27-23.88l.12-1.54 1.19-1.61 1.19-1.6 1.78-1.27c2.03-1.45 2.36-1.63 3.23-1.84 1.43-.34 2.66-.06 4.23.96 2.79 1.8 2.75 1.77 3.91 3.32.59.78 1.21 1.59 1.37 1.79l.3.38.1 2.22c.14 3.57-.01 7.88-.48 13.38-.2 2.36-.7 9.38-.78 10.99-.02.43-.02.43-.87.93-1.24.74-3.5 1.88-4.7 2.38-.91.37-1.65.77-1.05.56 1.17-.41 3.58-1.45 5.15-2.24l1.95-.97.07-.65c.27-2.27.85-8.79 1.18-13.2.28-3.62.43-7.86.37-10.18-.04-1.59-.02-1.92.09-1.92.16 0 .17-.04.05-.5-.05-.19-.12-.47-.15-.62-.03-.14-.4-.68-.82-1.2a49 49 0 0 1-1.55-2.03l-.78-1.1-2.04-1.33c-3.77-2.45-5.18-2.45-8.83.02-1.04.71-1.97 1.35-2.07 1.44-.16.14-2.28 2.98-2.83 3.8-.26.37-.32.84-.11.8.07-.02.11.06.1.17-.49 5.03-.38 8.18.68 18.65.5 4.98.8 7.85.82 7.85.01 0 .18.08.37.19 2.5 1.33 3.91 1.99 5.8 2.72.85.33 1 .38 1 .3ZM8.34 38.69c2.02-.78 5.7-2.13 6.49-2.38.2-.07.37-.18.37-.24-.04-2.5-.24-8.1-.35-9.99-.08-1.39-.18-3.64-.21-5.01l-.07-2.47-.61-.39c-3.11-1.96-4.21-2.3-7.28-2.31H5.3l-.4.36c-.44.4-.55.67-.14.35.45-.36 1.21-.29 2.15.19.83.42 1.05.48 1.12.28.04-.1.07-.1.18-.01.07.07.2.13.29.13.08-.01-.04-.12-.27-.26-.41-.25-.48-.44-.17-.44.07 0 .35.15.61.34.38.26.62.35 1.13.4.88.09 2.53 1.37 2.19 1.71-.07.07-.2-.01-.4-.25l-.29-.34v7.37c0 7.93.01 7.74-.5 8.1-.18.13-.22.29-.27 1.21l-.06 1.07-1.16.58c-.64.32-1.68.82-2.31 1.11s-1.16.54-1.18.55c-.03.03.13.71.23 1.03.06.17-.04.2 2.29-.69Zm36.77.29c.08-.29.14-.57.14-.61 0-.05-.34-.22-.75-.38-.41-.17-1.49-.66-2.4-1.1l-1.65-.79-.07-.52c-.54-4.01-.71-8.88-.32-8.88.09 0 .15.13.15.38.01.2.06-.3.1-1.13.17-3.13.54-6.13.83-6.8.78-1.72 4.13-3.56 5.02-2.75.22.21.25.22.16.05a2.6 2.6 0 0 0-.41-.49l-.3-.29-2.13.06c-2.68.07-3.57.37-6.05 2.04-1.12.75-1.04.54-1.14 2.95-.05 1.17-.16 3.3-.25 4.73-.2 3.52-.31 10.75-.15 10.75s7.59 2.74 8.56 3.16c.47.21.52.17.66-.38Zm-34.81 0c0-.16 1.37-.91 1.51-.83.15.1.02.22-.65.6-.67.37-.86.42-.86.23Zm29.6-.25c-.99-.51-.91-.76.09-.3.59.28.83.46.75.58-.07.12-.09.11-.84-.28ZM4.99 37.38c-.92-.88-.97-.99-1.11-2.21-.16-1.47-.32-1.39-.25.13l.05 1.2.58.52c1.18 1.09 1.81 1.39.73.36Zm41.12.28c.24-.18.58-.5.76-.7l.32-.37.12-2.78c.06-1.53.09-2.86.07-2.97-.08-.35-.27 1.39-.39 3.46-.13 2.31-.15 2.38-1.13 3.28-.54.5-.37.56.25.08Zm-37.83-.82 1.92-.92v-.69c0-.37.03-.78.06-.9.06-.23.06-.23-1.18-.23H7.83l.08.54c.16 1.19.15 1.91-.02 1.94-.16.03-.38-2.16-.24-2.39.04-.05-.68-.09-1.76-.09H4.08l.06.55c.2 1.83.09 1.56 1.02 2.45.61.57.89.77 1.02.73.09-.03 1.04-.48 2.1-.99Zm37.89-.06.4-.53.12-2.02c.06-1.11.08-2.08.05-2.17-.03-.08.08-.7.26-1.36.3-1.17.49-2.66.65-5.22l.07-1.06-.57-.07c-.31-.04-1.06-.05-1.66-.03-.61.03-1.12.01-1.15-.03-.11-.19-1.34-5.34-1.3-5.46.03-.07.13-.13.23-.13s.66-.07 1.25-.16l1.07-.17-.16-.24c-.09-.14-.44-.47-.76-.73l-.6-.49-.36.19c-.68.35-1.21.8-1.79 1.53l-.58.73-.22 1.4c-.42 2.61-.47 3.57-.47 9.09 0 2.92.04 5.47.08 5.68.09.42.6.72 3.11 1.83l1.2.53.36-.29c.21-.16.55-.53.77-.82Zm-3.37-.35c.01-1.14.38-4.23.5-4.23.18 0 .19.23.05 1.61-.08.79-.17 1.74-.21 2.12-.04.48-.1.67-.2.67-.08 0-.14-.08-.14-.17ZM2.17 31.74c-.09-.09-.09-4.13 0-8.71l.06-3.53h2.56l.21.58c.12.31.45 1.18.72 1.92s.54 1.42.59 1.5c.05.09.09-.69.09-1.93v-2.08l1.33.03 1.32.03.03 6.14.02 6.14-1.36-.06c-.75-.03-1.37-.07-1.4-.09-.02-.02-.35-.92-.73-1.99l-.7-1.94-.03 2-.03 2-1.31.03c-.71.01-1.33-.01-1.37-.04Zm22.04-.25c-1.65-.32-3.14-1.18-3.87-2.24-.2-.3-.54-.66-.75-.8-.3-.22-.4-.36-.5-.78-.06-.29-.34-1.15-.6-1.92-.9-2.61-1.44-6.3-1.41-9.6s.14-4.25.55-4.81c.53-.72.79-.56.28.18l-.3.43L17.5 15l-.12 3.05.51 3.1c.58 3.48.6 3.59 1.09 4.35.46.71 1.12 2.05 1.12 2.24 0 .35-.22.12-.6-.62-.23-.42-.38-.68-.35-.57.04.11.13.47.2.8.17.72.35.9 1.73 1.66 3.41 1.9 5.64 1.86 9.05-.17 1.03-.62 1.12-.74 1.37-1.83.12-.53.35-1.34.51-1.8.92-2.65 1.45-7.72 1.2-11.5l-.12-1.85-.35-.4c-.36-.41-.4-.51-.25-.6.04-.03.27.17.51.45l.42.5.15 2.17c.31 4.54-.12 8.18-1.43 12.24-.7 2.18-.58 1.98-2.28 3.69-1.24 1.25-3.75 1.95-5.65 1.58ZM4.55 28.72c0-1.97.03-2.72.11-2.72.07 0 .15.17.19.38.05.28 1.62 4.9 1.69 4.99.01.01.52.05 1.14.09l1.12.07V19.8H6.7l-.02 2.57c-.03 2.46-.12 3.17-.32 2.37-.06-.22-1.48-4.19-1.71-4.76-.06-.16-.21-.18-1.11-.18H2.5l-.02 3.13c-.01 1.71-.03 4.35-.03 5.85v2.73l1.05-.03 1.05-.03zm22.39 2.38c1-.25 2.21-.89 2.75-1.44l.44-.45-.84.44c-1.58.82-2.24.99-3.84 1-1.8 0-2.68-.27-4.65-1.43-.14-.08.01.11.33.42 1.42 1.37 3.81 1.97 5.81 1.46Zm3.57-3.22c.01-.23.84-1.82.97-1.86.2-.06.13.19-.31 1.08-.38.77-.68 1.12-.66.78Zm17.86-4.09c-.08-.67.02-.61-1.45-.72-.7-.06-1.28-.11-1.3-.12-.02-.02-.18-.61-.37-1.31-.19-.71-.39-1.44-.44-1.63-.14-.46-.15-.45 1.04-.46 1.4 0 1.51.08 1.87 1.41.29 1.06.32.64.04-.73-.13-.68-1.16-1.52-1.86-1.53-.66 0-2.61.33-2.56.44.02.06.3 1.17.62 2.47l.59 2.36 1.6.05c.88.03 1.71.1 1.85.16.4.17.43.15.37-.39Zm-.62-1.21c-.33-1.54-.59-2.49-.7-2.58-.13-.11-1.8-.19-1.89-.09-.02.02.11.6.3 1.28.19.69.34 1.3.34 1.37 0 .12.16.15 1.63.22.34.02.37 0 .32-.2Zm-.26-3.7c-.05-.18-.09-.33-.09-.34s-.08-.04-.19-.07c-.1-.02-.33-.32-.51-.65-.36-.67-.99-1.42-1.2-1.42-.08 0 .02.17.22.38.43.44 1.11 1.58 1.05 1.75-.03.1.57.65.75.66.04.01.02-.14-.03-.31Zm-7.19-.12c0-.17 1.79-1.86 1.97-1.86.26 0 .11.19-.82 1.09-.95.91-1.15 1.04-1.15.77Zm5.95-.69c-.65-1.01-.84-1.26-1.07-1.38-.2-.1-.18-.07.08.22.49.54.74.91.74 1.08-.01.1-.21-.05-.53-.4-.29-.31-.66-.64-.82-.75-.16-.1.1.2.59.66.72.69 1.18 1.07 1.33 1.1.01 0-.13-.24-.32-.53Zm-27.6-.06c-.36-.59 1.59-6.05 2.81-7.86C22.32 8.86 24.95 6 25.27 6c.42 0 3.27 3.14 4.14 4.57 1.13 1.86 2.92 7.03 2.56 7.39-.04.04-1.02-.05-2.19-.19-3.8-.48-5.44-.46-9.25.08-1.99.29-1.8.27-1.88.16Zm2.13-.51c3.83-.53 5.95-.51 9.86.06.55.07 1.01.13 1.02.11.06-.05-.64-2.62-.96-3.59-.45-1.32-1.37-3.18-2.11-4.23-.64-.9-3.09-3.45-3.32-3.45-.55-.01-3.53 3.67-4.42 5.45-1.1 2.22-2.22 6.11-1.7 5.91.08-.03.81-.15 1.63-.26Zm-15.75-.45c.2-.08.5-.15.66-.15s.33-.04.36-.1c.14-.23-.89-.1-1.2.15-.35.28-.31.31.18.1Zm16.2-2.02c-.06-.15 1.72-3.82 2.32-4.78.71-1.13 1.57-1.92 1.91-1.75.66.36 1.76 1.84 2.56 3.45.58 1.17 1.33 3.03 1.25 3.11-.03.03-.56 0-1.19-.07-1.42-.16-4.07-.15-5.62.03-.95.11-1.19.12-1.23.01Zm2.57-.44c1.22-.11 3.05-.06 4.4.1.36.05.66.07.68.06.1-.09-1.36-3.21-1.95-4.15-.38-.6-1.5-1.8-1.69-1.8-.24 0-1.23 1.2-1.74 2.1-.47.85-1.9 3.75-1.9 3.88 0 .02.21.02.48-.02.26-.03 1.03-.11 1.72-.17Zm7.81-6.04c-.37-.56-.97-1.13-2.11-2.04-.22-.17-.23-.2-.08-.26.4-.16 2.88 2.27 2.88 2.82 0 .3-.28.08-.69-.52Zm-13.31.48c0-.15 1.01-1.25 1.52-1.66 1.27-1.02 1.68-1.26 1.68-.97 0 .04-.43.4-.96.8-.52.4-1.19.99-1.47 1.31-.46.52-.77.73-.77.52Zm4.85-3.44c-.09-.14-.07-.16 1.13-.86l1.07-.61.85.46c1.17.63 1.6.91 1.6 1.02 0 .19-.24.1-1.3-.5-.59-.33-1.09-.6-1.12-.6-.1 0-1.88 1.02-1.93 1.11-.08.12-.22.11-.3-.02Z"/></svg>