<svg xmlns="http://www.w3.org/2000/svg" width="51" height="51" viewBox="0 0 51 51"><path fill="#fff" fill-rule="evenodd" stroke="#fff" stroke-width=".719" d="M23.64 47.4C8.17 45.89-.94 30 5.63 15.97 9.58 7.54 17.76 2.79 27.29 3.4c10.34.66 19 9.14 20.22 19.8.5 4.43-.94 10.31-3.51 14.28-4.36 6.75-12.46 10.69-20.36 9.92Zm4.46-.35c.06-.04.1-.52.1-1.16V44.8h-5.3v1.1c0 1.24-.06 1.16.95 1.24.72.06 4.13-.01 4.25-.09Zm-5.5-1.15v-1.1H17v.33c0 .33.01.33 1.01.71 1.55.57 3.55 1.09 4.47 1.15.09.01.12-.27.12-1.09Zm7.45.83c.89-.17 2.72-.73 3.53-1.09.46-.2.52-.26.52-.53v-.31h-5.6v2.21l.38-.06c.2-.04.73-.13 1.17-.22ZM16.7 42.65V40l-2.87-.02-2.88-.03-.05-15.34-.05-15.33-.68.67c-1.67 1.65-3.4 4.18-4.41 6.43l-.37.82-.03 8.13c-.02 6.36 0 8.2.1 8.49 1.19 3.45 4.86 7.81 8.44 10.03.91.56 2.57 1.44 2.72 1.45.05 0 .08-1.19.08-2.65Zm18.63 2.24a21.67 21.67 0 0 0 9.69-9.84l.58-1.2v-16.9l-.58-1.15c-1.01-2.02-2.23-3.73-3.96-5.55l-.85-.9-.01 15.33V40h-5.8v2.65c0 1.46.02 2.65.05 2.65s.42-.19.88-.41ZM22.6 37.45V30.4h-.59a7 7 0 0 1-.9-.06l-.31-.06V20.9h1.7V5.4l-2.72.02-2.73.03-.03 19.53L17 44.5h5.6zm5.6.7V31.8h-2.34c-1.28 0-2.48.03-2.65.06l-.31.07V44.5h5.3zm5.9-13.2V5.4l-2.77.02-2.78.03-.03 7.72-.02 7.72.87.03.88.03.03 4.64c.02 3.65 0 4.66-.1 4.73-.07.04-.48.08-.9.08h-.78v14.1h5.6zM16.7 22.6c0-9.4-.03-17.1-.07-17.1-.4 0-3.57 1.92-4.85 2.95l-.58.45v30.8h5.5zm23.18 1.78-.03-15.32-.7-.59c-1.21-1.02-4.18-2.86-4.63-2.87-.09 0-.12 3.48-.12 17.05V39.7h5.5zm6.72 6.17c1.06-4.14.91-8.17-.44-12l-.25-.7v7.5c0 8.42-.04 8.05.69 5.2ZM5.09 25.33v-7.38l-.2.55c-1.14 3.2-1.44 7.52-.75 10.9.21 1.05.84 3.3.93 3.3.01 0 .03-3.32.02-7.37ZM28.2 31v-.6h-5.3v1.2h5.3zm1.8-5.35V21.2h-9.03l.07.38c.03.2.06 2.2.06 4.45v4.07H30zm-1.78-10.92c.02-3.4.02-6.88.01-7.73l-.02-1.55-2.71-.03-2.7-.02v15.5h5.4zM20.73 5.1h1.77V3.8l-.32.06c-1.75.29-4.4 1.02-4.54 1.26-.05.08.11.09.62.05.38-.04 1.49-.07 2.47-.07Zm7.33.02c.07-.04.14-.35.15-.69l.04-.63-.45-.07c-.6-.09-3.7-.09-4.42.01l-.58.07V5.1l2.53.03c1.38.01 2.54.03 2.57.05.03.01.1-.02.16-.06Zm5.3-.01c-.16-.25-2.93-1.04-4.43-1.25l-.43-.06v1.3l2.18.03c1.19.01 2.3.03 2.45.05.16.01.26-.02.23-.07Z"/></svg>