<svg xmlns="http://www.w3.org/2000/svg" width="51" height="51" viewBox="0 0 51 51"><path fill="#fff" fill-rule="evenodd" stroke="#fff" stroke-width=".797" d="M31.23 36c-1.47-.31-2.51-1.59-2.56-3.17l-.02-.64-3.45-2c-1.9-1.11-3.51-2.03-3.58-2.06s-.41.1-.75.28c-1.69.92-3.9.11-4.56-1.66-1.07-2.85 1.82-5.38 4.56-4l.66.33 2.16-1.27c1.19-.7 2.77-1.62 3.52-2.05l1.37-.78.04-.82c.16-2.85 3.35-4.17 5.43-2.25 2.76 2.54-.36 6.94-3.71 5.24l-.73-.37-3.54 2.07-3.54 2.07.02.66.01.66.8.46c.43.26 2.04 1.2 3.57 2.09l2.79 1.62.66-.33c1.63-.81 3.46-.22 4.3 1.37.39.73.39 2.07 0 2.81-.66 1.25-2.15 2.01-3.45 1.74Zm1.94-.48c1.8-.93 2.18-3.29.75-4.72-1.08-1.07-2.46-1.21-3.8-.37-.34.22-.42.24-.58.13-.21-.15-5.87-3.45-6.7-3.91l-.5-.28v-1.56l.9-.54c.5-.3 2.16-1.27 3.68-2.16l2.78-1.62.29.2c.6.43 1.14.61 1.86.61 3.23 0 4.21-4.41 1.28-5.77-2.08-.96-4.28.44-4.28 2.72v.81l-2.34 1.35c-1.28.74-2.92 1.69-3.63 2.12-1.45.86-1.4.84-1.76.58-2.07-1.47-4.95.07-4.8 2.57.14 2.42 2.68 3.71 4.74 2.41l.47-.3.81.49c.44.27 1.58.93 2.51 1.47.94.54 2.22 1.29 2.86 1.66l1.17.68v.71c.02 1.8 1.32 3.07 3.07 2.98.56-.03.92-.11 1.22-.26Z"/></svg>