<svg xmlns="http://www.w3.org/2000/svg" width="51" height="51" viewBox="0 0 51 51"><path fill="#fff" fill-rule="evenodd" stroke="#fff" stroke-width=".451" d="m14.84 51.03.11-.53c.1-.51.62-2.76.96-4.14.23-.95.29-1.42.29-2.27v-1.07l-8 .06c-5.93.04-8 .02-8-.06 0-.07.1-.14.23-.16.12-.03.31-.07.42-.09.16-.04.15-.05-.05-.06-.27-.01-.8-.58-.8-.85 0-.25.13-.19.39.19.13.19.27.33.31.3.1-.06.71.15.91.31.23.2.29.17.27-.11-.02-.19-.08-.25-.26-.25-.2 0-.24-.04-.2-.24.04-.19 0-.26-.19-.3-.12-.04-.23-.13-.23-.21 0-.21.61.02.67.25.06.21.47.32.62.17.13-.13.16-.09.25.26.05.23.03.27-.14.27-.11 0-.2.07-.2.15 0 .11.11.15.38.15.5 0 .71-.34.38-.61-.12-.1-.18-.2-.15-.24.11-.1.58.17.64.37.08.22.25.24.25.03 0-.08.05-.15.1-.15.14 0 .12.11-.05.34-.11.15-.17.17-.29.07-.1-.08-.16-.09-.21-.01-.08.13.16.23.47.18.15-.02.24-.11.26-.25.02-.13.07-.23.12-.23.06 0 .06-.1 0-.24-.05-.15-.05-.27.03-.35s.07-.11-.03-.11-.11-.03-.03-.11.17-.07.32.03c.12.08.18.18.14.21-.11.12-.15.79-.03.72.05-.03.1-.14.1-.23 0-.12.03-.13.12-.04.14.14-.06.42-.33.42-.1 0-.21.05-.25.12-.08.12 11.69.04 12.02-.09.16-.06.16-.44-.03-1.81l-.05-.42-1.67.07c-.91.05-2.19.08-2.84.08-.64 0-1.17.03-1.17.07 0 .05-.05.08-.11.08s-.08-.07-.05-.16c.03-.08.02-.12-.03-.09-.12.07-.61-.15-.61-.27 0-.1.72.01.8.12.03.04.28.04.55 0 .28-.04 1.54-.14 2.82-.21l2.31-.12-.04-.31c-.03-.17-.11-.89-.17-1.61l-.12-1.3-6.15-.06-6.15-.06-1.69-.31C.83 36.14.06 36 .04 36S0 35.93 0 35.84c0-.18.59-.16 2.22.08.43.06.8.1.82.07.02-.02.24-.55.49-1.17l.46-1.13-.27-.09c-.15-.05-.4-.17-.56-.25-.3-.16-.68 0-2.28.95-.21.12-.38.2-.38.17 0-.11 1.71-1.19 2.72-1.72.6-.32.95-.55.83-.56-.11-.01-1.03-.04-2.04-.08-1.44-.05-1.85-.09-1.89-.2s.34-.13 2.36-.09l2.41.05.12-.28c.13-.32.39-.59.39-.4 0 .06-.07.28-.15.48s-.14.38-.12.4c.17.17 2.31.45 3.49.46.76.01 1.38.04 1.38.07s-.07.38-.17.78c-.2.88-.26.82 1.09 1.11 1.67.36 1.63.38 1.44-.97-.07-.49.12-.04.29.68.1.41.29 1.03.42 1.36l.24.61 1.12.05c1.36.07 1.32.11 1.13-.99-.49-2.82-1.54-5.5-3.13-8.02-.37-.58-.63-1.56-.82-3.16-.06-.49-.25-1.3-.42-1.8l-.31-.9-1.86-.03c-1.75-.04-2.3-.12-1.88-.28.1-.04.97-.04 1.93-.01l1.75.06-.06-.22c-.03-.12-.28-1.07-.56-2.12-.27-1.04-.54-2.06-.6-2.25-.36-1.22.74-3.43 2.96-5.95.48-.55 1.28-1.54 1.77-2.2s1-1.33 1.13-1.48c.18-.22.24-.41.24-.78 0-.51.28-1.4.54-1.68.89-.98 1.28-1.21 2.01-1.21h.62l.45-.78c.73-1.25 2.02-2.46 2.55-2.4.28.03.28.03-.19.36-.97.67-2.13 2.03-2.44 2.85-.15.4.14.12.46-.45C20.48 1.41 22.09 0 22.88 0h.46l-.51.25c-.83.42-.93.59-.57.98.23.24 1.47 1.76 1.6 1.95.01.02.13-.02.25-.09.23-.12.23-.12.03-.19-.11-.04-.39-.44-.63-.89-.34-.62-.48-.8-.63-.78-.42.04-.46-.32-.08-.64.59-.5 1.44-.5 1.12.01-.12.2.35 1.19.73 1.5.08.07.15.18.15.24 0 .2.18.39.29.31.08-.04.09-.11.02-.19-.09-.1-.91-2.29-.91-2.42 0-.37.35.23.7 1.21l.45 1.25h.4c.22 0 .47-.05.55-.1.1-.06.11-.1.03-.1s-.13-.15-.13-.4c0-.43.49-.62.64-.24.09.23.08.24-.16.34-.17.06-.18.09-.06.09.09.01.19.09.23.2.05.17.81.38.94.26.02-.03.18-.59.37-1.26.34-1.26.37-1.33.52-1.28.05.02-.06.58-.24 1.24-.42 1.48-.42 1.46.02.94.56-.67.88-1.36.68-1.47s-.14-.46.09-.5c.35-.07 1.29.45 1.25.7a.28.28 0 0 1-.26.26c-.16.02-.35.23-.6.64-.2.33-.47.75-.59.94-.19.28-.2.34-.07.45.08.06.15.1.17.08.01-.02.1-.2.2-.39s.49-.73.88-1.19c.81-.98.81-.95 0-1.38L29.58 0h.44c1.08 0 3 2.01 3.45 3.62.11.39.2.55.29.51.55-.21-.97-2.7-2.29-3.74-.44-.35-.46-.39-.24-.39.56 0 1.91 1.54 2.59 2.95.39.81.42.85.73.85.25 0 .38.08.58.32.13.18.54.62.91.98.51.51.66.71.66.95 0 .16.09.84.2 1.5s.2 1.36.2 1.56c0 .62.13.69 1 .54.41-.08 1.56-.25 2.55-.4 3.1-.44 7.26-1.33 7.53-1.59.04-.04-.03-.16-.16-.27-.17-.13-.23-.27-.2-.46q.06-.555-1.02-.51l-.55.03.03.63c.02.36 0 .62-.06.62-.12 0-.22-.34-.22-.77 0-.24-.05-.33-.16-.33-.13 0-.15.07-.09.38.11.55.11.57 0 .6-.05.02-.17-.19-.25-.46s-.2-.47-.26-.45c-.08.02-.03.25.12.69.33.9.22 1.3-.13.46-.08-.2-.2-.48-.26-.62-.15-.37-.21-.02-.08.47.16.56-.04.62-.23.07-.09-.26-.16-.56-.16-.67 0-.15-.05-.18-.22-.13-.13.03-.31.06-.42.06q-.18 0-.12.15c.17.43.16.47-.08.2l-.25-.3-.01.3c0 .17.07.43.15.59.23.43.18.53-.12.24-.72-.73-.29-1.48.85-1.48.47 0 .62-.03.62-.15 0-.13.2-.19.88-.27.41-.05.18-.23-.25-.21-.52.03-.57-.12-.08-.21.29-.06.35-.11.35-.32 0-.13.07-.27.15-.3.08-.04.15-.13.15-.21 0-.26.25-.08.28.2q.03.27-.12.33c-.47.18 0 .54.71.54.7 0 1.13.29 1.13.76 0 .28.05.37.21.41.14.04.19.12.16.24-.05.18.14.17.41-.04.08-.06.17-.05.29.04.15.13.15.11-.01-.19C49 7.01 49 7 49.19 7c.27 0 .37-.37.17-.59-.09-.1-.16-.22-.16-.28 0-.13-.5-.24-.76-.17-.15.04-.22-.03-.31-.27-.11-.28-.15-.3-.28-.19-.2.17-.35.03-.44-.42-.05-.23-.12-.33-.25-.33-.29 0-.43.29-.29.64.13.37.06.47-.19.24-.18-.16-.24-.68-.1-.89.21-.31.75-.38.93-.11.04.05.14.05.26-.01.31-.17.63.11.63.53 0 .37.15.54.33.36.19-.19.52-.14.37.05-.11.13-.1.16.08.21.24.06.76.99.61 1.09-.12.07-.11.51.01.59.14.09.12.26-.02.24-.31-.04-.46.03-.51.22-.03.12-.1.18-.16.14-.06-.03-.08-.11-.05-.17.05-.07.02-.09-.07-.06-1.43.55-5.11 1.31-8.95 1.86l-2.62.37 1.24 2.47c2.86 5.71 3.04 6.48 2.03 8.32-.54.97-1.96 4.01-2.34 5.01-.79 2.05-1.27 3.01-1.79 3.55-1.66 1.74-2.21 2.51-2.45 3.4-.23.86-.88 3.12-.98 3.36-.04.12.35.14 2.21.14 2.58 0 2.43.06 2.53-.98.05-.51.22-1.07.23-.74 0 .08.19.12.59.12h.59l.15-.77.14-.78.02.79.01.78.48-.07c.46-.06 2.24-.45 2.3-.5.01-.01-.04-.31-.13-.66-.23-1.01-.3-.94.93-.94.99 0 3.26-.29 3.52-.45.07-.04.06-.18-.05-.43-.26-.64-.06-.69.25-.06.17.33.25.4.43.36.12-.03.83-.08 1.57-.12.74-.03 1.56-.08 1.83-.11.42-.04.47-.02.47.15 0 .18-.11.19-1.8.26l-1.8.08.88.49c1.06.61 2.52 1.55 2.52 1.63 0 .03-.47-.19-1.04-.49l-1.03-.56-.5.22-.5.23.47 1.1c.54 1.26.47 1.22 1.72 1.01.5-.09.95-.16 1-.16.16 0 .08.39-.09.44-1.61.48-3.17.55-11.44.56h-6.77l-.06.42c-.09.63-.26 2.29-.26 2.59v.26l3.58.07c1.96.03 3.82.09 4.14.12.51.06.56.05.55-.12-.02-.15.06-.2.37-.22.44-.04.48.21.04.26-.19.02-.25.08-.21.21.07.28-.28.3-2.47.21-1.07-.05-2.88-.09-4.01-.1h-2.06l-.06.68c-.04.37-.07.86-.07 1.1v.42l4.38.01c2.4 0 5.72.04 7.37.08 3.37.08 3.35.08 3.27-.22-.04-.17-.02-.2.08-.1.09.08.19.09.36.01.28-.13.32-.38.07-.36-.37.03-.55-.02-.5-.14.11-.36.97-.11.97.29 0 .13.07.26.15.29.12.05.13.09.04.2-.1.12.01.14.67.11.87-.03 1.06-.1.97-.33-.04-.11-.09-.12-.16-.05-.16.16-.29.13-.25-.06.02-.13.14-.18.38-.19.19-.01.47-.05.63-.09.23-.06.27-.04.27.14 0 .11.05.21.1.21.19 0 .1.19-.12.26-.19.06-.19.07-.05.16.51.28.12.31-3.15.24-1.83-.03-6.06-.09-9.4-.12l-6.08-.07v1.37c0 1.7.24 4.12.66 6.59.07.37.06.39-.17.35-.22-.03-.25-.11-.5-1.73-.36-2.26-.37-1.74-.03 1.3.12 1.11-.15.14-.35-1.25-.4-2.79-.45-4.82-.21-7.6.31-3.57.39-5.37.4-8.9l.02-3.15-.54-.42c-.65-.52-.63-.52-.88-.04-.18.37-.19.41-.03.73.74 1.46-.75 5.24-2.95 7.48l-.74.75.56-.68c1.02-1.24 2.19-3.28 2.51-4.35.12-.42-.36 0-1.15.98-.39.49-.85.99-1.02 1.11-.25.18-.19.07.29-.52.32-.41.72-.91.88-1.13l.29-.39-.24.08c-.14.04-.31.17-.39.29-1.05 1.61-3.5 3.12-4.42 2.73l-.34-.15h.58c1.17-.01 2.58-.84 3.58-2.09l.59-.75-.6-.3c-.72-.36-1.23-1.02-1.41-1.85-.16-.7-.21-.67 1.77-1.15 1.77-.43 1.88-.48 2.17-.97.27-.45.03-.46-.28-.01-.15.22-.31.4-.36.4s.05-.19.21-.42c.36-.54.22-.79-.18-.33-.15.17-.38.39-.52.5l-.25.2.2-.25c.11-.14.31-.38.45-.53l.25-.28-.25-.19c-.3-.24-.4-.25-.4-.05 0 .25-.36.88-.66 1.15l-.28.25.23-.32c.46-.67.65-1.23.47-1.41-.15-.15-.16-.15-.16.03 0 .19-.84 1.55-.95 1.55-.03 0 .09-.28.26-.62.31-.61.47-1.38.28-1.38-.05 0-.09.06-.09.13 0 .32-.72 1.58-1.19 2.07l-.52.55.5-.78c.79-1.24 1.13-2.36.97-3.21-.1-.52-.26-.44-.26.12-.01 1.16-.52 2.53-1.21 3.17l-.42.4.32-.47c.35-.52.33-.58-.08-.29-.45.32-1.32.62-1.7.59-.35-.03-.35-.04.24-.21.91-.29 2.38-1.1 1.65-.92-1.44.35-3.05.13-4-.55-.46-.33-.33-.33.51-.01 1.66.65 4.19.49 4.19-.25 0-.08-.15-.04-.42.11-.73.4-1.3.5-2.1.35-.51-.09-.67-.15-.57-.22s.06-.08-.14-.05c-.15.02-.3 0-.33-.04-.03-.05-.12-.09-.2-.09-.87 0-2.34-.97-2.34-1.54 0-.29-.03-.34-.16-.29-.25.09-.11 1.14.22 1.71.32.54.13.46-.22-.09-.25-.41-.31-.44-.51-.31-.09.06.04.52.51 1.77.75 2 .85 2.35.57 1.85-.26-.46-.85-1.99-1.07-2.75-.09-.33-.2-.64-.24-.68-.09-.1-4.07 1.6-4.38 1.88-.11.1-.21 2.87-.15 4.25l.07 1.65.16-1.6.16-1.6-.02 3.35-.03 3.35.18-1.15c.23-1.47.27-.73.06 1.05-.25 2.03-.18 2.84.1 1.23.22-1.29.38-1.94.42-1.81.04.12-.44 3.11-.53 3.25-.03.04-.02.52.02 1.06l.08.97.12-.6c.07-.33.16-.98.2-1.44.11-1.34.21-.69.28 1.94.09 2.93-.19 8.04-.42 7.81-.03-.03.01-1.26.08-2.73.06-1.48.1-3.33.08-4.13l-.03-1.45-.12.7c-.07.39-.17 1.6-.23 2.7-.14 2.74-.31 4.67-.42 4.85-.09.14-.07-.51.07-3.25l.05-.9-.16.47c-.08.26-.25 1.2-.37 2.09-.24 1.72-.47 2.28-.41.97l.03-.73-.16.73c-.14.58-.21.72-.36.72-.13 0-.17-.05-.13-.17Zm10.52-.62c-1.58-1.81-3.57-5.53-4.67-8.7-.44-1.29-.47-1.59-.04-.49.89 2.29 3.06 6.67 3.83 7.72.2.28.7.88 1.1 1.34.39.46.72.85.72.88 0 .2-.36-.09-.94-.75Zm-2.27-1.23c-.67-.92-2.1-4.17-3.11-7.07-.53-1.53-.23-.93.72 1.42 1.14 2.85 1.87 4.49 2.39 5.39.45.78.45.87 0 .26Zm.43-8.25c-.84-1.32-1.09-1.83-1.7-3.43-.33-.85-.69-1.79-.81-2.07-.11-.29-.18-.53-.16-.53.07 0 .42.8 1.07 2.4.51 1.26 1.45 3.19 1.93 3.98.46.74.19.45-.33-.35Zm-16.77-.52c-.1-.1-.04-.31.09-.31.09 0 .12-.08.08-.25-.03-.19 0-.25.14-.25.16 0 .14-.04-.1-.25-.17-.14-.36-.23-.43-.21-.07.03-.15.01-.19-.05-.03-.06.03-.13.15-.16s.21-.1.21-.15-.08-.07-.19-.03c-.13.04-.2 0-.24-.15-.07-.26-.75-.27-1.5-.03-.63.19-.65.22-.47.33.22.13.1.16-.4.1-.36-.05-.41-.08-.26-.15.11-.05.27-.16.37-.26.58-.58 2.83-.57 2.9.01.01.06.03.15.04.2.01.06.03.14.04.19 0 .05.1.13.21.16.24.08.26.37.04.7-.18.28-.2.27.59.25.49-.01.57.01.57.17 0 .17-1.49.3-1.65.14Zm37.88-.81c-.12-.31-.06-.4.29-.53.1-.04.15-.13.11-.25-.1-.4.51-.67 1.44-.65.87.02 1.05.08 1.66.55l.37.3.19-.24c.16-.18.22-.21.32-.11.1.11.09.16-.07.28-.19.14-.18.14.04.15.26 0 .38.21.27.48-.06.14-.08.15-.14.02-.08-.19-.44-.24-.7-.11-.26.14-.5-.11-.31-.34.11-.13.07-.15-.26-.16-.22-.01-.31-.03-.21-.06.24-.06.15-.29-.11-.26-.11.01-.26-.04-.32-.12-.21-.26-1.5-.21-1.57.06-.03.12-.11.18-.19.15s-.14-.01-.14.03c0 .05.07.12.16.15.21.08.11.19-.18.21-.31.02-.48.33-.25.46.2.12.14.29-.11.29-.1 0-.22-.13-.29-.3Zm-20.84-1.96c-1.2-1.39-2.12-2.97-3.08-5.28-.56-1.33-.88-2.56-.46-1.71.27.53.27.53.08-.45-.08-.46.13 0 .5 1.06.72 2.08 1.82 4.43 2.48 5.32.22.28.37.52.34.52s.18.31.45.7c.66.92.58.88-.31-.16Zm14.79-1.56c.08-.18.11-.19.11-.06.01.1.07.18.15.18.16 0 .21-.13.31-.77l.07-.43h-.99l-.07.43c-.04.23-.09.52-.13.65-.04.18-.01.22.19.22.16 0 .29-.08.36-.22Zm4.3.07c.1-.09-.42-1.65-.54-1.65-.08 0-.54.09-1.02.19s-1.08.22-1.33.25l-.46.07-.12.56c-.06.31-.11.6-.11.65 0 .07 3.49 0 3.58-.07Zm-36.44-.07c-.04-.07-.34-.49-.66-.94-.32-.44-.58-.86-.58-.93 0-.11-.57-.41-.78-.41-.08 0-1.02 2.07-1.02 2.23 0 .06.81.11 2.28.15.64.02.82-.01.76-.1Zm2.49-.66c.09-.42.17-.82.17-.88 0-.07-.5-.13-1.42-.17-.79-.03-1.6-.11-1.81-.17-.59-.17-.61-.1-.12.55.24.33.55.79.67 1.02l.23.43h2.12zm3.37.2v-.58l-1.32-.26c-1.49-.3-1.41-.33-1.58.54-.06.33-.14.66-.17.74-.04.12.21.14 1.51.14h1.56zm36.18.43c.11-.11-.92-2.26-1.05-2.21-.08.04-.25.09-.38.12s-.26.12-.28.19c-.07.17-1.38 1.95-1.44 1.95-.09 0 .53-1.02.9-1.47.45-.55.44-.56-.19-.43-.27.05-1.09.13-1.82.16-1.29.07-1.33.08-1.28.28.04.12.14.52.24.9l.17.69 2.55-.07c1.4-.04 2.56-.09 2.58-.11Zm-25.07-1.3c-.96-1.04-1.86-2.77-2.56-4.88-.59-1.79-.57-1.96.04-.32.8 2.14 1.63 3.77 2.56 5.04.53.73.52.77-.04.16ZM9.3 33.86c.05-.13.12-.4.16-.61l.06-.36-.38.03c-.31.02-.43.09-.61.38-.39.61-.51.75-.58.68-.04-.03.05-.27.2-.53.15-.25.25-.48.23-.5-.04-.04-1.61-.24-1.64-.21-.01 0-.05.16-.09.34l-.07.32h.49c.52 0 .83.12.64.25-.07.03-.3.04-.51 0-.22-.04-.4-.03-.4.01 0 .5 2.31.69 2.5.2Zm35.81-.02.24-.27-.52.07c-.31.04-.54.02-.58-.03-.06-.11.18-.18.7-.23.23-.02.31-.08.33-.28l.04-.24.13.24.13.25.07-.28c.04-.15.11-.27.16-.27.08 0 .05.29-.07.68-.13.42.19.5 1.05.28.69-.19.67-.16.41-.81-.21-.51-.25-.56-.49-.5-.29.06-2.91.45-3.04.45-.05 0 .03.2.17.44.27.47.32.66.17.66-.06 0-.22-.24-.38-.52-.26-.5-.31-.53-.7-.56l-.41-.03.15.6.15.61h1.02c.98 0 1.04-.01 1.27-.26ZM6.37 33.3l.2-.6-.21-.05c-.67-.14-1.28-.25-1.35-.25-.09 0-.56 1.09-.5 1.14.1.07 1.17.34 1.4.35s.28-.06.46-.59Zm9.48-2.82.06-.87-.57.19c-.32.11-.65.2-.76.2-.25 0-.23.14.16.95l.33.7-.05-.66c-.05-.7.11-1.3.21-.79.03.14.14.9.24 1.7l.18 1.45.07-1c.03-.55.09-1.39.13-1.87Zm13.45 2.13c-.07-.13-.07-.22 0-.26.05-.03.1-.14.1-.24 0-.09.1-.28.21-.4l.22-.23-.22.07c-.27.08-.38-.16-.23-.51.14-.3.3-.31.42-.01.09.22.09.22.09.01.01-.26-.23-.38-.49-.24-.29.16-.46.12-.58-.12l-.11-.23v.23c-.01.17-.09.24-.32.29-.25.05-.3.09-.24.27.19.67.19.89-.03.82-.16-.06-.19-.03-.16.11.03.1.13.19.22.2.47.03.98.18 1.05.3.12.21.19.15.07-.06Zm-17.54-.52c-.83-.13-3.81-1.39-3.31-1.39.06 0 .73.23 1.49.51 2.51.91 3.66.84 2.85-.19-.18-.23-.2-.35-.14-.86l.06-.59-.53.06c-.29.04-.64.09-.78.12l-.25.07.25-.21c.14-.12.37-.33.53-.46.49-.44 1.07-.27 1.07.31 0 .2.07.43.16.52.15.14.15.16-.05.24-.16.05-.21.15-.2.4s.03.27.06.1c.09-.46.28-.15.31.5.04.87-.31 1.07-1.52.87Zm27.23-.05c-.09-.03-.19-.18-.23-.35-.05-.28-.08-.29-.59-.29-.83 0-.91-.11-.95-1.24l-.04-.96.27-.1c.14-.05.49-.1.76-.1h.49l.01 1.08c.01.59.04.97.06.85.02-.13.11-.23.19-.23s.14-.08.14-.17c0-.15-.02-.16-.1-.03-.07.11-.1.06-.09-.2 0-.29.02-.31.09-.15.06.15.09.05.09-.35.02-.9.54-1.21 1.08-.63.16.16.38.35.51.42.37.2.24.31-.19.16-.23-.08-.57-.15-.75-.15h-.34v.59c0 .49-.04.62-.21.74-.15.11-.2.23-.17.48l.03.34.85-.01c.77-.01.98-.06 2.2-.52 1.43-.55 1.68-.59.98-.18-1.28.74-3.3 1.24-4.09 1Zm-3.59-1.79 1.08-1.2-.3-.3c-.85-.84-1.77-4.12-1.53-5.44.05-.28.04-.33-.05-.24-.17.16-.38 1.52-.47 3.03-.04.82-.09 1.15-.14.95-.1-.46-.1-2.03.01-2.69.1-.65.06-.84-.09-.43-.21.56-.43 1.87-.8 4.77-.08.64-.09.52-.06-.8.03-1.38.21-2.67.5-3.73.05-.18.01-.16-.24.1-.49.52-.61 1.13-.62 3.12-.02 2.36-.13 2.77-.22.81-.07-1.52.01-2.77.22-3.33.18-.47-.24-.21-.44.28-.08.18-.09.17-.13-.08-.02-.16-.06-.27-.1-.25-1.29.63-1.32.67-1.32 1.85 0 .2-.04.32-.1.28-.05-.03-.1-.4-.1-.81 0-.79 0-.8-.32-.63-.2.11-.22.96-.03 1.99.09.46-.23-.3-.36-.88-.14-.59-.31-.63-.4-.09-.08.53-.19.58-.19.09 0-.23-.04-.42-.1-.42-.05 0-.1.08-.1.18-.01.16-.01.16-.11 0-.18-.32-.24-.19-.19.36l.05.54 1.3.88c1.51 1.01 2.28 1.59 2.7 2.03.26.28.3.3.36.14.05-.13.09-.07.18.24.12.44.63.96.89.91.08-.02.64-.57 1.22-1.23Zm-34.9.92c0-.08.12-.24.26-.38.15-.13.6-.67 1.02-1.19.89-1.13 1.02-1.25 1.65-1.46.43-.14.56-.26 1.25-1.2l.77-1.05 1.35-.7c.74-.39 1.56-.87 1.82-1.06.57-.41 1.41-.72 2.05-.76.56-.02.55-.15.25 1.56-.22 1.25-.31 1.44-1.38 3.12-.65 1.03-.56 1.06 1.26.5 1.57-.48 2.2-.47 2.2.01 0 .16-.16.19-.25.04-.11-.18-.63-.11-1.85.25-1.21.35-1.86.38-1.97.09-.06-.17.44-1.25.91-1.95.44-.66.45-.65-.62-.44-1.69.32-1.8.11-.94-1.76.01-.04-.57.25-1.3.63l-1.33.68-.74 1.01c-.73.99-.84 1.08-1.69 1.4-.22.08-.55.41-1.04 1.03C1.07 30.97.5 31.52.5 31.17Zm49.9-1.77c-.56-.6-.85-.84-1.2-.95-.57-.2-.63-.25-1.36-1.15-.83-1.01-.85-1.03-2.02-1.49-.57-.23-1.27-.54-1.55-.69-.29-.15-.55-.28-.6-.3-.04-.02.09.29.28.69.6 1.26.5 1.38-.94 1.08-1.29-.26-1.28-.26-.8.49.23.35.54.93.7 1.28l.28.65-.27.1c-.34.13-.83.06-2.14-.32-1.19-.34-1.46-.36-1.64-.11-.12.16-.13.15-.14-.09 0-.55.17-.56 1.89-.07 1.16.33 2.01.46 2.01.31 0-.06-.25-.5-.57-.99-.95-1.5-1.03-1.68-1.28-2.9-.34-1.61-.35-1.54.23-1.54.51 0 1.08.23 1.74.68.45.31 1.99 1.09 2.58 1.32 1.32.5 1.57.67 2.36 1.62.64.77.86.97 1.33 1.18.64.28 1.95 1.56 1.89 1.85-.02.11-.26-.09-.78-.65Zm-34.71.07.26-.12-.02-1.15c-.02-.75.01-1.06.06-.9.07.2.09.11.11-.4.01-.36.06-.76.11-.9.05-.15.07.41.05 1.48-.03.94-.03 1.72-.02 1.72.02 0 .6-.27 1.29-.6s1.74-.8 2.34-1.04c.98-.39 1.08-.46 1.06-.68-.06-.92-.59-1.75-1.43-2.26-.71-.42-.73-.41-.45.21.47 1.02.4 1.28-.08.31-.41-.84-.62-1.13-.73-1.02-.02.03.07.31.21.63.14.31.28.78.31 1.04l.05.46-.29-.7c-.58-1.36-.8-1.8-1.03-2.05l-.24-.25-.06.43c-.07.57-.19.65-.19.13 0-.4-.22-1.11-.35-1.11-.03 0-.03.16.01.35.03.2.02.35-.03.35s-.14-.21-.19-.47c-.11-.59-.27-.59-.36-.01-.64 3.75-2.4 4.99-3.6 2.54-.49-1-.49-1.01-.43-.51.13.98.36 1.67.88 2.53.3.48.66 1.12.82 1.42.45.85.42.83 1.08.76.33-.03.71-.12.86-.19Zm21.14-.79c.03-.07.24-.58.46-1.13l.42-1-.81.8c-.9.9-.89.87-.55 1.2.27.28.4.31.48.13ZM.64 27.94c-.06-.33-.08-.35-.36-.29-.43.1-.35-.27.09-.39.26-.08.33-.16.38-.45.06-.36.84-.55 1.11-.28.04.04.15.07.25.07.09 0 .2.07.23.16.05.14-.01.15-.49.09-.73-.09-1.45.45-.92.69.1.05.1.07 0 .12-.18.08-.16.33.02.4.17.07.1.24-.1.24-.08 0-.17-.15-.21-.36Zm26.2-.25c.75-.21 1-.58.92-1.42-.03-.4-.09-1.23-.12-1.85-.07-1.11-.07-1.12-.24-.84-.19.32-.73.79-1.07.95-.15.07-.23.19-.23.36-.01.14-.07.4-.15.56l-.15.3.06-.38c.03-.21.08-.45.11-.53.08-.22-.17-.17-.55.12-.31.24-.33.3-.28.63.04.2.09.63.11.96l.06.6-.26-.75c-.29-.88-.31-1.17-.09-1.48l.16-.23-.53.03c-.53.02-1.5-.43-1.73-.81-.17-.26-.25-.05-.31.82-.08 1-.23 1.58-.43 1.65-.09.03-.11-.06-.06-.38.06-.34.04-.42-.07-.38-.16.05-.23.49-.15.84.2.79 3.58 1.62 5 1.23Zm9.74-.44c.78-.7 1.46-1.69 2.16-3.16C40 21.44 40.4 20.64 40.76 20c.43-.77.42-.83-.16-2.42-.65-1.76-.82-2.14-2.36-5.21-1.01-2-1.44-2.97-1.44-3.21 0-.19-.09-.87-.2-1.51s-.2-1.32-.2-1.51c0-.38-.1-.41-.55-.16-.65.37-1.04.68-1.15.91l-.11.24.27-.18c.98-.64 1.51-.78 1.2-.31-.22.34-.2.39.1.32.39-.1.25.16-.16.3-.73.24-.81 1.64-.1 1.64.26 0 .26.17 0 .25-.63.2-1.1-1.37-.58-1.92.29-.31.06-.3-.35.01-.4.3-.79.41-1.04.27-.17-.09-.2-.04-.32.5-.46 2.23-2.39 4.25-4.93 5.14-.52.19-.61.24-.33.2 2.21-.36 4.6-2.59 5.4-5.02.26-.83.37-.81.54.1.1.53.06.6-.1.19l-.11-.27-.14.3c-.19.43-.18.47.33.84.77.56 1.42 2.3 2.18 5.81.19.91.47 2.02.61 2.48.3.98.42 1.82.26 1.82-.06 0-.12-.05-.14-.12-.07-.19-1.13 1.49-1.69 2.67l-.52 1.07.06 1.07c.07 1.36.65 3.41.96 3.41.05 0 .31-.2.59-.45Zm-22.15-1.04c.3-.36 1.11-2.35 1.27-3.16.29-1.42-.62-4.22-1.91-5.84-.49-.61-.49-.78 0-1.94.22-.5.6-1.5.86-2.22 1.14-3.2 1.87-4.75 2.24-4.75.23.01.24.02.09.11-.1.05-.18.15-.18.21 0 .07.05.06.15-.02.08-.06.47-.24.87-.4.4-.15.81-.31.91-.35.13-.05.17-.02.17.14 0 .72 1.04 2.47 2.04 3.46.8.78 2.37 1.75 2.84 1.75.09 0-.25-.21-.77-.46-1.97-.96-3.63-3.13-3.96-5.16-.06-.36-.06-.36-.36-.26-.16.05-.38.08-.49.05-.1-.03-.21 0-.24.07-.02.06-.05.03-.05-.06-.01-.15-.28-.38-.46-.38-.04 0-.04.13 0 .3.09.4.02.38-.25-.07-.24-.4-.17-.53.32-.53.14 0 .35-.03.45-.07.16-.06.17-.05.03.13-.14.17-.14.18.01.06.4-.3.31-.51-.34-.81-.62-.28-.95-.55-.8-.64.05-.03.36.08.7.25.34.16.73.31.87.32.17 0 .26.07.26.18 0 .35.18.26.28-.15.13-.5.2-.44-1-.92-.54-.21-.98-.42-.98-.47 0-.12.23-.1.63.07 1.36.57 1.67.65 1.67.45s-.59-.55-1.32-.79c-.21-.07-.41-.17-.44-.23-.1-.15.69-.02 1.08.18.16.09.33.13.36.09.1-.1-.19-.23-.76-.36-.33-.08-.49-.16-.43-.22.12-.12 1.1.09 1.32.29.24.21.33-.06.12-.36-.24-.34-1.55-.26-1.85.1-.11.14-.26.24-.32.22C16.69 3.95 16 5.29 16 6.09c-.01.25-.06.55-.13.66-.18.31-1.91 2.57-2.7 3.54-1.34 1.64-3.17 4.79-3.17 5.46 0 .34.64 2.92 1.45 5.8 1.1 3.97 2.16 5.63 2.98 4.66Zm29.13-.87c-.64-1.28-.72-1.31-1.46-.52s-.8 1.14-.22 1.23c.2.04.75.14 1.22.23 1.04.21 1.03.22.46-.94Zm-34.42.91c.45-.09.91-.18 1.03-.21.47-.09.38-.4-.33-1.19-.85-.93-1-.84-1.74 1.05l-.2.5h.22c.11 0 .57-.07 1.02-.15Zm-7.94-.5c.18-.22.06-.29-.48-.31-.62-.03-.6-.02-.33-.24.14-.12.38-.2.62-.2.32 0 .37-.03.32-.16-.05-.14-.01-.16.23-.11.16.03.48 0 .7-.06.54-.14 1.49.26 1.14.48-.18.11.01.27.26.21.27-.07.33.08.08.18-.29.11-1-.05-.81-.19.25-.18.21-.38-.05-.32-.13.04-.42.09-.66.13-.31.05-.48.14-.6.33-.18.28-.32.41-.46.41-.05 0-.03-.07.04-.15Zm48.98-.19c-.12-.25-.25-.35-.5-.39-.18-.04-.46-.1-.62-.13-.26-.06-.29-.05-.23.15.05.22-.37.51-.52.35-.03-.04 0-.09.07-.11.06-.03.12-.17.12-.32 0-.3.41-.58.63-.44.07.04.28.08.47.09s.55.08.8.14c.74.21 1.13.68.46.56-.38-.07-.55.06-.36.29.1.12.1.15-.02.15-.08 0-.21-.15-.3-.34Zm-20.44-.05c.16-.17.47-.34.73-.4.57-.15 2.48-1.1 3.12-1.56.67-.48 1.09-1.04 1.59-2.08.47-1 .89-1.66 1.4-2.2l.36-.37-.12-.53c-1.44-6.48-1.92-8.05-2.64-8.61-.47-.35-.48-.34-.87.3-.98 1.63-3.04 3.15-4.71 3.47-.66.13-.72.18-.35.35.14.06.25.17.25.23s.19.33.43.59c.23.26.43.56.44.66.01.11.06.41.12.69.09.39.08.63-.04 1.15-.46 1.97-.45 1.89-.22 1.92.8.12.26 2.28-.6 2.36-.61.06-1.1 3.21-.6 3.84.41.53 1.29.63 1.71.19Zm-8.03-.13.4-.23-.06-1.18c-.09-1.47-.33-2.51-.61-2.55-.68-.13-1.29-1.72-.88-2.31.12-.17.22-.21.4-.17.23.06.24.04.18-.21-.18-.71-.1-3.16.12-3.64.24-.51 1.24-1.56 1.63-1.71.25-.09.24-.1-.34-.41-1.61-.86-2.56-1.84-3.4-3.49-.31-.62-.59-1.15-.6-1.17-.08-.07-1.48.53-1.75.75-.4.34-1.08 1.79-1.8 3.89-.35.99-.8 2.18-1.01 2.64-.48 1.02-.49.86.12 1.61.74.92 1.99 3.68 1.99 4.38 0 .08.64.82 1.08 1.24.47.45 1 .83 1.48 1.05.93.41 1.59.88 1.9 1.32.34.48.57.51 1.15.19Zm-17.94-.26c-.15-.1-.24-.22-.2-.26s.01-.11-.07-.16c-.11-.07-.12-.14-.03-.33.08-.17.08-.28.01-.35-.22-.22 0-.62.33-.62.19 0 .43-.1.61-.25.32-.27.62-.31 1.05-.13.15.06.33.12.38.12.06.01.25.09.43.19.19.1.35.17.36.15.18-.22.34-.75.3-.96-.06-.3.75-1.1.84-.84.02.07.21.12.43.12.5 0 .51.17.01.25-.86.15-1.35.45-.73.45.34 0 .55.22.46.49-.14.44.31.35 1.55-.34.66-.37 1.26-.65 1.33-.62.14.05-1.09.85-1.99 1.3l-.63.31-.41-.23c-.44-.24-.75-.21-.85.08-.03.1-.14.26-.25.36-.24.22-.26.54-.04.7.14.1.13.13-.11.29-.39.26-.49-.01-.32-.87l.08-.37-.33.02c-.22.02-.32-.01-.31-.09.04-.16-.12-.17-.37-.03-.13.07-.21.07-.25 0-.03-.05.03-.1.14-.1.12 0 .21-.05.21-.11s-.16-.09-.37-.07c-.3.02-.38.07-.38.23 0 .15-.06.19-.25.17-.42-.05-.74.07-.61.22.08.1.08.22.01.4-.14.39-.13.4.16.17.15-.12.36-.21.48-.21.21.01.21.01.01.15-.56.4-.62.65-.15.65q.3 0 .3.15c0 .21-.48.19-.83-.03Zm43.58-.02c-.17-.19-.17-.19.19-.13.43.07.52-.25.14-.51-.27-.19-.15-.35.13-.17.25.15.37.07.2-.13a.4.4 0 0 1-.06-.36c.06-.18.02-.2-.47-.2-.41-.01-.49-.03-.35-.11.21-.12.13-.29-.14-.29-.11 0-.19.07-.19.16 0 .14-.07.16-.41.11-.31-.04-.39-.02-.35.08.07.19-.04.26-.24.15-.24-.13-.35.28-.14.51.17.19.1.69-.1.69-.28 0-.52-.29-.33-.41.59-.35-.63-1.39-1.23-1.04-.48.28-.83.16-2.45-.78-1.07-.63-.54-.57.69.07 1.24.65 1.44.69 1.38.27-.05-.34.24-.56.64-.48.14.02.27.01.29-.04.07-.1-.48-.37-.91-.45-.45-.08-.38-.3.09-.26.19.01.38-.02.42-.08.12-.19.23-.1.49.36.21.38.23.49.13.65-.08.13-.09.22-.02.27.06.04.15.16.21.27.16.29.42.3.72.03.59-.51 1.24-.57 1.71-.14.1.09.27.16.38.16.38 0 .7.35.55.6-.09.15-.1.26-.02.41.09.15.08.24-.02.36-.1.13-.1.17 0 .2.17.06.15.23-.03.23-.08 0-.15.04-.15.1 0 .18-.56.11-.75-.1Zm-36.72-.37c.04-.21.09-.53.13-.7.08-.38-.14-.43-.87-.21-.49.14-.49.15.07.77.55.61.6.62.67.14Zm15.12-.47c.11-.07.32-.16.47-.2.97-.23 2.02-2.37 2.15-4.36.06-.95-.03-1.84-.18-1.75-.05.04-.09-.1-.09-.3 0-.35-.39-1.27-.6-1.4-.06-.04-.1.09-.1.33 0 .58-.12.59-.37.02-.21-.49-.46-.7-.36-.3.08.29-.12.25-.25-.05-.15-.33-.32-.32-.32.01v.26l-.4-.36c-.47-.42-.5-.43-.42-.14.05.21.04.21-.29-.04-.77-.58-1.69-.44-2.01.31l-.2.46-.11-.29-.12-.28-.14.37c-.07.2-.15.34-.19.31-.03-.03-.16.13-.3.36-.44.77-.43 2.33.05 4.33l.38 1.59.6.48c.52.42.6.46.67.31.06-.17.07-.17.07-.01.02.4 1.6.66 2.06.34Zm-1.45-2.12c-.94-.15-1.32-.47-.96-.83.23-.22 3.23-.24 3.5-.02.27.23.11-.34-.26-.88-.34-.5-.3-.66.08-.3.63.58.72 1.63.16 1.7-.08.01-.19.03-.92.24-.51.14-1.04.17-1.6.09Zm16.32-.86c.09-.25 3.58-.39 3.58-.15 0 .11-.32.15-1.37.2-1.97.1-2.25.09-2.21-.05Zm-16.07-.76c-.05-.06-.23-.12-.4-.14-.33-.03-.46-.37-.25-.63.17-.21.32-.08.2.16-.06.1-.09.19-.08.2.02 0 .17.02.34.03l.32.04-.03-.94c-.05-1.39-.02-1.34-.94-1.34-.44 0-.97.07-1.21.15-.5.18-.54.16-.41-.16.22-.6 1.02-.84 1.91-.58.25.07.51.12.58.1.06-.01.12.06.12.16s.07.27.15.37c.11.15.15.48.15 1.29 0 1.08 0 1.09.23 1.03.12-.03.3-.06.41-.06.15 0 .17-.05.12-.35-.1-.49.19-.44.37.07.15.42-1.24.94-1.58.6Zm14.16-.9c-.83-1.69-3.52-9.89-3.12-9.47.18.19.64 1.42 1.07 2.85.24.8.75 2.35 1.13 3.45.7 2.02 1.21 3.58 1.17 3.62-.01.02-.13-.19-.25-.45Zm-12.18-1.59c-.85-.03-.93-.05-.93-.24 0-.39 1.14-.62 1.72-.35.44.21.7.67.35.64-.12-.01-.64-.04-1.14-.05Zm.73-5.01c.08-.05.05-.4-.11-1.27-.24-1.33-.25-1.28.28-1.45.48-.15.43-.22.83 1.12.19.62.38 1.16.42 1.2.08.08 1.51-.6 1.92-.91l.24-.19-.98-1.06-.98-1.06-.29.17c-.41.24-.4.45.01.23.16-.09.24-.03.49.33.16.24.46.58.65.75.45.4.45.53-.01.91-.6.5-1.09.23-1.33-.72a5 5 0 0 0-.21-.63.7.7 0 0 1-.05-.42c.07-.19.06-.19-.61 0-.68.19-1.93.21-2.5.03-.17-.05-.23-.03-.23.07 0 .08.15.19.32.24.39.11.39.24.07 1.62-.24 1.04-.24 1 .09 1.05.48.07 1.87.07 1.98-.01Zm1.1-.25c.17-.17-.69-2.27-.93-2.27-.21 0-.24.04-.2.22.03.12.14.67.23 1.23l.16 1.02.35-.07c.19-.05.37-.1.39-.13Zm-3.39-.97c.28-1.32.28-1.3-.04-1.3-.26 0-.77.79-1.31 2.01-.04.09.78.38.98.36.09-.02.21-.35.37-1.07Zm.75.98c-.15-.15-.16-.48-.02-.48.06 0 .1-.36.1-.87 0-.97.09-1.24.33-1.05.08.07.21.1.3.06.13-.04.16.11.22.93.04.54.12 1.01.18 1.05.08.04.05.14-.07.27-.21.24-.84.29-1.04.09Zm-2.22-.43c0-.09.25-.65.55-1.25.61-1.22.62-1.26.38-1.34-.25-.08-.33-.07-.31.01.02.05.09.07.16.05.18-.04.16 0-.33.98-.45.9-.61 1.03-.89.75-.17-.18-.26-.19-.26-.05 0 .06.11.15.25.2.28.11.33.28.1.36-.16.07-.85-.32-.85-.47 0-.05.15-.24.33-.42s.49-.58.69-.88c.2-.31.44-.61.52-.68.17-.14.13-.31-.07-.31-.07 0-.57.48-1.11 1.06l-.99 1.05.23.17c.93.69 1.6 1.01 1.6.77Zm8-1.39c0-.02-.17-.15-.38-.28-.78-.53-1.98-1.67-1.58-1.52.15.06.4-.28.29-.4-.03-.03.01-.06.1-.06.2 0 .23-.16.05-.22-.07-.03-.29.14-.5.35-.44.47-.51.3.7 1.6.39.43.72.83.72.89 0 .05.14 0 .3-.12s.3-.23.3-.24Zm-8.72-1.09c.92-.99.84-1.18-.13-.3-.4.36-.92.79-1.14.94l-.41.27.22.27.21.27.26-.34c.14-.18.59-.68.99-1.11Zm8.72.22c.12-.16.2-.32.17-.35-.42-.42-1.38-.9-1.51-.75-.26.29-.22.39.39.9.72.6.68.59.95.2Zm-9.36-.45c.56-.47.65-.58.56-.74-.17-.32-.26-.31-.82.06-.29.2-.64.4-.77.45-.21.09-.22.11-.09.32.08.12.18.28.22.35.12.2.21.15.9-.44Zm-11.09.05C8.78 9.3 6.19 8.78 4.4 8.35c-1.02-.24-1.95-.42-2.06-.39-.15.04-.27-.02-.42-.2l-.2-.27-.12.36c-.12.37-.32.5-.23.15.03-.11 0-.27-.07-.35-.09-.1-.09-.15-.01-.15.06 0 .11.06.11.12 0 .1.02.1.08.01.05-.07.07-.32.06-.55-.01-.24.05-.56.14-.73.09-.16.15-.35.14-.41s.05-.17.13-.24.15-.18.15-.25c0-.08.12-.27.26-.44.21-.25.23-.32.11-.37-.25-.09-.29-.34-.07-.34.11 0 .2.06.2.14 0 .19.48.24.8.09.55-.28 1.1-.04 1.1.47 0 .22.01.22.18.07.32-.29.67-.04.67.48 0 .14.11.23.35.31.31.1.32.12.12.18-.11.04-.31.02-.43-.04-.18-.1-.2-.09-.17.07.02.14.15.19.59.23.31.03.64.12.74.2s.39.16.65.17c.54.02 1.1.26 1.1.49 0 .28-.51 1.17-.61 1.07-.07-.07-.02-.26.13-.57.19-.4.2-.48.08-.56-.27-.17-.39-.1-.46.25-.09.52-.29.58-.21.07.13-.79-.44-.69-.68.13-.15.52-.3.74-.42.61-.05-.05.14-.81.34-1.33.03-.07 0-.13-.05-.13-.06 0-.18.25-.27.55-.1.35-.21.55-.3.55-.18 0-.18.02 0-.5.19-.53.19-.7 0-.7-.09 0-.16.14-.2.38-.16.9-.41 1.06-.32.2.06-.56.07-.57-.19.3-.02.07-.09.1-.15.06-.11-.06-.08-.4.07-.92.08-.28-.86-.33-1.24-.06-.27.19-.28.34-.02.34.4 0 .19.28-.38.51l-.57.23.95.23c2.07.5 5.62 1.23 7.45 1.53 1.57.26 1.67.29 1.6.4-.09.14-.52.11-1.8-.11Zm15.95.1c0-.18-.22-1.04-.29-1.11-.03-.03-.26-.08-.5-.09l-.45-.04-.17.6c-.1.32-.16.62-.13.67.08.12 1.54.1 1.54-.03Zm5.6-.39c.23-.46.24-.51.08-.47-.09.01-.14-.14-.16-.45-.03-.4-.07-.49-.25-.52-.79-.17-1.3-.26-1.31-.24s-.1.16-.2.31c-.21.34-.25.29.47.56.32.11.77.31.99.42l.42.21-.27.15c-.35.18-.35.3 0 .42.02.01.12-.17.23-.39Zm-4.21-.07.43-.25-.47-.48-.48-.49-.38.19-.37.19.14.48c.08.27.16.54.19.61.06.17.34.09.94-.25Zm-3.2-.29c.26-.7.27-.66-.1-.93l-.31-.23-.49.48c-.6.59-.6.58-.02.94.63.4.67.39.92-.26Zm4.53-1.02c.11-.18.19-.34.17-.36-.08-.05-1.21-.46-1.29-.46-.05 0-.18.16-.3.35l-.22.35.49.44.48.44.23-.21c.13-.12.32-.37.44-.55Zm-8.35.33c.45-.18.59-.28.61-.47.05-.47-.08-.51-.98-.31-.93.2-.97.24-.75.77.18.41.14.41 1.12.01Zm2.69-.31c.54-.45.54-.45.39-.75-.18-.33-.19-.33-.98-.14-.75.18-.73.14-.44.79.31.68.36.68 1.03.1Zm3.22.02c2-1.03 1.14-3.85-1.11-3.63-1.54.14-2.16 2.29-.99 3.41.49.46 1.44.56 2.1.22Zm-1.68-.23c-1.63-.84-.76-3.56 1.05-3.29 2.11.32 2.05 3.32-.08 3.44-.46.02-.71-.02-.97-.15Zm-3-.13c0-.04-.05-.22-.11-.41s-.13-.4-.15-.48c-.04-.11-.07-.12-.16-.03-.19.19-.35.14-.42-.11-.05-.22-.08-.23-.63-.16-.32.04-.65.08-.73.08-.11.01-.16.13-.17.41-.02.46-.01.47.97.25.96-.21 1-.2 1 .18 0 .19.03.36.06.4.07.07.34-.02.34-.13ZM3.03 7.42c.15-.16.25-.35.22-.43-.12-.34.52-.8 1.22-.88.51-.05.58-.09.55-.26-.04-.22-.21-.36-.34-.28-.05.02-.15-.01-.23-.07-.12-.1-.2-.09-.4.04-.3.2-.33.07-.05-.19.34-.31.27-.65-.13-.65-.35 0-.74.3-.63.48.03.05-.01.15-.09.22S3 5.62 3 5.73c0 .16-.03.18-.11.1s-.09-.23-.02-.51c.09-.36.09-.39-.09-.34-.23.06-.46.48-.43.8.01.12-.02.22-.06.22-.08 0-.49.66-.49.79 0 .05.12.12.26.15.2.05.23.1.15.2-.12.14-.04.49.08.42.04-.03.13-.01.21.05.21.13.23.12.53-.19Zm29.62.18c.2-.33-.19-.69-.83-.76-.72-.07-.69-.08-.74.31-.04.36 1.37.77 1.57.45ZM.09 6.98c-.06-.15-.08-.36-.04-.45q.075-.18.12-.06c.06.18.63-.4.63-.64 0-.34-.14-.45-.45-.33-.3.11-.41.08-.3-.1.27-.43.82-.3 1.01.25.15.44.11.58-.22.75-.29.16-.31.37-.03.66l.2.21-.4-.01c-.34 0-.42-.05-.52-.28Zm30.14-.62.06-.59-.64.07c-.92.09-.95.11-.95.6v.42l.68.2c.78.23.76.24.85-.7Zm4.15.87c-.13-.46 1.03-1.63 1.61-1.63.11 0 .1-.05-.04-.2-.25-.28-.42-.25-1.02.15-.69.47-1.23 1.75-.73 1.75.11 0 .19-.03.18-.07Zm-10.79-.49.71-.16v-.73l-.84-.21-.84-.2-.06.32c-.09.43.04 1.14.19 1.14.07 0 .45-.07.84-.16Zm10.18-.28c.1-.13.26-.38.35-.55.14-.26.84-.8 1.22-.94.07-.03.03-.13-.1-.27-.39-.41-1.21.21-1.59 1.21-.15.38-.31.71-.36.75-.05.03-.09.1-.09.15 0 .15.36-.07.57-.35Zm-1.65-.37c.6-.02.68-.1.68-.66 0-.27 0-.27-.91-.12l-.69.12v.39c0 .33.03.38.18.34.09-.03.43-.06.74-.07Zm-9.88-.35c.03-.09.06-.2.06-.25 0-.13-.44-.11-.6.04-.12.1-.12.09-.01-.05.15-.2.05-.26-.87-.48-.63-.15-.62-.15-.53.3.07.35.07.35.75.42.37.03.7.09.74.12.11.12.4.06.46-.1Zm7.49-.35c.2-.05.37-.14.37-.2 0-.14-.35-.79-.59-1.09l-.2-.25-.55.54-.54.54.16.34c.18.37.36.38 1.35.12Zm-5.19-.21.19-.31-.54-.48c-.66-.59-.62-.59-1.02-.03-.43.61-.42.64.33.9.84.29.83.29 1.04-.08Zm-2.57-.47c.11-.31-.07-.45-1.79-1.37-.33-.18-.52.22-.27.53.08.09.19.28.25.42.09.22 1.01.61 1.64.7.03.01.11-.12.17-.28Zm9.97.05c.53-.2.61-.27.73-.61.07-.22.18-.44.23-.49.13-.13.13-.36 0-.36-.06 0-.55.24-1.09.53l-.97.52.08.32c.1.39.21.4 1.02.09ZM28.9 3.53c0-.16-1.09-.68-1.19-.57-.2.21-.43 1.27-.29 1.35.07.04.22.15.33.23.2.16 1.15-.67 1.15-1.01Zm-3.61.89c.35-.2.37-.29.15-1.01-.17-.58-.2-.58-.96-.2-.52.27-.53.31-.05.88.48.58.45.57.86.33Zm1.77-.93c.14-.76.11-.79-.63-.79-.64 0-.66.04-.52.82l.12.63h.45l.46-.01zm3.61.49c-.01-.16.17-.34.86-.81.89-.6 1.08-.66.87-.27-.15.27-.08.35.19.2l.22-.11-.23-.38c-.48-.78-.66-.97-.8-.83-.1.1-.07.18.2.43.45.43.31.5-.18.1l-.41-.33-.69.69-.7.68.33.42c.38.49.37.49.34.21Zm-7.99-.41.22-.23-.43-.4c-.23-.21-.57-.53-.75-.69l-.33-.3-.3.33-.3.34.78.59c.9.68.83.66 1.11.36Zm.9-.23c-.04-.19-1.71-2.33-1.82-2.33-.06-.01-.2.09-.32.2l-.23.22.77.71c.42.39.92.87 1.11 1.08.33.36.55.41.49.12Zm5.9.2c-.04-.03.45-.53 1.08-1.11 1.32-1.22 1.21-1.06.88-1.28-.31-.2-.24-.26-1.36 1.2-.34.44-.66.82-.7.83-.13.06-.09.42.04.42.06 0 .09-.03.06-.06ZM9.45 2.73c-.35-.09-.55-.35-.55-.7 0-.31-.02-.33-.35-.33-.59 0-.63-.92-.05-1.07.14-.04.2-.14.2-.34V0h1.86c1.18 0 1.83.04 1.79.1-.08.13.12.5.46.82.75.7-.2 1.62-1.25 1.22-.32-.12-.15-.24.35-.24.63 0 .89-.13.89-.46 0-.28-.38-.51-.67-.39-.12.05-.14.09-.05.12.27.1.12.33-.23.33-.33 0-.37.04-.55.45-.25.59-1.14.97-1.85.78Zm31.08-.22c-.17-.11-.36-.28-.41-.38-.09-.14-.13-.16-.23-.05-.07.06-.35.12-.61.12-.86 0-1.27-.72-.73-1.26.32-.32.48-.62.41-.8-.05-.12.24-.14 1.78-.14h1.84l.06.26c.04.14.22.39.41.56.53.46.43.88-.21.88-.36 0-.5.14-.46.47.07.49-1.21.72-1.85.34Zm-30.21-.13.53-.13-.48-.05c-.61-.06-.57-.25.05-.25.26-.01.49-.03.51-.05.02-.03.11-.17.2-.32.12-.19.26-.28.43-.28.28 0 .29-.17.02-.33-.11-.08-.26-.05-.53.07-.2.1-.4.14-.43.1-.04-.03-.02-.09.03-.11.3-.12 1.19-.7 1.22-.8.05-.15-.86-.04-1.14.15-.13.07-.39.36-.58.64-.27.38-.4.48-.55.43-.4-.13-.57.79-.17.95.3.12.28.12.89-.02Zm31.62-.04c.38-.14.14-.92-.26-.86-.11.02-.26-.12-.42-.37-.36-.57-.88-.93-1.43-.99-.58-.06-.53.04.28.59.63.43.74.62.19.34-.26-.13-.37-.14-.59-.05-.16.06-.4.08-.55.04-.49-.12-.81.52-.37.76.3.15 1.08.13 1.14-.04.08-.2-.01-.26-.39-.26-.36 0-.55-.17-.3-.26.35-.13.9.1 1.06.44.14.33.15.33.62.27.26-.04.52-.04.59 0 .18.12-.11.25-.56.25-.3 0-.36.03-.25.1.17.11 1 .13 1.24.04ZM9.15 1.4c.03-.06.14-.1.24-.1s.36-.24.59-.55l.41-.55H9.7c-.73 0-.82.04-.53.25.15.11.11.15-.29.32-.48.22-.7.58-.39.66.3.08.6.07.66-.03Zm33.93-.05c.1-.09-.16-.35-.56-.54-.43-.21-.45-.24-.28-.37.25-.18.12-.22-.75-.26l-.67-.03.33.37c.18.2.38.45.44.56.07.13.18.18.29.15.12-.03.22.02.26.12.05.14.78.15.94 0Z"/></svg>