<svg xmlns="http://www.w3.org/2000/svg" width="51" height="51" viewBox="0 0 51 51"><path fill="#fff" fill-rule="evenodd" stroke="#fff" stroke-width=".687" d="M.16 50.81C.13 50.76.1 39.33.1 25.42V.11L25.15.08 50.21.05l.06.23c.03.12.03 1.33-.01 2.7-.03 1.36-.06 12.7-.06 25.2V50.9H25.21C10.6 50.9.19 50.86.16 50.81Zm43.38-.28c-.06-.24.63-.91 1.28-1.24.66-.33 1.54-.95 1.77-1.25l.2-.26 1.61.07 1.6.08v-44l-.82-.06c-.46-.04-1.06-.07-1.34-.07-.47 0-.56-.05-1.41-.7-1.42-1.09-4.3-2.6-4.96-2.6-.09 0-.19-.05-.22-.1-.04-.07-5.68-.1-16.6-.1H8.11l-.03.37c-.03.36-.09.42-1.17 1.16-.63.43-1.52 1.07-1.98 1.42l-.83.65H.43L.37 9.94c-.03 3.33-.05 8.6-.03 11.73C.36 24.79.38 32.59.39 39L.4 50.65l21.59.04c21.34.04 21.6.03 21.55-.16Zm2.76-.83v-1l-.25.16c-.23.15-.25.22-.25 1 0 .83 0 .84.25.84h.25zm3.7-.24v-1.23l-.38-.07c-.2-.03-.92-.06-1.59-.06-1.54 0-1.53-.01-1.53 1.52v1.08H50zm-11.84-.61c-4.58-.95-7.7-4.57-8.06-9.36-.26-3.35-.48-4.48-1.23-6.26-3.42-8.11-12.86-11.7-20.57-7.83-3.67 1.84-7.08 6-7.47 9.1-.05.39-.13.65-.22.68-.1.03-.12-.05-.07-.39.04-.24.09-.98.12-1.64.05-.97.09-1.23.23-1.35.1-.08.28-.44.41-.8 2.91-8.23 10.62-13.6 20.09-13.97 2.04-.08 2.18-.05 2.55.52.38.61.39.56.1-.5-.91-3.37-.83-5.79.27-8.14 2.57-5.49 8.83-8.2 15.71-6.8 2.41.48 3.49 1.08 6.38 3.52.5.43.97.76 1.03.74.07-.02.15-.42.19-1.02.09-1.18-.03-1.06 1.09-1.03l.93.03-.83.9c-.46.5-1.07 1.26-1.35 1.7-1.02 1.56-1.49 1.96-3.33 2.86-1.34.66-1.75.91-2.29 1.41-.86.81-.91.92-1.03 2.46-.28 3.44-.88 4.57-4.04 7.53-2.4 2.25-2.51 6.76-.23 9.27 1.34 1.46 2.5 1.98 5.12 2.32.84.1 1.8.29 2.15.4 5.04 1.7 6.79 7.95 3.45 12.37-1.95 2.58-5.79 3.97-9.1 3.28Zm3.8-.31c6.49-1.33 9.02-8.9 4.49-13.41-1.33-1.32-2.65-1.85-5.25-2.13-1.95-.21-3.38-.86-4.59-2.09-2.68-2.7-2.66-7.29.04-9.96.44-.43.64-.67.45-.53-4 2.97-10.43 1.73-13.26-2.56l-.39-.59-2.05.06c-9.31.24-17.02 5.61-19.91 13.87-.12.36-.28.72-.35.8-.14.17-.32 1.1-.19.98.05-.05.2-.37.35-.71 3.14-7.45 12.86-10.85 20.31-7.11 5.29 2.65 8.29 7.36 8.69 13.64.1 1.63.26 2.48.7 3.68 1.66 4.49 6.26 7.03 10.96 6.06Zm-8.29-26.9c1.62-.36 3.49-1.39 4.63-2.54 1.51-1.54 2.12-3.06 2.29-5.67.11-1.88.67-2.5 3.39-3.83 1.77-.87 2.17-1.19 2.97-2.34.37-.54.38-.58.21-.68-.1-.06-.65-.51-1.23-1-2.27-1.95-3.36-2.57-5.36-3.08-6.69-1.68-13.28.9-15.9 6.24-1.24 2.53-1.34 4.44-.41 8.04.43 1.66.58 1.96 1.31 2.59 2.46 2.12 5.28 2.91 8.1 2.27Zm14.5-16.37c.05-.34.08-.38.18-.24.1.15.16.12.45-.18l.34-.35h-.62c-.58 0-.62.01-.62.24 0 .13-.03.45-.07.72-.08.64.23.46.34-.19ZM4.27 3.44c.21-.13.22-.22.25-1.56.02-.79.02-1.46 0-1.5C4.5.33 3.55.3 2.39.3H.3v1.03c0 .56.03 1.33.07 1.7l.06.69 1.81-.07c1.26-.05 1.88-.11 2.03-.21ZM50 1.95V.3h-2.63l.07.46c.03.26.06 1 .06 1.65V3.6H50zm-2.8-.1V.3h-.5v1.32c0 1.21.02 1.34.22 1.55.12.13.23.23.25.23s.03-.7.03-1.55ZM5.6 1.38V.3h-.8v2.71l.4-.28.4-.28zm40.9.17C46.5.37 46.49.3 46.3.3c-.43 0-.26 2.44.18 2.5.01 0 .02-.56.02-1.25Zm-.6-.25v-1h-.25c-.32 0-.39 1.48-.08 1.82.28.32.33.2.33-.82Zm-39.56.6c.49-.33.56-.46.56-.98 0-.54-.1-.64-.61-.6l-.44.03-.03.93c-.03 1.04-.05 1.02.52.62Z"/></svg>