<svg xmlns="http://www.w3.org/2000/svg" width="51" height="51" viewBox="0 0 51 51"><path fill="#fff" fill-rule="evenodd" stroke="#fff" stroke-width=".685" d="M23.59 48.65c-5.53-.9-9.86-4.62-11.49-9.85-1.87-6.03.48-12.58 5.79-16.07.02-.01-.24-.33-.58-.7C11.19 15.31 15.02 4.41 24 2.95c9.23-1.49 16.27 8.15 12.06 16.54-.51 1.01-1.43 2.27-2.12 2.91l-.47.43.29.21c7.29 5.27 8.08 15.4 1.7 21.71-3.11 3.08-7.71 4.59-11.87 3.9Zm4.42-.31c1.18-.2 2.81-.73 3.78-1.23l.75-.38-.98-.12c-5.39-.68-8.62-3.02-11.24-8.14-1.66-3.24-1.55-5.69.34-8.01.54-.67.46-.65-.86.24-3.6 2.43-5.59 5.91-5.95 10.41-.08 1.02-.09 1.01.91 2.25 3.1 3.85 8.34 5.81 13.25 4.98Zm5.37-2.16c2.52-1.7 4.46-4.26 5.41-7.13.99-3 .93-6.69-.15-9.36-.71-1.74-1.03-2.11-1.04-1.17-.01 2.62-1.79 6.5-3.96 8.65-4.07 4.03-9.29 5.03-12.25 2.36-.53-.48-.49-.32.17.73 2.21 3.52 5.67 5.61 10.16 6.13 1.14.13 1.17.13 1.66-.21Zm-19.52-7.02c.92-4.54 3.74-7.94 8.37-10.11 2.77-1.29 5.29-1.11 7.51.55l.67.5-.28-.5c-.46-.84-1.46-2.1-2.37-3l-.86-.84-.67.02c-2.54.1-5.28-.76-7.28-2.27-.96-.73-.73-.74-1.76.03-5.26 3.95-6.97 11.06-4.11 17.06l.45.95.08-.79c.05-.44.16-1.16.25-1.6Zm13.46 1.45c3.07-.79 4.99-4.03 4.34-7.31-1.15-5.81-9.2-6.66-11.72-1.25-2.2 4.74 2.23 9.88 7.38 8.56Zm4.28-2.05c3.34-2.29 5.35-5.85 5.79-10.26l.1-.95-.46-.69c-1.77-2.69-5.25-4.97-8.63-5.66-1.86-.38-4.77-.34-5.91.08-.48.18 1.29 2.09 3.34 3.61 2.5 1.85 3.81 3.37 5.03 5.86 1.73 3.52 1.5 6.43-.67 8.66l-.5.52.58-.33c.32-.18.92-.56 1.33-.84Zm-5.3-13.24c-4.16-2.89-5.7-5.63-5.7-10.17 0-2.67.84-4.35 2.7-5.44l.55-.33-.57.06c-2.37.25-5.94 2.27-7.52 4.27-1.08 1.36-1.2 1.66-1.06 2.52.88 5.25 5.53 9.24 10.8 9.26 1.02 0 1.04-.01.8-.17Zm8.81-4.7c1.28-1.85 2.21-5.03 1.94-6.65l-.07-.38-.48.78c-2.17 3.51-5.5 5.21-9.94 5.11-2.83-.07-4.5-.97-5.47-2.95-.28-.57-.28-.57-.13.52.28 2.03.99 3.91 1.43 3.8 3.1-.79 6.86-.3 9.76 1.25l1.1.58.68-.66c.37-.37.9-1 1.18-1.4Zm-8.19-1.47c1.23-.16 2.8-1.4 3.37-2.67 1.39-3.07-.14-6.28-3.35-7.04-4.6-1.08-8 4.57-4.86 8.07 1.02 1.14 2.8 1.88 4.12 1.73.14-.02.46-.06.72-.09Zm1.91 0c3.41-.51 6.08-2.4 7.87-5.58.32-.57.32-.58.21-1.23-.92-5.25-5.59-9.26-10.75-9.23-.82 0-.97.02-.82.12 2.67 1.69 4.55 4.19 5.27 6.97.27 1.05.47 4.27.31 5.11-.28 1.52-1.38 3-2.72 3.67-.72.37-.7.37.63.17Zm-12.74-6.18c3.15-3.34 8.82-4.91 12.08-3.36.71.34 1.67 1.17 2.14 1.87l.31.47-.06-.63c-.33-3.02-2.34-5.97-5.37-7.87l-.57-.35-.85.15c-5.04.88-8.91 5.31-9.14 10.45l-.06 1.25.44-.65c.24-.36.73-.96 1.08-1.33Z"/></svg>