<svg xmlns="http://www.w3.org/2000/svg" width="51" height="51" viewBox="0 0 51 51"><path fill="#fff" fill-rule="evenodd" stroke="#fff" stroke-width=".477" d="M11.72 37.2a7.15 7.15 0 0 1-4.45-2.47c-2.57-3.1-2.59-9.13-.04-12.22 2.53-3.05 7.29-3.38 9.99-.7l.67.67.03-4.11c.03-3.89.04-4.14.23-4.51.33-.66.63-.81 1.6-.81.98 0 1.27.15 1.63.85l.22.44v21.42l-.22.44c-.34.67-.75.9-1.62.9-1.18 0-1.61-.4-1.79-1.63l-.1-.72-.72.71c-1.38 1.37-3.4 2.01-5.43 1.74Zm2.88-.48c1.32-.47 2.18-1.07 2.96-2.07.62-.8.61-.81.66.37.04 1.21.23 1.6.86 1.78.89.24 1.62.05 2-.52l.27-.42v-10.8c0-12 .04-11.25-.65-11.61-.38-.2-1.52-.2-1.89 0-.59.3-.61.5-.61 5.3 0 2.43-.04 4.36-.09 4.39s-.17-.07-.27-.22c-2.19-3.37-7.34-3.61-10.22-.46-2.51 2.74-2.75 8.5-.47 11.69.94 1.33 2.46 2.36 3.97 2.7.88.2 2.74.14 3.48-.13Zm11.48.19c-.44-.14-.84-.48-1.02-.85-.2-.42-.34-20.79-.16-21.77.12-.63.39-1.01.87-1.25.57-.28 8.85-.28 10.38 0 6.4 1.17 9.62 5.36 9.42 12.29-.18 6.54-3.43 10.45-9.49 11.43-1.16.18-9.5.31-10 .15Zm10.32-.45c5.93-1.16 8.93-5.07 8.94-11.66.01-6.76-3.45-10.8-9.94-11.6-1.65-.2-9.29-.1-9.63.13-.72.47-.67-.41-.67 11.52 0 11.95-.05 11.13.7 11.63l.35.24 4.7-.05c3.83-.04 4.86-.08 5.55-.21Zm-23.9-2c-2.1-.45-3.34-2.13-3.7-5-.48-3.78 1.29-6.57 4.28-6.74 3.26-.18 5.12 1.97 5.12 5.9 0 4.08-2.42 6.56-5.7 5.84Zm2.59-.45c2.25-.91 3.34-3.7 2.76-7.05-.42-2.42-1.63-3.65-3.89-3.97C11.05 22.59 9 24.78 9 28.3c0 3.07 1.08 5.09 3.12 5.82.72.25 2.19.2 2.97-.11Zm13.28-.15c-.06-.15.02-17.99.08-18.05.13-.12 5.99-.01 6.81.13 4.53.8 6.73 3.54 6.75 8.41.03 5.78-2.22 8.87-6.96 9.55-1.15.16-6.62.13-6.68-.04Zm7.33-.31c2.86-.64 4.66-2.2 5.48-4.75.22-.68.52-2.16.52-2.56V26h-3.99l-.16.34c-1.07 2.25-4.19 2.32-5.36.12l-.24-.46h-.55c-.3 0-1.06.03-1.67.07l-1.13.06v7.56l.23.05c.59.12 6.13-.02 6.87-.19Zm.3-6c.56-.29 1.14-.88 1.35-1.37l.15-.38 2.13-.02c2.11-.03 2.12-.03 2.15-.25l.03-.23-2.08-.02-2.08-.03-.06-.47c-.45-3.09-4.66-3.2-5.49-.15l-.17.62-1.67.03-1.66.02v.5h3.58l.11.32c.5 1.43 2.32 2.13 3.71 1.43Zm-1.95-.71c-1.54-.8-1.49-2.83.07-3.49 1.59-.66 3.11.94 2.39 2.5-.46.99-1.59 1.44-2.46.99Zm1.54-.28c.74-.39.62-.46-.78-.46-1.39 0-1.48.04-.87.41.38.23 1.24.26 1.65.05Zm.8-.98c.13-.33.11-.33-1.62-.3-1.42.03-1.57.05-1.57.21 0 .29.08.31 1.62.31 1.45 0 1.49-.01 1.57-.22Zm-4.5-1.04c.78-3.07 4.91-3.23 5.82-.23l.21.69h3.91l-.06-1.22c-.17-3.4-1.42-5.57-3.92-6.78-1.64-.8-3.27-1.03-6.9-.98l-2.3.03-.03 4.48L28.6 25h3.18zm4.57.29c-.02-.1-.07-.28-.11-.4-.16-.58-1.18-1.1-1.86-.94-.67.15-1.29.77-1.29 1.3 0 .21.03.21 1.66.21 1.53 0 1.65-.01 1.6-.17Z"/></svg>