<svg xmlns="http://www.w3.org/2000/svg" width="51" height="51" viewBox="0 0 51 51"><path fill="#fff" fill-rule="evenodd" stroke="#fff" stroke-width=".422" d="M17.2 35.36c-1.01-.35-2.1-1.02-2.1-1.28 0-.18.5-.78.65-.78.07 0 .36.15.64.34 1.66 1.12 3.61 1.07 4.13-.1.38-.86-.07-1.47-1.34-1.84-2.71-.78-3.11-.99-3.54-1.86-.52-1.06-.15-2.31.9-3.01 1.25-.85 3.49-.7 4.83.33.41.31.41.35-.03.84l-.37.41-.21-.2c-1.03-.97-3.3-1.01-3.87-.07-.64 1.05-.06 1.63 2.24 2.26 2.05.57 2.87 1.3 2.87 2.58 0 2-2.46 3.22-4.8 2.38Zm-11.08.06c-.1-.07-.12-1.05-.1-4.58l.03-4.49.34-.03c.19-.02.44-.01.57.02l.24.06v7.9l2.48.02 2.47.03v1.1l-2.95.02c-1.62.02-3.01-.01-3.08-.05Zm24 .01c-.09-.04-.12-1.04-.12-4.53v-4.49l2.27-.03c1.26-.02 2.74-.02 3.31 0l1.02.03v1.19h-5.3v2.7l2.32.02 2.33.03v1.1l-2.33.03c-1.75.02-2.32.05-2.33.15-.05.47-.06 1.71-.02 2.14l.05.53 2.67.02 2.66.03.03.49c.02.32-.01.52-.1.57-.14.09-6.24.11-6.46.02Zm12.52-1.85c-.86-1.06-2.12-2.62-2.78-3.47l-1.21-1.55-.03 3.42-.02 3.42h-1.2v-8.98l.24-.06c.56-.14.84.03 1.6.98 1.12 1.41 4.29 5.37 4.48 5.6.17.2.18.05.18-3.16V26.4h1.2l-.02 4.53-.03 4.52-.42.03-.41.03zM13.12 30.9l.01-4.51.61.03.61.03v8.9l-.62.03-.62.03zm7.08 4.19c2.21-.97 1.94-3.51-.44-4.2-2.97-.85-3.45-1.18-3.32-2.27.19-1.46 2.53-1.96 4.16-.88.37.24.38.25.55.06.26-.29.12-.48-.57-.8-2.37-1.1-4.88-.12-4.88 1.91 0 1.2.68 1.75 2.9 2.34 1.79.47 2.3.86 2.3 1.78 0 1.76-2.46 2.26-4.54.93l-.59-.38-.21.22-.21.21.25.21c1.2 1 3.36 1.4 4.6.87Zm4.96.24c-.04-.04-.04-1.79 0-3.9l.07-3.82-1.49-.03-1.49-.03-.03-.58-.03-.57 3.58.02 3.58.03v1.1l-1.41.03-1.41.03-.07.91c-.03.5-.06 2.25-.06 3.9v2.98h-.58c-.32 0-.62-.03-.66-.07ZM11.9 34.9v-.3H7l-.02-3.98-.03-3.97-.33-.03-.32-.03v8.61h5.6zm2.2-4v-4.3h-.7v8.6h.7zm12.08.33.02-3.93h2.91l-.03-.32-.03-.33-3.27-.03-3.28-.02v.7h1.45c1.43 0 1.45 0 1.46.23.01.12 0 1.86-.01 3.86-.02 3.92-.03 3.84.5 3.79l.25-.03zM36.4 34.9v-.3H31v-3.4h4.7v-.6H31l.02-1.62.03-1.63 2.63-.03 2.62-.02v-.71l-2.87.02c-1.59.01-2.94.04-3 .07-.1.03-.13.98-.13 4.28v4.24h6.1zm1.93-.85c.03-.64.03-2.09 0-3.23-.06-2-.01-2.82.16-2.82.04 0 .28.26.53.58.25.31.8 1.02 1.23 1.57 2.68 3.43 4.08 5.05 4.34 5.05h.26v-8.5h-.65v3.5c0 2.1-.04 3.5-.09 3.5-.12 0-1.21-1.28-2.96-3.5-2.97-3.75-2.83-3.6-3.16-3.6h-.29v4.24c0 4.57-.03 4.3.46 4.35.07.01.13-.39.17-1.14Zm-27.9-9.46c-.38-.11-1.07-.73-1.01-.91.03-.07.22-.15.42-.18l.38-.05-.31-.23c-.17-.12-.39-.39-.5-.6l-.19-.37-.07.63c-.08.69-.13.72-.73.47-.66-.28-1.27-1.08-1.2-1.58.03-.19.1-.22.63-.25l.59-.03-.39-.22c-.22-.12-.5-.38-.62-.56l-.23-.34v.37c0 .5-.23.57-.61.2-.8-.76-.8-1.93-.01-2.68.38-.35.62-.29.62.14v.32l.26-.32c.15-.17.43-.39.63-.5l.36-.19-.58-.01c-.69 0-.77-.11-.53-.75.21-.55.83-1.12 1.31-1.21.47-.08.55.03.55.76v.55l.19-.41c.1-.22.34-.53.52-.67l.34-.27-.37.02c-.47.03-.56-.07-.38-.39.49-.86 2.17-.97 2.95-.19.38.38.33.56-.17.56h-.43l.38.31c.21.17.46.47.57.67l.19.37.01-.63c0-.86.39-.93 1.22-.24.82.69.87 1.46.1 1.5l-.53.03.41.3c.22.16.5.44.61.62l.2.32-.01-.35c-.04-.75.1-.79.63-.21.74.82.69 1.98-.09 2.6-.42.33-.54.28-.54-.26v-.48l-.19.3c-.2.33-.54.66-.86.83-.17.09-.1.11.37.12.66 0 .71.04.56.53-.22.7-.82 1.26-1.55 1.42l-.33.07-.01-.74c0-.56-.02-.68-.1-.49-.16.39-.5.82-.83 1.02l-.31.19h.48c.58 0 .61.15.14.63-.5.5-1.22.67-1.94.46Zm10.87-.08c-4.82-1.3-4.96-8.2-.21-9.72 1.51-.48 3.47-.22 4.72.64.99.68 1 .61-.08 1.81l-.52.59-.61-.41c-2.11-1.41-4.44-.27-4.45 2.18-.01 2.64 2.68 3.86 4.67 2.11.46-.4.38-.42 1.19.38s.8.76.32 1.23c-1.24 1.2-3.24 1.67-5.03 1.19Zm5.92.02c-.1-.25-.09-9.8.01-9.9.13-.13 4.36-.16 5.26-.04 2.66.35 3.84 2.76 2.17 4.4l-.45.44.4.2c2.19 1.08 1.53 4.34-1 4.94-.95.22-6.29.18-6.39-.04Zm12.69.01c-3.44-.92-4.82-5.1-2.66-8.05 1.67-2.26 5.52-2.63 7.65-.72l.44.4-.51.59c-.28.32-.62.69-.76.82l-.25.23-.5-.35c-1.91-1.38-4.17-.55-4.54 1.66-.48 2.84 2.41 4.41 4.73 2.57l.39-.31.7.68c.84.81.84.79.15 1.42-1.19 1.09-3.15 1.52-4.84 1.06Zm-28.28-.28c.89-.39.81-.45-.56-.46-1.38 0-1.49.06-.73.41.49.22.86.24 1.29.05Zm12.51-.02c.7-.18 1.22-.46 1.84-1l.44-.37-.53-.53c-.63-.64-.56-.63-1.19-.18-2.17 1.56-4.82.15-4.83-2.56-.01-2.55 2.66-3.97 4.75-2.52l.52.35.59-.63.6-.63-.34-.28c-2.32-1.9-6.24-1.16-7.55 1.43-1.97 3.89 1.42 8.02 5.7 6.92Zm9.77-.02c2.19-.73 2.32-3.63.2-4.54l-.46-.2.25-.19c1.41-1.12 1.62-2.42.58-3.55-.73-.79-1.09-.87-4.24-.92l-2.71-.04-.06.84c-.09 1.07-.09 8.41-.01 8.63.08.2 5.82.18 6.45-.03Zm8.84.04c.7-.18 1.3-.51 1.81-.98l.45-.41-.53-.54c-.62-.63-.56-.62-1.14-.18-2.27 1.74-5.32-.19-4.85-3.07.39-2.33 3.14-3.41 4.9-1.92.39.33.42.32 1-.32.61-.67.61-.64.12-1.03-2.5-1.98-6.61-.88-7.71 2.05-1.41 3.79 2 7.46 5.95 6.4Zm-31.08-1.05c.43-.2.86-.74.98-1.23l.07-.28h-1.66c-1.83 0-1.78-.02-1.47.65.42.92 1.22 1.25 2.08.86ZM8.9 22.5v-.7h-.7c-.75 0-.79.04-.56.48s.8.88 1.19.91c.04.01.07-.3.07-.69Zm5.24.21c.1-.09.27-.33.37-.53l.19-.38h-1.52l.06.31c.03.17.06.49.06.71v.39l.32-.17c.18-.09.41-.24.52-.33Zm15.32.13c-.17-.06-.18-.13-.12-.97.03-.49.06-1.06.06-1.25v-.35l1.58.05c1.64.06 2.1.16 2.45.55.43.49.26 1.48-.32 1.78-.32.16-3.23.31-3.65.19Zm3.03-.33c.63-.09.91-.35.91-.87 0-.79-.66-1.04-2.72-1.04H29.6v2l1.18-.01c.64 0 1.41-.04 1.71-.08Zm-22.5-1.34c-.18-.12-.44-.4-.56-.62l-.23-.4v1.25h1.13zm2.99-.42.03-.6-.19.3c-.22.34-.69.8-.92.88-.08.03.12.05.45.04l.6-.02zM8.9 19.59v-1.7l-.22.07c-1.28.39-1.75 1.69-.96 2.69.18.24.88.64 1.11.65.04 0 .07-.77.07-1.71Zm3.06 1.35c.99-.57 1-1.95.01-2.68-.4-.3-1.44-.3-1.83 0-1.75 1.3-.07 3.77 1.82 2.68Zm1.77.22c1.04-.43 1.38-1.78.66-2.6-.27-.32-.84-.66-1.08-.66-.12 0-.16 2.95-.05 3.24.07.19.07.19.47.02ZM6.9 19.62l-.01-1.27-.29.33c-.43.47-.45 1.23-.04 1.85.34.52.34.52.34-.91Zm8.9.46c.14-.49.05-.97-.25-1.34l-.24-.29-.01 1.19c0 1.19 0 1.19.2 1.01.11-.1.25-.36.3-.57Zm-6.09-1.84c.13-.12.38-.29.54-.37l.3-.16-.67-.01H9.2v.68c.01.64.01.66.14.37.07-.16.24-.4.37-.51Zm3.29.06v-.6h-1.55l.4.19c.39.17.95.72.95.92 0 .05.04.09.1.09s.1-.27.1-.6Zm16.48.54c-.05-.04-.08-.61-.08-1.27v-1.2l1.38.05c1.62.05 2.05.2 2.29.76.26.63-.02 1.26-.67 1.5-.32.12-2.83.26-2.92.16Zm2.27-.34c.79-.1 1.15-.38 1.15-.91 0-.62-.7-.89-2.35-.89h-.95v.88c0 .49.03.92.07.95.09.1 1.25.08 2.08-.03ZM8.88 16.68c.02-.53 0-.68-.11-.68-.23 0-.8.43-1.04.79-.38.56-.32.62.45.59l.67-.03zm3.82.62c0-1.45-2.2-1.9-3.01-.62-.47.74-.5.72 1.36.72 1.07 0 1.65-.04 1.65-.1Zm1.9-.04c0-.33-.89-1.26-1.21-1.26-.05 0-.09.32-.09.7v.7h.65c.48 0 .65-.04.65-.14Zm-2.31-1.93c-.47-.56-2-.57-2.46-.01-.09.11.13.13 1.22.13 1 0 1.31-.03 1.24-.12Z"/></svg>