<svg xmlns="http://www.w3.org/2000/svg" width="51" height="51" viewBox="0 0 51 51"><path fill="#fff" fill-rule="evenodd" stroke="#fff" stroke-width=".742" d="M23.1 47.69C7.81 45.82-1.1 29.56 5.64 15.83c6.7-13.64 24.77-16.68 35.58-6 11.41 11.28 7.37 30.63-7.62 36.52-2.91 1.14-7.43 1.72-10.5 1.34Zm2.4-3.28v-3.18l-.97-.07c-7.79-.57-13.99-6.76-14.5-14.47l-.06-.99h-6.4l.06 1.13c.27 4.53 2.02 9.08 4.84 12.58 3.92 4.86 10.36 8.08 16.36 8.18l.67.01zm3.49 2.93c10.29-1.63 17.89-10.04 18.57-20.56l.07-1.08h-6.4l-.07.92c-.58 7.83-6.73 14-14.5 14.54l-.96.07v6.4l1.18-.07c.64-.04 1.59-.13 2.11-.22Zm-.69-6.59c7.43-1.41 12.61-7.61 12.64-15.15.05-11.38-11.83-18.81-22.09-13.8-7.61 3.7-10.76 12.69-7.14 20.38 2.92 6.22 9.91 9.83 16.59 8.57Zm-3.88-7.81c-1.3-.64-1.89-2.38-1.24-3.62l.23-.43-.35-.43c-.84-1.01-1.06-2.4-.57-3.5.2-.45.2-.51.06-.7-.8-1.09-1.05-1.73-1.05-2.72 0-3.34 3.69-5.28 6.45-3.39 1.86 1.27 2.3 4.18.88 5.84-.35.42-.36.43-.21.75.59 1.23.41 2.64-.47 3.72l-.35.42.26.57c1.03 2.24-1.43 4.59-3.64 3.49Zm1.99-.09c1.4-.5 2.07-2.02 1.45-3.29-.26-.53-.28-.55-.49-.41-.8.52-2.1.61-3.09.21l-.63-.26-.17.21c-1.36 1.64.82 4.28 2.93 3.54Zm.33-3.66c1.47-.55 2.31-2.26 1.87-3.85-.2-.7-.21-.7-1.02-.3-1.5.73-3.01.7-4.21-.09-.5-.33-.54-.32-.74.22-.96 2.5 1.57 4.97 4.1 4.02Zm-16.71-4.61c.51-7.8 6.8-14.08 14.55-14.55l.92-.06V3.59l-.97.06c-11.5.73-20.29 9.44-20.9 20.73l-.06 1.12h6.4zm37.57.54c0-5.1-2.34-10.75-6.05-14.61-4.06-4.23-8.92-6.49-14.77-6.86l-1.08-.07v6.39l.98.06c7.64.46 13.95 6.74 14.48 14.39l.07.98 2.56.03c1.41.01 2.84.03 3.19.05l.62.02zm-20.75.01c1.85-.59 2.92-2.46 2.51-4.42-.62-2.98-4.18-4.11-6.39-2.02-3.04 2.88-.13 7.71 3.88 6.44Z"/></svg>