<svg xmlns="http://www.w3.org/2000/svg" width="51" height="51" viewBox="0 0 51 51"><path fill="#fff" fill-rule="evenodd" stroke="#fff" stroke-width=".605" d="M26.5 45.8c7.24-.05 7.36-.05 7.81-.26.62-.29 1.25-.87 1.6-1.49.16-.27.29-.45.29-.39 0 .27-.84 1.35-1.27 1.64-.94.61-.76.6-8.62.58l-7.16-.03zm-7.36-.6c-.85-.13-1.7-.84-2-1.67-.17-.49-.21-34.74-.04-35.35.16-.57.69-1.19 1.29-1.5l.53-.28h7.47c8.33 0 7.85-.03 8.59.71.79.78.72-1.07.72 18.65 0 19.93.08 17.98-.82 18.79-.81.74-.33.7-8.23.71-3.9 0-7.28-.02-7.51-.06Zm14.7-.32c.55-.16 1.4-1.01 1.55-1.54.15-.55.15-34.63 0-35.18-.15-.53-.84-1.19-1.46-1.4-.8-.27-14.82-.2-15.33.08-.49.26-.88.64-1.11 1.08-.25.49-.3 35.01-.06 35.61.22.52.68.98 1.22 1.23l.5.24h7.14c5.31 0 7.24-.03 7.55-.12Zm9.52-1.77c.59-.27 1.19-.84 1.46-1.39l.23-.47.05-15.55.05-15.55.03 15.41c.02 17.13.07 15.89-.66 16.74-.39.46-1.16 1-1.41 1-.09 0 .03-.09.25-.19ZM10 42.81c-.76-.16-1.34-.64-1.69-1.41-.2-.45-.21-.57-.21-15.8V10.25l.24-.5c.25-.55.7-.99 1.26-1.24.41-.18 4.11-.28 5.88-.16l1.02.07V25.6c0 15.57-.01 17.18-.16 17.24-.22.08-5.91.05-6.34-.03Zm26.27.03c-.04-.04-.07-7.8-.07-17.25V8.42l1.86-.07c4.13-.16 5.2-.02 5.95.82.68.76.64-.36.64 16.43s.04 15.67-.64 16.43c-.71.79-.84.82-4.46.85-1.76.02-3.24 0-3.28-.04ZM16.3 36.01v-6.58l-.22-.29c-.12-.16-.3-.35-.4-.42-.4-.29-.8-1.72-.68-2.43.07-.45.64-1.68.84-1.81.07-.05.04-.08-.08-.08-.26 0-1.26-.59-1.26-.74 0-.14.78-.56 1.03-.56.24 0 .02-.44-.3-.61-.15-.08-.4-.43-.6-.83-.19-.38-.44-.81-.54-.96-.21-.27-.17-.6.06-.6.07 0 .15-.07.19-.15.03-.08.12-.15.2-.15.07 0 .16-.09.19-.19.04-.18.58-.5.91-.55.08-.01.19-.05.22-.09.04-.04.16-.07.26-.07.17 0 .18-.22.18-5.15V8.6h-3.02c-3.73 0-4.19.12-4.72 1.24-.19.39-.25 30.91-.07 31.39.16.4.73.99 1.16 1.18.36.17.72.19 3.53.19h3.12zm26.75 6.4c.22-.1.53-.31.69-.47.71-.71.66.64.66-16.34 0-16.97.05-15.63-.66-16.33-.62-.62-.6-.62-4.06-.65l-3.18-.03v4.37h.58c1.47.01 2.22.26 2.53.86.11.21.26.38.35.38.64 0 1.11.64.93 1.29-.07.25-.14.57-.15.71 0 .14-.02.39-.02.56-.02.4-.58 1.23-.93 1.38-.25.11-.26.13-.13.36.22.4.16.61-.26 1.01l-.4.38.28.21c.15.12.42.28.6.35.17.08.32.19.32.24 0 .21-.44.13-1.54-.25-.51-.18-.51-.18-.27.7.25.9.24.86.08.86-.08 0-.44-.31-.81-.7-.83-.85-.76-.86-.76.09 0 .78 0 .78.25.73.14-.02.25-.02.25.01s-.11.27-.25.53c-.2.37-.25.62-.25 1.16v.68l.24-.15c.13-.09.36-.34.5-.55.31-.47.87-.81 1.83-1.09.6-.18.77-.28 1.07-.63.43-.53.56-.43.28.2-.15.33-.22.73-.24 1.37-.05 1.09-.31 1.72-.89 2.15l-.39.27.46.18c.48.18 2.14 1.66 2.14 1.91 0 .19-.14.18-.31-.02-.36-.43-1.89-.65-2.03-.29-.12.32-.75.48-1.68.42-1.21-.08-1.12-.36-1.05 3.49.06 3.2.06 3.26-.13 3.21-.2-.05-.2.03-.2 3.79v3.84h3.08c2.76 0 3.11-.02 3.47-.19ZM7.55 34.8c0-3.38.01-4.77.02-3.07.02 1.69.02 4.45 0 6.15-.01 1.69-.02.3-.02-3.08Zm20.12.66c-.03-.08-.11-.5-.18-.95-.14-.94-.06-.95-1.29.09-.79.67-.85.71-.98.54-1.38-1.98-2.02-3.1-2.16-3.8l-.11-.51-.8.24c-.5.15-.99.23-1.3.21l-.5-.03.02-.46c.02-.9 1.17-3.06 2-3.79.48-.43 1.27-.4 2.19.08 1.09.57 1.45.63 2.08.35.49-.23.54-.28.52-.56-.01-.31 0-.32.57-.41.31-.04.57-.12.57-.16s.45-.22.99-.4c1.11-.35 1.44-.54 1.23-.69-.37-.24.14-1.39.76-1.7.37-.2.8-.97.46-.84-.12.04-.15.02-.12-.08.03-.08.1-.13.17-.12.17.04.24-.42.18-1.13-.06-.78.03-.7-.81-.79l-.69-.07.07.46c.06.36.04.46-.07.46-.15 0-.27-.58-.27-1.31 0-.31-.58-2.1-.72-2.24-.02-.02-.37.05-.78.15l-.75.19-.9-.52c-1.85-1.08-2.35-1.11-3.34-.21-.62.56-.92 1.13-.98 1.88-.09 1.02.4 1.51.66.67.14-.48.59-.88 1.09-.96.63-.11.63-.1.47-.49-.16-.38-.11-.89.11-1.07.12-.09.14-.02.14.43 0 .81.09.88 1.15.92.94.04 1.42.16 1.88.48.23.17.41.57.2.46-1.06-.54-2.72-.82-2.57-.44.06.15.15.16.55.11 1.44-.2 1.87.81 1.12 2.62l-.3.71.29.22.3.22.33-.32c.42-.41.71-1.07.8-1.85.04-.33.16-.76.27-.97.2-.34.2-.38.04-.84-.41-1.22-.08-1.14.42.1.48 1.17.51 1.45.21 2.01-.11.22-.32.71-.45 1.09-.24.7-.56 1.16-.81 1.16-.17 0-.17-.15.02-.3.14-.12.59-1.19.52-1.26-.02-.02-.11.15-.22.39-.11.26-.56.8-1.21 1.45-.85.83-1 1.02-.81 1.02.34 0 1.25-.29 1.8-.57.27-.13.56-.23.65-.21.2.04-.68.62-1.24.81-.35.13-.37.15-.16.21.12.04.22.12.22.18 0 .17-3.99 0-4.27-.18-.35-.22-.63-.56-.63-.76 0-.24.17-.23.3.02.29.54.78-.13.6-.81-.13-.46-.69-1.67-.81-1.75-.26-.16-1.73 1.1-2.07 1.78-.14.29-.22.63-.22.97 0 .6-.13.51 1.65 1.06 1.64.51 3.35 1.18 3.31 1.3-.05.15-.63.06-1.36-.22-.36-.14-1.32-.47-2.14-.74-1.75-.57-1.86-.65-1.86-1.3 0-1.05.95-2.42 2.19-3.15.34-.2.4-.46.15-.66-.88-.71-1.01-1.53-.39-2.65 1.07-1.98 2.52-2.24 4.7-.83l.6.39.78-.19c.43-.1.84-.17.91-.14.15.06.86 1.88.86 2.19 0 .39.16.49.87.53.89.05.93.11.93 1.35 0 1.49-.17 1.87-1.1 2.48-.23.15-.25.23-.26.86l-.01.7.36.13c.88.31 2.48 2.4 2.22 2.88-.21.39-1.6.91-2.44.92-.27 0-.44.06-.55.2-.11.13-.35.24-.66.28l-.49.07-.29.85c-.41 1.22-.58 2.1-.65 3.35-.03.61-.1 1.16-.16 1.23-.13.16-.54.15-.6-.02Zm.42-1.44c.01-1.22.12-1.82.56-3.1.38-1.12.37-1.28-.06-1.37-.22-.05-.28-.12-.26-.28.01-.12-.03-.21-.09-.2-.07.01-.13-.27-.17-.75-.06-.76-.24-1.58-.33-1.49-.03.02.02.44.11.93.17.95.21 3.48.09 5.3-.06.87 0 1.94.1 1.94.02 0 .04-.44.05-.98Zm-1.25-.46.4-.33-.43-1.59c-.88-3.3-.81-3.17-1.24-2.49-.38.6-1.01 1.12-1.6 1.33-.81.29-.76.85.24 2.29.34.48.71 1.04.82 1.23l.22.35.07-1c.07-1.1.26-1.86.47-1.93.11-.04.13.03.07.34-.18 1.03-.26 1.64-.26 2.17v.58l.43-.31c.23-.16.6-.45.81-.64Zm.76-2.78V29.5h-.45c-.56 0-.56-.01-.08 1.58.44 1.48.53 1.43.53-.3Zm-4.97-.29c1.56-.46 2.09-.76 2.48-1.37l.3-.47-.28-.12c-.36-.16-.95-.16-1.44-.01-.37.1-.39.14-.39.5 0 .21-.04.38-.1.38s-.1-.16-.1-.36c0-.32-.02-.35-.22-.29-.61.18-1.54 1.3-1.23 1.48.21.11.09.27-.19.27-.35 0-.36-.07-.04-.68.49-.93.73-1.19 1.3-1.4.4-.15.49-.22.36-.27-.22-.09-.24-.35-.02-.35.09 0 .18.09.21.21.05.17.11.19.37.14.63-.13.67-.15.56-.34-.09-.18-.04-.31.11-.31.04 0 .09.1.11.22.04.33 1.38.75 1.38.44 0-.09-.12-.18-.27-.22-.59-.13-.92-.26-1.05-.41-.41-.5-1.6-.59-2-.15-.64.69-1.63 2.54-1.75 3.25l-.06.37.34-.06c.19-.04.92-.24 1.62-.45Zm7.57-1.14c0-.24.02-.25.64-.25.65 0 1.76-.28 2.1-.53.17-.13.12-.15-.52-.21-.55-.06-.72-.11-.72-.22 0-.13.1-.14.65-.09.82.09.82 0 .02-.95-.81-.96-1.51-1.28-2.26-1.04-1.35.44-1.82.66-1.77.83.02.09.08.45.11.8.07.63.07.63.24.38.56-.85 1.66-1.11 2.84-.67.89.33.76.53-.17.25-1.03-.31-1.95-.07-2.46.65l-.21.29.83-.07c1.19-.1 2.38-.09 2.38.03 0 .06-.55.15-1.25.21-1.32.12-1.55.19-1.11.3.14.03.26.1.26.15 0 .16-.3.09-.5-.11-.21-.21-.55-.27-.65-.11-.11.19.67.61 1.12.61.39 0 .43-.02.43-.25Zm-6.29-3.66c-1.52-.3-2.31-2.69-.85-2.57.21.02.39.09.42.17.04.11-.02.13-.26.08-.59-.12-.79.4-.43 1.11.32.63.62.83 1.4.95.4.07.7.16.68.22-.05.13-.42.15-.96.04Zm15.75-.64c.57-.44.38-.49-.23-.06-.31.23-.61.41-.66.41-.06 0 .11-.14.36-.31.53-.35 1.17-1.05 1.17-1.28 0-.13-1.89 1.6-1.98 1.82-.07.14.99-.31 1.34-.58Zm-13.43-.4c.18-.09.52-.34.77-.56l.45-.4-.4.16c-.22.1-.89.34-1.5.55l-1.1.38.73.01c.48.01.85-.04 1.05-.14Zm.04-.89c1.14-.44 1.19-.52.34-.6-.39-.04-.95-.13-1.24-.21-.62-.16-.58-.2-.45.38.08.39.07.52-.06.72l-.16.24.44-.13c.24-.07.75-.25 1.13-.4Zm3.83-.19c0-.08.09-.22.2-.32.13-.11.18-.25.14-.37s0-.18.11-.18c.17 0 .85-1.3.85-1.62 0-.1.05-.18.1-.18.2 0 .09.7-.2 1.25-.38.72-.38.73.08.77l.37.03-.47.27c-.46.25-.62.26-.36 0 .09-.09.09-.12.01-.12-.07 0-.14.04-.18.1-.13.22-.65.51-.65.37Zm-3.3-.87c0-.38-.24-.6-.61-.54-.62.1-1.86-.29-1.41-.44.16-.05.15-.19-.07-.76l-.18-.49-.19.32c-.46.77-.4.21.07-.73.35-.67.33-.72-.13-.53-.94.39-.73 2.18.32 2.72.66.34 2.2.66 2.2.45Zm-.76-1.52c-.18-.78-.36-1.3-.29-.83.09.63.09.95 0 .97-.16.05-.25-.63-.19-1.34s-.09-.91-.44-.56c-.15.15-.16.48-.01.48.06 0 .08.09.04.22-.05.18-.04.2.04.08.09-.12.11-.11.11.09 0 .16-.04.22-.15.17-.2-.07-.2.23 0 .71.22.53.34.63.7.63h.33zm.72-.09c.26-.51.09-1.15-.32-1.25-.35-.09-.45.02-.33.34.06.15.12.52.15.82.02.3.03.57.04.59.01.1.33-.26.46-.5Zm10.01-2.27c.08-.02.13.06.13.21 0 .36.22.49.77.45.52-.03.59-.17.39-.75-.15-.44.12-.22.33.27.24.55.36.6.75.29.66-.52-.5-1.92-1.39-1.68-.22.06-.59.09-.82.06l-.43-.05.01.97c.01.58.04.83.08.62.03-.19.12-.36.18-.39Zm3.15-1.2c.3-.34.42-.68.5-1.37.04-.38.1-.81.13-.95.16-.65-1.06-1.14-1.33-.54-.11.24-.11.26.02.15.18-.15 1.08-.1 1.14.07.02.08-.11.12-.46.12-.6 0-.84.2-.58.48.09.1.16.23.16.29s.16.23.35.37c.44.34.36.52-.1.25-.38-.23-.47-.14-.15.14.21.18.27.47.1.47-.06 0-.13-.06-.16-.14-.1-.27-.32-.24-.64.09l-.32.33.38.21c.48.25.76.26.96.03Zm-.77-3.46c.4-.29-.08-.65-.95-.71-.25-.02-.6-.08-.77-.13-.45-.14-.93.04-.93.35 0 .13.05.23.1.23.06 0 .1-.07.1-.15s.05-.15.11-.15.09.07.05.15c-.04.11.02.15.23.15.16 0 .34-.07.41-.15.24-.29 1.2.03 1.2.4 0 .19.2.19.45.01Z"/></svg>