<svg xmlns="http://www.w3.org/2000/svg" width="51" height="51" viewBox="0 0 51 51"><path fill="#fff" fill-rule="evenodd" stroke="#fff" stroke-width=".628" d="M.5 26.61C.5 13.08.53 1.95.56 1.86c.06-.14 1.34-.16 13.48-.17 7.37 0 15.52-.04 18.11-.07 7.95-.12 19.05-.03 19.05.15 0 .12-.66.14-4.99.11l-4.99-.03.88.22c4.9 1.2 7.65 4.45 8.45 9.98 1.85 12.68-4.61 29.18-13.82 35.34-6.92 4.63-16.92 3.3-24.83-3.32-4.82-4.03-9.29-10.54-10.84-15.78l-.25-.84v5.35C.79 46.99.75 51.2.62 51.2.53 51.2.5 46.21.5 26.61Zm-.45-1.16c0-14.02.01-19.75.02-12.72.02 7.03.02 18.51 0 25.5-.01 7-.02 1.25-.02-12.78Zm29.6 24.34c6.97-.85 13.33-6.85 17.44-16.46 3.93-9.22 4.66-21.11 1.61-26.32C44.9.5 34.34.04 20.25 5.75 11.25 9.4 5 13.76 2.33 18.25c-2 3.36-2.17 7.21-.49 11.5 2.87 7.34 9.04 14.4 15.31 17.53 4.05 2.01 8.77 2.96 12.5 2.51Zm-2.1-5.96c-4.86-.14-10.15-.8-10.82-1.35-.24-.19-.18-21.45.05-21.57 1.52-.81 11.32-1.66 15.68-1.35l.89.07-.03 12.05c-.01 6.62-.05 12.09-.08 12.13-.05.08-3.33.09-5.69.02Zm5.55-11.6c0-6.26.03-11.62.07-11.92l.06-.53-3.99.05c-5.2.07-9.1.42-11.59 1.05l-.7.18-.03 10.62-.02 10.61.52.16c1.81.54 4.29.84 8.98 1.08.3.02 1.93.04 3.63.05l3.07.02zm1.4-.47c0-7.2.04-11.57.1-11.61.08-.05 1.34.93 1.52 1.19.04.06.08 4.7.08 10.31v10.21l-.73.72c-.4.39-.78.72-.85.72-.09 0-.12-2.49-.12-11.54Zm1.4-.09V21.49l-.52-.49-.53-.48-.05 5.22c-.03 2.86-.04 7.91-.02 11.21l.02 5.99.55-.54.55-.54zm-11.7 9.97c-1.4-.15-1.4-.15-1.46-.39-.16-.63 0-.69 1.95-.62 2.13.06 2.13.07 2.09.61l-.03.41-1.1.01c-.6.01-1.26 0-1.45-.02Zm2.38-.41c.04-.28-.16-.32-2.08-.35-1.44-.03-1.45-.03-1.48.2-.03.19.01.22.35.23.21.01.88.05 1.48.09 1.58.1 1.69.09 1.73-.17Zm.17-2.23c-3.78-.1-6.12-.28-7.82-.61l-.51-.1-.07-1.12c-.03-.62-.05-4.25-.03-8.07l.03-6.95.5-.12c1.74-.43 6.6-.85 10.15-.87l2.65-.01v17.9l-.95.01c-.52 0-2.3-.02-3.95-.06Zm4.7-3.32c.03-1.72.05-5.64.03-8.72l-.03-5.59-3.1.06c-3.69.07-6.25.29-9.12.78l-.63.11v15.76l.68.11c2.39.39 5.02.55 9.63.59l2.47.02zm-17.8-.58c-5.3-1.08-6.61-8.36-2.02-11.3l.54-.35.07-.9c.55-7.3 5.45-12.54 12.49-13.36 8.23-.96 15.42 4.95 15.84 13.02l.06 1.17.62.4c3.37 2.22 3.81 6.74.95 9.62-1.15 1.16-2.83 1.87-4.19 1.78l-.46-.03-.05-7.1c-.06-7.93-.03-7.58-.82-9.38-2.35-5.36-8.88-7.99-14.41-5.8-3.09 1.22-5.38 3.6-6.41 6.68-.49 1.44-.49 1.41-.55 8.7l-.06 6.9-.6.02c-.33.01-.78-.02-1-.07Zm1.38-6.83c.05-7.76.08-7.97 1.2-10.22 4.07-8.18 16.25-8.25 20.38-.13 1.13 2.23 1.13 2.21 1.17 10.16l.03 6.93.52-.07c1.61-.19 2.62-.66 3.68-1.73 2.88-2.9 2.33-7.25-1.18-9.41l-.53-.32v-1.03c0-5.5-3.87-10.62-9.38-12.39-8.96-2.87-17.96 3.17-18.39 12.36l-.06 1.18-.56.31c-4.21 2.37-3.61 8.97.98 10.7.54.2 1.73.39 1.98.31.08-.03.13-1.72.16-6.65Zm6.34 1.56c-.11-.1-.08-1.76.03-1.93.08-.13.58-.15 3.47-.15h3.37l-.03 1c-.01.55-.05 1.03-.07 1.07-.06.1-6.68.11-6.77.01ZM28 28.75v-.85h-1.53c-.85 0-2.29.03-3.2.07l-1.67.06v1.57H28zm-8.72-3.77c-.03-.68-.02-1.27.02-1.31.22-.24 4.97-.62 9.14-.74l2.48-.06-.07 1.49c-.03.82-.09 1.57-.11 1.67-.05.16-.41.17-5.73.17h-5.69zm11.25.25c.04-.38.07-.99.07-1.37v-.69l-2.72.06c-3.23.07-6.78.31-8.05.53l-.33.06v2.08h10.97zM1.72 18.82c1.58-3.05 4.75-6.05 9.2-8.73 5.78-3.49 13.87-6.7 19.73-7.85.71-.14 1.43-.29 1.59-.32.15-.04-6.84-.06-15.55-.04-8.7.01-15.84.03-15.85.05-.01.01-.04 4.39-.06 9.74l-.04 9.71.28-.86c.15-.48.47-1.24.7-1.7Z"/></svg>