<svg xmlns="http://www.w3.org/2000/svg" width="51" height="51" viewBox="0 0 51 51"><path fill="#fff" fill-rule="evenodd" stroke="#fff" stroke-width=".703" d="M6.12 30.09c-.62-.3-.92-.61-1.28-1.29-.17-.32-.19-.61-.19-3.25 0-3.28.01-3.33.83-4.07.79-.71.91-.73 5.12-.73h3.75l.03 2.08.02 2.07h-.32c-.33 0-.33 0-.51-.79-.41-1.83-1.56-2.58-3.82-2.49-1.93.08-1.95.12-1.95 3.8 0 3.94.05 4.03 2.14 4.03 2.27 0 3.22-.67 3.62-2.54.07-.36.14-.7.14-.74 0-.05.15-.07.33-.05l.32.03v4.2l-3.81.03-3.8.02zm9.43.19c-.03-.07-.04-2.24-.03-4.83l.03-4.7 1.57-.03 1.57-.03 1.43 1.78c.79.98 2.02 2.49 2.73 3.35l1.3 1.56.09-.31c.11-.41.01-3.11-.13-3.57-.32-1.06-1.17-1.77-2.37-2-.55-.11-.65-.16-.7-.37-.11-.41.02-.44 2.17-.41l2.04.03v9.6h-2.79l-.5-.61c-.28-.33-1.44-1.73-2.58-3.1-1.15-1.37-2.26-2.69-2.49-2.94l-.4-.45.04 2c.04 2.18.13 2.62.72 3.39.33.43 1.29.93 1.96 1.02.48.06.49.07.49.4v.34h-2.05c-1.55 0-2.07-.03-2.1-.12Zm10.81-.04c-.09-.24-.07-9.27.02-9.42.07-.1 1.11-.12 4.88-.1l4.79.03.03 2.08.02 2.07h-.35c-.3 0-.35-.03-.35-.24 0-.43-.39-1.5-.69-1.92-.63-.85-1.61-1.14-3.83-1.14H29.5v3.43l.79-.05c1.23-.07 1.88-.54 2.22-1.63.17-.55.28-.67.58-.63l.26.03v5.3h-.34c-.33 0-.35-.02-.47-.47-.29-1.15-.87-1.59-2.21-1.66l-.83-.05v3.65l1.78-.04c2.74-.06 3.56-.58 3.97-2.55.16-.75.23-.86.56-.81l.24.03v4.2l-4.81.03c-4.33.02-4.82.01-4.88-.14Zm11.88-.08c-.09-.36-.01-.43.58-.5.42-.06.59-.14.9-.45l.38-.39v-7.24l-.32.07c-1.13.25-1.83 1.11-2.18 2.68-.13.55-.14.57-.47.57h-.33v-1.94c0-1.07.03-2.01.06-2.1.09-.24 9.59-.24 9.68 0 .03.09.06 1.03.06 2.1v1.94h-.34c-.37 0-.39-.03-.51-.73-.21-1.29-1.05-2.26-2.17-2.51l-.28-.06v7.32l.28.28c.26.26.85.5 1.23.5.25 0 .38.22.28.48l-.08.22H38.3zm-13.56-.06H25V21h-1.88c-1.87.01-2.07.06-1 .29 1.93.41 2.63 1.97 2.43 5.45-.07 1.33-.13 1.44-.49.99-.11-.15-.86-1.07-1.66-2.03s-1.98-2.42-2.63-3.23L18.58 21H15.8v9.1l1.82-.01c1.85 0 1.91-.03.87-.33-1.15-.33-1.94-1.3-2.19-2.67-.13-.7-.09-4.28.05-4.32.11-.02 1.99 2.14 4.23 4.88.85 1.05 1.69 2.05 1.86 2.24l.31.33.8-.06c.44-.03.95-.06 1.13-.06ZM14.1 28.23c0-1.87-.07-2.14-.28-1.16-.42 1.93-1.78 2.82-4.17 2.71-1.99-.08-2.17-.48-2.13-4.7.04-3.6.13-3.73 2.48-3.73 2.16 0 3.37.77 3.79 2.41.27 1.04.29.97.3-.89l.01-1.88-3.67.03c-4.17.03-4.21.04-4.95.86-.53.59-.58.88-.58 3.63 0 2.85.07 3.26.69 3.88.67.67.81.69 4.89.7l3.62.01zm21.7 0c0-2-.04-2.12-.32-1.01-.5 1.98-1.37 2.49-4.36 2.56l-1.92.04.02-2.08.03-2.09.95.01c1.51.01 2.27.52 2.61 1.76.19.73.24.36.27-2.02.03-2.56-.01-2.78-.37-1.8-.44 1.2-1.26 1.7-2.78 1.7h-.73l.02-1.97.03-1.98 1.9.01c2.21 0 2.69.12 3.44.86.44.43 1 1.45 1.02 1.83 0 .11.04.29.09.4.05.12.09-.51.09-1.62L35.8 21h-9.2v9.1h9.2zm8.47 1.67c-1.28-.4-1.27-.37-1.27-4.91v-3.71l.48.07c1.26.18 2.36 1.39 2.58 2.82.14.93.24.34.24-1.37V21h-9.21l.01 1.8c.02 1.87.08 2.17.27 1.27.34-1.62 1.5-2.77 2.8-2.77h.23v3.71c0 4.56.03 4.45-1.37 4.89l-.58.18h6.4z"/></svg>