<svg xmlns="http://www.w3.org/2000/svg" width="51" height="51" viewBox="0 0 51 51"><path fill="#fff" fill-rule="evenodd" stroke="#fff" stroke-width=".394" d="M33.95 50.09c-.04-.06-.06-.43-.04-.82.02-.4.02-.96.01-1.24l-.02-.53H3.5l.02-22.07.03-22.08 15.24-.03c9.27-.01 15.27-.06 15.31-.11.03-.05.07-.51.08-1.02.02-.51.05-.97.08-1.01.06-.09 16.04-.11 16.28-.02.15.06.16 2.31.16 24.55V50.2h-8.34c-5.81 0-8.37-.03-8.41-.11Zm9.88-.18 6.67-.01V17.6h-.77l-.07 1.98c-.04 1.08-.11 1.98-.16 2s.02.27.14.55c1.12 2.55.42 6.04-1.58 7.97-.45.43-.46.45-.46 1.07 0 .84-.02.86 1.74-1.22l.25-.3.01 1.43v1.42h-2.2v-.85c0-.71-.02-.83-.15-.79-.21.08-.18 4.55.03 4.62.09.03.12-.19.12-.87v-.91h2.21l-.01 2.32c-.01 2.09.01 2.41.2 3.13.95 3.52-.72 7.3-3.92 8.84-2.9 1.39-6.27 1-8.52-.99l-.67-.6h-15.7c-17.11 0-15.93.04-16.51-.57-.5-.52-.48.29-.48-20.92 0-21.25-.02-20.43.47-21.09l.25-.33-.49.03-.48.03-.03 21.88L3.7 47.3h30.5v2.59l.48.03c.26.02.92.02 1.47.02.55-.01 4-.02 7.68-.03Zm-8.76-1.18c-.04-.03-.07-.37-.07-.75v-.68h.62l.63.01.72.68c.4.38.69.71.66.75-.08.08-2.48.08-2.56-.01Zm12.01.01c-.04-.03.31-.42.75-.88.45-.45 1-1.07 1.22-1.38.46-.65.71-.76.61-.27-.03.17-.06.83-.06 1.45v1.14h-1.23c-.68 0-1.26-.03-1.29-.06Zm-3.24-.28c4.79-.92 7.41-6.21 5.24-10.59-1.71-3.44-6.99-4.84-10.48-2.77-7.1 4.19-2.89 14.91 5.24 13.36ZM36.65 48c-.44-.45-.54-.5-.92-.5h-.43v1h1.84zm12.75-.57v-1.08l-.18.3c-.11.16-.52.65-.91 1.08l-.73.77h1.82zm-13.24-1.7c-2.65-3.73-1.5-8.71 2.52-10.93l.81-.45.01-1.21v-1.22l-.88-.48c-1.07-.6-2.21-1.7-2.77-2.68l-.39-.69-.31.36c-.51.59-.55.87-.55 4.14 0 3.73-.15 4.18-1.47 4.3-1.07.1-1.54-.57-1.63-2.33-.07-1.56-.43-2.04-1.52-2.04-1.1 0-1.48.54-1.57 2.24-.09 1.66-.45 2.16-1.55 2.16-1.09 0-1.46-.72-1.46-2.88 0-1.97-.12-2.45-.77-3.08-1.03-1.01-2.62-.94-3.56.16-.5.58-.57 1.01-.57 3.35 0 2.27-.05 2.52-.59 2.98-.59.5-1.5.27-1.84-.46-.13-.27-.17-.64-.17-1.56 0-.81-.05-1.33-.14-1.55-.46-1.09-1.96-.76-1.96.44 0 1.41-1.72 1.93-2.35.7-.11-.21-.15-.64-.15-1.57 0-2.06-.42-2.81-1.38-2.47-.58.21-.62.42-.69 3.9-.06 3.5-.09 3.67-.68 4.4-1.21 1.47-3.56 1.19-4.42-.54-.28-.56-.28-32.36 0-32.92.37-.76-.92-.7 15.11-.7h14.35l.46-.7c.25-.39.45-.75.45-.8 0-.07-5.51-.09-15.69-.08l-15.69.03-.27.25c-.48.45-.57.74-.58 1.99-.01.64-.01 9.79.01 20.33l.02 19.16.27.33c.53.62-.54.58 16.4.59H36.5zm2.53-.76c-.54-.42-.5-1.79.06-2.01.47-.18 1.36-.06 1.6.2.36.39.36 1.34 0 1.69-.27.28-1.35.36-1.66.12Zm2.94-.13c-.35-.35-.31-1.45.06-1.75.29-.24 1.26-.26 1.58-.04.5.35.54 1.47.06 1.85-.4.31-1.36.28-1.7-.06Zm2.96 0c-.37-.39-.35-1.36.04-1.7.37-.31 1.32-.34 1.68-.05.37.3.41 1.4.06 1.75-.38.38-1.42.38-1.78 0Zm-4.36-.13c.07-.07.12-.38.12-.71 0-.72-.09-.82-.77-.88-.76-.06-1.02.16-1.02.88s.26.94 1.02.88c.29-.03.58-.1.65-.17Zm3.01 0c.23-.19.22-1.24-.01-1.42-.2-.17-1.27-.19-1.44-.02-.25.25-.24 1.18.01 1.43s1.14.25 1.44.01Zm2.9.06c.33-.24.34-1.1.03-1.41s-.99-.36-1.35-.1c-.28.2-.32 1.16-.05 1.46.2.22 1.09.25 1.37.05Zm-7.47-2.67c-.47-.37-.45-1.64.03-1.9.21-.11 1.19-.14 1.45-.04.48.19.63 1.47.2 1.89-.33.33-1.28.36-1.68.05Zm2.96-.06c-.35-.35-.31-1.45.06-1.75.36-.29 1.4-.27 1.69.04.41.44.41 1.39 0 1.77-.35.32-1.4.29-1.75-.06Zm2.96 0c-.35-.37-.34-1.31.01-1.69.31-.33 1.33-.37 1.71-.06.37.3.41 1.4.06 1.75-.38.38-1.42.38-1.78 0Zm-4.36-.13c.21-.21.15-1.3-.07-1.47-.26-.19-1.06-.18-1.34.02-.33.23-.32 1.25.01 1.49.26.19 1.2.16 1.4-.04Zm3.01.03c.26-.26.22-1.29-.06-1.48-.25-.18-1-.21-1.28-.06-.4.22-.38 1.43.03 1.6.37.15 1.14.12 1.31-.06Zm2.99-.03c.2-.2.15-1.3-.08-1.47-.25-.19-1.05-.18-1.33.02-.33.23-.32 1.25.01 1.49.25.19 1.2.16 1.4-.04ZM9.51 39.76c.47-.22 1.02-.77 1.26-1.25.16-.32.19-.74.23-3.66.04-2.37.09-3.36.17-3.52.49-.85 1.65-.84 2.11.01.13.24.18.67.22 1.88.06 1.75.16 2.04.78 2.22.67.19 1.16-.25 1.3-1.18.21-1.31 1.33-1.8 2.11-.91.38.44.4.51.43 2.1.04 1.64.39 2.22 1.22 2.01.82-.2.95-.65.96-3.37 0-2.26.09-2.65.71-3.28a2.68 2.68 0 0 1 4.06.27c.46.61.53.97.53 2.8 0 2.13.31 2.82 1.27 2.82.92 0 1.33-.63 1.33-2.07.01-1.73.79-2.62 2.09-2.38 1.05.2 1.43.78 1.48 2.29.07 1.8.59 2.43 1.69 2.01.85-.32.87-.42.91-3.94.04-3.4.09-3.72.62-4.33l.37-.41-.24-.81c-1.73-5.68 3.83-10.92 9.76-9.2.22.06.22.06.22-1.1 0-.64-.02-1.16-.03-1.16-.02 0-.39.09-.82.2-5.84 1.49-11.1-4.28-8.99-9.88l.23-.62-14.34.02-14.35.03-.27.27c-.4.41-.41.84-.42 17.53l-.01 14.9.24.51c.57 1.22 2.01 1.76 3.17 1.2Zm32.51-.26c-.97-.22-.86-1.97.14-2.16 1.12-.21 1.77.49 1.45 1.57-.16.54-.8.77-1.59.59Zm-3.41-.19c-.4-.4-.36-1.48.05-1.82.34-.28 1.42-.18 1.71.15.34.4.3 1.38-.06 1.67-.33.27-1.43.27-1.7 0Zm6 0c-.45-.45-.33-1.62.19-1.88 1.2-.61 2.41.76 1.59 1.81-.27.35-1.46.39-1.78.07Zm-4.4-.18c.08-.09.14-.39.14-.68 0-.71-.14-.85-.86-.85-.73 0-.89.14-.89.81 0 .79.1.89.84.89.47 0 .67-.04.77-.17Zm3.09-.02c.05-.11.1-.41.1-.66 0-.75-.1-.85-.85-.85s-.95.18-.95.85.2.85.95.85c.53 0 .66-.03.75-.19Zm2.9.04c.21-.26.25-1.01.06-1.3-.15-.22-.23-.25-.76-.25-.75 0-.9.14-.9.85 0 .35.05.59.16.69.21.22 1.26.22 1.44.01Zm3.2-3.35V34h-1.8v1.62l.85.9c.47.49.85.93.85.99 0 .05.02.09.05.09s.05-.81.05-1.8Zm-2.6-2.65V31.2l-.75.37-.75.37v2.45l.68.35c.37.18.7.34.75.35.04.01.07-.87.07-1.94Zm-6.15.89c.28-.08.64-.14.82-.14.25 0 .36-.07.52-.34.55-.89 2.1-.69 2.35.29.06.23.39.45.67.45.05 0 .09-.51.09-1.16 0-1.07-.01-1.16-.17-1.09-1.1.42-3.08.49-4.37.16-.44-.12-.81-.21-.83-.21-.01 0-.03.52-.03 1.16 0 1.15 0 1.15.23 1.08.12-.04.45-.13.72-.2Zm3.45-.18c0-.6-1.18-.85-1.72-.37l-.33.29.55.06c.3.03.69.08.85.09.59.07.65.07.65-.07Zm5.3-2.58c0-.57-.04-.98-.09-.92-.81.91-1.61 1.84-1.61 1.88s.38.06.85.06h.85zm-4.65.58c5.54-1.79 7.07-9.07 2.61-12.42-5.1-3.84-12.29-.62-12.28 5.51 0 4.96 4.9 8.46 9.67 6.91Zm-5.06-2.83c-.17-.2-.14-8.09.03-8.3.2-.24 1.45-.17 1.62.1.21.31.15 8.15-.06 8.28-.25.16-1.44.11-1.59-.08Zm4.25-.02c-.8-.37-1.14-1.08-1.14-2.42 0-.82-.02-.89-.2-.89-.72 0-.81-1.52-.1-1.67l.28-.05.04-1.07c.06-1.62.51-2.21 1.72-2.29.82-.05.96.08.96.88 0 .65-.15.9-.55.9-.22 0-.23.02-.27 1.28-.07 2.36.01 3.62.23 3.62.56 0 .89 1.53.4 1.8-.3.16-.92.12-1.37-.09Zm-2.79-4.11v-4.05h-1.3l-.03 3.99c-.03 4.49-.08 4.18.78 4.14l.55-.03zm3.99 4.04c.12-.04.16-.2.16-.54 0-.65-.07-.8-.39-.8-.46 0-.51-.15-.51-1.4 0-.75-.04-1.2-.12-1.28s-.08-.15 0-.25c.07-.07.13-.62.14-1.28l.03-1.14.3-.03c.44-.05.55-.19.55-.71 0-.76-.51-.94-1.4-.48-.68.34-.84.7-.9 2.07l-.05 1.15-.33.03c-.52.05-.5 1.08.03 1.18l.35.06v.85c0 1.04.14 1.61.48 2.02.38.45 1.21.72 1.66.55Zm-33.35-7.33-.29-.29v-2.34c0-1.95.03-2.37.16-2.56.56-.81 1.54-.29 1.54.83v.45h6.3v-.56c0-.97.78-1.45 1.42-.87.34.3.4.81.36 2.97l-.03 2.08-.33.29-.32.29h-8.52zm9.03-.21c.16-.2.18-.45.18-2.46 0-2.49-.04-2.64-.69-2.64-.51 0-.56.17-.61 2.14l-.05 1.81-3.33.03-3.32.02v-1.74c0-1.95-.09-2.26-.7-2.26-.56 0-.6.2-.6 2.68 0 2.18 0 2.23.23 2.45l.22.22 4.24-.01 4.25-.01zm28.58-2v-1.81l-.87.03-.88.03-.03.82-.03.82.44.4c.24.22.63.65.88.96.24.3.45.55.46.55.02 0 .03-.81.03-1.8Zm-32.84.6h2.94v-2h-6.3v.98c0 1.01.04 1.16.28 1.07.07-.03 1.46-.05 3.08-.05Zm30.84-1.75v-.84l1.53-.03 1.52-.03.03-7.97.02-7.98h-.89l-.03 2.07c-.02 1.72 0 2.16.13 2.53.96 2.67.26 5.73-1.78 7.78l-.93.94v2c0 1.9.06 2.38.3 2.38.06 0 .1-.37.1-.85Zm-.6-1.45v-1.99l-.72.35-.73.34-.03 1.24-.03 1.25.73.39c.4.22.74.4.76.41.01 0 .02-.89.02-1.99Zm-37.19-.36c-.34-.28-.41-.7-.18-1.11.15-.27 6.22-6.49 6.54-6.7.4-.26.72-.08 2 1.2 1.2 1.19 1.23 1.2 1.23.88 0-1.01 1.04-1.45 1.56-.65.15.22.17.47.16 1.51l-.02 1.25 1.25 1.28c1.41 1.45 1.56 1.8 1 2.35-.61.62-.77.49-4.58-3.52-1.16-1.23-2.16-2.23-2.22-2.23s-1.27 1.23-2.69 2.73c-3.36 3.53-3.4 3.56-4.05 3.01Zm2.69-1.96c3.46-3.61 3.96-4.09 4.12-4.03.09.04 1.43 1.39 2.98 3 2.96 3.08 3.02 3.13 3.44 2.94.69-.32.45-.85-.99-2.29l-1.15-1.15v-1.3c0-1.18-.02-1.33-.2-1.53-.5-.53-1.1-.1-1.1.77 0 .63-.17.53-1.54-.84-1.03-1.04-1.29-1.25-1.54-1.25s-.69.41-3.34 3.13c-3.86 3.96-3.75 3.81-3.23 4.32.41.42.51.35 2.55-1.77Zm35.07 1.55c-.13-.13-.06-.22.83-1.19.5-.54.98-1.1 1.08-1.26.23-.39.46-.38.38.03-.03.17-.06.8-.06 1.4v1.09h-1.08c-.6 0-1.12-.03-1.15-.07Zm1.91-.21c.09-.06.12-.34.1-1l-.03-.9-.83.91c-.58.64-.78.93-.7.99.17.1 1.29.1 1.46 0Zm-5.65-.13c2.38-.37 4.46-1.82 5.46-3.82 1.74-3.47.5-7.81-2.74-9.58-.5-.27-.73-.45-.63-.47.51-.1 2.67 1.6 3.46 2.73l.21.3.01-1.73V1.4H35.3v1.9h.78c.74 0 .8-.02 1.07-.3.41-.42 1.31-1.03 1.46-.98.07.02-.17.25-.53.51-2 1.42-3.26 4.13-3.03 6.52.41 4.37 4.22 7.31 8.58 6.64Zm-5.81-4.25c-.37-.25-.27-.61.54-1.99 1.42-2.42 1.52-2.44 2.54-.51.14.25.27.46.3.46s.56-.88 1.19-1.96c1.25-2.14 1.47-2.39 1.87-2.08.27.2 3.19 5.14 3.29 5.57.05.18.01.31-.14.46-.28.28-9.19.33-9.59.05Zm9.48-.38c0-.19-1.98-3.79-2.85-5.16-.44-.7-.54-.62-1.92 1.75-.67 1.16-1.27 2.1-1.33 2.1s-.35-.43-.64-.95c-.76-1.35-.75-1.35-1.85.52-.86 1.45-1 1.76-.84 1.91.03.04 2.17.07 4.75.07h4.68zm-7.07-4.17c-.17-.05-.43-.23-.57-.39-1.09-1.3.77-3.01 1.91-1.76.91.99-.05 2.53-1.34 2.15Zm1.13-.53c.6-.6.39-1.49-.4-1.76-1.17-.38-1.96 1.36-.88 1.94.47.26.9.2 1.28-.18ZM35 2.35V1.4h-.6v1.9h.6z"/></svg>