<svg xmlns="http://www.w3.org/2000/svg" width="51" height="51" viewBox="0 0 51 51"><path fill="#fff" fill-rule="evenodd" stroke="#fff" stroke-width=".77" d="M24.7 48.24c-.84-.3-2.83-1.24-3.95-1.86C12.57 41.84 7.76 35.43 6.9 27.9c-.07-.63-.1-3.63-.08-8.95l.03-8 .24-.45c.57-1.09.76-1.2 4.66-2.65 1.59-.59 5.11-1.91 7.8-2.92 5.62-2.12 5.74-2.16 6.35-2.08.25.04 1.64.52 3.1 1.07s5.09 1.91 8.07 3.03c6.15 2.32 6.06 2.28 6.62 2.91.71.81.71.78.77 7.14.11 10.13-.12 12.65-1.48 16.15-2.38 6.11-7.78 11.27-15.23 14.57-1.58.7-2.24.81-3.05.52Zm1.88-.3c7.78-3.04 14.04-8.9 16.3-15.24 1.22-3.42 1.34-4.75 1.3-14.36l-.03-7.2-.3-.59c-.49-.95-.48-.95-7.1-3.44-3.35-1.26-6.89-2.59-7.85-2.96-3.25-1.24-3.3-1.25-4.57-.74-.43.17-3.19 1.21-6.13 2.31-2.94 1.09-6.25 2.33-7.36 2.74-3.05 1.14-3.49 1.48-3.73 2.88-.14.81-.15 14.47-.01 16.01.76 8.38 6.7 15.73 16.17 20 2.12.95 2.3.99 3.31.59Zm-8.64-12.53c-.49-.23-1.07-.88-1.22-1.4-.09-.27-.12-2.07-.12-6.17v-5.79l.24-.52c.28-.59.85-1.07 1.49-1.24l.4-.11-.07-1.56c-.13-3.23.32-5.16 1.58-6.81 1.87-2.43 5.59-3.18 8.56-1.73 1.15.56 2.24 1.68 2.83 2.92.72 1.51.79 1.9.84 4.72l.05 2.46.33.06c.48.09 1.1.58 1.42 1.13l.28.48v6.05c0 6.79.03 6.48-.76 7.14-.69.58-.39.56-8.23.56-6.79 0-7.23-.02-7.62-.19Zm14.79-.1c.56-.13 1.03-.5 1.32-1.02l.25-.47v-5.86c0-6.4.01-6.27-.58-6.9-.3-.32-.96-.65-1.29-.66-.21 0-.21-.02-.25-2.67l-.04-2.68-.32-.95c-.91-2.73-2.99-4.32-5.88-4.47-3.26-.18-5.81 1.66-6.75 4.87-.19.65-.22 1.09-.28 3.35l-.06 2.59-.3.06c-.83.18-1.47.81-1.65 1.62-.08.37-.1 2.15-.08 6.08l.03 5.55.23.47c.25.51.63.83 1.21 1.04.43.16 13.8.2 14.44.05Zm-8.88-3.78c.03-.27.21-1.22.39-2.13l.33-1.65-.32-.36c-1.14-1.27-.33-3.19 1.34-3.19 1.74 0 2.52 1.8 1.39 3.22l-.31.39.37 1.87c.21 1.03.4 1.97.43 2.1l.05.22h-3.74zm3.32.13c.01-.01-.16-.91-.38-1.99l-.41-1.98.35-.38c1.33-1.47-.1-3.56-1.83-2.69-1.08.55-1.22 2.18-.25 2.82l.21.14-.38 1.88c-.21 1.04-.38 1.98-.38 2.09 0 .19.05.2 1.52.17.84-.02 1.54-.05 1.55-.06ZM20.8 18.18c0-2.51.1-3.19.6-4.18 1.74-3.45 6.79-3.42 8.41.04.48 1.03.59 1.76.59 4.19v2.17h-9.6zm9.08 1.93.24-.01-.04-2.42c-.04-2.72-.11-3.04-.88-4.18-1.58-2.36-5.45-2.41-7.15-.11-.82 1.13-.89 1.45-.93 4.26l-.03 2.5 4.28-.01c2.35-.01 4.38-.02 4.51-.03Z"/></svg>