<svg xmlns="http://www.w3.org/2000/svg" width="51" height="51" viewBox="0 0 51 51"><path fill="#fff" fill-rule="evenodd" stroke="#fff" stroke-width=".718" d="M7.53 45.81c-1.04-.36-1.78-1.08-2.15-2.09-.15-.42-.17-.99-.18-5.08v-4.61l-.79-.05c-1.21-.07-1.89-.55-2.27-1.6-.22-.62-.21-15.91.01-16.45q.6-1.44 2.28-1.47l.72-.01V11.2c0-2.9.02-3.31.18-3.78.27-.77.83-1.42 1.58-1.82l.64-.35 17.9-.03c20.29-.03 18.42-.11 19.44.84 1.05.97 1.05 1 1.09 5.02l.03 3.42h.72c.89 0 1.4.22 1.9.81.59.68.58.51.55 9.06-.03 7.87-.03 7.88-.25 8.29-.48.9-1.27 1.34-2.39 1.34h-.53l-.03 4.73c-.03 4.61-.04 4.73-.25 5.19-.3.66-1.05 1.43-1.72 1.75l-.56.28-17.7.02c-16.83.02-17.73.02-18.22-.16Zm36.38-.32c.69-.33 1.27-.89 1.6-1.55l.24-.49.03-4.71.03-4.72-2.83-.07c-3.06-.08-37.43-.03-37.51.05-.03.03-.07 2.12-.09 4.65l-.03 4.6.26.55c.45.96 1.12 1.57 2.04 1.86.32.1 4.07.12 18.05.11l17.65-.02zm2.96-11.81c-.07-.04.03-.08.21-.08.4 0 .98-.29 1.34-.67.6-.63.58-.3.58-8.81v-7.78l-.25-.51c-.16-.32-.41-.61-.67-.79l-.41-.29-21.96-.03-21.96-.02-.45.22c-.26.14-.57.41-.75.66l-.3.44-.07 7.66c-.04 4.83-.03 7.86.03 8.18.17.9 1.09 1.73 1.96 1.75.3.01.33.02.15.07-.13.04 9.42.07 21.21.07 11.8 0 21.4-.03 21.34-.07ZM9.5 28.42c-3.69-.97-4.92-5.81-2.14-8.42 2.93-2.73 7.63-1.21 8.34 2.7.64 3.51-2.74 6.62-6.2 5.72Zm2.33-.17c4.85-1.26 5.01-7.92.23-9.3-2.53-.73-5.48 1.07-5.96 3.64-.64 3.45 2.45 6.51 5.73 5.66Zm7.87-.18c-.33-.17-.44-1.75-.14-2.08.23-.26 24.15-.3 24.5-.05.3.23.34 1.76.05 2.05l-.21.21H31.93c-9.44 0-12.03-.03-12.23-.13Zm24.28-.19c.16-.16.16-1.49 0-1.71-.12-.16-.94-.17-12.23-.15l-12.1.03-.03.89c-.02.65.01.92.1.98.22.14 24.12.1 24.26-.04Zm-24.23-5.35c-.31-.08-.35-.21-.35-1.14 0-1.31-.6-1.19 5.93-1.19 4.92 0 5.57.02 5.71.16.23.23.23 1.86-.01 2.05-.16.14-10.79.25-11.28.12Zm10.64-.19.62-.07-.03-.91-.03-.91-5.54-.03c-4.01-.01-5.58.01-5.67.09-.19.15-.2 1.75-.01 1.82.18.08 9.94.08 10.66.01ZM45.8 11.27c0-3.66-.04-3.92-.7-4.76a2.74 2.74 0 0 0-1.02-.8l-.63-.31-17.95.02-17.95.03-.54.3c-.65.36-1.24 1.01-1.47 1.63-.18.49-.34 6-.19 6.79l.06.33H45.8z"/></svg>