<svg xmlns="http://www.w3.org/2000/svg" width="51" height="51" viewBox="0 0 51 51"><path fill="#fff" fill-rule="evenodd" stroke="#fff" stroke-width=".642" d="M9.35 47.29c-1.98-.21-3.81-1.4-4.67-3.05-.7-1.34-.69-1.1-.66-9.28l.03-7.34.3-.43c.18-.26.5-.53.8-.68l.49-.26 8.64-.03c9.4-.03 9.18-.04 9.83.55.92.84.89.38.9 10.39v8.31l-.22.47c-.26.57-.84 1.08-1.41 1.25-.45.14-12.84.23-14.03.1Zm18.42-.15c-.69-.21-1.31-.86-1.53-1.59-.15-.52-.15-1.32-.08-9.25l.09-8.68.3-.44c.21-.28.5-.53.9-.73l.59-.3 8.48-.03c5.42-.01 8.63.01 8.86.08a2.5 2.5 0 0 1 1.57 1.21l.3.54.03 5.7c.04 6.68-.05 8.68-.4 9.66-.7 1.91-2.25 3.34-4.14 3.83-.89.23-14.22.23-14.97 0Zm-4.61-.19c.64-.11 1.28-.74 1.49-1.45.06-.22.04-.21-.13.06-.47.73-.25.71-8.13.78-7.24.06-7.79.04-8.85-.33-1.04-.37-2.15-1.34-2.73-2.39-.33-.58-.33-.36-.01.28.88 1.73 2.69 2.93 4.65 3.09.92.07 13.24.03 13.71-.04Zm19.99-.23c1.27-.47 2.43-1.48 3.05-2.63.42-.79.37-.83-.11-.1-.72 1.07-1.78 1.85-2.94 2.16-.77.2-14.91.23-15.57.03-.23-.07-.53-.28-.74-.51-.29-.32-.35-.35-.29-.16.21.68.79 1.23 1.49 1.4.17.04 3.51.07 7.41.06l7.1-.02zm-19.45-.87c.98-.51.95-.23.95-9.6 0-8.95.03-8.58-.65-9.19-.64-.58-.45-.57-9.72-.54l-8.53.03-.47.23c-.27.13-.58.38-.7.55l-.23.32v14l.27.8c.64 1.87 1.96 3.1 3.78 3.5.95.21 14.87.12 15.3-.1Zm20.13-.28c1-.5 1.81-1.3 2.35-2.35.78-1.49.77-1.35.77-8.62 0-7.09.02-6.9-.62-7.53-.64-.65-.24-.62-9.68-.62h-8.6l-.5.26c-.35.18-.58.39-.77.7l-.27.44-.03 8.2c-.03 8.84-.04 8.73.49 9.36.52.61.17.59 8.49.56l7.6-.02zm-32.22-6.24c-.65-.74-.68-.61.54-1.83.58-.58 1.05-1.09 1.05-1.15s-.47-.61-1.05-1.22-1.05-1.15-1.05-1.2.25-.35.56-.67l.57-.58 1.16 1.16L14.55 35l1.15-1.15 1.15-1.15.57.57c.32.32.58.62.58.68 0 .05-.51.6-1.12 1.22l-1.13 1.13 1.13 1.13c.61.62 1.12 1.19 1.12 1.27 0 .14-.98 1.2-1.11 1.2-.03 0-.57-.52-1.2-1.16l-1.14-1.16-1.11 1.16c-.61.64-1.16 1.16-1.22 1.16s-.33-.26-.61-.57Zm2.94-2.03c.07 0 .59.5 1.15 1.1 1.17 1.25 1.15 1.24 1.65.69l.37-.41-1.17-1.18-1.18-1.18 1.16-1.19 1.16-1.18-.42-.43-.41-.42-1.11 1.1c-.61.6-1.15 1.1-1.2 1.1s-.6-.5-1.21-1.11l-1.12-1.12-.43.41-.43.4 1.13 1.21c1.01 1.07 1.12 1.23 1 1.38-.07.1-.58.64-1.13 1.2l-1 1.03.43.44.44.45 1.1-1.14c.6-.63 1.15-1.15 1.22-1.15Zm18.09 1.47c-.03-.08-.04-.49-.02-.93l.03-.79h8v1.8l-3.98.03c-3.26.02-3.98 0-4.03-.11Zm7.76-.82v-.65l-3.72.02-3.73.03-.03.63-.03.62h7.51zm-7.76-2.48c-.03-.08-.04-.49-.02-.93l.03-.79 4.03-.03 4.02-.02v1.9h-4c-3.25 0-4.02-.03-4.06-.13Zm7.76-.82V34h-7.5v1.3h7.5zM5.49 24.96c-.61-.21-.96-.54-1.25-1.12l-.27-.56-.01-7.42c-.01-6.73.01-7.47.16-8.03.45-1.61 1.53-2.75 3.26-3.42l.67-.26 7.58-.03c5.02-.02 7.7.01 7.96.08.55.15 1.16.83 1.29 1.46.16.74.18 17.4.03 17.79-.22.55-.64 1.06-1.1 1.33l-.46.27-8.75.02c-6.98.02-8.82 0-9.11-.11Zm22.05-.1c-.55-.25-.93-.67-1.2-1.32-.27-.62-.22-17.79.06-18.4.21-.48.69-.88 1.25-1.03.66-.18 14.51-.15 15.38.04 2 .42 3.53 1.9 4.04 3.91.16.63.18 1.34.18 7.94 0 8.13.04 7.7-.74 8.47-.64.64-.44.63-9.9.63h-8.56zm-4.16-.22c.47-.19.88-.58 1.13-1.06.27-.52.24-.54-.17-.09-.55.61-.25.59-9.94.63l-8.96.03-.52-.27-.53-.27.18.3c.19.33.52.58.98.76.51.2 17.34.18 17.83-.03Zm22.15.05c.47-.13 1.06-.63 1.23-1.06.19-.45.18-.45-.19-.08-.18.18-.51.38-.72.44-.65.18-17.76.15-18.18-.03-.36-.15-.78-.56-1.02-1.01l-.17-.3.05.44c.07.58.5 1.18 1.06 1.48l.44.23h8.56c5.66 0 8.69-.04 8.94-.11Zm-21.86-1.02c.41-.22.7-.6.85-1.11.21-.73.18-16.83-.04-17.21-.21-.39-.56-.71-.91-.84-.48-.19-14.76-.14-15.55.04-1.76.42-3.09 1.61-3.59 3.2-.27.89-.27 14.69 0 15.25.23.46.57.7 1.15.8.99.18 17.73.06 18.09-.13Zm22.47-.1c.38-.25.65-.9.71-1.73.09-1.31.14-11.59.06-12.6-.2-2.4-1.32-3.94-3.37-4.65l-.69-.24H27.64l-.41.27c-.76.5-.73.16-.73 7.55.01 10.24.06 10.77 1.15 11.45.46.28 18.05.24 18.49-.05ZM33.8 18.74c0-.13 1.2-2.43 3.92-7.46l.8-1.48h.54c.65 0 .65-.02.11.96-.24.44-1.24 2.28-2.22 4.09-2.34 4.33-2.15 4.05-2.7 4.05-.34 0-.45-.04-.45-.16Zm5.31.05c-1.76-.33-2.42-2.7-1.1-3.96 1.2-1.13 3.08-.68 3.74.9.67 1.62-.85 3.39-2.64 3.06Zm-3.83-1.47 2.11-3.89c.77-1.44 1.5-2.78 1.62-2.98l.22-.37-.29.04c-.27.03-.42.26-2.21 3.62a934 934 0 0 1-2.28 4.23l-.35.63h.24c.2 0 .35-.19.94-1.28Zm5.22 1.03c1.5-.78 1.43-3.05-.12-3.7-1.2-.5-2.64.3-2.76 1.54-.16 1.71 1.43 2.91 2.88 2.16Zm-26.82-1.47-.03-1.53-1.53-.03-1.53-.03.03-.87.03-.87 1.45-.03c1-.02 1.47-.06 1.52-.15.04-.07.08-.74.08-1.49V10.5h1.7v2.99l1.53.03 1.52.03v1.7l-1.52.03-1.53.03v3.09h-1.69zm1.44-.31.03-1.52 1.53-.03 1.52-.03v-1.18l-1.52-.03-1.53-.03-.03-1.47-.03-1.48H14v.82a17 17 0 0 1-.07 1.5l-.06.68H10.9V15h3v.58c0 .31.03 1.01.07 1.54l.06.98h1.06zm24.01.98c-.99-.43-.69-2.15.36-2.15 1.28 0 1.63 1.57.49 2.16-.33.17-.44.17-.85-.01Zm.98-.44c.56-.56.23-1.41-.56-1.41-.86 0-1.13 1.18-.35 1.57.38.19.59.16.91-.16Zm-6.97-2.75c-2.03-.66-2.21-3.42-.29-4.32 1.22-.58 2.64.04 3.11 1.35.63 1.74-1.08 3.54-2.82 2.97Zm1.19-.27c1.2-.33 1.79-1.72 1.21-2.88-.95-1.89-3.73-1.19-3.74.94 0 1.34 1.25 2.3 2.53 1.94Zm-.99-.89c-.9-.36-.84-1.79.1-2.1.46-.15.8-.04 1.16.36.77.89-.17 2.18-1.26 1.74Zm1.01-.45c.76-.75-.3-1.93-1.09-1.22-.4.34-.43.77-.11 1.15.34.41.84.44 1.2.07Z"/></svg>