<svg xmlns="http://www.w3.org/2000/svg" width="51" height="51" viewBox="0 0 51 51"><path fill="#fff" fill-rule="evenodd" stroke="#fff" stroke-width=".737" d="M23.5 46.45c0-.02-.49-1.81-1.09-3.97s-1.18-4.24-1.28-4.63l-.18-.69-.79-.44c-.43-.23-1.01-.59-1.3-.78l-.51-.35-.3.33c-.16.18-.56.62-.87.98-.78.88-.8.72-.1-.65l.59-1.16-.75-.72c-.84-.82-2.03-2.34-2.57-3.31-.34-.61-.39-.65-.63-.59-.15.03-.71.19-1.25.34l-.98.27-.72.78c-.4.42-.8.88-.9 1.01-.38.48-.37.09.02-.63.22-.41.37-.74.33-.74s-1.06.3-2.27.66c-5.99 1.78-7.1 2.02-5.8 1.3.39-.22 1.28-.74 2-1.16.72-.43 2.97-1.73 5.02-2.9s3.74-2.18 3.76-2.24 0-.42-.05-.81-.08-1.28-.06-1.98c.03-1.21.02-1.28-.17-1.32-.11-.03-.87-.19-1.7-.36-2.19-.45-2.1-.59.4-.59h1.7l.28-.98c.15-.53.51-1.47.79-2.09l.5-1.12-.33-.43c-.18-.24-1.18-1.5-2.22-2.81-1.13-1.42-1.87-2.43-1.84-2.52.08-.18.6-.03 5.82 1.66.49.16.91.29.92.29s0-.13-.03-.29c-.09-.43.09-.45.71-.1l.55.31.9-.54c.49-.29.9-.59.9-.66 0-.15-1.15-2.6-2.58-5.47-1.23-2.49-1.26-2.55-1.08-2.55.07 0 .2.09.27.19.08.1 1.02 1.24 2.1 2.52 1.07 1.29 2.3 2.78 2.72 3.31.94 1.19.79 1.11 1.68.88.41-.11 1.07-.25 1.47-.31l.72-.12.16-.56c.43-1.53.66-2.21.74-2.21.11 0 .49.65 1.12 1.88.4.8.43.82.77.82.81 0 2.41.32 3.58.72l1.23.42.28-.2c.6-.45 5.81-3.94 5.86-3.94.18 0-.07.58-1.38 3.24l-1.43 2.93.32.26c.26.2 1.27.51 4.86 1.46 2.49.67 4.57 1.25 4.63 1.31.14.14-.13.13-3.85-.11-1.77-.11-3.23-.18-3.26-.15-.03.02.09.25.27.51.48.7 1.26 2.4 1.53 3.35l.25.85 1.83.12c1.01.06 2.65.17 3.64.23 2.91.19 3.33.26 3.07.53-.07.06-1.93 1.02-4.14 2.12l-4.03 2-.42 1.15-.41 1.15.31.08c3.75.95 5.28 1.4 5.16 1.52-.05.05-3.59-.15-5.3-.3l-.67-.06-.4.73c-.57 1.03-1.32 2.07-2.09 2.88l-.65.7.45 1.82c.54 2.15.62 2.58.5 2.58-.04 0-.71-.63-1.48-1.4s-1.45-1.4-1.52-1.4c-.06 0-.44.18-.85.4-1.92 1.03-3.72 1.48-6.6 1.66-.99.05-1.08.08-1.13.27-.15.49-2.27 7.05-2.42 7.45-.13.34-.33.57-.33.37Zm1.41-4.47c.67-2.05 1.26-3.76 1.31-3.79s.69-.09 1.41-.12c2.4-.12 4.25-.59 6.16-1.57.54-.28 1.02-.5 1.08-.5.05 0 .67.54 1.37 1.21.69.66 1.26 1.17 1.26 1.12 0-.04-.2-.89-.44-1.87l-.45-1.79.8-.89c.79-.87 1.57-1.99 2.15-3.07l.29-.53 1.4.06c.77.03 1.72.08 2.1.11.93.07.68-.03-1.38-.55-1.94-.5-1.82-.31-1.24-1.95l.42-1.2 3.95-1.96c2.28-1.14 3.89-1.99 3.8-2.02-.13-.05-1.16-.12-6.58-.46-.79-.05-1.46-.12-1.5-.15-.03-.04-.16-.43-.3-.89-.32-1.11-.89-2.38-1.52-3.37-.29-.45-.49-.85-.44-.89s1.08-.02 2.29.05 2.43.13 2.7.13h.5l-.85-.24c-.47-.14-2.09-.57-3.6-.97-2.78-.73-3.58-1.05-3.6-1.47 0-.07.59-1.35 1.31-2.82.73-1.48 1.3-2.71 1.28-2.74-.04-.03-3.93 2.55-5.07 3.38-.63.45-.54.45-1.66.03-1.04-.39-2.7-.76-3.43-.76-.72 0-.88-.08-1.07-.48-.52-1.1-1.09-2.04-1.16-1.91-.05.08-.2.59-.35 1.15-.35 1.3-.27 1.21-1.31 1.39-.76.13-1.27.25-2.15.51-.12.03-.46-.32-1.15-1.18-.79-1-3.81-4.63-4.16-5.03-.05-.05.39.89.98 2.1 1.61 3.31 2.24 4.68 2.24 4.86 0 .14-1.89 1.39-2.11 1.39-.04 0-.25-.11-.45-.25-.49-.33-.54-.32-.47.12.06.33.04.36-.13.29-.22-.09-4.02-1.32-5.47-1.77-.54-.17-1-.29-1.01-.27-.02.01.61.84 1.4 1.83.8.99 1.76 2.22 2.16 2.73l.71.92-.5 1.08c-1.15 2.45-1.56 4.61-1.32 7 .12 1.17.12 1.24-.07 1.42-.1.11-1.63 1.02-3.39 2.03-4.55 2.6-6.44 3.71-6.4 3.75.05.05 1.4-.32 4.45-1.22 1.57-.46 2.88-.82 2.92-.8.05.03.01.2-.08.37-.15.29-.11.27.37-.2.5-.47.62-.53 1.64-.82 1.56-.44 1.52-.45 2.03.44.68 1.17 1.34 2.02 2.42 3.11l1 1-.31.6-.32.59.5-.48.5-.48.64.44c.35.24.98.62 1.4.85l.76.42.27 1.02c.44 1.66 2 7.23 2.11 7.56.09.25.17.04 1.36-3.6Zm.64-7.75c-1.67-.26-3.79-1.16-4.89-2.06-.5-.41-.13-.38.5.04 5.56 3.76 12.68 1.59 15.28-4.64l.16-.39-1.57.04c-1.2.02-1.57.06-1.61.16-.02.08-.24.44-.49.8l-.44.66.21.38c.24.42.17.46-.35.21-.34-.16-.36-.16-.63.05-.15.13-.54.41-.87.63-.68.46-.67.39-.19 1.51.19.44.32.83.3.86-.03.02-.42-.3-.87-.72l-.82-.77-.56.08c-2.62.38-5-.14-6.58-1.43-.48-.39-.5-.4-.98-.17-.45.22-.51.14-.27-.39l.19-.45-.3-.39c-.68-.89-1.31-2.64-1.39-3.89-.03-.37-.05-.4-.5-.54-.62-.19-.6-.32.07-.6.43-.18.56-.29.61-.49.13-.62.38-1.3.63-1.77.15-.27.25-.58.23-.68s.02-.17.12-.17c.08 0 .24-.13.35-.29l.2-.28-.29-.77c-.47-1.22-.48-1.22.78-.65.71.32.73.33 1 .16.15-.1.53-.31.85-.48.44-.22.57-.34.53-.47-.17-.58-.19-.75-.05-.7.07.02.16.15.2.29.07.26.08.24.29-.43.16-.51.27-.48.36.09.09.64.05.61.76.5.59-.08.68-.14 1.43-.8.44-.4.82-.75.83-.79.13-.28.4-.04.52.46.18.76.24.84.48.63.39-.35.53-.2.21.22-.22.3-.19.51.07.51.08 0 .51.14.95.31l.81.31.84-.22c1.02-.28 1.04-.27.59.41-.42.64-.42.59-.05.94.26.25.34.27.75.22.51-.07.54-.02.26.44l-.2.32.31.54c.17.3.43.86.58 1.26l.28.72.54.12c.29.06.65.12.8.12.31.01.37.18.1.28-.09.03-.42.17-.73.3l-.56.24-.07.82c-.03.45-.1.96-.15 1.14l-.09.32 1.26.5c.7.28 1.3.51 1.33.51.25 0 .44-1.33.44-3.13 0-1.03.03-1.87.07-1.87.32 0 .32 3.07.01 4.31-.98 3.88-3.78 6.76-7.58 7.79-.79.22-3.23.36-4 .23Zm4.59-3.19c-.28-.63-.27-.67.26-.94.22-.11.65-.41.96-.66.35-.29.63-.44.74-.41.12.03.17 0 .14-.07-.02-.07.23-.53.56-1.02l.6-.91.62-.07c.33-.03.88-.06 1.22-.06l.61-.01-1.03-.4-1.04-.41.06-.32c.04-.17.09-.75.13-1.3l.06-.98.5-.23c.55-.26.58-.22-.28-.4a.53.53 0 0 1-.34-.28c-.43-1.13-.59-1.5-.88-1.99-.32-.55-.33-.59-.18-.82l.17-.25-.34.05c-.3.05-.38.01-.71-.36l-.38-.41.25-.45c.28-.5.25-.51-.53-.28-.52.15-.53.15-1.24-.15-.4-.16-.89-.32-1.09-.36-.31-.06-.38-.11-.38-.31 0-.13-.08-.28-.18-.33-.12-.06-.23-.31-.31-.66l-.13-.56-.7.63c-1.01.91-1.06.94-1.83 1.06-.76.12-.84.09-.86-.38l-.01-.25-.07.25c-.15.5-.37.72-1.01 1.06-.36.18-.77.41-.92.5-.25.17-.28.17-.97-.14-.39-.18-.73-.32-.75-.32-.03 0 .06.27.2.6.31.77.3.94-.06 1.4-.4.5-.94 1.65-1.16 2.46-.09.36-.22.68-.28.7s-.24.09-.41.15l-.3.12.35.09c.45.13.5.21.5.88.01 1.17.61 2.81 1.36 3.69.34.39.34.41.2.7l-.16.29.29-.11c.26-.1.34-.06.92.37 1.85 1.39 4.38 1.88 6.75 1.3.16-.04.36.07.73.4.65.58.65.58.35-.1ZM17.7 28.58c-1.22-2.57-1.45-4.65-.79-7.28 1.98-7.89 11.76-10.51 17.51-4.68.66.66 1.68 2.1 1.68 2.35 0 .24-.19.13-.36-.19-.3-.6-1.14-1.66-1.79-2.27-6.4-5.98-16.69-1.8-17.12 6.95-.09 1.7.25 3.22 1.12 5.1.5 1.08.49 1.04.34 1.04-.05 0-.32-.46-.59-1.02Zm-4.72-6.06c.03-.22.02-.22-1.09-.22-1.31 0-1.33.06-.12.3 1.07.22 1.17.21 1.21-.08Z"/></svg>