<svg xmlns="http://www.w3.org/2000/svg" width="51" height="51" viewBox="0 0 51 51"><path fill="#fff" fill-rule="evenodd" stroke="#fff" stroke-width=".438" d="M18.73 49.04c-.45-.16-.79-.54-.9-1.04l-.09-.35-3.24-.05c-3.91-.06-4.15-.14-4.36-1.42l-.06-.36-2.77-.04c-3.1-.03-3.13-.04-3.52-.79-.3-.6-.3-37.66.01-38.16.38-.63.56-.66 3.58-.71l2.72-.04v-.62c0-1.63.17-1.7 4.27-1.76l3.36-.05.12-.48c.13-.52.35-.82.77-1.03.49-.25 13.39-.2 13.96.06.44.2.81.78.82 1.28v.22h3.33c4.14 0 4.2.02 4.34 1.7l.06.69 2.81.03c3.12.03 3.18.05 3.52.7.25.48.28 37.67.03 38.13-.4.71-.31.69-3.48.75l-2.86.05-.05.41c-.17 1.23-.32 1.28-4.28 1.34l-3.35.05-.13.44c-.16.54-.58.99-.98 1.05-.83.13-13.26.13-13.63 0Zm13.87-.43c.57-.4.55-.14.58-8.03l.03-7.26-.31-.22c-.24-.17-.29-.25-.2-.34.08-.08.14-.07.21.07.15.26.31.2.27-.1-.03-.26-.06-.28-.43-.26-.23.01-.33-.01-.23-.05.15-.06.12-.11-.18-.31-.36-.25-.64-.67-.64-.97 0-.31-.1-.09-.36.82-.32 1.11-.79 2.14-.96 2.14-.15 0-.71.89-.83 1.3-.13.45-.67 1.43-1.26 2.32-.58.86-.9 1.21-.75.82.24-.61.36-1.4.36-2.33v-1.04l-.21.19c-.17.16-.22.16-.3.04-.08-.13-.12-.11-.26.08-.08.12-.21.22-.28.22-.16 0-.25.22-.25.6s-.15.46-.34.18l-.15-.21-.12.29c-.17.45-.32 2.4-.19 2.63.14.27.13.36-.04.22-.1-.08-.15-.41-.18-1.06-.03-1.03-.07-1.12-.37-.94-.27.18-.36.06-.22-.32.21-.61.05-1.33-.42-1.94-.16-.19-.16-.19-.23.13-.09.43-.23.5-.45.21-.1-.13-.19-.18-.19-.11 0 .23-.24.12-.67-.33-.24-.25-.48-.43-.54-.39-.06.03-.17-.02-.24-.12-.13-.18-.14-.17-.15.13-.01.9-.25.75-.84-.51-.24-.5-.64-1.19-.89-1.52-.59-.8-.75-1.13-.87-1.76-.06-.31-.2-.62-.35-.78-.13-.14-.36-.52-.5-.84-.15-.33-.35-.71-.46-.84l-.19-.25v.72c0 .64.02.71.2.71.11 0 .2.04.2.1s-.09.1-.2.1c-.2 0-.2.03-.18 9.09.03 10.22-.03 9.42.76 9.82.51.26 13.44.16 13.82-.1Zm-14.9-4.35v-3.05l-.22-.03a.44.44 0 0 0-.36.12c-.1.13-.15.11-.35-.13l-.23-.28-.19.21c-.24.26-.29.25-.43-.06-.07-.14-.16-.23-.2-.2-.04.02-.36.01-.7-.03-.35-.04-.65-.04-.68.01s-.12.04-.19-.02c-.1-.09-.2-.07-.39.05-.29.19-.46.13-.46-.17 0-.16-.03-.18-.14-.09-.09.07-.62.12-1.45.12l-1.31.01v2.75c0 4.1-.33 3.8 4.22 3.82l3.08.01zm22.75 2.63c.2-.19.28-.42.35-.92.11-.74.13-7.25.03-9.34l-.06-1.33-.41-.2c-.27-.13-.63-.2-.99-.2-.31 0-.57-.04-.57-.1s.17-.1.37-.1c.52 0 .3-.19-.36-.29-.69-.11-.79-.25-.13-.19.6.06.75-.15.18-.26-.19-.04-.37-.13-.4-.22-.05-.12-.01-.14.15-.09.2.07.2.06.05-.22-.09-.19-.28-.34-.54-.42-.56-.19-1.08-.71-1.42-1.43-.32-.67-.43-1.29-.14-.75.21.38.26.34.08-.09-.28-.66-.23-1.32.11-1.59.28-.23.29-.24.11-.44-.15-.17-.17-.3-.12-.67.05-.4.04-.45-.09-.34a.54.54 0 0 0-.15.36c0 .13-.04.24-.1.24s-.1-.12-.1-.27c0-.2-.03-.24-.09-.14-.07.11-.1.09-.16-.08-.03-.12-.22-.41-.4-.65s-.3-.48-.27-.52c.04-.04.02-.04-.05 0s-.31-.03-.54-.14c-.54-.28-1.22-.32-1.27-.07-.02.12.03.17.2.17 1.53 0 2.46 1.13 2.35 2.83-.13 1.83-.55 2.38-2.11 2.78l-.46.11v1.24c0 1.02.02 1.22.14 1.18.08-.03.17 0 .21.06.04.07-.02.14-.14.17-.14.03-.21.13-.21.29 0 .25.21.24.48-.03.15-.15.36-.08.26.09-.04.05-.22.16-.4.24l-.34.14v11.51l3.35-.03 3.35-.03zM10.1 44.76v-.74l-.44-.06c-1.88-.29-3.43-1.9-4.11-4.31-.79-2.76-.71-4.91.21-6.38.52-.83.53-.64.03.45-.7 1.51-.67 3.59.07 6.06.29.96.36.99.96.34.65-.7.83-1.23.72-2.2-.14-1.28-.09-2.13.16-2.68.26-.56.37-.43.39.46.01.52.18 1.2.3 1.2.05 0 .06-.3.04-.67-.04-.56-.01-.8.21-1.37.49-1.28.32-1.89-.65-2.43-.65-.35-1.52-1.1-1.44-1.24.07-.11-.26-1.52-.39-1.66s-.82.01-1.73.38l-.53.21.02 4.32c0 2.64.04 3.94.08 3.36.07-.92.19-1.72.41-2.75.06-.28.29-.86.51-1.3s.51-1.09.64-1.45l.24-.65-.04.46c-.02.27-.23.9-.53 1.55-.72 1.57-.77 1.83-.69 4.02.07 1.81-.01 2.22-.21 1.17-.07-.35-.08-.3-.14.5-.04.58-.01 1.13.07 1.55.16.78.11.87-.16.29-.19-.43-.2-.43-.2-.14 0 .17.04.35.09.4.19.21.26.61.07.46-.55-.46-.08.82.62 1.67 1.18 1.44 2.17 1.89 4.25 1.91l1.17.01zm-4.6.43c-.11-.2-.11-.2.14-.04.61.4.35.02-.66-.95L3.9 43.14v.69c0 1.16.3 1.55 1.23 1.56.45.01.47 0 .37-.2Zm41.51-.08.29-.29v-1.4c0-.76.03-1.6.06-1.86l.07-.46h-.36c-.2 0-.57.1-.82.22-.37.18-.48.2-.54.09-.06-.09-.2-.12-.47-.07-.68.11-1.25.13-1.3.05-.03-.05-.18-.06-.34-.02-.18.03-.3.01-.3-.05s-.39-.09-1.07-.07l-1.08.04.01.3c0 .17.01 1.1.02 2.06l.02 1.75h5.52zm-36.93-4.73-.03-3.33-.38-.77c-.2-.42-.42-1-.48-1.3l-.12-.53-.19.44c-.32.75-.32 1.07.01 2.21.51 1.74.28 2.51-1.2 4.04-.93.96-.91.84-.31 1.36.68.61 1.86 1.18 2.45 1.19l.28.01zm-2.96.91c.18-.17.27-.27.19-.23-.16.08-.18.12.4-.8.33-.51.38-.56.41-.35l.03.24.18-.27c.2-.28.28-1.46.15-2.03l-.07-.3.12.28c.06.15.14.27.19.27.04 0 .09.19.09.43.02.32.03.35.06.13.08-.49-.06-.91-.49-1.57-.23-.35-.47-.82-.55-1.04-.14-.42-.12 1.01.03 2.15.09.71-.26 1.52-.98 2.23-.58.58-.58.58-.43.88.19.36.27.36.67-.02Zm40.28-3.21c0-2.53-.07-3.28-.24-2.83-.03.09-.06.25-.06.35s-.16.52-.36.94c-.45.94-.49 2.63-.07 3.08.12.13.25.41.29.63.06.37.18.54.37.55.04 0 .07-1.23.07-2.72Zm-35.79 1.96c-.04-.39-.35-.97-.82-1.56l-.39-.5v.49c0 .43.03.5.3.65.36.21.41.61.09.78-.18.1-.2.09-.17-.11.02-.12-.03-.24-.09-.26-.09-.03-.13.06-.13.26 0 .34.27.36.61.05.19-.18.24-.11.19.25-.02.15.2.32.35.27.06-.01.08-.16.06-.32Zm1.09.27c0-.05-.06-.11-.14-.14-.22-.09-.59-.97-.61-1.47-.03-.71-.27-2.1-.37-2.1-.04 0-.08-.15-.08-.34s-.05-.38-.1-.41c-.06-.04-.08-.15-.05-.26.04-.11 0-.26-.09-.35-.09-.08-.16-.28-.16-.43s-.05-.32-.11-.38-.21-.39-.34-.74l-.24-.64v1.22c-.01 1.09.02 1.26.24 1.75.28.6.31 1.01.1 1.38-.21.36-.19.4.26.95.49.58.89 1.38.89 1.77 0 .26.03.28.4.28.22 0 .4-.04.4-.09Zm4.7-.23c.01-.31.01-.32.15-.14.17.23.2-.24.06-.99l-.07-.4-.08.47c-.09.61-.22.68-.3.18-.06-.37-.08-.39-.31-.3-.16.06-.25.06-.25 0 0-.29-.21-.03-.35.42-.19.66-.2.9-.01.66.18-.24.23-.23.31.1.07.27.07.27.16.04.09-.24.29-.3.29-.09 0 .14.2.37.32.37.04 0 .08-.15.08-.32Zm-3.19-.32c.05.03.09-.04.09-.15 0-.23.15-.28.27-.08.05.08.1.02.14-.18.12-.54.1-.75-.05-.69-.1.04-.22-.08-.35-.33s-.2-.32-.21-.19c0 .15-.03.16-.15.06-.13-.11-.15-.08-.15.14 0 .14-.04.26-.1.26s-.1-.07-.1-.15c0-.18-.2-.2-.2-.02 0 .07-.07.04-.15-.07s-.15-.14-.15-.07-.04.1-.09.06c-.05-.03-.13 0-.16.06-.04.05-.13.08-.21.05-.09-.03-.14.01-.14.12 0 .21.28 1.12.29.95.01-.19.21-.16.21.03 0 .11.05.14.16.1.09-.04.23-.01.3.05.11.09.14.06.14-.19 0-.41.26-.33.36.11.04.18.09.26.11.19.03-.06.09-.1.14-.06Zm1.52-.66c.05-.4.16-.76.29-.94.26-.36.37-1.24.18-1.36-.11-.07-.11-.23-.01-.92.16-.98.17-1.88.04-2.78-.07-.45-.06-.77.02-1.05.06-.22.1-.74.07-1.16l-.04-.75-.28.28c-.16.15-.35.28-.42.28-.08 0-.25.11-.38.25s-.3.23-.36.21c-.07-.03-.34.15-.59.4-.38.36-.5.42-.61.33-.33-.27-.05 1.91.41 3.22.19.57.4 1.32.44 1.65.06.39.19.77.37 1.03.19.3.3.63.38 1.22.14 1.03.37 1.08.49.09Zm27.72.16c.29-.09.85-1.3.85-1.84 0-.23.09-.74.19-1.12.11-.39.25-1.34.31-2.13.11-1.35.32-2.25.65-2.87l.14-.25.01.36c0 .2-.07.58-.15.84-.07.27-.19 1-.25 1.64s-.18 1.54-.27 2.01-.19 1.2-.24 1.63c-.05.53-.15.93-.33 1.27-.14.27-.26.51-.26.52 0 .02.15.03.33.02.17 0 .42.03.54.07.13.05.23.04.25-.03.02-.06.19-.02.43.11.49.26.52.19.2-.5-.24-.51-.37-1.33-.16-.99.06.08.07.18.04.24-.03.05-.01.06.05.02.07-.04.13 0 .13.11.01.1.05-.14.09-.53.05-.43.2-.98.39-1.42.17-.39.36-.95.41-1.24.06-.29.21-.76.35-1.04.24-.49.25-.58.25-2.62 0-1.83-.08-2.54-.22-2.1-.03.07-.12.09-.22.05-.11-.04-.16-.13-.12-.22.03-.09-.01-.18-.09-.21-.12-.05-.11-.11.02-.4.12-.25.2-.31.29-.23.22.18.24-.03.3-3.82.07-3.88 0-6.18-.18-5.66-.07.19-.16.27-.34.27-.2 0-.24.05-.24.3 0 .21-.04.28-.14.24-.07-.03-.16.02-.2.11-.05.15-.08.15-.28.01-.28-.2-.48-.2-.48-.03 0 .08-.09.22-.2.32-.2.18-.5.76-.69 1.34-.14.43-.14.41.05.41.11 0 .14.06.09.22-.1.31-.26.47-.32.31-.14-.37-.53.03-.53.54l-.01.28-.18-.23c-.13-.15-.21-.18-.24-.1-.08.18-.08-.23-.01-.49.04-.13.14-.23.24-.23.23 0 .44-.33.58-.9.14-.56.07-.66-.08-.11-.14.52-.24.53-.17.02.02-.21.02-.42-.02-.47-.09-.13-.61-.17-.61-.04 0 .14-.27.13-.34-.02-.06-.14.03 1.09.1 1.3.02.08-.01.1-.07.06-.07-.04-.1-.01-.07.07s.12.13.19.12c.11-.02.15.1.15.52 0 .59-.05.65-.27.37-.38-.45-.52-1.21-.21-1.14.17.03.15-.11-.1-.65-.24-.49-.47-.75-.6-.67-.05.03-.08-.02-.08-.1 0-.09-.09-.16-.2-.16-.22 0-.26-.2-.09-.37.08-.08.09-.28.04-.58-.05-.35-.1-.44-.18-.36-.06.06-.19.11-.29.11-.17 0-.18.25-.18 4.85v4.84l.25.25.24.24-.05-.31-.05-.32.17.33c.21.4.27.37.14-.09-.06-.18-.1-.43-.09-.54 0-.11.07.02.14.28.07.27.17.52.2.55.04.04.04-.03.01-.16-.13-.41.1-.22.34.28.13.28.4.66.59.86.2.2.36.39.37.42 0 .04.16.24.37.45.42.44.54.89.38 1.52-.06.24-.11.66-.11.93 0 .6-.2 1.62-.31 1.62-.14 0-.1-1.88.05-2.56.17-.79.04-1.24-.39-1.39a1.6 1.6 0 0 1-.49-.27c-.11-.1-.27-.18-.36-.18-.1 0-.38-.18-.63-.4l-.45-.4-.13.47c-.19.77-.23 2.16-.06 2.5.08.15.18.46.22.68.09.5.25.81.7 1.36.33.39.37.48.32.86-.03.31-.01.43.09.43.07 0 .14.1.16.22.02.17.09.22.25.21.2-.02.22.01.18.5-.03.53-.35.97-.7.97-.07 0-.15.1-.17.22-.04.27-.61.68-.94.68-.19 0-.24.05-.24.25 0 .24.02.25.69.25.39 0 .73.05.77.11.04.07.16.02.33-.14.14-.14.35-.28.46-.31Zm-26.07-1.03c.07-.27.17-.71.22-.98.1-.59.13-7.94.03-9.5l-.06-1.09-.3.6c-.34.66-.56 2.97-.27 2.79.1-.06.12.05.08.49-.03.32-.01.51.03.44.14-.22.1.53-.06 1.05-.08.26-.1.45-.05.42.19-.12 0 4.65-.22 5.33-.11.37-.09.42.19.46.12.02.17.1.15.25-.06.4.13.21.26-.26Zm24.5.25c.05-.07.12-.24.14-.38.02-.19.1-.26.33-.3.19-.03.3-.11.3-.22 0-.09.03-.2.07-.23.07-.07-.18-.54-.34-.66-.05-.03-.23-.04-.42-.03-.41.04-.63-.17-.68-.65-.05-.51.16-.48.3.04.09.35.15.43.29.38.11-.04.14-.03.09.05-.04.07-.01.12.07.12.13 0 .27-.46.27-.9 0-.09-.18-.39-.4-.69l-.4-.53v.33c0 .18-.03.29-.07.25-.04-.03-.06-.3-.04-.58.02-.46.01-.5-.13-.39-.33.27-.16 4.37.18 4.44.12.02.24.05.27.06.04 0 .11-.05.17-.11ZM13 37.44c0-.08.04-.14.1-.14s.1.07.1.16c0 .08.05.12.1.09.06-.04.17-.01.25.05.12.1.15.09.15-.09 0-.12.04-.19.1-.16.24.15.09-1.04-.26-2.06-.87-2.53-.89-4.48-.06-5.67.53-.77.72-1.16.72-1.49v-.28l.16.31c.25.52 1.13.73 1.61.39.16-.12.22-.12.26-.02.03.07.06.05.06-.06.02-.39.43-1.34.87-1.99.41-.62.61-1.28.26-.88-.43.5-.97 1.34-1.29 2.01-.44.92-.56.99-.47.29.06-.44.04-.54-.15-.71-.11-.11-.21-.24-.21-.29s-.13-.24-.29-.42c-.15-.18-.33-.46-.39-.63l-.1-.3-.01.37c-.01.2-.05.39-.1.42-.09.06-.13-.07-.27-.89l-.07-.4-.18.4-.18.4v-.32c-.01-.18-.06-.33-.11-.33-.06 0-.17-.15-.25-.32-.13-.3-.14-.31-.15-.09 0 .19-.06.12-.27-.3-.19-.36-.35-.55-.49-.57s-.25-.14-.31-.35c-.06-.22-.15-.31-.26-.29-.13.02-.17-.05-.17-.28 0-.24-.04-.3-.17-.28-.12.02-.18-.05-.2-.26a.9.9 0 0 0-.17-.45c-.09-.1-.16-.23-.16-.29s-.08-.17-.18-.24-.23-.26-.28-.43c-.25-.81-.15 5.45.1 6.55.13.58.2 1.06.15 1.08s-.09.21-.09.43c0 .23-.05.39-.11.39-.09 0-.1.3-.06 1.08.06 1.15.15 1.45.9 3.23.5 1.18.93 2.51 1.02 3.19.04.25.08.5.1.57.05.16.45.04.45-.13Zm.27-1.11c-.03-.05-.08-.24-.12-.43-.07-.3-.09-.32-.15-.15-.07.19-.08.19-.18-.05-.25-.61-.52-1.13-.47-.9.14.69.17 1.05.07.95-.18-.18-.45-2.02-.39-2.66.03-.33.01-.74-.04-.92-.14-.48-.03-.44.2.08.22.5.3.94.11.65-.06-.09-.07.12-.05.6.04.67.07.77.31.96.14.12.24.26.2.32-.08.13.14.63.24.57.13-.08.27.18.35.63.06.38.03.53-.08.35Zm-3.39-2.75-.23-.17-.07.67c-.07.76-.04.97.26 1.67l.21.5.03-1.25c.03-1.19.02-1.25-.2-1.42Zm18.18.74c.2-.29.44-.28.44.01.01.3.28-.04.37-.46.04-.21.09-.25.18-.17.13.11.63-.58.79-1.08.1-.29.03-.28-.39.09-.4.35-.4.36-.2-.2.09-.27.43-.7 1.01-1.28 1.48-1.5 1.94-2.27 1.94-3.28 0-.38.04-.54.12-.52.32.06.53-.74.55-2.08.02-1.2.01-1.27-.12-.95l-.13.35-.01-.51c-.01-.28.08-.93.19-1.45.14-.62.18-1.09.14-1.38-.05-.31-.04-.42.05-.37.08.05.11-.09.11-.45 0-.5-.02-.54-.58-1.11-.56-.55-.65-.84-.11-.34.79.74.79.75.79-2.19v-2.52l-.41-.07c-.38-.06-.41-.09-.35-.31.06-.24.04-.25-.36-.26-.36 0-.39-.02-.2-.09.39-.16.27-.4-.2-.4-.33 0-.39-.03-.3-.12.23-.23.12-.3-.35-.23-.39.05-.46.04-.35-.06.2-.21.14-.29-.18-.22-.19.03-.3.01-.3-.06 0-.06-.16-.11-.35-.11-.41 0-.42-.04-.14-.49.19-.31.19-.33.02-.25-.24.11-1.51.17-1.36.07.25-.18-.04-.35-.51-.32-.44.04-.59-.03-.33-.15.06-.03 0-.04-.15-.01-.49.09-.58-.03-.26-.37.28-.3.32-.52.05-.3-.26.22-.7.34-.64.17.04-.08-.11-.02-.35.15-.53.38-.6.38-.8-.08-.16-.35-.17-.36-.17-.09-.01.29-1.01 1.41-1.08 1.2-.03-.07-.15-.06-.35.05-.37.18-.68-.07-.68-.57l-.01-.26-.12.25c-.19.41-.71 1.09-.82 1.08-.25-.01-.33.04-.38.24-.04.12-.09.19-.13.16-.09-.09-.37.21-.54.57-.1.23-.14.26-.17.13-.06-.23-.12-.23-.41.05-.17.15-.26.18-.29.1-.07-.21-.23-.15-.35.12-.1.22-.13.24-.21.1-.07-.13-.14-.09-.38.25-.41.56-.5.46-.22-.26.05-.13.03-.16-.1-.11-.1.04-.2 0-.26-.11-.08-.14-.1-.13-.16.11-.1.36-.23.34-.27-.05-.02-.17-.09-.33-.16-.36-.09-.03-.12.54-.11 2.65.01 1.47.04 2.59.06 2.48.03-.11.09-.24.13-.3s.11-.31.14-.57c.07-.46.27-.75.45-.64.13.08.21-.19.28-.92.06-.59.07-.61.23-.47.17.15.18.13.25-.34.06-.46.25-.73.25-.36 0 .15.2.22.2.07.01-.26.2-.36.34-.17s.15.18.16-.23c0-.35.03-.42.18-.4.11.02.18-.04.2-.2.03-.21.22-.32.22-.12 0 .22.17.08.45-.35.29-.46.59-.5.35-.05-.2.37-.05.32.29-.1.38-.47.66-.55.5-.14-.14.39-.07.38.36-.06.49-.51.61-.51.35 0-.31.6-.23.62.11.02.35-.59.76-.92.66-.51l-.06.24.19-.25.2-.25v.33c0 .31-.23.87-.59 1.41l-.15.24-.06-.24c-.06-.23-.08-.22-.28.18-.31.59-.47.66-.39.17l.06-.39-.26.49-.25.5-.14-.33c-.16-.37-.26-.35-.44.1l-.14.32-.1-.24c-.09-.22-.11-.21-.14.19-.03.43-.17.56-.25.25-.03-.12-.05-.1-.06.07l-.01.25-.18-.28c-.23-.34-.3-.27-.38.35-.07.5-.18.62-.29.28-.08-.25-.45-.47-.45-.27 0 .07.09.29.19.5.2.4.17.45-.13.22-.38-.29-.45-.03-.21.7.05.15.01.13-.18-.08-.26-.3-.37-.23-.37.24 0 .11-.07.19-.16.19-.14 0-.16.07-.11.4.04.34.02.4-.11.38-.14-.02-.18.07-.2.45-.02.26-.07.45-.11.43-.05-.03-.06.06-.03.19.02.14 0 .31-.06.38s-.09.23-.05.35c.03.12.02.34-.02.49l-.08.28-.08-.25c-.05-.17-.07 0-.07.5.01.41-.05 1.25-.12 1.85-.14 1.17.1 3.66.44 4.46l.14.32.07-.34c.04-.19.11-.37.16-.4s.12-.34.16-.69c.04-.47.03-.61-.05-.56-.12.07-.21-.1-.36-.64-.07-.24-.06-.24.08-.06.09.11.16.29.17.4 0 .12.03.15.06.09.02-.07-.05-.57-.17-1.1-.41-1.77.42-4.09 1.48-4.14.09 0 .28-.02.42-.03.16-.02.33.05.48.21.23.25.21.53-.02.34-.15-.13-.27-.03-.46.34-.08.17-.22.42-.32.57-.24.35-.23.64.02.71.26.07.27.62.03.97l-.17.24-.06-.23c-.05-.22-.07-.2-.35.23-.16.25-.32.46-.36.46s.04.3.17.68c.27.77.29.95.09.68-.2-.26-.2.02-.01.93.18.83.1 2.85-.12 3.07-.18.19.29.73.93 1.07.35.19.37.22.17.25-.21.03-.2.05.13.28.2.13.41.22.46.18.16-.1.57.39.71.84.13.42.28.56.28.26 0-.1.17 0 .52.3.49.43.53.44.63.27.18-.34.43-.08.5.53.06.49.09.53.31.48q.24-.045.3.12c.23.59.32-.19.09-.83-.08-.22-.11-.41-.08-.41.14 0 .53.53.53.73 0 .16.03.18.09.09.06-.11.1-.1.15.05.07.17.09.16.27-.06l.19-.23.01.28c0 .27.01.27.09.08.15-.37.3-.38.31-.02.01.2.03.25.06.13.08-.38.27-.65.45-.65.12 0 .18.08.19.22l.02.23.04-.22c.06-.31.63-.79.74-.62.06.1.14.06.3-.15.21-.26.23-.27.29-.1.07.18.07.18.14-.01.06-.22.63-.61.73-.51.11.11-.28.95-.53 1.1-.17.12-.24.13-.24.04 0-.17-.12-.02-.49.64-.32.57-.21.8.15.3ZM10.1 32.43v-.98l-1.18-.44c-.64-.24-1.39-.54-1.65-.67-.5-.25-.51-.21-.09.35.25.33.16.34-.21.03-.25-.22-.31-.09-.09.19.11.13.17.29.15.34-.06.19.49.62 1.46 1.15.52.28 1.08.62 1.25.76.17.13.32.24.34.24.01 0 .02-.44.02-.97Zm30.65.38c.08-.14-.47-.29-1.69-.46-1.1-.15-1.37-.25-1.9-.74l-.29-.26.18.3c.48.78.74.91 2.25 1.1 1.25.16 1.38.17 1.45.06Zm-16.79-.3c-.87-.09-1.3-.97-.82-1.67.14-.19.12-.19-.53-.16-.78.05-1.73-.16-1.31-.29.44-.13 1.83-.09 2.25.06.86.31 1.02.15 1.42-1.4.2-.75.38-.9.94-.74.16.04.31.03.37-.03.07-.07.19-.02.37.16l.27.27.34-.26c.62-.47.61-.57-.07-1.16-1.14-.98-.63-1.65.54-.7.79.65.74.67 1.83-.39.51-.49.98-.9 1.04-.9.19 0 .1-.18-.12-.25-.3-.09.2-.26.52-.18.6.16.34.77-.84 1.93l-.97.96.58.42c.56.41.58.42.66.2.07-.2 0-.31-.26-.41-.14-.05.05-.37.22-.37.1 0 .21-.12.26-.32.06-.18.14-.31.19-.3.05.02.13-.02.18-.1.12-.17.02.39-.19 1.08-.16.51-.13.84.06.84.06 0 .13-.1.15-.22.02-.13.09-.48.14-.78.06-.3.18-.82.26-1.15.25-.96-.05-2.36-.48-2.22-.29.1-.66-.71-.6-1.28.06-.45.09-.53.2-.44.12.09.14.01.14-.51 0-.68-.18-.71-.45-.06l-.13.29-.07-.31c-.03-.17-.04-.36-.01-.41.11-.17-.05-.39-.25-.34-.14.04-.19 0-.19-.17 0-.15-.05-.2-.14-.17-.23.09-.27-.05-.09-.32l.16-.26-.22.19c-.12.11-.19.26-.16.34.04.12.03.13-.1.02-.11-.09-.12-.17-.05-.31.12-.21.5-.45.5-.31 0 .05.14.06.33.02.17-.04.31-.12.3-.18-.02-.07.06-.12.17-.12s.19.05.17.12c-.01.06.12.14.28.18.92.2 1.2.75 1.4 2.76.2 1.93.14 4.81-.07 3.77-.06-.31-.38.84-.38 1.37 0 .42-.03.53-.19.57-.1.02-.25.16-.32.3-.21.4-.63.56-1.07.42-.51-.16-.58-.21-.4-.28.11-.04-.02-.18-.48-.5l-.65-.44-.59.57c-.61.59-.81.66-1.02.41-.29-.35-.78-.88-.78-.84.03.57.81 1.94 1.15 2.01.5.11.63.22.75.69.07.23.17.39.26.39s.01.15-.23.4c-.54.55-2.03.74-4.17.51Zm16.94-2.6c0-2.18 0-2.19-.22-2.25-.35-.09-.68-.07-.68.04 0 .18-.82 1-.99 1-.14-.01-.14-.02.02-.11.28-.16.7-.89.82-1.43.06-.28.17-.52.25-.54.09-.03.11.02.07.17-.03.12 0 .21.06.22q.12 0 0 .06c-.33.13-.02.42.45.43.21 0 .16-.7-.06-.71-.16-.01-.16-.02 0-.06.3-.08.2-.22-.22-.33-.24-.06-.4-.17-.4-.26 0-.12-.05-.12-.32.03-.18.1-.57.32-.87.48-.46.25-.61.4-.84.85l-.28.55.33.03c.37.04.71-.29 1.09-1.05.23-.48.43-.57.33-.15-.2.85-.88 1.62-1.44 1.62-.22 0-.4.05-.4.1 0 .06-.18.3-.4.54-.45.49-.51.81-.25 1.44.4.94.92 1.1.9.27 0-.3.02-.55.06-.55s.1-.19.13-.42c.16-.98.34-1.1.33-.23-.01.98.04 1.46.14 1.4.04-.03.07.11.06.31-.01.32-.04.35-.24.31-.13-.02-.23-.01-.23.04 0 .04.26.08.58.08.31 0 .84.07 1.17.14.33.08.7.15.83.16l.22.01zm-6.06 1.51c.66-.23.85-.6.93-1.83.06-.91.06-.92-.15-.87-.12.04-.25.02-.28-.03-.12-.2-.99-.1-1.35.16-.56.42-.59.5-.59 1.67v1.08h.48c.26-.01.69-.09.96-.18Zm-7.35-.08c.11-.03.11-.07.01-.19-.12-.14-.24-.14-.65.02-.13.04-.35-.38-.75-1.42-.42-1.1-.44-1.13-.59-.63-.48 1.7-.94 2.4-1.38 2.06-.16-.12-.55-.06-.6.09-.07.19 3.4.25 3.96.07Zm-17.43-3.2c-.07-.18-.94-.44-1.7-.51-.57-.05-.65-.08-.45-.15.27-.11 1.11-.03 1.76.17l.44.13-.03-.31c-.03-.3-.06-.33-.68-.47a6 6 0 0 1-.75-.21c-.18-.12-1.21-.3-1.9-.34l-.67-.04-.4-.53-.4-.53.05-1.3c.05-1.39.31-2.44 1.23-5 .69-1.91 1.55-3.06 2.97-3.99l.57-.37v-.8c0-.93.02-.93-.93-.29-1.85 1.24-3.43 3.4-4.13 5.65-.25.82-.58 1.72-.72 2-.34.63-.33.59-.38 3.08l-.05 2.08.58.61c.6.63.4.65-.22.02-.24-.24-.35-.3-.35-.19 0 .15.94 1.24 1.31 1.52.09.07.53.44.98.82.9.79 1.4 1.07 2.86 1.61l1 .38.03-1.46c.01-.8.01-1.51-.02-1.58Zm33.86 2.21c-.28-.23-.3-.23-.25-.05.08.3-.09.24-.34-.13-.31-.44-.53-.92-.59-1.3l-.05-.32.17.3c.41.74.43.76.67.63.29-.16.59-.18.75-.06.08.07.12.07.12-.02q0-.135.21.06c.27.24.6-.1 1.19-1.26.22-.42.39-.66.39-.55.01.29-.56 1.45-.86 1.77-.14.14-.22.31-.19.37.11.17.26.13.26-.06 0-.23.13-.08.17.2.02.15 0 .18-.05.09-.07-.1-.11-.1-.22.03a.48.48 0 0 1-.3.15c-.1 0-.2.05-.22.12-.03.07-.13.05-.33-.08l-.28-.18.07.27c.08.33.05.33-.32.02Zm-23.41-.97c-.12-.32-.07-.38.85-1.06.45-.33.84-.64.87-.69.03-.04-.37-.62-.9-1.28-1.43-1.81-1.64-2.25-1.07-2.25.31 0 .51.2 1.81 1.82l.95 1.18.27-.2c.15-.1.33-.26.4-.33.21-.26.67-.4.9-.27.39.2.26.53-.4 1.05-.58.45-.59.48-.44.69.66.9.68.96.57 1.21-.19.41-.55.33-.91-.18-.52-.76-.5-.76-1.44-.08-.92.67-1.31.77-1.46.39ZM34 28.54c.37-.25.46-.26 1.1-.2.78.07.81.04.46-.43-.45-.6-1.56-1.14-2.01-.97-.16.06-.23.96-.07.96.25-.01.55-.39.43-.54-.16-.19-.06-.2.38-.05.33.11.42.29.15.29-.31 0-.94.61-.94.92 0 .34.01.34.5.02Zm3.3-.31c0-.65.66-1.46 1.63-2.04.32-.19.67-.49.79-.67.11-.17.24-.3.28-.27.05.03.11.01.15-.05.03-.05.22-.1.41-.1.41 0 .55-.82.16-.94-.32-.11-.69-.59-.86-1.16-.1-.3-.3-.66-.44-.79-.24-.22-.25-.26-.09-.29.27-.06.45.14.68.79.25.68.65 1.17.81 1.01.08-.08.03-.2-.16-.42-.27-.33-.33-.64-.16-.9.07-.11.1-.04.1.27 0 .67.18.59.25-.12.08-.67.01-.91-.15-.65-.06.08-.1.1-.1.04s-.11-.23-.25-.38l-.25-.27-.01.23c-.01.18-.02.19-.06.05-.12-.46-.93-1.08-1.36-1.05-.3.02-.47-.02-.6-.15s-.27-.17-.43-.13c-.13.04-.24.02-.24-.02 0-.05-.29-.12-.65-.14-.36-.03-.72-.11-.79-.17-.1-.08-.16-.09-.21-.01-.03.05-.11.1-.16.1-.06 0-.08-.04-.05-.09s-.19-.09-.49-.09c-.39.01-.55.05-.55.15 0 .16-.22.17-.39.01-.1-.11-.14-.09-.22.05-.08.13-.14.15-.23.08-.1-.09-.14.32-.18 2.07-.06 2.22-.03 2.86.13 2.76.05-.03.09.05.09.18.01.28.29.49.94.71.58.2.62.18.47-.24-.06-.18-.11-.41-.11-.53 0-.3.22.04.42.63.08.24.24.51.36.59.21.14.21.13-.04-.48-.14-.34-.23-.7-.21-.79.03-.11.07-.07.16.14.26.69.29.7.24.2-.03-.42-.02-.47.08-.31.07.11.12.48.13.83.01.81.12.82.54.08.38-.67.38-1.32.01-1.79-.25-.32-.24-.44.02-.2.47.42.69 1.47.34 1.6-.08.04-.12.1-.09.15.08.14-.16.81-.37 1.04-.11.12-.15.25-.1.33.11.18.24.01.51-.68.12-.3.26-.61.32-.68.07-.08.09-.47.06-1.05-.05-.89-.05-.91.1-.57.16.37.2 1.15.09 1.65l-.07.3.15-.28c.1-.17.2-.25.28-.2.66.41 1.23-.39 1.27-1.77l.02-.45.1.35c.27.93-.1 1.72-.99 2.12-.44.19-.64.38-.41.38.53 0 1.68-.9 1.68-1.31 0-.1.05-.19.1-.19.11 0 .13.39.04.64-.08.22-1.1.82-1.61.95-.33.09-.41.15-.36.28.04.11.02.14-.05.09-.15-.09-.39.31-.46.77-.04.21-.11.47-.16.57-.14.26-.12.4.05.4.08 0 .15-.08.15-.17ZM5.74 27.18c-.04-.13-.27-.45-.51-.73-.77-.88-.86-1.17-.91-2.97-.03-.86-.08-1.55-.13-1.52s-.06-.02-.02-.12c.05-.15.07-.15.16.01.08.16.11.14.23-.15.17-.39.29-.35.14.04-.43 1.15.04 3.69.85 4.6.26.28.35.47.35.72 0 .39-.06.43-.16.12Zm10.7-1.37c.08-.14.17-.46.21-.71.05-.25.1-.39.13-.32.06.17.52-.24.52-.47 0-.14.02-.14.1-.01.08.11.09.08.04-.12-.04-.18-.02-.28.06-.28.06 0 .08-.04.05-.1-.03-.05-.01-.1.04-.1.06 0 .11-.04.11-.1 0-.05-.07-.07-.15-.04-.1.04-.15 0-.15-.14 0-.24.16-.38.23-.2.03.07.05-1.23.05-2.89 0-1.67-.02-3.03-.04-3.03-.17 0-.54.36-.54.52 0 .11-.05.28-.11.39-.1.19-.09.2.11.09.12-.06.24-.09.27-.07.07.08-.07.47-.18.47-.05 0-.09.05-.09.11 0 .08.05.07.15-.01.2-.17.27-.08.19.24-.05.23-.51.71-.87.93-.08.04-.22.32-.32.62-.37 1.13-1.46 1.38-1.9.44-.1-.21-.33-.55-.52-.76-.18-.21-.36-.51-.4-.67-.06-.32-.13-.36-.3-.19-.16.16-.46-.45-.37-.73.04-.15.02-.19-.07-.16-.08.03-.16.2-.19.38-.04.3-.06.32-.19.17-.15-.19-.12-.43.14-1.02.14-.32.14-.37.02-.26-.13.1-.17.09-.25-.05-.18-.32-.46.28-.39.84.05.39.04.44-.06.28-.07-.1-.2-.26-.29-.35-.14-.12-.18-.31-.18-.84 0-.64-.28-.9-.31-.28 0 .09-.03.11-.05.05-.03-.06.13-.39.35-.72.47-.7.67-.88.58-.5-.05.2-.03.27.12.31.14.03.21.15.23.38.04.43.34.52.48.15l.09-.26.35.23c.18.12.4.37.47.55.14.36.23.29.32-.29.05-.36.05-.37-.34-.43-.4-.06-.6-.22-1.06-.84l-.23-.3.25-.16c.56-.37 1.29-.11 1.41.5.04.2.15.43.25.53.18.17.18.2-.08 1.12-.46 1.65-.38 2.4.25 2.39l.27-.01-.27-.15c-.72-.38-.44-1.14.41-1.14.58 0 .6-.01.66-.31.11-.51.3-.17.3.55 0 .49-.04.69-.19.85-.16.18-.17.21-.03.27.45.17.85-.45.96-1.47.07-.69.01-.86-.19-.49-.18.34-.3.22-.3-.29 0-.27-.05-.62-.11-.77-.1-.28.02-.69.26-.86.05-.04.09-.2.07-.36-.05-.51.29-.7.87-.49.27.09.51.17.55.17.32 0-.03-2.5-.4-2.87-.31-.31-.3-.44.04-.84l.27-.33.06.39c.06.36.06.35.08-.18l.01-.59-.38.3c-.83.67-1.02 1.11-.53 1.27.21.06.75.85.58.85-.17-.01-.47-.25-.47-.39 0-.06-.07-.11-.14-.11-.26 0-.68-.65-.6-.94.06-.26.05-.26-.49-.26h-.54l.09.52c.07.36.06.64-.02.94-.07.23-.09.47-.06.53.04.06 0 .47-.08.91-.1.51-.13 1.02-.09 1.4.04.39.02.6-.05.6-.14 0-.32-.56-.32-1.02 0-.25-.08-.5-.2-.65-.21-.27-.27-.48-.1-.38.06.03.1.01.1-.05 0-.07.07-.09.16-.06.12.05.15 0 .14-.22a2 2 0 0 1 0-.37c.02-.06.04-.32.05-.6.01-.27.06-.62.1-.77.14-.5 0-.76-.4-.75-.3.01-.35.05-.35.24 0 .13-.09.28-.21.35-.11.07-.29.28-.4.46-.25.39-.41.42-.29.05.04-.16.11-.4.14-.55.04-.19.11-.26.21-.22.3.12.14-.25-.22-.52-.21-.15-.64-.47-.97-.72-.45-.34-.6-.41-.67-.3-.14.22-.22.97-.16 1.53.03.29.01.57-.04.62-.06.06-.06.19 0 .36.06.15.06.29.01.32s-.06.3-.03.61c.05.51.04.57-.23.86-.19.2-.23.29-.12.25.1-.04.26-.1.36-.14.09-.03-.04.13-.3.37-.36.33-.45.46-.37.56s.06.19-.05.36c-.22.31-.2.45.04.23.23-.21.25-.14.06.23-.18.37-.29 1.02-.17 1.02.06 0 .08.39.06 1.03-.04.95-.03 1 .11.74.21-.39.34-.25.35.41.01.31.03.49.06.4.02-.1.09-.18.15-.18.05 0 .08-.06.05-.14s0-.2.08-.26c.1-.09.15.05.25.74.07.47.18.84.23.83.06-.01.13.07.15.18.08.42.22.38.22-.06 0-.46.13-.79.27-.66.04.05.06.37.05.71-.02.4.02.77.12 1 .17.4.29.48.22.14-.13-.62-.17-1.38-.07-1.38.06 0 .13.12.16.28.22 1.01.65 2.2.65 1.77 0-.06.09.03.2.2l.21.3-.07-.3c-.06-.29-.05-.28.2.1.14.23.26.55.26.75 0 .23.03.3.09.22.06-.1.17-.02.44.3.2.24.37.36.37.28 0-.21.49.61.5.84 0 .24.25.06.44-.33Zm-8.52.13c.22-.14.81-.64 1.29-1.11l.89-.86v-2.28c0-1.26-.03-2.29-.08-2.29-.08 0-1.01 1.17-1.33 1.67l-.2.31.23-.06c.28-.07.18.08-.48.74l-.41.41.01-.81c.01-.68-.03-.86-.22-1.16l-.22-.35.06.57c.1.85-.01 1.17-.7 2.14-1.17 1.64-1.35 2.16-.95 2.8.37.61 1.38.74 2.11.28Zm-1.3-3.35c.67-.93.72-1.11.58-1.9-.13-.67-.07-1.3.1-1.13.33.33.8 1.32.81 1.68l.01.41.1-.3c.06-.16.33-.62.59-1.01.27-.39.49-.76.49-.82 0-.07.05-.12.12-.12.42 0 .85-.89.57-1.17-.08-.08-.08-.17 0-.31.14-.26.14-1.02.01-1.02-.07 0-.07-.06-.02-.17.16-.31.22-.83.11-.83-.07 0-.08-.14-.04-.4.09-.51.01-.5-.72.03-.74.55-1.64 1.56-1.97 2.21C6.73 19 5.6 22.75 5.6 23.58v.57l.28-.45c.15-.25.48-.75.74-1.11Zm33.4-2.15c.04-.03.02-.2-.04-.37-.05-.18-.13-.54-.18-.82-.04-.27-.11-.61-.15-.75-.05-.19-.04-.22.04-.1.09.13.11.12.11-.05 0-.33-.3-1.38-.44-1.55-.18-.2-.37-1.17-.37-1.87 0-.18-.04-.35-.09-.38-.06-.04-.07-.17-.04-.31.05-.2.02-.26-.14-.31a.4.4 0 0 1-.27-.24c-.04-.11-.18-.33-.32-.49-.13-.17-.21-.3-.17-.3s0-.08-.08-.17c-.09-.1-.24-.34-.33-.53-.1-.19-.23-.39-.29-.43-.07-.05-.03-.07.09-.05.13.02.29.22.45.53.22.44.79 1.35.85 1.35.17 0-.04-1.46-.21-1.48-.18-.03-.21.01-.17.22.03.15.01.26-.04.26-.14 0-.35-.43-.37-.76-.02-.16-.08-.42-.14-.57a1.4 1.4 0 0 1-.12-.41c0-.2-.38-.6-.6-.63-.11-.02-.2.03-.2.1 0 .08-.04.07-.11-.03-.07-.11-.08-.03-.04.28.04.23.04.42.01.42-.13 0-.37-.78-.38-1.22-.01-.49-.06-.56-.25-.37-.08.08-.17.08-.32 0-.18-.1-.21-.09-.21.11 0 .18-.06.12-.27-.24-.14-.27-.32-.48-.38-.48-.07 0-.17-.1-.23-.22-.11-.21-.11-.21-.07.07.05.28.04.27-.15-.1-.2-.41-.29-.84-.11-.56.07.11.1.09.15-.07.09-.28-.22-.95-.4-.88-.08.03-.14-.01-.14-.09 0-.19-.11-.19-.34-.02-.15.11-.17.22-.12.58.03.24.06.6.06.8-.01.33.02.37.24.35.21-.01.23-.03.12-.16-.26-.31-.28-.4-.06-.4.27 0 .43.43.34.93-.05.3-.09.36-.16.26-.08-.11-.09-.1-.05.03.03.09.01.19-.06.21-.08.03-.05.18.11.51.12.25.22.57.22.7 0 .12.03.26.07.3s.09.19.11.33c.05.4.15.52.58.77.23.13.4.3.42.43.02.11.12.29.23.39.22.2.28.54.05.35-.1-.09-.16-.08-.25.03-.13.16-.06.6.08.52.15-.09.6.48.86 1.09.14.33.37.81.5 1.08.27.52.3.61.15.52-.13-.08-.13.06 0 .39.06.16.06.27 0 .31s-.04.18.05.35c.18.35.31 1.41.2 1.67-.06.15-.09.12-.2-.17l-.13-.35-.01.3c-.01.19-.04.25-.09.17-.07-.09-.13-.07-.28.09-.19.22-.19.22.04.16.13-.03.25 0 .3.09.09.17.52.07.52-.12 0-.22.38-.16.45.07.06.19.12.21.56.16.49-.06.59-.01.38.2-.08.08.04.13.41.18.39.05.54.12.57.26.05.19.15.24.25.13Zm3.67-.38c.08-.05.16-.04.2.02.11.17.58.24.81.12.33-.18.52-.75.51-1.54 0-.66.01-.69.14-.46.08.14.14.42.15.62 0 .32.04.39.25.44.3.07.55-.1.55-.38 0-.12.06-.19.18-.17.39.04.42 0 .36-.45-.07-.45.09-.73.21-.36.13.41.25.18.25-.5 0-.66-.01-.71-.26-.8-.33-.13-.34-.13-.34.04s-.17.24-.52.2c-.2-.02-.28.02-.28.12 0 .11-.06.13-.2.09-.16-.05-.2-.02-.2.19 0 .14-.05.25-.11.23-.07-.01-.17.22-.24.51-.27 1.18-.84 1.81-1.49 1.65-.12-.03-.29-.05-.38-.05-.1.01-.2-.03-.23-.09-.04-.05-.14-.09-.24-.09-.26 0-.47-.52-.54-1.34-.05-.57-.11-.72-.33-.93-.38-.35-.39-.23-.05.42.26.48.31.69.31 1.27 0 1.38.55 1.84 1.49 1.24Zm-9.9-.73c.08-.15.11-.15.27-.03.16.14.16.13.06-.07-.07-.12-.17-.25-.22-.28-.06-.03-.1-.12-.1-.18 0-.07.07-.04.14.06.46.6 1.28.57 1.11-.05-.05-.2-.04-.21.05-.05.06.09.16.14.22.11.07-.05.09.02.04.2-.06.24-.04.26.27.26.42 0 .57-.15.57-.6 0-.2.05-.41.11-.47.13-.13-.12-1.09-.42-1.61-.24-.42-.24-.5-.01-.28.26.22.15-.58-.13-1.01-.18-.28-.18-.28.01-.13.17.14.18.14.06-.02-.08-.1-.22-.2-.32-.23s-.21-.12-.24-.2c-.04-.11 0-.12.19-.05.14.05.32.07.4.03.23-.08-.1-.43-.41-.43-.24 0-.54-.42-.54-.77 0-.22-.85-1.55-.94-1.46-.03.03-.15-.02-.26-.12-.35-.31-.3 1.12.05 1.45.14.13.25.28.25.33 0 .06-.11 0-.25-.13l-.25-.23V15c0 1.43.02 1.64.18 1.76s.16.13 0 .19-.18.22-.18 1.31c0 1.19.07 1.45.29 1.07Zm-3.51-.12c-.14-.09-.48-.31-.74-.48-.4-.28-.81-.4-1.16-.34-.2.03-.05-.11.24-.24l.33-.14h-.35c-.19 0-.55.04-.8.1-1.62.4-.95-.32.85-.91.39-.13.74-.29.8-.36.13-.18 1.01-.24.98-.07-.02.07.09.16.25.2.27.07.27.07-.12.18l-.39.11.44.26c.42.25 1 .88.81.88-.05 0-.15-.06-.21-.14-.16-.19-.89-.34-1.3-.28l-.33.05.39.17c.36.16.96.9.73.9-.05 0-.1.06-.12.13-.02.11-.08.11-.3-.02ZM4.9 18.16c0-.05-.1-.2-.22-.33-.22-.24-.11-.31.22-.13.13.07.21.07.25 0 .03-.05-.02-.1-.12-.11-.11 0-.13-.03-.05-.06.06-.02.1-.09.06-.14-.03-.05-.01-.09.04-.09s.13-.1.17-.23l.09-.27c.01-.03.1-.2.2-.38.29-.56.11-.48-.64.27-.39.39-.75.71-.8.71-.15 0-.12.66.04.79.11.09.15.09.18-.01.03-.07-.02-.19-.11-.26-.13-.1-.11-.1.12 0 .17.07.23.14.16.18-.08.05-.07.13.03.29.13.22.38.07.38-.23Zm22.4-.85c0-.06.25-.37.56-.7.6-.65.52-.83-.2-.46-.41.22-.51.19-.32-.1.24-.36.2-.39-.22-.15l-.37.22.24-.26c.13-.14.5-.36.83-.48.32-.13.58-.26.58-.29 0-.06-.76.05-1.13.17-.16.05-.17.03-.08-.14.16-.29.14-.42-.05-.35-.14.05-.15.03-.05-.16.19-.35.89-.8 1.6-1.01l.85-.26c.14-.05.17-.02.14.07-.04.11.04.14.36.11l.41-.03-.3.23c-.16.13-.57.32-.9.43l-.6.2 1.2.05 1.2.05-.77.19c-.93.22-.99.28-.19.2.32-.04.76-.03.97.02l.39.08-.4.05-.4.06.44.21.45.21-.73.01c-.72 0-1.35.17-1.26.33.03.04.36.06.73.04l.67-.05-.45.14c-.94.29-.99.34-.3.3.8-.05.53.11-.36.21-.75.09-.96.14-.89.25.03.05-.14.14-.37.21-.24.06-.6.2-.8.3-.42.22-.48.23-.48.1Zm13.55-2.28c-.07-2.1-.08-2.18-.25-2.18-.23 0-.4-.29-.44-.77-.02-.24-.05-.43-.06-.43 0 0-.03-.19-.05-.42-.05-.56.01-.54.31.12.44.96.45.89.42-2.97-.04-4.85.41-4.38-4.13-4.38H33.4v.73c0 .45.05.78.12.86.1.11.1.14 0 .18-.14.06-.16.49-.02.58.05.03.1.02.1-.04s.1-.04.25.03c.29.15.85.88.85 1.11 0 .09.1.19.22.24l.23.08-.22.07c-.25.08-.14.66.13.66.08 0 .23.09.34.2.26.26.26.06-.01-.37-.35-.56-.16-.46.21.12.32.49.36.52.52.38.21-.18.48-.03.48.27 0 .09.18.33.4.54.22.2.4.41.4.46s.07.07.15.04c.17-.07.58.54.5.75-.03.08.03.23.12.33.1.11.17.22.15.24-.02.03.07.17.18.32l.22.27-.07-.28c-.12-.46.13-.31.41.25.17.33.22.54.15.56-.15.05-.14.56.04 1.22.08.3.15.67.15.81 0 .15.07.32.15.39s.15.22.16.34c0 .11.03.15.06.08s-.01-.26-.07-.43c-.17-.41-.05-.48.15-.09.11.21.14.42.1.62-.05.23-.04.29.05.23s.11.01.06.26c-.05.27-.04.3.04.14.09-.17.1-.16.06.09-.02.17-.01.37.03.45.03.1.08-.02.11-.29l.05-.45.2.63.2.62.07-.34c.04-.19.05-1.01.03-1.83Zm-36.24 1.6c.15-.15.32-.38.38-.51.06-.12.17-.22.23-.22.31 0 .48-.33.48-.94 0-.43.06-.69.19-.9l.19-.29.12.44c.06.24.13.49.14.54.11.33.5-.95.48-1.56-.02-.51.01-.68.12-.72.08-.03.2-.24.27-.46.11-.38.38-.64.4-.38.02.38.42-.9.46-1.51.07-.81.16-.87.49-.27.24.41.22.43.44-.45.07-.25.24-.65.4-.9.15-.25.31-.55.35-.67.03-.13.12-.22.18-.2.08.01.12-.17.12-.58v-.6l-1.9-.03c-2.43-.04-2.49-.02-2.76.51-.28.54-.62.95-1.1 1.3-.27.2-.39.36-.39.53 0 .29.09.3.44.03.38-.3.32-.09-.09.31-.24.24-.35.43-.35.63 0 .29.01.28.42-.25.42-.54 1.08-1.08 1.08-.88 0 .05-.27.4-.61.76-.84.94-.9 1.08-.87 2.09l.03.85.68-.45c1.18-.8 1.59-1.61 1.37-2.73-.13-.64-.06-1.57.11-1.47.05.03.08.27.07.53 0 .26.03.8.07 1.19.13 1.22-.44 2.15-1.77 2.92l-.58.32v2.12l.41-.63c.22-.35.76-1.11 1.19-1.69 1.16-1.59 1.25-1.78 1.25-2.88s.09-1.26.23-.43c.21 1.19-.02 1.78-1.46 3.75C4.21 14.65 4 15.11 4 16.23c0 .98.05 1.01.61.4Zm38.78.2c.03-.02-.14-.22-.38-.44-.69-.67-.78-1.15-.31-1.59l.3-.28-.29-.07c-.48-.1-1.17.52-.82.74q.105.075-.09.39c-.25.41-.25.42.06.42.23 0 .25-.03.19-.27-.05-.23-.04-.25.09-.14.09.08.16.27.16.43 0 .17.06.31.16.35.08.03.13.12.09.21-.12.32.54.52.84.25Zm1.47-.04c.14-.16.15-.23.07-.26-.2-.07-.15-.21.08-.28.15-.05.18-.1.1-.18-.14-.14-.14-.27-.01-.27.06 0 .1.07.1.16 0 .11.06.15.2.11.11-.03.18-.01.14.04-.03.05-.12.09-.2.09-.09 0-.14.06-.11.12.07.24.4.14.5-.15.12-.38.02-.73-.25-.8-.17-.05-.19-.09-.1-.2.07-.08.09-.17.05-.2-.03-.04 0-.07.08-.07.08-.01.03-.07-.11-.15-.29-.16-1.26-.2-1.35-.05-.03.06-.28.1-.54.1-.47 0-.71.12-.71.37 0 .07.11.13.27.13.14 0 .34.07.44.16.16.14.2.14.48 0 .16-.09.37-.16.46-.16.19 0 .19-.09-.02-.32-.21-.24.03-.25.29-.01.39.35.19 1.13-.39 1.53l-.36.24.29.13c.38.16.38.16.6-.08ZM7.7 14.29c0-.08.07-.24.16-.35.13-.16.15-.16.1-.01-.03.09-.02.17.03.17.28 0 .71-1.09.71-1.82 0-.24.04-.37.1-.33.06.03.14-.04.18-.16.05-.13.11-.18.15-.12s.03.23-.03.37c-.18.49.01.26.26-.31.17-.38.27-.81.29-1.27l.04-.71-.09.64c-.14.97-.21.86-.14-.21.09-1.22-.06-1.32-.35-.25-.13.45-.25.89-.28.97-.03.09-.14-.07-.28-.4-.24-.54-.24-.54-.25-.21 0 .19-.17.87-.37 1.5l-.37 1.16-.06-.45-.06-.45-.08.32c-.04.18-.12.35-.17.38-.05.04-.09.29-.09.56 0 .3-.1.74-.25 1.11-.45 1.11-.36 1.3.3.61.3-.32.54-.65.55-.74Zm4.06.19c.04-.07.16-.19.26-.26.23-.17.23-.35-.02-.57-.24-.21-.26-.45-.05-.45.18 0 .18-.05.05-.29-.14-.26-.32-1.5-.25-1.72.08-.24.63.16.96.68.26.42.29 1.71.05 1.89-.09.06-.15.16-.14.22.02.05-.14.22-.35.36-.41.28-.63.34-.51.14Zm24.92-.41c-.1-.26-.13-.45-.07-.42.24.16.05-.13-.26-.38-.26-.21-.33-.23-.29-.1.03.1-.03.05-.15-.12-.25-.36-.21-.41.18-.27s.39.13-.04-.38c-.19-.23-.35-.39-.35-.36 0 .04-.06.01-.14-.06-.1-.09-.11-.17-.03-.26.05-.07.13-.09.16-.05.03.05.18.16.33.26.42.27 1.28 2.27.98 2.27-.05 0-.1.08-.12.18s-.1-.02-.2-.31Zm9.47-.09c.41-.4.86-.73 1-.73.06 0 .11-.34.13-.75.03-.86-.27-1.28-.83-1.14-.24.06-.25.04-.25-.42 0-.57-.41-1.39-.48-.96-.02.12.04.29.12.38.18.17.21.51.06.74-.08.12-.1.09-.1-.12 0-.16-.03-.28-.07-.29-.45-.06-1.41-.04-1.51.04-.08.07-.18.05-.3-.07-.1-.09-.22-.13-.25-.1-.04.04-.13.02-.21-.05-.11-.09-.15-.08-.2.04-.06.16-.36.21-.36.06 0-.14-.6-.07-.7.09-.16.26-.2.05-.05-.24.08-.16.15-.42.15-.6 0-.29-.02-.27-.26.24-.19.4-.24.65-.21.93l.05.37h-.78v.95c0 1.09.1 1.38.55 1.6.45.21.71.11.5-.18a.96.96 0 0 1-.15-.44c0-.13-.04-.23-.08-.23s-.08-.08-.09-.17c-.01-.1-.05-.3-.08-.45-.19-.74.73-.41 1.15.42.21.41.5.5.5.14 0-.17.04-.22.15-.18.21.09.21-1.15 0-1.56s0-.38.25.03c.15.23.2.5.2.98 0 .65 0 .66.25.61.2-.03.25 0 .25.17 0 .27.15.27.43-.01.54-.55.94-.86 1.17-.93.14-.04.22-.04.18 0-.04.05-.03.14.04.22.08.1.06.19-.11.36-.11.13-.21.3-.21.39 0 .08-.11.36-.24.61-.36.66-.17.78.39.25ZM33.14 8.43c-.07-5.73-.07-5.73-.68-5.98-.48-.2-13.36-.22-13.75-.02-.66.33-.66.33-.64 5.5.02 4.67.02 4.69.23 4.92.12.13.28.21.35.18.08-.02.2.05.27.16l.12.2.23-.21c.18-.17.25-.19.37-.09s.17.09.28-.08c.14-.23.34-.28.4-.09.06.16.78-.56.78-.77 0-.1.1-.15.31-.15.57 0 .99-.6.59-.85-.24-.15-.09-.35.24-.35.4 0 .7-.25.63-.51-.03-.11-.01-.19.03-.19.14 0 .5.51.5.7 0 .1.07.2.15.24.08.03.15.13.15.22 0 .15.04.14.24-.05.14-.13.29-.2.34-.17.27.16.51-1.15.32-1.73-.03-.08.02-.16.12-.19.19-.04 1.04.7 1.13.98.06.19.07.19.37 0 .22-.13.36-.16.44-.09s.14.07.19-.01c.03-.05.21-.1.38-.1.18 0 .43-.09.57-.2.41-.32.84-.18.49.17-.06.06-.14.27-.19.48l-.08.37.6-.07c.59-.07.61-.07.55.14-.07.28.4.29 1.02.01l.43-.2-.06.54-.07.54.51.07c.48.07.51.09.46.3-.05.2-.01.24.24.3.17.04.3.12.3.19s.23.18.5.25c.48.12.5.14.5.47 0 .19.05.34.1.34.07 0 .08-1.7.04-5.17ZM9.35 13.15c.32-.19.61-.35.67-.37.05-.02.07-.52.06-1.13l-.03-1.1-.19.55c-.21.62-.57 1.33-.85 1.7-.52.67-.4.8.34.35Zm1.68-1.41c.15-1.69.52-2.07 1.37-1.43.59.44.75.48.83.18.04-.15.11-.2.21-.16.09.04.16.03.16-.02 0-.07.28-.2.53-.25.04 0 .11-.07.16-.14.05-.08.17-.11.33-.07.19.05.32 0 .54-.2l.28-.26.25.27c.15.16.26.23.29.16.05-.17.22-.15.22.03 0 .08.06.12.13.09.08-.03.22.06.32.2.1.13.24.22.32.19s.13.02.13.16c0 .25.08.26.36.03.21-.17.22-.24.25-3.32l.04-3.15-3.21-.03c-3.42-.02-3.62 0-3.91.45-.23.35-.33 2.53-.25 5.83l.05 2.36.26-.02c.25-.01.26-.03.34-.9Zm3.54-.56c.03-.06.09-.05.13.03.07.1.12.1.23 0 .09-.07.18-.08.21-.03.06.11.77.09.95-.02.06-.04.11-.02.11.03 0 .16.33.13.56-.03.19-.14.19-.15-.04-.34-.12-.11-.22-.25-.22-.31 0-.07-.04-.09-.1-.06s-.1 0-.1-.07c0-.1-.02-.1-.09.01-.06.09-.1.1-.16.02-.03-.07-.15-.09-.25-.06-.12.04-.19-.01-.23-.15-.06-.24-.27-.27-.27-.04 0 .08-.04.13-.09.1s-.14.01-.21.1c-.1.11-.15.12-.21.03-.06-.1-.11-.1-.24.01-.1.08-.27.14-.39.15-.12 0-.21.07-.21.15-.01.08-.06.14-.13.13-.07-.02-.12.02-.12.07 0 .06-.08.1-.17.1-.17.01-.17.01 0 .14.2.15.95.18 1.04.04ZM47.3 9.02c0-2.78.22-2.62-3.62-2.62H41.1v2.2c0 1.89.02 2.2.15 2.2.08 0 .15-.06.15-.13 0-.16.68-1.77.82-1.95.24-.29.58.25.58.93 0 .36.15.46.37.24.08-.08.18-.06.36.06.16.1.34.14.47.1.12-.04.27-.01.35.05.07.06.31.1.52.08l.38-.03.01-.63c.02-.83.02-.83.73-.06.5.55.61.73.61 1.01 0 .3.03.34.2.28.13-.04.22-.01.26.09.18.46.24-.03.24-1.82Z"/></svg>