<svg xmlns="http://www.w3.org/2000/svg" width="51" height="51" viewBox="0 0 51 51"><path fill="#fff" fill-rule="evenodd" stroke="#fff" stroke-width=".768" d="M17.97 39.6c-.4-.31-.47-.77-.47-2.92V34.7h-.99c-2.36 0-3.8-.79-4.64-2.57l-.32-.68-.06-2.55c-.11-5.27 0-11.67.22-12.34.47-1.38 1.6-2.43 3.09-2.88.83-.24 21.27-.12 22.04.14 1.46.48 2.57 1.76 2.86 3.28.14.71.13 13.6-.01 14.19-.37 1.62-1.81 3-3.43 3.3-.39.07-2.64.11-6.35.11h-5.76l-2.55 2.55c-2.51 2.5-2.57 2.55-2.97 2.55-.25 0-.5-.07-.66-.2Zm.96-.14c.18-.08 1.41-1.24 2.74-2.6l2.42-2.45 6.18-.03 6.18-.03.67-.32c.9-.42 1.6-1.1 2.01-1.92l.32-.66v-14.6l-.32-.68c-.59-1.23-1.71-2.06-3.09-2.27-.46-.07-4.05-.1-10.84-.08l-10.15.03-.58.22c-1.16.44-2.17 1.46-2.54 2.57-.21.62-.33 13.39-.13 14.43.23 1.25 1.09 2.37 2.29 2.96.63.31.71.32 2.16.37l1.5.05.05 2.33.05 2.34.28.24c.33.28.37.29.8.1Zm.47-4.41c0-2.34.13-2.22-2.5-2.28-2.23-.04-2.75-.27-3.29-1.47-.27-.6-.33-13.44-.06-14.19.21-.61.58-1.04 1.17-1.37l.53-.29h20.8l.54.3c.61.33.94.72 1.16 1.34.18.53.23 13.28.05 13.93-.15.53-.68 1.19-1.2 1.48l-.45.25-6.36.03-6.36.03-1.95 1.89c-1.08 1.05-1.99 1.9-2.02 1.9s-.06-.7-.06-1.55Zm.62.78c.07-.1.86-.89 1.75-1.75l1.61-1.58h6.29c6.96 0 6.71.02 7.35-.66.58-.63.57-.42.59-7.7.01-6.05 0-6.73-.15-7.09-.21-.5-.5-.81-1.01-1.08l-.4-.22h-20.8l-.4.22c-.51.27-.8.58-1 1.07-.24.56-.26 13.61-.03 14.16.46 1.06 1.04 1.29 3.23 1.3 2.49 0 2.58.08 2.63 2.16.04 1.33.09 1.5.34 1.17Zm.22-7.93c-2.77-.55-3.97-3.98-2.18-6.17 2.1-2.56 6.28-1.39 6.74 1.88.1.7-.05 1.72-.35 2.28l-.16.31h1.31c.71 0 1.3-.02 1.3-.05 0-.02-.1-.28-.22-.57-1.08-2.62 1.22-5.59 4.05-5.24 4.29.54 4.44 6.76.18 7.56-.64.12-10.06.12-10.67 0Zm11.58-.58c2.18-1.07 2.66-4.11.9-5.73-1.86-1.72-4.95-1.03-5.83 1.31-.31.83-.24 2.02.18 2.93l.32.67h-1.75c-.95 0-1.74-.03-1.74-.06 0-.04.15-.36.33-.73.29-.59.32-.74.32-1.56 0-3.78-4.97-4.91-6.77-1.54-.2.38-.23.58-.23 1.54 0 1.31.22 1.83 1.13 2.66.98.89.91.89 7.12.86l5.35-.02zm-11.67-1c-1.98-.93-1.89-3.65.14-4.37 2.05-.72 3.89 1.57 2.75 3.42-.6.97-1.92 1.4-2.89.95Zm9.11-.02c-1.29-.65-1.75-2.25-.97-3.41 1.52-2.26 5.03-.55 4.15 2.03-.43 1.27-2.02 1.95-3.18 1.38Zm-7.31-.28c1.92-.94 1.35-3.77-.78-3.9-2.57-.15-3.03 3.48-.52 4.09.37.09.9.01 1.3-.19Zm9.3-.06c.94-.51 1.33-1.81.83-2.76-.78-1.45-2.92-1.45-3.65 0-.94 1.84 1 3.74 2.82 2.76Z"/></svg>