<svg xmlns="http://www.w3.org/2000/svg" width="51" height="51" viewBox="0 0 51 51"><path fill="#fff" fill-rule="evenodd" stroke="#fff" stroke-width=".422" d="m13.22 35.73.03-5.08h.45c.45 0 .45 0 .48.38.04.44.01.44.54.08 2.97-2 6.78 1 5.49 4.32-.81 2.08-3.73 2.94-5.51 1.62l-.35-.26-.05 1.98-.05 1.98-.53.03-.52.03zM14 38.3c0-1.21.03-2.2.06-2.2s.17.13.3.3c.81.96 2.68 1.25 3.96.62 2.62-1.29 2.41-5.16-.33-6.07-1.17-.39-2.78-.05-3.53.74-.4.42-.44.4-.48-.21-.03-.46-.06-.53-.25-.56l-.23-.03v9.61h.5zm7.25-.85c-.7-.69.21-1.75.99-1.14.52.41.18 1.39-.49 1.39-.14 0-.37-.11-.5-.25Zm4.72.15c-3.26-.82-3.53-5.72-.39-6.9 1.17-.44 2.66-.17 3.5.63.4.38.4.39-.04.72l-.35.27-.22-.2c-1.23-1.16-3.42-.58-3.87 1.03-.73 2.56 1.66 4.51 3.66 2.99.52-.4.47-.4.84-.12.35.26.37.37.1.71-.53.67-2.21 1.12-3.23.87Zm5.92-.04c-3.16-.85-3.51-5.41-.51-6.79.7-.33 2.37-.32 3.04.01 3.95 1.95 1.72 7.93-2.53 6.78Zm-25.72-.68c-1.04-2.51-2.37-5.94-2.37-6.09 0-.16.08-.19.45-.19.57 0 .51-.11 1.71 2.92L6.94 36l.14-.33c.07-.17.51-1.3.98-2.5.46-1.2.89-2.27.94-2.38.12-.22.81-.27.98-.06.08.1-.96 2.91-2.31 6.17l-.23.55-.51.03-.5.03zm4.7.55c-.04-.03-.07-1.54-.07-3.34 0-3.68-.03-3.54.73-3.47l.32.03.03 3.43.02 3.42h-.48c-.27 0-.52-.03-.55-.07ZM37 34.12c0-1.86.02-3.41.05-3.44.03-.02.24-.02.47.01.4.06.43.09.48.4l.05.33.2-.22c.85-.95 2.95-.89 3.65.11l.21.29.25-.29c.83-.99 2.82-1.11 3.84-.23.91.78 1.17 2.26.94 5.5l-.07.92h-.96l-.03-2.38c-.03-2.13-.05-2.41-.23-2.77-.63-1.25-2.41-1.14-3.1.2l-.3.58-.03 2.19-.03 2.18h-.99v-2.42c-.01-3.21-.21-3.68-1.51-3.56-1.43.14-1.83.96-1.87 3.86l-.03 2.12H37zM22.1 37.2c.24-.24.24-.29.04-.58-.29-.41-.84-.23-.84.28 0 .5.44.66.8.3Zm6.13-.13c.75-.37.99-.64.73-.82-.16-.12-.23-.11-.5.1-1.83 1.39-4.26.14-4.26-2.2 0-2.32 2.04-3.64 3.96-2.55.53.3.88.31.82.02-.05-.23-1-.72-1.6-.81-2.34-.38-4.18 1.62-3.69 4 .44 2.09 2.64 3.18 4.54 2.26Zm6.07.01c2.07-.95 2.57-3.82.93-5.4-1.26-1.22-3.49-1.2-4.72.03-1.37 1.37-1.2 3.87.34 5.05.91.69 2.36.83 3.45.32Zm3.42-1.75c.06-3.02.65-4.07 2.28-4.08 1.43 0 1.64.46 1.68 3.63.03 2.21.05 2.43.2 2.4s.18-.27.22-2.03c.07-2.35.15-2.7.8-3.36.91-.95 2.39-.91 3.04.08.37.55.46 1.22.46 3.34v1.89h.52l-.04-2.32c-.04-2.54-.09-2.81-.66-3.41-.99-1.05-2.84-.95-3.78.2l-.37.45-.15-.28c-.66-1.3-2.56-1.43-3.7-.25-.5.52-.5.52-.54-.11-.02-.44-.06-.53-.21-.53-.18 0-.19.17-.2 3.13-.02 3.33-.03 3.22.24 3.22.16 0 .18-.18.21-1.97Zm-29.43-.75c.57-1.45 1.12-2.83 1.22-3.07.24-.56.24-.61-.05-.61-.21 0-.32.22-1.25 2.62-.97 2.5-1.28 3.16-1.37 2.93-.03-.05-.53-1.31-1.12-2.8-1.02-2.55-1.09-2.7-1.35-2.73-.35-.04-.44-.36.94 3.1 1.43 3.57 1.23 3.18 1.62 3.18h.32zm3.31-.54v-3.15l-.22.03-.23.03-.03 3.13-.02 3.12h.5zm4.13 2.7c-1.78-.63-2.36-3.1-1.06-4.54 1.76-1.96 4.93-.75 4.93 1.89 0 2-1.95 3.33-3.87 2.65Zm16.19.03c-.99-.31-1.77-1.49-1.76-2.67.01-3.65 5.14-3.89 5.51-.26.21 2-1.79 3.56-3.75 2.93Zm-13.83-.47c2.25-1.14 1.27-4.75-1.29-4.75-1.54 0-2.55 1.01-2.55 2.55.01 2 1.99 3.15 3.84 2.2Zm15.86.1c1.56-.67 1.94-3.03.68-4.22-1.68-1.59-4.41-.2-4.2 2.13.16 1.8 1.86 2.81 3.52 2.09ZM10.8 29.8c-.3-.3-.27-.83.06-1.09.54-.42 1.18-.13 1.18.54 0 .66-.78 1.01-1.24.55Zm.93-.32c.18-.28-.07-.68-.43-.68-.38 0-.59.35-.4.69.14.27.67.26.83-.01Zm-2.38-3.1c-.03-.07-.06-2.26-.07-4.86l-.03-4.74-.54.43-.54.43.07 2.57c.07 3.04.02 3.42-.55 4.04-.51.55-.89.65-2.53.65H3.8l.02-5.07.03-5.08h4.3l.03.53c.04.65.01.65 1.02-.13l.85-.65h.98c1.12 0 1.14.02.46.58l-.52.42h1.62l.03-.47.03-.48.78-.03.77-.03v1l1.03.03 1.02.03.03.63.03.62H14.3v1.9h2.01l-.03.63-.03.62-1.02.03-1.03.03v1.49h2.11l-.03.68-.03.67-1.04.03c-1.01.03-1.03.03-.97.25.03.12.06.46.06.75v.52h2.01l-.03.58-.03.57-2.67.03-2.67.02-.03.43-.03.42-.73.03c-.52.02-.74-.01-.77-.1Zm9.91-.04c-.17-.44-.06-6.25.12-6.32.23-.09 5.52-.09 5.74 0 .16.07.18.28.18 2.45 0 3.98-.05 4.03-3.83 4.03-1.87 0-2.16-.02-2.21-.16Zm6.59.04c-.03-.07-.04-1.55-.03-3.28l.03-3.15h6.1l.03 2.4c.04 2.98-.08 3.42-1.02 3.93-.42.23-5.03.32-5.11.1Zm-15.23-.6.03-.43 2.68-.03L16 25.3v-.7h-2v-2h2v-.8h-2v-2.1h2v-.8h-2v-2.4h2v-.7h-2v-1h-1.1v1h-1.14c-1.35 0-1.41-.05-.8-.59l.47-.41h-1.31l-.97.75c-1.19.91-1.15.9-1.15.1V15H4.1v9.6h1.28c2.48 0 2.55-.12 2.62-4.23l.05-2.97.69-.55c.37-.3.72-.52.77-.49s.09 2.22.09 4.95v4.89h.99zm13.75.16c.6-.44.63-.64.61-3.29l-.03-2.4-2.72-.03-2.73-.02v6.01l2.29-.03c2.14-.03 2.32-.04 2.58-.24Zm6.6.02c.71-.44.81-.98.76-4.28l-.03-1.48h-5.59l-.03 2.9c-.02 1.6-.01 2.95.01 3.01.07.21 4.5.08 4.88-.15Zm4.43.11c0-.07.34-.98.75-2.01s.75-1.9.75-1.92-.56-.04-1.25-.04H34.4v-1.3h13.5v1.3h-8.98l-.51 1.25c-.29.69-.54 1.32-.57 1.4-.05.13.41.15 3.5.15 4.12 0 3.78.11 3.26-1.12-.41-.97-.39-.99.67-.96l.88.03.34.7c.49 1 .5 1.8.03 2.27l-.32.33-5.4.03c-4.46.02-5.4 0-5.4-.11Zm10.73-.28c.56-.25.61-1.07.14-2.11l-.26-.58H44.6l.16.38c.36.82.49 1.33.38 1.5-.17.26-7.64.31-7.64.06 0-.19.81-2.26 1.11-2.86l.19-.38h8.8v-.83l-1.42.06c-.79.04-3.69.07-6.45.07H34.7v.7h1.25c1.51 0 1.45-.14.69 1.75-.31.77-.65 1.61-.75 1.88l-.19.47h5.1c3.52 0 5.17-.03 5.33-.11ZM20.3 23.26V20.8h3.8v2.14c0 2.13 0 2.15-.24 2.43l-.24.28-1.66.03-1.66.03zm6.7-.01V20.8h3.7v2c0 2.88-.02 2.9-2.3 2.9H27zm-3.34 1.94c.18-.2.25-3.84.07-4.12-.02-.04-.74-.07-1.58-.06-1.84.02-1.65-.26-1.65 2.42v1.97h1.48c1.39 0 1.5-.01 1.68-.21Zm6.49-.04c.25-.24.25-.25.25-2.2V21h-3.1v4.4h1.3c1.26 0 1.32-.01 1.55-.25Zm-18.53-.53-1.02-.03v-2l1.13.03 1.12.03.03.96c.03 1.13.13 1.05-1.26 1.01Zm.98-.97v-.75h-1.7v1.5h1.7zm-7.72-3.72c-.02-2.19-.01-4.04.01-4.11.02-.09.28-.12 1-.1l.96.03.03 3.65c.03 4.51.03 4.5-1.42 4.5h-.55zM6.3 23.5c.36-.19.4-.7.33-4.17L6.57 16H5.1v7.6h.51c.28 0 .59-.05.69-.1Zm4.37-1.76c-.04-.04-.07-.52-.07-1.06v-.98h2.31l-.03 1.03-.03 1.02-1.06.03c-.58.01-1.08-.01-1.12-.04Zm1.93-.99V20h-1.7v1.5h1.7zm21.34-1.09c-.04-.1.02-.23.14-.34.17-.14 2.57-2.12 5.22-4.29l.64-.53h1.16l1.15.01 1.35 1.1c3.08 2.53 4.6 3.83 4.6 3.94 0 .2-.25.25-1.21.25h-.89l-.44-.4-.43-.4h-8.37l-.39.38-.38.37-1.04.03c-.89.03-1.06.01-1.11-.12Zm2.4-.56.43-.4h8.47l.47.4c.47.4.48.4 1.31.4h.83l-.49-.43c-.27-.23-1.55-1.29-2.84-2.34l-2.35-1.93h-2.15l-2.84 2.31c-1.55 1.27-2.85 2.33-2.87 2.35s.33.04.78.04c.81 0 .82 0 1.25-.4Zm-15.8.17c-.02-.07-.03-1.16-.02-2.42l.03-2.3 4.93-.03 4.92-.02v1.8c0 2.23-.2 2.7-1.28 3-.58.16-8.51.14-8.58-.03Zm8.92-.43c.65-.48.69-.61.72-2.4l.04-1.64H20.8v4.31l4.19-.03c4.06-.03 4.2-.04 4.47-.24Zm-18.84-1.11.03-1.18h2.2l.03 1.18.03 1.17h-2.32zm1.98-.03v-.9h-1.7v1.8h1.7zm9.1-.85V15.3l3.68.02 3.67.03.03 1.26.03 1.27-.31.26-.32.26H21.7zm6.96 1.04c.16-.18.19-.37.19-1.23v-1.01l-3.47-.03-3.48-.02v2.5h3.28c3.22 0 3.29 0 3.48-.21Zm9.04.08c0-.13 2.98-2.63 3.26-2.74.25-.09 3.35 2.35 3.42 2.7.03.16-.21.17-3.32.17-2.68 0-3.36-.03-3.36-.13Zm6.14-.26c-.32-.31-2.61-2.14-2.72-2.18-.07-.03-.25.06-.4.19-.15.14-.78.67-1.4 1.17l-1.14.91h2.88c1.71 0 2.84-.04 2.78-.09Z"/></svg>