<svg xmlns="http://www.w3.org/2000/svg" width="51" height="51" viewBox="0 0 51 51"><path fill="#fff" fill-rule="evenodd" stroke="#fff" stroke-width=".449" d="M7.38 50.95C3.77 49.96.66 46.67.15 43.32c-.03-.2.06.01.2.48 1.14 3.82 3.68 6.14 7.95 7.29.19.05.26.09.15.09s-.59-.1-1.07-.23Zm35.13.21c.03-.03.37-.12.77-.21 3.47-.73 6.46-3.51 7.46-6.95.28-.95.35-.92.1.04-.78 3.03-3.51 5.8-6.69 6.78-.78.25-1.75.44-1.64.34ZM16.7 35.07c0-.79.13-1.07.48-1.07.56 0 1.12-.73 1.12-1.45v-.35h-.73c-1.2-.01-1.92-.4-2.43-1.32-.29-.53-.29-.53-.32-2.54-.04-2.38-.06-2.34.91-2.34 1.08 0 1.07-.01 1.07 2.16 0 2.15.05 2.28.83 2.22.62-.05.67-.2.67-2.35 0-2.1-.03-2.03.98-2.03.95 0 .9-.2.94 3.8.03 3.12.01 3.5-.15 3.97-.39 1.1-1.47 1.9-2.72 2.01l-.65.05zm1.37.28c.56-.17 1.35-.8 1.6-1.28.27-.54.33-1.54.26-4.69l-.06-3.08H18.6v1.68c0 2.29-.16 2.72-.98 2.72-.95 0-1.06-.24-1.12-2.49l-.05-1.85-.33-.08c-.17-.05-.47-.05-.65 0l-.32.08-.03 1.91-.02 1.9.28.54c.43.83.99 1.13 2.16 1.18 1.05.04 1.09.07 1.01.81-.1.86-.45 1.3-1.27 1.6-.26.09-.28.14-.28.65 0 .64.12.68 1.07.4ZM5.44 32.16c-.17-.46.01-4.42.23-4.82.66-1.23 2.26-1.74 3.71-1.16l.53.2.46-.2c1.2-.53 2.81-.11 3.4.89l.28.48.03 2.23c.04 2.64.08 2.52-.93 2.52-1.14 0-1.05.18-1.05-2.15 0-2.27-.02-2.35-.66-2.35-.69 0-.74.15-.74 2.35 0 2.26.05 2.15-1.07 2.15-.97 0-.91.13-.95-2.19-.03-2.21-.06-2.31-.65-2.31-.54 0-.6.2-.65 2.35-.04 1.54-.08 1.99-.19 2.06-.24.15-1.69.11-1.75-.05Zm18.03.04c-2.38-.6-3.21-3.48-1.52-5.29.88-.94 2.29-1.25 3.48-.76.16.07.17-.04.17-1.38 0-1.06.03-1.47.13-1.55.25-.21.91-.25 1.31-.08l.37.15-.03 3.28-.03 3.28-.33.67c-.63 1.29-2.18 2.02-3.55 1.68Zm4.6.03c-.18-.17-.07-8.92.11-9.01.5-.26 1.44-.2 1.64.1.17.27.1 8.85-.08 8.92-.21.08-1.59.08-1.67-.01Zm2.56-.08c-.17-.45-.08-5.84.1-6.02.22-.23 1.35-.26 1.6-.04.22.17.26 5.88.05 6.09-.19.19-1.67.16-1.75-.03Zm2.66-.13c-.15-.37-.06-3.85.11-4.32.86-2.35 4.32-2.37 5.16-.03.09.27.13.98.14 2.45v2.08l-.23.05c-.12.03-.54.05-.92.03l-.7-.03-.06-2.05c-.03-1.13-.06-2.06-.07-2.07s-.09-.09-.18-.17c-.08-.09-.32-.16-.52-.16-.76 0-.82.18-.82 2.48 0 2.18.09 2.02-1.06 2.02-.72 0-.75-.01-.85-.28Zm6.23.16c-.09-.09-.12-1.22-.12-4.45V23.4l.26-.17c.31-.2 1.08-.22 1.42-.04.22.12.22.12.22 2.71 0 2.55.03 2.8.27 2.4.07-.1.53-.67 1.03-1.25l.91-1.05h.79c1.39 0 1.39.04-.09 1.83-.58.7-1.07 1.31-1.09 1.36-.01.04.47.68 1.08 1.41 1.4 1.68 1.41 1.7.03 1.7-.87 0-.78.07-2.16-1.58l-.72-.85-.03 1.13c-.02.76-.07 1.17-.15 1.22-.2.13-1.52.09-1.65-.04ZM7.1 30.05c.06-2.15.13-2.39.73-2.5.98-.19 1.17.25 1.17 2.65v1.81l.68-.03.67-.03.05-1.9c.05-2.03.11-2.28.56-2.45.47-.18.84-.12 1.15.19l.29.29V32h1.4v-2.07c-.01-2.64-.11-2.98-1.05-3.45-.57-.3-1.77-.29-2.39.02l-.46.22-.43-.21c-1.39-.66-3.12-.14-3.61 1.1-.18.44-.36 3.89-.23 4.23.06.14.19.16.74.14l.68-.03zm18.47 1.6c.56-.28.91-.64 1.26-1.29.21-.39.22-.53.25-3.68l.03-3.26-.3-.07c-.17-.04-.44-.04-.6 0l-.28.06-.05 1.55c-.06 1.75-.05 1.71-.48 1.49-1.56-.81-3.68.31-4.02 2.11-.44 2.4 1.96 4.17 4.19 3.09Zm4.03-3.9V23.5l-.27-.11a1.2 1.2 0 0 0-.63-.02l-.35.09-.03 4.27L28.3 32h1.3zm2.6 1.4v-2.84l-.36-.07c-.19-.03-.5-.02-.67.03l-.32.09-.01 2.14c0 1.18.01 2.45.04 2.83l.04.67h1.28zm2.7 1.18c0-2.33.2-2.83 1.1-2.83s1.1.5 1.1 2.83V32h.65c.81 0 .8.05.73-2.24-.07-1.99-.17-2.36-.84-2.95-1.2-1.06-3.12-.71-3.85.7-.21.4-.23.61-.27 2.31-.05 2.3-.09 2.18.73 2.18h.65zm6.1.58c0-1.8.04-1.8 1.44-.16L43.51 32h.76c.69 0 .74-.01.62-.17-.08-.09-.58-.68-1.11-1.32-.54-.64-.98-1.22-.98-1.29 0-.06.49-.72 1.1-1.45.6-.72 1.1-1.35 1.1-1.39 0-.05-.31-.08-.7-.08h-.69l-.88 1.03c-.48.56-1.02 1.2-1.2 1.42-.17.22-.35.36-.4.32-.04-.05-.09-1.34-.11-2.87l-.03-2.78-.32-.06c-.18-.03-.45-.02-.62.02l-.3.08-.03 4.27L39.7 32H41zm-17.59-.43c-1.38-.94-.82-3.08.81-3.08 1.58 0 2.17 2.06.86 3.03-.43.32-1.25.34-1.67.05Zm1.7-.47c.65-.65.5-1.85-.26-2.17-1-.41-1.95.19-1.95 1.24 0 1.23 1.35 1.79 2.21.93Zm6.01-4.77c-.33-.13-.52-.41-.52-.73 0-.77.88-1.19 1.44-.68.76.66.01 1.81-.92 1.41Zm.61-.25c.59-.32.42-1.09-.24-1.09-.6 0-.82.81-.29 1.07.31.15.27.15.53.02ZM8.7 24.57c0-.13.57-.47 3.65-2.19l1.5-.84.05-2.5c.03-1.37.07-2.5.08-2.52.01-.01 1.27-.01 2.8 0l2.77.03.03.93c.01.5.04.92.06.92s.59-.31 1.27-.68c.68-.38 2.05-1.13 3.03-1.67l1.79-.98.71.36c.39.2 3.27 1.75 6.41 3.44l5.7 3.08.03 1.19c.01.66-.01 1.23-.06 1.28-.08.08-3.07-1.48-9.94-5.18-1.47-.79-2.72-1.44-2.79-1.44-.1 0-1.88.93-6.48 3.41-.8.43-1.48.76-1.53.73-.04-.03-.08-.84-.08-1.8V18.4h-1.93l.04 2.32.04 2.33-1.4.82-1.4.81-2.17.01c-1.75.01-2.18-.02-2.18-.12Zm5.56-.91 1.29-.75.01-2.25c.01-1.24.04-2.32.08-2.41.05-.13.23-.15 1.18-.13l1.13.03.05 1.72.05 1.71 3.15-1.69c1.73-.93 3.48-1.86 3.87-2.06l.73-.37.77.41c.43.22 3.23 1.72 6.23 3.32l5.45 2.91.09-.91c.07-.73.06-.93-.05-1.04-.13-.12-11.71-6.38-12.32-6.66-.23-.11-4.17 1.91-6.18 3.17-.48.3-.49.28-.49-.88v-.98h-5.1v4.9l-.47.24c-.27.13-1.38.74-2.47 1.35l-2 1.11h3.7zM.11 7.96c-.01-.33.59-1.99 1-2.74C2.51 2.61 5.61.36 8.08.15l.57-.04-.48.09C4.4.89 1.52 3.55.34 7.4c-.13.41-.23.67-.23.56Zm50.75-.41c-.66-3.48-4.1-6.66-8.01-7.4-.77-.14-.78-.15-.18-.09 2.48.21 5.26 1.93 6.82 4.22.75 1.11 1.61 3.16 1.49 3.54-.03.07-.08-.05-.12-.27Z"/></svg>