<svg xmlns="http://www.w3.org/2000/svg" width="51" height="51" viewBox="0 0 51 51"><path fill="#fff" fill-rule="evenodd" stroke="#fff" stroke-width=".544" d="M6.56 50.77c-1.05-1.78-1.96-4.3-2.46-6.81l-.12-.58-.37.36c-.43.42-.73.46-1.3.16-.8-.4-2.31-2.49-2.31-3.18.01-.21.09-.11.43.53 1.16 2.2 2.44 3.17 3.02 2.29.09-.14.28-.3.43-.35l.27-.1-.31-.27c-1.72-1.48-3.37-9.61-1.91-9.4.35.05.47.45.47 1.51 0 1.7.39 3.59 1.11 5.4.53 1.33.51 1.3.66.62.23-1 .84-2.11 1.65-3.01 1.95-2.14 2.54-2.96 2.61-3.57.03-.32.17-.82.31-1.14.23-.5.25-.58.12-.72-.35-.39-.59-1.15-.6-1.93l-.02-.78-.49-.31c-.28-.17-.68-.46-.9-.63l-.39-.31H5.15c-2.42 0-3.82-1.27-3.93-3.56-.15-3.06 2.31-3.79 5.5-1.65.62.43.64.42.44-.24-.54-1.83-.41-2.21 1.34-3.95l1.2-1.2v-.53c0-.77-.28-3.22-.51-4.37-.28-1.44-.14-1.91.5-1.7.39.12 1.73 2.25 2.42 3.85.18.41.34.77.36.79.01.02.42-.15.9-.39 2.12-1.03 3.64-1.44 6.91-1.86l.44-.05-.07-.52c-.19-1.44-.78-3.56-1.3-4.7-.36-.76-.26-1.17.27-1.17.62 0 2.51 2.98 3.49 5.52l.34.86.6.12c.33.06.93.2 1.33.31.41.11.77.18.8.14.18-.17.05-3.4-.16-4.16-1.37-5.01-6.71-8.18-11.17-6.64-.74.26-.84.27-1.25.15C8.94 2.3 3.68 4.25.58 8.43c-.37.5-.54.66-.56.54-.05-.23.63-1.12 1.63-2.13 3.12-3.17 7.74-4.62 11.49-3.6l.89.24.67-.23c4.73-1.61 10.18 1.6 11.56 6.8.19.72.29 4.34.12 4.5-.04.04-.51-.04-1.05-.19-.54-.14-1.22-.32-1.52-.39l-.54-.12-.52-1.25c-.84-2.04-1.87-3.84-2.74-4.77-.6-.65-.8-.33-.4.62.66 1.57 1.29 3.99 1.29 4.99 0 .53.1.48-1.45.66a18.5 18.5 0 0 0-5.97 1.72c-.61.29-1.13.48-1.15.42-.46-1.37-2.42-4.64-2.79-4.64-.34 0-.36.1-.19.97.31 1.6.45 2.72.52 4.05l.06 1.36-1.34 1.41c-.73.77-1.37 1.49-1.41 1.61-.1.28.08 1.66.33 2.46.26.85.24.86-.68.25-3.09-2.06-5.23-1.74-5.41.8-.17 2.44 1.73 4.15 4.2 3.79l.78-.11.43.34c.23.19.71.53 1.07.76l.65.4-.04.7c-.03.83.16 1.51.58 2.01l.28.34-.28.4c-.2.28-.32.64-.41 1.16-.13.79-1.04 2.08-2.89 4.07-2.21 2.39-1.99 6.49.62 11.6.64 1.26.63 1.23.49 1.23-.05 0-.2-.19-.34-.43Zm.8.1c-2.76-4.74-3.36-9.7-1.46-12 2.19-2.63 8.59.65 11.07 5.68.64 1.28.58 1.5-.39 1.59-2.74.25-4.79 1.79-5.94 4.44-.45 1.05-.79.9-2.56-1.18-.65-.77-1.77-2.31-2.24-3.1-.39-.64-.41-.63-.15.12.37 1.07 1.14 2.22 2.56 3.81.48.54.8.97.72.97-.18 0-1.4-1.29-2.05-2.17-.25-.35-.47-.61-.49-.59-.05.05.8 1.75 1.13 2.28.28.43.29.48.12.48-.07 0-.21-.15-.32-.33Zm3.54.26c0-.04.21-.5.46-1.03 1.01-2.08 2.67-3.19 5.31-3.54l.43-.06.62.77c.88 1.08 1.9 2.25 2.77 3.15.42.45.67.78.58.78-.2 0-1.94-1.84-3.1-3.27-1.03-1.27-.96-1.24-2.22-.98-1.97.42-3.59 1.75-4.32 3.55-.23.57-.53.93-.53.63Zm9.87-1.06c-1.71-1.71-3.2-3.62-3.06-3.89.45-.83-.9-3.29-2.9-5.28-2.08-2.08-4.38-3.26-6.58-3.38-.51-.02-.93-.08-.93-.13 0-.06.27-.41 1.41-1.82.16-.2.17-.2.78.21.64.42 1.34.72 2.36 1 .6.17 3.59.24 4.8.12l.5-.05.5 1c.28.55 1.08 2.26 1.79 3.8 3.58 7.76 4.52 9.07 6.76 9.44l.55.09-.63.01c-2.09.04-3.26-1.56-6.82-9.3-.66-1.41-1.44-3.08-1.75-3.69l-.56-1.11-.67.08c-2.74.33-5.74-.2-7.1-1.28l-.27-.21-.33.39c-.19.21-.47.54-.63.74l-.28.36.87.12c3.55.5 7.17 3.3 8.98 6.96.44.89.56 1.44.4 1.92-.1.29 1.16 1.87 2.93 3.66.88.88 1.3 1.37 1.18 1.37-.1 0-.68-.51-1.3-1.13Zm6.63 1.07c3.03-.34 5.04-1.38 8.32-4.28.68-.61 1.31-1.16 1.4-1.24.16-.13.2-.13.38.03 1.07.97 3.44-.87 5.29-4.11 1.63-2.83 1.84-5.19.62-6.99l-.38-.57.21-.39c.26-.48.25-.48 1.16.04 1.12.63 1.25 1.05 1.25 3.91v2.1l.3.17c.4.24 1.39.49 1.92.49.57 0 .57.01.19 1.26-.62 2.04-2.57 6.13-3.3 6.91-.01.01-.21-.04-.44-.12-.98-.34-2.25.35-3.8 2.09-.8.89-1.12 1-.46.16 1.48-1.88 3.26-2.89 4.39-2.48.46.17 2.51-3.81 3.35-6.49.33-1.07.32-1.13-.31-1.13-.52 0-1.39-.28-1.78-.57l-.33-.26.07-1.66c.1-2.68-.15-3.6-1.12-4.15-.77-.43-.77-.42-.9-.13-.09.19-.04.33.29.87 1.04 1.72.97 3.58-.23 6.1-1.73 3.63-4.57 6.15-5.93 5.26-.31-.2-.12-.33-1.98 1.33-2.9 2.59-5.24 3.8-7.43 3.86-.6.02-.94.01-.75-.01Zm13.1-.03c0-.25 1.69-1.79 2.3-2.09 1.07-.54 1.82-.35 1.51.37-.22.49-1.16 1.81-1.29 1.81-.15 0-.16.01.51-.97 1.21-1.79-.12-1.73-1.98.09-.86.85-1.05.99-1.05.79Zm3.26-.03c.04-.07.19-.31.34-.53s.52-.78.83-1.25c1.52-2.34 2.77-3.03 2.77-1.54 0 .91-1.08 3.44-1.47 3.44-.17 0-.16-.07.06-.38.34-.49.91-1.71 1.06-2.29.56-2.15-.63-1.53-2.48 1.3-.5.75-.96 1.37-1.04 1.37-.09 0-.11-.05-.07-.12Zm3.14.07c0-.02.14-.27.3-.56 1.4-2.37 1.24-4.46-.31-3.96-.62.19-.64.16-.24-.56 1.71-3.13 2.57-6.1 2.6-9.02l.02-2 .64-.06c.35-.03.79-.09.98-.13.26-.06.32-.05.29.05-.05.14-.38.23-1.2.34l-.48.06v1.66c0 2.73-.71 5.37-2.31 8.55-.22.43-.39.79-.39.81 0 .01.18.01.4-.01 1.42-.14 1.6 1.79.37 4.11-.33.62-.67.99-.67.72Zm-36.29-1.03c1.23-2.55 3.6-4.22 6.01-4.22.59 0 .63-.22.22-1.1-1.69-3.64-5.9-6.72-8.98-6.58-1.7.07-2.72 1.48-2.83 3.89-.12 2.5 1 4.72 4.11 8.12.98 1.07.91 1.07 1.47-.11Zm15.19.45c-1.68-.48-2.62-1.89-5.65-8.47-2.54-5.53-2.77-5.95-3.42-6.36-.76-.49-1.89-1.01-3.58-1.63-3.37-1.25-4.18-1.96-4.19-3.61-.01-1.39.43-1.74 1.83-1.46 1.45.3 3.94 1.2 4.63 1.68 1.04.74 2.25 1.14 2.16.72-.02-.09-.34-.27-.75-.44-1.27-.49-1.97-1.14-2.22-2.04-.3-1.13.38-1.21 1.86-.22.8.54 1.5.79 2.97 1.05 1.69.31 2 .76 2.14 3.16l.08 1.33.63 1.04c.81 1.35 2.45 3.6 3.79 5.22.59.71 1.16 1.4 1.26 1.54l.2.25-.27.21c-.28.22-.37.56-.15.56.25 0 1.84-1.11 3.53-2.45 1.4-1.11 1.33-1.08 1.92-.9 1.54.46 4.18 2.97 4.81 4.58l.16.4-.39.31c-.21.17-.92.78-1.58 1.36-2.56 2.27-4.47 3.47-6.37 4-.94.27-2.75.36-3.4.17Zm3.36-.42c1.89-.54 3.56-1.56 5.77-3.51.61-.55 1.37-1.21 1.69-1.47.69-.58.7-.65.17-1.48-1.08-1.67-3.04-3.36-4.3-3.7l-.46-.12-.74.59c-1.98 1.6-3.77 2.84-4.1 2.84-.51 0-.59-.39-.18-.85.18-.21.17-.23-.78-1.35-1.79-2.13-3.93-5.13-4.63-6.5-.19-.37-.24-.68-.3-1.8-.12-2.24-.3-2.48-2.11-2.81-.62-.11-1.39-.3-1.7-.43l-.56-.22-.21.64-.21.64.37.14c.89.34 1.16.71.77 1.04-.28.24-1.64-.28-2.54-.96-.61-.47-3.87-1.55-4.89-1.62l-.73-.05.16.39c.5 1.22 1.73 2.18 3.3 2.59.67.17.71.19.78.46.3 1.13-2.55.2-4.04-1.32-.54-.56-.64-.46-.28.27.4.83 1.12 1.28 3.58 2.21 1.74.66 3.5 1.48 4.07 1.91.51.37.96 1.22 3.19 6.07 3.68 8 4.37 8.84 7.16 8.7a9.3 9.3 0 0 0 1.75-.3Zm8.92-4.76c-.13-.07-.18-.23-.18-.57-.01-1.98-3.76-5.47-6.02-5.6l-.78-.05v-.34c0-.56.24-.96 1.12-1.89.46-.49 1.36-1.48 2-2.2 1.66-1.87 2.1-2.18 3.45-2.5 3.15-.74 6.48 2.38 6.02 5.62-.45 3.2-4.28 8.33-5.61 7.53Zm1.03-.5c2.01-1.29 4.22-5.06 4.36-7.44.18-3.12-3.02-5.72-6.04-4.9-.94.25-1.64.78-2.78 2.07-.55.62-1.44 1.59-1.98 2.16-1.34 1.4-1.67 2.12-.99 2.12 2.26 0 6.42 3.75 6.46 5.82.01.6.24.64.97.17Zm-37-2.04c-.85-.81-2.11-3.2-2.1-4 0-.22.11-.02.43.75 1.04 2.49 2.12 3.84 2.68 3.33.28-.25.35-.06.08.22-.33.35-.44.32-1.09-.3ZM4 42.31c0-.15-.16-.62-.35-1.04-.89-1.92-1.43-4.16-1.52-6.25-.05-1.18-.08-1.32-.24-1.32-.85 0 .04 5.01 1.41 7.88.49 1.03.7 1.25.7.73Zm23.33-.98c-1.53-1.74-3.84-4.84-4.73-6.36l-.51-.87-.09-1.32c-.09-1.35-.22-1.88-.62-2.6-.14-.24-.19-.42-.12-.46.05-.04.43-.3.84-.58.41-.29 1.04-.75 1.39-1.03.96-.77.95-.83.51 1.64-.48 2.76-.55 2.58 2.19 6.09 2.17 2.78 3.31 4.47 3.31 4.92 0 .21-1.23 1.24-1.48 1.24-.05 0-.37-.3-.69-.67Zm1.39-.08c.43-.34.56-.49.51-.62-.24-.66-1.76-2.8-3.79-5.38-1.01-1.27-1.83-2.52-1.95-2.97-.09-.35.32-3.39.58-4.23.04-.13-.08-.07-.41.22-.25.22-.84.66-1.31.97-.96.64-.92.58-.65 1 .3.5.5 1.4.57 2.61.07 1.27.13 1.43 1.2 3.05 1.34 2.03 4.32 5.8 4.57 5.8.06 0 .37-.2.68-.45Zm1.13-.95c-.09-.3-1.33-2.15-2.26-3.38-.53-.71-.77-1.11-.73-1.21.72-1.68.17-5-1.42-8.5-.41-.89-.41-.8-.05-1.38.16-.27.44-.89.61-1.4.31-.89.33-.91.68-.98.71-.13 1.72-.75 1.72-1.06 0-.25.03-.25-.85.21-1.05.55-1.11.54-1.17-.22-.03-.35-.13-.88-.23-1.18l-.17-.56.26-.38c.6-.89.74-2.14.72-6.46-.02-3.66-.18-4.41-1.33-6.42-.49-.86-.49-.86.11-1.68 1.32-1.78 3.61-3.28 5.79-3.8 1.44-.34 3.99-.45 4.34-.18.07.06.46 0 1.05-.16 3.84-1.04 8.44-.33 11.61 1.79 1.12.74 2.67 2.35 2.67 2.76 0 .14-.18-.02-.59-.55-2.77-3.48-8.45-5.08-13.53-3.8-.85.22-1.08.24-1.34.15-.7-.25-3.18-.07-4.62.35-2 .58-4.04 2-5.18 3.6-.53.75-.53.66-.04 1.5 1.13 1.92 1.3 2.86 1.3 6.98 0 4.09-.12 5.12-.73 6l-.24.36.18.53c.1.28.18.74.19 1.01 0 .57.18.58 1.01.05.57-.36.86-.37 1.01-.04.19.42-.51 1.01-1.6 1.35-.55.17-.56.18-.7.68l-.14.51.46.65c1.28 1.79 2.9 2.49 5.64 2.44l1.37-.03.11-1.61c.15-2.11.36-3.41.89-5.53.47-1.85.58-2.07.98-1.97.39.09.39.26-.03 1.99-1.11 4.55-1.17 7.55-.24 11.04l.17.62.61-.31c.33-.17.85-.39 1.15-.48l.53-.17-.01-1.14c-.01-1.2.09-1.61.42-1.67.32-.06.47.17.47.73 0 .28.03.86.06 1.27l.07.75.86.22c1 .24 1.7.57 2.43 1.12l.53.4.13-.53c.24-.98.1-2.29-.49-4.53l-.52-2-.01-1.95c-.01-2.62.23-3.8.79-3.8.44 0 .5.22.32 1.23-.39 2.21-.3 3.71.38 6.46.44 1.78.67 3.27.62 4.1l-.02.44.65.38c.71.41 2.19 1.03 2.27.95.36-.36.53-3.32.28-4.85-.21-1.24-.18-1.41.24-1.41.77 0 1.13 3.2.63 5.55-.12.54-.2 1-.19 1.01.1.1 1.53.21 1.63.13.74-.61 1.29-3.77.89-5.12-.19-.65-.11-.87.31-.87.91 0 .91 3.66-.01 5.73-.07.17-.04.18.29.12.23-.05.36-.03.36.03 0 .15-.11.2-.6.28-.5.08-.5.08-.05-1.11.7-1.84.69-4.85-.01-4.85-.18 0-.18.14.02.92.44 1.69-.51 5.18-1.41 5.18-1.02 0-1.77-.22-1.7-.49.32-1.25.39-1.78.39-3.16.01-2.02-.28-3.44-.64-3.09-.08.08-.07.33.07.95.31 1.47.18 3.95-.27 5.13-.12.33-.59.21-2.15-.58l-1.2-.61-.06-1.3c-.07-1.36-.11-1.6-.64-3.7-.58-2.26-.71-4.26-.39-5.9.22-1.11.22-1.29.02-1.33-.12-.02-.2.07-.27.36-.59 2.17-.51 4.22.26 7.2.51 1.95.65 3.9.35 4.9-.16.52-.15.51-.82.01-.95-.71-2.12-1.2-3.15-1.31-.38-.04-.43-.22-.44-1.65-.01-1.06-.02-1.13-.21-1.13-.23 0-.25.1-.25 1.69v1.04l-.72.22c-.39.12-.96.36-1.27.54-.74.41-.68.46-.99-.77-.87-3.56-.81-6.27.24-10.7.44-1.84.45-1.92.24-1.92-.46 0-1.42 4.64-1.53 7.44l-.07 1.61-.65.08c-2.91.36-5.38-.56-6.86-2.55-.37-.51-.42-.55-.48-.35-.16.63 1.26 2.08 2.69 2.73.3.14.55.27.55.29 0 .01-.16.29-.35.61-.99 1.64-1 3.72-.03 4.61.23.22.34.23 2.29.27 2.19.05 2.99.13 2.99.29s-.97 1.32-2.13 2.54c-1.35 1.43-1.7 2.39-1.12 3.03.15.16.13.2-.26.54-.48.41-.65.45-.74.16Zm.7-.64c-.37-1.18-.1-1.84 1.47-3.52.63-.66 1.28-1.39 1.46-1.61l.32-.4-.68-.09c-.37-.04-1.44-.08-2.37-.08-2.01-.01-2.04-.02-2.55-.97-.6-1.11-.45-2.75.39-4.17l.29-.49-.62-.3c-.84-.42-1.59-1.03-2.1-1.72l-.42-.58-.22.33-.21.33.33.73c1.44 3.13 2.11 6.53 1.62 8.2l-.16.56.82 1.09c.69.91 1.21 1.67 2.04 3.01.2.3.7.03.59-.32Zm16.67.13c-.24-.04-.6-.16-.8-.26l-.37-.18.05-.65c.09-1.19.03-2.84-.14-3.54-.2-.85-.28-.8.85-.52.52.13 1.15.27 1.41.31.6.09.61.12.61 1.95 0 2.86-.17 3.18-1.61 2.89Zm1.27-.94c.27-1.81.13-3.65-.28-3.66-.14 0-.66-.11-1.16-.23-1.05-.27-1.01-.28-.83.21.09.27.13.94.13 2.26v1.88l.4.1c.22.05.45.12.5.14.06.02.33.04.61.04l.52.01zm-35.84-2.34c-2.21-.36-3.64-1.24-3.51-2.18.16-1.17.4-1.27 1.69-.7.56.25 1.56.66 2.22.9 2.32.85 3.73 1.62 3.48 1.88-.15.15-3.1.22-3.88.1Zm3.54-.27c.1-.09-1.92-1.01-3.64-1.64-.77-.29-1.7-.68-2.07-.86l-.67-.34-.2.27c-.12.14-.21.33-.21.42s-.03.25-.06.37c-.18.68 1.68 1.61 3.71 1.84.65.08 3.05.03 3.14-.06Zm9.73-1.52c-1.87-2.25-1.89-2.33-1.42-5.15.4-2.34.4-2.35.88-1.29.85 1.9 1.36 4.15 1.3 5.78-.04 1.35-.12 1.42-.76.66Zm.53-1.3c-.09-1.44-.34-2.52-1.07-4.5-.17-.45-.33-.81-.35-.79-.06.06-.63 3.46-.63 3.74 0 .35.23.75 1.14 1.96.95 1.28 1.02 1.24.91-.41Zm7.4.01c-1.21-.14-1.14-.11-1.26-.56-.1-.37-.09-1.88.02-2.26.07-.25-.29-.24-.43.01-.11.21-.16 1.86-.06 2.41.03.18-.07.19-1.47.2l-1.49.02-.23-.34c-.71-1.05-.43-3.02.59-4.25l.24-.28.79.12c.44.07 1.4.11 2.14.09l1.35-.04.13.95c.08.52.29 1.55.47 2.27.43 1.72.39 1.81-.79 1.66Zm.85-.35c0-.07-.11-.51-.24-.98s-.31-1.3-.4-1.85c-.1-.55-.19-1.1-.22-1.22-.04-.22-.08-.22-1.52-.22-.81 0-1.68-.04-1.95-.09-.46-.09-.48-.08-.74.22-.85 1-1.12 2.82-.56 3.76.22.37.16.36 1.58.32l1.2-.04v-1.06c0-1.49.27-2.03.86-1.72.19.11.2.16.13.58-.26 1.38-.08 2.29.44 2.35.88.09 1.42.07 1.42-.05Zm-21.2-.37c0-.15-.11-.22-.52-.31-1.33-.28-2.91-1.4-3.41-2.41l-.25-.5-.07.31c-.18.84 1.37 2.26 3.18 2.9.71.25 1.07.26 1.07.01Zm3.01-2.85c.06-.3.09-.6.07-.68-.08-.19-1.29-.88-1.55-.88-.67 0 .12 1.6 1.02 2.08.27.14.32.09.46-.52Zm3.34-.43c-1.91-.39-2.19-.48-2.73-.82-2.26-1.4-3.08-1.35-3 .18.04.82.1.81-1.68.25-2.05-.63-2.95-.7-3.46-.25-.2.17-.39.31-.43.31-.12 0-1.39-.86-1.69-1.15l-.29-.27-.74.12c-2.36.41-3.95-.82-3.96-3.05-.02-2.41 1.76-2.63 4.82-.6 1.64 1.09 1.88.97 1.32-.71-.16-.49-.33-1.21-.36-1.6l-.07-.72L9 19.66l1.43-1.46-.06-1.33c-.07-1.44-.37-3.47-.63-4.15-.62-1.67 1.1 1.25 1.96 3.31.42 1 .41 1 1.7.33 1.95-1.02 4.57-1.74 7-1.93l.95-.08.03-.39c.08-.96-.61-3.93-1.1-4.74-.15-.24-.16-.32-.06-.32.29 0 1.53 2.33 2.24 4.19.47 1.23.53 1.31.99 1.31.5.01.52.06.57 1.6.07 2.06.21 2.5 1.56 5.05 1.03 1.93-.48 5.44-3.14 7.3-.38.27-.92.66-1.21.87s-.56.37-.6.37c-.04-.01-.4-.08-.78-.16Zm1.78-.8c2.3-1.53 3.51-3.15 3.93-5.22.23-1.18.16-1.52-.71-3.26-.88-1.77-1.05-2.46-1.05-4.24v-1.2l-.37-.07c-.64-.11-.77-.25-1.11-1.25-.34-.97-1.16-2.73-1.07-2.29.24 1.16.35 2.1.33 2.72l-.03.72-1.5.17c-2.79.32-4.7.88-6.87 2.03-1.21.63-1.15.67-1.88-1.01-.48-1.12-.99-2.1-1-1.93 0 .03.07.54.15 1.15s.15 1.62.15 2.25v1.16l-.41.39c-.23.22-.85.87-1.38 1.45l-.98 1.06.08.73c.05.41.23 1.16.41 1.66.61 1.74-.01 1.93-1.93.59-2.54-1.78-4.29-1.58-4.29.49 0 2.24 2.12 3.56 4.33 2.71.08-.03.38.16.68.41.3.26.73.58.96.71l.41.25.37-.26c.64-.43 1.51-.37 3.46.21 1.75.53 1.63.52 1.56.09-.26-1.6 1.21-1.94 2.96-.69.72.52 2.4 1.04 3.66 1.13.07.01.59-.29 1.14-.66Zm-3.83-.72c-1.41-.43-2.53-2.56-1.56-2.96.66-.28 4.46-.46 5.03-.24.71.27.53 1.26-.44 2.3-.8.86-1.99 1.21-3.03.9Zm2.13-.44c.99-.58 1.86-2.1 1.42-2.47-.27-.22-4.44-.09-5.09.16-.38.14.03 1.32.68 1.97.7.7 2.1.86 2.99.34Zm-1.98-.19c-.9-.32-1.73-1.65-1.13-1.82.56-.15 4.18-.2 4.18-.05-.02 1.19-1.82 2.3-3.05 1.87Zm1.52-.29c.48-.18 1.23-1.07 1.23-1.45 0-.07-2.65.03-3.38.13-.48.06-.51.16-.19.64.48.72 1.47 1.01 2.34.68Zm11.24-3.15c-2.73-.96-1.16-4.28 1.76-3.74.96.17 1.71.8 1.37 1.14-.22.22-.37.21-.25-.03.35-.64-1.52-1.16-2.73-.75-2.44.83-1.06 3.91 1.44 3.24.89-.24 1.2-1.8.48-2.47-.93-.87-3 .21-2.46 1.27.29.55 1.64.83 2.01.42.19-.21.23-.78.06-.84-.08-.03-.09-.16-.04-.43.07-.34.09-.36.13-.15.02.14.07.3.12.35.36.48.1 1.29-.47 1.44-1.85.47-2.97-1.5-1.31-2.33 1.48-.74 2.68-.03 2.55 1.51-.11 1.36-1.14 1.9-2.66 1.37Zm-20.13-.85c-.42-.24-.12-1.27.54-1.83 1.35-1.16 4.95-.64 4.14.6-.16.23-.19.24-.99.18-1.34-.1-2.27.16-2.94.82-.36.36-.47.4-.75.23Zm.68-.5c.52-.56 1.03-.72 2.52-.77 1.16-.04 1.32-.06 1.32-.21 0-1.15-3.38-1-4.16.19-.58.87-.33 1.48.32.79Zm9.91-1.71c-1.24-1.24-1.57-3.84-.56-4.39.29-.15 1.08-.16 1.36-.01.54.29 1.14 1.87 1.12 2.97v.6l-.69.5c-.83.6-.93.63-1.23.33Zm1.12-.55.64-.48-.06-.65c-.08-.9-.48-1.98-.88-2.34s-1.2-.34-1.51.03c-.54.67-.19 2.58.66 3.59.36.41.39.41 1.15-.15Zm3.05-.58c-.62-1.07-1.01-2.98-.88-4.31.07-.68.11-.71.62-.53l.31.11-.35.62c-.35.64-.41 1.1-.25 1.81l.07.3.08-.35c.18-.78.47-1.6.62-1.75.13-.13.14-.18.04-.31-.2-.23-.03-.29.43-.14l.42.15.03 1.2c.04 1.41-.11 2.63-.4 3.23-.25.54-.41.53-.74-.03Zm3.31.05c-.62-.69.13-2.1 1.29-2.41 1.18-.32 3.26.42 3.26 1.17 0 .43-.21.48-1.33.34-1.47-.18-1.96-.03-2.43.72-.27.42-.52.48-.79.18Zm-9.76-.47c-.61-1.03-1.51-1.33-3.38-1.14-1.23.13-1.41.08-1.41-.34 0-.34.19-.44 1.06-.56 2.23-.32 3.99.33 4.49 1.65.4 1.05-.19 1.36-.76.39Zm7.06.15c.26-.65.49-3.78.27-3.91-.3-.2-.74.64-1.08 2.09l-.17.72.33.71c.37.8.45.85.65.39Zm-6.41.14c.3-.48-.8-1.71-1.76-1.97-1.06-.28-3.48-.15-3.48.19 0 .09.42.12 1.68.12 2.07-.01 2.85.34 3.24 1.46.1.28.22.36.32.2Zm9.76-.25c.32-.68 1.49-.95 2.94-.66 1 .21 1-.32 0-.78-1.77-.81-3.54-.18-3.54 1.25 0 .62.35.74.6.19Zm6.07-1.05c-.14-.15-.15-.27-.05-.85.06-.37.09-.7.06-.72-.12-.13-2.13-.35-2.37-.27-.28.1-.42.06-.81-.19-.14-.09-.68-.24-1.2-.33-.52-.1-1.03-.19-1.13-.21-.09-.02-.22.05-.27.16-.38.71-1.36-.5-1.87-2.32-.73-2.6.48-7.1 2.19-8.13.73-.44.87.24.21 1.05-1.87 2.27-2.24 5.92-.85 8.43l.27.5 1.18.21c.64.12 1.17.2 1.17.19 0 0-.13-.3-.29-.65-.68-1.51-.75-3.59-.12-3.59.38.01.45.17.52 1.17.08 1.15.35 2.04.86 2.84l.36.56 1.03.12c.57.07 1.08.1 1.14.06.38-.23-.02-3.83-.63-5.63-.44-1.32-.43-1.57.04-1.57.77 0 1.63 3.12 1.63 5.95 0 2.74-.41 3.95-1.07 3.22Zm.65-.69c.54-2.36-.34-8.23-1.23-8.23-.24 0-.24.04.07.81.88 2.16 1.11 4.66.68 7.57-.11.73.3.6.48-.15ZM32.9 16.1c0-.05-.14-.32-.31-.59-.53-.87-.89-2.19-.89-3.28 0-.36-.03-.43-.2-.43-.61 0 .1 3.36.89 4.18.22.23.51.3.51.12Zm-3.55-.4c.03-.05-.1-.38-.29-.72-1.42-2.54-1.02-6.43.9-8.77.6-.72.4-1.05-.23-.38-1.99 2.06-2.58 6.29-1.26 8.92.46.91.73 1.2.88.95ZM0 7.71c0-.3 1.9-2.15 2.97-2.91C6.1 2.6 9.96 1.72 13.1 2.5c.52.13.99.22 1.05.21 3.74-1.19 7.13-.4 9.9 2.3l.81.78.44-.6c1.17-1.61 3.13-3 5.2-3.69 1.75-.59 4.4-.81 4.4-.36 0 .08-.28.1-.92.08-3.32-.12-7.04 1.8-8.82 4.55-.27.43-.22.45-1.12-.46-2.59-2.58-6.19-3.54-9.4-2.5l-.61.2-.79-.23c-1.17-.34-3.96-.33-5.34.01C5.21 3.46 3 4.77.98 6.89c-.7.72-.98.96-.98.82Zm50.28-3.46C46.93.99 40.34-.36 36.24 1.35c-.41.17-.59.11-.3-.11.49-.35 2.31-.72 4.01-.8 4.32-.21 8.79 1.47 11 4.13.55.68.17.49-.67-.32Z"/></svg>