<svg xmlns="http://www.w3.org/2000/svg" width="51" height="51" viewBox="0 0 51 51"><path fill="#fff" fill-rule="evenodd" stroke="#fff" stroke-width=".485" d="M3 51.15c0-.02.44-.57.98-1.22s2.08-2.53 3.42-4.18c2.72-3.34 4.67-5.71 4.94-5.97.16-.17.81-.18 10.74-.18l10.57-.01 2.15-1.07 2.15-1.07 2.09-4.14 2.09-4.15-.23-.15c-.27-.19-6.04-3.54-10.2-5.93-1.62-.93-2.99-1.74-3.04-1.78-.05-.05-.37-1.16-.7-2.47l-.61-2.37L25 15.45c-1.29-.56-3.34-1.43-4.55-1.94-2.72-1.14-2.49-.99-3.22-2.22-2.06-3.54-4.35-7.24-4.48-7.24-.08 0-2.95 2.77-6.37 6.15L.15 16.35.1 28.2.05 40.05.03 28.1.01 16.15l6.29-6.2c3.46-3.41 6.37-6.21 6.47-6.23.14-.02.75.93 2.75 4.26l2.58 4.29 1.62.68c3.69 1.54 7.64 3.27 7.76 3.39.07.07.4 1.18.72 2.46.33 1.28.6 2.34.62 2.35s.95.56 2.08 1.2c1.55.9 8.55 4.94 11.12 6.44.16.09.28.25.28.36s-.96 2.08-2.13 4.39l-2.12 4.18-2.15 1.03-2.15 1.04-10.59.03-10.59.04-.38.42c-.35.4-2.58 3.12-5.63 6.87-3.18 3.91-3.56 4.34-3.56 4Zm32-38.96v-1.91l1 .04c1.2.04 1.4.17 1.48.96.08.9-.42 1.42-1.38 1.42h-.4v1.4H35zm3.89 1.84c-.01-.04-.02-.73-.03-1.53l-.01-1.45-.58-.03-.57-.03v-.69h2.9v.7h-.99l-.03 1.53-.03 1.52-.32.03c-.18.02-.34 0-.34-.05Zm-3.37-.91.03-.67.65-.05c.78-.06.85-.1 1-.56.3-.9-.01-1.24-1.15-1.32l-.85-.05v1.67c0 1.39.02 1.66.15 1.66.11 0 .15-.16.17-.68Zm3.87.61c-.01-.05-.01-.72 0-1.5l.01-1.43h.5c.38 0 .5-.04.5-.15 0-.13-.21-.15-1.25-.15-1.03 0-1.25.03-1.25.15 0 .1.15.15.58.17l.57.03.03 1.48c.02 1.22.05 1.47.17 1.47.08 0 .14-.03.14-.07Zm-3.81-1.59c-.05-.04-.08-.36-.08-.71v-.63h.55c.85 0 1.22.54.77 1.1-.19.23-1.08.41-1.24.24Zm1.17-.57c.12-.37-.12-.57-.67-.57h-.38v.91l.47-.03c.42-.03.49-.06.58-.31ZM14.68.03a4332 4332 0 0 1 22.8 0c6.25.01 1.11.02-11.43.02S8.39.04 14.68.03Z"/></svg>