<svg xmlns="http://www.w3.org/2000/svg" width="51" height="51" viewBox="0 0 51 51"><path fill="#fff" fill-rule="evenodd" stroke="#fff" stroke-width=".8" d="M13.52 38.85c.03-.36.06-.38.65-.6 1.4-.5 1.28.7 1.31-12.19.02-6.73-.01-11.26-.07-11.69-.12-.88-.34-1.13-1.22-1.37-.63-.17-.64-.18-.64-.51v-.34l1.95-.06c9.56-.3 14.1.08 16.6 1.42 4.13 2.2 3.15 7.47-1.62 8.68l-.72.19.44.06c5.28.81 8.15 3.44 8.37 7.66.22 4.3-2.52 7.39-7.6 8.55-2.01.46-2.38.48-10.1.52l-7.38.04zm14.93-.04c6.51-.75 9.84-3.55 9.85-8.27 0-4.48-3.27-7.46-8.67-7.9-.46-.04-.86-.11-.9-.17-.08-.13.16-.27.48-.27.49 0 1.84-.4 2.59-.77 1.85-.9 2.96-2.86 2.61-4.59-.51-2.56-2.81-3.89-7.66-4.44-1.29-.14-12.92-.13-13.01.01-.09.15.12.26.59.35.49.08 1.11.62 1.29 1.12.18.53.18 22.66-.01 23.3-.18.62-.65 1.1-1.31 1.31-.31.1-.56.25-.58.33-.04.2 13.02.18 14.73-.01Zm-6.1-.33c-.03-.07-.04-3.66-.03-7.98l.03-7.85.5.03c1.9.1 3.89 1.49 4.81 3.36.7 1.44.86 2.21.88 4.21.03 4.08-.97 6.45-3.29 7.81-.75.43-2.78.73-2.9.42Zm1.9-.32c.82-.22 1.36-.55 2.1-1.3 1.41-1.42 1.89-3.06 1.9-6.36 0-2.44-.07-2.85-.77-4.3-.83-1.73-3.04-3.3-4.65-3.3h-.23l-.02 7.7-.03 7.7h.6c.33 0 .83-.06 1.1-.14Zm-2-16.07c-.03-.08-.02-2.14.02-4.59l.08-4.45.8.03c3.07.12 4.92 1.88 4.83 4.58-.08 2.52-1.99 4.24-5 4.51-.53.05-.69.03-.73-.08Zm1.45-.28c1.79-.3 3.15-1.29 3.82-2.77.35-.79.33-2.37-.06-3.21-.68-1.49-2.5-2.52-4.43-2.53h-.53v8.71l.33-.05c.17-.03.57-.1.87-.15Z"/></svg>