<svg xmlns="http://www.w3.org/2000/svg" width="51" height="51" viewBox="0 0 51 51"><path fill="#fff" fill-rule="evenodd" stroke="#fff" stroke-width=".464" d="M10 40.74c-.67-.21-1.36-.77-1.81-1.46-.73-1.14-.69-.46-.69-11.92V17.07l.78-1.96c1.21-3.07.98-2.92 5.37-3.46 11.79-1.44 11.1-1.38 11.26-1.03.1.25-1.25 3.83-1.59 4.21-.33.37-.5.4-10.01 1.62-1.95.25-3.56.47-3.58.48-.04.05 25.21-.07 29.97-.14l.95-.01-1-.13c-.55-.08-2.17-.28-3.6-.45-3.97-.48-7.66-1-7.86-1.11-.24-.13-.43-.5-1.23-2.47-1.02-2.54-1.21-2.4 2.74-1.92 1.35.16 4.29.52 6.55.8 6.01.73 5.53.48 6.82 3.6l.68 1.65.03 10.35c.02 10.07.02 10.37-.17 11-.38 1.23-1.4 2.33-2.45 2.65-.73.22-30.47.21-31.16-.01Zm31.25-.35c.75-.28 1.47-.99 1.88-1.86l.32-.68.03-10.31.02-10.32-.47-.06c-.27-.03-5.43-.02-11.48.02s-13.87.07-17.38.07H7.8l.02 10.35.03 10.35.32.65c.42.85 1.15 1.57 1.85 1.81.88.31 30.41.29 31.23-.02ZM23.38 36.5c-2.12-.44-2.88-.9-2.88-1.7 0-.34.06-.48.34-.76.43-.43.6-.43 2.13-.03 2.03.53 3.54.5 5.78-.12.97-.27 1.19-.25 1.61.14.56.51.47 1.28-.2 1.72-1.23.81-4.69 1.19-6.78.75Zm4.21-.26c2.23-.4 3.16-.98 2.8-1.77-.22-.49-.59-.54-1.78-.24-2.44.62-3.82.61-6.14-.03-.9-.25-1.08-.25-1.41.01-.53.42-.31 1.09.47 1.44 1.71.75 3.92.97 6.06.59Zm-9.14-6.72c-.87-.56-.95-.83-.95-3.18 0-2.15.05-2.42.59-2.87.86-.72 2.1-.52 2.65.43.33.56.37 4.1.06 4.76-.44.91-1.61 1.33-2.35.86Zm12.77-.03c-.83-.41-.92-.73-.92-3.08 0-2.2.05-2.45.56-2.93.9-.84 2.51-.39 2.83.79.2.69.14 3.82-.08 4.28-.47 1.02-1.44 1.41-2.39.94Zm-11.24-.29c.61-.37.72-.8.72-2.82 0-1.41-.03-1.86-.16-2.18-.43-1.06-1.86-1.18-2.51-.21-.33.49-.35 4.16-.03 4.69.42.69 1.32.92 1.98.52Zm12.72-.02c.72-.49.75-.59.78-2.69.03-1.75.02-1.93-.17-2.32-.5-1.03-1.92-1.11-2.51-.14-.26.42-.3 4.08-.06 4.55.41.79 1.28 1.06 1.96.6ZM14.5 16c9.03-1.16 8.47-1.05 8.8-1.69.18-.37 1.4-3.45 1.4-3.55 0-.11-.8-.06-2.48.14-12.57 1.54-11.91 1.44-12.43 1.87-.37.32-.57.7-1.26 2.47-.3.78-.57 1.46-.6 1.52-.03.08.25.07.94-.03.54-.07 3.07-.4 5.63-.73Zm28.65.18c-1.16-3.07-1.42-3.48-2.3-3.73-.46-.13-2.63-.41-10.71-1.4-2.7-.32-3.64-.41-3.64-.31 0 .02.11.28.24.57.13.3.5 1.18.81 1.97.35.86.65 1.47.77 1.53.23.12 2.56.45 8.18 1.14 2.45.3 4.92.61 5.5.69.58.07 1.13.14 1.22.15.15.01.15-.06-.07-.61Z"/></svg>