<svg xmlns="http://www.w3.org/2000/svg" width="51" height="51" viewBox="0 0 51 51"><path fill="#fff" fill-rule="evenodd" stroke="#fff" stroke-width=".451" d="M37.3 36.79c-2.16-.32-3.19-1.5-4.25-4.84-.84-2.69-2.93-9.12-3.17-9.78-.34-.93-1.16-1.36-1.89-.97-.55.3-.54.12-.57 8.11l-.03 7.36-1.96.06c-4.51.16-5.15.03-6.43-1.23-.76-.75-.91-1.1-2.25-5.3-3.16-9.92-2.84-9.16-3.81-9.08-1.28.11-1.24-.14-1.24 8.41v7.17H8v-7.49c0-7.81.02-8.14.44-9.07 1.43-3.12 6.68-3.57 8.48-.74.17.26.65 1.57 1.14 3.1 1.54 4.78 3.26 9.94 3.4 10.22.4.78 1.68.74 1.92-.04.07-.2.13-2.98.17-7.13.03-3.74.08-7.05.11-7.36l.06-.56 2.73-.06c3.63-.08 4.33.05 5.42.98.77.66.94 1.08 3.15 7.73 2.37 7.17 2.34 7.11 3.19 6.99 1.06-.14 1.09-.27 1.09-5.35 0-2.36.03-5.64.07-7.3l.06-3.02h3.68l-.04 7.68c-.03 8.35-.01 8.02-.61 9.21-.86 1.68-2.97 2.62-5.16 2.3Zm-11.83-.35 1.62-.07.03-7.16c.03-7.14.03-7.16.25-7.64.51-1.1 2.03-1.03 2.6.13.23.48 2.17 6.32 3.28 9.89.76 2.46.98 2.94 1.66 3.66 1.97 2.09 5.96 1.62 7.28-.84.6-1.13.61-1.22.61-9.23V17.9h-3.07l-.06 1.13c-.04.61-.07 3.8-.07 7.07 0 4.01-.04 6.08-.11 6.35-.36 1.3-1.97 1.47-2.58.27-.1-.21-1.1-3.11-2.21-6.47-2.45-7.41-2.41-7.34-3.99-8.09l-.66-.31-2.99.02c-1.64.01-3.02.05-3.06.1-.05.04-.11 3.32-.15 7.28-.06 6.85-.08 7.22-.26 7.61-.41.86-1.72.94-2.29.14-.19-.26-2.14-6.06-3.66-10.9-.85-2.69-1.16-3.2-2.35-3.79-2.49-1.24-5.69-.22-6.68 2.13l-.26.61-.03 7.68-.03 7.67h3.1l.03-7.22c.03-7.02.04-7.24.23-7.57.59-1.01 2.05-1.09 2.53-.14.22.43 1.04 2.93 3.37 10.28.76 2.39 1.09 3.09 1.74 3.67.95.84 2.1 1.2 3.66 1.13.5-.03 1.63-.08 2.52-.11Zm-.77-20.97c-.49-.16-1.23-.93-1.38-1.43-.57-1.93 1.36-3.58 3.15-2.69 2.46 1.23.86 4.95-1.77 4.12Zm1.48-.32c1.96-.83 1.41-3.75-.71-3.75-.59 0-.94.14-1.36.53-1.54 1.46.11 4.03 2.07 3.22Z"/></svg>