<svg xmlns="http://www.w3.org/2000/svg" width="51" height="51" viewBox="0 0 51 51"><path fill="#fff" fill-rule="evenodd" stroke="#fff" stroke-width=".653" d="M24 45.3C11.43 44.17 3.2 32.04 6.79 19.94 10.42 7.72 25 2.23 35.88 8.98c10.47 6.51 12.49 20.75 4.24 29.97C36.14 43.4 29.97 45.83 24 45.3Zm4.55-.35c15.79-2.37 22.06-22.12 10.53-33.21-10.2-9.82-27.22-5.83-31.83 7.46-4.82 13.9 6.78 27.93 21.3 25.75Zm-4.85-1.36c-1.55-.18-4.79-1.04-5.12-1.37-.06-.06.51-.66 1.49-1.59 2.79-2.65 6.83-6.43 8.62-8.08 3.17-2.92 4.11-4.48 4.11-6.87 0-.43.04-.78.09-.78.06 0 .65.89 1.32 1.98.67 1.08 1.84 2.96 2.59 4.17 3.34 5.37 3.22 5.17 3.12 5.4-.2.43-1.57 1.98-2.41 2.71-3.81 3.34-8.94 4.98-13.81 4.43Zm4.13-.24c4.23-.55 8.61-2.9 11.13-5.96.97-1.18 1.05-.79-.82-3.8-.91-1.45-2.43-3.89-3.37-5.43l-1.72-2.79-.07.79c-.21 2.44-.96 3.58-4.63 6.97-1.37 1.27-2.97 2.77-3.55 3.32s-1.75 1.66-2.6 2.45c-3.09 2.87-3.41 3.19-3.22 3.29 1.9.97 6.08 1.52 8.85 1.16Zm-13.64-3.77c-5.61-4.41-7.98-12.57-5.67-19.55.47-1.43.34-1.44 1.84.09 1.98 2.03 3.48 3.6 5.94 6.23 5.42 5.79 6.04 6.23 8.98 6.42 1.1.07 1.1.07.24.57-.82.48-9.5 5.84-10.58 6.53-.2.12-.26.1-.75-.29Zm3.39-1.59c1.52-.95 3.69-2.29 4.82-2.99s2.31-1.42 2.63-1.61l.58-.34-.67-.08c-2.7-.3-3.51-.87-7.8-5.43-4.52-4.81-7.87-8.29-8-8.32s-.46.81-.73 1.88c-1.47 5.84-.04 11.94 3.82 16.31.75.85 2.32 2.29 2.49 2.29.05 0 1.34-.77 2.86-1.71Zm23.02-7.21c-.79-.84-2.73-2.88-4.31-4.54-1.58-1.65-3.47-3.65-4.2-4.44-2.54-2.72-3.9-3.51-6.26-3.67-.51-.03-.93-.09-.93-.12s.6-.41 1.32-.85c.73-.43 3.2-1.95 5.5-3.37 2.3-1.43 4.25-2.59 4.34-2.59.42 0 2.89 2.38 3.95 3.8 1.57 2.11 2.64 4.48 3.21 7.1.31 1.43.34 5.45.05 6.8-.41 1.91-.89 3.4-1.11 3.4-.07 0-.77-.69-1.56-1.52Zm1.84.45c1.88-5.7.72-12.08-3.04-16.68-.67-.82-2.74-2.84-3.12-3.04-.28-.14.08-.35-9.28 5.44-.47.29-1.01.61-1.2.71l-.35.18.86.11c2.23.31 3.46 1.07 5.83 3.6.77.84 2.69 2.86 4.26 4.5s3.48 3.65 4.24 4.47c.77.81 1.43 1.48 1.47 1.48s.19-.35.33-.77Zm-18.27-.08c-4.81-1.22-6.11-7.4-2.16-10.36 4.83-3.64 11.27 1.67 8.69 7.16-1.16 2.49-3.95 3.85-6.53 3.2Zm2.62-.2c4.26-1.01 5.74-6.34 2.62-9.46-3-3-7.9-1.81-9.26 2.24-1.37 4.08 2.43 8.21 6.64 7.22Zm-9.4-5.97c-.31-.51-1.83-2.97-3.37-5.47-2.23-3.58-2.79-4.57-2.72-4.71.46-.86 2.83-3.07 4.41-4.13 4.63-3.08 11.32-3.83 16.14-1.81l.38.15-.39.41c-.67.69-5.15 4.92-8.24 7.77-4.62 4.26-5.18 5.09-5.45 8.04-.08.85-.09.85-.76-.25Zm.64-.46c.23-2.46.84-3.25 6.67-8.63 3.42-3.16 7.1-6.68 7.1-6.79 0-.23-2.5-.84-4.26-1.05-5.91-.69-12.33 1.95-15.81 6.5l-.31.4 2.24 3.6c1.23 1.98 2.67 4.31 3.2 5.17.54.87 1 1.55 1.04 1.53s.1-.35.13-.73Z"/></svg>