<svg xmlns="http://www.w3.org/2000/svg" width="51" height="51" viewBox="0 0 51 51"><path fill="#fff" fill-rule="evenodd" stroke="#fff" stroke-width=".483" d="M23.87 50.65c-3.31-.63-6.15-3.19-7.15-6.46-1.14-3.71.26-7.95 3.35-10.16.35-.25.63-.47.61-.48-.02-.02-.39-.27-.83-.56-3.29-2.14-5.21-6.22-4.84-10.27.24-2.62 1.66-5.9 4.92-11.37 1.49-2.49 5.35-8.2 5.69-8.42.17-.1.53.38 2.68 3.59 4.11 6.13 6.77 11.16 7.67 14.46 1.2 4.44-.81 9.69-4.65 12.12-.84.53-.83.5-.29.85 3.37 2.23 4.79 6.97 3.26 10.83-1.68 4.22-6.06 6.69-10.42 5.87Zm3.92-.35c6.74-1.9 9.17-10.01 4.48-14.97-3-3.18-8.8-3.62-12.29-.93-4.22 3.25-4.59 9.73-.76 13.5 2.27 2.24 5.72 3.21 8.57 2.4Zm-4.29-4.6v-2h-4.1v-2.14c0-1.86.02-2.15.16-2.2.09-.03 1.01-.06 2.05-.06h1.89v-4l2.12.02 2.13.03.03 2 .02 2h1.88c1.03 0 1.95.03 2.05.07.16.07.17.24.15 2.15l-.03 2.08-2.02.03-2.03.02v4h-4.3zm4.04 1.64c.03-.09.06-.98.06-2V43.5l2.02-.02 2.03-.03.01-1.92.01-1.93H27.6v-4.1h-3.9l-.02 2.02-.03 2.03-2.03.03-2.02.02v3.91l2.02-.02 2.03-.01.03 2.01.02 2.01h1.89c1.63 0 1.9-.02 1.95-.16Zm3.2-14.13c3.13-1.81 5.17-5.28 5.33-9.06.12-2.89-1.22-6.47-4.52-12.1-1.49-2.53-5.66-8.85-5.85-8.85-.04 0-.38.44-.76.98-5.18 7.35-8.4 13.1-9.41 16.82-1.25 4.62 1.01 10.05 5.08 12.19l.46.24.9-.36c2.48-.99 5.77-.88 7.89.26.37.2.28.22.88-.12Z"/></svg>