<svg xmlns="http://www.w3.org/2000/svg" width="51" height="51" viewBox="0 0 51 51"><path fill="#fff" fill-rule="evenodd" stroke="#fff" stroke-width=".338" d="M5.95 50.82C2.76 49.75 0 46.59 0 44.02c0-.5.14-.29.29.43.68 3.22 3.38 5.71 7.04 6.5.32.06.27.25-.06.25-.12 0-.72-.17-1.32-.38Zm14.21-.29c-.13-1.47-.37-3.05-.61-3.97-.27-1.03-.3-1.42-.15-1.66.08-.13.1-.12.1.04 0 .14.09.06.28-.25.16-.24.53-.78.83-1.19 1.1-1.54 1.1-1.69-.02-2.26-.41-.2-.79-.48-.95-.7l-.28-.36-.11.28c-.05.16-.18.44-.28.62-.2.36-.16.7.24 2.37.21.91.23 1.09.09 1-.12-.08-.37-.93-.59-2.04-.17-.83-.32-1.02-.6-.75-.08.08.2 5.66.35 6.89.26 2.17.27 2.41.16 2.3-.16-.15-.39-1.59-.51-3.2-.14-1.8-.31-4.97-.31-5.56v-.46l-.42-.06c-.75-.11-.9.39-.64 2.18.3 2.18.48 6.71.26 7.05-.16.25-.18-.02-.24-2.6-.06-2.47-.15-3.65-.36-4.65-.12-.56-.21-.61-.41-.23-.07.13-.07.18-.01.14.47-.29-.14 1.18-.77 1.87-.6.65-1.37 1.01-2.76 1.31-4.12.86-5.31.83-8.06-.2-.65-.24-1.26-.46-1.36-.47-.17-.04-.32-.09-1.05-.38-.16-.07-.28-.15-.28-.19 0-.1 1.25.27 3.1.9 2.18.75 3.31.83 5.76.4 3.44-.59 4.33-1.01 4.98-2.33.2-.42.21-.41-.65-.05s-1.92.51-2.6.37c-.52-.11-2.78-1.84-3.37-2.58-.35-.44-.82-.72-1.71-1.02-.65-.23-.91-.44-.91-.76 0-.25-.1-.29-.27-.12-.08.08-.18.06-.36-.06-.43-.28-.4-.42.1-.49.24-.03.83-.24 1.29-.45l.84-.4v-.8c0-1.01.13-1.05.67-.22.21.33.42.6.46.6.18.02-.16-2.39-.6-4.27L8.16 33l-.38.61c-.58.92-.83 1.45-1.13 2.44-.14.5-.51 1.38-.8 1.96-1.03 2.04-.87 2.78.7 3.29.69.22 1.08.46 1.82 1.13.4.36.88.73 1.07.82s.67.45 1.08.81c1.46 1.28 3.11 1.55 4.24.69.42-.32.64-.32.34 0-.69.73-1.7.91-2.88.51-.73-.24-.97-.39-1.97-1.16-.33-.26-.74-.55-.92-.64s-.65-.45-1.05-.81c-.43-.39-1.08-.83-1.58-1.08-.47-.24-.98-.52-1.14-.62l-.29-.19.07.24.07.25-.19-.22-.2-.22-.2.62c-.11.34-.22.73-.24.86-.03.22-.11.26-.69.37-.75.14-1.19.34-1.67.75-.31.28-.62.38-.62.21 0-.04.14-.16.3-.26.36-.21.31-.36-.13-.36-.65 0-1.13.68-.78 1.11.18.22.27.24 1.13.24.71.01 1.14.07 1.83.28.5.15 1.28.36 1.75.48 1.54.38 2.17.59 2.3.74.11.14.1.14-.15.05-.16-.06-.72-.2-1.24-.31-.53-.12-1.63-.41-2.46-.66l-1.5-.45-.6.15C.96 44.9.21 44.09.76 43.24c.3-.45 1.3-.74 1.49-.44.04.06.18.04.38-.07.18-.09.61-.24.97-.33l.65-.16.32-.88c.21-.59.31-1.06.31-1.42-.01-.45.09-.73.65-1.91.94-1.97.94-1.98.69-3.34-.38-2.05-.35-3.19.09-3.19.05 0 .04.11-.01.26-.12.32-.13.67-.01.6.05-.03.06.23.03.61-.05.66-.05.66.19.59.13-.04.42-.1.65-.13 1.01-.13 1.21-1.58.41-2.91-.9-1.48-1.49-3.06-1.51-3.98-.01-1.09-.04-1.1-.69-.02-.52.88-1.07 1.63-3.32 4.58-.55.72-1.17 1.68-1.48 2.28-.49.97-.52 1.02-.55.7-.03-.21.05-.48.19-.75l.23-.42-.22-.24c-.32-.34-.3-1.69.05-2.57.03-.08.07-.31.08-.5.03-.44.22-1.87.3-2.26l.07-.29-.36.37-.36.38v-.28c0-.19.11-.36.36-.57.39-.33.41-.75.03-.54-.11.05-.24.07-.29.04-.16-.1-.12-.35.05-.35.08 0 .24-.06.35-.12.17-.11.22-.1.29 0 .17.28.33-.13.17-.44-.97-1.87-1.12-2.67-.62-3.26.2-.23.36-.45.36-.5 0-.04.09-.08.21-.08.16 0 .19.04.14.2-.03.11-.04.2-.01.2.02 0 .12-.24.2-.53.09-.3.25-.62.36-.72.28-.26.26-.29-.34-.54C.5 20 .41 19.86.23 18.74c-.2-1.19-.21-2.2-.03-2.91.1-.4.1-.67.01-1.2-.06-.37-.14-1.02-.17-1.43l-.05-.75.21.3c.11.17.2.46.2.68 0 .27.04.37.13.34.23-.08.12-.98-.22-1.64-.31-.63-.42-1.28-.19-1.21.06.02.16.17.21.34.05.16.23.6.39.97.37.86.37 1.66 0 1.82-.22.1-.23.13-.16.82.05.59.02.85-.15 1.42-.2.66-.21.75-.07 1.28.08.32.18.85.21 1.18.1.91.12.95.77 1.25l.61.29.78-.72.78-.72-.47-.21c-1.2-.53-.85-.67.45-.18.52.19.97.34.98.32.02-.02-.42-.52-.96-1.12-1.45-1.58-1.8-2.47-2.08-5.23-.07-.69-.16-1.03-.35-1.36-.14-.24-.26-.48-.26-.52 0-.21.78.7.84.96.08.39.22.36.45-.09.1-.2.29-.46.41-.57.29-.26.67-1.02.8-1.58.1-.45-.16-1.67-.32-1.51-.09.08-.58-.9-.58-1.15 0-.11-.05-.21-.12-.23-.13-.05-.04-.38.11-.38.12 0 .59.94.67 1.35.07.36.64 1.09.64.82 0-.29.2-.19.27.13.03.17.1.33.14.36.05.03.09.19.09.36 0 .41.11.29.19-.19.07-.44.31-.51.42-.13.05.17.07.04.08-.38.01-.87.23-.78.34.14.11.86.27 1.08.27.36 0-.54.15-.7.26-.27.03.13.04.44.03.69-.02.24-.01.42.04.39.18-.11.05-1.8-.18-2.36-.1-.24.06-.21.37.08l.28.25-.06-.3-.06-.3.48.06C7.84 7.21 8.7 8.15 8.7 9.3c0 .58.02.68.18.66.14-.01.17.07.16.49l-.02.5.15-.35c.11-.24.14-.55.1-.98-.02-.34-.01-.62.04-.62.1 0 .11.03.25.59l.09.33.24-.42c.13-.23.29-.63.36-.89l.13-.46.01.48c.01.27-.07.65-.18.9-.24.53-.31.93-.37 2.37l-.05 1.15.26-.3c2.55-2.99-.39-8.31-4.48-8.12-.6.02-1.02.09-1.06.16-.05.08-.17.07-.42-.06-.76-.39-2.46-.28-3.52.22-.61.3-.57.29-.57.07 0-.12.14-.25.41-.37.31-.14.53-.37.89-.89C2.79 1.55 5.26-.02 7.19.01c.62.01.52.06-.57.28C4.79.66 2.9 1.94 1.73 3.58c-.54.74-.55.72.25.61.41-.06.86-.05 1.3.03.68.11.84.12 2.45.09 3.07-.07 5.81 3.03 5.54 6.24-.1 1.14-.84 2.51-1.57 2.87-.33.17-.35.22-.47.95-.24 1.38-1.12 2.82-2.61 4.25-.79.77-.93.8-2.11.53-.69-.17-.68-.17-1.27.38l-.32.29.4.56c.21.32.41.55.43.52.06-.09.45.33.45.49 0 .18.85.98 1.13 1.07.09.03.28.27.41.52.13.26.35.57.49.7l.25.23.54-.54c.54-.54.81-.67 1.83-.83.17-.03.47-.15.68-.26.32-.17.43-.18.64-.09.21.1.28.08.56-.2.17-.17.43-.36.59-.41.36-.13 1.28-1.22 1.74-2.06.2-.37.54-.94.75-1.28.45-.7.5-1.18.19-1.77-.21-.4-.26-.77-.1-.77.06 0 .1-.11.1-.25s.05-.25.11-.25c.08 0 .1.15.06.48-.04.31-.01.56.08.72.08.14.14.4.15.57v.33l.35-.17.34-.16-.24-.29c-.25-.29-.33-.58-.16-.58.05 0 .19.16.32.35.27.4.31.41.89.2.23-.08.52-.15.64-.15.23 0 1.06-.77 1.06-.98q0-.12.54-.12c.78 0 1.01-.12 1.42-.75.37-.59.36-1.17-.02-1.32-.16-.06-.19-.33-.04-.33.2 0 .5.4.5.67 0 .25.01.25.19.09.49-.45.72-.95.95-2.07.34-1.69.96-2.7 2.13-3.5.23-.16.43-.38.45-.5.09-.57 4.86-2.16 6.8-2.26l1.07-.06-.3-.37c-.17-.2-.41-.69-.54-1.08-.33-.97-.61-1.5-1.07-2-.47-.51-.58-.78-.58-1.43V0l1.23.01c.67.01 1.06.04.87.08-.6.1-1.03 1.78-.65 2.51.19.37.21.37.74-.05.61-.49 1-.46 1.64.14l.28.26.19-.25c.1-.14.29-.46.41-.72.21-.44.39-.62.39-.38 0 .06-.19.47-.41.93-.41.81-.42.83-.36 1.62.09 1.23-.1 1.5-.48.67-.4-.89-.87-1.14-.51-.27.13.3.13.35.01.35-.26 0-.46-.54-.34-.9.13-.34.03-.55-.12-.27-.12.2-.29.14-.29-.12 0-.58.27-.58.84-.01l.56.54v-.41c0-.49-.46-1.07-.95-1.19-.35-.09-.65.22-.65.68 0 .34-.17.71-.29.63-.05-.03-.05-.21-.01-.4.08-.36.03-.44-.17-.24-.17.17.13 1.05.53 1.59.19.25.43.65.55.9l.2.45.27-.33c.35-.43.47-.31.21.2-.17.33-.25.39-.44.36-.22-.05-.23-.01-.3.67-.15 1.63.35 2.85 1.48 3.59.29.19.74.51 1.02.7.68.48 2.25.45 2.25-.03 0-.06.09-.11.2-.11.26 0 .73-.66.9-1.25.16-.59.09-.65-.35-.27-.59.52-1.88 1.03-2.08.83-.06-.06.01-.12.19-.16 1.06-.24 1.95-.83 1.56-1.04-.18-.1-.3-.07-.75.19-.53.3-.94.4-.82.2.04-.06.3-.22.58-.37l.52-.26-.3-.13c-.16-.07-.6-.18-.97-.24-.48-.08-.68-.16-.68-.27 0-.09.07-.13.17-.09.1.02.45.07.78.11.34.04.87.2 1.23.37 1.28.62 1.85.24 2.66-1.76.44-1.11.59-2.04.46-2.93-.05-.37-.1-.71-.1-.75 0-.06-.7.01-.78.08-.02.01.1.39.28.84.21.55.3.94.27 1.19-.03.32-.05.33-.12.13-.05-.16-.11-.2-.2-.12-.25.21-1.07.6-1.26.6-.3 0-.22-.16.14-.28l.32-.12-.31.05c-1.35.18-1.32.18-1.38-.03-.07-.21.15-.75.35-.87.2-.13.23.06.05.36-.24.4-.21.41.6.26.85-.15.87-.21.35-1.24-.26-.51-.4-.7-.41-.55 0 .12-.05.22-.1.22-.06 0-.19.15-.3.33l-.2.32.05-.75c.04-.78.18-.97.23-.34.03.33.04.35.17.18.1-.14.12-.34.08-.71-.06-.57.11-.76.23-.25.12.53.17.68.55 1.53.25.54.37.94.32 1.05-.05.14-.03.16.11.11.1-.04.22-.07.27-.07.16 0 .1-.33-.21-1.2-.46-1.31-.13-2.21.7-1.95.15.05.21 0 .26-.19.1-.41-.03-.49-.67-.43-.7.06-.84-.07-.44-.39.33-.26.67-.34.89-.22.1.06.16.05.16-.02 0-.05-.06-.1-.12-.1-.1 0-.09-.03.01-.09.11-.07.11-.14-.02-.4L39.72 0h1.19l-.24.32c-.2.27-.26.49-.31 1.23-.03.5-.09 1.09-.12 1.33-.04.25-.02.42.04.42s.13.43.17.96c.09 1.1-.05.97 1.5 1.41 3.07.86 5.04 2.82 5.89 5.85.62 2.21.42 2.16-.29-.07-.93-2.9-2.69-4.57-5.81-5.49-1.46-.43-1.32-.44-1.4.01-.11.6-.72 2.03-1.14 2.68-.21.33-.48.86-.6 1.17-.12.32-.25.6-.3.63-.12.08-.72.97-.67 1.01.01.02.3-.08.63-.21.7-.28 1.74-.44 1.74-.26 0 .06-.09.11-.21.11-1.36 0-3.33 2.34-2.98 3.53.31 1.03.39 1.5.39 2.29 0 .76.02.87.16.81.14-.05.14-.03.03.15-.11.17-.1.3.04.76.22.68.33.76.41.32.14-.74.88-.87 1.28-.23.28.44.68.87.68.72 0-.04-.11-.2-.25-.37-.14-.16-.25-.39-.25-.51 0-.17.02-.19.09-.08.17.27.23-.48.1-1.4-.08-.61-.09-.93-.02-1 .11-.11.33.59.33 1.08 0 .52.19.02.26-.69.07-.76.24-.92.24-.23 0 .34.03.43.14.39.09-.03.16.02.18.12.02.15.07.13.23-.12.24-.34.36-2.64.16-2.88s.37-1.16.72-1.16c.31 0 .3.03-.1.56-.38.51-.31.67.54 1.26 1.25.86 1.9 2.05 1.18 2.16-.54.08-.69.14-.56.21.07.05-.14.11-.51.14-.35.04-.72.08-.83.09-.15.02-.2-.02-.18-.17.03-.39-.36.27-.58.97s-.38.8-.4.25c-.01-.18-.06-.03-.1.33-.05.36-.06.81-.02 1s.08.51.08.7c.01.19.05.48.1.64.13.48-.14.21-.41-.4-.25-.57-.44-.7-.44-.3 0 .14-.05.28-.11.31-.07.05-.03.12.09.21.27.18.68.9.98 1.7.55 1.47.85 1.7 1.6 1.23.63-.41 1.2-.65 1.72-.74l.42-.07-.15-.29c-.2-.37 0-.4.3-.05.17.21.32.25 1.03.31l.82.06v-.45c0-.46.16-1.15.45-1.95.37-1.02.38-3.52.01-3.22-.15.13-.26.04-.26-.21 0-.23-.06-.23-.32.02-.12.11-.16.2-.09.2s.09.04.06.1-.23.1-.44.1c-.65 0-.97-.6-.43-.81.15-.06.42-.18.61-.25.27-.12.36-.12.49-.02.14.11.15.1.08-.07a1.3 1.3 0 0 1-.07-.5l.02-.3-.16.23c-.2.28-.35.28-.35.01 0-.16-.08-.09-.33.27-.33.5-1.01.72-1.14.37-.07-.18-.23-.16-.23.03 0 .23-.18.07-.41-.38-.22-.43-.19-.59.06-.38.35.29.21-.01-.34-.77-.33-.44-.67-.83-.77-.87-.09-.04-.14-.09-.1-.13.03-.03-.11-.18-.31-.31-.5-.34-.24-.4.31-.08.46.27.61.43 1.27 1.39.51.73.63.73.56.01-.08-.8-.48-1.54-1.13-2.12l-.55-.49.28-.06c.15-.03.49-.01.76.05.6.12.64.33.03.24l-.43-.07.45.47c.46.48 1.02 1.56 1.02 1.96 0 .13.05.3.11.38.17.25 0-.75-.21-1.26-.24-.54-.04-.62.29-.11.11.17.21.26.21.19 0-.1.05-.1.2-.02.11.06.2.08.2.05 0-.21-.51-.98-.96-1.45-.75-.79-.7-.87.33-.49.94.35 1.81 1.38 1.96 2.31.1.64-.1.51-.32-.2-.3-1-.61-1.37-1.46-1.76l-.4-.18.32.34c.17.18.4.47.5.65.11.18.32.42.47.54.2.16.26.28.22.43-.08.31.13 1.28.4 1.83.27.56.3.41.09-.4-.19-.73-.19-.83-.01-.68.08.06.19.33.26.59l.13.47.08-.5c.08-.49-.01-1.13-.23-1.68-.13-.34-.02-.49.18-.23.14.2.14.2.14 0 0-.27-.5-1.05-.85-1.32-.33-.26-.26-.4.1-.24.34.16.34.15.28-.08-.03-.11-.24-.35-.47-.52-.52-.42-.65-.58-.65-.83 0-.14.02-.16.06-.05.09.24.45.6.85.86.25.16.38.33.43.56.04.18.21.59.37.9.35.69.37 2.41.02 3.28-.35.89-.24 2.2.24 2.77.21.27.65.92.98 1.47.32.54 1.03 1.48 1.56 2.1 1.05 1.19 1.43 2.02.43.91l-.54-.6-.01.35c0 .28.07.4.36.63.21.17.33.35.3.43-.03.09.04.16.19.2s.25.13.25.24c0 .17-.02.17-.37-.01-.64-.33-.97-.14-.49.28.3.25.56.29.74.11.09-.09.12-.06.12.15 0 .43-.58.38-1.1-.09-.36-.33-.56-.65-.3-.49.06.04.1-.14.1-.47v-.52l-.17.24c-.48.68.23 1.9 1.02 1.77.43-.07.45-.04.29.41-.17.49-.17.62.01.62.08 0 .15.07.15.16 0 .14-.08.16-.49.12l-.49-.05.1.36c.06.2.08.76.05 1.24-.04.62-.02 1 .08 1.27.07.21.17.72.21 1.12.08.9.11.94.34.66l.19-.23.01.26c0 .15-.07.43-.15.62-.2.49-.2 1.27 0 1.27.18 0 .2.36.03.43-.1.03-.1.09 0 .26.17.29.16.82-.01.75-.32-.12-.42.26-.13.49.24.2.27.28.24.72l-.03.5-.16-.35-.16-.35-.05.95c-.11 1.69-.36 1.94-.3.3l.04-1.35-.38.36c-1.16 1.09-2.07 1.16-4.22.32-1.34-.52-1.24-.55-1.1.32.11.67.15.74.89 1.57.42.48.89 1.07 1.05 1.32.32.51.44.56 1.36.56.91 0 .9-.07-.05-.88-.95-.82-3.01-2.89-2.72-2.74.11.06.7.57 1.3 1.14.61.57 1.46 1.35 1.9 1.73s.8.74.8.79c0 .18-.77.37-1.38.34-.31-.02-.57-.02-.57-.01 0 .02.15.24.34.5.18.27.46.72.6 1.01.31.61.65.83.95.61.1-.08.5-.36.87-.63.38-.27.77-.59.86-.7.17-.2.18-.19.18.41 0 .59-.02.65-.75 1.79-.42.64-.78 1.29-.81 1.43s-.16.63-.3 1.07c-.13.45-.24 1.08-.24 1.39v.57l.4-.48c.61-.73 1.17-1.95 1.41-3.04.24-1.13.29-1.21.29-.48 0 2.98-3.54 6.59-6.99 7.14-.69.11-.46-.11.37-.35.77-.22 2.21-.86 2.55-1.13.17-.13.17-.17-.11-.78-.69-1.54-1.36-3.69-1.3-4.18.02-.19.12.03.31.72.31 1.09.82 2.5 1.23 3.39l.26.57.3-.17c.16-.1.44-.33.6-.52l.31-.35-.07-1.08c-.08-1.17-.32-2.16-.56-2.29-.59-.3-2.21-1.23-2.5-1.43l-.35-.24-.45.24c-.25.13-.6.26-.78.3l-.32.07v-.57c0-.69-.07-.83-.8-1.63-.31-.35-.72-.9-.89-1.23-.38-.72-.51-.79-.98-.56l-.36.17.07.55c.19 1.65.8 4.38 1.27 5.74.74 2.13.89 2.68.88 3.3l-.01.55-.1-.45c-.17-.78-.54-2.01-.93-3.05-.56-1.51-1.35-5.14-1.35-6.2 0-.22-.03-.26-.17-.2-.1.05-.4.13-.66.19-.45.1-.48.12-.47.41.03.51-.01.52-.13.05-.11-.42-.14-.45-.42-.42-.19.02-.26 0-.2-.06.16-.15.76-.32 1.13-.32.22 0 .6-.14 1-.36l.64-.36 1 .16c1.2.2 1.11.29.98-.85-.12-1.05-.12-1.04-.37-.91-.1.06-.52.15-.92.21-.81.11-1.48.48-2.82 1.57-.54.44-.73.54-1.05.54-.28 0-.45.07-.66.27-.35.33-.35.31.03.95.75 1.26 1.07 2.65.89 3.84-.09.61-.08.81.06 1.3.26.9.02 2.85-.38 3.1-.19.12-.19-.06.01-.71.21-.67.27-1.45.15-2.04l-.07-.32-.27.48c-.33.57-.94 1.22-1.5 1.59-.5.34-.68.21-.2-.14 2.06-1.53 2.55-4.01 1.29-6.49-1.41-2.8-3.77-3.58-7.79-2.56-.91.23-1.77.44-1.91.47-.25.05-.46.32-.35.44.03.02.2-.05.39-.17.5-.3.56-.26.18.13-.74.76-2.52.94-2.92.3-.17-.28-.24-.33-.3-.22-.11.2-.05.5.17.83.09.14.14.28.11.32-.04.03-.16-.11-.28-.31-.11-.2-.26-.36-.31-.36-.11 0-.06-.63.06-.92.12-.27-.2-.23-.38.05-.08.12-.4.8-.72 1.5l-.57 1.29.54 1.05c.29.58.7 1.27.92 1.52.72.87.98 1.56 1.08 2.83.04.62.13 1.42.19 1.77.11.65.06 1.21-.11 1.21-.05 0-.09-.21-.09-.47 0-.27-.05-.66-.1-.88-.06-.22-.14-.92-.19-1.56-.1-1.17-.27-1.73-.75-2.34-.15-.19-.15-.18-.16.25 0 .25-.07.56-.16.7-.14.25-.14.25-.08-.11.15-.94-1.49-4.6-2.01-4.47-.13.03-1.2 1.54-1.85 2.6l-.41.68.18.65c.09.36.2.65.23.65.13 0 .86-1.51 1.01-2.1.17-.64.17-.64.18-.23.01.58-.32 1.43-.8 2.03l-.4.51.16.82c.2 1.04.32 3.27.17 3.27-.06 0-.13-.3-.16-.67Zm-8.85-1.41c-.41-.39-.48-.42-.98-.42-1.1 0-1.86-.68-1.15-1.03.56-.29.69-.29 1.04.01.24.22.48.31.91.36.73.09.66.3-.09.24-.38-.03-.63-.12-.9-.33-.4-.3-.85-.27-.92.07-.06.33.37.42 1.98.44.85 0 1.61.02 1.69.03.29.02-.02.16-.37.16-.21.01-.59.02-.86.03l-.5.02.33.34c.49.51.33.58-.18.08Zm21.99.27c0-.12.05-.5.11-.84.17-.92.07-1.31-.38-1.46-.31-.1-.37-.09-.45.05-.11.2-.29.21-.22.01.05-.12-.05-.15-.53-.15-.82 0-.82 0 .15-1.09.48-.53 1-1.24 1.16-1.57.19-.37.31-.53.34-.42.07.32-.5 1.28-1.19 2.03l-.71.75h.64c1.35 0 1.71.5 1.42 2.02-.16.81-.34 1.17-.34.67Zm-6.16-2.57c.02-.25.27-.87.59-1.52.35-.67.66-1.48.83-2.12.34-1.3.61-1.9 1.14-2.53l.43-.5-.31-.03c-.46-.05-.64.09-1.4 1.1s-2.28 2.55-2.4 2.43c-.04-.04.25-.37.65-.73.39-.37 1.05-1.12 1.46-1.67.9-1.21.96-1.26 1.55-1.35.84-.13.88-.04.31.71-.58.78-.82 1.29-1.19 2.59-.19.67-.55 1.61-.88 2.25-.3.6-.61 1.26-.69 1.45l-.13.35zm20.49-2.8c-.5-.89-1.98-1.58-1.98-.92 0 .13 2.15 1.52 2.23 1.45.02-.02-.09-.25-.25-.53Zm.83-1.11c-.26-.27-.46-.56-.46-.68 0-.2-.21-.54-1.51-2.42-.24-.35-.67-.88-.95-1.19l-.52-.55.05 1.2c.04.88.01 1.52-.12 2.42-.22 1.45-.25 1.41.61.91.38-.22.75-.4.82-.4.08 0 .27-.08.43-.17.37-.22.43-.14.28.36-.07.23-.1.43-.08.45s.45.29.94.6l.9.55.03-.31c.03-.25-.05-.39-.42-.77Zm-34.61.12c1.41-.35 2.11-.72 2.56-1.34l.19-.27-1.23-.6c-1.82-.9-3.03-2.19-3.24-3.45-.03-.21-.1-.36-.17-.34-.16.06-.11 1.87.09 3.29.17 1.17.15 1.56-.04 1.05-.13-.32-.37-2.05-.46-3.19-.07-.85-.08-.88-.32-.88s-.42-.16-1.15-1.01c-.16-.18-.28-.4-.28-.5 0-.21.16-.25.23-.06.03.06.06-.22.07-.63.02-1.17.2-1.43.34-.47.03.23.16.48.35.67.16.17.35.46.41.65.12.37.24.44.34.2.1-.27.26-.15.26.2 0 .24.05.35.15.35.11 0 .15-.11.15-.41 0-.67.2-1.25.57-1.66l.35-.38-.29.55c-.43.84-.42 2.59.01 3.38 1.03 1.85 4.75 3.73 5.79 2.92.19-.15.57-.93.57-1.17 0-.02-.24 0-.54.03-.79.09-1.07-.11-.3-.22.33-.04.71-.07.85-.06.27.03.51-.41 1.04-1.93.3-.85.33-2.45.05-2.45-.22 0-.22.01-.16.9.1 1.25.07 1.31-.72 1.5-.25.06-.35.05-.39-.06-.03-.09-.2-.14-.42-.14-.6 0-.76-.32-.46-.9.18-.36.41-.41.3-.08-.22.71-.22.7.34.62.41-.05.55-.03.7.1.34.31.45-.01.36-1.07-.05-.5-.09-1.05-.09-1.22-.01-.16-.04-.34-.08-.4-.03-.06 0-.24.07-.4.1-.24.14-.27.2-.13.03.09.02.25-.04.36-.09.17-.08.19.09.15.33-.09.55.04.39.23-.12.14-.11.16.06.12.15-.03.19-.11.17-.31-.02-.22.01-.27.21-.27.27 0 .47-.17.47-.41 0-.09.11-.28.24-.42.62-.67.57-2.68-.09-4.16-.49-1.07-1.05-1.49-3.14-2.31-5.81-2.29-10.82 1.21-9.57 6.68.55 2.38.73 3.73.81 6.07.08 2.23.3 2.61 1.88 3.3l.57.25-.06-.28c-.04-.15-.35-.97-.69-1.82-.68-1.66-.88-2.3-.75-2.3.08 0 1.49 3.25 1.7 3.95.07.22.15.43.17.48.05.08.1.07 1.58-.3Zm30.44.28c.31-.2.44-3.09.23-5.4-.16-1.84-.2-1.92-.62-1.08l-.32.66.16 1.13c.09.62.16 1.54.16 2.04 0 1.14.11 2.74.19 2.74.03 0 .12-.04.2-.09ZM3.32 41.77c-.05-.06-.18-.3-.28-.51-.1-.22-.46-.68-.8-1.03-.68-.69-.84-.98-.63-1.18.35-.31 1.27.32 1.7 1.17.36.7.37 2 .01 1.55Zm40.18-.09c-.01-.28-.26-1.47-.33-1.54-.06-.07-1.11-.23-1.16-.18-.1.09 1.24 1.91 1.42 1.93.04.01.07-.09.07-.21Zm-19.9-1.44c.39-.84.4-.88.34-1.68s-.06-.83.3-1.52c.36-.68.36-.71.25-1.21-.15-.65-.06-.8.88-1.56.9-.72.89-.7.97-1.64.07-.73-.3-1.93-.59-1.93-.09 0-.59.92-1.05 1.94-.86 1.92-1.53 2.49-3.22 2.77l-.78.13v.72c0 .78-.23 1.67-.71 2.73-.37.82-.4.75.39 1.04.37.14 1.14.44 1.72.66s1.06.41 1.08.41.21-.39.42-.86Zm3.2.26c.09-.05.33-.59.53-1.22.21-.62.58-1.6.83-2.18.57-1.3.75-2.7.35-2.7-.17 0-.21.06-.21.3 0 .32-.41 1.23-.6 1.35-.24.15-.22-.07.05-.67.26-.57.27-.66.17-1.05-.07-.24-.12-.55-.12-.7 0-.24-.24-.63-.39-.63-.04 0-.17.2-.3.44l-.24.43.22.37c.13.2.18.36.12.36-.16 0-.6 1.06-.54 1.29.03.12-.02.32-.11.46-.13.2-.14.25-.03.25.23 0 .49-.37.52-.72.01-.18.05-.32.09-.3.03.01.11.02.16.02.26 0-.06.94-.39 1.15-.5.31-1 .2-.79-.18.07-.12.13-.38.14-.57 0-.19.05-.44.09-.54.07-.17.05-.19-.22-.13-.21.04-.35.01-.43-.08-.07-.08-.11-.15-.09-.16.02 0 .22-.03.44-.05.63-.08.86-.51.51-.97-.13-.17-.2-.13-.96.44-.95.72-.96.73-.81 1.37.11.45.1.52-.18 1.13-.29.6-.31.69-.25 1.44.07.92.27 1.29.38.71.09-.46.26-.37.26.13 0 1.21.8 1.74 1.8 1.21Zm10.46-.35c.32-.25.56-.35.81-.35.28 0 .5-.11 1.02-.54 1.29-1.04 2-1.45 2.66-1.51 1.07-.11 1.49-.38 1.96-1.29l.42-.79-.21-.43c-.19-.39-.23-.42-.49-.36-.47.13-.66.04-1.44-.71-.98-.94-1.52-2.15-1.08-2.42.07-.05.05-.13-.05-.24-.58-.64-1.09-2.91-.65-2.91.05 0 .09.13.09.3 0 1.3.57 2.33 1.59 2.85l.34.17-.07-.27c-.12-.47.18-.23.31.26.12.44.12.43.09-.31-.03-.62-.12-.97-.54-2.05-.54-1.37-.6-1.59-.4-1.53.07.03.32.51.55 1.09.24.57.5 1.19.58 1.37l.15.33.31-.25c.17-.14.41-.29.53-.32.21-.05.19-.09-.33-.59-.6-.57-1-1.15-.81-1.15.07 0 .34.22.61.48.73.72 1.3.97 1.86.85.47-.11.88.18.48.33-.12.05-.13.1-.04.2.13.15-.04.2-.88.27-.28.02-.77.15-1.08.28l-.56.24.03.86c.03.74.08.95.36 1.49.17.34.32.68.33.74.01.27.77 1.22 1.09 1.38 3.79 1.81 5.62 1.14 5.77-2.12.06-1.21-.25-3.17-.6-3.92-.4-.82-.4-.82-.75-.64-.17.09-.48.16-.69.17-.21 0-.47.04-.58.08-.13.05.04.08.44.07.63-.01.94.16.56.3-.09.04-.29.19-.44.35-.55.54-1.17.49-1.15-.1.02-.28 0-.3-.24-.24-.17.04-.29.01-.37-.11-.07-.09-.34-.23-.6-.3-.46-.14-.47-.14-.29.05.48.53-.52.21-1.15-.37-.62-.57-.85-1.02-.38-.72.12.08.49.23.82.33.33.11.62.23.66.27.16.22 1.09.27 1.51.09.24-.11.7-.25 1.03-.31l.59-.12-.27-.22c-.15-.12-.27-.27-.27-.33 0-.1-.7-.27-.78-.19-.02.03.04.16.14.31.51.78-1.73 1-2.42.24-.25-.28-.11-.34.36-.15.52.21.54.2.36-.06-.21-.29-.2-.42.02-.33.53.22 1.18.45 1.29.45.25 0 .13-.2-.2-.33-.44-.19-1.2-1.07-.91-1.07.03 0 .19.13.37.3.34.32.47.37.47.19 0-.08.14-.1.43-.06l.42.05-.37-.19c-.2-.1-.4-.24-.44-.3-.11-.18.46-.02.8.23.25.18.28.19.23.04-.28-.73-.13-.85.22-.18.11.2.34.51.51.67l.33.3-.07-.45c-.04-.25-.14-.55-.22-.68-.15-.22-.14-.23.05-.13.22.12.24.18.42 1.06.12.63.52 1.18.63.88.31-.8-1.03-4.51-1.49-4.13-.11.09-.19.06-.36-.14-.12-.14-.37-.27-.58-.31-.49-.08-.71-.22-.53-.34.22-.14-.83-.43-1.73-.49-.99-.05-1.85.1-2.5.45-.27.14-.88.45-1.35.68-1.65.83-3 2.85-3 4.5 0 .81-.6 3.86-1.02 5.15-.6 1.85-.84 2.26-2.26 3.68-1.16 1.17-1.33 1.42-.94 1.42.28 0 2.08-1.55 2.47-2.12.37-.56.49-.46.14.12-.3.5-.57.77-1.19 1.2-.3.22-.68.5-.85.63l-.29.24.39.2.39.2.55-.35c.67-.42 1.3-1 1.78-1.65.44-.6.55-.54.17.1-.37.63-1.14 1.38-1.75 1.69-.56.28-.59.35-.24.54.33.18.58.04 1.41-.73 1.46-1.35 2.17-3.81 1.9-6.52l-.06-.6.17.35c.27.54.24 2.69-.05 3.74-.46 1.66-1.26 2.93-2.32 3.68l-.6.42.22.23c.27.28.19.3.74-.12Zm-7.99-.89c1.89-.47 2.42-.56 3.47-.56 1.55 0 1.59-.26.56-3.93-.71-2.53-1.32-3.77-1.85-3.77-1.28 0-2.55.47-2.55.94 0 .19-.05.47-.1.61-.09.23-.06.32.16.58.23.27.25.37.2.77-.03.25-.08.76-.09 1.15-.04.72-.11.94-.91 2.9-.78 1.91-.87 1.8 1.11 1.31Zm-10.92-.12c-.17-.07-.42-.15-.57-.19-.37-.07-.38-.42-.01-.56.85-.32 2.09-.23 1.86.15-.04.06-.06.18-.05.28.05.31-.76.52-1.23.32Zm17.7-2.94c.46-.64 1.35-2.71 1.35-3.17 0-.01-.15-.05-.32-.08-.48-.11-1.36-.54-1.72-.85-.53-.46-.86-.48-.76-.05.1.44.27.65.51.65.11 0 .19.04.19.1s-.11.1-.25.1c-.33 0-.65-.51-.65-1.02 0-.39-.13-.51-.24-.22-.03.09-.06.4-.06.7 0 .61-.04.63-.69.34-.53-.25-.56-.23-.37.26.23.59 1.03 3.5 1.17 4.26l.12.66.69-.61c.38-.34.84-.82 1.03-1.07Zm-24.91-.94c-.03-.08.01-.27.09-.43.25-.48-.21-1.73-.65-1.73-.45 0-.7.46-.67 1.18.04.67-.1.96-.23.5-.19-.68-.09-1.29.27-1.65.7-.7 1.45-.21 1.62 1.07.09.65-.26 1.5-.43 1.06Zm5.86-.13c-.25-.09-.5-.35-.5-.51 0-.08-.08-.21-.17-.28-.35-.25 1.14-.58 1.63-.36.19.1.24.09.24-.03 0-.22.17-.18.3.05.13.24.04.44-.16.36-.09-.03-.14.02-.14.14 0 .11.05.2.1.2.06 0 .1.09.1.2 0 .29-.18.24-.39-.1-.16-.27-.2-.29-.31-.15-.19.23-.46.18-.75-.12-.16-.19-.25-.23-.25-.13 0 .29.18.42.64.47.47.06.59.16.3.27a.94.94 0 0 1-.64-.01Zm30.3-.07c-.61-.16-.62-.37-.06-.76.29-.19.46-.39.46-.51 0-.16.05-.18.25-.13.17.04.32.01.43-.09.2-.18 1.42-.28 1.42-.11 0 1.19-1.19 1.95-2.5 1.6Zm-33.96-1.1c.01-.08.38-.43.82-.76.43-.34.81-.64.84-.67.15-.18-1.28.67-1.61.95-.44.37-.56.22-.16-.22.19-.22 2.16-1.36 2.34-1.36.04 0-.04.13-.18.28-.13.16-.08.11.12-.1.42-.44.71-.52.45-.13-.2.3-.12.31.3.06.39-.24.7-.74.79-1.26.17-1.04.4-.97.32.09-.05.66-.05.69.08.41.08-.16.14-.38.15-.47 0-.22.16-.32.26-.16.11.17.22-.18.23-.7.01-.26.05-.41.11-.37.2.12.11.89-.15 1.27-.14.2-.25.45-.25.54 0 .3.48-.24.81-.91l.29-.6-.01.5c0 .27.06.9.13 1.39l.13.89.18-.37c.09-.2.17-.6.17-.88 0-.74.23-.47.3.35.06.79.31.49.32-.39.01-.45.03-.52.14-.43.08.06.14.28.14.49 0 .26.05.4.16.44.18.07.18.03-.02-1.19-.1-.6.12-.32.3.4.21.79.2 1.28-.04 1.75-.25.5-.25.52.05.44.34-.08.32.08-.04.29-.38.22-.48.21-.56-.03-.07-.23-.45-.11-.45.15 0 .08-.07.15-.16.15-.11 0-.15-.06-.11-.2.08-.31-.22-.25-.35.08l-.11.27-.07-.35c-.03-.21-.11-.34-.19-.32-.07.01-.26-.09-.43-.23-.16-.14-.36-.25-.44-.25s-.14-.04-.14-.1c0-.16.23-.11.5.1.32.25.47.25.55-.01.05-.15.02-.25-.08-.3-.11-.06-.13-.2-.1-.53.09-.79-.03-.87-.43-.27-.31.46-1.42 1.41-1.65 1.41-.22 0-.06-.32.24-.5.36-.22.63-.65.46-.75-.05-.04-.27.09-.48.27-.22.18-.63.41-.93.52-.29.1-.92.45-1.41.77-1.01.69-1.16.77-1.13.55Zm13.76-1.28c0-.32.2-.29.51.06.4.47.44.43.64-.66.43-2.27.29-2.84-.75-3.21-.49-.17-.73-.45-.27-.32.18.06.15.01-.13-.24l-.35-.32.35.17c.19.09.43.24.52.33s.28.27.42.4l.26.23v-.25c0-.95-.75-2.13-1.62-2.57l-.63-.31-.13.65-.13.65.31.42c.68.94 1 3.19.66 4.66-.19.86-.13 1.19.15.76.11-.15.19-.36.19-.45Zm18.05.32c.04-.22.15-.68.26-1.02.28-.94.25-1.01-.23-.56-.45.41-.88.5-1.23.24-.41-.3.2-.75 1.14-.83.86-.08.89.01.5 1.41-.31 1.12-.58 1.58-.44.76Zm-11.3-.59c-.12-.54.39-1.38.65-1.06.23.27.31.16.1-.13-.12-.16-.24-.48-.27-.72l-.06-.43-.23.63c-.28.79-.78 1.33-1.16 1.27-.53-.07-.25.32.39.55.65.22.66.22.58-.11Zm3.55.24c0-.02-.22-.16-.48-.29-.73-.37-.84-.6-.13-.26.83.41.84.4.77-.27-.03-.32-.1-1.11-.17-1.75-.07-.77-.08-1.26-.01-1.45.08-.23.1-.11.16.72.08 1.13.16 1.78.22 1.72.08-.08.25-1.15.34-2.17.05-.58.11-1.14.12-1.25.02-.15-.05-.2-.34-.26-.38-.06-.38-.06-.39.3-.02.35-.02.34-.09-.09-.04-.25-.19-.65-.33-.9-.38-.63-.18-.79.6-.49.15.06.47.14.71.19l.43.08.26-.51c.2-.4.22-.52.12-.56-.08-.02-.48-.22-.89-.44-.64-.33-2.48-.92-2.58-.82-.02.02.15.35.38.73.67 1.14.61 1.73-.31 2.57-.34.32-.31.21.08-.33.64-.86.62-1.14-.17-2.41-.48-.78-1.02-1.15-.86-.59.14.5.18 2.21.08 3.73-.17 2.7.12 3.86 1.1 4.36.57.29 1.38.55 1.38.44ZM1.42 31.47l.77-1.12-.27-.16c-.15-.09-.51-.19-.8-.21l-.52-.05-.1.36c-.35 1.33-.37 1.72-.12 2.06.23.33.18.38 1.04-.88Zm22.24.64c.52-.24.68-.37.79-.65.19-.46.35-1.78.21-1.72-.9.4-1.46.57-1.92.59l-.56.02.06.35c.03.19.06.68.06 1.09v.74l.36-.06c.2-.03.65-.2 1-.36Zm9.89-1.82c.72-.8.97-1.61 1.09-3.54l.07-1-.2.48c-.11.27-.44.74-.73 1.05-.3.32-.76.95-1.02 1.42-.27.47-.64 1.04-.83 1.28-.2.24-.34.44-.32.46.08.06.96.24 1.25.25.25.01.39-.08.69-.4Zm-1.92-.42c.19-.24.61-.88.94-1.43l.58-.99.03-1.15.04-1.15-.44.42c-1.33 1.29-3.23 1.34-4.83.13-.34-.26-.67-.5-.73-.54-.32-.2.02 1 .4 1.42.46.5.81 1.23.98 2.05.25 1.2 2.35 2.06 3.03 1.24Zm-28.47-.7c2.36-3.04 2.4-3.16 1.87-5.42-.27-1.19-.6-1.67-.44-.63.23 1.36.18 1.91-.18 2.13-1.14.7-1.84 1.51-2.85 3.26-.61 1.07-.62 1.18-.06 1.19.14 0 .39.09.55.19.16.11.32.2.35.2s.37-.41.76-.92Zm5.59.24c.2-.38.61-.98.92-1.33.3-.35.63-.81.74-1.03.1-.22.28-.57.4-.77.27-.45.15-.68-.38-.68-.83 0-1.2.33-1.96 1.8-.29.58-.68 1.27-.85 1.53-.36.57-.34.64.16.94.53.32.57.3.97-.46Zm15.3.23c.76-.37 1.15-1.07 1.46-2.59.33-1.61.11-4.31-.39-4.81-.18-.18-1.05-.15-1.24.04-.08.08-.05.09.11.05.35-.09.25.21-.17.51-.21.14-.48.26-.59.26-.12 0-.25.04-.28.1-.1.16-.35.12-.35-.05 0-.09.07-.18.15-.21.08-.04.12-.1.09-.16-.03-.05.02-.19.13-.3.18-.21.18-.21-.02-.14-.49.18-1.15.19-1.15.02 0-.09.08-.16.19-.16.25 0 .37-.18.17-.26-.13-.05-.31-.28-.85-1.14l-.23-.35.05.84c.03.5.02.8-.04.74-.05-.05-.12-.51-.15-1.03-.1-1.48-1.33-2.8-2.6-2.8-.5 0-.41.17.19.34.8.23 1.95 1.25 2.03 1.79.26 1.78.32 1.94.87 2.27.18.11.45.2.6.2.16 0 .26.04.22.1-.03.06-.17.1-.3.1h-.25l.27.58c.47 1.04.77 2.14.49 1.81-.05-.06-.75-1.67-.9-2.05-.06-.17-.26-.44-.44-.59-.43-.36-.59-.7-.68-1.36-.16-1.31-.88-2.2-2.13-2.63-.23-.07-.51-.11-.63-.08-.18.04-.19.03-.09-.17.07-.11.16-.21.2-.21.05 0 .08-.07.07-.17-.01-.21.43-.33.88-.23 1 .22 2.13 1.26 2.81 2.6.54 1.03.82 1.3 1.34 1.3.5 0 .79-.19.31-.2-.19-.01-.48-.07-.65-.15l-.3-.13.26-.01c.14-.01.48.06.75.15.27.08.86.18 1.3.22l.81.07-.01-.3c-.02-.21-.07-.3-.19-.29-.09.01-.17-.02-.17-.07s.09-.09.2-.09.2-.03.2-.07c0-.19-.72-2.33-.8-2.38-.05-.03-.38-.42-.73-.85-1.48-1.84-2.72-2.32-4.92-1.91-1.31.24-1.44.29-1.73.71-.2.29-.34.39-.53.4-1.29.01-2.29.79-3.19 2.49-.3.57-.83 1.36-1.17 1.77-.76.88-.81 1.2-.32 1.97.28.46.31.48.48.33.33-.3.45-.08.14.27-.17.18-.17.2.06.38.53.44.6-.38.1-1.27-.37-.65-.36-1.3.03-1.86.13-.18.24-.35.25-.37.15-.24.1.22-.08.77l-.22.7.37.75c.35.7.36.78.28 1.3-.05.31-.05.62-.01.69.12.18.11.3-.01.23-.06-.04-.1.13-.1.44 0 .57-.03.55.89.44l.54-.06-.06-.79c-.04-.43-.03-.78.02-.78.09 0 .21.72.21 1.26 0 .31.03.34.3.34s.3-.02.24-.25c-.04-.18-.02-.25.09-.25.08 0 .17.13.2.29.04.2.13.3.31.33.3.06.29.1.11-.67-.14-.59-.2-1.23-.1-1.13.03.02.1.31.16.64.2 1.13.25 1.22.82 1.39.64.19.67.19.67-.02 0-.13.07-.09.28.15.33.39 1.82 1 1.82.75 0-.22.25-.1.28.15.02.11.15.28.3.38.15.09.39.28.55.42l.27.26v-.37c0-.19.05-.39.1-.42.11-.07.13.04.11.6-.02.38.35 1.4.62 1.74.2.23 1.33.1 2.02-.25ZM1.42 28.15c.58-1 1.3-1.94 1.88-2.49l.5-.47-.25-.99c-.26-1.04-.32-1.65-.15-1.75.06-.03.1.01.1.11 0 .53.55 2.45.69 2.42.45-.09.17-2.42-.38-3.2-.21-.29-.53-.81-.72-1.16-.18-.34-.37-.62-.41-.62s.02.15.13.34c.16.28.17.35.05.45-.08.07-.26.36-.4.66l-.27.53.17.72c.22.96-.17 2.24-1.01 3.34-.16.21-.25.42-.21.52.03.09-.03.46-.13.82-.11.37-.22.94-.24 1.26-.05.69-.02.67.65-.49Zm6.64-.64c1.09-2.06 1.41-2.31 2.9-2.31.61 0 .9-.14.76-.36-.18-.28-.56-.34-2.06-.34-1.75 0-1.83-.04-1.21-.59.43-.38.49-.38.43-.06l-.05.25h.86c.92 0 1.15-.07 1.01-.29-.04-.08-.06-.19-.04-.25.06-.2-.4-.99-.63-1.07-.46-.16-.57.16-.23.66.54.79.32.92-.26.15-.41-.54-.45-.56-1.04-.38-.35.11-.39.15-.33.38l.06.25-.2-.24c-.32-.39-.94.15-1.55 1.33-.25.5-.07.78.37.58.45-.21.63-.16.38.1-.13.13-.33.21-.52.2l-.31-.01v.95c0 .88.03 1.01.36 1.74.45.98.42.99 1.3-.69Zm13.98.79c-.4-.16-.43-.5-.09-.95.13-.16.17-.17.24-.06.11.18.48.05.56-.2.04-.13.15-.19.35-.19.16 0 .31-.04.35-.09.08-.14 1.15-.43 1.32-.36.13.04.11.1-.08.29-.35.35-.53.58-.64.81-.23.46-1.53.95-2.01.75Zm12.07-1.95c.3-.65.26-1.58-.08-1.9-.5-.46-.53-.39-.53 1.22v1.46l.21-.19c.12-.1.3-.37.4-.59Zm-11.67.19c-.07-.1-.21-.11-.62-.02-.51.1-.55.1-.79-.15l-.26-.26.12-1.14c.07-.63.1-1.24.06-1.36-.1-.32.14-.26.26.06.07.2.07.58-.01 1.31-.14 1.24-.09 1.37.54 1.26a5 5 0 0 1 .62-.08c.33-.01.55-.25.48-.52-.08-.33.14-.31.26.02.13.33.15.29-.24.67-.25.25-.35.3-.42.21Zm9.31-.66c.44-.23 1.25-.9 1.25-1.04 0-.02-.13.05-.3.17-.31.24-.35.24-2.43.2-.64-.01-1.05-.06-1.02-.12.04-.05.1-.09.15-.09s.21-.05.36-.1l.26-.1-.65-.5c-.36-.27-.93-.81-1.28-1.19-.34-.39-.66-.68-.71-.65-.04.03-.09-.01-.09-.08-.02-.24-.05-.33-.26-.78-.34-.71-.39-1.54-.14-2.19.14-.38.17-.58.1-.67-.4-.48.3-3.24 1.05-4.16.75-.91 2.25-2.08 2.67-2.08.35 0 .19.19-.52.61-1.96 1.17-2.6 2.16-2.91 4.54-.16 1.25-.16 1.2.05 1.19.2-.02.2 0 .06.29-.14.3 1.83-1.76 2.23-2.33.18-.24.39-.71.48-1.04.19-.68.47-.93.36-.32-.04.21-.09.45-.12.54-.05.14-.04.15.04.02.05-.08.15-.4.22-.7.17-.76.25-.87.62-.95.18-.03.66-.16 1.07-.27l.73-.22-.05-.7c-.06-.81-.44-1.86-.82-2.26-.14-.14-.25-.36-.25-.47 0-.43-1.38-.38-2.21.09l-.39.22.27.12c.22.09.34.08.57-.04.35-.17.96-.24.96-.11 0 .05-.09.09-.2.09-.12 0-.38.09-.59.19-.37.2-.79.19-.92-.02-.09-.13-.63.17-1.36.75-1.22.96-1.77 1.79-2.34 3.47-.32.92-.37 1.26-.12.71.26-.59.25-.17-.03.91-.32 1.26-.33 2.13-.05 3.23.12.44.21.88.21.99 0 .1.06.31.14.45.08.15.31.63.52 1.06.51 1.08.55.85.17-1.19-.04-.22-.02-.27.06-.19.19.18.51 1.73.55 2.63.03.94.09 1.03 1.25 1.83.93.65 2.38.76 3.36.26Zm-4.92-.35c-.03-.27-.12-.58-.2-.7-.11-.17-.12-.25-.02-.41.14-.23-.08-.94-.41-1.34l-.19-.23-.01.45c-.01 1.66.12 2.37.44 2.53.45.23.46.22.39-.3ZM19 25.15c0-.03.24-.16.54-.29.61-.27.78-.44.37-.38-.28.04-.51-.21-.31-.33.39-.24.04-.31-.56-.12-.65.22-.91.16-.8-.18.01-.05-.04-.15-.13-.22-.14-.11-.13-.12.09-.13.6-.03.68-.16.24-.38-.23-.12-.57-.4-.77-.62-.33-.39-.34-.39-.29-.13.03.2.01.25-.06.18-.14-.13-.42-1.2-.42-1.62 0-.4.17-.44.26-.05.34 1.54 1.24 2.35 2.39 2.14 1.35-.25 1.84-.06.88.35-.3.12-.49.31-.2.2.33-.12.82.41.49.55-.04.02-.18.17-.3.35-.29.41-1.42.95-1.42.68Zm13.4-.4c1.04-.54 2.34-2.99 2.29-4.33-.03-.66-.01-.86.09-.84.09.02.09-.05-.02-.27-.18-.33-.42-.46-.5-.25-.07.19-.63.18-.73-.01-.07-.13-.13-.13-.36-.03-.36.17-.34.24.15.7.44.41.44.47-.02.23-.51-.27-.86-1.15-.46-1.15.08 0 .31-.1.52-.22.37-.22.63-.2 1.27.07.16.07.18.04.15-.21-.03-.32-.04-.32-1.23-.23-1.04.07-.94-.33.14-.58 1.22-.27 1.11-.75-.69-3.14-.15-.2-.15-.2-.97 0-1.03.24-.97.2-1.12.88-.15.64-.32 1.02-.67 1.5-.31.41-.33.37.36.58.62.19.86.36.75.54-.08.14-.57.03-1.23-.26-.64-.28-.58-.31-1.67.85l-.88.93.07 1.32c.08 1.51.09 1.52 1.05 2.47 1.44 1.42 2.77 1.94 3.71 1.45Zm17.07-.96.21-.37-.52-.37c-.28-.21-.69-.52-.9-.69-.22-.16-.36-.23-.32-.15s-.04.01-.18-.14-.26-.35-.26-.44c0-.18.06-.14.73.44.2.18.41.33.45.33.05 0 .21.1.36.23.55.47.86.61.86.38 0-.13-.13-.28-.37-.41-.37-.21-.35-.21.16-.05.28.09.25.03-.34-.7-.22-.28-.73-1.03-1.13-1.67-.81-1.3-.89-1.39-.96-1.06-.22 1.13-.31 1.5-.46 1.96-.17.46-.17.56-.04.8.07.15.14.43.14.64 0 .36.01.37 1.08.93.59.31 1.11.61 1.16.66s.1.08.11.06c.01-.01.11-.18.22-.38Zm-12.53.05c-.01-.05-.05-.29-.09-.54-.1-.63.13-.39.25.26l.09.49-.04-.5c-.02-.27-.06-.61-.1-.75l-.07-.25.2.22.19.22.06-.42c.03-.23.09-.61.13-.84.06-.38.03-.45-.24-.73-.44-.43-.53-.39-.94.43-.2.39-.58 1.02-.86 1.38l-.5.67.38.11c.47.14.5.14.5-.03 0-.14.67-.52.76-.43.03.03-.09.15-.25.27-.38.27-.4.47-.03.53s.57.03.56-.09Zm1.54-.04c.02-.05.1-.06.18-.03.18.07.3-.25.15-.4a.47.47 0 0 1-.11-.29c0-.1-.18-.54-.39-.98l-.39-.8-.05.37c-.08.57-.26 1.74-.33 2.07l-.06.29.48-.08c.27-.04.5-.11.52-.15Zm-36.5-.17c.12-.03.22-.1.22-.17-.01-.16-.48-2.22-.5-2.16-.44 1.41-.5 2.61-.11 2.44.09-.04.26-.09.39-.11Zm29.2-.03c-.29-.18-.2-.28.2-.23s1.13-.15 1.19-.33c.02-.07-.28-.13-.87-.17-1.36-.1-2.31-.59-1.38-.71.72-.1 1.97-.13 2.05-.06.22.2.74.19.94-.01s.38-.14.39.13c0 .03.08.08.18.11.19.04.08.11-.4.21-.15.04-.35.2-.47.4-.37.59-1.37.94-1.83.66Zm3.94-.81c.3-.43.43-.72.44-.98 0-.2.09-.7.18-1.11.13-.55.17-1.07.14-1.98-.03-1.28.05-1.62.17-.65.15 1.33.09 2.44-.18 3.23-.28.84-.12.72.33-.25.17-.37.25-.66.2-.75-.13-.25-.23-1.5-.12-1.5.16 0 .22.27.22.96 0 .36.04.64.1.64.46 0-.41-4.43-1.12-5.69-.41-.71-.14-.63.29.09.38.62.7 1.53.89 2.53l.14.72-.04-1.3c-.1-2.79-1.29-4.68-3.89-6.14-.63-.36-.92-.23-.49.22.48.5.92 1.73.92 2.56v.69l.55.04c.63.05 1.1.41 1.46 1.11.26.5.46 1.87.31 2.13-.1.16-.11.12-.12-.26-.01-1.43-.85-2.7-1.77-2.7-.43 0-.42.1.1.73.54.67.84 1.35 1.17 2.7.14.59.29 1.05.32 1.02.06-.06 0 1.25-.08 1.92-.03.23-.28.88-.57 1.45-.28.57-.53 1.06-.55 1.11-.02.04.1.07.27.07.25 0 .36-.09.73-.61Zm-3.24-1.06c-.03-.14-.12-.17-.46-.15-.35.03-.47-.01-.71-.26l-.29-.29-.36.36c-.44.44-.58.35-.19-.14.54-.68 1.22-1.01 1.03-.49-.17.44-.01.61.48.48.19-.05.22-.12.18-.3-.07-.28.11-.33.21-.06.11.29.41.63.45.51.02-.06.15-.12.28-.13.33-.02.34-.17.05-.6l-.25-.37.34.26c.64.49.56 1.05-.15 1.05-.17 0-.32.06-.35.15-.08.2-.22.19-.26-.02Zm7.92-.29c-.06-.15-.29-.47-.5-.71-.22-.23-.4-.49-.4-.56s-.11-.24-.25-.37c-.33-.31-.32-.38.1-.46l.35-.06-.21-.29c-.39-.55-.73-.41-.66.27.03.3.11.62.17.69s.13.28.15.47c.06.43.32.77.86 1.09.52.31.53.3.39-.07Zm4.12.06c-.12-.1-.28-.2-.34-.22-.19-.07.3-.62.75-.87.39-.21.68-.26.8-.14.04.03.33.06.64.07.52.01.58.03.61.23.02.16-.01.21-.1.18-.08-.03-.21.1-.33.32-.34.64-1.49.88-2.03.43Zm-32.31-.99c-.1-.17-.11-.4-.06-.8.08-.67.08-.73-.01-1.33-.05-.38-.03-.52.15-.76.29-.41.28-.8-.03-.92-.68-.25-.9-2.2-.25-2.2q.105 0 .03.18c-.3.69-.15 1.45.36 1.77.47.3.53.67.19 1.22-.17.27-.2.44-.15.86.09.9-.06 2.27-.23 1.98Zm19.09-.37c0-.06.07-.33.15-.6s.15-.5.15-.51c0-.02-.08-.03-.19-.03a.48.48 0 0 1-.31-.15c-.11-.14-.14-.13-.25.01-.09.13-.2.15-.46.1-.19-.04-.51-.07-.71-.07-.78.01-.12-.49.76-.59.6-.06.61-.06.23-.14-.45-.1-.59-.26-.22-.26.35 0 1.06.32.83.37-.19.05-.15.13.3.59.24.23.24.23.06.71-.18.49-.34.76-.34.57Zm12.96-.16c-.3-.17-.08-1.48.25-1.48.07 0 .08.07.04.18-.22.52-.18 1.02.07 1.02.45 0 .63-.22.46-.56-.09-.16-.21-.54-.28-.84s-.22-.72-.33-.92c-.11-.21-.17-.41-.13-.45.13-.13.44.35.61.95.4 1.44.59 1.75.94 1.53.13-.08.13-.16.02-.48-.35-1.04-.39-1.23-.32-1.23.05 0 .23.37.42.81.38.96.35 1.07-.37 1.25-.27.07-.65.17-.85.22-.22.06-.43.06-.53 0ZM6.59 18.24c1.64-1.74 2.18-2.73 2.36-4.26.06-.56.06-.58-.17-.58-.22.01-.22.01-.04.15.29.22-.05.31-.37.1-.3-.19-.42-.58-.27-.85.13-.25.81-.28 1-.05.14.16.3.2.3.06 0-.04-.2-.19-.45-.32-.33-.17-.45-.29-.41-.41.02-.1.01-.2-.04-.23-.04-.03-.04-.22.01-.42.12-.53.1-.64-.05-.23-.13.36-.32.43-.3.11 0-.16-.03-.17-.23-.08-.13.05-.23.16-.23.23 0 .33-.37.34-.76.03-.2-.16-.57-.34-.81-.4s-.43-.15-.43-.2c0-.15-.26-.1-.81.15-.97.45-.86.11.14-.4.5-.26.59-.47.27-.64-.11-.06-.2-.2-.2-.32 0-.17-.02-.19-.16-.08-.13.11-.16.1-.21-.1s-.08-.18-.22.2c-.17.47-.37.62-.44.33-.03-.15-.06-.13-.15.09-.15.36-.72.95-.97 1-.11.02-.24.13-.3.26-.05.12-.14.22-.2.23-.05 0-.24.17-.42.38l-.31.37.08.77c.24 2.09.61 2.93 1.97 4.42 1.5 1.64 1.85 1.73 2.82.69Zm5.95.21c-.04-.08-.03-.3 0-.48.18-.92.18-1.2.01-1.8-.09-.34-.26-.7-.36-.8-.23-.21-.23-.35-.04-1.07.08-.3.15-.69.15-.86 0-.2.09-.41.26-.58.41-.4.63-.33.25.08-.18.19-.35.84-.48 1.87-.04.32-.02.37.2.43.49.12.96-.31.97-.88 0-.1.1-.38.22-.62.25-.51.02-1.06-.28-.66-.21.27-.18-.35.03-.73.1-.19.15-.49.14-.82-.01-.28.03-.54.08-.58.17-.1.13-.4-.09-.6-.13-.11-.2-.31-.2-.52 0-.19-.07-.41-.15-.49-.09-.09-.12-.25-.09-.43.05-.24.01-.31-.32-.5-.65-.39-.89-.06-.29.42.3.24.35.34.35.71 0 .35.05.46.3.64.17.13.3.29.3.37s.05.15.12.15c.09 0 .09.03 0 .12-.07.07-.12.29-.12.5s-.07.5-.16.63c-.19.29-.4.34-.29.08.28-.65.23-1.43-.11-1.77-.28-.28-.34-.42-.34-.76 0-.37-.03-.42-.31-.52-.31-.11-.31-.12-.26-.59.04-.35.02-.51-.09-.59-.16-.14-.2-1.45-.05-1.69.19-.29.4-.01.66.86l.33 1.13c.11.37.35.36.49-.01.07-.18.09-.37.05-.43-.09-.15-.22-1.06-.27-1.89-.04-.67.17-1.45.44-1.61.06-.04.11-.16.11-.27 0-.13.07-.19.21-.19.16 0 .2.05.16.2-.03.1.02.25.1.31.1.09.14.31.12.83-.03.64 0 .78.33 1.44.42.82.41.82.58-.15.23-1.31.37-.81.18.62-.02.14.02.19.12.16.82-.23 1.4.05 1.4.68 0 .22.08.34.33.5.31.19.47.41.61.83.09.31-.11.2-.33-.17-.11-.19-.32-.4-.46-.47-.17-.08-.29-.24-.36-.52-.14-.54-.26-.66-.6-.66-.3 0-.29-.01-.45.78-.08.42.06.69.46.87.47.21.84.6.97 1 .06.19.22.36.43.46.18.09.45.32.59.52.14.19.4.54.58.77.17.23.29.48.26.56-.08.21-.23.17-.23-.06 0-.1-.17-.36-.39-.57-.21-.21-.46-.51-.56-.66-.11-.16-.3-.31-.47-.34s-.32-.13-.35-.22c-.29-.93-.56-1.18-.73-.65-.13.38-.25.44-.33.14-.04-.17-.14-.2-.64-.2-.9 0-1.08-.14-1.08-.82 0-.96-.47-1.09-.59-.17-.08.58.07.9.22.48l.09-.24.07.23c.05.16.03.29-.08.41-.25.28-.19.49.24.76.21.13.44.33.49.44.12.21.97.35 1.18.18.09-.06.16-.02.22.17.11.27.29.34 1.01.38.44.03.45.04.44.36-.02.27.01.32.21.32.26 0 .62.39.71.77.04.13.14.23.23.23.12 0 .22.13.29.37.15.49.08.53-.18.12l-.21-.34.01.35c.05.97-.12.95-.29-.05-.17-1.04-.32-1.2-1.04-1.11-.64.08-.64.16 0 .86.3.33.69 1.08.6 1.16-.02.02-.18-.19-.36-.47-.38-.61-.44-.59-.32.07.05.27.11.73.12 1.03.04.73-.17.8-.25.09-.22-1.8-.39-2.38-.75-2.58-.27-.14-.26-.14-.26.23 0 .26-.04.33-.23.35-.13.02-.22.07-.2.1.02.04.1.2.18.35.11.23.19.27.44.25.29-.03.31-.01.32.32.01.19.11.59.24.87.29.68.23.83-.34.83-.59 0-.74-.07-.92-.41-.11-.22-.22-.29-.44-.29-.17 0-.38-.08-.49-.19-.13-.13-.23-.16-.35-.09-.09.05-.26.06-.38.02-.17-.05-.2-.03-.15.1.04.1.01.16-.08.16-.34 0-.86.35-.81.55.02.11.1.46.17.77.11.5.11.64-.04 1.1-.16.53-.16.53.03.3.26-.31.45-.19.23.14-.23.35-.52.49-.59.29Zm12.55-2.65c.04-.36.21-.95.36-1.3.42-.98.38-1.09-1.08-3.66-.51-.9-.59-1.09-.64-1.73-.03-.39-.08-.71-.1-.71-.83 0-1.97 1.83-2.28 3.65-.16.95-.16.94-1.24 2.43l-.6.82h.59c.58 0 .6-.01.6-.25 0-.32.26-.95.39-.95.05 0 .01.25-.1.56-.21.59-.19.74.11.74.74 0 1.93.79 2.75 1.83.98 1.23.99 1.23 1.07.14.05-.51.12-1.21.17-1.57ZM5.71 17.3c-.55-.4-.43-.58.15-.24.3.18.49.23.55.17.13-.13-.44-.62-.82-.7-.77-.15-.61-.43.27-.45 1.5-.03 1.96.57.96 1.26-.48.33-.6.33-1.11-.04Zm37.36-1.22c.24-.2-.21-.8-.96-1.29-.62-.4-.61-.4-.61.62v.92l.73-.08c.39-.03.77-.11.84-.17Zm-26.71-1c-.18-.59-.27-.74-.44-.76-.13-.02-.32-.2-.48-.47-.15-.27-.34-.45-.47-.47-.17-.02-.23-.11-.25-.35-.03-.27-.61-.83-.86-.83-.28 0-.23.43.08.75.19.19.41.53.47.75.11.36.15.4.46.4.18 0 .33.04.33.1s-.04.1-.1.1-.1.04-.1.1.09.1.2.1c.14 0 .25.12.36.39.11.28.24.43.45.5.36.12.38.25.04.19-.2-.04-.23-.03-.14.08.06.08.24.14.39.14h.28zm23.32.1c-.07-1.93.28-2.76 1.24-2.98l.33-.07-.27-.08c-.8-.21-1.64.57-2.1 1.95l-.18.55.05-.52c.11-1.3 1.25-2.45 2.26-2.28.51.09.5.08-.24-.52-.91-.74-1.41-.93-1.72-.63-.4.37-.64.22-.3-.19.27-.31.31-.33.74-.27.25.04.51.07.56.07.09 0 1.27-.4 1.32-.45.1-.09-.33-1.26-.53-1.47-.33-.34-.15-.47.18-.14.24.24.58 1.09.58 1.46 0 .16.08.19.48.19.26 0 .64.05.86.09l.39.09-.06-.51c-.25-2.16-.18-2.53.13-.67.19 1.22.19 1.22.72 1.43l.36.15.11-.44c.13-.52.59-1.59.66-1.53.02.03-.09.46-.25.97-.37 1.12-.37 1.19-.03 1.54.4.42.24.42-.4-.01-.77-.53-1.71-.75-2.86-.69-1.43.08-1.47.15-.56 1l.76.71-.24.16c-.85.56-1.04.71-1.24.92-.3.33-.43.72-.43 1.27 0 1.31-.28 2.08-.32.9Zm-32.69.31c-.19-.1-.46-.18-.61-.19-.53 0-.71-.43-.44-1.03.07-.18.19-.51.25-.73.1-.39.36-.73.46-.62.03.03-.03.24-.14.48s-.17.49-.14.56c.02.07-.03.24-.12.38-.27.41-.17.61.35.63.84.04.81.02.7.24-.13.23.02.26.2.04.11-.13.11-.26.01-.68-.17-.76-.27-2.37-.13-2.37.11 0 .17.31.28 1.45.03.38.13.87.21 1.08.27.67-.23 1.11-.88.76Zm19.44-2.65.37-.51-.58-.45c-.59-.45-1.62-1.11-1.62-1.03 0 .02.18.33.41.67.22.35.54.91.71 1.26.17.34.32.61.33.6 0-.02.18-.26.38-.54Zm-21.11-.47c-.12-.13-.22-.31-.22-.4 0-.11-.1-.17-.32-.19-.18-.02-.33-.07-.33-.13 0-.13 1.45-.18 1.77-.06.26.1.62.71.5.83-.08.08-.89-.28-1.1-.49-.16-.15-.32-.17-.32-.04 0 .19.33.41.62.41.39 0 .32.24-.08.28-.21.02-.36-.04-.52-.21Zm23.98-1.99c.85-.56.86-.56.69-1.22-.06-.24-.09-.54-.07-.67.02-.16.09-.01.22.46.23.86.25.88.68.8l.35-.07-.24-.76c-.34-1.09-.4-2-.18-2.57.21-.56.16-.63-.27-.38-.37.21-.78.92-.78 1.35 0 .15-.04.28-.1.28-.31 0-.07-1.14.34-1.59l.21-.23-.45.07c-.84.12-1.95.47-3.72 1.16-.97.38-1.81.69-1.86.69-.26 0-.22 1.67.05 2.33.13.3.32.47.94.84.43.26 1.02.65 1.31.88l.53.42.78-.64c.43-.34 1.13-.86 1.57-1.15Zm-21.33.5c.46-.51.59-1.83.25-2.48-.3-.56-1.42-1.24-1.42-.86 0 .08-.06.16-.12.19-.1.03-.09.09.03.23.09.1.22.49.28.86.11.63.09.89-.14 1.63-.04.16.03.25.32.42.48.28.55.28.8.01Zm24.05-1.5c-.24-.58-.26-.74-.27-2.1 0-1.5-.02-1.56-.35-1.38-.85.46-.44 3.62.52 3.97.18.06.34.12.35.12.01.01-.1-.27-.25-.61Zm5.2-1.95-.34-.37.31-.28c.18-.16.48-.31.71-.34.22-.04.43-.1.46-.15.07-.11.65.01.85.17.08.08.21.14.27.14.19 0-.24.95-.52 1.12-.38.25-1.38.08-1.74-.29Zm-23.17-.21c.08-.17.16-.21.33-.17.29.07.28.02-.09-.63-.24-.43-.3-.65-.29-1.06.03-.86.01-1.08-.1-1.01-.06.03-.1.24-.1.45 0 .44-.14.59-.29.33-.08-.14-.1.01-.11.59 0 .43.05.8.11.83.05.04.09.19.08.33-.05.66.23.86.46.34Zm37.02-.07C50.3 3.5 47.84.97 44.36.24c-.94-.2-.97-.28-.06-.21 3.18.23 7.08 4.25 6.88 7.08l-.03.44zM34.72 2.4c.09-.46 2.41-1.11 2.75-.77.2.2.03.47-.31.47-.11 0-.72.11-1.34.23-.98.2-1.12.21-1.1.07ZM35.89.68c-.01-.38-.02-.4-.08-.13-.06.28-.1.3-.58.35-.57.06-.63.01-.63-.5 0-.28-.02-.29-.58-.33-.47-.03-.43-.04.25-.05.82-.02.83-.02.83.23 0 .16.06.25.15.25s.15-.09.15-.25c0-.24.02-.25.65-.25h.64l.07.36c.08.42-.11.71-.27.42-.14-.24-.27-.22-.31.04-.06.42-.28.32-.29-.14ZM12.33.03c1.85-.02 4.89-.02 6.75 0 1.85.01.33.02-3.38.02S10.47.04 12.33.03Z"/></svg>