<svg xmlns="http://www.w3.org/2000/svg" width="51" height="51" viewBox="0 0 51 51"><path fill="#fff" fill-rule="evenodd" stroke="#fff" stroke-width=".735" d="M29.95 41.93c-.2-.05-7.28-2.6-11.45-4.13-1.18-.43-2.98-1.09-4-1.45-3.36-1.22-4.21-1.85-4.89-3.68-.59-1.59-.5-2.01 1.55-7.64.91-2.52 2.29-6.33 3.05-8.48.77-2.14 1.53-4.18 1.69-4.53.73-1.56 2.61-2.72 4.41-2.72.85 0 1.72.26 5.64 1.7 1.98.73 5.76 2.11 8.4 3.07s5 1.86 5.25 2.01c1.73 1 2.78 3.14 2.42 4.92-.17.82-6.43 17.95-6.78 18.56-1 1.74-3.43 2.83-5.29 2.37Zm2.49-.45c1.16-.38 2.19-1.27 2.71-2.33.21-.43 3.57-9.56 5.87-15.95.96-2.66 1-3.62.25-5.05-.72-1.34-1.45-1.81-4.62-2.95-3.41-1.22-4.3-1.55-7.5-2.73-8.99-3.33-9.05-3.34-11.04-2.32-1.44.73-1.81 1.34-3.26 5.4-.58 1.65-1.92 5.36-2.97 8.25s-1.99 5.54-2.1 5.9c-.59 2.09.34 4.36 2.19 5.33.75.39 17.25 6.43 18.13 6.63.67.16 1.54.09 2.34-.18ZM30 39.41c-2.9-1.05-3.25-1.19-3.28-1.35-.02-.09.01-.16.07-.16s.42-.14.79-.32c.6-.29 1.06-.71 4.63-4.25 3.55-3.53 4.19-4.12 4.19-3.85 0 .04-.32.95-.71 2.02-.38 1.07-1.03 2.9-1.43 4.05-.91 2.62-.96 2.73-1.36 3.19-.69.78-1.84 1.05-2.9.67Zm1.88-.27c.9-.37 1.1-.73 2.3-4.19.49-1.43 1.08-3.12 1.31-3.75l.41-1.14-3.72 3.7c-3.18 3.16-3.82 3.75-4.35 4.01l-.62.31 1.62.61c1.76.65 2.36.74 3.05.45Zm-11.33-3.17c-.6-.22-2.5-.91-4.21-1.53-3.48-1.25-3.56-1.29-4.01-1.76-.94-.98-.8-2.09.72-5.91.12-.28.26-.15.48.43.34.93.69 1.33 4.54 5.21 2.05 2.07 3.73 3.81 3.73 3.87 0 .16.02.16-1.25-.31Zm4.01-.28c-.22-.12-1.07-.87-1.89-1.67l-1.49-1.47.07-.45c.12-.88-.24-.8 3.47-.8h3.3l-.06.48c-.1.66-.56 3.24-.61 3.43-.18.57-2.03.9-2.79.48Zm-6.87-3.26c-3.47-3.5-4.09-4.19-4.3-4.78-.07-.19-.16-.35-.19-.35-.08 0-1.18 3.07-1.25 3.51-.23 1.3.45 1.91 3.25 2.94 1.97.72 5.69 2.03 5.79 2.04.02.01-1.46-1.51-3.3-3.36Zm8.68 3.05c.23-.06.49-.18.57-.27.11-.12.76-3.17.76-3.56 0-.03-1.37-.05-3.04-.05h-3.04l-.07.41-.07.42 1.28 1.29c2.01 2 2.23 2.11 3.61 1.76Zm3.73-3.5c0-.79.06-.88.59-.88.66 0 .67.05.09.69-.64.71-.68.72-.68.19Zm-13.39-3.94c-1.83-1.93-1.87-2.89-.17-4.61l.91-.93h1.58c1.56 0 1.57 0 1.57.23 0 .19-.69 4.91-.85 5.85l-.06.32h-2.17zm5.19.57c0-.27.72-4.91.89-5.71l.07-.35 3.27-.03c3.25-.02 3.27-.02 3.27.19 0 .2-.85 5.53-.95 5.97l-.05.22h-6.5zm8.7.08c0-.19.82-5.23.96-5.91l.06-.28h2.24l.61.62c1.94 1.99 1.98 2.84.25 4.72l-.97 1.06h-1.57c-1.54 0-1.58-.01-1.58-.21Zm-10.77-2.61c.21-1.39.4-2.7.43-2.9l.07-.38h-2.8l-.85.88c-1.53 1.59-1.47 2.43.3 4.25l.66.67h1.82zm8.41 2.15c.37-2.29.86-5.3.86-5.35s-1.35-.08-3-.08h-3l-.05.23c-.09.38-.85 5.23-.85 5.4 0 .16.26.17 2.99.17h2.98zm6.2-.49c1.66-1.77 1.68-2.44.15-4.08l-.81-.86h-1.95l-.47 2.82c-.25 1.56-.46 2.86-.46 2.91 0 .04.61.07 1.36.07h1.37zm3.43-3.34c-.34-.96-.7-1.38-4.52-5.25-3.92-3.98-4.08-4.15-3.83-4.15.29 0 8.18 2.74 8.77 3.05.37.19.97.86 1.17 1.32.34.78.24 1.4-.55 3.38-.82 2.06-.86 2.13-1.04 1.65Zm.86-1.96c.31-.78.59-1.59.63-1.8.12-.77-.33-1.77-.98-2.21-.39-.26-7.86-2.93-8.19-2.93-.04 0 1.57 1.67 3.59 3.71 2.57 2.59 3.76 3.86 3.97 4.24.36.65.3.72.98-1.01Zm-23.77-.86c.07-.26 2.86-7.98 3.03-8.4.21-.56.9-1.17 1.49-1.34.79-.23 1.34-.14 3.07.51 2.41.9 2.46.93 1.73 1.14-1.04.31-1.36.59-5.28 4.48-3.69 3.66-4.2 4.12-4.04 3.61Zm7.92-7.78c.19-.12.54-.3.78-.39l.44-.17-1.52-.58c-2.2-.83-2.95-.85-3.78-.1-.45.41-.56.66-1.95 4.54-.58 1.62-1.15 3.2-1.26 3.5-.2.55-.17.52 3.38-3.01 1.97-1.96 3.73-3.66 3.91-3.79Zm-2.53 6.43c-.5-.11-.49-.13.1-.73.7-.71.75-.72.75-.21 0 .97-.12 1.1-.85.94Zm3-.4c.25-1.69.55-3.86.55-3.93 0-.16 1.15-.52 1.7-.53.87-.02 1.26.24 2.96 1.95l1.51 1.53-.11.65-.11.65-3.28.03-3.27.02zm6.29-.15c.18-.7.14-.77-1.46-2.34-1.89-1.85-2.25-2-3.6-1.47-.43.17-.4.07-.71 2.36l-.24 1.67h5.95z"/></svg>