<svg xmlns="http://www.w3.org/2000/svg" width="51" height="51" viewBox="0 0 51 51"><path fill="#fff" fill-rule="evenodd" stroke="#fff" stroke-width=".515" d="M1.2 51.08c0-.35 1.63-5.64 1.92-6.23.13-.27.21-.68.23-1.25.07-1.33.46-2.81 1.03-3.98l.51-1.01-.38-.34c-.42-.38-1.34-.77-1.9-.8-.4-.02-.82.56-1.98 2.78l-.58 1.1-.03-.42c-.04-.47.19-.98 1.17-2.58.33-.55.56-1.02.5-1.03-.11-.04-1.29.15-1.54.24-.11.05-.15-.01-.15-.25 0-.39.46-.54 1.72-.55 1.06-.01 1.01.23.47-2.36-.36-1.7-.42-2.17-.46-3.68-.05-1.46-.08-1.72-.2-1.68-.42.16-1.53.19-1.53.03 0-.11.2-.18.83-.27l.84-.12.12-2.11c.14-2.54.17-2.77.36-2.77.17 0 .21 2.66.06 4.08-.06.61-.04.72.09.72.08 0 .98-.13 1.99-.3 1.01-.16 1.94-.27 2.06-.24.27.07.44-.56.75-2.81.11-.77.34-2.18.52-3.12.34-1.86.34-1.89-.06-1.73-2.02.77-4.52-.94-5.56-3.79s-.84-7.84.44-10.82c1.5-3.53 2.03-3.57 3.66-.26l.65 1.31 1.15.27c.63.15 1.18.25 1.21.23.2-.12-.71-5.25-1.27-7.11-.05-.2-.03-.23.19-.23.21 0 .26.07.37.48.32 1.27 1.01 4.89 1.12 5.84l.12 1.08.35.05c.47.07 1.4.24 1.66.3.16.04.27-.06.54-.51.52-.87 1.62-2.14 2.4-2.77l.34-.28-.32-1.82c-.17-1-.34-1.95-.37-2.11-.05-.21-.03-.27.07-.24.17.06.33.68.6 2.33.28 1.72.23 1.61.62 1.35 1.68-1.13 4.14-1.61 5.86-1.16 2.98.77 5.12 4.6 4.63 8.28l-.08.67.53.12c.29.07.55.1.56.08.02-.02.29-.53.6-1.12 3.46-6.6 8.64-8.47 11.74-4.25l.35.49L43.1 3.4C46.34.12 46.49-.01 46.81.02c.34.03.3.07-3.25 3.65l-3.58 3.61.26.66c.15.36.32.94.39 1.28l.13.63 1.84.06c1.8.07 3.8.02 3.9-.08.03-.03.05-.53.05-1.11.01-5.04.05-6.42.19-6.42.2 0 .28 1.67.24 4.9l-.03 2.65h1.9c1.68 0 1.9.02 1.93.16.04.23-1.65.32-6.33.33h-3.6l-.01 1.16a10.4 10.4 0 0 1-.47 3.02l-.15.47.6-.3c3.15-1.59 8.25.05 10.08 3.23l.3.53v3.81l-.33.54c-.23.38-.61.77-1.34 1.34-.98.78-1.01.82-1.02 1.21-.01.22-.08.5-.16.62-.13.19-.14.3-.04.68.34 1.37-.19 2.31-1.39 2.44l-.54.06-.3.75c-.16.41-.32.77-.35.8-.1.1.11-.57.34-1.1.13-.3.2-.56.14-.58-.56-.19-1.42-1.22-1.63-1.97-.06-.22-.13-.42-.14-.44-.02-.01-.19.1-.4.25-1.26.97-3.34-.08-3.78-1.89l-.07-.28-.29.21c-1.32.94-3.41.52-3.4-.69.01-.7.81-1.87 1.41-2.06a.3.3 0 0 0 .19-.29c0-.12.06-.3.13-.4.12-.16.03-1.02-.19-1.84-.02-.07-.29.18-.6.55-2.12 2.54-3.66 3.37-6.46 3.5-1.13.05-1.26.08-1.19.22.08.14.32.93 1.17 3.78l.25.83.38-.25c.81-.54 3.09-.43 4.33.21.44.23.33.34-.19.18-1.76-.53-3.09-.62-3.82-.24-.63.31-.63.32-.24 1.7.19.69.5 1.8.68 2.47.19.67.44 1.54.56 1.93l.21.72.19-.41c1.21-2.71 2.83-3.13 4.87-1.28.34.31.91.66 1.49.94.93.43 1.31.69.5.34-1.22-.53-1.56-.73-2.02-1.17-.66-.64-1.66-1.17-2.21-1.18-.75-.02-1.83 1.17-2.39 2.65-.29.75-.29.76.22 2.34.33 1.01.29.96.61.79.68-.35 1.31-.03 1.52.78.1.35.13.37.32.27.69-.37 1.68.25 1.68 1.06 0 .19.09.19.34 0 .44-.33 1.07-.09 1.32.52.13.29.17.32.35.23.37-.2.81-.08 1.06.28.29.44.41 1.38.2 1.59-.23.23-.34.09-.4-.51-.12-1.14-.78-1.32-1.06-.3-.14.54-.36.35-.42-.38-.09-1.1-.54-1.38-1.16-.72-.36.39-.7.41-.6.03.14-.53-.37-1.49-.79-1.49-.26 0-.8.42-.89.7-.04.11-.13.2-.21.2-.2 0-.3-.29-.17-.5.16-.25-.02-1.11-.28-1.32-.19-.16-.73-.07-.96.16-.02.02.07.48.21 1.02.25 1 .68 3.18.81 4.07.05.35.1.47.24.47.18 0 2.53.91 4.3 1.67.57.24 1.1.42 1.16.39.13-.05.39-.68 1.58-3.87l.74-1.97-.82-.04c-1.86-.1-2.55-1.03-2.12-2.88.15-.66-.89-.93-1.28-.33-.24.36-.42.15-.43-.51-.01-1.12-.87-1.38-1.28-.4-.21.51-.36.38-.5-.46-.21-1.23-.83-1.46-1.08-.39-.13.54-.39.6-.44.1-.13-1.32 1.59-1.7 1.87-.41.08.37.09.38.59.18.5-.19 1.02.11 1.22.73l.14.45.54-.04c.44-.04.57-.01.75.17l.23.21.51-.59c.49-.55.51-.59.35-.77s-.16-.18.04-.01c.2.16.22.16.45-.01 1.82-1.43 5.6-1.34 7.32.17l.37.33v-.29c0-1.2-1.31-2.58-3.5-3.68-.9-.46-.79-.58.14-.16 2.08.94 3.37 2.33 3.52 3.79.06.55.11.65.7 1.33.57.66.81 1.19.55 1.19-.05 0-.41-.4-.81-.9-1.38-1.73-2.85-2.44-5.05-2.43-2.93.01-5.48 2.53-4.5 4.42.41.8 2.41 1.08 2.96.41.3-.35.41-.31.13.05-.14.19-.12.2.95.32 1.98.22 4.21 1.27 3.72 1.76-.06.06-.23.02-.46-.12-.66-.39-1.95-.08-3.27.79-1.38.91-1.65 1.39-1.55 2.77.07.87.06.87.41.73.88-.33 3.62.08 3.81.57.1.29-.12.39-.44.2-.71-.42-3.11-.58-3.49-.24-.1.09-.25.17-.34.17-.41 0-.85.84-1 1.9-.13.94-.12.97.39.72 1.05-.53 3.07-.56 3.58-.05.27.27.03.38-.5.23-1.2-.33-2.85.02-3.69.8-.58.54-.92.39-.46-.2.15-.19.2-.41.2-.96 0-1.01.3-1.93.8-2.45l.4-.42-.07-.72c-.16-2 1.1-3.47 3.6-4.2.32-.09.55-.2.52-.25-.12-.19-1.44-.52-2.3-.57l-.91-.06-.57 1.44c-.31.79-.74 1.96-.96 2.59-.93 2.78-.89 2.75-2.96 1.81-.71-.33-3.67-1.51-3.77-1.51-.03 0-.11.2-.17.45-.17.66-.56 1.06-1.12 1.12-1.48.17-3.71-2.26-8.31-9.05-.54-.81-1.03-1.48-1.07-1.5-.2-.07-1.19 2.17-1.46 3.3l-.13.58.49.21c1.34.58 1.79 1.91 1.15 3.39-.05.13.1.15 1.01.15 1.19.01 1.71.19 2.47.85.86.76 1.03 2.31.32 2.89-.16.14-.12.16.44.27.83.17 1.24.45 1.51 1.02.3.6.38 1.62.15 1.81-.25.21-.36.03-.36-.57-.01-2.33-2.78-2.35-5.84-.04-.93.7-.85.66-.93.46-.14-.37 1.02-1.25 2.85-2.16 2-1 2.16-1.16 2.1-2.16-.11-1.79-2.82-2.49-5.01-1.29-2.93 1.6-4.13 2.45-4.89 3.47-.2.26-.29.32-.38.24-.3-.29.9-1.79 1.93-2.41.34-.2.95-.59 1.36-.86.41-.28 1.12-.68 1.58-.89 1.26-.59 1.72-1.39 1.43-2.46-.55-2.08-3.79-1.91-7 .35-3.13 2.21-6.6 7.32-6.05 8.91.07.2.04.22-.28.22-.65 0-.47-1.29.38-2.76l.24-.41-.48-.22c-.46-.21-1.1-.8-1.58-1.46l-.22-.3-.43.41c-1.58 1.5-3.43 1.68-4.63.45-.47-.5-.5-.5-.65-.07-.06.18-.19.41-.3.51-.29.26-.36-.01-.15-.62.12-.35.15-.63.09-1.03l-.07-.55-.24.7c-.13.39-.49 1.56-.79 2.6-.71 2.49-.81 2.75-1.05 2.75-.1 0-.19-.06-.19-.12Zm7.57-.85c-.12-.11-.08-.23.09-.23.18 0 .44-.58.44-.98 0-.6-.6-.67-1.27-.16-.48.36-.56.2-.11-.21.94-.87 1.9-.34 1.58.87-.17.61-.5.94-.73.71Zm4.21-4.05c.45-.68 1.06-1.51 1.37-1.86.62-.71.62-.71.36-1.03l-.18-.23-.89.46c-3.14 1.62-4.94 1.1-6.72-1.92-.31-.52-.79-1.35-1.08-1.84l-.52-.89-.37.57c-1.88 2.95-1.37 7.19.92 7.66 1.2.25 2.6-.36 3.4-1.5.36-.5.46-.5.72.02.27.57 1.02 1.41 1.43 1.61.62.31.68.27 1.56-1.05Zm21.61-.54c.55-.7.04-3.76-1.39-8.39-.39-1.26-.92-3.11-1.16-4.1-.41-1.61-.64-2.47-1.36-5.05-.38-1.37-.88-2.94-1.19-3.76l-.31-.81-.56-.23c-2.39-.98-3.48-4.81-2.52-8.82.26-1.1.27-1.05-.18-1.09l-.33-.04-.6 1.79c-1.45 4.35-3.18 6.83-5.74 8.22-.38.2-.71.38-.72.39-.08.05.74 1.8 1.2 2.58.3.51.85 1.45 1.21 2.1 1.11 2 1.46 2.59 2.01 3.42.29.44 1.06 1.66 1.7 2.7 1.21 1.95 1.44 2.29 3.79 5.7 3.11 4.48 5.33 6.43 6.15 5.39Zm11.01-.54c0-.41 3.83-1.02 3.97-.62.03.08-.1.12-.49.12-.71 0-2.32.25-2.87.44-.51.19-.61.2-.61.06Zm-33.99-1.36c.3-.08.97-.36 1.5-.61l.97-.45.46-.83c.26-.46.76-1.23 1.11-1.71.36-.49 1.06-1.48 1.57-2.19s1.38-1.91 1.93-2.65c.56-.74 1.25-1.7 1.53-2.12.29-.43.72-1.02.96-1.31l.44-.54-.31-.49c-.17-.27-.77-1.34-1.35-2.38-.57-1.05-1.14-2.05-1.27-2.25-.13-.19-.22-.38-.19-.43.14-.22-.6-1.89-.81-1.85-.11.03-.65.17-1.2.32-1.73.47-3.41.39-4.61-.23-3.21-1.66-4.23-7.56-2.2-12.68l.34-.86-.35-.14c-.49-.21-.63-.15-.84.36-.1.25-.18.39-.18.31-.01-.12.29-1.09.37-1.2.01-.03.27.03.57.14.3.1.57.16.59.14.04-.05.96-1.89.96-1.93 0-.07-1.12-.27-2-.36-.52-.05-1.28-.18-1.67-.29-.4-.12-.75-.21-.77-.21-.03 0 .06.25.2.56.36.82.23.91-.16.11-.47-.95-.66-1.04-.35-.16.29.81-.01.25-.84-1.56-1.29-2.81-1.59-3.19-2.06-2.63-1.94 2.3-2.74 9.43-1.43 12.81 1.04 2.71 3.39 4.18 5.2 3.26l.41-.21.18.23c.23.3.21.54-.32 3.24-.51 2.64-.74 4.06-.99 6.05-.12.91-.39 2.91-.6 4.45-.33 2.32-.62 4.76-.62 5.2 0 .12 1.22 2.3 1.71 3.05 1.16 1.78 2.58 2.48 4.12 2.04Zm6.21-2.48c1.55-1.07 2.9-1.56 4.3-1.56.62 0 .68-.02.68-.21 0-.53 1.02-3.09 1.56-3.9.17-.27-.39-1.36-1.69-3.27-.38-.57-.22-.74-2.9 3.03-1.21 1.7-2.57 3.6-3.03 4.2-.45.61-1.09 1.52-1.42 2.03l-.59.92.3.34.31.34.75-.62c.42-.35 1.19-.93 1.73-1.3Zm13.93-.78c-.02-.07-.15-.56-.29-1.08s-.46-1.56-.71-2.3-.45-1.41-.45-1.49c0-.73 1.2 2.71 1.64 4.72.06.27-.1.4-.19.15Zm16-1.51c-1.67-1.59-1.75-1.67-1.53-1.67.15 0 3.21 2.88 3.26 3.07.07.28-.19.07-1.73-1.4ZM5.93 32.7c.26-1.73.49-3.42.53-3.74l.07-.59-.69.06c-.64.05-2.93.39-3.58.53l-.29.06.06 1.77c.05 1.48.11 2.04.41 3.51.2.96.36 1.93.36 2.16v.4l.58.18c.69.22 1.28.55 1.62.91l.25.27.11-1.19c.07-.65.32-2.6.57-4.33Zm-2.01-.02c-.35-.35-.05-1.83.37-1.83.36 0 .45.23.37.96-.09.84-.4 1.21-.74.87Zm11.71-.78c-2-.42-2.59-2.37-1.14-3.77 1.34-1.28 3.01-1.19 3.81.21 1.12 1.95-.44 4.03-2.67 3.56Zm26.73-.08c-.08-.26-.21-.29-1.39-.36-1.15-.08-1.97-.42-1.97-.83 0-.1.1-.06.33.11.39.3 1.12.46 2.08.46.8 0 1.31.3 1.12.65-.1.17-.11.17-.17-.03Zm-24.91-.46c.83-.35 1.22-1.96.7-2.85-.69-1.18-2.05-1.35-3.25-.4-.48.38-.67.68-.35.55.16-.06.75.23.75.38 0 .08-.29.03-.63-.1-.5-.19-.63 1.31-.16 1.82.6.64 2.1.95 2.94.6Zm30.1-3.11c.28-.27.34-.98.15-1.67-.47-1.67-7.3-4.69-9.29-4.1-.8.24-1.55 1.35-1.32 1.95.27.7 2.04.45 3.05-.43.44-.39.62-.3.57.3-.07.97.94 2.23 1.84 2.31.75.06.88 0 1.46-.61.64-.67.69-.66.88.15.46 1.89 1.81 2.96 2.66 2.1Zm-23.97-1.99c-1.39-2.15-1.45-2.26-1.3-2.26.13 0 2.61 3.79 2.79 4.26.2.53-.31-.16-1.49-2Zm-12.67.25c-.23-.15-.05-.39.36-.5 1.17-.29 1.91-.19 1.6.23-.21.29-1.62.48-1.96.27Zm36.95-1.46c-.25-1.31-3.46-2.96-6.94-3.55-1.34-.23-1.82-.18-2.17.2-.18.2-.17.2.22.2 2.32 0 7.35 2.03 8.68 3.5.23.25.3.14.21-.35Zm-44.04-.27c-.29-.36-.59-2.51-.42-3.03.31-.95 1.3-.66 1.3.39 0 1.56-.51 3.09-.88 2.64Zm.31-.42c.03-.08.13-.64.23-1.26.19-1.25.13-1.6-.3-1.6-.4 0-.5.22-.43 1.03.12 1.46.34 2.25.5 1.83Zm45.33-.9c.49-.41.95-.85 1.01-.98.64-1.38.69-2.8.14-3.93-1.59-3.23-6.53-4.83-9.81-3.18-.41.21-.77.45-.82.53-.04.08-.25.55-.47 1.03s-.54 1.08-.71 1.33c-.23.35-.29.54-.26.77.13.86.29 1.87.3 1.87s.17-.04.36-.1c.7-.2 3.28.3 5 .97 1.84.72 2.67 1.19 3.4 1.94.75.76.62.78 1.86-.25Zm-32.76.24c4.15-1 6.85-4.49 8.46-10.95 1.65-6.61-3.05-11.79-8.24-9.09-4.25 2.22-7.28 8.1-7.09 13.79.16 5.1 2.56 7.28 6.87 6.25Zm16.04-.86c3.91-1.01 7.71-7.14 7.41-11.94-.42-6.81-6.13-8.31-10.34-2.72-2.42 3.21-3.49 6.22-3.38 9.51.14 4.44 2.29 6.19 6.31 5.15ZM12.9 20.11c-1.91-1.01-2.26-3.66-1.05-7.9.78-2.75 1.05-3.25 2.64-4.94 1.03-1.09 2.29-1.53 3.34-1.17 1.32.45 2.25 2.78 1.84 4.6-.72 3.18-1.52 5.7-2.24 7-1.09 1.97-3.22 3.1-4.53 2.41Zm16.67.05c-.58-.16-1.08-.61-1.45-1.31-.68-1.26-.17-4.97.91-6.67.19-.29.51-.87.72-1.28.45-.88 1.85-2.33 2.8-2.89.78-.47 2.25-.58 2.25-.18 0 .07.18.23.39.35.43.25.75.69.86 1.2.09.45-.11.41-.25-.05-.07-.24-.33-.58-.68-.9l-.55-.53h-.68c-1.09 0-3.09 1.51-3.77 2.85-.16.33-.55 1.02-.85 1.53-1.13 1.91-1.59 5.15-.92 6.47 1.05 2.05 3.43 1.61 5.27-.97.89-1.24.96-1.4 2.19-4.73.16-.42.18-.67.12-1.47-.04-.66-.02-.98.05-.98.06 0 .13.43.17 1.05l.07 1.04-.37.93c-.21.51-.5 1.31-.66 1.77-.49 1.45-1.55 3.01-2.67 3.97-1.05.9-1.81 1.1-2.95.8Zm-14.44-.44c1.61-.87 3.06-3.55 3.83-7.07.13-.6.31-1.35.4-1.65.38-1.36-.05-3.4-.88-4.15-.62-.56-.8-.61-1.89-.48-1.07.12-1.4.36-2.66 1.93-1.17 1.45-1.35 1.89-2.27 5.57-1.04 4.1.85 7.28 3.47 5.85Zm30.37-1.19c-.49-.17-.53-.8-.09-1.17.36-.31.55-.33.62-.07.03.14.01.18-.09.14-.38-.14-.8.47-.52.75.43.43 1.16-.07 1.05-.74-.07-.42.13-.43.27-.02.23.66-.54 1.36-1.24 1.11Zm-33.32-.84c-.27-.15-.25-1.04.01-1.19.29-.15.39-.13.66.15.62.61.06 1.47-.67 1.04Zm16.64-.11c-.33-.33-.04-1.28.39-1.28.34 0 .49.24.49.77 0 .46-.14.63-.5.63-.14 0-.31-.05-.38-.12Zm-22.51-2.1c-.07-.45-.11-1.48-.09-2.28s-.01-1.62-.05-1.82c-.05-.24-.04-.38.02-.38.25 0 .43 1.33.31 2.28-.07.54-.07 1.09.01 1.8.15 1.32-.03 1.67-.2.4Zm-2.53 0c-.01-.07-.02-1.16-.03-2.43-.01-1.76-.05-2.49-.18-3.08-.21-.96-.21-1.06-.03-.87.38.41.57 2.54.48 5.37-.03.86-.17 1.47-.24 1.01Zm40.95-2.69c-.43-.64-.46-.89-.09-.89.28 0 .6.33.81.84.36.86-.14.9-.72.05Zm-10.71 0c-.76-.28-.65-2.75.13-2.95.66-.16 1.15.42 1.14 1.36 0 1.11-.59 1.84-1.27 1.59Zm.69-.45c.5-.54.36-2.12-.2-2.27-.47-.12-.66.23-.69 1.25-.05 1.26.3 1.65.89 1.02Zm-18.04-.95c-.73-.57-.48-2.77.36-3.17.66-.32 1.21.3 1.21 1.34-.01 1.43-.85 2.41-1.57 1.83Zm.68-.15c.54-.21.84-2.15.41-2.63-.58-.65-1.26.18-1.26 1.53 0 .91.3 1.31.85 1.1ZM5.57 10.02c-.84-.92-.92-3.32-.1-3.01.71.27 1.01 3.19.33 3.19-.04 0-.14-.08-.23-.18Zm.24-1.74c-.17-1.23-.82-1.46-.67-.24.08.71.22 1.15.48 1.56l.23.35.03-.47c.02-.26-.01-.8-.07-1.2Zm42.88-1.19c-.23-.44.05-2.44.37-2.56.57-.22.91.32.76 1.18-.22 1.22-.82 1.95-1.13 1.38Zm.61-.66c.31-.82.32-1.57.03-1.61-.22-.03-.26.08-.48 1.41-.14.87.15 1 .45.2ZM27.11 4.26c-.06-.07-.38-.93-.71-1.9s-.67-1.9-.75-2.07l-.16-.3.26.03c.24.03.32.15.66.98.22.52.42.96.44.99.03.02.52-.42 1.09-.97C28.94.04 29.01 0 29.42 0l.43.01-.44.37c-.87.72-1.69 1.47-2.01 1.85l-.33.38.22.72c.11.4.21.77.21.83 0 .18-.27.24-.39.1Zm-16.72-.63c-.16-.4-.17-1.39-.02-1.54.28-.28.68.01.71.51.07 1.06-.4 1.77-.69 1.03Zm2.15-.74c-.17-.28-.17-1.74.01-1.89.42-.35.58.15.42 1.4-.03.25-.06.48-.06.53-.01.11-.29.08-.37-.04Z"/></svg>