<svg xmlns="http://www.w3.org/2000/svg" width="51" height="51" viewBox="0 0 51 51"><path fill="#fff" fill-rule="evenodd" stroke="#fff" stroke-width=".795" d="M11.9 38.14c-3.77-.99-4.8-4.96-2.01-7.75 1.43-1.42 2.88-2.01 4.98-2.03l1.33-.01.01-6.7c.01-3.69.04-6.81.08-6.94.16-.6.07-.59 6.52-1.06 13.65-1.01 13.21-1 13.77-.58.67.48.67.47.7 5.81l.03 4.82h2.63c3.68 0 3.67-.02 1.44 2.46-5.72 6.33-5.9 6.51-6.31 6.41-.14-.04-1.43-1.35-3.29-3.34-4.83-5.2-4.6-4.91-4.18-5.33.19-.19.33-.2 2.9-.2h2.7v-6.39l-.27.04c-.27.04-2.76.23-5.98.45-1.83.13-5.18.38-6.02.46l-.62.06-.03 7.56-.03 7.57-.26.67c-.75 1.92-2.52 3.44-4.65 3.98-.93.24-2.61.26-3.44.04Zm3.08-.2c2.05-.41 4.08-2.01 4.71-3.69.38-1 .4-1.65.34-8.54-.07-7.75-.08-7.58.5-7.66.74-.1 12.8-.95 12.84-.91.12.12.15 1.49.08 3.99l-.07 2.76-2.8.03c-3.63.04-3.51-.14-1.41 2.15 5.18 5.62 5.77 6.23 6.05 6.23.32 0 7.48-7.76 7.48-8.11 0-.2-.43-.24-2.95-.29l-2.7-.05-.05-5c-.06-5.56-.03-5.35-.73-5.69-.48-.22-.8-.21-6.97.24-10.62.78-12.25.91-12.5 1.03l-.25.12-.05 7-.05 7-1.3.01c-2.32.02-4.07.75-5.39 2.26-3.17 3.63.14 8.16 5.22 7.12ZM28.1 36.1c-.17-.17-.2-.33-.2-1.03 0-1.36-.84-1.22 7.25-1.22s7.25-.14 7.25 1.22.78 1.23-7.25 1.23c-6.72 0-6.85 0-7.05-.2Zm14.04-.26c.11-.28.06-1.5-.06-1.62-.21-.21-13.84-.17-13.92.04-.03.09-.06.44-.06.79s.03.7.06.79c.09.24 13.89.24 13.98 0Z"/></svg>