<svg xmlns="http://www.w3.org/2000/svg" width="51" height="51" viewBox="0 0 51 51"><path fill="#fff" fill-rule="evenodd" stroke="#fff" stroke-width=".749" d="M7.6 45.86c-.9-.24-1.82-1.04-2.23-1.94l-.22-.47V7.65l.22-.47c.31-.69.99-1.37 1.68-1.69l.6-.29h35.9l.52.24c.67.32 1.28.94 1.62 1.65l.26.56v35.8l-.22.47c-.3.66-1.05 1.43-1.72 1.75l-.56.28-17.7.02c-13.78.01-17.8-.01-18.15-.11Zm36.25-.34c.64-.29 1.38-1.03 1.64-1.61.19-.45.19-.79.22-18.36l.03-17.9-.22-.45c-.35-.72-.77-1.16-1.44-1.49l-.61-.31H25.65c-16.1 0-17.86.02-18.29.16-.64.22-1.47 1-1.77 1.66l-.24.53V25.5c0 17.26.01 17.76.19 18.25.36.92 1.34 1.76 2.29 1.95.23.04 8.32.07 17.97.07l17.55-.02zm-20.24-5.33c-5.62-.43-9.62-2.67-10.36-5.81-.18-.76-.22-9.18-.05-10.09.24-1.27 1.22-2.59 2.38-3.22.99-.54 1.37-.57 7.33-.57h5.46l.34-.23c.63-.42.7-.7.67-2.67-.04-2.05-.12-2.29-1.02-2.8-.83-.48-1.74-.63-3.44-.58-2.89.1-3.72.68-3.91 2.76-.13 1.38-.63 2.02-1.6 2.02-1.04 0-1.51-.66-1.51-2.12.01-3.9 2.82-6.01 7.8-5.85 3.74.12 6.18 1.72 6.75 4.44.17.81.2 3.85.04 4.53-.28 1.22-1.35 2.62-2.4 3.15-1.01.52-1.39.55-7.29.55-6.09 0-5.93-.02-6.32.71-.26.49-.28 9.2-.02 9.75.59 1.24 3.84 2.55 7.04 2.84 3.87.36 8.22-.61 9.97-2.23.7-.65.73-.74.73-2.63 0-1.51.02-1.72.21-2.12.54-1.11 2.16-1.12 2.71-.02.28.55.26 3.92-.02 4.84-.59 1.91-2.53 3.46-5.58 4.46-2.51.82-5.06 1.11-7.91.89Zm5.14-.44c4.04-.67 6.83-2.24 7.93-4.44l.37-.75.03-2.1c.04-2.61-.15-3.05-1.31-3.06-1.1 0-1.36.54-1.37 2.78 0 1.91-.05 2.08-.8 2.76-2.48 2.22-8.68 3.02-13.3 1.7-1.85-.53-3.66-1.6-4-2.37-.31-.67-.3-9.3.01-9.93.41-.86.28-.84 6.35-.84 3.16 0 5.55-.04 5.94-.11 1.84-.29 3.36-1.76 3.7-3.58.15-.82.12-3.44-.05-4.26-.6-2.83-3.03-4.31-7.05-4.29-4.63.02-7.09 1.97-7.1 5.62 0 1.29.43 1.92 1.3 1.92.85 0 1.27-.57 1.41-1.92.22-2.12 1.14-2.76 4.11-2.85 3.51-.11 4.66.66 4.76 3.2.08 1.95-.14 2.74-.88 3.25l-.33.22h-5.46c-6.82 0-7.06.04-8.41 1.4-1.25 1.27-1.32 1.68-1.28 7.55.04 5.12.04 5.1.79 6.26 1.97 3.08 8.66 4.83 14.64 3.84Zm-4.66-6.39c-1.03-.29-1.46-.64-3.41-2.7-1.03-1.1-1.94-2.14-2.03-2.32-.5-1.05.22-2.24 1.35-2.24.67 0 1 .26 2.8 2.22 1.86 2.03 2.21 2.26 2.94 1.98.24-.09 4.01-3.51 6.56-5.95 3.49-3.34 3.38-3.25 4.15-3.25.91 0 1.55.62 1.55 1.5 0 .62-.27 1.01-1.45 2.11-.55.51-2.1 1.97-3.45 3.24-5.15 4.87-5 4.74-5.79 5.13-.85.42-2.29.55-3.22.28Zm2.46-.21c.88-.23 1.37-.61 3.7-2.8 1.16-1.09 3.13-2.96 4.4-4.14 2.78-2.62 2.94-2.78 3.06-3.08.34-.9-.29-1.82-1.24-1.83-.66 0-.6-.04-3.82 3-4.23 3.99-6.54 6.1-6.81 6.2-.84.32-1.3.04-3.2-2.04-1.82-1.99-2.08-2.19-2.77-2.13-1.04.09-1.53 1.25-.9 2.12.4.54 3.35 3.66 3.75 3.97 1.07.81 2.48 1.08 3.83.73Z"/></svg>