<svg xmlns="http://www.w3.org/2000/svg" width="51" height="51" viewBox="0 0 51 51"><path fill="#fff" fill-rule="evenodd" stroke="#fff" stroke-width=".737" d="M24.62 44.59c-.94-.16-1.46-.52-3.12-2.15-4.06-4-13.13-13.15-13.48-13.59-2.79-3.6-3.28-9.48-1.12-13.68 3.62-7.06 11.76-8.81 17.87-3.83.45.36.85.66.89.66.03 0 .34-.26.69-.58 3.64-3.41 9.48-3.88 13.71-1.09 5.31 3.5 7.1 10.61 4.19 16.64-.75 1.54-1.34 2.19-8.81 9.69-6.6 6.63-7.24 7.24-7.84 7.53-.96.45-1.9.58-2.98.4Zm2.8-.57c.62-.3 1.28-.93 7.82-7.5 8.55-8.58 8.6-8.64 9.45-11.17 1.81-5.44.16-11.17-4.18-14.43-4.29-3.23-10.61-2.83-14.3.92l-.54.55-.56-.5c-5.37-4.72-12.64-4.1-16.81 1.43-3.19 4.22-3.4 10.39-.52 14.83.48.74 14.49 14.91 15.42 15.6 1.06.78 2.95.9 4.22.27ZM15.99 23.7c-2.91-.51-4-4.3-1.82-6.31 1.97-1.82 5.15-.94 5.94 1.65.79 2.55-1.48 5.12-4.12 4.66Zm1.83-.4c2.27-.85 2.97-3.71 1.33-5.48-2.18-2.36-5.89-.95-5.9 2.23 0 2.45 2.31 4.1 4.57 3.25Z"/></svg>