<svg xmlns="http://www.w3.org/2000/svg" width="51" height="51" viewBox="0 0 51 51"><path fill="#fff" fill-rule="evenodd" stroke="#fff" stroke-width=".493" d="M28.98 40.26c-1.22-.44-1.58-1.21-1.58-3.43V35.7l-.28-.11c-.15-.06-.55-.24-.9-.41l-.62-.31-.98.46c-3.63 1.71-7.82 1.37-10.99-.89-5.9-4.21-5.98-13.23-.14-17.53 3.32-2.45 8.5-2.79 11.7-.76l.41.26.43-.25c5.38-3.16 12.76-.65 15.2 5.16 1 2.41 1.14 5.73.32 7.79-.05.14.1.17 1.22.21 1.74.07 2.37.37 2.82 1.33.2.43.21.59.21 4.23v3.78l-.27.55c-.3.57-.71.92-1.32 1.09-.59.16-14.76.13-15.23-.04Zm15.17-.17c.6-.17.95-.47 1.22-1.05l.24-.52-.03-3.8-.03-3.8-.3-.43a2.4 2.4 0 0 0-.78-.67l-.47-.25-7.33-.01-7.32-.01-.49.25c-.27.14-.63.42-.8.63l-.31.39-.03 3.9c-.03 3.81-.02 3.91.19 4.34.24.5.68.88 1.19 1.02.51.15 14.53.15 15.05.01Zm-4.76-2.79c-1.47-.44-1.67-2.77-.29-3.48 1.49-.77 3.06.58 2.6 2.24-.28 1-1.3 1.55-2.31 1.24Zm-7.77-2.42.03-2.43h1.2c1.46 0 1.87.15 2.23.85.65 1.29-.25 2.5-1.87 2.5h-.4l-.03.72-.03.73-.58.03-.57.03zm4.18.58V33.6h.5c.36 0 .52.04.56.15.05.13.08.13.27 0 .37-.26.97-.2.97.09 0 .51-.17.76-.53.76-.61 0-.66.11-.69 1.45l-.03 1.2-.52.03-.53.03zm4.56.86c.62-.41.33-1.82-.36-1.82-.7 0-1.04 1.13-.52 1.73.15.17.68.23.88.09Zm-18.8-.23c1.2-.21 3.75-1.15 3.74-1.38 0-.03-.19-.17-.42-.31-.61-.38-2.08-1.88-2.6-2.66-3.22-4.88-2.16-11.42 2.41-14.74.34-.25.61-.48.61-.52 0-.1-1.33-.72-2.06-.96-2.34-.77-5.15-.63-7.56.37-5.48 2.28-7.89 9.09-5.17 14.56 1.49 3.01 4.46 5.14 7.89 5.68.55.09 2.6.06 3.16-.04Zm5.85-1.65-.06-.82-.72.52c-.4.28-.72.54-.72.58-.02.14 1.44.77 1.5.65.03-.07.03-.49 0-.93Zm6.45.28c.64-.42.26-1.32-.56-1.32h-.47l-.07.53c-.1.9-.12.87.47.87.28 0 .57-.04.63-.08Zm-7.28-.81.79-.59.05-1.15c.07-1.62.67-2.55 1.76-2.72.84-.14.79-.08 1.03-1.07.52-2.11.36-4.78-.4-6.74-.73-1.88-2.47-4.05-3.85-4.79l-.33-.18-.49.34c-.7.47-2.14 1.93-2.61 2.64-3.16 4.72-2.1 11.09 2.41 14.42.73.54.69.54 1.64-.16Zm14.92-5.42c1.54-5.72-1.73-11.58-7.31-13.08-2.49-.68-5.15-.46-7.4.61l-.91.43.86.68c3.33 2.64 4.79 7.17 3.66 11.35-.11.4-.2.74-.2.77s2.49.05 5.54.05h5.54z"/></svg>