<svg xmlns="http://www.w3.org/2000/svg" width="51" height="51" viewBox="0 0 51 51"><path fill="#fff" fill-rule="evenodd" stroke="#fff" stroke-width=".667" d="m24.4 44.2-8.45-.05-.88-.28c-4.79-1.49-7.66-5.04-8.08-9.98-.18-2.09-.06-16.52.15-17.56 1-5.09 4.54-8.47 9.7-9.28 1.57-.25 16.57-.17 17.9.09 4.45.87 7.63 3.6 8.9 7.65.56 1.78.57 1.98.54 11.41l-.03 8.65-.27.97c-1.34 4.88-5.38 8.17-10.33 8.4-.39.02-4.5.01-9.15-.02Zm11.1-.52c4.34-1.07 7.51-4.4 8.25-8.67.22-1.24.22-17.23 0-18.56-.77-4.73-4.15-8.09-9.09-9.03-1.4-.26-17.19-.26-18.43.01-5.2 1.12-8.47 4.84-8.93 10.14-.19 2.16-.08 16.78.13 17.73.78 3.48 2.81 6.1 5.92 7.62 2.17 1.06 2.32 1.07 12.5 1.04l8.6-.02zm-20.05-1.42c-.16-.07-.41-.26-.55-.41l-.25-.27-.03-4.38c-.03-4.87-.02-4.92.6-5.3.51-.31 16.34-.31 16.85 0 .66.4.68.49.71 4.15.05 4.69-.01 5.47-.43 5.94l-.33.36-8.14.02c-6.62.02-8.19 0-8.43-.11Zm18.35.07c-.65-.04-.8-.19-.8-.79 0-.69.1-.74 1.7-.74s1.6 0 1.6.89c0 .73-.21.79-2.5.64Zm-1.68-.52.33-.29.03-4.19c.03-4.47.01-4.77-.45-5.12-.25-.21-.34-.21-8.4-.21h-8.15l-.29.29-.29.29v4.4c0 4.84-.01 4.76.64 5.02.11.05 3.82.09 8.23.09l8.03.01zM36 41.6v-.5h-2.7v.43c0 .59-.04.57 1.42.57H36zm-22.9-.37c-2.26-1.35-3.73-3.41-4.33-6.08-.24-1.08-.38-14.63-.18-17.3.22-2.94 1.09-4.88 2.99-6.66 1.18-1.11 2.21-1.68 2.38-1.31.1.23.17 27.02.07 29.57-.09 2.29-.09 2.29-.93 1.78Zm24.3-15.58c0-17.55-.07-16.07.72-15.61 1.75 1.02 3.34 3.09 4.01 5.21.47 1.49.48 1.85.45 10.85l-.03 8.45-.24.85c-.64 2.34-2.09 4.41-3.91 5.59-1.13.73-1 2.66-1-15.34Zm-23.63.4c0-6.66-.02-12.99-.06-14.08l-.06-1.98-.7.46c-2.01 1.32-3.36 3.32-3.92 5.8-.2.88-.31 15.2-.14 17.39.25 3.23 1.7 5.76 4.12 7.19l.64.37.06-1.52c.04-.84.06-6.97.06-13.63Zm24.69 14.56c1.68-1.18 2.96-3.03 3.57-5.18.32-1.14.35-18.3.03-19.48-.46-1.72-1.31-3.21-2.51-4.4-.64-.65-1.57-1.35-1.77-1.35-.04 0-.08 6.88-.08 15.29s-.03 15.36-.06 15.45c-.1.26.09.19.82-.33Zm-5.13-7.81c-.29-.12-.36-.43-.31-1.31.05-.96.1-.99 1.65-.99 1.58 0 1.63.04 1.63 1.2s-.06 1.2-1.57 1.19c-.65 0-1.28-.04-1.4-.09Zm2.62-1.1v-.85h-2.6l-.03.74c-.04 1.08-.12 1.02 1.35.99l1.28-.03zm-20.86-.99-.39-.39v-8.99l.23-.34c.41-.61.2-.6 9.03-.57l8.02.03.27.25c.56.52.55.44.55 5.15 0 3.7-.02 4.4-.15 4.65-.32.63.06.6-8.96.6h-8.21zm17.16-.16.25-.24V25.9c0-4.81 0-4.85-.57-5.09-.21-.08-2.41-.11-8.36-.09l-8.09.03-.24.28-.24.28v8.93l.27.28.27.28h16.47zm.91-8.91c-.19-.18-.23-1.63-.06-1.95.13-.23 2.75-.3 2.98-.07.22.22.16 1.95-.07 2.08-.33.17-2.67.13-2.85-.06Zm2.74-.98v-.83l-.85-.07c-.47-.04-1.06-.04-1.3 0l-.45.06v1.68h2.6zm-20.25-.87c-1.04-.17-1.09-.44-.98-5.73l.08-4.18.37-.34.38-.34H32l.38.34.37.34.03 4.6.03 4.6-.26.3c-.14.17-.4.35-.58.41-.35.11-15.64.11-16.32 0Zm16.55-.46.3-.28v-8.42c0-.44-.05-.58-.29-.85l-.29-.32h-8.13c-8.51 0-8.45-.01-8.68.42-.05.1-.11 2.12-.13 4.64l-.03 4.46.24.26c.33.35-.15.33 8.68.35l8.03.01zm2.01-8.9c-1.08-.04-1.21-.11-1.21-.62 0-.58.09-.61 1.6-.61 1.54 0 1.6.03 1.6.67 0 .48-.22.65-.78.61-.15-.01-.7-.04-1.21-.05Zm1.69-.63v-.3h-2.6v.6h2.6z"/></svg>