<svg xmlns="http://www.w3.org/2000/svg" width="51" height="51" viewBox="0 0 51 51"><path fill="#fff" fill-rule="evenodd" stroke="#fff" stroke-width=".756" d="M0 25.6V0h51.2l-.02.93-.02.92-.03-.82-.04-.83H46.4l-.02 24.7c-.01 13.59-.02 24.98-.03 25.33v.62l2.1.03c2.34.03 2.52.01 2.65-.31.08-.19.09-.17.09.14l.01.36-7.57.06c-4.17.04-15.69.07-25.6.07H0zm4.8 0V.2H.2V51h4.6zm27.72 25.33 13.58-.06V32.1H25.61c-11.28 0-20.51.03-20.53.08-.02.04-.02 4.29 0 9.44L5.11 51h6.92c3.81 0 13.03-.03 20.49-.07Zm3.6-19.13h9.98V21.27l-14.72.06c-8.09.04-17.34.07-20.54.07H5.01v5.16c0 2.85.02 5.21.06 5.27s3.68.08 10.57.04c5.78-.04 15-.07 20.48-.07Zm-.84-10.77 10.82-.06V10.3H5v5.33c0 2.94.03 5.37.07 5.4.08.09 16.3.09 30.21 0ZM38.97 10h7.13V.2H5v9.79l.83.04c.45.03 6.49.03 13.41.01 6.93-.02 15.8-.04 19.73-.04Z"/></svg>