<svg xmlns="http://www.w3.org/2000/svg" width="51" height="51" viewBox="0 0 51 51"><path fill="#fff" fill-rule="evenodd" stroke="#fff" stroke-width=".69" d="M29.1 45.53c-2.49-.38-4.79-.91-6.39-1.49-5.13-1.86-9.47-5.76-11.56-10.39-.36-.81-.57-1.09-2.09-2.8C6.7 28.2 6.6 28.07 6.6 27.58c0-.63.28-1.54.81-2.67l.5-1.05-.3-1.21c-.71-2.85-1.1-5.38-.91-5.84.16-.4 1.34-1.51 2.31-2.18 2.52-1.73 9.43-4.95 11.78-5.47.59-.13.97-.32 1.85-.87 1.75-1.11 4.16-2.26 5.12-2.46.99-.21.94-.23 2.51 1.23l1.08 1.01 1.45.06c3.25.13 3.85.44 4.54 2.35l.31.84 1.1.39c1.44.5 2.3.94 2.54 1.27.45.64.69 2.07.86 5.2l.12 2.37.47 1.14c2.12 5.1 1.93 11.77-.48 17.51-.58 1.36-.68 1.47-1.8 2-1.75.84-4.32 1.62-6.19 1.9-.78.11-.8.13-1.7.88-1.82 1.52-2.29 1.73-3.47 1.55Zm1.43-.39c.36-.19 1.53-1.06 2.07-1.54l.35-.31-.85.06c-.78.06-.97.12-2.22.71-.75.35-1.39.64-1.41.64-.03 0-.22.08-.43.17l-.39.17.8.12c1.17.17 1.72.16 2.08-.02Zm-2.56-.55c7.35-2.89 11.91-7.96 13.27-14.74.96-4.75.89-14.86-.11-16.58-.74-1.27-9.44-3.36-14-3.37-4.17 0-12.97 1.87-14.2 3.02-.54.5-.57.66-.79 3.83-.43 6.36 0 12.24 1.13 15.49 1.65 4.77 4.97 8.47 10.08 11.23 2.63 1.42 3.4 1.6 4.62 1.12Zm-4.17-.54c0-.03-.28-.19-.62-.36-2.58-1.3-3.89-2.37-8.1-6.62-2.03-2.04-3.68-3.64-3.68-3.56 0 .22 1.15 2.24 1.78 3.14 1.29 1.81 3.86 4.13 5.95 5.37 1.57.94 4.67 2.28 4.67 2.03Zm9.96-1.5c.45-.37 1.32-1.32 2.26-2.45l.53-.64-1.1.98c-.6.53-1.63 1.33-2.27 1.77-.65.44-1.18.81-1.18.83 0 .2 1.39-.19 1.76-.49Zm2.33-.11c2.27-.56 5.04-1.69 5.36-2.18.25-.38.99-2.21 1.35-3.32 1.48-4.62 1.52-9.81.1-14.04-.7-2.09-.66-2.11-.73.37-.16 5.4-.81 8.58-2.37 11.62-1.18 2.3-4.05 6.24-5.49 7.54-.23.2-.41.39-.41.4 0 .07 1.16-.14 2.19-.39Zm-9.72-3.19c-5.59-.91-9.59-4.61-10.68-9.87-1.87-9.06 4.26-16.54 13.31-16.25 5.39.18 8.37 2.4 7.42 5.53-.73 2.4-2.57 3.22-5.1 2.26-3.98-1.51-7.31-.02-8.23 3.68-.34 1.35-.12 3.62.47 4.87 1.13 2.37 4.38 3.36 7.34 2.23 2.08-.79 3.52-.6 4.64.6 1.43 1.52 1.39 3.73-.08 5.07-1.66 1.52-5.92 2.4-9.09 1.88Zm4.98-.4c4.13-.93 5.84-2.97 4.61-5.49-.89-1.82-2.43-2.25-4.94-1.39-4.74 1.64-8.4-.87-8.35-5.72.05-4.9 3.94-7.42 8.67-5.62 2.2.83 3.72.35 4.61-1.47 1.01-2.07 0-4.01-2.6-4.95-2.06-.74-5.62-1.04-7.5-.63-7.13 1.57-11.13 7.58-10 15.02.82 5.45 4.74 9.35 10.4 10.35 1.05.19 4.1.13 5.1-.1ZM14.8 36.18c-2.28-3.9-2.94-6.94-3.09-14.08l-.06-3.25-.48.6c-.62.77-2.26 3.23-2.65 3.97l-.3.56.3 1.09c.81 2.99 1.86 6.2 2.34 7.15.12.24 4.03 4.39 4.22 4.47.01 0-.11-.23-.28-.51ZM9.99 30.8c-.38-1.02-1.08-3.27-1.67-5.39l-.29-1.05-.17.26c-.38.59-.89 2.04-.94 2.68l-.04.65 1.48 1.69c.82.92 1.6 1.81 1.73 1.97.35.43.34.34-.1-.81Zm-1.38-8.08c.49-.87 1.58-2.46 2.41-3.53l.75-.95.12-1.89c.14-2.13.25-2.87.49-3.24.17-.25.16-.25-.43.08-3.41 1.92-5.05 3.24-5.05 4.08 0 .69.97 5.73 1.17 6.06.08.13.2-.01.54-.61Zm9.07-11.73c1.51-.39 1.68-.45 2.33-.93.39-.28.66-.52.61-.54-.24-.08-3.92 1.33-4.79 1.83-.34.2-.46.22 1.85-.36Zm19.36-.54c-.37-1.09-.59-1.36-1.3-1.61-.71-.26-2.05-.44-3.24-.44h-.85l1 1c.92.92 1.03 1 1.55 1.11.3.06 1.07.24 1.7.39s1.2.28 1.27.29c.08.01.03-.25-.13-.74Zm-15.19-.34c3.97-.64 7.77-.59 11.05.15.19.04.02-.18-.7-.9l-.95-.96h-.62c-1.05 0-4.27.29-6.71.6-1.28.17-2.37.3-2.42.3s-.28.17-.52.38c-.24.2-.55.45-.68.55l-.25.17.3-.05c.17-.03.84-.13 1.5-.24Zm2.11-1.4c1.53-.22 4.07-.46 5.81-.57.62-.04 1.1-.11 1.07-.15C30.58 7.56 28.65 6 28.38 6c-.77 0-2.62.79-4.78 2.04-1.7.99-1.71.95.36.67Z"/></svg>