<svg xmlns="http://www.w3.org/2000/svg" width="51" height="51" viewBox="0 0 51 51"><path fill="#fff" fill-rule="evenodd" stroke="#fff" stroke-width=".453" d="M5.54 51C2.46 50.19 0 47.31 0 44.52c0-.6.03-.82.1-.72.05.08.1.33.1.54.01 2.69 2.52 5.61 5.46 6.36 1.21.31 38.77.31 39.98 0 2.93-.75 5.04-3.25 5.33-6.33.08-.94.23-.94.23 0 0 2.97-2.43 5.89-5.55 6.68-1.02.26-39.12.21-40.11-.05Zm11.7-18.06c-.43-.21-.64-.62-.64-1.26 0-.76-.44-.94-1.01-.4-1.38 1.28-3.03-.44-1.69-1.75.51-.5.34-.85-.45-.95-.71-.09-1.02-.28-1.22-.76-.33-.79.32-1.62 1.26-1.62.72 0 .89-.52.37-1.1-1.16-1.28.53-2.74 1.81-1.58.37.34.93.09.93-.42 0-.86.46-1.4 1.19-1.4.77 0 1.21.48 1.21 1.32 0 .69.53.85 1.1.34.83-.75 2.1-.23 2.1.85 0 .28-.44 1.05-.65 1.13-.35.13.17.81.65.84 1.84.12 1.77 2.13-.08 2.38-.7.09-.89.51-.43.98.57.61.66 1.11.28 1.67-.47.71-1.24.74-1.97.08-.54-.49-.93-.33-1 .42-.1 1.09-.9 1.66-1.76 1.23Zm.9-.24c.38-.14.58-.53.6-1.16l.01-.56.5-.19.49-.19.41.39c1.17 1.15 2.43-.13 1.28-1.31l-.37-.38.2-.47c.19-.46.22-.48.68-.55.96-.13 1.26-.37 1.26-.98 0-.39-.38-.79-.77-.82-.15 0-.4-.02-.55-.02-.31-.02-.27.03-.56-.6l-.23-.49.35-.36c1.1-1.12-.12-2.37-1.28-1.31l-.43.4-.38-.2c-.22-.11-.45-.2-.52-.2-.09 0-.13-.17-.13-.59 0-.77-.24-1.11-.8-1.11-.73 0-1 .32-1 1.18v.48l-.52.22-.51.22-.39-.35c-1.08-.98-2.36.19-1.35 1.23.43.44.43.46.17 1.06-.19.45-.2.46-.67.46-.87 0-1.39.54-1.17 1.19.12.33.67.61 1.2.61.46 0 .55.08.75.62.12.36.12.37-.29.82-1.13 1.22.2 2.35 1.4 1.19l.37-.36.48.2.48.19.02.64c.02.93.54 1.38 1.27 1.1Zm-12.62-.51c-.43-.09-.78-.42-.97-.93-.25-.65-.18-11.26.08-11.73.37-.69.31-.68 4.39-.71 4.07-.03 4.09-.03 4.48.61.24.39.25.8.03 1.18-.33.55-.54.59-3.52.59H7.3v2.88l2.39.04c2.71.03 2.82.06 3.1.84.12.35.12.44-.03.75-.31.66-.46.69-3.1.69H7.3v2.36c0 1.99-.03 2.41-.16 2.71-.28.57-.94.87-1.62.72Zm19.59.03c-.39-.06-.71-.32-.94-.76-.31-.57-.35-7.98-.05-8.53.47-.85 1.34-1 1.99-.34.22.21.39.48.39.6 0 .28.11.26.44-.08.82-.85 2.92-1.17 4.14-.62.64.29 1.33 1.03 1.58 1.69.22.58.34 6.39.15 7.04-.28.91-1.42 1.3-2.11.71-.52-.43-.54-.56-.6-3.73-.04-2.26-.09-3.02-.2-3.23-.43-.86-2.03-.73-2.65.22-.43.64-.47.94-.49 3.58-.01 2.36-.03 2.54-.22 2.8-.39.52-.89.75-1.43.65Zm11.66-.17c-1.2-.42-1.31-.79-1.35-4.46l-.03-3.07-.39-.06c-1.31-.21-1.34-1.78-.03-1.99l.41-.07.04-1.32c.04-1.7.33-2.18 1.3-2.18.94 0 1.32.59 1.37 2.15.04 1.33.04 1.35.71 1.35 1.73.01 1.62 1.86-.12 2.06l-.58.07v2.58c0 3.07-.06 2.93 1.17 2.82 1.38-.11 2.03.86 1.14 1.71-.55.53-2.65.77-3.64.41Zm6.73 0c-1.71-.47-2.75-1.58-2.54-2.7.22-1.2 1.46-1.34 2.17-.23.57.89 1.07 1.18 2.02 1.18.94 0 1.55-.39 1.55-1 0-.52-.42-.75-2.26-1.25-2.85-.77-3.91-2.03-3.28-3.88.7-2.05 4.78-2.7 6.88-1.09 1.35 1.03 1.08 2.66-.42 2.49-.39-.04-.53-.14-1.13-.73l-.69-.69-.78-.03c-.94-.04-1.42.18-1.42.66s.34.68 1.76 1.06c.72.19 1.62.47 2 .62 2.75 1.1 2.73 4.38-.04 5.42-.86.32-2.93.41-3.82.17Zm-36.95-.31c.38-.25.4-.37.45-3.04l.05-2.55 2.53-.05 2.54-.05.24-.28c.26-.31.29-.43.14-.81-.17-.47-.38-.51-3-.56l-2.45-.05-.03-1.73L7 20.9h5.82l.29-.29c.39-.4.39-.82 0-1.22l-.29-.29H9.27c-3.78 0-4.03.03-4.34.48-.22.33-.34 10.83-.13 11.54.2.7 1.12 1.03 1.75.62Zm19.43 0c.44-.31.47-.47.52-3.24l.05-2.65.31-.55c.79-1.4 2.57-1.65 3.25-.47.24.41.24.48.29 3.37.03 1.62.09 3.02.14 3.1.51.85 1.58.81 1.95-.08.25-.61.1-6.47-.18-7.1-.85-1.89-3.85-2.23-5.36-.61-.53.57-.65.6-.65.19 0-.96-.99-1.54-1.65-.97-.4.34-.47 1.11-.43 4.94.04 4.08.07 4.2 1.13 4.22.22.01.51-.06.63-.15Zm13.89-.07c1.14-.6.76-1.54-.59-1.44-1.49.12-1.49.11-1.46-3.33l.03-2.65.66-.07c1.02-.1 1.42-.44 1.19-1.02-.12-.33-.24-.39-1.1-.51l-.75-.1-.05-1.3c-.06-1.61-.28-2.05-1.03-2.05-.85 0-1 .29-1.06 2.05l-.06 1.4-.44.07c-1.25.21-1.28 1.29-.04 1.46l.48.07.05 3.15c.07 4.39.15 4.53 2.65 4.47.89-.03 1.28-.08 1.52-.2Zm6.82.08c1.6-.38 2.4-1.26 2.4-2.65.01-1.4-.92-2.18-3.34-2.84-2.14-.59-2.45-.77-2.45-1.46 0-.64.61-1.02 1.62-1.01.77 0 1.14.18 1.84.9.91.92 1.84.83 1.84-.17 0-2.01-4.79-2.79-6.59-1.09-.97.92-.95 2.39.05 3.26.47.42.98.64 2.59 1.11 1.69.49 1.77.52 2.08.9.73.86-.09 1.9-1.49 1.9-1.14 0-1.69-.3-2.31-1.28-.55-.86-1.36-.9-1.63-.08-.57 1.75 2.52 3.18 5.39 2.51Zm-29.47-2.68c-.69-.25-1.22-1-1.22-1.72 0-1.95 2.64-2.57 3.49-.82.71 1.46-.74 3.09-2.27 2.54Zm1.46-.44c1.27-.95.72-2.83-.82-2.83-1.74 0-2.17 2.32-.56 2.99.35.15 1.08.07 1.38-.16ZM50.96 6.81c-.26-2.83-2.31-5.38-5.03-6.27l-.88-.29h-19.4C7.35.25 6.21.27 5.6.43 2.86 1.18.89 3.3.33 6.1.16 6.97 0 7.15 0 6.47 0 4.36 1.87 1.74 4.15.65 5.62-.05 3.94 0 25.87.02l19.78.03.76.31c2.69 1.09 4.79 3.9 4.79 6.4 0 .93-.15.97-.24.05Z"/></svg>