<svg xmlns="http://www.w3.org/2000/svg" width="51" height="51" viewBox="0 0 51 51"><path fill="#fff" fill-rule="evenodd" stroke="#fff" stroke-width=".351" d="M.93 51.04c-.08-.2.08-.53.49-1 .18-.21.28-.35.23-.32-.23.14-.41-.11-.21-.27.74-.57 1.17.66.46 1.3-.25.23-.26.07-.03-.53.12-.32.13-.46.05-.54-.09-.09-.12-.06-.12.11 0 .12-.14.42-.31.67-.16.24-.28.48-.25.53s-.01.12-.09.15a.174.174 0 0 1-.22-.1Zm10.17.08c0-.04.06-.14.13-.21.1-.1.09-.11-.05-.06-.1.04-.18.11-.18.16s-.05.09-.1.09c-.06 0-.1-.06-.09-.12.04-.31-.02-.59-.11-.53-.15.09-.13.02.12-.44.36-.67.71-.68.44-.01-.23.59-.01.82.36.35.11-.14.24-.25.29-.25.13 0 .11.34-.03.5-.07.08-.03.06.09-.04.13-.1.37-.41.54-.67.46-.73.67-.64.29.11-.18.35-.18.4-.04.48.18.1.09.37-.22.63-.16.13-.17.12-.12-.13.06-.35-.02-.35-.32-.03-.28.3-.71.37-.49.08.13-.17.13-.17-.07 0-.22.18-.44.23-.44.09Zm2.87-.16c.06-.27.59-.83.7-.73.13.13-.35.97-.55.97-.15 0-.18-.06-.15-.24Zm4.78.05c.06-.33.45-1.01.58-1.01.08 0 .07-.04-.03-.1-.12-.07-.11-.13.1-.35.64-.68 1.02-.51.76.34-.16.54-.03.6.34.17.17-.22.3-.2.3.04 0 .29-.42 1.1-.57 1.1-.11 0-.1-.07.03-.31l.16-.32-.26.07c-.17.04-.26.02-.26-.05 0-.08-.05-.08-.15.01-.21.18-.32.03-.16-.21.07-.12.1-.23.08-.26-.06-.05-.36.33-.59.76-.19.34-.39.42-.33.12Zm8.15.13c0-.12.24-.51.49-.77.14-.15.26-.36.26-.45 0-.2.32-.29.48-.13.07.07.06.15-.03.25-.07.09-.1.22-.07.3.03.07 0 .19-.06.25-.13.13.02.15.21.02.16-.1.23-.44.1-.52-.05-.03-.02-.12.07-.19.13-.11.15-.09.15.14 0 .17.05.26.15.26.13 0 .14.04.05.2-.06.11-.08.2-.06.2.06 0 .36-.55.36-.65 0-.03-.07-.05-.15-.05-.19 0-.19-.02.05-.45.25-.44.27-.74.05-.55-.08.07-.15.09-.15.04 0-.04-.05-.03-.12.04-.16.16-.28.15-.28-.03 0-.13.2-.2.35-.12.02.01.11-.07.19-.18.14-.19.15-.19.16-.02 0 .25.24.16.28-.11.02-.16-.02-.22-.15-.22-.17-.01-.17-.01 0-.14.18-.14.18-.14 0-.19-.13-.03-.14-.05-.02-.06.25-.02.61.39.55.61-.04.18 0 .16.24-.07.36-.35.47-.28.25.15-.11.2-.22.3-.31.26-.12-.05-.12-.02-.03.16.1.18.08.24-.12.39-.27.2-.41.16-.32-.09.06-.15.04-.15-.1-.04-.12.1-.14.19-.07.38.05.13.06.32.03.41-.06.16-.05.16.1.04.09-.07.17-.2.17-.27 0-.08.12-.19.26-.24.36-.14.37-.13.17.16-.16.26-.16.27.06.45.23.19.07.4-.18.24-.17-.1-.51.13-.45.3.04.08.02.15-.04.15s-.12-.06-.15-.12c-.03-.1-.07-.1-.2 0-.09.08-.21.11-.26.08-.06-.04-.19-.01-.3.06-.23.14-.43.02-.21-.13.12-.09.11-.09-.05-.04-.4.13-.39.14-.44-.26 0-.06-.19.05-.41.25-.39.35-.5.42-.5.3Zm6.51-.03c-.13-.09.04-.24.34-.31.17-.05.45-.24.45-.32 0-.16-.28-.07-.56.17-.27.24-.54.33-.54.19 0-.22.43-.74.54-.65.07.06.17.06.26.01.32-.2.64.09.53.48-.04.18-.63.51-.63.35 0-.03-.06-.01-.13.05s-.18.07-.26.03Zm3.14-.21c.03-.24 0-.3-.14-.3-.12 0-.24-.13-.33-.35l-.14-.36-.24.51c-.13.27-.27.5-.31.5-.12 0-.19-.44-.09-.54.16-.16.12-.31-.2-.62-.35-.34-.36-.39-.11-.7.15-.19.2-.21.25-.09.03.09 0 .15-.09.15-.23 0-.17.23.14.47l.28.22.17-.3c.23-.39.4-.38.32.02-.04.22-.02.29.07.26.06-.02.2 0 .3.05.17.09.19.06.15-.39-.05-.7.25-.69.32.01.06.55.22.49.35-.12.1-.49.36-.38.57.23l.17.5.01-.57c0-.45.03-.58.15-.58.1 0 .15.1.15.27v.26l.23-.21c.32-.3.47-.12.47.53 0 .41-.05.56-.23.73-.25.24-.57.31-.39.09.07-.08.06-.18-.04-.31-.13-.19-.14-.18-.14.15 0 .23-.07.41-.21.52-.28.24-.33.17-.14-.19.21-.42.2-.63-.05-.57-.16.04-.2 0-.21-.18-.01-.19-.02-.2-.06-.05-.03.1 0 .23.06.29.14.14.14.37.01.37-.05 0-.1-.06-.1-.14s-.15.01-.35.21c-.19.19-.32.39-.29.44s-.04.09-.15.09c-.16 0-.19-.05-.16-.3Zm-34.1-.1c.01-.17.09-.38.18-.48.09-.09.2-.29.26-.45.06-.15.15-.27.2-.27.17 0 .19.28.05.56-.12.23-.04.18.38-.23.56-.56.68-.62.68-.39 0 .29-.83 1.1-1.21 1.18-.08.02-.2.11-.27.21-.2.26-.3.21-.27-.13Zm37.32.23c-.04-.03.03-.17.15-.3.12-.12.18-.26.14-.3-.04-.05-.13 0-.2.1-.15.2-.36.23-.36.05 0-.07-.09-.02-.2.12-.23.29-.47.11-.29-.21.05-.1.09-.42.09-.72 0-.34.05-.59.13-.66.18-.14.77-.26.77-.15.01.27.17.34.45.2.37-.2.48-.11.4.3-.07.37.12.47.35.19.07-.08.17-.15.23-.15.05 0 .03.08-.06.18-.1.1-.14.22-.1.25.03.04-.01.15-.11.26-.15.16-.15.19-.01.24.19.08.2.41.01.56-.17.14-.29 0-.2-.22.1-.27-.11-.26-.54.04-.44.3-.54.34-.65.22Zm7.87-.04c-.04-.07-.11-.26-.15-.43-.05-.21-.07-.24-.08-.1-.01.28-.34.56-.62.52-.34-.05-.34-.25.01-.31.41-.09.38-.33-.05-.41-.26-.05-.36-.13-.41-.32-.12-.47.58-1.11.92-.83.19.16.18.33-.02.25-.25-.1-.54.12-.54.4 0 .24.03.26.3.22.17-.03.33-.01.36.04.09.14.22.09.27-.13.08-.3.27-.14.27.23 0 .3.01.3.19.14s.2-.16.36 0c.17.17.17.15.1-.34-.06-.43-.04-.52.08-.52.16 0 .27.2.27.5 0 .38.29.31.32-.08.04-.51.22-.46.26.07.02.26.1.5.19.56.09.07.13.21.1.36l-.04.24-.08-.23c-.07-.2-.09-.21-.19-.06-.11.14-.14.12-.25-.13l-.14-.28-.13.35c-.12.33-.15.35-.18.08-.02-.23-.24-.18-.3.07-.1.38-.4.34-.33-.05.05-.23.03-.28-.08-.23-.08.03-.15.13-.15.23 0 .23-.16.34-.26.19Zm-43.8-.14c.03-.1.01-.24-.05-.31-.12-.14.12-.54.32-.54.05 0 .24-.17.43-.38.31-.33.35-.35.42-.18.06.14-.02.28-.32.56-.21.2-.43.49-.49.65-.05.15-.16.3-.24.33-.1.03-.12 0-.07-.13Zm27.35-.11c.11-.15.19-.3.16-.34s.02-.13.1-.2.15-.21.15-.32c0-.24.48-.88.66-.88.2 0 .18.06-.16.56-.46.69-.19.51.33-.21.26-.36.45-.71.41-.77-.04-.05 0-.14.07-.19.21-.13.29-.11.23.06-.04.09 0 .15.1.15.09 0 .16.03.16.06 0 .07-.78 1.04-.97 1.2-.07.06-.09.14-.05.18.14.15.06.41-.17.54-.18.09-.26.1-.31.01-.09-.13-.38 0-.6.25-.22.27-.32.17-.11-.1Zm13.28-.24c.04-.35.02-.5-.06-.5-.07 0-.1.04-.07.09s-.02.12-.11.15c-.09.04-.2.02-.23-.05-.11-.17-.23.07-.15.31.13.4-.35.11-.6-.36l-.15-.29v.53c0 .39-.04.52-.15.52-.1 0-.15-.1-.15-.29 0-.24-.04-.28-.25-.28-.24 0-.25.01-.1.17.08.09.12.2.08.23-.11.12-.41.08-.46-.06-.03-.09-.17-.12-.39-.09l-.33.04.53-.47c.28-.25.52-.53.52-.61 0-.17.16-.19.23-.01.03.06.06 0 .06-.14.02-.5.41-.41.41.1l.01.26.24-.3c.27-.33.34-.3.44.16l.06.32.62-.56c.74-.69.75-.69.67-.08-.06.48-.06.5.16.44.16-.04.21-.03.16.05-.04.07-.13.12-.19.12-.15.01-.52.5-.37.5.05 0 .18-.09.27-.2.2-.23.63-.27.63-.05 0 .08-.24.27-.52.41-.29.15-.54.3-.56.35-.13.34-.31.04-.25-.41Zm-40.07.26c0-.08.11-.27.25-.42.13-.14.22-.32.18-.38-.03-.06-.03-.08.02-.04.04.04.14 0 .21-.1.18-.24.3-.07.16.23-.23.5-.01.23.28-.35.3-.59.42-.7.55-.5.07.11-.34.9-.69 1.34-.25.32-.58.29-.34-.02.07-.1-.01-.05-.18.1-.34.32-.44.34-.44.14Zm3.84-.13c.01-.3.5-.88.66-.78s.12.24-.15.53c-.14.15-.25.32-.25.39s-.06.13-.14.13c-.09 0-.13-.1-.12-.27Zm15.03.02c.03-.09.18-.22.34-.31.16-.08.37-.27.46-.42.26-.4.42-.54.53-.47.06.04-.03.19-.2.36-.16.17-.3.35-.3.39 0 .1-.69.6-.82.6-.04 0-.05-.07-.01-.15Zm2.13.08c.05-.02.1-.17.1-.31-.01-.23-.02-.25-.11-.09-.16.27-.32.21-.26-.1.1-.57.16-.74.31-.89.19-.18.33.03.22.32-.04.1.01.22.11.29.18.14-.08.75-.35.81-.07.01-.08 0-.02-.03Zm-8.9-.1c-.33-.14-.41-.31-.15-.37.58-.15.8-.27.65-.36-.11-.07-.12-.14-.05-.25.13-.22.29-.21.34.02.02.1.08.21.15.25.17.11.17.56-.01.62-.1.04-.13.02-.1-.08.07-.17-.2-.1-.41.11-.14.14-.19.15-.42.06Zm33.47.01c-.04-.04-.07-.16-.07-.26s-.07-.18-.15-.18c-.17 0-.2-.36-.05-.74.14-.37.3-.32.3.1 0 .33.02.36.23.31.34-.09.49.06.45.44-.03.34-.49.55-.71.33Zm-35-.51c-.04-.22.01-.34.26-.55.17-.15.27-.31.23-.35s-.11-.01-.16.07c-.07.11-.1.07-.1-.17 0-.59.44-.44.81.29.23.46.12.75-.14.38l-.16-.23-.26.22c-.15.11-.32.18-.39.14-.06-.03-.03.03.06.14.22.24.23.33.04.33-.07 0-.16-.12-.19-.27ZM.04 49.96c0-.19.03-.33.06-.31.04.02.2-.09.36-.26.41-.43.93-.74 1.05-.62.06.06-.1.25-.46.52-.39.29-.58.51-.62.72-.08.43-.39.39-.39-.05Zm21.72.02c.1-.33.64-1.18.75-1.18.14 0 .11.17-.11.63l-.21.42.23-.27c.13-.16.28-.28.33-.28s.04.05-.03.12c-.23.23-.12.3.33.24.44-.07.52-.02.37.2-.11.17-.92.27-1.08.13-.11-.09-.18-.08-.32.05-.25.22-.35.2-.26-.06Zm-3.92-.69c-.03-.05-.02-.13.01-.19.03-.05.08-.19.1-.31.05-.25.86-1.49.98-1.49.2 0 .17.34-.05.68-.45.67-.66 1.07-.61 1.18.05.14-.35.26-.43.13Zm8.21-.26c-.04-.16 0-.34.1-.49.09-.14.11-.24.05-.24s-.08-.04-.05-.1c.03-.05.01-.1-.04-.1-.06 0-.11-.09-.11-.2s.06-.2.14-.2.13.06.12.13c-.03.26.19.19.24-.08.03-.15.11-.3.19-.33.19-.06.09.55-.19 1.14-.12.24-.19.48-.16.53s0 .11-.08.14c-.09.04-.16-.03-.21-.2Zm1.82-.12c-.02-.11 0-.25.07-.31.06-.07-.06-.05-.28.04-.52.21-.65.2-.59-.04.03-.11.12-.2.2-.2s.28-.07.45-.16c.34-.18.52-.06.44.29-.02.09 0 .17.05.17s.04.09-.03.2c-.16.25-.24.25-.31.01Zm6.83-.26c-.14-.07-.52-.26-.85-.42-.33-.15-.76-.42-.95-.59s-.48-.34-.64-.38-.3-.15-.33-.26c-.05-.18-.07-.18-.34-.04-.26.13-.29.13-.29-.01 0-.08.06-.15.14-.15.29 0 .22-.28-.21-.88l-.44-.62-.37.3c-.25.21-.39.27-.47.19-.07-.07.02-.2.29-.43l.38-.33-.41-.84c-1.06-2.2-1.12-5.03-.16-7.49.14-.37.19-.59.12-.57-.08.01-.12-.23-.12-.81 0-.62-.04-.85-.15-.92-.09-.06-2.32-.1-5.63-.1H18.8l-.11.28c-.06.15-.13.76-.15 1.37-.04 1.07-.16 1.44-.3.9-.08-.33.02-1.85.16-2.36l.1-.37.73-.07c.39-.04 2.98-.05 5.74-.03 5.89.04 5.39-.08 5.36 1.2l-.01.81.3-.54c.87-1.53 2.99-3.57 3.77-3.64.09-.01.54-.16 1.01-.34 4.14-1.62 8.02-.93 10.82 1.92 3.03 3.08 3.73 8.17 1.61 11.76-.77 1.29-1.7 2.08-1.28 1.08.17-.41.2-1.23.05-1.32-.06-.04-.39.03-.73.14-.76.26-2.05.51-2.58.51-.33 0-.45.06-.81.46-.83.9-2.28 1.78-2.89 1.76-.55-.02-2.07-.5-2.75-.86l-.62-.33-.73.14c-.41.07-1.15.12-1.64.12-.89-.02-.9-.02-.87.22.05.38 1.42 1.39 1.89 1.39.07 0 .13.07.13.15 0 .18.01.18-.3 0Zm-24.5-.02c0-.19.36-.83.47-.83.07 0 .13.05.13.11 0 .05.04.08.09.05.19-.12.32.2.13.35-.39.32-.82.48-.82.32Zm7.4-.07c0-.08.04-.18.1-.21.44-.27.27-.44-.19-.2-.42.21-.75.21-.41 0 .06-.04.07-.11.04-.17-.04-.07-.02-.08.04-.04.07.04.16-.02.21-.16.1-.27.58-.74.67-.66.03.04-.03.19-.13.35l-.18.28.27-.17c.5-.33.54.02.06.68q-.48.675-.48.3Zm-8.58-.3c.02-.08-.06-.22-.17-.3-.2-.14-.2-.15.04-.4.43-.46.69-.27.34.24-.17.24-.17.25.02.11.42-.31.94-.85.89-.92-.05-.09.15-.23.23-.15.03.03.01.12-.06.19-.06.08-.12.26-.13.42-.02.17-.1.3-.23.35-.11.04-.31.2-.44.34-.27.28-.54.35-.49.12Zm-4.8-.69c.01-.2.06-.33.1-.31.04.03.08-.04.08-.16s.04-.18.11-.15c.06.04.13-.02.16-.14s.11-.21.18-.21c.12 0 .75-.64.75-.75 0-.16-.44 0-.83.3-.52.4-.53.4-.61.2-.08-.21.96-.88 1.6-1.04.66-.17.76-.02.3.44-.53.53-.3.73.46.4.16-.06.18-.02.15.36-.02.39-.27.71-.27.35 0-.13-.07-.12-.37.08-.5.32-.79.37-.75.12.04-.24-.2-.16-.33.11-.06.11-.25.33-.43.48l-.33.27zm12.48.17c0-.14.02-.15.17-.03.15.13.16.12.11-.09-.04-.12-.03-.22 0-.22.04 0 .2-.18.36-.4.32-.42.56-.52.56-.22 0 .2-.89 1.12-1.08 1.12-.07 0-.12-.07-.12-.16Zm8.36-.03c-.06-.1.44-.77.77-1.03l.22-.18-.25.01a.8.8 0 0 0-.44.14c-.39.29-.52.07-.14-.23.12-.09.46-.39.75-.66.42-.39.56-.47.66-.37.09.1.03.21-.3.52-.23.21-.38.39-.32.39.26 0 .87.52.82.71-.06.23-.11.24-.34.03-.24-.22-.52-.11-.89.37-.32.39-.44.46-.54.3Zm15.64-.56c.75-.45 1.66-1.2 1.81-1.46.09-.18-1.02-2.48-1.56-3.22-.09-.12-.35-.09-1.85.23-1.64.35-2.22.4-1.88.19.08-.05-.01-.06-.22-.03-.19.04-.36.08-.38.09-.05.04-.22 2.05-.22 2.77v.77l.62.3c.54.25 1.49.57 2.23.75.39.09.86-.03 1.45-.39Zm-25.22.19c-.25-.25.82-1.94 1.23-1.94.21 0 .06.34-.35.78-.24.26-.41.52-.39.58s-.05.14-.16.17c-.11.02-.21.15-.23.27-.01.12-.06.18-.1.14Zm13.83-.12c-.21-.4.94-1.25 1.43-1.06.22.08.2.18-.1.54-.46.54-1.17.82-1.33.52Zm-2.21-.07c0-.08.04-.15.08-.15.05 0 .27-.16.49-.35.48-.41.63-.44.63-.11 0 .13.07.26.15.3.18.07.09.36-.12.36-.08 0-.17-.09-.2-.2-.05-.2-.06-.2-.49.05-.5.29-.54.3-.54.1Zm6.2-.02c0-.06.5-.13 1.18-.16.64-.04 1.27-.1 1.4-.13.12-.04.22-.02.22.04 0 .12-.5.2-1.77.29-.66.04-1.03.02-1.03-.04Zm-10.05-.23c-.08-.25.04-.48.15-.3.06.1.15.08.36-.09.17-.13.31-.18.37-.12.15.15-.1.48-.44.6-.4.14-.37.15-.44-.09Zm9.55.1c0-.06-.34-.46-.74-.9-.95-1.01-1.79-2.4-1.46-2.4.06 0 .1.04.1.09 0 .21 1.22 1.9 1.68 2.33.58.54 1.17.66 2.42.48 1.13-.16 1.1-.14 1.1-.73 0-1.75.26-3.66.31-2.29.02.33.02.32.09-.13.06-.47.05-.52-.22-.78-.37-.35-.3-.46.1-.17l.29.22 2-.41c1.11-.23 2.12-.41 2.25-.41.22 0 .27-.06.53-.75.05-.11.09-.26.11-.33.03-.18.13-.27.19-.2.03.03.01.16-.04.29-.12.3-.24.62-.26.69 0 .03-.04.18-.08.33-.11.4 1.57 3.47 1.89 3.47 1.28 0 3.44-.68 3.71-1.17.29-.53.81-2.15.96-2.97l.11-.68-.42-.82c-.24-.44-.64-1.12-.9-1.51l-.47-.7-.52.01c-.59.02-2.93.51-3.07.65-.15.13-.26.11-.2-.04.05-.15-.94-1.36-2.04-2.49l-.75-.76-.68.03c-.38.02-.69-.01-.69-.06s.08-.09.17-.1c.28 0 1.07-.1 1.19-.14.06-.02.26-.29.44-.61s.5-.82.71-1.1c.44-.6.42-.65-.5-1.08-1.06-.49-2.14-.44-4.3.2-1.13.33-1.51.41-1.38.27.09-.08 1.27-.46 2.32-.75 1.66-.44 3.35-.24 4.2.51.11.1.58.27 1.04.4 1.81.47 3.02 1.21 3.4 2.1.23.54.61 1.95.61 2.27 0 .11.29.64.64 1.15.35.52.82 1.31 1.05 1.77 1.04 2.07 1.48.06.57-2.61-1.14-3.33-4.19-5.82-7.69-6.29-.75-.1-.91-.09-1.3.06-.25.09-.83.21-1.29.26-.96.1-1.76.29-2.72.65-.36.14-.73.25-.82.25-.18 0-1.22.7-1.77 1.19-2.64 2.37-3.78 6.84-2.57 10.03.6 1.58 2.7 4.44 2.7 3.68Zm-12.6-.26c0-.22.48-1.04.6-1.04.17 0 .11.33-.13.74-.24.43-.47.58-.47.3Zm6.87.04c-.06-.19.19-.97.39-1.19.25-.28.37-.03.17.32-.13.22-.14.31-.05.42s.08.17-.06.29c-.28.25-.4.29-.45.16ZM.72 46.62c.42-.93.78-1.35.78-.91 0 .32-.43.99-.63.99-.1 0-.17-.03-.15-.08Zm11.88 0c0-.1 1.03-1.12 1.13-1.12.3 0-.26.81-.74 1.05-.32.17-.39.18-.39.07Zm35.26-2.07c.59-1.24 1.2-3.85.9-3.85-.38 0-.74.31-.8.69-.09.6-.64 2.28-.93 2.84-.2.41-.22.53-.13.86.05.21.07.54.04.72l-.06.34.27-.35c.15-.19.47-.75.71-1.25Zm-4.66 1.26c.08-.05.42-.12.75-.16s.87-.13 1.2-.21c.71-.16.75-.17.75-.05 0 .05-.51.18-1.12.3-1.18.22-1.85.27-1.58.12Zm-8.78-5.06c-.18-.25-.32-.49-.32-.53 0-.45-.51-.48-1.89-.12-1.3.36-1.26.37-1.56-.58-.52-1.62.53-4.15 2.09-5.07.54-.32.64-.28 1.74.64.62.52.75.6.92.51.26-.14.26.02-.01.26-.38.35-.82 1.41-1.33 3.26l-.16.58.37.57c.21.32.44.64.5.71.15.16.16.22.05.22-.05 0-.23-.2-.4-.45Zm-2.27-.9c.49-.14.99-.25 1.11-.25.29 0 .51-.2.58-.55.05-.27.04-.28-.06-.08-.13.27-.4.37-.74.29-.71-.18-.59-2.36.16-2.89.25-.17.9-.03.9.2 0 .16-.1.16-.44.03-.45-.17-.86.49-.86 1.39 0 1.42.6 1.42 1.06.01.17-.52.43-1.18.57-1.47.33-.63.32-.62.05-.56-.22.04-.23.04-.04-.11.14-.11.22-.13.27-.05.04.07.09.08.13.01.08-.13-1.43-1.32-1.67-1.32-.11 0-.49.3-.86.68-1.47 1.47-1.93 3.1-1.32 4.65.13.33.05.32 1.16.02Zm12.79-2.47c.93-.15.93-.13.67-1.19-.5-2.13-.91-2.55-3.25-3.34-1.15-.39-1.16-.38-1.8.59-.91 1.39-.91 1.22 0 2.22.43.48 1.05 1.17 1.36 1.54l.57.68.83-.19c.46-.11 1.18-.25 1.62-.31Zm-2.09.14c.09-.09 1.09-.33 1.88-.45.7-.11.27.12-.51.27-.48.09-1 .19-1.17.23-.2.04-.27.02-.2-.05Zm6.71-.57c-.27-.7.25-4.45.62-4.45.18 0 .2.12.06.39-.21.43-.32 1.22-.38 2.76-.03.77-.06 1.41-.06 1.43-.01.09-.19-.01-.24-.13Zm-30.54-.97.03-1.03 5.15-.07c2.83-.04 5.21-.05 5.28-.03.19.07.17 2.05-.03 2.05-.12 0-.15-.17-.15-.91v-.92l-.82.06c-.46.04-2.71.07-5 .07h-4.17l-.03.87c-.02.59-.07.88-.16.91-.1.03-.12-.19-.1-1Zm1.05.65a.21.21 0 0 1-.07-.15c0-.04 1.98-.08 4.4-.08 3.84 0 4.4.02 4.4.15 0 .16-8.58.24-8.73.08Zm24.98-3.1c-.54-.42-3-1.46-4.95-2.1-.11-.04-.11-.07-.03-.1.37-.14 4.33 1.48 5.03 2.05.29.24.25.38-.05.15Zm-24.5-1.34c-4.64-.13-9.21-.66-10.7-1.24-.22-.08-.29-.13-.15-.1 4.35.94 15.54 1.37 22.64.85 1.39-.1 1.68-.09 1.54.06-.31.31-8.47.57-13.33.43Zm-17.3-3.62c-.54-.25-.55-.35-.55-4.48 0-4.12.01-4.23.55-4.47.18-.08 1.15-.12 3.25-.12h3l.32.29c.32.29.32.3.36 1.34l.04 1.06.57-.29c1.73-.88 3.89-.57 5.15.74l.39.4.26-.3c1.2-1.4 3.85-1.75 5.47-.73.46.3.48.3.6.12.21-.3.47-.53.59-.53.07 0 .15-.13.18-.29.09-.41.36-.64 1.5-1.22 1.61-.83 2.15-.66 2.25.7.06.91.32 1.03.32.16 0-1.27.31-1.48 2.09-1.43 1.52.04 1.72.18 1.79 1.21l.04.64.74.06c.95.07 1.68.4 2.18.98l.38.44.47-.46c1.22-1.21 4.32-1.34 5.82-.24l.34.26.05-1.2c.07-1.66.06-1.65 1.81-1.69 1.02-.03 1.35 0 1.53.11.19.13.26.13.47.01.53-.29 2.73-.19 3.11.15l.33.29v8.02l-.28.27-.27.28-1.43-.02c-.78-.01-1.6-.01-1.82-.01-.22.01-.96.01-1.65.01h-1.6c-1.22.02-1.74.01-2.45-.01-.44-.02-1.23 0-1.76.04-1.18.08-1.85-.09-2.46-.61l-.42-.36-.51.4c-.65.52-1.13.64-2.15.57-.44-.03-.87-.06-.95-.07-.13-.01-2.16-.01-3 0-.14.01-.74.03-1.33.07-1.7.1-2.49-.26-2.96-1.37l-.23-.52-.17.3c-1.18 1.93-4.86 2.2-6.48.47l-.42-.45-.42.45c-1.41 1.54-4.46 1.57-6.03.08-.41-.39-.96-1.42-.96-1.79 0-.22-.03-.23-1.05-.23H6.8v1.15c0 1.22-.11 1.65-.47 1.8-.35.15-2.76.16-3.08.02Zm11.17-.37c.68-.25 1.09-.55 1.55-1.14l.35-.46.28.38c1.59 2.2 5.53 1.9 6.63-.5.28-.61.31-.6.45.14.25 1.32.95 1.83 2.52 1.83.52 0 1.12-.06 1.32-.13.27-.1.42-.1.57-.03.24.13 2.36.15 2.59.02.11-.06.37-.04.72.05 1.02.28 2.06 0 2.69-.73l.39-.44.27.35c.58.77 1.91 1.1 3.24.82.52-.11.79-.12.93-.05.11.06.69.08 1.46.06 1.52-.06 1.17-.06 2.86 0 1.15.03 1.41.02 1.55-.11.15-.14.2-.14.37-.01.33.25 2.78.21 3.04-.05.27-.27.32-7.79.04-8.18-.24-.34-2.84-.34-3.08 0l-.16.22-.16-.22c-.14-.21-.22-.22-1.47-.22-1.79 0-1.77-.02-1.77 1.84 0 1.36-.05 1.46-.45.98-1.16-1.38-5.16-1.19-6.08.29l-.3.49-.36-.52c-.57-.8-1.23-1.12-2.36-1.15l-.9-.02-.03-.73c-.05-1.11-.14-1.18-1.67-1.18-1.57 0-1.58.01-1.65 1.12l-.05.83h-.8l-.05-.83c-.08-1.33-.31-1.4-1.94-.54-1.1.57-1.2.66-1.3 1.12-.04.16-.18.31-.38.4-.24.11-.34.24-.39.48-.09.45-.07.45-.72.01-1.75-1.17-4.52-.81-5.54.72-.31.47-.38.48-.57.1-.94-1.82-4.72-2.04-6.13-.35-.42.5-.58.56-.51.19l.05-.25H7.93c-1.19 0-1.54-.03-1.5-.12.03-.1.47-.13 1.73-.14l1.69-.02.03-1.12c.02-.89-.01-1.18-.13-1.36l-.15-.24H6.48c-2.76 0-3.14.02-3.3.17-.27.24-.28 7.95-.01 8.25.14.16.33.18 1.52.18 1.89 0 1.81.07 1.81-1.71V25.3h2.58l.07.43c.35 2.11 2.96 3.34 5.27 2.47Zm-2.79-.28c-3.55-1.27-2.52-5.88 1.32-5.87 2.42.01 3.9 2.18 2.96 4.32-.62 1.4-2.65 2.13-4.28 1.55Zm7.14.07c-1.43-.34-2.29-1.42-2.3-2.88-.02-3.99 6.32-4.2 6.61-.22.15 2.19-1.9 3.67-4.31 3.1Zm6.38 0c-.86-.32-1.15-1.03-1.15-2.82v-1.19l-.28.07c-.44.09-.53-.11-.5-1.02l.03-.78.37-.03c.36-.03.38-.05.38-.4 0-.51.03-.54 1.05-1.06 1.4-.71 1.39-.71 1.43.47l.03.97h1.2l-.03.92-.03.93-.57.03-.58.03v2.08l.52.03c.51.03.52.04.59.38.19.98.18 1.2-.04 1.32-.3.15-2.05.2-2.42.07Zm6.15-.04a2.6 2.6 0 0 1-.52-.32c-.17-.15-.18-.14-.18.1V28h-2.4v-7.81l1.23.03 1.22.03.03 1.07.03 1.07.37-.16c1.13-.47 2.58.03 3.12 1.08 1.28 2.48-.69 5.63-2.9 4.64Zm4.71.03c-.8-.27-1.28-1.09-1.1-1.89.2-.89.6-1.16 2.15-1.44 1.33-.24 1.64-.34 1.64-.51 0-.43-.94-.36-1.19.08l-.16.3-1.05-.06c-1.35-.07-1.53-.28-1.01-1.21.84-1.49 4.52-1.71 5.54-.33.38.52.4.63.47 2.63.04 1.04.11 2.02.15 2.18l.07.27H39v-.49l-.47.27c-.54.3-1.9.41-2.52.2Zm-32.65-.14c-.09-.24-.07-7.37.02-7.52.07-.09.75-.12 3.08-.1l2.99.03.03.98.03.97H6.1v.9h2.91l-.03.93-.03.92-1.42.03-1.43.03V28H4.76c-1.13 0-1.35-.02-1.4-.16ZM42.1 24.1v-3.91l1.23.03 1.22.03.03 3.87.02 3.88h-2.5zm3.3 0v-3.9H48V28h-2.6zM5.82 26.22l.03-1.47 1.43-.03 1.42-.03v-1.28l-1.42-.03-1.43-.03-.03-.67-.03-.68H9.2v-1.5H3.6v3.58c0 1.97.02 3.61.04 3.63s.52.03 1.1.01l1.05-.03zm8.27 1.42c1.81-.53 2.44-3.06 1.09-4.44-1.5-1.56-4.68-.96-5.26.98-.72 2.41 1.5 4.26 4.17 3.46Zm6.9 0c1.96-.58 2.49-3.44.88-4.67-1.94-1.47-4.94-.4-5.14 1.83-.2 2.16 1.89 3.55 4.26 2.84Zm6.46.05c.03-.03.02-.3-.02-.6l-.08-.54-.47-.05c-.64-.08-.63-.05-.66-1.46l-.04-1.24h1.22v-1.29l-.57-.03-.58-.03-.03-.97-.03-.98-.94.47-.94.47-.03.51-.03.5-.37.03-.38.03v1.29h.78l.04 1.54c.03 1.73.1 1.93.79 2.29.33.18 2.17.22 2.34.06Zm5.7-.12c1.58-.9 1.53-4.19-.09-5.04-.48-.26-1.51-.23-2.04.05-.63.32-.62.33-.62-.93V20.5h-1.9v7.2h1.8v-.28c0-.42.09-.45.49-.13.58.45.73.5 1.36.51.44 0 .71-.06 1-.23Zm5.39-.11.65-.34.03.27c.03.26.03.26 1 .29l.98.03-.1-.26c-.06-.15-.1-1.02-.1-1.94 0-2.31-.28-2.83-1.68-3.12-1.83-.38-3.69.27-3.97 1.38-.14.56 1.55.66 2.05.13.53-.57 1.65-.33 1.58.33l-.03.32-1.37.27c-2.06.41-2.36.59-2.45 1.51-.13 1.31 1.81 1.96 3.41 1.13Zm5.85-3.37-.03-3.59h-2.05l-.01 3.16c0 1.74.02 3.37.06 3.62l.06.47 1-.03.99-.03zm3.31.01v-3.6h-2v7.2h2zm-10.4 2.5c-.5-.5.02-.96 1.3-1.16l.4-.07v.34c0 .82-1.16 1.43-1.7.89Zm-25.15-.4c-.58-.6-.42-2.11.26-2.49.92-.51 1.81.78 1.39 2.03-.25.78-1.11 1.02-1.65.46Zm7.06.14c-.94-.66-.53-2.74.54-2.74.66 0 1.05.56 1.05 1.5 0 1.18-.79 1.8-1.59 1.24Zm11.76.05c-.71-.41-.63-2.38.12-2.69.54-.22 1.06.18 1.2.93.23 1.27-.49 2.24-1.32 1.76Zm7.27.01c.24-.09.66-.7.48-.7-.17 0-1.17.32-1.26.4-.3.29.25.5.78.3Zm-24.85-.46c.32-.41.3-1.46-.04-1.79-.67-.68-1.47.11-1.28 1.27.12.77.89 1.07 1.32.52Zm6.97 0c.26-.39.24-1.35-.02-1.71-.63-.85-1.56-.04-1.34 1.17.15.8.98 1.13 1.36.54Zm11.34.16c.54-.29.5-1.87-.06-2.12-.56-.26-1.03.43-.91 1.35.1.73.48 1.03.97.77Zm-19.03-.31c-.13-.08-.17-.23-.17-.63 0-1.11.63-1.19.68-.08.03.67-.14.91-.51.71Zm6.87-.03c-.24-.18-.25-1.09-.01-1.34.3-.3.52-.05.55.66.03.69-.17.95-.54.68Zm7.43-.03c-.04-.03-.07-.33-.07-.65v-.59l.43.03.42.03.03.5c.04.6-.47 1.03-.81.68Zm4.19-.09c-.18-.47-.03-1.24.24-1.24.22 0 .3.19.3.7s-.08.7-.3.7c-.1 0-.21-.07-.24-.16Zm-17.12-7.69c-.22-.33-.01-.98.33-1.03.25-.04.39.28.24.55-.09.16-.11.16-.19-.06l-.09-.25-.06.23c-.07.29.01.51.2.51s.11.24-.1.28c-.09.02-.23-.08-.33-.23Zm.78.13c-.14-.18.23-.78.48-.78.14 0 .18.08.18.4.01.27-.04.4-.13.4-.07 0-.2.02-.28.05-.07.03-.19 0-.25-.07Zm1.21.05c-.18-.07-.16-.33.02-.33.12 0 .13-.04.06-.19-.13-.24.08-.44.4-.39.27.04.38.28.12.28-.15 0-.16.02-.03.1.28.18-.23.65-.57.53Zm1.08-.17c-.25-.3.16-.84.54-.7.29.11.16.78-.16.82-.14.02-.31-.04-.38-.12Zm1.04-.06c-.12-.39.03-.6.45-.6.39 0 .6.13.4.25-.05.03-.1.17-.1.31 0 .3-.2.32-.28.02l-.05-.22-.08.22c-.1.27-.26.28-.34.02Zm1.99-.04c-.03-.14-.13-.27-.22-.31-.15-.06-.15-.08-.01-.18.08-.07.18-.2.22-.3.08-.2.27-.14.27.09 0 .08.07.14.15.14.19 0 .19.19 0 .26q-.15.06-.09.3c.05.18.02.24-.1.24-.08 0-.18-.11-.22-.24Zm2.92.17c-.03-.03-.06-.22-.06-.4v-.34l.58.03.57.03v.34c0 .42-.25.56-.26.14-.01-.28-.01-.28-.08-.03-.04.14-.13.25-.21.25s-.17-.11-.21-.25c-.06-.23-.07-.23-.08-.03-.01.23-.14.37-.25.26Zm1.56-.05c-.32-.32-.03-.82.44-.76.36.04.45.28.1.28-.32 0-.43.18-.14.22.13.02.24.11.26.21.04.2-.46.25-.66.05Zm1.2.03c-.3-.18-.1-.66.27-.66.34 0 .61.4.45.67-.07.1-.55.1-.72-.01Zm2.08-.15c0-.16-.07-.27-.2-.31-.11-.03-.2-.11-.2-.17 0-.05.09-.12.2-.15s.2-.09.2-.14.05-.09.1-.09c.06 0 .1.06.1.14s.07.16.15.2c.19.07.2.26.01.26-.09 0-.12.08-.08.25.03.18 0 .25-.12.25-.1 0-.16-.09-.16-.24Zm2.32.12c-.29-.29-.02-.72.4-.66.17.02.23.09.22.25 0 .13.03.23.08.23.04 0 .08.07.08.15 0 .19-.6.21-.78.03Zm1.95.05c-.04-.03-.07-.14-.07-.24 0-.09-.06-.19-.12-.22-.1-.04-.1-.07 0-.18.06-.07.12-.21.12-.31 0-.19.28-.38.48-.31.17.07.15.33-.03.33-.08 0-.15.04-.15.1s.07.1.15.1.15.05.15.1c0 .06-.07.13-.15.16-.08.04-.15.17-.15.3 0 .23-.1.31-.23.17Zm1.13-.07c-.14-.17-.1-.58.06-.63.06-.02.15.06.18.19l.07.23.09-.22c.17-.42.37-.23.3.27-.04.3-.49.4-.7.16Zm1.92.02a.44.44 0 0 1-.12-.27c0-.12-.06-.09-.19.08-.22.29-.41.2-.41-.2 0-.34.81-.46.94-.13.15.4 0 .74-.22.52ZM29 17.65c0-.34.01-.35.41-.35.33 0 .4.03.37.18-.03.11-.12.16-.26.15-.16-.02-.22.03-.22.17 0 .11-.07.2-.15.2-.1 0-.15-.11-.15-.35ZM12.7 15.7l-2.25-.05 3.7-.07c4.76-.1 15.26-.1 20.51 0l4.09.07-2.3.06c-2.73.08-20.53.07-23.75-.01Zm20-1.8c-1.42-.18-2.42-.85-2.91-1.94l-.18-.4-.19.44c-.1.25-.27.67-.38.93-.34.86-.37.87-1.82.87-1.64 0-1.62.02-2.48-2.2l-.29-.75-.05 1.28c-.07 1.84.5 1.66-5.26 1.66l-4.75.01-.24-.24c-.33-.33-.37-.82-.33-4.68l.03-3.36.24-.26c.24-.26.26-.26 1.76-.26 2.13 0 1.99-.2 2.03 2.91l.03 2.39h2.69V7.91C20.6 4.8 20.47 5 22.45 5h1.43l.26.31c.22.26.26.4.26.95v.64h.99c.98 0 1.61.23 1.61.6 0 .05.05.21.11.37l.11.28.13-.39c.25-.72.42-.81 1.64-.84 1.12-.04 1.88.09 1.97.33.04.1.18.07.62-.13 1.32-.62 3.41-.33 4.58.64 1.21.99 1.53 3.29.64 4.61-.81 1.2-2.32 1.76-4.1 1.53Zm1.95-.35c2.08-.54 3.05-2.74 2.05-4.68-.87-1.69-3.31-2.34-5.22-1.39-.32.16-.58.25-.58.2 0-.36-.4-.48-1.64-.48-1.45 0-1.44 0-1.76.95-.26.8-.32.8-.54.07-.3-.96-.3-.96-1.64-1.02l-1.17-.05-.05-.83c-.07-1.11-.08-1.12-1.65-1.12-1.71 0-1.59-.21-1.63 2.91l-.03 2.5-1.57-.03-1.57-.03-.05-2.53c-.06-3.08.1-2.82-1.77-2.82-1.91 0-1.73-.43-1.73 4.15v3.76l.25.24.24.25h2.98c2.57 0 3.02-.02 3.21-.16.21-.15.25-.15.41 0 .14.13.41.16 1.32.16 1.65 0 1.59.07 1.59-1.85 0-2.15.08-2.15 1 .06.76 1.83.72 1.79 2.16 1.79 1.34 0 1.21.1 1.84-1.52.39-.99.7-1.39.7-.9.01 1.67 2.61 2.95 4.85 2.37Zm-2.45-.34c-1.38-.45-2.05-1.38-2.05-2.81.01-3.94 6.06-4.06 6.5-.14.09.81.16.78-2.12.75-2-.03-2.1-.01-1.69.38.33.31.88.32 1.19.03.23-.21 2.23-.19 2.45.03s-.64 1.21-1.34 1.55c-.52.26-2.4.39-2.94.21Zm-17.63-.08c-.04-.03-.07-1.74-.07-3.8V5.59l1.33.03 1.32.03.03 2.62.02 2.63 1.73.02 1.72.03.03 1.13.03 1.12h-3.04c-1.67 0-3.07-.03-3.1-.07Zm6.78-.06c-.03-.07-.04-1.31-.03-2.77l.03-2.65h2.3l.03 2.78.02 2.77h-1.15c-.84 0-1.17-.03-1.2-.13Zm4.65-.09c-1.32-3.25-2.08-5.24-2.01-5.31.04-.04.59-.06 1.21-.05l1.13.03.39 1.15c.21.63.41 1.22.44 1.3.03.09.21-.33.4-.95.54-1.73.35-1.55 1.68-1.55 1.41 0 1.38-.03.82 1.23-.25.56-.76 1.76-1.13 2.67l-.68 1.65-1.08.03c-1.04.03-1.08.02-1.17-.2Zm8.98-.23c.54-.25 1.12-.76 1.12-1s-1.67-.29-1.92-.05c-.54.5-1.88 0-1.88-.69 0-.21.03-.21 2.06-.21h2.07l-.06-.56c-.36-3.52-5.97-3.37-5.97.16.01 2.14 2.36 3.35 4.58 2.35Zm-6.03-2c.5-1.21.99-2.35 1.09-2.53l.17-.32h-1.97l-.44 1.45c-.43 1.43-.55 1.74-.63 1.65-.02-.03-.27-.72-.54-1.55l-.5-1.5-.91-.03c-.51-.01-.92 0-.92.03s.32.85.71 1.83c.39.97.82 2.05.96 2.4.3.75.42.82 1.37.79l.69-.02zm-8.55 1.3v-.85h-3.5V5.9h-2.2v7h5.7zm3-1.65V7.9h-1.8v5h1.8zm8.9-.6c0-.97 1.93-1.06 2.02-.1l.03.25-1.02.03c-.99.03-1.03.02-1.03-.18Zm1.7-.24c0-.33-.93-.38-1.24-.07l-.2.21h.72c.56 0 .72-.03.72-.14ZM21.3 6.45v-.86l1.18.03 1.17.03.03.83.03.82H21.3zm2.1.05v-.6h-1.8v1.2h1.8z"/></svg>