<svg xmlns="http://www.w3.org/2000/svg" width="51" height="51" viewBox="0 0 51 51"><path fill="#fff" fill-rule="evenodd" stroke="#fff" stroke-width=".458" d="M16.6 44.73c-.38-.13-1.14-.84-5.16-4.87-5.08-5.07-4.97-4.94-4.98-6.01-.02-1.19.02-1.24 2.96-4.22 2.39-2.42 2.68-2.75 2.61-2.95-.19-.52-.09-1.04.28-1.49.19-.24 4.67-4.74 9.95-10C32.78 4.71 32 5.4 33.27 5.4c1.13 0 1.12-.01 6.99 5.88 2.98 2.99 5.41 5.51 5.51 5.71.26.52.25 1.92-.02 2.43-.21.39-13.5 13.85-17.57 17.78l-2.37 2.3h-.46c-.26 0-.55-.05-.66-.11-.18-.09-.49.17-2.87 2.54-2.32 2.29-2.73 2.66-3.16 2.8-.61.21-1.46.21-2.06 0Zm2.2-.26c.19-.09 1.52-1.34 2.94-2.76l2.59-2.59-6.05-6.05-6.06-6.05-2.55 2.57c-3.05 3.06-3.29 3.45-2.97 4.83.12.52.22.62 4.74 5.17 5.17 5.2 5.1 5.14 6.31 5.09.39-.02.86-.11 1.05-.21Zm7.1-5.27c.03 0 4.41-4.35 9.73-9.67C46.19 18.98 45.8 19.42 45.8 18.26c0-1.11-.09-1.26-1.84-3.04l-1.61-1.62-10.82 10.84-10.82 10.84 2.07 2c2.13 2.05 2.26 2.14 2.77 2 .16-.04.32-.08.35-.08Zm5.64-15.01 10.68-10.72-2.16-2.16-2.17-2.16-4.51 4.55c-2.47 2.5-7.34 7.4-10.82 10.88l-6.31 6.34L18.39 33c1.67 1.62 2.18 2.07 2.31 2 .09-.05 4.96-4.91 10.84-10.81ZM20.91 30.1c-.77-1.59-.62-1.77.92-1.05.56.26 1.06.51 1.11.56.16.15-.16.41-.43.36-.38-.07-.94.38-.8.64.12.23.03.59-.15.59-.07 0-.36-.49-.65-1.1Zm6.07-10.2C32.87 13.98 37.7 9.1 37.7 9.04c0-.22-2.98-3.04-3.41-3.24-.6-.27-1.59-.26-2.19.01-.35.15-2.62 2.37-10.17 9.92-10.38 10.38-9.98 9.95-9.79 10.7.05.23 3.94 4.3 4.05 4.25.03-.02 4.89-4.87 10.79-10.78Zm-5.28 9.79c0-.05-.13-.15-.3-.24-.34-.18-.36-.15-.14.26.14.29.44.27.44-.02Zm.93-.91c-.59-.61-.69-.88-.35-.88.1-.01.26-.15.37-.33.31-.5.52-.46 1.2.23.58.59.59.62.4.76-.18.13-.23.1-.7-.36l-.51-.51-.12.26c-.14.31-.07.47.37.89.23.23.28.33.2.43-.17.2-.2.18-.86-.49Zm1.62-1.2c-.55-.43-.64-1.15-.18-1.45l.24-.16-.21-.22c-.21-.22-.19-.55.04-.55.22 0 1.69 1.57 1.63 1.74-.04.09-.11.16-.17.16-.05 0-.1.06-.1.13 0 .48-.8.71-1.25.35Zm.89-.5c.17-.28-.43-.85-.73-.69-.27.15-.27.41 0 .7.24.25.57.25.73-.01Zm.47-1.22c-.59-.6-.7-.86-.35-.86.08 0 .14-.04.14-.08 0-.2.27-.43.43-.36.2.07.22.27.05.54-.11.17-.07.25.31.64.38.38.42.47.31.61-.18.22-.19.21-.89-.49Zm1.23-.6c-.96-.42-.75-1.86.26-1.86.96 0 1.31 1.29.48 1.8-.39.23-.34.23-.74.06Zm.57-.46c.39-.21.11-.9-.37-.9-.45 0-.5.64-.07.89.23.13.21.13.44.01Zm.4-1.64c-.77-.77-.92-1.06-.57-1.06.25 0 1.76 1.63 1.64 1.77-.16.2-.18.19-1.07-.71Zm1.24-.05c-.76-.32-.94-1.34-.3-1.63l.25-.11-.26-.28c-.23-.24-.25-.31-.14-.44.12-.14.23-.07.97.67.86.85.97 1.06.63 1.15-.11.03-.2.13-.2.23 0 .33-.56.57-.95.41Zm.65-.56c.31-.37-.43-.96-.77-.62-.12.12-.13.19-.02.38.21.42.56.52.79.24Zm.97-2.19c-.43-.46-.77-.88-.77-.93 0-.16 1.05-1.13 1.23-1.13.35 0 .3.3-.12.71-.43.44-.48.54-.3.65.06.03.27-.1.48-.3.68-.67 1.07-.38.4.3l-.43.44.2.21.21.2.47-.46c.47-.45.76-.53.76-.2 0 .14-1.08 1.24-1.3 1.33-.04.01-.41-.35-.83-.82Zm-7.5-.96c-.5-.4-.54-1.33-.07-1.75.14-.13.17-.22.09-.31-.15-.18.05-.26.37-.14.36.14.5-.01.24-.25-.24-.21-.29-.95-.07-.95.09 0 .14.12.14.3 0 .21.1.41.33.65.4.41.5.43.5.12.01-.81 1.23-1.16 1.85-.54 1.02 1.02.08 2.44-1.26 1.92-.13-.05-.18.02-.23.29-.15.77-1.26 1.15-1.89.66Zm9.35-.43c-.65-.66-.75-.87-.41-.87.12 0 .23-.08.26-.2.11-.41.46-.25.39.18-.05.35-.02.42.34.77.32.31.37.42.29.57-.14.26-.18.24-.87-.45Zm-7.93.07c.3-.39.28-.94-.05-1.28-.39-.39-.48-.33-.4.25.05.4.04.5-.06.47-.07-.03-.14-.23-.16-.46s-.06-.42-.1-.42c-.46.01-.82.43-.82.95 0 .7 1.15 1.05 1.59.49Zm9.08-.62c-.1-.1-.17-.28-.17-.4 0-.14-.07-.22-.23-.24-.6-.08-.13-1.21.5-1.21.4 0 1.5 1.02 1.31 1.21-.07.07-.18.12-.25.12s-.13.06-.13.13c0 .45-.73.72-1.03.39Zm-7.22-.37c.54-.53.12-1.55-.64-1.55-.72 0-1.06.54-.77 1.24.24.59.98.75 1.41.31Zm7.84-.09c.11-.13.05-.46-.08-.46-.11 0-.31.47-.24.54.1.09.2.07.32-.08Zm.83-.83c-.25-.1-.14-.43.16-.43s.52-.16.52-.38c0-.11-.08-.09-.36.07-.89.53-1.49-.08-.83-.84.26-.29.38-.35.63-.33.35.03.52.38.18.38-.25 0-.7.35-.59.46.04.05.18.02.3-.05.12-.08.29-.19.38-.24.46-.28.95.26.71.78-.17.37-.8.7-1.1.58Zm1.03-1.66c-.82-.82 0-2.07.93-1.41.3.21.28.32-.15.76-.2.21-.34.4-.31.44.13.13.46-.08.58-.36.16-.39.4-.39.4-.01 0 .79-.89 1.14-1.45.58Zm1.32-1.52c-.56-.61-.64-.85-.31-.85.08 0 .19-.11.24-.25.11-.28.22-.31.39-.11.09.11.09.2.02.35-.16.29-.15.33.25.79.3.35.34.45.24.57-.18.21-.19.2-.83-.5Z"/></svg>