<svg xmlns="http://www.w3.org/2000/svg" width="51" height="51" viewBox="0 0 51 51"><path fill="#fff" fill-rule="evenodd" stroke="#fff" stroke-width=".634" d="m16.6 47.4-4.15-.06-.89-.27c-2.7-.84-3.5-1.56-2.92-2.65.18-.32 5.32-5.45 5.63-5.61.7-.36.72-.34 4.41 3.33 3.76 3.74 3.75 3.72 3.38 4.61-.31.73-.23.72-5.46.65Zm13.13-.09c-.54-.25-.79-.71-.69-1.27.12-.65 6.86-7.34 7.39-7.34.6 0 .78.15 3.48 2.87 3.22 3.23 3.36 3.5 2.37 4.39-.48.45-2.74 1.28-3.76 1.38-1.72.18-8.38.15-8.79-.03Zm-8.16-.26c.31-.22.47-.77.34-1.18-.2-.59-5.39-5.67-5.79-5.67-.55 0-.78.19-3.48 2.92-2.86 2.89-2.94 3-2.31 3.27.44.19 2.04.67 2.47.74.8.14 8.57.06 8.77-.08Zm8.89-.17c.3-.62 6.57-6.75 7.04-6.89l.41-.12-.37-.38c-.45-.46-.84-.64-1.21-.54-.39.09-6.89 6.58-7.03 7.01-.28.82.78 1.66 1.16.92Zm9.18-.01c1.94-.6 2.62-.98 2.85-1.6.2-.51-.08-.9-2.22-3.04-2.64-2.65-2.32-2.61-4.41-.55-2.72 2.68-4.96 4.94-5.17 5.24l-.21.29 4.13-.03 4.14-.04zm-29.8-1.11c.1-.18 1.4-1.56 2.9-3.05C15.37 40.1 15.48 40 15.85 40h.39l-.44-.45c-1.02-1.04-1.04-1.03-4.18 2.09-3.32 3.29-3.46 3.54-2.35 4.28.36.23.35.24.57-.16Zm15.31-.71c-.4-.14-7.15-6.75-7.86-7.69-.73-.98-.71-1.01 3.78-5.47 4.49-4.47 4.34-4.35 5.11-3.95.33.18 7.85 7.72 8.01 8.03.2.39.13.87-.18 1.29-.37.51-7.5 7.59-7.76 7.71-.39.19-.7.21-1.1.08Zm1.32-.54c1.29-1.04 7.51-7.46 7.58-7.82.11-.57-.02-.73-3.47-4.17-3.51-3.5-3.45-3.45-4.16-3.08-.29.16-7.59 7.45-7.86 7.86-.42.64-.43.64 2.99 4.07 3.98 4 3.91 3.95 4.92 3.14ZM5.78 42.57c-.78-.47-1.43-1.79-1.83-3.72-.21-1.04-.23-8.38-.02-8.87.34-.78 1.16-1.06 1.85-.62.42.26 4.74 4.46 5.83 5.66 1.47 1.61 1.53 1.46-1.95 4.96-3.01 3.04-3.08 3.08-3.88 2.59Zm38.72.12c-.3-.12-5.45-5.23-5.66-5.61-.4-.77-.36-.83 3.43-4.6 3.81-3.8 3.95-3.89 4.73-3.1.45.45.47.55.55 3.42.2 6.54-1.07 10.66-3.05 9.89Zm1.06-.34c.48-.31 1.26-2.26 1.55-3.85.16-.83.2-7.82.06-7.96-.04-.05-1.63 1.47-3.52 3.37l-3.45 3.45v.44c0 .44.01.44 2.03 2.48 2.37 2.4 2.6 2.54 3.33 2.07ZM9.52 39.83c2.82-2.84 2.92-2.97 2.73-3.7-.08-.35-5.18-5.41-5.53-5.5-.39-.1-1.03.17-1.23.52-.16.27-.18.71-.2 4.25-.03 4.25-.02 4.31.53 6.08l.31 1.02h.36c.34 0 .53-.17 3.03-2.67Zm-4.01 1.41c-.46-1.57-.53-2.51-.49-6.34.03-3.09.05-3.48.21-3.78.22-.4.71-.72 1.11-.72h.3l-.35-.36c-.87-.91-1.9-.84-2.19.14-.24.78-.08 8.23.19 9.22.36 1.32 1.26 3.08 1.47 2.87.02-.02-.09-.48-.25-1.03Zm38.13-7.62c3.96-3.96 3.88-3.85 3-4.27-.61-.29-.69-.22-4.21 3.28-3.98 3.96-3.92 3.86-2.94 4.9l.46.5.06-.43c.05-.39.26-.62 3.63-3.98Zm-25.39 3.83c.07-.33 7.55-7.93 8.07-8.21.15-.08.39-.14.55-.14h.27l-.43-.44c-1.07-1.09-.91-1.2-5.39 3.27-4.66 4.64-4.63 4.59-3.65 5.53.26.25.48.41.49.37zm-4.04-3.31c-.4-.17-7.58-7.3-7.9-7.84-.53-.89-.53-.89 4.02-5.46L14.15 17h.5c.31 0 .6.07.75.17.51.34 7.63 7.5 7.87 7.91.49.83.58.7-3.75 5.04-4.36 4.38-4.41 4.42-5.31 4.02Zm21.69 0c-.37-.15-7.58-7.34-7.92-7.89-.49-.81-.5-.8 3.99-5.27 3.91-3.9 4.2-4.14 4.77-4.02.42.08 8.21 7.82 8.37 8.31.23.7.13.81-3.94 4.9-4.31 4.33-4.35 4.36-5.27 3.97Zm1.04-.19c.28-.14 6.39-6.19 7.54-7.47.85-.95.95-.79-2.9-4.65l-3.33-3.33h-.99l-3.69 3.68c-4.04 4.01-4.27 4.27-4.27 4.8 0 .32.17.52 2 2.37 1.1 1.11 2.14 2.18 2.32 2.37.81.87 2.39 2.27 2.6 2.31.13.02.27.05.31.06.05 0 .23-.06.41-.14Zm-21.54-.11c.41-.27 7.5-7.37 7.66-7.66.4-.77.33-.87-3.42-4.6-3.08-3.05-3.34-3.26-3.88-3.08-.32.1-7.93 7.64-8.15 8.07-.32.63-.54.38 4.9 5.71 1.92 1.88 2.19 2.02 2.89 1.56Zm13.88-7.59c.34-.61 7.8-7.86 8.21-7.99l.42-.12-.5-.47c-.43-.41-.56-.47-.93-.47h-.42l-3.87 3.86c-4.72 4.71-4.59 4.51-3.61 5.56l.47.5.06-.33c.03-.19.1-.43.17-.54Zm-21.94.43c.09-.48 7.96-8.35 8.44-8.44.4-.08.4-.13 0-.51-1.11-1.04-.91-1.16-5.36 3.34-4.61 4.67-4.49 4.48-3.65 5.48.44.54.49.55.57.13Zm17.79-3.33c-.42-.18-7.94-7.76-8.11-8.17-.31-.72-.28-.75 3.51-4.57 4.71-4.72 4.82-4.81 5.6-4.39.3.16 5.97 5.69 7.18 7 1.6 1.75 1.83 1.32-3.48 6.6-3.83 3.82-3.91 3.88-4.7 3.53Zm3.92-3.08c5.07-5.1 5.05-5.09 5.05-5.51 0-.44-.33-.79-4.35-4.78l-2.4-2.38h-.89l-3.84 3.82c-2.11 2.11-3.9 3.96-3.99 4.12-.39.74-.36.78 3.24 4.38l3.29 3.28h.99zm16.81 1.88c-.46-.16-6.87-6.48-7.07-6.97-.28-.69-.19-.82 2.85-3.85l2.82-2.83h.46c1.05 0 1.85 1.39 2.34 4.05.28 1.48.28 8.53.01 9.02-.31.58-.82.79-1.41.58ZM4.42 21.9c-.55-.34-.59-.56-.66-3.8-.1-4.52.11-6.2 1.02-8.14.5-1.06.94-1.46 1.6-1.46h.47l2.81 2.82c2.98 3 3.02 3.04 2.82 3.77-.1.35-5 5.43-6.31 6.53-.61.51-1.23.61-1.75.28Zm42.35-.05c.44-.31.48-.67.48-4.5 0-4.75-.41-7.24-1.19-7.33-.3-.04-4.76 4.23-5.57 5.32-.6.8-.62.77 2.29 3.69 3.09 3.12 3.33 3.28 3.99 2.82ZM5 18.4c0-3.83.08-4.57.65-6.26.55-1.6 1.01-2.23 1.74-2.39l.34-.07-.47-.47c-1.14-1.14-2.16-.22-2.93 2.65-.35 1.31-.49 8.72-.17 9.39.14.31.53.63.77.65.04 0 .07-1.57.07-3.5Zm2.44 1.65c3.34-3.2 4.86-4.88 4.86-5.36 0-.62-4-4.69-4.62-4.69-.94 0-1.49.85-2.13 3.31-.29 1.11-.48 5.96-.3 7.83.09.97.02 1 2.19-1.09Zm11.03-4.7c.32-.55 7.89-7.93 8.21-8l.34-.07-.34-.35c-1.07-1.12-.93-1.2-5.55 3.4l-3.93 3.92v.48c0 .44.04.53.53 1.04l.52.55.06-.38c.03-.22.1-.48.16-.59Zm21.69.02c.2-.36 5.49-5.58 5.71-5.63.44-.11-.31-1.04-.84-1.04-.45 0-.78.28-3.39 2.92-3.1 3.13-3.11 3.14-2.11 4.16l.42.43.06-.33c.03-.18.1-.41.15-.51Zm-4.06-2.93c-.39-.16-6.52-6.21-6.76-6.66-.33-.63-.06-1.57.56-1.9.48-.26 7.3-.22 8.73.06 2.93.56 4.44 1.58 4.06 2.74-.14.45-5.15 5.56-5.66 5.78-.4.17-.49.17-.93-.02Zm-21.95-.05c-.31-.17-5.35-5.21-5.51-5.51-.68-1.29 1.15-2.53 4.47-3.02 1.76-.26 7.86-.23 8.39.04.62.32.89 1.13.59 1.73-.16.31-6.38 6.55-6.71 6.73-.32.17-.95.18-1.23.03Zm1.31-.38c.53-.39 6.29-6.2 6.44-6.49l.11-.23-4.13.03-4.13.04-.9.27c-1.14.35-2.48 1-2.74 1.34-.5.62-.4.77 1.77 2.96 2.56 2.59 2.75 2.7 3.58 2.08Zm23.82-1.93c3.7-3.68 3.76-3.78 2.43-4.22-1.62-.53-2.33-.6-6.41-.6-4.55-.01-4.6 0-4.6 1.2v.48l2.48 2.49c3.66 3.69 3.09 3.63 6.1.65ZM10 6.75c.49-.52 2.3-1.27 3.8-1.57.48-.1 1.64-.12 4.43-.1 4.15.02 3.95.05 3.62-.58-.3-.59-.61-.63-4.67-.57-3.89.05-4.45.11-6.1.63-2.42.76-2.94 1.57-1.79 2.77l.36.38.06-.36c.03-.19.16-.46.29-.6Zm20.8-1.3c.42-.44.78-.48 4.9-.42 4.02.05 4.71.12 6.1.6.53.19.65.13.3-.15-.69-.56-2.14-1.09-3.7-1.35-1.02-.17-7.11-.31-7.94-.19-1.12.17-1.39 1.3-.53 2.23l.41.44.11-.46c.07-.25.23-.57.35-.7Z"/></svg>