<svg xmlns="http://www.w3.org/2000/svg" width="51" height="51" viewBox="0 0 51 51"><path fill="#fff" fill-rule="evenodd" stroke="#fff" stroke-width=".478" d="M8.24 51.05C4.1 50.14.3 45.96.03 42.01c-.04-.62-.03-.82.05-.77.07.04.12.22.12.4 0 .5.47 2.2.84 3.07 1.22 2.8 4.09 5.26 7.01 5.99 1.29.32 34.67.26 35.6-.06 3.93-1.38 6.87-4.85 7.32-8.64.08-.69.23-.73.23-.07 0 3.41-3.38 7.53-7.3 8.89l-.95.33-17.05.02c-13.91.01-17.16-.01-17.66-.12ZM30.5 40.21c-1.56-.48-2.58-2.04-2.3-3.53.12-.61.24-.86 1.05-2.18 2.57-4.16 3.2-10.15 1.59-14.97-.46-1.39-.97-2.47-1.76-3.74-.81-1.31-.93-1.6-.92-2.34 0-1.66 1.16-2.92 2.85-3.11 1.38-.16 2.32.41 3.43 2.09 4.8 7.21 4.79 18.3-.02 25.67-1.22 1.87-2.47 2.55-3.92 2.11Zm-14.23-.11c-1.26-.22-2.34-1.4-2.52-2.76-.11-.8.13-1.47 1.58-4.44.74-1.51 1.59-3.27 1.9-3.9.95-1.97 1.59-2.45 3.22-2.45 2.33.01 3.72 1.92 3 4.11-.34.99-3.91 8.09-4.29 8.52-.68.75-1.8 1.11-2.89.92Zm16.18-.34c.62-.29 1.07-.77 1.78-1.86 4.44-6.87 4.71-17.06.65-24.25-1.36-2.41-2.26-3.14-3.77-3.03-1.46.11-2.5 1.07-2.67 2.48-.09.77.06 1.21.82 2.46 3.7 6.06 3.7 13.57.01 19.46-.39.62-.71 1.25-.77 1.54-.51 2.23 1.89 4.18 3.95 3.2Zm-14.29-.16c.77-.38 1.07-.85 2.85-4.42.92-1.87 1.82-3.75 2-4.17.99-2.35-.31-4.31-2.77-4.19-1.4.07-1.95.54-2.85 2.46-.27.57-1.12 2.33-1.89 3.9-1.19 2.43-1.41 2.96-1.46 3.48-.23 2.25 2.1 3.91 4.12 2.94Zm.94-18.39c-3.41-1.09-3.61-6-.3-7.34.87-.35 2.43-.32 3.27.07 2.57 1.18 2.99 4.8.78 6.62-.96.78-2.51 1.05-3.75.65Zm2.98-.5c1.3-.7 1.87-1.7 1.87-3.26 0-2.83-2.76-4.48-5.32-3.18-2.51 1.27-2.56 5.14-.08 6.4 1.12.57 2.5.59 3.53.04ZM.03 9.08C.27 5.54 3.29 1.84 7.08.42l.97-.37L25.39.02C42.67 0 42.74 0 43.49.2c2.05.56 4.35 2.18 5.71 4.01 1.08 1.46 2 3.63 2 4.75 0 .61-.17.55-.25-.08-.49-3.61-3.56-7.1-7.4-8.39l-.7-.24L25.93.22C7.4.19 8.47.16 6.85.79 3.41 2.11.62 5.72.23 9.33c-.09.91-.27.7-.2-.25Z"/></svg>