<svg xmlns="http://www.w3.org/2000/svg" width="51" height="51" viewBox="0 0 51 51"><path fill="#fff" fill-rule="evenodd" stroke="#fff" stroke-width=".544" d="M18.2 50.91c0-.43 1.7-1.91 2.82-2.44.84-.41.98-.44.98-.23 0 .19-.15.3-1.1.77-.89.43-1.43.82-2.22 1.58-.27.25-.48.39-.48.32Zm14.4-.18c-.4-.53-1.35-1.24-2.32-1.74-.89-.45-1.32-.89-.88-.89.66 0 3.6 2.26 3.6 2.77 0 .21-.17.15-.4-.14ZM13.25 48.7c-1.19-.22-1.4-.33-1.37-.7.04-.48.38-1.21.54-1.15.09.04.19-.2.34-.82.64-2.63 2.47-5.2 5.54-7.75 1.55-1.28 2.21-2.1 2.41-2.95.1-.48-.03-.74-.19-.39-.12.27-.68.61-.76.47-.03-.05.05-.16.18-.25.64-.42.46-1.36-.24-1.23-.29.06-3.76 1.85-4.22 2.19l-.31.21.33.27c.42.34.25.48-.28.21l-.38-.19-.87.53c-1.2.75-1.65 1.15-2.43 2.17-.6.79-.84 1.02-.84.81 0-.25 1.16-1.91 1.8-2.58.42-.44 1-1.14 1.28-1.56s.77-.98 1.09-1.25c1.38-1.14 1.73-1.61 1.73-2.29 0-.61-.46-1.25-.9-1.25-.17 0-3.41 1.97-4.23 2.57-.47.34-.47.36-.26.47.26.13.65.63.56.72-.03.04-.2-.05-.37-.2-.57-.48-.77-.39-1.57.72-1.29 1.81-3.07 3.98-3.11 3.8-.04-.22.51-1.04 2.15-3.2 1.71-2.25 2.04-2.54 4.52-4.03.61-.36.63-.39.4-.48-.53-.2-1.14-.02-2.89.84l-1.72.83.27.22c.37.29.17.38-.3.14l-.38-.19-.39.27c-.23.16-.71.74-1.18 1.44-.9 1.32-1.99 2.6-2.13 2.51-.52-.32.55-2.37 1.69-3.22.47-.36.92-.78 1.01-.94.26-.51.19-1.63-.08-1.16-.12.23-.58.51-.7.43-.06-.03.06-.2.27-.38.38-.33.43-.66.09-.66-.25 0-2.24 1.1-2.64 1.46-.02.02.07.12.2.23.28.23.05.3-.33.1-.29-.16-.52.1-1.55 1.7-1.06 1.65-1.17 1.97-1.38 3.81-.26 2.26-.54 3.33-1.39 5.2l-.25.55v-.46c-.01-.29.11-.75.33-1.3.48-1.17.63-1.81.86-3.65.33-2.65.28-2.51 1.52-4.42.44-.68.77-1.26.74-1.3-.04-.03-.63-.08-1.32-.12C.17 33.41.12 33.3.9 30.65c.73-2.52 2.6-9.16 2.6-9.26 0-.14-3.24-.11-3.38.03-.09.09-.12.08-.12-.05 0-.3.36-.37 2.03-.37h1.65l.17-.65c.1-.35.26-.78.36-.95l.19-.3h1.41c1.7 0 1.68-.01 2.12 1.03l.36.84-.27.88c-.15.49-.33.9-.4.93-.17.05-.15-.18.1-1.03.21-.72.21-.74.03-1.14-.1-.23-.2-.4-.22-.38-.08.09-1.36 4.81-1.75 6.47l-.44 1.84-.42.32c-.81.62-2.13.66-2.82.08-.32-.28-.4-.3-.4-.1 0 .08-.22.86-.49 1.73-.67 2.21-.66 2.09-.38 2.37.21.21.35.24 1.58.3l1.34.07 1.29-.85c.71-.47 1.32-.86 1.37-.86.04 0 .11-.15.14-.32.11-.71.68-3.75 1.1-5.98.25-1.29.53-2.78.63-3.3l.18-.95 1.8-.03 1.81-.02.18-.81c.26-1.13.19-1.09 2.03-1.09 1.64 0 1.72.02 1.9.36.52.99.63 2.05.27 2.73-.15.3-.42.45-.32.19.22-.59.29-1.3.17-1.68-.14-.44-.3-.53-.3-.17 0 .12-.15 1.08-.34 2.12-.19 1.05-.42 2.55-.5 3.35-.09.8-.19 1.69-.22 1.98-.15 1.36-2.42 1.89-3.52.81-.22-.22-.33-.27-.37-.18-.04.14-.65 3.4-.65 3.52 0 .03.46-.16 1.03-.43 1.4-.68 1.87-.78 2.53-.52l.51.19.39-.23c.21-.13.51-.26.66-.29.15-.04.28-.1.28-.13.01-1.04 1.01-9.4 1.16-9.63.03-.05 1.11-.09 2.4-.09h2.34v.23c0 .58-.51 9.58-.61 10.77-.11 1.27-.09 1.96.06 2.82.04.22.01.57-.09.9-.12.41-.18 1.43-.25 4.33-.06 2.09-.13 4.22-.17 4.74-.06.94-.02 1.1.32 1.11.08 0 .13-1.34.17-4.72.09-7.1.35-13.85.75-19.23l.07-.9 2.48-.03L26.9 21l.01 2.52c0 1.39.04 3.91.08 5.6.08 3.62-.04 3.31 1.47 3.84.54.19 1.05.4 1.12.47.28.28.52 4.76.52 9.65v2.91l.23-.08c.2-.08.22-.14.2-.82-.11-4.83-.26-9.04-.33-9.47-.2-1.15.36-2.12 1.23-2.12.49 0 .56-.62.4-3.63l-.06-1.28-.21.2c-1.22 1.15-3.63.49-3.72-1.01-.22-3.52-.36-4.96-.54-5.33-.39-.84-.32-2.73.12-3.17.19-.19 3.37-.28 3.66-.1.07.05.18.47.25.95l.11.87h1.73c1.32 0 1.73.03 1.73.12 0 .07.05.43.1.79s.25 2.41.45 4.55c.43 4.77.35 4.36.94 4.63.46.22.5.22.95.07.7-.24 1.14-.13 2.99.73.49.23.9.41.91.41.03 0-.54-3.33-.6-3.49-.04-.11-.07-.11-.22.01-.85.75-2.53.67-3.32-.17-.2-.21-.25-.47-.45-2.17-.13-1.06-.39-2.87-.59-4.02s-.36-2.14-.36-2.2c0-.18-.17.07-.28.43-.1.27-.08.48.1 1.16.13.46.2.87.16.9-.28.28-.77-1.56-.59-2.18.45-1.49.41-1.47 2.42-1.47 1.64 0 1.6-.02 1.78.75.07.27.17.68.22.89l.11.39 1.56-.06c.86-.03 1.62-.03 1.68.01s.23.7.37 1.47.46 2.5.71 3.85c.24 1.35.55 3.06.67 3.81l.23 1.37.56.33c.3.17.91.57 1.35.86l.79.55 1.34-.07c2.01-.11 2.01-.1 1.17-2.9-.55-1.87-.49-1.74-.79-1.46-.96.91-3.19.41-3.41-.77-.13-.76-.67-2.84-1.37-5.36l-.72-2.58-.18.42c-.18.42-.18.44.07 1.25.37 1.22.27 1.7-.13.63-.46-1.26-.47-1.45-.12-2.33.42-1.07.37-1.05 2.1-1.05 1.48 0 1.8.08 1.8.45 0 .04.09.39.2.76l.21.69h1.55c1.58 0 1.94.07 1.94.37 0 .13-.03.14-.12.05-.22-.22-3.31-.17-3.24.06.03.09.3 1.07.6 2.17s.98 3.5 1.5 5.33c1.29 4.5 1.29 4.52-.91 4.52-1.36 0-1.35-.02-.57 1.2 1.32 2.07 1.37 2.23 1.69 4.8.21 1.72.32 2.21.72 3.27.25.68.33 1.05.31 1.4l-.03.48-.48-1.28c-.58-1.56-.7-2.07-.97-4.12-.28-2.15-.36-2.39-1.35-3.95-1.05-1.64-1.34-1.97-1.63-1.81-.38.2-.61.14-.33-.1.13-.11.22-.21.2-.23-.19-.2-2.2-1.37-2.42-1.42-.53-.11-.63.14-.22.56.24.24.33.4.26.45-.06.03-.27-.09-.46-.28l-.35-.35-.06.35c-.04.19-.01.52.05.74.12.38.19.46 1.51 1.51.74.59 1.3 1.64 1.3 2.44 0 .3-.03.54-.08.54-.12-.01-1.27-1.48-1.88-2.4-1.07-1.61-1.56-2-2.15-1.69-.46.23-.49.23-.49.05 0-.08.09-.18.2-.21.36-.12.21-.24-1.02-.86-1.53-.77-2.38-1.09-2.86-1.09-.74 0-.69.15.24.71 1.61.96 2.8 1.77 3.16 2.16.63.66 2.96 3.76 3.29 4.36.34.64.3.89-.07.42-.32-.41-2.68-3.49-3.22-4.19-.49-.65-.74-.68-1.39-.2-.21.16-.34.2-.38.13-.09-.14.42-.67.68-.71.15-.02-.09-.23-.89-.74-1.45-.95-3.56-2.24-3.65-2.24-.49 0-.99.62-.99 1.23 0 .62.26 1.02 1.32 2 .55.51 1.2 1.21 1.46 1.57.25.36.82 1.03 1.26 1.5.69.72 1.76 2.33 1.76 2.63 0 .22-.25-.02-.74-.71-.68-.98-1.31-1.56-2.43-2.28-.48-.31-1.01-.68-1.16-.8-.35-.3-.39-.3-.75.01-.49.41-.59.27-.17-.23l.24-.29-1.37-.67c-.75-.36-1.61-.8-1.9-.97-1.02-.6-1.76.05-.96.85.28.28.25.48-.04.3-.09-.06-.27-.26-.4-.44l-.22-.33v.47c0 .87.74 1.89 2.23 3.09 1.71 1.37 4.17 4.14 4.85 5.45.47.9.96 2.48 1.11 3.58.14.95.24 1.12.14.24-.08-.81.07-.74.37.16.26.76.25.78-.55.97-1.98.5-2.78.34-3.98-.8-1.81-1.72-3.81-2.11-4.92-.97l-.43.44h-7.61l-.22-.29c-.95-1.28-3.26-.94-4.99.75-1.05 1.01-1.95 1.29-3.35 1.04Zm1.81-.45c.3-.1.67-.32.97-.6l.49-.45h-3.59l-.07.42c-.08.47-.04.53.44.66.53.15 1.21.14 1.76-.03Zm22.84.04.51-.11-.03-.46-.03-.47-1.8-.03-1.8-.02.46.46c.67.67 1.55.88 2.69.63ZM17.74 46.3c.61-.31 1.02-.44 1.68-.52l.86-.12.06-.96c.06-.87.26-6.84.26-7.74v-.39l-.34.44c-.3.4-1.14 1.15-2.33 2.09-.55.43-3.07 3.26-3.55 3.98-.58.86-1.49 3.47-1.3 3.68.04.03.92.04 1.96 0l1.88-.06zm11.71.16c.41-.52.46-4.86.1-10.46-.15-2.45-.08-2.29-1.18-2.55-1.79-.41-1.65.1-1.74-6.69l-.06-5.46h-4.23l-.12 1.93c-.06 1.05-.21 3.36-.31 5.12-.29 4.67-.51 10.88-.51 14.5v3.17l.26.32c.33.38.7.41 4.87.41h2.69zm8.8.02c-.34-1.58-.92-2.94-1.66-3.89-.84-1.06-2.82-3.18-3.48-3.7-.96-.77-1.64-1.4-2.11-1.94l-.42-.48.06 1.09c.03.6.08 2.1.11 3.34s.08 2.82.11 3.53l.07 1.27h.36c.69.01 1.71.29 2.47.69l.77.41h3.79zM17.39 34.6c2.19-1.14 2.54-1.26 2.99-.94.2.14.22.14.22-.03 0-.1.07-.94.14-1.88.08-.94.19-2.53.26-3.55.06-1.02.17-2.94.25-4.28s.15-2.48.15-2.53c0-.19-4.18-.11-4.24.09-.08.28-.54 4.09-.81 6.8l-.26 2.53.31.26c1.1.92.85 1.95-.93 3.68-.68.66-1.33 1.37-1.45 1.58l-.21.37.73-.49c.41-.28 1.69-1 2.85-1.61Zm19.69 1.54c-.18-.26-.76-.87-1.29-1.36-1.8-1.66-2.04-3.16-.61-3.83.28-.13.4-.24.37-.35-.02-.08-.13-1.16-.24-2.4-.12-1.24-.3-3.3-.42-4.58l-.22-2.32h-3.19l.06.38c.03.2.15 1.41.25 2.67.58 6.71.66 8.41.39 8.9l-.16.3.41.28c.23.15 1.05.58 1.82.96.77.37 1.77.93 2.23 1.24 1 .69 1.02.69.6.11Zm-27.13-3.7c.06-.02.18-.57.28-1.22.1-.64.31-1.84.47-2.67.29-1.51 1.3-7.11 1.3-7.2 0-.03-.74-.05-1.65-.05H8.71l-.07.38c-.03.2-.35 1.86-.7 3.67-.34 1.81-.72 3.82-.84 4.45s-.24 1.24-.26 1.36c-.05.18-.01.2.3.16.68-.08 1.35.77 1.23 1.54l-.06.33.77-.36c.42-.19.82-.37.87-.39Zm32.98.42c-.12-.77.55-1.62 1.22-1.54.19.02.35.02.35-.02 0-.07-.92-5.2-1.34-7.48-.2-1.06-.36-2.02-.36-2.12 0-.34-.3-.39-1.79-.33-1.23.05-1.41.08-1.37.22.15.5 1.45 7.62 1.76 9.61.11.74.22 1.35.23 1.36.05.05 1.23.62 1.29.63.04.01.04-.14.01-.33Zm-15.16-.33c-.16-.15-.08-3.33.08-3.33.13 0 .15.26.15 1.7 0 1.55-.04 1.83-.23 1.63ZM4.49 28.68c.45-.23.46-.24.64-.98.57-2.47.93-3.89 1.47-5.8.33-1.18.6-2.18.6-2.22 0-.05-.6-.08-1.34-.08H4.52l-.25.83c-.79 2.52-2.07 7.42-2.07 7.92 0 .61 1.33.81 2.29.33Zm9.18.17c.8-.24.82-.29 1.04-2.39.1-1.03.37-2.92.59-4.22s.4-2.43.4-2.5c0-.11-.28-.14-1.44-.14h-1.44l-.16.68c-.58 2.59-1.27 7.92-1.05 8.18.4.48 1.23.64 2.06.39Zm17.32-.15c.23-.11.44-.27.47-.34.08-.22-.24-6.04-.41-7.26-.24-1.78-.11-1.6-1.13-1.56-.48.02-1.18.04-1.56.05l-.69.01.06 1.43c.04.78.13 2.09.21 2.92s.18 2.11.21 2.85c.08 1.51.12 1.63.58 1.86.76.4 1.54.41 2.26.04Zm8.9 0c.23-.11.41-.25.41-.3 0-.35-.86-5.76-1.13-7.11l-.33-1.64-1.42-.03-1.42-.03.05.28c.38 2.03.78 4.71.97 6.38l.23 2.08.3.22c.63.49 1.58.54 2.34.15Zm8.91.04c.22-.14.3-.26.3-.46 0-.33-.86-3.75-1.66-6.63l-.57-2.05H44.1l.06.28c.04.15.42 1.57.86 3.17.43 1.59.9 3.45 1.05 4.13.29 1.32.36 1.43 1.08 1.7.4.15 1.27.08 1.65-.14Zm-6.39-12.33c-.12-.12-.21-.31-.21-.44 0-.12-.18-1.21-.4-2.41-.46-2.46-.45-2.62.15-3.15.93-.81 2.37-.24 2.22.89-.07.54-.35.9-.87 1.14l-.46.21.18 1.2c.3 2.02.32 2.39.17 2.52-.3.23-.57.25-.78.04Zm-19.31-.06c-.15-.18.03-4.66.21-5.22.26-.81 1.35-1.32 2.13-.99 1.11.46.51 2.1-.85 2.32l-.36.06-.07 1.21c-.03.66-.06 1.48-.06 1.82 0 .83-.58 1.3-1 .8Zm19.85-.14c.03-.05-.08-.92-.25-1.92-.36-2.19-.36-1.99-.05-1.99.35 0 .79-.24 1.04-.56.67-.86-.47-1.84-1.36-1.18-.57.42-.57.51-.18 2.91.19 1.2.38 2.33.41 2.51.05.3.26.43.39.23ZM23.81 14.3c.04-1.02.07-1.91.08-1.97 0-.07.14-.13.3-.13.72 0 1.51-.61 1.51-1.16 0-1.13-1.79-.83-2.09.35-.05.2-.12 1.01-.15 1.81-.04.8-.09 1.8-.13 2.23-.06.79-.06.79.18.75l.24-.03zM5.29 15.87c-.41-.27-.52-.91-.24-1.33.35-.54 1.18-.81 1.46-.48.15.19.27 0 .28-.48.01-.23-.04-.27-.39-.33-.82-.14-1.59-.89-1.8-1.75-.31-1.27.5-2.78 2.13-3.95.59-.42.67-.57.67-1.2.01-1.86 1.45-3.42 2.43-2.64.84.65.48 2-.84 3.24-.53.49-.54.51-.57 1.15l-.04.65.44.12c1.78.48 1.72 2.99-.1 3.92-.37.19-.41.25-.47.68-.28 2.04-1.74 3.22-2.96 2.4Zm1.43-.33c.83-.42 1.56-2.48.81-2.29-.33.08-.43.21-.43.55-.01.55-.74 1.6-1.11 1.6-.19 0-.08-.26.21-.52.32-.28.41-.68.14-.68s-.85.32-1 .56c-.51.77.39 1.28 1.38.78Zm6.62-1.28c-1.16-.52-.51-2.03 1.01-2.37l.52-.12.27-1.6c.39-2.35.65-2.44 2.29-.84.94.93.89 1.24-.19 1.07-1.08-.18-.99-.26-1.18 1.08-.1.64-.22 1.33-.28 1.52-.29.96-1.6 1.64-2.44 1.26Zm-4.82-.14c.03-.15.22-.17 2.12-.2 2.08-.02 2.25 0 2.26.31 0 .04-.99.07-2.21.07-2.05 0-2.2-.01-2.17-.18Zm6.8 0c.06-.29 7.58-.31 7.58-.02 0 .2-.06.2-3.81.2-3.57 0-3.8-.01-3.77-.18Zm9 0c.06-.29 17.38-.31 17.38-.02 0 .2-.06.2-8.71.2-8.24 0-8.7-.01-8.67-.18Zm18.88-.02c0-.26 3.88-.32 4.09-.07.2.24 0 .27-2.06.27-1.96 0-2.03-.01-2.03-.2Zm-28.56-.24c.65-.27.83-.66 1.07-2.29.28-1.84.18-1.71 1.18-1.57 1.06.16 1.06.16.09-.68-1.24-1.07-1.22-1.08-1.58 1.21-.12.82-.28 1.5-.34 1.52s-.37.11-.68.2c-1.05.28-1.7 1.15-1.18 1.57.27.22.97.24 1.44.04ZM8.3 12.64c1.96-.88 2.04-3.54.1-3.54h-.3V7.39l.75-.73c1.09-1.06 1.42-1.98.94-2.6-.72-.92-1.91.44-2.06 2.36l-.06.8-.54.4c-2.2 1.62-2.89 3.47-1.75 4.7.7.74 1.73.86 2.92.32Zm23.34-.28c-1.11-.49-.52-2.26.76-2.26.22 0 .28-.85.14-2.18l-.07-.6-1.03-.36c-.57-.2-1.06-.36-1.09-.36s-.05.86-.05 1.9v1.9l-.34.37c-.82.9-2.6.32-2.28-.75.15-.49.58-.9 1.13-1.06l.44-.13.05-1.63c.04-1.37.08-1.65.21-1.73.16-.1 3.37 1 3.76 1.28.24.18.75 4.09.61 4.58-.26.86-1.41 1.39-2.24 1.03Zm-21.62-.23c.03-.16.19-.18 1.66-.21 1.52-.02 1.63-.01 1.6.15s-.19.18-1.66.21c-1.52.02-1.63.01-1.6-.15Zm6.1 0c.05-.25 6.83-.28 6.83-.03 0 .13-.46.15-3.43.18-3.24.02-3.43.01-3.4-.15Zm9.58.1c.01-.31.18-.33 2.71-.31 2.32.03 2.54.04 2.57.2.03.17-.15.18-2.62.18-1.46 0-2.66-.03-2.66-.07Zm7.8-.01c0-.3.29-.32 4.02-.32 3.71 0 3.78 0 3.78.2s-.07.2-3.9.2c-2.14 0-3.9-.04-3.9-.08Zm10.52-.09c.05-.25 2.73-.28 2.73-.03 0 .12-.23.15-1.38.18-1.28.02-1.38.01-1.35-.15Zm-37.4-.03c-1.47-.34-1.36-2.2.21-3.66.77-.71.87-.7.87.06v.6l-.47.3c-.62.38-.98.91-.97 1.42.02.61.2.68.29.12.08-.54.58-1.14.95-1.14.24 0 .28 1.97.05 2.18-.16.15-.57.2-.93.12Zm26.44-.21c.57-.34.59-.55.33-2.75-.13-1.08-.28-2.02-.34-2.09-.05-.07-.79-.38-1.63-.69-.85-.32-1.6-.6-1.68-.63-.11-.04-.14.25-.16 1.67l-.03 1.73-.46.13c-1.37.4-1.43 1.75-.07 1.62.94-.09.98-.21.98-2.64 0-1.59.03-2.04.13-2.04.07 0 .69.2 1.37.44 1.46.51 1.35.34 1.44 2.33l.05 1.31-.38.07c-1.19.2-1.76 1.46-.79 1.73.41.12.84.05 1.24-.19Zm-25.01.01c-.18-.3.08-2.2.31-2.2.67 0 1.06.89.69 1.6-.24.46-.85.84-1 .6Zm28.85-.37c-1.19-.43-.83-2.06.53-2.39.23-.05.27-.11.23-.28-.02-.11-.13-.83-.22-1.59-.26-1.98-.09-2.09 1.46-.96 1.77 1.28 1.91 1.74.4 1.23-.89-.3-.84-.37-.65.87.34 2.24.32 2.39-.38 2.9-.39.28-.95.37-1.37.22Zm1.16-.42c.61-.37.62-.66.08-4-.06-.4 0-.4 1.06.03.75.3.74.3-.49-.58-.83-.59-1.11-.75-1.11-.62 0 .02.09.71.2 1.52.27 2 .28 1.88-.25 2.08-.81.31-1.21 1.11-.78 1.58.22.24.89.24 1.29-.01Zm-18.58-.06c-.96-.54-.36-1.87.97-2.15l.3-.06.12-1.44c.14-1.65.22-1.9.57-1.9.49 0 .59.24.52 1.24-.28 3.72-.25 3.58-.87 4.08-.44.35-1.2.46-1.61.23Zm1.38-.42c.43-.28.54-.65.64-2.11.05-.75.12-1.68.16-2.05.06-.64.05-.69-.12-.65-.17.03-.21.22-.34 1.67l-.15 1.64-.46.11c-.83.21-1.37.74-1.25 1.22.12.45.95.55 1.52.17Zm-10.14-.35.03-.23h2.05c1.98 0 2.05.01 2.05.2s-.08.2-2.08.23l-2.08.02zm28.49.13c-.42-.27-.02-.41 1.11-.41 1.22 0 1.51.08 1.29.34-.15.18-2.14.23-2.4.07Zm4.83-.06c-.11-.29.07-.35 1.09-.35 1.07 0 1.34.08 1.24.34-.09.23-2.25.24-2.33.01ZM9.45 8.6c-.16-.27.16-.3 2.84-.3 2.82 0 2.94.01 2.84.26-.06.17-5.57.21-5.68.04ZM17 8.5c0-.19.06-.2 1.81-.2 1.66 0 1.8.01 1.77.17-.06.3-3.58.32-3.58.03Zm5 0c0-.2.07-.2 3.5-.2s3.5 0 3.5.2-.07.2-3.5.2-3.5 0-3.5-.2Zm11.87.13c-.29-.28-.05-.33 1.73-.33 1.73 0 1.8.01 1.8.2 0 .2-3.34.33-3.53.13Zm5 0c-.32-.31-.09-.33 3.45-.31 3.27.03 3.53.04 3.56.21.04.17-6.84.28-7.01.1ZM9.62 6.83c.05-.25 11.03-.28 11.03-.03 0 .13-.69.15-5.53.18-5.24.02-5.53.01-5.5-.15ZM22.1 6.8c0-.2.04-.2 3.43-.18 2.96.03 3.42.05 3.42.18s-.46.15-3.42.18C22.14 7 22.1 7 22.1 6.8Zm11.5 0c0-.19.07-.2 1.8-.2s1.8.01 1.8.2-.07.2-1.8.2-1.8-.01-1.8-.2Zm6.4 0c0-.2.04-.2 2.68-.18 2.29.03 2.67.05 2.67.18s-.38.15-2.67.18C40.04 7 40 7 40 6.8ZM8.1 6.43c0-.55.5-1.67.81-1.83.44-.24.64.31.33.93-.35.7-1.14 1.32-1.14.9Z"/></svg>