<svg xmlns="http://www.w3.org/2000/svg" width="51" height="51" viewBox="0 0 51 51"><path fill="#fff" fill-rule="evenodd" stroke="#fff" stroke-width=".761" d="M14.85 39.85c-2.58-.57-4.41-2.38-5.07-5.03-.48-1.88-.15-5.5 1.36-14.97.63-3.93.8-4.45 1.84-5.56 1.26-1.35 1.83-1.48 6.53-1.49 3.33 0 3.36 0 3.8.23 1.21.64 1.18 2.48-.04 3.15-.28.15-.74.18-3.82.22-4.05.06-3.94.03-4.19.93-.15.52-.65 3.72-1.34 8.55l-.38 2.62h24.08l-.07-.57c-.2-1.67-.89-6.42-1.07-7.33-.39-2.02.15-3 1.64-3 1.16 0 1.66.61 1.97 2.4 1.33 7.72 1.79 12.96 1.31 14.86-.65 2.57-2.55 4.49-4.95 4.99-.98.21-20.67.21-21.6 0Zm21.65-.31c2.26-.53 4.09-2.4 4.64-4.74.3-1.28.12-5.6-.34-8.2-.05-.3-.28-1.81-.5-3.35-.49-3.4-.67-4.35-.91-4.74-.55-.9-2.13-.85-2.62.09-.22.43-.19 1.04.17 3.05.36 2.06.99 6.82.93 7-.06.13-1.41.15-12.32.15H13.3v-.29c0-.32.82-6.07 1.3-9.16.19-1.23.39-2.16.52-2.43.36-.76.36-.76 4.33-.82 2.39-.03 3.56-.09 3.7-.17 1.04-.6 1.05-2.15.02-2.7-.29-.16-.65-.17-3.72-.15-4.6.04-5.06.14-6.24 1.36-1.02 1.07-1.17 1.52-1.8 5.56-1.55 9.88-1.84 13.08-1.33 14.93.64 2.33 2.28 3.98 4.52 4.56 1.03.27 20.78.32 21.9.05Zm-21.17-2.98c-1.55-.49-2.43-1.89-2.43-3.86 0-1-1.44-.91 12.75-.88l12.5.03v1.2c-.01 1.7-.55 2.69-1.83 3.32l-.57.28-10 .02c-8.03.01-10.08-.01-10.42-.11Zm20.54-.31c1.25-.37 1.95-1.44 2.01-3.07l.04-1.08H13.17l.05.98c.08 1.58.81 2.73 2 3.15.65.23 19.89.25 20.65.02Zm-7.22-10.42c-1.07-.13-1.81-.31-3.45-.85-2.66-.87-3.97-.91-6.48-.2-1.34.37-2.16.12-2.62-.83-.94-1.94 1.36-3.19 5.85-3.19 2.05.01 2.51.09 4.28.77l.68.26.1-.27c.1-.25.78-2.54 1.82-6.1l.44-1.52-.71-.2c-1.65-.48-2.32-.71-2.53-.89-1.13-.95-.66-2.85.77-3.11.54-.1 1.11.02 4.3.91 5.88 1.63 5.73 1.58 6.16 2.15.6.78.37 1.95-.48 2.51-.56.38-1.2.36-2.66-.06-.63-.18-1.19-.3-1.26-.28-.14.06-.14.04-1.26 3.91-.5 1.7-.93 3.12-.96 3.17-.07.13-.06.12 1.26-.21 1.39-.35 1.87-.37 2.39-.1 1.36.69 1.25 2.47-.2 3.2-1.02.53-4.27 1.08-5.44.93Zm1.75-.33c3.26-.41 4.74-1.18 4.57-2.41-.17-1.25-1.03-1.53-3.1-.99-1.11.29-1.57.36-1.57.25 0-.33 2.19-7.5 2.35-7.7.08-.11.37-.05 1.5.26.77.21 1.53.39 1.7.39 1.2 0 1.92-1.55 1.14-2.45-.34-.39-.68-.51-3.49-1.29-.91-.24-2.55-.7-3.65-1.01-2.29-.65-3.05-.74-3.52-.39-.66.5-.86 1.4-.45 2.07.28.44.56.57 2.19 1.03.71.2 1.35.39 1.42.43.08.06-.02.54-.38 1.77-1.57 5.34-1.93 6.5-2.01 6.58-.05.05-.54-.08-1.18-.32-1.72-.64-2.46-.76-4.46-.69-4.03.13-6.05 1.31-5.04 2.95.46.75 1.02.84 2.65.41 2.27-.59 3.63-.53 6.13.3 1.27.43 2.35.71 3.2.84.49.08 1.17.07 2-.03Z"/></svg>