<svg xmlns="http://www.w3.org/2000/svg" width="51" height="51" viewBox="0 0 51 51"><path fill="#fff" fill-rule="evenodd" stroke="#fff" stroke-width=".207" d="M25.01 50.34c-.5-.63.1-1.52.83-1.24.84.32.65 1.5-.24 1.5-.3 0-.43-.06-.59-.26Zm.94-.24c.27-.3.07-.7-.34-.7s-.59.32-.36.66c.19.29.46.31.7.04Zm-2.83-1.5c-.56-.34-.42-1.19.25-1.47.47-.19.37-.28-.97-.84-2.09-.87-3.34-1.97-4.22-3.76l-.51-1.02-.9 1.47c-1.32 2.16-1.46 2.4-1.62 2.78-.19.45-.29.44-1.48-.22-1.77-.97-1.83-1.05-1.41-1.67.3-.45.28-.48-.29-.58l-.42-.06.53-.02c.43-.01.58-.06.73-.23.38-.47.31-.47-1.96.02-1.17.26-1.78.34-2.27.31s-.32-.52.53-1.51c.7-.82.7-.8.17-.81-.24-.01-.54-.04-.68-.09-.16-.05.02-.07.53-.07.7.01.8-.01 1.03-.25l.26-.25-.47-.12c-.46-.11-1.25-.47-1.25-.56 0-.02.24.07.52.2.87.38 1.11.4 1.47.1.4-.35.39-.38-.13-.54-.25-.07-.62-.28-.83-.46l-.39-.33-.82.74c-1 .9-1.72.89-1.72-.03 0-.14-.13-.43-.29-.66-.8-1.18-2.11-3.48-2.11-3.72 0-.08.25-.3.55-.5.64-.4.63-.4.29-.91-.15-.21-.19-.32-.1-.24.1.07.24.26.32.42l.15.29.39-.22c.62-.35.31-.85-.85-1.41-.38-.18-.49-.27-.3-.23.54.11 1.14.46 1.49.86l.34.4.27-.24.27-.23-.47-.42c-.33-.29-.71-.5-1.24-.67-.63-.21-.68-.24-.31-.19.65.09 1.22.36 1.74.84.45.42.85.42 1.1.01.07-.11-1.14-.91-1.63-1.08-.25-.09-.27-.11-.09-.08.37.07.36.06-.23-.62-.5-.57-1.28-1.99-1.5-2.74l-.12-.39H3.9c-.65 0-.7.04-.94.74-.39 1.19-.14 1.59 1.24 1.98.65.18.65.18.15.12-1.5-.17-2.02-.97-1.46-2.27.26-.61.27-.57-.13-.57-.45 0-.46-.04-.45-1.93.01-2.12.01-2.11.69-2.17l.55-.05.29-.85c.55-1.63.47-3.84-.19-5.13-.13-.26-.2-.45-.14-.41.79.49 1.13 3.52.59 5.29-.37 1.21-.37 1.15.01 1.15.57 0 .99-1.32.99-3.12 0-1.78-.24-2.64-1.11-3.96-.11-.17-.19-.32-.16-.32s.26.3.51.68c.71 1.04.88 1.63.95 3.26l.06 1.39.39-.57.38-.56-.11-.75c-.14-.96-.41-1.75-.97-2.87-.25-.5-.44-.92-.42-.94.14-.13 1.31 2.5 1.45 3.26.23 1.23.2 1.18.49.88l.26-.26-.17-.58c-.09-.33-.39-1.12-.66-1.78-.28-.65-.48-1.2-.46-1.22.12-.12 1.37 2.92 1.37 3.33 0 .11.04.11.2.01.27-.17.26-.22-.21-1.4-.23-.57-.5-1.28-.59-1.58-.17-.52-.2-.55-.66-.7-.64-.2-.69-.47-.22-1.26.18-.3.37-.64.42-.74.06-.1.26-.23.47-.29.54-.16.59-.13.14.08l-.4.19.42.01c.23.01.45.06.48.11.2.32 2.22-.08 3.12-.62s1.22-1.2 1.24-2.52c.03-1.85.16-2.39.17-.71.02 2.8-.77 3.74-3.38 4.02l-.55.06.5.18c1.18.41 3.05.14 3.75-.54.43-.42.5-.63.66-1.87l.13-1.05-.03 1.1c-.04 1.76-.57 2.38-2.25 2.67-.82.14-.81.33.02.32 1.28-.02 2.15-.53 2.48-1.44l.2-.55-.04.47c-.08.86-.68 1.37-1.91 1.62l-.61.13.56.13c1.7.38 2.86-.84 2.46-2.6-.06-.29-.06-.32.04-.16.61.98.02 2.48-1.13 2.87l-.53.18.28.1c.37.14.54.14 1.13-.04.91-.27 1.17-.82.95-1.96-.15-.72-.08-.9.1-.28.37 1.3.12 1.9-.95 2.33-.52.21-.55.24-.32.3.14.03.26.11.26.16 0 .14.45.12.83-.04.54-.23.7-.49.77-1.29l.07-.72.01.7c.03 1.07-.52 1.65-1.55 1.65-.07 0-.13.09-.13.2 0 .18.07.2.55.2 1.41 0 1.99-.35 1.99-1.21 0-.55.14-.39.15.17.02.71-.47 1.02-1.75 1.13-1.29.11-1.42.24-.38.41l.59.09-.62-.03c-.65-.04-.96.09-.46.19.15.03.64.15 1.08.27 1.35.37 2.38.19 2.94-.5.34-.4.3-.53-.31-1.25l-.27-.32-.01.31c0 .16-.07.39-.16.5-.15.19-.16.19-.08-.01.29-.8.27-.83-1.25-2.6a25.6 25.6 0 0 1-2.47-3.35c-.37-.59-1.14-2.13-1.14-2.27 0-.08-.04-.11-.1-.08s-.1-.04-.1-.17c0-.83.62-1.67 1.39-1.88.24-.06.82-.38 1.3-.71.87-.61 1.28-.72 1.51-.44.47.57 3.2-.14 5.08-1.3.62-.39.51-.24-.18.24-1.29.91-2.47 1.31-3.87 1.31-.51 0-.93.03-.93.06 0 1.43 2.36.98 5.11-.98 1.72-1.23 1.82-1.29 1.3-.82-1.91 1.71-3.77 2.68-5.28 2.76-.6.03-.6.02-.33.45.24.4.49.38 1.57-.14.39-.19.91-.37 1.15-.4.23-.03.51-.14.6-.24.1-.1.48-.36.85-.58.38-.21.96-.61 1.29-.87.34-.27.73-.58.88-.69l.27-.2-.18-.44c-.31-.78-.2-.81 2.82-.81 2.96 0 2.99.01 2.6 1.02-.05.13.02.2.27.31.18.08.4.22.48.32.13.15.09.15-.27-.04-.54-.27-.67-.27-.81.03-.1.23-.09.26.26.37.56.18 2.65 1.27 2.79 1.45.12.16.33.11.33-.07 0-.06-.13-.29-.29-.52-.3-.45-.74-1.27-.67-1.27.02 0 .23.29.46.65.58.88 1.76 1.98 2.38 2.2.88.31 2.05.32 2.19.03l.11-.25-.83-.06c-1.51-.09-2.91-1.01-3.64-2.37-.42-.78-.34-.76.19.05.91 1.4 2.23 2.15 3.76 2.15.57 0 1.26-.39.72-.4-2.05-.05-3.35-.85-4.42-2.72-.4-.71-.23-.58.32.24.93 1.38 1.86 2 3.22 2.17.77.1 1.16.02 1.26-.24.15-.39 1.24-.03 1.24.42v.26l.73-.06.72-.05-.5.13c-.27.07-.64.14-.81.14-.23.01-.34.08-.43.27-.17.37-.11.39.68.19.39-.09.76-.15.83-.13.13.05-1.36.48-1.65.48-.14 0-.54.57-.45.65.02.02.55-.12 1.18-.31s1.26-.36 1.4-.39c.46-.11-1.75.72-2.28.85-.41.09-.56.18-.67.41-.26.5-.19.49 1.54-.18.63-.24 1.18-.42 1.23-.41.12.04-1.94.93-2.62 1.12-.51.15-1.03.66-.86.83.08.08 1.05-.27 2.41-.87 1.44-.64 2.03-.85 2.12-.76.04.03.01.06-.06.06-.06 0-.84.33-1.74.74-.89.4-1.93.83-2.3.96-.54.17-.73.29-.88.54-.41.67-.32.65 2.21-.58 1.18-.58 2.26-1.08 2.4-1.11.42-.1-4.12 2.22-4.58 2.34-.4.11-1.05.81-.9.97.12.11 1.23-.38 2.42-1.05 3.92-2.25 4.99-2.23 4.52.05-.28 1.4.17.82.5-.65.13-.53.23-.85.23-.71s-.06.52-.14.85c-.2.85-.19.93.1.65.14-.14.35-.56.51-1.08.32-1.01.43-.98.15.03-.11.38-.18.71-.16.73.07.07.56-.66.69-1.04.11-.28.15-.33.15-.16.01.3.25.28 1-.09.34-.17.64-.29.66-.27.1.1-1.07 1.72-1.44 1.99-.57.43-.52 1.55.11 2.31.31.38.59.24.39-.19-.49-1.04-.5-1.23-.02-.38l.31.55.4-.2c.53-.27.66-.19 1.15.74.44.84.43.98-.11 1.26-.16.08-.6.32-.97.53l-.68.39.88.91c1.77 1.83 2.34 3.53 1.64 4.88-.17.32-.17.38-.04.7l.15.34.19-.43c.8-1.83.25-3.75-1.61-5.75-.4-.43-.7-.8-.68-.82.1-.1 1.75 1.71 2.05 2.25.82 1.45.96 3.04.38 4.43-.34.8-.23 1.15.2.64 1.24-1.42.59-4.55-1.39-6.75-.85-.93-.85-1.05 0-.22 1.93 1.91 2.69 4.66 1.82 6.54-.16.32-.28.6-.28.62s.29.04.64.04c.91 0 .9-.03.84 2.06-.07 2.04-.03 1.97-1.02 1.91-.96-.06-1.02-.03-1.22.57-.58 1.78-2.03 3.55-3.68 4.51l-.49.28.64.33c1.21.63 1.75.31 1.66-.96-.06-.8.07-.79.18.01.09.61-.12 1.1-.55 1.31-.31.15-.32.16-.12.27 1 .54 1.4-.64.84-2.46-.14-.43-.05-.42.13.01.43 1.03.41 1.97-.06 2.51l-.29.33.3.12c.75.31 1.01-.98.56-2.75-.24-.91-.26-1.22-.05-.69.51 1.34.58 2.52.18 3.3-.14.29-.16.4-.06.46.6.38.84-1.46.42-3.2-.14-.57-.25-1.2-.24-1.4 0-.24.11.09.3.93.38 1.61.38 2.86.01 3.48l-.22.38.25.09c.3.12.33.42.07.85-.1.17-.22.42-.25.57-.04.14-.18.39-.31.55-.14.16-.28.41-.31.56-.04.15-.18.36-.31.46-.39.3-.32.58.14.54l.37-.02-.39.1c-.22.05-.48.18-.58.29-.11.12-.32.2-.51.2-.18 0-.43.02-.57.05s-.07-.01.15-.08l.39-.14-.27-.17c-.42-.28-1.8.98-2.99 2.74-.65.94-.78.96-.2.02.52-.86 1.31-1.78 2.07-2.42.73-.62.75-.67.4-.76-.68-.17-2.62 2.08-4.33 5.02-.54.94-.87 1.19-.37.29 1.34-2.43 3.04-4.65 4.04-5.27l.34-.21-.23-.19c-.33-.27-.4-.24-1.01.4-1.09 1.11-2.15 2.59-3.27 4.52l-.61 1.05.3.31c.42.44.44.41-1.23 1.77-.77.62-.8.61-1.3-.39l-.42-.86-.24.28-.24.29.22-.38c.19-.33.21-.42.1-.67-.16-.38-.11-.4-.88.31-.61.56-1.54 1.19-1.76 1.19-.05 0 .17-.19.5-.41 1.5-1.05 1.93-1.55 1.74-2.04l-.1-.27-.73.68c-.4.38-.98.83-1.28 1.01-.88.52-1 .5-.19-.04 1.52-1.01 2.16-1.75 1.9-2.23-.11-.2-.14-.19-.76.39-.35.33-.74.65-.86.72-.13.06.1-.19.5-.56.95-.88.95-.89.63-1.52l-.27-.53-.17.51-.16.52.25-.23c.35-.34.29-.16-.09.27-.19.21-.53.72-.77 1.13-.86 1.5-2.46 2.75-4.15 3.26-.89.26-1.09.58-.52.84.45.21.6.78.3 1.18l-.2.27-2.19.03c-2.04.02-2.21.01-2.52-.18Zm1.88-.71c0-.51-.76-2.29-.98-2.29-.1 0-.12.07-.09.23.04.12.09.42.12.67.04.25.1.54.15.65.04.11.13.33.19.48s.11.37.11.47c0 .15.07.2.25.2.23 0 .25-.04.25-.41Zm1.1-.25c.13-.66.12-.67-.11-.85-.24-.18-.24-.18-.08-.63l.17-.46h-.28c-.36 0-.4.16-.4 1.53v1.07h.28c.27 0 .29-.03.42-.66Zm-13.07-.36c-.33-.16-.48-.61-.33-.98a.776.776 0 0 1 1.5.3c0 .62-.58.96-1.17.68Zm24.31 0c-.47-.22-.52-.81-.11-1.25.45-.49 1.27-.12 1.27.57 0 .62-.58.96-1.16.68Zm-23.49-.49c.11-.18-.04-.57-.25-.64-.31-.1-.6.12-.6.46 0 .46.6.59.85.18Zm24.33-.23c.03-.19-.03-.29-.21-.37-.36-.16-.67.03-.67.42 0 .59.81.55.88-.05Zm-17.98.1c-1.04-.37-2.8-2.23-2.8-2.95 0-.09.17.13.38.49.8 1.39 2.08 2.35 3.3 2.5l.67.07-.6.01c-.33.01-.76-.05-.95-.12Zm3.25-.46-.84-.31c-3.55-1.26-5.57-5.65-4.32-9.42.35-1.06.37-1.38.03-.6-1.29 3.02-.36 6.96 2.11 8.91.99.78 2.46 1.52 3.02 1.51h.2zm-3.01-.38c-.9-.32-1.74-1.06-2.32-2.05-.37-.65-.24-.64.18.01.72 1.12 1.69 1.86 2.77 2.11.28.07.31.09.13.1-.14 0-.48-.08-.76-.17Zm15.94-.49c-.2-.22-.21-.27-.09-.56.23-.57.23-.62-.07-.99-.23-.29-.32-.35-.42-.25s-.12.09-.07-.05c.03-.09-.01-.24-.08-.35-.14-.17-.14-.17-.16.07 0 .18-.04.12-.13-.2-.17-.6-.35-.92-.49-.87-.11.03-.57-.82-.57-1.06 0-.15.45.29.77.77.15.22.43.57.61.76.19.19.67.78 1.07 1.31.47.63.77.94.85.89.14-.09-3.68-5-3.89-5-.24 0-.21.69.03.93.14.14.28.38.32.54.04.15.3.78.59 1.38.29.61.74 1.58 1 2.17l.47 1.07.24-.16.25-.16zm-12.88.25c0-.19-.17-.31-.88-.67-4.07-2.07-5-7.46-1.83-10.62 2.69-2.67 6.7-2.75 9.45-.18.81.75.86.75.86-.11-.01-.31-.08-.41-.62-.83-2.22-1.74-4.79-2.11-7.9-1.13-.63.2-.61.11.04-.19 2.37-1.08 5.6-.7 7.74.91.76.57.83.6.33.13-2.12-2.02-5.73-2.41-8.84-.95-1.14.54-1.24.65-.94 1.05.12.17.21.32.18.33-.02.02-.15.12-.29.23l-.25.2.23-.27.24-.26-.27-.18c-.25-.17-.29-.17-.58 0-.81.44-.92.69-.42.96.32.17.4.54.18.9-.09.16-.2.27-.24.24-.04-.02-.1 0-.14.06-.03.05-.16.1-.28.1-.18 0-.19.02-.07.1.1.06.11.1.03.1-.41 0-.93 1.62-1 3.06-.16 3.22 1.61 6 4.45 7 .83.29.82.29.82.02Zm5.65-.29c2.96-1.42 4.45-4.54 3.8-7.95-.17-.92-.15-.89-.58-.75l-.34.11.14.63c.65 3.11-.9 6.23-3.84 7.71-.43.21-.53.31-.53.51 0 .32.24.28 1.35-.26Zm-2.68 0c2.51-.34 4.81-2.51 5.37-5.06 1.36-6.15-6.31-10.26-10.79-5.78-4.27 4.27-.57 11.67 5.42 10.84Zm-2.16-.45c-3.24-.7-5.41-4.12-4.66-7.33 1.21-5.1 8.12-6.32 11.04-1.96 2.97 4.45-1.14 10.43-6.38 9.29Zm2.44-.29c3.7-.78 5.7-4.84 4.05-8.22-1.81-3.69-7.03-4.28-9.69-1.08-3.44 4.12.38 10.4 5.64 9.3ZM15.49 40.2c1.21-2.18 1.25-2.27 1.01-2.35-.22-.07-.4.01-.4.16 0 .14-2.49 4.51-3.26 5.71-.28.44-.3.64-.07.77.19.1.89-1.01 2.72-4.29Zm9.23 4.09c-4.45-.65-6.17-6.41-2.81-9.43 3.26-2.95 8.57-1.02 9.11 3.3.45 3.63-2.66 6.66-6.3 6.13Zm2.32-.46.58-.18-.26-.24c-.2-.19-.26-.21-.26-.09 0 .33-1.91.53-2.34.25-.2-.13-.31-.14-.55-.06-.8.28-2.64-1.47-3.18-3.04-1.23-3.51 1.82-7.06 5.44-6.35 4.09.81 5.37 5.62 2.26 8.48-.75.68-.8.96-.1.49 1.24-.82 2.17-2.63 2.17-4.21 0-4.61-5.62-6.88-8.91-3.59-3.74 3.74.09 10.08 5.15 8.54Zm11.07-.95c1.07-1.88 2.29-3.58 3.43-4.75.48-.51.49-.53.31-.68-.27-.2-.26-.2-.71.28-1 1.05-3.94 5.25-3.94 5.62 0 .08.3.45.36.45.01 0 .26-.42.55-.92Zm1.99.86c0-.15.97-1.71 1.47-2.35.82-1.08 1.76-1.71 2.52-1.68.19.01.14.04-.19.13-1.14.32-2.24 1.41-3.44 3.4-.2.33-.36.55-.36.5Zm-15.05-.44c-.04-.06.06-.1.22-.1.15 0 .35-.05.43-.1.11-.07.04-.1-.27-.1-.36 0-.43-.03-.43-.2s.07-.2.4-.2c.22 0 .4-.04.4-.1 0-.05-.18-.1-.4-.1-.29 0-.4-.04-.4-.15s.12-.15.45-.15c.25 0 .45-.04.45-.1 0-.05-.25-.1-.55-.1h-.55v.68c0 .38.03.72.07.75.1.11.25.08.18-.03Zm1.25-.79c0-.45.05-.83.11-.86.2-.13.54.04.74.37l.2.33.03-.37c.03-.32.07-.38.26-.38.29 0 .87-.83 1.12-1.59.33-1.02.09-2.49-.55-3.26-.16-.2-.16-.2.07-.01 1.01.86 1.05 3.11.08 4.39-.24.32-.3.49-.26.71l.05.29.39-.43c1.38-1.53 1.39-3.92 0-5.51l-.38-.44.41.39c1.57 1.47 1.56 4.08-.01 5.83-.78.86-.56 1.03.26.2 3.21-3.22.44-8.56-4.03-7.79-3.81.65-5.05 5.22-2.18 7.99.48.47.56.48.41.04-.09-.25-.07-.34.1-.56l.2-.25-.33-.37c-1.2-1.38-1.15-3.77.1-4.7l.36-.26-.37.39c-1.14 1.2-1.11 3.23.07 4.53.24.27.46.41.62.41.13 0 .37.07.53.15.26.13.3.13.38 0 .06-.13.23-.15.78-.13l.69.03-.04.83c-.02.55 0 .82.08.82.07 0 .11-.28.11-.79Zm-2 .54c.2-.25.07-.48-.34-.59-.57-.16-.62-.41-.07-.33.44.05.57-.09.17-.19-.8-.2-1.06.34-.32.66.62.26.61.45-.01.37-.44-.06-.46-.05-.29.08.25.19.7.19.86 0Zm13.61-1.35c1.01-1.58 1.97-2.91 2.73-3.8.58-.67.63-.76.48-.88-.22-.17-.22-.17-.89.63-1.54 1.85-3.57 4.98-3.4 5.26.15.24.15.24 1.08-1.21Zm-28.63.86c.22-.49 1.69-2.03 7.8-8.16 6.83-6.86 6.45-6.47 6.17-6.32-.91.49-14.67 14.72-14.22 14.72.07 0 .19-.11.25-.24Zm2.34-.16c1.47-.28 1.69-.35 1.83-.56.14-.22.14-.24-.04-.24-.57 0-3.39.68-3.68.89s-.29.35 0 .28c.12-.03.97-.2 1.89-.37Zm25.83-1.37c.79-1.2 2.12-3.04 2.91-4 .25-.31.25-.32.06-.42-.24-.13-.95.71-2.53 2.99-1.78 2.57-1.73 2.48-1.59 2.65.19.23.19.23 1.15-1.22Zm-20.27.32c.27-.55.28-1.45.02-1.45-.27 0-.7 1.19-.55 1.54.2.47.26.45.53-.09ZM37.1 40.2c.51-.74 1.35-1.9 1.87-2.58.99-1.32 1.02-1.36.76-1.46-.19-.08-.12-.15-1.01 1.04-1.83 2.46-2.99 4.24-2.88 4.42.14.23.12.25 1.26-1.42Zm-24.85.95c.66-.14 1.32-.28 1.47-.31.37-.08.7-.44.41-.44-.67 0-2.8.53-3.03.76-.3.3-.31.3 1.15-.01Zm24.2-1.27c.5-.72 1.32-1.88 1.83-2.57.52-.69.96-1.29.98-1.33.03-.04-.04-.12-.15-.17-.17-.1-.33.08-1.43 1.62-2.2 3.04-2.49 3.49-2.37 3.64.18.21.19.19 1.14-1.19Zm-12.28.75c-.04-.03-.07-.52-.07-1.09 0-1.27-.02-1.34-.44-1.27-.37.06-.59-.14-.54-.49.04-.29 1.39-.79 1.67-.61.2.13.3 3.16.1 3.39-.12.14-.6.19-.72.07Zm1.9-.13c-.71-.56-.73-2.52-.02-3.17 1.24-1.16 2.66.86 1.86 2.64-.32.7-1.27.97-1.84.53Zm9.88-1.18c.5-.7 1.32-1.83 1.83-2.52.82-1.09.92-1.26.77-1.35-.49-.3-.5-.3-.37-.73.09-.29.2-.43.41-.52.64-.26.46-.4-.5-.4-1.01 0-2.25-.22-2.83-.5-.57-.28-.77-.03-1.02 1.28-.15.79-.33 1.36-.41 1.28-.03-.03 0-.2.05-.38.06-.18.16-.66.22-1.05.07-.44.21-.87.35-1.07l.23-.34-.23-.12c-.72-.39-1.37 1.34-.91 2.44.21.5.21.51-.11.8-.22.2-.25.28-.15.38.07.07.12.22.12.34 0 .79 1.07-.77 1.51-2.19.16-.52.37-1.01.46-1.08.15-.12.16-.12.08.06-.04.11-.23.64-.41 1.17-.29.87-1.01 2.17-1.38 2.47-.13.11-.09.81.04.81.26 0 1.25-1.45 1.65-2.41.48-1.16.88-1.99.95-1.99.09 0-.55 1.56-1.1 2.66a7.2 7.2 0 0 1-1.01 1.48c-.53.58-.6.69-.54.95l.06.29.43-.47c.59-.63 1.33-1.76 2.01-3.06.59-1.13.94-1.69 1.01-1.62.18.18-2.17 4.04-2.94 4.82-.49.5-.49.5-.28.66.26.2 1.08-.83 2.69-3.36.53-.83 1.08-1.61 1.23-1.75.29-.27.25-.14-.12.35-.12.16-.57.86-.99 1.54s-1.14 1.75-1.61 2.37c-.75 1.01-.84 1.16-.74 1.35.14.26.01.41 1.56-1.81 1.37-1.97 1.97-2.7 2.22-2.7.11 0 .08.08-.12.29-.15.16-.74.96-1.31 1.78-.57.81-1.24 1.78-1.5 2.14-.41.58-.52.99-.26.99.03 0 .47-.57.96-1.28Zm-22.85.88c1.51-.28 1.48-.27 1.66-.62.15-.29.15-.31-.02-.24-.1.04-.65.18-1.22.32-1.11.26-1.63.46-1.84.71-.11.14-.1.15.07.1.11-.03.72-.16 1.35-.27Zm11.6-1.3c0-1.07-.03-1.5-.12-1.5-.31 0-1.18.35-1.18.48 0 .1.09.12.39.07.5-.08.5-.08.55 1.27.05 1.32.02 1.18.21 1.18.13 0 .15-.23.15-1.5Zm2.66 1.35c.54-.37.63-2.21.13-2.7-.97-.98-2.03.5-1.56 2.18.17.61.92.89 1.43.52Zm-1.05-.41c-.45-.57-.21-2.16.34-2.3.79-.2 1.28 1.44.7 2.32-.22.34-.76.33-1.04-.02Zm.86-.24c.42-.84-.11-2.22-.65-1.68-.19.19-.16 1.63.04 1.83.22.21.46.15.61-.15Zm-15.68-.44.23-.24-.36-.17c-.19-.09-.51-.35-.71-.56l-.35-.39-.37.34-.38.34.2.22c.28.31.99.66 1.41.69.06.01.21-.1.33-.23Zm2.6-.07c.95-.21 1.31-.37 1.31-.59 0-.07-1.02.13-1.96.39-.22.06-.49.21-.6.32-.19.21-.19.22.01.16.11-.03.67-.15 1.24-.28Zm-6.34-.59c.46-.32.62-.6.47-.85-.07-.14-.16-.11-.63.21-.73.49-.72.49-.57.73.17.27.21.27.73-.09Zm4.41-.01.23-.22-.38-.28c-.22-.15-.47-.42-.57-.58-.22-.37-.21-.37-.63-.02-.41.34-.29.63.43 1.06.5.3.63.31.92.04Zm-7.92.01c-.81-.33-.62-1.5.25-1.5.88 0 1.12 1.07.34 1.48-.25.14-.3.14-.59.02Zm41.85-.19c-.53-.43-.18-1.31.53-1.31.49 0 .78.28.78.75 0 .67-.77 1-1.31.56Zm-1.54-.08c.08-.22-.14-.41-1.04-.9-.36-.19-.84-.48-1.06-.63-.53-.36-.89-.55-.81-.42.03.06-.03.13-.14.17-.27.08-.25.19.04.33.18.08.28.07.44-.03.25-.18.37-.07.16.16-.14.16-.14.18.08.3.13.07.33.19.45.27.21.13.24.12.32-.09.07-.18.1-.19.1-.06.01.09.06.17.11.17.06 0 .1.07.08.15-.07.36 1.14.91 1.27.58Zm-39.64-.24c.26-.5-.35-.93-.75-.53-.19.18-.2.28-.06.55.15.27.66.26.81-.02Zm42.07.09a.5.5 0 0 0 .12-.33.5.5 0 0 0-.12-.33.5.5 0 0 0-.33-.12.5.5 0 0 0-.33.12.5.5 0 0 0-.12.33c0 .12.05.26.12.33s.21.12.33.12.26-.05.33-.12ZM7.92 36.86c.1-.4.13-.41-.77.15-.77.48-.85.59-.63.86.16.2 1.29-.63 1.4-1.01Zm4.83.94c.17-.19.16-.2-.14-.46-.18-.14-.4-.42-.49-.6l-.18-.35-.28.3-.28.3.21.3c.47.66.86.84 1.16.51Zm-3.62-.33q1.47-1.035.57-.09c-.29.31-.38.52-.22.52.25 0 .76-.72.74-1.04-.01-.19.02-.37.08-.41.05-.03.1.01.1.09 0 .09.05.16.11.16s.08.07.05.16c-.06.17.06.12.37-.14.16-.14.25-.82.1-.82-.09 0-1.99 1.07-2.35 1.32-.18.12-.28.28-.28.44 0 .32.01.31.73-.19Zm35.97-.17c0-.1-.12-.27-.27-.38-.42-.3-5.35-3.14-5.38-3.1-.34.41-.34.4 1.87 1.69 3.76 2.2 3.78 2.21 3.78 1.79Zm-31.74-.04c.18-.14.18-.16-.17-.48-.19-.18-.43-.44-.52-.57-.16-.24-.17-.24-.36-.07-.44.4.57 1.47 1.05 1.12Zm2.89-.18c1.02-.19 1.56-.4 1.41-.55-.08-.08-2.63.51-2.76.63-.2.19-.11.19 1.35-.08ZM14 36.61c.08-.17.05-.23-.2-.38-.16-.09-.3-.2-.3-.23-.01-.03-.1-.16-.21-.29-.3-.36-.68-.03-.43.38.39.63.94.88 1.14.52Zm31.58-.21c.04-.24-4.53-2.8-5-2.8-.53 0-.41.1 1.12.95.41.23 1.38.78 2.15 1.23 1.39.81 1.67.91 1.73.62Zm-28.83-.1c1-.22 1.56-.57.75-.47-.86.11-1.5.29-1.72.47-.3.25-.17.25.97 0ZM6.1 36.14c.41-.27.44-.33.34-.71-.06-.22-.41-.07-1.03.44-.05.04.17.53.24.53.03 0 .23-.12.45-.26Zm17.89.15c-.24-.14-.22-1.16.02-1.29.43-.24.93-.09 1 .3l.06.35.02-.37.01-.37h.97c1.03 0 1.23.07 1.23.45 0 .29-.25.54-.56.54-.13 0-.23.03-.23.08.06.38.02.4-1.2.4-.65 0-1.24-.04-1.32-.09Zm9.16-.66c-.01-.2-.47-.93-.59-.93-.07 0-.33.07-.56.15s-.53.15-.65.15c-.23 0-.23.01.13.63l.37.63.65-.27c.36-.15.65-.31.65-.36Zm-18.64.47c.26-.15.24-.23-.16-.63-.19-.19-.35-.43-.35-.53.01-.15.04-.13.16.08.21.39.7.64.92.46.31-.24.31-.32-.02-.64-.32-.31-.46-.68-.46-1.21 0-.23-.03-.25-.32-.2-.18.03-.73.11-1.21.18-.68.1-.86.16-.82.27.03.07.05.27.05.44 0 .25.03.29.18.23.74-.29 1.28 0 .97.52-.31.53.5 1.32 1.06 1.03ZM9.6 34.96c1.04-.66 1.46-.99 1.48-1.14.05-.32-.22-.28-.77.12-.25.18-.84.57-1.31.86s-.86.53-.87.54c-.07.05-.13.56-.07.56.05 0 .74-.42 1.54-.94Zm-2.38.42c.24-.17.47-.72.35-.84-.17-.17-.87.5-.87.83 0 .36.01.36.52.01Zm-.82-.68c1.02-.68 1.2-.84 1.2-1.06 0-.21-.04-.25-.17-.19-.24.08-2.53 1.56-2.53 1.62 0 .08.21.43.26.43.02 0 .58-.36 1.24-.8Zm38.82.49c.19-.1.13-.15-.63-.56-.46-.25-1.24-.67-1.73-.94-.95-.52-1.08-.56-1.24-.36-.09.1.09.23.76.59.48.26 1.23.67 1.67.92.88.51.88.51 1.17.35Zm-25.69-.37c.18-.16.23-.42.08-.42-.17 0-.83-.69-.76-.8.14-.23-.25-.08-.45.17-.56.72.43 1.65 1.13 1.05Zm-3.68-.12.22-.21-.33-.33c-.26-.26-.34-.42-.34-.7 0-.39-.06-.42-.42-.25-.35.15-.25 1.11.16 1.45.33.29.44.3.71.04Zm17.51-1.08c.03-.18.18-.48.35-.66l.29-.34-.25-.16c-.22-.15-.83.05-.85.27 0 .01-.07.2-.15.42-.14.39-.14.39-.15.1 0-.38.24-.73.58-.86.23-.09.24-.11.1-.25-.29-.3-1.28.32-1.28.8 0 .03.2.28.45.56.24.28.53.65.62.83l.18.32.03-.35c.01-.19.05-.5.08-.68Zm-1.46.58c0-.1-.05-.41-.11-.69-.15-.71.2-1.32.87-1.5.31-.08.35-.2.13-.34-.44-.28-1.56.42-1.45.91.03.15.11.62.17 1.04.11.72.39 1.14.39.58Zm-15.24-.24c.03-.08-.06-.26-.2-.41-.14-.14-.28-.4-.31-.56-.11-.5-.68-.13-.59.39.12.72.89 1.13 1.1.58Zm-8.23-.56c.65-.39.66-.42.32-.58-.36-.17-1.04.3-1.05.71 0 .33-.03.33.73-.13Zm38.92-1.05c-.31-1.56-.37-2.72-.16-3.25.19-.47.59-1.07.77-1.14.09-.03.05.08-.1.27-.73.95-.81 1.74-.4 3.91.14.75.24 1.42.22 1.48-.03.07-.17-.51-.33-1.27Zm-30.14 1.06.23-.18-.25-.3c-.13-.17-.28-.38-.34-.47-.17-.27-.6.13-.51.48.14.57.51.77.87.47Zm23.34-.36c6.11-1.66 7.93-9.45 3.12-13.35-4.83-3.91-12.7-.23-12.7 5.95 0 5.22 4.58 8.76 9.58 7.4ZM14 32.94c5.74-1.34 7.72-8.56 3.51-12.74-4.03-4-11.06-2.1-12.53 3.39-1.46 5.46 3.53 10.64 9.02 9.35Zm3.95-.32c.09-.23-.44-.83-.64-.72-.4.21-.42.35-.1.73.31.37.59.37.74-.01Zm13.67-.86c.13-.09.39-.19.56-.22.5-.1.32-.29-.25-.28-.94.03-1.57.64-1.06 1.04l.27.21.12-.3c.07-.16.23-.37.36-.45Zm-13.03.31c.09-.12.06-.23-.16-.56l-.27-.41-.27.26c-.16.15-.25.32-.22.38.38.67.57.74.92.33Zm18.44.18c-4.75-1.33-6.49-7.7-3.06-11.21 5.47-5.6 14.36.69 10.86 7.68-1.36 2.72-4.94 4.34-7.8 3.53Zm9.71-.52c-.26-.93-.26-2.59-.01-3.25.26-.66.4-.6.16.06-.3.87-.32 1.49-.1 2.71.24 1.27.22 1.43-.05.48Zm-35.39.5c-4.41-.59-7.08-5.59-5.1-9.58 1.89-3.84 6.89-4.95 10.2-2.28 5.24 4.24 1.59 12.75-5.1 11.86Zm28.8-.28c4.8-1 6.8-7.02 3.53-10.6-3.86-4.21-10.78-1.81-11.15 3.85-.28 4.26 3.5 7.61 7.62 6.75ZM14 31.74c6.22-1.85 6.11-10.74-.16-12.34-5.25-1.34-9.69 4.19-7.26 9.04 1.34 2.67 4.62 4.13 7.42 3.3Zm16.58.01c.14-.3.83-.64 1.3-.65.33 0 .4-.08.22-.26-.13-.13-1.25-.01-1.72.19-.43.18-.54.67-.2.86.25.15.28.14.4-.14ZM11.3 31.6c-2.89-.5-5.1-3.11-5.1-6.01.01-6.12 8.17-8.38 11.29-3.14 2.62 4.39-1.18 10.01-6.19 9.15Zm26.53 0c-4.81-.87-6.69-6.88-3.21-10.32 3.73-3.68 10.09-1.21 10.35 4.02.2 3.9-3.3 6.99-7.14 6.3Zm-18.69-.19c.17-.18.17-.21 0-.45-.09-.15-.14-.29-.12-.32.03-.02.13.07.22.2.17.27.4.26.5-.01.04-.09 0-.23-.07-.32-.17-.2-.29-.51-.19-.51.04 0 .15.14.24.31.21.35.53.27.64-.16.03-.14.11-.25.18-.25s.32-.21.56-.46l.45-.46-.4.06c-.37.05-.35.04.13-.12.4-.13.61-.27.83-.56.34-.47.32-.53-.11-.31-.18.09-.34.14-.37.11-.04-.03.19-.17.49-.3.7-.31 1.79-1.53 1.5-1.69-.04-.02-.02-.02.05-.01.44.11-1.22-2.68-2.37-4-.16-.18-.28-.35-.25-.37.02-.03-.1-.23-.28-.46s-.54-.73-.8-1.12c-.42-.62-.51-.7-.67-.61-.11.06-.46.13-.78.16l-.59.07.62.77c2.26 2.8 2.34 6.74.2 9.76l-.43.6.2.32c.23.37.38.4.62.13Zm10.78-.02c.05-.38.49-.61 1.27-.67.72-.05.8-.09.59-.3-.18-.18-1.68-.16-1.96.04-.31.21-.32 1.14-.01 1.14.04 0 .09-.1.11-.21Zm-16.01-.25c3.38-.99 5.12-4.93 3.57-8.09-2.63-5.35-10.69-3.7-10.95 2.25-.18 4 3.57 6.96 7.38 5.84Zm26.21.11c2.61-.55 4.58-2.97 4.58-5.62 0-5.15-6.33-7.77-9.91-4.11-3.99 4.08-.25 10.92 5.33 9.73Zm-10.72-.21c0-.62.34-.85 1.41-.93.71-.05.76-.08.65-.23-.2-.27-1.91-.13-2.23.18-.38.38-.31 1.19.1 1.23.04.01.07-.11.07-.25Zm-18-.05c-3.26-.48-5.44-4.15-4.29-7.24 1.57-4.24 7.35-4.95 9.74-1.2 2.57 4.06-.7 9.13-5.45 8.44Zm17.7-1.04c.18-.21.76-.35 1.52-.35.62 0 .66-.01.61-.21-.07-.27-1.85-.25-2.4.03-.18.09-.33.13-.33.09 0-.19.63-.35 1.57-.39l1.01-.04-.09-.28c-.08-.21-.15-.26-.32-.23-.12.02-.33-.01-.47-.06-.21-.09-.18-.1.19-.05l.44.06-.07-.28c-.46-2.06-.47-3.42-.03-4.76.32-.98.36-1.01-1.78 1.06-1.65 1.59-1.77 1.75-1.39 1.8.1.02.2.09.22.17s0 .1-.05.04c-.25-.31-.63-.17-.63.24 0 .83.06.87 1.22.95.57.04 1.21.11 1.43.16.34.08.32.09-.2.04-.33-.03-.97-.08-1.43-.11l-.83-.06.12.27c.09.19.17.25.28.2.27-.13 1.15-.16 1.51-.06.28.08.18.09-.45.05-1.38-.08-1.37-.19-.17 2.37l.26.55.07-.53c.04-.29.12-.59.19-.67Zm9 1.05c-4.88-.68-6.36-7.14-2.27-9.89 4.65-3.13 10.41 1.85 7.98 6.91-.98 2.05-3.39 3.31-5.71 2.98Zm-24.84-.31c.65-.11 1.92-.69 2.2-1s-.04-.25-.83.16c-1.59.83-3.41.81-4.76-.05-.73-.46-1.19-.42-.53.05 1.11.78 2.53 1.09 3.92.84Zm11.34.01c.15 0 .2-.1.26-.47.03-.27.16-1.03.28-1.7.2-1.1.21-1.23.07-1.23-.16 0-.3.41-.81 2.3-.33 1.23-.33 1.23-.15 1.16.09-.03.25-.06.35-.06Zm3.16-.32c-.04-.24-.29-.95-.56-1.59-.28-.63-.5-1.21-.5-1.27 0-.07-.15-.12-.35-.12-.33 0-.35.02-.25.2.06.12.33.79.6 1.5.61 1.61.66 1.7.92 1.7.19 0 .2-.04.14-.42Zm12.19.27c3.98-.84 5.5-5.62 2.73-8.58l-.57-.62-.01.31c0 .21.09.39.31.6 3.13 2.93.6 8.22-3.84 8.02-3.92-.17-6.07-5.24-3.34-7.88.42-.41.63-.9.38-.9-.17 0-.97.98-1.29 1.57-2.05 3.86 1.35 8.38 5.63 7.48Zm-13.36-.57c-.12-.29-.35-.89-.52-1.33l-.32-.79-.22 1.14c-.31 1.64-.36 1.5.52 1.5h.75zm-13.29-.02c.3-.08.74-.23.98-.33l.43-.18h-2.36c-1.29-.01-2.35 0-2.35.02 0 .41 2.3.75 3.3.49Zm26.26.04c.17 0 .2-.05.16-.25-.06-.33-.69-.36-.97-.05-.24.27-.76.26-1.12-.02-.15-.13-.49-.34-.75-.47-2.14-1.07-2.89-4.22-1.46-6.11.39-.52.42-.92.04-.61-2.73 2.27-.2 7.91 3.39 7.56.27-.03.6-.05.71-.05Zm1.56-.52c2.43-1.28 3.12-4.81 1.34-6.84-.4-.45-.54-.2-.16.29 1.54 1.96.78 5.22-1.47 6.32-.32.15-.61.33-.65.39-.24.35.06.3.94-.16Zm-2.47-.04c.24-.24.15-.47-.27-.67-.21-.1-.38-.25-.38-.33 0-.16.36-.19.45-.04.08.13.25.13.25 0 0-.19-.46-.33-.69-.21-.4.22-.07.81.44.81.1 0 .15.07.13.18-.03.19-.58.31-.58.13 0-.06-.08-.11-.17-.11-.15.01-.14.04.06.2.28.24.54.25.76.04Zm1.34-.36c-.01-.24-.04-.56-.08-.72l-.06-.29-.37.46c-.47.56-.47.67-.03.67.24 0 .35.05.35.15 0 .08.04.15.1.15s.09-.19.09-.42Zm.79-.07c1.98-1.02 2.76-3.98 1.47-5.66-.25-.34-.29-.35-.9-.35-.35 0-.67-.04-.7-.1-.04-.06-.14-.05-.28.04-.35.21-1.67.1-1.67-.15 0-.28-.86-.28-.95 0-.04.15-.19.19-.71.24-.73.05-.75.08-1.21.97-.39.76-.41 2.2-.05 2.9.45.86 1.72 1.9 1.72 1.41 0-.67 1.16-.66 1.43.01l.13.31.27-.42c.38-.57.79-.56.87.02l.05.38.47-.31c.75-.5 1.48-1.55 1.48-2.15 0-.13.03-.16.1-.09.41.41-.63 1.92-1.89 2.75-.47.31-.16.47.37.2Zm-3.13-.01c.03-.05-.14-.19-.39-.31-2.04-.95-2.71-3.9-1.25-5.45.28-.3.05-.43-.26-.14-1.07 1.01-1.08 3.32-.02 4.77.65.88 1.69 1.5 1.92 1.13Zm-29.5-.94c-.19-.3-.4-.67-.45-.81-.09-.24-.4-.36-.4-.15 0 .17.29.69.74 1.35.54.79.64.44.11-.39Zm8.8-.33c.29-.59.31-.73.11-.73-.07 0-.21.19-.3.43s-.28.59-.41.77c-.14.19-.25.43-.25.54.01.3.53-.32.85-1.01Zm-8.3.2c.11-.14.1-.23-.02-.46-.08-.16-.12-.31-.1-.33.02-.03.1.09.17.26l.12.3h6.87l.16-.3c.2-.39.2-.4-.2-.4-.27 0-.35-.04-.35-.18 0-.3-.1-.31-.35-.06-.45.45-1.55.2-1.55-.35 0-.1-.09-.04-.26.16-.45.57-1.28.64-1.66.12l-.21-.27-.23.27c-.59.7-2.01.16-1.7-.64.09-.23.62-.2.69.05.08.31.47.27.47-.05 0-.21-.05-.25-.29-.25-.16 0-.42-.03-.59-.06l-.3-.06.05-.62c.08-1.14.02-1.07.96-1.04l.82.03v.7l-.47-.02c-.54-.03-.65.12-.16.22.17.04.44.21.59.38.32.35.44.32.29-.07-.39-1.03.85-1.85 1.56-1.03.25.3.32.85.13 1.04-.08.08-.05.21.09.48.12.24.22.34.26.26.11-.18.52-.13.67.09.16.23.46.12.36-.14-.05-.11-.19-.16-.52-.16h-.46l.07-.82c.03-.46.08-.86.11-.9.09-.16 1.6-.09 1.67.08.05.13.09.13.32-.05.15-.12.41-.21.6-.21.43 0 .43-.11-.01-.85-.24-.39-.29-.53-.15-.4.11.1.32.43.47.74s.35.67.44.81c.33.48.28.96-.16 1.54l-.35.46h.29c.19 0 .36.08.46.23.15.21.16.14.13-1.08-.17-6.95-10.28-6.63-10.28.33v.87l.55-.6c.68-.74.92-1.14.74-1.25-.18-.12-.39 0-.5.26-.1.27-.27.3-.54.11-.23-.17-.14-.59.19-.92.13-.13.29-.39.35-.58.06-.18.25-.49.42-.68l.3-.34-.25.4c-.43.69-.44.91-.04.99.8.15.94.53.75 1.99-.02.15 0 .3.05.33.04.03.08.21.08.4 0 .36-.12.4-1.03.34-.33-.02-.32.17.05.78.23.37.26.38.43.15Zm15.68-1.33c.54-.58.56-.62.51-1.03-.08-.57.26-.93.81-.84l.35.06.4-.79c.43-.86.38-.92-.36-.43l-.27.17-.69-.73c-.39-.4-.68-.65-.65-.54.65 2.2.66 2.18-.55 1.57-.58-.29-.87-.39-.77-.28.29.33 1.19 1.97 1.19 2.17 0 .11-.2.48-.45.83-.54.78-.31.7.48-.16Zm-20.73.33c.11-.17.11-.17.06 0-.04.14.01.17.34.17.22 0 .4-.03.4-.08-.01-.19-.19-.34-.41-.32-.13.01-.42.02-.64.01-.61-.02-.17-.31.48-.31.34 0 .47-.04.45-.12-.03-.07-.1-.13-.16-.12-.07.01-.39.02-.72.03l-.6.01v.45c0 .5.54.69.8.28Zm36.95.03c-.16-.07-.36-.25-.44-.4-.18-.34-.35-.29-.39.12-.05.45-.69.49-.74.05-.03-.25-.08-.28-.43-.31-.22-.02-.45-.08-.52-.14-.09-.07-.15-.04-.22.15-.41 1.08-1.91.61-1.91-.6s1.18-2.42 1.6-1.64c.17.34.04.61-.31.61-.16 0-.29.05-.29.1 0 .06.1.1.21.1.12 0 .36.15.54.34.32.34.33.34.42.13.32-.67 1.03-1.47 1.33-1.47h.3v.8c0 .89.22 1.17.33.4.11-.82 1.08-1.53 1.44-1.05.23.33.13.51-.42.71-.17.06-.15.08.15.15.9.2.97 1.67.09 1.98-.39.13-.37.13-.74-.03Zm-29.8-.41c.51-.51.24-1.25-.47-1.25-.38 0-.38 0-.38-.4v-.4h.49c.28 0 .53-.04.56-.1.04-.06-.18-.1-.59-.1H9.7v1.2h.43c.49 0 .67.13.67.49 0 .58-.55.78-.95.35-.19-.21-.25-.23-.25-.1 0 .51.75.72 1.15.31Zm2 0c.29-.29.3-.36.09-.82-.13-.25-.14-.37-.05-.46.2-.2.13-.74-.11-.91-.66-.46-1.41.25-.94.89.12.17.12.22-.05.44-.35.45-.02 1.11.56 1.11.14 0 .37-.11.5-.25Zm1.92.1c.53-.37.37-1.35-.21-1.35-.41 0-.45-.05-.39-.47.05-.32.07-.33.54-.33.27 0 .49-.04.49-.1s-.27-.1-.6-.1c-.59 0-.6 0-.6.29 0 .16-.03.43-.06.6-.06.31-.06.31.33.31.46 0 .63.14.63.51 0 .48-.68.72-.97.33-.07-.09-.16-.14-.2-.1-.28.28.69.65 1.04.41Zm11.88-.13c.2-.8.95-1.59 6.43-6.68 4.83-4.49 5.21-4.83 7.32-6.67 1.02-.88 1.96-1.72 2.1-1.85.38-.39-.59.39-2.29 1.83-2.32 1.97-3.52 2.91-7.62 6l-3.76 2.84-.22.99-.23 1-.96.59c-.96.58-.97.58-1 1-.04.49-.29.73-.76.73-.24 0-.55.22-.56.4-.01.24 1.48.08 1.55-.18Zm10.85.08c.48-.48.16-1.3-.52-1.3-.29 0-.38-.04-.38-.17 0-.23.39-.63.62-.63.1 0 .18-.04.18-.1 0-.36-.76.08-.96.56-.48 1.16.31 2.39 1.06 1.64Zm4 .02c.57-.46.23-1.32-.52-1.32-.28 0-.38-.04-.38-.15 0-.2.45-.65.65-.65.08 0 .15-.04.15-.1 0-.19-.41-.1-.65.14-.93.93-.23 2.87.75 2.08ZM9 26.7c0-.05-.26-.1-.57-.12l-.56-.03.51-.59c.74-.85.7-1.49-.09-1.62-.4-.07-.79.2-.79.53 0 .13.06.11.28-.1.87-.84 1.23.17.39 1.1-.91 1.01-.91.93.02.93.44 0 .81-.04.81-.1Zm8 0c.1-.07-.06-.1-.53-.1h-.69l.56-.62c.64-.7.76-1 .55-1.37-.28-.5-1.29-.34-1.29.21 0 .26.15.22.28-.07.13-.27.58-.35.8-.13.25.25.12.59-.42 1.16-.89.95-.9 1.02-.09 1.02.37 0 .75-.05.83-.1Zm22.5-.19c0-.21.06-.31.23-.36.21-.07.2-.08-.07-.12l-.29-.05.06-.79c.08-1.03-.07-1.04-.75-.05-.63.92-.63 1.06.02 1.06.49 0 .5.01.5.3q0 .3.15.3c.1 0 .15-.1.15-.29Zm-27.6.01c-.43-.35-.03-.92.57-.8.32.06.42.57.14.79-.29.24-.43.24-.71.01Zm24.72.02c-.22-.15-.28-.47-.16-.78.07-.19.64-.22.82-.04.27.27 0 .98-.38.98-.03 0-.16-.07-.28-.16Zm4.11.05c-.56-.21-.35-1.02.25-.97.36.03.37.05.4.44.03.46-.24.68-.65.53ZM.7 26.08c-.65-.7.36-1.7 1.11-1.09.32.26.32.86 0 1.12s-.85.25-1.11-.03Zm15.44-.7c-.03-.04-.18-.08-.34-.08-.17 0-.34-.08-.43-.2-.16-.23-.91-.38-1.01-.21-.05.07.05.14.24.18.37.07.7.53.7.98v.29l.45-.44c.24-.24.42-.47.39-.52Zm33.17.66c-.43-.54-.1-1.24.58-1.24.46 0 .81.33.81.76 0 .69-.97 1.02-1.39.48Zm-47.73-.16c.15-.15.15-.51 0-.66-.28-.28-.78-.07-.78.33 0 .27.18.45.45.45.12 0 .26-.05.33-.12Zm48.72-.07c.14-.27.13-.37-.06-.55-.28-.28-.66-.18-.78.2-.14.45.62.76.84.35Zm-38.38-.43c-.36-.36.03-.97.54-.84.46.12.28.96-.21.96a.5.5 0 0 1-.33-.12Zm-7.68-.58c.04-.28.09-.57.12-.65.11-.27-.49-.18-.75.11-.25.29-.38.26-.21-.05.1-.19.08-.21-.25-.21-.35 0-.35 0-.35.45 0 .37.03.45.19.45.1 0 .33.03.5.06.28.06.32.03.44-.25.16-.37.28-.32.18.07-.07.25-.12.27-.69.3-.84.04-.79.22.07.22h.68zm23.66-1.34c.37-.98.33-1.05-.29-.51-.19.17-.81 1.23-.81 1.39 0 .19 1.01-.61 1.1-.88Zm-3.75-.08c-.27-.92-.47-1.2-1.77-2.53-.73-.75-1.36-1.42-1.4-1.49-.12-.2-2.59-2.49-2.64-2.44s3.63 5.36 4 5.77c.15.16 1.59.99 1.93 1.1 0 .01-.05-.18-.12-.41Zm2.56-.64c.23-.18.25-.22.1-.31-.13-.08-.12-.1.08-.09.23.01.59-.73.43-.89-.04-.03-.01-.09.05-.13s.23-.37.36-.73l.25-.67-.26.07c-.37.1-.75.8-.55 1 .08.07.11.16.07.2-.04.03-.09 0-.11-.07-.08-.2-.2-.14-.31.16-.05.15-.24.65-.41 1.11-.33.89-.35.87.3.35Zm-16.37.21a.29.29 0 0 0-.24-.15c-.49 0-.49-.51 0-1.18l.3-.42 1.98.04c2.23.04 2.45.06 2.72.31.53.48 0 1.18-.62.82-.36-.21-.83.16-.48.38.06.03.1.13.1.21 0 .22-3.68.21-3.76-.01Zm26.58-.28c.05-.07.07-.37.06-.67l-.03-.55h-.9l-.03.6c-.04.77.54 1.17.9.62Zm4.74.13c.09 0 .14-.11.14-.35 0-.36-.03-.38-.52-.49-.41-.09-.36-.36.06-.36.19 0 .37.06.39.13.03.07.06.05.06-.05.02-.4-.78-.36-.97.05-.16.34-.09.47.28.47.28 0 .6.22.6.41 0 .09-.44.06-.72-.06-.1-.04-.18-.03-.18.02 0 .13.42.33.58.27.08-.02.2-.04.28-.04Zm-2.37-.62c-.1-.82.13-1.13.76-1.04.53.07.53.07 1.05-.02l.45-.07-.6-.23c-.93-.34-1.62-.45-2.45-.39-.89.07-2.07.44-1.91.6s1.64.22 1.91.07c.4-.21.6.26.61 1.43 0 .15.05.27.13.27.09 0 .11-.15.05-.62Zm-36.24.12c.02-.14.09-.56.16-.94.15-.91.05-2.19-.24-3.07-.26-.78-.26-.86.01-.31.5.99.61 2.87.23 3.97-.11.33-.19.49-.16.35Zm22.12-.21c-.08-.19-.22-.55-.31-.81-.16-.42-.76-.76-.76-.43 0 .28 1.05 1.73 1.17 1.62.02-.02-.03-.19-.1-.38Zm1.07-.61.25-.68H25.1l.12.25c.06.14.15.25.2.25s.07.04.04.09 0 .24.08.42c.07.19.16.43.21.54l.07.2.08-.2c.04-.11.19-.5.34-.87Zm20.25.11c.32-1.5-.14-2.68-1.72-4.35-.82-.87-.9-.92-1.13-.82-.32.15-.31.18.17.53 1.76 1.29 2.69 3.09 2.32 4.45-.1.36.02.85.18.75.04-.03.12-.28.18-.56Zm-17.79-.43a.43.43 0 0 1-.1-.25c.01-.11.05-.09.13.06l.13.23.36-.25.37-.25-.24-.36c-.13-.19-.27-.44-.3-.54-.16-.5-.45-.14-1 1.24-.45 1.15-.45 1.14.2.65.39-.29.53-.45.45-.53Zm-5.26-.53c-.44-.88-.64-1.03-.64-.48 0 .29.09.45.47.86.6.64.63.57.17-.38Zm22.28-1.27c-.34-.71-.97-1.44-1.87-2.16l-.65-.52-.57.33c-1.16.66-1.48.89-1.25.89.38 0 2.15.98 2.8 1.56.68.61.77.6.34-.05-.39-.57-1.34-1.27-2.1-1.52-.69-.23-.8-.35-.16-.18 1.22.33 2.39 1.31 2.75 2.29.4 1.1.67.96.34-.18-.19-.64-1-1.55-1.91-2.14-.74-.47-.79-.64-.07-.22 1.29.75 2.23 2.03 2.23 3.04 0 .37.06.64.18.8.35.5.3-1.17-.06-1.94Zm-15.36.77c.24-.15.25-.17.08-.24-.16-.06-.15-.08.07-.08.21-.01 1.09-.53 1.09-.65 0-.02-.1-.01-.23.01-.13.03-.41-.03-.62-.11-.42-.18-.43-.32-.01-.16.58.22 1.07.13 1.69-.31.7-.49.7-.49.05-.32-.52.14-.97.13-1.3-.01-.11-.05-.28.03-.55.27-.21.18-.64.49-.95.68-.67.39-.66.38-.32.96.28.49.17.5 1-.04Zm-5.61.18c-.18-.07-.18-.09.1-.35.17-.16.29-.34.27-.42-.03-.16.14-.19.23-.03.04.06-.01.17-.11.24-.14.1-.15.14-.05.15.11 0 .1.05-.04.2-.18.2-.17.2.09.2.31 0 .55-.43.36-.65-.05-.06-.11-.24-.12-.39-.02-.24-.06-.26-.5-.26-.52 0-.66.2-.29.39.16.09.18.08.14-.09-.04-.14 0-.2.11-.2.23 0 .2.11-.18.65-.37.52-.38.65-.03.64.21 0 .21-.01.02-.08Zm1.95-.01c0-.05-.03-.1-.08-.1-.23 0-.34-.62-.13-.76.36-.26.26-.44-.24-.44-.45 0-.69.44-.35.65.05.03.07.12.03.2q-.045.15.12.15c.09 0 .13.05.1.11-.04.06-.13.08-.21.05-.07-.03-.16-.01-.19.04s.12.11.32.13c.21.02.44.04.51.05.06.01.12-.02.12-.08Zm-7.85-.75c.61-.1.61-.16.08-.84-.01-.02-.11.03-.2.11-.24.21-.8.38-1.17.37-.25-.01-.21-.04.22-.14.95-.23 1.13-.42.81-.86l-.2-.29-.25.3c-.26.31-.78.5-1.29.49-.23-.01-.17-.04.23-.14 1-.24 1.33-.69.89-1.2l-.24-.28-.22.32c-.27.37-.83.68-1.42.77l-.42.07.39.2c.42.21.89.54 1.42 1 .35.29.31.28 1.37.12Zm10.11-.6c3.17-1.53 4.87-5.49 3.86-8.98-.29-1.02-.5-1.43-.65-1.28-.29.29-.56.12-1.12-.71-.61-.92-.64-1.04-.35-1.41l.21-.26-.53-.27c-2.81-1.43-5.66-1.5-9.06-.22-.97.36-1 .39-.72.78.25.35.25.36-.61 1.49-.73.97-.75.99-1.04.71l-.23-.21-.26.84c-1.33 4.27.64 8.51 4.6 9.87.71.25 1.33.27 1.14.05-.07-.08-.1-.24-.07-.34.04-.16-.06-.23-.65-.41-7.25-2.34-5.47-12.96 2.17-12.93 7.56.03 9.23 10.74 2.01 12.95-.6.18-.61.19-.62.57l-.02.38.52-.09c.28-.05.92-.29 1.42-.53Zm-21.28-.08c.09-.1.01-.39-.28-1.13-.22-.54-.42-1.14-.46-1.32-.06-.31-.47-.62-.62-.47-.06.06 1.1 3.04 1.19 3.05.04 0 .11-.06.17-.13Zm.48-.32c.03-.08-.08-.55-.25-1.06-.17-.5-.31-.97-.31-1.05 0-.12-.48-.4-.56-.32-.02.03.28.89.71 2.06.2.53.31.63.41.37Zm19.02-.1c2.94-.69 5.03-3.67 4.75-6.74l-.06-.64-.23.28c-.17.22-.2.32-.12.42.19.24.04 1.89-.25 2.65-1.88 4.92-8.65 5.32-11.07.66-.56-1.07-.91-2.88-.55-2.88.11 0 .15.11.15.38 0 5.38 7.67 7.48 10.61 2.91.96-1.49 1.33-4.32.57-4.26-.34.02-.31.06-.82-1.06-1.26-2.76-4.91-4.02-6.88-2.37-.53.45-.72.49-.88.19-.16-.29-.23-.17-.09.14.11.24.08.3-.41.84-.31.34-.69.93-.92 1.41-.21.45-.42.82-.47.82-.04 0-.12.17-.18.38l-.1.37-.02-.35c-.02-.56-.41-.55-.41.01 0 .21-.04.39-.1.39-.09 0-.14-.35-.13-.77.01-.19-.24-.16-.31.03-.11.28-.06 1.5.08 2.27.68 3.53 4.24 5.77 7.84 4.92ZM8.6 18.2c0-.93-.56-2.17-.86-1.88-.02.03.44 1.52.6 1.93.08.22.26.18.26-.05Zm28.17-.61c.13-.24.13-.24.13-.02 0 .31.24.2.42-.2q.225-.495.03.12c-.06.2-.04.23.1.18.09-.04.3-.07.46-.07.26 0 .29-.03.29-.34 0-.19.04-.37.09-.4.05-.04.12-.23.16-.44.03-.2.13-.48.2-.62.18-.32.18-.27.01.38-.08.28-.11.52-.06.52.23 0 .48-.41.6-.95.07-.33.17-.67.22-.75.07-.11.08-.07.03.13-.2.94-.19 1.2.03 1.08.15-.08.22-.24.27-.59.03-.26.12-.67.2-.92.09-.29.13-.35.1-.15-.02.17-.07.57-.1.89l-.07.6.24-.16c.2-.13.24-.26.28-.96.07-1.01.15-1.13.15-.22 0 .77.05.87.37.73.21-.09.23-.16.23-1.15 0-.68-.04-1.04-.1-1-.16.09-1.55 1.35-3.08 2.77-.76.72-1.62 1.51-1.9 1.77l-.52.48.55-.24c.32-.14.6-.33.67-.47ZM9.13 17.5l-.02-.65.1.54c.12.68.08.65.61.5.55-.16.54-.14.33-.45-.19-.29.01-.23.22.07.16.22.52.14.46-.1-.04-.15-2.3-1-2.38-.89-.1.15.39 1.69.53 1.66s.17-.15.15-.68Zm23.72.51c.64-.23 1.29-.67 3.53-2.39 1.56-1.2 1.77-1.43 1.38-1.5-.53-.11-1.04.15-2.81 1.45-.39.28-.81.54-.95.58-.26.08.95-.84 2.1-1.59 1-.66 1.63-.82 1.95-.49.27.26.9-.41.8-.86-.15-.71-.68-.55-2.77.86-1.78 1.2-2.37 1.52-2.76 1.53-.34 0-.18-.17.23-.24.2-.04 1.11-.58 2.19-1.31 2.44-1.63 2.9-1.77 3.23-.97l.15.36.29-.32c.22-.24.29-.42.29-.73 0-1.23-.81-1.06-3.42.74-1.76 1.21-2.51 1.53-2.74 1.16-.09-.16-.2 0-.39.61-.09.3-.32.83-.51 1.17l-.34.63h.46c.24 0 .61-.07.81-.15s.38-.14.4-.11c.09.09-1 .46-1.37.46-.31 0-.47.06-.61.22-.82.99 1.5.19 3.04-1.04.63-.5 1.87-1.27 1.87-1.15 0 .02-.26.21-.57.42s-.91.65-1.32.98c-1.04.82-2.08 1.31-2.82 1.32-.57.01-1.06.25-.93.46.09.16 1.03.1 1.59-.1Zm-7.8-.28c-2.09-.29-3.54-1.31-4.4-3.08-.49-1.01-.72-2.45-.4-2.45.11 0 .15.11.15.42.01 1.15.56 2.34 1.54 3.33.94.94 1.07.66.16-.32-4.29-4.59 2.42-11.23 6.86-6.79 2.5 2.5 1.73 6.67-1.46 7.92-.76.3-.99.6-.32.42 2.06-.56 3.62-2.7 3.62-4.98 0-.69.14-.8.24-.19.2 1.23-.51 3.07-1.59 4.14-1.09 1.08-3.02 1.78-4.4 1.58Zm17.02-.9c.34-.21 1.07-.65 1.62-.98s.97-.64.94-.69-.01-.06.05-.02c.14.09.92-.35.92-.52 0-.21-.14-.15-2.07.97-3.02 1.74-3.35 1.95-3.16 2.02.18.06.7-.18 1.7-.78Zm-3.07.55c0-.1.03-.09.09.01.13.2.39.08 2.15-.97 1.58-.96 1.58-.96 1.36-1.14s-1 .08-1 .34c0 .04-.06.08-.12.08-.41.01-1.63.87-1.63 1.15 0 .15-.06.3-.12.32-.08.03-.13-.04-.13-.16 0-.26-.03-.26-.56.01-.46.22-.58.48-.24.48.11 0 .2-.06.2-.12Zm-26.32-.15c-.02-.09-.21-.22-.43-.3-.85-.31-2.41-.75-2.62-.75-.13 0-.21-.04-.18-.08.05-.08-.62-.3-.92-.3-.1 0-.23-.04-.29-.09-.14-.14-2.43-.73-2.54-.66-.26.16.72.55 1.4.55.11 0 .2.04.2.09 0 .04.21.13.48.19.59.13 1.32.32 1.52.39 2.61.96 3.43 1.2 3.38.96Zm13.88-.5c.03-.14.12-.23.24-.23.13 0 .18-.05.14-.15a.3.3 0 0 0-.25-.15c-.17 0-.19-.08-.19-.9 0-1.07-.05-1.1-.66-.27-.89 1.2-.9 1.36-.1 1.44.55.06.56.06.56.38 0 .35.13.57.18.28.01-.1.05-.28.08-.4Zm-2.31.22c.59-.58.18-1.73-.57-1.61-.24.04-.38.02-.38-.05 0-.24.24-.52.58-.67s.35-.16.13-.2c-.94-.15-1.48 2.32-.58 2.68.37.15.57.11.82-.15Zm-.93-.17c-.34-.34-.08-1.08.39-1.08.5 0 .75.51.49 1.01-.12.22-.68.27-.88.07Zm-10.42-.3c0-.13-1.35-.61-4.77-1.72-.94-.31-1.79-.56-1.87-.56-.14 0-.43.38-.34.44.1.09 1.03.26 1.4.27.27 0 .36.03.25.07-.12.05.24.2 1.1.45.71.2 1.87.55 2.58.76 1.43.43 1.65.47 1.65.29Zm5.55-.48c-.38-.75-.83-2.17-.91-2.88-.07-.64-.11-.71-.32-.5-.39.39.3 2.81 1 3.49.52.5.53.49.23-.11Zm9.66.16c3.66-2.4 2.12-8.23-2.23-8.44-4.12-.2-6.46 4.72-3.66 7.68l.43.45.03-.29c.03-.21-.04-.37-.27-.6-.4-.41-.83-1.38-.87-1.95l-.03-.46.09.43c.23 1.07 1.02 2.3 1.27 1.96.19-.26.16-.39-.16-.85-.82-1.13-.75-3.35.12-4.07.07-.06-.03.21-.22.59-.79 1.59-.14 4.13.93 3.63.61-.3 1.29.16.82.55-.13.11-.11.18.15.53.16.23.3.53.3.67.01.21.02.22.06.06.15-.58 1.26-1.95 1.59-1.95.27 0 .34.22.34 1.18 0 .81.11.89.85.58.48-.2.44-.11-.05.14-.47.24-.56.56-.12.45.15-.03.43-.17.63-.29Zm-2.71-.02c0-.07.81-1.24.86-1.24.02 0 .04.29.04.65v.65h-.45c-.25 0-.45-.03-.45-.06Zm17.8-.89c.34-.17.38-.3.14-.39-.09-.04-.15-.09-.12-.12.03-.02.16 0 .29.06.24.11 1.69-.58 1.69-.79 0-.36-.26-.4-.74-.1-.45.28-.47.31-.3.44.16.12.16.14.04.15-.09 0-.21-.05-.27-.11-.21-.21-1.46.61-1.26.83.19.22.17.22.53.03Zm-1.2-.53c0-.04-.07-.25-.15-.47s-.14-.67-.15-.99c0-.58 0-.59-.19-.42-.25.23-.37 1.26-.22 1.84l.12.42.29-.15c.17-.09.3-.19.3-.23Zm.55-.24c.31-.14.31-.12 0-.72-.14-.27-.28-.71-.31-.98-.06-.46-.08-.48-.23-.33-.21.21-.2 1.26.02 1.78.18.42.17.41.52.25Zm-38.4-.4c-.51-.27-.6-.84-.2-1.23.48-.49 1.35-.15 1.35.52-.01.6-.64.99-1.15.71Zm12.5-.31c-.08-.19-.18-.37-.23-.39-.1-.04-.72-1.62-.72-1.85-.01-.32-.4.25-.4.59 0 .38.11.57.67 1.18.26.28.53.6.61.71.21.3.25.17.07-.24Zm17.78.31c.12-.06.9-.56 1.72-1.11 2.08-1.39 2.84-1.72 3.39-1.51.2.08.38.75.3 1.11l-.06.28.22-.22c.28-.27.56-1.73.39-2.04-.25-.47-1.27-.08-3.53 1.35-1.75 1.11-2.43 1.46-2.95 1.53-.37.05-.41.09-.41.33 0 .42.42.55.93.28Zm8.95-.11c.09-.07.08-.17-.08-.42-.11-.18-.29-.65-.38-1.04-.18-.68-.19-.7-.35-.53-.31.34-.17 1.27.3 1.98.15.23.22.23.51.01Zm3.07.16c-.87-.21-.7-1.53.2-1.53.45 0 .75.29.75.74 0 .55-.44.91-.95.79Zm-36.01-.37c1.17-.58 1.45-1.18 1.47-3.15l.02-1.26.09.95c.19 2.11-.29 3.26-1.49 3.59-.59.17-.62.12-.09-.13Zm-5.73.04c.44-.24.13-.98-.36-.86-.36.09-.45.54-.15.78.26.21.26.21.51.08Zm42.27-.12c.28-.28.07-.78-.33-.78-.27 0-.45.18-.45.45s.18.45.45.45c.12 0 .26-.05.33-.12Zm-39.23-.23c2.5-.74 2.84-1.21 2.96-4.05.09-2.28.36-3.12 1.12-3.51q.225-.12-.15.27c-.6.62-.7 1.04-.78 3.2-.1 2.94-.52 3.54-2.85 4.15-1.01.27-1.24.22-.3-.06Zm-.1-.47c1.86-.77 2.24-1.39 2.45-4.02.11-1.41.31-2.24.73-2.98.3-.55.31-.4.02.25-.34.73-.51 1.63-.64 3.27-.15 2.06-.7 2.95-2.13 3.48-.93.35-1.26.34-.43 0Zm26.92.08c.29-.14 1.17-.65 1.96-1.15 3.31-2.08 4.17-2.21 4.03-.59-.08.92.06 1.03.29.26.82-2.7.07-2.82-3.91-.62-.97.54-2.04 1.05-2.37 1.14-.65.18-.96.48-.97.93 0 .35.26.36.97.03ZM7.4 12.43c1.49-.88 1.84-1.52 2.15-3.88.08-.66.19-1.33.25-1.5.09-.28.09-.27.05.1-.03.22-.09.87-.15 1.45-.22 2.18-.78 3.23-2.07 3.89-.6.3-.77.26-.23-.06Zm7.53-.16c-.06-.47.16-1.03.43-1.14.2-.07-.01-.33-.27-.33-.46 0-.68 1.11-.33 1.65.22.33.22.32.17-.18Zm9.82 0c-1.17-.54-1.55-1.98-.81-3.06.96-1.39 3.37-.9 3.52.72l.04.42-.11-.35c-.68-2.2-3.76-1.65-3.57.64.11 1.27 1.4 1.93 2.67 1.36.56-.26.64-.19.14.11-.46.28-1.43.36-1.88.16Zm-7.24-1.18c.15-.38-.02-.56-.63-.66-.21-.03-.38-.1-.38-.14 0-.05.11-.07.25-.03.29.07.35-.15.1-.36-.14-.12-.7-.06-.79.08-.14.24.24.72.57.72.2 0 .4.07.48.17.13.15.11.16-.13.09-.3-.07-.38.1-.16.32.23.23.55.14.69-.19ZM34.18 9.5l.23-.35-.62-.08c-.73-.09-.74-.08-.59.37.19.58.61.6.98.06Zm-16.86-.62c-.34-.63-.82-1.05-.82-.73 0 .41.67 1.45.93 1.45h.28zm3.68.47c-.06-.08-.09-.19-.06-.24.04-.05-.02-.14-.11-.2-.1-.05-.14-.13-.1-.17s.18.03.32.16c.37.35.44.15.07-.21-.33-.32-.63-.35-.68-.07-.01.1-.09.25-.18.34-.23.23-.2.26.17.19.23-.04.28-.03.17.04-.13.09-.13.1 0 .15.08.02.22.07.3.09.23.08.23.08.1-.08Zm-4.61-.5c.07-.07-.59-1.31-.86-1.6-.12-.14-.25-.34-.28-.46-.2-.62-.65-1.11-.65-.7 0 .6.64 1.85.91 1.78.1-.03.2.01.23.09s-.05.14-.25.16c-.38.04-.14.42.31.51.23.04.23.04-.04.06-.25.01-.27.03-.15.17.12.15.63.14.78-.01Zm1.74-.2c.02-.14-.04-.55-.15-.9l-.2-.65-.41.06c-.23.04-.43.07-.44.08-.05.04 1.03 1.73 1.08 1.7.04-.02.09-.15.12-.29Zm16.52-.05c.2-.39.2-.4-.13-.4-.15 0-.54-.07-.87-.14-.7-.17-.9-.04-.73.45.1.3.25.35 1.1.38.43.01.49-.02.63-.29Zm-15.43-.84c-.07-.23-.07-.36 0-.38.15-.05-.02-.58-.18-.58-.08 0-.3.07-.5.15l-.35.14.17.38c.09.21.18.44.21.51.03.06.11.12.18.12.06 0 .2.1.31.21l.19.21.03-.2c.02-.12-.01-.37-.06-.56Zm12.92.33c.36-.21.41-.43.08-.33-.09.03-.01-.04.18-.15.31-.17.33-.2.15-.26-.11-.04-.34-.13-.5-.2l-.3-.14h.33c.39-.01.4-.1.06-.4-.25-.21-.27-.22-.45-.05-.11.09-.22.14-.25.11-.11-.11-.44.13-.44.32 0 .32.13.31.44-.02.17-.18.24-.24.15-.13-.29.38-.3.46-.1.72.12.15.21.37.21.5 0 .29 0 .29.44.03Zm3.01-.39c.21-.4.21-.4-.33-.4-.26 0-.74-.07-1.05-.15-.71-.18-.72-.18-.58-.01.06.07.1.24.09.37-.06.51 1.62.68 1.87.19Zm-15.17-.32c.38-.48.39-.51.08-.67-.49-.26-.73-.04-.63.57.1.62.13.63.55.1Zm8.46.03c.16-.25-1.25-.77-2.35-.87-1.13-.1-2.95.3-2.82.61.03.11.17.09.61-.06 1.18-.41 2.61-.35 3.79.14.69.29.7.3.77.18Zm.18-.66c.03-.33-1.74-.79-3.02-.79-1.27 0-2.75.38-2.64.68.05.12.1.12.4 0 1.21-.51 3.24-.5 4.44.01.57.24.8.27.82.1ZM12.89 5.11c-.52-.42-.11-1.41.57-1.41.36 0 .74.42.74.83 0 .66-.78 1.01-1.31.58ZM37.2 5.1c-.25-.25-.26-.8-.01-1.11.26-.32.86-.32 1.12 0 .44.54.11 1.31-.56 1.31-.22 0-.43-.08-.55-.2Zm-23.42-.22c.28-.28.07-.78-.33-.78-.27 0-.45.18-.45.45s.18.45.45.45c.12 0 .26-.05.33-.12Zm24.3 0c.28-.28.07-.78-.33-.78-.27 0-.45.18-.45.45s.18.45.45.45c.12 0 .26-.05.33-.12ZM27.79 3.73c.07-.27.14-.56.17-.65.04-.15-.01-.18-.29-.18-.27 0-.36.05-.41.22-.1.39-.07.96.07 1.01.27.12.35.05.46-.4ZM25 3.55c0-.54 0-.55-.3-.55-.31 0-.42.46-.24.94.17.44.54.18.54-.39Zm1.8 0c0-.57-.37-.83-.54-.39-.18.46-.02.94.3.94.22 0 .24-.04.24-.55Zm-1.56-1.54c-.5-.21-.52-1.15-.03-1.41.74-.4 1.55.54 1.02 1.19-.21.24-.68.35-.99.22Zm.64-.37c.45-.31.07-.99-.43-.76-.3.14-.35.65-.07.81.23.14.24.14.5-.05Z"/></svg>