<svg xmlns="http://www.w3.org/2000/svg" width="51" height="51" viewBox="0 0 51 51"><path fill="#fff" fill-rule="evenodd" stroke="#fff" stroke-width=".616" d="M47.6 51.16c0-.04.16-.56.35-1.16.64-1.97 1.12-5.1.78-5.1-.44 0-1.98 1.68-3.36 3.68-1.04 1.5-1.21 1.5-.92-.01.17-.89.19-1.57.06-1.57-.18 0-1.06 1.08-1.84 2.27-.81 1.23-1.25 1.59-.66.55.76-1.36 2.25-3.22 2.58-3.22.26 0 .34.47.22 1.41-.06.51-.09.94-.08.96.02.01.37-.46.78-1.04.4-.59.93-1.3 1.17-1.57l.44-.51-.54-.48c-3.71-3.38-10.22-6.46-15.7-7.42-1.39-.25-1.28-.33-1.28.97 0 1.6-.32 2.19-1.35 2.47-1.37.36-2.16-.7-2.51-3.37l-.07-.52h-.96c-1.21 0-1.17-.04-1.41 1.22-.43 2.26-1.09 3.01-2.32 2.67-.94-.25-1.38-1.03-1.38-2.47v-.82l-.27.06C11.22 40.01 3.17 45.19.38 50.34c-.27.5-.33.57-.36.38-.15-1.03 3.51-5.04 6.55-7.17l.72-.5.05-.8c.18-2.68.18-2.85.01-2.85-.26 0-3.26.68-5.15 1.17-2.34.6-2.23.58-2.18.43.06-.2 3.11-1 6.98-1.82l.64-.14.87-1.5c.47-.82 1.23-2.1 1.67-2.84s.77-1.38.74-1.42c-.04-.04-1.13-.57-2.42-1.18s-2.39-1.16-2.45-1.22c-.13-.12.46-.68 4.45-4.24 1.73-1.55 3.23-2.9 3.33-3.02.18-.2.17-.22-1.12-1.54l-1.3-1.33-1.5 1.5C8.45 23.72 8.32 23.9 8.7 23.9c.2 0 .41.32.66 1.03.18.51.16.55-1.3 2.07-.61.63-1.41 1.49-1.78 1.9l-.67.75-2.81.03c-2.47.03-2.8.01-2.8-.13 0-.13.33-.15 2.71-.15h2.71l.98-1.02c.54-.57.93-1.05.87-1.07s-.2.08-.32.23c-.2.25-.25.26-1.15.26h-.95l-.25-.36c-.14-.2-.28-.41-.32-.47s-.33.1-.74.41c-.72.56-1.15.64-2.29.44-.86-.16-1.16-1.25-.56-2.06l.42-.56H.55c-.41 0-.55-.04-.55-.14 0-.12.14-.13.73-.09l.72.05.85-.56.85-.56h1.86l.17.31c.35.62.32.62 1.02.09.61-.47.68-.5 1.25-.5s.63-.02.96-.37c.77-.84.75-.72.24-1.42-.59-.79-.59-.85-.1-.82.22.01.81-.03 1.3-.09l.9-.11.87-.87c.49-.48.88-.91.88-.97 0-.11-.93-1.6-1.58-2.52l-.43-.61-1.06.56-1.06.55-1.76-.06L4.85 17l-.55.54-.55.55-1.76.45c-1.9.5-2.03.52-1.97.34.02-.06.87-.33 1.89-.6l1.84-.48.52-.56.52-.56.58.06c.32.03 1.08.07 1.68.08l1.1.03-.03-.43c-.02-.23.01-.42.06-.42.12 0 .22.24.22.51 0 .1.05.19.1.19.24 0 2.6-1.29 2.6-1.42 0-.05-.33-.69-.74-1.41-.4-.73-.94-1.72-1.2-2.22-.26-.49-.49-.91-.5-.93-.02-.01-.45.14-.97.34l-.94.36-1.4-.21c-.77-.12-1.46-.21-1.52-.21-.07 0 .03.21.22.46.48.62.52.57-1.02 1.3-2.08.99-2.5 1.15-2.78 1.08-.35-.09-.32-.32.03-.26.23.03 2.71-1.02 3.66-1.55.18-.1-.83-1.48-3.16-4.34-.73-.9-.9-1.19-.7-1.19.05 0 .57.61 1.16 1.35S2.33 9.2 2.35 9.2s.6-1.07 1.3-2.37C5.1 4.11 5.06 4.17 5.29 4.29c.19.11 1.72 2.19 3.22 4.39 1.1 1.62 1.11 1.66.56 1.85-.05.01-.07.12-.03.24.06.2.08.2 1.14-.14 10.87-3.46 22.22-3.22 32.71.69l1.33.5.48-.22c.6-.28.86-.24 1.99.33.84.42.85.43 1.03.97l.19.55 1.62.8c.97.48 1.63.86 1.65.96.02.11-.43-.07-1.55-.62-.87-.42-1.59-.76-1.6-.75-.03.03.4 1.51.76 2.64l.16.53 1.1.48c.65.28 1.11.55 1.13.64.02.12-.21.05-1-.28-.57-.24-1.04-.42-1.05-.41-.14.14 1.25 4.16 1.58 4.6.42.55.46.66.25.66-.07 0-.26-.19-.41-.42-.32-.49-.37-.44-.5.52-.1.78-.13.81-1.27 1.46-.57.31-1.32.81-1.68 1.09-1.15.91-1.05.88-2.26.77-1.19-.1-1.24-.13-1.24-.84v-.47l-.62.29c-.34.16-.64.34-.68.41-.2.32-1.77-.88-2.25-1.71-.22-.38-.42-.7-.45-.7-.06 0-2.63 1.93-3.2 2.4l-.42.35 1.62.93c2.33 1.33 9.11 5.39 9.43 5.65l.28.22-.73.62c-.4.34-.95.82-1.22 1.06l-.49.44 1.29.79c.71.44 2.13 1.31 3.17 1.93 1.69 1.02 2.08 1.31 1.76 1.31-.11 0-2.71-1.54-5.03-2.97-.65-.41-1.2-.72-1.23-.7-.02.03.17 1.87.42 4.09.25 2.23.45 4.28.45 4.55 0 .5 0 .5.75 1.14.94.8.8.78 1.54.19.98-.79 1.16-.58 1.06 1.15l-.07 1 .32.4c1.1 1.38 2.18 3.35 1.82 3.35-.04 0-.27-.38-.5-.85-.42-.82-1.58-2.55-1.71-2.55-.04 0-.12.28-.18.63-.25 1.29-1.13 3.57-1.13 2.93Zm-43.21-.73c-.2-.89-.18-3.08.02-3.29.28-.27.98.38 1.79 1.66l.22.35-.06-.45c-.24-1.8-.25-3.92-.02-4.29.28-.44 1.12.32 2.26 2.05.66.99 1.9 3.37 1.9 3.63 0 .35-.27-.04-.84-1.21-1-2.06-2.63-4.37-2.99-4.25-.34.11-.29 3.2.08 4.85.11.47-.31.24-.7-.39-.52-.84-1.34-1.81-1.47-1.73-.11.07-.05 2.45.08 3.26.1.61-.13.45-.27-.19Zm32.46-2.83c-.19-.31 1.84-3.1 2.26-3.1.39 0 .46 2.66.09 3.04-.19.19-.21-.03-.1-.83.07-.47.09-1.05.05-1.39l-.07-.57-.52.57c-.29.31-.76.98-1.06 1.47-.57.98-.56.96-.65.81Zm8.5-5.06c-.08-.82-.19-1.83-.25-2.24-.12-.93-.47-4.16-.53-4.89-.05-.63.23-1 1.64-2.17l.68-.58-.32-.21c-.44-.31-6.64-4.01-8.77-5.24-.96-.56-1.76-.97-1.78-.92s.22 1.37.52 2.93c.3 1.55.87 4.56 1.26 6.68s.73 3.92.75 4c.03.08.48.35 1 .59 1.16.53 3.54 1.94 4.9 2.89.55.38 1.01.69 1.02.68.02-.01-.04-.7-.12-1.52Zm-36.61-.39c.6-.36 1.66-.94 2.36-1.3 1.3-.66 1.4-.75 1.4-1.26v-.29H7.82l-.06.53c-.09.8-.19 2.97-.14 2.97.02 0 .53-.29 1.12-.65Zm13.52-1.36c.45-.44.55-.79 1.14-4.08 1.18-6.61 1.25-6.6 2.45.37.62 3.63 1.01 4.32 2.3 4.08 1.31-.25 1.43-1.14.82-6.31-.2-1.65-.39-3.4-.43-3.89l-.07-.89.24.07c.84.27 1.47.04 2.73-1 1.28-1.06 1.48-1.75.88-3.07-.62-1.36-2.28-3.67-2.64-3.67-.11 0-.32-.08-.46-.19-.48-.33-1.49-.8-2.11-.97-.35-.1-.61-.23-.61-.3 0-.24 1.27.13 2.2.63l.45.25-.3-.27c-.39-.34-1.39-.84-1.87-.91-.48-.08-.48-.23.01-.51 2.8-1.6 3.37-5.63 1.11-7.94-3.5-3.58-9.41-.14-8.25 4.8.28 1.18 1.3 2.54 2.3 3.06.52.27.48.36-.26.63-.62.22-1.55.78-1.81 1.09-.07.09.11.01.39-.16.54-.33 1.39-.67 1.83-.73.42-.05.33.16-.12.3-.71.22-1.2.44-1.77.8-.29.18-.59.31-.67.28-.58-.22-3.08 3.82-3.09 5 0 1.41 2.71 3.53 3.69 2.88.36-.23.37-.13.11 2.17-.69 6.16-.74 7.37-.32 8.13.45.8 1.49.97 2.13.35Zm-8.08-1.33c1.46-.58 3.16-1.12 4.47-1.42 1.05-.23 1.01-.18 1.09-1.37.06-.89.48-4.91.6-5.85.05-.32.04-.33-.29-.26-.76.14-2.98-1.37-3.52-2.41-.82-1.55 2.17-6.28 4.75-7.52l.73-.35-.38-.27c-4.12-3.01-2.05-9.52 3.02-9.54 4.96-.01 7.03 6.63 2.97 9.53-.3.22-.49.4-.41.4.9 0 3.11 1.91 4.28 3.7 1.89 2.88 1.89 3.83 0 5.34-1.06.84-1.8 1.2-2.3 1.12-.49-.08-.49-.32-.04 3.58.19 1.68.35 3.11.35 3.19 0 .09.33.18 1.1.31 2.05.32 4.44 1 6.76 1.91.48.19.88.34.89.32.02-.02-.93-5.15-1.9-10.22-.36-1.87-.65-3.52-.65-3.67 0-.28.63-.83 2.77-2.4l1.01-.74-.64-1.15c-.76-1.36-.82-1.73-.35-2.54.43-.75.63-.9 1.44-1.18l.74-.24 1.07.94c.59.52 1.09.93 1.11.91.01-.01-.12-.84-.3-1.83-.51-2.76-.53-3.07-.19-4.11.22-.71.32-.9.56-1.03.16-.09.46-.26.66-.38l.36-.21-.39-.17c-1.83-.77-6.05-1.99-8.8-2.54-7.68-1.55-17.38-.88-24.87 1.71l-.67.23.75 1.35c1.6 2.85 1.58 2.8 1.09 3.09l-.35.21.5.7c.28.38.78 1.14 1.11 1.67l.59.97-.66.67c-.57.57-.63.67-.49.79.08.07.7.71 1.36 1.42l1.22 1.29-.17 1.67c-.09.92-.36 3.88-.61 6.57-.45 4.85-.7 7.4-.81 8.03-.06.4-.17.42 1.44-.22Zm-1.46-2.01c.15-1.37.46-4.73.98-10.45.11-1.18.23-2.37.26-2.64l.06-.5-.39.35c-1.26 1.09-6.73 6.02-6.97 6.28l-.29.3.64.3c1.66.76 4.17 2 4.23 2.1.04.06-.51 1.09-1.22 2.28-.7 1.2-1.45 2.48-1.66 2.86l-.37.67 2.28-.02 2.28-.03zm12.04-.25h.85l-.06-.37c-.2-1.17-.86-4.37-.93-4.5-.1-.17-.14.01-.68 2.86-.39 2.12-.4 2.15-.18 2.07.09-.03.54-.06 1-.06Zm22.4-5.59-.68-.69.07-2.06.08-2.06.51-.55.51-.55.65-.01c.56-.02 1.39.21 1.68.47.11.08.82 3.91.82 4.38 0 .57-1.44 1.56-2.26 1.56-.34 0-.64.05-.66.1-.02.06-.34-.21-.72-.59Zm1.74-.38c0-1.73-.23-3.63-.44-3.63-.73.01-.72-.04-.59 2.78l.06 1.42h.97zm1.14-.13.47-.35-.04-.6c-.03-.33-.17-1.25-.32-2.04l-.28-1.43-.49.49-.49.49.1.89c.05.5.13 1.41.17 2.03.06 1.05.08 1.12.24 1 .1-.07.38-.29.64-.48Zm-2.49-2.26c-.07-1.19-.07-1.22-.36-1.43l-.29-.22v.33c0 .18-.05.98-.11 1.77l-.1 1.44.43.44.43.44.03-.78c.02-.43.01-1.33-.03-1.99Zm-4.99.1-.36-.54.23-.82c.17-.63.28-.85.46-.94.14-.07.19-.14.12-.18-.24-.15-.08-.21.52-.21.89 0 1.07.15 1.51 1.24.44 1.11.44 1.03-.01 1.49-.37.38-.41.39-1.24.45l-.87.06zm1.65.16h.26l-.22-.82c-.22-.83-.22-.83-.57-.86-.4-.03-.48.17-.48 1.27v.54l.38-.07c.2-.03.49-.06.63-.06Zm-23.75-.64c-.08-.14-.34-.42-.56-.62-.22-.21-.4-.42-.4-.48 0-.2 1.32-1.78 1.41-1.69.13.13-.03 2.96-.17 3-.06.02-.19-.07-.28-.21Zm7.8-.03c-.09-.32-.11-2.61-.02-2.7.1-.1 1.36 1.26 1.36 1.47 0 .12-1.14 1.4-1.25 1.4-.02 0-.06-.08-.09-.17Zm1.04-1.24c0-.04-.21-.29-.46-.56l-.45-.48.05.4c.03.22.06.65.06.95v.54l.4-.39c.22-.21.4-.42.4-.46Zm-26.37.06c.27-.56.06-1.85-.29-1.85-1.35 0-2.27.75-1.92 1.57.25.58.35.63 1.23.63h.81zm3.87-.06c.23-.32.23-.57-.01-1.43l-.11-.38-.86.07c-1.02.08-1 .08-1.18.51-.19.46-.17.81.07 1.2l.21.34h.83c.82 0 .84-.01 1.05-.31Zm42.47-.31c.53-.52.53-.49.01-.75-.71-.34-1.48-.22-1.94.3l-.37.4.33.3c.51.45 1.36.35 1.97-.25ZM4 26.17c.25-.24.53-.55.63-.7s.26-.27.37-.27c.29 0 .31-.14.07-.61l-.22-.44-.73-.03-.73-.03-.9.57c-1.01.64-1.03.69-.3.53.69-.15.77-.1.96.58.23.82.23.83.32.83.05 0 .29-.19.53-.43Zm4.19-.22c.47-.35.89-.66.94-.68.11-.03-.28-.98-.46-1.09-.07-.04-.49-.08-.93-.08-.82 0-1.35.25-2.18 1.01-.05.05.2.06.57.02l.67-.06.15.36c.08.19.17.53.21.76.08.52.03.53 1.03-.24Zm37.46-.22c-.04-.1-.19-.64-.33-1.2l-.27-1.02-.45-.11c-.25-.07-.51-.14-.57-.16-.1-.02-.13.27-.13 1.26v1.29l.53.04c1.27.09 1.3.08 1.22-.1Zm1.09-.45c.53-.4.67-.56.63-.72-.03-.12-.19-.75-.36-1.41-.16-.66-.6-2.55-.96-4.19-.35-1.65-.66-3.01-.68-3.03-.07-.06-2.91-.82-2.95-.78-.04.03.43 2.87.72 4.33.19.97.1.96-1.2-.25-1.29-1.21-1.18-1.19-1.38-.24l-.17.79 1.58 2.02 1.58 2.02.03-.44c.04-.47.27-.78.91-1.22.39-.27 1.56-.16 1.89.18.11.11-.72.98-1.05 1.11-.06.03.61 2.35.67 2.35.04 0 .38-.23.74-.52Zm-3.8-.48c.36-.16.66-.32.66-.36 0-.13-3.12-4.18-3.31-4.3-.08-.05-.58.43-.59.57 0 .03.35.66.78 1.4s.98 1.71 1.23 2.16c.24.46.47.83.51.83.03 0 .36-.13.72-.3Zm-1.46-.37c-.66-1.22-1.91-3.39-2-3.5-.1-.12-.78-.19-.78-.08 0 .38 2 3.49 2.44 3.79.69.47.71.45.34-.21Zm7.22-.44c.95-.54.95-.54.81-.93-.06-.13-.6-2.06-1.21-4.28-.62-2.22-1.13-4.05-1.16-4.07-.06-.07-1.44 1.11-1.44 1.23 0 .39 1.71 7.89 1.9 8.34.12.28.06.3 1.1-.29Zm-3.09-1.1c.5-.4.49-.43-.13-.56-.51-.11-.55-.1-1 .2-.58.39-.59.42-.05.54.66.16.77.15 1.18-.18Zm3.59-4.14c-.45-1.49-1.01-3.33-1.23-4.09l-.42-1.4-.09.58c-.06.43-.05.71.07 1.14 1.08 3.95 1.63 5.95 1.9 6.86l.31 1.1.14-.75.14-.75zm-38.83 2.59c-.04-.03-1.61.16-1.65.21-.02.02.11.25.29.51l.34.46.52-.58c.29-.32.51-.59.5-.6Zm35.93-6.38.76-.63.12-.83c.06-.46.1-.86.07-.88-.02-.02-.07.19-.11.47-.08.59-.12.65-1.06 1.45l-.67.57-1.5-.34c-1.41-.32-1.51-.33-1.51-.16 0 .19.21.27 2 .75 1.15.3 1.05.32 1.9-.4Zm-.23-.76c.61-.52.71-.65.77-1.02.04-.24.09-.52.12-.64.05-.18-.05-.25-.7-.52-.99-.42-.96-.42-2.27.31l-1.13.64-.19.57c-.1.31-.17.59-.15.61.04.04 2.5.61 2.74.64.05 0 .42-.26.81-.59ZM7.86 10.69c.54-.22 1.05-.43 1.11-.46.07-.03.13-.09.13-.15 0-.2-3.75-5.48-3.89-5.48-.04 0-.66 1.1-1.38 2.45L2.52 9.49l.47.58.46.57 1.35.22c1.88.3 1.93.3 3.06-.17ZM46.4 9c-.55-.55.14-1.39.78-.94.46.32.17 1.14-.4 1.14-.1 0-.27-.09-.38-.2Zm-9.38-1.62c-.3-.3.01-.88.46-.88.32 0 .58.44.44.75-.13.28-.68.35-.9.13ZM27 5.3c-.38-.38-.1-1 .45-1 .29 0 .65.32.65.58 0 .55-.7.82-1.1.42Zm16.6-1.19c-.12-.21-.36-.45-.53-.52-.43-.2-.44-.35-.03-.59.19-.12.44-.37.55-.56.26-.44.47-.43.68.02.11.23.3.41.51.5.41.17.4.4-.03.64-.16.09-.35.26-.4.37-.32.62-.47.65-.75.14Zm.94-.7.29-.14-.27-.11c-.16-.06-.36-.27-.46-.46l-.17-.34-.17.33c-.09.17-.28.37-.41.43-.31.14-.31.22 0 .36.13.06.31.25.4.43l.17.31.16-.33c.09-.19.3-.4.46-.48ZM8.86 3.17a.81.81 0 0 0-.45-.46c-.4-.17-.41-.46-.01-.59.19-.07.36-.24.47-.46.22-.46.48-.47.67-.02.08.19.27.4.42.48.41.19.43.46.04.6-.22.07-.37.22-.46.44-.19.45-.49.45-.68.01Zm.89-.63.26-.06-.29-.19c-.17-.09-.33-.27-.37-.38-.09-.28-.17-.26-.37.09-.09.17-.24.3-.33.3-.22 0-.19.18.05.25.11.04.27.2.36.37l.16.32.14-.32c.08-.2.22-.34.39-.38ZM14.63.03c6.09-.02 16.05-.02 22.15 0 6.09.01 1.1.02-11.08.02S8.53.04 14.63.03Z"/></svg>