<svg xmlns="http://www.w3.org/2000/svg" width="51" height="51" viewBox="0 0 51 51"><path fill="#fff" fill-rule="evenodd" stroke="#fff" stroke-width=".334" d="M14.1 51.09c0-.34.53-.98.83-1.01l.31-.03-1.14-1.18c-1.4-1.44-1.36-1.42-1.94-1.17-.29.13-.55.18-.71.14-.19-.05-.32-.01-.49.15l-.22.21.46.51c.54.57 1.1 1.59 1.1 1.98-.01.2-.11.07-.42-.54-.28-.53-.64-1.01-1.05-1.42-.35-.35-.57-.63-.5-.63s.26-.14.43-.31c.24-.26.34-.3.63-.25.21.03.47-.01.7-.11.2-.1.47-.19.61-.23.16-.03.27-.15.33-.35.05-.17.13-.44.19-.6.48-1.42-.01-2.6-1.24-2.97-.55-.16-.88-.43-1.12-.9-.18-.35-.89-.78-1.28-.78-.08 0-.24-.13-.36-.3-.29-.39-.8-.41-1.31-.06-.7.47-.78.44-.73-.22.1-1.4-.78-2.41-2.2-2.51-.05-.01-.08-.07-.08-.14 0-.61-2.83-.81-3.47-.26-.18.16-.51.33-.73.39-.21.06-.46.21-.55.33-.16.22-.16.22-.13-.08.03-.26.09-.32.51-.46.26-.09.63-.31.82-.49l.35-.34.56.12c.36.07.63.08.8.02.14-.06.42-.1.63-.1.56 0 .72-.65.26-1.02-.16-.13-.33-.46-.5-1.01-.14-.45-.35-1.05-.46-1.34-.12-.29-.19-.58-.17-.65.07-.19.34.38.74 1.55.24.7.45 1.11.65 1.3.16.15.29.31.29.35-.01.04-.05.26-.09.5-.08.39-.07.43.15.48.13.04.35.19.48.35.18.21.34.29.56.29.17 0 .4.05.51.1.27.15.25.12-.32-.92-4.17-7.49-4.18-16.03-.04-22.23.73-1.09.82-1.12-1.12.32-.61.46-1.14.83-1.18.83-.2 0 .53-.66 1.98-1.8 3.74-2.93 3.89-4.02 1.07-8.25-.36-.55-.76-1.18-.89-1.4l-.23-.4.27.3c.15.17.46.5.69.75s.75.9 1.15 1.43c1.48 1.98 2.15 2.42 3.59 2.35 1.61-.08 2.55-.7 4.4-2.9.98-1.16 2.77-3.06 2.21-2.33-.29.38-2.12 2.6-2.32 2.82-.11.13-.17.23-.12.23s1.4-1.3 3-2.9c1.61-1.59 2.96-2.9 3-2.9.18 0-5.32 5.67-6.2 6.38l-.5.41.94-.35c3.52-1.32 7.95-1.69 11.85-.98 1.57.28 1.66.28 1.66.1 0-.09.1-.21.23-.27s.27-.2.32-.32c.06-.13.23-.24.43-.28.72-.15.79-.12-3.27-1.1-3.1-.75-3.34-.91-1.86-1.24l1.8-.42c1.74-.4 3.62-.35 4.59.14.32.16.34.22-.26-.71-.47-.73-.53-1.31-.13-1.24.13.03.26 0 .28-.05.02-.06.11-.08.21-.04.13.05.15.11.07.26-.13.23.15.36.96.46.68.07 1.29.34 1.72.74.28.26.41.31.83.31.58 0 1.81.39 2.54.81l.51.29.07-1.13c.09-1.38.18-1.84.45-2.11.12-.12.33-.36.47-.53.43-.54 1.05-.31 1.2.44.06.29.09.31.63.36.67.06 1.19.3 1.81.85.25.21.61.43.8.47.65.13.8.3.8.85 0 .73.14.91.56.74 1.01-.42 1.48.21 1.85 2.51.1.61.19.88.41 1.12.39.47.65 1.76.44 2.23-.05.13.04.14.6.12.39-.02.71.01.77.07s.19.11.28.11c.1 0 .24.06.31.14.08.07.24.16.36.2.25.08 1.04.95.97 1.07-.03.04 0 .28.06.53.1.39.08.5-.07.83-.24.48-.42.48-1.49-.01-.75-.33-.81-.35-.93-.18-.07.09-.16.17-.2.17-.23.01-.45.24-.36.37.32.41.5 3.26.2 3.15-.09-.04-.16.04-.19.21-.14.71-1.31 1.54-1.57 1.13-.03-.07-.14-.09-.24-.05-.12.05-.19 0-.23-.16-.04-.15-.08-.18-.14-.09-.05.09-.13-.01-.24-.29-.1-.23-.21-.4-.25-.37s-.18-.12-.3-.32l-.21-.36-.26.25-.25.25.47.64c1.63 2.21 3.01 5.41 3.6 8.3 2.17 10.8-5 20.68-16.85 23.2-5.17 1.11-12.19-.23-17.03-3.24-.26-.16-.49-.28-.5-.26-.06.08-.37.93-.34.94.01.01.26.05.56.09l.53.07-.22-.31c-.26-.37-.16-.39.22-.03.46.44.38.53-.44.53-.72 0-.73.01-.88.33l-.15.32 1.02 1.01c.57.55 1.09 1.15 1.16 1.34.08.19.17.28.21.22s-.01-.23-.1-.37c-.21-.32.03-.36.32-.04.28.31.02.71-.5.8-.4.07-.8.43-.71.67.02.07-.04.12-.15.12s-.2-.05-.2-.11Zm-10-.26c-.19-.24-.21-.36-.16-.81.09-.77-.03-.94-.65-.91-.67.04-.66.06-.72-1.79-.07-2.24.14-2.22.27.02l.09 1.57.41-.06c.69-.11.92.15.89 1.02-.03.7.21 1.24.47 1.08.05-.03.1-.01.1.04 0 .22-.49.11-.7-.16Zm13.44.1c-.03-.1-.1-.28-.16-.4-.06-.11-.07-.26-.04-.32.09-.14-.2-.68-.44-.84-.23-.14-.26-.27-.07-.27.34 0 .81.73.91 1.42.07.47-.08.78-.2.41Zm2.46-1.5c-.08-.03-.33-.22-.55-.43-.32-.3-.5-.39-.9-.43s-.55-.11-.79-.38c-.35-.39-.19-.52.18-.15.2.21.35.26.75.26.46 0 .52.03.82.4.4.5.61.56 1.3.36.56-.16 1.19-.11 1.26.11.03.07-.11.09-.41.06-.27-.03-.63.01-.92.11-.51.17-.51.17-.74.09Zm10.05-.48c7.22-1.09 13.75-5.65 16.46-11.5 2.89-6.27 2.06-14.02-2.13-19.7l-.44-.59-.89-.03c-.5-.01-1.11-.02-1.36-.02-.8 0-1.45-.42-2.01-1.3-.27-.43-.28-.44-.28-.17 0 .2.11.38.36.62l.37.33-.42-.02c-.57-.02-1.05-.53-1.15-1.21l-.07-.47-.32.21c-.75.49-1.41.73-2.06.74l-.64.01-.53-.6c-2.1-2.33-2.91-4.21-2.39-5.47.13-.33-.16-.19-1.37.62-1.1.74-1.37.85-2.11.92l-.27.03.27.4c.65.95.87 1.78.89 3.23l.01 1.33 1.61.9 1.61.9.43-.27c4.23-2.67 10.44.05 11.74 5.15 1.07 4.23-3.27 8.36-7.56 7.19l-.56-.15-.63 1.23-.64 1.23.52.57c3.56 3.9 3.15 9.39-.93 12.16-5.45 3.71-13.24-.85-12.83-7.5.32-5.17 4.85-8.41 9.84-7.06.2.05.28-.06.82-1.13l.6-1.2-.6-.59c-1.48-1.46-2.04-2.84-2.04-5.05v-1.56l-1.6-.9-1.59-.91-.43.29c-1.95 1.35-4.58 1.68-6.9.87l-1.02-.35-.76 1.11-.76 1.12.94.95c5.53 5.55-.21 14.53-8.06 12.61-8.07-1.98-8.38-12.69-.42-14.84.65-.17 1.1-.22 2.44-.23l1.63-.01.85-1.19c.46-.66.91-1.3 1-1.43.15-.22.14-.27-.2-.95-1.59-3.22-.7-6.88 2.02-8.31 2.22-1.16 5.68-.99 8.08.4.5.29.63.3.63.05 0-.1.07-.24.15-.31a.5.5 0 0 0 .15-.34c0-.12.12-.39.26-.59.14-.21.24-.4.22-.42-.21-.18-3.46-.55-5.02-.56-1.36-.02-.98-.16.47-.18 1.08-.01 3.4.22 4.29.43.52.12.95.07.7-.08-.38-.23-3.5-.56-5.36-.56-3.35 0-5.76.54-9.41 2.11-2.68 1.15-3.91 1.07-5.26-.33l-.5-.52.25.45c.92 1.67.69 3.34-.66 4.73-.32.33-.58.66-.58.73s-.33.61-.74 1.2c-4.39 6.42-4.34 14.57.15 22.69.53.96.63 1.02 1.19.81.08-.04.29-.06.45-.06h.6c.16 0 .32.03.35.08.03.04.35.08.72.08.38.01 1.01.01 1.41.02l.72.01.02 1.5c.03 1.73 0 1.64.78 2.26 3.17 2.48 7.09 4.15 12 5.09 1.33.26 1.11.33-.31.1-4.35-.7-8.33-2.37-11.7-4.91-.84-.63-.79-.62-.82-.25-.02.25.03.3.43.45.24.1.74.44 1.09.76 3.73 3.38 12.33 5.48 18.24 4.46.4-.07.69-.09.64-.04-.42.42-5.28.69-7.27.4-3.65-.53-7.56-1.89-10.42-3.63-.38-.23-.71-.43-.74-.45-.03-.01-.03.1-.01.26.11.76 4.39 2.75 7.58 3.54 3.42.83 6.05 1.02 8.79.61ZM3.3 48.24c0-.41.05-.51.5-.98.33-.35.48-.59.44-.69-.03-.1.04-.25.19-.39.13-.13.27-.33.31-.45.04-.13.13-.24.19-.25.07 0 .17-.02.23-.02.06-.01.18-.06.25-.13.22-.18.69-.27.69-.13 0 .07.08.09.21.05.37-.12.92.04.86.25-.03.12.02.2.15.23.24.07.07.42-.47 1-.16.18-.28.36-.27.42.05.29-1.04.7-1.34.5-.35-.23-.88-.01-1.31.57-.47.61-.63.62-.63.02Zm11.9-.34c-.08-.05-.37-.1-.64-.1-.9 0-.36-.15.62-.17.54-.01 1.15-.04 1.36-.05.27-.02.41.01.44.11s0 .12-.11.08c-.08-.03-.39.01-.69.09-.63.16-.78.17-.98.04Zm15.95-.35c.19-.09 3.28-.76 3.32-.72.07.07-2.29.66-2.87.72-.3.03-.51.03-.45 0ZM5.73 47.2c-.04-.16 0-.2.18-.2.23-.01.23-.01-.04-.16-.36-.19-.26-.34.23-.34.31 0 .38-.03.34-.15-.05-.11.01-.15.22-.16l.29-.01-.27-.11c-.32-.12-.34-.19-.12-.41.24-.24.01-.19-.4.09-.44.3-.46.3-.46.08-.01-.14-.06-.12-.24.11l-.24.29-.07-.23c-.06-.18-.09-.2-.16-.09-.15.24-.1.58.13.79.17.15.19.23.1.32s-.07.14.06.24c.27.21.51.18.45-.06Zm35.31-.25c-.09-.22.04-.62.22-.69.13-.05.15-.01.09.27l-.06.32.28-.3c.15-.17.35-.41.44-.55.23-.34.33-.2.16.22-.26.61-1 1.09-1.13.73ZM33 46c1.81-.28 3.9-1.92 4.83-3.8 1.51-3.05.93-6.3-1.64-9.04l-.59-.64.36-.63c.2-.35.58-1.08.85-1.61.27-.54.53-.98.59-.98.05 0 .35.07.67.15 3.71.97 7.65-2.08 7.17-5.55-.72-5.27-6.63-8.39-11.23-5.94l-.86.46-1.75-.99-1.74-.99.02-1.19c.04-1.42-.15-2.18-.8-3.28-.39-.67-.52-.78-1.14-.91l-.31-.07.36.72c1.78 3.59-3.05 7.6-6.82 5.67-3.11-1.58-3.2-6.59-.14-8.08 1.58-.76 3.81-.56 5.39.5.4.27.58.34.62.25.15-.41-2.22-1.34-3.95-1.55-5.44-.64-8.74 4.12-5.78 8.35.22.31.39.61.37.65-.02.05-.59.88-1.28 1.87l-1.24 1.78-1.71.01c-3.47 0-6.06 1.43-7.34 4.04-3.05 6.23 4.6 12.63 11.24 9.4 4.69-2.28 5.38-8.21 1.35-11.62-.33-.29-.57-.56-.53-.62s.44-.67.9-1.34c.46-.68.83-1.3.83-1.37 0-.34.29-.38.88-.12 2.44 1.09 5.61.74 7.42-.8l.4-.35 1.75.97c2.07 1.15 1.87.92 1.63 1.9l-.21.8.22 1c.35 1.58.93 2.68 2.02 3.8.53.55.85.95.79 1.01-.04.05-.45.8-.9 1.67-.66 1.26-.86 1.57-.99 1.52-3.03-1.18-7.22.32-8.69 3.12C21.05 39.82 26.5 47 33 46Zm-3.8-.03c0-.02-.32-.16-.72-.32-1.59-.62-3.47-2.23-4.32-3.69-.43-.73-.6-.83-.25-.14.92 1.81 2.6 3.26 4.64 3.99.52.18.65.21.65.16Zm13.16-1.65c-.06-.1 1.11-1.62 1.26-1.62.12 0-.07.32-.69 1.13-.46.6-.49.62-.57.49Zm4.81-.23c-.76-.18-2.14-1.09-1.65-1.09.09 0 .21.06.27.14.18.21 1.21.64 1.74.71l.47.07v-.31c0-.18-.07-.46-.16-.63-.21-.4-.03-.61.21-.24.26.4.31 1.03.1 1.26-.19.21-.38.23-.98.09Zm-.3-.88c-.49-.46-.85-1.01-.65-1 .16.01 1.33 1.39 1.18 1.39-.06 0-.29-.18-.53-.39Zm-5.28-.96c.47-.5 1.17-1.31 1.58-1.82.71-.9.93-1.12.93-.96 0 .3-1.92 2.5-2.84 3.26-.41.34-.35.25.33-.48Zm-12.62.18c-1.7-6.55-2.04-8.25-1.68-8.47.16-.1 1.93-.44 2.97-.57 3.28-.41 5.83 1.6 5.87 4.62.03 2.18-1.52 3.58-5.03 4.54-2.08.57-1.94.57-2.13-.12Zm2.13-.19c1.39-.39 1.92-.56 1.87-.6-.04-.04-.91.17-2.72.67-.88.24-.81.25-.88-.15-.1-.61-1.61-6.1-1.65-5.98-.02.06.33 1.53.77 3.26.45 1.74.81 3.18.81 3.2 0 .05.99-.17 1.8-.4Zm-19.67-.45c-.1-.12-.1-.18 0-.28.09-.09.09-.14-.03-.21-.11-.07-.12-.13-.01-.36.1-.22.1-.29-.01-.36-.1-.08-.1-.11 0-.15.14-.06.17-.43.02-.43-.06 0-.06-.09 0-.26.23-.6-.06-.85-.6-.52-.15.1-.24.1-.38.01-.11-.06-.24-.08-.33-.03-.08.05-.19.04-.26-.02-.09-.07-.17-.07-.29.03-.13.1-.17.1-.24-.02-.08-.12-.13-.12-.31-.01s-.23.11-.3.01c-.09-.16-1.09-.21-1.26-.07-.07.05-.21.07-.33.03-.26-.08-.26-.09.1.67.17.35.3.8.3 1v.37l.36-.24c.53-.36 1.08-.34 1.45.06.15.17.43.35.61.4.52.14.97.46 1.2.85l.21.36.12-.33c.09-.27.09-.37-.02-.5Zm20.4-.2c2.24-.58 2.61-.74 3.17-1.35 2.05-2.22.36-5.97-2.95-6.55-.89-.15-4.18.21-4.47.49-.04.04.2 1.01.53 2.16s.8 2.89 1.05 3.85c.26.97.48 1.79.51 1.84.07.11.11.1 2.16-.44Zm17.09-1.45c-1.12-.94-1.44-2.42-.83-3.83.33-.75.38-1.1.19-1.41-.17-.26 0-.4.18-.15.24.33.27.63.11 1.08-.09.23-.25.69-.37 1.02-.38 1.04-.09 2.13.81 3.01.72.71.66.91-.09.28Zm-18.02.12c0-.02-.36-1.24-.8-2.71-.44-1.48-.78-2.7-.76-2.73.35-.34 2.6-.29 3.34.08 1.99 1 2.39 3.59.72 4.71-.54.37-2.5.88-2.5.65Zm1.64-.57c.75-.25.86-.35.93-.87.2-1.5-1.72-3.16-3.22-2.78-.32.08-.34-.07.37 2.29l.52 1.69.39-.06c.22-.04.67-.16 1.01-.27Zm12.02-.14c.03-.08.3-.58.6-1.12 2.39-4.31 3.02-9.64 1.64-13.68-.06-.16-.06-.25-.02-.2.27.29.83 2.58 1.02 4.11.32 2.62-1.03 7.69-2.74 10.33-.43.67-.62.89-.5.56Zm-22.27-.22c0-.05-.02-.3-.03-.58-.01-.39-.1-.64-.41-1.14l-.4-.64v-1.35c0-.91.04-1.36.11-1.39.08-.03.1.17.07.64-.08 1.13.1 2.15.46 2.65.38.53.49.9.43 1.46-.03.35-.2.6-.23.35Zm11.86-1.4c.29-1.81-1.46-3.27-3.63-3.03-.86.09-.88.1-.76.51l.09.31.8.03c1.59.05 2.77 1.01 3.06 2.48.14.67.31.56.44-.3Zm-21-2.14c-2.46-.22-4.34-1.07-6.09-2.77-.5-.48-.55-.5-.29-.17 1.47 1.9 3.95 3.03 6.68 3.02.64 0 .62 0-.3-.08Zm-2.1-3.57c-.43-.7-1.51-2.37-2.39-3.72l-1.61-2.45-.03-.66c-.05-.77-.07-.76 1.23-.86l.8-.06.82 1.14c.44.63 1.03 1.44 1.3 1.82l.5.67.06-1.44c.1-2.37.2-2.6 1.14-2.7l.61-.07.99 1.26.98 1.25.06-.68c.06-.72.42-1.94.63-2.11.07-.06.46-.12.86-.13l.74-.03.22 1.45c.29 1.92.64 5.05.64 5.68 0 .57-.26.8-1.63 1.42-.9.41-.8.47-1.87-1.18l-.95-1.46-.05 1.45-.05 1.44-.4.37c-.22.21-.62.46-.9.57-.96.36-.82.43-1.7-.97Zm1.05.71c0-.42-4.68-7.54-4.77-7.26-.06.18.15.53 1.7 2.89.79 1.21 1.76 2.72 2.16 3.37.71 1.13.91 1.36.91 1Zm1.2-.62.45-.17-.01-2.67c-.01-1.56.02-2.67.08-2.67.05 0 .83 1.01 1.75 2.24l1.66 2.24.59-.2.59-.2-.05-.37c-.03-.2-.08-.65-.11-1.01-.09-.94-.54-4.44-.66-5.17-.12-.69-.18-.73-.98-.57-.31.06-.32.09-.27.43.08.47.36 3.54.36 3.86 0 .43-.14.29-1.48-1.47-1.95-2.58-1.77-2.41-2.38-2.33l-.51.07-.01 2.4c0 1.31-.03 2.42-.07 2.46-.08.08-.09.06-1.87-2.4L8.95 24.8H8.5c-1.34 0-1.36.05-.57 1.12.71.96 3.41 5.02 3.96 5.95.48.81.43.79 1.41.44Zm3.48-.69.23-.18-1.14-1.56c-.63-.85-1.31-1.76-1.51-2.02l-.36-.48v.57c0 .67.06.79 1.28 2.62 1.01 1.52.96 1.48 1.5 1.05ZM3.7 30.58c-.93-4.33-.5-8.93 1.16-12.36.58-1.21.64-1.13.15.19-1.16 3.09-1.76 8.96-1.22 11.87.15.85.09 1.09-.09.3Zm36.95-.66c.16-.05-.25-.06-.91-.04-.89.03-1.35 0-1.73-.11-.28-.08-.53-.11-.56-.06-.06.08.41.23 1 .32.38.06 1.82-.01 2.2-.11Zm6.33-.02c-.04-.14-.08-.43-.08-.65 0-.35-.18-1.33-.35-1.99-.05-.17-.03-.16.09.05.21.37.48 1.78.44 2.35-.02.4-.04.44-.1.24Zm-12.72-2.01c.03-.06-.24-.42-.64-.83-.79-.8-1.32-1.58-1.68-2.49-.22-.56-.24-.58-.19-.22.19 1.25 2.18 4.07 2.51 3.54Zm2.59-.21c-1-2.67-2.21-8.56-1.84-8.92.11-.11 3.01-.56 3.58-.56 2.09 0 3.55 1.93 2.61 3.44-.19.32-.21.41-.09.45.38.12 2.89 2.86 2.89 3.15 0 .21-2.31 1.26-2.75 1.26-.07 0-.28-.24-.47-.52-.68-1.03-1.92-2.17-2.13-1.96-.02.02.09.48.24 1.03.45 1.59.45 1.56.05 1.89-.55.45-2.01.97-2.09.74Zm-20.55-.99c-.05-.46-.1-1.05-.1-1.31 0-.89-.32-.37-.45.74-.07.53-.05.6.26 1.02.41.58.42.56.29-.45Zm20.89.29c-.06-.22-.39-1.43-.76-2.67-.36-1.24-.75-2.59-.86-3-.12-.41-.23-.69-.25-.63-.02.07.31 1.41.74 2.99.42 1.59.82 3.07.87 3.31.06.23.16.42.23.42.09 0 .1-.1.03-.42Zm1.04-.25c.34-.09.65-.19.7-.23.04-.03-.13-.78-.38-1.66-.56-2-.56-1.91.03-2 1.29-.2 1.36-.15 3.41 2.45l.27.35.65-.24c.35-.13.66-.25.68-.26.13-.11-2.01-2.38-2.74-2.9l-.3-.22.22-.23c.82-.9.43-2.35-.82-3.02-.52-.28-2.33-.28-3.7 0l-.9.19.02.33c.02.43 2.05 7.6 2.16 7.61.04 0 .35-.08.7-.17Zm3.73-.84c.12-.2-1.76-2.48-2.28-2.75-.28-.14-1.13-.1-1.24.07-.09.15.06.49.22.49.49 0 1.35.74 2.22 1.92.42.57.83.67 1.08.27Zm-39.79-4.3c.17-1.49 1.18-4.19 1.56-4.19.05 0 .07.03.05.08-.66 1.29-1.13 2.57-1.38 3.77-.16.73-.3.94-.23.34Zm35.14-.66c-.47-1.54-.49-1.5.77-1.52 1.33-.02 2.22 1.06 1.54 1.89-.15.19-1.4.58-1.89.6-.07 0-.25-.43-.42-.97Zm1.37.29c-.28-.33-1.08-.54-1.08-.27 0 .48.2.62.71.52.42-.08.47-.12.37-.25Zm.82-.52c0-.71-.32-.94-1.34-.99-.78-.03-.86-.01-.86.15 0 .45.12.64.39.64.34.01 1.01.32 1.25.58.28.32.56.13.56-.38Zm-7.85.03c.04-.11.01-.21-.07-.26-1.06-.63-3.06-1.67-3.17-1.65-.34.07-.07.28 1.44 1.15 1.8 1.03 1.71.99 1.8.76Zm-6.8-.23c.17-.04-.13-.05-.65-.03-1.13.06-2.38-.14-3.47-.57-.52-.2-.73-.24-.73-.15 0 .53 3.56 1.08 4.85.75Zm-10.74-2.68c-.33-1.62-1.73-3.66-2.95-4.3-.56-.29-1.61-.36-2.6-.18-.82.15-.52-.16.32-.33l.72-.15v-.87c0-.48.03-.9.08-.92.04-.03.05.26.04.65-.05 1.05-.01 1.14.55 1.23.6.09 1.38.47 1.81.88l.33.32-.32-.68c-.54-1.15-.5-2.45.08-2.98l.26-.24-.22.38c-.57.95-.37 1.99.78 4.01 1.09 1.91 1.4 2.71 1.41 3.54 0 .43-.18.21-.29-.36Zm-1.03.28c-.04-.08-.12-.37-.18-.65-.2-.79-.66-1.68-1.16-2.24-.6-.67-.5-.78.14-.14.55.55.94 1.29 1.17 2.21.15.58.17 1.2.03.82Zm34-.58c.03-.09.14-.24.23-.33.1-.1.21-.41.25-.68.04-.28.1-.48.15-.45.12.07.11-.43-.01-.86-.08-.25-.07-.41.02-.58.1-.19.08-.26-.1-.45-.15-.16-.19-.26-.12-.33s.02-.19-.15-.38c-.26-.29-.25-.46.03-.46.11 0 .07-.09-.17-.34-.2-.21-.29-.36-.22-.4.33-.21-.18-.66-.75-.66h-.56l.35.4c.44.52.62 1.15.52 1.78-.05.26-.07.67-.06.92.03.89-.15 1.07-1.14 1.12-.58.03-.68.2-.34.59.11.13.32.38.45.54.13.17.24.24.24.17 0-.06.05-.12.1-.12.06 0 .1.12.1.26 0 .2.04.24.19.19.14-.04.21 0 .25.13.08.23.64.18.74-.06Zm-22.81-.05c.3-.11.28-.12-.4-.13-1.8-.02-3.7-1.09-4.55-2.53-.34-.59-.4-.36-.09.33.83 1.81 3.31 2.96 5.04 2.33Zm1.2-.68c1.97-.74 2.95-3.13 2.06-5.01-1.47-3.12-6.34-3.63-8.1-.85-1.97 3.12 2.29 7.26 6.04 5.86Zm18.26-.05c.38-.19.63-.47.83-.91.14-.32.16-.33.78-.33.76 0 .88-.1.85-.77 0-.26.02-.71.06-.99.09-.62-.06-1.13-.46-1.59-.49-.55-2.26-1.65-3.06-1.89-.32-.1-.3.11.02.26.28.13.35.34.08.23-.4-.16-.53-.17-.53-.03 0 .08.12.19.28.25l.27.11-.25.01c-.15.01-.31-.04-.37-.1-.07-.07-.15-.05-.27.06-.09.09-.23.14-.31.12-.08-.04.07.36.36.95.27.56.49 1.07.49 1.15 0 .29-.17.1-.49-.54-.64-1.33-.83-1.6-.92-1.35-.1.28-.39.29-.39.02 0-.26-.16-.26-.23.01-.03.12-.1.18-.17.14-.06-.04-.09-.13-.06-.21s-.01-.14-.08-.14c-.09 0-.17.25-.25.74-.07.4-.21 1.02-.31 1.37-.35 1.15-.25 1.63.57 2.66.51.64.89.83 1.61.81.34-.01.65.01.69.05.12.13.94.07 1.26-.09Zm-6.26-1.59c1.08-.54 1.56-1.06 1.88-2.06.33-1.05.43-1.89.23-1.89-.19 0-.7-.79-.63-.98.04-.12.03-.13-.1-.02-.09.08-.13.21-.09.36s.02.24-.05.24c-.06 0-.11-.09-.11-.2 0-.13-.05-.18-.15-.14-.2.08-.19-.05.02-.28.15-.17.15-.18-.06-.18-.14 0-.25-.07-.28-.19-.03-.13-.15-.21-.36-.23-.4-.04-.49-.28-.1-.28h.28l-.26-.13c-.83-.44-4.1.03-4.75.68-.69.69-.01 2.84 1.08 3.38.46.23.76.11 1.63-.61.83-.7.82-.56-.02.31-1.01 1.04-1.08 1.65-.27 2.36.49.43 1.02.4 2.11-.14Zm-14.81.1c-1.54-.63-2.45-2.44-1.87-3.7 1.01-2.17 4.87-1.6 5.57.82.62 2.15-1.49 3.79-3.7 2.88Zm2.34-.24c1.07-.5.24-2.54-1.25-3.1-1.27-.48-2.85-.03-2.85.8 0 1.63 2.52 3.05 4.1 2.3Zm1.17-1.73c.31-2.2-3.13-3.74-4.74-2.13-.49.48-.58.8-.13.42 1.63-1.38 4.47-.01 4.51 2.18l.01.6.15-.35c.08-.19.18-.52.2-.72Zm24.34-.19c.12-.23.05-.8-.14-1.14-.06-.11-.1-.25-.09-.31.08-.41-1.53-1.17-2.39-1.12-.51.03-.54.05-.57.31-.03.25-.02.26.23.17.31-.12.99-.13 1.35-.02.19.05.07.08-.45.12l-.7.06.4.17c1.27.56 2.28 1.17 2.15 1.3-.03.03-.57-.2-1.2-.51-1.78-.88-1.9-.93-1.97-.75-.03.08.07.28.23.45.2.21.23.29.12.25-.24-.09-.23-.02.09.41.4.55.43.58.43.4 0-.09-.07-.23-.15-.32-.25-.24.05-.41.31-.17.05.05.32.16.59.25.28.09.7.28.95.41.56.3.66.3.81.04Zm-3.64-1.92c.52-.33.34-3-.23-3.26-.2-.09-.24-.18-.24-.55 0-.55-.44-2.28-.68-2.7-.23-.38-.65-.39-.97-.02-.2.23-.61.5-.8.52-.42.04-.81.38-1.49 1.27-.39.53-.44.67-.21.67.08 0 .21.13.29.28.08.16.22.34.3.41.22.19.2.48-.04.56-.29.09-.25.22.2.51.45.3.51.39.19.29-.2-.07-.2-.05.06.29.3.39.24.48-.11.15-.18-.17-.22-.18-.27-.05-.07.18.25.43 1.55 1.23l.96.59.69-.06c.38-.04.74-.1.8-.13Zm-17.71-.44c.91-.31 1.97-1.11 2.85-2.16 1.05-1.26.13-.95-2.82.96-.31.19-.86.5-1.23.69-.79.39-.8.43-.18.56.69.14.83.14 1.38-.05Zm1.67-.47c.52-.35 1.12-.73 1.34-.84.42-.22.74-.52.54-.52-.06 0-.11-.1-.11-.23 0-.18-.16-.06-.92.69-.51.5-1.18 1.05-1.48 1.22-.3.18-.5.32-.43.32s.55-.29 1.06-.64Zm10.13.29c-.18-.42-.05-.46.3-.07l.25.27-.05-.27c-.05-.21-.03-.28.09-.28.09 0 .15.09.15.25 0 .26.06.3.29.16.1-.06.11-.13.02-.29-.09-.17-.08-.22.1-.27.17-.06.2-.13.15-.36-.05-.24-.02-.29.14-.29.13 0 .2-.07.2-.18 0-.26-.11-.34-.26-.21-.07.06-.18.08-.24.04-.18-.11-.1-.25.15-.25.23 0 .24-.02.15-.21-.09-.16-.08-.24.04-.38.18-.19.12-.33-.1-.24-.09.03-.14-.02-.14-.16 0-.12-.06-.21-.13-.21s-.23-.09-.36-.21c-.12-.12-.23-.19-.25-.18-.01.02-.07.15-.13.29l-.12.25-.07-.23-.07-.23-.15.22c-.18.26-.42.05-.42-.37 0-.23-.25-.4-.35-.23-.04.05-.06.19-.05.32.04.38.01.39-.31.12-.29-.24-.52-.3-.5-.12.01.04.01.14.01.22s.05.14.11.12c.06-.01.14.04.16.11.03.06-.03.12-.12.12-.11 0-.15.06-.1.19.12.39-.34.47-.48.08-.1-.27-.29-.16-.43.24-.23.64-.19.76.27.75.25-.01.44.04.46.12.03.08-.08.12-.35.12-.37 0-.61.18-.45.34.1.1.58.07.7-.05.22-.22.35.01.28.49-.06.4-.05.44.08.33.17-.13.32.01.24.22-.03.08.07.12.29.13.21 0 .34-.04.34-.12 0-.13.25-.26.34-.17.03.04.06.15.06.25 0 .11.07.18.2.18.19 0 .2-.02.06-.35ZM28.1 9.82c.47-.27 1.44-.85 2.17-1.29.72-.45 1.53-.89 1.8-.99.26-.1.59-.25.72-.33l.24-.15-.29-.08c-1.02-.28-3.23-.2-3.31.12-.03.1-.15.21-.27.24-.35.09-1.39 1.13-1.32 1.32.03.09-.03.27-.14.41-.12.15-.18.34-.15.44.04.11-.01.21-.13.28-.19.1-.37.51-.24.51.04 0 .45-.22.92-.48ZM13.2 10c.56-.43 2.41-1.23 3.8-1.64.83-.25.47-.04-.75.44-.61.23-1.57.64-2.14.91-1.13.53-1.29.58-.91.29Zm22.05-1.18.5-.07-.8-.19c-1.12-.26-1.53-.49-.71-.4.33.03.66.08.75.11s-.17-.27-.57-.67c-.73-.72-.73-.72-.95-.54-.48.42-.56.58-.57 1.11 0 .57-.08.51.9.66.39.06.91.06 1.45-.01Zm2.94-.59.18-.52-1.11-.97c-.61-.53-1.29-1.05-1.51-1.16-.49-.25-.48-.24-.4-.37.11-.19.96.34 1.99 1.24 1.4 1.23 1.56 1.32 1.58.89.01-.17-.61-1.81-.95-2.54-.24-.52-2.69-1.49-3.35-1.34-.62.15-1.02.95-.66 1.35l.19.22-.35-.06c-.19-.03-.5-.09-.69-.13-.41-.09-.4-.02.12.84.94 1.56 2.39 2.73 3.71 2.97 1.02.19 1.05.18 1.25-.42Zm3.86-1.71c.15-.24.57-.75.92-1.14 1.21-1.31 1.31-2.48.21-2.48-.11 0-.43-.21-.71-.46-.71-.64-1.02-.78-1.77-.8l-.65-.01-.07-.37c-.18-.86-.5-.99-.95-.38-.15.2-.34.42-.41.48-.08.06-.18.47-.24 1-.33 3 .51 5.09 1.63 4.04.24-.23.27-.34.33-1.24.05-.92.16-1.31.29-1.09.03.05.01.62-.05 1.27-.08 1.05-.08 1.2.06 1.28.09.05.16.15.16.23 0 .37.97.12 1.25-.33Zm-9.42.08c-.62-.25-2.4-.37-2.66-.17-.14.1-.02.11.7.09.49-.02 1.11.01 1.38.06.64.12.86.13.58.02Zm.77-.2c0-.1-.69-.6-.83-.6s-2.44-1.29-2.69-1.51l-.23-.2.25.07c.14.03.82.37 1.52.75 1.51.82 1.44.81 1.14.21-.83-1.61-2.77-2.15-5.61-1.56-1.01.21-.99.25.53.76 1.57.53 1.55.53 1.12-.02-.54-.68-.25-.58.48.17.88.9 1.3 1.14 2.82 1.58.69.2 1.27.39 1.29.41.08.08.21.04.21-.06Zm-4.25-1.19c-.11-.04-.58-.2-1.04-.35-.47-.15-1.25-.43-1.75-.63-.87-.34-.91-.35-1.45-.23l-.56.13 1.6.39c2.95.72 3.69.88 3.2.69Zm3.25-1.36c-.3-.3-.5-.55-.44-.55.13 0 .82.57 1.18.98l.3.34.19-.49c.1-.26.26-.56.34-.65.31-.35-.68-.96-1.69-1.06-.72-.06-.73.02-.04.32.58.26 1.39.93 1.3 1.07-.03.06-.21-.04-.4-.21a5 5 0 0 0-.76-.51c-.23-.12-.65-.44-.95-.72-.68-.64-.68-.42 0 .56.77 1.13 1.28 1.7 1.41 1.57.07-.07-.07-.27-.44-.65Z"/></svg>