<svg xmlns="http://www.w3.org/2000/svg" width="51" height="51" viewBox="0 0 51 51"><path fill="#fff" fill-rule="evenodd" stroke="#fff" stroke-width=".441" d="M6.64 51C3.06 50.06 0 46.65 0 43.59c0-.7.07-.59.26.42.6 3.22 3.01 5.8 6.24 6.68.73.21.96.21 11.02.21H27.8V46h-.22c-.13 0-.5.05-.83.1-.45.07-.74.06-1.2-.05-.33-.07-1.03-.19-1.56-.24-1.08-.12-1.59-.28-2.39-.73-.34-.19-.89-.38-1.43-.49-2.17-.44-3.47-1.6-3.91-3.49-.14-.59-.21-.7-.99-1.49-.46-.47-.93-.99-1.04-1.16-.18-.26-.33-.33-1.04-.48-3.2-.71-5.24-2.51-6.52-5.73l-.41-1.04H3.18c-2.4 0-3.08-.03-3.08-.12 0-.1 2.82-.12 13.82-.1l13.96.02c.09 0 .12 2.09.12 10.1v10.1l-10.32-.01c-9.72 0-10.37-.01-11.04-.19Zm22.03.13c-.04-.03-.07-4.58-.07-10.1V31l.23.01c.12 0 5.2-.02 11.29-.05 9.76-.05 11.08-.04 11.08.09s-.48.15-3.55.15c-1.95 0-3.55.02-3.55.04s.07.23.15.46c.21.59.19 1.1-.09 2.43-.39 1.84-.61 2.17-2.07 3.12-.68.44-1.09.79-1.37 1.17-.21.29-.49.62-.61.72-.2.19-.21.26-.15 1.15.16 2.41-1.16 4.28-3.55 5.01-.35.11-.95.41-1.33.66-1.77 1.18-3.69 1.33-5.57.44-.34-.17-.65-.3-.67-.3s-.04 1.08-.04 2.4v2.4h7.63c8.55 0 8.12.03 9.72-.74 2.5-1.22 4.28-3.44 4.76-5.96.15-.77.29-.99.29-.46 0 2.89-3.18 6.4-6.58 7.27-.76.19-15.77.31-15.95.12Zm4.56-4.58c.69-.18 1.39-.52 1.98-.98.25-.18.67-.39.94-.46 1.3-.33 2.59-1.32 3.18-2.44.31-.61.32-.64.33-1.99 0-1.33.01-1.39.25-1.65.14-.16.42-.5.62-.76.38-.51.92-.96 1.67-1.4 1.07-.62 1.36-1.12 1.75-2.99.26-1.27.24-1.92-.07-2.5-.08-.17-.55-.18-7.58-.18h-7.5l.02 7.27.03 7.26.6.33c1.13.62 2.57.81 3.78.49Zm-6.07-.77.64-.11V31.2H17.2c-7.22 0-10.6.03-10.6.1 0 .24.63 1.71 1.04 2.43 1.27 2.23 3.23 3.55 6.04 4.08.58.11.64.14.78.47.08.2.54.75 1.03 1.22.84.81.89.88 1 1.44.34 1.82 1.56 2.96 3.55 3.33.53.1 1.11.31 1.68.6.92.46 1.9.72 2.73.73.28 0 .68.07.9.15.49.18.99.18 1.81.03ZM36 41.87c0-.08.22-.47.88-1.57.28-.45.24-.02-.03.49-.29.52-.84 1.22-.85 1.08Zm-3.75-1.47c-.18-.3-.16-2.24.02-2.06.06.06.12 2.16.07 2.16-.02 0-.06-.05-.09-.1Zm-10.26-.79c.11-.21.23-.69.27-1.07.06-.57.09-.65.17-.46.2.43-.23 1.92-.54 1.92-.05 0 0-.17.1-.39Zm-3.79-.47c0-.3-.08-.46-.37-.76-.46-.47-.28-.51.21-.04.36.34.51.96.26 1.11-.06.04-.1-.09-.1-.31Zm-3.9-2.41c-.14-.27-.26-.51-.28-.55-.02-.05.01-.08.07-.08.11 0 .61.8.61.98 0 .25-.17.1-.4-.35Zm24.59-.3c.17-.32.8-.98.81-.85 0 .07-.17.33-.37.58-.37.44-.62.59-.44.27Zm-26.66-.44c.04-.3.07-.65.07-.79.01-.22.02-.23.11-.07.12.21.02 1.24-.14 1.34-.07.04-.08-.12-.04-.48Zm20.22-2.87c.07-.26.16-.66.2-.9.04-.23.11-.4.15-.37.17.1-.21 1.75-.4 1.75-.05 0-.03-.21.05-.48ZM0 30.24c0-.15.95-.16 12.33-.09 6.79.04 13.04.04 13.9 0l1.57-.08-.02-14.96L27.75.15H7.35l-.78.23C3.43 1.29 1.1 3.7.39 6.75c-.34 1.5-.39 1.59-.35.7C.18 4.54 2.83 1.36 5.97.3l.91-.3H28l-.02 15.17-.03 15.18-13.97.03C1.09 30.4 0 30.39 0 30.24ZM28.6 15.2V0h7.84c7.7 0 7.85 0 8.52.21 2.98.92 5.3 3.3 6.05 6.21.11.44.19.97.17 1.17-.05.44-.09.33-.38-.91-.69-3.04-2.91-5.32-6.12-6.3-.79-.24-10.63-.4-14.35-.23L28.8.22V30.2h14.5l-.2-.37c-.26-.49-.25-1.05.02-1.97.35-1.21-.09-2.13-1.36-2.81-.64-.34-.7-.5-.23-.59.18-.03.64-.21 1.03-.4.39-.18.96-.41 1.27-.5.92-.27 1.47-1.47 1.47-3.21 0-.87.02-.94.24-1.08.43-.29.69-.82.62-1.3-.03-.23-.09-.7-.12-1.04l-.06-.62.63-.98c1.06-1.66 1.69-3.11 1.69-3.89 0-.15.2-.38.63-.72.34-.28.82-.71 1.07-.97.52-.54 1.2-.94 1.2-.71 0 .08-.15.23-.34.34-.72.43-2.36 2.05-2.36 2.35 0 .7-.7 2.22-1.76 3.84-.59.92-.63 1.12-.37 1.92.21.65.08 1.14-.45 1.73-.36.4-.36.41-.38 1.37-.03 1.74-.72 3.05-1.72 3.26-.18.04-.63.2-1 .37-.36.17-.77.34-.91.4-.24.09-.24.1.26.38 1.17.67 1.6 1.87 1.13 3.12-.26.68-.25 1.03.03 1.58l.22.45 3.83.03c2.43.01 3.82.06 3.82.12 0 .07-3.92.1-11.3.1H28.6zm3.8 12.27c0-.73-.26-1.41-.76-1.96-.48-.53-.46-.68.03-.27.48.41.83 1.17.9 1.96.04.49.03.7-.06.7-.06 0-.11-.17-.11-.43Zm-27.3-.41c0-.03.05-.17.11-.33.16-.44.13-1.94-.07-2.63-.19-.68-.12-.92.11-.37.35.84.41 2.17.14 3.05-.09.26-.29.46-.29.28Zm24.6-2.04c0-.44 1.28-2.63 1.38-2.34.02.06-.13.33-.32.6-.2.27-.52.83-.71 1.23-.21.47-.34.66-.35.51Zm-25.3-.57c0-.29-.06-.38-.44-.64-.44-.3-.76-.87-.76-1.33 0-.31.14-.11.29.39.08.3.23.51.49.7.2.15.43.34.5.42.14.18.16.81.02.81-.05 0-.1-.16-.1-.35Zm4.62.23c-.09-.09-.12-1.96-.12-7.8 0-4.22-.02-7.68-.04-7.68s-1.04.63-2.27 1.4c-1.48.93-2.26 1.37-2.33 1.3-.12-.12-.2-3.41-.09-3.56s1.27-.91 3.45-2.27L9.49 4.9h1.33c.91 0 1.38.04 1.46.12.21.21.17 19.42-.04 19.62-.2.2-3.02.24-3.22.04Zm9.41.04c-.1-.06-.13-1.78-.15-7.79l-.03-7.72-2.19 1.35c-1.21.74-2.25 1.34-2.31 1.34-.24 0-.36-3.33-.13-3.62.14-.17 1.52-1.06 3.83-2.47l1.49-.91h1.33c1.21 0 1.33.02 1.43.19.16.3.14 19.43-.02 19.59-.14.14-3.04.17-3.25.04Zm-6.33-9.87V5.2H9.48l-.91.57c-.51.31-1.65 1.03-2.55 1.6L4.4 8.42v1.59c0 .87.03 1.59.06 1.59.04 0 .99-.58 2.13-1.29 2.34-1.46 2.46-1.53 2.55-1.44.03.03.06 3.57.06 7.85v7.78h2.9zm9.4 0V5.2h-2.55l-1.4.85c-.77.46-1.92 1.18-2.55 1.58l-1.15.73-.03 1.62c-.01.89-.01 1.62.02 1.62.02 0 1.07-.63 2.32-1.4 1.39-.85 2.32-1.36 2.37-1.31.06.06.08 3.18.05 7.85l-.04 7.76h2.96zm17.42 6.7c-.25-.22-.47-.53-.58-.83-.09-.26-.31-.62-.48-.79-.21-.23-.25-.33-.15-.33.24 0 .57.42.75.93.1.31.31.6.6.86.25.22.41.42.36.45s-.27-.1-.5-.29Zm-.02-1.45c-.47-.94-.98-1.36-2.09-1.77-.49-.18-.04-.21.48-.03.82.28 2.04 1.65 1.88 2.13-.02.06-.14-.08-.27-.33Zm-8.17-.4c.16-.7.36-1.43.41-1.48.12-.12.05.59-.1 1.05-.18.53-.4.85-.31.43Zm9.42-1.82c-.54-.96-1.75-2.23-2.61-2.73-.45-.26-.62-.41-.5-.43.7-.14 3.66 2.95 3.66 3.83 0 .19-.21-.05-.55-.67ZM31 17.24c-.16-.82-.7-1.94-1.12-2.29-.17-.14-.28-.29-.24-.32.09-.1.74.56 1.01 1.02.26.45.51 1.2.6 1.83.11.7-.12.48-.25-.24Zm3.13-2.04c-.17-.36-.48-.84-.69-1.08-.45-.53-.37-.69.1-.17.42.45.99 1.49.94 1.72-.02.1-.16-.09-.35-.47Zm-15.16-1.65c.12-.34 1.33-.65 1.33-.35 0 .06-.17.1-.39.1-.23 0-.48.08-.64.2-.3.24-.38.25-.3.05ZM32.55 8.7c-.12-.19-.19-1.7-.08-1.7.09 0 .26 1.7.18 1.78-.02.02-.06-.02-.1-.08Zm6.99-.46c.04-.38.01-.77-.07-1.12-.1-.36-.11-.52-.03-.49.31.1.43 1.95.13 2.14-.07.04-.08-.14-.03-.53Zm6.96-.13c0-.14.69-1.28.86-1.42.24-.2.16.02-.27.73-.41.67-.59.89-.59.69Zm-8.98-1.13c-.08-.11-.17-.29-.5-1.03-.03-.05.05-.02.16.09.12.1.26.34.32.52.16.47.5.46.95-.03.22-.24.35-.32.35-.22 0 .46-1.01.99-1.28.67Zm-4.98-.45c.06-.43.38-1.35.56-1.63.2-.31.21.02.02.44-.12.24-.27.66-.33.93-.16.64-.34.82-.25.26Zm4.23-.3c-.2-.39-.49-.6-1-.74-.21-.05-.35-.14-.32-.19.06-.1.89.12 1.11.31.21.17.46.68.41.82-.02.07-.11-.02-.2-.2Zm8.33-1.44a6 6 0 0 0-.65-.41c-.22-.12-.35-.23-.28-.25.17-.06.84.31 1.12.61.29.31.17.34-.19.05Z"/></svg>