<svg xmlns="http://www.w3.org/2000/svg" width="51" height="51" viewBox="0 0 51 51"><path fill="#fff" fill-rule="evenodd" stroke="#fff" stroke-width=".776" d="M8.35 51c-3.05-.8-5.66-2.77-7.11-5.36-.67-1.19-1.25-3.03-1.23-3.89l.01-.5.1.4c.49 2.05.64 2.5 1.08 3.4 1.17 2.37 3.4 4.38 5.92 5.32 1.76.66.63.63 18.49.63h16.26l.95-.24c4.23-1.07 7.38-4.42 8.09-8.63.12-.73.29-1.07.29-.57 0 .16-.09.68-.19 1.15-.9 4.05-3.9 7.13-8.03 8.24l-.93.25-16.5-.01c-15.72 0-16.53-.01-17.2-.19ZM25 41.5c-1.77-.27-1.94-.41-8.47-6.9-6.23-6.19-6.21-6.16-6.58-7.71-.44-1.9.01-3.6 1.37-5.19.83-.96 4.61-4.6 4.79-4.6.28 0 8.79 8.63 8.65 8.77-.04.04-.49-.35-1-.86l-.94-.94-.18.34c-.68 1.33.1 3.38 1.6 4.17.72.38 2.17.39 2.86.03.48-.25 1.2-.88 1.2-1.06 0-.05-.59-.69-1.31-1.4-.73-.71-1.9-1.95-2.62-2.75s-2.61-2.76-4.19-4.37c-1.63-1.66-2.88-3-2.88-3.1 0-.36 4.77-5.04 5.55-5.45 1.87-.97 3.8-1 5.6-.1 1.06.53 11.92 11.39 12.47 12.47 1.09 2.11.8 4.53-.76 6.44-1.13 1.38-10.88 11.07-11.51 11.44-1.14.67-2.46.95-3.65.77Zm2.11-.36c1.34-.4 1.54-.56 5.04-4.05l3.3-3.29-.46-.43c-.43-.4-5.24-4.68-6.02-5.36l-.37-.33-.6.55c-2.27 2.11-5.94.34-5.78-2.78.03-.55.11-.93.26-1.21l.21-.42-3.24-3.21c-1.78-1.76-3.29-3.21-3.35-3.21-.15 0-3.95 3.68-4.69 4.53C9.62 24 9.55 27.07 11.26 29c1.6 1.81 11.45 11.39 12 11.68 1.18.61 2.71.8 3.85.46ZM40.53 28.4c1.03-1.77 1.08-3.74.14-5.55-.37-.72-10.79-11.27-11.8-11.95-1.68-1.13-3.74-1.26-5.65-.35-.71.34-.95.55-3.27 2.85l-2.49 2.49.84.88c.46.48 1.92 1.98 3.25 3.32l2.4 2.43.5-.18c2.77-1.03 5.5 1.77 4.48 4.58l-.21.58.25.2c.14.11 1.08.94 2.08 1.85 1 .9 2.45 2.18 3.21 2.85l1.39 1.22 2.25-2.29c1.59-1.61 2.36-2.48 2.63-2.93Zm-11.82-1.52c.09-.2.14-.7.14-1.28 0-1.37-.54-2.27-1.77-2.92-.52-.27-2.09-.33-2.65-.09l-.33.13.22.31c.35.49 3.99 4.17 4.13 4.17.07 0 .19-.15.26-.32ZM50.9 8.83c-.82-4.38-4.57-8-8.95-8.63C41.37.12 36.72.1 25.1.12L9.05.15l-.97.27C4.27 1.47 1.38 4.41.4 8.23c-.15.59-.3 1.1-.33 1.14-.13.13-.07-.55.12-1.23C1.25 4.18 4.24 1.19 8.11.2 8.87 0 9.25 0 25.63 0h16.75l.88.25c3.94 1.13 7.14 4.59 7.84 8.47.07.38.08.64.02.7s-.14-.16-.22-.59Z"/></svg>