<svg xmlns="http://www.w3.org/2000/svg" width="51" height="51" viewBox="0 0 51 51"><path fill="#fff" fill-rule="evenodd" stroke="#fff" stroke-width=".354" d="M7.45 50.98c-3.5-.96-7.5-5.23-7.44-7.95 0-.21.02-.33.04-.28.02.06.15.48.3.95 1.09 3.4 4.01 6.24 7.3 7.1.28.07.54.16.58.2.19.17-.12.16-.78-.02Zm35.45.06c0-.08.09-.14.2-.14.63 0 2.88-1.07 3.89-1.84 2.12-1.63 4.01-4.68 4.01-6.47 0-.15.05-.31.1-.34.16-.1.12.55-.1 1.41-.51 2.05-2.09 4.27-4.03 5.7-1.29.96-4.07 2.1-4.07 1.68Zm.03-3.11c-.32-.06-.35-2.65-.04-3.23.53-1 2.33-1.05 3.02-.09.78 1.1-.06 2.54-1.44 2.47l-.57-.03v.41c0 .53-.19.62-.97.47Zm.75-.73c-.05-.48-.04-.5.16-.43.53.2 1.33.09 1.66-.22 1.13-1.08.07-2.69-1.53-2.33-.88.2-1.07.59-1.07 2.23v1.25h.83zm-37.17-.23c-.59-.3-.65-.53-.62-2.64L5.9 43h1.2v.99l.38.03c.37.03.37.03.37.48s0 .45-.37.48l-.38.03v.98l.38.03c.36.03.37.04.4.47.04.6-.66.85-1.37.48Zm2.03-.06c-.48-.29-.55-.59-.52-2.31l.03-1.55.54-.03c.62-.04.71.04.71.6 0 .34.02.37.32.4.51.05.51.91.01.96-.64.06-.57 1.07.07 1.07.38 0 .57.58.29.91-.17.21-1.07.18-1.45-.05Zm2.46.01c-.7-.34-.8-.65-.8-2.39v-1.54l.58.03.57.03.03.45.03.45h.64c1.7 0 2.28 1.96.85 2.93-.41.28-1.37.3-1.9.04Zm4.73-.02c-.24-.1-.43-.22-.43-.25 0-.12.23-.5.43-.72.11-.13.15-.23.09-.23-.42 0-.52-1.01-.14-1.4.77-.77 2.72-.29 2.17.53-.24.34-.24.36-.07.49 1.3.92-.49 2.29-2.05 1.58Zm2.7.13c-.25-.09-.17-2.25.09-2.58.4-.52 1.15-.68 1.91-.41.31.11.43.11.75 0 1.36-.49 2.12.2 2.12 1.95v1l-.35.07c-.76.14-.85.04-.85-.9 0-1-.05-1.16-.35-1.16-.34 0-.39.14-.45 1.15l-.05.9-.29.03c-.7.08-.75.02-.78-1.06l-.03-.97h-.6l-.03.89c-.04 1.11-.33 1.4-1.09 1.09Zm5.45-.09c-.55-.29-.65-1.02-.22-1.53l.25-.3-.23-.31-.23-.32.23-.19c.51-.41 1.34-.49 1.99-.2.63.29.74.6.71 1.89l-.03 1.07-1.1.02c-.8.01-1.17-.02-1.37-.13Zm2.79.09c-.09-.08-.09-2.66-.01-2.87.07-.18 1.08-.23 1.19-.07.03.06.17.06.36-.01.16-.05.38-.08.49-.05.18.05.2 0 .2-.49V43h1.2v1h.35c.64 0 .66.93.03.98l-.38.03v.98l.38.03c.79.06.54 1.08-.27 1.08-.9 0-1.31-.45-1.31-1.46 0-.52-.01-.54-.28-.54-.56 0-.72.23-.72 1.04 0 .43-.05.77-.12.84-.13.13-1 .17-1.11.05Zm6.48-.05c-.67-.24-.74-.63-.2-1.08.14-.12.14-.15-.07-.37-.95-1.01.81-2.11 2.11-1.32.37.22.37.26.08.63l-.23.28.28.28c.94.95-.49 2.1-1.97 1.58Zm4.58.05c-.09-.03-.13-.32-.13-.93 0-.97-.1-1.17-.54-1.06-.24.06-.25.1-.28.99l-.03.92h-1.2l-.03-1.97L35.5 43h.59c.64 0 .71.07.71.73 0 .26.02.27.39.21.56-.09 1.22.23 1.44.69.24.49.25 2.32.01 2.41-.18.07-.73.07-.91-.01Zm2.21-.07c-.81-.36-1.19-1.64-.68-2.33 1.01-1.38 3.37-.65 3.22.99-.12 1.17-1.39 1.84-2.54 1.34Zm-32.26-.38c.03-.25 0-.28-.25-.28-.43 0-.53-.17-.53-.87v-.63h.4c.38 0 .4-.02.4-.3s-.02-.3-.4-.3h-.4v-1h-.8v1.51c0 .83.05 1.59.1 1.69.29.54 1.42.68 1.48.18Zm2.1 0c.03-.24 0-.28-.22-.28-.42 0-.57-.25-.54-.89l.03-.56.38-.03c.59-.05.57-.62-.03-.62H9v-1h-.67l-.05 1.38c-.07 1.97.11 2.35 1.07 2.29.36-.02.4-.05.43-.29Zm3.07.08c.98-.64.64-2.43-.47-2.47-.43-.02-.37-.02-.85.06l-.42.07.06-.56.06-.56h-.83v1.35c0 1.6.09 1.86.73 2.16.51.24 1.32.21 1.72-.05Zm4.64.09c.77-.39.51-1.23-.46-1.51-.41-.12-.53-.2-.51-.32.04-.21.49-.27.78-.12.34.18.58-.18.29-.42-.24-.21-1.27-.25-1.6-.07-.59.31-.38 1.2.33 1.39.73.2.88.28.82.45-.07.18-.75.21-1.05.04-.21-.11-.52.13-.45.36.09.31 1.38.45 1.85.2Zm8.19.05.52.01v-.9c0-1.38-.26-1.71-1.34-1.71-.87 0-1.29.28-.91.6.12.1.21.1.41.01.36-.16.61-.14.84.09.33.33.24.4-.45.4-.96 0-1.36.44-1.04 1.14.16.34.47.47.99.41.25-.03.69-.05.98-.05Zm4.86.04c.25-.09.21-.54-.05-.54-.47 0-.59-.17-.59-.85v-.65h.35c.32 0 .35-.02.35-.3s-.03-.3-.35-.3h-.35v-1h-.8v1.39c0 2.01.41 2.65 1.44 2.25Zm4.05-.05c.96-.34.68-1.27-.47-1.58-.25-.07-.42-.18-.42-.27 0-.22.28-.29.72-.17.34.09.77-.14.56-.32-.38-.32-1.43-.35-1.82-.04-.58.46-.22 1.21.68 1.38.54.1.61.14.53.36-.07.18-.77.21-1.08.04-.21-.11-.52.13-.45.36.08.27 1.22.42 1.75.24Zm6.9-.07c1.39-.7.86-2.53-.73-2.53-.94 0-1.47.45-1.48 1.26-.02 1.11 1.18 1.8 2.21 1.27Zm-22.19-.8c0-.94.08-1.12.48-1.12.54 0 .62.13.62 1.1v.9h.7v-.78c0-.95.15-1.22.65-1.22.46 0 .55.2.55 1.19v.81h.83l-.07-1.02c-.07-1.15-.21-1.41-.85-1.58-.39-.1-1.02 0-1.26.2-.1.09-.19.08-.38-.05-.33-.21-1.16-.21-1.56 0-.42.21-.51.49-.51 1.56v.89h.8zm8.37.25c.01-.97.21-1.27.83-1.27.16 0 .2-.07.2-.35 0-.41-.1-.43-.62-.15-.35.19-.57.13-.43-.1.04-.06-.1-.1-.34-.1h-.4l-.03 1.3-.03 1.3h.81zm8.84-.23c.04-.93.17-1.14.68-1.14.48 0 .61.25.61 1.17v.83h.82l-.04-1.01c-.06-1.44-.59-1.86-1.88-1.48-.12.03-.16-.08-.18-.53l-.03-.58h-.79v3.6h.78zm-11.97.38c-.19-.13-.23-.41-.08-.57.35-.34 1.07.02.85.43-.12.22-.54.3-.77.14Zm-13.08-.23c-.8-.63.18-1.72 1.02-1.13.51.35.12 1.34-.53 1.34-.12 0-.34-.09-.49-.21Zm28.79-.04a.722.722 0 0 1 .51-1.25c.71 0 1.03.86.48 1.29-.35.28-.69.26-.99-.04Zm3.72.05c-.36-.28-.39-.91-.05-1.14.73-.52 1.66.35 1.11 1.03-.27.32-.73.37-1.06.11Zm-2.79-.23c.17-.13.15-.52-.04-.71-.23-.24-.61-.2-.8.09-.37.56.28 1.05.84.62Zm-28.76-.12c.25-.55-.26-.95-.83-.65-.22.12-.26.59-.07.78.23.23.77.15.9-.13Zm32.42.09c.2-.19.2-.34 0-.62-.28-.41-.94-.19-.94.32 0 .44.61.64.94.3ZM8.48 40.83.11 40.8l-.06-.43C.02 40.14 0 39.52.02 39l.04-.95.02 1.12c.03 1.58-.45 1.43 4.5 1.42 2.55 0 4.09-.04 3.97-.09-.11-.05-.57-.23-1.01-.4-2.09-.78-4.32-2.61-5.72-4.67-.9-1.32-1.82-3.5-1.81-4.26 0-.38.03-.32.29.53 1.37 4.54 5.63 8.43 9.59 8.77l.75.06-.23-.34c-1.63-2.45-1.08-5.2 1.27-6.31l.54-.25-.94-.13c-1.9-.25-2.85-.71-3.04-1.47-.09-.33.08-.43.7-.43h.48l-.58-.43c-3.09-2.28-2.41-4.15 2.06-5.71l1.05-.37-.03-.42c-.02-.23.01-.76.05-1.18l.09-.77-.56-.17c-2.14-.67-3.37-2.26-3.71-4.8-.16-1.27-.38-1.19 2.91-1.12 1.73.03 3.14.11 3.81.21.77.12 1.14.14 1.33.06l.27-.1-.18-.31c-.26-.44-.65-.64-1.83-.93-4.08-.99-7.95-5.61-6.29-7.51.85-.96 1.96-.35 2.91 1.62.61 1.26 1.72 2.36 2.83 2.79.62.23.62.22.06-1.13-.77-1.82-.76-2.49.04-2.87 1.07-.51 1.53-.08 3 2.83 1.14 2.28 2.18 3.86 2.44 3.75 3.6-1.55 9.64-1.6 13.01-.1.24.1 1.4-1.74 2.49-3.91 1.23-2.47 1.68-2.92 2.6-2.64 1.15.34 1.14 1.19-.02 3.73l-.27.58.52-.2c1.28-.48 2.36-1.53 3.04-2.94.76-1.58 1.59-2.2 2.41-1.79 2.18 1.08-.58 5.72-4.35 7.32-.29.12-1.03.35-1.65.51-.89.24-1.17.36-1.42.6l-.3.31.29.25c.22.2.36.24.6.2 1.65-.3 7.33-.49 7.53-.25.13.16-.14 1.92-.4 2.65-.56 1.55-1.68 2.65-3.19 3.15-.37.12-.65.25-.63.29.03.05.07.59.09 1.21l.05 1.12 1.09.37c3.3 1.13 4.41 2.25 3.72 3.77-.35.79-1.34 1.78-2.25 2.26l-.3.16.55-.06c1.43-.13.98 1.09-.58 1.57-.5.16-.94.22-2.9.46l-.43.05.58.35c2.3 1.38 2.79 4.19 1.08 6.23l-.27.31h.37c5.12 0 9.87-3.79 10.93-8.7l.1-.45.01.51c.07 2.9-3.53 6.91-7.33 8.19-2.43.81-.8.78-35.38.68Zm15.78-.33c-.03-.11-.09-.29-.12-.4-.1-.31.14-.24.31.1.09.17.12.3.08.3-.05 0 0 .05.1.11.64.38.03-.58-.76-1.17-.75-.57-1.44-.89-2.22-1.03-.86-.16-.9-.15-.66.15.37.47.23.62-.15.17l-.36-.43-.81.06c-2.95.22-4.43-2.99-1.96-4.26.19-.1.48-.39.64-.64.58-.92 1.56-1.3 2.64-1.02l.61.16.47-.3c.26-.17.52-.3.59-.3.06 0-.26-.38-.72-.84l-.84-.83-.77-.06c-1.01-.07-1.61-.29-2.17-.79l-.46-.4-.5.11c-2.07.45-3.99-.16-4.35-1.38l-.07-.24 1.05.08c1.2.08 1.33.04 2.15-.7l.51-.46-.29-.43c-1.33-1.96-1.07-4.41.64-6.12l.62-.62-1.21-.07c-1.95-.11-2.95-.38-2.95-.81 0-.28.44-.39 1.52-.37l1.07.02-.14-.27c-.08-.15-.16-.34-.19-.43-.08-.28-3.33-.58-6.31-.59-1.31 0-1.37.03-1.26.52.31 1.36 2.41 3.12 4.16 3.48.63.13.63.12.34 1.13-.14.49-.23 1.13-.26 2.04l-.06 1.32-1.07.36c-1.9.63-3.3 1.42-3.7 2.08-.66 1.07.38 2.66 2.53 3.87.62.35.65.57.07.4-.19-.06-.63-.1-.98-.1h-.63l.16.31c.28.54 1.49.94 3.48 1.14.86.09.85.21-.09.69-2.36 1.21-2.94 3.61-1.41 5.88l.42.63 4.93.03 4.94.02-.26-.31c-.31-.36-.34-.79-.06-1.04.56-.51 1.19.46.69 1.08l-.2.26 1.38.04c.76.01 1.51.04 1.67.05.24.02.27-.01.22-.18Zm15.02.15c.66-.15 1.43-1.72 1.5-3.05.08-1.61-.67-2.74-2.36-3.56-1.04-.5-1-.58.37-.66 2.46-.14 4.11-.68 4.11-1.35 0-.16-1.33-.15-1.72.02-.5.21-.09-.25.53-.6 1.29-.72 2.36-1.87 2.54-2.72.22-1.08-.99-2.04-3.81-3.03l-1.21-.42-.06-1.31c-.04-.88-.13-1.59-.27-2.11-.24-.91-.27-.87.65-1.14 1.48-.45 2.99-1.65 3.55-2.83.54-1.16.64-1.12-2.85-1-3.28.12-4.75.28-4.75.52 0 .09-.09.28-.2.42-.29.37-.29.37.79.37 1.12 0 1.51.1 1.51.39 0 .44-.82.68-2.67.78l-1.32.06.44.42c1.89 1.84 2.14 4.45.62 6.38l-.3.38.29.3c.66.7 1.06.84 2.04.71 1.13-.15 1.1-.16 1.1.09 0 1.13-1.83 1.88-3.8 1.55l-.85-.14-.3.33c-.53.57-1.08.78-2.2.83-.87.04-1.02.08-1.14.26-.08.12-.41.48-.72.81l-.58.6.38-.03c.72-.07 1.21.14 1.86.82.59.61.63.63 1.21.68 3.4.31 3.04 4.74-.38 4.69l-.92-.01-.53.57c-.55.59-.76.52-.25-.09l.27-.33-.27.21c-.44.34-.94.99-1.14 1.48-.19.45-.34.59-.34.32 0-.08.05-.16.12-.18.2-.07-.34-.9-.8-1.22-.84-.59-2.47-.38-2.97.38-.17.26-.17.27.31.79.26.28.5.54.52.57.03.03.02-.07 0-.22-.04-.2-.01-.28.09-.28.11 0 .13.07.09.24-.03.12-.04.25-.02.27.07.07 13.56.11 13.84.04Zm-10.32-.37c-.35-.5.49-1.23 1.03-.89.24.15.16.63-.15.88-.36.29-.68.29-.88.01Zm-7.91-.44c0-.35-.03-.39-.25-.39-.31 0-.38.27-.15.61.22.35.4.25.4-.22Zm8.49.34c.47-.21.44-.78-.03-.63-.25.08-.45.41-.37.61.07.17.08.17.4.02Zm-.38-1.68c.86-.89 1.13-1.87.74-2.71-.11-.24-.2-.52-.2-.62 0-.29.24-.14.31.19.04.16.14.46.23.67.17.38.1.94-.19 1.68-.1.25 2.05.21 2.58-.05.37-.18.97-.81.97-1.01 0-.05-.12.05-.26.23-.36.46-1.06.84-1.46.8-.32-.03-.32-.03.19-.21.36-.13.65-.33.98-.68.32-.34.5-.47.55-.39.23.37.27-.84.04-1.38-.57-1.38-2.9-1.86-3.49-.72-.23.44-.3.44-.67-.08-.32-.43-.84-.79-1.42-.97-.12-.03-.16-.09-.1-.15.19-.19.88.13 1.38.65l.49.5.44-.43c.48-.47.48-.55-.04-1.04-.87-.83-2.1-.78-2.98.12-.38.38-.4.39-.94.34-.5-.05-.73-.01-1.7.27-.07.02-.15-.01-.17-.07-.07-.17.97-.44 1.68-.44.58 0 .67-.03.93-.3.33-.34.31-.36-.19-.15-.67.28-1.88.24-2.88-.09-.94-.32-1.37-.29-1.88.12l-.22.18.26.38c.22.33.35.76.22.76-.02 0-.14-.17-.26-.37-.69-1.18-2.49-1.25-3.4-.15-.41.5-.39.52.33.52.73 0 1.27.22 1.86.75l.41.37.29-.24c.34-.27.39-.6.16-1.15-.08-.2-.13-.38-.1-.41.12-.13.35.25.46.76l.11.56-.43.38c-.53.45-.54.45-.84.1-.58-.7-1.95-1.1-2.81-.82-2.12.68-1.77 3.39.51 3.9.59.13 1.45.03 1.53-.18.03-.09.25-.34.49-.57.4-.39.43-.45.43-.94 0-.38.04-.51.13-.48.37.13-.03 1.45-.54 1.76-.41.25-.22.37.69.44.78.06 1.75.44 2.38.92l.31.24.29-.3c.99-1.05 2.68-1.01 3.65.08.33.38.34.38.48.18.08-.11.38-.45.67-.75Zm-1-1.52c-.82-.72-1.26-1.26-.82-1.01.2.11 1.9 1.64 1.94 1.75.1.24-.27 0-1.12-.74Zm-8.53-.67c-1.09-.74-1.64-1.19-1.61-1.28.05-.13 2.38 1.46 2.46 1.68.07.19-.17.08-.85-.4Zm2.57.29c0-.05.27-.28.6-.5.73-.49.73-.49.1-.94-.45-.32-.63-.56-.42-.56.15 0 1.22.92 1.22 1.06 0 .08-.31.35-.69.59-.73.47-.81.51-.81.35Zm9.84-.47c-.21-.27-.53-.67-.72-.91-.18-.23-.32-.47-.3-.53.05-.15.25.06.98 1.02.64.83.67 1.21.04.42Zm-7.52-.05c-.41-.13-.6-.24-.54-.3.11-.11 1.52.29 1.52.43 0 .13-.27.1-.98-.13Zm1.68-.27c0-.16.51-.71.66-.71.16 0 .18.33.04.61-.11.19-.7.28-.7.1Zm-.7-.98c-.12-.38-.34-.79-.47-.92-.31-.3-.21-.41.15-.14.21.15.31.18.44.09.25-.16.34.01.13.24-.18.2-.18.23-.02.68.19.52.21.72.09.72-.05 0-.19-.3-.32-.67Zm1.6-2.81c.36-.18.8-.46.99-.62l.35-.3-.22-.23c-.15-.16-.22-.36-.22-.64v-.41l-1.08-.36c-.59-.2-1.26-.36-1.49-.36-.51 0-2.33.56-2.37.73-.02.07-.08.3-.12.52-.06.25-.17.43-.31.51l-.23.11.28.25c1.3 1.19 3.02 1.51 4.42.8Zm-3.92-2.82c2.18-.74 2.41-.75 3.87-.21 2.43.92 4.14 1.13 5.11.63.41-.21.71-.49.62-.57-.08-.08-1.98-.55-2.23-.55-.18 0-.24-.1-.38-.57-.49-1.78-2.57-3.23-4.62-3.23-2.14 0-4.23 1.54-4.53 3.33l-.08.42-.64.07c-.68.08-1.95.35-2.19.48-.1.06-.03.15.28.35 1.13.75 2.28.71 4.79-.15Zm-4.88-.53c.8-.19 1.66-.38 1.92-.42.46-.06.48-.08.59-.48.06-.23.23-.64.37-.9l.26-.49-.24-.19c-1.44-1.12-2.7-.98-4.5.51-1.6 1.31-1.41 1.23-2.58 1.18-1.14-.05-1.17-.03-.65.42.48.43 1.22.39 2.68-.15 2.7-.99 4.39-1.39 4.59-1.07.08.13-.14.19-1.06.26-.46.04-1.09.21-2.05.57-.76.28-1.76.62-2.22.74l-.84.22.39.11c.61.18 1.77.07 3.34-.31Zm17.72.25c.09-.09.07-.12-.08-.12-.38 0-1.69-.39-2.69-.8-1.07-.44-2-.7-2.52-.7-.24 0-.33-.05-.33-.16 0-.33 1.19-.07 2.99.66.97.38 2.14.71 3.03.83.4.06.86-.21 1.09-.64.09-.18.05-.19-.93-.13l-1.03.07-.5-.39c-2.22-1.71-2.67-1.99-3.39-2.09-.53-.08-1.08.06-1.69.44l-.47.3.39.56c.21.3.44.75.5 1s.17.47.24.49c.26.07 2.06.5 2.82.67.89.21 2.37.21 2.57.01Zm-8.72-.8c-.71-.22-.56-1.33.21-1.57.75-.24 1.27.98.6 1.4-.21.12-.66.22-.81.17Zm-4.32-.21c-.48-.38-.44-1.1.07-1.33.61-.28 1.42.58 1.13 1.2-.18.36-.81.43-1.2.13Zm12-2.71c.82-1.67.42-3.63-1.05-5.09-.68-.67-.68-.67-1.17-.63l-.5.04.38.13c2.27.78 3.11 4.25 1.49 6.15-.35.41-.36.43-.18.56.25.19.52-.12 1.03-1.16Zm-18.12.57c-1.68-2.2-.6-5.8 1.87-6.26.41-.08.41-.08-.23-.12l-.65-.04-.68.64c-1.77 1.68-2.08 4.55-.65 6.08.37.39.66.12.34-.3Zm5.26-.02c.28-.25.54-.45.59-.45.31 0 .01-3.58-.36-4.3-.76-1.47-3.69-1.45-4.47.03l-.11.22.23-.2c1.02-.91 2.45.69 1.86 2.08-.5 1.17-2.05 1.04-2.31-.2-.17-.75-.25-.64-.22.32.03 1.29.41 2.22.86 2.1 1.15-.29 2.29-.06 3.11.63.32.27.24.29.82-.23Zm7.8-.12c.78-.48 1.63-.56 2.47-.24.64.24.66.22 1.02-.69 1.15-2.95-1.29-5.74-3.83-4.38-1.06.56-1.34 1.23-1.45 3.48l-.06 1.25.59.47c.71.56.55.55 1.26.11Zm3.96.05c1.68-1.75.63-5.49-1.63-5.82-.22-.03-.33-.03-.25 0 1.86.81 2.57 3.86 1.31 5.63-.2.28-.2.3-.04.4.25.15.26.15.61-.21Zm-16.47-.8c-.8-1.61-.32-3.82 1.02-4.75.55-.38.24-.43-.44-.07-1.74.95-2.26 3.96-.95 5.51.26.3.29.32.5.18l.22-.15zm14.7.07c-.25-.32-.27-.65-.06-1.04.39-.77 1.45-.37 1.31.48-.11.71-.86 1.04-1.25.56Zm-8.01-.26c1.05-.31 2.18-.25 3.51.18.14.04.18-.09.24-.98.04-.56.16-1.41.27-1.88.1-.47.18-.97.18-1.11-.01-.76.74-2.22 1.56-3.04.6-.6 2.14-2.51 2.14-2.65 0-.04-.39-.2-.88-.34-3.6-1.1-7.38-1.09-10.94.03-.53.17-.99.34-1.01.38-.06.09 1.28 1.79 2.03 2.57.78.82 1.33 1.93 1.43 2.9.03.22.12.67.21 1s.19 1.2.23 1.93c.05 1.16.08 1.32.22 1.26.09-.04.45-.15.81-.25Zm8.84.05c.45-.44.01-1.23-.5-.89-.24.15-.35.8-.17.98.12.13.51.07.67-.09Zm-11.67-.31c-.36-.41-.29-1.21.14-1.43.75-.41 1.44.63.88 1.34-.24.31-.77.36-1.02.09Zm.81-.15c.3-.37.13-1.08-.26-1.08-.38 0-.52.17-.52.6 0 .53.49.83.78.48Zm7.43-.66c-.69-.37-.91-1.35-.5-2.19.39-.8 1.34-1 1.94-.4 1.12 1.12-.11 3.31-1.44 2.59Zm-10.18-.12c.76-.6.51-2.14-.39-2.39-.86-.24-1.52.92-1.1 1.93.27.64.98.86 1.49.46Zm11.25-.16c.34-.24.52-.68.52-1.29 0-1.42-1.61-1.58-2-.2-.31 1.12.64 2.08 1.48 1.49Zm-19.53-2.62c-.88-.4-1.32-.69-2.06-1.36-.52-.49-.5-.46.11.14.73.72 1.98 1.5 2.4 1.5.08 0-.12-.13-.45-.28ZM29.62 20c1.11-.58 2.07-.76 4.83-.89.99-.05 1.91-.14 2.05-.2.39-.17-3.95-.06-4.95.13-.94.18-2.59.97-2.84 1.36l-.16.25.25-.18c.14-.09.51-.3.82-.47Zm-7.58.02c-1.08-.9-2.43-1.21-5.44-1.27-2.74-.06-2.59.1.25.25 2.76.15 4.57.61 5.22 1.32.12.14.19.16.22.07.02-.07-.09-.23-.25-.37Zm9.21-1.17c1.07-.22 3.36-.38 4.7-.32.71.03 1.12.02 1-.03-.11-.05-.68-.09-1.27-.09-.65-.01-1.08-.05-1.08-.11 0-.05.03-.1.08-.1.08 0 .52-.62.52-.73 0-.12-.39-.08-1.32.14-.87.21-1.18.19-.88-.04.18-.14.7-.81.7-.9 0-.23-1.38.11-2.4.59-.96.45-1.53.93-2.01 1.67-.56.87-.52.92.44.47.45-.22 1.13-.47 1.52-.55Zm-9.32.48c-.64-1.54-2.85-2.95-4.4-2.81l-.35.03.42.53c.44.55.47.72.09.52-.12-.07-.6-.15-1.06-.18-.95-.06-1.07.06-.53.51.43.37.43.37-1.05.37-.75 0-1.35.04-1.35.09 0 .06.96.09 2.28.09 3.06 0 4.51.25 5.67.97.22.13.41.25.42.25s-.05-.17-.14-.37Zm2.77-.51c-.6-.32-.86-1.11-.56-1.7.63-1.23 2.41-.91 2.53.45.09 1.08-.99 1.77-1.97 1.25Zm1.18-1.14c.02-.14-.05-.31-.18-.43-.4-.36-.83.4-.44.8.21.21.58 0 .62-.37Zm8.34-.43c.26-.05.38-.13.42-.29.17-.67.96-1.35 1.76-1.51 2.61-.52 4.72-1.91 6.11-4.03 1.27-1.93 1.18-3.65-.17-3.49-.62.07-1.02.47-1.6 1.61-.83 1.61-1.54 2.35-2.91 3.05-1.12.56-1.34.41-.87-.59 1.16-2.46 1.12-3.4-.12-3.4-.67 0-.95.36-2.24 2.89-.99 1.93-1.29 2.43-2.42 3.92-.71.94-1.21 1.68-1.11 1.64.88-.39 1.83-.65 2.32-.63.65.03.7.12.36.62-.21.31-.22.37-.08.32.1-.03.34-.08.55-.11Zm-17.08-.4c-.49-.64-.15-.79 1.19-.5.38.08.93.26 1.23.39.63.29.64.32-.4-.99-1.15-1.45-1.72-2.36-2.8-4.52-1.11-2.24-1.43-2.63-2.1-2.63-1.13 0-1.23.65-.41 2.71.72 1.78.67 1.87-.64 1.24-1.12-.54-2.16-1.62-2.75-2.87-.8-1.66-1.73-2.23-2.47-1.49-.79.8.03 2.94 1.82 4.7 1.31 1.29 2.52 1.96 4.42 2.45 1.39.36 2.17.92 2.17 1.57 0 .13.09.19.33.22.72.09.7.1.41-.28ZM51 8.83c0-.59-.2-1.41-.54-2.17l-.26-.58-.43.36c-1.92 1.57-4.78 1.02-5.85-1.14l-.21-.42-.19.38c-1.4 2.74-5.49 2.77-6.85.05l-.23-.48-.28.53c-1.4 2.67-5.46 2.59-6.79-.13-.26-.53-.27-.53-.55.07-1.26 2.68-5.3 2.7-6.68.05-.35-.66-.35-.66-.59-.12-1.19 2.71-5.32 2.82-6.74.18l-.29-.54-.22.42c-1.39 2.74-5.53 2.74-6.88.01l-.21-.42-.25.49C5.93 7.42 2.99 8.01 1.28 6.51c-.41-.36-.44-.37-.51-.13C.33 7.71 0 8.43.04 7.93.29 5.27 3.76 1.48 6.99.34l.54-.19L3.74.1C1.66.07 11.49.05 25.6.05S49.57.07 47.51.1c-3.33.04-3.7.07-3.35.19 2.52.88 4.95 3.15 6.35 5.92.54 1.07.89 2.86.59 3.04-.06.04-.1-.13-.1-.42ZM4.8 6.93c.91-.32 1.58-.91 2.01-1.74.19-.38.32-4.4.14-4.57C6.81.47 4.21 2 3.76 2.49l-.19.21h.44c.56 0 .35.16-.35.26-.38.05-.57.14-.8.38-.41.44-1.28 1.62-1.6 2.18l-.27.46.44.36c.97.79 2.19 1 3.37.59Zm6.59.17c1.23-.2 2.28-.99 2.79-2.08.26-.55.27-.64.3-2.75L14.52.1h-2.99C8.68.1 8.19.14 7.46.42l-.29.12.06 1.92c.05 1.82.07 1.96.32 2.53.47 1.04 1.54 1.88 2.68 2.1.23.05.44.09.47.1.03 0 .34-.04.69-.09Zm37.44-.34c.51-.25 1.17-.79 1.17-.95 0-.14-.74-1.23-1.38-2.03L48 3h-2c-1.27 0-2-.04-2-.1 0-.12-.14-.11 1.87-.1.95 0 1.64-.03 1.67-.09.16-.25-2.95-2.21-3.5-2.21-.28 0-.2 4.1.1 4.68.86 1.7 3 2.42 4.69 1.58Zm-29.22.02c.76-.35 1.29-.85 1.7-1.6l.34-.63.03-2.23.03-2.22H14.7v2.3c0 2.27 0 2.31.25 2.81.85 1.66 2.95 2.37 4.66 1.57Zm7.42-.03C28.61 5.97 29 5.07 29 2.2V.1h-7.1v4.29l.38.72c.92 1.78 3.01 2.5 4.75 1.64Zm7.33 0c1.23-.6 1.86-1.57 1.92-2.92l.04-.83h-3.46c-2.24 0-3.46-.04-3.46-.1s1.2-.1 3.39-.1h3.39l.06-.22c.03-.13.06-.74.06-1.35V.1h-7.1v2.1c0 2.32.08 2.7.79 3.59.99 1.25 2.92 1.67 4.37.96Zm7.26.02c1.62-.79 2.02-1.64 2.06-4.34l.03-2.02-.52-.15C42.76.13 42.08.1 39.58.1H36.5v2.16c0 2.42.07 2.7.86 3.62 1.01 1.18 2.87 1.57 4.26.89ZM7.33 2.88c.02-.07.13-.13.25-.12l3.47.02c2.09.01 3.25.06 3.25.12s-1.24.1-3.51.1c-2.76 0-3.5-.03-3.46-.12Zm7.47.02c0-.06 1.2-.1 3.4-.1s3.4.04 3.4.1-1.2.1-3.4.1-3.4-.04-3.4-.1Zm7.3 0c0-.06 1.2-.1 3.4-.1s3.4.04 3.4.1-1.2.1-3.4.1-3.4-.04-3.4-.1Zm14.55 0c-.04-.07 1.13-.1 3.45-.1s3.49.03 3.45.1c-.04.06-1.3.1-3.45.1s-3.41-.04-3.45-.1Z"/></svg>