<svg xmlns="http://www.w3.org/2000/svg" width="51" height="51" viewBox="0 0 51 51"><path fill="#fff" fill-rule="evenodd" stroke="#fff" stroke-width=".339" d="M15.76 50.08c.19-.62.41-1.35.49-1.61l.14-.49-1.82.06c-1.02.04-1.97.02-2.17-.03-.25-.06.29-.09 1.83-.1 2.53-.01 2.18.2 2.68-1.61.17-.63.37-1.36.44-1.62.16-.54.16-.53-.45-.63-.71-.12-.96-.29-1.11-.77-.08-.24-.21-.44-.29-.44-.08-.01-.73-.02-1.45-.03-1.01-.02-1.24-.05-1.05-.13.15-.06.7-.08 1.43-.04l1.19.06-.08-.63c-.14-1.08 0-3.84.23-4.43.04-.11-.08-.14-.58-.16l-.64-.01.64-.06.63-.06.28-.82c.49-1.46 1.14-2.23 2.72-3.2l.85-.53.17-.82c.09-.46.16-.94.16-1.09 0-.14.04-.29.09-.35.05-.05.14-.26.19-.46.18-.66-.09-.45-1.24.94-1.05 1.29-2.08 2.48-5.74 6.73-.95 1.1-2.13 2.46-2.61 3.02-.53.62-.86 1.08-.83 1.17.16.42-.91.17-1.47-.35-1.54-1.42-3.65-1.8-5.51-.98-.39.17-.77.32-.83.33-.17.03-1.39 1.01-1.74 1.41-.24.27-.31.31-.31.18 0-.26 1.27-1.45 3.28-3.08.39-.32.72-.62.72-.66s.09-.09.2-.12c.16-.04.2-.14.21-.54.02-.47.02-.47.08-.11l.06.37.33-.2c.3-.2.32-.24.32-.8 0-.71-.04-.74-.91-.58-.35.06-.75.11-.89.1s-.5-.02-.8-.02c-1.21.01-.16-.21 1.3-.26l1.5-.06v.56c0 .69-.06.69.85.01l.75-.56V35.5l-1.38-.01c-.85-.01-1.26-.04-1.07-.09.33-.08 2.88-.12 2.68-.03-.14.05-.19 1.03-.05 1.03.29-.01.55-.39.49-.74-.03-.19-.02-.38.03-.41s.1.1.12.3l.03.35.58-.45c.54-.43.57-.47.57-.9v-.45H6.27l-1.96 1.07c-1.08.58-2.27 1.27-2.66 1.53-.38.26-.91.59-1.18.74l-.47.27v-.28c0-.25.09-.33.88-.75l.87-.46.02-3.51c.01-2.64-.01-3.51-.1-3.51-.07 0-.39.07-.72.15-.76.18-.95.18-.95.01 0-.08.16-.16.4-.2.22-.03.63-.11.9-.17l.5-.11v-2.9l-.9.08c-.64.05-.9.03-.9-.05 0-.06.09-.11.2-.11.15 0 .2-.07.2-.25s-.05-.25-.2-.25c-.11 0-.2-.04-.2-.09 0-.09.8-.21 1.43-.21.36 0 .38-.02.35-.28l-.03-.27-.88.04c-.57.02-.87-.01-.87-.08 0-.06.33-.11.83-.13.81-.03.82-.03.85-.3l.03-.27-.85.06c-.62.04-.86.03-.86-.06 0-.06.15-.11.33-.11.86 0 1.37-.12 1.37-.33 0-.18-.05-.19-.85-.15-.61.03-.85.01-.85-.07 0-.13.65-.25 1.33-.25h.39l-.04-1.36c-.04-1.54.01-1.46-.99-1.63-.47-.09-.69-.17-.69-.27s.07-.13.23-.09c1.47.33 1.37.36 1.37-.34v-.59l-.67-.17c-.38-.09-.74-.19-.81-.21-.06-.02-.12-.11-.12-.19 0-.11.06-.15.18-.11.09.03.37.1.62.16s.53.13.62.16c.12.04.17-.02.2-.23.04-.37.21-.36.28.02l.05.3.9.07c1.08.09 2.56.39 3.54.73l.72.24 2.14-.36c1.92-.33 2.14-.38 2.17-.56.04-.28.24-.32.31-.07.06.24.23.25 1.38.05.83-.15 4.63-.75 8.58-1.36 1.07-.16 1.96-.31 1.98-.32.05-.05.43-2.7.39-2.74-.02-.02-.39.05-.82.16-8.51 2.15-18.41 1.42-21.52-1.57C.14 11.1.06 8.95 1.51 7.36 6.03 2.41 24.2.87 30.01 4.94c.36.25.25.3 4.62-2.13C39.51.1 39.75-.02 40.02.02c.15.02-.12.21-.88.62-1.96 1.06-8.29 4.58-8.37 4.66-.04.04.02.14.15.22.13.09.41.32.63.51.23.22.43.33.5.28.09-.08 1.39-.81 8.98-5.05C42.56.4 43.38 0 43.55.02s-.56.47-2.82 1.73c-3.79 2.1-7.64 4.26-8.21 4.59-.42.26-.42.26-.26.51.21.32.25.32 1.21-.1 1.03-.45 1.28-.44.41 0-.91.47-1.23.77-1.08 1.04l.1.21.53-.24c.29-.12 1.22-.63 2.07-1.13C39.51 4.3 45.66.9 45.87.9c.34 0-.13.31-1.95 1.31-3.37 1.84-8.7 4.84-9.17 5.16-.18.12-.15.13.23.07 1-.16 2.89.67 2.52 1.11-.26.31.17.37.61.08.57-.37 1.7-.4 2.36-.06.22.12.59.27.82.33 1.37.37 1.56 1.94.33 2.81-.63.45-.91.49-3.67.49-3.58.01-3.66.02-3.59.2.03.08.41 1.59.86 3.34.95 3.81.99 3.92 1.4 4 .71.14.88.09.88-.27v-.34l1.48-.38c.81-.21 1.55-.43 1.64-.49.25-.15.28-.08.35 1.03.03.55.08 1.01.1 1.01s.21-.13.43-.29c.5-.36 1.48-.76 2.29-.92.35-.08.66-.19.68-.26.03-.07.11-.13.19-.13.12 0 .14.42.14 2.46v2.46l.32-.07c.18-.04.37-.11.42-.15.1-.1-.29-1.14-.5-1.31-.78-.65 2.15-2.24 4.38-2.36l.97-.06.03-.36c.02-.23.08-.36.17-.36.12 0 .14.23.12 1.28l-.02 1.27h.25c.16 0 .26.06.26.15s-.09.15-.25.15c-.21 0-.25.05-.25.3s.04.3.25.3c.35 0 .33.28-.02.32-.37.04-.39.4-.04.48.36.08.39.3.03.3h-.29l-.06 2.78c-.04 1.52-.07 3.37-.07 4.09v1.33l.35.22c.7.46.43.55-1.42.49l-.93-.03v.4c0 .38.03.41.75.91l.75.52v-.81h.6c.33 0 .6.04.6.1 0 .05-.25.1-.55.1h-.55v.33c0 .29.07.38.55.72.36.25.55.44.55.58v.2l-.22-.2c-.13-.11-.59-.44-1.03-.73-1-.67-2.21-1.58-4.98-3.74-1.2-.94-2.46-1.93-2.8-2.19-.34-.27-.91-.74-1.27-1.05-.36-.32-.92-.79-1.25-1.07-.33-.27-.83-.69-1.11-.94-.29-.26-.76-.64-1.05-.86-1.45-1.1-1.38-.96-2.15-4.6-.65-3.11-1.78-7.59-2.45-9.75-.85-2.71-1.49-3.78-2.84-4.7-.81-.55-.88-.51-.21.11 1.85 1.71 2.67 4.43 4.37 14.48.53 3.12.54 3.14.86 3.49.18.19.59.69.9 1.11.32.42.78.99 1.04 1.27.55.63 1.18 1.91 1.6 3.27.17.56.34 1.09.37 1.17s.04.19.03.24c-.07.3.32 1.57.52 1.67.52.29 1.96 1.27 1.91 1.31-.03.03.13.2.35.37.49.39.97 1.2 1.32 2.26l.27.8.68.06.69.05-.69.02c-.66.02-.68.03-.62.24.03.13.09.4.12.6l.07.38.96.02.96.02-.9.05c-.96.06-1.11.18-.9.69.31.75.09 2.75-.45 4.01-.25.57-.28.59-1.2.67l-.68.07.33 1.26c.52 1.97 1.56 5.75 1.61 5.83.03.04-.06.08-.19.08-.26 0-.13.38-1.59-4.7-.27-.96-.51-1.81-.54-1.88-.02-.06-.1-.12-.19-.12-.13 0-.14.04-.05.2.06.11.07.2.02.2s-.14-.11-.2-.25c-.12-.26-.44-.33-.72-.15-.3.19.77 2.86 1.11 2.77.33-.09.46.17 1.05 2.01.31.97.58 1.8.61 1.84.02.05-.05.08-.16.08-.16 0-.29-.27-.79-1.77l-.59-1.78-.44.03c-.24.01-.49.04-.55.06-.08.03.09.63.47 1.72.51 1.47.63 1.91.44 1.72-.03-.03-.34-.83-.69-1.79s-.67-1.81-.71-1.91c-.05-.14-.01-.16.32-.12.67.08.7-.03.25-1.02-.21-.49-.45-1.06-.53-1.26-.11-.33-.42-.58-.55-.45-.02.02.02.33.11.68.28 1.21.31 2.22.06 2.64l-.21.37.45 1.4c.25.78.43 1.43.41 1.46-.18.17-.4-.28-.95-1.91-.35-1.02-.81-2.16-1.02-2.54-.22-.37-.55-1-.74-1.4-.34-.69-.5-.91-.61-.8-.08.07.46 1.73 1.38 4.32.89 2.5.85 2.35.56 2.35-.21 0-1.64-3.94-2.46-6.75l-.09-.3-3.11-.03-3.12-.02v1l2.32.01c1.28.01 2.58.04 2.88.09.34.04-.51.08-2.27.09l-2.83.01v2.4h2.79c1.76 0 2.82.04 2.86.1.04.07-.92.1-2.79.1H29.9v2.18l2.77.07c1.52.04 3.09.11 3.47.15.48.06.15.07-1.04.04-.96-.02-3.31-.07-5.21-.1l-3.46-.06-.06.24c-.04.12-.07.35-.07.51 0 .15-.04.27-.1.27s-.1-.22-.1-.5v-.5h-1.8v.28c0 .36-.1.72-.2.72-.05 0-.06-.25-.03-.55l.06-.55h-.31c-.3 0-.31.02-.37.55-.05.39-.12.55-.22.55-.13 0-.14-.1-.08-.55l.06-.55-1.08-.01c-1.24-.01-1.19-.06.17-.17l.95-.07.06-.5c.04-.27.1-.71.13-.97l.06-.48h-1.99l-.11.38c-.05.2-.25.94-.42 1.65-.3 1.14-.35 1.27-.55 1.27h-.22l.2-.67c.48-1.65 1.52-5.94 1.45-6-.07-.08-.67.76-.87 1.24-.11.26-.27.62-.34.78-.16.35-.82 2.52-1.15 3.78-.15.55-.28.87-.37.87-.2 0-.13-.37.42-2.22.16-.51.16-.58.02-.72-.08-.09-.19-.3-.22-.48-.19-.89-.6-.58-1.01.78-.1.32-.3.99-.46 1.49-.15.49-.28.95-.28 1.02s-.04.13-.1.13c-.15 0-.02-.51.64-2.65.21-.67.2-.75-.07-.75-.19 0-.26.09-.39.53-.8 2.6-.9 2.87-1.03 2.87-.2 0-.2-.01.24-1.46.22-.71.54-1.81.71-2.44s.38-1.35.45-1.58c.14-.44.1-1.32-.06-1.32-.04 0-.19.37-.33.83l-.89 2.87c-.35 1.13-.7 2.29-.77 2.58-.11.43-.18.52-.36.52h-.22zm-11.21-.09c-4.6-.56-5.75-6.76-1.62-8.79 3.15-1.55 6.46.73 6.25 4.32-.21 3.58-5.22 5.17-7.32 2.32l-.29-.39.44.41c2.22 2.06 5.48 1.52 6.71-1.12.32-.69.45-1.55.3-1.94-.1-.24-.11-.24-.11-.03-.02.43-.6.56-.85.18-.19-.29.01-.37.24-.1.19.23.3.18.3-.13 0-1.6-6.22-1.76-7.16-.19-.06.08-.03.08.09-.01.32-.26.52-.11.27.21-.18.23-.2.3-.09.43.1.12.14.12.22.02.06-.1.07-.08.03.04-.03.1-.01.2.04.23.06.04.1.01.1-.06s.1.03.23.21c.12.18.37.41.55.51.19.09.41.24.5.33 1.49 1.34 4.18.03 3.86-1.87-.05-.28-.04-.29.07-.13.15.25.07.95-.18 1.46-.26.51-.16.51.4-.04.25-.23.55-.46.67-.49.42-.11-.94 1.01-1.7 1.4-.95.48-1.94.53-2.7.14-.4-.21-.43-.22-.3-.04.08.1.04.08-.09-.07-.14-.14-.28-.24-.31-.23-.04.01-.49-.36-1.01-.82-.52-.47-.98-.85-1.03-.85-.09 0-.03 1.22.09 1.55.06.2.06.2-.06 0-.25-.39-.25-1.73 0-1.99 1.3-1.38 4.88-1.63 7.44-.52.41.18.41.18.26-.39-.59-2.13-3.47-3.29-5.6-2.27-3.85 1.85-3.34 7.4.78 8.47 3.87 1.01 7.02-3.3 5.18-7.08l-.26-.52.25.27c.65.72.97 2.72.61 3.94-.69 2.4-2.85 3.91-5.2 3.63Zm21.55-.27c0-.16.03-.63.06-1.05l.07-.77h-1.6l-.06.38c-.04.2-.09.67-.13 1.05l-.07.67h1.73zm2.7-.77V47.9h-2.4V50h2.4zm.9 0V47.9H29V50h.7zm-9.75-1.38c.03-.23.13-.79.22-1.23.13-.71.14-.87.01-1.24l-.14-.43-.36 1.13-.37 1.12.22.58c.23.67.32.68.42.07Zm19.21-.51c-.09-.88-.88-2.38-1.12-2.13-.04.04.62 2.26.92 3.07.12.31.26-.35.2-.94Zm-16.11.66.5-.07.15-1.15.16-1.15-.46-.06-.45-.06.47-.01.47-.02.07-.45c.1-.71.05-.75-.8-.75-.7 0-.76.02-.81.23-.03.12-.22.97-.43 1.89l-.39 1.68.51-.01c.28 0 .74-.04 1.01-.07Zm1.45-.99c.06-.54.14-1.08.17-1.2.04-.2.01-.23-.24-.23h-.29l-.12.89c-.07.49-.15 1.03-.18 1.2-.06.29-.05.31.24.31h.3zm1.7.38c0-.32.03-.86.06-1.2l.07-.62-.69.03-.69.03-.15 1.18-.16 1.17h1.56zm2.5-.61v-1.2h-2.07l-.07.46c-.03.26-.06.8-.06 1.2v.74h2.2zm1 0v-1.2h-.83l.06.82c.04.46.07 1 .07 1.21 0 .36.01.37.35.37h.35zm-10.96.48c.73-1.08.97-2.34.5-2.64-.32-.22-.35-.18-.72.96-.57 1.76-.63 2.03-.5 2.12.24.15.36.08.72-.44Zm9.96-2.38v-.5h-2.2v1h2.2zm-9.81-1.5.2-.6h-.61c-.7 0-1.99-.59-2.44-1.13l-.25-.3.07.54c.04.3.14.83.23 1.19l.16.65.45.11c.25.06.8.12 1.22.12l.76.01zm3.24.46c.03-.07.09-.34.12-.6l.07-.46h-3l-.11.44c-.06.24-.13.51-.17.6-.05.14.1.16 1.49.16 1.22 0 1.56-.03 1.6-.14Zm1.9.06c.03-.04.08-.33.11-.64l.07-.58h-1.4l-.16.52c-.23.8-.24.78.59.78.41 0 .77-.03.79-.08Zm2.37-.57v-.65h-1.07l-.07.46c-.11.86-.13.84.54.84h.6zm2.3.08c0-.31.03-.53.08-.49.04.05.07.29.07.54v.47l.38.03.37.03v-.43c0-.24.05-.5.1-.58.07-.11.1.02.1.42v.58h6.1l-.1-.24c-.04-.13-.14-.42-.2-.65l-.11-.41h-4.5l-4.51.01.06.22c.03.12.06.41.06.65v.42h2.1zm12.41.38c.15-.05.14-.12-.07-.6l-.24-.54-.83.06c-.45.04-1.25.07-1.78.07h-.97l.15.6.15.59 1.72-.06c.94-.03 1.78-.09 1.87-.12Zm1.7-.1c.08-.08.55-1.55.64-2l.07-.34-.23.22c-.37.34-.87.63-1.53.87s-.66.23-.34.96l.2.48.57-.06c.31-.04.59-.09.62-.13Zm-1.61-1.65c1.31-.42 2.1-1.05 2.1-1.67 0-1.2-.53-3.67-.99-4.64-.49-1.03-.39-.99-1.66-.65-.6.16-1.8.42-2.65.57l-1.55.28h-7.1c-7.82 0-8.36-.04-10.85-.7l-.95-.26-.23.28c-1.13 1.37-1.78 5.35-1 6.1.43.41 1.06.73 1.65.83 1.06.19 22.63.06 23.23-.14Zm-31.74-.04c.11-.09 1.24-1.36 2.49-2.82 1.26-1.46 2.72-3.14 3.26-3.75 1.61-1.83 4.59-5.39 4.54-5.43-.1-.11-2.66 2.51-4.7 4.83-1.85 2.1-3.52 3.93-4.35 4.8-.47.49-1.02 1.1-1.22 1.35-.2.24-.4.42-.43.38-.04-.04.15-.31.42-.6s.62-.69.77-.88c.33-.41 4.18-4.76 5.53-6.26.57-.63.88-1.04.8-1.07-.07-.03-.05-.06.05-.06.2-.01.75-.58.7-.73-.01-.05.02-.07.07-.04.12.08 1.82-1.64 1.75-1.76-.03-.04-.13-.08-.24-.08-.21 0-.83-.66-.77-.83.05-.17 1.29-.57 1.85-.6l.47-.02.05.55.05.55.13-.42c.53-1.74 1.88-3.53 3.63-4.8.48-.34.59-.54.59-1.12 0-.18.06-.79.14-1.35.08-.55.19-1.46.26-2.01.06-.55.17-1.52.25-2.15.35-2.84.46-3.96.49-4.9.01-.36.05-.7.07-.75.03-.06.05-.93.05-1.95-.02-2.85-.55-3.62-3.08-4.5-.69-.24-.86-.39-.46-.41.43-.02-1.35-.28-2.66-.39-6.79-.54-14.5 1.43-15.16 3.89-1.06 3.94 9.73 5.55 18.69 2.79 1.1-.34 1.21-.44 1.21-1.09 0-.36.07-.36-.83.07-5.19 2.46-15.77 1.94-16.94-.83-.59-1.43 1.52-3.51 3.41-3.35.6.05 1.31-.07 2.26-.38 2.74-.89 9.28-.65 11.14.4.77.44.13.46-.74.03-2-1-7.09-.96-11.15.07-1.09.28-1.54.36-1.68.29-.54-.29-2.22.53-2.81 1.39-2.45 3.51 8.69 5.09 16.15 2.28.53-.2 1.02-.36 1.08-.36s.11-.19.11-.45c0-.47-.07-.52-.45-.34-.18.09-.18.09.03.05.19-.04.21-.02.11.1-.06.08-.17.14-.23.14s-.33.12-.59.26c-2.94 1.56-10.76 2.03-13.92.83-.35-.14-.53-.25-.43-.27.19-.04-.28-.52-.5-.52-.11 0-.42-.39-.42-.52 0-.05.09-.08.2-.08.31 0 .24-.28-.07-.32-.45-.05-.43-.38.01-.38.2 0 .36-.04.36-.09 0-.58 2.17-1.52 4.55-1.96 4.91-.9 9.52-.46 10.6 1.02.31.43.76.62.56.24-.09-.17-.06-.19.25-.23s.37 0 .5.23c.2.4.18.49-.16.49-.31 0-.36.06-.22.28.06.09.16.1.34.03.66-.25.43 2.77-.77 10.19-.14.85-.37 2.29-.5 3.19-.32 2.08-.33 2.09-2.12 3.35-.44.31-1.25.95-1.79 1.43-.87.75-2.97 2.51-3.88 3.23-.17.13-1.18.94-2.25 1.8-1.07.85-2.53 2.02-3.25 2.59S9.01 35.3 8.6 35.65c-.41.34-1.22.97-1.8 1.41-1.18.89-4.47 3.48-4.7 3.71-.08.08.13.01.47-.16 2.02-1 4.01-.75 5.72.73.69.6.84.65 1.17.38Zm8.34-1.05c-.38-.18-.7-.91-.7-1.57 0-.64.25-1.89.4-2.04.08-.08 1.91-.1 5.95-.07l5.83.03.12-.56c.15-.75.5-.54.5.3V37h3.12c1.72 0 4.39-.05 5.92-.11l2.79-.12.23.26c.72.84.61 2.91-.18 3.5l-.28.21-2.07-.28c-2.16-.3-7.13-.4-7.37-.16-.13.13-4.68.13-5.21 0-1.04-.24-5-.13-6.9.19-2.1.36-1.84.34-2.15.18Zm31.01-.36.12-.33-1.39-1.42c-2.34-2.39-5.14-5.34-6.44-6.76-1.38-1.52-1.92-2.09-2.15-2.28-.11-.09-.15-.32-.15-.79v-.66l.55.07c1.69.2 2.17.83 1.08 1.43l-.33.17.85.83.85.83.63.01c1.18.01 1.66.16.56.18l-.96.01 2.11 2.16c1.16 1.19 2.82 2.86 3.69 3.72 1.51 1.49 1.99 2.07 1.2 1.44-.21-.17-1.57-1.51-3.03-2.97-3.66-3.69-5.8-5.79-6.15-6.07l-.3-.23.32.4c.5.62 5.23 5.67 8.1 8.64 1.63 1.69 1.93 1.84 1.93.95 0-.21.04-.33.1-.29.11.07.13.54.04.79-.1.27-.39.37-.7.26-.21-.08-.31-.07-.45.06-.18.17-.19.16-.08-.15Zm-28.84-.35c.71-.14 1.65-.28 2.07-.32.61-.05.74-.09.6-.17-.11-.06-.68-.43-1.29-.82-1.82-1.19-3.42-1.66-3.58-1.04-.17.63.13 1.91.54 2.35.27.29.1.29 1.66 0Zm21.1-.08c.95-1.04.94-2.78-.01-2.65-.71.1-1.49.44-2.37 1.04-.46.31-1.12.73-1.47.94-.7.41-.66.48.21.5.29 0 1.08.09 1.77.18 1.66.24 1.64.24 1.87-.01Zm-15.7-.17-1.59-.06-.29-.33c-.17-.19-.29-.37-.27-.42.04-.11 12.59-.22 12.77-.11.14.09-.26.74-.52.85-.07.02.02.05.18.05.19.01.34-.06.42-.18.14-.22 1.72-1.33 2.55-1.81.32-.17.58-.34.58-.36s-4.31-.04-9.57-.04h-9.57l.9.53c1.55.92 2.34 1.49 2.34 1.68 0 .23.25.26 2.15.26l1.5-.01zM2.93 35.59c1.77-.9 3.78-2.09 6.04-3.61l2.53-1.68v-1.79l-.42-.05c-2.79-.36-4.98-.26-7.86.35l-1.02.22v3.43c0 1.89.02 3.44.05 3.44s.34-.14.68-.31Zm34.73-.54c1.73-.29 3.64-.74 3.64-.84 0-.18-.19-.17-1.48.11-3.36.71-3.09.7-10.91.65-7.64-.04-7.8-.05-9.93-.65-.63-.18-.68-.18-.83-.02-.2.23 1.46.6 4.1.93.17.02 3.37.05 7.12.06l6.81.01zm-27.45-1.16c.05-.1.09-.31.09-.48v-.31H7.8l-.57.38-.56.37 1.26.03 1.27.03v.9l.46-.37c.25-.2.49-.45.55-.55Zm27.04.53 1-.17.03-.43c.03-.35 0-.42-.15-.43s-.15-.02-.02-.06c.57-.15-1.42-6.7-2.09-6.88-.4-.1-11.02-.17-12.07-.08l-.89.08-.23.4c-1.11 1.96-2.39 6.43-1.85 6.46.11 0 .08.04-.09.1-.24.09-.51.71-.37.84.04.04 2.48.34 3.18.39 1.79.13 12.59-.05 13.55-.22Zm-13.8-.29c-1.02-.28-1.29-1.76-.8-4.48.26-1.44.04-1.4 7.3-1.4 6.69 0 6.33-.09 6.6 1.61.42 2.57.22 3.7-.73 4.12-.37.16-11.82.3-12.37.15Zm-12.22-.92c.52-.4.57-.47.57-.82V32H9.46l-.65.43-.65.42 1.12.03 1.12.03v.45c0 .51-.04.52.83-.15Zm9.72-2.84c.26-.9.94-2.57 1.47-3.6.56-1.12.01-.58-.66.64-.7 1.28-1.73 5.05-1.51 5.56.05.12.13-.12.26-.77.09-.52.29-1.35.44-1.83Zm14.36 2.49c.71-.26.84-.47.82-1.2-.04-1.18-.25-2.55-.41-2.68-.17-.15-9.25-.25-11.09-.13-1.33.09-1.29.05-1.48 1.55-.35 2.85-.7 2.71 6.4 2.67 4.78-.03 5.35-.05 5.76-.21Zm3.33-.96c-.3-2-.83-3.79-1.46-4.88-.46-.81-.45-.49.01.62.57 1.36 1.08 3.13 1.26 4.36.12.82.17 1.02.25.93.05-.04.02-.51-.06-1.03Zm10.88.4c1.04 0 1.19-.02 1.08-.14-.32-.39-.91-.53-2.12-.48l-1.16.04.04.3c.02.17.11.36.21.43s.29.22.43.33l.25.2.03-.34.03-.34zm-37.04-.14a.7.7 0 0 0 .22-.53v-.33h-1.11c-.99 0-1.13.02-1.45.24l-.34.23.67.06c.38.04.85.07 1.06.07.36 0 .37.01.37.36 0 .4.01.39.58-.1Zm34.72-.36v-.3h2.35l-.45-.27c-.41-.25-.56-.28-1.67-.31l-1.23-.04v.24c0 .15.15.36.42.6.52.45.58.46.58.08Zm-33.62-.49c.23-.18.32-.33.32-.53v-.28h-1.06c-.97 0-1.09.02-1.52.28l-.47.27 1.05.03 1.06.03-.04.36c-.05.4-.1.41.66-.16Zm36.66-3.52c.03-2.05.04-3.74.02-3.77-.03-.02-.34.06-.7.18-.65.21-.66.22-.67.58-.02.74-.15.93-.23.34l-.08-.52-.47.25c-.52.29-1.1.79-1.58 1.39l-.32.39-.07-.62-.07-.62-.46.06c-1 .13-.91-.02-.91 1.5v1.35l.83.54c.83.55 4.47 2.66 4.58 2.66.03 0 .09-1.67.13-3.71ZM46 30.95v-.25h2.05l-.4-.25c-.35-.21-.52-.24-1.37-.25h-.98v.25c0 .16.11.36.28.5.34.31.42.31.42 0Zm-30.62-1.08c.12-.11.23-.3.23-.41.01-.17.02-.18.06-.04.07.29.43.03.43-.3v-.27l-1.03.1c-.82.08-1.11.15-1.5.38-.65.38-.61.41.53.34.95-.05.99-.04.9.13-.24.44-.07.47.38.07Zm-2.52-.41c1.04-.7 1.05-.71.24-.8-.3-.04-.72-.09-.92-.12l-.38-.06v.81c0 .45.02.81.05.81s.48-.29 1.01-.64Zm32.02-.17q.78 0 .57-.09c-.11-.05-.59-.09-1.07-.09-1.09-.01-1.17-.19-.1-.23l.77-.03-.4-.25c-.62-.38-1.85-.43-1.85-.07s1.23 1.3 1.28.98c.03-.19.11-.21.8-.22Zm-27.89-.72c.57-.52.54-.55-.56-.49-.85.04-1.04.09-1.43.33l-.45.29.88-.07.87-.06v.27c0 .32.09.29.69-.27ZM3.6 28.44c2.66-.54 3.42-.57 7.13-.29l.77.05v-.94c0-1.1.16-.97-1.53-1.26-1.62-.27-1.53-.29-1.61.3-.07.51-.2.65-.31.32-.09-.29-1.07-1.02-1.63-1.22-.25-.09-.26-.09-.08.05.29.22.27.22-1.84.34-2.61.16-2.44.1-2.36.74.03.29.06.89.06 1.35 0 .45.03.82.08.82.04 0 .63-.11 1.32-.26Zm39.03-.03c-.03-.11-.12-.22-.22-.24-.09-.02.11-.07.44-.11s.64-.09.69-.1c.41-.1-.71-.47-1.37-.45-.41.01-.79-.01-.86-.05-.23-.15.02-.26.57-.26.91 0 .47-.24-.56-.31-.48-.03-.88-.04-.89-.04-.05.02 2.11 1.74 2.19 1.75.03 0 .04-.09.01-.19Zm-27.39-.48c.6-.38.84-.58.75-.63-.2-.11-2.09-.57-3.21-.79l-.98-.18v1.86l.32.05c2.1.35 2.09.35 3.12-.31Zm3.23-.56c.4-.32.75-.62.78-.67.11-.19-1.18-.11-1.6.09l-.4.19.67.01c1.04.01.83.28-.24.3-.63.02-.91.07-1.27.26l-.46.24.82.01c.73 0 .82.02.76.17-.08.21.03.14.94-.6Zm25.93-.51v-1.23l-1.28-.06c-.7-.04-1.48-.1-1.74-.13-.67-.09-.69.27-.05.68.23.15.98.65 1.67 1.12s1.28.85 1.33.85c.04.01.07-.55.07-1.23Zm-26.37-.66c.4-.26.56-.41.47-.44-.72-.26-4.43-1.1-5.5-1.26-.41-.06-.85-.13-.97-.16-.19-.04-.23 0-.23.21 0 .27-.07.25 1.4.5 1.1.18 4.03.98 3.79 1.03-.09.01-.88-.15-1.75-.37s-1.93-.45-2.34-.51-.83-.14-.92-.16c-.14-.04-.18.01-.18.18 0 .22.09.25 1.55.56.86.18 2.04.48 2.63.66 1.18.36 1.08.37 2.05-.24Zm-9.68-1.36c.27-1.35.57-2.15 1-2.66l.25-.3-.3-.39c-.55-.69-1.23-1.21-2.16-1.65-.88-.42-2.6-.92-2.73-.79-.09.09-.07 4.09.02 4.76l.08.57.77.27c1.01.37 1.77.75 2.32 1.18.55.42.45.55.75-.99ZM35 25.88c-.79-.1-10.16-.11-10.74-.01-.29.05 1.87.08 5.4.08 3.24 0 5.64-.03 5.34-.07Zm-11.15-.63c.59-.5 1.94-1.45 2.07-1.45.05 0-.36.39-.89.87l-.98.86.79-.06c.44-.04 1.66-.07 2.73-.07h1.93v-1.93l-1.32.07c-1.91.1-2.76.23-3.16.46-.68.41-2.02 1.7-1.76 1.7.04 0 .3-.2.59-.45Zm12.09.23c-1.06-1.76-1.59-1.97-4.96-1.98H29.6v.96c0 .86.02.95.18.92.14-.03.18-.17.23-.78l.05-.75.02.77.02.78 2.13.01c1.16.01 2.39.05 2.72.09.97.12 1.07.11.99-.02Zm11.42-.43c1.53-.94 1.36-.58 1.32-2.8-.01-1.06-.06-1.97-.1-2.01-.25-.24-2.22.57-2.96 1.21l-.42.37.2.33c.26.43.86 2.26.95 2.93.04.28.08.52.1.52.01 0 .43-.25.91-.55Zm-28.16.36c0-.15-5.64-1.48-6.97-1.64-.36-.04-.43-.02-.43.13 0 .14.18.2 1.07.34 1.01.15 3.88.79 4.98 1.1.57.16 1.35.2 1.35.07Zm25.2-.36c0-.25-.01-.25-.87-.25-.82 0-2.05-.13-2.45-.26-.14-.04-.18.01-.18.25 0 .29.02.3.58.36.31.03.66.07.77.09s.64.04 1.18.05l.97.01zm-24.46-.21c.53-.37.4-.42-1.22-.5-1.73-.09-1.85.06-.39.48 1.16.33 1.15.33 1.61.02ZM4.9 24.78c-.38-.14-.89-.22-1.67-.25l-1.13-.06V25l1.68-.01h1.67zm12.14-2.57.05-2.24-.56.07c-.74.09-.74.09-.23.61l.43.44-.32.7c-.3.66-.71 1.95-.71 2.25 0 .11 1.12.48 1.27.42.01-.01.04-1.02.07-2.25Zm27.39 2.07c.09-.32-.02-.41-.39-.35s-2.42-.07-2.86-.18c-.3-.08-.44.4-.15.5.78.3 3.33.33 3.4.03ZM4.14 23.23c-.1-1.52-.1-3.48-.01-3.94.09-.43.04-.44-1.41-.56l-.84-.06.06 1.49c.03.82.09 2.08.12 2.81l.06 1.32.97.04c.53.01 1 .04 1.04.05.05.01.05-.51.01-1.15Zm17.26.64c.7-.49 1.2-1.04 1.2-1.33 0-.11-.58-.33-1.92-.7-.17-.05-.18.06-.18 1.25 0 .72.03 1.31.08 1.31.04-.01.41-.24.82-.53Zm-15.11.2c-1.24-.84-1.24-3.47.01-3.47.28 0 .34.17.1.3-1.09.58-.3 3.04.93 2.85.46-.07.48.08.05.35-.43.26-.67.25-1.09-.03Zm8.99-.09c-.15-.46-1.55-1.04-2.75-1.15l-.73-.06v.37c0 .35.01.36.39.36.44 0 2.38.35 2.74.5.31.12.39.12.35-.02Zm25.32-.12c0-.26-.48-.36-2.37-.51-1.33-.1-.58.42.81.56.49.05.92.11.94.14.18.17.62.04.62-.19Zm-24.92-1.05c-.07-.38-1.94-1.11-3.25-1.26l-.63-.07v.99l.82.06c.9.05 1.68.3 2.38.75l.45.29.13-.3c.07-.16.12-.37.1-.46Zm28.76.48c.08-.43.08-.87-.01-.92-.31-.19-2.36.54-2.5.89-.1.27.16.34 1.33.34h1.12zm2.18.14c-.35-.25-.28-.43.18-.43.67 0 1.06-1.13.58-1.67-.23-.25-.23-.33.01-.33.11 0 .31.14.45.31.78.92-.28 2.77-1.22 2.12Zm-26.44-.4c-.03-.55-.42-.84-1.67-1.23-1.09-.34-1.12-.33-1.09.53l.03.72 1.15.21c1.7.32 1.62.33 1.58-.23Zm-8.68-.82c0-1.4.08-1.31-1-1.19-1.18.13-1.15.11-.84.58l.27.41-.21.14c-.26.19-.66.84-.57.93.06.06 1.44.26 2.13.3.22.02.22 0 .22-1.17ZM26 23.22c0-.1.05-.65.1-1.23.06-.57.19-2.25.3-3.73.1-1.47.22-2.71.26-2.75.09-.08-.03 2.33-.27 5.24-.1 1.32-.19 2.43-.19 2.48 0 .04.14.07.3.07s.3-.03.3-.07c0-.05.09-1.59.21-3.43.26-4.45.37-10.75.19-11.5-.21-.89-.46-1.37-1.02-1.98l-.53-.56.51.41c1.52 1.25 1.67 3.52.98 14.51-.09 1.4-.14 2.55-.12 2.57.01.01.36 0 .77-.03l.74-.05-.06-5.46c-.09-7.59-.24-9.24-.97-10.6-.33-.61-.34-.78-.01-.32.91 1.28 1.08 2.81 1.18 11.14l.06 5.28.31-.03.31-.03-.01-2.8c-.02-4.25-.48-10.25-.89-11.87-.25-.95-1-2.18-1.25-2.03-.04.02-.16-.05-.26-.16-.26-.28-1.3-.8-1.68-.84-.17-.01-.58-.11-.91-.23-.93-.31-1.58-.38-.73-.07 2.81 1 3.44 2.25 3.18 6.32-.14 2.22-.28 3.84-.45 5.18-.08.61-.25 2.2-.4 3.55-.14 1.35-.28 2.62-.31 2.83-.05.33-.03.37.15.37q.21 0 .21-.18Zm24.29.02c.02-.02.06-.76.09-1.65l.05-1.61-.71.04c-.89.05-.82-.13-.75 1.76l.06 1.61.61-.06c.34-.03.63-.07.65-.09Zm-16.23-.12c-.03-.09-.37-2.08-.76-4.42-1.01-6.17-1.17-6.99-1.77-9.05-.75-2.61-1.77-3.98-3.5-4.7-.46-.2-.45-.18.48.44 2.08 1.39 2.69 3.33 3.94 12.71.71 5.33.68 5.2 1.33 5.2.27 0 .32-.03.28-.18Zm6.54-.28v-.47l-.62.07c-.35.03-.96.09-1.36.13-1.53.13-.57.51 1.81.72.14.01.17-.07.17-.45Zm-9 .12c0-.34-.47-5.01-.71-6.96-.1-.91-.26-2.26-.34-3-.45-4.05-1.12-6.22-2.12-6.87-.13-.09-.22-.18-.19-.2.23-.23 1.24 1.08 1.57 2.04.48 1.35 1.25 6.93 1.85 13.36l.17 1.87h1.18l-.06-.32c-.11-.66-.64-4.37-.8-5.58-.57-4.45-1.39-8.5-1.99-9.77-1.62-3.4-7.41-4.77-15.91-3.77C5.35 4.8.05 8.44 3.32 11.25c2.54 2.17 11.1 2.84 18.12 1.4 2.65-.54 3.02-.67 3.09-1.12.08-.47.09-.46-.44-.28-4.43 1.57-12.03 2-15.84.9-4.2-1.22-4.99-4.17-1.59-5.88 4.83-2.43 16.83-2.9 20.44-.8 2.44 1.42 2.6 2.14 3.71 16.1.12 1.59.12 1.59.62 1.62.12.01.17-.06.17-.23Zm-.84-.08c-.03-.13-.12-1.11-.21-2.18-.84-10.66-1.12-12.6-1.95-13.62-.13-.16-.1-.04.1.37.69 1.46 1.4 8.92 1.4 14.64v1.01h.35c.31 0 .35-.03.31-.22Zm6.74-1.33c0-1.62.08-1.47-.82-1.59-.41-.05-.46.02-.28.48.08.21.17.26.47.28l.38.01-.38.04c-.27.03-.37.08-.34.17.03.08.15.46.27.87.53 1.77.7 1.71.7-.26Zm6.35.47c.59-.07.6-.07.63-.41l.03-.33-.48.07c-.96.14-2.43.81-2.43 1.1 0 .41.1.41.88.03.48-.24.99-.41 1.37-.46Zm-21.07-.14c.03-.26 0-.28-1-.58-.57-.17-1.09-.33-1.16-.35-.1-.04-.12.05-.1.32l.03.36.95.27c1.13.33 1.24.33 1.28-.02Zm-6.76-.04c.2-.44-1.05-1.08-2.7-1.4-1.27-.24-1.52-.21-1.52.21 0 .35 0 .35.45.35.78 0 1.97.3 2.75.69.93.47.88.46 1.02.15Zm26.14-.23c.44-.22 1.08-.45 1.44-.52.91-.16.9-.16.9-.44 0-.21-.05-.25-.3-.25-.88 0-2.9 1.02-2.9 1.47 0 .17-.03.18.86-.26Zm-19.14-.71c.18-.81.48-2.54.44-2.57-.04-.05-3.84.57-4.1.67-.17.06-.09.1.36.19.32.07.62.1.67.06.06-.03.11.23.13.67l.03.73 1.05.32c1.26.38 1.32.37 1.42-.07Zm20.03-.6c.33-.11.79-.22 1.03-.26.45-.07.69-.74.26-.74-1.09 0-3.7 1.42-3.36 1.83.11.13.21.11.8-.24.36-.21.94-.48 1.27-.59Zm-27.86-.06c-.55-.57-1.84-1.16-2.68-1.22l-.71-.05v.89l1.08.11c.59.07 1.41.23 1.82.36.41.14.77.25.79.26.03.01-.11-.15-.3-.35Zm-5.06.05c1.45-.24 1.37-.2 1.37-.75 0-.53.17-.51-1.92-.18-2.1.32-2 .27-1.37.74.64.47.45.45 1.92.19Zm6.02-.97c.74-.16.91-.22.93-.39.03-.18.08-.19.59-.12.38.05.93.02 1.77-.11 4.34-.67 4.16-.61 4.16-1.18 0-.32-.01-.33-.32-.27-1.11.18-4.51.71-6.78 1.05-1.46.22-2.8.42-2.99.46-.33.05-.32.06.48.39.45.18.85.35.88.39.04.03.14.04.22.01.09-.03.57-.13 1.06-.23Zm1.2-4.37c3.06-.34 6.6-1.02 6.83-1.32.31-.42.36-.42-2.14.1-5.69 1.2-12.03 1.3-16.04.27-1.32-.34-2.76-.91-2.72-1.08.02-.12-.08-.15-.43-.13-.37.03-.64-.26-.41-.44.11-.08.16-.15.11-.15-.04 0-.06-.02-.03-.05s.56.19 1.19.49c2.64 1.24 4.62 1.59 9.24 1.6 5.09.02 11.45-.98 11.45-1.8 0-.13-.01-.24-.02-.24-.02 0-.65.16-1.41.35-7.68 1.94-17.14 1.35-19.9-1.24C-.69 7.79 6.75 3.75 17.9 3.25c3-.14 8.88.64 10.2 1.35.12.07.16.03.16-.15 0-.23-.72-.45-.97-.29-.05.03-.06-.02-.03-.1q.06-.15-.18-.21c-3.52-.81-5.36-1.05-8.02-1.05-1.79 0-4.2.2-6.25.51-2.27.34-5.18.99-5.05 1.11.03.04-.15.1-.4.13-.25.04-.46.11-.46.16s-.1.09-.22.09c-.13 0-.45.11-.73.25-.27.13-.63.25-.8.25-.24.01-.26.03-.11.09.23.09-.18.29-.66.33-.16.01-.28.06-.28.11 0 .04-.04.06-.08.03-.04-.02-.14-.01-.22.05-.12.07-.12.09.03.09.29 0 .09.19-.32.3-.38.1-.95.5-.71.5.23 0-.35.38-.65.43-.29.04-.29.05-.07.12s.23.08.04.25c-.1.1-.28.29-.38.42-.12.15-.29.25-.43.24-.13-.01-.26.05-.28.12-.03.07.05.12.22.12.22 0 .26.03.2.18-.16.41-.17 1.2-.01 1.74.09.31.16.58.16.6s-.14.05-.32.06c-.43.03-.43.02.01.68 1.85 2.75 8.38 4.05 16.06 3.19Zm18.75-3.14c.71.04 1.33.04 1.95 0 .28-.01.88.01 1.35.05 1.15.09 1.83-.1 2.34-.66.72-.8.34-1.87-.74-2.05a2 2 0 0 1-.71-.28c-.57-.41-1.68-.32-2.29.19l-.29.25-.3-.22c-.41-.3-.99-.22-1.53.21-.42.34-.56.35-.39.02.2-.37-1.01-.46-1.56-.12-.41.25-.42.44-.06 1.59.35 1.15.34 1.15 1.08 1.06.33-.04.85-.05 1.15-.04Zm11.65-1.13c-.92-.33-1.37-1.13-1.14-2.04.27-1.06 1.59-1.64 2.59-1.12 1.91.98.58 3.88-1.45 3.16Zm-30.1-.08c5.16-.58 7.31-1.75 6.1-3.34-1.68-2.2-13.26-1.47-14.68.92-1.08 1.84 3.15 3.02 8.58 2.42Zm31.55-.59c.73-.51.67-1.66-.1-2.06-.89-.46-2 .12-2 1.05 0 1.02 1.23 1.61 2.1 1.01ZM36.4 8.64c.19-.07.45-.13.58-.14.6-.01.16-.32-.83-.6-1.02-.29-2.98-.14-2.06.15.13.04.24.18.27.33.05.25.1.27.54.28.26.01.56.07.67.13.1.06.25.08.33.04.08-.03.31-.12.5-.19Z"/></svg>