<svg xmlns="http://www.w3.org/2000/svg" width="51" height="51" viewBox="0 0 51 51"><path fill="#fff" fill-rule="evenodd" stroke="#fff" stroke-width=".744" d="M13.35 36.53c-1.18-.62-1.2-.71-1.2-5.23 0-4.76.18-5.89 1.34-8.17 1.34-2.66 4.33-5.35 7.14-6.44 8.33-3.21 17.45 2.4 18.28 11.25.18 1.93.08 6.9-.14 7.41-.7 1.57-2.56 1.82-3.52.47l-.3-.44-.05-3.46c-.05-3.24-.06-3.49-.25-3.81a1.768 1.768 0 0 0-3.01-.06c-.18.27-.19.55-.24 3.7-.05 3.26-.06 3.42-.27 3.81-.81 1.51-2.82 1.52-3.57.03l-.26-.53v-3.2c0-2.91-.02-3.25-.19-3.62-.45-.99-1.66-1.31-2.63-.68-.71.46-.72.48-.78 4.36l-.05 3.46-.3.43c-.83 1.17-2.47 1.17-3.3 0l-.3-.43-.05-3.52-.05-3.53-.28-.36c-.66-.86-1.76-.99-2.59-.29-.56.47-.58.61-.58 4.04 0 3.47-.03 3.69-.58 4.3-.6.67-1.57.89-2.27.51Zm9.4-.47c.7-.53.69-.52.75-4.36.05-3.4.05-3.46.28-3.83.72-1.14 2.64-1.19 3.39-.08.39.58.43.95.43 4.19 0 2.93.01 3.15.2 3.52.71 1.38 2.77 1.14 3.2-.38.06-.22.1-1.62.1-3.37 0-3.31.04-3.57.56-4.15.85-.94 2.49-.79 3.16.27.23.37.23.43.28 3.84l.05 3.46.28.42c.83 1.25 2.74.97 3.14-.47.14-.48.09-7.49-.05-8.24-1.59-8.41-10.66-13.18-18.39-9.68-3.73 1.69-6.54 5.13-7.49 9.15-.26 1.08-.33 8.29-.09 8.91.55 1.43 2.49 1.56 3.14.21.2-.41.21-.6.21-3.58 0-1.88.04-3.29.11-3.52.49-1.78 3.09-1.86 3.85-.12.05.11.11 1.76.14 3.66l.05 3.46.28.36c.61.8 1.62.93 2.42.33Zm1.46-24.32c-2.06-.55-3.32-2.19-3.66-4.77-.11-.86.16-.82-5.7-.82-4.56 0-5.18.02-5.86.18-1.57.37-3.27 1.45-5.38 3.41-1.12 1.05-1.48 1.28-2.29 1.45-.65.14-.72.14-.72.01 0-.05.06-.1.14-.1.09 0 .16-.18.21-.57C1.39 7 4.71 3.38 8.41 2.42c1.61-.43 1.97-.43 17.79-.4l15.15.03.98.27c4.1 1.13 7.34 4.54 7.82 8.24.05.39.12.54.28.63.18.09.1.1-.38.05-.95-.1-1.57-.38-2.33-1.07-2.66-2.43-4.21-3.45-5.87-3.83-.72-.17-9.94-.34-10.7-.2-.55.11-.64.24-.85 1.35-.61 3.19-3.23 5.02-6.09 4.25Zm2.58-.33c1.78-.55 2.91-1.93 3.26-3.99.18-1.07.28-1.26.7-1.44.52-.22 9.85-.18 10.95.05 1.66.35 3.47 1.46 5.65 3.45.95.87 1.65 1.32 2.28 1.46l.29.07-.07-.53c-.53-3.83-4.03-7.22-8.28-8.03-1.24-.23-30.69-.23-32.08.01-3.82.65-6.98 3.45-8.04 7.1-.3 1.04-.32 1.34-.07 1.34.41-.01 1.07-.45 2.2-1.48C5.82 7.36 7.37 6.4 9.05 6.04c1.09-.23 10.59-.28 11.13-.05.43.18.58.49.72 1.49.44 2.97 3.16 4.78 5.89 3.93Z"/></svg>