<svg xmlns="http://www.w3.org/2000/svg" width="51" height="51" viewBox="0 0 51 51"><path fill="#fff" fill-rule="evenodd" stroke="#fff" stroke-width=".661" d="M37.05 49.99c-3.15-.4-6.15-2.24-7.91-4.86-.33-.48-.63-.83-.72-.83-.1 0-.69.05-1.31.1-2.86.26-6.51-.5-9.46-1.95-2.28-1.12-2.88-1.72-2.67-2.63.18-.82-.52-1.27-1.54-.97-.27.08-1.05.25-1.74.39-6.62 1.32-9.36-.54-7.18-4.89.83-1.65 1.84-2.88 2.36-2.88.83 0 .91.61.22 1.67-1.84 2.83-1.01 3.57 2.85 2.56 1.57-.41 1.5-.35 1.14-.98l-.3-.53-.42.06c-1.11.16-1.88-1.11-2.68-4.39-1.64-6.79.93-14.42 6.37-18.87 7.49-6.12 18.19-5.61 25.05 1.21 2 1.99 2.38 2.74 1.75 3.47l-.24.28.41.77c.23.43.45.78.48.78.43.01 2.5-2.74 2.64-3.5.15-.8-.92-1.13-2.56-.81-.74.15-.91.1-1.15-.34-.51-.96.16-1.3 2.61-1.3 2.01 0 2.7.15 3.53.76 1.9 1.4.71 4.92-2.94 8.69l-.63.65.14.65c.08.36.16.81.19 1 .05.3.13.39.48.55.95.45 1.13 1.51.72 4.36l-.06.46.78.55c2 1.4 3.68 3.78 4.38 6.22 2.28 7.85-4.4 15.57-12.59 14.55Zm2.64-.19c6.12-.63 10.78-6.28 10.13-12.28-.37-3.4-2.26-6.57-4.94-8.31-.55-.36-.67-.48-.63-.65.34-1.49.35-3.59.02-4.07-.31-.46-.85-.64-1.32-.45-.55.23-.62.45-.73 2.14-.12 1.79-.06 1.67-.73 1.48-.93-.26-2-.37-3.27-.35-1.42.03-1.41.03-1.13-.54.17-.36.54-.71 1.84-1.73 6.65-5.26 9.97-10.79 7.53-12.55-1.26-.92-5.81-1.09-5.87-.22-.05.72.1.79 1.39.64 2.6-.3 3.13.74 1.48 2.87-1.1 1.42-4.49 4.47-6.61 5.94-1.37.95-1.28.92-3.3.99-3.28.1-4.76 1.26-5.03 3.93l-.07.71-1.55.89C15.78 34.59 7 37.72 5.95 35.71c-.26-.51-.01-1.19.95-2.67.64-.98.64-1.34-.01-1.34-.5 0-1.9 1.92-2.51 3.45-.44 1.09-.47 2.41-.08 2.97 2.1 3.08 13.16.36 24.13-5.92.59-.35 1.11-.6 1.14-.57.03.04-.16.39-.41.79-1.67 2.6-2.23 5.45-1.65 8.34.12.58.18 1.08.15 1.12-.15.14-3.11.06-4.06-.11-2.2-.4-4.34-1.17-6-2.15-1.34-.8-2.13-.74-2.41.18-.31 1.01 1.55 2.29 5.02 3.44 2.5.83 5.76 1.18 7.99.84l.45-.07.6.9c1.35 2.02 3.24 3.5 5.47 4.28 1.12.39 2.22.59 3.69.69.15.01.72-.03 1.28-.08Zm-2.7-1.75c-8.39-1.59-10.74-12.62-3.69-17.3 7.86-5.23 17.67 2.92 14.02 11.64-1.65 3.95-6.21 6.44-10.33 5.66Zm1.21-2.75v-2.7h-8l.21.43c1.36 2.67 4.55 4.74 7.67 4.96.09.01.12-.59.12-2.69Zm2.55 2.39c2.52-.64 4.96-2.51 6.04-4.66l.21-.43h-8.5v5.43l.73-.07c.39-.04 1.08-.16 1.52-.27Zm6.69-6.21c.14-.46.27-.99.29-1.18l.02-.35-9.17-.03-9.18-.02.06.32c.08.48.34 1.38.49 1.76l.14.32h17.09zm-20.63.26.66-.07-.14-.66c-.6-2.88-.18-5.52 1.31-8.14.24-.42.43-.77.42-.77-.02 0-.38.21-.82.46-3.08 1.77-8.65 4.3-11.86 5.39l-1.88.63.35.31.35.31.41-.21c.58-.31 1.02-.22 2.13.46 2.49 1.5 6.54 2.53 9.07 2.29Zm21.03-3.34c-.01-1.29-.15-2.06-.55-3.07l-.21-.53H30.12l-.25.63c-.45 1.12-.78 3.92-.5 4.2.03.04 4.21.06 9.27.05l9.21-.03zm-34.86-3.66c3.77-1.35 7.93-3.36 13.4-6.46l1.92-1.09v-.42c.01-1.92 1.51-3.73 3.46-4.17.27-.07 1.13-.11 1.92-.11 1.61.01 1.65 0 2.97-.89.97-.65 3.05-2.33 3.93-3.16l.73-.69-.26-.53c-.45-.95-.6-1.12-.94-.99-.58.22-1.01-.03-1.97-1.14-6.04-6.98-16.5-7.53-23.13-1.23-4.81 4.57-6.28 10.85-4.06 17.36.5 1.46.55 1.97.25 2.46-.11.18-.2.36-.2.4 0 .1.59 1.12.65 1.12.03 0 .63-.21 1.33-.46Zm33.85-.27c.04-.01 0-.12-.08-.25l-.16-.22H30.61l-.16.23-.15.22 1.57.05c1.37.04 14.75.01 14.96-.03Zm-36.11-.59c.59-.29.6-.96.04-2.56-1.82-5.31-1.24-10.37 1.68-14.77 5.99-8.99 18.75-9.81 25.81-1.65.98 1.12 1.3 1.31 1.87 1.07 1.32-.55.98-1.57-1.24-3.73C28.1 1.79 10.26 7.64 7.7 22.47c-.53 3.07-.3 5.97.71 9.08.73 2.23 1.33 2.84 2.31 2.33Zm35.61-.39c-.28-.48-1.49-1.75-2.13-2.24-3.95-3.04-9.69-2.35-12.8 1.53-.91 1.15-1.85 1.02 7.2 1.02h7.91zm-14.52-4.37c-1.51-.73-1.8-2.71-.55-3.8 1.51-1.33 3.73-.3 3.74 1.74 0 .73-.08.85-.85 1.13-.52.19-1.05.48-1.8.97-.17.11-.26.1-.54-.04Zm.92-.46c.29-.19.82-.46 1.18-.61.86-.36.89-.4.89-.97 0-1.39-1.2-2.39-2.52-2.08-1.73.42-2.17 2.75-.7 3.75.47.32.51.32 1.15-.09Zm-18.02.11c-.6-.3-.86-1.68-.46-2.5.59-1.25 1.95-.55 1.95 1.01 0 1.27-.65 1.93-1.49 1.49Zm.81-.18c.71-.38.61-2.31-.14-2.67-.63-.3-1.08.27-1.08 1.36 0 1.08.55 1.67 1.22 1.31Zm26.42-1.4c.03-.17.06-.7.06-1.18.01-1.4.18-1.82.96-2.27.18-.1.09-1.62-.11-1.82-.03-.03-.47.35-.98.84-.98.95-2.21 2.01-3.52 3.01-.67.51-1.15 1.04-1.15 1.26 0 .02.75.07 1.68.1.96.03 1.9.12 2.22.2.77.21.77.21.84-.14Zm-27.36-2.86c-2.25-2.41 1.21-10.34 4.17-9.55.83.23.79.72-.17 2.28-1.27 2.07-1.73 3.18-2.14 5.18-.29 1.46-.39 1.77-.65 2.1-.29.37-.86.36-1.21-.01Zm1.14-.29c.1-.18.32-.96.49-1.75.47-2.2.99-3.45 2.21-5.38.95-1.48.95-1.91 0-1.91-2.44.01-5.18 5.54-4.17 8.41.35.97 1.09 1.29 1.47.63Z"/></svg>