<svg xmlns="http://www.w3.org/2000/svg" width="51" height="51" viewBox="0 0 51 51"><path fill="#fff" fill-rule="evenodd" stroke="#fff" stroke-width=".336" d="M24.55 49.32c-.22-.22-.02-.84.46-1.41.62-.74.57-.74 1.19 0 .63.76.72 1.39.2 1.39-.27 0-.3-.03-.3-.31 0-.18-.1-.47-.22-.67l-.21-.35-.29.32c-.19.21-.28.42-.28.65 0 .32-.36.57-.55.38Zm-4.45-1.07c0-.85-.03-1.07-.15-1.11-.17-.07-.21-.59-.05-.69.06-.03.1-.15.1-.26 0-.1.07-.19.15-.19.12 0 .15-.14.15-.65 0-.48.06-.77.22-1.08.12-.23.21-.54.19-.7-.02-.17.03-.29.13-.33.12-.05.16-.2.16-.59 0-.3.04-.56.09-.6.05-.03.07-.22.04-.41-.05-.3-.02-.4.16-.53.17-.13.22-.27.22-.66.01-.28.06-.55.11-.62s.12-.56.15-1.1c.02-.54.08-1.07.13-1.18s.1-.29.12-.4c.04-.25.46-.33.54-.11.03.09.03.24-.01.34-.15.34-.11.62.07.62.12 0 .18-.1.2-.32.05-.51.48-.54.48-.04 0 .47.27.5.32.04.05-.51.48-.54.48-.04 0 .29.04.36.19.36s.19-.07.17-.32c-.02-.5.47-.49.52 0 .03.25.08.32.2.3.27-.05.27-.59.01-.87-.21-.22-.15-.4.13-.41.04 0 .08-.1.1-.22.04-.29.32-.3.36-.02.02.12.12.24.23.27.1.03.19.13.19.22 0 .12-.06.15-.22.1-.17-.05-.19-.04-.09.04.12.08.12.12.02.25-.1.12-.1.2.01.42.2.42.36.41.4-.03.04-.52.41-.56.46-.05.04.43.3.43.34 0 .02-.23.09-.34.22-.36.23-.05.37.16.29.45-.04.18-.01.23.15.23s.2-.06.18-.32c-.01-.29.02-.33.24-.33s.25.04.24.33c-.02.26.02.32.18.32.17 0 .19-.06.16-.52-.03-.56.41-.86.5-.33.02.11.06.27.09.35.04.08.08.54.09 1.02s.08 1.04.15 1.25.11.57.1.79c-.02.32.02.45.18.56s.21.3.27 1.03c.06.72.11.93.26 1.04.13.08.18.22.16.4-.01.15.06.44.16.65s.19.67.21 1.04.08.68.14.7.11.12.11.22c0 .09.07.23.15.3.21.17.19.48-.05.62-.18.11-.2.24-.2 1.15v1.03h-.6v-1.6h-.29c-.17 0-.33-.04-.36-.1-.04-.06.08-.1.29-.1.2 0 .36-.04.36-.1s-.52-.1-1.35-.1-1.35.04-1.35.1.16.1.36.1c.21 0 .33.04.29.1-.03.06-.17.1-.31.1-.23 0-.24.02-.24.8v.8h-.6v-2.1h-3.37l.05 1.05.05 1.05h-.63v-1.6h-.3c-.16 0-.3-.04-.3-.1 0-.05.14-.1.3-.1.17 0 .3-.04.3-.1s-.53-.1-1.4-.1-1.4.04-1.4.1.16.1.36.1c.21 0 .33.04.29.1-.03.06-.17.1-.31.1-.23 0-.24.02-.24.8v.8h-.6zm-4.55-.43c-.62-.21-1.09-.54-1.31-.91-.14-.24-.23-.28-.69-.29-.66-.02-1.28-.26-1.58-.62-.14-.16-.38-.3-.62-.34-1.03-.2-1.64-1.36-.71-1.36.41 0 .44-.02.5-.32.07-.38.41-.98.56-.98.14 0 .5.75.5 1.05 0 .23.04.25.4.25.31 0 .4-.04.4-.18 0-.22.57-1.22.7-1.22.18 0 .69.92.76 1.36.06.4.09.44.34.44.15 0 .41.03.57.06.27.05.31.02.43-.28.22-.55.81-1.48.94-1.48.21 0 .85 1.21.97 1.82.13.63.1.62 1.02.72.94.11 1.08.39.58 1.18-.72 1.13-2.32 1.6-3.76 1.1Zm17.85.03c-.84-.27-1.76-1.3-1.68-1.88.03-.24.45-.41 1.28-.52.45-.06.46-.06.47-.45.03-.63.71-2 1-2 .13 0 .86 1.19.98 1.59.06.21.11.23.44.17.2-.03.48-.06.63-.06.25 0 .28-.04.28-.32 0-.35.27-.99.54-1.33.2-.24.53.09.83.82.22.54.91.67.91.17 0-.34.32-1.04.48-1.04.15 0 .54.78.54 1.08 0 .19.05.22.45.22.94 0 .4 1.17-.63 1.36-.21.04-.49.21-.69.4-.36.37-.85.54-1.54.54-.41 0-.49.04-.78.4-.68.84-2.31 1.24-3.51.85Zm-15.44-.47c.22-.1.55-.33.72-.51l.31-.32h-4.58l.27.28c.77.81 2.21 1.05 3.28.55Zm17.56.1c.22-.06.6-.3.85-.52l.45-.41h-2.25c-2.5 0-2.56.02-1.66.62.77.51 1.61.61 2.61.31Zm-4.32-.73c0-.23-11.05-.23-11.14 0-.05.13.61.15 5.54.15 4.91 0 5.6-.02 5.6-.15Zm7.58-.74c.61-.43.57-.47-.41-.37l-.92.09-.01.32v.31l.53-.07c.29-.04.65-.16.81-.28Zm-25.03.09c-.04-.12-.02-.27.04-.34.09-.1-.08-.13-.85-.14-.82-.02-.95 0-.85.12.4.48 1.79.78 1.66.36Zm2.59-.09c.1-.16-.23-.21-1.17-.2l-.92.01.5.13c.59.15 1.51.19 1.59.06Zm2.5-.11c.07-.07-.16-.1-.66-.1-.83 0-1.11.06-1.02.22.08.13 1.54.02 1.68-.12Zm7.16-.36c0-.85-.22-1.13-.62-.77-.13.12-.18.31-.18.75v.58h.8zm8.08.47c.1-.06.08-.1-.1-.14-.3-.09-1.73-.09-1.65-.01.19.19 1.51.31 1.75.15Zm2.47-.06.5-.13-.92-.01c-.94-.01-1.27.04-1.17.2.08.13 1 .09 1.59-.06Zm-14.45-.5v-.55h1.1v.55c0 .52.01.55.25.55s.25-.03.25-.55c0-.56.06-.63.44-.49.21.08.23.84.02.84-.1 0-.16-.13-.19-.37-.03-.35-.04-.34-.05.1l-.02.47h.8v-1.42l-.56.04c-.59.05-.61.03-.38-.56.05-.13-.02-.16-.4-.16-.52 0-.52.01-.3.36.21.31.18.34-.52.41l-.58.06.22-.37c.29-.49.31-.46-.39-.46h-.61l.26.31c.24.28.27.57.05.44-.14-.09-1 .06-.93.16.03.05.27.09.55.09h.49v.55c0 .52.01.55.25.55s.25-.03.25-.55Zm5.29.13c-.01-.38-.02-.39-.08-.14-.1.49-.33.45-.29-.05.03-.37.07-.44.3-.5.35-.09.38-.05.38.58 0 .47.02.53.21.53s.21-.05.17-.52l-.03-.53.57-.03.58-.03v.56c0 .52.01.55.25.55s.25-.03.25-.55v-.55h.5c.28 0 .5-.04.5-.09 0-.14-.26-.2-.63-.14-.43.07-.53-.07-.27-.39.25-.32.18-.38-.47-.38h-.53l.2.33c.29.47.26.52-.32.49-.66-.05-.74-.12-.49-.44.25-.31.19-.38-.31-.38h-.38l.06.38.06.37-.51-.03-.51-.04V46h.8zm-10.07-.06c.32-.27-.06-1.79-.51-2.06-.26-.16-.95 1.4-.83 1.87.13.49.88.6 1.34.19Zm17.59.15c.44-.3.44-.72 0-1.62-.36-.73-.42-.76-.69-.37-.61.88-.67 1.61-.15 1.97.46.3.42.3.84.02Zm-23.34-.54c-.02-.26.01-.28.51-.34.89-.12.71-.19-.46-.19-1.21 0-1.26.03-.84.42.23.22.41.31.74.37.04 0 .06-.11.05-.26Zm4.13.08c0-.2-1.45-.27-1.84-.09-.21.09-.29.08-.45-.06-.17-.16-1.18-.02-1.39.19-.03.03.79.05 1.81.05 1.03 0 1.87-.04 1.87-.09Zm23.5.05c0-.19-1.03-.35-1.31-.21-.24.13-.36.14-.63.04-.21-.08-.55-.09-.99-.05-1.24.14-.7.26 1.13.26.99 0 1.8-.02 1.8-.04Zm1.24-.22c.4-.41.34-.44-.82-.43-.97.01-1.17.15-.24.18.27.01.32.05.32.26 0 .34.39.34.74-.01Zm-26.54-.83c0-.68-.15-.85-.35-.39-.18.44-.18.49-.05.83.16.42.4.15.4-.44Zm23.84.53c.11-.28.06-.9-.08-1.1-.26-.34-.47.46-.26 1 .11.29.25.34.34.1Zm-7.34-1.19c0-.13-.59-.15-4.32-.17-4.95-.03-5.18-.03-5.18.18 0 .12.68.14 4.75.14 4.13 0 4.75-.02 4.75-.15Zm-7.8-.95c.03-.3.09-.61.13-.67.06-.1-.05-.13-.47-.13-.57 0-.73.12-.33.25.19.06.2.08.04.12-.1.03-.24 0-.31-.06-.1-.08-.17-.07-.26.04-.11.13-.07.15.29.15h.41v.46c0 .75.43.61.5-.16Zm2.5.36c0-.48.17-.76.48-.76.38 0 .52.17.52.62 0 .34.03.38.25.38.23 0 .25-.04.25-.45 0-.33.04-.45.15-.45.08 0 .15-.04.15-.1s-.5-.1-1.29-.1c-.76 0-1.32.04-1.36.1-.03.06.03.1.14.1.18 0 .21.06.21.45 0 .41.02.45.25.45.2 0 .25-.05.25-.24Zm-1.1-.35c0-.28.05-.53.1-.56.23-.15.06-.25-.41-.25-.5 0-.5 0-.35.22.09.12.16.42.16.65 0 .39.02.43.25.43s.25-.03.25-.49Zm3.7.12c0-.21.07-.5.14-.65l.15-.28h-.5c-.46 0-.49.01-.39.19.05.11.1.4.1.65 0 .42.02.46.25.46.22 0 .25-.04.25-.37Zm1.5-.06c0-.23.07-.53.16-.65.15-.22.15-.22-.36-.22-.47 0-.5.01-.4.19.05.11.1.4.1.65 0 .42.02.46.25.46s.25-.04.25-.43Zm-13-.32c-.18-.19-.22-.31-.17-.61.06-.33.04-.36-.15-.31-.54.15-1.1-.39-.94-.9.05-.16 0-.18-.4-.18-.36 0-.5-.05-.65-.24a.78.78 0 0 1 .71-1.28l.38.05-.05-.32c-.07-.45.31-.9.75-.88.3.01.32-.02.32-.34 0-.42.37-.84.75-.84.41 0 .78.44.73.86-.04.33-.03.34.32.34.48 0 .75.29.75.8v.37l.37-.04c1.08-.15 1.16 1.36.07 1.53-.34.06-.39.1-.39.34 0 .45-.31.75-.79.75h-.41v.42c0 .7-.72.99-1.2.48Zm17.92.18c-.21-.08-.4-.57-.35-.87.05-.26.04-.29-.16-.23-.52.13-1.15-.43-.97-.88.04-.11-.02-.15-.24-.15-.86 0-1.3-.81-.74-1.37.21-.21.32-.25.65-.2l.39.05v-.37c0-.52.23-.81.64-.81.32 0 .34-.02.39-.42.14-1.05 1.47-1.02 1.47.03 0 .38.01.39.35.39.53 0 .79.31.72.87-.03.32-.02.42.06.34.18-.18.62-.13.91.1.61.48.15 1.49-.62 1.34-.33-.06-.34-.06-.27.23.09.45-.3.87-.83.87-.39 0-.4 0-.35.3.09.57-.49 1.01-1.05.78Zm-17.08-.29c.2-.2.2-.53 0-.82-.24-.34.06-.57.46-.34.59.34 1.09-.16.7-.7l-.2-.27.22-.15c.2-.14.23-.14.31-.01.21.39.97.11.97-.35 0-.51-.57-.68-.97-.31-.32.31-.64-.05-.39-.43.41-.63-.22-1.28-.76-.79-.27.24-.46.03-.3-.32.26-.56.09-.95-.4-.95-.4 0-.56.42-.34.88.21.43.13.55-.23.34-.65-.37-1.22.29-.72.82.31.33-.03.68-.41.42-.29-.2-.72-.21-.92 0-.51.5.43 1.15.96.67.3-.27.58.05.34.38-.44.63.06 1.14.71.72.35-.23.64.08.37.38-.46.5.13 1.3.6.83Zm17.74.04c.15-.15.16-.63.01-.9-.17-.31.12-.58.37-.34.48.49 1.23-.17.76-.67l-.22-.24.2-.18c.19-.17.21-.17.38-.02.53.48 1.4-.21.9-.71-.19-.19-.73-.14-.93.08-.32.35-.59-.12-.33-.56.34-.58-.12-1.01-.74-.7-.42.21-.53.08-.32-.37.2-.42.1-.81-.25-.9-.46-.12-.77.45-.5.94.18.34.04.54-.23.35-.63-.44-1.27.17-.76.71l.22.23-.21.21c-.2.2-.22.21-.44.05-.48-.33-.99-.15-.99.34s.62.69 1.02.34c.14-.14.2-.14.33-.04.19.16.19.34 0 .5-.18.15-.2.51-.03.68s.58.15.8-.05c.31-.28.58.05.35.41-.38.58.15 1.3.61.84Zm-7.98-.58c0-.06.58-.1 1.55-.1s1.55-.04 1.55-.1c0-.05-.07-.1-.15-.1-.14 0-.35-.56-.35-.92 0-.1-.07-.18-.15-.18-.17 0-.17 0-.06.58.08.4.07.42-.17.42s-.24-.02-.2-.5l.05-.51-1.01.07c-1.19.08-1.09.03-1.01.48.09.48.35.49.35.01 0-.24.05-.35.15-.35.11 0 .15.12.15.45v.45h-.9v-1.1h-1.89l-.03.53-.03.52-.42.03-.43.03v-.45c0-.45.12-.61.24-.3.03.08.1.12.16.09.14-.09.13.08-.02.23-.09.09-.08.12.05.12s.17-.09.17-.35v-.35h-2.09l-.03.47c-.02.37-.07.49-.22.51-.18.04-.18-.34.01-.84.03-.08-.01-.14-.1-.14s-.17.14-.21.4c-.04.24-.14.45-.26.52-.38.24-.19.28 1.35.28.97 0 1.55.04 1.55.1s.47.1 1.2.1 1.2-.04 1.2-.1Zm-1.86-.32c.03-.13.06-.38.06-.56v-.33l.62.03.61.03.03.53.02.52h-.7c-.68 0-.7-.01-.64-.22ZM22.7 41c0-.41.01-.41.33-.38.29.03.32.06.32.38s-.03.35-.32.38c-.32.03-.33.03-.33-.38Zm5.2.02c0-.34.3-.66.46-.49.2.19.06.82-.18.85-.26.03-.28.01-.28-.36ZM32 39.8c-.36-.36.03-.74.46-.45.29.19.3.27.06.48-.24.22-.28.21-.52-.03Zm-17.79-.04c-.18-.21-.02-.46.3-.46.33 0 .55.3.37.48-.16.16-.53.15-.67-.02Zm15.19.06c0-.05-.49-.06-1.09-.04-1.79.07-1.91.04-2.26-.73-.37-.8-.36-.8-.86 0-.48.76-.44.74-2.09.78-.69.01.45.04 2.52.05 2.08.01 3.78-.02 3.78-.06Zm7.02-.05c-.17-.2.08-.5.39-.45.36.05.35.52-.02.56-.14.02-.31-.03-.37-.11Zm-11.19-.04c-.2-.07-.15-.26.15-.61l.27-.33.24.35c.35.54-.01.86-.66.59Zm15.85-.23c-.6-.1-1.02-.31-1.06-.52-.02-.09-.27-.4-.57-.7-.85-.85-1.07-1.97-.56-2.96.2-.39.93-1.12 1.11-1.12.2 0 .09-.47-.15-.68-.28-.25-.32-.5-.1-.58.08-.04.15-.13.15-.2 0-.15.75-.94.89-.94.04 0 .22-.14.39-.3.42-.39.94-.42 1.18-.05.09.14.21.25.26.25.12 0 .98.85.98.98 0 .05.07.15.15.22.25.2.19.59-.1.66-.41.1-.34.54.14.81.39.22 1.01 1.03 1.01 1.32 0 .1.03.12.1.05.06-.06.11-.84.13-1.85l.02-1.74-.34-.54c-.58-.89-1.37-1.25-2.18-.97-.3.11-.31-.11-.03-.47.24-.31.79-.5 1.24-.45l.33.04-.2-.28c-.25-.34-.81-.73-1.25-.89-.54-.19-.33-.34.46-.33.61 0 .77.04 1.21.32l.51.31-.06-.42c-.04-.23-.13-.62-.21-.85-.17-.51-.12-.6.22-.42s.84.95.91 1.42l.06.38.49-.44c.27-.24.7-.51.96-.6.79-.27 1.11-.16.56.19-.64.42-1.49 1.65-.94 1.35.41-.21 1.15-.12 1.59.2.62.45.56.59-.21.53-.47-.04-.71-.01-.95.11-.32.17-.35.36-.06.36.56 0 1.07.71 1.2 1.66.09.73-.09.77-.42.08-.42-.89-1.06-1.17-1.62-.69-.6.5-.6.67-.23 5.19l.08 1 .43.36c.58.5.54.78-.15 1.03-.88.31-2.65.08-2.65-.36 0-.11.17-.39.38-.6l.37-.4-.52.39c-.32.24-.53.48-.55.63-.05.41-1.37.68-2.4.51Zm-36.3-.15c-.56-.18-.93-.83-.49-.85.6-.04.78-.8 1.01-4.32.12-1.8.05-2.13-.52-2.48-.62-.38-1.14-.15-1.55.67-.31.66-.43.67-.43.06.01-.86.59-1.73 1.16-1.73.38 0 .36-.17-.03-.35-.27-.13-.51-.16-.95-.12-.68.06-.76-.06-.27-.47.39-.33.68-.4 1.35-.32l.55.06-.15-.27c-.16-.31-.7-.88-1.03-1.11-.13-.08-.23-.18-.23-.23 0-.33 1.51.31 1.94.82.3.35.36.36.36.07 0-.6.82-1.77 1.14-1.65.14.05.14.11.01.46-.07.22-.17.6-.2.86l-.07.46.37-.25c.48-.33 1.04-.48 1.62-.44.56.04.66.22.21.37-.44.16-1.05.59-1.27.9l-.19.26.52.01c.57 0 .95.2 1.16.59.18.33.09.39-.34.24-.72-.26-1.68.31-2.12 1.26-.25.53-.31 1.8-.15 3.35l.07.65.15-.35c.21-.47.65-.97 1-1.16.33-.16.43-.74.14-.74-.3 0-.43-.51-.17-.68.12-.08.22-.19.22-.24 0-.11.85-.98.95-.98.04 0 .16-.11.27-.25.28-.36.77-.34 1.11.05.15.16.33.3.4.3s.2.09.29.19.22.23.3.27c.44.28.71 1.18.38 1.29-.2.06-.3.65-.12.65.05 0 .27.16.49.35 1.15.98 1.11 2.87-.08 3.89-.24.2-.46.47-.49.59-.17.68-3.27.62-3.4-.06-.03-.15-.2-.38-.4-.52-.19-.14-.41-.33-.47-.42-.07-.09-.13-.12-.13-.07 0 .06.16.25.35.44s.35.42.35.52c0 .44-1.72.72-2.62.43Zm19.81.03c.06-.07.22-.28.37-.45l.26-.33H22.3v.38c0 .21.03.42.07.45.12.13 2.12.08 2.22-.05Zm4.41 0c0-.07-.03-.29-.06-.48l-.06-.35-1.34.03c-.74.02-1.34.05-1.34.08 0 .09.34.59.49.72q.15.12 1.23.12c.8 0 1.08-.03 1.08-.12Zm-22.73-.49c.67-.12.73-.17.46-.4-.35-.29-2.35-.07-2.06.22.04.04.26.13.48.18s.42.09.44.1.33-.04.68-.1Zm4.13-.05c.7-.21 1.49-.98 1.73-1.68.21-.61.2-.62-.43-.41-1.04.35-3.65.35-4.63.01-.59-.21-.64-.18-.48.36.41 1.36 2.24 2.19 3.81 1.72Zm32.37.01c.68-.2 1.53-1.01 1.78-1.68.22-.59.18-.64-.42-.42-1.01.37-3.99.31-5.07-.11-.17-.07-.18-.04-.12.26.3 1.55 2.11 2.46 3.83 1.95Zm3.43-.01c.78-.15.3-.43-.8-.48-1.16-.04-1.57.36-.53.54.46.08.69.07 1.33-.06Zm-30.7-.24c-.15-.27-.06-.5.18-.5.29 0 .48.28.35.48-.15.25-.4.26-.53.02Zm-9.2-.84c0-.23-.03-.24-.55-.24-.53.01-.73.17-.48.41.2.21 1.03.07 1.03-.17Zm1.75.14c-.24-.1-.35-.09 1.47-.12.98-.02 1.44 0 1.37.07-.13.13-2.58.18-2.84.05Zm32.38.03c-.58-.11-.1-.18 1.27-.18 1.41 0 1.72.04 1.34.19-.17.07-2.26.06-2.61-.01Zm5.47-.16c0-.2-.05-.22-.5-.24-.47-.01-.5.01-.5.23s.04.24.5.24c.45 0 .5-.02.5-.23Zm-29.4-.23c-.13-.32-.13-.3.05-.48.21-.2.45-.1.45.19 0 .56-.33.75-.5.29Zm17.76.11c-.19-.51.05-.86.4-.6.15.11.17.18.09.41-.12.33-.39.43-.49.19Zm-28.08-.97.03-.38H5.3v.81l.43-.03c.41-.03.42-.04.45-.4Zm39.62.02v-.4H45v.8h.8zm-34.45-.22c.68-.14.85-.25.85-.53 0-.3-.16-.33-.25-.04-.06.16-.12.19-.36.14-.25-.06-.29-.04-.29.14 0 .25-.13.27-.3.06-.12-.14-.16-.13-.36.06-.23.22-.24.22-.44.04-.19-.17-.21-.17-.38-.02-.23.21-.46.22-.65.02-.13-.13-.16-.13-.27 0-.16.19-.49.19-.56 0-.05-.12-.15-.14-.43-.09-.32.06-.35.05-.23-.09.19-.23-.03-.31-.32-.12-.24.16-.25.16-.41-.15-.09-.18-.15-.34-.13-.36.08-.08.47.09.42.18-.04.07.09.08.36.03.3-.05.41-.04.36.04-.05.07.01.11.15.11.12 0 .28.08.34.17.12.17.14.17.34-.01.21-.19.22-.19.44.03l.24.21.18-.2c.21-.23.37-.25.64-.08.17.1.23.08.39-.12.18-.22.22-.23.38-.1.13.11.16.11.1.02-.06-.1-.02-.13.16-.11.15.02.33-.05.48-.2l.25-.24-.25.07c-1.72.46-2.8.46-4.76.01-.18-.04-.25.02-.38.36-.21.51-.18.55.52.7 1.4.29 2.96.32 4.17.07Zm32.58-.04c.64-.15.67-.17.67-.44 0-.41-.16-.46-.32-.1-.13.3-.31.39-.43.2-.09-.15-.25-.12-.25.05s-.21.2-.36.05c-.07-.07-.16-.04-.29.1-.22.24-.38.25-.55.05-.12-.14-.15-.14-.3 0-.22.19-.49.19-.71-.01-.17-.15-.19-.15-.34 0-.21.21-.32.2-.47-.03-.11-.17-.14-.18-.34-.04-.25.16-.44.1-.44-.13 0-.08-.1-.14-.24-.14-.13 0-.3-.1-.39-.23l-.15-.22-.07.29c-.12.46.09.54 2 .8.53.07 2.28-.05 2.98-.2Zm-1.98-.34c.22-.25.33-.25.58-.02.15.13.21.14.24.04.03-.07.18-.19.35-.28s.27-.11.24-.06c-.04.06-.02.13.04.17.05.03.1-.03.1-.15 0-.18.03-.19.21-.09.18.09.24.08.31-.05.05-.09.16-.16.23-.16.08 0 .15-.04.15-.1 0-.13.05-.13-.92.1-1.27.3-2.66.25-4.05-.16-.14-.04-.23-.02-.23.05 0 .06.06.11.14.11s.16.06.19.14c.04.09.15.12.34.09.26-.05.27-.04.09.09-.12.09-.15.17-.09.21s.16 0 .23-.08c.16-.19.5-.19.5-.01 0 .23.2.29.39.12.23-.21.38-.2.51.04.06.11.14.2.19.2.04 0 .16-.09.26-.2Zm-35.99-.51a5 5 0 0 1-.06-.75c0-.74-.26-.57-.33.22-.07.75-.05.84.25.84.18 0 .2-.04.14-.31Zm39.7.04c-.03-.08-.06-.39-.06-.69 0-.41-.04-.54-.15-.54s-.15.11-.15.37c0 .21-.03.54-.06.74-.06.35-.05.36.2.32.19-.04.25-.1.22-.2Zm-24.34-.22c-1.76-.61-2.73-2.72-2.33-5.06.72-4.12 5.9-4.23 6.77-.14.73 3.41-1.63 6.17-4.44 5.2Zm13.28.1c-1.86-.57-2.61-2.57-1.66-4.44.49-.98 2.56-3.87 2.76-3.87.14 0 1.2.83 1.2.94 0 .06-.27.52-.6 1.01-.66.99-.66.97.12 1.1 2.05.33 2.65 3.25.97 4.69-.68.58-1.92.83-2.79.57Zm-24.2-.22c.36-.05.82-.14 1.03-.2l.37-.1-.29-.25c-.27-.22-.33-.24-.53-.12-.31.17-2.84.18-3.14.01-.18-.1-.26-.09-.54.12l-.32.24.41.11c1.04.28 2.07.35 3.01.19Zm2.47.04c-.04-.03-.07-.38-.07-.77v-.7l1.59-1.6c1.62-1.65 2.01-2.14 2.01-2.54 0-.85-1.35-1.09-1.75-.32-.22.42-.25.42-1.09.14-.83-.28-.84-.3-.57-.89.92-2.03 4.4-1.86 5.17.26.39 1.08-.03 2.04-1.63 3.7l-1.15 1.19h2.92v1.6h-2.68c-1.48 0-2.72-.03-2.75-.07Zm13.6 0c-.04-.03-.07-.37-.07-.76v-.69l1.6-1.64c2.08-2.14 2.31-2.52 1.78-3.01-.49-.44-1.26-.32-1.67.25l-.21.3-.76-.23c-.97-.3-1-.33-.75-.82 1.06-2.08 4.75-1.91 5.39.26.34 1.11-.07 1.97-1.81 3.77l-1 1.04h2.93v1.6h-2.68c-1.48 0-2.72-.03-2.75-.07Zm10.21-.25c2.35-1.1 1.75-4.38-.85-4.64-.35-.04-.63-.08-.63-.09s.32-.5.7-1.09c.39-.58.7-1.08.7-1.1 0-.1-.83-.57-.94-.53-.15.06-2.26 3.07-2.57 3.67-1.21 2.37 1.19 4.9 3.59 3.78Zm6.55.14c.84-.18.93-.27.56-.54-.22-.16-.27-.17-.69-.02-.54.19-2.69.15-2.94-.05-.18-.15-.84.25-.69.4.33.33 2.6.46 3.76.21Zm-19.7-.08c2.56-.87 2.82-5.9.38-7.27-2.21-1.24-4.55.36-4.69 3.22-.14 3 1.86 4.88 4.31 4.05Zm-5.43-.54v-.5h-1.54c-.85 0-1.57-.04-1.6-.09s.52-.7 1.23-1.45c1.91-2 2.24-2.95 1.45-4.08-.97-1.39-3.62-1.24-4.4.24-.19.37-.21.34.46.56l.6.21.14-.28c.37-.71 1.82-.67 2.15.06.3.65-.01 1.15-1.88 3.06l-1.61 1.64v1.13h5zm13.6 0v-.5h-1.24c-1.29 0-1.86-.06-1.86-.21 0-.05.53-.65 1.19-1.33 2.04-2.14 2.33-3.3 1.11-4.4-1.2-1.08-3.55-.72-4.25.64l-.14.28.64.17.65.18.2-.25c.46-.6 1.53-.64 2.02-.09.59.66.33 1.13-1.81 3.33l-1.51 1.56v1.12h5zm-21.25-.19c.25-.05.31-.12.33-.39.03-.31.02-.32-.25-.25-.15.04-.79.07-1.41.07L8 33.82v.29c0 .23.05.28.28.32.42.06 1.84.05 2.17-.02Zm32.28.03c.34-.06.37-.09.37-.39v-.32l-.62.09c-.58.08-1.47.04-1.9-.08-.15-.04-.18.01-.18.3 0 .3.04.35.28.39.45.07 1.65.07 2.05.01Zm-21.03-.57c-1.52-.8-1.49-4.29.05-4.98 1.26-.58 2.36.32 2.51 2.06.2 2.18-1.12 3.68-2.56 2.92Zm13.03.03c-1.13-.75-.59-2.44.78-2.44 1.73 0 1.81 2.49.08 2.61-.42.03-.61-.01-.86-.17Zm-11.62-.33c1.14-.75 1.18-3.69.06-4.37-1.61-.99-2.99 1.51-2.02 3.67.4.88 1.24 1.18 1.96.7Zm13.18-.12c.41-.47.42-.93.02-1.37-.66-.74-1.91-.26-1.91.73 0 .96 1.24 1.38 1.89.64Zm-25.67-.31c.31-.06.38-.11.38-.3 0-.83-3.06-.8-3.18.03-.03.17.03.22.25.26.46.07 2.15.07 2.55.01Zm32.33-.02c1.02-.18.13-.84-1.18-.88-1.07-.04-1.98.4-1.6.76.18.18 2 .26 2.78.12ZM9.74 31.91c.1-.15-.04-.4-.26-.47-.25-.07-.53.18-.45.4.07.17.62.22.71.07Zm-4.44-.2c0-.05-.13-.23-.29-.4-.48-.51-1.4-.4-1.72.21-.11.2-.09.2.22-.03.48-.34 1.11-.32 1.47.04.29.3.32.31.32.18Zm41.6-.46c.25 0 .5.09.69.23.32.23.4.19.18-.09-.37-.48-1.19-.54-1.6-.11-.36.38-.34.48.04.2.19-.14.44-.23.69-.23Zm-41.3-.68c-.12-.8-.36-1.3-.82-1.73-.58-.53-.73-.6-.41-.19.31.39.86 1.5 1.14 2.27.18.51.2.44.09-.35Zm2.01-.27c.66-.17.66-.17.36-.25-.62-.16-1.43.31-1.66.97-.11.3-.1.3.38-.15.31-.29.64-.5.92-.57Zm-.85-.57c.25-.35.64-.77.86-.94.44-.31.41-.36-.13-.17-.8.27-1.39 1.11-1.54 2.18l-.06.45.2-.44c.12-.24.42-.73.67-1.08Zm38 1.09c-.3-.58-1.18-.99-1.62-.74-.13.07-.06.12.34.22.34.08.66.25.94.5.49.44.56.44.34.02Zm-39.61-.09c-.18-.46-.66-.89-1.07-.97-.45-.09-.86-.07-.93.04-.04.06.06.1.21.1.41 0 1.04.34 1.49.8.48.49.49.49.3.03Zm40.98-.92c.22-.46.52-.97.66-1.14.23-.28.24-.29.03-.18-.68.36-1.33 1.49-1.31 2.29 0 .36.01.36.11.12.06-.14.29-.63.51-1.09Zm1.03.29c.22-.11.54-.2.7-.2.22 0 .26-.03.14-.1-.49-.32-1.53.07-1.89.7-.32.57-.25.63.22.2.23-.22.6-.49.83-.6Zm-2.11-.08c-.23-.58-.7-1.11-1.2-1.33-.58-.27-.76-.23-.33.06.39.27 1.14 1.24 1.45 1.89.26.56.32.04.08-.62Zm-38.94-1.3c.05-.37.12-.76.15-.87l.06-.2-.15.2c-.23.33-.37.85-.37 1.39.01.69.18.39.31-.52Zm39.04-.55c-.14-.29-.23-.44-.21-.35.03.1.08.41.12.7.03.29.11.69.17.88l.12.35.03-.53c.02-.4-.03-.65-.23-1.05ZM6.53 23c-1.02-.45-1.2-1.64-.38-2.39.34-.31.35-.33.35-1.11v-.8h4.2l.06.24c.17.69.04.91-.58.94-.79.04-.91.52-.14.52 1.54 0 1.89 2.24.42 2.69-.58.18-3.48.11-3.93-.09Zm10.57.01c-1.12-.59-1.34-2.51-.42-3.53 1.54-1.7 4.16-.72 4.17 1.57 0 .89.2 1.11.83.89.95-.33.75-2.24-.24-2.24-.12 0-.14-.11-.12-.52l.03-.53.42-.03c1.94-.14 2.36 3.54.5 4.39-1.41.63-2.67-.23-2.67-1.83 0-1.05-.45-1.5-1.35-1.34-.53.1-.63.32-.18.4 1.12.18 1.62 1.16 1.11 2.16-.39.75-1.31 1.02-2.08.61Zm7.54 0c-1.55-.94-1.13-3.38.72-4.17.45-.2 2.11-.23 2.56-.06.2.08.45.07 1-.04.51-.11.93-.14 1.38-.09.36.04 1.59.08 2.75.09l2.1.01v.55c0 .53-.01.55-.27.58l-.28.03v3.2l-.62-.03-.63-.03-.03-1.57-.03-1.58h-.76l.2.58c.45 1.35-.24 2.72-1.37 2.72-.64 0-1.36-.61-1.36-1.15 0-.13-.11-.01-.31.33-.67 1.18-2.18 1.02-2.6-.26l-.12-.35-.12.37c-.32.93-1.41 1.36-2.21.87Zm11.03.07c-.16-.12-.17-.33-.15-2.23l.03-2.1h1.2l.03 1.63.03 1.63.3-.06c.16-.04 1.13-.04 2.15 0l1.85.08-.03.56-.03.56-2.6.03c-1.98.02-2.65-.01-2.78-.1Zm5.95.05c-.09-.03-.12-.58-.12-2.24V18.7h4.01l-.03.58-.03.57-.42.03-.43.03v3.19h-1.2v-3.2h-.7v1.59c0 1.36-.02 1.6-.16 1.65-.18.07-.73.07-.92-.01Zm-29.86-.64c-.08-.78-.08-3.26 0-3.56.06-.23.07-.23 2.05-.23h1.99l.06.24c.15.62.02.91-.43.94l-.42.03-.03 1.57-.03 1.57-.62.03-.63.03V19.9H13v3.2h-1.17zm-1.24.25c1.09-.56.69-1.95-.61-2.1l-.62-.07.03-.46.03-.46.58-.03.58-.03-.03-.32-.03-.32h-3.7l-.01.25c-.01.14-.02.53-.03.86-.01.57-.03.62-.26.68-.81.2-.67 1.64.2 2.01.43.19 3.5.18 3.87-.01Zm2.18-1.33c0-1.87-.02-1.81.71-1.81H14v3.31l.33-.03.32-.03.03-1.62.02-1.63h.46c.45 0 .45 0 .42-.32l-.03-.33-1.35-.03c-.74-.02-1.54 0-1.77.03l-.43.06v1.88c0 2.03 0 2.01.42 2.01h.28zm5.8 1.34c1.15-.59.6-2.25-.75-2.25-.71 0-.31-.88.42-.92 1.29-.06 1.73.36 1.73 1.64 0 1.17.48 1.68 1.58 1.68 1.98 0 2.39-3.66.45-4.05-.51-.1-.5.55 0 .73 1.33.48.5 3.03-.85 2.63-.49-.15-.52-.21-.52-1.16-.02-1.91-2.06-2.85-3.46-1.59-1.55 1.4-.36 4.2 1.4 3.29Zm7.64-.06c1.03-.81.5-2.19-.84-2.19-.65 0-.47-.41.33-.75.39-.16 1.92-.21 2.01-.07.03.05-.06.3-.19.57-.77 1.51.45 3.31 1.65 2.45.71-.51.79-2 .14-2.72-.26-.27-.07-.38.65-.38.83 0 .85.01.55.53-.68 1.21-.19 2.77.89 2.77 1.1 0 1.67-1.59.98-2.76-.31-.51-.28-.54.54-.54h.75v3.3h.7l.02-1.62.03-1.63.27-.03c.25-.03.28-.08.28-.39v-.36l-1.6.05c-1.02.04-1.65.1-1.74.17-.11.1-.25.09-.61-.03-.57-.2-1.34-.2-2.05-.02-.48.13-.63.13-1.2-.01-2.08-.49-3.69.47-3.7 2.2 0 1.32 1.24 2.17 2.14 1.46Zm14.66-.14v-.35h-4.3v-3.31l-.32.03-.33.03-.03 1.98-.02 1.97h5zm1.62-1.27.03-1.63.63-.03.62-.03v3.31h.6l.02-1.62.03-1.63.48-.03c.48-.03.48-.04.45-.35l-.03-.32-.85-.03c-.47-.02-1.25-.01-1.75.03l-.9.07-.03 1.83c-.04 2.03-.04 2.05.38 2.05h.3zm-35.44.91c-.32-.12-.43-.4-.28-.69.14-.27 1.9-.31 1.9-.04 0 .61-.87 1-1.62.73Zm2.49.04c-.13-.03-.17-.15-.17-.49v-.44h.43c.55 0 .98.6.6.83-.15.09-.68.15-.86.1Zm7.93-.13c-.42-.42-.19-1 .4-1 .29 0 .42.05.5.19.36.68-.37 1.34-.9.81Zm7.56-.04c-.3-.29-.32-.43-.1-.74.19-.28.74-.3.97-.04.55.6-.3 1.36-.87.78Zm3.15 0c-.18-.19-.23-.36-.23-.76.01-.84.48-1.35.83-.91.72.88.14 2.46-.6 1.67Zm2.9-.02c-.28-.35-.28-1.07-.01-1.52.29-.48.59-.41.84.19.4.99-.26 2.05-.83 1.33Zm-22.93-.2c.38-.26.26-.35-.45-.32-.54.02-.68.06-.71.2-.05.29.79.38 1.16.12Zm10.03 0c.27-.33-.24-.7-.55-.39-.12.12-.13.21-.06.36.13.23.43.25.61.03Zm7.53.01c.18-.19.11-.42-.15-.5-.36-.12-.63.27-.37.53.16.16.33.15.52-.03Zm3.07-.09c.13-.28.05-.84-.15-1.11-.27-.37-.57.54-.36 1.09.12.33.37.33.51.02Zm2.89.05c.16-.31.12-.87-.09-1.12l-.2-.24-.15.37c-.31.73.09 1.63.44.99Zm-4.4-1.73c.19-.33-.89-.36-1.57-.05-.24.11-.23.11.19.24.24.07.57.26.73.43l.29.31.13-.38c.07-.21.17-.46.23-.55Zm-19.8.02v-.51l.58.03.57.03.03.47.03.48H7.4zm24.47-1.9c-.47-.37-.28-1.26.28-1.31.61-.05.95.22.95.74 0 .63-.73.96-1.23.57Zm10.46.08c-.48-.23-.51-1.03-.04-1.27.81-.44 1.6.51.96 1.14-.25.26-.56.31-.92.13Zm-9.59-.4c.2-.29.2-.34-.04-.58-.32-.32-.9-.09-.9.34 0 .44.68.61.94.24Zm10.27.12c.27-.15.24-.56-.06-.76-.23-.15-.27-.15-.5 0-.6.39-.08 1.1.56.76ZM0 15v-.4h51.2v.67l-.77.07c-.42.03-11.94.06-25.6.06H0zm32.27-1.81c-1.07-.26-1.77-1.09-1.77-2.09v-.4h1.4v.4c0 .86 1.03 1.22 1.66.59l.24-.24-.23-.47-.22-.47-1.35-.03-1.35-.03-.03-2.57-.02-2.58h1.3l.02 1.93.03 1.92.61.03.62.03.03-1.28c.06-1.98.59-2.73 1.93-2.73 3.38 0 3.68 4.86.32 5.29-.53.07-.55.09-.19.1.68.02.73.06.73.71v.57l-.51.06c-.45.06-.56.12-.91.52-.62.71-1.41.96-2.31.74Zm1.65-.48c.18-.13.46-.41.61-.62.26-.35.33-.39.73-.39h.44v-.8h-.4c-.27 0-.47-.07-.61-.21-.32-.32-.19-.44.62-.5 3.07-.23 2.96-4.72-.12-4.72-1.26 0-1.62.55-1.67 2.56l-.04 1.37H31.7V5.6h-.8v4.6h1.35c1.25 0 1.35.01 1.35.19 0 .1.11.35.25.55.33.48.32.58-.1.95-.74.64-1.85.4-2.07-.44-.16-.6-.88-.71-.88-.15 0 1.28 1.99 2.18 3.12 1.41Zm-19.69-.29c-.57-.23-.58-.26-.39-.76.16-.43.75-1.06.97-1.06.06 0-.1-.15-.36-.33-1.05-.72-1.15-1.86-.26-2.71.31-.29.31-.31.31-1.28V5.3l2.62.02 2.63.03v1.2l-.72.03-.73.03v.29c0 .24.05.31.27.36 2.2.46 2.95 2.41 1.45 3.76-.6.54-1.19.68-3.1.75l-1.64.06-.24.39c-.28.43-.25.43-.81.2Zm.79-.67c.16-.21.26-.23 1.9-.28 2.28-.07 3.02-.35 3.44-1.34.53-1.22-.61-2.63-2.13-2.63-.21 0-.23-.04-.23-.6v-.6h1.5v-.8h-4.7v1.98l-.34.22c-.85.52-.79 1.7.12 2.34 1.22.86 3.13.09 3.36-1.34l.07-.43.44.05c1.13.13 1.58 1.1.85 1.85-.42.42-.9.53-2.41.53-1.92 0-2.89.42-2.89 1.24 0 .17.65.33.75.19.06-.08.18-.25.27-.38Zm3.66-1.51c.85-.31.97-1.24.18-1.54-.47-.18-.63-.13-.7.21-.09.47-.44.97-.9 1.31l-.41.3.7-.07c.38-.03.89-.13 1.13-.21Zm3.22.18-.65-.07v-5l.63-.03.62-.03v1.53c0 .84.03 1.7.06 1.9l.07.38h1.17V7.93c.01-1.57.35-2.29 1.27-2.64.2-.07.23-.16.23-.56.01-2.25 3.38-3.02 4.5-1.03.25.45.25.45.28 3.58l.03 3.13-.73-.03-.73-.03-.05-3.1-.05-3.09-.25-.14c-1.06-.56-2.22.79-1.21 1.42 1.93 1.22 1.77 4.24-.25 4.84-.47.14-3.95.23-4.94.14Zm5.07-.5c1.66-.87 1.66-3.07 0-4.23-.51-.35-.52-.37-.5-.84.04-1.1 1.42-1.67 2.19-.9l.24.24v6.01h.9V7.28c0-3.28-.04-3.5-.72-4.01-1.45-1.11-3.62-.09-3.46 1.63.05.46.04.47-.29.59-.96.35-1.17.76-1.23 2.46l-.05 1.4-.87.03-.88.03V5.6h-.8v4.62l2.53-.04c2.36-.03 2.55-.05 2.94-.26Zm-11.54-.39c-.4-.08-.75-.5-.71-.86l.03-.32 1.24-.03 1.23-.03-.07.28c-.19.79-.82 1.14-1.72.96ZM25 8.11c0-1.56.13-1.81.91-1.81 2.07 0 1.87 2.97-.21 3.08l-.7.04zm9.42-.12c.03-1.61.07-1.69.87-1.69.95 0 1.46.61 1.39 1.64-.06 1.03-.56 1.46-1.68 1.46h-.62zm-17.79.99.32-.32-.35-.09c-.34-.09-1.56-.05-1.66.06-.1.1.17.48.39.57.49.2.97.12 1.3-.22Zm19.32-.04c1.09-.72.32-2.68-.92-2.35l-.28.07-.03 1.29-.03 1.28.52-.07c.28-.04.62-.14.74-.22Zm-9.46.01c1.06-.54.64-2.35-.54-2.35-.61 0-.65.09-.65 1.37V9.1h.45c.26 0 .59-.07.74-.15ZM15.77 7.43c-.04-.03-.07-.3-.07-.6V6.3h1.4v1.2h-.63c-.35 0-.67-.03-.7-.07Zm1.11-.55c.03-.27.02-.28-.42-.28-.45 0-.46.01-.46.31 0 .44.83.41.88-.03Z"/></svg>