<svg xmlns="http://www.w3.org/2000/svg" width="51" height="51" viewBox="0 0 51 51"><path fill="#fff" fill-rule="evenodd" stroke="#fff" stroke-width=".455" d="M6.28 38.28c-.03-.07.53-1.7 1.24-3.63.71-1.92 2.75-7.53 4.54-12.45 1.8-4.92 3.3-9.03 3.35-9.12.1-.19 3.42-.28 3.53-.1.05.08-.88 2.74-3 8.62-1.6 4.43-4.59 12.63-5.37 14.75l-.74 2-1.75.03c-1.35.02-1.77 0-1.8-.1Zm7.26-.01c-.02-.07.09-.51.26-.98.67-1.81 6.01-16.46 7.4-20.29l1.46-4.05 1.77-.03c.97-.01 1.77.01 1.77.06 0 .31-4.86 13.82-8.23 22.87l-.93 2.5-1.72.03c-1.37.02-1.73 0-1.78-.11Zm7.29-.02c-.06-.18-.03-.26 4.54-12.85 1.81-4.98 3.55-9.77 3.86-10.65.32-.88.61-1.66.66-1.73.09-.15 4.44-.31 4.93-.19.35.09.92 1.54 4.13 10.47.62 1.73 1.63 4.5 2.23 6.15s1.19 3.32 1.32 3.7c.29.9.2.83 1.35.92l1 .08.03 1.99c.02 1.38-.01 2.03-.09 2.12-.13.16-4.2.2-4.99.05-.76-.15-1.09-.73-2.21-3.88-.39-1.09-.75-2.1-.81-2.26l-.1-.27-4.2.02-4.2.03-.69 2c-1.07 3.1-1.66 4.19-2.34 4.35-.73.17-4.35.12-4.42-.05Zm-11.12-.42c.74-1.87 8.5-23.3 8.83-24.4l.07-.23h-2.97l-2.54 6.98c-1.39 3.83-2.98 8.18-3.52 9.67-1.91 5.18-2.98 8.14-2.98 8.19 0 .03.68.06 1.5.06h1.5zm8.53-3.51c3.03-8.21 7.35-20.21 7.52-20.86l.06-.26h-1.51c-.91 0-1.51.04-1.51.1 0 .13-8.62 23.86-8.95 24.63-.07.16.04.17 1.46.17h1.54zm7.31 3.48c.48-.45.86-1.31 1.85-4.2l.67-1.95 4.35-.03c3.41-.02 4.38.01 4.46.1.05.07.47 1.17.92 2.43.9 2.52 1.24 3.27 1.65 3.65l.27.25 2.44.04 2.44.03V34.4l-.62-.01c-1.27-.01-1.39-.06-1.61-.74-.11-.33-.65-1.84-1.19-3.35-.55-1.51-1.73-4.77-2.63-7.25-2.6-7.17-3.55-9.69-3.73-9.82-.18-.14-4.22-.18-4.56-.04-.13.05-.38.62-.89 2.02-.38 1.07-1.32 3.67-2.09 5.79l-1.98 5.45c-.32.88-1.39 3.84-2.39 6.57-.99 2.73-1.81 5-1.81 5.03 0 .04.94.05 2.09.03 2.07-.03 2.1-.03 2.36-.28Zm3.65-9.92c0-.07.38-1.23.84-2.58 1.2-3.49 1.71-5.09 1.99-6.35.36-1.63.45-1.56 1.12.75.3 1.02 1.01 3.24 1.6 4.94.58 1.71 1.03 3.16 1.01 3.23-.07.19-6.56.19-6.56.01Zm6.2-.3c0-.07-.12-.48-.26-.9l-.26-.78h-4.73l-.32.9-.32.9h2.94c2.29 0 2.95-.03 2.95-.12Zm-.7-2.05c0-.05-.36-1.16-.8-2.48s-.95-2.94-1.14-3.6-.35-1.1-.36-.99c0 .43-.61 2.55-1.35 4.75-.41 1.23-.75 2.27-.75 2.32 0 .04.99.07 2.2.07s2.2-.03 2.2-.07Z"/></svg>