<svg xmlns="http://www.w3.org/2000/svg" width="51" height="51" viewBox="0 0 51 51"><path fill="#fff" fill-rule="evenodd" stroke="#fff" stroke-width=".8" d="M15.32 36.4c-.63-.39-.89-1.22-.62-1.97.06-.16 3.52-3.69 7.87-8.05l7.77-7.77-4.05-.03c-3.61-.03-4.07-.05-4.36-.2-1.07-.59-1.07-2.09 0-2.74.31-.18.57-.19 6.47-.19 6.9 0 6.65-.03 7.12.74l.23.36v12.2l-.25.43c-.64 1.12-2.03 1.1-2.67-.03-.22-.4-.23-.44-.23-4.4v-4l-7.82 7.82c-4.38 4.37-7.95 7.87-8.11 7.92-.44.17-.99.13-1.35-.09Zm1.5-.3c.25-.16 3.9-3.76 8.11-8 4.22-4.23 7.71-7.7 7.77-7.7.07 0 .1 1.42.1 4.08 0 3.78.02 4.1.19 4.49.5 1.1 1.94 1.07 2.4-.05.08-.2.11-1.96.09-6.39l-.03-6.11-.25-.27c-.41-.44-.47-.45-6.8-.46-6.82-.01-6.46-.04-6.89.71-.27.48-.26.73.01 1.21.39.7.4.7 5.04.77 2.28.03 4.14.08 4.14.11s-3.55 3.61-7.89 7.96c-6.99 7-7.9 7.94-7.96 8.27-.24 1.3.9 2.09 1.97 1.38Z"/></svg>