<svg xmlns="http://www.w3.org/2000/svg" width="51" height="51" viewBox="0 0 51 51"><path fill="#fff" fill-rule="evenodd" stroke="#fff" stroke-width=".626" d="M7.23 48.09c-.66-.33-.92-.8-1.04-1.9-.16-1.61-.58-6.48-.89-10.49-.16-2.12-.5-6.37-.75-9.44-.25-3.08-.61-7.65-.81-10.15-.19-2.51-.47-6.13-.63-8.06-.29-3.72-.29-3.95.14-4.51.58-.76.02-.72 10.2-.76l9.1-.03.03 3.63.02 3.62H20V3.32l-1.02-.07c-2.69-.17-14.61-.01-14.98.2-.81.48-.81.42-.35 5.85.08.91.3 3.7.5 6.2.55 7.2 1.04 13.3 1.2 15.15.08.94.26 3.21.4 5.05s.34 4.36.45 5.6.26 3.01.34 3.94c.15 1.8.2 1.96.8 2.4.27.21.28.21 17.99.24 18.94.03 18.21.04 18.68-.35.56-.48.43.78 1.79-16.78.51-6.58 1.1-14.03 1.41-17.7.16-1.93.39-4.68.5-6.12l.22-2.61-.23-.36c-.46-.75.02-.71-8.35-.74-4.12-.02-7.65 0-7.82.03l-.33.06V10h-2.7l.02-3.62.03-3.63 9.15.03c10.29.04 9.66-.01 10.27.79.45.58.46.25-.32 9.43-.3 3.56-.75 9.2-1.2 15.05-.3 3.89-.72 9.32-1.3 16.65-.2 2.54-.41 3.09-1.32 3.46-.63.27-36.06.2-36.6-.07Zm18.32-1.78c-.03-.06-.06-.31-.05-.54.05-1.09-.01-2.8-.08-2.72-.11.12-1.12 2.5-1.12 2.63 0 .28-.28.29-.95.02-.88-.36-.89-.43-.31-1.58.5-1 1.66-3.67 1.66-3.82 0-.06-.6-.1-1.55-.1H21.6v-1.06c0-1.29.04-1.33 1.02-1.34.87 0 .87-.02-.33-.9-1.92-1.41-2.32-2.12-3.29-5.79-.14-.51-.22-.66-.41-.73-.67-.25-.93-.75-1.53-2.84-.75-2.64-.79-3.35-.25-3.92l.21-.23-.26-.97c-.57-2.19-.55-2.7.12-3.44.4-.44.42-.61.11-1.12-.53-.86-.05-1.56 1.07-1.56h.46l-.36-.42c-.47-.55-.47-.75.02-.83 1.09-.19 1.59-.5 1.99-1.25.52-.98 3.59-1.89 5.97-1.77 4.35.21 7.53 3.19 8.16 7.67.06.39.17.82.26.96.19.29.16.61-.21 1.89l-.26.87.25.23c.59.55.55 1.3-.22 4.11-.55 1.98-.94 2.64-1.56 2.64-.21 0-.24.06-.29.68-.24 2.5-1.39 4.5-3.49 5.99-.93.67-.95.73-.23.73.93 0 1.05.14 1.05 1.24 0 1.19.04 1.16-1.52 1.16-.7 0-1.28.03-1.28.08 0 .04.07.41.16.82.09.47.17 1.56.21 2.91l.06 2.16-.34.06c-.95.17-1.27.18-1.34.08Zm1.05-.37.32-.07-.04-1.81c-.03-1.11-.12-2.2-.24-2.83l-.18-1.03h-1.32l-.64 1.48c-.35.81-.85 1.91-1.12 2.46-.27.54-.48.99-.46 1s.26.12.54.23l.51.21.66-1.57c.37-.86.71-1.69.77-1.85.08-.21.14-.26.21-.19.12.12.33 3.14.27 3.71-.04.35.06.39.72.26Zm2.65-6.84v-.75h-.67c-.38 0-2.03.02-3.68.03l-3 .02v1.5l3.68-.02 3.67-.03zm-4.11-1.39c-.22-.16-.49-.47-.61-.68-.17-.31-.32-.42-.65-.52-1.33-.39-2.49-1.37-3.02-2.53-.96-2.1-1.17-3.26-.68-3.94.65-.91.65-.93.4-1.03-.45-.17-.89-.93-1.03-1.77-.07-.47.14-.81.44-.68.37.15.57.16.41.02-.8-.69-.82-1.64-.04-1.22l.35.19.19-.25c.18-.24.18-.24-.03-.35-.12-.06-.22-.2-.21-.31 0-.19-.02-.2-.28-.07-.39.2-.68.09-.68-.26 0-.41.31-.64.94-.69.62-.05.78.08.49.41-.16.18-.12.18.29-.06.6-.35 1.37-.38 1.69-.06.36.36.22.53-.51.6-.58.05-1.1.21-1.1.34 0 .03.48.05 1.08.05 1.02 0 1.08-.01 1.17-.22.06-.13.17-.23.25-.23.18 0 .17.69-.01.91-.06.08-.09.24-.06.36.1.4-.43.87-1.25 1.13l-.43.14h.36c.19.01.4.06.47.13.09.09.15.09.24 0 .35-.35.68-.15.68.43 0 1.85 1.76 2.43 3.08 1.02.23-.24.24-.33.2-.92-.04-.4.33-.46.82-.13.53.36.46.87-.13.88-.42 0 .53 1.22 1.19 1.52.42.2.36.75-.18 1.51-.15.21-.18.35-.12.6.04.17.07.48.06.67-.02.46.95-1.52 1.08-2.22.24-1.26-.39-2.78-1.15-2.78-.3 0-.55-.15-.55-.32 0-.04.2-.08.44-.08.25 0 .47-.04.5-.09s.26-.14.5-.2c.57-.14.99-.5 1.14-.97.16-.53.08-.53-.17 0-.59 1.2-2.83 1.22-3.61.03-.22-.35-.56-.45-.78-.23-.01.02.13.37.31.78.51 1.12.6 1.43.47 1.67-.36.69-1.78.72-2.45.05-.49-.49-.52-.84-.2-2.17.14-.61.28-1.22.31-1.34.16-.83 1.29-.72 1.43.15.05.32.1.37.35.4.29.04.29.04.13-.22-.19-.28-.23-.66-.07-.66.05 0 .14.09.2.2.1.18.21.2 1.38.2l1.27-.01-.24-.19c-.17-.15-.38-.2-.77-.2-.67 0-.82-.21-.4-.57.37-.31.92-.31 1.39.01l.36.25-.11-.25c-.17-.37.2-.5.94-.31.58.15.52.96-.08.97-.15 0-.2.06-.2.22.01.13-.08.26-.21.33-.32.17-.14.39.25.3.6-.13 1.26-1.2 1.03-1.64-.11-.2-.05-.51.1-.51.05 0 .09-.04.09-.1 0-.13-3.69-.13-4.22-.01-.21.05-.54.23-.73.4-.53.46-1.67.46-2.25 0-.52-.42-.92-.48-3.09-.49-1.75 0-1.83.01-1.69.18.28.3-.12.9-.51.77-.29-.09-.35.38-.28 2.19.05 1.42.05 1.52-.15 1.73-.38.41.16 1.43.77 1.43.39 0 .51.12.3.3-.52.43-1.23-.23-1.61-1.48-.14-.48-.39-1.3-.56-1.82-.37-1.17-.41-1.85-.14-2.06.3-.21.72-.18.9.08l.16.22v-.24c0-.44-.12-.7-.34-.76-.19-.04-.27-.24-.55-1.34-.5-1.91-.47-2.31.23-3.27.25-.34.24-.81-.02-1.3-.23-.42-.16-.5.46-.56.35-.03 1-.22 1.59-.45 2.09-.85 4.29-.81 5.8.08.46.27.3-.04-.22-.44-1.29-.99-2.95-1.23-4.64-.67-.51.17-1.04.31-1.17.31s-.34.12-.47.26c-.2.21-.4.28-1.03.38-1.17.17-1.22.24-.79 1.18.34.72.32.83-.2 1.39-.42.45-.45.52-.45 1.01 0 .53.35 2.14.64 2.95l.15.43-.28.15c-.6.3-.57 1.04.14 3.53.7 2.47.89 2.82 1.52 2.82.17 0 .24.07.29.28.06.32.79 2.88.99 3.48.28.9 1.17 1.96 2.25 2.72.86.6 1.3 1.02 1.3 1.24 0 .16.1.18.92.18h.92zm2.46.1c0-.2.24-.43 1.4-1.31 1.87-1.43 2.65-2.96 2.95-5.82.06-.56.08-.58.35-.58.72 0 1-.52 1.65-3.08.6-2.35.59-2.94-.04-3.26l-.28-.15.17-.52c.26-.76.34-2.1.2-3.2-.47-3.66-2.59-6.24-5.97-7.25-2.6-.79-6.78.06-7.7 1.55-.37.59-.75.85-1.55 1.08-.64.18-.66.33-.1.65.27.16.3.17.28.01-.01-.12.11-.19.38-.25.39-.08 1.92-1.4 2.08-1.79.35-.88 4.41-1.39 6.41-.81 2.77.8 4.67 2.7 5.38 5.37.43 1.59.26 5.1-.24 5.17-.2.03-.22.1-.24.63-.01.33.01.53.04.45.21-.54.81-.68 1.09-.24.21.31.16.57-.45 2.84-.52 1.91-.64 2.15-1.14 2.16-.45.01-.66.24-.67.75-.02 2.72-1.7 5.45-3.67 5.98-.24.07-.47.17-.53.24-.52.61-1 1.35-1 1.52 0 .03.27.05.6.05.52 0 .6-.02.6-.19Zm-1.07-.76c.62-.96.64-1.42.05-.95-.31.24-.38.18-.38-.36 0-.34.05-.47.27-.64.36-.28.56-.1.25.23-.3.32-.29.52.01.33.41-.26 1.17-.29 1.17-.05 0 .27.27.19.99-.29 1.49-1 2.27-2.83 2.24-5.24-.01-1.56-.08-1.72-.8-2.15-.49-.29-.62-.26-.4.09.73 1.13.63 2.44-.33 4.41-.68 1.39-1 1.47-1 .22 0-.74-.11-.81-1.02-.61-.4.08-1.21.19-1.8.22l-1.07.07.29.27c.35.33.47.73.31 1.07-.11.25-.12.25-.31.08-.11-.1-.2-.16-.2-.12 0 .03-.07.41-.15.84-.33 1.72-.04 2.63 1 3.17.39.21.33.25.88-.59Zm-2.43-1.19c0-.19.07-.69.16-1.12s.14-.97.11-1.2c-.05-.46.05-.58.36-.42.22.11.22 0 0-.24-.3-.33-1.09-.25-1.16.12-.1.46-.25.36-.57-.34-.17-.36-.52-1-.8-1.42-.6-.92-.62-1.08-.12-1.33.75-.39 1.34-1.3 1.11-1.72-.06-.12-.08-.35-.05-.51.05-.26.04-.29-.09-.18-.08.07-.15.19-.15.26s-.25.32-.55.55c-.8.6-1.08 1.95-.7 3.39.18.69.54 1.47.55 1.18 0-.25.39-.44.55-.26.17.18.6 2.01.52 2.21-.11.3-.56.4-1.02.23l-.4-.15.35.31c.3.26 1.61.97 1.83.98.04 0 .07-.15.07-.34Zm-1.2-1.31c0-.31-.32-1.45-.41-1.45-.04 0-.09.09-.12.21-.23.88-1.08-.93-1.24-2.63-.05-.62-.08-.68-.28-.68-.98 0-.55 2.71.63 4.02.69.77 1.42 1.04 1.42.53Zm1.3-2.5c.47-.08 1.17-.15 1.55-.15 1.23 0 2.55-.33 2.87-.72.35-.41.37-.61.03-.52-.47.12-1.9.09-2.47-.05-.52-.13-.68-.12-1.53.04-.62.11-1.2.16-1.65.13l-.71-.05.17.26c.1.14.31.47.48.73s.33.48.36.48.43-.07.9-.15Zm.22-.58c-.47-.5-.21-.61 1.42-.6 1.25.02 1.49.1 1.3.41-.31.49-2.31.63-2.72.19Zm.56-1.22c.57-.14.69-.14 1.2.01.43.13.81.15 1.6.11 1.09-.05 1.3-.12.97-.29-.11-.06-.43-.35-.72-.64-.61-.64-.55-.63-1.23-.19-1.13.72-1.81.68-2.63-.16l-.48-.5-.17.32c-.24.46-.7.96-1.03 1.16-.2.12-.25.19-.16.25.21.13 1.99.08 2.65-.07Zm7.19-1.19c.36.07.5-.21.83-1.6.11-.44.28-1.12.4-1.51.31-1.09.23-1.72-.18-1.31-.14.13-.14.2-.04.36.19.31.15.46-.19.73-.3.23-.31.28-.36 1.13-.06.94-.21 1.34-.52 1.34-.13 0-.26.15-.4.43-.27.55-.28.76-.03.53.13-.11.28-.14.49-.1Zm-10.35-.78c.78-.64.83-.68.77-.68-.03 0-.32.2-.65.44-.81.61-1 .43-.26-.24l.54-.48-.54-.1c-1.1-.21-1.78-.22-1.78-.02 0 .54.45 1.34.85 1.51.34.14.42.1 1.07-.43Zm4.56.11c.46-.16.46-.36.02-1.42-.23-.54-.46-1.28-.53-1.65-.1-.55-.16-.68-.33-.7-.31-.04-.39.12-.73 1.52-.31 1.28-.31 1.29-.13 1.64.31.6 1.01.85 1.7.61Zm5.14-.34c.02-.14.12-.21.35-.23.22-.02.33-.09.37-.25.07-.28.08-3.57 0-3.57-.31 0-.65.68-1.03 2.07-.13.47-.52.99-.82 1.08-.17.06-.12.13.38.64.59.59.68.62.75.26Zm-13.08-1.27c-.06-.8-.1-.94-.32-1.13-.23-.2-.24-.23-.11-.58.16-.44.02-.7-.26-.47-.21.18-.19.44.15 1.57.54 1.85.65 1.96.54.61Zm4.19-.28c.62-.23.9-.49.81-.74a.35.35 0 0 1 .06-.31c.11-.13.08-.15-.17-.15a23 23 0 0 1-1.06-.06l-.76-.07-.32.37c-.33.37-.65.46-.87.24-.16-.16-.15.02.01.22.56.71 1.31.87 2.3.5Zm6.85-.01c.29-.06.59-.2.73-.35l.22-.24h-.27c-.22 0-.3-.07-.42-.36l-.15-.37-.52.07c-.29.03-.85.06-1.25.06h-.72l.19.38c.42.82 1.05 1.06 2.19.81ZM18.4 22.81c0-2.3 1.6-5.24 3.3-6.09.96-.47-.43-.19-1.84.37-.43.17-.98.34-1.23.38-.42.06-.44.07-.39.32.22.9.2 1.04-.23 1.61-.51.68-.52.98-.11 2.65.16.66.3 1.21.3 1.23.01.26.2-.2.2-.47Zm.8.39c.12-.08.12-.1.01-.1-.22 0-.05-.77.29-1.32.16-.27.39-.81.51-1.2.86-2.94 2.12-3.89 4.69-3.56l.55.07-.45-.21c-1.6-.75-3.11-.18-4.56 1.74-.9 1.19-1.07 1.55-1.28 2.63-.34 1.84-.29 2.29.24 1.95Zm13.39-1.02c-.41-2.27-1.03-3.23-2.78-4.32-6.16-3.81-7.58-4.21-9.21-2.6l-.25.25.56-.2c1.79-.61 3.63-.21 5.04 1.1.53.49.66.57 1.12.62.6.07 1.22.37 2.48 1.18.5.32 1.12.68 1.38.79.45.2.47.23.47.61 0 .25.12.64.34 1.07.41.81.66 1.62.66 2.14 0 .3.04.38.19.38.18 0 .18-.02 0-1.02Zm-.79-.52c-.84-2.53-3.98-4.8-5.83-4.21-.5.15-.58.16-1.07.01-2.33-.69-3.87.44-4.49 3.28-.16.74-.25.93-.5 1.15-.18.15-.34.4-.37.58l-.06.33 6.23.02 6.24.03.03-.28c.02-.15-.06-.56-.18-.91Zm1.27-1.41c-.06-1.39-.28-2.37-.71-3.24-1.63-3.2-5.83-4.71-9.68-3.47-.78.25-.77.27.22.45 1.3.24 2.42.8 6.44 3.19.88.52 1.78 1.13 2 1.36.67.67 1.54 2.58 1.57 3.45.01.23.02.22.11-.09.06-.21.08-.89.05-1.65ZM24.3 6.35V2.69l1.32.03 1.33.03.03 3.63L27 10h-2.7zm-2 .05V3.1h-2v6.6h2zm4.38-.02.02-3.28h-2.1v6.61l1.02-.03 1.03-.03zm4.22.02V3.1h-2v.88c0 .49-.03 1.97-.07 3.3l-.06 2.42h2.13z"/></svg>