<svg xmlns="http://www.w3.org/2000/svg" width="51" height="51" viewBox="0 0 51 51"><path fill="#fff" fill-rule="evenodd" stroke="#fff" stroke-width=".47" d="M12.63 29.95c-.54-.23-.54-.29-.02-5.9.28-3.05.19-2.95 2.52-2.95 1.71 0 2.35.13 2.88.57.86.73.95 2.36.16 3.28l-.25.31.27.18c1.33.9 1.11 3.15-.4 4.08-.87.54-4.26.82-5.16.43Zm7.94.03c-.53-.14-1.12-.73-1.26-1.25-.35-1.29.83-2.39 2.8-2.6.81-.09.98-.26.63-.64-.23-.25-.83-.25-1.69.02-.73.22-1.06.14-1.2-.3-.33-1.05 2.44-1.87 3.85-1.14.86.44 1.04.87.96 2.28-.16 2.99-.6 3.98-1.61 3.65-.24-.08-.45-.08-.72-.01-.46.13-1.25.12-1.76-.01Zm5.06.03c-.39-.1-.62-.28-.73-.57-.15-.37.52-7.39.74-7.82.2-.4.67-.58 1.05-.43.47.2.55.47.47 1.63l-.07 1.03.76-.03c.43-.03.96.01 1.21.08 2.62.74 2.31 4.84-.44 5.91-.62.24-2.37.36-2.99.2Zm6.19-.01c-.85-.2-.86-.32-.43-4.96.34-3.67.43-3.94 1.26-3.94.61 0 .79.4.71 1.6l-.06 1.08h.87c1.86 0 2.88.98 2.87 2.77 0 1.74-.95 2.95-2.69 3.41-.54.15-1.99.17-2.53.04Zm7.34-.06c-1.61-.51-2.39-2.52-1.63-4.17 1.31-2.87 5.77-2.5 5.77.48 0 1.04-.33 1.2-2.52 1.3l-1.67.07.14.28c.31.61 1.2.79 2.1.43.68-.26 1.1-.28 1.34-.04.99.99-1.68 2.24-3.53 1.65Zm4.61-.06c-.35-.27-.36-.58-.11-3.29.46-5.06.48-5.16 1.03-5.38.64-.27 1.15.2 1.13 1.04-.03 1.02-.61 6.91-.71 7.16-.19.52-.93.77-1.34.47Zm-26.66-.32c1.81-.66 2.3-3.19.78-3.97-.48-.24-.48-.22 0-.74 1.05-1.14.67-2.89-.72-3.3-1.29-.38-4.06-.16-4.07.33 0 .04-.16 1.71-.34 3.72-.33 3.57-.34 4.01-.04 4.14.31.14 3.93-.01 4.39-.18Zm5.33.13c.29-.08.45-.08.62.01.66.36.96-.1 1.18-1.8.36-2.82.12-3.55-1.28-3.81-1.32-.25-3.31.6-2.74 1.18.15.14.2.14.65-.01 1.25-.44 2.12-.27 2.28.44.1.43-.12.59-.99.71-1.93.26-2.94 1.18-2.57 2.32.29.88 1.58 1.31 2.85.96Zm6.23-.23c1.09-.5 1.8-1.48 1.9-2.66.18-1.99-1.2-3.06-3.41-2.64l-.36.06.07-1.24c.06-1.33-.01-1.58-.48-1.58-.52 0-.6.26-.84 2.85-.57 6.18-.73 5.55 1.4 5.51.97-.02 1.17-.05 1.72-.3Zm6.24.02c1.26-.58 1.84-1.51 1.84-2.94 0-1.94-1.06-2.67-3.55-2.42-.16.02-.24-.02-.22-.1.12-.58.14-2.33.02-2.47-.17-.2-.53-.19-.79.03-.25.19-.26.29-.66 4.87-.31 3.58-.42 3.35 1.65 3.31 1.01-.01 1.22-.05 1.71-.28Zm6.96-.01c1.2-.62.91-1.38-.35-.91-1.37.52-2.62.06-2.62-.97v-.26l1.75-.05c2.1-.05 2.28-.12 2.33-.93.14-2.15-2.75-3.1-4.46-1.47-1.57 1.49-1.24 4.08.61 4.76.69.25 2.09.16 2.74-.17Zm2.78.09c.28-.28.28-.25.65-4.35.3-3.35.29-3.64-.09-3.76-.72-.23-.77-.07-1.16 4.12-.41 4.33-.39 3.79-.15 4.03.26.26.46.25.75-.04Zm-23.52-.81c-.71-.3-.46-1.1.4-1.32 1.36-.34 1.57-.23 1.42.74-.1.67-.98.95-1.82.58Zm-7.31-.03c-.17-.11.03-2.42.21-2.54s1.93-.09 2.42.03c1.32.33 1.28 2.04-.05 2.38-.53.14-2.43.23-2.58.13Zm12.62-.06c-.08-.2.23-3.27.33-3.37.15-.15 1.03-.27 1.39-.19 1.69.38 1.44 3.1-.33 3.59-.56.16-1.32.14-1.39-.03Zm6.21.01c-.11-.28.24-3.3.4-3.46.21-.21 1.31-.2 1.72.02 1.12.6.92 2.7-.31 3.34-.43.23-1.74.3-1.81.1Zm-24.8-.39c-.27-.32-.27-.35-.21-1.16l.06-.84-.64.07c-1.07.12-1.56-.15-1.56-.84 0-.71.41-.87 2.47-.96 2.95-.13 3.73.05 3.73.88 0 .65-.25.81-1.32.87l-.93.05-.08.7c-.15 1.43-.87 2.01-1.52 1.23Zm14.76.11c.14-.22.11-.89-.03-.89-.22.01-1.01.2-1.3.31-.36.14-.39.55-.05.69.32.14 1.27.06 1.38-.11Zm-6.83.02c1.09-.13 1.65-.76 1.3-1.48-.18-.37-.69-.51-1.9-.52-1.12-.01-1.03-.11-1.13 1.21l-.07.88h.54c.29-.01.86-.05 1.26-.09Zm12.47-.22c1.47-1.01.74-3.25-.92-2.8l-.4.11-.11 1.32c-.17 1.9-.22 1.72.49 1.65.4-.03.72-.13.94-.28Zm6.24.04c1.46-1.09.71-3.29-.98-2.87l-.36.09-.12 1.25c-.06.69-.12 1.38-.12 1.54l-.01.29.66-.06c.43-.03.76-.12.93-.24Zm-25.7-.12c.11-.11.21-.4.25-.72.04-.3.09-.7.12-.9l.05-.36.95-.05c.98-.05 1.16-.13 1.28-.54.16-.53-.44-.73-2.29-.73-2.6 0-3.45.18-3.45.75 0 .39.37.54 1.35.54h.94l-.06.93c-.07 1.19.29 1.65.86 1.08Zm30.79-1.79c-.77-.03-.81-.1-.45-.63.67-1.01 2.35-.86 2.62.23.05.19.03.29-.06.32-.23.07-1.4.12-2.11.08Zm1.92-.35c0-.63-1.43-.86-1.99-.33-.46.44-.41.46.84.46.89 0 1.15-.03 1.15-.13Zm-27.4-1.43c.01-.88.18-1.96.31-2.06.18-.12 1.81-.03 2.11.12.59.31.76 1.06.38 1.67-.33.55-.61.66-1.76.71l-1.04.05zm2.3-.09c.97-.86.41-1.75-1.11-1.75h-.76l-.07.61c-.03.34-.06.8-.06 1.01v.4l.89-.04c.72-.02.93-.07 1.11-.23Zm-8.37-.12c-.41-.15.08-1.7.59-1.87.8-.28 1.38.71.79 1.38-.29.33-1.07.61-1.38.49Zm.95-.49c.57-.37.51-1.14-.08-1.14-.38 0-.7.47-.7 1.04 0 .42.23.45.78.1Z"/></svg>