<svg xmlns="http://www.w3.org/2000/svg" width="51" height="51" viewBox="0 0 51 51"><path fill="#fff" fill-rule="evenodd" stroke="#fff" stroke-width=".522" d="M24.5 47.99c-2.35-1.06-1.96-4.44.56-4.91 2.38-.44 3.89 2.41 2.28 4.31-.63.75-1.91 1.02-2.84.6Zm1.48-.1c1.76-.37 2.38-2.75 1.05-4.01-.87-.82-2.26-.78-3.14.11-1.64 1.64-.17 4.39 2.09 3.9Zm-1.86-3.01c-.38-.38.81-1.53 1.23-1.18.33.27.24.5-.33.86-.7.45-.75.47-.9.32ZM2.45 30.87c-.46-.22-.97-.69-1.24-1.14-.11-.17-.11-.17-.22.01-.18.29-.8.96-.9.96-.17 0-.09-.22.15-.41.88-.69.88-2.58-.01-3.51-.31-.32-.27-.43.11-.28 1.86.7 3.72-1.54 2.78-3.35C2.6 22.13 1.29 21.6.26 22c-.23.08-.26.07-.26-.1 0-.11.04-.2.1-.2.05 0 .21-.21.36-.46.53-.9.41-2.43-.22-2.93-.39-.31-.29-.39.44-.33 1.72.12 2.87-1.34 2.37-3.04-.33-1.14-1.25-1.73-2.48-1.6-.63.06-.74-.06-.36-.4.76-.67.77-2.49.03-3.29-.3-.32-.31-.49-.03-.4 1.52.48 2.99-.61 2.99-2.22C3.19 5.37 1.92 4.35.38 4.78c-.45.12-.54-.11-.17-.44.85-.77.82-3.24-.06-3.57C.07.73 0 .64 0 .55 0 .43.04.41.19.5.54.68 1.76.62 2.12.4l.33-.2H1.23C.48.2 0 .16 0 .1 0 .03 8.6 0 25.6 0s25.6.03 25.6.1c0 .06-.49.1-1.27.1l-1.28.01.35.19c.45.25 1.65.27 1.98.04s.3.11-.03.38c-1.05.82-1.08 2.56-.06 3.52.34.33.42.63.14.51-2.39-.95-4.47 1.92-2.74 3.78.56.61 1.98.91 2.63.56.37-.2.32.01-.1.39-.99.92-.97 2.53.04 3.49.44.41.42.45-.16.32-1.45-.34-2.71.42-3.01 1.79-.38 1.78 1.43 3.36 3.08 2.67.59-.25.59-.14-.01.46-.92.93-.82 2.77.19 3.43.38.25.3.35-.17.24-2.33-.53-3.93 2.1-2.36 3.87.59.68 1.71.96 2.52.65.35-.13.33 0-.05.36-.94.89-.99 2.32-.11 3.26.25.27.42.51.39.55-.11.11-.58-.28-.85-.71l-.26-.42-.31.45c-1.03 1.54-3.41 1.46-4.26-.13l-.23-.44-.36.51c-1.09 1.56-3.42 1.56-4.36 0l-.3-.51-.23.44c-.85 1.59-3.3 1.69-4.3.17l-.34-.51-.32.46c-1.01 1.48-3.14 1.5-4.2.05-.34-.47-.41-.51-.49-.25-.03.1-.23.35-.43.56-1.19 1.23-3.3.93-4.09-.57l-.15-.28-.32.48c-1.05 1.55-3.33 1.5-4.34-.1l-.24-.39-.28.44c-1.02 1.6-3.35 1.6-4.41 0l-.34-.52-.18.33c-.93 1.83-3.53 1.83-4.68 0-.09-.15-.12-.15-.17-.04-.75 1.84-4.09 1.77-4.68-.09-.07-.22-.08-.21-.23.1-.58 1.2-2.17 1.75-3.37 1.17Zm2.15-.27c1.55-.79 1.61-3.17.1-4.07-2-1.2-4.29.95-3.24 3.05.58 1.17 1.97 1.62 3.14 1.02Zm4.98-.06c1.18-.7 1.42-2.64.44-3.67-1.02-1.08-2.92-.83-3.64.48-1.15 2.09 1.16 4.38 3.2 3.19Zm4.9-.01c1.22-.76 1.49-2.5.54-3.55-1.81-2.01-5.06.19-3.86 2.6a2.33 2.33 0 0 0 3.32.95Zm4.53.25c1.95-.58 2.17-3.48.34-4.34-1.3-.61-2.95.06-3.34 1.35a2.391 2.391 0 0 0 3 2.99Zm4.93 0c.58-.18 1.28-.9 1.45-1.51.66-2.35-1.92-4.05-3.74-2.46-1.85 1.62-.09 4.67 2.29 3.97Zm5.31-.23c.88-.51 1.24-1.55.96-2.72-.54-2.26-3.91-2.12-4.4.18-.43 2 1.69 3.57 3.44 2.54Zm4.55.14c1.06-.48 1.51-1.38 1.3-2.63-.44-2.73-4.5-2.33-4.5.44 0 1.73 1.68 2.88 3.2 2.19Zm5.16-.15c1.06-.65 1.39-1.97.8-3.17-.9-1.85-3.76-1.44-4.26.61-.47 1.99 1.74 3.63 3.46 2.56Zm4.8.08c1.42-.73 1.71-2.86.53-3.86-1.51-1.28-3.93-.24-3.93 1.69 0 1.82 1.82 2.98 3.4 2.17Zm4.91-.01c1.67-.86 1.66-3.46-.02-4.22-1.52-.7-3.31.44-3.3 2.1.01 1.78 1.78 2.91 3.32 2.12ZM36 28.36c0-.26.06-.48.15-.56.08-.07.15-.2.15-.29 0-.23.47-.67.92-.85.38-.16.68.02.68.39 0 .22-1.22.84-1.43.73-.14-.07-.18-.07-.12.02.08.13-.15 1-.27 1-.04 0-.08-.2-.08-.44Zm9.84.31c-.09-.25.05-.87.22-.94.07-.03.14-.16.14-.29 0-.18.12-.32.47-.54.69-.44 1.02-.37 1.03.22 0 .13-1.13.69-1.31.65-.11-.03-.16-.01-.13.04.05.09-.14.77-.28.93-.04.05-.1.02-.14-.07Zm-33.98-.96c-.23-.25-.12-.45.42-.81.59-.39.87-.39 1-.01.1.29.09.31-.54.65-.76.42-.67.4-.88.17Zm9.98-.02c-.22-.24-.13-.43.36-.77.5-.34.8-.39.97-.16.21.29.12.43-.53.8l-.61.34zm4.92.03c-.33-.37.37-1.12 1.04-1.12.23 0 .5.45.34.59-.46.41-1.22.7-1.38.53Zm4.8-.04c-.2-.28-.05-.54.5-.85.59-.34 1.04-.2 1.04.32 0 .03-1.28.75-1.35.75-.02 0-.11-.1-.19-.22Zm9.81.04c-.23-.25-.21-.34.11-.64.57-.54 1.02-.62 1.2-.23.15.34.16.31-.15.48-.16.07-.44.24-.64.35-.35.21-.36.22-.52.04ZM2.1 27.65c-.24-.28.54-1.05 1.07-1.05.19 0 .55.47.41.54-.02.01-.27.16-.56.34-.6.36-.74.39-.92.17Zm4.92.03c-.18-.18-.15-.32.16-.6.58-.54 1.07-.63 1.22-.22.1.26.06.44-.11.44-.05 0-.27.11-.49.25-.44.28-.6.31-.78.13Zm9.9 0c-.28-.28-.09-.6.55-.92.54-.27.83-.18.83.29 0 .29-1.18.83-1.38.63Zm-9.91-1.36c1.7-.88 1.62-3.53-.13-4.26-1.29-.54-2.89.31-3.18 1.68-.41 1.99 1.53 3.51 3.31 2.58Zm5.06-.04c.89-.58 1.27-1.51 1.04-2.6-.53-2.52-4.13-2.3-4.55.28-.31 1.86 1.92 3.33 3.51 2.32Zm4.71.13c2.23-1.14 1.5-4.52-.97-4.51-1.94.01-3.04 2.16-1.93 3.75.6.86 1.99 1.22 2.9.76Zm5.2-.16c1.63-1.08 1.16-3.85-.72-4.25-2.71-.58-4.03 3.05-1.57 4.36.67.35 1.68.31 2.29-.11Zm4.6.16c1.99-1.03 1.52-4.13-.68-4.46-2.58-.38-3.73 3.05-1.45 4.31.73.41 1.52.46 2.13.15Zm4.76.05c1.69-.71 1.88-3.36.29-4.24-1.86-1.03-4.08.79-3.38 2.78.43 1.23 1.93 1.94 3.09 1.46Zm4.94-.05c2.08-1.07 1.62-4.21-.66-4.48a2.34 2.34 0 0 0-2.51 3.08c.43 1.26 2.05 1.98 3.17 1.4Zm5.12-.13c1.04-.63 1.44-1.7 1.06-2.85-.59-1.78-3.06-2.08-4.13-.5-1.38 2.05.96 4.61 3.07 3.35Zm4.79.13c1.43-.73 1.78-2.76.67-3.87-1.36-1.36-3.8-.4-3.94 1.55-.13 1.76 1.75 3.09 3.27 2.32ZM9.55 23.4c-.22-.24.03-.58.67-.91.51-.26.64-.24.76.1.1.29.09.31-.54.65-.76.42-.67.41-.89.16Zm4.87.08q-.33-.33.3-.78c.56-.41.87-.48 1.05-.25.22.31.16.4-.48.78-.69.41-.7.42-.87.25Zm4.88-.03c-.17-.21-.05-.47.38-.76.58-.41.78-.44.97-.15.21.32.17.38-.52.75-.65.36-.66.36-.83.16Zm4.82.03c-.26-.26.12-.74.8-1.02.36-.15.38-.15.52.06.24.34.2.41-.47.76-.7.37-.69.36-.85.2Zm5 0c-.29-.29.06-.78.78-1.08.35-.15.6.02.6.39 0 .13-.67.57-1.2.79-.03.01-.11-.03-.18-.1Zm4.84-.07c-.29-.32.48-1.11 1.08-1.11.2 0 .44.47.3.59-.48.42-1.22.7-1.38.52Zm4.92-.07c-.2-.43 1.01-1.31 1.32-.98.3.33.21.52-.44.88-.77.43-.73.43-.88.1Zm5.04.14c-.28-.28-.02-.68.65-1.02.42-.21.6-.2.73.03.17.32.12.39-.53.76-.73.4-.69.39-.85.23Zm4.84-.06c-.22-.25.05-.61.71-.93l.46-.22.19.23c.26.32.21.4-.48.77-.7.38-.67.38-.88.15ZM4.6 23.35c-.18-.22-.06-.42.47-.75.64-.41 1.03-.32 1.03.25 0 .07-1.1.65-1.24.65-.07 0-.19-.07-.26-.15Zm-.13-1.26c.91-.44 1.42-1.44 1.27-2.48-.44-3.03-4.82-2.5-4.62.55.1 1.58 1.91 2.63 3.35 1.93Zm4.77.07c2.26-.94 1.59-4.56-.84-4.56-2.5.01-3.32 3.26-1.12 4.4.65.33 1.4.39 1.96.16Zm5.05-.11c2.17-1.1 1.48-4.44-.93-4.45-2.58-.01-3.45 3.22-1.17 4.38.81.4 1.41.43 2.1.07Zm5.24-.11c1.82-1.28.94-4.34-1.25-4.34-2.56 0-3.31 3.27-1.03 4.49.61.32 1.7.25 2.28-.15Zm4.5.15c2.22-1.12 1.54-4.5-.9-4.49-1.35.01-2.33.96-2.33 2.27 0 1.79 1.73 2.97 3.23 2.22Zm4.95-.05c1.66-.83 1.66-3.4.01-4.25-.92-.47-2.36-.08-2.94.79-1.33 2.03.78 4.53 2.93 3.46Zm4.77.07c1.37-.62 1.8-2.58.82-3.76-.98-1.19-3.06-.93-3.78.47-1 1.95 1 4.19 2.96 3.29Zm5.23-.18c1.81-1.46 1.02-4.33-1.2-4.33-2.6 0-3.34 3.26-1.03 4.49.62.33 1.72.25 2.23-.16Zm4.68.18c1.36-.62 1.76-2.55.76-3.71-1.14-1.34-3.36-.96-3.98.66-.74 1.95 1.33 3.91 3.22 3.05Zm5.05-.09c1.42-.74 1.58-2.97.28-3.92-1.63-1.18-3.71-.12-3.7 1.88 0 1.75 1.86 2.85 3.42 2.04ZM2.06 19.08C1.8 18.71 2.5 18 3.13 18c.71 0 .54.49-.35.98l-.57.32zm4.96.1C6.7 18.86 7.41 18 8 18c.63 0 .52.6-.17.95-.32.16-.6.31-.63.32-.03.02-.11-.02-.18-.09Zm4.83-.08c-.3-.33.43-1.1 1.06-1.1.3 0 .53.42.33.59-.49.43-1.22.7-1.39.51Zm5.02.08c-.39-.21-.01-.77.73-1.08.33-.14.77.14.68.42-.07.2-1.24.76-1.41.66Zm4.89-.07c-.33-.36.37-1.11 1.04-1.11.23 0 .5.45.34.59-.46.4-1.23.69-1.38.52Zm4.9 0c-.33-.36.34-1.11.99-1.11.28 0 .57.43.39.59-.48.43-1.22.7-1.38.52Zm4.89-.01c-.31-.34.39-1.1 1.02-1.1.26 0 .54.44.37.59-.47.41-1.22.69-1.39.51Zm4.81.01c-.33-.36.37-1.11 1.04-1.11.23 0 .5.45.34.59-.46.4-1.23.69-1.38.52Zm4.89-.01c-.3-.33.44-1.1 1.06-1.1.3 0 .53.42.33.59-.48.42-1.23.69-1.39.51Zm4.97.08c-.28-.28-.02-.68.65-1.02.42-.21.6-.2.73.03.17.32.13.38-.54.75-.74.41-.68.4-.84.24ZM6.83 17.79c2.26-1.14 1.52-4.49-1-4.49-2.53 0-3.27 3.38-.98 4.46.65.31 1.4.32 1.98.03Zm4.78.06c1.28-.45 1.85-1.65 1.44-3.02-.55-1.85-3.37-2.07-4.27-.34-1.03 1.96.76 4.09 2.83 3.36Zm5.35-.21c1.11-.68 1.5-2.29.81-3.32-1.26-1.9-4.26-.98-4.27 1.31 0 1.88 1.89 2.99 3.46 2.01Zm4.75.07c.93-.49 1.38-1.46 1.2-2.59-.43-2.72-4.51-2.26-4.51.51 0 1.8 1.76 2.91 3.31 2.08Zm5-.07c1.86-1.25 1.26-4.04-.92-4.3-2.62-.31-3.63 3.27-1.24 4.43.69.33 1.55.28 2.16-.13Zm4.59.15c1.26-.57 1.75-2.07 1.09-3.35-.79-1.53-3.2-1.5-4.01.05-1.03 1.97.94 4.2 2.92 3.3Zm5.16-.14c1.64-.96 1.32-3.77-.48-4.26-1.56-.42-3.01.67-3.01 2.26 0 1.8 1.93 2.91 3.49 2Zm4.35.23c1.86-.55 2.18-3.42.48-4.29-1.95-.99-4 .73-3.38 2.82.35 1.15 1.7 1.84 2.9 1.47Zm5.34-.16c1.56-.85 1.59-3.35.05-4.15-1.42-.74-3.09.06-3.41 1.64-.39 1.88 1.68 3.43 3.36 2.51ZM4.44 14.75c-.2-.31-.04-.54.58-.86.52-.27.76-.25.84.07.08.3.06.31-.68.73l-.57.32zm5.02.09c-.35-.34.42-1.14 1.09-1.14.19 0 .42.47.29.59-.43.37-1.24.7-1.38.55Zm4.98-.05c-.22-.24-.13-.43.36-.77.5-.34.8-.39.97-.16.21.29.13.42-.53.79l-.61.35zm4.91.01c-.23-.25-.15-.43.36-.8.48-.35.84-.38.99-.11.15.28.13.36-.12.49-.13.06-.42.22-.64.36-.41.25-.42.25-.59.06Zm4.81.01c-.23-.25-.1-.51.42-.86.44-.3.78-.32.92-.06.17.32.12.4-.39.66-.27.13-.52.29-.56.35-.09.15-.2.12-.39-.09Zm4.85.05c-.2-.24-.09-.48.37-.83.6-.46 1.12-.39 1.12.15 0 .07-.8.56-1.31.8-.03.01-.12-.04-.18-.12Zm9.75-.08c-.2-.28-.07-.51.48-.83.51-.3.72-.31.86-.06.15.3.12.41-.15.51-.13.05-.42.21-.64.34l-.4.26zm9.84.07c-.19-.23-.08-.47.38-.82.62-.47 1.12-.37 1.12.22 0 .03-1.28.75-1.34.75-.02 0-.09-.07-.16-.15Zm-14.7-.1c-.23-.28.35-.88.98-1.01.27-.06.69.37.5.51-.71.5-1.31.71-1.48.5Zm9.82.03c-.2-.2-.14-.35.25-.67.63-.52 1.23-.49 1.23.06 0 .28-1.28.81-1.48.61ZM4.47 13.42c.86-.44 1.27-1.21 1.21-2.27-.15-2.98-4.58-2.83-4.58.15 0 1.81 1.78 2.93 3.37 2.12Zm4.9.05c1.44-.75 1.71-2.88.49-3.94-1.07-.95-2.92-.6-3.58.66-1.06 2.03 1.09 4.31 3.09 3.28Zm4.89-.02c1.02-.51 1.56-1.74 1.24-2.84-.46-1.62-2.59-2.16-3.86-.99-1.93 1.78.27 5 2.62 3.83Zm5.03-.05c1.63-.83 1.56-3.55-.11-4.25-2.66-1.1-4.68 2.87-2.13 4.18.84.43 1.51.45 2.24.07Zm4.93-.05c1.02-.67 1.38-2.09.8-3.21-1.13-2.19-4.67-.97-4.28 1.48.27 1.65 2.16 2.59 3.48 1.73Zm4.43.24c1.57-.44 2.06-2.75.84-3.98-1.04-1.04-3.1-.69-3.7.63-.86 1.9.85 3.9 2.86 3.35Zm4.79 0c1.26-.32 2.04-2 1.5-3.27-.91-2.2-4.47-1.56-4.48.81-.01 1.77 1.34 2.88 2.98 2.46Zm5.32-.17c1.1-.57 1.58-2.01 1.05-3.18-.84-1.85-3.77-1.63-4.31.32-.58 2.04 1.43 3.8 3.26 2.86Zm5.14-.13c1.91-1.3 1.12-4.28-1.14-4.29-1.85-.01-2.91 1.47-2.31 3.21.49 1.4 2.2 1.93 3.45 1.08Zm4.68.17c1.69-.89 1.63-3.58-.1-4.3-2-.84-3.95 1.3-2.97 3.25.22.45.9 1.07 1.26 1.15.16.03.32.08.38.1.19.07 1.17-.06 1.43-.2ZM1.6 11.15c0-.22.08-.43.2-.55s.18-.25.15-.29c-.15-.26.65-.91 1.12-.91.17 0 .53.45.42.53-.23.2-1.3.67-1.39.62-.07-.04-.1-.01-.09.06.04.18-.23.89-.33.89-.04 0-.08-.16-.08-.35Zm5.37-.63c-.23-.25-.21-.34.11-.64.71-.66 1.32-.65 1.32.03 0 .1-.04.19-.1.19-.05 0-.32.13-.6.3-.6.35-.53.34-.73.12Zm4.87-.08c-.31-.46 1.01-1.42 1.33-.98.23.32.11.53-.54.89l-.63.35zm9.79-.01c-.29-.44.94-1.34 1.32-.96.28.27.13.52-.52.88l-.63.35zm19.63.15c-.42-.24.01-.88.78-1.18.33-.12.49-.02.6.37.08.27-1.1.96-1.38.81Zm-24.39-.05c-.28-.27.11-.8.78-1.08.42-.18.65-.06.65.36 0 .28-1.25.91-1.43.72Zm9.65-.05c-.23-.23-.12-.48.35-.78.67-.43 1.03-.38 1.03.15 0 .29-1.18.83-1.38.63Zm4.84-.1c-.31-.43.98-1.36 1.3-.94.24.34.16.5-.45.84-.71.38-.66.37-.85.1Zm5 .03c-.25-.28-.09-.52.59-.87.55-.28.56-.29.71-.1.26.37.17.54-.46.86-.7.36-.63.35-.84.11Zm9.86.07c-.29-.29.09-.8.83-1.08.32-.12.55.05.55.41 0 .31-1.17.88-1.38.67ZM7.08 9.03c1.6-.91 1.37-3.69-.34-4.21-2.24-.67-4.06 1.68-2.79 3.6.6.9 2.1 1.2 3.13.61Zm4.88.01c.83-.47 1.19-1.16 1.12-2.14-.22-2.99-4.57-2.87-4.58.13 0 1.83 1.87 2.92 3.46 2.01Zm4.94.05c1.13-.57 1.55-2.01.92-3.2-.8-1.53-3.08-1.6-4.02-.12-1.28 2.02.95 4.41 3.1 3.32Zm5-.1c1.5-.82 1.49-3.23-.01-4-1.69-.86-3.63.39-3.46 2.23.16 1.75 1.9 2.64 3.47 1.77Zm4.84.02c1.52-.81 1.47-3.35-.08-4.07-1.66-.77-3.49.48-3.33 2.28.16 1.77 1.82 2.64 3.41 1.79Zm4.66.09c2.01-1.01 1.47-4.19-.73-4.38-1.45-.12-2.56.88-2.57 2.31 0 1.77 1.73 2.85 3.3 2.07Zm5.06-.11c1.55-.88 1.38-3.44-.28-4.13-1.64-.69-3.41.6-3.25 2.35.16 1.77 1.96 2.68 3.53 1.78Zm4.89.03c1.56-.85 1.44-3.37-.2-4.13-1.29-.6-2.95.2-3.26 1.55-.45 2.02 1.64 3.58 3.46 2.58Zm5.07-.09c1.26-.88 1.2-3.14-.1-3.91-1.38-.81-3.18-.03-3.53 1.52-.44 2 1.92 3.56 3.63 2.39ZM4.55 6.2c-.29-.32.23-.92.93-1.06.33-.07.68.35.46.55-.48.43-1.22.7-1.39.51Zm4.9 0c-.3-.33.26-.95.99-1.07.36-.06.64.34.4.57-.45.42-1.21.69-1.39.5Zm4.97.08c-.2-.2-.13-.45.22-.76.45-.39.95-.51 1.13-.26.22.3.15.41-.52.78-.76.42-.68.39-.83.24Zm4.98-.14c-.27-.5 1.03-1.34 1.36-.89.29.4.21.48-1.07 1.06-.12.05-.2 0-.29-.17Zm24.28.02c-.22-.51.97-1.34 1.29-.9.28.38.13.54-1.09 1.12-.04.02-.13-.08-.2-.22Zm4.94.12c-.2-.2-.13-.45.22-.76.46-.4.95-.51 1.13-.26.22.3.12.45-.52.8-.68.38-.67.38-.83.22Zm-24.36-.14c-.12-.32-.05-.45.41-.74.66-.42 1.13-.31 1.13.25 0 .08-1.18.65-1.34.65-.07 0-.17-.07-.2-.16Zm4.76.04c-.26-.26.14-.77.77-.99.34-.12.71.1.71.42 0 .25-1.3.75-1.48.57Zm4.77-.1c-.24-.45 1.07-1.24 1.38-.82.23.32.14.48-.46.77-.7.33-.77.33-.92.05Zm4.92.04c-.14-.25.09-.57.59-.82.54-.27.78-.26.91.06.11.32.16.26-.54.64-.66.35-.83.37-.96.12ZM14.27 4.83c1.31-.6 1.68-2.78.65-3.86-1.78-1.88-4.88.27-3.81 2.63.57 1.26 1.93 1.79 3.16 1.23Zm4.95.01c1.4-.72 1.7-2.8.57-3.93-1.84-1.83-4.85.4-3.7 2.74.61 1.24 2 1.77 3.13 1.19Zm4.74.05c1.16-.36 1.74-2.24 1.05-3.44-1.13-1.97-4.05-1.36-4.28.88-.19 1.83 1.43 3.11 3.23 2.56ZM29 4.8c1.43-.73 1.66-2.97.42-4-1.96-1.62-4.73.65-3.54 2.9.62 1.2 1.97 1.68 3.12 1.1Zm4.86-.03c1.52-.79 1.66-3.14.25-4.08-.9-.59-1.77-.59-2.61.02-2.32 1.68-.17 5.39 2.36 4.06Zm4.91.01c1.21-.56 1.62-2.37.8-3.59-.58-.86-1.9-1.2-2.82-.72-2.8 1.46-.84 5.65 2.02 4.31Zm4.91 0c.92-.43 1.47-1.65 1.23-2.71-.61-2.72-4.61-2.25-4.61.54 0 1.87 1.69 2.96 3.38 2.17Zm4.89.05c1.07-.49 1.61-1.92 1.18-3.14-.59-1.66-2.99-1.94-4.04-.49-1.45 2 .64 4.64 2.86 3.63Zm-44.14.03c1.41-.59 1.81-2.76.73-3.94C4.57.26 3.35.06 2.54.48c-2.73 1.4-.93 5.57 1.89 4.38Zm4.8.05c1.7-.65 1.9-3.44.31-4.37-1.53-.9-3.43.28-3.44 2.14 0 1.64 1.63 2.8 3.13 2.23ZM2.09 1.69C1.9 1.33 3.01.46 3.37.68c.4.25.26.6-.36.91-.72.37-.77.37-.92.1Zm4.93.09c-.18-.18-.15-.32.16-.61C7.84.54 8.5.51 8.5 1.12c0 .32-1.26.88-1.48.66Zm4.85.05c-.28-.27.18-.86.88-1.13.32-.12.55.05.55.41 0 .28-1.25.91-1.43.72Zm4.93-.08c-.17-.21-.07-.4.41-.75s.84-.38.99-.11c.17.33.12.4-.5.71-.68.34-.73.35-.9.15Zm4.8 0c-.17-.21-.07-.4.41-.75s.84-.38.99-.11c.16.32.13.36-.5.69-.69.37-.73.37-.9.17Zm4.92.03c-.28-.28.31-.92.96-1.04.38-.07.38-.07.47.27.1.41-1.13 1.07-1.43.77Zm4.88-.03c-.17-.2-.08-.38.33-.69.64-.49 1.17-.4 1.17.19 0 .06-1.13.65-1.26.65-.06 0-.17-.07-.24-.15Zm4.92.03c-.28-.28.29-.92.93-1.04.41-.07.41-.08.5.27.1.41-1.13 1.07-1.43.77Zm4.88-.03c-.19-.23-.02-.53.44-.8.51-.3.82-.32.96-.06.17.33.12.4-.5.71-.68.34-.73.35-.9.15Zm5.02.03c-.3-.3.01-.7.81-1.03.38-.16.48-.1.61.32.1.32-1.17.96-1.42.71Z"/></svg>