<svg xmlns="http://www.w3.org/2000/svg" width="51" height="51" viewBox="0 0 51 51"><path fill="#fff" fill-rule="evenodd" stroke="#fff" stroke-width=".44" d="M10.43 41.1c-2.89-1.46-1.91-5.7 1.32-5.74.38-.01.82.02.96.06.31.09.39-.24.39-1.67 0-.97-.02-.95 1.06-.95h.74v7.3l-.47.35c-1.36 1-2.84 1.24-4 .65Zm13.7.11c-3.16-.81-2.68-5.65.58-5.89 2.16-.15 3.58 1.91 2.83 4.11-.44 1.3-2.04 2.13-3.41 1.78ZM13 40.95c.25-.09.7-.32 1-.53l.55-.37.06-1.45c.04-.8.07-2.36.08-3.48l.01-2.02h-1.4v1.33c0 1.53.01 1.5-.52 1.31-1.82-.64-3.81.72-3.81 2.59 0 2.06 1.97 3.34 4.03 2.62Zm4.5-2.66v-2.91l1.28.04c1.69.06 2.25.35 2.52 1.34.39 1.39-.41 2.34-2.02 2.42l-.87.04-.03.97-.03.96-.42.03-.43.03zm11.37 2.84c-.04-.03-.07-1.34-.07-2.9V35.4h.9v5.8h-.38c-.21 0-.42-.03-.45-.07Zm2.5.01c-.04-.04-.07-1.35-.07-2.91V35.4h.95l1.4 2.15 1.4 2.14.05-2.12.05-2.12.43-.03.42-.03v5.81h-.96l-1.39-2.12-1.4-2.12-.05 2.09-.05 2.1-.35.03c-.2.02-.39 0-.43-.04Zm7.5 0c-.04-.04-.07-1.14-.07-2.45v-2.38l-.97-.03-.98-.03v-.8l2.38-.03 2.37-.02v.9h-1.8l-.02 2.43-.03 2.42-.4.03c-.23.02-.44 0-.48-.04Zm-13.21-.29c1.18-.35 1.69-1.13 1.69-2.61 0-.95-.02-1.04-.3-1.5-1.05-1.69-3.64-1.46-4.51.41-1 2.12.9 4.37 3.12 3.7ZM18 40.07c0-1.11.03-1.14 1.15-1.19 1.4-.06 1.89-.48 1.9-1.6 0-1.09-.54-1.48-2.16-1.56l-1.09-.05v2.62c0 1.67.04 2.61.1 2.61s.1-.34.1-.83Zm11.4-1.77c0-1.67-.04-2.6-.1-2.6s-.1.93-.1 2.6.04 2.6.1 2.6.1-.93.1-2.6Zm2.5.14c0-1.3.04-2.34.09-2.34s.8 1.08 1.66 2.41c2.09 3.18 1.99 3.2 2.03-.24.01-1.69-.01-2.57-.08-2.57-.06 0-.1.84-.1 2.39 0 1.51-.04 2.42-.1 2.46-.06.03-.83-1.04-1.72-2.39-1.39-2.13-1.64-2.46-1.86-2.46h-.25l.06 1.73c.04.94.07 2.12.07 2.6 0 .56.04.86.1.82s.1-.95.1-2.41Zm7.52-.01.03-2.48.93-.03c.5-.01.92-.07.92-.12 0-.06-.82-.1-2.1-.1-1.33 0-2.1.04-2.1.1s.24.1.52.1c.29 0 .77.03 1.06.06l.52.07v2.43c0 1.53.04 2.44.1 2.44s.11-.94.12-2.47Zm-15.47 2.13c-1.64-.77-1.98-2.71-.7-4.03 1.22-1.25 3.35-.77 3.84.86.66 2.21-1.2 4.09-3.14 3.17Zm2-.41c1.27-.73 1.24-2.98-.05-3.73-1.41-.83-3.06.21-3.05 1.93.02 1.67 1.66 2.63 3.1 1.8ZM11 39.68c-1.23-.84-.71-2.88.74-2.88 1.58 0 2.18 2.08.84 2.9-.46.28-1.15.27-1.58-.02Zm1.5-.26c.39-.28.63-.86.55-1.29-.24-1.31-2.11-1.4-2.45-.12-.32 1.17.94 2.1 1.9 1.41Zm5.58-1.99c-.03-.71-.04-1.31-.01-1.35.02-.05.42-.08.89-.08 1.39 0 1.84.32 1.84 1.34 0 .98-.54 1.36-1.96 1.36h-.71zm1.74.87c.73-.21.95-1.15.39-1.71-.27-.27-.35-.29-1.05-.29h-.76v2.1h.53c.28 0 .69-.05.89-.1ZM26 30.19c-4.39-.47-8.1-4.06-8.69-8.42-.93-6.76 4.38-12.07 11.49-11.49l.85.07.03 2.69c.02 2.53.01 2.68-.15 2.63-.1-.03-.45-.16-.78-.28-3.68-1.36-7.46 1.79-6.86 5.72.61 4.01 5.2 5.62 8.91 3.13.41-.28.94-.61 1.18-.74l.42-.24V16.9c0-4.81.03-6.39.12-6.48.14-.14 4.24-.17 4.45-.04.09.06.12 1.44.13 5.57l.02 5.5-.25.95c-1.16 4.44-4.3 7.26-8.67 7.8-.93.11-1.11.11-2.2-.01Zm-18.46-.32c-.02-.07-.03-.98-.02-2.02l.03-1.9.92-.03.93-.03V15.5H7.5v-1.39c0-1.23.02-1.4.18-1.46 1.44-.58 7.04-2.45 7.14-2.39.04.03.08 3.56.08 7.85v7.79h1.9l-.02 2.03-.03 2.02-4.58.03c-3.66.02-4.59 0-4.63-.11Zm21.96-.17c3.51-.9 6.13-3.56 7.06-7.18.29-1.12.3-1.47.27-7.88l-.03-4.01-.99-.05c-.54-.03-1.46-.03-2.05 0l-1.06.05v12.76l-.58.32c-.31.18-.93.56-1.37.85-4.16 2.69-9.15.37-9.18-4.26-.02-3.75 3.67-6.43 7.17-5.21.33.12.61.21.63.21.01 0 .03-1.05.03-2.34v-2.35l-.47-.07c-.26-.04-1.06-.04-1.78-.01-4.58.21-8.04 2.79-9.32 6.94-.38 1.24-.41 4.13-.05 5.36C19.27 27.99 24.4 31 29.5 29.7Zm7.87.23c-.04-.03-.07-.53-.07-1.1V27.8h-.25c-.25 0-.25-.01-.25-.85s0-.85.25-.85c.24 0 .25-.03.25-.6v-.61l.97.03.98.03.03.58c.03.56.04.57.32.57h.3v1.7h-.6v.94c0 1.31.04 1.26-.99 1.26-.48 0-.91-.03-.94-.07Zm3.08-.05c-.03-.07-.04-1.37-.03-2.88l.03-2.75h1.9l.03 1.03.03 1.02.29-.15c1.22-.63 2.02.19 2.08 2.12.06 1.82.11 1.74-1.01 1.71l-.92-.03-.06-.98c-.11-1.61-.37-1.59-.41.03l-.03.95-.93.03c-.69.02-.94-.01-.97-.1Zm-23.93-1.93.03-1.74-.9-.03-.9-.03-.03-7.83c-.01-4.3-.04-7.82-.06-7.82-.06 0-4.15 1.41-5.61 1.93l-1.2.43-.03 1.22-.03 1.21.93.03.93.03.03 4.93c.01 2.72-.01 5.15-.06 5.4l-.07.47-.88.03-.87.03v3.49h8.69zm22.5.67.03-1.07.28-.03c.44-.05.42-1.22-.03-1.22-.28 0-.29-.01-.32-.57l-.03-.58-.67-.03-.67-.03-.03.58c-.03.51-.06.58-.25.61-.33.05-.35 1.22-.03 1.22.19 0 .2.07.2 1.03 0 1.23-.04 1.17.81 1.17h.68zm3.08.19c0-1.08.19-1.44.64-1.23.25.11.26.15.26.96 0 1.17-.01 1.16.81 1.16h.69v-1.2c0-1.73-.25-2.2-1.18-2.2-.35 0-.49.06-.74.3-.45.45-.48.4-.48-.9v-1.2h-1.4v5.2h1.4zm-15.47-5.92c-1.31-.24-2.25-1.57-2.08-2.94.32-2.56 3.78-3.19 4.91-.89.98 2.01-.66 4.23-2.83 3.83Zm1.63-.5c.82-.39 1.31-1.35 1.21-2.35-.28-2.75-4.19-2.88-4.63-.15-.32 1.98 1.6 3.38 3.42 2.5Z"/></svg>