<svg xmlns="http://www.w3.org/2000/svg" width="51" height="51" viewBox="0 0 51 51"><path fill="#fff" fill-rule="evenodd" stroke="#fff" stroke-width=".421" d="M7.61 46.94c-1.81-.49-3.22-2.02-3.5-3.84-.15-.9-.15-33.63-.01-34.8.27-2.17 1.78-3.78 3.9-4.16.96-.17 34.04-.2 35.1-.03 1.84.29 3.37 1.67 3.86 3.49.21.78.23 34.61.03 35.7-.35 1.81-1.84 3.31-3.67 3.69-.89.19-35.01.14-35.71-.05Zm35.49-.15c1.8-.29 3.23-1.62 3.65-3.4.22-.97.22-34.71 0-35.68-.45-1.9-2.03-3.22-4.07-3.41-1.27-.12-32.54-.12-33.97 0-1.79.14-3.05.88-3.84 2.23-.6 1.03-.58-.01-.55 19.33l.03 17.69.32.68a4.65 4.65 0 0 0 3.09 2.51c.75.18 34.24.23 35.34.05Zm-30.9-6.32c-.96-.31-1.79-1.65-1.64-2.67.12-.84.4-1.19 3.21-4.01l2.74-2.76-.98-.06c-.54-.04-1.47-.07-2.08-.07-1.22 0-1.67-.14-2.19-.66-1.18-1.2-.89-3.13.62-4.02l.47-.27h3c3.88 0 4.14.09 4.98 1.8.75 1.51 1.43 2.18 3.04 3 .97.49 1.37.87 1.71 1.62.3.66.25 5.9-.06 6.58-.8 1.75-2.77 2.18-4.08.91-.69-.67-.74-.9-.74-3.31v-2l-2.82 2.82c-3.37 3.36-3.72 3.56-5.18 3.1Zm15.3-.08c-1.4-.63-1.54-1.03-1.58-4.52-.04-3.93.04-4.15 2-5.18 1.37-.72 2.06-1.4 2.72-2.69 1.04-2.03 1.08-2.05 5.01-2.05 2.99 0 3.11.01 3.5.22 1.87 1.01 1.92 3.6.07 4.5-.52.25-.64.27-1.67.25-.6-.01-1.53.01-2.05.04l-.94.06 2.8 2.77c1.81 1.77 2.87 2.89 2.98 3.14.78 1.75-.44 3.68-2.33 3.67-.86-.01-1.16-.24-4.19-3.21l-2.87-2.81-.05 2.19c-.05 2.01-.07 2.21-.27 2.6-.57 1.05-2.01 1.53-3.13 1.02Zm-13.27-.32c.23-.14 1.68-1.52 3.22-3.06 1.54-1.55 2.83-2.81 2.87-2.81.03 0 .08 1.05.1 2.32.03 2.62.05 2.68.79 3.31.96.83 2.35.69 3.21-.33.54-.63.58-.88.58-3.91-.01-3.68-.05-3.77-1.88-4.73-1.4-.73-2.13-1.44-2.78-2.69-1.01-1.96-1.03-1.96-4.88-1.97-2.83 0-3.02.01-3.43.21-1.69.82-1.68 3.33.02 4.1.35.16.69.19 2.68.19 1.25 0 2.27.04 2.27.08s-1.26 1.34-2.81 2.87c-3.15 3.14-3.39 3.45-3.39 4.43 0 1.78 1.91 2.89 3.43 1.99Zm15.42-.01c.94-.56 1.05-.94 1.05-3.67 0-1.43.04-2.19.1-2.19s1.41 1.29 3.01 2.88c2.98 2.94 3.27 3.18 4.03 3.28 1.38.19 2.74-1.21 2.52-2.6-.14-.86-.39-1.17-3.36-4.06-1.6-1.55-2.87-2.86-2.84-2.91s1.05-.09 2.27-.09c1.93 0 2.27-.03 2.62-.19 1.73-.79 1.75-3.23.03-4.12-.34-.17-.62-.19-3.38-.19-3.79 0-3.91.04-4.67 1.55-.82 1.62-1.61 2.44-3.08 3.17-1.77.89-1.8.95-1.8 4.73 0 2.74.02 3.03.19 3.35.68 1.28 2.13 1.75 3.31 1.06Zm-17.47-15c-1.67-.61-2.19-2.85-.95-4.14.61-.64.71-.67 3.12-.72l2.2-.05-2.86-2.9c-3.08-3.11-3.13-3.18-3.13-4.2-.01-1.88 1.97-3.09 3.67-2.24.27.13 1.42 1.21 3.17 2.97l2.75 2.76.05-2.19c.04-1.84.08-2.25.23-2.52.85-1.57 2.93-1.76 4.14-.39.63.72.68 1.02.68 4.16 0 3.65-.09 3.86-1.98 4.82-1.35.67-2.14 1.46-2.84 2.83-1 1.94-.87 1.89-4.78 1.92-2.38.02-3.18 0-3.47-.11Zm20.02-.07c-.66-.3-.86-.53-1.43-1.64-.7-1.38-1.65-2.33-2.92-2.94-1.86-.89-1.89-.96-1.93-4.69-.04-3.34 0-3.58.69-4.36 1.21-1.37 3.44-1.01 4.14.67.12.29.15.81.15 2.49v2.12l2.93-2.91c2.68-2.67 2.96-2.92 3.46-3.08 1.74-.57 3.46.81 3.28 2.62-.1.92-.28 1.16-3.21 4.11l-2.8 2.82h2.07c2.3 0 2.55.05 3.15.63 1.26 1.21.95 3.29-.62 4.15-.53.29-6.33.3-6.96.01Zm-13.09-.31c.41-.24.53-.41 1.05-1.4.8-1.54 1.59-2.34 3.01-3.06 1.78-.91 1.83-1.04 1.83-4.79 0-2.98-.04-3.25-.57-3.84-1.1-1.21-2.98-1.09-3.74.24-.23.41-.24.49-.27 2.79-.02 1.31-.05 2.38-.07 2.38-.01 0-1.33-1.3-2.91-2.89-3.17-3.18-3.4-3.34-4.39-3.34-1.33 0-2.25.95-2.25 2.3.01.94.15 1.12 3.3 4.3l2.95 2.98-2.4.05c-1.98.04-2.45.08-2.7.22-1.34.74-1.58 2.63-.46 3.72.65.64.8.66 4.16.63l3-.02zm19.65.17c1.62-.48 2.12-2.69.87-3.87-.56-.53-.83-.58-3.23-.58-1.21 0-2.2-.03-2.2-.07s1.32-1.4 2.94-3.02c2.86-2.88 2.94-2.98 3.11-3.55.6-2.07-1.47-3.78-3.3-2.71-.22.13-1.68 1.52-3.25 3.09S30.82 17 30.78 17c-.05 0-.08-1-.08-2.21 0-2.52-.06-2.85-.62-3.41-.91-.91-2.48-.84-3.36.16-.57.65-.64 1.12-.6 4.23.04 3.56.05 3.59 1.83 4.44 1.28.61 2.29 1.64 3.03 3.06.56 1.08.89 1.43 1.52 1.61.59.17 5.67.15 6.26-.03Z"/></svg>