<svg xmlns="http://www.w3.org/2000/svg" width="51" height="51" viewBox="0 0 51 51"><path fill="#fff" fill-rule="evenodd" stroke="#fff" stroke-width=".744" d="M20.15 44.06c-.44-.19-1.02-.89-1.15-1.38-.15-.54-.07-1.16.3-2.32.15-.5.58-1.9.95-3.11.36-1.21.94-3.05 1.27-4.08.69-2.16.67-1.53.17-5.5-.16-1.32-.34-2.48-.41-2.6-.06-.12-1.41-2.16-2.99-4.54-1.82-2.72-2.9-4.45-2.94-4.67-.2-1.05.86-2.07 1.85-1.77.61.18.89.53 3.56 4.54l2.49 3.73 2.21-.01h2.22l2.63-3.88c1.44-2.14 2.77-3.99 2.93-4.12 1.18-.9 2.88.37 2.34 1.74-.09.21-1.46 2.34-3.05 4.73-2.37 3.55-2.91 4.42-2.97 4.79-.03.24-.2 1.63-.36 3.08l-.29 2.65.78 2.45c2.6 8.1 2.71 8.61 2.04 9.53-.8 1.1-2.32 1.18-3.18.16-.37-.44-.44-.61-1.81-4.6-.65-1.92-1.21-3.48-1.25-3.48-.03 0-.63 1.71-1.34 3.8-.84 2.51-1.37 3.93-1.55 4.19-.51.7-1.66 1.02-2.45.67Zm1.79-.37c.56-.38.72-.74 2.01-4.6 1.31-3.9 1.45-4.23 1.65-4.03.06.07.67 1.73 1.35 3.7 1.47 4.28 1.4 4.1 1.72 4.53 1.14 1.5 3.46.4 3.2-1.52-.06-.44-1.28-4.46-2.49-8.21l-.7-2.2.16-1.55c.21-1.94.45-3.95.52-4.39.03-.21 1.15-1.98 3.05-4.83 2.82-4.25 2.99-4.52 2.99-4.95 0-.8-.51-1.34-1.27-1.34-.71 0-.87.19-3.51 4.11-1.39 2.06-2.6 3.84-2.7 3.96-.17.22-.22.23-2.46.25l-2.29.03-2.49-3.75c-2.75-4.13-3.13-4.6-3.78-4.6-.9 0-1.39.58-1.32 1.57.01.12 1.37 2.24 3.01 4.71 2.18 3.28 3.01 4.6 3.05 4.88.16.99.66 5.23.66 5.61 0 .24-.23 1.14-.55 2.1-.76 2.35-2.53 8.21-2.6 8.64-.27 1.52 1.54 2.74 2.79 1.88Zm2.34-21.94c-3.72-1.37-2.73-7 1.22-7 3.37 0 4.86 4.27 2.24 6.41-.85.7-2.43.97-3.46.59Zm2.67-.36c2.03-.97 2.51-3.8.92-5.42-2.17-2.2-5.67-.7-5.67 2.42 0 2.45 2.54 4.06 4.75 3Zm-19.5-3.62c-.11-.26 0-10.86.1-10.95.06-.05.45-.07.88-.04l.77.04-.02 5.52-.03 5.51-.83.03c-.62.02-.84-.01-.87-.11Zm2.08.07c-.1-.05-.13-1.25-.13-5.55V6.8h1.8l-.02 5.53-.03 5.52-.75.02c-.41.01-.81-.01-.87-.03Zm30.34 0c-.15-.15-.08-11.01.07-11.07.08-.03.48-.03.9 0l.76.06-.02 5.51-.03 5.51-.8.03c-.45.01-.84 0-.88-.04Zm1.96-.06c-.09-.15-.17-10.5-.08-10.86.05-.22.09-.23.88-.2l.82.03.05 5.2c.03 2.86.03 5.36 0 5.55l-.05.35-.77.03c-.54.02-.79-.01-.85-.1ZM9 12.3V7H7.7v10.6H9zm2 0V7H9.6v10.6H11zm30.4 0V7H40v10.6h1.4zm1.9 0V7H42v10.6h1.3zM5.57 15.43c-.04-.03-.07-1.41-.07-3.05V9.4h1.8v6.1h-.83c-.46 0-.87-.03-.9-.07Zm38.08-1.59c-.09-1.95.01-4.35.18-4.47.07-.04.46-.06.87-.05l.75.03v6.1l-.86.03-.87.03zM7.1 12.45V9.6h-.64c-.53 0-.64.03-.68.18-.08.3-.1 4.25-.02 4.91l.07.61H7.1zm38.12 0 .03-2.85H43.9v5.7h1.29zm-33.9-.17.03-1.13 2.8-.06c3.09-.07 24.35-.01 25.03.07l.42.05v2.19H11.29zm28.08.04v-.89l-2.17-.06c-1.2-.04-7.45-.07-13.89-.07H11.63l-.07.46c-.03.26-.06.69-.06.95v.49h27.9z"/></svg>