<svg xmlns="http://www.w3.org/2000/svg" width="51" height="51" viewBox="0 0 51 51"><path fill="#fff" fill-rule="evenodd" stroke="#fff" stroke-width=".452" d="M18.85 36.49c-2.2-.24-3.28-1.43-3.29-3.64-.02-2.94 1.61-4.48 4.74-4.49 2.48-.01 3.4.76 3.4 2.83 0 .67-.19 1.84-.32 1.97-.04.04-2.02.1-4.05.13-.8.01-.83.02-.83.24 0 .62.32.72 2.58.77l2.07.05-.02.5c-.02.27-.08.72-.15 1l-.13.5-.55.06c-1.01.12-2.74.16-3.45.08Zm-14.32-.15c-.03-.08.11-1.15.31-2.37.19-1.22.54-3.46.76-4.97.5-3.32.47-3.19.76-3.26.52-.13 5.07.03 5.67.2 2.28.64 3.27 2.01 3.27 4.51-.01 3.07-1.8 5.32-4.72 5.9-1.14.22-5.96.22-6.05-.01Zm19.14.09c-.14-.13.98-7.61 1.19-7.94.09-.15 2.8-.11 2.92.04.07.08.04.49-.09 1.32-.1.66-.19 1.27-.19 1.35s.67-.52 1.48-1.33l1.49-1.47h1.34c2.13 0 2.12.1-.06 2.3-.91.91-1.65 1.69-1.65 1.73s.49.78 1.1 1.64c1.59 2.26 1.55 2.43-.54 2.43-1.56 0-1.32.16-2.56-1.67-.74-1.08-1-1.39-1-1.17 0 .27-.43 2.51-.51 2.66-.1.18-2.75.29-2.92.11Zm12.26-.09c-.06-.17-.1.06.87-6.04.41-2.56.76-4.48.83-4.53.23-.16 5.06-.02 5.72.17 2.49.69 3.73 2.66 3.35 5.31-.39 2.68-2.06 4.5-4.67 5.09-1.04.23-6.01.24-6.1 0Zm-25.08-.38c2.76-.77 4.25-2.87 4.12-5.81-.09-2.24-1-3.38-3.13-3.92-.85-.22-5.31-.25-5.44-.04-.04.07-.17.81-.29 1.64-.28 1.9-1.19 7.72-1.27 8.1l-.06.29 2.74-.04c2.16-.04 2.85-.08 3.33-.22Zm10.98.18.76-.07.11-.56c.06-.31.14-.64.16-.74.05-.16-.08-.17-1.81-.17-2.42 0-2.85-.18-2.85-1.23 0-.47-.01-.47 2.61-.47h2.29l.11-.28c.16-.42.23-1.92.1-2.37-.63-2.33-5.45-2.2-6.84.18-.51.87-.76 2.29-.57 3.23.44 2.13 2.05 2.8 5.93 2.48Zm4.77-1.42c.38-2.07.4-2.07 1.81 0 .99 1.46 1.02 1.5 1.31 1.44.17-.03.73-.06 1.25-.06.73 0 .95-.03.99-.15.04-.09-.4-.8-1.1-1.8-.64-.92-1.16-1.7-1.16-1.75 0-.04.75-.85 1.66-1.79.92-.95 1.64-1.74 1.61-1.78-.03-.03-.56-.08-1.17-.11l-1.11-.05-1.58 1.57c-1.06 1.05-1.64 1.56-1.79 1.56-.27 0-.27.03-.02-1.56.11-.71.2-1.35.2-1.41 0-.1-.3-.13-1.15-.13-1.4 0-1.19-.36-1.74 3.05-.23 1.43-.49 2.95-.57 3.39-.08.43-.14.85-.14.92 0 .12.22.14 1.22.12l1.22-.03zm15.96 1.15c2.55-.85 3.91-2.89 3.83-5.71-.07-2.12-1.03-3.33-3.05-3.87-.83-.22-5.13-.38-5.42-.21-.11.08-.36 1.4-.77 4.11-.2 1.3-.83 5.27-.91 5.69l-.07.34 2.79-.04c2.71-.04 2.81-.05 3.6-.31ZM7.7 34.08c0-.78.92-6.04 1.08-6.16.22-.18 1.48-.1 2.12.13 2.27.8 1.99 4.6-.43 5.84-.6.31-.77.35-1.72.39l-1.05.05zm31.35.1c-.05-.12.66-4.36.96-5.8.12-.55.29-.62 1.22-.53 1.91.2 2.65 1.04 2.55 2.89-.13 2.21-1.39 3.44-3.63 3.54-.86.04-1.06.02-1.1-.1Zm-29.03-.43c2.17-.76 2.87-4.33 1.03-5.29-.36-.19-2.15-.38-2.15-.24 0 .1-.8 5.24-.86 5.52l-.06.29.78-.06c.44-.03 1-.13 1.26-.22Zm31.43-.01c.79-.28 1.58-1.13 1.84-1.98.68-2.19-.22-3.62-2.21-3.54l-.72.03-.22 1.2c-.12.66-.36 1.96-.52 2.89l-.29 1.69.81-.06c.45-.03 1.04-.13 1.31-.23Zm-8.93-.22c-.61-.04-.63-.1-.34-1.42l.17-.75 1.77-.03c1.65-.02 1.78-.01 1.78.15-.01.22-.36 1.93-.41 1.97-.06.06-2.36.11-2.97.08Zm2.88-1.14.17-.78h-2.94l-.12.58c-.06.31-.14.67-.17.8l-.06.23 1.48-.03 1.48-.03zm-17-.88c0-.56.69-1.42 1.26-1.56 1.04-.26 2.03.58 1.8 1.52-.09.35-3.06.38-3.06.04Zm2.7-.43c0-1.23-1.89-1.11-2.33.16-.06.16.04.17 1.13.17h1.2zm0-6.89c-.47-.99-.46-1.02.52-.94 1.16.1 1.22.19.56.94-.66.77-.72.77-1.08 0Zm-11.4.21c-.67-.13-1.2-.55-1.55-1.24l-.3-.59v-4.81l.92-.03.92-.03.03 2.25c.03 2.1.04 2.26.24 2.53.32.43 1 .45 1.46.04l.33-.29.05-2.24.05-2.23.93-.03.92-.03v6.51h-.85c-.77 0-.85-.02-.85-.19 0-.18-.04-.18-.57.09-.68.34-1.12.41-1.73.29Zm16.5.02c-1.88-.57-2.37-2.88-.99-4.62.37-.46.37-.44-.21-.56l-.45-.09v-1.39l.83.02c1.87.03 2.5 1.15 1.49 2.67-.85 1.28-.71 2.46.29 2.46.75 0 .79-.14.79-2.79v-2.24l.3-.09c.37-.1 1.33-.04 1.47.1.22.22.05 4.92-.19 5.39-.52.97-2.11 1.51-3.33 1.14Zm5.84-.01c-1.56-.48-2.29-2.34-1.32-3.37l.2-.21-.27-.47c-.21-.35-.28-.6-.28-.99 0-1.08.52-1.49 2.03-1.62 1.07-.08 1.14-.02 1.04.85l-.06.6-.62.03c-1 .05-.89.71.14.85l.55.08v1.3l-.5.05c-.65.07-.75.14-.75.56 0 .56.35.84 1.08.84 1.04 0 1.07-.06 1.09-2.73.01-1.22.03-2.26.03-2.3s.39-.06.87-.05l.88.03.03 2.15c.04 3.03-.12 3.56-1.32 4.17-.56.3-2.18.42-2.82.23Zm5.8-.09c-.52-.24-1.01-.83-1.19-1.45-.17-.55-.22-4.7-.06-4.94.05-.09.31-.12.92-.1l.84.03.05 2.25c.06 2.78.22 3.14 1.26 2.8.77-.26.84-.47.84-2.68 0-2.62-.07-2.43.99-2.4l.86.03v6.5l-.82.03c-.83.03-.83.03-.83-.23 0-.14-.01-.25-.02-.25-.02 0-.3.14-.62.3-.71.36-1.57.41-2.22.11Zm-16.12-.73c-.58-.09-.59-.07-.37.43l.19.41.32-.39.32-.38zm-7.12-1.06c0-1.44.03-1.72.19-2.02l.18-.35-.29-.17c-.52-.32-.5-.74.07-1.37 1.03-1.14 3.61-1.36 4.71-.39.74.66.79.84.82 3.56l.03 2.42h-1.79l-.04-2.12c-.05-2.68-.18-2.98-1.26-2.98-.69 0-1.13.37-.68.58.43.19.5.46.21.8-.25.29-.25.33-.25 2.01v1.71h-1.9zm13.77 1.4c.97-.5 1.06-.78 1.11-3.54l.04-2.28H28.3v2.11c0 2.64-.18 3.09-1.2 3.09-1.23 0-1.45-1.51-.46-3.14.79-1.31.31-2.06-1.31-2.06h-.53v.4c0 .36.03.4.24.4.8 0 .99.47.45 1.08-.97 1.11-.96 2.99.03 3.72.72.53 2.04.63 2.85.22Zm5.87.14c1.43-.43 1.6-.81 1.64-3.68l.04-2.28H34.7v2.14c0 2.05-.01 2.14-.23 2.47-.69 1.03-2.57.57-2.57-.63 0-.59.27-.88.79-.88.71 0 .69-.74-.02-.83-1.14-.15-1.18-1.47-.05-1.47h.48v-.8h-.67c-.76 0-1.44.25-1.62.58-.3.55-.02 1.65.48 1.92.28.15.26.27-.08.44-.51.27-.76 1.23-.47 1.89.43 1.02 2.09 1.55 3.5 1.13Zm5.28.04c.21-.06.58-.27.83-.46.52-.39.65-.37.65.12v.34h.97l.07-.92c.03-.5.06-1.85.06-3V18.1h-1.18l-.03 2.02c-.04 2.22-.1 2.46-.71 2.91-.41.31-1.16.34-1.51.07-.57-.45-.62-.66-.64-2.9l-.02-2.05h-1.16v2.2c0 2.45.05 2.71.61 3.29.5.52 1.25.68 2.06.46Zm-28.49-.13c.18-.08.46-.26.63-.4.43-.36.64-.35.64.03 0 .3.01.3.55.3h.55V18h-1.2v1.12c0 1.88-.09 2.96-.25 3.27-.51 1-1.92 1.05-2.35.09-.17-.38-.2-.67-.2-2.45V18H8.08l.04 2.23c.04 2.41.12 2.83.69 3.33.59.53 1.52.7 2.22.41Zm5.15-1.77c.03-1.48.06-1.67.24-1.87l.2-.21-.36-.24c-.74-.47-.2-1.03 1.01-1.03 1.31 0 1.53.45 1.53 3.23v1.82h1.22l-.04-2.22c-.04-2.53-.12-2.84-.86-3.32-1.24-.82-3.58-.43-4.34.71-.25.39-.23.46.22.72.45.25.48.36.2.66-.17.18-.21.41-.26 1.84l-.07 1.62.63-.03.64-.03zm5.32.86-.65-.12.02-.34c.03-.61.87-5.11.98-5.27.15-.2 1.73.01 1.82.25.06.14-.69 4.55-.89 5.3-.1.36-.18.38-1.28.18Zm1-.31c0-.03.2-1.16.46-2.51.25-1.36.43-2.48.41-2.5-.02-.03-.33-.07-.68-.1l-.64-.06-.38 2.13c-.56 3.13-.55 2.97-.21 3.02.44.06 1.04.08 1.04.02Zm.35-5.6c-.05-.02-.32-.06-.59-.1l-.49-.07.07-.56c.09-.76.17-.82.96-.71 1.19.16 1.13.12 1.07.74-.03.3-.08.59-.12.65-.06.09-.67.13-.9.05Zm1.59-.18c-.03-.08-.04-.41-.02-.73l.03-.59 1.87-.03 1.87-.02.03-.43.03-.42h1.6v2.3l-2.68.03c-2.2.02-2.68 0-2.73-.11Zm-13.99-.11c-.49-.21-.67-.59-.69-1.4l-.01-.71.83-.03.82-.03v.71h1.68c2.01 0 1.94-.03 1.9.86l-.03.69-2.1.02c-1.58.02-2.18-.01-2.4-.11Zm13.09-.28c.08-.41.03-.45-.7-.53l-.61-.07-.06.34c-.02.18-.04.34-.03.35.02.02.97.19 1.22.22.06 0 .14-.13.18-.31Zm6-.24c.03-.26.06-.66.06-.9V15h-1.1v.9h-3.68l-.06.35c-.11.55-.13.55 2.38.55h2.33zM14.7 16.2v-.4h-1.58c-1.95 0-2.02-.02-2.02-.46V15h-.49c-.6 0-.6.01-.51.69.12.9.16.91 2.56.91h2.04z"/></svg>