<svg xmlns="http://www.w3.org/2000/svg" width="51" height="51" viewBox="0 0 51 51"><path fill="#fff" fill-rule="evenodd" stroke="#fff" stroke-width=".752" d="m2.12 38.43.03-10.58h8.3l.03 6.37.02 6.38 6.38.02 6.37.03.03 4.18.02 4.17H2.1zm25.65 9.2c-.04-.76-.03-2.64.01-4.18l.07-2.8 6.38-.03 6.37-.02V27.8l4.23.02 4.22.03v21.1l-10.61.03-10.61.02zM23 45.31c0-1.91.03-3.69.06-3.95l.07-.46-6.44-.02-6.44-.03-.03-6.43-.02-6.43-3.89.01-3.88.02-.06 5.31c-.03 2.93-.05 5.52-.04 5.77.02.25.04 2.53.05 5.08l.02 4.62H23zm25.8-6.85V28.13l-.68-.06c-.87-.09-6.6-.09-7.01-.01l-.31.06-.02 6.37-.03 6.36-6.37.03-6.38.02v3.89c0 3.02.03 3.9.12 3.94.07.03 4.75.06 10.41.06l10.27.01zm-30.29-5.9c-.08-.1-.1-2.01-.09-7.07l.03-6.94 7.08-.03 7.07-.02-.02 7.07-.03 7.08-6.96.03c-5.79.02-6.98 0-7.08-.12Zm13.89-7.01V18.7H18.7v13.7h13.7zM2.12 12.73l.03-10.58 10.58-.03L23.3 2.1v8.4H10.5v12.8H2.1zM40.6 16.9v-6.4l-6.42-.02-6.43-.03-.03-.45c-.02-.25-.01-2.13.03-4.18l.07-3.72 10.62.02 10.61.03.03 10.58.02 10.57h-8.5zm-30.38-.22.03-6.43 6.37-.03L23 10.2V2.3H2.4v20.8h7.8zM48.8 12.7V2.3l-10.37.02-10.38.03-.03 3.92L28 10.2l6.37.02 6.38.03.03 6.43.02 6.42h8z"/></svg>