<svg xmlns="http://www.w3.org/2000/svg" width="51" height="51" viewBox="0 0 51 51"><path fill="#fff" fill-rule="evenodd" stroke="#fff" stroke-width=".772" d="M16.05 39.99c-2.08-.3-3.66-1.66-4.29-3.68-.24-.79-.38-15.6-.16-17.73.3-2.98 1.98-4.71 4.89-5.04l.61-.07v-.34c0-1.66 1.05-3.99 2.43-5.36 4.87-4.87 13.26-2.01 14.19 4.84l.12.86.64.13c1 .2 1.97.73 2.75 1.52 1.02 1.01 1.04 1-1.6.98l-2.21-.01-.14.43c-.18.53-.1.52-2.43.43l-1.9-.07.03-.78c.04-.88-.08-1.21-.66-1.82l-.35-.37.33-.51c.95-1.48.12-3.39-1.61-3.68l-.44-.07-.05-.85-.05-.85h-.8c-.91 0-.82-.11-.84 1.08l-.01.57h-1.9v3.39c0 1.86-.03 3.53-.06 3.7l-.07.31-2.31-.02-2.31-.03-.22-.44c-.12-.24-.24-.45-.25-.47-.07-.07-1.45.29-1.8.47-.46.24-.46.27-.05.66.65.62-.02.58 10.22.58 5.17 0 9.58.04 9.8.09 3.04.64 4.67 2.73 4.53 5.83l-.03.68-3.55.05c-4.34.07-4.66.15-5.87 1.42-2.33 2.47-1.26 6.45 2.02 7.49.27.08 1.53.14 3.95.18l3.55.06-.01 1.02c-.03 2.62-1.6 4.72-3.99 5.33-.76.19-1.09.2-10.14.19-5.15-.01-9.63-.05-9.96-.1Zm20.26-.37c2.18-.72 3.59-2.71 3.59-5.09v-.83h-3.33c-4.25 0-4.79-.12-6.07-1.4-2.3-2.29-1.59-6.26 1.37-7.68l.78-.37 3.59-.03 3.58-.03-.05-1.12c-.12-2.88-1.58-4.53-4.37-4.97-.4-.06-4.1-.1-9.75-.1-6.15 0-9.22-.04-9.49-.11-.45-.12-1.29-.91-1.24-1.17.04-.23 1-.68 1.76-.83l.64-.12-.06-.31c-.03-.17-.08-.61-.12-.98l-.07-.68h-.4c-2.07 0-3.98 1.45-4.62 3.5-.38 1.25-.48 17.22-.11 18.68.45 1.78 1.76 3.15 3.46 3.63.78.22 3.13.27 11.8.25 8.39-.03 8.45-.03 9.11-.24Zm-3.45-7.4c-.67-.22-1.57-1.07-1.93-1.8-.81-1.67 0-3.88 1.72-4.72.75-.37 7.23-.44 8.05-.09 1.13.48 1.42 1.13 1.44 3.14.01 2.12-.29 2.92-1.35 3.45-.53.28-7.12.3-7.93.02Zm8.02-.34c.83-.56.97-.97.97-2.98 0-1.93-.03-2.07-.67-2.68-.59-.59-.98-.64-4.61-.6l-3.22.03-.57.28c-2.3 1.13-2.57 4.27-.48 5.72.73.51 1.05.54 4.76.52l3.41-.02zm-7.52-2.09q-.645-.555-.33-1.32c.47-1.11 2.08-.9 2.24.3.15 1.1-1.08 1.75-1.91 1.02Zm1.33-.17c.64-.59.3-1.62-.53-1.62-.51 0-.96.41-.96.89 0 .87.88 1.31 1.49.73ZM24.3 15.8v-1h1.16c1.47 0 1.84.22 1.84 1.1 0 .69-.41.9-1.79.9H24.3zm-2-2.75V9.4h.63c.34 0 .79-.03 1-.06l.37-.07V7.7h2.1v1.66l.6.18c1.67.5 2.42 2.22 1.63 3.74-.31.61-.31.61-.11.79.5.45.73 1.04.73 1.85v.78h3.74l.21-.66C34.78 10.9 30.83 5.6 25.4 5.6c-5.44 0-9.31 5.24-7.7 10.43l.21.67h4.39zm4.58 3.32c.06-.05.12-.28.12-.52 0-.66-.22-.79-1.41-.83l-.99-.04v1.6l1.08-.05c.59-.03 1.13-.1 1.2-.16Zm10.5-.8c-.42-.59-1.58-1.31-2.57-1.61-.96-.28-.95-.29-1.09.73-.06.49-.14.95-.17 1.02-.04.12.31.14 1.99.14h2.04zm-13.01-2.34c-.04-.03-.07-.48-.07-1v-.93h1.05c.99 0 1.07.02 1.3.25.54.54.21 1.53-.56 1.69-.42.08-1.64.08-1.72-.01Zm2.08-.48c.66-.65.15-1.25-1.06-1.25h-.79v.53c0 .28-.03.62-.06.75-.1.36 1.55.34 1.91-.03Z"/></svg>