<svg xmlns="http://www.w3.org/2000/svg" width="51" height="51" viewBox="0 0 51 51"><path fill="#fff" fill-rule="evenodd" stroke="#fff" stroke-width=".679" d="M25.34 44.91c-.09-.08-7.77-3.71-12.64-5.97-1.46-.68-2.72-1.27-2.81-1.33-.17-.1-.11.35-.94-7.76-.3-2.91-.63-6.15-.75-7.18-.11-1.04-.2-1.97-.2-2.07 0-.12-.13-.26-.32-.36-.18-.09-.34-.17-.35-.18-.15-.12-.61-4.32-.49-4.41.08-.06 1.27-.47 2.65-.9l2.51-.79.22-.45c.76-1.58 2.82-2.42 4.9-2 .5.1 1.61-.26 2.06-.66.02-.02-.09-.41-.24-.87-.3-.92-.41-2.95-.18-3.18.32-.32 4.1-.62 4.49-.36.31.2.93 1.43 1.3 2.56l.28.85.61-.09.61-.1.55-.84c.7-1.08 1.74-2.07 2.32-2.23.7-.19 4.07.18 4.69.52.57.3.73 1.99.31 3.27l-.2.62h.68c1.64 0 3.1.86 3.72 2.21l.21.45 2.01.66c1.11.37 2.12.7 2.26.73.14.04-.06-.15-.47-.45-.4-.29-.7-.57-.67-.62.09-.14.22-.06 1.37.76 1.25.9 1.4.94 1.22.34-.25-.85-.26-.98-.12-.98.09 0 .21.27.34.72l.19.73.3-.53c.16-.28.35-.52.42-.52.17 0 .16.06-.2.68l-.31.55.24-.07c.13-.03.44-.09.68-.13.64-.09.5.17-.17.33-.7.15-.71.18-.2.5.71.44 1.78 1.25 1.78 1.35 0 .19-.22.07-1.3-.67l-1.1-.75v.65c0 .64-.22.97-.32.49-.02-.1-.09.23-.16.72-.3 2.13-.3 2.12-.72 2.29-.24.09-.4.23-.43.38-.1.39-1.67 16.03-1.67 16.62 0 .18-.31.34-6.1 3.06-1.84.86-4.75 2.23-6.46 3.03-3.19 1.51-3.23 1.53-3.4 1.38Zm5.57-2.71 1.57-.73.06-1.76c.14-3.66.36-10.25.42-12.64l.07-2.47-.34.14c-.19.07-1.69.69-3.34 1.36s-3.02 1.24-3.04 1.25c-.02.02.14.11.35.2.26.11.34.19.27.26s-.22.06-.48-.05c-.52-.22-.56-.21-.39.19.17.41.18.55.04.55-.06 0-.17-.15-.25-.32-.12-.29-.14.75-.15 8.09v8.42l1.83-.88c1-.48 2.52-1.2 3.38-1.61Zm-5.51-5.92c0-7.69-.01-8.31-.16-8.09-.24.34-.43.11-.2-.24l.18-.27-.34.07c-.18.04-.6.18-.92.31-.7.28-.66.28-.66.1 0-.12.29-.26 1.64-.75.14-.05-.19-.23-1.25-.66-.79-.32-2.29-.93-3.33-1.37-1.04-.43-1.91-.76-1.94-.74-.05.06.16 14.21.24 15.71l.06 1.11 2.81 1.33c1.55.73 3.02 1.43 3.27 1.56s.48.24.53.25c.04 0 .07-3.75.07-8.32Zm-7.1.47c-.15-7.47-.22-16.79-.13-16.92.07-.1 1.53-.69 4.25-1.72.24-.09.26-.56.02-.9-.02-.01-.48.13-1.03.33-.56.19-1.43.44-1.93.55-.51.11-1.31.34-1.78.51-1.13.42-1.84.39-2.6-.08-.43-.27-.58-.31-.79-.24l-.26.09.03 2.09c.02 1.15.07 2.63.13 3.29.08 1.13.7 11.57.85 14.4.04.72.1 1.39.14 1.49.05.16 3.08 1.71 3.17 1.63.01-.01-.02-2.05-.07-4.52Zm16.57 3.6c1.19-.55 1.08-.32 1.23-2.55.06-.85.22-2.88.35-4.5.14-1.62.34-4.12.45-5.55s.27-3.27.35-4.09c.14-1.34.21-5.16.11-5.16-.06 0-3.9 1.32-3.94 1.36-.02.01-.08 2.09-.13 4.61-.07 3.99-.17 7.3-.45 15.01l-.07 1.83.54-.24c.3-.13 1-.46 1.56-.72Zm3.76-1.79 2.34-1.13.07-.44c.03-.24.22-2.13.41-4.19.34-3.64.99-10.11 1.14-11.37q.075-.63-.03-.63c-.06 0-1.19.44-2.52.98l-2.42.97-.06.55c-.07.58-.6 7.14-1.01 12.4-.13 1.73-.27 3.34-.29 3.58-.03.23-.04.42-.01.42.02 0 1.09-.51 2.38-1.14Zm-23.78.52c-.03-.29-.24-3.61-.46-7.38-.53-9.13-.5-8.78-.63-8.94-.2-.24-5.41-2.28-5.44-2.13-.02.08.17 2.09.42 4.48s.64 6.11.86 8.28.41 3.96.43 3.97c.05.05 4.72 2.22 4.8 2.23.04.01.05-.23.02-.51Zm13.76-12.99c1.51-.61 3.08-1.25 3.49-1.41.41-.17.78-.33.81-.37.04-.03.1-1 .14-2.15.06-2 .06-2.09-.12-2.03-.1.03-1.75.61-3.68 1.3l-3.5 1.25-.02 2.03c-.02 1.89-.01 2.02.13 1.69.18-.42.2-.44.33-.35.08.04.06.16-.04.35-.18.36-.36.8-.31.8.01 0 1.26-.5 2.77-1.11Zm-3.5.35c-.24-.54-.26-.64-.08-.64.07 0 .18.12.24.28.08.21.11-.14.12-1.58l.01-1.86-.47-.18c-.62-.24-6.46-2.36-6.5-2.36-.02 0-.03.94-.03 2.09v2.09l.28.1c.15.06 1.69.69 3.42 1.41 1.73.71 3.16 1.26 3.18 1.21s-.06-.3-.17-.56Zm-11.36-7.41-.07-.72-3.31-1.1c-1.82-.61-3.31-1.1-3.32-1.08-.04.05.51 3.66.56 3.72.05.05 2.83 1.19 5.69 2.35l.45.18.03-1.32c.02-.72 0-1.63-.03-2.03Zm15.67 2.06c1.91-.68 3.44-1.27 3.4-1.3-.09-.08-2.3-.89-2.43-.89-.05 0-.18.18-.29.4-.28.54-.29.55-2.59.85-1.12.14-2.27.3-2.54.36-1.11.21-1.32.04-1.93-1.53-.15-.38-.32-.67-.38-.65-1.96.72-3.95 1.52-3.89 1.57.04.04 1.12.43 2.38.88 1.27.45 2.75 1 3.3 1.21 1.24.49.85.57 4.97-.9Zm11.27.12c1.51-.6 2.77-1.14 2.82-1.18.04-.04.17-.78.28-1.63.12-.85.24-1.69.27-1.85.04-.26.01-.23-.21.18-.25.46-.45.61-.45.33 0-.07.07-.26.15-.42.08-.15.13-.29.11-.31-.03-.04-5.79 1.98-5.88 2.06-.15.14-.14 4.02.02 3.97.08-.02 1.38-.54 2.89-1.15ZM27.4 19.87l2.25-.32.25-.5c.92-1.85-.2-5.8-1.75-6.15-1.08-.25-3.39.08-5.05.72l-.25.1.27.14c.29.15.37.34.16.34a1.4 1.4 0 0 1-.38-.15c-.39-.22-.4-.2-.4.78.01 1.66.34 3.13 1.06 4.65.4.84.48.87.74.3.37-.82.19-3.31-.33-4.52-.22-.51-.27-.53-1.05-.3-.18.05-.21.03-.16-.09.07-.19.64-.4.96-.35.76.11 1.42 4.07.88 5.27-.25.55-.26.52.18.45.2-.03 1.38-.2 2.62-.37Zm7.8-.94 1.93-.66-.71-.28c-.67-.25-.76-.26-1.54-.17-.96.11-2.16.04-3.4-.19-1.02-.19-.93-.22-1.02.43l-.06.51 1.37.51c.76.28 1.41.51 1.45.52.03 0 .93-.3 1.98-.67Zm-17.86-.49c.61-.21.54-.26-.51-.33-.59-.04-.88-.1-.91-.19-.03-.11.22-.13 1.39-.07 1.67.08 2.24 0 3.83-.53 1.24-.41 1.21-.38 1.11-1.37l-.07-.75-.46-.2-.46-.21-1.05.27c-.58.14-2 .57-3.16.94-2.5.81-2.61.8-2.1-.22.79-1.56 2.3-2.42 4.53-2.55 1.08-.07 1.09-.17.07-.64-3.81-1.72-7.16-.76-7.33 2.12-.05.82.09 1.12.8 1.72.29.25.91.78 1.38 1.18 1.22 1.03 1.83 1.21 2.94.83Zm-3.26-.4c.32-.09.29-.14-.35-.64-1.48-1.14-1.82-1.64-1.83-2.58 0-.46-.02-.53-.17-.48-2.58.81-4.4 1.39-4.47 1.44-.05.03 1.39.56 3.2 1.17 3.86 1.32 3.34 1.16 3.62 1.09Zm26.58-.99c1.65-.58 3.03-1.1 3.07-1.14.11-.11-.59-.38-3.01-1.17-1.12-.36-2.1-.68-2.18-.71-.11-.04-.14.05-.14.36 0 .69-.26 1.11-1.31 2.17l-1 1.01.68.26c.37.14.73.26.8.26.06.01 1.45-.46 3.09-1.04Zm-5.51.45.7-.11.98-.97c1.2-1.19 1.3-1.36 1.25-2.16-.15-2.28-2.97-3.64-5.43-2.62-.99.41-3.14 1.77-3.15 1.99 0 .04.07.19.16.32l.16.25.34-.29c.18-.16.54-.42.8-.57l.46-.27.72.17c2.39.57 4.26 2.53 3 3.15-.78.39-3.24.7-3.24.41 0-.12.27-.18 1.15-.23.77-.05 2.01-.36 1.88-.47-.11-.1-1.63-.52-3.39-.93l-1.41-.34.14.46c.08.25.17.77.21 1.15.07.69.08.7.41.78 1.28.34 3.05.45 4.26.28Zm-16.12-2.4c.43 0 .08-.21-.91-.54-1.37-.46-1.41-.46-2 .12-.42.41-1.12 1.43-1.12 1.64 0 .03.87-.23 1.93-.58 1.05-.35 2-.64 2.1-.64Zm16.03.3c-.39-.59-1.03-1.2-1.25-1.2-.26 0-1.91.6-1.91.69 0 .04.43.17.96.3s1.28.33 1.67.46c.86.26.87.26.53-.25Zm-12.89-1.44c-.18-.45-2.93-.59-4.2-.2-.7.21-.7.21.7.69l1.11.39.77-.17c.73-.16.78-.16 1.18.01l.42.18.03-.39c.02-.22.01-.45-.01-.51Zm9.39.75c.05-.04.43-.21.84-.36 1.03-.39 1.03-.4.11-.69-1.04-.33-1.02-.33-1.66.09-.9.6-.93.72-.22.92.53.14.8.15.93.04Zm-8.26-1.45c.41-.14.94-.3 1.17-.36l.41-.1.07-.63c.11-1.06-1.16-4.95-1.79-5.46-.19-.16-2.18-.1-3.32.1l-.61.11.46.77c.62 1.03.91 1.93.91 2.81 0 .97-.14.88-.27-.18-.14-1.13-1-3.12-1.34-3.12-.45 0 .15 2.91.91 4.42.74 1.47.85 1.59 1.61 1.8.73.19.77.19 1.79-.16Zm6.86-.51c.96-.69 1.87-1.2 2.5-1.42.88-.29 1.17-.93 1.18-2.58.01-1.18-.14-1.45-.78-1.45-.88 0-1.54.77-3.35 3.94-1.03 1.79-.99 1.68-.68 1.89.31.22.27.23 1.13-.38Zm-3.06-.2c.41 0 .91.03 1.11.07l.36.06.89-1.56c1.23-2.15 2.02-3.31 2.51-3.68l.42-.32-.66-.12c-.95-.16-2.24-.24-2.67-.16-1.07.2-3.58 3.74-3.82 5.39l-.06.47.58-.07c.33-.05.93-.08 1.34-.08Z"/></svg>