<svg xmlns="http://www.w3.org/2000/svg" width="51" height="51" viewBox="0 0 51 51"><path fill="#fff" fill-rule="evenodd" stroke="#fff" stroke-width=".798" d="M23.05 41.6c-.52-.11-.61-.2-4.42-4.02-4.02-4.04-4.03-4.04-4.03-5.13 0-1.08-.01-1.07 5.38-6.47L24.95 21l-4.47-4.42c-4.06-4.02-4.48-4.47-4.59-4.87-.21-.86.14-1.66.89-2.03.43-.2.49-.21 4.8-.14 5.82.09 6.57.19 8.62 1.17 5.18 2.47 7.65 8.39 5.79 13.93-1.51 4.5-5.22 7.42-10.06 7.91l-.72.07-.03 3.86c-.03 3.55-.05 3.9-.22 4.25-.33.66-1.13 1.03-1.91.87Zm1.15-.38c.73-.4.75-.5.78-4.79l.03-3.83h-5.1c-5.77 0-5.31-.07-4.96.78.17.39 7.12 7.46 7.7 7.83.39.24 1.1.25 1.55.01Zm3.13-9.1c4.52-1.02 7.57-4 8.74-8.51.89-3.45-.09-7.54-2.38-9.96l-.5-.53-8.99 8.96c-9.07 9.03-9.4 9.38-9.4 10.06v.27l5.78-.04c5.51-.03 5.81-.04 6.75-.25ZM16.4 23.41c-2.56-.83-2.32-4.38.32-4.76 2.21-.32 3.55 2.31 2.06 4.01-.53.6-1.7.97-2.38.75Zm1.55-.4c1.18-.53 1.63-2.17.89-3.23-.84-1.22-2.9-1.2-3.67.04-1.17 1.89.77 4.11 2.78 3.19Zm14.82-10.29c-1.25-1.36-3.91-2.56-6.22-2.81-1.33-.14-9.02-.23-9.46-.11-.77.22-1.22 1.06-.99 1.85.1.34.83 1.1 4.59 4.82l4.46 4.42 3.92-3.96L33 12.96z"/></svg>