<svg xmlns="http://www.w3.org/2000/svg" width="51" height="51" viewBox="0 0 51 51"><path fill="#fff" fill-rule="evenodd" stroke="#fff" stroke-width=".743" d="M24.65 43.21c-5.35-2.48-10.18-6.82-11.8-10.6-.95-2.23-.96-2.43-.93-12.43.03-9.64-.03-8.89.79-9.3.41-.22 25.01-.28 25.56-.07.35.13.7.45.91.84.3.55.25 17.59-.05 18.78-1.24 4.85-5.52 9.3-12.07 12.53-1.27.63-1.54.66-2.41.25Zm2.02-.3c.34-.16 1.11-.57 1.7-.91 6.22-3.57 9.8-7.63 10.59-12 .23-1.29.2-17.83-.04-18.29-.42-.83.88-.76-13.35-.76-14.08 0-12.97-.06-13.28.68-.23.54-.19 17.31.04 18.5.9 4.53 4.85 8.84 11.23 12.24 1.96 1.05 2 1.06 3.11.54ZM25.5 26.9V14.2h10.19l.06.42c.16 1.1-.01 14.71-.19 15.33-.78 2.64-3.07 5.3-6.59 7.67-1.22.82-3.17 1.98-3.34 1.98-.11 0-.13-2.23-.13-12.7Zm1.19 11.88c4.69-2.8 7.34-5.43 8.47-8.38l.29-.75.03-7.63.03-7.62-4.87.02-4.87.03-.04 12.43c-.03 6.83-.01 12.42.03 12.42s.46-.23.93-.52Z"/></svg>