<svg xmlns="http://www.w3.org/2000/svg" width="51" height="51" viewBox="0 0 51 51"><path fill="#fff" fill-rule="evenodd" stroke="#fff" stroke-width=".774" d="M13.49 44.23c-.46-.55.01-2.04.95-2.95 4.01-3.94 17.99-3.99 22.38-.08.96.85 1.47 2.28 1.08 3.01-.15.28-24.18.3-24.41.02Zm24.22-.25c.42-.77-.34-2.19-1.65-3.06-5.83-3.9-20.24-2.85-22.27 1.61-.18.41-.26 1.46-.12 1.6.03.04 5.43.07 11.99.07h11.93zM23.8 36.1c-6.07-.84-10.84-5.37-12.07-11.47-.41-2.02-.19-5.03.53-7.19 1.55-4.65 5.5-8.16 10.44-9.26 1.4-.31 4.37-.33 5.7-.04 5.77 1.26 9.95 5.43 11.17 11.16.25 1.2.25 4.2 0 5.4-1.25 5.87-5.51 10.12-11.27 11.25-.99.19-3.56.28-4.5.15Zm4.66-.46C37.42 33.87 42.21 24 38.1 15.79c-3.43-6.86-11.86-9.64-18.74-6.18-8.46 4.27-10.24 15.54-3.52 22.24 3.43 3.42 7.83 4.74 12.62 3.79Zm-4.61-3.59c-9.16-1.7-11.51-13.76-3.63-18.63 7.34-4.53 16.73 1.67 15.38 10.16-.87 5.53-6.34 9.47-11.75 8.47Zm4.11-.4c7.31-1.84 10.01-10.94 4.85-16.37-4.56-4.81-12.42-3.96-15.82 1.73-1.53 2.56-1.73 6.38-.46 9.12 2.01 4.36 6.82 6.68 11.43 5.52Zm-3.58-1.75c-5.25-.89-8.14-6.46-5.88-11.35.92-1.99 2.9-3.63 5.1-4.22 1.09-.3 3.22-.24 4.28.11.91.3 1.05.46.39.46-1.48 0-2.55 1.15-2.45 2.64.16 2.49 3.42 3.14 4.61.91.31-.58.3-1.73-.01-2.33-.39-.74-.2-.68.74.2 2.56 2.44 3.18 6.12 1.58 9.31-1.56 3.09-4.98 4.84-8.36 4.27Zm3.12-.37c4.84-1.15 7.31-6.68 4.98-11.16-.43-.83-1.88-2.5-1.68-1.94.72 2.03-1.25 4.13-3.31 3.54-2.5-.73-2.61-4.24-.15-5.16l.48-.18-.58-.12c-3.12-.63-6.08.51-7.89 3.04-3.36 4.71-.43 11.36 5.36 12.15.79.1 1.93.04 2.79-.17Z"/></svg>