<svg xmlns="http://www.w3.org/2000/svg" width="51" height="51" viewBox="0 0 51 51"><path fill="#fff" fill-rule="evenodd" stroke="#fff" stroke-width=".4" d="M3.66 50.95A5.73 5.73 0 0 1 .71 48.6c-.78-1.2-.72.89-.69-23.16l.03-21.5.38-.77C1.29 1.43 3.26-.07 4.59.02l.46.03-.58.13C2.53.63.86 2.26.26 4.29.02 5.11.01 37.1.26 37.1c.08 0 .86-.11 1.72-.25 3.04-.5 5.4-.82 8.07-1.1.5-.06.51-.07.75-.58.84-1.76 2.5-3.71 4.35-5.1.28-.21 1.3-1.04 2.28-1.85l1.77-1.47v-.57c0-.31.05-.6.1-.63.13-.08.07-.17-2.35-3.25-1.11-1.4-2.04-2.6-2.08-2.67-.12-.19.38-1.09.75-1.36.5-.38 1.23-.58 2.29-.64l.96-.06-.22-.71c-.82-2.58-2.17-5.15-4.05-7.72-.51-.69-.89-1.29-.84-1.33.14-.12 9.13-1.82 10.39-1.97l.51-.06.41.88c.23.49.51 1.14.63 1.44s.23.56.25.58c.01.02.16-.22.31-.52.35-.69.1-.69 3.32-.05 3.69.73 3.23.74 3.61-.06C36.51.96 47.1 3 47.47 10.8c.32 6.73-7.9 10.25-12.8 5.47-.39-.37-.71-.66-.72-.65-.05.06-.64 1.45-.94 2.21-.34.85-1.02 3.07-.94 3.07.09 0 2.67-1.52 3.61-2.13.51-.33.95-.57.99-.54.03.03-.3.58-.73 1.21-.44.64-1.53 2.26-2.44 3.61l-1.66 2.45.08.86c.09 1.1.31 1.48 1.05 1.8.67.3.68.48.01.7-.29.09-.81.29-1.15.44-.71.32-.73.32-.73-.27 0-1.52-.62-2.13-2.18-2.13-1.68 0-2.32.59-2.32 2.14 0 .65.06.63-.8.3-1.36-.51-3.26.06-3.46 1.05-.11.56-.42.51-1.1-.17-.96-.95-2.18-1.29-3.62-.98-1.91.4-3.08 1.5-2.72 2.54.07.2.16 1.02.19 1.82.09 2.1.44 2.55 1.95 2.55h.8l.08.3c.28 1.11 1.3 2.05 2.21 2.05 1.24 0 1.77-.6 1.77-2 0-.93-.09-.88.95-.49 1.24.46 2.92.22 3.72-.53l.22-.21.37.32c.56.5.77.54 2.3.54 1.82-.01 2.28-.23 2.4-1.09.03-.22.07-.45.1-.52.02-.07.32.17.71.56 1.71 1.73 4.71 1.68 6.61-.12l.53-.49.5.56c1.08 1.22 2.59 1.59 4.52 1.11.43-.11.67-.12.95-.04.85.23 1.96.08 2.4-.32.46-.44.55-.76.61-2.12.08-1.69.31-1.94.31-.32 0 2.56-.81 3.38-3.05 3.08-.65-.09-.9-.08-1.35.03-1.34.36-3 .09-3.97-.64l-.52-.4.13.37c.07.2.16.54.2.74.04.21.1.38.14.38s.45-.05.9-.1c2.42-.31 3.96.95 2.92 2.38-.39.55-.98.83-7.05 3.32-2.69 1.11-5.8 2.39-6.9 2.85-6.01 2.48-5.99 2.47-12 .77-8.67-2.47-12.05-2.8-17.35-1.69l-1.05.22.02.97c.04 2.61 1.56 4.58 4.03 5.24.36.1.69.21.75.26.19.17-.63.07-1.29-.17Zm42.49.15c.03-.05.17-.1.3-.1s.54-.11.89-.24c1.92-.69 3.11-2.02 3.66-4.06l.2-.75-.03.67c-.08 1.73-1.75 3.72-3.69 4.37-.65.22-1.44.28-1.33.11ZM26.1 46.76c1.07-.31 8.33-3.25 16.06-6.5 1.87-.79 2.36-1.19 2.38-1.95.02-1.03-1.56-1.55-3.59-1.16-1.78.33-10.61 2.48-10.74 2.61-.03.02.05.17.16.32 1.99 2.69-.91 4.37-6.34 3.67-2.35-.31-4.98-.89-4.98-1.09 0-.58 1.2-.75 2.85-.43 2.15.43 2.8.5 4.58.44 2.37-.07 2.97-.31 2.97-1.19 0-1.13-1.4-1.78-6.55-3.03l-1.15-.28-.39.26c-1.1.76-2.36.39-3.21-.92l-.44-.69-.88-.2c-2.65-.62-6.14-.76-8.98-.39-1.62.22-5.59.82-6.82 1.04l-.93.16v3.49c0 3.28.01 3.49.18 3.44.23-.07 2.59-.52 3.47-.66 3.49-.55 7.55.08 15.9 2.44 3.74 1.06 4.66 1.15 6.45.62Zm2.52-3.3c2-.43 2.59-1.62 1.56-3.17-.23-.34-.37-.64-.32-.69.13-.11 2.93-.84 7-1.8l3.51-.84-.14-.55c-.08-.31-.21-.78-.3-1.04l-.15-.49-.37.35c-1.77 1.73-5.03 1.85-6.77.25l-.43-.4-.14.34c-.34.8-.97 1.01-2.93.96l-1.42-.03-.47-.33-.46-.32-.29.2c-.84.6-2.42.78-3.62.4-.34-.11-.64-.2-.65-.2-.02 0-.03.25-.03.55 0 .31-.07.71-.15.91-.11.27-.11.36-.02.39.07.03 1.02.28 2.12.56 4.86 1.24 5.94 1.88 5.54 3.31-.34 1.26-3.5 1.56-7.63.72-1.5-.3-2.66-.28-2.66.04 0 .07 3.53.76 4.65.91 1.03.14 3.83.12 4.57-.03Zm-8.77-6.03c-.32-.08-.45-.23-.45-.52 0-.18-.07-.29-.22-.36-.26-.11-.35-1.04-.11-1.12.09-.03.13.09.13.4 0 .4.03.46.23.49.18.02.23.1.25.4.03.3.08.39.27.44.54.13.6.05.63-.84.04-1.09.26-1.09.3-.01.04.97-.27 1.31-1.03 1.12Zm-4.47-1.6c-.48-.52-.53-.7-.53-2.08-.01-.97-.05-1.42-.18-1.78-.13-.37-.15-.57-.08-.83.14-.5.03-.43-.9.54-1.05 1.09-1.66 1.87-2.35 3.05l-.55.92 1.43.08c.79.04 1.81.13 2.28.21 1.2.19 1.17.2.88-.11Zm19.12-.68c-1.05-.33-1.56-1.06-2.2-3.18-.5-1.65-.51-1.63.73-2.02 1.04-.33 1.05-.32 1.62 1.51.56 1.76.71 1.98 1.33 1.91.67-.07.82-.29.94-1.32.18-1.57-.1-2.35-.86-2.35-.68 0-.71.08-.35.84.23.49.29.7.21.78-.11.11-.7-1.03-1.23-2.36-.3-.74.25-1.16 1.61-1.24 1.87-.11 3.07 1.22 3.18 3.52.09 2.02-.6 3.29-2.1 3.84-.6.21-2.3.26-2.88.07Zm7.9.06c-1.54-.47-1.9-1.39-1.9-4.94 0-2.3.04-2.37 1.43-2.37.59 0 .71.03.92.25l.25.24v2.18c0 2.72.13 3 1.24 2.79.8-.15.8-.17.87-2.68.03-1.22.09-2.31.13-2.4.22-.48 1.82-.49 2.24-.03.29.34.35 6.22.06 6.63-.24.35-1.79.33-1.96-.03l-.11-.24-.25.19c-.53.42-2.14.64-2.92.41Zm-19.15-.14c-.67-.31-1.23-1.35-1.5-2.8-.08-.42.26-.65 1.02-.7l.37-.02.36 1.09c.39 1.19.53 1.36.97 1.2.51-.18.71-1.21.39-1.99-.14-.32-.17-.34-.72-.37-.53-.03-.58-.05-.67-.31-.22-.67.23-1.01 1.3-1 2.04.02 2.7 3.62.86 4.7-.56.32-1.86.43-2.38.2Zm-6.6-.04c-.49-.07-.55-.24-.55-1.65 0-.99-.04-1.35-.17-1.63-.2-.42.06-.79.89-1.21 1.68-.86 3.6-.35 3.98 1.06.14.49.06 3.18-.09 3.33-.04.04-.39.07-.77.05l-.69-.03-.05-1.58c-.06-1.86-.09-1.93-.94-1.83-.6.07-.54-.08-.48 1.18.05 1.06.05 1.07.31 1.1.24.03.26.07.29.53.05.72-.33.87-1.73.68Zm11.26-.12c-.3-.3-.32-.62-.29-3.72.04-3.47-.03-3.29 1.23-3.29.67 0 .87.04 1.06.19l.24.19-.03 2.4-.04 2.4.38.09c.6.14.88 1.25.45 1.77-.22.26-2.74.23-3-.03Zm-2.63-.18c1.44-.51 1.53-3.4.12-4.11-.76-.38-1.7-.23-1.7.28 0 .29.02.3.48.3.81 0 1.12.42 1.12 1.53q0 1.29-.93 1.44c-.52.08-.79-.24-1.12-1.33-.33-1.08-.3-1.06-.83-.92-.5.12-.49.1-.06 1.5.19.58.33.83.59 1.07.33.28.45.34 1 .44.3.05.85-.03 1.33-.2Zm11.79.12c1.81-.54 2.63-2.62 1.92-4.9-.53-1.72-2.69-2.57-3.96-1.56l-.21.16.21.53c.16.41.24.51.36.46 1.29-.59 2.06.45 1.83 2.48-.14 1.29-.6 1.78-1.56 1.65-.55-.08-.68-.28-1.22-1.97-.26-.8-.52-1.51-.58-1.58-.12-.12-1.66.31-1.66.46 0 .19.81 2.68.99 3.05.57 1.17 2.25 1.7 3.88 1.22Zm7.48.01c.26-.08.58-.24.7-.36.28-.27.59-.23.63.08.04.29 1.45.35 1.56.06.1-.26.07-6.08-.04-6.24-.1-.17-1.61-.22-1.77-.07-.04.05-.1 1.12-.13 2.39l-.05 2.3-.32.28c-.59.53-1.74.49-2.11-.08-.14-.22-.17-.59-.2-2.51-.02-1.38-.07-2.31-.14-2.38-.17-.21-1.52-.17-1.74.04-.2.2-.15 4.46.06 5.17.36 1.19 1.97 1.79 3.55 1.32Zm-26.45-.4c0-.29-.04-.34-.3-.4l-.3-.05v-.88c0-.49-.03-1.04-.06-1.25-.08-.46.15-.6.98-.62.95-.02 1.02.11 1.07 1.94l.03 1.5H20c.47 0 .47 0 .54-.37.09-.6.07-2.34-.04-2.75-.38-1.35-2.74-1.57-4.2-.39-.24.19-.24.2-.07.56.13.28.17.63.17 1.65 0 1.47-.08 1.37 1.03 1.39l.67.01zm12.65-.31c0-.59 0-.59-.35-.7-.67-.19-.64-.05-.56-2.56.09-2.81.13-2.69-.94-2.69-.68 0-.81.03-.9.19-.13.26-.14 5.8 0 6.16l.1.26 1.32-.03 1.33-.03zm-8.55-4.1c.48-.99 2.24-1.48 3.6-1 .23.08.44.15.46.15s.04-.17.04-.38c0-.6.28-1.28.66-1.62l.35-.3h-7.92l-1.02.88c-.57.48-1.18.99-1.37 1.14l-.35.26.55-.15c1.56-.41 3.45.04 4.27 1.03.46.54.46.54.73-.01Zm10.09-1.24.74-.29-.3-.15c-.41-.22-.9-.79-.98-1.16-.06-.3-.08-.31-.67-.31h-.6l.36.41c.32.38.56 1.05.56 1.59 0 .25.01.25.89-.09Zm7.01-.89c0-.04.14-.16.31-.26.43-.25.61-.75.57-1.54-.03-.7.14-.98.26-.41.17.86-.07 1.79-.55 2.13-.24.17-.59.22-.59.08Zm-6.24-.88c-.17-.44-.06-1.33.18-1.49.4-.26 5.62-.18 5.82.09.16.23.19 1.08.04 1.37-.15.27-5.94.3-6.04.03Zm5.82-.71-.03-.58h-5.5l-.03.58-.03.57h5.62zm-7.23-.09c.03-.2.03-.39 0-.43-.08-.08-11.39-.14-11.82-.06-.31.05-.33.09-.33.45v.4h12.08zm2.08-4.02c1.2-1.78 2.14-3.21 2.1-3.19l-1.53.92c-1.98 1.18-3.27 1.79-4.44 2.1-1.33.34-1.4.34-1.29-.07.28-1.11 0-2.37-.71-3.15-1.34-1.49-4.44-1.21-5.32.48-.18.35-.24.36-.73.04l-.38-.26-.06-2.97c-.04-2.04-.02-3.01.05-3.09.08-.11.93-.13 4.02-.11l3.91.03-.03 4.48c-.02 3 .01 4.47.08 4.47.2 0 1.96-.6 2.12-.72.1-.07.33-.65.52-1.28.43-1.44.82-2.49 1.35-3.67l.41-.91-.39-.73-.39-.72-.38.74c-.21.41-.7 1.48-1.09 2.38-.39.91-.76 1.66-.81 1.68-.08.03-.1-.98-.06-3.47l.05-3.5h-2.17c-1.32 0-2.16-.04-2.16-.1 0-.22.84-2.32.95-2.36.06-.03 1.19.18 2.5.46 2.95.62 2.68.63 2.81-.08.06-.31.11-.58.1-.59-.04-.05-5.62-1.13-5.83-1.13-.18 0-.3.15-.59.71-.42.84-.4.84-.93-.49-.64-1.6-.87-2.02-1.14-2.02-.47 0-9.98 1.78-10.09 1.88-.04.04.14.34.39.67 1.4 1.85 2.7 4.06 3.51 5.95.44 1.03 1.12 2.96 1.12 3.19 0 .05-.53.11-1.17.13-1.34.05-2.04.28-2.49.81-.57.68-.63.54 1.49 3.25 1.06 1.36 2.09 2.7 2.29 2.98l.37.5h5.93l5.94-.01zm-8.24-.3c-1.36-.68-1.79-1.04-1.79-1.51 0-.69.64-1.1 1.27-.82.18.08.29.09.37.01.38-.38 1.41.01 1.52.58.03.16.15.32.27.37.32.14.31.76-.01.9-.12.05-.22.19-.22.3 0 .22-.26.65-.39.65-.04 0-.5-.21-1.02-.48Zm1.13-.32c.02-.27.08-.36.26-.38.32-.05.3-.42-.03-.42-.21 0-.25-.05-.25-.31 0-.65-.61-.93-1.2-.57-.16.1-.24.1-.4 0-.25-.15-.72-.16-.88 0-.14.14-.16.88-.02.88.06 0 .1-.09.1-.2 0-.23.42-.44.71-.35.14.05.19.18.21.63l.03.57.65.32c.72.35.77.33.82-.17Zm-1.16-.26c-.29-.75.29-1.48.78-.98.19.18.21.85.04 1.02-.18.18-.75.15-.82-.04Zm.62-.47c.03-.32 0-.37-.17-.37s-.21.06-.21.33c0 .61.33.63.38.04Zm3.01-4.89.01-2.78h-7.5v1.63c0 3.12.09 4.12.38 4.3.25.14.26.14.54-.24 1.6-2.22 5.62-1.52 6.31 1.1l.12.45.07-.84c.03-.47.06-2.1.07-3.62Zm12.49 2.07c5.84-1.16 7.59-8.74 2.89-12.55-4.64-3.75-11.67-.38-11.67 5.6 0 4.53 4.2 7.85 8.78 6.95Zm-10.19-1.39c.24-.55.67-1.47.96-2.06l.54-1.07-.15-.54c-.08-.3-.18-.97-.21-1.5l-.06-.95-2.5-.54c-1.38-.29-2.53-.49-2.54-.44-.02.05-.19.47-.37.94l-.33.85 2 .03c1.4.02 2.05.06 2.15.15.13.1.14.54.08 3.16-.03 1.68-.05 3.03-.02 3 .02-.02.22-.49.45-1.03Zm7.22.18c-2.64-.58-4.61-3.02-4.61-5.69.01-5.27 6.22-7.98 10.08-4.39 4.48 4.16.55 11.4-5.47 10.08Zm2.78-.29c4.26-1.01 5.74-6.37 2.62-9.45-3.5-3.46-9.4-1.24-9.68 3.65-.22 3.81 3.29 6.69 7.06 5.8Zm-2.09-.35c-5.11-.65-6.21-7.51-1.57-9.8 4.39-2.16 9.08 2.53 6.96 6.96-.93 1.95-3.15 3.13-5.39 2.84Zm2.27-.51c3.38-1.04 4.45-5.39 1.96-8-2.4-2.51-6.48-1.81-8.01 1.38-.37.77-.37.79-.37 2.04v1.26l.42.85c1.1 2.22 3.54 3.22 6 2.47Zm-21.96-.91c-.51-1.18-.73-1.64-1.26-2.59-.31-.57-.91-1.55-1.32-2.17-.42-.62-.73-1.15-.7-1.19.05-.04 6.01-1.35 7.19-1.57.42-.08.52.09 1.21 1.94.6 1.63.63 1.76.44 2.15l-.17.35h-5.02l.03 1.72c.04 1.88-.05 2.18-.4 1.36Zm.11-1.73c-.06-1.81-.32-1.65 2.69-1.65h2.49l.06-.25c.09-.34-.88-3.18-1.2-3.52-.1-.1-6.85 1.23-7 1.38-.03.02.26.5.63 1.06.74 1.11 1.78 2.98 2.12 3.81.12.28.23.52.24.52s-.01-.61-.03-1.35Zm19 .69c-.12-.08-.22-.25-.22-.37 0-.17-.1-.25-.48-.37-.6-.19-.6-.25.08-2.65.56-1.94.64-2.08 1.13-1.94.48.14.56.11.63-.16.15-.6 1.09-.36 1.1.29 0 .34.05.41.36.57.9.46 1.06 1.54.32 2.15-.11.08-.1.18.01.51.34.98-.28 1.73-1.42 1.73-.47 0-.61.04-.71.2-.15.24-.49.26-.8.04Zm.63-.34c.06-.17.15-.2.76-.2 1.27 0 1.73-.74 1.07-1.74-.11-.15-.1-.2.01-.24.94-.33.81-1.53-.22-1.96-.36-.15-.37-.16-.31-.54.05-.35.04-.4-.17-.45-.28-.07-.39-.01-.39.22 0 .33-.18.4-.71.26l-.49-.13-.2.71c-.12.4-.27.92-.35 1.17-.25.82-.57 2.11-.54 2.14.02.02.24.1.49.18.3.1.46.21.48.34.06.36.11.44.31.44.11 0 .22-.09.26-.2Zm-.05-.77c-.72-.19-.72-.18-.53-.91l.16-.64.46.07c1.23.18 1.73.75 1.25 1.43-.18.26-.52.27-1.34.05Zm1.18-.51c.04-.35-.21-.52-.98-.67-.35-.06-.36-.06-.46.34l-.11.41.46.15c.74.23 1.05.17 1.09-.23Zm-.66-1.29c-.72-.17-.79-.27-.62-.88.18-.65.28-.69 1-.49 1.59.44 1.23 1.75-.38 1.37Zm.83-.23c.55-.21.12-.74-.77-.94-.24-.05-.28-.02-.38.3-.14.42-.11.45.43.61.23.06.43.11.44.12s.14-.04.28-.09Zm10.38-5.9C50.59 2.42 48.88.68 46.55.14l-.6-.14.71.03c2.12.08 4.63 2.72 4.52 4.76l-.03.56zM11.28.03c3.38-.02 8.87-.02 12.2 0 3.34.01.58.02-6.13.02S7.91.04 11.28.03Z"/></svg>