<svg xmlns="http://www.w3.org/2000/svg" width="51" height="51" viewBox="0 0 51 51"><path fill="#fff" fill-rule="evenodd" stroke="#fff" stroke-width=".397" d="M1.4 51.09c0-.06.16-.42.36-.8s.35-.71.33-.73-.48-.15-1.03-.29c-.54-.14-1.01-.28-1.04-.32-.2-.19.28-.13 1.68.25.88.24 1.62.41 1.64.39.05-.05.87-4.91.84-4.94C4.15 44.61.13 43.5.05 43.5.02 43.5 0 33.71 0 21.75V0l25.62.02c14.1.01 25.37.04 25.05.07l-.59.06.54.35c.29.19.54.43.56.52.03.13-.2.02-.76-.37l-.8-.55h-6.55l.05.52c.06.62.36.93.8.84.18-.03.28-.01.28.06 0 .06.03.08.07.05.03-.04.12.02.2.13.2.28.56.24.41-.05-.02-.02.06-.11.17-.19.35-.26.45.11.11.41-.23.2-.26.28-.19.5.13.38.57.41.69.05.09-.27.09-.27.89-.21.45.03.61.06.38.07-.45.02-.53.11-.29.31.11.09.25.09.53.02.21-.05.56-.1.78-.1s.52-.02.68-.04c.15-.02.3 0 .33.04.03.05-.06.09-.2.09-.13 0-.26.05-.28.1-.04.13-.28.14-.85.04-.39-.06-.43-.05-.43.14 0 .28-.1.52-.22.52-.05 0-.07-.09-.03-.19.04-.14-.01-.23-.17-.32a2.2 2.2 0 0 1-.45-.32c-.45-.4-.67-.02-.38.66.17.42.18.47.06.47-.05 0-.16-.18-.25-.4-.15-.37-.19-.4-.55-.4-.37 0-.39-.02-.46-.36-.07-.37-.28-.68-.39-.57-.03.03-.08-.02-.12-.11-.03-.09-.1-.13-.15-.1-.43.26-1.19-.52-1.19-1.23V.1H23.48l.59.43c.62.46 1.05.92 1.28 1.37.14.28 1.38 1.16 2.22 1.59 1.03.52 1.27.92 1.38 2.26.09.99.14 1.09 1.31 2.2l.94.9v.51c0 .62.01.63 2.05 2.09 2.8 2 3.09 2.37 2.25 2.8-.28.15-.29.16-.15.49 1.23 2.93-.17 7.62-2.62 8.82l-.54.27.28.18c.15.11.42.21.58.23.16.03.63.1 1.03.16.45.06.87.2 1.1.34.43.28 1.49.54 2.6.63l.77.06-.19-.21c-.1-.11-.16-.27-.13-.34.02-.07-.05-.3-.16-.51l-.21-.37.22-.3c.27-.36.28-.72.01-1.29-.22-.51-.19-.89.12-1.17.17-.15.19-.26.14-.65-.07-.52.15-.89.53-.89.1 0 .28-.13.4-.3.16-.21.31-.3.51-.3.46 0 .48-.36.05-.75-.18-.17-.34-.39-.34-.48s-.07-.17-.15-.17c-.33 0-.45-.66-.2-1.1.13-.23.12-.27-.13-.47-.31-.25-.24-.49.22-.71.35-.18.56-.09.56.23 0 .18.05.25.19.25.56 0 1.16-.55.92-.84-.13-.16-.51-.28-.51-.16 0 .04.1.1.22.14.17.04.2.08.1.14-.11.08-.62.05-.62-.03 0-.38.29-.7.86-.96.9-.41 1.05-.67.69-1.2-.27-.38-.27-.41-.13-.71.15-.32.06-.96-.21-1.47-.16-.3.05-.36.24-.07.36.55 1.83.84 2.6.51.5-.21.89-.69.76-.93-.17-.32-.13-.58.14-.9.17-.2.25-.42.25-.67 0-.64-.31-.95-.6-.6-.07.08-.27.17-.46.21-.19.03-.34.12-.34.19 0 .08-.11.27-.25.43-.14.17-.25.39-.25.5 0 .12-.04.24-.1.27-.2.12-.11-.65.1-.82.11-.1.2-.29.2-.43 0-.34.22-.75.4-.75.08 0 .19-.1.25-.21.06-.12.16-.29.23-.37.09-.11.11-.28.06-.54-.11-.53-.07-.69.28-1.17.23-.31.28-.48.24-.7-.04-.16-.03-.26.01-.23.03.04.17-.02.29-.14.13-.12.3-.19.38-.16.09.04.19-.01.25-.1.07-.14.1-.14.2.05.14.27.28.28.49.02.2-.22.74-.18.65.06-.03.09-.1.11-.21.05s-.21-.03-.33.12c-.15.2-.21.21-.67.11-.37-.07-.54-.07-.66.02-.2.14-.2.24-.01.24.08 0 .15.04.15.1 0 .05-.07.07-.15.04-.08-.04-.15-.01-.15.05 0 .07.24.11.65.11.5 0 .65-.03.65-.14 0-.09.24-.24.6-.37.57-.21.6-.23.6-.55 0-.19.05-.34.11-.34.05 0 .07.04.04.1-.03.05 0 .1.08.1.07 0 .19-.11.25-.25s.08-.25.03-.25-.07-.09-.04-.2.12-.2.2-.2.11.04.08.1c-.14.22.1.08.57-.35.46-.41.79-.57.77-.37 0 .04-.27.29-.6.57-.72.58-.84.8-.92 1.58-.08.82-.15.87-1.08.87-.68 0-.78.02-.84.2-.03.1-.19.3-.36.44-.36.31-.4.79-.08.97.22.11.38 0 .39-.27 0-.21.41-.64.61-.64.32 0 .59.36.59.79 0 .4.13.59.49.66.12.03.3.07.41.09.47.11.66.48.43.85-.19.3-.04.48.24.3.4-.25.73.14.73.86 0 .29.05.37.33.5.42.2.97.91.97 1.24-.01.26-.01.26-.14-.04-.29-.64-.89-1.08-1.4-1.03-.25.03-.46.02-.46-.03s.04-.09.09-.09c.36 0 .53-.69.27-1.05-.13-.18-.17-.18-.4-.05-.43.22-.73-.16-.51-.65.23-.47-.31-.88-.71-.54-.1.08-.15.05-.2-.15-.03-.14-.12-.26-.19-.26-.18 0-.27-.32-.2-.63.09-.32-.19-.61-.45-.47-.24.13-.55.94-.45 1.17q.075.18.12.06c.05-.13.43-.19.43-.07s-.34.33-.53.34c-.28 0-.32.29-.08.51.11.11.21.23.21.28 0 .04.14.07.3.06.17-.01.35.04.41.12.17.19-.39.17-.8-.03-.24-.12-.41-.14-.63-.08-.39.12-.37.27.04.35.18.04.29.07.23.09-.06.01-.14.03-.2.05-.4.09-.55.2-.55.37 0 .16-.03.18-.14.09-.1-.09-.15-.08-.19.03-.07.18.03.56.14.56.05 0 .09.07.09.16 0 .11.06.14.23.09.16-.04.18-.04.08.03-.11.08-.09.11.08.17.11.03.21.1.21.15 0 .35 1.76.7 2.33.46.38-.15.47-.13.47.15 0 .4.59.72 1.22.66.33-.03.58-.01.58.04s.16.17.35.26.35.22.35.3c0 .14-.21.08-.59-.16-.15-.09-.48-.16-.83-.16-.56 0-.61-.02-.97-.41-.38-.4-.38-.4-1.02-.36-.76.05-1.33-.09-1.8-.43-.68-.49-.74-.51-1.11-.2-.74.63-1.62.8-2.49.5l-.44-.16.4.41c.89.92 1.39 1.08 3.59 1.18 1.85.09 2.01.15 2.47 1.04.28.54.25.75-.13.92-.49.22-1.06.76-.63.6.15-.06.55.49.55.77 0 .24.65-.08.79-.39.16-.34.4-.27.92.27.62.64.69.98.4 1.94-.11.4-.21.87-.21 1.05 0 .19-.09.7-.21 1.15-.23.88-.21 1.49.05 2.08l.14.34.01-.4c.02-.66 1.11-2.37 1.11-1.73 0 .08-.07.21-.15.28-.83.69-.9 1.97-.19 3.16.38.63.44.86.14.59-.14-.13-.28-.16-.5-.11-.19.03-.29.02-.25-.04.03-.06.15-.1.26-.1.1 0 .19-.04.19-.1 0-.14-.72-.81-.79-.74-.03.04 0 .09.07.11.06.03.12.09.12.14 0 .17-.23.09-.45-.17-.21-.25-.65-.29-.51-.05.09.14-.05.42-.16.35-.06-.04-.08.02-.03.17.06.22.03.21-.24-.09-.17-.18-.31-.39-.31-.47 0-.17-.15-.18-.45-.05-.2.09-.2.09 0 .09q.21.015.21.21c0 .13-.04.16-.1.1a.43.43 0 0 0-.27-.1c-.1 0-.19-.09-.21-.22-.04-.28-.25-.34-.32-.1-.1.31-.43.65-.49.5-.03-.1-.08-.1-.17-.02-.09.09-.09.17 0 .35.09.2.07.19-.16-.06-.2-.22-.29-.26-.32-.16-.03.08-.15.24-.28.36s-.24.29-.24.38-.09.21-.2.27c-.12.06-.2.21-.2.36 0 .14-.04.22-.1.19-.17-.1-.11-.51.1-.7.11-.1.2-.24.2-.31s.08-.19.18-.26c.09-.07.22-.22.28-.33.07-.13.24-.21.48-.23.2-.02.36-.08.36-.13 0-.06.04-.08.1-.04.05.03.16-.07.24-.23.18-.35.52-.47.65-.24.07.13.14.14.33.05.29-.13.37-.09.62.31l.18.29.14-.32c.16-.37.35-.47.63-.31.29.15.37-.07.18-.53-.35-.82-.39-1.37-.17-2.2.11-.43.22-.99.24-1.25.03-.26.11-.69.2-.97.3-.96.13-1.7-.49-2.11-.25-.16-.27-.16-.41.05-.08.11-.2.21-.26.21s-.2.08-.31.17c-.18.17-.87.25-.87.1 0-.04.06-.16.12-.27.18-.28-.01-.56-.36-.53-.32.02-.34-.19-.05-.66.11-.18.18-.38.15-.45-.03-.08-.05-.08-.05 0-.01.06-.11.09-.24.07q-.6-.12-.33.78a4 4 0 0 1 .16.99c0 .25.06.52.13.59.1.11.09.13-.04.08-.11-.04-.2.03-.28.19-.06.14-.19.24-.31.24-.11 0-.2.06-.2.14 0 .07-.2.34-.45.58-.36.36-.45.52-.45.79 0 .19-.07.44-.15.56-.1.15-.13.32-.09.49.06.23.04.26-.11.2-.23-.09-.45.11-.45.4 0 .13-.04.24-.1.24-.15 0-.12.25.07.59.17.29.17.31-.05.6-.35.48-.25.84.19.61.15-.09.24-.09.32-.01.19.19.69.12.96-.13.29-.28.81-.45.81-.27 0 .06-.12.16-.28.22-.15.06-.36.18-.47.28-.24.22-.91.36-1 .21-.04-.06-.22-.08-.44-.04-.54.09-.72-.3-.39-.87.18-.33.2-.43.1-.59-.23-.37-.08-.9.47-1.72.16-.24.32-.61.36-.82s.21-.53.36-.71l.29-.33-.44.1c-.25.05-.6.08-.78.06l-.33-.03.02-.75c.02-.41.08-.92.15-1.13.1-.34.09-.4-.11-.61-.13-.14-.2-.29-.17-.34s-.01-.15-.09-.22c-.19-.16-.19-.6.01-.88.21-.3.03-.28-.24.03-.25.29-.37.31-.46.09-.1-.27-.07-.38.07-.25.15.12.37-.03.37-.25 0-.07.06-.15.13-.17.06-.03-.04-.06-.23-.07-.35-.01-.75-.22-.64-.33.04-.04.16-.01.27.05.12.06.43.08.74.05.29-.03.55-.02.58.03s.47.09.98.1h1.12c.31.01 1.05.49 1.25.82.27.44.33.18.07-.33-.39-.78-.61-.86-2.54-.91-1.77-.04-2.16-.14-3.03-.75l-.25-.17.21.24c.3.34.36.88.13 1.01-.15.08-.16.14-.07.4.1.29.37.36.29.08-.16-.59-.16-.56.08-.35.36.33.25.7-.22.74-.25.02-.4.09-.44.2-.03.09-.14.24-.23.32-.35.3-.35.77-.01 1.07s.44.89.16.99c-.08.03-.17.16-.21.27-.19.63-.73.76-1.04.25-.17-.29-.2-.3-.2-.11 0 .12-.07.26-.16.31-.14.08-.13.13.06.45.16.26.2.45.15.66-.05.24-.01.36.24.62.45.46.18 1.39-.4 1.39-.16 0-.1-.16.16-.4.51-.48.17-.93-.47-.65-.14.05-.18.02-.18-.13 0-.44-.54-.39-.89.08q-.21.3-.48.3c-.26 0-.26.01-.2.58.06.54.04.61-.18.8-.28.25-.32.6-.11 1 .29.55.31 1.01.06 1.34-.22.29-.22.32-.06.58.09.16.16.39.16.52.01.27.32.68.52.68.1 0 .12-.12.09-.46-.02-.25.02-.51.08-.57.15-.15.26 0 .12.17-.24.28-.1.79.23.83.26.04.28.02.22-.19-.03-.13-.09-.41-.12-.63s-.17-.62-.3-.89c-.3-.63-.3-.84.01-.98.15-.07.25-.19.25-.32 0-.12-.03-.16-.08-.1-.04.06-.17.14-.29.18-.25.08-.25.08-.28.81-.04.66-.15 1.15-.27 1.15-.06 0-.08-.15-.03-.37.03-.21.06-.6.05-.86-.01-.71.06-.85.46-.93.39-.07.39-.06.19-.44-.1-.18-.23-.3-.36-.3-.11 0-.17-.05-.14-.1.04-.06.11-.07.17-.04q.12.075.03-.12c-.18-.42-.18-.97.01-1.11.24-.17.44-.17.44.02 0 .08-.09.15-.2.15-.31 0-.25.45.15 1.2.36.65.43 1.03.25 1.3-.09.13-.11.13-.19 0-.2-.3-.24.2-.05.63.31.73.46.72.25 0-.08-.28-.07-.33.1-.38.21-.07.49.1.49.28 0 .06.07.19.17.29.14.16.14.18.01.18-.09 0-.23-.1-.31-.22-.16-.23-.16-.23-.16.13-.01.19.04.4.11.47.09.09.09.12-.03.12a.44.44 0 0 1-.27-.12c-.16-.16-.16.16 0 .75l.11.43 1.14.12c.62.07 1.32.19 1.55.28.24.08.95.28 1.58.44.63.15 1.23.31 1.32.35.1.04.39.02.65-.04.27-.07.66-.12.88-.13.3-.01.49-.09.77-.34.2-.18.51-.4.68-.49.3-.15.3-.16.15-.48-.14-.27-.14-.29-.01-.13.08.1.17.23.19.29s.11.06.24-.02c.29-.15.63-.14 1.15.03.24.08.55.17.71.2.21.05.27.12.27.32 0 .29-.38.27-1.18-.07l-.43-.19-.33.25c-.18.14-.38.25-.44.25-.18 0-.82.6-.82.77 0 .16.06.15.75-.11.4-.15 1.53-.19 2.1-.07.27.05.3.11.33.46l.03.4-.17-.24c-.2-.28-1.4-.26-2.23.03-.24.09-.62.16-.85.16-.39.01-.4.01-.21.16.2.15.41.15 1.45-.02.61-.1 1.94.44 1.98.8.03.24.01.28-.15.22-1.22-.48-1.66-.57-2.14-.45-.36.1-.63.1-.99.03-.28-.06-.5-.09-.5-.08 0 .07 1.14.64 1.47.73 1.08.29 1.34 1.5.52 2.37-.4.42-.55.23-.19-.23.44-.56.22-1.4-.4-1.58-.53-.15-1.71-.88-2.13-1.31-.36-.37-.46-.42-.56-.3-.17.2-.06.37.52.76.6.41.9.83 1.13 1.55.14.44.2.52.36.47.23-.06.38.12.38.46 0 .19-.09.26-.32.23-.09-.01-.28.58-.28.9 0 .15-.05.31-.1.34s-.1.15-.1.25c0 .34-.53.52-.64.23-.09-.22.25-1.55.43-1.69.42-.33-.26-1.7-1.12-2.27-.73-.48-1-.89-.93-1.38.07-.42-.05-.49-.86-.49h-.48v.35c0 .32-.04.37-.43.54-.68.29-.73.41-.48 1.07.28.75.27.87-.14 1.33-.48.53-.45.75.24 2.05.32.61.69 1.42.81 1.81.26.81.57 1.46.68 1.42.04-.01.08.02.09.07s.05.12.1.15.13.28.19.56c.09.52.56.77.87.46.13-.13.47.04.47.25 0 .2.79 1.26.9 1.19.43-.26.3-.64-.52-1.52-1.24-1.34-1.43-2.01-.92-3.29.14-.36.23-.72.19-.83-.13-.42.45-1.24.75-1.06.17.1.12.29-.36 1.26-.64 1.31-.73 1.8-.45 2.44.17.39.24.46.31.35.08-.12.1-.11.1.06 0 .12.26.51.58.87.59.66 1.33 1.53 1.66 1.95.31.38.1.37-.25-.02-.4-.47-.44-.42-.23.32.14.51.21.61.43.65.32.06.23.33.59-1.8l.3-1.83.79-.86c.55-.61.79-.81.81-.69.02.1-.24.45-.66.88-.8.84-.73.64-1.08 2.85-.31 1.98-.12 1.8-1.64 1.57-.52-.08-.98-.15-1.01-.15s-.14.48-.23 1.08c-.09.59-.19 1.22-.22 1.4-.03.17-.04.32-.02.32s.55.09 1.18.2 1.17.2 1.19.2 0 .19-.03.43c-.04.23-.31 2.1-.61 4.16-.3 2.05-.57 3.76-.6 3.79-.14.14-.15-.13-.05-.84.09-.71.09-.8-.07-.92-.28-.2-.36-.09-.4.48-.03.55-.13.83-.13.37 0-.17-.05-.27-.15-.27-.28 0-.22.44.12.84.36.43.08.48-.29.05-.27-.3-.29-.38-.23-.84.04-.35.03-.46-.04-.35-.08.12-.13.1-.31-.13-.12-.15-.28-.27-.36-.27-.17 0-.16-.03-.05.38.09.3.08.34-.16.43-.23.08-.25.14-.2.48.05.41-.05.72-.17.52-.04-.06-.04-.11-.01-.11s0-.09-.08-.21c-.16-.22-.03-.63.28-.89q.135-.12.06-.33c-.12-.33-.03-.48.25-.41l.25.06-.06-.77c-.06-.81-.11-.99-.25-.9-.1.06-.4-.21-.4-.36 0-.05.07-.12.16-.16.21-.08.77.54.69.75-.06.16.15.72.27.72.05 0 .08.05.08.11s-.09.09-.2.06c-.17-.04-.19-.01-.14.21.11.53.14.58.24.42.12-.19.4.04.4.33 0 .25.16.12.22-.17.05-.3.34-.43.59-.28.26.17.24.22.38-.78.36-2.61.72-5.07.76-5.21.05-.14-.07-.19-.62-.29-1.78-.31-1.73-.29-1.73-.58 0-.24.14-1.23.36-2.51l.07-.43.78.07c.87.07.87.07.63-.51-.15-.37-.17-.38-.31-.19s-.17.17-.71-.42l-.57-.63-.24.39c-.49.81-.97.6-.59-.25.1-.22.1-.28 0-.32-.24-.08-.61-.56-.68-.87-.03-.16-.17-.46-.31-.66-.13-.21-.4-.78-.59-1.29-.32-.88-.39-.97-1.44-2.06-.7-.74-1.13-1.26-1.18-1.47-.08-.29-.09-.3-.16-.11-.05.16.09.46.56 1.2.97 1.54 2.13 4.28 1.34 3.18-.53-.75-1.8-1.94-1.93-1.81-.07.07.93 1.85 1.8 3.2.67 1.05.81 1.43.34.99-.12-.11-.51-.31-.86-.44s-.68-.3-.72-.38c-.05-.08-.2-.4-.34-.7-.27-.59-.99-1.49-1.1-1.38-.14.14.56 1.97 1.51 3.92.47.95.54 1.15.27.76-.09-.14-.23-.29-.3-.33-.38-.23-2.01-2.46-2.63-3.59-.91-1.68-.38.38.75 2.86 1.26 2.78 1.28 2.85 1.34 3.71l.06.8.75.38c.44.23.83.37.97.34.12-.02.24 0 .25.05.02.05.66.2 1.42.33 1.37.24 1.96.4 1.96.55 0 .1-2.19.27-2.33.17-.08-.05-.07-.07.03-.05.24.03 1.52-.13 1.46-.19-.03-.03-.54-.13-1.13-.23-1.98-.33-2.79-.62-3.7-1.31-.64-.5-.68-.62-.48-1.41.19-.74.19-.73-.8-2.93-1.05-2.31-1.19-2.76-1.2-3.65 0-1.04.16-.98.8.27.48.94 1.52 2.49 1.62 2.4.02-.02-.06-.25-.17-.52-.67-1.55-.94-2.65-.69-2.81.2-.12 1.28 1.06 1.63 1.81.29.6.39.72.7.83.51.19.51.16.04-.58-.62-.98-1.68-2.96-1.68-3.14 0-.36.72-.06 1.38.58.65.62.37-.03-.8-1.83-.55-.84-.56-.93-.25-1.38.33-.49.57-.44.57.11 0 .41.05.49.8 1.3.44.47.8.84.8.83 0-.02-.18-.38-.4-.81-.52-.99-.5-1.37.09-1.9.25-.23.27-.53.06-1.03-.3-.71-.18-1.01.53-1.37.26-.14.32-.22.3-.46-.01-.16.05-.37.15-.48.34-.37-1.54-.8-4.68-1.06-2.2-.19-3.51-.45-4.3-.86-.47-.24-.78-.32-1.43-.37-.64-.05-.89-.11-1.14-.29-.5-.38-.96-.32-1.43.16l-.38.39.69.73c2.26 2.39 3.39 6.25 2.8 9.57-.17.99-.4.95-.29-.05.4-3.76-.54-6.97-2.73-9.33-.92-1-1.17-.8-1 .79l.11 1.04.18-.27c.35-.54.51-.36.44.51-.1 1.28-.49 2.05-1.68 3.29-1.22 1.28-3.82.95-5.33-.68-1.22-1.32-1.85-3.45-.8-2.72.59.41.58.42.51-.24-.04-.33-.02-1 .04-1.48.12-1.13.16-1.13-.94-.04-1.63 1.62-2.08 2.88-2.13 5.94-.02 1.04-.03 1.92-.04 1.94 0 .02-.07-.03-.16-.1-.25-.21-.15-3.53.15-4.64.45-1.71 1.4-3.13 2.81-4.18l.58-.44-.96-.34c-1.33-.46-2.09-.47-2.72-.03l-.46.32-1.69.04c-1.66.04-1.72.05-2.65.4-.52.2-1.18.38-1.45.42-.27.03-1.1.27-1.82.53l-1.33.47.52.28c.29.16.59.35.68.43.22.2.23.19.66-.1.67-.46 1.21-.31 1.01.28-.05.16-.07.53-.03.83.06.5.04.57-.18.77l-.24.22.34.37c.36.4.42.66.22.98-.11.17-.06.24.35.61.26.23.56.57.66.77l.18.35.12-.62c.16-.84.68-1.41 1.28-1.41.66 0 .78.32.62 1.67l-.11.92.5 1c.61 1.21.71 1.7.47 2.41-.16.49-.16.54.01.92l.18.4.28-1.03c.34-1.26.34-1.23.04-1.37-.55-.25-.64-2.22-.11-2.22.22 0 1.16.91 1.59 1.53.71 1.04.89 3.08.37 4.07-.2.38-.57 3-.46 3.18.01.01.21-.48.45-1.1.63-1.65 1.12-2.69 1.24-2.65.32.11.29 1.92-.04 2.89-.39 1.09-.52 2.69-.3 3.73.14.67.24.6.34-.25.22-1.76 1.18-4.59 1.68-4.94.66-.46.9 1.19.45 3.05-.35 1.42-.37 1.58-.29 2.03l.07.4.24-.77c.59-1.94 1.41-.55 1.41 2.41 0 1.06.12 1.29.24.44.26-1.97.99-.12.81 2.06-.04.53-.03 1 .05 1.32.13.54.07 1-.13 1-.14 0-.18-.48-.17-2.1.01-2.36-.19-3.1-.4-1.5-.13 1.05-.29 1.55-.42 1.42-.06-.06-.06-.23.01-.48.31-1.11.11-.94-.68.58-.65 1.26-.69 1.38-.47 1.81l.15.27h-.38c-.36 0-.38-.02-.34-.27l.04-.28-.23.28c-.21.24-.48.36-.48.21 0-.03.32-.55.72-1.17 1.51-2.37 1.38-2.04 1.38-3.48 0-1.59-.27-3.15-.53-3.06-.07.02-.25.41-.42.87-.33.93-.47 1.06-.64.59-.18-.52-.13-1.42.14-2.45.38-1.47.33-3.2-.08-2.86-.39.33-1.16 2.82-1.47 4.76-.13.81-.25 1.08-.48 1.04-.57-.11-.66-3.19-.14-4.64.31-.87.4-1.61.25-1.99-.04-.12-.28.39-.73 1.51-.99 2.47-1.33 2.74-1.11.89.06-.52.11-1.21.11-1.55 0-.47.06-.72.27-1.13.72-1.35.33-3.42-.87-4.7-.76-.82-.8-.82-.8-.04 0 .73.08 1.07.24 1.07.07 0 .22.09.34.2s.26.2.33.2.09.17.05.53c-.03.28-.06.65-.08.81-.02.23.02.31.17.35.11.03.22.15.23.26.03.16.01.18-.09.08a.5.5 0 0 0-.31-.13c-.09 0-.23-.1-.29-.22l-.12-.23-.13.3c-.2.47-.28 1.33-.14 1.49.07.1.08.21.02.33-.05.1-.12.52-.14.93-.08 1.21-.47 1.8-1.31 1.95-.41.08-.77-.13-.77-.44-.02-.37-.5.83-.67 1.62-.16.81-.16.87 0 1.05.09.1.17.25.17.33-.01.1-.03.09-.11-.03-.16-.27-.24-.22-.49.32l-.24.5-.26-.25c-.15-.14-.33-.25-.41-.23-.1.02-.13-.06-.11-.31.02-.2-.02-.37-.1-.42-.24-.15-.36-.1-.3.13.03.14.02.19-.06.14-.07-.04-.15-.25-.18-.47-.06-.33-.1-.4-.28-.37-.27.04-.33.48-.11.82.09.14.15.31.12.38q-.06.135-.06-.03c-.03-.66-.46-.41-.56.33-.04.26-.11.5-.16.54-.14.08-.1-.88.05-1.17.07-.14.16-.42.2-.62.11-.61.66-.76.94-.27.09.16.24.3.33.3.19 0 .49.31.49.51 0 .08.09.22.2.32.22.18.5-.21.5-.68 0-.99.71-2.79 1.25-3.21.39-.3.47-.73.19-1.12-.2-.29-.54-.3-.47-.02.13.48-.59.67-1.27.32-.39-.19-.63-.98-.41-1.34.22-.35.07-.75-.31-.82-.07-.02-.29-.06-.49-.1a.9.9 0 0 0-.67.08c-.66.34-1.35.1-1.87-.65-.33-.46-1.35-1.43-1.43-1.34-.03.03.05.16.17.29.37.39.25.7-.26.74-.67.05-.85-.75-.26-1.14l.26-.16-.29-.26c-.15-.15-.63-.52-1.06-.82-.43-.31-1.05-.88-1.39-1.28-.69-.81-.81-.86-.94-.4-.21.69-1.65.31-1.65-.43 0-.13-.09-.42-.21-.65-.19-.4-.19-.45-.04-.74.26-.51.95-2.5.95-2.76 0-.37-.12-.29-.54.39-.22.34-.71.92-1.09 1.29-.77.74-.81 1.03-.21 1.43.29.19.31.45.03.45-.38 0-1.01-.6-.94-.91.03-.15.01-.3-.04-.34-.19-.11-.12-.3.16-.47.7-.43 1.4-1.22 1.48-1.66.06-.35.17-.51.66-.94.63-.56.7-.68.39-.68-1.3 0-2.71 1.45-2.26 2.32.17.32 0 .45-.32.22-.52-.36-.38-.97.48-2.13.49-.66.55-.7.99-.76.25-.04.69-.11.96-.17.81-.16 2.16.05 2.6.42.08.06.39.04.91-.06.43-.08 1.13-.14 1.54-.13.67.01.89-.04 2.15-.5.77-.28 1.67-.55 2.01-.6s1.01-.23 1.5-.4c1.14-.38 1.93-.51 3.26-.51 1.01 0 1.1-.02 1.52-.28l.45-.29-.61-.29c-2.37-1.12-3.67-4.94-2.78-8.13l.21-.74-.21-.19c-.47-.44-.12-1 1.17-1.88 2.48-1.7 4.05-3.04 4.47-3.81l.18-.35-.38-.74c-.47-.93-.52-1.89-.15-2.8.28-.68.32-1.71.08-2.16-.86-1.65-2.54-1.83-2.4-.25.08.83 0 1.04-.66 1.75s-.86 1.04-.96 1.59c-.09.45-.2.54-.34.28-.29-.54-.06-1.38.55-2.03.46-.5.46-.5.39-1.01-.17-1.12-.11-1.62.23-2.16l.31-.51h-1.54c-.89 0-1.55.04-1.55.09s-.1.11-.22.13c-.28.04-.34.76-.08.88.47.22.55.29.58.53.07.57.65.6.81.04.08-.29.09-.3.1-.07a.85.85 0 0 1-.15.48c-.29.41-.94.19-.94-.33 0-.18-.08-.26-.35-.35-.25-.08-.37-.19-.41-.38-.03-.15-.09-.39-.14-.54-.06-.18-.05-.28.03-.31.07-.03-.41-.05-1.06-.04-.98 0-1.17.02-1.13.14.04.08.06.21.06.28 0 .29.31.47.7.4.33-.06.38-.04.44.17.09.34.07.58-.04.58-.06 0-.1-.13-.1-.3 0-.37-.13-.39-.28-.05-.13.27-.17.73-.06.62.04-.03.18.03.32.14.3.23.4.17.58-.37.16-.47-.03-1.04-.35-1.04-.11 0-.23-.04-.26-.1-.1-.17.52-.11.69.06.09.08.19.33.22.55.07.42.32.57.73.44.14-.04.21-.02.21.07s-.14.12-.53.1c-.52-.04-.53-.03-.62.3-.21.69-1.31.27-1.23-.47.05-.38.03-.43-.23-.52a.57.57 0 0 1-.35-.39c-.14-.58-.66-.86-.79-.44-.03.11-.14.2-.24.2s-.25.1-.33.22c-.25.37-.52.17-.44-.32l.06-.4H4.11L3.08.81a87 87 0 0 0-2 1.42l-.98.7v3.14C.1 8.94.11 9.2.27 9.2c.15 0 .15.01-.01.13s-.18.24-.12.98c.03.46.06.94.06 1.07s.04.21.09.17c.05-.03.12-.01.16.05.03.06-.01.13-.1.16-.12.05-.15.14-.11.3.04.14.02.24-.04.24-.23 0-.09.51.22.8.36.32.57.37.76.18.15-.15.48.13.37.32-.05.08-.11.06-.19-.06-.11-.14-.16-.14-.33-.04-.17.11-.25.1-.51-.08-.16-.12-.32-.22-.35-.22s-.05.74-.05 1.64v1.64h.24c.14 0 .24-.06.24-.15 0-.1.06-.12.2-.08.16.05.23-.01.37-.29.11-.24.2-.33.28-.26.17.14.55 0 .56-.21.02-.32.04-.37.12-.45.04-.04.07.07.07.25 0 .33 0 .33.24.17.14-.09.31-.13.39-.1.25.09.28-.12.07-.39-.11-.14-.2-.33-.2-.42s-.13-.34-.28-.54c-.43-.54-.5-.97-.12-.7.11.08.12.12.03.15-.08.04-.03.15.14.35.18.19.3.26.37.19.12-.12-.13-.62-.27-.53-.05.03-.08 0-.05-.07.07-.21.28-.24.28-.04 0 .1.07.26.17.36.15.17.15.19-.01.37-.11.12-.14.21-.07.26.06.03.11.15.11.26 0 .1.05.19.11.19.05 0 .07-.05.03-.12-.04-.06-.03-.08.03-.05.2.13-.15 1.27-.39 1.27-.05 0-.08-.07-.08-.15 0-.19-.24-.19-.4 0-.07.08-.29.15-.49.16-.2 0-.3.03-.24.06.07.02.13.12.13.2 0 .12-.03.13-.14.04-.1-.09-.16-.08-.26.04-.07.08-.18.15-.25.15-.06 0-.2.09-.31.21-.1.11-.26.18-.35.16-.35-.09-.33 1.46.02 1.71.25.17.24.42-.01.49-.27.07-.25.15.11.42.45.33 3.3 1.71 3.54 1.71.26 0 1.25 1.04 1.25 1.32 0 .17-.05.19-.27.15-2.23-.45-3.75-1.09-4.52-1.91-.37-.4-.41-.33-.41.74v1.01l.29-.15c.27-.14.3-.14.51.09.13.14.19.25.13.25s-.16-.07-.23-.15c-.11-.13-.15-.13-.41.01l-.29.15v1.24c0 1.27.09 1.58.36 1.19.18-.26.23-.31.68-.6.39-.25.65-.25.3 0-.18.14-.18.15.06.24.22.09.19.1-.19.09-.31-.01-.46.03-.49.13-.03.08-.19.28-.36.45-.41.39-.43.65-.05.65.15 0 .31-.04.34-.1s.01-.1-.06-.1-.1-.03-.06-.06c.03-.03.15.01.27.09.23.16-.13.37-.61.37-.17 0-.19.09-.19.95 0 .84.02.95.18.95.16.01.16.01 0 .11-.25.14-.26 1.68-.02 2.04.14.22.14.25.01.25s-.15.34-.16 2.55c-.02 2.48.01 2.73.29 2.4.2-.24.3-.07.14.23-.18.35-.17 1.02.01 1.26.11.14.15.46.15 1.12 0 .72.03.93.15.98.11.04.15-.02.15-.23 0-.37.23-.56.71-.56.36 0 .38-.01.48-.42.24-.92.98-.71.87.23-.05.42-.03.54.07.54.31 0 .51.37.34.63-.15.23-.14.24.07.2.28-.06.52.21.7.78.08.24.2.6.27.79l.15.47c.02.08.12.04.28-.12.28-.28.46-.25.87.12.22.2.27.22.32.09.04-.09.18-.16.32-.16.17 0 .28-.07.34-.23.12-.3.35-.49.58-.46.1.01.27-.02.37-.06.11-.05.31-.04.47.02.22.09.31.08.4-.03.31-.38.75-.03.65.51-.07.34-.06.35.24.35.32 0 .45.51.2.76-.08.08-.06.15.05.24.21.17.19.46-.05.7-.2.2-.2.2 1.05.2H12l.02.98c.01.53 0 1.23-.01 1.55-.02.31-.01.57.02.57s.78-.2 1.67-.44c.88-.24 1.62-.4 1.64-.37.05.07.46 2.72.46 2.95 0 .09-.2.2-.57.31-1.02.29-.97.26-.82.36.07.04.1.11.06.15s.02.21.12.38c.11.17.29.55.4.84l.21.52h-.21c-.13 0-.24-.1-.3-.27-.05-.16-.18-.46-.28-.68l-.18-.4-.34.68c-.4.8-.48.82-.8.16l-.25-.51-.24.51c-.21.42-.29.5-.53.51h-.28l.03-.77c.03-.72.04-.77.28-.84.14-.04.97-.27 1.85-.52 1.32-.37 1.6-.48 1.58-.63-.11-1.21-.37-2.44-.52-2.44-.09 0-.83.18-1.64.4s-1.5.4-1.53.4c-.02 0-.04-.72-.04-1.6v-1.6H9.6v3.89l-.67.2c-.38.11-1.21.34-1.86.52l-1.19.33.06.3c.08.4-.05 2.39-.15 2.29-.04-.04-.19-.51-.33-1.03-.45-1.64-1.21-3.37-1.36-3.09-.04.08-.18.73-.3 1.44-.26 1.54-.24 1.51-.89 1.31l-.52-.15-.37.79c-.32.69-.62 1.02-.62.69Zm16.3.06c0-.13 1.17-2.52 1.65-3.35l.54-.95-.29-1.45c-.16-.8-.42-1.9-.59-2.44-.17-.55-.34-1.17-.37-1.38-.1-.6.12-.46.31.2.09.31.38 1.06.64 1.67.27.61.58 1.41.71 1.78.15.48.26.67.36.63s.12.02.08.22c-.03.15.04.64.15 1.08.26 1.01.74 3.94.66 4.02-.13.13-.23-.19-.39-1.23-.31-1.98-1.17-5.28-1.33-5.12-.02.02.03.46.12.98.77 4.78.84 5.39.63 5.39-.11 0-.17-.17-.21-.7-.08-.97-.4-2.8-.49-2.8-.08 0-1.08 3.09-1.08 3.34 0 .09-.07.16-.15.16-.2 0-.13-.42.21-1.44.35-1.01.24-.91-.37.34-.43.88-.79 1.37-.79 1.05Zm10.35-.07c-.13-.38-.23-1.78-.15-2.13.05-.22.1-.65.1-.95.01-1 .28-1.07.65-.17.27.66.51 1.07.65 1.07.49 0 .69-2.45.31-3.83-.22-.82-.28-1.98-.11-2.41.14-.37.4-.32.87.17l.41.42.06 1.05c.09 1.65.51 2.65.51 1.22 0-.87.66-3.19.94-3.3.18-.07.66.47 1.16 1.3.51.86.37.82-.32-.08-.73-.98-.74-.98-1-.19l-.21.66.49.66c.62.81.55.96-.12.26-.61-.64-.64-.6-.64.9.01 1.17 0 1.18-.44.81-.41-.34-.61-1.05-.61-2.16 0-.87 0-.88-.37-1.28-.62-.7-.78.2-.33 1.94.31 1.23.26 2.97-.12 3.98-.55 1.48-1.53 2.64-1.73 2.06Zm1.01 0c.63-1.14 2.17-3.08 2.44-3.08.26 0 .5.33.49.66-.01.21-.03.23-.06.09-.21-.83-.98-.18-2.07 1.72-.32.57-.46.72-.64.73-.16 0-.21-.04-.16-.12Zm2.15-.25c.63-1.05 1.2-1.89 2.01-2.96 1.03-1.35 1.13-1.65.8-2.41-.22-.48-.17-.59.12-.27.52.57.41 1.32-.38 2.54-.46.71-.96 1.59-.96 1.7 0 .02.9-.17 2-.42l2-.46v-1.27c0-1.04-.03-1.28-.14-1.28-.23 0-1.42-.72-1.81-1.08-.42-.41-.46-.85-.15-2.02.26-1 .25-1.21-.1-1.83-.75-1.33.04-.95 1.52.73 1.23 1.4 1.28 1.47 1.28 1.94 0 .4 0 .4.16.17q.165-.225.36-.18c.15.04.18.02.13-.11-.16-.38-.16-.51-.01-.8.11-.21.16-.58.16-1.11 0-1.2.19-1.19.9.02.48.81 1.26 1.66 2.15 2.35.33.25.85.71 1.15 1.01.38.38.41.43.1.15-.25-.23-.88-.75-1.42-1.17-.95-.75-2.03-1.89-2.33-2.47q-.33-.63-.27.15c.02.25-.03.68-.12.96-.33.99.25 1.99 1.16 1.99H40v3.18l.38-.09c1.37-.33 3.33-.71 3.44-.66.09.03.22.49.37 1.28.12.68.24 1.31.27 1.4.03.13-.07.19-.41.28-.4.1-.45.14-.4.32.08.23-.21.73-.36.63-.06-.04-.04-.13.07-.25.18-.2.13-.49-.08-.49-.43 0-.89.22-.77.36.07.08.2.12.3.09.13-.04.19-.01.19.09 0 .24-.57.21-.72-.04a.47.47 0 0 0-.35-.2c-.26 0-.31.18-.08.26.15.06.21.34.08.34-.04 0-.17-.12-.28-.26l-.21-.27-.69.16c-.39.09-.71.21-.73.27-.06.18-.22.11-.22-.1 0-.12.08-.22.23-.25.12-.03 1.08-.23 2.12-.46 2.29-.49 2.1-.31 1.82-1.75l-.22-1.19-.3.04c-.17.01-.91.16-1.65.33-.74.16-1.5.32-1.68.35l-.32.06v-3.24l-1.37.03-1.38.03-.05 1.9-.05 1.9-2.29.53c-2.71.62-2.38.44-2.2 1.21.08.35.13.66.1.68-.09.1-.26-.09-.27-.3-.01-.2-.02-.19-.12.06-.25.63-.43.33-.22-.37.2-.67.15-.66-.26.04-.22.39-.41.6-.52.6-.17 0-.17-.03.04-.37ZM12.4 50.5c.36-.72.49-.74.79-.13l.23.47.34-.64c.54-1.02.56-1-.77-.63l-.99.28v.62c0 .78.02.78.4.03Zm16.49-.38c.59-.9.58-.88.28-.96-.17-.04-.32-.24-.54-.71l-.3-.65-.08.57c-.12.89-.06 2.53.09 2.53.02 0 .27-.35.55-.78Zm-23.17-1.3-.04-.48.71-.18c.83-.22.82-.17.36-1.38-.52-1.39-.33-1.32.46.17.23.44.43.81.43.82.01.01.12 0 .24-.04.21-.05.21-.06.03-.32-.34-.49-.26-1.05.21-1.42.37-.29.09-1.72-.44-2.21-.34-.32-.38-.4-.28-.58.06-.12.09-.34.05-.5-.08-.37.12-.49.22-.13.04.15.06.34.05.41-.02.06.06.12.18.12.24 0 .24-.02.04-.69-.22-.75-.11-.87.15-.17.29.78.25 1-.16 1.04-.42.04-.42.18.01.43.6.35.78 2.07.27 2.65-.36.41-.27 1.24.14 1.24.23 0 .27-.18.1-.49-.08-.17-.15-.35-.15-.41 0-.21.21.02.36.4.14.34.18.37.42.31l.27-.07.01-2.07c.01-1.85.03-2.09.19-2.27.24-.27-.04-.66-.36-.5-.23.13-.32.13-.27-.01.02-.06.08-.1.13-.1.15 0 .55-.41.55-.55 0-.08-.06-.11-.15-.08-.08.04-.15.12-.15.2s-.06.14-.14.14c-.15 0-.28-.92-.14-.98.12-.05.1-.3-.03-.38-.07-.04-.19.03-.29.16-.17.23-.26.23-.63-.02-.16-.11-.21-.1-.34.09-.12.18-.18.2-.34.1-.24-.15-.38-.02-.43.41s-.14.51-.32.27c-.14-.19-.16-.19-.28-.02-.19.25-.53.21-.72-.08-.2-.3-.5-.33-.57-.04-.05.17-.11.2-.36.14-.27-.06-.31-.03-.37.2-.11.44-.15.21-.05-.26.08-.35.06-.52-.08-.89-.1-.25-.22-.58-.27-.75-.09-.27-.14-.3-.64-.36-.3-.03-.51-.06-.46-.07s.01-.11-.09-.22-.13-.2-.07-.2.15.08.21.18c.09.16.11.16.25-.03.22-.29.19-.44-.1-.56-.26-.09-.26-.12-.2-.65.1-.88-.34-.91-.49-.02-.06.35-.34.78-.5.78-.04 0-.05-.09-.02-.21.05-.18.01-.2-.26-.17-.32.03-.51.78-.24.95.04.02.03.1-.02.17-.15.17-.02.53.2.59.47.12.16.27-.51.25-.9-.04-.9-.04-.9 1.53v1.25l1.97.54c1.09.29 2.07.56 2.19.61l.21.07-.18 1.02-.17 1.02.33.43c.18.24.54.86.81 1.39s.49.96.5.96-.01-.22-.04-.48Zm31.24-4.02c.1-.09.14-.33.14-.81v-.68l-1.07-1.2c-1.07-1.21-1.4-1.49-1.03-.88.26.41.25.5-.06 1.85-.32 1.33-.4 1.14.96 2.11l.85.61.03-.44c.02-.25.1-.5.18-.56Zm-3.91-4.01c-.62-.77-.63-.85-.3-1.64.22-.53.36-.39.56.53.1.45.21.87.25.93.12.21.22.79.14.84-.05.03-.34-.27-.65-.66Zm-15.84.51c.34-.19.69-1.03.69-1.67 0-.32.04-.73.1-.92.12-.45-.08-.82-.28-.5-.07.1-.23.19-.36.19-.14 0-.47.05-.74.11l-.49.12.38.38c.51.51.55 1.49.08 1.64-.19.06-.27.53-.12.68.1.1.52.08.74-.03Zm-1.67-2.07c.03-.1.06-.43.07-.73s.11-.72.21-.92c.22-.45.22-.55.02-.75-.14-.15-.14-.18.04-.36.25-.24.85-.32 1.01-.14.19.24.18.62-.01.61-.31-.03-.2.24.13.31.51.11.34.4-.25.4-.46 0-.76.19-.76.48 0 .14 1.42-.01 1.52-.16.11-.15.05-.62-.13-1.04-.11-.28-.11-.39.05-.83.25-.7.17-1.13-.46-2.38l-.51-1.02.11-.93c.14-1.11.09-1.37-.25-1.37-.45 0-.8.32-.98.9l-.08.25.21-.25c.28-.35.35-.13.23.73-.09.62-.08.71.15 1.1.17.29.24.58.24.94 0 .58.07.67.34.48.12-.09.16-.21.12-.37l-.06-.23.12.24c.11.21.09.26-.22.51l-.35.29.18.29c.33.57.16.91-.29.58-.17-.13-.19-.25-.16-1.24l.03-1.09-.26-.05c-.27-.06-.32.01-.13.2.09.09.07.13-.06.18-.24.09-.28.02-.62-1.06-.27-.88-.33-.99-.86-1.5-.55-.53-.72-.9-.48-1.05.19-.12.09-.34-.41-.89-.52-.57-.52-.62.01-.68.24-.03.43-1.58.19-1.58-.21 0-.6.65-.55.92.08.41-.09.35-.76-.27-1.24-1.15-2.1-1.41-3.72-1.11l-.87.17-.62-.25c-.99-.39-1.14-.41-1.22-.16-.04.12-.21.37-.38.57-.3.34-.3.36-.12.49.17.13.24.71.11.93-.03.04.1.13.29.19.3.12.47.34.68.92.03.08.06-.1.06-.4.02-.6.31-1.37.56-1.46.27-.11.28.03.04.36-.7.94-.33 2.03 1.01 2.91.46.31.86.61.88.67.08.25-.2.18-.86-.22-.39-.24-.89-.47-1.1-.51-.52-.08-.67-.27-.81-.99-.24-1.24-.6-1.36-.98-.31-.26.74-.28.87-.25 1.78.03.9.66 1.44.71.6.01-.06-.07-.09-.17-.06-.25.06-.46-.21-.34-.42.05-.09.12-.16.15-.16.21.03.27-.01.27-.14 0-.23.15-.18.28.09.08.18.16.22.34.19.21-.04.33.07.86.8.62.86.92 1.13 1.74 1.61.25.15.79.58 1.18.96.4.38.76.67.81.64.14-.08.99.77.99.99 0 .2-.01.2-.27-.04-.23-.21-.23-.19.06.19.6.78.93.88 1.52.48.88-.6 2.24.11 2.05 1.06-.04.21 0 .37.14.55.15.19.17.3.1.43-.08.15-.06.19.13.23.12.02.25.05.29.06.04 0 .09-.07.12-.16ZM4.5 38.28c0-.06-.03-.08-.07-.05-.12.12-.33-.15-.33-.44 0-.3.23-.59.46-.59.11 0 .15-.09.12-.3-.01-.17.02-.34.08-.38s.14-.19.17-.33c.04-.14.13-.26.21-.26.13 0 .13.04 0 .29-.08.16-.13.35-.11.41.02.07.1.01.17-.13s.2-.3.28-.36c.1-.07.13-.19.08-.37-.07-.28.01-.57.15-.57.22 0 .1.98-.13 1.06-.19.06-.19.07-.05.16.42.23-.32 1.98-.84 1.98-.1 0-.19-.05-.19-.12Zm-2.14-3.61c-.15-.11-.17-.17-.07-.35.16-.3.35-.28.27.03-.05.18-.02.25.08.25.16 0 .26-.3.26-.82 0-.3.04-.37.21-.4.25-.03.47-.33.35-.45-.04-.04-.13-.01-.19.07-.27.35-.78.23-.75-.17.03-.35.59-.85.76-.68.07.07-.33.45-.48.45-.05 0-.1.07-.1.15 0 .28.92.11.96-.18.02-.15 0-.16-.12-.06-.17.14-.29.06-.18-.13a.75.75 0 0 0 .09-.3c.02-.24.11-.32.28-.25.09.03.13.15.1.3-.03.14 0 .34.06.45.08.15.08.24-.02.34-.07.07-.2.25-.3.41-.1.15-.24.27-.32.27-.11 0-.15.12-.15.48 0 .67-.3.91-.74.59Zm10.86-.66c-.11-.07-.11-.12-.01-.28.1-.18.07-.24-.27-.57-.36-.33-.38-.37-.21-.5.36-.28.13-.66-.39-.66-.56 0-.45-.15.13-.18.53-.03.55-.02.5.18-.04.16-.02.2.1.16.08-.03.17-.06.19-.06s.04-.14.04-.3c0-.26.04-.3.28-.3.54 0 .9.85.42.97-.43.11-.22.44.38.58.4.1.2.48-.29.55-.26.04-.35.1-.37.28-.03.23-.26.29-.5.13Zm-1.82-2.64c0-.13.04-.27.09-.32.16-.16.26-.95.12-.95-.13 0-.15-.46-.02-.55.15-.09.58.15.71.39.07.13.21.22.33.22.26-.01.25.22-.01.62-.09.14-.15.38-.13.54.03.32-.22.4-.38.11-.09-.17-.1-.17-.28 0-.27.24-.43.21-.43-.06Zm17-.05c.79-.4 2.08-2.38 1.98-3.04-.03-.21-.05-.21-.21.1-.31.58-.4.35-.43-1.06-.03-1.57-.03-1.55-.56-1.29-1.11.55-3.46.24-4.4-.58-.35-.3-.66-.55-.7-.55-.15 0-.28 1.08-.28 2.3 0 1.44-.05 1.54-.55 1.16-.98-.75-.27.9.9 2.08 1.03 1.04 3.1 1.47 4.25.88ZM8.05 30.11c-.48-.12-.74-.29-.9-.61-.16-.31-.2-1.36-.07-1.58.1-.15 1.39-.71 1.66-.72.24 0 .04.26-.27.36-.9.28-1.1.43-.93.69.11.17.14.36.1.62-.08.53.2.88.76.96.41.05.58.13.49.21-.1.1-.56.14-.84.07Zm20.91-4.36c.49-.2 2.38-1.98 2.86-2.68 1.97-2.9 2.09-7.26.26-9.71-.13-.16-2.22-.52-2.36-.4-.15.12.11.61.31.57.55-.11 1.68 1.2 1.75 2.02s-.02 1.02-.48 1.16l-.39.12.06 1.01c.03.56.07 1.02.08 1.03.01.02.23-.11.49-.28 1.02-.68.63.36-.55 1.46-.85.8-1.57 1.01-2.15.66l-.32-.19-.23.24c-.29.31-.52.3-.74-.03-.17-.25-.18-.26-.31-.08-.6.82-.79.86-1.04.25-.16-.39-.22-.38-.49.1-.28.5-.32.5-.69-.06l-.3-.47-.16.32c-.2.37-.48.4-.66.06-.14-.26-.34-.32-.46-.14-.04.07-.24.09-.55.06l-.48-.06.35.77c.84 1.85 1.64 2.57 3.07 2.77.61.08.59.31-.02.28-1.51-.07-2.81-1.35-3.56-3.48-.13-.39-.27-.57-.61-.8-.97-.65-1.88-2.35-1.37-2.52.07-.03.43.28.81.67l.68.72-.04-.98c-.04-1.18-.06-1.24-.32-1.24-.11 0-.36-.07-.55-.14l-.35-.15v-.67c0-1.25 1.41-2.95 1.85-2.24.12.19.21.1.48-.46l.28-.56-.61.06c-.33.03-.86.09-1.19.12l-.58.06-.46.91c-.73 1.48-.82 1.88-.82 3.72 0 3.4 1.18 5.5 3.57 6.35.83.3 1.01.41 1.71 1.06.43.41.93.78 1.1.83.54.16 2.73.13 3.13-.04Zm4.65-3.25c1.92-1.89 2.42-5.51 1.18-8.41-.2-.46-.24-.49-.73-.58-.71-.15-1.66-.29-1.66-.25 0 .02.14.25.3.51 1.45 2.28 1.25 6.68-.4 9.16-.22.33-.4.61-.4.63 0 .19 1.17-.53 1.71-1.06Zm-12.84.28c-1.95-2.31-2.29-6.34-.76-9.17.37-.69.38-.68-.78-.41-1.32.3-1.28.26-1.63 1.36-1.22 3.83.05 7.55 2.94 8.6.77.28.78.26.23-.38ZM5.03 22.2c-.03-.11-.1-.2-.15-.2s-.21-.13-.36-.28c-.15-.16-.49-.37-.77-.47-.56-.2-3.08-1.46-3.43-1.71-.22-.16-.22-.16-.22.17 0 .35.43.81 1.35 1.43.45.31 2.81 1.09 3.07 1.03.1-.03.18-.01.18.03 0 .05.08.11.18.13.09.03.18.05.19.06 0 0-.01-.08-.04-.19Zm3.51-.83c-.12-.32.03-.62.31-.62.33 0 .43-.19.21-.41-.09-.08-.16-.22-.16-.29 0-.2-.4-.3-.51-.14-.05.08-.09.31-.09.52 0 .2-.05.37-.1.37-.15 0-.25-.31-.12-.39.05-.03.12-.2.14-.36.02-.19.11-.33.25-.4.13-.05.23-.15.23-.22 0-.13.29-.17.8-.13.32.03.32.03.21.33a.56.56 0 0 1-.36.33c-.24.06-.25.08-.1.3.19.3.11.5-.27.63-.26.09-.29.14-.24.36.07.26-.1.36-.2.12Zm17.62-1.2c.1.11.24.28.3.39.11.18.13.17.44-.18.4-.45.52-.47.79-.1l.21.27.19-.22c.24-.28.4-.29.91-.02s1.1.09 1.75-.53l.4-.39-.4.19c-1.05.51-1.33.55-1.87.27-.46-.24-.52-.25-.67-.11-.2.18-.47.21-.56.06-.1-.16-.22-.12-.6.21l-.35.31-.36-.31-.35-.32-.3.26c-.17.14-.37.25-.45.25-.17 0-.17.05-.02.3.12.19.14.19.44-.17.31-.36.31-.36.5-.16Zm-2.81.03c.11-.18.52-.1.68.13l.15.22.25-.27c.14-.16.31-.28.36-.28.06 0 .08-.06.05-.14-.05-.13-.11-.13-.4.01-.32.16-.37.15-.7 0-.32-.16-.37-.16-.57-.02-.42.29-1.08.05-1.97-.73-.53-.46-.53-.46-.35-.13.59 1 2.16 1.77 2.5 1.21Zm2.17-.75c.22-.28.5-.32.68-.09.3.36.49.37.86.05.41-.36.59-.39.75-.1.11.22.11.21.34-.07l.22-.28.48.32c.58.38.6.39 1.31.07l.57-.25-.05-1.05c-.06-1.28.08-1.17-1.23-1-.61.08-1.23.17-1.38.18-.5.06-.42-.19.57-1.74l.97-1.52-.12-.52c-.15-.66.03-.62-3.44-.71l-2.6-.07-.34.72c-.41.85-.44.76.75 2.58.7 1.08.83 1.43.52 1.43-.19 0-2-.3-2.2-.36s-.24.66-.11 1.74c.08.73.56 1.02.99.61l.25-.24.4.23.39.23.31-.23.31-.23.21.27c.28.34.34.34.59.03Zm15.1-.58c-.03-.29-.11-.61-.18-.72-.19-.27-.17-.52.05-.71.17-.15.17-.19.04-.46-.09-.17-.13-.42-.09-.58.05-.28.04-.29-.42-.32-.43-.03-.47-.05-.47-.28 0-.27-.19-.29-.45-.04-.12.12-.12.14.03.14.29 0 .53.47.35.68-.3.34-.31.6-.04.86.14.13.26.28.26.33s.16.24.36.41c.3.27.35.37.33.69-.03.54-.01.63.14.57.1-.04.13-.19.09-.57Zm-15.47-.77c-.07-.12-.02-.22.38-.72.4-.53.62-.5.92.14.13.28.22.55.19.6-.07.12-1.42.1-1.49-.02Zm20.04-.16c.18-.13.25-.14.31-.04.06.09.12.09.29.01.11-.07.21-.08.21-.04s.05.02.12-.05c.08-.08.08-.15 0-.25-.16-.19-.04-.28.19-.14.54.34.73-1.09.28-2.13-.11-.27-.19-.57-.16-.67.03-.15.05-.14.14.07l.1.25.08-.24c.07-.23.14-.24.6-.05.2.07.2.07.02-.14-.11-.11-.16-.26-.12-.32.04-.07.01-.16-.06-.21-.22-.14-.27-.11-.31.18-.04.33-.2.39-.42.17-.09-.09-.2-.14-.23-.11-.03.04-.13.02-.22-.02-.37-.2-.75.34-.57.8.21.53.21.81-.01.77-.14-.02-.18.05-.2.32-.03.49-.3 1.2-.38.99-.03-.08-.01-.28.05-.43.05-.15.1-.43.1-.63 0-.26.05-.36.19-.4.18-.05.19-.07.04-.51-.09-.26-.17-.53-.19-.59-.05-.18-.59-.16-.74.02-.24.28-.08.5.34.47.37-.04.38-.03.31.2-.14.44-.27 1.33-.26 1.8 0 .26-.04.5-.09.53-.06.03-.1.17-.1.31 0 .29.33.33.69.08Zm-3.43-.7c.03-.12.02-.28-.02-.35-.05-.08-.02-.1.08-.06.43.16.48-.36.07-.7-.38-.32-.38-1.04-.01-1.34.12-.09.24-.28.28-.43.03-.14.11-.26.16-.26.06 0 .07-.09.03-.22-.16-.52-.22-1.09-.11-1.05.06.02.12.13.14.25s.08.2.13.17c.14-.1.11-.41-.07-.56a.84.84 0 0 1-.24-.34c-.08-.18-.09-.17-.09.08-.01.37-.18.34-.3-.05l-.09-.33-.01.3c0 .17.08.41.19.55.43.55.21 1.02-.69 1.45l-.61.29.3.12c.4.17.4.57.02 1.03-.35.42-.33 1.16.03 1.16.14 0 .21.08.24.25.06.45.46.48.57.04Zm-17.73-.44c-.1-.17-.27-.33-.38-.35s-.79-.17-1.52-.33c-1.37-.3-1.48-.29-1.32.14.07.2 1.04.44 3.09.77.14.02.26.05.28.06.02 0-.05-.13-.15-.29Zm5.81-.11c1.5-.24 1.66-.3 1.66-.65 0-.19-.04-.24-.17-.2-.1.03-.78.16-1.51.3-1.45.28-1.47.28-1.62.57-.14.25-.03.25 1.64-.02Zm-6.34-.64c0-.14-1.26-2.08-1.38-2.12-.29-.12-1.49 1.33-1.28 1.54.13.13 2.66.68 2.66.58Zm6.56-.26c.67-.12 1.28-.25 1.34-.29.27-.17-.83-1.6-1.24-1.6-.07 0-.25.18-.39.39-.55.84-1.06 1.71-1 1.71.04 0 .62-.1 1.29-.21Zm4.74-2.58c0-.51-3.12-2.6-4.12-2.76-1.53-.24-4.09-.38-6.53-.34l-2.4.04-1.72 1.29c-2.23 1.67-2.25 1.71-.55 1.37 3.29-.66 10.54-.47 14.77.39.56.11.55.11.55.01ZM4.83 12.6c-.26-.11-.39-.33-.48-.85-.04-.22-.13-.51-.2-.65-.2-.38-.22-.65-.06-.65.08 0 .16-.06.19-.13.03-.09-.03-.11-.22-.06-.47.11-.64-.16-.62-.94.02-.52-.02-.73-.16-.91a.6.6 0 0 1-.13-.52c.03-.15.01-.3-.04-.34-.16-.09-.13-.35.03-.29.12.05.12-.02.03-.38-.06-.24-.1-.61-.09-.82.01-.27-.04-.43-.16-.52-.2-.14-.11-.29.13-.2.22.08.37.53.26.75-.07.12-.05.31.05.6.08.23.12.47.08.52-.17.28-.13.94.07 1.15.11.12.2.28.19.35-.04.28 0 .39.15.39.08 0 .15.07.15.15 0 .18-.16.2-.23.03-.03-.07-.06.09-.06.36-.01.4.02.47.15.42.09-.03.2-.06.25-.06.06 0 .15-.14.21-.31.1-.29.11-.3.3-.12.11.1.23.16.26.13.04-.03.08.03.1.13.04.19-.23.24-.34.06s-.24.12-.13.32c.12.23 0 .52-.18.45-.1-.04-.11-.01-.04.12.05.09.14.44.22.77.15.72.24.85.57.85.57 0 1.22-.66 1.22-1.24 0-.43.21-.76.54-.84.28-.08.31-.12.33-.53.01-.24.02-.49.02-.56.01-.06.1-.15.21-.18.31-.1.52-.35.41-.49a.9.9 0 0 1-.13-.36c-.04-.3-.54-.42-.64-.16-.04.1-.18.16-.36.16-.16 0-.38.05-.48.1-.16.08-.18.08-.14-.05.04-.08.01-.15-.05-.15S5.9 8 5.9 7.88c0-.14-.14-.34-.35-.51-.19-.15-.35-.33-.35-.4-.01-.29-.18-.42-.35-.27-.15.13-.17.12-.13-.05.02-.13.11-.19.23-.18.36.03.45-.42.21-1.09-.18-.51-.01-.38.25.18.13.3.17.5.11.57-.08.1-.1.68-.03.99 0 .04.17.13.37.2.32.11.35.16.3.41-.09.45.52.36.76-.11.12-.25.18-.3.25-.2.04.07.21.2.38.28.19.1.31.25.33.4.02.14.08.3.14.37.15.18 0 .51-.33.7-.25.15-.29.23-.29.59 0 .57-.08.74-.34.74-.28 0-.46.18-.46.46 0 .89-1.1 1.91-1.77 1.64ZM30.9 9.51l-.05-.59-.91-.86c-1.08-1.01-1.2-1.23-1.29-2.38-.11-1.3-.36-1.57-1.97-2.18-.73-.27-1.24-.72-1.57-1.39-.31-.6-.69-1-1.43-1.5L23.21.3l-1.73.02-1.73.03-.28.55c-.42.8-.3 2.22.16 2.04.14-.05.17-.21.17-.83 0-1.91 1.93-1.73 2.99.28.23.42.16 1.49-.14 2.36-.35 1.02-.31 1.58.2 2.61.43.88.41 1-.25 1.82l-.48.59 3.47.07c1.9.03 3.73.1 4.06.15.33.04.76.09.95.1l.35.01zM46 8.18c0-.15.05-.3.1-.33.21-.13.1-.5-.2-.67-.48-.27-.46-.87.05-1.34.47-.43.45-.54-.13-.54-.75 0-1.21.51-1.04 1.16.11.42.11.49-.1.82-.13.21-.23.41-.23.45 0 .05-.11.15-.25.22l-.25.14.28.01c.16 0 .3-.07.33-.15.17-.43.94-.01.94.51 0 .2.02.21.25.11.17-.09.25-.2.25-.39ZM6.85 6.68c-.04-.18-.07-.37-.06-.42.03-.14-.31-.46-.41-.4-.06.04-.07-.03-.03-.17.04-.13.07-.26.07-.29.01-.31-.06-.42-.28-.5-.24-.1-.26-.14-.21-.5.07-.58-.01-.8-.29-.8-.14 0-.27-.07-.31-.16-.07-.19-.47-.36-.68-.28-.13.05-.15.23-.11 1.11.04.79.02 1.03-.07 1-.16-.05-.22-2.04-.06-2.23s.74-.18.89.02c.08.08.28.21.46.29.37.15.54.67.35 1.04-.1.18-.08.23.13.32.28.13.51.6.42.85-.04.09.02.23.13.32.11.1.22.37.26.65.07.53-.08.65-.2.15Zm.95-.88c-.21-.21-.25-.36-.12-.44.04-.03.14-.28.22-.56.13-.47.16-.5.39-.45.14.03.37.07.51.1.34.06.62.42.54.69-.08.26-.25.48-.32.41-.03-.03-.2.06-.38.2-.4.3-.58.31-.84.05ZM1.75 1.46C2.52.9 3.27.37 3.4.28c.24-.16.18-.17-1.52-.17L.1.1v1.26c0 .95.03 1.23.12 1.18.07-.04.75-.53 1.53-1.08Z"/></svg>