<svg xmlns="http://www.w3.org/2000/svg" width="51" height="51" viewBox="0 0 51 51"><path fill="#fff" fill-rule="evenodd" stroke="#fff" stroke-width=".598" d="M23.82 48.99c-9.72-.7-18.27-7.69-20.85-17.06l-.31-1.13H1.33c-.82 0-1.33-.04-1.33-.1s.54-.1 1.43-.1h1.43l.19.73c2.15 8.44 9.24 15.24 17.7 16.97 12.2 2.5 23.74-4.49 27.26-16.52l.34-1.18h1.43c.88 0 1.42.04 1.42.1s-.51.1-1.33.1h-1.34l-.32 1.13c-2.46 8.6-9.55 15.13-18.15 16.72-2.14.39-4.06.5-6.24.34Zm-.42-2.25C14.07 45.61 6.64 38.79 4.8 29.7l-.27-1.35-2.27-.03C.84 28.31 0 28.26 0 28.2c0-.07.84-.09 2.36-.08l2.37.03.27 1.37c2.75 13.69 17.59 21.05 29.94 14.86 5.95-2.98 9.82-8.11 11.25-14.93l.27-1.3 2.37-.03c1.53-.01 2.37.01 2.37.08 0 .06-.84.11-2.27.12l-2.27.03-.12.65c-1.71 9.19-8.03 15.61-17.21 17.51-.95.2-4.92.35-5.93.23Zm-2.35-3.19C8.11 40.19 2.78 24.85 10.87 14.28c2.67-3.49 6.88-6.07 11.27-6.93 1.1-.21 1.06-.26 1.06 1.31 0 1.4.02 1.36-.9 1.54-3.72.71-7.6 3.37-9.86 6.76-6.07 9.12-.94 21.65 9.83 23.99 1.01.22.96.13.88 1.64l-.08 1.31h-.36c-.2-.01-.94-.16-1.66-.35Zm7-.96c-.08-1.49-.11-1.42.75-1.59 9.03-1.71 14.67-11.56 11.7-20.43-1.72-5.12-5.91-8.96-11.2-10.26l-1.15-.28V7.25l.35.03c2.32.2 5.82 1.67 8.2 3.43 10.23 7.53 9.82 23.19-.79 30.31-2.15 1.44-5.85 2.87-7.47 2.88h-.31zm-5.15-.07v-1.18l-.62-.13c-8.71-1.76-14.4-10.87-12.18-19.48C11.58 16 16.17 11.4 21.7 10.09c.52-.12 1.01-.23 1.08-.25.09-.03.12-.35.12-1.19 0-1.37.17-1.29-1.74-.8-16.58 4.24-18.88 26.5-3.55 34.21 1.27.63 4.27 1.58 5.17 1.63.09.01.12-.29.12-1.17Zm6.68.94c15.94-3.62 19.56-24.83 5.71-33.41-1.94-1.21-5.54-2.54-6.86-2.55-.1 0-.13.3-.13 1.18v1.18l.71.13c3.64.67 7.21 3.04 9.61 6.38 6.48 9 1.68 22-9.13 24.72l-1.14.28-.03 1.17c-.02.79.01 1.16.08 1.16.06 0 .59-.11 1.18-.24Zm-6.33-4.92c-6.4-1.15-11.13-7.02-10.82-13.41.61-12.16 15.6-17.23 23.33-7.89 7.75 9.37-.52 23.45-12.51 21.3Zm4.95-.28c10.95-2.38 14.02-16.4 5.07-23.08-6.68-4.97-16.46-2.23-19.67 5.53-3.15 7.58 1.78 16.31 9.96 17.64 1.13.18 3.6.14 4.64-.09Zm-4.05-1.02c-10.68-1.62-13.97-15.03-5.21-21.26 3.97-2.82 9.7-2.77 13.56.13 7.96 5.98 5.54 18.28-4.1 20.86-.93.25-3.36.4-4.25.27Zm2.7-.24c3.97-.45 7.62-3.12 9.17-6.73 1.35-3.11 1.31-6.77-.1-9.7-4.22-8.8-17.01-8.45-20.89.57-3.4 7.92 3.23 16.82 11.82 15.86Zm-5.39-3.19c-.05-.08.68-3.87 1.28-6.64l.26-1.18-.63-.59a4.624 4.624 0 0 1 .58-7.25c4.76-3.2 9.95 3.29 5.82 7.28l-.6.57.37 1.83c.2 1 .56 2.75.8 3.89s.41 2.1.38 2.13c-.09.09-8.2.06-8.26-.04Zm8.01-.33c-.02-.07-.37-1.7-.77-3.63-.39-1.92-.74-3.55-.75-3.62-.03-.07-.23-.03-.65.14-1.09.44-2.53.41-3.64-.07l-.43-.18-.17.76c-.24 1.08-1.36 6.54-1.36 6.64 0 .04 1.76.08 3.91.08 3.09 0 3.9-.03 3.86-.12Zm-3.24-7.08c5.39-.78 4.81-8.75-.64-8.75-5.84 0-5.98 8.27-.14 8.84.06 0 .41-.04.78-.09ZM0 22.95c0-.12.34-.15 2.26-.17l2.27-.03.23-1.15C7.2 9.76 18.41 2.37 30.15 4.87c8.15 1.73 14.71 8.48 16.27 16.71l.23 1.22h2.28c1.96 0 2.27.02 2.27.15s-.31.15-2.37.13l-2.36-.03-.28-1.42C42.96 5.26 23.05-1 11 10.56c-3.13 3.01-5.12 6.72-6.05 11.29-.09.44-.18.9-.21 1.03l-.04.22H2.35C.34 23.1 0 23.08 0 22.95Zm.88-2.32c-1.4-.06-1.05-.23.45-.23h1.34L3 19.23C7.54 3.06 27.31-3.22 40.35 7.35c4.05 3.29 6.75 7.52 8.05 12.63l.11.42h1.34c1.13 0 1.35.02 1.35.15s-.22.15-1.34.15c-1.38 0-1.66-.08-1.66-.44 0-.27-.61-2.25-1-3.25-2.76-7.09-9.38-12.67-16.8-14.15C18.26.43 6.47 7.6 3.19 19.42c-.36 1.27-.37 1.28-.99 1.26-.25-.01-.84-.04-1.32-.05Z"/></svg>