<svg xmlns="http://www.w3.org/2000/svg" width="51" height="51" viewBox="0 0 51 51"><path fill="#fff" fill-rule="evenodd" stroke="#fff" stroke-width=".45" d="M12.68 43.8c.02-1.88.01-3.52-.02-3.65l-.06-.24-.72.34c-.82.4-.9.37-.86-.3l.03-.48.85-.43c.67-.34.97-.44 1.44-.45l.59-.03-.02 4.2c0 2.3-.01 4.25-.01 4.32 0 .08-.19.12-.62.12h-.63zm6.27 3.31c-3.12-.82-2.91-6.5.3-8.02 1.02-.48 2.76-.63 2.61-.23-.03.09-.06.31-.06.5 0 .34 0 .34-.48.34-1.26 0-2.15.52-2.82 1.65-.4.67-.38.79.06.53.99-.58 2.74-.27 3.44.62 1.69 2.13-.41 5.31-3.05 4.61Zm6.52-.01c-2.13-.54-2.76-2.97-1.08-4.18l.39-.28-.43-.46c-1.52-1.6-.18-3.73 2.24-3.56 2.02.15 2.91 2.11 1.6 3.53l-.39.43.49.36c2.32 1.66.12 4.9-2.82 4.16Zm6.16-.08c-2.05-.73-2.41-3.09-.65-4.22l.23-.15-.44-.46c-1.46-1.53-.38-3.53 1.93-3.54 2.3 0 3.37 2.07 1.85 3.59l-.34.35.48.34c1.16.84 1.25 2.63.18 3.53-.79.67-2.23.92-3.24.56Zm-10.86-.28c2-.82 2.19-3.82.3-4.7-.93-.43-2.09-.29-2.78.33-.51.46-.56.39-.3-.4.51-1.53 1.72-2.47 3.18-2.47.42 0 .43-.01.43-.31v-.32l-.79.06c-2.4.16-4.11 2.45-3.88 5.19.18 2.13 2.01 3.38 3.84 2.62Zm6.88-.03c1.7-.76 1.84-2.9.25-3.79l-.48-.27.48-.51c1.3-1.38.61-3.14-1.29-3.31-2.35-.22-3.58 1.97-1.91 3.39.49.43.5.4-.05.78-2.5 1.72.13 4.99 3 3.71Zm6.55-.08c.76-.4 1.13-.94 1.18-1.77.06-.96-.24-1.45-1.34-2.12-.18-.11-.16-.15.25-.54 1.56-1.53.39-3.6-1.9-3.36-2.06.21-2.75 2.14-1.23 3.44l.47.4-.29.15c-1.13.59-1.59 1.87-1.03 2.88.66 1.19 2.5 1.62 3.89.92Zm-20.48-3.78.03-4.05h-.42c-.54 0-2.13.76-2.13 1.01 0 .45.09.46.79.11.38-.19.74-.31.8-.28.08.05.11 1.18.11 3.67v3.59h.8zm5.52 3.46c-1.26-.31-1.89-2.24-1.07-3.22.8-.95 2.49-.89 3.06.1.91 1.54-.36 3.52-1.99 3.12Zm6.41-.02c-1.36-.5-1.51-2.21-.27-3 1.53-.97 3.55.95 2.48 2.35-.46.61-1.49.91-2.21.65Zm6.37-.02c-.75-.24-1.24-1.16-1.03-1.93.5-1.77 2.99-1.72 3.52.06.38 1.25-1.06 2.33-2.49 1.87Zm-5.2-.17c1.48-.41 1.51-2.14.06-2.74-.53-.22-.85-.2-1.36.1-1.19.7-.99 2.33.33 2.65.43.1.56.1.97-.01Zm6.43-.01c1.45-.39 1.47-2.13.03-2.73-.7-.3-1.2-.16-1.76.48-1.03 1.18.13 2.69 1.73 2.25Zm-12.71-.19c1.41-.87.91-3.17-.71-3.27-1.45-.09-2.26 1.29-1.55 2.65.42.79 1.51 1.09 2.26.62Zm5.21-3.76c-.87-.45-1.18-1.27-.79-2.09.34-.73 1.66-.91 2.31-.32 1.15 1.06-.16 3.12-1.52 2.41Zm6.3-.07c-1.47-.83-.98-2.67.71-2.67 1.16 0 1.76 1.23 1.08 2.24-.45.65-1.11.81-1.79.43Zm-5.24-.12c.59-.31.86-1.16.57-1.8-.35-.76-1.96-.72-2.28.06-.44 1.06.72 2.25 1.71 1.74Zm6.4 0c.68-.36.93-1.46.45-1.98s-1.51-.5-1.98.02c-.84.94.41 2.53 1.53 1.96ZM7.36 32.89c-4.79-.66-6.57-4-4.45-8.37 2.26-4.66 6.89-9.12 12.33-11.87 10.76-5.44 21.72-5.29 23.28.33.74 2.69-.43 5-5.8 11.46-3.38 4.06-3.53 4.74-1.07 4.61 4.48-.23 11.83-2.25 17.4-4.77 1.22-.56 1.5-.64 1.59-.5.12.19-.24.43-2.24 1.53-12.34 6.75-21.52 8.91-22.7 5.34-.52-1.57.47-3.39 4.01-7.42 4.58-5.22 6.29-7.78 6.05-9.08-.1-.53-.86-1.27-1.81-1.77-1.5-.78-4.43-1.6-4.95-1.38-.4.17-.4.18.4.83s.81.72.07.82c-.94.12-4.59.86-6.02 1.21-3.33.84-9.05 2.66-9.05 2.9 0 .07.14.48.3.91l.3.78-.22.18c-.95.77-2.28 2.11-2.16 2.17.23.13 1.5.3 2.53.34l1 .04.09.47c.04.25.06.48.03.51-.16.17-3.76-.29-4.82-.61-.19-.06-.2-.02-.17 1.39l.03 1.45-.77.35c-3.51 1.63-4.91 4.11-2.89 5.11 2.19 1.08 7.07.94 12.15-.36 1.69-.43 1.9-.46 1.9-.25 0 .27-4.25 2.11-6.13 2.65-3.06.88-6.28 1.27-8.21 1Zm3.32-.3c2.62-.28 6.19-1.27 8.27-2.29.55-.28.91-.48.8-.45-3.91.89-8.13 1.21-10.48.8-4.34-.76-4.23-3.88.23-6.31l.9-.49v-1.4c0-.77.03-1.63.06-1.91l.07-.52.44.2c.63.28.7.24 1.93-.96l1.12-1.09-.36-.93c-.2-.52-.36-.96-.36-.98 0-.14 4.63-1.73 7.17-2.47 2.32-.66 4.34-1.15 6.36-1.53l1.69-.32-.46-.38c-.6-.48-.58-.55.19-.99.8-.46.98-.46 2.56-.03 7.23 1.99 7.07 3.91-1.06 13.06-2.91 3.27-3.86 4.81-3.87 6.22-.03 3.56 6.44 2.86 16.57-1.8 2.31-1.06 5.81-2.89 5.72-2.98-.02-.02-.79.25-1.72.6-6.1 2.28-9.51 3.17-13.83 3.62-2.2.23-2.92.06-2.92-.7 0-.75.64-1.69 3.58-5.24 4.64-5.61 5.75-7.97 4.92-10.46-2.38-7.17-21.05-3.9-30.25 5.3-1.91 1.92-3.93 4.66-4.86 6.59-2.45 5.11.89 8.57 7.59 7.84Zm15.28-13.6c-.57-.44-.18-1.49.94-2.52.71-.66.74-.67 1.23-.26.44.36.44.39.11.78-.31.37-.49.39-.58.08-.06-.21-.08-.2-.41.18-.84.98-.84 1.39.01.75.59-.44.58-.44.84.02.08.14.01.24-.42.57-.86.65-1.28.75-1.72.4Zm-2.68-.04c-.28-.15-.44-.47-.33-.65.04-.06.3-.08.68-.04.48.04.67.02.82-.1.19-.14.17-.15-.36-.16-1.36 0-1.23-1.06.23-1.79.93-.47 1.84-.42 1.76.1-.03.21-.09.24-.43.25-.38 0-.79.17-1.17.47-.27.22-.22.26.34.29.47.03.54.06.67.33.41.85-1.24 1.82-2.21 1.3Z"/></svg>