<svg xmlns="http://www.w3.org/2000/svg" width="51" height="51" viewBox="0 0 51 51"><path fill="#fff" fill-rule="evenodd" stroke="#fff" stroke-width=".414" d="M.83 51.01c-.4-.25-.83-.92-.83-1.28.01-.24.05-.2.31.29.54 1.05.41 1.05 3.42.03 1.44-.48 2.65-.91 2.68-.94.09-.08-1.36-4.56-1.47-4.55-.05.01-1.16.32-2.47.69-2.09.6-2.67.71-2.44.49.03-.03 1.13-.37 2.43-.75 1.31-.38 2.39-.71 2.42-.74.06-.05-.98-3.37-1.1-3.5-.06-.06-.55.02-1.41.24-2.24.58-2.37.61-2.37.46 0-.08.6-.28 1.76-.56.97-.24 1.79-.46 1.84-.49.08-.05-.65-2.67-.79-2.82-.03-.04-.62.06-1.3.22-1.33.32-1.51.35-1.51.21 0-.05.6-.24 1.33-.41.72-.18 1.34-.34 1.36-.35.03-.03-.68-2.25-.74-2.33-.01-.01-.43.06-.94.18-1.08.24-1.01.23-1.01.07 0-.09.32-.19.94-.31l.94-.18-.13-.41c-.38-1.2-.49-1.52-.51-1.55-.01-.02-.28.02-.59.08-.56.12-.82.07-.56-.1.08-.04.34-.11.58-.15.52-.08.52-.03.04-1.4-.29-.85-.42-1.09-.54-1.07-.2.03-.23-.16-.03-.24.12-.04.12-.12 0-.51-.25-.84-.15-1.18.11-.38.27.83.24.82 1.55.56 1.23-.23 1.11-.09 1.1-1.27-.01-.55-.01-1.25-.02-1.56 0-.42-.04-.58-.14-.58-.17 0-2.21.29-2.52.35-.14.04-.22.01-.22-.08 0-.1.41-.2 1.51-.35 1.47-.21 1.51-.22 1.93-.59l.43-.37-.79-1.31c-.98-1.59-.81-1.45-1.58-1.34-1.47.19-1.5.19-1.5.05 0-.09.28-.16.95-.23.53-.06.98-.13 1.01-.16.03-.02-.4-.83-.95-1.78C.1 18.73-.2 18 .08 18c.04 0 .05-.33.01-.72-.04-.4-.08-1.16-.08-1.69L0 14.62l.42-.05c.24-.04 1.08-.09 1.88-.12 2.02-.09 1.84.04 1.76-1.29-.03-.61-.09-1.4-.13-1.75l-.06-.63-1.94.07C.7 10.9 0 10.89 0 10.82c0-.13.86-.22 2.32-.22 1.7 0 1.55.16 1.41-1.53-.06-.78-.12-1.59-.12-1.79L3.6 6.9H1.8C.67 6.9 0 6.86 0 6.8s.66-.1 1.79-.1h1.8l-.05-.32c-.03-.18-.11-1-.17-1.83l-.12-1.5-1.15-.06C1.47 2.95.74 2.92.48 2.91c-.29 0-.48-.06-.48-.12 0-.09.42-.1 1.6-.05l1.6.07-.01-.28c0-.15-.06-.79-.13-1.4-.11-1-.09-1.31.08-1.05.03.05.11.67.17 1.39l.12 1.31 1.89.07c1.04.04 1.91.05 1.94.03.02-.03-.03-.67-.11-1.43C7.01.18 7.01-.12 7.16.02c.03.03.12.68.2 1.44.09.77.17 1.4.19 1.42.01.01.8.06 1.75.09l1.73.06-.07-1.51c-.04-.9-.03-1.52.02-1.52.11 0 .22.97.22 1.99 0 1.1-.08 1.05 1.86 1.1l1.66.03-.06-.68C14.5.54 14.48 0 14.58 0s.14.26.29 2.2l.08.95 1.62.03 1.62.02-.04-.62C18.01.59 18.01 0 18.14 0c.1 0 .13.29.15 1.18.02.64.06 1.37.1 1.62l.06.45 1.49.03 1.49.03-.07-1.53c-.04-.84-.08-1.53-.09-1.54S20.6.17 19.8.12c-1.31-.09-1.14-.1 1.67-.07 1.72.02 3.16.05 3.2.08.27.15 2.63.18 2.63.03 0-.09.04-.16.1-.16s.1.06.1.14c0 .33 2.63.41 2.68.08.05-.3.22-.28.22.03 0 .23.03.25.53.25.28 0 .82.03 1.19.07l.68.06V.31c0-.17.04-.31.1-.31s.1.13.1.3c0 .22.05.3.18.31.09.01.61.04 1.15.08l.97.06V.38c0-.21.04-.38.1-.38s.1.16.1.35c0 .42-.01.42 1.23.49l.97.06V.45c0-.25.04-.45.1-.45s.1.2.1.44v.43l.53.07c.28.03.78.06 1.1.06h.57V.5c0-.27.05-.5.1-.5.06 0 .1.25.1.55v.55h.64c.35 0 .77.03.94.06l.31.06.07-.61c.09-.8.29-.82.21-.02l-.05.58.67.07c1.29.12 1.21.15 1.21-.59 0-.37.04-.65.1-.65s.1.28.1.64c0 .73.05.76 1.21.76h.59V.7c0-.4.04-.7.1-.7s.1.32.1.75v.75h1.7v-.44c0-.57.1-1.06.22-1.06.06 0 .07.31.02.79l-.06.79.77.04c.92.04.85.1.85-.72 0-.6-.02-.68-.22-.78-.23-.1-.22-.11.05-.11.68-.02 1.37.77 1.37 1.56v.38l-.49-.03-.48-.04-.06.39c-.26 1.54-.09 2.03.71 2.03.17 0 .32.05.32.1 0 .06-.24.1-.54.1h-.53l-.07.46c-.03.26-.06.78-.06 1.15v.69h.6c.33 0 .6.04.6.1s-.26.1-.59.1h-.58l-.07.61c-.03.34-.06.84-.06 1.1v.49h.65c.37 0 .65.04.65.1s-.28.1-.64.1h-.63l-.07.61c-.03.34-.06.87-.06 1.17v.55l.7-.05c.5-.04.7-.02.67.06-.02.06-.32.12-.69.14l-.66.03-.06.37c-.03.2-.06.66-.06 1.02v.65l.77-.03c1.53-.07.57.15-1.42.32-2.76.23-2.76.23-2.55.56.11.18 1.01.16 3.13-.06 1.33-.14 1.7-.14 1.56.01-.03.02-.61.1-1.29.18l-1.25.13 1.28.08c.76.05 1.27.12 1.27.18 0 .07-.31.09-.92.04-2.27-.16-3.53-.18-3.43-.07.06.06.85.15 1.8.21 2.17.14 2.55.19 2.55.31 0 .06-.31.08-.84.03-1.04-.08-1.51 0-1.22.22.11.08.38.14.6.14 1.47 0 2.1.42.86.56-.33.04-.6.1-.6.14s.27.1.6.14c.69.08.81.26.18.27-1.05.01-1.29.15-.4.24.51.05.82.12.82.19 0 .09-.22.1-.86.03-.89-.09-1-.07-.91.16.03.09.28.17.64.21.87.1 1.13.16 1.13.28 0 .06-.15.07-.37.04-1.32-.2-1.33-.2-1.33.02 0 .2.79.42 1.48.42.43 0 .21.19-.36.3-1 .2-1.05.22-.91.3.07.05.43.11.81.15.75.08.88.21.31.31-.21.03-.65.12-.97.18l-.6.12.97.18c1.04.19 1.26.38.6.51-.21.03-.6.11-.88.17l-.5.11.83.23c1.22.33 1.22.42-.01.64-.99.18-.99.22.03.49 1.2.31 1.23.5.1.76-.94.21-.94.24.04.55.42.13.76.29.76.36 0 .09-.32.02-1.03-.22-1.36-.47-2.37-.38-2.37.21 0 .32.03.34.58.53l.59.2 1.04-.24c1.22-.27 1.19-.27 1.19-.15 0 .05-.35.17-.77.27-1.07.24-1.07.28-.09.6.48.16.86.34.86.41 0 .1-.06.1-.27.02-1.7-.66-1.9-.7-2.61-.56l-.67.14-.03.39-.03.39.69.24c.75.26.75.26 2.35-.13.42-.11.57-.11.54-.03-.02.07-.38.21-.8.32-.95.24-.95.25.03.59.44.16.8.32.8.37 0 .14-.14.11-1.17-.27l-.97-.37-1 .24c-.56.12-1.12.31-1.25.41s-.31.18-.4.18.48.27 1.27.6l1.43.6.92-.25c1-.27 1.17-.3 1.17-.16 0 .05-.37.19-.82.31-.46.12-.84.23-.86.25-.01.01.36.17.83.35s.85.39.85.46c0 .09-.34-.01-1.06-.31l-1.05-.43-1.71.44c-.95.25-1.73.46-1.75.47-.01.02.77.39 1.75.83l1.77.81.94-.29c1.04-.31 1.11-.32 1.11-.18 0 .05-.33.19-.72.31-.99.29-1 .31-.08.7.44.19.8.39.8.46 0 .13-.09.09-1.45-.51l-.6-.27-2.03.57c-1.11.32-1.99.61-1.95.65.05.04.98.52 2.07 1.07l1.99 1 .95-.34c.52-.19.97-.32 1-.3.11.12-.15.27-.89.51l-.8.27.78.4c.84.43 1 .54.9.64-.03.03-.48-.17-.99-.44l-.93-.51-2.38.77c-1.3.42-2.37.79-2.37.82 0 .08 4.65 2.8 4.78 2.8.07 0 .51-.16.99-.35s.88-.33.91-.31c.1.11-.13.26-.79.52-.92.36-.92.35.01.89.44.26.8.51.8.56 0 .15-.08.11-.98-.43-1.07-.63-.67-.69-3.9.55l-2.73 1.04 2.9 2.07 2.9 2.06.77-.35c.42-.19.83-.35.9-.35.32 0 .09.19-.63.51l-.77.35.77.54c.42.29.77.58.77.63 0 .14-.22.03-1-.53l-.73-.52-.59.25c-.32.14-1.89.86-3.48 1.58l-2.89 1.33.66.6c.36.33.61.62.54.64-.06.02-.39-.21-.73-.52-.76-.67-.52-.67-2.05-.01-.71.32-1.38.55-1.52.53-.18-.02.17-.21 1.23-.68 1.16-.51 1.44-.66 1.33-.75-.08-.06-1.31-1.12-2.73-2.35-2.02-1.76-2.63-2.25-2.83-2.24-.14.01-1.89.64-3.87 1.41l-3.62 1.39 1.39 1.59c.77.87 1.39 1.6 1.39 1.62 0 .22-.48-.24-1.6-1.52-.74-.85-1.41-1.55-1.48-1.55s-1.99.7-4.28 1.55c-3.04 1.14-4.27 1.55-4.59 1.55h-.44l-1.25-2.08c-.68-1.15-1.35-2.27-1.5-2.5l-.25-.4-1.08.34c-2.4.76-8.34 2.72-8.38 2.76-.03.02.09.44.25.93.35 1.04.34.95.17.95-.09 0-.24-.35-.41-.9-.15-.49-.31-.9-.35-.9-.05 0-1.2.38-2.57.85s-2.56.88-2.64.91c-.08.02-.29-.04-.47-.15Zm22.8-1.37c2.16-.8 4.11-1.52 4.35-1.61.23-.09.42-.19.42-.24 0-.09-3.36-3.96-3.64-4.18-.17-.14-8.21 2.42-8.14 2.6.14.33 2.93 4.89 3 4.89.05 0 1.86-.66 4.01-1.46Zm21.86-1.35c1.68-.78 3.19-1.46 3.34-1.51.15-.06.27-.14.25-.18-.03-.07-3.18-2.34-5.04-3.63l-.72-.49-.93.35c-3.78 1.43-5.41 2.06-5.46 2.11-.07.06.41.5 3.16 2.9 1.18 1.02 2.19 1.86 2.24 1.86s1.48-.64 3.16-1.41Zm-34.11-.75c2.46-.8 4.55-1.48 4.65-1.52.14-.06-1.71-3.44-2.19-4.01-.02-.02-1.73.46-3.81 1.07s-3.99 1.16-4.25 1.23c-.52.12-.52.13-.39.55.06.16.37 1.16.71 2.22.33 1.05.66 1.92.71 1.92.06 0 2.12-.66 4.57-1.46Zm19.32-.55c1.02-.39 2.7-1.03 3.74-1.42l1.89-.72-.89-.81-.88-.81-.8.01c-1.24.01-1.69-.36-1.92-1.54-.1-.46-.18-.46-1.81.05-2.43.76-4.87 1.57-4.96 1.64-.04.04.65.9 1.53 1.91.89 1.01 1.71 1.96 1.83 2.11.29.37.16.39 2.27-.42Zm-10.2-2.44c2.12-.7 3.87-1.29 3.89-1.31.09-.08-2.82-3.34-2.98-3.34-.21 0-7.19 1.94-7.27 2.02-.02.03.4.8.95 1.71s1.07 1.8 1.16 1.97c.09.18.22.3.28.27.07-.02 1.85-.61 3.97-1.32Zm19.31-1.01c1.67-.64 3.07-1.19 3.11-1.22.04-.04-.96-.8-2.21-1.69l-2.27-1.62-.8.25-.81.24-.06.93c-.11 1.73-.56 2.57-1.46 2.72l-.43.07.78.74c.98.91.56.95 4.15-.42Zm-33.31.31c.69-.2 2.31-.67 3.6-1.05s2.63-.77 2.97-.87l.62-.18-.85-1.45c-.47-.8-.89-1.51-.93-1.58-.08-.13-.09-.13-7.54 1.79-.21.06-.35.14-.32.18.02.05.28.82.56 1.72.48 1.54.57 1.79.63 1.79.01 0 .58-.16 1.26-.35Zm21.13-1.59c1.44-.47 2.95-.95 3.35-1.07.84-.25.86-.31.28-.88l-.44-.43-.43.29c-.74.49-2.46.44-6.22-.18-1.73-.28-2.37-.35-2.37-.23 0 .18 2.94 3.45 3.06 3.4.08-.03 1.33-.44 2.77-.9Zm6.21.57c.04-.04-.03-.15-.16-.25l-.23-.19.28.13c.23.1.3.09.38-.03.13-.21.11-.39-.05-.39-.07 0-.19-.07-.26-.15-.11-.14-.1-.14.15-.05.22.08.3.08.37-.02.16-.25.07-.39-.34-.58l-.43-.2.47.06c.73.1.68-.43-.05-.61-.15-.04-.26-.09-.23-.12.02-.02.2 0 .4.05.31.09.36.08.41-.09.09-.27 0-.36-.4-.43-.5-.1-.46-.3.05-.22.39.06.4.06.4-.24 0-.16-.01-.3-.02-.3-.02 0-.21-.07-.43-.16l-.4-.15.43.06c.61.08.65-.45.05-.62l-.38-.1.38-.02c.61-.02.48-.5-.2-.71-.26-.09-.25-.09.12-.07.68.03.61-.45-.1-.72-.29-.11-.28-.11.13-.06.37.05.42.03.42-.14 0-.37-.12-.51-.41-.51-.16 0-.29-.04-.29-.09 0-.04.11-.06.25-.03.4.07.34-.35-.07-.53l-.33-.14.33-.01c.25 0 .32-.04.32-.2s-.07-.2-.32-.21l-.33-.01.27-.11c.39-.15.36-.44-.04-.56l-.33-.09.28-.01c.35-.01.34-.34-.01-.39-.28-.04-.29-.22-.01-.22.29 0 .21-.33-.11-.4-.21-.05-.22-.07-.07-.13.09-.03.17-.13.17-.22 0-.08-.08-.15-.17-.15-.14 0-.15-.02-.04-.09.2-.13.04-.31-.27-.31l-.27-.01.24-.13c.18-.1.2-.15.11-.21-.2-.13-.62.44-.56.75.03.14.12.56.2.95.65 3.06.54 7.6-.22 9.08-.08.15.78.44.92.3Zm1.85-.27c.33-.21.31-.44-.05-.44-.19 0-.38-.03-.41-.06-.04-.03.08-.06.25-.06.29 0 .62-.21.62-.41 0-.05-.11-.09-.24-.09a.54.54 0 0 1-.36-.15c-.11-.13-.08-.13.2-.04.35.13.47.06.52-.31.02-.18-.02-.26-.17-.28-.24-.05-.45-.21-.45-.34 0-.05.07-.02.16.06.22.23.54.21.54-.03 0-.11.03-.26.06-.34.04-.11-.04-.17-.25-.22-.16-.03-.35-.14-.42-.23-.11-.14-.11-.15.01-.04.34.29.7.15.7-.28 0-.37-.02-.4-.29-.4-.16 0-.35-.07-.42-.17-.13-.15-.12-.15.09-.04.12.07.32.09.42.06.23-.07.27-.45.06-.45-.07 0-.19-.07-.26-.15-.08-.09-.09-.15-.02-.15.06 0 .14.05.17.1.12.19.25.1.25-.16 0-.23-.03-.25-.24-.2-.14.03-.28.01-.34-.07-.09-.1-.04-.12.23-.09.33.04.35.03.35-.28 0-.3-.02-.31-.3-.25-.16.04-.3.04-.3 0 0-.03.14-.11.3-.16.4-.14.46-.78.08-.8l-.23-.02.23-.04c.14-.03.22-.12.22-.24 0-.24-.36-.26-.68-.03-.13.09-.22.11-.22.04 0-.06.21-.2.46-.31.32-.15.44-.25.4-.36a1 1 0 0 1-.06-.24c0-.05-.24-.1-.53-.1l-.52-.02.52-.1c.55-.1.6-.17.43-.61-.09-.24-.13-.25-.55-.19q-.45.06-.45-.06c0-.06.18-.11.46-.11.45 0 .45 0 .42-.32s-.04-.33-.51-.32c-.55 0-.49-.16.06-.18.49-.02.51-.32.05-.52-.29-.13-.3-.14-.1-.15.49-.02.21-.36-.33-.4l-.5-.05.5-.05.5-.06-.21-.21c-.11-.11-.18-.26-.16-.32.02-.08-.12-.13-.45-.14-.44-.01-.45-.02-.1-.05.48-.05.33-.33-.17-.33-.6 0-.69.17-.46.79 1.04 2.73 1.36 9.13.56 11.06-.09.21-.16.39-.16.4 0 .05.97-.22 1.09-.29Zm10.47-1.43 2.82-1.08-2.42-1.43-2.41-1.43-.55.15c-1.26.36-4.65 1.53-4.69 1.61-.03.08 4.22 3.22 4.38 3.24.03.01 1.32-.47 2.87-1.06Zm-28.6-.47c1.87-.53 3.47-.96 3.56-.96.51 0 .06-.19-.79-.34-.54-.1-2.08-.44-3.42-.78l-2.44-.6-1.16.27c-.64.15-1.17.28-1.19.3-.09.08 1.82 3.16 1.93 3.11.07-.02 1.65-.48 3.51-1ZM8.1 39.29c1.95-.5 3.57-.93 3.58-.94.02-.02-.2-.38-.49-.79l-.53-.76-.97-.32-.98-.32-2.78.63c-1.53.35-2.8.65-2.82.67s.15.67.39 1.45l.44 1.41.3-.06c.17-.04 1.91-.47 3.86-.97Zm22.13.48c.9-.68 1.6-2.77 1.87-5.57.22-2.21.64-3.16 2-4.42 1.49-1.39 2.48-1.72 3.15-1.05.68.68.78 2.75.2 4.14-.08.2-.15.4-.15.44 0 .15.52-.17.85-.51l.3-.31v-2.82c0-1.9.07-3.55.19-5.04.19-2.19.19-2.23 0-2.44-.19-.22-.19-.22.03-.1.4.2.42.38.27 2.11-.08.91-.17 2.89-.21 4.4l-.06 2.75 2.24-2.12c1.23-1.16 2.53-2.41 2.89-2.77l.64-.66.04-.7.04-.71-.58.26c-2.3 1.02-3.51 2-4.48 3.64-.57.98-.71 1.01-.23.05.83-1.65 1.56-2.31 3.71-3.4l1.41-.7.03-.9c.06-1.6-.08-3.39-.24-3.22-.12.11-.12.21-.04.42.05.15.1.35.09.44-.01.11-.03.09-.07-.06-.08-.26-.09-.27-.59-.06-.66.28-1 .29-1.08.05-.09-.3.08-.47.68-.66.94-.3 1.07-.37 1.07-.57 0-.1-.06-.21-.14-.24-.19-.07-.3-.38-.61-1.74-.24-1.06-1.26-5.01-1.31-5.08-.08-.12-2.56.66-2.71.86-.08.09-.13.45-.13.85 0 .97.24.88.28-.11.02-.4.04-.72.05-.72s.49-.13 1.07-.3c.58-.16 1.12-.3 1.21-.3.17 0 .88 2.45 1.29 4.44.29 1.43.31 1.38-.44 1.72-.62.29-.63.3-.59.64.09.72-.28 1.15-1.14 1.31-.58.11-.66.19-.99.85-.18.37-.32.54-.45.54-.19 0-.36-.4-.25-.58.03-.06-.02-.08-.12-.05-.41.1-.42-.04-.3-4.28.11-3.87.13-4.05.33-4.24.39-.4 3.06-1.1 4.64-1.22l.84-.06-.29-.24c-.38-.31-.64-.28-2.84.32-2.69.74-2.47.71-4.53.52-3.21-.31-5.43-.4-9.72-.41-4.37-.01-4.74.02-5.15.34-.25.19-.24.2 4.01.2 7.07 0 11.56.33 11.99.87.31.4.14 6.8-.2 7.43-.26.48-1.3.45-6.45-.19-4.8-.59-7.39-.87-9.6-1.01-1.7-.11-2.94-.26-3.32-.41-.19-.07-.28-.04-.51.2-.21.23-.55.38-1.47.66-4.11 1.26-10.78 4.01-12.27 5.06-.33.24-.27.57.11.65.82.18 9 2.41 9.52 2.59 1.51.54 12.58 2.42 12.77 2.17.2-.26.13-.28-4.28-.96-5.73-.89-7.83-1.26-7.98-1.41-.08-.08 0-.07 4.58.62 3.57.53 7.8 1.2 7.97 1.25.05.02.52-.36 1.04-.83.51-.48 2.22-1.94 3.79-3.25s3.23-2.71 3.7-3.11c.49-.43.87-.68.89-.61.06.18-.88 1.03-4.59 4.15-1.84 1.54-3.6 3.06-3.9 3.37l-.54.56.44.45c.54.55.37.64 1.6-.84 1.65-1.99 2.85-3.3 3.88-4.25.53-.48 1.41-1.29 1.94-1.78.9-.82 1.46-1.23 1.56-1.13.04.04-1.24 1.27-3.17 3.06-1.16 1.06-3.56 3.7-4.59 5.02l-.45.59.18.59.18.59.25-.38c.41-.62.47-.61.12.02l-.32.6.17 1.29.18 1.29.31-.06c.91-.19 1.06-.19 1.26-.01.37.34.21 1.12-.32 1.62-.8.75-6.67.31-12.49-.92l-.25-.06-.1 1.08c-.06.59-.09 1.1-.08 1.11.06.09 3.63.75 6.04 1.11 4.75.73 5.78.78 6.43.28Zm10.86-1.87c1.35-.45 2.53-.83 2.61-.86.09-.03-.06-.16-.4-.36-.3-.17-1.19-.68-1.97-1.14s-1.5-.84-1.6-.84c-.51 0-2.98.78-2.97.94 0 .09.01.56.02 1.04l.02.88.77.57c.94.7.59.72 3.52-.23Zm-23.53-.68c.14-1.14.25-1.03-1.24-1.32-.64-.12-1.79-.4-2.55-.61-.75-.22-1.38-.39-1.4-.39-.01 0-.01.45.01.99l.03 1 .62.2c1.6.52 4.28 1.21 4.37 1.14.03-.03.1-.48.16-1.01Zm-11.83-.63c1.3-.29 2.37-.56 2.37-.6 0-.03-.35-.16-.77-.29-1.29-.38-1.8-.64-2.05-1.05-.18-.32-.25-.36-.52-.33-.41.06-2.5.5-2.55.54-.04.03.57 1.9.71 2.17.06.11.17.17.27.14.1-.02 1.24-.28 2.54-.58Zm24.47.45c.87-.35.95-1.48.09-1.24-.18.06-.91.1-1.61.1H27.4v.62l1.55-.03c.85-.02 1.55-.03 1.55-.02s-.1.08-.22.15c-.22.12-.54.14-3.94.21-.87.02-1.08-.11-.99-.59.09-.52-.28-.67-2.45-.99-5.78-.84-10.73-1.99-15.35-3.54-1.21-.41-1.42-.41-1.18-.01.09.16.31.34.48.39.84.27 4.23 1.26 6 1.75 2.56.71 10.21 2.16 11.62 2.2l.53.01v.35c0 .72.17.76 3 .77 1.38.01 1.93-.02 2.2-.13Zm-5.4-.11c-.01-.43-.11-.5-.98-.63-1.28-.18-6.14-1.05-7.87-1.4-1.87-.38-8.02-2.07-9.28-2.56-.13-.04-.17-.01-.17.14 0 .24.32.35 5.01 1.76 3.77 1.13 3.87 1.15 12.04 2.6.95.16 1.25.19 1.25.09Zm-12.74-2.08c-.02-.07-.33-.2-.68-.3-.34-.09-1.69-.5-2.98-.9s-2.63-.81-2.98-.91c-.71-.19-1.12-.46-1.12-.75 0-.31-.17-.22-.22.12-.04.26.02.38.37.73.23.22.59.67.79.98.44.7.18.56 3.26 1.72 1.4.52 2.78 1.04 3.05 1.15l.5.19.03-.96c.01-.52.01-1.01-.02-1.07Zm34.46 1.28 2.38-.77-2.02-1.03c-1.11-.57-2.1-1.03-2.2-1.03-.16 0-4.49 1.18-4.56 1.24-.01.02.73.47 1.65 1.01.93.54 1.82 1.06 1.98 1.16s.32.19.35.19 1.12-.34 2.42-.77Zm-19.25-.63c.87-.53 1.09-2.22.42-3.23-.93-1.41-2.95-1.23-3.47.32-.61 1.78 1.54 3.83 3.05 2.91Zm1.76-.27c-.25-1.85-.44-2.78-.63-3.17-.27-.53-1.13-1.41-1.29-1.32-.2.13-.11.32.34.7 1.05.87 1.37 2.75.64 3.78-.27.37-.26.38.4.38h.6zm-3.55-.12c-1.62-1.03-1.3-3.51.45-3.51 1.36 0 2.23 1.25 1.83 2.64-.33 1.12-1.3 1.49-2.28.87Zm12.68-.28 1.34-.37-.74-.43c-.73-.42-.75-.42-1.1-.28-.19.08-.54.15-.76.15-.35 0-.41.03-.36.18.03.09.08.38.12.65.03.26.08.47.11.47s.65-.17 1.39-.37Zm-11.31.05c.97-.76.52-2.61-.69-2.83-.47-.09-1.1.19-1.31.59-.66 1.22.98 3.05 2 2.24Zm-2.65-.08c-.06-.11-.13-.2-.15-.2-.03 0-1.3-.21-2.83-.46-5.64-.93-6.11-1.04-11.93-2.79-1.35-.4-2.34-.65-2.45-.61-.29.11-.06.23 1.51.72 5.12 1.61 8 2.28 13.9 3.23 2.25.36 2.08.35 1.95.11Zm-20.66-.48c1.53-.33 1.53-.33.82-1.11-.31-.34-.56-.7-.56-.82 0-.15-.05-.19-.18-.15-.09.03-.6.12-1.12.22-.52.09-.97.18-.99.2-.05.05.6 1.94.67 1.94.04-.01.65-.13 1.36-.28Zm37.92-.42c.82-.22 1.8-.5 2.19-.62l.7-.2-.5-.26c-1.02-.52-3.02-1.4-3.34-1.47s-2.31 1.68-2.31 2.02c0 .12 1.53 1.02 1.66.98.06-.02.78-.22 1.6-.45Zm-17.56.31c0-.14-.06-.15-3.61-.75-4.62-.79-5.89-1.07-8.31-1.85-1.17-.38-2.62-.83-3.23-1-.6-.17-1.25-.35-1.42-.4-.26-.08-.33-.07-.33.04 0 .08.08.16.18.19.09.02 1.77.52 3.73 1.11 4.28 1.27 4.8 1.39 9.26 2.14 3.92.67 3.73.64 3.73.52Zm5.79-.44c-.57-.47-.41-.81.6-1.32.45-.22.87-.07.76.28-.04.12-.09.37-.12.55-.09.54-.83.84-1.24.49Zm-5.94-.16c-.06-.05-1-.25-2.1-.45-7-1.22-9.55-1.81-10.15-2.32-.09-.07-1.03-.36-2.1-.64s-2.03-.53-2.12-.56c-.11-.03-.18 0-.18.08s.56.29 1.58.57c.86.24 2.45.73 3.54 1.07 2.6.84 3.2.97 8.38 1.88 2.49.44 3.32.54 3.15.37Zm13.23-.56c.97-2.13.44-4.54-.92-4.12-.96.31-.97.32-.49 1.28.22.46.58 1.35.78 1.97.41 1.19.45 1.26.63.87Zm-13.3.03c-.03-.08-.79-.25-1.94-.45-4.32-.76-5.99-1.06-7.77-1.45-1.04-.22-1.91-.38-1.93-.35-.15.15 3.67 1 7.76 1.72 1.73.31 3.22.57 3.3.59.36.08.61.05.58-.06Zm23.04-.65c1.09-.31 1.95-.6 1.91-.64-.05-.04-.84-.41-1.76-.83l-1.69-.76-2.09.53-2.09.53 1.38.62c.75.35 1.57.74 1.82.87s.47.24.49.25c.03 0 .94-.26 2.03-.57Zm-22.92.12c0-.08-.04-.15-.09-.15-.15 0-3.94-.65-6.76-1.16-2.63-.48-6.42-1.31-8.58-1.9-1.49-.4-1.37-.38-1.37-.19 0 .08.02.15.06.15.03 0 .73.18 1.57.41.84.22 2.17.53 2.97.69s1.83.38 2.3.48c.97.23 9.05 1.71 9.83 1.81.04.01.07-.06.07-.14Zm-21-.4c1.05-.19 1.05-.19 1.14-.57.05-.21-.01-.35-.28-.67-.19-.22-.42-.61-.52-.86-.2-.52-.18-.52-1.52-.26-1.15.22-1.09.13-.74 1.18.5 1.47.5 1.46.75 1.4.12-.03.65-.13 1.17-.22ZM24 32c0-.05-.03-.1-.07-.1-.63 0-9.81-1.71-11.33-2.11-.63-.17-1.82-.48-2.65-.69-.83-.22-1.88-.51-2.34-.65-.47-.14-.86-.25-.88-.25-.4 0 .45.52 1.2.73C12.47 30.2 24 32.41 24 32Zm15.79-.88c.53-.54 1.78-1.76 2.79-2.71 1.39-1.32 1.82-1.79 1.82-1.97 0-.24-.01-.23-.31.11-.17.19-1.06 1.06-1.98 1.92-2.84 2.68-3.41 3.25-3.41 3.44 0 .31.09.24 1.09-.79Zm-16.05.21c-.38-.07-2.15-.37-3.94-.68-4.51-.77-5.1-.89-6.78-1.36-6.64-1.83-6.87-1.89-6.57-1.6.42.41 7.01 2.09 11 2.8 5.79 1.04 6.69 1.18 6.84 1.07.11-.08-.02-.14-.55-.23ZM6.1 31.02c.99-.99.64-3-.64-3.62-1.04-.5-1.88-.14-2.16.91-.49 1.83 1.63 3.88 2.8 2.71ZM4.86 31c-1.04-.32-1.73-2.13-1.13-3.01.84-1.25 2.67-.27 2.67 1.43-.01 1.22-.63 1.85-1.54 1.58Zm19.82.05c-.03-.03-1.31-.28-2.84-.55-1.54-.28-3.49-.65-4.34-.84s-1.73-.38-1.95-.42c-.22-.03-1.39-.35-2.6-.69-1.21-.35-3.66-1.02-5.45-1.5-1.79-.47-3.31-.88-3.38-.91-.08-.02-.16-.13-.19-.24-.15-.57-.73.23-.73 1.01 0 .71.01.71.34.14.23-.39.31-.45.6-.45.49 0 5.73 1.35 8.72 2.25 2.87.87 12.23 2.6 11.82 2.2Zm18.04-.46c1.15-.28 2.08-.52 2.06-.54s-.53-.25-1.14-.53l-1.12-.49-1.03 1.03c-.57.57-1 1.04-.95 1.04s1.03-.23 2.18-.51Zm-11.62.38c0-.13.4-.87 1.08-2.02 1.08-1.82 3.32-3.75 5.17-4.45.46-.18.25-.02-.74.54-2.24 1.27-3.33 2.37-4.88 4.96-.35.57-.63 1.01-.63.97ZM5.63 30.4c.67-.79.34-2.17-.6-2.5-.57-.19-.92-.06-1.16.43-.58 1.18.97 3.01 1.76 2.07Zm41.4-.89c.87-.23 1.61-.41 1.65-.41.17-.01-2.75-1.19-2.95-1.2-.46 0-2.68.6-2.86.78-.19.2 2.04 1.36 2.43 1.27.08-.02.86-.22 1.73-.44Zm-32.32-2.06c1.22-1.77 4.34-3.95 7.46-5.2 1.43-.58 1.18-.4-.82.59-2.77 1.38-4.93 2.86-6.34 4.35-.24.25-.38.37-.3.26ZM11.4 25.2c1.59-1.43 5.3-3.29 8.05-4.05 1.66-.45 1.94-.45.45.01-2.5.77-5.32 2.09-7.55 3.53-1 .65-1.27.8-.95.51Zm34.61-.84c.53-.48.57-.55.63-1.08.09-.72.14-.73-.94.19l-.9.77v1.18l.32-.28c.18-.15.58-.5.89-.78Zm-40.27-.23 1.53-.76-.31-.36c-.17-.19-.47-.52-.66-.73l-.35-.38-1.68.19c-.93.11-1.71.21-1.74.24-.07.08 1.46 2.57 1.58 2.57.05 0 .78-.35 1.63-.77Zm40.16-1.16c.92-.81 1.05-.97 1.46-1.79.67-1.34.92-1.15.71.52l-.07.55.24-.5c.12-.27.4-1.01.61-1.63l.39-1.13-.12-1.19c-.18-1.8-.14-1.75-1.5-1.83l-.72-.04v.28c0 .24-.18.44-1.2 1.28-2.06 1.72-2.08 1.49-.02-.31 1.21-1.06 1.21-.73.04-3.12l-.87-1.78-.9.06c-1.3.08-1.55.14-1.55.39 0 .19.01.19.13.04.17-.23 1.38-.35 1.72-.17.28.15.77 1.05 1.33 2.45.63 1.57.7 1.37-1.01 2.74-.65.53-.78.73-.57.86.06.04.08.11.04.16-.03.06.06.27.2.47.28.41.45 1.55.46 3 0 .39.03.72.06.72.33 0 1.77-1.53 2.13-2.25.45-.91.5-.91.2-.03-.26.79-.36.91-1.47 1.89-.69.61-.92.87-.92 1.06 0 .33.03.31 1.2-.7Zm4.15.26c.95-.21.95-.23-.22-.56-1.16-.33-1.23-.33-1.57-.06-.14.11-.3.17-.36.14s-.1.04-.1.18c0 .43 1.02.57 2.25.3Zm-41.69-.32c.49-.21 1.11-.48 1.38-.6.52-.23.5-.42-.07-.72-.18-.1-2.98.16-3.24.3-.09.05.9 1.41 1.03 1.41.01 0 .41-.18.9-.39Zm26.34-.77c-3.55-.66-10.17-1.41-14.12-1.6-1.37-.07-1.53-.18-.38-.27 1.97-.15 11.36.89 14.35 1.6 1.7.4 1.8.57.15.27Zm-29.48-.39.57-.07-.57-.67c-.31-.37-1-1.17-1.52-1.79l-.95-1.12-.75.06c-.41.04-1.01.09-1.33.13l-.57.06 1.1 1.86 1.1 1.85 1.17-.12c.65-.07 1.44-.16 1.75-.19Zm35.57-1.45c.16-.19.32-.32.36-.28s-.02.17-.14.29c-.27.29-.27.42.02.34.86-.24 1.12-.92.54-1.45-.24-.23-.85-.27-1.2-.09-.45.24-.54.74-.12.63.31-.08.35.2.05.36-.11.06-.17.16-.14.22.05.07.15.01.29-.16.13-.17.25-.24.29-.18.03.06.02.13-.03.16s-.23.31-.4.61c-.19.34-.36.53-.43.49s-.08-.03-.04.05c.04.06.01.23-.08.36s-.16.3-.16.37.2-.21.45-.62c.24-.41.57-.91.74-1.1ZM7.88 21.44l1.44-.18-.73-.65c-.41-.36-1.23-1.13-1.84-1.7l-1.1-1.04-1.1.07c-1.75.11-1.72-.03-.33 1.6 1.64 1.91 1.89 2.17 2.08 2.12.08-.03.8-.13 1.58-.22Zm3.62-.37 1.15-.12-1.2-.89c-.66-.49-1.64-1.25-2.18-1.68l-.98-.79-1.01.11c-.55.05-1.1.1-1.22.1-.18.01-.14.07.25.43.25.23 1.07.99 1.82 1.7 1.57 1.45 1.28 1.35 3.37 1.14Zm2.68-.37c.48-.17.93-.33 1.01-.36.08-.02-.79-.66-2.05-1.5l-2.19-1.45-1 .07c-.55.03-1.06.1-1.13.14-.19.1 4.09 3.4 4.4 3.4.05 0 .49-.14.96-.3Zm23.47.07c.07-.09.15-.61.19-1.15.03-.53.09-1.21.12-1.5l.06-.52h-1.24c-1.22 0-2.18-.06-5.18-.34-1.22-.11-1.33-.14-.7-.15.41 0 1.58.06 2.6.14s2.44.15 3.16.15h1.31l.07-.71c.09-.87.4-.74-2.24-.94-3.35-.26-4.91-.12-8.26.76-1.7.44-1.71.45-1.78.21-.04-.12.09-.87.28-1.69.49-2.1.49-2.1.38-1.93-.41.63-1.05 3.79-1.06 5.2l-.01 1.45 1.6.17c1.94.21 8.32.97 8.6 1.03.56.1 1.98-.02 2.1-.18Zm-21.15-.85.84-.28-.8-.49c-.43-.26-1.32-.82-1.96-1.23l-1.18-.74-1.07.09-1.07.08 2.14 1.42c1.18.78 2.17 1.42 2.2 1.43.03 0 .44-.13.9-.28Zm23.02-2.27c-.04-2.22-.06-2.56-.16-2.44-.16.18-.15 4.9.01 4.87.17-.03.18-.2.15-2.43ZM25 19.09c0-.53-.02-.6-.17-.55-2.62.74-3.41.88-1.3.23.67-.21 1.28-.4 1.35-.42.07-.03.12-.21.12-.45v-.41l-.38.07c-.52.1-3.28.88-4.42 1.26-1.17.39-1.08.43 1.03.58.83.06 1.9.15 2.37.19 1.54.15 1.4.2 1.4-.5Zm-7.17-.01c.25-.39.26-.43.1-.52s-.15-.11.07-.16l.25-.07-.3-.17c-2.27-1.29-2.18-1.27-3.73-1.08l-.53.07 1.88 1.17c2.22 1.37 1.93 1.27 2.26.76Zm12.67.24c-.01-1.22 1.85-2 3.53-1.47.75.23.83.37.11.19-.3-.08-.83-.14-1.17-.12l-.62.03-.17.75-.18.75.05-.72c.02-.4 0-.73-.04-.73-.23 0-1.08.7-1.28 1.05-.13.22-.23.34-.23.27Zm10.91-.59c.64.2.65.19.52-.4-.15-.64-.09-.65.12-.05l.18.49.35-.1c.19-.06.37-.18.4-.26.06-.15-.26-1.92-.39-2.12-.07-.11-1.27-.27-2.16-.28L40 16v2.88l.44-.16c.41-.15.49-.15.97.01Zm-37.52-.98.54-.07-.06-.71c-.04-.4-.09-1.1-.13-1.56l-.07-.84-1.16.07c-.64.03-1.55.09-2.03.12-1.03.08-.96-.11-.73 1.84.08.69.15 1.3.15 1.36 0 .09 1.75-.01 3.49-.21Zm14.71-.07c0-.04-.04-.08-.1-.08-.18 0-.11-.17.12-.27.21-.09.2-.1-.14-.31-.5-.31-2.56-.28-2.11.03 1.23.84 2.23 1.12 2.23.63Zm26.36-.85c.11-.39-.01-.5-.62-.56-.32-.03-.6-.04-.63-.02-.04.04.12.91.25 1.38.07.22.9-.45 1-.8Zm-38.13.66 1.49-.13-.06-.6c-.03-.34-.08-1.01-.12-1.5l-.07-.88-1.56.06c-2.25.1-2.15.06-2.07.75.03.31.08 1 .12 1.55l.07.98.36-.05c.2-.03 1.03-.11 1.84-.18Zm17.2-.28c.08-.08.07-.11-.03-.11-.08 0-.44-.14-.78-.3-.99-.46-2.19-.32-1.65.2.33.33 2.19.48 2.46.21Zm-13.43-.04 1.35-.12-.02-.55c-.01-.3-.05-.95-.09-1.44l-.06-.89-1.67.08c-1.99.08-1.84-.04-1.71 1.36.05.63.1 1.26.1 1.42 0 .32-.01.32 2.1.14Zm3.13-.28c.67-.05 1.33-.12 1.46-.15l.24-.05-.07-1.37c-.04-.75-.08-1.37-.09-1.38s-.75.03-1.65.09l-1.63.11.06.8c.13 1.89.16 2.06.32 2.06.08 0 .7-.05 1.36-.11Zm4.12-.37.9-.07-.03-.75c-.01-.41-.05-1.04-.09-1.39l-.06-.63-.56.06c-.31.03-1 .08-1.53.12l-.98.07.06 1.16c.08 1.73.03 1.63.77 1.55.34-.03 1.02-.09 1.52-.12ZM20.21 15l.76-1.35-.36-.03c-.2-.02-.68-.01-1.07.03l-.71.06.04 1.02c.08 2.19.23 2.22 1.34.27Zm.66 1.3c.3 0 .32-.02.43-.57.06-.32.2-.92.3-1.33.26-1 .24-.99-.66.52-.95 1.6-.92 1.53-.63 1.45.13-.04.38-.07.56-.07Zm3.31-.25c.02-.02-.39-.63-.91-1.35l-.96-1.31-.1.38c-.16.59-.51 2.21-.51 2.34 0 .11 2.38.05 2.48-.06Zm.57-1.32c-.09-1.67.02-1.53-1.07-1.53-1.31 0-1.31-.04-.2 1.48 1.28 1.76 1.36 1.76 1.27.05Zm.74.01c.18-.7.3-1.28.29-1.29-.02-.01-.22-.05-.45-.09l-.43-.06v.43c0 .82.13 2.27.2 2.27.04 0 .22-.57.39-1.26Zm1.95.99c.17-.05.18-.13.12-.96-.03-.49-.06-1.07-.06-1.29 0-.47-.65-.61-.75-.15-.02.12-.18.75-.33 1.4l-.28 1.19.55-.07c.31-.03.65-.09.75-.12Zm1.43-.18c.35-.05.43-.11.52-.37.19-.55.17-.58-.55-.58-.36 0-.74-.05-.85-.1-.18-.1-.19-.07-.19.56v.66l.32-.05c.18-.03.52-.09.75-.12Zm1.86 0c.26-.03.47-.09.47-.13-.02-.59-.71-2.27-.94-2.3-.21-.03-.26.01-.26.17 0 .12.07.21.15.21.35 0 .33.99-.03 1.15-.23.1-.26.16-.37.74-.07.32-.06.33.21.28.16-.03.5-.09.77-.12Zm11.67-.04c0-.05-.03-.23-.06-.41l-.07-.32-.56.07c-1.38.16-1.82.27-1.79.44.03.16.14.17 2.16.29.17.01.32-.02.32-.07Zm-9.32-.16c.02-.02-.06-.18-.17-.36-.12-.19-.28-.66-.37-1.05-.18-.81-.21-.84-1.11-.84h-.52l.15.52c.09.29.24.83.35 1.19l.19.66.73-.05c.39-.02.73-.06.75-.07Zm2.1-1.11.03-.81-.38-.07c-.98-.16-1.94-.08-1.88.17.03.12.1.44.15.72.17.78.3.86 1.24.83l.81-.03zm2.31.7.61-.07v-.48c0-.63-.17-.74-1.35-.88-1.47-.18-1.35-.24-1.35.69v.8h.74c.4 0 1.01-.03 1.35-.06Zm3.67-.26.96-.11-.06-.31c-.17-.84-.27-1.07-.44-1.02-.09.03-.52.15-.94.27l-.78.22v.54c0 .61-.1.58 1.26.41Zm2.9-.24c.21-.06.22-.08.09-.57-.08-.29-.17-.65-.2-.81-.06-.28-.08-.28-.56-.24-.61.06-.61.06-.49.49.05.19.14.53.2.77.11.44.34.53.96.36Zm-14.01-.39v-.3h-1.9l-.03.27c-.04.31.15.36 1.28.34l.65-.01zm-22.57.09.63-.06-.05-.37c-.03-.2-.08-.88-.11-1.51-.09-1.71.13-1.54-1.97-1.48-.98.03-1.81.08-1.84.1-.04.05.11 2.18.22 3.07l.06.43 1.21-.06c.67-.04 1.5-.09 1.85-.12Zm40.04-.03c.03-.03.09-.51.13-1.06l.07-1-.8.03-.79.03-.07.46c-.18 1.36 0 1.74.81 1.66.32-.03.61-.08.65-.12Zm-36.49-.17.79-.06-.06-.47c-.03-.25-.08-.99-.12-1.63l-.06-1.18h-1.27c-.69 0-1.49.03-1.76.06l-.51.06.08.97c.05.53.11 1.29.14 1.69l.06.74.96-.06c.54-.04 1.32-.09 1.75-.12Zm38.39-.02c.03-.04.08-.49.1-1l.03-.92H47.9v.38c0 .2-.03.68-.07 1.06l-.06.69.79-.08c.43-.04.82-.1.86-.13Zm-35.1-.18.98-.06-.05-.51c-.03-.29-.07-1-.11-1.59l-.06-1.08h-3.31l.07 1.03c.04.56.09 1.33.13 1.7l.06.69.66-.06c.36-.03 1.1-.08 1.63-.12Zm3.16-.2 1.13-.07-.07-1.51c-.03-.83-.09-1.53-.13-1.56-.03-.03-.75-.04-1.59-.02l-1.53.03.06.92c.03.51.08 1.25.11 1.65l.06.74.41-.06c.23-.03.93-.08 1.55-.12Zm3.1-.2c1-.11 1.39-1.16 1.03-2.78l-.06-.28-1.4.01c-.76.01-1.41.04-1.43.06s-.01.71.03 1.54l.08 1.51h.57c.31 0 .85-.03 1.18-.06Zm20.77-1.43c1.82-.48 2.25-.61 1.99-.61-.05 0-.62-.07-1.27-.15-4.2-.52-12.36-.31-16.77.45l-1.05.18 2.55.01c3.93.02 9.3.31 11.2.61.82.13 1.17.08 3.35-.49Zm-17.8-.27 1.15-.28V10.2h-1.38c-1.65 0-1.48-.13-1.44 1.09l.03 1.01.25-.19c.13-.1.76-.32 1.39-.47Zm22.15.26c.17 0 .19-.11.22-1.15l.03-1.15H44.2v.79c0 .75.01.79.24.85.13.03.37.21.52.4.16.19.35.33.42.3.08-.02.22-.04.32-.04Zm1.97-.13c.02-.03.07-.55.1-1.16l.06-1.11h-1.6l-.07.31c-.03.17-.06.72-.06 1.22v.9l.76-.06c.42-.03.78-.08.81-.1Zm1.88-.09c.01-.01.05-.51.07-1.1l.05-1.08H48v.69c0 .37-.03.9-.07 1.16l-.06.48.82-.06c.45-.03.84-.07.86-.09Zm-23.3-.57 1.2-.17.03-.42.03-.42h-1.08c-1.52 0-1.53.01-1.53.66 0 .3.03.54.08.53.04 0 .61-.08 1.27-.18ZM44 10.35V9.6h-.72c-1.13 0-1.18.03-1.18.65v.52l.88.15c.48.08.9.16.95.17.04 0 .07-.33.07-.74Zm-14.27.39c.46-.06.47-.07.47-.41s-.01-.35-.31-.29c-.17.03-.74.06-1.25.06h-.94v.82l.78-.07c.42-.03.98-.08 1.25-.11Zm12.17-.49V9.7H40v.89l.53.05c.45.05.79.09 1.25.15.08.01.12-.16.12-.54Zm-9.18.21c.27-.4.12-.46-1.12-.46h-1.2v.69l1.13-.06c.64-.03 1.15-.11 1.19-.17Zm2.48-.27V9.9h-.77c-1.18 0-1.53.08-1.53.35 0 .31-.03.3 1.19.27l1.11-.03zm4.6-.05v-.46l-.31.06c-.17.03-.65.06-1.05.06h-.74v.34c0 .39.05.41 1.42.44l.68.02zm-32.45.29.48-.06-.07-.96c-.03-.53-.09-1.31-.12-1.73l-.07-.78H5.69c-1.45 0-1.89.03-1.89.13 0 .25.21 2.83.26 3.15l.05.32h1.38c.76 0 1.6-.03 1.86-.07Zm30.15-.29v-.37l-.77.07c-.42.03-.89.06-1.05.06-.24 0-.28.04-.28.3v.3h2.1zm-26.6.19.63-.06-.07-1.31c-.04-.72-.1-1.48-.13-1.68l-.06-.38h-3.5l.06.63c.04.34.09 1.13.13 1.75l.07 1.12h1.12c.62 0 1.4-.03 1.75-.07Zm4.16-.16c.04-.05-.16-3.1-.2-3.14-.09-.09-3.23-.16-3.28-.07-.03.07.16 3.15.21 3.33.01.04 3.24-.08 3.27-.12Zm2.3-.03 1.11-.07-.04-.91c-.02-.5-.06-1.19-.09-1.54L18.28 7h-3.17l.05.88c.03.48.07 1.2.1 1.59l.06.73h.46c.26 0 .97-.03 1.58-.06Zm3.17-.11 1.07-.06v-.81c0-.45-.03-1.11-.07-1.48L21.47 7h-2.93l.03.73c.02.39.06 1.09.09 1.55l.06.82h.37c.21 0 .86-.03 1.44-.07Zm3.46-.09.61-.07V7h-2.93l.07.38c.03.2.06.88.06 1.5V10h.79c.43 0 1.06-.03 1.4-.06Zm3.47-.56c-.03-.29-.06-.95-.06-1.45V7h-2.6v2.9h2.73zm2.02.42h.72V7h-2.63l.07.77c.03.42.06 1.07.06 1.46v.7l.53-.07c.28-.03.85-.06 1.25-.06Zm3.08-.08c.06-.04.14-.62.18-1.39L32.81 7H30.4v2.8h1.03c.56 0 1.07-.04 1.13-.08Zm2.64-1.37V7H33v2.7h2.2zm2.27 1.21c.01-.01.05-.59.09-1.29L37.63 7H35.4v2.65l1.02-.03c.57-.02 1.04-.05 1.05-.06Zm2.3-.1s.04-.56.08-1.24L39.93 7h-2.12l-.03 1.26c-.02.69-.01 1.28.02 1.31.04.04 1.92-.06 1.97-.11Zm2.01-.02c.21-.06.22-.1.22-1.25V7h-1.9v.64c0 .34-.03.91-.06 1.25l-.07.61h.79c.43 0 .89-.03 1.02-.06Zm2.25-.72c.04-.37.07-.91.07-1.19V7h-1.9v2.4h1.77zm1.64.58h.32l.03-1.15.03-1.15h-1.73l-.04 1.12c-.05 1.37-.07 1.32.56 1.24.28-.03.65-.06.83-.06Zm2.17-.31c.03-.17.06-.69.06-1.15V7h-1.57l-.07.31c-.03.17-.06.69-.06 1.15v.84h1.58zm1.81.19c.01-.02.05-.51.08-1.1L49.78 7H48.1v.93c0 .5-.03 1.03-.07 1.16l-.06.24.83-.06c.46-.04.84-.08.85-.09ZM23.37 6.7h1.25l-.07-1.47c-.04-.82-.09-1.5-.11-1.52s-.66-.06-1.43-.09l-1.41-.05.06 1.49c.06 1.69.08 1.78.3 1.7.09-.03.72-.06 1.41-.06Zm4.01-1.41.03-1.46-.32-.07c-.17-.03-.79-.06-1.37-.06h-1.05l.07.46c.03.26.06.93.06 1.5v1.03l1.08.04c.59.02 1.16.03 1.27.03.19-.01.2-.09.23-1.47Zm7.82.58c0-.45.03-1.06.06-1.34l.06-.53h-.33c-.19 0-.71-.03-1.16-.07L33 3.87v2.88l1.1-.03 1.1-.03zm2.38-.44.03-1.3-.32-.07c-.17-.03-.64-.06-1.04-.06h-.73l-.04 1.33c-.06 1.61-.18 1.44 1.04 1.42l1.03-.02zm2.26 1.29c.02-.04.06-.64.07-1.32l.02-1.25-1-.03-1-.03-.07.47c-.03.26-.06.87-.06 1.35v.89h.99c.55 0 1.02-.04 1.05-.08Zm2.2-.29c.03-.21.06-.8.06-1.31V4.2h-1.87l-.07.46c-.03.26-.06.84-.06 1.3v.84h1.87zm2.09-.85c.08-1.44.13-1.38-1-1.38h-.82l-.03 1.26c-.04 1.49-.14 1.34.92 1.34h.87zm1.95-.05.03-1.23H44.4v.33c0 .19-.03.75-.07 1.26l-.06.92.89-.03.89-.03zM48 5.6c.03-.63.06-1.16.05-1.17 0-.01-.38-.03-.85-.05l-.85-.03-.03 1.23-.03 1.23.83-.03.83-.03zm1.73 1.13c.03-.05.06-.57.08-1.18l.04-1.1-.76-.03-.76-.03-.07.47c-.03.26-.06.8-.06 1.2v.74h.74c.41 0 .77-.03.79-.07Zm-42.18-.5c-.03-.27-.1-1.04-.15-1.72-.11-1.52.09-1.38-2.07-1.43L3.5 3.04v.29c0 .37.19 2.63.26 3.05l.05.32h3.8zm3.71-.2c-.03-.38-.09-1.14-.12-1.69l-.07-1.02-.45-.06c-.25-.03-1.05-.06-1.79-.06H7.48l.06.38c.03.2.08.73.11 1.17s.08 1.06.11 1.37l.06.58h3.51zm3.6-.35c-.04-.57-.09-1.3-.12-1.64l-.05-.61-.82-.07c-.45-.03-1.22-.06-1.71-.06h-.89l.06.78c.04.42.09 1.19.13 1.7l.07.92h3.39zm3.39-.56c-.04-.86-.09-1.58-.1-1.6-.02-.02-.76-.06-1.64-.09l-1.62-.06.05.49c.03.27.08 1.02.12 1.67l.06 1.17h3.2zm3.21.06c-.04-.84-.1-1.55-.12-1.58-.03-.03-.71-.07-1.51-.08l-1.46-.04.06 1.08c.04.59.07 1.31.07 1.61v.53h3.03zm8.74.07V3.8h-2.6v2.9h2.6zm2.6.05V3.9h-1.04c-.57 0-1.11-.03-1.2-.06-.14-.05-.16.11-.16 1.4V6.7h2.4zm15.33-2.27c.06-1.4.18-1.21-.86-1.29l-.87-.07v2.42l.68.04c.37.02.74.04.83.05.14.02.17-.15.22-1.15Zm1.79.05c.06-1.34.17-1.17-.74-1.24l-.75-.07-.06.69c-.04.38-.07.93-.07 1.22v.52h1.57zm-3.72-.17c0-1.37.05-1.31-1.06-1.31h-.61l-.06.67c-.18 1.83-.18 1.83.9 1.83h.83zm-4.06.71c.03-.2.06-.78.06-1.28v-.91l-.61-.07c-1.43-.14-1.39-.19-1.39 1.55v.98l.48.04c1.4.11 1.39.11 1.46-.31Zm2.08-.79c.06-1.4.14-1.29-.94-1.36l-.88-.05v1.07c0 .58-.03 1.16-.06 1.29-.06.22-.05.22.89.22h.94zM40 2.6V1.31l-.32-.05c-.18-.03-.66-.07-1.06-.09l-.72-.04V3.9H40zm-4.72-.21.03-1.36-.53-.06C34.49.93 33.97.9 33.62.9H33v2.79l.93.04c.5.02 1.01.03 1.12.03.19-.01.2-.09.23-1.37Zm2.42.06V1.1h-.33c-.19 0-.68-.03-1.1-.06L35.5.97V3.8h2.2zm-4.9-.2V.8h-.43c-.24 0-.78-.03-1.2-.06L30.4.67v2.92l.68.04c.37.02.91.04 1.19.05l.53.02zm-2.6-.09V.73l-.52-.07c-.29-.03-.9-.06-1.35-.06h-.83v.84c0 1.31.1 2.04.29 2.09.09.03.67.05 1.29.06l1.12.01zm-5.7-.2V.42l-.62-.06c-.35-.03-1.02-.07-1.5-.1l-.87-.05.06 1.52c.03.84.08 1.54.1 1.57.03.03.66.07 1.41.11.75.03 1.38.06 1.4.07.01.01.02-.67.02-1.52Zm2.8.04V.5h-.53c-.3 0-.88-.03-1.3-.06L24.7.37v1.5c0 1.79-.14 1.63 1.37 1.63h1.23z"/></svg>