<svg xmlns="http://www.w3.org/2000/svg" width="51" height="51" viewBox="0 0 51 51"><path fill="#fff" fill-rule="evenodd" stroke="#fff" stroke-width=".8" d="M24 40.64c-4.38-.56-8.25-2.87-10.83-6.46-2.61-3.65-3.36-8.84-1.92-13.33 1.68-5.22 6.3-9.2 11.73-10.1 1.41-.24 4.66-.16 5.92.13 8.8 2.06 13.84 11.06 10.97 19.57-1.7 5.04-6.02 8.83-11.32 9.95-.98.2-3.69.35-4.55.24Zm3.35-.25c9.31-1.13 15.32-10.57 12.39-19.47-3.18-9.62-14.99-13.3-23.15-7.2-6.15 4.59-7.73 13.59-3.51 19.98 2.43 3.68 6.44 6.14 10.97 6.73.65.09 2.45.06 3.3-.04Z"/></svg>