<svg xmlns="http://www.w3.org/2000/svg" width="51" height="51" viewBox="0 0 51 51"><path fill="#fff" fill-rule="evenodd" stroke="#fff" stroke-width=".46" d="M24.95 43.87c-.22-.08-.74-.32-1.15-.55-1.18-.65-1.51-.73-3.05-.81-2.17-.11-2.92-.56-4.07-2.44-.65-1.05-.9-1.28-2.07-1.94-1.61-.9-2.12-1.79-2.36-4.11-.12-1.14-.19-1.44-.5-2.15-.96-2.14-.9-1.94-.9-3.07v-1.05l.49-.95c.7-1.36.76-1.6.85-3.11.12-2.02.57-2.82 2.21-3.92 1.05-.69 1.42-1.08 2.16-2.2 1.09-1.63 1.9-2.1 3.97-2.27 1.52-.13 1.38-.09 2.87-.8 2.14-1.02 3.05-1.03 5.09-.04l1.16.56 1.35.08c2.34.14 3.34.73 4.32 2.5.58 1.06.59 1.01-.19 1.84-1.94 2.06-2.99 5.55-2.38 7.89.08.32.15.66.15.76s.13.42.3.72l.3.54v-.55c0-.94.05-1.01.59-.98l.46.03.03 1.72.02 1.72.86.8c.86.8 1.8 1.37 3.16 1.9.6.24.78.22.78-.1 0-.11.17-.61.38-1.12.37-.92.37-.92.37-2.42.01-1.26.04-1.61.23-2.19.39-1.21.19-1.87-.78-2.64-1.52-1.19-1.56-1.27-1.25-2.42.39-1.46.14-2.4-.97-3.55-.79-.83-.94-1.15-.66-1.43.19-.19.35-.15.95.24 1.6 1.02 2.36 2.54 2.04 4.05-.15.69-.49 1.39-.67 1.39-.19 0-.18-.05.14-.69.75-1.53.16-3.25-1.5-4.38-1.06-.72-1.14-.46-.16.54 1.24 1.28 1.51 2.18 1.13 3.83-.21.92-.16 1.18.26 1.49.18.13.29.19.26.14-.04-.06.07-.28.24-.49 1.48-1.83 1.26-4.02-.56-5.72-.8-.75-.85-.82-.56-.82.28 0 1.64 1.48 1.95 2.12.74 1.51.5 3.36-.6 4.57l-.37.42.65.59c1 .91 1.17 1.5.76 2.76-.19.58-.22.93-.23 2.19v1.5l-.4.95c-.27.66-.38 1.07-.37 1.35.07 1.3.06 1.39-.28 2.03-.39.74-.93 1.24-2.06 1.93-.93.56-1.28.92-1.74 1.77-.94 1.76-2.11 2.44-4.47 2.6l-1.2.08-1.44.69c-1.59.76-2.58.93-3.54.62Zm3.37-.84c1.36-.69 1.82-.82 2.78-.83 2.04-.01 3.28-.74 4.29-2.5.57-.98.8-1.22 1.76-1.8 1.51-.91 2.35-1.95 2.35-2.91v-.37l-1.07-.41c-1.45-.56-2.26-1.06-3.26-2.01-.66-.62-.91-.8-1.14-.8-.38 0-.53-.16-.53-.57 0-.44.23-.53.56-.23l.24.23V28.1h-.25c-.25 0-.25.01-.25.9 0 1.1-.13 1.17-.63.33-.29-.51-.37-.58-.68-.61l-.34-.03-.02 1.27c-.01 1.42-.03 1.46-.68 1.42l-.4-.03v-3.7l.43-.03c.32-.02.44.01.48.13.06.14.09.14.29-.05s.21-.25.12-.78c-.39-2.42.73-5.77 2.62-7.75l.55-.58-.34-.66c-.9-1.75-1.98-2.41-4.07-2.53-1.49-.09-1.74-.15-3.02-.8-1.65-.83-2.72-.79-4.72.22-1.17.59-1.19.59-2.41.69-2.32.19-3.1.6-4.16 2.19-.81 1.21-1.08 1.49-2.13 2.2-1.75 1.19-2.16 1.93-2.28 4.12l-.08 1.36-.62 1.29c-.94 1.97-.93 2.43.1 4.7.58 1.28.6 1.36.7 2.5.19 2.35.65 3.11 2.54 4.21.94.54 1.13.74 1.88 1.89 1.17 1.8 1.72 2.13 3.82 2.24 1.55.08 1.76.14 3.21.87 1.31.66 1.17.62 2.21.59.9-.03.94-.04 2.15-.64Zm-4.02-4.14c-.64-.27-1.01-.91-.59-1.04l.21-.07-.23-.24c-.98-1.04-.18-3.09 1.15-2.9.52.07.53.07.99 0 .63-.1.67-.01.67 1.6-.01 2.4-.15 2.69-1.27 2.73-.38.02-.79-.02-.93-.08Zm1.1-.34c0-.09-.14-.16-.37-.2-.21-.04-.48-.1-.61-.16-.4-.16-.67-.12-.51.08.32.38 1.49.61 1.49.28Zm.61-.12c.1-.12.15-.61.18-1.85l.03-1.68h-.25c-.24 0-.24.02-.29.95-.07 1.25-.41 1.76-.98 1.45-.84-.45-.56-2 .36-2 .38 0 .44-.14.15-.3-1.3-.69-2.29 1.49-1.14 2.5.4.35.53.36 1.12.1.24-.11.45-.2.47-.2s.04.27.04.6c0 .62.07.72.31.43Zm-7.28-.5c-.21-.08-.18-4.29.03-4.37.82-.31.94-.08.94 1.81V37h.78c.94 0 1.26.26.94.78-.08.12-2.4.25-2.69.15Zm12.37-.11c-.44-.21-.59-.62-.59-1.59-.01-.63-.04-.72-.21-.78-.32-.1-.19-.85.15-.85.09 0 .15-.13.17-.37.03-.38.03-.38.48-.38.43 0 .46.02.56.35.06.19.19.36.28.38.25.05.22.79-.04.87-.32.1-.3 1.52.03 1.57.31.04.35.5.08.77-.26.26-.45.26-.91.03Zm-9.2-1.51V34.7l.25-.06c.13-.03.37-.02.52.03l.28.1v3.08l-.52.03-.53.03zm4.96 1.28c-.08-.41-.08-2.35 0-3.32l.07-.77h.47c.54 0 .6.07.6.75v.43l.38-.05c1.08-.15 1.52.45 1.52 2.1v1.17h-1.1v-.89c0-1.14-.09-1.41-.5-1.41H28v.99c0 1.29-.01 1.31-.6 1.31-.45 0-.48-.01-.54-.31Zm-7.46-1.85v-1.95l-.28.03-.27.03-.02 1.8c-.01 2.07-.02 2.05.32 2.05h.25zm1.78 1.74c.03-.16-.06-.18-.72-.18-.7 0-.76.02-.76.2 0 .29 1.43.26 1.48-.02Zm1.52-1.13V35h-.6v1.28c0 1.38.01 1.42.37 1.42.23 0 .23 0 .23-1.35Zm6.89 1.26c.17-.11.1-1.85-.08-2.2-.21-.39-.91-.62-1.35-.45-.3.12-.18.34.19.34.52 0 .68.32.73 1.46.05.98.12 1.1.51.85Zm2.29-.13c.02-.11-.05-.18-.2-.2-.23-.03-.23-.05-.26-1.6l-.03-1.58h-.24c-.22 0-.25.04-.25.4s-.02.4-.25.4c-.3 0-.33.2-.05.27.18.05.2.14.2.89 0 .89.11 1.31.38 1.52.23.17.66.11.7-.1ZM27.7 35.7v-1.9h-.6v3.8h.6zm-2.41 1.04c.06-.14.11-.45.11-.69 0-.44 0-.45-.34-.45-.49 0-.75.45-.55.99.2.53.57.61.78.15Zm-3.27-2.4a.478.478 0 0 1-.04-.77c.55-.5 1.34.21.82.73-.24.24-.48.25-.78.04Zm.62-.3c.09-.23-.11-.43-.34-.37-.19.05-.27.33-.13.46.12.13.41.07.47-.09Zm-5.18-2.72c-.09-.11-.38-.69-.65-1.31l-.48-1.11.05 1.03c.06 1.33-.01 1.49-.66 1.45l-.47-.03-.08-.65c-.13-1.03-.01-3.68.18-3.86.08-.09.15-.19.15-.24 0-.13.57-.32.78-.26.21.07.43.49 1.07 2.01.21.49.41.93.45.98.04.04.33-.54.65-1.3.68-1.59.83-1.78 1.32-1.7.65.11.64.05.61 2.66l-.03 2.36h-1l-.08-.7c-.05-.38-.06-.92-.04-1.2l.04-.5-.15.35c-.08.19-.28.62-.43.94-.16.32-.29.7-.29.83 0 .39-.65.57-.94.25Zm11 .08c-1.46-.18-1.94-2.37-.76-3.44.84-.76 2.19-.45 2.67.6.5 1.1.37 1.23-1.4 1.39l-.69.07.23.24c.28.3.37.3.79-.01s1.2-.36 1.2-.07c0 .76-.98 1.35-2.04 1.22Zm-14.69-.07c-.04-.03-.07-.87-.07-1.85V27.7h.54c.67 0 .66-.03.66 1.85 0 1.85 0 1.85-.59 1.85-.26 0-.51-.03-.54-.07Zm7.44-.19c-1.02-.86-.43-1.98 1.11-2.13l.68-.06-.15-.22c-.21-.29-.37-.29-.83.02-.59.4-1.23.26-1.07-.24.36-1.13 2.47-1.25 2.99-.17.2.43.23 2.75.04 2.94-.17.17-.87.15-.94-.03-.05-.13-.08-.13-.27 0-.36.25-1.2.2-1.56-.11Zm4.24.04c-.41-.32-.55-.76-.55-1.72 0-.75-.02-.84-.2-.89-.41-.11-.38-.81.05-.97.17-.07.25-.17.25-.34 0-.43.1-.56.45-.56.56 0 .65.08.65.56 0 .42.01.44.24.38.54-.13.63.75.09.91l-.33.09v1.62l.35.17c.37.18.49.59.23.85-.2.2-.92.15-1.23-.1Zm10.38-.03c-.61-.26-.83-1.2-.4-1.7.19-.23.36-.29 1.05-.38.86-.11.97-.2.61-.53-.2-.18-.21-.18-.69.09-.79.44-1.21.31-.95-.3.43-1.01 2.19-1.01 2.71 0 .24.45.21 2.66-.03 2.84-.17.13-.63.07-.74-.09-.03-.05-.22-.02-.42.07-.44.18-.72.18-1.14 0Zm3.14.09c-.09-.09-.1-4.26-.01-4.48.08-.2.67-.22.83-.02.08.09.11.79.09 2.32l-.03 2.19-.4.03c-.23.02-.44 0-.48-.04Zm-24.39-1.66.03-1.58h-.71v1.54c0 1.61.02 1.67.45 1.63.19-.02.2-.1.23-1.59Zm1.5.77c.03-.89-.09-1.84-.35-2.65l-.17-.55-.09 1.79c-.1 1.96-.05 2.3.36 2.24.2-.03.22-.09.25-.83Zm1.98.54c-.07-.36-1.49-3.71-1.71-4.06-.16-.24-.31-.28-.53-.14-.1.06-.05.25.23.87.2.43.59 1.33.87 1.99.6 1.45.72 1.65.99 1.65.19 0 .21-.04.15-.31Zm4.62.07c.11-.11.07-.14-.28-.19-.78-.1-.99-.7-.37-1.07.76-.47 1.17-.22 1.17.7v.7h.6v-1.2c0-1.53-.23-2-1-2-.27 0-.25.06.1.47.56.64.44.89-.46.95-.82.06-1.22.25-1.38.7-.27.76 1.04 1.52 1.62.94Zm3.8-.03c.03-.17-.03-.24-.23-.29-.38-.09-.45-.32-.45-1.38v-.95l.32-.03c.42-.04.5-.28.09-.28-.29 0-.31-.03-.31-.34 0-.76-.56-1.01-.62-.29-.02.3-.09.41-.3.51-.35.17-.37.42-.03.42h.25v1.08c0 1.2.09 1.44.64 1.68.41.18.6.14.64-.13Zm-6.3-1.91c.03-2.28-.01-2.45-.51-2.4-.61.06-1.97 3.68-1.38 3.68.05 0 .26-.42.48-.92.59-1.41.73-1.34.73.37v1.36l.33-.03.32-.03zm8.48 1.97c.03-.06-.08-.25-.25-.43-.6-.62-.5-.8.54-.89 1.28-.12 1.35-.14 1.35-.39 0-.37-.41-1.08-.71-1.23-.62-.33-.83-.07-.32.41.57.54.3.88-.66.82-.58-.04-.65-.28-.21-.82.37-.47.37-.56.04-.56-.62 0-1.23 1.08-1.09 1.95.11.77 1.04 1.57 1.31 1.14Zm1.22-.26c.35-.37.35-.38.12-.41-.25-.04-.65.21-.88.56-.27.41.34.29.76-.15Zm1.97-.04c.04-.23.04-.95 0-1.61l-.07-1.19-.27.03-.26.03-.03 1.58-.03 1.57h.3c.26 0 .3-.04.36-.41Zm5 .16c.2-.1.22-.13.07-.09-.64.16-1.14-.33-.87-.86.17-.34.33-.4.95-.4.56 0 .6.06.6.91 0 .51.03.59.19.59s.19-.11.25-.8c.13-1.46-.19-2.3-.89-2.3h-.27l.36.41c.59.64.5.92-.34 1.02-1.19.13-1.4.26-1.4.81 0 .7.66 1.04 1.35.71Zm2.75-1.9c0-1.98-.01-2.05-.2-2.05s-.2.07-.2 2.05.01 2.05.2 2.05.2-.07.2-2.05Zm-16.77 1.4c.17-.16.11-.55-.08-.55-.32 0-.75.23-.75.4 0 .31.57.41.83.15Zm14.21.05c.45-.17.36-.6-.12-.6-.53 0-.87.34-.57.56.22.17.35.17.69.04Zm-7.8-1.55c-.01-.26-.53-.41-.68-.2-.24.31-.19.36.27.33.23-.02.42-.07.41-.13Zm-7.33-.38c.39-.26.51-.57.21-.57-.23 0-.68.33-.82.61-.15.27.17.25.61-.04Zm14.29-.09c.36-.25.5-.48.28-.48-.23 0-.78.39-.78.55 0 .21.11.19.5-.07Zm-22.27-1c-.43-.21-.32-1.06.15-1.09.71-.05 1.04.5.57.96-.26.27-.38.29-.72.13Zm19.79-.1a.5.5 0 0 1-.12-.33c0-.46.69-.64.9-.24.24.43-.43.92-.78.57Zm-19.18-.3c.08-.14.07-.21-.06-.34-.3-.3-.75.09-.48.42.16.18.39.15.54-.08Zm9.71-14.37c-.44-.49-.03-2.87.76-4.41 1.33-2.61 3.57-4.21 6.91-4.94 1.45-.32.47 3.97-1.46 6.4-1.48 1.87-3.32 2.96-5.26 3.11-.68.05-.77.04-.95-.16Zm1.06-1.12c2.53-3.96 3.4-5.1 5.24-6.88.59-.57.99-1.01.89-.98-.11.03-.38.11-.6.16-2.39.62-4.72 2.6-5.75 4.88-.53 1.15-.94 3.38-.69 3.68.2.24.23.21.91-.86Zm1.3.7c2.9-.94 5.45-4.41 5.66-7.71.08-1.2.02-1.18-1.76.59-1.62 1.62-2.71 3.02-4.06 5.18-.49.77-1.01 1.6-1.18 1.84l-.3.44.5-.07c.28-.03.8-.16 1.14-.27Z"/></svg>