<svg xmlns="http://www.w3.org/2000/svg" width="51" height="51" viewBox="0 0 51 51"><path fill="#fff" fill-rule="evenodd" stroke="#fff" stroke-width=".735" d="M21.86 50.69c-6.38-.65-13.43-5.15-17.4-11.12-6.52-9.79-5.24-23.29 3.01-31.63C13.2 2.15 20.06-.24 28.75.51c9.36.8 18 7.91 21.04 17.3 1.91 5.9 1.53 12.89-.98 18.25l-.39.82.77.79c.86.88 1.3 1.58 1.69 2.65.35.95.45 4.01.17 5.1-.51 2.01-1.96 3.87-3.87 4.96l-.55.32h-3.37c-2.93 0-3.41-.02-3.69-.16-.61-.32-1.52-.98-2.1-1.53l-.58-.55-.42.17c-.23.09-.92.36-1.52.61-1.23.5-3.11 1.05-4.55 1.31-1.1.21-6.98.3-8.54.14Zm8.4-.32c1.81-.33 4.13-1.04 5.66-1.74l.77-.35-.28-.42c-2.56-3.72-1.29-9.29 2.65-11.6 2.67-1.57 5.8-1.53 8.44.1.4.24.74.43.75.42.13-.13 1.01-2.31 1.29-3.16C54.28 18.93 45.1 3.44 30.15.88c-1.96-.33-7.1-.33-8.98 0-6.38 1.14-11.91 4.6-15.89 9.93-6.04 8.1-6.33 20.1-.69 28.59 4.08 6.15 11.05 10.49 17.86 11.14 1.05.1 7.04-.03 7.81-.17Zm16.94-.23c2.76-1.81 3.84-3.78 3.85-6.99 0-3.24-1.09-5.14-3.91-6.75a7.852 7.852 0 0 0-11.65 5.25c-.72 3.46.5 6.33 3.51 8.3l.85.55h6.8zm-7.95-2.37c-.04-.13-.05-.48-.03-.78l.03-.54h8.3v1.5l-4.12.03-4.13.02zm8.13-.59.03-.58H39.4v.53c0 .3.03.57.07.6.04.04 1.82.06 3.97.05l3.91-.03zm-5.17-2.8c-1.36-1.54-2.03-2.43-1.99-2.65.03-.16.16-.18 1.01-.21l.97-.03v-1.44c0-1.7-.11-1.58 1.4-1.53l.95.03.03 1.48.03 1.47h.83c1 0 1.2.13.91.57-.3.46-1.35 1.83-2.03 2.66-.86 1.04-.87 1.04-2.11-.35Zm1.8.4c.75-.87 2.19-2.81 2.19-2.95 0-.1-.23-.13-.9-.13h-.9v-2.9h-2v2.9h-1c-.55 0-1 .03-1 .08.01.26 2.82 3.52 3.04 3.52.07 0 .33-.24.57-.52Zm-23.3-8.11c-.51-.2-1.06-.71-1.32-1.24l-.24-.48v-19.3l.3-.55c.43-.78 1.03-1.14 1.94-1.14.85-.01.59-.17 5.61 3.45 2.17 1.57 4.99 3.59 6.25 4.49 3.05 2.16 3.15 2.27 3.15 3.42-.01 1.13-.19 1.32-3.25 3.55-3.3 2.39-10.36 7.47-10.67 7.67-.35.23-1.32.3-1.77.13Zm1.41-.21c.2-.07.85-.49 1.45-.93.59-.44 2.77-2.01 4.83-3.5 3.92-2.82 6.12-4.41 6.93-5.02.64-.48.91-1.04.85-1.8-.07-.96-.22-1.12-3.12-3.18-2.99-2.13-6.13-4.39-8.66-6.23-2.15-1.56-2.29-1.64-3.02-1.64-.75.01-1.41.4-1.75 1.03l-.23.44v9.66c0 9.19.01 9.68.19 10.06.45.98 1.54 1.46 2.53 1.11Z"/></svg>