<svg xmlns="http://www.w3.org/2000/svg" width="51" height="51" viewBox="0 0 51 51"><path fill="#fff" fill-rule="evenodd" stroke="#fff" stroke-width=".261" d="M14.2 49.81v-1.38l-6.75.05-6.75.05V30.04c0-20.17-.03-18.99.56-20.16.36-.72 1.33-1.69 2.06-2.08 1.2-.64 1.1-.63 7.02-.67l5.4-.04.36-.29c1.17-.93 1.57-.99 5.91-1h3.67l.06-.26c.07-.26.08-.27.73-.21.6.04.89.19.77.38-.02.04 1.3.09 2.93.11 3.38.05 3.56.08 4.68.82l.65.44 5.17.04c5.55.05 5.72.07 6.75.59.81.41 1.75 1.47 2.07 2.32.16.43.06.32-.29-.29-.62-1.11-1.56-1.82-2.86-2.19-.57-.17-10.54-.37-10.54-.22 0 .03.15.28.34.56.66.98.79 1.48.84 3.27l.04 1.61 1.06.07c6.4.41 10.87 4.57 10.87 10.11 0 1.65-.27 2.82-1.51 6.7-1.33 4.12-1.24 4.75 1.1 8.4.69 1.07 1.39 2.2 1.56 2.52l.31.57-.03 4.52c-.03 4.35-.04 4.53-.23 4.74-.34.38-.64.48-.33.11.38-.44.4-.69.36-5.21-.03-4.55-.05-4.62-.78-5.05-.5-.29-12.64-.32-13.16-.03-.99.54-1.06.91-1.02 5.64l.03 3.79.28.47c.32.55.52.68 1.21.78l.51.08-.48.01c-.26 0-.63-.05-.82-.13-.32-.14-.34-.13-.37.07-.04.28-.74.38-.84.13-.11-.28.05-.65.3-.72.23-.05.23-.06.1-.51-.09-.3-.14-.96-.14-1.83v-1.37l-.56-.06c-.3-.03-.66-.13-.79-.21-.14-.09-.27-.16-.3-.16-.11 0-.04.58.1.88.14.28.14.34 0 .68l-.15.36-.65-.07-.65-.07v2.1l.58.07c.77.09 1.02.26 1.02.7 0 .24-.05.35-.15.35-.09 0-.15-.09-.15-.24 0-.13-.06-.28-.12-.34-.18-.14-.88-.2-.88-.07 0 .06-.03.06-.08-.01-.16-.25-1.12-.16-1.1.1.03.36 1.38.54 1.38.19 0-.13.05-.23.1-.23.06 0 .1.11.1.25 0 .17.05.25.18.25s.14-.02.03-.09c-.07-.05-.1-.14-.07-.2.12-.19.28-.12.24.12-.04.26-.56.34-1.37.19-.35-.06-.52-.06-.54.02-.08.19-.27-.08-.33-.46-.05-.28-.02-.4.15-.57.23-.23.33-2.23.11-2.36-.12-.08-.13-.98-.01-1.1.05-.06.11-.53.12-1.05l.04-.95h-.3c-.25 0-.3.05-.36.33-.11.52-.19.5-.19-.06s.15-.69.64-.56c.33.08.41-.72.08-.82-.92-.27-1.39-.89-1.56-2.05-.14-1.01-.34-1.14-.83-.54-.6.73-.68 1.69-.28 3.6.47 2.21.44 2.64-.25 4.5-.15.41-.23.84-.24 1.37-.01.55-.05.78-.13.78-.09 0-.13-.16-.13-.47 0-.43-.01-.45-.15-.27-.18.24.1-.81.57-2.11.41-1.15.42-2.08.05-3.75-.54-2.41-.32-3.64.73-4.17.19-.1.37-.21.38-.25.07-.16.41-.08.41.1.02 1.18.44 2.4.94 2.71.8.49.77.63 1.07-5.54.06-1.1.17-3.24.25-4.75.24-4.57.24-4.45-.04-4.45a.44.44 0 0 1-.35-.2c-.06-.1-.17-.25-.23-.33-.15-.15-.03-.45.23-.6.11-.06.13-.14.06-.33-.12-.31-.05-.49.19-.49.25 0 .25-.26-.01-.33-.14-.03-.2-.14-.2-.31 0-.31.23-.44.45-.26.13.1.15.08.15-.13 0-.17-.07-.28-.21-.32-.15-.05-.19-.12-.15-.28.03-.12.06-.26.06-.3s.16-.05.35-.01c.33.06.35.04.35-.19 0-.14.03-.32.06-.41.04-.11-.03-.15-.33-.18-.36-.03-.38-.05-.41-.41-.04-.53.12-.7.63-.65.37.05.42.02.68-.34.73-1.03 2.17-.79 2.17.38 0 .41-.05.51-.46.92-.5.52-.5.55-.18 1.85.4 1.57.32 1.98-.45 2.39-.58.32-.58.32-.71 6.53-.06 3.14-.15 6.98-.2 8.55-.09 3.41-.06 3.5 1.34 3.5H35v-2.28c0-3.08.23-3.76 1.38-4.1l.42-.13-.02-15.02-.03-15.02-.24-.6c-1-2.51-2.35-3.14-6.71-3.15-2.61 0-2.6 0-2.6.51 0 .36.18.57.21.24.03-.31.04-.35.12-.35h.17c.05 0 .09.03.08.08 0 .04.02.15.06.24s.03.25-.03.37c-.07.12-.08.29-.02.43.13.36.01.97-.21 1.12-.18.13-.19.19-.09.65.12.57.07.78-.2.86-.31.1-.48.55-.45 1.18.02.36-.02.64-.1.75-.1.12-.13.6-.14 1.72v1.56l.68-.04c1.32-.07 1.77.52 1.77 2.33 0 2.03-.71 2.76-2.26 2.33l-.26-.08-.07.9-.07.9.41.51c.26.33.4.61.4.8 0 .16.05.29.1.29.06 0 .1-.18.1-.4s-.05-.4-.11-.4c-.05 0-.07-.04-.04-.1.26-.42.57-.03.49.6-.12.93-.62.9-.9-.05-.21-.75-.43-.91-.36-.28.04.34.14.6.38.89.27.32.36.55.43 1.09.08.52.16.75.35.94l.26.25.38-.37c.4-.39.99-.5 1.42-.27.5.27.5 1.39 0 2.6-.46 1.13-.43 1.51.25 2.47q3.015 4.305.06 7.65c-1.62 1.83-5.77 1.7-7.57-.25-1.87-2.01-1.99-4.66-.33-7.19.68-1.02.74-1.57.35-2.87-.59-1.92-.11-3.39 1.31-3.98l.48-.2.02.71c.02.48-.01.66-.07.56-.15-.24-.11.35.09 1.15l.17.7.07-2.4c.04-1.32.1-2.95.13-3.62l.07-1.23h-.31c-.17 0-.34-.04-.37-.1-.04-.06.08-.1.29-.1.31 0 .36-.03.36-.24 0-.13.03-.31.06-.4.05-.13-.02-.16-.35-.16-.23 0-.41-.04-.41-.1s.18-.1.4-.1c.29 0 .4-.04.4-.15s-.11-.15-.4-.15c-.22 0-.4-.04-.4-.1s.18-.1.4-.1c.29 0 .4-.04.4-.15s-.11-.15-.4-.15H24l.02-1.57c.02-1.29.03-1.39.05-.52l.04 1.06.36.06c.2.04.39.05.41.02.11-.11.14-4.72.03-4.79-.06-.04-.11-.18-.11-.32 0-.15-.06-.24-.15-.24q-.15 0-.15.3c0 .4-.26.4-.33 0-.07-.34-.26-.41-.28-.1-.01.11-.02.26-.03.33-.02.24-.73.21-.87-.05-.11-.2-.13-.21-.18-.05-.1.28-.25.24-.32-.09l-.07-.29-.01.33c-.01.43-.31.45-.31.02 0-.38-.12-.38-.27 0-.12.33-.45.4-.85.19-.14-.08-.23-.08-.31 0-.45.45-1.15-.11-.91-.73.09-.23.8-.22.93.02.09.15.12.15.2.02.15-.22 1.65-.24 1.87-.03.13.14.17.14.25.02.06-.1.28-.14.75-.14h.67l.18-.54c.17-.48.17-.56.04-.71a.41.41 0 0 1-.09-.35c.1-.45-.13-.52-.53-.15l-.38.35.35-.38c.31-.35.39-.38.73-.34.3.04.36.03.27-.08-.13-.16-.02-.45.18-.45.13 0 .12-.03-.03-.2-.17-.18-.17-.21 0-.46.09-.14.15-.34.12-.45-.03-.1.04-.28.14-.4.51-.59.51-.59-3.13-.59-1.83 0-3.62.05-3.98.1-1.6.26-3 1.45-3.6 3.08l-.25.67-.03 10.18-.03 10.18.34.47c1.49 2.04 1.51 5.37.05 6.31l-.38.24v8.92l.32-.5c.97-1.54 1.06-2.28.5-4.15-.48-1.57-.38-2.67.25-2.95.12-.05.24-.17.26-.26.06-.21.47-.14.47.07 0 .08.04.14.1.14.05 0 .12.17.16.38.1.54.43 1.38.59 1.52.13.11.15-.46.15-4.51 0-2.55.03-5.54.07-6.64l.06-2-.46-.35c-.49-.37-.57-.59-.32-.84.08-.08.15-.26.15-.39 0-.14.07-.3.15-.37s.12-.16.09-.21c-.09-.15.06-.49.22-.49.12 0 .12-.04.04-.21-.09-.16-.08-.24.04-.38.09-.1.16-.32.16-.49 0-.22.06-.32.2-.37.11-.03.2-.15.2-.25 0-.29.11-.3.74-.09.44.15.61.17.72.08.07-.06.35-.09.63-.07.39.02.52-.01.6-.14.15-.24.96-.25 1.05-.02.3.79-.34 1.33-.98.83-.3-.24-.66-.18-.66.12 0 .14-.07.19-.25.19-.22 0-.25.04-.25.38.01.3.03.34.11.2.12-.21.35-.24.41-.05.08.2-.02.37-.22.37-.27 0-.35.64-.16 1.21.22.62.21.67-.26 1.09l-.43.38v2.78c0 5.8.11 9.68.28 10.01.09.16.21.59.27.95.11.61.37 1.08.6 1.08.3 0 .6-.27.78-.7.21-.5.42-.63.8-.49.47.17.52.76.2 2.15-.28 1.24-.21 1.61.71 3.54.91 1.89 1.18 3.14.9 4.13-.15.55-.42.51-.32-.05.23-1.26 0-2.25-.93-4.13-.75-1.53-.9-2.16-.75-3.15.16-1.01.12-1.06-.11-.15-.3 1.23-.23 1.76.46 3.12 1.15 2.31 1.54 4.73.76 4.73-.18 0-.18-.02-.03-.37.35-.84.03-2.15-1.04-4.32-.78-1.58-.83-1.97-.39-3.4.14-.47.26-.98.26-1.14 0-.39.11-.28.2.2l.08.38.01-.4c.02-1.08-.36-1.15-.59-.11s-.67 1.34-1.47 1.01c-.3-.13-.34-.13-.23-.01.08.11.1.48.04 1.4-.03.69-.03 1.33.01 1.43s.08.75.09 1.44c.01 1.06.04 1.3.18 1.46.54.6.14.87-1.14.78-1.36-.1-1.39-.11-1.38-.88.01-.34.01-1.14.01-1.77s.01-2.08.02-3.22l.02-2.08-.28-.11c-.52-.22-1.14-1.27-1.24-2.1-.06-.54-.18-.63-.33-.23-.17.44-.11 1.18.19 2.25.58 2.06.53 2.57-.44 4.29l-.64 1.14.01 1.05c.02 2.14-.02 3.31-.12 3.31-.06 0-.1-.53-.1-1.39Zm1.22.87c-.22-.29-.52-.76-.66-1.05-.26-.53-.34-.8-.15-.53.07.11.09-.06.05-.6-.04-.58-.03-.66.04-.35.05.22.09.58.09.8.01.45.25.96.82 1.73.22.28.36.52.31.52s-.28-.24-.5-.52Zm14.03.14c-.17-1.02.71-2.7 1.37-2.6.27.04.38.49.17.74-.19.23-.29.16-.29-.18v-.31l-.25.23c-.44.41-.69 1.08-.69 1.82 0 .76-.2.95-.31.3Zm-4.1-.31c0-.41-.08-.74-.24-1.1-.23-.49-.24-.55-.12-1.16.16-.81.09-1.22-.35-2.05-.19-.36-.26-.54-.14-.4.63.79.83 1.62.58 2.54-.11.4-.09.49.15 1.04.26.58.33 1.18.19 1.55-.04.09-.07-.09-.07-.42Zm-4.7.19c-.24-.27-.13-.68.22-.76.33-.09.57.06.61.38.06.5-.49.76-.83.38Zm15.53-.67c-.37-.43-.38-.57-.38-4.53 0-4.34.01-4.44.63-4.73.6-.28 12.27-.28 12.64-.01.52.39.52.41.53 4.75.02 4.34.02 4.32-.41 4.54-.47.25-12.8.22-13.01-.02Zm12.97-.25.28-.22-.05-4.13c-.05-4.1-.05-4.14-.27-4.36l-.22-.22H37.05l-.06 1.45c-.07 1.53-.17 1.98-.73 3.07-.37.74-.35 1.2.1 1.87.48.73.61 1.85.29 2.59-.07.16.26.17 6.08.17h6.14zm-12.55-.84c0-.74-.11-1.19-.42-1.69l-.19-.3.03 1.26c.04 1.8.57 2.47.58.73Zm-12.88-.25c-.13-.45-.45-1.32-.72-1.93-.44-1.01-.83-2.16-.48-1.46.93 1.91 1.53 3.56 1.46 4.02-.02.11-.13-.17-.26-.63Zm-4.32.49c-.01-.29-.19-.36-1.08-.43l-.92-.08v.26c0 .24.04.26.53.3 1.2.08 1.47.07 1.47-.05Zm-5.21-2.56.01-1.57-.29.5c-.29.51-1.08 1.32-1.51 1.55-.13.07.02-.11.33-.41.34-.32.75-.86 1.02-1.34l.45-.8v-4.22c0-4.2 0-4.23-.2-4.23-.23 0-.76-.24-1.01-.47-.15-.13-.18-.07-.32.59-.31 1.45-.79 4.09-.76 4.12.02.02.38.1.79.19.66.15.69.16.21.11-.3-.03-.66-.08-.81-.11-.25-.05-.28-.02-.35.33-.75 4-2.9 5.89-4.8 4.22-.35-.3-.38-.31-1.08-.25-.43.03-.6.02-.42-.03.17-.04.48-.08.71-.09l.41-.01-.26-.52c-.54-1.09-.41-2.79.35-4.67.19-.47.34-.89.34-.93 0-.05-1.32-.07-2.92-.06l-2.93.03-.03 4.77-.02 4.77 1.52.04c.84.01 3.79.04 6.55.05l5.02.02zm18.99 1.03c.01-.13.03-.29.04-.36.02-.07-.15-.12-.47-.14-.27-.01-.69-.05-.92-.09-.41-.07-.43-.07-.43.18 0 .14-.01.29-.02.34-.02.04.31.12.72.18 1.09.16 1.05.17 1.08-.11Zm5.02-2.3V42.8h1v1.9h2v-1.9h1.1v5.1h-1.1v-2.21l-.97.03-.98.03-.03 1.08-.03 1.07h-.99zm4.9 0v-2.57l1.38.04c2.22.07 3.05.74 3.06 2.49.02 1.83-.79 2.52-3.01 2.57l-1.43.03zM2.6 47.4c-.47-.05-.2-.07.95-.08.88 0 1.8.03 2.05.07.56.1-2.02.11-3 .01Zm36.2-2.05c0-1.37-.04-2.15-.1-2.15s-.1.78-.1 2.15.04 2.15.1 2.15.1-.78.1-2.15Zm3 0c0-1.37-.04-2.15-.1-2.15s-.1.78-.1 2.15.04 2.15.1 2.15.1-.78.1-2.15Zm1.9.18c-.01-1.09-.01-2.04-.01-2.1.01-.19 1.62-.17 2.09.02.8.34 1.12.86 1.12 1.8 0 1.36-.56 1.91-2.09 2.05l-.86.07.85.01c1.62.03 2.3-.61 2.3-2.15 0-1.57-1.12-2.33-3.07-2.08l-.53.06v2.15c0 1.43.03 2.14.11 2.14.07 0 .1-.65.09-1.97Zm2.03 1.19c.87-.51.92-2.33.08-2.76-.34-.18-1.56-.32-1.64-.19-.03.05-.03.8 0 1.67l.06 1.59.6-.07c.33-.03.74-.14.9-.24ZM8.97 45.39c1.25-.47 2.26-2.91 2.88-6.99.34-2.29.5-2.87 1.12-4.28.29-.68.64-1.6.75-2.04l.22-.81-.34-.3-.35-.31-.08.54c-.09.66-.31.93-.7.87-.2-.02-.31.02-.38.15-.13.24-.29.23-.29-.02 0-.11.06-.2.13-.2.08 0 .07-.04-.03-.1-.11-.07-.18-.05-.26.05-.14.19-.24 0-.24-.47 0-.27-.02-.29-.17-.17-.21.17-.15.06.34-.62.41-.57.41-.61.03-.47-.57.19-.95.8-1.74 2.77-.41 1.03-1.13 2.7-1.61 3.71-1.6 3.4-1.95 4.45-1.95 5.86 0 1.89 1.36 3.33 2.67 2.83Zm27.58-1.52c.19-.63.29-2.31.17-2.72l-.08-.3-.32.32-.32.31v3.77l.2-.43c.11-.24.26-.66.35-.95ZM20.3 42.8c.34-.18.46-.52.15-.4-.71.27-1.04-.01-1.34-1.1l-.21-.75.04.83c.06 1.17.66 1.79 1.36 1.42Zm-3.1-1.68c0-.11-.09-.27-.21-.38-.27-.24-.48-.65-.69-1.34-.24-.74-.45-.81-.37-.11.12 1.04 1.27 2.69 1.27 1.83Zm-9-.65c0-.04.11-.3.25-.57.3-.6.32-.86.05-1-.26-.14-.25-.22.05-.58.44-.53 1.66-.12 1.89.64.08.25-.3.7-.47.56-.07-.05-.25-.12-.42-.14a2.6 2.6 0 0 1-.47-.12c-.13-.06-.21.03-.37.38-.2.47-.51.96-.51.83Zm40.24-2.03c-2.52-3.7-2.66-4.67-1.35-8.89 2.02-6.47 2-8.76-.1-11.75-.48-.68-.53-.7-.38-.15.54 1.93-.52 3.54-2.12 3.25-2.2-.4-1.76-4.75.48-4.75.62 0 .63 0 .4-.18-2.02-1.64-4.57-2.6-7.49-2.83l-.88-.07.01 4.89v4.89l.72.57c.76.6 1.06.63 1.16.12.03-.17 0-.16-.22.04-.21.2-.25.21-.31.07-.11-.29.12-.55.48-.55.48 0 .66.57.26.82-.11.07-.2.16-.2.2 0 .05.09.08.2.08.13 0 .2.07.2.2 0 .11-.07.2-.15.2-.11 0-.04.16.22.57 2.17 3.4 1.29 7.83-1.99 10.01l-.38.25v4.32h5.92c4.27 0 6.01.03 6.23.12.16.06.31.12.32.12.02.01-.45-.69-1.03-1.55Zm-19.99.16c2.77-1.05 3.45-4.86 1.42-7.87-.88-1.3-.98-1.86-.52-2.88.32-.7.47-2.04.25-2.3-.18-.22-.44-.2-.35.03.18.44.16.99-.05 1.57-.58 1.56-.6 1.65-.54 2.07.05.28.29.74.72 1.37 1.84 2.7 1.85 4.73.03 6.61-3.59 3.7-9.38-.76-6.98-5.37.22-.43.53-1.03.68-1.34.36-.69.44-1.43.31-2.68-.1-.92-.08-1.21.08-1.21.11 0 .25 1.32.25 2.4 0 1.03-.02 1.09-1.1 3.12-1.18 2.21-.11 5.1 2.14 5.78 4.37 1.33 7.12-2.88 4.5-6.86-1.12-1.7-1.2-2.24-.54-3.66.49-1.05.3-2.16-.27-1.61-.54.51-1.37.61-1.84.22-.12-.09-.14-.05-.14.25v.36h-2.09l-.15-.29c-.09-.16-.18-.48-.21-.72-.04-.24-.09-.55-.11-.69l-.06-.25-.24.29c-.25.28-.25.28-.05.43.57.39.02 1.22-.63.97-.42-.16.1-1.44.8-1.96.31-.23.35-.48.08-.48s-1 .85-1.17 1.35c-.23.67-.21 1.15.08 2.2.44 1.58.37 2.09-.46 3.36-2.1 3.22-.74 7.15 2.75 7.95.92.21 2.64.13 3.41-.16ZM7.4 37.8l.2-.4H1.1v.8h6.1zm-1.57-.67c1.81-.06 1.96-.08 2.01-.25.04-.19-.02-.19-1.92-.14-4.22.13-4.82.17-4.82.32 0 .16 1.43.18 4.73.07Zm21.74-.21c-.24-.26-.21-.59.07-.77.53-.35 1.15.34.7.79a.54.54 0 0 1-.77-.02ZM15 36.43c.89-1.08.77-3.77-.22-5.28l-.33-.5-.03.43c-.02.31.02.49.17.68.79 1 .89 2.95.2 3.93-.62.88-.44 1.52.21.74Zm19.15-.3c.06-.87.38-1.8 1.12-3.28.3-.61.68-1.44.84-1.85.15-.41.28-.67.29-.57 0 .19-.24.78-1 2.47-.73 1.6-.98 2.31-1.15 3.19l-.15.76zm-29.35.41c1.77-.04 3.1-.11 3.18-.16.41-.33-.38-1.2-1.29-1.43l-.64-.16.04-3.78c.03-3.36.01-3.79-.13-3.93-.13-.14-.14-.27-.08-.77.08-.59.08-.61-.13-.61-.22 0-.23.03-.29 1.92-.03 1.06-.09 2.61-.12 3.45l-.06 1.52-.5-.47c-.65-.62-.84-.71-1.4-.72H2.9v-1.26l-.72-.17c-1.21-.28-1.08-.67-1.08 3.29v3.46l.33-.05c.17-.03 1.69-.09 3.37-.13Zm24.06-.53c-.38-.41.09-1.05.6-.82.27.12.42.56.27.8-.15.25-.66.26-.87.02Zm-8.39-.78c-.09-.95-.07-2.94.03-3.18.05-.12.09.6.09 1.83.01 2.13-.02 2.45-.12 1.35Zm-6.31.44c.02-.07.03-.89.02-1.82l-.03-1.68-.24.59c-.13.32-.42.99-.63 1.47l-.39.88.23.2c.45.39.96.57 1.04.36Zm-3.92-.29c-.31-.5.2-2.13.83-2.69.6-.52 1.31-.21 1.18.51-.23 1.23-1.65 2.77-2.01 2.18Zm.95-.71c.86-1.14.98-2.22.2-1.83-.63.31-1.27 2.36-.74 2.36.08 0 .32-.24.54-.53Zm7.41.17c0-.36-1.03-.33-1.08.04-.03.21 0 .22.52.22.53 0 .56-.01.56-.26Zm8.98.02c-.26-.13-.36-.59-.17-.82s.66-.17.84.1c.31.48-.15.98-.67.72Zm-18.76-.24c.03-.04.36-.81.73-1.72.97-2.41 1.14-2.66 2.01-2.99l.48-.19-.75-.12c-1.36-.23-3.02 0-4.25.6l-.61.3-.06 1.06c-.04.59-.07 1.51-.07 2.05v.97l.53.11c.53.1 1.86.05 1.99-.07Zm6.02-.14c.22-.3.2-.83-.04-1.62-.28-.89-.3-.85-.3.59 0 1.27.06 1.44.34 1.03Zm23.13-.55c2.65-2.71 2.65-6.73 0-9.5-.98-1.02-.97-1.02-.97.02 0 .84.01.87.39 1.38 1.58 2.12 1.48 5.56-.22 6.96-.18.14-.24.91-.08.91.12 0 .77-.81 1.16-1.46 1.26-2.09 1.07-4.88-.46-6.92-.52-.69-.45-.76.13-.15 2.16 2.31 2.07 5.91-.21 8.35-1.14 1.22-.9 1.6.26.41Zm-13.02.43-1.1-.11-.03-.37c-.03-.36-.02-.38.27-.38.23 0 .31-.05.32-.17 0-.15.02-.15.09.02.07.16.09.11.09-.2 0-.28-.03-.34-.08-.21-.07.17-.08.18-.14.03-.04-.1-.15-.16-.28-.14-.28.03-.48-.27-.33-.5.09-.15.32-.19 1.5-.23l1.39-.06-1.22-.02c-1.41-.02-1.39-.01-1.34-.92.03-.69.1-.8.53-.8h.28l-.01-.97c-.01-.67-.04-.88-.09-.68l-.08.3-.01-.27c-.01-.2-.06-.28-.19-.28-.31 0-.42-.22-.42-.87 0-.8.06-.83 1.55-.83h1.15l.11.27c.1.28.03 1.3-.11 1.38-.04.02-.35.05-.68.06l-.62.02v1.87h.44c.9 0 .98.09.94 1-.02.61 0 .8.1.8.09 0 .12.12.1.38l-.03.37-.72.03-.73.03v.29c0 .29.01.3.49.3.71 0 .81.06.81.5 0 .55 0 .55-1.95.36Zm1.55-.41c0-.12-.19-.15-1.1-.15h-1.15c-.35 0 .1.16.57.21 1.28.11 1.68.1 1.68-.06Zm2.25-.15c-.42-.47.31-1.14.76-.69.21.21.24.41.09.7-.14.25-.62.25-.85-.01Zm-12.49-.84c-.12-.51-.45-1.33-.94-2.3-.84-1.68-.84-1.68-.58-3.15.13-.75.17-1.3.13-1.95-.03-.52-.02-.8.03-.66.13.42.11 2.11-.05 2.75-.25 1.03-.22 1.17.6 2.8.75 1.49 1.09 2.5 1.03 3.03-.02.18-.09.02-.22-.52Zm2.24.24c0-.29-.02-.3-.45-.3s-.45.01-.45.3.02.3.45.3.45-.01.45-.3Zm0-.9c0-.29-.01-.3-.5-.3s-.5.01-.5.3.01.3.5.3.5-.01.5-.3Zm-1.74-.3c-.05-.14-.26-.54-.48-.89-.8-1.28-1.23-2.51-.88-2.51.06 0 .1.17.1.38 0 .41.16.76.94 2.09.26.45.46.9.44 1-.03.15-.06.14-.12-.07ZM5.19 26.98l.01-1.68h1.18l-.05 2.42c-.06 2.35-.06 2.41.13 2.33.47-.2 2.23-.75 2.57-.8l.37-.06v-1.32l.5.07c.27.04.92.19 1.44.35l.95.28.31-.96c.17-.53.51-1.39.75-1.91.41-.88.44-.98.34-1.39-.11-.48 0-.71.32-.71.18 0 .19-.11.19-2.2v-2.19l-.47.14c-.27.08-.74.22-1.05.31l-.58.17v.48c0 .46-.02.49-.25.49-.21 0-.25-.05-.25-.27 0-.56-.08-.57-1.45-.08-.71.25-1.36.44-1.44.42-.21-.05.51-.37 1.78-.79l1.01-.33v-1.17c0-2.03.65-2.77 2.08-2.39.6.17.54.35-.1.29-.6-.06-1.1.05-1.29.29-.13.16-.12.16.11 0 .45-.31 1.41-.2 1.59.19.26.57.31.21.31-2.08 0-2.01-.02-2.34-.17-2.5-.24-.27-.43-.22-.49.12-.09.45-.31.37-.36-.12-.08-.71-.01-.75.83-.52.14.04.17-.11.21-1.13.06-1.32.24-1.96.83-2.83l.34-.5h-5.07c-4.17 0-5.18.03-5.71.15-1.9.45-3.54 2.26-3.55 3.94-.01.36 0 4.55.02 9.31l.02 8.65.86.18c1.05.22.92.39 1-1.36.1-2.12.24-1.7.24.74v2.09h.31c.45 0 .96.28 1.27.68l.27.36.06-1.75c.04-.96.07-2.49.08-3.41Zm7.26 4.78c.13.03.26 0 .3-.07.05-.08.04-.1-.04-.05-.23.15-.43-.01-.31-.25.07-.12.18-.18.26-.15.15.06.16.04.4-1.29.09-.49.35-1.53.59-2.3.45-1.46.66-2.65.47-2.65-.26 0-1.09 2.1-1.53 3.85-.17.66-.44 1.54-.6 1.95-.2.48-.26.76-.19.78.06.02.16.1.23.17s.13.09.15.04.14-.06.27-.03Zm13.75-.56v-.6h-1.9v1.2h1.9zm11.39-.35c.42-1.12.35-2.56-.19-3.73-.16-.34-.31-.62-.34-.62-.04 0-.06 1.2-.06 2.68v2.67l.2-.25c.11-.14.28-.48.39-.75Zm-19.09.5V31H18c-.49 0-.72.34-.43.63.26.27.93.06.93-.28Zm0-1.05v-.4h-.44c-.43 0-.44.01-.48.35-.05.44-.04.45.49.45h.43zm-4.4-1.77c0-.64-.02-1.14-.04-1.12-.08.08-.56 1.64-.56 1.81 0 .16.35.48.52.48.05 0 .08-.52.08-1.17Zm4.4.72c0-.35 0-.35-.45-.35s-.45 0-.45.35 0 .35.45.35.45 0 .45-.35Zm-6.34-.1c.04-.14.05-.28.02-.3-.06-.07-1.71-.52-2.15-.6l-.43-.07v1.02l.63.01c.34 0 .82.04 1.07.08.74.14.79.13.86-.14ZM27.42 29c-.11-.24-.11-.33.02-.59.09-.16.16-.45.17-.63 0-.18.04-.51.09-.73.07-.29.08-.1.05.71-.05 1.35-.14 1.68-.33 1.24Zm-8.92-.8c0-.29-.02-.3-.45-.3s-.45.01-.45.3.02.3.45.3.45-.01.45-.3Zm15-.13c0-.17.47-.6.88-.81.36-.19.38-.31.21-1.19-.07-.32-.16-.54-.21-.51-.06.04-.07-.02-.03-.16s.03-.2-.02-.17c-.06.04-.09-.05-.06-.21.03-.24.02-.25-.07-.07-.09.16-.09.14-.05-.14.03-.18.05-.51.05-.72 0-.32.07-.45.45-.82.64-.63.6-1.25-.1-1.43-.62-.15-1.08.38-1.4 1.62-.14.54-.3 1.1-.36 1.24-.38.85-.95 3.15-.8 3.22.3.13.46.09.26-.05-.2-.16-.12-.39.1-.3.21.07.19-.24-.01-.35-.19-.11-.11-.32.12-.32.29 0 .85.51.79.71-.07.23.03.59.16.59.05 0 .09-.06.09-.13Zm-7.21-.52.01-.55h-1.87l-.07.38c-.12.76-.17.72.93.72h.98zm-7.7-.18c.05-.13.25-.38.44-.56l.34-.33-.13-.46c-.09-.27-.14-.92-.14-1.62v-1.18l-.28-.05c-.15-.03-.39-.09-.54-.13-.26-.06-.27-.05-.26.32.01.21-.04.4-.1.42-.07.02-.12.13-.12.25-.01.12-.08.4-.16.62s-.16.45-.18.52c-.01.07-.05.16-.09.19-.04.04-.07.16-.07.28 0 .15.03.17.12.08.07-.07.2-.12.31-.12.13 0 .17-.05.13-.17-.21-.7-.17-.9.12-.61.13.13.12.18.15-.67.02-.58.39-.77.45-.22.03.21-.01.27-.16.27-.2 0-.2.01-.02.51.18.48.18.79 0 .79-.05 0-.11-.06-.13-.12-.03-.07-.06.06-.06.28-.01.29.04.44.14.48.21.08.19.41-.03.44-.59.08-.67.07-.67-.13 0-.13.06-.2.17-.19.1.01.14-.04.11-.12-.06-.17-.23-.19-.23-.02 0 .06-.07.04-.18-.05-.25-.23-.28-.22-.41.15-.09.25-.09.34 0 .37.25.08.49.43.49.71 0 .41.84.47.99.07Zm15.26-.54c-.2-.46-.15-2.62.06-2.6.12.01.19.09.19.22 0 .15-.02.17-.09.06-.17-.26-.19.05-.05.59.08.3.13.67.11.83-.02.15 0 .27.04.27.09 0 .06.27-.04.36-.12.12-.08.24.08.24.08 0 .15.04.15.1 0 .17-.37.11-.45-.07Zm-6.42-1.05c-.23-.11-.37-.43-.49-1.13-.2-1.2-.5-1.12-.35.09.11.89.29 1.16.75 1.15.29 0 .3-.01.09-.11Zm19.92-1.16c.1-.47-.1-.84-.42-.8-.42.05-.44.38-.03.38.25 0 .31.04.28.18-.02.13-.13.17-.43.17h-.4v-1.1l.49.01c.71.01 1.07.58.8 1.28-.11.3-.36.19-.29-.12Zm-38.39-.25c-.29-.76-.12-1.26.19-.54l.14.32.11-.32c.14-.4.57-.49.44-.1-.35 1.11-.62 1.31-.88.64Zm-7.16-.28c0-.72.31-.83.6-.21l.16.33.17-.36c.28-.58.57-.49.57.19 0 .58-.15.8-.35.52-.11-.14-.14-.14-.18-.02-.08.2-.42.09-.55-.17-.1-.21-.11-.21-.11.06-.02.61-.31.3-.31-.34Zm1.94.52c-.58-.25-.35-1.11.29-1.11.51 0 .67.13.67.55 0 .52-.44.78-.96.56Zm1.1-.14c-.08-.36-.01-1 .14-1.05.07-.02.12.05.12.17 0 .17.06.21.3.21.17 0 .3-.04.3-.1s.07-.1.15-.1c.11 0 .15.12.15.5s-.04.5-.15.5c-.08 0-.15-.09-.15-.2 0-.16-.07-.2-.3-.2-.25 0-.3.04-.3.25 0 .32-.18.33-.26.02Zm2.22.16c-.03-.03-.06-.16-.06-.27 0-.15-.07-.21-.25-.22-.2-.02-.25.03-.25.22 0 .17-.06.24-.2.24-.17 0-.2-.07-.2-.5 0-.38.04-.5.15-.5.08 0 .15.04.15.1s.14.1.3.1c.23 0 .3-.04.3-.2 0-.27.16-.25.24.02.14.55.03 1.22-.18 1.01Zm.67-.03c-.27-.11-.39-.53-.24-.86.14-.32.94-.36 1.11-.05.32.6-.23 1.17-.87.91Zm2.17-.05c0-.09.07-.18.15-.21.18-.07.2-.31.03-.37-.1-.03-.1-.07.01-.2.15-.19 1.17-.24 1.23-.07.02.07.15.07.38-.01.26-.09.35-.09.38-.01.05.15.39.16.48.01.03-.06.16-.08.27-.05.12.03.29-.01.38-.1.11-.1.19-.12.23-.05.08.13-.11.51-.33.68-.14.11-.13.12.07.13.13 0 .22.06.22.15 0 .1-.1.15-.29.15-.16 0-.37.03-.46.07-.15.05-.17.01-.13-.3l.04-.37h-.43c-.45 0-.57.16-.28.4.22.18.09.3-.35.3-.27 0-.42-.06-.49-.17-.1-.17-.1-.17-.11 0 0 .14-.09.17-.5.17-.38 0-.5-.04-.5-.15Zm29.96-.08c-.34-.25-.18-1.11.22-1.15.19-.02.32.01.32.08s.07.05.16-.04c.19-.2.34-.12.34.17 0 .19.01.19.13.04.12-.17 1-.27 1.14-.14.11.12.07.85-.06 1.01-.33.4-1.04.16-1.21-.41l-.08-.28-.01.31c-.02.51-.52.73-.95.41Zm3.91-.07c-.12-.18-.15-.18-.2-.05-.06.15-.57.22-.57.07 0-.04.09-.16.21-.25.27-.24.2-.42-.17-.42-.26 0-.29.03-.32.37-.05.63-.32.5-.32-.16 0-.62.39-.83 1-.53.24.13.3.13.34.01.08-.22.26-.16.26.09.01.75.47.98.52.25.05-.72.28-.59.28.16v.66h-.44c-.34 0-.48-.05-.59-.2Zm1.38.07c-.2-.16-.26-.8-.07-.99.22-.22.96-.05 1.06.25.22.6-.47 1.11-.99.74ZM15.02 23.4c-.11-2.1-.23-3.92-.28-4.24-.04-.23-.02-.36.03-.33.15.1.35 2.52.31 3.82-.02.66-.05 1-.06.75Zm6.98.23c-.6-.23-.36-1.13.3-1.13.46 0 .6.15.6.62 0 .49-.38.71-.9.51Zm8.9-.02c-.28-.08-.42-.8-.19-1.07.14-.17.7-.19.87-.02.33.33-.03 1.37-.41 1.17-.01-.01-.13-.04-.27-.08Zm-2.78-.13c-.16-.16-.15-.73 0-.86.07-.06.61-.1 1.21-.11h1.07v.54c0 .42-.03.55-.15.55-.11 0-.15-.11-.15-.4 0-.36-.02-.4-.25-.4s-.25.04-.25.4c0 .4-.21.56-.34.28-.05-.1-.07-.1-.12 0-.07.16-.86.16-1.02 0Zm-2.02-2.43c0-.24-.03-.25-.55-.25s-.55.01-.55.25.03.25.55.25.55-.01.55-.25Zm-19.55-.1c-1.42-.51-1.6-3.74-.25-4.46 1.5-.81 2.66.21 2.58 2.28-.06 1.87-.94 2.69-2.33 2.18Zm-2.99-.16c.11-.12.14-.54.14-2.02V16.9h-.3c-.27 0-.3-.03-.3-.3v-.3h1.43l-.07.77c-.03.42-.06 1.48-.06 2.35v1.59l-.49-.03c-.45-.03-.48-.05-.35-.19Zm36.57.11c-1.74-.41-1.82-4.25-.1-4.71 1.37-.37 2.21.53 2.22 2.36 0 1.79-.79 2.67-2.12 2.35Zm-32.28-.36c.98-.46 1-3.31.02-3.77-1.35-.65-2.33.46-2.12 2.4.14 1.28 1.04 1.87 2.1 1.37Zm-1.24-.07c-.93-.47-1-2.94-.11-3.54 1.07-.73 1.9.04 1.9 1.74 0 1.58-.75 2.34-1.79 1.8Zm34.9-.26c.69-.83.49-3.19-.31-3.58-1.3-.65-2.29.56-2.02 2.46.2 1.45 1.52 2.08 2.33 1.12Zm4.34.09c.75-.71.65-3.24-.15-3.65-1.6-.83-2.89 1.2-2.06 3.2.32.75 1.61 1.02 2.21.45Zm-5.91.01c-.57-.35-.86-2.08-.5-2.95.52-1.25 1.97-1 2.26.39.4 1.93-.54 3.3-1.76 2.56Zm4.18-.06c-1.1-.92-.53-3.65.76-3.65.94 0 1.32.56 1.32 1.95 0 1.69-1.06 2.56-2.08 1.7Zm-36.5-.06c.28-.15.48-.69.48-1.33v-.55l-.46.26c-.25.14-.47.23-.5.21-.02-.03.18-.17.46-.32.55-.3.57-.37.34-.95-.28-.71-1.22-.7-1.55.03-.66 1.46.15 3.23 1.23 2.65Zm33.33-.05c.6-.24.71-2.48.14-3.05-.68-.68-1.44 0-1.44 1.29 0 1.54.41 2.1 1.3 1.76Zm4.47-.05c.66-.35.66-2.73 0-3.08-.86-.46-1.52.21-1.52 1.54s.66 2 1.52 1.54Zm-27.45-1.05a36 36 0 0 1-.07-2.01v-.93h-1v-.8h1.8v2.35c0 1.81-.03 2.35-.13 2.35-.06 0-.21.03-.33.06-.2.05-.21.01-.27-1.02Zm2.88.93c-1.29-.59-1.49-3.73-.29-4.48.46-.28 1.4-.29 1.86-.02 1.12.65 1.17 3.56.07 4.36-.33.24-1.25.32-1.64.14Zm10.1-.02c-.65-.33-1.04-1.53-.9-2.77.28-2.44 3.07-2.65 3.45-.26.35 2.25-.98 3.84-2.55 3.03Zm1.6-.39c.93-.61.86-3.42-.1-3.82-1.28-.53-2.1.33-2.03 2.14.06 1.69.99 2.42 2.13 1.68Zm-10.16-.11c.86-.73.73-3.22-.19-3.7-.75-.39-1.71-.05-1.97.7-.22.6-.14 2.2.13 2.65.38.66 1.44.84 2.03.35Zm5.8.09c.74-.52.82-2.85.12-3.55-1.38-1.37-2.9.78-2.07 2.94.27.72 1.32 1.05 1.95.61Zm2.95-.03c-1.11-.67-.72-3.58.49-3.78.94-.15 1.37.46 1.37 1.92 0 1.69-.81 2.5-1.86 1.86Zm-10.31-.09c-.82-.64-.77-3.13.07-3.57 1.03-.53 1.8.13 1.88 1.63.09 1.68-.95 2.72-1.95 1.94Zm5.87-.1c-.82-.83-.64-3.22.26-3.52 1.26-.42 2.06 1.15 1.54 3.02-.22.79-1.23 1.07-1.8.5Zm-13.45-.09.95-.27v-.75c0-.99-.18-1.21-1-1.21-.86 0-.93.13-1.04 1.73-.04.48-.02.77.04.77s.53-.12 1.05-.27Zm18.88.08c.77-.29.78-2.92.02-3.21-.8-.3-1.25.27-1.25 1.58 0 1.41.4 1.94 1.23 1.63Zm-10.04-.2c1.06-1.06.02-3.84-1.11-2.97-.37.27-.55 2.05-.27 2.59.31.6.98.78 1.38.38Zm5.98-.08c.52-.79.22-2.79-.45-2.95-.88-.23-1.4 1.04-1.01 2.45.22.79 1.08 1.08 1.46.5Zm-2.09-2.99.1-.35-.41.03c-.39.03-.42.05-.45.35-.05.52.6.5.76-.03Zm.22-.94c0-.29-.02-.3-.45-.3s-.45.01-.45.3.02.3.45.3.45-.01.45-.3Zm0-1.05c0-.35 0-.35-.45-.35s-.45 0-.45.35 0 .35.45.35.45 0 .45-.35Zm0-1c0-.35 0-.35-.45-.35s-.45 0-.45.35 0 .35.45.35.45 0 .45-.35Zm16.9-.2c-.07-.08-.19-.15-.26-.15-.09 0-.14-.12-.14-.36 0-.48-.33-.45-.38.04-.03.31-.04.32-.53.32h-.49v-.35c0-.49-.37-.51-.42-.02-.04.46-.32.43-.36-.05-.04-.45-.32-.43-.32.02 0 .3-.14.47-.25.3-.04-.07-.12-.07-.25 0-.28.15-.66.12-.84-.06-.15-.14-.16-.14-.16 0 0 .25-.28.19-.33-.06-.04-.21-.04-.22-.06-.02-.01.17-.08.21-.41.22l-.4.02v-.65c0-.71.31-.98.46-.4.03.14.12.25.19.25s.16-.11.19-.25c.07-.27.46-.36.46-.11 0 .11.1.13.4.09.24-.03.46-.01.54.06.1.08.16.09.21.01.09-.14 1.38-.13 1.53.02.09.09.12.07.12-.09 0-.28.2-.4.26-.16.04.15.13.18.45.15.23-.03.46.01.52.07.07.07.14.07.23 0 .35-.29.99-.06 1.02.37.06.81-.55 1.31-.98.79Zm-39.27-.12c-.21-.08-.15-.33.09-.33.2 0 .2-.01.05-.18-.33-.37-.22-.52.38-.52.55 0 .86.29.32.31-.22 0-.22 0-.01.09.27.11.38.38.23.56-.11.13-.8.18-1.06.07Zm2.97-.06c-.28-.14-.39-.59-.19-.83.14-.17.8-.19.97-.02.45.45-.19 1.15-.78.85Zm1.1-.42c0-.42.03-.55.15-.55.1 0 .15.11.15.35 0 .31.03.35.27.35.43 0 .73.11.73.26 0 .11-.16.14-.65.14H7.9zm2.32 0c.03-.56.2-.76.26-.31.05.39.72.43.72.04 0-.42.26-.35.34.1.1.61.08.72-.14.72-.14 0-.2-.07-.21-.22 0-.13-.03-.17-.06-.1-.02.06-.2.12-.39.12s-.34.05-.34.1a.1.1 0 0 1-.1.1c-.07 0-.1-.21-.08-.55Zm1.6.43c-.23-.23-.15-.87.11-.94.52-.12 1.02-.01 1.05.25.03.21.01.23-.2.16-.47-.15-.73-.11-.73.1 0 .17.06.2.48.18.39-.01.47.01.43.14-.03.08-.06.17-.06.19 0 .1-.97.03-1.08-.08Zm-6.55-.05c-.13-.12-.07-.8.07-.92.5-.41 1.2.11.97.72-.1.27-.84.41-1.04.2Zm39.03-.08c-.12-.14-.1-.98.03-1.11.07-.07.88.13.99.24.23.23 0 .61-.4.65l-.37.04.43.01c.59.03.51.26-.1.3-.31.02-.49-.02-.58-.13Zm-13.97-.75c-.13-.05-.23-.13-.23-.17 0-.05-.17-.08-.37-.08-.31 0-.38-.04-.44-.25l-.07-.25-.01.27c-.01.29-.16.45-.26.28-.05-.08-.11-.07-.21.01-.11.09-.16.06-.23-.12s-.1-.19-.1-.06c-.01.28-.31.21-.31-.08 0-.16-.06-.25-.15-.25s-.15.09-.15.25-.06.25-.15.25-.15-.1-.15-.26c0-.34-.24-.26-.28.09-.04.34-.2.35-.28.03-.13-.55-.05-.61.79-.61.42 0 .77-.03.77-.06 0-.11 1.35.01 1.38.11.02.06.11.03.19-.06.35-.35.78-.14.81.4.04.61-.09.74-.55.56Zm17.12-1.03c0-.78-.38-1.37-1.12-1.74l-.58-.28-4.47-.03c-3.9-.03-4.46-.05-4.41-.18.09-.25 9.15-.16 9.63.1.96.51 1.59 1.65 1.31 2.39-.18.46-.36.33-.36-.26Zm-20.77-.32c.17-.37.15-.43-.15-.42-.8.01-1.33-.04-1.33-.13 0-.06.41-.1 1.04-.1h1.04l-.09-.37c-.04-.21-.15-.43-.24-.5-.14-.09-.16-.22-.11-.65.03-.29.03-.47 0-.4-.08.17-.24.05-.24-.19 0-.1.07-.19.15-.19.1 0 .15-.11.15-.35V6.8h-1.08l-.17.71c-.09.39-.14.74-.11.76.03.03-.06.34-.19.68-.32.86-.42 1.54-.24 1.66.35.22 1.45.1 1.57-.16Zm.22-4.16v-.3l-.52.03c-.85.05-.88.58-.04.58.56 0 .56 0 .56-.31Zm6.89-.74c-.01-.03-.02-.11-.03-.17-.04-.45-3.26-2.26-4.86-2.73-.47-.14-.68-.23-.48-.2 1.69.26 5.33 2.27 5.44 3 .02.14-.04.22-.07.1Z"/></svg>