<svg xmlns="http://www.w3.org/2000/svg" width="51" height="51" viewBox="0 0 51 51"><path fill="#fff" fill-rule="evenodd" stroke="#fff" stroke-width=".785" d="M15.14 34.18c-.07-.11 2.16-4.04 7.21-12.73.67-1.15 1.5-2.61 1.85-3.22.34-.62.68-1.13.76-1.13.27 0 3.64 5.6 3.64 6.06 0 .21-5.95 10.6-6.26 10.94-.15.15-7.11.23-7.2.08Zm8.94-3.45c1.04-1.81 2.45-4.24 3.12-5.42l1.22-2.14-.21-.44c-.11-.24-.8-1.41-1.52-2.61-.73-1.19-1.39-2.29-1.48-2.44-.22-.39-.19-.43-1.06 1.1-.43.75-1.34 2.31-2.01 3.47-2.04 3.53-6.51 11.29-6.63 11.52l-.12.23h6.79zm7.89-.79c-.04-.04-.07-.85-.07-1.81V26.4h-2.05c-1.71 0-2.07-.02-2.11-.15-.03-.08.34-.82.84-1.67l.89-1.53 1.21-.03 1.22-.03.02-1.72.03-1.72 1.67-.03 1.68-.02V23l1.78.02 1.77.03v3.3l-1.77.03-1.78.02-.02 1.78-.03 1.77-1.61.03c-.88.01-1.63-.01-1.67-.04Zm3.13-1.99V26.2l1.63-.02c.89 0 1.68-.01 1.75-.01.09.01.12-.34.12-1.42v-1.42l-.67-.06c-.38-.04-1.16-.07-1.75-.07H35.1v-3.5h-2.87l-.06.68c-.04.37-.07 1.15-.07 1.74v1.08h-2.46l-.82 1.41c-.79 1.35-.91 1.6-.74 1.58.04-.01.96-.01 2.04 0l1.98.01v1.23c0 .67.03 1.46.06 1.75l.07.52h2.87zm-19.53-5.32c-1.84-3.08-3.09-5.34-3.03-5.5.04-.11 1.17-.13 6.01-.13 6.5 0 6.27-.02 5.88.56-.1.15-.86 1.47-1.69 2.93l-1.51 2.66-2.66.03-2.65.02zm5.61.1c.1-.16.7-1.18 1.32-2.28s1.28-2.25 1.46-2.55l.33-.55-5.71-.03c-3.14-.01-5.73 0-5.75.02-.04.03 1.28 2.36 2.73 4.84l.48.82h4.95z"/></svg>