<svg xmlns="http://www.w3.org/2000/svg" width="51" height="51" viewBox="0 0 51 51"><path fill="#fff" fill-rule="evenodd" stroke="#fff" stroke-width=".354" d="M24.9 48.52c0-1.43.04-2.84.1-3.13.35-1.92 2.09-3.73 4.05-4.24.71-.18 21.13-.23 20.85-.05-.09.06-3.9.1-10.25.1-8.22 0-10.2.03-10.61.14-1.83.49-3.46 2.17-3.83 3.94-.06.31-.11 1.62-.11 3.12 0 1.62-.04 2.61-.1 2.65-.07.04-.1-.83-.1-2.53Zm2.57 1.61c-.04-.03-.07-.29-.07-.58 0-.59.02-.61 1.66-1.93 1.19-.95 1.54-1.34 1.54-1.7-.01-.83-1.27-.91-1.48-.1l-.08.33h-1.59l.03-.43c.17-2.69 4.9-2.7 4.92-.01 0 .86-.42 1.56-1.44 2.35l-.68.54h1.05c1.18 0 1.17-.01 1.17.8 0 .86.18.8-2.54.8-1.34 0-2.46-.03-2.49-.07Zm7.35-.08c-2.41-1.08-2.38-5.51.04-6.23 2.55-.75 4.49 1.59 3.65 4.4-.46 1.51-2.33 2.44-3.69 1.83Zm4.35.09c-.13-.13-.07-.99.08-1.21.08-.12.45-.45.82-.74 2.11-1.65 2.23-1.77 2.23-2.37 0-.78-1.13-.8-1.44-.02l-.15.37-.78-.01-.78-.01.03-.45c.1-1.28.96-1.95 2.52-1.95 2.92 0 3.42 2.53.87 4.41l-.58.43 1.08.03 1.08.03v1.5l-2.46.03c-1.35.01-2.48-.01-2.52-.04Zm7.53-.03c-.96-.29-1.96-1.51-1.65-2.01.15-.24 1.55-.12 1.65.14.21.57.94.73 1.35.31.51-.5.17-1.45-.53-1.45-.28 0-.72.31-.72.51 0 .06-.34.09-.87.07l-.88-.03.02-.35c.02-.19.15-1.05.3-1.91l.26-1.56 1.51-.05c.83-.02 1.73-.02 1.99 0l.48.04-.03.75-.03.76-.93-.02c-1.49-.03-1.79.04-1.84.45-.03.28-.01.33.11.28 1.66-.71 3.18.28 3.09 2.02-.08 1.57-1.64 2.55-3.28 2.05Zm-14.44-.35c.03-.13.04-.38.02-.57l-.03-.34-1.17-.03c-1.38-.03-1.39-.04-.49-.71 1.1-.81 1.6-1.55 1.61-2.34.01-2.25-3.88-2.59-4.49-.4-.18.62-.17.63.54.63.5 0 .65-.03.65-.14 0-.64 1.16-1.02 1.67-.54.53.5.21 1.18-1.02 2.16-1.84 1.46-1.95 1.58-1.95 2.08V50h4.6zm4.95-.11c2.84-2 .61-7.03-2.46-5.55-2.08 1-2.09 4.68 0 5.67.75.36 1.86.3 2.46-.12ZM44 49.4v-.6h-1.2c-1.39 0-1.41-.03-.57-.63 1.17-.83 1.77-1.66 1.77-2.42 0-2.23-3.91-2.59-4.55-.42-.18.61-.13.67.62.67.47 0 .53-.02.59-.24.18-.72 1.41-.97 1.74-.36.35.66.02 1.18-1.5 2.38-1.47 1.16-1.6 1.3-1.6 1.72 0 .52-.09.5 2.42.5H44zm4.92.25c2.06-1.45.35-4.53-1.88-3.4-.27.14-.5.25-.51.25-.06 0-.03-.31.08-.8l.11-.5h2.68v-1.3h-1.75c-2.07 0-1.83-.19-2.15 1.75-.11.72-.23 1.42-.26 1.58l-.06.27h.67c.61 0 .71-.03 1.02-.3.89-.78 2.04.21 1.49 1.29-.35.67-1.58.62-1.81-.08-.07-.24-1.35-.33-1.35-.09 0 1.33 2.46 2.21 3.72 1.33Zm-13.71-1.06c-.76-.71-.69-2.97.1-3.4 1.16-.62 2.05.78 1.66 2.63-.18.87-1.18 1.3-1.76.77Zm1.36-.37c.48-.72.38-2.29-.18-2.77-.98-.82-1.94.88-1.4 2.47.26.77 1.15.93 1.58.3ZM7.11 47c-.39-.09-1.13-.79-1.36-1.27-.19-.39-.24-39.58-.06-40.06.15-.39.82-1.08 1.18-1.24.59-.24 9.23-.19 9.72.06.41.22.9.73 1.18 1.24.21.38.34 38.71.13 39.48-.14.5-.64 1.16-1.19 1.54l-.43.3-4.41.02c-2.43.01-4.57-.02-4.76-.07Zm9.19-.48c.2-.06.14-.08-.29-.12-.85-.08-.78-.3.09-.3 1.35 0 1.32-.24-.04-.3-1.76-.07-1.74-.3.02-.3h1.29l.05-.67c.07-1 0-38.91-.07-39.13-.05-.17-.18-.2-.96-.22-1.1-.04-1.22-.21-.19-.28.91-.06.72-.3-.24-.3-.31 0-.56-.04-.56-.1 0-.14-7.27-.14-7.35 0-.03.06-.34.1-.69.1-.39 0-.69.05-.82.15-.17.13-.11.14.64.15 1.2 0 1.09.24-.13.28-.56.02-.92.07-.97.15C6.04 5.7 6 14.69 6 25.62V45.5h1.26c1.7 0 1.74.24.05.28-.98.02-1.11.05-1.01.17.09.11.34.15.92.15.97 0 1.08.23.13.28-.41.02-.55.06-.45.12.18.11 9.03.13 9.4.02ZM6.1 45.1c0-.06.39-.1.96-.1.61 0 .93.04.89.1-.03.06-.46.1-.96.1-.53 0-.89-.04-.89-.1Zm9.35 0c-.04-.06.28-.1.89-.1.57 0 .96.04.96.1s-.36.1-.89.1c-.5 0-.93-.04-.96-.1Zm-9.3-.6c.03-.05.44-.1.9-.1s.87.05.9.1c.04.06-.28.1-.9.1s-.94-.04-.9-.1Zm9.3 0c.03-.05.46-.1.96-.1.53 0 .89.04.89.1s-.39.1-.96.1c-.61 0-.93-.04-.89-.1ZM6.1 44c0-.06.38-.1.95-.1s.95.04.95.1-.38.1-.95.1-.95-.04-.95-.1Zm9.3 0c0-.06.38-.1.95-.1s.95.04.95.1-.38.1-.95.1-.95-.04-.95-.1Zm-9.25-.6c.03-.06.46-.1.96-.1.53 0 .89.04.89.1s-.39.1-.96.1c-.61 0-.93-.04-.89-.1Zm9.3 0c.03-.06.44-.1.9-.1s.87.04.9.1c.04.06-.28.1-.9.1s-.94-.04-.9-.1Zm-9.02-.37c-.18-.02-.33-.08-.33-.14 0-.13 4.57-.15 4.7-.03.2.21-3.08.33-4.37.17Zm5.07-.1c0-.1.09-.47.2-.83.25-.82.26-.78-.12-.82-.63-.06-.49-.38.16-.38.67 0 .66-.03.28 1.24-.25.82-.52 1.24-.52.79Zm1.1.08c-.29-.2.02-.23 2.31-.22 2.2.02 2.5.04 2.37.16-.11.11-4.53.17-4.68.06Zm-6.5-.71c0-.06.38-.1.95-.1s.95.04.95.1-.38.1-.95.1-.95-.04-.95-.1Zm9.3 0c0-.06.38-.1.95-.1s.95.04.95.1-.38.1-.95.1-.95-.04-.95-.1Zm-9.25-.5c-.04-.06.28-.1.9-.1s.94.04.9.1c-.03.06-.44.1-.9.1s-.87-.04-.9-.1Zm-.05-.6c0-.06.38-.1.95-.1s.95.04.95.1-.38.1-.95.1-.95-.04-.95-.1Zm9.3 0c0-.06.38-.1.95-.1s.95.04.95.1-.38.1-.95.1-.95-.04-.95-.1Zm-9.24-.49c-.09-.14.43-.2 1.17-.14.42.04.63.09.55.14-.17.12-1.65.11-1.72 0Zm9.3 0c-.03-.04.26-.11.65-.15.76-.07 1.3.01 1.07.15-.17.11-1.65.12-1.72 0Zm-9.33-.63c.07-.22 2.37-.19 2.37.03 0 .05-.54.09-1.21.09-.92 0-1.2-.03-1.16-.12Zm8.77.02c0-.06.47-.1 1.2-.1s1.2.04 1.2.1-.47.1-1.2.1-1.2-.04-1.2-.1Zm-8.73-.46q-.24-.24.78-.24c.82 0 1.15.07.93.21-.15.1-1.62.12-1.71.03Zm9.28-.14c.03-.05.44-.1.9-.1s.87.05.9.1c.04.06-.28.1-.9.1s-.94-.04-.9-.1ZM6.1 39c0-.06.39-.1.96-.1.61 0 .93.04.89.1-.03.06-.46.1-.96.1-.53 0-.89-.04-.89-.1Zm9.35 0c-.04-.06.28-.1.89-.1.57 0 .96.04.96.1s-.36.1-.89.1c-.5 0-.93-.04-.96-.1Zm-9.29-.49c-.03-.04.16-.11.41-.15.58-.08 1.51.03 1.31.15-.17.11-1.65.11-1.72 0Zm9.3 0c-.12-.19.72-.27 1.49-.14.31.05.35.08.2.14-.28.11-1.63.11-1.69 0ZM6.1 37.9c0-.06.37-.1.9-.1s.9.04.9.1-.37.1-.9.1-.9-.04-.9-.1Zm9.3 0c0-.06.38-.1.95-.1s.95.04.95.1-.38.1-.95.1-.95-.04-.95-.1Zm-9.3-.55c0-.21 4.61-.18 4.68.03.03.09-.48.12-2.32.12-2.04 0-2.36-.02-2.36-.15Zm5.27.08c-.12-.12-.08-1.78.05-1.91.2-.2.66-.15.79.09.15.3-.05.51-.24.24-.16-.21-.37-.12-.37.16 0 .14.07.19.29.19.4 0 .57.62.31 1.11-.11.19-.68.28-.83.12Zm1.18-.03c-.03-.06 0-.12.07-.15.26-.1 4.58 0 4.58.1 0 .14-4.56.19-4.65.05Zm-6.45-.6c0-.06.38-.1.95-.1s.95.04.95.1-.38.1-.95.1-.95-.04-.95-.1Zm9.3 0c0-.06.38-.1.95-.1s.95.04.95.1-.38.1-.95.1-.95-.04-.95-.1Zm-9.3-1.1c0-.06.39-.1.96-.1.61 0 .93.04.89.1-.03.06-.46.1-.96.1-.53 0-.89-.04-.89-.1Zm9.3 0c0-.06.38-.1.95-.1s.95.04.95.1-.38.1-.95.1-.95-.04-.95-.1Zm.07-.46c-.16-.17.11-.24.88-.24.86 0 1.19.13.64.24-.41.08-1.44.08-1.52 0Zm-9.32-.14c.03-.05.44-.1.9-.1s.87.05.9.1c.04.06-.28.1-.9.1s-.94-.04-.9-.1Zm-.05-.5c0-.06.47-.1 1.2-.1s1.2.04 1.2.1-.47.1-1.2.1-1.2-.04-1.2-.1Zm8.7 0c0-.06.48-.1 1.25-.1s1.25.04 1.25.1-.48.1-1.25.1-1.25-.04-1.25-.1ZM6.15 34c.03-.05.44-.1.9-.1s.87.05.9.1c.04.06-.28.1-.9.1s-.94-.04-.9-.1Zm9.3 0c.03-.05.44-.1.9-.1s.87.05.9.1c.04.06-.28.1-.9.1s-.94-.04-.9-.1Zm-9.35-.5c0-.06.39-.1.96-.1.61 0 .93.04.89.1-.03.05-.46.1-.96.1-.53 0-.89-.04-.89-.1Zm9.35 0c-.04-.06.28-.1.89-.1.57 0 .96.04.96.1s-.36.1-.89.1c-.5 0-.93-.05-.96-.1Zm-9.3-.6c.03-.06.44-.1.9-.1s.87.04.9.1c.04.06-.28.1-.9.1s-.94-.04-.9-.1Zm9.3 0c.03-.06.46-.1.96-.1.53 0 .89.04.89.1s-.39.1-.96.1c-.61 0-.93-.04-.89-.1Zm-9.35-.5c0-.06.39-.1.96-.1.61 0 .93.04.89.1-.03.06-.46.1-.96.1-.53 0-.89-.04-.89-.1Zm9.3 0c0-.06.38-.1.95-.1s.95.04.95.1-.38.1-.95.1-.95-.04-.95-.1Zm-9.17-.47c-.44-.17.11-.23 2.23-.23 1.84 0 2.35.03 2.32.13-.05.12-4.27.22-4.55.1Zm5.35 0c-.21-.05-.35-.5-.2-.65.07-.07.14-.04.21.11.19.34.41.26.41-.14 0-.36-.15-.46-.38-.23-.21.21-.33-.06-.3-.63l.03-.54h.45c.55 0 .66.28.13.33-.36.04-.47.32-.14.32.5 0 .71.9.31 1.3-.2.2-.22.21-.52.13Zm1.02-.08c0-.13.33-.15 2.35-.15 2.13 0 2.66.06 2.19.24-.38.15-4.54.07-4.54-.09Zm-6.5-.55c0-.06.37-.1.9-.1s.9.04.9.1-.37.1-.9.1-.9-.04-.9-.1Zm9.3 0c0-.06.38-.1.95-.1s.95.04.95.1-.38.1-.95.1-.95-.04-.95-.1Zm-9.3-.6c0-.06.37-.1.9-.1s.9.04.9.1-.37.1-.9.1-.9-.04-.9-.1Zm9.35 0c.03-.06.46-.1.96-.1.53 0 .89.04.89.1s-.39.1-.96.1c-.61 0-.93-.04-.89-.1Zm-9.3-.5c-.04-.06.28-.1.9-.1s.94.04.9.1c-.03.06-.44.1-.9.1s-.87-.04-.9-.1Zm9.3 0c-.04-.06.28-.1.9-.1s.94.04.9.1c-.03.06-.44.1-.9.1s-.87-.04-.9-.1Zm-9.3-.6c.03-.05.44-.1.91-.1.49 0 .84.04.84.1s-.37.1-.91.1c-.57 0-.88-.04-.84-.1Zm9.25 0c0-.06.38-.1.95-.1s.95.04.95.1-.38.1-.95.1-.95-.04-.95-.1Zm-9.3-.55c0-.13.19-.15 1.21-.15.92 0 1.2.03 1.17.13-.07.2-2.38.23-2.38.02Zm8.75.05c-.11-.17.17-.21 1.3-.18.76.02 1.1.07 1.13.16.05.15-2.33.18-2.43.02Zm-8.75-.6c0-.06.38-.1.95-.1s.95.04.95.1-.38.1-.95.1-.95-.04-.95-.1Zm9.3 0c0-.06.38-.1.95-.1s.95.04.95.1-.38.1-.95.1-.95-.04-.95-.1Zm.05-.5c-.04-.06.29-.1.92-.1.67 0 .93.03.83.1-.2.13-1.67.13-1.75 0Zm-9.3-.6c.03-.06.46-.1.96-.1.53 0 .89.04.89.1s-.39.1-.96.1c-.61 0-.93-.04-.89-.1Zm9.25 0c0-.06.36-.1.89-.1.5 0 .93.04.96.1.04.06-.28.1-.89.1-.57 0-.96-.04-.96-.1Zm-9.25-.5c-.04-.06.28-.1.9-.1s.94.04.9.1c-.03.06-.44.1-.9.1s-.87-.04-.9-.1Zm9.3 0c-.04-.06.28-.1.89-.1.57 0 .96.04.96.1s-.36.1-.89.1c-.5 0-.93-.04-.96-.1Zm-3.52-.59c-.04-.16-.13-.21-.39-.21-.49 0-.5-.14-.1-.96.5-1 .76-1.04.76-.11 0 .37.05.69.13.76.1.11.1.14 0 .18-.07.03-.13.13-.13.23 0 .27-.2.36-.27.11Zm-5.81-.03c.04-.1.59-.13 2.33-.13s2.29.03 2.33.13c.03.09-.48.12-2.33.12s-2.36-.03-2.33-.12Zm6.41 0c.03-.1.59-.13 2.37-.13s2.34.03 2.38.13c.03.09-.49.12-2.38.12s-2.41-.03-2.37-.12Zm24.02-.34c-.55-.08-1.08-.18-1.17-.24-.1-.05-.29-.1-.42-.1-.14 0-.28-.04-.31-.1-.03-.05-.16-.1-.29-.1-.12 0-.31-.07-.42-.15-.1-.08-.26-.15-.35-.15s-.28-.09-.42-.2-.32-.2-.41-.2c-.08 0-.2-.09-.26-.2s-.19-.2-.3-.2a.44.44 0 0 1-.32-.19.8.8 0 0 0-.35-.25c-.12-.04-.25-.16-.28-.27-.04-.1-.13-.19-.2-.19-.08 0-.2-.08-.27-.18-.07-.11-.23-.24-.35-.31-.13-.06-.23-.17-.23-.24s-.12-.25-.27-.4c-.6-.58-.73-.75-.73-.9 0-.09-.09-.21-.2-.27s-.2-.19-.2-.28c0-.1-.09-.25-.2-.35-.11-.09-.2-.25-.2-.36 0-.1-.07-.24-.15-.31a.46.46 0 0 1-.15-.3c0-.09-.07-.31-.16-.48-.08-.18-.13-.36-.1-.41s-.01-.14-.09-.21-.15-.25-.15-.41c0-.15-.05-.31-.11-.34-.06-.04-.09-.19-.08-.33.01-.15-.02-.35-.06-.45-.04-.09-.04-.28-.01-.41.03-.14.02-.27-.03-.3s-.07-.5-.05-1.03c.02-.54.04-1.11.04-1.27 0-.15.05-.35.11-.42.06-.08.09-.2.06-.28-.03-.07 0-.24.07-.38.07-.13.11-.29.08-.36-.02-.07.03-.24.12-.37s.16-.35.16-.49.05-.28.1-.31c.06-.03.1-.17.1-.29 0-.13.06-.29.14-.35.08-.07.18-.26.21-.42.04-.17.13-.33.21-.36s.14-.13.14-.23.07-.24.16-.31.19-.21.23-.3c.11-.3 1.03-1.31 2.07-2.29.11-.1.32-.24.47-.29.15-.06.27-.15.27-.21s.15-.18.33-.26c.17-.08.5-.26.72-.39.22-.14.47-.25.56-.25s.22-.07.29-.15.24-.15.38-.15.33-.06.41-.13c.23-.19 1.35-.47 2.08-.52.34-.02.66-.05.7-.08.09-.05.96-.02 1.93.07.73.07 2.2.42 2.35.57.05.05.19.09.31.09s.27.07.34.15.21.15.31.15c.16 0 .73.32 1.06.6.07.05.17.1.22.1.27 0 2.61 2.15 2.61 2.39 0 .06.09.15.2.21s.23.22.26.35c.03.14.1.25.16.25.05 0 .16.15.24.33.08.17.19.39.24.47s.16.33.25.55.22.54.29.7c.21.48.36 1 .36 1.21 0 .11.04.24.09.3.34.37.34 4.69 0 4.9-.05.03-.09.18-.09.34s-.04.32-.1.35c-.05.03-.1.19-.1.34 0 .16-.07.34-.15.41s-.15.23-.15.35-.07.28-.15.35a.48.48 0 0 0-.15.31c0 .11-.09.27-.2.36-.11.1-.2.23-.2.3 0 .12-.39.74-.65 1.03-.58.63-.75.84-.75.91 0 .04-.09.1-.19.14a.43.43 0 0 0-.26.25c-.03.1-.16.22-.28.26s-.3.17-.4.3-.24.24-.3.24c-.07 0-.18.09-.25.2s-.19.2-.27.2-.24.09-.35.2-.29.2-.39.2-.21.07-.25.15c-.03.08-.11.15-.18.15s-.26.07-.42.15c-.16.09-.37.17-.45.19-.09.01-.27.07-.41.13-1.21.5-3.32.7-5.05.47Zm-21.1-.14c-.04-.06.29-.1.92-.1.67 0 .93.03.83.1-.2.13-1.67.13-1.75 0Zm25.25-.59c6.58-1.71 9.78-9.36 6.38-15.23-4.02-6.96-14.28-6.81-18.04.26-3.36 6.32.33 13.92 7.36 15.15.96.17 3.33.07 4.3-.18ZM6.1 25.2c0-.06.39-.1.96-.1.61 0 .93.04.89.1-.03.06-.46.1-.96.1-.53 0-.89-.04-.89-.1Zm9.3 0c0-.06.38-.1.95-.1s.95.04.95.1-.38.1-.95.1-.95-.04-.95-.1Zm-9.2-.6c.2-.13 1.67-.13 1.75 0 .04.06-.29.1-.92.1-.67 0-.93-.03-.83-.1Zm9.25 0c.08-.13 1.55-.13 1.75 0 .1.07-.16.1-.83.1-.63 0-.96-.04-.92-.1Zm26.05-.54c0-.21-.05-.35-.11-.33-.35.07-.12-.24.28-.39.26-.09.53-.22.6-.27.15-.11.33-.01.33.19 0 .07.09.19.2.26.26.16.25.22-.03.35-.2.09-.23.08-.24-.1a.7.7 0 0 0-.19-.36c-.15-.15-.16-.14-.1.02.19.56.18.64-.11.75-.15.05-.36.13-.45.17-.15.06-.18.01-.18-.29Zm-35.4.04c0-.06.37-.1.9-.1s.9.04.9.1-.37.1-.9.1-.9-.04-.9-.1Zm9.3 0c0-.06.38-.1.95-.1s.95.04.95.1-.38.1-.95.1-.95-.04-.95-.1Zm-9.23-.46c-.2-.2.04-.24 1.16-.22.75.02 1.21.07 1.2.13-.03.11-2.25.2-2.36.09Zm8.7 0c-.18-.18.15-.24 1.24-.24s1.44.08 1.03.24c-.21.08-2.19.08-2.27 0Zm21.71-.09c-6.02-1.14-8.91-8.08-5.48-13.15 4.49-6.64 15.05-3.77 15.47 4.21.29 5.49-4.68 9.95-9.99 8.94Zm3.62-.26c6-1.53 8.28-9.34 4.01-13.82C39 3.99 29.86 7.64 29.85 15.2c0 5.56 4.98 9.45 10.35 8.09Zm2.94-.14c-.18-.28-.13-.55.11-.55.08 0 .15-.03.15-.08 0-.26.41-.31.62-.07.12.14.26.25.32.25.05 0-.02-.13-.17-.28l-.27-.28.6-.63c.33-.34.6-.66.6-.69 0-.04.12-.18.25-.31.14-.13.25-.27.25-.32s.1-.09.21-.09c.17 0 .19-.03.1-.14s-.07-.22.1-.5c.24-.41.34-.43.68-.17.41.31.05.91-.39.63-.33-.21-.37-.13-.05.13.38.31.17.67-.26.45-.24-.11-.24-.11.01.09.2.16.22.22.13.32-.1.1-.17.08-.36-.09-.34-.32-.46-.27-.14.06l.26.27-.25.32-.25.32-.37-.21-.37-.22.28.3c.32.35.17.83-.17.55-.09-.08-.19-.11-.23-.08-.03.04.02.09.11.13.19.07.22.24.03.24-.07 0-.18.09-.25.2-.15.25-.29.25-.56.03-.2-.18-.2-.18-.02.1.17.28.17.29-.01.43-.27.2-.51.17-.69-.11Zm-6.04.08c-7.26-1.14-9.65-10-3.85-14.29 4.28-3.16 10.09-1.69 12.32 3.13 2.48 5.37-2.61 12.09-8.47 11.16ZM6.1 23c0-.06.38-.1.95-.1s.95.04.95.1-.38.1-.95.1-.95-.04-.95-.1Zm9.3 0c0-.06.38-.1.95-.1s.95.04.95.1-.38.1-.95.1-.95-.04-.95-.1Zm24.08-.26c3.64-.75 6.35-4.05 6.35-7.74 0-3.13-2.07-5.86-5.28-6.97-1.51-.52-5.72-.25-5.14.33.13.12.26.11.99-.07 2.91-.74 6.2.53 7.88 3.05 3.59 5.37-1.91 12.59-8.23 10.78-3.71-1.07-6.14-5.54-4.85-8.93.24-.64.24-.69.06-.69-.08 0-.16-.06-.19-.12-.06-.18-.35.54-.54 1.32-1.22 5.15 3.7 10.12 8.95 9.04Zm-33.32-.22c-.03-.05.01-.13.1-.16.26-.1 1.62-.07 1.69.04.04.06-.14.1-.47.1-.29 0-.69.03-.89.06-.21.04-.39.02-.43-.04Zm9.31.02c-.22-.22.75-.33 1.54-.17.28.05.3.07.14.14-.24.09-1.59.11-1.68.03Zm24.38-.59c3.61-.91 6.07-4.96 5.12-8.45-.87-3.19-3.9-5.35-7.27-5.18-1.08.06-2.12.34-2.08.57.04.19.11.19 1.12-.08 4.09-1.08 8.24 2.36 8.03 6.64-.27 5.45-6.6 8.24-10.85 4.77-1.77-1.44-2.76-4.49-2.16-6.62.22-.78.22-.85-.01-.85-.61 0-.83 3.01-.31 4.5 1.24 3.59 4.84 5.6 8.41 4.7ZM6.1 21.9c0-.06.39-.1.96-.1.61 0 .93.04.89.1-.03.06-.46.1-.96.1-.53 0-.89-.04-.89-.1Zm9.3 0c0-.06.38-.1.95-.1s.95.04.95.1-.38.1-.95.1-.95-.04-.95-.1Zm24.35-.56c3.47-.9 5.85-5.17 4.5-8.06-.08-.18-.13-.24-.09-.13.35 1.18.41 2.07.19 3.1-.15.72-.77 2.15-.93 2.15-.05 0 .03-.26.18-.58.31-.63.5-1.27.49-1.57 0-.11-.07.06-.15.37-.15.64-.79 1.98-.94 1.98-.14 0-.13-.05.14-.58.94-1.86.96-3.65.04-5.51-.64-1.3-2-2.57-3.08-2.85-.14-.04.04.07.4.25 2.18 1.07 3.64 3.94 3.17 6.21-.17.82-.66 1.95-.98 2.24-.26.23-.24.13.11-.56.44-.87.36-.87-.1 0-1.17 2.2-3.5 3.25-5.85 2.65-2.86-.74-4.82-4.02-4-6.71.08-.27.15-.5.15-.51 0-.13-.75-.32-.81-.21-.22.36-.41 1.67-.36 2.45.29 4.09 4.05 6.88 7.92 5.87ZM6.1 21.3c0-.06.38-.1.95-.1s.95.04.95.1-.38.1-.95.1-.95-.04-.95-.1Zm9.35 0c.03-.05.46-.1.96-.1.53 0 .89.04.89.1s-.39.1-.96.1c-.61 0-.93-.04-.89-.1Zm21.1-.09c-2.71-.78-4.64-3.34-4.65-6.18 0-.97.16-.82.28.25.56 4.93 5.23 7.43 9.24 4.95.69-.43.88-.38.26.07-1.38 1.01-3.49 1.39-5.13.91Zm.47-.26c-2.61-.57-4.5-2.88-4.69-5.74-.08-1.19.11-1.18.22.01.38 4.44 4.95 7.01 8.46 4.77.57-.36.81-.38.49-.04-.79.84-2.97 1.32-4.48 1Zm-25.42-.02a.46.46 0 0 1-.3-.45c0-.22.26-.24.34-.03.09.26.36.18.36-.11 0-.17-.06-.28-.2-.31-.23-.06-.27-.33-.05-.33.09 0 .15-.09.15-.25 0-.29-.15-.33-.29-.07-.08.14-.12.15-.23.04-.19-.19.03-.46.41-.5.37-.04.57.31.42.71-.06.14-.06.3 0 .38.16.26.1.67-.13.83-.24.17-.25.17-.48.09Zm-5.45-.13c-.03-.06 0-.12.07-.15.26-.1 4.58 0 4.58.1 0 .14-4.56.19-4.65.05Zm6.45-.05c0-.13.29-.15 2.33-.13 3.11.04 3.09.22-.03.26-2.01.02-2.3 0-2.3-.13Zm-6.5-.55c0-.06.37-.1.9-.1s.9.04.9.1-.37.1-.9.1-.9-.04-.9-.1Zm9.3 0c0-.06.38-.1.95-.1s.95.04.95.1-.38.1-.95.1-.95-.04-.95-.1Zm24.05-.14c3.69-.98 4.89-5.68 2.15-8.45-1.23-1.24-3.19-1.8-4.9-1.4-.25.06-.54.12-.65.13-.3.04-1.06.5-1.39.85-.55.57-.02.61.8.06.37-.25.71-.45.75-.45s.05-.1.02-.22c-.05-.22-.05-.22.09-.05.12.17.19.18.54.08 2.97-.83 6.26 1.95 5.89 4.97-.48 3.93-5 5.6-7.81 2.9-1.84-1.76-2-4.18-.43-6.39.36-.51-.1-.72-.48-.22-2.93 3.82.78 9.44 5.42 8.19Zm-33.3-.36c-.04-.06.28-.1.9-.1s.94.04.9.1c-.03.06-.44.1-.9.1s-.87-.04-.9-.1Zm33.58-.4c2.74-1.05 3.64-4.53 1.78-6.87-.23-.29-.48-.53-.55-.53-.08 0-.16-.07-.19-.15-.28-.7-2.67-1.29-3.89-.94-.7.19-.45.66.26.48.82-.21 1.94-.08 2.73.32.37.19.74.33.81.33.06-.01.12.05.12.13 0 .09.18.36.4.6.98 1.06 1.23 2.89.58 4.21-.35.68-.49.59-.18-.11.62-1.4.29-3.41-.68-4.18-.4-.31-.47-.03-.11.42 1.09 1.37 1.01 3.15-.2 4.51-.41.46-.56.96-.26.84.42-.16.07.19-.41.41-2.15.98-4.41.19-5.45-1.92-.89-1.8-.12-4.27 1.61-5.15.43-.22.52-.52.16-.58-.29-.06-1.26.68-1.72 1.3-2.63 3.58 1.07 8.47 5.19 6.88ZM6.1 19.1c0-.06.37-.1.9-.1s.9.04.9.1-.37.1-.9.1-.9-.04-.9-.1Zm9.3 0c0-.06.38-.1.95-.1s.95.04.95.1-.38.1-.95.1-.95-.04-.95-.1Zm31.13-.12c-.24-.11-.28-.24-.17-.52.06-.17.44-.23.44-.07 0 .05.07.08.16.07.25-.02.41.29.25.48-.15.18-.36.19-.68.04Zm-6.99-.26c.34-.16.46-.26.46-.43 0-.16-.04-.19-.17-.14-1.51.66-2.62.58-3.7-.25-.75-.56-1.15-.41-.48.19 1.01.89 2.69 1.16 3.89.63ZM6.15 18.6c-.04-.06.28-.1.9-.1s.94.04.9.1c-.03.06-.44.1-.9.1s-.87-.04-.9-.1Zm9.3 0c-.04-.06.29-.1.92-.1.67 0 .93.03.83.1-.2.13-1.67.13-1.75 0Zm24.13-.61c1.87-.94 2.38-3.24 1.08-4.83l-.24-.28-.41.61c-.4.61-.41.63-.25.93.16.31.16 1.11-.01 1.51-.05.13-.02.17.14.17.35 0 .27.43-.14.79-.42.37-.52.38-.57.09-.02-.15-.09-.22-.18-.19-.42.11-1.22.12-1.53.02-.43-.15-1.67.49-1.46.75.71.85 2.34 1.05 3.57.43ZM6.1 18c0-.06.47-.1 1.2-.1s1.2.04 1.2.1-.47.1-1.2.1-1.2-.04-1.2-.1Zm8.7 0c0-.06.48-.1 1.25-.1s1.25.04 1.25.1-.48.1-1.25.1-1.25-.04-1.25-.1Zm-8.65-.6c.03-.06.44-.1.9-.1s.87.04.9.1c.04.06-.28.1-.9.1s-.94-.04-.9-.1Zm9.3 0c.03-.06.44-.1.9-.1s.87.04.9.1c.04.06-.28.1-.9.1s-.94-.04-.9-.1Zm19.94-.04c.08-.1.08-.16-.03-.25-.07-.06-.23-.34-.35-.61-1.26-2.94 1.75-5.79 4.61-4.37.7.34 1.05.34.76 0-.59-.72-2.8-.94-3.92-.39-2.01.99-2.78 3.58-1.6 5.38.26.41.35.45.53.24Zm1.02-.47.58-.31-.26-.39c-1.11-1.67.94-3.71 2.45-2.44l.3.25.29-.47c.48-.79.48-.8-.03-1.12-.85-.55-2.19-.59-3.14-.11-.42.22-.43.22-.19.34.42.2.49.64.15.93s-.67.15-.76-.32c-.05-.26-.05-.27-.22-.08-.76.84-.84 2.61-.17 3.7.25.4.27.4 1 .02ZM6.1 16.9c0-.06.39-.1.96-.1.61 0 .93.04.89.1-.03.06-.46.1-.96.1-.53 0-.89-.04-.89-.1Zm9.3 0c0-.06.38-.1.95-.1s.95.04.95.1-.38.1-.95.1-.95-.04-.95-.1Zm23.5-.35c.61-.32 1-1.48.69-2.07l-.11-.2-.15.21c-.08.12-.12.3-.08.41.19.61-.43 1.35-1.14 1.36-.48 0-.71.08-.71.24 0 .22 1.1.26 1.5.05Zm-32.74-.14c-.06-.09 1.49-.21 1.71-.13.07.02.1.08.07.13-.07.12-1.71.12-1.78 0Zm9.36.02c-.3-.12.05-.23.73-.23.82 0 1.15.07.93.21-.14.09-1.44.11-1.66.02Zm21.83-.23c.03-.05-.04-.26-.15-.47-.59-1.1.44-2.11 1.54-1.52.41.22.68.1.44-.19-.6-.72-2-.46-2.43.44-.36.75.2 2.39.6 1.74Zm1.43-.44c.55-.54.2-.67-.38-.14l-.55.51.35-.07c.19-.04.46-.17.58-.3Zm5.4-.83c-.05-1.15-.42-2.36-.89-2.93-.12-.16-.07.02.16.48.47.97.65 1.69.65 2.69 0 .46.03.83.06.83.04 0 .04-.48.02-1.07ZM6.1 15.8c0-.06.39-.1.96-.1.61 0 .93.04.89.1-.03.06-.46.1-.96.1-.53 0-.89-.04-.89-.1Zm9.3 0c0-.06.38-.1.95-.1s.95.04.95.1-.38.1-.95.1-.95-.04-.95-.1Zm22.96-.46c.62-.65.65-.78.24-.99-.85-.44-1.7.39-1.26 1.23.23.44.4.4 1.02-.24ZM6.1 15.25c0-.13.25-.15 1.65-.15 1.5 0 1.93.07 1.49.24-.38.14-3.14.07-3.14-.09Zm5.07.09c-.14-.15-.06-.34.38-.85.49-.57.58-.89.25-.89-.11 0-.2.07-.2.15s-.07.15-.15.15c-.26 0-.18-.49.1-.62.7-.32.95.46.4 1.22-.43.59-.43.6.01.6.24 0 .34.04.32.13-.05.13-.99.23-1.11.11Zm1.4 0c-.19-.2.25-.24 2.39-.24 1.84 0 2.35.03 2.32.13-.05.13-4.58.24-4.71.11ZM6.1 14.7c0-.06.39-.1.96-.1.61 0 .93.04.89.1-.03.06-.46.1-.96.1-.53 0-.89-.04-.89-.1Zm9.3 0c0-.06.38-.1.95-.1s.95.04.95.1-.38.1-.95.1-.95-.04-.95-.1Zm-9.3-.6c0-.06.36-.1.89-.1.5 0 .93.04.96.1.04.06-.28.1-.89.1-.57 0-.96-.04-.96-.1Zm9.35 0c.03-.06.44-.1.9-.1s.87.04.9.1c.04.06-.28.1-.9.1s-.94-.04-.9-.1Zm27.75-.67c-.69-2.17-2.86-3.82-5.05-3.83-.55-.01-.66-.03-.51-.12.18-.1 1.4-.07 1.96.06.14.03.06 0-.16-.08-.23-.08-.76-.17-1.18-.21-.98-.09-.98-.25 0-.25.99 0 1.5.13 2.64.68.52.25 1 .48 1.05.51.06.02.04-.03-.03-.11-.81-.99-3.74-1.52-5.44-.99l-.67.21.14.33c.09.21.2.31.32.3.1-.01.63-.07 1.18-.14 2.44-.3 4.89 1.26 5.62 3.57.09.29.18.52.21.5.02-.03-.01-.22-.08-.43Zm-37.1.17c0-.06.39-.1.96-.1.61 0 .93.04.89.1-.03.06-.46.1-.96.1-.53 0-.89-.04-.89-.1Zm9.3 0c0-.06.38-.1.95-.1s.95.04.95.1-.38.1-.95.1-.95-.04-.95-.1Zm-9.18-.46c-.06-.03-.1-.1-.06-.15.07-.12 1.71-.12 1.79.01.04.06-.09.1-.33.1-.22 0-.59.02-.83.05-.24.02-.5.02-.57-.01Zm9.23-.14c.08-.13 1.73-.11 1.81.01.03.05-.38.09-.91.09-.65 0-.94-.03-.9-.1Zm18.01-.66c.45-.76 1.39-1.69 2.07-2.02l.46-.23-.16-.34-.16-.34-.66.34c-.35.19-.67.32-.7.29-.08-.07.36-.39.81-.6.37-.17.48-.37.27-.49-.47-.3-3.75 2.91-3.56 3.49.09.26.28.12.58-.43.19-.34.37-.61.41-.61.12 0 .1.06-.23.71-.17.34-.29.62-.27.64.04.03.61.23.69.24.04.01.24-.29.45-.65Zm10.35-.11c-.53-.99-1.61-2.17-1.82-1.96-.06.06.05.22.28.44l.38.34-.3-.34c-.17-.18-.23-.32-.15-.29.23.07 1.24 1.32 1.56 1.93.16.29.3.52.32.5s-.1-.3-.27-.62Zm-37.71.28c0-.1 1.45-.18 2.13-.13.2.02.35.07.32.13-.08.12-2.45.12-2.45 0Zm8.83-.03c.04-.13 1.95-.22 2.24-.11.38.15 0 .23-1.08.23-.92 0-1.2-.03-1.16-.12Zm18.02-2.07c.35-.36 1.01-.91 1.49-1.21.47-.3.85-.57.85-.6.04-.86-2.61 1.13-3.7 2.79-.49.75-.49.75-.27.87.21.11.25.08.61-.53.22-.36.68-.95 1.02-1.32ZM6.1 11.9c0-.06.39-.1.96-.1.61 0 .93.04.89.1-.03.06-.46.1-.96.1-.53 0-.89-.04-.89-.1Zm9.3 0c0-.06.38-.1.95-.1s.95.04.95.1-.38.1-.95.1-.95-.04-.95-.1Zm14.03-.3c-.29-.12-.39-.48-.19-.68.15-.15.16-.15.16.03.01.2.01.2.15.01.1-.13.12-.23.05-.3-.27-.27-.09-.36.31-.16.46.24.48.53.07.98-.24.24-.24.24-.55.12ZM6.1 11.4c0-.06.39-.1.96-.1.61 0 .93.04.89.1-.03.06-.46.1-.96.1-.53 0-.89-.04-.89-.1Zm9.3 0c0-.06.38-.1.95-.1s.95.04.95.1-.38.1-.95.1-.95-.04-.95-.1Zm.17-.46c-.09-.03-.15-.1-.12-.15.08-.12 1.72-.12 1.8.01.04.06-.11.1-.37.1-.24 0-.59.02-.78.04-.19.03-.43.02-.53 0Zm14.5-.47c-.36-.21-.47-.4-.27-.52.05-.03.17-.21.25-.39.33-.68 1.17-1.49 1-.96-.04.11-.03.19.02.18.04-.02.18.04.3.13l.22.15-.46.58c-.33.41-.5.55-.62.5-.09-.03-.25-.09-.36-.11l-.2-.05.2.15c.11.09.26.17.33.17.13 0 .17.26.04.34-.04.02-.24-.05-.45-.17ZM6.1 10.3c0-.06.39-.1.96-.1.61 0 .93.04.89.1-.03.06-.46.1-.96.1-.53 0-.89-.04-.89-.1Zm9.3 0c0-.06.38-.1.95-.1s.95.04.95.1-.38.1-.95.1-.95-.04-.95-.1Zm-9.3-.55c0-.17 4.24-.23 4.34-.06.11.17-.28.21-2.3.21-1.75 0-2.04-.02-2.04-.15Zm5.56.07c-.02-.04-.03-.38-.01-.75.02-.52 0-.67-.11-.67-.2 0-.17-.24.04-.43.37-.33.42-.22.42.88 0 1-.12 1.33-.34.97Zm.91.02c-.19-.2.25-.24 2.39-.24 1.84 0 2.35.03 2.32.13-.05.13-4.58.24-4.71.11ZM6.1 9.2c0-.06.39-.1.96-.1.61 0 .93.04.89.1-.03.06-.46.1-.96.1-.53 0-.89-.04-.89-.1Zm9.3 0c0-.06.38-.1.95-.1s.95.04.95.1-.38.1-.95.1-.95-.04-.95-.1Zm15.95-.61c-.23-.28-.24-.34-.12-.52.19-.29.33-.32.4-.07.03.12.13.2.25.2.32 0 .36.19.11.46-.29.31-.32.3-.64-.07Zm-25.2.01c.03-.06.44-.1.9-.1s.87.04.9.1c.04.06-.28.1-.9.1s-.94-.04-.9-.1Zm9.3 0c.03-.06.44-.1.9-.1s.87.04.9.1c.04.06-.28.1-.9.1s-.94-.04-.9-.1ZM6.1 8.1c0-.06.39-.1.96-.1.61 0 .93.04.89.1-.03.05-.46.1-.96.1-.53 0-.89-.04-.89-.1Zm9.3 0c0-.06.38-.1.95-.1s.95.04.95.1-.38.1-.95.1-.95-.04-.95-.1Zm16.98-.34-.28-.35.31-.26c.52-.43.92-.61.85-.37-.09.28.29.75.39.49.05-.11.01-.25-.09-.36-.24-.27-.2-.35.29-.59.54-.26.65-.27.65-.07 0 .08.05.15.12.15.06 0 .08.03.05.07-.04.03-.02.13.05.2.09.11.09.17-.03.24-.21.13-.24.12-.43-.29-.18-.37-.19-.37-.29-.14-.09.2-.08.26.06.33.26.15.21.22-.37.58-.3.18-.62.41-.72.52-.23.25-.24.25-.56-.15ZM6.1 7.6c0-.06.39-.1.96-.1.61 0 .93.04.89.1-.03.06-.46.1-.96.1-.53 0-.89-.04-.89-.1Zm9.35 0c-.04-.06.28-.1.9-.1s.94.04.9.1c-.03.06-.44.1-.9.1s-.87-.04-.9-.1ZM6.1 7c0-.06.48-.1 1.25-.1s1.25.04 1.25.1-.48.1-1.25.1S6.1 7.06 6.1 7Zm8.7 0c0-.06.48-.1 1.25-.1s1.25.04 1.25.1-.48.1-1.25.1-1.25-.04-1.25-.1Zm.72-.47c-.32-.13.07-.23.89-.23.85 0 1.15.11.66.24-.26.07-1.37.07-1.55-.01ZM6.1 6.4c0-.06.36-.1.89-.1.5 0 .93.05.96.1.04.06-.28.1-.89.1-.57 0-.96-.04-.96-.1Zm0-.5c0-.06.38-.1.95-.1s.95.04.95.1-.38.1-.95.1-.95-.04-.95-.1Zm9.3 0c0-.06.38-.1.95-.1s.95.04.95.1-.38.1-.95.1-.95-.04-.95-.1Z"/></svg>