<svg xmlns="http://www.w3.org/2000/svg" width="51" height="51" viewBox="0 0 51 51"><path fill="#fff" fill-rule="evenodd" stroke="#fff" stroke-width=".695" d="M1.1 26.96c0-13.34.04-24.27.08-24.3.07-.04 36.87-.11 44.65-.08l3.97.02v24.3c0 16.13-.03 24.3-.1 24.3s-.1-8.11-.1-24.14c0-21.06-.02-24.15-.15-24.19-.19-.08-47.53-.08-47.83 0l-.22.05v22.87c0 21.97-.03 25.41-.22 25.41-.04 0-.08-10.91-.08-24.24Zm21.35 20.5c-9.56-2.07-15.69-7.6-18.2-16.41C1.06 19.86 8.36 7.12 19.6 4.26c.47-.12.9-.24.95-.28.06-.03.3-.09.55-.13s.55-.13.68-.22c.3-.19 7.34-.22 7.57-.03.08.06.4.18.72.25 8.96 2.02 15.33 8.49 17.23 17.51.31 1.49.28 1.69-.32 1.69-.27-.01-4.05-.02-8.42-.03L30.63 23l-.42-.65C27.24 17.77 20 20.01 20 25.52c0 4.27 4.83 7.1 8.34 4.88.26-.17.53-.3.61-.3.17 0 1.31-1.25 1.48-1.62.06-.16.2-.28.29-.28s.21-.06.25-.13c.12-.19 16.26-.08 16.45.11.17.17.19 19.25.02 19.42-.08.08-2.39.09-8.43.04l-8.33-.07-.09-.24c-.11-.28-.09-.28-1.44.03-1.67.39-5.1.44-6.7.1Zm6.58-.37c1.62-.33 1.77-.32 1.77.06v.25h7.32c6.47-.01 7.31-.02 7.14-.15-.11-.08-.16-.15-.12-.15.05 0 .03-.07-.04-.15-.11-.13-1-.15-6.88-.15h-6.76l-.21-.27-.22-.26-1.44.26c-2.94.54-4.47.58-6.95.17-6.65-1.09-11.52-4.21-15.03-9.64-1.85-2.87-3.31-7.42-3.31-10.38v-.78H5v-.55c0-.54 0-.55-.3-.55-.34 0-.33.03-.31-1 .07-2.95 1.43-7.04 3.28-9.85 3.48-5.29 8.06-8.25 14.54-9.4A47 47 0 0 0 24 4.21c.59-.13 2.64-.13 3.15 0 .22.06.94.19 1.61.29 8.9 1.37 15.65 7.75 17.68 16.71.03.15.21.38.4.52l.34.26-.2-.87c-1.95-8.79-8.16-15-17.03-17.03-.22-.05-.51-.15-.64-.22-.34-.17-6.97-.17-7.32 0-.13.07-.8.26-1.49.43-8.7 2.17-14.98 9.02-16.55 18.05-1.07 6.2 1.35 13.51 6.08 18.34 5.04 5.15 12.63 7.71 19 6.4Zm-.18-.69c1.79-.34 2.29-.37 2.51-.11l.18.21H46.4l.02-8.7.03-8.7h-7.3c-4.01 0-7.46-.03-7.65-.05-.33-.05-.37-.03-.8.56-2.26 3.09-6.31 3.55-9.31 1.05-1.3-1.08-1.95-2.18-2.46-4.16l-.09-.35-7.13.02c-3.93.01-7.16.05-7.19.08-.09.09.18 2.25.44 3.5 1.06 4.99 3.67 9.28 7.54 12.4 4.32 3.48 11.12 5.25 16.35 4.25Zm18.45-9.05V28.3h-.48c-.39 0-.53.05-.72.25l-.23.25h.29c.57 0 .54-.52.52 8.64l-.01 8.48.29.23c.16.14.3.24.32.25.01 0 .02-4.07.02-9.05Zm-20.43-5.47.46-.11-.34-.18c-.39-.21-2.49-.28-2.49-.08 0 .49 1.16.68 2.37.37Zm-3.12-.4c-.08-.28-.27-.43-1.06-.88-1.82-1.01-2.9-2.87-2.96-5.1-.02-.97-.06-1.17-.22-1.34-.19-.19-.2-.18-.31.23-.09.36-.14.41-.4.41-.35 0-.36.02-.45.63l-.07.47h.8l.17.78c.44 2.03 1.87 3.82 3.77 4.72.76.36.81.37.73.08Zm4.48-.09a7 7 0 0 0 .76-.47l.34-.25-.26-.13c-.23-.12-.3-.11-.83.21-.31.19-.72.38-.91.41-.39.07-.42.17-.1.32.33.16.53.14 1-.09Zm1.91-1.5c.32-.36.46-.6.46-.8 0-.28-.03-.26-.69.44-.38.39-.67.75-.64.79.12.2.45.03.87-.43Zm15.61-1.29c.1-.11.15-.23.11-.28-.1-.1-14.36-.15-14.37-.05a3 3 0 0 0-.04.31l-.02.22h7.07c6.95 0 7.07 0 7.25-.2Zm-27.69-2.84c.01 0 .04-.22.06-.48l.06-.48h-6.44c-6.31 0-6.44 0-6.44.19 0 .11.04.22.09.26.05.03.13.19.16.36l.07.31 6.21-.07c3.42-.04 6.23-.08 6.23-.09Zm1-1.88c.25-1.08 1.58-3.28 1.99-3.28.22 0 .18.13-.11.41-.36.34-1.1 1.48-1.36 2.08l-.21.52.23.24.23.25.27-.68c1.74-4.48 7.82-5.14 10.4-1.12.25.39.35.46.54.43.54-.11-1.25-2.19-2.44-2.85-1.53-.85-3.64-.97-5.35-.32-.09.04-.15 0-.15-.09 0-.55 3.33-.76 4.64-.29 1.22.44 2.55 1.5 3.16 2.5l.25.41 7.35.01c8.21 0 7.84.02 7.75-.49-1.48-8.47-8.7-15.52-17.15-16.76-.63-.09-1.37-.23-1.64-.31-.66-.19-3.22-.19-3.73 0-.21.08-.9.22-1.53.31-6.11.89-11.22 4.26-14.52 9.57-1.6 2.59-2.82 6.25-3.04 9.16l-.07.92 7.18-.02 7.18-.03zm27.19-1.18c.03-.05-.07-.15-.22-.22-.39-.18-14.66-.13-14.6.05.03.09 1.49.13 5.68.17 3.1.03 6.41.06 7.36.08 1.01.01 1.74-.02 1.78-.08Z"/></svg>