<svg xmlns="http://www.w3.org/2000/svg" width="51" height="51" viewBox="0 0 51 51"><path fill="#fff" fill-rule="evenodd" stroke="#fff" stroke-width=".461" d="M34.96 51.03c-.14-.14-.01-.4 1-1.93.58-.88 1.26-1.98 1.5-2.45l.45-.84-.36-.15c-.24-.1-.36-.21-.35-.33.04-.34 0-.42-.36-.64s-.37-.22-.51-.03c-.13.18-.14.17-.08-.08.06-.23.02-.29-.42-.54-.26-.15-.82-.46-1.23-.7l-.74-.43-.23.41c-.13.22-.46.69-.74 1.04l-.5.63.41.21c.22.11.4.23.4.26s-.19-.05-.43-.18l-.44-.25-.69.66c-.92.88-1.5 1.31-4 2.99-2.33 1.56-2.43 1.6-2.94 1.07-.36-.37-.54-.41-1.43-.29-.3.04-.48.12-.5.23-.04.14-.05.13-.06-.01-.01-.16-.14-.18-1.22-.18-1.9 0-3.23-.57-4.43-1.91-.51-.56-1.02-1.36-.93-1.45.03-.03.12.07.2.23.19.37 1.31 1.43 1.51 1.43.16 0 .93-.77 1.12-1.12.09-.16.08-.27-.02-.47-.08-.14-.14-.35-.13-.46 0-.13.05-.07.16.18.19.47.27.47.42-.02.31-1.07 1.42-1.1 1.46-.05.04.77-.71 1.16-1.27.67-.2-.18-.35.18-.23.59.06.21.05.22-.08.05-.14-.17-.16-.16-.37.18a2 2 0 0 1-.46.52c-.32.2-.3.26.11.46.47.22.61.22.44 0-.11-.15-.11-.16.01-.05.23.2.4.14.56-.2.14-.32.15-.32.09-.05-.04.19-.02.26.05.22.05-.03.1-.02.1.03s-.14.15-.31.23c-1.05.43 2.02.88 3.82.56l.66-.12-.47-.67-.47-.67-.18.39c-.1.21-.15.48-.12.6.03.11.01.18-.04.14-.14-.08-.11-.39.07-.84.15-.38.15-.45-.01-1.01-.17-.64-.15-1.27.08-1.82.1-.24.12-.13.12.76v1.05l.5.72c.65.97 1.55 1.9 1.81 1.9.23 0 3.29-1.95 4.48-2.85.99-.75 2.1-1.78 2.72-2.54l.53-.64-.33-.41c-.57-.71-1.36-2.15-1.02-1.87.08.07.28.36.45.64.16.29.48.72.69.97l.4.45.16-.35.15-.35-.43-.45c-1.68-1.79-1.77-1.96-2.07-3.74-.15-.86-.19-.89-.5-.43-.34.48-1.49 1.85-2.03 2.41-.27.27-.41.46-.32.43.31-.12.15.02-.42.37-.75.45-3.52 1.58-4.74 1.92-1.35.39-1.32.36-1.25 1.04.06.68-.28 1.1-.88 1.1-.03 0-.03-.47.01-1.05.17-2.54-1.29-2.86-2.06-.44-.11.35-.28.73-.36.84l-.17.2.07-.2c.25-.69.36-1.42.36-2.3.01-1.07.12-1.12.25-.1.06.51.09.57.19.4.22-.39.65-.75.96-.81.21-.05.29-.11.26-.21-.03-.07-.2-.56-.38-1.09-.36-1.07-.41-1.09-.84-.3-.17.31-.46.72-.65.91-.19.18-.58.71-.86 1.17-.77 1.25-1.39 1.95-2.33 2.65-.47.35-1.21.91-1.64 1.25-.44.35-.9.69-1.03.76-.34.19-.18 1.13.46 2.7.34.84.32.93-.04.23-.42-.84-.77-2.19-.7-2.73.03-.27.01-.49-.05-.53-.35-.22.01-1.49.63-2.23.44-.53 2.69-2.53 2.76-2.46.03.03-.58.67-1.36 1.42-1.49 1.45-1.82 1.93-1.83 2.64 0 .2.04.39.09.43.24.14 3-2.45 4.4-4.15l.71-.85-1.08-.12c-1.31-.15-2.35-.4-2.64-.63-.21-.17-.22-.17-.55.83-.43 1.28-.87 2.12-1.86 3.51-1.06 1.49-2.02 3.76-2.42 5.68-.04.23-.11.28-.34.28-.41 0-.41-.01-.1-1.23.16-.62.29-1.14.29-1.17s-.2.29-.44.71c-.52.91-1.02 1.65-1.18 1.75-.07.04-.03-.08.08-.27.92-1.56 1.47-2.64 2.23-4.4.48-1.12 1.13-2.6 1.44-3.29 1.11-2.49 1.47-4.32 1.02-5.2l-.29-.55-.17 1c-.38 2.23-.76 3.28-1.95 5.4-1.65 2.95-4.43 7.25-4.7 7.25-.23 0-.16-.18.35-.93 2.41-3.54 4.03-6.38 4.78-8.35.27-.73.26-.77-.19-.68-.36.07-.56.39-2.68 4.31-1.03 1.91-1.71 3.08-2.01 3.45l-.2.25.16-.34c.09-.18.38-.7.64-1.15.27-.44.98-1.73 1.58-2.86.61-1.13 1.29-2.36 1.52-2.75.22-.38.36-.71.31-.73-.39-.14-2.74.7-4.58 1.62-1.19.6-1.24.65-2.45 2.61-.3.5-.66.99-.78 1.1l-.23.2.17-.25c.09-.14.42-.68.73-1.2 1.3-2.18 1.49-2.34 4.08-3.48.56-.24 1.02-.45 1.04-.47s-.19-.32-.46-.67C-.68 31 .2 17 8.81 8.64c11.07-10.73 28.67-8.7 37.13 4.28 4.79 7.35 4.8 18.23.02 25.45-.48.72-.63 1.64-.47 2.76.35 2.42.58 8.31.35 8.91-.08.22-.21.2-.29-.04-.09-.28-.81-.75-1.69-1.1-1.05-.42-.99-.46-1.33.83l-.29 1.12-.42.03c-.23.02-.42.01-.42-.02 0-.02.18-.71.4-1.53.93-3.48 1.9-8.71 2.23-11.98.02-.22.04.09.05.68.02 1.13-.19 3.44-.43 4.87-.19 1.09-.18 1.18.06.5.61-1.7 2.29-10.34 2.71-13.95.36-3.08.1-10.23-.43-11.85-1.1-3.37-4.77-6-7.33-5.26-.79.23-.73.43.22.67 2.35.59 3.99 2.68 5.41 6.89.95 2.82 1.22 9.53.6 15.08-.16 1.43-.22 1.21-.1-.34.63-7.87.04-12.86-2.01-16.87-1.52-2.98-2.26-3.73-4.27-4.32-.43-.13-.77-.32-1.1-.6-1.2-1.08-3.11-2.36-4.16-2.79l-.4-.17.31.33c1.23 1.34 1.58 1.76 2.1 2.54.8 1.2 1.55 2.67 1.98 3.91.19.57.45 1.15.56 1.31.63.85 1.89 4.56 2.55 7.49.25 1.09.58 2.48.74 3.08 1.03 3.87.53 7.52-1.91 13.99-.27.74-.48 1.44-.47 1.65.02.76 1.21-2.18 2.21-5.44.17-.56.17-.57.12-.15-.16 1.15-1.3 4.38-2.31 6.55-.76 1.64-3.08 5.53-3.34 5.63-.05.02-.15.1-.23.17-.07.08-.16.11-.2.08Zm-2.56-.4c1.66-1.19 2.66-2.62 3.41-4.88.29-.89.29-.89.64-.46l.3.36-.3-.23-.29-.23-.37 1.08c-.77 2.31-1.8 3.67-3.34 4.39l-.3.14zm4.2.13c0-.02.52-1.05 1.16-2.3 3.5-6.84 4.42-9.97 4.89-16.61.23-3.33.23-3.35.19-1.1-.08 4.14-.77 8.18-1.9 11.21-1.08 2.91-4.34 9.52-4.34 8.8Zm8.94-2.08c-.02-.4-.06-1.77-.08-3.03-.03-1.26-.12-2.77-.2-3.35-.09-.58-.16-1.09-.16-1.15-.02-.26-.93 2.75-.94 3.1 0 .22.08.9.17 1.5.1.61.21 1.54.24 2.07l.06.97.41.3c.55.4.53.41.5-.41Zm-7.28.17c.1-.16.54-.86.97-1.55 1.83-2.92 2.41-4.14 2.81-5.93.8-3.54 1.19-6.46 1.4-10.42l.13-2.4.01 1.6c.03 4.11-1.05 11.31-2.01 13.39-.7 1.51-2.54 4.54-3.22 5.31l-.27.3zm6.1-1.78c-.09-.72-.21-1.61-.27-1.96l-.11-.63-.29.58c-.17.36-.38 1.07-.52 1.81l-.23 1.21.75.3c.92.36.88.44.67-1.31Zm-33.1-2.69c.71-1.5 1.73-5.04 1.54-5.37-.11-.2-.12-.17-.4 1.2-.21 1.01-.9 3.2-1.38 4.37-.32.76-.17.64.24-.2Zm26.97-.9c.85-1.92 1-2.59 1.56-6.88.17-1.29.33-2.5.36-2.69.02-.19.09-.37.15-.41.07-.04.09-.59.07-1.61-.02-1.06-.05-1.46-.12-1.29-.05.14-.25.59-.46 1-.34.7-.37.83-.43 1.95-.1 2.01-.55 4.22-1.26 6.18-.4 1.09-.46 1.09-.14-.01.46-1.59.92-4.15 1.1-6.11l.06-.73-.61.43-.61.43v.85c0 1.11-.13 2.29-.5 4.71-.17 1.07-.32 2.2-.34 2.5s-.11.86-.2 1.23c-.09.38-.16.7-.16.71 0 .06.93.76 1 .76.04 0 .28-.46.53-1.02Zm-15.08-.98c.66-.18.83-.26.75-.36-.08-.09.02-.25.38-.61.44-.44.97-1.26 1.91-2.97l.33-.59-.29.22c-.49.38-1.75 1.21-1.84 1.21-.17 0-.09-.09.38-.42 1.21-.83 2.6-2.37 1.76-1.95-1.41.72-4.27 1.56-5.8 1.72l-.72.07.19.51c.1.29.42 1.26.7 2.18l.52 1.65.44-.22c.24-.12.82-.32 1.29-.44Zm12.94-.15c.37-.18.51-.31.55-.52.11-.57.76-4.9.76-5.1 0-.15-.23.03-.92.74-1.44 1.46-2.91 2.44-4.05 2.68-.4.08-.4.12-.04.62 1.22 1.69 2.45 2.22 3.7 1.58ZM25.8 41.1c2.38-1.4 4.93-4.6 7.1-8.92.56-1.11.99-1.89.95-1.73-.49 2.25-4.44 8.13-6.76 10.06-.41.34-.76.64-.79.67-.03.02.15-.06.4-.18 1.29-.64 4.17-4.22 5.93-7.35 1.19-2.13 1.51-3.04 1.77-5.04l.12-.94-.69-.71c-.38-.39-.93-.97-1.22-1.29-.29-.31-.5-.49-.46-.38 1.16 3.67 1.25 4.34.52 3.99l-.35-.17-.07.37c-.25 1.34-1.16 3.42-2.07 4.74-.56.81-2.45 2.98-2.59 2.98s-.1-.16.06-.3c.96-.79 3.34-4.74 4.08-6.75.43-1.17.45-1.05-.28-1.63-.78-.63-.75-.63-.77-.04l-.01.47-.06-.49c-.05-.39-.11-.51-.29-.57-.28-.1-.18-.37-.91 2.56-.62 2.53-1.36 5-1.78 6-.14.33-.26.67-.27.77-.01.09-.07.22-.13.3-.06.07-.29.51-.5.98-.22.47-.74 1.35-1.15 1.97-.82 1.21-.81 1.24.22.63Zm-17.14-.28c.55-.17 1.23-.36 1.5-.42l.5-.11.12-.55.11-.55-.6-.72c-4.12-4.9-5.63-11.78-3.94-18.04C10.22 6.02 27.72.89 39.05 10.85c.52.46.83.65 1.2.74 2.74.68 5.05 2.42 6.17 4.66 1.51 2.98 1.63 9.35.32 16.42-.8 4.36-1.03 5.67-1 5.71.18.18 1.89-3.45 2.52-5.34C53.2 18.07 42.27 2.45 26.5 1.93 8.75 1.36-3.28 19.38 4.01 35.64c.88 1.97 3.23 5.63 3.54 5.52.06-.02.55-.17 1.11-.34Zm8.41-.34c-.03-.07-.22-.49-.41-.94-.44-.99-.66-2.57-.49-3.45.11-.53.11-.53-.32-1.14-.23-.33-.58-.87-.76-1.2l-.34-.6-.07.4c-.41 2.31.48 6.95 1.33 6.95.35 0 .35.01.03-.61-.51-1.02-.84-2.98-.66-4.04.07-.44.09-.34.14.8.09 1.77.63 3.69 1.1 3.88.25.1.5.07.45-.05Zm.6.04c.09-.06.04-.2-.18-.52-.83-1.23-1.02-2.08-.65-2.93.17-.38.16-.4-.09-.82-.4-.69-.45-.65-.45.37.01 2.18.75 4.29 1.37 3.9Zm-2.43-.9c-.74-1.71-1.02-3.92-.75-5.91.13-.95-.02-2.03-.21-1.52-.67 1.83-.14 6.43.93 7.92.36.51.38.31.03-.49Zm2.9.43c-.15-.38-.19-1.22-.05-1.44.06-.08.07.03.04.3-.05.54.17 1.34.37 1.34.08 0 .27-.22.42-.5.15-.27.39-.6.54-.73.31-.27.33-.26-.39-.41-.37-.08-.7-.23-.92-.42-.18-.16-.35-.26-.37-.22-.03.05-.04.03-.02-.03.01-.06-.13-.32-.31-.58l-.33-.47-.11.32c-.29.82-.08 1.68.67 2.81.34.51.68.54.46.03Zm-3.52-.22c-.11-.15-.32-.55-.46-.88-.21-.47-.25-.52-.2-.25.1.53-.02.34-.3-.5-.59-1.77-.53-5.78.11-6.77.18-.27.11-1.68-.1-2.09-.22-.42-.67-1.91-.67-2.2 0-.45-.18-.28-.74.71-.64 1.13-.98 2.27-1.02 3.45l-.04 1.05.19-.85c.21-.94.47-1.7.81-2.43.34-.72.33-.51-.02.39-.37.95-.68 2.38-.68 3.14 0 2.26 1.46 6.02 2.81 7.25.46.41.61.4.31-.02Zm18.2-.24c1.41-.47 3.31-1.99 4.52-3.61.26-.35.56-2.18.34-2.18-.03 0-.19.05-.35.11-1.16.44-2.59.05-3.16-.86l-.34-.54-.22.46c-.3.63.28 1.13 1.31 1.13.29 0 .29 0-.33.72-.34.4-.93 1.14-1.31 1.65s-.71.93-.74.93c-.16 0 1.31-2.03 1.97-2.73.46-.48.45-.43.12-.5-.22-.04-.39.06-1.05.67-.44.39-1.04.88-1.34 1.08-.74.5-1.09 1.01-.95 1.37.06.14.2.69.31 1.21.33 1.51.23 1.43 1.22 1.09ZM11.3 37.08c.1-.65.09-.87-.05-1.5-.14-.6-.41-2.66-.46-3.43-.03-.49-.4 1.4-.46 2.33-.07 1.17-.18 1.39-.29.56-.1-.83 0-2.09.26-3.16l.23-.94-.37-.99c-1.37-3.76-1.02-8.22.86-10.88.11-.15.17-.27.13-.27-.25 0-2.75 4.66-3.29 6.15l-.25.68.2.5c.22.56.19.69-.12.41-.28-.25-.53-.75-.8-1.6-.3-.96-.31-.97-.45-.19-.18 1.09-.33 1.55-.5 1.55-.11 0-.13.09-.09.38.02.2.07.73.1 1.17.25 3.37 2.07 7.69 4.45 10.55l.54.64.13-.59c.06-.33.17-.94.23-1.37Zm29.34.37c.82-2.86.93-6.92.24-9.2l-.12-.4-.08.55c-.05.3-.1 2.15-.12 4.1-.01 1.99-.07 3.88-.13 4.3-.31 2.03-.24 2.23.21.65Zm-18.53.51c3.13-.8 5-2.05 5.67-3.79.72-1.86.86-2.49.39-1.78-.6.91-2.24 2.12-2.86 2.11-.09-.01.07-.12.34-.25 1.76-.85 2.9-2.56 3.64-5.48.47-1.83.46-1.79.09-2.18l-.33-.34-.06.65c-.06.74-.05.78.16.6.43-.36.19.06-.32.55-1.08 1.06-2.32 1.36-3.5.86-.52-.23-.98-.62-.98-.85 0-.07-.14-.25-.32-.4l-.32-.27.05.38c.03.21.13.65.21.98.28 1.08.28 1.13 0 1.26-.65.29-3.14-1.63-4.69-3.61-.24-.31-.28-.32-.33-.15-.04.11-.24.66-.46 1.21-.58 1.46-.6 1.69-.15 2.34.32.46.45.8.32.8-.03 0-.25-.25-.5-.56-.54-.65-.59-1.07-.26-2 .17-.51.18-.55.02-.49-1.3.53-2.45.11-3.23-1.2l-.24-.4-.06.3c-.37 1.72.27 4.78 1.51 7.24.57 1.15 1.89 3.47 2.21 3.9.56.76 2.29 1.01 4 .57Zm11.08-3.06c.89-.72.91-.74.69-.87-.49-.27-.98.13-1.62 1.27-.34.63-.28.6.93-.4Zm-13.82-.1c-.63-.11-1.29-.51-1.69-1.02a8 8 0 0 0-.67-.74c-.33-.32-.38-.72-.08-.61.06.02.36-.09.65-.25.52-.3.54-.3 1.18-.17.51.1.74.1 1.1.01.67-.18.78-.16 1.51.31.78.5 1.41.77 1.81.77.51 0 .69.35.23.45-.19.04-.38.2-.54.44-.5.75-1.95 1.09-3.5.81Zm2.34-.42c.37-.12.89-.45.89-.57 0-.06-1.32-.2-4.25-.47l-.6-.05.29.3c.69.73 2.64 1.14 3.67.79Zm16.07-1.24c2.24-1.11 3.13-6.88 1.24-8.06-2.1-1.31-4.71 3.01-4.02 6.66.28 1.51 1.41 2.08 2.78 1.4Zm-15.51.01c-.22-.07-.65-.29-.97-.49-.61-.38-.98-.44-1.6-.26-.26.07-.48.06-.87-.05-.5-.15-.54-.14-.97.07-.61.29-.58.35.21.43 1.59.14 2.71.27 3.08.35.22.04.65.08.95.08l.55.01zm14.37-.39c-2.2-.97-.94-6.96 1.45-6.96 1.06 0 1.53.68 1.59 2.3.1 2.72-1.58 5.3-3.04 4.66Zm.95-.7c1.19-.62 1.97-3.6 1.35-5.16-.6-1.49-2.3-.18-2.79 2.17-.45 2.12.26 3.6 1.44 2.99Zm-26.65-3.02c.17-1.17.52-2.19 1.11-3.29.24-.44.49-.93.54-1.1l.11-.3-.28.32c-.86.99-1.57 2.93-1.69 4.58-.08 1.16.02 1.07.21-.21Zm12.63.14c-.08-.18-.33-.62-.56-.98-1.26-1.93-2.53-5.71-2.65-7.85l-.05-1 .14 1c.28 1.96 1.14 4.75 2.02 6.52.58 1.18.91 1.64.72 1.01-2.1-7.04-2.24-9.64-.72-13.13.36-.84 1.63-2.99 1.71-2.91.02.02-.15.34-.37.7-2.32 3.78-2.7 6.72-1.51 11.46.28 1.08.87 2.88.75 2.26-.93-4.77-.58-9.64.92-12.48.51-.97.5-.8-.02.43-.89 2.11-1.14 3.36-1.19 6.04-.02.94-.02 1.48 0 1.2.17-2.13 1-6.22 1.41-6.95.13-.24.14-.23.08.15-.51 3.62.55 6.87 3.04 9.35 2.44 2.43 5.05 4.79 5.17 4.67s-.18-.46-1.04-1.2c-.49-.42-1.13-1.04-1.43-1.39s-.99-1.12-1.54-1.73c-.56-.6-1.2-1.34-1.43-1.64-1.36-1.72-2.39-5.58-2.14-8.01.07-.72.08-.69.14.8.17 3.94 1.04 6.03 3.73 8.95.55.61 1.18 1.3 1.38 1.55.36.44 2.09 2.02 2.14 1.96.09-.09-.91-4.57-1.21-5.45-.49-1.44-.39-1.37.18.11.27.68.57 1.39.69 1.58.32.54.69 1.01.75.96.03-.03 0-.11-.05-.18-.29-.35-1.05-3.14-1.67-6.11-.85-4.03-1.59-6.15-2.92-8.37-.39-.65-.13-.36.36.4 1.15 1.8 1.94 4.07 2.75 7.95.98 4.64 1.55 6.23 2.78 7.74.86 1.07.89 1.01.56-1.16-.11-.74-.18-1.37-.16-1.4.04-.04.22.89.43 2.27l.06.35.24-.48c.58-1.14.64-4.48.13-7.14-.96-5-4.27-8.93-8.39-9.97-3.71-.94-4.77-.78-6.9 1-1.46 1.22-6.36 6.17-7.13 7.19-2.07 2.77-3.28 7.1-2.87 10.31.18 1.5.23 1.54.55.49.59-1.96.96-2.68 2.44-4.7.85-1.17.98-1.41 1.31-2.4.34-1.02.84-2.28 1.32-3.35.32-.7 1.48-2.79 1.59-2.86.06-.03-.28.7-.75 1.63-.95 1.89-1.52 3.26-1.91 4.58-.4 1.37-.54 1.72-1.05 2.8-.26.55-.56 1.25-.65 1.55-.1.3-.27.73-.38.95-.25.49-.68 1.77-.63 1.83.03.02.14-.14.25-.36.11-.21.36-.61.57-.87.32-.43.36-.53.31-.9-.06-.43.07-.77.73-1.9.16-.27.28-.54.26-.6s.09-.23.24-.4c.14-.16.32-.5.39-.75.14-.49 1.2-3.28 1.71-4.5.17-.41.52-1.29.77-1.95.65-1.7 1.35-3.13 1.77-3.6l.37-.4-.4.64c-1.34 2.12-1.6 6.36-.65 10.34.38 1.57 1.82 3.86 3.18 5.02.74.63.77.55.12-.31-1.06-1.41-1.88-3.53-1.85-4.79l.02-.5.08.63c.34 2.63 2.76 6.57 4.07 6.62.01 0-.04-.15-.11-.32Zm22.35-2.38c-.04-5.71-.71-9.44-2.11-11.74-.53-.87-.43-.85.14.03 1.46 2.25 2.32 7.64 2.06 12.86-.07 1.45-.08 1.4-.09-1.15Zm-32.22.16-.05-1.99-.22.39c-.3.55-.36 1-.23 1.75.1.56.5 1.96.54 1.87 0-.02-.01-.92-.04-2.02Zm13.31 1.64c1.1-.31 1.71-2.08.99-2.85-.28-.3-.34-.27-.21.08.12.31 0 .41-.62.52-.39.08-.42.11-.28.33.06.1.22.11.6.06l.52-.07-.07.29c-.3 1.28-1.54 1.86-2.35 1.08-.7-.67-.56-1.31.27-1.2.27.03.48 0 .6-.09.24-.17.1-.23-.66-.27-.59-.03-.64-.1-.46-.68l.08-.25-.26.25c-1.2 1.17.18 3.26 1.85 2.8Zm-9.04-1.56c.12-.08.28-.24.34-.36l.12-.23-.24.21c-.75.67-1.57.46-2.08-.53-.25-.5.36-.86.94-.56.29.16.66.14.72-.03.04-.11-.79-.32-1.47-.36-.45-.04-.49-.27-.17-.91.28-.54.18-.72-.2-.35-1.27 1.28.56 4.08 2.04 3.12Zm12.26-1.86c-2.92-4.75-3.94-7.25-4.68-11.46-.25-1.42-.5-2.72-.55-2.91s-.08-.37-.06-.39c.11-.1.53 1.71.86 3.68.54 3.24 1.34 5.29 3.65 9.4 1.46 2.6 1.57 2.8 1.52 2.8-.03 0-.36-.51-.74-1.12Zm12.68-.15c-.94-3.55-2.36-6.74-3.91-8.77-.77-1-.84-1.13-.41-.66 1.79 1.94 3.57 5.69 4.45 9.38.38 1.57.28 1.61-.13.05Zm-5.42-.48.51-.17v-.81c-.01-8.26-3.77-14.15-9.87-15.47-1.76-.38-7.67-.26-8.12.16-.02.02.56.01 1.3-.02 1.24-.06 3.84.19 4.45.43.09.03.14-.02.14-.15 0-.11.08-.26.18-.33.14-.11.15-.11.04.01-.29.33-.15.46.87.74 5.96 1.67 9.88 9.25 8.64 16.71l-.06.4.7-.66c.5-.47.86-.72 1.22-.84Zm3.52.3c-.77-3.88-1.94-7.24-3.17-9.07-.3-.45-.45-.73-.33-.62.57.52 1.72 2.63 2.19 4.04.68 2.03 1.64 6.03 1.58 6.57-.02.16-.14-.25-.27-.92Zm3.39.22c-.39-2.44-1.51-5.87-2.55-7.82-.15-.27-.19-.41-.1-.3.86 1.01 2.45 5.59 2.75 7.93.15 1.17.08 1.3-.1.19Zm-33.6.46c-.01-.4 2.91-6.21 4.17-8.31.99-1.65 2.78-4.37 2.93-4.47.18-.11.02.17-1.35 2.3-1.75 2.74-1.81 2.84-3.87 6.9-1.03 2.03-1.87 3.64-1.88 3.58Zm14.29-1.19c.49-.22.49-.19.03-.72l-.38-.42-.58.11c-.64.11-.82.04-.72-.28.07-.21.45-.43.75-.43.16 0 .09-.2-.43-1.22l-.61-1.23-.09.7c-.13 1.06.12 3.46.5 4.63.02.08.25-.08.58-.41.3-.3.73-.63.95-.73Zm5.82.88c-.16-.5-1.18-4.08-1.75-6.13-.96-3.45-2.19-6.67-3.06-7.97-.12-.17-.2-.32-.17-.32.52 0 2.26 4.24 3.36 8.18 1.59 5.69 1.82 6.54 1.79 6.58-.03.02-.1-.13-.17-.34ZM6.6 21.55c.55-3.02 1.26-4.44 3.71-7.46 2.25-2.76 3.84-3.98 7.19-5.54 2.55-1.18 2.92-1.25 6.62-1.24 4.89.01 6.5.28 7.63 1.29.11.1.6.34 1.09.54 1.51.62 2.76 1.33 4.1 2.29l.68.5.29-.17c.16-.1.57-.23.9-.3l.61-.12-.94-.78C26.23.36 7.9 7.53 5.95 23.3c-.37 3.01-.07 2.2.65-1.75Zm33.05 2.75c-.29-1.4-1.99-6.23-1.8-5.1s.44 3.2.5 4.11l.07 1.06.34.11c.43.13.43.12-.01-1.38-.47-1.61-.36-1.49.2.21.64 1.95 1 2.46.7.99Zm-31.9.15c.22-.6 1.92-3.93 2.48-4.85.77-1.26 2.16-2.9 2.47-2.9.09 0 .41-.28.71-.63 2.67-3.11 6.53-6.7 7.94-7.39l.6-.3-.8.07c-3.76.29-7.87 2.73-10.95 6.5-.13.16.07.01.45-.35 1.36-1.26 3.12-2.68 4.12-3.33.79-.51.56-.27-.61.61-3.94 2.99-6.13 5.68-6.79 8.38-.08.32-.18.72-.22.89-.04.2.2-.1.71-.85 2.21-3.28 6.24-7.88 7.99-9.12 1.34-.94 1.27-.8-.12.3-1.85 1.44-4.66 4.81-7.3 8.75-1.55 2.31-1.68 2.75-1.21 4.25.22.71.26.71.53-.03Zm10.19-.64c.1-.15-.63-.88-1.11-1.11-.73-.34-1.83-.34-1.99 0-.3.63-.28.71.08.53.72-.36 2.19-.07 2.69.54.13.15.25.17.33.04Zm-.53-1.83c-.13-.62-.37-.8-1.32-1.02l-.57-.14-.21.55c-.12.3-.21.56-.21.58 0 .01.3.05.68.09.37.04.9.17 1.17.3.61.28.59.3.46-.36Zm8.02-.15c-.57-.96-1.2-2.52-1.38-3.41l-.14-.67.02 1.15c.03 1.02.06 1.21.3 1.67.34.66 1.42 1.99 1.64 2.03.01 0-.19-.35-.44-.77Zm7.78-.5c-.49-2.3-1.13-4.38-1.88-6.11-.65-1.52-1.62-3.92-1.57-3.92.02 0 .13.19.25.41.11.23.42.69.68 1.03.27.33.54.72.6.86.15.3.04.17-.47-.55-.64-.91-.47-.4.88 2.7.58 1.34 1.31 3.75 1.55 5.15.18 1.03.15 1.32-.04.43Zm-15.36-.4c-.18-2.15.25-3.94 1.54-6.53 1.02-2.04 3.38-4.88 4.32-5.18.27-.09.3-.09.14.01-1.88 1.14-4.58 5.17-5.41 8.08-.34 1.18-.26 1.31.15.27.4-.99 2.03-4.35 2.26-4.63.16-.21-.19.59-.98 2.25-1.17 2.45-1.65 3.99-1.74 5.58-.07 1.25-.18 1.31-.28.15Zm-.66-.75c-.04-.29-.08-1.05-.09-1.68l-.02-1.15-.63 1.3c-.85 1.75-.85 1.75-.43 1.76.18 0 .49.06.68.13.56.22.57.21.49-.36Zm1.22-.09c-.03-.62 1.22-3.43 2.38-5.37 2.19-3.67 3.11-5.04 1.73-2.57-.24.44-.91 1.6-1.49 2.57-1.16 1.97-1.75 3.18-2.27 4.59-.19.52-.35.87-.35.78Z"/></svg>