<svg xmlns="http://www.w3.org/2000/svg" width="51" height="51" viewBox="0 0 51 51"><path fill="#fff" fill-rule="evenodd" stroke="#fff" stroke-width=".443" d="M4.82 47.42c-.32-.03-.33-.05-.3-.4l.03-.37 20.92-.03c20.85-.02 20.92-.02 20.98.18.17.53.08.57-1.78.64-1.69.07-39.2.05-39.85-.02Zm40.21-.28c.64-.04 1.17-.1 1.17-.15s-9-.09-20.7-.09c-12.93 0-20.7.04-20.7.09 0 .06.21.11.48.13 1.01.06 38.64.09 39.75.02ZM3.46 45.98c-.53-.81-2.36-4.98-2.27-5.16.13-.24.45-.33.65-.18.14.1 1.63 3.09 2.27 4.56l.28.65-.2.18c-.29.23-.56.21-.73-.05Zm43.32.11c-.28-.16-.22-.4.51-2.02 1.7-3.74 1.64-3.63 2.06-3.53.54.14.5.28-.71 2.91-1.38 2.98-1.35 2.94-1.86 2.64ZM4 45.8c0-.06-.45-1.06-1.01-2.23-.56-1.16-1.06-2.24-1.12-2.39-.11-.27-.37-.39-.37-.17 0 .13 1.95 4.35 2.16 4.67.15.23.34.3.34.12Zm44.3-2.36c.72-1.58 1.09-2.49 1.03-2.55-.15-.15-.23-.01-1.38 2.48-.96 2.1-1.11 2.53-.86 2.53.04 0 .58-1.11 1.21-2.46ZM2.29 40.38c-.02-.07-.02-4.94.01-10.83l.05-10.7h.8v21.6l-.41.03c-.28.02-.43-.01-.45-.1Zm45.46 0c-.03-.07-.04-4.94-.03-10.83l.03-10.7h.8v21.6l-.38.03c-.24.02-.39-.01-.42-.1ZM2.9 29.65c0-9.31-.02-10.55-.15-10.55s-.15 1.24-.15 10.55.02 10.55.15 10.55.15-1.24.15-10.55Zm45.34 10.39c.15-.4.06-20.94-.09-20.94-.13 0-.15 1.24-.15 10.55 0 9.66.03 10.94.24 10.39Zm-26.57-2.71c-.12-.12-.07-.7.07-.82.09-.08.65-.11 1.77-.09l1.64.03.03.48.03.47h-1.74c-.95 0-1.77-.03-1.8-.07Zm4 0c-.11-.11-.08-.58.06-.76.11-.16.31-.17 1.77-.15l1.65.03.03.48.03.47h-1.74c-.95 0-1.77-.03-1.8-.07Zm-.77-.43c0-.19-.07-.2-1.5-.2s-1.5.01-1.5.2.07.2 1.5.2 1.5-.01 1.5-.2Zm4 0c0-.19-.07-.2-1.44-.2-1.38 0-1.66.06-1.51.3.04.06.65.1 1.51.1 1.37 0 1.44-.01 1.44-.2Zm-9.93-3.56c-.04-.04-.07-1.71-.07-3.71V26h.9l-.02 3.68-.03 3.67-.35.03c-.2.02-.39 0-.43-.04Zm12.28-.07c-.03-.06-.04-1.74-.03-3.72l.03-3.6.33-.03c.65-.06.63-.16.57 3.72-.04 1.93-.08 3.57-.1 3.63-.06.17-.74.17-.8 0ZM19.5 29.65c0-2.91-.02-3.35-.15-3.35s-.15.44-.15 3.35.02 3.35.15 3.35.15-.44.15-3.35Zm12.3 0c0-2.91-.02-3.35-.15-3.35s-.15.44-.15 3.35.02 3.35.15 3.35.15-.44.15-3.35Zm-10.08-6.44c-.08-.05-.12-.23-.1-.47l.03-.39 1.69-.03c1.16-.02 1.73.01 1.82.09.17.14.18.61.02.77-.14.14-3.25.17-3.46.03Zm4.05.02c-.04-.03-.07-.26-.07-.5v-.43h3.48l.06.24c.03.14.02.36-.04.5l-.1.26h-1.63c-.9 0-1.67-.03-1.7-.07Zm-.77-.48c0-.13-.24-.15-1.55-.15s-1.55.02-1.55.15.24.15 1.55.15 1.55-.02 1.55-.15Zm3.94 0c.05-.13-.15-.15-1.44-.15-1.27 0-1.5.02-1.5.15s.23.15 1.44.15c1.19 0 1.45-.03 1.5-.15Zm19.88-4.88c-.17-.21-2.32-5.1-2.32-5.28 0-.19.19-.29.56-.29.45 0 2.82 5.33 2.47 5.53-.24.13-.62.15-.71.04ZM1.3 17.75c-.18-.22-.09-.46 1.19-3.15 1.1-2.32 1.15-2.39 1.67-2.26.37.1.32.26-.95 2.97-1.13 2.43-1.19 2.54-1.48 2.57-.18.02-.35-.03-.43-.13Zm1.66-2.64c1.27-2.72 1.19-2.51.99-2.51-.16 0-.42.48-1.56 2.92-.93 2.01-.97 2.11-.74 2.06.11-.02.56-.86 1.31-2.47Zm46.28 2.27c-.08-.28-1.06-2.49-1.68-3.8-.3-.64-.52-.98-.62-.98-.09 0-.14.06-.11.13.03.06.49 1.09 1.02 2.27s1.01 2.25 1.06 2.38c.05.12.16.22.24.22.12 0 .15-.06.09-.22ZM4.43 11.94c-.03-.09-.02-.28.03-.43l.09-.26 2.19-.03c2.39-.03 2.49-.01 2.44.52l-.03.31-2.33.03c-2.08.02-2.33.01-2.39-.14ZM10.6 8.6V5.11l-.92-.03-.93-.03v-.8h12.8v.8l-.87.03-.88.03v6.99h-.9v-7h-7.4v7h-.9zm2.17 3.43c-.11-.11-.08-.58.05-.71.09-.09.74-.12 2.3-.12 2.39 0 2.49.03 2.34.66l-.06.24h-2.29c-1.25 0-2.31-.03-2.34-.07Zm8.4 0c-.18-.17-.07-.73.16-.78.12-.03 5.8-.04 12.62-.03l12.4.03.09.26c.22.64 1.24.59-12.62.59-6.92 0-12.62-.03-12.65-.07ZM8.9 11.65c0-.13-.3-.15-2.1-.15s-2.1.02-2.1.15.3.15 2.1.15 2.1-.02 2.1-.15Zm2.3-3.35V4.8h8v3.5c0 3.04.02 3.5.15 3.5s.15-.46.15-3.5V4.8h.9c.73 0 .9-.03.9-.15 0-.13-.75-.15-6.15-.15S9 4.52 9 4.65c0 .12.17.15.95.15h.95v3.5c0 3.04.02 3.5.15 3.5s.15-.46.15-3.5Zm5.98 3.32c.03-.09-.43-.12-2.07-.12-1.82 0-2.11.02-2.11.15 0 .21 4.11.18 4.18-.03Zm29.02.03c0-.13-1.44-.15-12.4-.15s-12.4.02-12.4.15 1.44.15 12.4.15 12.4-.02 12.4-.15Z"/></svg>