<svg xmlns="http://www.w3.org/2000/svg" width="51" height="51" viewBox="0 0 51 51"><path fill="#fff" fill-rule="evenodd" stroke="#fff" stroke-width=".402" d="M8.4 50.94c-3.67-.92-6.63-3.68-7.98-7.45l-.37-1.04-.03-5.87c-.01-3.24 0-5.88.03-5.88s.61.25 1.28.56c15.76 7.22 33.39 7.23 48.55.03 1.38-.65 1.32-.63 1.32-.49 0 .23-3.32 1.71-6.05 2.7-10.04 3.62-21.12 4.38-31.55 2.14-4.01-.86-7.89-2.14-11.76-3.89C.94 31.34.19 31 .17 31 .08 31 .1 40.69.2 41.45c.54 4.27 3.97 8.15 8.14 9.24 1.23.32 33.26.33 34.51.01 3.6-.92 6.78-4.08 7.83-7.8.17-.58.35-1.21.4-1.4l.1-.35.01.41c.01.51-.39 1.92-.84 2.97-1.26 2.91-4.1 5.4-7.22 6.33l-.88.26-16.5.02-16.5.01zm10.18-2.63c-.46-.41-.44-.57.56-4.73.98-4.05.92-3.86 1.19-4.15l.2-.23h5.97c6.65 0 6.39-.03 6.54.68.07.28-1.62 7.81-1.84 8.21-.27.51-.26.51-6.49.51H18.9zm4.04.03c.04-.03-.01-.18-.1-.33-.15-.27-.12-.45.8-4.27.53-2.19.99-4.07 1.03-4.16.08-.21-3.38-.28-3.75-.08-.25.13-.37.55-1.3 4.43-1.01 4.27-1.01 4.24-.01 4.38.59.08 3.26.11 3.33.03Zm4.31 0c.03-.04 0-.19-.08-.33-.13-.25-.06-.62.81-4.36.52-2.25.94-4.13.94-4.17 0-.05-.89-.07-1.97-.06l-1.97.03-.17.55c-.31 1.02-1.79 7.36-1.79 7.66.01.34.18.6.45.67.29.07 3.71.08 3.78.01Zm3.9-.22c.23-.2.33-.56 1.22-4.46 1.05-4.6 1.16-4.26-1.4-4.26h-1.74l-.09.33c-.05.19-.49 2.05-.97 4.15-1.13 4.91-1.24 4.53 1.25 4.45 1.2-.04 1.59-.09 1.73-.21Zm5.33-16.81c-.04-.06.11-.4.34-.77.47-.78.46-.62.15-2.6-.27-1.76-.27-1.76.41-1.72l.49.03.08.8c.15 1.5.14 1.5.78.33l.57-1.03.56-.03c.73-.04.75-.13-.58 2.11-1.78 2.99-1.73 2.91-2.28 2.95-.25.02-.49-.02-.52-.07Zm1.18-.69c.16-.26.69-1.14 1.19-1.97.49-.82.98-1.65 1.09-1.82l.2-.33h-.34c-.3 0-.37.05-.52.38-.1.2-.43.82-.74 1.37-.64 1.15-.63 1.16-.77-.53-.09-1.17-.11-1.22-.46-1.22-.16 0-.29.03-.29.08 0 .04.11.78.25 1.66l.25 1.58-.35.58c-.42.69-.42.7-.08.7.22-.01.34-.1.57-.48ZM12.56 30c-1.04-.32-1.15-.98-.53-3.4l.42-1.65.5.03c.28.02.52.06.55.08.02.03-.16.85-.4 1.84-.48 1.95-.47 2.1.11 2.1.48 0 .64-.28.94-1.56.14-.66.34-1.48.43-1.84l.17-.65.45-.03c.25-.01.5.01.57.05.11.08-.43 2.54-.82 3.72-.33 1.01-1.4 1.6-2.39 1.31Zm9.57-.01c-1.38-.41-1.14-2.83.37-3.62 1.45-.76 2.53.22 2.11 1.9-.3 1.21-1.47 2.02-2.48 1.72Zm10.9-.08c-.64-.3-.8-.78-.46-1.48.25-.53.74-.78 1.86-.98.41-.07.5-.29.16-.38-.12-.03-.46-.01-.76.04-.64.12-.59.15-.66-.37l-.07-.41.51-.11c1.28-.3 2.4.06 2.38.77-.01.82-.64 2.76-.93 2.9-.5.24-1.55.25-2.03.02Zm-17.58-.02c-.02-.03.14-.85.37-1.82l.41-1.76.46-.08c1.54-.27 2.43-.01 2.49.71.03.35-.42 2.55-.58 2.86-.07.12-.96.17-1.07.06-.01-.01.11-.6.27-1.31.32-1.42.31-1.48-.26-1.43l-.38.03-.28 1.2c-.37 1.65-.37 1.65-.93 1.62-.26-.01-.48-.05-.5-.08Zm4.19.04-.41-.04.34-1.47c.18-.81.38-1.64.44-1.84l.1-.38h.54c.3 0 .55.04.55.09 0 .62-.92 3.74-1.09 3.69-.03-.01-.24-.03-.47-.05Zm9-.04c-.04-.08.92-4.23 1.05-4.55.11-.26 1.29-.5 1.89-.39 2.04.38 1.42 2.95-.76 3.14l-.65.06-.22.83c-.12.45-.25.85-.29.9-.09.09-.96.1-1.02.01Zm-3.77-.31c.2-1.03.71-3.19.76-3.24.15-.15 1.64-.26 2.04-.15.98.26 1.05.6.55 2.56l-.28 1.1-.58.03c-.52.03-.57.01-.52-.15.24-.82.55-2.48.48-2.55-.05-.05-.25-.08-.43-.06l-.34.03-.33 1.38-.34 1.37h-1.07zm-10.97.02c.56-.29.82-.82 1.24-2.55.2-.82.39-1.58.42-1.67.04-.15-.01-.18-.3-.18-.2 0-.36.03-.36.08-.01.32-.81 3.36-.94 3.57-.46.7-1.46.49-1.46-.31 0-.28.59-2.74.77-3.21.04-.09-.05-.13-.3-.13h-.34l-.37 1.53c-.2.83-.39 1.63-.42 1.76-.21.99 1.01 1.65 2.06 1.11Zm9.39 0c.68-.34 1.21-1.26 1.21-2.07 0-1.97-2.84-1.23-2.98.77-.09 1.28.69 1.86 1.77 1.3Zm11.61.07c.21-.1.29-.29.52-1.17.47-1.86.36-2.1-.94-2.1-.81 0-1.08.08-1.08.31 0 .16.07.17.68.12.84-.06 1.1.08.95.53-.09.26-.16.3-.64.37-1.54.22-2.33 1.41-1.29 1.94.32.16 1.48.16 1.8 0Zm-18.51-.34c.06-.21.19-.8.31-1.32.11-.52.23-.98.26-1.03.1-.16 1.24-.09 1.31.08.05.13-.3 2.14-.44 2.5-.04.1.03.14.26.14.34 0 .32.06.72-1.78l.23-1.02-.22-.22c-.25-.25-1.26-.36-1.97-.21l-.4.09-.32 1.34c-.18.74-.35 1.45-.38 1.58-.05.19-.01.22.24.22.26 0 .31-.05.4-.37Zm4.12-1.18c.21-.82.38-1.53.38-1.57.01-.05-.12-.08-.29-.08-.33 0-.29-.11-.78 1.98l-.3 1.23.31-.03.31-.03zm5.49.18.35-1.38h1.2l.03.32c.03.26-.23 1.58-.44 2.26-.04.13.01.17.25.17.34 0 .31.07.71-1.61.28-1.17.24-1.43-.27-1.6-.33-.11-1.87-.08-1.99.04-.04.03-.74 3-.74 3.13 0 .02.12.04.28.04.27 0 .28-.02.62-1.37Zm3.59 1c.06-.2.16-.6.22-.9.07-.29.17-.53.23-.53 1.41-.05 2-.31 2.37-1.06.5-1.04-.1-1.69-1.49-1.61-.46.03-.88.09-.93.14-.07.07-1.09 4.1-1.09 4.3 0 .02.13.03.3.03.25 0 .3-.05.39-.37Zm3.93-.04c-.32-.12-.27-.65.08-.91.38-.28 1.34-.37 1.27-.12-.03.1-.09.35-.12.54-.12.59-.55.77-1.23.49Zm-11.25-.17c-.24-.26-.22-1.06.03-1.57.5-1.04 1.55-.96 1.52.13-.02 1.16-1 2.06-1.55 1.44Zm.66-.13c.64-.29.9-1.81.31-1.87-.63-.06-1.24 1.36-.78 1.82.18.19.17.19.47.05Zm11.55-.21c.11-.41.11-.42-.32-.34-.73.14-.85.66-.15.66.35 0 .39-.03.47-.32Zm-4.37-1.55c.03-.69.35-1.58.58-1.61 1.24-.18 1.71 1.06.61 1.63-.42.22-1.2.2-1.19-.02Zm1.16-.25c.62-.3.51-1.01-.16-1.06-.46-.03-.54.08-.67.89l-.07.39.34-.06c.19-.03.44-.1.56-.16Zm-10.92-1.24c-.32-.33.09-1.04.6-1.04.34 0 .58.32.46.63-.19.5-.75.71-1.06.41Zm.73-.26c.21-.21.14-.48-.11-.48-.28 0-.47.17-.47.42 0 .21.39.25.58.06Zm7.32-3.88c-1.27-.31-.87-1.8.48-1.8.74 0 .82-.09.82-.9v-.65l.83-.83c1.12-1.11 1.07-1.15 1.07.93 0 2.69-.3 3.15-2.15 3.29-.39.02-.86.01-1.05-.04Zm-22.55-.19c-.77-.35-1.24-1.22-1.1-2 .04-.2.38-1.11.75-2.03l.69-1.68h-1c-1.14 0-1.49-.12-1.69-.6-.19-.46-.03-.91.4-1.12.44-.23 12.38-.28 12.85-.06.69.31.69 1.35 0 1.66-.19.09-1.37.12-4.24.12-3.02 0-4.01.03-4.13.13-.18.14-1.48 3.27-1.48 3.57 0 .36.3.4 3.28.4 4.49 0 4.39.03 3.87-1.2-.38-.9-.27-1.44.34-1.7.66-.27 1.12.09 1.63 1.28.61 1.42.47 2.31-.46 3.06l-.38.31-4.46.02c-4.17.03-4.5.02-4.87-.16Zm13.62.08c-.45-.26-.47-.45-.47-4.66 0-2.43.04-4.12.1-4.35.2-.72.94-.91 1.52-.39l.33.29v3.89c0 4.38-.02 4.73-.35 5.08-.25.27-.79.34-1.13.14Zm15.8 0c-.45-.26-.47-.46-.47-4.51v-3.83l.86-.82c.47-.46.89-.83.94-.83.13 0 .22 2.87.18 6.28l-.03 3.24-.33.29c-.34.3-.81.38-1.15.18Zm7.04-.15c-.75-.63-.2-1.54.93-1.54.91 0 .87.18.84-3.72l-.03-3.33-2.93-.05-2.94-.05-.19-.24c-.22-.27-.24-.59-.07-.96.23-.52.43-.55 3.43-.55h2.75v-.76c0-1.12.57-1.62 1.39-1.2.37.2.51.55.51 1.31v.65h.55c.66 0 .96.13 1.18.5.46.77-.1 1.4-1.24 1.4H46v3.69c0 4.28-.04 4.45-1.02 4.97-.52.27-2.3.19-2.67-.12Zm-21.78-.26c.16-.19.17-.55.17-4.37 0-4.71.01-4.61-.7-4.61-.72 0-.7-.1-.7 4.66v4.23l.27.21c.32.25.69.2.96-.12Zm10.07.06c.61-.36.7-.68.7-2.54v-1.65l-.62.69c-.62.68-.63.71-.69 1.39-.07.89-.25 1.07-1.08 1.07-.87 0-1.3.49-.88 1.02.27.35 1.99.36 2.57.02Zm5.75-.07c.13-.18.15-.92.15-4.71v-4.5l-.7.69-.7.69v3.87c0 3.55.01 3.87.17 4.01.36.31.84.29 1.08-.05Zm8.62.1c.72-.38.73-.42.73-4.44 0-4.53-.06-4.23.79-4.23.81 0 1.11-.17 1.11-.62 0-.53-.23-.68-1.05-.68h-.72l-.07-.87c-.07-1-.24-1.26-.76-1.26-.51 0-.64.22-.7 1.21l-.05.87-2.91.03c-2.62.02-2.93.04-3.06.2-.28.31-.3.57-.07.85l.2.27h5.89v3.6c0 4.23.06 4-1.05 4-.92 0-1.3.41-.9.97.26.37 1.98.43 2.62.1Zm-29.56-.1c.87-.57.96-1.52.29-2.96-.4-.84-.56-1.01-.95-1.01-.7 0-.83.69-.34 1.78.22.49.22.55.08.8l-.15.27-3.64.03c-4.78.03-4.47.27-3.34-2.54l.77-1.91 2.01-.06c1.11-.04 3.02-.07 4.25-.07 2.49 0 2.61-.03 2.61-.63 0-.71.38-.67-6.59-.67-6.94 0-6.71-.02-6.71.62 0 .57.21.68 1.29.68 1.68 0 1.63-.15.71 2.13-.91 2.25-.91 2.91-.01 3.53l.36.24h9.02zM41.25 18c-.11-.04-.87-.76-1.69-1.59-1.47-1.48-1.49-1.51-1.43-1.87.18-1.08.94-1.13 2.04-.15 1.65 1.46 2.35 2.25 2.35 2.64 0 .73-.65 1.23-1.27.97Zm-19.31-.1c-.3-.12-.64-.58-.64-.87 0-.43.26-.76 2.07-2.55 2.16-2.14 2.39-2.21 3.48-.98.11.12.64.63 1.18 1.13l.98.9.34-.33.35-.34v-1.61c0-1.12-.04-1.65-.12-1.73-.09-.09-1.12-.12-4.03-.12-4.56-.01-4.52 0-5.24-.75-.6-.62-.65-1.03-.2-1.51.43-.46.89-.41 1.57.17l.33.29h4.09c2.65 0 4.19.04 4.37.11.79.3 1.12.98 1.13 2.29v.94l1.92-1.91c2.32-2.31 2.68-2.49 3.25-1.63.49.72.52.68-3.64 4.81-4.44 4.42-3.98 4.24-5.98 2.3-1.94-1.87-2.29-2.19-2.2-1.96.04.11.12.32.18.47.1.26.06.32-.93 1.35-1.58 1.63-1.75 1.74-2.26 1.53Zm20.15-.36c.41-.52.32-.68-1.11-2.07-1.77-1.7-2.16-1.88-2.53-1.17-.22.43-.09.63 1.48 2.18 1.5 1.46 1.75 1.59 2.16 1.06Zm-18.35-1.03 1.2-1.2-.22-.63c-.45-1.28-.34-1.23 1.89.97 1.89 1.86 2.18 2.07 2.65 1.89.12-.05 1.85-1.7 3.83-3.66 3.96-3.91 3.97-3.93 3.39-4.48-.46-.42-.58-.34-2.88 1.95-1.18 1.18-2.19 2.15-2.23 2.15s-.07-.57-.07-1.26c0-2.47.06-2.44-5.37-2.44-4.04 0-4.1 0-4.29-.21-.44-.49-1.02-.61-1.34-.29-.3.3-.25.73.11 1.15.59.67.45.65 4.97.65 5.09 0 4.56-.24 4.6 2.09l.03 1.7-.42.46c-.56.61-.53.62-2.06-.85-2.1-2.03-1.86-2.05-4.18.31-1.74 1.78-1.88 1.98-1.73 2.39.3.83.71.7 2.12-.69Zm-19.25-5.4c-.2-.2-.29-.39-.29-.61s.09-.41.29-.61l.29-.29h11.14l.29.29c.39.4.39.82 0 1.22l-.29.29H4.78zm10.54 0c1.05-.06 1.17-.13 1.17-.63 0-.7.2-.68-5.74-.68-3.05 0-5.45.04-5.59.09-.56.22-.5 1.1.08 1.22.39.09 8.82.09 10.08 0ZM.01 9.85C-.05 6 3.86 1.42 8.2.25L9.15 0h16.48c18.72 0 17.09-.07 19.04.85 3.46 1.63 6.3 5.35 6.48 8.48.05.81 0 .7-.34-.77-.91-3.83-4.05-7.04-7.96-8.13l-1-.28H9.45l-.9.24C4.03 1.58.62 5.47.1 10.05l-.07.6z"/></svg>