<svg xmlns="http://www.w3.org/2000/svg" width="51" height="51" viewBox="0 0 51 51"><path fill="#fff" fill-rule="evenodd" stroke="#fff" stroke-width=".728" d="M13.12 41.78c-.2-.2-.17-3.42.04-3.62.24-.24 24.65-.24 24.85 0 .22.27.16 3.44-.07 3.61-.25.18-24.64.19-24.82.01Zm24.72-.4c.08-.3.08-2.72 0-2.92-.06-.14-1.23-.16-12.3-.16H13.3v3.3h24.48zm-24.5-6.93c-.26-.39-1.25 1.71 9.61-20.33 2.51-5.08 2.5-5.07 2.98-4.54.15.17 5.81 11.5 10.21 20.47 2 4.06 1.99 4.03 1.63 4.39l-.26.26h-1.94c-1.72 0-1.96-.02-2.09-.18-.15-.16-6.31-12.59-7.31-14.74-.25-.54-.49-.98-.54-.98-.04 0-.48.85-.98 1.88-1.51 3.17-6.76 13.66-6.93 13.84-.13.16-.37.18-2.18.18H13.5zm7.64-6.92c1.87-3.79 3.63-7.36 3.91-7.95.5-1.09.71-1.29.99-.96.05.07 1.15 2.29 2.45 4.93 1.29 2.64 3.01 6.16 3.83 7.82l1.49 3.03h1.91c1.94 0 2.14-.04 2.14-.4 0-.08-1.58-3.37-3.52-7.3-6.17-12.5-8.42-16.95-8.57-16.95-.21 0-.18-.06-4.26 8.23-2.05 4.17-4.65 9.45-5.79 11.76-1.95 3.96-2.15 4.43-1.99 4.59.03.04.95.07 2.03.07h1.96z"/></svg>