<svg xmlns="http://www.w3.org/2000/svg" width="51" height="51" viewBox="0 0 51 51"><path fill="#fff" fill-rule="evenodd" stroke="#fff" stroke-width=".751" d="M17.45 44.89c-6.07-.87-10.68-7.55-10.53-15.25l.03-1.71.6-.79c.82-1.07 2.09-2.32 2.95-2.89.9-.6 2.08-1.11 2.23-.96.07.07.05.12-.09.17-1.67.57-3.49 1.99-4.84 3.78l-.43.57.62 1.92c2.09 6.45 3.38 8.1 7.06 9.03 5.6 1.41 9.78-.94 8.92-5.02-.5-2.37-1.97-3.27-5.03-3.08l-1.12.07-.35-.49c-.88-1.21-1.95-3.79-2.13-5.14l-.07-.53 1.14.09c3.27.26 4.77-.03 5.92-1.15.92-.88 1.12-1.73.58-2.47-1.42-1.97-3.61-1.88-8.24.34-.86.41-1.59.73-1.62.71-.18-.18-2.55-4.38-2.55-4.51 0-.2 1.1-1.05 2.16-1.67 3.01-1.76 7.23-2.42 9.67-1.51 2.73 1.02 4.49 4.87 3.53 7.72-.7 2.08-1.82 3.8-3.08 4.74l-.57.42.8.36c2.88 1.32 3.86.76 6.19-3.54 2.22-4.11 3.83-5.31 7.15-5.32 2.13-.02 3.14.4 4.66 1.92 2.69 2.67 3.97 7.2 3.35 11.86-.79 5.96-3.66 9.26-8.06 9.28-3.27.01-5.32-1.66-6.27-5.09-.47-1.72-.34-5.3.21-5.39.04 0 .18.33.3.76 1.07 3.7 5.11 4.71 8.47 2.12 1.96-1.51 2.85-3.49 2.83-6.34-.02-3.82-1.05-5.39-3.46-5.28-1.46.06-2.34.71-3.63 2.71-.38.6-1.01 1.55-1.38 2.13-1.7 2.61-2.5 3.03-5.79 3.04h-1.07l.41.93c2.03 4.67.81 9.55-3.08 12.33-1.54 1.1-3.8 1.5-6.39 1.13Zm4.2-.39c1.72-.44 3.4-1.76 4.66-3.68 1.59-2.42 1.74-6.17.38-9.25-.64-1.43-.76-1.31 1.46-1.38 1.88-.06 2.22-.12 2.81-.42.54-.28 1.68-1.6 2.48-2.87 2.05-3.25 2.77-4.04 3.97-4.41 2.94-.89 4.71 1.14 4.73 5.41.01 2.68-.71 4.41-2.55 6.14-3.24 3.05-8.02 2.26-9.19-1.53-.2-.64-.25-.55-.4.69-.4 3.21 1.14 6.71 3.41 7.78 1.87.89 4.25.83 6.12-.15 5.79-3.04 6.39-15.59.96-20.36-1.22-1.08-2.69-1.54-4.54-1.44-3.05.17-4.38 1.25-6.62 5.35-2.07 3.8-3.17 4.59-5.39 3.91-.87-.27-2.04-.85-2.04-1.02 0-.06.2-.24.44-.4 1.71-1.08 3.4-4.05 3.53-6.22.13-2.07-1.17-4.64-2.83-5.61-2.91-1.71-8.2-.66-12.17 2.4-.18.14-.11.27 1.03 2.23.68 1.14 1.24 2.09 1.25 2.11.01.01.67-.29 1.46-.67 4.28-2.05 6.53-2.25 8.05-.74 1.07 1.07 1.09 1.93.09 3.1-1.09 1.27-2.88 1.73-5.75 1.48-.8-.07-1.46-.12-1.47-.11-.04.03.45 1.85.59 2.21.33.89.87 1.99 1.29 2.66l.49.76 1.34-.05c1.63-.06 2.61.12 3.33.61 2.12 1.43 2.33 5.02.38 6.86-2.5 2.37-8.87 1.92-11.67-.82-1.32-1.29-2.16-2.99-3.38-6.84-.77-2.4-.82-2.4-.76-.03C7.35 38 11.79 43.93 18 44.69c1.02.13 2.76.04 3.65-.19Zm8.15-26.35c-3.38-.68-6.22-3.85-6.7-7.48-.21-1.54.07-1.92.66-.91.77 1.32 2.49 2.9 3.85 3.53 2.67 1.25 5.63.76 8.55-1.41 1.28-.95 1.9-1.38 2.02-1.38.05 0 .49.48.98 1.08 2.08 2.5 2.13 2.62 1.37 3.43-2.19 2.34-7.3 3.83-10.73 3.14Zm3.95-.26c2.3-.29 4.83-1.41 6.48-2.88.73-.66.64-.99-.75-2.66-.46-.55-.93-1.13-1.04-1.28-.28-.35-.26-.36-1.14.29-3.09 2.27-4.42 2.83-6.66 2.84-2.64 0-5.22-1.48-6.87-3.95l-.47-.7v.4c0 2.04.87 3.94 2.59 5.66 2.23 2.22 4.09 2.76 7.86 2.28Zm-4.43-5.19c-1.44-.96-2.59-2.31-2.35-2.74.15-.26 3.24-3.66 3.34-3.66.12 0 1.54 1.25 2.78 2.46 1.03 1 1.04 1.01.85 1.2-.1.11-.7.75-1.33 1.42-1.13 1.22-1.95 1.92-2.24 1.92-.09 0-.56-.27-1.05-.6Zm1.85-.22c.69-.6 2.53-2.6 2.53-2.76 0-.09-1.33-1.36-2.7-2.56l-.55-.49-.07.44c-.09.57-.1 5.74-.01 5.82.11.12.17.08.8-.45Zm-1.12-2.57c0-2.43-.02-2.97-.13-2.89-.16.14-2.34 2.55-2.62 2.91l-.22.27.37.5c.42.57 2.34 2.2 2.59 2.2.01 0 .01-1.35.01-2.99Z"/></svg>