<svg xmlns="http://www.w3.org/2000/svg" width="51" height="51" viewBox="0 0 51 51"><path fill="#fff" fill-rule="evenodd" stroke="#fff" stroke-width=".731" d="M3.94 41.71c-.18-.11-.35-.24-.38-.3-.05-.07-.67-.11-1.82-.11H0v-1.19c0-1.43-.16-1.31 1.83-1.31 1.48 0 1.53-.01 1.91-.26 1.56-1.06 3.64.55 2.87 2.21-.47 1.03-1.79 1.5-2.67.96Zm1.59-.15c.41-.17.72-.51.92-1 .55-1.3-.97-2.6-2.33-1.99l-.37.16.4.07c.78.12 1.15.53 1.15 1.25 0 .74-.36 1.14-1.12 1.24l-.53.06.35.17c.42.21 1.09.23 1.53.04Zm-.78-.69c.35-.29.46-1.04.21-1.41-.24-.38-.63-.43-2.82-.38l-2.01.04-.02.89c-.01.49.01.94.04.99.04.06.9.1 2.2.1 2.08 0 2.15-.01 2.4-.23Zm21.65-3.14c-5.46-.53-9.34-5.1-9.07-10.67.38-7.97 9.25-12.31 15.92-7.78l.6.41.06-2.87c.03-1.58.07-3.47.08-4.21l.01-1.34.39.07c1.41.22 2.63 1.2 3 2.4.24.78.33 13.17.1 14.96-.71 5.77-5.4 9.59-11.09 9.03Zm1.59-.22c.22-.06-1.78-1.96-4.85-4.62-1.59-1.37-2.48-3.28-2.48-5.29.01-4.25 4.11-7.51 8.24-6.54 1.66.39 3.38 1.69 7.78 5.89l.73.69-.03-6.79-.03-6.8-.26-.55c-.45-.95-1.22-1.54-2.39-1.85l-.5-.13v4.29c0 2.78-.03 4.29-.1 4.29-.05 0-.37-.2-.69-.44-.79-.58-2.17-1.28-3.21-1.62-1.1-.36-4.18-.43-5.25-.11-4.6 1.36-7.37 5-7.39 9.67-.01 5.29 3.76 9.48 8.89 9.89 1.27.1 1.26.1 1.54.02Zm1.97-.26c4.08-1.04 7.34-5 7.34-8.94v-.49l-1.22-1.14c-.68-.62-1.63-1.49-2.12-1.93l-.89-.8.37.72c1.88 3.75-.36 8.53-4.49 9.58-1.18.3-3.09.16-4.2-.31-.11-.04.7.74 1.8 1.73 2.23 2.03 2.02 1.93 3.41 1.58ZM28.94 34a6.57 6.57 0 0 0 4.6-4.3c2.17-6.58-5.82-11.48-10.75-6.6-4.64 4.59-.16 12.52 6.15 10.9ZM3.98 32.09c-.21-.1-.45-.31-.54-.44-.16-.25-.17-.25-1.8-.25H0v-2.5h1.85c1.67 0 1.88-.02 2.17-.2 1.03-.63 2.65.2 2.84 1.45.22 1.49-1.52 2.66-2.88 1.94Zm1.71-.19c1.65-.84.98-3.24-.89-3.19-.51.01-.68.15-.28.23.9.17 1.22 1.44.54 2.12-.31.31-.39.34-.97.34-.6 0-.62 0-.45.19.47.52 1.38.65 2.05.31Zm-.78-.99c.39-.39.41-1.06.05-1.48l-.24-.28H.15l-.03.89C.08 31.31-.14 31.2 2.4 31.2h2.22zm-.76-9.07a2.7 2.7 0 0 1-.51-.35c-.18-.17-.36-.19-1.92-.19H0v-2.5h1.8c1.71 0 1.82-.01 2.11-.22.99-.74 2.69-.07 2.97 1.17.32 1.49-1.38 2.8-2.73 2.09Zm1.65-.24c1.89-.97.45-3.81-1.52-2.99l-.33.14.48.07c1.49.21 1.43 2.33-.06 2.46-.61.05-.65.15-.13.38.45.19 1.11.17 1.56-.06Zm-.83-.74c.37-.32.4-1.23.05-1.59-.22-.22-.27-.22-2.55-.22H.15l-.03.97-.03.97 1.23.04c3.5.08 3.34.09 3.65-.17Zm-.72-8.94c-.17-.11-.36-.26-.44-.35-.12-.15-.38-.17-1.97-.17H0V8.9h1.8c1.79 0 1.81 0 2.21-.27 1.82-1.2 3.96 1.18 2.51 2.79-.62.68-1.61.9-2.27.5Zm1.48-.16c.44-.18.95-.78 1.03-1.21.26-1.41-1.3-2.51-2.56-1.8l-.25.14.35.01c1.59.01 1.6 2.31.01 2.5l-.46.06.4.21c.46.25 1.02.29 1.48.09Zm-.78-.81c.2-.19.25-.34.25-.77 0-1.06-.22-1.14-3.11-1.03L.1 9.22v1.98h4.61zm6.61-5.22c-.03-.04-.06-1.34-.06-2.9V0H16v2.9c0 1.6-.04 2.9-.08 2.9s-.44-.27-.87-.61c-.44-.34-.92-.7-1.07-.8l-.26-.19-.49.38c-1.11.86-1.61 1.21-1.67 1.15ZM15.8 2.8V.1h-4.1v2.65c0 1.46.02 2.65.05 2.65s.48-.32 1-.71 1-.69 1.07-.66.54.37 1.03.76c.49.38.91.7.93.7.01.01.02-1.2.02-2.69Z"/></svg>