<svg xmlns="http://www.w3.org/2000/svg" width="51" height="51" viewBox="0 0 51 51"><path fill="#fff" fill-rule="evenodd" stroke="#fff" stroke-width=".8" d="M15.06 39.81c-.09-.14-.07-19.94.02-20.02.04-.04 2.77-1.15 6.07-2.47 3.3-1.33 7.95-3.2 10.34-4.16 2.39-.97 4.39-1.76 4.46-1.76.33 0 .3 19.83-.03 20.08-.09.07-1.23.56-2.52 1.08s-4.58 1.85-7.3 2.96c-11.14 4.51-10.95 4.44-11.04 4.29Zm4.12-1.77c8.48-3.42 10.07-4.06 12.57-5.09 1.43-.58 2.95-1.2 3.37-1.36l.78-.3v-9.8c0-5.38-.03-9.79-.06-9.79s-3.35 1.33-7.37 2.95c-4.03 1.62-8.65 3.47-10.27 4.12l-2.95 1.18-.03 9.83c-.01 5.4 0 9.82.03 9.82s1.79-.7 3.93-1.56Z"/></svg>