<svg xmlns="http://www.w3.org/2000/svg" width="51" height="51" viewBox="0 0 51 51"><path fill="#fff" fill-rule="evenodd" stroke="#fff" stroke-width=".358" d="M8.14 50.94C3.92 50.2-.05 45.98.01 42.3l.02-.75.08.75c.27 2.29 1.63 4.76 3.4 6.15l.61.48-.41-.54c-1.37-1.8-1.52-4.57-.39-6.89.56-1.15 1.67-2.28 2.84-2.88 1.57-.81.03-.75 19.14-.76l17.05-.01.96-.26c4.21-1.17 6.66-3.84 7.68-8.39.17-.77.19-.81.2-.4.02 1.08-.91 3.55-1.89 5.01-1.01 1.5-2.77 2.87-4.58 3.55-1.97.74-.63.69-19.29.69l-16.71-.01-.06.35c-.03.2-.02.39.02.43.05.05 7.73.07 17.08.06l16.99-.03 1-.27c2.14-.59 4.25-1.91 5.61-3.51.34-.41.61-.64.66-.59.22.22.04 8.11-.21 8.91-1.12 3.72-4.03 6.21-7.85 6.71-.62.09-5.31.11-17.06.08l-16.2-.03v.66l16.78-.04 16.77-.03.84-.22c4.53-1.21 7.1-4.12 7.91-9l.18-1.07.01.76c.07 4.56-3.95 8.98-8.79 9.68-1.14.16-33.33.21-34.26.05Zm.36-.51c0-.26-.04-.29-.73-.45-4.28-1.03-5.69-6.29-2.53-9.44.79-.78 1.78-1.35 2.71-1.54l.55-.11v-.4c0-.44-.04-.45-.78-.28-4.73 1.12-6.62 7.23-3.29 10.61 1.24 1.27 4.07 2.38 4.07 1.61Zm34.39-.74c2.46-.61 4.52-2.1 5.75-4.17.56-.94.57-1.14.02-.42-.44.57-1.15 1.24-1.24 1.16-.03-.04.17-.3.45-.59 1.01-1.05 1.52-1.83 1.77-2.67.13-.48.14-.52 0-.35-.79 1.06-1.43 1.8-1.8 2.1-.7.58-.63.34.13-.41 1.17-1.18 1.93-2.37 1.93-3.05 0-.3-.02-.29-.42.32-.51.77-1.85 2.19-2.06 2.19-.08 0 .26-.42.74-.93.99-1.04 1.74-2.2 1.74-2.68 0-.3-.02-.29-.46.32-.59.8-1.06 1.33-1.62 1.82-.72.62-.6.34.21-.46 1.04-1.04 1.89-2.34 1.85-2.83l-.03-.36-.42.63c-.44.67-1.88 2.17-1.98 2.07-.04-.03.25-.37.63-.76.8-.81 1.61-1.98 1.72-2.48.1-.45.11-.45-.48.34-.53.72-1.85 2.02-2.04 2.02-.06 0 .29-.42.78-.92.49-.51 1.08-1.22 1.32-1.57.43-.66.58-1.09.19-.56-.46.62-1.29 1.55-1.38 1.55-.16 0-.1-.1.4-.68 1.53-1.8 1.87-2.95.44-1.54a13.56 13.56 0 0 1-5.48 3.28l-.9.28-4.95.07c-10.07.15-29.87.22-29.93.12-.05-.08 3.94-.13 12.96-.17 21.44-.11 21.68-.12 23.52-.79 2.07-.75 5.65-3.48 5.65-4.31 0-.35.01-.36-.77.45-1.55 1.62-3.47 2.68-5.84 3.25-.69.17-1.89.18-18.09.24l-17.35.05-.53.22c-5.28 2.16-4.4 9.79 1.2 10.41 1.8.2 33.51.02 34.37-.19ZM16.3 48.9c-.96-.04-3.7-.08-6.07-.09-2.93-.01-4.33-.04-4.33-.11 0-.08 1.78-.08 5.78-.03 7.39.1 15.32.1 23.77-.01 3.69-.05 6.67-.05 6.63-.01-.16.17-22.71.39-25.78.25Zm26.3-.17c0-.04.44-.21.98-.36.53-.15 1.39-.48 1.91-.72.95-.46 1.32-.57.96-.29-.74.57-3.85 1.68-3.85 1.37Zm-32.12-.61c-.08-.09-.18-.25-.21-.34-.06-.17-.28-.18-2.72-.18-1.7 0-2.65-.04-2.65-.1s.95-.1 2.65-.1h2.65v-1H7.25c-1.9 0-2.95-.04-2.95-.1s1.05-.1 2.95-.1h2.95v-1.1l-3.08-.03-3.07-.02 3.07-.03L10.2 45v-1.1l-2.82-.01c-2.05-.01-2.72-.04-2.43-.11.22-.05 1.48-.08 2.83-.06l2.42.03V42.7H7.83c-3.01 0-2.94-.13.1-.2l2.32-.05.05-.35c.04-.2.09-.41.13-.48.06-.09-.42-.11-1.99-.11-1.14 0-2.09-.03-2.13-.07-.03-.04 1.58-.04 3.59 0 9.42.16 15.51.18 17.75.07 3.38-.18 13.77-.27 14.01-.13.14.09-.94.12-4.26.12-2.45 0-6.16.07-8.25.15s-5.6.15-7.8.15h-4l.03 3.06c.04 3.96.18 3.75-2.03 2.94-.75-.27-1.43-.5-1.51-.5s-.75.23-1.5.5c-1.5.55-1.64.58-1.86.32Zm1.82-.57 1.53-.56.51.17c.28.09.97.35 1.54.57.8.31 1.06.37 1.15.28.15-.15.17-5.95.02-6.1-.16-.16-6.21-.27-6.4-.11-.2.16-.23 5.98-.03 6.18.15.15-.09.21 1.68-.43Zm0 .45c0-.2 2.62-.21 2.74-.01.02.03-.58.07-1.35.07-.76.01-1.39-.02-1.39-.06Zm5.65-.2c-.56-.1-.78-.1 5.65-.14 3.22-.03 6.73-.09 7.8-.15 2.6-.14 10.6-.14 10.6-.01 0 .07-1.51.1-4.32.1-2.38 0-5.77.07-7.53.15-3.26.15-11.47.18-12.2.05Zm24.46-.24c.02-.02.56-.21 1.19-.41.63-.21 1.59-.6 2.14-.87.54-.27.96-.43.94-.36-.07.21-1.84 1.06-2.88 1.38-.82.26-1.52.39-1.39.26Zm-22.06-.86c-.99-.04-2.02-.08-2.29-.09-.3 0-.46-.05-.4-.1.05-.05 1.16-.05 2.59-.01 2.44.08 6.06 0 9.9-.2 2.26-.12 8.88-.18 10.65-.11.8.04-.54.09-3.7.13-2.72.04-6.32.14-8 .22-4.21.2-6.64.25-8.75.16Zm22.15-.39c0-.06.07-.11.15-.11.35 0 2.37-.73 3.19-1.15.89-.46 1.21-.54.69-.17-.98.69-4.03 1.78-4.03 1.43Zm-24.8-.88c0-.06 1.93-.12 5.38-.17 2.95-.04 6.11-.11 7.02-.16 2.6-.15 11.86-.25 11.93-.13.04.06-1.72.12-5.16.17-2.87.04-5.87.11-6.67.16-2.24.14-12.5.25-12.5.13Zm24.8-.32c0-.05.17-.12.38-.16.62-.11 2.22-.74 3.11-1.22.46-.25.82-.4.79-.32-.15.45-4.28 2.09-4.28 1.7Zm-24.87-.88c.04-.06 1.84-.12 4.94-.17 2.68-.03 5.47-.11 6.18-.16 1.94-.15 12.98-.25 13.2-.13.12.07-1.68.12-5.81.17-3.3.03-6.64.1-7.44.15-2.25.15-11.14.26-11.07.14Zm24.87-.3c0-.05.44-.22.98-.38.53-.16 1.49-.55 2.12-.87 1.07-.53 1.48-.67 1.04-.33-.84.64-4.14 1.9-4.14 1.58Zm-24.8-1.02c0-.08 1.13-.11 4.18-.12 2.29 0 4.96-.04 5.92-.09 2.97-.16 14.06-.25 14.14-.12.05.09-1.09.12-4.61.13-2.57 0-5.67.05-6.88.1-3.78.16-12.75.23-12.75.1Zm24.72-.26c.03-.03.45-.17.94-.31 1-.29 2.32-.88 3-1.33.5-.34.76-.41.51-.13-.5.55-3.43 1.82-4.21 1.82-.16 0-.27-.02-.24-.05Zm-.17-1.22c.06-.05.37-.15.7-.22.89-.19 2.49-.84 3.43-1.4.82-.49 1.1-.54.5-.07-.61.46-1.63.95-2.69 1.31-1.08.36-2.13.56-1.94.38ZM0 24.49V8.05l.38-1.11C1.51 3.65 4.1 1.19 7.44.25L8.32 0h34.56l.88.25c2.83.82 5.19 2.81 6.5 5.5.45.93.94 2.6.94 3.22 0 .52-.16.31-.24-.31-.39-3.37-3.26-6.83-6.62-8C42.66.07 43.57.1 25.78.1 8.97.1 8.4.11 8.4.39c0 .14-.02.14-.1.01-.25-.4-3.09.83-4.47 1.94C1.78 4 .43 6.42.2 8.84c-.06.6-.1 7.31-.1 16.5 0 8.52-.02 15.51-.05 15.54S0 33.53 0 24.49Zm8.47 11.44c-.11-.1-.08-1.21.03-1.28.05-.03.1-.37.1-.76s-.04-.69-.1-.69-.1-.45-.1-1.15.04-1.15.1-1.15.1-.32.1-.75-.04-.75-.1-.75-.1-.45-.1-1.15.04-1.15.1-1.15.1-.3.1-.7-.04-.7-.1-.7-.1-.45-.1-1.15.04-1.15.1-1.15.1-.3.1-.7-.04-.7-.1-.7-.1-.45-.1-1.15.04-1.15.1-1.15.1-.32.1-.75-.04-.75-.1-.75-.1-.45-.1-1.15.04-1.15.1-1.15.1-.3.1-.7-.04-.7-.1-.7c-.13 0-.13-2.27 0-2.35s.13-1.35 0-1.35-.13-2.27 0-2.35c.12-.08.13-1.45.01-1.45-.05 0-.08-1.4-.07-3.13 0-1.71.02-2.84.04-2.49l.03.62h.63c.67 0 .78.04.69.26-.03.1-.22.14-.59.14H8.7v.98c0 .53 0 4.43.01 8.67 0 4.24.01 11.27 0 15.63v7.93l15.63-.03c14.3-.03 15.62-.02 15.59.13-.07.23-2.03.36-2.19.14-.16-.21-1.49-.21-1.58 0-.04.12-.26.15-1.11.15s-1.07-.03-1.11-.15c-.05-.11-.23-.15-.79-.15s-.74.04-.79.15c-.04.12-.26.15-1.11.15s-1.07-.03-1.11-.15c-.09-.22-1.49-.22-1.58.01-.08.2-2.07.17-2.14-.03-.06-.2-1.58-.18-1.66.02-.04.12-.26.15-1.05.15-.75 0-1.03-.04-1.15-.15-.1-.1-.35-.15-.8-.15-.52 0-.66.03-.66.15s-.19.15-1.1.15c-.89 0-1.12-.03-1.16-.15-.08-.2-1.5-.22-1.56-.02-.03.08-.35.12-1.13.12s-1.09-.04-1.12-.12c-.07-.21-1.49-.18-1.57.03-.08.2-2.17.17-2.24-.03-.06-.2-1.42-.18-1.42.02 0 .16-1.19.23-1.33.08Zm33.13-.48c0-.09-.09-.15-.22-.16-.13 0 .13-.13.57-.28 3.4-1.17 6.11-4.19 6.71-7.46.04-.22.09-.35.11-.29s0 .3-.06.53c-.07.32-.06.43.05.49.25.14-.63 2.35-.91 2.3-.2-.04-1.1 1.18-.95 1.27.18.11.11.22-.46.85-.72.77-1.11 1.05-1.27.92-.18-.15-1.33.62-1.29.86.03.22-.43.49-1.46.86-.86.31-.82.3-.82.11Zm-28.66-6.89c-.13-.33.01-.59.36-.71l.35-.12.03-3.16.02-3.17h-.3c-.36 0-.54-.29-.45-.71l.07-.3 2.01.04c1.17.02 2.17.09 2.38.15 1.61.53 2 2.16.78 3.27l-.39.35.38.15c1.91.8 1.77 3.39-.23 4.14-.72.27-4.91.32-5.01.07Zm7.06-.25c0-.34.03-.39.33-.47.44-.13.47-.43.4-3.81l-.06-2.73h-.34c-.33 0-.33-.01-.33-.45v-.46l1.53.03 1.52.03v.4c0 .36-.03.4-.3.45l-.3.05-.03 3.23c-.02 3.12-.02 3.22.17 3.22.4 0 .51.11.51.51v.39H20zm3.84.25c-.13-.35 0-.61.38-.7.48-.12.48-.13.48-3.37 0-2.95-.04-3.19-.49-3.19-.34 0-.46-.22-.35-.65l.07-.27 2.11.04c1.97.03 2.14.05 2.59.27 1.28.63 1.55 2.13.55 3.13l-.37.37.45.22c1.68.81 1.55 3.2-.21 4.01-.65.3-5.1.42-5.21.14Zm7.23.07c-.21-.21-.06-.64.27-.78l.34-.14.07-.93c.03-.51.05-1.94.03-3.18l-.03-2.25-.38-.03-.38-.03.03-.42.03-.42 1.47-.03 1.47-.03.07.25c.1.42.01.61-.31.64-.45.06-.45.04-.45 3.4v3.12h1.05c1.49 0 1.78-.21 2.03-1.45.07-.37.1-.4.42-.4h.35l-.04 1.3c-.02.71-.05 1.33-.08 1.37-.05.1-5.87.11-5.96.01Zm6.47-.07c-.13-.33.01-.6.34-.7.44-.12.43-.07.4-3.51l-.03-3-.35-.05c-.37-.05-.47-.22-.36-.66l.06-.24h2.91c2.23 0 2.91.03 2.94.13.02.06.06.58.1 1.15l.06 1.02h-.4c-.38 0-.4-.02-.47-.37-.16-.85-.57-1.06-1.94-1.01l-.85.03-.03 1.27-.03 1.28h.71c.48 0 .72-.04.74-.12.03-.07.07-.25.1-.4.06-.25.11-.28.46-.28h.41l-.03 1.33-.03 1.32h-.35c-.31 0-.35-.04-.45-.35-.16-.57-.21-.6-.91-.6h-.64v3.02l1.24-.04c1.42-.03 1.7-.17 1.81-.87.12-.71.15-.8.35-.86.55-.17.61-.04.58 1.33l-.03 1.27-3.13.03c-2.65.02-3.13 0-3.18-.12Zm-19.64-.3c2.01-.75 1.8-3.24-.32-3.83-.69-.19-.71-.26-.18-.42 1.71-.51 1.63-2.66-.13-3.15-1.24-.35-4.07-.32-4.07.04 0 .14.09.2.38.22l.37.03.03 3.24c.03 3.54 0 3.71-.53 3.71-.19 0-.25.05-.25.21 0 .29 3.91.24 4.7-.05Zm4.95.04c0-.08-.11-.17-.25-.18-.51-.07-.5-.03-.5-3.48 0-3.53.02-3.64.6-3.64.27 0 .25-.28-.02-.35-.54-.14-2.43-.01-2.46.17-.02.12.07.18.37.23l.41.07.01 1.46c.03 5.02-.01 5.52-.51 5.52-.22 0-.34.15-.25.3.11.18 2.6.08 2.6-.1Zm6-.09c1.97-.88 1.72-3.44-.37-3.79-.42-.07-.65-.32-.3-.32.3 0 1.02-.58 1.18-.95.41-1-.06-1.99-1.11-2.31-.54-.17-3.43-.32-3.89-.2-.43.11-.35.44.12.48l.37.03.03 3.29c.03 3.59.01 3.66-.55 3.66-.17 0-.23.06-.23.21 0 .33 3.98.25 4.75-.1Zm7.99-.32c.16-1.58.01-2.16-.29-1.12-.33 1.12-.83 1.37-2.6 1.31l-.9-.03-.03-3.06c-.03-3.56 0-3.8.46-3.94.37-.11.42-.32.1-.4-.62-.16-2.33-.01-2.33.2 0 .16.08.21.37.23l.38.03v3.22c0 3.43-.04 3.69-.48 3.75-.14.02-.22.1-.22.23 0 .18.1.19 2.74.19h2.73zm6.76-.49c0-1.23-.21-1.59-.34-.58-.14 1.05-.75 1.33-2.71 1.26l-.9-.03-.03-1.71c-.03-1.96-.09-1.84.93-1.84.68 0 .98.17 1.09.63.19.74.36.44.36-.63v-1.07c0-.25-.27-.02-.34.3-.11.45-.23.49-1.26.45l-.75-.03v-1.42c0-1.76-.06-1.68 1.33-1.67 1.41.01 2.02.37 2.02 1.18 0 .09.07.16.15.16.17 0 .18-.13.08-1.12l-.06-.68h-2.46c-1.35 0-2.56.03-2.69.06-.34.1-.26.31.16.41l.37.09.03 3c.03 3.51 0 3.75-.46 3.89-.21.06-.32.16-.32.27 0 .17.18.18 2.9.18h2.9zm-28.53.63c-.04-.03-.07-.82-.07-1.75V24.6h.88c1.47.01 2.12.48 2.2 1.59.08 1.25-.66 1.91-2.13 1.91-.45 0-.85-.03-.88-.07Zm11.01.01c-.05-.04-.08-.83-.08-1.75V24.6l.27-.06c.42-.11 1.72.11 2.02.33.97.72.96 2.48-.02 3-.34.18-2.06.32-2.19.17Zm-8.66-.61c.29-.29.33-.4.36-1 .06-1.08-.4-1.5-1.74-1.6l-.74-.06v3.05l.9-.04c.86-.03.91-.04 1.22-.35Zm10.68.19c.62-.31.86-1.18.52-1.95-.26-.58-.62-.77-1.58-.84l-.74-.06v3.03h.73c.48 0 .83-.06 1.07-.18Zm20.75-.82c.06-.43.25-10.52.2-10.6-.02-.04-.06-1.05-.09-2.26-.03-1.2-.08-2.37-.1-2.59-.03-.22-.03-.33 0-.24.03.1.14.19.25.22.2.05.31 4.47.12 4.47-.05 0-.09.92-.1 2.05-.02 1.28.01 2.05.07 2.05s.1.53.1 1.3c0 .8-.04 1.3-.1 1.3s-.1.35-.1.86c0 .56.04.83.1.79.07-.04.1.37.08 1.27-.03 1.1-.06 1.33-.18 1.33-.08 0-.18.09-.22.2-.05.12-.06.06-.03-.15Zm-33.77-2.66c-.15-.15-.09-2.69.06-2.9.18-.24 1.15-.25 1.67 0 .9.43.95 2.05.07 2.69-.28.21-1.65.37-1.8.21ZM26 22.82c0-1.71.03-1.77.87-1.76 1.03.02 1.5.42 1.59 1.36.11 1.13-.54 1.78-1.78 1.78H26zm-9.15.78c1.05-.99.12-2.61-1.3-2.26l-.25.06v2.52l.65-.04c.51-.03.7-.09.9-.28Zm11.02-.03c.88-.87.16-2.34-1.1-2.25l-.42.03-.03 1.29-.03 1.28.66-.04c.54-.03.7-.08.92-.31Zm-2.66-6.72c-4.13-1.16-4.14-7.35-.01-8.41 3.91-1 6.8 3.43 4.46 6.83-.91 1.34-2.86 2.02-4.45 1.58ZM13.4 16.4c0-.35.03-.4.28-.46.42-.11.42-.1.42-3.41V9.4h-.35c-.38 0-.54-.27-.4-.7.06-.2.12-.2 1.53-.18l1.47.03v.4c0 .33-.04.4-.25.45-.41.1-.5.43-.48 1.7l.03 1.15.4.03c.22.02 1 .01 1.73-.03l1.32-.07v-1.33c0-1.43-.01-1.45-.56-1.45-.23 0-.25-.03-.22-.43l.03-.42 1.48-.03 1.47-.03.11.28c.12.32.02.56-.27.61-.42.08-.44.22-.44 3.43v3.08l.33.03c.3.03.32.05.32.43v.4h-3l-.03-.33c-.03-.29.01-.34.31-.47.42-.17.47-.37.47-1.81V13.1l-1.72.02-1.73.03-.03.95c-.04 1.35.03 1.8.31 1.8.36 0 .49.14.45.51l-.03.34-1.47.03-1.48.03zm17.7.01c0-.34.03-.39.33-.47l.32-.1.03-3.22.02-3.22h-.71l.03-.43.03-.42h3l.03.35c.03.32-.01.38-.3.5l-.33.15-.03 3.18-.02 3.17.87-.01c1.44 0 1.84-.26 2.07-1.31.12-.51.14-.53.47-.53h.34l.03.95c.02.52 0 1.14-.03 1.38l-.06.42H31.1zm7.7 0c0-.36.03-.4.3-.46.35-.08.37-.15.43-1.34l.04-.83-.52-.82c-2.17-3.42-2.27-3.56-2.52-3.56-.22 0-.24-.03-.21-.43l.03-.42 1.54-.03c1.66-.03 1.81.01 1.81.48 0 .24-.05.29-.37.37-.61.14-.56.4.33 1.75.42.65.79 1.18.83 1.18s.33-.46.64-1.02c.31-.57.67-1.21.81-1.43l.25-.4-.37-.05c-.4-.05-.49-.22-.38-.66l.07-.25 1.22.03 1.22.03.03.38c.03.35.01.38-.28.43-.41.09-.72.5-1.74 2.35l-.86 1.56v2.62l.38.03c.36.03.37.04.4.46l.03.42H38.8zm-10.86-.05c2.99-1.46 3.03-5.92.08-7.42-.84-.43-2.58-.43-3.43-.01-2.79 1.37-2.94 5.9-.24 7.3 1.05.54 2.63.6 3.59.13Zm-11.84-.01c0-.09-.09-.15-.23-.15-.43 0-.47-.15-.47-1.77V12.9h3.9v1.43c0 1.52-.09 1.87-.51 1.87-.1 0-.19.07-.19.15 0 .13.21.15 1.3.15s1.3-.02 1.3-.15c0-.1-.1-.15-.28-.15-.52 0-.52-.01-.52-3.31 0-3.32.03-3.54.5-3.72.68-.26.35-.37-1.05-.37-1.28 0-1.35.01-1.35.2 0 .17.07.2.4.2h.4v3.3h-3.9v-1.43c0-1.54.07-1.79.56-1.97.54-.21.22-.3-1.06-.3-1.22 0-1.3.01-1.3.19 0 .16.08.2.38.23l.37.03.03 3.16c.03 3.46 0 3.66-.48 3.75-.16.04-.3.13-.3.2 0 .11.26.14 1.25.14 1.04 0 1.25-.02 1.25-.15ZM37 15.4c0-1.21-.1-1.38-.34-.57-.33 1.11-.66 1.31-2.26 1.31l-1.15.01-.02-3.2c-.03-3.4-.01-3.6.45-3.8.57-.25.24-.36-1.05-.33-1.3.03-1.76.19-.94.33l.41.07v3.08c0 3.6-.01 3.67-.46 3.86-.7.29-.37.34 2.51.34H37zm4.6.96c0-.09-.12-.16-.32-.18-.41-.04-.46-.2-.47-1.72l-.01-1.19.71-1.31c1.06-1.94 1.55-2.66 1.89-2.79.62-.23.35-.37-.7-.37-.82 0-1 .03-1 .15 0 .1.1.15.28.15.49 0 .6.15.38.52-.1.18-.55.97-.98 1.76-.44.78-.83 1.42-.88 1.42-.08 0-1.52-2.22-1.77-2.75-.22-.45-.07-.83.37-.91.16-.04.3-.13.3-.2 0-.11-.29-.14-1.46-.14-1.32 0-1.45.02-1.42.17.02.09.13.2.25.23.15.03.43.37.81 1 .33.52.96 1.51 1.4 2.19l.82 1.25v.95c0 1.03-.11 1.4-.48 1.56-.55.24-.24.35 1.03.35 1.02 0 1.25-.03 1.25-.14Zm-16.25-.25c-2.3-1.04-2.45-5.82-.22-6.9 2.01-.97 3.82.69 3.81 3.49 0 2.75-1.64 4.3-3.59 3.41Zm2.01-.27c.82-.43 1.37-1.67 1.37-3.14.02-4.37-4.71-4.79-4.91-.43-.13 2.7 1.68 4.52 3.54 3.57Zm20.95-6.55c-1.15-3.16-3.57-5.51-6.58-6.4l-.43-.12.27-.14c.44-.23 2.23.46 2.23.86 0 .29 1.23 1.06 1.48.92.16-.08.29.01.88.62.93.95.99 1.04.86 1.2-.15.17.55 1.27.81 1.27.13 0 .28.2.49.67.44.98.6 1.53.43 1.53-.07 0-.15.05-.17.12-.02.06-.15-.18-.27-.53ZM31.05 2.4c-7.99-.05-8.5-.06-8.53-.22S22.59 2 23.64 2c.96 0 1.16.03 1.16.15 0 .22 1.48.22 1.56 0 .09-.22 2.12-.22 2.2 0 .09.22 1.49.22 1.58 0 .08-.22 2.16-.22 2.16 0s1.45.22 1.54 0c.08-.22 2.26-.22 2.26 0 0 .12.16.15.8.15s.8-.03.8-.15.17-.15.94-.15c1.02 0 1.26.05 1.26.25 0 .08.08.16.18.18.09.03.01.04-.18.03-.19 0-4.17-.03-8.85-.06Zm-19.78-.07C11 2.07 11.23 2 12.33 2c1.18 0 1.29.02 1.2.26-.05.15-2.12.21-2.26.07Zm3.65-.08c-.23-.12-.23-.12.09-.19.42-.08 2.24-.08 2.32.01.32.31-1.87.48-2.41.18Zm3.79.01c-.18-.21.07-.26 1.3-.26 1.02 0 1.09.01 1.09.2 0 .26-2.18.31-2.39.06Z"/></svg>