<svg xmlns="http://www.w3.org/2000/svg" width="51" height="51" viewBox="0 0 51 51"><path fill="#fff" fill-rule="evenodd" stroke="#fff" stroke-width=".726" d="M26.31 41.47c-.12-.12-.16-12.87-.05-13.47.04-.19.15-.35.28-.41 1.8-.75 11.64-4.59 11.78-4.59.27 0 .25 13.58-.02 13.84-.13.13-9.87 4.03-11.36 4.56-.38.13-.55.15-.63.07Zm-2.86-.39c-.55-.22-3.15-1.25-5.78-2.28-2.64-1.03-4.83-1.92-4.89-1.98-.3-.3-.18-13.82.12-13.82.1 0 1.84.66 3.86 1.46 2.03.8 4.61 1.82 5.74 2.26s2.13.84 2.23.9c.16.08.17.49.15 6.96-.03 7.99.15 7.15-1.43 6.5Zm7.66-1.57c2.5-.98 5.1-2.01 5.79-2.29l1.25-.5.03-6.71c.01-3.69-.02-6.71-.06-6.71-.09 0-1.66.61-7.22 2.82-2.01.8-3.82 1.51-4.02 1.59l-.38.13v6.73c0 3.7.02 6.73.04 6.73s2.08-.8 4.57-1.79Zm-6.53-5.02-.03-6.7-2-.78c-1.1-.44-3.44-1.36-5.2-2.06s-3.48-1.38-3.82-1.51l-.63-.23v13.47l.28.1c1.4.54 7.23 2.83 8.97 3.53 1.21.48 2.26.88 2.33.88.1.01.12-1.36.1-6.7Zm-2.18 3.54c-.19-.09-1.95-.79-3.9-1.57l-3.55-1.41-.03-.62c-.02-.45.01-.63.09-.63.07 0 1.9.7 4.06 1.56l3.94 1.56-.03.61c-.03.67-.08.71-.58.5Zm5.87.1c-.04-.03-.07-.32-.07-.62v-.57l3.98-1.57c2.18-.87 4.01-1.57 4.05-1.57s.07.28.05.63l-.03.62-3.9 1.57c-4.23 1.7-3.99 1.61-4.08 1.51Zm-5.59-1.08c-.06-.05-7.44-2.95-7.51-2.95-.04 0-.07.17-.07.38v.38l3.38 1.33c1.85.74 3.55 1.41 3.77 1.51l.4.16.03-.39c.02-.21.02-.4 0-.42Zm9.62-.67c1.95-.78 3.61-1.46 3.68-1.51.12-.09.18-.77.06-.77-.03 0-1.76.68-3.85 1.52l-3.79 1.52v.39c0 .33.03.38.18.33.09-.04 1.77-.71 3.72-1.48Zm-13.35-3.21c-4.49-1.8-4.05-1.55-4.05-2.23 0-.74-.17-.78 4.25 1l3.8 1.52.03.62c.02.46 0 .62-.1.62-.07 0-1.84-.69-3.93-1.53Zm9.23 1.14c-.08-.84-.29-.71 3.92-2.38 2.12-.84 3.93-1.53 4.02-1.53.22 0 .26 1.01.06 1.18-.15.12-7.71 3.12-7.86 3.12-.05 0-.12-.17-.14-.39Zm-5.5-.33c-.03-.37-.07-.42-.38-.54-.19-.06-1.83-.71-3.64-1.43-1.8-.72-3.32-1.31-3.38-1.31-.05 0-.08.17-.06.37l.03.37 3.65 1.47c2.01.81 3.69 1.48 3.73 1.48.05.01.07-.18.05-.41Zm9.17-.9c1.65-.66 3.26-1.29 3.58-1.41.56-.21.57-.22.57-.59 0-.21-.03-.38-.07-.38-.05 0-1.76.66-3.8 1.47l-3.73 1.48v.38c0 .47-.38.57 3.45-.95Zm-3.59-1.85c-.03-.04-.06-.32-.06-.64v-.57l3.94-1.57c2.17-.87 3.99-1.54 4.05-1.5.26.15.13 1.11-.17 1.24-.22.11-5.28 2.14-7.23 2.91-.26.11-.5.16-.53.13Zm-9.46-1.57-3.85-1.53-.03-.53c-.05-.86-.64-1.03 6.88 1.93l1.15.46.03.6c.03.53.01.61-.15.61-.1-.01-1.91-.7-4.03-1.54Zm4 .94c0-.36-.03-.41-.37-.56-.42-.18-5.63-2.23-6.6-2.6l-.63-.24v.77l3.23 1.28c1.77.7 3.47 1.38 3.77 1.51s.56.23.58.24c.01 0 .02-.18.02-.4Zm9.72-1.25L36 27.96v-.38c0-.21-.02-.38-.04-.38s-1.72.67-3.77 1.49l-3.74 1.49-.03.41-.03.42.33-.14c.18-.07 1.89-.76 3.8-1.52Zm8.18.9c-1.58-.71-1.97-2.78-.76-4.05l.34-.35.05-2.52c.04-2 .02-2.53-.08-2.53-.07 0-2.03.76-4.36 1.69s-4.85 1.92-5.59 2.21-2.1.83-3.02 1.2l-1.68.67-1.32-.53c-.73-.29-5.2-2.06-9.93-3.94-9.06-3.6-9.14-3.64-9-4.19.11-.42.18-.46 2.08-1.21 1-.4 5.26-2.09 9.46-3.76 8.57-3.42 8.49-3.39 8.95-3.31.19.03 2.95 1.09 6.13 2.36 3.18 1.26 7.51 2.98 9.62 3.82 3.89 1.54 4.31 1.75 4.31 2.22 0 .39-.2.53-1.62 1.12l-1.38.58v6.15l.34.26c1.25.95 1.09 3.06-.28 3.91-.6.36-1.67.46-2.26.2Zm1.98-.29c1.38-.72 1.6-2.54.44-3.57l-.47-.41.03-3.16c.02-1.75.07-3.2.11-3.24.04-.05.67-.34 1.41-.66l1.35-.57V18c0-.41.53-.17-6.15-2.8-2.34-.93-6.25-2.48-8.7-3.46-2.45-.97-4.6-1.8-4.78-1.85-.52-.12.82-.62-17.47 6.65l-2.8 1.12v.69l9.97 3.98 9.96 3.99 2.59-1.02c1.42-.56 4.72-1.87 7.33-2.91s4.82-1.89 4.92-1.89c.17 0 .18.18.18 2.74v2.75l-.34.26c-1.03.79-1.08 2.34-.1 3.31.63.64 1.73.81 2.52.4ZM29.96 19.85l-2.8-1.13-2.6-.11c-1.44-.06-3.94-.16-5.56-.21-1.62-.06-3.92-.15-5.1-.2-1.18-.06-2.25-.1-2.37-.1-.52 0-.16-.28.9-.69.61-.24 3.84-1.51 7.15-2.83 4.31-1.7 6.1-2.37 6.25-2.32.12.04 1.86.71 3.87 1.5 8.36 3.29 10.35 4.1 10.35 4.24 0 .13-6.93 3.01-7.19 2.99-.06 0-1.37-.52-2.9-1.14Zm6.44-.49 3.34-1.34-.4-.17c-1.51-.63-13.48-5.35-13.51-5.32-.01.01.38 1.39.85 3.06l.87 3.04 2.55 1.02c1.4.57 2.64 1.03 2.75 1.04.12.01 1.71-.59 3.55-1.33Zm-9.25-1.18c-.06-.29-1.09-3.89-1.48-5.18-.08-.28-.19-.44-.28-.44-.08.01-2.57.98-5.54 2.17-2.97 1.18-5.98 2.37-6.69 2.64l-1.28.5 1.48.06c.82.04 3.43.14 5.79.23 3.66.13 6.94.27 7.83.32.22.02.23-.01.17-.3Z"/></svg>