<svg xmlns="http://www.w3.org/2000/svg" width="51" height="51" viewBox="0 0 51 51"><path fill="#fff" fill-rule="evenodd" stroke="#fff" stroke-width=".487" d="M17.4 40.55c-2.58-.58-4.14-2.58-4.14-5.3-.01-2.63 1.36-4.46 3.79-5.1 1.44-.37 3.68-.12 4.96.56 3.08 1.64 3.21 7.06.23 9.04-1.2.8-3.3 1.15-4.84.8Zm13.38 0c-2.98-.75-4.6-3.83-4.61-8.75-.01-5.02 1.68-8.21 4.68-8.85 1.9-.4 3.76.03 5 1.17 3.56 3.25 3.22 13.11-.54 15.72-1.05.73-3.15 1.06-4.53.71Zm-9.98-.43c2.22-.79 3.3-2.39 3.3-4.92 0-3.11-1.95-4.92-5.3-4.94-1.73-.01-2.95.42-3.89 1.36-2.26 2.25-1.68 6.64 1.06 8.11 1.28.69 3.5.87 4.83.39Zm12.85.13c2.79-.73 4.39-3.79 4.38-8.4-.01-5.67-2.06-8.75-5.83-8.75-3.23 0-5.1 2.2-5.65 6.63-.58 4.67.77 8.94 3.18 10.12 1.13.55 2.72.71 3.92.4ZM17.59 28c-3.49-.4-4.69-2.53-4.69-8.36 0-6.83 1.46-9.09 5.85-9.08 4.4.01 5.84 2.03 6.02 8.45.16 5.79-.93 8.22-3.95 8.84-.92.19-2.32.25-3.23.15Zm3.29-.45c2.62-.62 3.47-2.31 3.59-7.1.18-7.41-1.43-9.9-6.22-9.61-3.93.23-5 2.12-5 8.81 0 4.86.51 6.46 2.32 7.42 1.33.71 3.51.9 5.31.48Zm13.21-6.38c-2.15-.78-6.6-4.6-7.51-6.44-.75-1.54-.14-3.12 1.43-3.7 1.78-.67 5.77-.62 7.64.08 1.91.72 2.92 3.28 2.56 6.5-.36 3.17-1.79 4.4-4.12 3.56Zm2.54-.43c1.79-1.26 1.83-6.86.07-8.62-1.16-1.15-4-1.58-7.39-1.11-2.24.31-3.25 1.6-2.61 3.32.59 1.57 4.57 5.21 6.93 6.32 1.25.6 2.23.63 3 .09Z"/></svg>