<svg xmlns="http://www.w3.org/2000/svg" width="51" height="51" viewBox="0 0 51 51"><path fill="#fff" fill-rule="evenodd" stroke="#fff" stroke-width=".6" d="m36.62 49.38.03-1.83 3-.06c1.65-.03 3.82-.07 4.83-.08l1.82-.01v-1.19l-4.12-.03-4.13-.03-4.59 2.28c-3.21 1.6-4.65 2.27-4.8 2.23-.12-.03-.8-.49-1.51-1.02s-1.95-1.44-2.75-2.03c-.79-.58-1.76-1.32-2.14-1.64l-.7-.58-8.44.02-8.45.02-.17-.24c-.26-.34-.25.71-.25-21.2 0-19.92 0-20.37.19-20.58l.19-.21 20.68.02c20.18.03 20.67.03 20.88.22l.21.19-.02 14.85-.03 14.86-1.45.54c-3.12 1.16-9.44 3.6-13.22 5.1l-3.98 1.57v.6c0 .86.06 1.03.36.97.13-.02.27-.08.3-.13.21-.34.24.27.24 4.21 0 3.76.02 4.3.15 4.3.08 0 2.21-1.02 4.73-2.27l4.57-2.28 4.23.03 4.22.03v1.59h-4.69c-2.58 0-4.76.03-4.85.06-.14.05-.16.31-.16 1.8 0 1.12-.04 1.74-.1 1.74-.07 0-.1-.63-.08-1.82ZM14.38 48.3l.03-2.3h7.66l1.84 2c1.01 1.11 1.92 2.14 2.02 2.3l.19.3H14.35zm11.42 2.1c0-.03-.66-.78-1.47-1.66-.82-.88-1.67-1.81-1.89-2.07l-.42-.47H14.5v2.08c0 1.15.02 2.11.04 2.13.07.07 11.26.06 11.26-.01Zm2.56-8.17c-.02-.02-.15.01-.29.08-.19.09-.28.09-.39-.01-.14-.13-6.82-4.3-6.83-4.27-.01.01.04 1.52.09 3.36l.11 3.35.65.54c.88.73 1.86 1.48 4.45 3.4l2.2 1.62.03-4.01c.01-2.21.01-4.04-.02-4.06ZM.02 25.08 0 0l.28.01c.23.02.24.02.05.06L.1.11.07 25.13.05 50.15zm39.83 19.94c1.08-.59 6.42-3.32 6.49-3.32.03 0 .06.74.06 1.65 0 2.28.42 2.05-3.82 2.05h-3.43zm-30.91.2.48-.07-2.47-2.57C5.59 41.16 4.46 40 4.44 40c-.18 0-.02 4.8.17 5.04l.2.26 1.82-.01c1 0 2.04-.04 2.31-.07Zm12.33-.06c.01-.01-.32-.29-.75-.61-3.9-2.97-6.19-4.72-8.62-6.59-1.57-1.21-3.32-2.56-3.9-3s-1.45-1.12-1.95-1.51c-.5-.4-1.07-.84-1.27-1l-.38-.27v7.49l2.13 2.19c1.16 1.21 2.36 2.45 2.65 2.76.45.5.58.57.95.6.48.04 11.1-.02 11.14-.06Zm24.81-.08c.12-.12.18-3.08.07-3.08-.04 0-3.42 1.71-5.54 2.82l-.74.38h3.04c2.24 0 3.08-.03 3.17-.12Zm-25.43-1.6c-.02-.4-.07-1.83-.1-3.18-.04-1.76-.09-2.48-.18-2.56-.06-.07-.77-.53-1.57-1.02s-2-1.23-2.68-1.65l-1.23-.77.06 1.53c.18 4.04.2 4.3.41 4.44.1.07 1.32.98 2.69 2.02 1.38 1.05 2.53 1.9 2.57 1.91.04 0 .06-.33.03-.72Zm6.85-2.12v-.54l-1.67-.96c-.93-.53-2.6-1.52-3.73-2.2l-2.05-1.23-.03.4c-.02.26.02.43.1.49.07.04 1.73 1.09 3.68 2.32s3.58 2.24 3.63 2.25c.04 0 .07-.23.07-.53Zm4.2-2.6c4.53-1.8 4.44-1.76 4.39-1.8s-4.12-1.9-6.09-2.78c-.87-.39-1.64-.67-1.75-.65-.3.07-7.99 2.48-8.09 2.54-.16.1 7.29 4.37 7.49 4.29.05-.02 1.88-.74 4.05-1.6Zm-17.03-1.84-.11-2.83-.7-.44c-2.52-1.58-3.61-2.24-3.64-2.2-.04.03.1 2.13.31 4.82.02.28.22.47 2.12 1.92 1.15.88 2.11 1.59 2.12 1.58s-.04-1.29-.1-2.85Zm4.86-.82c-.04-.05-.91-.57-1.93-1.17-1.02-.61-2.23-1.33-2.7-1.62l-.85-.52-.03.32c-.05.42-.15.34 2.88 2.23l2.65 1.65.03-.41c.02-.22 0-.44-.05-.48Zm19.62-.25c1.38-.53 3.44-1.32 4.6-1.75s2.18-.81 2.28-.85c.18-.07.28-4.65.09-4.65-.04 0-1.32.4-2.85.88-2.66.85-2.79.88-3.27.78-.43-.09-.62-.06-1.47.18-.97.28-8.34 2.52-9.26 2.82l-.48.16 1.63.73c.9.4 2.62 1.18 3.83 1.74 1.21.55 2.24.99 2.3.97s1.22-.47 2.6-1.01Zm-29.1-1.81c-.21-3.12-.14-2.85-.88-3.32-1.31-.84-2.59-1.62-2.66-1.62s0 1.26.2 3.38l.12 1.33 1.66 1.28c.91.71 1.67 1.28 1.69 1.26.02-.01-.04-1.05-.13-2.31Zm13.6.41c2.09-.67 3.86-1.23 3.93-1.26.07-.02-1.15-.64-2.71-1.37l-2.83-1.32-2.4.6c-3.55.9-5.55 1.43-5.52 1.45.37.32 5.46 3.24 5.58 3.19.08-.04 1.86-.62 3.95-1.29Zm-17.31-2.6c-.08-.88-.17-1.93-.2-2.33l-.06-.73-.53-.33c-.29-.19-.67-.42-.84-.5l-.31-.17.01 2.08v2.08l1.01.77c.56.43 1.02.77 1.03.75.02-.01-.04-.74-.11-1.62Zm7.28 1c.04-.35.04-.35-.96-.92-.56-.31-1.52-.87-2.15-1.25-1.32-.79-1.21-.75-1.21-.4.01.3.02.31 2.1 1.62.63.4 1.35.85 1.6 1.01.57.36.57.36.62-.06Zm18.78-1.08c2.23-.69 4.5-1.37 5.05-1.52 1.28-.36 1.29-.37.45-.64-.83-.27-.8-.14-.3-1.59.22-.63.39-1.17.37-1.18-.02-.02-1.06.23-2.3.56-1.98.53-2.32.59-2.65.51-.33-.09-.73-.01-3.27.64-1.6.41-3.9 1-5.13 1.31l-2.22.57 2.57 1.21c1.42.67 2.69 1.27 2.83 1.33.31.15-.17.27 4.6-1.2Zm-16.82-.11c1.08-.29 2.77-.73 3.75-.96.97-.24 1.77-.46 1.77-.5s-.97-.53-2.14-1.09l-2.15-1.03-2.68.61-3.65.82c-.53.12-.95.25-.93.29.03.04.62.41 1.32.83 1.84 1.08 2.68 1.56 2.71 1.57.02 0 .92-.24 2-.54ZM9 30.06c0-.33-.03-.35-1.38-1.11-.75-.43-1.52-.87-1.69-.97l-.33-.2v.24c0 .16.12.31.43.5.23.15.98.63 1.67 1.07s1.26.8 1.27.8c.02.01.03-.14.03-.33Zm16.35-.87c1.92-.51 4.15-1.08 4.95-1.29l1.45-.36-.52-.18c-.29-.1-.53-.19-.53-.2s.16-.49.35-1.06c.4-1.2.41-1.16-.27-1.02-2.07.43-13.18 2.84-13.36 2.9-.24.08 3.79 2.09 4.23 2.11.1.01 1.77-.4 3.7-.9Zm15.33.09c.66-1.76 1.22-3.52 1.15-3.58-.1-.09-2.82-.65-2.87-.59-.06.06-1.38 3.82-1.4 3.98-.01.13 2.26.96 2.7 1 .06.01.25-.36.42-.81Zm3.02-.23 2.45-.71.03-1.77c.01-.97 0-1.77-.03-1.77-.09 0-3.89.9-3.9.93-.01.01-.31.88-.67 1.92-.36 1.05-.69 1.98-.73 2.09-.07.16-.05.17.16.1.13-.04 1.34-.4 2.69-.79Zm-32.98-.04c.9-.21 2.4-.56 3.33-.76.93-.21 1.76-.41 1.82-.44.15-.08-3.04-1.61-3.35-1.61-.23 0-5.71 1.11-6.4 1.3l-.44.11 1.54.89c1.81 1.04 1.48.99 3.5.51Zm7.16-1.6c.75-.17 3.37-.73 5.82-1.26s5.21-1.12 6.15-1.31c1.96-.41 1.76-.3 2.04-1.16l.22-.67.57-.2c1.25-.43-1.97.08-7.88 1.25-.96.19-1.98.33-2.25.32-.49-.03-9.22 1.57-9.37 1.71-.07.06 3.05 1.6 3.25 1.61.04 0 .69-.13 1.45-.29Zm16.08-1.51c.35-.96.66-1.82.69-1.91.05-.16-2.17-.71-2.3-.57-.03.02-.31.78-.64 1.69-.32.9-.62 1.71-.65 1.79-.05.12.12.2.81.39.49.14.95.28 1.03.33.32.17.44-.02 1.06-1.72Zm2.06 1.09 2.07-.54.27-.7c.39-1.02.25-.97 2.1-.68l1.61.26 1.64-.36c.91-.2 1.83-.39 2.07-.43l.42-.07v-3.99l-.27.07c-.16.04-1.22.24-2.38.45-1.9.35-9.49 1.88-10.35 2.09-.33.08-.34.08-.1.14.7.17 2.03.37 2.18.33.57-.18 8.95-1.79 9.87-1.9l.5-.06-.34.16c-.57.26-8.3 2.06-10.15 2.36-.14.02-.32.4-.76 1.58-.31.85-.61 1.64-.65 1.74-.06.15-.05.18.06.14.08-.03 1.07-.29 2.21-.59ZM7.3 26.8a241 241 0 0 1 3.24-.68l1.4-.28-1.38-.63-1.38-.64-2.39.43-2.39.43v1.37l.38.19c.49.26.38.27 2.52-.19Zm7.24-1.44c1-.19 2.82-.54 4.06-.77 3.02-.56 3.02-.56 2.68-.58-.32-.01-.34-.11-.13-.71.08-.23.15-.46.15-.5s-.33 0-.72.08c-.4.08-1.18.16-1.73.17-.96.01-1.91.16-7.25 1.1-1.07.19-1.97.35-2 .35-.24 0 2.53 1.18 2.79 1.19.19.01 1.15-.14 2.15-.33Zm-7.65-.78 1.64-.31-1.14-.54-1.14-.54-.9.13-.9.13-.03.79-.03.79.43-.07c.24-.04 1.17-.21 2.07-.38Zm6.52-1.14c2.85-.48 4.04-.71 3.91-.77-.19-.09-.19-.11-.04-.48.2-.52.18-.53-.85-.4-.48.06-1.13.1-1.43.1-.3-.01-1.86.19-3.45.45-1.59.25-3.37.54-3.95.63-.9.14-1.01.18-.8.27.14.05.66.3 1.15.54.53.25.99.41 1.13.39.12-.02 2.07-.35 4.33-.73Zm9.92-.54c.25-.69.5-1.37.56-1.52.12-.31-.08-.4-1.14-.53l-.5-.07-.42 1.34c-.23.74-.45 1.41-.48 1.5-.05.12 1.31.6 1.51.53.01 0 .22-.56.47-1.25Zm.52.96c.9-.25 7.7-1.43 10.45-1.81.63-.09 2.07-.34 3.2-.56 1.13-.21 2.2-.39 2.39-.39.18 0 .74-.07 1.24-.17l.91-.16-1.17-1.13c-1.43-1.38-1.29-1.35-3.42-.84-2.63.64-6.55 1.37-12.38 2.32l-.78.13-.5 1.35c-.57 1.57-.54 1.43-.31 1.36.09-.02.26-.07.37-.1Zm.96-.9c.09-.09 3.98-.95 6.79-1.51 1.57-.3 3.65-.72 4.64-.91.98-.19 1.8-.33 1.82-.31.06.06-2.93.71-6.91 1.51-2.04.41-4.23.86-4.88 1-1.14.25-1.55.31-1.46.22ZM8.93 22.4c2.18-.35 5.06-.8 5.15-.8.02 0 .01-.04-.02-.09s.01-.28.09-.51c.08-.24.14-.44.13-.45-.03-.02-9.19 1.28-9.67 1.37-.32.06-.16.25.47.55.86.4.87.4 3.85-.07Zm10.44-.97c.56-1.56.58-1.52-.38-1.56l-.62-.02-.43 1.29c-.49 1.45-.5 1.37.14 1.52.82.2.75.26 1.29-1.23Zm1.2 1.16.83-.12.32-.99c.22-.68.37-.98.48-.98.08 0 .57.07 1.09.15l.93.15 3.17-.51c4.71-.75 8.61-1.51 8.61-1.67 0-.03-.18-.25-.4-.47l-.41-.41-1.37.27c-1.26.26-7.2 1.19-11.78 1.85l-1.91.28-.43 1.2c-.24.67-.45 1.27-.48 1.35-.04.11.01.13.24.08.16-.03.66-.11 1.11-.18ZM9.58 20.84l4.82-.69.11-.28c.17-.4.25-.39-2.36-.06-1.31.16-2.44.28-2.5.25-.1-.03-2.95.32-4.82.6l-.43.06v.45c0 .39.03.45.18.41.1-.03 2.35-.36 5-.74Zm6.3-.43c.5-1.33.5-1.37-.2-1.48l-.53-.08-.42 1.19c-.52 1.45-.51 1.32-.05 1.44.7.19.72.17 1.2-1.07Zm.67 1.04c1.06-.13 1-.07 1.35-1.07l.32-.9.47.06c1.38.18 1.81.17 3.26-.04C27.51 18.7 32 17.94 32 17.79c0-.21-.73-.61-1.03-.56-1.97.36-3.08.52-6.28.92-2.06.26-4.71.59-5.89.74l-2.15.27-.47 1.22c-.37.98-.43 1.22-.3 1.18.09-.02.4-.07.67-.11Zm27.55-1c.8-.14 1.6-.27 1.78-.3l.32-.06V3.71l-.22-.15c-.24-.17-41.09-.25-41.34-.08-.08.05-.13 1.47-.18 4.6l-.07 4.52h.66c.59 0 .75.04 1.24.34l.56.34 1.52-.06 1.53-.05.53.42.54.41h1.29c.98.01 1.34.04 1.48.15.13.1.44.15.9.15.43.01.81.06.96.15.16.09.54.14 1.04.15h.79l.53.45.53.46 1.42-.11c1.52-.11 1.93-.08 2.51.21.29.15.6.19 1.37.19h.99l.84.66.83.65 1-.06c.55-.04 1.38-.11 1.83-.16 1.24-.14 1.94-.04 2.49.38l.45.34.86-.1c1.73-.21 2-.18 2.54.36l.47.46 1.08-.11c2.25-.25 2.39-.2 4.03 1.37.63.61 1.22 1.1 1.3 1.11.09 0 .81-.11 1.6-.25Zm-37.3-.41c1.09-.16 1.97-.32 1.94-.36s0-.17.06-.29c.11-.2.1-.21-.67-.2-.43.01-.89.01-1.03 0-.14 0-.79.08-1.45.18l-1.2.18-.03.44c-.03.4-.02.43.18.38.11-.03 1.1-.18 2.2-.33Zm3.1-.29c0-.02.18-.54.4-1.15l.39-1.11-.45.03-.46.03-.35.9c-.43 1.12-.44 1.17-.13 1.26.3.08.6.11.6.04Zm2.5-.25c2.37-.26 2.24-.23 2.48-.7l.19-.4h-.36c-.85-.01-.76-.24.14-.34.27-.03 1.44-.17 2.6-.31 1.16-.13 3.45-.38 5.1-.55s3.04-.32 3.09-.33c.05-.02-.1-.18-.32-.36l-.41-.32-1.43.15c-1.46.16-6.02.59-10.13.96-1.26.12-2.33.24-2.36.28-.08.09-.79 2.02-.79 2.14 0 .05.08.07.18.04.09-.03 1-.14 2.02-.26Zm-6.45-.47c.41-.03.72-.1.69-.15-.03-.04.04-.33.16-.64l.21-.56-.43.06c-.24.03-.72.08-1.08.11-1.15.11-1.1.07-1.1.76v.62l.4-.07c.22-.03.74-.09 1.15-.13Zm1.94-1.11c.49-1.23.49-1.14.04-1.1l-.38.03-.32.9c-.39 1.09-.39 1.01-.05 1.13.33.11.23.25.71-.96Zm.66.98h.43l.27-.71c.31-.8.31-.77-.26-.9-.51-.12-.49-.13-.88.81-.35.85-.37.94-.15.86.09-.03.35-.06.59-.06Zm13.21-.75c2.84-.35 5.19-.67 5.22-.7.18-.17-4.56.26-9.28.85-.85.11-1.68.21-1.85.23l-.3.03.35.11c.51.16.24.18 5.86-.52ZM5.51 17.6c1.58-.16 1.57-.15 1.71-.62.06-.22.17-.42.22-.44.15-.04 3.36-.31 5.36-.44 1.75-.11 4.51-.36 5.1-.46l.35-.06-.39-.34c-.46-.4-.4-.39-2.58-.19-.9.08-3.18.26-5.08.4s-3.9.29-4.45.35c-.55.05-1.08.1-1.17.1-.16 0-.18.11-.18.9 0 .49.02.9.04.9s.5-.05 1.07-.1Zm5.39-.6c.36-.05 1.75-.16 3.1-.25 2.99-.18 4.86-.32 6.89-.51.85-.08 1.66-.14 1.8-.14.22 0 .2-.03-.16-.2-.43-.19-.45-.19-3.25.05-1.56.14-3.91.34-5.23.45-3.42.28-5.39.51-5.23.61.18.12 1.28.11 2.08-.01Zm-1.4-1.86c3.19-.15 5.86-.37 5.97-.48.09-.09-.17-.08-3.13.14-2.23.16-6.85.4-7.72.4-.12 0-.22.05-.22.11 0 .07.33.08 1.03.04.56-.03 2.39-.12 4.07-.21Zm1.15-.55c.88-.06 1.94-.15 2.35-.19l.75-.09-.95.04c-.52.02-2.32.08-4 .15-3.96.14-5.33.3-2.1.24 1.29-.02 3.07-.09 3.95-.15Zm-2.25-.4c1.24-.06 2.26-.12 2.28-.13.19-.2-.88-.58-1.47-.52-.71.07-4.48.36-4.68.36-.14 0-.18.32-.06.43.03.04.43.05.87.02.45-.03 1.82-.1 3.06-.16Zm-2.1-.85c.38-.13-.45-.44-1.18-.44-.69 0-.72.01-.72.23 0 .13.02.26.04.28.06.05 1.66-.01 1.86-.07ZM14.42.03c6.19-.02 16.36-.02 22.6 0 6.23.01 1.16.02-11.27.02S8.22.04 14.42.03Z"/></svg>