<svg xmlns="http://www.w3.org/2000/svg" width="51" height="51" viewBox="0 0 51 51"><path fill="#fff" fill-rule="evenodd" stroke="#fff" stroke-width=".769" d="M24.74 51.05c.03-.08 1.49-2.64 3.24-5.68 1.76-3.03 3.24-5.62 3.31-5.74.09-.19-.02-.49-.85-2.25-6.21-13.14-9.74-20.7-9.74-20.88 0-.06.32-.1.78-.1.42 0 2.68-.02 5.02-.05 2.34-.02 4.31-.01 4.38.04.06.04.63 1.19 1.26 2.57.62 1.37 1.64 3.57 2.25 4.89s1.46 3.15 1.89 4.07c.42.92.8 1.64.83 1.6.04-.04 1.27-2.16 2.74-4.72s3.17-5.49 3.78-6.52l1.11-1.88 2.16-.02c3.43-.04 4.3-.01 4.3.12 0 .06-1.17.11-3.16.12l-3.16.03-1 1.7c-.56.94-1.85 3.16-2.88 4.95s-2.3 3.99-2.82 4.9c-.53.91-1.02 1.66-1.1 1.68-.08.01-.22-.15-.34-.4-.31-.62-4.39-9.46-5.22-11.28l-.71-1.55-4.9-.03c-2.7-.01-4.91 0-4.91.02s.31.71.69 1.53c.64 1.38 1.27 2.72 5.34 11.38.85 1.81 2.23 4.74 3.06 6.49s1.51 3.28 1.51 3.38c0 .11-.45.97-.99 1.91-1.9 3.3-5.21 9.02-5.45 9.45-.24.4-.55.6-.42.27Zm10.36.1c0-.03.11-.22.24-.43.5-.77 8.12-13.9 13.98-24.07 1.75-3.02 1.88-3.24 1.88-2.97 0 .12-.68 1.41-1.51 2.85-5.9 10.22-9.05 15.64-13.52 23.3-.66 1.13-1.07 1.63-1.07 1.32ZM0 .1C0 .03 8.6 0 25.6 0s25.6.03 25.6.1-8.6.1-25.6.1S0 .17 0 .1Z"/></svg>