<svg xmlns="http://www.w3.org/2000/svg" width="51" height="51" viewBox="0 0 51 51"><path fill="#fff" fill-rule="evenodd" stroke="#fff" stroke-width=".746" d="M23.6 44.8C10.35 43.41 2.46 29.19 8.25 17.12c5.16-10.76 19.33-14.18 28.91-6.99 12.14 9.12 9.46 28.05-4.75 33.52-2.55.98-6.05 1.44-8.81 1.15Zm4.9-.36c11.53-1.65 18.91-13.71 15.2-24.86-2.18-6.55-7.4-11.18-14.32-12.7-1.53-.34-5.69-.34-7.35 0-6.98 1.41-12.31 6.04-14.49 12.57C3 33.08 14.24 46.47 28.5 44.44Zm-14.6-9.98c0-.29 1.68-1.95 2.04-2.01.17-.02 2-.12 4.06-.2 3.5-.14 7.2-.35 9.73-.54.59-.04 1.13-.13 1.19-.19.09-.09-1.57-.12-6.8-.12-6.06 0-6.93-.02-6.98-.15-.04-.09.17-.41.55-.84l.61-.69.72-.06c.4-.03 2.06-.13 3.68-.21 8.79-.44 10.86-.57 10.99-.68.25-.21-.81-.25-7.46-.26-7.34-.01-6.8.08-5.8-.96l.62-.66 3.85-.19c7.09-.36 11.39-.65 11.52-.78.12-.12-4.07-.22-9.64-.22h-4.77l-.45-.52c-.24-.29-.82-.98-1.28-1.53-5.16-6.19-6.47-7.8-6.4-7.87.09-.09 2.7.78 15.12 5.05 12.56 4.32 11.95 4.1 11.95 4.3s-2.51 2.89-6.16 6.6l-2.74 2.78-9.07.06c-8.5.06-9.08.05-9.08-.11Zm19.08-1.19c.97-.96 6.19-6.38 7.27-7.55.58-.63.62-.57-.8-1.06-.55-.19-4.55-1.56-8.9-3.06-11.21-3.86-16.07-5.51-16.16-5.48-.04.02 1.19 1.54 2.72 3.38 1.54 1.84 3.28 3.94 3.88 4.65l1.07 1.3 7.34.03c4.66.01 7.38.06 7.44.12s.01.2-.18.38c-.25.27-.33.29-1.34.36-2.6.16-9.68.56-11.82.66l-2.35.12-.53.51c-.28.28-.52.55-.52.59s3.17.08 7.04.08c3.88 0 7.07.04 7.1.08.03.05-.1.24-.28.41l-.34.33-1.64.09c-.89.05-4.27.22-7.5.39-3.22.16-5.93.32-6.01.35-.08.04-.35.31-.61.61l-.47.54 6.83.01c3.76.01 6.93.04 7.05.07l.23.07-.29.31c-.26.28-.37.32-1.08.37-1.24.11-7.55.45-10.28.56-1.37.06-2.86.14-3.3.17l-.8.06-.68.66c-.38.37-.72.74-.77.82-.07.13.93.15 8.78.12l8.87-.03z"/></svg>