<svg xmlns="http://www.w3.org/2000/svg" width="51" height="51" viewBox="0 0 51 51"><path fill="#fff" fill-rule="evenodd" stroke="#fff" stroke-width=".789" d="M10.3 35.6c-.58-.58-.4-.82 4.31-5.56 3.56-3.57 4.19-4.25 4.19-4.49s-.66-.95-4.4-4.7c-4.77-4.79-4.72-4.73-4.2-5.25.2-.2.33-.2 6.1-.2h5.9l1.61 1.65c1.31 1.33 1.67 1.65 1.89 1.65s.56-.31 1.85-1.65l1.57-1.65h5.97c6.67 0 6.31-.04 6.31.68 0 .38-.46.87-5.47 5.92-2.52 2.54-3.33 3.42-3.33 3.6s1.01 1.25 4.24 4.49c4.74 4.77 4.81 4.86 4.35 5.45l-.2.26H29.16l-1.61-1.65c-1.29-1.33-1.65-1.66-1.87-1.65-.21 0-.58.33-1.84 1.65l-1.57 1.65h-5.89c-5.75 0-5.88 0-6.08-.2Zm11.71-.09c.17-.04.79-.62 1.68-1.58 1.47-1.57 1.8-1.8 2.27-1.63.14.06.96.82 1.81 1.7l1.56 1.6 5.31-.01c5.99-.01 6.39-.03 6.44-.36.06-.4-.22-.72-4.51-5.08-2.62-2.66-4.27-4.41-4.27-4.53 0-.34.53-.92 3.9-4.27 4.85-4.83 5.2-5.23 4.85-5.59-.15-.14-.77-.16-5.93-.16h-5.76l-1.71 1.7c-1.28 1.27-1.77 1.7-1.96 1.7-.18 0-.67-.43-1.94-1.7l-1.7-1.7h-5.71c-5.44 0-5.73.01-5.95.19-.19.15-.21.23-.14.4.06.12 2.04 2.16 4.41 4.54 4.55 4.58 4.65 4.69 4.31 5.2-.08.13-2.02 2.13-4.31 4.44-2.29 2.32-4.2 4.32-4.24 4.44-.12.32-.03.59.22.69.24.1 10.97.11 11.37.01ZM0 34.71c0-.05.93-.6 2.08-1.22 2.04-1.1 5.49-2.99 8.92-4.89.96-.53 2.19-1.21 2.73-1.5 1.23-.66 1.53-.91 1.59-1.32.11-.75 0-.87-1.59-1.75a1695 1695 0 0 0-9.9-5.4C1.72 17.48 0 16.49 0 16.41c0-.18-.33-.35 6.01 3.11 3.16 1.73 6.52 3.57 7.48 4.09 2 1.08 2.14 1.23 2.08 2.08-.05.65-.17.78-1.34 1.41-.43.24-1.81 1-3.08 1.7-4.67 2.59-10.96 6-11.05 6-.06 0-.1-.04-.1-.09Z"/></svg>