<svg xmlns="http://www.w3.org/2000/svg" width="51" height="51" viewBox="0 0 51 51"><path fill="#fff" fill-rule="evenodd" stroke="#fff" stroke-width=".344" d="M15.85 48.79c-3.1-.16-4.73-.5-5.1-1.08-.28-.43-.81-1.73-.9-2.24-.07-.36.24-.85.62-.98.33-.11.02-.75-.46-.96-1.04-.45-1.7-1.11-1.33-1.32.12-.08-.55-.09-2.23-.04l-2.4.06-1.18-3.24c-.65-1.78-1.33-3.63-1.5-4.11l-.32-.87.39-.4.39-.4-.42-.7c-.52-.87-.55-.73.39-1.66.96-.95.97-.99.2-.93-.59.04-.63.06-1.23.66-.34.34-.66.62-.7.62-.24 0 .04-.43.62-.96l.67-.61.8-.07c.44-.04.88-.04.98 0 .16.06.17.01.11-.74-.09-.96-.19-.88 1.44-1.21 1.32-.27 1.28-.27 1.48.14s.18.41.74.15c.24-.11.56-.2.71-.2.24 0 .28-.04.28-.3 0-.35-.15-.38-.78-.16-.39.14-.52.12-.52-.06 0-.04.27-.15.6-.25.55-.15.6-.19.6-.44 0-.34.07-.35 1.76-.44l1.31-.07.48.66.49.66h.93c1.1 0 1.05-.05 1.23 1.36l.13 1.01 4.16.07c2.29.04 4.28.05 4.44.01l.27-.07-.06-4.88-.07-4.87 1.64-1.3c.9-.72 2.47-1.96 3.49-2.76l1.85-1.46 1.11-.01h1.11l.77-1.29c.43-.7.88-1.4.99-1.54l.22-.26 2.94-.16c1.62-.09 3.66-.18 4.55-.18l1.61-.02.32.65c.18.36.55 1.26.83 2.01l.51 1.36 1.02.07c.56.04 1.03.08 1.04.1.02.01.66 1.32 1.43 2.9l1.41 2.88-.06 2.46c-.07 3.26-.07 4.47.04 7.56l.1 2.59-2.33 3.16c-3.29 4.48-3.08 4.21-3.33 4.21-.21 0-9.27-2.06-13.58-3.09-.94-.23-1.8-.43-1.92-.46-.31-.07-.21.42.2 1.02.35.53.31.86-.14 1.11-.23.13-.28.22-.24.39.03.14-.05.43-.2.72l-.24.49.47.11c.26.05.62.13.8.16.5.1.37.33-.5.9-.57.37-.75.54-.72.67.03.1-.02.45-.1.79-.2.78-.21.76.12.84.93.23.89 1.35-.11 3.1-.56.99-5.67 1.47-12.12 1.14Zm8.7-1.04c3.1-.28 3.3-.36 3.69-1.4.32-.87.32-.87 0-.74-3.05 1.15-12.71 1.26-17.2.19-.96-.22-.91-.29-.51.66l.33.79.54.12c2.51.56 9.14.76 13.15.38Zm-.25-2.19c1.52-.2 2.73-.51 2.95-.76.13-.15.58-1.51.51-1.56 0-.01-.31-.04-.67-.07l-.66-.06-.6.82c-1.2 1.61-1.09 1.62-2.83-.23-2.36-2.49-2.8-2.5-5.81-.04-2.19 1.78-2.27 1.84-2.42 1.84s-.9-.76-1.18-1.2l-.16-.24-.41.18c-.51.23-.92.24-1.08.01-.12-.16-1.14-.36-1.14-.22 0 .99 1.11 1.34 5.5 1.71 1.2.1 6.81-.03 8-.18Zm-9.37-.54c-.19-.12.07-.43.37-.44.22-.01 1.59-1.05 2.9-2.18l.35-.31-.35.06c-.97.15-.74-.38.25-.6 1.07-.24 2.16-.17 2.86.18.32.15.56.22.59.16.09-.14.62.3.58.48-.02.08.49.66 1.12 1.29 1.32 1.31 1.12 1.31 2.05 0l.56-.8-1.1-.53c-.61-.29-1.11-.57-1.11-.62s-.33-.12-.72-.15a18 18 0 0 1-3.36-.68l-1.03-.32-.81.4c-1.21.58-4.38 2.71-4.38 2.94 0 .17 1.02 1.2 1.19 1.2.11 0 .13-.02.04-.08Zm-2.02-1.1c.51-.34.99-.77.99-.88 0-.06.32-.32.7-.59.85-.57.85-.57-.1-.38-1.12.23-3.02.22-3.66-.01-.48-.18-.51-.18-.85-.01-.18.1-.51.24-.72.3l-.39.11.54.38c.93.64 1.83.81 2.4.47.39-.25.5-.19.36.19-.2.58.18.8.73.42Zm15.33-1.68c.94-.57.96-.6.38-.68-.26-.03-.57-.13-.68-.2-.18-.13-.26-.13-.65.01-.25.08-.97.17-1.69.21-1.42.06-1.47 0 .45.73 1.26.48 1.29.48 2.19-.07Zm-13.23-.58c1.31-.27 2.25-.62 3.9-1.44.88-.43 1.19-.54 1.25-.45.13.19 1.94.6 3.19.74 1.59.17 3.54-.06 3.95-.46.2-.2.01-.2-.65.01-1.62.5-5.79.12-6.45-.58l-.2-.22-1.08.56c-2.94 1.55-7.36 2.28-8.22 1.35-.18-.18-.2-.19-.2-.03 0 .27.44.64.86.71.22.04.44.08.49.11.23.09 2.1-.08 3.16-.3Zm-7.34.17c1.41-.06 1.42-.06 1.27-.27-.07-.11-.14-.36-.14-.55v-.34l-2.42.07c-2.8.09-2.54.01-2.33.65l.17.51h1.01c.56 0 1.66-.03 2.44-.07Zm2.18-.35c.18-.08.25-.19.25-.4q0-.3.3-.6l.31-.31-.26-.37c-.62-.89-2.04-.61-1.66.32.07.18.19.55.27.82.18.65.33.75.79.54ZM27.34 41c.49-.25.76-.53.64-.66-.04-.03-.31.06-.61.2-1.33.65-6 .45-7.44-.32-.13-.07-.26-.06-.41.02-.36.19 1.36.71 3.33 1 1.1.16 4.01 0 4.49-.24Zm-13.15-.05c1.78-.31 3.75-.98 4.91-1.68.73-.43.28-.37-.68.09-2.34 1.13-5.67 1.79-7.14 1.41-.16-.04-.28-.03-.28.02 0 .31 1.81.41 3.19.16Zm-6.38-.55h.67l-.05-.43c-.1-.88.37-1.77 1.03-1.93.56-.14.65-.74.12-.74-.72 0-6.83.23-6.87.26-.02.02.21.69.5 1.5l.54 1.47 1.7-.07c.94-.03 2-.06 2.36-.06Zm4.37-.24c.36-.19.78-.65.85-.93.07-.29.03-.29-.36.01-.61.45-1.19.42-1.67-.09-.45-.48-.58-.04-.17.56.37.56.84.71 1.35.45Zm32.22-2.91V34.2h-.5v2.99c0 3.19-.02 3.03.43 3.1.04 0 .07-1.36.07-3.04Zm-29.7 2.8c1.14-.19 1.29-.29.6-.44-1.02-.22-1.75-.1-2.37.39l-.26.2h.54c.3 0 .97-.07 1.49-.15Zm13.71-.78c.37-.15.4-.47.03-.47-.33 0-.64.16-.9.49l-.22.26.37.2.36.21.03-.29c.03-.22.11-.32.33-.4ZM43.3 37c0-1.65-.04-3-.08-3s-1.11-.22-2.38-.5c-2.71-.59-2.5-.58-2.7-.18-1.91 3.69-7.99 2.68-10.1-1.69l-.49-1-1.95-.37c-1.07-.2-2.01-.36-2.07-.36-.22 0-.16.58.06.65 1.66.52 3.74 2.96 4.5 5.26l.22.67.62.15c.83.2 7.06 1.69 10.92 2.61 1.71.4 3.18.74 3.27.75.17.01.18-.19.18-2.99Zm3.1.65c.84-1.16 1.86-2.55 2.26-3.09l.74-1v-1.93c0-1.94-.04-2.14-.34-1.71-.13.18-.14.43-.09 1.42l.05 1.21-1.49 1.53c-1.86 1.89-1.83 1.89-1.83.27 0-1.41.01-1.4-.57-.83l-.43.42v3c0 1.68.04 2.96.09 2.9.04-.05.77-1.03 1.61-2.19ZM22.54 39.7c.21-.08.26-.18.32-.6.05-.35.17-.64.41-.95.42-.56.39-.56-.33.01-1.08.84-1.87 1-1.98.4-.17-.88-1.11-1.14-2.16-.61-.92.47-.92.62.03.61.92-.01 1.7.27 2.56.91.46.34.72.4 1.15.23Zm2.9.01c.19-.07.18-.08-.05-.15-.85-.24-2.39-.15-2.39.14 0 .12 2.14.13 2.44.01Zm1.81-.61c.36-.37.6-.52.87-.57.46-.07.4-.23-.09-.23-.22 0-.58.12-.9.3q-1.26.72-1.62-.18c-.38-.93-1.03-1.03-1.78-.29-.71.72-.7.77.3.77.84 0 1.38.12 2.17.49.57.26.48.29 1.05-.29Zm-10.27.18c.03-.14-.03-.18-.26-.18-.16 0-.78-.09-1.38-.2-1.38-.25-1.47-.25-1.8.03l-.27.24.79-.04c.59-.03.96.01 1.44.16.8.24 1.43.23 1.48-.01Zm-4.67-.24c.09-.11.06-.14-.21-.14q-.315 0-.27-.12c.02-.08.24-.13.58-.14.3 0 .71-.08.91-.17.46-.21 1.1-.22 1.74-.02.27.08.77.2 1.11.25l.63.1.68-.7c.8-.81.86-.77-.98-.55-2.68.33-5.65 1.05-5.39 1.3.41.41.95.49 1.2.19Zm-2.03-.15c-.23-.65-.89-.73-1.32-.16q-.36.48.18.27c.38-.14.79-.12 1.02.05.1.08.2.15.21.15s-.03-.14-.09-.31Zm11.77-.67c.4-.19 1.45-.84 1.45-.88 0-.02-.75-.04-1.67-.04-1.49.01-1.64.02-1.38.14.35.15.85.7.85.92 0 .17.22.13.75-.14Zm4.78.09.29-.19-.48-.16c-.56-.19-.53-.2-.47.22.06.37.24.41.66.13Zm-14.93-.25c2.93-.79 5.48-1.08 9.98-1.11l3.63-.03.28.24c.36.3 1.96.87 2.22.79.59-.19-.49-3.34-1.63-4.75-3.63-4.48-11-3.87-14.84 1.23-1.33 1.77-1.8 4.13-.79 3.93.11-.02.63-.15 1.15-.3Zm-3.54-1.02 1.61-.07.23-.76c.13-.42.41-1.09.62-1.5s.37-.75.35-.76c-.01-.01-.67.02-1.47.07-.8.04-2.98.11-4.86.16l-3.4.07.55 1.49.56 1.49 2.1-.07c1.16-.03 2.83-.09 3.71-.12Zm26.63-1.74c2.39-.45 3.78-2.7 3.27-5.31-1.02-5.24-7.95-7.63-10.15-3.5-2.11 3.96 2.35 9.67 6.88 8.81Zm13.65-3.89-.09-1.01-1.27 1.17L46 32.73v2.42l1.36-1.37 1.37-1.36zm-15.77 3.44c-4.2-1.06-6.3-6.26-3.56-8.79 2.86-2.65 8.1.15 8.55 4.55.28 2.79-2.24 4.93-4.99 4.24Zm2.64-.47c2.99-1.39 2.66-5.91-.58-8.12-3.69-2.51-7.66.21-6.34 4.35.91 2.88 4.57 4.87 6.92 3.77Zm-21.86-.33c-.29-.28-.32-.6-.09-.69.34-.13.9.47.77.82-.08.2-.42.14-.68-.13Zm-8.47-.22c1.65-.07 1.56.05 1.02-1.35-.45-1.15-.45-1.18-.27-1.18.13 0 .32.43.87 1.93l.21.57h.72c.4 0 1.37-.05 2.17-.1l1.45-.1.39-.48c.6-.72 1.56-1.6 2.05-1.89.51-.31.52-.3-.67-1.02l-.7-.42-.51.31c-.64.37-.59.38-.63-.12-.02-.34-.07-.43-.23-.45-.11-.01-.5-.05-.87-.08-.58-.06-.68-.09-.68-.26 0-.6-1.08.19-1.12.82-.04.68-.22.62-.26-.1l-.03-.59.73-.4c.76-.42.88-.43.88-.12 0 .27.13.32.99.39l.76.06.03.33c.04.38 0 .37.56.1l.45-.21.67.41c.38.23.7.4.71.38.02-.02-.04-.63-.13-1.35l-.18-1.31h-.95l-.96-.01-.48-.65-.49-.66-1.21.07c-1.51.09-1.41.01-1.32 1.01.07.88.01 1.01-.35.69-.14-.13-.22-.11-.66.09-.89.41-.92.42-1.11.02-.14-.3-.22-.36-.47-.36-.37.01-1.93.34-2.03.44-.06.05.21 2.33.44 3.75.04.26.02.32-.08.29-.09-.03-.2-.37-.29-.92-.08-.48-.18-.87-.23-.87-.49-.03-.96.18-1.44.64-.6.57-.62.63-.29 1.15.13.21.38.66.55 1l.31.62h.63c.34 0 1.26-.03 2.05-.07Zm41.09-1.74c1.09-.99 2.22-2.06 2.51-2.37l.54-.57-.07-1.4c-.03-.77-.08-1.41-.1-1.43-.06-.06-2.69 1.86-4.04 2.95-.89.72-.92.73-2.01.52-2.34-.46-4.73-.89-4.77-.85-.02.02.03.3.11.63.23.89.3 1.92.17 2.52-.14.67-.33.57 1.76 1.01.98.21 2.16.47 2.63.58s.95.21 1.07.21c.15.01.84-.56 2.2-1.8Zm-13.63.72c-3.18-.57-3.23-.63-3.2-3.36.02-2.73.56-3.27 2.91-2.91 2.97.45 3.99 1.39 4.01 3.71.01.66.05 1.35.08 1.52.1.43-.09.97-.41 1.23-.36.28-.89.25-3.39-.19Zm-17.97.07c-.13-.38.31-1.08.68-1.08.29 0 .38.25.24.67-.15.46-.8.75-.92.41Zm5.69-.2c-.19-.27-.2-.5-.04-.66.32-.32.72.03.66.56-.04.36-.4.42-.62.1ZM36 32.63c.17-.22.2-.36.16-.68-.04-.22-.07-.94-.07-1.59-.01-2.16-.74-2.96-3.16-3.45-2.22-.46-3.28.01-3.23 1.42.01.23.01.98.01 1.67-.01 1.99.02 2.02 3.04 2.56 2.37.42 2.96.43 3.25.07Zm-2.8-.28c-2.32-.4-2.65-.49-2.96-.8-.23-.23-.33-.78-.16-.89.11-.07 5.54.94 5.69 1.06.21.17.15.55-.13.77-.32.25-.08.27-2.44-.14Zm2.38-.22c.04-.27.18-.23-2.82-.78-2.68-.48-2.67-.48-2.42-.1.23.35.31.37 2.61.78 2.29.41 2.59.42 2.63.1Zm-18.63-.28c-.42-.41-.23-1 .24-.76.43.24.59.62.35.85-.21.22-.31.2-.59-.09Zm2.02-.88c-.08-.21.06-.36.42-.47.56-.16.81.09.43.43-.22.2-.78.22-.85.04Zm13.58-.46c-2.58-.51-2.82-.61-2.54-1.13.13-.24.4-.23 2.06.07 3.62.67 3.87.75 3.81 1.23-.05.4-.53.38-3.33-.17Zm-16.7-.27.7-.23-1.07-.01H14.4v.33c0 .45.07.49.44.3.17-.09.63-.27 1.01-.39Zm19.75.37c0-.15-.17-.22-1.03-.4-1.69-.36-4.21-.79-4.29-.74-.08.04-.11.33-.04.33.08 0 3.39.62 4.21.79 1.17.24 1.15.24 1.15.02Zm-8.14-.63c-.14-.93-.15-1.3-.06-2.02.05-.44.09-.8.07-.82-.02-.03-3.91-.72-3.93-.7-.01 0-.03.71-.05 1.56l-.04 1.55 1.85.36c2.35.47 2.22.47 2.16.07Zm7.44-.5c-.25-.06-1.44-.29-2.65-.52-2.48-.47-2.46-.46-2.05-1.25.29-.59.61-.76 1.34-.74.94.03 2.52.39 3.02.68.72.42 1.4 1.49 1.14 1.8-.14.17-.17.17-.8.03ZM44 26.2c0-3.17-.01-3.4-.17-3.4-.26 0-4.33-.46-6.63-.75-1.07-.14-3.79-.45-6.05-.7-4.27-.47-7.16-.82-7.5-.91-.2-.05-.2-.01-.17 2.78.02 1.55.05 2.84.07 2.87.05.05 2.9.57 3.6.66l.5.07.22-.45c1.67-3.44 7.52-2.71 9.73 1.22.58 1.03.38.94 3.2 1.46 1.4.26 2.57.49 2.59.51s.17.04.33.04H44zm1.05 2.72.6-.48.03-2.76c.02-2.41 0-2.89-.18-3.78-.19-1.01-.19-1.03 0-1.39.1-.21.4-.94.65-1.63.72-1.96.76-1.98 1.11-.46.24 1.01.26 1.04.99 1.91l.74.87-.06 2.35c-.06 2.41-.04 2.55.31 2.19.14-.13.16-.5.16-2.47l.01-2.32-1.28-2.62c-.71-1.44-1.3-2.62-1.33-2.63-.03 0-.15.28-.27.62-.12.35-.69 1.89-1.25 3.44l-1.03 2.81.03 3.41c.01 1.88.06 3.42.1 3.42.05 0 .35-.22.67-.48Zm-9.55.26c-.01-.36-.37-.56-1.45-.82-.97-.22-3.25-.66-3.46-.66-.11 0-.42.6-.32.61.05 0 1.18.22 2.53.49 2.88.56 2.7.53 2.7.38Zm-.85-1.14c-.69-.56-3.95-1.11-3.95-.66 0 .04.48.16 1.08.25.59.1 1.52.28 2.07.41s1.02.24 1.05.24c.03.01-.09-.1-.25-.24Zm12.65-.85c1.18-.87 1.43-1.11 1.38-1.33-.02-.11-.35.04-1.33.63l-1.3.78-.03.43c-.04.49-.14.53 1.28-.51Zm.08-1.12c1.17-.72 1.26-.81 1.2-1.16-.06-.4-2.58 1.22-2.58 1.66 0 .25.04.32.12.27.07-.04.64-.39 1.26-.77Zm.29-1.26.93-.56V21.4l-.33.17c-.18.1-.76.45-1.3.78l-.97.6v2.87l.38-.22c.2-.12.79-.48 1.29-.79Zm-2.82-4.73c.49-1.34 1.08-2.92 1.31-3.53.23-.6.4-1.12.39-1.13-.02-.02-2.64-.14-5.82-.27s-6.85-.29-8.15-.36l-2.37-.12-.98.78C25.44 18.49 23.65 20 23.85 20c.03 0 1.53.2 3.33.45 4.69.65 15.63 2.01 16.48 2.04l.3.01zm2.23 1.8c.55-.35 1.08-.68 1.18-.74.22-.13.15-.24-.64-1.09l-.52-.56-.69.61c-.84.75-.82.68-.63 1.63.18.92.08.91 1.3.15Zm-.1-2.68c.14 0 .14.01-.01-.75l-.13-.6-.31.85c-.17.47-.35.94-.39 1.05-.05.14.05.08.32-.17.22-.21.45-.38.52-.38Zm-37.4-.74c-.54-.41-.58-.5-.58-1.25s.03-.74-.95-.34l-.84.34-.6-.2c-1.15-.38-1.04-.12-1.27-2.96-.19-2.38-.15-2.23-.5-2-.21.13-.38.16-.79.1-.81-.1-.89-.19-.97-1.22-.2-2.71-.07-3.43.64-3.43.11 0 .32-.08.46-.19.62-.42 1.87-.65 2.32-.41.15.08.19.05.24-.15.13-.52 1.37-.84 1.75-.46l.22.22.1-.31c.12-.32.61-.53 1.6-.66.37-.05.52-.12.65-.33.83-1.31 3.01-2.04 4.37-1.46.14.06.17.02.17-.18 0-.36.14-.41 1.07-.38.81.02.83.02.83-.21 0-.34-.11-.44-.52-.52-.24-.04-.39-.13-.43-.27-.1-.3.11-.49.47-.42.23.04.34.02.43-.11.37-.5.93.08.97.99l.03.7.61.06c.9.08 1.01.25.7 1-.17.41-.61 2.97-.52 3.06.03.03.65-.04 1.38-.17 3.31-.58 4.56.28 3.65 2.5-.22.54-.22.56-.05 1 .4 1.05-.35 1.98-1.17 1.44-.24-.16-.26-.15-.54.15-.2.21-.38.31-.59.31h-.3l-.07 1.31c-.06 1.02-.11 1.35-.24 1.48-.09.09-1.82.64-3.91 1.24-2.06.59-4.53 1.29-5.49 1.57-2.06.59-1.78.58-2.33.16Zm2.72-.6c1.02-.29 3.31-.95 5.1-1.46 4.24-1.19 3.76-.95 3.84-1.93.07-1.01.08-1.67.01-1.67-.03 0-.43.09-.89.21-.76.19-.86.19-1.12.06-.27-.14-.3-.14-.61.13-.81.71-2.05.65-2.54-.13-.2-.31-.21-.31-.15-.05.17.78-.8 1.66-1.24 1.13-.11-.13-.17-.11-.44.2-.37.43-.93.57-1.19.31-.14-.15-.17-.14-.36.13-.46.64-1.63.98-2.26.65-.56-.29-.72.21-.57 1.76.11 1.19.16 1.33.4 1.26.1-.03 1-.3 2.02-.6Zm-2.74-.7c-.07-.69-.12-.93-.22-.89-.15.05-.08 1.5.09 1.71.2.25.22.1.13-.82Zm2.27.37c-.09-.03-.13-.31-.13-.89v-.85l.33-.14c.19-.08.45-.15.58-.17s.35-.1.48-.17c.2-.11.27-.1.52.08l.29.22.21-.36c.2-.33.3-.4.53-.36.05.01.26-.05.48-.14.45-.18.94-.2 1.04-.04.04.08.13.04.25-.12.09-.13.29-.24.43-.24a.9.9 0 0 0 .42-.16c.1-.08.42-.15.77-.16.41-.01.63-.06.68-.16.05-.08.29-.2.54-.27.57-.16.75-.05.56.36-.09.2-.09.29 0 .41.1.11.09.17-.04.3-.15.15-.15.17.01.29.13.1.15.17.06.31-.14.22-1.06.43-1.12.25-.02-.08-.13-.04-.32.1-.17.12-.35.18-.46.14s-.22.01-.32.15c-.09.14-.21.19-.34.15a.47.47 0 0 0-.36.1c-.22.22-.44.13-.57-.25-.09-.28-.13-.31-.23-.18-.07.08-.24.18-.37.21-.2.05-.25.13-.25.36 0 .33-.07.39-.52.45-.18.02-.42.05-.53.07-.15.02-.21-.03-.23-.25-.03-.21-.08-.27-.19-.23-.08.03-.23.06-.34.06-.15 0-.19.07-.19.34 0 .37-.08.46-.43.51-.12.02-.42.1-.67.18s-.51.12-.57.1Zm-3.87-.98c1.03-.39 1.43-.66 1.71-1.13.5-.84.39-2.19-.18-2.37-.16-.05-.19-.12-.14-.28.49-1.56.22-2.14-.93-2.05-1.29.1-1.97.7-1.83 1.63.05.33.17 1.47.27 2.53.19 2.17.11 2.04 1.1 1.67Zm-1.6-.62c-.18-1.88-.27-3.39-.24-3.98.03-.7-.04-.78-.47-.52l-.21.12.21 2.38c.18 2.11.22 2.4.39 2.53.35.25.39.17.32-.53Zm1.6-.5c-.17-.17-.06-1.32.13-1.43.52-.27.91-.03.91.58 0 .38-.83 1.06-1.04.85Zm3.84-.35c.89-.45 1.07-1.11.93-3.43-.09-1.41-.19-1.6-.64-1.19-.19.17-.2.27-.13 1.75l.07 1.57-.26.26c-.5.5-.54.4-.61-1.21-.08-1.78-.11-1.93-.35-1.93-.49 0-.55.27-.47 2.17.07 1.94.17 2.23.79 2.23.13 0 .43-.1.67-.22Zm32.3-.15c0-.03-.17-.5-.37-1.04l-.38-.99-.45.01c-.69.01-2.19.15-2.25.21-.03.03.04.44.16.91l.21.86 1.32.04c.72.01 1.41.04 1.54.05.12.01.22-.01.22-.05Zm-3.44-.31c-.03-.09-.13-.47-.22-.85l-.16-.67-.77.06c-.42.03-1.21.09-1.76.12l-.99.07-.33.59c-.44.78-.48.75.8.79 3.28.09 3.49.08 3.43-.11Zm-5.19-.66.33-.59-.97.07c-1.88.13-1.89.13-2.17.6l-.24.41.76.06c.43.03 1.04.05 1.37.05l.59-.01zm.7-.13.41-.78.99-.07c.54-.04 2.01-.15 3.26-.24l2.28-.18-.06-.25c-.04-.14-.09-.29-.13-.33-.08-.08-9.26.57-9.42.67-.05.03-.17.19-.25.35l-.15.29.33-.05c.67-.08 2.8-.24 2.84-.21.02.02-.15.35-.37.73-.44.75-.47.84-.27.84.08 0 .32-.35.54-.77Zm-22.23.38c.14-.15.17-.34.14-.87-.04-.83.1-.92.42-.24.13.27.32.59.43.71l.19.2.24-.22c.31-.29.31-.74-.01-1.21-.31-.45-.31-.4.01-1.05.31-.63.3-1.39-.02-1.74-.33-.36-1.77 0-2.04.51-.24.46-.02 4.1.25 4.1.12 0 .3-.09.39-.19Zm4.11-1.05c.67-.31.83-.57.95-1.62.14-1.23-.18-1.52-1.11-1.03-.39.2-.34.99.07.99.29 0 .34.42.07.72-.51.57-1.23-.01-1.23-1 0-1.07.63-1.73 1.45-1.51.49.14.63.07.71-.37.09-.47-.11-.64-.73-.64-1.47 0-2.5 1.66-2.13 3.43.24 1.17.9 1.52 1.95 1.03Zm-10.31-.52c-.08-.66-.02-.82.32-.9.82-.21.86 1.06.05 1.34l-.3.11zm2.4-1.75c.16-.35.79-.49 1.11-.25.17.12.21.1.4-.18.28-.42.7-.62 1.02-.47.2.09.29.07.53-.11.16-.12.6-.32.97-.44l.68-.23h-.58c-.57-.01-.94.1-3.2.95-.37.14-.85.28-1.07.31-.46.06-.45.06-.24.38.12.19.15.45.14 1.07-.04 1.17.02 1.21.1.08.03-.52.09-1.02.14-1.11Zm10.41 1.73.6-.17.03-.44.03-.43-.55.06-.56.07v-.33c0-.42.08-.53.45-.62.42-.11.55-.24.55-.58 0-.3 0-.3-.45-.24-.42.07-.45.06-.45-.16 0-.52.1-.65.53-.72.52-.09.67-.21.67-.58s-.2-.44-.84-.28c-.99.24-.94.1-1.22 3.41-.1 1.27-.01 1.35 1.21 1.01Zm1.69-.44c.09-.12.16-.36.16-.53.01-1.19.19-1.28.67-.3.41.82.51.88.82.49.26-.33.26-.39 0-1.03l-.22-.52.27-.52c.39-.78.3-1.94-.16-2.09-.54-.18-1.79.26-1.89.67-.09.36-.28 3.87-.22 3.98.09.15.42.06.57-.15Zm15.96-.23c4.57-.3 4.68-.31 4.47-.59-.14-.19-.22-.19-2.58-.08-5.51.28-5.81.31-6.06.6-.27.32-.29.45-.05.38.09-.03 1.99-.17 4.22-.31Zm-24.3-.69c0-.69.05-.76.61-.76.58 0 .58.78-.01 1.18-.53.35-.6.31-.6-.42Zm-9.91.27c.2-.18.2-.2.06-1.18-.07-.55-.17-1.35-.2-1.77-.07-.8-.19-.95-.45-.63-.1.12-.11.5-.06 1.63.1 2.19.16 2.36.65 1.95Zm1.21-.43c.72-.37 1.26-.98 1.39-1.58.26-1.22-.05-2.42-.62-2.42-.14 0-.17.04-.12.18.44 1.1.16 2.88-.47 3-.2.04-.24-.14-.39-1.68-.12-1.31-.11-1.27-.44-1.12-.38.17-.4.32-.26 1.86.19 2.18.17 2.14.91 1.76Zm2.83-1.13c.53-.11.57-.14.57-.39 0-.27-.01-.28-.4-.22l-.4.07V7.96c0-1.59-.04-1.68-.58-1.3-.21.15-.22.21-.22 1.86v1.7l.23-.06c.12-.04.48-.12.8-.19Zm1.78-.13c.94-.21 1.2-.89.29-.77l-.4.06v-.4c0-.39.01-.4.48-.5l.47-.11-.48.05c-.7.08-.65-.26.06-.41.55-.12.53-.26-.05-.26-.62 0-.58-.65.05-.77.63-.13.72-.83.1-.83-.61 0-1.13.19-1.22.43-.11.28-.25 3.42-.16 3.56.08.14.03.14.86-.05Zm1.48-.15c.39-.14.38-.38-.02-.57-.34-.16-.33-.17-.4.31-.06.41-.04.42.42.26Zm11.25-.45c.08-.71.1-.74.51-.74.55 0 .64.62.14 1.04-.54.45-.73.36-.65-.3ZM8.29 7.28c.01-.39-.03-.68-.09-.68s-.09.45-.09 1.18c.02 1.28.16.87.18-.5Zm3.54 1.36c.03-.04-.09-.25-.28-.47s-.35-.44-.35-.49c0-.04-.05-.08-.11-.08-.05 0-.08.04-.05.08.11.17-.11.67-.35.8s-.24.13.06.08c.17-.04.44-.02.6.03.39.12.41.12.48.05Zm2.82-.1c1.86-.14 1.94-.64.1-.64-1.12 0-1.13 0-1.53.32-.54.43-.52.5.11.44.28-.03.88-.08 1.32-.12Zm-1.37-.8c.4-.36.71-.69.68-.71-.14-.14-1.76 1.21-1.76 1.46 0 .19.3-.02 1.08-.75Zm6.83.26c.55-.15.64-.21.49-.3-.13-.08-1.5.19-2.45.49l-.6.19.5-.05c.32-.03.63 0 .85.09.33.14.36.14.56-.08.12-.12.41-.28.65-.34Zm1.74-.2c.03-.05.27-.17.53-.25l.47-.15-.83.05c-.99.05-1.17.14-.71.3.45.16.47.17.54.05Zm-2.84-1.15c.2-1.19.31-1.04-.8-1.12l-.93-.06.08.49c.03.27.11.51.15.52.16.06.1.43-.11.69-.3.38-.25.42.34.36.36-.04.56-.02.61.06.25.41.5.06.66-.94Zm-4.15.69-.49-.26-.26.26-.26.26h.75l.75-.01zm-2.13-.49c1.06-.14 1.3-.3.32-.21-1.1.11-1.95.27-1.95.38 0 .06.14.07.38.03.2-.04.76-.13 1.25-.2Zm.24-.55c1.05-.12 3.27-.15 3.77-.05l.39.08-.07-.39c-.31-1.63-2.35-2.53-4.19-1.84-1.24.46-2.32 1.99-1.39 1.96.29-.01.37.03.36.17-.02.2.03.2 1.13.07Zm6.31-1.24c.06-.3-.16-.36-1.36-.36H16.8l.16.25c.25.38 2.25.48 2.32.11Zm.22-.74c0-.05-.64-.14-1.43-.21-.78-.07-1.58-.15-1.77-.17l-.35-.05.3.25c.3.26 3.25.42 3.25.18Z"/></svg>