<svg xmlns="http://www.w3.org/2000/svg" width="51" height="51" viewBox="0 0 51 51"><path fill="#fff" fill-rule="evenodd" stroke="#fff" stroke-width=".491" d="M25.95 43.58c-.03-.07-.04-5.62-.03-12.33l.03-12.2 6.21-.03 6.21-.02.06 1.12c.04.62.04 6.18 0 12.36l-.06 11.22h-6.19c-4.86 0-6.2-.03-6.23-.12ZM38.2 31.35V19.2H26.1v24.3h12.1zm-20.08 8.68c-.04-.1-.06-4.07-.03-8.83l.06-8.65 3.12-.03 3.12-.02.07.37c.08.44-.03 17.1-.11 17.24-.12.19-6.13.11-6.23-.08Zm6.08-8.73v-8.6h-5.9v17.2h5.9zm-11.27 3.63c-.1-.03-.13-.85-.13-3.59V27.8l.23-.05c.12-.03.96-.04 1.87-.03l1.65.03v7.2l-1.75.02c-.96.01-1.81-.01-1.87-.04Zm3.47-3.58V28H13l.02 3.35.03 3.35h3.35zm-4.55-17.27c-.03-.07-.04-1.89-.03-4.03l.03-3.9h8v8l-3.98.03c-3.13.02-3.99 0-4.02-.1Zm9.7-.01c-.03-.06-.04-1.88-.03-4.02l.03-3.9 4.01-.03c4.01-.02 4.02-.02 4.07.19.03.11.03 1.94 0 4.05l-.06 3.84h-3.99c-3.1 0-4-.03-4.03-.13Zm9.8 0c-.03-.06-.04-1.88-.03-4.02l.03-3.9 3.94-.03c3.09-.02 3.96.01 4.03.1.09.15.11 7.58.02 7.82-.08.21-7.91.25-7.99.03ZM19.7 10.15V6.3H12V14h7.7zm9.7 0V6.3h-7.7V14h7.7zm9.7 0V6.3h-7.6V14h7.6zm-24.9 2.09c0-.05-.02-.99-.04-2.09-.03-1.11-.01-2.07.04-2.15.15-.24 2.03-.2 2.53.04.62.31.81 1.08.4 1.64l-.2.27.23.18c.61.46.47 1.49-.26 1.92-.37.21-2.7.37-2.7.19Zm9.7-2.12v-2.2l.6-.07c1.9-.22 3.04.55 2.43 1.66l-.21.39.29.29c.52.52.34 1.52-.34 1.88-.24.13-.63.18-1.55.21l-1.22.04zm10.59 1.95c-1.47-.78-1.44-3.21.04-3.99.54-.29 1.88-.33 2.28-.07.21.14.42.99.25.99-.02 0-.2-.07-.39-.15-1.2-.5-2.31.08-2.31 1.21 0 1.12 1.26 1.85 2.24 1.29.42-.24.51-.19.48.27-.03.37-.07.43-.38.54-.61.22-1.7.17-2.21-.09Zm-18.05-.7c.11-.08.18-.26.18-.42 0-.4-.26-.55-.94-.55h-.58v1.1h.58c.33 0 .66-.06.76-.13Zm9.78-.04c.49-.45.09-.93-.79-.93h-.63v1.1h.62c.43 0 .67-.05.8-.17ZM16.25 9.5c.48-.39.05-.9-.76-.9h-.39v1.13l.5-.05c.27-.03.56-.11.65-.18Zm9.62.05c.57-.4.27-.95-.53-.95h-.54v1.1h.43c.23 0 .52-.07.64-.15Z"/></svg>