<svg xmlns="http://www.w3.org/2000/svg" width="51" height="51" viewBox="0 0 51 51"><path fill="#fff" fill-rule="evenodd" stroke="#fff" stroke-width=".463" d="M24.5 42.76c-11.53-5.17-16.41-18.69-10.78-29.9 1.14-2.28 1.17-2.31 2.75-3 5.87-2.59 12.38-2.58 18.3.01 1.38.61 1.6.84 2.54 2.68 3.25 6.36 3.34 13.43.24 19.8-2.26 4.66-5.86 8.11-10.85 10.39-1.19.55-1.03.55-2.2.02Zm2.95-.62c10.79-5.46 15.19-18.16 9.98-28.86-1.26-2.6-1.29-2.63-3.92-3.68-5.32-2.12-12.32-1.84-17.41.68-1.11.55-1.16.61-2.2 2.69-5.56 11.17-.65 24.64 10.8 29.63 1 .44.94.45 2.75-.46Zm-5.4-2.56c-.03-.08-.04-.79-.03-1.58l.03-1.45h1.7l.03.38.03.37h-.45c-.39 0-.46.03-.46.2s.07.2.45.2c.44 0 .45 0 .45.34 0 .38-.12.46-.65.46h-.34l-.03.58c-.03.56-.03.57-.36.6-.2.02-.34-.02-.37-.1Zm1.99-.01c-.02-.07-.03-.78-.02-1.57l.03-1.45.42-.03c.48-.04.53.03.73.88.18.79.21.8.4.07.26-.98.25-.97.67-.97.64 0 .64.01.61 1.66l-.03 1.49h-.35c-.3 0-.35-.04-.44-.33l-.09-.34-.11.34c-.18.53-.76.49-.92-.07l-.12-.4-.01.36c-.01.38-.13.49-.52.49-.11 0-.22-.06-.25-.13Zm3.01.03c-.03-.05.1-.41.3-.8l.35-.7-.36-.71c-.39-.79-.36-.92.21-.87.23.02.33.11.44.36.08.17.17.32.21.32s.13-.15.21-.32c.12-.28.2-.34.52-.36.51-.04.55.13.18.87-.38.75-.38.79 0 1.46.37.66.33.85-.16.85-.31 0-.38-.05-.52-.35-.09-.19-.2-.35-.23-.35s-.14.16-.23.35c-.17.35-.76.52-.92.25Zm1.75-.82-.33-.63.32-.62c.37-.74.37-.73.1-.73-.14 0-.26.13-.4.45-.11.25-.23.45-.27.45-.05 0-.18-.2-.3-.45-.15-.31-.28-.45-.42-.45-.19 0-.19.03.1.6.37.73.37.74-.01 1.43-.29.55-.3.57-.1.57.15 0 .28-.13.43-.45.27-.55.3-.55.53-.04.16.35.51.65.64.53.02-.02-.11-.32-.29-.66Zm-6.2.02v-.6h.5c.38 0 .5-.04.5-.15s-.12-.15-.5-.15h-.5v-.8h.5c.38 0 .5-.04.5-.15 0-.12-.14-.15-.65-.15h-.65v1.3c0 1.09.02 1.3.15 1.3.12 0 .15-.13.15-.6Zm2-.31c0-.89.12-1.11.25-.46.2.96.37 1.37.56 1.37.11 0 .22-.06.24-.12.02-.07.14-.46.25-.85.2-.67.51-1.08.36-.47-.13.49.04 1.44.25 1.44.18 0 .19-.1.19-1.3v-1.3h-.68l-.29 1.04c-.33 1.22-.34 1.22-.66-.04-.24-.93-.26-.95-.56-.98l-.31-.03v1.3c0 1.24.01 1.31.2 1.31s.2-.07.2-.91Zm-6.26-2.81c-.55-.58-1.24-1.5-1.83-2.46-3.82-6.15-4.03-13.77-.55-20.2.51-.93.7-1.06 2.57-1.76 5-1.87 10.99-1.63 15.57.62l.75.37.67 1.34c3.67 7.35 2.69 15.85-2.55 21.93-.58.69-.52.68-1.13.2-3.54-2.77-8.56-2.85-12.28-.18-.92.67-.74.65-1.22.14Zm1.4-.52c3.73-2.5 8.56-2.4 12.07.24.68.51.57.54 1.35-.45 4.88-6.13 5.71-14.17 2.19-21.2l-.7-1.4-1-.42c-5.16-2.19-10.66-2.29-15.53-.27-1.55.64-1.52.62-2.09 1.71-3.39 6.53-3.05 14.14.91 20.12.58.86 1.7 2.31 1.8 2.31.02 0 .47-.29 1-.64Zm4.7-3.96c-6.37-.89-8.7-8.96-3.77-13.05 4.55-3.77 11.32-1.06 12.13 4.85.64 4.65-3.65 8.86-8.36 8.2Zm2.72-.4c5.42-1.37 7.3-8.07 3.36-11.99-4.6-4.57-12.24-1.43-12.26 5.04a7.113 7.113 0 0 0 8.9 6.95Zm-3.01-.95c-4.74-.98-6.45-6.85-3-10.31 3.87-3.89 10.44-1.1 10.39 4.41-.03 3.86-3.58 6.69-7.39 5.9Zm2.08-.15c4.84-.7 6.81-6.55 3.36-10-3.68-3.68-10.01-1.1-10.02 4.1-.01 3.03 2.08 5.46 5.07 5.9.73.11.83.11 1.59 0Zm-1.82-.61c-2.17-.28-3.97-2.21-4.27-4.56l-.07-.53.77-.35c1.12-.51 1.11-.51 1.12.48a5.02 5.02 0 0 0 2.92 4.55c1.01.46.86.58-.47.41Zm-.27-.53c-1.4-.95-2.27-2.46-2.41-4.18-.07-.89-.03-.86-.78-.52l-.58.27.06.56c.16 1.77 1.56 3.46 3.3 4 .9.28.98.25.41-.13Zm1.91.07c-1.73-.9-2.96-3.44-2.59-5.33l.07-.32.55.05c.31.03.85.2 1.27.41l.74.34.06.49c.18 1.43.61 2.4 1.48 3.3.69.73.68.8-.19 1.13-.69.25-.78.25-1.39-.07Zm1.32-.17.51-.24-.45-.48c-.8-.86-1.33-2.02-1.48-3.27l-.07-.55-.57-.25c-.67-.31-1.49-.52-1.59-.42-.04.04-.06.46-.06.93.02 1.78 1.04 3.49 2.54 4.27.56.3.54.3 1.17.01Zm.89-1.06c-.57-.61-.57-.57.05-1.05.97-.77 1.66-1.88 1.91-3.07.14-.67.32-.75.47-.2.36 1.28-.16 3.12-1.21 4.27-.61.67-.64.67-1.22.05Zm1.09-.21c.78-.87 1.49-3.09 1.17-3.65-.11-.18-.11-.18-.12.02 0 .54-.81 1.88-1.56 2.6l-.74.71.36.37c.44.45.44.45.89-.05Zm-2.23-1.76c-.05-.1-.15-.48-.21-.84l-.13-.66.54-.56c.63-.64 1.11-1.53 1.34-2.47.21-.83.16-.82.74-.25.57.56.62.81.34 1.76-.44 1.49-2.3 3.64-2.62 3.02Zm.75-.55c.94-.82 1.54-1.84 1.75-2.96l.12-.62-.34-.35c-.4-.41-.38-.43-.66.45-.27.85-.59 1.41-1.2 2.09-.45.5-.47.53-.41 1.02.1.81.18.85.74.37Zm-7.53-2.24c.12-.89.38-1.3 1.05-1.64 1.74-.87 3.84-.78 5.35.25.9.61.91.65.24 1.32l-.57.57-.48-.26c-1.6-.86-3.43-.85-5.14.03-.52.26-.53.25-.45-.27Zm6.86-.71c0-.19-.95-.79-1.65-1.04-.8-.3-2.35-.32-3.15-.05-1.32.44-1.55.67-1.85 1.74l-.07.23.42-.21c1.51-.77 3.63-.77 4.96 0l.49.28.43-.41c.23-.23.42-.47.42-.54Zm.05-1.49c-1.39-.97-3.57-1.09-5.15-.29-.37.19-.5.22-.5.11 0-.2.95-.9 1.75-1.28 1.31-.62 3.83-.43 4.7.35.23.21.24.24.12.82-.15.72-.25.76-.92.29Zm.65-.06c0-.07.03-.3.06-.5.07-.38.06-.38-.42-.6-1.5-.66-3.1-.64-4.42.07-.45.24-.45.25-.12.18 1.34-.3 3.21-.02 4.23.63.57.37.67.4.67.22Z"/></svg>