<svg xmlns="http://www.w3.org/2000/svg" width="51" height="51" viewBox="0 0 51 51"><path fill="#fff" fill-rule="evenodd" stroke="#fff" stroke-width=".531" d="M15.19 49.22c-.39-.2-.6-.4-.77-.69l-.23-.42-.04-16.58c-.02-9.12-.05-19.41-.06-22.88-.03-6.92-.04-6.83.59-7.38.5-.45.41-.45 10.86-.4 10.85.05 10.43.02 11.02.64l.29.3v23.24l-.01 23.23-.26.39c-.55.83.23.78-10.94.81l-9.91.02zm20.51-.23c.78-.36.75-.15.78-4.45l.03-3.84H14.53l-.06 3.52c-.07 4.28-.03 4.46 1.15 4.83.7.23 19.59.16 20.08-.06Zm1.33-22.66c.01-13.14.06-21.42.11-21.25.13.38.1 42.08-.03 42.47-.06.19-.09-7.25-.08-21.22ZM21.04 47.06c-.03-.08-.04-.27-.02-.43l.03-.28 4.37-.03c4.86-.02 4.71-.05 4.54.64l-.06.24h-4.41c-3.7 0-4.4-.02-4.45-.14Zm8.56-.31c0-.13-.53-.15-4.15-.15s-4.15.02-4.15.15.53.15 4.15.15 4.15-.02 4.15-.15Zm-14-2.45c-.14-.04 4.45-.08 10.2-.08 5.75.01 10.18.04 9.85.08-.81.1-19.73.1-20.05 0Zm-.8-8.89c0-3.45-.04-4.98-.11-5.08-.09-.09-.08-.13 0-.13.09 0 .12-2.83.11-11.82-.01-6.51-.01-11.88-.01-11.94.01-.08 3.03-.11 10.76-.11l10.75-.01-.06 5.22c-.03 2.86-.02 6.04.02 7.06.05 1.02.08 4.12.06 6.89l-.03 5.04-3.57-.06-3.57-.06v.87c0 .48-.04 1.06-.09 1.29l-.08.42.36-.1c.39-.11.66 0 .66.26 0 .15.73.4.94.32.13-.05.16-.23.16-.85 0-.99.03-1.02 1.07-1.02 1 0 1.03.03 1.03 1.23v.85h.79c1.29 0 2.11.59 2.33 1.66.16.76.01 1.08-.57 1.17l-.4.06.49.02c.61.01.56.08-.15.2-.44.07-.48.09-.19.1.63.02.71.21.09.21-.3 0-.59-.04-.65-.09-.12-.11-1.53-.21-1.59-.11s.67.23 1.15.22c.19-.01.58.05.85.13l.5.15-.5-.04-.5-.04.45.23c.87.44 1.38 1.25.8 1.25-.11 0-.33.13-.48.3-.84.92-7.12.86-7.12-.06 0-.18.04-.17.41.02 1.15.59 5.21.64 6.32.08.37-.2.35-.38-.04-.3-1.49.3-4.12.32-5.96.05-.94-.14-1.19-.09-1.04.2.42.78 4.08 1.05 7.61.56.32-.04.33-.04.1.06-1.37.57-5.78.53-7.34-.07-.16-.06-.17-.04-.07.14.06.11.11.3.11.41 0 .21.03.21 3.8.21h3.8l.02-.37c.01-.37.01-.37.05-.05.02.17.08.32.14.32.05 0 .09-1.44.1-3.62 0-2 .03-10.57.05-19.06.04-17.11.1-15.82-.63-16.18-.42-.21-19.64-.4-20.43-.21-.43.11-.86.5-1 .92-.07.21-.09 4.23-.06 12.46.02 6.67.05 15.21.05 18.97.01 6.1.03 6.83.16 6.8.14-.03.16-.6.15-4.97Zm5.09 4.9c.09-.06.1-.11.02-.15-.07-.05.13-.34.54-.79.65-.71.78-.97.5-.97-.08 0-.3-.25-.5-.56-.45-.69-.79-.73-1-.11-.07.21-.21.47-.31.58-.22.25-.08.24.34-.01.57-.35.92-.18.92.42 0 .65-2.03 1.28-4.1 1.28-1.06 0-1.42.1-1.09.31.18.11 4.5.11 4.68 0Zm4.93-.21c.04-.26.01-.3-.18-.3-.23 0-.48-.22-.37-.34.04-.03-.02-.12-.12-.2-.12-.09-.16-.21-.13-.39.08-.42-.45-.39-.62.03-.07.17-.25.37-.39.45-.14.07-.37.32-.51.54-.25.42-.56.54-.66.26-.04-.08.02-.27.11-.42.15-.22.3-1.23.19-1.23-.02 0-.33.36-.7.81-.37.44-.81.86-.98.94-.27.12-.04.13 2 .14l2.32.01zm3.24.13c-.23-.59-1.12-1.73-1.36-1.73-.5 0-.57.16-.22.48.44.41.42.6-.09.68l-.42.07.29.15c.16.08.37.23.47.33.25.27 1.43.28 1.33.02Zm-10.28-.73c.98-.13 1.42-.26 1.82-.52.54-.37.47-.5-.12-.23-.6.27-1.95.45-3.38.45-.71 0-.9.03-.9.14 0 .25 1.26.33 2.58.16Zm16.68-.9c1.23-.22 1.37-.39.62-.78-1.41-.73-6.88-.63-6.88.13 0 .6 4.1 1.02 6.26.65Zm-4.86-.29c0-.05.06-.12.13-.14.06-.03-.03-.03-.2 0-.41.07-.46-.18-.08-.35.4-.19 2.12-.44 2.58-.39 1.52.17 2.38.39 2.59.64.12.15.08.15-.37.07-.27-.04-.91-.09-1.4-.09s-.96-.04-1.04-.09c-.1-.06-.12-.06-.07.02.16.27-.44.38-.83.16-.24-.13-.44-.18-.57-.13-.1.04-.15.08-.1.08.05.01.03.08-.04.16-.13.16-.6.21-.6.06Zm-12.15-.5c.08-.49-.02-1.25-.23-1.71l-.16-.35-.06 1.12c-.05 1.15-.09 1.29-.33 1.2-.11-.04-.12-.16-.06-.54.15-.91.1-1.95-.07-1.55-.21.49-.29 1.43-.14 1.86.19.57.95.55 1.05-.03Zm9.13.33c.12-.04.22-.14.22-.23 0-.14-.21-.16-1.9-.16-1.05 0-1.9.02-1.9.05 0 .33 2.66.58 3.58.34Zm-7.6-.37c.66-1.09.01-2.53-1.2-2.65-.26-.02-.48-.01-.48.04s.1.1.23.1c1.22.07 1.92 1.91 1 2.64l-.26.2h.26c.18 0 .31-.09.45-.33Zm5.4-.5c-.02-.08.08-.11.33-.09.21.02.4-.01.44-.07.08-.13.45-.15.45-.02 0 .05-.24.14-.52.2-.58.11 1.69.07 2.64-.05.44-.06.59-.24.2-.24-.09 0-.32-.14-.49-.31-.33-.3-.47-.53-.19-.3.08.07.23.11.33.09.12-.02.18.03.17.14-.01.1.04.18.12.18.21 0 .17-.5-.06-.87-.27-.45-.68-.45-1.04-.02-.31.37-.32.41-.05.57.34.21.09.35-.32.18-.54-.22-1.39-.28-1.74-.12l-.3.14.27.01c.47.02.31.21-.17.21-.31 0-.47.05-.51.15-.04.08-.16.15-.28.16-.2 0-.2.01-.01.09.31.13.75.12.73-.03Zm-.98-.07c0-.06.27-.31.59-.56l.59-.46-.38-.34c-.38-.34-.4-.35-.82-.23-.25.07-.37.14-.28.17.15.05.3.21.3.33 0 .04-.12.1-.28.13-.15.04-.36.09-.47.12-.16.04-.15.02.04-.09.15-.09.2-.17.13-.21-.13-.08-.43.06-.62.28a.43.43 0 0 1-.3.16c-.1 0-.23.07-.3.15a.48.48 0 0 1-.31.15c-.22 0-.25.15-.06.27.3.19 2.17.3 2.17.13Zm7.25-.41c-.05-.15.01-.29.21-.5l.28-.29h-1.02c-.61 0-1.02.04-1.02.1s.28.1.65.1c.51 0 .65.03.65.15 0 .11-.12.15-.45.15h-.46l.18.25c.25.34 1.08.38.98.04ZM20.4 36.6c0-.05-.14-.1-.31-.1s-.28-.04-.24-.1c.03-.06.17-.1.31-.1.13 0 .24-.04.24-.1 0-.05-.13-.1-.3-.1-.16 0-.3-.05-.3-.1s.11-.1.25-.1.25-.04.25-.1-.15-.1-.34-.1-.37-.04-.4-.09c-.07-.11.17-.21.5-.21.13 0 .24-.04.24-.1s-.27-.1-.6-.1-.6-.04-.6-.1.27-.1.6-.1c.47 0 .6-.03.6-.15s-.13-.15-.57-.15c-.67 0-.62-.17.07-.22.87-.06.67-.38-.24-.38h-.76v.49c0 .33.05.53.17.62.27.23.73 1.01.73 1.26 0 .2.05.23.35.23.19 0 .35-.04.35-.1Zm14.6-.27c.33-.19.67-.75.72-1.18l.03-.3-1.57-.03-1.58-.03v.26c0 .59.5 1.29 1 1.38.57.1 1.13.06 1.4-.1Zm-13.81-.07c.06-.07.29-.16.51-.2.21-.03.51-.17.66-.3l.28-.23-.33-.18c-.22-.11-.44-.15-.65-.11-.17.04-.4.08-.51.09-.28.03-.35.16-.35.65 0 .44.16.56.39.28Zm5.18-.28c.6-.56.17-.8-1.45-.8-.42 0-.84.23-.71.38.06.08.16.14.22.14.05 0 .15.08.22.17.11.15.44.23 1.34.32.08 0 .25-.09.38-.21Zm2.33-1.48v-1.7h-.5v1.58c0 1.58.05 1.82.37 1.82.1 0 .13-.37.13-1.7Zm-4.85.52c-.02-.03-.35-.04-.71-.04-.5.01-.64-.02-.56-.1.06-.06.27-.11.47-.1.42.02.47-.19.1-.44-.39-.26-1.07-.12-1.66.33-.55.41-.65.62-.19.38.45-.23.82-.19 1.14.14l.27.29.6-.21c.33-.11.57-.22.54-.25Zm3.95-.23c0-.54-.41-.76-.97-.5-.19.09-.28.09-.33.01-.1-.17-.79-.05-.95.16-.07.1-.11.22-.09.26.03.05 0 .08-.06.08-.19 0-.22-.28-.05-.6.27-.52-.13-.89-.94-.9-.79 0-1.3.53-.86.9.08.07.15.2.15.29.01.13.04.13.18-.04.26-.31.64-.55.87-.55.28 0 .49.15.4.29-.05.09-.1.09-.2.01-.15-.13-.61.06-.84.34-.2.23.04.49.37.41.56-.14 1.85-.07 2.1.12.15.11.43.19.73.2l.49.01zm-9.07-2.06c.06-.09.36-.13.92-.13 1.04 0 1.15.08 1.04.77-.1.64-.11 1.33-.01 1.33.24 0 .43-.32.56-.99.18-.85.36-1.18.71-1.27.13-.03.33-.21.44-.39.19-.32.35-.43 1.68-1.1.97-.48 2.43-.35 3.29.3l.31.24.06-.47c.03-.26.04-.48.02-.5-.05-.05-12.47-.02-12.55.03-.11.07-.13 4.05-.02 4.05.04 0 .23-.16.42-.35.38-.39.78-.49.6-.15-.09.18-.08.19.12.11.35-.13.34-.37-.01-.44-.37-.08-.43-.33-.39-1.67l.03-.95.74-.03c.96-.04.96-.03.93 1.21-.04 1.27-.06 1.34-.42 1.42-.55.12-.36.34.33.37.58.03.62.05.66.28.09.65.26.37.36-.58.06-.53.14-1.03.18-1.09Zm13.84 1.23c.17-.16.23-.32.23-.69v-.47l-.7.02-.7.03v.61c0 .33.04.64.1.7.16.16.83.03 1.07-.2Zm-10.49-.14c.06-.09.12-.24.12-.34s.06-.18.13-.18q.135 0 .09.3c-.04.31.11.42.22.14.04-.1.13-.13.25-.09.14.04.21-.02.3-.23.15-.35.65-.92.82-.92.07 0 0 .14-.17.32-.22.24-.24.29-.09.23.11-.05.43-.1.71-.13.48-.03.52-.06.58-.33.06-.3.56-.69.89-.69.15 0 .17-.06.11-.37-.1-.56-.1-.56-.89-.51-.96.06-1.51.36-1.85 1.01-.28.54-.44.61-.38.17.06-.38-.17-.22-.37.27-.1.23-.18.31-.3.27-.31-.12-.75.66-.75 1.32 0 .11.45-.08.58-.24Zm5.3-.83.47-.01-.35-.11c-.35-.11-.35-.11-.07-.15.75-.1-.36-1.61-1.19-1.62-.19 0 .05.79.27.91.24.12.24.31.01.52-.18.16-.19.16-.18-.05.01-.32-.5-.37-.87-.08-.32.26-.35.56-.07.85l.21.22.65-.23c.36-.13.86-.24 1.12-.25Zm-8.14-8.61c-.05-3.15-.09-7.99-.09-10.76 0-4.43-.01-5.02-.15-5-.13.03-.15.74-.15 5.93v5.9l-1.8.05c-1.51.04-1.8.07-1.8.2s.28.15 1.81.18l1.81.02.08 3.68c.04 2.03.04 4.03 0 4.45l-.07.77h-1.84c-1.57 0-1.84.02-1.84.15s.3.15 2.06.15h2.07zm1.26 1.8c0-2.16-.03-6.8-.07-10.3l-.06-6.38h-.87v3.18c0 1.74.03 6.38.07 10.3l.06 7.12h.87zm10.13 1.5c.15-5.4.08-20.01-.09-19.94-.09.03-2.31.06-4.93.06h-4.78l-.07.92c-.04.5-.04 5.52 0 11.15l.07 10.23h9.74zm1.27-1.71c0-2.28-.03-6.84-.07-10.14l-.06-6.01-.31-.06c-.16-.04-.33-.03-.37.01-.04.05-.09 4.64-.12 10.21l-.04 10.12h.97zm4.08 3.96c-.03-.16-.21-.18-1.76-.21l-1.72-.02.02-4.38.03-4.37 1.78-.03 1.77-.02v-.53l-1.79.08-1.79.07-.07-3.34c-.04-1.83-.05-4.51-.03-5.96.03-2.53.02-2.62-.16-2.62-.19 0-.19.14-.13 6.62.04 3.64.07 8.47.07 10.75v4.13h1.91c1.76 0 1.9-.01 1.87-.17Zm-14.91-4.96c-.03-2.66-.03-5.23 0-5.71l.06-.86h9.27l.02 1.88c.02 1.98-.03 9.35-.06 9.39-.01.01-2.09.05-4.62.09l-4.61.06zm5.03 3.7c0-.39.05-.71.14-.83.28-.38-.28-.62-.66-.27-.14.13-.18.31-.18.95v.78h.7zm2.61.51q0-.15.06 0c.09.23.23.12.23-.18 0-.16.05-.3.11-.3.07 0 .08.11.04.3-.06.26-.04.3.14.3.12 0 .21-.06.22-.12q0-.15.06 0c.07.17.43.15.43-.03 0-.09-.09-.15-.25-.15-.23 0-.25-.03-.25-.49 0-.27-.03-.56-.06-.65-.05-.13.01-.16.25-.16.21 0 .31-.05.31-.16s-.08-.14-.27-.12c-.26.03-.3.08-.63.78-.05.09-.21.15-.44.15-.34 0-.36.02-.35.3 0 .16.03.24.06.18.07-.18.43-.16.43.02 0 .08-.07.15-.15.15s-.15.06-.16.12q0 .165-.06 0c-.07-.17-.23-.15-.23.03s.5.21.51.03Zm5.53-.14c.36-.14.19-.47-.22-.41-.39.07-.8-.07-.52-.17.08-.03.31-.07.5-.08.33-.03.35-.05.38-.42l.03-.38-.33.25c-.38.28-.84.42-.93.27-.04-.06.22-.23.59-.4.82-.37.85-.52.09-.48-.51.03-.58.06-.61.25-.02.12-.1.27-.18.33-.2.18-.2 1.02.01.94.08-.04.15-.01.15.05s-.08.12-.18.13c-.09.01.1.04.43.08s.61.07.62.08.08-.01.17-.04Zm1.66-2.14v-2.2h-1.1v1.13c0 .63-.03 1.62-.07 2.2l-.06 1.07h1.23zm-.88.08c.03-1.74.05-1.93.21-1.96.15-.03.17.05.17.71 0 1.67-.13 3.17-.27 3.17-.11 0-.13-.35-.11-1.92ZM22.8 28.6c0-.05-.18-.1-.41-.1-.26 0-.38-.04-.33-.11.05-.09.44-.09.79.01.06.01.58.02 1.18.01l1.07-.01v-.29c0-.44-1.52-.53-1.93-.12-.06.06-.36.11-.66.11-.65 0-1.03.09-.95.21.03.05 0 .09-.05.09-.06 0-.11.07-.11.15 0 .12.14.15.7.15.4 0 .7-.04.7-.1Zm-4.2-.3c0-.19-.07-.2-1.35-.2s-1.35.01-1.35.2.07.2 1.35.2 1.35-.01 1.35-.2Zm3.91-.76c.11-.1.36-.14.78-.13.53.02.64-.01.77-.19.08-.12.22-.22.31-.22.11 0 .09.05-.08.21l-.24.2.32-.05c.18-.03.35-.01.38.04.2.33.81-.11.87-.63l.04-.36-.61-.03-.6-.03-.03-.82-.03-.83h-.35c-.37 0-.52.18-.37.44.12.22.03 1.16-.12 1.16-.12 0-.31-1.33-.2-1.5.03-.04-.22-.1-.55-.12l-.6-.03v.93c0 .55-.04.92-.1.92s-.1-.42-.1-1.05-.04-1.05-.1-1.05-.1.42-.1 1.05-.04 1.05-.1 1.05-.1-.43-.1-1.09v-1.1l.33-.03c.39-.04.55-.48.18-.48-.18 0-.21-.06-.21-.4 0-.36-.02-.4-.25-.4h-.25v3.9h.9v-.95c0-.83.17-1.4.21-.72.01.12.03.29.04.37s.03.41.04.73c.01.67.21.78.21.12 0-.36.04-.45.17-.45s.14.03.05.12c-.29.29-.15.81.21.74.81-.18 1-.19.93-.08-.04.07-.16.12-.26.12s-.21.04-.24.09-.55.12-1.16.16l-1.1.07v.27c0 .3.78.34 1.11.05Zm4.27-.16c.1-.1.17-.1.34.01.23.14.72-.3.63-.57-.03-.08-.05-.92-.05-1.88V23.2h-1.5v.29c0 .16-.04.31-.09.33-.24.09-.19 3.26.06 3.37.13.06.23.15.23.21 0 .14.23.13.38-.02Zm-10.13-.22c.47-.2.44-.36-.07-.36-.23 0-.38-.03-.34-.07s.25-.06.46-.04l.4.03v-1.6l-.45.06c-.3.03-.45.01-.45-.07 0-.06.18-.11.45-.11.41 0 .45-.02.45-.25 0-.18.05-.25.2-.25.13 0 .2-.07.2-.2 0-.17-.07-.2-.45-.2-.33 0-.45-.04-.45-.15q0-.15-.3-.15H16v1.75c0 1.94-.02 1.89.65 1.61Zm13.23-.23c.03-.2-.02-.22-.5-.25-.63-.04-.65-.09-.52-1.48.08-.92.09-.9.2.45.13 1.48.2.44.12-1.7-.05-1.43-.1-1.97-.22-2.2-.09-.16-.16-.4-.16-.52 0-.42-.17-.32-.29.17-.07.28-.17.5-.22.5s-.09.07-.09.16c0 .1.06.14.14.11.23-.09.26.15.26 1.84 0 1.21-.03 1.59-.12 1.59-.1 0-.14-.41-.16-1.63-.04-1.75-.04-1.76-.27-1.57-.1.09-.13.26-.11.64.03.28.08 1.2.12 2.04.03.83.1 1.52.15 1.52s.09-.14.09-.3c0-.35.15-.4.24-.07.1.38.07.45-.24.56-.52.18-.38.4.28.43.9.05 1.26-.03 1.3-.29Zm-12.08-.75c0-.86.07-1.18.26-1.18.08 0 .14-.07.14-.15s.05-.15.1-.15c.06 0 .1.07.1.15s.05.15.1.15c.06 0 .1-.22.1-.5 0-.47-.02-.5-.25-.5-.21 0-.25.05-.25.3 0 .17-.05.3-.11.3-.07 0-.1-.17-.07-.45.02-.31-.01-.45-.09-.45-.09 0-.13.16-.13.49 0 .41-.04.51-.2.56-.18.06-.2.15-.2 1.11v1.04h.25c.24 0 .25-.02.25-.72Zm15.98-.25c.03-.18-.02-.22-.33-.25-.55-.05-.46-.23.13-.26l.52-.03v.4c0 .28.04.41.14.41.14 0 .26-.6.26-1.27v-.35l-.45.04c-.36.02-.42.01-.3-.08.16-.12.21-.29.05-.19-.06.03-.1-.03-.1-.14 0-.12.05-.21.11-.21.05 0 .07.05.04.1-.03.06.01.1.09.1.13 0 .16-.12.16-.54 0-.35.05-.6.15-.7.09-.08.15-.33.15-.58 0-.24.07-.52.15-.62.31-.41-.4-.73-.73-.33-.2.24-.26.67-.08.67.09 0 .16.04.16.1s-.09.1-.19.1c-.2 0-.35.25-.25.42.08.13-.15.28-.44.28-.22 0-.22.01-.22 1.61v1.6l.47-.03c.41-.03.48-.06.51-.25Zm-8.41-.18c-.03-.19-.02-.35.04-.35.05 0 .1.17.1.38.01.33.02.31.11-.18.15-.85.05-1.81-.21-1.99-.12-.07-.21-.2-.21-.27 0-.08-.04-.14-.1-.14-.05 0-.1.07-.1.16s-.08.18-.17.2c-.16.05-.18.18-.15 1.29l.03 1.25h.36c.35 0 .36 0 .3-.35Zm-.97-1.85c0-.34.05-.52.14-.56.28-.11.06-.44-.3-.44-.31 0-.34.02-.28.24.08.31-.11.66-.36.66-.16 0-.2.07-.2.3 0 .29.01.3.5.3h.5zm-7.29-.6c.14 0 .19-.07.19-.29 0-.35.04-.38.58-.47l.42-.07v.46c0 .37.03.45.15.41.12-.05.15-.27.15-1.1V21.2h-1.9v1.03c0 1.03.11 1.78.18 1.3.02-.15.1-.23.23-.23Zm5.79 0c0-.16.07-.2.34-.2.28 0 .35-.04.38-.22.04-.29 1.18-.42 1.18-.14 0 .1.09.14.27.13.21-.02.28.03.33.23.09.37.6.42.6.06 0-.24.04-.26.39-.26h.39l-.05-.4c-.06-.39-.05-.4.26-.4s.31 0 .31-.54c0-.79.66-1.13.81-.41l.06.3.12-.3c.06-.17.14-.36.16-.42.15-.43.65.04.65.62 0 .12.07.25.15.29.1.04.15.2.15.51v.45l.35-.03.35-.02V18.7h-1.31c-1.23 0-1.32.01-1.63.25-.68.52-1.2.67-2.19.64-.51-.02-1.01.01-1.12.06-.19.08-.19.08-.02-.12.35-.4-.42-.83-1.51-.83h-.89l-.06 1.22c-.14 2.57-.12 2.74.43 2.8.33.03.35.06.38.4.04.45.72.61.72.18Zm-6.62-1.68.03-.42H15.2v.91l.53-.03.52-.03zm-.19-3.34c-.01-1.06-.04-1.84-.06-1.73s-.19.98-.37 1.93l-.32 1.72h.76zm2.51-.53V15.3h-2.1v4.9h2.1zm15.63 2.39.77-.07v-4.75l-.31-.07c-.76-.17-1.89.05-1.89.36s.1.35.43.18c.16-.09.22-.09.25 0 .05.14.36.14.65 0 .2-.09.19-.08-.03.11-.19.17-.34.21-.77.18l-.53-.03v4.15h.33c.19 0 .68-.03 1.1-.06Zm1.65-1.16c-.03-.62-.07-1.59-.07-2.16-.01-.56-.05-1.02-.1-1.02s-.16-.03-.25-.06c-.14-.05-.16.17-.16 2.15v2.21h.65zM15.51 17.5c.16-.86.34-1.71.39-1.9.06-.19.17-.98.26-1.75.16-1.5.7-5.44.8-5.85.04-.18.02-.22-.05-.14-.15.14-.53 1.89-.96 4.39-.2 1.15-.45 2.46-.56 2.9-.17.72-.4 4.75-.23 4.1.03-.11.18-.9.35-1.75Zm10.59 1.7c.19-.05.49-.19.65-.3l.3-.2h-3.5l.32.2c.63.38 1.52.5 2.23.3ZM21 13.21c0-2.73.04-4.82.09-4.85.12-.08 9.2-.1 9.28-.03.03.04.06 2.21.07 4.84l.01 4.78-4.72.03L21 18zm1.45 3.52c0-1.11.17-1.57.83-2.26 2.05-2.15 5.71-.1 5.04 2.81l-.1.42h1.98v-1.13c0-1.47 0-1.47-.9-1.02-.39.2-.74.34-.77.32-.04-.05 1.04-.69 1.4-.82.46-.18.2-.58-.34-.52-.62.08-.56-.04.09-.18.35-.08.47-.15.46-.28 0-.09-.01-.51-.02-.92l-.02-.76-.37.06c-.37.05-.27-.04.2-.19.14-.05.17-.18.17-.92v-.87l-.36.06c-.2.03-.55.22-.79.42-.24.19-.46.35-.49.35-.15 0-.03-.21.29-.51.41-.39.37-.49-.21-.49-.36 0-.44-.03-.44-.18 0-.1-.12-.3-.27-.44-1.07-.99-2.82-.61-3.14.68-.09.35-.16.43-.4.48-.15.03-.37.14-.47.24-.11.11-.4.21-.72.25-.48.06-.51.05-.34-.08.1-.08.29-.15.4-.15.12 0 .27-.06.33-.13.06-.08.28-.22.5-.32.29-.13.4-.25.45-.46.24-1.21 2.03-1.77 3.22-1.02.46.29.55.31 1.46.31h.98V8.6l-4.37.02-4.38.03-.03 4.53-.02 4.52h1.15zm5.56.54c.68-2.52-2.38-4.42-4.39-2.72-.73.62-1.15 2.05-.83 2.87l.1.27h5.01zm7.39-3.58c-.12-.68-.25-1.46-.29-1.74-.1-.55.02-.75.3-.49.29.26.4.17.37-.28-.03-.42-.04-.43-.43-.48l-.4-.05-.27-1.1c-.15-.6-.28-1.19-.28-1.3 0-.24-.17-.52-.25-.43-.04.03.07.75.24 1.6.31 1.57.76 4.08.87 4.88.06.42.22.76.31.67.02-.02-.06-.6-.17-1.28Zm-16.9-.46c0-1.64 0-1.66-.19-1.49-.11.1-.21.32-.23.5-.03.3-.05.31-.47.31-.37 0-.47.05-.72.35-.38.45-.37.58.02.52.41-.06.31.14-.11.23-.29.06-.3.08-.3.66v.59h2zm16.47 1.54c.12-.13-.33-2.07-.48-2.07-.1 0-.2-.04-.23-.09-.04-.05-.24-.12-.46-.16-.27-.05-.51-.18-.7-.38l-.3-.32v2.15h.33c.34 0 .8.34.57.42-.07.02-.09.14-.04.32.07.28.07.28.68.21.33-.03.62-.07.63-.08ZM15.38 13.5c.35-1.98.35-1.98.12-2.1-.36-.19-.4-.04-.4 1.67 0 .92.02 1.64.04 1.62s.13-.56.24-1.19Zm18.56-1.62c.59-.26.47-.55-.32-.8-.97-.3-1.07-.19-.41.5.46.48.4.46.73.3Zm-2.14-3c0-.63-.1-.88-.37-.99-.37-.14-.2-.26.46-.34s.98-.65.47-.85c-.25-.09-.39-.03-.32.16.04.09-.08.14-.47.17l-.52.03.58.02c.8.03.74.27-.06.27L31 7.34V9.3h.8zM20.48 8.4c.02-.62.06-.78.23-.92.16-.13.17-.18.06-.18-.08 0-.2.06-.26.14-.07.08-.3.17-.52.21-.34.06-.39.1-.39.34 0 .16-.03.49-.06.75l-.07.47.49-.03.49-.03zm15.42-.2v-.4h-.65c-.47 0-.63.03-.61.13.03.06.07.24.1.4.06.25.1.27.61.27h.55zm-19.57.23c.03-.05.08-.23.12-.4l.07-.33H15.1v.8h.59c.33 0 .62-.03.64-.07Zm2.07-1.32c0-.37-.2-.41-1.96-.41H15.1v.59l1.02.04c.57.01 1.31.04 1.66.05l.62.02zm8.4.04V6.9h-1.13c-.63 0-1.83-.03-2.67-.07-1.14-.05-1.51-.03-1.46.05.04.06.02.21-.04.32-.11.2-.09.2 2.6.2h2.7zm9.1.18c0-.05.03-.18.06-.3l.06-.23H32.9v.6h1.5c.83 0 1.5-.03 1.5-.07Zm-13.95-3.4c-.8-.07-.87-.11-.83-.46.02-.26.08-.33.33-.38.39-.08 8.18-.11 8.39-.03.24.09.21.71-.03.84-.18.09-6.82.12-7.86.03Zm7.7-.35c.24-.24-.21-.28-3.09-.28-3.23 0-5.16.08-5.16.21 0 .15 8.1.22 8.25.07Z"/></svg>