<svg xmlns="http://www.w3.org/2000/svg" width="51" height="51" viewBox="0 0 51 51"><path fill="#fff" fill-rule="evenodd" stroke="#fff" stroke-width=".733" d="M24.6 42.29c-8.7-1.04-14-12.88-10.3-23.01.17-.45.28-.83.27-.85-.08-.07-1.75 1.16-2.43 1.8-5.69 5.31-3.01 14.85 5.51 19.66 1.22.69 1.21.68 1.13.76-.11.12-1.21-.46-2.34-1.21-6.45-4.31-9.19-11.22-6.59-16.61.8-1.65 2.14-3.07 4.08-4.31.82-.53.92-.62 1.22-1.23l.34-.66-.45-.44c-1-.98-1.28-2.4-.72-3.62 1.07-2.31 5.19-3.62 11.38-3.61 3.56 0 5.75.31 7.88 1.1 3.16 1.19 4.33 3.51 2.87 5.7l-.44.65.36.74c.36.72.39.76 1.26 1.27 2.4 1.42 3.91 3.15 4.65 5.33 1.55 4.56-.41 10.47-4.67 14.12-1.42 1.22-4.91 3.37-5.06 3.12-.09-.13-.18-.06 1-.69 5.71-3.06 8.98-7.85 8.99-13.15.01-3.56-1.35-6.08-4.33-8.06-1.09-.72-1.28-.81-1.16-.52 1.09 2.57 1.65 6.36 1.36 9.23-.91 8.99-6.94 15.32-13.81 14.49Zm2.97-.34c8.79-1.67 13.47-14.5 8.84-24.21-.59-1.24-.54-1.21-1.26-.73-1.02.67-3.01 1.26-5.5 1.63-4.94.74-9.98.19-13.1-1.43-.38-.2-.73-.37-.77-.39-.11-.05-.75 1.19-1.13 2.22-2.22 5.98-1.58 12.44 1.72 17.56 1.05 1.61 3.28 3.62 4.98 4.47 1.82.91 4.24 1.25 6.22.88Zm-2.53-9.65c-.6-.24-.95-1.02-.73-1.64.49-1.41 2.56-.99 2.52.51-.02.84-.99 1.45-1.79 1.13Zm1.07-.3c.1-.06.26-.24.34-.4.57-1.1-.75-2.11-1.64-1.26-.88.85.21 2.24 1.3 1.66Zm4.42-2.57c-.36-.07-.73-.59-.73-1.03 0-1.19 1.74-1.4 1.96-.24.14.76-.48 1.41-1.23 1.27Zm.74-.45c.28-.32.34-.53.22-.86-.28-.8-1.49-.57-1.49.28 0 .67.84 1.05 1.27.58Zm-9.02-1.2c-.91-.5-.64-1.77.38-1.78.86 0 1.22 1.02.56 1.62-.31.3-.61.35-.94.16Zm.85-.38c.41-.41.1-1.2-.47-1.2-.29 0-.73.42-.73.68 0 .59.79.93 1.2.52Zm-4.57-1.75c-.27-.19-.31-.75-.08-.99a.708.708 0 0 1 1.18.28c.2.59-.57 1.09-1.1.71Zm.68-.15c.37-.2.18-.8-.26-.8-.43 0-.58.39-.28.72.19.21.27.22.54.08Zm6.39-.23c-.71-.36-.75-1.46-.07-1.87.5-.31.93-.26 1.33.14.9.9-.12 2.3-1.26 1.73Zm6.94.03c-.83-.33-.59-1.54.31-1.54.75 0 1.03.89.44 1.38-.33.28-.42.3-.75.16Zm-5.76-.46c.47-.53.09-1.38-.61-1.38-.84 0-1.19.95-.55 1.49.38.32.81.29 1.16-.11Zm6.51-.05c.13-.24.13-.29-.02-.53-.32-.47-.97-.3-.97.25 0 .6.7.79.99.28Zm-11.95-2.6c-1-.49-.49-2.19.62-2.06.54.06.91.37 1 .84.17.91-.77 1.62-1.62 1.22Zm.96-.24c.65-.34.57-1.35-.13-1.53-.94-.25-1.55.71-.88 1.39.33.32.58.36 1.01.14Zm6.94-.75c-.61-.24-.85-1.21-.43-1.73.31-.4.87-.54 1.33-.32 1.3.62.44 2.59-.9 2.05Zm1.06-.45c.34-.37.33-.9-.04-1.21-.61-.53-1.46-.12-1.46.71 0 .68 1.02 1.02 1.5.5Zm-1.56-2.25c4.03-.52 6.07-1.24 7.27-2.58 1.17-1.3 1.02-3.15-.35-4.39-3.58-3.21-16.62-3.16-20.31.09-1.41 1.24-1.41 3.32-.01 4.55 2.22 1.96 8.2 3 13.4 2.33Zm-5.04-2.76c-2.53-.23-5.24-.92-6.25-1.58-.32-.21-.25-.36.49-1.09 4.29-4.29 10.89-4.39 15.23-.24.94.9.93.94-.29 1.52-2.27 1.07-6.17 1.66-9.18 1.39Zm5.4-.48c1.72-.33 4.23-1.2 4.45-1.56.17-.27-1.82-1.87-3.2-2.57-3.35-1.7-7.19-1.45-10.48.7-1.04.68-2.33 1.87-2.25 2.08.14.37 2.77 1.15 4.83 1.44 1.35.19 5.45.13 6.65-.09Zm-12.8-2.41c0-.28 2.55-1.95 2.99-1.95.27 0 .04.18-.8.65-.5.28-1.17.71-1.5.98-.65.52-.69.54-.69.32Zm18.55-.37c-.41-.26-2.16-1.13-2.43-1.2s-.29-.28-.04-.28c.2 0 2.43 1.09 2.76 1.35.32.24.05.35-.29.13Z"/></svg>