<svg xmlns="http://www.w3.org/2000/svg" width="51" height="51" viewBox="0 0 51 51"><path fill="#fff" fill-rule="evenodd" stroke="#fff" stroke-width=".432" d="M20.8 40.78c-.55-.28-.59-.54-.36-2.14.21-1.41.22-1.36-.11-1.18-.39.2-.69.18-1.14-.08l-.39-.22-.22.21c-.65.59-1.65.55-1.98-.07-.1-.19-.12-.18-.56.15-2.99 2.28-4.49-4.05-1.72-7.21.95-1.08 2.78-1.02 3.19.1.09.24.22.39.41.45.36.13.35.16-.08 1.86-.58 2.27-.58 3.75-.01 3.75.43 0 .46-.11.51-1.45.08-1.86.76-4.84 1.16-5.05.21-.11.88.04 1.08.24.14.14.14.24.05.68-.51 2.28-.65 3.03-.74 3.92-.16 1.57-.03 1.96.46 1.32.4-.53.64-1.36.9-3.13.4-2.7.6-3.23 1.19-3.23 1 0 1.06.57.37 3.65-.35 1.57-.7 4.01-.99 6.85-.08.88-.24.97-1.02.58Zm1.1-3.48c.18-1.53.46-3.25.69-4.3.52-2.34.54-2.57.3-2.81-.67-.67-.98-.02-1.39 2.94-.35 2.47-1.12 4-1.75 3.47-.33-.28-.12-2.84.4-4.89.32-1.27.32-1.39-.02-1.52-.45-.17-.56-.08-.79.66-.42 1.34-.66 2.76-.71 4.15-.06 1.51-.14 1.69-.8 1.7-.89 0-.94-1.38-.17-4.42.3-1.19.3-1.14-.03-1.3a.67.67 0 0 1-.35-.45c-.16-.62-.96-.95-1.77-.73-2.09.56-3.23 5.78-1.61 7.4.63.63 1.43.59 2.13-.11.47-.47.48-.47.71-.08.39.66 1.22.69 1.77.05.28-.32.34-.32.71-.01.47.4.92.34 1.4-.17.21-.23.38-.37.38-.31s-.09.71-.2 1.45c-.1.73-.2 1.56-.22 1.83l-.03.5.45.22.45.21.07-.46c.04-.26.21-1.62.38-3.02ZM8.05 38.42c-.22-.09-.46-.21-.53-.25-.21-.14-.13-1 .34-3.94l.06-.39-.49-.14c-.86-.27-.73-1.1.18-1.1.27 0 .49-.01.49-.02 0-.22.62-3.69.71-3.99.15-.48.42-.64.92-.55.58.11.59.17.32 1.87-.14.85-.29 1.78-.34 2.07-.09.6-.07.61.57.28 1.18-.6 1.93-2.09 1.63-3.23-.43-1.59-3.17-1.64-4.17-.07-.41.64-.35.62-.96.23-.58-.38-.63-.66-.19-1.26 1.44-1.98 5.53-1.6 6.6.61.97 1.99-.55 4.56-3.04 5.17-.71.17-.7.16-.9 1.6-.17 1.22-.17 1.32-.02 1.41.24.13.21.34-.14 1.08-.41.87-.43.88-1.04.62Zm15.55.02c-1.05-.36-1.35-1.27-.47-1.49.24-.06.27-.12.27-.51 0-.98.78-6.43 1.21-8.38.29-1.36.43-1.5 1.19-1.2.61.25.62.3.24 2.19-.18.94-.51 2.87-.74 4.3-.22 1.43-.42 2.73-.45 2.89-.04.23-.02.27.12.21.79-.3 3.08-.42 3.36-.18.2.17.2.17.12-.02-.17-.4-.18-2.29-.02-3.06.48-2.32 1.48-3.6 2.86-3.67.83-.04 1.27.17 1.56.75.12.24.31.44.48.51.32.12.35.4.12 1.16-.26.85-.65 3.04-.65 3.65 0 .71.24 1.02.65.83.43-.2.52-.55.69-2.82.28-3.71.72-6.82 1.02-7.27.18-.28.46-.29 1.02-.03.53.24.54.41.12 2.62-.3 1.61-.65 4.17-.57 4.24.02.02.16-.29.32-.68.75-1.96 1.4-2.85 1.99-2.72 1.13.24 1.16.35.76 2.52-.4 2.18-.51 4-.25 4.22.33.27.83-.21 1.14-1.11.2-.56.81-.26.81.39 0 .79-.87 1.84-1.67 2.03-1.42.32-2.4-1.42-2.04-3.6.06-.36.09-.66.07-.68-.08-.08-.89 2.43-1.06 3.31-.23 1.15-.24 1.16-.56 1.16-.26 0-.98-.33-1.09-.49-.03-.06-.19-.02-.38.09-.57.35-1.4.22-1.73-.28l-.16-.24-.31.3c-.78.73-1.66.73-2.43 0-.3-.28-.32-.28-.37-.09-.04.16-.13.21-.39.21-.34 0-1.88.21-2.95.41-.55.1-.63.14-.72.4-.12.34-.39.37-1.11.13Zm.91-.33c.09-.25.18-.31.62-.41.51-.11 3.1-.5 3.35-.5.1 0 .09-.07-.03-.29-.27-.53-.41-.6-.98-.55-.74.07-2.57.35-2.73.41-.1.04-.14-.04-.14-.3 0-.72.89-6.21 1.3-8.08.25-1.13.26-1.06-.14-1.26-.48-.22-.6-.14-.79.54-.3 1.08-1.1 6.38-1.32 8.75-.06.65-.07.67-.41.78-.61.21-.35.7.54 1.02.63.22.62.22.73-.11ZM8.8 37.83c.32-.72.35-.93.15-.93s-.17-.45.13-2.24l.17-.98.75-.22c1.42-.41 2.38-1.14 2.92-2.24.34-.7.33-1.98-.03-2.67-1.05-2.04-5.24-2.19-6.25-.22-.16.29-.15.31.07.48.38.3.61.34.72.13.99-1.83 4.39-1.81 4.73.02.27 1.44-.45 2.87-1.78 3.54-1.14.56-1.13.57-.68-2.19.33-2.01.33-2.01-.14-2.01s-.57.29-.96 2.85c-.3 1.94-.23 1.79-.8 1.72-.8-.1-1.01.46-.22.59.66.1.66.1.48 1.15-.53 3.19-.48 3.58.46 3.68.04.01.16-.2.28-.46Zm32.39-.18c-.54-.29-.58-1.08-.07-1.5.42-.35.91-.34 1.29.04.77.78-.25 1.99-1.22 1.46Zm-10.34-.1c.2-.08.5-.3.69-.51l.33-.36.22.31c.46.64.96.74 1.61.33l.45-.28.33.33c.62.62.85.49 1.05-.56.3-1.57 1.45-4.67 1.7-4.58.13.05.14.04-.08 1.43-.37 2.47.12 3.89 1.33 3.89.82 0 1.72-.92 1.72-1.76 0-.54-.14-.49-.47.18-.48.97-1.15 1.2-1.51.53-.2-.38-.09-1.98.29-4.08.37-2.05.37-2.08-.29-2.32-.68-.24-1.14.42-2.12 3-.58 1.53-.6 1.57-.7 1.39-.14-.22.18-3.16.6-5.44.41-2.27.41-2.37.05-2.53-.37-.17-.63-.15-.74.07-.22.41-.78 5.07-.97 8.01-.04.67-.13 1.21-.25 1.48-.36.84-1.28.88-1.51.06-.16-.54.2-2.94.67-4.48.16-.54.13-.66-.16-.66-.14 0-.25-.13-.39-.44-.19-.46-.48-.68-1.07-.8-2.81-.61-4.41 7.01-1.64 7.84.38.12.48.11.86-.05Zm11.35-.27c.26-.29.27-.84.01-.98-.75-.39-1.58.43-1.01 1 .27.27.74.26 1-.02Zm-27.72-.48c-.79-.47-.06-5.1.97-6.12.72-.72 1.12.02.65 1.23-.11.3-.2.55-.2.56s.14.05.31.08c.38.09.37.42-.06 1.9-.56 1.92-1.1 2.68-1.67 2.35Zm15.31-.17c-.51-.61.07-4.57.84-5.7.75-1.11 1.55-.22.92 1.03-.14.27-.25.5-.25.51s.13.04.29.08c.16.03.32.12.35.2.05.15-.54 2.5-.78 3.06-.36.86-1.02 1.25-1.37.82Zm-14.38-.86c.29-.64.79-2.35.79-2.74 0-.15-.09-.24-.31-.32-.35-.12-.35-.06.01-1.08.32-.89.16-1.2-.34-.66-.58.62-1.1 2.64-1.1 4.31-.01 1.57.36 1.75.95.49Zm15.05.66c.28-.29.62-1.12.93-2.33.34-1.26.34-1.25-.09-1.33-.36-.08-.37-.18-.05-.81.25-.5.33-1.1.15-1.21-.5-.31-1.3 1.76-1.49 3.89-.15 1.63.05 2.28.55 1.79Zm11.25-.92c-.4-.25 1.06-6.27 1.62-6.66.29-.21 1.11-.2 1.32.02.33.32-.19 2.04-1.4 4.66-.99 2.14-1.09 2.26-1.54 1.98Zm.73-.89c.99-1.97 2.06-4.76 2.06-5.36 0-.57-1.01-.4-1.26.2-.35.84-1.48 5.59-1.38 5.76.12.19.26.04.58-.6Zm-34.3-10.3c-.27-.22-.44-.54-.44-.85 0-.2-.06-.25-.37-.3-.94-.16-1.14-.88-.61-2.22.57-1.45.53-2.97-.13-4.69-.43-1.12-.19-1.72.75-1.9.31-.06.36-.11.36-.36 0-.39.43-.88.84-.96.26-.04.56.03 1.27.33.93.38.95.38 2.29.38h1.35l.84-.39c1.21-.56 1.81-.39 2.13.59.11.33.18.4.48.46.93.19 1.08.85.51 2.26-.65 1.63-.64 2.46.05 4.24.52 1.35.36 2.03-.53 2.23-.38.09-.42.13-.52.52-.21.84-1.03 1.08-2.01.59-1.43-.72-3.12-.74-4.66-.04-.72.33-1.29.37-1.6.11Zm1.5-.37c1.68-.69 3.23-.69 4.77.01 1.15.51 1.79.27 1.79-.67v-.39h.44c.87 0 1.07-.67.57-1.93-.74-1.86-.72-2.94.08-4.67.44-.95.15-1.61-.72-1.66-.39-.02-.42-.04-.39-.3.12-1.01-.61-1.26-1.91-.67-1.25.57-3.07.57-4.42.01-1.08-.46-1.28-.47-1.67-.08-.24.24-.29.37-.26.66.03.36.03.36-.39.38-.92.05-1.1.53-.64 1.69.66 1.65.67 3.03.06 4.74-.5 1.39-.41 1.68.59 1.82.39.06.4.07.42.49.02.46.16.69.49.82.29.13.28.13 1.19-.25Zm29.71-.05a12 12 0 0 1-.94-.19c-.31-.09-.47-.09-.54-.02-.06.06-.19.11-.29.11-.26 0-.27-2.07-.01-2.17.09-.04.18-.02.2.04.62 1.84 3.77 2.13 4.63.42.66-1.27.08-2.07-1.89-2.63-2.24-.65-3.16-1.53-3.15-3.06 0-2.17 2.05-3.27 5.12-2.76.57.1 1.17.14 1.37.1l.35-.06v1.06c0 1.12-.16 1.43-.41.79-.65-1.72-3.94-1.6-4.24.16-.16.95.37 1.4 2.25 1.91 2.23.6 3.04 1.44 3.04 3.1-.01 2.43-2.19 3.7-5.49 3.2Zm-20.31-.11c-.04-.06.09-.26.3-.45l.37-.34-.03-4.3-.03-4.3-.29-.24c-.65-.51 0-.66 2.89-.66 2.9.01 4.62.68 5.64 2.21 1.95 2.92.53 7.21-2.66 8.04-.72.19-6.07.22-6.19.04Zm9.6-.01c-.04-.06.07-.23.27-.39l.34-.28v-8.73l-.29-.23c-.63-.51-.43-.55 2.47-.55 2.95 0 3.57.08 4.26.54 1.37.92 1.3 2.98-.13 3.93l-.45.3.51.24c2.27 1.06 2.2 4.45-.11 5.13-.69.2-6.75.24-6.87.04Zm-3.34-.34c3.58-1 4.4-6.6 1.27-8.67-1.14-.76-1.82-.91-4.45-.95-2.46-.04-2.78-.01-2.47.22.28.2.33.93.34 4.96.01 3.73-.04 4.35-.37 4.48-.55.23 4.86.19 5.68-.04Zm9.13.17c1.34-.11 1.83-.36 2.3-1.2.75-1.34.12-2.96-1.43-3.65-.73-.33-.74-.37-.06-.8 1.58-1.01 1.55-3.13-.06-3.8-.74-.31-2.94-.44-5.1-.29-.94.06-.96.06-.75.24.42.33.38 8.88-.04 9.3-.18.18-.16.18.94.22 2.32.06 3.15.06 4.2-.02Zm8.27-.19c1.24-.48 1.85-1.4 1.85-2.77 0-1.58-.74-2.26-3.09-2.86-1.87-.48-2.53-1.3-2.05-2.56.54-1.44 3.21-1.65 4.29-.34l.3.36v-.62c0-.56-.02-.61-.19-.56-.11.03-.63-.03-1.16-.12-2.98-.54-5.05.46-5.05 2.42 0 1.41.8 2.14 3.1 2.87 1.41.44 1.71.62 1.99 1.18 1.15 2.38-2.58 4.27-4.51 2.28-.54-.56-.58-.55-.58.18 0 .52.01.54.24.48.13-.03.37-.01.54.05 1.02.35 3.42.36 4.32.01Zm-10.73-.01c-.33-.03-.62-.13-.68-.21-.14-.2-.03-8.64.11-8.91.09-.16.22-.19.97-.19 1.49 0 2.22.57 2.31 1.81.1 1.43-.47 2.15-1.93 2.45-.59.12-.59.12-.17.13 1.61.04 2.72 1.13 2.72 2.65-.01 1.8-1.09 2.53-3.33 2.27ZM21.8 23.2c-.26-.26-.32-8.6-.07-8.94.12-.16.26-.18 1.13-.14 2.49.1 3.68 1.55 3.81 4.63.1 2.36-.61 3.91-2.05 4.45-.77.29-2.53.29-2.82 0Zm2.73-.26c2.61-.89 2.58-6.87-.03-8.19-.54-.27-1.58-.48-2.16-.43l-.39.03v8.7l.35.07c.52.1 1.69.01 2.23-.18Zm9.6.02c.99-.48 1.27-2.24.51-3.24-.34-.43-1.11-.81-1.98-.96-.66-.11-.71-.13-.71-.36s.05-.26.63-.32c1.46-.16 2.17-1.16 1.78-2.51-.25-.86-.94-1.27-2.14-1.27-.68 0-.64-.25-.7 4.48l-.05 4.3.29.05c.64.11 1.99.01 2.37-.17Zm-25.37-.85c-.04-.06.45-.75 1.07-1.53 1.59-1.99 1.6-1.72-.07-3.71-1.1-1.31-1.28-1.57-1.06-1.57.05 0 .73.54 1.52 1.2 1.97 1.64 1.77 1.65 3.85-.14 1.05-.91 1.33-1.09 1.33-.87 0 .06-.5.7-1.11 1.43-1.63 1.96-1.63 1.7-.04 3.63 1.67 2.04 1.59 2.11-.48.41-1.81-1.49-1.74-1.49-3.43-.05-.66.56-1.26 1.09-1.36 1.16-.1.09-.18.11-.22.04Zm4.75-2.05c-1.02-1.24-1.01-1.39.06-2.69l.68-.82-.65.56c-.93.79-1.1.89-1.55.89-.41 0-.55-.09-1.67-1l-.43-.35.28.35c1.43 1.8 1.43 1.79.15 3.35l-.33.4.43-.35c1.41-1.15 1.6-1.15 2.91-.11.35.28.66.51.68.51s-.23-.33-.56-.74Z"/></svg>