<svg xmlns="http://www.w3.org/2000/svg" width="51" height="51" viewBox="0 0 51 51"><path fill="#fff" fill-rule="evenodd" stroke="#fff" stroke-width=".763" d="m24.08 46.46-.03-4.73-.67.2-.68.2-2.12-1.62c-4.61-3.51-9.24-6.97-11.33-8.46-1.21-.86-2.21-1.62-2.23-1.69-.03-.12.7-4.44 2.12-12.65.32-1.85.6-3.19.68-3.26.07-.07 1.44-.47 3.03-.9 4.27-1.14 10.77-2.94 11.03-3.05l.22-.1V5.2c0-3.4.03-5.2.1-5.2s.1 1.8.1 5.2c0 2.86.01 5.2.03 5.2.13-.01 2.51-.7 2.56-.75.03-.04.07-2.22.09-4.86C27 1.77 27.04 0 27.1 0s.1 1.76.1 4.81v4.81l.23-.06c.83-.23.98-.2 1.82.37.44.29 2.53 1.72 4.65 3.16 2.12 1.45 5.35 3.63 7.18 4.84l3.33 2.22-.05.5c-.12 1.1-2.62 14.12-2.89 15.05l-.13.44-5.14 1.74c-2.83.95-6 1.99-7.05 2.31l-1.9.58-.03 5.21c-.01 3.37-.06 5.22-.12 5.22-.07 0-.1-1.82-.1-5.16v-5.16l-.32.06c-.18.03-.79.2-1.35.38l-1.03.31v4.79c0 3.09-.04 4.78-.1 4.78s-.11-1.69-.12-4.74Zm2.32-5.75c1.68-.54 5.66-1.82 8.84-2.84 3.19-1.03 5.83-1.9 5.87-1.94.04-.05.16-.6.27-1.23s.5-2.68.86-4.55c.35-1.87.85-4.53 1.11-5.9.25-1.37.52-2.78.59-3.13.07-.34.12-.62.1-.62-.09 0-4.95 1.37-8.54 2.41-10.87 3.15-9.85 2.8-9.93 3.37-.03.2-.21 1.28-.41 2.4-.2 1.11-.52 2.93-.71 4.05-.2 1.11-.65 3.58-1 5.48-.36 1.91-.65 3.5-.65 3.54 0 .11.38 0 3.6-1.04Zm-3.37-1.67c.26-1.37.65-3.5.87-4.74.68-3.94 1.2-6.83 1.35-7.57.08-.4.15-.79.15-.87 0-.16-15.27-11.12-15.36-11.03-.06.05-.13.45-1.68 9.42-.53 3.03-.98 5.64-1.02 5.81-.06.3-.02.33 1.48 1.39 2.17 1.54 7.44 5.46 10.73 7.99 1.54 1.18 2.84 2.13 2.9 2.12s.31-1.15.58-2.52Zm8.36-15.18c5.25-1.53 9.15-2.65 11.54-3.31.53-.15.97-.3.97-.34-.01-.07.4.21-6.55-4.5-3.02-2.05-6.29-4.26-7.25-4.92l-1.76-1.2-1.39.36c-.77.2-3.4.92-5.85 1.6s-5.89 1.62-7.65 2.1-3.21.88-3.23.9c-.02.01.27.24.64.5l.67.46 8.61.02c8.54.02 8.61.02 8.59.22-.01.11-.45 1.46-.97 3-.75 2.23-1.68 5.09-2.12 6.58-.07.23-.57.36 5.75-1.47Zm-5.49-.28c.49-1.61 2.37-7.21 2.54-7.6.08-.17-.35-.18-8.2-.18-4.63 0-8.24.04-8.19.09.06.04 2.55 1.83 5.55 3.96 3 2.14 5.92 4.23 6.5 4.66s1.1.78 1.16.78c.06.01.34-.77.64-1.71Z"/></svg>