<svg xmlns="http://www.w3.org/2000/svg" width="51" height="51" viewBox="0 0 51 51"><path fill="#fff" fill-rule="evenodd" stroke="#fff" stroke-width=".679" d="M24 49.49c-2.88-.15-5.51-.68-8.25-1.66-1.2-.42-3.39-1.4-3.66-1.62-.23-.19-.32-32.68-.09-33.11.16-.29 1.04-.97 1.73-1.32l.59-.3-.07-2.38c-.07-2.33-.07-2.38.13-2.49.14-.08 1.69-.11 4.84-.11h4.63l1.67-2.13c2.34-2.96 2.3-2.91 2.59-2.84.13.04 1.05.71 2.04 1.49.99.79 3 2.37 4.45 3.52 3.56 2.81 5.3 4.26 5.3 4.41 0 .07-.24.46-.54.87l-.53.74.23.27c.46.54.52 2.43.54 17.17.02 14.5.11 12.94-.77 13.4l-.43.22v1.09c0 1.2.02 1.23.58.89.45-.28.52-.25.52.18 0 .35-.03.4-.38.55-.2.08-.89.38-1.52.66-2.97 1.32-6.97 2.32-9.8 2.47-2.02.1-2.49.1-3.8.03Zm5.57-.93c2.4-.36 4.61-.94 6.76-1.78l1.27-.49v-1.15c0-.63-.02-1.14-.04-1.14s-.46.16-.97.35c-6.47 2.47-14.45 2.63-20.54.4-.55-.2-1.08-.39-1.17-.42-.16-.05-.18.05-.18 1.15v1.2l.92.36c4 1.53 9.7 2.16 13.95 1.52ZM14.4 45.33v-1.18l-1.1-.56-1.1-.55v2.47l1.03.49c.56.27 1.05.49 1.1.5.04 0 .07-.53.07-1.17Zm14.35.56c3.11-.3 7.13-1.38 9.52-2.56.89-.43.93-.46.93-.77 0-.39-.27-.46-.36-.09-.15.58-.24.11-.24-1.26v-1.5l-.6.25c-.89.36-5.82 2.18-7.58 2.8-1.87.66-2.01.64-1.37-.2.19-.26.35-.5.35-.54s-.81-.84-1.8-1.76c-1.21-1.14-1.8-1.75-1.8-1.89 0-.3 3.52-3.82 3.74-3.74.13.05.16.22.16.92v.85l.92-.01c.51-.01 1.06-.04 1.21-.08l.28-.06-1.02-1.7c-1.2-2.01-1.17-1.94-.94-2.11.16-.12-.38-.14-3.57-.14h-3.76l.34 1.32c.18.73.34 1.36.34 1.4 0 .17-.38.06-.94-.28-.32-.19-.64-.33-.71-.31-.1.05-1.15 1.77-1.15 1.91 0 .03.94.06 2.09.06 1.62 0 2.1.03 2.14.13.03.07.04.94.03 1.93l-.01 1.79h-6.09l-.84-1.4c-1.88-3.16-1.83-2.81-.67-4.84.47-.81.85-1.51.85-1.55s-.82-.07-1.82-.06c-1.01.01-1.89.02-1.96.01-.18-.01-.13-15.82.06-15.89.09-.03.12 1.58.12 7.83v7.88l.38-.07c.2-.03.96-.06 1.67-.06l1.3-.01-.57-.3c-.65-.33-.73-.54-.26-.67 2.49-.68 5-1.25 5.06-1.15.04.06.18.55.31 1.07l.24.96h8.17l.56-.31c.69-.39.65-.28.62-1.9l-.03-1.34-.34 1.23c-.2.73-.4 1.26-.48 1.29-.17.07-4.78-1.16-5.01-1.33-.21-.15-.1-.28.61-.7.34-.2.64-.38.66-.4s-.23-.49-.55-1.05c-.42-.74-.6-.98-.66-.88-.05.08-.49.84-.99 1.69-.49.85-.95 1.61-1.02 1.67-.13.13-3.37-1.61-3.45-1.85-.04-.12 2.47-4.43 2.84-4.89l.22-.28h2.4c2.91 0 2.52-.25 4.35 2.75.22.36.41.66.42.68.02.02.26-.08.54-.22l.51-.26v-4.09c0-2.24-.02-4.1-.05-4.12-.02-.03-.44-.02-.92.02-4.4.35-6.24.33-9.98-.12-4.36-.52-7.22-1.35-8.44-2.45-.59-.53-.68-.48-.14.08.42.43.37.62-.08.29-.17-.13-.31-.21-.32-.19-.01.01-.01 6.18.01 13.7l.02 13.66.36.21c.19.12.37.21.4.21.02 0 .05-6.11.06-13.57.02-8.93.06-13.57.13-13.59.06-.02.19.03.3.12.2.15.2.28.23 13.78l.02 13.63.68.32c3.97 1.83 9.27 2.6 14.37 2.1Zm-6.64-.29c-.78-.11-2.13-.39-2.19-.45-.15-.15.15-.13 1.04.06 1.85.4 3.88.23 5.16-.42.22-.11.45-.18.51-.16.2.07-.85.55-1.65.75-.92.25-2.04.33-2.87.22Zm-3.83-.81c-1.68-.5-3.48-1.28-3.48-1.5 0-.06.03-.09.08-.07 1.19.61 2.96 1.29 4.1 1.58.23.06.42.15.42.2 0 .13-.01.13-1.12-.21ZM34.4 41c1.51-.56 2.87-1.07 3.03-1.12.16-.06.27-.17.27-.29 0-.23.09-.25-.85.12-.44.17-2.24.85-3.99 1.5-3.5 1.32-3.51 1.32-3.59 1.53-.07.17.66-.08 5.13-1.74Zm-.3-.56c2.28-.86 4.16-1.57 4.18-1.58.02-.03-.35-1.13-.68-2.04-.13-.35-.07-.53.11-.35.05.05.28.59.49 1.19l.39 1.09.03-1.94c.02-1.44.06-1.95.16-1.99.09-.03.12.73.12 3.56 0 2.8.03 3.59.13 3.59.09 0 .12-2.75.12-13.39 0-7.36-.03-13.38-.06-13.38-.04 0-.12.07-.19.15-.2.24-.79.57-.9.5-.06-.04.07-.19.3-.36.22-.16.4-.31.4-.34s-.21.1-.47.29c-1.09.78-3.06 1.35-4.9 1.43l-1.23.06V10.7h-1.62c-.9 0-1.87-.03-2.15-.06l-.53-.07V6.93l-2.18-.06c-2.97-.09-11-.09-11.05.01-.02.04-.02 1.88.01 4.1l.05 4.03.66.33c1.55.78 5.33 1.65 9.33 2.16 1.99.25 5.2.13 9.03-.35.62-.08 1.14-.1 1.19-.05.13.13-1.71 2.3-1.94 2.3-.11 0-.26-.1-.34-.22-.15-.21-.16.07-.16 3.2 0 2.68.03 3.41.12 3.4.09-.02.12.08.1.3-.02.28.07.44.51.95.3.34.94 1.14 1.44 1.77.91 1.17 3.1 4 3.7 4.78l.33.44v-9.06c0-7.99.02-9.06.15-9.06s.15.34.16 2.38c.04 5.31-.03 16.18-.1 16.25-.09.09-.39-.28-3.21-3.93-1.17-1.51-2.33-3-2.59-3.3l-.46-.54-.06.29c-.08.35-.11 4.05-.04 4.05.02 0 .25-.1.5-.22.55-.27.45-.35 1.45 1.33 1.45 2.43 1.95 3.51 1.81 3.9-.19.54-1.97 3.62-2.25 3.88-.25.24-1.58.38-3.73.4l-.53.01v.8c0 .58.03.8.13.8.07 0 1.99-.7 4.27-1.56Zm-2.56-.4 2.09-.1.26-.32c.25-.3 1.3-2.09 1.87-3.19.27-.53.27-.53.1-.98-.16-.41-2.28-4.2-2.45-4.38-.08-.08-2.72 1.31-2.98 1.56-.09.09.03.35.51 1.12.34.55.82 1.35 1.06 1.77l.44.78h1.09c.82 0 1.08.03 1.05.13-.06.16-4.86.3-5.05.14-.09-.06-.13-.37-.13-.86v-.76l-1.65 1.65c-.91.91-1.65 1.7-1.65 1.76s.73.79 1.63 1.63l1.62 1.53.05-.68.05-.69zm-6.91-1.61c-.02-.87-.05-1.64-.08-1.72-.05-.12-.38-.13-2.03-.08-2.3.07-2.36.06-2.03-.55.4-.73 1.22-2.08 1.26-2.08.03 0 .34.16.7.36s.65.31.65.25-.13-.61-.29-1.23c-.17-.62-.41-1.58-.55-2.12-.14-.55-.28-1.01-.3-1.03-.03-.04-4.13.98-4.56 1.13-.09.03.05.16.4.35.99.54 1.05.18-.55 3.04-.41.74-.54 1.06-.5 1.25.06.23 1.83 3.3 1.91 3.3.02 0 .21-.35.43-.77.43-.86.8-1.38.81-1.13 0 .09-.23.58-.51 1.1-.87 1.6-.94 1.55 2.52 1.53l2.74-.01zm7.04-9.67c.28-1.05.55-2.08.59-2.29l.06-.4-.58.32c-.8.43-.72.48-1.77-1.22-1.32-2.11-.95-1.92-3.69-1.92h-2.31l-.16.24c-.82 1.19-2.67 4.48-2.57 4.57.13.14 2.75 1.64 2.85 1.64.04 0 .53-.8 1.09-1.77l1.01-1.77-.28-.53c-.38-.7-.21-.79.22-.11.56.87 1.67 2.93 1.67 3.09 0 .07-.29.29-.65.48-.36.18-.64.35-.62.38.08.07 4.32 1.21 4.47 1.19.1-.01.3-.59.67-1.9Zm1.95-10.46c.82-.96.82-.94.11-.86-1.4.16-1.33.12-1.33.62 0 .4.3 1.04.49 1.04.03 0 .36-.36.73-.8Zm-15.07-1.59c-2.9-.74-3.74-1.1-4.58-2-.65-.69-.64-1.1.04-1.89.25-.28.41-.92.24-.92-.62 0-2.15 1.32-2.15 1.85 0 1.26 2.49 2.47 6.6 3.19 2 .36 1.96.3-.15-.23Zm14.95-.42c1.99-.32 2.45-.67 4.17-3.17.47-.7 1-1.44 1.16-1.64l.29-.38H32.4v2.71c0 2.53.01 2.7.18 2.65.09-.02.51-.1.92-.17Zm2.95-.31c1.81-.59 2.85-1.63 2.56-2.58-.21-.72-.3-.68-1.16.53-.73 1.03-.88 1.17-1.75 1.75-1.02.68-.97.73.35.3Zm2.63-5.21c.38-.02-1.68-1.73-6.63-5.48-1.26-.96-2.68-2.05-3.14-2.42-.47-.36-.87-.65-.89-.63s.1.55.27 1.18c.38 1.43.91 3.9.91 4.27 0 .23.24.5 1.39 1.57.77.71 1.4 1.36 1.4 1.44.01.14 4.96.19 6.69.07Zm-7.58-.62c-.4-.42-3.08-2.88-3.25-2.97-.13-.08-.15.1-.15 1.57v1.65h3.63zM29 6.09c-.37-1.75-.9-3.79-.99-3.78-.13.01-3.31 4.11-3.25 4.2.03.05.77.09 1.66.09h1.6l.6.5c.33.28.62.49.65.47.02-.02-.1-.69-.27-1.48Z"/></svg>