<svg xmlns="http://www.w3.org/2000/svg" width="51" height="51" viewBox="0 0 51 51"><path fill="#fff" fill-rule="evenodd" stroke="#fff" stroke-width=".796" d="M23.65 41.64c-3.38-.5-6.15-1.77-8.68-3.98-8.54-7.47-6.76-21.39 3.38-26.41 7.36-3.64 16.26-1.29 20.77 5.5 1.4 2.1 2.38 4.91 2.42 6.9l.01.7h-8.09l-.21-.75c-1.34-4.82-6.57-7.18-11.1-5.01-5.36 2.55-5.91 9.96-.99 13.47 3.33 2.38 8.16 1.62 10.65-1.67.7-.92.84-1.18 1.29-2.49l.36-1.05h8.09l.03.43c.04.57-.29 2.18-.73 3.5-1.79 5.37-6.32 9.4-11.94 10.63-.93.21-4.4.35-5.26.23Zm4.98-.44c6.37-1.24 11.26-6.13 12.56-12.57.12-.55.21-1.13.21-1.27v-.26l-3.91.02-3.92.03-.16.6c-1.33 4.86-6.91 7.36-11.39 5.11-5.36-2.7-6.08-10.08-1.33-13.68 4.52-3.42 11.29-1.17 12.76 4.25l.18.67h3.88c3.27 0 3.89-.02 3.89-.14 0-.08-.09-.67-.2-1.31-1.07-6.25-5.93-11.17-12.4-12.56-1.54-.34-4.86-.34-6.4 0-8.7 1.87-14.11 10.12-12.3 18.77 1.76 8.43 10.11 13.99 18.53 12.34Z"/></svg>