<svg xmlns="http://www.w3.org/2000/svg" width="51" height="51" viewBox="0 0 51 51"><path fill="#fff" fill-rule="evenodd" stroke="#fff" stroke-width=".456" d="M9.15 42.1c-.09-.15-.06-32.83.03-32.92.04-.04 7.46-.07 16.48-.06l16.39.03v33l-16.42.03c-10.92.01-16.44-.01-16.48-.08Zm32.62-.23c.1-.1.17-30.45.08-31.64l-.07-.83H9.43l-.06.83c-.04.45-.07 7.76-.07 16.24v15.42l.23.04c.42.08 32.15.02 32.24-.06Zm-26.14-3.05c-3.22-.02-3.22-.02-3.29-.24-.09-.29.06-26.01.15-26.11.04-.04 5.96-.06 13.17-.05l13.09.03.03 13.09c.01 7.88-.02 13.14-.07 13.19-.09.09-15.9.15-23.08.09ZM38.5 25.65V12.7H12.73l-.06 1.37c-.04.75-.07 6.57-.07 12.95V38.6h25.9zm-18.53 6.59c-.04-.04-.07-3.03-.07-6.65v-6.57l.63-.07c1.22-.13 6.86.01 7.46.18 3.7 1.09 4.86 5.38 2.12 7.89-1.2 1.1-2.05 1.33-4.78 1.31l-2.03-.02-.02 1.97-.03 1.97-1.61.03c-.88.01-1.63-.01-1.67-.04Zm3.05-2.16.03-1.93 2.3-.06c2.95-.08 3.66-.3 4.8-1.5.89-.93 1.1-1.49 1.1-2.94s-.21-2.01-1.1-2.94c-1.26-1.32-2.06-1.51-6.57-1.51H20.2v2.28c0 1.25-.03 4.13-.07 6.4L20.07 32H23zm.1-4.59c-.14-.15-.17-3.45-.03-3.67.14-.23 3.55-.12 4.01.12 1.44.76 1.49 2.59.09 3.41-.43.25-3.84.37-4.07.14Zm3.94-.38c1-.46 1.22-1.87.39-2.6-.49-.43-.9-.51-2.62-.51H23.3v3.3h1.68c1.41 0 1.73-.03 2.08-.19Z"/></svg>