<svg xmlns="http://www.w3.org/2000/svg" width="51" height="51" viewBox="0 0 51 51"><path fill="#fff" fill-rule="evenodd" stroke="#fff" stroke-width=".718" d="M31.54 49.53c-.27-.14-1.32-.74-2.34-1.32-3.15-1.83-6.94-4.02-9.6-5.57-1.4-.81-3.53-2.03-4.73-2.72-1.58-.9-2.21-1.31-2.28-1.48-.05-.14-.08-1.99-.07-4.15.02-3.77.01-3.92-.18-4.06-.1-.08-1.74-.92-3.64-1.85-1.9-.94-4.26-2.14-5.25-2.68S1.28 24.54.83 24.31c-.52-.26-.83-.47-.83-.57 0-.22-.06-.25 3.1 1.45 3.09 1.66 3.15 1.69 3.05 1.44-.37-.95-1.45-3.99-2.8-7.88-.9-2.59-2.02-5.81-2.49-7.17-.89-2.55-.95-2.79-.74-2.96.11-.08 5.15-3.02 10.49-6.1.97-.56 1.86-1.02 1.99-1.02.12 0 .86.37 1.63.82 1.23.71 1.59.86 2.86 1.23 3.25.94 3.33.97 3.52 1.3.15.23 1.52 3.6 2.08 5.08l.11.28.53-.28c.28-.16 2.29-1.31 4.45-2.56C30.47 5.82 31.8 5.1 32 5.1c.32 0 1.37.58 7.85 4.33 2.09 1.21 4.7 2.71 5.8 3.35 1.1.63 2.32 1.34 2.7 1.57.39.23 1.12.65 1.63.94 1.18.68 1.39.94.97 1.28-.17.13-2.12 1.29-4.35 2.57s-5.44 3.13-7.15 4.12-3.99 2.32-5.07 2.95c-1.53.88-1.95 1.16-1.85 1.25.12.12 1.68 1.04 8.17 4.81 2.83 1.64 7.97 4.61 9.87 5.69.45.26.66.53.55.71-.08.13-2.2 1.38-9.87 5.83-2.97 1.72-6.18 3.58-7.14 4.14-2.18 1.26-1.99 1.2-2.57.89Zm.36-11.06c0-10.29-.01-10.95-.17-11.09-.1-.08-1.12-.69-2.28-1.35-1.15-.67-2.53-1.46-3.05-1.77l-.94-.55-.56.31c-.3.18-1.18.68-1.95 1.13s-3.11 1.8-5.2 3-4.06 2.33-4.38 2.52l-.57.35.02 3.71.03 3.72 2.45 1.4c2.5 1.44 12.1 7 14.9 8.63.85.5 1.58.91 1.63.91.04.01.07-4.91.07-10.92Zm.56 10.84c.05-.05 2.07-1.24 4.49-2.63 10.47-6.04 13.85-8.03 13.82-8.17-.01-.07-.49-.4-1.07-.73-3.07-1.77-7.03-4.06-11.97-6.94l-5.53-3.22v10.89c0 5.99.04 10.89.08 10.89s.12-.04.18-.09ZM17.78 27.82c6.68-3.85 7.16-4.13 7.25-4.21.04-.04-1.24-.83-2.85-1.76s-4.36-2.51-6.11-3.52-3.21-1.83-3.23-1.83-.04 3.18-.04 7.06c0 6.27.02 7.05.15 7 .08-.03 2.26-1.27 4.83-2.74Zm-5.28-.67c0-1.51-.03-2.75-.06-2.75-.11 0-5.09 2.72-5.23 2.85-.03.04 5.09 2.64 5.22 2.64.04.01.07-1.23.07-2.74Zm21.98-1.32c1.3-.75 4.28-2.47 6.62-3.83s5.38-3.11 6.75-3.9c3.22-1.85 3.12-1.78 2.88-2-.29-.28-18.17-10.61-18.6-10.74-.18-.06-3.3 1.64-6.06 3.31l-.57.35.02 7.21.03 7.21 1.1.65c2.52 1.49 5.31 3.09 5.38 3.1.04.01 1.14-.61 2.45-1.36Zm-24.81-.28c1.46-.8 2.69-1.45 2.74-1.45.09 0 .13-1.91.14-5.87 0-1.58.03-1.95.15-2.06.08-.08 2.15-1.3 4.6-2.72 2.45-1.41 4.63-2.69 4.86-2.83l.41-.25-.77-1.96C20.73 5.7 20.39 4.9 20.29 4.9c-.08 0-1.39.75-9.79 5.58l-3.65 2.1-.03 7.21c-.01 5.04.01 7.21.08 7.21.06 0 1.31-.65 2.77-1.45ZM6.33 12.69c-.12-.1-4.61-2.62-5.31-2.98L.4 9.4l.84 2.42c2.84 8.24 4.74 13.62 5.05 14.38.03.08.07-2.91.09-6.64.01-3.74-.01-6.83-.05-6.87ZM25.2 16.2V9.19l-.22.12c-.13.07-1.42.82-2.88 1.67s-3.53 2.06-4.6 2.67c-1.07.62-2.52 1.46-3.22 1.87l-1.27.75 3.32 1.9c1.83 1.05 4.2 2.42 5.27 3.04 2.97 1.72 3.44 1.98 3.52 1.99.05 0 .08-3.15.08-7ZM9.63 10.67c6-3.45 9.02-5.2 9.1-5.27.09-.08-1.84-1.27-4.51-2.79l-1.63-.92L6.52 5.2C3.18 7.14.41 8.76.35 8.82c-.12.12-.28.01 2 1.3.99.56 2.3 1.29 2.9 1.64.61.35 1.16.63 1.23.63.07.01 1.49-.77 3.15-1.72Zm9.89-5.68c.52-.26.49-.29-1.07-.74-.72-.21-1.37-.4-1.45-.43-.08-.02.34.27.95.66 1.3.84 1.07.76 1.57.51Z"/></svg>