<svg xmlns="http://www.w3.org/2000/svg" width="51" height="51" viewBox="0 0 51 51"><path fill="#fff" fill-rule="evenodd" stroke="#fff" stroke-width=".538" d="M1.3 50.31c0-1.09.02-1.11.7-.54.63.53 1.22.84 2.05 1.09.79.23.94.38.32.3-.6-.07-1.78-.62-2.37-1.09l-.45-.37-.03.75c-.04 1.06-.22.94-.22-.14Zm4.2-1.09c-1.82-.62-3.05-1.81-3.61-3.54l-.24-.73V25.6c0-18.18.01-19.39.18-19.99C2.38 3.6 4 2.09 5.9 1.81c.4-.06 8.17-.11 19.9-.13l19.25-.03.7.22c1.61.51 2.87 1.73 3.4 3.28.16.46.17 1.65.19 15.1.02 19.75-.04 24.89-.31 25.72-.53 1.59-1.77 2.74-3.44 3.19-.95.25-39.34.31-40.09.06Zm19.44-1.14c.1-1.64.87-4.18 1.28-4.18.13 0 .09.15-.21.76-.68 1.39-1.11 4.49-.61 4.49.12 0 .16-.23.22-1.2.15-2.84 1.36-4.86 3.25-5.41.56-.16 1.02-.12.73.06-.08.06-.24.1-.35.1s-.47.13-.8.29c-1.53.72-2.48 2.59-2.62 5.13l-.06 1.08h.31c.57 0 .57-.01.54-1.14-.06-1.59.29-2.64 1.23-3.73.37-.44 1.48-1.23 1.71-1.23s.16.16-.12.29c-.15.06-.25.14-.23.16.08.07 4.31-.14 5.79-.3 1.96-.2 6.37-.71 6.95-.8.17-.03 1.56-.14 3.1-.25 4.14-.29 4.05-.28 4.05-.56 0-.29.08-.29-2.15-.09-.93.09-2.19.2-2.8.25-.6.05-1.38.12-1.72.16-.41.04-.63.03-.63-.03 0-.11 1.22-.32 2.15-.38 1.36-.09 4.73-.37 4.93-.41.21-.04.22-.09.22-1.03v-.98l-1.48-.17c-.81-.09-1.67-.19-1.92-.22-.48-.05-.39-.08-5.34 2.15-2.23 1.01-1.6.95-9.51.88-9.18-.08-13.5-.32-16.6-.93-1.48-.29-2.05-.75-2.7-2.16-1.09-2.38-.41-6.26 1.25-7.13.19-.1 1.5-.15 5.55-.21 2.92-.05 5.12-.1 4.91-.12-.33-.03-.49-.14-1.01-.65-1.93-1.93-2.19-5.46-.6-8.07.66-1.08 1.19-1.38 2.52-1.42l.89-.03-.23-.33c-.63-.95-.35-3.38.48-4.18l.31-.29 1.51.02c.84.02 1.77.06 2.07.09l.55.05-.45-.29c-.94-.6-1.72-1.8-1.93-2.95-.06-.34-.11-.63-.12-.65-.03-.04-1.73.53-2.58.87-.82.33-.97.36-.97.22 0-.09.49-.29 2.25-.92 1.25-.46 1.17-.41 1.1-.61-.11-.29-1.32.03-3.95 1.05-2.21.85-2.77 1.07-5.31 2-1.4.52-2.86 1.05-3.25 1.16-.38.12-1.66.57-2.84 1.01-1.91.7-5.58 2.01-7.85 2.8-.63.22-.81.32-.83.49-.05.32.27.27 1.83-.3.77-.28 2.03-.72 2.8-.99s1.72-.6 2.1-.75c1.4-.53 2.06-.73 2.03-.63-.05.14-1 .51-4.97 1.93C3.22 21.14 3.29 21 6.1 21.2c2.11.15 2.7.22 2.76.32.11.17-.04.19-.87.09-.46-.06-1.58-.15-2.49-.21-2.13-.14-2.8-.33-2.8-.79 0-.26.29-.61.5-.61.45 0 2.41-.82 2.29-.96-.08-.1-.03-.2.22-.44.27-.24.3-.3.15-.3-.18 0-.18-.01-.01-.2.11-.12.29-.19.44-.18.17.01.86-.35 2.06-1.06 2.79-1.68 7.86-4.34 8.79-4.61 1.51-.45 7.98-1.11 10.09-1.04.96.04.99.05 1.27.36.33.36 1.31.32 1.11-.05-1.19-2.22-6.3-2.2-13.53.05-.77.23-1.18.41-1.21.52-.05.17-.11.21-3.77 1.99-1.35.66-2.76 1.41-3.13 1.67-.8.55-.95.53-.4-.04.5-.54 1.58-1.16 3.97-2.3 2.06-.99 2.45-1.24 1.05-.67-3.54 1.43-5.1 2.29-5.99 3.26-.4.45-.7.84-.66.87.03.04 2.46-1.13 5.38-2.59 5.74-2.86 5.53-2.78 8.28-3.35 2.07-.43 5.18-.52 7.08-.21.72.11 1.19.36.59.31-.86-.07-3.39-.03-4.22.06-.55.06-1.49.13-2.1.15-2.06.07-3.83.56-6.1 1.69-3.17 1.58-5.96 3.07-6.39 3.41-.37.3-.85.6-1.99 1.24-.34.2-.37.2-.37.03 0-.11.19-.28.51-.45.61-.34.6-.44-.02-.16-.96.43-1.37.07-.71-.63.24-.25.25-.28.07-.25-.34.06-.27-.27.13-.59 1.39-1.12 5.74-3.05 9.62-4.26 5.38-1.69 8.24-2.07 11.6-1.52.34.06.33.05-.15-.21-3.26-1.76-7.62-1.72-18.05.17-1.47.26-3.65.32-3.65.09q0-.15.48-.24c.43-.09.66-.26.33-.26-.07 0-.26-.1-.41-.22-.37-.29-.19-.42.78-.59l.71-.13-.75-.18c-.76-.19-1.13-.45-.85-.6.74-.41 7.88-1.53 9.06-1.42 1.63.16 3.88.35 5 .44 1.43.12 2.9.37 4.04.7.96.27.93.19-.08-.23-1.26-.53-2.29-.83-3.78-1.12-.73-.14-2.25-.46-3.38-.7-1.13-.25-2.96-.63-4.07-.85s-2.25-.49-2.55-.6c-.6-.24-2.44-1.26-2.53-1.4-.24-.39 5.57.37 8.85 1.16.8.19 2.24.53 3.2.75 4.74 1.07 8.2 3.21 10.52 6.49l.41.58.56-.25c3.09-1.39 4.87-1.82 7.81-1.9 2.67-.07 6.03.31 8.65.98.66.17 1.3.33 1.43.36l.22.05V8.29c-.01-3.13-.18-3.77-1.35-4.94-1.35-1.35-1.88-1.46-7.1-1.52-8.73-.09-34.55.13-35.12.3-1.79.52-3.08 1.87-3.5 3.64-.18.75-.3 36.84-.13 38.63.19 1.95 1.19 3.45 2.88 4.29.98.49.95.49 10.83.5l9.26.01zm20.27.92c2.49-.46 3.74-2.17 3.86-5.27l.06-1.53h-.34c-.9 0-6.12.43-7.92.65-4.8.59-8.77.95-10.55.95-1.01 0-1.27.12-1.77.79-.63.87-.94 2.1-.95 3.74v.77h8.54c5.25 0 8.74-.04 9.07-.1ZM30.2 43.02c0-.2.51-.28 3.14-.47a71 71 0 0 0 3.6-.35c1.74-.24 3.85-.37 3.73-.24-.11.11-4.12.57-7.32.84a94 94 0 0 0-2.77.26c-.24.04-.38.03-.38-.04Zm3.84-1.66c-.1-.27-4.74-.48-4.99-.22-.21.21-1.79.24-1.73.04.03-.08.33-.15.84-.18.7-.05.6-.06-.9-.14-1.44-.07-1.88-.06-2.9.09-.67.1-1.57.18-2.01.18-.66 0-.75.01-.5.1.17.05 2.45.12 5.35.16 2.78.04 5.46.08 5.97.09.75.02.91-.01.87-.12Zm3.96.03c.12-.08.1-.09-.07-.04-.14.04-.23.02-.23-.04s-.14-.11-.3-.11-.3-.04-.3-.1-.32-.1-.75-.1c-.61 0-.73.03-.69.14.06.15-.09.19-.91.29-.16.02.46.05 1.4.05 1.05.01 1.76-.02 1.85-.09Zm-17.23-.34c.07-.12.38-.16 1.57-.2 2.45-.07 1.92-.2-1.19-.3-1.99-.06-4.57-.26-6.33-.48-.96-.13-1.06-.12-1.25.04-.22.17-.22.17.18.28.6.16 2.75.48 4 .6.61.06 1.23.13 1.4.15.85.09 1.54.06 1.62-.09Zm16.4-.98c-1.59-2.4-1.67-4.92-.2-6.48l.24-.26-.43-.08c-.24-.04-2.48-.09-4.98-.11-2.81-.02-4.76-.08-5.1-.15-.35-.07-2.71-.13-6.61-.16l-6.06-.05-.32.28c-.56.47-1.07 1.71-1.25 3.05-.13.9.28 2.51.78 3.12.38.46 3.24.79 8.4.97 1.65.05 3.98.15 5.16.22 1.89.1 10.58.27 10.69.21.02-.02-.12-.27-.32-.56Zm2.9-.13c1.03-.42 2.55-1.02 3.38-1.34s2.43-1.04 3.58-1.6l2.07-1.03v-3.64l-.82-.06c-.46-.04-2.95-.07-5.55-.07-4.25 0-8.12-.08-12.96-.28-1.3-.06-1.67-.04-1.67.06 0 .06-.04.12-.1.12-.05 0-.1-.06-.1-.14 0-.33-14.36-.34-14.99-.02-1.13.6-1.86 3.36-1.42 5.4.03.17.06-.17.07-.75.02-2.27.52-3.86 1.35-4.27l.46-.23 6.24-.05c4.4-.04 6.48-.02 7.04.06.44.06 2.87.15 5.4.2 6.82.13 6.66.11 6.3.8-.13.25-.21.3-.54.3-.93 0-1.85 2.14-1.62 3.75.17 1.12 1.43 3.55 1.85 3.55.08 0 .99-.34 2.03-.76Zm-6.95.09c-1.96-.02-3.12-.07-3.12-.13s1.22-.1 3.35-.1c2.91 0 3.35.02 3.35.15 0 .1-.08.14-.22.13-.13-.02-1.64-.04-3.36-.05Zm-20.06-.55c-1.42-1.73-1.19-5.09.44-6.63l.31-.3 6.12.03c3.47.02 6.4.08 6.77.14.36.05 2.52.12 4.8.13 2.28.02 4.69.09 5.35.14 1.17.1 1.34.07 1.35-.2 0-.07-5.11-.21-8.7-.24-1.07-.01-2.36-.07-2.85-.13-2.2-.28-13.28-.09-13.72.24-1.39 1.04-1.37 6.75.03 7.05.16.04.31.07.33.08.02 0-.08-.14-.23-.31Zm36.04-1.79c0-.72-.04-1.19-.09-1.17-.38.13-3.8 1.85-3.8 1.91-.01.04.2.07.47.08.26 0 1.08.09 1.82.18l1.48.2c.09.01.12-.29.12-1.2Zm-.32-6.01c.04-.21-2.71-.28-2.83-.08-.03.06-.18.11-.33.12-.3.02 2.23.15 2.78.14.25-.01.36-.06.38-.18Zm-6.73-.08c-.22-.24-.67-.28-.59-.05.05.13-.1.15-1 .15-.86 0-1.06-.03-1.06-.15 0-.11.18-.15.83-.18l.82-.03-.97-.02c-.74-.01-.97.01-.96.11.02.08-.18.13-.69.15-.46.02-.73-.01-.73-.08 0-.05.1-.1.23-.1.17-.01.19-.02.07-.09-.18-.1-8.98-.37-9.07-.27-.03.03.12.06.35.06.22 0 .44.04.47.1.07.11-1.83.14-2.22.04-.4-.11-.14-.24.5-.26.34 0 .01-.04-.73-.08-2.15-.12-3.78-.18-3.35-.13.45.05.68.2.61.4-.04.09.04.13.27.13.93.02 5.68.2 6.7.26 1.05.06 1.17.05 1.17-.09 0-.28 1.28-.15 1.5.15.06.08 1.56.13 5.44.16 2.59.02 2.59.02 2.41-.18Zm2.65.06c.06-.08.28-.17.48-.19s-.37-.04-1.27-.05c-1.64-.02-1.64-.02-1.46.18.23.26 2.04.3 2.25.06Zm4.4-.8c0-.19-.13-.63-.29-.98-.81-1.82-.82-3.58-.01-5.18.4-.8.41-1.36.03-1.44-.26-.05-3.62-.17-8.58-.31-4.29-.12-4.83-.16-4.88-.34-.04-.16-.27-.18-2.23-.24-1.21-.04-3.8-.12-5.77-.18l-3.58-.12-.35.34c-1.59 1.53-2.08 3.65-1.41 6.12.15.53.27 1.08.27 1.21 0 .2.58.86.75.86.02 0-.07-.26-.2-.58-1.29-3.17-.25-6.95 2.03-7.43.86-.17 4.32-.01 4.32.21 0 .05-.91.06-2.02.03-2.36-.06-2.68-.01-3.26.57-1.43 1.43-1.8 3.99-.9 6.26l.23.59 1.1.07c2.07.12 6.3.28 11.55.43 2.89.08 6.94.2 9 .25 2.06.06 3.76.13 3.79.16.18.18.41.01.41-.3Zm-.01-3.63-.01-2.58-.24.53c-.34.75-.48 1.83-.35 2.76.09.66.46 1.86.57 1.86.02 0 .04-1.16.03-2.57ZM21.9 29.06c-.88-2.33-.53-4.62 1-6.45.89-1.05.5-1.52-.43-.51l-.32.35.35-.33c.58-.52.85-.4.29.14-1.06 1.01-1.67 3.24-1.39 5.09.12.82.48 2.1.56 2.02.02-.02 0-.16-.06-.31Zm1.54-.8c-.32-.83.2-2.9.94-3.76.44-.51.5-.31.08.28-.64.89-.8 1.35-.83 2.51-.03 1.05-.07 1.28-.19.97Zm25.66-5.69c0-.28-.87-.37-3.54-.37-1.25 0-1.44-.03-1.66-.2l-.25-.2h.93c.66 0 .92-.03.93-.12q0-.15.06 0c.06.15 1.9.17 1.95.02.02-.06.21-.13.43-.15l.4-.05-.4.19-.4.2h.78c.75.01.77 0 .77-.23 0-.29-.16-.36-.78-.36-.47 0-2.86-.17-6.22-.45-3.87-.32-9.66-.53-9.55-.35s-4.22.06-4.41-.12c-.16-.17.09-.18 1.72-.07.93.06 1.89.09 2.14.07s-.63-.11-1.95-.21-2.61-.21-2.86-.24c-.44-.05-.47-.04-.56.24-.2.55-.65.77-1.17.57-.29-.11-.17-.24.23-.24.47 0 .6-.13.27-.28-.78-.35-.88-2.53-.15-3.46.27-.35.08-.33-.32.02-.23.21-.3.33-.23.43.1.17.06.49-.09.67-.09.11-.12.11-.18-.05-.11-.3-.22.7-.17 1.55s.27 1.38.61 1.51c.58.21 10 .23 10.35.01.44-.27 3.02-.25 3.02.03 0 .07-.48.08-1.4.04-1.4-.07-2.07.06-.88.17 2.67.23 4.15.26 4.93.12.68-.12 1.13-.12.8.01-.48.18-.44.32.11.39.71.1.85.14.78.26s-1.04.08-3.46-.13c-1.33-.11-1.37-.11-1.59.1l-.23.21h2.16c2.2 0 2.48.05 2.48.41 0 .05.51.1 1.12.1.62.01 1.74.05 2.48.08 2.79.15 3 .14 3-.12Zm-11.9-.58c0-.06.06-.09.14-.06.16.06.55-.18.45-.27-.18-.19-14.09-.37-14.09-.18.01.27.3.29 4.1.37 2.17.04 4.74.11 5.7.15 2.96.11 3.7.11 3.7-.01Zm11.9-2.12v-1.13l-1.37-.12c-.76-.06-2.44-.19-3.73-.27s-3.32-.22-4.5-.3-3.07-.19-4.2-.25c-1.13-.05-3.37-.17-4.99-.25-2.72-.14-2.95-.14-3.06.01-.11.16-.12.16-.18 0-.04-.09-.17-.16-.31-.16-.23 0-.24.04-.3.88-.04.48-.09.94-.12 1.03-.04.14.09.18.88.24.51.03 2.03.15 3.38.25 1.35.11 3.71.24 5.25.3 3.3.12 9.39.53 13.13.89.09.01.12-.28.12-1.12ZM9.75 16.8c1.39-.82 5.78-3.09 7.57-3.9 1.13-.51 1.16-.57.22-.35-1.06.24-10.44 5.22-11.12 5.89-.22.22 2.25-.99 3.33-1.64Zm39.35 1.15c0-.7 1.04-.56-9.15-1.2-2.2-.14-4.71-.32-5.58-.4-1.47-.13-1.61-.13-1.9.02-.39.2-.45.19 1.68.33 2.55.16 4.09.31 4.2.41.13.13-.37.11-3.4-.12-2.41-.18-7.67-.49-7.72-.45-.01.01.01.15.06.32l.07.29 2.55.12c5.98.27 16.37.92 18.09 1.12 1.19.15 1.1.18 1.1-.44Zm-38.03-.88c7.23-3.21 9.13-3.93 13.28-4.99 1.83-.46 1.87-.48 1.11-.42-1.47.1-5.57 1.33-8.44 2.53-2.05.86-8.1 3.7-7.9 3.71.04 0 .92-.38 1.95-.83Zm38.03-.25v-.28l-2.12-.17c-1.17-.1-2.85-.22-3.73-.27-2.44-.15-4.16-.28-6.85-.49-3.92-.32-4.42-.34-4-.19.23.08.36.2.38.34.04.26.69.33 9.62.9 1.4.09 3.25.22 4.1.29 2.56.2 2.6.2 2.6-.13Zm0-.7c0-.11-1.63-.26-6.13-.57-1.97-.14-4.43-.32-5.46-.4a101 101 0 0 0-3.43-.2c-2.39-.09-1.53.11 1.52.35 2.36.18 4.12.31 10.15.71.94.06 1.72.13 1.74.15.09.08 1.61.04 1.61-.04Zm-31.47-1.31c1.61-.59 3.27-1.21 3.7-1.36 1.16-.42.85-.41-.49.01-1.7.52-6.51 2.41-6.21 2.43.05.01 1.4-.48 3-1.08Zm31.47-.2v-1.2l-.52-.1c-1.77-.36-5.12-.73-8.23-.92-3.7-.22-9.29.15-9.09.6.04.09.21.58.38 1.08.33 1 .57 1.19.88.72.15-.24.72-.22 6.43.21 1.43.11 3.66.27 4.95.35 1.85.13 4.61.36 5.13.44.04 0 .07-.53.07-1.18Zm-31.8-.99c.69-.27 1.99-.73 2.9-1.02 2.25-.7 2.26-.71 1.55-.64-1.52.15-3.82 1-6.65 2.46-2.18 1.13-2.41 1.31-.5.4.8-.38 2.01-.92 2.7-1.2Zm13.46 1.77c.43-.11.54-.25.35-.44-.05-.06-.31-.62-.56-1.25-.26-.63-.49-1.18-.51-1.22-.02-.03-.28 0-.56.08-.31.08-.56.1-.62.04-.05-.05.09-.13.35-.2.66-.17.71-.19.66-.33s-.33-.12-1.04.08l-.53.16v.67c0 1.72 1.06 2.76 2.46 2.41Zm18.34-2.48c0-.12-.09-.21-.25-.25-.14-.04-.25-.11-.25-.17 0-.07.1-.09.25-.05.22.06.25.03.25-.18 0-.23-.07-.26-1.07-.5-6.19-1.46-10.01-1.5-15.33-.17-1.82.46-1.9.49-1.78.77.1.21.16.24.37.19 3.76-.95 7.91-1.11 11.76-.46 1.82.31 2.65.4 1.45.15-.86-.17-3-.51-3.72-.59-.32-.04-.6-.11-.63-.16-.12-.19 1.39-.08 3.12.22.98.16 2.23.38 2.77.47.96.16 1.42.41.79.43-.15 0 .18.09.74.19s1.1.2 1.2.23c.31.08.33.07.33-.12Zm-17.92-1.45c3.65-1.84 10.4-2.04 16.75-.48 1.08.27 1.17.28 1.17.11 0-.5-5.25-1.47-9-1.65-2.89-.14-5.81.46-8.5 1.74-.58.28-1.01.51-.97.51.04.01.29-.1.55-.23Zm17.92.16c0-.17-3.07-.84-5.34-1.17-3.88-.56-8.44-.28-10.57.65l-.24.11.25-.06c5.1-1.1 7.83-1.1 13.25 0 .94.19 1.84.39 2 .44.39.12.65.13.65.03Zm-13.4-.35c0-.29 5.72-.49 6.64-.24.53.15.19.17-3 .21-1.75.02-3.29.07-3.41.11-.17.05-.23.03-.23-.08Zm-6.51-1.09c-1.31-1.68-3.68-3.45-6.1-4.53-.95-.43-1.26-.52-6.19-1.7-2.17-.52-4.63-.95-6.75-1.19-.77-.09-1.53-.18-1.69-.2-.38-.04-.21.09.83.62.9.47 1.46.64 3.01.92.63.11 1.65.32 2.25.45.61.13 2.44.51 4.08.85 1.71.35 3.41.76 4 .96 1.73.61 2.96 1.23 2.45 1.24-.2.01.14.18 1.1.56 1.16.47 1.95 1 2.65 1.79.66.74.85.86.36.23ZM10.45 9.2c8.62-1.57 13.65-1.57 16.78.01.2.11.37.17.37.14 0-.21-2.37-1.08-3.65-1.35-2.63-.54-8.3-.67-11.4-.26-2.34.31-6.21 1.02-6.38 1.16-.04.04.19.17.53.29.61.23.74.35.42.45-.53.16 1.52-.11 3.33-.44Zm-1.4-1.19.4-.09-.38-.01c-.23-.01-.36-.05-.32-.11.08-.13.92-.13.97 0 .02.06.5.02 1.23-.1 2.43-.38 8.38-.59 11-.38l.9.07-.8-.19c-.44-.1-1.36-.24-2.05-.3s-2.19-.2-3.35-.32c-2.74-.26-4.28-.14-8.29.68-2.51.5-2.44.48-1.66.67.72.17 1.73.2 2.35.08ZM1.37 1.73C1.26 1.62 1.29 0 1.4 0c.06 0 .1.3.1.7 0 .8 0 .81.48.39S3.7.09 4.25.02c.68-.07.54.11-.24.31-.74.19-1.67.7-2.16 1.18-.33.31-.38.33-.48.22Zm47.35-.7c-.29-.2-.96-.51-1.5-.69-.92-.32-.95-.33-.52-.33.51 0 1.62.43 2.15.83.42.33.45.32.45-.04 0-.28.03-.3.35-.3.27 0 .37-.06.49-.27.13-.25.15-.26.22-.09.11.27-.08.5-.49.6-.32.08-.37.14-.37.38 0 .36-.13.35-.78-.09Z"/></svg>