<svg xmlns="http://www.w3.org/2000/svg" width="51" height="51" viewBox="0 0 51 51"><path fill="#fff" fill-rule="evenodd" stroke="#fff" stroke-width=".433" d="M8.87 42.33c-.04-.03-.07-2.04-.07-4.45V33.5h1.1v7.7h3.74c2.06 0 3.81.03 3.9.06.16.06.22.66.1.98-.06.17-8.61.26-8.77.09Zm24.7 0c-.15-.14-.07-1.01.09-1.07.09-.03 1.84-.06 3.9-.06h3.74l.02-3.82.03-3.83.53-.03.52-.03-.02 4.43-.03 4.43-4.36.03c-2.39.01-4.39-.01-4.42-.05ZM17.4 41.8v-.3H9.73l-.07-.92c-.03-.5-.06-2.23-.06-3.85V33.8h-.57l-.02 3.7c-.01 2.03.01 3.9.04 4.15l.07.45h8.28zm24.7-3.85V33.8h-.5v3.54c0 1.94-.03 3.68-.06 3.85l-.06.31H33.8v.6h8.3zm-29.05-.77c-.03-.13-.04-2.52-.03-5.33l.03-5.1h2.3l.03 5.24c.02 4.13 0 5.26-.1 5.33-.07.04-.59.08-1.15.08-.98 0-1.03-.01-1.08-.22Zm3.17.14c-.1-.07-.12-1.2-.1-5.33l.03-5.24h2.29L18.41 32c-.02 3.85-.06 5.27-.14 5.32-.16.1-1.89.1-2.05 0Zm4.13-.05c-.03-.06-.04-2.46-.03-5.32l.03-5.2h4.3l.03 5.26.02 5.27-.22.06c-.47.12-4.08.07-4.13-.07Zm5.2 0c-.03-.06-.04-2.46-.03-5.32l.03-5.2h2.2l.03 5.26.02 5.26-.37.07c-.68.11-1.83.07-1.88-.07Zm4.2 0c-.03-.06-.04-2.46-.03-5.32l.03-5.2 1.13-.03 1.12-.03v10.58l-.46.07c-.8.11-1.74.07-1.79-.07Zm3.1 0c-.03-.06-.04-2.46-.03-5.32l.03-5.2h2.2l.03 5.26.02 5.26-.46.07c-.8.11-1.74.07-1.79-.07Zm3.17.05c-.1-.07-.12-1.2-.1-5.33l.03-5.24h2.2l.03 5.24c.02 4.13 0 5.26-.1 5.33-.07.04-.53.08-1.03.08s-.96-.04-1.03-.08ZM15.1 32.05V27h-1.8v10.1h1.8zm3.1 0V27h-1.8v10.1h1.8zm6.2 0V27h-3.8v10.1h3.8zm3.1 0V27h-1.7v10.1h1.7zm4.2 0V27H30v10.1h1.7zm3.1 0V27h-1.7v10.1h1.7zm3.1 0V27h-1.7v10.1h1.7zM8.84 26.06c-.03-.08-.04-.27-.02-.43l.03-.28h33.5v.8l-16.73.03c-14.36.02-16.73 0-16.78-.12Zm33.26-.31c0-.13-.3-.15-2.12-.15-6.65-.01-26.58-.02-28.55-.01-2 .01-2.33.03-2.33.16s1.9.15 16.5.15 16.5-.02 16.5-.15Zm-29.08-6.22.03-5.18 1.18-.03 1.17-.03-.02 5.18-.03 5.18-1.18.03-1.17.03zm3.1 0 .03-5.18 1.13-.03 1.12-.03V24.7h-2.3zm4.2 0 .03-5.18 2.18-.03 2.17-.02v10.4h-4.4zm5.2 0 .03-5.18 1.13-.03 1.12-.03-.02 5.18-.03 5.18-1.13.03-1.12.03zm4.23 5.05c-.03-.07-.04-2.4-.03-5.18l.03-5.05 1.13-.03 1.12-.03V24.7h-1.1c-.79 0-1.12-.04-1.15-.12Zm3.11-5.05.02-5.18 1.11-.03 1.11-.03-.02 5.18-.03 5.18-1.1.03-1.11.03zm3.04-.03v-5.2h2.3v10.4h-2.3zm-20.8-.01V14.6h-1.8v9.85l.9-.03.9-.03zm3.08.04.02-4.93h-1.8v4.88c0 2.69.02 4.91.04 4.93.03.02.42.04.88.04h.83zm6.22-.04V14.6h-3.8v9.8l1.83.02c1 .02 1.85.02 1.9 0 .04-.02.07-2.23.07-4.93Zm3.1.01v-4.9h-1.7v9.8h1.7zm4.22 2.88c.01-1.12.03-2.28.04-2.58s0-1.6-.03-2.87l-.06-2.33H30v9.8h1.7zm3.08-2.88v-4.9h-1.7v9.8h1.7zm3.1 0v-4.9h-1.7v9.8h1.7zM8.8 13.2V8.8l4.43.02 4.42.03v1l-3-.04c-1.65-.02-3.39 0-3.87.04l-.88.07v7.68H8.8zm32.5.56V9.92l-.42-.07c-.24-.04-1.98-.06-3.88-.04l-3.45.04v-1l4.43-.03 4.42-.02v8.8h-1.1zm-31.68-.28.03-3.83 3.88-.03 3.87-.02v-.5H9.05l.03 4.1.02 4.1h.5zm32.48-.28V9.1h-8.3v.5h7.8v7.7h.5z"/></svg>