<svg xmlns="http://www.w3.org/2000/svg" width="51" height="51" viewBox="0 0 51 51"><path fill="#fff" fill-rule="evenodd" stroke="#fff" stroke-width=".746" d="M23.95 47.3C10.46 46.23 1.27 33.43 4.5 20.21c2.04-8.36 9.23-14.88 17.8-16.15 15.18-2.25 27.6 10.95 24.55 26.07-2.14 10.57-12.08 18.03-22.9 17.17Zm4.32-.35c7.45-.98 14-5.76 16.89-12.34 5.68-12.93-1.58-27.26-15.28-30.17-1.65-.35-5.25-.45-7.14-.2C10.38 5.87 2.04 17.63 4.51 29.95c2.19 10.87 12.76 18.44 23.76 17Zm-13.11-11.8c-.61-.21-1.08-.66-1.41-1.3l-.3-.6.03-7.3c.02-7.9.02-7.88.58-8.53.65-.76 1.08-.87 3.53-.87h2.14l1.09-1.15 1.09-1.15h3.52c1.93 0 3.63.03 3.77.07s.69.56 1.24 1.18l.99 1.1 2.06-.02c2.35-.02 2.67.04 3.36.64.84.74.8.33.8 8.78v7.45l-.22.41c-.27.5-.75.97-1.22 1.21-.49.24-20.38.32-21.05.08Zm20.89-.28c.53-.24.93-.63 1.16-1.12.26-.56.29-15.01.04-15.63-.47-1.11-.9-1.26-3.66-1.3l-2.27-.04-1.07-1.14-1.07-1.14h-7.16l-1.07 1.12-1.06 1.13-2.27.05c-2.69.06-3.02.16-3.57 1.05l-.3.48-.03 7.46-.02 7.45.26.53c.29.59.88 1.07 1.51 1.22.82.2 20.13.08 20.58-.12Zm-11.3-3.08c-4.94-.75-6.99-6.46-3.56-9.9 3.83-3.84 10.5-1.29 10.51 4.02 0 3.57-3.37 6.42-6.95 5.88Zm2.77-.52c4.84-1.77 5.36-8.11.85-10.32-4.69-2.29-9.89 1.8-8.4 6.6.95 3.05 4.55 4.82 7.55 3.72ZM24.8 29.7c-3.01-.63-4.16-4.45-1.94-6.49 2.44-2.26 6.45-.78 6.62 2.44a3.884 3.884 0 0 1-4.68 4.05Zm2.32-.52c2.26-1.04 2.88-3.79 1.27-5.62-.97-1.1-3.06-1.49-4.41-.83-2.93 1.44-2.67 5.49.43 6.61.68.25 1.98.17 2.71-.16Z"/></svg>