<svg xmlns="http://www.w3.org/2000/svg" width="51" height="51" viewBox="0 0 51 51"><path fill="#fff" fill-rule="evenodd" stroke="#fff" stroke-width=".269" d="M24.84 48.97c-1-.77-1-.77.75-.77 1.16 0 1.49.03 1.45.13s-1.08.92-1.4 1.1c-.07.04-.42-.17-.8-.46Zm-3.39-.68C19.6 47.97 17 47.16 17 46.91c0-.21.21-.18 1.38.19 1.28.41 3.15.84 4.17.95.8.09.95.14.95.31 0 .19-.67.17-2.05-.07Zm6.35.07c0-.17.15-.22.95-.31 1.44-.16 3.52-.72 5.39-1.46 1.06-.42 1.26-.46 1.26-.25 0 .14-.61.44-1.95.96-2.06.79-5.65 1.46-5.65 1.06Zm-4.55-.66c-1.81-.21-3.93-.72-5.74-1.39-.47-.17-.86-.31-.87-.31s-.12.26-.24.58c-.28.69-.36.8-.51.65-.09-.09-.05-.28.16-.78.16-.36.26-.67.24-.68-.02-.02-.48-.27-1.01-.55-4.21-2.22-8.3-6.49-9.69-10.09-.08-.21-.16-.22-1.05-.25-.67-.02-.99-.07-1.02-.15-.03-.1 1.7-.13 8.41-.13h8.45l.57-.47c.64-.53.74-.7 1.62-2.78l.63-1.5-.38-.3c-.94-.75-1.57-1.66-1.86-2.65l-.16-.55-9.24.04-9.23.03-.17-.23c-.09-.13-.16-.26-.16-.3 0-.03 4.35-.09 9.67-.13s9.71-.1 9.76-.15c.1-.1-5.73-4.48-7.08-5.31-1.91-1.19-2.04-1.29-2.11-1.57-.03-.16-.17-.49-.3-.74-1.44-2.76 1.41-5.75 4.24-4.45 2.26 1.04 2.38 4.46.19 5.57-.45.23-.43.27.32.57.7.29.6.32 1.54-.45 1.22-.99 2.39-1.72 3.62-2.25.61-.26 1.1-.53 1.1-.6 0-.95-.2-3.47-.39-4.91-.14-1-.29-2.25-.35-2.77-.13-1.16-.51-4.06-.57-4.38-.04-.18-.09-.21-.32-.16C14.8 5.59 9.47 9.58 6.41 15.32l-.52.96.88.48c.48.26 1 .56 1.16.66.15.11.27.16.27.11 0-.18 1.25-2.32 1.82-3.11 2.09-2.9 5.8-5.64 9.09-6.72 1.16-.38 1.39-.6 1.39-1.31 0-1.2-.4-1.32-2.18-.64a22.05 22.05 0 0 0-10.47 8.43c-.27.41-.27.43-.1.62.16.17.16.2.02.2-.08 0-.17-.06-.19-.12-.03-.07-.2.17-.39.52-.33.63-.57.8-.51.37.17-1.32 3.71-5.56 6.18-7.39 2.45-1.81 5.88-3.45 7.07-3.36.75.05 1.17 1.26.73 2.11l-.15.27h.42c.61 0 .36.14-.76.44C14.74 9.27 9.66 13.96 7.8 19.25c-.65 1.87-.94 3.25-.66 3.25.07 0 .19.06.25.14.18.21-.03.23-2.61.18-2.6-.05-2.98-.14-1.56-.37.34-.05.38-.09.43-.43.09-.48.52-2.32.6-2.53.05-.13-.08-.22-.62-.41-.96-.36-.93-.46.34-1.13.99-.52 1.64-1.17 1.4-1.41-.01-.01-.37-.18-.8-.38-.42-.19-.77-.4-.77-.46 0-.23.29-.19 1.02.14l.76.34.35-.71C8.78 9.72 15.34 4.72 21.17 3.84c.26-.04.53-.13.58-.19.16-.2.76-.27.99-.12.16.1.38.12.91.06 10.28-1.16 20.64 6.11 23.3 16.34 3.87 14.92-8.57 29.49-23.7 27.77Zm4.35-.3c2.4-.22 4.85-.88 6.86-1.85l1.11-.54-.21-.46c-.12-.25-.25-.43-.31-.41-1.83.82-4 1.56-4.56 1.56-.5 0-.32-.16.39-.35 8.5-2.25 14.02-9.03 15.16-18.62l.07-.53h-2.79l-.07.53c-.67 5.4-2.74 9.23-6.9 12.83-1.02.89-3.12 2.14-3.29 1.97-.14-.14-.03-.24.56-.54.35-.17 1-.56 1.45-.85l.83-.53-.53-.8c-.28-.44-.64-1-.79-1.25l-.28-.47-.27.3c-.16.17-.53.43-.83.59l-.55.28.08.55c.47 3.04-1.23 6.18-4.08 7.54-3.41 1.62-7.69.22-9.45-3.07-.37-.69-.37-.69-.32-.19.05.54-.35 1-.95 1.08-.72.1-.49.26 1.05.78 1.74.58 1.66.55 1.53.68-.07.07-.56-.04-1.62-.39-1.48-.48-1.51-.48-1.66-.29-.08.11-.19.19-.24.17-.06-.01-.08.02-.04.08s.01.18-.06.26c-.18.22-.07.28 1.39.78 3.11 1.06 6.14 1.44 9.32 1.16Zm-.17-1.04c.26-.09.68-.26.92-.36l.45-.19-.22-.45c-.12-.25-.19-.49-.15-.52.1-.1.33.13.47.46.15.36.17.36.55.06l.29-.24-.27-.41c-.46-.69-.28-.89.2-.21.33.47.33.47.63.15l.23-.25-.32-.4c-.45-.56-.34-.72.18-.25.42.38.44.39.58.2.37-.5.36-.52-.19-.89-.65-.44-.43-.63.27-.22l.44.26.2-.38.2-.39-.5-.17c-.27-.1-.53-.24-.57-.3-.04-.07-.55-.24-1.14-.38l-1.07-.25-.3.46c-.22.35-.27.49-.18.59.11.14.08.18-.35.43a.37.37 0 0 0-.18.29c0 .37-.34.23-.52-.21-.21-.5-.2-.53.41-.84.42-.21.9-.7.79-.81-.21-.21-.64-.13-.8.15-.56 1.01-2.28 1.26-3.3.48-1.85-1.41-.92-4.26 1.4-4.27 1.1 0 2.32.99 2.32 1.9 0 .58.37.78.42.22.04-.38.11-.31.23.22.03.15.08.27.1.25.06-.07-.21-1.24-.34-1.44-.11-.18-.11-.18-.06.05.05.22.03.21-.16-.08-.18-.28-.2-.35-.08-.43.11-.08 0-.23-.5-.69-.51-.48-.59-.6-.42-.6.27 0 1.26.94 1.16 1.1-.06.09.01.1.24.05.52-.11 1.14 1.78.62 1.92-.3.08-.26.19.08.26.16.03.41.09.56.13l.28.07-.05-.87c-.29-4.54-6.43-5.71-8.36-1.59-.97 2.08.43 4.97 2.76 5.7l.55.17.27-.32c.33-.4.37-.4.71 0l.27.33.71-.23c.82-.27 1.63-.93 2.02-1.66.2-.38.49-.62.49-.41 0 .7-1.38 2.01-2.48 2.36-.37.11-.56.22-.53.31.11.39.05.53-.27.63-.28.08-.32.14-.32.42 0 .26-.04.33-.2.33s-.2-.07-.2-.34c0-.31-.03-.34-.36-.4-.37-.08-.54-.3-.35-.49s.13-.23-.66-.52c-2.35-.84-3.66-3.76-2.66-5.88 2.14-4.52 8.76-3.17 8.86 1.8.01.74.07.82.55.83.18 0 .16-1.44-.04-2.11-1.4-4.72-7.63-5.37-9.78-1.02-1.22 2.47-.52 5.25 1.7 6.72.91.6.88.07-.05-.76-.59-.54-.94-1.03-.72-1.03.04 0 .29.23.56.51.28.27.65.59.83.7.36.23.45.75.16 1.03-.21.22-.25.21-.84-.19-.29-.2-.53-.34-.54-.33-.01.02-.16.27-.33.55l-.32.52.29.21c.36.26.33.27.64-.2.43-.66.63-.48.26.25-.11.21-.19.39-.17.41.81.65 3.74.95 5 .5Zm-13.69-.38c-.17-.25-.52-1.28-.45-1.32.11-.07 1.91.97 1.91 1.1 0 .07-.23.15-.57.19-.31.04-.62.09-.69.12-.06.02-.16-.02-.2-.09Zm22.53-.07c-.56-.09-.49-.21.49-.78 1.25-.73 1.25-.73.85.32-.21.55-.41.62-1.34.46Zm-19.61-.99.21-.48-.86-.44c-2.81-1.44-5.78-4.01-7.43-6.45-.67-.99-.83-1.19-.73-.93.05.11-.05.23-.34.4l-.41.24.36.58.37.58.38-.38c.34-.33.39-.35.45-.19.07.18-.13.41-.55.64-.2.12.35.83 1.73 2.28 1.55 1.63 3.38 3 5.46 4.12 1.16.62 1.11.62 1.36.03Zm5.19-.78c.1-.04-.03-.25-.43-.73l-.56-.67-.5.34c-.28.19-.53.35-.55.37-.01.02.09.19.23.38l.26.34.39-.38c.39-.39.61-.49.61-.28 0 .06-.17.29-.38.5l-.39.38.3.3.3.3.29-.4c.16-.22.35-.42.43-.45Zm5.93.48c-.34-.38-.31-.69.09-.98.65-.48 1.14-.97 1.51-1.54.43-.66.59-.45.18.24-.24.42-1.4 1.56-1.58 1.56-.11 0-.1.48.02.55.13.08.6-.18 1.27-.71l.58-.47-.6.62c-.84.87-1.2 1.05-1.47.73Zm8.64-.16.48-.28-.21-.39-.2-.4-.52.3c-.29.16-.51.32-.49.35.01.03.1.21.19.41.09.19.19.33.22.31s.27-.15.53-.3Zm-10.32.1c0-.15-.54-.95-.61-.9-.09.05-.49.78-.49.89 0 .03.25.05.55.05s.55-.02.55-.04Zm-9-1.03c.2-.78.51-1.53.64-1.53.29 0 .55-.92.6-2.15.07-1.8.44-2.92 1.42-4.33l.43-.62h-6.44c-3.55 0-6.45.02-6.45.05 0 .11 1.51 2.44 1.98 3.07 1.53 2.04 4.21 4.28 6.76 5.64.92.49.89.5 1.06-.13Zm15.39.28c-.72-.72-.03-1.87.95-1.6.45.12.66.43.66.94 0 .87-.99 1.28-1.61.66Zm5.24-.1.46-.3-.22-.4c-.12-.22-.18-.43-.13-.48.1-.11.57.48.51.65s.17.01 1.04-.73l.67-.58-.35-.33c-.32-.29-.34-.33-.18-.4.13-.05.26.02.45.26.25.29.29.31.41.16s.11-.2-.12-.44c-.3-.31-.35-.52-.13-.52.16 0 .58.53.51.64-.03.03.18-.16.47-.43l.51-.49-.34-.3c-.28-.25-.32-.33-.21-.44s.18-.08.42.19c.26.29.29.3.43.15.12-.15.1-.21-.23-.49l-.37-.32-.62.69c-.71.79-2.21 2.12-3.28 2.89l-.71.51.21.4c.26.48.22.47.8.11ZM19.26 40.1c.83-1.81 2.06-4.6 2.89-6.51.35-.81 1.02-2.35 1.5-3.43.56-1.28.84-2.03.8-2.14-.08-.2-.03-.31-.71 1.48-.42 1.12-1.97 4.63-3.99 9.05-.41.88-.86 1.89-1 2.25-.15.36-.42.95-.61 1.32-.32.63-.75 1.67-.73 1.78 0 .08 1.12-2.21 1.85-3.8Zm14.34 3.5c.4-.4.15-1.1-.4-1.1-.42 0-.64.22-.64.65 0 .61.61.88 1.04.45Zm.6-.41c0-.3-.07-.67-.15-.83-.2-.38-.19-.49.04-.34.4.25.58 1.32.26 1.58-.13.11-.15.05-.15-.41Zm-23.9.12c-.21-.39.19-.73.6-.51.21.11.25.26.14.54-.09.23-.61.21-.74-.03Zm29.9.04c-.16-.19-.04-.52.22-.61.3-.09.62.29.48.57-.13.22-.52.25-.7.04Zm-16.7-.31c-.23-.19-.3-.34-.29-.53.02-.18-.11-.46-.44-.9-.43-.58-.6-1.01-.39-1.01.05 0 .16.16.25.35.27.57.86 1.15 1.17 1.15.38 0 .63.3.54.66-.14.61-.36.68-.84.28Zm-3.36-.2c.25-.14.51-.22.57-.18.08.05.1.02.06-.07-.42-.97-.59-1.48-.64-1.92-.09-.76-.38-.9-.66-.32-.22.46-.23.45.18.45.53 0 .45.26-.11.35-.5.07-.59.19-.5.69l.06.33.46-.23c.42-.21.74-.23.74-.04 0 .08-.78.4-.98.4-.17 0-.15.1.08.48.24.38.17.38.74.06Zm14.84.15c-.28-.16-.22-.31.1-.25.42.1 2.5-1.4 3.54-2.55.57-.61.76-.71.63-.3-.08.25-1.52 1.61-1.71 1.61-.07 0-.18.08-.23.18-.13.24-1.79 1.42-2 1.42-.09 0-.24-.05-.33-.11Zm-.13-.69c.05-.15.04-.2-.04-.16-.07.05-.11-.02-.11-.19 0-.3.16-.65.3-.65.05 0 .5-.31 1-.69.5-.39 1.01-.73 1.13-.77.12-.03.43-.26.69-.5.49-.46.66-.52.86-.32.28.28.05.88-.44 1.11-.19.09-.34.21-.34.26s-.08.12-.19.16c-.1.03-.47.32-.82.65-.4.37-.79.64-1.04.72-.22.06-.55.22-.74.36l-.33.25zm-25.93-.26c-.25-.45.28-.84.6-.44.13.17.15.26.08.41-.13.23-.56.25-.68.03Zm32.72.08c-.37-.25-.15-.76.31-.7.22.02.31.09.33.26.06.4-.32.66-.64.44Zm-9.45-.78c.01-.06-.18-.15-.42-.2l-.43-.1-.11.33c-.1.33-.09.34.31.52l.41.18.12-.31c.06-.17.12-.36.12-.42Zm3.75-.04c.05 0 .06.07.02.15-.12.31.14.13.43-.31.41-.61.39-.78-.05-.31-.19.21-.39.35-.45.32-.12-.08-.81.51-.91.77-.05.12.09.05.4-.22.27-.22.52-.4.56-.4Zm-9.71.59c.2-.05.56-.28.8-.51l.42-.4-.39-.14c-.36-.13-.4-.12-.68.11-.87.73-2.18.06-2.18-1.11 0-1.53 2.11-1.87 2.7-.44.07.16.18.3.24.3s.22.03.35.07c.23.06.24.04.17-.27-.33-1.67-2.28-2.3-3.56-1.14-1.62 1.47-.02 4.13 2.13 3.53Zm4.71-.66c.09-.24.02-.27-2.01-.77-2.14-.54-2.03-.53-2.03-.22 0 .39 3.91 1.35 4.04.99Zm-17.32-.33c-1.79-.72-1.91-3.33-.2-4.21 2.35-1.21 4.53 1.91 2.61 3.73-.54.52-1.72.75-2.41.48Zm12.33-.04c1.1-.46.81-2.06-.38-2.06-1.25 0-1.59 1.74-.4 2.1.39.12.4.12.78-.04Zm6.37-.33c.06-.47.1-.43-.55-.52l-.55-.07-.1.37-.1.38.42.1c.77.17.83.15.88-.26Zm-24.56.14c-.26-.19-.18-.61.13-.65.41-.06.63.34.35.62-.19.19-.25.2-.48.03Zm17.1-.18c-.14-.17-.26-.42-.26-.55 0-1.04 1.41-1.39 1.8-.45.4.97-.87 1.8-1.54 1Zm18.06.09c-.18-.18-.14-.45.09-.62.27-.18.47-.11.55.2.11.42-.34.72-.64.42Zm-27.54-.45c1.24-.93.62-3.04-.9-3.03-1.82.01-2.28 2.54-.58 3.23.3.13 1.21.01 1.48-.2Zm6.59.11c-.12-.12-.08-.78.09-1.35.2-.68.28-.77.61-.71.18.03.24.01.19-.07-.15-.23.89-1.21 1.27-1.21.2.01.2.03-.08.26-.9.76-1.02.91-1.02 1.24 0 .19-.05.36-.11.38-.07.02-.12.12-.12.22 0 .09-.07.23-.15.3-.2.17-.2.44.01.36.12-.05.15.01.12.27-.03.32-.59.53-.81.31Zm-8.17-.67c-.63-.31-.64-1.57-.02-1.57.1 0 .23-.09.3-.2s.21-.2.32-.2.28.09.37.2c.1.11.27.2.39.2.65 0 .68 1.41.04 1.55-.16.04-.32.11-.35.16-.1.15-.58.09-1.05-.14Zm18.56-.1c-.03-.12-.06-.3-.06-.4 0-.15-.07-.16-.55-.11-.45.06-.55.04-.55-.08 0-.17.29-.28.73-.28.3 0 .35-.18.18-.63-.09-.24-.11-.25-.48-.11-.49.17-.73.17-.73 0 0-.08.2-.19.48-.26.26-.07.48-.14.5-.15.07-.05-.3-.75-.41-.75-.06 0-.27.09-.45.2s-.39.2-.47.2c-.11 0-.09.12.1.52.23.51.38 1.05.49 1.78l.06.35.61-.03c.57-.04.6-.05.55-.25Zm10.29-.38.39-.51-.35-.29c-.43-.36-.38-.37-.82.16l-.37.44.37.35.38.36c.01 0 .18-.23.4-.51Zm-6.26.18c.12-.15-1.25-2.45-1.89-3.18-.45-.52-.7-.91-.7-1.11 0-.4.23-.24.68.47l.48.76.76-.84c1.49-1.63 2.82-3.77 2.36-3.77-.51 0-.53-.11-.25-1.12.33-1.19.55-2.39.64-3.44l.06-.84h-.51l-.04 1.16c-.03 1.25-.12 1.44-.65 1.44-.33 0-.29.26.07.39.61.21.16 1.91-.51 1.91-.39 0-.81-.18-.76-.33.04-.12.2-.13.7-.03.38.08.34-.12-.06-.22-.38-.1-.49-.67-.23-1.12.28-.47.37-.74.41-1.24.02-.28.08-.84.12-1.23.08-.71.08-.73-.14-.73-.21 0-.23.05-.23.58-.02 2.02-.96 4.31-2.53 6.12-.36.41-.63.78-.61.82.16.26-.2.01-.5-.33l-.35-.42.52-.57c1.34-1.45 2.27-3.44 2.45-5.28.05-.43.12-.67.21-.7.12-.04.13.08.07.7-.17 1.91-1.09 3.97-2.38 5.34-.42.44-.46.53-.35.68.12.17.18.13.71-.45 1.47-1.62 2.46-3.98 2.46-5.85v-.64h-1.26l-.12.88c-.25 1.86-.95 3.3-2.45 5.04-.43.51-.58.75-.51.84.47.7 2.02 3.14 2.94 4.62 1.16 1.87 1.2 1.91 1.39 1.69Zm2.88-.25c-.49-.51-.49-.54.42-1.52l.79-.85.31.29c.17.17.31.25.31.19s-.07-.16-.15-.23c-.16-.13-.2-.3-.07-.3.04.01.22.14.41.3l.34.29-.28.42c-.34.47-1.53 1.79-1.64 1.79-.04 0-.24-.17-.44-.38Zm1.21-.8.63-.77-.22-.17c-.33-.28-.43-.23-1.08.51l-.61.69.21.26c.29.37.37.34 1.07-.52Zm-3.28.18.41-.41-.56-.63c-.3-.35-.55-.66-.55-.7 0-.14.3-.05.42.13.07.1.3.37.51.6l.37.41.38-.41c.54-.6 1.32-1.59 1.32-1.67 0-.04-.18-.2-.4-.35-.22-.16-.4-.35-.4-.43 0-.21.08-.18.56.21l.43.35.29-.42c1.58-2.32 2.62-5.22 2.98-8.3.06-.57.06-.58-.19-.58-.24 0-.26.03-.32.78-.08 1.02-.08 1.03-.2 1.02-.06 0-.09-.35-.07-.9l.04-.9h-.62v.89c0 .88 0 .89.26.95.25.07.26.1.21.52-.06.6-.07.61-.92.39-.86-.21-.82-.12-.62-1.49.15-1.02.4-1.2.35-.25-.03.6-.02.64.2.67.18.03.22-.01.22-.21 0-.13.03-.52.06-.86l.07-.61h-1.3l-.12.98c-.36 2.95-1.84 6.04-3.98 8.32-.47.5-.83.96-.8 1.03s.33.55.66 1.05c.34.51.64.99.67 1.07.09.23.21.18.64-.25Zm6.34-.56c.25-.39.27-.48.14-.55a4 4 0 0 1-.38-.27l-.24-.19-.28.38c-.35.48-.35.47.05.8.41.36.37.37.71-.17Zm-9.99-.42c.33-.19.62-.37.63-.38.05-.03-.85-1.5-1.78-2.9l-.74-1.12-.69.49c-.63.44-1.08.61-1.07.42 0-.05.31-.28.68-.53 2.33-1.56 4.22-4.64 4.22-6.9v-.3h-1.5v.53c0 .48-.22 1.56-.36 1.79-.18.28-.24-.14-.1-.68.25-.98.25-1.58-.01-1.62-.19-.03-.21.03-.25.8-.04.79-.2 1.34-.37 1.24-.04-.03-.02-.38.05-.78.2-1.12.19-1.28-.11-1.28-.22 0-.25.04-.25.38 0 .9-.4 2.32-.65 2.32-.1 0-.08-.15.07-.62.11-.35.22-.96.25-1.35l.06-.73h-.27c-.22 0-.26.04-.26.29 0 .33-.37 1.61-.51 1.75-.2.22-.21-.08 0-.76.27-.93.28-1.28.02-1.28-.14 0-.22.12-.3.47-.68 2.66-3.27 4.21-6.02 3.57-.23-.05-.28 0-.63.78-.21.46-.53 1.15-.7 1.53l-.33.7.82-.27c3.55-1.19 7.5.75 8.85 4.34.28.75.17.74 1.25.1Zm10.95.47c0-.3 1.14-2.18 1.26-2.07.1.11.22 1.52.13 1.62-.21.24-1.39.62-1.39.45Zm-38.8-.2c-.72-.26-.71-.24-.62-1.09.1-1 .22-.97.88.2.7 1.26.71 1.23-.26.89Zm4.02-.24c-.38-.32-.46-.65-.28-1.1.29-.67 1.17-.79 1.6-.22.67.9-.47 2.04-1.32 1.32Zm10.23-.15c.17-.33.14-.44-.15-.6-.16-.09-.22-.05-.35.19-.25.49-.2.62.27.7.04 0 .15-.13.23-.29Zm-9.17-.12c.52-.52-.25-1.35-.86-.92-.49.34-.24 1.04.38 1.04.2 0 .41-.05.48-.12Zm13.76-.34c-.16-.64 1.2-.98 2.09-.52.45.23.18.73-.38.71-.27-.01-.54-.02-.6-.02s-.31.02-.57.05c-.45.06-.47.05-.54-.22Zm12.73-.38c-.68-.77-.68-.71-.13-1.25.49-.49.4-.51 1.23.25l.46.41-.18.26c-.24.36-.29.35-.84-.25-.29-.31-.52-.49-.59-.44-.22.13-.12.37.38.93.43.5.54.74.32.73-.04-.01-.33-.29-.65-.64Zm6.98.14c.14-.27.25-.54.25-.59 0-.1-.59-.46-.65-.39-.12.15-.55.9-.55.97s.57.5.67.51c.02 0 .14-.22.28-.5Zm-13.15-.15c.25-.08.25-.19-.02-.55l-.21-.29-.36.3c-.19.16-.41.29-.48.29-.24 0-.13-.28.23-.57l.36-.29-.25-.3-.26-.29-.4.4c-.58.56-.84.34-.27-.24l.37-.38-.32-.21-.33-.21-.24.32c-.13.18-.27.39-.32.47-.07.12-.11.12-.21.03-.1-.1-.07-.22.19-.58l.32-.46-.46-.19c-.47-.2-.62-.24-.52-.14.11.1-.23.94-.38.94-.19 0-.17-.17.05-.67l.19-.41-.43-.11c-.52-.13-.58-.13-.51-.03.1.16-.16 1.02-.3 1.02-.1 0-.13-.07-.1-.22.03-.13.08-.4.11-.6l.06-.38h-.9l-.03.52c-.04.74-.28.77-.28.03v-.56l-.42.03-.43.03.03.58c.03.35 0 .57-.06.57-.16 0-.21-.12-.24-.63-.02-.26-.05-.47-.07-.47-.15 0-.81.25-.81.3 0 .04.07.27.15.51.19.53.04.76-.19.31-.09-.17-.16-.38-.16-.46 0-.22-.14-.27-.49-.15-.37.13-.38.27-.09.79.29.5.14.65-.22.22l-.28-.33-.06.25c-.03.14-.04.37 0 .51l.06.24.66-.34c2.43-1.27 5.02-.88 6.82 1.01.38.41.7.79.7.85s.13-.01.3-.14c.16-.14.39-.28.5-.32Zm-23.76.26c.29-.32-.21-1-.53-.73-.22.17-.23.18-.05.55.2.42.33.46.58.18Zm33.97-.28-.33-.28.72-1.17c.77-1.26.76-1.26 1.2-1.03.43.22.42.25-.53 1.88-.57.97-.59.98-1.06.6Zm-33.76-.45c-.14-.24-.34-.58-.42-.75-.16-.31-.2-.33-.7-.33-.6 0-.62.04-.33.61l.21.4.28-.21c.42-.29.56-.25.85.25.15.25.29.45.32.45s-.07-.19-.21-.42Zm34.77-.67c.54-.96.58-1.11.32-1.11-.22 0-1.3 1.9-1.13 2.01.22.14.23.14.81-.9Zm2.73-.1.24-.49-.42-.25-.42-.25-.23.51c-.18.4-.2.53-.1.58.07.04.22.15.33.23.29.22.32.21.6-.33Zm-10.15-.19c0-.04.23-.29.52-.57.57-.55 1.3-1.5 1.59-2.07.17-.33.49-.53.49-.3 0 .28-1.05 1.74-1.86 2.59-.36.38-.74.56-.74.35Zm-.6-.24c0-.07.14-.27.32-.45.46-.48.18-.85-.3-.4-.27.26-.53.35-.52.19.01-.04.27-.38.6-.77s.73-.94.91-1.23c.59-1.01 1.65-.62 1.13.41-.49.94-2.14 2.68-2.14 2.25Zm4.57-.38c-.78-.61-.75-.51-.37-1.1.56-.88.61-.89 1.27-.43.74.52.81.64.59.97-.19.3-.25.28-1-.29l-.46-.35-.17.27c-.16.25.44 1.03.8 1.03.15 0 .06-.19-.19-.39-.14-.11-.24-.27-.22-.36.02-.12.11-.09.41.15.42.35.45.48.19.8l-.17.22zm6.92-.77c.15-.39.17-.51.07-.47-.18.07-.76-.23-.76-.39-.01-.15-.15.09-.25.42-.05.16-.04.21.04.17.17-.11.82.27.72.42-.07.11-.16.1-.49-.07l-.41-.21-.07.22c-.04.13-.02.24.04.26s.26.13.44.26c.29.19.34.2.39.07.04-.09.16-.39.28-.68ZM11.1 33.3v-1H7c-3.58 0-4.1-.02-4.1-.15 0-.24 18.05-.23 18.14.01.07.19-.02.37-.14.29-.05-.03-2.21-.08-4.8-.1l-4.7-.05v1c0 .82-.03 1-.15 1s-.15-.18-.15-1Zm-6.77.71c-.03-.12-.12-.21-.2-.21-.1 0-.13-.06-.09-.16.03-.09.06-.29.06-.45 0-.21.04-.27.15-.23.08.04.15.17.15.3 0 .17.06.24.18.24.15 0 .18-.06.14-.3-.05-.37.03-.38.34-.05.13.14.18.25.13.25-.06 0-.07.05-.03.12s.09.25.11.4c.03.33-.22.39-.32.08-.07-.23-.35-.27-.35-.06 0 .24-.21.3-.27.07Zm2.17-.28c-.12-.26-.24-.61-.27-.77l-.06-.29.52.07c1.07.14 1.48.86.49.86-.34 0-.39.03-.33.17.22.58-.09.54-.35-.04Zm1.83.27c-.39-.23-.4-.31-.13-.76.36-.58.79-.55.8.06 0 .15.05.31.12.38.09.09.09.12.01.12-.07 0-.15.09-.18.2-.08.25-.21.25-.62 0Zm4.69.04c-.45-.31-.19-1.14.36-1.14.54 0 .8.72.4 1.1-.26.24-.46.25-.76.04Zm2.62.06c-.05-.05-.07-.32-.06-.6l.04-.51.61.03.62.03.03.49c.02.31-.01.52-.09.57-.17.1-1.04.1-1.15-.01Zm1.77-.04c-.07-.08-.11-.34-.09-.58l.03-.43.44-.03c.8-.06.91.01.91.57 0 .55-.07.61-.75.61-.25 0-.47-.06-.54-.14Zm25.52-.46c-.4-.24-.4-.16 0-.98.19-.37.44-.93.57-1.25.22-.57.24-.59.53-.53.44.09.44.09.1 1.09-.66 1.94-.7 1.98-1.2 1.67Zm.67-1.08c.3-.83.49-1.53.38-1.42-.14.13-.97 2.14-.92 2.21.12.21.24.04.54-.79Zm-13.9.59c0-.05.3-.32.68-.59.37-.28.87-.71 1.12-.96.41-.43.7-.58.7-.37 0 .15-.81.94-1.54 1.49-.65.49-.96.63-.96.43Zm17.5-.01c-.19-.05-.24-.12-.22-.3.03-.31.2-.5.38-.43.08.03.14.01.14-.05 0-.05-.07-.12-.15-.16-.24-.09-.2-.81.07-1.08.14-.14.23-.36.24-.58.02-.57.15-1.14.29-1.26.08-.05.15-.27.17-.47.05-.56.23-.45.26.16.02.4-.03.63-.22.99-.21.4-.23.51-.14.87.08.33.07.48-.06.76-.2.42-.33.45-.39.07l-.04-.27-.02.29c0 .16.06.37.15.47.32.35-.03 1.11-.46.99Zm-7.19-.7c-.68-.56-.76-.66-.61-.75.06-.04.32.13.59.38.26.24.57.5.69.56s.22.16.22.21c0 .22-.32.07-.89-.4Zm-3.88.01c.2-.34.14-.5-.2-.51-.21 0-.58.71-.42.81.23.15.42.06.62-.3Zm-6.88.19c-.07-.12.92-1.2 1.1-1.2.22 0 .4.29.27.42-.09.09-.12.09-.12 0 0-.25-.26-.09-.65.38-.41.52-.5.57-.6.4Zm17.23-1c0-.1-.01-.11-.05-.02-.06.15-.34.16-.68 0-.28-.13-.3-.12-.4.21-.05.16-.04.21.03.17.15-.09.82.2.83.36.01.17.27-.52.27-.72Zm-20.7.63c-.26-.03-.38-.09-.38-.19 0-.15 1.37-.12 1.63.03.34.2-.21.27-1.25.16Zm14.57-.49c-.33-.25-.64-.5-.69-.54-.11-.11.22-1.1.37-1.1.26 0 1.67.54 1.67.64 0 .06-.09.3-.2.53l-.19.43-.65-.41c-.91-.57-1.01-.45-.16.19.39.29.68.57.65.62-.09.15-.16.12-.8-.36Zm-12.33.02c.06-.24 1.39-1.29 1.5-1.18.06.06-.14.3-.61.71-.71.6-.95.74-.89.47Zm10.97-1.71c.56-1.41.99-3.85.68-3.85-.11 0-.17.16-.22.63-.1.99-.46 2.65-.62 2.84-.17.21-.15-.07.11-1.52.28-1.63.3-1.95.08-1.95-.17 0-.2.1-.26.78-.11 1.2-.33 2.49-.59 3.39l-.24.83.21.14c.26.17.29.12.85-1.29Zm-35.53.98c-.08-.52-.07-1.46.02-1.59.04-.07.54-.1 1.37-.1l1.3.01v2l-1.31.03-1.31.03zm3.4.21c-.15-.39-.06-1.83.11-1.93.17-.09.17-.1 0-.28-.24-.27-.25-1.98-.01-2.07.3-.12 2.49-.07 2.62.06.24.24.15 1.71-.11 1.97-.21.19-.25.2-.37.06-.17-.21-1.62-.22-1.79-.01-.2.24.07.31 1.24.31h1.1l.03.8c.05 1.33.14 1.25-1.42 1.25-1.13 0-1.35-.02-1.4-.16Zm3.61.09c-.04-.03-.07-.24-.07-.45 0-.57.73-.56.78.01.04.42-.44.72-.71.44Zm1.54-.12c-.21-.39-.14-1.81.1-1.89l.2-.08-.2-.18c-.28-.25-.32-2-.05-2.1.37-.14 2.42-.06 2.58.1.46.46.03 2.41-.44 1.99-.26-.24-1.73-.18-1.78.07-.03.15.09.18 1.1.2l1.13.03v2l-1.27.03c-1.18.02-1.28.01-1.37-.17Zm3.42.02c-.17-.42-.09-1.84.1-1.95.18-.09.18-.11-.04-.34s-.25-1.6-.04-1.93c.07-.12 2.41-.16 2.69-.05.3.11.23 1.87-.08 2.07-.21.14-.26.14-.36.02-.18-.21-1.63-.21-1.8 0-.21.26-.03.3 1.18.3h1.17v2l-1.38.03c-1.24.02-1.38.01-1.44-.15Zm31.36-.7c.49-2.02.62-3.27.35-3.37-.56-.22-.82-.08-.89.46-.04.29-.18 1.07-.31 1.73-.28 1.39-.26 1.28-.16 1.21.16-.09.82.15.82.29 0 .17-.28.19-.66.05-.31-.12-.29-.13-.39.19-.04.14-.03.21.02.18.05-.04.23-.02.39.03.59.17.6.16.83-.77Zm-37.69.42c-.09-.11-.33-.15-.85-.15s-.76.04-.85.15c-.11.13 0 .15.85.15s.96-.02.85-.15Zm8.6 0c-.09-.11-.33-.15-.85-.15s-.76.04-.85.15c-.11.13 0 .15.85.15s.96-.02.85-.15Zm10.02.01c.05-.25 1.4-1.28 1.51-1.17.07.07.01.18-.19.33-.16.13-.48.4-.7.6-.42.39-.68.49-.62.24Zm2.18-.23c0-.27.21-1.91.26-2.03.04-.11.17-.02.49.35l.44.5.25-.24c.14-.13.28-.32.32-.43.08-.25.32-.23.44.05.13.31.32 1.66.25 1.78-.07.11-2.45.12-2.45.02Zm-8.35-.25c-.02-.07-.08-.29-.15-.49-.06-.2-.26-.54-.45-.77-.34-.4-.44-.62-.26-.62.29 0 1.1 1.3 1.11 1.78 0 .23-.18.31-.25.1Zm22.57-.06c-.25-.12-.32-.21-.29-.37.21-.87.57-2.59.64-3 .08-.53.54-.8.69-.41.11.29-.45 3.7-.64 3.87-.04.04-.22 0-.4-.09Zm-38.74-.34.03-.38H4.3v.77l.53-.01.52-.01zm8.28.32c.21 0 .24-.05.24-.35v-.35h-1.1v.41c0 .41 0 .41.31.35.17-.03.42-.06.55-.06Zm-4.86-.35v-.35H7.7v.7h1.1zm8.6 0v-.35h-1.2v.7h1.2zm9.52-.15c1.61-.5 2.96-2.09 3.15-3.72l.06-.48 7.96-.02 7.96-.03-.03-.75c-.02-.68-.35-3.01-.48-3.42-.06-.19-18.54-.23-18.54-.04 0 .05.16.24.35.42.3.27.35.38.35.78 0 .39.07.55.44 1.03 2.15 2.79-.04 6.46-3.4 5.71-.28-.06-.68.31-.52.47.28.28 1.87.31 2.7.05Zm17.62-.67c.21-1.14.35-2.17.3-2.22-.05-.06-.09.11-.34 1.39-.33 1.64-.33 1.7-.22 1.7.05 0 .17-.39.26-.87Zm-21.14.1c0-.03-.27-.31-.61-.61-.63-.57-1.12-1.38-1.24-2.05-.05-.27-.12-.37-.26-.37-.25 0-.19.31.23 1.19.43.89 1.88 2.32 1.88 1.84Zm-19.73-.24c-.24-.14-.26-2.03-.01-2.13.3-.11 2.29-.07 2.42.06.21.21.16 1.81-.07 2.02-.16.15-.19.15-.31.01-.17-.21-1.65-.22-1.77-.01-.06.11-.13.12-.26.05Zm23.28-.19c1.88-.91 2.32-3.41.91-5.15l-.24-.3-.13.27c-.11.25-.09.34.21.89.94 1.77-.18 3.72-2.23 3.87-.67.05-1.05.29-.8.52.28.27 1.65.2 2.28-.1Zm-3.31-.16c.04-.11-.1-.34-.43-.7-.49-.54-.91-1.26-.91-1.57 0-.12-.08-.17-.26-.17-.24 0-.25.02-.19.32.24 1.07 1.58 2.66 1.79 2.12ZM5.4 28.15v-.35H4.3v.7h1.1zm3.42 0 .04-.35H7.7v.7h1.08zm5.08 0v-.35h-1.2v.7h1.2zm3.5 0v-.35h-1.2v.7h1.2zm-7-.15v-.4h.8v.8h-.8zm13.53-.02c.04-.14 0-.3-.12-.43-.1-.11-.35-.44-.56-.74l-.38-.55.11-.6c.07-.33.22-.82.35-1.08.13-.27.2-.51.16-.54-.05-.03-.09-.23-.09-.45 0-.51.24-.48.28.03l.03.36.54-.33c.3-.18.72-.35.94-.39.37-.06.61-.36.61-.77 0-.16-.79-.09-1.44.12-.67.22-.78.21-1.67-.15-.37-.16-1.49 1.36-1.49 2.02 0 .14.12.34.3.49.18.14.3.34.3.48 0 .18.08.26.34.35.29.09.36.18.45.57.16.61.35.96.78 1.44.41.45.48.47.56.17Zm2.53-.06c1.14-.59 1.62-1.99 1.05-3.09-.38-.74-.73-.39-.46.46.34 1.03-.32 2.11-1.28 2.11-.18 0-.32.1-.47.34-.11.19-.26.37-.33.4-.07.04.15.04.49.02s.78-.13 1-.24Zm-1.3-.74c.25-.49.25-.52.08-.65-.27-.2-.33-.17-.54.3-.44.95-.01 1.28.46.35Zm-16.12.17c.18-.14.1-.15-.78-.15-.86 0-.97.02-.86.15.17.2 1.37.2 1.64 0Zm5.1 0c.18-.14.1-.15-.78-.15-.86 0-.97.02-.86.15.17.2 1.37.2 1.64 0Zm3.5 0c.18-.14.1-.15-.78-.15-.86 0-.97.02-.86.15.17.2 1.37.2 1.64 0Zm6.65-.7c0-.11-.06-.29-.14-.39-.39-.52-.03-1.55.65-1.88.45-.22.6-.35.6-.53 0-.37-.91.05-1.42.64-.31.36-.68 1.18-.48 1.06.1-.06.2.19.2.52 0 .34-.23.24-.31-.13-.06-.27-.07-.27-.08-.04-.01.3.29.99.54 1.24.21.2.44-.06.44-.49Zm1.75.35c.47 0 .91-.96.73-1.57l-.11-.38-.08.55c-.08.54-.16.65-.85 1.21-.18.14-.16.32.03.25.09-.03.21-.06.28-.06Zm21.34-1.3.03-1.25-.51.03c-.67.05-.76.42-.11.42.49 0 .49.01.43.78l-.04.62h-.39c-.32 0-.39.04-.39.19 0 .11-.03.27-.06.36-.06.14.01.16.47.13l.54-.03zm.62-.1c0-1.34.14-1.44.75-.56l.37.55-.43.55c-.63.81-.69.76-.69-.54Zm-23.43.39c-.08-.31.12-.87.38-1.07.25-.2.33-.42.15-.42-.24 0-.8.71-.8 1.03 0 .45.1.78.22.71.05-.04.07-.15.05-.25ZM2.74 24.86c-.03-.07-.04-.4-.02-.72l.03-.59h1.8l.03.73.03.72H3.7c-.67 0-.92-.04-.96-.14Zm2.18-.58.03-.73.32-.03c.3-.03.35.01.54.41l.22.45.22-.42c.18-.35.27-.41.58-.44l.37-.03V25h-.3c-.27 0-.3-.03-.3-.32l-.01-.33-.14.33c-.11.26-.2.32-.44.32-.22 0-.34-.08-.5-.32l-.21-.33v.33c0 .26-.04.32-.2.32-.19 0-.21-.05-.18-.72Zm21.67.2.22-.37-.33-.21c-.49-.3-.65-.26-.77.18-.15.52-.14.55.22.72.36.18.36.18.66-.32Zm-15.45.29c-2.63-1.04-1.78-4.32 1.11-4.31 2.46 0 3.27 3.05 1.11 4.16-.49.26-1.75.34-2.22.15Zm-6.84-.49c0-.34-.03-.38-.25-.38-.3 0-.35.35-.07.56.15.12.11.13-.3.14-.45 0-.61-.11-.38-.25.18-.11.12-.57-.07-.53-.2.04-.27.29-.19.64.06.23.1.25.66.23l.6-.02zm8.37.17c1-.3 1.55-1.36 1.22-2.36-.4-1.17-1.66-1.62-2.86-1-2.24 1.15-.8 4.08 1.64 3.36Zm8.23-.17c0-.27.5-1.17.85-1.56.43-.48.52-.41-1.21-1.07-1.39-.54-1.37-.54-1.65-.07-.12.2-.31.51-.41.69l-.19.32 1.22.91c1.25.92 1.39.99 1.39.78Zm22.33-.17c.12-.32-.02-.61-.29-.61-.09 0-.14-.11-.14-.28 0-.38-.28-.62-.73-.62-.24 0-.44-.07-.57-.2-.26-.26-.91-.26-1.49 0-.41.19-.68.19-.56-.01.29-.45 1.91-.64 2.33-.26.1.09.29.17.41.17.36 0 .77.27.91.59.06.16.2.37.31.47.31.28.23 1.04-.11 1.04-.16 0-.17-.04-.07-.29Zm4.07-.41c0-1.67-.92-5.13-1.91-7.17l-.5-1.02-.37.25c-.2.14-.38.27-.4.28-.01.02.07.24.19.5l.23.46.34-.2c.32-.2.52-.19.52.01 0 .05-.16.17-.35.26-.36.17-.39.21-.29.46.04.12.11.11.41-.04.35-.18.53-.17.53.01 0 .13-.59.42-.7.35-.14-.09-.11.02.25 1.02.03.1.14.09.46-.02.51-.18.49-.18.49.01 0 .08-.17.22-.37.31-.21.08-.39.16-.41.18-.02.01.06.38.17.81.17.68.28 1.25.56 3 .05.3.07.31.43.24.45-.08.62-.03.62.16 0 .1-.13.14-.48.14-.47 0-.48.01-.45.28.04.26.07.27.54.24l.49-.04zm-20.11-.31c.16-.46.14-1.04-.04-1.19-.23-.19-.27-.07-.1.34.2.46.13.71-.2.72-.28.02-.3-.03-.15-.4.26-.7-.19-.95-.49-.27-.26.6-.26.71-.03.71.09 0 .31.09.47.19.4.26.41.26.54-.1Zm20.87-.11c-.02-.13-.14-.85-.26-1.6-.24-1.56-.8-3.51-1.4-4.88-.38-.88-.41-1.24-.1-1.05.83.51 2.65 7.75 1.95 7.75-.08 0-.17-.1-.19-.22ZM6.81 21.4c.33-1.24.42-1.1-1.04-1.59l-1.16-.39-.12.35c-.17.54-.57 2.57-.52 2.66.02.04.61.06 1.3.05l1.26-.03zm18.52.72c.6-.04.68-.07.73-.28.13-.5.03-.54-1.14-.54h-1.09l-.12-1.66c-.14-1.95-.2-1.78.75-1.94.92-.16.77-.36 1.43 1.97.49 1.73.71 2.32.71 1.91 0-.25-1.07-4.09-1.17-4.19-.19-.19-2.05.22-1.98.44.02.07.09 1.1.15 2.31.12 2.53.08 2.38.62 2.19.24-.09.73-.18 1.11-.21Zm-6.84-.54c.32-.56.32-.56.11-.63-.12-.04-.23-.05-.24-.03-.57.77-.67 1.01-.5 1.19.2.23.22.21.63-.53Zm4.71.22v-.4l-.97.01h-.98l.95.39c.52.21.96.39.98.39.01.01.02-.17.02-.39Zm-17.8-.37c-.56-.06-.64-.11-.5-.28.1-.12.24-.14.59-.09l.45.07-.17-.26c-.2-.31-.21-.37-.04-.37.14 0 .68.81.61.92-.05.08-.28.08-.94.01Zm11.75-.44c.31-.48.33-.46-.66-.88-.75-.32-.78-.32-1.03-.16-.35.23-.34.25.59.89.44.3.81.55.81.55.01.01.14-.18.29-.4Zm6.01-.66c-.03-.32-.08-1.2-.12-1.95-.03-.76-.08-1.38-.11-1.38-.81 0-5.28 2.79-4.96 3.1.44.45 2.01.79 3.61.79l1.64.01zm2.28-.89c-.5-1.72-.38-1.55-.97-1.42-.54.11-.53.04-.4 1.91l.06.97h1.74zm19.76.39c-.75-2.77-1.97-5.05-3.82-7.15l-.6-.68-7.91-.02c-6.96-.03-7.92-.05-7.92-.18s.94-.16 7.69-.2l7.69-.05-.6-.58C35.99 7.37 30.87 5.4 25.3 5.4c-1.8 0-1.7.05-1.7-.92v-.6l-.27.07c-.16.04-.29.08-.31.1-.11.11 1.28 7.81 1.63 9.05.13.47.38 1.4.56 2.08l.32 1.22h1.56c1.46 0 1.96.08 1.77.27-.04.04-.66.09-1.37.11-1.16.03-1.29.05-1.25.2.19.66.96 3.53.96 3.58 0 .04-.09.04-.2.01-.22-.06-.23-.05-.14.17.06.14.97.16 9.34.16h9.29zm-30.09-.02c.28-.22.32-.19-1.2-.91-.81-.38-1.08-.47-1.18-.38-.18.15-.12.2 1.04.89 1.13.67 1.04.64 1.34.4Zm-7.52-.98c.39-1.13.47-.97-.91-1.68-1.06-.55-.97-.59-1.42.63-.49 1.34-.53 1.25.67 1.65 1.38.48 1.27.52 1.66-.6Zm23.56.87c-.12-.19.16-.4.51-.4.31 0 .34-.03.34-.3 0-.28-.02-.3-.4-.3-.48 0-.62-.21-.58-.88l.03-.47.71-.03.72-.03.04.68c.04.5.02.71-.08.79-.38.3-.17.66.34.59.53-.07.93.16.61.36-.2.12-2.16.11-2.24-.01Zm4.33-.07c-.47-.05-.62-.22-.48-.57.13-.36.55-.37.46-.01-.05.2-.03.25.14.25.13 0 .2-.07.2-.19 0-.11.06-.22.13-.25.08-.03.07-.08-.05-.16-.2-.12-.24-.4-.07-.4.07 0 .09-.16.04-.5l-.07-.5h1.62l-.02.38c-.01.2-.01.65 0 1l.02.62h1.19l.03-.82c.03-.97.29-1.2.66-.59l.19.31.22-.3c.32-.45 1.13-.45 1.31 0 .16.37.21.37.42-.01.37-.63.63-.38.66.64.03.88-.11 1.16-.36.71-.08-.14-.1-.14-.21 0-.2.23-.52.2-.59-.06-.05-.21-.05-.21-.13-.01-.13.35-.93.29-1.17-.09l-.19-.3-.19.31c-.1.17-.24.31-.31.31s-.13.05-.13.1c0 .15-1.63.13-1.78-.02-.07-.07-.12-.25-.12-.4 0-.33-.46-.42-.56-.1-.19.63-.29.71-.86.65Zm-1.83-.25c-.03-.13-.05-.63-.03-1.13l.03-.9h1.8v.3c0 .22-.06.33-.22.4-.25.11-.3.31-.11.38.17.05-.08.37-.28.37-.19 0-.18-.6.02-.88.15-.22.15-.22-.35-.22H34v.95c0 .95-.2 1.35-.35.73Zm-17.29-.7c1.8-1.23 1.33-4-.79-4.63-2.11-.63-4.24 1.67-3.29 3.55.22.44.57.49.57.08.01-.16.15-.43.33-.65.64-.75.86-1.13.74-1.25-.09-.09-.16-.07-.28.1-.18.26-.5.29-.62.05-.38-.76.98-1.33 1.49-.63l.21.27.28-.29c.65-.65 1.67-.2 1.56.7-.07.6-.07.6 0 1.03.14.87-.91 1.38-1.62.78-.11-.09-.14-.08-.14.04 0 .13-.15.17-.82.19l-.82.03 1.05.47c1.25.57 1.51.59 2.15.16ZM4.7 18.37l.18-.47-.59.32c-.68.38-.7.42-.26.55.44.15.47.13.67-.4Zm4.96.4c-.22-.16-.18-.65.07-.81.39-.25.76.43.42.78-.2.19-.26.2-.49.03Zm4.49-1.14c-.71-.06-.72-.12-.16-.87.56-.74.61-.96.3-1.27-.27-.27-.92-.24-.98.06-.03.2-.03.2.18.01.17-.16.27-.18.49-.1.47.16.41.51-.22 1.32-.72.91-.72.92.17.9.59-.01.63-.02.22-.05Zm9.4-.85c-.3-2.5-.24-2.98.35-3.01l.32-.02.4 1.63c.28 1.13.44 1.62.54 1.62.18 0 .18-.06-.04-.71-.11-.3-.31-1.06-.47-1.69-.34-1.38-.22-1.24-.9-1.09l-.57.13.06.95c.16 2.41.19 2.71.28 2.71.06 0 .07-.21.03-.52Zm1.1.2c.04-.04-.43-1.79-.49-1.85-.11-.12-.47.1-.42.25.02.09.07.52.11.96l.07.78.35-.05c.2-.04.37-.07.38-.09ZM7.8 16.65c0-.04.07-.19.15-.35.14-.27.14-.3 0-.3-.23 0-.65-.3-.65-.46 0-.19.12-.18.49.04.25.14.34.15.51.04.49-.3.52-.08.09.6-.26.4-.59.64-.59.43Zm11.7-.3c0-.16-.06-.25-.15-.25-.24 0-.18-.27.08-.34.55-.15 1.27.03.82.2-.09.04-.15.16-.13.28.03.27-.16.38-.2.11-.07-.36-.22-.41-.22-.07 0 .18-.04.32-.1.32-.05 0-.1-.11-.1-.25Zm24.84-.86.34-.2-.31-.54c-.32-.56-.35-.57-.81-.22-.17.12.19 1.17.4 1.17.02 0 .18-.09.38-.21ZM8.1 15.41c0-.27.54-.73.65-.57.18.24.19.23.86-.65.48-.63.6-.85.52-.97-.17-.28-.3-.23-.71.27-.3.39-.42.48-.5.38-.08-.09-.01-.25.28-.62.36-.45.37-.5.24-.71-.3-.45.07-.37.57.12.61.6.63.51-.27 1.67-.66.86-.79.98-1.01.94-.15-.03-.27.01-.3.09-.06.16-.33.19-.33.05Zm37.31-.32c-.11-.24-.36-.72-.55-1.06-.43-.75-.38-.8.49-.46l.67.27-.07.71c-.09.95-.27 1.14-.54.54Zm-14.19.08c-.08-.09-.1-.48-.07-1.13l.03-.99.81-.03c.68-.02.81 0 .81.13 0 .12-.13.15-.65.15h-.65v.7h.65c.49 0 .65.03.65.14 0 .19-.22.26-.82.26-.85 0-.67.44.2.48.53.03.63.06.6.2-.04.23-1.38.31-1.56.09Zm1.88-.12c-.13-.35-.13-2.22 0-2.3.22-.13.4.17.4.66v.49h.59c.71 0 .83.13.47.48-.21.22-.26.23-.26.09 0-.13-.09-.17-.4-.17-.78 0-.57.48.22.52.55.03.63.05.63.23 0 .36-1.52.35-1.65 0Zm2.15.12c-.03-.07-.04-.67-.03-1.33l.03-1.19.69-.03c.77-.03 1.04.1.72.34-.11.08-.37.14-.58.14-.37 0-.38.01-.38.35 0 .35 0 .35.44.35.54 0 .76.08.76.26 0 .1-.15.14-.6.14-.6 0-.6 0-.6.3 0 .28.01.29.57.32.5.03.58.06.58.23 0 .25-1.51.37-1.6.12ZM5.5 14.5c-.34-.34-.13-.74.35-.68.37.04.49.53.19.75-.24.17-.3.17-.54-.07Zm38.05-.36c.41-.31.44-.25-.62-1.65-4.34-5.77-12.33-9.48-18.57-8.63l-.46.07v1.13l1.88.01c3.24.02 6.02.63 8.71 1.92l.65.3.23-.34c.29-.43.32-.43.99-.04.67.38.69.42.47.79-.2.35-.25.36-.58.14-.14-.09-.25-.14-.25-.11s.37.29.83.58a22.2 22.2 0 0 1 4.65 4.01l.85.97.29-.24c.26-.22.58-.25.58-.04 0 .04-.16.19-.35.32l-.35.24.31.41c.36.5.32.49.74.16Zm-24.69-.24c-1.8-.72-2.24-2.94-.8-4.04 2.18-1.67 4.98.96 3.48 3.26-.53.82-1.73 1.17-2.68.78Zm.28-.69c-.96-.59-1.18-1.84-.46-2.66l.27-.3-.29.25c-.96.83-.51 2.9.63 2.9.09 0 .03-.08-.15-.19Zm1.54-.01c.89-.54.99-1.93.2-2.67-.32-.3-.71-.38-.87-.19-.08.09-.28.16-.45.16-.56.01-.96.51-.96 1.2 0 .72.31 1.1 1.13 1.4.15.05.27.14.27.2 0 .16.32.12.68-.1Zm3.4-.15c.02-.02-.01-.29-.08-.6l-.12-.56-.36.07c-.47.09-.44.03-.36.72l.06.59.41-.09c.23-.05.43-.11.45-.13Zm20.05-.38c-.11-.12-.49-.6-.84-1.07-.77-1.04-2.55-2.82-3.69-3.7-1.25-.98-1.34-1.06-1.26-1.18.34-.56 6.16 5.04 6.16 5.93 0 .24-.16.25-.37.02Zm-28.67-.53c-.34-.33-.08-1.04.37-1.04.25 0 .57.36.57.63 0 .48-.61.74-.94.41Zm-8.24-.26a.438.438 0 0 1 .13-.7c.22-.1.29-.09.47.1.19.18.2.25.1.47-.13.27-.49.34-.7.13Zm3.88-.23c0-.08.18-.26.41-.41.22-.14.38-.28.35-.31s-.21.06-.41.21c-.35.27-.65.31-.72.11-.01-.05.17-.23.41-.38.29-.18.43-.33.39-.43-.1-.26.22-.15.56.2l.33.34-.52.41c-.54.43-.8.51-.8.26Zm12.68-.1c.02-.01-.14-.98-.35-2.14l-.38-2.11h-.27c-.34 0-.33-.18-.03 2.15.14 1.05.25 1.98.25 2.09 0 .16.62.17.78.01Zm2.32-1.1c-.05-.14-.1-.31-.1-.36 0-.13-.84-.11-.98.03-.18.18-.26.02-.23-.52.01-.32-.04-.58-.14-.74-.3-.45-.06-.69.61-.6.46.05.58.03.75-.12.35-.31.44-.03.44 1.31 0 1.22-.13 1.58-.35 1Zm4.22.13c-.07-.07-.12-.25-.12-.4 0-.26-.03-.28-.39-.28-.57 0-.69-.07-.96-.59-.43-.86-.06-.93.4-.09.22.39.95.42.88.04-.03-.13 0-.34.07-.46.11-.21.1-.21-.44-.19-.6.03-.86-.1-.86-.43 0-.18.04-.2.33-.12.17.04.58.07.89.06.65-.02.8.15.58.68-.09.22-.09.38-.02.6.07.19.08.4.02.58-.05.15-.08.36-.07.46.02.23-.14.31-.31.14Zm.74 0c-.14-.45-.14-.96 0-1.16.13-.19.13-.27 0-.7-.17-.59-.08-.84.24-.64.24.14 1.16.16 1.25.02.09-.15.45-.12.45.03 0 .33-.27.51-.87.55l-.59.04.04.34.04.34h.59c.52 0 .59.02.59.2s-.07.2-.6.2c-.4 0-.62.04-.64.13-.18.69-.4.97-.5.65Zm-2.11-.1c-.05-.12-.18-.18-.36-.18-.16 0-.29-.04-.29-.08 0-.12-1.12-.02-1.28.11-.22.18-.27-.02-.27-1.11V8.17l.83-.01c.71-.01.82.01.82.16 0 .23-.3.38-.79.38-.37 0-.4.02-.39.28.01.15-.02.37-.06.5-.09.28.9.35 1 .07.09-.21.32-.19.39.04.03.11.15.21.27.23.33.05.51.4.34.64-.14.18-.15.18-.21.02Zm5.2-.08c-.03-.05-.03-.25 0-.43.06-.28.03-.35-.19-.47-.51-.27-.45-.7.09-.7.28 0 .34-.04.4-.27.15-.62.37-.67.64-.14.17.32.26.39.61.45.48.07.5.19.11.55-.27.25-.29.31-.21.65.1.47-.07.57-.47.28-.28-.2-.29-.2-.52-.01-.26.21-.37.24-.46.09Zm-21.03-.52c.03-.07.25-.29.51-.48.25-.18.43-.38.4-.43s-.15 0-.27.11c-.24.22-.87.62-.98.62-.25 0-.01-.34.46-.67.45-.31.54-.42.49-.6-.08-.35.13-.27.42.14.34.51.33.53-.35 1.01-.63.45-.74.5-.68.3Zm21.9-.1c.18.18.27.14.21-.09-.04-.14 0-.26.11-.35.16-.11.16-.13-.04-.19a.64.64 0 0 1-.32-.31c-.11-.24-.28-.33-.28-.14 0 .06-.12.22-.26.35l-.25.24.21.11c.15.08.19.17.15.31-.06.18-.05.19.14.07.16-.1.23-.1.33 0ZM9.56 9.44c-.31-.31-.13-.74.31-.74.38 0 .54.47.24.71-.28.23-.35.23-.55.03Zm16.39-.29V8.7h-.44c-.35 0-.42.03-.37.16.03.09.06.29.06.45 0 .27.03.29.38.29h.37zm-10.63-1.2c-.18-.4-.16-.43.48-.75.77-.39.84-.38 1.03.1.15.39.15.41-.06.54-.49.31-.67.3-.73-.03-.06-.26-.09-.29-.25-.2-.14.07-.18.16-.13.34.08.34-.19.33-.34 0Zm-3.42-.6c-.17-.2-.05-.62.21-.7.22-.07.59.18.59.41 0 .36-.57.57-.8.29Zm6.05-.58c-.1-.37-.02-.72.15-.72.09 0 .17.12.2.32.07.42.26.3.26-.16-.01-.3.03-.35.29-.42.39-.11.57.07.59.57.01.48-.2.56-.28.09-.09-.45-.26-.46-.26-.01 0 .4-.02.42-.52.51-.34.06-.38.05-.43-.18Zm4.93.15c.11-.08-.27-2.85-.42-2.99-.11-.12-.47.1-.42.25.02.09.12.71.21 1.37.22 1.57.24 1.61.63 1.37Zm14.42-.48c-.19-.14-.61-.39-.92-.56-.81-.43-.78-.47.43-.63.53-.08.58-.04.87.76.28.76.2.85-.38.43Zm-22.49-.93c-.21-.39.15-.76.57-.6.39.15.28.73-.15.77-.23.02-.34-.02-.42-.17Zm9.99-1.17c0-.5.22-.59.28-.11.05.44 1.02.41 1.02-.03q0-.3.15-.3c.11 0 .15.12.15.45v.45h-1.6zm-7.06-.2c-.09-.34.15-.59.49-.5.49.12.38.76-.13.76-.23 0-.31-.05-.36-.26ZM24 3.02c0-.11 1.26-1.12 1.41-1.12.14 0 1.49 1 1.49 1.11 0 .05-.65.09-1.45.09S24 3.06 24 3.02Z"/></svg>