<svg xmlns="http://www.w3.org/2000/svg" width="51" height="51" viewBox="0 0 51 51"><path fill="#fff" fill-rule="evenodd" stroke="#fff" stroke-width=".625" d="M9.95 38.32c-.33-.07-.74-.41-.92-.75-.27-.53-.27-19.48.01-19.93.29-.48.7-.68 1.46-.68l.65-.01.05 7.9.05 7.9.22.41c.62 1.15 1.35 1.49 3.54 1.64 3.13.21 5.28.92 7.27 2.39.7.52 1 .91.66.84l-.89-.16c-2.8-.54-6.68-.45-10.4.23l-1.3.24c-.11.02-.29.01-.4-.02Zm29.7-.19c-3.63-.7-7.12-.8-10.25-.26-1.21.2-1.22.2-1.27.07-.06-.17 1.47-1.29 2.39-1.75 1.66-.83 3.65-1.31 6.2-1.47 1.81-.12 2.28-.38 2.94-1.62.18-.33.19-.78.24-8.25l.05-7.9.49-.03c.67-.04 1.32.21 1.57.62.18.3.19.64.19 10.14v9.82l-.32.36c-.48.51-.81.55-2.23.27Zm-28.54-.24.66-.12.07-.75c.16-1.97.09-2.75-.29-3.23-.67-.83-.65-.61-.65-9.01V17.2h-.35c-.47 0-.98.22-1.19.51-.23.34-.25 19.33-.02 19.78.16.3.71.63.96.57.08-.03.45-.1.81-.17Zm30.57-.24.22-.26V17.9l-.28-.3c-.22-.26-.37-.32-.84-.37l-.58-.06v7.66c0 7.43-.01 7.68-.2 8.2-.25.66-.77 1.29-1.36 1.63l-.44.26v2.65l.6.1.6.1.01-.81c.01-.45 0-1.25-.01-1.8-.01-.7.01-.96.09-.92.07.05.11.65.11 1.81 0 1.51.02 1.74.16 1.79.23.09.21.27.31-2.39l.1-2.4.01 2.42c.01 1.49.06 2.44.12 2.48.07.04.11-.84.11-2.57.02-3.04.15-2.61.2.62l.02 2.05.08-1.35c.03-.74.08-3.87.09-6.95.02-3.92.06-5.21.11-4.3.08 1.41.03 10.88-.07 11.97l-.06.67.34-.09c.18-.05.43-.21.56-.35Zm-12.02-.18c0-.01.06-.11.12-.22.1-.17.11-.18.12-.02 0 .09.05.17.1.17.06 0 .1-.09.1-.2s.04-.2.1-.2.1.09.1.2c0 .13.07.2.2.2.18 0 .19-.05.13-.45-.04-.29-.02-.45.05-.45.06 0 .13.21.15.48.03.46.03.45.05-.11l.02-.59-.57.32c-.55.31-1.53.98-1.53 1.05 0 .03.83-.14.86-.18Zm-16.48-1.25c.02-1.13 0-1.32-.13-1.32s-.15.21-.15 1.36c0 1.04.03 1.35.13 1.32.08-.03.13-.42.15-1.36Zm1.02.84c0-.17.03-.68.07-1.13.04-.58.03-.83-.05-.83-.06 0-.13.25-.15.58l-.03.57-.02-.63c-.02-.48-.05-.62-.17-.62-.13 0-.15.2-.15 1.24v1.23l.25-.05c.2-.03.25-.1.25-.36Zm.58.28c.21-.06.22-.11.22-1.15V35.1h-.6v1.15c0 .63.03 1.15.08 1.15.04 0 .17-.03.3-.06ZM37.2 36.2V35h-.6v2.4h.6zm-21.3 0c0-1.03-.01-1.1-.2-1.1-.22 0-.28.72-.14 1.74.13.95.34.56.34-.64Zm20.5-.02v-1.13l-.55.03-.55.04v2.18h1.1zm-19.62.05c-.03-.89-.05-.98-.23-1.01-.19-.03-.2.02-.17.98.03.92.05 1 .23 1s.2-.06.17-.97Zm1.32.12c0-.47-.04-.85-.09-.85s-.23-.03-.4-.06l-.31-.06v1.82h.8zm14.9.05c0-.44-.03-.8-.07-.8-.47.01-.53.11-.53.86v.74h.6zm.94.19c.11-1.12.1-1.21-.21-1.17-.26.03-.28.07-.34.63l-.06.6-.01-.57c-.01-.32-.05-.58-.09-.58-.05 0-.07.38-.05.85l.03.85h.66zm.76-.39c0-1.07-.19-1.43-.22-.43l-.02.58-.03-.52c-.03-.38-.08-.53-.19-.53s-.14.19-.14.95v.95h.6zm-10.39.56c-1.92-1.98-5.34-3.25-9.48-3.51-1.23-.08-1.61-.23-1.87-.73-.24-.46-.25-18.71-.02-19.07.34-.51.65-.58 2.41-.52 3.9.14 7.13 1.74 9.1 4.52l.35.49v9.58c0 5.27-.04 9.58-.08 9.58s-.23-.15-.41-.34Zm2-9.14c.02-5.83.07-9.55.13-9.67.57-1.19 2.51-2.94 4.23-3.8 1.38-.7 1.26-.91 1.21 2.31l-.04 2.75.69-.75c.84-.93.84-.93 1.75-.04l.74.73-.04-3.02c-.02-1.97.01-3.05.07-3.12.2-.2 2.38-.18 2.69.02.7.47.66-.22.66 9.95 0 8.29-.02 9.17-.16 9.49-.28.58-.49.65-2.28.79-3.76.28-6.44 1.28-8.79 3.28-.37.31-.71.56-.78.56-.08 0-.1-2.56-.08-9.48Zm.61 5.82c.01-2.23.03-2.63.08-1.74.04.63.08 1.89.09 2.79 0 .9.03 1.62.05 1.6.08-.09.15-12.32.08-15.44l-.07-3.3-.24.39-.24.39-.04 9.26c-.03 8.46-.02 9.25.12 9.1.14-.14.16-.55.17-3.05Zm-2.59-15.63-.18-.35-.06.6-.06.59-.01-.67c-.02-.6-.05-.72-.32-1l-.29-.33-.02 1.15-.02 1.15-.08-1.24c-.12-1.72-.19-1.63-.19.24 0 2.03-.06 1.97-.13-.13-.04-1.63-.14-2.02-.49-2.02-.05 0-.08 1.78-.06 4.23.03 4.73.01 6.07-.11 6.07-.11 0-.21-1.36-.21-2.78 0-.73.04-1.11.1-1.07.07.04.09-.62.08-1.92l-.01-1.98-.07 1.28c-.1 1.75-.21 1.73-.18-.04.02-1.09.06-1.43.16-1.41.09.01.12-.29.12-1.28v-1.3l-.47-.34c-.26-.19-.49-.33-.51-.31s-.05 3.05-.05 6.74c-.01 4.31-.06 6.74-.12 6.8-.07.07-.09-2.19-.07-6.77l.03-6.87-.23-.19-.23-.18-.05 1.35c-.03.74-.09 1.39-.14 1.44-.04.04-.05-.54-.01-1.33.05-1 .04-1.44-.04-1.48-.08-.05-.11.31-.11 1.26 0 .73-.05 1.4-.1 1.48-.06.1-.1-.37-.1-1.41 0-1.52-.01-1.57-.22-1.62l-.21-.06.06 5.19c.05 3.42.04 5.21-.03 5.25s-.1-1.73-.1-5.24c0-3.47-.03-5.31-.1-5.31s-.1 1.41-.1 4.03c0 4.51-.1 8.76-.2 8.55-.03-.07-.03-2.92.01-6.33.08-6.52.08-6.45-.33-6.45-.04 0-.08 2.89-.08 6.43s-.03 6.47-.07 6.51c-.11.11-.13 6.65-.02 6.72.05.03.1-.33.1-.83.03-1.91.16-2.29.2-.58l.03 1.6.06-1.55c.04-1.14.07-1.39.11-.95.04.49.06.39.08-.55.05-1.68.19-.65.2 1.47l.01 1.61.31.11.32.11-.04-3.48c-.06-5.1 0-10.62.1-10.62.06 0 .08 2.86.07 7.05-.02 3.88.01 7.08.06 7.11.04.03.08-3.13.08-7.02s.02-7.05.05-7.02.08 3.22.11 7.09.08 7.06.1 7.08.04-.51.04-1.19c0-1.56.1-1.49.19.12.05 1.09.08 1.23.25 1.26.16.04.18 0 .12-.32-.04-.23-.03-.36.04-.36.05 0 .1.18.1.39 0 .58.18.6.23.04l.03-.48.02.52c.02.49.17.73.46.73.03 0 .06-.47.06-1.05 0-.63.04-1.05.1-1.05s.1.45.1 1.15c0 1.14.07 1.35.44 1.35.03 0 .06-.45.06-1.01 0-.64.04-.98.1-.94.06.03.1.53.1 1.13v1.07l.35.23.35.22.02-1.27c.01-.71 0-3.89-.02-7.07-.02-4.34 0-5.77.09-5.72.08.05.11 1.94.11 7.18 0 3.91.03 7.09.06 7.05.03-.03.06-3.57.05-7.86-.01-5.25.02-7.81.09-7.81s.1 2.62.1 7.98c0 4.39.03 8.02.08 8.06.18.19.14-18.27-.05-18.63Zm3.26 13.2c0-2 .04-3.62.07-3.58.03.03.05 1.91.04 4.18-.01 3.7.01 4.11.15 3.99.08-.07.15-.2.15-.29 0-.13.02-.13.09-.02.21.32.26-.3.31-3.44l.05-3.3.05 3.35.05 3.35.03-4.14c.01-2.28.04-4.12.06-4.1.04.04.15 4.96.16 6.87 0 1.11 0 1.13.21 1.02.2-.11.2-.13.17-7.31-.02-3.95 0-7.19.05-7.19.04 0 .07 2.13.07 4.73 0 6.46.09 9.6.27 9.46.1-.09.13-.63.15-2.43.01-2.63.06-2.57.16.26.06 1.59.1 1.96.2 1.89.13-.08.21-19.36.08-19.48-.03-.03-.21.05-.4.17l-.36.22-.01 1.81c-.01 1-.05 2.14-.09 2.52-.05.44-.07-.18-.06-1.73.01-1.33-.01-2.42-.03-2.42-.33 0-.41.36-.41 1.79 0 3.05-.13 7.64-.22 7.42-.04-.13-.04-2.06.02-4.29.05-2.24.1-4.18.1-4.31v-.25l-.3.29c-.25.24-.3.37-.32.79l-.01.51-.04-.43c-.04-.36-.07-.42-.19-.31-.12.09-.14.77-.16 4.08l-.02 3.96-.05-3.77c-.04-2.07-.09-3.8-.14-3.84-.04-.04-.06 4.2-.05 9.42 0 5.22.04 9.2.08 8.84s.08-2.29.09-4.29Zm-4.23 4.18c-.03-.13-.07-1.07-.11-2.09-.03-1.02-.08-2.45-.11-3.17-.04-.81-.03-1.33.03-1.33.08 0 .36 6.7.28 6.79-.02.02-.06-.07-.09-.2Zm7.16-4.9c.02-8.33-.02-15.7-.09-15.66-.05.03-.07 4.45-.05 9.83.01 5.37.05 9.75.08 9.72s.06-1.78.06-3.89Zm.39-.12c-.02-2.67 0-3.77.08-3.77s.11 1.12.11 3.77c0 2.07.02 3.74.05 3.71s.08-4.46.12-9.86l.06-9.81-.22.06-.21.05-.02 5.82-.03 5.81-.02-5.72c-.02-3.15-.07-5.73-.11-5.73s-.06 1.88-.05 4.17c.01 2.3.02 6.69.03 9.76 0 4.29.03 5.58.12 5.55s.11-.95.09-3.81Zm.8 3.53c.18-.1.19-.24.2-2.13.01-1.11.04-2.13.09-2.27.04-.14.08.76.08 1.98 0 1.23.03 2.27.06 2.3s.07-1.72.08-3.89c.01-2.82.03-3.51.08-2.44.03.83.04 2.57.02 3.87-.04 1.76-.02 2.38.06 2.38.07 0 .13-.12.13-.27.02-.24.02-.25.06-.05.03.14.12.22.24.22.19 0 .19-.16.19-7.46 0-4.94.03-7.43.1-7.39s.1 2.62.1 7.42v7.35l.23-.06c.12-.03.3-.06.4-.06.15 0 .17-.12.18-.97.01-.82.02-.92.11-.64.05.19.08.61.06.93-.03.5-.01.58.15.58s.17-.19.18-2.57c.01-1.42.03-3.19.04-3.93s.03-2.68.05-4.3c.02-1.98.05-2.64.1-2 .03.52.04 3.59.01 6.82-.03 4.37-.01 5.88.08 5.88.08 0 .12-.72.13-2.57l.02-2.58.06 2.6.06 2.6.02-2c.03-2.97.14-5.75.22-5.7.12.08.22-3.49.17-5.67-.04-1.27-.03-1.86.03-1.58.12.63.13 9.4 0 9.4-.05 0-.11-.35-.13-.77-.01-.43-.04.81-.05 2.75l-.02 3.53.43-.03c.39-.03.42-.05.48-.38l.06-.35.02.33c0 .17.05.32.11.32.05 0 .07-.26.05-.63-.03-.34-.07-3.32-.1-6.62s-.08-7.28-.11-8.85c-.04-1.66-.03-2.82.02-2.77.09.08.13 2.37.29 13.8.06 4.19.1 5.07.21 5.07.12 0 .14-.53.14-3.02 0-3.84.13-3.78.21.1.04 2.38.05 1.85.06-2.63 0-3.55.04-5.71.11-5.9l.1-.3.01.4c0 .22-.04.87-.1 1.45-.05.6-.06 1.55-.02 2.2l.08 1.15.06-.7c.03-.38.06 1.07.07 3.23.01 2.3.06 3.92.11 3.92s.19-.15.3-.34c.21-.34.21-.35.19-9.55l-.03-9.2-.21-.22c-.28-.27-.79-.36-1.77-.29l-.78.05-.01 3.06c-.01 3.55 0 3.51-.66 2.86l-.5-.49-.07 6.11c-.05 4.02-.11 6.14-.18 6.18s-.08-1.13-.04-3.73c.14-7.5.12-8.73-.14-9l-.23-.24-.84.82c-.66.64-.85.79-.93.67-.05-.08-.09-1.35-.09-2.82 0-1.55-.04-2.66-.09-2.63-.09.06-.14 19.76-.04 19.76.02 0 .13-.05.24-.1Zm-13.22-3.47c-.01-1.75 0-3.29.04-3.43.18-.7.13-13.1-.05-13.1-.17 0-.18.17-.18 2.75 0 2.01-.03 2.75-.12 2.75-.08 0-.09-.71-.04-2.79.08-3.02.1-2.91-.46-2.91h-.21l.07 7.98c.03 4.38.09 8.45.12 9.04.03.61.01 1.09-.04 1.12-.13.08-.22-4.45-.25-12.01-.01-3.43-.05-6.23-.09-6.23-.05 0-.08 3.54-.08 7.88 0 4.33-.04 7.93-.08 7.99-.05.07-.08-.94-.08-2.25.02-7.64-.05-13.62-.15-13.62-.15 0-.06 19.23.09 19.6.08.19.11-.16.13-1.45l.02-1.7.08 1.3c.03.71.07 1.47.08 1.68.01.44.21.51.21.07 0-.16.04-.3.08-.3.05 0 .06.14.04.31-.03.22-.01.3.07.25.06-.04.11-.02.11.03 0 .06.05.11.1.11.08 0 .09-.45.04-1.39-.05-.99-.04-1.4.05-1.45.08-.05.11.28.12 1.21 0 .7.04 1.37.09 1.48.05.12.09-.57.09-1.74 0-1.06.03-1.96.06-1.99s.05.85.05 1.96.03 2.02.06 2.02c.04 0 .05-1.43.03-3.17Zm-1.74 2.45c-.03-.24-.07-4.69-.08-9.9-.01-6.24-.05-9.48-.12-9.48-.05 0-.2-.03-.32-.06l-.23-.06v5.1c0 3.3-.04 5.13-.1 5.17-.07.04-.1-1.25-.1-3.79 0-2.51-.04-3.86-.1-3.86s-.1-.5-.1-1.3c0-1.02-.03-1.3-.13-1.3-.22 0-.27 2.37-.25 11.5.02 5.27.04 6.57.05 3.53.02-3.11.07-4.83.13-4.83s.1 1.7.1 4.8V33h.45v-4.57c.01-2.52.05-4.78.1-5.02.07-.29.09 1.15.07 4.3-.04 5.38-.04 5.39.39 5.39.3 0 .3-.01.24-.42Zm-1.74-2.45c.01-1.53.05-5.99.08-9.91l.06-7.12h-.72l-.07 2.48c-.17 5.8-.02 17.19.23 17.25.42.12.41.18.42-2.7Zm6.97 2.71c-.05-.04-.07-1.2-.07-2.58.01-1.86.04-2.37.1-1.97.11.64.08 4.66-.03 4.55Zm-8.06-2.59c-.03-1.84-.02-2.55.06-2.55s.12.76.14 2.58c.02 1.41.04-1.87.05-7.3.02-9.85.02-9.88-.18-9.88-.25 0-.6.18-.76.39-.14.19-.19 18.57-.05 18.79.05.07.06-.15.04-.49-.03-.37 0-.65.07-.72.08-.08.11.11.11.73 0 .46.03.8.08.76.04-.04.1-1.32.13-2.84l.05-2.77.02 2.86c.02 2.66.04 2.99.22 2.99.04 0 .05-1.15.02-2.55Zm7.44 2.39c-.09-.22-.06-4.58.04-5.24.04-.34.08.59.09 2.43.01 2.89 0 3.14-.13 2.81Zm.25-5.06c.01-3.09.05-5.28.1-5.28.12 0 .12 10.2-.01 10.4-.06.1-.09-1.72-.09-5.12Zm11.7 2.7c0-1.4.04-2.25.09-2.13.12.29.12 4.45 0 4.45-.06 0-.1-.84-.09-2.32Zm4.46-.03c-.04-1.15-.08-2.82-.09-3.7s-.03-2.4-.05-3.38c-.03-1.17 0-1.83.07-1.95.08-.13.09.08.05.8-.04.53-.02 1.63.05 2.45.06.85.1 2.84.08 4.68l-.03 3.2zm3.44-3.87c0-2.88.04-5.43.08-5.68.05-.25.09 2.03.1 5.23.01 3.72-.02 5.67-.09 5.67s-.1-1.8-.09-5.22Zm-18.7 1.78c0-1.87.02-3.36.06-3.32.11.1.14 4.89.04 5.86-.06.64-.09.02-.1-2.54Zm9.09-2.94c0-2.6.04-4.72.08-4.72.1 0 .1 9.26-.01 9.36-.04.04-.07-2.05-.07-4.64Zm-3.63 4.41c-.09-.08-.07-5.02.02-7.58.06-1.5.08-.89.09 2.88.01 2.62.01 4.77-.01 4.77s-.07-.03-.1-.07Zm-4.87-3.35c.02-.95 0-2.49-.03-3.43l-.05-1.7.1 1.25c.13 1.56.16 5.6.04 5.6-.04 0-.07-.78-.06-1.72Zm-5.34-.6c-.13-2.69-.18-6.58-.08-6.58.05 0 .12 1.44.16 3.58.04 1.96.09 3.72.13 3.9.03.18.01.32-.05.32s-.12-.5-.16-1.22Zm-2.96-5.62c0-3.64.03-5.56.1-5.56s.1 1.9.1 5.49c0 3.56-.04 5.52-.1 5.56-.07.04-.1-1.82-.1-5.49Zm-.86.79c0-3.56.01-4.04.05-2.1.03 1.38.03 3.45 0 4.6-.03 1.41-.05.59-.05-2.5Zm12.86-.49c0-1.37.04-2.16.1-2.16s.1.76.1 2.09c0 1.29-.04 2.12-.1 2.16-.07.04-.1-.68-.1-2.09Z"/></svg>