<svg xmlns="http://www.w3.org/2000/svg" width="51" height="51" viewBox="0 0 51 51"><path fill="#fff" fill-rule="evenodd" stroke="#fff" stroke-width=".6" d="M0 44.8v-6.4h12.9v-6.24c0-4.73-.03-6.27-.12-6.32-.16-.1-12.45-.1-12.55 0-.05.04-.1 2.81-.13 6.14-.04 3.54-.07-1.87-.08-12.95L0 0l25.62.02c14.1.02 22.84.05 19.43.08l-6.2.05-.03 6.23-.02 6.22H45c5.64 0 7.04.06 5.74.24-.26.03-3.05.06-6.2.06H38.8v12.8H45c5.44 0 6.2.02 6.2.15s-.76.15-6.2.15h-6.2v12.4H45c4.07 0 6.2.03 6.2.1s-2.13.1-6.2.1h-6.2v6.3c0 5.73-.01 6.3-.16 6.3s-.16-.55-.13-6.27l.04-6.28-6.32-.03-6.33-.02v1.02c0 .57-.03 1.14-.07 1.28-.06.24-.06.24.19-.05.7-.81 2.05.14 1.44 1.01-.14.19-.09.3.69 1.5l.85 1.29v-3.37l-.3-.28c-.74-.69-.03-1.89.89-1.5.62.25.72 1.26.16 1.57-.16.09-.14.18.19.93.21.46.51 1.2.68 1.64.17.45.33.76.34.71.02-.06.19-.85.38-1.77l.35-1.67-.3-.3c-.58-.59-.24-1.51.56-1.51.84 0 1.23.93.65 1.52l-.3.3.3 1.46c.17.81.34 1.6.38 1.76.07.27.14.14.71-1.24.42-.99.61-1.57.55-1.65-.47-.63-.47-.64-.35-1.06.1-.32.2-.44.47-.55.94-.39 1.69.76.94 1.46l-.3.28v3.26l.81-1.24c.73-1.12.79-1.26.68-1.46-.5-.94.7-1.89 1.37-1.1.47.54.27 1.22-.46 1.53-.24.1-.27.21-.58 2.03-.28 1.69-.35 1.97-.6 2.28-.15.19-.39.51-.55.71l-.27.36.41.8c.81 1.6.29 1.85-3.86 1.85-4.14 0-4.67-.26-3.85-1.86l.43-.83-.44-.56c-.24-.31-.49-.64-.56-.73-.06-.09-.23-.96-.38-1.92-.34-2.27-.32-2.2-.62-2.2-.13 0-.35-.12-.48-.26l-.24-.26.02.54c.06 1.75-.04 8.88-.13 8.88-.07 0-.1-2.17-.1-6.3v-6.3h-5.99c-3.29 0-6.13.03-6.3.06l-.31.07v2.32c0 4.74-.13 10.15-.24 10.15-.08 0-.1-1.8-.08-6.25l.03-6.25H.2v6.25c0 4.1-.03 6.25-.1 6.25S0 49 0 44.8Zm40.63 4.52c.09-1.45.66-2.67 1.63-3.5l.47-.4-.27-.53c-.43-.87-.24-2.04.42-2.63.19-.16.21-.26.16-.71-.08-.63.2-1.25.69-1.56 1.1-.69 2.66.47 2.28 1.7-.09.3-.08.36.14.52.68.54.89 1.88.43 2.76l-.25.48.5.44c1 .9 1.54 2.08 1.59 3.47l.03.79-3.94.03-3.94.02zm-37.9.51c-.31-.79.53-3.02 1.48-3.95l.62-.6-.24-.42c-.45-.79-.26-2.11.4-2.7.17-.16.2-.27.15-.75-.11-1.25 1.02-2.07 2.13-1.54.6.28 1.05 1.2.85 1.74-.08.2-.04.31.25.64.67.79.78 2.08.22 2.78-.25.32-.26.29.25.65.93.67 1.64 2.17 1.69 3.57l.02.7-3.88.03c-3.56.02-3.88.01-3.94-.15Zm31.67-.03c1.09-.14 1.2-.17 1.2-.4 0-.31-.37-.35-3.45-.35-3.23 0-3.85.06-3.85.35 0 .43 3.84.67 6.1.4Zm13.5-.57c-.01-1.35-1.09-3.08-2.15-3.43-.42-.14-.44-.24-.09-.46.9-.59.83-2.36-.12-2.95l-.31-.19.19-.4c.35-.71-.13-1.5-.91-1.5-.81.01-1.31.99-.81 1.62l.19.25-.37.24c-.99.64-1.07 2.01-.15 2.85l.36.33-.46.2c-.96.41-1.83 1.63-2.07 2.9-.19 1.01-.56.91 3.3.91h3.4zm-37.94.19c.17-.11-.09-1.39-.42-2.07-.36-.73-1-1.38-1.59-1.61-.53-.2-.54-.22-.14-.6.84-.8.78-2.28-.11-2.81-.24-.14-.3-.23-.24-.38.24-.75.1-1.36-.37-1.6-.93-.49-1.85.54-1.31 1.47.12.22.14.32.05.35-1.11.39-1.33 2.04-.4 2.95l.39.38-.38.16c-1.15.47-2.24 2.26-2.24 3.66 0 .19 6.48.29 6.76.1Zm21.29-1.18c1.05-.03 2.33-.01 2.85.04 1.1.12 1.02.14.91-.24-.04-.16-.05-.39 0-.5.1-.28-.45-.34-2.85-.34-2.54 0-3.37.08-3.23.31.08.13.08.27 0 .54-.12.37-.12.37.15.31.15-.04 1.13-.09 2.17-.12Zm-.88-1.44c.96-.06 2.1-.06 3.23.01l1.75.1.27-.33c.39-.45.4-.44-.69-.59-1.9-.27-6.83-.09-6.83.24 0 .15.62.77.71.71.04-.02.74-.09 1.56-.14Zm-1.58-1.36c.02-.02-.25-.48-.6-1.03s-.65-.99-.66-.97c-.03.03.2 1.36.32 1.94.05.2.72.25.94.06Zm7.44-.82c.1-.53.17-1.01.17-1.07 0-.05-.27.32-.6.83-.71 1.1-.71 1.1-.22 1.15.2.02.4.04.43.05s.13-.42.22-.96Zm-5.62.45c-.35-.9-1.04-2.63-1.07-2.66-.02-.02-.04.63-.04 1.45v1.49l.59-.03c.57-.04.59-.05.52-.25Zm3.84-1.12c0-.74-.03-1.31-.07-1.27-.07.07-1.08 2.48-1.08 2.57 0 .03.26.05.58.05h.57zm-2.09-.19c-.3-1.4-.46-1.85-.46-1.35 0 .13-.13.81-.29 1.52l-.28 1.27h1.33zm-6.73-8.14c.04-1.52.07-4.31.07-6.19V26H13.1v12.4h12.47zM38.6 32.2V26H25.9v12.4h12.7zm-21.4 5.03c0-.59.24-1.12.94-2.11.96-1.38.98-1.5.15-.88-1.68 1.27-2.86 1.39-3.72.37-.75-.9-.13-2.95 1.57-5.22l.64-.87-.05-.59c-.09-.95.36-1.1.99-.32.39.49.47.49.91 0 .67-.74 1.01-.73 1.13.04.03.25.09.45.13.45 3.12.09 4.91 2.98 4.91 7.98v1.62h-7.6zm23.32.19-.43-.03.03-.67.03-.67.45-.05.45-.05v-.51c.01-.42.06-.57.33-.9l.32-.39v-3.89l-.44-.46-.45-.45-.03-.9c-.03-1.15-.03-1.15.86-1.15.77 0 .96.09.96.47 0 .21.04.23.5.23s.5-.02.5-.23c0-.39.18-.47 1.1-.47s1.1.08 1.1.47c0 .21.04.23.5.23s.5-.02.5-.24c0-.38.21-.47 1.02-.44l.73.03.03 1 .03 1-.46.45-.45.44v3.95l.3.34c.26.3.3.43.3.9v.56l.48.03.47.03.03.59c.02.33-.02.64-.08.7-.09.09-7.49.16-8.68.08Zm-16.5-.99c.15-1.71-.21-4.3-.77-5.46-.63-1.34-2.08-2.27-3.52-2.27-.36 0-.44-.09-.53-.6l-.05-.35-.33.48c-.4.58-.58.59-1.14.1l-.41-.38.07.28c.06.25-.01.38-.47.95-1.35 1.69-2.41 3.85-2.23 4.57.15.59 1.06 1.15 1.06.66 0-.3.29-.55.47-.4.14.12.14.24-.02.61-.17.42.38.12 1.68-.92 1.47-1.19 1.86-1.63 2.12-2.41.1-.28.23-.49.31-.49.19 0 .18.33-.05.88-.11.26-.25.72-.31 1.02-.14.75-.49 1.46-1.23 2.54-.35.5-.68 1.04-.75 1.19-.26.6-.4.57 2.97.57h3.09zm24.68.27c0-.2-.07-.2-4.05-.2s-4.05 0-4.05.2.07.2 4.05.2 4.05 0 4.05-.2Zm-.9-1.1v-.4h-6.2v.8h6.2zm-.5-1.1c-.13-.24-4.94-.32-5.18-.08-.26.26-.04.28 2.58.28 2.68 0 2.71 0 2.6-.2Zm-.17-1.57c.04-.54.07-1.35.07-1.81v-.82h-4.87l-.07.92c-.08 1.18-.08 2.53.01 2.61.03.04 1.13.07 2.43.07h2.37zm-30.36-2.4c-.24-.23.27-1.23.63-1.23.38 0 .42.33.1.84-.27.43-.55.58-.73.39Zm30.73-.88c.11-.13-.22-.15-2.86-.15-2.65.01-2.97.02-2.8.15.3.22 5.48.22 5.66 0Zm.6-1.2v-.55h-.4c-.38 0-.4.02-.4.3v.31l-1.02-.03-1.03-.03-.03-.27c-.03-.27-.06-.28-.57-.28-.36 0-.53.04-.52.13.02.49.03.48-1.05.45l-1.03-.03.02-.27c.02-.26-.01-.28-.38-.28h-.39V29h6.8zm-23.12-2.72.82-.06V12.9H13v12.79l.28.04c.45.07 10.81.07 11.7 0Zm13.57-6.43.01-6.4H26v12.8h12.55zM7.22 25.5h5.48V12.87l-.92.07c-.5.03-3.31.06-6.25.06H.2v12.63l.77-.07c.42-.03 3.23-.06 6.25-.06Zm8.13-.91c-.11-.16.05-1.36.26-2.04.27-.87.81-1.66 1.54-2.23l.27-.21-.21-.44c-.39-.8-.24-2.06.32-2.65.18-.19.22-.36.22-.87 0-.49.06-.71.21-.92.95-1.27 2.81-.62 2.73.96-.02.4.02.54.23.79.62.73.75 1.94.31 2.78l-.2.4.39.28c.86.61 1.57 2.1 1.65 3.44l.06.82h-3.86c-2.65 0-3.88-.03-3.92-.11Zm-12.27-.06-1.28-.04V22.9h.9v-.5c0-.41.05-.55.3-.83l.3-.35v-4.2l-.45-.36-.45-.37v-2l.93.03.92.03.03.28c.05.43.95.38 1-.06l.03-.28 1.07.03 1.07.03.03.27c.05.45 1.02.43 1.02-.02v-.3h1.9v1.99l-.45.37-.45.36v4.17l.3.34c.25.29.3.43.3.85v.51l.48.03.47.03.03.76.03.76-.98.06c-.94.07-4.34.06-7.05 0Zm19.82-.43c0-1.36-.78-2.92-1.84-3.67l-.29-.2.24-.49c.44-.9.18-2.56-.45-2.8q-.12-.045-.12-.75c.01-.69 0-.71-.36-1.05-.97-.88-2.44.01-2.08 1.26.09.31.07.37-.2.65-.64.67-.79 1.74-.35 2.6l.24.49-.62.57c-.92.83-1.36 1.77-1.52 3.22l-.06.57h7.41zm-12.02-.37c-.03-.61-.31-.79-.86-.58-.19.07-6.82.05-7.54-.02L2 23.08v1.22h8.91zm-.98-1.42v-.5H3v.99h6.9zm-.6-3.01v-2.1H3.6v.73c0 .39-.03 1.27-.06 1.94-.04.68-.04 1.3 0 1.38.05.13.45.15 2.91.15H9.3zm.58-2.89c.17-.14.32-.28.32-.33 0-.1-7.44-.11-7.54-.01-.04.04.09.21.29.38l.36.3 3.12-.05c3.12-.05 3.12-.05 3.45-.29Zm.32-1.26v-.65H8.7v.6h-.69c-.69 0-.7 0-.73-.27-.03-.28-.03-.28-.9-.31l-.87-.03-.03.28c-.05.44-1.31.44-1.36 0l-.03-.28-.72.03-.72.03-.03.63-.03.62h7.61zm-.37-2.52 2.87-.06-.02-6.21-.03-6.21L6.44.12.23.1.16.71C.13 1.05.1 3.89.1 7.01v5.69h3.43c1.89 0 4.73-.03 6.3-.07Zm15.75-.02c.09-.01.12-1.33.12-6.26V.1H13.13l-.07.52c-.06.58-.09 11.92-.02 11.99.03.03 11.78.03 12.54 0Zm12.41.03.61-.07V.1H25.9v3.43c0 1.89.03 4.73.07 6.3l.06 2.87h5.67c3.12 0 5.95-.03 6.29-.06Zm1.85-1.25c-.49-.55.44-1.14 2.23-1.4l.71-.11-.19-.32c-.27-.45-.25-1.2.06-1.74l.24-.43-.32-.45c-.85-1.21-.21-3.25 1.33-4.25.46-.3.48-.33.35-.53-.32-.44-.12-1.27.36-1.52.98-.5 2.02.44 1.56 1.41l-.16.33.39.26c1.77 1.17 2.35 3.28 1.23 4.47l-.25.27.26.38c.38.59.42 1.1.13 1.64l-.24.45.98.16c1.55.26 2.41.8 2.07 1.3-.19.29-10.48.37-10.74.08Zm-9.53.04-1.14-.04.06-.53c.07-.69.37-1.27 1.02-1.96.97-1.03 1.77-2.42 1.52-2.66-.06-.07-1.36.98-2.33 1.88-.8.75-.91.78-1.82.54-1.17-.31-1.61-1.15-1.16-2.21.19-.45 1.42-2.66 1.96-3.53.37-.58.39-.66.33-1.12-.14-1.02.3-1.25 1.05-.54l.49.46.47-.51c.63-.69 1.01-.67 1.13.05.06.37.07.37.71.5 2.87.59 4.35 3.12 4.47 7.65l.05 1.96-.23.06c-.23.07-4.27.06-6.58 0Zm19.45-.58c-.28-.21-1.56-.47-2.7-.54-1.25-.07-1.47-.3-.48-.5.56-.11 1.12-.47 1.12-.72 0-.05-1.12-.09-2.5-.09-2.01 0-2.5.03-2.5.13 0 .26.46.57 1.05.7.95.22.81.41-.37.48-1.05.07-2.38.33-2.78.55-.21.11.47.13 4.55.13 4.19 0 4.78-.01 4.61-.14Zm-13.36-.73c-.01-4.85-1.38-7.44-4.16-7.83-.73-.1-.84-.18-.84-.61 0-.38-.1-.35-.44.12-.46.62-.87.62-1.39 0l-.27-.31.06.43c.05.38.01.5-.35 1.05-1.74 2.64-2.43 4.36-1.96 4.82.3.3.75.38.75.14 0-.33.24-.56.49-.48.21.06.23.11.17.49l-.07.41.63-.61c.35-.33.97-.88 1.38-1.21.95-.77 1.47-1.34 1.72-1.9.22-.51.44-.52.41-.02-.1 2.15-.44 3.05-1.69 4.41-.64.69-1.04 1.32-1.04 1.63 0 .13.4.15 3.3.15h3.3zm11.2-1.9c0-.48-.21-.52-2.45-.52s-2.45.04-2.45.52c0 .05 1.1.08 2.45.08s2.45-.03 2.45-.08Zm-.31-1.48c.5-.64.48-1.47-.07-2.47-.24-.45-1.23-1.47-1.42-1.47-.2 0-.17-.33.05-.66.64-.94-.47-1.94-1.26-1.15-.36.37-.38.75-.04 1.21l.25.34-.74.68C42.77 4.4 42.38 5.66 43 6.68l.2.32h3.89zm-2.37-.86c-.06-.07-.12-.26-.14-.43-.03-.26-.08-.31-.38-.35-.53-.08-.53-.62 0-.7.29-.04.36-.1.4-.34.1-.6.7-.6.8 0 .04.23.12.3.35.34.47.08.44.64-.02.68-.29.03-.33.07-.33.32 0 .47-.43.77-.68.48Zm.42-.24c.03-.09.06-.29.06-.45 0-.27.03-.29.35-.29.24 0 .35-.05.35-.15s-.1-.15-.34-.15c-.33 0-.35-.02-.38-.37-.04-.5-.31-.52-.38-.03-.05.32-.08.35-.42.38-.24.02-.38.08-.38.17s.14.15.38.17c.33.03.37.06.4.33.05.55.23.74.36.39ZM28.87 4.23c-.14-.13-.06-.5.18-.86.27-.38.61-.49.71-.22.19.47-.58 1.4-.89 1.08Z"/></svg>