<svg xmlns="http://www.w3.org/2000/svg" width="51" height="51" viewBox="0 0 51 51"><path fill="#fff" fill-rule="evenodd" stroke="#fff" stroke-width=".674" d="M10.99 42.38c-.04-.13-.04-19.2-.01-28.26L11 9.69l8.93.03c8.81.04 8.93.04 10.17.27 8.35 1.54 12.03 7.43 9.86 15.78-.68 2.61-2.53 5.1-4.76 6.4-2.79 1.62-3.98 1.84-10.27 1.9l-4.53.05-.02 4.16-.03 4.17-4.66.03c-3.69.02-4.68 0-4.7-.1Zm2.91-.94c1.42-1.14 2.7-2 3.75-2.54.82-.42 1.2-.55 2.23-.76.26-.05.36-1.74.1-1.74-.32.01-1.45.33-2.39.69-1.89.71-2.74.74-3.22.09-.5-.68-.22-1.44 1-2.71 1.56-1.62 1.84-3.16.84-4.55-.84-1.15-2.89-1.8-4.6-1.46l-.31.07v.93c0 .54.04.94.1.94.26 0 1.26.46 1.55.71 1.2 1.06.56 3.1-1.39 4.46l-.3.21-.04 3.21-.05 3.21h1.78zm6.2-1.1v-1.87l-.49.06c-1.2.14-4.25 1.95-6.05 3.58-.06.05 1.36.09 3.22.09h3.32zm-3.35-3.3c1.69-.61 2.41-.84 2.86-.9l.49-.07v-.49c0-.47-.01-.5-.22-.44-2.05.58-2.67-.1-1.78-1.97.82-1.73.62-2.8-.7-3.84-1.85-1.45-2.32-2.2-1.96-3.07.29-.7 2.07-.94 3.79-.53.38.1.72.17.78.17.05 0 .09-.48.09-1.11v-1.1l-.27.19c-.74.51-1.17.52-3.69.11-1.19-.19-2.46-.32-3.43-.36l-1.53-.06.07 2.29c.04 1.26.08 2.3.09 2.31.01.02.29-.02.62-.07 2.67-.45 5.09 1.26 5.09 3.6 0 1.17-.28 1.74-1.39 2.89-.94.97-1.16 1.33-1.16 1.9 0 .84.86 1.06 2.25.55Zm-4.49-2.5c1.55-1.58 1.29-3.22-.58-3.72l-.38-.1v4.59l.23-.12c.12-.07.45-.36.73-.65Zm7.44.32c.31-.11.36-.18.44-.58.11-.54.2-.58 1.54-.58h.85l-.34-.23c-.88-.6-1.2-1.44-.99-2.64.2-1.14-.09-1.49-1.5-1.79-1.33-.28-1.6-.47-1.6-1.12 0-.82.49-1.29 1.46-1.39.3-.03.54-.09.54-.14 0-.34-3.16-.65-3.94-.39-.98.32-.54 1.62.9 2.67 2.02 1.47 2.33 2.75 1.18 4.93-.63 1.18.05 1.77 1.46 1.26Zm6.85-1.12c.11-.03.36-.28.55-.56 1.63-2.38 5.13-3.23 8.04-1.94.56.25.6.25.84.1.82-.54 2.58-2.72 2.5-3.1-.1-.53-1.85-1.03-3.6-1.04-2.58-.01-3.93-.58-4.4-1.86-.15-.43-.15-.43-.66.09l-.43.44.38.33c.21.18.71.48 1.13.67 1.57.7 1.79.9 1.65 1.54-.2.88-.96 1.27-2.78 1.4-1.62.11-2.39.24-2.95.51-.46.22-.54.34-1.07 1.6-.39.91-.74 1.42-1.19 1.69l-.31.19h1.05c.58 0 1.14-.03 1.25-.06Zm3.85-.19c1.37-.22 2.6-.6 3.59-1.1l.86-.43-.5-.24c-.73-.34-2.59-.34-3.57 0-.88.31-2.58 1.52-2.58 1.84 0 .13 1.18.09 2.2-.07Zm-6.08-.18c.52-.31.72-.62 1.23-1.79.68-1.56 1.06-1.8 3.25-1.99 2.59-.22 3.11-.39 3.4-1.09.21-.5.03-.73-.82-1.05-.84-.32-1.26-.55-1.85-1.03l-.43-.34-.72.26c-.85.3-1.71.46-2.44.46-.29 0-.81.09-1.16.2-1.01.32-1.79.35-2.93.12-2.48-.51-3.45-.3-3.45.73 0 .46.24.62 1.28.86 1.67.38 2.01.8 1.82 2.22-.11.79-.1.97.02 1.27.5 1.18 1.86 1.75 2.8 1.17Zm-.9-2.91c-.94-.52-.72-1.94.35-2.2.15-.04.57-.25.93-.46.65-.39 2.01-.9 2.39-.9.68 0 1.04.57.76 1.2-.26.57-.33.62-2.84 2.17-.59.36-1.17.43-1.59.19Zm1.48-.5c.3-.19.87-.54 1.25-.77 1.2-.73 1.74-1.39 1.44-1.75-.27-.33-1.64-.02-2.69.61-.3.18-.79.43-1.08.55-.8.34-.96.87-.43 1.41.4.4.82.39 1.51-.05Zm14.56-3.59c.2-.6.26-.55-.92-.72-3.96-.6-4.94-1.73-5.14-5.95-.11-2.27-.28-2.93-.95-3.68-1.32-1.47-3.81-1.34-5.98.31l-.69.52.74.07c.4.04 1.04.18 1.43.3s.89.21 1.12.19c1.01-.07 1.97.49 2.45 1.42.32.62.37 1.88.11 2.48-.11.25-.23.67-.27.95-.09.6-.32 1.36-.58 1.88-.25.48-.19.87.23 1.5.6.9 1.3 1.12 3.89 1.26 1.95.09 2.78.28 3.46.79l.39.29.27-.57c.15-.31.34-.78.44-1.04Zm-12.31-.03c3.21-.6 4.82-3.73 3.4-6.61-1.03-2.09-2.41-2.56-7.3-2.51l-2.8.03-.03 4.67-.02 4.67 2.97-.05c2.01-.04 3.24-.1 3.78-.2Zm12.63-1.26c.03-.26.01-.28-.3-.28-1.55 0-2.88-.78-3.51-2.05-.84-1.68-.7-3.54.55-7.33l.6-1.83-.22-.25c-.87-.92-3.7-2.35-5.42-2.73-.52-.12-1.38.55-2.67 2.08-2.96 3.53-4.84 3.61-8.07.36-1.94-1.95-3.51-2.43-5.27-1.62-2.15.98-2.69 3.19-1.43 5.87.93 1.98 1.01 2.96.35 4.28-.51.99-.67 1.08-2.06 1.04l-1.14-.02.03.32.03.33 1.55.06c.98.05 2.26.19 3.5.39 2.23.37 2.68.36 3.34-.06l.46-.29v-2.66l-.48-.47c-.33-.34-.83-.65-1.74-1.1-1.39-.68-1.69-.95-1.94-1.78-.41-1.36.29-2.89 1.41-3.1 1.1-.2 1.99.09 3.6 1.2 1.84 1.27 2.29 1.46 3.39 1.46h.96l.77-.65c1.86-1.55 4.04-1.99 5.7-1.14 1.38.7 1.8 1.67 1.94 4.49.18 3.87.93 4.93 3.91 5.55 1.52.32 2.12.3 2.16-.07Zm.3-1.43c.45-2.86-.05-6.04-1.26-8.04-.47-.78-1.32-1.75-1.43-1.64-.24.24-1.23 3.43-1.49 4.83-.64 3.35.89 5.75 3.6 5.66l.45-.01zm-26.58-1.4c.55-.28.95-1.32.95-2.45v-.95l-.62-1.31c-.99-2.06-1.07-3.1-.38-4.51.69-1.39 1.84-2.14 3.41-2.21 1.63-.08 2.57.4 4.24 2.14 2.24 2.34 4.13 2.71 5.92 1.16.43-.36.63-.59 2.07-2.21.35-.4.86-.9 1.12-1.11l.48-.38-.62-.11c-1.54-.26-3.18-.31-10.78-.31h-7.96l-.06 6.07c-.03 3.35-.04 6.09-.02 6.11.04.04 1.23.19 1.63.21.18 0 .46-.06.62-.14Zm17.98-2.19c-.09-1.31-.73-2.09-1.92-2.3l-.4-.08.43.37c.84.69 1.51 1.79 1.66 2.68.12.66.28.17.23-.67Zm-11.29-3.13c0-.02.58-.03 1.29-.03h1.27l-.6-.33c-.33-.18-.96-.58-1.4-.89-2.33-1.63-4.09-1.58-4.56.14-.37 1.38.2 2.25 2.02 3.12.53.25 1.16.63 1.4.85l.44.39.06-1.62c.03-.88.07-1.62.08-1.63Z"/></svg>