<svg xmlns="http://www.w3.org/2000/svg" width="51" height="51" viewBox="0 0 51 51"><path fill="#fff" fill-rule="evenodd" stroke="#fff" stroke-width=".736" d="M22 51C11.65 49.46 3.48 42.17.82 32.1.36 30.38 0 28.38.01 27.67c.02-.61.02-.6.09.23.17 1.9.91 4.88 1.75 7.05C5.37 44.07 14.11 50.47 23.9 51.1l1.15.07-.9.01c-.49 0-1.46-.08-2.15-.18Zm5.16.1c2.99-.18 6.71-1.08 8.86-2.16.38-.18.68-.32.68-.3 0 .06-2.83 2.42-3 2.5-.18.09.11-.17 1.24-1.12.96-.8 1.02-.93.34-.63-2.3.98-6.31 1.83-8.51 1.79-.89-.01-.88-.01.39-.08Zm-16.09-.91c-1.51-1.16-4.4-3.93-7.95-7.6L.28 39.65l2.89 2.91c4.89 4.94 7.87 7.69 9.01 8.33.09.05.14.12.12.15-.03.03-.58-.35-1.23-.85Zm6.84-17.08c-4.15-4.16-7.68-7.77-7.85-8.02-2.05-3.01-2.09-7.44-.1-10.51 1.61-2.5 4.21-3.93 7.34-4.05 2.96-.12 5.01.7 7.25 2.88l1.03 1 .9-.9c3.97-3.98 9.76-4.09 13.58-.27 3.18 3.18 3.64 7.99 1.14 11.78-.46.69-15.44 15.69-15.64 15.66-.06-.01-3.5-3.42-7.65-7.57Zm13.36 1.72c8.31-8.2 9.71-9.69 10.33-10.97 3.1-6.35-1.59-13.48-8.63-13.13-2.5.12-4.45 1.04-6.44 3.05l-.94.94-1.08-1.05c-2.24-2.19-3.99-2.93-6.86-2.91-5.3.04-8.91 3.72-8.89 9.04 0 1.92.19 2.74 1.01 4.34l.46.91 7.66 7.68c4.21 4.22 7.67 7.67 7.69 7.67s2.58-2.51 5.69-5.57Zm18.37-.43c2.88-8.49 1.55-17.28-3.68-24.25C42.69 5.8 38.03 2.66 32.3.94c-.63-.19-.98-.32-.76-.29 1.26.2 4.76 1.54 6.39 2.46 6.28 3.53 10.71 9.17 12.47 15.87.93 3.54 1.07 8.13.34 11.79-.13.67-.21 1.28-.18 1.36s-.06.37-.19.63c-.13.27-.32.72-.41.99s-.21.57-.27.65c-.09.13-.1.13-.05 0ZM.05 24c.06-2.24.75-5.43 1.7-7.86C4.63 8.83 10.86 3.17 18.44.97 19.9.55 19.85.53 16.85.44 10.48.24 5.06 1.8 1.03 5c-.77.61-.77.61-.23.1C4.38 1.75 11.47-.14 18.47.39c1.4.11 1.66.11 2.05-.03.25-.08.7-.17.99-.2.46-.04.43-.03-.21.1-.41.09-.82.22-.91.3-.08.08-.27.14-.41.14-.37 0-2.87.75-3.85 1.15C6.8 5.72.77 14.1.1 24.15l-.08 1.2zm50.9-11.12c-.29-.93-1.66-3.31-2.74-4.73C44.76 3.61 38.61.69 32.15.54 31.21.52 30.25.46 30 .41c-.57-.12 2.03-.05 3.65.1 7.21.66 13.25 4.45 16.43 10.29.48.88 1.05 2.2.99 2.27-.03.02-.08-.06-.12-.19Z"/></svg>