<svg xmlns="http://www.w3.org/2000/svg" width="51" height="51" viewBox="0 0 51 51"><path fill="#fff" fill-rule="evenodd" stroke="#fff" stroke-width=".737" d="M23.45 42.34c-.16-.02-.66-.09-1.1-.15-4.36-.57-7.12-2.74-6.16-4.84.65-1.45 1.88-1.8 3.57-1.02 3.43 1.57 8.09 1.6 11.57.07 1.56-.68 2.26-.62 3.18.3 1.75 1.76.15 4.07-3.51 5.05-1.88.5-5.91.82-7.55.59Zm4.15-.25c5.14-.47 8.3-2.53 7.16-4.68-.65-1.22-1.76-1.49-3.27-.81-3.53 1.59-8.21 1.58-11.72-.02-1.47-.67-2.18-.6-2.96.29-2.58 2.92 3.54 5.89 10.79 5.22Zm-12.2-9.64c-.6-.19-1.23-.74-1.51-1.31-.21-.45-.22-.56-.2-3.03l.02-2.56.28-.5c1.07-1.92 4.01-1.5 4.5.65.18.79.14 4.58-.06 5.15-.42 1.26-1.8 1.98-3.03 1.6Zm19.31.04c-.77-.23-1.42-.87-1.69-1.68-.16-.46-.16-4.79 0-5.32.62-2.08 3.6-2.24 4.54-.24.3.63.37 4.86.09 5.64-.41 1.18-1.81 1.94-2.94 1.6Zm-17.76-.38c.49-.22.96-.68 1.19-1.14.23-.5.24-4.99 0-5.55a2.184 2.184 0 0 0-3.48-.81c-.73.65-.77.86-.74 3.7l.03 2.46.3.48c.57.91 1.75 1.29 2.7.86Zm19.18.06c.47-.2.95-.64 1.2-1.11.26-.49.39-4.17.17-5.2-.4-1.95-2.87-2.46-3.98-.82l-.32.48v2.6c0 2.37.02 2.62.2 2.97.5.98 1.76 1.48 2.73 1.08ZM23.57 20.34c-2.87-.44-5.85-1.84-7.06-3.31l-.29-.35-.43.47c-2.15 2.33-7.23 3.96-9.04 2.9-1.27-.74-1.53-2.18-.57-3.18.43-.46.94-.66 2.09-.83 3.34-.5 4.96-2.25 5.39-5.84.17-1.45 1.09-2.3 2.5-2.3 1.6 0 2.41.75 2.64 2.45.53 3.86 2.61 5.71 6.65 5.92 4.31.22 6.93-1.89 7.45-5.99.19-1.58 1.05-2.38 2.53-2.38 1.6 0 2.39.76 2.63 2.51.48 3.5 2.09 5.22 5.32 5.64 1.29.17 1.84.43 2.29 1.09 1.05 1.54-.13 3.22-2.22 3.19-2.57-.03-5.37-1.14-7.18-2.84l-.81-.75-.54.53c-2.49 2.45-7.19 3.72-11.35 3.07Zm5.14-.33c2.5-.5 4.52-1.48 6.05-2.93l.7-.67.72.69c1.9 1.83 4.77 3 7.36 3 2.31 0 3.13-2.49 1.16-3.5-.21-.11-.77-.24-1.26-.3-3.57-.43-4.95-1.98-5.73-6.44-.19-1.09-.97-1.69-2.21-1.7-1.53-.02-2.17.61-2.39 2.36-.4 3.05-1.84 4.84-4.53 5.62-1.24.36-2.49.48-3.6.36-3.84-.43-5.92-2.33-6.38-5.83-.14-1.04-.25-1.4-.57-1.78-.95-1.13-3.23-.95-3.88.31-.08.15-.21.73-.29 1.28-.54 3.61-2.25 5.38-5.61 5.81-2.05.27-2.97 1.5-2.14 2.87.42.69.91.89 2.19.89 2.74-.01 5.42-1.14 7.3-3.06l.6-.62.73.7c1.78 1.73 4.26 2.76 7.67 3.17.76.09 3.18-.04 4.11-.23Z"/></svg>