<svg xmlns="http://www.w3.org/2000/svg" width="51" height="51" viewBox="0 0 51 51"><path fill="#fff" fill-rule="evenodd" stroke="#fff" stroke-width=".769" d="M37.2 44.35c-4.14-.77-6.1-5.34-3.79-8.8 2.41-3.59 7.73-3.32 9.76.51 2.19 4.13-1.42 9.14-5.97 8.29Zm-24.82-.22c-6.09-.03-6.88-.05-6.88-.18 0-.15 3.86-5.95 8.48-12.75 1.11-1.62 3.03-4.47 4.29-6.34 7.56-11.21 11.7-17.32 12.02-17.7.16-.18 15.54-.26 15.66-.07.03.05-.57.99-1.33 2.08-1.6 2.29-6.8 9.71-9.19 13.1-.89 1.28-1.63 2.37-1.63 2.42s.78 1.14 1.73 2.43c1.7 2.28 3.55 4.9 3.64 5.15.04.1-.19.13-.99.13-1.91 0-3.21.53-4.54 1.85-2.51 2.49-2.5 6.47.03 8.98.89.88.91.87-1 .87h-1.64l-2.2-3.32a447 447 0 0 1-2.63-4.01l-.42-.67-.32.42c-.35.46-1.37 1.89-3.85 5.4-1.51 2.13-1.68 2.31-2.16 2.25-.11-.01-3.29-.03-7.07-.04Zm27.39-.18c4.67-1.57 5.17-8.04.79-10.15-5.54-2.66-10.66 4.46-6.29 8.76 1.46 1.45 3.67 2 5.5 1.39ZM21.4 41.83c3.76-5.35 4.34-6.14 4.43-6.02.02.02.91 1.37 1.98 2.99 1.06 1.62 2.25 3.42 2.65 4l.71 1.05 1.41.03 1.4.03-.61-.63c-2.28-2.33-2.43-6.24-.34-8.77 1.24-1.48 2.76-2.23 4.85-2.37l.91-.07-.52-.76c-.47-.7-2.53-3.53-4.11-5.65-.37-.5-.64-.96-.61-1.04.04-.12 6.48-9.34 10.69-15.32l1.38-1.95-4.89-.09c-2.68-.04-6.1-.05-7.58-.01l-2.71.07-1.89 2.77c-1.83 2.68-3.5 5.15-9.91 14.64-5.25 7.77-9.32 13.81-11.07 16.4-.92 1.36-1.7 2.54-1.73 2.62-.05.13.78.15 7.02.15l7.09-.01zm15.62.78c-2.25-2.02-2.65-2.66-2.11-3.35.39-.49.86-.38 1.69.4l.7.66v-2.85c0-2.83 0-2.86.23-3.12.32-.37.89-.37 1.26-.01l.26.27-.03 2.79c-.02 1.54 0 2.8.03 2.8.04 0 .36-.27.72-.6.81-.74 1.23-.81 1.68-.28.5.59.23 1.01-1.83 2.93-1.51 1.41-1.45 1.4-2.6.36Zm1.65.2c.26-.21.99-.9 1.61-1.53 1.24-1.27 1.39-1.6.87-1.94-.37-.24-.64-.12-1.43.62-.4.36-.76.63-.82.59s-.1-1.1-.1-2.97c0-3.25-.01-3.28-.66-3.28-.62 0-.64.1-.64 3.32 0 1.93-.04 2.89-.11 2.93-.06.04-.43-.25-.84-.64-.79-.77-1.09-.87-1.45-.51-.27.27-.25.65.06 1.06.33.43 2.8 2.74 2.93 2.74.05 0 .31-.17.58-.39ZM16.14 24.62c-.7-.98-3.64-4.98-5.15-7.02C4.46 8.81 3.35 7.27 3.44 7.11c.05-.08 2.39-.11 8.1-.11h8.03l1.19 1.53c4.85 6.17 4.32 5.42 4.07 5.7-.11.12-1.26 1.68-2.56 3.47-4.34 5.98-5.44 7.45-5.58 7.47-.08.02-.32-.23-.55-.55Zm2.01-1.65c.77-1.06 2.49-3.43 3.84-5.27 1.34-1.84 2.5-3.45 2.58-3.57.13-.2.03-.35-1.89-2.8-1.12-1.42-2.3-2.93-2.62-3.35l-.58-.78-5.97.01c-3.28.01-6.82.04-7.88.08l-1.91.06 2.06 2.82c1.14 1.54 3.15 4.27 4.47 6.05 3.52 4.74 4.82 6.51 5.65 7.66.4.56.76 1.02.79 1.01.03 0 .69-.87 1.46-1.92Z"/></svg>