<svg xmlns="http://www.w3.org/2000/svg" width="51" height="51" viewBox="0 0 51 51"><path fill="#fff" fill-rule="evenodd" stroke="#fff" stroke-width=".456" d="M31.65 37.54c-1.19-.18-3.25-.7-4.03-1.01l-.62-.25v-5.3l.23.05c.12.03.64.22 1.16.42 3.47 1.35 7.46 1.28 8.19-.15.76-1.5-.16-2.35-3.88-3.6-4.64-1.57-5.76-2.86-5.74-6.65.01-3.56 1.29-5.87 3.82-6.9 2.26-.92 7.86-.67 10.54.47l.47.2-.06 2.66c-.02 1.47-.07 2.69-.09 2.72-.03.02-.26-.03-.52-.13-2.57-.97-3.71-1.21-5.57-1.22-2.08 0-2.75.39-2.75 1.61 0 .97.55 1.42 2.66 2.14 5.73 1.95 7.49 3.88 7.31 8-.16 3.51-1.73 5.79-4.57 6.64-1.54.46-4.59.6-6.55.3Zm4.34-.14c4.42-.46 6.5-2.75 6.52-7.2.03-3.73-1.44-5.3-6.71-7.2-2.52-.91-3.1-1.3-3.25-2.2-.43-2.57 3.48-2.99 8.78-.95.16.07.17-.09.17-2.43v-2.49l-.78-.26c-2.57-.85-6.76-1.12-8.87-.58-3.04.79-4.48 2.84-4.62 6.57-.15 3.89.9 5.19 5.42 6.74 3.52 1.21 4.36 1.82 4.36 3.15 0 .86-.35 1.35-1.26 1.77-.47.22-.62.23-2.55.23-2.29 0-3.16-.16-5.06-.9-.49-.19-.89-.35-.89-.35v4.84l1.05.34c2.57.83 5.33 1.16 7.69.92Zm-26.52-.1c-.19-.12-.24-6.86-.1-16.73l.06-4.87.62-.39c1.2-.76 2.91-1.31 4.07-1.31h.58l2.89 5.78 2.9 5.77v-3.81c.01-2.09.04-4.69.08-5.78l.06-1.96 2.71.02 2.71.03.03 11.54c.01 7.76-.01 11.58-.08 11.65-.11.11-4.78.17-5.19.06-.27-.07-.47-.42-3.94-7.14l-1.96-3.8-.03 5.41c-.02 2.98-.07 5.45-.11 5.5-.13.12-5.09.15-5.3.03Zm5.15-3.62c.02-1.89.03-4.45.03-5.7 0-1.99.04-2.53.19-2.37.02.02.45.87.96 1.89 1.17 2.34 4.79 9.31 4.92 9.48.08.09.72.12 2.58.12h2.48l.07-.62c.03-.35.05-5.49.03-11.43l-.03-10.8h-5l-.05 5.98c-.03 3.86-.09 5.98-.15 5.99s-1.46-2.68-3.12-5.98c-1.79-3.56-3.07-6-3.16-6.02-.69-.14-3.12.61-4.16 1.28l-.61.4v21.2h5z"/></svg>