<svg xmlns="http://www.w3.org/2000/svg" width="51" height="51" viewBox="0 0 51 51"><path fill="#fff" fill-rule="evenodd" stroke="#fff" stroke-width=".726" d="M16.7 39.19C6.41 38.32.97 26.96 6.68 18.3c3.89-5.9 12.47-7.59 18.42-3.64l.67.45.69-.44c3.86-2.49 8.9-2.77 13.09-.73 6.27 3.06 9.11 10.2 6.66 16.71-3.01 7.98-12.44 11.13-19.77 6.59-.84-.53-.72-.52-1.36-.1-2.45 1.56-5.46 2.3-8.38 2.05Zm18.65-.2c7.54-.92 12.77-8.22 11.25-15.69-1.5-7.35-8.93-11.93-16.32-10.06-1.43.36-2.72.96-4.31 2.01-.21.13-.27.11-.85-.3-5.03-3.5-12.28-2.78-16.72 1.65-3.97 3.98-4.94 10.17-2.37 15.25 3.45 6.83 12.1 9.2 18.82 5.16l.86-.52.77.49c2.67 1.71 5.7 2.4 8.87 2.01Zm-18.99-1.6C8.93 36.36 4.31 28.83 6.87 21.9c.71-1.92 1.19-2.57 1.61-2.18.15.14 1.37 1.08 2.72 2.1s3.15 2.38 4 3.03 2.48 1.88 3.62 2.74l2.07 1.56.27.85c.51 1.67 1.57 3.57 2.64 4.73.66.73.65.76-.61 1.4-2.08 1.06-4.75 1.55-6.83 1.26Zm15.19-.05c-7.42-1.33-11.61-9.56-8.32-16.38 1.72-3.56 5.17-6.03 9.08-6.51l.56-.07.06 4.53c.09 5.79.09 16.48.01 17.67-.08 1.07.02 1.01-1.39.76Zm3.02.09c-.1-.09-.09-22.91.01-22.97.31-.19 2.8.44 3.98 1 10.28 4.87 8.26 19.94-2.93 21.89-.98.17-.97.17-1.06.08Zm-14.86-.38c1.38-.26 4-1.26 4.22-1.61.03-.05-.15-.34-.4-.64a14.6 14.6 0 0 1-2.58-4.7c-.25-.76-.33-.89-.69-1.15-.83-.59-11.52-8.69-11.79-8.93-.32-.31-.36-.27-.87.75-4.12 8.29 3.07 17.94 12.11 16.28Zm12.99-11.1V14.7h-.32c-1.01.01-3.08.69-4.33 1.42-8.24 4.84-7.42 16.72 1.4 20.38.84.34 2.23.68 2.88.69l.37.01zm3.92 10.96c8.23-2.11 11.23-12.67 5.32-18.75-1.81-1.85-5.01-3.46-6.9-3.46h-.24v22.53l.53-.06c.29-.04.87-.15 1.29-.26ZM18.24 25.18c-1.1-.83-3.6-2.72-5.56-4.21L9.1 18.28l.21-.27c.68-.87 2.62-2.25 3.95-2.81 3.62-1.5 8.28-1.05 11.01 1.08l.22.17-.79.9c-1.75 2-2.85 4.54-3.11 7.2-.06.61-.13 1.34-.15 1.63-.03.28-.09.52-.14.52-.04 0-.97-.68-2.06-1.52Zm2.22-1.38c.36-2.41 1.42-4.72 3.07-6.62.7-.82.75-.71-.63-1.42-4.21-2.18-9.43-1.43-12.82 1.82l-.67.64 1.87 1.4c4.77 3.59 8.73 6.61 8.79 6.72.05.06.11-.25.15-.69s.15-1.27.24-1.85Z"/></svg>