<svg xmlns="http://www.w3.org/2000/svg" width="51" height="51" viewBox="0 0 51 51"><path fill="#fff" fill-rule="evenodd" stroke="#fff" stroke-width=".609" d="M23.7 46.49c-1.81-.15-4.14-.65-4.94-1.06-.75-.38-.74-.4 1.19-5.23 1.61-4.04 1.71-4.33 1.58-4.63-.17-.37-2.37-2.26-5.43-4.66-6.17-4.84-8.13-6.88-9.81-10.19-.58-1.13-.6-1.35-.18-2.39C9.92 8.73 19.8 3.37 29.85 5.45c1.68.35 1.62 1.46-.24 4.44-.28.46-.5.85-.49.86 9.25 6.92 13.44 11.68 15.47 17.59.91 2.64.94 3.25.25 5.05-3.28 8.5-11.94 13.87-21.14 13.1Zm4.32-.35c7.62-.95 14.05-6.01 16.72-13.16.64-1.71.25-3.58-1.44-7.03-2.28-4.64-5.41-8.07-12.17-13.33-1.22-.95-2.24-1.76-2.27-1.81-.03-.04.16-.41.41-.82.96-1.54 1.68-3.2 1.61-3.7-.08-.62-2.89-1.06-6.17-.96-7.96.23-14.88 5.01-18.12 12.5-.7 1.6-.7 1.56-.1 2.75 1.37 2.73 3.78 5.39 7.62 8.43 4.57 3.62 5.84 4.65 6.8 5.57l1.04.99-.19.59c-.1.32-.82 2.21-1.61 4.19-1.99 4.98-1.95 4.68-.66 5.09 2.51.79 5.75 1.05 8.53.7Zm-2.42-1.13c0-.05.43-1.14.96-2.43 3.69-8.95 3.38-9.81-6.33-17.34-6.56-5.09-8.29-7.32-8.93-11.51l-.12-.82.31-.39c.17-.22.49-.56.71-.76.26-.24.4-.44.4-.61 0-.14.04-.25.09-.25s.11.71.14 1.58c.12 3.95 1.88 6.58 7.02 10.48 8.33 6.33 10.51 8.91 10.49 12.44-.01 1.84-.47 3.33-2.32 7.6l-.89 2.05-.77.03c-.43.02-.76-.01-.76-.07Zm-2.62-.08c-.16-.02-.28-.05-.28-.06 0-.07 1.39-3.6 2.13-5.42 1.07-2.65 1.34-3.68 1.17-4.48-.31-1.54-2.18-3.4-7.7-7.72-5.91-4.62-7.87-6.86-9.05-10.34-.34-1-.33-1.07.25-1.9.49-.69.7-.81.7-.41 0 .36.62 2.14 1.05 3.05 1.27 2.63 2.94 4.38 7.85 8.2 7.06 5.5 8.46 7.09 8.44 9.6 0 1.47-.14 1.87-3.12 9.17-.16.4-.44.46-1.44.31Zm5.06-2.61c3.67-8.64 3.01-10.34-7.04-18.16-6.61-5.15-8.2-7.27-8.47-11.34l-.06-.93-.52.51-.52.51.14.87c.59 3.81 2.45 6.35 7.58 10.31 7.6 5.87 9.44 7.84 9.85 10.5.26 1.64-.11 2.99-2.24 8.15-.47 1.15-.86 2.09-.86 2.1 0 0 .24-.01.54-.02l.55-.04zm.63 2.5c-.03-.04.31-.89.74-1.89 3.98-9.27 3.08-11.68-7.36-19.83-6.82-5.33-8.24-7.37-8.02-11.51.07-1.33.11-1.41 1.1-2.02.92-.58 1-.59.83-.09-.43 1.22-.53 3.27-.22 4.42.58 2.12 2.03 3.88 5.4 6.54 5.49 4.32 6.25 4.97 8.06 6.83 4.81 4.93 5.14 8.72 1.46 16.64l-.27.57-.72.17c-.39.09-.77.18-.84.2s-.14.01-.16-.03Zm-4.12-1.14c3.21-7.66 3.38-8.65 1.87-10.93-.92-1.37-2.66-2.95-7.27-6.55-6.23-4.87-8.28-7.38-9.1-11.15-.08-.34-.13-.3-.61.51l-.24.41.31.89c1.01 2.85 2.91 5.35 6.04 7.91.33.27 1.66 1.32 2.95 2.33 7.68 6.01 8.52 7.21 7.33 10.45-.23.61-.95 2.45-1.62 4.1l-1.21 3 .43.06c.23.03.47.07.53.07.07.01.33-.49.59-1.1Zm-4.12.79c-.24-.05-.43-.16-.43-.23 0-.21.82-2.35 1.6-4.2 1.21-2.84 1.74-4.51 1.54-4.83-.55-.88-2.91-2.93-7.54-6.55-4.54-3.55-6.54-5.69-7.9-8.46l-.42-.85.35-.85c.32-.76.57-1.12.57-.8 0 .22 1.08 2.28 1.59 3.04 1.57 2.33 3.16 3.85 7.86 7.5 4.01 3.13 5.86 4.78 6.7 6.01.76 1.1.67 1.56-1.22 6.15-.6 1.46-1.22 3-1.38 3.43-.31.86-.35.88-1.32.64Zm9.32-.1.5-.13.67-1.55c3.8-8.76 2.54-12.24-7.18-19.88-5.6-4.41-6.47-5.23-7.49-7.05-.99-1.77-1.25-4.43-.59-6.1.05-.13-.12-.06-.59.25-.79.53-.82.6-.75 2.62.12 3.59 1.47 5.39 7.69 10.22 10.85 8.44 11.7 10.86 7.35 20.93-.38.89-.39.89.39.69Zm-8.25-.59c.13-.35.72-1.82 1.32-3.27 1.25-3.05 1.78-4.54 1.78-5.02 0-1.15-1.95-3.06-7.45-7.33-4.93-3.82-7.03-6.02-8.52-8.93l-.57-1.13-.24.6c-.29.72-.27.79.39 1.95.88 1.55 1.59 2.45 3.14 4.01 1.45 1.45 1.94 1.86 7.41 6.18 2.24 1.78 4.74 4.19 4.74 4.58 0 .38-.9 2.93-1.63 4.63-.67 1.57-1.57 3.88-1.57 4.04 0 .05.21.13.48.19.26.05.48.1.48.11.01 0 .12-.27.24-.61Zm10.6.03c0-.05.25-.7.54-1.44 3-7.47 2.24-11.34-3.26-16.73-1.74-1.71-2.34-2.2-6.68-5.55-5.77-4.44-6.78-6.48-5.39-10.86.34-1.05.39-1.1 1.46-1.49.92-.34.93-.33.5.68-2.04 4.83-1.45 5.98 5.93 11.69 10.33 7.98 12.47 12.73 9.52 21.16-.7 1.99-.63 1.9-1.61 2.29-.91.36-1.01.39-1.01.25Zm1.77-.98c.22-.34 1.32-3.77 1.55-4.83.33-1.58.31-4.07-.04-5.41-1.12-4.19-3.62-7.08-11.18-12.96-3.92-3.05-5.04-4.15-5.74-5.63-.6-1.28-.47-3.05.38-5.18.41-1.03.43-.99-.33-.72-.58.22-.61.24-.81.77-1.72 4.6-.75 6.48 6.05 11.73 11.38 8.78 12.98 12.89 8.81 22.61l-.15.37.67-.28c.37-.16.72-.37.79-.47Zm1.98-1c.77-1.9 1.28-4.51 1.28-6.53-.01-5.48-2.71-9.55-10.31-15.51-5.89-4.62-6.82-5.51-7.24-6.92-.26-.87.26-2.85 1.28-4.88l.53-1.06.76-.12c.42-.06.84-.11.94-.11.15 0 .03.31-.71 1.77-.68 1.37-.95 2.02-1.14 2.81l-.26 1.02.26.44c.62 1.07 1.4 1.79 4.96 4.59 5.58 4.41 7.7 6.44 9.66 9.24 2.79 3.98 3.53 8.19 2.28 12.93-.31 1.19-.36 1.26-1.34 1.94-.86.59-1.07.67-.95.39Zm1.16-.86c.53-.37.58-.44.78-1.11 1.46-4.92.61-9.53-2.53-13.72-1.84-2.47-4.17-4.66-8.86-8.34-4.71-3.69-5.7-4.72-5.57-5.81.13-1.04 1.06-3.38 1.84-4.62l.25-.4-.58.08c-.84.1-.82.09-1.39 1.29-2.08 4.41-1.73 5.23 4.25 9.87 3.4 2.64 4.44 3.51 6.12 5.1 5.71 5.4 7.26 10.45 5.24 17.09-.18.6-.28 1.06-.22 1.03.06-.04.36-.24.67-.46Zm2.59-2.14c0-.05.08-.49.17-.98.26-1.39.24-3.98-.05-5.43-1-4.97-3.91-9-9.98-13.81-.94-.75-2.65-2.1-3.8-3.01-2.7-2.13-3.77-3.18-3.68-3.57.17-.73 1.11-2.91 1.76-4.08l.73-1.3.93-.03c.5-.01.92 0 .92.02 0 .03-.17.34-.38.68-.55.89-1.53 2.79-1.92 3.71l-.34.77.35.37c.19.2 1.78 1.51 3.54 2.91 8.46 6.75 11.17 9.9 12.8 14.86.85 2.56 1.17 6.22.63 6.99-.61.87-1.68 2.08-1.68 1.9Zm1.26-1.78.47-.6-.06-1.55a17.7 17.7 0 0 0-1.75-7.14c-1.83-3.82-4.45-6.6-11.57-12.28-1.76-1.41-3.44-2.78-3.73-3.04l-.54-.49.25-.65c.3-.8 1.2-2.61 1.82-3.65.25-.42.45-.79.45-.81s-.27-.04-.6-.04H25l-.31.47c-.52.81-1.63 3.13-1.94 4.06l-.3.88.9.87c.89.86 2.03 1.79 5.87 4.79 8.71 6.81 11.9 12.66 10.82 19.88l-.06.4.21-.25c.12-.14.42-.52.67-.85Zm1.75-3.87c-.38-3.19-1.37-5.84-3.2-8.59-2.2-3.29-4.37-5.38-11.11-10.66-1.35-1.05-2.56-2.03-2.7-2.18l-.24-.26.38-.77c.21-.42.79-1.5 1.29-2.4l.92-1.62.55.05c1.25.13 1.26-.05-.1 2.33-.6 1.06-1.1 1.94-1.1 1.97 0 .02 1.34 1.1 2.98 2.41 8.83 7.05 11.93 10.98 13.48 17.06l.25 1-.27.72c-.43 1.11-.82 1.96-.92 1.96-.05 0-.14-.46-.21-1.02Zm.73-.62c.44-1.1.44-1.07.01-2.56-1.67-5.79-4.58-9.43-12.85-16.05-1.73-1.39-3.23-2.61-3.33-2.72-.16-.19-.14-.25.69-1.69.47-.82.96-1.7 1.09-1.95l.24-.47-.31-.06c-.74-.15-.79-.12-1.32.82-.76 1.34-1.86 3.46-1.86 3.57 0 .12.65.66 2.98 2.47 6.05 4.73 7.98 6.51 10.08 9.34 2.39 3.2 3.7 6.31 4.09 9.67.04.32.08.57.1.55.02-.01.19-.43.39-.92Z"/></svg>