<svg xmlns="http://www.w3.org/2000/svg" width="51" height="51" viewBox="0 0 51 51"><path fill="#fff" fill-rule="evenodd" stroke="#fff" stroke-width=".393" d="M37.77 49.1c-2.24-.28-4.54-1.67-5.81-3.53-.58-.85-.38-.79.29.08 2.66 3.47 7.48 4.21 10.89 1.66 3.05-2.29 4.62-5.54 4.59-9.51-.02-3.88-.8-5.13-5.28-8.43l-.9-.67-.03 1.37c-.02.84.01 1.4.08 1.47s.1-.2.11-.85c0-.74.15-1.73.18-1.23.01.06.57.55 1.26 1.08 3.25 2.51 4.05 3.97 4.05 7.35 0 8.85-8.58 13.27-13.56 6.98-2.42-3.05-3.13-7.79-1.63-10.82.56-1.13.88-1.49.4-.45-.56 1.2-.81 2.18-.86 3.35-.04.98-.04.99.06.3.11-.84.43-2.04.7-2.64.1-.24.19-.5.19-.57 0-.09.11-.14.29-.14.39 0 .47-.57.32-2.14-.13-1.3-.12-1.29-.57-.85-2.2 2.1-2.79 3.7-2.71 7.27.08 3.32.75 5.64 2.28 7.9.69 1 1.26 1.58 2.54 2.57.18.15.17.15-.12.01-2.87-1.39-4.89-5.72-5-10.77-.08-3.66.33-4.8 2.54-6.97 1.14-1.13 1.15-1.13 1.29.17.14 1.22.15 1.23.47.69.14-.24.41-.58.61-.77.29-.28.34-.39.29-.62-.03-.18-.01-.29.06-.29.06 0 .11.07.11.15 0 .07.08.18.17.24.15.08.13.14-.21.51-.22.25-.35.48-.32.57.23.58.17.83-.08.36l-.14-.27-.31.49c-.36.56-.35.54-.52 1.85-.06.52-.18 1.1-.27 1.28-.28.62.28.39 1.11-.46l.37-.38-.3-.17c-.17-.1-.3-.23-.3-.28 0-.06.14.01.32.16.39.33.58.19.65-.49.06-.49.23-.54.23-.06 0 .74-1.77 2.71-2.2 2.45-.15-.09-.12.11.03.23.09.08.26.03.62-.2.89-.55 1.54-.81 1.91-.75.28.05.34.03.34-.12 0-.57-1.23-8.36-1.7-10.76-.34-1.78-.39-2.26-.23-2.32.13-.05.19.11.28.8.06.45.08.47.38.47.72 0 .79-.07.72-.65-.06-.43-.04-.53.09-.58.1-.04.16-.01.16.08 0 .35.34 2.68.65 4.5 1.01 5.86 1.62 10.29 1.45 10.5-.08.1-.08.24 0 .55.08.3.08.51.01.72-.09.26-.08.29.05.24.51-.2.58.52.09.91-.19.15-.35.34-.35.41 0 .21-.54-.12-.89-.55-.45-.54-.3-.52.23.03.25.26.49.44.53.41.04-.04.01-.13-.05-.19a.5.5 0 0 1-.12-.33c0-.26-.88-.68-1.13-.53-.39.21.57 1.8 1.21 1.97.44.13.43.13.44-.4 0-.58.03-.61.44-.44.42.17.94.04.75-.19-.09-.11-.07-.22.06-.5.24-.47.55-.48.8-.01.1.17.12.15.22-.2.27-1.04.2-2.16-.15-2.29-.13-.05-.13-.1.02-.35.16-.28.16-.31 0-.56l-.18-.28-.35.36c-.35.35-.37.43-.11.79.2.28 0 .33-.28.07-.61-.57-.68-1.03-.18-1.19.46-.16.55-.06.14.15-.24.12-.29.2-.21.28s.19.03.41-.18c.48-.46.37-.67-.37-.79-.41-.06-.43-.05-.43.18 0 .33-.1.56-.24.56-.09 0-.09-.14-.02-.56l.11-.56.42.04.42.03-.23-.3c-1.08-1.42-1.2-1.83-.22-.72 2.32 2.62 2.91 4.06 2.33 5.6-.32.83-.44.67-.21-.29.22-.95-.02-2.32-.45-2.58-.19-.12-.32.04-.16.2.36.36.44 1.28.19 2.35-.09.39-.13.81-.1.95.17.68-1.69 1.88-2.4 1.55-.16-.07-.24-.17-.21-.25.04-.1-.05-.15-.28-.18-.37-.04-.37-.03.08.55s.14.44-.42-.2c-.38-.43-.61-.82-.91-1.58-.41-1.03-.52-1.1-.24-.14.32 1.1 1.14 2.25 1.73 2.44.12.03.19.11.16.16-.19.3-1.25-.55-1.7-1.36-.3-.54-.39-.8-.6-1.79-.05-.23-.08-.27-.16-.15-.13.21-.11.79.07 1.38.21.73.12.73-.2 0-.35-.76-.31-1.72.07-1.84.16-.05.18-.08.08-.12-.09-.03-.26.08-.43.28l-.29.34.04-1c.02-.76.08-1.12.25-1.49.24-.54.41-.57.23-.04-.06.18-.14.67-.16 1.08-.05.85 0 .66.3-1.09.18-1.04.19-1.02-.6-.63-.59.29-.65.35-.66.64-.01.32-.01.32-.08.06l-.06-.28-.31.19c-1.01.62-.31 4.88.91 5.51.16.08.38.23.5.33 4.46 3.95 10.21-1.49 7.64-7.22-.42-.92-1.71-2.46-2.07-2.46-.04 0-.23-.12-.43-.27-.46-.36-1.14-.66-1.69-.74l-.45-.07.35.39.35.38-.47-.42c-.26-.23-.57-.42-.68-.42s-.2-.03-.2-.07c0-.1 1.19-2.11 1.64-2.76l.4-.58-.57-1.15c-.7-1.41-.66-1.44.14-.13.54.88.65 1 .83.94.42-.14 1.04-.17 1.26-.05.72.39-.67-1.76-1.78-2.74-.3-.26-.28-.41.13-.83.39-.4.4-.44.24-1.29-.13-.69-.41-1.24-.79-1.52-1.18-.88-5.74-2.73-8.08-3.28-1.27-.3-3.01-.86-4.73-1.52l-1.26-.48-.19.21c-.1.11-.96.66-1.89 1.22-.94.56-1.95 1.2-2.24 1.43l-.52.42.38.38c.22.22.59.45.88.54.98.33 1.25.59.31.31-.86-.26-.9-.23-.61.38l.26.52-.26-.3c-.15-.16-.44-.58-.66-.92-.47-.77-.36-.78-1.5.07-.51.39-1.15.85-1.41 1.02-.56.35-.58.42-.18.94.34.45.39.66.1.39-.11-.1-.2-.15-.2-.11 0 .06.18.45.25.53.01.02.16-.01.33-.06.44-.13.4 0-.13.37-.77.54-.77.56.08 2.43.68 1.5 1.28 3.11 1.27 3.42-.01.19-.28-.36-.64-1.31-.19-.48-.63-1.47-.98-2.21l-.64-1.34-.2.34c-.94 1.59-.88 2.37.22 2.88.64.3.64.25.04-.94-.29-.58-.51-1.08-.48-1.11.22-.22 1.69 2.74 1.93 3.86.1.49-.07.29-.41-.5-.15-.36-.3-.68-.34-.73-.11-.13-2.2 1.02-2.2 1.22 0 .11.23.28.65.49.36.18.85.49 1.08.71.39.36 1.36 1.01 1.51 1.01.03 0 .06-.19.06-.43 0-.94.24-1.33.98-1.61.9-.35.88-.35 1.94.35 1.2.78 1.22.83.16.26l-.86-.47-.06.37c-.22 1.55-.29 1.84-.39 1.74-.07-.07-.06-.42.04-1.16.08-.59.11-1.09.07-1.11-.12-.08-.78.16-.78.27 0 .05-.07.09-.15.09-.17 0-.55.35-.55.49 0 .05.14.09.32.09.64-.02.91.8.43 1.28-.31.31-.31.31.07.37.18.04.48.09.66.13.21.04.32.02.32-.05 0-.06-.15-.11-.32-.12l-.33-.01.31-.08c.18-.04.49-.18.7-.31l.39-.23-.23.31c-.38.54-.31.65.66 1.08 1.88.83 4.28 2.28 5.65 3.39l.54.44.01-1.31c.01-3.34.9-5.18 3.52-7.32 1.4-1.15 1.99-1.75 2.19-2.22.15-.37.31-.43.31-.13 0 .28-.25.76-.67 1.27l-.34.42.12.84.12.85.28-.17c.27-.15.47-.12.36.06-.03.05-.68.52-1.44 1.05-.76.54-1.71 1.29-2.11 1.69-.71.71-.99.84-.72.33.22-.4 1.47-1.54 2.46-2.23.49-.35.9-.64.91-.66.04-.02-.24-1.45-.29-1.5-.05-.06-1.75 1.29-2.37 1.88-1.68 1.62-2.47 5.88-1.67 9.05.33 1.33.32 1.37-.09.27l-.33-.9-.12.41c-.11.38-.1.47.14 1.07.31.78.33.95.05.47-.11-.19-.17-.26-.14-.15.31.94.65 2.1.65 2.19 0 .06-.26-.54-.57-1.34-.62-1.6-.62-1.61-.39-2.4.25-.82.16-1.11-.52-1.68-1.78-1.47-5.49-3.44-7.52-3.97-.92-.24-2.37-.97-3-1.51-.49-.42-1.37-.94-1.58-.94-.05 0-.12.24-.16.53-.03.3-.12.72-.2.94-.33.94.49 1.53 4.59 3.3 1.36.58 2.05.95 1.5.8-.11-.03-.49-.13-.85-.22-1.43-.36-4.09-1.69-4.97-2.49l-.54-.49-.31.3-.3.3.49.35c.54.4 2.19 1.24 4.28 2.19.77.34 1.62.76 1.9.92.27.16.94.49 1.48.73.54.25 1.56.73 2.25 1.08.7.35 1.57.73 1.95.85.71.24.87.41.37.41-.46 0-1.64-.52-5.1-2.25-.85-.42-2.52-1.22-3.7-1.77-2.33-1.08-2.98-1.42-3.66-1.94-.24-.19-.65-.39-.9-.44-.25-.06-.59-.17-.74-.25-.27-.14-.28-.14-.34.18-.04.17-.03.33.01.35.05.01.62.36 1.28.78 2.09 1.31 3.18 1.8 4.93 2.19 1.69.38 2.12.54 1.47.55-1.6.01-3.96-.76-5.57-1.82-.49-.32-.88-.54-.86-.49.08.24 2.24 1.99 3.58 2.9 2.18 1.49 2.65 2.04 3.94 4.57.64 1.28.98 1.71 1.76 2.27.15.11.08.09-.18-.05-.74-.38-1.25-1.04-2.02-2.59-1.07-2.16-1.35-2.47-3.6-3.99-1.84-1.24-2.65-1.92-3.41-2.85-.41-.49-.73-.78-.99-.89-.54-.22-.8-.52-.73-.86.05-.26.02-.28-.67-.49-.4-.13-1.27-.45-1.93-.72-.92-.38-1.22-.46-1.28-.37-.05.07-.25.43-.45.79-.47.87-1.16 1.64-1.68 1.91-.39.2-.38.18.29-.48.54-.53.82-.91 1.19-1.64.27-.52.5-.97.52-.99s.29.06.61.17c.32.12 1.21.43 1.99.7l1.41.49.16-.62c.25-.94.24-1-.25-1.14-1.06-.32-2.75-1.03-2.95-1.26-.22-.25-.49-1.27-.39-1.44.04-.05-.03-.12-.14-.16-.24-.08-.17-.25.11-.25.23 0 .24-.11.03-.51-.26-.51-1.43-.22-2.12.52-.8.87-.99.62-.21-.29.48-.57.53-.6 1.07-.67 1.01-.11.99-.05.45-1.06l-.48-.89h-.4c-.47 0-.47-.01-1.73 2.25-.93 1.66-.95 1.7-1.12 1.6-.08-.05-.08-.11.03-.23.08-.1.44-.75.81-1.46s.83-1.54 1.02-1.83l.34-.53-.38-.19c-.43-.22-.67-.47-.75-.78-.07-.33.11-.39.24-.09.15.31.99.65.99.39 0-.08.09-.17.2-.2.27-.07.25-.29-.02-.37-.36-.09-.48-.07-.48.08 0 .08-.05.18-.11.22q-.12.075-.06-.18c.05-.2.02-.29-.18-.42-.42-.28-.63-.21-.7.22-.12.73-.98 3.29-1.59 4.73-.05.1.03.2.26.32.18.1.24.15.13.12-.31-.1-.07.1.6.47.68.39.77.59.42.96-.24.26-.72 1.22-.61 1.22.03 0-.01.07-.09.15-.22.22-.33.95-.16 1.06.08.05.5.09.94.1l.8.01-.55.09c-.58.1-1.56.03-1.65-.1-.05-.09.22-1.06.53-1.9.11-.29.32-.63.47-.76.35-.27.29-.49-.17-.68a3 3 0 0 1-.65-.41l-.33-.28-.09.24c-.13.33.52.78 1.14.78.14 0 .25.05.25.1 0 .29-1.11.05-1.37-.29-.19-.24-.15-.05.07.38.11.22.25.41.32.43.1.04.1.08.02.19-.06.08-.21.46-.34.84-.12.39-.26.77-.31.85-.13.25-.23-.15-.11-.49.09-.25.07-.34-.14-.62-.19-.26-.23-.4-.18-.67s.01-.41-.25-.77c-.44-.61-.89-1.61-.97-2.13-.11-.72-.29-.33-.29.61.01 1.18.36 2.11 1.48 3.95.67 1.1.54 1.35-.16.29C1.16 30.5.65 29.03.72 27.7c.09-1.59.34-1.73.78-.43.12.35.18.45.15.26-.06-.46-.02-.42.33.3.51 1.02.97 1.26.9.46-.01-.15.02-.33.08-.4.23-.28.43-.77.98-2.37.31-.9.56-1.66.56-1.68s-.2-.04-.44-.04c-.77 0-1.15-1.17-.46-1.41.35-.13.34-.09.16-.45-.14-.25-.13-.31.11-.72l.26-.44-.21-.42c-.12-.22-.22-.46-.24-.53-.02-.06-.32-.31-.68-.55-.55-.37-1.11-.96-1.1-1.17.01-.11 1.99-1.31 3.14-1.91 1.38-.73 3.08-1.25 2.42-.75-.19.15-.19.15.05.16.17 0 .1.05-.21.14-.36.11-.69.38-1.62 1.3-1.02 1-1.48 1.34-1.48 1.07 0-.04.46-.51 1.02-1.05l1.03-.98-.55.27c-.75.36-3 1.67-3 1.75 0 .03.4.2.9.36l.89.3.28-.41c.15-.23.53-.64.83-.91l.55-.49-.41.44c-.22.25-.55.77-.74 1.15-.18.38-.46.85-.63 1.02-.4.43-.11.46.42.06.36-.28.4-.3.73-.32.12-.01.18-.12.2-.38.02-.2.09-.39.17-.41.1-.03.12.02.07.22-.03.14-.03.26.01.26.15 0 .71-.63.67-.75-.05-.13.17-.35.39-.39.08-.01.47-.32.88-.68 1.51-1.35 2.21-1.84 2.2-1.55 0 .26-3.87 3.51-4.69 3.95-.26.13-.64.33-.84.44-.33.17-.36.23-.27.4.08.15.13.17.25.07.29-.24.14.25-.21.7-.4.51-.38.43-.23.76.2.44.54.3.5-.2-.02-.34 0-.37.09-.21.07.11.09.38.06.67-.06.46-.04.49.16.49.12.01.33.07.47.15.4.23.5.18.5-.2 0-.24.05-.35.14-.35.23 0 .45-.39.52-.9.17-1.26.71-1.67 2.09-1.56.74.06.85.03 1.03-.29.09-.15.11-.16.12-.04 0 .09.06.16.13.16.06 0 .22.03.35.07.21.07.22.04.22-.37 0-.96.34-1.36.37-.44.05 1.37.32 1.92.7 1.41.24-.32.17-1.6-.09-1.84-.13-.12-.3-.27-.39-.35s-.21-.15-.27-.15c-.07 0-.12-.04-.12-.1 0-.13.27-.13.35 0 .04.06.15.08.26.05.12-.04.19-.02.19.08 0 .29.46.6.69.45.27-.16.32-.05-.95-1.97-2.11-3.18-2.96-4.48-3.91-6.01-.53-.85-1.64-2.55-2.46-3.77-.95-1.42-1.47-2.28-1.43-2.38.03-.09 0-.36-.06-.6-.22-.83.35-1.12 1.62-.83.5.12.52.11.74-.17.29-.37.7-.3 1.57.27.81.52 5.09 4.82 5.91 5.93.32.44 1.38 1.67 2.34 2.72 1.88 2.06 1.77 1.99 2.32 1.56l.23-.19-.49-.71c-.5-.72-1.25-1.68-2.2-2.82-.3-.35-.98-1.23-1.51-1.95-1.68-2.26-2.83-3.02-3.81-2.51-.34.17-.48.05-.22-.19.41-.36.75-.39 1.43-.1 1.43.6 1.81.95 3.23 2.97.85 1.22 2.7 3.44 2.84 3.4.19-.05.07-.28-.5-.92-1.34-1.52-1.81-2.08-2.11-2.51l-.31-.45.35.31c.32.27 1.23 1.24 2.45 2.62l.41.46.28-.54.28-.55-.54-.48c-.3-.27-.97-.78-1.49-1.13s-.91-.64-.86-.64c.2 0 1.79.96 2.33 1.41.32.27.61.49.65.49.14 0 .61-1.04.5-1.08-.13-.04-.03.03-3.37-2.27-3.12-2.14-3.41-2.35-3.28-2.35.05 0 1.57.99 3.38 2.21 3.81 2.55 3.42 2.37 3.76 1.75l.27-.5-2.07-1.4c-3.3-2.24-3.45-2.41-.36-.44 2.52 1.61 2.44 1.57 2.56 1.36.27-.48 3.19-.72 4.13-.35.43.18.99.3 1.64.36 1.36.13 2.78.58 4.5 1.44.37.18.47.19.75.09.45-.16.82-.15.97.03.33.4.93.12.88-.41-.03-.43.22-.25-3.36-2.42-1.45-.88-2.47-1.62-1.47-1.06.28.15 1.47.85 2.65 1.56L32.54 7l.24-.25a.71.71 0 0 1 .55-.25h.32l-.3-.19c-.57-.34-1.21-1.87-1.34-3.21-.1-1.01-.05-1.03 1.5-.74l.86.17 1.41-.37c1.57-.4 3.04-.66 3.72-.66.81.01 1.92.71 2.05 1.3.06.26 1.62 2.73 2.75 4.33.36.51.43.57.68.51.54-.12.53-.09.51-.95-.03-1.1.31-1.25 1.51-.64.68.35.75.6.35 1.4-.3.61-.3.65-.06 1.12.11.21.23.6.27.87s.16.65.27.83c.15.26.17.37.08.46-.06.06-.11.19-.11.29s-.11.24-.25.3-.26.14-.26.17c-.07.35-.06.67.01.76.12.15.93 2.17 1.2 3 .13.38.29.74.36.78.08.04.14.19.14.32s.15.4.34.6c.33.34.34.4.29.86-.04.31-.01.66.08.91.17.52-.19 1.25-1.02 2.09-.31.31-.59.69-.63.84-.12.48-1.33 1.36-3.89 2.83l-.87.49.63.23c.34.12.88.36 1.19.51l.58.29.64-.39c.83-.51 1.47-.84 1.52-.78.03.03-.4.32-.96.66l-1.01.62.57.44.56.44.54-.34c.31-.2.54-.3.54-.22 0 .07-.21.25-.47.4l-.46.28.57.58c1.28 1.3.82 2.41-.75 1.82-.71-.27-.75-.27-.37.09.17.17.38.3.48.3.57 0 1.37 1.34.95 1.58-.19.1.1 1.15.47 1.71.13.19.31.46.4.6.22.32.23.7.03 1.17-.08.2-.12.47-.09.6.12.47-.05 1.1-.41 1.52-.34.39-.35.43-.35 1.24v.83l.35.23c.32.22.93.92.8.92-.03 0-.31-.2-.63-.45l-.57-.45-.09.26c-.04.14-.06.26-.05.27.02.01.17.09.33.17s.4.31.54.5l.26.35-.35-.32c-.62-.58-.78-.51-1.04.47-1.39 5.13-5.59 8.53-9.88 8Zm3.59-1.98c.44-.18.89-.39 1-.47.1-.08-.1-.03-.46.11-1.25.5-2.46.65-3.37.42l-.46-.11.06-1.46c.03-.8.02-1.35-.03-1.21-.04.14-.09.7-.09 1.25-.01.55-.06 1.07-.11 1.15-.2.32-.27-.09-.21-1.33.03-.7.03-1.27 0-1.27s-.09.57-.13 1.27c-.09 1.53-.03 1.45-.81 1.04-1.59-.82-3.59-3.62-4.19-5.87-.37-1.36-.25-4.08.23-5.32.46-1.19.2-1.63-.27-.47-2.73 6.7 2.94 14.57 8.84 12.27Zm-.03-.53c1.73-.57 2.76-1.44 3.75-3.14l.51-.89-1.37-.67c-1.36-.66-1.37-.66-1.52-.46-1.11 1.55-2.33 2.41-3.75 2.66l-.4.07-.07 1.29c-.05.95-.03 1.32.05 1.37.33.21 1.89.08 2.8-.23Zm-4.13-.93c0-.35.03-.84.06-1.1.05-.3.03-.46-.04-.46-.28 0-1.24-.44-1.86-.85-.82-.53-.79-.53-1.06-.15l-.21.3.32.47c.66.97 2.26 2.43 2.66 2.43.09 0 .13-.18.13-.64Zm7.6-1.02c2.04-2.55 2.7-6.84 1.55-10.17-.43-1.24-1.07-1.96-3.09-3.48-.83-.63-.81-.65-.83.46-.02.57.01.93.07.9.05-.03.51.06 1.02.21s1.03.28 1.15.3c1.22.14 2.23 2.8 2.1 5.52-.12 2.74-.86 4.79-2.41 6.67-.23.27-.36.46-.29.42.06-.04.39-.42.73-.83Zm-17.85-1.19c-1.37-1.39-2.54-2.42-4.71-4.12-.43-.34-1.06-.87-1.39-1.18l-.6-.56.9.68c3.43 2.59 4.65 3.63 6.05 5.18.9 1 1.38 1.57 1.28 1.54-.02-.01-.7-.7-1.53-1.54Zm18.84-1.47c.05-.13.06-.26.02-.3-.14-.15-2.62-1.09-2.71-1.03-.33.2.3.64 1.9 1.31.69.29.69.29.79.02Zm-5.89-.49c0-.13.34-.41 1.14-.92.34-.22.73-.51.89-.65.39-.37.34-.19-.17.58-.55.83-1.86 1.52-1.86.99Zm6.39-1.58c.12-.57.2-1.05.19-1.06-.06-.05-3.04 1.17-3.16 1.29-.11.11.11.21 1.25.59 1 .34 1.39.43 1.44.34.04-.07.16-.59.28-1.16Zm-29.06.69c-1.26-.18-2.56-1.14-3.18-2.33l-.3-.57-.45.06c-.25.04-.47.06-.5.06-.44 0-.6-.46-.6-1.69 0-1.29-.03-1.36-.62-1.68l-.5-.28.05-.48c.06-.44.04-.51-.19-.65-.13-.09-.22-.19-.2-.21.19-.19.68.42.63.79-.05.34-.02.4.21.52.73.38.82.56.82 1.68 0 1.43.12 1.82.52 1.74.17-.03.39-.06.5-.06.26 0 .19-.31-.39-1.77-.6-1.51-.49-1.65.2-.26.88 1.78 1.96 2.94 3.83 4.12.63.4.46.4-.25 0-1.13-.64-2.43-1.73-2.82-2.36-.36-.58-.32-.29.07.53.75 1.6 1.99 2.49 3.62 2.61 1.07.09 1.16.19-2.43-2.8-.89-.74-1.42-1.33-1.31-1.44.03-.04.36.23.73.58.38.36 1.13 1.01 1.69 1.46 1.14.92 2.62 2.29 2.54 2.36-.11.09-1.17.14-1.67.07Zm27.85-1.55c1.28-.51 1.42-.6 1.42-.81 0-.24-.01-.24-.32-.1-1.5.65-2.64 1.2-2.7 1.3-.12.17-.09.29.05.23.06-.03.76-.3 1.55-.62Zm1.19-1.61c.22-.18.21-1.1-.02-1.71-.03-.08-.34.02-.97.31-.51.24-1.04.47-1.18.5s.28-.2.92-.52c1.32-.64 1.27-.52.78-1.59-.43-.95-1.05-.71-2.32.89l-.3.38.17.72c.09.4.17 1.12.18 1.59l.02.87 1.25-.63c.69-.34 1.35-.71 1.47-.81Zm-8.89 1.14c.22-.22.09-.9-.22-1.1-.34-.23-.86.05-.86.46 0 .55.74.98 1.08.64Zm-.16-1.99.3.11-.07-.53c-.33-2.54-.82-5.81-1.15-7.72-.22-1.26-.48-2.83-.59-3.49-.24-1.4-.17-1.28-.73-1.2l-.45.06.09.41c.3 1.33 1.51 9.09 1.79 11.44.11.96.13 1.01.31.92.13-.07.29-.07.5 0Zm-.52-.32c0-.13-1.27-8.21-1.5-9.56-.33-1.93-.36-2.31-.17-2.31.13 0 .62 2.73 1.47 8.3.54 3.51.55 3.6.36 3.6-.09 0-.16-.01-.16-.03Zm3.08-1.69c-.26-.29-.48-.56-.48-.6 0-.05-.19-.27-.42-.48-.57-.53-.3-.54.69-.04.77.4.93.61.93 1.24 0 .53-.14.51-.72-.12Zm8.62-1.08c-.31-.49-.95-2.1-.83-2.1.04 0-.05-.12-.18-.28-.14-.15-.42-.51-.63-.79-.44-.62-.38-.61-1.14-.25l-.6.29.56.43c.3.24.84.7 1.19 1.03.65.61.73.61.48.01-.17-.41.02-.44.22-.03.14.29.28 1.19.18 1.19-.04 0-.43-.34-.87-.75-1.04-.98-3.28-2.7-3.28-2.52 0 .02.55.52 1.23 1.09 1.43 1.23 2.03 1.85 2.41 2.51.15.26.32.45.36.42.09-.06.99.91 1.01 1.09.01.06.05-.11.11-.38.08-.44.07-.51-.22-.96Zm-4.63.35.87-.7-.49-.13c-.28-.07-.72-.2-.99-.28-.54-.17-.76-.13-.76.14 0 .15.07.17.38.15l.37-.03-.42.2c-.5.23-.56.53-.23 1.08.25.41.19.43 1.27-.43Zm-41.11.44c-1.42-.35-2.73-1.72-2.64-2.76l.03-.38.32.61c.18.34.49.76.7.93s.34.31.31.31c-.04 0-.23-.14-.43-.31-.52-.46-.54-.28-.04.26 1.17 1.27 3.56 1.46 4.78.38.25-.22.32-.35.24-.4-.22-.15-.83-1.86-.83-2.32 0-.34.22-.02.4.59.21.7.66 1.75.57 1.32-.04-.19-.03-.21.08-.12s.17.05.31-.21c.16-.31.15-.33-.02-.46-.11-.08-.19-.19-.2-.26 0-.07-.07-.26-.13-.42-.07-.16-.19-.49-.26-.73l-.13-.42.32.27c.17.16.55.39.84.53.63.3.63.32.06 1.47-.87 1.76-2.5 2.57-4.28 2.12Zm11.46-1.72c.35-.44.56-1.37.62-2.82.12-2.64.73-4.52 2.01-6.21.26-.35-.15-.2-1.11.42-1.19.75-2.39 1.91-2.39 2.29a.7.7 0 0 1-.16.41c-.23.26-.26.38-.48 2.12-.19 1.47-.19 2.01 0 1.7.11-.16.01.75-.12 1.16-.21.66-.09.87.58 1.12.46.17.82.1 1.05-.19Zm27.18-.38c-.05-.35-.1-1.37-.1-2.26 0-1.56-.01-1.62-.22-1.77-.69-.49-1.32-.01-2.42 1.84l-.74 1.25.46.03c.26.01.61.09.79.17.6.29.72-.15.2-.75-.12-.14-.15-.19-.07-.12.21.18.3.15.31-.1.01-.28.25.35.4 1.03.09.42.26.63.75.92.23.13-.39-2.74-.81-3.75-.05-.12-.03-.18.07-.18.41 0 .68.77.97 2.78.17 1.16.34 1.72.48 1.58.02-.02-.01-.32-.07-.67Zm-28.39.05c-.36-.46-.06-1.29.62-1.74l.38-.24-.03-.81c-.02-.44-.07-.88-.12-.97-.06-.13-.04-.15.13-.11.19.05.21.01.21-.33l-.01-.39-.24.3c-.31.37-.33.14-.04-.35.12-.19.37-.83.55-1.42.3-.94.39-1.11.76-1.42.53-.46.57-.41.19.26-.71 1.26-.87 2.03-1 4.78-.05 1.07-.13 1.86-.21 2-.37.72-.84.89-1.19.44Zm-.81-1.88c0-.21-.12-.29-.87-.59-.49-.2-1.21-.5-1.6-.68-.8-.36-.92-.35-.71.07.17.36.56.58 1.86 1.05 1.27.45 1.32.46 1.32.15Zm33.44-.5.67-.34-.26-.2c-.47-.37-1.67-.75-3.27-1.05-.93-.17-.95-.13-.22.33.31.19.95.63 1.42.97 1.03.74.83.7 1.66.29Zm-33.44-.59c0-.31-.04-.35-.75-.7-.74-.37-.95-.6-.95-1.05 0-.12.08-.07.26.16.27.35 1.38.97 1.54.87.35-.22.1-.82-.47-1.13-.32-.18-.69-.41-.83-.52l-.25-.2h.25c.14 0 .53.13.88.3.74.35.78.25.15-.39-.27-.27-.69-.84-.94-1.27-1.5-2.56-1.98-3.36-2.38-4-.26-.39-.51-.79-.56-.89-.24-.4-.69-.11-.91.58-.41 1.34-.19 2.76.69 4.34.4.71.56.92 1.17 1.43.22.19.22.2.03.11-.12-.06-.25-.16-.28-.21-.18-.29-.22-.04-.04.28.25.47.64.82.92.84.12 0 0 .04-.27.07-.55.07-.68.22-.34.39 2.82 1.36 3.08 1.44 3.08.99Zm36-.17c0-.14-.07-.2-.23-.2-.28 0-2.81-.73-3.35-.96-.7-.3-.17-.24 1.63.2.99.24 1.81.42 1.83.41.16-.15-1.18-1.4-2.26-2.11-.79-.53-2.02-.99-3.92-1.48-.92-.24-1.76-.48-1.87-.54-.17-.09-.24-.07-.42.12l-.21.22.28.27c.34.33.52.39 2.25.83 4.22 1.06 5.05 1.5 1.17.63-.96-.22-1.9-.43-2.09-.46l-.34-.06.53.74c.28.41.57.81.63.9.08.11.46.22 1.09.33 1.11.19 2.22.5 3.58.99 1.13.42 1.7.47 1.7.17Zm-28.85-1.42c-.16-.35-.43-1.03-.6-1.52l-.32-.89-.18.26c-.3.47-.36.29-.09-.25.17-.35.6-.86 1.27-1.51.95-.9 1.01-1 .98-1.32-.02-.31 0-.35.21-.35.13 0 .56-.18.96-.4.6-.33.83-.4 1.28-.4.31 0 .54-.04.54-.11 0-.24 3.51-1.52 5.78-2.1 1.14-.29 1.14-.29-.06-.57-2.21-.52-1.81-.62.66-.16 4.59.85 8.9 2.81 9.23 4.19.06.27.07.28.08.05.02-.49.21.03.19.55l-.01.5-.07-.4-.07-.4-.02.35c-.02.56-.21.74-.21.2-.01-1.11-.47-1.58-1.28-1.31-1.09.37-1.61.37-.64 0 .89-.34.94-.43.41-.71-.54-.28-3.04.24-3.56.74-.53.51-.66.83-.6 1.47l.06.56-.15-.5c-.21-.78-.18-1 .21-1.44l.36-.39-1.03.04-1.03.04 2.38-.49c1.31-.27 2.41-.51 2.43-.54.15-.15-4.62-1.77-5.22-1.77-1.04 0-5.65 1.39-7.18 2.17l-.29.15.59.32c.32.17.75.43.94.58.4.31.77.46 1.38.57.44.09.51.04.3-.19-.07-.07.23.16.66.53.44.36 1.3.96 1.93 1.34 1.28.77 1.32.94.08.35-.78-.38-1.32-.7-2.33-1.41-.24-.16-.67-.37-.95-.46-.29-.09-1.01-.41-1.62-.71-1.82-.9-2.69-.88-1.12.02 1.88 1.09 6.13 3.94 5.86 3.94-.25 0-1.83-.96-4.56-2.76-1.44-.96-2.65-1.74-2.68-1.74-.04 0-.37.14-.74.32l-.67.32.55.41c1.43 1.05 4.44 3.02 5.74 3.75.81.46.64.49-.24.04-1.63-.81-3.57-1.99-5.13-3.12l-.88-.64-.27.23c-.81.71-1.91 1.86-1.91 2 0 .09.23.82.51 1.63.54 1.58.6 1.96.14.94Zm-6.65-1.27c0-.1-.27-.44-.6-.75-.33-.32-.6-.64-.6-.71 0-.08-.34-.72-.76-1.42-.41-.7-.96-1.72-1.22-2.26-.35-.72-.53-.99-.7-1.03-.37-.1-.37.02 0 .58.41.61 2.48 4.16 2.48 4.24 0 .09.6.93.92 1.3.31.35.48.37.48.05Zm-2.78.03c-.01-.12-.16-.39-.33-.6-.41-.51-1.74-2.75-1.75-2.94-.01-.09-.06-.25-.13-.37-.06-.12-.11-.28-.11-.35.01-.07.1.05.22.27.11.22.32.53.46.7l.25.3-.06-.45c-.04-.25-.1-.62-.13-.82-.04-.26-.03-.38.05-.38.06 0 .11.05.11.11s.17.5.39.98c.51 1.15.77 1.94.64 1.98-.06.02.02.28.19.58.2.38.28.64.25.87-.02.18-.05.23-.05.12Zm3.54-2.15c.32-.47.55-.71.73-.75.24-.06 1.21-.76 2-1.43.28-.25.33-.35.28-.58-.07-.36.08-.66.22-.43.13.2.34.08 1.65-1 1.13-.94 2.09-1.58 4.61-3.08.83-.49 1.5-.95 1.5-1.03 0-.29-4.32-2.38-4.71-2.27-.75.2-.44.42 2.31 1.53.71.29 1.31.57 1.32.62.08.23-.45.79-1.19 1.26-.45.29-1.56 1-2.47 1.6-.9.59-1.72 1.07-1.8 1.07-.27-.01.43-.54 2.34-1.8 3.12-2.06 3-1.89 1.65-2.43-1.77-.7-2.62-1.1-2.73-1.27-.1-.16-.12-.16-.41.01-.48.28-2.36 1.06-2.86 1.19-.63.16-.82.06-2.01-1-.61-.55-1.77-1.41-2.88-2.14-2.83-1.86-2.68-1.65-3.87-5.48L6.68 5.7l-.25.2c-.46.36-.72.27-1.56-.55-.86-.84-1.13-.96-.69-.33.87 1.28 2.5 3.79 3.19 4.93.44.72 1.17 1.86 1.62 2.55 2.94 4.51 3.59 5.49 4.73 7.11.71 1 1.25 1.85 1.22 1.91-.08.12-.02.19-1.29-1.5l-1.07-1.42-.28.2c-.36.26-.31.5.24 1.1l.41.45-.42-.39c-.3-.28-.43-.35-.46-.25-.27 1-.52 1.35-.81 1.14-.66-.49-.59-.47-1.1-.25-.97.41-.64.56 1.2.51 1.63-.04 2.49.04 2.38.2-.03.05-.49.1-1.02.1-.53.01-1.39.04-1.9.08l-.93.06.65 1.09c.36.6.68 1.11.71 1.14.2.2 1.06-.28 1.97-1.1 1.39-1.26 1.42-1.14.08.33-.63.7-.77.8-1.3.95l-.6.17.2.27c.11.16.2.35.2.43s.19.32.42.52l.42.38.12-.37c.07-.2.34-.68.6-1.07Zm2.06-.64c1.21-.77 1.24-.81 1.04-1.08-.13-.17-.21-.13-1.16.57-.56.42-1.05.76-1.1.76-.15 0-.79.84-.96 1.26l-.16.39.61-.59c.33-.33 1.11-.92 1.73-1.31Zm28.92.28c3.29-2.03 3.97-2.63 2.97-2.63-.36 0-.47.07-1.23.83-.46.45-.99.93-1.18 1.06s.13-.25.72-.85l1.08-1.09-1.48-.72a80 80 0 0 1-4.68-2.55c-.28-.17-.58-.43-.67-.58-.39-.65-1.84-2.02-2.53-2.38-.16-.08-.68-.07-2 .03-2.05.17-2.33.18-1.89.04.4-.13 2-.36 3.01-.44l.81-.06.69.52c.38.28.84.66 1.02.82.4.38.4.36-.02-.54-.18-.41-.37-.85-.41-.99s-.25-.52-.46-.86c-.46-.73-.46-.65-.13-1.54.33-.88.42-.84.19.1-.15.62-.16.73-.03.88 1.61 1.91 2.79 3.12 3.03 3.12.11 0 4.1 1.72 4.23 1.82.18.15.16.09-.24-.76-.64-1.39-.48-1.45 1.41-.6s2.05.99 2.05 1.78c0 .75-.31 1.85-.6 2.11-.31.28-.3.17.02-.63.4-1.01.49-1.96.18-2.12-.29-.16-.28-.18-.36.9-.09 1.19-.23 1.63-.35 1.1-.05-.21-.04-.45.02-.61.05-.14.09-.58.07-.98l-.03-.73-1.13-.51c-1.33-.6-1.3-.61-.87.39.57 1.3.58 1.3-.85.7-1.13-.49-1.17-.49-1-.14.11.22.11.22-.09-.02-.11-.14-.21-.28-.21-.32 0-.05-.05-.08-.11-.08-.07 0-.09.12-.05.33.04.2 0 .51-.09.77-.19.53-.37.38 1.85 1.47 2.67 1.32 3.23 1.28 4.19-.31.29-.48.31-.58.2-.72-.09-.11-.13-.41-.12-.89.02-.68 0-.74-.27-1-.21-.2-.41-.63-.71-1.54-.62-1.81-2.62-5.79-3.53-7.01-1.17-1.56-2.77-3.99-3.27-4.94-.53-1.05-1.01-1.4-2.02-1.52l-.58-.07 1.13 1.73c.89 1.36 1.39 2 2.33 2.99 1.22 1.28 1.88 2.04 2.2 2.53.34.54.06.27-.7-.67-.84-1.03-1.04-1.21-.55-.49.65.94 1.8 3.04 1.66 3.04-.07 0-1.14-1.65-1.39-2.15-.14-.28-.84-1.27-1.56-2.2l-1.78-2.32c-.41-.53-1.36-2.07-1.46-2.36-.03-.09-.86.04-2.84.44l-1.02.21.96.33c1.08.38 1.36.55 1.76 1.11.5.69 1.27 1.98 1.27 2.13 0 .09.19.32.43.53.24.22.33.35.22.31-.18-.06-.19-.05-.05.12.08.11-.05.04-.29-.15s-.75-.78-1.14-1.3c-1.38-1.84-1.82-2.22-3.01-2.6-.86-.28-.9-.23-.17.28.64.45 1.86 1.71 2.41 2.48.23.32-.15-.01-1.1-.97-1.9-1.9-3.21-2.7-3.83-2.32-.3.18.41 2.68.89 3.17.23.22 1.35.71 2.55 1.11l.44.15-.45-.06c-.45-.05-.43.23.02.3.19.02 1.82 1.06 2.23 1.41.16.14-.08.01-.54-.3-.46-.3-.95-.55-1.09-.55s-.45-.12-.7-.26c-.36-.21-.46-.24-.53-.13q-.09.15-.09-.12c0-.2-.08-.3-.3-.39-.37-.15-.36-.17-.48.47l-.09.52.68.22c.55.18.69.27.74.47.05.21.1.24.37.18.27-.05.36-.01.69.34s.44.4.86.42l.48.01-.49.06c-.79.1-.36.36.58.34h.71l-.6.1c-.39.06-.72.07-.96 0-.28-.07-.44-.06-.64.04-.28.15-.55.11-.55-.07 0-.05.09-.1.2-.1.25 0 .4-.29.29-.57-.17-.46-.61-.19-.79.49-.13.45-.31.78-.43.78-.04 0-.05-.05-.01-.11.05-.08.01-.08-.14 0-.29.15-.42.14-.42-.05 0-.08.15-.21.34-.29.18-.08.36-.21.39-.28.03-.09-.14-.04-.46.14-.32.17-.6.26-.73.23-.19-.05-.21-.02-.16.21.05.26.07.27.58.23.72-.06.49.27-.23.35-.65.07-.73.02-.73-.48 0-.29-.05-.45-.15-.49a.24.24 0 0 1-.15-.21c0-.33-1.67-.12-1.82.23-.01.04-.28.22-.58.4l-.55.32h.47c.26 0 .67-.08.9-.17.36-.14.42-.15.46-.02.11.33.73.76 1.54 1.07.96.36 1.53.71 1.53.92 0 .35-1.66.78-3.95 1.03l-1.14.12 1.14.65 1.35.75c2.09 1.14 8.69 5.14 8.61 5.22-.11.11-1.16-.46-4.8-2.62-.78-.46-2.65-1.54-4.16-2.4l-2.75-1.56-.9.06c-1.51.1-5.33.65-4.55.65.22 0 4.75 1.98 6.2 2.7.74.38 2.45 1.12 3.8 1.65 4.09 1.62 4.92 2.1 5.37 3.11.59 1.35.73 1.74.73 1.97s.07.26.98.49c1.46.37 1.37.39 2.96-.59ZM18 22.67c-.45-1.02-.43-1.09.76-1.72.87-.46.96-.43 1.23.36.25.73.25.73-.67 1.27-1.04.61-1.09.62-1.32.09Zm21.7-1.57c-.2-.42-.29-.51-.69-.65-.67-.22-3.28-1.81-3.17-1.92.09-.09 3.68 1.9 3.82 2.12.15.23.36.86.31.92-.02.02-.14-.19-.27-.47Zm-25.07-.88c-3.12-4.37-4.96-7.16-5.08-7.7-.13-.55-.12-.84.01-.46.21.59.37.87.88 1.59.32.44.59.81.6.82s.37-.09.79-.22c1.28-.41 1.38-.26.17.24-.77.32-.79.34-.65.55s.19.22.78.13c.35-.06.85-.06 1.13-.02l.49.08-.4.08c-.22.04-.68.08-1.02.08-.78.01-.83-.18.5 1.73 2.59 3.75 2.72 3.94 2.59 4.02-.06.03-.41-.38-.79-.92Zm-7.58-1.57c.45-.4 2.48-1.45 2.81-1.45.11 0 .35-.05.52-.11.94-.33.6.01-.39.4-.63.24-1.63.68-2.24.98l-1.1.54zm6.93-.35c.57-.47 1.26-.62 2.36-.49l1.02.11.69-.35c.87-.43 1.53-.71 1.4-.58-.06.05-.58.34-1.17.65l-1.07.56-.94-.07c-.79-.05-1.05-.02-1.65.16-.85.26-.94.26-.64.01Zm28.67-.27c.48-.71.46-.74-1.22-1.4-.16-.07.44 1.25.7 1.55.26.28.22.29.52-.15Zm-12.25-.52c-.19-.11-1.18-.53-2.2-.96-1.02-.42-2.31-.97-2.88-1.22-1.08-.48-1.18-.49-1.08-.09.12.48 5.09 2.44 6.21 2.45h.3zm.68-1.33c-2.92-1.49-3.23-1.68-2.74-1.68.33 0 3.72 1.79 5.29 2.8 1.08.69.5.44-2.55-1.12Zm-24.68.93c.36-.52 2.26-2.08 2.6-2.16.2-.04.34-.15.37-.26.07-.24.15-.24.37 0s.13.41-.2.41c-.39 0-.75.23-2.04 1.3-1.28 1.07-1.43 1.17-1.1.71Zm9.94-2.15c.93-.35 2.46-1.08 2.46-1.17 0-.04-.14-.19-.31-.33l-.31-.27-.48.45c-.26.25-.77.58-1.13.74-1.61.73-2.06.67-.57-.08.58-.29 1.07-.54 1.09-.56s-.41-.51-.95-1.09c-1.47-1.57-2.16-2.36-3.24-3.76-.54-.69-1.14-1.38-1.32-1.54-.18-.15-1.13-1.04-2.11-1.97-2.24-2.15-2.39-2.26-3.15-2.43-.45-.09-.46.42-.01 1.03.32.44.85 1.91 1.5 4.17.59 2.07.92 2.45 3.52 4.08.69.42 1.6 1.08 2.04 1.45 1.94 1.67 1.93 1.67 2.97 1.28Zm7.55.09c-.11-.1-5.74-2.84-5.77-2.8-.06.05.6.95.87 1.19.18.16.21.17.21.03 0-.23.54-.32.87-.14.16.08.69.36 1.18.63 1.37.74 2.93 1.39 2.64 1.09Zm.17-.9c1.32-.24 3.95-.55 5.66-.66 2.36-.14 5.28-.59 5.28-.79 0-.04-.46-.27-1.02-.51-.55-.23-1.21-.58-1.46-.77-.42-.32-.47-.34-.82-.23-.21.06-.67.11-1.04.11h-.67l.15.28c.32.63.41.65 1.99.57.96-.05 1.47-.03 1.51.03.11.18-.06.21-1.58.28-1.66.08-1.75.05-2.17-.78-.18-.35-.23-.38-.62-.38-.57-.01-.28-.24.49-.4.3-.06.54-.15.54-.19s.31-.28.7-.52c.64-.4.84-.59.61-.59-.04 0-.19.08-.32.19-.67.52-.97.59-2.19.5-.63-.04-2.13-.08-3.33-.08-1.81-.01-2.23-.04-2.49-.17-.31-.16-.32-.16-.55.1-.39.45-.31.57.74 1.06 1.32.62 1.47.77.33.32-1.09-.42-2.58-.49-4.85-.23-1.53.18-1.57.22-.55.68.47.21 1.74.82 2.84 1.35 1.09.54 2 .98 2.01.98.02 0 .38-.07.81-.15Zm18.16-1.24c-.59-.9-1.01-1.44-1.19-1.53-.43-.21-.7-.69-.78-1.43-.08-.82-.16-.78.85-.49.97.28 1.17.43 1.26.93.03.2.12.46.2.58.2.32.19.33-.41.33-.66 0-.65-.08-.06.87.62 1.01 1.19 2.13 1.08 2.13-.02 0-.44-.63-.95-1.39Zm2.58-1.17c-.11-.26-.2-.5-.2-.54s-.25-.26-.55-.49-.66-.59-.79-.79c-.44-.69-.57-.75-1.4-.7-.85.06-.92.02-1.51-.81l-.38-.55.56.48c.31.26.57.52.59.58.03.07.23.06.63-.01.82-.15.9-.14 1.23.14.27.23.31.24.35.08.03-.1.05-.04.06.14.01.23.18.51.71 1.12q.69.81.81 1.23c.06.24.13.46.16.5.02.05.02.08-.01.08s-.14-.21-.26-.46Zm-24.17-.96c1.52-.12 1.58-.13 1.63-.35.04-.13.19-.34.36-.46l.29-.23-.88-.85c-.81-.78-2.04-1.79-2.17-1.79-.06 0-1.96 3.75-1.96 3.86 0 .04.26.04.58.01.31-.04 1.28-.12 2.15-.19Zm9.13-1.05c.03-.1.13-.39.23-.65.23-.58.14-.7-1.03-1.23-.75-.34-.81-.35-1.14-.22l-.35.14.48.39c.26.21.6.49.74.62l.26.23-.4-.19c-.41-.21-1.35-.98-1.35-1.12 0-.04.14-.1.3-.13.63-.13-.12-.46-1.4-.61-.25-.03-.67-.08-.95-.11l-.5-.06.8.49c.44.26 1.13.65 1.53.86.39.21.72.43.72.48 0 .26-.83-.09-1.85-.76-2.49-1.65-2.41-1.63-4.15-1.47-1.97.18-1.95.17-1.08.81.33.25 1.11.93 1.72 1.52l1.11 1.08 2.05.03c1.13.01 2.54.03 3.13.05.95.02 1.08 0 1.13-.15Zm4.99-.05c.12-.18.17-.2.24-.09.07.1.12.08.24-.09.29-.42-.2-1-.83-1-.14 0-.23.14-.34.54-.21.7-.2.74.06.79.43.08.47.07.63-.15Zm12.22-.4c0-.3-.05-.61-.13-.73-.21-.29-.17-.64.11-1.17.38-.71.34-.83-.3-1.07-.85-.32-.85-.32-.85.48 0 .7.17 2.66.25 2.89.03.07.22.12.48.12h.43zm-13.23-.4c.13-.45.36-1.66.36-1.91 0-.04-.24-.07-.52-.05l-.53.03-.1.85-.1.85h-.35c-.29 0-.36.04-.38.23-.07.46.03.52.77.52h.7zM8.17 6.68C7.58 5.51 7.03 4.44 6.93 4.3l-.18-.24.33.19c.55.32.78.75 1.78 3.3.67 1.73.49 1.5-.69-.87ZM6.19 5.65c.62-.31.45-.69-.56-1.3-.43-.26-.97-.6-1.21-.76-1.14-.77-1.08.14.06.99.37.28.81.66.99.86.36.41.35.41.72.21Z"/></svg>