<svg xmlns="http://www.w3.org/2000/svg" width="51" height="51" viewBox="0 0 51 51"><path fill="#fff" fill-rule="evenodd" stroke="#fff" stroke-width=".443" d="M26.19 40.39c-2.91-.42-7.09-1.85-9.04-3.07l-.3-.18-.46.47c-.7.72-1.82.87-3.27.44-1.23-.37-1.69-1.82-1.44-4.56l.12-1.31-.5-.81c-1.51-2.49-1.94-5.25-1.36-8.67.22-1.32.26-1.84.26-3.6 0-2.95.29-3.9 1.56-5.15 1.61-1.6 3.43-1.91 8.05-1.4 3.55.39 4.5.34 7.39-.45 1.92-.52 3.12-.72 4.47-.74 1.91-.02 1.81.3-.3 1-.78.25-1.46.5-1.51.55s-.04.79.04 1.81c.17 2.29.3 3.18.22 1.48-.04-.74-.07-1.64-.07-2v-.64l.75-.29c.41-.16 1.45-.58 2.3-.94l1.55-.65.44.16c.41.15.46.15.62 0 .4-.36 1.76-.24 3.39.3.8.27 1.48.53 1.51.58.04.06.04.77.01 1.59-.05 1.47-.05 1.48.21 1.78 1.11 1.32.89 4.1-.53 6.66-1.63 2.94-1.96 3.88-2.5 7.1-.56 3.3-.88 4.33-1.84 6.05-.14.25-.39.74-.55 1.1-.33.7-.71 1.05-1.31 1.16-.19.04-.52.22-.74.4-1.62 1.38-4.77 2.19-7.17 1.83Zm3.03-.33c1.02-.2 2.26-.67 3.22-1.23l.81-.48-.83-.13c-1-.15-1.22-.28-1.73-1.04l-.4-.58H23.7c-6.59 0-6.88.01-6.61.34.32.38 3.5 1.76 5.21 2.25 3.28.95 5.24 1.19 6.92.87Zm-13.69-2.2c.74-.27 1.22-.93 2.26-3.14l.72-1.54-.12-.53c-.09-.39-.09-.65-.01-.95.1-.4.1-.42-.11-.35-1.02.31-1.71.33-2.55.06-1.34-.41-2.55-1.66-2.87-2.94-.11-.41-.12-.36-.44 1.49-.7 4.1-.67 6.51.1 7.39.49.55 2.12.83 3.02.51Zm18.88-.11c1.29-.67 1.46-3.81.47-8.54-.15-.73-.24-.99-.29-.85-.04.1-.13.34-.2.53-.73 1.94-2.98 3.13-4.85 2.56-.63-.19-.67-.19-.54.04.13.26.13.97-.01 1.36-.19.53 1.77 4.36 2.47 4.81.53.36 2.33.41 2.95.09Zm-4.31-1.49c0-.04-1.3-2.68-1.35-2.74-.02-.02-.23.11-.48.29-1.13.79-2.75.35-3.19-.88l-.12-.33h-2.54l-.1.28c-.46 1.34-2.31 1.76-3.41.78-.18-.16-.25-.18-.29-.07-.02.07-.33.72-.68 1.42l-.63 1.29h6.39c3.52 0 6.4-.02 6.4-.04Zm6.19-1.62c.41-.82.86-2.53 1.17-4.49.52-3.35.92-4.55 2.32-7.03 1.47-2.58 1.85-4.82 1.1-6.4l-.22-.47-.07 1.05c-.16 2.64-1.81 4.63-4.92 5.92l-.78.32-.92-.46c-2.23-1.11-3.4-2.51-3.97-4.74-.21-.81-.59-5.26-.48-5.55.03-.09.68-.35 1.59-.64l1.54-.5-.55-.03c-1.09-.07-2.63.19-5.42.91-2.53.65-3.59.69-7.28.26-4.08-.48-6.01-.11-7.52 1.43-1.14 1.16-1.29 1.66-1.38 4.93-.06 1.92-.13 2.9-.29 3.75-.43 2.38-.35 4.11.3 6.04.3.89 1.15 2.66 1.28 2.66.04 0 .15-.51.24-1.12.16-1.03.43-2.31.84-3.95.24-.97.85-1.85 1.71-2.44.23-.17.42-.38.42-.48 0-.62.9-.97 2.26-.89 1.01.06 1.34.21 1.59.76l.19.42h4.69c4.37 0 4.68-.01 4.73-.17.2-.69.48-.89 1.36-.99 1.31-.15 2.47.19 2.58.78.03.16.25.41.56.66.95.74 1.45 1.6 1.75 2.95.79 3.54 1.09 5.62 1.09 7.44 0 .97.03.97.49.07Zm-15.24-.78c.19-.08.35-.17.35-.2s-.17.02-.37.11c-1.49.62-2.99-1.16-2.1-2.48.95-1.41 2.95-.92 3.17.78.07.56.07.56.09.14.03-1.08-.75-1.86-1.86-1.86-.35 0-.63-.01-.63-.02 0-.02.15-.23.34-.47 1.16-1.52.96-3.89-.44-5.2-2.34-2.19-6.15-.76-6.61 2.48-.41 2.95 2.82 5.23 5.51 3.88.3-.15.59-.29.64-.31s-.03.12-.17.31c-1.14 1.49.38 3.55 2.08 2.84Zm6.62.03c.5-.18 1.13-.93 1.13-1.31 0-.07-.09.06-.19.28-.69 1.53-3.06 1.27-3.28-.36-.2-1.48 1.17-2.49 2.51-1.85.22.11.47.2.55.21.09.01.45.14.8.29 2.7 1.14 5.87-1.5 5.18-4.3-.94-3.82-5.65-4.42-7.44-.95-.58 1.14-.3 3.33.53 4.11.35.33.3.39-.24.32-1.26-.14-2.23.99-1.98 2.31.18.96 1.46 1.62 2.43 1.25Zm-6.71-.38c1.33-.61 1.15-2.49-.27-2.78-.28-.05-.31-.04-.26.11.04.1.07.35.07.56v.39l.55.03c.69.04.72.2.06.32-.48.09-.5.11-.53.45-.04.48-.31.49-.38.01-.05-.33-.07-.35-.52-.4-.81-.1-.74-.4.1-.4h.42v-.56c0-.61-.11-.65-.71-.23-1.42 1-.11 3.22 1.47 2.5Zm6.71-.01c1.12-.5 1.12-2.08.01-2.66-.39-.2-.71-.18-.65.04.03.09.08.34.12.55l.06.39.47-.04c.69-.05.73.26.05.38-.44.08-.48.12-.53.42-.06.4-.24.43-.28.05-.04-.33-.17-.43-.57-.43-.16 0-.36-.04-.44-.09-.24-.15-.01-.31.45-.31h.44v-.55c0-.63-.08-.68-.61-.32-1.53 1.03-.2 3.34 1.48 2.57ZM25 31.76c.19-.94 1.01-1.66 1.88-1.66h.4l-.36-.71c-.74-1.45-.5-3.39.58-4.62.22-.25.4-.48.4-.51s-1.92-.06-4.26-.06h-4.27l.46.49c1.26 1.35 1.49 3.05.63 4.74l-.34.67h.39c.92 0 1.74.77 1.93 1.83l.07.37h2.38zm-9.17-1.43c-.09-.03-.13-.27-.13-.71 0-1.13.01-1.12-.94-1.12-1.04 0-1.06-.02-1.06-1.14 0-1.17-.02-1.15 1.05-1.18l.9-.03.05-.84.05-.85.35-.09c.36-.09 1.5-.05 1.69.07.07.04.11.41.11.91v.84l.92.03.93.03.03.99c.04 1.25.03 1.26-1.04 1.26h-.84v.83c0 .51-.05.88-.12.95-.12.12-1.69.16-1.95.05Zm13.85-.04c-.13-.07-.18-.23-.18-.57 0-.26-.03-.64-.06-.84l-.07-.38h-.78c-1.03 0-1.09-.06-1.09-1.15 0-1.18-.02-1.15.9-1.15 1.12 0 1.1.02 1.1-.91 0-.94.06-.99 1.04-.99 1.09 0 1.15.05 1.18 1.02l.03.83.85.03c1.06.03 1.1.08 1.1 1.16 0 1.09-.02 1.1-1.07 1.16l-.88.05-.03.85c-.02.52-.08.87-.15.92-.18.11-1.69.09-1.89-.03Zm-12.04-.25c.03-.09.06-.51.06-.94v-.78l.78-.07c.42-.03.84-.07.92-.08.12-.02.15-.19.15-.87v-.85l-.9-.05c-.81-.04-.9-.07-.92-.25-.01-.11-.05-.5-.08-.87l-.07-.68h-1.67l-.03.88-.03.87-.95.05-.95.05-.03.72c-.04 1.07.01 1.13 1.02 1.13.98 0 .96-.02.96 1.04 0 .4.03.76.07.79.15.16 1.61.08 1.67-.09Zm-1.54-.74v-.81l.68.03.67.03v1.5l-.67.03-.68.03zm1.18-.02.03-.58H16.3v1.21l.48-.03.47-.03zm13.71.52c.1-.05.24-.23.31-.4.27-.66-.68-1.22-1.19-.71-.57.57.17 1.5.88 1.11Zm-.39-1.54c.22.01.5.08.63.17.33.21.69-.13.43-.41-.38-.43-.27-1.2.23-1.47l.26-.14-.27-.01c-.19 0-.28-.05-.28-.17 0-.14-.04-.13-.24.06-.4.38-.99.39-1.35.04-.26-.27-.3-.28-.34-.11-.04.12-.15.18-.34.18l-.28.01.27.15c.5.27.55 1.04.1 1.49-.14.15-.22.26-.17.24.23-.04.34.02.4.22.07.21.07.21.32-.02.17-.17.35-.23.63-.23Zm2.86-.31c.2-.82-.06-1.55-.56-1.54-.24 0-.24.01-.04.09.53.21.72 1.07.34 1.48l-.21.22h.2c.14 0 .23-.09.27-.25Zm-4.21-.1c.6-.59.02-1.42-.8-1.15-.4.13-.58.48-.44.88.18.53.84.68 1.24.27Zm3.56.14c.51-.27.43-1.09-.12-1.28-.52-.18-.99.13-.99.66 0 .59.57.91 1.11.62Zm-18.64-.06c-.12-.11-.08-1.08.05-1.21.12-.12 1.14-.17 1.42-.06.12.05.16.21.16.7V28h-.78c-.43 0-.82-.03-.85-.07Zm3.65-.6.03-.68.54-.03c.96-.05 1.01-.02 1.01.73V28h-1.61zm-2.24 0 .03-.43H14.4v.91l.58-.03.57-.03zm3.6 0 .03-.43H18v.91l.57-.03.58-.03zm2.36-.18c-.14-.36.03-.46.73-.43.65.03.68.04.68.28 0 .31-1.3.45-1.41.15Zm2.81.05c-.19-.31.06-.5.64-.5.61 0 .89.16.77.45-.06.18-1.3.22-1.41.05Zm-8.23-1.67.03-.78h1.3v1.5l-.68.03-.68.03zm15.03.57c.26-.29.24-.79-.04-1.02-.5-.39-1.21-.09-1.21.52 0 .62.84.95 1.25.5Zm-13.85-.44c0-.68-.06-.76-.56-.76h-.44v1.2h1zm13.33-.96c.35 0 .51.05.67.23l.22.22-.04-.25c-.03-.24-.06-.25-.9-.28l-.88-.03v.54l.23-.21c.17-.16.36-.22.7-.22Zm-12.02-1.22c-.22-.6-2.9-.67-3.26-.08-.12.19.02.23.38.11.65-.22 2.29-.12 2.94.18.01.01-.01-.09-.06-.21Zm11.89-.03c.58 0 1.18.04 1.33.08.24.07.28.05.25-.1-.11-.57-3.15-.57-3.26 0-.03.17 0 .18.3.1.18-.04.8-.08 1.38-.08Zm5.13-.51c1.6-.81 2.91-2.05 3.54-3.34.56-1.15.62-1.55.66-4.42l.04-2.48-1.11-.37c-1.16-.39-2.61-.52-2.86-.27-.1.1 1.98.98 2.84 1.2.32.08.43.28.26.49-.23.27-.9.09-3.19-.85l-1.13-.47-1.32.55c-.72.3-1.71.69-2.19.86l-.89.31.06.8c.2 2.7.2 2.85.02 2.85-.21 0-.2.24.03.91.66 1.94 1.64 3.06 3.54 4.05.97.51 1.02.52 1.7.18Zm-1.75-.84c-1.36-.7-3.14-2.68-2.76-3.07.25-.24.5-.07.88.58.54.95 2.17 2.19 2.87 2.19.48 0 1.96-1.18 2.79-2.22.58-.72.87-.84.92-.38.08.68-2.87 3.31-3.69 3.3-.13-.01-.59-.19-1.01-.4Zm1.92-.34c.37-.24.99-.75 1.37-1.11l.68-.68-.66.6c-.82.74-2 1.53-2.28 1.53-.3 0-1.52-.63-1.98-1.02l-.38-.32.3.32c.36.38 1.7 1.11 2.03 1.12.13 0 .54-.2.92-.44Zm-3.92-3.19c-.26-.21-1.4-2.49-1.3-2.59.27-.27.57-.03 1.02.8.24.45.47.82.5.81.03 0 .23-.37.45-.82.35-.71.44-.82.69-.85.53-.06.5.1-.19 1.39-.77 1.43-.85 1.52-1.17 1.26Zm1.93-.01c-.19-.23-.11-2.43.09-2.56.21-.13 1.5-.12 1.89.01.39.14.51.35.51.92 0 .75-.26.97-1.15.97h-.74l-.03.38c-.03.41-.34.56-.57.28Zm2.75.05c-.14-.23-.19-2.4-.06-2.56.24-.29.49-.16 1.17.65l.68.8.05-.77c.05-.73.07-.78.29-.81.36-.05.41.13.34 1.38-.08 1.61-.26 1.68-1.28.51l-.6-.69-.05.77c-.05.68-.07.76-.27.79-.11.02-.24-.01-.27-.07Zm-3.83-1.31c.32-.61.55-1.1.5-1.1s-.31.45-.58 1-.52 1-.56 1c-.03 0-.28-.42-.53-.92-.4-.78-.79-1.41-.65-1.03.15.38 1.11 2.15 1.17 2.15.04 0 .33-.5.65-1.1Zm2.22.32c.91-.03 1.05-.13 1.05-.74 0-.55-.28-.7-1.21-.66l-.74.03-.01 1.1c-.01.61.01.92.05.7l.06-.4zm1.94-.6c.01-.52.06-.5.84.35.78.86.71.65-.11-.31-.93-1.1-.92-1.1-.91.26.02 1.12.16.88.18-.3Zm1.9.16c-.02-1.23-.07-1.13-.11.25-.02.48 0 .87.05.87.04 0 .06-.51.06-1.12Zm1.53-1.8c.06-2.35.03-2.83-.13-2.42-.11.27-.11 4.84 0 4.84.04 0 .11-1.09.13-2.42Zm-6.11 1.98c-.07-.08-.11-.32-.09-.53l.03-.38.73-.03c.46-.02.79.02.88.09.17.14.18.71.02.87-.18.18-1.42.16-1.57-.02Zm1.41-.3c.19-.27-.37-.5-.94-.39-.3.06-.41.47-.16.56.22.07 1.03-.05 1.1-.17Zm-3.45-3.9c.87-.35 1.79-.73 2.06-.85l.47-.2.88.38c1.2.52 2.79 1.11 3 1.11.09-.01-.26-.16-.78-.35s-1.43-.56-2.02-.81l-1.07-.47-1.43.61c-.79.33-1.74.72-2.12.87-.39.14-.72.28-.75.3-.14.15.34-.02 1.76-.59Z"/></svg>