<svg xmlns="http://www.w3.org/2000/svg" width="51" height="51" viewBox="0 0 51 51"><path fill="#fff" fill-rule="evenodd" stroke="#fff" stroke-width=".71" d="M24.75 49.23C12.02 48.69 2.05 38.26 2.06 25.5c0-11.68 8.12-21.21 19.79-23.22 1.56-.27 5.6-.32 7-.1 13.9 2.26 22.6 14.61 19.88 28.22-2.07 10.36-10.98 18.06-21.74 18.8-.79.05-1.46.09-1.49.08s-.36-.03-.75-.05Zm3.55-.37c13.76-1.73 22.97-14.5 20.24-28.06C45.87 7.52 31.98-.72 18.85 3.19c-14 4.17-20.68 19.99-13.98 33.1 4.37 8.56 14.05 13.75 23.43 12.57Zm-7.84-11.35c-2.76-.91-3.75-4.2-2.09-7 1.33-2.23 3.81-3.36 6.3-2.85l.33.06.02-7.08.03-7.09 1.32-.03 1.32-.03.06.48c.3 2.23 1.12 3.78 3.05 5.78 2.17 2.25 2.9 3.82 2.9 6.23 0 1.5-1 4.57-1.56 4.79-.11.04-1.74-.91-2.18-1.28-.05-.04.01-.27.14-.51 1.44-2.75 1.11-4.76-1.17-7.1l-1.18-1.2-.05 6.09-.05 6.08-.27.74c-1.07 2.92-4.33 4.77-6.92 3.92Zm3.01-.31c1.66-.57 3.09-2 3.71-3.71l.27-.74.03-6.22c.02-4.96.05-6.23.16-6.23.13 0 1.8 1.68 2.39 2.41 1.29 1.6 1.48 3.74.53 5.76-.2.41-.36.78-.36.83 0 .06.49.41 1.61 1.14l.26.17.41-.79c.71-1.35.95-2.36.96-3.87 0-2.46-.63-3.8-2.96-6.23-1.77-1.84-2.52-3.23-2.89-5.38l-.11-.65-1.1.03-1.09.03-.02 7.1c-.02 7.03-.02 7.1-.22 7.09-.11-.01-.54-.07-.96-.12-4.6-.65-8.22 5.15-5.22 8.38 1.13 1.22 2.87 1.6 4.6 1Z"/></svg>