<svg xmlns="http://www.w3.org/2000/svg" width="51" height="51" viewBox="0 0 51 51"><path fill="#fff" fill-rule="evenodd" stroke="#fff" stroke-width=".767" d="M8.02 50.84C3.9 49.63.27 45.4.04 41.55l-.04-.7.15.76c.91 4.76 4.2 8.21 8.9 9.33.57.14.58.14.2.15-.22 0-.77-.11-1.23-.25Zm34.53-.03c4.57-1.17 7.77-4.7 8.49-9.37.12-.75.14-.81.15-.41.05 2.57-1.91 6.13-4.39 7.97-1.59 1.17-3.85 2.11-5.04 2.1-.17-.01.18-.14.79-.29ZM14.9 34.18c0-7.77 0-7.73.58-9 .85-1.86 2.51-3.17 4.64-3.68.83-.19 1.11-.2 8.54-.18l7.69.03.03 1.95c.05 3.6-.75 5.54-2.86 6.93-1.58 1.04-2.63 1.26-6.07 1.27h-2.5v1.98c-.01 3.18-.63 4.79-2.42 6.27-1.53 1.26-2.56 1.55-5.47 1.55H14.9zm5.23 6.64c1.78-.65 3.06-1.73 3.82-3.22.61-1.21.67-1.54.74-4.05l.06-2.3 3.1-.05c3.7-.06 4.47-.25 5.95-1.47 1.77-1.45 2.3-2.87 2.3-6.21v-2.03l-7.72.04c-6.94.03-7.8.05-8.38.21-2.16.57-3.92 2.19-4.55 4.18l-.25.78-.05 7.21-.06 7.21 2.23-.04c1.96-.04 2.3-.07 2.81-.26Zm.12-21.02c-2.57-.52-4.67-2.62-5.19-5.22-.23-1.12-.23-4.63 0-4.72.36-.14 15.1-.06 15.86.08 2.51.48 4.31 2.04 5.16 4.45.26.74.26.83.27 3.11v2.35l-7.85.01c-4.32.01-8.03-.02-8.25-.06Zm15.85-2.23c0-2.39-.08-2.85-.66-4.05-.66-1.36-1.91-2.45-3.47-3.05l-.82-.32-7.97-.03-7.98-.03v2.03c0 1.47.05 2.21.16 2.68.58 2.5 2.8 4.49 5.34 4.8.36.04 3.97.08 8.03.08l7.37.02zM.01 10.29C-.05 6.14 3.58 1.65 8.1.28l.75-.23h8.25l8.25-.01L17.3.1c-5.85.05-8.17.1-8.5.18C3.85 1.63.5 5.47.1 10.25l-.07.9zm51.05-.76C50.37 4.65 46.1.59 41.15.11l-.9-.08.86-.02c4.5-.07 9.57 4.64 10.05 9.33.08.76 0 .9-.1.19Z"/></svg>