<svg xmlns="http://www.w3.org/2000/svg" width="51" height="51" viewBox="0 0 51 51"><path fill="#fff" fill-rule="evenodd" stroke="#fff" stroke-width=".71" d="m8.42 38.98.03-3.83.58-.03.57-.03v6.51H16v1.2H8.4zM35.1 42.2v-.6l3.23-.02 3.22-.03.03-3.23.02-3.23.58.03.57.03v7.6l-3.82.03-3.83.02zm-19.32.03-.03-.38-3.2-.05-3.2-.05v-6.4l-.32-.03-.33-.03v7.31h7.11zm26.75-.61c.09-1.26.09-4.91.01-5.71-.07-.59-.08-.61-.35-.61h-.29v1.22c0 .68-.03 2.14-.07 3.25l-.06 2.03-3.21.02-3.21.03-.03.38-.03.37h7.18zM24.2 36.89c-7.82-.98-12.3-9.44-8.75-16.49 4.14-8.22 16.12-8.22 20.25 0 4.1 8.16-2.5 17.63-11.5 16.49Zm4.25-.52c8.21-2.31 11.03-12.39 5.17-18.49-5.36-5.58-14.78-4.1-18.07 2.84-3.15 6.65.8 14.48 7.98 15.84 1.2.22 3.8.12 4.92-.19Zm-4.5-1.41c-6.79-1.31-10.07-9.25-6.11-14.8 4.26-5.96 13.26-5.14 16.38 1.5 3.17 6.77-2.95 14.71-10.27 13.3Zm3.8-.65c6.75-1.72 9.09-10.27 4.13-15.07-5.71-5.54-15.25-1.55-15.22 6.36.03 5.81 5.52 10.13 11.09 8.71ZM8.45 15.98c-.03-.07-.04-1.8-.03-3.83l.03-3.7 3.77-.03L16 8.4l.06.23c.03.14.04.39.02.58l-.03.34-3.2.05-3.2.05-.05 3.2-.05 3.2-.53.03c-.36.02-.54-.01-.57-.1Zm33.22.05c-.04-.03-.07-1.5-.07-3.25V9.6l-3.22-.02-3.23-.03v-1.1h7.6l.03 3.74c.02 2.93-.01 3.76-.1 3.83-.16.09-.92.11-1.01.01ZM9.4 12.6V9.4h6.4v-.8H8.7v7.2h.7zm33.1-.4V8.6h-7.1v.8h6.38l.07 2.36c.04 1.3.04 2.74.01 3.2l-.07.84h.71z"/></svg>