<svg xmlns="http://www.w3.org/2000/svg" width="51" height="51" viewBox="0 0 51 51"><path fill="#fff" fill-rule="evenodd" stroke="#fff" stroke-width=".289" d="M10.01 51.03c-.09-.19-.62-1.82-.8-2.49l-.11-.42-.86.02c-1.18.02-1.4-.21-1.29-1.28.13-1.13.12-1.2-.1-1.24-.16-.03-.18-.01-.07.09.17.18.15.44-.04.6-.13.1-.17.1-.23 0-.05-.07-.26-.21-.48-.31l-.41-.18-.11 1.27c-.21 2.21-.41 3.73-.52 3.9-.12.18-.12.19.21-3.21.19-1.98.19-2.2.05-2.47-.2-.39-.19-.59.05-1.04.13-.25.28-.96.45-2.15.47-3.27 1.1-5.3 2.41-7.8l.54-1.02-.17-.73c-.09-.39-.2-.76-.24-.81-.24-.27-1.05.78-2.24 2.92-.65 1.17-.8 1.38-3.01 4.09-.88 1.09-1.93 2.42-2.32 2.97-.47.64-.72.91-.72.78 0-.25 1.56-2.34 3.63-4.86 1.15-1.4 1.72-2.2 2.22-3.09.37-.67.84-1.47 1.06-1.8.21-.32.39-.62.39-.67s.35-.33.78-.62c.98-.66 1.95-1.4 3-2.29l.82-.71-.31-.39c-.37-.47-.34-.47-.67-.06-.59.71-1.42 1.53-2.32 2.3-.52.45-1.2 1.04-1.5 1.33-.71.66-1.24.93-1.99 1l-.59.07-1.41 1.51C1.23 36.27 0 37.48 0 37.3c0-.09.72-.9 1.61-1.8 1.93-1.99 2.65-2.8 2.48-2.8-.07 0-1 .87-2.06 1.92C.96 35.68.07 36.57.05 36.59c-.03.02-.05-.01-.05-.08s.81-.95 1.8-1.95l1.8-1.83-.54-.12c-.67-.15-1.37-.58-1.64-1.02-.65-1.06-.91-3.63-.54-5.39.24-1.13.27-1.08-.38-.75-.69.35-.61.1.1-.3l.54-.3.22-1.07c.21-1.01.32-1.42.68-2.6.19-.62.18-.61-.38.22C.77 22.74 0 23.73 0 23.52c0-.1.15-.39.33-.63C1.3 21.62 3 18.85 3 18.56c0-.02-.65.29-1.44.7-1.6.83-1.56.81-1.56.55 0-.13.34-.43 1.01-.91 1.77-1.27 3.49-2.81 3.49-3.13 0-.03-.3.05-.67.19-.78.3-1.4.35-1.53.14-.06-.09-.1-1.71-.11-3.7 0-1.95-.06-4.34-.12-5.3l-.12-1.75-.45.41C.89 6.3.14 6.9.06 6.9c-.2 0 .03-.26.82-.92 1.18-1.01 1.36-1.17 3.49-3.2C6.71.54 7.11.44 4.89 2.65c-.91.91-1.63 1.65-1.6 1.65.71 0 1.98-.68 2.89-1.54.53-.51 1.22-1.15 1.51-1.41l.55-.48 1.62.06 1.63.06.38-.42.38-.42-1.3-.05-1.3-.06 1.53-.02L12.72 0l-.64.73c-1.37 1.54-1.45 1.78-.33.94 2.17-1.62 2.66-1.86.83-.4-.62.49-1.43 1.1-1.79 1.35-.91.65-1.61 1.43-1.87 2.13-.27.69-.51 2.5-.36 2.65.42.42 3.76.63 5.4.35 1.86-.33 6.69-1.71 7.1-2.04C25.63 2.11 30.29.7 35.8 1.28c.52.06.96.09.98.07.04-.04-.93-.62-1.72-1.04-.53-.28-.56-.31-.29-.31.3 0 1.76.81 2.19 1.21.13.12.56.28 1.01.39.43.09.92.21 1.08.25.35.08-.01-.31-1.24-1.33-.37-.3-.56-.52-.46-.52.18 0 .98.63 1.86 1.48.31.29.8.64 1.08.78l.53.24-.28-.48C40.23 1.48 39.5.51 39.26.31 39.08.16 39.05 0 39.2 0c.2 0 1.17 1.21 1.73 2.15.28.45.53.68 1.31 1.22 1.94 1.31 3.22 2.78 3.71 4.22.22.65 1.65 2.49 1.65 2.12 0-.18-.62-1.88-1.03-2.82-1.31-3-2.93-5.03-5.37-6.71l-.25-.17h.25c.16-.01.5.18.9.51l.65.51-.5-.51c-.29-.31-.43-.52-.34-.52.34 0 3.54 3.59 4.42 4.96a17.4 17.4 0 0 1 2.61 6.89c.08.55.26 1.36.4 1.8.5 1.6.98 4.87 1.17 8.06.16 2.62-.01 5-.67 9.14-.14.88-.3 2.07-.35 2.65-.35 3.73-.61 5.42-1.25 7.98-.58 2.38-1.59 5.01-2.07 5.41-.08.06.03-.23.24-.66 1.15-2.28 2.38-7.39 2.69-11.18.12-1.43.2-2.03.7-5.45.67-4.62.66-8.2-.06-12.85-.28-1.86-.47-2.6-.36-1.45.21 2.29-.01 6.44-.53 9.87-.29 1.91-.28 1.76-.13 1.67.58-.36-2.37 10.51-3.63 13.39-.21.48-.7 1.64-1.09 2.58s-.82 1.93-.96 2.21c-.14.27-.24.51-.22.52.02 0 .18.11.36.24.26.18.32.2.32.07 0-.09.07-.26.15-.38.07-.12.23-.6.34-1.07.28-1.17.74-2.51 1.09-3.13.16-.29.71-1.23 1.21-2.11 2.38-4.11 2.67-5.14 2.77-9.76.04-1.57.11-2.83.18-3.08.24-.88.08 5.39-.19 7.23-.08.55-.24 1.73-.35 2.61-.61 4.73-1.97 9.02-3.39 10.69-.28.32-.51.69-.51.81 0 .29-.25.54-.53.54-.4 0-.5-.15-.44-.59.03-.26-.01-.56-.1-.8l-.15-.39-.23.43c-.18.32-.22.53-.18.83.06.46-.25.65-.72.44-.21-.1-.29-.05-.82.52-.77.83-2.8 2.56-3 2.56-.23 0-.07-.17 1.32-1.38.66-.57 1.3-1.17 1.43-1.33l.23-.29h-.25c-.19 0-.45.2-1.01.79-.8.84-2.8 2.25-3.1 2.19-.11-.02.26-.32.97-.8 1.46-.99 2.94-2.44 2.28-2.23-.13.04-.28-.02-.45-.19-.26-.26-.95-.38-.95-.17 0 .35-.66.53-.93.26-.14-.13-.2-.13-.54.01-.25.11-.55.15-.88.11l-.5-.05-.88 1.17c-1.16 1.55-1.51 1.95-1.64 1.9-.07-.02.19-.43.58-.91l.69-.88v-.65c0-1.02-.39-1.61-.62-.94-.1.28-.13.3-.52.27l-.41-.03.01-.43.01-.42-.71.02-.71.01.6.06c.65.06.97.56.48.76-.34.13-1.59.18-1.8.07-.25-.14-.37-.98-.17-1.22.12-.15.31-.69.21-.6-.03.03-.27.36-.53.75-.68 1.01-.82 1.15-1.21 1.15-.18 0-.33.02-.33.04s.21.68.46 1.46.43 1.44.41 1.47c-.11.1-.39-.68-1.25-3.47-.17-.52-.32-.88-.35-.8s-.11.39-.17.68l-.12.52h-.44c-.24 0-.44-.04-.44-.09 0-.06-.12-.04-.26.04-.37.19-.63.07-1.04-.48-.4-.53-.38-.53-.48.04-.06.35-.12.45-.3.47-.27.04-.31-.14.28 1.52.52 1.48.55 1.6.42 1.6-.05 0-.32-.69-.61-1.54-.55-1.61-.62-1.7-1.08-1.57-.42.12-.67-.02-.98-.55s-.32-.53-.49.27c-.07.32-.2.36-1.1.31-.57-.03-.69-.07-.73-.23-.08-.28-.78-.27-.93.01-.06.11-.2.2-.3.2-.11 0-.2.06-.2.13 0 .14.63 2.49.75 2.8.05.11.02.17-.07.17-.15 0-.49-.98-.84-2.42-.14-.6-.19-.68-.4-.68-.17 0-.24-.07-.27-.27l-.04-.28-.02.28-.01.27h-.8c-.94 0-.9.09-.6-1.35.11-.53.2-.99.2-1.02 0-.02-.12-.03-.27-.01-.27.03-.28.06-.48 1.18l-.2 1.15-.74.03-.74.03.07-.84.07-.84-.4-.26c-.6-.4-.64-.38-.76.31l-.07.42h.46c.33 0 .48.05.53.16.08.22-.15.94-.33 1.01s.47 1.34 1.23 2.4c.48.67.5.73.3.73-.18 0-.35-.2-.77-.9-.66-1.07-.61-1.06-.88-.23l-.22.67.22.23c.18.19.19.23.05.23-.36 0-1.82-2.02-2.43-3.36-.31-.7-.35-.74-.5-.59-.3.3.35 2.07 1.27 3.42.34.51.31.68-.05.34l-.24-.23-.07.21c-.03.12-.11.21-.16.21-.12 0-.11-.16.03-.39.09-.16.08-.27-.07-.6-.31-.7-.38-.68-.8.19-.36.73-.55.97-.55.69 0-.06.19-.47.42-.91l.41-.8-.28-.89c-.28-.87-.29-.89-.42-.64-.12.22-.2.25-.73.25h-.6v-.37c0-.75.38-2.27.61-2.45.69-.57 1.24-.09 1.16.99-.07.89.11.85.33-.07.3-1.26-.18-1.74-1.8-1.78l-1.19-.04-.07.27c-.41 1.64-.33 2.02.42 2.04.55.02.67.97.18 1.37-.13.1.16 1.21.7 2.72.15.41.06.59-.13.25Zm4.57-2.2c-.16-.32-.18-.3-.61.38l-.39.6.27.35.28.36.28-.73c.25-.62.27-.78.17-.96Zm-.65.03c.46-.69.51-.62-.5-.69-.97-.06-.98-.05-.46.76.44.68.47.67.96-.07Zm21.66-.95c.11-.07.1-.14-.08-.39-.27-.38-.27-.38.09-.69.66-.55.32-1.03-.74-1.03h-.73l-.17.61c-.32 1.15-.33 1.51-.05 1.47.14-.02.25-.11.27-.23.11-.58.54-.6.82-.05.21.4.33.47.59.31Zm-26.18-.28c.2-.54.1-.68-.55-.71l-.59-.03.06-.6.05-.59h-.54c-.53 0-.54 0-.54.3 0 .16-.05.51-.11.79-.11.5-.02.85.25 1.03.34.23 1.86.08 1.97-.19Zm1.59-.15c.47-1.08.48-2.18.01-2.18-.49 0-.7.49-.95 2.18l-.06.42h.4c.39 0 .42-.03.6-.42Zm3.6.16c.16-.41.13-.44-.4-.44-.27 0-.5-.04-.5-.09 0-.04.11-.63.25-1.31.34-1.68.35-1.64-.17-1.56-.6.1-.64.16-.93 1.57-.4 1.99-.35 2.09.92 2.09.7 0 .74-.01.83-.26Zm1.89-.71c.16-1.11.13-1.23-.32-1.23-.46 0-.52.1-.71 1.11-.22 1.17-.24 1.11.37 1.07l.52-.03zm1.81.45c.06-.29.14-.79.17-1.1l.06-.58h-.36c-.39 0-.39-.01-.66 1.2-.2.87-.16 1 .28 1 .39 0 .39 0 .51-.52Zm1.64.27c.14-.21.24-.25.66-.25.45 0 .52.03.6.25.15.38.63.36.54-.03-.54-2.2-.7-2.3-1.63-.95-.16.23-.39.55-.51.71-.22.3-.2.52.04.52.08 0 .21-.11.3-.25Zm2.76-.17c.19-.73.21-.79.31-.76.05.02.26.28.47.58.58.84.8.79 1.04-.25.24-1.1.24-1.27-.04-1.23-.19.02-.25.13-.36.66-.16.72-.17.72-.77-.12-.65-.91-.85-.71-1.19 1.17-.11.6.38.55.54-.05Zm2.66.14c.27-1.21.2-1.18.84-.36.72.92.95.73 1.25-1.06.13-.78-.36-.53-.53.28-.17.77-.2.77-.77-.03-.55-.77-.79-.84-.94-.27-.37 1.37-.39 1.72-.11 1.72.13 0 .22-.09.26-.28Zm2.92-.7c.27-1.19.27-1.12-.01-1.12-.22 0-.26.09-.45.88-.28 1.12-.28 1.22.01 1.22.21 0 .25-.09.45-.98Zm1.83.75c.38-.52 1.19-1.76 1.19-1.81 0-.28-.43.06-.85.67-.62.89-.65.89-.84.02-.15-.63-.19-.7-.42-.73l-.27-.03.19.93c.11.51.21.99.24 1.06.07.2.58.14.76-.11Zm2.89.08c0-.11-.13-.15-.54-.15-.6 0-.68-.05-.59-.38.05-.19.12-.22.57-.22.49 0 .76-.12.76-.33 0-.06-.23-.07-.55-.04-.59.06-.72-.01-.55-.33.09-.17.21-.2.75-.2.59 0 .87-.11.7-.28-.08-.08-1.61-.09-1.69-.01-.11.11-.57 1.83-.52 1.96.08.2 1.66.19 1.66-.02Zm4.74.04c.92-.42.48-1.07-.94-1.39-.03 0 .04-.07.14-.15.25-.19.75-.19.82-.01.06.15.54.02.54-.14 0-.31-1.11-.38-1.57-.1-.62.37-.41 1 .33 1 .42 0 .72.2.6.39-.13.2-.76.24-.96.06-.35-.31-.78-.04-.45.29.19.19 1.11.22 1.49.05Zm1.2-.14c.14-.21.24-.25.61-.25.39 0 .47.04.57.25.19.41.62.35.53-.07-.44-2.04-.68-2.15-1.66-.78-.38.52-.69.98-.69 1.03 0 .18.49.05.64-.18Zm2.71-.02c.12-.51.55-.51.75-.02.09.21.19.29.36.29.28 0 .28.01.1-.41-.13-.32-.13-.34.15-.6.62-.58.29-1.09-.71-1.09h-.67l-.3 1.05-.31 1.05h.28c.22 0 .29-.06.35-.27Zm2.91-.05c.03-.18.29-.57.56-.87.63-.69.75-.91.5-.91-.1 0-.38.23-.61.5-.23.28-.46.5-.51.5-.04 0-.16-.22-.26-.5-.13-.35-.23-.5-.36-.5-.24 0-.22.23.06.89.18.42.22.61.15.85-.05.17-.09.32-.09.33 0 .24.5-.03.56-.29ZM12.45 46.5c.15-.87.14-.93-.02-1.05-.17-.13-.18-.09-.24.49-.03.34-.08.67-.12.72-.06.1.13.87.2.8.02-.02.1-.45.18-.96Zm28.69.12c.25-.97.37-1.12.91-1.12h.45l.34-.67c2.27-4.52 5.45-16.25 6.12-22.6.75-7.03-.2-11.33-3.04-13.7-.63-.54-.63-.54-.4.13.1.31.23.79.29 1.07.05.28.14.54.2.58.31.19.69 2.93.69 4.94 0 4.15-1.42 10.68-3.94 18.12-.83 2.42-1.27 3.58-2.06 5.33-.29.63-.68 1.56-.87 2.05-.19.5-.6 1.44-.9 2.1-.31.66-.71 1.53-.89 1.92l-.33.73.33.14c.54.22.69.86.2.86-.13 0-.12.04.03.25.24.32.21.34.77-.46.79-1.12 1.2-1.06 1.56.21.28.97.33.99.54.12Zm-21.08-.38c.34-.63-.17-.87-.54-.26-.27.42-.27.41-.18.85l.07.32.24-.3c.13-.16.32-.44.41-.61Zm2.09.16c.29-1.13.61-1.21 1.28-.35l.42.55.13-.59c.12-.54.11-.65-.08-1.29l-.21-.69-.77.23c-.42.13-.96.28-1.19.34-.49.12-.49.16-.07 1.48.13.4.24.8.24.89 0 .28.08.11.25-.57Zm19.65.26c0-.43.1-.56.44-.56.72 0 .85.51.18.7-.54.15-.62.13-.62-.14Zm-11.41-.51c.23-.36.46-.65.51-.65s.37-.21.72-.48c.66-.49 2.48-1.56 3.31-1.92l.47-.21v-1.12c0-.62.05-1.66.1-2.31.12-1.44.2-1.36-.86-.83-.49.24-1.35.61-1.9.82l-1.02.37-.07 1.37c-.15 2.84-.24 3.25-.2.93.02-1.23 0-2.22-.05-2.22-.16 0-2.33.79-2.39.87-.04.04-.05 1.12-.03 2.39l.04 2.3.31.1c.29.08.33.15.46.67.16.69.1.7.6-.08Zm4.03.33c.03-.37.72-.55.96-.25.21.25-.13.57-.59.57-.39 0-.4-.01-.37-.32Zm-7.67-.25c.11-.6.22-.73.6-.73.53 0 .56-.42.11-1.52-.33-.8-.7-2.08-.6-2.08.03 0 .09.12.15.27l.1.26.5-.49c.28-.27.59-.61.7-.75l.19-.27-.6.16c-.53.14-.6.19-.61.42-.01.24-.01.24-.14-.06-.09-.2-.24-.34-.41-.38-.15-.04-.71-.27-1.24-.52l-.97-.44-.59.35c-.33.19-.65.38-.73.43-.11.06-.09.23.12.97.15.5.31 1.11.38 1.38.06.26.15.47.19.47.14 0 1.85-.67 2.28-.89.23-.12.43-.17.47-.11.07.12-.15.24-1.55.81-.63.26-1.14.51-1.14.56.1.71.39 1.43.58 1.43.12 0 .28.04.35.09.09.06.22.06.34-.01.32-.16.6-.01.96.52.41.6.47.61.56.13Zm17.95.09c0-.28.71-.83.98-.77.35.07.73-.71 1.35-2.75.73-2.41 1.88-8.21 1.45-7.3-.93 1.97-2.3 4.43-3 5.38-.47.63-.56.89-1.12 2.99l-.43 1.63.23.15c.12.08.25.28.29.45.06.26.25.43.25.22Zm-7.67-.77c.46-.22.45-.21 1.32-2.09.64-1.39.65-1.48.03-.63-.41.55-1.65 2.02-2.25 2.66-.18.19-.2.27-.11.47l.11.24.24-.22c.14-.13.43-.32.66-.43ZM19.6 45.4l.19-.25.28.27c.26.25.33.27.62.18.19-.05.38-.07.42-.04.14.08.11-.2-.11-.98-.7-2.61-1.16-7.55-.91-9.75.1-.87.1-.98-.14-1.8-.41-1.41-.55-2.52-.54-4.28l.02-1.6.12 1.86c.18 2.58.45 3.75 1.44 6.22.33.82.36.97.22.97-.05 0-.24-.37-.42-.81-.29-.69-.35-.78-.4-.58-.09.31-.11 2.83-.03 3.42l.07.46.56-.36c.31-.19.58-.37.6-.39.03-.02-.05-.13-.17-.24-.35-.33-.25-.33.2 0 .27.2.44.27.48.2s.12.01.19.18c.07.16.25.42.41.57l.29.27.46-.25c.54-.31 2.16-1.43 2.64-1.84l.34-.29-.27-.93c-.28-1-1.04-3.11-1.16-3.25-.05-.04-.85-.05-1.79-.01l-1.71.08v.27c0 .15.03.41.06.57l.06.3.6-.14c.89-.2 1.05-.11.21.12-.4.1-.73.23-.73.28 0 .35.75 2.73 1.29 4.1.13.35.15.55.02.41-.25-.26-1.07-2.43-1.37-3.6-2.15-8.53 2.5-21.56 9.71-27.25 1.66-1.31 3.6-2.45 4.61-2.7.67-.17.35-.27-.87-.28l-.97-.01-1.13.58c-4.08 2.07-6.63 4.77-9.55 10.09-1.57 2.89-1.66 2.74-.11-.21 2.6-4.97 5.31-7.92 9.09-9.92l1.03-.54h-.47c-1.82-.01-5.69 1.13-7.78 2.28-4.52 2.49-7.54 6.19-9.89 12.12-1.49 3.77-2.68 9.93-3.81 19.75-.28 2.45-.36 4.25-.19 4.36.1.06.11.09.02.09-.27 0-.16 1.06.13 1.25.14.09.27.15.28.13.06-.08.28-3.79.36-6.08.13-3.77.45-5.34 1.31-6.31l.3-.34-.24.35c-.73 1.04-.96 2.21-1.04 5.36-.08 2.85.37 6.75.76 6.66.07-.01.32-.08.56-.14.52-.14.75-.01.75.43 0 .16.05.29.12.29.06 0 .28.18.48.4l.38.41.11-.68c.07-.37.17-.85.22-1.06l.1-.38.67.03.67.03v.45c0 .25-.04.58-.08.74-.08.28-.05.27.53-.24.73-.63.78-.79.56-1.94-1.87-10.27.44-22.95 5.52-30.13.43-.62.72-.9.36-.35-5.01 7.51-7.43 20.04-5.73 29.67.11.61.24 1.44.29 1.85.06.41.18 1.15.27 1.63.19.96.13.94.63.27Zm-13.33.16c-.53-.48-.52-.92.03-1.43.55-.52.56-.77.01-.49-1.09.57-1.15 1.81-.11 2.19.38.14.41.04.07-.27Zm12.5-.08c-.03-.13-.11-.49-.17-.8l-.11-.58-.52.43c-.5.41-.97.86-.97.93 0 .02.37.03.82.01.58-.01.82.02.85.11.08.21.15.13.1-.1Zm14.06.06c1.04 0 1.08-.01 1.38-.3.42-.4 1.92-2.25 1.86-2.3-.15-.16-3.17 1.41-4.3 2.23-.43.32-.57.65-.18.46.09-.04.64-.08 1.24-.09Zm-15.94-.79c.07-.38.15-.78.17-.87.05-.16-.02-.18-.46-.18-.57 0-.54-.05-.73 1.02l-.14.77.52-.02.52-.02zm19.58-.02c2.7-3.03 4-5.45 5.93-11.08 3.24-9.47 4.54-16.75 3.85-21.4l-.2-1.3-.07 1.45c-.06 1.5-.18 2.18-.68 4.05-.16.61-.36 1.66-.45 2.35-.43 3.22-1.94 9.6-3.17 13.4-1.57 4.86-4.21 9.83-6.63 12.5-.77.85-.77.8.02.8h.7zm-27.98 0c.07-.36.17-.75.22-.85.11-.21.31-.15.22.07-.08.22.9.2 1.52-.04.38-.14.51-.24.53-.42l.03-.24H8.12l-.12.4c-.18.6-.37.93-.43.75-.41-1.23-.44-1.25-.63-.43-.31 1.3-.26 1.38.92 1.42l.51.01zm4.06-.6c-.07-.5-.11-1.1-.08-1.32.08-.56-.21-.59-.31-.03-.16 1-.08 1.91.19 1.98.14.03.25.13.25.22 0 .08.02.13.05.11.02-.03-.02-.46-.1-.96Zm6.81.25c-.34-.79-.64-1.77-.69-2.3-.05-.58.08-.54.18.04.04.24.21.83.37 1.33.43 1.31.47 1.45.42 1.45-.03 0-.15-.24-.28-.52Zm9.21.33.23.09-.01-1.43c0-.78-.04-1.64-.07-1.92l-.07-.5-.32.45c-.18.24-.52.6-.76.8-.5.41-.51.31.13 1.82.26.64.35.76.48.69.09-.05.26-.05.39 0Zm-5.97-.58c1.1-.31 1.06-.22.7-1.6-.42-1.59-.29-1.51-1.48-.96-1.17.54-1.12.42-.82 1.88.11.53.2.99.2 1.01 0 .05.32-.02 1.4-.33ZM8.09 42.81c.14-.05.42-.13.61-.17.44-.09.17-.22-.47-.23-.41-.01-.42-.02-.5-.43l-.09-.43-.19.4c-.17.33-.26.41-.53.43-.43.04-.37.24.11.36.2.05.37.14.37.2s.05.29.12.51l.12.4.1-.47c.07-.37.15-.49.35-.57Zm-1.85.58c.19-.11.4-.18.46-.14.23.14.08-.19-.21-.46-.39-.36-.34-.52.19-.6.48-.06.43-.02.67-.57.23-.54.4-.53.54.04.07.26.13.45.15.43.03-.04-.2-2.23-.26-2.57-.02-.08-.22 0-.55.23-.67.45-.69.29-.03-.2.47-.35.5-.39.5-.81 0-.48 0-.48-.52-.12-.43.3-.33.04.12-.32l.4-.32v-1.06c0-.65-.04-1.01-.09-.92-.24.42-1.05 2.86-1.21 3.65-.14.67-.6 3.7-.6 3.92 0 .06.1.02.44-.18Zm4.47-.45c.14-.04.35-.81.25-.91-.01-.01-.46.03-.99.09-.91.11-.96.13-.73.25.14.08.26.16.26.18 0 .09-.6.35-.82.35-.19 0-.2.02-.08.1.14.1 1.71.05 2.11-.06Zm25.39-.34c.41-.21.71-.6 1.68-2.2l.52-.86.35-2.09c.31-1.82.75-4.93.75-5.27 0-.53-1.29 1.38-2.2 3.23-.38.79-.85 1.73-1.04 2.09-.34.62-.35.71-.46 2.25-.06.88-.13 1.93-.16 2.33-.06.81-.04.83.56.52Zm-26.09-.71.96-.11.12-1.69.13-1.68-.42-.6-.42-.6-.92.77c-.5.42-1.04.87-1.2.99l-.28.23.11 1.02c.07.57.14 1.23.18 1.47l.06.43.36-.06c.2-.03.79-.11 1.32-.17Zm12.59-1.14c2.1-1.11 2.46-1.33 3.85-2.38 2.67-2.02 3.95-3.17 7.15-6.43 2.02-2.06 2.24-2.34 4.93-6.26.54-.79 1.02-1.47 1.08-1.53.15-.14-.79 1.34-1.99 3.14-.94 1.4-1 1.51-.6 1.16 5.08-4.51 8.68-11.31 8.68-16.38 0-3.09-.62-4.65-2.17-5.45-1.25-.64-1.24-.64-1.17.05.34 3.24-2.2 12.65-4 14.88-.21.26-.08-.07.57-1.45 1.87-3.97 3.23-9.47 3.15-12.8l-.03-1.35-.88-.29c-1.03-.34-1-.35-.83.31.51 1.91.13 4.62-1.3 9.58-3.53 12.16-11.02 22.32-18.16 24.64-.39.13-.52.53-.3.89.1.15 1.89-.58 3.42-1.4.64-.34.89-.44.76-.3-.18.2-2.29 1.3-3.59 1.86-.32.14-.56.3-.52.35.08.13.16.1 1.95-.84Zm5.65 0 .4-.11-.02-.55c-.03-.97-.25-2.69-.35-2.69-.22 0-1.77 1.26-1.72 1.4.03.08.17.56.31 1.05.13.49.26.96.28 1.02.04.13.35.1 1.1-.12Zm-1.35-.02c0-.05-.13-.49-.28-.99l-.27-.92-.78.56c-.88.63-.9.55.33 1.09.76.33 1 .39 1 .26Zm4.05-1.28c.65-.71 2.2-3.64 2.03-3.81-.02-.01-.75.1-1.64.24l-1.6.27-.68.55c-.46.37-.63.56-.52.58.09.02.14.07.11.11-.02.05.03.76.12 1.59l.17 1.51.8-.3c.65-.23.89-.37 1.21-.74Zm-9.75-.32c0-.72.01-.71-.45-.4-.35.22-.47.73-.29 1.21.18.47.74-.14.74-.81Zm1.11.17.42-.22-.44-.44c-.65-.66-.83-.59-.87.33l-.03.73.25-.1c.14-.05.44-.19.67-.3Zm9.99.05c2.89-.97 3.36-1.34 4.36-3.35.62-1.24.67-1.12-.4-.98-.53.07-.81.15-.7.18.16.06.11.11-.26.3-1.56.79-2.6 1.69-3.31 2.86-.27.46-.54.86-.59.89-.14.09-.32.45-.22.45.04 0 .55-.16 1.12-.35Zm-23.15-1.4c.5-.42.94-.81.99-.86.06-.05.02-.22-.09-.43l-.19-.34-.98.9c-.92.85-.98.93-.98 1.3 0 .48.03.47 1.25-.57Zm30.8-1.9c.19-.51.45-2.05.81-4.95l.06-.45-.6.58-.59.59-.07.88c-.05.71-.56 4.25-.81 5.65-.07.36.88-1.45 1.2-2.3Zm-28.55 1.1.12-.96-.38-.56c-.63-.96-1.31-2.33-1.69-3.45l-.37-1.08-.28.2-.28.2.15.67c.41 1.97 2.13 5.9 2.59 5.93.01 0 .07-.43.14-.95Zm-1.8-.9c.12-.14-.54-2.16-.8-2.48-.04-.05-.26.28-.49.71l-.41.8v2.54l.79-.71c.43-.39.84-.78.91-.86Zm24.91-.55c.91-.55.91-.56-.13-.35-1.14.23-1.15.24-1.21.42-.03.1-.17.44-.31.77l-.27.58.55-.46c.3-.26.91-.69 1.37-.96Zm-5.72-1.44c.95-1.04 2.54-3.1 2.42-3.14-.04-.01-.71.11-1.47.28-1.63.37-2.58.55-3.72.71-.71.1-.82.14-.76.28.28.68 1.05 2.86 1.14 3.26l.16.64c.05.16 1.03-.73 2.23-2.03Zm3 1.19c.79-.13 1.51-.31 1.6-.38.36-.32 2.77-1.51 3.81-1.88.58-.21-.2.25-1.72 1.02-1.35.67-2.03 1.08-1.4.84.15-.06 2.93-.55 3.11-.55.05 0 .3-.37.56-.82.63-1.06 1.39-1.99 2.69-3.28.58-.57 1.06-1.09 1.06-1.14s-.4.3-.89.77c-1.07 1.03-1.96 1.66-2.13 1.49-.09-.09.07-.3.64-.84 1.48-1.41 1.67-1.88.78-1.88h-.6l-.46.7c-1.2 1.82-2.76 2.74-3.75 2.18l-.38-.21-.48.43c-.9.82-3.98 3.8-3.93 3.8.03 0 .7-.11 1.49-.25Zm-20.45-.64c.17-.19.16-.25-.33-1.6-.28-.77-.51-1.45-.51-1.51 0-.19-.25-.1-.54.2l-.29.29.23.58c.74 1.85 1.12 2.39 1.44 2.04Zm.51-1.23c.03-.4.15-1.25.25-1.88.23-1.38.3-1.29-.68-.74l-.81.46.39 1.11c.73 2.1.74 2.11.85 1.05Zm29.16-.24c.39-1.1.57-3.44.24-3.13-.11.11-.2.44-.26.99-.05.46-.16 1.3-.24 1.88-.22 1.57-.2 1.59.26.26Zm-20.15-.92c-.17-.28-.36-1.48-.35-2.22l.02-.85.08.8c.05.44.15 1.14.23 1.55.14.73.14.91.02.72Zm-16.3-.64.39-.43-1.1-.07c-.61-.03-1.34-.13-1.62-.21-.63-.17-.65-.12-.15.35.93.89 1.87 1.03 2.48.36Zm1.54-.04c.25-.12.58-.32.74-.43l.29-.19-.64.05c-.76.07-.75.06-1.23.6l-.37.42.38-.11c.21-.06.58-.21.83-.34Zm3.94-.21c.25-.27.27-.36.21-.72-.08-.48-.19-.51-.64-.13l-.34.28.18.53c.09.29.2.49.24.44.03-.04.19-.22.35-.4Zm13.31.37c2.71-.15 5.95-.7 5.95-1.01 0-.77-.87-2.02-1.7-2.44s-.84-.42-1.09.19c-.74 1.78-3.01 2.36-4.19 1.07-.43-.47-1.02-.27-1.02.34 0 1.09.13 1.95.29 1.95.09-.01.88-.05 1.76-.1Zm18.78-2.1c.53-1.75.77-2.67 1.2-4.68l.34-1.53-.7-.42-.7-.41-.18.23c-.2.24-.2.38-.24 5.16 0 .49-.06 1.33-.13 1.85-.11.93-.14 1.55-.06 1.35.02-.05.23-.75.47-1.55Zm-5.84 1.24c.34-.29.42-.51.13-.35-.39.21-.45-.1-.1-.48.28-.29.23-.27-.3.14-.78.6-.78.6-.5.79.31.22.41.2.77-.1Zm-24.72-.41c.69-.38.77-.48.86-1.09.06-.35.03-.44-.17-.63l-.24-.23-.84.72c-.45.4-.83.75-.83.79.06.98.17 1.02 1.22.44Zm-4.31.19c.78-.12 3.99-3.05 3.8-3.47-.74-1.62-.71-2.97.11-4.23.08-.13.13-.25.11-.26-.02-.02-.37-.24-.78-.51-.41-.26-.93-.61-1.14-.78l-.39-.31-.82.88c-.66.71-1.05 1.27-1.95 2.83-1.49 2.57-2.73 4.44-3.47 5.2l-.6.62.51.1c.54.11 3.76.06 4.62-.07Zm23.18 0c.5-.29-.8-2.83-1.86-3.64-1.1-.84-3.37-1.48-5.26-1.48-.57 0-.51-.17.13-.39 1.59-.56 4.18-2.11 5.82-3.48 1.08-.89 1.08-.85-.22-1.11l-1-.2h.65c.36-.01.93.05 1.27.12l.63.14.67-.77c.78-.89 1.74-2.17 2.63-3.51l.63-.95.23-1.58c.13-.87.34-2.1.48-2.72.15-.63.26-1.17.26-1.2 0-.02-.77.97-1.72 2.23-5.61 7.41-6.92 8.85-10.54 11.53l-1.31.97-.21 1.24c-.31 1.78-.34 1.68.36 1.52 1.67-.4 4.47-.02 5.88.81.67.39 1.54 1.69 1.54 2.31 0 .33.5.42.94.16Zm.81-.13c.4-.1.5-.19 1.03-.98 1.33-1.94 1.39-2.16 1.62-6.11.06-1.07.18-2.75.26-3.73s.14-1.9.14-2.03v-.26l-.41.34c-.22.18-.5.4-.62.48l-.22.14.2-.24c.1-.14.4-.45.66-.7.43-.4.48-.5.52-.98l.04-.53-.75 1.13c-.86 1.29-1.19 1.71-2.16 2.81-.38.43-.67.79-.65.81s.34.13.71.25c1.15.38.87.5-.32.15-.69-.21-.77-.18-1.48.44-1.45 1.27-2.71 2.12-4.64 3.12l-1.29.67.69.07c3.31.33 5.9 2.33 6.1 4.71.02.3.06.55.09.55.02 0 .24-.05.48-.11ZM2 30.6c.43 0 2.27-2.72 4.8-7.1.21-.36.75-1.05 1.2-1.53.46-.48.81-.89.79-.9-.03-.01-.23-.2-.46-.41-.52-.48-.41-.56-1.86 1.34-2.22 2.9-4.65 5.96-5.04 6.35l-.4.39.14.75c.16.85.37 1.26.6 1.17.08-.03.19-.06.23-.06Zm11.85-1.15c.14-1.61.66-3.92 1.26-5.55.29-.79.34-.72.08.11-.39 1.25-.87 3.36-1.09 4.74-.25 1.59-.36 1.88-.25.7Zm11.23.42c.56-.37 1.3-1.87.92-1.87-.06 0-.13.08-.16.18-.51 1.59-1.79 2.17-2.88 1.31-.34-.27-.66-.89-.66-1.29q0-.3-.15-.3c-.44 0 .07 1.49.65 1.9.67.48 1.62.51 2.28.07Zm12.66-.93c.98-.46 2.39-.88 2.78-.82.25.03.33.78.13 1.23-.07.17-.04.16.19-.05.44-.4.59-.77.53-1.33-.07-.78-.28-.9-1.46-.82-1.14.07-.9-.08-2.57 1.55-.77.74-1.2 1.2-.97 1.02s.84-.53 1.37-.78Zm-13.06.03c.29-.27.52-.69.52-.97 0-.3-.27-.24-.45.1-.26.5-.59.65-1.05.5-.25-.08-.37-.17-.33-.26.03-.09-.02-.14-.16-.14-.28 0-.28.29 0 .64.4.51 1.01.56 1.47.13ZM3.73 25.16c3.38-4.35 3.16-4.05 2.71-3.69-1.3 1.06-1.94 1.69-3.59 3.58L1 27.15l.02.69.01.7.41-.49c.23-.26 1.25-1.56 2.29-2.89Zm20.53 3.16c.13-.08.37-.52.32-.57-.12-.12-.76-.14-.91-.03-.39.29.18.88.59.6Zm-11.64-.54c.02-.23-.05-.46-.23-.73-.37-.56-.8-1.43-.94-1.88-.16-.55-.3-.42-.29.28.01 1.17 1.36 3.32 1.46 2.33Zm29.06-3.43-.03-.79-.18.28c-.16.24-.17.34-.08.71.06.24.12.95.12 1.57l.02 1.13.09-1.05c.04-.58.07-1.41.06-1.85Zm-6.33 0c2.73-5.54 4.83-12.49 4.89-16.15l.01-1.04-.75-.18c-1.6-.38-4.31-.4-6.27-.03-2.12.39-5.48 4.02-7.96 8.6-1.1 2.03-1.42 2.17 3.08-1.3 2.27-1.76 3.26-2.48 3.31-2.43.07.08-.48.54-2.61 2.18-4.86 3.74-4.82 3.71-5.06 4.25-.31.7-1.2 3.25-1.14 3.25.03 0 .56-.23 1.17-.52l1.11-.52 1.33-1.77c1.33-1.77 3.62-4.74 4.15-5.39.49-.59.32-.16-.24.61-.29.41-1.09 1.46-1.77 2.35-.69.89-1.72 2.23-2.28 2.98l-1.04 1.37-1.21.6c-1.53.74-1.38.58-1.71 1.82-.37 1.38-.35 1.39.64.67 2.97-2.14 4.95-4.2 8.39-8.7.91-1.18 2.15-2.8 2.76-3.6s1.28-1.67 1.48-1.93c.2-.27.37-.46.37-.42s-.18.91-.4 1.93c-.64 3.05-.98 6.05-1.35 12.07-.15 2.52-.23 3.43-.31 3.8l-.05.2.16-.2c.09-.11.67-1.24 1.3-2.5Zm5.16 2.35h.69v-.92c0-1.47-.03-1.5-.63-.7-.27.37-.71.91-.96 1.21l-.46.54.34-.06c.18-.04.64-.07 1.02-.07ZM2.42 25.22c1.33-1.56 1.33-1.57.45-1.03-.36.22-.83.49-1.05.6-.37.19-.4.24-.51.83-.07.35-.14.71-.17.81-.11.36.14.12 1.28-1.21Zm10.79-.25.22-.78-.29-.3-.3-.29-.48.31c-.56.38-.56.49-.04 1.72.43 1.02.51 1.1.6.56.04-.24.17-.79.29-1.22Zm36.44-2.55c0-1.99.03-3.62.07-3.62.13 0 .21 2.4.14 4.35-.11 3.41-.21 3.07-.21-.73ZM2.9 23.9c.75-.43 2.22-1.83 3.87-3.67l.64-.72-.36-.56C6.62 18.27 6 17.07 6 16.91c0-.06-.03-.11-.08-.11-.11 0-2.9 2.57-3.01 2.78-.31.57-1.19 3.62-1.36 4.71l-.07.44.33-.2c.19-.11.68-.4 1.09-.63Zm8.92-.42c.77-.6 1.18-.66 1.69-.22.14.13.17.08.31-.41.17-.6.13-.67-.33-.78-.72-.18-2.04.75-2.25 1.58-.08.32-.03.31.58-.17Zm32.32-2.08c.19-.96.37-2 .41-2.3l.06-.55-.5.98c-.53 1.04-1.48 2.64-1.63 2.73-.21.13-.03.35.55.67.77.44.7.55 1.11-1.53Zm-32.33 1.04c.48-.53 1.5-.8 2-.54.1.06.19.07.2.03 0-.04.02-.48.05-.98.04-.85.27-2.59.41-3.14.05-.2.03-.23-.12-.17-.83.31-3.71.24-5.17-.13-1.88-.48-3.04-1.58-3.39-3.2-.15-.7-.05-.75.16-.09.29.87.61 1.41 1.08 1.85.74.69.93.71.39.04-.96-1.2-1.4-3.27-1.11-5.29.09-.59.15-1.08.13-1.1-.05-.07-.64 1.88-.75 2.48-.61 3.42 1.4 7.66 4.63 9.75.4.26.82.53.93.61.27.18.28.18.56-.12Zm-5.15-1.45c.93-.76 1.11-.96.96-1.11-.09-.09-.15-.09-.25.02-.07.08-.53.57-1.02 1.09-.92.97-.88.97.31 0Zm8.44-2.26c3.51-8.97 9.89-14.09 18.15-14.58 4-.24 9.68 1.28 11.77 3.14.61.54.67.49.29-.25C42.16.86 30.65-.47 23.2 4.48c-4.4 2.93-7.89 8.7-8.49 14.07-.07.55-.14 1.14-.18 1.3-.09.49.02.27.57-1.12Zm-12.02-.6c.18-.13.44-.47.57-.74l.25-.49-.95.8c-.52.44-1.26 1.01-1.65 1.26-.38.26-.7.49-.7.51 0 .07 2.12-1.08 2.48-1.34Zm2.6-1.55c.07-.09.04-.37-.12-.95l-.21-.82-.59 1.12c-.33.62-.76 1.41-.95 1.77-.72 1.29-.68 1.29.57.12.66-.62 1.24-1.17 1.3-1.24ZM19.1 17.9c.41-1.04 1.97-3.86 2.07-3.76.03.03-.26.63-.65 1.33-.38.7-.88 1.65-1.11 2.1-.46.93-.61 1.08-.31.33Zm-5.13-.91c.34-.06.66-.16.71-.22.09-.12.44-1.3.39-1.32-.01-.01-.36-.14-.77-.31-1.28-.5-3.36-1.92-3.96-2.71-.36-.48-.2-.41.49.23 1.13 1.03 4.1 2.76 4.32 2.52.02-.01.18-.44.37-.95l.35-.91-.61-.07c-2.06-.23-4.19-1.18-5.36-2.42-.42-.44-.41-.43.2.1 1.1.97 2.97 1.75 4.84 2.03.54.08 1 .14 1.01.12s.3-.6.64-1.29c.74-1.53 1.93-3.34 2.95-4.49.41-.46.73-.86.72-.88-.02-.01-.59.15-1.27.37-4.51 1.43-7.05 1.75-9.53 1.22-.54-.11-1-.21-1.01-.21-.06 0 .09.46.36 1.12.14.37.23.65.18.62-.23-.14-.91-1.81-1.05-2.58l-.07-.38-.28.45c-1.3 2.1-.82 5.98.97 7.82.49.51.47.58-.04.19-.68-.52-1.5-2.05-1.73-3.24-.19-.96-.29-.95-.29.02 0 2.15.82 4.07 2.13 5 .52.37 3.67.47 5.34.17ZM3.7 15.75c1.39-.47 1.6-.79 1.65-2.49.05-1.24.36-2.59.81-3.48.15-.29.4-.93.55-1.43a7.3 7.3 0 0 1 1.4-2.57c.21-.26.39-.51.39-.57 0-.39.48-1.29.97-1.82.47-.5.52-.59.32-.55-.13.03-.74.17-1.34.3-1.12.25-3.48.91-5.19 1.46-1.17.38-1.13.29-.98 2.4.07.85.12 3.23.12 5.28V16h.28c.16 0 .62-.11 1.02-.25Zm7.59-1.07c-.77-.74-1.49-1.69-1.91-2.53-.37-.74-.28-.65.5.5.34.49.95 1.28 1.37 1.74.69.77.8.91.72.91-.01 0-.32-.28-.68-.62Zm37.11-4.45c-.42-1.69-1.34-3.76-2.36-5.3-.66-.99-.89-1.19-.35-.31.81 1.33 1.55 3.04 2.02 4.67.54 1.85 1.11 2.63.69.94Zm-43.4 0c0-.27 2.54-4.99 3.16-5.87.33-.48.09.08-.47 1.09-.34.61-1.06 1.93-1.61 2.95C5.02 10.36 5 10.39 5 10.23Zm19.75-1.07c.49-.43 2.05-1.51 2.7-1.86.87-.48.6-.27-1.15.92-1.72 1.16-1.99 1.33-1.55.94Zm-8.55-2.6c0-.02.46-.23 1.03-.46 1.83-.76 2.93-1.39 4.65-2.67C24.77 1.27 26.89-.01 27.57 0c.21.01-.01.15-.82.54-1.28.62-2.59 1.47-4.75 3.1-1.97 1.48-5.8 3.41-5.8 2.92Zm23.85-.33c-.72-1.73-2.69-1.92-5.43-.54-1.41.72-1.51.81-.71.68.95-.15 4.3-.11 5.14.06 1.17.24 1.18.24 1-.2Zm-26.9-1.19c.79-1.46 1.23-2.2 1.4-2.34.08-.07 0 .15-.2.5-.44.77-.44.93-.02 1.13.83.4 1.83.46 3.57.22.61-.09 1.41-.15 1.78-.13.59.03.46.06-1.13.26-2.63.33-3.64.28-4.38-.22l-.34-.23-.47.78c-.65 1.09-.79 1.11-.21.03Zm-2.09.14c.62-1.05 2.55-3.14 3.24-3.52.27-.14.19-.05-.3.4-.9.81-1.5 1.45-2.27 2.42-.61.75-.86 1.01-.67.7Zm13.18.04c.66-1.08 5.42-2.79 8.21-2.95 1.03-.06.84-.01-1.15.34-2.7.47-4.97 1.32-6.85 2.55-.16.11-.26.13-.21.06ZM7.6 3.07c.74-.19 1.68-.4 2.07-.47.61-.11 1.4-.6.97-.6-.27 0-4.74 1.38-4.74 1.46 0 .03.08.03.18 0 .09-.03.78-.21 1.52-.39Zm-.4-.56c.25-.19.36-.25.26-.13-.4.46.06.19.78-.45.59-.53.72-.69.6-.76-.32-.18-.74.06-1.71.99-.99.95-.96 1.15.07.35Zm3.05-.66c1.21-.37 1.33-.65.26-.65-.44 0-.85-.02-.93-.05-.07-.02-.47.27-.88.65l-.75.69.75-.2c.41-.11 1.11-.31 1.55-.44Z"/></svg>