<svg xmlns="http://www.w3.org/2000/svg" width="51" height="51" viewBox="0 0 51 51"><path fill="#fff" fill-rule="evenodd" stroke="#fff" stroke-width=".672" d="M24.53 43.8c-.24-.1-.63-.33-.87-.49l-.45-.31h-5.4c-5.05 0-5.4-.01-5.45-.17-.03-.1-.23-1.75-.46-3.68-.22-1.92-.43-3.65-.46-3.82-.06-.29-.38-.57-3.01-2.5-3.74-2.75-3.4-2.44-3.59-3.28-.25-1.12-.3-4.32-.1-5.93C6.09 13.05 14.35 5.41 24.85 5.03c11.02-.4 20.1 7.32 21.67 18.42.31 2.24.07 6.39-.4 6.94-.1.11-1.52 1.17-3.17 2.37-1.65 1.19-3.03 2.2-3.07 2.23-.04.04-.17.83-.28 1.76-.36 2.88-.8 6.06-.86 6.16-.03.05-2.3.09-5.35.09h-5.3l-.46.32c-1.01.69-2.23.88-3.1.48Zm2.26-.31c.25-.11.59-.31.77-.44l.32-.25 5.34-.02 5.33-.03.08-.5c.04-.27.27-2.02.51-3.87.24-1.86.48-3.44.54-3.51s1.47-1.12 3.13-2.33c1.66-1.2 3.08-2.28 3.15-2.4.48-.73.57-5.29.16-7.64C44.13 11.36 33.93 3.93 22.7 5.45 14.15 6.6 7.24 13.01 5.36 21.52c-.77 3.52-.68 8.16.18 8.84.49.38 4.85 3.61 5.49 4.06.31.23.59.51.62.62.05.26.26 1.98.6 4.91.13 1.21.27 2.34.3 2.52l.06.31 5.36.01 5.36.01.56.37c.98.66 1.92.76 2.9.32Zm-1.88-3.39c-.24-.11-.64-.38-.87-.6l-.44-.4h-7.9l-.1-.22c-.05-.13-.25-1.58-.45-3.23s-.4-3.02-.44-3.05c-.05-.03-1.48-1.06-3.19-2.3l-3.11-2.25-.12-.7c-.29-1.73.24-5.25.8-5.25.09 0 2.07 1.9 4.4 4.23 2.33 2.32 4.02 3.95 3.74 3.62-1.78-2.14-7.77-9.74-7.81-9.9-.17-.91 2.19-4.85 2.91-4.85.08 0 .5.64.94 1.43 6.84 12.1 6.84 12.09 5.67 9.61-.31-.65-1.05-2.25-1.64-3.54s-1.73-3.78-2.54-5.52c-.8-1.74-1.46-3.24-1.46-3.32 0-.71 3.88-3.48 4.53-3.23.13.05.41.95 2.26 7.42 1.77 6.19 2.06 7.16 2.09 7.03.01-.07-.52-2.81-1.18-6.08-1.97-9.72-1.86-9.09-1.69-9.24.54-.51 3.51-1.26 5-1.26.6 0 .56-.12.64 2.2.03.96.15 3.86.25 6.45.3 7.15.5 10.29.5 7.79 0-.49.04-1.61.1-2.49.11-1.9.26-5.71.41-10.4.07-2.42.13-3.42.22-3.48.36-.25 3.06.17 4.51.7 1.02.37 1.04.41.84 1.45-.09.46-.46 2.36-.83 4.23-.36 1.87-1.02 5.22-1.45 7.43-.44 2.22-.8 4.09-.79 4.15.02.19.2-.43 2.44-8.26 1.18-4.11 2.17-7.52 2.2-7.57.36-.58 4.65 2.38 4.65 3.21 0 .1-.57 1.41-1.26 2.91-4.28 9.3-5.25 11.43-5.15 11.32.11-.11 3.77-6.36 5.36-9.14 1.56-2.72 2.04-3.5 2.2-3.5.43 0 1.77 1.96 2.31 3.39.5 1.3.52 1.25-.83 2.91-2.92 3.62-6.97 8.66-7.06 8.8-.06.08 1.81-1.76 4.15-4.1 2.35-2.33 4.32-4.26 4.38-4.28.68-.23 1.27 4.61.7 5.68-.05.09-1.38 1.11-2.96 2.26-3.74 2.71-3.38 2.32-3.52 3.84-.23 2.42-.54 4.85-.64 4.97-.07.09-1.1.13-4.07.15l-3.97.03-.49.42c-.88.74-1.46.88-2.24.53Zm1.49-.31c.19-.12.53-.37.76-.55l.41-.34h3.84c2.11 0 3.9-.04 3.98-.09.16-.1.25-.72.62-4.19l.23-2.14 1.55-1.13c3.99-2.9 4.67-3.42 4.8-3.69.36-.75.23-3.17-.24-4.54l-.23-.67L36.56 28c-3.05 3.05-5.58 5.51-5.62 5.48-.03-.04.4-.62.96-1.3 1.59-1.94 9.24-11.4 9.49-11.75l.23-.31-.22-.69c-.45-1.37-1.9-3.71-2.22-3.61-.11.04-.78 1.16-3.66 6.13-.82 1.43-2.17 3.75-2.99 5.15s-1.85 3.18-2.28 3.95c-.87 1.58-.83 1.51-.91 1.42-.04-.04.38-1.02.94-2.19.55-1.17 1.32-2.85 1.72-3.73s1.26-2.76 1.91-4.17c.66-1.42 1.72-3.74 2.38-5.15.65-1.42 1.26-2.75 1.34-2.95l.16-.37-.39-.47c-.83-1.01-3.58-2.8-3.86-2.51-.05.05-5.1 17.69-5.81 20.31-.05.16-.15.32-.22.34-.1.03-.12 0-.07-.14.04-.11.28-1.23.52-2.49a5417 5417 0 0 1 3.3-16.84c.36-1.77.43-2.26.32-2.32-.69-.43-3.37-1.02-4.4-.97l-.63.03-.02.8c-.01.44-.07 2.33-.13 4.2-.1 3.18-.17 4.91-.55 13.61-.08 1.88-.15 3.49-.15 3.58s-.04.16-.09.16c-.04 0-.11-1-.15-2.22-.04-1.23-.16-4.01-.26-6.18-.11-2.17-.26-5.77-.35-8-.08-2.23-.18-4.49-.21-5.02l-.06-.98H24c-1.11 0-3.47.56-4.35 1.03l-.23.12.39 1.9c.21 1.04.95 4.67 1.64 8.05.68 3.38 1.5 7.36 1.8 8.84s.53 2.71.51 2.74c-.11.1-.24-.1-.3-.45-.09-.47-1.18-4.49-1.86-6.83-.95-3.29-3.8-13.22-3.8-13.26 0-.46-3.07 1.45-3.85 2.4-.5.61-.82-.26 2.55 7.01.86 1.87 2.08 4.5 2.7 5.85s1.51 3.23 1.96 4.19c.46.95.84 1.77.84 1.82 0 .26-.21-.02-.7-.94-.31-.56-1.44-2.55-2.51-4.42-1.08-1.87-2.93-5.13-4.12-7.25s-2.21-3.92-2.27-4c-.29-.46-2.01 2.04-2.59 3.78l-.22.64 1.34 1.66c.73.92 2.43 3.04 3.77 4.72s3.15 3.92 4.02 4.98 1.56 1.96 1.54 2.01c-.03.04-1.91-1.79-4.18-4.08-6.83-6.89-6.9-6.96-7.04-6.76-.43.59-.72 3.29-.51 4.77l.08.56 2.96 2.14c1.63 1.17 3.07 2.22 3.21 2.34.25.2.27.33.64 3.29.2 1.69.4 3.11.44 3.14.03.03 1.82.07 3.97.09l3.91.04.43.38c.83.73 1.57.89 2.23.49Z"/></svg>