<svg xmlns="http://www.w3.org/2000/svg" width="51" height="51" viewBox="0 0 51 51"><path fill="#fff" fill-rule="evenodd" stroke="#fff" stroke-width=".459" d="M9.81 50.98c.07-.13.62-1.15 1.24-2.28 1.19-2.17 2.07-3.87 4.85-9.35a321 321 0 0 1 2.37-4.59c.62-1.17.7-1.36.57-1.36-.04 0-1.29-.22-2.78-.5-1.49-.27-5.59-1.01-9.11-1.65C-.72 29.87 0 30.01 0 29.84c0-.08.02-.14.05-.14.04 0 10.23 1.84 16.18 2.92 3.05.55 3.06.55 3.07.07 0-.27-1.78-.62-17.22-3.36-1.47-.26-2.08-.41-2.08-.5 0-.19.03-.18 3.39.42 1.68.31 4.32.78 5.86 1.06 5.77 1.02 9.91 1.82 10.13 1.95.35.22.27.57-.39 1.78-.34.61-1.9 3.63-3.46 6.71-2.42 4.75-4.37 8.49-5.27 10.07-.24.42-.67.57-.45.16Zm2.09.17c0-.02.29-.57.64-1.22 2-3.69 8.96-17.54 8.96-17.83 0-.6.56-.47-10.8-2.54-4.98-.91-9.41-1.72-9.85-1.81-.44-.08-.81-.15-.82-.15-.02 0-.03-.07-.03-.15 0-.19-.05-.19 1.2.05.58.11 5.01.93 9.85 1.81 10.01 1.82 10.04 1.83 10.42 2.12.18.15.58.27 1.23.38l.95.17.37-.34c.59-.53 1.31-.64 2.83-.44l.7.1.28-.33c.55-.63 1.72-2.61 1.73-2.92 0-.05.1-.32.22-.58.77-1.71.81-3.37.03-1.8-.89 1.82-2.09 3.41-2.8 3.7-.22.09-.66.13-1.33.12-.93-.01-1.01 0-1.26.23-.78.73-1.69.64-2.61-.28-.3-.3-.6-.54-.68-.54-.07 0-1.9-.32-4.06-.71-5.15-.92-5.12-.92-5.55-.62-.24.16-.5.23-.86.24-.28.01-.4.04-.26.06 4.89.79 10.31 1.86 11.32 2.24.89.33 1.76.41 2.56.25.48-.1.57.04.16.23-.69.31-1.88.22-3-.23-.82-.33-5.87-1.31-11.69-2.26-1.37-.23-2.6-.48-2.72-.56-.48-.3-.18-.71.65-.89.43-.09.33-.18-.44-.39-.85-.23-.82-.24-1.2.59-.55 1.19-.77.96-.24-.25.27-.62.29-.7.15-.96-.29-.6-.4-1.21-.27-1.57.07-.18.12-.65.12-1.03 0-1.25.64-3.13 1.64-4.84.24-.41.39-.77.34-.79-.06-.02-1.82-.38-3.92-.81-3.02-.6-3.82-.8-3.84-.92-.02-.11.02-.15.15-.12.1.02 1.76.35 3.69.74 1.94.38 3.63.72 3.78.76.26.06.55-.3.37-.48-.03-.03-1.75-.4-3.81-.82s-3.85-.78-3.98-.81c-.2-.05-.33-.36-.14-.35.04.01 1.91.38 4.17.85l4.1.83-.01.31-.02.3.29-.21c.26-.2.36-.21 1.58-.15l1.3.06.37-.55c.42-.63.65-.81 1.12-.9l.34-.07-.36-.36c-.19-.2-.41-.51-.49-.7l-.14-.33-.07.26c-.08.32.11.33-2.56-.14-3.86-.67-6.04-1.11-6.17-1.22-.1-.08-.19-.06-.36.1-.72.67-1.88.54-2.74-.31L0 11.96v-.88c0-.84.01-.88.27-1.05.96-.63 2.9.44 3.24 1.78.12.48.49.83.67.64.05-.05-.12-2.04-.25-2.87l-.05-.36-1.94-.38C.56 8.58 0 8.43 0 8.34c0-.19.03-.19 2.06.2 6.79 1.31 14.75 2.56 16.32 2.56h.5l.4-.63c.45-.69 1.91-3.42 2.15-3.99.15-.35.14-.39-.05-.63l-.21-.27-.63 1.33c-.75 1.54-1.73 3.19-1.9 3.19-.07 0-.57-.6-1.12-1.33l-.99-1.33-.71-.1c-.4-.05-.72-.08-.72-.07 0 .02.2.59.45 1.27.61 1.69.7 1.58-.96 1.26-1.2-.23-1.14-.16-1.29-1.39-.06-.53-.14-1.06-.17-1.18-.04-.19-.01-.23.18-.24.15-.01.09-.04-.16-.1-.54-.11-.84-.11-.67-.01.14.09.45 2.42.34 2.54-.08.08-3.54-.5-3.62-.6-.19-.25.02-2.52.23-2.53.12-.01-.07-.07-.43-.15s-.72-.13-.8-.1c-.08.02-.03.04.12.05.38.02.4.08.32 1.41-.08 1.4.05 1.32-1.49 1-.53-.11-1.11-.2-1.29-.2-.17-.01-.49-.07-.7-.15-.34-.12-.42-.12-.6.01-.29.2-.34.18-.39-.18-.02-.2-.04-.1-.05.25-.02.5-.05.58-.19.55-.33-.06-.19-1.58.14-1.58.07 0 .3-.17.51-.38.2-.21.62-.59.92-.85.45-.38.51-.47.33-.47-.21 0-2.43 1.82-2.43 1.99 0 .07-1.77.04-2.78-.05-.44-.04-.62-.1-.62-.2 0-.12.24-.13 1.49-.07l1.49.06.12-.44c.15-.57 1.17-2.55 1.74-3.41.25-.38.4-.68.33-.68a75 75 0 0 1-1.87-.2c-.96-.11-1.82-.2-1.92-.2-.09 0-.44.34-.77.76-.54.68-.61.74-.61.5 0-.18.18-.49.53-.92.61-.75.39-.72 2.92-.44 2.2.24 2.04.24 2.4-.05.39-.32.56-.27-2.6-.79C-.18.79 0 .83 0 .65s-.22-.21 3.65.45l2.8.48.62-.39c.82-.51.87-.51 4.64.16 6.76 1.2 6.9 1.24 7.66 2.11.6.68-.01.53 7.19 1.84 3.04.55 5.59 1.02 5.67 1.06.11.04.33-.29.87-1.35.8-1.56.68-1.46 2.02-1.72.62-.12.5-.14 5.28.72 1.24.23 2.3.45 2.35.5.07.05.21-.09.39-.37.35-.55.17-.55 3.47.01 1.45.25 3.08.53 3.62.62.66.11.97.2.97.3 0 .19-.06.18-2.95-.32-1.43-.25-3.04-.53-3.58-.62-1.17-.2-1.04-.28-1.83 1.21l-.57 1.09.29-.07c.69-.18 4.2-.86 4.4-.86.27 0 .38.24.23.52s-.23.25 1.97.61c1.69.28 1.99.35 2.02.51.03.13-.01.17-.15.13-.1-.03-1.11-.2-2.25-.39-2.2-.35-2.23-.36-1.91-.84l.16-.26-.39.07c-.99.18-3.78.75-3.81.79-.02.02.47.52 1.09 1.1l1.13 1.07.3-.36c.37-.43.19-.43 2.87.05 2.7.49 2.53.48 2.77.02l.2-.37.01.33c.01.84-.07.85-2.78.37-1.08-.19-2.11-.37-2.29-.4-.27-.05-.36-.01-.6.3-.44.55-.46.55-2.19-1.15l-1.11-1.09-.59 1.06c-.32.58-.69 1.24-.81 1.47-.28.49-.96.29 4.72 1.41 5.64 1.11 5.65 1.11 5.65 1.3 0 .21-.18.19-2.32-.25-1.06-.21-3.26-.64-4.88-.95s-3.07-.6-3.22-.65c-.34-.11-.34-.13-.14 2.1.08.85.18 2.26.22 3.12.03.87.07 1.58.08 1.58.06 0 7.43 1.45 8.68 1.71 1.34.28 1.58.36 1.58.51 0 .22-.04.22-1.08.02-.45-.09-.84-.15-.86-.13l-.5.94c-.27.5-.53.95-.59 1.02-.11.11-10.65-1.92-10.97-2.12-.06-.04-.27.12-.48.36-.82.92-2.57.52-3.45-.79-.18-.26-.36-.42-.48-.42-.11 0-.53-.14-.94-.3l-.73-.31-.23-.97c-.46-1.91-.3-6.14.27-7.41.3-.66.59-.52-2.11-1-1.26-.22-3.34-.61-4.6-.84-2.51-.48-2.41-.47-2.26-.19.06.12.11.44.11.72 0 .34.05.57.16.67.16.16.15.72-.01 1.33-.06.22-.02.27.27.38.51.18.92.66.91 1.05-.02.56-1.21 2.94-2.39 4.74-.48.75-.51.83-.33.88.11.04.5.31.87.61l.67.54.18-.25c.39-.52.87-.16.68.51-.08.28-.07.41.05.6.18.27.16.26 1.59.54 3.91.77 4.29.95 5.01 2.5.14.3.3.62.35.7.31.49.39.81.3 1.22-.07.32-.06.46.05.62.3.43.14 1.62-.39 2.96-.31.75-.15.59.5-.52.45-.77.56-.88.68-.68.08.13-.88 1.73-1.35 2.25-.2.22-.58.78-.84 1.25-.27.47-.66 1.08-.87 1.37-.46.61-.46.63-.16.63.38 0 2.36-2.53 3.37-4.31.47-.82.89-1.53.95-1.58.06-.06.97.07 2.4.34 2.81.54 2.75.53 2.75.68 0 .26-1.43 3.48-1.59 3.56s-5.04-.77-5.28-.92c-.08-.05-.41.29-.94.95-.45.57-.88 1.11-.96 1.2-.14.15-.11.18.29.27.23.06.77.21 1.18.32.41.12 1.04.27 1.39.35.79.17.87.23 1.28 1.09.36.77.43 1.37.19 1.84-.13.24-.13.33-.01.67.08.21.14.51.15.65 0 .15.07.43.16.64.18.43.08 1.28-.27 2.5-.68 2.29-3.79 8.66-3.79 7.76 0-.05.6-1.32 1.34-2.83 1.77-3.6 2.47-5.53 2.45-6.72l-.01-.51-.12.55c-.15.68-.38 1.13-.84 1.64-.19.22-.76 1.24-1.28 2.3-.5 1.05-1.09 2.2-1.3 2.56-.35.6-.38.72-.39 1.45-.02 1.47-.51 2.34-1.31 2.36-.36 0-.42.04-.76.58-.55.85-.82.95-2.27.88l-1.14-.06.32.33c.47.48.47 1.26 0 1.26-.16 0-.18-.03-.09-.19.26-.49-.02-.97-.78-1.36-.58-.29-4.82-.99-6.03-.99-1.3-.01-1.39.05-2.49 1.53-.47.62-.82 1.01-.93 1.01-.22 0-.22 0 .69-1.2 1.15-1.52 1.41-1.7 2.44-1.7h.58l-.29-.29c-.32-.32-.35-.57-.3-1.96.05-1.58.28-2.28 1.67-5.14.47-.96.97-2.08 1.11-2.5.15-.41.57-1.34.93-2.07.6-1.19.64-1.33.49-1.42-.1-.06-.19-.22-.21-.34-.04-.26-.89 1.28-2.06 3.72-.72 1.51-2.77 5.51-5.21 10.18-1.11 2.11-1.47 2.72-1.62 2.72-.1 0-.19-.02-.19-.05Zm15.68-.27c.11-.18.52-.89.91-1.58.39-.68.76-1.29.81-1.34.21-.21.24.07.04.42-1.22 2.21-1.6 2.82-1.77 2.82-.18 0-.18-.02.01-.32Zm1.35-.1c.58-1.03 1.2-2.23 3.62-7.03 2.39-4.73 3.92-7.69 4.52-8.73.3-.51.67-.72 1.25-.71.99.01 12.83 2.24 12.86 2.42.03.14-.01.17-.2.12-.85-.19-12.49-2.25-12.75-2.25-.7 0-.76.11-4.88 8.25-3.56 7.05-4.26 8.35-4.48 8.35-.16 0-.16-.04.06-.42Zm1.77.39c0-.01.33-.66.73-1.42.4-.77 2.1-4.1 3.78-7.39 1.67-3.29 3.17-6.13 3.32-6.29.36-.39.36-.39 5.67.57 6.37 1.15 7 1.28 7 1.43 0 .18 0 .18-2.61-.31-3.73-.71-9.3-1.69-9.34-1.65-.02.02-.06.16-.1.31-.08.32-.31.26 2.5.77 8.45 1.56 9.48 1.76 9.52 1.89.09.22.07.21-2.62-.29-5.5-1.04-9.59-1.78-9.66-1.73-.07.04-2.99 5.69-5.95 11.53-1.16 2.28-1.44 2.74-1.6 2.59-.04-.05 3.31-6.69 6.13-12.13 1.39-2.69 1.46-2.85 1.35-2.85-.13 0-.79 1.26-4.38 8.33-2.54 5-3.43 6.67-3.56 6.67-.1 0-.18-.01-.18-.03Zm-4.19-1.96c.63-.5 1.19-1.54 1.19-2.22v-.64l-.24.56c-.6 1.47-.88 1.69-2.15 1.69-1.52 0-5.78-.73-7.28-1.24l-.73-.25v.23c0 .62 1.32 1.11 4.4 1.61 3.15.51 4.41.58 4.81.26Zm.03-1.24c.35-.45.59-1.04.92-2.2.44-1.6.9-2.05 1.45-1.45.38.4.28.53 1.68-2.28 1.18-2.38 1.19-2.39.96-2.51-.17-.09-.21-.19-.18-.4.02-.15-.47.76-1.1 2.02-.99 1.99-1.57 2.94-1.57 2.58 0-.06.55-1.22 1.22-2.59 1.06-2.17 1.23-2.57 1.26-3.09l.05-.6-.95 1.85c-.52 1.02-1.44 2.68-2.04 3.7-.61 1.02-1.3 2.18-1.53 2.58-.59 1.02-.68 1.06-2 .99-2.23-.13-5.76-.82-7.23-1.42-.13-.05-.18-.02-.18.08 0 .16.4.34 1.31.61.62.17.87.51.75 1.01-.09.37-1.22.24-1.95-.22-.18-.12-.22-.12-.19-.01.15.48 5.74 1.64 8.05 1.67l1.02.01zm-2.58-.03c-.18-.18-.2-.42-.07-.77.09-.24 2.09-.46 2.59-.29.17.06.08.65-.14 1-.19.29-2.1.34-2.38.06Zm-2.59-.33c-1.33-.27-1.71-.41-1.48-.55.05-.04.08-.13.05-.21-.1-.26.19-.26 1.69.04 1.69.34 1.62.3 1.5.68-.12.36-.14.36-1.76.04Zm.93-.71c-2-.35-2.85-.56-2.85-.71 0-.08.05-.13.1-.13.09.02 3.29.59 3.93.7.26.05.3.34.05.33-.1 0-.65-.09-1.23-.19Zm3.69-.79c.1-.1.42-.6.71-1.11.29-.52.93-1.62 1.43-2.44.79-1.31 3.02-5.56 2.95-5.61-.37-.29-.75-.12-.98.42-.78 1.94-2.72 5.32-3.51 6.12-.41.41-.47.41-4.04-.18-3.7-.62-3.85-.67-3.85-1.45 0-.43-1.07 1.81-1.24 2.61-.11.49 1.28.93 4.64 1.47 2.62.42 3.59.47 3.89.17Zm.33-6.08c.21-.25 1.21-2.17 1.8-3.48.27-.6.57-1.25.65-1.43.18-.38.36-.4 1.04-.11.27.12.51.2.52.18.78-1.1 1.35-2.13 1.26-2.3-.44-.83-6.02-1.83-7.05-1.27-.67.36-3.31 4-3.18 4.37.02.08-.06.3-.19.5-.86 1.3-1.34 2.75-.95 2.9.26.1 2.29.44 2.33.39.02-.02.44-.85.94-1.85.56-1.13.97-1.83 1.06-1.83.19 0 .19.09-.01.49-.22.44-.17.46.73.21 1.87-.51 2.46-.71 2.35-.82-.09-.09-1.63.26-2.31.53-.31.13-.37.05-.24-.32l.12-.3-.62.03-.62.03-.81 1.6c-.44.88-.83 1.66-.85 1.74-.06.16-1.49-.04-1.49-.21 0-.2 1.71-3.44 1.97-3.76.31-.36 1.02-.51 2.36-.52.51 0 .69-.04.73-.15.1-.25.34-.17.88.28.28.23.67.53.87.67.63.41.65.55.11.78-.72.31-3.11.95-3.33.89-.18-.05-1.61 2.46-1.47 2.58.07.06 2.26.33 2.74.34.37.01.55-.04.66-.16Zm-3.42-2.66.85-1.72.89-.03.89-.03-.06.29-.06.3.47-.14c.26-.08.64-.19.86-.25l.39-.11-.49-.42c-.4-.35-.51-.41-.59-.29-.08.1-.4.15-1.2.18-1.88.06-1.7-.09-3.04 2.49-.7 1.32-.7 1.34.14 1.45.06 0 .48-.77.95-1.72Zm8.94-.83c.28-.89.6-1.34.94-1.34.33 0 .43-.81.19-1.39l-.13-.32-.54 1.27c-.52 1.26-.67 1.7-.77 2.32-.09.57.04.35.31-.54Zm.06-1.64c.78-1.74.81-2.01.28-2.19-.4-.14-.4-.14-.28.09.15.29.05.55-.5 1.3-.45.62-.85 1.3-.78 1.33.02.01.21.11.43.23.48.25.36.36.85-.76Zm-9.51-1.38c.61-.63 1.03-1.22.9-1.26-.15-.05-1.27-.26-1.4-.26-.04 0-.1.15-.13.34-.04.19-.2.59-.36.9l-.3.56h.51c.42 0 .55-.05.78-.28Zm16.75-1.25c-.03-.08.09-.49.26-.92.36-.96.45-.87-1.25-1.15-1.83-.29-1.75-.14-1-1.87.81-1.85.59-1.7 2.17-1.44.73.13 1.39.23 1.47.24.09.01.25-.25.43-.68.4-.97.37-.96 1.2-.3 4.59 3.67 4.73 3.82 3.91 4.09-5.85 1.86-7.11 2.22-7.19 2.03ZM43 30.38c1.24-.38 2.26-.71 2.28-.73.05-.04-3.15-2.65-3.26-2.65-.04 0-.16.25-.26.55-.2.64-.07.62-1.86.31-.74-.13-1.38-.21-1.42-.17-.04.03-.22.4-.41.82l-.35.76 1.49.23c1.79.28 1.81.29 1.45 1.11-.23.53-.24.6-.09.54.1-.04 1.19-.39 2.43-.77Zm-6.33-2.08c.78-1.81.82-1.65-.4-1.87l-1.02-.19-.77 1.5c-.94 1.85-.95 1.69.1 1.88 1.5.27 1.37.35 2.09-1.32Zm-2.54-.55c.52-1.06.73-1.57.65-1.6-.33-.11-1.91-.36-2.03-.32-.12.05-1.8 3.06-1.73 3.11.06.05 1.73.33 2.03.35.29.01.33-.04 1.08-1.54Zm-6.97 1.17c1.09-.79 2.91-4.06 3.08-5.53.05-.42.05-.43-.04-.08-.73 2.82-2.82 5.32-4.3 5.15-.48-.06-.59-.04-.64.09-.1.26-.3.12-.38-.26-.03-.19-.09-.44-.13-.56-.07-.23-.07-.23.69-.16l.77.06-.03-.58-.03-.59-1.85-.28c-4.6-.69-11.11-1.84-15.35-2.72-1.16-.24-2.25-.46-2.44-.5l-.34-.06.07.5c.11.86.02.78 1.29 1.05.51.11.77.22.77.31 0 .19-.15.18-1.32-.11-.92-.23-1.22-.25-1.05-.09.03.03.65.21 1.38.39l1.32.32.35-.23c.99-.67 2.9.34 3.11 1.65.07.4.41.59.41.22 0-1.57-1.97-2.91-3.5-2.37-.46.16-.82.06-.5-.14 1.51-.97 4 .34 4.26 2.25.08.52-.46.37 4.44 1.25 1.84.33 3.47.63 3.63.66.26.05.27.04.27-.34 0-1.89 3.29-1.42 3.7.53.05.28.09.3.6.36 1.17.12 1.35.1 1.76-.19ZM9.69 27.6c-.21-.11-.53-.39-.73-.62-.33-.39-.39-.41-.58-.29-.11.07-.42.19-.69.27-.91.27-.81.34.97.64 1.4.23 1.46.23 1.03 0Zm13.97-.68c-.65-.34-1.54-.35-2.15-.04-.49.26-.61.27-.61.08 0-.68 2.32-.79 3.22-.14.59.42.29.48-.46.1ZM8.49 25.55c-.06-.05-2.41-.57-2.44-.53-.02.02.03.17.1.35.14.32.1.31 1.7.75l.5.14.09-.34c.04-.18.07-.35.05-.37Zm18.74-.25c1.03-1.29 1.97-3.29 1.97-4.2 0-.61-.89-.99-3.63-1.55l-1.62-.33-.11.58c-.17.82-.97 2.36-1.87 3.59-.5.68-.44.75.93.95 2.78.4 2.86.36 4.57-2.27.65-1 1.03-1.25.59-.39-.55 1.09-1.92 2.78-2.48 3.08-.41.21-3.43-.05-3.96-.35-.17-.1-2.32-3.31-2.32-3.48 0-.06.16-.39.35-.72.5-.85 1.12-2.17 1.29-2.74l.15-.49-.35-.14c-.47-.2-1.28-.38-3.81-.85-4.04-.74-4-.74-4.58-.06-.45.51-1.63 2.87-1.72 3.41-.13.83-1.98 2.86-2.6 2.86-.29 0-.09-.27.42-.58.71-.43 3.09-4.41 2.81-4.69-.02-.03-.56-.07-1.2-.1l-1.16-.06-.39.41c-.94 1.02-2.68 4.99-2.34 5.33.05.05.98.26 2.08.48s2.65.54 3.45.7c1.95.41 7.79 1.43 10.64 1.87l3.11.49c1.08.18 1.01.2 1.78-.75Zm-7.88-.5c-.04-.06-.04-.23 0-.39l.06-.28-1.28-.22c-.7-.12-1.62-.28-2.03-.34l-.75-.13.03-1.29c.01-.71.06-1.33.1-1.37.06-.06 2.69.33 3.11.47.09.03.54.59 1.01 1.26s.91 1.3.99 1.4c.12.18.1.23-.29.59-.42.39-.82.51-.95.3Zm24.15-1.02c-4.89-.91-4.79-.87-4.08-1.69l.23-.26 4.52.86c5.07.96 4.72.85 4.49 1.46-.23.58.04.6-5.16-.37Zm4.85.31c.1-.3.33-.24-4.27-1.1-4.89-.91-4.42-.86-4.56-.54-.11.23-.09.25.26.31 8.71 1.65 8.48 1.62 8.57 1.33Zm-23.68-.05c-.04-.04.19-.34.5-.68.6-.65 1.23-1.57 1.67-2.43.14-.29.31-.53.36-.53.43 0-.75 2.06-1.78 3.13-.57.58-.64.62-.75.51Zm-2.47-.15c0-.05.17-.36.38-.67s.65-1.03.96-1.6c.32-.56.62-1.04.66-1.07.41-.25-.29 1.21-1.32 2.8-.39.59-.68.82-.68.54Zm1.1-.18c0-.05.24-.42.54-.82.3-.39.78-1.14 1.07-1.65.29-.52.59-.94.66-.94.18 0 .17.02-.17.7-.77 1.53-2.1 3.24-2.1 2.71Zm-10.55-.73c-.88-.16-1.64-.33-1.68-.38-.09-.08.38-2.39.52-2.53.07-.07 3.15.44 3.26.54.06.07-.13 2.47-.21 2.6-.07.11.02.12-1.89-.23Zm10.46-2.33c.57-1.21.56-1.25-.64-2.34-1.27-1.16-1.17-1.14-1.46-.39-.13.35-.52 1.17-.86 1.84l-.63 1.21 1.16.07c.95.06 1.93.18 2.1.25.02 0 .17-.28.33-.64Zm24.69-1.2c0-.58-.01-1.05-.02-1.05-.02 0-1.04-.2-2.28-.45-2.65-.53-2.4-.51-2.4-.21s-.27.41-.65.26c-.23-.09-.27-.15-.23-.39.04-.29.04-.3-.71-.43-.9-.16-.86-.19-.92 1.09l-.04.78 3.45.72c1.9.39 3.53.72 3.63.72.15.01.17-.1.17-1.04Zm-31.56.3c.04-.25.04-.45 0-.45-.48 0-4.62-.75-4.73-.86-.19-.17-.04-.52.64-1.43l.47-.63.56.07c.31.04 1.36.2 2.32.36 1.75.29 1.75.29 1.89.09.2-.29.21-.29 1.57.8 1.65 1.33 1.68 1.27-1.2 2.1-1.71.49-1.6.5-1.52-.05Zm1.09-.16c2.12-.62 2.55-.78 2.36-.9-.07-.04-.16-.05-.19-.01-.07.11-2.5.76-2.56.69-.03-.03 0-.15.06-.27s.1-.23.08-.24c-.02-.02-3.12-.51-4.6-.73l-.38-.05.23-.38c.12-.2.29-.47.37-.59l.15-.22 2.18.36c2.46.4 2.57.4 2.57.21 0-.08-.07-.12-.17-.1-.1.03-1.16-.11-2.37-.31-2.49-.4-2.26-.45-2.93.55l-.43.65.32.07c.56.12 4.24.68 4.47.68.24 0 .25.03.12.48-.11.38-.17.37.72.11Zm1.1-.89.88-.23-.28-.23c-.15-.13-.46-.37-.69-.53l-.41-.3-.11.24c-.15.32-.21.32-2.72-.1l-2.05-.34-.22.27c-.31.37-.35.35 2.17.72 2.74.4 2.54.34 2.39.61-.09.18-.09.21.02.17.08-.03.54-.16 1.02-.28Zm21.44-.13c-.03-.17-.09-.58-.13-.89-.03-.32-.08-.58-.1-.58-.01 0-.84-.16-1.84-.35s-1.83-.35-1.86-.35.15.23.4.51.56.73.68.99l.22.48 1.1.25c1.54.35 1.6.35 1.53-.06Zm-4.19.07c.49-.34.18-1.15-.59-1.54-.49-.25-.8-.25-1.13.01-.85.67.82 2.16 1.72 1.53Zm-.98-.15c-.55-.22-.79-.76-.48-1.07.26-.26 1.06-.02 1.28.37.11.21-.02.71-.19.71-.05 0-.15.02-.23.04-.07.03-.24 0-.38-.05Zm-1.95-1.09c-.1-.17.15-.79.46-1.15l.29-.32-.77-.13c-.42-.06-.82-.14-.89-.17-.1-.03-.09.07.02.44.26.91.45 1.32.62 1.36.29.08.33.07.27-.03Zm6.8-2.97c-.04-1.26-.1-2.68-.14-3.18l-.06-.9-2.4-.47c-1.32-.26-2.87-.56-3.45-.67l-1.05-.19-.66.31c-.84.4-.8.25-.86 3.28l-.05 2.47.69.15c1.26.28 7.51 1.45 7.82 1.46l.24.01zm.85-.14c-.06-1.01-.15-2.22-.2-2.69-.06-.47-.1-1.09-.1-1.39v-.54l-.21.28c-.22.27-.22.28-.1 2.58.06 1.28.11 2.75.11 3.27v.95l.31-.31.3-.31zm-19.73 1.54c.49-.69 1.8-3.04 2.22-3.98.42-.92.41-1.18-.06-1.5-.35-.23-.9-.35-.81-.17.53 1.01.49 1.51-.2 2.96-.55 1.16-1.38 2.49-1.77 2.86-.25.24-.21.35.16.39.03.01.24-.25.46-.56Zm-.76-.21c1.28-1.36 2.41-3.99 2.07-4.81l-.14-.34-.91 1.54c-1.83 3.11-1.78 3.07-3.8 2.92l-1.47-.11-.32.27-.31.28 1.96.36c2.55.46 2.39.46 2.92-.11Zm-.94-1.24c.58-.63 1.77-2.54 2.65-4.27.86-1.69.7-1.67-.25.04-.93 1.67-1.59 2.7-2.1 3.3-.39.45-.54.47-2.14.32l-.83-.07v.89l.67.04c1.76.09 1.66.1 2-.25Zm-7.11-.76c.45-1.84 3.03-1.91 3.93-.1.23.47.25.43.12-.14-.13-.55-.03-.59 1.29-.45l1.15.13-.02-.81-.02-.8-.33-.03c-1.79-.15-6.65-.87-10.91-1.63-1.59-.28-2.9-.49-2.92-.47-.04.04.31 3.18.36 3.23.02.01 1.46.28 3.19.6 1.73.31 3.33.6 3.55.64.22.05.43.09.47.1s.11-.11.14-.27Zm7.11-.34c.9-.95 2.51-3.87 2.34-4.25-.18-.39.06-1.93.3-1.93.05 0 .09-.12.09-.27 0-.2-.27.22-.93 1.47-1.05 1.97-1.33 2.43-1.78 2.94-.17.2-.29.41-.27.48.02.06.19-.07.38-.3.42-.53.56-.53.7-.01.12.44-.1.9-.81 1.68l-.31.34-1.2-.13c-1.05-.11-1.41-.1-1.27.04.04.04 1.6.21 2.2.25.16.01.35-.1.56-.31Zm12.6.05c-.04-.03-.07-.49-.07-1.01 0-.77-.03-.93-.14-.89-.46.18-.33-.68.14-.93.35-.19.4-.03.4 1.34 0 1.28-.1 1.73-.33 1.49Zm2.41-.57c-1.76-.39-1.55-.22-1.64-1.29-.08-1.04-.29-.98 1.91-.54l1.6.32v.9c0 1.09.13 1.05-1.87.61Zm-18.67-.3c-.4-.48-1.66-.75-2.49-.53-.49.13-.71.09-.57-.12.4-.65 3.45-.02 3.45.71 0 .13-.27.09-.39-.06ZM19.89 11c-.14-.45-.12-.48.64-1.85.79-1.42 1.04-.32.25 1.16-.62 1.18-.72 1.26-.89.69Zm-16.83-.65c-.69-.62-1.2-.8-2.18-.8-.84 0-1.15-.13-.72-.29.93-.36 3.28.51 3.42 1.27.05.25-.08.2-.52-.18Zm36.61-.57c.41-.45 2.83-4.7 2.83-4.96 0-.05-.15-.12-.32-.15-.18-.03-.94-.17-1.68-.32-1.83-.35-4.92-.87-4.95-.83-.01.02-.28.45-.59.97-.7 1.17-.79 1.27-.5.56.05-.12.02-.14-.17-.07-.13.05-.37.12-.52.16-.47.11-.22-.1.28-.24.39-.11.52-.22.86-.71.43-.63.41-.66-.36-.46l-.5.13-1.37 2.65c-1.48 2.87-1.45 2.79-.97 2.5.19-.12.28-.21.22-.21-.3 0-.1-.33.31-.5.37-.17.48-.29.76-.87.18-.38.35-.62.37-.56.06.17-.14.78-.43 1.32-.31.56-.66.42 3.02 1.16 3.72.74 3.45.71 3.71.43ZM19.1 9c.47-.81 1.7-3.3 1.7-3.46 0-.06-.46-.59-1.01-1.18l-1.02-1.07-.95 1.93c-1.15 2.29-1.14 1.89-.08 3.31 1.03 1.38.85 1.32 1.36.47Zm28.61-.82-2.14-.39-.22.27c-.27.34-.33.31-1.35-.64-.79-.73-.85-.66.95-1.02 1.56-.32 1.67-.32 1.46.01-.17.28-.22.26 1.45.54 3.64.61 3.4.52 2.99 1.22-.32.54-.29.54-3.14.01Zm2.85-.13c.09-.14.15-.27.13-.29-.03-.02-3.91-.7-4.59-.8-.09-.01-.14-.11-.13-.24.02-.12.01-.22-.01-.22-.11 0-2 .41-2.03.44-.02.02.22.25.53.51l.56.48.18-.23c.2-.26.4-.25 3.25.3 1.89.36 1.91.36 2.11.05Zm-19.01-.23c-.09-.08-1.41-.33-7.3-1.38-1.04-.18-2.01-.36-2.13-.39-.14-.04-.21-.02-.18.04.08.12-.23.06 8.71 1.7.67.12 1.01.13.9.03Zm.44-.66c.12-.18.21-.38.21-.43s-1.45-.35-3.22-.67c-1.78-.32-4.42-.81-5.87-1.08s-2.65-.47-2.67-.45c-.03.02.21.24.53.48s.62.49.68.56c.07.08 8.84 1.76 10.07 1.92.03.01.16-.14.27-.33ZM17.22 5.75c.93-1.79 1.3-2.68 1.15-2.77-.2-.11-2.36-.54-5.67-1.13-1.73-.3-3.37-.6-3.63-.65-.9-.18-1.33-.13-1.55.17-.58.82-1.82 3.35-1.82 3.71 0 .17 10.11 2.04 10.7 1.98.08-.01.44-.58.82-1.31Zm-12.54.01c.51-.42.73-.69.78-.9.08-.42.54-1.46 1.03-2.33.47-.88.41-.9-.38-.18-.76.71-2.71 3.88-2.71 4.41 0 .07.1-.01 1.28-1Zm8.09-.69-2.29-.41-.32.38c-.41.49-.38.5-1.86-.98-1.36-1.38-1.37-1.33.3-1.7 2.86-.63 3.61-.65 3.39-.09-.14.36-.18.35 2.27.73 2.57.4 2.57.4 2.13 1.19-.88 1.55-.46 1.45-3.62.88Zm3.12-.63c.24-.41.41-.77.4-.78-.02-.02-1.13-.21-2.46-.42-2.4-.38-2.62-.46-2.28-.74.28-.24.18-.39-.22-.33-.5.07-3.33.62-3.57.69-.2.07.53.88 1.56 1.75l.47.4.3-.33.29-.32 1.75.28c.96.16 2.01.34 2.34.41.98.22.95.23 1.42-.61Zm-3.42.04-2.28-.4-.24.22-.24.23-.38-.31C7.97 3.13 8 3.01 9.75 2.66c1.47-.29 1.54-.29 1.37.09-.06.14-.08.25-.04.25.54.02 4.67.8 4.7.88.02.07-.08.32-.23.57-.31.55-.1.54-3.08.03Zm2.79-.13c.22-.34.37-.3-2.27-.73-2.22-.37-2.34-.4-2.32-.61.03-.25 0-.25-1.05-.02-1.04.24-1.01.2-.47.7.51.46.56.48.78.23.16-.17.26-.16 2.54.24a374 374 0 0 0 2.5.43c.07 0 .2-.1.29-.24Z"/></svg>