<svg xmlns="http://www.w3.org/2000/svg" width="51" height="51" viewBox="0 0 51 51"><path fill="#fff" fill-rule="evenodd" stroke="#fff" stroke-width=".3" d="M13.75 50.28c-.27-.05-.87-.06-1.32-.03-.63.05-.99.01-1.61-.15-.44-.11-.88-.2-.97-.2-.18 0-.62-.3-1.05-.72-.38-.38-1.82-.42-2.3-.07-.39.29-.8.14-1.4-.5-.38-.41-.53-.49-.94-.55-.56-.09-.96-.42-.96-.81 0-.18-.05-.25-.2-.25-.11 0-.25-.08-.31-.18-.08-.13-.21-.16-.5-.14-.74.07-1-.48-.59-1.28.26-.5.25-.53-.05-.46-.62.16-1.12-.85-.87-1.77.06-.22.07-.39.01-.43-.14-.08-.11-.56.06-.88.19-.35.19-.4.01-.33-.52.2-.77-.92-.27-1.2.24-.14.3-.23.25-.38-.11-.36-.07-.6.18-.97.2-.29.26-.54.31-1.2.05-.74.15-1.18.42-1.81.06-.13.04-.16-.09-.11-.19.07-.53.68-.72 1.29-.08.24-.13.32-.13.19-.02-.6.63-1.74 1-1.74.25 0 .24-.08-.03-.37-.28-.3-.17-.41.16-.16.37.26.43.58.19 1.01-.23.42-.42 1.18-.44 1.77-.01.56-.01.59.14.46.08-.06.17-.08.21-.04s.18-.05.32-.2c.29-.32 1.08-.37 1.19-.09.15.38.14-.03-.01-.59-.12-.47-.15-.9-.11-1.58.04-.88.03-.97-.24-1.5-.31-.6-.34-.76-.19-.86.05-.03.18.11.29.32.23.45.24.42.43-.82.07-.49.18-.89.23-.87.12.03.13.95.02 1.76l-.09.59.32-.26c.58-.49.83-.34.28.17-.49.44-.68.79-.68 1.21v.24l.42-.19c1.4-.64 1.82.06.77 1.26-.39.43-.49.62-.45.79.05.19.03.22-.14.18-.23-.06-.26.1-.1.53l.11.27.37-.36c.33-.32.72-.49.72-.31 0 .04-.24.34-.52.67l-.53.61.02 1.38c.03 1.56.09 1.74.58 1.84.47.09.62.28.45.59-.18.34-.53.34-.44.01.08-.34-.5-.43-.84-.13l-.22.2v-.26c0-.19-.05-.27-.17-.28-.15 0-.14-.03.05-.16.37-.26.09-.84-.35-.75-.15.03-.17-.14-.03-.23.25-.16.08-.33-.4-.4-.5-.07-.65-.26-.41-.5.4-.41 1.02-1.97.87-2.2-.34-.52-1.11-.48-1.11.05 0 .27-.05.37-.22.45-.13.05-.27.22-.32.37-.11.32-.37.39-.27.08.2-.64.18-.65-.18-.25-.41.46-.41.48-.21.69.18.17.4.12.74-.18.22-.19.23-.19.18-.03-.04.1-.07.28-.07.38 0 .15-.06.19-.23.17s-.21.01-.19.15c.03.16-.01.18-.25.13-.34-.07-.73.22-.73.54 0 .2.04.22.35.17.4-.07.65.18.65.65 0 .27.02.28.45.28h.46l-.03.57c-.04.74-.27.84-.58.24-.11-.23-.17-.41-.13-.42.05-.01-.03-.04-.17-.08-.21-.06-.24-.12-.21-.36.03-.3.03-.3-.18-.11-.23.21-.28.55-.1.73.09.09.09.2 0 .44-.35 1.01.04 1.7.62 1.09.16-.16.34-.3.41-.3.24 0 .26.14.06.35s-.2.23-.03.53.17.31-.05.62c-.13.17-.26.47-.29.67l-.06.36.52-.06c.47-.06.53-.04.67.18.17.27.51.32.85.15.25-.14.29-.93.04-.84-.09.04-.15 0-.15-.1 0-.24.04-.31.17-.31.27 0 .38-.24.26-.55-.16-.44.02-.37.2.08.14.35.14.38-.04.52-.19.15-.19.17-.03.48.2.42.05.86-.37 1.08-.38.19-.37.52.02.66.11.05.21-.04.32-.27.1-.21.24-.35.39-.37.16-.02.22-.09.21-.23-.04-.35.06-.51.2-.32.14.2.77.09 1.07-.18.18-.17.38-.05.25.15-.03.06-.01.1.04.1.17 0 .13-.58-.05-.85-.09-.13-.14-.3-.12-.37.03-.07.12.01.22.2.09.17.24.32.32.32.13 0 .14.08.09.43-.09.54-.06.52-.8.52-.71 0-.97.14-.75.4.17.2.27.19.33-.05.03-.11.1-.2.16-.2.16 0 .14.16-.04.34-.13.13-.13.15.03.19.11.03.09.05-.08.06-.14 0-.42-.04-.64-.1-.39-.11-.55-.03-.56.27 0 .2.43.24.62.07.17-.15.18-.15.18.04 0 .11.07.26.15.33s.15.23.15.36c0 .36.47.56.66.29.29-.43.36-.47.7-.4.38.07.9-.35.79-.63-.03-.08-.11-.43-.17-.78-.1-.52-.16-.63-.29-.59-.14.05-.18-.04-.22-.47-.11-.99-.05-1.09.65-1.22.47-.08.51-.16.38-.64-.14-.54-.46-.92-.78-.93-.17-.01-.21-.03-.09-.06.25-.07.23-.1-.53-.89-.39-.39-.7-.78-.7-.85s-.1-.24-.22-.38c-.2-.22-.2-.23-.02-.08.31.26.32.24.37-.8.05-.92.14-1.64.32-2.41.07-.28.05-.32-.13-.32-.49 0-.48-.61 0-.94.45-.32.53-.08.11.29-.36.3-.25.42.11.14.38-.3.48-.15.36.51-.1.58-.29 1.82-.37 2.38-.07.41.24.46.33.05.1-.48.27-.73.52-.8.31-.07.52.12.23.22-.34.1.06 1.05.45 1.05.21 0 .6-.9.44-1-.08-.05-.08-.09.03-.13.08-.03.18-.19.22-.36.06-.28.46-.71.66-.71.05 0 .09.61.09 1.36 0 1.49.01 1.5.55.69.23-.35.43-.55.56-.55.12 0 .19-.07.19-.19 0-.99.36-.59.55.62.17 1.05.33 1.7.34 1.38.02-.45 1.05-2.31 1.28-2.31.31 0 .39.2.67 1.6l.22 1.15.58-1.13c.95-1.84 1.22-1.51 1.52 1.88.1 1.07.2.98.45-.4l.18-1.01-.44-.9c-.35-.69-.45-.99-.45-1.39 0-.32-.07-.61-.2-.82-.42-.69-.15-1.57.44-1.46.15.03.27 0 .3-.08.07-.19.51-.18.7.02.2.2.2.58 0 1.18-.18.52-.23.36.64 2.01l.27.5.03-.33c.02-.2-.07-.52-.24-.87-.24-.51-.26-.59-.14-.99.08-.31.09-.53.01-.8-.05-.21-.08-.43-.05-.5.02-.06-.09-.33-.26-.58-.55-.82-.48-1.56.15-1.72.37-.09.64.09.89.64.17.36.25.45.32.35.35-.51.91.36.79 1.25-.04.33.01.61.21 1.15.15.38.31.83.37.98l.1.28.24-.36c.32-.47.4-.39.14.14-.25.48-.3 1.14-.07.91.27-.27.5-1.48.75-3.91.05-.49.56-.08.77.6l.17.59.61.12c.87.17 1.37.5 2.11 1.4 1.13 1.36 2.23 1.79 3 1.18.58-.45.81-1.42.45-1.88-.26-.33-.25-.53.05-1 .27-.43.51-.44.74-.02.08.14.12.15.22.05.2-.2.45-.15.63.12.15.23.17.23.5.1.37-.15.59-.12.89.13.27.24.2.34-.13.17-.5-.26-.99.03-1.15.67-.11.45.64 1.18 1.21 1.18.62 0 .63.17.02.25l-.52.07-.53-.56c-.56-.6-.6-.73-.42-1.25.16-.47-.18-.86-.5-.57-.19.17-.2.17-.36-.08-.36-.55-.71.11-.36.67.53.86-.12 2.22-1.16 2.45-.89.2-1.66-.15-2.49-1.15-.98-1.16-1.44-1.49-2.33-1.68-.33-.07-.34-.07-.28.21.03.16.21 1.15.38 2.19.19 1.08.38 1.93.45 1.98.07.04.18.33.25.65.06.31.13.53.15.47.01-.05.05-.23.08-.38.13-.58 1.2-.71 1.16-.14-.09 1.03.08 1.31.3.52.28-1.01.66-.48.97 1.36l.16.99h5.16l.33-.28c1.54-1.33 3.2-1.8 5-1.42.46.1.63.11.66.02.16-.5 1.09-.8 1.78-.57.41.13.38-.24-.06-.66-.48-.46-.55-.97-.18-1.23.19-.13.2-.19.1-.41-.17-.37-.15-.7.07-1.06.15-.25.17-.36.08-.59-.16-.42.01-.82.39-.95.16-.06.43-.2.59-.33.31-.25.26-.25 1.5-.02.84.15 1.69.41 1.97.61.14.11.4.19.57.19.51 0 .83.39.8.98-.01.26.04.61.11.77s.13.47.13.68c0 .2.03.37.08.37.11 0 .89-.77.89-.88 0-.05.19-.24.43-.42.69-.56 1.65-1.5 2.23-2.22.54-.65.56-.66.99-.65.25.01.4.03.35.05-.06.02-.1.12-.1.21 0 .14-.06.17-.23.14-.19-.04-.35.11-.91.81-.37.47-.71.86-.74.86-.04.01-.34.25-.66.55l-.59.53.48-.16c.4-.13.56-.13.92-.04.66.18.91-.07.32-.32-.18-.08-.27-.16-.21-.2.2-.12.62.06.75.33.11.22.19.26.58.26.26 0 .53.06.62.13.35.29.48-.41.16-.82-.3-.38-.19-.54.16-.23.39.33.41.9.04 1.34-.24.28-.26.29-.4.13-.25-.3-1.41-.36-1.3-.07.06.16.19.24.47.28.21.03.35.07.29.08-.05 0 .01.08.13.17.17.12.22.25.22.6 0 .24.04.44.1.44.19 0 .62.78.55.99-.1.33-.41.45-.67.26-.49-.33-.89-.06-.68.45.22.54-.1 1.09-.61 1.03-.25-.04-.39-.02-.39.06 0 .06.07.11.15.11.18 0 .35.31.35.64 0 .24.02.25.25.14.58-.26.42.13-.18.43-.39.2-.36.49.05.49.04 0 .08.16.08.35 0 .3.03.35.24.35.65 0 .74.93.11 1.22-.22.1-.29.08-.49-.11l-.24-.23-.11.21c-.07.12-.2.21-.31.21s-.22.1-.26.23c-.04.12-.17.32-.3.44s-.24.33-.24.46c0 .49-.26.53-.77.13-.25-.2-.56-.36-.68-.36-.13 0-.42-.07-.65-.15a3 3 0 0 0-.77-.15c-.23 0-.41-.08-.56-.24-.28-.3-2.66-.45-2.75-.17-.2.6-1.14.71-1.62.2l-.28-.32-.44.22c-.55.26-.65.26-1.06.01-.32-.19-.5-.2-6.52-.2h-6.2v.29c0 .4-.23.57-.56.43-.2-.1-.26-.09-.31.03-.15.4-3 .82-3.33.49-.25-.25.1-.35 1.34-.39.69-.03 1.36-.09 1.46-.15.21-.11.27-.3.09-.3-.05 0-.07-.05-.04-.1.04-.06.16-.08.27-.05.14.05.21.01.25-.15l.06-.23.18.24c.15.19.19.21.19.07 0-.09-.04-.2-.1-.23-.17-.1-.11-.32.1-.38.17-.04.2-.14.2-.55 0-.32.05-.54.15-.62.21-.18.1-.26-.54-.39-.37-.08-.58-.08-.65-.01-.05.05-.15.1-.21.1-.05 0-.03-.04.05-.1.47-.3-2.01-.37-2.59-.08-.18.1-.37.15-.42.13-.12-.08-1.39.17-1.39.27 0 .05-.04.07-.09.03-.22-.13-.81.28-.81.57 0 .32-.07.35-.26.11-.2-.26-.58.18-.52.59.03.15.01.28-.04.28-.04 0-.08-.17-.08-.37-.01-.36-.02-.37-.15-.19-.25.33-.18.54.26.75.42.21.96.19 1.12-.03.04-.06.06 0 .05.14-.03.24 0 .25.47.26.82.02 1.56.16 1.52.28-.06.18-1.77.26-2.09.1a1.2 1.2 0 0 0-.46-.14c-.11 0-.38-.07-.61-.15-.38-.13-.44-.13-.74.04-.17.11-.52.22-.77.26-.26.04-.6.2-.81.36-.4.31-.71.35-1.64.17Zm1.65-.71c.44-.35.59-.42.72-.33.33.21.73-.04.73-.47.01-.2.06-.42.13-.49.14-.14.16-.58.02-.58-.05 0-.1-.09-.1-.19 0-.3-.29-.53-.57-.46-.24.06-.63-.09-.63-.24 0-.05.09-.07.2-.04.15.04.19.01.15-.09-.05-.13-1.49-.48-1.97-.48-.09 0-.2-.05-.24-.12-.05-.08.04-.09.34-.04.55.08.53-.07-.03-.28-.65-.25-1.58-.4-3.5-.55-1.24-.1-1.21-.11-1.05.21.1.2.08.2-.12-.04-.22-.26-1.98-.46-1.98-.22 0 .19.48.84.62.84.1 0 .18.05.18.11s-.09.09-.2.06c-.16-.04-.2 0-.2.18 0 .4.12.85.23.85.15 0 1.77 1.67 1.77 1.82 0 .06-.16-.07-.36-.3-.19-.23-.42-.42-.5-.42-.09 0-.13-.04-.1-.09.03-.04-.12-.22-.34-.4-.51-.41-.5-.35.1.54.47.7.83 1.03 1.04.97.05-.02.12.01.15.06.15.24 1.72.53 2.59.47.48-.03 1.1-.02 1.37.03.87.16.97.14 1.55-.31Zm31.73.15c.1-.15-.2-1.07-.37-1.1-.24-.05-.2-.32.06-.32.29 0 .58.28.58.57 0 .33.14.28.33-.12.13-.26.23-.35.42-.35.25 0 .31-.13.19-.44-.04-.11-.14-.14-.33-.11-.25.05-.25.05-.03-.06.12-.07.22-.21.22-.33s.03-.31.06-.43c.06-.21.04-.22-.44-.16-.68.08-.88-.21-.48-.68.19-.23.24-.37.19-.59-.06-.33.07-.39.28-.13.18.21.13.52-.14.8-.27.3-.17.38.28.23.59-.19.85-1.08.28-.97-.22.04-.24.02-.17-.26.06-.28.05-.29-.2-.25-.21.04-.31-.01-.46-.22-.22-.31-.26-.5-.1-.5.06 0 .1-.16.1-.35 0-.59.42-.78.83-.37.3.3.3.32.1.32-.12 0-.27-.09-.34-.21-.15-.29-.29-.12-.35.45l-.05.47.68-.07c.84-.08.9-.13.73-.63-.21-.64.14-1.06.81-.97.58.08.59.05.18-.41-.24-.28-.3-.43-.27-.72.03-.34.01-.36-.27-.38-.17 0-.34-.02-.4-.02-.05-.01-.23-.21-.38-.46-.28-.44-.6-.59-.7-.33-.03.08-.06.05-.06-.06-.01-.26-.59-.14-.83.17-.15.19-.2.2-.37.09-.18-.1-.23-.09-.33.08-.07.11-.17.2-.23.2-.05 0-.18.14-.27.3-.19.34-.46.49-.57.31-.19-.3-.71.31-.71.81.01.37.24.62.4.43.19-.23.71-.18 1.04.11l.28.25-.23.25c-.27.29-.5.33-.23.03.18-.2.18-.21-.01-.35-.27-.2-.4-.18-.78.16-.19.16-.46.3-.6.3-.13 0-.3.07-.37.15s-.28.15-.48.15c-.44 0-.72.24-.72.62 0 .24.04.28.27.28.32 0 .73.35.73.63 0 .24-.23.17-.3-.09-.05-.19-.39-.23-1.16-.16-.41.04-.77.66-.62 1.08.12.34.12.37-.15.58-.42.34-.36.58.11.5.48-.08.72.13.72.62 0 .41.23.5.9.35.24-.05.48-.08.52-.05.08.05.18-.12.22-.38.01-.07.09-.27.17-.44.18-.35.14-.87-.07-1.05-.08-.06-.14-.26-.14-.45 0-.34.14-.52.25-.34.09.15.58.12.81-.05.1-.08.14-.15.08-.15-.07 0-.14-.09-.17-.2-.06-.22-.37-.28-.37-.06 0 .07-.06.19-.14.25-.11.1-.13.03-.09-.36.09-.99.13-1.15.28-1.03.1.08.11.18.04.36-.12.32-.11.34.04.34.06.01.28.14.47.3.19.17.4.3.47.3.53 0-.2.49-.85.57-.37.04-.49.09-.45.19.07.18.27.18.62-.01.26-.13.29-.13.27.03 0 .09.04.16.11.15.15-.03.69.45.6.53-.03.03-.2-.04-.36-.16-.31-.21-.51-.2-.51.03 0 .07.1.18.21.25.18.11.21.2.16.54-.08.62-.27.72-.27.15 0-.4-.03-.47-.2-.47-.32 0-.6.36-.6.76 0 .19-.04.43-.09.53-.18.32.37.56 1.54.67.4.03.54.09.73.34.23.3.37.37.45.22Zm-6.08-1.04c.11-.22.28-.38.38-.38.25 0 .23-.47-.03-.55-.13-.04-.2-.15-.2-.31 0-.29-.11-.31-.34-.05-.31.34-.88.36-1.35.07-.51-.32-.52-.37-.03-.2.55.2.82.17 1.28-.14.23-.15.5-.32.6-.38.18-.11.18-.13.01-.43l-.18-.31.29-.38c.49-.62.34-1.9-.19-1.61-.24.12-.29.11-.29-.05 0-.25-.26-.36-1.11-.46-.46-.05-1-.13-1.19-.16-.33-.07-.34-.06-.2.11s.13.18-.1.11c-.43-.14-.74-.12-.77.04-.12.87-.13.91-.34.79-.27-.14-.54.1-.85.76-.18.39-.3.51-.51.55-.38.07-.44.45-.09.61.4.18.55.67.27.88-.29.22-.08.58.29.48.18-.05.31.02.57.31.19.21.45.37.61.39.15.02.35.13.45.25.22.26.58.26.93-.01.15-.11.32-.21.4-.21.07 0 .14-.05.16-.12.03-.07.12-.09.22-.05.11.05.16.13.12.23-.25.66.85.86 1.19.22ZM27 47.88c.5-.28.93-.54.95-.57.05-.09-2.17.04-2.37.13-.13.06-.18.2-.18.52 0 .64.38.62 1.6-.08Zm9.9.44c0-.17-.25-.32-.53-.32-.64 0-.98-.43-.71-.89.17-.29.17-.3-.14-.56-.5-.42-.35-1.25.24-1.25.13 0 .24-.05.24-.1 0-.06.16-.36.36-.67.44-.69.46-.68-.94-.68-1.42 0-2.1.27-3.54 1.41-.73.58-1.87 1.31-4.53 2.9l-.4.23 4.98.01c2.73 0 4.97-.04 4.97-.08ZM19.15 46.8c.17-.05.63-.14 1.03-.2l.73-.12-.03-.76c-.03-.64-.06-.77-.2-.8-.13-.03-.18.03-.18.19 0 .25-.1.2-.14-.07-.03-.21-.27-.29-1.18-.38l-.65-.07-.21.88c-.38 1.56-.35 1.79.16 1.57.2-.09.5-.2.67-.24Zm6.71-.27c-.02-.16-.07-.45-.11-.65-.03-.21-.09-.38-.13-.38s-.47-.07-.97-.15c-1.05-.17-.94-.22-.88.43.05.46.08.53.32.58.14.03.53.14.86.24.87.27.98.26.91-.07Zm3.87-.31c.48-.29.87-.54.87-.55s-1.02-.02-2.26-.02h-2.26l.07.49c.09.7.05.68 1.44.64l1.26-.04zm-11.69-1 .14-.63-.25-.1c-.14-.05-.59-.12-.99-.16l-.74-.06v.87c0 1.23.12 1.44.87 1.48l.58.03.13-.4c.07-.22.19-.68.26-1.03Zm5 .96.49.05-.08-.49c-.04-.27-.08-.5-.09-.52-.09-.08-1.24-.23-1.64-.2l-.47.03-.03.6-.03.61.68-.07c.37-.03.9-.04 1.17-.01Zm-7.14-1.02v-.94l-.82-.12c-1.18-.17-1.26-.15-1.48.47-.19.56-.18.63.14.63.3 0 1.22.45 1.29.63.05.14.21.19.75.26.09.01.12-.24.12-.93Zm9.75-.65c-.04-.36-.12-.88-.19-1.15l-.13-.49-.11.33c-.07.18-.12.55-.12.81 0 .39-.03.47-.15.43-.11-.05-.15.02-.16.27-.01.68-.29-.47-.45-1.83-.07-.6-.29-.8-.39-.35-.06.28-.26 2.4-.22 2.43.06.05 1.83.3 1.9.26.05-.02.06-.34.02-.71Zm-12.77-.08-.03-.58-.73-.09c-.85-.1-.79-.13-.91.5-.11.59-.17.53.6.63 1.18.16 1.1.19 1.07-.46Zm10.42.12c0-.41-.3-1.86-.41-1.99-.04-.04-.1.11-.13.35s-.09.71-.13 1.04l-.08.6-.02-.5c-.06-1.04-.13-1.07-.43-.2-.31.92-.33.87.23.96.91.14.97.13.97-.26Zm-12.47-.34c.09-.66.25-.56-1.22-.75-1.46-.18-1.34-.22-1.16.39.09.27.13.57.1.66-.05.16.03.19.77.22 1.52.06 1.42.1 1.51-.52Zm9.97.1c0-.61-.12-1.31-.21-1.25-.05.03-.06-.02-.03-.11.07-.18-.17-1.45-.27-1.45s-.38.49-1.08 1.85l-.52 1 .53.08c.29.04.73.11.98.16s.48.09.53.1c.04 0 .07-.16.07-.38Zm.7.37c0-.17.9-2.58.9-2.43.01.19.01.19.11.02.11-.19.05-.8-.22-2.37-.05-.3-.14-.86-.19-1.25-.12-.82-.6-2.46-.7-2.4-.04.02-.1.51-.14 1.07-.1 1.3-.11 1.37-.25 1.71-.06.16-.11.35-.11.43s-.07.29-.16.46c-.18.34-.15 1.58.04 1.81.1.13.14.34.34 1.95.08.7.16 1.02.25 1.02.07 0 .13-.01.13-.02Zm-3.45-.7c-.29-1.26-.35-1.56-.35-1.78 0-.27-.48-1.3-.61-1.3-.07 0-.18.44-.39 1.67-.06.35-.17.8-.25 1.02l-.13.39.66.1c1.1.16 1.13.15 1.07-.1Zm24.73-.08c.18-.24.3-.3.61-.3.22 0 .44-.06.51-.15.07-.08.21-.15.32-.15.15 0 .18-.04.12-.18-.21-.48-.16-.93.17-1.58.48-.92.12-1.86-.63-1.66-.24.06-.19.7.07.84q.15.09.15.51c-.01.39-.02.41-.15.23-.14-.19-.15-.19-.15.06 0 .14-.07.31-.15.38-.13.11-.15.08-.15-.19 0-.21-.09-.41-.25-.57l-.24-.24-.45.32c-.48.36-.6.74-.3.99.17.14.44.62.44.79 0 .06-.2-.11-.45-.37-.35-.36-.45-.54-.45-.8 0-.19-.05-.33-.12-.34-.08 0-.07-.03.02-.06.47-.17 1.1-.67 1.1-.87 0-.44-.28-.69-.57-.51-.45.3-.62.14-.23-.22.31-.29.33-.34.22-.57-.12-.27-.4-.34-.59-.15-.15.15-.43.04-.43-.15 0-.53 1.18-.23 1.33.33.05.19.17.45.27.58.1.12.21.38.24.56.04.21.18.42.38.57.28.21.31.21.26.04-.33-1.14-.33-1.12-.12-1.35.16-.17.26-.2.61-.15.47.06.54-.05.32-.45-.08-.16-.17-.19-.39-.14-.16.03-.31.02-.35-.04-.03-.06-.19-.11-.34-.11-.2 0-.3-.06-.34-.19-.05-.22-.75-.43-1.47-.45-.25 0-.51-.07-.58-.14-.2-.18-.67-.15-.86.07-.1.11-.31.23-.48.26-.24.06-.29.11-.26.33.03.29.41.43.61.23.13-.13.47-.15.47-.02 0 .05-.07.15-.17.22-.31.26-.47.81-.28.95.15.11.15.13-.01.22-.23.13-.14 1 .12 1.19.18.13.19.1.24-.49.08-.99.45-1.48.82-1.1l.21.21-.21-.05c-.34-.1-.74 1.01-.43 1.2.05.03.07.15.04.25-.07.29.16.91.38.99.13.05.16.11.09.22-.16.25-.56-.03-.72-.52-.1-.28-.21-.44-.34-.47-.1-.01-.34-.14-.52-.28-.63-.47-1.01-.05-.51.58.36.46.41.48.34.11-.06-.26-.06-.26.1-.07.11.14.14.31.1.57-.07.4-.07.4.69.53.21.03.55.15.75.26.2.1.41.19.48.19s.2.11.29.24c.13.21.25.29.55.35.03 0 .15-.13.27-.29Zm-26.98-.13c0-.07-.04-.38-.09-.68-.12-.66-.17-1.09-.27-2.19-.11-1.14-.22-.51-.23 1.27-.01 1.61-.15 1.89-.21.43l-.05-1.15-.47 1.1c-.26.6-.45 1.11-.44 1.13.04.03 1.17.19 1.54.21.12 0 .22-.05.22-.12Zm-2.97-2.09c-.03-1.06-.07-1.94-.08-1.95-.05-.07-1.35 3.37-1.35 3.58 0 .03.11.09.25.11.21.05.25.02.25-.21 0-.3.35-1.7.45-1.79.04-.04.04.04.01.18-.08.36-.26 1.52-.26 1.72 0 .17.17.25.57.27l.21.01zm-2.69.8c.04-.4.13-1.07.2-1.48.08-.41.13-.76.11-.78-.09-.1-1.3 1.94-1.54 2.6-.11.3-.03.34.75.37l.41.01zm-1.46-.32c.28-.46.52-.88.52-.94 0-.17-.68-.26-.85-.12-.12.1-.15.07-.21-.14-.03-.14-.13-.28-.22-.31-.1-.03-.29-.26-.44-.52-.17-.3-.28-.41-.29-.3-.01.09-.03.22-.04.27-.01.06-.03.15-.04.2-.02.15-.2.12-.39-.07-.16-.16-.17-.15-.23.13-.16.74-.11.94.42 1.56l.52.59.23-.22c.13-.13.24-.26.24-.3 0-.27.22-.61.32-.51.09.09.09.15 0 .24-.07.07-.12.23-.12.37 0 .15-.07.35-.15.45-.11.14-.12.23-.04.33.18.21.21.18.77-.71Zm10.92-.37c0-.05.06-.2.14-.32.24-.36.04-2.14-.35-3.19-.32-.89-.55-1.27-.38-.63.08.28.08.55 0 .94-.06.3-.11.7-.12.9v.36l-.14-.38c-.1-.27-.11-.45-.05-.63.26-.68.08-1.44-.34-1.44-.28 0-.33.04-.44.4-.17.56-.15.72.12 1.13.17.25.24.49.24.74-.01.25.09.61.3 1.03.18.36.37.93.43 1.27l.11.63.24-.36c.13-.19.24-.39.24-.45Zm-1.74-.92c-.03-.17-.19-.51-.35-.76-.97-1.54-1.13-2.04-.84-2.79.15-.39.15-.45.01-.59-.15-.14-.17-.11-.3.32-.16.6-.38.71-.38.21 0-.34-.28-.56-.31-.24-.03.28.04.64.13.75.2.25.38 1.05.27 1.19-.12.15.48 1.47.63 1.38.08-.05-.07-.51-.24-.71-.08-.1-.04-.13.15-.13.22 0 .28.06.37.41.23.86 1.01 1.73.86.96Zm18.6 0c-.38-.16-.47-1.04-.12-1.09.3-.05.29-.21-.06-.69-.34-.46-.35-.48-.44-1.16l-.06-.43h.36c.34 0 .36-.02.36-.31 0-.65.62-.98.92-.49.07.11.18.2.25.2.19 0 .26.38.18 1.07-.04.43-.03.68.05.78.06.07.1.19.09.27-.07.55.01.78.28.78.49 0 .01.33-.52.35-.25.01-.47.04-.48.06s-.1.21-.2.41c-.18.42-.2.42-.61.25Zm-2.09-1.67c-.09-.11-.17-.27-.17-.35s-.07-.15-.16-.15c-.1 0-.14-.06-.11-.15.14-.36-.51-.6-1.68-.62-.61-.01-1.16-.02-1.23-.02-.24-.01-.06-.25.19-.26.9-.04.88-.03 1.76-.86 1.26-1.19 2.88-1.8 2.69-1.02-.04.16-.11.47-.15.7-.04.24-.16.52-.26.63-.21.23-.27.71-.11.83.08.05.07.1-.02.16-.11.06-.1.1.05.15.17.07.17.08 0 .21-.16.11-.16.16-.05.34.19.3-.07.55-.28.27-.13-.19-.14-.19-.14.07 0 .32-.09.34-.33.07Zm8.73-1.6c-.4-.55-.48-.6-.82-.6-.44 0-.71-.3-.62-.67.04-.14 0-.31-.09-.41-.51-.59-.12-1.87.56-1.8.42.04.37.22-.08.26-.5.04-.54.62-.05.62q.3 0 .3.15c0 .1-.1.15-.31.15-.27 0-.3.03-.27.28.02.2.08.27.25.27.27.01.28.07.07.4-.23.35-.04.58.41.49.4-.07 1.55 1.32 1.18 1.43-.04.01-.28-.24-.53-.57Zm-29.93-.37c.19-.32.41-.65.48-.73.06-.08.22-.4.34-.7.39-1 1.17-1.48 1.4-.87.3.79.32.96.16 1.27-.33.64-1.95 1.62-2.15 1.29-.04-.05-.15-.01-.25.11-.35.39-.34.19.02-.37Zm20.79.23c.89-.24 1.07-.43 1.28-1.38.13-.59-1-.11-2 .86l-.69.65.45.01c.25 0 .68-.06.96-.14Zm11.91-1.32c-.76-.75-1.35-1.39-1.32-1.43.04-.03.14.05.24.18.17.22.41.22.41.01 0-.05-.3-.41-.66-.8-.37-.38-.63-.7-.6-.7.19 0 .56.28 1.06.79.82.84 1.44 1.38 1.67 1.45.31.1 1.58 1.55 1.46 1.67-.06.06-.44-.26-1.05-.9-1.07-1.11-1.44-1.39-1.59-1.24-.08.08.22.42.95 1.14.58.56 1.06 1.06 1.06 1.11 0 .25-.38-.06-1.63-1.28Zm-27.35.79c.03-.55-.03-.88-.21-1.08-.1-.11-.22-.31-.26-.45-.25-.86-.85-.96-.85-.14 0 .13.15.41.34.61.27.31.33.44.29.71-.06.38.1.62.43.62.19 0 .24-.06.26-.27Zm30.17-.76c-.3-.29-.99-.79-1.52-1.12-.54-.33-1.35-.84-1.8-1.14s-1.27-.71-1.82-.91c-1.5-.57-1.38-.56-1.68-.11-.14.22-.35.42-.46.46-.11.03-.36.3-.56.6-.38.57-.49.63-.77.41-.25-.18-.23-.31.09-.61.22-.2.24-.25.1-.25-.21 0-.23-.18-.03-.26.08-.03.18-.19.21-.35.04-.15.16-.43.29-.61.12-.18.25-.38.29-.45.06-.09-.97-.73-1.18-.73-.17 0-.45.96-.34 1.17.21.38-.03.5-.32.16-.31-.36-1.1-.88-1.28-.84-.07.01-.1-.02-.06-.09.11-.18-2.43-2.26-3.15-2.57s-1.98-.75-2.8-.99c-.46-.14-.88-.31-.93-.39-.04-.08-.14-.15-.22-.15s-.26-.17-.39-.39c-.19-.3-.34-.41-.7-.5-.63-.16-.78-.14-1.27.13-.93.52-2.27.77-3.34.62-.48-.07-.51-.06-.85.29-.23.24-.47.37-.72.42-.48.07-.46.02-.74 1.45-.13.66-.26 1.28-.29 1.39-.08.25-.61.26-.69.02-.03-.1-.1-.37-.16-.6l-.1-.41-.73-.09c-.86-.11-.77-.15-.92.49-.18.84-.69.86-.79.03-.27-2.35-.21-2.75.45-2.75.81 0 .91.22.65 1.33-.12.51-.12.57.03.58.09 0 .4.04.69.08.59.08.59.08.37-.65-.31-1.02-.16-1.17 1.15-1.2.47-.01.9-.02.96-.03.07 0 .34-.19.6-.41l.49-.41.9.07c1.07.07 1.82-.09 2.9-.61l.7-.34.6.15c.69.17.73.18.99.16.36-.03-.03-.3-.55-.37-.29-.04-.46-.11-.43-.17.04-.06.24-.07.49-.04.41.07.44.05.79-.35.2-.24.36-.36.36-.29 0 .08-.14.29-.32.47-.26.27-.29.35-.18.48.27.32.77 0 1.15-.75.13-.26.31-.5.38-.53.1-.04.17-.28.22-.66.04-.34.11-.64.17-.67.5-.31.59-1.46.16-2.05-.4-.56-2.01-2.19-2.16-2.19-.2 0 .29.71.94 1.36.72.72.98 1.36.78 1.88-.1.26-.24.18-.24-.14 0-.49-.27-1.01-.84-1.6-.29-.3-.67-.75-.83-1-.45-.67-.62-.78-1.33-.89-.56-.09-.69-.15-.98-.47-.44-.52-.4-.61.12-.24.46.31.7.38.64.19-.06-.17-.79-.66-1.1-.73-.24-.06-.29-.02-.51.41-.13.27-.31.49-.41.51-.26.05-1.04-.31-1.1-.5-.05-.22.04-.22.48-.01.59.28 1.1-.69 1.1-2.07 0-2.15-3.43-4.15-5.36-3.13-.06.03.11.88.27 1.38.06.19.06.19-.09.01-.08-.1-.21-.43-.27-.72-.14-.64-.15-.64-.69-.19-.67.56-.85.82-.69 1.03.33.42.62.61 1.13.76.72.21.83.2 1.18-.09.16-.14.39-.25.51-.24.16 0 .12.05-.18.18l-.4.18.5.05c.79.09 1.16.71.66 1.1-.14.11-.14.11-.03-.03.31-.4-.17-.89-.87-.89-.49 0-.5.05-.09.47.3.31.33.4.36 1.06l.04.73.71.15c.4.09.81.19.92.24.14.06.1-.03-.14-.28-.39-.42-.43-.43-.65-.21-.09.08-.16.11-.16.06 0-.62.97-.16 1.39.65l.11.22-.43-.24c-.23-.13-.6-.26-.82-.3l-.4-.06.44.21c1.36.64 2.11 1.98 2.11 3.8 0 .95-.63 2-1.28 2.15-.23.05-.3.15-.45.68-.17.57-.26.7-1.19 1.59l-1.01.97.37.06c.2.04.39.11.42.16.07.13-.19.11-.53-.03-.15-.06-.57-.1-.93-.09s-.88-.02-1.16-.08c-.44-.09-.59-.07-1.18.15-.37.13-.75.24-.85.24-.15 0-.23.2-.45 1.08-.49 1.96-.43 1.82-.76 1.82-.36 0-.41-.24-.43-2.17-.01-.73-.05-1.33-.08-1.33-.04 0-.45-.36-.93-.8l-.86-.8h-.72c-.55 0-.97-.08-1.82-.36-.66-.22-1.45-.39-1.96-.44-.47-.05-1-.13-1.18-.19-.25-.07-.51-.06-1.05.06-1.32.28-2.45-.25-2.98-1.43-.16-.35-.45-.78-.64-.95-.94-.86-1-2.03-.19-3.39.19-.3.31-.56.29-.58-.06-.06-1.08.71-1.67 1.26-.46.43-.78.51-.78.19 0-.2 2.28-2.07 2.52-2.07.33 0-.13-1.43-.64-2-.7-.79-.88-1.07-.88-1.35 0-.57-.22-1.06-.56-1.22-.41-.2-.74-.79-.74-1.33 0-.27-.07-.51-.2-.67-.27-.34-.25-.76.05-1.21.28-.41.34-1.19.14-1.82-.06-.19-.13-.64-.15-1-.01-.36-.05-.9-.08-1.2-.03-.47-.01-.58.2-.83.13-.16.24-.33.24-.38 0-.18.73-.89.91-.89.11 0 .43-.13.72-.3.65-.37 1.31-.41 1.7-.1.29.23.38 1.71.12 2.2-.47.93-.33 2.08.25 1.93.16-.04.23.01.31.27.07.17.22.35.35.4s.25.2.28.32c.02.13.1.52.17.88.15.74.14 1.29-.02 1.78-.09.26-.08.4.01.57.11.2.09.3-.1.67-.45.85-.59 1.79-.44 2.92l.07.47.29-.3c.21-.22.43-.32.76-.36.26-.04.52-.08.57-.09.05-.02.1-.34.11-.72.05-3.98 6.82-5.11 8.05-1.34.18.54.26.56.41.09.33-1.12-.01-3.24-.59-3.63-.38-.25-.83-.85-.9-1.19-.03-.16-.15-.32-.27-.37-.53-.2-.75-.6-.82-1.5-.11-1.24-.25-1.74-.52-1.78-.35-.05-.55-.44-.47-.9.05-.34.04-.39-.2-.5a.83.83 0 0 1-.36-.36c-.06-.13-.2-.27-.3-.29a.27.27 0 0 1-.19-.25c0-.48-.63-.67-.98-.29-.27.29-.28.43-.02.57.23.12.5.6.5.9 0 .11.05.29.11.39.15.24.05.62-.26.99-.18.22-.25.42-.25.73 0 .27-.08.56-.2.74-.23.35-.26.65-.05.65.37 0 .42.7.05.9-.1.05-.2.24-.24.42-.09.5-.68.88-1.05.67-.34-.19-.39-.92-.1-1.49.27-.51.18-.75-.21-.55-1.13.59-2.04-.85-1.5-2.38.26-.74.26-.76-.15-.92-.27-.12-.4-.12-.6-.03-.14.06-.26.09-.28.07-.81-1.37.24-2.31 1.73-1.56.57.29 1.8.26 2-.05.41-.63 1.05-.89 1.37-.57.07.07.17.08.29.01.35-.19 1.5-.08 1.83.16.2.14.32.18.37.11.04-.06.2-.08.39-.05.19.04.36.02.4-.04.17-.27 1.05.03 1.05.36 0 .19-.16.18-.24-.01-.07-.19-.33-.19-.7 0-.16.09-.38.12-.54.08-.17-.04-.29-.01-.37.11-.12.15-.15.14-.43-.14-.17-.16-.4-.3-.51-.3-.41 0-.77 1-.38 1.08.13.03.17-.03.17-.27 0-.17.04-.31.09-.31.12 0 .21.81.14 1.37-.05.49-.05.5.25.56.26.05.33.13.43.49.06.24.15.52.2.63.04.11.09.52.11.92.04.76.21 1.09.61 1.15.15.02.25.18.39.6.19.55.42.82 1.1 1.29.76.52.83 3.14.13 4.58l-.43.89.3.06c.35.07 2.78.08 2.78.02 0-.03-.04-.15-.09-.28-.18-.49-.22-.96-.09-1.01.1-.03.14.07.14.33.01.2.06.45.11.55.08.13.1-.14.1-.96-.02-1.5.14-2.24.54-2.44.17-.09.31-.26.35-.43.03-.15.08-.34.1-.43.18-.65 2.43-3.59 2.75-3.59.09 0 1.23 1.81 1.7 2.69.19.34.44.81.57 1.04.12.23.3.42.39.42s.28.23.45.55c.4.74.52.85.44.38-.06-.31-.04-.37.09-.32.08.03.15.07.15.09 0 .01.13.54.3 1.16.16.63.3 1.33.3 1.55v.42l.92.36c1.03.4 1.06.4.84-.03-.2-.37-.2-.47-.03-.32.08.06.22.29.32.52.13.27.31.47.55.59.2.1.59.35.85.55.58.45.57.42-.35-1.25-.83-1.51-.96-1.86-1.11-3-.24-1.84.38-3.98 1.15-4 .1 0 .42-.25.7-.54.34-.36.63-.58.86-.63.44-.11 1.05-.93.95-1.3-.07-.29.06-.54.55-1.03.41-.41.59-1.03.46-1.55-.08-.33-.19-.26-.36.24-.07.23-.17.41-.23.41-.05 0-.07-.06-.04-.14s.09-.32.13-.53c.09-.5.13-.56.3-.42.2.16.17 0-.06-.38q-.435-.72-.81.12c-.3.68-.51.73-.28.06.06-.18.09-.34.06-.37-.06-.06-.77.68-.94.99-.11.2-.12.2-.13.03 0-.35-.45.06-.46.43a.9.9 0 0 1-.23.55c-.13.14-.21.32-.18.4.04.09.02.18-.04.22-.05.03-.22.24-.36.47s-.67.82-1.18 1.32c-.67.65-.94.99-.98 1.23-.09.44-.18.41-.66-.23-.88-1.16-3.89-4.04-4.43-4.24-.13-.04-.31.18-1.03 1.26-.63.96-.82 1.09-1.3.92-.31-.12-.35-.11-.54.12-.24.3-.13.43.24.29.42-.16.55-.07.46.32-.09.36-.31.78-.43.78-.14 0-.09-.22.13-.56.31-.5.08-.41-.29.11-.17.25-.36.45-.42.45-.16 0-.12-.27.05-.34.16-.06.21-.36.05-.36-.13 0-.38-.52-.33-.67.05-.13-.36-.81-.61-1.02-.09-.07-.16-.19-.16-.25 0-.15-.42-.56-.57-.56-.24 0-.26.46-.07 1.68.04.24.01.32-.11.32-.17 0-.21.25-.05.35.13.08.13.25 0 .25-.05 0-.18.08-.29.19-.1.1-.24.2-.31.23-.1.03-.09.12.04.37.1.18.15.35.12.38-.03.04.08.3.24.59.17.29.27.55.22.58s-.24-.22-.43-.55c-.54-.95-.91-1.42-.99-1.28-.05.08-.08.03-.09-.12 0-.13-.05-.69-.11-1.24-.11-1.12-.05-1.97.16-2.31.14-.2.24-.55.28-.94.02-.21-.33-.24-.55-.04-.24.22-.36.11-.21-.2.25-.55 1.12-.35 1.12.25 0 .21.08.37.25.51.14.11.25.26.25.34 0 .12-.06.11-.27-.06l-.27-.21-.21.38c-.21.4-.29 2.33-.12 2.95.25.91.91-.35.85-1.62-.05-1.09.51-1.59 1.05-.94.12.14.34.39.5.55.15.16.33.45.41.64.14.33.16.33.46.22.26-.1.36-.09.6.05.29.17.6.02.6-.29 0-.06.07-.16.15-.23.07-.06.27-.35.43-.63.17-.29.42-.63.56-.76.18-.17.26-.35.26-.58 0-.7.78-1.06 1.33-.63.14.11.32.17.4.14.11-.04.23.06.39.3.13.2.27.36.32.36.45.01 1.32.85 1.41 1.38.04.24.12.42.2.42.24 0 .64.41.7.73.04.17.14.42.22.55.14.22.13.23-.06.12-.12-.06-.31-.31-.42-.55-.14-.29-.28-.45-.39-.45-.22 0-.6-.45-.6-.71 0-.09-.03-.25-.06-.33-.08-.2-1.05-.86-1.27-.86-.09 0-.19-.11-.23-.26-.04-.16-.12-.24-.23-.22-.2.04-.27.38-.09.49.1.07.1.09 0 .09-.07 0-.1.05-.06.12.04.06.03.08-.03.05-.06-.04-.13-.24-.16-.45-.09-.51-.47-.88-.76-.73-.42.23-.27.61.46 1.16.9.67 3.03 2.74 3.58 3.47l.44.59.15-.3c.09-.16.46-.56.82-.88.81-.71 1.74-2.07 1.74-2.54 0-.35.37-.83.76-1 .23-.11.45-.26.48-.35.03-.08.26-.24.5-.35.25-.11.48-.24.51-.29.09-.15.52-.12.84.05.87.45.89 2.55.03 3.27-.22.18-.3.35-.34.71-.04.32-.18.66-.42 1.03-.36.53-.54.67-1.06.78-.15.03-.38.23-.57.5-.23.33-.43.48-.71.57-1.1.33-1.29 3.84-.3 5.58.17.31.62 1.17 1 1.9l.69 1.35.87.66c1.06.79 1.94 1.54 3.7 3.14.73.67 1.59 1.41 1.9 1.65.31.25.98.77 1.49 1.18 1.03.82 2.05 1.51 3.01 2.04.36.2.7.46.77.59.12.22.86.58 1.33.64.35.05.55.3.61.76.06.4.07.41.87.74 1.69.69 2.83 1.5 2.54 1.8-.16.16-.88.25-1.07.13-.06-.04-.29 0-.52.08-.36.12-.42.12-.5-.02-.06-.12-.17-.14-.4-.1-.18.04-.31.02-.31-.03 0-.06.09-.1.19-.1.11 0 .23-.05.26-.11.05-.07.13-.05.24.05.14.12.25.14.51.06.18-.05.51-.07.72-.04.49.08.49-.06-.01-.4-.38-.26-.4-.27-.65-.11-.28.18-.44.16-1.18-.17-.54-.24-.58-.23-.67.24-.06.3-.1.33-.51.38-.67.07-.75.6-.09.6.54 0 .37.27-.19.32-.57.05-.55.51.03.58.52.07.61.14.68.48.05.26.11.3.58.35.81.1 1.36.73.89 1.02-.06.03-.1-.05-.1-.19 0-.4-1.09-.83-1.1-.43-.01.2-.5-.42-.5-.63 0-.11-.09-.24-.2-.3-.23-.12-.31.52-.09.66.18.11.41.76.31.86-.06.06-.14-.02-.2-.22-.06-.17-.2-.43-.32-.57-.11-.14-.2-.36-.2-.49s-.09-.28-.19-.34c-.28-.14-.35-.45-.18-.78.07-.15.12-.44.09-.64-.05-.44.21-.63.74-.53.32.06.34.04.34-.23 0-.53.54-.7 1.03-.32.28.22.91.28.85.08-.03-.07-.44-.3-.93-.51l-.88-.38-.16.23c-.09.13-.25.36-.36.53-.21.31-1.33.95-1.66.95-.26 0-.59-.35-.59-.62 0-.49-.55-1.33-.91-1.38s-.37-.06-.91-1.3c-.39-.9-2.42-3.67-3.32-4.53-2.55-2.45-7.04-6.05-8.34-6.67-.37-.18-1.02-.46-1.45-.61l-.78-.29.08.37c.1.48.1.96.01 1.49-.08.41-.08.41.35.59.58.25 1.04.61 1.21.93.12.21.31.32.93.51 1.24.39 3.33 2.57 3.33 3.48 0 .42-.28 1.18-.51 1.39-.14.12-.19.3-.19.64 0 .37-.06.55-.3.85-.16.21-.3.44-.3.51 0 .39-.96 1.14-1.45 1.14-.23 0-.24.02-.15.2.06.11.17.2.26.2.08 0 .17.06.2.14s.21.17.39.2c.47.09 3.16 1 3.57 1.21.18.09.76.32 1.28.5 1.33.47 3.6 1.42 3.79 1.59.38.33 1.2.66 1.43.57.45-.17.88.12.88.6 0 .25.09.3 1.28.74.7.27 1.38.58 1.52.7.32.28 1.67 1.11 2.02 1.24.15.06.61.37 1.02.71.97.79 1.45.66.64-.17-.18-.18-.26-.33-.19-.33.06 0 .26.15.44.34.19.21.49.39.74.46.4.1.61.25.5.37-.03.02-.22-.01-.41-.08-.33-.12-.38-.11-.57.07l-.2.21.26.17c.14.09.31.14.38.1s.05 0-.03.09c-.33.33-.53.28-1.11-.26Zm-23.59-.73c0-.08-.04-.12-.1-.09-.15.09-.12-.52.04-.84.12-.22.13-.41.04-.98-.09-.62-.08-.74.1-1.09.1-.21.25-.56.31-.77.15-.44.45-.66.59-.41.08.14.1.14.21 0 .17-.2.4-.2.47-.01.04.08.15.15.26.15.15 0 .18.05.13.21-.04.13-.01.27.1.39.25.27.15.78-.35 1.73-.22.42-.42.93-.45 1.12-.05.41-.21.75-.36.75-.06 0-.08-.09-.04-.22.07-.23.07-.23-.08-.03-.16.2-.16.2-.3.01s-.15-.19-.26.02c-.14.26-.31.29-.31.06Zm-23.07-.52c-.25-.4-.37-1.56-.19-1.9.19-.37.2-.46.05-.36-.07.04-.01-.08.12-.25l.24-.33-.37-.3c-.55-.44-.35-1.2.27-1.04.46.12.43-1.04-.06-2.05-.54-1.11-.46-1.33.49-1.27l.47.03.06.88c.07 1.03.01.94.73 1.08.74.15.73.16.48-1.04-.33-1.52-.33-1.51.07-1.55.75-.07.77-.05.71 1.1-.03.62 0 1.22.07 1.51.06.26.08.48.05.48-.24.06-.48.02-.57-.08-.05-.06-.38-.14-.72-.18l-.63-.07v1.63l.22-.15c.12-.09.28-.16.35-.16.25 0 .13.2-.28.47-.23.15-.45.37-.5.5s-.17.23-.28.23c-.55 0-.98 1.23-.78 2.21.17.8.17.87 0 .61ZM9.3 35a.47.47 0 0 0-.33-.04c-.13.04-.17-.01-.17-.23 0-.2-.15-.44-.49-.8-.51-.56-.53-.63-.12-.64.26 0 .26 0 .03-.11-.49-.24-.17-.83.34-.6.25.12.29.08.24-.31-.01-.14.03-.17.17-.13.12.04.23-.01.31-.14.07-.12.08-.2.02-.2a.1.1 0 0 1-.1-.1c0-.15.47-.12.62.03.1.12.18.11.45-.05.35-.21.62-.16.42.08-.08.1-.08.14 0 .14.06 0 .11.04.11.1 0 .05-.14.07-.32.03-.3-.06-.32-.05-.19.1.12.15.11.17-.03.17-.09 0-.16.07-.16.15 0 .21-.13.19-.28-.05-.19-.3-.32-.24-.32.15 0 .24.05.35.14.35.23 0 .26.15.09.4-.09.13-.17.49-.19.89-.03.6-.06.91-.08.91-.01 0-.08-.05-.16-.1Zm2.68-1.15c-.16-.13-.28-.31-.28-.4 0-.11-.06-.15-.18-.1-.33.1-.77-.21-.77-.54 0-.36.18-.43.66-.27.64.22 2.26.19 1.9-.04-.23-.14.05-.58.41-.65.18-.03.42-.09.53-.11.11-.03-.02.07-.28.21-.52.28-.58.55-.21.96.21.23.18.42-.06.36-.11-.03-.23-.01-.26.04s-.1.07-.15.03c-.06-.03-.13.03-.16.15-.06.23-.19.28-.26.09-.03-.07-.06-.03-.06.09-.01.2-.27.43-.48.43-.04 0-.2-.12-.35-.25Zm-5.51-.2c-.08-.07-.18-.34-.21-.6-.07-.41-.09-.44-.27-.34-.36.19-1.1-.21-.88-.48.06-.07.19-.13.28-.13.13 0 .12-.04-.05-.18a.96.96 0 0 1-.28-.37c-.06-.16-.05-.18.05-.07.21.2.31.14.25-.15-.09-.45.07-.6.39-.39.21.14.29.15.35.06.16-.26.43-.02.36.31-.05.26-.03.3.1.25.26-.1.44.13.44.55 0 .31.03.37.16.32.14-.05.14-.02.01.28-.16.38-.07.79.17.79.08 0 .18.05.22.12.05.08-.04.09-.34.04-.26-.04-.42-.02-.42.04 0 .14-.16.12-.33-.05Zm21.58-1.85c-.03-.05.05-.15.19-.21l.26-.12.02-1.61.03-1.61.47-.03c.43-.03.49-.01.6.23.1.23.31.31.29.12-.01-.04-.01-.14-.01-.22 0-.09-.11-.2-.25-.27-.28-.12-.24-.28.07-.28.18 0 .19-.04.14-.35-.09-.48.13-.46.44.04.22.34.26.36.38.22.11-.14.13-.1.09.27-.05.38-.03.41.1.3.12-.1.17-.09.27.02.06.09.22.14.35.12.38-.06.2.2-.25.35-.28.09-.45.23-.58.48-.25.46-.46.46-.46 0 0-.37-.02-.38-.37-.29-.25.07-.57 1.34-.35 1.42.21.07.14.8-.08.94-.11.07-.2.22-.2.34 0 .17-.06.2-.35.2-.19-.01-.35-.05-.35-.09s-.09-.03-.19.03c-.13.07-.22.07-.26 0Zm-.96-.68-.37-.03-.26-1.38c-.31-1.64-.32-1.87-.08-1.99.5-.27 1.74-.2 1.84.1.04.11-.66 3.26-.73 3.31-.02.01-.2.01-.4-.01Zm-2.78-.39c-.69-2.64-.67-2.9.26-3.08.98-.18 1.07.05.78 1.99-.2 1.31-.27 1.46-.64 1.46-.26 0-.31-.05-.4-.37Zm-13.53-.02c-.73-.1-.79-.61-.08-.61.24 0 .4-.21.4-.51 0-.78.37-.99.84-.5.45.47.48 1.1.06 1.44-.32.28-.41.29-1.22.18Zm-2.36-.32c-.63-.12-.9-.39-.39-.39.31-.01.54-.21.63-.56.17-.74.86-.91 1.04-.25.16.62-.37 1.47-.82 1.3-.02-.01-.22-.05-.46-.1Zm6.35-.56c-.11-.19-.69-3.05-.64-3.17.12-.31 1.4-.41 1.75-.13.17.13-.27 2.99-.5 3.23-.09.08-.57.14-.61.07Zm-8.47-.34c0-.17-.13-.73-.29-1.23s-.32-1.14-.36-1.41c-.04-.37-.11-.51-.23-.52-.76-.08-1.23-.17-1.28-.25-.04-.07.11-.08.42-.04.27.03.76.06 1.09.07.83.01 1 .14 1.19.96.08.37.22.88.31 1.12.34.98.2 1.4-.53 1.56-.31.06-.32.05-.32-.26Zm37.93.09c.09-.07.25-.38.36-.69.16-.4.28-.58.48-.67l.28-.12-.33.05c-.42.06-.71.4-.72.83 0 .2-.04.31-.1.27-.38-.23.18-1.19.77-1.31.21-.04.3-.11.26-.2-.07-.18.02-.18.32.02.25.16.25.16.25-.16 0-.3-.02-.32-.26-.26-.2.05-.3.02-.4-.13-.44-.63-1.49-.15-1.73.79-.11.43-.11.52.03.72.09.12.16.34.16.48 0 .44.3.62.63.38ZM7.41 27.93c-.18-.65-.35-1.26-.38-1.35-.02-.1-.1-.18-.18-.18-.07 0-.16-.07-.19-.16-.09-.24-.08-.27.14-.21.11.03.18.01.15-.04-.15-.23.16-.49.6-.49h.43l.1.48c.24 1.12.27 2.89.04 3.01-.35.18-.37.15-.71-1.06Zm2.35 1.06c-.02-.08-.23-.67-.45-1.32-.62-1.8-.56-2.06.55-2.07.88 0 .88 0 .8 1.83-.04.83-.08 1.53-.09 1.54-.12.11-.78.13-.81.02Zm2.54-.25c-.06-.14-.1-.31-.1-.38 0-.06-.13-.55-.3-1.06-.41-1.3-.4-1.44.09-1.58.7-.22 1.51-.09 1.51.23 0 .14-.41 2.83-.45 2.93-.09.24-.65.14-.75-.14Zm30.37-1.26c.13-.12.23-.28.23-.37 0-.08.09-.25.21-.37.26-.28.19-.4-.32-.56-.37-.1-.39-.13-.19-.2.16-.06.3-.01.55.18.2.15.36.21.4.15.07-.12-.51-.51-.76-.51-.08 0-.26-.11-.39-.25s-.27-.25-.3-.25c-.16 0-.03.98.17 1.26.26.37.4 1.1.14.76l-.33-.44-.18-.23.1.28c.32.89.32.88.67.55Zm-23.15-.68c.48-.18.6-.19 1.29-.09 1.17.18 1.4.1 2.36-.84 1.09-1.06 1.26-1.43 1.32-2.84.01-.14.11-.24.31-.32.29-.1.31-.12.28-.62-.02-.29.01-.53.07-.55.3-.11.17 1.25-.14 1.41-.3.15-.44.55-.2.55 1.5 0 1.58-3.41.11-4.7-1.24-1.1-2.74-1.07-3.8.08l-.54.57.05.88c.04.66.03.87-.06.84-.16-.05-.29-.67-.3-1.45-.02-.6-.55-1.32-.98-1.32-.04 0-.28-.18-.53-.39-.5-.43-.82-.56-1.71-.7-.33-.05-.78-.16-1-.25-.28-.1-.77-.15-1.6-.16-1.37-.01-1.32.01-1.98-.91-.69-.98-.97-1.06-3.09-.9-1.74.13-2.47.34-1.92.55.23.09.06.27-.19.21-.28-.07-.93.38-1.33.92-.16.21-.36.44-.45.5-.09.07-.2.34-.24.6-.04.27-.23.74-.42 1.07-.63 1.04-.58 1.9.16 2.7.26.28.56.71.65.96.66 1.71 2.86 2.02 3.47.49.38-.93 1.09-1.84 1.65-2.08.28-.13.51-.33.64-.55.13-.21.36-.4.6-.5.33-.13.41-.22.5-.56s.18-.44.48-.57c.2-.08.4-.21.45-.28.04-.08.23-.19.43-.25.23-.08.34-.17.3-.26-.03-.07-.01-.16.04-.19.04-.03.1 0 .12.06.02.07.32.05.91-.07.77-.15.87-.19.81-.36-.06-.21.09-.24.25-.04.32.38.22.54-.37.66-1.08.21-1.92.51-2.24.79-.18.16-.42.3-.52.32-.12.03-.25.2-.34.47-.11.35-.22.47-.53.6-.21.1-.48.33-.61.52-.13.2-.43.44-.7.57-.73.35-1.87 2.05-1.63 2.43.07.11.98.3 1.45.3.39 0 1.79.36 2.53.65.37.15 1.08.21.77.07-.32-.15-1-.65-1-.74 0-.05.03-.08.08-.06.32.15.8.47.99.66.16.15.36.22.61.22.43 0 .76.2 1.35.81 1.18 1.24 2.17 1.56 3.39 1.09ZM4.4 25.44c-.48-.2-.9-.87-.9-1.44v-.36l-.47.01c-.27.01-.58.07-.69.15-.22.14-.54.08-.54-.09 0-.06.12-.08.29-.05.16.04.32.01.35-.05.04-.06.27-.11.52-.11h.44v-.44c0-.52-.16-.68-.4-.4-.32.38-1.77.7-1.55.34.03-.05.3-.1.59-.1.49 0 .56-.03.8-.35.25-.33.28-.34.49-.2.2.13.29.13.75-.02.78-.25 1.2.4.63 1-.29.31-.12 1.27.22 1.27.3-.01.42-.18.25-.37-.08-.1-.18-.31-.22-.48l-.07-.3.2.33c.12.17.26.32.32.32.23 0 .04.55-.24.68-.36.18-.75-.05-.84-.48-.06-.32-.43-.44-.43-.15 0 .84 1.53 1.38 2.21.79.11-.1.24-.11.51-.04.38.11.65.34.5.44-.14.08-2.54.17-2.72.1Zm38.47-2.99c-.04-.09-.07-1.31-.07-2.71V17.2h-3.64c-3.3 0-3.73-.02-4.67-.21-1.6-.33-1.68-.45-1.01-1.59.21-.36.64-1.14.97-1.75 1.49-2.79 3.06-5.26 4.7-7.4.92-1.19 3-3.55 3.13-3.55.04 0 .61-.07 1.27-.15.65-.08 1.48-.15 1.82-.15H46v2.02c0 1.12.07 2.97.15 4.13s.15 2.69.15 3.42v1.32l.58.05c.31.04.73.1.92.14l.35.07-.02.66c-.03.85-.3 2.7-.42 2.82-.05.05-.39.12-.75.14l-.66.06-.01 2.16c0 2.88-.02 2.94-.59 3.02-1.35.2-2.77.22-2.83.04Zm2.19-.42c.41-.03.75-.06.76-.07s.04-1.16.07-2.56l.06-2.55.69-.08c.86-.09.74.08.98-1.47.23-1.53.28-1.42-.7-1.49-1.06-.08-1.02-.04-1.02-1.32 0-.6-.07-2.05-.16-3.22-.1-1.16-.17-3.1-.18-4.3V2.8h-.26c-.14 0-.84.07-1.55.15l-1.3.15-.64.67c-1.88 1.99-3.55 4.22-5.09 6.8-.82 1.37-3.1 5.45-3.14 5.62-.09.4 1.82.6 5.78.6 3.3.01 3.73.03 3.78.17.03.09.06 1.31.06 2.71v2.56l.56-.07zm-24.1-3.62c.37-.43.84-.69 1.46-.79.82-.14.71-1.46-.16-1.97-.99-.58-6.41-.97-7.26-.52-.38.19-1.18 1.12-1.2 1.37 0 .03.6.05 1.34.05 1.17-.01 1.35.01 1.39.16.03.12.21.18.68.23.71.08 1.41.35 1.79.7.14.13.41.32.6.44.2.11.46.32.59.46.32.34.38.33.77-.13Zm3.34-1.71c.39-.77.25-1.89-.23-1.74-.15.05-.18.02-.13-.14.15-.47-.63-.66-1.29-.31l-.4.21.21-.22c.14-.14.39-.24.67-.27l.44-.05.06-.65c.07-.68.13-.87.27-.78.05.03.02.24-.06.47-.22.62-.18.89.18 1.23.37.35.68.83.68 1.06 0 .11.12.18.38.23.46.07 1.62.08 1.62.01 0-.03-.07-.22-.15-.42-.19-.44-.19-.49.01-.57.08-.03.13-.02.1.02-.03.05.01.3.09.56.23.76.18.8-1 .72L24.73 16l-.17.44c-.09.24-.24.5-.33.58-.11.09-.09 0 .07-.32Zm-18.66-.19c.09-.16.28-.38.42-.49l.27-.19-.13-.77c-.16-.94-.08-1.73.25-2.61.37-.98.25-1.26-.17-.4-.18.38-.38.59-.38.4 0-.15.44-1.22.54-1.3.38-.3.5-1.03.31-1.75-.08-.3-.15-.67-.15-.82 0-.14-.06-.28-.12-.31-.24-.08-.38.05-.38.34 0 .16-.05.29-.11.29s-.09-.21-.07-.52c.03-.44 0-.55-.17-.63-.45-.23-.67-.75-.63-1.48.03-.59.02-.67-.14-.67-.3 0-.2-.19.17-.34.43-.18.51-.38.38-.86-.05-.2-.06-.45-.02-.56.23-.65-.79-.77-1.57-.18-.31.24-.49.32-.54.25-.07-.13-.6.23-.6.4 0 .05-.13.28-.3.5-.16.23-.27.46-.23.52.03.05.07.53.09 1.06s.07 1.16.13 1.41c.19.85.14 1.58-.14 1.94-.29.38-.31.62-.09.87.1.11.19.46.23.83.07.69.27 1.03.64 1.08.26.04.44.37.57 1.1.06.29.15.55.2.56.06.02.2.23.31.45.12.23.34.52.49.64.29.24.45.56.55 1.16.07.44.19.47.39.08Zm7.94-.36c.07-.14.12-.3.12-.35s.1-.2.23-.32c.13-.13.28-.31.33-.39.11-.19 1.05-.59 1.38-.59.91 0 .72-1.64-.3-2.67-2.35-2.34-6.74-.57-6.55 2.65.01.23.01.23 1.09.17.69-.05 1.23-.03 1.52.05.7.17.73.17.88-.14.29-.58.06-.76-.95-.76-.77 0-.91-.03-1.24-.26-.49-.34-.72-.29-.83.19-.13.52-.26.46-.26-.13 0-.71.26-.83 1.03-.47l.56.25.33-.44.33-.45.6.04c1.82.13 2.59 1.82 1.38 3.03-.33.34-.34.36-.19.59.21.32.4.32.54 0Zm-.55-.93c.71-.74.47-1.86-.46-2.21-.52-.2-1.11-.14-1.37.14l-.23.25h.62c.99 0 1.42.69.94 1.5-.14.24-.14.31-.04.44.18.22.23.2.54-.12Zm14.26-2.17c-.1-.46-.21-.68-.49-.95-.19-.19-.41-.49-.48-.66-.08-.17-.24-.36-.37-.42-.12-.06-.36-.34-.52-.64-.17-.29-.53-.94-.8-1.44-.6-1.07-1.23-2.04-1.33-2.04-.34 0-2.06 2.57-2.4 3.6-.09.28-.24.49-.38.55-.26.12-.39.5-.48 1.52-.1 1.09-.04 1.15.59.56 1.83-1.73 4.32-1.48 6.27.63l.45.49.03-.3c.02-.16-.02-.57-.09-.9Zm10.64.58c-.44-.09-.28-.51.83-2.23 1.86-2.9 3.86-5.32 4.16-5.02.15.15.33 5.77.22 6.63l-.09.64-2.45.01c-1.35.01-2.55-.01-2.67-.03Zm2.22-.85c.16-.24.79-1.11 1.42-1.95l1.13-1.52-.01-.88c-.02-1.6-.01-1.59-.97-.46-.87 1.03-1.72 2.22-2.9 4.11l-.71 1.12h1.76zm2.55-1.16c-.01-1.25-.03-1.54-.13-1.42-.26.33-1.55 2.08-1.85 2.53l-.33.47h2.31zm-33.89-.89c-.51-.47-.51-.45.12-.73.28-.13.62-.33.75-.44.28-.25.52-.04.27.24-.08.08-.15.4-.17.7-.04.74-.36.81-.97.23Zm1.39-2.55c0-.12.03-.18.07-.15.11.11.33-.14.33-.39 0-.14.08-.25.2-.29.25-.08.26-.22.01-.3-.24-.07-.34-.9-.13-1.08.4-.33.39-1.34-.01-1.21-.12.03-.32.16-.44.27-.13.11-.26.18-.29.14-.11-.1.39-.66.68-.76.35-.12.36-.33.03-.59-.22-.17-.23-.21-.1-.32.17-.14.17-.14.33.15.11.19.11.19.12-.03 0-.13.06-.22.15-.22.16 0 .21-.36.07-.56-.11-.17-.51-.36-.62-.29-.05.03-.11.01-.15-.05-.11-.18-.45-.11-.55.12l-.09.23-.07-.23c-.04-.13-.14-.22-.26-.22-.17 0-.18.02-.08.15.32.39-.08.33-.48-.06-.77-.77-2.35-.6-1.92.2.12.24.45.28.54.06.04-.12.1-.1.3.1.13.13.36.27.51.31.25.06.26.09.2.46-.05.28-.03.43.05.48.17.1.04.8-.15.8-.09 0-.11-.07-.07-.22s.02-.19-.08-.13c-.36.22.09 1.74.54 1.83.29.06.75-.18.78-.41.02-.14.11-.23.26-.25.23-.04.31.13.1.21-.1.03-.1.09.01.29.09.17.11.4.07.69-.18 1.18-.18 1.49-.02 1.49.1 0 .16-.09.16-.22Z"/></svg>