<svg xmlns="http://www.w3.org/2000/svg" width="51" height="51" viewBox="0 0 51 51"><path fill="#fff" fill-rule="evenodd" stroke="#fff" stroke-width=".664" d="M6.39 39.5c-3.37-.39-6-2.5-6.35-5.1-.09-.69.09-.6.26.12.9 3.93 5.67 5.74 11.35 4.32 2.55-.64 5.38-2.12 8.25-4.3 1.37-1.04 1.28-1 1.53-.76.16.15.55.26 1.52.42 3.1.5 3.36.83 2.42 3.03-.47 1.1-.56 1.52-.37 1.88.1.19.34.19 11.2.19h11.08l.12-.35c.19-.58.01-.79-1.35-1.53-3.63-1.96-4.3-2.15-6.32-1.83-.38.06-3.13.51-6.13 1s-5.62.92-5.82.94c-1.2.17.03-.86 2.97-2.48 3.96-2.19 5.51-3.72 6.1-6.05.16-.63.19-.67.92-1.22.74-.57 1.05-.69 1.19-.47.17.29 1.28.99 1.56.99.17 0 .87-.25 1.57-.56 2.93-1.31 2.8-1.28 3.81-.84 1.13.5 1.55.33 2.12-.85.28-.56.21-.76-.52-1.57-.87-.97-.79-1.08.85-1.08h.69l.98-1.02c1.19-1.23 1.22-1.32.75-2.01-.64-.93-3.96-4.13-4.58-4.42-.65-.3-2.17-.35-3.31-.1l-.68.14-1.92-1.08c-5.58-3.12-6.26-3.4-6.76-2.76-.4.5-.28.93.63 2.34.38.58.55 1.01.42 1.01-.02 0-.4-.11-.84-.24-2.19-.66-5.2-.84-6.96-.43-4.88 1.15-7.5 7.43-6.6 15.79l.17 1.58-.25.26c-.79.85-3.66 2.77-5.58 3.74-5.66 2.84-11.43 2.08-12.72-1.67-.91-2.64.98-4.56 6.3-6.38 4.52-1.54 6.41-3.22 6.44-5.7.03-1.68-.92-2.49-5.37-4.65-4.83-2.35-6.65-3.03-7.07-2.64-.55.5.63 3.28 1.93 4.56.96.94 1.26 1.02 4.18 1.1 4.33.11 5.32.58 4.76 2.25-.52 1.57-1.79 2.47-5.21 3.68-4.97 1.76-7.13 3.36-7.5 5.54-.09.57-.29.53-.22-.04.17-1.59 1.76-3.2 4.38-4.44.98-.46 1.6-.7 4.38-1.71 2.96-1.06 4.75-3.1 3.76-4.28-.45-.54-2.63-.89-4.84-.79-2.71.13-4-.64-5.26-3.13-1.29-2.55-.87-3.69 1.08-2.91 4.19 1.67 9.31 4.29 10.31 5.25 1.4 1.36 1.24 3.43-.39 5.24-1.14 1.25-2.34 1.92-5.18 2.88-5.19 1.75-7.03 3.5-6.27 5.96 1.18 3.83 7.01 4.5 12.78 1.47 1.81-.95 4.28-2.64 5.05-3.46l.27-.29-.15-1.15c-.99-7.3 1.21-13.85 5.29-15.78 1.86-.89 5.71-.98 8.24-.19.82.25.82.25.23-.68-.86-1.37-.88-2.15-.07-2.49.79-.33 1.48-.03 6.88 3.01l1.67.94.93-.15c2.61-.42 3.1-.23 5.64 2.3 2.14 2.12 2.44 2.51 2.44 3.18v.51l-1.08 1.08-1.08 1.08h-.92c-1.03 0-1.06.02-.57.5.96.93 1.05 1.46.44 2.41-.61.96-.95 1.05-2.1.54-1-.44-.67-.5-3.09.55-2.55 1.1-2.48 1.1-3.59.15l-.53-.45-.73.57c-.68.52-.75.61-.85 1.07-.52 2.26-2.44 4.18-6.2 6.21-1.14.61-3.2 1.91-3.2 2.02 0 .02.15.01.33-.02 10.52-1.76 12.8-2.1 13.7-2.02.74.07 4.98 2.11 5.61 2.71.41.38.49.93.2 1.34l-.15.22H36.21c-10.52 0-11.19-.01-11.33-.17-.38-.44-.32-.86.33-2.39.76-1.79.56-2.01-2.24-2.49-.88-.15-1.45-.29-1.57-.4-.21-.19 0-.32-2.11 1.24-4.37 3.2-8.86 4.67-12.9 4.21Zm29.32-1.6c-.11-.06-.1-.1.05-.18.22-.11 4.93-.92 5.37-.92.56 0 2.34.87 2.15 1.05-.09.1-7.42.15-7.57.05Zm6.69-.41c-1.09-.51-1.06-.5-2.82-.23-2.57.4-2.55.42.47.43l2.8.01zm-15.36-2.06c-.33-1.54-1.58-2.23-4.52-2.49-.87-.08-.78.07-1.02-1.57-.93-6.37.13-11.35 3-14.01 2.26-2.09 6.18-2.2 10.74-.28.99.41 1.29.66 1.98 1.64.58.83.79.9 2.5.86l1.23-.03.03-.3c.06-.47-.16-.55-1.46-.55-1.12 0-1.15-.01-1.39-.27-.45-.49-2.94-4.56-2.85-4.65.12-.12.36-.01 2.52 1.17 5.87 3.21 5.9 3.22 5.9 2.33 0-.46.81-.63 1.74-.37.46.13 2.16 1.65 3.42 3.07l.84.94-.55.63-.55.62-.78.05c-.63.04-.94.12-1.68.45-1.61.73-3.31.94-4.61.57-.49-.14-.54.68-.05.88.39.15 2.68.22 3.31.1.62-.11.69-.08 1.19.49.55.63.42.77-.71.75l-.92-.01-1.87.83c-1.45.64-1.92.81-2.05.73-.22-.12-1.02-.95-1.67-1.74-.4-.47-.53-.58-.75-.55-.32.04-.41.46-.17.8.26.37.19.6-.33 1.01-.51.38-.79.46-.85.25-.67-2.28-.87-2.68-1.37-2.68-.37 0-.47.22-.29.64 1.73 4.15.68 6.22-4.69 9.21-.96.53-2.02 1.14-2.36 1.36-.74.46-.83.48-.91.12Zm.76-.34c.14-.09 1.04-.61 2-1.14 3.18-1.76 4.64-2.95 5.3-4.29.57-1.16.5-2.94-.17-4.46-.3-.68-.27-1.09.09-1.29.62-.35 1.23.39 1.64 1.98.21.82.18.8.71.41l.41-.3-.21-.5-.21-.5.21-.27c.45-.62.68-.49 1.96 1.06.98 1.18.84 1.17 2.83.28 2.08-.93 2.44-1.04 3.12-.9.63.12.67.02.19-.45l-.32-.32-.94.12c-1.93.24-3.43-.12-3.49-.83-.06-.69.08-.75 1.5-.6 1.52.16 2 .08 3.43-.57.84-.39 1.12-.46 1.76-.5l.77-.04.53-.54.53-.53-1.8-1.8c-1.93-1.94-2.03-2.01-2.99-2.01h-.64l-.07.36c-.08.42-.43.69-.78.6-.23-.06-1.9-.94-5.76-3.04-.91-.5-1.66-.89-1.68-.87-.05.05 2.19 3.61 2.49 3.98l.27.32 1.27.05c1.38.05 1.55.13 1.55.7 0 .51-.18.62-1.16.67-2.01.11-2.56-.11-3.39-1.37-1.12-1.69-6.49-3-9.48-2.31-4.42 1.02-6.7 7.08-5.57 14.83l.23 1.57.46.06c3.35.44 4.5 1.03 4.85 2.48.07.29.09.29.56-.04ZM44.94 20.7c-.85-.34-.85-1.74 0-2.14.42-.2.69-.2 1.06-.01 1.45.75.46 2.77-1.06 2.15Zm1.07-.27c.85-.5.47-1.73-.53-1.73-.8 0-1.24.84-.77 1.44.37.47.82.57 1.3.29ZM5.45 19.42c-.4-.25-.88-.8-1.47-1.71-.85-1.31-.8-1.31 2.21.07 2.38 1.09 2.65 1.27 2.45 1.6-.17.27-2.76.3-3.19.04Zm2.23-.09c.45-.03.82-.09.82-.13 0-.06-2.08-1.04-4.13-1.95L3.79 17l.42.62c1.2 1.79 1.38 1.88 3.47 1.71Z"/></svg>