<svg xmlns="http://www.w3.org/2000/svg" width="51" height="51" viewBox="0 0 51 51"><path fill="#fff" fill-rule="evenodd" stroke="#fff" stroke-width=".693" d="M17.48 46.09c-2.31-.3-4.4-2.07-5.11-4.34-.21-.68-.22-.85-.22-5.05 0-4.88 0-4.88.74-5.37.73-.49 1.19-.36 3.34.95 3.67 2.25 8.63 4.16 13.24 5.12 2.87.6 6.52 1.08 6.65.87.05-.06.29-.51.53-.99.52-1.02.63-.91-1.05-1.08-7.87-.79-13.61-2.76-20.05-6.88-.99-.63-2.08-1.32-2.42-1.54-1.06-.68-.98.03-.98-8.73 0-7 .01-7.65.18-8.25.62-2.26 2.22-3.76 4.53-4.27 1.23-.27 7.11-.26 7.72.01.8.36 1.06 1.31.61 2.22-.34.71-.73.88-2.11.94l-1.18.05 1.36.8c2.37 1.39 2.75 1.91 2.25 3-.57 1.27-1.58 1.45-2.98.53-1.83-1.19-5.91-3.38-6.31-3.38-.27 0-.92 1.76-.71 1.93.02.02.83.44 1.79.94 2.07 1.06 3.42 1.86 5.8 3.4 3.12 2.03 6.23 3.4 9.22 4.07.3.07.39-.19.58-1.69.14-1.07.17-1.01-.43-1.08-1.29-.16-2.84-.93-4.05-2.02-3.8-3.44-3.34-9.77.91-12.58 1.29-.86 2.13-1.02 2.85-.55.72.48.87 1.12.52 2.33-1.15 4.01 2.1 7.24 6.11 6.07 1.21-.35 1.9-.18 2.3.58.78 1.45-1.45 4.54-4.06 5.65-.64.28-.65.28-.65.68 0 .52-.27 2.36-.45 3.1l-.15.57 1.23 1.23c2.38 2.37 3.87 5.3 3.36 6.64-.34.9-1.03 1.11-2.86.89-.7-.08-1.73-.2-2.28-.26-3.06-.33-7.79-1.45-8.71-2.05-.87-.57-.78-2.26.15-2.79.51-.29 1.05-.24 2.96.28 2.29.62 5.06 1.15 6.03 1.16.29 0 .21-.15-.49-.94-1.14-1.26-1.51-1.49-2.85-1.75-3.88-.75-7.44-2.28-11.24-4.81-1.87-1.24-5.25-3.2-5.53-3.2-.04 0-.07.53-.07 1.18v1.18l.87.49c.48.28 1.07.67 1.3.89 1.45 1.31 0 3.48-1.82 2.72l-.35-.15v2.47l2.03 1.28c5.59 3.54 10.48 5.26 17.45 6.14 2.85.37 2.7.37 2.78.03.24-1.01.74-1.46 1.62-1.51 1.37-.07 1.78.54 1.69 2.53-.17 3.82-2.47 7.87-5.71 10.05-2.09 1.4-4.36 2.11-7.31 2.31-1.74.11-9.66.1-10.57-.02ZM30 45.66c5.55-1.08 9.53-4.94 10.65-10.36.27-1.26.26-2.9-.01-3.27-.83-1.14-2.63-.54-2.64.89 0 .4-.05.41-2.02.18-7.59-.87-12.66-2.58-18.46-6.24-2.58-1.63-2.32-1.3-2.32-2.98v-1.4l.23.05c.12.03.42.13.67.22.97.36 1.9-.28 1.9-1.3 0-.71-.41-1.13-2.03-2.04-.34-.2-.62-.43-.68-.58-.11-.3-.12-2.6-.01-2.67.22-.13 3.17 1.52 5.87 3.28 4.27 2.78 7.21 4 11.99 4.96.55.11.65.18 1.53 1.03.95.92 1.63 1.74 1.63 1.97 0 .31-3.58-.27-6.51-1.05-2.59-.69-2.83-.69-3.38.01-.42.53-.19 1.73.38 2.03.29.16 2.26.77 3.41 1.06 2.53.64 8.44 1.39 9.19 1.16 1.89-.56 0-5.15-3.17-7.75-.53-.43-.71-.63-.67-.76.13-.42.35-1.62.45-2.5.23-1.97.08-1.69 1.18-2.22 2.66-1.28 4.59-4.22 3.55-5.38-.39-.44-.89-.49-2-.19-3.98 1.05-7.42-2.2-6.38-6.01.44-1.61.39-1.99-.34-2.47-1.31-.88-4.29 1.39-5.38 4.07-1.84 4.58 1.23 10 6.05 10.65l.52.07v.61c0 .65-.33 2.44-.47 2.58-.1.1-1.84-.35-3.13-.79-2.27-.78-3.95-1.61-6.3-3.13-2.66-1.7-4.31-2.67-6.3-3.68l-1.81-.92.07-.47c.15-1.04.58-1.92.95-1.92.11 0 1.03.42 2.04.94 1.62.84 2.52 1.35 4.69 2.69 1.23.76 2.46.16 2.46-1.2 0-.62-.27-.86-2.24-2.03-.97-.58-1.76-1.11-1.76-1.18 0-.15-.11-.14 1.4-.15 1.06-.02 1.3-.05 1.6-.22 1.03-.61 1-2.15-.05-2.52-.61-.22-6.86-.13-7.7.11-1.97.55-3.46 1.96-4.03 3.81-.26.82-.3 15.75-.05 16.25.18.35 1.79 1.44 5.13 3.46 4.81 2.91 10.71 4.77 17.6 5.54 1.07.12 1.99.26 2.04.3.1.09-1.01 2.37-1.18 2.43-.18.06-3.72-.39-5.26-.67-5.46-1-10.53-2.89-15.03-5.59-1.76-1.06-2.05-1.16-2.67-.91-.81.33-.83.43-.81 5.11.01 2.21.06 4.26.11 4.55.35 2.18 2.25 4.13 4.51 4.63.98.22 11.78.14 12.99-.09ZM18.04 43c-1.44-.21-2.53-1.17-2.68-2.37-.13-.96-.17-5.13-.05-5.13.06 0 1.06.47 2.23 1.05 4.63 2.29 10.34 4.07 14.6 4.54 1.23.14 1.3.26.46.73-1.28.73-2.83 1.06-5.6 1.18-2.4.11-8.22.11-8.96 0Zm11.45-.44c1.04-.18 2.18-.54 2.88-.9l.46-.23-.69-.06C28.2 41 21.81 39 17.22 36.69l-1.74-.87.04 2.47c.04 2.01.07 2.53.21 2.82.36.8 1.01 1.33 1.91 1.55.82.21 10.59.13 11.85-.1Zm-8.6-15.31c-.28-.15-.59-.69-.59-1.02 0-.12-.11-.23-.33-.31-1.14-.41-1.29-2.09-.21-2.36.2-.05.24-.13.24-.42 0-1.25 1.42-1.84 2.19-.9.09.11.19.13.37.05 1.2-.45 2.18.5 1.7 1.66-.13.31-.13.36.06.6.69.88.06 2.1-1.05 2.04-.37-.02-.47.02-.83.39-.46.47-1.02.56-1.55.27Zm1.12-.15c.11-.06.3-.28.44-.5.23-.36.26-.38.56-.3 1.14.33 1.8-.86.98-1.76-.19-.2-.19-.22.01-.65.26-.58.25-.71-.06-1.08-.32-.39-.78-.48-1.29-.27-.38.16-.39.16-.69-.13-.79-.76-1.7-.33-1.67.78.01.47-.01.5-.28.56-1.02.22-.89 1.95.15 1.95.26 0 .44.26.44.62 0 .63.83 1.09 1.41.78Zm10.85-11.9c-2.5-.44-4.46-3.46-3.83-5.9.19-.71.38-.63.7.32.8 2.34 2.6 4.13 4.95 4.92.7.24.85.45.41.56-.47.13-1.73.18-2.23.1Zm1.78-.29c.15-.06.1-.1-.25-.2-2.07-.61-4.25-2.83-4.89-4.98q-.3-.975-.3.39c.01 2.78 1.95 4.86 4.55 4.86.39.01.78-.03.89-.07Z"/></svg>