<svg xmlns="http://www.w3.org/2000/svg" width="51" height="51" viewBox="0 0 51 51"><path fill="#fff" fill-rule="evenodd" stroke="#fff" stroke-width=".707" d="M8.3 25.65V8.3l17.32.02 17.33.03.03 17.33L43 43H8.3zM36.58 42.7h6.12V8.6H8.6v34.1l9.08.02c4.99.02 9.9.02 10.92.01 1.02-.02 4.61-.03 7.98-.03Zm-23.41-4.57c-.04-.03-.07-5.66-.07-12.5V13.2h25.11l-.03 12.38c-.02 6.8-.07 12.43-.11 12.5-.09.13-24.77.19-24.9.05Zm24.67-.69c.03-.26.06-5.78.06-12.27v-11.8l-.46.07c-.26.03-5.77.06-12.25.06H13.4v24.4h24.37zM15.8 34.56c0-.08.94-1.42 2.08-2.98 1.15-1.56 3.54-4.84 5.32-7.28 1.78-2.45 3.79-5.2 4.48-6.13l1.24-1.67 3.16.02c2.86.03 3.17.05 3.16.19-.01.09-1.22 1.83-2.69 3.85-5 6.88-7.1 9.75-8.72 11.95L22.2 34.7H19c-2.7 0-3.2-.02-3.2-.14Zm8.48-3.13c2.23-3.04 3.86-5.27 8.06-11.05 1.3-1.8 2.42-3.3 2.47-3.33.33-.21-.16-.25-2.84-.25h-2.92l-.7.93c-.38.5-2.43 3.31-4.55 6.22-2.13 2.91-4.67 6.4-5.66 7.75s-1.83 2.51-1.88 2.58c-.06.09.58.12 2.88.12h2.95z"/></svg>