<svg xmlns="http://www.w3.org/2000/svg" width="51" height="51" viewBox="0 0 51 51"><path fill="#fff" fill-rule="evenodd" stroke="#fff" stroke-width=".766" d="M23.9 40.29c-5.2-.67-9.37-4.47-10.78-9.83l-.26-1.01-.04-8.03c-.03-8.9-.05-8.68.61-9.53 1.01-1.34 3.27-1.34 4.37-.02.6.73.6.74.6 7.62v6.26l.23-.65c.34-.95.69-1.44 1.76-2.48 1.6-1.56 2.69-2.22 3.68-2.22.23 0 .21-.04-.3-.59-1.34-1.45-1.11-3.43.51-4.38 1.21-.71 4.46-.26 7.1.97 5.74 2.69 8.52 9.16 6.52 15.21-1.91 5.79-7.85 9.48-14 8.68Zm4.22-.4c8.78-1.74 13.01-11.7 8.11-19.08-2.1-3.16-6.51-5.51-10.33-5.51-2.51 0-3.67 2.59-1.97 4.38.47.5.74.6 1.89.72 2.84.29 4.92 1.46 6.3 3.56 2.03 3.09 1.05 7.49-2.14 9.66-4.44 3.01-10.3.85-11.58-4.26-.19-.76-.2-1.14-.2-8.36 0-8.16 0-8.08-.53-8.89-1.01-1.52-3.7-1.2-4.42.53-.23.55-.23 15.78 0 17.1 1.22 6.99 7.88 11.53 14.87 10.15Zm-1.17-5.24c6.83-1.41 8.18-10.1 2.04-13.14-2.13-1.05-4.85-1.22-6.43-.38-.83.44-2.93 2.48-3.34 3.24-2.75 5.17 1.98 11.47 7.73 10.28Zm-2.43-3.5c-3.36-.94-3.78-5.52-.65-7.11.83-.42 2.38-.43 3.25-.02 3.03 1.42 2.84 5.81-.3 6.98-.74.28-1.63.34-2.3.15Zm2.48-.49c1.56-.78 2.37-2.45 1.96-4.06-.82-3.23-5.2-3.63-6.68-.62-.36.73-.34 2.26.05 3.04.86 1.76 2.96 2.5 4.67 1.64Z"/></svg>