<svg xmlns="http://www.w3.org/2000/svg" width="51" height="51" viewBox="0 0 51 51"><path fill="#fff" fill-rule="evenodd" stroke="#fff" stroke-width=".432" d="M.8 51.15c0-.02 1.04-1.29 2.31-2.82s2.92-3.59 3.68-4.57c1.91-2.51 2.13-2.74 1-1.06C6.15 45.16.8 51.62.8 51.15Zm6.26-.07c.07-.13 1.11-1.75 3.47-5.46 1.81-2.82 2.97-4.87 2.97-5.22 0-.05-.15-.1-.34-.1-.18 0-.44-.09-.57-.19-.26-.2-1.57-.41-2.56-.41-.47 0-.57-.04-1.01-.42-.26-.24-.8-.66-1.2-.93-.86-.6-.77-.36-1.02-2.73-.49-4.66-.11-6.59 1.65-8.51.41-.45.65-.8.65-.94 0-.13.09-.33.2-.45.35-.37.08-1.81-.56-2.89-.37-.64 0-.75-3.04.84-1.76.92-4.23 2.23-5.08 2.7l-.62.34v-.76l1.87-.98c1.04-.54 2.47-1.28 3.2-1.65 1.49-.75 1.49-.78.07-.88l-1-.07-2.02.97C-.11 24.39 0 24.35 0 24.17c0-.07.85-.53 1.88-1.02 1.84-.87 1.88-.9 1.71-1.09-.45-.48-.79-2.57-.46-2.84.3-.25 4.55-.65 5.2-.48.35.08.6.56.52 1l-.07.33 1.04-.5c3.07-1.47 10.48-4.78 12.88-5.74 1.76-.7 8.62-3.75 8.57-3.8-.03-.02-.34.04-.71.13-.58.14-.83.15-2.07.05-1.54-.13-1.75-.11-1.02.09.26.07.52.16.56.2.2.18-5.41 1.76-13.5 3.8C9.85 15.49 2.51 17.42.18 18.07c-.15.04-.18-.01-.18-.3 0-.34.03-.37.43-.48.23-.06 3.25-.83 6.72-1.69l6.3-1.58V9.45l.52-.03.53-.03.02 2.2.03 2.19 5.63-1.4c4.98-1.24 6.14-1.58 5.42-1.58-.11 0-2.44-.45-5.18-.99C9.85 7.7.21 5.8.05 5.8.02 5.8 0 5.73 0 5.65s.04-.15.09-.15c.24 0 17.76 3.48 23.86 4.74 2.18.46 2.87.54 3.14.37.09-.06-.01-.12-.35-.21-.27-.06-6.38-1.59-13.59-3.39L.05 3.73l-.03-.46c-.04-.58-1-.78 6.28 1.25 1.79.49 4.56 1.25 6.15 1.68s5.13 1.4 7.85 2.15l4.95 1.36 1.89.15c2.8.22 2.76.26.84-.87-2.92-1.72-4.49-2.63-7.08-4.13-1.4-.82-3.49-2.04-4.65-2.71-1.16-.68-2.46-1.43-2.9-1.69-.7-.4-.76-.46-.5-.46.17 0 .64.19 1.1.46.44.25 1.04.59 1.33.76l.54.31-.07-.77c-.05-.52-.04-.76.03-.76s.12.32.14.81l.03.81 1.07.65 1.07.65 1.47-.07c1.32-.06 1.46-.09 1.29-.22-.11-.07-1.15-.69-2.32-1.36S16.45.03 16.51.02c.05-.02 1.39.71 2.98 1.62s2.92 1.66 2.95 1.66.06-.4.06-.89v-.89L21.08.76C20.29.34 19.73 0 19.84 0c.18 0 2.11 1.04 6.11 3.3 4.02 2.26 4.29 2.4 4.75 2.4.34 0 .43.04.47.21.04.12.11.18.2.15.08-.03.2 0 .28.07.15.15 2.95.25 2.95.1 0-.04-2.57-1.45-5.71-3.13-3.13-1.67-5.66-3.06-5.6-3.08.09-.03 10.4 5.4 11.37 5.99.51.31.54.27.54-.68v-.88l-2.38-1.23c-1.3-.68-3.24-1.67-4.3-2.2s-1.85-.98-1.77-1c.13-.03 6.4 3.14 7.98 4.03l.47.27V2.6l-2.57-1.29c-1.42-.72-2.5-1.3-2.4-1.3.1-.01 1.25.53 2.54 1.19 1.3.66 2.37 1.2 2.39 1.2s.04-.3.06-.67c.03-.66.04-.68.31-.71.18-.02.31-.11.37-.26.1-.28.29-.36.81-.36.32 0 .41-.04.49-.23l.09-.22v.23c.01.27.21.3.21.02 0-.11.05-.2.1-.2.06 0 .1.09.1.2 0 .23.26.36 1.07.53.62.13.63.16.72 1.71.07 1.22.21 1.48.6 1.12.19-.18.21-.3.21-1.62V.5l.39-.26c.23-.15.49-.24.63-.22.22.04.22.05-.09.24l-.33.19V6.2h.35c.33 0 .35-.02.35-.31 0-.26-.03-.3-.2-.26-.1.03-.24-.01-.3-.09-.09-.1-.05-.15.22-.22l.33-.08v-2c.01-1.09.02-2.27.03-2.62L41.7 0h1.32l-.31.29c-.17.16-.31.35-.31.41 0 .07.2-.06.45-.29.4-.37.5-.41.95-.41h.5l.01.78c.01.42.02 1.81.03 3.07l.01 2.3.5-.04c.37-.02.56-.09.72-.27.12-.13.35-.25.5-.25.2-.01.22-.03.08-.06-.11-.02-.3-.06-.42-.09-.15-.03-.23-.12-.23-.24 0-.19.07-.2 1.05-.2s1.05-.01 1.05-.2c0-.18-.06-.19-.8-.16-.78.04-.8.04-.8-.19 0-.17-.06-.25-.22-.27-.13-.02-.24-.1-.26-.2-.03-.14.02-.15.35-.07.81.18 3.23.06 3.23-.17 0-.11-.32-.14-1.58-.14h-1.59l.05-.29c.03-.22-.01-.29-.17-.34-.12-.03-.21-.1-.21-.17 0-.06.04-.09.08-.06.08.05 2.1.1 2.94.08.36-.02.48-.06.48-.18 0-.13-.22-.15-1.74-.12-.96.02-1.68-.01-1.6-.05.19-.11.18-.57-.01-.57-.11 0-.15-.11-.15-.36 0-.27.04-.35.14-.31.08.03.16-.02.19-.14.04-.14 0-.19-.14-.19-.1 0-.19-.04-.19-.1s.65-.1 1.75-.1C49.03.7 49.1.69 49.1.5s-.08-.2-1.77-.22c-1.3-.02-1.77-.06-1.81-.16-.03-.09.4-.12 1.92-.12 1.68 0 1.96.02 1.96.15 0 .18.08.18.4 0 .14-.08.34-.14.45-.14.12 0-.04.12-.37.3-.32.16-.58.36-.58.44 0 .22.13.19 1-.25.95-.48.9-.47.9-.11 0 .27-.06.32-.98.72-.88.38-.98.45-.94.65l.04.23.77-.36c1.13-.52 1.11-.52 1.11-.06v.39l-.9.33c-.82.3-1.37.71-.97.71.12 0 1.22-.36 1.7-.55.14-.06.17-.02.17.22 0 .28-.04.3-.91.58-.81.26-1.12.45-.97.61.03.02.41-.07.84-.21.99-.31 1.04-.31 1.04.03 0 .28-.02.29-1.19.57l-1.19.28.06.41c.06.52.1.55.3.3.12-.15.38-.25.82-.33.36-.06.77-.14.93-.17l.27-.06v.77c0 .64-.02.75-.13.66-.08-.06-.18-.07-.22-.03-.05.04-.05.01-.01-.06.09-.16-.31-.51-.59-.51-.27 0-.55.22-.55.43 0 .1-.05.26-.11.37-.07.14-.07.29.02.54.12.33.32.5.26.23-.01-.08.06-.12.17-.1.12.02.16-.01.11-.09-.06-.09-.01-.1.17-.06.15.04.33 0 .46-.09.12-.08.27-.12.32-.09.1.06.15.65.05.65-.57 0-5.75 1.71-5.75 1.9 0 .1 1.07.18 3.25.25 2.53.08 2.55.09 2.55.51v.34l-.77-.05c-.43-.03-1.39-.1-2.12-.15-1.89-.14-1.93-.14-1.82.08.06.09.12.29.15.43.05.23.12.27.58.33.29.03 1.15.16 1.9.28l1.38.22.34-.4c.35-.39.35-.39.36-.13 0 .15-.07.29-.15.33-.08.03-.15.1-.15.16 0 .05.07.1.15.1s.15.05.15.1c0 .06-.09.1-.2.1-.15 0-.2.07-.2.28 0 .15.04.23.08.17.2-.27.27-.07.3.81.02.62 0 .94-.07.94-.06 0-.75-.18-1.53-.4-1.56-.44-7.49-1.92-8.42-2.11-.63-.12-.61-.28.04-.3.19 0 .46-.05.6-.1.16-.05-.08-.06-.64-.03-.89.06-2.46-.12-2.46-.28 0-.04.06-.08.14-.08.09 0 .12-.08.08-.25l-.04-.25-2.44.01c-2.41.02-2.44.02-2.45.23 0 .21-.01.2-.11-.02-.09-.18-.19-.22-.58-.22h-.47l-.48 1.02c-.26.57-.82 1.68-1.24 2.48s-.77 1.48-.79 1.51c-.01.03 1.27.04 2.85.01 3.55-.06 5.85.22 6.48.77.11.1.47.33.8.51s1.03.65 1.55 1.03c.52.39.97.71.98.71.02.01.25.2.5.44.49.44.61.42.44-.08-.13-.36-.03-.46.63-.58.49-.1.48-.1-.36-.11-1.04-.01-1.79-.11-1.79-.22 0-.31 3.24.03 3.84.41 1.55.95 2.57 3.4 2.6 6.25.01 1.76-.11 2.1-.88 2.37-.6.21-.75.34-1.41 1.28-.29.42-.91 1.12-1.38 1.56-.96.9-.94.87-1.46 2.31-.5 1.4-.76 1.98-1.11 2.53-.15.25-.39.9-.53 1.46-.4 1.56-.62 1.98-1.71 3.28l-.38.46.45 1.27c.25.71.59 1.71.76 2.23s.28.79.25.6c-.04-.19-.24-.91-.44-1.6-.61-2-.71-2.35-.61-2.25.28.31 1.36 4.04 1.92 6.65.66 3.09.91 4.79.69 4.65-.05-.03-.1-.18-.1-.33 0-.62-.73-3.8-1.25-5.47-1.11-3.56-1.77-5.6-1.84-5.68-.04-.04-.82.3-1.73.76-3.68 1.88-7.71 2.64-11.47 2.16-1.01-.12-1.14-.18-1.45-.68-.24-.37-.28-.39-.93-.45-1.23-.13-6.95-.85-8.33-1.06-1.99-.3-1.81-.35-2.36.68-.82 1.53-2.56 4.39-4.38 7.21-.98 1.51-1.8 2.81-1.83 2.88s-.12.13-.2.13c-.09 0-.11-.05-.07-.12Zm7.05-4.28c2.07-4.11 2.59-5.08 2.43-4.55-.17.56-4.4 8.95-4.52 8.95-.08 0 .74-1.73 2.09-4.4Zm23.77 3.4c-.01-.58-.01-1.45 0-1.95.02-.49-.01-2.23-.07-3.85-.05-1.62-.06-3.13-.01-3.35.06-.33.08-.23.1.55.01.52.06 1.42.1 2l.07 1.05.03-1.25c.05-2.15.18-.65.19 2.14.01 3.58-.34 7.59-.41 4.66Zm-6.11-8.54c.4-.09 1.06-.27 1.45-.4.4-.13.98-.27 1.28-.31.75-.1 1.62-.4 2.5-.86 1.21-.64 1.16-.55 1.35-2.09.16-1.3.5-3.24.61-3.55q.06-.15-.12-.15c-.27 0-.97-.8-1.33-1.5-.39-.78-.39-.83.02-1.02l.33-.16.22.48c.12.26.4.67.61.91l.4.44.01-.32c0-.18-.11-.48-.25-.68-.49-.73-.97-2.55-.66-2.55.06 0 .11.07.11.15 0 .22.47 1.12.7 1.35.45.45.55.03.15-.58-.13-.2-.27-.53-.3-.72l-.06-.35.18.24c.52.71.5.7.6.21.18-.94-.66-3.27-1.3-3.58-.53-.25-1.55.73-2.58 2.47-.53.88-.58 1.14-.21 1.19.12.02.22.08.22.14s-.12.08-.3.05c-.41-.09-.45-.01-1.33 2.58-1.16 3.43-1.86 4.97-3.02 6.7-1.07 1.58-1.52 1.85-3.15 1.85-1.12 0-2.29.12-2 .21.47.15 5.08.03 5.87-.15Zm-3.46-.35c1.56-.19 3.44-3.03 4.94-7.45.52-1.52.54-1.66.23-1.66-.33 0-.4-.07-.97-.89-.36-.52-.51-.68-.51-.53 0 1.36-2.13 3.29-3.09 2.79-.41-.2-.37-.36.07-.3.95.13 2.24-1.15 2.39-2.37.11-.93-.85-2.63-1.22-2.15-.14.19-.14.18-.09-.11.06-.34-.81-.84-1.47-.84-.17 0-.93-.16-1.7-.35-3.78-.95-6.78-1.24-10.93-1.06-5.72.26-6.6.34-7.01.65-.43.33-.44.46-.05.46.69 0 4.08.83 4.74 1.16.16.08.53.14.83.14.29 0 .53.04.53.1s-.25.1-.55.1c-.54 0-.54 0-.44.24.11.22.19.25 1.08.31.53.04 1.99.17 3.25.29l2.29.21.31-.31c.53-.53.81-.56 4.95-.52 4.71.04 5.01.13 5.01 1.53 0 1.88-1.22 2.15-8.15 1.76-6.71-.38-10.62-1.04-14.28-2.41-.78-.29-.99-1.12-.45-1.77.06-.07.08-.13.04-.13-.23 0-1.18 2.11-1.02 2.27.03.04.06-.02.06-.13.01-.13.05-.09.15.13.28.64 1.17.9 5.45 1.57 6.03.95 10.21 1.35 14.09 1.36 1.08 0 .78.13-.47.21-5.65.33-17.77-1.37-19.15-2.69l-.28-.27.06.8c.13 1.56.35 3.91.46 4.93l.12 1.04.7.49c.84.59.87.59 1.12.12.33-.62.46-.63 3.12-.1 2.99.59 4.34.8 7.52 1.17l2.54.3.81.44c.45.25 1.15.7 1.56 1l.75.56 1.05-.01c.58 0 1.3-.04 1.61-.08Zm-4.21-.58c0-.11-1.06-.78-1.51-.97-.2-.08-1.45-.26-2.85-.41-3.73-.38-5.9-.73-8.14-1.3-1.31-.33-1.72-.33-1.99.01-.54.68-.02.85 4.59 1.43.41.05 2.17.3 3.9.55 4.55.66 6 .82 6 .69Zm9.56-1.11c.05-.05.45-.38.89-.73 1.31-1.05 2.46-2.32 3.06-3.35.21-.38.25-.41.46-.31.61.28-.65 2.27-2.15 3.39-.79.59-2.83 1.49-2.26 1Zm-11.56-.99c-4.97-.51-9.82-1.26-11.59-1.79-1.43-.42.2-.23 6.34.76 2.37.38 4.68.74 5.15.81 1.26.17 1.34.35.1.22ZM0 38.34c0-.14.21-.15 1.88-.1 1.03.03 2.72.05 3.75.06 1.23 0 1.86.03 1.82.1-.12.19-7.45.13-7.45-.06Zm41.01-1.09c.8-1.37 1.1-5.05.65-7.79-.21-1.23-.49-1.46-.95-.75-.14.22-.14.23 0 .12s.15-.07.13.35c-.02.26.01.81.06 1.22.12 1.11.2 3.99.1 3.75-.08-.18-.09-.17-.09.07-.01.15-.08.31-.16.35-.09.06-.16.29-.19.66-.05.68-.16.88-.17.31 0-.34-.01-.36-.1-.16-.09.24-.03.72.1.72.03 0 .06.18.06.39 0 .52-.17.47-.32-.09-.06-.25-.12-.36-.12-.24-.05 1.02.62 1.74 1 1.09Zm1.89.05c0-.07 1.43-.1 4.09-.1 2.63 0 4.12.04 4.16.1.04.07-1.35.1-4.09.1-2.71 0-4.16-.03-4.16-.1Zm-24.2-.17-2.95-.44c-1.48-.22-2.87-.42-3.09-.45-.45-.07-.45.01.06-1.88l.32-1.18.45.05c.25.04 1.72.22 3.26.42 1.54.19 2.81.35 2.83.35.01 0 .02.72.02 1.6v1.6l-.32-.01c-.18-.01-.44-.04-.58-.06Zm24.2-5.19c0-.51 1.08-2.23 1.9-3.04.73-.71 2.1-2.31 2.1-2.45s-.35-.75-.42-.73c-.3.11-1.36 1.61-2.81 3.98-.25.41-.58.86-.72 1l-.27.25.07-.25c.19-.68 2.4-4.09 3.28-5.07.61-.68.59-.62.72-2.53l.06-.85-.29.55c-.16.3-.46 1.07-.67 1.7s-.4 1.11-.41 1.05c-.25-.79-.14-2.25.16-2.25.05 0 .12-.1.16-.22a1 1 0 0 1 .22-.4c.24-.28.01-.21-.31.1l-.3.27.23-.32c.13-.18.27-.33.31-.33s.06-.11.05-.25c-.02-.13 0-.22.04-.2.04.03.15-.04.25-.15s.14-.2.09-.2c-.04 0 .07-.13.26-.29s.32-.32.29-.35c-.08-.09-1.5 1.44-1.44 1.54.02.04-.07.18-.21.31-.75.69-1.94 2.52-2.5 3.81-.36.86-.38.86-.63-.19-.58-2.52-.43-2.79.19-.35l.11.42.51-.97c.85-1.65 1.72-2.84 3.1-4.29 1.5-1.56 1.55-1.7.81-2.47-.44-.45-.94-.77-.55-.35.61.67.16 1.28-.96 1.28-.49 0-.83.05-.91.13-.1.1-.17.07-.35-.14l-.22-.26-.3.24c-2.29 1.88-4.33 3.05-5.02 2.88-1.52-.38-1.34-5.32.23-6.35l.26-.17-.43-.11c-2.65-.65-10.67-.33-13.22.52-1.87.63-1.99.61 3.27.61 5.05 0 5.71.05 6.86.56.46.2.53.37.08.2-1.04-.4-3.39-.55-6.86-.45l-2.76.09 3.3.07c6.05.12 6.44.31 5.9 2.9-.26 1.24-.35 1.48-.52 1.48-.13 0-.14.09-.09.58.05.4.04.53-.03.42-.06-.08-.11-.34-.11-.57v-.43h-1.92c-2.71 0-6.1-.16-9.83-.45-4.63-.36-9.36-.58-12.02-.58-2.53.01-2.53.01-2.23-.54.25-.46.26-1.05.03-1.28-.19-.19-1.04-.17-3.46.1-1.95.22-1.81.15-1.74.99.14 1.7.32 1.89 1.93 2.07 2.2.24 3.25.09 2.8-.4-.09-.1-.16-.3-.16-.46v-.28l2.13.07c1.16.04 3.61.16 5.42.26 1.82.11 4.34.24 5.6.3 2.41.11 5.92.36 6.36.46.56.11 1.05.97 1.74 3.07l.48 1.45.44-.36c.49-.41.53-.61.22-1.12-.25-.4-.28-.37-.5.5l-.11.45-.34-1.1c-.39-1.29-.39-1.29-.16-1.2.09.04.22.08.29.08s.15.07.17.14c.09.22.26.05.26-.25-.01-.45-.23-.71-.85-1.01-.33-.15-.69-.38-.79-.5-.22-.24-.1-.28.21-.06.55.38 1.06.47 3.17.55 2.44.1 2.51.13 1.8.77-.58.54-1.74 1.12-2.4 1.19l-.52.07.27.58c.24.54.28.59.51.53.61-.14 1.4-.24 1.98-.25.59-.01.64-.03.9-.35.39-.48.49-.42.13.09-.52.74-1.74 1.79-3.09 2.66-.58.37-.6.41-.33.65.17.16.19.16.24-.05.09-.33.27-.18.46.36.13.4.23.53.52.67.2.09.6.45.89.8.93 1.09 1.07 1.13 1.39.37.11-.29.21-.58.21-.65 0-.08.04-.14.08-.14.05 0 .19-.19.32-.42.13-.24.37-.63.54-.88s.45-.68.62-.96c.41-.68 1.55-2.04 1.72-2.04.74 0 1.54.97 1.95 2.39l.24.83.31-.65c.99-2.12 2.12-.12 2.12 3.75v.49l.25-.27c.14-.15.25-.33.25-.4Zm-13.57-.04c1.06-.17 1.56-.85 1.23-1.65-.22-.52-.65-.67-2.14-.73l-1.22-.05.4.4c.74.75.35 1.85-.65 1.85s-1.42-1.26-.65-1.94l.3-.28h-.92c-.86.01-.91.02-.67.15.82.44.65 1.84-.24 2-1.15.22-1.77-1.53-.73-2.04.16-.07-.03-.1-.74-.1l-.95-.01.32.2c.87.53.63 1.9-.33 1.9-1.02 0-1.41-1.54-.5-1.97l.31-.14-.3.06c-.85.18-1.64 1.44-1.26 2.04.1.16.37.19 2.81.3 2.42.12 5.27.12 5.93.01Zm-8.98-.28c-.16-.37-.16-.6-.01-.97.2-.47.58-.38-2.74-.64-1.57-.12-3-.23-3.17-.24l-.33-.03v.68c0 .46.04.7.13.73.14.05 4.46.53 5.22.58.28.02.61.04.74.05.18.02.22-.01.16-.16Zm8.42-.13c-.52-.3-.58-1.21-.1-1.59.88-.69 1.97.65 1.15 1.43-.29.28-.72.35-1.05.16Zm-1.32-.24c.51-.5.18-1.45-.49-1.45-.73 0-1.07.99-.51 1.47.34.3.7.29 1-.02Zm-2.39-.06c.26-.29.25-.93-.03-1.21-.49-.49-1.23-.13-1.23.6 0 .71.81 1.1 1.26.61Zm-11.18-.47c.03-.21.01-.22-.17-.13-.76.41-1.5-.89-.95-1.67.19-.27.19-.28-.23-.37l-.33-.06.15.28c.52 1-.36 2.01-1.09 1.25-.52-.55-.31-1.59.32-1.63.19-.02-.72-.27-1.01-.28-.17-.01-.17.01.02.25.63.8-.1 2.05-.79 1.36-.24-.25-.3-.27-.46-.15-.24.18-.28.17-.63-.13-.54-.45-.38-1.33.29-1.57.1-.04.09-.06-.06-.06-.36-.02-.83.71-.87 1.35-.02.45.06.48 3.18 1.29 2.29.6 2.58.63 2.63.27Zm-1.84-.78c.23-.23.21-.96-.03-1.18-.56-.5-1.1.56-.56 1.09.28.29.38.31.59.09Zm30.38-.98c-.16-.83-.15-.97.05-.62l.15.3.42-.85c.5-1.01 1.38-2.37 1.44-2.2.03.1-1.83 4.01-1.92 4.01-.01 0-.08-.29-.14-.64Zm-12.46-1.62a.52.52 0 0 0-.42-.24.65.65 0 0 1-.4-.15c-.12-.11-.31-.13-.87-.09-.57.05-.96.01-1.9-.2-.92-.21-2.7-.42-3.81-.46-.36-.01.26.15 1.74.45.96.19 2.26.49 2.89.65.67.18 1.17.26 1.19.21.06-.19.44-.61.54-.61.06 0 .03.09-.07.2-.23.25-.17.31.6.63.67.29.85.15.51-.39Zm1.75-.18c.57-.41 1.15-.85 1.29-.97l.25-.21-.5.06c-.71.07-1.72.41-2.27.76l-.47.3.22.44c.26.54.2.56 1.48-.38Zm-17.96-1.21c1.32-.03 2.78-.09 3.25-.12l.85-.07-.65-.13c-1.14-.25-5.65-.23-6.14.02-.56.28-.61.5-.1.42.22-.04 1.47-.09 2.79-.12Zm15.21-.12c-.04-.16-.11-.4-.17-.54l-.1-.25-1.92-.12c-1.06-.07-3.22-.19-4.82-.27-1.59-.09-3.28-.2-3.74-.25-.47-.05-.85-.09-.86-.07-.07.12-.23.82-.21.85.06.05 3.05.38 4.71.52 1.12.09 3.54.23 6.89.39.26.01.28-.01.22-.26Zm19.17-.18c.44-.44.25-3.04-.34-4.62-.22-.57-.39-.69-.39-.27 0 .14.04.23.1.19.2-.13.65 1.59.52 1.96-.08.2-.12.12-.32-.52-.27-.86-.39-.68-.16.24.19.74.21 2.09.05 2.4-.07.12-.08.19-.04.15.05-.04.14-.03.21.02.06.06.17.09.24.08.07-.02.15.03.17.1.03.07-.05.12-.2.12-.14 0-.32.03-.41.06s-.16.01-.16-.06c0-.06.05-.08.12-.04.07.05.08.03.02-.07-.05-.08-.07-.55-.05-1.05.03-1.18-.14-1.31-.23-.18-.11 1.42.28 2.08.87 1.49Zm-32.12-.64c-.07-.13-.07-.29 0-.51.13-.37.19-.33-.61-.52-.36-.08-.72-.19-.82-.22-.11-.05-.21.01-.33.21-.09.16-.39.44-.66.63-.62.42-.65.4.83.49.67.05 1.33.09 1.46.1.19.01.21-.02.13-.18Zm-1.76-1.6c.35-.11.76-.38 1.32-.86l.81-.7-1.52-.08c-.83-.05-2.15-.06-2.92-.02l-1.42.07-.07.53c-.06.53-.06.54.56 1.44l.63.91 1.05-.57c.58-.31 1.28-.64 1.56-.72Zm14.25 1.24c0-.03-.13-.32-.3-.64l-.29-.59-.63-.06c-.35-.03-1.95-.11-3.56-.17l-2.93-.11-.54.33c-.3.18-.67.43-.82.55l-.27.22 1.09.06c.61.03 2.5.13 4.2.21 1.71.09 3.17.17 3.25.19.25.06.8.06.8.01Zm11.57-.23c-.35-.39.47-1.81 1.05-1.82.21 0 .03.37-.34.71l-.43.39.42-.16c.66-.25.86-.15.44.22-.19.16-.48.41-.64.57-.36.32-.3.31-.5.09Zm-8.25-.54 1.03-.53-.7-.06c-1.47-.13-2.28-.11-2.21.07.04.09.11.36.17.6.15.6.4.58 1.71-.08Zm-21.93-.55c.01-.26-.03-.33-.18-.33-.51 0-.62-.43-.18-.71.22-.14.25-.19.09-.14-.13.04-.22.02-.22-.04s.12-.14.27-.17c.35-.09.13-.18-.7-.28-.69-.09-.68-.14-.07.75.28.4.58.98.68 1.28.18.59.28.48.31-.36Zm9.59-.05 1.23-.63 1.27.01c.7.01 2.24.05 3.42.08 1.43.04 2.1.03 1.99-.03-.2-.13-3.72-.47-6.22-.61l-1.88-.11-.52.44c-.29.24-.65.53-.82.64-.23.16-.3.29-.31.58-.01.5.23.45 1.84-.37Zm23.07.4c.23-.77 2.9-3.58 3.27-3.46.08.03-.11.29-.48.69-.51.54-1.44 1.58-2.41 2.71-.28.34-.47.37-.38.06ZM39.5 21.8c.45-.23.47-.28.24-.76l-.16-.34-.59.33c-.63.35-.67.41-.43.75.19.27.43.28.94.02Zm-4.98-.62c.33-.51.56-2.19.35-2.52-.34-.52-4.29-.89-6.63-.62l-.59.07-1.42 1.47c-1.63 1.68-1.68 1.98-.17.89 1.74-1.25 2.9-1.83 2.82-1.4-.03.19-1.72 1.39-2.58 1.83l-.55.29.55.02c.3.01 1.41.05 2.45.09 2.68.11 5.66.05 5.77-.12Zm7.18-1.38c0-.08.07-.24.15-.34.28-.38.15-.36-.37.03-.29.21-.77.53-1.05.71-.62.37-.59.29-.32.75l.22.37.68-.68c.38-.38.69-.75.69-.84Zm8.75.98c-.33-.22-1.23-.87-2-1.43-1.68-1.22-4.85-3.39-6.12-4.2-1.04-.66-1.18-.87-.48-.74.3.06 1.14.51 2.67 1.45 1.23.76 3.13 1.91 4.23 2.57s2.1 1.26 2.23 1.34c.19.12.22.22.22.78 0 .77.02.76-.75.23Zm-25.39-.35c.32-.38.94-1.05 1.38-1.5l.79-.83h-4.71l-1.27 1.35c-.71.75-1.26 1.37-1.24 1.39.04.03 2.86.21 3.95.24l.5.02zm13.58.11c.56-.32.57-.27-.03-1.18l-.48-.75-.07.46c-.11.86-.07 1.73.09 1.73.02 0 .23-.12.49-.26Zm-20.09-.4c.38-.31 1.15-.88 1.7-1.27s1.4-1 1.89-1.34c1.9-1.36 3.29-1.86 5.88-2.13.62-.07 1.2-.16 1.28-.2.14-.08 2.38-3.6 2.94-4.64l.27-.48-.28.06c-1 .25-8 3.66-12.23 5.96-1.35.73-3.8 2-5.45 2.82-1.65.81-2.91 1.48-2.8 1.49.11 0 1.35.06 2.75.13s2.73.14 2.95.14c.35.02.49-.06 1.1-.54Zm-8.9.32c1.94-.52 11.51-5.14 12.4-5.98.1-.09-.08-.02-3.15 1.29-3.48 1.49-10.3 4.65-10.3 4.78 0 .09.55.05 1.05-.09Zm30.73-.9c1.11-.74 1.7-1.4 1.47-1.66-.18-.2-.18-.2-.46.19-.27.35-.99.99-.99.87 0-.03.22-.31.5-.61.59-.65.61-.76.18-1.09-1.32-.99-2.17-.98-2.63.03l-.18.4.69 1.16c.38.63.7 1.15.72 1.15.01 0 .33-.2.7-.44Zm5.36-.25c1.06-.25.46-1-.84-1.04-.64-.02-.79.05-.6.28.07.08.1.25.06.4-.12.46.38.59 1.38.36Zm4.84-6.75c.04-.45-.03-.52-.73-.65-3.23-.63-3.25-.64-3.44-.47-.12.11-.48.19-1.05.24l-.88.07 2.44.62c1.84.47 2.58.62 3.03.6l.6-.02zm-4.7-2.32c.23-.03.42-.09.42-.15 0-.13-1.06-.1-1.72.05-.54.13-.58.13-.58-.04 0-.15.14-.19.93-.28l.92-.09-1.05-.03c-.78-.02-.97-.05-.75-.11s.15-.07-.28-.04c-.32.02-.64.08-.7.13a1 1 0 0 1-.32.15c-.12.03-.05.05.17.06.2 0 .4-.03.43-.09.08-.13.35-.13.35 0 0 .57.41.65 2.18.44Zm-6.74-.91c.04-.04.17-.08.29-.08.21 0 .22-.05.25-1.05.03-1.15.06-1.2.64-1.2.44 0 .47.04.4.53-.07.56-.73.53-.83-.03-.04-.21-.07.03-.08.62 0 .6.03.98.09.98s.1-.16.1-.35c0-.32.02-.35.31-.35.44 0 .69.17.69.45 0 .14.06.25.12.25.07.01.32.04.54.09l.42.08-.05-.39c-.05-.37-.05-.38.23-.37.18.01.22.03.11.06s-.16.1-.13.2c.03.08.06.24.06.35 0 .14.06.19.23.16.21-.03.22-.08.28-1.18l.05-1.15.02 1.13c.02 1.03.22 1.69.22.72v-.4h.4c.38 0 .4.02.4.3 0 .31.13.4.27.17.04-.08.18-.16.31-.19.12-.04.2-.02.16.03-.07.12 0 .11.5-.03.79-.22.8-.78.01-.78-.71 0-.83-.82-.12-.88.24-.02.37-.08.37-.18 0-.12-.94-.14-6.7-.14-6.37 0-6.7.01-6.7.18s.17.18 2.88.16c3.68-.01 3.32-.11 3.3.95l-.02.86-.03-.83c-.03-.72-.06-.83-.21-.8-.1.02-.17.12-.16.26l.01.22h-2.69c-2.61 0-2.68 0-2.68-.2 0-.13-.07-.2-.2-.2-.18 0-.2.07-.2.55v.55l2.98.01c1.63.01 2.85.04 2.7.06-.2.03-.28.11-.3.31l-.03.27h-4.9l.03-.27c.03-.24 0-.28-.22-.28-.24 0-.26.03-.26.45v.45h3.53c1.95 0 3.57-.03 3.61-.07ZM31.3 8.9v-.4h-1.1c-1.21 0-1.21 0-1.01-.7.06-.22.08-.2.15.2.08.47.24.36.25-.17.01-.31.21-.29.21.02 0 .16.06.25.15.25s.15-.09.15-.25c0-.14.04-.25.1-.25s.1.11.1.25.04.25.1.25.1-.11.1-.25c0-.34.18-.32.23.03.04.26.05.26.12.05.04-.12.16-.25.27-.29.5-.15.07-.29-1-.32L29 7.29V9.3h2.3zm-3.14-1.22c-.03-.57-.06-1.17-.06-1.33 0-.3-.01-.3-.4-.27l-.4.04v.74c0 .74.15.96.42.59.05-.06.08-.05.08.03 0 .07.04.1.1.07s.1-.01.1.04c0 .06-.04.11-.1.11s-.1.07-.1.16c0 .08.04.12.1.09s.1-.01.1.04c0 .06-.12.11-.27.1-.16 0-.22-.03-.15-.06.2-.08.14-.33-.08-.33-.33 0-.22.56.15.79.55.36.57.32.51-.81Zm-.72-2.78c.57 0 .76.08.76.31 0 .1.05.19.1.19.06 0 .1.18.1.4 0 .44.18.6.69.6.28 0 .31-.03.31-.3 0-.19.05-.3.14-.3.39 0 .16-.22-.82-.77-3.38-1.91-4.16-2.35-5.04-2.82l-.98-.53v1.77l1.09.63c1.19.68 1.21.68 1.21.48 0-.08.11-.17.25-.2.14-.04.25-.11.25-.16 0-.12.77-.33.91-.24.06.03.08.12.05.19-.03.08.04.17.15.2.21.07.23.44.19 2.62-.01.51.02.98.07 1.05.04.07.09-.59.11-1.49L27 4.9zM46.6 7.75c0-.09.1-.19.23-.24.34-.13.53-.97.26-1.12a.36.36 0 0 1-.19-.3c0-.5-1.03-.16-1.08.36-.01.17-.05.47-.08.68-.07.45.1.71.43.64.13-.02.23 0 .23.04 0 .05.05.09.1.09.06 0 .1-.07.1-.15Zm1.48-.14c.06-.01.12-.08.12-.16 0-.09.12-.2.28-.26.24-.09.25-.12.11-.22-.1-.08-.14-.19-.1-.3.06-.15.09-.16.17-.05.14.18.15.58.01.58-.07 0-.08.03-.01.1.22.22.47 0 .27-.23-.1-.11-.13-.18-.07-.14.22.13.52-.21.32-.37-.22-.16-.23-.32-.03-.4.18-.06.2-.36.03-.36-.19 0-1.48.54-1.48.63 0 .04.05.07.1.07.06 0 .1.05.1.1 0 .06-.07.1-.15.1-.17 0-.3.41-.22.7.03.1 0 .21-.07.24-.06.02.03.02.19.01.16-.02.36-.04.43-.04Zm-17.02-.66c.24-.12.25-.15.09-.15-.15 0-.17-.03-.07-.09.11-.07.11-.09-.01-.14-.1-.03-.13-.14-.1-.31.05-.23.02-.26-.21-.26-.19 0-.26.05-.26.2 0 .11-.04.2-.1.2s-.1-.09-.1-.2-.06-.2-.14-.2-.21-.03-.3-.06c-.14-.05-.16.03-.16.55v.61h.54c.29 0 .67-.07.82-.15ZM26.1 6.1c0-.53-.02-.6-.2-.6-.11 0-.2-.07-.2-.15s.06-.15.14-.15c.17 0 .26-.22.26-.66 0-.4.01-.4-.44-.13-.44.26-.56 1.41-.16 1.54.12.04.22.19.26.41.11.6.34.43.34-.26ZM24.4 6c0-.49-.01-.5-.3-.5-.28 0-.3-.03-.3-.35 0-.31-.03-.35-.25-.35s-.25.04-.25.34c0 .32-.03.35-.32.38l-.33.04.3.14c.17.08.32.17.35.21.04.05.96.54 1.08.58.01.01.02-.21.02-.49Zm14.24.14c.14-.05.16-.34.17-2.13 0-1.13.04-2.27.08-2.53.09-.54.16-.49-.97-.73-.85-.17-1.58-.2-1.67-.05-.04.06-.03.1.02.09.26-.04.24.04-.04.16l-.33.14v1.66l1.05.53c.58.29 1.05.57 1.05.63 0 .13-.09.11-.38-.1-.15-.1-.6-.35-1-.55l-.72-.36v.85c0 .85.31 1.34.7 1.1.06-.04.13.01.16.09.03.09.46.37.95.63.49.25.86.49.83.52s-.63-.25-1.35-.61l-1.29-.67V6.2h1.29c.71 0 1.36-.03 1.45-.06Zm-13.66-.81c.04-.36-.12-.48-1.55-1.26l-.73-.39v.76c0 .61.03.76.15.76.1 0 .15-.1.15-.29 0-.33.31-.47.81-.36.24.05.29.12.29.36s.04.29.25.29c.2 0 .25.05.25.26 0 .39.34.28.38-.13Zm-2.48-.85c0-.93 0-.93-.3-1.1l-.3-.17v.99c0 .84.03 1.01.18 1.09.38.23.42.15.42-.81Zm-.84.11a7 7 0 0 1-.06-.9V3.1h-1.52c-.83 0-1.48.03-1.44.08.12.11 2.9 1.71 3 1.72.05 0 .06-.14.02-.31Zm21.76-.36c.62-.23.85-.43.73-.63-.08-.13-1.25.43-1.25.59 0 .08-.03.11-.07.08-.03-.04-.12-.02-.2.04-.1.09-.13.07-.13-.08 0-.14.21-.3.78-.59.47-.24.78-.46.8-.57.03-.16-.1-.11-.8.25l-.83.43-.03.44c-.03.39-.01.43.15.36.1-.04.48-.18.85-.32Z"/></svg>