<svg xmlns="http://www.w3.org/2000/svg" width="51" height="51" viewBox="0 0 51 51"><path fill="#fff" fill-rule="evenodd" stroke="#fff" stroke-width=".714" d="M15.84 48.55c-.12-.31.07-.35 1.54-.35 1.51 0 1.79.06 1.69.34-.09.23-3.14.24-3.23.01Zm-.22-.63c-.08-.05-.12-.18-.1-.28.05-.27 5.27-.35 5.48-.09.09.11.1.19.03.26-.14.14-5.23.24-5.41.11Zm5.17-.28c.02-.02-1.11-.04-2.53-.04-1.44 0-2.55.04-2.52.09.05.08 4.97.04 5.05-.05Zm-5.78-.63c-.21-.39-.01-.41 3.75-.39 3.42.03 3.59.04 3.62.22.07.33-.18.36-3.75.36-3.36 0-3.53-.01-3.62-.19Zm6.34-.11c-.23-.1-5.07-.1-5.75 0-.25.04.99.07 2.75.08 1.9 0 3.12-.03 3-.08Zm-6.62-.66c-.11-.3.17-.32 4.67-.36 4.38-.03 4.55-.02 4.58.16.02.1-.02.22-.1.27-.27.18-9.08.11-9.15-.07Zm8.74-.12c.1-.06-5.91-.06-7.82.01-.44.02 1.11.04 3.45.05s4.3-.02 4.37-.06Zm-8.37-.76c0-.36.05-.36 5.23-.39 4.99-.02 5.01-.02 4.76.45-.11.2-2.39.28-2.39.08 0-.14.33-.2 1.4-.23.52-.02-1.19-.04-3.8-.05-2.93-.01-4.81.02-4.9.08-.11.07.04.1.48.1.4 0 .61.04.57.1-.03.06-.35.1-.71.1-.61 0-.64-.01-.64-.24Zm.28-.81c-.03-.14-.03-.27.01-.29.24-.14 9.81-.1 9.81.04 0 .07-1.68.1-4.85.1-3.44 0-4.85.03-4.85.11s.29.09.95.04c.62-.05.95-.04.95.03 0 .15-.37.22-1.21.22-.74 0-.77-.01-.81-.25Zm12.77.06c-.09-.16.04-.18 1.33-.26.8-.04 1.22-.03 1.22.03 0 .16-2.45.38-2.55.23Zm-12.28-.68c-.27-.26-.05-.41.66-.48 1.27-.11 7-.02 7.04.12.03.09-.28.1-1.24.07-.7-.03-2.43-.01-3.83.04l-2.55.09 3.38.01c2.17.01 3.37.06 3.37.12 0 .11-6.72.15-6.83.03Zm-8.07-.72c0-.17 2.26-.41 3.91-.41 1.07 0 .32.19-1.16.29-.82.06-1.78.14-2.12.17-.43.04-.63.03-.63-.05Zm4.84-.51c-.34-.14-.63-.58-.69-1.08-.12-.95.04-.85-1.72-1.05-2.89-.33-9.35-.97-9.74-.97-.35 0-.59-.14-.46-.27.03-.03 1.67.11 3.63.31 1.97.19 3.6.34 3.62.32s-.2-.39-.48-.82c-2.1-3.2-3.22-7.21-3.24-11.6l-.01-2.01-.62-.33c-1.23-.63-1.74-1.55-1.8-3.25-.02-.55 0-1.06.05-1.14.15-.21.32-.03.32.35 0 .33.12.45.25.24.11-.18.25 0 .25.31 0 .17.04.28.09.25s.22.22.39.57c.17.34.52.86.79 1.16l.47.54.23-1.09C5.59 15.58 10.51 9.73 17.6 6.95c4.28-1.67 9.7-1.9 14.2-.6a22.05 22.05 0 0 1 15.87 21.94c-.13 3.94-1.32 7.92-3.21 10.73-.46.69-.46.78.05.78.26 0 .35.26.17.48-.37.43-.35.45.33.39.54-.06 4.02-.3 5.58-.39.26-.02.46.02.48.08q.045.12-.84.18c-6.8.48-6.05.35-6.59 1.09-.24.34-.44.67-.44.73 0 .46.7.44-15.33.43-8.26 0-15.12-.04-15.23-.09Zm30.38-.54c.09-.18.46-.72.82-1.2.43-.55.62-.88.54-.91-.07-.02-.58-.13-1.13-.24s-2.17-.45-3.6-.75c-1.43-.31-4.13-.87-6-1.26s-5.69-1.2-8.5-1.8c-6.74-1.45-14.09-2.99-14.13-2.95-.02.02.87 6.45 1.17 8.43.17 1.15-1.74 1.02 15.56 1.02h15.11zm-31.27-2.08c-.03-.24-.28-1.96-.55-3.82s-.47-3.42-.45-3.46c.03-.04.89.1 1.92.32 1.04.21 3.28.68 4.98 1.03 1.71.35 5.09 1.07 7.53 1.59 2.44.53 5.95 1.28 7.8 1.67 6.07 1.26 8.96 1.87 9.85 2.07l.88.2.3-.41c2.31-3.19 3.64-8.31 3.38-12.97-.62-10.96-9.22-19.69-20.2-20.5A21.755 21.755 0 0 0 4.1 23.78l-.11.64.53.56c.3.32.66.74.82.94.27.36.28.36.84.31 1.86-.16 3.11-.59 4.3-1.47.34-.25.64-.46.67-.46.11 0 .04.37-.11.58-.15.22-.15.23.1.16.32-.08.32-.04.04.49-.12.23-.21.5-.19.59.05.37-1.24.81-3.04 1.04-.66.09-1.22.17-1.24.19-.12.13 1.09.85 1.43.85.28 0 .28.22 0 .51-.34.36-.72.38-1.11.05-.19-.16-.47-.25-.88-.3-1.03-.12-1.32-.24-1.85-.76l-.5-.49v.95c0 3.49 1.19 7.59 3.1 10.67.81 1.32.56 1.18 2.63 1.43 2.54.3 2.29.32 2.22-.18Zm24.86-2.07c-.11-.07-.13-.26-.08-.83.03-.4.22-2.66.41-5.03.35-4.16.54-6.45.96-11.7.11-1.38.27-3.3.35-4.29.09-.98.14-1.8.12-1.83-.15-.15-1.64 5.53-2.06 7.87-.92 5.05-.95 11.2-.06 14.14.3.98.15.99-1.08.09-2.88-2.11-6.51-3.81-9.3-4.34-3-.57-5.33-.05-7.45 1.69-.23.19-.44.33-.47.31-.02-.03.09-.71.25-1.52 2.17-11.03 8.82-17.68 19.23-19.22 1.15-.17 1.17-.18 1.17-.56 0-.22.05-.29.2-.29.25 0 .31-1.17-.5 9.95-.17 2.26-.46 6.51-.65 9.45-.42 6.42-.39 6.2-.68 6.2-.12 0-.28-.04-.36-.09Zm-.7-2.07c-1.03-4.1-.73-10.48.8-16.82.32-1.31 1.45-5.15 1.6-5.44.13-.24-.02-.23-1.55.03-9.71 1.64-16.15 8.19-18.26 18.57-.27 1.31-.25 1.36.32.87 3.29-2.82 10.1-1.59 16.32 2.95.5.37.92.66.94.65.02-.02-.06-.38-.17-.81Zm-28.03-7.3c.23-.16.22-.16-.47-.49s-1.13-.77-.95-.95c.05-.05.63-.17 1.29-.25 1.94-.26 2.97-.59 2.88-.93-.02-.1.05-.26.16-.36.26-.24.27-.36.01-.29-.23.06-.25 0-.1-.28.14-.25.05-.24-.33.05-.83.62-1.87 1.01-3.19 1.21-1.56.24-1.58.23-2.09-.37-.24-.29-.83-.94-1.32-1.44-.96-1-1.08-1.14-1.49-1.88-.15-.28-.28-.45-.28-.38 0 .06-.04.12-.1.12s-.1-.17-.1-.37c0-.29-.03-.34-.12-.25-.17.17-.26.15-.32-.05-.03-.1-.04.12-.01.48.09 1.41.61 2.22 1.89 2.92 1.13.62 1.49 1.17.75 1.17-.34 0-.34 0-.1.48.45.87 1.11 1.31 2.14 1.42.49.06.79.15 1.05.34.43.3.5.31.8.1ZM47.56 16.8c-.2-.21-.16-.25.28-.32.16-.02.12-.08-.21-.3-.54-.36-.97-1.28-.59-1.28.21 0 1.58.59 1.77.76.2.18.48-.2.78-1.07.19-.59.35-.72.45-.37.12.46.06 1.13-.14 1.45-.17.28-.17.34-.05.41.35.19-.08.44-.88.52-.49.05-.84.13-.96.24-.21.19-.21.19-.45-.04Zm1.92-.69c.02-.13.12-.37.23-.55.11-.17.19-.48.18-.71v-.4l-.17.4c-.59 1.35-.61 1.38-.97 1.05-.21-.2-1.65-.84-1.65-.73 0 .35.76 1.03 1.15 1.03.08 0 .15.05.15.11 0 .24 1.05.06 1.08-.2ZM38.4 6.03c-.08-.03-.57-.2-1.08-.39-.95-.35-2.22-.48-2.37-.24-.03.06.01.1.09.1.09 0 .16.05.16.1 0 .28-1.22-.04-1.61-.42-.34-.34-.37-.58-.09-.65.48-.13.12-.69-1-1.53-1.04-.8-.95-1.07.15-.45.79.44 1.31 1.01 1.46 1.61l.12.46.66-.08c1.13-.14 1.23-.12 2.19.49.49.32 1.06.64 1.26.72.2.09.34.2.31.25-.03.06-.07.1-.08.09-.01 0-.09-.03-.17-.06Zm-3.74-.78c.22-.21 1.59-.24 2.11-.04.36.14.27.03-.24-.26-.43-.26-.51-.27-1.17-.21-1.33.13-1.31.13-1.34-.11-.03-.22-.04-.22-.23-.04-.25.23-.17.45.24.65.4.19.45.2.63.01Z"/></svg>