<svg xmlns="http://www.w3.org/2000/svg" width="51" height="51" viewBox="0 0 51 51"><path fill="#fff" fill-rule="evenodd" stroke="#fff" stroke-width=".473" d="M13.61 44.89c-1.05-.18-1.83-.77-2.39-1.82l-.27-.52v-34l.27-.51c.15-.28.49-.71.76-.95.93-.84.35-.79 10.1-.79h8.63l3.77 3.68c2.07 2.02 4.12 4.01 4.54 4.41s.89.91 1.05 1.14l.28.4v26.62l-.28.57c-.34.68-1.08 1.39-1.75 1.65-.53.2-23.54.32-24.71.12Zm24.63-.45c.61-.21 1.29-.87 1.56-1.5.2-.45.2-.77.2-13.05V17.3l-.62-.01c-.35-.01-2.36-.04-4.48-.08-4.22-.07-4.13-.05-4.77-.7-.69-.68-.68-.59-.71-5.48l-.03-4.43H13.45l-.5.24c-.7.32-1.12.7-1.41 1.28l-.25.49v16.92c0 18.92-.07 17.27.73 18.14.23.24.6.54.83.66l.4.22 11.2.06c12.76.06 13.11.06 13.79-.17Zm-21.66-4.61c-.22-.05-.31-.7-.21-1.38l.08-.5h8.1l.03.85c.02.71 0 .87-.14.97-.17.13-7.41.18-7.86.06Zm7.72-.98v-.65h-7.6v1.3h7.6zm-7.69-2.59c-.08-.09-.11-.45-.09-.98l.03-.83h13l.03.83c.02.53-.01.89-.09.98-.1.12-1.13.14-6.44.14s-6.34-.02-6.44-.14Zm12.69-.86v-.7H16.8v1.4h12.5zm-12.76-2.83c-.03-.08-.04-.49-.02-.93l.03-.79h16.6v1.8l-8.28.03c-6.85.02-8.28 0-8.33-.11Zm16.36-.82v-.65H16.8v1.3h16.1zm-16.38-4.27c-.15-.15-.17-6.65-.03-6.87.15-.23 2.89-.21 3.57.02 1 .34 1.54 1.11 1.54 2.17 0 1.46-.96 2.36-2.62 2.48l-.78.05v.98c0 1.21-.06 1.29-.94 1.29-.35 0-.67-.05-.74-.12Zm6.2-.01c-.09-.11-.12-.99-.1-3.53l.03-3.39.85-.09c2.95-.31 4.64.95 4.65 3.44 0 1.65-.55 2.67-1.79 3.3-.68.34-.71.35-2.1.38-1.15.03-1.44.01-1.54-.11Zm6.61.06c-.18-.07-.19-6.83-.01-7.01.15-.15 3.64-.17 4.02-.02.24.09.26.14.26.74 0 .83-.05.86-1.49.86H31v1.19l1.08.03 1.07.03v1.5l-1.07.03-1.06.03-.04 1.25c-.02.97-.06 1.27-.18 1.34-.15.1-1.25.12-1.47.03Zm-11.52-.91c.01-.37.02-.71.04-.77.01-.05.03-.27.03-.47l.02-.38h.63c1.84-.01 2.85-.87 2.75-2.35-.09-1.38-.76-1.79-2.99-1.83l-1.56-.03-.02 3.16c-.01 1.73.01 3.2.04 3.25.03.06.28.1.56.1h.49zm8.29.37c2.5-1.17 2.32-5.36-.25-6.08-.22-.06-.97-.11-1.67-.11H22.9v6.52l1.33-.04c1.17-.03 1.38-.06 1.87-.29Zm4.52-1.01.03-1.33 1.13-.03 1.12-.03v-.99h-2.21l.03-.92.03-.93L32 21.7l1.25-.05.03-.42.03-.43H29.5v6.5h1.09zm-6.48.19c-.02-.07-.03-1.09-.02-2.27l.03-2.15.62.01c2.25.03 2.64 3.83.46 4.43-.52.15-1.03.14-1.09-.02Zm1.41-.46c.89-.52 1.08-2.31.33-3.17-.29-.32-.78-.54-1.26-.54h-.22v4.03l.42-.07c.24-.04.56-.15.73-.25Zm-7.6-1.83c-.03-.08-.04-.59-.03-1.14l.03-.99.52-.03c1.5-.09 2.25.92 1.39 1.85-.33.36-.37.38-1.1.41-.59.03-.77.01-.81-.1Zm1.72-.52c.61-.71.07-1.35-1.14-1.36h-.33v1.72l.62-.04c.51-.04.65-.09.85-.32ZM40 16.4c0-.41-.05-.56-.29-.82l-.29-.33-3.84-.05-3.83-.05-.05-3.79-.05-3.79-.54-.48c-.48-.43-.6-.49-.98-.49h-.43v4.21c0 4.56.02 4.72.53 5.35.61.74.59.74 5.45.74H40zm-1-1.53c0-.01-1.57-1.57-3.5-3.46L32 7.98v6.92h3.5c1.93 0 3.5-.01 3.5-.03Z"/></svg>