<svg xmlns="http://www.w3.org/2000/svg" width="51" height="51" viewBox="0 0 51 51"><path fill="#fff" fill-rule="evenodd" stroke="#fff" stroke-width=".762" d="M24.05 46.2C10.58 45.11 1.86 31.99 6 19.05c2.42-7.53 9.26-13.07 17.22-13.94C38.57 3.43 50.1 17.94 45.03 32.54 42 41.26 33.27 46.94 24.05 46.2Zm4.95-.44c10.14-1.91 17-10.1 17-20.31C46 12.47 34.02 2.91 21.2 5.66 11.05 7.84 4.21 17.31 5.29 27.71c.98 9.41 8.23 16.88 17.6 18.14 1.4.19 4.92.14 6.11-.09ZM16.26 34.92c-.03-.05-.16-1.86-.3-4.03-.15-2.17-.33-4.82-.41-5.89-.39-5.08-.55-7.84-.46-7.93.21-.21 1.84 1.19 2.68 2.3 3.49 4.64 3.15 11.97-.7 15.12-.64.52-.72.57-.81.43Zm2.37-.09c-.11-.29 1.21-1.82 2.25-2.6 4.47-3.37 11.11-3.33 14.55.08 1.07 1.07 1.19 1.35.65 1.43-.32.05-6.2.46-12.48.87-1.68.11-3.47.23-3.99.27-.71.06-.94.05-.98-.05Zm-1.4-.78c4.07-3.94 3.52-12.16-1.07-16.06-.39-.32-.74-.59-.78-.59-.12 0-.1.55.12 3.65.32 4.45.9 13.07.9 13.38 0 .35.15.28.83-.38Zm5.27.4c13.27-.88 13.6-.91 13.6-1.07 0-.2-1.65-1.73-2.22-2.07-3.44-2.01-8.65-1.71-12.34.72-.74.49-2.11 1.8-2.46 2.36l-.21.32.74-.06c.41-.03 1.71-.12 2.89-.2Zm-.14-7.07c-.03-.29-.11-1.32-.16-2.28-.06-.96-.22-3.19-.35-4.95-.5-6.42-.74-10.1-.64-10.19.27-.28 2.41 1.76 3.23 3.07 2.4 3.85 2.57 9.13.4 12.5-.48.75-2.04 2.37-2.29 2.37-.09 0-.15-.17-.19-.52Zm2.44.34c0-.1.29-.54.65-.99 3.91-4.95 13.03-5.47 16.7-.97.65.81.61.88-.6.95-2.65.17-4.71.32-6.95.49-1.35.11-3.89.28-5.65.39-1.76.12-3.41.23-3.67.25-.41.04-.48.02-.48-.12Zm-1.05-1.15c1.63-1.79 2.35-3.87 2.35-6.76 0-3.79-1.67-7.45-4.24-9.29l-.46-.33v.33c0 .42.32 4.99.65 9.23.14 1.76.29 3.97.35 4.9.05.94.12 1.98.16 2.33l.06.62.28-.2c.16-.11.54-.48.85-.83Zm4.83.83c1.69-.11 3.63-.25 4.32-.31.69-.05 3.06-.23 5.28-.38 2.21-.15 4.05-.31 4.09-.34.11-.11-.85-1.14-1.56-1.66-4.17-3.1-11.69-2.07-15 2.04-.64.8-.66.85-.41.85.11 0 1.59-.09 3.28-.2Z"/></svg>