<svg xmlns="http://www.w3.org/2000/svg" width="51" height="51" viewBox="0 0 51 51"><path fill="#fff" fill-rule="evenodd" stroke="#fff" stroke-width=".462" d="M9.72 32.2c-3.36-.89-5.57-4.4-4.88-7.75 1.09-5.28 7.44-7.23 11.28-3.45.87.85 1.68 2.18 1.55 2.52-.05.13-2.5 1.08-2.77 1.08-.09 0-.24-.16-.35-.37-1.09-2.01-3.99-2.46-5.58-.86-.69.68-.92 1.24-.92 2.28 0 2.01 1.22 3.3 3.33 3.5.53.06.73.12.76.24.12.39.36 1.91.38 2.41l.03.55-1.05.02c-.77.02-1.24-.03-1.78-.17Zm2.54-.13c.07-.07-.2-2.21-.32-2.51-.03-.09-.3-.15-.78-.19C9 29.21 7.41 27.2 7.8 25.12c.62-3.36 4.88-4.11 6.84-1.21l.31.47 1.23-.46c1.41-.53 1.38-.48.79-1.52-1.99-3.54-7.1-4.15-10.08-1.2-3.34 3.31-2.15 8.76 2.29 10.56.95.38 2.82.57 3.08.31Zm10.24-.39c-1.39-.95-.92-3.02.73-3.16.54-.04.99.1 1.4.46.17.15.16.17-.08.42l-.26.27-.37-.19c-.68-.34-1.42.06-1.42.76 0 .69.89 1.12 1.48.71.24-.18.72.03.72.3 0 .55-1.58.85-2.2.43Zm2.67.16c-.04-.04-.07-.81-.07-1.71v-1.64l.43.03.42.03.03.63.03.62h1.08l.03-.62.03-.63h.8l.03 1.68.02 1.67h-.9v-1.3h-1.09l-.03.63-.03.62-.35.03c-.2.02-.39 0-.43-.04Zm3.1 0c-.09-.1 1.06-2.87 1.35-3.21.16-.19.67-.16.75.05.03.09.37.82.74 1.61.75 1.57.76 1.61.19 1.61-.35 0-.39-.03-.5-.35l-.12-.35h-.67c-.67 0-.67 0-.84.35-.16.34-.68.5-.9.29ZM32 30.25V28.6l.24-.06c.35-.08.47.01 1.2.94l.66.84v-.75c0-1 .04-1.07.51-1.07H35l-.02 1.68-.03 1.67-.32.03c-.29.03-.37-.04-1-.82-.44-.56-.69-.8-.7-.68-.01.09-.05.47-.08.85l-.07.67H32zm3.5-.05v-1.7h.3c.35 0 .58.22 1.29 1.2l.46.65.05-.9.05-.9.37-.03.38-.03v3.41h-.33c-.29 0-.39-.09-1.02-.92l-.7-.91-.03.91-.03.92h-.79zm3.52.03.03-1.68 1-.03c1.37-.04 1.47-.01 1.43.46l-.03.37-.77.03c-.7.03-.78.05-.78.22 0 .18.07.2.7.2.66 0 .7.01.76.25.11.45 0 .54-.73.57-.61.03-.68.05-.71.25-.03.21.01.22.75.25l.78.03.03.38.03.37H39zm2.92 1.54c-.02-.07-.03-.82-.02-1.67l.03-1.55h.8l.03 1.27.03 1.27.72.03.72.03.03.38.03.37h-1.16c-.85 0-1.17-.03-1.21-.13Zm-17.78-.32c.36-.23.2-.36-.23-.18-1.11.46-2.04-.56-1.5-1.65.23-.48 1-.66 1.57-.37.29.15.48.06.35-.16-.42-.67-1.98-.29-2.31.56-.51 1.35.93 2.58 2.12 1.8Zm3.54-1.2c0-1.2-.02-1.45-.15-1.45-.1 0-.15.16-.17.63l-.03.62-.82.03-.83.03v-.66c0-.51-.03-.65-.15-.65-.13 0-.15.22-.15 1.4s.02 1.4.15 1.4c.12 0 .15-.13.15-.6v-.6h1.7v.65c0 .51.03.65.15.65.13 0 .15-.23.15-1.45Zm13.58 1.28c.03-.1-.18-.13-.82-.13h-.86v-1h.75c.6 0 .75-.03.75-.15s-.15-.15-.75-.15h-.75v-1h.8c.64 0 .8-.03.8-.15s-.18-.15-1-.15h-1v2.79l.48.04c.86.07 1.55.03 1.6-.1Zm2.8 0c.03-.1-.17-.13-.77-.13h-.81v-1.3c0-1.09-.02-1.3-.15-1.3s-.15.23-.15 1.45v1.46l.92-.03c.62-.02.93-.07.96-.15ZM29 31.3c.1-.24.18-.3.44-.3.17 0 .54-.03.83-.06l.52-.07.15.37c.1.23.22.36.34.36.16 0 .1-.18-.45-1.31-.34-.72-.63-1.35-.63-1.41 0-.05-.1-.08-.22-.06-.3.04-1.57 2.78-1.28 2.78.1 0 .23-.12.3-.3Zm3.6-.75c0-.58.04-1.05.08-1.05s.36.37.7.83c1.31 1.74 1.32 1.74 1.32-.13 0-1.18-.02-1.4-.15-1.4-.12 0-.15.18-.15 1.05 0 .58-.04 1.05-.09 1.05s-.46-.47-.91-1.05c-1.08-1.4-1.1-1.39-1.1.35 0 1.18.02 1.4.15 1.4.12 0 .15-.18.15-1.05Zm3.5 0c0-.9.09-1.31.22-.95.1.29 1.56 2 1.7 2 .16 0 .18-.13.18-1.4 0-1.18-.02-1.4-.15-1.4-.12 0-.15.18-.15 1.06 0 1.3 0 1.3-1.03-.04-1.1-1.44-1.17-1.42-1.17.38 0 1.33.01 1.4.2 1.4s.2-.07.2-1.05Zm-6.8.11c0-.1.6-1.36.64-1.36.07 0 .66 1.16.66 1.3 0 .06-.27.1-.65.1-.36 0-.65-.02-.65-.04Zm.84-.58-.16-.32-.14.25c-.19.35-.17.39.16.39h.31zm-7.49-2.64c-1.54-.8-1.22-3.06.46-3.22.67-.06 1.1.04 1.43.34l.28.27-.26.26c-.25.25-.26.25-.55.08-.45-.26-.88-.22-1.22.12-.79.79.27 1.99 1.15 1.3.26-.2.36-.19.68.09.59.5-1.17 1.18-1.97.76Zm2.5.04c-.03-.08-.04-.83-.03-1.68l.03-1.55h2.07l.29.33c.41.45.41 1.09.01 1.49l-.29.28.35.52c.38.58.36.73-.13.73-.31 0-.39-.06-.71-.54-.52-.8-.82-.82-.86-.07-.03.55-.03.56-.36.59-.2.02-.34-.02-.37-.1Zm3.12.06c-.09-.09-.09-2.25-.01-2.88.07-.47.07-.47.43-.44l.36.03v3.3l-.35.03c-.2.02-.39 0-.43-.04Zm7.17-.07c-.02-.07-.03-.82-.02-1.67l.03-1.55.88-.03c1.65-.05 2.37.85 1.5 1.88l-.24.29.35.47c.46.59.45.64-.06.64-.39-.01-.46-.05-.81-.5-.47-.62-.77-.67-.77-.14 0 .52-.15.74-.51.74-.16 0-.32-.06-.35-.13Zm3.18-1.54.03-1.68h.7l.06.6c.09.8.11 2.39.03 2.59-.04.11-.19.16-.45.16h-.39zm2.23 1.48c-.76-.34-1.16-1.07-1-1.83.31-1.46 2.04-1.91 2.99-.78 1.16 1.39-.34 3.36-1.99 2.61Zm2.77.1c-.09-.06-.12-.47-.1-1.67l.03-1.59.28-.03c.36-.04.45.04 1.17 1.01l.59.79.03-.89.03-.88.38-.03.37-.03v1.65c0 1.05-.04 1.67-.11 1.71-.27.17-.61-.09-1.26-.96l-.68-.91-.03.91c-.01.5-.06.91-.1.92-.04 0-.16.02-.27.04s-.26.01-.33-.04ZM30.4 26.26v-1.25l-.47-.03c-.48-.03-.48-.03-.48-.38v-.35h2.7l.03.37.03.38h-.9l-.03 1.23-.03 1.22-.42.03-.43.03zm2.12-.38.03-1.63h2.4l.03.37.03.37-.83.03c-.77.03-.83.05-.86.26s0 .22.72.22h.76v.34c0 .35-.29.46-1.21.46-.24 0-.29.04-.29.25 0 .25.01.25.85.25H35v.7h-2.5zm-8.34 1.24c.19-.13.33-.49.15-.4-.68.35-.88.4-1.24.29-1.33-.4-1-2.28.39-2.25.23.01.48.06.54.12.17.17.38.15.38-.04 0-.45-1.33-.55-1.92-.13-1.49 1.06.16 3.4 1.7 2.41Zm1.44-.34.03-.53.41-.03c.39-.03.42-.01.77.53.54.8.89.8.38-.01l-.3-.46.35-.33c.81-.77.26-1.45-1.16-1.45h-.8v1.4c0 1.16.03 1.4.14 1.4s.16-.15.18-.52Zm3.21-.16c.14-1.41.09-2.12-.13-2.12-.19 0-.2.07-.2 1.4 0 1.11.03 1.4.14 1.4.09 0 .15-.21.19-.68Zm2.19-.59.03-1.27h.44c.26-.01.46-.06.48-.14.04-.09-.23-.12-1.11-.12-.96 0-1.16.03-1.16.15 0 .11.12.15.5.15h.5v1.25c0 1.03.03 1.25.15 1.25s.15-.23.17-1.27Zm3.76 1.15c-.03-.09-.32-.14-.86-.16l-.82-.03V26h.7c.56 0 .7-.03.7-.15s-.14-.15-.7-.15h-.7v-.9h.79c.61 0 .8-.03.85-.15.05-.13-.1-.15-.99-.15H32.7v2.8h1.06c.8 0 1.05-.03 1.02-.12Zm1.24-.4.03-.53.37-.03c.34-.03.39.01.78.52.24.31.49.56.56.56.2 0 .18-.06-.21-.57l-.34-.45.34-.33c.8-.75.33-1.45-.98-1.45h-.84l-.07.61c-.13 1.32-.08 2.19.13 2.19.17 0 .2-.08.23-.52Zm3.18-.88c0-1.18-.02-1.4-.15-1.4s-.15.22-.15 1.4.02 1.4.15 1.4.15-.22.15-1.4Zm3.3 1.05c.81-.78.53-2.15-.5-2.46-1.63-.49-2.65 1.67-1.24 2.63.45.3 1.34.21 1.74-.17Zm1.6-.77c0-1.31-.07-1.32 1.05.14 1.01 1.33 1.05 1.32 1.05-.41 0-1.19-.02-1.41-.15-1.41-.12 0-.15.18-.15 1.05 0 .6-.04 1.05-.1 1.05-.05 0-.35-.35-.66-.77-1.28-1.75-1.34-1.75-1.34.07 0 1.18.02 1.4.15 1.4.12 0 .15-.19.15-1.12Zm-2.95.78c-.89-.39-.98-1.6-.16-2.09 1.03-.6 2.23.75 1.49 1.68-.37.47-.85.62-1.33.41Zm.84-.31c.48-.24.59-1.05.19-1.42-.59-.55-1.48-.15-1.48.65 0 .74.63 1.12 1.29.77Zm-16.29-1.3v-.55h.6c.47 0 .64.04.8.2.46.46.08.9-.8.9h-.6zm10.3 0v-.55h.63c.49 0 .68.04.8.18.43.48.03.92-.83.92H36zm-9.06.13c.16-.26-.05-.41-.56-.42-.44-.01-.58.15-.44.5.08.21.85.15 1-.08Zm10.1.12c.54-.2.28-.6-.4-.6-.32 0-.34.02-.34.35 0 .39.21.46.74.25Zm-14.47-2.46c-.04-.04-.07-.61-.07-1.26V20.7h-.38c-.43 0-.62-.14-.62-.46 0-.39.2-.45 1.56-.42l1.29.03v.8l-.47.03-.47.03-.03 1.22-.03 1.22-.35.03c-.2.02-.39 0-.43-.04Zm2.09-.1c-.14-.35-.07-3.01.08-3.13.4-.34.71-.1.74.57l.03.62h.54c.6 0 .62-.02.67-.85.03-.39.04-.4.38-.4h.35v3.3h-.8l-.03-.62-.03-.63H25.5v1.3h-.39c-.26 0-.41-.05-.45-.16Zm3.25.02c-.08-.09-.11-.61-.09-1.67l.03-1.54h2.5l.03.38c.03.37.03.37-.36.37-.82 0-1.32.12-1.32.31 0 .16.1.19.73.21l.72.03.03.38.03.37h-.75c-.74 0-.76.01-.76.25 0 .25.01.25.86.25h.85l-.03.38-.03.37-1.16.03c-.9.02-1.19-.01-1.28-.12Zm-4.79-1.38.03-1.23.47-.03c.34-.02.48-.07.48-.18s-.21-.14-1.15-.14-1.15.03-1.15.14.14.16.48.18l.47.03.03 1.23c.02.98.05 1.22.17 1.22s.15-.24.17-1.22Zm2.18.62v-.6h1.6v.6c0 .47.03.6.15.6.13 0 .15-.22.15-1.4s-.02-1.4-.15-1.4c-.12 0-.15.14-.15.65v.65h-1.6v-.65c0-.58-.02-.65-.2-.65-.19 0-.2.07-.2 1.4s.01 1.4.2 1.4c.18 0 .2-.07.2-.6Zm4.8.44c0-.15-.1-.16-.8-.1l-.8.07V21.7h.75c.6 0 .75-.03.75-.15s-.15-.15-.74-.15h-.73l-.06-.42c-.08-.57-.07-.58.84-.58.64 0 .79-.03.79-.15s-.18-.15-1-.15h-1v2.8h1c.86 0 1-.02 1-.16Z"/></svg>