<svg xmlns="http://www.w3.org/2000/svg" width="51" height="51" viewBox="0 0 51 51"><path fill="#fff" fill-rule="evenodd" stroke="#fff" stroke-width=".755" d="M5.84 50.82C2.79 49.77.39 47.07.04 44.28c-.09-.76.09-.5.31.42.71 3.02 2.9 5.17 6.27 6.14.43.12.81.25.84.29.19.19-.63.03-1.62-.31Zm5.29.31c1.19-.02 3.15-.02 4.35 0 1.19.01.21.02-2.18.02s-3.37-.01-2.17-.02Zm18 0c1.7-.02 4.44-.02 6.1 0 1.66.01.28.02-3.08.02-3.35 0-4.71-.01-3.02-.02Zm14.73-.01c.05-.05.38-.16.74-.26 3.48-.93 5.65-3.21 6.43-6.76l.15-.65.01.45c.05 2.14-1.98 5.07-4.39 6.33-1.16.61-3.4 1.28-2.94.89Zm-26.31-8.68c-.94-.34-1.9-1.37-2.2-2.37-.42-1.4.05-3.98 1.05-5.84 4.09-7.58 14.83-7.33 18.55.44.99 2.05 1.23 4.6.57 5.95-.39.81-1.11 1.49-1.88 1.77-.72.27-15.35.32-16.09.05Zm16.2-.34c3.54-1.73 1.95-8.55-2.69-11.58-2.91-1.9-6.82-2.14-9.89-.61-3.12 1.55-5.23 4.47-5.68 7.85-.31 2.35.45 3.84 2.29 4.5.3.11 1.89.13 7.92.11l7.55-.02zM23.9 26.97c-3.83-1.3-4.82-6.08-1.85-8.85 3.28-3.08 8.75-.68 8.75 3.83 0 3.57-3.56 6.16-6.9 5.02Zm2.85-.12c3.87-1.01 5.15-5.77 2.28-8.45-2.07-1.94-5.05-1.91-7.02.07-3.55 3.6-.13 9.65 4.74 8.38Zm-2.21-2.21c-2.29-.84-2.36-4.27-.11-5.24 2.82-1.22 5.25 2.33 3.11 4.54-.74.76-2.03 1.06-3 .7Zm2.11-.33c1.25-.55 1.82-2.18 1.21-3.46-1.16-2.47-4.85-1.62-4.86 1.12 0 1.95 1.85 3.14 3.65 2.34Zm5.33-2.38c-.19-.05-.27-2.03-.1-2.31.07-.09.82-.12 3.43-.1l3.34.03v2.4l-3.25.01c-1.79.01-3.33 0-3.42-.03Zm6.42-1.18v-.95h-6.3v1.9h6.3zm-8.13-4.23c-.42-.42-.77-.84-.77-.92 0-.21 5.81-6 6.02-6 .2 0 1.6 1.48 1.56 1.66-.04.15-5.84 6.04-5.96 6.04-.04 0-.42-.35-.85-.78Zm3.76-2.4 2.87-2.87-.69-.75-.69-.75-2.91 2.95-2.91 2.95.67.67c.37.38.7.68.73.68s1.34-1.29 2.93-2.88Zm-9.31.8c-.09-.07-.12-.79-.1-3.28l.03-3.19 1.23-.03 1.22-.03-.02 3.28-.03 3.28-1.1.03c-.61.01-1.16-.02-1.23-.06Zm2.18-3.22v-3h-2v6h2zM51.01 7c-.5-1.87-.89-2.72-1.72-3.76-1.2-1.51-2.73-2.45-4.84-2.99-.87-.23-.88-.23-.41-.24 1.04-.02 2.95.82 4.2 1.85 1.29 1.07 2.43 2.89 2.81 4.51.19.81.16 1.35-.04.63ZM.03 6.78C.38 4.12 2.97 1.2 5.78.3 6.66.01 7.74-.12 7.4.1c-.08.05-.25.1-.37.1-.13 0-.65.13-1.16.3-2.63.84-4.7 3.02-5.5 5.79-.27.94-.42 1.16-.34.49ZM15.33.03c4.28-.02 11.26-.02 15.5 0 4.25.01.75.02-7.78.02-8.52 0-12-.01-7.72-.02Z"/></svg>