<svg xmlns="http://www.w3.org/2000/svg" width="51" height="51" viewBox="0 0 51 51"><path fill="#fff" fill-rule="evenodd" stroke="#fff" stroke-width=".595" d="M5.14 49.68c.08-1.63.14-1.9.81-3.35l.37-.81 1.27-.94c2.15-1.58 3.87-3.06 4.5-3.83l.59-.73-.15-.45c-.17-.52-.1-.69.99-2.41.62-.98.67-1.03 2.73-2.68 2.69-2.16 2.49-1.96 2.29-2.37-.31-.63.17-1.57.68-1.3.22.12.21.12.37-.19.15-.28.51-.3.51-.02 0 .3.23.25.98-.24.37-.23.79-.51.95-.6.15-.09.27-.24.27-.32 0-.39.65-1.38 1.07-1.63.23-.14.45-.34.48-.43.04-.11.17-.18.34-.18.18 0 .38-.12.62-.36.55-.59 1.09-.94 1.43-.94.26 0 .36-.08.59-.45.33-.52.76-.9 1.23-1.1.18-.07.46-.32.61-.54.29-.41.66-.65 1.15-.76.15-.03.35-.18.45-.33.09-.15.25-.37.36-.49l.19-.21-.59-.06c-1.74-.18-2.17-.27-2.62-.53-.84-.48-1.35-.71-2.13-.94-1.14-.33-1.09-.45.5-1.22 1.05-.51 1.36-.62 1.79-.62.58 0 .72-.08.53-.3-.08-.1-.09-.15-.01-.15.06 0 .11-.11.11-.25 0-.41.35-.56-9.75 4.2-3.36 1.58-7.52 3.54-9.25 4.35s-4.5 2.12-6.15 2.9S.19 30.84.12 30.87c-.2.08-.15-.52.06-.7.1-.1.24-.17.3-.17s.93-.38 1.93-.85c.99-.47 1.82-.85 1.84-.85s.59-.26 1.27-.59c.67-.32 1.53-.72 1.91-.89.66-.31.97-.55.35-.28-.52.22-7.62 3.47-7.71 3.53-.04.02-.07-.16-.07-.41s.04-.46.09-.46c.08 0 7.69-3.34 17.11-7.5a2080 2080 0 0 0 9.37-4.14c.01 0-2.11-.02-4.7-.04-2.6-.02-8.05-.09-12.12-.17s-7.93-.15-8.57-.15C.15 17.2 0 17.18 0 17.03c0-.18 1.22-.17 13.54.07 8.18.16 13.82.12 14.36-.09l.45-.19.06-2.63c.04-1.45.07-4.21.08-6.13.01-4.28.12-4.71 1.33-5.22.48-.2 8.84-.37 15.08-.32l3.05.03.46.27c1.02.6 1.25 1.3 1.17 3.6l-.06 1.49.72-.01c.95-.02 1.06-.01.81.1-.11.05-.5.09-.87.09-.66.01-.68.02-.68.26 0 .25.01.25.86.25.54 0 .83.04.79.1-.03.05-.42.1-.86.1h-.79v.7l.83.01c.88.02.47.17-.5.18l-.43.01v1.39l.9-.06c.64-.04.9-.03.9.06 0 .07-.25.11-.76.11-.97 0-1.14.09-1.14.6v.4l.98.02.97.01-.97.1c-.93.1-.98.11-.98.33 0 .23.02.24.98.26.53.01.75.03.47.05-1.48.09-1.55.11-1.55.49v.34h.94c.53 0 .98.04 1.01.1.04.06-.3.1-.94.1H49.2v.65l1-.03c.66-.03 1 0 1 .07 0 .06-.39.11-1.02.13l-1.03.03-.03.38-.03.37h1.06c.68 0 1.04.04 1 .1-.03.06-.5.1-1.04.1h-.99l-.04.35-.04.35h1.09c.69 0 1.06.04 1.02.1-.03.06-.52.1-1.11.1H49v.57l1.12.09 1.13.09-1.15.05-1.15.05-.03.27-.03.28.98.01c.54 0 1.07.04 1.18.09.13.05-.23.09-.97.09-1.17.01-1.18.01-1.18.25 0 .13-.03.38-.06.55l-.06.31h1.21c.79 0 1.2.04 1.16.1s-.56.1-1.25.1h-1.18l-.04.4-.04.4.86.01c1.57.01 1.9.16.39.18l-1.35.01-.19.38c-.11.2-.21.4-.23.45-.02.04.19.07.46.07 1.04 0 2.62.13 2.62.22 0 .06-.64.07-1.64.03-1.59-.07-1.66-.07-2.12.16-.58.27-1.28.28-6.59.04-3.57-.16-3.9-.17-3.84-.11.04.04 2.92.21 9.99.61 3.48.19 4.2.26 4.2.38 0 .1-.61.08-3.6-.13-.74-.05-1.66-.09-2.03-.1h-.68l-.96 1.95c-.52 1.08-.93 1.98-.9 2.01.05.05 7.24.63 7.9.64.15 0 .27.06.27.13 0 .1-.33.1-1.62 0-.9-.06-2.64-.18-3.88-.27s-2.38-.17-2.55-.19c-.28-.02-.31.02-.72.97-.24.55-.42 1-.41 1.01.05.03 4.56.44 6.8.62 1.98.15 2.51.23 2.38.37-.05.04-5.79-.41-8.08-.64-.63-.06-1.16-.1-1.18-.07-.02.02-.26.58-.53 1.25l-.49 1.21.51.05c.5.05 5.31.3 8.02.42 1.46.06 1.75.1 1.75.25 0 .07-.24.08-.67.04-.62-.05-4.82-.27-7.93-.4-.69-.03-1.37-.08-1.51-.1-.25-.04-.28.02-.75 1.18-.27.67-.49 1.27-.49 1.32 0 .12.9.21 6.9.7 2.42.2 4.42.39 4.44.41.17.17-.7.12-5.22-.26-2.81-.24-5.39-.45-5.72-.47l-.6-.04-.75 1.92c-.41 1.05-.76 1.98-.78 2.05-.03.11.11.14.55.14 1.54 0 12.33.87 12.47 1.01.18.16.02.15-3.07-.12-4.75-.41-9.96-.74-10.06-.63-.1.1-2.13 4.96-2.09 4.99.03.03 6.05.57 8.38.76 2.51.2 6.85.61 6.89.65.16.15-.32.15-1.92 0-1-.09-3.64-.33-5.87-.51-2.23-.19-4.85-.42-5.83-.51s-1.79-.15-1.81-.13-.4.94-.86 2.04c-1.53 3.73-2.02 4.85-2.11 4.85-.13 0-.14.01.45-1.37 1.42-3.36 2.26-5.46 2.21-5.51-.05-.06-2.51-.28-9.45-.87-1.68-.14-3.13-.27-3.22-.28-.17-.02-1.62 1.51-4.51 4.76-.77.86-1.45 1.57-1.51 1.57-.07 0-.3.09-.51.21-.33.17-.52.2-1.03.15-.78-.07-.82-.09-.82-.52 0-.77-1.12 0-1.6 1.1-.19.42-.4.76-.47.76-.17 0-.22.12.56-1.61 1.61-3.63 2.5-6.49 2.58-8.29.06-1.42-.03-1.6-.93-1.79-.99-.19-1.16-.16-1.41.28-.74 1.29-2.06 2.54-5.08 4.81-2.04 1.53-2.48 2.4-2.61 5.14-.06 1.2-.1 1.46-.22 1.46-.13 0-.14-.21-.08-1.52Zm17.51 1.07c-5.33-.68-5.81-.72-6.03-.52-.24.22-.37.09-.15-.15.11-.12.3-.18.62-.18.48 0 7.05.78 9.21 1.09l1.25.19h-.75c-.41 0-2.28-.2-4.15-.43Zm-6.45-1.36c.34-.21.34-.22.12-.3-.77-.29-1.16-4.89-.47-5.58.23-.23.28-.07.15.54-.28 1.35-.07 4.16.35 4.71.13.17.14.09.15-.67 0-.47.03-1.96.06-3.3.04-1.87.03-2.4-.06-2.26-.07.1-.33.32-.58.48l-.46.29-.39 1.32c-.56 1.9-.67 4.79-.19 4.91.44.12.99.06 1.32-.14Zm1.5-1.16c.74-.84 2.2-2.47 3.95-4.4.49-.54 1.55-1.73 2.35-2.63.79-.91 1.77-1.99 2.17-2.41l.74-.76-1.13-.14c-.62-.08-1.93-.14-2.9-.14-1.83 0-2.13-.06-1.32-.26.27-.07.64-.28.91-.5.44-.38.46-.39 1.26-.39.45 0 1-.03 1.22-.05.36-.05.37-.04.15.06-.14.06-.71.14-1.27.18-.95.07-1.04.09-1.3.37l-.28.29 1 .03c.55.01 2.33.18 3.95.37 2.45.28 9.35.85 10.37.85.29 0 .31-.05 1.1-2.02.49-1.23.76-2.04.7-2.05-.07-.01-1.74-.19-3.72-.38-1.98-.2-4.48-.47-5.55-.6-2.74-.33-6.2-.52-6.31-.34-.12.2.14.26 1.84.4.81.06 1.5.16 1.54.21.06.11-.81.06-2.56-.13-.87-.1-.96-.09-1.08.07-.3.42.05.53 1.85.61.78.03 1.28.09 1.2.14-.21.14-1.8.1-2.65-.06-.73-.14-.79-.14-.91.02-.12.17-.07.19.55.3 2.04.36 2.33.57.42.3-1.34-.19-1.69-.14-1.69.25 0 .43-.63 1.65-.94 1.82-.19.1-.55.42-.81.72l-.46.54h.36c.2 0 .49-.08.63-.19.15-.1.38-.21.52-.25s.02.06-.25.23c-.35.21-.49.36-.47.49.03.21-.24.48-.53.54-.23.04-.31.38-.16.65.09.16.15.13.56-.31.27-.27.42-.38.35-.25s-.3.42-.51.64c-.35.37-.38.44-.3.72.11.38.68 1.23.82 1.23.07 0 .09.15.05.38-.03.2-.08.63-.12.94-.05.5-.09.58-.34.68-.16.07-.4.29-.54.51-.28.41-1.23.58-1.54.27-.16-.16-1.47-.16-1.64 0-.15.15-.26 4.32-.12 4.31.05 0 .43-.39.84-.86Zm-.55-3.73c.03-.05.28-.1.56-.1.56 0 .55.03.29-.92-.11-.4-.2-.84-.2-.97 0-.24-.02-.23-.45.19l-.45.44v.73c0 .67.09.89.25.63Zm2.25.07c0-.02-.12-.37-.26-.78s-.38-1.34-.53-2.07l-.27-1.32-.23.24c-.22.23-.23.31-.17.93.1.93.53 2.63.73 2.85.13.15.73.27.73.15Zm.7-.58c0-.04.13-.12.29-.19.37-.15.6-1.44.3-1.67-.27-.2-.71-1.32-.82-2.09-.11-.79-.34-.98-.68-.58-.15.19.21 1.75.67 2.92.14.35.24.66.21.69-.21.21-.75-.91-1.08-2.27-.3-1.21-.36-.85-.1.57.36 1.93.81 3.19 1.03 2.91.1-.13.18-.26.18-.29Zm15.6-.09c.21-.4 2-4.74 2-4.85 0-.08-.33-.14-.97-.18-3.9-.26-6.89-.49-8.13-.63l-1.45-.17-.78.84c-1.97 2.12-3.57 3.99-3.45 4.04.07.02 1.55.16 3.28.3 2.74.23 9.12.8 9.32.84.04 0 .12-.08.18-.19Zm-19.34-1.75c.1-.16.12-.29.05-.46-.05-.13-.14-.49-.21-.79-.27-1.17-.38-1.14-.38.1 0 .63-.05 1.3-.1 1.48l-.11.32.3-.21c.16-.11.37-.31.45-.44Zm1.07-2.09c-.54-.55-.59-1.22-.08-1.25.06 0 .11-.1.13-.21.04-.25-.12-.18-.65.27-.31.27-.32.29-.21.7.1.36.09.45-.05.61-.31.34-.23.89.13.84.24-.03.3-.01.3.14 0 .14.1.08.43-.24l.44-.43zm1.07-3.31c2.33-2.27 2.33-2.27 1.95-2.98-.14-.27-.25-.55-.25-.64 0-.25-.5-.73-.76-.73-.13 0-.44.19-.7.41-.26.23-1.36 1.12-2.44 1.99l-1.96 1.58-.73 1.18c-1 1.61-1.01 1.5.11 1.57.51.04 1.13.13 1.38.2.58.17.57.18 3.4-2.58ZM2.9 38.38c-1.02-.05-1.94-.12-2.05-.17-.12-.05.06-.07.5-.05.39.02 2.41.09 4.49.14 2.09.06 3.82.13 3.85.15.07.08-4.76.03-6.79-.07Zm16.96-.09c.23-.22.23-.22.04-.47-.11-.13-.2-.33-.2-.42 0-.43.62-.5.75-.09.08.25.83-.33.84-.66.02-.19-.59-1.45-.69-1.45-.09 0-2.1 1.91-2.1 1.99 0 .04.1.07.21.07.23-.01.28.06.58.76.23.55.26.56.57.27ZM6 36.6c-2.24-.15-3.14-.24-2.95-.28.23-.05 4.16.16 5.15.28l.65.07h-.9c-.49 0-1.37-.03-1.95-.07Zm16.86-2.33c.68-.91.7-.99.43-1.85-.13-.4-.26-.75-.3-.77-.11-.08-1.79 1.62-1.79 1.8 0 .14.03.15.15.05.22-.18.37-.02.65.74.3.8.29.8.86.03Zm17.22-1.14c.29-.69.51-1.28.49-1.3-.02-.01-1.79-.17-3.93-.33-2.14-.17-4.52-.37-5.29-.45-1.89-.2-3.24-.23-3.29-.08-.05.12.24.23.65.23.14 0 .34.07.45.16.14.11.15.14.03.11-.09-.03-.4-.08-.7-.12l-.54-.06-.43.5-.43.51.78.01c.9.02.58.16-.4.18-.32 0-.74.08-.94.16-.25.1-.71.15-1.54.15-.73 0-1.19.04-1.19.1s.39.1.98.1c1.31.01 3.05.15 5.57.45 2.17.27 8.37.92 8.91.94.3.01.31-.01.82-1.26Zm-17.02-2.3c.14-.69-.6-.96-1.38-.5-.77.46-.88.56-.57.57.41 0 .53.22.46.83-.07.55-.43 1.02-.72.91-.11-.05-.12-.01-.03.23l.11.29 1.04-1.03c.67-.67 1.05-1.12 1.09-1.3Zm-14.61 2.1c-.22-.02-1.91-.15-3.75-.28-1.84-.14-3.39-.28-3.45-.31-.16-.07 2.21.04 5.45.26 1.62.11 4.03.24 5.35.28l2.4.09h-2.8c-1.54 0-2.98-.02-3.2-.04Zm17.72-.49c.34-.06 1.32-1.02 1.58-1.54.16-.32.32-.5.49-.54.57-.14 1.36-1.17 1.36-1.76 0-.17.07-.2.39-.2.46 0 .92-.39 1.12-.95.1-.25.22-.38.46-.46.38-.12.73-.54 1.02-1.22.14-.31.26-.47.39-.47.29 0 5.95-5.88 6.3-6.55.2-.38.08-.88-.28-1.19-.64-.53-1.19-.42-2.29.48-.36.29-1.29 1-2.06 1.56-.77.57-1.72 1.29-2.11 1.61s-.93.71-1.19.86c-.27.16-.63.49-.8.73-.25.35-.41.48-.77.58s-.57.25-.92.67c-.26.29-.56.57-.69.61-.38.12-.77.47-1.13 1.01-.27.4-.41.53-.6.53-.4 0-.86.25-1.29.69l-.39.41.22.16c.13.09.19.2.15.27s-.08.35-.09.62c-.02.27-.06.81-.1 1.18-.05.58-.04.71.12.88.29.32.27 1.37-.03 1.78-.13.16-.23.33-.23.36 0 .05.94-.02 1.37-.11Zm-1.65-.2c.8-.28.44-2.1-.37-1.9l-.26.07.36.33c.49.47.45 1.16-.09 1.59-.07.05-.05.06.04.03.08-.03.23-.09.32-.12Zm-.32-.55c.15-.36-.09-.84-.46-.93-.31-.08-.28-.1-.43.34-.18.53.22 1.26.55 1.01.13-.09.28-.28.34-.42Zm17-1.34c.27-.66.46-1.23.42-1.26-.04-.04-.74-.12-1.57-.18-.82-.07-2.74-.23-4.25-.36-1.51-.14-3.04-.27-3.4-.3s-.78-.08-.93-.11c-.2-.04-.35 0-.5.14-.12.1-.31.24-.42.3-.16.09-.06.11.5.1.39 0 .58-.03.43-.05-.16-.02-.28-.08-.28-.13s.06-.08.13-.06c.06.03.25.07.41.11.56.12.09.29-.93.33-.93.04-.99.06-1.1.29-.17.36-.15.4.33.52.24.06.49.17.56.26.11.13.09.13-.23 0-.52-.22-.93-.19-1.11.06-.08.12-.28.3-.43.4-.15.11-.24.19-.18.2.06 0 .48.02.95.03s1.23.08 1.7.15c.84.14 8.73.8 9.18.77.2-.01.3-.18.72-1.21Zm1.02-2.54c.21-.52.36-.96.35-.98-.02-.01-1.16-.12-2.53-.23-1.38-.1-3.13-.24-3.89-.31-.76-.06-1.57-.08-1.79-.04-.23.04-.72.1-1.1.14-.76.07-.97.25-.42.35s.53.26-.02.19c-.41-.04-.54-.01-.86.21l-.39.26h.67c.42 0 .65.04.61.1-.03.06-.37.1-.75.1-.62 0-.92.11-.76.27.03.04.79.12 1.68.2l4.73.42c1.71.16 3.32.28 3.59.28l.5-.02zm-27.77.08c-.99-.03-2.14-.07-2.55-.08-.43-.01-.69-.05-.6-.09.08-.05 1.23-.05 2.55-.01s2.84.08 3.38.08c.57.01.97.05.97.11 0 .11-.83.11-3.75-.01Zm29.2-3.26c.52-1.08.95-1.99.95-2.02 0-.11-7.7-.52-7.88-.41-.14.07-.11.09.16.1.51 0 .37.2-.15.22-.44.01-.45.02-.11.05.21.02.38.08.38.14 0 .05-.17.09-.38.09-.2 0-.44.05-.52.1-.11.07-.07.1.17.1.17 0 .35.05.38.1.04.06-.13.1-.44.1-.27 0-.53.05-.56.1-.04.06.08.1.3.1s.34.04.3.1c-.03.06-.26.1-.5.1s-.47.04-.5.1.05.1.18.1c.14 0 .27.07.31.15.04.12-.02.13-.37.09-.32-.05-.46-.02-.56.1-.12.14-.08.16.43.16.36 0 .55.04.51.1-.03.06-.35.1-.7.1-.61 0-1.06.19-.48.21.15 0 .37.04.48.09.14.06.03.08-.37.07-.72-.02-.99.18-.42.3l.39.08-.54.05c-.67.06-.78.25-.19.35.24.04.46.12.49.17.04.06 1.34.21 2.9.34 1.56.12 3.34.27 3.94.32.61.05 1.18.1 1.27.11.13.01.41-.49 1.13-1.96ZM20.3 23c-.1-.06.7-.09 2.35-.09 1.6.01 2.36.04 2.1.1-.56.11-4.27.11-4.45-.01Zm11-1.3c.1-.07-.08-.1-.6-.1-.9-.01-1.43-.22-1.86-.73l-.29-.35-1.25-.12c-1.63-.16-1.68-.24-.09-.17l1.25.06-.04-.28c-.04-.28-.05-.28-1-.38l-.97-.1.93-.01.92-.02v-.72l-.52.04c-.37.04-.9.23-1.76.64l-1.22.59 1.02.33c.57.18 1.28.48 1.58.68.69.44 1.03.53 2.37.63.59.04 1.15.09 1.23.09.08.01.22-.03.3-.08Zm16-.37c.94-.64 1.06-1.61 1.66-13.35l.17-3.26-.27-.56c-.21-.43-.38-.62-.74-.84l-.47-.27-5.7.04c-9.59.06-11.63.12-12.05.37-.85.49-.82.08-.92 13.34-.04 4.1-.04 4.11 2.13 4.25l1.05.07 2.25-1.69c1.23-.93 2.45-1.85 2.72-2.06.79-.61 1.63-.55 2.22.14.6.73.45 1.19-.89 2.69l-.94 1.05 3.01.11c4.99.18 6.48.17 6.77-.03Zm-3.22-5.57c-.6-.22-.84-.42-1.07-.88-.11-.24-.21-.38-.21-.31 0 .06-.14.14-.3.18-.26.06-.3.11-.3.4 0 .49-.21.6-1.11.59-.92-.01-1.09-.11-1.09-.65v-.39h-.69c-.66 0-.71-.01-.92-.31l-.21-.31-.28.49c-.93 1.59-3.33 1.49-4.25-.18l-.3-.54-.05.72c-.07 1.03-.13 1.07-1.57 1.11-1.62.05-1.8.01-2.04-.51-.4-.88-.28-1.27.72-2.37.77-.84.78-.87.2-.64-.52.21-.64.16-.9-.38-.63-1.31.05-2.13 1.74-2.13 1.19.01 1.84.52 1.88 1.5.02.55 0 .55.28-.01.48-1.01 1.17-1.44 2.29-1.44 1.32 0 2.06.64 2.34 2.03l.12.6.85-1.25.84-1.26.96-.07c1.51-.11 1.43-.2 1.36 1.51l-.06 1.43.27.03c.2.02.28.09.3.27.04.23.04.22.23-.09.17-.28.18-.37.08-.67-.56-1.71 1.5-3.11 3.27-2.22.8.4 1.18 1.37.85 2.18-.1.23-.09.35.03.66.32.75.16 1.92-.31 2.38-.6.56-2.13.84-2.95.53Zm2.33-.87c.8-.4.99-1.59.36-2.27-.18-.19-.19-.26-.09-.4.83-1.14.17-2.12-1.41-2.12-1.3 0-2.11.95-1.62 1.9.08.15.2.3.27.33.09.03 0 .19-.26.45-1.41 1.47.75 3.13 2.75 2.11Zm-13.57-.05c.1-.1.16-.33.16-.65v-.49h-.7c-.84 0-.83.05-.14-.77 1.44-1.69 1.07-2.98-.81-2.91-1.29.06-1.7.41-1.31 1.16.15.28.16.29.64.19 1.18-.25 1.15.35-.1 1.74-.7.78-.76.93-.57 1.47l.11.31 1.01.04c.56.01 1.14.04 1.29.05s.34-.05.42-.14Zm8.96-.34V14h.7v-.5c0-.47-.01-.5-.27-.5h-.26l.06-1.45.06-1.45h-.92l-.92.01-.92 1.39c-1.03 1.54-1.03 1.54-.71 2.1l.23.4h1.55v1h1.4zm-4.73.15c.93-.68 1.17-2.9.42-3.97-.45-.63-1.7-.87-2.56-.49-1.61.74-1.63 3.93-.03 4.6.44.19 1.84.09 2.17-.14Zm7.75-.71c-.27-.19-.28-.34-.01-.68.24-.3.49-.33.72-.08.49.54-.11 1.18-.71.76Zm-9.51-.6c-.42-.54-.17-1.81.39-1.99.55-.17 1.02.65.8 1.43-.21.8-.79 1.07-1.19.56Zm4.41-.42c.12-.29.95-1.52 1.02-1.52.05 0 .06.24.02.53-.03.28-.06.64-.06.8 0 .26-.02.27-.51.27-.28 0-.49-.04-.47-.08ZM8.2 9.99c-.76-.31-.74-1.25.03-1.06.19.05.25.01.34-.24.12-.3.74-.66.94-.54.05.04.24-.1.43-.29.62-.67 1.97-.43 2.36.41.08.18.22.33.31.33.08 0 .24.07.35.15.1.08.28.15.4.15.5 0 .69.59.28.87-.26.17-1.68.29-2.06.17-.33-.1-.18-.22.21-.17.21.03.48 0 .59-.06.16-.09.26-.08.41.01.16.1.27.09.56-.05.45-.22.45-.53 0-.5-.19.02-.33-.04-.42-.17a.51.51 0 0 0-.37-.2c-.17 0-.27-.09-.38-.38-.31-.78-1.55-1-2.14-.37-.25.27-.41.35-.68.35-.37 0-.66.27-.66.62 0 .23-.18.32-.35.18s-.55-.04-.55.14c0 .19.22.35.77.56.43.17.45.19.18.19-.17 0-.41-.05-.55-.1Z"/></svg>