<svg xmlns="http://www.w3.org/2000/svg" width="51" height="51" viewBox="0 0 51 51"><path fill="#fff" fill-rule="evenodd" stroke="#fff" stroke-width=".797" d="M28 40.79c-3.86-.24-6.67-1.74-7.98-4.26-.86-1.65-1.42-3.91-1.42-5.7v-1.1l-.42-.12c-3.06-.88-5.66-3.59-6.6-6.86-.33-1.17-.33-3.71 0-4.95 2.41-8.85 14.22-10.1 18.31-1.93.41.83.91 2.35.91 2.79 0 .3 0 .3 1.21.5 5.36.85 7.7 4.11 7.69 10.74-.01 4.55-1.19 7.63-3.53 9.22-1.85 1.26-4.89 1.88-8.17 1.67Zm3.95-.29c5.23-.89 7.36-3.66 7.61-9.9.22-5.33-1.3-8.92-4.41-10.4-1.03-.49-3.02-1-3.92-1h-.33v1.05c0 4.52-3.27 8.58-7.71 9.56-.94.21-3.4.23-4.23.03l-.29-.07.06 1.29c.15 3.35 1.37 6.23 3.26 7.66 2.22 1.67 6.3 2.41 9.96 1.78Zm-9.31-10.85c7.71-1.34 10.71-10.69 5.21-16.2-5.17-5.17-14.02-2.85-15.95 4.18-1.85 6.76 3.91 13.21 10.74 12.02Zm-3.24-1.39c-3.88-.9-6.5-4.13-6.5-8.01 0-6.07 6.35-9.93 11.85-7.21 6.52 3.24 5.63 12.83-1.4 15.06-.87.28-3.08.37-3.95.16Zm3.7-.36c3.61-1.02 6.2-4.68 5.83-8.25l-.06-.58-.93.06c-5.03.33-8.09 2.9-8.89 7.47-.23 1.3-.24 1.27.38 1.39.28.06.61.13.72.15.45.11 2.23-.04 2.95-.24Zm-4.17-1.19c.55-3.4 2.29-5.71 5.17-6.88 1.13-.46 2.88-.83 3.95-.83.78 0 .82-.06.6-.87-1.34-4.95-7.21-7.26-11.7-4.61-4.95 2.93-5.07 10.12-.23 13.34.61.41 1.68.93 1.93.94.06 0 .18-.49.28-1.09Z"/></svg>