<svg xmlns="http://www.w3.org/2000/svg" width="51" height="51" viewBox="0 0 51 51"><path fill="#fff" fill-rule="evenodd" stroke="#fff" stroke-width=".394" d="M16.77 51.04c-.04-.04-.07-3.78-.07-8.31V34.5H.1l-.03 7.93-.02 7.92-.03-8.08L0 34.2l8.47.02 8.48.03.03 8.34c.02 7.64-.01 8.65-.21 8.45Zm.4-.66c-.05-.55-.03-14.26.02-15.91l.01-.27 8.38.02 8.37.03.03 8.43c.01 5.59-.01 8.42-.08 8.42-.13 0-.12.96-.1-8.42l.01-8.18H17.4v8.3c0 7.56-.07 9.67-.23 7.58Zm17.03-7.73V34.2h8.5c7.49 0 8.5.02 8.5.15s-1 .15-8.4.15h-8.4v8.3c0 5.47-.03 8.3-.1 8.3s-.1-2.88-.1-8.45Zm-9.73 5.44c-2.78-.66-3.6-4.23-1.25-5.45l.29-.15-.43-.38c-2.51-2.21.31-5.76 3.78-4.77 2.43.7 3.19 3.57 1.29 4.87l-.33.23.44.29c1.71 1.13 1.66 3.67-.09 4.82-.88.58-2.52.82-3.7.54ZM41.03 48c-.96-.38-2.03-1.63-2.03-2.37 0-.22.03-.23.73-.23h.73l.13.35c.21.58 1.01 1.05 1.8 1.05 1.36 0 2.37-1.13 2.57-2.86l.07-.55-.62.4c-2.73 1.76-6.2-.43-5.62-3.56.67-3.66 5.61-4.13 7.22-.69.81 1.74.77 4.68-.09 6.46-.87 1.76-3.13 2.69-4.89 2Zm-34.3.03c-.67-.05-.72.17.63-2.76 1.71-3.69 2.94-6.38 2.94-6.43 0-.02-1.22-.04-2.7-.04H4.89l.03-.72.03-.73h7.1l.03.61c.03.65.09.52-2.78 6.74-.39.85-.9 1.97-1.12 2.48-.38.83-.44.92-.67.9-.14-.01-.5-.03-.78-.05Zm19.99-.17c2.82-.6 3.54-4 1.08-5.11-.47-.21-.49-.29-.12-.52 3.18-1.97-.03-5.99-3.6-4.49-2.05.87-2.27 3.53-.37 4.52.36.18.32.26-.26.54-.84.41-1.34 1.26-1.35 2.28 0 2 2.15 3.3 4.62 2.78Zm17.11-.19c1.68-.77 2.48-2.38 2.5-5.02.01-3.01-1.14-4.8-3.32-5.16-3.27-.53-5.38 3.36-3.07 5.67 1.37 1.36 3.69 1.33 4.89-.06.47-.55.51-.51.43.42-.08.95-.43 2.03-.81 2.54-1.03 1.35-3.37 1.25-4.11-.17-.13-.26-.2-.29-.61-.29h-.45l.06.31c.32 1.61 2.74 2.56 4.49 1.76Zm-35.81-.74c.22-.49.84-1.85 1.38-3.03s1.3-2.85 1.69-3.7c.59-1.29.71-1.63.71-2.07v-.53H8.51c-3.65 0-3.54-.02-3.37.66l.06.24h2.7c2.38 0 2.7.02 2.7.16s-.59 1.45-3.04 6.79c-.58 1.26-1.06 2.3-1.06 2.32s.25.03.55.03h.56zm17.13.07c-1.54-.24-2.41-1.43-1.94-2.67.63-1.69 3.98-1.83 4.81-.2.85 1.67-.68 3.2-2.87 2.87Zm1.61-.35c1.32-.39 1.69-2.01.65-2.88-.93-.78-2.95-.7-3.66.15-1.34 1.6.67 3.43 3.01 2.73Zm14.94-3.5c-2.66-.86-1.97-4.75.85-4.75 1.86 0 2.99 2.14 1.99 3.76-.53.87-1.83 1.32-2.84.99Zm1.55-.26c1.49-.41 1.92-2.47.76-3.6-1.47-1.42-3.66-.49-3.66 1.55 0 1.61 1.26 2.5 2.9 2.05Zm-18.46-.92c-2.28-.86-1.63-3.61.86-3.61 1.37 0 2.6 1.04 2.31 1.95-.02.08-.07.26-.1.41-.21.97-1.94 1.67-3.07 1.25Zm1.98-.38c.85-.41 1.2-1.47.71-2.19-.73-1.09-2.98-1.08-3.62.01-.88 1.48 1.18 3.02 2.91 2.18ZM0 25.6v-8.5l8.47.02 8.48.03v16.9l-8.48.03L0 34.1zm17.23 8.38c-.09-.14-.06-16.65.03-16.79.06-.1 16.16-.12 16.52-.03l.22.06-.02 8.42-.03 8.41-8.32.03c-6.59.02-8.33 0-8.4-.1Zm17.09.04c-.1-.07-.12-1.83-.1-8.48l.03-8.39 8.48-.03c7.49-.02 8.47 0 8.47.13s-.99.15-8.4.15h-8.4v16.4h8.4c7.4 0 8.4.02 8.4.15 0 .17-16.62.23-16.88.07ZM16.7 25.6v-8.2H.1v16.4h16.6zm17.03 3.98c.09-5.35.09-10.43.01-11.41l-.07-.77H17.4v16.4h16.27zM7.75 30.97c-2.1-.7-3-2.31-3-5.37 0-1.76.18-2.58.81-3.61 1.55-2.56 5.33-2.52 6.55.06.41.85.41.85-.46.85-.72 0-.75-.01-.89-.29-.32-.61-1.14-1.11-1.84-1.11-1.44 0-2.41 1.18-2.66 3.23l-.06.47.37-.36c1.3-1.3 3.83-1.21 5.07.17 1.3 1.45 1.27 3.7-.06 5-.92.9-2.67 1.34-3.83.96Zm36.22-.04c-.04-.03-.07-.6-.07-1.25V28.5h-5.2v-1.28l1.03-1.4c.56-.77 1.69-2.32 2.5-3.46l1.48-2.06h1.79v6.79l.73.03.72.03.03.67.03.67-.73.03-.73.03-.03 1.23-.03 1.22h-.73c-.4 0-.76-.03-.79-.07ZM9.51 30.8c3.9-.74 3.76-6.13-.18-6.66-.95-.12-2.1.34-2.87 1.15-.44.46-.5.4-.43-.46.18-2.27 1.2-3.53 2.87-3.53.84 0 1.41.28 1.9.93.41.56 1.4.75 1.25.25-.69-2.29-3.99-2.88-5.74-1.03-.98 1.03-1.34 2.17-1.35 4.2 0 3.58 1.84 5.66 4.55 5.15Zm35.79-1.3v-1.2h1.5v-.9h-1.5v-6.91l-.72.03-.73.03-1.43 2c-.79 1.1-1.9 2.64-2.48 3.41-.92 1.26-1.04 1.46-1.04 1.83v.41h.83c.46 0 1.66.03 2.65.07l1.82.06v2.37h1.1zm-37 .38c-1.74-.31-2.5-2.61-1.32-3.99s3.69-.91 4.2.8c.57 1.87-.95 3.55-2.88 3.19Zm1.38-.34c1.63-.68 1.85-3.03.37-3.89-1.11-.65-2.62-.3-3.14.73-.94 1.88.88 3.96 2.77 3.16Zm30.42-2.26c0-.21 3.86-5.48 4.01-5.48.06 0 .08 1.15.07 2.78l-.03 2.77-2.03.03c-1.58.02-2.02 0-2.02-.1Zm3.8-2.54v-2.36l-.72.98c-.39.55-1.13 1.55-1.63 2.24s-.94 1.31-.99 1.38c-.06.09.3.12 1.63.12h1.71zM0 8.5V0h17l-.02 8.47-.03 8.48-8.48.03L0 17zm17.27 8.43c-.09-.15-.12-2.95-.09-9.9L17.2 0H34l-.02 8.47-.03 8.48-8.32.03c-4.57.01-8.34-.01-8.36-.05Zm17 0c-.04-.03-.07-3.86-.07-8.5V0l8.38.02 8.37.03-8.27.02L34.4.1v16.6h8.4c7.4 0 8.4.02 8.4.15 0 .16-16.78.24-16.93.08ZM16.7 8.4V.1H.1v16.6h16.6zm17.03 4.53c.04-2.07.07-5.8.07-8.3V.1H17.4v16.6h16.27zm7.87.92c-1.36-.39-2.6-1.65-2.6-2.67v-.28h.74c.73 0 .74 0 .79.29.31 1.51 3.32 1.89 4.24.52.32-.47.32-1.34 0-1.82-.37-.57-1.02-.82-2.29-.87l-1.08-.05V7.74l1.15-.1c1.57-.14 2.09-.53 2.09-1.57 0-1.99-2.98-2.32-3.95-.45L40.5 6h-.7c-.82 0-.87-.09-.46-.95 1.48-3.18 6.81-2.47 6.81.9 0 .9-.12 1.21-.75 1.89l-.39.42.47.34c2.86 2.13-.2 6.27-3.88 5.25ZM8.7 9.4c0-2.42-.02-4.4-.04-4.4-.03 0-.57.34-1.2.75-1.41.92-1.36.92-1.36.03v-.73l1.35-.93 1.35-.93.67.03.68.03.03 5.28.02 5.27H8.7zm13.6 3.76v-.65l2.49-2.35c3.01-2.85 3.36-3.41 2.9-4.63-.63-1.66-3.61-1.37-3.96.4-.08.37-.15.4-.89.32s-.76-.12-.44-.97c.88-2.35 4.5-3.09 6.15-1.27.64.71.8 1.14.8 2.14 0 1.51-.4 2.1-3.2 4.71l-1.6 1.49.85.06c.47.04 1.6.07 2.53.08l1.67.01v1.3h-7.3zm21.98.32c2.37-.88 2.75-3.71.66-4.94-.53-.31-.53-.24-.01-.61.96-.7 1.28-2.03.74-3.1-1.08-2.12-4.73-2.06-5.97.1-.41.71-.39.77.19.77.46 0 .5-.02.68-.37 1-1.92 4.34-1.39 4.33.69-.01 1.25-.84 1.88-2.47 1.88h-.73v.9h.88c2.24 0 3.34 1.41 2.38 3.05-.86 1.45-4.23 1.14-4.62-.42-.06-.2-.12-.23-.59-.23h-.54l.15.44c.57 1.67 2.96 2.56 4.92 1.84ZM9.88 8.53 9.9 3.5h-.54c-.52 0-.6.04-1.8.86l-1.26.86v.45c0 .54-.07.56 1.34-.36.61-.39 1.14-.71 1.18-.71s.08 2 .08 4.44v4.45l.22.04c.13.03.34.04.48.03l.25-.01zm19.42 4.62v-.45h-2.65c-1.53 0-2.65-.04-2.65-.09s.9-.93 2-1.96c2.64-2.47 3.11-3.13 3.13-4.39.06-3.65-5.34-4.18-6.58-.65l-.14.39h.49c.47 0 .51-.02.64-.33.97-2.33 4.52-1.87 4.5.58-.01 1.14-.21 1.4-3.66 4.68l-1.88 1.79v.88h6.8z"/></svg>