<svg xmlns="http://www.w3.org/2000/svg" width="51" height="51" viewBox="0 0 51 51"><path fill="#fff" fill-rule="evenodd" stroke="#fff" stroke-width=".754" d="M24.2 38.98c-9.54-4.86-13.54-13.55-11.25-24.44.25-1.18.47-1.74.69-1.74.07 0 .74.12 1.47.27 1.16.23 1.59.27 3.24.27 2.3.01 2.96-.11 5.05-.92 1.95-.76 2.33-.77 4.1-.05 2.6 1.06 5.07 1.28 7.95.74 2.11-.4 2.12-.4 2.31.05.73 1.72 1.16 6.69.83 9.62-.7 6.39-4.21 11.73-9.99 15.2-2.6 1.56-3.08 1.67-4.4 1Zm2.83-.38c6.02-3.08 9.96-8.13 11.11-14.25.61-3.26.38-8.09-.5-10.87-.17-.54-.16-.54-1.12-.33-3.71.78-6.07.65-8.98-.5-2.03-.8-2.06-.8-4.12.01-2.7 1.07-5.21 1.25-8.47.61-.66-.13-1.25-.22-1.31-.2-.2.07-.84 2.93-.84 3.75v.28l6.63.01c9.21.01 10.33.05 11.65.51 7.67 2.65 7.26 12.02-.63 14.3-1.03.29-12.51.42-12.74.14-.23-.27-.19-8.81.04-9.06.17-.19.31-.2 2.21-.2h2.03l.2.26c.2.25.21.39.21 2.64 0 2 .02 2.4.15 2.5.3.25 6.01-.03 7.12-.35 1.72-.5 2.74-2.91 1.91-4.5-.45-.86-1.18-1.4-2.56-1.89l-.73-.26H12.51l.04.28c.02.15.07.65.1 1.12.45 6.64 4.71 12.59 11.53 16.11 1.22.62 1.43.62 2.85-.11Zm3.42-6.93c3.24-1 5.24-3.02 5.81-5.87.71-3.56-1.53-6.79-5.61-8.1-.76-.25-5.16-.37-14.26-.39l-3.66-.01-.06.48c-.04.26-.1 1.07-.13 1.8l-.07 1.32h7.64c8.48 0 8.39 0 9.76.66 1.43.68 2.12 1.59 2.21 2.9.1 1.59-.85 3.11-2.27 3.6-.85.29-6.92.65-7.33.43-.3-.16-.38-.79-.38-3.06 0-2.1-.01-2.23-.19-2.33-.12-.06-.94-.1-1.96-.1s-1.84.04-1.96.1c-.18.1-.19.26-.19 4.44 0 2.38.03 4.36.07 4.4s2.68.05 5.88.04l5.8-.03z"/></svg>