<svg xmlns="http://www.w3.org/2000/svg" width="51" height="51" viewBox="0 0 51 51"><path fill="#fff" fill-rule="evenodd" stroke="#fff" stroke-width=".376" d="M18.13 50.61c-.66-.24-1-.48-1.56-1.11-.42-.46-.47-.49-.72-.4-.9.34-1.65-.47-1.65-1.79 0-.34-.03-.41-.2-.41-.1 0-.23-.06-.27-.14-.04-.07-.19-.16-.33-.19-.71-.16-1.21-.42-1.69-.89-.97-.93-1.06-1.25-.67-2.2l.24-.58h-.5c-.56 0-1.08-.39-1.08-.81 0-.21-.01-.22-.16-.07-.14.14-.13.21.15.76 1.25 2.47.77 4.38-1.33 5.38-1.21.57-2.36.57-2.66-.01-.08-.17-.38-.68-.66-1.15-.72-1.16-.89-2.02-.59-2.82.05-.13-.03-.18-.42-.24-.55-.08-1.52-.41-1.71-.58-.27-.26 0-2.75.37-3.4.35-.61.31-.67-.25-.34-.39.23-1.67.37-2.18.24L0 39.8v-2.87l.53-.12c.28-.07.81-.14 1.17-.17.79-.07 1.22-.19 1.77-.51l.43-.25-.21-.26c-.64-.82-2.61-.9-3.41-.14-.27.24-.28.25-.28.05 0-.25.11-.34.81-.73l.54-.3H.83c-.65 0-.83-.07-.83-.33 0-.16.03-.18.12-.09.18.18.7.14.97-.07l.23-.18-.2-.39c-.32-.64-.35-.94-.03-.34.2.38.41.62.64.75l.36.19.2-.25c.22-.27.21-.28-.4-.62-.17-.1-.29-.2-.26-.24.04-.03.28.08.54.25.42.27.53.3.86.22.52-.11.51-.1.24-.76-.13-.33-.3-.81-.37-1.07-.14-.51-1.25-1.38-2.2-1.73-.68-.25-.69-.19-.24 1.26.2.63.33 1.42.17 1.02-.07-.18-.53-.15-.53.04 0 .09.17.36.38.62l.37.46-.42-.33-.41-.33.01-3.71.02-3.72.63.01c.61.01.71-.03.53-.21-.15-.16-.41-1.16-.41-1.57 0-.37-.01-.38-.35-.38H.11l-.04.88c-.02.72-.03.65-.05-.41-.01-.84.01-1.26.08-1.22.1.06.9-.34.9-.45 0-.18-.81-.44-.91-.29-.2.29-.05-5.07.16-5.89.18-.72.12-1.04-.17-.86-.04.03-.08-.06-.08-.2 0-.23.02-.25.26-.15.31.11.3.12.39-.24.07-.28 0-.32-.46-.28-.11.01-.17-.06-.17-.24.01-.26.17-.31.84-.26.59.05.52-.46-.18-1.17-.61-.63-.65-.7-.66-1.17l-.02-.5.2.33c.24.39.3.39.6.07l.23-.25-.44-.4c-.34-.32-.4-.43-.29-.5s.09-.12-.11-.29C0 9.35-.02 9.28.08 9.22c.1-.07.12-.22.07-.56-.08-.52-.08-.53.6-.27.59.23.75.42.57.71-.11.18-.09.26.12.57l.25.36.05-.27.11-.51c.13-.61-.05-1.24-.32-1.14-.45.17-.58.11-.81-.36-.37-.77-.15-1.32.5-1.23.31.04.77.97.78 1.56 0 .53.17.47.26-.09.04-.24.18-.51.34-.67l.26-.26-.3-.61c-.81-1.58-.23-3.61 1.17-4.14 2.49-.92 3.75-.39 5.11 2.15.96 1.81 1.55 2.31.79.67-.23-.49-.56-1.38-.73-1.98C8.58 2.05 8.11.93 7.7.32 7.53.07 7.51 0 7.63 0c.19 0 .69.78 1.02 1.56.13.32.24.52.25.42 0-.21-.26-1.57-.35-1.8C8.5.05 8.53 0 8.64 0c.09 0 .16.06.16.12 0 .09.04.08.1-.02.12-.18.3.01.3.32 0 .09.05.4.11.68l.11.51.35-.35c.2-.19.62-.48.94-.62.33-.15.59-.31.59-.36s.04-.07.09-.04.14-.01.21-.09a.46.46 0 0 1 .34-.14c.11 0 .15.03.09.06-.33.13-.06.23.61.23.56 0 .75-.04.8-.15.03-.1.19-.15.45-.15.41 0 .51.11.51.54 0 .36 1.09 1.38 1.16 1.09.05-.19.11-.22.33-.16.3.07.31.09-.52-.9-.28-.33-.43-.57-.35-.57.15 0 .53.38.81.79.16.24.16.23.1-.27-.04-.36-.02-.52.06-.52.06 0 .11.02.11.05 0 .13.32 1.61.37 1.68.15.25.44-.44.32-.77-.22-.62.34-1.13.74-.68.3.33.11.92-.29.92-.12 0-.44.54-.44.75 0 .19.68.03.78-.19.06-.14.26-.29.46-.36.53-.17.8-1.24.34-1.33-.13-.02.19-.05.69-.06.62-.01.93.03.93.1s.1.09.28.04c.68-.18 2.52-.13 2.52.07 0 .26.62 1.68.71 1.62.07-.04.2.26.24.56.05.49.17.51.46.05.16-.25.42-.54.58-.63.21-.12.31-.26.35-.53.07-.41.45-.79.8-.79.42 0 .66-.12.66-.33 0-.19.01-.2.2-.02.18.16.2.16.2.02 0-.11.08-.17.21-.17.14 0 .19.05.16.14-.03.08.01.17.09.2.28.11.35.07.24-.14-.08-.16-.08-.2.04-.2.08 0 .16.06.18.14.03.14 1.15 1.36 1.24 1.36s.02-.48-.15-.97C28.84.03 28.84 0 29 0c.13 0 .21.14.3.47l.12.48.24-.47c.18-.35.3-.48.46-.48.2 0 .2.01.04.19-.51.57-1.1 2.61-.76 2.61.38 0 .7-.32.7-.68 0-.37.26-1.33.5-1.84.11-.24.19-.28.53-.28.3 0 .37.03.29.12-.18.23.06.56.57.82.55.28.81.58.81.93 0 .28-.04.28.66-.04.35-.16.74-.26 1.01-.25.63 0 .6-.32-.09-1.31-.19-.27-.19-.27.01-.27.11 0 .22.09.26.2s.1.18.15.15c.04-.02.11.1.14.28l.07.32.25-.47c.16-.32.31-.48.44-.48.19 0 .19.01-.01.35-.24.4-.25.4.31.2.23-.08.5-.15.59-.14.09 0 0 .06-.2.14-1.33.49-1.36.79-.04.55 1.17-.21 1.17-.09 0 .15-.97.21-1.1.3-.95.69.16.43.12.72-.15 1.05l-.26.3.22.12c.24.12 1.66.07 2.03-.07.17-.07.15-.09-.15-.2-.27-.1-.29-.13-.11-.13.12-.01.39.06.59.14.19.08.48.15.64.15.15 0 .39.04.53.09.33.13.61-.26.52-.73-.03-.17.01-.49.09-.71a3 3 0 0 0 .15-.62c.01-.61-1.25-1.29-1.56-.84-.17.24-.36.28-.27.06.03-.09-.03-.25-.13-.36l-.19-.21.6.07c1.39.16 1.81.52 1.71 1.5-.04.33-.08.81-.1 1.06s-.11.58-.21.72c-.16.25-.16.28 0 .43.09.1.21.28.26.41.06.16.16.23.34.23.15 0 .36.11.51.28.14.15.4.42.57.61l.32.33.03-.25c.02-.18-.1-.42-.42-.81-1.39-1.7-.36-3.88 1.83-3.88 2.99 0 3.59 4.04.69 4.66-.26.06-1.18 1.18-1.18 1.44 0 .05.18.49.4.97s.4.97.4 1.1c0 .23.01.23.47.09 1.49-.45 3.36.76 2.94 1.92-.08.23-.09.39-.02.52.17.31-.25.99-1.21 1.95-1.05 1.04-1.19 1.43-.38 1.02.27-.14.5-.29.5-.34 0-.43.93-.78 1.2-.46.26.31 1.13-.61 1.33-1.41.13-.51.42-.71.8-.52.12.06.17.05.17-.05 0-.08.07-.2.15-.27.11-.09.13-.23.09-.5-.1-.64.24-.96.81-.74.59.23.39 1.14-.25 1.14-.39 0-.64.36-.55.82.09.47-.29.83-.78.75-.31-.05-.37-.01-.75.48l-.41.52.66-.2c.63-.19 2.78-2.09 3.22-2.84.09-.16.1-.15.11.09 0 .2-.15.41-.62.85-1.71 1.59-1.74 1.65-.64 1.57l.84-.07.16.31c.22.43.2.57-.1.81-.48.38-.94.12-.94-.52 0-.27-.02-.29-.28-.22-.15.04-.5.09-.78.1-.61.03-1.79.4-2.02.65-.09.09-.3.24-.47.33-.49.25-1.01.85-.87.99.31.31.13.87-.36 1.12-.37.19-.44.41-.09.31.48-.15 1.15-.58 1.1-.7-.17-.46.67-.84.99-.45.4.49.14.95-.49.88-.31-.04-.47.02-.88.29-.27.18-.51.29-.53.24-.05-.16-1.91.24-2.06.45-.14.18-.12.19.37.21.68.04 2.26.21 2.55.29.24.07.33-.2.1-.29-.19-.07.78-.2 1.04-.14.36.08.88-.57.58-.73-.14-.08-.2-.08-.2 0 0 .06-.05.08-.1.05-.1-.06-.38.01-1.62.39-.38.12-.48.12-.48.02 0-.08.43-.26 1.06-.45 1.3-.4 1.64-.91 1.19-1.77-.38-.74.2-1.44.8-.94.38.32.22 1.2-.22 1.2-.07 0-.13.1-.13.23 0 .12-.03.33-.07.46l-.06.25.29-.21c.16-.11.37-.23.48-.26.15-.06.16-.1.06-.22-.26-.32.18-1.05.63-1.05.62 0 .76.83.2 1.11l-.32.16.24.11c.31.14.33.54.05.82-.26.26-.7.27-.7.01 0-.33-.25-.44-.59-.26-.26.13-.29.18-.19.31.32.37.54.55.78.6.98.22 1.54.79 1.2 1.24-.17.23-.17.24.04.41.4.32.44-.16.1-1.26-.25-.79.2-1.43.75-1.08.2.13.25 1.01.06 1.23-.19.23-.28 1.05-.09.89.15-.12.22.3.07.45s-.19 1.03-.07 1.6c.05.21.08.25.15.15.06-.09.09.01.09.31v.45l-.74-.81c-4.55-4.94-13-3.42-15.65 2.83-1.23 2.89-.84 6.61.96 9.05l.46.62.19-.69c.36-1.32.83-1.66 2.25-1.64 1.84.04 2.55-.28 2.05-.9-.18-.23-.45-.64-.59-.91-.19-.37-.32-.5-.48-.5-.39 0-.62-.42-.57-1.03.01-.1.13-.22.26-.27.29-.11.23-.39-.34-1.71-.6-1.36-.04-3.51 1.04-4.01.23-.1.23-.11.09-.71-.38-1.61.36-2.53 2.01-2.48 1.43.03 2.71.49 3.02 1.07.15.27.23.34.39.29.61-.2.65-.19.65.13 0 .18-.1.43-.26.61-.24.29-.25.31-.06.31.39 0 .54.27.36.62-.16.31-.09.47.22.48.76.01 1.47 2.4 1.09 3.66-.05.16.06.35.44.79.88 1 .72 1.87-.39 2.2-.13.04-.32.18-.42.3-.39.5-1.4.72-1.85.4-.29-.21-.38.09-.3 1.02.09 1.17.88 1.78 3.61 2.78.58.21 1.12.66 1.2 1.01l.07.27.26-.24c.14-.13.43-.46.64-.72.35-.43.39-.46.39-.24 0 .46-1.15 1.77-2.1 2.39l-.45.29.65-.07c.74-.07.7-.07.91-.05.43.03.25.72-.23.92l-.29.12.31.15c.63.3.94.87.64 1.16-.26.27-.55.18-1-.28-.6-.63-.87-.76-.77-.39.25 1.01-.43 1.74-.93.98-.15-.23-.18-.24-.34-.1-.63.57-1.16-.1-.85-1.1.08-.27.13-.51.1-.53-.1-.1-.45.12-.45.28 0 .21-.36.5-.62.5-.11 0-.18.08-.18.2 0 .11-.09.28-.19.37-.16.13-.17.2-.08.41.14.3-.26.68-.83.78-.74.12-.74.1-.21.79 1.4 1.82 1.4 5.15.01 5.15-.53 0-.7-.2-.7-.81 0-.51-.15-.64-.4-.35-.17.21-.64.34-1.5.42-1.4.13-2.03-.03-2.49-.62-.18-.23-.21-.24-.21-.08 0 .25.26 2.52.4 3.55.12.84 0 2.09-.21 2.35-.4.48-1.57.33-1.98-.25-.21-.29-.27-.31-.8-.31-1.03 0-2.24-.87-2.72-1.95-.24-.54-.33-.6-.61-.41-.56.39-1.51.07-2.28-.76l-.46-.5-.18.46c-.23.61-.52.82-1.43 1.02l-.75.16.06.52c.09.73-.07 1.46-.38 1.72-.44.39-2.41.82-3.15.69-.24-.04-.41-.02-.46.04-.26.44-1.1-.1-.99-.64.12-.65-.46-1.21-.65-.62-.23.68-1.05 1.24-2.06 1.39-1.32.19-1.68.19-2.22-.01Zm1.42-.11c.24-.09.25-.11.11-.37-.07-.16-.21-.63-.31-1.05-.09-.43-.22-.78-.29-.78-.22.01-.59.27-.47.34.32.2.05.86-.35.86-.49 0-.74-.68-.33-.9.16-.09.18-.14.08-.26-.09-.11-.09-.21-.01-.39.09-.2.05-.36-.29-1.05-.21-.45-.39-.88-.39-.96 0-.19-.24-.28-.54-.2l-.24.06.05 1.12c.04.89.02 1.21-.1 1.5-.4.94 1.93 2.52 3.08 2.08Zm1.32-.26c.65-.22 1-.48 1.22-.92l.19-.37-.32-.1c-.63-.2-.2-1.55.45-1.38.24.07.27-.38.04-.57s-.19-.76.07-1.02c.12-.12.36-.6.53-1.07l.32-.86-.3-.07c-.33-.07-.45-.2-.54-.6-.06-.29-.23-.39-.23-.13 0 .07.05.37.11.64.18.85-.27 2.51-.74 2.72-.54.24-1.37-.68-1.37-1.53 0-.33-.14-.67-.24-.57-.44.44-.71 3.61-.4 4.89.26 1.12.39 1.22 1.21.94Zm3.69-.04c1.21.02 2.72-.36 3.05-.78.49-.62.09-3.18-.63-3.94l-.31-.33-.12.48c-.06.26-.2.56-.29.66-.11.12-.14.21-.07.26.2.12.12.65-.14.9-.54.55-1.31.23-1.22-.5.04-.38.01-.45-.29-.68l-.32-.27-.21.63c-.12.34-.23.83-.26 1.1-.16 1.5-.17 1.37.09 1.37.34 0 .61.33.47.59-.22.4-.81.56-.81.21 0-.16.07-.2.3-.2q.3 0 .3-.15c0-.24-.57-.19-.7.06-.21.39-.04.72.33.65.18-.04.55-.07.83-.06Zm14.12-.3c.31-.29.28-.63-.18-1.92-.48-1.34-.79-2.52-.81-3.05s-.13.08-.38 2.22c-.11.88-.22 1.69-.26 1.8-.18.62 1.15 1.39 1.63.95Zm-15.24-1.66c.04-.53.17-1.2.35-1.72l.28-.84-.26-.64c-.31-.77-.32-.77-.55-.11-.1.28-.21.58-.23.65-.03.06.02.12.1.12.19 0 .57.47.57.7 0 .29-.39.7-.67.7-.24 0-.25.02-.18.38.03.2.08.61.1.9.03.51.19.87.35.77.04-.02.1-.43.14-.91Zm1.28.8c-.26-.18-.3-.69-.06-1.02.2-.29.76-.3 1.04-.02.59.59-.28 1.53-.98 1.04Zm12.05-.15c.07-.14.22-1.07.33-2.07.31-2.79.24-3.62-.31-3.62-.15 0-.31-.04-.34-.1-.03-.05-.25-.1-.49-.1-.39 0-.66-.13-.66-.32 0-.04.1-.07.22-.05.19.02.23-.04.29-.42.03-.25.14-.5.25-.6.3-.24.45-.47.6-.88.12-.36.13-.36.14-.1 0 .34-.13.61-.51 1.05-.31.35-.39.88-.17 1.1.19.19.28.14.17-.11-.18-.4.03-.74.58-.9.54-.15.61-.14.43.08-.11.13-.11.23-.01.51.07.18.09.39.06.45-.04.06-.04.31 0 .56.09.63.25.37.25-.42 0-.52.6-4.38.76-4.88.03-.11-.01-.19-.13-.23-4.89-1.68-6.96-3.97-7.1-7.86-.07-1.73-.03-1.7-.73-.61-2.09 3.27-6.46 5.58-8.18 4.33-.23-.17-.42-.33-.42-.38-.01-.04-.25-.33-.54-.65l-.54-.58-.98.2c-1.67.35-2.86.51-3.67.51-.92 0-.91-.02-.21.62.64.6 1.21 1.39 1.58 2.24.15.32.25.48.22.34-.15-.73-.26-1.63-.22-1.68.13-.12.29.61.32 1.48.02.55.11 1.13.2 1.39.18.47.16 1.36-.08 3.49-.15 1.28-.02 1.54.52 1.08.39-.32.5-.27.5.24 0 .95.48 1.38 1.09.96.65-.46.87-.19.76.93-.08.81.15 1.11.87 1.11.56 0 .66-.27.49-1.28-.13-.74-.12-.77.09-.94.36-.29.7-.03.7.54 0 .26.03.28.43.28.64 0 .87-.29.97-1.2.09-.86.35-1.24.64-.95.2.2.22 1.46.05 2.69-.18 1.27.23 2.29.83 2.07.44-.16.53-.66.38-2.1-.14-1.43-.1-2.3.15-2.68.16-.24.16-.25-.21-.57-.47-.4-.54-1.05-.16-1.55.12-.16.22-.39.22-.49 0-.44-1.26-2.52-1.43-2.36-.03.03-.24-.04-.47-.16s-1.17-.41-2.08-.65c-2.53-.66-4.6-1.38-4.76-1.64-.1-.16-.04-.14.96.19 1.18.4 1.2.38.12-.14-.5-.24-.94-.49-.98-.55-.09-.14.68.16 2.15.85.79.37 1.63.66 2.66.93.82.21 1.6.44 1.74.5.13.07-.06-.15-.44-.49-.59-.55-.97-1-.83-1 .52 0 2.92 2.72 3.38 3.82.25.62.37.79.6.87.65.23.89 1.25.42 1.8-.24.29-.26.36-.19 1.04.11 1.31.09 1.27.79 1.29.36.01.43-.12.52-.89.08-.83.26-1.07.54-.74.11.13.2.28.2.35 0 .06.18.38.4.71.38.57.4.64.4 1.38 0 .78-.15 1.05-.26.48-.06-.29-.54-.84-.71-.82-.04.01-.08-.02-.08-.06 0-.05-.04-.14-.08-.2-.16-.25.08-.12.45.24l.38.37v-.46c0-.34-.05-.51-.18-.6-.1-.07-.3-.37-.44-.66l-.27-.53-.06.48c-.13.96-.34 1.53-.6 1.63-.67.25.82 1.6 1.76 1.6.45 0 .5.03.98.57.28.31.51.52.51.46 0-.07-.04-.15-.1-.18-.21-.13-.11-.85.15-1.1.35-.36 1.05-.35 1.33 0l.2.25.07-.55c.03-.3.03-.79 0-1.08-.15-1.16.38-1.86.92-1.23.13.15.23.39.24.54.01.25.01.25.1-.07.17-.58.2-.27.03.35-.88 3.34-.84 2.94-.4 3.89.71 1.54 2.5 2.54 2.93 1.64Zm-20.84-.2c.24-.39 0-.72-.49-.65-.49.06-.58-.04-.19-.22.46-.21.94-.03.96.37 0 .09.04.04.09-.11.04-.15.03-1.26-.03-2.48-.08-1.7-.08-2.57.02-3.75.07-.92.09-1.93.05-2.51-.05-.72-.04-.95.05-.9.06.04.11.17.11.28 0 .12.13.42.29.67s.35.68.42.94c.16.57.27.39.28-.48v-.5l-.14.3-.13.3-.01-.3c-.01-.16.06-.43.14-.59.47-.9-.18-3.41-1.22-4.75-1.48-1.9-5.59-1.94-7.19-.08-1.76 2.06-1.55 8.76.24 7.51.27-.19.28-.39.03-.61-.26-.21-.09-.63.25-.63.31 0 .4.21.47 1.05.08.84.28 1.1.86 1.1.91 0 .96-.31.3-1.71-.47-1.01-.89-2.02-.89-2.14 0-.03.28.47.61 1.1.96 1.79 1.14 1.86.9.34-.12-.79-.08-.92.14-.41.1.23.15.7.15 1.29 0 .51.07 1.4.15 1.98s.15 1.42.15 1.86c0 .93.1 1.1.6.99.57-.13.64-.38.54-1.93-.19-2.93-.08-3.57.59-3.5.63.06.87 1.49.67 3.96-.28 3.53-.24 4.02.33 4.3.3.15.78.1.9-.09Zm23.03-1.64c-.08-.27-.3-.95-.5-1.5-.48-1.35-.48-2.03 0-4.13.68-2.99.73-3.42.41-3.42-.18 0-.28.41-.62 2.31-.52 2.98-.44 4.72.33 7.04l.47 1.4.03-.6c.01-.33-.04-.82-.12-1.1Zm-30.69.87c1.66-.85 2.2-2.13 1.64-3.93-.59-1.89-1.94-.9-3.07 2.26-.22.6-.3.73-.32.54-.04-.37.51-1.81 1.08-2.79.34-.6.45-.87.37-.92S7.9 43 8.01 43c.24 0 .65-.6.48-.71-.09-.06-.15-.04-.17.06-.02.09-.2.15-.55.17s-.51.07-.49.16c.01.06-.05.12-.14.12-.08 0-.12.04-.09.1s.01.1-.05.1-.41.18-.78.4c-.36.22-.84.45-1.05.51-.66.18-.81 1.31-.29 2.3.4.77.97 1.71 1.17 1.93.28.3 1.42.18 2.22-.22Zm11.29-2.71c.22-.78.24-.95.13-1.02-.26-.16-.81-.09-1.28.16-.25.13-.58.29-.73.34-.45.17-.33 1.1.29 2.2l.36.64.14-.26c.23-.46.53-.3.53.28 0 .75.16.47.22-.4.05-.55.2-1.42.34-1.94Zm9.71 1.73c.63-.25.99-1.24.46-1.24-.5-.01-1.07-.36-1.68-1.02-.55-.59-.64-.65-1.09-.7l-.48-.06.05.39c.04.29.18.53.54.93.36.39.55.7.67 1.12.1.33.19.65.22.72.05.16.79.08 1.31-.14Zm3.72-.08c.53-.64 1-4.26.56-4.26-.25 0-.3.24-.36 1.65-.06 1.43-.23 2.07-.67 2.58-.14.16-.13.17.1.17.14 0 .31-.06.37-.14Zm-1.09-.32c-.19-.48.01-.65.22-.19.14.32.22.31.36 0 .32-.7-.02-1.34-.63-1.19-.57.14-.68.81-.24 1.39.26.33.41.32.29-.01Zm-7.04-.66c-.08-.18-.17-.52-.21-.75-.04-.24-.11-.45-.16-.49-.16-.1-.1-.55.12-.86.22-.3.25-.58.19-1.63-.04-.61-.16-.38-.25.5-.06.52-.12.64-.46.99-.5.5-.37 1.09.48 2.14.41.51.46.52.29.1ZM38.8 45c-.21-1.51.19-3.27.82-3.61.31-.17.31-.04 0 .29-.34.36-.52.91-.52 1.59 0 .82 1.04 1.56 1.94 1.39.17-.03.59-.07.93-.09.74-.04 1.54-.47 1.32-.73-.17-.2.04-.18.31.04.18.14.24.32.28.76.05.65.24.84.66.65 1.07-.49.51-3.91-.84-5.13-.65-.58-.68-.59-1.46-.21-.38.18-.7.32-.71.31-.07-.07.65-.51.99-.61l.39-.11-.48-.26c-.45-.25-2.14-.87-2.75-1.02-.21-.05-.28-.03-.28.09 0 .08-.22 1.21-.5 2.5-.6 2.8-.6 2.96-.19 4.53.17.62.21.46.09-.38Zm-26.83-.68c-.09-1.8-.15-1.92-.55-1.05-.44.95-.42 1.28.09 1.87.54.61.53.64.46-.82Zm6.4-.28c.42-.24 1-.31 1.31-.15.42.22.82.02.82-.41 0-.22-.03-.38-.07-.36-.96.49-1.73.24-1.73-.56 0-.29-.15-.52-.24-.37s-.49.14-.64-.01c-.09-.09-.12-.08-.12.04 0 .08.07.21.15.28.21.18.19.33-.05.27-.15-.04-.2 0-.2.14s.07.19.25.19c.14 0 .25.04.25.1 0 .05-.09.09-.2.07-.14-.01-.28.11-.47.43-.17.28-.2.4-.1.31.19-.15.24-.02.06.16-.4.4.21.32.98-.13Zm-12.72-.63c1.32-.63 1.94-1.47 1.95-2.62 0-.95-.28-1.07-1.33-.58-.93.44-2.35.5-2.99.12-.39-.23-.49-.19-.62.23-.07.23-.26 2.57-.21 2.62.49.5 2.36.63 3.2.23Zm.43-3.42c.64-.31 1.18-.88 1.26-1.33.09-.43.24-1.91.21-1.94-.04-.04-1.29.78-2.25 1.48-.75.55-1.1.74-1.1.62 0-.09 1.9-1.5 2.92-2.17.9-.59.81-.69-.59-.63l-1.16.05-.59.64c-.63.69-1.47 2.25-1.55 2.91-.11.8 1.51 1.01 2.85.37Zm-3.53-.7c.55-.28 1.28-1.52 1.59-2.71.17-.66.19-.65-.51-.29-.84.43-1.07.5-1.82.57-.37.03-.9.11-1.17.18l-.49.12-.03 1.23-.03 1.23.98-.04c.81-.02 1.07-.07 1.48-.29Zm25.05-.18c0-.17 1.07-1.07 2.08-1.74.55-.36 1.17-.81 1.37-.98s.39-.29.42-.25c.13.12-.73.88-1.82 1.61-.6.4-1.26.9-1.44 1.09-.33.34-.61.47-.61.27Zm15.2-.21c0-.05-.19-.15-.42-.22-.3-.09-.44-.2-.52-.39-.07-.21-.2-.3-.53-.38-.58-.15-.54-.21.1-.14.86.09 1 .09 1.04-.03.03-.08-.16-.15-.49-.19-.29-.04-.87-.18-1.28-.31l-.75-.24-.36.42-.37.42 1.11.34c.6.18 1.35.44 1.66.57.61.26.81.3.81.15Zm5.84-.87-.06-.63h.26c.2 0 .41.15.76.5.51.52.9.66.9.31 0-.22-.31-.46-1.1-.86-.3-.15-.7-.38-.88-.52-.4-.3-.86-.25-.57.07.12.14.15.35.13.95-.03.66 0 .79.16.91.35.25.48 0 .4-.73Zm-3.38-.93c.93-.16 2.04-.59 2.04-.79-.01-.51-.12-.64-.3-.33-.78 1.28-4.67 1.36-6.58.13-.52-.33-1.04-.85-1.47-1.46-.17-.23.06-.04.56.47.46.47 1.03.96 1.26 1.07.62.31.63.26.02-.18-.58-.41-.98-.91-1.23-1.53-.22-.51-.04-.57.19-.05.58 1.31 2.27 2.28 3.98 2.28 2.38 0 3.13-.46 3.56-2.18.31-1.22.21-1.67-.14-.6-.9 2.81-4.18 3.53-6.44 1.42-.54-.5-.66-.77-.76-1.68-.16-1.39-.64-1.97-1.65-1.97-1.39 0-2.3 1.96-1.34 2.87 2.27 2.14 5.27 3.05 8.3 2.53Zm-7.66-.16c0-.03-.34-.37-.75-.75-.74-.7-1.77-1.87-1.4-1.59.11.08.69.63 1.3 1.23 1.01 1 1.12 1.08 1.4 1.03.53-.11.65-.34.31-.59-1.17-.87-1.82-1.46-2.41-2.21-.48-.6-.75-.86-.9-.86-.25 0-.96-.5-1.18-.84-.11-.16-.3-.26-.59-.31-.6-.1-.78-.21-.94-.61-.27-.66-.4-.47-.18.27.28.94.54 1.31 1.84 2.64.7.71 1.35 1.45 1.46 1.64.27.48 2.04 1.3 2.04.95Zm7.44-.97c1-.46 1.73-1.37 1.9-2.37.07-.35.06-.35-.65-.75-1.16-.65-1.59-1.28-1.59-2.34v-.44l-.29.41c-.73 1-1.88 1.43-2.76 1.03-.4-.18-.42-.18-1.26.03l-.86.22.24.35c.22.34.52 1.47.53 1.97.01 1.5 3 2.69 4.74 1.89Zm3.19.07c1.34-.68 1.64-1.12 1.15-1.69-.22-.25-1.35-.78-1.49-.69-.2.12-.5 1.82-.39 2.23.13.49.08.48.73.15Zm-13.04-.21c-.6-.77-1.02-1.22-1.62-1.7-.94-.76-1.38-1.48-1.86-3.03-.1-.33-.1-.32-.07.2.12 1.62 1.23 3.31 2.82 4.27.76.46.93.52.73.26Zm-29-.29c.11-.14.25-.4.31-.59.07-.2.19-.35.3-.37.23-.04-.15-1.03-.44-1.14-.25-.1-.92.33-1.1.7-.45.95.34 2.16.93 1.4Zm-1.03-2.2c-.03-.09-.06-.19-.06-.24s-.28-.25-.62-.46c-.35-.21-.8-.55-1-.77l-.38-.4.24.7c.44 1.29.48 1.33 1.3 1.33.49 0 .57-.02.52-.16Zm.87-.11c.28-.06.35-.17.16-.28-.05-.04-.34-.44-.63-.88-.29-.45-.84-1.2-1.22-1.67-.93-1.14-1-1.3-.18-.45.36.39.99 1.14 1.38 1.68l.71.99.03-.37c.18-2.07-2.21-4.64-3.28-3.5-.85.91.87 3.94 2.25 3.95.14 0 .16.03.08.11-.17.17.05.62.26.54.09-.04.28-.09.44-.12Zm19.48-.2c.93-.44 1.68-1.05 3.09-2.5 1.98-2.02 2.46-2.95 2.94-5.63.35-1.96.36-2 .47-2 .05 0 .09.14.09.31 0 .91 1.43-.17 2.13-1.61 1.24-2.55.15-4.82-1.45-2.99-.54.62-.68.71-.68.4 0-.1-.07-.24-.15-.31-.22-.18-.19-.33.04-.2.3.16.35.13.71-.38l.33-.47-.31.29c-.51.47-.49.22.03-.31.4-.41.46-.45.41-.23l-.05.25h.8l.8.01.24-.79c.27-.84.29-1.09.18-2.08l-.08-.64-.06.5c-.04.28-.04-.17-.01-1 .08-2.46-.31-3.5-1.88-5.03-1.54-1.52-3.04-2.32-5.15-2.78-.61-.13-1.77-.38-2.6-.56-3.13-.69-4.75-.46-5.79.83-.35.43-.65.68-1.1.91-1.37.68-1.67 1.02-2.39 2.68-.13.3-.43.78-.66 1.05-.72.85-1.46 2.75-1.08 2.75.1 0 .52-.89.72-1.5.17-.54.62-1.26.72-1.16.03.03-.09.3-.27.62-.18.31-.34.71-.35.88-.01.18-.19.67-.4 1.09l-.38.76.22.53c.14.34.26.92.32 1.61.11 1.18.25 1.68.62 2.22l.24.35.06-1.41c.13-2.78.67-3.98 1.82-4l.5-.01-.5-.12c-.58-.14-1.35-.52-1.35-.66 0-.05.28.01.63.14.69.26 1.57.41 1.57.27 0-.05-.06-.11-.12-.14-.07-.02.12-.05.42-.06.74-.03 1.31-.14 1.3-.26 0-.05-.17-.08-.38-.07-.31.02-.34.01-.19-.09.1-.06.25-.08.33-.05.17.06.18-.03.04-.4-.21-.55.11-1.62.88-2.87.55-.9.51-.58-.08.65-.76 1.56-.81 2.19-.21 2.7.51.43.51.46-.01.5-.35.02-.43.07-.43.23 0 .22-.48.43-1.01.44-.18.01-.39.1-.49.21-.21.24-.37.26-.29.05.11-.28-.68-.04-.95.29-.08.09-.21.14-.31.11-.43-.14-.8 1.42-.8 3.41 0 2 .01 2.04.6 2.04.5 0 1.92.24 2.48.41.3.1.54.5.39.66-.04.03-.79-.02-1.67-.12-1.86-.2-1.8-.22-1.44.44.27.51.57.7.47.31-.06-.22.15-.28.34-.09.08.08.11.06.1-.07-.02-.16.06-.19.5-.22 1.02-.06 1.77.37 2.23 1.28.33.64.32.65-.84.67-.58.01-1.12.05-1.21.1-.29.17-.75.03-.88-.26-.2-.43-.21 1.26-.02 2.02.22.89 1.58 3.52 2.38 4.6.38.51.91 1.3 1.18 1.76 1.1 1.84 1.56 2.15 3.1 2.08.81-.03 1.06-.09 1.6-.34Zm-15.37-.13c.63-.3.8-.34 1.79-.38l1.1-.05.46-.48c.47-.49.99-.66 1.16-.39.04.06-.06.1-.24.1-.3 0-1.01.55-1.01.79 0 .18 1.11.13 1.74-.09 1.3-.45 1.69-.73 2.1-1.58.43-.88.58-1.08 1.04-1.41.29-.21.32-.25.19-.4-.08-.09-.17-.33-.21-.53-.04-.21-.1-.38-.13-.38-.31 0-1.26.37-1.43.55l-.22.23.22.3c.2.27.21.35.12.79l-.1.48-.01-.52c-.02-.74-.35-.97-1.25-.88l-.63.07-.23.49c-.57 1.27-1.28 1.3-3.91.15-.12-.05-.15 0-.12.31l.03.38-.14-.43c-.24-.73-.51-.92-.62-.44-.14.55-.44 1-1.11 1.62-1.1 1.02-1.26 1.51-.48 1.43.4-.05.47-.03.77.29.18.2.35.35.38.34s.36-.17.74-.36Zm-2.49-.77c.03-.18.21-.46.41-.66l.36-.35-.36-.48c-.2-.26-.39-.58-.42-.71-.08-.32-.21-.2-.29.25-.04.27 0 .51.14.86.18.41.19.49.07.62-.18.17-.3.02-.21-.26.03-.1 0-.32-.08-.47l-.15-.27-.11.39c-.24.87-.15 1.61.22 1.78.32.16.32.16.35-.11.01-.15.05-.41.07-.59ZM7 30.42c.34-.9.34-.97-.09-1.05-.18-.04-.42-.22-.63-.48-.64-.81-.75-.89-1.15-.89-.21 0-.55-.09-.76-.2-.63-.34-1.8-.29-2.43.11-.4.26-.45.27-.29.09.11-.13.34-.29.5-.36.32-.13.32-.13-.24-.3-.3-.09-.03-.12.39-.04.25.05.67.09.93.1h.48l-.35-.34c-.19-.19-.39-.51-.46-.7-.13-.4-.3-.45-.84-.22-.85.36-1.38 1.16-1.17 1.78.08.23.08.41.01.63-.14.43.01.81.41 1.03.17.09.38.23.47.3.18.15.17.15-.35-.04-.14-.05-.14-.03.02.08.43.32 1.37.9 1.31.8-.37-.6-.22-2.03.25-2.27 1.44-.75 3.34 1.17 3.48 3.52l.05.98.07-.85c.05-.59.17-1.11.39-1.68Zm11.6 1.72c1.06-.18 1.9-.42 1.9-.53 0-.14-1.15-1.84-1.38-2.04-.42-.38-1.2.27-1.66 1.38-.16.39-.35.77-.43.86-.14.16-.17.41-.07.52.06.06.38.02 1.64-.19ZM43.42 31c.69-.46 1.47-1.66 1.48-2.25 0-.11.07-.34.16-.5s.24-.54.34-.83c.2-.63.35-.68.34-.1-.02.71.22.19.36-.81.3-2.07-.15-3.96-1.03-4.39-.26-.12-.26-.13-.11-.54.42-1.21.02-1.85-1.41-2.22-1.21-.32-2.02-.2-2.3.35-.09.16-.2.27-.26.24-.05-.04-.07-.11-.04-.16.14-.22-.14-.06-.4.22-.32.37-.32 1.26 0 1.75.19.3.14.54-.13.54-.79 0-1.71 2.26-1.32 3.25l.12.3.14-.47c.08-.26.19-.5.24-.53.06-.03.1-.15.1-.26 0-.17.03-.18.23-.08.2.11.21.11.08-.05-.19-.23-.05-.33.17-.13.16.15.23.15.56.04.35-.12.37-.14.2-.27-.1-.08-.15-.1-.11-.04.1.16-.25.28-.35.12a.8.8 0 0 1-.08-.33c0-.17.02-.17.1-.05.09.13.1.13.1 0s.01-.13.1 0c.08.12.1.11.1-.07 0-.13.04-.23.1-.23s.1.09.1.2c0 .46.94.72 1.53.42.26-.14.37-.16.37-.07 0 .07.09.15.19.18.12.03.21.15.23.33.02.19.14.36.38.52.42.28.47.39.23.44-.13.03-.02.12.35.31.28.15.52.32.52.38 0 .05.04.08.09.04.18-.1.23.16.16.73-.07.51-.09.54-.17.32-.38-.96-.42-1.02-.83-1.21-.29-.14-.47-.32-.63-.62-.17-.34-.21-.37-.21-.19-.02.44-.21.11-.21-.35s-.11-.54-.15-.11c-.04.38-.05.39-.15.33-.05-.03-.1-.18-.1-.33v-.27l-.77.01c-.53.01-.91.07-1.18.19-.22.1-.46.19-.53.19-.81.05-.7 1.96.1 1.96.13 0 .33.07.44.15.18.15.15.15-.33.1-.45-.06-.53-.04-.53.09 0 .11.09.16.29.16.5 0 .81.17.81.44 0 .24-.21.36-.67.36h-.22l.18.65c.18.62.28.81.96 1.72.61.81 1.45.97 2.27.43Zm-21.56.02c-.42-.14-.57-.27-.99-.85l-.49-.67.21-.33c.52-.84 1.81-1.13 3.03-.68 1.04.39 1.44.51 1.81.56l.37.06-.45.59c-1.08 1.4-2.12 1.79-3.49 1.32Zm11.94-.07c.07-.09.19-.14.25-.11.1.03.1-.07 0-.47-.07-.29-.16-.64-.19-.8-.05-.23-.1-.26-.31-.21-.29.07-.95-.29-.95-.53 0-.08-.13-.27-.29-.42-.37-.34-.71-.9-.71-1.16-.01-.36-.18.06-.26.62-.04.33-.02.53.05.57.06.04.11 0 .11-.11 0-.15.04-.14.2.07.23.3.28.59.06.41-.11-.09-.15-.04-.2.29-.07.46.09.78.49 1 .26.14.33.3.14.3-.06 0-.2-.05-.32-.11l-.22-.12.2.23c.47.54 1.68.87 1.95.55Zm-24.71-.44c.27-.33.51-.8.51-.98 0-.03-.08.01-.17.09-.48.41-.42.25.16-.4.61-.69.63-.73.51-1.01-.06-.17-.1-.36-.07-.43s.06-.03.06.08c.01.34.25.48.44.26.46-.51.88-2.44.49-2.23-.32.17-.35.14-.29-.29.05-.43.68-1.49 1.12-1.9.35-.33.31-.18-.14.48-.45.67-.74 1.22-.68 1.28.08.08.62-.67 1.02-1.39.39-.71 1.01-1.45 1.12-1.34.03.04-.14.37-.39.74-1.06 1.59-1.26 1.97-1.33 2.53-.04.3-.1.7-.15.88-.07.28-.06.33.07.28.48-.19.67-.16.31.03-.39.22-.82.74-.76.92.04.12 1.33-.87 1.81-1.38l.28-.3-.25-.38c-.38-.56-.23-2.2.25-2.69.2-.22.21.08.01.49-.26.55-.27.57-.05.53.11-.02.19.07.25.3.11.4.2.4.88-.03.67-.43.88-.46.31-.05-.71.52-.12.71.75.25.5-.27.79-.31.89-.15.04.06-.07.1-.25.1-.25 0-.42.1-.78.48-.25.26-.37.37-.27.25l.18-.23h-.44c-.24 0-.6-.03-.81-.06-.5-.09-.78.37-.53.85.22.43-.27 1.04-1.55 1.93-.25.17-.25.17.1.04.19-.08.66-.19 1.04-.25.73-.13 1.06-.25 1.06-.41 0-.34.69-.83 1.21-.86.3-.01.41 0 .24.02-.72.11-.99.4-1.33 1.39-.05.16-.13.38-.17.47-.13.33 1.09.46 2.39.26.11-.02.29-.13.41-.25.12-.11.49-.29.81-.39.79-.24.81-.26.5-.78-.31-.53-.35-.54-.65-.22-.42.45-.72.51-1.41.27-.34-.12-.71-.19-.81-.16-.11.04-.19.02-.19-.06 0-.11.27-.1 1.46.07.36.05.44.02.77-.29l.37-.34-.18-.41c-.16-.39-.32-.55-.32-.33 0 .05-.15.2-.33.32l-.32.22.36-.36c.36-.36.36-.38.23-.74-.07-.21-.13-.51-.14-.67 0-.21-.04-.27-.16-.22-.08.03-.12.02-.09-.03s-.05-.13-.17-.16c-.13-.04-.37-.2-.54-.36l-.3-.29-1.02.17c-.56.09-1.05.14-1.08.1-.15-.14.11-.27.56-.27.65 0 1.5-.19 1.5-.33 0-.07.17.07.38.3.56.64.92.68.92.12 0-.24.03-.54.06-.66.14-.52-.98-.79-2-.48-.27.08-.51.13-.53.11-.03-.02.05-.07.17-.11s.19-.12.16-.2.07-.17.25-.24c.22-.07.28-.07.23.01s.01.09.17.05c.13-.04.39-.07.58-.07.29 0 .32-.02.21-.15-.18-.21-.03-.19.32.06l.3.22-.17-.33c-.09-.18-.25-.35-.36-.37-.21-.06-.25-.19-.08-.25.07-.02.05-.22-.06-.62l-.17-.59-1.07.06c-2.2.11-4.01 1.07-5.26 2.77-.52.72-1.47 2.5-1.41 2.66.06.17.05.17-.28.04-.25-.09-.26-.08-.26.28 0 .2-.04.52-.1.71-.09.32-.09.33.18.26.34-.08.32-.05.53-.67.16-.49.38-.69.31-.3-.12.75-.47 1.22-.89 1.22-.23 0-.78.54-.69.68.03.05.27.13.53.17.3.04.42.1.33.15-.16.1-.76.03-1.06-.12-.15-.07-.28-.06-.44.02l-.23.13.24.13c.13.07.47.18.74.25.54.13.65.22.65.56 0 .62.72 1.93 1.05 1.93.07 0 .27-.17.44-.39Zm15 .06c.21-.14.53-.44.72-.68l.33-.42-.64.07c-.36.03-1.29.09-2.07.13-1.34.06-1.41.07-1.3.24.15.24 1.68.27 2.43.04.57-.17.64-.18.64-.06 0 .2-.89.44-1.85.5-.93.06-.98.07-.75.2.68.39 1.88.38 2.49-.02Zm-10.13-.51c.32-.32.45-.66.25-.66-.04 0-.46-.25-.92-.56-.97-.65-1.07-.65-2.29-.17-.92.37-.95.45-.28.79 1.82.94 2.73 1.11 3.24.6Zm27.19-.55c-.03-.1-.01-.38.04-.62.06-.24.11-.79.11-1.22v-.78l.72-.34c.76-.37 1.01-.41 1.42-.25.42.16.31.3-.17.24-.33-.05-.56-.01-.92.15-.26.11-.54.21-.61.21-.08 0-.14.08-.14.18-.01.54-.09 1.62-.15 1.95l-.07.37h.37c.37 0 .37-.01.31-.31-.07-.39.14-.35.27.04.13.4-.06.57-.64.57-.38 0-.49-.04-.54-.19Zm5.35-.02c.13-.07.12-.08-.02-.09-.1 0-.18-.04-.18-.1 0-.05.05-.1.11-.1.05 0 .07-.05.03-.12-.05-.08-.02-.09.09-.05.1.03.17.02.17-.03 0-.06.08-.1.18-.1 1.27 0 1.74-.83.97-1.7-.25-.28-.45-.56-.45-.62 0-.09-.03-.09-.12 0-.21.21-.27.13-.17-.2.12-.44.13-.43-.21-.44-.32-.01-.6.47-.6 1.06 0 .45-.39 1.42-.68 1.68-.2.19-.22.26-.12.32.11.07.11.12.02.23-.29.35.47.55.98.26ZM.73 29.3a.92.92 0 0 1-.07-.63c.04-.17.06-.58.05-.91-.03-.81.11-1.09.8-1.55.33-.22.56-.41.52-.44-.44-.21-1.25-.39-1.56-.33l-.37.07v3.88l.33.1c.17.05.35.1.39.1.03.01 0-.13-.09-.29Zm23.7-.07c.15-.09-.9-.53-1.45-.6-.31-.04-.53-.01-.63.07-.11.09-.22.09-.45.01-.39-.13-.53-.07-.86.37l-.28.35 1.78-.06c.98-.04 1.83-.1 1.89-.14Zm9.33-2.37.09-1.04-.34.14c-.18.08-.35.14-.37.14s-.04.07-.04.15-.06.15-.14.15c-.39 0-.43.73-.05.85.26.08.24.25-.02.25-.28 0-.08.27.24.33.55.11.53.13.63-.97Zm-27.58.8c1.24-.65 1.52-2.17.6-3.22-1.52-1.73-4.54-.05-3.59 2.01.47 1.03 2.09 1.68 2.99 1.21Zm14.86-.37c-.98-.19-1.22-.82-.68-1.75.5-.85.45-2.99-.09-4.1-.22-.45-.16-.73.09-.4.7.97.84 3.54.25 4.64-.38.71-.34 1.04.13 1.22.29.11 2.76.08 2.94-.04.23-.14.14-.78-.15-1.08-.33-.34-.23-.49.15-.21.86.64.46 1.65-.68 1.69-.3.01-.75.05-1 .07-.25.03-.68.01-.96-.04Zm-15.4-.58c-.06-.26-.1-.3-.3-.25-.56.14-.91-.29-.55-.65L5 25.6l-.3-.46c-.28-.44-.31-.64-.1-.64.05 0 .19.18.3.4.25.5.32.5.28.03-.02-.29.01-.38.15-.41s.17.04.17.32c0 .43.21.48.38.1.14-.29.36-.22.26.08-.05.18-.03.2.15.15q.21-.045.21.09c0 .19-.33.34-.6.27-.2-.05-.21-.04-.11.16.14.25.57.3.47.05-.04-.1-.01-.14.06-.12.23.08.21.39-.01.45-.16.04-.2.11-.16.24.05.14.02.17-.09.13s-.15.01-.13.22c.03.38-.22.43-.29.05Zm26.66-.31c0-.05-.08-.14-.18-.2-.15-.1-.14-.1.05-.05.5.14 2.17-1.05 1.88-1.33-.03-.03-.05 0-.05.06 0 .2-.47.45-.66.34-.15-.09-.15-.1.07-.17.41-.12.69-.46 1.15-1.37.24-.47.57-1.08.74-1.34.46-.72.41-1.13-.11-.87-.39.19-.59.5-.59.9 0 .18-.05.33-.1.33a.1.1 0 0 1-.1-.1c0-.05-.18.1-.4.33-.21.24-.57.52-.8.63-.25.12-.4.26-.4.37 0 .14-.05.17-.19.12-.14-.04-.21 0-.26.15-.1.32-.25.23-.15-.1.05-.17.05-.3 0-.3-.24 0-.55 2.42-.33 2.63.1.1.43.08.43-.03Zm-29.5-.94c0-.36.17-.74.51-1.17.21-.27.26-.39.16-.39-.08 0-.2-.07-.27-.15-.08-.1-.25-.15-.44-.13-.22.02-.3-.01-.28-.11.02-.07-.05-.22-.14-.32-.21-.23-.09-.46.14-.26.38.32.45.29.19-.06-.26-.34-.31-.68-.1-.67.04 0 .21.22.37.48.3.49.46.44.27-.1-.12-.35-.09-.43.14-.35.08.04.15.16.15.29 0 .17.03.19.12.1.17-.17.38-.15.38.04 0 .09-.09.18-.2.21-.26.07-.26.25.01.41.12.08.18.19.15.28-.03.08-.02.13.03.09.05-.03.12-.19.16-.36.08-.36.3-.33.3.05-.01.18.03.25.13.21.07-.03.31-.05.53-.05.5 0 .54-.37.1-.96-.68-.93-1.27-1.2-1.68-.76l-.25.27.08-.29.07-.29-.49.08c-1.7.25-2.34 1.64-1.53 3.31.33.69 1.39 1.14 1.39.6Zm44.39-1.55c-.23-.66-.48-1.04-.81-1.22-.2-.11-.2.22.01.74.06.16.09.33.06.37-.03.05.08.24.25.43.36.42.39.55.06.34-.22-.15-.24-.15-.19.02.03.1.16.24.29.3s.3.23.36.38c.25.57.22-.62-.03-1.36Zm-38.83.22c.73-1.33 1.28-2.07 2.07-2.77l.61-.55-.29-.31c-.58-.61-.9-.75-1.22-.52-.38.25-.61.33-.68.22-.04-.06 0-.1.07-.1.23 0 .72-.46.66-.62-.16-.4-1.89-.5-3.14-.17-.66.17-2.58.98-3.69 1.56-.6.31-.9.72-.39.53 1.29-.5 2.97.33 3.34 1.65.1.35.2.5.44.62.44.22.95.72 1.17 1.16.29.55.41.47 1.05-.7Zm24.34-1.25c0-.06.1-.22.22-.35.27-.29.2-.36-.21-.22-.54.19-.55-.01-.06-.75.25-.38.45-.76.45-.84 0-.26-.43-.92-.6-.92-.2 0-.53-.34-.43-.43.03-.04.12-.02.19.04.21.18.47.02.79-.49.64-1.01 1.69-.19 1.36 1.06-.09.33-.16.2-.26-.43-.09-.61-.21-.85-.41-.85-.12 0-.14.05-.08.18.64 1.43.73 2.89.18 2.68-.08-.03-.15 0-.16.07 0 .07-.02.17-.03.22-.02.06-.03.15-.04.21-.03.32-.91 1.11-.91.82Zm-7.05-.57c-.05-.08-.43-.12-1.18-.11l-1.12.02.02-.36c.09-1.45 1.99-2.42 3.52-1.8.18.08.45.14.58.14.21 0 .24.04.19.23-.05.21-.03.23.27.2l.32-.04-.23.18c-.45.35-1.29 1.18-1.35 1.33-.03.09-.06.1-.06.02-.02-.21-.41-.14-.41.08s-.15.27-.23.08c-.04-.1-.08-.1-.15.01-.07.1-.11.1-.17.02Zm-23.76-1 .19-.4-.73-.7c-1-.98-1.84-.96-.92.02.17.19.5.6.72.9.48.67.49.68.74.18Zm35.87-1.36c.32-.25 1.02-.65 1.54-.9.52-.26 1.02-.5 1.1-.54.18-.1.26-1.05.11-1.43-.09-.24-.15-.26-.55-.25-.41.02-.49-.02-.85-.4a2.36 2.36 0 0 0-.9-.58c-.33-.11-.58-.27-.76-.51-.23-.3-.31-.34-.74-.34-1.02 0-1.07.03-1.14.78-.04.38-.2 1.01-.37 1.45-.27.7-.3.83-.2 1.13.07.19.09.41.06.49-.05.13-.02.13.17.01.12-.07.43-.19.69-.26s.45-.16.43-.21c-.03-.04 0-.11.06-.15.08-.04.09-.03.05.04-.14.23.08.12.41-.2.18-.18.33-.4.33-.49 0-.1.04-.21.1-.24.19-.12.1.33-.15.69l-.24.36h.39c.66 0 .54.18-.17.25-.71.08-1.89.4-1.97.54-.28.45-.18 1.19.23 1.6.22.22.41.47.41.54 0 .31.16.24.75-.34.34-.33.88-.8 1.21-1.04Zm-35.29.25c-.86-.54-1.76-2.4-1.17-2.4.05 0 .07.07.04.14-.13.34.25 1.23.71 1.65.71.66.82.68 1.53.32.82-.41.82-.6.02-1.01-1.13-.57-1.76-1.46-1.68-2.39.03-.32.05-.28.22.37.2.78.49 1.23.97 1.47.42.22.51.19 1.13-.31.64-.53.85-.54 1.39-.03l.32.31-.33-.26c-.19-.14-.37-.26-.42-.26s-.16-.03-.26-.07c-.12-.04-.15-.03-.1.05.04.07.01.12-.08.12-.08 0-.3.13-.48.28-.18.16-.42.34-.52.39-.18.1-.17.12.13.27.4.21.57.55.42.84-.1.19-.06.19.54-.09.92-.41 2.37-.78 3.29-.83.15-.01.26-.2.5-.91.47-1.36 1.09-2.15 2.38-3.03 1.26-.86 1.71-.83 2.71.17.85.85.87.84.43-.34-.14-.39-.26-.92-.26-1.19 0-.82-1.57-2.99-2.26-3.12-.41-.08-.7.09-.89.49l-.15.32.05-.3c.08-.43.51-.78.87-.71.46.09.33-.11-.4-.62-.75-.53-1.52-1.28-1.52-1.48 0-.08-.11-.14-.25-.14-.37 0-.25.63.2 1 .52.44.66 1.17.35 1.98-.19.5-.27 1.61-.15 1.94.04.09.17.13.41.1s.32-.08.26-.16c-.13-.16-.24-.66-.15-.66.05 0 .15.18.24.39.13.31.29.46.67.65.68.34.76.51.12.26-1.51-.6-3.07.32-3.69 2.17-.41 1.22-.24 1.95.5 2.18.1.04.19.13.19.21 0 .18-.04.18-.42-.02l-.31-.16.22.27c.23.3.21.46-.04.25-.4-.33-.68-1.18-.61-1.85.04-.36.04-.65.01-.65s-.41.18-.85.4-.92.4-1.07.39c-.27 0-.27-.01.08-.14.19-.07.55-.23.8-.36l.44-.23-.34-.1c-.5-.15-1-.68-1.07-1.17-.05-.31-.1-.39-.23-.34-.09.04-.59.18-1.11.33-1.09.3-1.5.6-1.5 1.12 0 .31.31 1.03.5 1.15.06.04.07.11.04.17-.04.06-.02.08.04.04.06-.03.27.02.47.11.37.18.37.17.86-.1.69-.38 1.8-.17 2.36.45.12.14.01.1-.35-.13-.69-.43-1.43-.51-1.92-.2-.39.23-.71.27-1.02.1-.25-.13-.35-.05-.18.16.07.08.1.15.06.15-.03 0-.27-.32-.53-.72-.57-.85-.67-1.7-.27-2.25.24-.33 1.09-.56 1.23-.34.06.09.23.07.74-.1l.67-.22v-.48c0-.26.05-.51.1-.54.06-.04.1.16.1.53 0 .75.24 1.57.53 1.77s.4.19.27-.04c-.12-.24-.13-.91-.01-1.1.06-.1.02-.26-.15-.5-.34-.5-.32-.96.06-1.29.17-.15.3-.32.3-.4 0-.07.12-.39.27-.7.21-.45.28-.78.32-1.52.05-.86.07-.91.14-.51.04.24.23.65.41.9s.37.56.4.69c.04.12.23.34.42.48.53.41.74.83.74 1.48 0 .31.02.56.05.56.29 0 .54-.26.48-.49-.18-.65-.09-1.64.2-2.19.32-.62.3-.97-.1-1.5-.68-.91-.78-1.52-.24-1.52.09 0 .24-.09.34-.2.66-.78 4.29 1.1 5.4 2.8l.16.25.2-.25c.12-.14.3-.49.41-.78.42-1.09.68-1.48 1.41-2.04l.46-.35-.56-.25c-.83-.38-1.66-.47-1.8-.19-.1.18-.09.21.1.21.3 0 .59.28.59.57 0 .27-.41.73-.65.73-.18 0-.21.63-.05 1.05.17.45-.11.24-.58-.44-.24-.34-.7-.89-1.03-1.24-.32-.34-.59-.64-.59-.68 0-.29-1.94-.56-3.1-.42-1.19.15-1.88.47-2.55 1.18l-.54.58.3.28c.16.15.29.35.29.44 0 .14-.05.12-.21-.09-.11-.14-.27-.26-.34-.26-.08 0-.2-.09-.28-.2-.11-.16-.21-.19-.48-.14-.52.1-.65.2-1.09.79-.22.29-.62.76-.89 1.03s-.61.73-.76 1.01c-.2.4-.3.51-.43.46-.21-.06-.55.23-.78.66-.08.17-.36.59-.61.93-1.77 2.39-1.76 5.31.02 7.13l.63.65.32-.17.32-.16zm9.15.34.32-.17-.42-.36c-.75-.64-1.12-1.88-.74-2.48.04-.06.07.25.07.7 0 .95.11 1.18.84 1.72l.47.34.78-.25c1.35-.42 2.3-1.19 2.06-1.64-.18-.34-.3-.78-.39-1.51-.09-.69-.13-.76-1.01-1.72-.99-1.08-1.63-.93-3.57.87-.59.55-.69.71-1.18 1.97-.33.86-.34.84.31.98.42.1.58.18.66.37.06.13.18.26.27.29s.39.27.66.55c.27.27.51.5.53.5.01 0 .17-.07.34-.16Zm10.46-.25c-.51-.29-.07-.73 1.39-1.38 2.33-1.05 3.25-1.19 4.36-.69.82.38.78.63-.07.47-.81-.15-1.52.03-3.29.84-1.74.8-2.12.92-2.39.76Zm9.78-.21c-.09-.18-.15-.25-.12-.16.09.29-.11.3-.32.01-.11-.16-.31-.61-.46-1.02-.31-.86-.74-1.54-1.22-1.94-.19-.16-.34-.34-.33-.4.04-.25-.23-.68-.9-1.45-.55-.62-.71-.87-.71-1.11 0-.33-.23-.53-.72-.65-.16-.04-.28-.1-.28-.16 0-.05.12-.1.28-.12.26-.04.25-.05-.19-.26-.67-.32-1.66-.38-2.74-.17-.49.09-1.01.18-1.15.19s-.29.04-.35.07c-.53.3-2.05-.12-2.05-.58 0-.19.1-.16.38.1l.24.22-.21-.4c-.25-.47-.28-1.22-.06-1.51.14-.17.14-.13.09.48-.07.67-.07.67.29 1.03.31.31.78.5.62.25-.06-.1.33-.95.41-.88.02.02-.02.19-.08.36-.15.39-.01.6.28.44.11-.05.34-.07.51-.05.28.05.37 0 .69-.36.4-.44.66-.56.4-.19-.21.3-.2.38.05.38.34 0 1.05-.5 1.31-.92.13-.21.26-.38.3-.38.14 0-.13.57-.42.88l-.29.32h.44c1.04 0 1.74-1.22 1.3-2.28-.56-1.33-3.46-2.9-5.87-3.18-.5-.06-.9-.26-.77-.39.08-.08 2.36.43 2.99.67 2.98 1.14 4.54 2.82 3.95 4.25-.22.51-.63.93-.94.94l-.26.01.25.08c.4.13.44.12.9-.27.29-.25.39-.3.32-.16-.07.12-.23.3-.38.4l-.25.19.8.23c.46.13.96.21 1.17.19.32-.04.34-.03.18.09-.23.17-.47.16-1.08-.02l-.49-.15.19.21c.1.12.36.3.56.4.45.23.49.34.11.25-.47-.1.32.51.87.68.44.13.44.14.12.15-.18.01-.49-.06-.69-.14-.36-.15-.36-.15-.18.05.22.24 1.15.6 1.56.6.2 0 .28.04.23.11-.04.07-.29.1-.67.07l-.6-.04.24.18c.61.48.62.5.48.59-.11.06-.11.09.02.14.08.03.32.26.53.5.33.41.35.44.12.34-.14-.07-.23-.15-.21-.2.03-.04-.08-.14-.25-.23l-.3-.15.2.26c.11.14.4.38.65.54s.45.33.45.39-.04.08-.1.05-.1-.04-.1-.01c0 .02.16.14.35.26.38.23.52.6.15.4-.19-.1-.19-.1 0 .32.11.24.2.51.2.6s.2.33.45.54q.45.36.45.6c0 .33-.13.3-.34-.08Zm9.53-1.83c.53-.16.17-1.74-.44-1.93l-.37-.11.07.32c.03.18.09.67.12 1.1.04.66.08.77.22.73.09-.02.27-.08.4-.11Zm1.29-.3c.07-.07.14-.18.15-.26.02-.08.1-.25.2-.39l.17-.25-.64-.07c-.36-.03-.7-.09-.76-.13s-.1.18-.1.63v.7l.42-.05c.24-.03.49-.11.56-.18ZM1.16 16.67c-.26-1.2.44-2.63 1.6-3.28.3-.17.54-.35.54-.4s.06-.09.13-.09c.21-.01.92-.91.77-1-.09-.06-.04-.2.21-.59.52-.78 1.28-1.03 1.83-.6.34.27.27.35-.42.55-.56.16-1.6 1.05-1.92 1.64-.06.11-.42.36-.81.56-1.16.61-1.64 1.38-1.78 2.84-.07.7-.08.73-.15.37Zm42.52-.5c.81-2.04.62-2.96-.72-3.41-.32-.11-.1-.18.34-.11.5.08.97.46 1.08.87l.08.3.75-.8c.89-.94 1.16-1.41.93-1.58-.13-.1-.13-.16.02-.47.21-.45.14-.74-.32-1.21-.77-.79-1.6-.87-2.78-.28-.77.39-.97.35-.51-.08.39-.37.03-1.78-.71-2.77-.34-.46-1.85-.11-2.54.59-.63.63-.94 1.79-.51 1.93.25.08.71.44.71.55 0 .05-.23-.02-.51-.14-.55-.26-.85-.23-1.61.15-.92.47-.91 1.74.02 1.94.58.13.82.42.74.91-.05.33-.03.44.07.44.07 0 .09.03.06.06-.14.15-.38-.2-.35-.52.03-.4-.06-.51-.28-.33-.09.08-.44.27-.77.44-1.41.69-.81 1.84 1.18 2.25 1.42.29 1.61.21 1.67-.64.03-.51.11-.75.36-1.17.36-.57.36-.84 0-.74l-.23.06.24-.2c.21-.19.21-.21.05-.28-.16-.06-.16-.07-.01-.12.16-.06.15-.1-.04-.45-.25-.47-.19-.55.2-.26l.31.21-.09-.23c-.05-.13-.21-.46-.35-.73-.3-.58-.46-1.22-.28-1.11.07.04.12.16.12.26 0 .2.64 1.48.82 1.65.07.07.09.06.04-.02-.05-.09.01-.1.23-.03.27.08.29.06.36-.26.03-.19.1-.34.14-.34.05 0 .05.16.01.35-.1.45-.01.44.39-.05.34-.43 1.02-.83 1.29-.78q.165.045-.33.3c-.88.46-1.49 1.37-.91 1.38.21.01.21.01.01.16-.39.3.13 1.07 1.03 1.51.45.22.52.29.35.31-.22.03-.22.05-.08.32.08.16.15.37.15.47-.01.13-.04.11-.13-.09-.07-.14-.5-.66-.97-1.15-.67-.7-.77-.78-.49-.38.43.61.58.89.29.55-.71-.82-.8-.9-1.03-.9-.8 0-1.54 1.8-1.03 2.5.14.19.33.49.41.67.11.23.25.35.51.42.2.06.46.19.58.3.2.18 1.16.41 1.61.37.15-.01.26-.17.43-.59Zm-3.36.15c.1-.69-.32-1.28-.8-1.11-.32.11-.85.09-1.62-.07-.53-.11-.23.2.54.55.34.16.74.42.9.6.4.42.92.44.98.03Zm-33.07-.8c.05-.04.2-.27.31-.52.12-.25.4-.67.62-.94.75-.9.71-1.69-.13-2.57-.3-.32-.55-.64-.55-.72s-.1-.27-.22-.42l-.21-.27-.24.68c-.14.38-.29.85-.35 1.04-.05.19-.23.49-.39.65-.51.54-.22 1.34.48 1.36l.38.01-.31.1c-.8.26-.64 1.68.18 1.68.18 0 .38-.04.43-.08Zm23.15-.4c0-.08.2-.51.44-.95.68-1.28.79-1.71.74-2.99-.05-1.08.05-1.29.23-.52.13.56.11 1.42-.05 1.99-.23.88-1.35 2.9-1.36 2.47Zm6.25-2.65c.77-.28.84-.4.41-.67-.88-.54-.87-1.73.02-2.25.16-.1.28-.25.27-.34s0-.1.02-.03c.05.15.03.14.4.02l.3-.11-.16-.34c-.18-.42-.32-.44-.67-.07l-.26.27.16-.33c.26-.51.05-.37-.37.26-.21.31-.56.7-.77.85-.42.32-.63 1.15-.39 1.59.06.11.08.38.05.62-.1.62-.09.78.03 1.1l.12.29.17-.34c.13-.26.29-.38.67-.52Zm-21.96-1.43.31-.42-.29-.38c-.96-1.33-3.28-2.74-4.51-2.74-.77 0-.37.77.89 1.72.84.63 1.41 1.28 2.37 2.71l.46.69.24-.58c.13-.32.37-.77.53-1Zm-11.18-.86c.01-.07 0-.2-.01-.27-.01-.12.01-.13.13-.02.2.16.77-.33 1.24-1.07.19-.29.43-.58.53-.65.33-.2.24-.24-.58-.29-.52-.03-.93-.12-1.23-.26-.56-.27-.75-.28-.89-.03-.17.33-.12.41.28.41.46 0 .64.13.91.64l.2.4-.35.34c-.36.34-.56.7-.47.85.07.11.23.08.24-.05Zm31.74-.8c-.17-.81-1-1.52-1.3-1.12-.14.18-.15.18-.3-.04-.09-.12-.24-.22-.33-.22-.11 0-.02.15.29.47.25.27.58.65.74.86.39.53 1.01.56.9.05Zm1.35-.7c.38-.58.4-.63.24-.75s-.16-.13-.01-.13c.2 0 .24-.45.05-.57-.09-.05-.03-.09.16-.13l.3-.05-.67-.75c-.37-.41-.74-.94-.83-1.17-.14-.37-.21-.42-.56-.48-.51-.09-.55-.04-.67.77-.05.36-.15.77-.23.89-.31.55-.17 1.41.27 1.7.48.31.71.62.87 1.23l.12.45.27-.2c.15-.11.46-.47.69-.81ZM7.21 7.48c.11-.13.28-.33.36-.45s.36-.3.61-.39c.26-.09.52-.22.57-.28s.23-.13.4-.14c.41-.05.41-.03.02-.63-.19-.3-.53-.91-.76-1.37C7.43 2.27 6.22 1.8 3.98 2.5c-1.6.49-2.04 2.85-.83 4.44.55.72 3.51 1.11 4.06.54Zm33-1.12c.3-.08.67-.16.84-.18.41-.04.46-.35.08-.49-.15-.05-.43-.3-.61-.54-.41-.57-.86-.62-1.48-.16-.61.44-.74.64-.85 1.31-.12.78-.08.83.26.3.33-.52.44-.46.15.09-.16.32-.17.41-.06.41.1 0 .12.07.08.23-.04.17.07.11.5-.3.41-.38.7-.56 1.09-.67Zm-2.37.37c.03-.1.08-.36.12-.58.1-.62.3-.91.89-1.36.86-.65.41-1.19-1-1.19-1.57.01-2.23.78-1.56 1.81.4.6 1.12 1.39 1.05 1.14-.06-.2-.05-.2.1-.01.09.11.16.23.16.28 0 .15.19.08.24-.09Zm-19.09-.31.3-.15-.53-.12c-.93-.22-.86-.42.09-.25.57.1.64.1.76-.06.18-.25.16-.31-.11-.38-.31-.08-.83-.62-.98-1.03s-.16-.41-.7.07c-1.44 1.26-.51 2.78 1.17 1.92Zm15.06.08c.83-.45.57-1.49-.34-1.35-.7.11-1.13.35-.62.35.08 0 .15.03.15.08 0 .04-.33.07-.73.07-1 .01-1.57.29-.63.32.5.01.76.08 1.22.32.66.35.68.35.95.21Zm-20.76-.52c.14-.46.52-.66.9-.47.31.15 1.73-1.01 1.63-1.33-.09-.26-1.09-.51-1.51-.37-.48.16-.71.04-.75-.39-.06-.55.75-.7.99-.19.1.22 1.29.66 1.29.49 0-.42-1.22-1.61-1.45-1.42-.29.24-.8.08-.83-.26-.04-.4.22-.68.54-.6.22.06.23.04.13-.16-.44-.95-2.42-.99-3.74-.08-1.83 1.26-.82 4.66 1.46 4.91.52.06.96.13.98.15.13.12.28 0 .36-.28Zm3.59-.12c-.05-.31-.02-.54.1-.77.09-.17.16-.34.16-.35 0-.14-1.05-.55-1.08-.43-.03.08-.36.45-.73.83-.68.69-.8.88-.41.67.22-.12.67-.01.73.18.03.09.29.15 1.21.3.04 0 .05-.19.02-.43Zm14.01-.16c1.01-.58 1.47-1.47.99-1.94-.21-.21-.18-.23-.52.38-.3.53-.65.76-1.12.76-.17 0-.86.68-.77.76.03.03.75.31.86.33.02.01.27-.13.56-.29Zm-10.59-.65c.66-.45 1.32-.57 2.75-.53.71.01 1.29.01 1.29-.02-.01-.15-.3-.4-.63-.53-1.07-.45-2.07-1.81-1.57-2.12.06-.04.1.08.1.29 0 .42.42.95 1.09 1.38.78.49.91.31.42-.56-.16-.28-.41-.88-.55-1.33-.36-1.1-1-1.76-1.18-1.23-.02.06-.17.06-.42-.01-1.15-.32-2.42.38-2.76 1.51-.62 2.08.26 3.97 1.46 3.15Zm7.54 0c0-.31.41-.75.69-.75.18 0 .19-.02.05-.27-.18-.35-.18-.53.01-.8.18-.25.05-.39-.43-.49-.51-.1-.86.33-.79.99.05.57-.09.96-.44 1.21l-.22.15.24.05c.9.19.89.2.89-.09Zm5.44-.22c.98-.44 1.12-.55 1.41-1.14.13-.25.31-.51.4-.59 1.11-.92-.23-1.62-1.61-.85-.71.4-1.14 1.07-1.14 1.78 0 .47.07.46.55-.03.43-.44.56-.46.29-.05l-.18.28.24-.08c.52-.15.91-.38 1.15-.67.14-.16.25-.23.25-.16 0 .3-.83.92-1.4 1.03-.41.09-.95.44-1.17.75-.21.3.07.24 1.21-.27Zm9.67.05c.01-.61.18-.78.18-.2.01.46.03.53.19.48.09-.03.36-.1.6-.16 1.62-.42 1.97-2.61.57-3.54-2.38-1.58-4.88.89-3.04 2.99.63.72 1.49.96 1.5.43Zm-16.47.05c.04-.04-.14-.13-.41-.2l-.48-.12.58.04c.48.03.62 0 .78-.16.56-.56-.31-1.88-1.05-1.61-.18.07-.49.12-.7.12-.85 0-1.17 1.11-.45 1.56.39.23 1.6.49 1.73.37Zm3.4-.28c.11-.08.34-.15.51-.15.47 0 1.05-.68 1.05-1.23 0-.34-.67-.53-1.21-.33-.26.09-.6.16-.76.16-.76 0-.91.62-.3 1.24.49.51.46.5.71.31Zm-11.83-.68c.27-.21.28-.26.26-.85l-.02-.64-.4-.14c-.78-.27-.95-.21-.95.34.02 1.46.37 1.87 1.11 1.29Zm-1.62-.35c-.04-.26-.08-.55-.08-.64-.01-.1-.14-.3-.31-.45-.17-.14-.3-.31-.3-.37 0-.1-.99-1.03-1.27-1.19-.26-.16.41 1.09.84 1.57.24.27.55.71.69.97.13.26.29.49.36.52s.13.06.14.06c0 .01-.03-.2-.07-.47Zm26.21-.06c0-.18-.04-.25-.12-.2s-.09-.03-.05-.29c.03-.23.01-.38-.06-.41-.07-.02-.04-.05.07-.05.15-.01.16-.04.06-.16s-.09-.15.05-.15c.11 0 .15-.05.11-.15-.03-.08-.01-.15.04-.15.06 0 .1.08.11.18 0 .1.03.12.06.05.07-.19.23-.16.23.04 0 .15.02.16.1.03.07-.1.1-.11.11-.03.01.07.02.19.03.26.01.06.09.11.19.11.19-.02.23.11.07.21-.06.03-.1.15-.1.26 0 .19-.38.41-.62.36-.07-.01-.12.03-.13.1-.01.25-.15.25-.15-.01Zm-10.2-.71c.59-1.03.16-1.85-.89-1.71-.77.11-1.06.45-.93 1.11.04.26.05.26.19.05.34-.48 1.11-.09.98.5-.06.27.09.56.32.6.01 0 .16-.25.33-.55Zm-4.9-.3c.25-.16.91-.08 1.21.14.55.41.71-.35.24-1.16C28.14.5 25.71.3 25.4 1.26c-.16.49.15 1.19.58 1.27.16.03.43.19.58.35l.29.29.17-.27c.09-.15.22-.31.28-.35Z"/></svg>