<svg xmlns="http://www.w3.org/2000/svg" width="51" height="51" viewBox="0 0 51 51"><path fill="#fff" fill-rule="evenodd" stroke="#fff" stroke-width=".409" d="M5.62 33.37c-.5-.19-.98-.62-1.21-1.1-.32-.65-.33-12.74-.02-13.36.26-.5.81-.97 1.28-1.1.56-.16 39.38-.15 39.84 0 .57.19 1 .59 1.25 1.14l.25.53-.03 6.24-.03 6.25-.3.48c-.22.36-.45.57-.84.77l-.53.28-19.67-.01c-14.86 0-19.74-.03-19.99-.12Zm39.94-.83c.72-.53.67-.01.65-7.01-.02-6.82 0-6.52-.58-6.9-.32-.21-38.97-.34-39.72-.13-.2.05-.5.24-.66.4l-.3.31-.03 6.22c-.03 6.56-.03 6.54.44 6.98.39.37.24.37 20.56.35l19.37-.01zm-29.82-1.03c-.02-.02-.04-.56-.05-1.2l-.01-1.16-.21 1.15-.22 1.15-.47.03c-.45.03-.48.02-.48-.22 0-.14-.04-.28-.1-.31-.06-.04-.1.07-.1.24 0 .3-.01.31-.5.31-.27 0-.5-.03-.5-.07 0-.05-.09-.6-.2-1.23-.27-1.58-.29-1.5.25-1.5h.45l.01.48.01.47.1-.47.1-.48h.88l.01.42.02.43.06-.4.06-.4 1.33-.03 1.32-.03v.81h-.45c-.35 0-.43.03-.39.15.04.09.19.15.41.15.55 0 .46.63-.09.68s-.5.29.07.34c.49.03.48.04.6-.62.04-.19.14-.61.22-.93l.16-.58.56.03c.53.03.56.04.62.33l.07.3.01-.32.01-.33 1.4.01h1.4v.5c0 .31.04.48.1.44.06-.03.1-.26.1-.51v-.44h.9v2.8h-.9V31c0-.27-.04-.5-.1-.5s-.1.23-.1.5v.5h-.9v-2.07l-.25.05c-.25.04-.25.06-.25 1.03v.99h-.9v-2h-.25c-.14 0-.25.02-.25.04 0 .05.27 1.39.35 1.74.05.2.02.22-.4.22-.38 0-.45-.03-.45-.2 0-.14-.07-.2-.21-.2-.12 0-.23.08-.26.2-.04.16-.15.2-.57.22-.97.04-1.98.03-2.02-.01Zm14.75-.2c-.28-.29-.29-.29-.23-.05.06.23.04.24-.39.24-.36 0-.46-.04-.5-.2a.27.27 0 0 0-.26-.2c-.14 0-.21.06-.21.2 0 .17-.07.2-.45.2h-.46l.07-.38c.04-.2.19-.82.33-1.37l.26-1h1l.27 1.05.27 1.05v-1.08l.01-1.08.42.03.43.03.03 1.03c.04 1.35.22 1.34.22-.02v-1.05l1.8-.01h1.8v.45c0 .25.05.45.1.45s.1-.2.1-.45v-.45h.9l.01.48c.01.46.01.46.1.15.26-.9 1.62-.87 1.94.04l.14.38.01-.52v-.53h.8c1.14 0 1.18.04 1.18 1.59l.01 1.22-.42-.03c-.41-.03-.42-.04-.45-.43-.05-.62-.22-.67-.22-.07v.52h-.9l-.01-.47c-.01-.43-.02-.45-.09-.19-.28.92-1.57 1.01-1.95.13l-.14-.32-.01.43v.42h-.9V31c0-.27-.05-.5-.1-.5s-.1.23-.1.5v.5H34v-2h-.5v2h-.9v-1c0-.93-.01-1-.2-1-.18 0-.2.07-.2.7 0 .84-.13 1.16-.53 1.3-.52.18-.86.12-1.18-.19Zm-23.89-.8c0-.96-.01-1-.22-1.03-.19-.02-.23-.09-.23-.38v-.35l1.38-.03 1.37-.03v.46c0 .25.05.45.1.45s.1-.2.1-.45v-.45h.9v2.8h-.9V31c0-.27-.05-.5-.1-.5s-.1.23-.1.5v.5H8v-2h-.6v2h-.8zm3.5-.41v-1.41l.88.03.87.03v.35c0 .34-.01.35-.42.38-.51.04-.58.22-.1.22.42 0 .44.02.39.45-.04.32-.07.35-.38.35-.24 0-.34.05-.34.15 0 .11.12.15.45.15.45 0 .45 0 .45.35v.35h-1.8zm13.2 0v-1.4h1.8v.8h-.45c-.54 0-.6.18-.07.22.6.05.63.68.03.68-.34 0-.41.03-.41.2s.07.2.45.2c.45 0 .45 0 .45.35v.35h-1.8zm1.9 0v-1.4h.75c.67 0 .79.03 1 .25.29.28.34.85.1 1.05-.14.12-.14.15 0 .3.09.1.15.36.15.68v.52h-.9V31c0-.27-.04-.5-.1-.5s-.1.23-.1.5v.5h-.9zm15.1 0v-1.4h3.48l.08.33.07.32.14-.32c.12-.3.17-.33.59-.33.53 0 .53.02.03 1.02-.2.39-.29.73-.29 1.05 0 .63-.09.75-.51.71l-.34-.03-.05-.65c-.07-.82-.31-1.3-.65-1.3-.25 0-.25 0-.25 1v1h-.9v-2h-.5v2h-.9zm-8.55 1.05c.23-.22.25-.31.25-1.25v-1h-.25c-.25 0-.25 0-.25.99 0 .75-.04 1.01-.15 1.11-.32.27-.45-.05-.45-1.11 0-.99 0-.99-.25-.99h-.25v1c0 1.16.18 1.5.8 1.5.19 0 .4-.09.55-.25Zm5.9.01c.42-.42.42-1.68-.01-2.11-.38-.38-1.18-.13-1.34.43-.37 1.33.55 2.48 1.35 1.68Zm-30.43-.83.03-.98.28-.03c.19-.02.27-.09.27-.23 0-.17-.08-.19-.75-.19-.68 0-.75.02-.75.2 0 .15.07.2.25.2h.25v1c0 .93.01 1 .2 1 .18 0 .2-.08.22-.97Zm1.48.47c0-.49.01-.5.3-.5s.3.01.3.5c0 .47.02.5.25.5h.25v-2.4h-.24c-.23 0-.25.05-.28.48s-.05.47-.31.5-.27.02-.27-.47c0-.48-.02-.51-.25-.51H8.2v2.4h.25c.23 0 .25-.03.25-.5Zm3 .35c0-.11-.12-.15-.45-.15-.45 0-.45 0-.45-.35 0-.33.02-.35.35-.35.46 0 .49-.27.03-.32-.29-.03-.33-.07-.36-.36-.03-.32-.03-.32.42-.32.39 0 .46-.03.46-.2 0-.18-.07-.2-.7-.2h-.7v2.4h.7c.56 0 .7-.03.7-.15Zm2.31-.56c.18-.89.32-.89.42.01.09.68.1.7.36.7.27 0 .28-.02.45-.98.09-.54.19-1.08.23-1.2.04-.19.01-.22-.21-.22-.24 0-.26.03-.26.43 0 1.23-.34 1.41-.46.25-.06-.63-.08-.68-.3-.68-.13 0-.24.01-.24.03 0 .15-.31 1.71-.35 1.75-.08.09-.17-.26-.24-1-.05-.66-.08-.73-.29-.76-.26-.04-.26-.12-.02 1.22.11.6.2 1.11.2 1.13s.13.03.29.03c.27 0 .29-.03.42-.71Zm3.29.56c0-.11-.12-.15-.45-.15-.45 0-.45 0-.45-.35 0-.34.01-.35.4-.35.54 0 .56-.27.02-.32-.34-.03-.37-.06-.4-.36-.03-.32-.03-.32.42-.32.39 0 .46-.03.46-.2 0-.18-.07-.2-.7-.2h-.7v2.4h.7c.56 0 .7-.03.7-.15Zm.83-.05c.04-.15.14-.2.4-.2.27 0 .37.05.42.2.06.19.45.29.45.13 0-.05-.1-.59-.22-1.2l-.21-1.13h-.39c-.45 0-.41-.07-.71 1.33l-.24 1.07h.22c.14 0 .25-.08.28-.2Zm2.37-.8v-1h.25c.18 0 .25-.05.25-.2 0-.18-.07-.2-.75-.2s-.75.02-.75.2c0 .15.07.2.25.2H20v2h.5zm1.4.5c0-.49.01-.5.3-.5s.3.01.3.5c0 .47.02.5.25.5H23v-2.4h-.25c-.23 0-.25.03-.25.5 0 .49-.01.5-.3.5s-.3-.01-.3-.5c0-.47-.02-.5-.25-.5h-.25v2.4h.25c.23 0 .25-.03.25-.5Zm3 .35c0-.11-.12-.15-.45-.15-.44 0-.45 0-.45-.34 0-.31.03-.34.4-.4.26-.04.4-.11.4-.21 0-.11-.11-.15-.4-.15-.38 0-.4-.02-.4-.3 0-.29.02-.3.45-.3.38 0 .45-.03.45-.2 0-.18-.07-.2-.7-.2h-.7v2.4h.7c.56 0 .7-.03.7-.15Zm1-.35c0-.46.02-.5.24-.5.27 0 .36.16.36.66 0 .27.04.34.2.34.26 0 .3-.93.05-1.08-.14-.07-.13-.11.05-.27.54-.49.13-1.05-.77-1.05h-.63v2.4h.25c.23 0 .25-.03.25-.5Zm2.83.3c.04-.15.14-.2.42-.2s.38.05.42.2c.03.13.14.2.28.2h.23l-.23-.92c-.13-.51-.26-1.05-.29-1.2-.05-.24-.11-.28-.41-.28s-.36.04-.41.28c-.03.15-.16.69-.29 1.2l-.23.92h.23c.14 0 .25-.07.28-.2Zm4.57-.79v-1l.28-.03c.65-.07.29-.33-.5-.36-.73-.03-.78-.01-.78.18 0 .16.06.2.3.2h.3l-.06 1-.07 1h.53zm1.4.49c0-.49.01-.5.3-.5s.3.01.3.5c0 .47.02.5.25.5h.25v-2.4h-.25c-.23 0-.25.03-.25.5 0 .49-.01.5-.3.5s-.3-.01-.3-.5c0-.47-.02-.5-.25-.5h-.25v2.4h.25c.23 0 .25-.03.25-.5Zm4.2 0c0-.46.02-.5.25-.5s.45.42.45.88c0 .06.09.12.2.12.27 0 .3-.84.03-.99-.17-.09-.17-.1 0-.28.5-.56.1-1.13-.8-1.13h-.63v2.4h.25c.23 0 .25-.03.25-.5Zm2.1-.7v-1.2h-.5v2.4h.5zm1.33.2-.06-1h.31c.25 0 .32-.04.32-.2 0-.18-.07-.2-.75-.2s-.75.02-.75.2c0 .15.07.2.25.2h.25v1c0 1 0 1 .25 1h.24zm1.79.63c-.02-.2.1-.62.32-1.14.43-.98.41-.89.13-.89-.19 0-.26.09-.38.47-.19.62-.35.65-.45.06-.08-.42-.12-.48-.37-.51-.33-.04-.33-.07.03.7.22.45.3.78.3 1.16 0 .5.02.53.23.5.18-.02.21-.08.19-.35Zm-7.26.01c-.19-.18-.22-1.24-.06-1.55.29-.54.7-.09.7.76s-.26 1.18-.64.79Zm.39-.27c.11-.43.01-1.22-.15-1.22-.15 0-.28 1.01-.16 1.31.08.22.25.16.31-.09Zm-18.95-.29c0-.96.34-1.13.46-.24.07.45.06.46-.2.46-.2 0-.26-.05-.26-.22Zm10.58.17c-.07-.07.14-1.15.23-1.15.1 0 .29.66.29.98 0 .21-.36.33-.52.17Zm-2.98-.89c0-.41.12-.51.4-.36.32.17.24.64-.12.68-.26.03-.28.01-.28-.32Zm13.05.23c-.14-.22.05-.59.3-.59.28 0 .43.33.25.55-.14.17-.46.2-.55.04ZM6.23 27.63c-.1-.04-.13-.94-.13-4.04V19.6l15.06.02 15.05.03-.01 3.94c0 2.17-.03 3.98-.06 4.02-.05.09-29.7.11-29.91.02Zm31.95-.11-.98-.03v-5.67l.73-.92c.39-.51.78-1.01.86-1.11.39-.53.41-.36.43 3.69l.03 3.87 1.5-1.88c1.91-2.4 2.25-2.9 2.25-3.32 0-1.12-1.52-1.08-1.67.04l-.06.42-.96-.03-.96-.03.03-.5c.14-2.75 4.12-3.52 5.36-1.03.53 1.07.32 2.06-.74 3.46-.39.51-.7.94-.7.97s.38.05.85.05h.86l-.03 1.03-.03 1.02h-2.9c-1.59 0-3.34-.01-3.87-.03Zm-2.79-.08.61-.07V19.8H6.3v7.7h14.24c7.82 0 14.51-.03 14.85-.06ZM39 23.58c0-2.07-.04-3.68-.09-3.62-.04.05-.4.5-.8 1.01l-.71.91v5.42H39zm5.8 2.92v-.8h-.9c-1.1 0-1.09.03-.2-1.16 1.41-1.86 1.49-3.15.27-4.19-1.59-1.36-4.09-.44-4.42 1.63l-.07.42h1.6l.06-.34c.12-.64.73-1.06 1.32-.92.69.18.96 1.05.53 1.76-.18.29-2.8 3.68-3.27 4.22-.14.17-.02.18 2.46.18h2.62zm-31.13-.3c-.72-.13-1.35-.48-1.68-.93l-.29-.4v1.23h-5l.02-2.42.03-2.43h2l.03 1.68.02 1.67h2.8l-.06-.54c-.14-1.17.36-2.15 1.34-2.63.73-.36 2.91-.42 3.74-.1 1.91.74 2.06 3.68.24 4.57-.68.33-2.22.48-3.19.3Zm7.08.03c-1.92-.25-2.85-1.63-2.34-3.47.67-2.43 6.29-2.17 6.29.29v.27l-1.07-.05c-1.03-.05-1.07-.06-1.29-.35-.71-.9-1.84-.31-1.84.95 0 1 1.5 1.44 1.81.53l.11-.3h1.19c1.32 0 1.31-.01 1.03.66-.48 1.17-1.95 1.73-3.89 1.47Zm-4.23-.39c1.04-.36 1.42-1 1.37-2.28-.05-1.05-.33-1.52-1.18-1.93-.87-.43-2.9-.42-3.76.02-1.61.82-1.68 3.26-.12 4.04.83.41 2.73.49 3.69.15Zm7.68.21c0-.03.25-.63.56-1.33s.74-1.67.96-2.17c.63-1.44.51-1.35 1.77-1.35 1.3 0 1.05-.26 2.22 2.33l.94 2.09.05-2.19.05-2.18h2l.03 1.68.02 1.67h2.8v1.5h-7l-.1-.25c-.09-.24-.12-.25-1.04-.25s-.94.01-1 .25c-.06.25-.07.25-1.16.25-.61 0-1.1-.02-1.1-.05Zm-.68-.33c.46-.23.75-.58.97-1.15l.11-.27h-1.99l-.16.3c-.33.64-1.55.62-1.96-.03-.31-.49-.23-1.46.15-1.86.5-.52 1.56-.48 1.86.08.18.34 2.05.32 1.95-.01-.48-1.62-4.06-2.09-5.37-.71-.8.84-.78 2.55.05 3.32.72.65 3.33.85 4.39.33Zm-12.02-.37v-.55H8.6l-.02-1.68-.03-1.67h-1.6l-.03 2.23-.02 2.22h4.6zm14.8.3c.09-.25.11-.25 1.19-.25s1.09 0 1.15.25c.06.24.09.25.97.25.81 0 .9-.02.85-.17-.16-.49-1.89-4.18-1.99-4.25-.2-.13-1.82-.09-1.99.05-.12.09-1.48 3.04-1.95 4.25-.04.09.16.12.81.12.83 0 .87-.01.96-.25Zm9.1-.3v-.55h-2.8l-.02-1.68-.03-1.67-.4-.03c-.22-.02-.59-.01-.82.03l-.43.06v4.39h4.5zM14.36 25c-1.17-.35-1.1-2.43.1-2.66 1.03-.19 1.64.31 1.64 1.34 0 1.13-.67 1.64-1.74 1.32Zm.96-.2c.48-.14.58-.33.58-1.14 0-1.53-1.96-1.64-2.16-.13-.14 1.03.53 1.56 1.58 1.27Zm11.58-.42c0-.2.52-1.58.6-1.58.09 0 .69 1.58.62 1.65-.12.11-1.22.05-1.22-.07Zm1-.12c0-.02-.09-.26-.21-.53l-.21-.48-.19.5c-.1.28-.19.51-.19.53 0 .01.18.02.4.02s.4-.02.4-.04Z"/></svg>