<svg xmlns="http://www.w3.org/2000/svg" width="51" height="51" viewBox="0 0 51 51"><path fill="#fff" fill-rule="evenodd" stroke="#fff" stroke-width=".69" d="M25.38 41.29c-.82-.19-1.61-.98-2.14-2.14l-.27-.58.23-.19c.42-.34.62-.24 1 .49.93 1.81 1.89 1.97 2.9.49.86-1.24.72-1.13 1.11-.9.41.25.41.38-.02 1.1-.81 1.34-1.82 1.96-2.81 1.73Zm1.22-.44c.51-.27 1.8-1.92 1.63-2.09-.15-.15-.41-.04-.52.22-.96 2.1-2.61 2.16-3.73.13-.35-.65-.36-.65-.56-.52-.11.07-.09.18.11.57.81 1.6 2 2.25 3.07 1.69Zm5.7-.74c-1.17-.37-2.7-1.39-4.18-2.78-.82-.78-.86-.93-.36-1.22l.36-.22.74.71c2.09 1.98 4.08 2.99 4.96 2.51 1.11-.59 1.02-3.72-.23-7.48l-.42-1.25-.51.05c-.28.03-1.16.14-1.96.23-1.92.23-7.41.25-9.9.04-.96-.08-1.91-.14-2.1-.15h-.35l-.42 1.25c-1.35 4.05-1.19 7.3.34 7.3.99 0 2.51-.86 4.05-2.3l.88-.82.37.23c.21.12.4.24.42.26.03.02-.24.33-.6.69-4.59 4.68-8.23 3.64-7.33-2.1.8-5.13 3.58-11.24 7.89-17.36.48-.69.9-1.33.93-1.42.06-.24-2.45-2.74-3.58-3.58-1.99-1.47-3.3-1.66-3.85-.55-.4.8-.21 3.62.41 5.81.06.22-.57.71-.76.59-.25-.16-.77-2.37-.89-3.78-.36-4.51 1.97-5.69 5.71-2.89 8.01 5.98 16.36 23.71 13.01 27.62-.67.77-1.51.97-2.63.61Zm2.07-.47c1.34-1.06 1.36-3.71.06-7.94-3.25-10.55-12.58-22.25-16.66-20.91-.89.3-1.3 1.29-1.3 3.11.01 1.47.54 4.3.81 4.3.28-.01.3-.18.11-.95-1.62-6.83.91-8.09 6.07-3 .72.72 1.43 1.47 1.58 1.67l.28.37-.75 1.03c-4.5 6.19-7.66 13.13-8.28 18.18-.6 4.9 2.31 5.76 6.44 1.9.79-.74.86-.84.7-.95-.15-.11-.27-.04-.93.57-3.44 3.2-5.8 3.11-5.8-.21 0-1.47.5-3.92 1.17-5.76l.3-.8h.39c.21.01 1.11.07 1.99.15 2.76.26 8.35.21 10.74-.09 2.29-.29 2.02-.43 2.59 1.32 1.27 3.85 1.34 6.95.18 7.69-1 .63-2.98-.27-5.22-2.35-.76-.71-.85-.75-1.03-.53-.17.2 1.77 1.91 3.11 2.72 1.49.91 2.7 1.07 3.45.48Zm-13.08-4.82c-1.42-.47-2.59-1.95-2.59-3.27v-.35l.48.01c.26 0 1.01.06 1.67.12l1.2.13.63.66c.62.64 1.37 1.13 2.15 1.38.51.16.47.32-.24.79-1.01.68-2.25.87-3.3.53Zm6.42-.01c-.71-.27-1.56-.91-1.49-1.13.02-.06.28-.18.58-.28.91-.28 1.42-.59 2.11-1.31l.66-.68 1.24-.16c.68-.08 1.41-.18 1.63-.22l.39-.06-.05.56c-.19 2.31-2.91 4.07-5.07 3.28Zm-4.06-.32c.45-.2 1.05-.58 1.05-.67 0-.04-.17-.14-.37-.21-.61-.21-1.26-.67-1.86-1.3l-.56-.59-1.14-.11c-1.72-.17-1.77-.16-1.77.17 0 .34.48 1.37.85 1.8.8.95 2.68 1.4 3.8.91Zm6.77-.12c1.04-.51 1.92-1.65 2.05-2.66.06-.41.05-.41-.23-.36-.16.03-.8.11-1.43.19l-1.13.14-.49.55c-.54.61-1.23 1.09-1.89 1.32-.25.08-.51.18-.59.2-.22.09.61.64 1.29.86.56.18 1.82.06 2.42-.24Zm-16.5-.02c-2-.44-2.59-1.79-1.66-3.85l.28-.62.39.06c.68.11.71.2.31.98-.74 1.46-.16 2.48 1.42 2.48.76 0 .94.09.94.49 0 .64-.37.74-1.68.46Zm22.15-.16c-.17-.63-.05-.79.56-.79 1.51 0 1.95-.82 1.28-2.4-.38-.92-.39-.87.06-1.05.45-.19.48-.16.97.85.91 1.89.02 3.46-2.03 3.58-.75.04-.78.04-.84-.19Zm-20.77-.24c0-.23-.04-.25-.42-.25-2.02-.01-2.79-1.12-1.95-2.81.19-.4.23-.55.14-.61-.66-.43-1.26 2.09-.69 2.9.39.54 1.51.99 2.55 1.01.33.01.37-.02.37-.24Zm22.83-.18c1-.59 1.13-2.23.27-3.37-.37-.49-.52-.17-.23.47.77 1.66.14 2.83-1.54 2.83-.27 0-.33.04-.33.21 0 .32 1.2.23 1.83-.14Zm-13-.57c-.95-.19-2.23-1.06-2.23-1.51 0-.18.13-.19 2.95-.19 3.28 0 3.26-.01 2.56.63-.96.87-2.22 1.28-3.28 1.07Zm2.02-.59c.33-.16.74-.41.9-.55l.3-.25-2.54-.01h-2.54l.19.21c.86.95 2.43 1.2 3.69.6ZM15.5 29.89c-.47-.1-1.18-.29-1.59-.41l-.73-.22.05-.34c.11-.62.12-.62 1.74-.25.82.18 1.58.36 1.71.38.26.06.28.22.08.7-.17.4-.13.4-1.26.14Zm7.4.14c-.58-.02-1.09-.08-1.13-.12-.09-.09.6-2.79.9-3.53l.15-.38h5.98l.11.28c.19.49.88 2.96.91 3.27.03.28.01.3-.42.37-.55.09-5.04.17-6.5.11Zm11.8-.54c-.14-.5-.11-.52.65-.69 3.62-.77 6.14-2.38 5.88-3.74-.16-.81-2.01-1.92-4.35-2.6-1.12-.32-1.08-.28-1.08-.87 0-.49 0-.49.28-.43 4.59 1.01 7 3.13 5.96 5.22-.62 1.25-3 2.6-5.76 3.27-1.41.34-1.45.34-1.58-.16Zm-18.1-.09c0-.09-2.89-.72-3-.65-.36.22.45.54 2.35.94.38.08.65-.04.65-.29Zm12.72.24c.15-.03.25-.11.23-.18-.02-.06-.22-.8-.45-1.63l-.42-1.53H23l-.11.28c-.06.15-.26.83-.45 1.52s-.37 1.33-.4 1.42c-.04.15.05.18.73.21 1.11.06 6.23-.01 6.55-.09Zm-19.12-.1c-1.96-.85-1.48-3.64.63-3.64 1.25 0 2.04.81 1.95 2.02-.09 1.26-1.44 2.11-2.58 1.62Zm26.14-.2c7.13-1.86 7.53-5.64.8-7.63-.91-.27-1.04-.27-1.04.02 0 .19.11.25.98.5 6.33 1.82 5.79 4.91-1.17 6.73-1.08.28-1.04.26-.95.48.08.21.2.21 1.38-.1Zm-24.56-.21c1.35-1 .73-2.96-.93-2.96-1.72 0-2.26 2.2-.74 3.01.53.28 1.25.26 1.67-.05Zm5.16-.73c-.11-.04-.39-.29-.62-.55-1.48-1.69-.89-4.69 1.09-5.55.67-.28.81-.23.67.27-.16.59-.05 2.1.19 2.65l.21.47-.61 1.4c-.34.78-.64 1.41-.67 1.4-.03 0-.14-.04-.26-.09Zm17.01-.67c-.16-.38-.46-1.03-.67-1.45-.45-.91-.45-.91-.16-1.49.2-.38.23-.59.23-1.57v-1.14l.28.06c2.27.46 3.11 4.86 1.15 6.06-.48.29-.52.27-.83-.47Zm-16.31-.83.52-1.15-.23-.65c-.19-.54-.23-.81-.21-1.63.03-1.09.01-1.12-.58-.68-1.61 1.18-1.87 3.56-.56 4.94.47.49.46.5 1.06-.83Zm17.23.88c1.32-1.44.87-4.19-.84-5.15l-.4-.22.04.77c.04.74-.02 1.09-.37 1.97-.11.28-.07.4.5 1.58.64 1.32.73 1.42 1.07 1.05ZM8.56 25.94c-.51-1.34.97-3.01 3.54-3.99 1.09-.42 2.68-.85 3.12-.85h.3l-.07.48c-.08.58.02.49-.91.72-3 .72-5.24 2.12-4.99 3.12.05.19-.01.27-.37.46-.51.26-.54.27-.62.06Zm.56-.38c.1-.07.18-.26.18-.43 0-1.06 2.78-2.69 5.43-3.18.2-.04.37-.11.37-.15a.8.8 0 0 1 .07-.25c.09-.25-.49-.14-2.17.41-2.67.88-4.2 2.09-4.2 3.34 0 .43.05.47.32.26Zm9.44-.65c-.39-.63-.23-2.38.3-3.28.51-.88 1.73-1.73 2.47-1.73.36 0 .39-.08-.57 1.59-.46.8-1.09 1.92-1.4 2.49-.55.98-.68 1.13-.8.93Zm13.9-.43c-.53-.86-2.76-4.77-2.76-4.87 0-.37 1.34.16 2.05.8 1.14 1.05 1.65 2.92 1.09 4.02-.17.33-.2.33-.38.05ZM19.6 22.95c.45-.83.98-1.76 1.17-2.08.41-.69.4-.72-.14-.47-1.29.57-2.14 2.1-1.98 3.53.04.32.08.57.1.55.01-.02.4-.7.85-1.53Zm3.98 1.19c-.2-.19 1.94-5.14 2.21-5.14.29 0 2.43 4.83 2.26 5.1-.07.11-4.37.14-4.47.04Zm9.12-1.42c-.25-1.35-1.23-2.49-2.49-2.87-.23-.07-.23-.07.06.36.17.24.74 1.21 1.28 2.14.54.94 1 1.74 1.03 1.8.13.21.22-.88.12-1.43Zm-5.33 1.18h.41l-.38-1c-.48-1.21-1.5-3.4-1.6-3.4-.09 0-.98 1.9-1.53 3.27l-.45 1.12.76.04c.43.02 1.13.03 1.57.01s.99-.04 1.22-.04Zm-15.2-3.12c-1.6-2.77-.17-4.84 3.03-4.41l.55.08v.9l-1.05.01c-2.16.01-2.68.8-1.76 2.64.43.86.43.76.04 1-.46.28-.53.26-.81-.22Zm25.99.27c-.1-.08-.24-.16-.3-.18s.04-.36.28-.85c.86-1.84.47-2.58-1.43-2.71l-.86-.06v-.9h.85c2.65.02 3.62 1.64 2.41 4.05-.39.79-.59.93-.95.65Zm.72-.83c1.01-2.18.31-3.44-2-3.6-.73-.05-.78-.04-.78.15 0 .18.09.21.76.26 1.93.14 2.5 1.21 1.6 2.97-.32.63-.33.7-.18.79.26.16.27.15.6-.57Zm-26.04.49c.03-.05-.08-.39-.25-.76-.86-1.91-.18-2.88 2.03-2.88.78 0 .88-.02.88-.18 0-.42-2.01-.32-2.84.14-.68.37-.88.78-.84 1.67.05 1.13.74 2.48 1.02 2.01Zm5.88-.83c.11-2.57 2.59-4.3 4.97-3.47.4.14.41.11-.58 1.48-.45.62-.85 1.19-.89 1.27-.05.08-.36.21-.7.29-.71.17-1.46.53-2.13 1.01-.7.51-.72.48-.67-.58Zm13.43.35c-.52-.46-1.67-1.01-2.43-1.16l-.59-.11-.77-1.1c-.43-.6-.8-1.15-.83-1.22-.15-.39 1.85-.52 2.73-.17 1.56.61 2.62 2.11 2.52 3.58-.04.6-.13.63-.63.18Zm-12.11-.55c.22-.12.75-.32 1.16-.44l.75-.22.82-1.13c.95-1.33.95-1.34-.3-1.34-1.94.01-3.33 1.28-3.45 3.15l-.05.74.33-.27c.18-.16.51-.38.74-.49Zm12.43-.09c-.23-1.89-2.02-3.26-3.99-3.03-.71.07-.72.02.1 1.15l.67.93.66.16c.8.21 1.61.58 2.14.99.51.39.49.4.42-.2Zm1.46-.96c-.38-.19-.39-.27-.13-1.1.7-2.24.8-4.74.23-5.74-.62-1.09-.51-1.64.23-1.24 1.27.68 1.6 3.29.81 6.35-.54 2.07-.52 2.04-1.14 1.73Zm.62-.95c.94-3.04.85-5.75-.23-6.7-.5-.43-.51-.22-.06.65.64 1.21.59 3.26-.13 5.77-.24.82-.2 1.1.14 1.1.01 0 .14-.37.28-.82Zm-8.09-2.3c-.32-.41-.33-.39 1.09-1.78l1.18-1.14.28.34c.37.44.46.27-.89 1.68-1.32 1.36-1.31 1.35-1.66.9ZM28.84 13c-.12-.13-.27-.01-1.19.9-1.07 1.07-1.14 1.17-.93 1.38.19.19 2.31-2.08 2.12-2.28Zm1.46-.02c-.75-.39-1.05-.87-1.05-1.68 0-1.91 2.54-2.59 3.51-.94.94 1.61-.8 3.46-2.46 2.62Zm1.57-.25c.77-.36 1.1-1.37.71-2.13-.76-1.49-3.08-.96-3.08.7 0 1.18 1.27 1.95 2.37 1.43Zm-8.26-.49c-.4-.33-.39-.38.12-1.06 1.36-1.82 2.82-1.84 4.13-.05.51.69.52.8.07 1.08l-.32.2-.4-.54c-1.01-1.37-2-1.3-2.88.2-.29.5-.32.51-.72.17Zm.49-.35c.89-1.66 2.34-1.7 3.42-.09.15.22.18.23.32.1.14-.14.12-.21-.28-.71-.72-.91-1.45-1.24-2.21-.99-.7.23-1.87 1.49-1.64 1.76.16.19.26.17.39-.07Z"/></svg>