<svg xmlns="http://www.w3.org/2000/svg" width="51" height="51" viewBox="0 0 51 51"><path fill="#fff" fill-rule="evenodd" stroke="#fff" stroke-width=".46" d="M25.6 40.2v-1.6h.3c.16 0 .3.05.3.1 0 .07.06.07.19 0 .74-.39 1.61.12 1.61.95 0 1.02-.83 1.66-1.61 1.25-.18-.1-.19-.07-.19.4 0 .49-.01.5-.3.5h-.3zm-10.11.78-.02-1.21-.02-1.17h.65V41h-.3c-.17 0-.3-.01-.31-.02Zm1.51-.11c-.68-.53-.64-1.84.06-2.16.64-.29 1.64.01 1.64.5 0 .23-.36.25-.64.04-.28-.22-.63-.18-.8.07-.48.68.25 1.58.79.98.22-.24.53-.26.62-.03.19.48-1.2.98-1.67.6Zm2.48-.07c-.93-.73-.45-2.2.73-2.2.84 0 1.19.37 1.19 1.26 0 .94-1.18 1.53-1.92.94Zm2.32-1v-1.2h.35c.21 0 .35.05.35.12 0 .09.03.09.12 0 .2-.2.95-.15 1.18.08.17.17.2.33.2 1.2v1h-.59l-.03-.86c-.03-.99-.16-1.17-.62-.96-.25.11-.26.15-.26.97V41h-.7zm6.7 1c-.54-.54-.13-1.19.81-1.28.39-.04.49-.08.47-.21-.04-.22-.7-.27-.88-.07-.16.2-.39.2-.47 0-.12-.33.35-.64.99-.64.86 0 .98.16.98 1.3v.98c.01.13-.41.14-.56.01-.11-.09-.18-.09-.26-.01-.2.2-.86.14-1.08-.08Zm2.82.04c-1.01-.7-.51-2.24.73-2.24.55 0 .95.27.95.63 0 .22-.43.23-.6.02-.19-.23-.66-.19-.84.07-.32.46-.06 1.18.42 1.18.11 0 .27-.09.37-.2.19-.21.6-.27.7-.11.03.06-.09.26-.26.45-.35.41-1.04.5-1.47.2Zm2.08-1.49V37.7h.6v.98l.01.97.49-.53c.38-.41.55-.52.79-.52.4 0 .39.08-.04.5-.19.19-.35.38-.35.43s.16.36.35.68c.43.73.43.79.05.79-.26 0-.34-.07-.58-.5-.15-.27-.3-.5-.34-.5-.18 0-.38.35-.38.66s-.02.34-.3.34h-.3zm-12.76.93c.36-.51.07-1.21-.47-1.16-.78.08-.69 1.34.1 1.37.12.01.29-.09.37-.21Zm6.59-.02c.31-.46.09-1.09-.4-1.14-.43-.04-.68.32-.59.83.1.5.72.7.99.31Zm2.42.08c.3-.3.01-.53-.51-.4-.23.06-.33.34-.17.49.12.13.51.07.68-.09Zm-14.21-2.29c-.14-.37.26-.69.53-.42.22.22.08.57-.23.57-.14 0-.27-.07-.3-.15ZM11.8 35.1v-1.2h.35c.19 0 .35.04.35.09 0 .06.12.03.28-.05.52-.27.78-.15.66.3-.04.19-.13.26-.37.28-.41.04-.57.35-.57 1.16v.62h-.7zm2.04.86c-.69-.69-.33-1.97.59-2.07.8-.09 1.29.21 1.42.88.08.46-.02.53-.87.53-.38 0-.68.04-.68.08 0 .26.61.44.75.22.1-.16.75-.12.75.04 0 .31-.59.66-1.12.66-.44 0-.54-.04-.84-.34Zm2.5.09c-.58-.58-.15-1.18.91-1.27.19-.02.3-.09.3-.18 0-.21-.49-.25-.65-.06-.15.19-.7.21-.7.03 0-.45.78-.85 1.43-.73.6.11.71.33.71 1.44l.01.97-.88.02c-.82.02-.91 0-1.13-.22Zm2.7.11c-.17-.13-.19-.29-.22-1.41-.05-1.63-.02-1.75.43-1.75h.35v1.35c0 1.13.02 1.35.15 1.35q.15 0 .15.3c0 .34-.48.43-.86.16Zm1.25.1c-.02-.02-.03-.56-.01-1.2l.03-1.16h.35c.19 0 .34.05.34.1 0 .06.13.04.3-.05.36-.19.48-.19.82-.01.24.13.32.13.58-.01.87-.43 1.3.04 1.3 1.39v.98h-.8v-.85c0-.7-.03-.87-.16-.92-.36-.14-.49.1-.52.96l-.03.82-.37-.03-.37-.03-.01-.75c0-.82-.06-1-.33-1-.32 0-.41.22-.41 1.02v.78h-.33c-.19 0-.36-.02-.38-.04Zm4.49-.25c-.49-.43-.49-1.35-.01-1.83.67-.66 1.72-.35 1.93.57.12.53.09.55-.76.55-.59 0-.74.03-.74.15 0 .2.48.31.71.16.24-.14.79-.15.79 0 0 .06-.13.24-.29.4-.42.42-1.16.42-1.63 0Zm2.9.11c-.47-.28-.58-.67-.58-1.96V33h.8v1.1c0 1.19.13 1.5.61 1.5.54 0 .59-.12.59-1.4V33h.8v1.19c0 1.38-.07 1.63-.52 1.91-.42.25-1.31.27-1.7.02Zm2.72-1.46V33h.9l-.02 1.62-.03 1.63-.42.03-.43.03zm2.89 1.49c-.27-.14-.53-.6-.44-.76.09-.14.58-.1.79.06.4.3.86.13.86-.32 0-.39-.43-.52-.81-.24-.21.16-.38.21-.55.17-.27-.07-.29-.2-.17-1.38l.06-.68h2.17v.69l-.72.03c-.72.03-.73.03-.76.31-.03.26-.02.27.17.18.86-.47 1.74.57 1.26 1.49-.28.55-1.25.78-1.86.45Zm2.43.03c-.29-.29-.07-.78.35-.78.21 0 .43.25.43.49 0 .31-.55.52-.78.29Zm1.72-.07c-.77-.48-.77-2.42-.02-2.95.26-.18 1.09-.21 1.4-.05.69.37.77 2.29.12 2.9-.33.31-1.09.36-1.5.1Zm-19.86-.7c.04-.22.01-.23-.29-.17-.61.12-.65.5-.06.44.25-.02.33-.08.35-.27Zm20.89-.11c.42-.83-.25-2.29-.68-1.48-.18.32-.17 1.41 0 1.62.19.23.53.16.68-.14Zm-23.39-.62c-.08-.22-.37-.34-.55-.22-.33.21-.26.34.17.34.28 0 .4-.04.38-.12Zm10.82-.08a.358.358 0 0 0-.58-.08c-.21.21-.13.28.28.28.38 0 .4-.02.3-.2Zm-2.57-3.34c-3.24-.62-5.08-2.5-5.25-5.36l-.03-.55 2.07-.03 2.08-.02.06.27c.32 1.33 1.23 2.01 2.79 2.11 2.32.14 3.6-1.06 3.59-3.38 0-1.03-.21-1.71-.7-2.28-1.35-1.58-4.76-1.22-5.56.58-.11.26-.14.27-1.16.34-1.52.09-2.9.07-2.97-.03-.03-.06.04-.79.15-1.63s.31-2.61.45-3.93c.41-3.85.76-6.59.87-6.73.08-.09 1.45-.12 6.24-.12h6.14v3.7h-4.4c-3.44 0-4.42.03-4.45.13-.02.06-.16 1.02-.3 2.12s-.28 2.16-.31 2.35l-.06.35.48-.47c2.41-2.33 7.46-1.37 9.08 1.72 1.87 3.54.56 8.44-2.69 10.12-1.56.8-4.13 1.11-6.12.74Zm4.57-.36c3.06-.89 4.82-3.32 4.83-6.7.02-3.85-1.85-6.14-5.32-6.5-2.16-.23-3.87.44-4.82 1.9-.09.14-.2.22-.23.19-.06-.06.59-5.36.69-5.66.03-.1 1.05-.13 4.42-.15l4.38-.03.03-1.62.02-1.63h-5.07c-2.8 0-5.51.03-6.04.06l-.95.07-.13.96-.62 5.41c-.27 2.45-.53 4.69-.58 4.98l-.08.52h3.64l.33-.51c1.05-1.62 4.09-1.91 5.52-.52 1.29 1.26 1.29 3.99-.01 5.32-1.16 1.19-3.85 1.26-5.04.13-.33-.31-.77-1.12-.77-1.42 0-.19-.06-.2-1.9-.2h-1.9v.38c.01 2.74 2.13 4.71 5.65 5.26.8.12 3.21-.02 3.95-.24Z"/></svg>