<svg xmlns="http://www.w3.org/2000/svg" width="51" height="51" viewBox="0 0 51 51"><path fill="#fff" fill-rule="evenodd" stroke="#fff" stroke-width=".74" d="M22.85 41.89c-7.89-1.36-13.82-8.34-13.79-16.24.04-10.29 8.87-17.9 19.02-16.39C35.41 10.34 41.2 16.4 42 23.82c1.15 10.78-8.52 19.91-19.15 18.07Zm5.1-.24c10.1-1.66 16.23-11.85 12.9-21.45-1.87-5.37-6.33-9.26-12.08-10.52-1.65-.36-5.18-.33-6.77.05-10.29 2.51-15.54 13.36-11.06 22.84 3 6.32 10.24 10.19 17.01 9.08Zm-4.4-.36c-9.13-1.23-15.37-10.04-13.44-18.97 1.19-5.49 5.04-9.86 10.32-11.71 3.04-1.06 6.92-1.07 10.09-.01 13.4 4.47 14.62 22.8 1.95 29.16-2.57 1.3-6.14 1.91-8.92 1.53Zm4.96-.48c7.25-1.55 12.26-7.5 12.46-14.81.14-4.87-1.75-9.23-5.24-12.12-9.29-7.7-22.78-3.09-25.35 8.66-.31 1.38-.33 4.66-.04 5.96 1.5 6.91 6.8 11.74 13.76 12.54.89.1 3.48-.04 4.41-.23Zm-11.92-8.74c-.75-.21-1.49-.86-1.49-1.3 0-.11.25-.46.56-.79.72-.75 1.22-1.83 2.2-4.71 1.62-4.77 2.82-6.31 4.94-6.31 2.02 0 2.79.94 4.71 5.81.46 1.17.87 2.09.91 2.05.03-.04.35-.83.71-1.77 1.52-4.01 2.31-5.28 3.64-5.87 1.01-.44 2.47-.13 3.04.65.39.54.37.61-.25 1.27-.62.65-.98 1.32-1.51 2.8-2.39 6.69-3.44 8.2-5.7 8.2-2.13 0-3.05-1.13-4.81-5.87l-.79-2.13-.51 1.58c-1.62 5-3.41 7.02-5.65 6.39Zm1.68-.42c1.46-.61 2.39-2.18 3.8-6.45 1.04-3.15 1.61-4.22 2.45-4.63.31-.15.61-.08.55.12-.01.04.1.34.25.67.15.32.5 1.17.78 1.88.67 1.73 1.91 4.46 2.01 4.46.18 0 .08-.4-.32-1.37-.22-.54-.69-1.7-1.03-2.58-1.4-3.55-2.2-4.47-3.91-4.49-1.95-.03-3.16 1.52-4.68 5.99-1.14 3.35-1.53 4.18-2.36 5-.47.45-.49.52-.19.9.47.6 1.81.85 2.65.5Zm11.31-.11c1.24-.62 2.08-2.08 3.71-6.47 1.14-3.05 1.35-3.47 2.03-4.15l.5-.5-.16-.31c-.25-.47-1-.81-1.79-.81-1.97 0-3.04 1.65-5.34 8.24-.81 2.34-1.72 3.39-2.53 2.96-.35-.19-.22.06.23.45 1.01.89 2.3 1.11 3.35.59Zm-12.91-.04c-.16-.05-.44-.21-.63-.35l-.35-.27.56-.59c.74-.78 1.33-2.02 2.29-4.86.87-2.56 1.17-3.27 1.82-4.24 1.01-1.53 2.25-2.03 3.52-1.44.65.3.65.33-.06 1.03-.76.74-1.21 1.57-1.72 3.17-1.69 5.3-2.39 6.61-3.94 7.4-.51.25-.98.3-1.49.15Zm10.88-.1c-.4-.13-.95-.43-.95-.52 0-.04.11-.1.25-.14.75-.19 1.4-1.3 2.55-4.39 1.77-4.76 2.46-6.06 3.5-6.6.68-.35 1.7-.26 2.25.21l.3.25-.29.22c-1.28.96-1.7 1.73-2.51 4.61-.96 3.41-1.55 4.67-2.69 5.69-.69.62-1.69.9-2.41.67Zm-9.59-.29c1.38-.63 2.09-1.88 3.49-6.16.89-2.72 1.2-3.37 2.03-4.26l.54-.59-.29-.11c-1.96-.77-3.35.83-4.93 5.61-.8 2.44-1.58 4.12-2.22 4.82-.41.44-.42.47-.23.59.52.32 1.05.35 1.61.1Zm10.81-.06c1.49-.44 2.46-2.09 3.57-6 .77-2.76 1.34-3.88 2.35-4.66l.34-.27-.52-.17c-1.78-.59-2.58.49-4.77 6.38-1.02 2.73-1.42 3.55-2.06 4.19l-.46.47.36.07c.2.03.42.07.47.09.17.06.2.05.72-.1Zm-2.89-.82c-.02-.05-.17-.37-.35-.73-.17-.36-.7-1.66-1.16-2.9-1.07-2.85-1.32-3.41-1.42-3.18-.17.42 2.46 6.88 2.81 6.88.09 0 .14-.03.12-.07Zm.93-.16c.42-.28 1.26-1.81 1.11-2-.18-.21-1.67-3.57-2.16-4.84-.51-1.35-.94-2.3-1.07-2.39-.15-.09-.83.69-1.17 1.34l-.34.63.4.92c.22.51.73 1.81 1.13 2.88.98 2.63 1.46 3.69 1.69 3.69.04 0 .22-.1.41-.23Z"/></svg>