<svg xmlns="http://www.w3.org/2000/svg" width="51" height="51" viewBox="0 0 51 51"><path fill="#fff" fill-rule="evenodd" stroke="#fff" stroke-width=".784" d="M17.75 39.61c-4.22-1.16-6.4-4-6.4-8.31 0-2.28.37-3.45 1.55-5 .92-1.2 13.06-13.31 13.89-13.85 3.63-2.37 8.57-1.57 11.32 1.83 2.4 2.98 2.41 7.45 0 10.44-1.21 1.5-13.39 13.52-14.16 13.96-1.73 1.01-4.43 1.42-6.2.93Zm3.95-.26c.89-.24 1.99-.76 2.73-1.29.86-.62 13.22-13.04 13.81-13.88 2.27-3.24 1.9-7.54-.89-10.33-2.91-2.91-7.19-3.37-10.55-1.12-.59.39-12.74 12.49-13.53 13.47-.67.83-1.27 2.01-1.54 3-.27.98-.24 3.37.05 4.44.86 3.12 3.44 5.36 6.77 5.89.58.1 2.51-.02 3.15-.18Zm-3.85-2.31c-3-.59-4.55-3.16-3.91-6.46.36-1.84.44-1.95 5.96-7.58 7.46-7.63 7.94-8.09 8.75-8.52 2.24-1.17 4.88-.85 6.66.8 2.52 2.33 2.66 5.53.35 8.13-1.03 1.15-5.82 5.97-7.4 7.44-.71.66-2.03 2.02-2.94 3.02-1.7 1.9-2.23 2.36-3.15 2.78-1.15.53-2.85.68-4.32.39Zm3.61-.39c1.11-.37 1.67-.78 2.94-2.16.63-.68 2-2.1 3.05-3.17l1.9-1.92-3.87-3.87-3.87-3.87-3.02 3.04c-1.66 1.68-3.16 3.23-3.35 3.45-1.28 1.56-1.62 4.42-.74 6.21 1.05 2.14 4.26 3.19 6.96 2.29Zm13.25-12.58c2-2.12 2.51-3.2 2.36-4.95-.34-3.88-4.54-6.21-8.16-4.52-.65.31-4.66 4.13-6.53 6.22l-.6.68 3.88 3.9 3.88 3.91 1.84-1.83c1.01-1.01 2.51-2.54 3.33-3.41Z"/></svg>