<svg xmlns="http://www.w3.org/2000/svg" width="51" height="51" viewBox="0 0 51 51"><path fill="#fff" fill-rule="evenodd" stroke="#fff" stroke-width=".468" d="M22.8 40.2c-7.41-1.02-13.11-7.27-13.47-14.75-.42-9.02 6.59-16.37 15.61-16.36 9.84.01 17.1 8.72 15.38 18.45l-.07.39 1.58.8c2.39 1.2 3.21 2.09 3.49 3.81.36 2.16-1.19 4.33-3.4 4.77-1.07.2-1.73.02-3.78-1.03l-1.75-.89-.76.71c-2.08 1.95-4.7 3.3-7.53 3.92-1.07.23-4.15.34-5.3.18Zm5.03-.4c7.92-1.53 13.35-8.99 12.37-17-1.18-9.6-10.69-15.65-20.03-12.74-4.28 1.34-8.04 4.89-9.6 9.09-2.67 7.14.08 14.93 6.63 18.83 1.97 1.17 3.74 1.72 6.6 2.06.75.09 3.02-.05 4.03-.24Zm15-3.05c2.62-1.23 3.06-4.93.79-6.69-.59-.46-3.02-1.71-3.11-1.59-.04.04-.18.55-.3 1.13-.46 2.14-1.55 4.91-2.31 5.88l-.2.25.42.25c2.14 1.21 3.36 1.42 4.71.77Zm-19.27-1.16c-8.92-1.15-12.83-11.89-6.68-18.4 5.28-5.61 14.56-4.18 17.92 2.75 3.74 7.71-2.74 16.74-11.24 15.65Zm14.22-.41c.81-1.18 1.53-2.98 2.08-5.22.39-1.62.44-2.09.08-.88-.58 1.96-1.58 3.85-2.89 5.47-.54.66-.54.6-.07.84.49.27.47.27.8-.21Zm-10.48-.02c9.95-2.42 11.31-15.94 2.03-20.23-2.84-1.31-6.5-1.22-9.38.25-8.41 4.27-7.38 16.71 1.62 19.71 1.56.52 4.18.64 5.73.27Zm.4-6.68c-.87-.45-1.18-1.68-.67-2.68.4-.81 1.06-1.1 2.7-1.17l1.07-.05v-.32c-.01-1.11-.32-1.46-1.31-1.46-.64 0-.7.02-.78.24-.11.27-.29.36-.76.36-.42 0-.69-.38-.69-.99-.01-.62.35-.73 2.44-.75 2.61-.02 2.8.25 2.8 3.8 0 1.96.03 2.14.3 2.14.15 0 .29.25.3.52.01.48-1.63.71-1.94.27l-.14-.21-.59.22c-.9.34-2.15.38-2.73.08Zm-10.26-.02c-.15-.4 0-.81.32-.84l.3-.03 1.17-3.57c1.76-5.35 1.63-5.12 2.84-5.12.82 0 .7-.25 2.28 4.42 1.51 4.42 1.42 4.21 1.81 4.28.33.06.49.74.22.91-.24.16-3.04.11-3.17-.05-.23-.28-.09-.81.22-.84.33-.04.33-.12-.02-1.22l-.27-.85-1.41-.03-1.42-.03-.21.73c-.12.4-.25.85-.3 1-.1.31-.05.38.26.38.33 0 .48.62.22.88-.19.19-2.77.17-2.84-.02Zm12.51-.18c.22-.06.58-.19.79-.29.49-.23.45-.24.56.06.13.34 1.42.35 1.48.02.02-.12-.04-.2-.16-.24-.32-.08-.35-.24-.41-2.68-.07-2.59-.12-2.79-.78-3.11s-3.76-.19-3.99.17c-.08.13.14.75.31.89.21.18.64.04.75-.24.09-.25.43-.36 1.12-.36.95 0 1.38.53 1.38 1.69v.58l-1.07.06c-1.92.11-2.61.48-2.84 1.51-.37 1.67.79 2.46 2.86 1.94Zm-9.85-.23c0-.21-.05-.25-.31-.25-.38 0-.37-.28.06-1.68l.26-.82 1.62.02 1.62.03.32 1.05c.41 1.34.41 1.38.01 1.42-.25.02-.33.08-.33.23 0 .19.08.2 1.48.23 1.42.02 1.47.02 1.47-.18 0-.15-.08-.22-.3-.27-.41-.08-.37.01-1.83-4.28-.7-2.03-1.31-3.85-1.38-4.02l-.11-.33h-1.49l-.17.38c-.09.2-.75 2.13-1.47 4.27-1.3 3.89-1.3 3.9-1.6 3.95-.22.04-.31.11-.33.28-.03.22-.02.22 1.22.22h1.26zm8.62-.47c-.63-.68-.52-1.82.21-2.08.43-.15 1.94-.13 2.03.02.13.21.06 1.25-.11 1.58-.36.69-1.66.98-2.13.48Zm1.37-.14c.47-.19.71-.61.71-1.28 0-.53-.26-.64-1.28-.52-.73.09-.95.29-.95.89.02.95.58 1.29 1.52.91Zm-9.79-2.96c0-.22 1.11-3.52 1.27-3.77.21-.33.25-.26.87 1.72.75 2.4.84 2.17-.79 2.17-1 0-1.35-.03-1.35-.12Zm2.42-.13c.04-.04-.7-2.5-.98-3.25-.04-.12-1.14 2.97-1.14 3.23 0 .08 2.04.1 2.12.02Z"/></svg>