<svg xmlns="http://www.w3.org/2000/svg" width="51" height="51" viewBox="0 0 51 51"><path fill="#fff" fill-rule="evenodd" stroke="#fff" stroke-width=".398" d="M0 50.1c0-.07 3.42-.1 10.05-.1H20.1l-.02-3.37-.03-3.36-1.35-.38C3.82 38.77 4.04 38.83 3.26 38.42c-1.65-.86-3.08-2.8-3.22-4.36-.04-.5-.04-.49.24.34.64 1.92 1.63 3.15 3.13 3.88.87.43 8.78 2.69 17.84 5.11 1.05.28 2.46.68 3.14.9l1.23.39 3.52-.88c1.93-.49 6.52-1.61 10.21-2.5s6.99-1.7 7.35-1.82c2.23-.68 3.98-2.77 4.39-5.2l.09-.53.01.55c.02 1.15-.71 2.61-1.89 3.81-1.27 1.28-1.41 1.33-8.55 3.04-3.35.81-8.14 1.98-10.63 2.6l-4.53 1.13-.55-.18-.54-.19V50h13.31c8.84 0 13.28.03 13.24.1-.09.14-51.05.14-51.05 0Zm22.47-1.79c.1.07.55.49 1.01.93l.82.81v-5.62l-1.87-.53c-1.04-.29-1.94-.55-2-.58-.1-.03-.13.68-.13 3.33v3.37l1-.92c.89-.82 1.02-.91 1.17-.79Zm.69.9-.8-.8-.35.31c-.89.77-1.31 1.17-1.31 1.22 0 .03.73.06 1.62.06h1.63zm.09-7.77c-.44-.14-1.92-.56-3.3-.94-1.38-.37-4.52-1.25-7-1.93-2.47-.69-5.2-1.44-6.05-1.67-2.01-.54-2.66-.86-3.56-1.75-.82-.81-1.38-1.84-1.54-2.8-.09-.55-.15-24.85-.07-24.85s3.75 1.02 7.32 2.04c2.04.57 5.56 1.57 7.83 2.2 4.98 1.4 5.83 1.76 7.02 3.01l.35.36.03 13.3c.02 10.66 0 13.29-.1 13.28-.07-.01-.49-.12-.93-.25Zm3.42.2c-.04-.04-.07-6.08-.07-13.43V14.85l.51-.44c1.35-1.16 1.63-1.26 7.89-2.76 5.57-1.34 13.74-3.33 14.03-3.41.17-.05.17.52.15 12.48l-.03 12.53-.22.57c-.51 1.33-1.6 2.52-2.86 3.12-.57.27-2.57.78-9.77 2.51-10.31 2.47-9.53 2.29-9.63 2.19Zm-2.62-26.21c-.08-.47-1.19-1.44-2.19-1.93-.52-.26-1.76-.67-3.46-1.14C13.91 11.09 5.03 8.6 3.45 8.15l-1.5-.42-.03 11.96c-.03 13.02-.04 12.79.54 13.98.8 1.62 1.9 2.35 4.74 3.11 2.27.62 7.9 2.18 14.8 4.11l2.05.57.03-12.85c.01-7.08 0-13-.03-13.18Zm4.92 25.58c1.78-.42 9.18-2.2 14.58-3.51 1.99-.48 2.48-.66 3.28-1.23 1.07-.77 1.87-2.01 2.07-3.24.17-1.01.13-24.53-.04-24.53-.07 0-1.79.41-3.82.91-2.03.49-6.28 1.52-9.44 2.29-6.87 1.65-7.11 1.73-8.43 2.89l-.37.33v13.29c0 7.31.02 13.29.04 13.29s.98-.22 2.13-.49Zm.78-6.91c-.56-.23-.85-.83-.85-1.79 0-.78.06-.87.68-.97l.42-.07v.71c0 .88.05 1.02.39 1.02.59 0 .75-.37.81-1.78.06-1.39.05-1.38.82-1.41l.28-.01v.75c0 .53.04.75.13.75.29-.01.36-.18.39-.95l.03-.79.45-.13c.66-.19.7-.15.7.72 0 1.23.47 1.01.52-.25l.03-.74.44-.13c.62-.18.71-.08.71.82v.73l.47-.14c.66-.2.67-.24.39-.89-.35-.78-.34-.91.14-1.15.5-.26.47-.28.95.69.5 1.04.75 1.11.75.23 0-.71.31-1.36.79-1.69l.32-.22-.31-.22c-.37-.28-.37-.35-.01-.79.28-.34.3-.34.49-.17.19.18.2.18.35-.03.26-.37 1 .07.79.47-.21.38-.52.58-.72.46-.15-.1-.19-.09-.24.03-.09.24-.07.27.16.21.62-.17 1.28.54 1.28 1.36 0 .81.33.62.42-.24.21-2.2 2.68-2.68 2.8-.55.02.25.07.44.13.43.25-.09.35-.57.35-1.79 0-1.14.02-1.28.19-1.37.24-.13.73-.17.89-.07.07.04.12.01.12-.08s.12-.18.28-.22c.15-.03.33-.08.41-.1.37-.12.41.12.35 2-.06 2.02-.14 2.36-.51 2.36-.42 0-.63-.18-.63-.53v-.32l-.16.3c-.43.84-1.88 1.48-3.28 1.47-.22-.01-.55.07-.75.17-.47.24-3.44.94-3.96.93-.22 0-.58.08-.8.18-.71.32-1.57.47-1.68.28-.09-.13-.16-.11-.54.15-.33.24-.56.32-1.05.35-.36.03-.75.13-.92.23-.17.11-.39.19-.48.19-.11 0-.27.18-.42.48-.51 1.01-1.47 1.47-2.31 1.12Zm1.6-.6c.19-.19.42-.53.51-.76.13-.34.23-.44.46-.5.17-.03.46-.15.65-.27.24-.13.54-.21.92-.21 1.04-.02 1.51-.59 1.51-1.85v-.7l-.3.1c-.29.1-.3.14-.3.67 0 .68-.16 1.03-.52 1.16-.44.15-.58-.05-.58-.85v-.68l-.3.1c-.3.11-.3.12-.3.85v.74l-.4.2c-.66.34-.7.31-.7-.6 0-.44-.04-.8-.09-.8-.34 0-.41.13-.42.84-.01 1.66-.34 2.36-1.08 2.36-.54 0-.67-.28-.61-1.28.02-.44 0-.46-.37-.36-.26.07-.34 1.24-.12 1.67.36.69 1.41.78 2.04.17Zm5.6-2.45c.33-.15.69-.23 1.05-.23.71-.01 3.63-.73 3.98-.99.2-.15.33-.18.5-.12.46.17 2.46-.38 2.84-.78.42-.44.5-.78.56-2.25l.05-1.37-.29.08-.29.07-.06 1.35c-.06 1.42-.14 1.69-.56 1.88-.39.18-.51.14-.45-.14.24-1.27-.8-2.13-1.69-1.38-.42.36-.59.79-.59 1.51 0 .63-.17.82-.75.82-.21 0-.23-.03-.18-.33.13-.81-.3-1.5-.95-1.5-.93 0-1.46.69-1.4 1.82l.03.66-.42.03-.42.03-.41-.8c-.4-.81-.57-.94-.8-.66-.1.12-.07.28.16.85.32.82.31.84-.52 1.09-.52.15-.59.2-.62.45q-.06.525 1.23-.09Zm-21.9-.59c-.48-.14-.81-.29-.83-.37-.04-.2.48-.67.78-.71.24-.03.25-.07.28-.76l.03-.72.41-.21c.56-.29.59-.22.56 1.47-.03 1.74.04 1.66-1.23 1.3Zm-3.65-.7c-.52-.18-1.34-.5-1.82-.7s-1.1-.4-1.38-.43c-.68-.08-.71-.19-.17-.7.42-.39.49-.43.69-.32.13.07.01-.14-.33-.54-.3-.36-.81-1.14-1.14-1.72-.8-1.43-1.34-1.85-1.79-1.39-.44.43.04 1.08 1.21 1.68.7.35.71.4.07.66-.62.25-.72.23-1.32-.31-1.22-1.1-.97-2.66.46-2.95l.31-.06-.01-.77c-.02-1.18.34-1.73 1.38-2.14.32-.12 2.35-.57 2.59-.57.02 0 .2-.14.4-.31l.35-.31.53.54c.28.29 1.02.91 1.62 1.38 2.4 1.84 3.06 2.82 3.3 4.9l.06.55h1.12c1.32 0 1.56.19.52.41-.81.17-1.5.43-2.75 1.02-1.36.65-2.15.91-3.03 1l-.72.08.6.14c.33.08 1.04.14 1.58.14 1.14.01 1.15.02.39.61-.75.59-1.3.61-2.72.11Zm28-.12c-.21-.55-.05-1.17.35-1.36.69-.31.97 1.14.28 1.51-.34.17-.53.13-.63-.15Zm.54-.1c.19-.07.23-.89.04-1-.16-.1-.38.25-.38.61 0 .42.07.49.34.39Zm2.71-.77c-.14-.71.16-1.27.66-1.27.38 0 .51 1.06.19 1.45-.25.31-.78.19-.85-.18Zm.59-.03c.19-.18.21-.79.04-.9-.25-.15-.54.77-.31.99.09.09.09.09.27-.09Zm3.61-.12c.11-.26.19-3.48.09-3.54-.05-.03-.19-.02-.32.03-.32.12-.35 3.69-.03 3.69.1 0 .22-.08.26-.18Zm-33.65-.38c.35-.08 1.21-.41 1.9-.74s1.5-.68 1.8-.79l.55-.2H17c-.48-.01-1.02.1-2.73.54-1.25.32-1.02.38-2.57-.64-.47-.31-.98-.64-1.15-.75l-.3-.18.25.21c.14.12.73.54 1.32.93 1.23.82 1.24.91.11.92-1.46.01-2.53-.76-3.88-2.8-.96-1.43-1.38-1.71-2.19-1.44-.44.14-.54.28-.17.22.63-.09 1.01.31 2.01 2.11 1.31 2.34 3.08 3.18 5.5 2.61Zm2.06-1.99c.1-.53-.12-1.88-.38-2.47-.35-.73-.88-1.3-2.38-2.52-.7-.58-1.38-1.19-1.5-1.35-.2-.29-.23-.3-.44-.16-.12.08-.73.24-1.36.35-1.85.34-2.5.73-2.65 1.6-.1.56.02 1.3.21 1.3.25 0 .93.71 1.4 1.47.35.55.51.73.63.68.33-.13 1.84-.55 1.97-.55.14 0 3.19 1.82 3.42 2.04.26.26 1.01-.02 1.08-.39Zm15.24-.24-.34-.28.34-.39.34-.39-.61-.06c-.69-.07-1.14-.33-1.32-.78-.34-.8.36-1.23 1.02-.64.74.66 2.27-.08 1.96-.95-.11-.31-.09-.36.22-.68.36-.37.46-.35.81.21l.18.3V21.2c0-1.32.01-1.34.55-1.49.56-.15.58-.1.56 1.58-.02.95.01 1.51.08 1.51.3 0 1.58-.33 1.68-.43.06-.07.13-.49.15-.95.03-.81.02-.83-.26-1.06l-.3-.23.33-.42c.36-.45.43-.48.61-.26.1.13.15.12.31-.08l.18-.22.38.21c.49.28.49.33.08.81-.2.24-.31.44-.25.48.05.03.1.38.1.76 0 .67.01.69.22.64.13-.03 1.11-.23 2.18-.45 2.15-.45 2.4-.52 2.4-.75 0-.2-.15-.19-1.43.07l-1.09.23-.24-.28c-.13-.15-.24-.36-.24-.47 0-.19.77-1.38 1.29-2l.29-.34.36.27c.45.35.45.38-.01.99-.28.39-.32.49-.17.44 1.34-.42 2.44-.06 2.44.8 0 .29.09.3.96.08.82-.21.83-.23.91-1.99.07-1.61.03-1.53.78-1.58l.3-.02.03 1.5c.06 2.79.11 2.74-4.28 3.69-1.68.36-3.34.72-3.7.8-.36.09-.86.16-1.12.16-.3 0-.6.08-.83.22-1.16.68-2.87.61-3.1-.12-.08-.26-.22-.25-.3.01-.17.53-1.33 1.49-1.8 1.49-.25 0-.17.18.15.35l.31.16-.18.3c-.39.66-.55.73-.93.4Zm-12.59-.6c-.48-.71-.49-.76-.14-1.13.36-.37.36-.37.83.32.44.65.44.74-.03 1.18l-.25.24zM31 24.56c1.29-.21 2.24-1.84 1.54-2.65-.15-.17-.41.34-.37.72.12 1.03-1.62 1.84-2.38 1.11-.35-.34-.84-.28-.74.09.16.5.84.9 1.4.81.11-.01.36-.05.55-.08Zm4.3-1.06c.46-.12.92-.28 1.02-.37.11-.1.4-.18.71-.19.45-.03 3.06-.56 6.87-1.4 1.98-.44 2.1-.6 2.1-2.78 0-.8-.02-1.46-.04-1.46-.03 0-.16.04-.3.1l-.26.1v1.3c0 1.5-.1 1.82-.62 1.99-.26.08-1.71.41-1.82.41-.01 0-.01-.13.02-.3.13-.92-.36-1.21-1.6-.97-1.38.28-1.39.27-.73-.59.43-.54.44-.58.28-.76-.19-.22-.15-.25-.92.77-1 1.32-.84 1.58.77 1.26 1.34-.26 1.4-.26 1.54.04s-.09.7-.44.77c-2.23.49-4.29.88-4.53.86l-.3-.03-.03-.73c-.02-.62-.05-.73-.18-.68-.09.03-.22.06-.29.06-.09 0-.14.22-.17.76-.04.94-.14 1.04-1.28 1.28-1.16.25-1.16.26-1.13-1.59.01-.8 0-1.45-.02-1.45s-.15.04-.29.1l-.26.1v3.02l.29.29c.35.34.5.35 1.61.09ZM46.62 21c-.22-.09-.22-.11-.22-2.09v-2l.38-.1c.2-.06.47-.11.6-.11h.24l-.04 1.87c-.04 2.38-.18 2.74-.96 2.43Zm.56-.52c.18-.57.26-3.48.1-3.48-.59.01-.58-.03-.58 1.89 0 .98.03 1.81.07 1.84.15.16.32.05.41-.25Zm-22.15-7.14c-.07-.03-.32-.33-.57-.67-.64-.91-1.74-1.9-2.48-2.26-.63-.3-2.54-.85-10.83-3.16C5.74 5.74.15 4.08.01 3.94c-.18-.18 1.55.24 2.52.61.16.07.17-.02.17-1.04 0-1.28-.06-1.22 1-.86.88.3.83.35.86-.7l.03-.85H2.3C.83 1.1 0 1.06 0 1 0 .87 50.76.87 51.05 1c.11.05-9.74.09-22.5.1-15.21.01-22.62.05-22.45.11.31.13 4.12 1.25 12.45 3.69 2.09.61 4.05 1.22 4.35 1.37.77.37 1.96 1.59 2.34 2.41l.3.62.32-.6c1.11-2.08 1.69-2.38 7.09-3.76 2.04-.52 5.9-1.51 8.59-2.2 3.87-.99 4.91-1.23 4.97-1.12.05.07.09.52.09.99 0 1.06-.05 1.02.96.74l.84-.23v2.15l1.22-.33c1.22-.34 1.71-.42 1.52-.26-.13.13-3.83 1.08-13.02 3.37-9.15 2.28-9.1 2.26-10.34 3.43-.39.37-.9.95-1.15 1.29l-.45.63-.51-.01c-.29 0-.57-.03-.64-.05Zm1.55-.82c.91-1.23 1.99-2.08 3.19-2.52.35-.12 4.62-1.22 9.5-2.44l8.88-2.21.03-.97c.01-.54-.01-.98-.05-.98-.05 0-.24.05-.43.1-.8.24-4.85 1.29-11.31 2.94-3.78.96-7.11 1.84-7.4 1.96-1.48.56-2.83 2.13-3.2 3.72-.17.71-.22.72-.38.06-.38-1.68-1.86-3.33-3.49-3.89-.31-.11-2.89-.88-5.72-1.7C9.89 4.75 4.7 3.19 3.71 2.85c-.41-.14-.76-.25-.78-.25s-.03.47-.03 1.05v1.04l.73.21c.39.12 1.15.34 1.67.5s2.34.68 4.05 1.15c13.59 3.79 12.86 3.55 14.05 4.63.36.33.88.91 1.15 1.3l.5.71.51.01h.51zm-.79-1.14c.31-.95 1.54-2.34 2.57-2.9.71-.38 1.25-.53 10.29-2.84 2.31-.59 5.01-1.28 6-1.53l1.79-.46-.03-.95c-.01-.52-.04-.96-.05-.97s-.9.2-1.97.48c-1.06.27-4.77 1.22-8.24 2.1-6.4 1.62-7.32 1.88-7.96 2.2-.94.47-2.12 1.89-2.46 2.95-.16.53-.33.63-.33.2 0-.44-.69-1.64-1.29-2.24-1.05-1.05-.29-.78-12.81-4.46-2.72-.8-5.22-1.54-5.54-1.66C4.71.94 4.7.95 4.7 2.04v.95l.82.25c1.55.47 6.92 2.04 10.93 3.21 6.44 1.87 6.86 2.05 7.94 3.33.45.54 1.11 1.73 1.11 2 0 .24.16.03.29-.4Z"/></svg>