<svg xmlns="http://www.w3.org/2000/svg" width="51" height="51" viewBox="0 0 51 51"><path fill="#fff" fill-rule="evenodd" stroke="#fff" stroke-width=".429" d="M29.14 35.32c-.64-.41-.75-.66-1.03-2.42-.34-2.12-1.49-1.47-3.33 1.89l-.18.32-.87-.03-.88-.03-.06-1.37c-.08-1.64-.22-2.01-.8-2.06-.66-.06-1.73 1.04-2.63 2.69-.4.73-.51.79-1.51.79-1.06 0-1.18-.06-1.11-.59.11-.85 1.45-6.04 1.58-6.13.19-.13 2.7-.05 2.75.08.02.06-.1.58-.27 1.16-.16.58-.3 1.09-.3 1.13s.45-.36 1-.88c1.56-1.49 2.33-1.91 3.05-1.67.7.23.94.72 1.04 2.19l.06.85.56-.7c1.9-2.34 3.37-3.09 4.21-2.15.37.42.46.83.54 2.46.09 2.12.25 2.42 1.22 2.29.92-.12 1 .53.15 1.22-1.21.97-2.54 1.37-3.19.96Zm1.92-.47c1.45-.73 2.04-1.53 1.05-1.42-1.05.12-1.32-.35-1.42-2.53-.1-2.13-.31-2.6-1.19-2.6-.8 0-1.61.62-3.07 2.37-.51.62-.97 1.13-1.02 1.13s-.11-.57-.13-1.27c-.03-1.39-.17-1.8-.65-2.02-.68-.31-1.35.05-3.04 1.63-1.04.97-1.49 1.31-1.49 1.13 0-.02.16-.61.35-1.31.19-.71.35-1.3.35-1.32s-.53-.04-1.19-.04h-1.18l-.72 2.93c-.4 1.6-.75 3-.77 3.09-.05.16.04.18.89.18h.95l.52-.89c1.99-3.38 3.69-3.54 3.7-.33v1.22h1.48l.46-.83c1.82-3.25 3.19-3.42 3.55-.45.2 1.66 1.05 2.1 2.57 1.33Zm8.84.24c-.63-.25-1-.92-1.07-1.93l-.05-.71-.97.96c-1.88 1.87-3.42 2.14-4.4.79-.58-.8-.5-1.67.37-4.38l.48-1.47 1.29-.03c.7-.01 1.32.01 1.38.07.05.05-.05.57-.26 1.32-.2.68-.43 1.53-.52 1.88-.55 2.16 1.29.97 3.14-2.04l.68-1.1 1.26-.03c1.1-.02 1.27 0 1.27.13 0 .09-.2.96-.44 1.93-.8 3.2-.76 3.43.57 2.95.54-.19.64-.14.69.37.07.79-2.36 1.71-3.42 1.29ZM10.38 35c-2.95-.5-3.86-3.17-1.78-5.2 2.03-1.99 6.36-2.08 7.55-.15.33.53.41 1.5.17 2.08l-.12.27h-5.3v-.39c0-.51.09-.56 1.15-.7 1.16-.16 1.49-.34 1.53-.85.05-.53-.1-.66-.75-.66-1.25 0-2.19 1.04-2.3 2.54-.13 1.8 1.76 2.35 3.81 1.11.74-.45.78-.44 1.21.11.47.62.46.66-.32 1.02-1.64.74-3.47 1.05-4.85.82Zm31.33-.26c.59-.19 1.39-.69 1.39-.88 0-.24-.17-.28-.56-.11-1.35.56-1.53-.16-.79-3.14.25-1 .45-1.86.45-1.92s-.4-.09-1.02-.07l-1.02.03-.7 1.12c-1.58 2.51-2.81 3.57-3.46 2.98-.3-.27-.25-.76.25-2.51.25-.86.45-1.58.45-1.6 0-.03-.51-.03-1.12-.02l-1.13.03-.43 1.3c-1 3.01-.94 4.08.26 4.66.95.46 1.91.03 3.5-1.58.63-.63 1.16-1.12 1.18-1.1.03.02.07.4.1.83.12 2 .85 2.54 2.65 1.98Zm-28.66-.13c.87-.18 2.39-.74 2.5-.91.12-.2-.53-.76-.72-.62-1.43 1-3.33 1.17-4.09.36-1.01-1.06-.4-3.34 1.08-4.08 1.29-.64 2.46-.01 1.97 1.07-.2.43-.47.53-2.26.83-.24.03-.33.1-.33.24 0 .19.09.2 2.45.2h2.44l.07-.36c.26-1.4-.49-2.34-2.13-2.69-3.09-.66-6.27 1.12-6.27 3.51-.01 2.05 2.23 3.08 5.29 2.45Zm30.18-8.3c-.53-.33-.66-.71-.73-2.18-.1-1.74-.28-2.05-.98-1.69-.61.31-2.02 2.12-2.58 3.29l-.18.37h-2.49l.05-.43.05-.42-.63.32c-1.93.97-3.09.54-3.49-1.3l-.06-.28-.68.58c-2.31 1.94-4.04 2.09-4.96.42-.44-.79-.45-2.36-.01-3.18.67-1.29 2.24-2.37 3.41-2.35.48 0 1.73.26 2.86.6.1.03.21-.08.32-.31l.17-.35h1.3c1.54 0 1.45-.16.96 1.65-.76 2.76-.72 3.21.26 3.27l.53.03.05.4c.06.46.45-.85 1.16-3.82l.36-1.53h1.49c1.73 0 1.63-.09 1.29 1.2-.11.41-.2.79-.2.84s.44-.34.99-.86c1.84-1.77 2.91-1.93 3.61-.53.23.47.25.6.25 2.1 0 1.37.03 1.65.18 1.88.26.4.68.37 1.03-.09.59-.77 1.43-.87 2.05-.25 1.12 1.12-.49 3.03-1.86 2.22l-.36-.21-.77.36c-.98.47-1.89.56-2.39.25Zm1.48-.17c.3-.09 1.04-.42 1.64-.74 1.27-.67 1.55-.77 1.55-.58 0 .07-.28.26-.62.41-.6.27-.62.29-.43.43.65.5 1.85-.21 1.85-1.09 0-1.12-1.04-1.38-1.92-.46-.48.51-.78.6-1.19.39-.4-.22-.49-.61-.49-2.09 0-3.59-1.01-3.99-3.62-1.44-.64.63-1.21 1.12-1.26 1.09-.06-.04-.03-.38.09-.88.1-.46.21-.97.25-1.14l.06-.31-.78-.06c-.42-.03-.98-.03-1.24 0l-.48.06-.45 1.86c-.25 1.02-.61 2.39-.8 3.03l-.34 1.18h2.08l.17-.31c.84-1.55 2.32-3.33 2.83-3.41.8-.13 1.05.31 1.17 2.09.13 1.96.54 2.38 1.93 1.97ZM4.55 26.1c-.27-.05-.9-.2-1.4-.32l-.9-.24-.03-.97c-.03-1.13-.02-1.14.92-.71 2.36 1.08 5.66.56 5.66-.89 0-.65-.19-.75-2.45-1.21-2.54-.53-3.34-1.15-3.35-2.62-.01-2.24 3.11-3.71 7.45-3.51 1.48.07 2.95.25 3.11.38.13.11-.64 3.36-.81 3.42-.05.02-.4.02-.76-.01l-.66-.04-.05-.67c-.09-1.17-.54-1.51-2.01-1.51-1.49 0-2.67.6-2.67 1.37 0 .67.48.94 2.6 1.47 3.18.79 4.05 1.88 2.99 3.74-.94 1.65-4.82 2.83-7.64 2.32Zm10.4 0c-1.12-.46-1.58-2.88-1.19-6.23l.06-.48 1.36.03 1.37.03.05 1.92c.05 2.08.11 2.29.52 1.98.49-.38 1.68-2.19 2.34-3.58l.18-.38.96.03.95.03.27 2.2c.37 3.02.29 2.83.95 2.1 1.01-1.1 1.86-2.76 1.57-3.05-.05-.05-.41-.13-.79-.18-.7-.07-.7-.07-.68-.37.06-.81-.14-.75 2.38-.75 2.28 0 2.45.03 2.26.38-.21.39-2.44 3.19-3.77 4.72l-1.39 1.61-1.4-.03-1.4-.03-.17-1.6c-.09-.88-.17-1.64-.17-1.69-.01-.05-.23.22-.5.6-1.55 2.2-2.83 3.13-3.76 2.74Zm-6.21-.49c2.26-.6 3.56-1.76 3.56-3.15 0-1.05-.71-1.54-3.15-2.16-2.57-.65-3.16-1.15-2.63-2.2.43-.84 1.54-1.27 3.09-1.18 1.25.07 1.81.56 1.94 1.69l.07.6.51-.03.51-.03.37-1.47c.32-1.3.35-1.48.2-1.52-1.15-.33-5.07-.31-6.54.03-2.61.6-3.99 2.29-3.19 3.88.41.79.85 1.01 2.94 1.43 2.2.45 2.68.71 2.68 1.45 0 1.51-2.94 2.25-5.45 1.36-.5-.17-.98-.34-1.07-.37-.16-.06-.18.01-.18.64v.7l.36.12c1.65.55 4.37.64 5.98.21Zm7.58 0c.53-.34 1.55-1.5 2.31-2.63.75-1.12.78-1.08 1.01 1.22.08.84.16 1.53.18 1.55.02.01.56.05 1.2.08l1.17.05.87-1.01c.48-.56 1.13-1.31 1.45-1.67.87-1.01 2.71-3.41 2.65-3.47-.03-.03-.93-.08-1.99-.11l-1.94-.05-.07.28c-.09.34-.14.3.63.44.36.06.69.15.75.21.42.42-.44 2.21-1.74 3.63-.83.9-.85.87-1.2-2.17-.31-2.63-.22-2.36-.85-2.36-.85 0-.94.07-1.59 1.27-.94 1.73-1.88 2.93-2.31 2.93-.39 0-.5-.47-.53-2.37l-.04-1.83H15.2c-.61 0-1.12.04-1.15.1-.13.21-.17 3.17-.06 4.04.26 1.94 1.13 2.63 2.33 1.87Zm12.88.14c.56-.2 1.6-.9 2.38-1.6.72-.66.87-.65.95.03.14 1.15.68 1.67 1.66 1.6 1.29-.09 2.69-1.18 1.52-1.18-1.01 0-1.13-.71-.51-3.17.22-.87.4-1.64.4-1.7 0-.1-.28-.13-1.05-.13H33.5l-.2.41c-.15.29-.26.39-.38.35-2.94-.9-3.87-.83-5.24.43-2.3 2.1-1.14 5.9 1.52 4.96Zm.21-1.51c-1.31-.92.07-2.82 2.46-3.39.93-.23 1.07-.17 1 .36-.24 1.78-2.46 3.73-3.46 3.03Zm1.25-.34c.99-.48 2.5-2.9 1.81-2.9-.65 0-2.01.56-2.56 1.06-1.3 1.16-.73 2.55.75 1.84Z"/></svg>