<svg xmlns="http://www.w3.org/2000/svg" width="51" height="51" viewBox="0 0 51 51"><path fill="#fff" fill-rule="evenodd" stroke="#fff" stroke-width=".359" d="M11.55 50.11C2.6 42.01.14 28.33 5.66 17.39 13.15 2.56 32-2.44 45.76 6.76c1.64 1.09 4.04 3.15 4.04 3.46 0 .21-.28.02-.92-.63-3.43-3.46-9.25-6.21-14.73-6.94C14.37 0-1.4 18.35 4.11 37.6c1.41 4.92 4.26 9.36 8.34 12.98.51.45.65.62.5.62-.11-.01-.72-.48-1.4-1.09Zm4.09.57C7.57 44.62 3.44 33.89 5.55 24.47 8.77 10.13 23.06 1.49 37.23 5.32c.71.2.89.3.7.41-.05.03-.42-.01-.83-.09-3.85-.74-8.69-.55-12.24.47-14.9 4.27-21.51 21.26-13.53 34.81.91 1.54.83 1.82.91-3.49.06-3.98.1-4.7.23-4.8.23-.18 3.59-1.53 3.81-1.53.31 0 .33.21.26 1.97-.04.9-.04 1.63-.01 1.63s.6-.91 1.28-2.02c1.62-2.69 1.95-3.16 2.41-3.39 1.26-.64 3.23.59 2.88 1.81-.05.17-.71 1.26-1.46 2.43-.76 1.16-1.44 2.22-1.52 2.35-.15.22-.11.27 1.36 1.75 1.2 1.22 1.52 1.6 1.61 1.92.4 1.53-1.53 3.14-3.02 2.52-.18-.08-1.05-.89-1.95-1.81l-1.62-1.67v2.08c-.01 3.27.13 3.1-3.52 4.49-.43.16-.78.32-.78.36 0 .06.69-.17 1.83-.61.46-.18.53-.14 1.34.6 5.33 4.87 14.94 6.6 21.83 3.95 5-1.94 9.59-6.35 11.7-11.24.45-1.04.42-1.03 1.18-.51.76.5.81.61.08.2-.7-.4-.67-.42-1 .36C45.96 45.78 38.19 51 30.22 51c-5.73 0-12.38-2.42-15.36-5.59-.38-.39-.35-.4-1.68.14-.61.24-1.15.42-1.19.39-.05-.03-.09-.86-.09-1.84v-1.79l-.51-.78c-3.65-5.57-4.75-13.58-2.72-19.88 3.3-10.24 11.66-16.41 22.68-16.73 2.6-.08 2.1-.19-.9-.21-15.67-.09-27.74 14.34-24.7 29.51 1.37 6.82 5.04 12.64 10.43 16.52.28.21.52.4.52.42 0 .17-.48-.04-1.06-.48Zm12.17-2.99c-3.06-.32-5.75-1.33-6.96-2.6-.81-.84-.76-1.11.25-1.6 3.49-1.69 15.21-5.52 22.26-7.28 4.42-1.1 4.56-1.06 3.73 1.22-2.39 6.61-10.89 11.13-19.28 10.26Zm4.49-.3c6.98-.86 12.86-5.01 14.65-10.33.45-1.35.38-1.46-.87-1.21-6.74 1.34-25.48 7.47-25.48 8.33 0 1.95 6.81 3.82 11.7 3.21Zm5.1-2.08c0-.04.33-.3.72-.56 2.28-1.5 3.91-3.37 5.1-5.85.58-1.22.81-1.5 1.2-1.5 1.38 0 .08 2.79-2.38 5.09-1.44 1.34-4.64 3.29-4.64 2.82Zm-23.1-.99c2.03-.88 1.9-.62 1.9-3.74 0-2.16.02-2.38.17-2.38.09 0 .9.77 1.81 1.7.9.94 1.77 1.77 1.93 1.85.94.49 2.4-.26 2.7-1.4.19-.71.04-.96-1.61-2.6-.82-.82-1.5-1.55-1.5-1.62s.7-1.21 1.56-2.54c1.95-3 2-3.35.59-4-1.38-.64-1.68-.37-4.2 3.88-.66 1.12-1.26 2.03-1.34 2.03-.11 0-.12-.35-.06-2.05.06-1.52.04-2.05-.04-2.05-.06 0-.89.32-1.85.71l-1.73.71-.06 2.86c-.12 4.9-.09 9.32.05 9.32.07-.01.83-.31 1.68-.68Zm27.91-2.42c1.82-1.82 3.03-4.04 2.26-4.18-.29-.06-.48.17-.97 1.23-.61 1.3-1.46 2.57-2.51 3.75-1.13 1.28-.37.78 1.22-.8Zm-18.65-.88c-.19-.32-.1-11.59.1-12.02.42-.91 1.2-1.4 3.14-1.98.84-.25.87-.24.95.61.16 1.69.01 10.69-.18 11.12-.38.86-1.04 1.33-2.71 1.95-1.17.43-1.22.44-1.3.32Zm1.92-.87c.83-.32 1.57-.91 1.81-1.45.26-.57.3-11.5.04-11.5-.65 0-2.38.74-2.89 1.24-.79.78-.86 1.73-.67 9.58l.06 2.76.46-.17c.25-.1.79-.31 1.19-.46Zm3.09-1.02c-.04-.03-.07-2.82-.07-6.2 0-7.1-.13-6.36 1.21-6.73 2.14-.58 2.2-.55 4.44 1.97l1.6 1.8.05-2.16c.06-2.39.09-2.51.74-3.08.53-.47 2.45-1.07 2.89-.9.42.16.31 11.09-.12 11.84-.51.89-1.83 1.37-2.74.99-.22-.09-.98-.88-2.26-2.35-1.07-1.21-1.95-2.21-1.97-2.21s0 .98.03 2.19c.1 3.46-.08 3.79-2.54 4.62-.88.3-1.14.34-1.26.22Zm1.21-.5c2.2-.7 2.27-.82 2.28-4.28 0-1.48.01-2.74.02-2.79.03-.15.38.21 2.38 2.5 1.2 1.38 2.05 2.26 2.24 2.34.78.32 2.02-.16 2.38-.92.23-.5.4-6.76.26-9.82l-.07-1.58-.45.07c-2.35.35-2.71.86-2.72 3.76 0 1.89-.05 2.59-.19 2.59-.04 0-.85-.88-1.81-1.97-2.31-2.6-2.33-2.61-4.3-2.05l-.95.27-.03 6.08c-.01 3.34.01 6.07.05 6.07s.45-.12.91-.27Zm14.47-3.84c-2.55-.37-3.98-1.97-4.23-4.75-.46-4.97 2.78-8.4 7.76-8.22 2.1.08 3.12.75 3.12 2.04 0 1.1-.66 1.71-1.7 1.58-2.78-.35-4.17.11-4.92 1.64-.72 1.45-.35 3.56.72 4.1 1.03.52 2.21.1 2.36-.84l.06-.41-.69.04c-1.02.08-1.23-.19-1.23-1.57v-.99l.38-.1c1.14-.3 4.58-1.02 4.76-.99.3.04.38 4.93.1 5.68-.51 1.32-2.29 2.43-4.43 2.75-1.06.16-1.19.17-2.06.04Zm2.94-.49c1.47-.41 2.75-1.31 3.21-2.24.26-.54.32-5.46.06-5.46-.18 0-4.58.98-4.63 1.04-.02.02-.05.4-.06.84-.02 1.13.11 1.26 1.1 1.19.83-.06.87-.02.77.74-.16 1.21-1.98 1.69-3.1.84-.98-.75-1.19-3.03-.42-4.48.8-1.5 2.27-1.97 5.04-1.63 1.84.23 2.05-2.19.24-2.79-3.74-1.24-8.16 1.19-8.95 4.91-1.08 5.1 2.03 8.34 6.74 7.04Zm-36.72-1.97c-.14-.13-.08-9.2.06-9.31.24-.19 2.93-1.21 3.52-1.33 1.14-.23 2.01.09 2.41.88l.21.42.07-.61c.03-.34.06-.87.06-1.19v-.58l1.15-.37c1.59-.5 1.45-.76 1.46 2.63.01 3.34.02 3.37.5 3.41.73.06.74.04.77-3.69l.03-3.28.8-.26c.96-.3 1.19-.31 1.5-.06l.24.19.03 2.94c.04 3.26-.02 3.8-.51 4.71-1.04 1.96-4.35 2.66-5.46 1.16l-.29-.4-.11.51c-.32 1.51-.99 2.01-4.84 3.66-1.67.72-1.51.66-1.6.57Zm1.8-.97c3.45-1.48 4.05-1.93 4.34-3.26.24-1.1-.16-1.88-1.07-2.12-.54-.15-.54-.15-.03-.63 1.14-1.1 1.19-2.67.09-3.23-.81-.4-1.5-.29-3.67.6l-1.23.5v4.39c0 2.41.02 4.39.04 4.39s.71-.29 1.53-.64Zm.53-3.1c0-1.39-.02-1.36.82-1.36.73 0 1.05.97.55 1.71-.19.29-1.06.88-1.29.89-.05 0-.08-.56-.08-1.24Zm.96.4c.6-.6.44-1.46-.26-1.46-.49 0-.48-.01-.42.98.05.95.14 1.02.68.48Zm6.94-.44c2.03-.79 2.49-2.11 2.38-6.81-.05-2.48-.07-2.5-1.38-2.13l-.65.19-.05 3.19c-.05 3.35-.07 3.47-.52 3.78-.27.19-.78.21-1.02.03-.29-.21-.35-.86-.36-3.64 0-1.45-.02-2.63-.05-2.63s-.47.13-.98.3l-.94.3-.06 1.12c-.24 4.18.04 5.9 1.04 6.41.47.24 1.83.18 2.59-.11Zm2.92-5.42c.03-4.94-.09-4.44 1.18-4.88 2.94-1.03 4.75-.67 5.06 1.01l.06.38.22-.63c.62-1.85 2.02-3.07 3.88-3.38 2.14-.36 3.66.64 2.91 1.91-.28.47-.66.59-1.68.53-2.06-.12-3.3 1.81-2.35 3.66.5.98 1.8.86 1.8-.17 0-.31-.01-.32-.47-.35-.59-.04-.73-.26-.73-1.15v-.61l1.08-.25c2.04-.48 2.31-.52 2.44-.39.1.1.13.64.13 2.02v1.88l-.3.44c-.86 1.23-3.24 1.89-4.85 1.34-1.27-.44-2.13-1.93-2.2-3.8 0-.06-.11.12-.25.4-.13.27-.41.68-.61.89l-.36.4.68.64c1.31 1.21 1.39 2.15.24 2.73-.82.42-1.26.22-2.42-1.1l-.83-.94-.06 1.23c-.06 1.36-.09 1.5-.45 1.74-.29.18-1.79.75-2 .75-.13 0-.15-.55-.12-4.3Zm1.06 3.7c1.24-.48 1.16-.35 1.22-2.06.03-.94.09-1.49.16-1.51.06-.02.46.36.89.84 1.51 1.71 1.99 1.91 2.71 1.19.62-.62.52-1-.51-1.98-.99-.94-.96-.87-.46-1.44.55-.63.83-1.27.88-2.04.12-1.95-1.78-2.42-4.99-1.21l-.56.22-.06.92c-.06.8-.14 7.37-.09 7.37.01 0 .37-.14.81-.3Zm-7.98-1.32c-.01-1.15-.02-1.21-.14-.85-.15.4-.25.56-.68 1.02l-.28.31.45.22c.25.12.48.29.51.37.12.3.14.13.14-1.07Zm-3.93.65c-.04-.03-.07-.51-.07-1.05v-.99l.35-.15c.94-.39 1.46.32.99 1.33-.24.5-1.07 1.07-1.27.86Zm.61-.49c.53-.37.72-1.39.28-1.5-.51-.12-.66.09-.66.91 0 .8.03.84.38.59Zm20.93-1.38c1.19-.26 2.04-.78 2.41-1.49.2-.4.25-3.54.05-3.73-.04-.04-.72.08-1.52.26l-1.45.33v.57c0 .69.12.82.62.71.45-.11.58.01.58.5 0 1.84-2.2 1.6-2.6-.28-.43-1.99.92-3.55 2.93-3.39 1.08.09 1.46-.13 1.47-.87 0-.91-1.35-1.31-3.1-.91-2.63.6-4.18 3.52-3.33 6.3.52 1.69 1.96 2.42 3.94 2Zm3.14-.88c-.03-.07-.04-2-.03-4.28l.03-4.15 2.41-.49c2.9-.59 2.74-.61 2.74.48 0 1.05 0 1.05-1.52 1.36l-1.08.23v.48c0 .27.02.49.04.49s.49-.09 1.05-.21c1.32-.27 1.31-.27 1.31.66 0 .98-.09 1.07-1.33 1.3-1.07.2-1.07.2-1.07 1.09 0 .34.04.47.12.44.65-.24 2.41-.5 2.49-.37.1.14.03 1.65-.08 1.82-.09.14-.42.23-2.58.72-1.16.25-2.18.49-2.28.51-.09.03-.19-.01-.22-.08Zm4.46-1.18c.32-.09.37-.15.43-.48.06-.41.08-1.12.02-1.12-.02 0-.58.11-1.26.25s-1.24.25-1.26.25-.04-.42-.04-.94v-.93l1.13-.24 1.12-.24.03-.68c.02-.37-.01-.67-.05-.67s-.55.1-1.12.21c-1.2.25-1.21.25-1.21-.62 0-.7.02-.72 1.2-.94 1.47-.28 1.4-.23 1.4-1.05 0-.38-.04-.7-.09-.7-.12 0-4.11.79-4.33.86-.17.05-.18.33-.18 4.03v3.98l1.92-.44c1.06-.24 2.09-.48 2.29-.53Zm1.06.03c-.15-.15-.08-8.11.07-8.26.31-.31 3.32-.73 4.14-.57 1.99.36 2.54 2.52 1.05 4.11l-.45.48.55.58c1.27 1.34 1.39 2.28.37 2.8-.86.44-1.41.17-2.46-1.17l-.79-1.02-.02 1.03c-.04 1.61.01 1.54-1.5 1.89-.97.23-.88.22-.96.13Zm-17-.1c-.04-.03-.07-.61-.07-1.29v-1.22l.35-.12c1.44-.48 1.72 1.33.37 2.37-.45.34-.54.38-.65.26ZM44 21.5c.25-.06.6-.16.77-.21l.32-.1.03-1.37c.04-1.74.06-1.74 1.29-.18 1.02 1.3 1.23 1.44 1.91 1.26 1.07-.29 1.04-1.05-.11-2.35-.83-.94-.82-.9-.3-1.4 1.53-1.47.99-3.54-.99-3.81-.49-.06-2.94.27-3.49.47l-.23.09v3.9c0 3.68.01 3.91.18 3.86.09-.03.37-.1.62-.16Zm-17.27-.39c.76-.84.54-1.94-.32-1.66-.19.06-.21.14-.21 1.06 0 1.11.03 1.15.53.6Zm-11.59-2.16c-.28-.43.24-2.14 1.13-3.74 2.05-3.71 5.61-6.4 9.98-7.54 2.94-.77 7.05-.9 9.95-.31 4.46.91 8.63 4.35 5.8 4.79-6.04.94-15.88 3.51-23.75 6.2-2.76.94-2.87.96-3.11.6Zm2.83-.8c7.43-2.55 14.28-4.38 22.33-5.96 2.43-.47 2.5-.5 2.25-1.03-1.25-2.63-7.78-4.46-13.4-3.77-6.58.81-11.75 4.63-13.55 10-.6 1.8-.63 1.79 2.37.76Zm27.15-2.08.03-1.22.55-.03c.79-.04 1.08.29 1.02 1.15-.02.27-.64.98-1.03 1.19-.58.3-.6.26-.57-1.09Zm-27.73.92c-.93-.93 2.09-5.33 5.01-7.28 1.17-.78 1.52-.71.55.12-2.12 1.8-3.88 4.29-4.41 6.25-.27 1-.72 1.34-1.15.91Zm28.5-.35c.8-.71.74-1.54-.09-1.54h-.4v.95c0 1.09-.02 1.06.49.59Zm-27.97.14c.09-.07.28-.51.43-.98.47-1.48 1.52-3.24 2.69-4.49l.41-.45-.51.42c-1.49 1.21-3.44 4.11-3.44 5.11 0 .52.12.62.42.39Zm18.58-4.83c0-.09.17-.33.39-.54.48-.47.56-.72.37-1.1-.51-.97-3.28-2.2-5.4-2.4-1.02-.09-1.01-.31.01-.31 5.49 0 9.95 3.3 5.73 4.24-.41.09-.83.19-.92.22-.12.04-.18 0-.18-.11Zm2.12-.71c1.28-.66-.51-2.2-3.41-2.94-.87-.22-1.22-.23-.49 0 2.14.63 3.43 2.17 2.57 3.06l-.32.33.69-.16c.38-.08.81-.22.96-.29Z"/></svg>