<svg xmlns="http://www.w3.org/2000/svg" width="51" height="51" viewBox="0 0 51 51"><path fill="#fff" fill-rule="evenodd" stroke="#fff" stroke-width=".669" d="M17.2 46.98c0-.07.4-.34.88-.6 3.41-1.81 6.28-6.42 6.44-10.33l.03-.7-.34-.03c-.56-.06-.76.05-1.11.6-3.06 4.82-10.52 5.13-14.25.61-4.05-4.91-1.24-14.12 6.85-22.46 1.49-1.54 9.77-9.6 9.91-9.65.2-.08 9.62 9.23 11.38 11.24 5.32 6.05 7.89 11.85 7.32 16.5-.95 7.75-11.3 10.25-15.99 3.87-.51-.7-.65-.78-1.24-.68l-.41.07.07.62c.13 1.27.89 3.62 1.72 5.29 1.14 2.31 2.64 3.92 4.68 5.04.49.26.88.53.88.58-.03.16-16.82.19-16.82.03Zm15.64-.47a8.4 8.4 0 0 1-1.49-1c-.16-.14-.08-.02.2.27.65.69.47.66-.37-.06-1.32-1.13-2.64-2.85-3.29-4.28-.34-.74-.34-1.1 0-.49.27.49.24.4-.34-1.04-.63-1.59-.95-2.8-1.02-3.87l-.06-.91.59-.05c.82-.07.9-.03 1.36.64 4.21 6.2 14.39 4.1 15.57-3.23C45 26.29 40.14 18.05 30.4 9.45c-.69-.6-1.72-1.53-2.3-2.05s-1.36-1.21-1.73-1.54l-.67-.58-2.87 2.78c-7.61 7.34-9.97 9.93-12.24 13.42-5.13 7.88-4.12 15.33 2.38 17.53 3.96 1.34 7.87-.08 10.23-3.7.18-.27.89-.39 1.34-.22l.29.12-.06.87c-.28 4.01-3.02 8.59-6.17 10.31l-.75.41h15.5zm-13.54-.1c0-.05.28-.31.63-.58 2.3-1.82 3.83-4.41 4.68-7.95.22-.93.39-1.26.39-.74 0 1.17-1.25 4.43-2.35 6.12-.92 1.42-3.35 3.7-3.35 3.15Zm-4.45-7.37c-2.52-.35-4.39-1.45-5.39-3.16-.42-.72-.26-.79.18-.08 1.93 3.12 6.91 4.06 10.28 1.94.42-.27.68-.24.33.03-1.12.86-3.82 1.5-5.4 1.27Zm20.35-.13c0-.04.42-.11.92-.14 3.37-.22 6.31-2.56 7.05-5.6.1-.42.2-.64.25-.59.11.11-.13 1.08-.43 1.8-.91 2.14-3.33 3.99-5.86 4.48-.82.15-1.93.19-1.93.05Zm-15.06-7.54c.03-.18.47-1.59.96-3.15.5-1.55.9-2.86.9-2.9 0-.05-1.13-.89-2.51-1.87-2.79-1.98-2.85-2.03-2.7-2.18.05-.05 1.43-.12 3.37-.16l3.28-.06.38-1.15c1.55-4.81 1.63-5.05 1.78-5.05.11 0 .44.88 1.2 3.13l1.04 3.12h3.26c2.06 0 3.3.04 3.4.11.21.14-.2.48-2.91 2.37-1.53 1.08-2.25 1.64-2.27 1.78-.02.12.33 1.31.77 2.67.8 2.49 1.09 3.53.99 3.63-.03.03-.88-.55-1.89-1.28-2.89-2.1-3.49-2.5-3.62-2.45-.07.02-1.28.88-2.7 1.91-2.76 2-2.82 2.03-2.73 1.53Zm5.46-3.74c.09-.02.95.53 2 1.28 1.02.73 2.16 1.54 2.53 1.81.59.42.68.46.62.26-.04-.13-.46-1.42-.92-2.87-.46-1.46-.83-2.74-.81-2.85.02-.13.47-.52 1.28-1.09.69-.48 1.84-1.29 2.55-1.8l1.3-.92-3.25-.05-3.25-.05-.96-2.85c-.54-1.57-1-2.94-1.03-3.05-.04-.13-.35.68-.91 2.45-.46 1.46-.92 2.84-1 3.07l-.17.43-3.21.02-3.22.03 2.44 1.75c1.35.96 2.49 1.78 2.54 1.81.05.04.1.17.1.3 0 .18-1.51 5.09-1.81 5.87-.02.07 1.09-.69 2.49-1.69 1.39-1 2.6-1.84 2.69-1.86ZM37.75 13.4C30.44 6.09 24.49.08 24.53.04c.1-.1.86.65 14.7 14.46 10.7 10.69 12.18 12.2 11.89 12.2-.04 0-6.05-5.98-13.37-13.3ZM14 16.55c.99-1.16 4.17-4.35 8.88-8.93l2.82-2.74.62.58.63.58-.67-.69-.67-.69-2.63 2.6c-1.45 1.42-3.75 3.69-5.11 5.04-2.45 2.41-3.61 3.67-4.67 5.05-.68.89-.39.6.8-.8Zm29.38-.36c-.68-.71-1.25-1.35-1.27-1.41-.05-.14 4.8-4.98 4.99-4.98.14 0 1.06.9 2.25 2.18l.39.42-.29.3-.3.29-.93-.89c-.51-.5-.97-.9-1-.9-.04 0-.38.31-.76.69l-.69.69.83.92.82.92-.28.29c-.39.41-.43.39-1.31-.56l-.78-.86-.8.8-.79.81.92.93c1.05 1.08 1.03 1.03.58 1.39l-.35.28zm.65-.32-.98-.98.99-.95.99-.95.86.85c.78.78.89.85 1.05.73.17-.13.14-.18-.45-.83-.35-.38-.72-.79-.83-.92l-.2-.23.89-.89.9-.9.91.91c.84.83 1.14 1.01 1.14.66 0-.07-.5-.62-1.1-1.22l-1.1-1.1-2.37 2.37-2.37 2.37 1.14 1.19c1.06 1.09 1.16 1.17 1.33 1.03s.11-.21-.8-1.14Zm-4.33-3.32-.34-.35 2.22-2.23 2.22-2.22-.67-.67-.66-.66.24-.3c.39-.49.4-.48 2.14 1.3l1.67 1.7-.33.34-.33.34-.66-.65-.65-.65-2.2 2.2c-1.21 1.21-2.22 2.2-2.25 2.2-.04 0-.21-.16-.4-.35Zm4.94-4.2c.08.06.39.32.7.58.51.45.76.53.76.24 0-.07-.67-.8-1.5-1.62-1.36-1.36-1.51-1.48-1.65-1.34-.15.14-.1.22.49.82.37.37.66.69.66.71s-.99 1.02-2.2 2.23l-2.19 2.19.22.22.22.22 2.17-2.17c1.69-1.68 2.21-2.16 2.32-2.08Zm.94-2.87C42.11 2.01 40.18 0 40.3 0c.23 0 10.9 10.61 10.9 10.84 0 .27-.01.26-5.62-5.36Zm-8.56 4.39c-.18-.18-.32-.38-.32-.43 0-.12 4.97-5.04 5.08-5.04.05 0 .23.16.42.35l.34.35L40 7.65c-1.4 1.4-2.57 2.55-2.6 2.55-.04 0-.2-.15-.38-.33Zm2.78-2.42c2.33-2.33 2.34-2.34 2.15-2.55l-.19-.21-2.38 2.38c-2.23 2.23-2.36 2.38-2.21 2.55.23.26.08.38 2.63-2.17Zm-5.04.09-1.29-1.33 2.54-2.5 2.53-2.51.33.32c.18.18.33.37.33.42 0 .06-.95 1.06-2.12 2.23l-2.12 2.12.5.56.88 1.01.39.45-.28.29c-.36.38-.19.48-1.69-1.06Zm.78-.2c-.46-.51-.84-.98-.84-1.06s.95-1.08 2.1-2.22c1.85-1.82 2.09-2.09 2-2.26-.18-.34-.3-.25-2.67 2.12L33.8 6.25l1.17 1.17c1.03 1.03 1.18 1.15 1.29 1 .1-.14 0-.3-.72-1.08Z"/></svg>