<svg xmlns="http://www.w3.org/2000/svg" width="51" height="51" viewBox="0 0 51 51"><path fill="#fff" fill-rule="evenodd" stroke="#fff" stroke-width=".773" d="M9.11 51.16c-.02-.34 2.18-2.71 3.53-3.8 7.83-6.34 18.71-6.17 26.37.42 1.37 1.18 3.14 3.21 2.95 3.39-.04.05-.12.01-.17-.08-.24-.44-1.45-1.83-2.23-2.57-5.9-5.57-14.37-7.13-21.84-4.02-2.85 1.19-5.81 3.45-8.14 6.2-.26.3-.47.51-.47.46Zm14.8-16.07c-1.01-2.22-1.84-4.05-1.85-4.06s-.29.06-.63.17c-3.13.97-6.66-.22-8.42-2.85-2.13-3.18-1.01-7.65 2.37-9.49.83-.45.82-.41.41-1.26-1.02-2.15-2.79-6.1-2.79-6.23 0-.08.41-.53.9-1.01 3.93-3.73 9.7-5 14.91-3.26 8.77 2.91 12.9 13.22 9.09 22.63-2.08 5.12-6.67 8.83-11.53 9.33l-.63.06zm3.19 3.65c7.37-1.39 12.29-8.46 11.97-17.19-.28-7.34-5.13-13.27-12.1-14.77-1.36-.29-4.26-.32-5.6-.05-2.63.53-5.07 1.75-7.19 3.61-1.11.97-1.11.96-.55 2.15.87 1.81 2.69 5.76 2.73 5.91.03.11-.19.27-.73.55-2.58 1.3-4.03 4.44-3.37 7.25.76 3.25 4.37 5.61 7.8 5.1 5.35-.79 7.91-6.35 4.82-10.48-1.62-2.17-5.09-3.27-7.85-2.49-.65.18-.65.17-.05-.74 3.14-4.79 9.04-5.15 12.59-.79 2.66 3.27 2.32 8.7-.74 11.91-1.62 1.69-3.28 2.44-5.44 2.44-1.03 0-1.06.01-.99.2.04.11.41.92.82 1.8s1.17 2.53 1.68 3.68c1.07 2.34.86 2.17 2.2 1.91Zm-2.34-7.89c5.98-1.14 8.57-9.78 4.29-14.34-3.14-3.33-7.51-3.46-10.66-.32-.76.76-1.64 1.89-1.55 1.98.02.02.34-.04.72-.13 3.68-.86 7.85 1.62 8.68 5.16.34 1.44.12 3.13-.61 4.53-.47.92-1.91 2.39-2.76 2.83-.5.25-.54.3-.35.36.41.11 1.45.08 2.24-.07Z"/></svg>