<svg xmlns="http://www.w3.org/2000/svg" width="51" height="51" viewBox="0 0 51 51"><path fill="#fff" fill-rule="evenodd" stroke="#fff" stroke-width=".725" d="M12.24 43.7c-.96-.31-1.77-1.13-1.97-2-.12-.52-.11-31.93.01-32.36.23-.81.9-1.5 1.73-1.79.62-.22 16.8-.22 18.17 0 7.95 1.29 12.12 10 7.68 16.03l-.47.63.68.67c5.81 5.68 2.54 15.67-5.97 18.26-2.26.69-2.32.69-11.2.72-7.77.03-8.07.03-8.66-.16Zm17.66-.34c1.65-.32 2.76-.67 3.88-1.21 7.21-3.46 9.25-12.07 4.06-17.11l-.83-.8.54-.73c3.58-4.75 1.65-11.74-4.03-14.6-2.41-1.22-2.85-1.26-12.72-1.26h-8.35l-.6.3c-.72.36-1.19.93-1.34 1.65s-.15 31.18 0 31.9c.19.88.85 1.58 1.8 1.91.78.27 16.2.23 17.59-.05Zm-10.2-6.71c-.33-.35-.29-.6 1.1-6.18.66-2.68 1.18-4.92 1.15-4.97-.04-.06-.77-.1-1.71-.1-2.36 0-2.29.12-1.58-2.9.25-1.07.65-2.89.9-4.05.24-1.16.51-2.43.6-2.83.09-.42.25-.83.38-.98l.22-.26 4.33.01c4.84 0 4.81 0 4.81.65 0 .33-1.43 3.89-3.19 7.9-.5 1.15-.91 2.13-.91 2.18 0 .04.49.08 1.1.08 1.21 0 1.5.14 1.5.69 0 .39-.56 1.2-4.9 7.11-2.36 3.21-2.79 3.78-2.96 3.84a.74.74 0 0 1-.84-.19Zm2.14-1.88c5.01-6.74 6.28-8.55 6.24-8.91l-.03-.31-1.25-.06c-.69-.03-1.26-.07-1.27-.08-.12-.06.14-.74 1.26-3.35 2.81-6.56 3-7.06 2.74-7.27-.21-.18-8.12-.27-8.56-.1-.36.14-.39.23-.92 2.84-.26 1.22-.71 3.26-1.01 4.54-.3 1.27-.54 2.45-.54 2.62 0 .39.04.4 2.02.43 1.03.02 1.61.07 1.69.15.12.12-.41 2.44-1.92 8.41-.66 2.62-.65 2.55-.43 2.76.39.39.56.25 1.98-1.67Z"/></svg>