<svg xmlns="http://www.w3.org/2000/svg" width="51" height="51" viewBox="0 0 51 51"><path fill="#fff" fill-rule="evenodd" stroke="#fff" stroke-width=".426" d="M10.49 50.43c0-.43 0-1.28.01-1.9l.01-1.12-.98-.03-.98-.03v-6.1c0-3.35.03-6.18.07-6.27.08-.2 35.2-.29 35.32-.09.08.13.08 11.08 0 11.86l-.07.65H42.1l-.01.98c-.01.53-.05 1.4-.09 1.92l-.07.95-.01-.78-.02-.78-.42.03-.43.03-.03.73c-.04 1.06-.32 1.04-.32-.03v-.75H40l-.02.78-.02.77-.05-.75-.06-.75-.57-.03-.57-.03-.03.78-.03.78-.05-.8c-.03-.44-.03-1.29.01-1.9l.05-1.1.02 1.08.02 1.07h1.2v-2.2h-7.2v1.86c.01 1.03-.02 1.89-.05 1.92s-.05-.81-.05-1.86V47.4H12.7v2.2h1.09l.04-1.07.03-1.08.02 1.07.02 1.07.68.04.67.03-.67.02-.67.02-.04.58-.03.57-.02-.57-.02-.58h-1.09l-.04.78-.03.77-.02-.77-.02-.78h-.34c-.35 0-.46.29-.46 1.21 0 .16-.04.29-.1.29s-.1-.32-.1-.75v-.75h-.8v.75c0 .6-.03.75-.15.75s-.15-.16-.16-.77Zm1.09-1.95.03-1.08h-.81v2.21l.38-.03.37-.03zm1.02.02v-1.1h-.75l-.03 1.01c-.03 1.16-.02 1.19.44 1.19h.34zm28.1 0v-1.1H40v2.2h.7zm.87 1.04c.21-.06.23-.12.25-1.23l.03-1.16.86-.03.87-.03.04-.62c.03-.34.04-.63.03-.64-.01-.02-.62.29-1.36.67l-1.34.7.03 1.2c.03 1.29.03 1.29.59 1.14Zm-.47-2.79.65-.35H9.47l.05-5.19c.03-2.85.08-5.23.12-5.3.05-.08 4.39-.11 16.72-.11H43v4.95c0 2.72.03 4.95.06 4.95s.19-.09.35-.21l.29-.2V35.1H8.93l-.06 1.22c-.04.66-.07 3.36-.07 6v4.78h31.66zm-30-2.1V43.2H9.8v2.9h1.3zm1.12 0 .03-1.45h-.85v.68c0 .38-.03 1.03-.06 1.45l-.07.77h.92zm1.18 0V43.2h-.9v2.9h.9zm4.2 0V43.2h-3.9v2.9h3.9zm11.6.38c0-.6.03-1.25.06-1.45l.07-.38H17.9v2.9h11.3zm1.7-.38V43.2h-1.4v2.9h1.4zm1.2 0V43.2h-.9v.84c0 .45-.03 1.11-.06 1.45l-.07.61h1.03zm1.9 0V43.2h-1.57l-.06.83c-.04.45-.07 1.1-.07 1.45v.62H34zm3.4 0V43.2h-3.1v2.9h3.1zm2.2 0V43.2h-1.9v.38c0 .22-.03.87-.07 1.45l-.06 1.07h2.03zm.88.03-.03-1.43-.27-.03-.28-.03v2.91h.61zm1.32-.04v-1.45l-.47.03-.48.03-.03 1.43-.03 1.42h1.01zm.74 1.4c.14-.05.16-.28.16-1.45V43.2h-.6v1.45c0 1.52.01 1.55.44 1.39Zm.16-3.38v-.25l-1.52-.03-1.53-.03-.03-1.23-.03-1.22h-1.98l-.03 1.22-.03 1.23-1.55.03c-2.18.04-2 .16-2-1.28v-1.2h-1.57l-.09 1.22-.09 1.23-.44.03c-.92.07-.91.08-.91-1.28v-1.2h-1.4v2.4H9.8v.5l1.82.02c1.01.02 8.41.04 16.46.06l14.62.03zM12.2 41v-1.1h-.8v2.2h.8zm1.18-.02.03-1.08h-.39c-.44 0-.52.22-.52 1.5 0 .67.03.72.5.68l.35-.03zm1.9 0 .03-1.08H13.7v2.21l.78-.03.77-.03zm1.16.75c.03-.21.06-.71.06-1.11v-.72h-.9v1.03c0 1.16.01 1.17.45 1.17.3 0 .33-.03.39-.37Zm1.18-.85.03-1.23 12.53-.03 12.52-.02v-.7h-3.1v-2.3h-1.9v1.02c0 1.39.14 1.29-1.91 1.26l-1.74-.03-.03-1.12-.03-1.13h-1.58l-.03 1.13-.03 1.12-.73.03-.73.03.03-1.28.03-1.28 5.57-.03 5.57-.02.03 1.17.03 1.18.28.03.27.03V36.1H26.3c-10.87 0-16.4.03-16.4.1 0 .06 1.22.1 3.45.1 1.9 0 3.45.03 3.45.08.06 1.81.04 2.42-.08 2.47-.08.03-1.64.05-3.48.05-3.23 0-3.34.01-3.34.19 0 .11-.03.26-.06.35-.05.14.31.16 3.42.18l3.49.03.01 1.15c0 .63.02 1.18.02 1.23.01.04.2.07.42.07h.39zM29.2 41v-1.1H17.9v1.03c0 .57.03 1.07.07 1.1.03.04 2.58.07 5.65.07h5.58zm2.88-.02.03-1.08h-.91v2.21l.42-.03.43-.03zm5.24.1c.06-1.3.21-1.18-1.53-1.18H34.3v2.2h2.98zM40.5 41v-1.1h-.6v2.2h.6zm1.3 0v-1.1h-1v2.2h1zm.9 0v-1.1h-.6v2.2h.6zm-31.6-.05V39.9H9.93l-.07.53c-.03.28-.06.76-.06 1.05V42h1.3zm6.57-2.12c-.02-.05-.02-.62.02-1.28l.06-1.2h11.7l.03 1.27.03 1.28h-5.9c-3.24 0-5.92-.03-5.94-.07ZM11.1 37.6v-1H9.9v2h1.2zm1.2-.01v-1l-.42.03-.43.03-.03.97-.03.98h.91zm1.1.01v-1h-.8v2h.8zm1.9 0v-1h-1.6v2h1.6zm1.2 0v-1h-.9v2h.9zm12.7 0v-1H18v.48c0 .26-.03.71-.06 1l-.07.52H29.2zm2.9 0v-.99l-.44.01-.45.01-.03.98-.03.99h.95zm5.3 0v-1h-3.1v2h3.1zm3.1 0v-1h-.6v2h.6zm1.3 0v-1h-1v2h1zM0 35.41c0-.03.8-.24 1.78-.45 1.85-.39 6.46-1.4 9.37-2.04l1.7-.37.03-.33c.02-.21-.02-.34-.12-.38-.12-.05-4.42.85-11.26 2.35-.74.16-1.37.28-1.39.26-.07-.08 1.19-.37 5.49-1.29.63-.13 2.42-.52 3.97-.85 1.55-.34 2.88-.61 2.97-.61.25 0 .27-.15.1-.89-.15-.64-.18-.7-.38-.66-.11.03-.88.21-1.69.4-1.88.44-1.74.46-1.88-.24-.16-.85-.18-.87-.79-.75-.46.1-.53.09-.65-.08-.13-.19-2.63.26-6.6 1.17-.51.12-.78.13-.64.02.06-.05 6.82-1.48 6.97-1.47.16 0 .15-.23-.02-.9-.07-.3-.21-.94-.31-1.42-.11-.51-.23-.88-.3-.88-.16 0-4.68.92-6.12 1.25-.13.03-.23.01-.23-.03 0-.05.46-.19 1.03-.3 3.51-.72 5.29-1.11 5.33-1.15.03-.02-.02-.36-.11-.76-.23-.97-.21-1.01.5-1.2l.6-.17-.03-.36c-.03-.34-.01-.37.4-.5.44-.15.6-.45.4-.75-.07-.11-6.06 1.05-7.61 1.47-.39.1-.74.07-.4-.04.21-.07 3.59-.8 5.9-1.27 2-.41 2.06-.43 2.01-.65-.04-.24-.01-.25 1.01-.5.38-.09.41-.2.22-.99-.18-.81-.27-.73 1.18-1.1 1.43-.36 1.32-.19 1.02-1.52-.07-.31.05-.33-3.51.62-5.56 1.5-8.29 2.16-7.93 1.92.02-.01.74-.2 1.59-.41 2.67-.68 9.61-2.54 9.67-2.6.07-.07-.37-2.68-.46-2.77-.03-.04-.62.06-1.31.22s-2.31.51-3.6.79c-3.75.81-5.54 1.2-5.73 1.26-.09.03-.17.01-.17-.03 0-.05.24-.14.52-.2.29-.07 1.99-.44 3.78-.83 4.7-1.02 6.44-1.41 6.47-1.44.11-.11-.62-3.26-.76-3.26-.09 0-1.42.27-2.97.59-2.61.56-4.38.92-6.09 1.27-.38.08-.75.13-.8.13-.18-.02.95-.28 5.05-1.14 5.86-1.24 6.7-1.45 6.7-1.67 0-.25-.04-.25-2.8.32C2.08 11.65.27 12.01.17 11.97c-.06-.02.47-.15 1.19-.3.71-.14 2.71-.56 4.44-.92s3.62-.76 4.2-.87c.58-.12 1.12-.27 1.2-.34.09-.07.34-.16.56-.2.67-.1.67-.11.5-1.04-.28-1.44-.59-1.21 2.44-1.84.91-.2 3.97-.85 6.8-1.45s5.94-1.26 6.9-1.46c.96-.21 2.67-.57 3.8-.8 2.3-.49 2.14-.52 2.39.39.23.82.21.81.66.66.43-.14.6-.04.7.41.08.34.09.34.94.14.81-.19.74-.28 1.23 1.61.22.87.41 1.6.42 1.61 0 0 .8-.16 1.76-.37 1.91-.42 1.95-.42 2.05.18.1.63.15.66.78.52.83-.19.79-.24 1.32 1.97.54 2.27.55 2.29.85 2.25.43-.07.7.07.7.33 0 .14.09.68.21 1.21.11.53.18.98.16 1.01-.03.02-.15-.4-.27-.94s-.24-1.06-.26-1.16c-.04-.13-.16-.17-.54-.17-.61 0-.53.15-1.11-2.22-.57-2.36-.42-2.12-1.18-1.93-.74.2-.77.18-.92-.51-.15-.65.11-.63-2.17-.14-1.82.4-1.58.56-2.09-1.47-.23-.93-.42-1.53-.5-1.53-.06 0-.42.07-.79.16-.73.17-.84.12-.84-.34 0-.29-.19-.36-.63-.24-.45.13-.52.06-.74-.8-.09-.37-.22-.68-.28-.68-.09 0-3.87.8-16.4 3.45-2.81.6-5.13 1.11-5.18 1.15-.04.03.02.51.13 1.06.22 1.04.17 1.24-.27 1.24-.19 0-.16.16.07.31.13.09.22.3.26.61.07.52.1.49-.65.68-.4.11-.43.13-.37.38.36 1.68 1.29 6.26 1.46 7.27.27 1.57.26 1.54.68 1.43s.42-.13-1.08-7.21c-.36-1.69-.36-1.73.19-1.82.51-.08.53-.12.42-.71-.06-.32-.06-.53.01-.61.07-.09.05-.43-.07-1.08-.1-.53-.15-.99-.11-1.02.06-.06 1.43-.36 5.76-1.28 1.24-.26 3.94-.83 6-1.27 9.82-2.08 9.02-1.97 9.19-1.26.17.78.21.82.67.69.66-.18.73-.15.85.35l.12.46.36-.08c.2-.04.49-.08.66-.08l.3-.01.37 1.59c.2.87.39 1.6.42 1.63s.89-.13 1.93-.36c1.03-.23 1.91-.41 1.95-.41s.15.25.24.56l.16.56.42-.07c.98-.18.96-.23 1.72 3.53l.17.83.46-.03.45-.03.17.65c.35 1.33 1.31 5.89 1.27 6.05-.04.22-.2.31-.74.45l-.41.1.12.55c.15.62.14.64-.5.81-.38.1-.4.12-.36.45.08.73.08.73-.37.87l-.42.14.06.49c.07.49.06.49-.25.55-.43.09-.42.06-.16 1.24.13.58.21 1.08.17 1.12-.12.12-5.25 1.19-5.33 1.11-.04-.04-.11-.28-.16-.53-.15-.79-.56-.72-.47.08l.06.6-.53.12c-.3.06-1.48.31-2.64.56-1.15.24-2.16.46-2.22.49-.16.06-.29-.19-.38-.72-.08-.49-.06-.49-1.05-.23-.77.2-.86.19-.92-.15-.03-.21-.26-.3-.45-.17-.11.07.07 1.05.22 1.2.03.03.37-.02.75-.12.88-.23.96-.2 1.04.44.07.5.08.52.34.45.28-.07 4.37-.93 9.32-1.97 1.62-.33 2.99-.65 3.04-.69.04-.04-.02-.55-.14-1.13-.25-1.19-.24-1.31.18-1.39.28-.06.29-.07.24-.56l-.04-.5.36-.06c.4-.08.41-.12.25-.69-.13-.47-.01-.6.63-.71l.4-.07-.07-.47c-.03-.25-.09-.56-.12-.68-.04-.19.01-.23.39-.33.23-.06.51-.15.61-.2.11-.07.17-.07.17.01 0 .06-.18.18-.4.26-.43.17-.44.19-.3.98.1.6.02.71-.51.8-.47.08-.54.2-.4.71.11.41.02.64-.28.64-.36 0-.44.15-.33.64l.1.46-.39.06c-.3.05-.38.1-.34.23.16.54.44 2.16.37 2.23-.04.04-1.56.39-3.37.77-11.09 2.33-9.89 2.16-9.99 1.47-.08-.53-.1-.53-.98-.3-.72.18-.83.15-.91-.26-.05-.24-.11-.3-.24-.26-.1.03-.39.08-.65.12-.27.03-.48.1-.48.14s.07.42.16.85c.09.42.13.79.1.82-.03.04-1.51.37-3.28.75-1.78.37-5.15 1.09-7.51 1.59-4.69 1-4.53.99-4.62.36-.12-.78.23-.81-4.92.32-2.57.57-5.2 1.14-5.83 1.27-.63.14-1.43.31-1.78.38-.34.08-.62.11-.62.07Zm17.95-2.76c2.2-.47 5.39-1.15 7.1-1.51s3.12-.67 3.14-.69c.03-.04-.16-1.21-.25-1.57-.05-.18-.06-.18.99-.38.58-.12.81-.42.42-.56-.29-.12-2.26.37-2.21.55.34 1.2.31 1.55-.11 1.64-6.26 1.33-5.93 1.28-5.93.92 0-.19-.05-.25-.22-.25-.34 0-.52.15-.45.39.08.31-.02.35-2.53.89-3.31.71-3.6.76-3.71.65-.05-.05-.26-.92-.46-1.94-.2-1.01-.37-1.85-.38-1.87-.01-.01-.82.16-1.79.38-2.07.48-1.99.49-2.17-.3l-.13-.61-.36.07c-.92.19-.87.25-1.3-1.68-.2-.9-.23-.98-.45-.98-.37 0-.37.08 0 1.8.41 1.91.31 1.73.9 1.6.61-.14.71-.09.8.32.04.18.11.49.16.69l.09.36 1.77-.43c.98-.23 1.81-.4 1.85-.36.07.07.59 2.48.73 3.4.06.39.1.43.29.38.11-.03 2.01-.44 4.21-.91Zm9.1-.22c2.09-.51 20.62-4.19 20.7-4.11.04.04-21.05 4.29-21.2 4.27-.05-.01.17-.08.5-.16Zm-9.63-.58c1.42-.3 2.6-.55 2.63-.55s.04-.14.03-.32c-.03-.3-.01-.32.47-.44.66-.18.65-.18.77.17.09.27.14.3.37.24.14-.04 1.4-.31 2.79-.6 2.97-.62 2.64-.45 2.46-1.24-.25-1.08-.34-1.01 1.68-1.42 1.82-.37 1.98-.37 1.98.03 0 .22-.03.22.93-.01.88-.21.89-.2 1.02.52.1.5-.09.51 2.65-.07 2.7-.58 2.52-.48 2.36-1.28-.07-.37-.06-.37.35-.48.56-.15.65-.1.79.5l.13.52.36-.06c.77-.14 4.32-.93 4.37-.98.02-.03-.05-.48-.17-.99-.28-1.26-.29-1.21.1-1.33.32-.09.33-.11.28-.5-.07-.52-.01-.62.46-.71l.38-.07-.07-.58-.06-.57.51-.13.52-.12-.08-.37c-.16-.8-.13-.84.5-1.04.45-.15.57-.22.53-.35-.03-.09-.33-1.43-.66-2.97-.34-1.54-.64-2.88-.67-2.99-.04-.16-.12-.18-.49-.12-.51.07-.38.37-1.05-2.57l-.43-1.89-.41.07c-.22.03-.5.08-.62.11-.19.05-.24-.01-.39-.5-.21-.66-.04-.65-2.05-.21-1.93.42-1.73.27-1.53 1.13.23 1.01 1.04 1.04.85.04-.1-.52-.12-.51 1.27-.82 1.06-.24 1.1-.23 1.18.29.09.58.13.61.68.49.63-.13.58-.23 1.06 2.02.22 1.07.43 2.03.46 2.13.05.16.13.17.59.12l.53-.07.12.58c.13.67.51 2.5.83 4.02.25 1.15.25 1.16-.46 1.27-.42.08-.4-.01-.21.94.06.32.02.34-.69.47l-.39.07.07.51c.04.28.08.55.09.6 0 .05-.19.14-.44.21l-.45.11.03.57.04.56-.41.11c-.47.13-.47.11-.22 1.3.22 1.03.44.86-1.61 1.31-1.92.42-1.92.42-2.03-.26-.03-.25-.09-.45-.13-.45-.07 0-1.86.43-1.9.45-.01.01.03.23.1.49.16.6.26.54-1.82.96-1.89.39-1.83.4-1.94-.32l-.06-.39-.38.08c-.83.16-.95.12-1.07-.37-.07-.29-.16-.44-.26-.43-.46.08-5.84 1.24-5.87 1.28-.02.02.06.47.18 1.01.27 1.16.41 1.03-1.59 1.43-2.09.42-2.21.39-2.21-.58 0-.07-.06-.11-.15-.07-.08.03-.37.08-.64.12l-.5.06-.12-.46c-.11-.43-.13-.45-.38-.4-.38.09-.41.15-.32.56.1.45.05.51-.65.67l-.52.12.13.5c.17.62.24.57-1.76.99-1.97.41-1.79.52-2.19-1.32-.18-.84-.33-1.54-.34-1.55-.04-.05-.96.2-.96.26 0 .07.53 2.8.66 3.39.03.17.1.21.27.17.12-.03 1.38-.3 2.79-.6Zm-.04-.71 1.32-.28-.06-.35c-.04-.2-.08-.38-.1-.39-.01-.02-.5.06-1.09.19-1.26.27-1.16.33-1.41-.99l-.18-.93-.35.06c-.53.1-.53.1-.21 1.58.16.76.3 1.4.3 1.43 0 .04.1.04.23.01.12-.03.82-.18 1.55-.33Zm.34-1.2c.63-.14.77-.2.74-.33-.03-.09-.12-.51-.21-.93-.16-.71-.19-.77-.38-.73-.12.03-.53.11-.9.19-.87.18-.82.1-.61 1.16.17.82.21.91.38.86.11-.03.55-.13.98-.22Zm6.5-.24c1.71-.37 1.57-.22 1.3-1.33-.2-.8-.21-.93-.08-1.02.12-.09 6.23-1.45 6.48-1.45.03 0 .11.22.18.5s.14.5.17.5c.02 0 .24-.05.48-.11l.44-.11-.06-.49c-.03-.27-.03-.49.01-.49s.59-.12 1.22-.26c1.3-.29 1.29-.29 1.42.44.11.62.18.57-1.1.86l-1.03.23.03.29c.02.16.07.32.11.36.13.15 3.01-.54 3.01-.71-.01-.09-.09-.52-.2-.96-.22-.92-.19-.98.51-1.1.48-.08.57-.03.65.4.08.45.15.48.64.35l.41-.11-.07-.48c-.07-.57-.19-.49 1.34-.82 1.17-.24 1.16-.24 1.31.5.14.66.23.59-1.01.85l-1.03.22.03.34c.04.47-.04.46 1.59.11 1.76-.38 1.57-.19 1.33-1.36-.22-1.09-.22-1.09.38-1.21.33-.06.34-.08.27-.43-.09-.48-.01-.47-1.17-.22-10.87 2.35-9.99 2.23-10.12 1.36-.07-.43-.08-.44-.39-.38-.46.08-.5.16-.39.69.13.58.13.57-.83.79-1.14.26-8.06 1.71-9.85 2.06-1.96.38-1.82.29-1.64 1.09.08.36.17.75.19.88.05.18.1.21.33.16.63-.14.61-.12.55-.63l-.05-.48.45-.12c.78-.19.85-.17.93.35.06.44.07.45.38.39.65-.13.66-.15.59-.43-.16-.65-.18-.64 1.12-.94 1.43-.33 1.39-.34 1.53.34.14.67.12.68-1.12.93-1.08.21-1.08.21-1 .64.08.38.01.38 1.76.01Zm-12.06-.85c1.09-.25 2.07-.45 2.16-.45.29 0 .29-.14-.02-1.65-.17-.82-.3-1.5-.3-1.52 0-.03-.5.07-.61.13-.03.02.05.52.18 1.1.29 1.28.37 1.18-1.2 1.55-1.95.46-1.98.45-2.16-.19-.13-.5-.16-.53-.4-.48-.14.03-.4.09-.57.12l-.32.06-.27-1.17c-.3-1.27-.3-1.26.34-1.44l.43-.12-.07-.54-.06-.54.46-.12.46-.12-.07-.46c-.03-.25-.07-.5-.08-.56 0-.05.2-.16.47-.24.38-.12.47-.19.47-.38 0-.28.06-.27-.82-.03-.87.24-.83.19-.68.8.15.63.1.76-.34.84s-.49.17-.38.6c.13.44.03.53-.7.67-.51.1-.57.14-.53.33.03.11.21.86.39 1.66l.34 1.45.28-.01c.16-.01.42-.03.58-.05.32-.04.34-.01.56.89.09.34.15.42.29.37.09-.03 1.07-.25 2.17-.5Zm12.13-.31c.02-.02.01-.18-.03-.37l-.06-.35-.96.23c-1.1.26-1.08.25-.99.63l.06.29.97-.2c.53-.11.99-.22 1.01-.23Zm-8.69-.44c.13-.08.11-.28-.15-1.57-.32-1.57-.36-1.64-.87-1.44l-.25.09.3 1.51c.32 1.61.42 1.76.97 1.41Zm-3.48-.35c.74-.16 1.28-.33 1.28-.4 0-.06-.13-.73-.3-1.48-.16-.76-.3-1.4-.3-1.43 0-.06-.71.04-.78.1-.01.02.09.5.23 1.07.3 1.23.33 1.18-.88 1.44-.8.18-.92.23-.89.4.07.49.14.66.25.62.07-.02.69-.17 1.39-.32Zm4.98.06.85-.17-.02-.33c-.02-.44-.06-.46-.61-.33-.65.15-.53.51-1.67-5.2-1.14-5.69-1.91-9.44-2.06-10-.09-.36-.09-.36-.47-.26-.46.13-.43.08-.31.5.1.4 1.66 7.94 2.59 12.58.7 3.48.68 3.4.78 3.4.04-.01.45-.09.92-.19Zm4.1-.81c5.39-1.08 9.22-1.9 9.33-2 .05-.04-.04-.51-.19-1.03l-.27-.96-.31.06c-.41.08-.4.05-.28.65.06.29.07.56.04.6-.08.07-3.24.78-3.51.78-.24 0-.51-1.07-1.7-6.89-.22-1.07-.42-1.95-.44-1.97-.06-.06-.77.17-.77.25 0 .17 1.11 5.18 1.53 6.88.32 1.31.41 1.85.33 1.92-.16.13-4.53 1.04-4.65.97-.05-.03-.12-.23-.16-.44-.1-.6-.16-.65-.65-.52-.58.16-.67.1-.8-.55l-.12-.56-.58.07c-.51.06-.59.04-.63-.12-.06-.18-1.41-6.61-2.28-10.84-.22-1.07-.42-2-.44-2.07-.1-.33-.83.07-.74.41.13.47 2.1 10.12 2.6 12.76.51 2.66.37 2.35 1 2.2.59-.15.65-.11.75.57.05.37.09.42.28.38.11-.03 1.31-.27 2.66-.55Zm-11.23-.14c-.02-.06-.12-.48-.22-.94l-.18-.83-.31.07c-.54.11-.55.23-.15 1.66l.09.36.41-.1c.22-.06.38-.16.36-.22Zm.91-.04c.25-.17-.3-1.98-.59-1.94-.44.07-.44.3-.02 1.85.05.18.38.23.61.09Zm1.21-.28c.02-.02-.05-.46-.17-.98-.29-1.26-.3-1.23.26-1.39.48-.13.57-.33.38-.83-.07-.17-1.91.28-1.9.47.01.08.16.76.34 1.52l.32 1.39.37-.07c.2-.04.38-.09.4-.11Zm22.61-.13c.77-.18.88-.29.73-.67l-.08-.21-.92.21c-.5.12-.92.24-.92.29-.07.65 0 .67 1.19.38ZM7.25 25.16l-.07-.55.38-.1c.22-.05.51-.13.66-.16.23-.06.26-.11.22-.33-.13-.67-.09-.74.5-.87.27-.06.28-.08.22-.48-.15-.92-.2-.85.93-1.18l.73-.21-.06-.36c-.04-.2-.1-.53-.13-.73l-.05-.35.99-.23c.54-.12 1.05-.26 1.13-.31.12-.07.02-.71-.64-3.97-.97-4.77-.94-4.25-.23-4.42.44-.1.57-.18.57-.32 0-.29-.15-.31-1.03-.08l-.84.21.08.41c.04.23.37 1.99.74 3.92.36 1.93.67 3.56.7 3.62.06.18-.15.27-1.43.58-.61.15-1.12.31-1.12.35s.07.4.16.8c.19.83.21.8-.67.99-.61.14-.61.14-.55.45.22 1.06.23 1.01-.29 1.16-.46.13-.47.14-.42.47.07.38-.01.44-.81.63-.36.08-.52.16-.48.25.02.07.1.4.17.74.11.58.13.61.41.61h.29zm15 .44c.14-.05.24-.13.22-.17-.03-.05-.33-1.45-.67-3.13s-.63-3.1-.65-3.17c-.04-.11-.59-.03-.73.12-.05.05.64 3.64 1.05 5.37.26 1.13.29 1.17.78.98Zm1.29-.3c.04-.05.01-.37-.08-.72-.65-2.63-.65-2.53 0-2.69.34-.09.43-.15.39-.28-.14-.44-1.27-5.91-1.28-6.2-.02-.33 0-.35.46-.47.27-.07.51-.14.53-.16.02-.03-.16-1.02-.4-2.21-.31-1.55-.4-2.19-.32-2.26.18-.14 1.99-.52 2.07-.44.04.05.37 1.54.74 3.33.36 1.79.77 3.78.91 4.43.31 1.5.31 1.44-.16 1.57-.22.06-.4.16-.4.23 0 .1 1.11 5.09 1.14 5.14.09.13 1-.27.98-.43-.02-.1-.32-1.45-.67-2.99-.84-3.65-.83-3.45-.2-3.63.28-.08.51-.15.52-.16.03-.03-.96-4.64-1.41-6.61-.3-1.29-.37-1.18.94-1.49 1.25-.29 1.2-.33 1.5.89.28 1.1.25 1.06.78.92.56-.15.62-.08.86 1.13.2.98.25 1.04.71.92.36-.11.37-.08-.04-1.84-.4-1.77-.4-1.75.07-1.83.65-.11.65-.11.41-1.13-.11-.51-.25-.92-.3-.92s-.69.13-1.42.29c-.72.16-3.34.73-5.82 1.25-2.47.52-5 1.07-5.62 1.21-.61.14-1.13.25-1.16.25-.05 0 .37 1.97.45 2.05.12.12.89-.17.83-.33-.32-.84-.13-1.1.83-1.15l.46-.02.13.55c.2.87 1.16 5.61 1.93 9.6.93 4.76.84 4.43 1.23 4.35.18-.04.36-.11.41-.15Zm17.55-.26c.02-.02.01-.18-.03-.37l-.06-.34-1 .2c-1.07.23-1.04.19-.85.83.03.1 1.79-.19 1.94-.32Zm-16.44.04c.03-.03-.35-1.8-.39-1.85-.07-.08-.77.21-.73.3.02.07.13.47.23.9l.18.79.34-.06c.19-.03.36-.06.37-.08Zm2.13-.43c.02-.02-.23-1.2-.55-2.62l-.59-2.58-.29.03c-.46.05-.46.02.1 2.53.68 3.05.6 2.82.98 2.73.18-.03.34-.08.35-.09Zm5.85-.04.25-.1-.25-.98c-.29-1.16-.21-1.05-.67-.92-.28.08-.36.14-.32.27.03.09.13.51.22.92.22 1 .23 1.01.77.81Zm2.54-.5c3.14-.66 7.45-1.61 7.53-1.66.03-.02.02-.27-.04-.55-.12-.59-.07-.65.57-.76.38-.06.39-.06.32-.42-.09-.48-.13-.54-.33-.48-.85.24-.81.28-1.06-.86-.06-.25-.5-.28-.73-.05-.02.02.08.52.23 1.12.14.59.22 1.11.17 1.15-.04.04-1.27.32-2.73.63s-3.22.68-3.92.83-1.3.25-1.33.22-.22-.78-.42-1.67l-.37-1.62-.35.06c-.2.04-.39.09-.42.11-.11.06.84 4.34.96 4.34.02 0 .88-.18 1.92-.39Zm-16.75-.3c.04-.04.03-.23-.03-.44-.05-.2-.54-2.57-1.08-5.27s-1-4.93-1.03-4.95c-.12-.12-.88.19-.83.34.03.09.52 2.44 1.1 5.21.58 2.78 1.07 5.11 1.1 5.17.04.13.62.08.77-.06Zm-4.84.01c.25-.16-.19-1.86-.48-1.9-.48-.05-.51.06-.28 1.06.22.95.35 1.09.76.84Zm5.98-.37c-.02-.07-.1-.41-.17-.74-.13-.71-.16-.73-.59-.65-.35.07-.35.02-.09 1.25l.1.47.4-.11c.26-.06.38-.14.35-.22Zm-4.77.09c.06-.06-.31-1.94-.38-1.94-.53.01-.79.22-.71.58.05.2.14.63.2.95l.12.59.36-.07c.21-.04.39-.09.41-.11Zm5.72.06.36-.1-.39-1.93c-.21-1.05-.48-2.44-.58-3.07-.3-1.72-.91-4.64-1-4.73-.11-.12-.9.11-.9.27 0 .11 1.32 6.74 1.77 8.89.17.81.18.82.74.67Zm-9-.46c.89-.2.93-.23.85-.67l-.06-.34-.93.22c-.55.12-.92.26-.91.33s.02.23.02.37c.02.3.07.3 1.03.09Zm17.3-.22c.13-.06.08-.4-.4-2.65l-.55-2.58-.3.07c-.49.1-.49.14-.17 1.6.84 3.87.82 3.82 1.42 3.56Zm8.09-.52c3.69-.79 4.51-.98 4.57-1.04.03-.03-.02-.4-.12-.83-.26-1.21-.22-1.15-.58-1.07-.42.08-.41.05-.26.68.15.69.23.63-1.13.92-1.45.31-1.35.33-1.49-.31-.07-.3-.15-.55-.19-.55-.53 0-.67.12-.59.48.18.78.18.77-.84 1.01-1.71.39-1.53.41-1.68-.23-.13-.6-.22-.66-.73-.47l-.24.1.14.58c.37 1.43.34 1.35.57 1.29.12-.03 1.28-.29 2.57-.56Zm-6.92.26c.03-.03-.48-2.44-.99-4.69-.11-.45-.46-.6-.77-.32-.03.03.94 4.73 1.04 5.04.04.12.58.1.72-.03Zm1.2-.21c.04-.04-.36-1.82-.44-1.96-.1-.18-.85.16-.8.36.03.11.14.55.23.98l.18.79.4-.07c.21-.03.41-.08.43-.1Zm1.07-.27c.02-.02-.17-1.02-.41-2.23s-.44-2.21-.44-2.22.25-.1.55-.19c.43-.12.55-.19.51-.32s-.47-2.05-.82-3.6c-.04-.22-.08-.23-.63-.16l-.59.06-.07-.33c-.16-.75-.2-.78-.64-.67-.23.06-.41.15-.41.2 0 .25 2.16 9.44 2.26 9.6.04.06.62-.06.69-.14Zm-20.42-.29c.43-.12.42-.09.18-1.12-.23-.94-.19-.91-.71-.77-.33.09-.4.15-.35.28.04.09.14.52.23.95.09.42.19.77.22.77s.22-.05.43-.11Zm24.15-.6c.03-.14-1.42-6.06-1.5-6.14-.18-.19-.89.22-.85.5.05.43 1.06 4.9 1.23 5.51l.15.52.47-.12c.27-.07.48-.19.5-.27Zm.86-.08c.05-.08-.92-5.08-1.15-5.95-.1-.37-.51-.48-.78-.21-.05.05 1.36 6 1.46 6.18.06.1.41.09.47-.02Zm3.36-.66c.03-.02-.2-1.06-.51-2.32-.32-1.25-.7-2.86-.85-3.58-.32-1.5-.31-1.5-.77-1.41l-.34.06.18.83c.09.45.42 2.06.74 3.57.31 1.51.58 2.81.61 2.89.04.12.72.1.94-.04Zm-21.33-.08c.02-.03-.35-2.01-.83-4.41l-.87-4.37-.31.07c-.17.03-.34.09-.38.13-.04.03.32 2.01.8 4.39l.87 4.34.34-.06c.18-.03.35-.07.38-.09Zm11.66-.37c.08-.07-.74-3.84-1.43-6.65-.16-.66-.47-.91-.78-.61-.02.02.59 3.06 1.35 6.69l.16.78.31-.07c.17-.03.35-.1.39-.14Zm7.06-.25c.02-.03-.06-.43-.18-.89-.28-1.15-.29-1.12.29-1.26.37-.09.5-.17.5-.3 0-.27-1.74-9.1-2.07-10.48-.05-.2-.61-.25-.82-.06-.04.03.27 1.51 1.2 5.78.43 1.94.43 1.91-.16 2.04-.22.05-.39.13-.38.18 0 .05.24 1.21.52 2.57s.51 2.5.51 2.53c0 .06.52-.04.59-.11Zm6.09-.01c.37-.09.71-.2.76-.25.09-.08-.21-1.86-.33-1.93-.18-.11-1.91.38-1.87.53.03.09.13.53.22.99.2.94.16.92 1.22.66Zm-9.95-.34c.36-.01.38-.15.16-1.09l-.21-.92-.32.06c-.17.04-.34.1-.38.14-.12.12.36 1.92.5 1.86a.9.9 0 0 1 .25-.05Zm11.76-.15c.05-.06-.08-.77-.64-3.35l-.37-1.76-.34.04c-.19.02-.34.05-.34.06s.23 1.09.5 2.4c.28 1.31.5 2.47.5 2.58 0 .19.5.21.69.03Zm-4.31-.31c.81-.2.86-.24.78-.62l-.07-.29-.87.2c-1.03.23-.94.17-.86.55.07.37.12.38 1.02.16Zm-14.76-.23c.04-.03-.02-.42-.12-.86s-.46-2.15-.79-3.8c-.83-4.05-.8-3.95-.99-3.95-.46.01-.46.03.23 3.51.6 3.04.76 3.77 1.06 4.92.1.37.33.44.61.18Zm14.56-.77c.88-.22.86-.18.63-1.18-.23-1.03-.2-.99-.63-.91l-.35.07.1.48c.12.64.07.76-.4.85-.52.09-.53.1-.4.5.12.4.15.41 1.05.19Zm-15.73-.07c.02-.01-.27-1.48-.63-3.25l-.66-3.24-.3.06c-.16.04-.31.08-.33.09-.01.02.11.68.28 1.48.45 2.14.99 4.83.99 4.93 0 .07.59.01.65-.07Zm-4.49-.36c.12-.07.01-.72-.71-4.19a97 97 0 0 1-.45-2.18c0-.03-.08-.03-.17-.01-.1.03-.3.08-.44.11l-.27.06.33 1.37c.18.76.5 2.2.71 3.2l.37 1.83.26-.07c.14-.03.31-.08.37-.12Zm22.42-.1c.46-.11.85-.21.87-.23s-.1-.68-.27-1.46l-.31-1.44-.36.08c-.78.15-.73.21-1.02-1.14-.31-1.44-.26-1.35-.78-1.23-.22.05-.43.06-.45.02-.04-.06-.25-.88-.4-1.54-.07-.28-.11-.29-.79-.1-.18.05-.18.1 0 .9.04.19-.02.24-.51.38s-.55.19-.51.38c.02.12.2.99.4 1.92.19.93.37 1.75.39 1.81.03.08.36.04 1.08-.12 1.22-.27 1.12-.34 1.39.94.12.56.27 1.02.33 1.02s.48-.09.94-.19Zm-14.4-.36c.04-.04-.76-4.15-.82-4.22-.07-.08-.74.2-.71.3.02.07.2.91.4 1.87s.38 1.86.41 1.99c.05.22.52.26.72.06Zm4.8.01c.02-.03-.59-2.79-.63-2.84-.07-.08-.75.12-.75.22 0 .06.14.71.31 1.44l.32 1.34.36-.07c.2-.04.37-.08.39-.09Zm9.79-3.09c0-.01-.12-.58-.27-1.27s-.36-1.6-.45-2.02c-.15-.74-.18-.78-.43-.78-.59 0-.62-.27.34 3.99.04.2.64.26.81.08Zm-9.25-.53c-.08-.46-1.25-5-1.31-5.06-.13-.15-.82.12-.77.3.06.19.88 3.77 1.07 4.63l.12.56.46-.12c.37-.09.45-.16.43-.31Zm.67-2.1c-.26-1.13-.49-2.08-.52-2.11-.06-.05-.77.15-.77.23 0 .02.23.96.51 2.08l.51 2.03.37-.09.37-.09zm1.47 1.83c.03-.02-.85-4.25-1.18-5.72l-.14-.6-.39.02c-.51.04-.49-.03-.21 1.09.14.55.43 1.8.66 2.79.64 2.79.56 2.58.92 2.51.18-.03.33-.07.34-.09Zm-20.43-.38c.43-.12.42-.05.17-1.11-.24-1-.24-.98-.05-.98.08 0 .17.12.21.28.11.51.1.5.54.39.34-.1.4-.15.36-.32-.23-.81-.21-.93.2-1.04 1.65-.46 14.19-3.08 14.31-2.99.07.05.17.34.23.64.09.44.15.54.28.5.73-.2.69-.07.42-1.17-.23-1-.15-.92-.91-.75-.58.14-5.58 1.19-13.72 2.89-1.69.36-3.1.66-3.12.68-.01.02.1.63.26 1.34.15.72.29 1.4.29 1.53 0 .25.02.26.53.11Zm12.04-.33c.04-.04-.21-1.36-.32-1.73-.03-.08-.14-.09-.43-.01l-.39.1.19.81c.26 1.13.22 1.07.59.97.17-.05.34-.11.36-.14Zm1.2-.21c1.08-.25 1.02-.21.93-.61-.11-.47-.04-.46-1-.2-.65.17-.85.26-.84.39.03.66-.04.63.91.42Zm9.11-.69c.02-.03-.16-.87-.42-1.88-.25-1.01-.57-2.32-.7-2.91-.29-1.3-.23-1.23-.91-1.08-.66.15-.71.12-.8-.39l-.07-.4-.63.06-.63.07-.12-.56c-.07-.3-.16-.61-.2-.68-.08-.11-.95.06-17.04 3.46-1.7.36-3.12.67-3.14.7-.13.13.22 1.75.37 1.75.34 0 .4-.13.3-.59-.05-.25-.06-.48-.01-.53.04-.04 3.36-.78 7.38-1.62 4.01-.85 8.32-1.76 9.57-2.03 2.49-.54 2.42-.54 2.53.15l.06.42.61-.03.61-.02.11.44c.12.51.2.56.7.42.48-.13.61-.07.68.32.06.33.65 3.15.93 4.44l.15.71.31-.09c.17-.04.33-.11.36-.13Zm-9.59-.35c.17-.11-.23-1.91-.43-1.91-.31.01-.53.13-.5.28.36 1.82.43 1.95.93 1.63ZM40.4 9.99l.88-.2-.09-.31c-.04-.17-.11-.33-.14-.36-.04-.04-1.63.27-1.73.34-.05.03.1.74.15.74.03 0 .45-.09.93-.21ZM18.9 8.71c2.12-.44 5.99-1.26 8.6-1.81s4.82-1 4.9-1c.12 0 .25.39.54 1.58.44 1.81.58 1.97 1.24 1.47.03-.03-.88-3.98-.93-4.03-.02-.02-1.62.3-3.57.72-4.39.94-10.94 2.32-13.33 2.82-2.1.43-1.89.34-1.81.79.06.32.1.36.29.32.12-.03 1.95-.42 4.07-.86Z"/></svg>