<svg xmlns="http://www.w3.org/2000/svg" width="51" height="51" viewBox="0 0 51 51"><path fill="#fff" fill-rule="evenodd" stroke="#fff" stroke-width=".44" d="M24.66 43.58c-1.97-.52-2.03-4.3-.08-5.05.96-.37 2.49-.17 3.1.4.94.87.93 3.24-.01 4.15-.59.57-1.9.79-3.01.5Zm-7.85-.2c-.08-.21-.53-2.65-.97-5.28-.23-1.39-.23-1.4.71-1.4.91 0 .81-.16 1.2 2.03l.29 1.59.31-.92c.38-1.08.4-1.11.97-1.17.55-.06.63.02 1.05 1.16.35.98.3 1.07.67-1.02.3-1.68.29-1.67 1.16-1.67.88 0 .97.1.81.88-.06.31-.32 1.67-.56 3.02-.59 3.21-.5 3.02-1.39 2.98l-.71-.03-.49-1.33-.49-1.33-.51 1.33-.51 1.33-.73.03c-.68.03-.73.01-.81-.2Zm12.81-.1c-.18-.55-1.1-5.45-1.14-6.03-.03-.48.07-.55.81-.55.85 0 .84-.01 1.1 1.4.12.63.26 1.39.32 1.68l.11.53.33-.96c.39-1.14.28-1.01.92-1.1.62-.08.7 0 1.14 1.27.16.46.29.78.29.72 0-.24.5-2.9.61-3.21l.11-.33h.73c.47 0 .76.05.83.13.11.12-.78 5.37-1.08 6.4l-.11.37h-1.4l-.23-.52c-.13-.29-.36-.91-.51-1.37l-.28-.84-.51 1.34-.51 1.34-.72.03-.71.03zm-11.55.04c.07-.04.36-.7.65-1.46.29-.77.58-1.41.63-1.43.06-.02.36.63.66 1.44l.55 1.48h1.08l.08-.4c.09-.4.95-5.01 1.05-5.63l.06-.33-.64.03-.64.03-.13.7c-.07.39-.23 1.28-.35 1.98s-.27 1.28-.32 1.28-.29-.56-.53-1.25l-.44-1.26h-.83l-.44 1.28c-.47 1.35-.48 1.38-.56 1.3-.05-.04-.75-3.78-.75-3.98 0-.06-.29-.1-.65-.1-.63 0-.65.01-.6.23.03.12.28 1.52.55 3.12.29 1.63.56 2.93.63 2.97.15.1.78.1.94 0Zm8.86-.06c.82-.34 1.21-1.19 1.15-2.51-.06-1.57-.64-2.1-2.28-2.1-1.74 0-2.35.64-2.35 2.45.01 1.25.28 1.76 1.15 2.14.45.19 1.89.21 2.33.02Zm4.05-.04c.72-1.88 1.09-2.76 1.17-2.79.06-.02.33.59.59 1.34.59 1.66.57 1.63 1.17 1.63.58 0 .45.34 1.09-3.1l.56-3.03.06-.27h-1.28l-.33 1.83c-.5 2.74-.44 2.65-.86 1.35-.51-1.58-.58-1.68-1.04-1.68h-.4l-.43 1.3c-.23.72-.46 1.3-.5 1.3-.1 0-.15-.19-.52-2.27l-.32-1.78-.62-.03c-.34-.02-.62 0-.62.04 0 .03.12.7.26 1.48.59 3.31.86 4.62.97 4.75.12.14.99.09 1.05-.07Zm-5.69-.73c-.91-.34-.79-2.71.15-3.02.9-.3 1.4.31 1.34 1.64-.04 1.22-.6 1.73-1.49 1.38Zm1-.38c.37-.37.4-1.83.04-2.23-.2-.22-.85-.24-1.07-.03-.47.48-.46 1.96.01 2.33.25.18.8.15 1.02-.07Zm-8.07-7.87c-.36-.25-.52-.68-.52-1.39v-.65h-2.88c-3.15 0-3.16 0-3.47-.6-.27-.52-.22-21.13.05-21.58.36-.58.59-.62 3.58-.62h2.69l.06-.66c.15-1.53-.33-1.45 8.12-1.42l7.05.03.32.32c.29.3.33.4.36 1.03l.04.7h2.78c3.05 0 3.23.04 3.57.7.21.41.19 21.1-.02 21.5-.31.6-.32.6-3.47.6H33.6v.6c0 .7-.18 1.2-.51 1.44-.35.24-14.52.25-14.87 0Zm6.09-.43c.57-.1 1.53-.25 2.14-.32l1.1-.13-.55-.07c-.68-.09-3.94-.26-6.72-.35l-2.08-.07v.36c0 .27.07.41.26.56.38.3 4.24.31 5.85.02Zm8.6-.1c.13-.16.19-.39.19-.72v-.49h-1.32c-1.79 0-3.58-.11-3.58-.22 0-.1.02-.11 1.08-.34 1.13-.24 1.1-.3-.21-.38-1.7-.1-4.8-.36-4.99-.42-.44-.13-.15-.32.7-.48 1.48-.26 2.07-.34 5.02-.66 1.57-.17 2.95-.33 3.08-.35.21-.05.22-.09.22-1.3V27.1h-.27c-.65-.01-4.36-.3-4.41-.35-.14-.14.21-.24 1.18-.35.58-.06 1.29-.14 1.58-.17.65-.07.68-.23.05-.23-.62 0-3.81-.2-4.11-.26-.9-.18.8-.61 3.56-.9 1.37-.15.51-.26-4.53-.58-1.89-.12-1.91-.13-2.86-.54-1.57-.68-4.76-1.6-5.01-1.45-.3.17-.05.52.5.72.53.2.36.22-.32.05-.5-.12-.37.52.16.76.44.19.3.28-.16.1-.24-.09-.26-.07-.26.19 0 .4.35.43 3.57.29 2.48-.1 3.73-.06 3.73.11 0 .04-1.16.11-2.57.15-2.75.08-3.68.16-3.23.29.54.14 2.1.27 3.3.27 1.15 0 1.65.09 1.48.26-.04.03-.8.1-1.7.15s-2.19.14-2.87.19c-.68.06-1.35.1-1.47.1-.23 0-.24.03-.24.79v.79l.62.06c.35.03 1.57.08 2.73.11 2.48.07 2.9.21 1.49.49-.47.09-.59.14-.37.15.81.03 4.81.32 5.11.37.45.07.4.35-.08.46-.19.04-2.04.23-4.1.42-4.72.45-5.4.54-5.4.72 0 .09.12.14.35.14.46 0 .49.27.02.32l-.32.03-.03.88c-.02.64.01.88.1.92.07.02 1.48.09 3.13.15s3.92.18 5.04.25c1.12.08 2.32.15 2.66.15.66 0 .95.06.95.2 0 .09-.11.11-2.82.37-.98.09-1.78.2-1.78.25s1.62.07 3.61.06l3.61-.03zm.19-2.67v-1.16l-.27.06c-.16.03-1.13.15-2.18.26-3.05.33-5.29.62-5.45.71-.12.07-.11.08.05.09.52 0 6.02.42 6.14.46.26.09-.09.33-.67.45-1.04.22-.88.28.76.29h1.62zm-15.37-.11c.03-.49.06-5.41.07-10.95l.01-10.08h-2.82c-2.76 0-2.83 0-3.06.22l-.23.21v21.06l.26.2c.26.2.39.21 2.99.21h2.72zm21.61.66.26-.2V20.84c0-10.41 0-10.54-.2-10.74-.19-.19-.33-.2-3-.2h-2.8v9.68c0 5.32-.03 10.24-.07 10.95l-.06 1.27h2.8c2.68 0 2.81-.01 3.07-.21Zm-17.79-2.14c1.32-.13 3.07-.29 3.89-.36.84-.07 1.41-.15 1.3-.19-.25-.1-3.71-.3-5.06-.3-.65 0-1.09-.04-1.13-.11-.1-.16-.02-.2.69-.32.96-.16.81-.27-.36-.27-.57 0-1.4-.03-1.85-.07l-.83-.06v2.06l.48-.07c.26-.03 1.55-.17 2.87-.31Zm11.55-2.91c0-.25-.02-.26-.37-.21-.21.04-.75.09-1.21.13-.95.08-.98.14-.1.24 1.39.16 1.68.13 1.68-.16Zm-9.12-.39c-.16-.17.06-.25.68-.25.36 0 .64.04.64.1s-.08.1-.19.1c-.1 0-.38.03-.62.06s-.47.03-.51-.01Zm9.12-.49c0-.28-2.24-.45-4.05-.31-1.27.1-1.15.14.97.29 2.45.19 3.08.19 3.08.02Zm-13.3-.26.65-.07h-.6c-.33-.01-.85.02-1.15.07l-.55.07h.5c.28.01.79-.03 1.15-.07Zm5.1-.05c0-.2 1.51-.18 1.58.03.03.09-.17.12-.77.12-.66 0-.81-.03-.81-.15Zm-6.24-.29c.26.07.31-.05.12-.24-.27-.27-.67-.07-.53.26.05.12.09.13.12.05s.14-.11.29-.07Zm8.31-.03c-.17-.16-.04-.23.42-.23.53 0 .75.14.38.24-.3.08-.72.08-.8-.01Zm6.07-.19c.08-.22.07-.54-.02-.54-.18 0-.52.32-.51.48.01.15.02.15.06 0 .06-.24.23-.23.23.02 0 .24.15.27.24.04Zm-.34-.66c.4-.23.4-.23.4-.87v-.63l-.37.07c-.51.09-4.22 1.34-4.03 1.36.08 0 .89.07 1.8.13.91.07 1.69.14 1.73.14.04.01.26-.08.47-.2Zm-5.32-.7c.18-.15.39-.28.46-.28.08 0 .24-.09.37-.21l.24-.2-.25.07c-.14.03-.31.11-.37.16-.09.08-.13.06-.13-.05 0-.08.16-.25.35-.37s.35-.26.35-.31c0-.21-.33-.21-.6 0-.47.34-.55.24-.16-.19.48-.54.51-1.35.04-1.22-.16.04-.19.02-.13-.09.05-.08-.2.12-.54.44-.78.72-2.68 2.07-2.9 2.07-.11 0-.05-.1.19-.31 1.05-.92 1.32-1.29.63-.86-1.54.96-1.63.97-1.18.18.14-.23.25-.44.25-.46s-.37.12-.82.3c-.46.18-.83.38-.82.44.03.32.04.33.19.21.12-.1.16-.09.21.03.03.09.13.13.25.1.13-.04.19 0 .19.12s.05.15.2.1c.11-.04.2-.02.2.04s.09.11.2.11.2.04.2.1c0 .05.07.07.15.04.08-.04.15-.01.15.06 0 .1.04.09.16-.01.13-.1.17-.1.24 0 .06.1.09.09.14-.07.07-.2 1.02-.92 1.21-.92.06 0-.15.23-.45.49-.74.66-.56.75.43.23 1.16-.6 1.41-.53.7.2l-.38.39.35-.03c.21-.01.48-.13.68-.3Zm1.97-.12.28-.15-.47-.22c-.44-.22-.47-.22-.63-.06s-.16.17.06.17c.14 0 .25.07.28.2.06.24.12.24.48.06Zm.65-.41c0-.18.16-.2.24-.02.03.06.03.01 0-.13s-.21-.38-.41-.55c-.2-.16-.69-.61-1.09-.99l-.74-.69.17.42c.13.33.14.49.06.71-.09.24-.08.27.08.23.13-.04.2.02.24.18s.28.37.68.61c.7.42.77.44.77.23Zm2.1-.33.95-.28.03-.48c.03-.53-.13-.6-.35-.16-.16.32-.83.68-.83.45 0-.09.12-.2.28-.26.15-.05.37-.25.5-.44.12-.19.27-.35.32-.35.06 0 .1-.09.1-.2 0-.31-.13-.24-.42.24-.14.24-.39.5-.55.58-.15.07-.34.25-.41.4-.07.16-.27.32-.47.39-.33.12-.49.39-.22.39.06 0 .55-.13 1.07-.28Zm-10.7-.07c0-.08-.44-.28-.64-.29-.15-.01-.22-.13-.31-.54-.15-.66-.16-.67-.94-.81-.86-.17-1.07-.28-1.19-.65-.1-.3-.1-.3-.11.16-.01.44.01.48.27.53.86.19 1.58.4 1.64.49.11.16.1.56-.02.56-.05 0-.1-.11-.1-.24 0-.18-.07-.25-.26-.29-.18-.03-.22-.01-.15.06.16.16.13.37-.04.37-.09 0-.15-.1-.16-.22-.01-.17-.02-.19-.06-.06-.06.25-.23.22-.23-.03 0-.16-.04-.19-.2-.14-.15.05-.18.03-.14-.09.05-.12-.01-.16-.25-.16-.44 0-.47.56-.03.66.15.04.83.21 1.52.39 1.37.37 1.4.37 1.4.3Zm3.57-.71c.53-.34.7-.32.58.07-.06.18-.02.17.35-.1 1.02-.74 1.78-1.64 1-1.17-.3.17-.4.1-.18-.12.09-.09.08-.12-.05-.12-.09 0-.22.09-.29.19-.08.13-.16.17-.23.11-.08-.06-.24.04-.5.3-.22.22-.43.4-.47.4-.19 0-.04-.26.5-.85.32-.35.67-.8.77-.99l.2-.36-.23-.16c-.12-.08-.22-.22-.22-.31 0-.13-.03-.13-.15-.03-.08.07-.21.1-.29.07s-.26.1-.45.34c-.31.37-.51.49-.51.3 0-.06.25-.37.55-.69.3-.33.55-.67.55-.77 0-.12-.07-.08-.26.15-.34.4-.41.33-.15-.16.12-.21.21-.57.21-.79v-.4l-.2.25c-.14.18-.15.27-.07.33.15.1-1.17 1.37-1.42 1.37-.17-.01.41-.57.92-.87.24-.16.39-.53.19-.53-.16 0-1.83 1.32-1.99 1.58-.27.41-.93 1.08-.93.93 0-.07.09-.24.2-.39.51-.65-.03-.4-.97.43-.54.49-.99.89-1.01.91-.02.01.02.11.1.23.12.2.13.2.39-.05.15-.14.29-.21.33-.16.03.05-.1.2-.29.34-.32.23-.34.26-.2.44.17.21.13.25.97-.77.22-.26.37-.38.38-.28 0 .08-.14.3-.31.47-.4.41-.35.4.59-.07 1.83-.91 2.08-.78.82.42-.5.48-.89.87-.87.87.13 0 1.63-.71 1.76-.83.09-.09.3-.34.46-.56.17-.22.33-.4.38-.41.15-.01.06.23-.24.61-.17.21-.28.42-.25.47s-.06.25-.19.45c-.4.58-.33.57.72-.09Zm5.68.36c.44 0 .2-.41-.53-.92-.23-.16-.42-.34-.42-.4 0-.07.06-.06.15.02.21.17.28.08.12-.14-.11-.15-.18-.16-.34-.08-.19.11-.33.07-.33-.08 0-.04.14-.13.3-.2.36-.15.36-.17.08-.74l-.22-.45-.43.46c-.23.26-.46.44-.5.4-.03-.04.04-.18.16-.31.13-.14.22-.29.2-.35-.13-.37-2.74-3.17-2.83-3.03-.1.17-.09 1.08.02 1.29.07.12.12.29.12.38 0 .2.28.65.55.87.2.16.2.16-.02.62l-.22.45.52.15c.29.09.69.18.89.21.28.04.46.17.72.48.41.48 1.79 1.57 1.84 1.45.02-.04.1-.08.17-.08Zm-7.85-.8.85-.8-1.22.58c-1.31.61-1.61.94-.75.83.06-.01.12.03.12.09 0 .2.16.09 1-.7Zm8.78.41c.12-.17.34-.36.49-.43.49-.23.48-.23-1.65-1.76-.75-.54-.96-.65-.69-.34.25.28.47.86.37 1.02-.08.14-.06.18.75 1.28.46.61.45.61.73.23Zm-10.5-1.99c.53-.49 1.03-.96 1.1-1.05.13-.15.16-.15.4.01.19.13.26.14.3.04.1-.3.57-.73 1.51-1.35.63-.43 1.11-.83 1.32-1.12l.32-.44.67.62c.38.34 1.02 1.04 1.45 1.54.91 1.1.88 1.08 1.2.87s.3-.21 1.58.72c1.59 1.16 1.51 1.12 1.84.92l.28-.17.03-6.1c.02-6 .02-6.11-.18-6.31s-.32-.2-7.24-.2h-7.05l-.2.26c-.2.26-.34 2.54-.15 2.54.03 0 .44-.16.92-.36 1.67-.7 3.65-1.35 3.75-1.25.12.12-.13.24-1.59.75-1.02.35-2.7 1.01-2.91 1.14-.12.07-.23 2.45-.12 2.56.03.04.54-.14 1.12-.39 1.19-.5 1.17-.5 1.17-.32 0 .08-.5.35-1.17.64l-1.18.5v2.73c0 3.48.07 3.73 1.03 3.96.76.19.78.18 1.8-.74Zm7.35-9.61c-.47-.14-.73-.41-.41-.41.29 0 1.18.35 1.18.47 0 .16-.1.15-.77-.06Z"/></svg>