<svg xmlns="http://www.w3.org/2000/svg" width="51" height="51" viewBox="0 0 51 51"><path fill="#fff" fill-rule="evenodd" stroke="#fff" stroke-width=".708" d="M14.91 41.77c-.91-.33-.91-1-.01-2.02.98-1.11.94-1.4-.49-2.89-1.39-1.47-2.31-2.76-3.19-4.52-1.87-3.72-2.13-8.35-.7-12.43 3.24-9.28 13.93-13.59 22.83-9.2 9.14 4.5 11.96 16.47 5.81 24.64-2.55 3.4-6.26 5.54-10.92 6.31-1.31.22-12.77.32-13.33.11Zm12.93-.32c11.29-1.48 17.56-12.81 12.75-23.04-5.66-12.05-23.05-12.23-29.04-.31-3.15 6.28-2.02 13.09 3.12 18.66 1.49 1.62 1.52 1.95.28 3.34-.53.59-.61 1.08-.23 1.34.33.23 11.39.24 13.12.01Zm-10.9-1.04c-.34-.15-.35-.24-.14-.86.42-1.21.15-2-1.21-3.5-4.81-5.33-5.9-11.29-3.13-17.15 5.22-11.03 21.16-11.36 26.85-.57 4.92 9.36-.72 20.28-11.34 21.93-1.18.19-10.65.31-11.03.15Zm11.46-.45c7.53-1.47 12.34-7.14 12.34-14.56 0-4.23-1.33-7.51-4.23-10.4-7.44-7.42-20.1-4.97-24.13 4.67-2.3 5.51-1.17 11.05 3.27 16.08 1.73 1.96 1.84 2.31 1.29 4.23l-.07.23 5.34-.04c4.43-.03 5.48-.07 6.19-.21Zm-9.19-7.82c-1.17-2.36-1.79-3.7-1.74-3.78.11-.19.72-.67 1.6-1.27.4-.27.73-.51.73-.53s-.57-.48-1.26-1.02c-1.45-1.14-1.42-1.01-.74-2.37 1.57-3.14 5.77-6.66 9.31-7.81l.87-.28L31 17.39c1.66 1.27 3.1 2.36 3.21 2.42.38.2.15.4-1.02.88-1.53.62-2.63 1.26-4.12 2.37-1.66 1.24-1.66 1.24-.83 1.24.87 0 2.55.19 2.78.31.2.11 3.71 7.06 3.65 7.23-.03.07-.6.1-1.73.08-4.07-.08-8.09 1.1-10.99 3.23-.38.28-.75.54-.81.58s-.8-1.34-1.93-3.59Zm2.8 2.66c2.7-2.01 7.66-3.38 11.32-3.15l1.08.07-1.71-3.41c-1.43-2.87-1.75-3.43-1.98-3.53-.15-.06-1.02-.13-1.93-.16l-1.66-.04-.74.88c-.93 1.12-1.55 2.05-2.1 3.16-.24.49-.49.88-.56.88s-.84-.57-1.7-1.26c-2.08-1.65-1.86-1.58-2.8-.95-.43.28-.96.66-1.17.84l-.4.34 1.74 3.46c.95 1.91 1.75 3.47 1.77 3.47.01 0 .39-.27.84-.6Zm2.08-6.32c1.6-3.34 5.14-6.47 9.23-8.13l.78-.31-1.27-.94c-.7-.52-2.07-1.57-3.05-2.32-1.98-1.54-1.81-1.47-2.8-1.12-3.58 1.29-7.5 4.64-8.99 7.68-.57 1.17-.79.87 2.71 3.56.74.57 1.7 1.32 2.13 1.67.44.35.82.63.85.62.04 0 .22-.32.41-.71Z"/></svg>