<svg xmlns="http://www.w3.org/2000/svg" width="51" height="51" viewBox="0 0 51 51"><path fill="#fff" fill-rule="evenodd" stroke="#fff" stroke-width=".432" d="M4.48 50.4c-.09-.13-.24-.2-.45-.2-.17 0-.38-.07-.47-.15-.08-.08-.21-.15-.28-.15-.24 0-1.78-1.53-1.78-1.78 0-.12-.06-.25-.14-.28s-.18-.18-.21-.34-.14-.3-.26-.33c-.19-.05-.19-.2-.18-6.49 0-3.53.03-6.51.07-6.6.07-.18.51-.49 4.26-3.01 1.32-.88 2.35-1.62 2.29-1.64-.11-.04-3.73 2.32-5.48 3.57-.44.31-.85.6-.92.64C.78 33.72.76 4.56.91 4.28c.05-.1.16-.18.24-.18q.15 0 .15-.3c0-.18.06-.33.15-.36.08-.04.15-.16.15-.28 0-.28 1.53-1.82 1.7-1.71.06.04.2-.02.31-.14S3.9 1.1 4 1.1c.11 0 .2-.06.2-.14C4.2.69 6.47.67 26.73.74 46.59.81 46.91.81 47.1 1c.11.11.26.2.34.2.07 0 .19.07.26.15s.22.15.34.15c.29 0 1.66 1.38 1.66 1.67 0 .11.07.23.15.27.08.03.15.16.15.29 0 .14.1.31.23.39l.22.15.03 21.31.03 21.3-.21.07c-.15.05-.2.15-.2.38 0 .2-.08.39-.2.5-.11.09-.2.24-.2.33 0 .23-1.39 1.64-1.62 1.64-.1 0-.27.09-.38.2-.12.12-.33.2-.54.2-.25 0-.35.05-.39.2-.05.2-.14.2-21.11.2-20.95 0-21.06 0-21.18-.2Zm41.65-.06c.33-.05.47-.12.5-.25.04-.15.15-.19.5-.19.31 0 .47-.05.51-.15.03-.08.13-.15.23-.15.22 0 1.63-1.39 1.63-1.61 0-.09.09-.24.2-.34.12-.11.2-.31.2-.51 0-.21.06-.37.18-.43.24-.14.25-1.34.17-22.29-.06-13.09-.1-17.72-.19-17.68-.06.02-1.73.74-3.71 1.6-4.37 1.88-3.93 1.63-3.61 2.1 1.36 2.01-.95 4.58-3.02 3.35-.29-.16-.37-.18-.47-.07-.1.1-2.8 4.84-3.98 6.98l-.2.35.33.35c1.48 1.57.51 3.94-1.6 3.94-.73 0-1.25-.22-1.74-.73l-.29-.3-.31.24c-.17.13-1.88 1.31-3.8 2.64l-3.5 2.4-.01.68c-.04 2.82-3.97 3.3-4.66.57-.08-.32-.17-.46-.33-.49-.23-.05-7.25-1.35-7.31-1.35-.01 0-.06.11-.09.25-.09.35-.72 1.02-1.15 1.25-.92.46-1.92.34-2.69-.34l-.47-.42-3.2 2.17-3.2 2.18-.06 1.63c-.17 4.52-.1 11.2.12 11.25.12.04.22.17.26.35.03.16.12.32.19.35.08.03.14.15.14.26 0 .29 1.37 1.67 1.66 1.67.12 0 .24.07.28.15.03.09.18.15.4.15s.42.07.54.2c.18.2.34.2 18.53.23 10.09.01 19.29.03 20.45.05 1.16.01 2.32-.01 2.57-.04Zm-8.08-6.65c-4.99-7.34-5.57-8.49-5.26-10.55.49-3.3 3.2-5.28 7.01-5.11 3.01.13 4.98 1.49 6.07 4.17.9 2.24.44 3.55-2.87 8.15-.95 1.33-2.93 4.34-3.24 4.93-.26.51-.34.43-1.71-1.59Zm2.6-.28c.54-.86 1.47-2.23 2.05-3.06 3.32-4.68 3.76-5.8 3.06-7.78-1.01-2.84-3.2-4.32-6.36-4.31-3.29.02-5.54 1.56-6.25 4.3-.52 1.99 0 3.38 2.83 7.61 3.41 5.1 3.46 5.17 3.57 4.98.05-.1.55-.88 1.1-1.74Zm-2.05-6.24c-2.46-.7-3.3-3.98-1.48-5.79 1.34-1.35 3.69-1.31 4.97.07 2.35 2.55-.16 6.67-3.49 5.72Zm2.38-.48c2.37-1.18 2.4-4.6.04-5.76-1.68-.83-3.9.05-4.47 1.78-.91 2.74 1.88 5.26 4.43 3.98ZM4.45 30.93l2.7-1.81.01-.6c.04-2.37 3.04-3.28 4.36-1.31.15.23.3.56.34.74l.06.32 1.81.33c1 .18 2.7.5 3.77.71 1.76.35 1.96.37 2.05.22 1.04-1.67 2.68-1.99 3.95-.77l.35.33 1.3-.9c.72-.49 2.43-1.67 3.81-2.62l2.52-1.72v-.65c-.01-1.47.79-2.29 2.32-2.4l.74-.05 1.04-1.85c.57-1.02 1.54-2.73 2.14-3.8 1.06-1.86 1.1-1.96.98-2.25-.82-2.04.66-3.82 2.77-3.34.44.1.53.09 1.08-.16.33-.15 1.57-.69 2.75-1.2s2.76-1.2 3.5-1.54l1.35-.6.03-.84c.03-.78.01-.85-.18-.9-.13-.03-.2-.13-.2-.3 0-.13-.07-.3-.15-.37-.08-.06-.17-.22-.21-.33-.1-.36-1.35-1.57-1.62-1.57-.12 0-.25-.07-.28-.15-.04-.08-.17-.15-.3-.15s-.29-.09-.36-.2C46.68.88 4.57.88 4.4 1.2c-.06.11-.21.2-.34.2a.54.54 0 0 0-.36.15c-.07.08-.2.15-.29.15-.22 0-1.61 1.41-1.61 1.63 0 .1-.07.2-.15.23-.08.04-.15.19-.15.35s-.08.33-.19.41c-.19.14-.2.45-.23 14.55l-.03 14.41.35-.28c.19-.15 1.56-1.08 3.05-2.07Zm18.56 1.12c1.67-1.18.86-3.75-1.18-3.75-1.89 0-2.84 2.17-1.52 3.49.71.71 1.9.82 2.7.26Zm-1.69-1.44c-1.01-.1-.74-.26.36-.22 1 .03 1.12.06 1.12.22 0 .09-.42.09-1.48 0Zm-10.85-.32c1.25-.61 1.59-2.14.7-3.16-1.3-1.48-3.76-.56-3.77 1.4 0 1.5 1.65 2.45 3.07 1.76Zm8.87-.28c-.05-.05-.92-.25-1.94-.45-1.02-.19-2.57-.49-3.44-.66-1.64-.31-2.06-.36-2.06-.22 0 .07 6.82 1.39 7.3 1.41.15.01.2-.03.14-.08ZM8.47 28.73c-.18-.17-.01-.23.67-.23.85 0 1.38.09 1.3.21-.06.1-1.87.12-1.97.02Zm26.29-3.84c1.79-.86 1.29-3.65-.68-3.86-2.08-.21-3.22 2.28-1.65 3.6.61.51 1.6.62 2.33.26Zm-2.01-1.29c-.03-.05 0-.13.08-.16.23-.09 1.77 0 1.8.11.03.14-1.79.19-1.88.05Zm4.1-6.2 2.02-3.57c.14-.24.22-.43.19-.43-.06 0-.75 1.18-1.96 3.35-.46.82-1.17 2.08-1.57 2.78s-.73 1.31-.73 1.35c0 .13.28-.35 2.05-3.48Zm-21.8 2.31c-3.09-.5-4.85-2.49-4.85-5.49 0-4.27 4.27-6.9 8.85-5.45.7.22.7.19.37 1.32-.37 1.25-.24 1.16-1.17.9-3.15-.86-5.63.92-5.15 3.69.31 1.8 1.48 2.76 3.32 2.7l.93-.03.03-.97.03-.97-.83-.03-.83-.03-.03-1.04c-.02-.77.01-1.07.1-1.13.22-.13 3.92-.1 4.06.04.09.09.12.89.12 2.99v2.87l-.47.16c-1.3.43-3.39.64-4.48.47Zm-9.07-.16c-.05-.05 0-10.87.06-10.92.07-.08 1.87-.15 2.2-.09l.36.07V19.6H7.32c-.71 0-1.31-.02-1.34-.05Zm15.79-.02c-.1-.09-.09-10.81.01-10.87.14-.08 2.49-.19 2.76-.12.15.04.36.23.51.46.49.78 1.9 3.28 2.67 4.75l.79 1.5-.05-3.2c-.03-1.76-.02-3.26.02-3.32.09-.14 2.26-.23 2.39-.1.1.1.18 9.91.08 10.53l-.06.44h-2.84l-1-1.82c-.55-1-1.42-2.6-1.92-3.57l-.93-1.76v7.15h-1.18c-.65 0-1.22-.03-1.25-.07Zm-3.71-.18c.43-.08 1-.22 1.26-.31l.48-.16V13.4l-1.92.02-1.93.03v1.6l.83.03.82.03v1.2c0 1.42.07 1.34-1.3 1.34-2.11-.01-3.44-1.38-3.45-3.55-.01-2.74 2.33-4.18 5.44-3.35.68.18.64.21.91-.76.27-.95.31-.9-.8-1.15-5.12-1.19-9.13 2.58-7.66 7.2.86 2.72 3.7 4 7.32 3.31ZM8.4 14.1V8.8H6.2v10.6h2.2zm15.51 1.33c-.04-4.08 0-4.44.35-3.55.39.95.87 1.87 2.37 4.6l1.61 2.92h2.46V8.8h-2v3.63c.01 1.99-.02 3.64-.06 3.67-.03.03-.25-.38-.48-.9-.5-1.12-2.45-4.7-3.38-6.19-.12-.21-.19-.21-1.48-.19l-1.35.03-.03 5.15c-.01 2.83 0 5.21.03 5.28.03.09.3.12 1.02.1l.98-.03zm18.01-1.92c1.76-1.12 1.01-3.81-1.07-3.81-1.55 0-2.55 1.42-2.01 2.84.44 1.15 2.01 1.65 3.08.97Zm-1.95-1.48c-.18-.18 0-.23.83-.23.73 0 .9.03.9.15 0 .16-1.58.23-1.73.08Zm6.8-4.14c1.8-.77 3.32-1.45 3.38-1.5.12-.13-.55.14-1.95.76-.58.26-1.88.83-2.9 1.27-1.73.74-2.02.88-1.87.88.03 0 1.53-.63 3.34-1.41Z"/></svg>