<svg xmlns="http://www.w3.org/2000/svg" width="51" height="51" viewBox="0 0 51 51"><path fill="#fff" fill-rule="evenodd" stroke="#fff" stroke-width=".775" d="M12.33 41.9c-1.15-.23-2.2-1.07-2.69-2.13l-.29-.62.01-13.6.01-13.6.28-.62c.46-1.04 1.46-1.79 2.7-2.03.44-.08 4.17-.1 13.65-.08l13.05.03.57.23c1.11.45 1.92 1.3 2.23 2.36.27.89.22 26.51-.05 27.38a3.98 3.98 0 0 1-2.3 2.51l-.55.22-13.1.01c-7.21.01-13.29-.02-13.52-.06Zm27.01-.4c1.06-.4 1.73-1.08 2.18-2.19l.23-.56.03-12.8c.02-8.75-.01-13.02-.08-13.49-.19-1.24-.85-2.11-1.99-2.65l-.56-.26-13.35-.03c-13.32-.02-13.34-.02-13.97.19-.77.25-1.61.97-1.94 1.67l-.23.47-.04 13.53C9.59 35.5 9.61 39 9.7 39.28c.3.96 1.32 1.96 2.31 2.27.83.26 26.62.21 27.33-.05Zm-22.81-5.07c-.04-.09.07-.9.23-1.8l.3-1.63H13.5v-.26c0-.35.6-3.38.71-3.55.06-.11.45-.14 1.81-.14h1.72l.08-.4c.05-.22.31-1.68.59-3.24.27-1.56.52-2.95.55-3.08l.06-.23h-1.75c-.97 0-1.78-.04-1.81-.08-.09-.15.54-3.66.67-3.74.07-.04.89-.08 1.82-.08h1.7l.34-1.75.33-1.74 1.79-.03c.99-.02 1.84-.01 1.89 0 .15.05.12.33-.15 1.81-.14.74-.25 1.42-.25 1.53 0 .17.16.18 3.43.18h3.43l.35-1.72.34-1.73 1.87-.03 1.88-.02v.27c0 .16-.11.89-.25 1.63s-.25 1.41-.25 1.47c0 .1.39.13 1.64.13 1.27 0 1.66.03 1.75.14.1.12-.19 2.46-.44 3.54-.05.22-.07.22-1.84.22h-1.79l-.06.25c-.08.3-1.16 6.52-1.16 6.65 0 .06.71.1 1.75.1 1.64 0 1.75.01 1.75.19 0 .38-.62 3.46-.72 3.58-.08.1-.56.13-1.79.13-1.51 0-1.68.02-1.73.18-.03.09-.17.82-.32 1.62-.14.8-.3 1.53-.35 1.63-.13.23-3.66.27-3.75.03-.03-.07.08-.88.24-1.8l.29-1.66-3.45.02-3.46.03-.31 1.65c-.17.91-.34 1.71-.38 1.78-.14.21-3.66.17-3.74-.05Zm3.66-.66c.06-.28.2-1.04.32-1.67s.26-1.21.31-1.27c.17-.21 7.17-.18 7.24.02.04.09-.04.73-.16 1.43s-.24 1.44-.27 1.65l-.06.37h1.66c1.65 0 1.67 0 1.72-.22.02-.13.17-.88.31-1.68s.3-1.51.36-1.57c.07-.09.61-.13 1.81-.15l1.71-.03.28-1.45c.15-.8.3-1.55.33-1.67l.05-.23H34c-1.07 0-1.8-.04-1.8-.1 0-.09 1.02-5.99 1.16-6.7.14-.73.06-.7 1.99-.7h1.73l.06-.27c.08-.39.46-2.8.46-2.93 0-.06-.63-.1-1.75-.1-1.35 0-1.75-.03-1.75-.13 0-.13.46-2.87.55-3.25l.05-.22h-1.65c-1.62 0-1.65 0-1.7.22-.03.13-.19.9-.35 1.71-.16.82-.32 1.53-.35 1.58-.04.05-1.56.09-3.71.09H23.3v-.23c0-.19.39-2.49.54-3.2.04-.16-.07-.17-1.62-.15l-1.67.03-.35 1.75-.35 1.75-1.8.05-1.8.05-.22 1.25c-.11.69-.24 1.42-.27 1.63l-.06.37h1.69c1.23 0 1.71.03 1.78.12.09.13-.98 6.63-1.18 7.16-.08.22-.11.22-1.84.22s-1.75 0-1.8.23c-.02.12-.16.81-.3 1.52-.14.72-.28 1.38-.31 1.47-.05.17.08.18 1.75.18h1.81v.23c0 .24-.46 2.86-.56 3.19-.05.17.07.18 1.65.18h1.7zm1.21-6.68c0-.2.39-2.46.97-5.54.14-.77.3-1.48.35-1.57.1-.2 6.97-.28 7.26-.09.12.07-1.05 7.03-1.24 7.32-.03.05-1.66.09-3.7.09-3.62 0-3.64 0-3.64-.21Zm7.15-.11c.04-.13 1.25-6.7 1.25-6.82 0-.03-1.55-.06-3.44-.06h-3.44l-.05.23c-.04.12-.31 1.62-.62 3.32-.31 1.71-.58 3.17-.6 3.25-.07.21 6.82.29 6.9.08Z"/></svg>