<svg xmlns="http://www.w3.org/2000/svg" width="51" height="51" viewBox="0 0 51 51"><path fill="#fff" fill-rule="evenodd" stroke="#fff" stroke-width=".497" d="M26.13 43.8c-2.79-1.7-4.6-12.54-2.1-12.54 1.66 0 3.77 4.87 3.94 9.1.12 2.9-.58 4.21-1.84 3.44Zm1.07-.22c.3-.33.51-1.11.57-2.18.28-4.79-3.07-11.95-4.37-9.35-.38.77-.36 3.83.04 5.63.88 3.97 2.78 6.95 3.76 5.9ZM10.55 36.1c-1.35-.42-.21-3.26 2.31-5.76 3.25-3.22 6.82-4.31 6.5-1.99-.41 3.03-6.56 8.43-8.81 7.75Zm1.58-.44c3.13-1.29 6.93-5.38 7.01-7.54.09-2.79-7.09 2.06-8.62 5.82-.71 1.75-.09 2.42 1.61 1.72Zm25.42-1.32C30.71 33.11 26.66 29 32.29 29c4.86 0 11.43 3.39 9.71 5-.54.51-2.63.66-4.45.34Zm3.97-.31c2.42-1.09-3.81-4.53-8.68-4.8-6.32-.34-1.59 3.95 5.51 5.01.83.12 2.7 0 3.17-.21Zm-8.49-8.63c-3.25-1.17-3.22-5.54.06-8.8 4.71-4.68 10.91-1.66 8.32 4.05-1.56 3.44-5.63 5.75-8.38 4.75Zm2.59-.15c4.12-.86 7.36-5.94 5.71-8.97-1.76-3.23-7.47-1.75-9.67 2.5-2.04 3.96 0 7.29 3.96 6.47ZM16.8 21.8c-3.97-.55-7.85-2.63-7.85-4.23 0-2.22 8.04-.91 11.06 1.81 1.83 1.65.19 2.88-3.21 2.42Zm3.08-.38c3.03-1.13-3.96-4.89-8.7-4.7-1.75.07-2.3.46-1.88 1.34 1.04 2.14 7.95 4.33 10.58 3.36Zm6.77-2.36c-2.51-1.12-4.53-9.81-2.73-11.73.87-.93 2.68 1.08 3.62 3.99.96 2.98 1 6.78.08 7.61-.26.23-.63.28-.97.13Zm1.02-.66c1.27-2.56-.58-9.82-2.79-10.96-2.14-1.1-1.7 6.65.57 10.06.98 1.47 1.78 1.79 2.22.9Z"/></svg>