<svg xmlns="http://www.w3.org/2000/svg" width="51" height="51" viewBox="0 0 51 51"><path fill="#fff" fill-rule="evenodd" stroke="#fff" stroke-width=".583" d="M4.2 50.92c-1.8-.65-2.94-1.72-3.83-3.6l-.32-.67-.03-2.7-.03-2.7 2.03-.89c1.12-.49 3.18-1.38 4.58-1.98s3.18-1.37 3.95-1.72 1.69-.76 2.05-.91c.89-.39.89-.37.18-.88-.35-.24-1.17-.95-1.83-1.56S9.69 32.2 9.62 32.2c-.21 0-1.92.62-1.92.7 0 .04.71.74 1.58 1.56.86.81 1.57 1.52 1.57 1.57 0 .1-2.11.95-7.15 2.88C.74 40.04.35 40.22.37 40.4c.03.24-.22.27-.31.04-.03-.09-.06-1.25-.06-2.59v-2.43l3.03-1.12c1.66-.62 3.73-1.39 4.6-1.7.87-.32 1.61-.6 1.64-.63s-.18-.37-.46-.74c-2.46-3.27-3.22-8.33-1.89-12.52 1.01-3.18 2.57-5.1 6.58-8.14.41-.31 1.13-.91 1.6-1.32s2.2-1.75 3.84-2.97c1.64-1.23 4.16-3.11 5.6-4.18L27.15.15 16.35.12C4.34.09 4.79.07 3.4.76 1.86 1.53.85 2.83.24 4.8c-.22.72-.23.73-.23.33-.03-1.84 2.12-4.34 4.28-5C5.1-.11 46.4-.06 47.12.19c2.33.8 4.1 3.1 4.07 5.3-.01.66-.02.69-.13.19L51 5.4l-1.03.67c-3.76 2.44-12.46 7.76-13.69 8.39-1.02.52-1.94 0-1.73-.98.1-.43.35-.37.28.07-.07.42.16.82.51.91.28.07.61-.09 2.56-1.24l1.45-.86-.4-.09c-3.91-.86-3.72-.63-3.05-3.77.51-2.42.89-4.1.96-4.34.05-.16-.01-.14-.32.11-.55.43-.78.53-1.19.53-.61 0-1.09-.62-.89-1.13.05-.13 2.73-2.6 3.64-3.36l.25-.2L32.97.1H27.6l-1.08.83c-.59.46-2.46 1.87-4.17 3.12-4.57 3.37-7.45 5.57-7.45 5.71 0 .01.37-.13.83-.32 8.71-3.55 18.07 2.27 18.99 11.8.06.66.12 1.22.13 1.23.03.05 12.7-4.68 15.38-5.74.82-.32 1.15-.37.9-.12-.05.05-.63.3-1.29.55-2.19.83-11.97 4.5-13.44 5.04-1.75.64-1.57.49-1.7 1.45-.11.76-.4 2.1-.55 2.48-.06.14.08.11.76-.19.46-.2 2.03-.85 3.49-1.46 3.91-1.63 5.49-2.31 9.15-3.93 3.66-1.63 3.7-1.64 3.63-1.44-.02.08-.91.52-1.97.99-2.21.98-2.11.88-2.11 2.03 0 .84.03.96.5 2.14.52 1.29.8 2.25.8 2.81 0 .17.01.32.03.32.01 0 .31-.09.66-.2.79-.25 2.11-.38 2.11-.21 0 .06-.06.11-.12.11-.51.02-1.66.23-2.14.4-.75.26-.74.26-.74-.15 0-.38-.06-.41-.43-.24-.2.09-.26.21-.3.63-.13 1.12-2.09 2.32-4.2 2.56-.51.06-1.07.15-1.25.2-.3.08-.33.07-.27-.08.46-1.06.46-1.31.03-1.04-.23.15-.38.37-.56.86-.13.36-.31.68-.41.71-.09.02-.61.41-1.16.84-1.64 1.31-2.39 1.61-4.08 1.61h-.68l.06-.47c.04-.27.09-.57.12-.67.05-.19.04-.19-.28.02-.34.21-.41.33-.59 1.08-.08.32-.17.44-.39.54-.16.06-.74.47-1.28.91-1.5 1.21-2.25 1.51-4.3 1.74-.74.08-.73.09-.48-1.1.08-.38.15-.71.15-.73 0-.01-.16.08-.35.2-.38.25-.51.53-.61 1.35-.06.51-.08.54-.59.82-.29.17-.86.58-1.27.92-1.35 1.14-1.8 1.33-3.53 1.53-.66.08-1.45.24-1.75.35-.79.3-.83.29-.78-.24.03-.45.03-.45-.29-.45h-.33v1.48l-.68.56c-1.02.82-1.73 1.12-3.29 1.35-1.55.24-2.14.45-3.05 1.08-.38.25-.71.44-.74.4-.26-.25-.3-1.69-.09-2.8.27-1.4.17-2.44-.35-3.59-.2-.45-.21-.46-.49-.37l-.29.1.3.82c.41 1.12.46 2.03.19 3.24-.26 1.13-.26 1.65-.04 2.5l.18.65-.25.2c-.46.38-1.31.7-2.08.79-2.25.27-2.8.48-4.12 1.59-1.72 1.45-2.07 1.54-2.5.7-.64-1.26-.73-2.18-.39-3.82.2-.98.25-2.66.07-2.83-.03-.04-.19 0-.35.09l-.3.15-.02 2.05c-.02 2.66.14 3.34 1.17 4.89.58.89.88.82 2.67-.69 1.26-1.07 1.74-1.26 3.61-1.48.91-.11 1.41-.22 1.99-.47.9-.37.83-.41 1.2.74.31.96.32 1.67.05 3.04-.11.56-.17 1.16-.14 1.33.05.23.03.3-.1.3-.23 0-.21-.72.05-1.96.22-1.07.21-1.7-.05-2.59-.26-.87-.32-.9-.99-.61-.54.25-.83.3-2.72.56-1.03.13-1.77.5-2.82 1.38-.45.39-1.07.84-1.37 1.02-.31.17-.56.35-.56.4 0 .35 2.59 1.6 3.31 1.6.1 0 .19.05.19.1 0 .18-.63.1-1.4-.18Zm7.1-.27c0-.3.09-.97.21-1.48.26-1.16.21-1.94-.2-3.13-.4-1.14-.4-1.15.22-1.65.81-.65 1.58-.97 2.77-1.14 1.93-.29 2.62-.54 3.69-1.34.69-.52.6-.56 1.05.49.74 1.76.8 2.31.45 4.1-.15.78-.19 1.24-.14 1.8l.06.75-.66.57c-1.22 1.03-2.17 1.41-3.86 1.53-1.3.1-1.04-.08.41-.28 1.37-.2 2.41-.65 3.31-1.46l.55-.49-.04-.84c-.03-.6.02-1.11.17-1.85.31-1.52.26-1.98-.42-3.62l-.33-.8-.6.44c-.83.62-1.65.92-3.13 1.15-1.59.24-2.2.46-2.96 1.08-.68.55-.67.5-.29 1.52.38 1.05.42 2.05.15 3.37-.11.56-.21 1.2-.21 1.42 0 .23-.04.41-.1.41-.05 0-.1-.25-.1-.55Zm6.7.46c0-.15 1.61-1.32 1.72-1.25s.58 1.08.58 1.24c0 .26-.22.05-.41-.4-.12-.27-.25-.5-.3-.5s-.39.23-.77.5c-.7.51-.82.57-.82.41Zm2.71-.74c-.47-1.16-.47-1.16.25-1.54.44-.23.92-.38 1.8-.53 1.56-.27 2.61-.77 3.94-1.9 1.12-.95 1.04-.93 1.19-.25.07.31.3.99.52 1.53.6 1.46.85 2.79.63 3.36-.15.38-.24.1-.24-.71 0-.71-.06-1.03-.29-1.68-.72-2.01-.94-2.6-.97-2.64-.01-.01-.24.17-.51.42-1.44 1.33-2.42 1.82-4.28 2.12-1.91.3-2.29.6-1.9 1.46.37.83.47 1.19.32 1.19-.07 0-.27-.38-.46-.83Zm8.99-.09c0-.97 0-.95-.89-3.38-.6-1.65-.51-1.82 1.16-2.04 1.71-.23 2.35-.53 4.03-1.94.86-.73 1-.76 1-.24 0 .53.23 1.35.69 2.45.88 2.13.86 3.11-.09 3.75-.25.16-.81.62-1.25 1.02-.95.87-1.6 1.32-1.81 1.28-.1-.02.06-.18.43-.45.32-.23.93-.73 1.35-1.11.42-.39.97-.84 1.22-1.01.76-.53.72-1.41-.15-3.58-.3-.73-.53-1.49-.57-1.84l-.07-.6-.95.8c-1.4 1.19-2.32 1.57-4.21 1.76-1.05.11-1.08.42-.23 2.54.52 1.3.7 2.15.6 2.95-.11.87-.26.66-.26-.36Zm4.3.84c0-.12 1.76-1.62 1.9-1.62.07 0 .1.07.06.16-.03.09-.06.47-.06.85 0 .39-.04.69-.1.69s-.1-.29-.1-.66v-.66l-.74.66c-.69.61-.96.78-.96.58Zm2.67.01c-.1-.09-.08-1.95.01-2.1.08-.13 1.12-.43 1.48-.43.93 0 2.25-.71 3.74-1.99.58-.5 1.07-.91 1.1-.91s.04.43.02.96c-.05 1.14.06 1.71.58 3.03.49 1.24.55 1.51.35 1.51-.08 0-.15-.09-.15-.19 0-.11-.2-.7-.44-1.33-.52-1.33-.7-2.17-.64-2.93.03-.3.03-.55.02-.55-.02 0-.36.3-.76.66-1.3 1.19-2.27 1.71-3.59 1.93-1.59.28-1.73.44-1.56 1.92.06.45 0 .59-.16.42Zm8.08-.2c-.03-.16-.25-.73-.47-1.28-.69-1.68-.8-2.43-.56-3.71.15-.83.21-.88 1.58-1.18 1.37-.31 2.1-.65 3.1-1.45.41-.34.78-.61.83-.61.15 0 .11.95-.08 1.7-.31 1.31-.28 1.69.26 3.43.35 1.12.31 1.07.59.62l.21-.34-.26-.82c-.38-1.22-.41-1.79-.15-2.84.17-.69.21-1.08.18-1.73l-.05-.84.39-.24c.56-.36.88-.47.88-.3 0 .07-.23.23-.5.36l-.51.24.07.65c.04.51.01.88-.16 1.6-.26 1.1-.24 2.1.07 3.06l.2.6.17-.4c.1-.22.28-.8.41-1.3.23-.89.23-.89.24-.4.04 2.49-3.08 5.58-5.47 5.43-.46-.03-.44-.04.46-.25 1.11-.27 2.16-.8 2.86-1.44l.51-.46-.39-1.19c-.5-1.55-.54-2.13-.26-3.42.29-1.37.27-1.42-.4-.87a6.8 6.8 0 0 1-2.76 1.35c-1.69.38-1.61.34-1.73.88-.3 1.38-.23 1.98.49 3.77.62 1.56.65 1.65.47 1.65-.08 0-.18-.12-.22-.27Zm-24.69-2.6c-.09-.1-.07-1.33.04-1.78.38-1.55.3-2.6-.32-4.04-.76-1.8-.58-2.04 1.72-2.32 1.97-.24 2.54-.47 3.67-1.47 1.41-1.25 2.15-1.62 3.27-1.62 1.52-.01 2.81-.48 4.11-1.5 1.28-1 1.54-1.07 1.55-.43 0 .2.12.54.87 2.58.57 1.52.42 3.36-.3 3.79-.23.14-.8.59-1.27 1-1.43 1.26-2.02 1.52-3.95 1.75-.99.12-.95.15-.79-.66.27-1.38.16-2.15-.53-3.92-.25-.62-.47-1.38-.5-1.67-.06-.58-.2-.68-.58-.4-.24.17-.11.82.44 2.18.86 2.12.82 4.5-.1 5.16-.2.15-.72.58-1.15.96-1.31 1.13-2.22 1.57-3.71 1.77-.9.12-1.41.25-2.04.52-.2.09-.39.13-.43.1Zm-17.63-.52c.31-.22.86-.65 1.21-.95 1.11-.94 1.79-1.21 3.56-1.42 1.32-.16 2.57-.63 2.53-.95-.01-.08-.09-.47-.17-.86-.17-.77-.15-1.15.12-2.18.3-1.2.05-3.26-.47-3.78-.1-.1-2.08.72-6.61 2.71-1.28.57-1.55.72-1.53.88.15 1.13.14 1.46-.06 2.5-.27 1.43-.27 2.46 0 3.26.45 1.34.55 1.39 1.42.79Zm18.82-.12c.16-.05.67-.14 1.14-.2 1.51-.2 2.53-.69 3.73-1.77.35-.31.82-.72 1.04-.89.84-.66.96-2.72.28-4.46-.2-.51-.46-1.25-.58-1.65l-.23-.73-.6.43c-.34.24-.92.67-1.29.96-.8.6-1.51.86-2.69.97-.93.08-1.53.21-2.13.47-.51.21-.52.1.15 1.76.58 1.45.64 2.19.34 3.75-.12.59-.21 1.24-.21 1.43v.34l.38-.16c.2-.09.5-.2.67-.25Zm15.68-.29c-.01-.79-.07-1.02-.71-2.6-.4-1.01-.46-1.27-.5-2.07-.05-1.1-.11-1.05 1.5-1.32 1.8-.3 2.48-.64 3.93-1.9.87-.76.8-.77.93.22.07.53.26 1.24.53 1.93.87 2.27.9 2.78.16 3.32-.28.22-.94.77-1.44 1.24-1.13 1.04-1.85 1.44-3.06 1.69-1.4.29-1.33.31-1.34-.51Zm1.63.2c1.02-.26 1.6-.62 2.84-1.77.56-.51 1.15-1.01 1.32-1.1.45-.27.37-1.15-.27-2.83-.26-.69-.53-1.55-.59-1.92l-.11-.68-.65.57c-1.31 1.14-2.11 1.51-3.87 1.78-.66.1-1.17.23-1.24.31-.18.22-.05 1.38.24 2.14.14.36.39 1.03.57 1.5.18.49.34 1.13.37 1.52.07.8.09.81 1.39.48Zm5.39-3.67c-.14-.92-.28-1.43-.65-2.29-.46-1.08-.59-1.59-.6-2.31 0-1.01.1-1.08 1.92-1.37 1.43-.23 2.33-.64 3.2-1.44.36-.33.38-.29.28.53-.14 1.07.01 1.94.61 3.53.49 1.28.54 1.09-.47 1.97-1.05.91-1.8 1.3-3.04 1.55-1.23.25-1.18.26-1.25-.17Zm-13.35-.05c.79-.14 1.57-.59 2.63-1.5.51-.44 1.09-.91 1.29-1.04.68-.44.77-1.98.19-3.56-.16-.46-.42-1.19-.57-1.63s-.3-.88-.33-.99c-.06-.16-.17-.1-.85.43-1.57 1.26-2.27 1.55-4.03 1.7-.58.05-1.07.12-1.11.15-.12.13.18 1.27.64 2.41l.48 1.2.01 1.25c0 .69-.04 1.38-.08 1.53l-.08.28.63-.06c.35-.04.88-.11 1.18-.17Zm14.7-.03c1.18-.27 2.18-.85 3.08-1.78l.44-.45-.48-1.38c-.45-1.3-.48-1.46-.49-2.4v-1.02l-.37.29c-.67.54-1.56.87-2.87 1.09-.69.12-1.32.25-1.42.31-.41.22-.33 1.45.17 2.64.41.97.71 1.87.78 2.38.08.55.12.56 1.16.32Zm-34.04-.4c.56-.43 1.52-.83 2.27-.95 2.48-.4 3.09-.62 4.05-1.48l.54-.47.03-.83c.02-.45.1-1.03.19-1.3.08-.26.18-.66.21-.88l.06-.42-.73-.12c-1.1-.18-2.31-.56-3.24-1-1.03-.49-.87-.5-2.3.13-.65.3-1.4.63-1.66.75l-.47.2.29.7c.17.38.34 1.03.4 1.43.11.75.09.98-.16 2.49-.15.88-.1 2 .09 2 .05 0 .25-.11.43-.25Zm38.06-3.12c-.68-1.76-.76-2.72-.35-4.23l.18-.65.84-.43c.81-.41 1.21-.52 1.21-.33 0 .05-.17.15-.37.21-.21.07-.63.25-.93.41l-.56.3-.18.81c-.32 1.42-.04 3.47.6 4.36.01.02.17-.04.34-.13.59-.31 1.1-.45 1.1-.32 0 .1-1.32.77-1.52.77-.03 0-.2-.35-.36-.77Zm-13.37-.59c-.01-1.27.02-1.18-.89-3.58-.15-.38-.29-.94-.33-1.26-.07-.73-.01-.77 1.46-.9 1.6-.14 2.11-.36 3.65-1.54 1.17-.9 1.21-.91 1.35-.24.06.28.3.96.52 1.51.5 1.25.69 2.04.68 2.87-.02 1.03-.09 1.21-.59 1.54-.25.16-.85.65-1.35 1.08-1.26 1.1-2.04 1.42-3.9 1.63l-.6.07zm2.46.5c.63-.2 1.22-.59 2.1-1.38.4-.38.91-.78 1.12-.89.64-.37.72-1.69.19-3.18-.17-.46-.45-1.28-.64-1.81l-.34-.98-1.11.84c-1.32 1-1.9 1.24-3.29 1.36-1.52.13-1.56.15-1.49.59.14.84.19 1 .56 1.88.55 1.29.69 1.92.69 3.04v.96l.88-.14c.48-.07 1.08-.2 1.33-.29ZM2.25 39.2c1.57-.59 6.62-2.57 7.81-3.05l.42-.17-1.5-1.47c-.83-.8-1.54-1.48-1.6-1.5s-1.72.57-3.69 1.3L.1 35.65v2.19c0 2.04.01 2.18.18 2.11.09-.04.98-.38 1.97-.75Zm17.83.34c.24-.07.9-.18 1.47-.24 1.53-.16 2.04-.36 3.11-1.27.37-.32.97-.77 1.33-1l.66-.43.1-.63.1-.62-1 .5c-1.69.85-3.09 1.22-4.95 1.32l-1.15.06-.19.91c-.31 1.47-.32 1.71-.1 1.61.11-.04.38-.13.62-.21Zm-.82-1.09c.06-.22.13-.59.17-.83l.05-.42h-.34c-.31 0-.34.03-.34.28 0 .16-.07.51-.15.78-.2.66-.2.66.17.62.28-.03.34-.08.44-.43Zm23.72-2.07c-.05-1.18-.08-1.29-.58-2.63-.92-2.48-.89-2.57.93-2.81 1.53-.2 2.01-.35 2.91-.94.9-.58.94-.59.88-.2-.07.51.17 1.58.69 2.99.28.75.53 1.59.56 1.86l.05.5-.58.51c-1.39 1.2-1.95 1.47-3.48 1.7-.55.08-1.08.17-1.17.2-.14.04-.17-.11-.21-1.18Zm1.49.72c1.25-.17 1.87-.49 3.33-1.71l.42-.36-.12-.59c-.07-.32-.3-1.04-.52-1.59-.47-1.22-.68-1.99-.68-2.55v-.42l-.32.21c-.98.65-1.78.93-2.98 1.06-.3.03-.79.11-1.08.16l-.53.11.07.46c.03.26.26.98.5 1.6.52 1.34.78 2.54.72 3.29-.05.54-.05.54.21.48.14-.02.58-.09.98-.15Zm-21.8-.39c2-.44 3.95-1.39 5.98-2.9.71-.53 2.14-1.59 3.18-2.35 2.03-1.5 1.98-1.44 1.63-2.24-.29-.68-.27-.69-.92.33-2.51 4-7.04 6.45-11.72 6.33l-1.29-.03.08.3c.05.16.09.43.09.59v.29l1.05-.06c.58-.04 1.44-.15 1.92-.26Zm-4.18-.23c-.02-.62-.12-.81-.49-.9-9.08-2.18-13.54-12.3-8.95-20.3l.36-.63-.31.35C7.11 17.28 6 22.13 6.71 25.48c.74 3.52 1.59 5.07 3.96 7.26 2.61 2.4 3.94 3.21 6.25 3.81 1.35.35 1.58.34 1.57-.07Zm10.84-.33c1.04-.18 1.84-.58 2.92-1.44.49-.4 1.07-.81 1.27-.92.59-.3.83-1.91.47-3.07l-.14-.43-1.66 1.23c-.92.68-2.17 1.59-2.78 2.03-1.21.87-1.33 1.06-1.48 2.28l-.06.47h.34c.19-.01.69-.07 1.12-.15Zm-5.87-.7c9.5-1.82 14.05-12.67 8.71-20.78-5.62-8.52-18.43-7.8-23.2 1.31-5.12 9.8 3.63 21.55 14.49 19.47Zm-3.71-.14c-5.51-.64-9.93-4.31-11.39-9.46a13.144 13.144 0 0 1 15.22-16.6C32.4 10.94 36.87 21.16 32.21 29c-2.48 4.18-7.76 6.85-12.46 6.31Zm3.21-.36c.88-.14 1.9-.42 2.55-.69l.32-.13-.54-.18c-2.18-.71-4.57-2.67-5.89-4.83l-.55-.9-.87-.37c-1.81-.76-4.02-2.5-5.24-4.12-.32-.43-.62-.82-.67-.88-.17-.18.01 2.74.22 3.66.87 3.8 2.9 6.8 5.49 8.13.8.41 3.53.58 5.18.31Zm26.11-.42c-.02-.04-.07-.25-.11-.45s-.2-.69-.36-1.09c-.74-1.79-1.04-3.56-.7-4.2.22-.4 1.85-.99 2.76-.99.81 0 .65.14-.31.27-.56.08-1.11.23-1.55.44l-.69.31-.07.57c-.1.79.08 1.71.61 3.06.25.64.48 1.3.52 1.46.07.34.07.34.81.1.88-.29 1.22-.33 1.22-.16 0 .09-.09.15-.22.15-.2 0-1.21.33-1.69.54-.1.04-.19.04-.22-.01Zm-32.94-.71c-2.7-2.25-4.33-6.04-4.39-10.2-.02-1.61-.02-1.64-.32-2.2-.46-.85-.82-2.03-1.06-3.41l-.22-1.24-.36.31c-1.21 1.07-1.56 2.03-1.65 4.47-.2 5.5 2.67 10.17 7.62 12.42.97.44 1.05.41.38-.15Zm11.18-.43c2.29-1.37 4.06-3.2 5.08-5.25.31-.61.91-2.06.91-2.18 0-.02-.33.06-.72.16-.4.11-1.19.21-1.75.23-.95.04-1.04.06-1.55.38-2.65 1.7-6.44 2.4-9.38 1.74-.81-.19-.8-.26-.11.79 1.32 2.01 3.41 3.68 5.56 4.45.8.28 1.03.24 1.96-.32Zm10.05-.44c.88-.25 3.36-2.13 3.61-2.75.45-1.11.05-3.8-.66-4.53-.06-.06-4.76 3.31-5.34 3.83-.04.03.02.47.14.96.16.69.2 1.09.17 1.8l-.05.91.81-.04c.45-.03 1.04-.11 1.32-.18Zm-2.34-1.52c-.04-.51-.33-1.73-.41-1.73-.03.01-.17.1-.3.2l-.23.2.16.65c.09.35.16.83.16 1.06v.41l.33-.21c.28-.18.32-.25.29-.58Zm9.02-1.49c.9-.17 1.16-.29 2.01-.89 1.13-.81 1.19-.9 1.12-1.92-.05-.86-.12-1.1-.89-3.13-.13-.34-.22-.9-.26-1.47-.02-.51-.09-.93-.13-.93-.35 0-2.04 1.18-4.25 2.96l-.38.32.28.63c.73 1.63.79 1.87.79 3.04 0 .61-.04 1.22-.11 1.37l-.11.26.57-.04c.31-.03.93-.12 1.36-.2Zm-9.73-.33.24-.19-.19-.49c-.1-.26-.28-.74-.4-1.06l-.22-.57-.22.45-.22.45.33.8c.35.88.35.88.68.61Zm3.52-2.56c2.19-1.63 2.38-1.8 2.32-2.03-.03-.13-.09-.37-.12-.53-.08-.4-.04-.41-2.6.67-1.25.53-2.52 1.07-2.82 1.19-.82.34-.83.61-.09 2.27l.31.68.31-.23c.17-.13 1.38-1.04 2.69-2.02Zm4.05 1.96c.32-.27.3-1.81-.03-1.81s-.44.33-.38 1.18c.06.89.07.9.41.63Zm-17.11-.76c1.03-.2 2.43-.69 3.43-1.2 1.39-.72 1.37-.68.29-.94-3.96-.91-7.78-3.03-10.09-5.59l-.58-.64-.07.3c-.38 1.74.05 4.88.97 7.09l.29.72.73.16c1.63.36 3.46.4 5.03.1Zm-6.17-.52c0-.05-.14-.42-.3-.82-.73-1.78-.95-3.24-.86-5.57.03-.95.09-1.79.12-1.87.04-.1.47.27 1.42 1.22 2.49 2.5 5.55 4.19 9.17 5.07 1.36.33 1.57.31 2.16-.12 1.31-.96 3.49-3.89 3.49-4.68 0-.44-.2-1.48-.45-2.32l-.15-.51-.92.19c-2.22.46-4.99.34-8.18-.34-1.31-.28-1.31-.28-.75-.74.27-.21.62-.51.78-.65l.3-.26-.28-.59c-1.25-2.62.47-4.58 3.19-3.65.68.24.72.23.85-.26.12-.44.14-.42-1.19-1.12-1.11-.58-2.51-1.05-3.7-1.25-1-.17-.94-.2-.75.34.28.8.16 2.56-.26 3.88-.14.42-.19.41-.93-.22-2.26-1.92-5.08-2.59-7.56-1.8-1.48.46-3.5 2.77-4.65 5.28l-.36.8.68-.69c1.46-1.47 3.31-2.27 5.81-2.51.91-.08.92-.11-.3 1.15-1.66 1.71-2.62 3.71-2.93 6.07-.15 1.2 2.77 4.2 5.41 5.54.98.5 1.14.56 1.14.43ZM41.65 27c.17-.19.17-.23-.21-1.1-.43-1-.4-.97-.72-.71l-.22.19.35.82c.49 1.15.49 1.15.8.8Zm-9.02-1.16c.39-.09.71-.24.76-.33.18-.32.41-1.73.47-2.79l.06-1.07-.37.59c-.82 1.33-2.14 2.89-3.05 3.6l-.35.28.9-.05c.5-.03 1.21-.13 1.58-.23Zm15.02-.18c.19-.14.18-.17-.19-1.08-.51-1.27-.5-1.26-.75-1.04-.27.25-.27.22.16 1.32.37.96.45 1.04.78.8Zm-5.15-2.09c1.47-1.12 1.48-1.13.25-.61-.6.25-1.22.51-1.37.56-.3.11-.32.17-.22.67.08.36-.01.4 1.34-.62Zm4.14-.36c.14-.15.18-.41.2-1.14l.02-.95-.3.13c-.36.15-.42.47-.31 1.53.07.67.12.73.39.43Zm-34.6-2.72c.51-2 1.41-3.64 2.7-4.96l.73-.75-.61.07c-1.47.17-3.45.87-4.2 1.49-.25.21-.25.21-.15 1.06.18 1.43 1.05 4.27 1.25 4.07.02-.02.15-.46.28-.98Zm-9.62-.82c.03-.14 3.37-3.2 7.38-6.76 1.02-.9 2.86-2.54 4.08-3.65 2.04-1.83 2.61-2.28 2.51-1.97-.04.11-1.11 1.08-4.94 4.49-1.21 1.08-3.7 3.32-5.54 4.97-3.39 3.05-3.56 3.19-3.49 2.92Zm28.01-1.5c1.2-.78.59-3.32-1.15-4.77l-.41-.34.35.46c.69.9.86 2.05.41 2.67-.67.9-2.54.87-3.61-.05-.45-.38-.57-.37-1.01.09l-.23.26.52.55c1.06 1.13 1.75 1.36 3.81 1.33.81-.02 1.11-.06 1.32-.2Zm1.91-.13c.39-.08.71-.16.73-.18.07-.07-.66-1.64-1.11-2.4-.61-1.03-1.25-1.83-2.23-2.77-1.01-.98-1.2-1.09-1.33-.74-.16.42-.12.48.41.8 1.82 1.07 2.98 3.67 2.26 5.07l-.24.48.41-.06c.23-.04.72-.13 1.1-.2Zm-7.05-.64-.72-.72c-.02-.02-.31.18-.65.43l-.62.46 1.27.26c.71.13 1.31.25 1.35.26s-.24-.3-.63-.69Zm3.4-.86c1.22-.25 1.23-1.9.02-3.26-.53-.6-.59-.6-.99.07-.18.3-.7.93-1.14 1.4-.45.47-.77.89-.72.93s.21.18.36.31c.54.47 1.64.71 2.47.55Zm-3.22-1.03c.97-.83 2.5-2.72 2.37-2.92-.25-.41-2.24-.61-2.89-.29-.91.44-1.21 1.97-.63 3.23.33.7.32.7 1.15-.02Zm-3.22-2.63c.27-1.19.3-2.23.08-2.93l-.19-.6-1.64.01c-2.34.01-4.38.55-6.05 1.62-.49.31-.49.32-.15.24 2.37-.5 5.83.54 7.39 2.22.32.34.37.29.56-.56Zm20.29-2.45c3.24-1.99 8.16-5.11 8.33-5.27.38-.35-.54-2.25-1.61-3.32C47.8.38 46.9.1 43.56.1h-2.19l-.81.69c-.44.39-1.14 1.01-1.54 1.38l-.73.68-.89 4.3c-.49 2.36-.88 4.3-.87 4.31.06.06 2.77.63 3.01.63.22.01 1.04-.45 3-1.66Zm-6.24.83c0-.07 1.49-7.26 1.59-7.71.13-.51.11-.51-.32-.13-.4.36-.56.94-1.52 5.53-.4 1.94-.4 1.98-.19 2.19.14.15.44.22.44.12Zm-.29-6.94c.45-.3 1.94-1.55 3.82-3.22L40.9.15 39.78.12c-.61-.01-1.14.01-1.17.05-.03.05-.67.62-1.41 1.27-2.61 2.3-2.76 2.5-2.3 2.96.27.27.58.25 1.11-.08Z"/></svg>