<svg xmlns="http://www.w3.org/2000/svg" width="51" height="51" viewBox="0 0 51 51"><path fill="#fff" fill-rule="evenodd" stroke="#fff" stroke-width=".468" d="M19.42 46.27c-.54-.2-1.03-.67-1.31-1.26-.37-.79-.39-2.59-.03-3.36 1.04-2.25 4.02-1.86 4.47.59.07.34.1.37.37.34.28-.03.32-.09.49-.63.38-1.26 1.15-1.78 2.54-1.73l.8.03.03.34c.02.19.01.5-.03.68l-.06.34-.48-.07c-1.35-.18-1.81 2.31-.53 2.92.7.33.72.31 1.27-1.91.28-1.1.54-2.08.58-2.18.06-.16.18-.17.99-.15l.92.03.73 2.85c.39 1.57.68 2.89.64 2.93s-.43.07-.86.05l-.79-.03-.11-.45c-.11-.45-.11-.45-.57-.48-.47-.03-.47-.03-.54.33-.11.6-.19.63-1.56.58-1.76-.07-2.32-.4-2.88-1.66-.19-.42-.24-.47-.54-.47-.32 0-.34.02-.4.43-.23 1.51-1.74 2.44-3.14 1.94Zm1.78-.32c.6-.31 1.2-1.35 1.2-2.07 0-.15.08-.18.46-.18s.45-.03.4-.16c-.03-.09-.06-.29-.06-.45 0-.27-.03-.29-.38-.29h-.37l-.18-.67c-.57-2.16-3.06-2.4-3.99-.38-.54 1.17-.19 3.39.63 3.98.65.47 1.63.56 2.29.22Zm-19-2.81v-2.96l1.39.04c1.6.03 2.06.23 2.46 1.03.64 1.31-.08 2.62-1.59 2.88l-.66.11v1.86H2.2zm4.28.79c-.03-1.2-.03-2.53-.01-2.95l.06-.78h6.68l-.03.68-.03.67-.47.03-.48.03v4.5l-.82-.03-.83-.03-.03-2.27-.02-2.28h-.99c-1.23 0-1.31.03-1.31.46v.33l.68.03.67.03.03.34c.02.19.01.5-.03.68l-.06.33H8.2v.9h1.41l-.03.73-.03.72-1.51.03-1.51.03zm7.02-.79v-2.96l1.53.04c1.38.03 1.56.05 1.93.27 1.03.58 1.13 2.01.21 2.77l-.36.29.6 1.24c.32.68.59 1.26.59 1.28s-.42.02-.92.01l-.92-.03-.43-1-.42-1-.03 1-.03 1-.87.03-.88.03zm17.6.01v-2.96l.87.03.87.03.45 1.03.46 1.02.03-1.05.03-1.06.87.03.87.03.05 2.35c.03 1.29.08 2.19.12 2 .03-.2.3-1.27.58-2.38l.53-2.02h1.94l.46 1.73c.25.94.55 2.06.66 2.47l.19.75.01-2.48.01-2.49 1.38.04c1.54.03 1.98.19 2.53.88.37.45.63 1.48.55 2.14-.04.41.52-1.53.8-2.76l.07-.28h.98c.55 0 .99.02.99.04s.32 1.28.71 2.81c.39 1.52.68 2.83.65 2.91-.04.1-.26.14-.85.14-.89 0-.79.08-.97-.78-.04-.21-.09-.23-.52-.2-.46.03-.47.04-.57.43-.12.52-.17.55-1.02.55-.84 0-.86-.04-.58-1.1.19-.7.18-.97-.01-.45-.43 1.18-1.13 1.47-3.61 1.53-2.15.05-2.17.05-2.28-.59l-.07-.4-.46.03c-.47.03-.47.03-.58.48l-.11.45-1.65.03-1.65.02-.38-.82c-.21-.46-.43-.97-.49-1.13-.1-.26-.12-.15-.16.8l-.05 1.1-.82.03-.83.03zM3.22 45.8h.37l.03-.92.03-.93.65-.06c1.22-.1 1.65-.55 1.65-1.69 0-1.36-.49-1.73-2.37-1.78l-1.18-.04v5.54l.22-.06c.13-.03.4-.06.6-.06Zm6.18-.51v-.49H8v-1.3h1.3v-.89l-.62-.03-.63-.03-.03-.62-.03-.63h2.68l.07.46c.03.26.06 1.3.06 2.32v1.85l.38-.07c.2-.03.47-.06.6-.06H12v-4.5h1v-.9H6.7v5.45l1.35-.03 1.35-.03zm5.26.51H15v-1.02c0-1.68.17-1.69.84-.07l.43 1.04.66.03c.37.02.67.01.67-.01s-.22-.52-.5-1.1c-.58-1.24-.59-1.27-.21-1.49.66-.37.89-1.45.45-2.05-.43-.57-.76-.67-2.26-.71l-1.38-.04v5.55l.31-.07c.17-.03.47-.06.65-.06Zm20.15 0h.49v-5.4H34v1.24c0 .69-.04 1.27-.09 1.3-.04.03-.35-.53-.67-1.24l-.59-1.3H31.3v5.4h1.3v-1.31c0-1.54.08-1.6.57-.43.72 1.68.82 1.87.99 1.8.08-.03.38-.06.65-.06Zm-7.08-.48.08-.43.67.03.66.03.09.43.08.42h.65c.35 0 .64-.03.64-.07-.01-.05-.31-1.25-.68-2.68l-.67-2.6-.76-.03-.76-.03-.54 2.18-.55 2.18-.4.03c-.9.06-1.49-.65-1.49-1.78.01-1.14.51-1.76 1.36-1.68l.39.04v-.98l-.79.03c-1.41.07-2.12.86-2.2 2.43-.06 1.3.33 2.15 1.23 2.67.5.28.54.29 1.71.27l1.19-.03zm9.33.06.09-.43.66-.03.67-.03.06.46.07.45h1.37l-.64-2.52c-.35-1.39-.67-2.61-.7-2.7-.09-.31-1.59-.26-1.68.04-.19.69-1.26 4.99-1.26 5.08 0 .06.27.1.64.1h.63zm5.89.23c.82-.38 1.26-1.2 1.33-2.47.11-1.94-.61-2.64-2.75-2.72l-1.23-.04v2.24c0 1.24.03 2.46.06 2.72l.07.46h1.06c.82 0 1.15-.05 1.46-.19Zm2.71-.23.09-.43.66-.03c.72-.03.78.03.79.66 0 .21.04.22.65.22.79 0 .79.31 0-2.79-.36-1.4-.65-2.56-.65-2.58s-.35-.03-.78-.03h-.79l-.31 1.18c-.17.64-.45 1.78-.62 2.52s-.33 1.43-.36 1.52c-.05.16.02.18.59.18h.64zm-25.89-.46c-.66-.72-.45-3.3.28-3.48.71-.18 1.08.44 1.07 1.81 0 1.29-.26 1.85-.87 1.85-.18 0-.39-.08-.48-.18Zm.82-.21c.53-.53.37-2.88-.2-3.06-.51-.17-.74.37-.74 1.7 0 1.39.38 1.92.94 1.36Zm21.11-1.62v-1.72l.37.06c.66.11.87.44.92 1.42.05 1.24-.35 1.95-1.09 1.95-.19 0-.2-.08-.2-1.71Zm.85 1.07c.32-.43.3-2-.04-2.27-.55-.45-.61-.34-.61 1.26v1.44l.22-.08c.12-.04.32-.2.43-.35Zm-14.49-.14c-.09-.14.29-2.05.42-2.1.07-.02.12-.01.12.02 0 .02.06.35.14.73.08.37.17.85.2 1.06l.07.37h-.45c-.25 0-.47-.04-.5-.08Zm9.3-.01c-.07-.11.27-1.98.38-2.08.16-.16.56 1.27.56 2 0 .19-.84.25-.94.08Zm8.61.02c-.09-.16.36-2.13.48-2.13s.58 1.98.48 2.13c-.02.04-.24.07-.48.07s-.46-.03-.48-.07Zm-17.32-.6c-.07-.5-.25-.83-.25-.46 0 .11-.03.34-.06.51-.05.24-.02.31.12.35.11.03.21.05.23.06.02 0 0-.2-.04-.46Zm9.31-.23c-.11-.66-.2-.62-.3.13-.07.45-.06.47.16.47.24 0 .24-.01.14-.6Zm8.74.53c-.01-.05-.07-.33-.14-.63l-.13-.55-.07.49c-.04.27-.1.55-.13.62-.04.1.03.14.21.14.14 0 .26-.03.26-.07Zm-31.6-1.52v-.91h.38c.78 0 1.13.93.56 1.45-.15.14-.32.25-.38.25s-.21.03-.33.06c-.23.06-.23.05-.23-.85Zm-11.48-.03.03-.83.31-.03c.62-.06 1.03.58.78 1.23-.08.21-.56.45-.89.45h-.26zm.61.51c.41-.22.5-.68.2-1.01-.35-.39-.53-.24-.53.47 0 .7 0 .71.33.54Zm11.64-.11c.41-.39.2-1.08-.34-1.08-.22 0-.23.03-.23.65 0 .73.14.84.57.43Zm35.23-4.52c-.03-.03-1.13-.3-2.45-.6-3.15-.73-3.1-.72-3.41-1.08-.38-.46-.3-1.14.44-3.78.79-2.83 1.04-3.81.98-3.88-.03-.03-1.08.11-2.33.31-3.88.62-3.67.6-4.06.43-.41-.17-.62-.53-1.28-2.18-.22-.57-.44-1.06-.48-1.11-.04-.04-.83.82-1.77 1.9-3.24 3.79-3.8 4.25-4.33 3.57-.33-.42-.27-1.11.48-5.16 1-5.35 1.33-7.2 1.29-7.24-.02-.02-.66.31-1.41.72-1.89 1.03-2.13 1.11-2.71.86-.63-.28-.83-.6-2.78-4.41-1.54-3.02-1.72-3.33-1.81-3.11-.06.14-.83 1.74-1.72 3.55-2.27 4.62-2.19 4.56-4.61 3.29-2.27-1.18-2.42-1.25-2.3-1.06s1.99 10.17 2.11 11.28c.09.73-.11 1.29-.5 1.44-.52.2-.75-.01-3.89-3.64l-1.89-2.18-.53 1.31c-1.02 2.55-.76 2.45-4.9 1.77-1.48-.25-2.7-.44-2.71-.42-.02.02.33 1.38.78 3.02 1.38 5.04 1.5 4.78-2.59 5.64-1.3.28-2.45.53-2.54.56q-.18.045-.18-.09c0-.1.17-.19.47-.25.27-.06 1.38-.29 2.48-.52 3.4-.71 3.37-.67 2.5-3.85-.96-3.5-1.25-4.69-1.17-4.77.05-.05 1.06.09 2.38.32 2.64.47 4.05.6 4.3.4.17-.15.59-.94.79-1.49.33-.95.78-1.91.89-1.91.06 0 .93.93 1.91 2.08 2.2 2.54 3.43 3.82 3.67 3.82.56 0 .6-.86.13-3.35-.57-3.08-1.45-7.75-1.61-8.52-.26-1.3-.32-1.29 1.9-.14 3 1.56 2.62 1.84 5.36-3.83.8-1.65 1.51-3.01 1.57-3.03s.89 1.5 1.9 3.49c2.06 4.08 2.39 4.55 3.13 4.45.25-.03 1.07-.41 2.08-.95.92-.5 1.71-.87 1.76-.82.1.1-.23 2-1.84 10.59-.23 1.21-.24 1.51-.09 1.85.35.75.75.4 4.44-3.89.75-.88 1.45-1.61 1.54-1.63.14-.02.3.27.76 1.43.94 2.35.64 2.25 4.62 1.6 3.14-.51 3.13-.51 3.13-.27 0 .1-.38 1.57-.85 3.27-.94 3.44-1.01 3.78-.86 4.18.15.39.42.48 3.28 1.14 2.52.57 2.68.62 2.61.83-.02.06-.06.09-.08.06Z"/></svg>