<svg xmlns="http://www.w3.org/2000/svg" width="51" height="51" viewBox="0 0 51 51"><path fill="#fff" fill-rule="evenodd" stroke="#fff" stroke-width=".35" d="M21.9 51.13c-6.08-1.05-10.9-3.54-14.96-7.75C2.99 39.29.17 33.11.05 28.25c-.02-.71-.01-1.14.01-.95s.11.91.2 1.6C1.67 40.42 10.61 49.28 22.58 51c.45.07.82.14.82.16 0 .05-1.17.03-1.5-.03Zm5.65-.04c5.53-.66 9.01-1.93 12.85-4.67 5.88-4.2 9.11-9.62 10.55-17.7l.25-1.37-.05.9c-.23 4.3-2.7 10.23-5.83 13.95-4.39 5.23-11.89 9.06-17.62 8.99l-.85-.02zm-2.45-.83c0-1.13.09-1.36.51-1.36H26v1.8h-.9zm-2.53.27c-.07-.12.17-1.74.26-1.73h.79l-.06.53c-.17 1.34-.14 1.27-.56 1.27-.21 0-.41-.03-.43-.07Zm5.09-.79c-.04-.47-.06-.87-.04-.89.02-.01.2-.05.4-.09.44-.08.46-.04.5 1.09l.03.7-.41.03-.41.03zm-1.86.06c0-.63-.02-.7-.2-.7s-.2.07-.2.7.02.7.2.7.2-.07.2-.7Zm-2.55.13c.03-.27.07-.58.09-.7.03-.18-.02-.23-.19-.23-.22 0-.35.45-.35 1.23 0 .44.39.18.45-.3Zm5.11.16c-.03-.17-.06-.49-.06-.7 0-.35-.02-.39-.26-.39s-.26.03-.2.31c.03.17.06.49.06.7 0 .35.02.39.26.39s.26-.03.2-.31Zm-8.03.09c-.2-.05-.33-.15-.33-.24 0-.14.24-1.2.35-1.51.03-.08.14-.08.45-.01.23.06.39.16.37.22s-.12.42-.22.81c-.22.85-.22.84-.62.73Zm10.02-.08c-.1-.33-.33-1.55-.3-1.58.02-.02.19-.07.39-.12.4-.09.32-.21.67 1.14.14.51.07.63-.35.68-.26.03-.37 0-.41-.12Zm-9.66-.48c.25-.9.25-1.02.03-1.02-.2 0-.59 1.11-.46 1.32.12.2.34.05.43-.3Zm10.23.33c.13-.14-.26-1.35-.44-1.35-.21 0-.22.08-.07.83.11.53.3.73.51.52Zm-13.14-.47c-.35-.12-.35-.28-.02-1.17l.26-.69.31.1c.49.16.49.19.18 1.03-.31.86-.33.88-.73.73Zm14.88-.68c-.32-1.01-.33-.94.13-1.06l.4-.11.26.85c.27.86.25 1.01-.12 1.02-.06 0-.18.03-.26.06-.12.04-.22-.13-.41-.76Zm-14.35-.14c.19-.61.18-.76-.06-.76-.11 0-.55 1.05-.55 1.33 0 .37.44-.05.61-.57Zm15.01.59c.17-.07-.18-1.35-.36-1.35-.29.01-.32.16-.13.78s.23.67.49.57Zm-17.99-.7c-.18-.08-.33-.16-.33-.18 0-.22.73-1.57.84-1.57.25 0 .67.23.63.34-.22.55-.71 1.56-.76 1.56-.03-.01-.21-.07-.38-.15Zm19.78-.48c-.46-1.02-.46-1.01-.06-1.19l.36-.16.23.47c.13.25.31.63.39.84l.16.37-.36.15c-.19.08-.37.15-.4.15-.02 0-.17-.28-.32-.63Zm-19.17-.29c.25-.58.24-.77-.04-.78-.09 0-.6 1.22-.54 1.31.13.22.34.04.58-.53Zm19.91.52c.1-.17-.53-1.3-.7-1.24-.2.08-.19.14.09.79.23.51.46.69.61.45Zm-22.87-.96c-.36-.19-.36-.23.13-1.05.47-.78.43-.76.87-.49.37.23.37.2-.24 1.18-.37.57-.37.58-.76.36Zm24.33-.59c-.23-.41-.4-.79-.37-.84.07-.1.65-.35.7-.3.1.12.86 1.42.86 1.48 0 .08-.54.41-.67.41-.05 0-.28-.34-.52-.75Zm-23.61-.11c.3-.54.3-.73-.02-.74-.21 0-.76 1.14-.6 1.26.22.16.25.14.62-.52Zm24.45.46c.09-.14-.53-1.2-.7-1.2-.27 0-.26.21.05.75.3.52.51.67.65.45Zm-27.32-1.21c-.41-.26-.42-.2.19-1.01.6-.79.51-.74.88-.46.39.28.38.29-.17 1.04-.53.73-.48.7-.9.43Zm28.64-.43c-.55-.75-.56-.76-.17-1.04l.29-.22.51.66c.59.79.58.77.21 1.03-.37.27-.3.31-.84-.43Zm-27.85-.24c.36-.48.37-.52.19-.62-.16-.08-.25-.02-.6.39-.43.51-.49.66-.28.74.21.09.3.02.69-.51Zm28.52.52c.23-.09.2-.18-.2-.74-.31-.43-.38-.48-.55-.39-.18.09-.17.13.18.64.21.3.39.54.4.55.01 0 .08-.03.17-.06Zm1.28-1.86c-.61-.74-.61-.71-.21-.99l.31-.22.54.59c.62.69.64.76.25 1.03-.37.27-.29.31-.89-.41Zm-32.71.28-.23-.24.53-.59c.63-.7.62-.69.93-.46.37.26.32.43-.27 1.01-.6.59-.65.61-.96.28Zm1.19-.92c0-.32-.26-.24-.67.2-.38.39-.43.49-.32.62.13.16.99-.55.99-.82Zm32.38.84c.14-.19-.68-1.11-.91-1.02-.25.09-.21.2.24.69s.51.52.67.33Zm-15.56-.8c-.22-.22-.13-.53.26-.91l.38-.37h1.9l.42.43c.47.48.5.57.24.8-.23.21-3 .25-3.2.05Zm5.7 0c-.21-.21-.13-.43.31-.86l.43-.42h1.8l.42.43c.43.44.51.64.3.85-.17.17-3.09.17-3.26 0Zm-2.72-.25c0-.03-.11-.21-.26-.4l-.25-.33h-.89c-.86 0-.89.01-1.14.31-.4.47-.36.49 1.14.49.77 0 1.4-.03 1.4-.07Zm5.74 0c.03-.04-.08-.22-.26-.4-.64-.66-2.48-.35-2.48.41 0 .08 2.65.07 2.74-.01Zm-17.62-.24c-.26-.1-.3-.39-.04-.39.16-.01.16-.01 0-.14-.21-.15-.23-.37-.06-.54.15-.15.5-.16.65-.01.08.08.13.08.17 0 .14-.22.36-.11.36.17 0 .19.03.23.09.13.06-.09.19-.12.37-.08.15.03.37 0 .5-.05a.44.44 0 0 1 .43.02c.17.09.26.09.37-.01.26-.22.6.03.61.45.01.46-.26.65-.6.43-.19-.12-.24-.12-.35-.01-.15.16-.48.19-.57.05-.03-.05-.21-.07-.4-.04-.25.04-.35.02-.35-.08 0-.08-.06-.06-.15.07-.14.17-.17.18-.27.02-.1-.14-.15-.14-.32-.03-.14.09-.29.1-.44.04Zm11.92-.43-.44-.43v-1.87l.37-.38.37-.38-.37-.38-.37-.38v-1.89l-.93.03-.93.03-.47-.5c-.82-.88-.65-1.01 1.33-1.01 1.57 0 1.88.09 1.77.5-.03.12 0 .16.12.13.55-.14.95 2.73.46 3.27-.15.17-.15.2 0 .44.25.38.18 2.75-.09 3.05-.26.29-.32.27-.82-.23Zm2.12.28c-.2-.2-.24-3.02-.04-3.22.09-.09.09-.15 0-.24-.41-.41-.09-3.38.36-3.38.07 0 .12-.09.12-.2 0-.33.33-.4 1.79-.4 1.85 0 2.1.21 1.32 1.07l-.39.43H33.1v1.84l-.37.38c-.31.31-.35.4-.24.5.11.11.12.1.06 0-.05-.09.05-.26.26-.48.67-.7 3.04-.33 2.75.43-.06.16-.06.16.12 0 .56-.51.82.04.82 1.69 0 1.79-.21 2.09-.99 1.38-.53-.47-.63-.82-.53-1.75l.08-.74-.98.03-.98.03v1.93l-.42.43c-.46.47-.59.51-.82.27Zm-24.91-.2c-.35-.37-.33-.43.34-.96.68-.55.7-.56 1-.24.28.29.27.3-.49.96l-.6.52zm36.39-.25c-.78-.71-.77-.7-.47-1.01s.3-.31 1.07.38l.58.52-.3.33-.29.33zm-35.59-.24c.43-.39.48-.47.35-.59-.21-.21-1.23.61-1.08.87.13.23.16.22.73-.28Zm22.65-.93c0-1.59-.02-1.64-.47-1.2-.47.45-.5 1.68-.05 2.24.47.59.52.49.52-1.04Zm2.14 1.07c.58-.69.23-2.49-.48-2.49-.03 0-.06.63-.06 1.4 0 1.55.06 1.67.54 1.09ZM36.1 41c0-1.54 0-1.54-.47-1.08-.47.45-.5 1.6-.05 2.13.48.58.52.5.52-1.05Zm8.08 1.11c-.16-.36-1-.93-1.15-.78-.09.09-.15.18-.12.2.02.01.26.22.52.45.43.39.9.47.75.13Zm-38.87-1.7c-.28-.4-.28-.42.27-.82.81-.61.88-.63 1.11-.33.29.36.28.37-.36.87-.81.61-.79.61-1.02.28Zm39.54-.27c-.72-.54-.7-.51-.4-.88l.24-.3.7.49c.77.53.78.54.55.9-.23.35-.4.31-1.09-.21Zm-38.69-.16c.48-.36.53-.43.41-.56-.13-.12-.21-.1-.63.19-.26.19-.52.37-.58.41-.09.06.09.38.21.38.02 0 .29-.19.59-.42Zm39.58.26c.03-.09.06-.17.06-.19 0-.07-.98-.75-1.08-.75-.31 0-.17.33.31.7.59.45.62.46.71.24Zm-28.82-.3c-.24-.17-.3-.54-.08-.54.07 0 .19.07.26.15.18.21.4.19.4-.05 0-.13-.07-.2-.2-.2s-.2-.07-.2-.19c0-.1.09-.21.2-.24.21-.05.28-.37.08-.37-.06 0-.2.08-.3.17-.24.22-.49.03-.32-.25.37-.58 1.2-.33 1.17.36-.02.55.07.53.51-.14.51-.77.81-.75.81.06 0 .51.02.55.3.65.17.05.34.15.38.22.1.17.43.17.49.01.1-.26-.04-.38-.43-.38h-.4l.03-.52.03-.53 1.28-.03c1.22-.02 1.27-.02 1.27.18 0 .32-.78 1.8-.95 1.8-.22 0-.18-.24.15-.89l.29-.59-.22-.06c-.43-.11-1.49-.07-1.45.06.03.07.17.14.31.16.15.02.34.13.42.25.51.72-.45 1.47-1.06.82-.3-.31-.47-.32-.51-.02-.02.12-.1.22-.18.22s-.16-.1-.18-.22c-.05-.34-.67-.32-.94.02-.23.29-.62.33-.96.09Zm10.2-.1c-.44-.31-.47-.53-.11-.9l.33-.34h1.94l.32.36.32.36-.33.34c-.39.4-1.99.52-2.47.18Zm2.21-.32c.15-.16.15-.2.01-.4-.3-.43-2.24-.27-2.24.19 0 .42 1.88.59 2.23.21Zm5.76.02.22-.16-.22-.24c-.54-.58-2.57-.17-2.08.42.17.21 1.77.2 2.08-.02Zm-4.69-1.92c0-1.59-.02-1.64-.47-1.2-.5.48-.5 1.74-.01 2.25.47.48.48.46.48-1.05Zm2.07 1.06c.48-.47.5-1.78.04-2.22-.45-.43-.51-.3-.51 1.2 0 1.48 0 1.48.47 1.02Zm-28.64-.53c-.2-.41-.2-.4.68-.89l.67-.36.2.32c.25.39.27.37-.56.87-.82.5-.78.49-.99.06Zm42.57-.01c-.3-.19-.61-.38-.69-.43-.17-.1.12-.71.33-.71.15 0 1.46.72 1.46.8 0 .11-.4.7-.47.69-.05 0-.33-.16-.63-.35Zm-41.63-.29c.56-.32.57-.33.44-.54-.09-.14-.2-.1-.93.36-.26.15-.36.28-.31.38.07.2.15.18.8-.2Zm42.4.14c.04-.21-1.08-.84-1.18-.67-.13.2-.12.21.44.55.54.34.7.36.74.12Zm-28.6-1.36c-.13-.13-.07-.43.18-.79.14-.2.25-.45.25-.55 0-.17.08-.19.63-.19.93 0 1.13.31.55.87-.55.52-1.41.87-1.61.66Zm.78-.44c.89-.47 1.05-.79.4-.79-.27 0-.45.05-.45.12 0 .06-.11.26-.25.44-.39.51-.33.56.3.23Zm10.14-.18c.4-.51.39-.51-1.21-.51-1.53 0-1.59.03-1.06.57.31.32.34.33 1.14.33h.82zm5.7.04c.47-.54.44-.55-1.08-.55-1.56 0-1.65.04-1.2.54.48.55 1.8.55 2.28.01Zm-32.54-.2c-.2-.45-.22-.41.33-.66 1.2-.54 1.1-.52 1.27-.2.25.5.2.56-.95 1.01l-.51.2zm44.88.02c-.77-.33-.82-.4-.58-.87.17-.33.13-.33 1.17.13.32.14.58.28.58.3 0 .14-.31.77-.38.76-.04-.01-.4-.15-.79-.32ZM3.68 35.6c.55-.24.57-.26.43-.5-.09-.13-.92.14-1.25.41-.13.11.02.42.17.36.06-.03.36-.15.65-.27Zm44.66.14c.03-.09.06-.17.06-.19 0-.05-.78-.4-1.08-.49-.51-.17-.29.29.27.56.68.32.67.32.75.12ZM1.7 33.34c-.14-.42-.21-.36.68-.68.9-.32.87-.32 1.02.04.18.43.1.53-.67.78-.89.28-.89.28-1.03-.14Zm46.63.12c-.35-.12-.65-.25-.68-.28-.1-.09.26-.8.38-.76.07.03.42.15.8.28.68.24.73.3.61.78-.08.28-.3.27-1.11-.02ZM3.3 33c-.01-.3-.2-.34-.72-.16-.63.22-.73.3-.65.5.06.14 1.37-.18 1.37-.34Zm45.93.31c.05-.21-1.02-.69-1.23-.56-.23.14-.07.31.48.52.72.27.69.27.75.04Zm-31.27-.46c-.37-.34-.34-.43.37-1.13l.63-.62h2.7l.62.63c.7.71.72.78.36 1.12-.27.25-.28.25-2.34.25s-2.07 0-2.34-.25Zm9.71-.03c-.35-.37-.36-.34.35-1.08l.61-.64h2.82l.57.64c.66.73.67.78.33 1.11-.24.25-.25.25-2.33.25h-2.08zm8.59.07c-.37-.29-.33-.46.3-1.16l.56-.63h2.85l.61.64c.71.74.71.73.34 1.09l-.28.27h-2.06c-1.93 0-2.07-.01-2.32-.21Zm-13.83-.21c.15-.12.12-.19-.34-.7l-.51-.58h-2.52l-.53.52c-.49.49-.52.53-.36.7.2.23 3.96.28 4.26.06Zm9.72-.02c.18-.13.16-.17-.35-.7l-.53-.56h-1.21c-1.35 0-1.26-.03-1.86.64-.42.46-.44.49-.25.62.27.2 3.93.2 4.2 0Zm8.55-.01c.1-.12.04-.24-.35-.7l-.47-.55h-2.54l-.53.54c-.82.83-.76.86 1.74.86 1.66 0 2.05-.03 2.15-.15ZM14 31.54l-.7-.67v-2.51l.61-.62.62-.62-.62-.57-.61-.57v-2.63l.61-.68c.63-.7.85-.79 1.12-.49.21.23.26 4.59.05 4.8-.08.08-.08.15.01.25.24.3.1 4.67-.16 4.84-.22.15-.26.12-.93-.53Zm3.02.43c-.29-.31-.35-4.44-.07-4.67.14-.12.14-.15 0-.3-.12-.14-.15-.53-.15-2.31v-2.15l.28-.27c.39-.37.44-.35 1.12.35l.6.63v2.71l-.6.59-.6.59.6.61.6.61v2.6l-.63.62c-.69.68-.83.73-1.15.39Zm5.35-.41-.57-.65v-2.57l.59-.58.6-.59-.6-.65-.59-.65v-2.63l.63-.62c.71-.7.79-.73 1.12-.34.34.38.39 4.23.06 4.63-.17.22-.17.24-.02.35.29.21.3 4.3.01 4.67-.34.43-.59.35-1.23-.37Zm4.45.41c-.29-.31-.35-4.44-.07-4.67.14-.12.14-.15 0-.3-.29-.32-.22-4.5.08-4.78.35-.33.48-.28 1.1.42l.57.65v2.65l-.57.58-.57.58.57.58.57.58v2.65l-.57.65c-.62.7-.78.76-1.11.41Zm5.3-.41-.62-.64v-2.56l.62-.63.62-.63-.62-.63-.62-.63v-2.56l.62-.64c.68-.71.87-.77 1.17-.35.27.37.32 4.31.07 4.66-.11.16-.11.21 0 .33.28.27.2 4.43-.09 4.7-.35.33-.48.28-1.15-.42Zm3.2.41c-.3-.32-.34-4.37-.05-4.7.17-.18.17-.19 0-.28-.31-.18-.25-4.48.06-4.77.35-.33.5-.28 1.16.46l.61.67v2.61l-.59.58-.58.57.58.56.59.56v2.69l-.62.64c-.67.7-.83.76-1.16.41Zm5.29-.42L40 30.9v-2.68l.58-.56.57-.55-.57-.58-.58-.59v-2.66l.68-.64c.76-.72.83-.74 1.11-.38.29.36.33 4.41.05 4.69-.15.15-.15.17 0 .34.3.33.23 4.41-.07 4.69-.35.33-.48.28-1.16-.43Zm-22.11-1.9v-1.21l-.54-.53c-.83-.82-.86-.75-.86 1.67 0 2.49.06 2.61.87 1.8l.53-.52zm4.9-.06c0-2.41-.01-2.43-.76-1.68l-.54.53v2.4l.52.53c.76.77.78.73.78-1.78Zm9.8-.06c0-2.44-.02-2.48-.87-1.6l-.55.57.04 1.13.03 1.13.49.57c.79.92.86.77.86-1.8Zm3.6.07v-1.16l-.54-.53c-.84-.83-.86-.8-.86 1.59 0 2.58.02 2.62.81 1.84l.59-.58zm4.9.11c0-2.59 0-2.58-.86-1.84l-.54.47v2.4l.57.58c.8.81.83.75.83-1.61Zm-26.8-.11c0-2.42-.01-2.44-.76-1.69l-.54.53v2.2l.57.58c.31.31.6.55.65.52.04-.03.08-.99.08-2.14Zm12.82 1.73.48-.47v-2.47l-.49-.51c-.78-.83-.81-.77-.81 1.7 0 2.54.01 2.55.82 1.75Zm-26.66-.14c-.23-.74-.23-.74.78-1 .78-.2.84-.18.92.32l.06.34-.74.19c-.4.1-.79.21-.85.23a.126.126 0 0 1-.17-.08Zm48.04-.14c-.41-.12-.75-.26-.75-.31.02-.39.18-.74.33-.7.1.03.47.13.85.22.69.17.71.19.61.73-.07.36-.06.36-1.04.06Zm-47.12-.21c.68-.2.64-.17.56-.38-.05-.13-.13-.16-.33-.11-.92.22-1.01.26-1.01.45 0 .24.06.24.78.04Zm47.99.01c.08-.22.03-.24-.64-.4-.75-.18-.73-.18-.73.04 0 .15.13.22.58.34.74.2.72.19.79.02Zm-25.32-1.4c-.3-.3-.32-.64-.04-.99.27-.35.77-.36 1.09-.02.67.72-.36 1.71-1.05 1.01Zm.9-.35c.1-.17-.05-.49-.26-.55-.26-.08-.49.11-.49.41 0 .41.53.5.75.14Zm24.03-.55c-.92-.13-.91-.13-.82-.6l.07-.37.66.06c1.11.12 1.14.13 1.07.54-.07.49-.11.5-.98.37ZM.62 28.19l.03-.44.79-.09c.86-.1.96-.05.96.46 0 .35 0 .35-.98.43l-.83.08zm1.52 0c.23-.21-.03-.36-.56-.32-.71.06-.78.09-.78.33 0 .2 1.11.2 1.34-.01Zm48.19.01c.04-.16-.01-.2-.29-.25-.19-.03-.49-.07-.68-.1-.28-.05-.34-.02-.39.15-.06.23.13.29 1.14.39.09 0 .19-.08.22-.19Zm-13.68-.6-.49-.5.49-.5.49-.5h2.72l.53.54.53.53-.49.46-.48.47h-2.81zm3.45-.14.38-.34-.37-.36-.37-.36h-2.41l-.35.33-.35.32.31.37.31.36 1.24.01 1.24.01zm-25.2-2.85c0-1.2-.03-2.21-.07-2.25-.04-.03-.33.19-.65.51l-.58.57v2.39l.58.52c.31.29.6.51.65.48.04-.02.07-1.02.07-2.22Zm3.06 1.78.54-.52v-2.51l-.52-.53c-.49-.49-.53-.52-.7-.36-.34.3-.25 4.43.1 4.43.02 0 .28-.23.58-.51Zm5.44-1.75c0-2.54-.02-2.59-.81-1.76l-.49.51v2.36l.55.58c.75.8.75.79.75-1.69Zm4.8-.04v-1.26l-.53-.52c-.76-.75-.77-.71-.77 1.84 0 2.46 0 2.46.78 1.71l.52-.51zm8.18 1.66.42-.46v-2.36l-.54-.53c-.85-.84-.86-.81-.86 1.67 0 2.6.05 2.69.98 1.68Zm5.32-1.56c0-2.62-.01-2.63-.87-1.78l-.53.52v2.31l.55.59c.82.87.85.81.85-1.64Zm-8.52-.01c.03-2.55 0-2.61-.84-1.78l-.54.53v2.27l.52.55c.81.86.83.83.86-1.57Zm10.27 1.7c-.09-.13.42-1.54.6-1.69.3-.25.52-.01.82.83l.28.82.03-.82c.04-1.05.5-1.28.82-.41l.12.33.1-.35c.14-.51.42-.64.72-.34.26.25.23 1.61-.04 1.69-.24.08-.4-.01-.4-.22 0-.11-.05-.09-.2.08l-.2.24-.19-.22c-.17-.21-.19-.21-.24-.04-.06.23-.95.28-1.04.05-.07-.19-.59-.18-.67.01-.06.17-.42.2-.51.04ZM.42 25.58l.03-.43h1.7l.03.43.03.42H.39zm48.5 0 .03-.43.88-.03.87-.03V26h-1.81zm-24.23.13c-.29-.23-.31-.81-.04-1.11.23-.26.85-.27 1.07-.02.65.74-.27 1.75-1.03 1.13ZM2 25.6c0-.18-.07-.2-.7-.2s-.7.02-.7.2.07.2.7.2.7-.02.7-.2Zm48.5 0c0-.18-.07-.2-.7-.2s-.7.02-.7.2.07.2.7.2.7-.02.7-.2Zm-25-.25c.15-.18.1-.45-.12-.59-.33-.2-.69.2-.54.6.07.18.5.18.66-.01ZM.01 23.2C-.03 19.38 2.3 13.44 5.4 9.49 9.64 4.07 17.52-.06 23.43.01l1.12.02-.95.07C11.25 1.06 1.6 10.46.16 22.95l-.14 1.2zm1.32.27-.73-.1v-.38c0-.5.06-.52 1-.38.78.11.8.12.8.39 0 .37-.09.6-.24.59-.06-.01-.44-.06-.83-.12Zm47.44-.29c-.06-.44-.05-.45.86-.57.93-.13.97-.11.97.38v.38l-.52.07c-1.1.13-1.25.1-1.31-.26Zm2.34.32c0-.03-.14-.85-.31-1.84C48.79 9.56 39.2.8 27.2.1c-1.34-.08-1.34-.08.5-.05 7.51.11 15.73 5.11 19.89 12.1 1.86 3.12 2.83 5.82 3.41 9.46.16 1.03.24 2.31.11 1.89Zm-48.93-.41c.02-.14-.09-.18-.57-.24-.34-.04-.64-.08-.68-.08-.05-.01-.09.08-.11.2-.05.33 1.3.45 1.36.12Zm47.98.11c.17 0 .24-.06.24-.2 0-.22-.29-.26-1.02-.14-.63.11-.54.49.08.4.26-.03.57-.06.7-.06Zm-31.77-.67c-.76-.73-.8-.83-.44-1.18.38-.39 4.32-.39 4.7 0 .34.33.32.39-.26 1.04-.72.78-.77.8-2.12.81h-1.19zm10.41.6c-.22-.08-1.4-1.25-1.4-1.39 0-.07.14-.24.31-.38l.31-.26h4.04l.28.29c.36.38.31.54-.44 1.25l-.59.56-1.18-.01c-.65 0-1.25-.03-1.33-.06Zm8.5 0c-.31-.11-1.3-1.17-1.3-1.39 0-.55.34-.64 2.54-.64 2.15 0 2.31.03 2.57.52.1.18.03.28-.57.89l-.68.69-1.21-.01c-.66 0-1.27-.03-1.35-.06Zm-5.51-.83c.71-.81.72-.8-1.74-.8s-2.45 0-1.81.75c.52.6.64.64 2.29.61l.78-.01zm8.5.06c.85-.86.82-.87-1.75-.84-1.34.02-2.19.07-2.21.13-.01.06.21.36.5.68l.53.57h2.4zm-18.2-.1c.75-.76.74-.76-1.79-.76-2.52 0-2.52 0-1.77.78l.51.52h2.52zM1.55 20.93c-.73-.17-.69-.13-.55-.62.08-.32.15-.41.28-.37.09.03.46.12.81.2.76.18.75.17.67.61-.08.41-.2.43-1.21.18Zm46.91.05c-.21-.66-.22-.64.71-.87.93-.24 1.03-.21 1.03.27a2 2 0 0 0 .02.3c.05.19-1.71.48-1.76.3Zm-45.92-.24c.08-.22.07-.23-.55-.4-.71-.18-.79-.18-.79.06 0 .13.09.22.28.26.15.03.41.1.57.14.43.12.42.12.49-.06Zm46.89-.04c.38-.07.57-.16.57-.26 0-.39-1.33-.15-1.38.25-.03.17 0 .22.1.19.07-.03.39-.11.71-.18ZM2.27 18.47l-.68-.21.06-.36c.04-.19.1-.39.15-.44.09-.09 1.7.42 1.7.54 0 .67-.26.77-1.23.47Zm45.49.01c-.13-.51-.09-.56.75-.83.44-.14.82-.25.84-.25.09 0 .26.73.19.8-.12.1-1.34.5-1.55.5-.09 0-.19-.1-.23-.22Zm-44.58-.2c-.03-.2-.73-.54-1.15-.57s-.14.36.42.56c.76.27.77.27.73.01Zm45.6-.02c.45-.15.79-.57.45-.56-.15 0-1.22.36-1.29.43-.11.1.05.4.19.34.06-.02.36-.12.65-.21Zm-33.89-.3a.5.5 0 0 1-.09-.28c0-.11-.07-.18-.2-.18s-.22-.09-.26-.25c-.11-.43-.33-.3-.36.23l-.03.47-.62.03-.63.03V12.7l.23-.05c.7-.18 2.51 0 2.57.25.04.15.15.26.3.3.25.06.25.08.25 1.1v1.05l-.27.03c-.21.03-.27.09-.3.3-.02.19-.1.28-.25.3-.31.05-.3.32.01.32.18 0 .26.06.28.22.02.14.12.24.28.28.23.05.25.11.28.62l.03.56-.56.04c-.31.01-.6-.01-.66-.06Zm20.68.06-1.28-.03.03-.57.03-.57.53-.03.52-.03V13.8h-1.11l.03-.57.03-.58h2.2l.03 2.07.02 2.07.53.03.52.03v1.1l-.4.05c-.22.03-.98.04-1.68.02Zm-26.5-.08c-.1-.1-.09-5.06.01-5.22.07-.09.47-.12 1.68-.1l1.59.03.03.58.03.57H10.3v.9h.75c.83 0 .9.07.83.81l-.03.34-.77.03-.77.03-.03 1.02-.03 1.02-.55.03c-.31.02-.59 0-.63-.04Zm7.37-.18c-.16-.67-.03-.91.54-.94l.53-.03-.03-1.47-.03-1.47-.53-.03-.53-.03.03-.57.03-.57 1.62-.03 1.62-.02.06.23c.17.68.04.92-.52.95l-.53.03v2.98l.48.03.47.03.03.58.03.57h-1.6c-1.6 0-1.61 0-1.67-.24Zm6.88-.33.03-.58.48-.03.47-.03V13.8h-1.01l.03-.57.03-.58h2.2l.03 2.08.02 2.07h.44c.5 0 .67.14.65.56-.03.67.06.64-1.75.64h-1.65zm4.18.32c0-.2-.05-.25-.25-.25H27l.02-2.17c.03-2.18.03-2.18.26-2.21.16-.03.22-.1.22-.28v-.25l1.12.03c1.08.03 1.13.04 1.16.25.02.14.11.23.25.25.22.03.22.04.22 2.18v2.15l-.22.03c-.17.03-.23.1-.23.28V18h-2.3zm11.07.19c-.04-.04-.07-.16-.07-.26 0-.11-.07-.18-.19-.18-.24 0-.31-.19-.31-.86 0-.61.13-.94.35-.94.09 0 .16-.1.17-.25 0-.14.01-.3.02-.37s-.1-.15-.24-.18c-.39-.09-.44-1.66-.06-1.76a.34.34 0 0 0 .28-.27c.05-.33 2.17-.4 2.25-.07.03.11.19.28.35.36.44.23.4 1.67-.05 1.72-.24.03-.28.07-.23.25.03.12.06.3.06.39 0 .1.09.18.22.2.35.05.35 1.71.01 1.76-.14.02-.23.11-.25.25-.03.22-2.11.41-2.31.21Zm-9.49-1.56c-.05-.76-.87-.67-.88.1 0 .31.01.32.46.32h.45zm11 0c-.03-.42-.04-.43-.38-.43s-.35.01-.38.43l-.03.42h.82zm-36.85-.27c-.78-.33-.88-.56-.47-1.1.07-.09 1.64.64 1.64.75 0 .64-.3.73-1.17.35Zm43.67.03c-.17-.44-.12-.5.61-.83.9-.39.95-.39 1.09.05.14.43.14.44-.73.78-.83.32-.85.32-.97 0Zm-42.8-.13c.09-.18.05-.22-.37-.41-.75-.33-.93-.35-.93-.13 0 .18.22.31 1.17.72.01.01.07-.08.13-.18Zm43.78-.11c.5-.22.75-.6.38-.6-.4 0-1.24.49-1.19.7.03.12.11.19.17.16.06-.02.35-.14.64-.26Zm-17.24-.14c-.03-.07-.04-.33-.02-.57l.03-.44h3.3l.03.58.03.57h-1.66c-1.32 0-1.67-.03-1.71-.14Zm-15.82-1.47c.04-.49.04-.49-.44-.49H14v.9h.39c.38 0 .39-.01.43-.41Zm14.28-.04v-.45h-.39c-.47 0-.55.1-.47.56.07.32.09.34.46.34h.4zm11 0v-.45h-.8v.9h.8zm-35.6-.32c-.98-.57-.92-.5-.75-.83.23-.44.3-.44 1.05-.03.73.4.81.53.54.91-.19.28-.29.27-.84-.05Zm41.24-.04c-.08-.17-.12-.35-.07-.39.13-.13 1.34-.8 1.44-.8s.45.67.38.73c-.14.13-1.38.77-1.47.77-.06 0-.19-.14-.28-.31ZM5.3 13.7c0-.23-1.2-.78-1.3-.6-.08.16-.06.22.12.33.89.54.93.56 1.05.45.07-.06.13-.14.13-.18Zm41.57-.17c.41-.23.5-.53.17-.53-.13 0-1.14.58-1.14.65 0 .39.11.37.97-.12ZM5.73 11.7c-.77-.54-.77-.55-.4-1.02.19-.24.19-.25.92.33.74.58.72.55.42.92l-.22.28zm38.81.38c-.04-.07-.14-.23-.21-.34-.13-.2-.09-.25.58-.74l.71-.53.24.29c.31.39.32.38-.28.82-.76.56-.95.65-1.04.5Zm-37.96-.39c.04-.24-.96-.93-1.14-.78-.2.17-.16.24.41.63.52.36.68.39.73.15Zm38.77-.22c.22-.16.4-.33.39-.38-.03-.25-.05-.29-.15-.29-.06 0-.32.17-.57.37-.26.21-.49.38-.51.4-.02.01.02.09.09.18.13.16.15.15.75-.28ZM7.28 9.72c-.64-.53-.69-.68-.33-1.02l.24-.23.66.58c.74.65.73.64.42.93s-.33.29-.99-.26Zm35.52.23-.24-.25.59-.53c.81-.72.81-.72 1.1-.4.32.37.34.32-.36.91s-.77.61-1.09.27ZM8.2 9.7c0-.23-1.02-.92-1.17-.78-.13.13-.08.2.38.61.49.43.79.5.79.17Zm35.59-.21c.4-.35.48-.69.17-.69-.24 0-1.07.95-.94 1.08s.21.09.77-.39Zm-27.73.22c-.12-.19-.18-1.97-.07-2.24.18-.47.69-.64 1.19-.38l.42.21v2.5h-.74c-.41 0-.77-.04-.8-.09Zm3.24-.18c-.43-.16-.7-.89-.4-1.08.07-.04.06-.13-.01-.27-.26-.48.24-1.06.81-.93.44.1.63.43.49.84-.22.62.06.58.5-.08.69-1.02 1.01-1.03 1.01-.05 0 .48.04.64.14.64.31 0 .4.29.12.4-.16.06-.26.17-.26.3s-.07.2-.2.2c-.15 0-.2-.07-.2-.25 0-.24-.03-.25-.55-.25-.4 0-.55.04-.55.14 0 .27-.57.52-.9.39Zm-2-1.03c0-.98 0-1-.27-1.14-.58-.3-.73-.07-.73 1.11V9.5h1zm5.74.75-.17-.26-.22.21c-.39.37-.51.06-.15-.4.26-.33.25-.36-.1-.43s-.49-.44-.31-.83c.15-.33.73-.34.95-.02.12.17.18.2.28.1.38-.38.48-.02.13.44l-.25.33.32.03c.23.02.37.11.47.29.34.61-.57 1.12-.95.54Zm-14-1.37c-.56-.67-.57-.73-.17-1.02l.26-.2.3.35c.16.19.4.49.54.67l.26.33-.23.24c-.33.35-.38.33-.96-.37Zm32.07.38c-.26-.28-.26-.29.46-1.1l.42-.47.3.22c.4.29.4.3-.2 1-.58.66-.66.69-.98.35Zm1.11-1.14c-.3-.23-1.15.75-.91 1.04.11.13.19.08.6-.38.43-.47.46-.54.31-.66Zm-32.37.87c0-.26-.71-1-.89-.93-.23.09-.21.16.25.68.4.45.64.55.64.25Zm1.12-1.76-.47-.68.26-.22c.37-.33.44-.3.97.47l.47.69-.29.2c-.41.29-.42.29-.94-.46Zm28.26.5c-.13-.08-.23-.2-.23-.25 0-.12.91-1.38.99-1.38.21 0 .72.42.63.53-.05.07-.28.38-.51.7-.44.61-.53.65-.88.4Zm.77-.6c.39-.56.4-.58.2-.67-.11-.05-.22-.07-.23-.05-.78 1.05-.84 1.22-.4 1.29.01 0 .2-.26.43-.57Zm-28.16.39c.09-.15-.64-1.13-.82-1.1-.25.05-.21.21.15.72.31.43.55.57.67.38Zm1.39-1.44c-.65-1.08-.65-1.18-.05-1.34.27-.08.2-.15.7.73l.41.72-.33.21c-.43.26-.37.28-.73-.32Zm23.87.24-.23-.19.43-.71c.46-.78.47-.79.9-.57.37.19.38.15-.12.96-.45.73-.61.81-.98.51Zm-23.21-.11c.25-.16-.54-1.34-.8-1.2-.13.07-.17.14-.11.22.05.07.21.33.36.6.28.49.32.52.55.38Zm23.98-.46c.33-.51.35-.57.21-.72-.15-.14-.19-.1-.52.38-.44.66-.45.76-.09.88.02.01.19-.24.4-.54ZM15.36 3.73c-.16-.38-.3-.74-.33-.81-.06-.14.66-.47.77-.35.05.04.22.41.39.81l.31.73-.35.15c-.49.2-.49.21-.79-.53Zm19.57.53c-.13-.06-.23-.17-.23-.24 0-.15.68-1.52.75-1.52.03 0 .21.07.4.15l.35.14-.24.53c-.45 1.01-.49 1.08-.65 1.07-.09-.01-.26-.06-.38-.13Zm-18.89-.64c-.09-.2-.2-.47-.25-.59-.09-.23-.25-.29-.45-.15-.22.14.43 1.34.66 1.22.19-.1.19-.12.04-.48Zm19.59-.08c.28-.57.28-.74-.01-.74-.18 0-.76 1.13-.64 1.24.18.18.4.01.65-.5Zm-17.67-.12c-.08-.13-.56-1.44-.56-1.52 0-.11.67-.33.79-.26.05.04.19.37.32.74.12.37.24.72.26.78.07.18-.71.42-.81.26Zm14.66-.02c-.27-.12-.27-.09.04-1.02.26-.8.33-.86.78-.68.32.12.32.15 0 1.06-.28.77-.35.82-.82.64ZM18.5 3.11c0-.45-.44-1.29-.63-1.22-.25.09-.25.06.04.82.18.5.59.77.59.4Zm14.79-.55c.24-.64.24-.63-.02-.68-.15-.02-.63.9-.67 1.29 0 .05.36.09.41.04.04-.03.16-.32.28-.65Zm-13.16-.57c-.21-.91-.2-.92.34-1.02.3-.06.33-.04.39.21.03.15.12.52.2.82.15.62.12.68-.38.77l-.36.05zm10.1.74c-.26-.05-.27-.12-.14-.63.06-.19.15-.54.21-.77.1-.41.12-.42.43-.36.46.08.52.17.39.6-.06.21-.16.57-.22.81-.11.43-.15.45-.67.35Zm-9.44-.22c.24-.16-.08-1.25-.38-1.29-.26-.04-.26.05 0 1 .1.4.15.43.38.29Zm9.99-.52c.07-.26.14-.54.18-.63.05-.12 0-.16-.18-.16-.21 0-.26.07-.36.48-.06.26-.13.54-.17.64-.04.11-.01.18.12.2.24.06.28.01.41-.53Zm-8.03.29c-.07-.24-.21-1.58-.17-1.63.03-.03.22-.05.43-.05.44 0 .47.05.51 1.1l.03.65-.38.03c-.24.02-.39-.01-.42-.1Zm4.83.07c-.02-.03 0-.42.06-.87l.11-.83.44-.03.43-.03-.07.68c-.11 1.11-.12 1.13-.54 1.13-.21 0-.4-.02-.43-.05Zm-2.48-.94c0-.99.04-1.06.56-.97l.34.07V2.3h-.9zm-1.78.24c-.05-.7-.1-.85-.34-.85-.19 0-.2.04-.14.46.03.26.06.58.06.71 0 .2.04.24.22.21.21-.03.23-.08.2-.53Zm4.92.28C28.43.92 28.43.8 28.21.8c-.26 0-.27.03-.36.78-.06.58-.06.62.13.62.14 0 .22-.08.26-.27ZM25.8 1.4c0-.68-.01-.7-.25-.7s-.25.02-.25.7.01.7.25.7.25-.02.25-.7Z"/></svg>