<svg xmlns="http://www.w3.org/2000/svg" width="51" height="51" viewBox="0 0 51 51"><path fill="#fff" fill-rule="evenodd" stroke="#fff" stroke-width=".45" d="M6.9 51.06c0-.1-.19-.15-.67-.18-.84-.06-1.81-.49-2.01-.9a.6.6 0 0 0-.44-.33c-.38-.09-1.87-1.54-2.16-2.11a3 3 0 0 0-.52-.69c-.76-.72-.95-1.84-.4-2.35.17-.15.3-.35.3-.44 0-.4 1.29-.46 2.48-.11.48.14 1.03.07 1.02-.14-.01-.29-.56-1.85-.8-2.27-.6-1.06-.21-3.16.56-3.01.13.02.26-.03.33-.15.06-.1.3-.3.54-.44.23-.15.8-.59 1.27-.98 1.28-1.08 1.24-1.06 2.11-1.06h.76l.11-.38c.34-1.14 1.7-2.13 2.08-1.51.04.07.16.01.33-.15.15-.14.42-.3.61-.37.87-.27.95-.32.71-.4-.43-.16-.26-.5.78-1.51 1.15-1.12 1.29-1.21 2.49-1.47.5-.11 1.12-.31 1.37-.45.52-.27 1.84-.27 2.16 0 .09.08.38.14.68.14.29 0 .61.05.72.11.15.08.33.05.77-.11.41-.15.69-.2.97-.15.52.07 1.29-.24 1.66-.69l.27-.31 1.48-.03c2.89-.06 2.98-.06 3.3.11.17.08.36.22.43.3.08.1.24.13.5.1.33-.05.41-.02.57.22.36.51.51.62 1.04.75.44.1.54.1.61-.01.04-.08.14-.14.21-.15.07 0 .21-.04.3-.09.13-.05.26.01.45.22.24.25.41.31 1.13.42 1.21.18 2.23.44 3.1.79.41.16 1.04.33 1.39.37 1.76.2 3.39 1.17 3.26 1.93-.06.39-.06.39.62.89.37.28.87.66 1.11.86s.62.42.85.49c.68.2 1.75 1.28 1.6 1.61-.11.23-.08.28.47.72.9.72 1.9 1.94 1.9 2.31 0 .09.44.58.97 1.08 1.12 1.07 1.12 1.08.17 1.6-1.21.67-3.07 2.3-3.7 3.26l-.3.45-.67-.03c-.36-.01-1.05.04-1.53.13-.47.08-1.12.15-1.43.15-.45 0-.64.06-1.01.3-.43.28-.5.3-1.48.3-.77 0-1.17.05-1.59.2-.57.2-1.12.24-1.68.11-.29-.07-2.12.47-2.43.71-.07.06-.12.33-.12.64 0 .52-.19.76-.33.42-.03-.07-.06-.03-.06.1-.01.27-.27.3-.36.03-.07-.23-.83-.34-1.25-.18-.23.09-.4.08-.77-.06-1.21-.42-1.61-.33-2.39.58-.42.48-.5.53-.63.41-.09-.07-.22-.11-.28-.09-.07.03-.13-.02-.13-.11s-.04-.16-.1-.16c-.05 0-.57-.21-1.16-.46-.99-.42-1.11-.45-1.68-.39-.69.06-1.58-.05-1.63-.21-.1-.3 2.48-.14 3.22.21.39.18.86.38 1.05.44s.46.2.59.3c.24.19.25.19.46-.13.58-.86 1.46-1.13 2.55-.76.46.16.64.18.83.09.23-.11 1.19-.01 1.58.15.13.06.16-.01.17-.36.02-.45.43-.98.77-.98.08 0 .49-.14.91-.3.74-.3.79-.31 1.48-.19.65.1.76.1 1.24-.1.42-.17.74-.21 1.57-.21.98 0 1.07-.02 1.49-.29.38-.23.61-.29 1.35-.35.49-.04 1.24-.13 1.67-.21.62-.12.85-.13 1.13-.04.34.12.36.11.61-.22.83-1.12 2.9-2.93 3.98-3.48.56-.28.56-.28-.48-1.18q-.9-.78-.9-.99c0-.43-1.06-1.69-2.02-2.4-.52-.39-.66-.67-.47-.91.18-.21-.52-.84-1.36-1.23-.33-.15-.9-.52-1.27-.82-.37-.31-.83-.65-1.02-.78-.48-.29-.58-.5-.44-.91.13-.39.11-.42-1.17-1.05-.71-.35-1.08-.47-1.75-.55-.48-.06-1.14-.23-1.52-.39-.61-.26-2.87-.84-2.95-.76-.02.02.38.37.89.77.51.41 1.06.94 1.23 1.18l.3.43-.03 1.55c-.03 1.51-.15 2.13-.41 2.13-.05 0-.14.14-.21.31-.08.17-.27.39-.43.49s-.34.29-.41.42c-.06.12-.26.3-.44.39-.18.08-.39.26-.45.39-.07.14-.3.31-.52.4-.63.24-1.25.68-1.25.89 0 .5-.66.67-.83.21-.19-.51-.4-.38-.32.19.08.62-.13 1.08-.53 1.17-.15.03-.38.1-.51.15-.36.15-.53-.07-.23-.31.27-.22.29-.35.03-.19-.42.27-.93-.39-.69-.89.15-.31.56-.46.43-.16-.3.69.13 1 .54.39.21-.32.22-.39.12-.79-.17-.7-.15-2.16.04-2.16.12 0 .15.15.15.71 0 .4.05.99.11 1.33.1.53.09.66-.05.93-.2.39-.21.63-.01.63.23 0 .33-.31.28-.87-.09-.83.57-1.24.84-.52.14.37.33.3.33-.12 0-.22.05-.29.19-.29.11 0 .33-.11.49-.25.17-.14.44-.28.61-.31.4-.08.69-.44.46-.57-.25-.14-.06-.27.39-.27.39 0 .45-.03.56-.3.07-.17.24-.36.38-.43.14-.06.33-.24.41-.38.09-.14.26-.41.38-.6.24-.36.31-1.07.13-1.25-.07-.07-.06-.22.05-.47.28-.67.12-1.49-.42-2.14-.4-.48-2.16-1.73-2.52-1.78-1.77-.28-2.72-.63-2.93-1.09-.06-.14-.18-.28-.26-.31-.24-.09-.36.1-.22.35.06.12.09.24.06.27-.1.1-.36-.07-.37-.24-.02-.52-.76-.88-1.78-.87-.53.01-1.53.02-2.23.03l-1.26.01-.24.29c-.34.43-1.08.71-1.85.71-1.33 0-1.98.82-2.13 2.67-.06.9-.07.92-.51 1.41-.69.77-1.19 1.84-1.19 2.54 0 .49-.03.6-.23.72-1.18.78-1.52 1.63-.82 2.05.19.11.39.31.45.45.05.13.18.27.3.31.11.03.26.21.34.38.07.18.28.45.45.62l.32.3.17-.21c.41-.52 1.69-.39 1.78.17.1.59 1.83 1.83 2.3 1.65.17-.07.19-.77.03-.93-.2-.2-.03-.46.21-.31.23.14.29 1.03.1 1.39-.33.61-2.79-.69-2.96-1.56-.08-.47-.92-.53-1.33-.1-.13.14-.26.25-.31.25-.13 0-.98-.88-1.04-1.08a.65.65 0 0 0-.31-.3.65.65 0 0 1-.31-.36c-.03-.14-.18-.29-.36-.37-.45-.19-.62-.5-.53-1.05.07-.47.09-.5.98-1.31.44-.39.47-.45.47-.91 0-.6.62-1.93 1.2-2.56.34-.37.38-.48.43-1.12.07-.84.32-1.77.52-1.94.21-.18.18-.3-.06-.3-.12 0-.35-.06-.52-.14-.18-.08-.74-.16-1.26-.19q-.93-.045-1.02-.18c-.06-.1-.17-.09-.56.09-.26.12-.88.31-1.36.41-.95.21-1.22.37-2.39 1.51-.6.58-.71.8-.4.8.74.01.32.58-.67.91-.36.12-.7.28-.74.36-.1.17-.9.53-1.18.53-.26 0-.24-.15.04-.28.13-.07.16-.11.07-.11-.46-.02-1.05.63-1.3 1.44-.17.52-.22.55-1.12.55h-.76l-1.04.87c-.56.47-1.17.95-1.35 1.05-.32.2-.9.84-1.12 1.26-.08.16-.19.22-.31.19-.14-.04-.19.03-.24.32-.11.69-.06 1.01.25 1.57.18.31.44.97.58 1.47l.26.92.97.5c.52.27 1.12.63 1.31.78.2.16.46.27.59.26.52-.05.69.02.86.31.09.16.34.37.54.46.36.16.51.16 1.31-.02.31-.07.37.11.11.31-.13.09-.01.1.57.02.51-.07.97-.06 1.46.01.71.11 3.1-.06 5.33-.38 2.68-.38 3.54-.33 4.08.25.17.19.32.39.32.45 0 .19-.26.1-.55-.2-.31-.33-.55-.39-.55-.14 0 .08.13.2.29.25.35.12.43.28.31.68-.08.29-.08.29.25.24.29-.05.33-.02.39.22.09.34-.01.46-.18.23-.2-.27-.7-.1-.74.25-.04.3.5.41.76.15.06-.06.15-.09.18-.05.14.14-.07.37-.52.56-.55.25-.58.25-.51.07.03-.08-.01-.2-.09-.26-.16-.14-.2-1-.04-1 .06 0 .1-.11.1-.24 0-.14.05-.28.1-.31.15-.09.02-.25-.2-.25-.21 0-.4-.28-.4-.59 0-.27-1.56-.33-1.66-.07-.04.11-.18.13-.49.1-.49-.04-1.14.28-1.15.56 0 .09.24.31.52.5.29.19.57.45.63.58.05.12.13.22.17.22.16 0 .78.63.78.79 0 .1.09.26.2.36s.2.24.2.32c0 .29.33.24 1-.17 1.2-.73 2.19-.52 3.57.73.35.31.7.57.79.57s.14.06.12.13q-.135.39-.9-.3c-1.44-1.3-2.23-1.5-3.42-.84-.77.42-1.04.49-1.23.3-.17-.17-.73.17-.85.51-.18.52-.77.52-.98-.01-.1-.23-.1-.33-.01-.42.16-.16.14-.25-.1-.37-.23-.13-.61.12-.57.36.02.07 0 .13-.04.13-.05.01-.08-.02-.09-.06-.02-.2-.23-.32-.46-.27-.17.05-.34 0-.53-.15-.39-.28-.47-.27-.64.14-.26.62-1.06.61-1.32-.01-.17-.39-.13-.54.1-.35.18.15.66-.05.66-.27 0-.11-.08-.13-.35-.09-.31.05-.38.02-.65-.31-.36-.43-.67-.26-.56.31.03.15.09.4.12.55.08.4-.19 1.26-.41 1.3-.14.03-.16-.01-.1-.2.06-.18.05-.2-.05-.11-.08.07-.32.09-.66.06-.46-.05-.54-.03-.54.11 0 .09-.07.16-.16.16-.12 0-.15-.07-.12-.3.04-.23.01-.3-.13-.3a.4.4 0 0 1-.28-.14c-.2-.24.12-.26.6-.04.35.15.48.17.63.08.13-.08.21-.09.29-.01.4.4.74-.09.56-.8-.1-.37-.1-.57-.02-.79.13-.33.09-.4-.24-.4-.14 0-.23-.06-.23-.15 0-.08.08-.15.17-.15.13 0 .14-.03.05-.12-.06-.06-.25-.11-.42-.1-.2 0-.3-.04-.3-.14 0-.08-.1-.14-.25-.14-.37 0-.3-.2.08-.21l.32-.01-.28-.1c-.21-.07-.32-.07-.4.01-.16.16-.37.14-.37-.04s.31-.35.65-.35c.39 0 .65.18.65.44 0 .18.07.25.3.3.2.03.37.16.48.35.09.17.28.32.42.35a.6.6 0 0 1 .38.3c.1.21.18.26.51.26.4 0 .56.11.63.45.04.18.06.17.16-.08.22-.53.16-.77-.19-.77-.17 0-.39-.05-.49-.1-.13-.07-.21-.07-.25 0-.09.14-.35.12-.35-.03 0-.07.06-.19.13-.25.06-.07.12-.18.12-.24 0-.21.26-.2.32.01.03.13.16.23.32.27.14.03.34.09.44.15.09.05.17.05.17 0 0-.12-.21-.28-.45-.33-.17-.04-.16-.06.07-.12.37-.11.58-.01.58.24 0 .11.07.23.15.27.14.05.14.07 0 .23-.16.18 0 .23 1 .33.11.01.26.06.33.1.16.11.04.3-.14.23-.09-.03-.14.02-.14.14 0 .21.24.27.35.1s.49-.11.8.14c.25.2.28.26.16.4-.23.28.28.2.77-.12.42-.28.45-.42.11-.42-.15 0-.17-.06-.13-.29.05-.26.01-.33-.34-.58-.22-.15-.48-.4-.58-.56-.11-.15-.35-.34-.54-.43-.6-.28-.83-.89-.42-1.14.17-.1-.43-.07-1.05.06-.32.06-.3.34.03.34.14 0 .23.04.19.1-.16.25-.78.11-.72-.16l.05-.27-.97.09c-1.22.11-2.12.11-2.76.01-.48-.08-.53-.06-1.34.43-.46.28-.97.54-1.13.57-.21.04-.28.11-.28.28 0 .27-.32.58-.57.53-.31-.06-.3-.63.02-.84.4-.26.19-1.25-.3-1.44-.15-.06-.25-.17-.25-.3 0-.22-.21-.35-.42-.27-.08.03.03.2.31.46.31.31.4.46.33.53-.14.14-.79-.34-.92-.67a.8.8 0 0 0-.32-.36c-.13-.07-.39-.25-.58-.41-.74-.61-2.09-1.11-2.51-.93-.32.15-.4.15-.65.02-.72-.36-2.34-.43-2.34-.09 0 .15.09.17.65.14.4-.02.65 0 .65.07 0 .16-.17.22-.62.23-.79.01-1.14.74-.65 1.35.13.15.33.44.45.65.12.2.29.39.37.42.23.08.18.28-.05.21-.2-.06-.2-.06-.03.3.11.22.22.34.31.3.18-.07.48.1.56.31.05.12.02.15-.11.09q-.18-.06.12.27c.63.71.95.87.95.5 0-.13-.11-.21-.36-.28-.46-.12-.44-.29.03-.29.43 0 .53-.18.26-.48-.38-.42-.54-.89-.52-1.53.02-.5-.02-.67-.19-.89-.12-.15-.22-.32-.22-.38s-.07-.19-.17-.29c-.09-.1-.13-.21-.1-.24.12-.13.37.06.54.4l.16.35.35-.15c.36-.15.72-.11.72.07 0 .23-.21.48-.5.57-.47.17-.36 1.4.18 1.9.2.19.23.29.18.6-.1.57-.08.73.08.91.08.09.16.27.18.41.04.35 1.33.84 1.97.76.26-.04.49-.02.57.05.19.16.18.59-.01.59-.08 0-.15-.06-.15-.14Zm19.18-7.43c-.1-.02-.18-.09-.18-.14s-.09-.09-.2-.09c-.24 0-.26-.16-.03-.28.13-.08.15-.19.1-.56-.04-.28-.03-.46.03-.46.19 0 .1-.21-.35-.76-.7-.85-.64-1.43.12-1.13.15.06.53.11.85.1.31-.01.59.03.63.09.15.24.9.11 1.2-.2.21-.21.32-.27.39-.19.34.34-.9.79-1.66.59-.38-.09-.55-.09-.77 0-.24.09-.35.09-.6-.04-.47-.25-.4.01.2.73.45.54.49.64.45.96-.04.19-.08.51-.11.7-.05.3-.03.35.13.35.28 0 .85-.55.79-.77-.04-.17-.05-.17-.06 0 0 .09-.08.17-.17.17-.13 0-.15-.06-.09-.27.09-.38.23-.53.51-.53.25 0 .4.15.24.25-.05.03-.1.3-.1.6 0 .53-.13.76-.32.57-.06-.06-.18-.01-.33.14-.24.24-.33.26-.67.17Zm2.54-1.01c-.3-.58-.17-1.17.32-1.4.33-.15.36.06.06.33-.22.2-.27.64-.09.82s.37.05.31-.23c-.05-.29.24-1 .44-1.08.24-.09.25.12.02.49-.17.3-.19.41-.1.56.18.28.15.37-.18.54-.38.2-.67.19-.78-.03Zm-6.54-1.89c-.2-.44-.2-.52-.08-1.03.15-.6.17-1.4.05-2.1-.08-.5.08-.76.39-.64.23.09.54.64.58 1.03.04.46-.18.52-.26.07-.04-.19-.16-.45-.27-.58-.23-.26-.23-.26.01.62.11.39.1.55-.08 1.23-.21.82-.17 1.32.13 1.57.17.14.11.3-.11.3-.08 0-.25-.21-.36-.47Zm6.47.27c-.11-.18.33-.99.59-1.12.24-.1.26-.16.26-.77 0-.47.06-.75.19-.97.29-.48.35-.74.16-.74-.36 0-.36-.8.01-1.21.31-.35.54-.18.54.38 0 .14.11.38.25.55.14.16.25.4.25.53s.03.3.06.39c.04.1.01.16-.08.16s-.2-.18-.27-.41c-.14-.48-.18-.45-.54.37-.18.4-.27.79-.27 1.13 0 .29-.05.51-.11.51-.05 0-.08.04-.05.08.03.05-.08.18-.23.3-.16.12-.34.37-.41.57-.12.35-.23.44-.35.25Zm-1.62-.99c-.27-.17-.38-.19-.6-.1-.38.14-.82-.06-.89-.4-.17-.83-.25-.97-.64-1.08-.46-.12-.91.37-.56.62.24.18.2.27-.12.23-.41-.05-.21-1.28.22-1.28.12 0 .16-.05.12-.16-.03-.09-.06-.19-.06-.24s-.1-.1-.22-.12c-.7-.1-.56-1.13.15-1.13.22 0 .37-.05.37-.12 0-.06.05-.15.1-.18.18-.11.1.42-.1.66s-.2.24-.35.05c-.2-.26-.46-.06-.28.22.12.18.45.19.79.01.12-.06.3-.09.4-.07.16.03.14.06-.11.18-.47.24-.57.67-.2.95.36.29.45.24.45-.24 0-.27.07-.44.25-.61.36-.34.31-.48-.2-.56-.6-.09-.64-.37-.05-.33.35.03.44-.01.65-.26.27-.35.4-.3.25.09-.05.15-.1.33-.1.4 0 .13.8.49 1.07.49.15 0 .17.23.03.32-.05.03-.3-.03-.54-.14l-.44-.19-.27.28c-.48.5-.54 1.7-.09 1.7.32 0 .31.18-.01.26-.14.04-.24.11-.22.18.05.15.47.2.6.07.17-.17.41-.13.55.09.28.45.88.19 1.43-.61.2-.29.34-.2.25.16-.19.75-1.06 1.21-1.63.86Zm1.83-.19c-.03-.05-.04-.38-.03-.73.02-.55-.02-.7-.25-1.06-.2-.3-.28-.56-.28-.87 0-.24-.07-.57-.15-.72-.32-.61-.17-1.04.36-1.04.46 0 .51.14.09.29-.33.11-.4.4-.15.61.1.08.15.3.15.63 0 .38.09.67.35 1.19l.36.68-.16.55c-.17.56-.2.61-.29.47Zm-1.36-.44c0-.06.07-.19.16-.29.22-.25.11-.49-.23-.49-.84 0-1.23-.12-1.3-.38-.12-.49.53-.95.8-.57.1.12.16.14.21.07.1-.16.59-.16.54.01-.03.06-.14.13-.26.15-.4.06-.45.37-.06.38.68.01 1.01.74.49 1.08-.29.19-.35.2-.35.04Zm4.47-.05c-.2-.2.27-1.43.56-1.43.22 0 .22.11-.04.54-.11.19-.19.43-.17.53.03.14.07.12.2-.12a3 3 0 0 1 .46-.58c.27-.26.29-.32.2-.65-.05-.2-.15-.66-.22-1.02s-.21-.8-.31-.97c-.27-.45-.09-.55.25-.14.22.26.3.48.35.97.04.35.14.69.21.75.18.15.18.28-.03.51-.15.17-.15.18.08.18.18 0 .28-.08.36-.3.11-.29.43-.43.43-.17-.02.37-.36.82-.64.82-.33.01-.84.54-.63.67.06.04.21-.02.32-.12.21-.19.65-.28.65-.12 0 .04-.12.15-.28.24-.15.1-.35.23-.45.3-.15.11-.2.1-.31-.04-.12-.16-.14-.16-.29.03-.16.18-.57.26-.7.12Zm.38-1.95c-.12-.41-.13-.43-.14-.26-.02.31-.18.2-.25-.16-.04-.18-.15-.41-.26-.51-.39-.35-.2-.85.32-.85.36 0 .44.18.53 1.13.06.69-.06 1.09-.2.65Zm1.11-1.04c-.03-.09-.04-.66-.01-1.28.03-.7.01-1.02-.04-.86-.05.14-.09.4-.1.57-.01.22-.06.33-.16.33-.19 0-.2-.68-.02-1.2.28-.82.8-.26.75.82-.03.64-.03.66.14.51.25-.22.71.17.66.57-.04.35-.48.4-.78.08l-.22-.23.04.39c.03.4-.14.61-.26.3Zm-6.61-1.99c-.44-.36-.85-.65-.93-.65-.11 0-.32-.38-.32-.61 0-.05.16-.09.35-.09.32 0 .35-.02.35-.3 0-.31.3-.71.61-.82.08-.03.1-.09.06-.14-.05-.05-.22-.01-.38.09-.39.22-.48.21-.75-.04-.28-.26-.66-.2-.4.07.18.17.21.34.07.34-.05 0-.12-.09-.16-.19-.03-.1-.16-.22-.29-.25-.25-.06-.4-.31-.3-.48q.06-.09.15.03c.06.1.13.1.33.01.27-.12.51-.08.76.14.12.1.24.11.52.02.83-.25 1.24.29.53.7-.32.19-.39.33-.47.87-.02.14-.12.21-.36.23-.33.03-.36.22-.03.22.19 0 1.61 1.25 1.61 1.41 0 .18-.16.08-.95-.56Zm5.1.35c-.08-.16-.15-.44-.15-.61 0-.18-.06-.4-.14-.48-.18-.22-.28-.79-.15-.87.14-.08.29.14.29.43 0 .16.1.27.34.37.43.18.56.42.56 1 0 .74-.23.57-.32-.23-.02-.14-.09-.27-.17-.29-.1-.03-.12.01-.08.14.03.11.1.34.15.52.14.43-.11.45-.33.02Zm-7.37-.1a.49.49 0 0 0-.39-.2c-.27 0-.39-.15-.39-.5 0-.12-.08-.2-.25-.22-.24-.03-.24-.03-.06-.27.19-.25 1.71-.42 1.71-.2 0 .18-.45.31-.88.25-.39-.05-.43-.04-.37.12.04.09.09.24.12.33.03.11.13.14.33.11.24-.03.29 0 .32.19.06.46.53.32.53-.15 0-.38.16-.58.3-.37.03.06.17.11.31.11.15 0 .24.06.24.15 0 .18-.12.19-.28.03-.09-.09-.12-.07-.12.09 0 .58-.84.98-1.12.53Zm4.35-2.06c-.21-.26-.52-.53-.7-.61-.43-.17-.68-.55-.54-.81.05-.1.13-.42.17-.7.11-.86.63-.9.64-.05 0 .68.46 1.23.77.92.17-.17.56-.06.69.2.14.27.05.6-.19.75-.23.15-.32 0-.18-.28.2-.37.07-.47-.38-.28l-.38.16.33.53c.43.66.27.78-.23.17Zm-5.76-1.21c-.04-.03-.07-.21-.07-.38 0-.64.7-.87 1.15-.39.23.24.26.25.6.13.24-.09.41-.1.51-.04.22.14.18.3-.08.31-.13.01-.38.08-.56.15-.32.14-.34.13-.6-.19-.37-.44-.58-.42-.66.08-.06.38-.15.48-.29.33Zm11.28-2.91c-.16-.11-1.22-.96-2.35-1.91s-3.02-2.5-4.2-3.45-2.21-1.8-2.29-1.89c-.22-.27-.41-.14-4.85 3.41-4.18 3.35-4.99 3.93-5.39 3.89-.5-.07-1.28-.65-4.22-3.17-.55-.48-1.79-1.47-2.75-2.22s-2.08-1.68-2.47-2.06l-.73-.7-.02-1.23c-.01-.75-.03-.97-.05-.56-.04.61-.06.67-.26.67-.17 0-.28.12-.44.49-.26.55-.78.96-1.36 1.06-.94.18-.99-.82-.09-1.69.29-.27.3-.3.16-.51-.24-.37-.15-1.07.16-1.21.98-.48 1.66-.77 1.76-.77.14 0 .28-2.26.14-2.42-.06-.07-.05-.16.02-.23.09-.09.09-.15 0-.24-.07-.07-.12-.23-.12-.38.01-.24.01-.24.15-.06s.15.1.15-.81c0-.71.04-1.04.13-1.1.12-.08-.1-.12-1.46-.29-1.03-.12-.71-.23.65-.21 1.56.02 1.9-.11 2.02-.8.04-.21.15-.62.24-.91.19-.63.11-.74-.52-.7l-.4.03-.12.73c-.15.9-.33 1.19-.79 1.28-.61.11-1.4-.04-1.66-.32-.45-.48-.36-4.7.12-5.64.06-.14.37-.15 2.21-.13 2.08.03 2.13.03 2.29-.18.3-.4.69-.19.69.36 0 .63-.3.65-.31.03l-.01-.43-.14.45c-.08.25-.2.5-.27.55-.06.06-.13.19-.15.3-.07.45-.08.45-1.16.45-1.25 0-1.36.03-1.36.41v.29h1.03c1.11 0 1.27.06 1.27.5 0 .61-.21.72-1.37.68l-1.04-.03.06.6c.08.86-.05 1.59-.3 1.64-.32.06-1.23-.19-1.29-.36-.06-.16.11-4.58.19-4.8.03-.09.48-.13 1.57-.16l1.53-.03-1.6.01h-1.6l-.12.65c-.14.73-.17 4.38-.05 4.58.11.17 1.17.33 1.46.22.28-.1.34-.24.46-1.14.13-.87.26-1 .94-.92.64.07.89.3.83.76-.06.55-.37 1.63-.53 1.88-.17.26-.24.26 1.16-.1 1.52-.39 1.68-.47 1.72-.76.05-.4.5-.43.75-.05.09.15.22.31.28.35.11.09 2.71.11 2.63.03-.03-.03-.61-.07-1.29-.08-1.36-.02-1.38-.03-1.54-.8-.05-.25-.09-.27-.59-.27h-.54l-.17.51c-.19.57-.42.71-1 .62-.79-.13-.81-.77-.11-2.61.19-.48.44-1.25.57-1.71.12-.46.3-.92.39-1.01.16-.16.16-.18-.01-.28-.09-.06-.2-.25-.24-.42-.06-.26-.11-.3-.41-.3-.21 0-.42-.08-.54-.2-.16-.16-.2-.17-.2-.04 0 .08-.05.12-.1.09-.08-.05-.08-.11-.01-.19.07-.09 0-.33-.25-.82-.31-.6-.35-.76-.31-1.21l.05-.52-.46-.15c-.6-.21-.84-.2-1.15.04-.14.11-.32.2-.4.2-.23 0-.31.19-.11.27.15.06.15.07-.04.14-.28.1-.29.46-.02.54.26.08.35.26.49 1.05.07.36.14.73.17.83.03.09.01.17-.04.17-.12 0-.28-.42-.38-.95-.03-.22-.09-.34-.11-.27-.11.3-.24.1-.18-.28.06-.37.05-.4-.15-.4a.27.27 0 0 1-.27-.2c-.08-.29-.23-.25-.36.1s-.27.39-.27.08c0-.28-.14-.14-.15.15 0 .12-.05.23-.1.24s-.1-.07-.09-.17c.01-.32-.1-.25-.87.59C1.17 4.3.14 6.41.17 7.65c.01.79.56 2.25.7 1.88.07-.21.31-.15.48.11.09.13.29.29.45.36.42.18.79 1 .44 1-.14 0-.14.03-.04.15s.1.18 0 .3c-.26.31-.05.42.99.49.99.07 1.24.17 1.02.39-.06.06-.11.25-.11.41 0 .36-.07.49-.36.64-.13.07-.24.26-.28.47-.04.19-.11.35-.16.35-.21 0-.09.37.18.57l.29.21-.05-.24c-.06-.31.12-.31.26.01.09.2.08.26-.06.34-.16.1-.16.1 0 .11.09 0 .19-.06.22-.12.03-.1.08-.09.18.03.07.08.21.18.3.22.34.12.18.27-.31.27-.91 0-1.83-1.23-1.27-1.69.08-.07.18-.26.21-.42.04-.19.16-.34.31-.39.19-.08.24-.17.24-.43v-.34l-.82-.08c-1.08-.09-1.2-.16-1.17-.65.02-.26-.03-.45-.14-.58a.74.74 0 0 1-.17-.43c0-.35-.1-.46-.57-.58-1.12-.3-1.31-3.04-.35-4.96.89-1.78 2.67-3.64 3.48-3.65.11 0 .25-.14.35-.32.09-.19.27-.35.45-.41.16-.05.36-.16.45-.23.08-.08.37-.14.63-.14.32 0 .48-.05.52-.15.04-.08.15-.15.25-.15.2 0 .26.15.09.25-.29.18.01.35.75.4 1.16.1 3.14 1.19 3.02 1.67-.03.09.01.25.08.35s.18.35.24.56c.13.37.24.46.36.27.03-.05.22-.1.41-.1.32 0 .34-.02.34-.32 0-.7 1.08-1.2 2.55-1.19h1.06c.71 0 .81.12.75.84-.03.31-.01.59.04.62s.06.28.03.56c-.04.38-.02.53.08.6.24.15.58.1.69-.11.06-.11.19-.2.29-.2.19 0 .31-.19.31-.48 0-.13-.05-.12-.19.07-.1.14-.27.25-.37.26-.11.02-.27.06-.36.1-.19.07-.22-.02-.12-.29.04-.11.14-.14.29-.1.46.12 1.15-1.02 1.15-1.9 0-.26.05-.39.18-.43.09-.04.28-.15.42-.25.44-.32 1.23-.4 1.96-.21.77.21 1.14.07 1.67-.59.29-.36.57-.5.57-.28 0 .49-1.26 1.34-1.88 1.27-.4-.04-.44-.03-.28.08.21.16 1.01.28 1.69.27.53-.01.97.12.97.28 0 .05-.09.1-.2.1-.14 0-.2.07-.2.21 0 .12.05.19.13.16.06-.02.11-.1.09-.16-.01-.06.02-.11.08-.11.05 0 .1.04.1.08 0 .05.11.14.25.2.14.07.3.23.35.37.07.19.17.25.39.25.15 0 .43.03.6.06.24.05.31.03.31-.09 0-.11-.06-.14-.17-.1-.12.03-.08-.04.1-.22.54-.52.55-.88.03-1.63-.17-.24-.41-.59-.54-.78L24.6 0h.62c.37 0 .58.04.5.08a.22.22 0 0 0-.07.24c.11.27-.14.3-.27.04-.06-.14-.17-.26-.24-.26-.08 0 .01.23.24.59l.37.6.57-.01.57-.02-.2-.28c-.11-.15-.18-.32-.15-.36.03-.05-.01-.2-.09-.35-.15-.29.07-.41.32-.16.08.08.13.08.17 0 .18-.29 1.03-.12 1.35.26.22.27.31.32.31.2 0-.47.79-.4 1.27.12.18.19.56.39 1.03.56.41.14.94.4 1.18.56l.43.31.47-.17c.26-.09.59-.19.75-.22.15-.03.34-.17.43-.33.39-.65.91-.73 1.82-.3.9.43 2.59.44 3.67.04.78-.3 2.93-.37 3.38-.12.12.07.33.13.47.15 1.26.12 1.5.17 1.47.27-.05.14-1.01.2-1.23.08-.11-.06-.32-.05-.6.04-.39.12-.69.04-.44-.11.22-.14.08-.25-.31-.25h-.42l.27.25c.24.23.34.45.19.45-.03 0-.15-.08-.25-.17-.18-.16-.36-.21-.9-.22-.18-.01-.28-.07-.28-.16 0-.21-.34-.19-1.08.07-.43.16-.61.27-.57.37.03.07-.02.19-.11.26-.15.11-.14.13.14.26.44.19.4.33-.08.25-.32-.05-.46-.02-.7.16-.41.3-.47.17-.12-.23.65-.75.66-.74-.76-.74-1.24 0-1.29-.01-1.91-.33-.75-.4-.97-.37-1.39.16-.24.3-.44.42-.94.56-.34.11-.66.21-.71.23-.04.02.05.25.2.51.44.78.43.78 1.05.43.3-.17.62-.31.72-.31.22 0 .96.38.96.49 0 .05.12.24.26.41.37.43.19.53-.19.1-.41-.45-.98-.76-1.23-.65-.17.07-.16.08.07.15.37.11.79.4.79.56 0 .39.83.54 1.06.19.2-.31.34-.32.34-.02 0 .74-1.35.79-1.69.07-.22-.47-.46-.49-.87-.09-.25.25-.43.33-.69.33-.19 0-.35.04-.35.08s.2.08.45.08c.24 0 .62.06.82.14.21.08.47.16.58.18.35.06.4 1.62.07 2.08-.18.24-.21.34-.12.45.06.08.19.35.29.6l.17.46.48-1.42c.38-1.12.45-1.43.35-1.5-.11-.06-.1-.09.03-.14.09-.04.19-.18.23-.33.12-.47.22-.52 1.06-.52h.78l.15.52c.08.29.18.67.22.83s.25.75.48 1.3l.41 1 .08-.7c.04-.38.09-1.12.11-1.63.03-1.17.09-1.24 1.13-1.32.43-.04.7-.08.61-.08-.1-.01-.18-.07-.18-.13 0-.13.85-.05 1.04.1.06.04.36.11.66.14.33.04.6.13.67.23.1.14.12.14.21-.03.09-.14.24-.18.87-.19.5-.01.8-.05.85-.14.09-.14 1.1-.04 1.1.11 0 .05.16.09.35.09.43 0 .7.34.59.74-.08.34-.31.46-.88.46h-.46v1.84c0 2.27.04 2.16-.75 2.16-.88 0-.86.05-.79-2.14L44.93 6h-.4c-.25 0-.46-.06-.54-.16-.11-.14-.13-.14-.21 0-.07.13-.31.16-1.28.16h-1.2v.24c0 .13-.03.33-.07.43-.06.16-.05.16.1.05.17-.14 1.98-.14 2.12-.01.03.04.09.24.12.44.09.56-.09.65-1.29.65h-.98v1.1h.99c.55 0 1.06.02 1.14.06.11.04.15-.08.2-.5.06-.61.13-.79.28-.71.1.07.12.97.03 1.44-.07.35-.24.42-.24.09 0-.27-.05-.21-.14.14-.06.25-.04.28.18.28.23 0 .26-.05.32-.6.11-.97.38-.84.32.14-.07 1-.06 1 1.04 1.04 1.36.05 1.33.09 1.34-1.8.02-2.53 0-2.38.3-2.38.21 0 .25.03.18.18-.04.09-.1 1.01-.14 2.03-.03 1.33-.09 1.91-.18 2.02-.46.55-2.92.44-2.92-.13 0-.17-.04-.2-.2-.15-.32.1-1.44.07-1.48-.04-.02-.07-.31-.08-.8-.04-.69.05-.8.03-1.04-.17-.43-.33-.36-.67.06-.35.33.25.36.18.36-.75 0-.81-.09-1.12-.23-.77-.04.09-.08.09-.15-.02-.05-.07-.15-.1-.22-.06-.08.05-.08.01.01-.13s.26-.22.49-.24c.42-.04.59-.51.21-.61-.25-.06-.29-.56-.08-1l.12-.27h1.28c1.01 0 1.27-.03 1.27-.14 0-.32-.27-.37-1.81-.34l-1.54.03-.01.7c0 .39-.06.98-.12 1.33-.07.41-.08.81-.02 1.2.18 1.05-.09 1.61-.78 1.63q-.39.015-.12.06c1.26.2 2.57.61 4.91 1.52l.47.18.15-.38c.09-.22.22-.39.31-.39.21 0 .21 0-.1.76-.26.65-.26.66-.19 2.59l.08 1.94.26-.14c.7-.39.79-.54.83-1.43.03-.71.01-.83-.14-.88-.1-.03-.18-.12-.18-.2s-.04-.14-.09-.14c-.26 0-.71-.6-.71-.95 0-.46.24-.43.28.03.02.19.09.32.17.32.15 0 .65.42.65.55 0 .04.09.14.19.23.18.15.19.27.14 1.14l-.06.97-.55.4c-.3.23-.61.41-.69.41-.15 0-.14 2.74.02 3.63.09.5-.02.62-2.6 2.7-1.1.88-2.38 1.93-2.85 2.32-3.52 2.95-4.5 3.56-5.15 3.17Zm1.05-.64c0-.16.03-.19.11-.11.17.17.43.05.28-.14-.15-.17-.37.04 2.1-1.97 1.88-1.54 2.31-1.82 2.31-1.56 0 .06-.75.72-1.67 1.48-1.96 1.61-2.45 2.05-1.48 1.31 2.1-1.6 3.82-3.13 3.77-3.35-.01-.05.73-.74 1.66-1.52 2.33-1.96 2.09-1.53 2.01-3.67-.04-.99-.12-2.52-.18-3.4-.07-.88-.09-1.77-.05-1.97.03-.21.04-.38.01-.38-.06 0-3.41 1.46-6.02 2.62-1.04.46-2.2.97-2.57 1.13l-.68.29v5.11c0 5.17-.04 6.15-.24 6.15-.08 0-.1-1.55-.08-5.65l.04-5.65-.39-.16c-.35-.15-2.94-1.31-6.68-3-.88-.4-1.61-.71-1.62-.7s.02 1.25.07 2.76c.07 2.39.02 5.15-.11 5.59-.04.13.54.63 3.08 2.66.55.44 1.92 1.57 3.04 2.51 2.5 2.1 2.62 2.18 3.01 1.98.18-.09.28-.22.28-.36Zm-20.2-5.5-.05-5.81-.65-.27c-.36-.15-1.68-.74-2.95-1.32-6.29-2.89-5.79-2.69-5.86-2.45-.11.37-.27 4.23-.26 6.06l.02 1.74.75.69c.41.39 1.47 1.25 2.35 1.93s1.86 1.46 2.17 1.73c2.04 1.79 4.22 3.52 4.42 3.52.08 0 .1-1.62.06-5.82Zm1.52 4.78c.02-.15.55-.66 1.57-1.52.85-.71 1.69-1.41 1.87-1.57.74-.63.47-.03-.32.71l-.79.75.97-.79c.78-.63.96-.82.92-.98s.06-.29.43-.57c.27-.2 1.06-.84 1.77-1.42.71-.59 1.32-1.07 1.37-1.07.28 0 .09.28-.66.91-.9.76-1.17 1.07-.4.45l.91-.73.47-.38-.08-3.7c-.04-2.03-.07-3.93-.07-4.21l.01-.51-4.22 1.87c-2.32 1.03-4.38 1.93-4.58 2l-.36.13-.02 4.36c-.01 2.4.01 5.02.05 5.83l.07 1.47.53-.4c.31-.24.54-.5.56-.63Zm23.3-3.69c-.18-.22-.2-8.82-.02-8.82.08 0 .18-.04.22-.1.21-.29.26.45.29 4.49l.04 4.39-.22.08c-.14.05-.25.03-.31-.04Zm-10.98-.26c-.09-.1-.04-6.2.06-6.26.06-.04.1-.57.1-1.26 0-.95.03-1.19.14-1.19.24 0 .26.35.26 4.62v4.18l-.26-.02c-.14-.02-.27-.04-.3-.07Zm-19.41-.38-.22-.04.05-3.52c.03-1.93.08-3.55.1-3.59.15-.24.24.15.24 1.06 0 .8.03 1.06.15 1.16.24.2.2 5.04-.04 4.99-.03-.01-.16-.04-.28-.06Zm10.64-3.27c-.14-4.04-.11-4.71.19-4.91.36-.23.34-.43.4 3.42l.05 3.5h-.58zm5.49.35c.09-1.23-.03-6.66-.17-7.14-.16-.6-.26-.51-.26.26 0 .4-.03 2.32-.08 4.27l-.08 3.55.26.01c.25.02.25.01.33-.95Zm-22.68.58c.16-.05.32-.19.35-.3.03-.12.11-.17.2-.13.2.07.47-.32.47-.68 0-.23.04-.28.25-.28s.25-.05.25-.27c0-.16.03-.39.07-.52l.06-.24-.32.19c-.79.46-2 1.87-1.87 2.19.06.18.13.18.54.04Zm1.33-2.59c.21-.11.45-.2.54-.2.11 0 .15-.11.15-.48 0-.26-.04-.42-.08-.37-.11.16-.74.51-1.18.65-.52.17-.64.28-.64.59 0 .45.19.54.53.25.16-.14.47-.34.68-.44Zm12.81-2.44c5.85-2.55 7.48-3.3 7.48-3.44 0-.11-2.45-1.06-3.3-1.29-.47-.12-1.05-.17-2.05-.18-1.25 0-1.44-.02-1.83-.22-.53-.29-.56-.29-.86.02-.22.22-.33.25-1.01.25h-.77l-.38-.42c-.22-.23-.37-.45-.34-.5.11-.17.34-.07.6.27.38.5 1.4.53 1.74.05.26-.37.59-.39 1.01-.07.29.2.42.22 1.82.23 1.69.02 2.1.11 4.17.93 1.55.61 1.7.69 1.71.88 0 .14.02.13.09-.04.07-.18.41-.32 1.82-.77 3.09-.98 3.54-1.09 4.27-1.03.58.05.62.04.34-.06-.47-.18-.46-.11-.5-2.5-.05-2.59-.02-2.77.54-2.78l.38-.01-.34-.08c-.4-.1-.58-.04-.72.21-.06.12-.21.19-.39.19h-.29l.35.51c.53.8.43 1.16-.35 1.26-.34.05-.41.02-.51-.18-.51-.99-1.5-.92-1.8.12-.26.88-.02 1.58.69 2.06l.34.23.58-.55c.32-.3.59-.55.62-.55.96 0 .97.7.01 1.6l-.66.61-.73-.05c-1.35-.08-2.07-.81-2.36-2.39-.23-1.3.84-2.97 1.91-2.97.27 0 .18-.14-.11-.16-.1-.01-.28-.02-.39-.03-.11 0-.2-.08-.2-.16 0-.09-.09-.15-.21-.15-.15 0-.19-.05-.15-.16.03-.08-.04-.28-.15-.44-.12-.16-.38-.66-.59-1.12-.42-.95-.67-1.13-.67-.48 0 .22-.08.57-.18.78-.1.2-.21.44-.25.52-.23.48-1.71.18-1.85-.37-.04-.19-.1-.23-.23-.18-.25.11-.55.08-.88-.1-.62-.32-.83-.22-.86.43l-.03.57-.42.03c-.26.02-.43-.01-.43-.07s.13-.11.29-.11c.28 0 .29-.02.33-.5.02-.36-.01-.5-.1-.5-.24 0-.72-.3-.72-.46 0-.13.03-.13.28 0 .22.11.45.13.98.07l.69-.07-.79-.06c-.49-.04-.85-.12-.94-.21-.13-.13-.18-.13-.46.04-.17.1-.42.19-.56.19l-.25.01.28.2c.17.13.27.3.27.47 0 .21.02.24.1.12.05-.08.1-.25.1-.37 0-.13.05-.23.1-.23.11 0 .14.78.04 1.04-.13.33-.64-.15-.64-.61 0-.08-.07-.13-.17-.11-.14.03-.17.12-.15.39s-.03.44-.22.65c-.3.35-.46.24-.23-.15.09-.16.17-.48.17-.71 0-.33.04-.43.2-.47.11-.03.17-.09.14-.15-.09-.14.15-.36.47-.43.46-.1.4-.45-.08-.45-.76 0-1.1.16-1.18.57-.05.28-.03.38.09.45.23.13.1.28-.24.28-.24 0-.31.05-.36.28-.03.15-.1.4-.15.56-.18.58-.07.6.22.04.16-.32.33-.58.39-.58.2 0 .19.2-.05.64-.36.68-.34.79.15.71.41-.07.52.03.27.24-.21.17-.74.25-.81.12-.11-.18-.41-.13-.8.14-.4.27-1.03.34-1.25.12-.11-.1-.12-.09-.04.07.13.23.04 4.83-.09 5.09-.07.14-.19.17-.61.15l-.52-.03-.61-1.2c-.33-.66-.7-1.42-.82-1.7-.2-.44-.22-.46-.17-.16.03.18.05.88.05 1.55.01.87.03 1.16.11 1.04.19-.33.39-.21.39.22 0 .29.04.4.15.4.26 0 .16.18-.12.24-.75.14-2.59.17-3.31.06-.77-.12-.77-.12-2.47.33-.93.26-1.86.49-2.06.52-.98.18-.78.36 1.53 1.4.95.43 2.92 1.33 4.38 2 2.99 1.36 3.14 1.43 3.17 1.44.01.01.89-.37 1.95-.83Zm19.69-.02c1.07-.47 3-1.32 4.3-1.89 3.41-1.49 3.34-1.37.79-1.3-4.12.11-8.66.25-9.77.3-1.06.05-1.13.04-1.13-.14 0-.21-.27-.19 7.8-.41 3.58-.1 4.63-.17 4.3-.27-.08-.03-.62-.23-1.2-.45-1.09-.42-2.57-.78-3.23-.78-.3 0-.45-.07-.67-.3-.35-.38-.68-.38-.96-.02l-.22.27h-2.86l-.29-.42c-.34-.52-.43-.53-.61-.09-.21.5-.42.57-1.63.55-1.03-.01-1.16.01-2.78.51-3.08.93-3.39 1.08-2.83 1.29.13.05 1.49.66 3.03 1.37 3.13 1.42 5.87 2.64 5.96 2.64.04 0 .94-.39 2-.86Zm10-.23c-.07-.05-.22-.06-.32-.04-.23.06-.27-.22-.04-.31.08-.03.15-.15.15-.26 0-.29.34-.22.38.08.02.12.08.22.13.22s.09-.08.07-.18c-.02-.11.03-.17.17-.17.11 0 .23-.04.26-.09.19-.25-.32-.89-.53-.68-.19.19-.3.14-.23-.09.04-.12.08-.53.09-.92.01-.83.02-.84 1.08-.92.68-.06.78-.09.78-.26 0-.12-.05-.16-.15-.13-.22.09-.18-.14.05-.26.11-.06.2-.19.2-.29 0-.26.27-.89.6-1.36.95-1.4 1.37-3.21.68-2.99-.2.06-.72-.4-.66-.58s.28-.22.28-.05c0 .08.12.23.26.32.26.17.27.17.21-.01-.27-.84-.52-1.42-.67-1.59-.1-.11-.25-.36-.33-.55-.09-.21-.16-.28-.16-.17-.01.1-.06.15-.12.11-.06-.03-.09-.15-.06-.25.05-.19-.15-.44-.27-.32-.11.11-.77-.6-.74-.8.02-.11-.07-.26-.19-.34-.15-.1-.23-.11-.23-.04 0 .06-.16.11-.35.11s-.35-.04-.35-.1c0-.05.16-.1.35-.1.36 0 .47-.13.19-.24-.34-.13-.64-.07-.64.14 0 .56-.55.73-1.02.31-.18-.15-.43-.31-.55-.35-.32-.1-.29-.3.02-.22.27.07.39-.37.13-.47-.1-.03-.08-.1.05-.25.18-.2.18-.2-.24-.34-.46-.15-.64-.38-.3-.38.11 0 .49.11.83.24.35.14.71.27.81.3s.24.2.3.36c.09.24.17.3.42.3.35 0 2.26 1.83 2.4 2.3.04.14.18.36.3.5.13.14.29.45.35.7s.17.54.24.65c.24.38.49 1.33.41 1.62-.13.56-.59 1.59-.93 2.13-.52.82-.72 1.3-.72 1.8-.01.73-.26.9-1.36.9h-.64v.41c0 .46.11.7.51 1.17.37.42.36.7-.04 1.08-.36.36-.66.47-.86.35ZM9.56 12.62c-.18-.3.13-.32 4.74-.32 4.27 0 5.04.04 4.71.24-.19.12-9.38.19-9.45.08Zm11.62-2.54c-.37-.13-.36-.37.03-1.06.18-.3.44-.84.6-1.2l.27-.65-.56-1.09c-.63-1.2-.62-1.36.12-1.39l.31-.01-.3-.08c-.17-.04-.49-.08-.72-.09-.24 0-.43-.05-.43-.11 0-.4 1.82.09 2.16.58l.21.31.1-.32c.09-.32.09-.32.81-.35.99-.04 1.01.07.31 1.76-.29.7-.69 1.67-.89 2.17-.55 1.33-.6 1.42-.87 1.54-.29.13-.78.13-1.15-.01Zm-3.33-.27c-1.59-.72-1.93-3.36-.58-4.63 1.03-.97 3.1-.56 3.68.73.39.86-.59 1.2-1.28.45-.66-.7-1.31-.63-1.68.17-.32.73-.18 1.55.37 2.13.4.44.45.43 1.05-.13 1.06-.99 2.07-.45 1.2.64-.65.83-1.78 1.09-2.76.64Zm-9.06-.32c.16-.46.14-.66-.08-.72a.244.244 0 0 1-.19-.24c.02-.19.78-.22.78-.02 0 .05.26.09.57.09.65 0 .93.18.93.61 0 .37.24.59.64.59.57 0 .72-.34.32-.72-.27-.26-.97-2.22-1.19-3.33l-.14-.7-.61-.03-.61-.03-.21.73c-.21.74-.53 1.68-.89 2.68-.2.55-.27 1.21-.14 1.33.21.21.71.06.82-.24Zm13.67-.04c.16-.4.19-.85.04-.85-.05 0-.1-.13-.1-.3 0-.37.27-.31.32.07.02.19.12.05.41-.61.51-1.16.53-1.21.39-1.12-.07.04-.12.02-.12-.03 0-.06-.07-.11-.15-.11s-.24-.14-.37-.3c-.24-.33-.38-.25-.38.22 0 .22-.04.26-.17.21-.16-.06-.16-.05-.04.1.07.09.2.17.27.17.19 0 .17.16-.04.37-.1.1-.27.38-.36.63-.1.25-.33.73-.52 1.08-.44.81-.43.82.17.82.48 0 .51-.02.65-.35ZM4.9 8.67c0-.82-.01-.89-.15-.71-.14.19-.14.18-.15-.03 0-.13-.03-.23-.07-.23-.05 0-.18-.03-.3-.06C4 7.58 4 7.59 4 8.53v.95l.38.09c.52.13.52.13.52-.9Zm8.2-.47V6.7l-.25-.1c-.14-.05-.26-.14-.26-.2-.05-.3-.02-.35.21-.37.63-.05.66-.01 1.57 1.87l.86 1.8h.75V7.68c0-1.12.02-2.16.04-2.33.03-.29.02-.3-.37-.3-.37 0-.4.02-.39.28 0 .15.01.92.02 1.7.02 1.43.02 1.44.27 1.55.14.06.25.16.25.22 0 .17-.28.11-.39-.08-.09-.15-.1-.15-.11.06 0 .52-.33-.07-1.64-3L13.31 5h-.91v1.1c0 .61.04 1.1.09 1.1.18 0 .41.32.41.56 0 .3-.17.32-.22.02-.02-.12-.09-.23-.15-.26-.1-.03-.13.23-.13 1.07V9.7h.7zm6.31 1.43c.36-.07 1.19-.82 1.19-1.08 0-.32-.51-.16-1.12.37l-.59.51-.34-.16c-.7-.33-1.25-1.55-1.06-2.37.31-1.36 1.42-1.79 2.33-.88.61.61 1.1.44.66-.23-.62-.93-2.34-1.07-3.06-.25-.68.77-.89 2.54-.3 2.48.22-.02.28.01.28.18 0 .13-.07.2-.2.2-.3 0-.24.22.18.62.61.6 1.2.78 2.03.61Zm9.46-.09c.04-.11-.1-.3-.45-.6-.32-.28-.57-.6-.68-.89-.2-.54-.74-.69-.74-.21 0 1.01 1.58 2.45 1.87 1.7Zm4.51-.24c.21 0 .43.05.5.12.09.09.12-.01.12-.45 0-.53-.02-.57-.24-.57a.54.54 0 0 1-.36-.15c-.37-.45-.6-.19-.59.68 0 .59.03.76.09.6.07-.18.17-.23.48-.23Zm6.3.24c.02-.01-.2-.6-.49-1.31-.28-.7-.64-1.71-.79-2.23-.3-1.04-.37-1.1-1.16-.96-.29.06-.33.11-.45.59-.06.29-.23.83-.36 1.21-.29.88-.29.86.1.86.31 0 .35-.04.46-.41.07-.23.15-.47.17-.54.03-.07-.04-.15-.16-.18-.25-.06-.22-.32.03-.32.09 0 .23-.09.31-.2.32-.44.7-.1.79.72.08.63.11.7.28.66.14-.04.19 0 .19.13-.01.4-.24.54-.87.54-.42 0-.64.05-.73.15-.11.13-.03.15.64.15.57 0 .76.03.76.14q0 .135.24.09c.3-.06.46.16.17.24-.21.05-.25.21-.15.59.05.19.83.25 1.02.08ZM46 7.89V6.08l-.32.07c-.18.04-.33.08-.34.09-.04.05-.2 3.24-.16 3.34.02.07.21.12.43.12H46zm-13.57.89c.04-.65.02-.88-.1-1.07-.09-.15-.11-.26-.05-.3.06-.03.09-.39.07-.84-.04-1.1.08-1.24.96-1.09 1.52.27 1.43 1.82-.11 1.82-.23 0-.3.04-.3.2 0 .15.07.2.29.2.37 0 .62.1.55.21-.03.05.12.09.33.09.26 0 .44.06.56.2.18.21.13.5-.09.5-.1 0-.14.13-.14.45v.45h.4c.4 0 .52-.14.29-.37-.05-.05-.11-.33-.13-.6-.03-.66-.27-1.03-.66-1.03-.41 0-.37-.11.09-.33.48-.22.66-.6.57-1.23-.11-.82-.3-.91-2.01-.95l-1.3-.04-.03 2.28-.02 2.27h.77zm4.13.34c.03-.26.14-.63.23-.82l.17-.35-.44.04c-.48.04-.72.37-.72 1 0 .16-.04.33-.1.36-.23.14-.07.25.34.25h.45zM12.19 4.79c.18-.15.18-.16-.05-.36l-.23-.21-.16.35c-.2.42-.37.38-.48-.1-.05-.2-.13-.37-.17-.37-.05 0-.04.15.01.32.05.18.07.71.03 1.18-.06.79-.04.92.26 1.8.57 1.64.55 1.65.58-.5.02-1.77.04-1.96.21-2.11ZM10.75 8.3c.09-.27-.26-.34-1.31-.27-.76.04-.84.03-.84-.13 0-.12.09-.2.23-.22.19-.03.24-.13.35-.78.19-1.06.26-1.2.61-1.2.33 0 .33.01.51 1.26.11.76.13.81.35.77.27-.06.38.17.25.52-.11.29-.24.34-.15.05Zm4.14-1.87c-.01-.85-.03-1.01-.1-.75-.19.63-.4.4-.33-.35.09-1.01.18-1.1.98-1.05.74.05.8-.02.51-.59-.11-.2-.13-.35-.06-.47.05-.1.11-.36.13-.58l.03-.39-.57.03c-.32.02-.59-.02-.63-.08-.08-.13-.62-.13-.7 0-.03.05.01.23.09.39.13.24.13.31.02.4-.2.17-.76.02-.76-.19 0-.26-.43-.33-.85-.13l-.35.17V4.2l.43.01c1.46.04 1.29-.02 1.51.57.18.5.18.56.03.81-.15.26-.14.31.19 1.07.18.43.34.8.34.81 0 .02.02.03.05.03s.05-.48.04-1.07Zm-9.99.22c0-.53.04-.75.13-.75.08 0 .07-.03-.03-.1-.3-.19.05-.25 1.21-.21 1.04.03 1.2.01 1.25-.14.16-.41-.14-.48-1.75-.4-1.74.08-1.57-.05-1.64 1.31l-.05.82.32.1c.56.18.56.18.56-.63Zm22.69.53c.05-.13.14-.41.2-.63.28-1.06 1.41-1.37 2.11-.57.64.72 1.08.48.55-.3-.96-1.41-3.55-.38-3.55 1.42 0 .39.54.45.69.08Zm6.19-.44c.57-.4.12-.94-.8-.94-.28 0-.44.81-.21 1.03.12.13.79.07 1.01-.09ZM45.55 5.6c.03-.05.15-.1.26-.1.13 0 .18.04.13.12s.02.09.26.05c.18-.04.52-.07.76-.07.36 0 .44-.03.44-.19 0-.19-2.81-.44-3.09-.27-.22.14-.12.45.17.49.54.08 1.01.07 1.07-.03Zm-6.68-.17c-.03-.04-.08-.26-.11-.48l-.07-.4-.89.03c-1.07.04-1.23-.13-.22-.22.37-.04.83-.09 1.03-.11.4-.05.49.07.49.68 0 .15.05.27.11.27.07 0 .08-.18.04-.55-.07-.53.12-.82.29-.42.03.08.08.07.16-.06.13-.21.34-.23.26-.02-.03.09 0 .15.09.15.24 0 .65-.22.65-.36 0-.06.07-.14.15-.18.08-.03.15-.14.15-.25 0-.19.25-.35.41-.26.13.08.5-.57.43-.77-.04-.13 0-.15.18-.11s.2.02.08-.06c-.19-.13-.09-.22.27-.24.33-.02.48.17.16.21-.22.03-.22.03-.02.23.24.24.36.18.56-.28.17-.42.53-.23.53.27 0 .24.21.83.52 1.47.17.35.28.17.21-.38-.04-.37-.13-.58-.34-.79-.16-.16-.29-.36-.29-.44 0-.23.27-.2.35.04s.25.27.25.04c0-.51.25.01.26.54.01.34.07.75.14.91.17.42.07.66-.19.49-.17-.11-.23-.09-.41.1-.35.38-.61.17-.81-.63-.06-.27-.17-.56-.23-.64-.07-.1-.06-.16.07-.26.09-.07.17-.18.17-.26-.01-.09-.07-.06-.19.09-.2.22-.81.32-.81.12 0-.21-.18-.09-.31.21-.07.19-.25.37-.45.45-.26.11-.44.31-.44.49 0 .01.1.06.23.1.21.07.21.07.02.12-.1.03-.21 0-.23-.06s-.18 0-.38.15c-.26.2-.42.25-.73.22l-.4-.03-.03.45c-.03.44-.53.74-.71.43Zm-8.71-1.8c-.35-.82-.38-1.13-.07-1.13.13 0 .27.2.49.7.3.67.31.84.03.58-.09-.09-.08 0 .03.26.23.54.24.54.31.02.08-.49.25-.63.25-.2 0 .2.04.24.19.19.12-.03.23 0 .28.09.11.2 1.21.26 1.28.07.04-.1.17-.12.53-.07l.47.06-.4-.19c-.31-.15-.49-.34-.75-.82-.48-.85-1-1.28-2-1.63-.56-.2-.92-.39-1.14-.62-.66-.68-.75-.48-.5 1.21.07.48-.21.93-.5.82-.1-.04-.15-.1-.12-.15.02-.04-.1-.06-.27-.05-.46.05-.78-.16-.94-.61-.19-.56-.63-.94-.63-.55 0 .21.63 1.55.91 1.93.16.22.29.45.29.51 0 .08.3.12.88.13 1.05.03 1.52.1 1.53.26.01.06.03.03.06-.06.02-.1-.07-.43-.21-.75Zm-19.56.54c0-.07-.07-.22-.15-.33-.19-.25-.19-.48 0-.4.19.07.19-.05.02-.47-.19-.45-.47-.68-.47-.38 0 .11.05.21.1.21.13 0 .13.27 0 .35-.2.13-.41-.17-.38-.54.02-.28.08-.36.27-.41l.25-.06-.27-.21c-.36-.28-1.71-.84-2.17-.9-.73-.1-.79.57-.15 1.71l.37.66h.8c.7 0 .79.02.76.18-.03.12-.12.16-.31.14-.31-.03-.37.17-.11.42.2.21 1.44.23 1.44.03Zm14.19-1.44a.4.4 0 0 1 0-.15c0-.05-.1-.08-.23-.08-.15 0-.33-.11-.46-.27-.12-.16-.29-.31-.38-.35-.14-.05-.14-.07.04-.07.11-.01.3.08.42.19.51.48.54.19.04-.39l-.38-.44-.31.17c-.76.39-1.14.08-.66-.52.16-.2.35-.47.42-.59.07-.15.21-.23.37-.23.19 0 .22.03.14.12-.79.95-.88 1.27-.24.87l.33-.2.33.37c.18.2.43.52.56.71.12.18.27.33.32.33.14 0 .12.34-.02.48s-.27.16-.29.05Zm3.81-.81c0-.82-.65-1.76-1.18-1.7-.37.04-.34.58.06.98.48.48.72.78.72.89 0 .22-.19.1-.56-.34-.2-.25-.43-.45-.51-.45-.09 0-.02.1.15.25.17.14.33.39.37.55.06.28.1.3.51.3h.44z"/></svg>