<svg xmlns="http://www.w3.org/2000/svg" width="51" height="51" viewBox="0 0 51 51"><path fill="#fff" fill-rule="evenodd" stroke="#fff" stroke-width=".748" d="M24.85 32.8c-.56-1.02-.83-1.41-.98-1.45-.12-.02-.6-.11-1.07-.2-1.95-.37-4.68-1.24-4.78-1.53-.03-.09.18-.12.8-.13.46-.01 1.24-.04 1.73-.08l.9-.06-.75-.13c-5.33-.96-5.99-1.15-7.15-2.09-.98-.79-.94-.83.92-.84 3.19-.02 3.18-.06-.17-.73-1.62-.32-3.05-.65-3.17-.73-.24-.14-1.33-1.42-1.33-1.55 0-.04.67-.08 1.49-.08 2.8 0 2.81-.05.16-.71-2.81-.71-2.66-.64-3.09-1.41-.56-1.01-.56-.98.05-.99.3-.01.78-.04 1.08-.07l.53-.07-1.33-.59c-.74-.32-1.39-.64-1.45-.7-.12-.12-.54-1.31-.54-1.53 0-.11 1.27-.13 6.78-.13h6.79l.15.79c.3 1.51 1.34 3.01 2.54 3.68l.39.22.63-1.05c.72-1.21.71-1.14.3-1.68-.78-1.02-.98-1.17-1.47-1.1-.43.07-.44.06-.38-.17.04-.13.07-.34.07-.46V17h2.49c2.29 0 2.5.01 2.55.18.06.21.5 2.57.68 3.67l.13.8.77-.77c.86-.87 1.37-1.77 1.64-2.93.1-.38.18-.76.2-.83.03-.09 1.47-.12 6.8-.12h6.76l-.06.28c-.2.86-.49 1.43-.8 1.57-.17.07-.82.35-1.43.63l-1.12.49.61.07c.33.03.81.06 1.04.06.51 0 .52.04.18.73-.54 1.06-.38.97-2.98 1.63-2.68.67-2.71.72-.39.73.89.01 1.64.05 1.67.1.07.11-.75 1.22-1.09 1.49-.15.12-1.2.37-3.2.77-3.39.68-3.42.73-.43.74 2.15.01 2.15.01.85 1-1.05.8-1.19.85-4.17 1.41-3.35.64-3.52.68-2.95.7 2.03.1 2.75.16 2.76.25.02.25-2.57 1.1-4.54 1.5l-1.12.22-.77 1.39c-.43.76-.82 1.4-.87 1.42s-.43-.6-.86-1.38Zm1.58-.33.69-1.22.07-2.15c.04-1.18.06-2.18.04-2.22-.03-.05-.74-.08-1.6-.08h-1.56l.06 2.14.06 2.14.73 1.31c.4.72.75 1.31.78 1.31s.36-.55.73-1.23Zm-2.77-1.62c-.18-.48-.78-1.26-.92-1.21-.09.03-.96.06-1.95.06-.98 0-1.79.04-1.79.09 0 .16 3.75 1.17 4.49 1.2.17.01.22-.03.17-.14Zm5.1-.05c.55-.11 1.52-.37 2.17-.57 1.51-.47 1.36-.54-1-.51l-1.74.03-.35.63c-.41.72-.45.7.92.42Zm-4.93-2.12-.06-1.88h-.98c-.55 0-.99.03-.99.07s.24.5.53 1.02c.3.53.75 1.36 1.01 1.84.27.49.49.87.51.85s.01-.87-.02-1.9Zm4.62.02c.43-.8.81-1.49.86-1.55a.36.36 0 0 0 .09-.22c0-.18-1.79-.19-1.85 0-.11.33-.1 3.54.01 3.38.06-.09.46-.81.89-1.61Zm5.05-.35c2.58-.51 2.88-.61 3.72-1.27l.57-.45-1.72-.06c-.94-.04-2.25-.07-2.9-.07-2.17 0-1.87-.09 4.63-1.4l2.05-.41.48-.51c.26-.29.47-.55.47-.59s-1.03-.1-2.3-.14c-1.7-.06-2.3-.11-2.3-.2 0-.07.99-.37 2.63-.79 1.44-.37 2.79-.72 2.99-.77.36-.09 1.11-1.09.94-1.26-.03-.04-.61-.09-1.28-.12-.68-.03-1.23-.1-1.25-.16s.48-.32 1.09-.58c2.14-.9 2.41-1.06 2.62-1.59.11-.26.17-.5.14-.54-.06-.06-1.56.53-3.63 1.41-.8.34-1.33.65-1.95 1.15-3.52 2.79-7.45 5.59-7.62 5.42-.06-.06-.1-.13-.07-.15.02-.01.43-.28.92-.6.48-.31 2.32-1.66 4.08-3 1.77-1.33 3.3-2.48 3.39-2.55.1-.07 1.1-.51 2.22-.97l2.03-.85H31.2l-.06.27c-.4 1.83-1.12 3.05-2.35 3.97-.73.55-.74.55-.83-.3-.07-.71-.38-2.54-.56-3.42l-.12-.52h-2.3c-1.79 0-2.29.03-2.26.12.03.07.2.15.39.19.47.07.5.09 1.19.94.74.91.75.82-.11 2.26-.79 1.31-.78 1.3-1.34.92-1.55-1.04-2.75-2.87-2.75-4.19v-.24h-6.17l-6.18.01.6.25c.33.14 1.25.53 2.05.86 1.06.45 1.62.75 2.08 1.12.35.28 2.22 1.66 4.15 3.06 1.93 1.41 3.52 2.61 3.55 2.68.09.27-.26.07-1.47-.81-.69-.52-2.07-1.52-3.06-2.23s-2.27-1.66-2.85-2.11c-.97-.76-1.21-.89-3.16-1.72-1.16-.49-2.23-.93-2.38-.97l-.27-.06.21.53.2.55c0 .01.79.37 1.75.8.97.42 1.74.82 1.72.88-.02.07-.51.13-1.24.16-.67.03-1.24.07-1.27.1s.09.3.27.6l.33.55 2.8.72c1.53.4 2.89.75 3.02.78.12.03.22.12.22.2 0 .12-.17.15-.92.15-.51 0-1.57.03-2.35.07-1.59.07-1.53.01-.84.79l.34.38 2.36.49c1.3.27 3.05.63 3.9.8 2.14.45 2.1.57-.16.57-.98 0-2.28.03-2.9.07l-1.11.06.56.42c1.15.84.65.69 5.86 1.7 1.59.31 2.92.54 2.97.53.08-.03-.57-1.24-2.39-4.4-.56-.97-1.02-1.84-1.02-1.92 0-.14.67-.16 6.3-.16 5.93 0 6.3.01 6.3.18 0 .09-.37.8-.82 1.57-.99 1.71-2 3.51-2.38 4.26l-.29.57 1.37-.29c.75-.15 2.43-.49 3.72-.74Zm-2.92-3.47 1.01-1.73-3-.03c-1.64-.01-4.33-.01-5.98 0l-2.98.03 1 1.73 1 1.72h7.94zm-8.63.81c-.04-.05-.04-.21-.01-.35.05-.19 0-.33-.19-.55-.29-.36-.25-.49.15-.49.2 0 .35-.09.5-.3.12-.16.27-.3.35-.3.07 0 .18.14.24.3.08.26.15.3.45.3.46 0 .54.16.23.48-.19.21-.24.34-.2.58.06.4-.08.49-.46.3-.26-.14-.33-.14-.65-.01-.23.1-.37.11-.41.04Zm5.87-.26c.04-.29-.01-.43-.19-.63-.3-.32-.25-.44.18-.48.26-.02.38-.1.51-.32.22-.38.41-.38.55 0 .1.27.16.3.52.3.47 0 .51.11.16.46-.17.17-.25.36-.25.59 0 .43-.13.51-.48.29-.26-.15-.31-.15-.6 0-.43.22-.45.21-.4-.21Zm-2.92-.02c0-.18-.1-.45-.21-.6-.26-.36-.18-.51.25-.51.28 0 .36-.05.46-.3.07-.16.19-.3.27-.3s.19.14.24.3c.09.24.17.3.39.3.57 0 .64.1.33.42-.21.22-.27.36-.24.65.03.35.02.35-.26.29-.35-.09-.61-.1-.95-.01-.26.07-.28.05-.28-.24Zm-1.76-.17c-.05-.18 0-.32.17-.5l.22-.24h-.32c-.25 0-.34-.06-.42-.27l-.11-.28-.1.28c-.08.21-.16.27-.41.27h-.3l.21.23c.15.16.19.3.15.46-.06.25-.07.25.4.06.07-.03.21.01.32.09.26.2.26.2.19-.1Zm5.88 0c-.03-.17.03-.33.18-.49l.22-.24-.33-.03c-.26-.02-.35-.09-.4-.28l-.06-.25-.13.28c-.1.2-.2.27-.42.27-.33 0-.36.1-.09.34.12.11.17.25.13.38-.04.18-.03.19.17.09.16-.09.27-.08.48.03.16.08.29.15.29.16.01 0-.01-.11-.04-.26Zm-3.2.04c.19.19.28.14.28-.17 0-.18.06-.31.18-.36.14-.05.11-.09-.15-.2-.17-.07-.34-.23-.38-.36l-.08-.23-.14.27c-.07.15-.22.27-.33.27-.26 0-.33.15-.15.3.08.07.15.23.15.36 0 .22.02.23.25.12.19-.09.28-.09.37 0Zm-.95-6.86c-.34-.37-.09-.82.44-.82.46 0 .69.17.69.5 0 .48-.78.7-1.13.32Z"/></svg>