<svg xmlns="http://www.w3.org/2000/svg" width="51" height="51" viewBox="0 0 51 51"><path fill="#fff" fill-rule="evenodd" stroke="#fff" stroke-width=".696" d="M16.51 48.05c-.53-.17-1.16-.75-1.33-1.24-.19-.53-.19-41.99 0-42.52.07-.19.27-.49.45-.66.58-.55.77-.57 4.67-.54 3.99.03 4.04.03 5.04.86.58.48.9.47 1.49-.05.9-.79.91-.8 4.55-.8 3.82 0 4.05.05 4.6 1.05.24.42.21 42.5-.03 42.95-.24.46-.8.87-1.35.99-.82.18-17.51.14-18.09-.04Zm18.12-.26c.54-.15 1.06-.65 1.18-1.14.11-.47.1-41.37-.01-42.03-.2-1.13-.62-1.26-4.3-1.26-3.48-.01-3.49-.01-4.41.69-.94.71-1.14.72-2.03.06-1.02-.76-.96-.75-4.91-.75-3.96-.01-4.13.02-4.58.73l-.22.36V25.5c0 19.4.01 21.07.17 21.35.23.43.6.75 1.05.9.49.18 17.44.22 18.06.04ZM8.36 43.6c-.58-.1-.93-.34-1.21-.81C6.86 42.3 6.89 9.6 7.18 9c.32-.66.53-.7 3.57-.7 3.7 0 3.92.08 3.8 1.42-.13 1.51-.16 3.81-.06 3.91.18.18.14 1.37-.04 1.43-.23.09-.22 2.9.01 3.15.19.21.22 25.15.03 25.34-.13.13-5.44.17-6.13.05Zm28.36-.07-.22-.18.02-13.41c.02-10.86.05-13.44.16-13.57.1-.12.14-.93.15-3.59.03-4.75-.25-4.41 3.67-4.46 2.96-.04 3.22 0 3.69.54l.31.35-.02 16.74-.03 16.74-.21.28c-.5.67-.56.68-4.1.71-2.97.03-3.22.02-3.42-.15Zm-22.55-.21c.21-.13.2-24.74-.01-25.04-.22-.32-.23-2.89-.01-3.32.17-.32.2-1.12.05-1.21-.14-.09-.13-3.28.01-3.42.05-.05.09-.38.07-.74-.05-1-.05-1-3.6-.97-2.84.03-2.88.03-3.1.26-.3.29-.33 2.07-.36 20.25-.02 12-.01 13.12.14 13.44.19.39.49.62.97.73.42.1 5.68.12 5.84.02Zm29.46-.15c.65-.42.6 1.03.58-17.28-.01-17.96.02-16.86-.57-17.14-.41-.19-5.28-.21-5.84-.02-.68.23-.7.37-.7 4.28 0 2.96-.02 3.48-.15 3.59-.16.13-.24 26.58-.08 26.74.18.17 6.48.02 6.76-.17Z"/></svg>