<svg xmlns="http://www.w3.org/2000/svg" width="51" height="51" viewBox="0 0 51 51"><path fill="#fff" fill-rule="evenodd" stroke="#fff" stroke-width=".384" d="M21.1 48.04c-.25-.02-1.17-.08-2.05-.14-3.65-.25-9.18-.91-11.55-1.38l-.85-.17.02-.4c.01-.22.05-.74.08-1.16l.06-.76-2.38-.07C2.21 43.9.96 43.8.82 43.65c-.06-.06.9-2.51 1.7-4.31l.49-1.12-.25-.98c-.48-1.96-1.18-5.15-1.13-5.2.03-.03.74.08 1.59.25 2.67.54 4.14.71 4.05.48-.03-.08-.42-1.86-.87-3.98-.45-2.11-1.11-5.19-1.46-6.84C2.27 9.5 2.31 9.79 2.85 8.82c.62-1.14.62-1.14 7.9-2.73 2.26-.49 4.37-.96 4.7-1.04 1.51-.37 7.46-1.47 7.95-1.47.57 0 1.14.19 1.64.55.34.24 2.17.19 3-.09.39-.13.64-.15 1.3-.08.44.04 2.03.06 3.52.05l2.72-.04.52.29c.29.16.76.55 1.04.87l.52.58 2.94.69c7.86 1.84 7.64 1.78 8.27 2.26.68.52 1.09 1.63.94 2.54-.1.56-2.28 10.21-4.36 19.25-.29 1.26-.51 2.32-.49 2.34.06.06 1.9-.26 3.27-.56.7-.15 1.22-.22 1.27-.17.04.05-.22 1.4-.62 3.11l-.71 3.03.61 1.42c1.66 3.88 1.7 4.03 1.15 4.12-.93.15-2.51.26-4 .26h-1.61l.05.94.06.94-.89.2c-3.1.72-7.5 1.4-11.54 1.78-1.63.15-9.57.28-10.9.18Zm11.62-.52c3.82-.4 7.29-.94 10.21-1.59l1.17-.26v-.34c0-.3-.03-.33-.22-.28-1.48.34-8.36 1.36-11.58 1.72-2.65.29-11.31.26-14.4-.05-3.07-.31-8.85-.99-9.95-1.17-1.01-.16-.96-.17-.98.26l-.02.32.7.14c3.02.57 9.01 1.25 12.85 1.47 2.18.12 10.34-.03 12.22-.22Zm-3.4-.82c3.22-.17 7.29-.68 12.13-1.51 2.95-.51 2.67-.4 2.6-1.02-.11-1-.55-6.72-.55-7.2v-.49l-.32.04-3.08.51c-2.88.48-6.75 1.03-9.45 1.34-1.98.22-7.33.25-9.2.05-4.33-.47-11.22-1.44-12.92-1.82-.58-.12-.83-.14-.83-.06 0 .27-.41 5.37-.55 6.85-.09.9-.12 1.67-.08 1.72.15.13 7.53 1.02 11.63 1.4 2.94.26 7.51.35 10.62.19Zm-14.72-.87c-.39-.07-.4-.13-.24-.86.19-.83.33-.7-1.14-1.01-1.73-.37-1.67-.38-1.82.33-.18.84-.2.86-.77.75l-.48-.09.01-.45c.02-1.22.24-2.19.52-2.22.32-.04.67-.67 1.52-2.73.34-.82.65-1.53.69-1.57.06-.07 3.19.46 3.28.56.03.02-.02.35-.11.73-.12.54-.66 3.7-.66 3.88 0 .03.08.05.18.05.5.01.5.09-.09 2.33-.1.39-.2.42-.89.3Zm8.33-1.05c.04-.62.07-2.11.07-3.3V39.3h1.48c2.27.01 2.91.4 3.09 1.88.17 1.45-.65 2.31-2.4 2.53l-.87.12v2.07h-1.43zm5.35 1.01c-.06-.04-.08-.11-.05-.15.03-.05.42-1.49.87-3.19.95-3.55.83-3.31 1.58-3.39.31-.04.64-.09.73-.12.12-.03.22.1.39.48.12.29.78 1.72 1.46 3.17.69 1.45 1.22 2.66 1.19 2.69-.06.06-.91.21-1.26.21-.23.01-.31-.08-.6-.74-.24-.53-.38-.74-.49-.7-.08.02-.52.07-.96.11-1 .08-.95.04-1.19.89l-.2.7-.68.05c-.38.03-.74.02-.79-.01Zm-12.99-.56c.46-1.78.47-1.83.11-1.83-.1 0-.22-.04-.25-.1-.05-.08.55-3.82.71-4.36.05-.2-.02-.22-1.18-.43-.68-.13-1.32-.25-1.43-.27-.17-.04-.26.09-.59.93-.77 1.93-1.46 3.24-1.76 3.34-.26.09-.28.15-.39 1.09-.14 1.08-.12 1.2.24 1.2.25 0 .27-.04.51-1.03.1-.42.24-.43 1.8-.13 1.82.36 1.78.32 1.59 1.21-.08.38-.15.71-.15.72 0 .02.16.03.35.03.31 0 .35-.03.44-.37Zm1.83.27c-.46-.11-.46-.12-.21-.69l.21-.51h.49c.75 0 .89-.2.63-.91-.37-1.07-1.34-4.24-1.34-4.42s.05-.19.63-.13c.77.08.73.01 1.26 1.95.25.88.48 1.58.52 1.54.04-.05.38-.73.75-1.53.82-1.79.7-1.66 1.48-1.62.85.05.9-.15-.69 3.01-1.71 3.4-2.05 3.71-3.73 3.31Zm6.88-.42c0-.29.03-.76.06-1.04l.06-.51.77-.07c1.76-.16 2.4-.7 2.41-2.01 0-1.46-.92-2.01-3.22-1.93l-.83.03-.03 3.03-.02 3.02h.8zm5.73-.25.23-.78.8-.12c.43-.06.99-.13 1.23-.15l.44-.03.31.73.31.74.48-.05c.66-.06.67.05-.24-1.88-.45-.96-1.05-2.26-1.34-2.89l-.52-1.15-.44.04c-.81.06-.81.06-1.18 1.52-.19.74-.55 2.12-.81 3.07l-.47 1.72h.96zm-11.09.33c.49-.2.71-.56 2.04-3.22l1.21-2.42-.41-.06c-.5-.08-.45-.14-1.07 1.19-.91 1.98-1.25 2.51-1.35 2.13-.9-3.3-.98-3.56-1.2-3.62-.23-.06-.66-.08-.66-.03 0 .1.85 2.87 1.15 3.75.44 1.28.27 1.72-.67 1.72-.44 0-.87.54-.5.63.37.1 1.14.06 1.46-.07Zm16.52-.34c-.03-.2-.17-1.2-.31-2.22s-.31-2.28-.39-2.8c-.16-1.1-.16-1.09.56-1.17.64-.06.55-.21.84 1.45.25 1.46.58 1.41 1.23-.2.68-1.69 1.01-2.03 1.89-1.96l.37.03v.65c0 .6-.02.65-.23.68-.28.04-.44.27-.83 1.24l-.31.78 1.43 1.38c.78.76 1.4 1.43 1.36 1.48-.03.06-.41.17-.82.24l-.77.13-1.07-1.07c-1.04-1.04-1.09-1.07-1.47-1.04-.32.02-.39.06-.36.23.01.11.08.67.16 1.25.16 1.22.19 1.16-.61 1.23l-.61.07zm1.11-.06s-.06-.56-.15-1.23c-.18-1.38-.19-1.34.42-1.4l.45-.06 1.13 1.07 1.13 1.07.5-.06c.27-.04.52-.09.55-.12s-.55-.63-1.28-1.35l-1.34-1.3.23-.61c.36-1.01.68-1.57.94-1.69.21-.09.25-.18.25-.54v-.43l-.32.05c-.71.13-.84.3-1.54 2.04-.41 1.03-.43 1.05-.8 1.13-.57.12-.6.08-.84-1.22l-.23-1.21h-.33c-.46 0-.46-.04-.15 2.06.16 1.04.34 2.35.41 2.92l.12 1.03.42-.06c.22-.04.42-.08.43-.09ZM6.9 43.33v-.38H4.83c-1.15 0-2.38-.04-2.75-.08l-.67-.08-.16.31c-.09.18-.15.33-.13.35.1.11 2 .23 3.76.24l2.02.01zm41.96.26c1.27-.13 1.2-.1 1.04-.49l-.13-.31-.66.08c-.36.04-1.62.08-2.79.08-2.29 0-2.2-.02-2.06.53.07.26 2.5.32 4.6.11Zm-18.66-.63c0-.15.09-.66.19-1.14s.22-1.04.25-1.24c.13-.73.42-.27 1.43 2.29.05.13-.21.19-1.19.28l-.68.07zm-17.44-.02c-.98-.16-.94-.05-.43-1.15.24-.52.61-1.36.83-1.87l.39-.94.45.07c1.07.15 1.02-.05.58 2.33l-.32 1.72-.35-.01c-.2-.01-.71-.07-1.15-.15Zm18.92-.19c.02-.01-.14-.44-.34-.94-.36-.9-.54-1.12-.54-.69-.01.13-.09.58-.19 1.01l-.19.79.62-.07c.33-.04.62-.08.64-.1Zm-17.35-1.47c.35-1.95.36-1.84-.14-1.92-.52-.08-.4-.23-1.16 1.51-.35.82-.67 1.53-.69 1.6-.04.07.11.14.43.18.26.04.52.08.58.1s.24.04.41.04l.3.01zm9.82 1.43c-.03-.02-.05-.58-.05-1.24v-1.19l.9.04c.81.03.92.06 1.16.29.53.54.37 1.66-.28 1.93-.32.13-1.64.26-1.73.17Zm-17.33-.13c.13-.11.21-.78.42-3.58.33-4.28.33-4.26.63-4.54l.24-.22-1.32-.13c-1.64-.15-2.7-.33-3.79-.65-.47-.13-.86-.24-.86-.23-.01.01.24 1.16.56 2.55l.58 2.53-.34.74c-.5 1.08-1.43 3.39-1.39 3.44.21.21 5.02.29 5.27.09Zm42.65-.03c.23-.07.09-.46-1.21-3.46l-.38-.85.57-2.48c.32-1.36.56-2.49.53-2.51-.02-.02-.37.06-.78.19-.92.29-2.15.51-3.83.67l-1.28.12.26.21c.25.2.26.26.35 1.76.12 1.86.38 5.27.46 5.92.04.32.11.48.22.52.24.07 4.83-.01 5.09-.09Zm-24.16-.15c.66-.12.89-.36.89-.94 0-.67-.26-.86-1.19-.86h-.61v.95c0 1.08-.05 1.03.91.85Zm6.04-4.39c3.2-.37 8.2-1.12 10.93-1.62l1.12-.21v-1.21l-.32.06c-.18.03-.96.2-1.73.37-9.94 2.17-17.13 2.43-25.9.95-3.65-.62-4.39-.76-5.99-1.1-.88-.19-1.61-.33-1.62-.32s-.04.29-.05.61c-.03.59-.02.6.27.68 1.37.39 10.64 1.69 14.04 1.97 1.9.16 7.22.06 9.25-.18Zm-2.03-1.07.68-.06.36-.59c.29-.48.94-2.04.94-2.25 0-.03-.26.18-.57.47-2.47 2.26-6.18.75-6.18-2.51 0-2.25 1.11-3.59 5.7-6.84 1.83-1.3 3.1-2.32 4.06-3.24.94-.89.9-.9 1.39.3.63 1.56 1.39 3.1 2.52 5.08 2.06 3.6 2.33 4.33 2.33 6.2 0 .69-.04 1.38-.09 1.54-.1.33-.19.33 1.32 0l.72-.16v-.49c0-.27.07-.66.16-.88.17-.43.13-.41 1.41-.56.36-.05.54-.12.57-.23.03-.1.3-1.25.6-2.57 1.23-5.4 2.51-11.03 3.38-14.8 1.01-4.41 1.08-4.99.7-5.72-.29-.56-.84-.99-1.57-1.22-.98-.32-14.36-3.43-17.63-4.1-2.29-.47-3.05.13-3.72 2.91-.85 3.56-3.41 14.78-4.46 19.58-.24 1.13-.56 2.48-.69 3-.61 2.37-1.45 6.11-1.45 6.48 0 .47-.07.46 2.4.62 2.88.19 5.26.2 7.12.04Zm2.99-.31.36-.05.07-.77c.17-2 .56-2.88.77-1.74.12.63.6 1.61.98 1.97l.3.29 1.38-.23c4.02-.66 3.94-.62 4.14-1.71.3-1.71-.37-3.7-2.45-7.19-.75-1.25-1.61-2.97-2.22-4.4-.26-.63-.49-1.17-.51-1.19-.01-.02-.39.31-.85.74-.79.73-2.27 1.87-5.35 4.12-3.69 2.69-4.88 4.87-3.81 6.98 1.3 2.55 4.56 2.47 6.31-.15.11-.16.2-.21.27-.14.19.19-.6 2.54-1.1 3.24-.11.15-.2.31-.2.35 0 .07 1.15 0 1.91-.12Zm-12.72-.75c.06-.46.34-1.75.61-2.88.59-2.42.58-2.36.21-2.75-1.04-1.08-2.31-3.38-2.51-4.53-.5-2.79 1.94-5.44 4.79-5.2l.35.03.27-1.15c.15-.63.55-2.39.89-3.9.7-3.13 2.15-9.28 2.29-9.78.13-.42.48-.99.69-1.12.23-.13.31-.13-3.03.05-9.39.51-9.55.54-10.11 2.01-.2.52-.24-.87.47 13.79.1 2.2.23 4.7.29 5.55.05.85.16 3.1.25 5 .18 4.29.22 5.01.27 5.06.03.02 2.83.46 4.09.63.03.01.11-.36.18-.81Zm14.34.56.47-.07-.26-.3c-.31-.37-.63-.99-.79-1.52l-.12-.4-.12.9c-.07.5-.15 1.02-.17 1.18-.06.3.07.33.99.21Zm-18.97-1.46c-.03-.57-.11-2.22-.17-3.68-.07-1.46-.13-2.66-.14-2.68-.08-.09-1.38.23-1.9.47-2.96 1.36-1.98 5.82 1.48 6.76.85.22.8.28.73-.87Zm-2.84-.05c-2.6-2.57-1.3-6.52 2.16-6.53h.32v-.59c0-.51-.05-.66-.34-1.1-.77-1.14-.85-2.27-.26-3.48l.33-.66-.17-3.61c-.09-1.99-.24-4.85-.32-6.36-.3-5.42-.26-6.06.4-6.78l.21-.24-.25.06c-.58.13-2.69.58-4.7 1.01C4.13 7.79 3.59 7.99 3.07 9c-.44.85-.45.76 1.39 9.35.25 1.16.69 3.27.99 4.7.72 3.4 2.05 9.55 2.11 9.78.03.1.15.17.29.17.56 0 .84.39.94 1.3l.06.55 1.8.37c2.35.48 2.26.49 1.47-.29ZM8.35 33.6c-.09-.16-.19-.3-.23-.3-.71 0-4.69-.64-5.94-.95-.25-.06-.26-.05-.19.22.14.56 3.18 1.26 5.74 1.31l.78.02zm36.79.15c2.24-.26 3.93-.73 4.02-1.11.09-.36.08-.36-1.12-.09-.6.14-1.95.37-2.99.52-1.89.26-2.25.38-2.25.74 0 .13.89.11 2.34-.06Zm-24.11-4.22c.09-.38.55-2.37 1.01-4.43s.87-3.87.91-4.02c.07-.28.07-.28-.43-.28-2.91 0-4.97 2.49-4.29 5.17.28 1.06 1.4 3.04 2.25 3.96.35.37.35.36.55-.4Zm-6.61-4.98-.07-1.5-.23.58c-.31.82-.3 1.66.05 2.37.34.69.36.59.25-1.45ZM42 18.64c-.52-.14-1.05-.27-1.17-.29-.34-.08-.29-.21.3-.84.29-.32.6-.77.7-1.01l.17-.43-.23.2c-1.3 1.2-3.17.43-3.17-1.3 0-1.11.53-1.76 2.8-3.4.69-.5 1.53-1.16 1.88-1.46.77-.68.67-.71 1.12.36.2.48.69 1.47 1.09 2.18.78 1.4 1.21 2.5 1.21 3.13 0 2.08-2.44 2.81-3.47 1.04l-.28-.47-.03.71c-.02.53.02.84.18 1.23.11.28.2.54.2.56 0 .09-.34.03-1.3-.21Zm-35.87-.82c.05-.81.81-7.47.93-8.19.04-.29.1-.34.56-.48.78-.23.9-.2 1.19.28.14.23 1.26 2.03 2.49 4 1.53 2.46 2.19 3.62 2.12 3.69-.05.05-.37.16-.71.23l-.6.12-.73-1.13c-.61-.96-.77-1.14-.98-1.14-.26 0-2.59.46-2.65.52-.02.02-.07.57-.11 1.23s-.1 1.27-.15 1.36c-.07.13-.94.39-1.32.39-.06 0-.08-.33-.04-.88Zm36.62.23c-.18-.57-.18-1.22-.02-1.84.16-.61.32-.61.52-.01.67 2.01 3.14 1.67 3.15-.43 0-.7-.32-1.53-1.2-3.11-.43-.78-.88-1.66-1.01-1.96-.32-.78-.32-.78-.93-.22-.31.27-1.07.87-1.7 1.31-2.34 1.66-2.96 2.51-2.65 3.64.34 1.27 1.71 1.52 2.79.51.54-.51.6-.53.6-.19 0 .46-.41 1.34-.86 1.84l-.45.5.28.07c.15.03.57.14.93.23.79.21.72.25.55-.34Zm-35.91.24.44-.11.07-1.16c.1-1.66-.01-1.53 1.62-1.85 1.9-.37 1.68-.44 2.51.83.75 1.17.82 1.21 1.49 1.02.21-.07.17-.16-.75-1.62-.54-.85-1.6-2.56-2.37-3.78-1.51-2.44-1.47-2.4-2.09-2.22l-.43.12-.11 1.01c-.25 2.22-.82 7.14-.87 7.5-.03.2-.03.37 0 .37.04 0 .26-.05.49-.11Zm25.92-2.03c-.62-.15-.62-.16-.77-1.64l-.12-1.22-.36-.1c-.2-.05-.82-.2-1.39-.34l-1.03-.24-.77 1.19c-.86 1.32-.71 1.24-1.74.98-.54-.14-.52-.19.9-2.43.71-1.1 1.8-2.82 2.42-3.81 1.43-2.27 1.23-2.08 1.95-1.94.81.16.77.1.96 1.77.1.81.33 2.86.53 4.56.2 1.71.34 3.16.32 3.23-.06.15-.23.15-.9-.01Zm-16.96-.28c0-.12.38-1.5.84-3.07.47-1.57 1.03-3.51 1.26-4.31.48-1.65.52-1.7 1.36-1.7.6 0 .62.01.74.33.08.17.71 1.67 1.41 3.32 1.69 3.98 2.11 5.05 2.05 5.21-.04.1-.26.14-.79.14h-.74l-.49-1.22-.5-1.23-1.44.03c-.79.01-1.45.04-1.47.06s-.19.59-.37 1.27c-.36 1.38-.36 1.37-1.28 1.38-.53.01-.58-.01-.58-.21Zm17.6.02c0-.06-.22-2.02-.5-4.37s-.5-4.32-.5-4.39c0-.14-1-.38-1.1-.27-.04.05-.74 1.14-1.55 2.43s-1.88 2.97-2.37 3.73c-1.02 1.61-.95 1.43-.6 1.51.15.04.35.09.44.12.13.04.37-.25.98-1.16s.85-1.2.98-1.16c.09.03.76.19 1.47.37.71.17 1.33.35 1.38.39.06.05.36 2.22.37 2.62 0 .04.19.11.43.16.57.13.57.13.57.02Zm-16.2-.52c.06-.24.21-.79.32-1.23.28-1.07.19-1.02 1.99-1.09l1.57-.07.3.73c.17.4.38.93.48 1.18.09.25.21.49.26.55.07.08.98.09 1.06.01.02-.03-.85-2.14-2.52-6.06l-.95-2.25h-1.14l-.49 1.7c-.27.93-.82 2.83-1.23 4.21-.89 3-.87 2.74-.25 2.74h.49zm-9.53-.95c-.04-.08.16-2.61.28-3.41.07-.47.23-.54.45-.19.81 1.28 1.8 2.94 1.8 3.04 0 .14-.02.14-1.3.38-.47.09-.92.18-1.02.21-.09.03-.18.01-.21-.03Zm2.19-.66c.02-.01-.34-.62-.79-1.34-.44-.73-.82-1.31-.83-1.3-.02.02-.34 2.81-.34 2.97 0 .06 1.89-.26 1.96-.33Zm8.34-1.76c0-.3.81-3.33.92-3.46.06-.06.12-.05.18.05.14.22 1.41 3.42 1.38 3.45-.02.02-.58.07-1.26.11-1.21.07-1.22.07-1.22-.15Zm12.35-.21c-.79-.19-1.09-.31-1.07-.41.04-.18 1.92-3.18 2.03-3.25.12-.07.49 2.81.49 3.79 0 .22-.1.21-1.45-.13Zm-10.25.02c0-.23-1.09-2.75-1.14-2.62-.08.24-.66 2.52-.66 2.61 0 .05.41.09.9.09s.9-.04.9-.08Zm11.31-1.34c-.17-1.79-.17-1.8-.44-1.38-.11.19-.47.77-.8 1.28s-.58.94-.56.96c.07.05 1.84.43 1.88.4.02-.02-.02-.58-.08-1.26Zm5.24-5.39c-.91-.93-1.39-1.05-3.75-.92l-1.45.08 2 .44c1.1.23 2.31.51 2.7.61s.74.19.8.19c.05.01-.09-.17-.3-.4Zm-15.1-.69c.88-.06 1.9-.1 2.28-.1.82 0 .86-.16.11-.42-.61-.22-1-.19-3.44.32-1.33.28-1.67.37-1.2.34.36-.02 1.37-.09 2.25-.14Z"/></svg>