<svg xmlns="http://www.w3.org/2000/svg" width="51" height="51" viewBox="0 0 51 51"><path fill="#fff" fill-rule="evenodd" stroke="#fff" stroke-width=".721" d="M23.75 46.5c-6.39-.6-11.94-5.42-13.56-11.8-1.04-4.07-.67-6.58 1.72-11.49 2.37-4.88 6.02-10.43 10.6-16.13 1.99-2.47 2.19-2.63 3.24-2.56.88.05 1.07.23 3.04 2.76 6.36 8.21 10.72 15.39 12.05 19.82 1.98 6.64-1.21 14.02-7.54 17.48-2.67 1.45-6.44 2.21-9.55 1.92Zm3.66-.36c5.33-.69 9.6-3.58 11.95-8.07 2.66-5.1 2.47-9.12-.73-15.52-.91-1.81-3.51-6.15-3.68-6.15-.02 0 .28.67.65 1.48 2.59 5.58 2.89 9.49 1.07 13.96-.96 2.35-4.53 6.22-7.16 7.75-3.86 2.26-10.02 2.53-13.78.62-2.1-1.06-3.46-4.76-2.64-7.16.71-2.09 3.48-8.43 4.27-9.79.2-.33.8-1.22 1.33-1.96 1.53-2.11 4.15-6.97 5.46-10.1.26-.63.59-1.37.74-1.65.14-.27.27-.53.29-.57.11-.25-.41-.02-.69.3-.96 1.08-3.97 6.07-5.22 8.64-.58 1.2-.77 1.48-.77 1.14 0-.79 4.42-8.37 5.85-10.04 1.4-1.62 3.15 2.01 5.5 11.37 1.9 7.61 1.94 10.43.19 13.93-1.27 2.55-4 5.28-6.48 6.49-.92.45-.83.48.72.24 3.88-.58 6.3-1.99 9.43-5.45 2.75-3.06 3.66-5.19 3.76-8.86.1-3.37-.36-5.04-2.72-10.05-1.3-2.74-2.23-4.15-5.83-8.82-2.03-2.63-2.41-3.03-3.03-3.12-1.03-.15-1.45.24-4.35 4.01-6.11 7.93-10.11 14.8-11.25 19.32-1.95 7.7 4.09 16.58 12.21 17.96 1.79.3 3.14.33 4.91.1Zm-4.29-5.41c4.9-2.35 8.22-7.54 7.93-12.38-.3-5.09-3.89-17.69-5.44-19.09-.4-.36-1.07 1.34-1.16 2.94-.11 2.15-.32 3.36-1.15 6.61-.43 1.73-1.14 4.68-1.55 6.54-2.24 10-3.16 12.41-5.43 14.06-.33.24-.61.46-.61.49-.01.07 1.52.66 2.23.86 2.12.59 3.92.58 5.18-.03Zm-7.19-1.34c2.23-1.48 3.28-4.02 5.22-12.64.88-3.96 1.52-6.66 2.05-8.65.64-2.41 1-4.66 1-6.18 0-.04-.69 1.31-1.53 2.98-1.88 3.75-2.4 4.67-3.68 6.45-1.4 1.95-1.61 2.33-3.02 5.45-1.4 3.11-2.47 5.74-2.72 6.7-.46 1.75.27 4.23 1.68 5.78.47.5.42.5 1 .11Z"/></svg>