<svg xmlns="http://www.w3.org/2000/svg" width="51" height="51" viewBox="0 0 51 51"><path fill="#fff" fill-rule="evenodd" stroke="#fff" stroke-width=".774" d="M24.37 42.57c-3.79-2.55-6.13-5.96-6.83-10-.18-1.04-.15-4.43.05-5.08.14-.46.83-.67 3.81-1.14 3.98-.64 11.9.03 12.33 1.04.25.6.14 4.44-.17 5.76-.97 4.15-3.39 7.47-7.09 9.74-.86.53-.83.53-2.1-.32Zm2.78-.41c4.1-2.79 6.48-7.28 6.49-12.26.01-2.1-.06-2.48-.47-2.65-2.85-1.19-11.36-1.2-14.94-.02-.47.15-.51.31-.59 2.37-.22 5.34 2.42 10.06 7.29 13.06.82.5.71.53 2.22-.5Zm-2.01-1.99c-.73-.48-2.28-2.01-3-2.97-1.56-2.07-2.42-4.75-2.32-7.25l.03-.79.41-.12c2.67-.77 10.86-.61 11.18.22.04.09.02.74-.04 1.45-.29 3.58-1.77 6.52-4.4 8.77-1.27 1.07-1.28 1.08-1.86.69Zm1.11-.36c3.08-2.32 5.08-6.34 4.93-9.87l-.03-.69-1-.17c-2.95-.49-5.65-.49-8.75-.02-1.53.23-1.44.14-1.36 1.54.22 3.79 1.97 7 5.04 9.25.58.43.55.43 1.17-.04Zm-1.45-5.14c0-.73-.03-.86-.21-1.03-.86-.78-.49-2.24.63-2.55 1.52-.4 2.55 1.29 1.52 2.49-.32.38-.34.44-.34 1.16v.76h-1.6zm1.4-.15c0-.57.04-.72.21-.88.75-.68.64-1.89-.21-2.24-1.34-.56-2.45.95-1.5 2.04.27.31.3.4.3 1.05v.71h1.2zm-6.36-9.97c-.1-.24.05-1.96.22-2.63 1.3-5.12 8.35-5.97 10.64-1.27.56 1.13.96 3.78.62 3.99-.05.03-.49-.02-.98-.1l-1.22-.2c-.31-.05-.32-.07-.32-.49 0-2.15-1.25-3.6-3.1-3.6-1.88 0-3 1.17-3.18 3.3l-.07.79-.99.13c-.54.06-1.11.15-1.27.18-.22.05-.31.02-.35-.1Zm1.58-.32c.82-.07.84-.09.9-1.01.22-3.19 4.21-4.45 5.97-1.88.4.58.71 1.54.71 2.2v.55l.48.06c.26.04.71.11 1.01.16s.59.09.64.09c.14 0 .01-1.71-.18-2.45-1.45-5.64-9.5-5.48-10.7.21-.08.38-.15 1.04-.15 1.48v.79l.32-.07c.17-.03.62-.09 1-.13Zm-3.55-6.21c-.48-.48-.87-.93-.87-1 0-.22 1.92-2.05 2.67-2.55 4.63-3.07 11.09-2.09 14.27 2.16l.29.38-.24.27c-.59.67-1.54 1.62-1.64 1.62-.06 0-.18-.13-.28-.29-.34-.58-1.91-1.95-2.73-2.38-3.42-1.8-7.98-.77-10.09 2.28-.37.52-.37.52-1.38-.49Zm1.75-.27c3.52-3.76 9.24-3.54 12.46.5l.32.39.72-.78c.4-.44.75-.83.77-.89.07-.19-1.93-2.02-2.79-2.55-1.8-1.11-3.12-1.46-5.45-1.46-1.89 0-2.9.2-4.27.82-1.3.59-3.04 1.89-3.78 2.82l-.33.41.74.78c.41.43.76.79.78.8.02 0 .39-.37.83-.84Zm-5.2-3.18c-.45-.46-.82-.92-.82-1.02 0-.3 2.24-2.44 3.3-3.14 5.93-3.95 13.63-3.49 18.93 1.14.84.72 1.77 1.78 1.77 1.99 0 .17-1.58 1.86-1.74 1.86-.06 0-.31-.25-.55-.56-1.7-2.18-4.98-3.96-7.96-4.33-4.23-.52-8.05.84-11.03 3.93-.51.53-.96.96-1 .96s-.45-.38-.9-.83Zm1.87-.45c2.64-2.65 5.66-3.92 9.35-3.92 3.67 0 6.57 1.2 9.15 3.78l1.14 1.14.72-.78.73-.79-.22-.3c-1.36-1.92-4.83-4.09-7.66-4.8-5.32-1.33-10.71.13-14.63 3.97l-1.1 1.07.74.8c.4.45.75.81.77.81s.48-.44 1.01-.98Z"/></svg>