<svg xmlns="http://www.w3.org/2000/svg" width="51" height="51" viewBox="0 0 51 51"><path fill="#fff" fill-rule="evenodd" stroke="#fff" stroke-width=".712" d="M7.22 45.79c-.6-.23-1.4-.96-1.7-1.55-.44-.87-.43-.64-.4-18.99l.03-17.5.28-.6c.36-.76 1.1-1.47 1.83-1.75.54-.2.65-.2 18.33-.2 20.08 0 18.28-.08 19.27.83 1.19 1.09 1.25 1.42 1.25 7.82 0 5.29-.01 7.13-.1 20.75l-.06 8.95-.28.57c-.35.71-1.12 1.41-1.85 1.68-.84.32-35.78.3-36.6-.01Zm36.37-.14c.99-.35 1.78-1.15 2.06-2.09.25-.83.23-35.26-.02-36.06-.24-.78-1.17-1.72-1.93-1.94-.78-.23-35.38-.25-36.16-.01-.92.27-1.74 1.07-2.04 2-.22.66-.17 35.7.05 36.22.37.89 1.06 1.56 1.93 1.88.57.21 35.51.22 36.11 0ZM20.6 32.3v-.9l4.45-.02c2.45-.01 4.69-.02 4.98-.03h.52l.03.92.03.93H20.6zm9.8 0v-.7h-9.6V33h9.6zm-17.7-.13c-4.52-1.34-5.86-7.05-2.45-10.41l.57-.56H8.3v-.62c0-.35.04-.69.08-.75.06-.1 1.3-.13 5.21-.15l5.13-.03.24-.3c.36-.46.34-1.14-.06-1.53-.39-.39-.39-.39.2-.97l.49-.49.36.38c1.55 1.65.57 4.46-1.56 4.46-.22 0-.17.08.41.68 4.43 4.61-.01 12.09-6.1 10.29Zm22.3.07c-4.71-1.23-6.21-6.95-2.75-10.41l.63-.63H30.4v-1.5h10.22l.34-.34c.51-.51.46-1.22-.12-1.71l-.24-.2.51-.53.52-.53.38.37c1.5 1.46.77 3.99-1.27 4.36l-.59.1.72.74c.83.85 1.45 1.98 1.68 3.09.91 4.33-3.28 8.31-7.55 7.19Zm-19.11-.19c4.71-1.11 6.07-7.3 2.29-10.45l-.66-.55.67-.06c2.15-.18 3.11-2.51 1.66-4.03l-.28-.28-.35.35-.35.35.26.32c.5.59.44 1.45-.14 1.95l-.31.25H8.6V21h1.35c.74 0 1.35.03 1.35.06s-.35.38-.77.79c-1.38 1.29-1.95 2.55-1.95 4.35-.02 3.94 3.49 6.75 7.31 5.85Zm22 0c4.86-1.15 6.16-7.87 2.07-10.66-.47-.31-.45-.39.07-.39 2.19 0 3.38-2.35 1.98-3.91l-.36-.4-.4.4c-.21.23-.34.41-.27.41.23 0 .52.63.52 1.14 0 .43-.04.53-.39.87l-.39.39H30.6V21h1.48l1.47.01-.4.31c-2.49 1.98-3.26 4.88-1.99 7.55 1.16 2.43 4.06 3.8 6.73 3.18Zm-24.85-1.13c-4.15-1.44-4.59-7.05-.71-8.97 4.2-2.07 8.55 2.35 6.43 6.54-1.03 2.02-3.66 3.14-5.72 2.43Zm22.01.01c-3.55-1.27-4.52-5.65-1.81-8.21 2.35-2.23 6.17-1.53 7.6 1.39 1.23 2.52.17 5.38-2.44 6.62-.83.4-2.51.5-3.35.2Zm-19.26-.22c3.28-1.02 4.37-5.1 2.04-7.61-2.82-3.05-7.94-1.01-7.94 3.16 0 3.1 2.99 5.36 5.9 4.45Zm21.87.05c3.78-1.01 4.7-6.17 1.48-8.31-3.11-2.07-7.24.09-7.24 3.79 0 3.02 2.89 5.29 5.76 4.52Zm-23.88-3.42c-1.07-.57-.54-2.33.7-2.34.95 0 1.53 1.02 1.08 1.89-.3.58-1.15.79-1.78.45Zm21.94-.09c-.9-.75-.51-2.12.64-2.22 1.25-.11 1.88 1.25.99 2.14-.44.44-1.16.47-1.63.08Zm-20.79-.06c.84-.43.72-1.72-.17-1.95-.85-.21-1.59.66-1.26 1.47.21.5.92.74 1.43.48Zm22.2-.09c.9-.71.21-2.12-.9-1.84-.5.12-.87.65-.79 1.14.12.77 1.09 1.17 1.69.7Z"/></svg>