<svg xmlns="http://www.w3.org/2000/svg" width="51" height="51" viewBox="0 0 51 51"><path fill="#fff" fill-rule="evenodd" stroke="#fff" stroke-width=".688" d="M7.9 50.91c0-.26.67-1.97 1.07-2.71.57-1.07 1.07-1.74 2.02-2.73.67-.7.74-.8.58-.89-.43-.24-1.98-1.61-2.43-2.15-.27-.32-.76-.83-1.09-1.13-4.47-4.09-5.94-9.34-4.13-14.75l.4-1.2-.31-1.55c-.77-3.93-1.01-6.04-1.02-9-.01-2.78.15-3.25 1.2-3.49.6-.13.86-.07 2.2.51 5.53 2.38 12.2 2.57 20.21.57C35.01 10.3 41.35 6.55 45 1.55 45.87.35 46.19 0 46.39 0c.1 0 .03.13-.2.37-.2.21-.76.92-1.24 1.58-3.89 5.29-11.46 9.37-20.85 11.24-6.94 1.39-13.08.93-18.15-1.33-1.35-.6-2.25-.46-2.61.4-.51 1.22.15 8.85 1.07 12.38l.1.38.43-.74c3.88-6.81 13.27-8.74 19.54-4.01l.83.63.43-.29c1.77-1.22 4.1-1.91 6.45-1.91h1.17l.53-1.15c1.87-4.02 5.38-6.77 9.71-7.61 2.09-.4 4.99-.17 6.83.54 1 .38.98.58-.02.22-6.44-2.35-13.74.85-16.46 7.22l-.42.98-1.59.04c-2.32.06-3.95.52-5.69 1.61-1.05.66-.92.66-1.64.07-8.2-6.6-20.79-.81-21.18 9.74-.41 11 11.86 17.58 20.81 11.16 5.17-3.71 6.86-10.9 3.91-16.61-.24-.47-.41-.89-.38-.94.27-.44 2.78-1.23 4.24-1.33l.86-.07.06 1.07c.56 9.14 9.54 14.85 18.1 11.51.35-.14.16.15-.2.31-1.81.76-4.97 1.07-7.03.69-6.28-1.17-10.68-6.09-11.07-12.39l-.06-.99-.68.07c-1.36.12-3.26.68-3.84 1.11-.19.15-.19.16.12.73 3.55 6.47.79 14.96-5.92 18.22-3.77 1.83-8.74 1.72-12.25-.27-.25-.14-.61-.34-.8-.45-.54-.3 1.47 1.6 2.14 2.02.7.44.7.45-.15 1.27-1.32 1.27-2.34 2.9-2.95 4.71-.23.7-.44 1.04-.44.73Zm7.6-.25c0-.66.54-2.85 1.01-4.11l.2-.55h1.27c3.56 0 7.3-.96 11.42-2.91 1.43-.69 3.81-2.01 3.77-2.1-.01-.04-.51-.47-1.12-.95-2.33-1.86-2.79-2.52-2.8-3.99 0-1.41.48-2.06 2.1-2.85 2.07-1.01 4.45-1.07 5.52-.15 1.35 1.15 1.34 2.62-.06 6.34l-.32.84 1.98-.07c4.77-.16 9.9-1.17 12.35-2.42.32-.17.38-.17.38-.04 0 .14-.41.33-1.89.84-3.31 1.15-6.52 1.69-10.83 1.83l-2.06.06-.37.87c-.59 1.43-.7 1.46-1.87.46-.8-.68-.66-.68-1.79-.01-4.57 2.71-9.51 4.3-13.72 4.42l-1.78.06-.13.26c-.3.58-1.05 3.54-1.06 4.13 0 .15-.04.3-.1.33-.06.04-.1-.08-.1-.29Zm20.24-9.16c.52-1.16 1.54-3.96 1.76-4.85.78-3.14-1.4-4.83-4.85-3.75-2.6.82-3.66 2.19-3.11 4.02.28.94.71 1.4 3.5 3.66 2.4 1.97 2.26 1.92 2.7.92Zm-20.44-.31c-4.15-.48-7.5-3.35-8.77-7.54-.35-1.16-.41-4.03-.1-5.15 2.31-8.39 12.74-10.69 18.11-3.98 2.46 3.08 2.97 7.39 1.27 10.79-2.1 4.18-6.04 6.39-10.51 5.88Zm2.25-.19c2.34-.27 4.36-1.22 5.95-2.81.87-.87 2.33-3 2.17-3.16-.03-.02-.1.04-.16.15-.31.59-2.33 1.8-3.71 2.24-1.1.34-3.5.34-4.6 0-2.9-.91-5.09-3.12-5.87-5.92-.33-1.2-.25-3.52.15-4.7 1.07-3.11 3.66-5.31 6.64-5.66.8-.1.45-.2-1.02-.3-4.7-.33-9.15 2.89-10.42 7.53-.32 1.18-.32 3.84 0 5.01 1.26 4.59 4.82 7.4 9.77 7.71.11 0 .61-.04 1.1-.09ZM22 37.11c2.6-.87 4.09-2.38 4.46-4.51.77-4.46-1.54-8.82-5.74-10.83-3.32-1.6-8.02 1.23-9.19 5.53-.25.92-.25 3.2 0 4.1 1.23 4.52 6.11 7.18 10.47 5.71Zm-4.01-3c-4.62-1.48-4.67-8.01-.08-9.46 4.11-1.3 7.8 2.86 6.01 6.77-1.03 2.26-3.62 3.43-5.93 2.69Zm3.44-.44c4.04-1.91 3.45-7.79-.88-8.92-4.51-1.17-7.77 4.48-4.55 7.89 1.37 1.45 3.65 1.88 5.43 1.03Zm23.67-.37c-8.73-.92-12.54-11.41-6.37-17.51 3.15-3.12 7.9-4 11.6-2.15 1.14.57 1.09.75-.05.21-3.27-1.55-7.25-1.15-10.2 1.03-.74.54-.72.57.22.24 2.91-.99 6.7.24 8.8 2.86 3.82 4.79 1.24 12.12-4.72 13.38-1.03.22-3.01.15-3.83-.14-.78-.27-.78-.23-.03.26 2.92 1.9 6.77 2.15 9.91.64.49-.24.77-.33.77-.25 0 .27-1.82 1-3.15 1.26-1.07.21-2.04.27-2.95.17Zm-.54-2.2c5.69-1.42 8.05-8.45 4.37-13-2.44-3.01-6.5-3.95-9.78-2.27-.8.4-1.89 1.9-2.52 3.44-1.44 3.52-.53 8.24 2.05 10.65 1.31 1.23 3.74 1.72 5.88 1.18Zm-3.58-3.23c-3.43-1.17-4.5-5.44-2.02-8.07 3.23-3.42 8.73-1.05 8.52 3.66-.15 3.29-3.37 5.47-6.5 4.41Zm3.05-.17c3.35-1.04 4.39-5.4 1.88-7.9-2.72-2.73-7.49-1.16-8.04 2.65-.5 3.48 2.79 6.29 6.16 5.25Zm6.88-22.12c-.6-1.6-2.01-4.18-2.83-5.21-.25-.32-.27-.38-.12-.35.54.1 3.31 5.22 3.22 5.95-.02.19-.08.1-.27-.39Z"/></svg>