<svg xmlns="http://www.w3.org/2000/svg" width="51" height="51" viewBox="0 0 51 51"><path fill="#fff" fill-rule="evenodd" stroke="#fff" stroke-width=".469" d="M7.32 26.71c.03-5.91-.05-5.41.93-5.41.86 0 1.03.07 1.07.41l.03.28.44-.29c.6-.41 1.12-.53 2.06-.48 3.96.22 4.64 6.45.86 7.88-.96.37-2.4.18-3.14-.41l-.26-.19-.03 1.54c-.04 1.84 0 1.78-1.13 1.84l-.86.05zm1.63 4.78c.06-.06.12-.81.13-1.69.04-1.68.09-1.82.46-1.41.6.66 2.32.87 3.34.42 2.34-1.05 2.85-4.8.9-6.56-1.21-1.1-3.19-1.12-4.23-.06-.4.41-.45.39-.45-.14v-.45H7.63l-.06 2.93c-.04 1.6-.07 3.88-.07 5.06v2.13l.68-.07c.37-.04.72-.11.77-.16Zm35-1.83c-.59-.26-.72-1.01-.26-1.47.77-.76 1.96.14 1.46 1.1-.22.43-.71.58-1.2.37Zm-25.32-.41c-1.29-.29-2.39-1.19-2.85-2.33-.38-.95-.34-2.64.09-3.54 1.85-3.9 7.46-2.41 7.21 1.92l-.03.55-2.72.03c-1.58.01-2.73.06-2.73.12 0 1.45 2.4 2.04 3.31.81.22-.3.24-.31 1.1-.31 1.09 0 1.11.03.63.98-.76 1.49-2.29 2.16-4.01 1.77Zm12.83.05c-4.34-.75-4.43-7.22-.12-8.1 2.02-.41 4.28 1.07 4.39 2.88l.02.37-.9-.01c-.74-.01-.91-.04-1-.19-.51-.88-.96-1.17-1.74-1.17-1.1 0-1.91.92-1.91 2.17 0 2.11 2.34 2.98 3.48 1.29.25-.37.4-.49.58-.48 1.79.04 1.71-.02 1.34.98-.61 1.62-2.34 2.57-4.14 2.26Zm7.86-.01c-1.18-.23-2.33-1.13-2.88-2.24-.45-.92-.44-2.69.02-3.66 1.22-2.57 4.68-3.06 6.63-.94 1.35 1.48 1.35 4.12 0 5.6a4.1 4.1 0 0 1-3.77 1.24Zm5.68-.44c0-.5-.38-.76-.91-.62-.33.08-.56.57-.4.84.09.15.1.13.11-.14 0-.34.14-.44.24-.18.09.25.25.17.23-.13-.01-.18.03-.27.13-.27s.14.08.12.27c-.03.34.05.36.17.06.08-.22.09-.22.17-.04.04.1.02.32-.04.48-.09.25-.09.28.04.18.08-.07.14-.27.14-.45Zm-19.25.16c-1.09-.51-1.25-.97-1.25-3.66V23.2h-.62c-.9 0-.92-.03-.85-.95.09-.96.05-.91.81-.99l.63-.07.07-.46c.03-.25.06-.67.06-.92 0-.69.05-.72 1.01-.69l.84.03.03 1.07.03 1.07.72.03.72.03.03.79c.03.95.02.97-.82 1.03l-.66.06v1.84c0 2.19.06 2.33 1 2.33h.5v.8c0 .68-.03.81-.19.9-.33.17-1.61.12-2.06-.09Zm-4.69-.24c.78-.4 1.64-1.44 1.64-1.98 0-.27-1.41-.03-1.7.3-1.17 1.28-3.6.51-3.6-1.14v-.25l2.72-.02 2.73-.03.03-.34c.32-3.37-3.74-5.27-6.1-2.84-1.39 1.43-1.45 3.96-.12 5.42 1.05 1.17 3.06 1.57 4.4.88Zm12.56.06c.87-.39 1.64-1.31 1.93-2.3.06-.22.04-.23-.67-.23h-.73l-.35.47c-1.7 2.26-4.82-.14-3.55-2.73.76-1.56 3.03-1.64 3.65-.14.12.3.14.3.86.3.84 0 .83 0 .57-.76-.74-2.19-4.15-2.77-5.87-.99-2.03 2.08-1.17 5.62 1.57 6.51.62.2 2 .13 2.59-.13Zm8.02-.01c1.9-.85 2.74-3.07 1.96-5.14-1-2.67-5.05-3.13-6.63-.75-1.45 2.18-.46 5.26 1.93 6.02.67.22 2.11.15 2.74-.13Zm-14.15.12c.31-.06.31-.07.31-.7v-.64h-.4c-.48 0-.82-.14-.99-.42-.17-.27-.25-2.34-.14-3.43l.08-.8.73-.03.72-.03v-1.38l-.77-.03-.78-.03.03-.74c.02-.4.01-.89-.03-1.07l-.06-.34h-1.26l-.12.97c-.14 1.15-.11 1.11-.87 1.21l-.59.07-.03.68-.03.67h1.41v2.25c0 2.41.05 2.72.53 3.24.47.51 1.37.73 2.26.55Zm-17.1-1.47c-1.38-.72-1.67-3-.52-4.09 1.09-1.04 2.88-.55 3.32.91.64 2.15-1.06 4.09-2.8 3.18Zm28.91.08c-1.85-.84-1.84-3.82.02-4.59 1.67-.7 3.29.93 2.88 2.89-.28 1.37-1.74 2.22-2.9 1.7Zm-27.18-.31c1.31-.67 1.3-3.31-.02-3.99-1.34-.69-2.69.29-2.7 1.96 0 1.7 1.36 2.72 2.72 2.03Zm28.86-.01c1.15-.55 1.4-2.79.41-3.7-.74-.67-1.85-.67-2.57 0-1.15 1.07-.72 3.53.66 3.83.15.03.32.07.37.09.17.07.78-.06 1.13-.22Zm-23.54-3.05c.28-1.39 2.16-1.98 3.19-1 .36.34.57.73.57 1.07v.25h-3.82zm3.51-.1c-.37-1.29-2.26-1.56-3.03-.44-.44.65-.41.66 1.44.66h1.65z"/></svg>