<svg xmlns="http://www.w3.org/2000/svg" width="51" height="51" viewBox="0 0 51 51"><path fill="#fff" fill-rule="evenodd" stroke="#fff" stroke-width=".706" d="M23.35 50.66c-.71-.29-4.34-1.75-8.05-3.25-6.79-2.73-7.52-3.07-8.03-3.74-.38-.5-.55-.88-2.89-6.31C.69 28.78-.01 27.08.02 26.77c.02-.23.14-.02.52.95.45 1.15 2.47 5.9 5.21 12.23 1.95 4.51 1 3.79 9.35 7.14 2.89 1.15 6.26 2.51 7.5 3.02 3.3 1.34 3.16 1.34 7.1-.31 14.54-6.13 14.09-5.9 14.91-7.65.4-.85 3.74-9.12 5.4-13.4l.94-2.4v-1c0-1.16.22-.54-2.55-7.05-4.76-11.19-4.62-10.9-5.76-11.52C41.8 6.33 27.5.58 26.41.26c-1.33-.39-1.45-.35-7.36 2.17-1.87.79-4.91 2.09-6.75 2.87-4.96 2.1-5.02 2.14-5.74 3.71C6.31 9.56.39 24.13.07 25c-.03.08-.06 0-.06-.18-.01-.18.06-.49.15-.7.09-.2 1.5-3.69 3.15-7.76 1.65-4.06 3.13-7.65 3.31-7.98.61-1.14.78-1.24 5.58-3.28 1.84-.78 4.57-1.94 6.05-2.57 1.48-.64 3.44-1.47 4.34-1.84L24.23 0h2.3l4.66 1.86c5.93 2.36 10.95 4.41 11.45 4.66 1.08.55 1.42 1.08 2.88 4.46 1.04 2.43 3.78 8.85 4.81 11.27l.8 1.9.05 1.06.04 1.05-.97 2.5c-3.9 10.02-5.6 14.04-6.23 14.75-.64.72-.14.49-14.92 6.8l-1.95.84-1.25.02-1.25.03zm1.4-2.65c-.55-.21-1.54-.61-2.2-.88-.66-.28-3.81-1.55-7-2.83-3.19-1.27-5.87-2.39-5.96-2.48-.16-.16-1.31-2.82-5.1-11.81L2.7 25.78l.39-.97c.21-.53 1.65-4.11 3.19-7.95 1.54-3.85 2.89-7.07 2.99-7.17.43-.43 15.85-6.93 16.27-6.86.28.04 15.28 6.01 15.76 6.27.26.14.49.6 1.53 3.1.47 1.13 1.86 4.37 3.08 7.2s2.28 5.33 2.36 5.55l.15.4-1.45 3.6c-.8 1.98-2.23 5.56-3.17 7.95-1.28 3.25-1.78 4.41-1.98 4.6-.29.27-15.14 6.69-15.85 6.85-.12.03-.66-.12-1.22-.34Zm3.31-.75c2.47-1.04 8.82-3.75 11.49-4.9 1.1-.47 2.07-.94 2.16-1.04.1-.09 1.04-2.35 2.09-5.02s2.47-6.23 3.16-7.92l1.24-3.08-.39-.87c-.51-1.17-4.93-11.49-5.7-13.34-.34-.8-.72-1.55-.84-1.67-.12-.11-1.52-.72-3.12-1.36C30.45 4.96 25.5 3 25.39 3c-.12 0-8.45 3.51-13.23 5.58-1.67.72-2.73 1.24-2.82 1.37-.07.11-1.16 2.79-2.42 5.95s-2.66 6.64-3.11 7.72C3.37 24.7 3 25.66 3 25.75c0 .08.92 2.33 2.04 4.98s2.56 6.06 3.2 7.57c.63 1.51 1.24 2.9 1.33 3.09.18.34.37.42 7.23 3.18 3.88 1.56 7.43 2.99 7.9 3.18 1.14.46 1.1.47 3.36-.49Zm-3.81-7.46c-2.59-.28-5.3-2.1-6.31-4.25-.56-1.18.06-2.35 1.23-2.35.65 0 .95.21 1.56 1.08 2.76 3.94 8.33 3.04 9.52-1.54.81-3.13-1.8-6.31-5.16-6.27-1.73.01-2.96.72-4.38 2.53-.77.97-1.09 1.15-1.76 1-2.88-.65-.36-4.9 3.75-6.32 3.01-1.03 6.82.1 8.9 2.65 4.64 5.67-.04 14.23-7.35 13.47Zm2.52-.36c3.03-.62 5.08-2.49 6.09-5.54.43-1.32.42-3.44-.04-4.8-2.04-6.09-9.88-7.52-13.92-2.54-1.22 1.5-1.31 2.58-.26 3.08.76.36 1.16.19 1.9-.79.84-1.12 1.4-1.61 2.31-2.05 4.98-2.39 9.86 3.23 6.81 7.83-2.18 3.28-6.94 3.13-9.16-.29-.6-.91-1.08-1.12-1.83-.8-1.15.48-.92 1.82.6 3.46 1.95 2.09 4.76 3.01 7.5 2.44Zm5.97-11.66c-1.33-2.12-2.21-3-3.76-3.77-1.21-.59-1.92-.79-3.08-.88-1.35-.09-1.21.56-1.18-5.46.03-5.01.04-5.23.23-5.56.62-1.05 1.98-1.05 2.6 0 .19.33.2.55.23 5.17.02 2.97.07 4.82.12 4.82.06 0 .1-1.56.1-4.1 0-4.44.01-4.48.54-4.83.65-.43 1.49-.24 1.93.42l.23.34v4.71c0 2.87.04 4.77.1 4.86.06.1.1-.73.1-2.43v-2.59l.34-.34c.57-.57 1.65-.43 2.01.26.24.47.18 9.73-.07 9.78-.11.02-.26-.12-.44-.4Zm.44-4.54-.03-4.66-.34-.3c-.3-.27-.39-.3-.79-.25-.87.1-.87.09-.9 3.13-.02 2.22-.05 2.66-.18 2.71-.43.16-.44.07-.44-4.94 0-5.08-.01-5.22-.51-5.57-.39-.27-1.03-.21-1.41.13l-.33.29-.05 4.24-.05 4.23-.24.03c-.4.06-.41-.07-.41-5.01 0-5.14 0-5.15-.52-5.51-.3-.21-1.17-.21-1.47 0-.5.36-.51.46-.51 5.92v5.09l.82.08c2.88.25 5.67 2.06 6.95 4.52.16.29.32.53.36.53s.06-2.1.05-4.66Z"/></svg>