<svg xmlns="http://www.w3.org/2000/svg" width="51" height="51" viewBox="0 0 51 51"><path fill="#fff" fill-rule="evenodd" stroke="#fff" stroke-width=".742" d="M5.9 51.03c0-.06 3.17-6.48 7.05-14.27 3.88-7.8 7.41-14.91 7.85-15.81.82-1.68.89-1.77 1.5-1.89 2.7-.52 7.91-1.38 7.98-1.32.03.03-.11.36-.3.73-.2.37-1.4 2.73-2.68 5.23s-2.43 4.74-2.57 4.98-.23.45-.21.47c.06.05 2.37-.98 4.33-1.95 9.36-4.61 13.95-9.56 12.35-13.29-.91-2.11-3.51-2.31-9.9-.75-4.87 1.18-10.88 2.81-26.04 7.05-2.74.77-5.01 1.37-5.04 1.34-.13-.13.28-.27 3.08-1.04 1.62-.46 4.89-1.36 7.25-2.02 19.97-5.58 23.91-6.53 26.95-6.54 2.34 0 3.21.4 3.9 1.8.41.82.37 2.62-.08 3.66-1.59 3.71-6.88 7.66-15.21 11.35-1.67.75-1.91.82-1.91.61 0-.13 2.95-5.96 4.95-9.79.46-.87.78-1.58.71-1.58-.15 0-6.88 1.16-7.51 1.3l-.5.11-7.84 15.75C6.98 49.26 5.9 51.38 5.9 51.03Zm7.1-.02c0-.13 4.88-9.71 5.01-9.86.06-.06.34-.02.77.09 4.71 1.3 7.36 1.7 11.22 1.7 11.01 0 18.58-5.76 15.65-11.91-1.03-2.15-3.59-3.67-6.95-4.14-.47-.06-.89-.15-.93-.19-.05-.04.4-.36 1-.71 5.19-3.03 8.34-6.31 9.24-9.64.32-1.14.32-3.45.01-4.58-.88-3.22-3.26-5.1-7.06-5.57-2.59-.33-5.29.01-17.46 2.2-1.24.22-5.06.9-8.5 1.5-3.44.61-8.03 1.43-10.2 1.81-2.17.39-4.1.73-4.27.76-.52.09-.39-.14.15-.26.26-.05 2.16-.39 4.22-.76 2.06-.36 4.88-.86 6.25-1.1 1.38-.24 3.67-.65 5.1-.9s3.46-.61 4.5-.8c5.03-.9 6.04-1.08 9.3-1.64 8.38-1.45 10.77-1.52 13.66-.4 5.05 1.95 6.4 8.47 2.76 13.35-1.51 2.01-4.72 4.67-7.52 6.2l-.69.38 1.14.22c4.67.9 7.3 3.62 7.07 7.32-.25 4.25-5.17 7.77-12.42 8.88-1.49.23-6.18.27-7.85.06-2.32-.29-5.69-.99-7.52-1.56-.58-.18-.31-.58-2.43 3.59C13.39 50.68 13 51.4 13 51.01Zm10.99-11.35c-1.62-.21-4.33-.87-4.57-1.11-.07-.07.66-1.52 2.21-4.42l.82-1.53 1.9-.6c2.59-.83 4.06-1.35 7.04-2.51 2.75-1.08 2.95-1.11 4.05-.83 5.12 1.31 5.31 7.89.27 9.83-2.69 1.04-8.31 1.6-11.72 1.17Zm5.36-.16c6.88-.59 9.75-2.37 9.75-6.06 0-2.32-1.32-3.92-3.76-4.54-1.09-.28-1.13-.27-2.95.46-3.28 1.31-6.94 2.6-9.07 3.19-.54.15-.67.24-.86.54-.59.94-2.77 5.24-2.69 5.32.16.16 2.67.79 3.76.94 1.91.25 3.95.31 5.82.15Z"/></svg>