<svg xmlns="http://www.w3.org/2000/svg" width="51" height="51" viewBox="0 0 51 51"><path fill="#fff" fill-rule="evenodd" stroke="#fff" stroke-width=".766" d="M11.27 41.56c-.79-.29-1.54-1.12-1.77-1.97-.17-.62-.12-24.08.05-24.64.4-1.35 1.6-1.98 3.23-1.71 1.46.24 7.16 1.26 7.34 1.32.16.05.18.56.2 7.82l.03 7.77.28.57c.32.65.89 1.21 1.56 1.52.52.24.17.23 11.14.1l5.37-.06V30.9H23.92l-.53-.28c-.6-.31-1.11-.96-1.29-1.62-.07-.26-.1-3.2-.08-8.72l.03-8.33.22-.41c.49-.91 1.63-1.54 2.5-1.38.87.15 11.79 2.99 14.23 3.69 1.69.48 2.3.92 2.58 1.85.08.23.12 2.53.14 6.8.03 6.37.03 6.46-.18 6.9-.44.95-1.03 1.38-2.03 1.49l-.55.06.03 2.8c.02 3.13-.04 3.56-.61 4.21-.6.69-.86.75-4.58 1.19-1.18.14-3.43.41-5 .6s-4.56.55-6.65.8l-6.68.8c-3.15.38-3.64.41-4.2.21Zm3.75-.41c3.32-.39 16.82-2.01 20.08-2.41 2.42-.29 2.78-.43 3.25-1.19l.3-.48.03-2.29.03-2.29-3.28.07c-1.8.03-5.46.07-8.13.08l-4.85.01-.47-.23c-.6-.3-1.23-.93-1.54-1.54-.42-.82-.45-1.58-.42-9.06.03-6.96.03-7.03-.17-7.07-.11-.02-1.37-.25-2.8-.5s-3.06-.55-3.63-.65c-2.04-.39-3.03-.05-3.56 1.22-.24.56-.24 24.46-.01 25.02.3.72 1.07 1.39 1.8 1.57.17.04.31.07.32.08.02.01 1.39-.15 3.05-.34ZM38.65 25.1c0-6.1.01-5.95-.62-6.53-.19-.16-.2-.16-.31.08-.16.36-.15.36-5.13-.64-6.05-1.22-5.99-1.21-5.99-1.57 0-.08-.1-.19-.22-.24-.22-.09-3.69-.7-3.99-.7-.12 0-.14.91-.13 6.68.01 7.52-.03 7.12.78 7.91.64.62.4.6 8.36.58l7.25-.02zm1.64 5.35c.34-.17.74-.61.97-1.05.18-.33.19-.7.19-6.9v-6.56l-.25-.49c-.3-.59-.97-1.04-1.87-1.27-.32-.09-2.81-.74-5.53-1.46-7.88-2.08-8.98-2.34-9.57-2.3-1.06.09-1.77.86-1.95 2.1-.1.73-.07 2.53.05 2.64.06.06 3.73.73 4.03.74.06 0 .16-.11.22-.25.17-.36.46-.33 3.14.3 1.28.31 3.48.82 4.88 1.15 3.06.7 2.99.68 3.54 1.26.78.8.76.67.76 6.79 0 2.98.03 5.45.08 5.49.1.11.99-.02 1.31-.19ZM27 26.62c-.33-.1-.5-.36-.5-.74 0-.81.54-.94 3.28-.78.97.05 3.09.17 4.71.25 3.15.16 3.31.2 3.31.7 0 .53.06.52-5.5.57-2.84.02-5.22.02-5.3 0Zm10.34-.28c.09-.03.16-.17.16-.3 0-.31.1-.3-4.7-.54-5.02-.25-5.67-.26-5.92-.03-.2.18-.24.63-.06.81.13.13 10.2.18 10.52.06Zm-1.74-3.61c-1.19-.12-4.82-.53-7.63-.85-1.19-.13-1.47-.3-1.47-.88 0-.57.37-.84 1.05-.75.64.09 5.64.78 8 1.11 1 .14 1.9.32 2.03.4.45.29.14 1.16-.4 1.13-.13-.01-.84-.08-1.58-.16Zm1.88-.45c.05-.39.12-.38-4.83-1.07-6.16-.86-5.95-.85-5.95-.27 0 .59.01.59 7.65 1.41 2.81.3 3.09.29 3.13-.07Zm.02-3.79c.2-.36.05-.46-1.17-.74-.65-.15-2.99-.69-5.21-1.21s-4.07-.94-4.13-.94c-.15 0-.27.42-.19.69.08.32-.24.23 5.55 1.41 5.59 1.14 5.01 1.05 5.15.79Z"/></svg>