<svg xmlns="http://www.w3.org/2000/svg" width="51" height="51" viewBox="0 0 51 51"><path fill="#fff" fill-rule="evenodd" stroke="#fff" stroke-width=".392" d="m25.38 40.95-.03-10.24-1.65 1.09c-.91.61-2.11 1.4-2.67 1.77l-1.03.68v5.02c0 4.86-.01 5.03-.19 5.13-.12.06-1.24.1-2.94.1h-2.74l-.09.58c-.09.56-.09.57-.45.6-.29.02-6.99-1.04-7.86-1.25l-.23-.05V33.12l.28-.11c.22-.09 5.36-1.36 7.29-1.81.84-.19 1.03-.04 1.03.82v.38h4.6v-6.57l-1.58-.07c-.86-.04-5.07-.05-9.34-.02L0 25.79v-.49h18.7v-2.64c0-2.36.02-2.66.17-2.85.18-.21.26-.21 3.33-.24l3.15-.02.03-9.77C25.4.08 25.4 0 25.6 0s.2.07.2 9.8v9.8H29c3.05 0 3.2.01 3.3.19.06.12.1 1.21.1 2.85v2.66h18.8v.5H32.4v3.46c0 3.24.01 3.45.18 3.4.26-.08 3.78-.93 5.26-1.27 1.86-.42 1.96-.39 1.96.61v.4l2.87.02 2.87.03.14.25c.19.37.13 11.39-.07 11.63-.12.15-.45.17-2.97.17H39.8v.34c0 .58-.16.86-.48.86-.81 0-8.07-1.3-8.19-1.47-.1-.13-.13-1.31-.13-5.19v-5.02l-2.52-1.63-2.62-1.71c-.08-.04-.1 2.87-.07 10.23l.03 10.29h-.42zM13.75 44.8l.07-.6h5.88v-4.87c0-3.21-.03-4.84-.1-4.77-.06.06-.11 1.83-.12 4.69l-.03 4.6-2.83.03-2.82.02V33h2.45c2.1 0 2.45-.02 2.45-.15 0-.12-.36-.15-2.42-.17l-2.43-.03-.03-.58c-.04-.75-.02-.75-1.73-.33-4.07.98-6.05 1.47-6.15 1.54-.08.05-.13 1.61-.15 5.47l-.04 5.39 3.65.62c4.63.8 4.26.79 4.35.04Zm25.75-.1v-.5h5.9V32.7l-2.92-.02-2.93-.03-.03-.58c-.04-.75-.04-.75-1.64-.38-1.52.35-5.04 1.19-5.31 1.27-.17.05-.18.16-.16.97l.03.92h-.27l-.27-.01v8.82l3.28.68c1.8.37 3.43.71 3.62.75.68.17.7.16.7-.39Zm-5.8-.36c-1.13-.24-2.06-.43-2.07-.44-.02 0-.04-2.15-.05-4.77-.02-3.7-.06-4.77-.15-4.81-.1-.03-.13.99-.13 4.87v4.9l.32.06c3.71.69 4.96.81 2.08.19Zm5.85-.56c-.03-.07-.04-2.51-.03-5.43l.03-5.3 2.76-.03c2.17-.02 2.78 0 2.8.1.02.07.03 2.53.01 5.46l-.02 5.32h-2.75c-2.11 0-2.77-.03-2.8-.12Zm-20.37-4.53c-.02-2.39-.06-4.34-.09-4.33-.23.1-.39-.29-.39-.93v-.69h-4.6v10.3h5.12zm25.62 3.44c0-.82-.01-.89-.16-.75-.12.12-.37.16-1.07.16-1.08 0-1.2-.05-1.15-.51l.03-.34 1.01-.03c.83-.02 1.05 0 1.18.13.15.15.16.11.16-.5 0-.6-.01-.65-.16-.51-.12.12-.37.16-1.07.16-1.08 0-1.2-.05-1.15-.51l.03-.34 1.01-.03c.83-.02 1.05 0 1.18.13.15.15.16.11.16-.5 0-.6-.01-.65-.16-.51-.16.16-1.72.24-2.08.1-.22-.08-.22-.7 0-.78.36-.14 1.92-.06 2.08.1.15.14.16.09.16-.51s-.01-.65-.16-.51c-.12.12-.37.16-1.07.16-1.08 0-1.2-.05-1.15-.51l.03-.34 1.01-.03c.83-.02 1.05 0 1.18.13.15.15.16.11.16-.5 0-.6-.01-.65-.16-.51-.16.16-1.72.24-2.08.1-.19-.07-.21-.55-.04-.72.19-.19 1.93-.16 2.12.04.15.14.16.1.16-.44 0-.33.03-.74.06-.91l.07-.31H39.8v10.3h5zm-30.15-.5c-.04-.05-.04-.2-.01-.33.05-.22.1-.23 1.59-.29 1.94-.07 2.23.01 2.01.57-.07.19-3.47.25-3.59.05Zm25.37-.21a.5.5 0 0 1-.12-.33c0-.38.19-.45 1.2-.45s1.2.07 1.2.45c0 .12-.05.26-.12.33-.16.16-2 .16-2.16 0Zm-22.74-.05c-.42-.02-1.14-.02-1.6 0-.46.01-.11.03.77.03s1.25-.02.83-.03Zm24.7-.31c.03-.09-.18-.12-.82-.12-.79 0-1.05.07-.89.24.13.12 1.66.02 1.71-.12Zm2.29.12c.45-.12.1-.24-.73-.24-.68 0-.84.03-.84.15 0 .16 1.09.22 1.57.09Zm-35.55-.96c-.17-.17-.17-3.29 0-3.46.18-.18 1.53-.15 1.93.04.96.45.72 1.93-.34 2.09-.85.14-.81.11-.81.64 0 .68-.42 1.05-.78.69Zm6 .03c-.08-.05-.12-.21-.1-.37l.03-.29 1.7-.03c1.73-.03 1.95.02 1.95.39 0 .36-3.09.61-3.58.3Zm19.55-.12c-.27-.16-.2-.49.23-1.14.44-.66.46-.5-.18-1.47-.59-.91.17-1.22.8-.33l.33.46.2-.28c.48-.66.61-.76.87-.7.44.11.42.35-.07 1.09L36 39l.45.66c.51.74.53.94.11 1.09-.24.08-.31.06-.45-.11-.09-.11-.28-.36-.43-.55-.25-.31-.29-.32-.39-.16-.16.27-.7.87-.78.87-.03 0-.14-.05-.24-.11Zm-25.07-.8c.04-.55.08-.64.25-.65.11 0 .37-.01.58-.02.8-.04 1.21-.83.73-1.39-.22-.25-.31-.28-1.05-.31l-.81-.04v1.57c0 1.21.03 1.56.13 1.53.07-.03.14-.3.17-.69Zm8.75.61c.04-.07-.48-.1-1.49-.1-.97 0-1.56.04-1.56.1s.56.1 1.49.1c.89 0 1.52-.04 1.56-.1Zm18.55-.13c0-.07-.2-.42-.44-.76l-.44-.63.44-.63c.24-.35.44-.68.44-.74 0-.2-.25 0-.6.49-.42.59-.42.59-.77.14-.15-.2-.35-.46-.45-.57-.36-.47-.28-.04.11.58.5.8.5.74.01 1.42-.22.31-.4.6-.4.65 0 .2.21.04.55-.42.46-.63.51-.62 1 .05.39.55.55.67.55.42Zm3.52.01a.5.5 0 0 1-.12-.33c0-.38.19-.45 1.2-.45s1.2.07 1.2.45c0 .12-.05.26-.12.33-.16.16-2 .16-2.16 0Zm1.88-.33c0-.06-.37-.11-.85-.13-.72-.02-.85 0-.85.13s.13.15.85.13c.48-.02.85-.07.85-.13Zm2.53 0c.02-.11-1.46-.2-1.7-.11-.08.03-.11.11-.08.16.08.14 1.74.09 1.78-.05ZM15.49 39c-1.7-.9-1.42-3.63.41-3.87l.4-.06v.89c0 1.28.05 1.34 1.26 1.34 1.11 0 1.13.04.62.9-.57.93-1.76 1.29-2.69.8Zm-6.29-.64v-.66h.49c1.31 0 1.37 1.17.06 1.28l-.55.04zm7.87.43c.35-.13.8-.55.99-.91l.15-.28h-.82c-1.16 0-1.39-.23-1.39-1.4 0-.89-.05-.93-.67-.53-1.68 1.1-.15 3.84 1.74 3.12Zm22.95-.01a.5.5 0 0 1-.12-.33c0-.38.19-.45 1.2-.45s1.2.07 1.2.45c0 .12-.05.26-.12.33-.16.16-2 .16-2.16 0Zm-29.81-.18c.39-.22.1-.6-.45-.6-.23 0-.26.04-.26.35 0 .38.28.48.71.25Zm31.77-.17c.03-.1-.19-.13-.87-.13-.75 0-.91.03-.91.15 0 .21 1.71.18 1.78-.02Zm2.35.11c.4-.12 0-.24-.78-.24-.75 0-1.04.07-.89.22.06.07 1.44.08 1.67.02ZM40 37.14c-.1-.11-.11-.23-.04-.42.09-.27.11-.27 1.08-.3 1.06-.03 1.26.04 1.26.44 0 .34-.28.44-1.28.44-.69 0-.93-.04-1.02-.16Zm-23.38-.16c-.19-.19-.17-2.22.03-2.38.7-.58 2.42.94 2.33 2.06l-.03.39-1.1.03c-.77.02-1.14-.01-1.23-.1Zm25.07-.04c.6-.12.3-.24-.59-.24-.73 0-.9.03-.9.15 0 .16.86.21 1.49.09Zm2.71-.09c0-.06-.37-.11-.85-.13-.72-.02-.85 0-.85.13s.13.15.85.13c.48-.02.85-.07.85-.13Zm-25.7-.27c-.01-.67-.67-1.5-1.33-1.67-.56-.14-.57-.12-.57.95v.94h.95c.92 0 .95-.01.95-.22Zm21.32-1c-.46-.46.01-.78 1.12-.78.97 0 1.16.07 1.16.45 0 .12-.05.26-.12.33-.16.16-2 .16-2.16 0Zm1.96-.31c-.03-.08-.3-.12-.88-.12s-.85.04-.87.12c-.04.1.18.13.87.13s.91-.03.88-.13Zm2.42-.02c0-.06-.37-.11-.85-.13-.72-.02-.85 0-.85.13s.13.15.85.13c.48-.02.85-.07.85-.13Zm-22.17-2.82c1.71-1.14 3.22-2.09 3.34-2.11.2-.04 5.44 3.28 6.24 3.96l.29.24V19.9l-6.52.02-6.53.03-.03 7.28c-.01 4 0 7.27.03 7.27s1.46-.93 3.18-2.07Zm-2-5.11c-.63-.06-.47-.52.48-1.42.86-.82.99-1.12.48-1.18-.19-.02-.31.04-.43.23-.21.32-.78.33-.84.02-.11-.56.45-1.07 1.18-1.07 1.3 0 1.65 1.16.65 2.16l-.44.44h.42c.6 0 .9.3.64.63-.12.15-1.38.26-2.14.19Zm3.27-.09c-.93-.48-1.15-2.27-.38-2.99.71-.65 1.79-.4 2.13.5.58 1.53-.53 3.12-1.75 2.49Zm5.73.06c-.4-.12-.75-.55-.71-.88.04-.36.7-.44.88-.11.09.16.19.2.42.18.48-.05.45-.26-.07-.48-.6-.26-.62-.65-.05-.84.42-.13.47-.4.08-.44a.41.41 0 0 0-.41.18c-.11.16-.23.21-.48.18-.49-.04-.51-.38-.06-.83.9-.9 2.62-.02 2.03 1.03-.11.2-.1.29.06.62.45.9-.57 1.74-1.69 1.39Zm-3.46-.06c-.24-.23-.03-.59.74-1.33.87-.82.99-1.12.47-1.18-.2-.02-.31.04-.44.22-.36.56-1.06.24-.81-.37.2-.48.52-.67 1.1-.67 1.41 0 1.72 1.05.64 2.18l-.41.42h.41c.56 0 .82.25.67.64-.06.17-2.22.25-2.37.09Zm-1.38-.24c.82-.29.93-2.32.14-2.68-.88-.4-1.47.05-1.51 1.16-.04 1.23.49 1.83 1.37 1.52Zm5.85-.03c.5-.21.66-.68.36-1.08-.22-.29-.22-.32-.06-.58.34-.59-.02-1.1-.77-1.1-.43 0-.97.28-.97.51 0 .16.26.1.45-.11.33-.37 1.15-.12 1.15.34 0 .17-.46.56-.66.56-.08 0-.14.05-.14.1 0 .06.08.1.19.1.26 0 .71.38.71.59 0 .5-1 .75-1.28.33-.22-.33-.55-.28-.34.05.23.37.85.5 1.36.29Zm-8.09-.06c-.03-.06-.33-.1-.65-.1-.78 0-.8-.08-.15-.78.79-.86.91-1.42.36-1.71-.53-.29-1.51.01-1.51.46 0 .21.2.15.42-.12.24-.31.7-.33.98-.05.39.39.16.88-.78 1.65-.85.7-.82.75.39.75.64 0 .98-.04.94-.1Zm5.7 0c-.03-.06-.33-.1-.66-.1-.53 0-.83-.18-.51-.32.04-.02.31-.29.6-.61.85-.95.69-1.67-.38-1.67-.51 0-.9.22-.9.51 0 .26.18.24.42-.06.24-.31.7-.33.98-.05.35.35.19.71-.74 1.58-.86.8-.85.82.3.82.61 0 .93-.04.89-.1Zm-4.35-.35c-.38-.4-.36-1.58.03-1.91.7-.6 1.31-.1 1.25 1.01-.05 1.11-.67 1.55-1.28.9Zm.91-.27c.3-.56.08-1.58-.35-1.58-.36 0-.51.26-.51.9 0 .83.55 1.26.86.68Zm-12.46-6.44c-3.87-.67-6.28-1.14-6.42-1.25-.18-.15-.13-11.03.05-11.21.11-.11 1.32-.42 5.51-1.39l2.65-.61.18.22c.11.14.18.39.18.66v.44h2.84c2.33 0 2.86.03 2.95.14.22.26.15 11.67-.06 11.84-.13.09-.88.12-2.94.12h-2.76l-.05.52c-.09.86-.11.87-2.13.52Zm24.45-.1c-1.02-.19-2.72-.5-3.79-.69s-2-.4-2.07-.46c-.21-.17-.21-11.01 0-11.18.11-.09 5.68-1.48 7.68-1.92.76-.16.98 0 .98.72v.47h2.76c2.47 0 2.78.02 2.95.18.27.24.3 11.51.03 11.78-.13.14-.54.16-2.95.16H39.2v.36c0 .36-.15.73-.34.86-.17.12-.47.08-2.46-.28Zm-22.66-.26c.03-.18.07-.46.08-.63l.03-.3 2.92-.03 2.93-.02.02-5.63c.02-3.09.01-5.68-.01-5.74-.02-.1-.74-.13-2.95-.15l-2.91-.03-.06-.58c-.08-.74.03-.7-1.24-.41-1.97.45-6.54 1.54-6.67 1.59-.1.04-.14 1.18-.16 5.45l-.03 5.39.23.06c.13.03 1.62.3 3.33.6s3.33.59 3.6.64c.82.15.84.14.89-.21Zm25.1.16c.03-.09.06-.32.06-.52 0-.64-.1-.61 3-.64l2.85-.03.03-5.68c.02-4.82 0-5.68-.12-5.73-.08-.03-1.39-.06-2.93-.07l-2.78-.02-.03-.55c-.04-.76-.01-.75-1.73-.36-1.47.33-5.95 1.41-6.31 1.52-.17.05-.18.4-.18 5.44v5.38l.28.06c.15.03 1.55.29 3.12.57s3.17.56 3.55.64c.95.18 1.12.18 1.19-.01Zm-25.02-6.86.03-5.43 2.74-.03c2.13-.02 2.76.01 2.83.1.13.22.1 10.52-.04 10.66-.09.09-.86.12-2.85.12H13.8zm25.13 5.3c-.03-.07-.04-2.51-.03-5.43l.03-5.3h5.4v10.8l-2.68.03c-2.09.02-2.69 0-2.72-.1ZM19.2 12.75V7.6h-5.1v10.3h5.1zm24.9 0V7.6h-4.9l.01 3.43c0 2.14.04 3.34.09 3.2.09-.23.11-.23 2.28-.23 2.42 0 2.57.04 2.34.55l-.12.25h-2.19c-1.99 0-2.21-.02-2.3-.18-.07-.12-.1.33-.11 1.56v1.72h4.9zm-29.23 3.59c-.12-.12-.08-.51.07-.63.09-.08.65-.11 1.77-.09l1.64.03v.7l-1.71.03c-.93.01-1.73-.01-1.77-.04Zm24.55-.03c-.08-.05-.12-.21-.1-.37l.03-.29 2.2-.03c1.98-.02 2.21-.01 2.32.15.17.22.16.28-.03.47-.17.18-4.16.24-4.42.07ZM18.1 16c0-.06-.57-.1-1.5-.1s-1.5.04-1.5.1.57.1 1.5.1 1.5-.04 1.5-.1Zm25.55 0c.04-.07-.65-.1-1.99-.1-1.31 0-2.06.04-2.06.1s.73.1 1.99.1c1.23 0 2.02-.04 2.06-.1Zm-28.78-1.16c-.14-.14-.06-.54.12-.64.11-.05.85-.1 1.69-.1 1.61 0 1.77.05 1.7.52-.03.23-.04.23-1.74.26-.93.01-1.73-.01-1.77-.04Zm18.09-.26c-.35-.86-.8-2.96-.67-3.12.33-.39.91.1.91.77 0 .06.05.3.11.51l.11.4.3-.8c.56-1.46.89-1.44 1.42.1l.23.65.18-.62c.35-1.17.78-1.56 1.05-.94.17.38-.78 3.31-1.08 3.35-.35.05-.46-.1-.78-1.03-.33-.97-.36-1-.53-.43-.44 1.44-.94 1.91-1.25 1.16Zm-15.58-.05c-.43-.02-1.13-.02-1.55 0-.43.01-.08.03.77.03s1.2-.02.78-.03Zm16.47-.98c.54-1.51.64-1.47 1.3.53.09.29.22.51.28.49.11-.03 1-2.87.93-2.95-.12-.11-.28.16-.47.81-.47 1.61-.55 1.63-1.01.25-.44-1.3-.48-1.3-.93-.03-.5 1.41-.65 1.42-.96.08-.21-.96-.32-1.23-.45-1.11-.06.06.47 2.22.66 2.74.16.41.26.28.65-.81Zm9.85.85c0-.06-.75-.1-2.05-.1s-2.05.04-2.05.1.75.1 2.05.1 2.05-.04 2.05-.1Zm-37.2-.15c-.11-.13-.08-.37.16-1.33l.29-1.17.37-.09c.22-.06.53-.06.79 0 1.17.25.93 1.62-.31 1.79-.44.06-.49.1-.55.36-.12.52-.5.75-.75.44Zm2.22.09c-.16-.07-.15-.39.02-1 .08-.27.21-.75.3-1.06l.17-.58h.63c1.22 0 1.65 1.03.85 2.04-.35.44-1.51.8-1.97.6Zm2.3-.07c-.11-.12.14-1.55.38-2.24l.12-.33h.94c.93 0 .94 0 .94.25 0 .31-.26.45-.84.45-.25 0-.46.05-.46.1s.18.1.4.1c.84 0 .7.69-.16.79-.45.06-.49.08-.59.41-.17.6-.47.79-.73.47Zm-4.03-.68c.11-.35.15-.37.66-.44 1.11-.13 1.3-1.07.24-1.21-.61-.08-.72.05-.98 1.15-.27 1.14-.22 1.44.08.5Zm3.04.29c.41-.16.7-.63.71-1.15.01-.55-.19-.73-.84-.73h-.46l-.27.95c-.15.52-.27.99-.27 1.04 0 .11.74.04 1.13-.11Zm1.53-.43c.08-.26.15-.3.49-.33.65-.04.75-.15.2-.21-.46-.06-.5-.08-.47-.31.04-.46.09-.5.66-.5.3 0 .58-.05.61-.1.07-.11-.22-.13-.88-.04l-.45.06-.21.84c-.31 1.21-.26 1.66.05.59Zm-2.39.38c-.03-.05 0-.34.07-.64.08-.3.17-.66.2-.81.15-.66 1.16-.26 1.16.45 0 .63-1.16 1.44-1.43 1Zm1.03-.63c.15-.28.12-.67-.06-.74-.31-.12-.42-.05-.48.32-.03.2-.09.47-.12.59-.08.29.5.13.66-.17Zm4.52-.13c-.21-.22-.22-.33-.22-1.79 0-2.33 0-2.33 2.39-2.26 1.95.05 1.86-.05 1.86 2.19 0 2.23.14 2.09-2.14 2.09-1.62 0-1.68-.01-1.89-.23Zm24.62-.01a.9.9 0 0 1-.02-.38l.03-.23 2.21-.03c2.44-.03 2.6.01 2.36.53l-.12.25h-2.2c-1.82 0-2.22-.03-2.26-.14Zm-32.09-.43c.04-.21.09-.41.11-.45.08-.13.79-.09.92.04.34.34-.07.78-.71.78h-.39zm10.99.31c.09-.03.16-.11.16-.17 0-.07-.04-.07-.12.01-.14.14-1.66.16-1.87.03-.28-.18.71-1.71 1.11-1.71.23 0 .77.54.79.79.03.33.17-.86.18-1.5.01-1.03 0-1.03-1.73-1.07-2.06-.05-1.96-.15-1.96 1.86 0 1.1.04 1.62.12 1.7.13.13 3.01.18 3.32.06Zm-3.12-.11c-.31-.12.13-.94.59-1.08.54-.17.63.4.14.84-.35.3-.47.35-.73.24Zm28.58-.03c0-.06-.75-.1-2.05-.1s-2.05.04-2.05.1.75.1 2.05.1 2.05-.04 2.05-.1Zm-25.91-.26c.36-.08.41-.34.14-.74-.36-.53-.44-.52-.87.12-.46.68-.29.82.73.62Zm21.58-1.01c-.13-.13-.07-.61.09-.67.46-.18 4.33-.06 4.44.13.13.25.13.27-.06.45-.16.17-4.32.25-4.47.09Zm4.28-.33c.04-.07-.65-.1-1.99-.1-1.31 0-2.06.04-2.06.1s.73.1 1.99.1c1.23 0 2.02-.04 2.06-.1Zm-27.67-.21c-.26-.14-.23-.65.03-.79.52-.28 1.02.28.64.7-.2.22-.41.25-.67.09Zm23.39-1.06c-.13-.13-.07-.61.09-.67.39-.15 4.22-.06 4.38.1.53.52.11.64-2.28.64-1.17 0-2.16-.03-2.19-.07Zm4.28-.33c-.04-.06-.83-.1-2.06-.1-1.26 0-1.99.04-1.99.1s.75.1 2.06.1c1.34 0 2.03-.03 1.99-.1Z"/></svg>