<svg xmlns="http://www.w3.org/2000/svg" width="51" height="51" viewBox="0 0 51 51"><path fill="#fff" fill-rule="evenodd" stroke="#fff" stroke-width=".758" d="M18.6 41.94c-.14-.02-.52-.09-.85-.15-2.67-.46-5.48-2.35-6.91-4.65-1.56-2.51-1.95-5.19-1.24-8.49.48-2.22.49-3.97.02-6.2-.89-4.32-.12-7.38 2.55-10.11 2.74-2.81 6.39-3.75 10.58-2.74 1.97.47 3.41.47 5.7-.01 4.32-.9 7.83 0 10.49 2.69 2.76 2.79 3.62 6.12 2.65 10.17-.49 2.05-.49 4.21.01 6 1.08 3.91-.14 8.03-3.26 10.94-2.59 2.42-5.43 3.08-9.49 2.21-2.29-.49-4.27-.5-6.55-.02-1.45.31-3.1.47-3.7.36Zm3.67-.56c2.17-.47 4.47-.47 6.68.01 4.09.89 6.83.21 9.41-2.34 3-2.98 4.09-6.73 3.04-10.55-.5-1.82-.51-4.07-.02-6.1.68-2.77.48-5.08-.6-7.25-2.26-4.5-6.9-6.52-12.28-5.35-2.22.48-3.84.48-5.85.02-5.02-1.17-9.1.36-11.72 4.41-1.51 2.33-1.84 4.92-1.06 8.42.41 1.83.39 4.04-.05 6.03-.57 2.53-.52 4.04.19 6.17 1.04 3.11 3.35 5.35 6.64 6.45 1.72.57 3.23.59 5.62.08Z"/></svg>