<svg xmlns="http://www.w3.org/2000/svg" width="51" height="51" viewBox="0 0 51 51"><path fill="#fff" fill-rule="evenodd" stroke="#fff" stroke-width=".738" d="M3.57 49.63c-.04-.03-.07-3.18-.07-7V35.7H1.53l-.04-5.37c-.03-2.96-.02-10.67.01-17.13l.05-11.75h35.3l.03 1.33.03 1.32 4.52.01c2.49 0 5.33.01 6.32.02l1.8.02L49.6 6c.09 2.83.11 23.67.04 26.93l-.07 2.87H47.6V47H36.9v.43c0 .24-.03.85-.06 1.35l-.07.92H20.2c-9.11 0-16.6-.03-16.63-.07Zm33.07-1.51.08-1.32H47.4l.02-5.62.03-5.63.96-.03.97-.03.07-7.57c.07-6.73-.01-23.41-.11-23.51-.02-.02-2.87-.06-6.34-.09l-6.3-.05V3.25c0-.56-.03-1.17-.06-1.34l-.06-.31H1.7l-.02 10.93c-.03 11.19-.03 12.03.03 18.95l.03 4.02H3.7v14l16.42-.02 16.43-.03zm-9.31-8.49c-.43-.06-.48-.29-.28-1.23.53-2.44.52-2.05.12-4.42-.46-2.72-.52-2.92-.8-2.84-3.05.89-4.5 1.08-8.07 1.11-3.78.03-4.67.24-6.72 1.62-1.51 1-1.54.94-.99-1.9.59-3 1.06-6.64 1.3-10.02l.1-1.3.55-.51c.8-.76 4.29-2.2 4.81-2 .22.08.18 1.08-.2 5.31-.14 1.54-.28 3.46-.32 4.26l-.06 1.47.49.1c1.37.29 2.02.36 3.49.37 2.36 0 2.89-.23 3.8-1.69.56-.9.57-.71-.19-2.29-.8-1.67-1.74-3.07-3.15-4.72-1.41-1.64-1.41-1.69-.06-2.21 2.42-.93 3.74-.86 5.13.26l.62.5v-.38c0-1.29-.37-3.16-.72-3.64-.84-1.19-3.93-.98-8.7.58-2.62.86-3.85 1.53-5.77 3.13-1.05.88-1.45 1.07-2.71 1.33-1.21.24-1.3.2-1.3-.56 0-.57.21-1.88.51-3.18l.2-.86 1.06-.41c5.02-1.95 10.72-3.48 14.15-3.81 6.17-.6 8.8.85 9.38 5.17.31 2.31-.57 7.88-1.56 9.87l-.25.5.2.75c.11.42.45 1.84.76 3.16.3 1.32.57 2.5.6 2.63.06.26.45-.2 2.39-2.86 3.35-4.58 4.52-6.91 5.16-10.24.1-.5.14-.58.34-.58.66 0 3.04 1.05 3.72 1.64 1.23 1.06 1 2.01-1.26 5.31-2.22 3.25-2.49 3.59-5.66 7.1-2.91 3.22-3.77 3.95-5.57 4.69-1.49.62-3.42.96-4.54.79Zm3.49-.66c2.63-.89 3.23-1.37 7.18-5.77 2.23-2.48 3.03-3.51 5-6.4 1.55-2.27 1.72-2.6 1.78-3.57l.05-.71-.44-.44c-.6-.59-3.54-1.96-3.76-1.75-.02.03-.15.59-.29 1.26-.36 1.81-.92 3.14-2.23 5.34-1.25 2.09-5.08 7.37-5.36 7.37-.09 0-.18-.21-.25-.57-.94-4.66-1.71-7.19-2.95-9.7-2.04-4.12-3.61-5.69-5.7-5.67-1.14 0-3.55.76-3.55 1.12 0 .04.41.54.91 1.11 1.78 2.03 2.51 3.17 3.84 6 1.46 3.09 1.9 4.49 2.4 7.63.31 1.94.31 2.16.01 3.36-.23.89-.3 1.35-.27 1.71.02.3 2.42.09 3.63-.32Zm-19.3-5.34c2-1.36 2.73-1.53 7.13-1.63 1.87-.05 3.54-.11 3.7-.15.17-.03.75-.15 1.3-.26 1.07-.22 2.65-.66 2.78-.78.09-.09-.41-1.55-.91-2.64l-.35-.78-.39.63c-.58.91-1.13 1.45-1.72 1.65-1.13.4-6.17.09-6.47-.38-.12-.18-.04-1.51.31-5.54.36-4.05.45-5.45.36-5.45-.23 0-2.89.96-3.47 1.26-1.27.64-1.55.98-1.63 2.02-.3 3.88-.8 7.73-1.42 10.79-.19.94-.34 1.74-.34 1.77 0 .17.38 0 1.12-.51Zm19.86-7.3c.87-2.08 1.66-7.11 1.43-9.11-.48-4.06-2.19-5.37-7.01-5.36-3.37 0-5.54.4-10.3 1.87-2.34.73-3.56 1.14-6.38 2.14-.54.19-.55.22-.87 1.83-.3 1.54-.42 2.65-.29 2.72.17.1 1.92-.3 2.4-.55.27-.14.87-.58 1.34-.97 1.78-1.49 2.91-2.12 5.31-2.93 4.64-1.57 7.91-1.9 9.1-.9.57.48.82 1.39.98 3.58.08 1.1.1 1.16.42 1.52.8.91 2.69 4.37 3.29 6.01.27.74.32.76.58.15Z"/></svg>