<svg xmlns="http://www.w3.org/2000/svg" width="51" height="51" viewBox="0 0 51 51"><path fill="#fff" fill-rule="evenodd" stroke="#fff" stroke-width=".458" d="M33.2 45.96c-.71-.19-1.36-.56-1.98-1.12-.56-.5-.57-.51-.92-.38-1.42.51-3.14-.21-3.82-1.61l-.21-.43-.71-.05c-8.33-.53-14.64-5.71-16.22-13.31C6.84 17 17.88 6.47 29.79 9.56c9.96 2.59 15.22 13.71 10.89 23.06l-.41.88.36.68c.2.38.43.97.51 1.32.08.34.16.63.18.64s.33.17.69.34c2.62 1.26 2.85 4.94.41 6.51-.95.61-2.39.76-3.34.37-.52-.22-.53-.22-.86.37-1.01 1.78-3.16 2.74-5.02 2.23Zm2.83-.49c.86-.4 1.6-1.1 2.08-1.94.18-.32.34-.6.35-.62.02-.02.27.07.56.2.42.18.7.23 1.38.23 3.92 0 4.89-5.31 1.24-6.79-.58-.23-.59-.25-.66-.69-.65-4.49-7.06-5.69-9.14-1.71-.33.63-.28.61-.91.36-2.01-.79-4.09.26-4.7 2.36l-.18.63h-.5c-1.27.01-2.28 1.07-2.27 2.4 0 1.46 1.02 2.36 2.58 2.29l.56-.03.13.37c.49 1.44 2.13 2.2 3.7 1.72l.49-.14.5.47c1.45 1.36 3.14 1.68 4.79.89Zm-12.25-3.74c-1.54-1.65-.44-4.43 1.75-4.43.34 0 .37-.03.48-.42.61-2.27 3.16-3.52 5.11-2.52.26.14.27.13.63-.45 1.63-2.69 5.46-3.23 7.8-1.09.31.28.57.49.59.47.14-.16.89-2.01 1.1-2.69 2.83-9.33-2.74-18.95-12.15-20.99-11.43-2.47-21.65 7.4-19.63 18.96 1.23 7.08 7.42 12.81 14.48 13.42.06.01-.02-.11-.16-.26ZM20 27.77c0-.41.03-.45 1.16-1.51.64-.6 1.2-1.2 1.25-1.35.35-.9-1.01-1.36-1.43-.48-.24.49-1.13.44-1.03-.07.28-1.39 2.5-1.71 3.32-.47.48.72.24 1.32-1.02 2.53l-.9.88h2.15v.9H20zm5.06.2c-.97-.55-1.07-1.66-.2-2.23l.25-.17-.32-.26c-.95-.8-.1-2.2 1.34-2.21 1.49 0 2.31 1.46 1.25 2.26l-.25.18.31.21c1.67 1.13-.59 3.25-2.38 2.22Zm1.69-.82c.4-.39.29-.83-.24-1.05-.56-.23-1.21.1-1.21.62 0 .66.95.94 1.45.43Zm-.1-2.2c.6-.6-.31-1.39-1.03-.89-.22.15-.3.57-.14.8.26.38.84.43 1.17.09Zm2.78-.31c-.15-.24-.15-.29-.02-.53.29-.51 1.09-.33 1.09.24 0 .56-.76.76-1.07.29ZM.01 17.03c0-.04.69-.71 1.52-1.47.84-.77 2.8-2.62 4.37-4.11s4.83-4.57 7.25-6.84S17.65.36 17.78.23c.13-.14.26-.22.3-.18s-.22.34-.58.68C14.01 4.01 9.42 8.34 7.05 10.6 1.59 15.81-.02 17.27.01 17.03Zm2.44-6.24c-1.09-.61-1.03-.55-.79-.79.19-.2.2-.19.77.15.66.4.67.39.27-.27-.33-.54-.37-.76-.15-.84.19-.08.78.12 1.09.37.34.26.33.2-.06-.42-.23-.38-.29-.56-.21-.67.17-.27.32-.25.5.08.1.18.33.57.51.87.36.63.38.75.16.98-.15.14-.2.13-.7-.14-.63-.34-.62-.34-.27.31.21.38.25.53.16.66-.17.28-.34.24-1.28-.29Zm2.2-1.62c-.85-.72.09-2.09.95-1.39.27.22.19.44-.31.86-.27.23-.28.26-.09.26.13 0 .28-.13.41-.35.31-.52.61-.39.4.17-.25.65-.88.87-1.36.45Zm1.58-.97A.34.34 0 0 1 6 7.87c0-.16-.09-.28-.25-.35-.35-.16-.33-.56.04-.93.4-.4.54-.37 1.17.23l.55.52-.2.2c-.11.12-.31.33-.45.49-.27.29-.3.3-.63.17Zm.97-1.65c-.22-.23-.4-.33-.51-.3-.2.07-.35-.1-.19-.2.08-.05.05-.13-.06-.26-.26-.29.04-.61.38-.4.16.1.22.1.28 0 .05-.06.15-.09.24-.06.14.06.14.1.04.26-.15.25.25.75.54.67.32-.08.42.29.13.48-.35.23-.47.2-.85-.19Zm.53-1.07c-.59-.6-.7-.76-.62-.9.12-.22.32-.23.49-.03.11.13.16.11.4-.15.36-.39.7-.3 1.23.33.33.39.38.49.27.62-.19.23-.29.19-.7-.27-.36-.41-.39-.42-.56-.26-.16.16-.15.19.19.58.4.44.43.5.25.68s-.18.18-.95-.6Zm1.56-1.07c-.51-.51-.33-1.32.31-1.46.36-.08.85.18.76.41-.03.09.01.14.14.14.32 0 .27.6-.08.93-.37.36-.75.35-1.13-.02Zm.89-.33c.21-.21.15-.44-.06-.25-.37.34-.62.21-.36-.18.19-.29-.03-.37-.26-.1-.28.34.37.84.68.53Zm.35-.98c-.63-.67-.7-.85-.35-.84.15 0 .22-.05.22-.18 0-.22.27-.35.42-.2.08.08.08.18 0 .36-.1.22-.07.3.23.66.39.47.41.53.21.7-.12.09-.25 0-.73-.5Z"/></svg>