<svg xmlns="http://www.w3.org/2000/svg" width="51" height="51" viewBox="0 0 51 51"><path fill="#fff" fill-rule="evenodd" stroke="#fff" stroke-width=".746" d="M42.5 43.29c-.34-.15-1.51-1.26-4.65-4.4-2.31-2.3-4.27-4.19-4.35-4.19s-.29.09-.45.21c-3.27 2.22-8.56 2.78-12.33 1.3-2.87-1.13-5.67-3.5-6.98-5.91l-.27-.5-1.56-.01c-5.58-.02-5.94-.03-6.28-.23-.71-.43-.92-1.38-.44-2.04.42-.6.58-.62 4.01-.62 2.45 0 3.11-.03 3.07-.12-.03-.07-.13-.57-.23-1.1l-.18-.97-3.01-.03c-3.4-.03-3.36-.03-3.75-.83-.27-.56-.19-1.05.24-1.52.44-.48.76-.53 3.81-.52h2.69l.23-1.13c.12-.62.23-1.14.23-1.15s-1.49-.04-3.31-.05l-3.31-.03-.28-.32c-.68-.76-.53-1.81.33-2.33.3-.19.53-.2 4.04-.2h3.72l.67-1.02c4.42-6.76 14.06-8.08 20.34-2.8 5.31 4.47 6.45 12.45 2.59 18.14-.22.31-.39.61-.39.65s1.89 1.97 4.21 4.28c4.45 4.44 4.59 4.6 4.59 5.5 0 1.57-1.57 2.59-3 1.94Zm1.8-.24c.42-.22.88-.89.95-1.39.15-1.01.23-.91-4.51-5.66-2.39-2.4-4.34-4.38-4.34-4.41 0-.04.21-.37.46-.75 4.48-6.68 2.09-15.92-5.06-19.58-4.03-2.06-9.19-1.96-12.95.26-8.45 4.99-9.14 16.76-1.32 22.64 4.33 3.27 10.49 3.53 15.22.65.38-.23.73-.43.76-.44.04-.01 1.66 1.56 3.61 3.48 4.76 4.71 5.27 5.19 5.68 5.32.42.14 1.1.09 1.5-.12Zm-20.17-9.06c-6.69-.87-10.92-7.76-8.74-14.22 2.19-6.48 9.87-9.24 15.85-5.7 1.11.66 2.93 2.48 3.59 3.59 4.63 7.82-1.71 17.5-10.7 16.33Zm4.08-.48c7.95-2.19 10.62-11.83 4.89-17.62-4.14-4.19-10.8-4.2-15.04-.02l-.69.68 5.84.05c6.28.05 6.05.03 6.53.6.37.44.42.88.18 1.44-.41.91.06.86-7.54.86h-6.66l-.16.48c-.14.43-.24.83-.4 1.55l-.06.27h4.07c4.46 0 4.65.02 5.12.55.42.49.49.93.21 1.5-.4.82-.27.8-5.13.83l-4.28.03.06.32c.04.18.16.67.27 1.09l.21.78h5.5c6.04 0 5.9-.01 6.36.61.48.65.33 1.55-.33 2.02-.3.21-.39.22-2.76.22-1.35 0-3.5.01-4.78.03l-2.33.02.33.4c1.21 1.52 3.62 2.96 5.68 3.41 1.2.26 3.81.21 4.91-.1ZM12.9 28.53c-.21-.54-.41-1.06-.44-1.15-.06-.2-.01-.2-4.21-.18-2.48.01-2.57.03-2.92.56-.34.52-.1 1.31.48 1.61.18.09 1.19.13 3.86.13h3.61zm14.26.63c.29-.29.34-.41.34-.81s-.05-.52-.34-.81l-.34-.34-1.14-.02c-3.83-.07-9.88-.03-9.88.07 0 .17.46 1.1.84 1.69l.36.56h9.82zm-15.31-5.91V22.1H8.9c-3.23 0-3.24 0-3.55.6-.26.5-.19.98.19 1.36l.34.34h5.97zm12.16.87c.51-.45.54-1.19.06-1.67l-.35-.35H15v2.3h8.7zm-11.36-5.53c.12-.36.33-.88.47-1.16l.24-.51-2.43-.07c-3.32-.1-4.8-.05-5.16.19-.56.38-.74 1.16-.38 1.7.37.55.39.56 3.85.53l3.19-.02zm16.49.56c1.02-.48.82-1.99-.29-2.25-.23-.06-2.85-.1-6.02-.09H17.2l-.24.32c-.29.39-.8 1.29-1.01 1.8l-.15.37h6.51c5.61 0 6.55-.02 6.83-.15Z"/></svg>