<svg xmlns="http://www.w3.org/2000/svg" width="51" height="51" viewBox="0 0 51 51"><path fill="#fff" fill-rule="evenodd" stroke="#fff" stroke-width=".734" d="M25.11 44.03c-.13-.03-1.34-.45-2.7-.95-1.35-.49-4.15-1.5-6.21-2.25-2.06-.74-4.02-1.48-4.35-1.63-1.68-.76-3-2.33-3.4-4.02-.18-.77-.23-18.15-.05-19.09.32-1.74 1.98-3.62 3.77-4.27.32-.12 3.26-1.19 6.53-2.39l5.95-2.17h2l2.85 1.06c1.57.58 4.39 1.62 6.27 2.32 1.88.69 3.64 1.36 3.92 1.5 1.17.6 2.33 1.87 2.89 3.18l.27.63v19.1l-.22.59c-.51 1.34-1.64 2.72-2.73 3.33-.46.26-8.4 3.21-12.6 4.69-1.16.41-1.59.48-2.19.37Zm1.5-.37c.24-.07 2.24-.8 4.44-1.61 2.2-.8 4.88-1.78 5.95-2.17 3.04-1.09 3.94-1.68 4.82-3.14.85-1.39.8-.77.85-10.69.04-5.94.02-9.04-.05-9.55-.16-1.13-.72-2.17-1.64-3.06-1.15-1.12-.36-.78-11.35-4.8-2.05-.75-3.32-1.16-3.71-1.2-.76-.08-1-.01-5.97 1.81-2.14.78-4.75 1.73-5.8 2.1-3.48 1.23-4.58 2.08-5.32 4.13l-.23.63v18.88l.24.65c.32.89.76 1.54 1.54 2.28.89.84 1.27 1.01 6.02 2.73 2.23.81 5.08 1.84 6.35 2.31 2.48.9 2.95.99 3.86.7Zm2.88-3.36c-1.35-.71-1.46-1.57-1.48-11.57-.01-4.83.15-5.88 1.12-7.35.68-1.02.45-.91 6.18-3.02 4.31-1.59 4.18-1.55 4.45-1.25.22.24.29 3.08.09 3.28-.06.06-1.47.6-3.15 1.21-5.98 2.17-5.4 1.71-5.4 4.31 0 1.04.04 1.89.08 1.89s1.27-.43 2.72-.95c4.44-1.6 4.73-1.67 5.4-1.21.87.58 1.2 1.74 1.27 4.41.12 4.63-.74 6.95-2.89 7.77-7.01 2.67-7.66 2.87-8.39 2.48Zm4.82-1.39c4.65-1.74 4.73-1.78 5.48-3.29.59-1.18.71-1.96.71-4.77 0-3.31-.19-4.18-1.05-4.93-.58-.51-.84-.45-5.69 1.3-3.06 1.11-2.78 1.24-2.74-1.32.04-2.72-.4-2.34 5-4.31l3.68-1.34v-1.46c0-1.12-.03-1.49-.14-1.58-.14-.12-.18-.11-6.39 2.19-3.28 1.22-3.49 1.36-4.17 2.73-.72 1.45-.72 1.45-.68 9.17l.03 6.85.24.58c.41 1.04 1.09 1.61 1.82 1.53.2-.02 1.95-.63 3.9-1.35ZM20.9 40.04c-.25-.09-2.68-.97-5.4-1.96s-5.07-1.85-5.22-1.9l-.28-.1v-8.36c0-5.6.04-8.56.11-8.98.22-1.25 1.05-2.14 2-2.14.56 0 7.7 2.51 9.18 3.22 1.94.94 3.51 3.6 3.92 6.65.18 1.32.05 9.34-.16 10.27-.56 2.48-2.38 3.92-4.15 3.3Zm1.85-.32c.93-.47 1.6-1.37 1.96-2.64.24-.83.24-.85.24-5.98v-5.15l-.27-.98c-.88-3.12-2.1-4.48-5.05-5.58-6.89-2.58-7.78-2.8-8.53-2.13-.84.76-.8.28-.78 10.07l.03 8.61 2.25.83c9.47 3.48 9.24 3.42 10.15 2.95Zm8.41-3.34c-.18-.25-.24-4.5-.07-4.76.1-.16 5.85-2.32 6.17-2.32.43 0 .49.22.52 2.09.06 2.5-.15 3.05-1.29 3.45-.3.1-1.49.54-2.65.97-2.31.86-2.46.89-2.68.57Zm2.99-.94c2.92-1.07 2.96-1.09 3.19-1.57.18-.39.24-3.99.07-4.26-.09-.14-1.87.47-5.56 1.88l-.5.19-.03 2.23c-.02 2.19-.01 2.49.15 2.49.04 0 1.25-.43 2.68-.96Zm-17.1-.3c-1.71-.63-3.32-1.23-3.6-1.33l-.5-.18-.03-6.22c-.04-7.01-.04-6.97.57-6.88.46.06 5.32 1.79 6.3 2.23.85.39 1.32.84 1.78 1.69.75 1.42.89 2.71.75 7.2-.1 3.28-.17 3.61-.93 4.3-.61.54-.79.51-4.34-.81Zm4.19.65c.75-.65.8-.96.84-5.13.04-4.06-.01-4.57-.58-5.83-.32-.7-.98-1.46-1.5-1.73-.85-.43-6.57-2.43-6.71-2.34-.05.03-.09 2.78-.09 6.38v6.32l2.13.78c1.16.43 2.77 1.02 3.57 1.32 1.71.63 1.88.64 2.34.23Zm1.33-17.39c-7.72-2.91-11.14-4.1-11.84-4.1-.56 0-.56-.16-.01-.66.71-.65 1-.78 5.04-2.25 2.14-.77 5.02-1.82 6.39-2.32l2.5-.92h2.1l3.85 1.44c2.12.79 4.94 1.83 6.28 2.32 2.46.9 3.04 1.19 3.6 1.84.43.49.41.52-.3.57-.47.03-1.18.24-2.73.82-13.35 4.97-11.46 4.55-14.88 3.26Zm5.36.01c.89-.33 3.88-1.43 6.65-2.45 3.41-1.26 5.15-1.86 5.42-1.86.22 0 .4-.04.4-.1 0-.15-.9-.83-1.35-1.02-.44-.19-10.23-3.8-11.8-4.35-1.65-.58-1.55-.6-7.65 1.62a834 834 0 0 1-6.2 2.24c-1.23.44-1.81.72-2.33 1.13-.49.39-.47.44.15.51.48.05 4.74 1.55 11.49 4.05 2.99 1.11 2.8 1.1 5.22.23Z"/></svg>