<svg xmlns="http://www.w3.org/2000/svg" width="51" height="51" viewBox="0 0 51 51"><path fill="#fff" fill-rule="evenodd" stroke="#fff" stroke-width=".427" d="M11.05 37c-2.64-.58-4.12-2.7-3.9-5.57.27-3.63 3.02-5.64 6.26-4.61l.67.21.35-.22c.65-.4.68-.32.65 1.73-.03 1.75-.04 1.81-.24 1.84-.17.02-.25-.09-.48-.66-1.57-4.01-5.4-.82-4.23 3.53.74 2.73 3.14 3.33 4.44 1.1.34-.57.85-.73.91-.28.06.41-.39 1.84-.69 2.18-.57.64-2.49 1.03-3.74.75Zm28-.07c-.16-.02-.6-.11-.97-.2-.63-.16-.69-.16-1.07.01-.51.24-.59.17-.67-.54l-.07-.59-.41.34c-1 .82-2.66 1.18-3.93.85-.34-.08-1.57-.11-4.18-.1-2.04 0-3.79-.02-3.88-.06-.28-.1-.22-.59.11-.82l.27-.2v-8l-.28-.22c-.18-.15-.27-.3-.25-.44.03-.21.05-.21 3.16-.24L30 26.7v1.75l.3-.51c.75-1.32 2.22-1.76 4.17-1.25.71.19.73.19 1.09-.01.61-.32.64-.26.64 1.31 0 .77-.03 1.46-.06 1.55-.1.27-.39.18-.56-.17-.71-1.49-2.88-1.94-2.88-.59 0 .43.23.63 1.16 1.01 2.71 1.1 3.29 1.74 3.27 3.55-.02.77.01.96.19 1.22.93 1.37 3.28 1.14 3.28-.33 0-.6-.29-.86-1.51-1.37-2.13-.89-2.79-1.63-2.81-3.14-.02-2.5 1.8-3.71 4.59-3.05.69.16.74.16 1.13-.02.54-.24.56-.21.62 1.23.07 1.51.03 1.82-.26 1.82-.16 0-.25-.09-.34-.32-.53-1.48-2.92-2-2.92-.65 0 .47.31.72 1.4 1.13 2.41.91 3.23 1.87 3.07 3.62-.18 1.93-2.22 3.68-4.07 3.5-.08 0-.28-.03-.45-.05Zm-25.18-.42c.71-.32.89-.54 1.14-1.49.21-.79.19-1.18-.05-.78-.82 1.38-1.27 1.71-2.3 1.71-1.92 0-3.34-2.48-2.96-5.15.48-3.42 3.65-4.33 4.82-1.39l.25.62.05-1.49c.06-1.72.07-1.71-.34-1.42-.28.19-.35.2-.72.09-.23-.06-.64-.18-.91-.26-2.34-.68-4.75.93-5.31 3.54-.63 2.99.65 5.43 3.23 6.17.76.21 2.45.13 3.1-.15Zm1.55.07c-.2-.2-.14-.45.16-.68l.27-.22V27.6l-.29-.23c-.22-.18-.27-.28-.22-.45.11-.35 3.79-.3 3.84.05.02.15-.07.29-.27.44l-.31.23v2.86h1.6v-1.47c0-1.47 0-1.47-.26-1.68-.2-.16-.25-.26-.2-.43.07-.22.11-.22 1.92-.22 2.13 0 2.26.05 1.61.67l-.37.34v3.94c0 3.93 0 3.94.22 4.15.12.11.25.2.29.2.14 0 .16.41.02.55-.15.16-2.55.22-3.35.09-.47-.08-.52-.42-.13-.76l.25-.22V31.9h-1.6v3.79l.3.21c.31.22.38.48.18.68-.17.17-3.49.17-3.66 0Zm19.11-.18c1.86-.71 2.8-2.54 2.16-4.24-.3-.82-.83-1.23-2.43-1.91-1.56-.66-1.79-.85-1.79-1.51 0-1.4 2.06-1.38 3.04.03l.36.52.06-1.22c.06-1.39.07-1.34-.27-1.12-.29.19-.57.18-1.76-.09-2.21-.51-3.99.93-3.75 3.03.14 1.24.79 1.92 2.56 2.71 1.67.75 2.15 1.43 1.64 2.36-.78 1.45-3.58.7-3.75-1l-.05-.51-.31.55c-.85 1.5-2.55 2.16-3.28 1.29-.26-.3-.26-.33-.26-1.95 0-1.24.03-1.64.13-1.65.66-.06 1.2.18 1.49.67.11.19.21.34.23.34.01 0 .03-.64.03-1.42.02-1.38.01-1.42-.16-1.18-.42.61-1.23.99-1.61.75-.22-.13-.14-2.72.09-2.95.63-.63 2.34.07 2.65 1.1.13.43.24-.03.24-1.07l.01-.93h-2.92l-2.93.01.28.2.27.21v8.3l-.3.28c-.16.15-.26.3-.23.34.03.03 1.73.06 3.77.07 2.82 0 3.85.04 4.31.14.73.18 1.79.11 2.48-.15Zm5.89.19c1.69-.36 2.76-1.6 2.86-3.31.09-1.62-.54-2.3-3.07-3.23-1.03-.39-1.36-.7-1.36-1.3 0-1.52 2.29-1.41 3.23.15l.32.54v-.49c0-1.48-.12-2.15-.34-2-.26.19-.5.19-1.28-.01-.95-.25-2.01-.22-2.66.06-2.14.93-2.1 4.28.07 5.17 1.49.61 2.39 1.13 2.55 1.46.87 1.84-1.99 2.92-3.45 1.3l-.36-.39-.16.29c-.25.43-.24 1.82 0 1.72.63-.26.69-.26 1.48-.07.93.24 1.44.26 2.17.11Zm-21.52-.27c0-.05-.14-.18-.3-.31l-.3-.22.02-2.07.03-2.07 1.08-.03 1.07-.03v4.2l-.25.19c-.48.38-.34.42 1.4.42 1.71 0 1.85-.04 1.35-.33l-.3-.18v-8.47l.33-.21.32-.21-1.7.01h-1.7l.28.22.28.23-.03 1.65-.03 1.64-1.07.03-1.08.03v-3.26l.32-.27.33-.27-1.69-.01h-1.69l.25.23c.53.49.53 8.45 0 8.83-.42.29-.23.34 1.43.34.91 0 1.65-.04 1.65-.08Zm9.52-1.04c.53-.16 1.21-.78 1.61-1.46.49-.83.8-.82.87.03.09 1.06.69 1.55 1.89 1.55.76 0 1.18-.2 1.37-.65.32-.77-.07-1.25-1.53-1.88-1.87-.82-2.71-1.74-2.73-2.98 0-.28-.05-.38-.19-.42-.11-.02-.28-.22-.39-.43-.38-.74-.88-1.04-1.73-1.04-.59 0-.56-.07-.62 1.43-.04 1.17-.04 1.17.19 1.17.42 0 .72-.18.95-.59.16-.3.29-.41.46-.41h.23v1.8c0 1.67-.01 1.8-.18 1.8-.11 0-.26-.16-.4-.45-.31-.64-1.29-1.13-1.26-.63 0 .1.01.79.02 1.53.03 1.75.24 1.99 1.44 1.63Zm4.25-10.95c-.15-.14-.05-.91.19-1.48.28-.67 1.05-2.85 1.06-3 .05-.61-.04-1.03-.22-1.08-.38-.1-.56-1.1-.22-1.21.16-.06.16-.16-.14-1.63-.38-1.91-.37-1.92.49-1.93.36 0 .42-.91.07-1.1-.29-.15-.29-1.06-.01-1.15.14-.04.21-.19.26-.54.06-.47.08-.49.43-.55 1.05-.17 1.32-.07 1.32.5 0 .38.04.46.25.54.32.12.37.9.07 1.12-.33.23-.39 1.18-.09 1.18 1.01 0 1.03.06.66 1.91l-.31 1.51.21.14c.35.25.13 1.24-.28 1.24-.19 0-.36 1-.2 1.18.13.13 1.19 3.11 1.3 3.63.17.79.18.79-2.51.79-1.25 0-2.3-.03-2.33-.07Zm-28.11-.19c-.1-.26-.07-.33.24-.66l.3-.31v-7.88l-.23-.22c-.8-.75-.5-.88 2.03-.85l2.15.03.03.23c.02.14-.05.33-.16.45l-.2.22.74 1.2.84 1.35c.06.1.1-.29.1-1.07v-1.22l-.31-.35c-.57-.66-.43-.81.85-.84 1.42-.04 1.64.13 1.09.79l-.28.33-.02 3.95-.03 3.95.31.32c.59.61.4.74-1.07.74H9.7V24c0-.24.07-.35.3-.48.54-.31.55-.27-1.14-2.92-1.98-3.09-2.31-3.59-2.36-3.59-.03-.01-.05 1.39-.05 3.1v3.1l.33.28c.25.2.33.33.3.52-.04.31-2.4.44-2.52.13Zm7.91.09c-.16-.15-.06-.61.15-.75l.23-.15.03-4.06.03-4.06-.26-.17c-.29-.19-.35-.68-.09-.78.41-.16 6.23-.06 6.32.1.08.15.1.15.15 0 .07-.16 3.31-.25 3.71-.1.25.09.19.51-.11.78l-.27.25.13.78c.07.43.23 1.49.35 2.36.26 1.72.3 1.87.4 1.3.76-4.65.74-4.42.41-4.73-.17-.16-.25-.33-.23-.5l.03-.25 1.69-.03c2.07-.03 2.25.04 1.66.71-.16.19-.3.43-.3.53 0 .29.83 4.58.9 4.67.06.07.8-4.24.8-4.64 0-.08-.14-.28-.3-.44-.62-.6-.43-.8.8-.83 1.6-.04 1.84.12 1.22.83-.34.38-.49 1.03-1.16 5.05-.53 3.18-.54 3.23-.38 3.43.08.09.12.28.1.44l-.03.28H26.6c-2.07 0-2.17-.04-1.7-.68l.23-.3-.28-1.64c-.16-.9-.3-1.61-.33-1.58s-.18.8-.33 1.72c-.28 1.66-.28 1.67-.09 1.85.11.11.2.24.2.31-.01.35-.14.38-1.96.35-1.99-.03-2.05-.06-1.7-.73.15-.28.13-.51-.42-4.28l-.58-3.98-.3-.24-.29-.23-.02.46c-.08 1.46-.13 1.72-.38 1.72-.15 0-.26-.09-.35-.29-.27-.66-1.07-1.12-1.97-1.13-.67-.01-.6-.15-.65 1.35l-.04 1.27h.29c.29 0 .75-.38 1.08-.89.1-.17.21-.22.32-.18.19.07.26 3.5.08 3.61-.17.11-.37-.05-.5-.4-.14-.38-.61-.74-.98-.74-.23 0-.23.01-.23 1.49v1.5l.26.2c.73.57 1.97-.05 2.81-1.4.36-.59.67-.76.79-.45.06.16-.23 3.13-.32 3.27-.06.1-6.67.12-6.77.02Zm25.23-.28c0-.28.05-.38.25-.47l.25-.11v-8.25l-.26-.16c-.18-.13-.24-.24-.22-.44l.03-.27 2.16-.03c2.46-.03 2.62.02 2.21.58-.12.16-.22.33-.22.37 0 .08 1.42 2.39 1.55 2.51.03.03.05-.49.05-1.16 0-1.14-.01-1.22-.25-1.5-.57-.67-.32-.84 1.15-.8 1.09.03 1.31.26.75.78l-.25.23v8.09l.26.2c.18.14.24.28.22.47l-.03.26-1.23.03-1.22.03v-.36c0-.19.04-.35.08-.35.16 0 .52-.41.52-.6 0-.1-.88-1.5-1.95-3.12l-1.96-2.93.03 3.13.03 3.14.28.22c.19.16.27.31.27.54v.32h-2.5zm-25.73.02c.04-.05-.04-.18-.2-.29l-.27-.2v-8.35l.25-.23c.39-.36.32-.4-.7-.4-1.03 0-1.12.06-.68.44l.28.24v1.53c0 1.74-.09 1.94-.56 1.17-.14-.24-.59-.96-.98-1.62l-.73-1.18.21-.22c.33-.35.31-.36-1.79-.36s-2.16.01-1.72.36l.27.22v8.34l-.27.22c-.42.33-.36.36.72.36s1.14-.03.73-.36l-.28-.22-.03-3.57c-.02-2.7 0-3.56.09-3.53.29.1 4.29 6.47 4.29 6.83 0 .23-.34.65-.52.65-.04 0-.08.07-.08.16 0 .17 1.79.18 1.97.01Zm7.2-1.17c.17-1.89.18-1.84-.25-1.15-.84 1.32-2.06 1.94-2.92 1.5-.52-.27-.6-.57-.6-2.3V19.3h.36c.48 0 .95.23 1.19.6l.2.3.06-.27c.09-.4.1-2.43.02-2.43-.05.01-.2.19-.36.41-.3.43-.6.59-1.13.59h-.34V17c0-1.73-.02-1.7.97-1.7.74 0 1.52.36 1.9.89.15.2.31.4.35.46.04.05.08-.41.08-1.03V14.5h-3c-1.65 0-3 .03-3 .07s.1.17.23.31l.22.24v8.3l-.27.22c-.55.43-.52.44 3.17.42l3-.01zM23.9 24c.13-.09.13-.12-.02-.21-.27-.15-.16-1.35.37-4.01.27-1.33.36-1.16.78 1.3.43 2.52.43 2.48.17 2.62-.11.06-.2.17-.2.25 0 .16 2.67.23 3.04.09.18-.07.22-.34.05-.34-.16 0-.07-.88.3-3.1.77-4.57.91-5.2 1.27-5.67.33-.44.35-.43-.76-.43-.79 0-1 .03-1 .14 0 .08.06.16.14.19.54.21.51.87-.3 5.32-.21 1.15-.44 1.94-.44 1.5 0-.23-.43-2.74-.75-4.37-.42-2.15-.42-2.05-.03-2.45l.32-.33h-1.62c-.89 0-1.62.02-1.62.04 0 .03.14.18.32.34l.31.3-.37 2.38c-.46 2.98-.67 4.14-.75 4.14-.04 0-.15-.57-.25-1.27-.1-.71-.31-2.15-.48-3.21-.31-1.98-.29-2.42.12-2.42.06 0 .1-.07.1-.15 0-.13-.25-.15-1.65-.15-1.64 0-1.95.07-1.4.32.32.15.26-.14.94 4.51.57 3.88.61 4.37.4 4.37-.19 0-.08.29.14.33.46.09 2.73.06 2.87-.03Zm13.38-.17-.03-.28h-4.4l-.03.28-.03.27h4.52zm2.72.1c.02-.02-.08-.14-.24-.26-.38-.31-.45-.98-.46-4.49 0-2.4.02-2.88.14-2.88.08 0 .16.07.2.15.03.08.94 1.49 2.02 3.12 2.33 3.53 2.42 3.74 1.68 4.14-.31.16-.26.34.09.33.15 0 .62-.01 1.04-.02l.77-.02-.32-.29-.32-.3v-8.25l.32-.33.32-.33h-1.02c-1 0-1.23.08-.82.3.3.16.41.78.38 2.17-.04 1.58-.14 1.66-.76.6-.23-.39-.67-1.12-.97-1.61l-.55-.9.27-.28.27-.28h-2.02c-2.03 0-2.23.04-1.77.34l.25.16v8.29l-.3.34c-.16.19-.26.37-.23.41.07.07 1.94-.03 2.03-.11Zm-2.96-.82c.03-.05.01-.23-.05-.4l-.11-.31H33.3l-.15.36c-.08.2-.15.38-.15.4 0 .08 3.99.03 4.04-.05Zm-.34-1.15c0-.01-.05-.17-.11-.35l-.11-.31h-2.76l-.11.31c-.06.18-.11.34-.11.35 0 .02.72.04 1.6.04s1.6-.02 1.6-.04Zm-.4-1.1c0-.02-.07-.2-.15-.4L36 20.1h-1.88l-.11.31c-.06.18-.11.36-.11.4 0 .05.54.09 1.2.09s1.2-.02 1.2-.04Zm-.4-1.56v-.4h-1.7v.8h1.7zm.64-1.02c.15-.58.16-.58-1.13-.58-1.59 0-1.81.05-1.81.4 0 .4.02.4 1.51.4 1.33 0 1.37-.01 1.43-.22Zm-.3-1c.03-.07.07-.25.1-.4l.06-.28h-2.67l.1.4.11.4h1.13c.82 0 1.15-.03 1.17-.12Zm.26-1.17c0-.05.03-.23.06-.4l.06-.31H33.5l.06.28c.03.15.07.33.1.39.04.15 2.84.19 2.84.04Zm.24-1.38c.1-.39-.03-.43-1.76-.43-1.67 0-1.69 0-1.61.43l.05.27h3.26zM35.7 13.5v-.4h-1.3v.8h1.3zm.41-1.07c.18-.48.08-.53-.99-.53-1.03 0-1.22.07-1.22.45 0 .33.06.35 1.12.35.98 0 .99 0 1.09-.27Zm-.46-.94c.22-.35-.05-.6-.63-.57-.56.03-.57.03-.6.36l-.03.32h.6c.33 0 .63-.05.66-.11Z"/></svg>