<svg xmlns="http://www.w3.org/2000/svg" width="51" height="51" viewBox="0 0 51 51"><path fill="#fff" fill-rule="evenodd" stroke="#fff" stroke-width=".592" d="M11.37 50.73.3 50.7l.02-25.13L.35.45 11.73.42C19.29.41 23.1.43 23.1.5s-3.78.1-11.24.1H.63l-.06.53C.53 1.42.5 12.65.5 26.08V50.5l5.83.01c13.19.03 14.39.02 14.47-.12.07-.1.12-.1.23-.01.08.07.66.15 1.41.19.69.03 1.26.1 1.26.15 0 .04-.28.07-.62.06-.35-.02-5.61-.04-11.71-.05Zm17.27-.04c-.06-.11.97-.22 1.86-.19 1.69.04 6.38.05 13.08.03l6.82-.03-.01-9.88c-.01-5.43-.04-9.76-.06-9.62-.07.38-.23.49-.23.14 0-.43.11-.74.25-.74.09 0 .12-.11.09-.37-.07-.57.09-2.34.21-2.31.06.02.08.08.06.13-.01.06-.05 5.21-.08 11.45s-.06 11.36-.07 11.37c-.05.06-21.88.07-21.92.02ZM.05 25.55c0-13.86.01-19.52.02-12.57a5292 5292 0 0 1 0 25.2C.06 45.09.05 39.41.05 25.55Zm23.71 24.74C5.03 48.85-5.4 27.76 4.9 12.16 15.42-3.79 39.16-2.32 47.69 14.8c4.78 9.6 2.48 21.94-5.4 29-5.44 4.87-11.59 7.02-18.53 6.49Zm5.24-.45c13.24-1.66 22.94-14.98 20.61-28.29C46.34 2.97 24.32-5.12 9.9 6.98-2.7 17.55-1.55 36.83 12.23 46.02l1.32.87.06-11.47c.06-12.66.01-11.79.7-13.86 1.35-4.04 5.15-7.29 9.23-7.85 8.51-1.19 15.42 6.04 13.64 14.29-1.19 5.53-6.25 9.3-12.54 9.33-2.65.01-2.55.16-2.46-3.96.07-3.03-.17-2.77 2.45-2.77 2.81-.01 3.89-.42 4.98-1.89 2.27-3.09.82-7.29-2.86-8.27-2.8-.75-5.96 1.23-6.33 3.96-.08.56-.1 11-.04 21.81l.02 3.26.58.11c2.7.52 5.28.6 8.02.26Zm-8.94-3.56c-.04-1.72-.11-4.09-.16-5.27-.11-2.34-.35-12.77-.35-15.16v-1.5l.34-.63c.73-1.34 2.26-2.78 3.49-3.27 5.01-2.01 9.6 3.52 7.16 8.63-1.08 2.26-2.99 3.12-5.61 2.53-.51-.12-1.18-.21-1.48-.21h-.55l.02 2.53.03 2.52 2.25-.01c3.01-.01 4.06-.32 6.32-1.86 3.81-2.6 5.19-5.25 5.06-9.71-.22-7.19-7.28-12.09-14.67-10.17-2.81.72-7.34 5.84-7.88 8.9-.19 1.05-.33 22.42-.16 23.12.1.36.25.45 2.18 1.31 1.25.55 3.33 1.26 4.04 1.36.02.01.01-1.4-.03-3.11Zm3.99-1.04c-1.78-.35-1.65-.12-1.65-3 0-2.3 0-2.33.23-2.6l.24-.27 2.14-.01c5.92-.04 10.23-2.58 12.84-7.58 2.37-4.54 1.94-10.78-1.01-14.65-6.48-8.49-19.59-7.22-24.15 2.34-1.06 2.22-1.19 3.54-1.19 12.16 0 7.46.03 7.07-.5 7.07-.54 0-2.59-2.78-3.51-4.76-2.08-4.49-2.54-8.7-1.44-13.29C9.18 7.52 24.83 1.29 36.15 8.67c8.84 5.76 11.86 16.38 7.28 25.58-3.48 7.01-10.19 11.12-18.02 11.04-.64-.01-1.25-.03-1.36-.05Zm4.37-.39c7.28-.96 13.23-5.9 15.58-12.92.95-2.85 1.01-7.84.15-11.18-1.85-7.1-7.61-12.58-14.85-14.13-2.51-.53-6.66-.39-9.53.33-7.64 1.93-12.84 7.98-13.91 16.2-.64 4.86 1.11 10.77 4.28 14.47.59.68 1.02 1.01.7.54-.2-.32-.33-11.02-.14-12.74.49-4.56 1.98-7.54 5.46-10.92 2.53-2.45 5.06-3.56 8.58-3.76 5.57-.32 11.53 2.96 13.91 7.67.78 1.53 1.6 5.07 1.59 6.89 0 1.14-.58 3.36-1.08 4.15-.07.11-.19.38-.26.6-1.45 4.56-6.57 9.09-11.19 9.9-.96.17-4.37.21-4.61.05-.2-.13-.25-.12 2.05-.15 2.08-.02 2.62-.09 3.98-.52 1.06-.33.94-.36-.33-.07-1.57.35-2.86.47-4.4.39-1.86-.1-1.74-.26-1.78 2.54-.04 2.47-.04 2.45.74 2.66.69.19 3.64.19 5.06 0Zm-17.27-14c-.05-3.89-.03-5.65.05-6.28.07-.49.1-.9.07-.93-.32-.33-.61 13.38-.29 14.31.16.49.22-2.08.17-7.1Zm16.24 6c6.67-1.35 10.69-7.22 9.45-13.77-1.05-5.55-6.49-9.6-12.19-9.08-.75.07-.72.07.56.08 8.09.09 13.45 7.15 11.23 14.78-.96 3.32-4.69 6.72-8.4 7.66-1.07.27-5.01.35-5.26.1-.17-.17-.12-5.2.05-5.41.14-.17.91-.11 2.38.19 2.77.57 4.77-.73 5.5-3.57.26-1.03.24-1.33-.04-.53-.96 2.7-2.92 3.87-6.06 3.6-1.61-.14-1.98-.09-2.12.27-.17.45-.12 5.48.07 5.63.38.33 3.34.36 4.83.05Zm-7.35-6.47c-.05-2.38-.08-4.76-.07-5.28.01-.93-.08-1.04-.21-.23-.03.24-.02 1.34.03 2.45.06 1.12.13 3.23.17 4.7.04 1.48.09 2.68.12 2.68s.01-1.95-.04-4.32Zm3.75-1.97c-1.36-.09-1.39-.12-1.39-1.58 0-2.47.68-3.73 2.29-4.19 3.04-.89 4.97 2.68 2.71 5.03-.75.79-1.3.9-3.61.74ZM26.6 28c1.5-.77 1.89-3.6.64-4.59-.98-.77-2.87-.66-3.72.21-.61.64-.76 1.16-.8 2.85l-.04 1.52.23.05c1.03.23 3.21.21 3.69-.04Zm-2.15-.12c-.72-.05-1.36-.11-1.42-.13-.19-.06-.17-2.17.02-2.82.79-2.66 4.75-2.39 4.75.32 0 1.35-.95 2.79-1.8 2.73-.14-.01-.83-.05-1.55-.1Zm2.16-.4c1.72-1.6.92-4.35-1.21-4.15-1.55.14-2.19 1.02-2.23 3.04l-.02 1.18 1.1.06c2.18.1 2.1.11 2.36-.13Zm13.19-.69c.65-2.6-.64-7.67-2.54-10.05-4.16-5.2-11.2-7.15-17.03-4.72-1.02.42-.87.43.31.02 6.1-2.12 13.08.03 16.68 5.16 1.81 2.57 2.78 6.68 2.35 9.92-.1.83-.03.72.23-.33Zm5.39-1.48C45.29 14.05 34.69 4.58 23.55 6c-.36.04 0 .05.9.02 5.94-.19 10.82 1.74 14.98 5.94 3.65 3.67 5.4 7.94 5.55 13.54.07 2.37.19 2.26.21-.19Zm5.27-3.16c-.03-.09-.06-.5-.06-.91 0-.5-.04-.73-.11-.71-.14.02-.4-1.11-.27-1.19.09-.06.13.04.26.66.07.29.1-2.97.11-9.47L50.4.6H39.05C31.55.6 27.7.57 27.7.5S31.58.4 39.15.4H50.6v9.38c0 5.15.03 10 .07 10.78.06 1.35-.03 2.05-.21 1.59Zm-34.61-2.79c.76-1.01 2.24-2.51 3.38-3.4.99-.79 1.06-.88.39-.51-1.63.88-4.52 3.95-4.52 4.79 0 .12 0 .12.75-.88ZM12.78.03c7.05-.02 18.59-.02 25.65 0 7.05.01 1.28.02-12.83.02S5.72.04 12.78.03Z"/></svg>