<svg xmlns="http://www.w3.org/2000/svg" width="51" height="51" viewBox="0 0 51 51"><path fill="#fff" fill-rule="evenodd" stroke="#fff" stroke-width=".787" d="M21.1 30.41c0-5.07.03-7.42.11-7.46.08-.06 14.29 13.95 14.67 14.47.07.1.1.23.07.28-.04.07-2.64.1-7.46.1H21.1zm12 4.58c-1.46-1.44-4.71-4.67-7.22-7.18l-4.58-4.56.01 7.11c0 3.91.01 7.13.04 7.15.02.02 3.27.05 7.22.07l7.18.03zm-16.66-1.54c-1.81-1.85-3.3-3.44-3.32-3.54-.06-.37 6.67-7.16 6.89-6.94.18.18.06 13.77-.12 13.81-.09.02-1.42-1.26-3.45-3.33Zm3.34-6.83-.03-3.27-3.18 3.18c-1.74 1.75-3.17 3.26-3.17 3.35 0 .08 1.43 1.59 3.17 3.34l3.18 3.19.03-3.26c.01-1.79.01-4.72 0-6.53Zm7.5.87c-3.07-3.02-5.18-5.18-5.18-5.29 0-.26-.19-.25 10.91-.22 7.57.02 9.89.06 9.89.15 0 .11-10.29 10.47-10.4 10.47-.03 0-2.38-2.3-5.22-5.11Zm10.22-.24 5.05-5.05h-20.2l5.05 5.05 5.05 5.05zm-24.67 1.08c-.21-.08-.18-7.96.03-8.13.13-.12.42.15 2.12 1.9 1.08 1.11 1.99 2.07 2 2.11.04.09-3.68 3.97-3.92 4.1-.06.04-.17.04-.23.02Zm3.1-3.24.81-.77-1.01-1.08c-.56-.6-1.4-1.47-1.87-1.94l-.86-.85v7.63l1.06-1.11c.58-.62 1.42-1.46 1.87-1.88Zm-.57-3.99c-1.24-1.27-2.26-2.38-2.26-2.48 0-.2 4.45-4.82 4.64-4.82.18 0 4.76 4.66 4.76 4.83 0 .21-4.49 4.77-4.7 4.77-.1 0-1.17-1.02-2.44-2.3Zm6.82-2.41c.04-.09-2.15-2.44-3.57-3.84l-.81-.8-2.2 2.2c-1.41 1.4-2.2 2.26-2.18 2.37.02.09 1.01 1.16 2.21 2.38l2.18 2.2 2.17-2.21c1.19-1.22 2.18-2.25 2.2-2.3Zm-12.07-2.94c-1.69-1.71-2.01-2.08-1.91-2.2.24-.29 7.98-.16 8.08.13.05.15-3.85 4.12-4.04 4.12-.06 0-1.02-.92-2.13-2.05Zm5.5-1.96c-.14-.04-1.81-.07-3.7-.08l-3.45-.01 1.9 1.92 1.89 1.93 1.81-1.85c1.73-1.76 1.81-1.85 1.55-1.91Z"/></svg>