<svg xmlns="http://www.w3.org/2000/svg" width="51" height="51" viewBox="0 0 51 51"><path fill="#fff" fill-rule="evenodd" stroke="#fff" stroke-width=".781" d="M21.91 36.62c-.17-.06-.14-.28.34-2.97.4-2.23 1.34-7.5 2.86-16.14.28-1.57.53-2.89.55-2.93.03-.04.97-.08 2.1-.08h2.04v.25c0 .14-.32 2.06-.7 4.27-2.27 12.96-3.08 17.5-3.14 17.56-.05.04-3.92.08-4.05.04Zm-6.73-2.39c-1.55-1.3-3.55-2.98-4.43-3.73-.88-.74-1.93-1.62-2.32-1.95l-.73-.59V25.4c0-2.32.02-2.58.18-2.72.09-.09 1.41-.87 2.92-1.73 1.51-.87 4.08-2.36 5.7-3.3 5.4-3.15 5.6-3.25 5.6-2.82 0 .41-.78 4.79-.86 4.87-.05.05-2.25 1.33-4.89 2.85-2.64 1.53-4.86 2.83-4.93 2.9-.11.1.55.69 3.4 3.07 1.94 1.63 3.7 3.11 3.91 3.29l.38.34-.41 2.18c-.22 1.19-.4 2.19-.4 2.22 0 .22-.65-.26-3.12-2.32Zm14.32 2.19c0-.35.81-4.86.88-4.94.04-.03 1.17-.7 2.52-1.49 1.35-.78 3.57-2.07 4.94-2.87l2.49-1.46-.44-.37c-.24-.21-1.98-1.68-3.86-3.26s-3.44-2.93-3.46-2.98c-.03-.06.01-.42.08-.8.61-3.34.68-3.65.81-3.65.12 0 2.18 1.7 9.49 7.82l1 .83.03 2.57.02 2.57-1.67.99c-2.79 1.65-12.43 7.14-12.64 7.19-.14.04-.19 0-.19-.15Zm-3.7-.12c0-.05.18-1.08.4-2.27.4-2.23.71-3.96 2.1-11.93.44-2.5.9-5.16 1.04-5.9.13-.74.22-1.38.19-1.42-.05-.1-2.12-.1-3.04-.02l-.66.07-.12.66c-1.83 10.54-3.59 20.46-3.67 20.74-.05.16.08.17 1.85.17 1.18 0 1.91-.04 1.91-.1Zm-7.29-2.28.33-1.83-.32-.27c-.18-.15-1.94-1.62-3.92-3.27-2.15-1.8-3.59-3.06-3.57-3.15.02-.16.52-.46 6.22-3.74 1.98-1.14 3.66-2.13 3.72-2.2.14-.13.94-4.66.83-4.66-.07 0-1.76.97-9.22 5.29l-4.55 2.64-.08 2.46-.07 2.45.39.36c.41.37 2.96 2.52 7.22 6.08 2.37 1.98 2.56 2.12 2.63 1.9.03-.13.21-1.05.39-2.06Zm16.76-.86c3.01-1.72 6.13-3.52 6.93-3.98l1.45-.86.08-2.18c.1-2.94.21-2.61-1.36-3.91-.72-.61-3-2.5-5.06-4.22-2.05-1.72-3.75-3.1-3.77-3.08-.04.04-.74 3.81-.74 3.98 0 .04 1.36 1.22 3.03 2.62 3.67 3.09 4.77 4.05 4.77 4.17 0 .09-1.49.97-6.8 4.05-1.68.97-3.1 1.81-3.17 1.88-.09.1-.94 4.67-.87 4.67.02 0 2.49-1.41 5.51-3.14Z"/></svg>