<svg xmlns="http://www.w3.org/2000/svg" width="51" height="51" viewBox="0 0 51 51"><path fill="#fff" fill-rule="evenodd" stroke="#fff" stroke-width=".8" d="M15.55 39.45c-.03-.33-.05-5.19-.03-10.8.03-10.1.04-10.21.25-10.96.93-3.29 3.14-5.51 6.26-6.3 1.17-.3 4.79-.39 6.16-.15 3.4.59 6.08 3.06 6.92 6.36.27 1.06.4 6.77.19 8.08-.59 3.68-3.34 6.7-6.84 7.52-1.39.33-6.03.26-7.23-.11l-.82-.26-.03 3.53c-.02 1.94-.05 3.55-.08 3.58s-1.1.06-2.37.08l-2.32.03zm4.55-3.34v-3.63l.23.05c.12.02.63.17 1.12.33 1.26.39 5.75.43 7.1.06 3.05-.84 5.27-3.05 6.26-6.22.36-1.13.36-7.88.01-9.15-.82-2.92-2.81-4.91-5.92-5.9-.83-.27-5.16-.34-6.3-.11-3.5.71-5.99 3.22-6.66 6.73-.12.62-.14 2.52-.14 11.11v10.37h4.3zm3.35-7.3c-1.33-.11-2.46-.85-3.02-1.99l-.28-.57-.03-3.3c-.04-4.37.09-5.04 1.16-6.12.92-.91 1.97-1.23 4.06-1.23 3.33 0 4.88 1.02 5.41 3.55.21 1 .21 5.38 0 6.18-.34 1.31-1.34 2.56-2.47 3.11-.82.4-2.63.54-4.83.37Zm3.57-.3c1.33-.17 2.49-1.06 3.15-2.39l.38-.76.03-2.7c.04-3.64-.12-4.45-1.08-5.5-.93-1-1.97-1.29-4.49-1.24-2.04.04-2.67.23-3.55 1.11-1.01 1.02-1.08 1.42-1.04 5.82l.03 3.5.27.46c.49.83 1.42 1.51 2.31 1.69.57.11 3.16.11 3.99.01Z"/></svg>