<svg xmlns="http://www.w3.org/2000/svg" width="51" height="51" viewBox="0 0 51 51"><path fill="#fff" fill-rule="evenodd" stroke="#fff" stroke-width=".426" d="M6.73 50.86C3.12 49.55.17 46.03.04 42.9L0 42.05l.19.87c.93 4.23 3.91 7.19 8.21 8.12l.65.14h-.7c-.55.01-.89-.06-1.62-.32Zm36.32.14c4.02-.91 6.8-3.58 7.89-7.57l.25-.88v.5c.02 1.14-1.02 3.35-2.25 4.79-1.6 1.88-4.29 3.37-6.04 3.35l-.65-.01zM23.8 49.04c-3.16-.36-5.02-.83-7.5-1.89C2.13 41.09-2.38 22.89 7.28 10.8 16.49-.73 34.63-.81 43.89 10.63c10.77 13.3 4.17 33.41-12.39 37.73-2.1.55-5.91.89-7.7.68Zm5.11-.4c8.76-1.26 16.13-7.44 18.83-15.77C52.4 18.48 42.71 3.71 27.75 2.4 12.36 1.04.12 14.34 2.71 29.6c2.08 12.26 13.86 20.82 26.2 19.04Zm-15.88-8.32c-.42-.04-.42-.01.18-1.83 1.44-4.41 2.19-6.81 2.19-7.07 0-.57-.17-.62-2.24-.62-2.2 0-2.08.09-1.66-1.23l.3-.96.58-.05c2.2-.23 4.11-.69 6.2-1.52 1.11-.44 1.23-.46 2.43-.51 1.54-.07 2.78.03 2.86.23.05.15-.42 1.7-2.38 7.84-1.32 4.14-1.78 5.52-1.88 5.62-.06.06-5.99.16-6.58.1Zm15.5.01c-3.87-.02-7.03-.06-7.03-.1s.12-.55.26-1.14l.25-1.07 4.17-2.77c5.69-3.8 6.67-4.54 7.12-5.38.4-.76.15-1.11-.8-1.11-1.07 0-1.2.15-1.85 1.97l-.28.77H24.2v-.27c.01-1.5 1.61-3.39 3.55-4.2 2.22-.93 7.24-1.13 9.68-.38 2.95.9 3.48 3.2 1.25 5.37-.66.64-4.45 3.26-7.07 4.89l-1.04.64 3.09.05c1.7.03 3.1.07 3.11.08.2.17-.61 2.58-.89 2.66-.13.03-.25.05-.28.03-.03-.01-3.21-.03-7.07-.04Zm-8.96-.55c.06-.18.68-2.11 1.38-4.28 1.05-3.27 1.58-4.92 2.71-8.52.11-.36-3.64-.26-4.56.12-2.06.85-4.11 1.4-6.1 1.63l-1.04.12-.23.75c-.13.41-.23.78-.23.81 0 .04.81.08 1.81.11l1.81.03.3.34c.38.43.45.13-1.16 5.09l-1.33 4.12h6.54zM36.26 39l.32-1.05-3.35-.03c-2.38-.02-3.34-.05-3.31-.13.02-.06 1.09-.79 2.38-1.61 5.22-3.33 6.6-4.4 7.19-5.6 1.27-2.52-1.12-4.18-6.05-4.18-5.32 0-8.24 1.5-8.98 4.63l-.06.27 2.9-.02 2.91-.03.32-.85c.66-1.74.9-1.96 2.08-1.88 1.05.07 1.35.57.89 1.47-.43.86-1.31 1.52-7.55 5.69l-3.7 2.47-.22.8c-.12.44-.22.88-.22.98-.01.16.37.17 7.06.15l7.08-.03zM14.25 24.5c-.03-.05.58-2.08 1.36-4.5 1.22-3.8 1.4-4.44 1.31-4.65l-.12-.25h-1.84c-2.45 0-2.33.08-1.9-1.25.34-1.02.31-1 1.49-1.14 1.96-.23 3.87-.73 5.9-1.55l.89-.36h1.96c2.32 0 2.25-.03 1.99.9-.2.68-2.89 9.07-3.71 11.55l-.43 1.3-3.42.03c-2.14.01-3.44-.01-3.48-.08Zm12.45-.11c0-.11.15-.67.34-1.22 1.2-3.56 2.36-7.28 2.36-7.59 0-.52-.04-.53-2.17-.53-1.05 0-1.95-.04-1.99-.08-.13-.13.55-2.05.74-2.11.09-.02.48-.07.87-.11 1.6-.15 3.54-.66 5.93-1.56l1.02-.39h2c1.63 0 2.02.03 2.06.14.03.08-.35 1.44-.85 3.03-1.07 3.44-3.05 9.61-3.27 10.21l-.16.42h-3.44c-3.43 0-3.44 0-3.44-.21Zm-4.96-2.36c1.48-4.49 3.46-10.72 3.46-10.92 0-.08-.53-.11-1.83-.11h-1.83l-1.47.55c-2.18.82-3.18 1.07-6.23 1.51-.28.04-.32.1-.53.77-.13.39-.26.78-.28.85-.04.09.36.12 1.81.12h1.87l.26.26c.36.36.35.41-1.16 5.07-.72 2.24-1.31 4.09-1.31 4.12s1.46.05 3.24.05h3.24zm11.79 2.09c.02-.09.63-1.99 1.35-4.22 1.6-4.96 2.72-8.56 2.72-8.76 0-.29-3.45-.2-4.33.12-3.16 1.15-4.54 1.52-6.36 1.73-.94.1-.91.07-1.25 1.09l-.25.72h1.9c2.77 0 2.71-.11 1.73 2.98-.59 1.88-1.98 6.09-2.11 6.4-.04.09.65.12 3.25.12 3.05 0 3.3-.01 3.35-.18ZM.04 8C.2 4.48 4.92-.04 8.37.01l.78.01-.81.14C4.45.81 1.3 3.8.24 7.85l-.24.9zm51.05.5c-.03-.08-.16-.55-.28-1.05-.9-3.76-4.25-6.77-8.17-7.34l-.59-.09.83-.01c3.15-.04 7.02 3.3 8.08 6.98.21.73.32 2.03.13 1.51Z"/></svg>