<svg xmlns="http://www.w3.org/2000/svg" width="51" height="51" viewBox="0 0 51 51"><path fill="#fff" fill-rule="evenodd" stroke="#fff" stroke-width=".787" d="M19.95 41.34c-.45-.23-.62-.42-.82-.89-.17-.42-.18-.43-.85-.55-1.81-.32-3.3-1.59-3.87-3.28-.21-.62-.21-.73-.19-8.81l.03-8.18.42-.85c.93-1.86 2.55-2.77 4.95-2.78h.98v-2.98l-.34-.06c-1.45-.27-1.67-2.45-.32-3.07.7-.32 10.63-.29 11.26.03 1.34.68 1.07 2.75-.39 3.04l-.31.07V16h1c2.64 0 4.41 1.16 5.22 3.41l.23.64v15.8l-.23.68c-.62 1.78-2.1 3.06-3.91 3.37-.66.11-.66.11-.85.56-.6 1.45-2.93 1.33-3.23-.17l-.05-.29h-3.14c-2.94 0-3.14.01-3.14.18 0 .9-1.55 1.63-2.45 1.16Zm1.28-.18c.39-.16.84-.67.94-1.04.1-.42.09-.42 3.46-.42 2.94 0 3.18.01 3.23.18.49 1.7 2.43 1.89 2.97.29.1-.32.19-.43.38-.45 1.86-.19 3.3-1.18 4.07-2.79l.37-.78.03-7.75c.03-8.07.02-8.46-.39-9.4-.78-1.77-2.38-2.69-4.75-2.73l-1.21-.02-.07-.8c-.03-.44-.06-1.21-.06-1.71v-.91l.42-.07c1.31-.21 1.65-2.01.48-2.61-.44-.23-10.67-.22-11.11 0-1.14.59-.79 2.4.49 2.61l.42.07v1.06c0 .58-.03 1.35-.06 1.71l-.07.65-1.16.01c-2.7.01-4.52 1.3-5.06 3.55-.22.96-.22 15.42 0 16.38.42 1.77 1.93 3.13 3.83 3.46.74.13.92.24.92.57 0 .68 1.19 1.26 1.93.94Zm-2.83-4.47c-.14-.06-.36-.2-.48-.32-.54-.5-.52-.18-.52-8.37 0-8.54-.04-8.07.73-8.58l.41-.27 6.78-.03c7.05-.03 7.31-.01 7.83.4.67.52.65.24.65 8.43 0 8.32.03 7.91-.76 8.51l-.37.29-7.01.02c-4.52.01-7.1-.02-7.26-.08Zm14-.19c.2-.05.51-.26.7-.45l.35-.36.03-7.66c.02-7.54.02-7.66-.18-7.98-.42-.67-.13-.65-7.78-.65h-6.89l-.34.23c-.73.48-.69.04-.67 8.47.03 8.53-.03 7.86.83 8.3.39.19.57.2 7 .2 4.02 0 6.74-.04 6.95-.1Zm-10.7-1.41c-.35-.14-.69-.48-.91-.91-.31-.61-.29-11.8.02-12.45.58-1.21 2.3-1.29 2.97-.14l.27.46v11.93l-.3.43c-.5.7-1.32.97-2.05.68Zm6.32-.1c-.28-.14-.51-.36-.67-.64l-.25-.43.02-6.05c.03-5.94.03-6.06.24-6.33.77-1.03 2.11-1.03 2.88 0 .21.27.21.4.24 6.14.03 6.5.04 6.38-.41 6.89-.57.65-1.29.79-2.05.42Zm-4.75-.41c.55-.51.53-.31.53-6.6 0-5.35-.01-5.86-.18-6.17-.5-1-1.86-1.06-2.49-.12l-.23.34v5.96c0 5.63.01 5.98.19 6.24.5.76 1.56.93 2.18.35Zm6.31.12c.74-.45.73-.38.7-6.87-.03-5.57-.04-5.79-.23-6.12-.54-.92-1.95-.93-2.49-.01-.29.49-.32 12.1-.03 12.53.43.65 1.39.87 2.05.47Zm-5.75-18.55c-.02-.06-.02-.83-.01-1.7l.03-1.6 1.72-.03 1.72-.02.06.52c.03.29.05 1.07.03 1.73l-.03 1.2h-1.74c-1.11 0-1.75-.04-1.78-.1Zm3.27-1.6V13.1h-3V16h3z"/></svg>