<svg xmlns="http://www.w3.org/2000/svg" width="51" height="51" viewBox="0 0 51 51"><path fill="#fff" fill-rule="evenodd" stroke="#fff" stroke-width=".699" d="M8.07 46.9c-1.53-.26-2.97-1.51-3.58-3.1-.31-.83-.33-35.68-.01-36.48.55-1.4 1.54-2.38 2.92-2.87.79-.29 35.76-.24 36.48.04 1.38.55 2.35 1.53 2.85 2.91.3.82.27 35.53-.03 36.32-.63 1.66-2.11 2.92-3.75 3.18-.73.12-34.17.11-34.88 0Zm35.12-.31c1.12-.25 2.28-1.11 2.88-2.1.67-1.13.64.08.61-19.25l-.03-17.49-.32-.67C45.82 6 44.89 5.14 43.8 4.74c-.41-.14-2.15-.16-18.25-.17l-17.8-.01-.67.31c-1.16.54-2.09 1.59-2.42 2.72-.28.95-.24 35.13.04 36.04.43 1.4 1.74 2.63 3.16 2.96.56.13 34.76.13 35.33 0ZM8.15 43.88c-.11-.06-.31-.2-.43-.32-.55-.49-.52.62-.58-17.93L7.09 8.45l.23-.39c.29-.49.63-.75 1.14-.86.57-.14 33.79-.13 34.26 0 .45.13.93.51 1.16.94.23.42.27 33.93.04 34.59-.18.5-.59.97-.99 1.13-.43.18-34.45.2-34.78.02ZM43 43.55c.21-.12.44-.39.58-.65l.22-.44V25.8H7.4v8.43c0 9.55-.06 8.9.81 9.35l.44.22 17-.02c16.86-.03 17-.03 17.35-.23Zm-29.82-18.4c.49-7.5 6.86-12.83 14.15-11.86 5.77.77 10.02 5.41 10.63 11.64l.06.67h1.92c1.05 0 2.35-.03 2.89-.07l.97-.06v-8.46c0-9.53.05-8.92-.76-9.38l-.39-.23H25.6c-19.39 0-17.65-.08-18.1.84l-.22.47.07 8.44.08 8.45 2.86-.02 2.86-.03zm24.52-.09c0-3.38-2.29-7.52-5.29-9.55-3.5-2.38-8.45-2.7-12.24-.81-3.92 1.96-6.77 6.48-6.77 10.72 0 .17.58.18 12.15.18H37.7z"/></svg>