<svg xmlns="http://www.w3.org/2000/svg" width="51" height="51" viewBox="0 0 51 51"><path fill="#fff" fill-rule="evenodd" stroke="#fff" stroke-width=".724" d="M23.07 44.68c-5.81-.59-11.71-4.76-14.56-10.28C2.37 22.5 9.79 8.25 23.03 6.55c14.18-1.82 25.25 11.48 20.81 25-2.89 8.8-11.28 14.11-20.77 13.13Zm5.83-.37c10.71-1.9 17.66-12.51 15.18-23.16C42.42 14 36.74 8.5 29.4 6.92c-1.73-.37-5.37-.39-7.22-.04C9.52 9.27 2.85 22.76 8.66 34.2c3.79 7.45 12.04 11.57 20.24 10.11Zm-6.35-14.63c-.03-.07-.04-3.01-.03-6.53l.03-6.4h13v13l-6.48.03c-5.13.02-6.49 0-6.52-.1Zm1.7-.25c-.6-.32-1.04-.75-1.29-1.25l-.26-.52v1.94h.92c.91-.01.92-.01.63-.17Zm11.13-6.15-.03-6.33-6.32-.03-6.33-.02v9.14l.26-.52c1.08-2.17 4.52-1.79 5.2.56.37 1.26-.25 2.69-1.44 3.32l-.37.19 4.53.01h4.52zm-8.82 5.94c.89-.45 1.46-1.38 1.47-2.37.01-2.62-3.61-3.56-4.86-1.26-1.2 2.19 1.19 4.75 3.39 3.63Z"/></svg>