<svg xmlns="http://www.w3.org/2000/svg" width="51" height="51" viewBox="0 0 51 51"><path fill="#fff" fill-rule="evenodd" stroke="#fff" stroke-width=".313" d="M8.81 49.94c-3.7-.67-6.47-3.17-7.43-6.7l-.21-.79.02-16.6C1.2 15.61 1.25 9 1.31 8.6 1.75 5.67 3.95 3 6.85 1.85c1.75-.69.71-.66 19.07-.63l16.53.03.8.23c3.4.97 5.65 3.33 6.52 6.81.29 1.16.32 33.82.03 34.95-.87 3.42-3.71 6.02-7.3 6.7-1.15.22-32.49.22-33.69 0ZM25.5 37.9V25.8h-5.93c-3.27 0-8.71-.03-12.1-.07l-6.17-.06v8.34c0 9.12-.02 8.79.6 10.35 1.12 2.81 3.82 4.94 6.9 5.44.41.06.82.13.9.15.08.01 3.67.03 7.98.04l7.82.01zm17.53 11.82c3.03-.87 5.15-2.69 6.26-5.36.62-1.48.61-1.37.61-10.37V25.8H25.6v24.21l8.33-.03c8.28-.04 8.32-.04 9.1-.26Zm-31.56-.67c-9.4-1.66-12.71-13.33-5.58-19.69 6.26-5.59 16.35-2.47 18.48 5.72 2.03 7.84-4.93 15.38-12.9 13.97Zm24.38-.1c-5.58-1.04-9.31-5.53-9.29-11.2.02-6.49 4.83-11.22 11.39-11.19 4.57.01 8.25 2.35 10.2 6.47 3.86 8.16-3.4 17.56-12.3 15.92Zm-20.23-.21c8.48-1.76 11.74-12.2 5.78-18.48C14.52 23 2.3 27.9 2.3 37.92c0 6.92 6.54 12.23 13.32 10.82Zm23.45.05c9.21-1.02 13.16-12.36 6.57-18.85-6.22-6.13-16.89-2.93-18.69 5.61-1.54 7.29 4.67 14.07 12.12 13.24Zm-27.18-.88C1.9 46.07.08 32.88 9.24 28.65c8.57-3.96 17.42 5.31 13.15 13.77-1.93 3.83-6.51 6.22-10.5 5.49Zm23.9-.21c-7.63-1.6-10.73-11.02-5.49-16.63 4.89-5.23 13.15-4.25 16.5 1.96 4.03 7.46-2.7 16.43-11.01 14.67Zm-20.43-.19c7-1.45 10.2-9.84 5.91-15.53-5.68-7.54-17.68-3.56-17.69 5.87-.01 6.27 5.66 10.92 11.78 9.66Zm24.49-.07c6.12-1.16 9.62-8.21 6.91-13.89-2.81-5.86-10.46-7.44-15.38-3.17-7.63 6.63-1.51 18.95 8.47 17.06Zm-31.8-2.21c-.38-.09-.45-.32-.45-1.54v-1.16l-.42-.07c-.26-.04-.54-.18-.7-.33l-.28-.27v-2.67c0-3.12.01-3.16.93-3.26l.47-.06v-2.56c0-1.87.03-2.6.12-2.69s1.1-.12 3.92-.12h3.81l.8.72c.44.39 1.28 1.15 1.87 1.7l1.08 1v1.95l.47.06c.37.04.54.12.75.36l.28.31v5.12l-.34.34c-.28.28-.42.34-.75.34h-.41v1.19c0 1.02-.03 1.22-.19 1.42l-.19.24-5.29.01c-2.9.01-5.37 0-5.48-.03ZM32.2 45c-.18-.18-.2-.33-.2-1.4v-1.2h-.39c-.9 0-1.11-.51-1.1-2.65.02-3.51.15-3.95 1.11-3.95H32v-2.5c0-3.28-.54-2.9 4.13-2.9h3.74l1.79 1.67c2.14 1.99 1.94 1.7 1.94 2.74v.86l.41.07c.26.04.52.17.7.36l.29.28v5.44l-.29.29c-.23.23-.39.29-.7.29h-.41v1.23c0 1.07-.02 1.26-.18 1.4-.31.29-10.94.25-11.22-.03Zm-13.49-.1c.17-.1.19-.22.19-1.25V42.5h-11v1.19c0 .86.03 1.21.13 1.24.25.11 10.48.07 10.68-.03Zm24.57-1.28.03-1.23-4.83.05c-2.66.03-5.13.06-5.5.06h-.68v1.08c0 .71.04 1.12.12 1.2.09.09 1.39.12 5.48.1l5.35-.03zm-23.55-1.51c.66-.16.66-.17.67-2.98v-2.52l-.26-.2c-.38-.3-13.08-.33-13.42-.03-.19.16-.21.32-.28 2.69l-.07 2.52.31.31.3.3h6.19c3.4 0 6.35-.04 6.56-.09Zm24.76-.15c.33-.3.33-5.42 0-5.72-.23-.21-8.79-.34-11.87-.19-1.91.1-1.76-.14-1.8 2.92-.03 2.77.03 3.06.65 3.16 1.04.17 12.82.01 13.02-.17Zm-28.68-.67c-.46-.18-.51-.27-.37-.67.15-.4.18-.41.88-.21 1.16.32 1.33-.36.23-.91-1.33-.66-1.54-1.82-.44-2.42.44-.24 1.79-.22 2.04.03.24.24-.09.93-.4.84-1.28-.39-1.73.18-.55.71 1.39.62 1.62 1.84.48 2.54-.36.22-1.42.27-1.87.09Zm-7.71-.1c0-.06.25-.53.55-1.04.3-.52.55-.98.55-1.03 0-.1-.86-1.69-1.02-1.89-.17-.22.01-.32.55-.3l.52.02.3.57c.36.7.36.7.65.07.27-.57.43-.69.94-.69.6 0 .69.08.47.39-.31.44-1.01 1.72-1.01 1.85 0 .07.25.54.55 1.05.68 1.14.68 1.11-.03 1.11h-.58l-.33-.67-.33-.68-.34.68-.34.67h-.55c-.33 0-.55-.04-.55-.11Zm4.1-2.04V37h1.1v3.4h.85c.81 0 .85.01.91.24.15.59.11.61-1.44.64l-1.42.03zm20.6-.04v-2.2l.36-.07c.47-.09 1.67.03 2.07.2 1.38.58.89 2.38-.73 2.69l-.59.11-.03.71-.03.7-.52.03-.53.03zm3.72-.03.03-2.23 1.05.01c1.52.01 2.1.38 2.1 1.33 0 .91-.54 1.45-1.59 1.58l-.51.06v1.47h-1.1zm4.58 2.15c-.01-.05 0-.81 0-1.7l.01-1.62-.63-.03-.63-.03v-.9l1.36-.09c1.93-.12 2.11-.08 2.07.52l-.03.47-.52.03-.53.03v3.39h-.55c-.3 0-.55-.03-.55-.07Zm-23.88-.13c1.24-.35 1.2-1.56-.08-2.16-1.24-.59-1.08-1.71.21-1.36.34.09.42.09.53-.06.23-.3-.59-.49-1.33-.31-1.25.31-1.13 1.49.22 2.1 1.3.58.79 1.82-.56 1.35-.43-.14-.51-.12-.51.15 0 .3.88.46 1.52.29Zm-8.17-.22c.09-.13.3-.47.46-.76.37-.66.38-.66.85.21.33.61.44.73.68.75.15.02.27 0 .25-.05-.02-.04-.26-.48-.53-.98l-.5-.89.52-.98.52-.98h-.28c-.24 0-.33.09-.66.7-.2.39-.41.7-.45.7s-.24-.31-.45-.7c-.33-.62-.41-.7-.67-.7H8.5l.37.68c.2.37.42.77.49.89.2.33.18.4-.36 1.33-.28.47-.5.88-.5.92 0 .17.4.06.55-.14Zm5.75.02c0-.17-.08-.19-.87-.22l-.88-.03-.03-1.72L13 37.2h-.24c-.22 0-.23.04-.29 1.07-.09 1.37-.09 2.68 0 2.76.18.19 2.33.07 2.33-.13Zm18.82-.62c.03-.7.04-.73.28-.76.97-.1 1.11-.15 1.45-.46.31-.3.35-.39.35-.85 0-.84-.46-1.11-1.93-1.11H33V41h.59zm3.7 0 .03-.73.65-.06c1.04-.09 1.4-.43 1.4-1.32 0-.76-.54-1.07-1.87-1.07h-.73V41h.25c.23 0 .24-.03.27-.72Zm4.6-.95.03-1.68.58-.03c.53-.03.57-.05.57-.27v-.25h-3v.25c0 .24.03.25.6.25h.6V41h.6zm-8.32-1.02v-.81h.54c1.39 0 1.4 1.46.02 1.58l-.56.04zm3.7-.01v-.8h.45c.85 0 1.31.47 1.06 1.09-.15.35-.48.51-1.06.51h-.45zm.92.46c.63-.14.46-.89-.21-.94l-.41-.03v.56c0 .49.02.56.17.52.1-.03.3-.08.45-.11Zm-3.5-.13c.4-.36.16-.83-.44-.83h-.38v.5c0 .56.39.72.82.33ZM18.9 35.05v-.85h-1.84c-2.27 0-2.09.17-2-1.84l.07-1.56H7.9l-.02.98c-.01.53-.01 1.4-.01 1.92.01.52.02 1.23.02 1.57l.01.63h11zm19.26.65h5.14v-1.6h-1.89c-2.24 0-2.03.2-1.94-1.85l.06-1.55-3.59.02-3.59.03-.03 2.4c-.03 2.73-.03 2.7.39 2.61.18-.03 2.63-.06 5.45-.06Zm-19.82-2.23c-.27-.24-1.03-.92-1.69-1.5l-1.2-1.07-.05 1.38c-.03.75-.04 1.43-.02 1.49.03.1.47.13 1.74.13h1.7zm23.56-.78c-.63-.6-1.36-1.28-1.62-1.5l-.48-.41v1.14c0 .62-.03 1.3-.06 1.51l-.07.37h1.69l1.69-.01zM25.48 13.47l.02-12.18-8.32.03c-8.18.03-8.34.04-9.09.25-3.6 1.01-6.05 3.59-6.64 6.98-.13.74-.15 2.18-.15 8.96v8.09l11.13.02c6.11.02 11.55.03 12.07.03h.95zm21.2 12.13h3.23l-.03-8.28-.04-8.27-.26-.95c-.86-3.16-2.78-5.26-5.73-6.27-1.52-.52-1.77-.53-10.31-.53H25.6v24.3l2.13.03c1.16.02 5.18.02 8.92.01 3.74-.02 8.25-.04 10.03-.04ZM36.6 24.59c-6.93-.73-11.63-7.46-9.85-14.14C29.5.09 43.92-1.03 48.16 8.79c3.03 7-1.59 14.98-9.14 15.8-1.14.12-1.2.12-2.42 0Zm-24.75-.13C4.79 23.29.5 16.47 2.62 9.8 5.93-.59 20.7-.75 24.16 9.56c2.66 7.93-4.22 16.25-12.31 14.9Zm28.67-.4c8.27-2.13 11.13-12.59 5.07-18.59-6.31-6.25-17.08-2.94-18.74 5.77-1.15 6.02 2.9 11.91 8.9 12.95.33.06.71.13.85.15.7.13 2.98-.03 3.92-.28Zm-25.21.09c7.76-1.35 11.7-10.42 7.41-17C17.75-.45 5.98.92 3.01 9.44c-2.81 8.03 4 16.17 12.3 14.71Zm21.31-.75c-8.51-1.06-12.07-11.47-5.92-17.33 5.64-5.4 14.94-2.79 16.87 4.73 1.75 6.83-4.01 13.46-10.95 12.6Zm-24.56-.11c-8.3-1.21-11.69-11.5-5.7-17.3 6.31-6.11 16.82-1.95 17.11 6.77.22 6.4-5.24 11.43-11.41 10.53Zm28.09-.37c7.59-2.06 10.01-11.37 4.35-16.75-6.21-5.92-16.61-1.45-16.6 7.12.01 6.39 6.21 11.26 12.25 9.63Zm-24.45-.1C23.35 20.89 25.86 11.35 20.13 6 15.81 1.96 8.82 2.7 5.34 7.57c-1.91 2.66-2.27 6.49-.91 9.62 1.87 4.31 6.78 6.76 11.27 5.63ZM9 20.63c-1.39-.04-1.4-.05-1.4-1.59V17.9h-.31c-1.02 0-1.09-.21-1.09-3.33 0-3.18.01-3.22 1.05-3.36l.4-.06.05-2.57c.03-1.41.09-2.6.13-2.65.16-.15 7.24-.16 7.56 0 .15.07 1.07.82 2.04 1.66l1.76 1.53.03 1.02.03 1.01.3.03c1.11.11 1.15.24 1.15 3.41v2.61l-.27.3c-.2.22-.4.33-.69.37l-.41.05-.06 1.22c-.09 1.73.42 1.56-4.86 1.54-2.4-.01-4.83-.04-5.41-.05Zm23.1-.13c-.18-.18-.2-.33-.2-1.35V18h-.31c-1.09 0-1.22-.32-1.27-2.93-.06-3.06.1-3.67.96-3.67.65 0 .62.12.62-2.6 0-2.13.02-2.51.16-2.64.13-.14.63-.16 3.92-.16h3.77l1.76 1.54c2.17 1.9 2.09 1.78 2.09 2.87 0 .93.03.99.57.99.14 0 .37.13.54.29l.29.29v5.32l-.27.3c-.2.23-.4.33-.7.37l-.43.06v1.17c0 1.01-.03 1.19-.18 1.33-.31.29-11.04.25-11.32-.03Zm-13.2-.36c.06-.14.1-.7.1-1.25v-.99H7.9v1.15c0 .98.02 1.15.18 1.24.11.07 2.05.11 5.45.11h5.27zm24.38-.96.03-1.18H32.2v1.13c0 .63.03 1.17.07 1.2.03.04 2.52.06 5.52.05l5.46-.03zm1.16-1.69.26-.2v-2.63c0-2.55-.01-2.64-.21-2.82-.34-.3-13.28-.3-13.58.01-.24.24-.24.33-.22 3.17.01 2.2.02 2.28.23 2.48.35.32 13.11.32 13.52-.01Zm-24.3-.1.26-.2v-2.65c0-3.05.02-2.97-.92-3.09-1.32-.16-12.43-.01-12.71.18l-.27.17v2.7c0 2.57.01 2.71.2 2.9.32.32 13.03.31 13.44-.01Zm17.44-.51c-.82-.22-1.38-1.1-1.38-2.14.01-2.36 3.29-2.9 3.9-.64.48 1.77-.85 3.23-2.52 2.78Zm4.45.02c-2.04-.48-2.18-3.44-.18-4.1.44-.15 1.57-.09 1.78.08.24.21-.08.96-.37.87-1.06-.34-1.87.25-1.73 1.26.1.72.52 1.03 1.34.96.68-.05.83.06.83.63 0 .29-.97.47-1.67.3Zm-9.56-.07c-.04-.03-.07-.98-.07-2.1V12.7h.93c1.17 0 1.62.13 2.08.59 1.11 1.11.51 3.17-1.01 3.5-.56.12-1.83.15-1.93.04Zm-24.25-.11c-.09-.07-.12-.58-.1-2.23l.03-2.14.95-.03c1.61-.05 2.2.3 2.2 1.31 0 .92-.49 1.42-1.5 1.54l-.49.06-.03.76-.03.76-.45.03c-.25.01-.51-.02-.58-.06Zm3.66.02c-.05-.04-.08-1.06-.08-2.26V12.3h1.08c1.26 0 1.71.11 2.16.51 1.19 1.04.81 3.12-.69 3.75-.43.18-2.34.32-2.47.18Zm4.42-2.24v-2.2h2.81l-.03.48-.03.47-.83.03-.83.03.03.37.03.37.54-.03c.89-.06 1.03.01.99.51l-.03.42-.77.03-.78.03v1.69h-1.1zm22.64 2c.87-.44 1.22-1.67.76-2.67-.56-1.25-2.52-1.16-3.06.14-.69 1.63.82 3.29 2.3 2.53Zm4.24.14c.51-.14.25-.4-.35-.37-.9.06-1.49-.4-1.6-1.26-.14-1.03 1.05-2.05 1.88-1.61.22.12.4-.13.22-.31-.43-.43-1.98.07-2.38.75-.88 1.5.52 3.25 2.23 2.8Zm-8.73-.15c1.34-.38 1.68-2.36.54-3.21-.3-.23-1.19-.38-1.81-.31l-.48.06v3.57h.68c.37 0 .85-.05 1.07-.11ZM9 15.71v-.79l.65-.04c1.07-.07 1.62-.71 1.36-1.58-.17-.57-.48-.7-1.66-.7H8.4v3.9H9zm5.06.64c1.39-.41 1.88-2.11.93-3.2-.39-.44-.81-.57-1.93-.59l-.91-.01-.03 1.98-.02 1.97h.73c.4 0 .96-.07 1.23-.15Zm3.05-.77-.03-.88h.81c.74 0 .81-.02.81-.2s-.07-.2-.8-.2h-.8V13h.85c.78 0 .85-.02.85-.2 0-.19-.07-.2-1.1-.2h-1.1v3.91l.28-.03.27-.03zm20.58.57c-.83-.45-.78-2.32.07-2.73.82-.38 1.54.23 1.54 1.3 0 1.24-.74 1.9-1.61 1.43Zm-4.49-1.39V13.3h.32c2.01 0 2.28 2.74.29 2.88l-.61.04zm-20.5-.25V12.9h.3c2.36 0 2.65 3.01.3 3.18l-.6.04zm21.61 1.28c.94-.36.64-1.99-.38-2.15l-.43-.07V16l.27-.06c.16-.03.4-.1.54-.15Zm4.47-.04c.42-.53.36-1.67-.11-2-.75-.52-1.53.36-1.28 1.47.18.77.97 1.07 1.39.53Zm-24.81-.12c1.17-.55.67-2.43-.64-2.43H13v2.6h.31c.17 0 .47-.08.66-.17Zm-4.9-1.09c-.04-.04-.07-.43-.07-.87v-.8l.58.06c1.15.12 1.27 1.57.13 1.57-.16 0-.36.02-.43.05-.08.03-.17.02-.21-.01Zm1.01-.46c.37-.31.03-.88-.52-.88-.25 0-.26.03-.26.56v.56l.32-.07c.18-.04.39-.12.46-.17Zm33.2-3.6-.03-.83h-3.8l-.03-1.67-.02-1.68h-7.2v5h11.11zm-24.38-.24v-.86l-1.87.03-1.88.04-.03-1.61-.02-1.61-.77-.07c-.96-.08-5.96-.08-6.17 0-.14.05-.16.37-.16 2.5v2.44h10.9zm23.15-.93.99-.06-1.49-1.29c-.83-.71-1.58-1.36-1.67-1.44-.17-.14-.18-.07-.18 1.36V9.4l.68-.01c.37-.01 1.12-.04 1.67-.08Zm-23.47-.26c.02-.02-.13-.19-.35-.38-.78-.69-2.58-2.23-2.7-2.3-.1-.07-.13.24-.13 1.38v1.47l1.58-.07c.86-.04 1.59-.09 1.6-.1Z"/></svg>