<svg xmlns="http://www.w3.org/2000/svg" width="51" height="51" viewBox="0 0 51 51"><path fill="#fff" fill-rule="evenodd" stroke="#fff" stroke-width=".218" d="M2.13 50.99c.08-.31-.53-2-1.69-4.66-.34-.79.11-.25.51.6 1.11 2.39 1.66 4.27 1.23 4.27-.06 0-.08-.09-.05-.21Zm8.53.11c.17-.07 2.16-.41 4.37-.76.2-.03.37-.1.37-.14 0-.28-.52-3.06-.58-3.12-.07-.07-2.16.2-6.9.86-1.26.18-1.09-.01-1.46 1.58-.18.73-.36 1.31-.41 1.29-.06-.01-.1-.06-.09-.09.01-.04.14-.66.29-1.38l.28-1.31-1.32-2.42c-.73-1.34-1.3-2.48-1.28-2.54.07-.18 10.21-4.27 10.58-4.27.2 0 .23.34.39 5.09.07 1.89.16 3.27.25 3.65.11.48.45 2.51.45 2.7 0 .02.59.09 1.3.16 1.76.17 1.82.34.09.25-.84-.05-1.3-.04-1.24.02.06.05.23.19.39.31.45.34.05.26-.42-.08-.23-.16-.5-.3-.6-.3s-1 .14-2 .3c-1.79.29-2.92.39-2.46.2Zm38.49 0c-.33-.1-6.84-1.26-10.65-1.9-1.35-.23-2.46-.43-2.47-.44-.02-.01-.44-1.73-.94-3.82-.51-2.08-.96-3.83-1-3.88-.08-.09-2.48.4-2.62.53-.1.1.44 1.64 1.48 4.26 1.14 2.87 1.17 2.95 1.02 2.95-.11 0-1.99-4.6-2.58-6.33-.15-.45-.29-.73-.3-.62-.01.2-.12-.09-.23-.65-.04-.18-.23-.36-.7-.63-.79-.45-.78-.45-.95-.06-.08.18-.34.56-.58.86-.48.59-.49.58.41.67.33.04.61.08.63.09.06.07 1.23 5.37 1.23 5.61 0 .33.51.36-5.45-.34-2.79-.33-5.22-.6-5.39-.6-.43 0-1.61 2.43-1.5 3.1.04.25.03.4-.04.4-.06 0-.15-.33-.21-.72-.06-.4-.37-1.7-.68-2.88-.3-1.18-.75-2.91-1-3.85-.24-.94-.46-1.77-.49-1.87-.03-.11.13-.31.52-.62.6-.5.83-.57.91-.27.05.18.59.31 1.34.31h.25l-.25-.78c-.13-.42-.26-.79-.27-.81-.02-.02-.34.06-.73.18-1.15.35-1.16.12 0-.28l.74-.26.05-.79.05-.79-.86.93c-.48.51-.93.9-1 .88-.08-.03.28-.49.92-1.19.58-.63 1.22-1.44 1.42-1.8.84-1.53 2.79-3.02 4.21-3.24.33-.05.5-.16.91-.61l.5-.55 1.34.21c1.3.2 5.67.95 6.24 1.06.38.08.36.15-.54 1.75-1.98 3.49-2.05 3.68-1.57 4.35.42.59.24.79 2.28-2.48 1-1.61 2.06-3.22 2.35-3.58.88-1.08 1.82-2.05 1.91-1.97.11.1.08.13-1.09 1.43-.76.85-1.3 1.61-2.44 3.44-2.86 4.58-2.53 4.21-3.07 3.48l-.39-.51-.18.73c-.11.4-.18.74-.16.75.01.02.18.1.37.2.53.27 1.21.75 1.16.83-.25.45.16.38.56-.09.93-1.09 2.36-2.84 2.34-2.86-.01-.01-.35-.09-.75-.18-.9-.19-.94-.21-.8-.48.21-.39 1.38-1.86 2.65-3.33.68-.78 1.44-1.71 1.69-2.06.26-.35.48-.64.48-.65.01 0 .43.05.92.13 1.16.17 1.25.17 1.25-.01 0-.09-.08-.19-.17-.22-.1-.04-1.12-.48-2.26-.99l-2.08-.92-.23.36c-.12.21-.36.61-.52.89-.17.31-.36.53-.46.53-.15 0-6.82-.94-7.4-1.04-.24-.05-.32.02-.69.54-.41.58-.59.73-.59.48 0-.07.46-.73 1.01-1.47l1-1.34-.17-.26c-.1-.14-.35-.47-.56-.73l-.39-.47-1.11 1.27c-.61.7-1.38 1.55-1.71 1.9l-.6.63.48.49c.63.64.54.73-.14.15-.52-.45-.75-.48-.96-.15-.03.06-.81.67-1.73 1.37s-2.03 1.56-2.47 1.91l-.8.64-.06 1.79c-.03.98-.08 1.82-.12 1.85-.03.03-.63-.45-1.33-1.08l-1.27-1.14-2.31.86c-1.27.47-3.62 1.35-5.23 1.96l-2.92 1.09-.22.9c-.26 1.09-.79 2.78-.85 2.73-.02-.02.14-.74.37-1.59.61-2.36.62-1.94-.08-5.24-.43-2.04-.4-2.01-.87-1.25l-.38.61.07 1.32c.03.73.08 1.46.1 1.62.03.24.02.22-.09-.1-.07-.22-.16-.97-.2-1.67l-.07-1.27.48-.8.48-.81 1-.39c2.48-.98 6.94-2.61 7.13-2.61.25 0 .69.51 2.3 2.66.97 1.31 1.41 1.8 2.35 2.63.64.56 1.19 1.06 1.22 1.11.18.29.25-.16.25-1.56v-1.56l-1.82-1.89c-2.37-2.47-2.46-2.47-1.15-.07 2.42 4.43 2.6 4.8 1.92 3.84-.19-.26-.79-1.32-1.34-2.35-1.54-2.88-1.56-2.91-1.63-2.91-.04 0-.19.19-.33.42-.31.51-.24.17.1-.52.42-.82.63-.95 2.96-1.71 2.61-.86 2.44-.86 4.91-.03l2.01.68.55-.59c.3-.33 1.08-1.21 1.73-1.95l1.19-1.35-.78-.11c-.75-.1-.78-.09-1.12.17-1.21.91-2.68.91-3.72-.01-1.09-.95-1.06-2.8.05-3.75l.41-.35h-.42c-.25 0-.42-.05-.42-.11 0-.08.12-.1.35-.06.42.07.42.08.07-.53l-.28-.48-.29.46c-.37.61-.96 1.34-1.02 1.28-.03-.02.25-.48.61-1.01.52-.77.66-1.05.66-1.34 0-1.44.97-2.49 2.63-2.85.24-.06.27-.11.27-.48v-.41l.5.06.5.06v-.59c0-.77-.05-.76-1.13.05-.48.36-.89.65-.93.65-.15 0 .34-.45.98-.9.81-.57.79-.58-.87-.67-1.41-.07-2.53.09-2.79.4l-.18.22.33.02c.94.07 2.26.26 2.39.35.1.06-.02.07-.35.02-1.7-.22-2.49-.21-2.78.03-.23.19-.25.23-.1.23 1.27.01 2.93.29 2.93.5 0 .08-.06.08-.2 0-.36-.19-2.71-.34-3.45-.22-.78.13-.71.09-.79.47l-.07.3 1.91-.03c1.77-.03 2.14.02 1.8.23-.16.1-.92 1.24-1.31 1.99l-.36.68-.53-.66c-.61-.75-.56-.72-1.72-.81-1.46-.12-1.63.1-1.32 1.67l.06.28h2.69l-.42-.61c-.55-.81-.42-.87.16-.07.64.86.64.85.58 2.51-.07 1.87-.18 1.81-.18-.11v-1.47l-1.44-.03-1.43-.03.06.23c.03.13.06.29.06.36 0 .09.27.12 1 .12 1.22 0 1.2-.02 1.2 1.48v1.1l-.43.05c-.23.04-1.48.16-2.77.28-2.6.24-2.45.2-2.54.7-.06.34-.05.36.16.32.13-.02 1.49-.14 3.03-.28 3.05-.26 2.82-.2 3.31-.9.18-.25.28-.14.48.53.17.57.05.63-.14.07-.14-.41-.22-.43-.43-.11-.09.13-.22.29-.29.37-.08.08-.27.66-.44 1.29l-.29 1.14-2.3.64c-1.26.35-2.31.65-2.33.66-.02.02-.18.53-.37 1.12-.35 1.14-.37 1.15-.55.19-.06-.33-.25-1.17-.41-1.86l-.3-1.26.25-.57c.34-.77.55-1.78.38-1.84-.09-.03-.12-.4-.12-1.39v-1.35l-.33.43c-.36.48-.35.28-.12 2.54.09.96-.12.43-.25-.6-.06-.5-.13-1.04-.15-1.2-.04-.25.04-.43.4-.93l.45-.62h2.2V22c0-.62-1.78-.77-2.04-.17-.16.37-.21.12-.06-.28.1-.27.1-.27 1.03-.23.57.02.92-.01.92-.07-.02-1.13-.47-1.5-1.82-1.5H11l-.01.45c-.01 1.01-.17 1.3-.18.33l-.01-.92.58-.03.57-.03-1.2-.61c-1.45-.74-1.47-.79-.56-1.39.79-.51 1.02-1.08.49-1.18-.19-.04-.18-.05.07-.07l.3-.02-.3-.08c-.3-.08-.3-.08-.03-.09.36-.01.6-.6.25-.62-.2-.01-.19-.02.03-.08.14-.03.43-.25.65-.49.52-.58 1.6-1.06 2.32-1.03.16 0 .28-.09.38-.3l.16-.3-.78.08c-1.18.12-3.96.02-3.8-.13.03-.03.59 0 1.25.05 1.8.16 3.26 0 3.67-.4l.3-.29-.7-.02-.7-.02.9-.05.9-.06.03-.57.03-.57-.88.05c-.48.03-1.1.09-1.36.14-.31.05-.45.04-.39-.02.05-.05.53-.12 1.06-.15 1.16-.07 1.16-.09-.04-.7-1.25-.63-1.26-.71-.2-1.52l.82-.61-.74-.01c-1.58-.02-1.89-.16-.38-.17 2.67-.02 2.82-.04 3.31-.45l.44-.37-.9-.01c-.49-.01-1.53-.05-2.3-.09-.96-.05-.52-.06 1.4-.03 3.1.05 3.05.04 3.05.32 0 .12.08.21.23.24l.22.04-.22.02c-.27.01-.31.21-.05.21.13 0 .14.02.03.09s-.12.25-.05.87c.04.44.08.84.08.89.01.06.11.11.22.13.12.02.24.12.27.23.03.13.15.19.34.2.26.02.26.02.03.06-.13.03-.29.11-.35.19-.14.19-1.64.22-1.76.03-.18-.28-.1-.57.17-.63.54-.14.25-.41-.48-.44-.52-.02-.67 0-.63.1.03.07.07.28.09.47.02.18.09.37.16.41.1.06.1.08 0 .12-.09.03-.11.2-.05.65l.07.61.4.06c1.18.19 2.08 1.18 2.08 2.31v.55l1.73.02 1.72.02-1.75.07c-.96.03-1.76.07-1.76.08-.18.16-.08.52.13.46.98-.24 2.9-.24 4.06.01.24.05.27.03.27-.2 0-.14-.04-.26-.09-.26-.16 0-2.99-1.38-3.05-1.49-.1-.16.86-.78 2.56-1.66.86-.44 1.98-.5 1.98-.1 0 .08.1.16.23.18l.22.04-.23.02-.22.01.02 1.82.03 1.81H26c.47 0 .65.01.4.03s-.64.07-.88.1l-.43.05.03.57.03.57.44.03c.32.02.44.08.48.22.03.13.18.2.51.24 1.04.14 1.22.18 1.22.27 0 .05-.03.09-.07.09-.05 0-.39.27-.77.6s-.72.58-.74.55c-.08-.07.45-.6.91-.92l.4-.28-.44-.07c-.89-.13-.97-.11-1.01.25l-.03.32-.77-.01-.77-.01.24.31c.39.51.65 1.2.67 1.77.02.59.09.69.51.69.3 0 .43 1.19.15 1.36-.08.05-.09-.08-.05-.49.07-.59.07-.61-.35-.71-.23-.05-.28-.02-.38.29-.06.18-.22.49-.35.68l-.23.35.59.06c.52.06.61.11.89.46.18.22.36.38.41.34.18-.11.08.23-.33 1.09l-.42.88-.6-.07c-.34-.04-.63-.08-.65-.1-.04-.03-.41.72-.41.82 0 .02.19.04.42.04 1.06.01 1.83.53 2.28 1.53l.18.39.52-.76c.51-.75.53-.76.89-.71.2.03 1.69.21 3.31.41 1.79.21 2.97.39 3.01.46.06.09.64-.11 2.01-.65 1.06-.42 2.29-.9 2.73-1.06l.8-.28 1.2.16c1.4.19 1.32.09 1.12 1.46-.12.81-.12.91.02.97.22.1 3.98.6 4.17.56.26-.05-1.73-1.71-3.36-2.79-.14-.09-.22-.2-.19-.23.17-.17 2.26 1.39 3.61 2.7.93.9.98.97 1.1 1.54.09.47.15.57.25.48.16-.13.16-.12-.01.36-.15.44-.21.4-.31-.24-.1-.63-.27-1.2-.36-1.2-.04 0-.54.78-1.11 1.72-.56.95-1.03 1.75-1.05 1.77-.02.03-.78-.1-1.7-.27-1.92-.37-1.75-.41-1.89.53l-.1.74.4.06c1.1.18 3.02.57 3.09.64.06.07-.14 2.95-.28 3.96-.06.36-.01.31.47-.55.3-.52.71-1.18.91-1.46l.37-.51-.57-.89c-.31-.49-.66-1.06-.77-1.26l-.21-.37.55-.51c.9-.84 1.89-1.62 2.01-1.58.06.02-.36.42-.93.9-1.6 1.33-1.52 1.08-.72 2.35.37.59.69 1.1.7 1.12.02.01.54-.49 1.16-1.13l1.14-1.16 1.07.36c.59.2 1.07.4 1.07.45 0 .15-.2.11-1.15-.21l-.89-.31-.54.54-.54.55 1.56.52c.86.28 1.56.56 1.56.61 0 .15-.19.11-1.34-.27-1.25-.42-1.26-.41-1.26.47 0 1.36-.12 1.43-1.07.6l-.68-.58-.33.43c-.43.55-.47.48 1.32 2.17 1.56 1.48 1.54 1.47 3.1 1.82.18.04.25.1.19.16s-.45 0-1.07-.16c-1.15-.29-1.05-.32-1.63.59-1.5 2.31-1.65 2.59-1.41 2.54 2.55-.56 3.44-.69 3.8-.59.53.16.48.32-.07.24-.44-.06-2.21.22-2.39.38-.09.08.59 2.43 1.24 4.24.37 1.03.42 1.31.2 1.09-.13-.14-.75-1.89-1.3-3.69-.41-1.34-.52-1.6-.67-1.57-1.13.15-1.08.16-1.1-.09s.33-.86 1.37-2.44c.37-.55.69-1.05.73-1.11s-.58-.74-1.43-1.56c-.82-.8-1.47-1.41-1.44-1.36.08.12-1.19 2.38-1.34 2.38-.07 0-.84-.11-1.7-.25-6.23-1.01-8.58-1.36-8.69-1.28-.21.14-2.53 3.03-2.44 3.03.05 0 .58-.12 1.18-.26 1.37-.33 1.17-.34 7.41.65 2.77.45 5.06.81 5.08.81.22 0 4.34 8.22 4.34 8.66 0 .16-.2.17-.65.04Zm-44.69-.55c-.08-.19-.46-1.22-.85-2.28-.61-1.67-1.35-3.55-1.45-3.65-.02-.01-.45.18-.96.43-.52.25-1 .45-1.07.45-.25 0-.13-.19.2-.31l.34-.12.12-1.26c.07-.69.19-1.77.27-2.4.08-.62.13-1.16.1-1.18-.05-.05-.76.89-.99 1.32-.13.25-.16.26-.17.09 0-.11.13-.4.29-.65 1.09-1.64 1.2-1.48.86 1.39-.14 1.21-.25 2.27-.25 2.36 0 .12.1.1.55-.1.92-.42 1-.29 2.55 3.99.39 1.09.73 2.04.76 2.12.13.32-.17.13-.3-.2Zm45.04.27c0-.25-3.94-7.94-4.13-8.06-.13-.09-2.4-.49-5.37-.95-2.83-.45-5.25-.83-5.38-.85-.21-.03-.22-.01-.17.28.09.42 1.76 7.31 1.78 7.32.01.01.38.07.82.13 2.38.37 12.07 2.1 12.14 2.17.08.07.31.04.31-.04Zm-30.55-2.87c.29-.66.35-.88.26-.99-.13-.15-1.52-4.99-1.7-5.91-.2-.99-.16-.97-.81-.42l-.33.28 1.03 3.95c.58 2.17 1.07 3.94 1.11 3.94.03 0 .23-.38.44-.85Zm-9.35-.5c1.4-.19 3.12-.43 3.83-.52l1.27-.18v-.7c0-.99-.22-6.89-.26-6.94-.05-.06-1.43.47-5.64 2.17-2.12.85-4.02 1.62-4.22 1.7-.48.19-.52.05.47 1.84.47.84 1.02 1.86 1.23 2.25.27.54.42.73.57.73.11 0 1.35-.16 2.75-.35Zm20.54-2.2c-.71-3.15-.61-2.91-1.26-2.98-.84-.11-.91-.09-1.46.32-2.31 1.74-5.87 1.03-7.83-1.56-.26-.36-1.89-.64-1.89-.34 0 .28 1.55 5.98 1.66 6.1.02.03.1-.04.17-.13.15-.2.71-.15 8.42.78 1.49.18 2.71.32 2.72.31.02-.01-.22-1.13-.53-2.5Zm-4.83-2.15c3.07-.57 4.97-4.4 3.62-7.28-.31-.65-.34-.63-.21.1.33 1.9-.98 5.14-2.5 6.2-.6.42-.62.3-.02-.16.83-.64 1.48-1.75 1.95-3.36.06-.2-.03-.15-.51.31-2.26 2.13-7.63.81-7.64-1.88 0-.12-.05-.25-.12-.29-.19-.12-.03 1.9.21 2.66.25.78.21.88-.07.22-.51-1.17-.57-2.61-.17-3.68.3-.79.26-.92-.08-.32-2.1 3.63 1.33 8.27 5.54 7.48ZM7.26 38.72c1.86-.71 4.1-1.55 4.96-1.86 1.04-.39 1.55-.62 1.51-.7-.13-.21-2.62-3.51-2.91-3.85l-.29-.35-.94.36c-.52.2-2.29.86-3.94 1.48s-3.01 1.14-3.03 1.15c-.01.01.16.85.37 1.86.22 1.01.45 2.14.52 2.52.15.83-.25.9 3.75-.61Zm19.09.55c2.72-1.25 2.71-4.81-.01-6.09-4.33-2.03-8.46 3.49-4.4 5.87 1.08.63 3.26.74 4.41.22Zm18.25.06c0-.05.09-1 .2-2.13s.2-2.14.2-2.26c0-.21-2.9-.84-3.25-.7-.47.18-.14.42.71.54 1.06.14 1 .08.85.9-.2 1.07-.14 1-.74.91-.28-.05-1.66-.24-3.06-.44-2.99-.42-2.66-.26-2.5-1.22l.14-.78.93.04c.92.03.92.03.92-.21 0-.23-.04-.24-1.32-.42-.73-.1-1.4-.2-1.48-.22-.16-.04-2.01 2.05-3.09 3.47l-.49.66 1.16.22c1.96.36 10.15 1.68 10.55 1.7.15.01.27-.02.27-.06Zm-13.58-3.98c.39-.71.86-1.56 1.05-1.88.2-.32.33-.6.31-.63-.05-.05-3.68-.68-6.11-1.06l-1.37-.22-.29.35-.29.34.26.07c.15.03.54.11.87.17 1.99.36 3.79 2.12 4.26 4.16.19.83.19.83.41.4.11-.22.52-.99.9-1.7Zm17.38 1.13c0-.4.03-.83.06-.95.05-.17-.01-.25-.24-.37l-.31-.16-.49.5-.49.5.66.6c.83.74.81.75.81-.12ZM.91 36.03c-.01-.28.06-1.11.15-1.84.08-.74.13-1.63.09-1.99-.03-.44-.02-.59.04-.45.19.41.07 3.34-.19 4.45-.08.33-.08.33-.09-.17Zm42.08-.13c.17-.79.2-.76-.8-.9-.91-.12-.91-.12-.86-.39.17-.83 1.19-8.32 1.14-8.37s-2-.35-2.03-.31c-.01.01-.16 1.03-.34 2.27-.63 4.51-.71 5.06-.81 5.69l-.12.64-.88-.06c-.98-.06-.92-.1-1.04.69l-.06.41 2.78.4c1.53.22 2.81.41 2.85.41.03.01.11-.21.17-.48Zm-26.28-3.15c.13-1.25.33-1.92.24-.8-.2 2.49-.2 2.79.01 2.64.11-.08.78-.59 1.49-1.15.72-.55 1.81-1.39 2.43-1.86l1.12-.86-2.01-.66c-1.11-.36-2.08-.66-2.15-.66-.39 0-4.74 1.46-4.74 1.59 0 .04.78.91 1.73 1.92l1.72 1.84.02-.45c.02-.25.08-.94.14-1.55Zm-14.8.68c.17-.83.5-3.69.49-4.23-.01-.21-.05-.17-.26.23-.35.67-.43.51-.1-.17.3-.61.2-.56 2.29-1.16 2.71-.77 4.9-1.29 5.08-1.19.52.27 1.39 1.11 1.38 1.32-.01.16-.03.17-.06.05-.02-.09-.29-.35-.58-.57l-.54-.41-.03 1.56-.03 1.56-1.25.43c-.69.24-2.32.82-3.64 1.29-1.31.47-2.39.86-2.41.86-.01 0-.11.29-.21.65-.27.93-.34.8-.13-.22Zm48.49.23c-2.53-1.12-2.75-1.27-2.25-1.46.62-.23 2.95-.83 3.01-.77.12.12 0 .17-1.32.53-.71.19-1.35.37-1.43.4-.08.02.48.34 1.25.7.76.36 1.43.69 1.48.74.22.22-.04.17-.74-.14Zm-11.22-.93c.07-.42.1-.78.07-.81-.1-.1-1.89-.32-1.95-.25-.34.4-1.01 1.35-.98 1.39.04.03 2.15.38 2.64.43.06 0 .16-.33.22-.76ZM5.95 31.41c3.82-1.37 3.48-1.09 3.43-2.93-.04-1.56.07-1.47-1.45-1.08-1.4.35-5.15 1.39-5.19 1.43-.01.01-.1.72-.19 1.57-.08.85-.18 1.72-.22 1.94-.05.35-.04.38.14.32.11-.03 1.67-.59 3.48-1.25Zm40.34-.47c.56-.92.99-1.69.97-1.72-.08-.07-4.67-.74-4.72-.69-.08.07-.55 3.4-.49 3.45.06.06 2.7.6 3.01.61.17.01.41-.32 1.23-1.65Zm-46.23.31c.09-.43.09-.77 0-1-.08-.2-.07-.2.11 0 .15.18.24.2.61.12.51-.1.5-.02.07-1.31-.43-1.3-.43-1.22.05-2.41.22-.54.38-1 .36-1.02-.02-.03-.31-.13-.63-.23-.35-.11-.59-.24-.61-.34-.03-.14.01-.14.37-.01.51.18.51.15.01-.2-.23-.16-.4-.36-.4-.47 0-.22 1.48.97 1.49 1.2.01.07-.17.57-.39 1.11-.48 1.16-.47 1.08-.1 2.19.46 1.37.45 1.53-.11 1.69-.37.11-.49.2-.67.56-.19.36-.22.38-.16.12Zm12.24-1.94c0-.26-.48-2.29-.59-2.49-.07-.13-.51.74-.51 1.02-.01.06.14.8.32 1.64l.33 1.52.22-.72c.13-.4.23-.84.23-.97Zm27.36-.02c.12-.9.28-2.01.36-2.46.08-.46.12-.83.09-.83-.21 0-6.08 2.34-6.23 2.49-.08.07 5.31 2.51 5.47 2.47.05-.01.19-.76.31-1.67Zm-5.49.76c.53-.87.54-.79-.14-1.12-.75-.37-.75-.45-.03-.79.33-.15.6-.3.6-.34 0-.03-1.25-.21-2.77-.39-1.53-.18-2.97-.35-3.19-.38-.4-.05-.42-.04-.74.43-.18.27-.62.89-.98 1.37-.35.48-.62.9-.6.93.09.08 6.71 1.03 7.07 1.01.31-.02.39-.09.78-.72ZM14.4 28.84c.91-.25 1.85-.51 2.1-.58l.45-.13.26-1.04c.24-.93.25-1.04.1-1.07-.2-.03-5.3.43-5.35.49-.02.02.08.54.24 1.14l.34 1.38c.08.34-.1.35 1.86-.19Zm32.45-1.47c-1.04-.99-1.91-1.86-1.93-1.93-.06-.24 1.16-1.22 1.61-1.27 2.73-.37 3.84-.32 4.51.18.36.27.08.27-.35-.01l-.43-.27-1.5.12c-.83.06-1.68.14-1.88.17l-.37.06.73.61c.4.34 1.13.96 1.62 1.38l.89.76.67-.23c.37-.12.7-.19.73-.14.07.11.04.12-.69.36l-.59.19-.43.93c-.24.5-.49.92-.56.92-.07-.01-.98-.83-2.03-1.83ZM18.5 28.99c0-.27 1.14-1.7 1.29-1.63 1 .44 3.81.43 4.94-.01.09-.04.17-.03.17.03 0 .39-3.01.66-4.37.38-.44-.09-.82-.16-.85-.16s-.29.34-.59.75c-.56.79-.59.82-.59.64Zm31.08-1.63c-.04-.18-3.23-2.86-3.4-2.86-.05 0-.32.21-.59.48l-.49.47 1.88 1.77 1.87 1.76.38-.75c.21-.41.37-.8.35-.87Zm-47.11.07c-.02-.04-.14-.48-.26-.96l-.22-.89.36-.65c.35-.61.37-.7.38-1.61l.02-.96.88-.27c1.52-.47 1.44-.6-1.14-1.9C.28 19.08.32 19.12.95 18.68l.44-.31L1.1 18c-.35-.44-.5-.81-.5-1.2 0-.19-.06-.3-.17-.33-.15-.04-.15-.05-.02-.06.11-.01.18-.13.22-.35.07-.45.33-.83.79-1.17.31-.22.35-.28.21-.32-.1-.02-.02-.04.17-.05.19 0 .64-.01 1-.02 1.21-.04 2.3.74 2.3 1.65v.25h1.59c1.39 0 1.6.02 1.72.17.11.15.11.16-.01.05-.27-.24-3.2-.17-3.2.08 0 .11.06.2.14.2.09 0 .16.17.2.45l.07.45.92.01c.51 0 1.15.04 1.42.09.3.04-.07.05-.92.02l-1.42-.05.08.29c.06.24.13.29.42.31 1.24.09 1.62.15 1.47.24-.1.06-.27.05-.43-.01-.47-.18-1.35-.13-1.35.08 0 .37.13.41.75.21.32-.1.61-.16.63-.14s-.23.11-.55.21c-.72.22-.76.25-.67.58.05.2.11.25.23.21.99-.38 2.52-.65 2.83-.49.4.2.68.44.68.57 0 .06-.08.03-.18-.05-.57-.51-.74-.52-2.13-.18-1.18.3-1.29.34-1.29.55v.23l1.08-.29c.59-.16 1.15-.29 1.25-.29.22 0 1.37.8 1.37.94-.01.06-.07.56-.15 1.11-.1.79-.11 1.03-.01 1.13s.15-.16.25-1.25c.17-1.83.17-1.83.62-2.34.47-.54.51-.38.05.22-.33.44-.33.47-.45 1.99-.32 4.03-.27 3.87-1.26 4.13-.39.1-1.87.5-3.3.89-3.09.84-3.01.82-3.08.71Zm2.51-.82c1.19-.33 2.55-.69 3.02-.81 1.08-.27 1.04-.21.9-1.36-.18-1.57-.09-1.44-.87-1.29-.38.07-.85.16-1.06.19-.56.1-.4.3.29.36l.59.05.03.69.03.69-.53-.06c-.29-.03-1.11-.09-1.83-.13-1.34-.07-1.45-.11-1.45-.51 0-.26-.12-.28-.74-.12-.45.11-1.06.92-1.06 1.4 0 .35.32 1.49.42 1.49.05 0 1.07-.27 2.26-.59Zm17.57.38c.91-.24 1.65-1.14 1.65-1.98v-.36l-.19.4c-.1.22-.29.49-.42.6l-.23.2.22-.38c.28-.49.28-.52-.05-.29-.78.55-2.39.55-3.16 0-.31-.22-.3-.17.05.34.22.32.23.45.02.27-.16-.13-.74-1.08-.74-1.2 0-.19.33-.15.59.07.98.82 2.76.72 3.47-.21l.28-.37-.21-.37c-.96-1.68-3.92-1.13-4.18.79-.23 1.68 1.24 2.94 2.9 2.49Zm14.15-.25c0-.03.54-.63 1.21-1.32 1.36-1.43 1.36-1.33.07-1.45l-.56-.05-.71.64c-.77.69-1.17.88-.6.28.79-.84 1.29-1.15 1.73-1.1.23.03.69.08 1.04.11l.63.06-.2-.39-.2-.39-.77-.06c-1.44-.13-1.32-.18-1.92.78-.65 1.04-.57 1.04-1.16-.09l-.49-.94-.96-.07c-.53-.03-1.9-.15-3.05-.26-2.9-.26-2.59-.32-3.01.51-.19.39-.4.7-.45.7-.09 0 .42-1.23.61-1.46.06-.07.05-.41-.04-.94l-.13-.83-.41.5-.42.49.15 1.35c.13 1.3.19 3.78.09 3.67-.03-.03-.12-.99-.2-2.14s-.17-2.3-.21-2.56c-.07-.47-.06-.47.52-1.08l.59-.62.62.04c.34.01.65-.01.69-.05s.29-.04.56-.01c.44.06.48.05.48-.14 0-.21-1.62-.44-1.89-.27-.2.12-.11-.13.14-.44.28-.33 1.4-1.11 1.59-1.11.13.01-.07.17-.93.79-.79.57-.77.61.23.61.95 0 .96-.01.96-.92v-.46l-1.75-.88c-.96-.48-1.75-.9-1.75-.93s.48-.31 1.08-.61l1.07-.55-1.1-.06c-.6-.04-1.11-.07-1.12-.08-.02 0-.03-.19-.03-.41 0-.37-.02-.4-.27-.41-.16-.01 0-.06.35-.11l.62-.1v-.77l-.62-.04-.63-.03.63-.02c.69-.02.91-.27.3-.35l-.33-.04.33-.01c.54-.03.34-.2-.78-.67-1.23-.53-1.38-.64-1.13-.87 1.06-.94 3.53-1.77 3.53-1.19 0 .12.08.21.23.24l.22.04-.22.02c-.21.01-.23.06-.23.61v.6l.83-.04c.94-.06.85 0-.15.09-1.22.12-.9.34.55.38l1.22.03-1.22.02c-1.27.02-1.69.18-.65.25l.57.03-.57.02c-.32.01-.59.05-.59.1-.1.51-.05.81.15.85s.2.04-.01.06c-.46.02-.32.79.15.83.36.03.37.04.34.41-.04.45-.07.45.7.02l.63-.34h1.55c.85.01 1.89.05 2.3.09.64.07.59.08-.38.04-.62-.03-1.33-.02-1.57.02l-.45.06v1.28l.52.01c.29.01 1.21.05 2.03.09 1.43.07 1.4.08-.53.04-1.94-.03-2.02-.03-2.02.16 0 .25.18.27 2.55.35 1.05.04 2.08.09 2.29.13l.4.07-.73.63c-.4.35-.76.6-.8.57-.06-.07.56-.65 1.02-.94l.28-.18-.83-.06c-2.81-.21-4.18-.21-4.18.01 0 .18.07.21.52.25l.53.03-.53.02c-.5.02-.52.03-.52.31v.28l1.62.07c2.28.11 2.37.27.13.23-1.54-.02-1.8 0-1.8.13 0 .12.26.17 1.23.26 2.22.21 2.19.19 1.35 1.12l-.56.64-1.04-.07-1.03-.07v.24c0 .24.04.25.68.31 1.19.11 1.27.15 1.41.55.15.41 1.58 3.32 1.7 3.45.04.04.3-.29.57-.74l.49-.81 1.06.06 1.05.06v-.85l-.01-.84-.4-.06c-.22-.02-.84-.1-1.37-.16l-.98-.11-.56.43c-.87.68-.94.72-.94.61s.75-.76 1.23-1.07c.27-.17 1.61-.12 2.79.11.22.04.29 0 .42-.24l.16-.3-.38-.06c-.2-.03-.89-.1-1.52-.17-.63-.06-1.16-.12-1.18-.14-.18-.17 1.24-1.66 1.53-1.61.24.05.34.02.39-.09.04-.1.21-.15.58-.16.51-.02.5-.02-.21-.1-.98-.12-1.02-.19-.08-.19h.76l.06-.43c.14-.93.09-.96-.76-.39-1.23.83-3.13 2.84-3.78 4-.05.09-.12.14-.15.11-.42-.42 3.83-4.69 4.66-4.69.43 0 .05-.24-1.44-.93-1.71-.77-1.84-.88-1.35-1.14.64-.34 2.53-1.2 2.92-1.33.22-.07.44-.19.48-.26.15-.25 2.73-.19 2.8.06.03.11.01.23-.04.26-.22.13.07.24.69.25.37.01.78.04.92.08s-.18.06-.71.03l-.96-.05-.05.34c-.07.42-.15.39.67.23.39-.07.79-.13.9-.13.11.01-.19.09-.67.18-1.02.2-.94.15-1.03.68-.06.4-.05.42.22.46.28.04.28.04.02.06-.25.01-.38.31-.39.89 0 .17.85.16 1.13-.02.12-.08.42-.17.67-.21l.45-.05-.52.16c-.78.24-.75.53.05.56l.57.01-.65.06c-.63.06-.64.07-.71.39-.09.45-.03.43-1.23.31-1.23-.13-1.11-.17-1.19.43l-.07.48h.43c.24 0 .52.07.63.15.1.08.4.15.65.15 1.12 0 2.2.59 2.77 1.5l.37.59.63.01c.43 0 .62-.04.62-.12 0-.07.03-.23.06-.34.05-.2.01-.23-.46-.29l-.52-.07.06-.37.06-.37-.85-.28c-.46-.15-.87-.31-.89-.35-.08-.12 1.58-1.39 1.9-1.46.24-.06.21-.03-.12.15-.41.2-.96.71-.64.57.08-.03.57-.23 1.08-.44 1.07-.43 1.16-.31-.84-1.19-1.51-.67-1.59-.71-1.43-.9.06-.08.15-.14.19-.14s.45-.18.91-.41l.84-.4-.65.05c-.65.05-2.23.49-2.48.68-.09.08-.11.07-.07-.05.1-.23 1.68-.69 2.7-.77.75-.06 1.05-.14 1.79-.48l.88-.4-.26-.17c-.15-.1-.33-.37-.43-.66-.17-.47-.19-.49-.55-.49-.6 0-.59-.76.01-.86.42-.07.51-.2.51-.81 0-.25-.04-.33-.18-.33-.3 0-1.32.2-2.02.4-.36.1-.96.23-1.35.3s-.77.15-.85.17c-.13.04-.13.03 0-.05.08-.05.56-.17 1.05-.27.5-.09 1.18-.25 1.53-.36.34-.1.92-.21 1.27-.25l.65-.07-.86-.38c-1.48-.66-1.48-.69.09-1.41 1.18-.54 1.88-.71 2.02-.48.06.09-.08 1.3-.22 1.87-.04.18 0 .22.29.26l.33.04-.32.01c-.18.01-.33.07-.33.13 0 .07.1.09.28.05.55-.12 1.28-.17 1.07-.07-.18.09-.17.1.08.1.18.01.41.14.67.4l.4.39v.85c0 .73-.03.89-.24 1.2-.22.32-.23.36-.08.4.13.03.12.04-.03.04-.11 0-.37.08-.57.17-.21.09-.42.16-.47.16-.1 0-.25.49-.17.57.03.03.37-.02.77-.11s.74-.14.77-.12c.05.05-.03.07-1.03.29-.56.13-.6.15-.66.48-.09.43-.17.42.86.14.49-.14.84-.21.79-.16-.05.04-.45.18-.88.29-.72.19-.95.33-.96.55 0 .1-.05.11.93-.22.48-.17.87-.26.87-.21s-.18.15-.4.21c-.43.13-.44.29-.02.29.15 0 .34.05.42.1.2.13-.2.13-.73.01-.64-.15-1.17.1-1.17.55 0 .19.09.23.68.33 1.07.18 1.22.22 1.22.32 0 .05-.1.07-.22.04-1.32-.28-1.78-.3-1.78-.07 0 .16.14.21 1 .32.56.07 1.03.17 1.06.22.07.11-.28.1-1.26-.06-1-.17-.89-.22-1.05.53-.14.7-.26.62 1.27.82.54.07.98.16.98.21 0 .11-.21.1-1.29-.07-1-.17-1.21-.15-1.21.1 0 .11.11.15.43.15.23 0 .55.07.71.15.15.08.45.15.65.15.61 0 .67.1.44.72-.23.61-.41.68-1.28.5-1.16-.24-1.27-.25-1.23-.06.02.13.21.21.77.3 1.13.19 1.24.23 1.12.37-.05.07-.25.55-.44 1.07l-.33.95-1.75-.02c-.97-.02-1.81-.03-1.87-.03-.07 0-.12-.05-.12-.11 0-.08.51-.11 1.81-.08l1.82.04.18-.54c.21-.61.16-.71-.33-.71-.23 0-.28.05-.34.36l-.07.36-1.06-.08c-.58-.05-1.28-.08-1.54-.09h-.48l-.18.51c-.17.5-.17.51.03.46.23-.06.13.12-.72 1.38-.53.79-.52.77-.52.58 0-.09.23-.5.5-.91.65-.97.63-1-.12-.24-1.27 1.29-3.15 1.4-4.64.27l-.53-.4-.38.42c-1.27 1.43-2.43 2.53-2.43 2.32Zm-1.9-.35c-.36-.04-1.88-.19-3.39-.33s-2.76-.27-2.78-.29c-.03-.03-.53-2.53-.53-2.66 0-.08 6.03.32 6.65.44.2.04.83 1.68 1.01 2.63.07.36.13.35-.96.21Zm.7-.26c0-.04-.17-.57-.37-1.19l-.37-1.12-.55-.06c-.31-.03-1.48-.12-2.61-.21-1.13-.08-2.31-.17-2.64-.21-.57-.05-.58-.05-.53.18.03.13.13.64.22 1.15l.17.91.91.07c.51.04 1.93.17 3.17.3 2.77.28 2.6.26 2.6.18Zm-25.99-.85c.06-.11.14-.58.17-1.04l.05-.82-.39-.2-.39-.2.14 1.24c.15 1.26.21 1.41.42 1.02Zm16.65-.68.33-.75-.38-.38c-.46-.47-1.37-.63-1.83-.33l-.25.16.23.46c.12.24.26.69.29.99l.07.54.42.04c.76.07.76.07 1.12-.73Zm-11.24.3c1.13-.11 2.13-.2 2.22-.2.18 0 .21-.59.1-1.58l-.07-.52h-.77v1.32l-.52-.05c-.29-.04-.98-.09-1.53-.12s-1.17-.08-1.37-.11l-.38-.06v-.98h-1v2.62l.63-.06c.34-.04 1.55-.15 2.69-.26Zm28.58-.31c1.01-.45 1.7-1.47 1.78-2.61q.075-1.14-.3-.3c-.1.2-.28.51-.4.69-.13.17-.34.5-.48.72-.33.56-.45.52-.13-.05.3-.54.27-.6-.24-.43-.59.19-2.07.14-2.75-.1-.32-.11-.58-.18-.58-.17 0 .02.07.21.15.42.19.48.03.28-.45-.57-.34-.6-.56-.69-.25-.1.21.41.1.4-.15-.01-.12-.2-.2-.51-.2-.76v-.44l.53.55c1.23 1.29 3.57 1.3 4.63.01.28-.35.39-.43.46-.32.06.09.07.05.02-.12-.86-3.12-5.98-2.17-5.82 1.09.09 2.09 2.25 3.38 4.18 2.5Zm-35.9-.23c0-.33 0-.34-.55-.38-.7-.06-.61.12-.95-1.89-.27-1.54-.4-2.23-.81-4.38l-.11-.54-.5.06c-.65.08-.61-.02-.38 1.18.3 1.61.9 5.12.9 5.31 0 .14-.08.18-.36.18-.34 0-.35.01-.32.33l.03.32.95.06c.52.03 1.21.06 1.53.07l.57.02zm-4.07-.37c.26-.07.37-.15.37-.29 0-.17.07-.2.48-.2.48 0 .49 0 .44-.3-.03-.22-.09-.29-.21-.26-.09.02-.51.12-.93.21-.43.09-.78.2-.78.24 0 .21.13.71.19.71.03 0 .23-.05.44-.11Zm12.57-.89v-.4h-1.08l-.06-.37c-.03-.21-.11-.78-.16-1.28-.14-1.19-.69-4.78-.75-4.83-.05-.05-.95.07-.95.13 0 .02.11.76.25 1.65.39 2.48.66 4.53.6 4.59-.03.02-.28.04-.55.02l-.5-.02v.69l.63.06c1.04.1 1.39.13 2 .14l.57.02zm33.71-.02c.2-.4 1.19-1.68 1.29-1.68.16 0 .11.13-.2.5-.33.38-.37.5-.17.5.07 0 .22.07.33.16.2.16-.05.15-.49-.02-.1-.03-.25.09-.43.35-.31.44-.52.55-.33.19Zm-41.36-.26c.23-.05.51-.05.63-.01.25.09.24.11.42-1.15.12-.92.14-.86-.3-.77-.32.06-.36.1-.44.54-.1.56-.14.59-1.33.83-.84.16-.93.21-.93.4 0 .54.21.56 1.95.16Zm-3.83-.12c.11 0 .1-.58 0-.64-.28-.17-1.72.45-1.72.73v.29l.83-.19c.45-.1.85-.19.89-.19Zm19.78-.18c.48-.5.7-1.02.7-1.68v-.39l-.29.61c-.31.66-.6.98-.36.4.08-.2.15-.37.15-.4s-.21.07-.48.22c-.62.35-2.12.39-2.77.08-.22-.11-.44-.22-.49-.24-.05-.03 0 .12.12.32s.18.36.14.36c-.1-.01-.44-.49-.69-1l-.22-.45-.01.47c0 1.09.43 1.57 1.38 1.51.78-.06 1.35.07 1.83.41.46.33.46.33.99-.22Zm9.73-.9-.37-.92H33v.93l-.57-.06c-.32-.04-1.05-.09-1.63-.12-1.74-.1-1.7-.08-1.7-.6v-.45h-1.12l.05.33c.03.17.09.53.12.79.07.45.08.46.48.52.57.08 5.79.53 5.84.51.02-.01-.14-.43-.34-.93Zm-26.36.32c.69-.15.71-.16.78-.51.09-.48.1-.48-1.07-.22-1.21.26-1.2.26-1.12.68.08.37-.02.37 1.41.05Zm40.7-.06c-.07-.04-.27-.08-.44-.08-.38 0-.38.03-.18-.92.27-1.34.18-1.21.85-1.13.5.06.6.04.6-.08s-.13-.17-.52-.19c-.65-.04-.65.27.06-3.18.3-1.46.54-2.65.53-2.66s-.23-.04-.49-.06l-.47-.05-.1.46c-.05.25-.33 1.79-.61 3.41-.29 1.62-.6 3.24-.69 3.6l-.16.65-.47.03c-.96.06-.58.29.6.37.59.03 1.16.07 1.27.08.24.03.39-.14.22-.25Zm1.42-.4c.1-.27.05-.3-.93-.48-.73-.14-.85-.09-.86.33 0 .13.09.17.38.18.2.01.51.05.67.09.52.13.65.11.74-.12ZM7.6 20.95c.63-.15 1.25-.28 1.38-.31.23-.05.23-.05-.07-.29-.34-.29-.52-.3-1.35-.09-1.45.37-1.36.32-1.36.64 0 .36-.03.36 1.4.05Zm16.25.06c1.31-.61 1.29-1.66-.04-2.4-1.37-.76-3.76.36-3.31 1.55.33.87 2.25 1.36 3.35.85Zm8.83-.08c-.03-.26-.07-.28-.53-.33l-.5-.05.01-.4c0-.22.04-1.56.09-2.97l.08-2.58h-.46c-.56 0-.53-.13-.67 2.6-.05 1.07-.13 2.23-.16 2.58l-.06.62H30c-.45 0-.79.34-.56.58.07.06 1.56.19 2.54.21l.73.01zm-28.44-.95c-.24-1.27-.18-1.18-.77-1.18-.96 0-2.18.13-2.14.23.02.08 2.84 1.66 2.98 1.67.04 0 .01-.33-.07-.72Zm14.86-.15c.23-.43.57-.97.75-1.19l.34-.41-.55-.07c-.3-.03-1.1-.03-1.78 0l-1.23.07-.41.47-.41.47.52.07c.29.03.69.06.89.06.34 0 .43.06.9.65.29.35.54.65.55.65s.2-.35.43-.77Zm31.55.31c.21-.55.21-.54-.46-.57-.52-.02-.53-.01-.59.28-.06.3-.06.3-.62.27-.76-.04-.84.15-.11.23.32.04.76.11.98.15s.45.08.51.09.19-.2.29-.45Zm-11.06-.2c.3-.38.2-.44-.76-.44h-.86l.06-.45c.12-.86-1.13-.16-1.51.84-.01.04.26.09.6.1.35.01.88.06 1.18.1.95.14 1.07.13 1.29-.15Zm-4.67-1.29c.05-.09-.25-.15-1.15-.25-1.91-.2-1.72-.26-1.75.51l-.03.66.98.09.98.09.45-.49c.25-.27.48-.54.52-.61Zm-21.72.9c0-.27-.51-2.8-.58-2.87-.08-.07-2.42 1.28-2.42 1.4 0 .07 2.79 1.61 2.92 1.62.05 0 .08-.07.08-.15Zm2.43-.73c.6-.65.78-1.03.84-1.76l.04-.61-.2.43c-.11.23-.25.42-.31.42-.07 0-.08-.06 0-.19.17-.32.12-.34-.2-.08-.16.14-.39.29-.5.32-.11.04-.18.11-.14.16.03.06-.05.07-.22.03-.26-.07-.27-.05-.21.22.03.16.09.57.13.92.08.76.17.77.77.14Zm25.06.14c.57-.26.56-.36-.01-.36-.35 0-.38-.02-.33-.22.03-.13.09-.5.13-.83.08-.68-.09-.63 1.5-.51l.92.07v-.24c0-.23-.04-.24-.82-.3-1.08-.07-1.42-.2-.73-.27l.5-.05.12-1.1c.06-.61.14-1.31.18-1.57l.06-.48h-1.06c-.58 0-1.05.04-1.05.08s-.06.59-.14 1.22-.22 1.76-.31 2.5c-.21 1.8-.17 1.7-.76 1.7-.48 0-.49.01-.49.3v.3h.89c.72 0 .98-.04 1.4-.24Zm6.41-.15c0-.29-2.04-.75-2.37-.53-.35.22.42.54 1.57.65.77.08.8.08.8-.12Zm.26-1.58c-.05-.06-.52.11-1.5.55l-.59.26.94.21.94.21.14-.59c.07-.32.11-.61.07-.64ZM3.44 18.34l.46-.07-.06-.36c-.1-.56-.17-.56-1.05-.02l-.83.51h.51c.27 0 .71-.03.97-.06Zm22.34-.41c-.03-.26-.07-.28-.5-.31l-.48-.03V12.2h-.88l.06 2.65.05 2.65h-.52c-.6 0-.77.34-.23.46.15.03.41.1.57.14.17.05.67.09 1.13.09l.83.01zm-23.24-.36c.18-.13.16-.14-.21-.2-.48-.08-1.03-.43-1.2-.77-.12-.24-.13-.24-.13.13 0 .38.19.87.47 1.19.16.18.52.06 1.07-.35Zm27.88-1.27c.05-.73.06-1.35.04-1.37s-.67.29-1.44.69l-1.4.74 1.26.67c1.56.82 1.46.87 1.54-.73Zm-15.19.66c.89-.38 1.19-1.08.71-1.7-1.24-1.62-4.04-1.04-4.56.96-.16.63-.11.65.61.23 1.28-.75 2.34-.86 2.45-.24.03.16.09.43.12.59.06.33.19.37.67.16Zm-11.64-.11c.16-.08.31-.21.34-.3.04-.08.13-.15.22-.15 1.03 0 .35-1.25-.83-1.5-.9-.2-2.43.52-2.18 1.02.48.98 1.56 1.4 2.45.93Zm14.09.01c.73-.39 1.23-1.22 1.28-2.16.02-.36.01-.58-.02-.5-.15.36-.76 1.2-1.05 1.44-.49.41-.51.3-.03-.18.56-.56.57-.74.02-.42-.24.13-.62.27-.85.31l-.42.07.15.4c.08.22.14.58.14.79 0 .44.26.52.78.25Zm30.08-1.63c.13-.7.24-1.29.24-1.3 0-.02-1.45.62-2.58 1.14l-.63.29 1.33.61c.73.33 1.35.59 1.36.57.02-.01.15-.6.28-1.31Zm-8.32.5c.08-.29.29-2.24.24-2.29-.03-.02-.71.24-1.53.58l-1.48.62 1.29.63c1.47.71 1.41.69 1.48.46Zm-22.1-.85c.23-.07.58-.3.81-.53.22-.22.43-.39.47-.38.26.09.11-.34-.25-.71-.94-.98-2.71-.9-3.47.16-.34.46-.37.58-.15.58.23 0 .85.34 1.25.69.39.33.7.38 1.34.19Zm6.28-1.15c-.02-.71-.06-1.3-.08-1.32-.03-.04-1.05.52-1.82 1.01l-.53.34 1.18.61c.65.34 1.21.62 1.24.62.03.01.04-.56.01-1.26Zm5.38.87c0-.17-.07-.2-.41-.2h-.41l.06-.37c.03-.21.08-1.16.12-2.1l.06-1.73h-.59l-.09 2.08-.09 2.07-.27.03c-.51.06-.33.31.24.35 1.33.09 1.38.08 1.38-.13ZM50.3 13c.31-.21.56-.64.64-1.1l.06-.35-.16.38c-.15.34-.34.5-.34.28 0-.04-.25-.01-.56.07-.59.17-1.33.02-1.76-.36-.22-.19-.34.03-.24.44.2.78 1.62 1.17 2.36.64Zm-17.97-.45c-.85-.37-.83-1.85.02-2.21.67-.28 1.44-.03 1.65.52.44 1.14-.57 2.17-1.67 1.69Zm1.22-.57c.51-.6.14-1.43-.63-1.43-.58 0-.92.34-.92.9 0 .88.98 1.21 1.55.53Zm-17.26.13c.32-.2-.12-3.44-.47-3.49-.21-.03-.23 0-.18.3.07.38.36 2.97.36 3.16 0 .14.09.15.29.03Zm22.31-.26c0-.32.02-.35.3-.35.22 0 .3-.05.3-.17 0-.1.03-.35.06-.56l.07-.37-.76-.35c-.42-.19-.85-.35-.96-.35-.36 0-.29-.61.09-.82.39-.22.45-.92.09-1.03-.62-.2-1.82-.85-1.56-.85.09 0 .17-.04.17-.1 0-.05.17-.19.37-.3l.38-.21-.77.04-.78.04v-.48c0-.46.01-.47.38-.56l.37-.09v-2.5l.38-.31c.34-.29.36-.33.21-.47-.08-.09-.12-.2-.09-.26.03-.05.01-.1-.04-.1-.06 0 0-.19.13-.43.24-.42.61-.61.68-.35.02.09.09.07.26-.08l.22-.21-.24.04c-.17.04-.27-.01-.35-.15-.14-.27-.04-.52.21-.52.13 0 .18.05.15.14-.03.08.01.2.09.26.12.1.14.08.14-.14 0-.44.38-.35.42.09.02.2.07.35.13.35s.11-.15.13-.35c.03-.32.42-.56.42-.25 0 .13.37.13.45 0 .13-.22.83-.12.87.13l.03.22.23-.23c.15-.15.32-.22.48-.2l.25.03-.21.23-.21.22h.63l-.23.19c-.18.14-.26.16-.31.07-.07-.13-.78-.1-.78.03 0 .04.21.12.48.17l.47.09-.02.39c-.03.48-.2.69-.34.44-.12-.21-.49-.24-.49-.04 0 .07.09.16.19.19.24.06.44.74.35 1.14-.05.22-.04.26.06.16.07-.06.19-.53.26-1.04.18-1.2.19-1.24.5-1.38.15-.07.24-.17.21-.25-.04-.09.04-.16.21-.19.15-.03.37-.15.49-.26.27-.25 1.57-.32 1.47-.08-.04.1.03.12.26.09l.3-.04v.56c0 .43.03.56.15.56.08 0 .15.07.15.15 0 .21-.3.19-.46-.03-.12-.16-.13-.15-.14.06 0 .21.04.23.43.2.49-.04.62-.32.27-.63-.25-.23-.26-.42 0-.5.11-.03.2-.11.2-.16 0-.06.08-.09.18-.08.34.03.44-.01.38-.16-.04-.12.03-.15.3-.15.28 0 .35.03.3.15-.03.09 0 .15.09.15.56 0 .47.8-.11.94-.32.08-.31.3.01.24.33-.07.33.15-.02.4l-.26.19.31.33c.56.58.17 1.3-.7 1.3-.82 0-.97-.71-.28-1.34.47-.42.59-1.66.17-1.66-.16 0-.18.04-.12.23.22.66.13.88-.43 1.1-.42.16-.52.24-.49.38.07.27-.25.08-.43-.25-.1-.2-.11-.31-.02-.51.08-.17.08-.25.01-.25-.06 0-.16.14-.22.3-.07.2-.18.3-.32.3-.32 0-.51.16-.29.24.1.04.21.02.24-.05.09-.14.42-.08.47.08.02.06-.11.2-.29.29-.19.1-.28.19-.2.22.07.02.22-.04.33-.14.36-.32.37-.11.02.83-.03.06.04.13.14.16s-.01.05-.24.06c-.45.01-.53-.08-.28-.29a.48.48 0 0 0 .15-.31c0-.24-.32-.25-.51-.03-.12.15-.11.16.1.09.17-.05.22-.04.19.06-.03.08-.15.13-.27.11a.56.56 0 0 0-.41.13c-.35.32-.49.13-.43-.57.05-.61.2-.97.3-.7.12.32.23.08.17-.37-.07-.54.15-.7.93-.68.53.01.87-.44.42-.56-.12-.03-.22 0-.26.09-.03.08-.12.14-.2.14-.09 0-.13-.06-.09-.15.03-.08.01-.15-.05-.15s-.08-.04-.05-.09c.03-.04-.06-.13-.19-.19-.24-.11-.25-.1-.19.15.06.24.05.25-.21.19-.2-.05-.26-.03-.23.06.03.07.17.14.31.16.34.04.34.15.01.3-.26.12-.64.02-.64-.18 0-.05-.07-.07-.16-.03-.15.05-.15.07 0 .15.21.12.2.49-.01.87-.25.43-.34.39-.26-.14.09-.66-.12-.56-.26.12-.19.96-.16 1.14.18 1.07.36-.07.42.02.31.52-.21 1-.21 1.24-.03 1.25q.21 0 .03.06c-.35.14-.39.43-.06.43.25 0 .27.28.03.58-.07.09.05.12.54.14.47.01.53.02.23.05l-.42.04-.07.57c-.03.31-.08.65-.11.74-.04.13.03.18.28.21l.33.04-.32.01c-.25.02-.33.07-.33.21 0 .17.06.19.38.15l.37-.04-.35.11c-.46.14-.46.14-.54.87l-.06.62h.3c.31 0 .33.07.15.67-.03.07.1.14.33.16.2.02-.19.02-.88 0-1.51-.05-1.5-.05-1.5-.41 0-.34.16-.52.47-.52.19 0 .23-.05.23-.3 0-.28-.02-.3-.4-.3-.48 0-.47-.02-.54 1.2-.03.52-.09 1.05-.12 1.18-.05.17-.02.22.14.22.15 0 .19.05.15.2-.05.17-.15.2-.77.22l-.71.02.6.03c1.42.07 1.38.33-.06.33h-.99zm-11.11-1.02c.01-.29-.02-.53-.06-.53-.1 0-1.83 1.03-1.79 1.07.02.02.41.19.87.37l.84.34.07-.36c.04-.21.07-.61.07-.89Zm22.73 1.01c.53-.25.73-.59.54-.89-.51-.78-1.86-.84-2.55-.11-.61.65 1.05 1.47 2.01 1Zm-10.31-.79c.14-.84.22-2.65.11-2.65-.13 0-.18.27-.32 1.45-.06.5-.13 1.07-.16 1.28-.05.34-.04.38.12.35.13-.02.21-.16.25-.43ZM15.4 9.75c-.07-.63-.15-1.15-.19-1.15-.12.01-1.71 1.22-1.71 1.31s1.92 1.1 1.99 1.03c.02-.02-.02-.55-.09-1.19Zm3.34.85c-.31-.12-.31-.13-.45-1.53-.07-.7-.17-1.27-.22-1.27s-.07.1-.04.23c.03.12.09.72.13 1.33l.07 1.11-.29.11c-.26.09-.21.1.36.11.46 0 .59-.03.44-.09Zm29.63-.96c.26-1.56.26-1.76.06-1.72-.18.03-.4 1.14-.42 2.16-.02.6.23.29.36-.44Zm-8.92-.47c.07-.69.07-.69-.17-.62-.61.19-1.67.84-1.38.85.08 0 .42.13.75.29.71.34.71.34.8-.52Zm2.95.73c0-.05-.11-.1-.24-.1-.35 0-.35.02-.14-1.78.11-.9.17-1.67.13-1.7-.13-.14-.23.26-.35 1.37-.17 1.71-.24 2.06-.4 2.03-.2-.05-.42.07-.35.18.08.13 1.35.13 1.35 0Zm-24.6-.45c0-.23-.94-.85-1.3-.85-.34 0-.08.5.28.52.36.01.36.01.04.05-.31.04-.44.28-.25.46.21.22 1.23.07 1.23-.18Zm-16.57.04C.44 9.26.11 8.06.66 7.41l.26-.31-.39-.01c-.21-.01-.01-.06.45-.1 1.16-.12 1.92.28 1.92 1.03 0 .11.1.18.33.21l.32.04-.32.01c-.24.02-.33.07-.33.19 0 .29-.37.81-.62.89-.22.07-.22.07-.03.15.29.11-.62.1-1.02-.02Zm27.5.04c-.35-.07-.33-.7.02-.79s.33-.41-.02-.47l-.28-.04.28-.02c.81-.04.19-.59-1.11-.97-.17-.05-.15-.41.04-.48.35-.14.13-.77-.33-.95-.71-.27-.71-.32 0-.95.72-.63.84-.66 1.16-.32.19.2.22.31.16.65-.06.39-.06.4.27.44l.33.04-.37.01c-.3.02-.38.06-.38.2 0 .17.05.18.55.09.79-.13.85-.09.85.63 0 .57.11.78.24.45.03-.08.16-.15.28-.16.13 0 .41-.08.63-.18l.4-.18-.34-.06c-.25-.05-.32-.11-.27-.23.04-.1-.01-.22-.11-.31-.1-.08-.13-.12-.07-.09.07.03.49-.15.93-.4 1-.56 1.09-.54 1.14.28.02.37.04.13.05-.56l.02-1.19-.35.06c-.19.03-.42.13-.51.21-.42.43-.45-.2-.03-1.02.17-.34.27-.67.23-.73-.18-.29-.12-.6.12-.71.32-.15.3-.54-.03-.51-.17.02-.23-.04-.28-.27-.08-.37-.17-.38-.47-.03-.18.22-.3.27-.58.25-.26-.02-.31 0-.2.08.08.05.23.1.34.1.15 0 .16.03.06.15-.07.08-.25.15-.41.15-.28 0-.29.02-.28.48l.01.47.12-.34c.12-.32.15-.35.61-.37.73-.03.93.37.45.91-.1.11-.2.4-.24.65s-.09.55-.12.66c-.04.16 0 .23.17.27.13.04.21.09.18.11-.03.03-.19 0-.37-.06l-.31-.12.05-.81c.07-.93.1-1.09.24-1 .13.08.25-.24.13-.36-.06-.06-.16-.04-.29.06-.11.08-.14.14-.06.15.27 0-.49.6-.78.6-.15 0-.37.03-.47.06-.15.06-.16.04-.05-.07.17-.18.15-.26-.08-.32-.11-.03-.2-.14-.2-.24 0-.3.11-.35.37-.18.17.12.23.12.24.03.02-.41.09-.7.23-.89q.15-.225.06-.39c-.05-.1-.06-.2-.03-.24.03-.03-.03-.06-.15-.06-.21 0-.28.14-.31.64-.01.33-.11.48-.18.28-.03-.08-.12-.04-.25.13-.11.14-.3.25-.43.25-.44 0-.53-.85-.12-1.12.06-.03.01-.17-.12-.33-.22-.29-.28-.55-.12-.55.05 0 .11.07.15.15.07.19.26.19.26 0 0-.12.13-.15.62-.14.35 0 .57.03.5.06-.06.02-.12.13-.12.24 0 .21.47.08.63-.18.04-.07.16-.13.27-.13.23 0 .16.36-.11.51-.3.16-.23.39.12.39.25 0 .3-.04.29-.22-.05-.55 0-.68.23-.68.21 0 .23.04.19.32-.05.3-.03.32.11.19.09-.07.26-.11.37-.08s.23.01.26-.04.14-.09.25-.09c.1 0 .19-.07.19-.15 0-.18.6-.21.78-.03.09.09.18.09.37 0 .14-.07.46-.12.7-.12h.44l-.06.36c-.06.34-.05.36.15.25.11-.06.22-.21.24-.33.02-.14.11-.24.24-.26.18-.03.2.01.16.28s-.02.3.22.3c.22 0 .26-.04.26-.3 0-.32.23-.42.34-.15.07.2.46.2.46 0 0-.08.04-.15.09-.15.27 0 .04.54-.29.66-.32.12-.33.13-.13.19.13.04.2.12.17.17s-.13.07-.21.03c-.13-.04-.14-.03-.04.09.09.11.09.16 0 .21-.14.09-.04.66.14.77.15.09 0 .25-.28.3-.22.03-.32-.26-.34-1.02L36.2.95l-.84.03-.85.03.1-.36c.14-.48.1-.53-.31-.42-.33.09-.34.1-.12.18s.22.1.08.31c-.17.24-.22.68-.07.68.21 0 .19.32-.04.54-.32.32-.32.46 0 .44.2-.02.25-.08.25-.3 0-.34.33-.58.9-.65.53-.07.71.3.6 1.24-.11.87-.4 1.22-.4.47 0-.34-.01-.35-.21-.2-.14.09-.33.13-.5.09-.24-.05-.29-.02-.29.15 0 .14.05.19.18.15.21-.05.59.31.43.42-.06.03-.11.01-.11-.04 0-.06-.11-.11-.25-.11-.32 0-.34.27-.02.32.19.03.22.1.25.61.03.52.05.57.26.57.22 0 .23.02.15.38-.17.71-.11 1.39.11 1.45.43.11.11.37-.46.37-.59 0-.7-.13-.27-.33.27-.11.25-.12-.29-.15l-.58-.03v-.34c0-.21.05-.35.12-.35s.23-.03.36-.06c.16-.05.22-.02.22.1 0 .09.08.16.2.16.17 0 .2-.07.2-.44v-.44l-.41.09c-.45.1-.67.06-.24-.05.23-.06.25-.11.25-.61 0-.66-.03-.67-.72-.13-.29.22-.54.42-.54.42-.01.01-.05.2-.09.44-.07.42-.07.43.19.36.23-.05.26-.03.26.19 0 .23-.05.27-.43.32-.72.11-.58.74.17.77l.51.01-.5.06c-.56.07-.82.41-.3.41.23 0 .26.04.23.27-.03.26-.05.27-.58.25-.3-.01-.6.01-.66.05-.13.09-.01.53.15.53.05 0 .07.09.04.2-.06.22-.28.25-.95.14-.46-.08-.5-.3-.07-.39.28-.06.3-.1.27-.43l-.03-.37-.52-.03c-.51-.03-.53-.02-.53.22 0 .19.05.26.2.26.13 0 .2.07.2.19 0 .18-.06.19-.57.15-.5-.04-.54-.03-.3.07.24.09.28.16.25.43l-.03.31-.65.01c-.36.01-.75 0-.87-.03Zm19.11-.85.06-.58-.52.23c-.29.13-.66.31-.83.4l-.3.15.25.1c.14.06.45.19.7.3.53.23.55.21.64-.6Zm-45.8.41c.89-.41.58-1.8-.41-1.83-.6-.01-.93.32-.93.93.01.82.62 1.22 1.34.9Zm39.33-.54c.01-.05-.36-.3-.83-.55-1.03-.53-1.09-.64-.61-1.04.32-.27.37-.37.37-.73 0-.5.14-.65.77-.89.84-.3.99-.85.3-1.03-.57-.15-.69-.24-.69-.54 0-.16-.06-.24-.17-.23-.1.01-.15-.05-.13-.17.02-.09-.04-.24-.13-.33-.14-.14-.21-.67-.16-1.22.02-.2 0-.21-.19-.1-.11.07-.2.18-.2.25 0 .06-.03.18-.06.27-.04.11-.01.16.1.16.09 0 .16.05.16.1 0 .06-.06.1-.14.1q-.15 0-.21.48c-.03.26-.08.57-.11.7-.04.2-.02.21.14.11.13-.08.17-.2.14-.4-.04-.24-.01-.29.17-.29s.19.03.11.25c-.08.21-.07.25.08.25.27 0 .42.2.42.57 0 .39-.25.56-.78.51-.31-.02-.37 0-.37.17 0 .18.07.2.62.2.34 0 .56.03.5.07a.95.95 0 0 1-.39.08c-.22 0-.27.05-.3.28-.03.24-.07.27-.45.3l-.43.03v.67c0 .37-.03.9-.06 1.19l-.07.52.46-.14c.71-.21 1.27-.1 1.27.27 0 .3.78.42.87.13Zm-21.69-.21c-.46-.24-.73-1-.54-1.46.06-.13.01-.18-.21-.21-.28-.04-.28-.04.02-.03.19 0 .45-.11.66-.26.19-.15.54-.31.77-.36.23-.06.54-.18.69-.27l.27-.18-.45-.38c-.24-.21-.5-.39-.56-.39-.18 0-.16-.2.02-.2.08 0 .15-.06.15-.14 0-.34 1.19-.91 1.46-.71.11.08.3.15.44.16l.25.02-.24.04c-.22.04-.23.08-.17.56.04.29.1.8.14 1.14.1.75.14.8.44.59.12-.09.31-.16.42-.16.19 0 .19-.01.02-.13-.11-.08-.2-.31-.23-.6-.05-.43-.08-.46-.37-.5s-.29-.04.07-.05c.2-.01.37-.06.37-.12 0-.55 1.22-.69 1.72-.2.33.34.38.36.38.17 0-.08.08-.21.18-.3.44-.4 1.12-.01 1.12.63 0 .67-.68.93-1.15.45-.24-.23-.25-.23-.25-.04 0 .46-.61.98-.98.85-.15-.05-.15-.05-.02.06 1.05.86.18 2.45-1.05 1.94-.39-.17-.61-.47-.7-.98-.05-.27-.13-.38-.29-.41s-.15-.05.07-.06c.18 0 .27-.06.25-.13-.03-.07-.1-.13-.16-.12-.07.01-.3.02-.52.02-.47.02-.58.31-.12.33.23.02.24.02.04.06-.16.03-.22.11-.22.29 0 .94-.93 1.52-1.72 1.08Zm.83-.24c.47 0 .69-1.15.27-1.44-.78-.55-1.76.36-1.22 1.12.18.26.52.43.72.36.08-.02.18-.04.23-.04ZM24 7.8c.47-.47.28-1.15-.39-1.34-.7-.2-1.24.81-.72 1.33.27.27.84.28 1.11.01Zm17.4.08c0-.07.05-.42.1-.78.12-.81.16-.8-.73-.22l-.75.49.62.31c.7.35.76.37.76.2Zm-10.3-.17c0-.05-.06-.12-.12-.14-.07-.03.03-.03.23 0 .36.05.37.05.4-.35.04-.39.04-.39-.21-.3-.61.23-.98.5-.93.69.05.2.63.29.63.1Zm1.2-1.12v-1.1l-.51.28-.52.28.34.13c.45.19.49.27.42.94-.05.5-.03.58.11.58s.16-.15.16-1.11Zm-23.8.94c.68-.05 2.66-.32 3.5-.48.86-.17 3.41-.47 3.47-.41.05.05-1.38.26-1.8.26-.18.01-.68.07-1.12.15-1.65.31-3.48.55-3.98.53l-.52-.01zm29.6-.52v-.59l-.58.31c-.31.16-.59.32-.61.33-.04.04.98.52 1.11.53.05.01.08-.26.08-.58Zm7.04.49c-.53-.21-.69-.9-.34-1.47.42-.69 1.26-.8 1.74-.22.74.87-.32 2.13-1.4 1.69Zm4.2-.24c-.29-.29-.44-.36-.87-.39l-.52-.03.53-.02c.61-.02.71-.27.27-.68-.45-.42-.25-1.29.35-1.54.49-.2 1-.04 1.24.41.13.23.32.41.53.48l.33.12v.79c0 1.24-1.02 1.7-1.86.86Zm-20.3-.94c-.04-.07-.98.44-1.01.54-.02.05.18.19.44.3l.48.2.05-.51c.03-.27.04-.51.04-.53Zm17.14.72c.32-.21.35-.89.05-1.11-.73-.55-1.77.61-1.06 1.17.29.23.59.21 1.01-.06Zm4.63-.03c.52-.52.23-1.31-.48-1.31-.5 0-1.08.58-.99.98.16.66.96.84 1.47.33ZM1.52 6.6C.79 6.56.17 6.5.13 6.46c-.04-.03.31-.04.78 0 .46.03 1.85.09 3.09.13l2.25.08h-1.7c-.93 0-2.3-.03-3.03-.07Zm8.16-.37c.37-.05.41-.17.1-.34-.19-.1-.19-.12-.05-.21.38-.21.21-.68-.26-.7-.41-.01-.41-.01-.06-.05.32-.04.36-.07.31-.29-.03-.17 0-.24.12-.24.09 0 .16.08.16.19 0 .24.04.26.53.35l.39.07-.07-.43c-.04-.24-.11-.44-.16-.46-.1-.04-.12-.36-.03-.45.26-.25.52.18.58.97.04.44.09.96.13 1.14l.05.32h.72c.4 0 1.35-.09 2.12-.19 2.02-.28 2.6-.34 2.53-.27-.21.22-6.09.73-6.09.54 0-.05.07-.08.16-.08.15 0 .17-.81.03-.94-.26-.24-.69-.15-.69.13 0 .24.04.31.2.31.26 0 .26.17-.01.25-.14.05-.19.13-.16.26.05.17 0 .19-.41.17-.37-.01-.4-.02-.14-.05Zm-1.52-.28c-.03-.08-.01-.15.04-.15.06 0 .1-.22.1-.5 0-.37-.03-.48-.13-.44-.07.02-.31-.01-.53-.08l-.39-.13.03-.65c.05-.89.53-1.32.92-.85.09.11.16.13.24.05.18-.18.38-.12.31.1-.05.16-.02.2.15.2.2 0 .22-.04.16-.32-.04-.18-.07-.41-.07-.5 0-.11-.08-.18-.21-.18-.15 0-.19.05-.15.2.05.18 0 .2-.41.2-.49-.01-.89-.21-.77-.39.03-.06.01-.11-.04-.11-.19 0-.12-.18.09-.25.17-.05.18-.1.09-.27-.15-.28.03-.65.33-.7.17-.02.25-.12.32-.4.1-.38.1-.38.63-.38.46 0 .53-.03.53-.2 0-.19.07-.2 1.96-.2 1.72 0 1.95.02 1.84.15-.06.08-.1.2-.07.27.03.08.1.02.17-.14.16-.34.38-.36.49-.05.07.17.04.24-.1.29-.25.1-.24.2.06.48.25.23.25.23.25.02 0-.11.05-.24.1-.27.06-.04.1-.12.09-.18-.04-.34.02-.57.17-.57.08 0 .12.04.09.1-.03.05-.01.1.04.1.06 0 .11-.04.11-.1s.16-.1.35-.1c.39 0 .49.28.2.6-.28.3-.31.87-.06.95.22.07.27.3.11.55-.09.13-.12.13-.21-.02-.12-.22-.35-.23-.42-.04-.04.09.03.16.18.2.34.09.65.45.65.76 0 .54-.69.8-1.05.4-.16-.17-.2-.18-.38-.05-.57.4-1-.19-.65-.86.11-.21.17-.43.14-.48-.04-.05-.02-.12.04-.16.12-.07.54.04.46.12-.03.03.01.12.09.2s.19.21.23.3c.06.09.15.13.21.08.09-.05.08-.11-.03-.24-.09-.1-.21-.32-.27-.5-.09-.27-.16-.32-.38-.29-.2.02-.27-.02-.29-.18-.06-.4-.58-.8-.71-.55-.1.19-.09.21.13.21.36 0 .5.31.33.72-.2.47-.4.61-.78.53-.22-.05-.34-.03-.4.06-.13.21-.11.32.05.26.22-.09.26.03.09.29-.09.14-.11.24-.05.24s.14-.05.17-.1c.09-.15.35-.12.35.03 0 .23-.35.47-.67.47-.39 0-.46-.08-.28-.34.14-.2.21-.66.1-.66-.03 0-.17.07-.3.16-.45.3-.59.13-.52-.66.07-.85.13-.97.36-.76s.31.11.21-.24c-.07-.25-.05-.32.18-.5.23-.16.25-.21.12-.3-.21-.14-.4-.12-.4.03 0 .07-.13.28-.3.47-.16.19-.29.43-.3.52 0 .31-.12.48-.32.48-.14 0-.18-.05-.14-.16.13-.34.16-.9.07-1.19-.1-.29-.1-.28-.08.12.02.28-.02.44-.11.48-.07.02-.12.1-.11.17.04.23-.13.48-.32.48-.11 0-.22.08-.25.17-.03.1-.12.31-.19.47s-.11.41-.08.55c.19 1.08.21 1.03-.42 1.05l-.3.01v.97c0 .81.03.99.18 1.1s.12.13-.22.15c-.27.02-.41-.02-.45-.12Zm13.77-.93L21.77 4l-.39.22c-.63.36-.65.43-.13.78.46.32.49.38.3.82-.05.14.27.28.52.23.01 0-.05-.46-.14-1.03Zm17.05.68c.32 0 .52-.04.52-.11 0-.08-.22-.1-.76-.05l-.77.07.06-.35c.06-.35.05-.36-.44-.53-.61-.22-.61-.27.05-.92.79-.78 1-.65.9.55-.06.8-.06.84.14.84.23 0 .27-.17.38-1.54.07-.96.1-.91-.42-.7-.13.06-.14-.01-.08-.55.07-.61.07-.61-.2-.61s-.4-.5-.16-.65c.06-.03.1-.11.1-.18 0-.06-.07-.01-.16.11-.09.14-.25.22-.37.21-.53-.04-.63.01-.29.16.43.19.5.4.22.71-.13.13-.19.24-.14.24.05.01 0 .09-.11.18-.24.22-.3.42-.11.42.08 0 .16.07.2.15.03.08.01.15-.04.15s-.12.11-.16.24c-.03.13-.16.29-.3.36-.22.12-.24.2-.24.77v.64l.45-.07.45-.06v.8l.38-.14c.2-.07.61-.13.9-.14Zm10.33.06c.1-.13.32-.29.49-.36.37-.15.39-.37.03-.51-.6-.23-1.33.57-.91.99.16.16.17.16.39-.12Zm-24.85.06c.2-.13.35-.53.28-.75-.25-.83-1.37-.73-1.37.13 0 .54.66.91 1.09.62ZM5.59 5.31c-.53-.53-.32-1.51.32-1.51.48 0 .89.47.89 1.03 0 .78-.65 1.04-1.21.48Zm24.03.22c-.23-.09-.44-.64-.37-.99.17-.93 1.55-.8 1.55.15 0 .69-.56 1.09-1.18.84ZM6.48 5.07c.11-.57-.47-1.19-.75-.81-.18.24-.09.63.19.87.26.21.51.19.56-.06Zm23.74.11c.31-.24.27-.74-.07-.9-.47-.21-.78.47-.39.86.19.19.25.2.46.04ZM.17 4.79C.08 4.74 0 4.59 0 4.48c0-.17.03-.19.12-.1.58.58 1.21-.16.7-.81l-.29-.36-.26.27-.27.27v-.43c0-.39.02-.42.28-.42.43 0 .56-.13.42-.4-.16-.3-.06-.36.19-.11.17.17.19.26.11.46s-.05.32.15.61c.56.83-.16 1.81-.98 1.33Zm33.84-.7c.05-.11.09-.37.07-.57q-.03-.375.15-.54c.22-.23.24-.46.02-.28-.25.2-.65-.03-.66-.37 0-.16-.03-.22-.06-.15-.05.13-.53.17-.53.05 0-.05.07-.17.15-.27.19-.25.19-.36 0-.36-.18 0-.2-.3-.03-.31.07-.01.18-.02.25-.03.34-.04.64-.66.32-.66-.14 0-.19.05-.16.14.08.21-.19.27-.5.11-.36-.19-.63-.19-.63 0 0 .09.09.15.25.15.22 0 .25.04.25.36 0 .46-.16.74-.42.74-.17 0-.18.02-.08.15.07.08.23.15.36.15.12 0 .26.05.29.11.04.05.19.15.33.2l.26.1-.3.3c-.2.2-.41.3-.64.32-.44.03-.69.23-.5.4.09.08.11.08.07.01-.08-.15.2-.27.29-.13.03.06.18.07.33.04s.38-.01.52.04c.24.1.24.1.02.1-.24.01-.28.16-.17.58l.06.23.29-.21c.16-.11.34-.29.4-.4Zm-15.54.44c-.12-.11-.08-.23.08-.23.11 0 .15-.11.15-.4v-.41l-.51.07c-.73.1-.69-.26.04-.4.46-.09.48-.11.45-.38-.04-.22-.01-.28.14-.28.12 0 .18.07.18.23 0 .34.12.45.5.5l.35.04-.38.01-.38.02.03.53c.03.49.05.52.31.55.15.02.25.08.22.13-.07.1-1.08.13-1.18.02Zm-10.3-.38c-.05-.28-.03-.35.11-.35.13 0 .11-.05-.09-.25-.37-.38-.59-.25-.57.33.02.49.11.62.42.62.16 0 .18-.05.13-.35Zm14.53.26c0-.06.05-.13.11-.17.08-.04.09-.33.04-.9l-.07-.84h.31c.31 0 .39-.13.23-.37-.06-.09-.15-.07-.37.07-.39.26-.45.25-.45-.03 0-.17.1-.28.35-.4.38-.18.43-.28.2-.47-.2-.17-.19-.24.11-.6.25-.3.26-.32.09-.5-.17-.19-.17-.2.24-.17.34.02.41.05.41.23 0 .2.17.34.41.34.05 0 .09-.06.09-.14 0-.09.12-.16.33-.18.19-.02.31-.08.29-.16-.01-.08.13-.12.47-.12h.49l-.1.38c-.13.46-.34.89-.48.94-.15.05 0 .78.16.78.15 0 .17-.1.14-.48-.01-.18.03-.23.17-.2.28.05.31.73.04.88-.27.14-.28.44-.02.35.23-.07.51.18.51.46 0 .35-.51.8-.97.86-.45.06-.55-.04-.28-.27.29-.24.19-.58-.17-.62-.32-.03-.48-.61-.25-.85.16-.15.38.07.27.27-.1.18.11.43.24.29.2-.22.14-.47-.14-.59-.35-.15-.34-.12-.14-.51.15-.29.14-.31-.06-.36-.16-.04-.18-.08-.09-.19s.08-.14-.05-.14-.16.11-.16.5c0 .54-.16 1-.36 1-.08 0-.1-.11-.07-.35.04-.28.01-.35-.12-.35-.12 0-.15-.06-.1-.19.07-.22-.05-.33-.24-.22-.07.05-.09.11-.04.14.2.12-.01 1.22-.26 1.32-.21.09-.23.14-.17.66.04.46.02.61-.13.78-.19.22-.41.28-.41.12Zm4.1-.21c-.33-.33-.12-1.1.3-1.1.06 0 .1-.08.1-.17 0-.13-.03-.14-.12-.05-.55.55-.81-.1-.42-1.06.04-.08-.02-.11-.17-.1-.17.02-.24-.03-.26-.17-.02-.11-.08-.36-.14-.56-.15-.49.24-1.24.46-.89.03.06-.01.13-.09.16-.14.05-.14.08 0 .22.16.15.53-.13.54-.4 0-.05.17-.08.37-.08.29 0 .34.03.25.12-.07.07-.12.2-.12.3 0 .11-.07.18-.18.18-.19 0-.47.45-.37.6.08.14.45.19.45.06 0-.51.68-1.19.96-.95.34.28.14 1.19-.26 1.19-.24 0-.25-.13-.04-.46.09-.13.14-.27.11-.3-.09-.09-.47.58-.47.83 0 .12-.05.23-.11.25-.09.03-.08.31.01 1.08l.13 1.04-.27.23c-.33.28-.41.28-.66.03Zm1.36-.42c-.22-.31-.2-.64.04-.88.52-.52 1.24.07.94.78-.17.41-.73.46-.98.1Zm19.11.01c-.25-.15-.38-.54-.28-.82.06-.14.05-.3-.01-.41-.07-.12-.07-.26 0-.41.08-.16.07-.26-.01-.35-.08-.08-.08-.11-.01-.07.15.09.26-.86.14-1.18-.16-.42-.03-.55.51-.55.31 0 .49.04.49.12 0 .09.03.09.12 0 .07-.07.28-.12.48-.12l.35.01-.36.19c-.33.18-.79.7-.62.7.1 0-.19.2-.3.2-.05 0-.05-.05-.02-.1.03-.06-.01-.1-.09-.1-.12 0-.16.1-.16.35 0 .19 0 .38-.01.42 0 .04.04.09.1.11s.11-.02.11-.1c.01-.18.35-.58.5-.58.08 0 .11.09.08.25-.04.18 0 .26.14.31.21.06.6.85.6 1.22 0 .16.06.22.24.22s.24.06.24.23l.01.22.19-.24c.23-.26.23-.3.1-.51-.08-.12-.11-.12-.28.03-.4.36-.45.04-.07-.42l.26-.3-.27.02c-.2.01-.31-.04-.39-.2-.07-.13-.2-.32-.3-.43s-.15-.28-.12-.39-.03-.28-.15-.4c-.19-.21-.19-.21.1-.21.16 0 .37.09.47.2s.14.2.09.2-.02.05.06.1c.12.08.11.1-.08.1-.22 0-.22 0-.05.28.3.47.53.68.61.56.08-.13.45-.15.52-.03.1.15.63-.07.71-.3.09-.23-.27-.23-.42.01-.09.14-.32-.2-.25-.37.03-.08.12-.15.2-.15.32 0 .39-.39.1-.51-.38-.14-.58-.05-.43.19.12.19-.21.82-.43.82-.14 0-.09-.54.07-.77.14-.2.14-.22-.05-.28-.3-.1-.07-.35.32-.35.17 0 .27-.04.23-.1-.03-.06.03-.1.13-.1.11 0 .22.07.26.15.03.08.17.15.31.15.3 0 .34.32.09.68-.14.2-.14.22 0 .22.31 0 .19.7-.19 1.15l-.34.4-.07-.32c-.08-.39-.06-.39-.4-.08-.2.19-.23.25-.11.25.2 0 .32.4.23.75l-.06.25.57-.06c.32-.04.55-.04.52 0-.03.03-.3.08-.6.1s-.68.09-.84.16c-.37.14-.59.03-.63-.34-.02-.19-.08-.26-.18-.22-.08.03-.14.01-.14-.04 0-.06-.11-.05-.25.02-.14.06-.25.14-.25.18 0 .35-.67.6-1.03.39ZM6.55 3.6c-.04-.06-.02-.17.05-.25.08-.1.08-.29.01-.71-.14-.74-.14-.72.09-.79.11-.04.18-.11.14-.16-.03-.06-.12-.08-.2-.05-.09.03-.14-.01-.14-.13s.12-.23.33-.31c.17-.07.26-.14.2-.17-.07-.02-.13-.11-.13-.19 0-.12-.04-.12-.2-.04-.33.18-.39.03-.18-.4.15-.3.26-.4.44-.4.27 0 .32.17.09.26-.21.08-.19.21.05.27.31.08.47.53.27.75-.1.1-.17.29-.17.41s-.06.32-.14.44c-.12.17-.12.33-.05.76.13.7-.18 1.17-.46.71Zm39.73-.29c.08-.05.12-.21.1-.37-.06-.52-.88-.42-.88.11 0 .35.42.49.78.26ZM5.67 3.12c-.09-.1-.21-.32-.27-.48s-.2-.34-.33-.39c-.16-.07-.22-.19-.22-.41 0-.21-.08-.38-.23-.5l-.23-.19.25-.3c.14-.17.26-.36.26-.42 0-.07.07-.13.15-.13S5.2.23 5.2.15c0-.09.09-.15.25-.15.32 0 .14.46-.29.74-.28.18-.34.36-.13.36.16 0 .36-.24.62-.73.14-.26.26-.37.43-.37.2 0 .21.02.11.21s-.08.53.07 1.26c.01.07-.09.22-.23.32-.27.22-.3.9-.04.99.1.03.12 0 .08-.11s-.02-.14.09-.1c.07.03.14.14.14.24s.05.19.11.19c.05 0 .07.04.04.1-.09.15-.27.12-.19-.02.04-.07-.02-.05-.13.04-.24.22-.26.22-.46 0ZM3.4 3.08c0-.06.07-.19.16-.29.15-.17.14-.18-.2-.16-.3.02-.36.05-.32.2.06.23-.1.22-.31-.03-.1-.11-.22-.2-.29-.2-.21 0-.43-.35-.37-.58.08-.31.33-.28.33.03 0 .26 0 .26.35-.1.2-.19.41-.35.48-.35s.23-.14.36-.3l.22-.3-.23-.1c-.13-.05-.17-.09-.1-.09.07-.01.1-.06.07-.12-.04-.06.02-.13.14-.16.24-.06.18-.23-.08-.23-.1 0-.21.09-.24.2-.05.2-.57.3-.57.11 0-.5 1.04-.77 1.26-.33l.11.23.17-.26C4.43.11 4.59 0 4.7 0c.34 0 .02.62-.38.74-.25.08-.3.14-.26.31.03.13-.03.31-.14.46-.18.22-.19.27-.06.58.08.18.14.42.14.52 0 .11.05.19.1.19.19 0 .1.15-.17.28-.34.15-.53.15-.53 0Zm6.46-.03c-.26-.27-.21-.9.1-1.14.5-.39 1.11.35.82.97-.16.33-.66.42-.92.17Zm8.11-.19c-.03-.08-.04-.3-.02-.5.02-.26-.01-.36-.11-.36-.09 0-.14.12-.14.35 0 .4-.21.48-.37.13-.12-.26 0-.68.19-.68.08-.01.07-.05-.04-.14-.1-.07-.18-.18-.18-.24 0-.22.22-.23.45-.02l.24.23-.09-.34c-.13-.44-.13-.42.1-.69l.2-.23v.29c0 .22.03.26.1.14.14-.22.12-.57-.04-.63a.155.155 0 0 0-.2.09c-.08.21-.43.17-.49-.07-.06-.22 1.13-.28 1.41-.06.08.06.12.06.12-.02 0-.17.4-.13.46.04.06.14.08.13.19-.02.12-.17.14-.16.2.1.04.15.13.27.21.27.16 0 .18.19.04.54-.07.19-.17.26-.35.26-.14 0-.25.06-.25.14 0 .09.08.12.25.08.18-.03.25 0 .25.11 0 .09-.1.17-.22.19-.27.04-.34.38-.07.38.11 0 .22-.06.25-.14.07-.17.68.14.83.42.12.21.24.11.15-.12-.03-.09-.17-.19-.3-.22-.28-.07-.47-.37-.4-.62.02-.09.07-.29.1-.45.05-.2.12-.27.31-.27.28 0 .31-.16.09-.45-.12-.16-.17-.17-.23-.06-.11.17-.46.1-.46-.09 0-.12.19-.16.92-.18l.92-.03-.04.36c-.04.26-.01.37.1.41.08.04.15.12.15.2s.09.14.19.14c.25 0 .37.18.22.33-.12.12-.59-.08-.74-.3-.04-.07-.15-.09-.23-.06-.14.05-.16-.01-.1-.45.06-.5.05-.52-.19-.52-.29 0-.31.07-.09.31.19.21-.03.64-.4.79-.18.08-.17.09.1.09.31.01.6.22.47.35-.04.03-.22.03-.4 0-.26-.05-.33-.03-.33.1 0 .1.09.16.25.16.17 0 .29.08.37.25.11.24.58.37.58.16 0-.05-.09-.07-.2-.04-.28.08-.26-.25.05-.59.32-.37.32-.37.46.33.09.43.16.59.25.55.09-.03.14.02.14.14 0 .29-.6.29-.67 0-.03-.11-.14-.2-.24-.2-.11 0-.16.05-.13.14s-.06.17-.26.24c-.37.13-.56.07-.63-.19-.04-.16-.14-.19-.7-.19-.7 0-.87-.13-.67-.5.07-.13.06-.28-.01-.47l-.12-.28-.07.33c-.09.4-.15.46-.34.39-.13-.05-.14-.12-.06-.32.14-.38.13-.5-.04-.36-.08.06-.2.1-.27.09-.2-.05-.23.31-.04.52.15.16.15.19-.01.34-.12.12-.13.2-.05.3s.06.17-.08.3c-.16.14-.19.15-.24.02Zm30.31-.5c.1-.06.04-.59-.07-.53-.03.01-.27.13-.53.25-.27.12-.48.23-.48.26 0 .02-.03.12-.06.2-.05.14-.02.15.21.06.21-.08.33-.07.49.04.19.12.22.12.28-.04.04-.1.11-.21.16-.24Zm-47.16.12A.4.4 0 0 1 1 2.23C1 2.16.93 2.1.85 2.1S.7 2.03.7 1.95s.09-.15.2-.15.2-.04.2-.1c0-.05-.12-.1-.27-.1C.38 1.59.14 1.31.06.71L-.01.18l.22.16C.42.48.44.48.54.28.68.01.85.04.85.33.85.48.78.56.62.58.39.62.36.68.46.94c.07.18.24.22.24.05 0-.06.11-.2.24-.3.15-.12.23-.27.21-.39s.03-.21.16-.25c.28-.09.31-.03.19.3-.15.39-.06.55.29.55.34 0 .5.43.25.71-.08.08-.14.27-.14.41 0 .39-.54.7-.78.46Zm7.12.01c.14-.07.23-.15.21-.19-.11-.17.24-.33.42-.19.11.09.14.09.1.02-.05-.07.01-.18.13-.25.2-.13.28-.38.11-.38-.05 0-.14.07-.21.15-.16.19-.36.19-.44-.01-.03-.09.04-.25.2-.39.16-.15.24-.31.2-.4C8.87.61 8.74.67 8.6 1c-.07.17-.26.38-.42.46-.31.16-.3.35.01.27.1-.03.22.01.26.08.1.15-.24.42-.46.36a.4.4 0 0 0-.3.04c-.11.07-.09.1.08.15.13.04.2.1.17.15-.07.12 0 .11.3-.02Zm8.34-.17c-.18-.04.08-.86.41-1.26.15-.18.15-.19-.01-.13-.13.05-.18.01-.18-.13 0-.1.09-.22.21-.25.15-.05.17-.1.1-.19-.06-.07-.08-.16-.04-.19.03-.04-.03-.07-.15-.07-.24 0-.3.17-.34.9-.02.36-.07.45-.2.44-.21-.02-.22 0-.06.26.1.15.1.22 0 .32-.09.09-.16.03-.29-.3-.17-.38-.21-.42-.55-.42-.46 0-.55-.34-.14-.5.28-.1.44-.59.24-.71-.08-.06-.02-.09.2-.09.18 0 .32.05.32.12 0 .09.03.09.12 0 .18-.18 1.19-.16 1.12.02-.03.08.05.21.17.29.24.17.2.47-.06.47-.09 0-.13.05-.1.11.04.06-.03.2-.15.31-.17.16-.21.29-.18.59.04.39-.07.49-.44.41Zm-3.69-.74c.11-.3-.03-.48-.22-.29s-.5.14-.42-.06c.04-.1.11-.31.16-.47.04-.15.16-.34.26-.41s.15-.16.11-.2c-.1-.1-.48.04-.48.18 0 .07-.07.25-.15.41-.13.24-.14.35-.04.58.06.15.09.34.06.41-.03.09.05.13.29.13.28 0 .35-.05.43-.28ZM2.73 1.4c-.12-.05-.29-.22-.37-.39C2.27.85 2.16.7 2.1.68 1.92.62 2.1.3 2.31.3c.1 0 .24.12.31.27s.26.32.43.37c.39.13.38.11.3.35-.07.22-.26.25-.62.11Z"/></svg>