<svg xmlns="http://www.w3.org/2000/svg" width="51" height="51" viewBox="0 0 51 51"><path fill="#fff" fill-rule="evenodd" stroke="#fff" stroke-width=".667" d="M0 47.98c0-.13 1.6-.16 12.23-.21 17.67-.1 38.97-.09 38.97.02 0 .2-2.85.23-17.95.2-8.63-.02-19.65 0-24.47.05-7.68.07-8.78.07-8.78-.06Zm19.3-2c0-.43.25-1.56.5-2.36.27-.83.2-1.28-.21-1.37-.28-.06-.29-.08-.29-.69 0-.57-.02-.64-.25-.74l-.25-.12V24.8l.73-1.89c1.24-3.19 1.19-3.19 2.49.07l.78 1.95v6.27h.79V20.12l-.01-11.07.61-1.8c.34-.99.61-1.89.61-2 0-.24.48-.75.71-.75.32 0 .89.5.89.78 0 .15.26 1.04.57 1.97l.58 1.7.05 11.1.05 11.1h.8l.05-3.35.05-3.35.49-1.25c1.37-3.52 1.3-3.51 2.61-.26l.73 1.82.07 7.87.07 7.86-.24.22c-.24.21-.24.22-.11.87.21 1.02.14 1.96-.15 2-.34.05-.5-.14-.58-.66-.06-.42-.08-.45-.17-.24-.08.17-.05.35.11.75.29.71.51 1.61.54 2.27l.03.55-1.52.03-1.53.03v-.24c0-.4.2-1.39.46-2.26.32-1.05.27-1.58-.14-1.63-.26-.03-.27-.06-.3-.67-.02-.51-.07-.68-.23-.78-.18-.14-.19-.28-.19-3.34V34.2h-.85l.03 2.7.04 2.69-.24.22c-.24.21-.24.23-.11.73.28 1.1.16 2.06-.27 2.06-.26 0-.29-.05-.42-.57-.14-.52-.16-.55-.22-.32-.05.19.02.54.23 1.15.34 1.02.57 2.22.45 2.34-.05.04-.74.1-1.54.12l-1.45.03.02-.59c.01-.32.16-1.09.33-1.7.37-1.31.35-1.73-.08-1.78-.26-.03-.27-.06-.3-.65-.02-.5-.07-.65-.22-.73-.19-.1-.2-.25-.22-2.93l-.03-2.82-.29.02c-.59.04-.56-.14-.56 3.33 0 3.01-.01 3.21-.19 3.31-.15.1-.17.19-.1.48.3 1.41.22 2.31-.21 2.31-.32 0-.49-.34-.51-.99l-.01-.36-.11.34c-.08.27-.07.42.07.8.35.9.62 2.19.57 2.79-.01.09-.38.12-1.51.12h-1.5zm2.75-.4c-.11-.71-.34-1.58-.55-2.04l-.19-.44h-1.1l-.2.68c-.11.37-.25.92-.31 1.22s-.13.65-.16.78c-.04.22-.04.22 1.27.22h1.31zm9.65.15c0-.38-.25-1.38-.5-2.06l-.21-.57h-1.18l-.16.58c-.09.31-.18.64-.21.73-.02.09-.11.48-.18.88l-.14.71h2.58zm-4.84-1.18c-.09-.78-.54-2.13-.74-2.23-.51-.27-1.03-.22-1.17.11-.18.43-.42 1.39-.53 2.1l-.09.57h2.6zm-6.58-2.12c-.03-.37-.02-.38.34-.41l.36-.03-.05.4c-.05.36-.03.41.15.41.3 0 .52-.72.45-1.49l-.06-.6.54-.04c.3-.02-.22-.04-1.16-.05-1.14 0-1.62.02-1.47.09.21.08.23.14.21.66-.03.54-.01.58.2.61.23.04.25.07.35.55.09.4.18.33.14-.1Zm10.74.15c.08-.14.13-.57.13-1.08v-.85l.5-.06c.28-.03-.25-.07-1.18-.07-1.1-.01-1.66.01-1.62.08.03.06.13.1.21.1.11 0 .14.15.14.65 0 .62.01.65.24.65.19 0 .26.07.34.38l.1.37.01-.37c.01-.37.02-.38.4-.38h.39l-.05.4c-.06.46.17.57.39.18Zm-4.72-1.19c.12-.29.15-.51.09-.6-.05-.08-.09-.33-.09-.56v-.42l.53-.04c.28-.02-.22-.04-1.13-.05s-1.59.02-1.52.07c.07.04.16.33.19.64.05.46.09.56.26.59.14.02.24.16.33.43l.12.4.01-.37c.01-.38.01-.38.42-.38h.41l-.04.4c-.05.56.19.5.42-.11Zm-1.8-1.09v-.5h.66c.56 0 .65.02.6.16-.03.09-.06.31-.06.5 0 .31-.03.34-.3.34-.29 0-.3-.02-.3-.45 0-.25-.04-.45-.1-.45-.05 0-.1.2-.1.45 0 .38-.03.45-.2.45s-.2-.07-.2-.5Zm-1.9-3.15c0-2.71.02-3.16.15-3.21.12-.05.15-.29.15-1.3 0-1.04-.02-1.24-.15-1.24s-.15-.3-.16-2.02c-.01-2.59-.06-4.28-.12-4.35-.03-.02-.15-.02-.26.02-.21.06-.21.11-.21 3.52 0 2.41-.03 3.44-.11 3.41-.07-.02-.1-1.09-.09-3.46l.01-3.42H19.7v3.6c0 2.33-.04 3.6-.1 3.6s-.1-1.27-.1-3.6v-3.6h-.45l-.03 3.7-.04 3.7h1.76c1.08 0 1.76.04 1.76.1s-.69.11-1.72.12l-1.73.03-.03 3.77L19 40.3h3.6zm9.6-.65v-3.8h-3.5v2.95c0 2.31.03 2.94.13 2.93.08-.02.13.14.15.5.03.54-.13.74-.21.25-.02-.16-.05 0-.06.35l-.01.62h3.5zm-12.7-.14c0-2.06.04-3.27.1-3.31.07-.04.1 1.07.1 3.24 0 2.14-.04 3.31-.1 3.31s-.1-1.15-.1-3.24Zm7.9.38c0-2.22.02-2.69.15-2.78.22-.17.24-2.5.01-2.54-.14-.03-.16-.4-.16-3.78V23.9h-.48c-.48 0-.49 0-.44-.3.04-.25.01-.3-.17-.3-.23 0-.26.11-.11.41.1.18.07.19-.49.19h-.6l.06-.3c.04-.24.02-.3-.12-.3s-.16.06-.12.3l.06.29-.57.03-.57.03v.48c.01.26.02 1.96.03 3.77l.02 3.3h1.75c1.1 0 1.75.04 1.75.1s-.65.1-1.75.1H23.9v7.7h3.5zm-3.05.25c-.1-.26-.01-4.69.1-4.72.14-.03.19 4.63.06 4.76-.07.07-.12.05-.16-.04Zm7.83-8.21c-.03-3.65-.03-3.73-.23-3.73-.21 0-.25.89-.34 6.13 0 .47-.05.82-.11.82s-.1-1.22-.1-3.45V25.1h-2v3.45c0 3-.02 3.45-.15 3.45s-.15-.45-.15-3.45c0-3.38 0-3.45-.2-3.45s-.2.07-.2 3.65v3.64l.98.04c.53.01 1.32.04 1.75.05l.77.02zm-7.88-1.02c0-2.24.04-3.46.1-3.46s.1.63.11 1.68c.01.92.02 2.45.03 3.41.01 1.32-.02 1.75-.11 1.78-.1.04-.13-.69-.13-3.41Zm2.28.06c-.03-3.33-.02-3.52.13-3.52.13 0 .12 6.57-.01 6.65-.06.04-.1-1.1-.12-3.13Zm-4.98-3.84c-.39-1.22-.43-1.41-.28-1.36.07.03.27.53.43 1.11.23.84.34 1.07.48 1.07.23 0 .23-.01-.29-1.33l-.46-1.17h-1.46l-.4 1.08c-.22.59-.43 1.15-.47 1.24-.07.17.04.18 1.32.18h1.39zm9.85.7c-.6-1.83-.72-2.41-.46-2.12.09.09.54 1.46.65 1.97.05.19.13.27.27.27.13 0 .19-.05.16-.12s-.24-.6-.47-1.18c-.52-1.33-.5-1.3-1.25-1.3h-.64l-.4 1.05c-.22.58-.43 1.16-.47 1.3l-.06.25h1.36c1.04 0 1.34-.03 1.31-.12Zm-5.4-5.28c.13 0 .15.29.17 1.78l.03 1.77.02-1.77.03-1.77.53-.04c.28-.02-.29-.03-1.28-.03s-1.6.01-1.35.03c.24.03.48.1.52.16.06.09.08.09.08 0 0-.08.13-.13.3-.13.27 0 .3.03.32.33l.01.32.04-.32c.03-.2.1-.33.19-.33.11 0 .14.31.16 1.78l.03 1.77.02-1.77c.03-1.49.06-1.78.18-1.78Zm-4.75 2.5c0-.16-.49-1.1-.58-1.1-.07 0-.52.98-.52 1.13 0 .04.25.07.55.07.31 0 .55-.04.55-.1Zm9.49-.42c-.25-.63-.28-.68-.4-.68-.07 0-.59 1.01-.59 1.16 0 .02.27.04.6.04h.6zM26.01 19h1.29v-7.62l-.22.06c-.13.03-.91.06-1.73.06h-1.51l.01 3.81v3.81l.44-.06c.24-.03 1.02-.06 1.72-.06Zm-1.71-3.75c0-1.95.04-3.55.08-3.55.09 0 .22 3.5.22 5.82 0 1.07-.02 1.28-.15 1.28s-.15-.46-.15-3.55Zm.6 1.57c0-2.56.11-5.12.22-5.12.04 0 .08 1.6.08 3.55 0 3.09-.02 3.55-.15 3.55s-.15-.29-.15-1.98Zm1.08 1.91c-.12-.26.04-7.03.17-7.03.11 0 .13.59.08 3.48-.05 3.06-.1 3.86-.25 3.55Zm.55-.09c-.1-.26.11-6.94.22-6.94.06 0 .1.23.1.5-.01.28-.02 1.87-.03 3.55-.02 2.86-.08 3.44-.29 2.89Zm.77-9.29c0-.06-.23-.85-.52-1.77l-.51-1.68h-1.35l-.56 1.68c-.31.92-.56 1.72-.56 1.77 0 .06.65.1 1.75.1s1.75-.04 1.75-.1ZM1.9.1C.83.07 11.49.04 25.6.03s25.6 0 25.55.02C50.98.11 3.96.15 1.9.1Z"/></svg>