<svg xmlns="http://www.w3.org/2000/svg" width="51" height="51" viewBox="0 0 51 51"><path fill="#fff" fill-rule="evenodd" stroke="#fff" stroke-width=".3" d="M0 51.13c.01-.04.07-.19.14-.32.11-.21.11-.3-.01-.59-.08-.19-.13-.48-.11-.66.03-.3.03-.3.17.14.22.68.25.67.73-.17 1-1.73 1.6-2.93 1.46-2.93-.08 0-.06-.05.06-.11.28-.17.81-1.4.64-1.5-.1-.07-.1-.09.03-.09.17 0 .57-.76.46-.87C3.42 43.89.6 45.19.6 45.41c0 .05-.09.09-.2.09-.21 0 .04-.27.7-.74l.25-.18-.3.05c-.16.03-.47.08-.68.12-.33.06-.37.05-.37-.13 0-.17.14-.23.98-.43l.97-.22.65-.68c2.38-2.44 3.4-5.05 4.15-10.56.22-1.64.32-2.76.18-2.18-1.21 5.17-1.66 6.35-3.38 8.96-1.04 1.56-1.84 2.57-2.7 3.37-.95.89-.97.76-.03-.15 1.36-1.32 2.95-3.57 3.97-5.6.6-1.21.5-1.14-.21.15C3.54 39.14.16 43.24.02 42.81c-.02-.06.42-.57.97-1.13 2.85-2.92 4.66-6.33 5.76-10.88.12-.5.2-.68.25-.56.06.19.18-.6.5-3.64.17-1.55.46-8.07.37-8.17-.02-.01-.15.41-.3.93-.33 1.16-1.15 3.3-1.7 4.39-.43.87-1.06 2.61-1.13 3.11-.02.18-.14.61-.27.96-1.63 4.35-2.18 5.68-3.08 7.53-.27.55-.43.93-.35.85 1.85-1.95 3.22-4.94 4.01-8.79.24-1.13.38-1.61.5-1.61.03 0 0 .12-.06.28-.06.15-.22.85-.35 1.55-.27 1.46-.84 3.43-1.49 5.12-.04.11.06.01.24-.23.4-.54.45-.53.21.03C3.47 34.01.08 38.12.02 37.5c-.02-.21.08-.48.31-.88 1.75-2.9 4.28-9.77 5.23-14.22.66-3.07.99-4.18 2.45-8.32.26-.76.71-2.29.98-3.4.28-1.12.7-2.6.94-3.3.49-1.45.49-1.48-.2-.76-2.03 2.16-4 7.42-5.69 15.22-1.32 6.05-1.35 6.18-1.9 7.58-.66 1.67-2.13 4.4-2.14 3.96 0-.1.31-.77.68-1.5.76-1.47 1.68-3.72 1.77-4.33.07-.39-.24-.93-.38-.68-.05.09-.2.64-.22.78 0 .06-.06.2-.13.31-.06.12-.43 1.03-.81 2.03-.39 1-.75 1.89-.81 1.99-.22.36-.03-1.14.32-2.53 1.11-4.36 1.18-4.85.74-4.85-.07 0-.31.96-.61 2.38-.49 2.34-.5 2.36-.53 1.66-.05-1.31 1.47-7.62 2.78-11.47.33-.98.63-1.97.66-2.2.82-5.81 3.4-10.4 7.24-12.9C12.9.65 14.54 0 15.88.01c.59.01.98.03.87.06C12.21 1.17 8.9 3.52 6.72 7.2l-.57.95.02 1.47c.05 2.42.12 2.35.98-.91.63-2.35 2.32-4.67 4.08-5.57.44-.23.43-.1-.02.19-1.94 1.29-3.32 3.34-3.92 5.86-.27 1.12-.23 1.09.46-.25 1.12-2.17 2.58-3.73 4.56-4.88.46-.26 1.07-.61 1.34-.77.28-.15.73-.45 1-.65l.5-.36-.4.38c-.22.2-.33.35-.25.32s.71-.28 1.4-.56c7.39-2.95 15.64-2.76 21.8.5 3.25 1.71 5.02 3.31 6.16 5.55l.44.88-.06-.55c-.39-3.61-3.18-6.32-8.58-8.31-.72-.26-1.2-.48-1.06-.49.69-.01 3.75 1.35 5.21 2.32 3.15 2.09 4.4 3.85 4.65 6.61.04.46.1.73.15.66q.15-.255.21.51l.03.35.22-.43.22-.44-.39-1.51c-1.02-4.02-3.55-6.26-8.82-7.81l-.83-.25h.66c1.72-.02 5.21 1.74 7.06 3.56 1.16 1.12 1.7 2.17 2.3 4.38.51 1.87.5 1.8.05 2.54l-.39.65.19.6c1.31 4.23 1.98 7.22 2.77 12.32.57 3.67 2.31 11.25 3.05 13.3.19.52.26.9.25 1.4l-.01.69-.54-1.65c-.29-.91-.56-1.81-.6-2-.03-.19-.44-1.9-.89-3.8-1.03-4.24-1.05-4.37-1.5-7.4-.53-3.6-1.32-7.64-1.43-7.32-.01.05.08.7.22 1.43.14.74.32 1.9.41 2.59s.25 1.77.35 2.4.33 2.14.51 3.35c.17 1.21.35 2.22.39 2.25.07.05.5 2.96.65 4.35.14 1.41.42 2.35.6 2.05.03-.05.14-.1.23-.1.12.01.08.06-.1.16-.17.08-.28.23-.28.35 0 .11.05.17.1.14.06-.03.15.06.21.22.29.79.95 2.19 1.08 2.33.28.28.61 1.1.6 1.48v.37l-.14-.37a9 9 0 0 0-.53-1.05c-.22-.37-.57-1.17-.78-1.76-.49-1.37-.52-1.25-.19.7.71 4.28.8 4.64 1.36 5.1.16.14.29.3.29.36-.01.07-.12-.01-.26-.18l-.25-.3.1.28c.06.15.18.41.26.58.1.19.15.49.13.81l-.03.51-1.67-3.34c-.91-1.84-1.74-3.58-1.83-3.87-.1-.32-.21-.5-.27-.46s-.08.02-.05-.03c.04-.06-.09-.71-.28-1.44l-.36-1.34.06.95c.09 1.36.3 2.35.88 4 .27.8.5 1.51.5 1.58 0 .06.04.12.09.12s.06.05.02.11c-.12.2-.75-1.42-1.2-3.11l-.22-.85-.01.85c-.01.47-.06 1.42-.12 2.13-.14 1.51-.23 1.23 1.17 3.47.8 1.29 1.15 1.96 1.49 2.89.46 1.24.61 1.58 1.39 3.24.41.87.43.97.26.97-.13 0-.28-.16-.44-.47-.29-.55-.32-.53-.11.06.14.42.14.42-.07.39-.27-.04-.66-.99-1.08-2.63-.62-2.47-.81-2.93-1.65-4.15-.29-.41-.65-.97-.81-1.25-.49-.84-.41-.24.1.79.55 1.11 1.12 2.75 1.66 4.8.22.86.47 1.74.55 1.97.14.4.13.61-.02.45-.04-.03-.39-1.2-.79-2.59-.66-2.32-1.48-4.66-1.79-5.1-.11-.16-.16-.06-.35.73-.27 1.11-.32.88.82 4.23.52 1.53.9 2.76.84 2.74s-.46-1.07-.89-2.33-.82-2.33-.87-2.37c-.13-.14-.55.52-.85 1.33-.62 1.67-1.6 3.4-1.92 3.4-.2 0-.17-.09.42-1.22 1.14-2.2 2.03-5.16 2.42-7.98.32-2.34.17-9.3-.21-9.67-.02-.02-.07.47-.1 1.09-.23 3.52-.94 6.76-1.9 8.67-.13.25-.41 1-.61 1.66-1.05 3.32-2.84 7.45-3.24 7.45-.2 0-.32-.1-.55-.46-.16-.25-.4-.53-.55-.62-.38-.24-.84-.62-.74-.62.25 0 1.13.64 1.38.99.2.3.31.38.36.29.29-.44-.21-1.57-.83-1.89-.54-.27-.56-.26-1.33.52-.39.39-.9.84-1.15 1.01s-.57.42-.72.56c-.14.13-.32.22-.38.2s.28-.36.77-.75c1.5-1.22 1.96-1.74 1.83-2.08-.14-.37-.14-1.39 0-2.53.06-.52.09-.96.06-.99-.14-.15-.55.13-.96.64-.76.96-5.55 5.73-5.76 5.73-.13 0 .09-.25.66-.76 1.01-.92 2.79-2.73 4.32-4.41.88-.97 1.17-1.23 1.47-1.3.27-.07.37-.14.39-.32.04-.24-.27-.25-1.16-.04-.13.03-.61.53-1.14 1.17-1.38 1.68-5.36 5.66-5.66 5.66-.17 0-.22-.04-.19-.14.03-.08.09-.43.12-.78.21-2.14.69-3.47 1.53-4.28.53-.51 1.82-2.32 1.82-2.55 0-.02-.1-.06-.22-.08-.18-.03-.15-.05.08-.06.29-.01 1.14-.91 1.14-1.21 0-.12-.41-.4-.6-.4-.16 0-.93 1.21-.93 1.46 0 .08-.04.14-.08.14-.09 0-1.15 1.77-2.2 3.67-.38.67-.93 1.59-1.23 2.04-.6.89-.6.94-.11 1.89.12.23.13.31.04.28-.08-.03-.25-.27-.39-.55l-.25-.5-.35.53c-.25.39-.41.54-.57.54-.2 0-.12-.16.7-1.42 1.05-1.62 1.74-2.76 2.37-3.93.8-1.48 2.47-4.26 3.23-5.37.25-.37.58-.91.73-1.2s.67-1.16 1.17-1.93c1.16-1.79 2.14-3.68 2.77-5.33.59-1.54.67-2 .11-.62-1.02 2.53-3.53 7-3.92 7-.06 0 .05-.19.24-.42 1.16-1.43 3.39-6.15 4.57-9.68.95-2.84 1.3-7.49.71-9.6-.23-.86-.29-1.1-.3-1.43-.01-.11-.05-.15-.13-.11-.08.05-.09.02-.05-.1.1-.25-.03-.72-.14-.54-.06.09-.09.09-.09.01 0-.14-.76-2.15-1.2-3.17-.17-.38-.29-.71-.27-.73.06-.05.97 2.02.97 2.21 0 .09.05.16.11.16.05 0 .07.04.04.1s-.02.1.03.1c.11 0 .64 1.15.92 2 .54 1.68.64 2.5.63 5-.01 1.37.03 2.37.08 2.41.05.03.14.45.19.93.13 1.11 1.01 5.5 1.45 7.21.19.71.47 1.83.64 2.47.17.65.36 1.65.43 2.23.15 1.26.22 1.3.38.25.13-.84.09-1.11-.5-3.05-.47-1.57-1.78-7.7-1.67-7.81.02-.03.21.82.42 1.88.37 1.93.81 3.76 1.53 6.48l.39 1.45.13-.75c.07-.41.17-1 .21-1.3.07-.48.07-.45.04.25-.06 1.14-.22 2.45-.44 3.55-.52 2.57-.53 3.11-.02 1.27 1.22-4.41 1.2-8.1-.1-17.57-.95-6.97-2.98-13.36-5.53-17.43l-.61-.97-1.22-.62c-1.48-.74-1.46-.76-.68.42 4.18 6.33 6.08 11.75 7.29 20.75.38 2.79.63 6.51.44 6.39-.04-.03-.08-.36-.08-.73 0-1.14-.73-6.74-1.09-8.4-.23-1.04-.69-2.63-.79-2.73-.04-.04-.05.48-.04 1.15.02.67.02 1.2-.01 1.17s-.07-.72-.1-1.55c-.12-3.17-1.91-7.97-4.84-12.95-2.37-4.03-3.18-4.99-4.24-5.05-.2-.02-.41-.05-.45-.08-.05-.03-.32-.08-.59-.12s-.59-.09-.7-.12c-.11-.02-.04.05.15.17.84.52 2.1 1.97 3.23 3.7.95 1.48 3.77 6.83 3.77 7.16 0 .08.05.14.11.14.05 0 .08.04.05.09-.04.05.1.57.3 1.16s.33 1.16.31 1.26c-.03.11-.02.19.03.19.04 0 .22.47.41 1.05.21.67.36 1 .42.92.05-.07.06.02.03.23q-.06.345.03.21c.28-.44.33 2.41.07 4.08-.34 2.2-1.28 5.9-2.1 8.26-.24.71-.77 2.22-1.16 3.35-.39 1.12-.68 2.11-.65 2.18.03.08-.01.24-.08.36-.35.56-1.09 2.54-1 2.68.03.05-.02.17-.09.26-.08.09-.33.51-.55.92-.58 1.1-.67 1.24-.8 1.33-.06.04-.51.62-.99 1.3-1.47 2.05-8.13 8.97-8.64 8.97-.19 0-.17-.06.24-.51.37-.42.43-.53.33-.64-.08-.07-.24-.26-.38-.41-.46-.54-.56-.58-.86-.4l-.28.17.28-.26.29-.25-.73-.75c-.85-.88-.83-.87-1.07-.33l-.18.42.26.52c.15.28.37.67.5.85.22.31.22.32.03.16-.12-.1-.34-.43-.5-.73-.35-.67-.37-.67-.63.04-.67 1.83-.84 2.21-.93 2.12-.07-.07 1.22-3.38 1.85-4.75 1.01-2.21 1.13-1.83-1.06-3.47-1.58-1.19-1.61-1.21-1.64-.93-.03.21.06.37.35.68.37.4.38.4.06.18-.18-.12-.33-.28-.33-.34 0-.07-.04-.06-.1.03-.21.32-.05 4.54.23 6.36l.13.79.42-1.07c.36-.9.89-2.79 1.05-3.68.03-.19.05-.17.05.1.02.55-.34 2.02-.84 3.44-.25.72-.55 1.61-.67 1.98-.31.96-.73 1.03-.63.1.13-1.12.03-3.72-.14-3.72-.04 0-.1.26-.12.58-.08.78-.71 3.72-.8 3.72-.11 0-.09-.33.06-1.09.17-.92.05-1.82-.39-2.88-.69-1.66-.7-1.71-.57-3.28.07-.77.16-1.54.21-1.7.07-.21.08-.03.03.55-.17 2.1-.1 2.98.3 3.85.2.44.45 1.09.55 1.44l.17.65.08-.35c.33-1.6.49-4.83.28-5.72a6 6 0 0 1-.12-.92l-.03-.5-.7-.42c-.5-.31-.71-.39-.76-.3-.08.14-.45 2.7-.54 3.77-.04.41-.13 1.31-.21 2s-.18 2.07-.21 3.08l-.06 1.82H16c-.23 0-.29-.05-.34-.32-.03-.18-.47-1.21-.97-2.28-1.86-4-2.38-5.62-2.39-7.37 0-.57-.28-.79-.7-.55l-.28.16.46.91.47.9-.03 1.6c-.01.88-.04 1.87-.05 2.2s.02.69.07.8c.07.16.07.18-.05.08-.25-.24-.32-.14-.26.4.03.28.08.61.12.72.03.11-.01.08-.1-.07-.08-.16-.18-.28-.2-.28-.05 0-.35.68-.35.8 0 .11.67.33.78.26.1-.06.44.32.38.43-.03.04.08.12.25.18.17.07.29.07.29.02s-.06-.12-.14-.15c-.07-.03-.11-.14-.09-.27.03-.13-.1-.58-.27-1.01s-.29-.8-.27-.83c.06-.05.46.89.64 1.5.11.39.21.51.46.62.47.2.46.04-.09-1.16-.42-.94-1.04-2.61-1.04-2.81 0-.29.19.02.34.55.1.34.39 1.14.65 1.77.27.63.58 1.43.71 1.78.17.48.31.69.61.9.97.68.39.69-.94.01-2.07-1.06-5.01-2.18-5.72-2.18-.94-.01-1.6.65-2.21 2.21-.19.47-.44.65-.44.31 0-.25.54-1.37 1.01-2.09.29-.45.99-2.15.99-2.41 0-.01-.37.11-.82.29-.46.17-1.19.42-1.63.56-.95.3-.97.31-1.31.89l-.27.46.23 1.19c.12.65.2 1.21.17 1.24-.05.05-.25-.8-.44-1.85l-.08-.44-.31.49c-.66 1.06-1.37 1.84-1.66 1.84H.91l.26-.27c1.52-1.63 5.91-8.96 7.47-12.5 1.65-3.72 3.2-9.98 3.4-13.73.04-.63.11-1.76.16-2.5l.2-2.94c.46-6.84 2.34-13.49 4.64-16.41.17-.21.24-.36.16-.33-1.05.41-.98.35-1.46 1.34-.25.52-.48.94-.5.94-.06 0 .23-.67.55-1.27.16-.29.27-.53.24-.53-.45 0-1.23.46-1.37.8-.3.76-.92 3.52-1.41 6.33-.14.78-.34 1.92-.44 2.53-.32 1.8-.68 4.79-.96 7.94-.39 4.5-.44 4.94-.76 6.45-.34 1.61-.77 3.23-.9 3.45-.11.16-.12.22.16-.87.45-1.78.88-4.43 1.05-6.38.05-.61.19-2.2.3-3.55.48-5.72 1.83-13.87 2.67-16.08.07-.17-1.27.45-2.28 1.05l-.8.47-.39 1.26c-.53 1.66-.82 2.99-1.24 5.55-.63 3.83-.73 5.26-.87 12.3-.06 2.91-.13 5.71-.17 6.2-.12 1.54-.05-9.98.07-12.1.19-3.32.65-6.75 1.26-9.54.32-1.43.27-1.5-.13-.18-.89 2.86-1.32 5.86-1.57 10.92-.59 11.92-1.39 16.77-3.87 23.55C3.26 46.18-.04 52.23 0 51.13Zm32.28-2.03c1.32-1.34 1.46-1.58 1.78-3.05.24-1.12.37-1.35.77-1.35.17 0 .19-.05.14-.46-.06-.57-.11-.62-.66-.66l-.45-.03-.63 1.05c-.35.58-.9 1.31-1.23 1.65l-.6.6-.26 1.15c-.33 1.43-.43 1.97-.43 2.34l-.01.29.23-.19c.12-.1.73-.7 1.35-1.34Zm-16.82-.58c-1.16-3.49-1.93-6.42-2.17-8.2-.14-1.08-.4-1.29-.46-.38-.02.27-.11.61-.2.76-.51.87.29 3.67 2.13 7.46.45.94.86 1.84.91 2 .08.28.08.27.11-.14.02-.29-.08-.78-.32-1.5Zm10.2.63.75-.76-.93-1.02c-1.61-1.75-2.37-2.52-2.38-2.39 0 .07.35.5.78.95 1.07 1.13 1.84 1.97 2.06 2.27.1.14-.51-.46-1.37-1.34l-1.55-1.58-.41.88c-.5 1.06-.61.76.88 2.39 1.47 1.59 1.23 1.53 2.17.6Zm-9.55-2.25c.11-1.02.25-2.2.29-2.64.09-.83.01-1.96-.26-3.31-.17-.89-.55-2.59-.59-2.63-.04-.05-2.2.98-2.2 1.05.04 1.08.46 2.96 1.15 5.07.37 1.16.78 2.49.9 2.96.34 1.36.43 1.66.46 1.5.02-.08.13-.98.25-2Zm-4.79 1.48c.5-1.63.47-2.31-.18-4.01-.19-.49-.34-.94-.33-1 0-.17.43.8.71 1.6.27.82.35.65.37-.77.01-1.15.01-1.15-1.12-1.14-1.2.02-1.3.08-1.55.91-.3 1-.31.94.33 2.85l.59 1.78.4.14c.6.21.61.21.78-.36Zm28.73-.51c.42-.7.42-.7 1.02-.52.32.1.47-2.58.17-3.07-.09-.15-1.16-.2-1.6-.08-.58.16-.67.07-.15-.16.47-.21.53-.5.26-1.38-.38-1.25-.11-4.67.75-9.46.46-2.54.46-2.45.1-1.72-.87 1.82-1.8 9.05-1.21 9.41.07.05-.06.2-.34.4-.55.4-.63.36-.36-.17.23-.46.21-.2.27-2.96l.05-2.2-.72 1c-.76 1.05-1.69 2.2-1.69 2.09 0-.03.28-.43.63-.88 1.64-2.14 1.8-2.4 1.91-3.17.08-.58 0-.49-.96 1.15-.68 1.15-1.76 2.65-2.52 3.5-.2.22-.36.47-.37.55 0 .08-.03.24-.05.35-.1.4-.16 2.14-.1 2.59.07.43.09.46.44.51.2.03.6.1.87.14.62.11.59.15.41-.56-.28-1.07-.47-4.03-.26-4.03.08 0 .16.92.12 1.4-.03.33.19 2.06.34 2.66l.17.65.73-.07.74-.07v.29c0 .16-.09 1.04-.21 1.97-.25 2.02-.24 2.11.35 2.26.25.06.48.16.51.22.12.19.29.03.7-.64Zm-30.25.41c-.01-.07-.22-.78-.49-1.57l-.47-1.45-.41 1.2c-.23.65-.44 1.26-.48 1.36-.05.13.02.17.36.23.24.04.59.13.79.21.45.16.7.17.7.02Zm-1.92-1.41c.23-.67.56-1.71.72-2.32.17-.6.33-1.16.35-1.22.05-.15-.04-.16-.22-.05-.07.04-.33.77-.57 1.62-.25.85-.59 1.95-.76 2.44-.35 1.06-.34.99-.12.85.1-.06.36-.63.6-1.32Zm21.83-1.74c1.91-2.08 3.37-4.1 4.59-6.37.36-.65 1.47-3.82 1.38-3.92-.03-.02-.49.49-1.04 1.14-3.65 4.31-5.25 5.09-8.31 4.07-1.89-.63-4.47-1.98-5.84-3.06-.75-.59-1.04-.33-.95.83l.08.86.86.06c1.44.12 1.67.24.35.18l-1.23-.05v2.51l1.58 1.17c1.88 1.41 2.12 1.62 2.12 1.9 0 .14.29.5.8.99.44.43.8.8.8.83 0 .02.39.47.86.98l.87.94.88-.81c.48-.44 1.47-1.45 2.2-2.25ZM7.33 46.31c.09-.09.59-1.72.54-1.78-.04-.03-1.69.15-2.05.23-.12.02-.28.17-.34.32-.07.15-.19.36-.28.47-.17.21-1.1 1.81-1.1 1.9 0 .07 3.12-1.03 3.23-1.14Zm27.84-.21c.98-1.14.97-1.12.26-1.04-.75.08-.82.17-1.03 1.13-.22 1.02-.18 1.01.77-.09Zm7.67-2.18c.34-1.01.83-2.97.92-3.59l.06-.5-.74.15-.74.16-.18 1.5c-.33 2.81.07 4.15.68 2.28Zm-35.73.53c.81-.09.83-.1.97-.64l.11-.44-.67.07c-.37.03-.77.06-.89.06-.16 0-.31.13-.48.41-.43.67-.43.73-.04.66.19-.03.64-.09 1-.12Zm34.76-1.09c-.04-.24 0-.97.08-1.62.2-1.58.2-1.54-.12-1.55-.21-.01-.23-.02-.08-.06.11-.03.23-.08.27-.12.08-.07-.13-2.09-.37-3.73-.24-1.55-.16-1.67.11-.18.25 1.41.39 2.36.49 3.32l.06.57.32-.06c.18-.03.5-.11.72-.17l.4-.12.03-.62c.02-.42-.01-.62-.09-.62s-.09-.04 0-.13c.08-.1.07-.4-.04-1.11-.16-1.09-.17-1.13-.81-3.42-.25-.88-.62-2.41-.83-3.4l-.38-1.79-.07.6c-.21 1.97-.3 2.57-.61 4.15-1.22 6.27-1.36 10-.37 9.75.32-.08.82-.52.83-.74 0-.1.03-.11.05-.04.06.14-.19.64-.4.82-.22.18.01.51.36.51.15 0 .3.05.33.1.13.21.17.08.12-.34Zm-34.19-.33c.43-.05.55-.1.62-.28.09-.25.46-2.41.54-3.25l.06-.55-.21.4c-.38.7-1.82 3.29-1.97 3.53-.17.25-.04.27.96.15Zm2.25-.35c.19-.15.78-1.98.72-2.25-.02-.1-.11-.36-.21-.58l-.18-.4-.06.6c-.04.33-.18 1.04-.33 1.57-.35 1.26-.34 1.36.06 1.06Zm1.76-.26c-.11-.32-.88-1.81-.89-1.71 0 .03-.13.49-.29 1.02l-.29.97h1.57zm5.1-1.52c.17-1.27.05-2.79-.23-3.08-.14-.14-.76.29-.67.46.06.11.22.96.38 1.91.3 1.89.35 1.96.52.71ZM9.8 39.4c.05-.58.16-1.52.24-2.1.09-.57.16-1.22.18-1.43.01-.21.06-.4.1-.43s.06.14.03.38c-.39 3.32-.25 3.55.35.58.24-1.21.65-4.58.57-4.67-.02-.01-.22.66-.46 1.5s-.63 2.17-.88 2.97c-.48 1.52-.48 1.56-.56 4.34l-.03 1.2.18-.65c.1-.35.22-1.11.28-1.69Zm39.89 1.65c-.05-.27-.18-1.08-.29-1.8-.12-.71-.35-1.68-.51-2.15-1.65-4.7-2.49-7.64-2.64-9.32-.02-.22-.06-.66-.09-.97s.07.16.23 1.03c.52 2.86.76 3.73 1.85 6.91.55 1.6.65 1.76.46.74-.06-.3-.17-1.15-.25-1.89s-.32-2.5-.54-3.9-.6-3.94-.85-5.65-.56-3.8-.68-4.65c-.13-.85-.23-1.76-.23-2.02 0-.25-.03-.44-.07-.41-.05.02-.08-.14-.08-.36 0-1.28-1.87-7.06-2.77-8.54-.45-.74-.49-.69-.19.24.13.41.45 1.57.7 2.59s.65 2.56.9 3.43c.5 1.74.6 2.37.76 4.67.06.85.22 2.63.36 3.95s.27 3.08.3 3.9c.14 5.16.92 9.4 2.21 12 .42.84 1.46 2.75 1.49 2.73.01-.02-.02-.25-.07-.53Zm-30.74-.32c-.04-.1-.1-.91-.13-1.81-.05-1.6-.05-1.63-.26-1.58-.12.03-.24.06-.29.06-.09 0 0 1.51.16 2.45.06.39.11.74.11.78.01.09.27.27.4.27.04 0 .05-.08.01-.17Zm-.92-1.25c-.06-1.38-.1-1.51-.36-1.33-.12.08-.32.15-.45.15-.22 0-.23.03-.18.4.03.22.09.57.12.78.04.33.11.42.47.6.23.11.42.21.43.21 0 .01-.01-.36-.03-.81Zm12.1.29c.97-.57 3.25-3.42 6.13-7.67 1.11-1.65 1.17-1.76 1.65-3.19.43-1.28.46-1.61.04-.49-.78 2.09-2.1 3.95-3.18 4.49l-.42.21.66-.68c.89-.93 1.18-1.33 1.78-2.42l.5-.93-.74.68c-1.27 1.18-1.8 1.36-.64.22 1.46-1.44 2.21-3.14 2.36-5.34.05-.78-.09-2.55-.23-2.76-.05-.09-1.14.5-1.14.62 0 .14.28.11.33-.03q.06-.15.06 0c.01.07-.06.15-.15.19-.13.05-.13.07-.02.14.09.06.06.09-.12.1-.23.01-.23.02.05.09.2.05.24.08.1.09-.15.01-.17.03-.07.1.09.06-.01.12-.34.2-.36.09-.44.15-.34.22.12.07.11.09-.05.09-.18.01-.17.02.05.16l.25.15-.27-.05c-.27-.06-.48.08-.26.17.07.03-.02.06-.21.06-.29.01-.32.03-.21.16.07.08.1.15.07.15s-.14.03-.24.06c-.15.05-.16.04-.03-.06s.13-.11 0-.07c-.08.02-.14.1-.12.17.02.08-.04.11-.18.07-.17-.04-.2-.02-.16.1.05.12.01.14-.15.1-.12-.03-.28 0-.36.09-.08.08-.18.12-.23.09-.04-.03-.23.01-.41.09-.19.07-.45.12-.58.1-.19-.03-.22-.01-.17.13.05.15.04.15-.09-.01-.08-.11-.15-.14-.15-.07s-.05.09-.13.04a.9.9 0 0 0-.32-.09c-.11-.01-.33-.06-.48-.12-.49-.21-1.02-.24-1.61-.12-.32.06-.6.09-.63.06-.22-.22 1.08-1.92 1.78-2.33.16-.1.29-.21.29-.26 0-.04-.04-.05-.1-.02-.23.14-.08-.04.16-.2.15-.1.23-.12.19-.04-.06.09-.03.1.11.05 1.05-.4 3.99-.49 3.99-.11 0 .17.74.05 1.26-.21.57-.29.55-.24.28-1.19l-.22-.73-.42-.07c-.8-.11-1.85.1-1.85.39 0 .19-.4.67-.51.61-.05-.04-.09-.01-.09.04 0 .14-.27.14-.32.01-.01-.05-.14 0-.28.1l-.25.2h.75c.41 0 .82-.04.9-.1.09-.05.17-.05.21.01s.21.06.5 0c.48-.11.61-.08.32.07-.1.06-.94.15-1.85.21-1.27.08-1.78.15-2.19.31-.6.24-1.62.97-1.53 1.11.03.05.01.09-.05.09s-.28.19-.5.43c-.57.6-.51.3.08-.4.61-.73 2.17-1.84 2.34-1.67.02.03.35-.07.72-.22s.74-.28.83-.29c.29-.03.5-.16.67-.42l.17-.25-.34.07c-1.21.27-3.66 1.24-4.56 1.81-.57.37-.67.41-.56.22.04-.07-.02-.04-.14.06-.12.11-.22.16-.22.13 0-.04-.19.07-.42.22-.55.38-.56.35-.17-.39.67-1.27 2.17-2.24 4.89-3.18l1.35-.47-.03-1.15c-.03-1.3-.23-2.4-.85-4.6l-.44-1.55-.06 1.35c-.19 4.49-2.26 7.82-5.18 8.35-.28.05-.48.2-.82.6-.86.98-2.14 1.81-3.5 2.25-.37.12-.67.23-.67.25s.05.16.1.3c.16.41-.03.65-.2.26-.15-.38-.35-.54-.25-.2.08.24.08.24-.14.05-.22-.2-.22-.2-.15 0 .07.19.07.19-.14 0-.15-.13-.22-.15-.22-.06 0 .1-.04.09-.17-.02a.64.64 0 0 0-.43-.12c-.8.09-1.63.03-2.35-.15-1.73-.46-2.32-.34-3.75.76-.36.28-.76.53-.88.57-.23.08-.31.49-.12.61.06.04.08.1.05.15-.12.19.16.49.53.6.5.14.63.11.27-.05-.18-.09-.23-.14-.13-.15.09 0 .2-.05.24-.12.04-.06.03-.09-.02-.05-.1.06-.8-.21-.72-.28.03-.03.18-.01.34.04s.42.12.57.15l.28.07-.33-.31c-.21-.2-.25-.27-.1-.18.23.13 1.6-.48 1.55-.69-.01-.04.13-.09.3-.1s.35-.07.41-.13c.05-.05.27-.1.48-.1s.38-.04.38-.1-.11-.1-.25-.1-.25-.04-.25-.1.24-.08.6-.05c.33.03.86.07 1.18.1.78.06 1.51.3 1.87.6l.3.26-.4-.19c-.22-.11-.76-.27-1.2-.37-.44-.09-.86-.2-.95-.23s-.07.02.05.11c.19.16.18.16-.27.17-.27 0-.48.04-.48.1s.24.1.53.1c.28 0 .77.07 1.07.16 1.01.28.98.28.7.04l-.25-.21.45.22c.66.32 1.2.68 1.2.79 0 .06-.23-.05-.51-.25-.61-.42-.89-.47-.33-.07.44.33 1.14 1.07 1.14 1.22 0 .19-.19.1-.66-.31-.48-.41-.63-.4-.64.04 0 .11-.09.32-.2.47l-.21.29.45-.15c.46-.16 1.13-.16.71 0-.11.04-.5.19-.87.33-.38.13-.72.32-.78.41-.05.1-.1.12-.1.05 0-.14-.31-.06-.42.11-.05.07-.08.06-.08-.03 0-.11-.05-.1-.2.04-.11.1-.2.13-.2.07 0-.14-.22-.12-.32.03-.05.06-.08.05-.08-.04 0-.11-.03-.11-.15-.01s-.15.1-.15 0c0-.09-.07-.07-.22.06-.18.16-.2.16-.15.03.05-.14-.02-.17-.39-.15-.24.01-.44-.01-.44-.04 0-.09-.54-.05-.71.05-.12.08-.12.06 0-.08.2-.25.07-.31-.29-.13-.28.14-.31.14-.26 0 .05-.12.01-.14-.16-.08-.21.06-.22.05-.09-.1.14-.16.12-.17-.25-.11-.35.06-.37.05-.21-.08.24-.2.21-.27-.1-.27-.55 0-.83-.14-.43-.2l.35-.05-.43-.17-.43-.17.06.22c.22.76 2.35 5.71 2.55 5.91.04.04.39.01.76-.08.76-.17 1.1-.07 1.21.35.06.23.04.23.83-.02 1.12-.35 1.3-.15 1.3 1.45 0 1.15-.03 1.21-.75 1.51l-.4.16.3.25c1.19.98 3.39 2.1 5.95 3.01 1.28.46 2.65.45 3.43 0ZM0 39.81c0-.15.22-.47.64-.91 1.89-2.01 4.05-5.58 5.01-8.3 1.14-3.21 1.2-2.87.09.5-.62 1.88-1.99 4.4-3.4 6.24-.88 1.15-.92 1.22-.74 1.11.09-.05.12-.05.07.01-.05.05-.12.09-.15.09-.04.01-.4.34-.79.75-.62.64-.73.72-.73.51Zm11.9-1.04c0-.42.06-.8.16-.98.18-.36.09-.33-.87.32-.72.49-.81.95-.33 1.8.02.04.26-.05.54-.2l.5-.26zm1.41.05c.63-.41 1.58-1.25 2.04-1.8.27-.33.63-.67.78-.77.27-.16.33-.45.12-.52-.06-.02-.84.71-1.75 1.62-1.54 1.54-1.83 1.9-1.19 1.47Zm23.68-1.67c2.42-3.53 4.25-8.6 4.11-11.4-.01-.22-.04-.31-.07-.2-.02.11-.2.92-.4 1.8-.73 3.35-2.14 6.88-3.75 9.4-.35.55-.79 1.27-.97 1.6l-.33.6.36-.4c.2-.22.67-.85 1.05-1.4Zm-21.54-1.33c-.01-.01-.45.17-.98.42-.93.43-1.23.69-1.3 1.11a.7.7 0 0 1-.09.3c-.03.06-.09.28-.13.5-.07.4-.06.39 1.23-.95.71-.74 1.29-1.36 1.27-1.38Zm-3.92 1.63c.39-.26.44-.45.27-.9-.09-.24-.12-.25-.27-.14-.15.13-.15.12-.02-.09.08-.12.22-.25.31-.28.1-.03.18-.11.18-.19 0-.07.11-.22.24-.32l.23-.19-.08-1.49c-.05-.83-.13-2.05-.19-2.73-.05-.68-.1-1.73-.1-2.34s-.02-1.09-.04-1.07c-.09.09-.36 2.64-.51 4.74-.09 1.21-.22 2.58-.29 3.05-.08.47-.1.86-.05.88s.09.08.09.13c0 .06-.04.08-.1.04-.05-.03-.14.14-.2.37-.06.24-.15.58-.2.76-.09.33-.09.33.13.18.12-.09.39-.27.6-.41Zm-4.3.1c.75-2.64 1.04-4.59 1.08-7.25l.02-1.05.08 1.25c.09 1.39-.01 2.64-.32 4.13-.11.55-.18 1.01-.16 1.03.11.11.88-2.58 1.18-4.11.39-2.03.51-2.06.15-.03-.32 1.84-.63 2.89-1.37 4.68-.57 1.36-.79 1.82-.66 1.35Zm-7.2-1.93c.02-.2.55-1.52 1.16-2.92 1.89-4.32 2.56-6.28 3.06-8.9q1.305-6.885 1.53-6.66c.02.03-.05.44-.17.93-.11.48-.45 2.27-.75 3.98-.75 4.23-1.05 5.22-3.01 9.99C.47 35.43-.09 36.51.03 35.62Zm19.98.17c.86-.29.84-.27.98-1.25.15-1.07.17-1.05-.82-.7-1.13.39-2.02.82-1.89.9.06.03.13.02.17-.04.12-.2.22-.1.2.21-.02.25.03.33.24.4.19.08.22.12.12.18-.1.07-.11.13-.02.3.14.26.22.26 1.02 0Zm-5.16-.21c.25-.12.47-.29.5-.37.06-.17.79-.71.95-.71.05 0 .07.07.04.15-.08.21-.06.2.77-.26.57-.32.85-.42 1.24-.43.69-.02 1.09-.44.6-.63-.33-.12-2.82.78-2.7.98.03.04-.03.07-.12.07-.33-.02-1.95.83-1.89.99a1 1 0 0 1 .06.29c0 .18.01.18.55-.08Zm10.42-.29c-.52-.12-.87-.32-1.21-.68-.17-.17-.35-.31-.42-.31-.27 0-.32-.61-.07-.81.15-.13.16-.11.1.13-.06.21-.03.3.12.38.32.16.49.12 1.55-.37.96-.45 1.06-.47 1.92-.49.5-.01 1.14-.07 1.43-.15.46-.11.63-.11 1.36.04 1.49.31 2.57.03 2.03-.51-.09-.09-.09-.12.03-.12.45 0 .49.4.09.83-.17.18-.52.59-.79.93-.62.77-.97.94-1.93.94-.4 0-1.14.07-1.63.15-.99.16-2 .18-2.58.04ZM13.65 35c.3-.12.31-.19.05-.93-.3-.84-.46-1.61-.74-3.53-.49-3.25-.66-2.45-.31 1.35.08.85.15 1.8.15 2.12 0 1.21.07 1.29.85.99Zm13.89.05c.55-.08 1.32-.15 1.73-.15.83 0 1.26-.15 1.63-.55l.25-.27-1.4.06c-.77.03-1.8.1-2.3.15-.49.06-1.4.13-2.02.17-1.15.07-1.24.12-.72.4.68.35 1.45.4 2.83.19Zm-12.41-.71c.39-.2.74-.38.76-.4s-.26-.5-.64-1.05c-.37-.56-.92-1.4-1.22-1.87-.65-1.04-.65-.98-.07.65.56 1.58.63 1.85.26 1.08-.28-.59-.78-2.04-1.02-2.98-.24-.9-.21-.39.05 1.15.36 2.1.83 3.78 1.06 3.78.05 0 .42-.16.82-.36Zm12.72-.35c.49-.05 1.47-.12 2.17-.16 1.58-.07 1.84-.23.7-.43-1.62-.29-4.07-.08-5.17.44l-.8.37 1.1-.06c.61-.03 1.51-.1 2-.16Zm-11.31-.27c.05-.08-.41-.84-1.08-1.77l-.28-.4.37.4c.2.22.55.66.76.98.26.37.47.57.59.57.3 0 .27-.07-.73-1.3-1.31-1.63-2.2-2.86-2.78-3.82-.47-.79-.65-1.24-.34-.82.17.22.19.07.05-.32-.15-.38-.5-1.98-.59-2.69-.08-.55-.08-.52-.09.45-.02 2.34.55 3.81 2.76 7.17.99 1.5 1.23 1.76 1.36 1.55Zm-.24-2.22c-.16-.32-.43-.74-.59-.92-.99-1.13-2-3.2-2.65-5.4-.38-1.28-.35-.26.04 1.28.42 1.71.95 2.69 2.3 4.32 1.25 1.49 1.32 1.56.9.72Zm10.7.24c-.19-.08-.62-.21-.94-.27-.34-.07-.61-.18-.64-.26-.07-.2.91-.08 1.53.19.76.33 1.16.27 1.62-.22.21-.22.46-.49.55-.6.18-.18.48-.25.48-.1 0 .12-1.03 1.17-1.27 1.3-.3.16-.91.14-1.33-.04Zm18.77-2.06c-.18-5.67-1.31-12.65-2.98-18.43-.66-2.28-2.27-6.06-2.75-6.46-.23-.19-1.51-.99-1.59-.99-.03 0 .17.34.45.75 3.21 4.76 5.11 11.39 6.35 22.2.42 3.62.45 3.88.45 4.48 0 .31.03.57.07.57.03 0 .03-.96 0-2.12Zm-30.57-.61c-.41-1.15-1.8-4.7-1.9-4.82-.04-.05-.12-.23-.19-.4-.3-.79.03.84.4 2.02.49 1.53.82 2.29 1.45 3.28.58.94.6.94.24-.08Zm5.7-1.55c.56-.28.69-1.02.17-1.02-.13 0-.33.11-.45.25-.31.35-.68.33-.9-.05-.18-.32-.8-.45-.84-.17 0 .06-.02.19-.03.27-.07.65 1.26 1.12 2.05.72ZM2.58 26.2c.26-.42 1.21-4.34 1.08-4.47-.03-.04-1.34 4.02-1.42 4.45-.07.37.11.38.34.02Zm.07-2.5c.2-.69.41-1.38.46-1.53.06-.21.04-.37-.07-.59-.08-.16-.13-.32-.11-.35.03-.02.08.05.12.16.12.38.22.22.5-.81.15-.57.49-1.77.76-2.68.5-1.69.59-2.17.36-2.04-.09.06-.09.04.01-.07.06-.07.12-.18.12-.24 0-.05-.04-.04-.09.04-.07.11-.13.12-.23.03-.14-.11-1.58 4.52-1.62 5.17 0 .14-.04.29-.09.32-.09.06-.72 2.57-.83 3.27-.06.42.1.83.26.65.04-.04.24-.64.45-1.33Zm-1 .58c.04-.18.22-.96.4-1.73.48-2.06.48-2.04.34-2.21-.06-.08-.09-.17-.05-.21.03-.03.06-.01.06.05 0 .23.28 0 .33-.26.02-.15.14-.62.26-1.06.12-.43.19-.88.16-1-.05-.16-.04-.18.04-.06s.12.09.2-.13c.14-.36.14-.4-.01-.31-.07.04-.06-.01.03-.12.3-.37.72-2.2.44-1.92-.22.21-2.14 6.4-2.18 6.98 0 .14-.04.27-.07.3-.23.18-.46 1.7-.28 1.88.19.19.26.14.33-.2Zm31.67.11c.38-.1.58-.35.71-.9.09-.34-.45-.29-.85.09-.33.31-.67.21-.97-.28-.14-.24-.2-.28-.24-.15-.04.08-.12.14-.19.13-.2-.05-.21.42-.01.64.46.53.89.66 1.55.47ZM6.37 22.01c.95-2.51 2.15-7.47 1.88-7.79-.22-.26-2.69 8.56-2.65 9.46.01.16.35-.58.77-1.67Zm19.18.84c1.3-.72 2.14-1.76 3.12-3.84.49-1.02 1.13-2.75 1.13-3.03 0-.05-.32.3-.71.79-.4.48-.98 1.15-1.29 1.48-.36.38-.63.78-.74 1.1-.32.89-.94 2.08-1.39 2.7-.25.33-.44.62-.42.65.02.04-.27.23-.66.44-.38.21-.69.39-.69.42 0 .07 1.05-.37 1.65-.71Zm-12.45-.38c.01-4.35.58-9.16 1.42-11.87.89-2.89 1.34-4.26 1.69-5.19.48-1.26.45-1.38-.09-.34-2.1 4.07-3.67 11.61-3.5 16.8.06 1.79.48 2.31.48.6Zm1.12.93c.93-.26 2.96-2.14 3.57-3.3.19-.36 1.04-1.87 1.89-3.35 2.07-3.61 2.45-4.3 3.47-6.38.48-.98.89-1.76.91-1.74.12.12-2.08 4.63-3.1 6.34-2.16 3.67-3.21 5.58-2.92 5.33.34-.27 1.65-2.37 2.51-4 .48-.91 1.2-2.23 1.6-2.95 2.8-5.03 4.18-8.88 4.11-11.52-.03-1.12.06-1.03-.93-.96l-.83.06-.68 1.06c-1.7 2.62-3.03 5.2-1.68 3.26.3-.45.71-.99.91-1.2.24-.27.15-.09-.29.55-1.06 1.57-1.34 2.11-2.15 4.23-.43 1.11-1.06 2.73-1.39 3.59-.34.87-.89 2.17-1.22 2.9-.34.72-.82 1.79-1.06 2.37-.25.58-.84 1.82-1.31 2.76-.98 1.94-.9 1.94.53.02 1.55-2.06 2.11-3.12 2.69-5.03.72-2.41 1.22-3.7 2.19-5.68.57-1.16 1.42-3.01 1.89-4.11s1.01-2.28 1.21-2.63c.37-.66 1.16-1.82 1.23-1.82.05 0 .08-.05-.7 1.25-.36.61-1.12 2.16-1.7 3.45-.57 1.29-1.37 3.03-1.77 3.85-.97 2.03-1.18 2.58-1.85 4.9-.87 2.99-1.16 3.58-3.02 6.14-.26.35-.4.6-.3.55.19-.11.92-.95 1.38-1.6.37-.5.46-.57.25-.16-.43.81-1.54 1.99-2.52 2.67-1.81 1.26-1.95 1.43-.92 1.15Zm8.36-.22c2.44-1.67 4-5.07 4.22-9.18.08-1.63.01-2.07-.2-1.19-.07.29-.23.79-.36 1.13-.38.94-.28.94.12-.01.2-.45.24-.51.2-.23-.17.96-2.43 4.52-4.01 6.3-.22.25-.27.34-.12.21.15-.14.29-.22.32-.19.08.07-1.54 1.49-2.59 2.27l-.89.66.59.07c.91.12 1.86-.16 2.87-.82l.32-.22-.3.27c-.35.3-1.03.67-1.6.85l-.4.13.4.13c.65.2.93.16 1.43-.18Zm1.17-.07c1.13-.65 2.38-2.2 2.9-3.6.23-.6.44-.92 1.12-1.7 1.77-2.02 2.76-3.54 3.38-5.19.39-1.06.42-.81.07.65-.17.7-.38 1.68-.48 2.18-.28 1.55-1.05 3.51-1.85 4.73-.3.45-.09.4.38-.1 1.28-1.4 1.93-3.03 2.27-5.68.18-1.41.31-6.29.15-5.6-.3 1.24-.95 3.45-1.26 4.24-.19.48-.32.91-.29.93.17.17-.89 1.72-2.14 3.14-.71.8-1.19 1.49-2.05 2.96-.8 1.35-1.58 2.24-2.71 3.1-.43.32-.08.28.51-.06Zm-7.65-.02c1.03-.62 2.84-2.8 3.85-4.64.21-.38.95-1.58 1.66-2.66.7-1.07 1.64-2.67 2.09-3.55.87-1.7 1.89-3.54 1.96-3.54.03 0-.21.46-.51 1.03-.31.56-.89 1.68-1.3 2.48a47 47 0 0 1-1.56 2.8c-.45.74-1.22 2.02-1.7 2.84-1.19 2.05-1.82 3.03-2.36 3.64-.66.76-.47.72.29-.07 1.42-1.44 2.5-3.14 3.62-5.7.15-.35.3-.62.32-.59.03.02-.11.4-.29.83-.92 2.13-1.9 3.76-3.17 5.22-.39.45-.68.82-.64.82.17 0 1.47-.75 1.83-1.07.23-.19.41-.32.41-.29s.28-.09.61-.26c2.5-1.31 5.69-10.69 5.34-15.66l-.08-1.07-.17.75c-.49 2.19-2.17 6.09-4 9.3-.4.69-.99 1.79-1.33 2.45-1.68 3.33-2.65 4.59-5.07 6.67-.6.51-.48.68.2.27Zm3-.51c.86-.54 1.64-1.2 2.11-1.79l.33-.41-.9.58c-1.13.73-1.68 1.03-2.74 1.49-1.27.55-1.34.68-.35.63.76-.03.85-.06 1.55-.5Zm-5.05-.26c.03-.15.27-.85.52-1.56l.47-1.29-.12-.82c-.07-.44-.12-1.03-.12-1.31 0-.76-.16-.86-.24-.14-.09.81-.62 3.46-.87 4.35-.1.38-.19.87-.19 1.09v.39l.24-.22c.13-.13.27-.35.31-.49Zm25.03-1.39c-.06-.37-.26-.89-.54-1.42-.25-.46-.43-.85-.41-.88.07-.07.95 1.38 1.02 1.7.09.36.23.44.18.09-.03-.23-.02-.24.06-.07s.09.15.13-.15c.05-.34.05-.34.06.07.03.57.22.67.22.11 0-1.63-.69-3.94-2.08-6.98-.11-.25-.35-.8-.52-1.23-.4-.98-.44-.94-.25.24.24 1.51.3 2.88.15 4l-.13 1 .34.71c.19.39.44.82.57.97.22.26.61 1.03.98 1.93.25.64.33.6.22-.09ZM15.8 19.39c1.51-2.94 3.98-8.96 4.98-12.14.59-1.86 1.84-4.22 3.2-6.02.28-.38.31-.38-.97-.18-1.89.28-2.41.45-2.66.85-1.11 1.75-1.68 3.68-2 6.65-.04.33-.17 1.25-.31 2.04-.13.79-.23 1.46-.21 1.48.04.03.78-2.75.92-3.45.04-.18.09-.32.11-.29.05.04-.47 2.52-.77 3.71-.31 1.23-1.3 3.96-2.19 6.06-1.17 2.75-1.23 3.48-.1 1.29Zm29.3-.51c-.15-2.32-.24-2.92-.71-4.65-.22-.81-.6-2.29-.85-3.28-.85-3.45-1.25-4.38-2.19-5.16-.65-.53-.64-.52.09 1.02.8 1.67 1.51 3.74 2.15 6.34.51 2.07.66 2.76 1.22 5.77.18.98.34 1.76.37 1.74.02-.02-.02-.82-.08-1.78Zm-31.11-.08c.11-.58.27-1.68.36-2.45s.3-2.44.46-3.72c.33-2.64.33-2.62.14-2.08-.28.78-.55 2.05-.75 3.51-.11.82-.23 1.65-.28 1.84s-.08.64-.06 1c.02.5.01.56-.04.25-.05-.24-.07.13-.07.95 0 .74-.03 1.58-.07 1.85-.12.83.09.05.31-1.15Zm16.12 1.09c2.71-1.74 3.92-6.78 2.69-11.19-.12-.41-.36-1.38-.55-2.15-.18-.77-.41-1.58-.49-1.8l-.16-.4.06.39c.06.45.24 3.41.31 5.21.16 4.18-.63 7.99-2 9.67-.54.66-.52.7.14.27Zm-14.52-2.07c.1-.36.42-2.01 1.16-6.02.82-4.46 1.79-7.47 3.06-9.53.4-.65.38-.66-.94-.23-1.41.45-1.48.54-2.31 2.98-1.16 3.42-1.5 5.77-1.51 10.43 0 3.59.1 4.03.54 2.37Zm11.63-1.84c.23-.92.43-1.66.45-1.64.04.04-.23 1.63-.41 2.36-.23.95-.21.97.35.33.99-1.11 2.07-3.01 2.28-4.01.53-2.49-.78-8.59-2.35-10.97-.35-.54-.94-1.18-1.01-1.11-.1.09.31 1.78.77 3.21 1.09 3.36 1.42 4.81 1.39 6.1-.02.49-.02.48-.11-.2-.25-1.88-1-4.87-1.35-5.42-.05-.06-.08 2.12-.08 4.85 0 5.93-.03 6.22-.89 9.17-.04.11.07-.07.23-.4.17-.33.49-1.35.73-2.27Zm8.42 1.37c0-1.1-.17-2.24-.54-3.65-.1-.41-.17-.76-.15-.78.04-.05.37 1.06.58 1.98l.15.65-.05-.9c-.06-.99-.35-2.14-.82-3.25-.17-.4-.31-.75-.31-.79.01-.12.64 1.14.86 1.74l.23.6v-.4c0-.22-.1-.78-.23-1.25-.82-3.04-1.01-3.64-1.36-4.38-.63-1.33-2.38-3.86-2.07-2.99.13.34-.03.16-.28-.33-.14-.27-.28-.5-.3-.5-.03 0 .1.3.29.68.44.87 1.07 2.67 1.46 4.13.16.64.39 1.43.51 1.75.11.33.22.75.25.94s.21.94.4 1.65c.67 2.54.85 3.42.96 4.83.1 1.19.15 1.42.28 1.4.12-.03.15-.22.14-1.13Zm-11.62-.03c1.87-2.54 2.9-5.85 2.86-9.17-.01-.72-.03-1.12-.05-.9-.2 2.25-1.76 7.45-2.93 9.78-.33.64-.58 1.17-.56 1.17s.33-.39.68-.88Zm18.08-.24c-.92-3.99-2.02-6.71-4.41-10.88-1.72-3.02-2.25-3.81-2.69-4.02-.85-.4-.87-.35-.18.53 2.9 3.74 5.29 8.46 6.84 13.51.62 2.03.79 2.35.44.86Zm-5.86.61c.01-.08.14-.33.29-.57.65-1.02.53-4.97-.22-6.93-.53-1.4-3.29-5.78-4.13-6.55-.31-.28-.31-.28.04.16 1.54 1.96 2.4 3.91 3.3 7.5.23.91.48 3.79.48 5.49 0 1.1.13 1.57.24.9ZM17.01 13.9c.58-1.92.79-2.92 1.14-5.3.38-2.66.38-2.65 0-1.51-.37 1.12-.68 2.48-1.4 6.26-.26 1.32-.48 2.51-.51 2.65-.12.6.3-.55.77-2.1ZM5.65 14c.39-.98.47-1.59.36-2.84-.07-.67-.12-1.45-.14-1.75l-.02-.54-.32.8c-.22.52-.34.98-.35 1.34l-.01.54-.06-.45-.06-.45-.28 1c-.16.55-.36 1.23-.44 1.52-.08.31-.11.62-.07.75s.09.3.1.38.07.3.13.49.08.38.04.44c-.03.06-.02.07.04.04.05-.03.2.08.33.25l.23.32.19-.75c.11-.4.26-.9.33-1.09Zm32.96-.31c-.73-2.12-1.89-4.46-4.03-8.11-1.3-2.23-3.08-4.18-3.8-4.18-.06 0 .29.42.78.93 2.02 2.09 4.79 6.52 6.19 9.87.54 1.3 1.18 2.7 1.22 2.67.02-.02-.14-.55-.36-1.18Zm-8.17-3.84c-.03-.82-.12-1.92-.2-2.44s-.13-.96-.1-.98c.05-.06.43 2.02.57 3.15.07.51.13.91.15.9.11-.11.44-1.77.44-2.22 0-1.56-1.17-5.25-1.91-6.01-.12-.12-.12-.25 0-.25.29 0 1.59 2.99 1.92 4.4.2.87.22.72.09-.6-.2-1.94-.28-2.12-1.61-3.64-1.15-1.31-1.27-1.33-.68-.08.51 1.04 1.24 3.12 1.34 3.77.03.22-.17-.27-.44-1.08C28.92 1.56 28.48.91 27.38.9h-.28l.4.53c1.54 2.01 2.67 5.57 2.77 8.72.05 1.34.09 1.8.15 1.55.05-.19.06-1.02.02-1.85ZM10.5 4.55c1.23-1.73 3.75-3.2 7.44-4.34 1.3-.4 1.1-.21-.29.28-2.57.89-3.52 1.35-4.27 2.06-.54.5-.65.49-.16-.02.18-.18.27-.33.21-.33-.25 0-1.44.98-2.36 1.93-.91.94-.96.97-.57.42Z"/></svg>