<svg xmlns="http://www.w3.org/2000/svg" width="51" height="51" viewBox="0 0 51 51"><path fill="#fff" fill-rule="evenodd" stroke="#fff" stroke-width=".263" d="M5.75 50.96C2.26 49.82.5 47.07.5 42.75c0-1.39-.04-2.05-.12-2.13s-.08-.15.02-.27c.1-.13.12-.65.06-2.58C.32 32.58.38 6.55.55 5.85 1.11 3.41 3.18 1.11 5.52.29L6.35 0h18.96c18.66 0 18.97 0 19.75.2 2.39.61 4.62 2.34 5.67 4.39l.47.92-.01 16.42c-.01 20.93-.05 23.12-.44 24.25-.77 2.28-2.52 4.07-4.7 4.82-.57.2-.8.2-20.09.2l-19.51-.01zm39.35-.1c2.75-.59 4.81-2.64 5.46-5.42.41-1.79.64-38.44.24-39.74-.75-2.48-3.44-4.68-6.39-5.24C43.67.32 41.66.3 26.35.3H9.13l-.06.92c-.03.51-.04.94-.02.97.03.02 7.96.03 17.64.02 12.21-.01 17.81.02 18.28.09 1.85.3 3.35 1.72 3.9 3.71.25.91.24 30.39-.01 31.6-.41 1.96-1.74 3.45-3.52 3.95-.7.2-35.22.22-37.03.03-2.67-.29-5.38 1.46-5.59 3.62-.09.9.05 1.1.34.5.55-1.09 1.71-1.96 3.09-2.31.91-.23 5.84-.37 5.86-.16 0 .06 0 1.11-.01 2.34-.01 1.6.02 2.22.1 2.22.06 0 .7-.41 1.41-.91.72-.49 1.33-.89 1.37-.87s.62.4 1.29.86c.67.45 1.25.82 1.28.82.02 0 .06-.98.07-2.17l.03-2.18h3.6c1.98 0 7.29.06 11.8.14 9.06.15 11.47.13 12.4-.13 1.99-.55 3.58-1.81 4.7-3.72.21-.35.41-.61.46-.58.13.08.11.21-.05.36-.1.11-.15.64-.19 2.18-.11 4.09-1.51 6.32-4.69 7.48l-.73.27h-19c-18.21 0-19.03-.01-19.7-.19-2.92-.77-4.33-2.86-3.35-4.94.77-1.63 2.61-2.8 4.46-2.84l.77-.02-.08-18.95C7.91 11.98 7.87 3.38 7.87 3.3s.03-.79.07-1.57L8.02.3h-.54C4.49.3.8 3.76.8 6.57c0 .03.33-.26.74-.65 1.3-1.23 2.93-1.81 4.68-1.67 1.16.09 1.33.16 1.33.51v.29l-1.1-.03c-2.04-.07-3.19.33-4.46 1.55-.62.59-.82.73-.98.68C.8 7.19.8 7.21.8 10.2v3.01l.49-.5c1.2-1.23 2.52-1.77 4.31-1.75 1.3.02 1.94.17 1.98.49.05.43-.1.49-.87.37-.38-.07-.94-.12-1.24-.12h-.54l-.06 1.07c-.04.58-.07 1.85-.07 2.8v1.75l.48-.07c.6-.08 2.12.12 2.31.3.37.36.05.67-.62.58-.61-.08-2.04-.09-2.11-.02-.02.02-.06 1.31-.08 2.86l-.03 2.82.42-.06c.45-.06 1.97.13 2.26.29.35.18.18.63-.23.61-1-.06-2.39-.07-2.44-.03-.03.03-.06 1.38-.07 3l-.01 2.94.83-.02c1.4-.04 2.04.15 2.04.58 0 .29-.03.35-.2.33-.11-.01-.52-.06-.9-.11a9 9 0 0 0-1.27-.04l-.58.04v1.27c0 .7-.03 2.16-.07 3.24l-.06 1.95.79-.05c1.48-.1 2.54.19 2.4.65-.07.19-.13.2-1.39.15-2.04-.07-3.11.33-4.43 1.65-.47.48-.68.62-.82.58-.34-.11-.25 3.81.11 4.87 1.06 3.07 2.97 4.8 5.87 5.3.75.13 37.48.06 38.1-.07Zm.1-1.88c3.22-1 4.89-3.56 4.9-7.54 0-1.36-.01-1.37-.57-.64-1.16 1.55-2.62 2.45-4.64 2.86-.9.18-9.06.15-17.19-.06-1.9-.05-4.92-.1-6.72-.1H17.7v2.31c0 1.27-.03 2.29-.08 2.27-.04-.02-.66-.42-1.39-.9-1.58-1.05-1.19-1.06-2.8.03-.74.49-1.4.88-1.46.86-.09-.03-.13-.71-.15-2.35l-.02-2.32H9.41c-3.79 0-5.53.73-6.26 2.64-.48 1.25 1.31 2.68 3.8 3.05 1.26.18 37.63.08 38.25-.11Zm-22.33-1.95c-.04-.03-.07-.57-.07-1.2V44.7h1.1c.67 0 1.1.04 1.1.1s-.4.1-1 .1h-1v2h1.06c.67 0 1.03.04.99.1-.07.11-2.08.14-2.18.03Zm3.63.02c0-.09 1.71-2.3 1.81-2.33.24-.09.02.27-.76 1.28-.74.95-1.05 1.26-1.05 1.05Zm14.86-.11c-.03-.09-.06-.58-.06-1.1v-.94h-.46c-.27 0-.43-.04-.39-.1s.53-.1 1.16-.1c.66 0 1.09.04 1.09.1s-.25.1-.55.1h-.55v2h.81c.51 0 .78.04.74.1-.11.18-1.72.13-1.79-.06Zm-34.84-.81c.04-1.25.28-1.29.28-.04 0 .75-.03.91-.15.91-.13 0-.15-.14-.13-.87Zm13.74.8c-.03-.03-.06-.24-.06-.45 0-.38 0-.38-.4-.38-.3 0-.4-.04-.4-.16 0-.13.07-.15.39-.09l.4.07.03-.56c.04-.71.22-.78.26-.09l.03.52.37.03c.48.04.48.22 0 .26-.37.03-.38.04-.38.42 0 .37-.1.56-.24.43Zm9.64.01c0-.04.19-.28.42-.53 1.03-1.14 1.52-1.63 1.56-1.52.02.06-.38.56-.89 1.11-.83.9-1.09 1.13-1.09.94Zm1.29-.11c.21-.37 1.88-2.07 1.93-1.97.07.11-1.68 2.07-1.9 2.12-.11.03-.11 0-.03-.15Zm4.07-.88.07-1.05h-.52c-.28 0-.51-.04-.51-.1s.4-.1 1-.1 1 .04 1 .1-.18.1-.4.1h-.4v1.05c0 .88-.03 1.05-.15 1.05-.14 0-.15-.14-.09-1.05Zm2.97.89c-.03-.08-.03-.56.01-1.05l.07-.89h-.41c-.22 0-.4-.04-.4-.1 0-.05.23-.1.5-.1h.5v1.15c0 1.07-.1 1.43-.27.99Zm6.17-.89c0-.63.04-1.05.1-1.05s.1.18.1.4c0 .48.08.49.65.1.24-.16.48-.3.54-.3.24 0 .09.19-.34.44-.55.33-.56.24.1.77.52.42.66.59.46.59-.05 0-.33-.2-.63-.45-.7-.58-.78-.57-.78.05 0 .28-.04.5-.1.5s-.1-.42-.1-1.05Zm.67-4.5c2.34-.54 3.67-2.37 3.78-5.2.09-2.11.12-25.31.05-27.75-.13-4-1.31-5.74-4.16-6.1-.81-.1-35.63-.04-35.73.06-.11.1-.14 2.37-.11 6.92.01 1.23-.01 2.26-.03 2.28-.02.03 0 .25.05.49.08.35.07 1.51-.02 2.2 0 .06.02 1.7.05 3.67.04 2.31.03 3.58-.04 3.62-.06.04-.06.18-.01.37.12.41.12 4.27 0 4.5-.07.11-.07.2 0 .24.13.08.13 1.86 0 2.21-.07.17-.07.31-.01.38.08.1.09 2.31.03 7.31-.02 1.03.09 4.8.14 4.84.2.2 35.12.16 36.01-.04ZM1.8 39.87c1.4-1.32 3.14-1.89 4.93-1.59.32.05.6.05.63.01.18-.3-2.6-.34-3.5-.05C2.9 38.56 1 39.98 1 40.38c0 .21.11.14.8-.51Zm-.19-.52c.69-.64 1.72-1.26 2.37-1.4l.32-.07v-1.87c0-1.03.03-2.5.07-3.25l.06-1.37-.29.07c-.65.15-1.71.8-2.37 1.46-.43.43-.72.65-.82.62-.13-.05-.15.34-.15 3.2C.8 38.53.83 40 .86 40c.04 0 .38-.29.75-.65Zm-.17-6.49c.95-1.25 3.49-2.11 5.26-1.78.59.11.84.06.54-.11-.71-.4-3.27-.13-4.38.46-.57.3-1.96 1.49-1.96 1.68 0 .21.29.07.54-.25Zm-.09-.64c.7-.67 1.44-1.12 2.36-1.42l.66-.22.06-2.01c.12-3.64.11-3.96-.15-3.9-.66.16-1.71.77-2.4 1.42-.59.55-.77.67-.91.6-.16-.09-.17.03-.17 1.73 0 1.01-.03 2.4-.07 3.11-.03.7-.04 1.27-.02 1.27.03 0 .32-.26.64-.58Zm16.04-1.88a1.51 1.51 0 0 1-.69-1.28c0-.83.56-1.24 2.37-1.72.15-.04.17-.52.04-.72-.16-.26-.55-.09-.77.33-.21.42-.61.55-1.2.41-.42-.11-.36-.71.13-1.27.12-.14.11-.17-.06-.22-.11-.03-.22-.17-.26-.36-.09-.41-.39-.61-.92-.61h-.43v2.06c0 2.23.04 2.44.49 2.44.33 0 .44.23.32.68l-.07.27-1.6.03c-1.75.03-1.84 0-1.84-.6 0-.23.06-.29.4-.38l.4-.11.02-1.54c.01-.85.02-1.83.03-2.17v-.63l-.42-.03c-.54-.04-.79.1-.98.53-.14.36-.46.46-.89.29-.17-.06-.24-1.6-.1-2.12l.06-.22 3.37.02 3.36.03.09.95.09.95h.71c1.45.01 1.76.44 1.76 2.47v1.38l.29-.06c.16-.04.32-.01.35.05.15.23.43.12.5-.2.17-.85.07-4.49-.13-4.49-.27 0-.43-.24-.39-.62l.03-.33.99-.23c1.36-.32 1.27-.44 1.26 1.65-.01.98-.01 1.84-.01 1.91.01.09.1.06.3-.1.24-.19.26-.26.16-.38-.56-.68-.24-.91 1.21-.88l1.19.03v.44c0 .42-.01.45-.38.55-.38.11-1.22.71-1.31.93-.03.07.37.56.89 1.1l.94.98.01-.33c.01-.88 1.16-1.8 2.28-1.82.17 0 .22-.06.22-.26 0-.84-.62-.85-.98-.02-.22.51-1.32.34-1.32-.2 0-1.43 2.75-2.1 3.64-.89.18.25.22.47.26 1.7l.05 1.42h.25c.48 0 .73.64.37.94-.44.36-1.81.47-2.07.16-.09-.11-.18-.1-.53.06-.54.24-1.14.24-1.54 0-.27-.17-.33-.18-.43-.05-.09.1-.36.14-1 .14h-.87l-.69-.84c-.67-.82-.82-.91-.7-.41.04.14.15.25.29.27.19.03.22.09.22.48v.45l-1.25.03c-.76.02-1.33-.02-1.45-.08-.15-.08-.31-.07-.64.05-.57.2-.9.19-1.25-.04-.28-.19-.29-.19-.7 0-.5.23-1.12.24-1.47.03Zm15.19-.01c-.49-.31-.58-.67-.58-2.22V26.7h-.24c-.63 0-.62-.77.01-1 .46-.17.89-.53.99-.82.17-.53.99-.15.88.41-.06.29-.05.3.42.37 1.19.17 1.25 1.14.07 1.14h-.53v1.08c0 1.42.05 1.46 1.07 1.16.16-.04.23-.01.28.15.07.22.3.27.55.11s.28-2.48.03-2.56c-.39-.12-.48-.22-.48-.55v-.34l1-.22c1.36-.31 1.25-.46 1.25 1.76v1.91l.24.06c.89.22 1.04.01 1.05-1.53l.01-1.03-.27-.06c-.56-.14-.64-.88-.11-1.02.28-.07.33-.14.43-.59.42-1.84 2.99-2.88 3.64-1.47.35.78-.43 1.45-1.11.94-.39-.29-.72-.21-.87.21-.33.95-.04 1.03 2.58.72l.54-.06-.06 1.5c-.08 1.89 0 2.23.48 2.23.62 0 .75-.24.75-1.4 0-.87-.02-1.01-.17-1.06-.39-.12-.48-.22-.51-.57-.04-.4-.09-.38 1.36-.58 1.05-.14.97-.28.93 1.81l-.03 1.78.29.04c.43.05.48.78.06.97s-1.69.27-1.88.11c-.12-.1-.22-.09-.55.04-1.59.64-2.47-.28-2.37-2.45.05-1.22-.08-1.58-.46-1.2-.06.06-.33.11-.59.11h-.48v1.11c0 1.23.06 1.44.48 1.52.32.07.48.47.31.79-.15.28-5.89.26-5.96-.02-.05-.19-.06-.19-.47.02-.57.29-1.61.35-1.98.11Zm-13.53-.62.4-.21.18.25c.21.28.49.31 1.12.14l.4-.11-.35-.12-.35-.11-.05-1.57c-.05-1.55-.06-1.58-.32-1.85-.59-.58-2.12-.36-2.58.39l-.2.33.22.08c.24.09.24.09.47-.35.47-.87 1.38-.8 1.61.12.16.66.02.96-.52 1.1-1.5.38-2.04.77-1.94 1.39.14.87.89 1.07 1.91.52Zm9.94.03.45-.25.21.27c.2.25.25.26.7.2.65-.1 1.01-.24.63-.25-.47-.01-.58-.23-.59-1.19-.01-2.1-.12-2.41-.94-2.63-.77-.21-2.05.32-2.05.86 0 .3.37.22.55-.12.57-1.04 1.65-.74 1.65.46v.6l-.57.16c-1.43.39-1.83.68-1.83 1.29 0 .9.78 1.15 1.79.6Zm15.24 0c.55-.27.67-.29.67-.12.01.35.15.39.86.27.62-.11.66-.13.42-.21-.42-.14-.52-.66-.44-2.32l.07-1.38-.23.05c-.13.03-.46.09-.73.13-.41.06-.45.09-.25.14.47.11.69 1.94.35 2.83-.2.51-1.27.71-1.72.33l-.28-.24v-3.23l-.5.07c-.61.08-.62.09-.4.3.15.15.17.32.13 1.16-.12 2.39.47 3.02 2.05 2.22Zm-29.4.16c1.03-.01 1.09-.02.81-.14-.44-.19-.44-.21-.44-2.93v-2.46l.79.05c.87.05 1.07.15 1.28.66.09.21.2.32.33.32.22 0 .24-.12.14-.97l-.07-.53H11.8v.7c0 .75.1.88.3.4.18-.44.57-.6 1.4-.6h.7v2.4c0 2.59-.04 2.82-.51 2.99-.16.05-.29.13-.29.17 0 .03.07.03.16 0s.66-.06 1.27-.06Zm19.42-.04c.47-.2.44-.24-.16-.22-.83.02-.93-.2-.94-1.92v-1.37l.65-.05.65-.05-.45-.09c-.69-.13-.8-.22-.8-.63v-.35l-.4.41c-.22.22-.51.43-.65.47-.31.08-.33.22-.03.26.22.03.23.07.28 1.58.05 1.52.13 1.92.42 2.03.27.11 1.1.06 1.43-.07Zm6.25.04c0-.06-.09-.1-.2-.1-.37 0-.48-.37-.55-1.81-.09-1.57-.04-1.69.68-1.69.31 0 .38-.03.27-.1-.08-.05-.3-.1-.48-.1-.45 0-.57-.28-.43-1.05.18-.99.78-1.37 1.48-.95.4.23.63.2.63-.08 0-.31-.26-.44-.88-.44-1.16 0-1.72.58-2.06 2.15-.04.17-.17.32-.34.39l-.27.11.3.06.3.06.03 1.53c.02 1.5.02 1.53-.22 1.77l-.24.24.91.04c.51.01.95.04 1 .05.04.01.07-.02.07-.08Zm-17-.13-.25-.13-.05-2.99-.05-3-.62.15c-.54.14-.59.17-.4.25.22.1.22.13.25 2.6.03 2.87.02 2.91-.41 3.1-.3.13-.26.14.73.14.91.01 1.02-.01.8-.12Zm2.62-.15c-.55-.47-1.82-1.96-1.82-2.14 0-.2.93-1.01 1.47-1.28l.38-.19h-.8c-.59 0-.75.02-.62.1.31.18.18.42-.55 1.09l-.72.66.9 1.02.89 1.02h1.19zm11.16.17c-.42-.16-.51-.6-.46-2.34l.04-1.52-.56.13c-.3.07-.62.14-.7.15-.08 0-.01.05.16.1.63.18.62 2.82-.01 3.36l-.26.23 1.03-.01c.8 0 .97-.03.76-.1ZM18.1 29.5c-.49-.49-.18-1.1.74-1.45.58-.22.8-.17.84.2.12 1.03-.95 1.88-1.58 1.25Zm10.06-.01c-.59-.47-.31-1.02.74-1.45.75-.3.83-.24.74.51-.13 1.01-.83 1.45-1.48.94Zm-9.14-.46c.21-.24.32-.63.18-.63-.21 0-.9.41-.9.54 0 .31.48.37.72.09ZM1.46 26.15c.75-1.15 2.68-1.91 4.65-1.83 1.76.08 1.58-.17-.21-.28-1.85-.12-3.43.55-4.69 1.99-.3.34-.31.37-.12.37.11 0 .28-.11.37-.25Zm1.09-1.6c.33-.2.9-.45 1.28-.56l.67-.21v-1.66c0-.92.03-2.18.07-2.79.06-1.09.05-1.13-.14-1.13-.44 0-1.81.8-2.49 1.45-.54.53-.71.64-.9.59l-.24-.06v5.86l.58-.56c.31-.31.84-.73 1.17-.93Zm33.26.34c-.48-.45-.48-1.03.01-1.44.77-.65 1.9.25 1.44 1.14-.29.55-1.02.7-1.45.3Zm.93-.35c.34-.33.13-.84-.34-.84-.48 0-.67.45-.33.82.2.22.46.23.67.02ZM1.42 19.81c.9-1.28 2.83-2.07 4.86-1.98 1.04.04 1.36-.02.95-.17-.92-.36-2.98-.11-4.12.49C2.08 18.69.73 20 1.19 20c.06 0 .16-.08.23-.19Zm1.25-1.71c.31-.19.86-.45 1.22-.57l.66-.22.03-2.76.02-2.77-.32.07c-.76.16-1.78.75-2.48 1.45-.46.47-.74.68-.85.64-.13-.05-.15.26-.15 2.81v2.87l.65-.59c.36-.32.91-.74 1.22-.93Zm23.72.29c-.47-.05-.98-.13-1.12-.18L25 18.1v-7.88l-.32-.07c-.4-.09-.48-.2-.48-.66v-.37l.71-.16c2.47-.56 2.3-.65 2.28 1.35-.01 1.87-.06 1.72.56 1.53 3.67-1.14 5.27 4.46 1.78 6.21-.45.22-1.65.47-2.13.43-.08 0-.54-.04-1.01-.09Zm14.41 0c-.66-.27-1.12-.98-1.12-1.7.01-1.14.94-1.88 2.77-2.2l.67-.11-.05-.4c-.11-.85-1.27-1.02-1.27-.18 0 .67-1.61.72-1.91.06-.58-1.26 2.63-2.77 4.19-1.97.97.5 1.12.93 1.12 3.21v1.8l.34-.14c.41-.17.5-.12.66.37.31.96-1.84 1.83-2.7 1.1l-.32-.26-.46.23c-.53.25-1.53.36-1.92.19Zm-28.75-.5c-.08-.47-.01-.58.47-.73.52-.17.57-.45.57-3.59.01-2.92-.02-3.17-.42-3.17-.53 0-.7-.92-.21-1.1.34-.13 4.02-.13 4.83 0 2.16.36 3.07 2.35 1.7 3.76l-.3.31.49.36c1.3.93 1.23 3.05-.13 3.98-.76.52-1.25.59-4.22.59h-2.71zm8.39.27c-.16-.42.01-.88.36-1 .4-.13.47-.43.49-2.21.01-1.27-.06-1.65-.33-1.65-.37 0-.47-.14-.44-.61l.03-.44 1.1-.27c1.32-.33 1.65-.35 1.66-.1 0 .09 0 1.18-.01 2.42 0 2.51.04 2.83.41 2.88.45.07.62.46.43.96-.09.22-3.61.24-3.7.02Zm11.3 0c-.16-.41.01-.9.33-.98.4-.1.4-.12.48-3.33.07-3.15.02-3.65-.36-3.65-.61 0-.71-.94-.11-1.09 1.75-.44 2.33-.54 2.44-.43.08.08.11 1.23.09 4.26l-.02 4.15.28.06c.47.11.53.14.59.3.04.08.03.31 0 .5l-.07.35h-1.8c-1.44 0-1.81-.03-1.85-.14Zm4.03.07c-.27-.48-.12-.97.31-1.06.39-.08.42-.21.42-2.19V13.3h-.3c-.35 0-.53-.26-.48-.73l.03-.31 1.15-.28c1.38-.33 1.7-.35 1.71-.1 0 .09 0 1.26-.01 2.6-.02 2.57.01 2.72.44 2.72.42 0 .6.46.36.91-.11.2-3.52.31-3.63.12Zm-7.29-.38c3.42-.45 3.36-5.93-.06-5.63-.33.04-.8.17-1.09.31-.66.34-.63.41-.63-1.66V9.08l-.22.05c-.13.03-.6.13-1.05.23l-.83.17.39.18.39.17.07 1.22c.04.68.04 2.4.01 3.84-.08 3.07-.16 2.85 1.1 2.95.98.07 1.09.07 1.92-.04Zm14.18-.2c.7-.37.94-.39.94-.07 0 .63 1.55.53 2.11-.14.13-.16.11-.17-.33-.1-.66.1-.68.04-.68-2.26 0-2.57-.19-2.88-1.77-2.88-1.41 0-3.2 1.08-2.52 1.51.39.25.85.1.97-.3.43-1.43 2.5-.4 2.17 1.09-.07.32-.08.32-1.05.49-2.2.38-3.05 1.64-1.83 2.71.49.43 1.09.42 1.99-.05Zm-24.62-.02c2.05-.58 2.24-2.87.31-3.82-.77-.38-.77-.31.04-.84.47-.3.71-.8.71-1.46 0-1.43-.93-1.8-4.52-1.81-1.92 0-2.12.04-1.55.3.54.25.59.56.55 3.8s-.09 3.49-.73 3.75c-.19.09-.35.17-.35.2 0 .15 4.97.04 5.54-.12Zm5.39.01c-.51-.22-.53-.33-.53-2.97v-2.45l-.62.14c-.35.08-.81.2-1.03.26l-.4.11.33.08c.54.11.54.12.5 2.31-.03 2.23-.04 2.28-.62 2.53-.28.12-.15.13 1.19.13 1.37 0 1.47-.01 1.18-.14Zm11.3.03c-.61-.22-.58-.03-.58-4.46V9.13l-.6.14c-.33.07-.78.19-1 .25l-.4.11.32.09c.54.14.55.2.51 3.86-.04 3.68-.06 3.82-.6 4.06-.31.13-.22.14 1.17.14 1.26 0 1.45-.01 1.18-.11Zm4.01-.02c-.6-.26-.59-.25-.56-2.98.02-2.04 0-2.48-.11-2.44-.08.03-.53.13-1 .23-.92.19-1.06.28-.57.39.48.11.52.29.48 2.34-.04 2.04-.08 2.22-.61 2.45-.29.13-.19.14 1.18.14 1.34 0 1.47-.01 1.19-.13Zm-11.44-.28c-.58-.29-.88-2.8-.45-3.83.42-1.02 2.11-.81 2.66.33.94 1.92-.58 4.32-2.21 3.5Zm14.44-.11c-1.16-.5-.27-1.8 1.39-2.02l.47-.07v.7c0 1.12-.91 1.79-1.86 1.39Zm-26.8-.51c-.08-.46-.01-2.71.09-2.82.14-.13 1.64-.04 2.05.12.79.34 1.2 1.04 1.06 1.83-.16.91-.7 1.21-2.16 1.22h-.97zm13.62.09c1.29-.61.88-3.44-.5-3.44-.81 0-.86.1-.86 1.8 0 1.83.27 2.16 1.36 1.64Zm14.24-.19c.45-.23.45-.91.01-.82-.8.16-1.21.47-1.07.82.07.2.68.2 1.06 0Zm-25.65-.2c1.29-.53.43-2.05-1.15-2.05h-.6v2.2h.7c.39 0 .86-.06 1.05-.15ZM1.81 12.96c1.21-1.14 2.3-1.51 4.25-1.44 1.84.07 1.65-.18-.22-.29-1.88-.11-3.56.6-4.63 1.96-.49.62-.17.49.6-.23Zm13.17.34c-.01-.05-.02-.75 0-1.55l.03-1.45h.77c1.6 0 2.44 1.18 1.7 2.38-.35.57-2.34 1.07-2.5.62Zm1.99-.72c.66-.67.22-1.65-.79-1.78-.79-.11-.78-.12-.78 1.07v1.05l.65-.04c.54-.03.7-.09.92-.3Zm4.49-1.79c-.44-.38-.54-.83-.31-1.32.56-1.18 2.25-.8 2.25.5 0 1-1.17 1.5-1.94.82Zm15.2-.03c-.77-.72-.28-1.96.77-1.96.81 0 1.41.73 1.17 1.44-.29.88-1.28 1.15-1.94.52Zm-14.07-.21c.54-.27.48-1.01-.09-1.25-.83-.35-1.41.86-.6 1.27.32.16.35.16.69-.02Zm15.21 0c.54-.28.52-.95-.04-1.21-.83-.4-1.49.76-.68 1.2.34.19.37.19.72.01ZM1.86 6.31c1.3-1.21 2.25-1.55 4.25-1.49 1.14.03 1.54-.08.83-.23-1.13-.25-2.87 0-3.95.57C2.1 5.63.66 7 1.06 7c.03 0 .4-.31.8-.69Z"/></svg>