<svg xmlns="http://www.w3.org/2000/svg" width="51" height="51" viewBox="0 0 51 51"><path fill="#fff" fill-rule="evenodd" stroke="#fff" stroke-width=".707" d="M30.23 42.68c-.05-.07-.22-.62-.37-1.23-.67-2.73-2.18-4.81-5.08-6.96-.95-.7-.98-.69-.98.26 0 1.3-.36 1.48-.83.42-.66-1.48-2.66-3.56-5.12-5.31l-.8-.58-.05.99c-.05.92-.06.98-.27 1.01-.19.03-.29-.1-.64-.8-.94-1.87-1.78-2.89-4.24-5.18-1.91-1.77-2.78-2.77-3.29-3.79-1.24-2.46-.97-5.56.61-7.02.84-.77 1.02-.35.49 1.13-1.34 3.69.74 6.64 8.09 11.5 9.38 6.19 11.45 8 12.44 10.85l.27.79 1.9-.33c1.04-.18 2.57-.42 3.39-.54 1.89-.26 1.94-.28 2.65-1.08.72-.79.73-.78-.93-.87l-1.25-.07-.26.42c-.38.6-.71.58-.62-.03l.07-.45-.35-.07c-.5-.09-.48-.37.03-.58.22-.08.42-.23.45-.33.08-.28.28-2.04.23-2.09-.02-.02-.87-.07-1.89-.11l-1.85-.06-.09.54c-.12.73-.42.77-.62.09-.08-.25-.15-.51-.18-.58-.02-.08-.27-.12-.77-.12h-.74l-.14.52c-.11.41-.19.54-.36.56-.24.04-.35-.21-.53-1.31-.34-2.1-1.97-4.2-4.52-5.82l-.28-.17v.9c0 .83-.02.92-.21 1.03-.26.13-.3.09-.58-.62-.7-1.76-2.23-3.22-5.06-4.79-3.14-1.76-4.05-2.94-4.05-5.27 0-.8.11-.89.69-.56.56.33.57.34.65.9.08.6.6 1.55 1.09 1.99 1.16 1.06 2.64 1.25 5.27.69 1.07-.23 1.61-.29 2.62-.29l1.28-.01v-.48c0-.54.07-.53-1.19-.16-2.27.68-4.2-.38-4.38-2.4-.17-1.87.67-2.44 3.82-2.58 2.15-.1 2.05-.01 2.05-1.6V12h-5.5v1.19c0 1.47.04 1.45-1.39.76l-1.11-.54v-.81h.45c.43 0 .45-.01.45-.29v-.28l-1.92-.07c-1.06-.04-1.96-.1-2-.12-.04-.03-.08-.46-.08-.96v-.91l-.75.06c-1.29.11-1.75.43-1.83 1.26-.08.91.29 1.53 1.03 1.69l.4.08v1.29l-.47.03c-2.83.18-4.08-4-1.71-5.72.81-.58 1.42-.71 3.48-.71h1.8l.03.97.03.97 5.55-.02c4.83-.02 5.56 0 5.65.13.06.1.08.93.06 2.3-.05 2.44-.15 2.96-.69 3.47-.6.56-.67.57-3 .63-1.96.05-2.2.07-2.35.24-.17.18-.17.19 0 .12.33-.11.39.05.13.33l-.26.27.29.28c.18.17.31.24.35.17.17-.26 1.99-.71 2.91-.71.77 0 .96-.04 1.34-.25.23-.14.47-.25.52-.25.12 0 .11.37-.01.45-.18.11-.1.25.15.25.21 0 .25.05.26.32.01.18.04 1.15.08 2.16l.06 1.82.78-.5c1.35-.87.93-.8 5.13-.8h3.77l1.21.66c.66.37 1.48.81 1.81.99 1.47.81 1.51 1.43.23 3.58l-.6 1 .23.31c2.5 3.37 2.31 7.59-.48 10.57-.25.27-.44.51-.42.52.02.02.27.17.54.35.28.17.68.49.9.71l.39.41-.18.72c-.34 1.34-.59 1.93-.84 1.96-.23.04-.25.02-.42-.66-.39-1.51-1.57-1.84-6.3-1.75l-2.85.06v1.38c0 1.43-.13 1.93-.42 1.57Zm-7.29-1.3c-.71-1.38-2.8-3.2-5.06-4.43l-.88-.47v.8c0 1.45-.26 1.52-.94.28-.98-1.79-2.18-3.12-4.56-5.03-2.16-1.73-3.14-2.93-3.55-4.37-.26-.9-.17-2.61.18-3.38.29-.65.25-.63.74-.43.34.14.35.17.27.48-.05.17-.09.75-.09 1.27 0 2.18.79 3 6.65 6.9 3.43 2.28 4.41 3.01 5.51 4.11 1.59 1.59 2.51 3.46 2.4 4.87-.03.32-.34.05-.67-.6Zm7.43-.65c-.07-1.52-.3-2.49-.85-3.59-1.16-2.31-2.39-3.35-9.87-8.39-9.83-6.62-11.72-9.02-10.31-13.09.43-1.24.4-1.39-.15-.77-.77.86-1.1 1.9-1.1 3.46 0 2.51.76 3.78 4.04 6.82 2.24 2.07 3.18 3.2 4.13 4.96l.44.82v-.9c0-1.34.03-1.34 1.37-.39 2.41 1.72 4.17 3.52 5.04 5.17l.38.72.01-.56c0-.83.11-1.49.25-1.49.18 0 1.48.92 2.46 1.76 2 1.69 3.36 3.74 3.84 5.79.33 1.37.39 1.3.32-.32Zm10.22-.02c.17-.55.31-1.05.31-1.13 0-.2-.65-.8-1.32-1.22-.7-.44-.7-.35-.01-1.1 2.68-2.89 2.95-6.84.67-10.03-.25-.35-.44-.69-.41-.76.02-.07.37-.68.76-1.36 1.03-1.8.98-2.27-.32-2.93-.34-.17-1.12-.59-1.74-.93l-1.12-.63-3.73-.04-3.73-.03-1.16.73c-.63.39-1.21.72-1.27.72-.09 0-.13-.51-.14-1.88-.01-1.03-.03-2.03-.03-2.22l-.01-.35-.6-.06c-.86-.1-2.16-.09-2.39.01-.11.05-.14.09-.07.09.5.03-.23.65-.9.76-1.01.17-1.98-.58-1.84-1.44.11-.71.59-.83 3.21-.8s2.86-.28 2.93-3.72l.04-2.16-.28-.08c-.16-.04-2.65-.05-5.54-.04-2.89.02-5.31 0-5.37-.04-.09-.06-.13-.37-.13-.99v-.9l-1.78.04c-2.43.06-3.27.41-3.89 1.62-.94 1.84.27 4.26 2.14 4.26h.43v-.39c0-.35-.03-.4-.3-.46-1.17-.26-1.61-2.05-.72-2.98.32-.33.7-.44 1.85-.53l.87-.07v1.93l.38.01c.2.01 1.09.04 1.97.08l1.6.06v1.1l-.47.03c-.67.04-.54.24.53.78.49.24.91.44.94.44s.05-.48.05-1.07c0-.6.04-1.14.08-1.21.07-.09.74-.12 3.03-.1l2.94.03v1.27c0 1.13-.02 1.3-.21 1.55l-.21.28-1.79.07c-2.73.11-3.43.41-3.6 1.53-.34 2.28 1.59 3.62 4.09 2.85.36-.11.83-.21 1.04-.23l.38-.02v1.46l-1.45.03c-1.05.02-1.79.1-2.7.29-.69.14-1.56.28-1.95.32-2.34.22-4.22-1.06-4.7-3.19-.09-.4-.18-.55-.43-.69l-.32-.19v.59c0 2 .88 3.17 3.45 4.62 3.14 1.77 4.55 3.01 5.4 4.74l.45.92v-1.02c0-1.32.04-1.32 1.75.02 2.27 1.77 3.32 3.32 3.65 5.38.21 1.25.4.95.4-.64 0-.76-.06-1.15-.26-1.8-.4-1.31-.45-1.22.66-1.2.52.01 1.1.04 1.28.07l.32.06v1.47c0 1.73.01 1.71-.91 1.71-.37 0-.71.05-.74.1-.04.06.19.1.62.1.83 0 1.11.07 1.17.29.02.09.08.3.12.46.08.29.08.29.13-.15l.06-.45 1.94.02c2.58.02 2.44-.03 2.35.81-.17 1.73-.26 2.04-.64 2.17l-.35.13.35.03c.32.04.35.07.33.34l-.02.3.17-.27c.22-.36.2-.36 1.47-.26 2.3.18 2.34.21 1.45 1.2-.93 1.02-1.01 1.07-2.53 1.28-3.34.48-5.78.94-5.75 1.1.03.13.52.16 3.73.2 3.55.05 3.72.06 4.27.28.8.32 1.32.91 1.62 1.85.09.28.13.21.45-.82Zm-17.4.09c-.51-2.27-2.11-3.87-7.44-7.42-6.81-4.55-7.53-5.44-6.92-8.61.01-.07-.07-.12-.18-.12-.31 0-.57.89-.58 2-.02 2.1.84 3.45 3.58 5.63 2.28 1.82 3.64 3.3 4.58 5.01l.42.76.05-.95c.06-1.12.03-1.11 1.2-.48 2.02 1.1 4.1 2.79 4.95 4.03.46.66.45.65.34.15Zm13.48-6.92c.19-.73.37-1.35.39-1.37.05-.05 3.46.28 3.53.35s-.37 1.76-.49 1.88c-.11.11-2.59.45-3.32.46h-.46zm1.81.85 1.42-.17.2-.64c.29-.93.33-.88-.82-.96-.57-.03-1.26-.09-1.53-.12l-.5-.06-.24.93c-.13.52-.26 1-.28 1.06-.07.17.04.16 1.75-.04Zm-6.65-3.64c.06-.88.3-2.05.45-2.21.08-.08 3.29.06 3.38.15s.31 1.21.39 1.99l.06.66-.28.05c-.15.03-.89.08-1.63.12-.74.03-1.59.08-1.89.12l-.54.06zm-.88-.74v-1.3l-.94-.03c-.86-.03-.93-.01-.86.15.18.47.45 1.71.45 2.1v.44l.68-.03.67-.03zm3.23 1.19c1-.04 1.55-.1 1.58-.18.06-.16-.23-1.97-.33-2.06-.04-.04-.73-.09-1.53-.11l-1.45-.04-.17.8c-.27 1.31-.24 1.78.1 1.71.15-.03.96-.08 1.8-.12Zm2.92-.67c0-.46-.03-1.06-.07-1.32l-.06-.48 1.47.05c.8.03 1.49.08 1.52.11.1.1.53 1.42.6 1.84l.06.41-.53.06c-.3.03-1.09.08-1.76.11l-1.23.06zm3.12.34c.08-.07-.04-.61-.29-1.27-.17-.49-.34-.54-1.77-.54h-.89l.07.31c.03.17.06.62.06 1v.68l1.38-.06c.75-.03 1.4-.08 1.44-.12ZM28.9 28.36c0-.48 2.06-2.36 2.59-2.36.15 0 .11.61-.12 1.75l-.12.6-.45.07c-.86.13-1.9.09-1.9-.06Zm3.54-.2c-.07-.18.64-2.33.83-2.52.25-.24 1.19-.19 1.37.09.18.26.72 1.66.81 2.07l.06.28-.63.06c-1.72.15-2.39.15-2.44.02Zm-1.48-.09c.04-.04.1-.28.15-.54.04-.27.11-.63.15-.82l.07-.34-.32.19c-.45.26-1.26.99-1.52 1.36l-.22.31.81-.05c.45-.03.85-.08.88-.11Zm4.08-.28c.06-.05-.04-.45-.26-1.01l-.35-.93h-.97l-.23.6c-.13.33-.3.81-.37 1.06l-.14.45 1.12-.04c.61-.02 1.15-.08 1.2-.13Zm1.53-.67c-.32-1.07-.32-1.12-.09-1.12.47 0 2.63 1.63 2.42 1.84-.05.05-.54.12-1.08.14l-.98.04zm1.93.53c0-.07-1.2-.94-1.53-1.12l-.29-.15.07.34c.2.91.27.98 1.04.98.39 0 .71-.02.71-.05Zm-11.16-.66c-.21-.23-.76-.7-1.22-1.06-1.02-.8-1.21-.55 1.86-2.47L30.31 22h6.65l1.37.78c.75.42 1.37.8 1.37.85 0 .14-1.02 1.87-1.11 1.87-.07 0-.61-.32-.98-.57-.04-.03.12-.63.26-.98.03-.09-.2-.26-.66-.5-.74-.37-.8-.36-.56.05.41.71.06 1.05-.85.83-.47-.11-1.01-.14-1.95-.1-2.17.07-3.48.64-5.19 2.27l-.93.89zm2.39-1.78c1.67-1.14 4.05-1.6 6.05-1.17.75.16.83.09.58-.54-.33-.83-.17-.88 1.02-.3.88.42.9.45.67 1.11-.12.34-.13.44-.03.51.31.21.49.29.56.24.11-.07.77-1.34.72-1.39-.03-.02-.57-.33-1.21-.7l-1.16-.65-3.24-.04-3.24-.03-.5.31c-2.52 1.58-4.16 2.63-4.16 2.69 0 .03.33.32.73.64s.84.7.97.85l.25.26.75-.73c.42-.4.98-.88 1.24-1.06Zm-7.1-1.64c-.76-.51-1.22-.88-1.2-.97.07-.49 3.47-.84 4.55-.47.68.24.65.39-.13.91-.33.21-.9.6-1.28.87-.37.27-.68.49-.7.49-.01-.01-.57-.38-1.24-.83Zm1.79.09c.25-.19.74-.53 1.08-.75l.64-.4-.29-.13c-.45-.19-2.44-.14-3.33.09l-.72.18.97.67c1.15.79 1.08.77 1.65.34Z"/></svg>