<svg xmlns="http://www.w3.org/2000/svg" width="51" height="51" viewBox="0 0 51 51"><path fill="#fff" fill-rule="evenodd" stroke="#fff" stroke-width=".411" d="M12.43 43.01c-.54-.25-1.2-.92-1.47-1.5l-.21-.46-.03-10.67-.02-10.67.25-.17c.23-.15.27-.15.5 0l.25.16v12.6h13.84c12.53 0 13.84-.01 13.9-.16.03-.09.06-3.24.06-7V18.3h-3.89c-4.24 0-4.46-.02-5.05-.58-.65-.61-.66-.66-.66-5V8.8l-8.44.02-8.44.03-.43.3c-.82.58-.83.65-.89 4.41-.03 2.31-.09 3.35-.17 3.45-.09.11-.08.19.03.33.26.36.19 1.42-.11 1.62-.6.39-1.1-.94-.61-1.62.13-.16.13-.21 0-.36-.24-.26-.16-6.77.09-7.32.29-.66.83-1.23 1.45-1.53l.57-.28 8.79-.03 8.78-.03 3.47 3.44c1.9 1.89 4.12 4.09 4.94 4.88l1.47 1.45v11.71c0 12.95.04 12.14-.65 12.99-.19.23-.58.54-.87.68l-.52.26H25.61c-12.3 0-12.78-.01-13.18-.19Zm26.36-.37c.39-.2.62-.4.89-.82l.37-.55.03-11.8.02-11.79-.72-.73c-.4-.39-2.58-2.55-4.84-4.78L30.43 8.1h-8.55c-9.63 0-9.22-.03-10 .73-.83.81-.83.77-.86 4.65-.03 3.04-.01 3.42.12 3.42.09 0 .16-.06.17-.12 0-.07.02-1.53.04-3.25.05-3.54.1-3.81.86-4.47.67-.57.46-.56 9.57-.56h8.41l.03 4.18.03 4.19.29.37c.57.75.6.76 5.19.76h4.07v6.99c0 3.84-.03 7.13-.06 7.3l-.07.31-14.16-.02-14.16-.03.02-6.37c.02-6.31.02-6.38-.17-6.38-.2 0-.2.08-.18 10.63l.03 10.62.29.53c.16.28.44.64.63.77.74.57-.07.54 13.64.55h12.65zm-13.89-.13c-13.39-.07-12.34-.01-12.95-.73-.6-.71-.6-.69-.6-4.73 0-2.03.03-3.78.07-3.87.11-.26 28.22-.28 28.32-.02.11.28.07 7.1-.05 7.63-.22 1.06-.97 1.67-2.1 1.74-.35.02-6.06.01-12.69-.02Zm13.14-.31c.53-.12.86-.38 1.16-.91l.25-.44v-7.5l-13.87-.03-13.88-.02v3.75c0 4.46.05 4.67 1.27 5.1.45.16 24.38.21 25.07.05Zm-19.88-.96c-.23-.22-.24-.17.6-2.49 1.62-4.46 1.7-4.63 2.17-4.51.3.07.26-.03 2.37 5.91.32.89.27 1.17-.22 1.23-.33.04-.42-.09-.82-1.19l-.34-.94h-2.24l-.34.9c-.48 1.22-.77 1.5-1.18 1.09Zm5.76.04c-.19-.19-.17-6.67.02-6.94.17-.23 1.84-.26 2.72-.05 1.94.47 2.26 3.12.49 4.04-.29.15-.66.21-1.37.25l-.98.05v1.26c0 1.36-.05 1.51-.5 1.51-.14 0-.31-.05-.38-.12Zm4.78-.07c-.06-.13-.1-1.39-.1-3.41 0-3.45.02-3.6.49-3.6.45 0 .5.16.53 1.65l.03 1.4 1.23-1.4c1.34-1.51 1.59-1.7 1.92-1.4.38.34.03.88-1.83 2.82l-.49.51 1.26 1.39c1.49 1.63 1.67 2.02.99 2.19-.25.07-.35-.01-1.13-.87-2.12-2.33-2-2.3-2-.55 0 .81-.04 1.26-.12 1.34-.19.19-.66.15-.78-.07Zm-9.94-.43c.1-.18.29-.67.45-1.08l.27-.75 1.3-.03 1.29-.03.11.28c.06.15.25.65.42 1.11.3.77.6 1.1.6.64 0-.2-1.99-5.84-2.19-6.21-.26-.48-.34-.35-1.35 2.44-.42 1.15-.9 2.46-1.06 2.91-.17.45-.3.86-.3.93 0 .23.3.1.46-.21Zm5.74-1.08v-1.4h.88c1.4 0 2.05-.27 2.42-1 .42-.83.14-1.98-.62-2.47-.43-.29-2.24-.54-2.81-.39l-.27.06v3.3c0 3.23 0 3.3.2 3.3.19 0 .2-.07.2-1.4Zm4.8.21c0-1.05.02-1.21.21-1.45.29-.37.25-.4 1.7 1.19.73.8 1.39 1.45 1.46 1.45.32 0 .04-.42-1.17-1.75-.71-.79-1.3-1.49-1.3-1.55s.51-.67 1.13-1.36c1.17-1.32 1.45-1.69 1.35-1.8-.13-.13-.44.09-.86.59-.23.29-.82.94-1.3 1.46-1.2 1.29-1.22 1.27-1.22-.69 0-1.39-.01-1.51-.18-1.48-.29.06-.31 6.58-.02 6.58.19 0 .2-.06.2-1.19Zm-9.6-1.57c0-.08.65-1.91.86-2.39.08-.2.2-.35.26-.33.08.03 1.06 2.53 1.08 2.76 0 .01-.49.02-1.1.02-.6 0-1.1-.03-1.1-.06Zm1.72-.2c.06-.05-.21-.92-.52-1.69-.12-.3-.12-.29-.46.65-.19.52-.34.98-.34 1.02 0 .09 1.24.11 1.32.02Zm3.12-.37c-.02-.07-.03-.76-.02-1.52l.03-1.4.85.01c1.12.01 1.54.16 1.91.66.55.76.31 1.79-.51 2.2-.44.23-2.18.26-2.26.05Zm2.15-.31c.4-.21.61-.59.61-1.08 0-.82-.49-1.17-1.72-1.25l-.78-.06v2.53h.8c.51 0 .91-.05 1.09-.14Zm-7.93-6.91c-1.35-.71-.75-4.14 1.1-6.31l.47-.55-.96-.97c-1.03-1.03-1.15-1.28-.75-1.56.33-.24.33-.24 1.44.86l1.03 1.01.93-.46c2.35-1.18 5.11-1.13 7.3.12l.66.38.98-.98c1.04-1.04 1.21-1.15 1.53-.92.38.26.25.52-.76 1.54l-.96.98.39.47c1.29 1.53 1.94 3.11 1.96 4.78.01.85-.17 1.27-.65 1.56-.44.27-13.2.31-13.71.05Zm13.47-.26c1.18-.61.52-3.83-1.2-5.85l-.65-.76 1.01-1.02c.56-.57 1.01-1.08 1.01-1.15 0-.31-.44-.02-1.35.89l-1.01 1.01-.94-.5c-2.28-1.19-4.64-1.21-6.94-.06l-1.1.55-1.07-1.06c-.98-.96-1.29-1.16-1.29-.81 0 .06.46.58 1.02 1.14l1.01 1.01-.62.74c-1.61 1.91-2.34 4.87-1.42 5.7l.31.28h6.51c4.59 0 6.57-.03 6.72-.11ZM19.25 30c-1.08-.19-.45-3.37 1.02-5.12 3.2-3.82 9.31-3.09 11.44 1.37.48 1 .69 1.81.69 2.66 0 1.2.65 1.09-6.61 1.11-3.44.02-6.38.01-6.54-.02Zm12.77-.38c.35-.35-.15-2.63-.84-3.79-2.54-4.27-9.13-4.07-11.41.34-.68 1.31-1.01 3.27-.59 3.53.24.15 12.68.08 12.84-.08Zm-9.62-2.31c-.33-.63-.03-2.11.43-2.11.43 0 .71 1.82.35 2.18-.19.19-.66.15-.78-.07Zm5.52.07c-.24-.24-.16-1.84.1-2.02.29-.2.34-.2.58.04.23.23.29 1.54.1 1.91-.12.22-.59.26-.78.07Zm-4.94-1c-.02-.66-.06-.83-.18-.83s-.16.17-.18.83c-.03.77-.02.82.18.82s.21-.05.18-.82Zm5.5 0c-.02-.66-.06-.83-.18-.83s-.16.17-.18.83c-.03.77-.02.82.18.82s.21-.05.18-.82Zm-17.14-7.74c.15-.4.07-1.04-.14-1.04-.2 0-.31.95-.13 1.13q.165.165.27-.09Zm20.1-1.18c-.91-.4-.98-.77-.92-4.83.05-3.64.05-3.63.38-3.4.78.54 8.32 8.21 8.14 8.28-.37.14-7.26.1-7.6-.05Zm7.09-.23c.02-.05-1.68-1.78-3.78-3.85L30.93 9.6l-.08 3.23c-.1 4.84-.45 4.47 4.26 4.47 1.86 0 3.4-.03 3.42-.07Z"/></svg>