<svg xmlns="http://www.w3.org/2000/svg" width="51" height="51" viewBox="0 0 51 51"><path fill="#fff" fill-rule="evenodd" stroke="#fff" stroke-width=".425" d="M25.37 43.26c-2.13-.79-2.17-3.75-.06-4.65l.5-.22-.03-2.07-.03-2.07-1.42-.03-1.43-.03v.75c0 .73.01.75.3.93 1.19.7.66 2.65-.72 2.65-1.51 0-2.07-1.96-.78-2.7.29-.16.3-.2.3-.89v-.73h-1.59l-.03 1.73-.03 1.73-1.4 1.47-1.4 1.47h-2.91l-.12.33c-.88 2.44-4.52 2.01-4.79-.56-.29-2.86 3.96-3.8 4.79-1.06l.11.39h2.63l1.12-1.13 1.12-1.14v-3.2l-.51-.05c-1.05-.1-1.41-.65-1.47-2.25l-.05-1.13h-4.05l-.36.42c-.49.57-.56 2.23-.11 2.52 1.17.77.62 2.76-.76 2.76-1.42 0-1.93-1.97-.72-2.75l.31-.2.04-1.12.03-1.13.68-.67.67-.68 2.08-.02c1.14-.02 2.1-.03 2.15-.03.04 0 .07-.34.07-.75v-.75h-6.55l-.22.35c-.78 1.2-2.68.62-2.65-.8.01-1.3 1.46-1.95 2.42-1.09.22.2.4.42.4.5 0 .23.33.25 3.5.22l3.05-.03.03-1.07.03-1.08-1.08-.02c-.59 0-1.36-.02-1.71-.04-.6-.03-.63-.02-.78.27-.61 1.19-2.48.79-2.69-.56-.24-1.55 2.15-2.3 2.75-.85l.12.3h3.38v-2.8h-2.09c-1.85 0-2.11-.02-2.28-.17-.11-.1-.75-.75-1.42-1.45l-1.21-1.26v-1.46c0-1.25-.02-1.46-.15-1.46-.88 0-1.85-1.25-1.85-2.37.01-3.13 4.59-3.34 4.87-.23.11 1.19-.88 2.6-1.82 2.6-.13 0-.15.2-.15 1.37v1.36l1.12 1.14 1.12 1.13h3.83l.06-.93c.1-1.8.5-2.16 2.4-2.17h.77v-4.27l-.39-.13c-2.72-.89-1.66-5.18 1.17-4.75 2.53.38 2.91 4.04.5 4.77l-.38.11v4.27h3.5v-3.09l-.29-.16c-.98-.5-.92-2.06.09-2.57 1.62-.82 2.95 1.57 1.44 2.55l-.34.22v3.05h3.3v-1.53c0-1.86-.06-1.77 1.25-1.77.55 0 1.44-.03 1.97-.07l.97-.06.11-.32c.85-2.57 4.81-1.92 4.8.79-.01 2.7-3.74 3.41-4.77.9l-.18-.44H30.2v2.48l1.39.04c2.02.04 2.31.31 2.39 2.2l.05 1.08h2.18l1.04-1.07 1.04-1.08.01-.55c.01-1.28 1.29-2.02 2.27-1.32 1.37.98.23 3.16-1.37 2.61l-.32-.12-1.22 1.22L36.45 22H34v2.6h3.25l.17-.3c.91-1.6 3.39-.15 2.54 1.49-.49.94-2.03.95-2.51.01l-.16-.3H34v1.8h4.98l.23-.36c.77-1.25 2.69-.7 2.69.77 0 1.45-1.76 2.01-2.65.85l-.27-.36H34.1V30h2.79l.94.9c.93.89.95.9 1.26.79 1.52-.53 2.63 1.59 1.36 2.59-.99.78-2.3.04-2.3-1.29v-.66l-.82-.77-.81-.77-1.24.03-1.23.03L34 32c-.1 2.07-.41 2.26-3.88 2.3h-.42v3.02l1.08 1.14 1.07 1.14h4.66l.2-.48c1.25-2.94 5.57-1.45 4.67 1.62-.63 2.14-3.98 2.18-4.68.05l-.13-.39h-5.12l-1.3-1.37-1.3-1.37-.03-1.68-.03-1.68H26.6l.02 2.06.03 2.06.39.13c1.95.67 2.1 3.65.23 4.62-.43.22-1.43.27-1.9.09Zm1.46-.17c2.03-.56 2.06-3.68.05-4.35l-.48-.16.02-2.26.03-2.27h2.6l.03 1.79.02 1.8 1.18 1.2 1.17 1.21 2.64.05 2.64.05.12.41c.5 1.71 2.73 2.18 3.89.83 1.41-1.65-.08-4.04-2.22-3.58-.81.17-1.44.82-1.76 1.81-.05.17-.26.18-2.55.18h-2.49l-1.11-1.17-1.11-1.17v-3.44l1.73-.04c2.39-.05 2.46-.11 2.56-2.13l.06-1.2 1.44-.03 1.43-.03.9.88.89.88-.12.33c-.36 1.03.84 2.01 1.79 1.48 1.27-.7.39-2.69-1-2.24l-.43.14-.98-.93-.99-.93h-2.99l.03-1.08.03-1.07 2.68-.03L39.2 28l.09.24c.46 1.19 2.41.77 2.41-.52 0-1.36-2.13-1.67-2.46-.36l-.06.24-2.67-.02-2.66-.03-.03-1.11-.03-1.11.92-.06c2.13-.16 2.72-.08 2.9.35.47 1.15 2.29.72 2.29-.54 0-1.32-1.78-1.73-2.34-.54l-.17.36-1.77-.02-1.77-.03-.03-1.51-.03-1.51 1.33-.06 1.33-.05 1.17-1.23c1.13-1.19 1.17-1.23 1.43-1.11 1.36.62 2.59-1.01 1.49-1.98-.88-.77-2.15-.08-2.01 1.1l.06.47-1.16 1.22-1.15 1.22-1.22-.03-1.21-.03-.06-1.1c-.12-2.02-.3-2.18-2.36-2.23L30 17.98V15h1.8c1.63 0 1.81.02 1.86.17.29.89.68 1.36 1.39 1.69 2.23 1.04 4.24-1.86 2.49-3.59-1.18-1.17-3.23-.64-3.77.98l-.14.4-2.01.03-2.02.02-.02 1.63-.03 1.62-1.8.06c-.99.03-1.86.03-1.92.01-.1-.03-.13-.46-.13-1.71v-1.68l.38-.24c1.13-.73.8-2.29-.49-2.29-1.36 0-1.81 1.79-.59 2.3l.3.13-.02 1.74-.03 1.74-1.95.02-1.95.02-.03-2.24c-.03-2.39-.02-2.45.48-2.56.79-.17 1.6-1.24 1.6-2.09 0-1.42-1-2.33-2.43-2.24-2.43.15-2.84 3.57-.52 4.29l.5.15v4.69l-1.2.05c-1.6.07-1.95.31-1.95 1.38 0 .22-.03.67-.06 1.01l-.07.61h-4.12l-1.22-1.22-1.23-1.23v-1.43c0-1.05.03-1.44.13-1.46.06-.03.24-.07.38-.1.43-.09.92-.49 1.24-1 1.18-1.93-.94-4.14-2.96-3.08-1.82.95-1.45 3.7.56 4.12l.3.06.03 1.54.02 1.55 1.28 1.27 1.27 1.28h4.35v3.3h-1.9c-1.58 0-1.9-.02-1.9-.14 0-.25-.49-.74-.85-.86-1.35-.44-2.19 1.61-.93 2.26.6.31 1.54-.06 1.74-.68.05-.17.2-.18 1.95-.18h1.89v2.7h-6.88l-.12-.29c-.51-1.25-2.4-.92-2.4.43 0 1.26 1.74 1.72 2.28.59l.16-.33h6.96v2h-4.44l-.58.57-.58.57v2.36l-.4.2c-1.02.52-.91 1.98.19 2.31 1.35.4 2.09-1.55.86-2.31l-.35-.22v-2.09l.52-.55.51-.54 2.11.02 2.11.03.08 1.2c.11 1.76.33 2.11 1.41 2.22l.56.06v3.52l-1.22 1.21-1.23 1.21-1.39-.06-1.39-.06-.14-.4c-.69-2.08-3.68-2.08-4.28 0-.82 2.79 2.89 4.05 4.24 1.44l.28-.54 1.49-.05 1.49-.05 1.27-1.31 1.28-1.3.02-1.8.03-1.79 1.03-.03 1.02-.03v1.87l-.3.11c-1.1.42-.73 2.33.45 2.33 1.31 0 1.76-1.96.55-2.35-.18-.06-.2-.16-.2-1.01V34l1.63.02 1.62.03.03 2.28c.02 2.1.01 2.28-.15 2.33-3.02.96-2.04 5.28 1 4.43Zm-1.48-1.22c-.77-.77-.49-1.89.54-2.17.95-.25 1.83.69 1.51 1.65-.29.88-1.41 1.16-2.05.52Zm1.56-.16c.65-.66.21-1.81-.69-1.81-.8 0-1.33.8-.98 1.48.36.69 1.15.84 1.67.33Zm-15.57-.64c-.6-.55-.57-1.52.05-1.96 1.14-.81 2.52.42 1.87 1.67-.36.69-1.32.84-1.92.29Zm27.19.08c-1.21-.52-.8-2.45.52-2.45 1.37 0 1.75 1.93.49 2.46-.41.17-.6.17-1.01-.01Zm-25.84-.09c.32-.17.51-.54.51-1.02 0-1.03-1.51-1.31-1.99-.37-.46.9.56 1.86 1.48 1.39Zm26.92-.16c.92-.5.4-2.11-.64-1.97-1.32.18-1.27 2.06.06 2.07.21 0 .47-.05.58-.1Zm-17.53-3.01c-.39-.15-.63-.72-.47-1.11.18-.44.68-.63 1.14-.44 1.05.44.4 1.95-.67 1.55Zm.9-.51c.25-.53-.19-1-.81-.84-.46.11-.54.8-.13 1.09.25.17.81.03.94-.25Zm-11.4-1.78c-.26-.27-.3-.36-.25-.67.13-.77.95-1.06 1.43-.49.76.88-.36 1.97-1.18 1.16Zm1.02-.1c.41-.41.13-1.1-.44-1.1-.59 0-.85.62-.42 1.04.3.31.59.33.86.06Zm26.39-1.79c-.35-.35-.38-.77-.09-1.14.5-.64 1.5-.3 1.5.51-.01.83-.83 1.2-1.41.63Zm.95-.12c.5-.39.24-1.09-.4-1.09-.67 0-.85.86-.24 1.17.33.17.33.16.64-.08Zm-21.19-1.21c-.03-.4-.05-3.57-.03-7.03l.03-6.3h14l.03 7.03.02 7.02H18.82zm13.83-6.3-.03-6.83-6.6-.01c-3.63-.01-6.68.01-6.77.03-.17.04-.18.45-.18 6.84v6.79h13.6zM8.96 28.59c-.35-.28-.37-.95-.03-1.27.33-.31.9-.3 1.22.03.74.73-.36 1.89-1.19 1.24Zm.84-.09c.32-.17.43-.48.3-.81-.26-.62-1.12-.45-1.18.23-.05.53.41.83.88.58Zm30.17-.01c-.26-.15-.49-.67-.41-.92.31-1.04 1.74-.87 1.74.21 0 .6-.79 1.02-1.33.71Zm.9-.31c.28-.26.3-.61.03-.88a.636.636 0 0 0-1.1.46c0 .58.63.83 1.07.42Zm-18.56-.32c-.08-.09-.11-.69-.09-1.92l.03-1.79.95-.03c1.22-.04 1.3.04 1.3 1.19 0 .88-.15 1.09-.77 1.09h-.33v.7c0 .58-.03.71-.19.8-.28.14-.77.12-.9-.04Zm5.22-.01c-.47-.2-.53-.4-.53-1.89 0-1.26.01-1.37.23-1.61.45-.53 1.72-.43 2.02.15.21.4.21 2.59 0 2.99-.24.48-1.06.65-1.72.36ZM24.6 26v-1.9h.9c.76 0 .93.03 1.09.19.28.28.37 1.02.18 1.4-.13.26-.13.32-.01.42.11.09.14.32.12.93l-.03.81-.52.03-.52.03-.04-.78-.03-.78-.02.77-.02.78h-1.1zm-1.5.95v-.75h.43c.66 0 .72-.08.72-.95 0-.91-.03-.95-1.02-.95h-.73v3.4h.6zm2.42-.02c.03-.77.1-.91.38-.73.11.07.15.28.15.8 0 .7 0 .7.28.7h.27v-.75c0-.65-.03-.76-.21-.86l-.21-.11.21-.14c.17-.12.21-.26.21-.69 0-.71-.19-.85-1.12-.85h-.68v3.4h.69zm3.39.58c.25-.2.36-2.13.16-2.83-.12-.43-1.29-.6-1.66-.24-.26.27-.24 2.92.03 3.12.3.21 1.19.18 1.47-.05Zm-1.01-1.5c0-1.1.02-1.3.16-1.35.36-.14.44.11.44 1.4v1.24h-.6zm.39-.03c0-.73-.03-1.06-.09-.93-.12.29-.12 2.05 0 2.05.06 0 .1-.44.09-1.12Zm9.76-.33c-.53-.53-.04-1.55.67-1.41 1.08.22 1.03 1.66-.06 1.66-.26 0-.44-.07-.61-.25Zm-14.95-.4c0-.56 0-.56.28-.53.25.03.27.06.27.53s-.02.5-.27.53c-.28.03-.28.03-.28-.53Zm-11.05.2c-.35-.34-.33-.78.04-1.16.46-.46 1.18-.3 1.39.31.3.85-.79 1.5-1.43.85Zm13.45-.25c0-.47.02-.5.25-.5s.25.03.25.5-.02.5-.25.5-.25-.03-.25-.5Zm13.62.33c.41-.37.1-1.03-.48-1.03-.56 0-.83.61-.44 1 .24.24.67.26.92.03Zm-26-.2c.18-.16.24-.59.1-.79-.35-.53-1.22-.24-1.22.4 0 .46.75.72 1.12.39Zm26.23-6.25a.831.831 0 0 1 .39-1.58c.8 0 1.14.84.57 1.41-.31.3-.62.36-.96.17Zm.82-.3c.2-.16.25-.59.08-.84-.31-.47-1.15-.22-1.15.35 0 .58.6.86 1.07.49Zm-4.84-2.77c-.64-.4-.84-1.12-.49-1.79.41-.79 1.67-.83 2.2-.06.75 1.08-.6 2.55-1.71 1.85Zm1.4-.41c.64-.7.16-1.75-.79-1.75-1.14 0-1.45 1.54-.4 2.01.43.19.86.1 1.19-.26Zm-26.17-.8c-1.38-.42-1.13-2.5.3-2.5 1.44 0 1.9 1.82.61 2.41-.47.21-.5.21-.91.09Zm1-.38c.85-.68.4-1.92-.69-1.92-.94 0-1.35 1.24-.62 1.88.32.27 1 .3 1.31.04Zm13.45-.48c-.74-.62-.05-1.78.85-1.44.85.33.6 1.7-.31 1.7-.13 0-.37-.12-.54-.26Zm1.01-.21c.4-.36.1-1.03-.45-1.03-.58 0-.88.6-.5 1.02.2.22.7.23.95.01Zm-5.56-1.54c-.72-.57-.74-1.65-.03-2.12 1.16-.76 2.57.61 1.82 1.76-.37.58-1.28.76-1.79.36Zm1.17-.1c.64-.33.78-1.19.28-1.7-.86-.85-2.25.26-1.61 1.29.3.48.86.65 1.33.41Z"/></svg>