<svg xmlns="http://www.w3.org/2000/svg" width="51" height="51" viewBox="0 0 51 51"><path fill="#fff" fill-rule="evenodd" stroke="#fff" stroke-width=".778" d="M14.93 40c-.49-.11-1.19-.57-1.49-.95-.56-.73-.53-.11-.53-13.55l-.01-12.45.24-.5c.55-1.19 1.82-1.74 3.04-1.31.51.18 10.53 5.55 10.77 5.77.19.18.37.02 3.2-2.82 1.6-1.6 2.98-2.95 3.09-3.01.16-.09.35.06 1.32 1.03.63.63 1.14 1.18 1.14 1.24s-2.77 2.87-6.15 6.25l-6.15 6.15-1.75-1.75-1.75-1.75-1.02 1.03-1.03 1.02 2.75 2.75c1.51 1.51 2.79 2.75 2.84 2.75.04 0 2.22-2.13 4.83-4.72 2.61-2.6 4.78-4.75 4.84-4.76.15-.06 5.95 3.09 6.39 3.46.81.68 1.02 1.74.54 2.7-.4.81-.28.73-4.54 2.97-1.76.93-6.02 3.22-13.5 7.27-1.02.56-2.68 1.47-3.7 2.04-2.11 1.17-2.58 1.33-3.37 1.14Zm1.62-.48c.33-.16 1.12-.58 1.75-.94s2.91-1.6 5.05-2.76c2.15-1.15 5.64-3.04 7.76-4.19 2.12-1.14 4.72-2.53 5.79-3.08 2.25-1.16 2.86-1.66 3.1-2.49.17-.61.03-1.24-.39-1.76-.28-.35-6.04-3.58-6.41-3.59-.08-.01-2.29 2.13-4.9 4.74s-4.79 4.75-4.84 4.75c-.09 0-5.66-5.45-5.79-5.67-.1-.17 1.97-2.33 2.23-2.33.09 0 .92.74 1.84 1.65l1.68 1.66 5.9-5.88c3.24-3.23 5.94-5.96 6-6.07.09-.16-.04-.33-.88-1.17-.54-.55-1.02-.99-1.06-.99-.05 0-1.42 1.35-3.04 3-1.63 1.65-3.01 3-3.07 3-.05 0-.5-.23-1.01-.52-1.01-.57-6.91-3.74-8.85-4.76-2.09-1.1-3.18-1-3.97.34l-.26.45.01 12.59c.01 7.62.05 12.69.11 12.84.47 1.23 1.98 1.78 3.25 1.18Z"/></svg>