<svg xmlns="http://www.w3.org/2000/svg" width="51" height="51" viewBox="0 0 51 51"><path fill="#fff" fill-rule="evenodd" stroke="#fff" stroke-width=".299" d="M23.15 48.75c-6.23-.65-13.05-4.82-16.6-10.15-7.2-10.8-4.4-25.11 6.3-32.25C29.68-4.89 52.1 9.93 48.24 29.74c-1.91 9.81-9.43 17.13-19.22 18.72-.59.1-1.09.2-1.12.24-.1.14-3.55.18-4.75.05Zm5.25-.5c10.11-1.63 17.44-8.52 19.44-18.26 2.55-12.44-5.67-24.48-18.29-26.81-1.46-.26-6.09-.32-7.5-.09-9.74 1.6-17.55 9.45-18.9 19.03C1.5 33.81 8.48 44.42 20 47.74c2.15.61 6.21.86 8.4.51Zm-3.2-.33c-.19-.15-.22-.24-.15-.48.05-.16.07-.37.06-.47-.04-.27.18-.47.49-.47.38 0 .58.25.41.52-.09.15-.1.23-.02.31.46.46-.28 1-.79.59Zm-2.5-.34c0-.7.12-1.08.32-1.08.16 0 .19.05.14.25-.04.14-.09.45-.13.7-.07.54-.33.64-.33.13Zm5.36.1c-.37-.52-.02-1.33.48-1.1.28.13.39.42.34.93-.04.44-.56.55-.82.17Zm-6.51-.04c-.11-.11-.14-.25-.1-.42.03-.13.09-.37.12-.53.04-.2.13-.31.3-.35.34-.09.52.11.25.27l-.21.13.22.11c.42.21.28.95-.18.95-.13 0-.31-.07-.4-.16Zm7.45.14c0-.09.22-1.24.26-1.4.08-.26.34-.22.34.05-.01.52-.27 1.32-.43 1.35-.09.02-.17.02-.17 0Zm-8.48-.3c-.33-.33-.01-1.38.41-1.38s.62.84.31 1.28c-.17.24-.53.29-.72.1Zm9.84 0c-.26-.87-.23-1.72.05-1.4.1.12.31 1.31.24 1.42-.09.14-.25.12-.29-.02Zm-11.63-.59c-.03-.11-.11-.15-.25-.11-.19.04-.2.02-.14-.24l.06-.29-.19.23c-.31.36-.6.17-.45-.32.06-.2.05-.2-.11.02-.18.24-.54.29-.73.1s-.14-.73.09-1.02c.36-.46.79-.29.79.33v.36l.2-.33c.11-.17.24-.32.29-.32.18 0 .23.21.09.37-.11.13-.08.13.15-.02.35-.23.52-.1.37.29-.17.45-.11.51.13.15s.43-.45.66-.3c.11.07.06.17-.25.46-.35.34-.37.38-.21.5.27.2.2.36-.15.33-.19-.02-.33-.09-.35-.19Zm13.13.02c-.43-.47-.24-1.3.27-1.17.34.08.65.83.48 1.15-.14.26-.52.27-.75.02Zm1.18-.18c-.06-.02-.09-.14-.07-.27.04-.17-.01-.25-.16-.29-.32-.08-.39-.56-.11-.79.2-.16.25-.17.44-.04.36.24.27 1.53-.1 1.39Zm1.01-.45c-.02-.07-.13-.36-.24-.65-.18-.5-.08-.98.14-.64.14.24.44 1.24.39 1.32-.08.13-.24.11-.29-.03Zm-8.57-1.25c-.03-1.12-.19-1.44-.28-.56-.06.54-.2.37-.2-.23 0-.19-.04-.34-.1-.34s-.1.22-.1.5-.04.5-.1.5-.1-.22-.1-.5-.04-.5-.1-.5c-.05 0-.1.22-.1.5s-.04.5-.1.5c-.05 0-.1-.22-.1-.5s-.04-.5-.1-.5-.1.3-.1.69-.04.73-.1.76c-.06.04-.1-.23-.1-.74 0-.47-.04-.81-.1-.81s-.1.2-.1.44c0 .25-.05.48-.11.51-.16.11-.17.04-.09-.48.05-.33.04-.47-.04-.44-.06.02-.12.19-.14.38s-.08.38-.14.44c-.07.07-.08-.06-.04-.42.04-.31.03-.53-.03-.53-.12 0-.21.25-.21.6 0 .16-.05.32-.11.36-.09.05-.1-.07-.05-.44.04-.3.03-.52-.03-.52-.1 0-.15.18-.32 1.23-.06.43-.16.8-.2.83-.12.07-.11-.06.06-1.15.09-.52.13-.96.1-1-.09-.09-.23.2-.3.61-.04.21-.11.38-.17.38-.1 0-.08-.21.08-.84.04-.16.02-.26-.04-.26-.11 0-.16.12-.27.68-.04.2-.11.3-.16.25s-.05-.23.01-.43c.13-.44.13-.63 0-.55-.06.03-.15.26-.21.51-.06.24-.15.44-.2.44-.12 0-.11-.11.06-.6.09-.26.11-.4.04-.38-.06.02-.23.4-.37.83-.14.44-.27.72-.3.62-.02-.09.06-.47.18-.82.26-.79.21-1.12-.06-.37-.1.28-.22.52-.26.52-.1 0-.1-.01.07-.5.18-.5.18-.5.06-.5-.04 0-.14.2-.21.45s-.17.45-.21.45c-.12 0-.11-.1.02-.48.06-.17.09-.39.07-.49-.03-.11-.11.02-.22.35-.1.28-.22.52-.27.52-.12 0-.12-.01.07-.45.08-.2.13-.42.11-.48-.02-.07-.12.1-.22.36-.11.3-.23.46-.31.43s-.19.12-.3.42c-.19.52-.34.74-.34.52 0-.13.37-1.17.65-1.82.16-.4-.08-.14-.26.27-.11.25-.24.45-.29.45-.14 0-.13-.06.11-.51.11-.23.18-.43.15-.46-.02-.03-.15.16-.29.43-.29.58-.43.45-.16-.15.11-.24.17-.46.14-.49-.02-.03-.13.16-.24.42-.11.25-.25.46-.31.46-.14 0-.13-.05.11-.51.2-.41.2-.57 0-.44-.06.03-.11.14-.11.24 0 .17-.39.75-.4.59 0-.03.09-.27.2-.53.32-.75.22-.66-.22.2-.49.95-.64.86-.18-.1.18-.37.29-.69.26-.73-.08-.07-.34.27-.42.56-.03.12-.12.22-.2.22-.19 0-.18-.04.12-.51.14-.23.23-.43.2-.46-.02-.03-.17.15-.33.4-.24.39-.3.44-.45.33s-.15-.15.05-.46c.11-.18.23-.28.25-.22.04.14.22.06.22-.09 0-.06-.04-.07-.1-.04s-.1.01-.1-.04c0-.23-.17-.09-.4.31-.13.23-.25.37-.28.3-.02-.07.06-.28.18-.48.12-.19.2-.37.17-.4-.04-.04-.5.62-1.11 1.59-.1.16-.2.27-.23.24-.05-.06.71-1.44.94-1.69.08-.09.13-.23.11-.3-.03-.07-.17.07-.34.34-.26.41-.31.45-.46.34-.23-.17-.23-.19.07-.66.14-.22.21-.4.16-.4s-.2.18-.32.4c-.13.22-.26.4-.31.4-.13 0-.1-.08.18-.5.15-.22.24-.43.21-.46s-.18.13-.33.35c-.14.23-.31.41-.36.41-.1 0-.06-.09.25-.53.29-.43.13-.44-.2-.01-.51.67-.72.89-.73.77 0-.06.21-.39.46-.72.26-.34.44-.64.41-.67s-.2.15-.38.4-.36.46-.41.46c-.13 0-.1-.07.24-.55.42-.59.31-.68-.12-.1-.3.4-.5.56-.5.39 0-.03.16-.26.36-.5.2-.25.34-.47.32-.5-.03-.03-.23.16-.43.41-.42.51-.61.54-.23.03.34-.45.41-.58.31-.58-.04 0-.21.18-.36.4-.16.22-.33.4-.39.4-.05 0 .07-.24.27-.52l.37-.53-.49.5c-.26.28-.63.68-.8.89-.18.22-.35.37-.38.34-.05-.05.21-.4 1.04-1.4l.45-.53-.42.39c-.54.51-.68.38-.17-.14.27-.27.34-.4.23-.4-.09 0-.3.17-.46.38-.17.2-.33.34-.36.31-.04-.04.09-.25.29-.49.19-.23.35-.44.35-.46 0-.12-.4.19-.58.43-.11.16-.24.25-.28.2-.04-.04.08-.23.26-.42s.31-.37.29-.4c-.03-.02-.21.11-.39.3-.35.36-.67.5-.36.16.1-.11.13-.21.07-.25-.05-.03-.23.1-.4.31-.17.2-.34.34-.37.3-.04-.04.16-.34.45-.67s.47-.6.41-.6c-.07 0-.09-.07-.05-.17.04-.11-.05-.07-.24.11-.21.2-.29.36-.25.48.07.23-.12.23-.25 0-.08-.15-.03-.23.25-.46.19-.15.32-.32.28-.37-.03-.05-.24.06-.46.26-.51.47-.63.36-.15-.13.51-.52.46-.61-.08-.16-.53.43-.59.35-.12-.15.27-.3.23-.28-.3.13-.34.26-.69.56-.79.67-.18.2-.34.25-.34.11 0-.06 1.21-1.12 1.59-1.39.02-.02.02-.06-.02-.09-.03-.04-.23.08-.43.25-.51.42-.57.3-.09-.19.47-.48.39-.52-.16-.08-.53.43-.6.29-.08-.16.24-.2.38-.36.31-.36-.06 0-.14.04-.17.1s-.12.1-.18.1c-.07 0-.03-.08.08-.16.14-.11.16-.18.08-.21a.22.22 0 0 1-.13-.19c0-.1-.2 0-.6.27-.77.55-.9.44-.15-.11.61-.45.69-.7.08-.27-.2.14-.4.24-.45.21s.12-.2.37-.38c.54-.39.49-.56-.06-.19-.21.14-.43.23-.5.21s.09-.17.35-.32.45-.3.43-.33c-.03-.02-.23.06-.46.19-.36.21-.42.21-.56.08-.13-.14-.1-.18.3-.4s.57-.4.39-.4c-.04 0-.49.23-1.01.51s-.97.49-1 .46c-.06-.07.36-.34 1.24-.8.35-.17.63-.38.63-.45 0-.1-.13-.06-.44.12-.49.28-.56.31-.56.17 0-.06.18-.2.4-.32.52-.29.44-.37-.09-.09-.53.27-.53.12 0-.18.52-.3.44-.4-.1-.12-.33.16-.41.17-.41.06 0-.08-.06-.16-.12-.19-.07-.02.06-.14.29-.26.24-.12.43-.26.43-.31 0-.14-.04-.13-.7.2-.33.17-.67.3-.77.3-.1-.01.17-.19.61-.41.82-.42 1.01-.84.21-.46-.4.19-.55.21-.55.09 0-.05.18-.17.4-.27s.4-.22.4-.27c0-.11-.07-.1-.41.08-.17.08-.38.13-.47.11-.11-.02 0-.11.32-.26.56-.25.58-.39.02-.16-.21.09-.43.14-.49.12s.1-.12.36-.23c.26-.1.47-.25.47-.32 0-.19-.13-.15-1.17.29-.77.33-1.25.45-1.02.25.12-.09 1.78-.86 1.88-.86.06 0 .11-.07.11-.15 0-.18.02-.18-.5 0-.24.08-.45.13-.48.11-.1-.1.1-.24.43-.3.32-.06.53-.22.43-.32-.03-.02-.27.03-.54.11-.6.18-.59.18-.45.02.06-.08.29-.19.5-.26.29-.08.39-.16.35-.26-.07-.18-.15-.18-.84 0-.63.17-.88.19-.74.06.05-.04.39-.16.76-.26.38-.1.68-.22.68-.26 0-.11.04-.12-.53.06-.35.11-.47.11-.45.03.03-.07.23-.17.46-.23.22-.05.44-.14.49-.19.08-.09-.23-.05-.82.1-.18.04-.26.03-.22-.03s.27-.16.52-.22.45-.16.45-.22-.08-.08-.17-.05c-.1.03-.35.08-.55.12-.47.08-.52-.12-.06-.21.58-.12.68-.16.68-.31 0-.18-.23-.18-1.28.02-.73.14-1.05.14-.91 0 .02-.02.42-.11.89-.19.48-.09.72-.16.55-.17-.26-.02-.24-.03.14-.11.78-.15.72-.33-.07-.2-.29.04-.52.04-.52 0s.17-.11.38-.14c.85-.14.89-.36.05-.28-.43.03-.54.02-.43-.06.08-.06.27-.11.42-.11.4 0 .58-.1.58-.31 0-.19-.71-.21-1.57-.03-.12.02-.24 0-.28-.05-.03-.05.21-.12.52-.16.86-.09 1.46-.26.71-.2-.36.03-.58.01-.58-.05 0-.05.15-.1.33-.1.39 0 .77-.1.77-.19 0-.04-.28-.06-.63-.03-.45.02-.58 0-.47-.07.08-.06.37-.11.63-.11.35 0 .47-.04.44-.12-.03-.09-.21-.12-.55-.1-.73.05-.75-.15-.02-.24 1.12-.12.78-.34-.54-.34-.66 0-1.17-.04-1.21-.1s.36-.11 1.12-.11c.86-.01 1.04-.04.66-.08-.75-.09-.76-.21-.02-.22l.64-.01-.53-.08c-.74-.11-.77-.2-.07-.2s.68-.06-.06-.19l-.54-.09.6-.02c.63-.02.46-.17-.22-.19-.18-.01-.33-.06-.33-.12 0-.07.18-.08.55-.04.36.05.55.04.55-.03 0-.06-.35-.14-.8-.18-.44-.03-.83-.11-.87-.17s.24-.07.81-.02c.83.07.86.06.86-.14 0-.18-.06-.21-.42-.21-.24 0-.5-.05-.58-.1-.18-.12-.1-.13.59-.1.37.01.51-.01.47-.09-.04-.06-.24-.11-.44-.11s-.44-.05-.52-.11c-.11-.08 0-.09.42-.05 1.23.13.65-.26-1-.65-.23-.06-.42-.15-.42-.2 0-.12.03-.12.95.11.86.21 1.32.26 1.05.11-.08-.05-.32-.11-.52-.15-.21-.04-.38-.12-.38-.17 0-.1.17-.08.89.08.16.04.22.02.17-.06-.04-.06-.25-.14-.47-.17-.22-.04-.42-.11-.45-.15-.07-.12.23-.11.64 0 .25.08.32.07.29-.02-.02-.07-.2-.16-.4-.21S7 21.3 7 21.23c0-.14.37-.1.72.08.1.05.19.05.22 0s-.14-.15-.39-.22-.45-.19-.45-.25-.14-.14-.32-.18c-.17-.03-.29-.09-.25-.12.09-.09.66.06.82.22.17.18.63.24.65.09.01-.05-.19-.16-.44-.24-.48-.15-.65-.38-.2-.27.15.04.4.09.58.12l.31.04-.35-.15c-.73-.32-.78-.36-.4-.31.19.03.46.08.6.12.39.11.11-.12-.33-.26-.2-.06-.37-.16-.37-.21 0-.13.12-.11.55.07.2.08.39.13.42.1.1-.1-.09-.26-.47-.37-.22-.07-.37-.16-.34-.2.03-.05-.25-.22-.62-.39-1.05-.47-.67-.48.45 0 .55.23 1.06.4 1.13.37.07-.02-.11-.14-.39-.27-.29-.12-.5-.26-.47-.31s.22-.02.42.07c.7.3.68.3.54.11-.08-.09-.29-.22-.48-.29-.19-.06-.34-.16-.34-.2 0-.13.18-.09.6.12.22.11.4.16.4.1 0-.05-.21-.2-.47-.33-.26-.14-.41-.27-.35-.31.06-.03.26.03.44.14.35.21.58.26.58.12 0-.05-.18-.17-.4-.27s-.38-.21-.35-.24-.09-.13-.27-.23c-.18-.09-.26-.17-.17-.18.09 0 .4.13.7.3.58.32.69.35.69.2 0-.05-.18-.19-.4-.3s-.4-.25-.4-.3c0-.06.18-.01.41.1.22.12.46.19.52.17.07-.02-.09-.15-.36-.28-.26-.12-.47-.27-.47-.31 0-.12.07-.1.51.13.54.27.62.17.1-.13-.22-.13-.41-.26-.41-.31 0-.11.05-.09.45.14.47.28.57.18.1-.11-.48-.3-.36-.4.14-.12.22.13.42.18.45.14.03-.05-.22-.24-.57-.42-.89-.47-1.4-.81-1.33-.87.03-.03.3.09.6.26.59.33.71.37.61.21-.03-.06-.02-.1.04-.1.13 0 .23.17.14.23-.05.02-.03.02.04.01.06-.02.23.06.37.17.13.11.27.16.29.12.03-.05-.12-.21-.34-.37-.35-.27-.49-.46-.33-.46.03 0 .24.14.46.31.21.17.41.29.44.26.1-.09-.06-.27-.48-.53-.22-.14-.37-.28-.34-.31s.24.06.46.21c.6.39.73.26.15-.14-.27-.19-.43-.36-.36-.38s.22.04.34.15c.42.36.57.46.57.35 0-.06-.27-.32-.6-.58-.59-.46-.76-.73-.26-.4.29.18.4.21.31.06-.12-.19.17-.1.47.15.31.26.48.32.48.16 0-.05-.16-.19-.35-.31s-.35-.26-.35-.31c0-.11.09-.07.52.23.37.26.46.22.18-.07-.13-.14-.29-.25-.37-.25-.07 0-.13-.07-.13-.16 0-.16.5.12.65.37.04.05.11.06.17.03.06-.04-.05-.21-.28-.4-.22-.18-.34-.33-.27-.34.06 0 .25.11.41.25.32.27.42.31.42.16 0-.05-.31-.32-.69-.6-.73-.55-.97-.78-.88-.87.03-.03.23.11.45.3q.39.36.57.3c.11-.04.27.04.49.25.18.17.35.28.39.25.04-.04-.1-.22-.31-.4-.2-.17-.34-.36-.29-.4.04-.04.23.08.42.26.44.43.59.31.17-.13-.46-.48-.39-.58.08-.12.22.21.4.34.4.29 0-.06-.13-.23-.3-.39-.16-.15-.27-.32-.24-.36.03-.05.19.07.36.27.17.19.33.32.36.3.03-.03-.21-.35-.52-.71-.32-.36-.53-.65-.47-.65.05 0 .33.27.62.59.29.33.56.58.61.55s-.07-.24-.27-.46c-.48-.52-.36-.63.15-.13.22.22.4.34.4.29 0-.06-.13-.23-.3-.39-.33-.32-.38-.45-.15-.45.08 0 .15-.08.15-.17 0-.11.12-.02.36.26.46.53.57.46.14-.09-.25-.32-.3-.44-.2-.5s.04-.19-.24-.53c-.2-.24-.36-.48-.36-.52 0-.13.39.26.92.93.52.65.82.8.33.17-.15-.2-.24-.39-.2-.43.06-.07.36.24.55.57.05.09.12.13.15.09.04-.04-.05-.22-.19-.41-.38-.49-.31-.59.09-.12.18.22.37.36.41.33.04-.04-.08-.24-.25-.44-.18-.2-.29-.39-.26-.43.04-.03.22.12.41.33.4.46.46.38.08-.12-.2-.25-.23-.36-.14-.42s.08-.14-.05-.34c-.38-.57-.04-.33.4.29.49.68.74.83.35.21-.12-.2-.2-.42-.17-.49.02-.06.14.07.26.3.12.24.26.43.31.43.17 0 .11-.17-.16-.5-.15-.17-.23-.34-.19-.38.06-.07.36.24.55.57.05.09.11.13.15.09.04-.03-.05-.23-.19-.44-.14-.2-.23-.42-.19-.47.03-.05.16.1.3.33s.27.39.3.36-.04-.2-.16-.39c-.23-.38-.25-.47-.12-.47.05 0 .14.13.21.3.07.16.19.35.28.42s-.08-.31-.37-.85-.51-1.03-.48-1.1c.02-.06.17.14.34.44.7 1.25.78 1.39.86 1.39.05 0-.03-.2-.17-.45-.15-.25-.22-.45-.17-.45.06 0 .2.19.32.42.12.24.24.37.26.31.03-.07-.05-.28-.16-.47-.12-.19-.18-.37-.13-.4s.19.13.31.35c.13.22.26.38.29.35.03-.04-.05-.24-.17-.46s-.18-.4-.12-.4.2.18.31.41c.12.23.24.39.26.36.03-.03-.04-.23-.15-.46-.23-.45-.25-.51-.13-.51.05 0 .17.18.27.4s.22.4.27.4c.11 0 .11 0-.22-.73-.49-1.08-.31-1.07.2.01.18.37.34.62.37.55.02-.06-.03-.25-.11-.42-.18-.34-.2-.51-.07-.51.05 0 .16.18.25.4s.2.4.26.4.01-.18-.1-.41c-.12-.23-.19-.43-.16-.46.02-.03.14.12.25.34.11.21.2.34.2.28 0-.05-.06-.21-.14-.35-.16-.29-.18-.4-.07-.4.05 0 .16.18.26.41.22.5.33.45.12-.06-.24-.57-.06-.65.2-.09.32.71.29.3-.06-.73-.51-1.5-.34-1.42.25.12.21.55.4.94.43.87.02-.07-.03-.3-.12-.52-.08-.21-.11-.42-.07-.45.05-.03.17.15.27.4.25.66.46.62.23-.04-.08-.22-.08-.36-.02-.42.07-.07.14.05.22.35.06.25.16.46.22.46.07 0 .09-.09.05-.22-.19-.66-.19-.78-.01-.78.15 0 .17-.06.12-.35-.11-.65.11-.35.29.4.1.41.22.75.27.75s.06-.11.03-.25-.09-.36-.12-.5c-.04-.14-.02-.25.04-.25.05 0 .15.23.22.51s.16.47.21.42c.04-.04.04-.26-.01-.48s-.05-.44-.01-.48c.09-.09.15.04.26.61.04.17.11.32.17.32.1 0 .08-.21-.08-.85-.05-.21-.04-.27.07-.23.08.03.18.26.23.51.04.26.12.47.18.47.05 0 .07-.08.04-.17-.08-.3-.27-2.05-.22-2.1.07-.07.14.24.29 1.2.08.48.17.91.21.94.13.13.16-.05.07-.5-.04-.26-.05-.47-.01-.47.11 0 .2.27.2.61 0 .16.05.29.11.29s.1-.18.09-.42-.01-.47 0-.53c.03-.2.19.31.19.63.01.17.06.32.12.32.08 0 .1-.17.07-.5-.04-.35-.02-.5.06-.47.06.02.12.25.14.5.05.81.22.51.22-.39 0-.54.04-.83.1-.79.05.03.1.4.1.81 0 .43.04.74.1.74s.1-.21.11-.47c0-.36.03-.43.09-.28.08.19.09.19.09-.03.02-.55.25-.19.34.53.02.17.05.07.06-.25.03-.6.19-.45.2.18.01.53.21.36.21-.18 0-.66.18-.64.23.02.02.29.04.03.05-.59s.06-1.15.12-1.18c.06-.04.1.35.1 1.09 0 .71.04 1.16.1 1.16s.1-.22.1-.5c0-.67.2-.64.21.03.01.53.03.51.14-.16.09-.54.25-.45.26.16.01.53.03.51.14-.16.09-.53.26-.36.18.18-.04.29-.02.45.05.45.13 0 .18-.18.27-.92.03-.32.11-.58.16-.58s.07.1.05.22c-.03.13-.08.49-.11.81-.08.71.1.78.2.07.09-.65.26-.65.18 0-.04.34-.02.5.06.5.06 0 .11-.18.11-.44 0-.25.05-.48.1-.51.06-.04.1.13.1.44 0 .28.05.51.1.51.06 0 .1-.1.1-.22 0-.34.11-.68.22-.68.05 0 .06.22.02.5-.06.42-.04.5.1.5.1 0 .16-.08.16-.24 0-.37.31-1.8.41-1.91.13-.13.11.04-.1 1.18-.1.53-.15 1-.1 1.02.08.05.13-.08.24-.63.04-.18.11-.3.16-.26.08.05.06.26-.08.77-.02.09 0 .17.06.17.05 0 .13-.2.17-.45.04-.28.11-.44.18-.42.11.04.11.27 0 .75-.03.17-.01.23.08.2.07-.03.17-.23.22-.46.11-.51.31-.57.22-.06-.04.19-.1.42-.13.5s0 .14.06.14c.07 0 .13-.06.15-.12.02-.07.12-.41.21-.75.1-.35.22-.63.27-.63s.07.08.04.18c-.03.09-.1.37-.16.62s-.13.53-.16.63c-.03.09-.01.17.04.17s.15-.2.21-.45.16-.43.2-.4c.06.03.05.2 0 .41-.14.5-.05.67.11.19.26-.82.38-.62.14.23-.11.4.11.23.27-.2.17-.46.39-.62.39-.28 0 .12-.03.19-.07.17-.05-.03-.09.13-.1.36-.04.55.08.39.47-.68.18-.49.36-.94.41-1 .18-.19.08.21-.27 1.14-.19.51-.32.96-.3.99.06.05.36-.6.36-.78 0-.12.13-.13.24-.03.04.05.13.08.19.08.14.01.13.08-.07.57-.21.5-.12.48.14-.02.12-.23.25-.38.3-.35.06.04.01.23-.11.47-.11.22-.18.42-.16.44s.15-.16.28-.4c.13-.25.27-.42.31-.4.04.03-.01.23-.12.44-.22.44-.24.5-.11.5.04 0 .21-.29.36-.65.16-.36.32-.65.37-.65.12 0 .11.05-.21.75-.31.68-.27 1 .04.37.1-.2.18-.4.17-.44s.05-.05.14-.01c.08.03.13.12.1.2-.04.08-.09.26-.12.4-.04.16-.11.22-.21.19-.08-.03-.11-.01-.08.04.11.18.25.1.42-.25.16-.34.33-.46.33-.25 0 .06-.07.25-.16.42-.09.18-.12.34-.07.39.06.06.17-.06.28-.31.1-.22.22-.4.27-.4.12 0 .1.06-.12.5-.11.22-.17.4-.13.4.1 0 .52-.66.87-1.37.15-.29.31-.53.37-.53s-.05.29-.25.65-.36.67-.36.7-.07.19-.16.36c-.08.17-.13.33-.1.37.03.03.06 0 .06-.06 0-.23.52-.73.65-.62.11.09.08.2-.12.55-.31.56-.22.59.13.05.15-.22.3-.37.35-.34s-.03.23-.18.45c-.22.34-.24.42-.12.5.22.14.23.13.73-.52.63-.81.71-.68.11.16-.26.37-.45.68-.43.71.03.02.2-.17.38-.43.19-.26.36-.41.38-.34.02.06-.08.27-.22.46-.38.49-.31.57.09.1.43-.5.58-.39.16.12-.45.54-.37.66.09.13.48-.55.61-.49.19.09-.17.23-.29.44-.27.46.02.03.2-.16.39-.41.18-.25.35-.4.37-.35.02.06-.11.3-.29.53-.54.67-.18.39.52-.41.35-.41.71-.77.79-.79.08-.03-.07.21-.34.52-.35.42-.46.6-.37.66.15.08.03.37-.23.6-.09.07-.16.18-.16.24.01.06.16-.07.35-.28.45-.51.57-.39.15.14-.4.5-.28.52.22.03.46-.45.5-.32.07.2-.17.21-.29.4-.26.43s.2-.13.37-.35c.18-.22.37-.38.42-.35s-.07.24-.27.46-.34.42-.31.46c.03.03.31-.23.62-.57.71-.78.85-.71.16.08-.61.7-.68.91-.13.37.21-.21.41-.34.44-.28.04.05-.09.24-.28.42s-.32.37-.28.42c.03.06.22-.07.43-.27s.4-.33.43-.27c.04.05-.09.24-.28.42-.19.19-.35.38-.35.44s.18-.07.39-.28c.37-.36.41-.38.56-.22.15.15.2.14.59-.19.77-.63.63-.36-.24.45-.85.8-1.06 1.2-.31.59.55-.44.63-.31.1.15-.24.2-.38.36-.32.36s.16-.07.23-.15.17-.15.23-.15 0 .12-.14.27l-.24.27.25-.17c.47-.32.6-.38.6-.28 0 .05-.16.19-.36.31-.24.15-.32.26-.25.33s.22 0 .47-.22c.2-.18.39-.29.43-.26.03.04-.12.22-.34.4-.61.52-.37.5.28-.01.31-.25.62-.44.68-.42.07.02-.16.26-.5.53-.33.28-.61.53-.61.58 0 .13.57-.21.63-.38.06-.15.37-.22.37-.07 0 .04-.19.2-.41.36-.35.25-.51.53-.24.44.06-.02.09-.05.08-.08s.08-.07.19-.07c.12-.01.26-.07.32-.14.08-.09.07-.1-.06-.06-.25.09-.22 0 .03-.14.15-.08.19-.08.15 0-.04.06 0 .11.08.11.27 0 .18.14-.29.43-.25.16-.42.33-.39.38s.24-.04.47-.21c.54-.39.61-.3.11.16-.21.2-.28.29-.14.2.45-.28 1.67-.96 1.74-.96.21 0-.04.21-.71.58-.92.51-1.19.7-1.11.78.03.03.25-.06.47-.2.27-.17.41-.22.41-.13 0 .07-.16.21-.35.31-.19.11-.35.23-.35.29 0 .05.2-.03.45-.17.25-.15.45-.22.45-.17 0 .06-.18.21-.4.33-.22.13-.4.27-.4.31 0 .05.2-.03.44-.17.47-.28.56-.3.56-.18 0 .04-.19.17-.41.3-.52.3-.44.4.09.13.23-.12.43-.17.46-.13.03.05-.15.18-.39.3-.25.12-.45.26-.45.32 0 .15.06.13.76-.26.36-.2.68-.34.71-.3.08.08.07.09-.66.45-.67.34-.79.52-.17.26.3-.13.41-.13.53-.04.22.19-.12.36-.35.17-.15-.11-.15-.11-.05.03.11.13.09.18-.12.27-.14.06-.25.16-.25.22 0 .15.11.12.49-.11.18-.11.38-.18.45-.16.06.02-.08.13-.31.25-.49.25-.69.48-.32.37.13-.04.36-.14.52-.22s.27-.09.27-.03-.2.2-.45.32-.45.25-.45.3c0 .08.09.05 1.27-.45.89-.38 1.24-.35.43.03-.28.13-.5.27-.5.31s-.22.15-.5.25c-.27.1-.5.24-.5.31 0 .16.03.16.47-.02.41-.17.53-.19.53-.06 0 .04-.2.14-.45.21s-.45.17-.45.21c0 .12.11.11.58-.05.24-.09.44-.11.47-.06s-.15.15-.4.21-.48.16-.52.22.04.07.22.03c.94-.24 1.17-.18.35.09-.81.27-.57.35.3.1.44-.12.8-.19.8-.14 0 .08-.43.22-1.08.35-.55.11-.48.25.1.2l.53-.06-.55.2c-.52.19-.38.2.39.02.43-.09.14.15-.34.28-.24.07-.42.16-.4.21.03.04.26.02.5-.06.25-.07.47-.09.5-.05.05.08-.55.3-.82.3-.07 0-.13.05-.13.11 0 .11.5.06.86-.08.08-.03.14 0 .14.06s-.18.14-.4.17c-.22.04-.43.11-.46.15-.07.12 0 .12 1.05-.11.82-.18 1.44-.22 1.01-.07-.56.2-1.84.57-1.96.57-.08 0-.14.07-.14.15 0 .12.11.14.62.09.46-.04.59-.03.48.05-.08.06-.32.11-.52.11s-.4.05-.44.12c-.05.08.08.09.49.04.34-.03.57-.02.57.03s-.25.13-.55.16c-.72.09-.71.22.03.19l.57-.03-.54.1c-.84.15-.74.2.25.13.64-.04.85-.03.74.05-.08.06-.45.11-.82.11-.38 0-.68.04-.68.1 0 .05.2.07.49.03.31-.03.51-.01.55.06.05.08-.11.11-.51.12-.64.01-.62.04.1.14.65.09.59.23-.1.28l-.58.03.58.02c.31.01.57.06.57.12 0 .05-.26.11-.57.13l-.58.03.58.02c.73.03.75.22.02.22-.3 0-.55.04-.55.1s.45.1 1.15.1 1.15.04 1.15.1-.45.1-1.15.1c-.96 0-1.15.03-1.15.15 0 .11.13.15.54.15.3 0 .58.05.61.1.04.06-.17.1-.54.1-.48 0-.61.03-.61.15s.13.15.55.15c.76 0 .7.18-.07.22l-.63.03.62.09c.77.11.74.24-.04.2l-.58-.03.6.1c1.14.19 1.27.29.33.25-.79-.03-.88-.02-.88.14 0 .19.27.3.72.3.15 0 .3.05.34.11.05.09-.09.1-.55.05-.7-.08-.86.08-.18.19.69.12.8.27.14.2-.94-.09-.66.16.51.46 1.61.4 1.53.53-.13.19-.53-.11-.98-.2-1-.2-.27 0-.06.39.24.45.55.09.71.15.71.26 0 .1-.18.08-.87-.08-.13-.03-.23-.01-.23.05 0 .05.22.15.5.22.27.07.48.16.45.2s-.22.04-.42-.01c-.49-.11-.63-.11-.63 0 0 .06.2.13.45.17.48.07.72.24.33.24-.13 0-.38-.04-.56-.09-.17-.05-.32-.06-.32-.02s.36.15.8.25c1.2.28 1.17.44-.03.21-.43-.08-.8-.15-.82-.15-.29 0-.06.32.31.41.51.13.75.36.27.26-.17-.03-.42-.09-.57-.13-.47-.12-.28.14.24.31.28.09.5.21.5.26 0 .12 0 .12-.5-.06-.62-.22-.94-.08-.35.15.14.05.65.28 1.13.51.95.46 1 .66.06.24-1.27-.57-1.52-.65-1.58-.5-.03.09.11.19.45.31.27.1.49.22.49.26 0 .11-.02.11-.54-.12-.25-.1-.46-.15-.46-.11 0 .05.2.17.45.28.25.1.45.21.45.26 0 .11-.22.08-.5-.08-.14-.08-.34-.14-.45-.14-.13 0-.03.09.28.25.26.13.47.29.47.34 0 .14-.05.13-.51-.11-.23-.11-.43-.18-.46-.15-.09.08.07.26.4.42.18.09.34.2.37.24s.19.14.35.23c.22.12.25.16.12.17-.1 0-.48-.16-.83-.36-.5-.28-.64-.32-.64-.2 0 .09.03.16.08.16.13 0 .74.41.69.46-.03.03-.23-.04-.46-.15-.45-.24-.51-.25-.51-.12 0 .05.15.15.34.21s.4.18.46.26c.17.19.07.18-.4-.06-.44-.22-.5-.24-.5-.12 0 .05.18.17.4.27s.4.22.4.27c0 .04-.18-.01-.41-.12-.54-.28-.62-.19-.1.11.23.12.41.26.41.31 0 .12-.07.1-.5-.17-.45-.29-.5-.3-.5-.13 0 .07.39.33.86.58.79.42 1.19.7.98.7-.05 0-.41-.18-.79-.41-1.03-.6-1.14-.65-.72-.29.48.41.4.51-.13.16-.42-.28-.5-.31-.5-.18 0 .04.18.18.4.32.39.24.51.4.29.4-.06 0-.25-.11-.43-.25-.34-.26-.46-.3-.46-.17 0 .04.18.18.4.32.55.34.51.48-.04.16-.62-.36-.71-.32-.14.05.27.17.48.35.48.4 0 .14-.09.11-.56-.22-.75-.51-.62-.24.15.32.39.28.7.54.67.56-.06.07-.56-.21-1-.56-.43-.35-.64-.32-.4.05.16.23.32.35.18.13-.03-.06.06-.03.21.07s.23.2.16.22c-.06.02-.09.08-.05.13.1.16-.09.09-.42-.16-.52-.4-.63-.28-.14.15s.41.56-.08.15c-.17-.14-.36-.25-.43-.25-.08.01.04.16.26.35.22.18.36.37.32.41s-.23-.08-.42-.26-.38-.31-.42-.27c-.03.04-.04.08-.02.1.02.01.38.32.79.67s.77.66.79.67c.02.02.01.06-.02.09-.04.04-.24-.08-.46-.27-1.14-.99-1.67-1.31-.96-.59.46.47.36.53-.14.1-.19-.17-.36-.28-.39-.26-.02.03.12.19.32.37.2.17.34.34.32.37-.03.02-.22-.1-.42-.27-.2-.18-.39-.29-.42-.26-.04.03.08.17.26.31s.32.33.32.42c0 .11-.1.06-.35-.18-.44-.43-.59-.31-.17.13.18.18.29.36.26.4-.04.03-.21-.1-.4-.31-.18-.2-.36-.33-.41-.28-.04.04.21.35.57.67.68.62.71.77.07.34-.2-.14-.37-.22-.37-.18s-.1-.06-.21-.24c-.13-.21-.26-.3-.35-.26-.12.04-.07.14.22.44.5.51.35.64-.16.14-.48-.47-.52-.39-.08.16.43.53.29.6-.16.08-.2-.23-.39-.4-.42-.36-.07.07.45.77.58.77.05 0 .06.05.03.1-.05.08-.12.07-.23-.02-.22-.18-.01.21.46.85.19.26.32.5.29.53s-.3-.27-.6-.68c-.54-.72-.97-1.18-.97-1.03 0 .04.11.2.25.37.27.32.35.59.12.39-.18-.14-.3-.02-.16.16.07.08.08.13.01.13-.12 0-.42-.44-.42-.61 0-.07.09-.04.21.07.22.19.22.19.11-.02-.19-.35-.35-.43-.54-.23-.15.16-.14.19.13.51.28.32.38.63.2.56-.06-.02-.2-.18-.33-.37s-.29-.37-.37-.39c-.07-.03 0 .16.18.41.33.49.36.57.21.57-.05 0-.22-.18-.36-.4-.15-.22-.31-.4-.37-.4-.1 0 .3.56.69.95.13.13.24.3.24.37-.01.07-.09.03-.2-.1s-.24-.21-.29-.18c-.05.04-.24-.14-.41-.39-.4-.58-.59-.49-.24.11.33.57.24.7-.1.15-.15-.23-.31-.41-.36-.41-.15 0-.12.1.15.46.26.34.32.54.16.54-.06 0-.2-.18-.32-.4-.13-.22-.28-.4-.36-.4-.13 0 .19.64.38.76.05.03.09.1.09.16s-.12.01-.27-.13l-.27-.24.21.3c.32.47.73 1.32.66 1.39-.03.03-.3-.38-.59-.9-.58-1.05-.61-1.1-.7-1.01-.03.03.07.27.22.53.17.29.22.45.14.42-.08-.02-.23-.23-.35-.46-.14-.28-.25-.38-.34-.33-.09.06-.06.17.13.46.27.39.32.55.18.55-.04 0-.18-.2-.32-.44-.13-.25-.28-.42-.32-.4-.05.03.02.25.16.5.15.26.2.46.15.5-.13.07-.12.08-.38-.43-.12-.24-.26-.43-.31-.43-.15 0-.12.12.21.85.41.9.29.95-.15.06-.3-.59-.6-1.01-.43-.58.03.06.12.29.21.5.23.53 0 .47-.26-.08-.26-.52-.45-.5-.22.03.09.2.18.43.21.5.03.06 0 .12-.06.12-.07 0-.21-.21-.31-.46-.11-.25-.24-.43-.3-.39-.06.03-.02.2.1.43.22.41.25.62.1.62-.06 0-.2-.21-.32-.48-.34-.78-.31-.32.05.77.19.56.3 1 .24.98s-.26-.48-.44-1.02c-.19-.55-.36-1.01-.38-1.04-.14-.13-.13.11 0 .49.18.51.19.63.03.58-.06-.02-.2-.26-.29-.54-.1-.27-.18-.42-.18-.33-.01.09.06.33.14.52.24.59.16.57-.11-.02-.27-.6-.43-.66-.19-.07.09.21.14.45.13.54-.02.1-.12-.07-.22-.36-.1-.28-.22-.52-.27-.52-.12 0-.12 0 .06.5.08.24.13.45.11.48-.1.09-.26-.1-.26-.32 0-.27-.29-.71-.3-.44 0 .09.09.45.2.8.21.68.25.92.12.84-.04-.03-.19-.4-.32-.83-.28-.91-.26-.87-.38-.79-.06.04-.05.23.04.53.08.25.12.48.1.51-.11.1-.25-.11-.31-.48-.04-.22-.11-.43-.17-.46-.07-.05-.08.06-.03.32.11.57.11.59 0 .62-.06.01-.14-.14-.18-.35s-.12-.42-.17-.47c-.12-.12-.13.06-.01.56.05.22.05.38 0 .38-.08 0-.14-.19-.21-.64-.02-.11-.08-.21-.14-.23-.08-.03-.06.28.07.94.21 1.15.23 1.31.1 1.18-.05-.06-.18-.53-.28-1.06s-.22-.96-.28-.97c-.05 0-.09.03-.09.06.11.57.13.92.04.92-.05 0-.12-.22-.16-.5-.04-.27-.11-.5-.17-.5s-.07.19-.03.49c.04.28.02.52-.03.55s-.12-.16-.16-.44c-.09-.67-.3-.67-.22 0 .03.28.02.5-.03.5-.04 0-.11-.22-.15-.5-.11-.82-.28-.6-.23.3.03.44.02.8-.02.8-.08 0-.2-.75-.2-1.21 0-.16-.04-.29-.1-.29-.05 0-.1.22-.1.5s-.04.5-.1.5c-.05 0-.1-.22-.1-.5 0-.33-.04-.5-.12-.5-.09 0-.12.15-.1.5.03.32 0 .5-.07.5s-.11-.2-.11-.5c0-.28-.04-.5-.1-.5s-.1.22-.1.5-.04.5-.1.5c-.05 0-.1-.2-.1-.44 0-.25-.04-.48-.1-.51-.06-.04-.1.31-.1.99 0 1.41-.18 1.49-.22.09Zm-10.18.49c-.25-.2-.2-.42.24-.91.15-.17.17-.25.08-.28-.06-.03-.12-.09-.12-.14 0-.14.33-.11.57.06l.22.16-.39.35c-.45.41-.48.5-.19.59.11.04.18.12.16.18-.06.2-.32.19-.57-.01Zm20.07 0c-.46-.5-.39-1.21.11-1.22.23 0 .72.57.72.84 0 .49-.51.73-.83.38Zm1.13-.47c0-.09.06-.18.14-.21a.45.45 0 0 0 .21-.22c.05-.14.04-.15-.06-.04-.19.18-.53.15-.73-.07-.4-.44.19-1.16.62-.78.35.32.48 1.08.22 1.29-.27.22-.4.23-.4.03ZM14.4 45c0-.27.56-1.2.72-1.2.23 0 .23 0-.12.7-.26.52-.6.8-.6.5Zm-.88-.42c-.27-.27-.01-1.11.38-1.23.3-.1.6.12.6.43 0 .64-.63 1.15-.98.8Zm23.63-.53c-.38-.59-.43-.75-.21-.75.17 0 .89 1.07.81 1.2-.12.19-.26.09-.6-.45Zm-25.09-.54c-.09-.09-.16-.22-.16-.28s-.12-.14-.27-.18c-.34-.08-.53-.23-.53-.41 0-.16.5-.64.67-.64.16 0 .17-.12.01-.28-.09-.09-.09-.15-.01-.23s.29.06.79.53l.67.65-.47.19c-.42.17-.46.22-.41.46.08.33-.07.43-.29.19Zm13.27-1.56-.02-1.72c-.01-.09-.2-.13-.6-.13-.69 0-2.07-.23-3.07-.5-.38-.11-.73-.2-.77-.2s-.07.8-.07 1.78v1.79l.98.22c1.15.25 2.26.39 3.02.37l.54-.01zm3.49 1.35c.54-.11 1.09-.25 1.23-.3l.25-.1v-3.42l-.22.05c-1.44.34-2.31.49-3.25.54l-1.13.06-.01.56c0 .31-.02 1.1-.05 1.75l-.06 1.19 1.14-.07c.62-.04 1.57-.16 2.1-.26Zm9.77.2c-.23-.14-.42-.65-.35-.95.14-.56 1.16-.05 1.16.59 0 .41-.42.59-.81.36Zm1.11-.6c0-.06-.06-.1-.14-.1-.14 0-.66-.71-.66-.91 0-.07.09-.09.21-.06s.3 0 .4-.06c.31-.19.63.48.4.85-.07.11-.07.18-.01.18.05 0 .1.04.1.1s-.07.1-.15.1-.15-.04-.15-.1Zm-19.2-1.88v-1.78l-.85-.38c-.94-.42-2.1-1.19-2.79-1.83l-.45-.43-.3.26-.31.26v3.48l.52.34c1.01.64 3.63 1.84 4.06 1.86.09 0 .12-.42.12-1.78Zm11.08 1.49c.92-.34 2.43-1.09 3.19-1.57l.53-.34v-1.75c0-.96-.01-1.75-.03-1.75s-.51.29-1.09.64c-1.02.61-2.34 1.22-3.18 1.47l-.4.12v.82c0 .84.11 2.65.16 2.65.01 0 .38-.13.82-.29Zm-18.9.04c.04-.04-.04-.15-.18-.25-.26-.2-1 .04-1 .32 0 .11 1.06.05 1.18-.07Zm-2.32-.41c-.28-.73.78-1.61 1.14-.95.15.29.13.37-.21.76-.34.38-.82.48-.93.19Zm29.8-.45c-.47-.53-.53-.64-.37-.74.15-.09 1.16 1.06 1.04 1.19-.12.12-.21.06-.67-.45Zm-30.82-.67c-.33-.23-.2-.81.19-.83.55-.01.64-.15.27-.38-.19-.11-.42-.18-.5-.15s-.22.07-.29.08c-.2.04-.25.24-.11.4.15.19-.06.32-.25.16-.24-.2-.28-.5-.1-.7.17-.18.16-.19-.26-.17-.65.03-.8-.42-.29-.85.68-.57 1.12-.48.94.2-.07.28-.06.43.04.62.13.23.13.24.09.02-.07-.32.18-.55.43-.4.13.08.16.16.1.22-.15.15-.12.26.05.2.16-.07.85.6.85.82 0 .07-.19.16-.45.2-.49.07-.64.19-.46.37.22.22.02.38-.25.19Zm31.93-.22c-.48-.38-.44-1.1.06-1.1.26 0 .84.44.92.71.16.49-.51.76-.98.39Zm-25.79-2.57-.03-.77-.57.51c-1.53 1.39-1.56.97-.08-1.12l.78-1.1-.05-.67-.06-.68-.65.52c-.72.58-2.32.88-2.32.44 0-.3.39-.93.75-1.23l.35-.29-.32-.5c-3.48-5.45-2.89-12.44 1.46-17.36l.86-.97V12.9c0-1.26-.04-2.1-.09-2.08-.57.2-3.04 2.53-3.94 3.69l-.57.75-.07 10.27-.06 10.26.56.73c.67.87 2.35 2.55 3.32 3.32l.7.56.03-.7c.02-.38.02-1.04 0-1.47Zm21.12 1.48c1.13-.91 2.22-1.99 2.98-2.94l.62-.78-.01-4.82c-.01-3.35-.04-4.56-.1-3.97-.35 3.4-1.75 6.67-3.78 8.79l-.71.74v1.83c0 1.01.03 1.84.08 1.84.04 0 .45-.31.92-.69Zm5.38.14c-.59-.39-.65-.88-.11-1.01.34-.09.78.36.67.69-.06.2-.05.2.1.08.27-.22.45.02.21.29-.23.26-.41.25-.87-.05Zm-16.64-.21c.08-.2.08-1.84 0-2.5l-.07-.52-.86-.11c-.93-.12-2.24-.46-3.09-.8l-.52-.21.02 1.78.03 1.77.76.22c1.73.49 3.61.68 3.73.37Zm3.46-.14c1.67-.35 1.5-.11 1.5-2.13v-1.73l-.97.33c-1.05.34-2.48.63-3.19.63h-.44v3.23l1.03-.06c.56-.03 1.49-.15 2.07-.27Zm13.87-.66c-.46-.37-.55-.49-.46-.6.13-.16.22-.11.88.49.23.21.39.42.36.47-.1.16-.17.12-.78-.36Zm-10.78-.32c.96-.4 2.28-1.12 2.95-1.59l.46-.33v-5.15l-.27.4c-.8 1.21-2.13 2.39-3.52 3.13l-.81.43v1.07c0 .59-.03 1.4-.07 1.81l-.06.73.24-.07c.13-.04.62-.23 1.08-.43ZM20.5 37.11v-1.79l-.52-.31c-.29-.17-.65-.38-.8-.47l-.26-.17-1.11.98c-.62.54-1.1 1.03-1.08 1.09.11.37 3.28 2.46 3.72 2.46.03 0 .05-.81.05-1.79Zm-13.6.8c-.19-.36-.11-.52.35-.72.31-.14.42-.24.38-.35-.05-.13-.08-.13-.22-.01-.54.46-1.07.53-.97.12.05-.19.03-.22-.13-.18-.23.06-.37-.13-.22-.31.09-.1.05-.17-.14-.3-.45-.3-.14-.96.52-1.09.53-.1.83.35.49.72-.11.12-.13.21-.07.25.05.04.12.02.16-.04.13-.22.37-.11.31.14-.05.2-.01.26.24.35.17.05.3.15.3.22s.07.2.16.3c.21.24.12.35-.35.43-.43.06-.62.23-.41.36.15.09.05.3-.15.3-.08 0-.19-.09-.25-.19Zm36.7-.09c-.96-.52-.5-1.39.48-.9q.81.39.33.87c-.26.26-.37.26-.81.03Zm-25.51-3.18c2.13-1.91 3.27-2.92 5.41-4.79 1-.88 1.9-1.67 1.98-1.75s.36-.29.61-.45c.58-.39.8-.78.94-1.69l.12-.74 1.29-1.07c.71-.59 2.85-2.32 4.75-3.85 4.04-3.24 4.38-3.54 4.69-4.09l.23-.41-.33.07c-.55.1-.97.37-2.24 1.4-.67.54-1.77 1.43-2.45 1.98a83 83 0 0 0-1.85 1.52c-.34.29-.64.53-.68.53-.18 0 .01-.31.68-1.05 1.58-1.78 4.97-6.19 4.84-6.3-.02-.01-1.13.96-2.48 2.17s-3.17 2.83-4.05 3.61c-.88.77-2.07 1.84-2.65 2.37-.58.52-1.45 1.29-1.94 1.69-.76.63-1.01.93-1.74 2.05-1.41 2.16-1.53 2.29-2.97 3.36-.73.55-1.73 1.32-2.22 1.73-.48.4-1.33 1.05-1.88 1.44-2.18 1.56-3.42 2.62-3.24 2.76.48.41 3.47-1.42 3.49-2.14 0-.2.22-.43 1.06-1.1.58-.46 1.19-.95 1.35-1.08.23-.18.33-.21.41-.13.13.13.08.19-1.43 1.43-.57.47-.89.8-.93.98-.03.15-.26.42-.56.65-.5.39-.5.39-.5.98 0 .77.02.75 1.06-.67 1.1-1.52 1.73-2.25 1.9-2.25.21 0 .17.16-.15.52-.62.72-3.91 5.19-3.91 5.32 0 .04.42-.31.92-.77.51-.46 1.62-1.47 2.47-2.23Zm26.1 1.96c-.2-.27-.23-.28-.35-.12-.24.32-.38 0-.18-.42.22-.45.33-.45.64.02.18.28.25.33.28.19.05-.23.24-.22.4.04.36.57-.39.85-.79.29Zm-18.86-1.3c-.01-.52-.02-1.27-.03-1.67v-.71l-.52-.07c-.72-.1-1.71-.41-2.42-.77l-.58-.29-.47.39-.46.39-.03 1.3-.03 1.3.68.26c1.22.47 2.96.87 3.63.83.25-.01.25-.01.23-.96Zm2.92.65c.49-.13 1.15-.33 1.46-.44l.56-.21.06-.83c.04-.45.07-1.28.07-1.85V31.6l-.53.3c-.99.55-2.62 1-3.67 1h-.49l-.03 1.58c-.02.86-.01 1.63.01 1.71.06.19 1.37.07 2.56-.24Zm9.11-1.81c2.51-3.77 3.18-9.05 1.69-13.24-.31-.86-1.25-2.72-1.59-3.14l-.22-.29-.76.59-.75.59-.05 1.45c-.03 1.27-.02 1.5.15 1.89.87 2 .9 4.76.07 7.34l-.3.94v2.99l.01 2.99.6-.65c.34-.36.85-1.01 1.15-1.46Zm7.27 1.53c-.49-.25-.6-.35-.53-.47.12-.19 1.4.41 1.4.65 0 .22-.17.18-.87-.18Zm-3.28-1.69c2.26-4.57 2.65-9.65 1.1-14.18-.34-1-1.47-3.43-1.79-3.85-.14-.18-.15.82-.16 9.63 0 7.01.03 9.81.11 9.77.06-.04.39-.65.74-1.37ZM10.66 15.83c-.01-.01-.29.46-.61 1.05-3.17 5.68-3.05 12.33.31 18.09.19.32.19.18.25-9.4.04-5.35.06-9.73.05-9.74Zm20.86 18.78c1.44-.84 2.72-2.05 3.42-3.22l.35-.59.01-4.67.01-4.66-.47-.69c-.26-.39-.53-.72-.6-.75-.19-.07-2.86 2.09-2.8 2.27.02.08.17.49.32.9.64 1.7.34 4.35-.66 5.85-.35.54-.39.67-.4 1.23 0 .76 0 .76.77 0 .49-.49.65-.6.75-.5.13.13-.56.92-1.19 1.35l-.33.22v1.83c0 1 .03 1.82.08 1.82.04 0 .37-.18.74-.39Zm-11.02-.66c0-1.12.05-1.08-.67-.43-.74.66-.74.6-.06 1.02.76.48.73.5.73-.59Zm-15.43.58c-.11-.11-.08-.58.05-.71.21-.21 1.16-.15 1.28.07.14.27-1.1.87-1.33.64Zm40.23-.19c-.51-.22-.64-.52-.37-.88.19-.26 1.1-.05 1.34.3.35.54-.24.9-.97.58ZM4.7 33.4c-.06-.1-.1-.26-.1-.34 0-.24.27-.19.35.06.06.21.07.2.15-.1.1-.41.09-.41.49-.44.38-.03.74.6.51.87-.18.21-1.28.17-1.4-.05Zm10.04-.4.76-.6v-1.1c0-.87-.06-1.33-.3-2.32-.65-2.65-.56-5.38.25-7.3.12-.31.15-.88.15-3.24v-2.87l-.26.24c-4.4 4.08-5.22 11.65-1.87 17.21.42.71.34.71 1.27-.02Zm31.09.19c-.76-.24-.92-.56-.22-.45.65.1 1.1.32 1.03.5-.07.19-.03.19-.81-.05ZM4.3 32.5c-.24-.45.26-.9.99-.9.71 0 .58.76-.17.98-.55.17-.7.15-.82-.08Zm21-.2c0-.26-.04-.3-.28-.3-.43 0-1.38-.27-1.98-.57-.52-.25-1.09-.15-.89.17.1.16 1.59.72 2.24.85.93.18.91.19.91-.15Zm2.62.01c.7-.18 2.03-.76 2.36-1.03.07-.06.12-.35.12-.7v-.6l-.57.52c-.85.75-1.98 1.28-3.16 1.48-.92.15-.97.17-.97.4 0 .3.87.27 2.22-.07Zm18.09-.07c-.89-.28-.71-.55.21-.34.57.14.81.27.72.41-.07.12-.4.1-.93-.07Zm-28.55-1.31c.82-.65 1.62-1.28 1.77-1.39l.27-.22-.36-.77c-1.15-2.48-.72-5.55 1.06-7.66l.3-.35-.02-2.12-.03-2.12-.7.46c-1.05.7-2.59 2.31-3.27 3.43l-.58.95v3.36c0 1.85-.03 4.32-.07 5.48-.04 1.43-.03 2.12.04 2.12.06 0 .77-.53 1.59-1.17Zm10.22.47c.8-.28 1.53-.76 2.16-1.39l.54-.56.04-1.77c.03-1.52.01-1.78-.12-1.84-.13-.05-.12-.07.03-.19.16-.11.17-.28.15-1.43l-.03-1.31-1.5 1.25-1.5 1.24-.08.63c-.11.92-.41 1.44-1.09 1.9-.58.39-.58.39-.58.89v.5l.42-.04c.6-.04.63.14.06.31l-.48.15v2.02l.71-.08c.39-.05.96-.17 1.27-.28Zm-2.28-.7v-1h-.29c-.16 0-.41-.02-.57-.05-.25-.05-.39.03-1.03.61l-.73.68.38.2c.5.25 1.5.54 1.92.55l.32.01zm-21.5.15c-.28-.34-.08-.69.45-.8.27-.05.56-.14.63-.19.18-.11.2-.07.28.42.05.35.04.42-.1.42-.09 0-.16-.07-.16-.15 0-.11-.11-.15-.38-.15-.46 0-.55.06-.42.3.12.23-.13.35-.3.15Zm42.5-.08c-.44-.15-.58-.8-.2-.92.57-.18 1.3.12 1.3.54 0 .5-.37.63-1.1.38Zm-25.2-.2c0-.18 3.09-3.37 3.26-3.37.3 0 .09.25-1.83 2.23-1.2 1.23-1.43 1.41-1.43 1.14Zm-1.09-.56c-.1-.18 1-1.41 1.26-1.41.6 0 .51.38-.26 1.04-.7.6-.85.66-1 .37Zm-16.44-.39c-.21-.23-.22-.42-.02-.42.08 0 .15.05.15.1 0 .06.07.1.15.1s.16-.04.16-.1c.01-.05.02-.15.03-.22 0-.07.12-.16.26-.2.15-.04.03-.05-.27-.02-.83.09-1.04-.64-.25-.86.81-.22 1.07-.09.99.49-.03.28-.01.44.09.52.21.17.17.46-.08.63-.31.22-1.01.21-1.21-.02Zm42.99.09c-.43-.07-.59-.31-.45-.68.18-.49 1.39-.21 1.39.32 0 .22-.27.47-.47.44a8 8 0 0 0-.47-.08Zm-26.38-.94c.33-.3.35-2.87.02-2.87-.11 0-.2-.04-.2-.09s.09-.13.2-.16c.19-.06.2-.15.2-2.33v-2.27l-.2.25c-1.65 2.06-1.96 5.43-.7 7.48.21.35.28.34.68-.01Zm11.05-.88c.49-1.26.58-2.94.23-4.24-.49-1.83-.78-1.64-.74.49.03 1.48.03 1.51.26 1.54.29.04.28.22-.01.22-.25 0-.38.92-.37 2.64v.51l.18-.23c.1-.13.3-.55.45-.93Zm4.58.19c.41-1.67.28-4.93-.21-5.42-.07-.07-.1 1.07-.1 3.12 0 1.77.02 3.22.04 3.22s.15-.42.27-.92Zm11.02.49c-.68-.08-.92-.24-.64-.41.17-.11 1.43.07 1.48.21.1.25-.1.29-.84.2ZM15.59 25.3c0-2.96-.04-3.2-.34-1.71-.2.98-.17 3.59.06 4.5.22.89.27.36.28-2.79Zm5.79 2.56c.6-.66 1.4-1.88 1.24-1.93-.19-.07-.14-.23.08-.23.13 0 .35-.23.67-.71.29-.45.73-.94 1.19-1.31.66-.54.99-1.06.79-1.26-.13-.13-.72.28-1.25.87-.42.46-.63.62-.7.55-.23-.23 1.06-1.57 1.67-1.73.36-.1.4-.29.42-2.08.01-1.65.12-1.53-1.17-1.27-.94.19-2.4.88-3.04 1.44l-.48.42v2.49c0 2.15.02 2.49.15 2.49.08 0 .15.07.15.15s-.07.15-.15.15c-.12 0-.15.2-.15 1.2 0 1.35.02 1.37.58.76ZM3.2 26.75c0-.09.21-.25.48-.37l.47-.21-.47-.14c-.63-.19-.65-.45-.06-.72l.43-.19-.32-.07c-.33-.08-.61-.31-.5-.41.03-.04.41.02.84.13.94.23 1 .4.25.67-.6.21-.6.25.05.41.68.17.64.31-.2.7-.85.39-.97.42-.97.2Zm21.67-.21c-.59-.58-.57-1.47.04-1.98.79-.67 1.89 0 1.89 1.15 0 .94-1.28 1.49-1.93.83Zm1.18-.1c.26-.1.47-.61.4-.97-.22-1.17-1.65-1.09-1.65.09 0 .69.61 1.12 1.25.88Zm21.01-.41c-.03-.04-.06-.19-.06-.35 0-.2-.05-.28-.18-.28-.15 0-.18.06-.14.3.04.25.01.3-.17.3-.19 0-.21-.06-.21-.5V25H48v.55c0 .42-.03.55-.15.55-.1 0-.15-.11-.15-.35s-.05-.35-.15-.35-.15.1-.15.29c0 .27-.2.47-.34.34Zm-6.86-6.02v-4.69l-.47-.64c-.59-.79-2.58-2.79-3.4-3.41l-.62-.47-.03 1.41c-.04 1.72-.05 1.69.62 1.09.97-.87 1.06-.62.24.61-.76 1.13-.76 1.08-.02.94.88-.16 1.12 0 .73.51-.16.21-.2.38-.07.3.24-.15 1.24-.23 1.29-.1.06.16-.41 1.11-.72 1.44l-.24.25.35.55c1.24 1.93 2.24 4.85 2.24 6.51 0 .22.02.39.05.39s.05-2.11.05-4.69Zm-14.14 4.11c-.11-.18 2.8-3.09 2.95-2.94.11.1-.13.39-1.26 1.54-1.39 1.42-1.58 1.58-1.69 1.4Zm-22.21-.49c-.33-.09-.45-.24-.45-.57 0-.62.41-.81.89-.4.3.25.31.25.31.04 0-.13.05-.2.13-.17.14.05.15.83.01.97-.12.12-.63.2-.89.13Zm42.51-.89c-.27-.27-.2-.64.14-.77.36-.14.4-.26.05-.19-.52.09-.77-.54-.32-.82.33-.22.95-.31 1.12-.16.3.25.19.78-.17.89l-.33.09.37.01c.42.01.64.27.54.66s-1.1.6-1.4.29Zm-41.71-.46c-.03-.08-.05-.21-.03-.28s-.03-.15-.09-.17c-.09-.03-.13.05-.13.22 0 .24-.03.26-.37.23-.54-.04-.71-.5-.3-.82.19-.16.24-.25.16-.33-.28-.28-.06-.68.39-.71.81-.06 1.27.63.64.94-.19.09-.2.13-.08.17.2.08.21.6.01.77-.12.1-.16.09-.2-.02Zm23.18-1.47c.7-.62 1.27-1.17 1.27-1.21 0-.25-2.26-.99-3.02-1h-.27l-.03 1.7c-.02.94-.01 1.7 0 1.7.02 0 .12-.1.21-.22.2-.24.45-.16.38.13-.07.26 0 .21 1.46-1.1Zm7.47-.86c0-.95-.01-.96-.49-.55l-.34.29.38.56c.48.69.45.71.45-.3Zm-18.12-1.29c.67-.82 1.92-1.91 2.73-2.38l.57-.33.04-1.75c.02-.96.01-1.78-.02-1.83-.18-.22-3.02 1.45-4.12 2.43l-.48.42v5.32l.35-.59c.2-.32.61-.9.93-1.29Zm4.23 1.03c.85-.66 2.25-1.2 3.52-1.35l.57-.07v-.78c0-.76-.01-.79-.28-.93-.35-.18-.97-.86-1.07-1.16-.11-.35-1.47-.11-2.9.5l-.45.19v2.01c0 1.58.03 2 .13 1.94.06-.04.28-.2.48-.35Zm-16.16.03c-.06-.04-.18-.19-.28-.34-.23-.37-.52-.38-.43-.02.06.21.04.25-.11.22-.24-.04-.25-.66-.02-.81.24-.15.62-.01.81.3.17.27.17.27.18.05 0-.15.06-.22.2-.22.24 0 .25.09.06.55-.15.35-.23.41-.41.27Zm25.04-1.06c.08-.09.11-.53.09-1.37l-.03-1.23-.62-.24-.63-.24-.32.35c-.55.57-1.11.8-2.1.85l-.88.04v1.45l.68.07c.74.07 2.12.51 2.63.84l.33.21.36-.29c.21-.16.42-.36.49-.44Zm15.11.28c-.13-.34 0-.5.58-.75.54-.24.82-.13.82.32 0 .56-1.21.93-1.4.43Zm-10.5-1.61c1.41-1.19 2.22-2.04 2.06-2.2-.07-.07-1.23.3-1.4.45-.1.09-.73.85-1.39 1.67s-1.27 1.59-1.36 1.69c-.26.32.26-.08 2.09-1.61ZM5.6 18.51c0-.24-.15-.28-.24-.06-.07.19-.6.2-.76.01-.21-.26-.08-.6.25-.66.2-.04.26-.08.18-.13-.14-.09-.17-.45-.07-.71.08-.2.53-.21 1-.01.49.2.47.74-.03.9-.31.1-.31.11-.12.23.24.16.22.55-.03.6-.13.02-.18-.03-.18-.17Zm39.5-.43c-.35-.58-.17-.77.51-.56.43.12.58.06.4-.16-.18-.21-.04-.41.16-.24.53.43.32.93-.35.84-.39-.05-.43-.04-.37.13.1.34-.14.33-.35-.01Zm-13.47-.66.39-.4-.6-.36c-.33-.2-.62-.36-.66-.36-.03 0-.06.43-.06.96v.95l.28-.19c.15-.11.44-.38.65-.6Zm1.9-1.68c.64-.58 1.15-1.09 1.12-1.14-.23-.36-3.48-2.2-3.9-2.2-.03 0-.05.79-.05 1.75v1.74l.65.36c.36.2.67.41.71.46.12.19.33.05 1.47-.97Zm-26.89.62c-.03-.09-.04-.23 0-.31.1-.27-.51-.51-.75-.29-.26.24-.38-.06-.15-.41l.16-.24.47.21c.71.3.79.4.63.78-.15.37-.28.46-.36.26Zm21.21-.13c.4-.21.92-.69.84-.77-.07-.07-1.6-.34-2.26-.4L25.8 15v.68c0 .38.03.72.08.76.14.16 1.56 0 1.97-.21Zm-2.37-.55-.03-.63-.5.03c-.27.02-.52.06-.54.07-.13.13.76 1.14 1.02 1.15.04 0 .07-.28.05-.62Zm18.5.11c-.5-.29.13-1.19.84-1.19.31 0 .53.3.43.6-.13.41-.94.79-1.27.59Zm-13.62-3.45c-.12-.32-4.56-1.05-4.56-.75 0 .07.23.11.59.11 1.77 0 2.98 1.18 2.89 2.8l-.05.78.56.24.56.24.03-1.65c.01-.91.01-1.7-.02-1.77Zm-8.48 3c.4-.13 1.02-.3 1.38-.36l.64-.13v-.65c.01-.99.49-1.83 1.31-2.26 1.01-.52-.63-.57-2.95-.1-.65.14-1.22.28-1.26.33-.19.21-.22 3.56-.03 3.48.1-.04.51-.18.91-.31Zm-15.25-.09c-.6-.26-.66-1.05-.08-1.05.22 0 .24-.03.15-.19-.2-.38.24-.79.67-.64.69.24.85 1.13.21 1.13-.15 0-.16.03-.06.25.22.5-.26.77-.89.5Zm22.31-.27c.4-1.52-.74-2.88-2.44-2.92l-.65-.01-.03 1.31-.03 1.3 1.04.12c.58.07 1.24.19 1.48.26.59.19.56.19.63-.06Zm14.48-.1c-.1-.13-.15-.34-.13-.55.01-.15.74-.63.94-.63.13 0 .57.4.57.52 0 .08-.73.53-.82.51-.03-.01-.12.04-.18.12-.15.18-.24.19-.38.03ZM17.5 13.5c.76-.51 1.76-1.04 2.35-1.25.27-.1.56-.25.63-.34.14-.17.18-3.51.04-3.51-.43 0-2.67.98-3.83 1.67l-.79.47v4.28l.53-.47c.28-.26.77-.64 1.07-.85Zm7.78 1.2c.22 0 .22-.02.22-1.25 0-1.38 0-1.38-.52-.95-.48.4-.78 1.03-.78 1.66 0 .61.05.67.5.6.19-.03.45-.06.58-.06Zm9.86-.46c.13-.13.16-.45.16-1.89v-1.74l-.42-.29c-.81-.55-3.75-1.92-4.14-1.92-.02 0-.04.82-.04 1.83v1.83l.73.28c.94.37 1.97.93 2.83 1.56.8.58.69.54.88.34Zm-26.98-.83c-.03-.05.05-.16.19-.25s.25-.23.25-.32c0-.11-.06-.1-.3.07-.29.22-.3.22-.5.04-.35-.32-.11-1.05.34-1.05.27 0 .27.19-.01.44-.21.19-.24.26-.12.26.09 0 .22-.07.29-.15.34-.41.9.07.64.56-.2.39-.65.62-.78.4Zm33.76-.83c-.46-.46.49-1.46 1.05-1.1.26.17.19.67-.13.97-.29.27-.72.33-.92.13Zm-32.99-.71c-.54-.43-.66-.67-.35-.67.23 0 1.16.86 1.07.99-.1.17-.16.14-.72-.32Zm32.23-.06c-.23-.25-.17-.55.12-.59.12-.02.22-.09.22-.15 0-.3.66-.51.89-.28.26.26.18.45-.16.36-.2-.05-.24-.03-.19.12.06.21-.1.45-.41.61-.28.15-.27.15-.47-.07Zm-10.76-1.7V8.32l-.67-.16c-.97-.22-1.84-.34-2.95-.42l-.98-.07v3.5l.88.07c.91.08 2.76.4 3.15.56.58.23.57.26.57-1.69Zm-8.05 1.4c.55-.11 1.48-.24 2.08-.27l1.07-.07V7.68l-1.07.07c-1.08.07-2.44.27-3.15.46l-.38.1v3.51l.22-.05c.13-.03.68-.15 1.23-.26Zm-13.02-.13c-.54-.6-.49-.98.11-.98.35 0 .69.28.81.68.15.5-.53.72-.92.3Zm1.62-.98c-.03-.05.06-.17.21-.26.26-.17.26-.18.05-.26-.29-.1-.26-.21.1-.37.22-.1.27-.16.18-.22-.07-.04-.16-.06-.2-.03-.15.09-.38-.38-.28-.58.22-.41.81-.19.94.35.08.3.15.33.33.15.06-.06.15-.09.18-.05.08.08-.45.87-.58.87-.06 0-.23.11-.4.25-.32.27-.44.3-.53.15Zm28.3-.64c-.09-.13-.13-.31-.09-.42.06-.16.05-.17-.07-.06-.31.28-.67.04-.37-.26.09-.09.08-.15-.08-.26-.25-.19-.12-.31.48-.47.61-.17.88 0 .4.25-.23.12-.28.2-.25.39l.05.24.24-.24c.38-.38.78-.29.82.18.06.7-.78 1.19-1.13.65ZM12.14 8.74c-.49-.51-.42-.94.16-.94.63 0 1.08 1 .54 1.2-.35.14-.33.14-.7-.26Zm1.63-.61c-.12-.11-.08-.21.13-.26.29-.08.25-.25-.05-.19-.28.05-.34-.15-.12-.37.1-.1.06-.12-.17-.09-.39.04-.44-.17-.09-.36.3-.15.63-.06.63.17 0 .07.09.2.2.3.11.09.2.25.2.35 0 .34-.53.66-.73.45Zm22.5-.51c-.09-.1-.17-.23-.17-.29s-.09-.09-.19-.06c-.27.07-.61-.14-.61-.38 0-.15.05-.19.15-.15.5.2.48.2.34-.02-.11-.18-.1-.24.05-.41.11-.12.14-.21.08-.21-.07 0-.12-.07-.12-.15 0-.18.29-.19.53-.01.22.17.22.28-.03.59-.13.16-.17.28-.1.32.06.04.2-.05.31-.19.33-.42.89-.3.89.2 0 .63-.77 1.16-1.13.76Zm-21.61-.09c-.04-.04.03-.16.16-.26l.23-.19-.26.06c-.29.06-.48-.17-.26-.31.08-.05.03-.09-.13-.13-.34-.08-.32-.32.04-.45.23-.08.3-.07.34.04.03.08.15.24.27.35.31.3.39.6.2.8-.17.17-.47.21-.59.09Zm.59-.93c-.24-.35-.26-.44-.17-.65.24-.52 1.02-.12 1.02.51 0 .64-.45.72-.85.14Zm1.77-.32c-.1-.1-.07-.15.1-.25l.23-.12-.27-.01c-.52 0-.73-.45-.38-.8.32-.32.65-.19.84.34.09.25.15.17.3-.41.13-.5.38-.66.44-.26.03.22.28.5.37.41.03-.02-.01-.18-.07-.35-.24-.63.56-.93.87-.33.34.66-.02 1.32-.52.95-.27-.21-.33-.18-.26.15.06.34-.18.44-.35.14-.11-.19-.52-.1-.52.11 0 .35-.56.65-.78.43ZM33 6.02c-.37-.3.02-1.32.49-1.32.61 0 .62 1.07.02 1.4-.25.13-.25.13-.51-.08Zm-.8-.25c-.46-.16-.44-.29.1-.69l.45-.33-.28-.03c-.34-.04-.34-.35-.01-.4.52-.07.68.46.26.88-.24.24-.26.29-.13.38.28.18 0 .32-.39.19Zm-11.78-.69c-.14-.14-.16-.35-.03-.4.24-.09.22-.48-.03-.48-.31 0-.34-.15-.07-.3.29-.15.71-.12.72.05.02.21.04.27.19.58.23.48-.4.93-.78.55Zm9.07-.05c-.22-.26-.16-1.03.1-1.24.4-.33.81-.04.81.57 0 .69-.56 1.1-.91.67Zm-8.02-.09c-.1-.11.02-.24.24-.24.1 0 .19-.06.19-.13 0-.21-.12-.28-.27-.15-.19.15-.33-.05-.33-.48 0-.34.13-.44.56-.44.3 0 .31.16.02.31l-.23.12.28.1c.3.1.46.5.3.76-.1.17-.64.27-.76.15Zm7.18-.05c-.12-.19.16-1.39.32-1.39.13 0 .14.1.09.61-.1.85-.22 1.09-.41.78Zm-3.81-.13c-.09-.23.01-1.39.12-1.43.06-.02.34.15.62.38l.52.41v-.41c0-.75.26-.5.33.31.08.96-.02 1.04-.61.45-.59-.58-.62-.58-.62-.02 0 .45-.23.65-.36.31ZM22.5 4.6c-.06-.11-.08-.25-.05-.3s.01-.11-.05-.15c-.19-.12-.11-.54.15-.71.41-.27.75.02.75.64 0 .69-.53 1.03-.8.52Z"/></svg>