<svg xmlns="http://www.w3.org/2000/svg" width="51" height="51" viewBox="0 0 51 51"><path fill="#fff" fill-rule="evenodd" stroke="#fff" stroke-width=".497" d="M37.39 16.93c-1.07-.12-1.31-1.74-.33-2.23.28-.15.3-.18.17-.37-.08-.12-.17-.48-.19-.8-.09-1.03-.1-1.05-.52-1.01l-.37.03-.03 1.13-.03 1.12h-.88l-.03-1.12-.03-1.13h-.35c-.65 0-.8 1.08-.24 1.75.27.31.25.5-.05.5-.23 0-.89-.71-.95-1.02-.03-.13-.07-.32-.09-.43-.03-.11-.05.31-.06.93-.01 1.28-.07 1.46-.54 1.61-.56.19-1.12-.16-1.23-.76l-.06-.33-.92-.01c-.5-.01-1.08-.01-1.28 0-.92.06-1.06-1.58-.18-2.04.83-.43 1.87.23 1.78 1.15l-.04.4h1.56v-1.18c0-1.34.04-1.45.51-1.4l.34.03.06.7c.03.39.06.57.07.4.06-.9.94-1.43 1.85-1.11.31.12.43.11.78 0 .9-.32 1.69.25 1.69 1.21 0 .86.21 1.25.67 1.25.61 0 .66-1.53.07-1.99-.26-.21-.27-.51-.02-.51.95.02 1.33 2.33.49 2.92l-.22.15.25.17c.73.48.37 1.96-.49 1.96-.12 0-.35.02-.51.04s-.45.01-.65-.01Zm-21.85-.52c-.97-.44-.66-1.55.41-1.49.66.04.8.47.23.72l-.33.14.32.01c.73.02.79-.41.21-1.46-.39-.71-.42-.84-.46-1.65l-.04-.88h.41c.41 0 .41 0 .41.39 0 .71.2 1.43.55 2 .64 1.07.55 1.84-.28 2.22-.53.23-.91.24-1.43 0Zm22.81.09c.03-.05.13-.06.22-.03.42.16.6-.82.21-1.14-.55-.45-.63-.62-.37-.72l.24-.1h-.23c-.6-.02-.92-.53-.92-1.46 0-.94-.78-1.39-1.55-.89-.18.12-.26.11-.63-.07-.81-.41-1.52.08-1.52 1.04 0 .29.04.57.08.64.04.06.07-.16.07-.49 0-.7.31-1.08.87-1.08.57 0 .68.21.68 1.32 0 .59.04.98.1.98s.1-.37.1-.91c0-.88.01-.92.3-1.21.57-.57 1.3-.17 1.3.71 0 .61.14 1.09.42 1.38.25.27.15.42-.32.44-.23 0-.23.01-.05.08s.17.09-.12.24c-.57.3-.51 1.18.09 1.3.44.08.97.07 1.03-.03Zm-.82-.12a.3.3 0 0 0-.23-.13c-.27 0-.25-.61.04-.9.31-.31.41-.31.71 0 .27.26.34.82.13 1.03-.16.16-.55.15-.65 0Zm-20.8-.21c.71-.3.79-.93.24-1.85-.4-.65-.57-1.19-.57-1.79 0-.25-.05-.43-.11-.43-.28 0-.04 1.34.4 2.18.62 1.23.46 1.82-.48 1.82-.72 0-1.02-.62-.33-.68.38-.04.44-.22.06-.22s-.64.18-.64.44c0 .52.76.8 1.43.53Zm21.22-.08c.09-.14-.03-.59-.15-.59-.06 0-.1.16-.1.35 0 .34.12.46.25.24Zm.55-.06c0-.1-.09-.35-.2-.56-.24-.44-.14-.48.24-.08.18.18.26.37.24.52-.04.27-.28.38-.28.12Zm-5.53-.55c.12-.16.04-3.53-.08-3.41-.05.05-.1.62-.11 1.28l-.03 1.2-.37.03c-.46.04-.6.37-.34.77.18.28.76.35.93.13Zm-.65-.14c-.38-.26-.23-.54.28-.54.3 0 .47.4.24.57-.23.16-.25.16-.52-.03Zm-27.73-.71c-1.44-1.22-.27-3.72 1.35-2.88.25.13.34.13.77.01 1.06-.32 1.79.24 1.79 1.36 0 .59.2.98.5.98.57 0 .68-1.34.16-1.89-.28-.29-.28-.51-.01-.51.25 0 .84.68.91 1.05s.24.58.24.29c0-.65.84-1.37 1.58-1.35.75.02.89.02 1.4 0 1.68-.05 2.5 2.31 1.09 3.11-.39.22-.56.02-.38-.43.34-.8.22-1.5-.3-1.77-.29-.16-.32-.09-.13.29.47.95-.32 2.18-1.25 1.95-.66-.16-1.03-1.33-.65-2.05.15-.29.15-.3-.05-.2-.64.35-.68 1.13-.08 1.78.17.19.18.25.07.38-.27.32-.96-.06-1.2-.66-.14-.34-.3-.38-.3-.08 0 .4-.62.89-1.13.89-.8 0-1.27-.6-1.27-1.63 0-.59-.12-.77-.49-.77-.51 0-.56.11-.59 1.25l-.04 1.05H5.8v-1.04c0-1.25-.13-1.51-.63-1.25-.5.27-.53 1.1-.07 1.62.33.38.38.62.14.71-.25.1-.3.08-.65-.21Zm13.92-.08c-1.05-.95-.55-2.72.8-2.82 1.12-.09 1.82.98.92 1.42l-.21.11.21.09c.31.15.41.38.33.79-.15.81-1.34 1.05-2.05.41Zm4.11.29c-.18-.08-.15-.29.13-.7.47-.69.44-1.27-.07-1.52-.85-.41-1.44 1.05-.69 1.72.26.23.16.46-.19.46-.56 0-.93-.6-.88-1.46.11-2.3 2.93-2.26 2.93.04 0 .72 0 .73.25.7s.25-.03.25-1.1c0-1.17.06-1.31.51-1.26.36.04.43.35.41 1.98l-.02 1.15-1.25.02c-.69.01-1.31-.01-1.38-.03Zm4.04-.01c-.03-.04-.26-.06-.51-.04-.54.02-.59-.09-.59-1.41 0-.99.14-1.29.75-1.61.95-.5 2.22.32 1.9 1.24-.08.22-.08.36-.01.43.15.15.12.69-.06.94-.28.41-1.23.7-1.48.45Zm13.55-.07c-.79-.44-.56-1.86.3-1.86.24 0 .32-.07.54-.5.54-1.06 1.67-1.03 2.06.05.1.27.19.35.47.4 1.28.24 1.17 2.2-.11 2.01-.53-.08-.71-.08-1.25 0-.3.04-.49.02-.65-.09-.2-.13-.26-.13-.42-.01-.24.17-.63.17-.94 0Zm5.02-.1c-.62-.52-.64-1.33-.05-1.88.77-.72 1.92-.15 1.92.96 0 .97-1.14 1.53-1.87.92Zm-35.75-.23c.11-.1.23-.29.27-.43.06-.21.04-.2-.14.08-.16.24-.28.32-.5.32-.65 0-.91-.36-.91-1.25 0-1-1-1.56-1.66-.94l-.23.22-.31-.27c-.76-.64-1.7-.02-1.7 1.12 0 .51.3 1.11.6 1.2.09.03.06-.05-.08-.21-.89-.96.03-2.74 1.01-1.97.26.21.27.24.27 1.21 0 .59.04.99.1.99s.1-.36.1-.89c0-1.09.21-1.45.83-1.45.6 0 .87.34.87 1.08 0 .34.06.72.13.86.24.48.97.65 1.35.33Zm3.61-.21c.28-.31.27-1.28-.02-1.6-.36-.4-.06-.58.59-.36.72.25 1.09 1.05.8 1.77-.19.49-.14.59.11.21.27-.41.24-1.12-.07-1.56-.38-.56-.66-.68-1.62-.68h-1.11c-.62-.01-1.17.69-1.17 1.47 0 .36.35 1.11.46 1 .03-.03-.02-.17-.11-.31-.5-.76.09-1.96.95-1.96.45 0 .47.05.23.4l-.18.25.3-.23.3-.24.27.31c.71.8.02 2.23-.74 1.54-.16-.14-.18-.14-.13-.01.16.42.75.42 1.14 0Zm6.74.27c.53-.24.57-.89.06-.89-.35 0-.46.21-.31.55.21.46-.44.49-.82.04-.48-.57-.32-1.55.32-1.92.4-.24.61-.12.4.22-.11.18-.11.23.02.31.24.16.47.13.26-.03-.15-.11-.16-.17-.07-.35.14-.26.44-.19.36.09-.04.13-.01.19.09.19.25 0 .19-.26-.1-.49-.5-.39-1.29-.18-1.6.41-.56 1.08.38 2.33 1.39 1.87Zm5.07-1.19c0-.8-.04-1.3-.1-1.3s-.1.47-.1 1.2v1.2h-.66c-.64 0-.66-.01-.59-.22.37-1.23-.09-2.18-1.05-2.18-1 0-1.63 1.5-.95 2.27l.25.28-.2-.4c-.65-1.29.67-2.59 1.61-1.59.33.35.34 1.19.02 1.63l-.23.3.68.04c.37.02.82.04 1 .05l.32.02zm1.19.81c-.15-.65-.09-.71.65-.71.91 0 1.37.47.84.84-.3.22-.54.2-.79-.05-.23-.23-.39-.17-.23.09.18.29.55.36.96.19.48-.2.6-.58.29-.91-.2-.21-.2-.24-.06-.36.11-.09.15-.26.13-.54-.06-.77-1.11-1-1.73-.38-.27.26-.27.29-.23 1.18.03.5.08.97.13 1.03.13.21.14.07.04-.38ZM41 14.5c.11-.07.07-.1-.17-.1-.54 0-.8-.53-.43-.9s.79-.27.86.2c.2 1.26 1.64 1.12 1.64-.16 0-.29.51-.34.88-.08.44.3.23.94-.31.94-.16 0-.26.04-.22.1.1.16.4.11.69-.11.53-.42.21-1.1-.59-1.27-.35-.07-.4-.12-.48-.44-.23-.98-1.28-.97-1.58.02-.11.35-.15.39-.55.45-.49.07-.74.33-.74.76 0 .46.63.83 1 .59Zm5.39-.05c.16-.08.31-.22.35-.3.43-1.13-1.04-1.91-1.6-.84-.41.81.42 1.57 1.25 1.14Zm-17.19-.14c-.25-.48.02-1.21.45-1.21.58 0 .96.59.75 1.14-.08.21-.07.27.02.24.46-.15.27-1.19-.26-1.44-.83-.4-1.63.49-1.1 1.24.19.27.28.29.14.03Zm12.6.06c-.25-.13-.56-.8-.44-.98.06-.1 1.27-.13 1.36-.03.11.11-.12.8-.33.97-.25.2-.27.2-.59.04Zm-11.71-.23c.11-.25-.05-.74-.25-.74-.22 0-.44.24-.44.48 0 .53.48.71.69.26Zm15.26.06c-.42-.46-.1-1.2.52-1.2s.94.65.57 1.18c-.2.29-.83.31-1.09.02Zm-25.65-.14c0-.31.14-.4.3-.21.15.18.06.45-.15.45-.09 0-.15-.09-.15-.24Zm23.9-.01c.07-.08.1-.22.06-.3-.07-.19-.36-.2-.36-.01 0 .08-.03.21-.06.3-.08.21.19.21.36.01Zm-30.88-.2c.08-.19.08-.35-.01-.66-.14-.47-.3-.47-.49.02-.24.64.22 1.24.5.64Zm6.48.02c0-.13.09-.32.2-.42l.2-.18-.2-.19c-.11-.1-.2-.26-.2-.36-.01-.14-.04-.13-.2.07-.22.25-.26.65-.1 1.05.12.32.3.34.3.03Zm21.7-.02c0-.28-.24-.34-.34-.09-.08.2.01.34.2.34.08 0 .14-.1.14-.25Zm1.35.11c.27-.19.13-.46-.25-.46-.3 0-.37.11-.24.44.08.2.24.2.49.02Zm3.99-.08c.16-.26-.04-.53-.4-.53-.3 0-.43.27-.3.61.08.2.56.14.7-.08Zm-20.12-.69c-.46-.48.49-1.28 1.19-.99.39.17.49.55.21.83-.25.25-1.2.36-1.4.16Zm15.41-.06c-.21-.08-.15-.52.12-.78.24-.25.5-.31.72-.17.12.08.47.82.41.87-.07.05-1.14.13-1.25.08Zm-14.19-.33c.15-.15-.04-.3-.39-.3s-.7.24-.59.42c.07.11.84.02.98-.12Zm15.06-.09c0-.3-.53-.35-.64-.05-.04.1.03.14.29.14.19 0 .35-.04.35-.09Z"/></svg>