<svg xmlns="http://www.w3.org/2000/svg" width="51" height="51" viewBox="0 0 51 51"><path fill="#fff" fill-rule="evenodd" stroke="#fff" stroke-width=".737" d="M24.55 41.28c-5.76-.34-10.98-3.99-13.32-9.29-3.03-6.91-.74-15.25 5.32-19.35 1.02-.7 1.7-1.06 1.79-.97.03.04.06 1.1.06 2.37v2.31l-.98 1c-6.11 6.23-3.53 16.8 4.71 19.3 11.78 3.57 20.29-10.98 11.45-19.55l-.78-.76v-2.3c0-1.27.03-2.34.06-2.37.12-.11 1.16.51 2.25 1.33 7.59 5.7 8.35 16.93 1.6 23.71-3.29 3.3-7.44 4.86-12.16 4.57Zm3.33-.34c10.33-1.53 16.19-12.7 11.66-22.21-1.22-2.56-3.37-4.93-5.82-6.41-.29-.18-.54-.32-.57-.32s-.05.96-.05 2.14v2.14l.88.89c7.43 7.51 2.18 20.23-8.35 20.23-10.45 0-15.74-12.59-8.46-20.11l.93-.96v-2.16c0-1.2-.02-2.17-.05-2.17-.11 0-1.38.81-1.97 1.26-6.04 4.6-7.75 13.31-3.93 20.04 3.09 5.46 9.49 8.57 15.73 7.64Zm-3.74-6.28c-4.67-.89-7.69-4.47-7.69-9.11 0-2.79.74-4.5 2.87-6.7.64-.67 1.22-1.34 1.28-1.51.08-.18.14-1.48.17-3.53l.06-3.23.32-.14c.49-.2 2.27-.54 2.85-.54h.51l-.03 4.53c-.05 5.66-.02 5.55-1.7 6.86-1.48 1.16-2.28 2.64-2.28 4.22 0 4.6 5.43 6.89 8.66 3.65 2.31-2.32 1.96-5.81-.81-7.91-.59-.45-.88-.75-1.1-1.15l-.3-.55-.03-4.84-.03-4.84.73.06c.72.07 2.07.35 2.61.56l.27.11v3.2c0 3.84-.09 3.5 1.42 5.01 3.17 3.15 3.84 7.11 1.85 11.05-1.74 3.45-5.88 5.52-9.63 4.8Zm3.64-.37c3.66-.84 6.45-4.12 6.81-7.98.27-2.93-.79-5.54-3.11-7.63-1.23-1.11-1.18-.91-1.18-4.62 0-2.55-.03-3.17-.14-3.28-.14-.14-1.67-.51-2.59-.63l-.48-.06.03 4.63.03 4.63.28.57c.22.44.42.67.91 1.02 2.61 1.86 3.33 5.08 1.69 7.55-2.91 4.4-9.74 2.37-9.73-2.88 0-1.99.44-2.74 2.92-5.06 1.01-.94 1.01-.95.99-6.15-.01-2.33-.04-4.26-.05-4.28-.07-.07-1.62.19-2.38.39l-.78.21v3.02c0 3.84.02 3.74-1.21 4.94-2.21 2.13-3.12 4.09-3.13 6.77-.03 5.95 5.29 10.18 11.12 8.84Z"/></svg>