<svg xmlns="http://www.w3.org/2000/svg" width="51" height="51" viewBox="0 0 51 51"><path fill="#fff" fill-rule="evenodd" stroke="#fff" stroke-width=".374" d="M.72 26.78.75 2.35h49.3l-.03 16.7c-.02 9.19-.03 16.98-.03 17.33.01.39-.03.62-.1.62-.08 0-.1-4.63-.08-17.22l.04-17.23H.95L.92 26.88C.91 43.01.87 51.2.8 51.2S.71 43.01.72 26.78Zm39.59 24.17c-1.67-.51-3.4-1.61-4.21-2.68-.44-.58.22-.53-5.6-.46-20.67.26-20.41.27-22.11-.27-2.04-.64-4-2.39-4.76-4.22-.08-.21-.21-.51-.28-.67-.2-.47-.35-1.09-.35-1.44 0-.17-.04-.31-.08-.31-.05 0-.09-5.66-.08-12.57l.01-12.58 16.95-.03c16.82-.03 27.8.04 27.8.18 0 .04-9.78.05-21.73.02-11.96-.03-21.95-.02-22.22.02l-.48.08.08 12.71c.04 7 .1 12.77.15 12.82.04.06.16.38.25.73.1.34.22.62.26.62.05 0 .09.07.09.16 0 .17.44.95.83 1.49.36.48 1.08 1.18 1.62 1.55.27.19.56.41.63.48.07.06.2.12.27.12.08 0 .29.09.47.2s.42.2.53.2c.12 0 .25.04.3.09.46.41 2.91.46 16.82.36l10.03-.07-.2-.28c-1.49-2.09-1.74-5.85-.55-8.37 2.19-4.65 8.07-6.49 12.4-3.88.32.19.61.35.65.35.08 0 .2-9.16.2-15.37 0-3.99.01-4.24.18-4.21.16.03.17.59.17 9.99v9.96l.75.79c1.59 1.68 2.1 3.16 2.1 6.08 0 3.45-1 5.47-3.6 7.23-1.98 1.34-5.09 1.84-7.29 1.18Zm4.15-.14c.56-.12 1.24-.35 1.75-.6.94-.46.69-.5-.44-.07-1.96.75-4.17.73-6.29-.05-.94-.34-1.28-.38-.78-.08 1.46.9 3.76 1.21 5.76.8Zm-.55-.46c.46-.08 1.11-.23 1.44-.34l.6-.19-3.17-.01c-1.75-.01-3.18.01-3.18.04 0 .07 1.06.36 1.84.5.96.18 1.48.18 2.47 0Zm2.98-.94c.21-.11.71-.51 1.12-.9l.74-.7h-12.1l.65.6c.36.32.85.73 1.09.89l.44.3h3.84c3.6 0 3.86-.01 4.22-.19Zm-8.84.01c-.06-.04-.49-.45-.97-.91-.9-.86-1.43-1.1-.73-.33.41.46 1.51 1.32 1.68 1.32.07 0 .07-.03.02-.08Zm9.86-.23c.55-.39 1.05-.85 1.31-1.21.36-.51-.03-.29-.7.4-.37.38-.8.78-.97.9-.16.12-.25.22-.19.22s.31-.14.55-.31ZM9 48.5c0-.07 2.31-.1 6.73-.11 3.69 0 7.53-.04 8.52-.1 2.86-.14 10.91-.23 10.98-.12.04.07-1.45.12-4.36.17-2.43.03-5.21.1-6.17.15-2.42.13-15.7.14-15.7.01Zm40.02-1.18c.09-.09.33-.47.53-.84l.37-.68H35.39l.17.32c.09.18.33.56.52.85l.35.53 4.41.02c6.46.04 7.97 0 8.18-.2Zm.65.06c.55-.61.95-1.58.64-1.58-.12 0-.23.09-.27.23-.04.12-.24.51-.45.86-.22.34-.39.65-.39.67 0 .12.29.01.47-.18Zm-13.82-.3c-.14-.24-.36-.62-.48-.85-.13-.27-.28-.43-.39-.43-.21 0-.21.02.4 1.08.24.41.42.62.55.62.16 0 .16-.04-.08-.42Zm-.99-2.05a5 5 0 0 1-.21-.87c-.07-.41-.35-.69-.35-.33 0 .23.3 1.38.41 1.59.19.36.31.05.15-.39Zm15.2.4c.13-.17.13-.17.14 0 0 .33.3.19.31-.15.01-.29.02-.3.08-.09.05.18.11.04.27-.63l.22-.87-5.62.03-5.61.03-.03-2.07-.02-2.08h4v-1.9h-4v-1.26c0-1.46.06-1.43-1.15-.71l-.7.42-.03.78-.03.77h-1.65l-.43.74c-.7 1.23-.75 1.16.78 1.16h1.31v4.1h-1.55c-.85 0-1.55.03-1.55.08.01.18.3 1.32.41 1.56l.12.26h7.3c6.83 0 7.31-.01 7.43-.17ZM23.1 44.14c-1.56-.34-3.26-1.53-4.04-2.83-.62-1.04-1.22-2.89-1-3.11.09-.08 2.63-.43 4.1-.56l.71-.07.07.57c.04.3.12.58.17.61.05.04.09.15.09.26s.11.3.25.43.25.28.25.35c0 .06.06.11.13.11.08 0 .29.07.47.16.45.23 2.02.15 2.5-.12.77-.44 1.42-1.35 1.55-2.18.04-.21.13-.45.21-.53.1-.1.14-.38.14-.88 0-.52.04-.78.15-.88.08-.09.18-.41.21-.74l.07-.58-.29.25c-.16.14-.3.28-.32.32-.03.06-.7.4-1.44.72-.6.26-2.36.41-3.33.27-4.27-.6-7-4.71-6.21-9.36.1-.55.21-1.04.25-1.1.05-.05.14-.27.2-.47.71-2.18 2.95-4.1 5.43-4.64 3.29-.72 6.62.37 8.59 2.8.27.34.54.67.6.74s.15.26.21.42c.05.17.13.3.18.3.09 0 .53 1.22.71 1.95.06.27.15.54.2.6.2.26.54 3.25.54 4.7-.02 8.48-3.2 12.69-9.55 12.64-.63-.01-1.44-.07-1.8-.15Zm4.5-.54c.52-.14.97-.27 1-.31.03-.03.3-.17.62-.31.95-.44 2.58-1.77 2.58-2.12 0-.07.09-.21.19-.3.11-.1.23-.31.26-.47.04-.16.1-.29.15-.29s.14-.16.2-.36c.07-.2.18-.48.26-.62.08-.15.14-.39.14-.54 0-.14.05-.28.11-.3.12-.04.28-.7.29-1.19 0-.22.06-.39.13-.42.36-.13.47-7.38.14-8.49-.09-.31-.17-.68-.17-.83 0-.14-.06-.38-.13-.53-.08-.15-.19-.53-.26-.84-.07-.32-.16-.58-.21-.58s-.15-.19-.22-.42c-.06-.24-.18-.47-.25-.51s-.13-.17-.13-.27c0-.11-.04-.2-.1-.2-.05 0-.18-.17-.29-.38-1.39-2.72-6.81-3.92-10.19-2.26-1.47.72-2.91 2.22-3.24 3.38-.06.23-.15.46-.19.51-.05.06-.11.31-.15.55-.04.25-.1.5-.15.55-.54.7-.15 4.26.65 5.82 1.28 2.54 4.73 4.13 7.41 3.42.22-.06.61-.16.87-.22.26-.07.53-.18.6-.25.06-.06.16-.12.22-.12.15 0 .89-.52 1.09-.77.1-.13.27-.23.38-.23.45 0 .08 3.01-.56 4.45-.07.16-.16.4-.2.53-.03.12-.11.22-.16.22s-.09.06-.09.14c0 .11-.68.79-1.23 1.23-.48.39-2.33.43-2.97.07-.49-.27-1-.75-1-.95 0-.09-.07-.22-.15-.29s-.18-.34-.21-.61c-.08-.59.02-.58-2.49-.26l-1.7.22.01.37c.05 1.81 1.79 4.03 3.69 4.69 1.36.47 3.76.51 5.45.09Zm22.08-.1h1.42v-1.7h-9.65l-.72.32-.73.32v.52c0 .67-.3.63 4.45.58 2.09-.02 4.44-.04 5.23-.04Zm-15.18-.85c0-.69-.03-.85-.15-.85s-.15.16-.15.85.03.85.15.85.15-.16.15-.85Zm3.2 0v-.85h-2.9v1.7h2.9zm-3.16-1.17c.26-.95.35-1.62.24-1.69-.17-.11-.23.03-.37.76-.07.33-.14.7-.17.83-.05.24.24.33.3.1Zm3.16-.78v-.9h-2.49l-.15.53c-.08.28-.18.69-.22.9l-.06.37h2.92zm4.92.2c.97-.53 1.18-.69 1.18-.87v-.23H40v1.82l.73-.04c.67-.03.81-.08 1.89-.68Zm.99.65c.18-.06.3-.95.13-.95-.06 0-1.74.9-1.74.93 0 .05 1.46.06 1.61.02Zm7.42-.02c.02-.05-.03-.44-.12-.88l-.16-.8-3.37-.03L44 39.8v.83c0 .46.03.87.07.9.09.1 6.91.09 6.96 0Zm-16.08-2.01c.08-.05.58-.99.93-1.75.02-.04-.02-.07-.1-.07-.18 0-1.08 1.55-1.08 1.86 0 .06.14.04.25-.04Zm15.53-.01c.1-.06.03-.27-.3-.92l-.43-.84-2.87-.03L44 37.7v1.9h3.18c1.74 0 3.23-.04 3.3-.09Zm-13.63-2.89c2.61-2.48 6.22-3.06 9.43-1.51 1.1.53 1.57.5.54-.04-3.67-1.93-8.28-1.05-10.72 2.04-.5.62-.25.46.75-.49Zm.85.32v-.57l-.52.49c-.69.63-.69.64-.04.64h.56zm6.1-.44v-1h1.38c1.29-.01 1.35-.02 1.09-.16-1.33-.72-4.54-.9-6.01-.34l-.26.1v2.4h3.8zm5.41.61c-.17-.22-.56-.62-.87-.9l-.56-.51H44v1.8h5.52zm-1.74-2.28c-.11-.1-.08-2.31.02-2.37.15-.09.22.62.16 1.53-.06.88-.07.95-.18.84ZM24.6 32.41c-.68-.22-1.9-1.23-1.9-1.57 0-.07-.06-.19-.14-.26-.07-.08-.19-.38-.26-.68-.08-.3-.18-.61-.24-.68-.18-.25-.21-2.24-.03-2.37.1-.07.19-.34.23-.71.05-.4.15-.68.31-.87.12-.16.23-.32.23-.36 0-.18.75-.83 1.23-1.08 1.73-.89 3.67.1 4.66 2.37.87 2.01.02 5.18-1.62 6.01-.46.24-1.99.36-2.47.2Zm1.34-.3c.03-.04.29-.11.57-.13.32-.03.57-.12.64-.22.07-.09.17-.16.22-.16.27 0 .93-1.07.93-1.5 0-.18.07-.38.15-.44.27-.2.33-2.78.05-2.61-.04.02-.1-.21-.12-.52-.03-.33-.11-.6-.2-.67-.08-.06-.18-.23-.21-.38-.1-.4-.98-1.23-1.52-1.43-1.06-.41-2.47-.07-3.22.78-.75.86-1.16 4.33-.57 4.91.08.08.14.24.14.37 0 .78 1.15 1.89 1.97 1.9.26 0 .57.04.68.09.27.11.43.12.49.01ZM2.8 12.67c0-1.51.04-2.77.11-3.01.28-1.09.41-1.47.78-2.18.21-.42.57-1.01.8-1.31.33-.45.36-.54.2-.5-.11.03-.24.16-.29.28-.05.13-.18.29-.29.37s-.25.26-.32.41-.16.27-.2.27c-.11 0-.67 1.14-1.09 2.2-.37.95-.56 1.25-.46.71.19-1.01 1.27-3.1 1.99-3.81.13-.14.3-.36.37-.48.09-.19.18-.23.38-.19.22.04.4-.06.94-.49.37-.3.72-.54.78-.54s.13-.07.16-.15c.04-.08.15-.15.27-.15.11 0 .28-.06.36-.14.46-.4 1.51-.8 1.51-.58 0 .11-.78.62-.95.62-.08 0-.17.05-.21.11-.03.06-.21.17-.4.25-.76.32-2.55 1.88-2.7 2.36-.04.13-.1.25-.13.28-.14.1-.59 1-.66 1.3-.04.16-.1.3-.15.3-.04 0-.1.17-.13.37-.03.21-.1.61-.16.88-.05.27-.1 1.53-.1 2.8l-.01 2.3h44.82l-.05-2.6c-.04-2.39-.16-3.59-.38-3.75-.03-.03-.09-.22-.13-.43s-.13-.4-.21-.43-.17-.21-.21-.4c-.03-.19-.1-.34-.15-.34s-.16-.14-.24-.3c-.28-.54-2.17-2.3-2.48-2.3-.07 0-.22-.08-.31-.19-.09-.1-.3-.21-.47-.25-.21-.04-.29-.11-.29-.26 0-.16-.07-.2-.35-.2-.24 0-.35-.05-.35-.15 0-.24.75-.2.93.05.07.1.24.24.38.3.38.16.9.49 1.31.81.2.16.42.29.47.29.06 0 .11.04.11.09s.28.38.63.73c1.74 1.74 2.16 3.3 2.17 7.95v1.71l-22.8-.01-22.8-.01zm34.87.91c-.13-.09-.18-.24-.15-.43.03-.3.13-.36.81-.5.47-.1.54-.44.24-1.22-.52-1.37-.79-1.98-.93-2.09a.36.36 0 0 1-.14-.25c0-.07-.07-.33-.17-.57-.2-.55-.11-.66.59-.67.62 0 .68.08 1.18 1.72l.35 1.13.33-.98c.18-.53.37-1.16.43-1.38.11-.44.26-.54.81-.54s.73.25.48.68c-.06.09-.32.81-.59 1.59-.28.78-.54 1.5-.6 1.6s-.2.44-.32.77c-.35.95-.63 1.19-1.45 1.24-.48.02-.75-.01-.87-.1Zm1.15-.18c.45-.13.72-.45.93-1.13.09-.29.22-.63.3-.77.07-.14.35-.88.63-1.65s.53-1.48.57-1.57c.06-.15.01-.18-.34-.18-.37 0-.41.03-.41.24 0 .14-.13.57-.29.98-.15.4-.37.98-.47 1.28-.27.78-.33.72-.9-.95l-.51-1.5-.42-.03-.42-.03.17.38c1.63 3.74 1.71 4.29.6 4.5-.25.06-.42.15-.44.25-.05.26.41.34 1 .18Zm-18.07-1.21c-2.17-.81-1.75-4.39.51-4.39 1.09 0 1.8.58 2.05 1.67.23.97.14 1.03-1.41 1.03-1.39 0-1.47.04-.99.44.37.31.61.33 1.03.06.52-.32 1.5.04 1.28.47-.29.54-1.78.97-2.47.72Zm4.01-.09c-.97-.37-1.22-.85-.57-1.14.37-.17.4-.17.72 0 .4.21 1.23.24 1.41.06.17-.17.03-.26-.81-.52-1.96-.62-2.31-2.12-.62-2.69 1.2-.4 3.49.67 2.34 1.09-.16.06-.39.16-.52.23-.19.1-.25.09-.29-.01-.13-.41-.87-.57-1.27-.28-.3.22-.05.41.88.66 1.62.44 2.12 1.12 1.52 2.04-.44.66-1.8.93-2.79.56Zm4.79.05c-1.68-.59-1.68-3.89 0-4.31.29-.07 1.13-.01 1.37.1.15.07.17-.01.2-.81l.03-.88h1.3l.03 2.84c.02 2.01-.01 2.88-.09 2.97-.13.16-1 .19-1.15.04-.06-.06-.24-.04-.49.05-.5.18-.7.18-1.2 0Zm4.22-.06c-1.27-.67-.98-1.99.5-2.33 1.16-.26 1.25-.31 1.21-.68-.05-.51-.89-.53-1.08-.03-.2.53-1.2.25-1.06-.29.26-1.04 2.43-1.44 3.18-.59.28.31.37 1.07.31 2.55-.07 1.53-.03 1.48-.85 1.39-.39-.05-.65-.03-.8.06-.34.18-.98.15-1.41-.08Zm-18.16-.06c-.71-.37-.88-.99-.9-3.2-.01-1.01 0-1.03.69-1.03.71 0 .75.08.66 1.58-.1 1.63.16 2.08.99 1.69l.35-.17V9.51c0-1.76-.02-1.71.71-1.71.74 0 .73-.05.67 2.35-.04 2.1 0 1.96-.64 1.95-.79-.02-.96-.01-1.59.05-.47.05-.67.02-.94-.12ZM11.35 12c-.04-.07-.04-1.11 0-2.32.09-2.55.16-2.38-.98-2.38h-.78l.03-.52.03-.53 2.32-.03c2.6-.03 2.53-.05 2.38.74l-.06.34H12.6l-.02 2.38-.03 2.37-.57.03c-.34.02-.59-.01-.63-.08Zm19.69-.31.37-.22.06.22c.04.16.13.21.39.21h.34V9.15c0-3.01.03-2.85-.57-2.69-.21.06-.22.13-.25.98-.03 1.02 0 .99-.81.7-1.24-.43-2.25.7-1.99 2.24.23 1.41 1.32 1.98 2.46 1.31Zm4.35.05c.43-.18.51-.18.51.01 0 .11.11.15.36.15h.36l-.03-1.65c-.04-1.64-.04-1.65-.31-1.92-.66-.65-2.68-.24-2.68.54 0 .2.48.16.59-.06.23-.42 1.01-.52 1.36-.16.61.6.28 1.03-1.06 1.36-1 .25-1.19.39-1.19.9 0 .91.96 1.29 2.09.83ZM12.28 9.48l.02-2.37.9-.07c.86-.06.9-.08.9-.3V6.5H9.8v.24c0 .24.03.25.9.32l.9.07v4.78l.33-.03.32-.03zm4.88 2.25c.34-.17.37-.17.49 0 .09.13.23.17.47.15l.33-.03.03-1.87.02-1.88h-.79l-.03 1.48-.03 1.47-.46.24c-1.06.56-1.39.15-1.39-1.73 0-1.56-.02-1.62-.51-1.51l-.31.07.04 1.48c.03 1.32.05 1.52.24 1.77.41.55 1.19.69 1.9.36Zm5.42-.09c.66-.39.14-.63-.62-.3-.71.32-1.66-.2-1.66-.89v-.25h2.8v-.26c0-2.12-2.86-2.65-3.4-.64-.52 1.92 1.21 3.32 2.88 2.34Zm4.43.02c.56-.36.62-1.23.11-1.5-.15-.08-.63-.24-1.07-.36-1.26-.35-1.67-.78-1.1-1.16.39-.26.95-.28 1.38-.05.31.16.44.18.65.1l.27-.1-.25-.2c-.81-.62-2.45-.47-2.78.26q-.435.93.78 1.38c.25.09.71.26 1.03.38.84.3.9.71.13.96-.38.13-.78.08-1.43-.18-.44-.18-.81.1-.48.36.51.39 2.24.46 2.76.11Zm2.87-.32c-.47-.25-.65-.81-.6-1.82.05-.98 1.56-1.37 2.02-.53.13.25.13 1.62 0 1.96-.18.46-.92.67-1.42.39Zm4.38-.05c-.47-.37-.33-.7.39-.96.88-.32 1.15-.31 1.15.07 0 .89-.89 1.4-1.54.89ZM30.9 11c.31-.31.3-1.82-.02-2.04-.78-.55-1.55.26-1.34 1.4.14.73.9 1.1 1.36.64Zm4.39-.06c.3-.38.28-.56-.06-.48-.68.17-.77.21-.87.37-.26.42.61.51.93.11ZM48.9 9.73c-.26-.81-.73-1.93-.81-1.93-.05 0-.09-.05-.09-.11 0-.22-.73-1.22-1.31-1.8-.32-.32-.54-.61-.5-.64.05-.02.14.02.21.1s.16.15.21.15c.13 0 .78.73.79.88 0 .06.05.12.1.12.06 0 .15.11.2.25s.14.25.2.25c.05 0 .1.05.1.11s.1.25.23.42c.22.32.29.48.73 1.71.27.77.28.86.15.86-.05 0-.15-.17-.21-.37Zm-28.6-.26c0-.86 1.19-1.31 1.74-.66.15.18.26.43.26.6v.29h-1c-.97 0-1-.01-1-.23Zm1.7-.26c-.29-.56-.75-.66-1.15-.26-.39.38-.32.45.5.45.72 0 .75-.01.65-.19ZM10.56 3.52c-.03-.05.36-.12.87-.16.51-.03 1.06-.09 1.22-.14.43-.11 28.95-.02 28.95.09 0 .05-5.61.11-13.77.14-7.58.02-14.55.07-15.5.1-.98.03-1.74.02-1.77-.03ZM12.78.03c7.05-.02 18.59-.02 25.65 0 7.05.01 1.28.02-12.83.02S5.72.04 12.78.03Z"/></svg>