<svg xmlns="http://www.w3.org/2000/svg" width="51" height="51" viewBox="0 0 51 51"><path fill="#fff" fill-rule="evenodd" stroke="#fff" stroke-width=".718" d="M23.7 48.64C10.59 47.37 1.34 36.11 2.69 23.08 3.78 12.53 12 4.11 22.53 2.75 37.66.8 50.4 13.49 48.45 28.57c-1.47 11.34-10.99 19.87-22.4 20.08-1.04.01-2.1.01-2.35-.01Zm4.28-.35C43.79 46.55 53.01 29.73 46 15.45 39.16 1.53 20.45-1.51 9.4 9.5 2.58 16.3.88 26.97 5.21 35.85c4.05 8.32 13.47 13.47 22.77 12.44Zm-11.52-7.2c-1.49-.35-2.79-1.63-3.27-3.2-.19-.64-.2-.88-.17-5.05l.04-4.39.27-.88c1.02-3.32 3.53-5.71 6.9-6.59 1.12-.29 8.36-.4 9.82-.14 4.3.74 5.54 6.04 1.97 8.43-1.19.8-1.4.83-5.83.83H22.3v3.34c0 1.85-.05 3.57-.1 3.87-.49 2.58-3.21 4.37-5.74 3.78Zm2.36-.39c1.2-.37 2.25-1.29 2.81-2.48l.32-.67.06-4.65c.06-5.13.08-5.3.77-6.82.88-1.93 2.83-3.77 4.96-4.66.45-.18.67-.31.51-.27-2.24.48-4.91 2.72-5.86 4.92-.69 1.6-.72 1.87-.79 6.93-.06 4.91-.06 4.85-.55 5.8-1.29 2.5-5.23 2.49-6.81-.02-.32-.5-.64-1.41-.64-1.8 0-.49.17-.3.34.39.19.79.53 1.4 1.08 1.95 1.31 1.31 3.83 1.43 5.06.25.92-.87 1.02-1.5 1.02-6.32 0-4.99.14-6.04 1.03-7.8.58-1.16 1.94-2.78 2.72-3.24.63-.38-4.65.04-5.72.45-.44.17-.66.13-.46-.07.59-.59 6.51-1.1 6.47-.56-.02.22-.06.24.89-.27.45-.24 1.02-.5 1.27-.58l.45-.13-.65-.06c-1.81-.18-5.69-.03-6.87.27-3.29.82-5.96 3.51-6.73 6.77-.22.93-.36 7.92-.19 9.15.38 2.68 2.94 4.32 5.51 3.52Zm-.07-.81c-.04-.06-.05-.11-.04-.13.86-.53 1.21-.93 1.49-1.66.1-.26.15-1.48.21-5 .07-4.97.1-5.25.64-6.86.28-.85.69-1.63 1.2-2.31.58-.76 1.35-1.54 1.45-1.48.07.04-.07.26-.33.54-2.25 2.41-2.67 3.95-2.67 9.88 0 3.97-.07 4.83-.41 5.64-.3.69-1.38 1.66-1.54 1.38Zm12.48-10.46c2.73-1.29 3.46-4.89 1.41-6.99-1.3-1.33-2.69-1.58-4.62-.84-1.07.41-2.92 1.62-2.92 1.91 0 .05-.15.3-.34.56-.77 1.08-1.33 2.5-1.56 3.96-.08.5-.17.77-.26.77-.35 0 .24-2.35.96-3.84.29-.6.3-.6.05-.31-.9 1.05-1.5 2.71-1.69 4.63l-.05.53 4.17-.03 4.17-.03zm-18.22-3.18c-.07-1.95-.07-7.52 0-8.12.5-4.51 4.08-7.86 8.77-8.22 2.08-.16 11.73-.13 12.55.04 4.06.84 5.21 5.95 1.88 8.39-1.16.85-.68.8-8.51.87-7.84.06-7.54.03-9.38.9-2.08.97-3.95 2.94-4.81 5.05-.43 1.07-.5 1.21-.5 1.09Zm.75-2.96c1.07-5.15 4.27-9.48 8.65-11.7.6-.3.79-.46.35-.29-4.66 1.77-9.05 7.72-9.41 12.75-.09 1.11.09.79.41-.76Zm.91-.59c1.39-1.78 3.04-2.87 5.28-3.47l1-.27 6.85-.06c7.48-.07 7.14-.04 8.1-.69a4.37 4.37 0 0 0-.36-7.53c-.96-.52-1.43-.58-4.49-.58-3 0-3.74.08-5.5.56-4.69 1.3-8.58 4.75-10.54 9.35-.37.86-1.01 3.01-1.01 3.38 0 .17-.01.18.67-.69Zm-1.27-.67c0-1.06 1.68-4.4 3.08-6.15 2.58-3.19 5.07-4.75 8.92-5.58l.85-.19h-1.98c-2.34-.01-3.62.11-4.71.46a9.07 9.07 0 0 0-6.21 7.08c-.18 1.02-.22 4.7-.05 4.6.06-.03.1-.13.1-.22Zm21.2-4.22c0-.06.18-.2.4-.32 1.66-.94 1.63-3.95-.06-5.24-1.84-1.4-8.13-1.4-11.9.01-.96.36-1.14.4-1.14.25 0-.29 2.57-1.06 4.5-1.36 1.31-.2 6.35-.37 7.22-.25 3.04.43 4.45 3.33 2.79 5.73-.44.64-1.81 1.53-1.81 1.18Zm1.98-1.98c.89-1.93-.39-4.13-2.66-4.62-.75-.16-1.08-.13-.45.04 2.19.59 3.54 2.79 2.9 4.69-.22.63-.11.58.21-.11Z"/></svg>