<svg xmlns="http://www.w3.org/2000/svg" width="51" height="51" viewBox="0 0 51 51"><path fill="#fff" fill-rule="evenodd" stroke="#fff" stroke-width=".288" d="m29.36 48.47-.37-.54-1.27-.06c-3.03-.16-9.75-1.59-13.66-2.92l-.99-.33-.49.41-.49.41-.52-.28c-3.16-1.76-4.68-2.85-6.59-4.76-.87-.86-1.58-1.61-1.58-1.66 0-.08 2.93-.6 5.67-1 .4-.06.42-.08.35-.33-.47-1.68.7-3.45 2.7-4.1.21-.07.38-.19.38-.27s.22-.98.5-2.01c.27-1.03.5-1.88.5-1.88 0-.01-.19.15-.41.36-1.99 1.83-8.28 1-10.7-1.41-1.49-1.48-1.35-2.94.39-4.07.28-.18.52-.35.52-.37s-.18-.42-.4-.9c-.62-1.33-.6-1.36.96-1.36 1.02 0 1.02 0 1.63.98.42.67.43.66.2-.2-.24-.96-.23-.97 1.28-1.05 1.39-.07 1.29-.14 1.49 1.04.24 1.39.19 1.38.87.22.75-1.29.56-1.19 2.2-1.19s1.61-.05.86 1.26c-1.18 2.03-1.17 1.92-.1 2.73.88.68 1.26 1.09 1.51 1.65.15.31.19.35.24.2.43-1.45 1.31-4.72 2.32-8.69.69-2.69 1.34-5.25 1.46-5.7.11-.44.54-2.02.95-3.5s.99-3.59 1.29-4.68C20.88 1.46 21.22.9 22.48.54c.95-.28 1.08-.25 9.47 1.97 10.09 2.68 10.1 2.68 10.68 3.99.41.93.36 1.25-1.17 6.85-.42 1.54-1.13 4.19-1.58 5.9-1.25 4.8-4.16 15.62-4.61 17.15l-.23.75.53 1.05c.9 1.79.93 3.05.11 4.34-.72 1.12-2.72 2.16-4.16 2.16-.44 0-.47-.06.93 1.9 1.26 1.78 1.49 2.15 1.4 2.3-.04.06-.89.1-2.09.1h-2.04zm1.52-.19c-2.16-2.88-3.17-4.43-2.67-4.12.09.05 1.6 2.05 2.84 3.77.27.37.55.67.63.67.12 0 .12-.03.01-.19-.08-.11-.55-.77-1.04-1.47-2.02-2.85-2.14-3.04-1.86-3.04.05 0 .75.93 1.55 2.08 2.02 2.85 1.81 2.64 2.49 2.6l.57-.03-1.4-1.97c-1.63-2.3-1.58-2.13-.72-2.21 3.18-.3 5.03-2.18 4.52-4.6-.12-.59-.75-1.97-.9-1.97-.1 0-.2.54-.1.6.13.09.37.64.55 1.28.53 1.89-.68 3.55-3.02 4.16-1.17.31-1.5.04-.41-.33 2.27-.77 3.49-2.59 2.89-4.33-.12-.37-.31-.51-.31-.24 0 .74-1.06 2.91-1.7 3.49-.84.76-2.48 1.37-3.67 1.37-.76 0-.73-.25.05-.35 2.41-.28 3.81-1.26 4.51-3.15.34-.93 1.19-3.75 1.62-5.39.22-.86.74-2.75 1.14-4.21s1.16-4.27 1.69-6.25c.52-1.98 1.54-5.83 2.27-8.55 2.18-8.16 2.11-7.89 2.06-8.46-.16-1.56-.78-1.95-5.02-3.08C22.55.38 23.27.54 22.22 1.06c-.87.43-1.06.78-1.67 3.04-.18.69-.71 2.64-1.18 4.35s-1.24 4.61-1.72 6.45c-1.54 5.96-2.15 8.3-2.9 11-3.17 11.42-3.12 12.47.65 14.53 1.95 1.07 7.86 2.76 11.22 3.22.48.06.62.2.31.32-.22.09-1.26-.1-3.93-.69-9.47-2.11-12.11-4.47-10.64-9.5.11-.39-1.03.19-1.79.91-.76.71-1.05 1.79-.73 2.71.2.59.37.53-2.64 1-1.46.22-2.76.44-2.89.49l-.25.07.35.37.34.37 3.15-.49c4.11-.65 4.16-.66 4.25-.51.11.18.06.2-1.91.5-1.04.16-2.59.4-3.44.54-.85.15-1.59.26-1.64.26-.15 0 .89 1.04 1.7 1.69.95.77 2.16 1.57 3.82 2.52l1.36.79.33-.32.33-.32-1.03-.54C9.4 42.62 6.7 40.87 6.7 40.6c0-.19.21-.1.83.34 1.31.93 5.07 3.06 5.38 3.06.08 0 .67-.48 1.33-1.06 1.07-.95 1.41-1.16 1.41-.87 0 .05-.53.56-1.17 1.14-.65.57-1.14 1.07-1.1 1.1.72.68 11.14 2.99 14.17 3.15l1.2.07-.21-.24c-.11-.13-.58-.77-1.03-1.41l-.83-1.16-.71-.12c-6.01-.99-10.38-2.47-13.06-4.45-1.05-.77-.63-.82.52-.06 2.74 1.8 6.6 3.09 12.09 4.04l1.33.23 1.05 1.46c.58.8 1.26 1.75 1.52 2.12l.48.66h1.22zm-7.26-2.41c-1.28-.28-1.64-.44-1.34-.6.17-.09 2.97.59 2.97.73 0 .2-.09.2-1.63-.13Zm-4.22-.98c-2.35-.6-3.58-1.05-3.39-1.24.04-.03.73.14 1.55.38s1.81.52 2.21.62c.68.16 1.04.37.86.48-.05.03-.6-.08-1.23-.24Zm4.8-2.2c-8.04-1.34-11.81-3.63-11.34-6.91.1-.73.43-.99.45-.36.01.6.22 1.11.46 1.13.18.01.2-.02.12-.22-.14-.37-.11-.61.11-.83.11-.11.2-.33.2-.49 0-.79.49-.94 1.83-.55.4.12.59.92.31 1.32-.14.2-.14.24 0 .44.68.97-.82 1.75-1.86.98l-.32-.23.22.31c.36.5 1.2 1.18 2.03 1.64.43.24.79.46.79.49.03.62-2.57-1.08-3.22-2.1-.15-.25-.28-.4-.28-.34 0 .46 1.2 1.77 2.13 2.34.6.36.78.59.48.59-.52 0-1.95-1.18-2.55-2.1-.4-.61-.47-.6-.15.03 1.01 1.97 4.9 3.56 11.49 4.67.82.14 1 .19 1 .3 0 .17-.31.16-1.9-.11Zm4.64.2c-.1-.17.06-.25.86-.38.7-.11 1.71-.5 2.13-.82.15-.12.07-.14-.6-.14-1.79 0-3.1-1.96-1.49-2.22.26-.04.36-.11.36-.24 0-.42.43-.72.91-.65.94.14 1.43.68 1.2 1.32-.1.27-.1.38-.01.5.07.08.15.28.19.46.11.55 1.03-2.06 2.01-5.72.23-.85.81-2.99 1.3-4.75 1.04-3.77 1.48-5.43 2.66-10 .47-1.87.89-3.47.92-3.55s-.09-.03-.26.12c-.94.79-3.42.59-5.27-.42-.76-.41-2.35-.86-9.3-2.66-4.52-1.16-4.73-1.25-4.94-2-.11-.38-.08-.49-.96 3.02-.41 1.66-.98 3.84-1.25 4.85-.28 1.01-.64 2.38-.81 3.04s-.72 2.75-1.24 4.65-1.16 4.32-1.43 5.38c-.28 1.06-.52 1.96-.55 1.99-.13.12-.27-.1-.21-.35.2-.93 1.23-4.94 1.79-6.97.37-1.32.89-3.28 1.16-4.35.28-1.07.63-2.4.79-2.95s.68-2.53 1.15-4.4c.48-1.87 1.14-4.39 1.47-5.6s.73-2.67.88-3.25c1.03-3.87 1.37-4.86 1.79-5.24.3-.27.35-.15.12.25-.16.27-.61 1.67-1.08 3.32-.04.16-.02.17.15.08.47-.25 1.22-.11 5.19.98 2.19.6 5.65 1.52 7.68 2.04 6.2 1.6 6.13 1.57 6.49 2.3.1.21.19.37.21.35.11-.13.8-2.96.84-3.47.07-.73.26-.92.37-.37.09.49.05.67-.98 4.41-.86 3.16-1.17 4.31-2.42 9.15-1.25 4.82-1.61 6.17-2.31 8.7-.4 1.46-.99 3.6-1.3 4.75-1.7 6.38-2.31 7.75-3.72 8.38-.9.4-2.36.67-2.49.46Zm-3-.49c-1.4-.1-1.74-.18-1.74-.37 0-.13.09-.15.52-.09 1.32.15 3.31.18 4.37.07 1.12-.13 1.35-.11 1.14.1-.27.27-2.59.43-4.29.29Zm-14.91-.63c-.88-.53-1.25-.87-.95-.87.15 0 2.16 1.26 2.2 1.38.07.23-.23.11-1.25-.51Zm.17-.41c-1.06-.62-1.79-1.27-1.16-1.03.5.19 2.56 1.5 2.56 1.62 0 .22-.05.2-1.4-.59Zm13.3.22c-2.37-.2-4.67-.69-5.97-1.28-.35-.16-.61-.25-.58-.19.04.05.22.16.41.24.38.16.38.35-.01.35-.26 0-.85-.5-.85-.73 0-.19.14-.3.24-.19.04.04.2.08.34.09.15 0 .72.17 1.26.37 1.27.47 3 .82 4.94 1 .83.08 1.56.18 1.62.21.15.09.02.25-.18.24-.09-.01-.64-.06-1.22-.11Zm7.48-.5c.26-.26.15-.52-.14-.33-.62.4-1.9-.06-1.87-.67.03-.41.02-.41-.21-.32-.43.16 0 .94.68 1.25.46.21 1.36.25 1.54.07ZM23 40.89c-1.56-.2-4-.85-4.16-1.1-.13-.22.1-.2 1.01.1 1.19.38 2.78.69 4.09.79.65.04 1.01.11 1.04.2.04.14-.91.15-1.98.01Zm3.66-.2c-1.52-.37-2.07-2.45-.63-2.42l.54.01.12-.38c.13-.45.23-.53.63-.52.58.02.8.44.57 1.1-.09.27-.07.35.2.73.74 1.02-.04 1.83-1.43 1.48Zm4.81-.26c.02-.06-.05-.14-.17-.18-.27-.09-.21-.26.16-.44.49-.24.52-.47.11-.74-.45-.28-.86-.29-.99-.02-.16.36-.06.39.41.15.36-.18.42-.19.47-.05.1.26-.03.42-.41.49-.2.04-.46.17-.58.29l-.21.21.5.23c.51.23.65.25.71.06Zm-3.49-.48c.04-.29.03-.29-.15-.12-.6.53-2.44-.44-1.88-.99.19-.19.07-.31-.2-.2-.33.12-.06 1.03.38 1.28.85.49 1.8.5 1.85.03Zm14.3-.25c-5.84-1.23-8.13-5.65-3.65-7.06.44-.14.56-.21.52-.33-.24-.6-.27-1.09-.11-1.41.11-.23.16-.59.16-1.17 0-1.47.31-1.84.96-1.13 1.06 1.14 3.34 2.04 3.34 1.33.01-1.28 1.33-2.21 2.71-1.92.3.07.97.15 1.49.18 1.15.07 1.19.14.68 1.18-.28.59-.33.79-.34 1.49-.02.86-.28 1.84-.64 2.39l-.19.29.6.38c4.54 2.87.53 7.06-5.53 5.78Zm-14.68-.32c0-.06-.07-.19-.16-.29-.14-.15-.14-.2 0-.54.2-.47.2-.71.01-.79-.23-.09-.45.22-.45.64 0 .35-.03.39-.27.42-.46.05-.41.34.09.51.53.19.78.21.78.05Zm18.83-.03c2.36-.5 3.72-2.78 2.38-3.99l-.21-.19.15.36c.43 1.04-.23 2.6-1.24 2.92-.12.03-.21.13-.21.22 0 .11-.03.13-.13.05-.14-.12-.92.01-1.14.2-.24.19-3.65.04-4.58-.21-1.07-.29-2.51-1-3.13-1.56-.46-.42-.82-.57-.82-.36 0 .23 1.27 1.19 2.17 1.65 1.85.93 4.79 1.33 6.76.91Zm-23.83-.04c-1.42-.43-2.01-2.11-.74-2.11.18 0 .22-.07.27-.42.09-.65.65-.91 1.04-.48.14.14.3.19.62.17.35-.01.47.03.63.23l.19.24 1.4-1.4c1.14-1.13 1.36-1.4 1.22-1.46-.1-.04-.71-.24-1.35-.44-.78-.23-1.18-.41-1.18-.5 0-.2.06-.19 1.57.27.74.22 1.37.39 1.39.37.02-.03-.53-.22-1.24-.43-1.4-.42-1.62-.51-1.62-.65 0-.17.3-.11 1.79.36l1.45.46 2.2-2.22 2.2-2.21-.51-.24c-1.24-.57-2.63-1.65-2.13-1.65.06 0 .5.27.99.6 1.21.82 2.01 1.15 2.01.81 0-.04-.24-.17-.53-.29-.69-.29-1.97-1.26-2.4-1.82-.58-.76-.6-.89-.64-3.95-.04-3.62-.35-5.58-1.05-6.73-.23-.38.02-.63.28-.27.75 1.03 1.14 3.4 1.14 7 0 3.62.43 4.4 3.08 5.59.76.35.94 0 .31-.62-.75-.75-.78-1.46-.09-1.68.28-.09.36-.18.41-.44.13-.63.26-.66 1.36-.36 1.61.44 1.57.41 1.22 1.21-.2.45-.2.5-.05.82.45.95-.26 1.53-1.5 1.22-.34-.09-.47-.09-.59.01-.25.2-.18.28.41.47.52.16.75.35.61.5-.03.03-.41-.07-.83-.21-.43-.14-.74-.22-.68-.17.05.05.32.16.59.25.65.21.83.32.7.45-.06.06-.38 0-.88-.17l-.78-.26-4.22 4.22c-2.32 2.32-4.31 4.28-4.41 4.35-.18.13-.18.15-.03.38.62.87-.36 1.58-1.63 1.2Zm1.24-.37c.09-.03.16-.15.16-.25 0-.19-.01-.19-.26-.03-.21.15-.31.15-.58.06-.18-.07-.4-.12-.5-.12-.56 0-.96-.55-.63-.89.1-.1.07-.12-.13-.09-.35.04-.39.47-.08.82.37.43 1.48.71 2.02.5Zm22.39-.43c.03-.13.17-.21.48-.26 1.75-.28 2.42-2.23 1.07-3.15l-.33-.23.26.29c1.02 1.13.43 2.36-1.36 2.81-.87.22-.83.18-.55.48s.36.31.43.06Zm-.88-.1c0-.11-.25-.13-1.26-.12-3.74.05-7.03-1.95-6.11-3.71l.19-.37-.22.15c-1.28.84.33 2.94 2.9 3.77 1.38.46 4.5.65 4.5.28Zm-26.82-.15c-1.38-.43-1.85-1.82-.71-2.05.28-.06.34-.12.39-.44.07-.46.12-.5.47-.5 1.41 0 2.02.56 1.61 1.46-.09.19-.07.31.05.55.46.9-.46 1.4-1.81.98Zm4.38-.51c.25-.28.38-.35.68-.35.48 0 .84-.32.54-.48-.2-.11-.83.09-.83.27 0 .05-.09.13-.2.16-.25.08-.8.53-.8.66 0 .21.33.07.61-.26Zm-2.97.19c.09-.03.16-.15.16-.25 0-.23-.07-.24-.27-.03-.09.09-.25.13-.37.11-.12-.03-.41-.11-.66-.17-.7-.17-.93-.36-.88-.71.04-.23.01-.29-.11-.27-.29.06-.24.51.07.81.48.46 1.53.72 2.06.51Zm-9.65-.46c-.37-.89-.11-1.87.68-2.64.74-.71 1.23-.75.6-.05-.68.75-.88 1.58-.63 2.64.12.53-.43.57-.65.05Zm35.84.02c1.72-.53 2.09-1.6.83-2.44-.67-.44-.68-.44-1.2-.01-1.42 1.16-2.79 1.25-3.26.2-.23-.52-.34-.66-.57-.71-.15-.03-.55-.14-.89-.25l-.6-.19-.59.25c-.57.26-1.05.3-1.12.1-.02-.06.43-.3.99-.55.72-.31.96-.46.81-.48-.27-.04-.29-.14-.08-.32.09-.07.14-.19.11-.27-.07-.17 0-.17.35.04.33.2.36.33.13.69-.09.13-.15.26-.13.28.07.07 1.09.35 1.09.3 0-.03-.23-.71-.51-1.52s-.53-1.57-.56-1.7-.19-.29-.37-.37c-.17-.08-.41-.22-.53-.31-.22-.16-.23-.16-.23.12 0 .4.15.63.23.35.08-.31.2-.26.51.21.45.69.22.84-.71.48-.29-.11-.53-.16-.53-.12 0 .25.32 1.09.54 1.43.37.56.35.61-.58 1.03-1.63.73-1.09 1.45.69.91.58-.17.62-.15.36.16-.17.21-.29.24-1.06.28-.96.04-1.06.11-.81.6.78 1.5 5.27 2.56 7.69 1.81Zm-34.61.02c-.31-.58-.19-1.94.2-2.29.21-.18.21-.18.12.22-.05.22-.09.82-.08 1.32.01.91-.06 1.11-.24.75Zm8.16-.43c.02-.13.1-.32.18-.43.2-.29.17-.64-.06-.76-.35-.19-1.11-.25-1.21-.09-.07.11.01.15.39.19.7.07.72.53.02.58-.68.05-.81.42-.14.42.23 0 .38.06.46.2.16.25.32.21.36-.11Zm23.13.1c-.86-.08-1.24-.2-1.09-.34.03-.03.68-.01 1.44.04s1.52.09 1.68.08c.44-.03.43.19-.01.27-.45.07-.75.06-2.02-.05Zm-26.71-.3c.13-.24.05-.38-.12-.21-.16.16-.58.15-1.01-.03-.44-.18-.58-.19-.51-.02.17.45 1.43.65 1.64.26Zm29.36.14c-.08-.09.14-.33.3-.33.08 0 .23-.09.34-.2.22-.22 1.1-.4 1.1-.23 0 .09-.28.23-1.36.69-.17.07-.34.1-.38.07Zm-7.96-.73c0-.1-.04-.21-.09-.24-.17-.11-.3-.9-.21-1.3.15-.69 1.05-1.38 2.08-1.61.37-.08.43-.25.08-.25-1.59 0-2.86 1.33-2.56 2.67.17.78.7 1.33.7.73Zm2.95.21c-.18-.04-.31-.14-.33-.25-.03-.15 0-.17.14-.12.11.04.52.1.92.13.59.05.7.08.61.19-.12.15-.79.17-1.34.05Zm-24.65-.25c0-.07-.07-.19-.15-.26-.14-.11-.12-.15.15-.32.39-.23.39-.66 0-.85-.29-.14-.44.03-.16.19s.17.38-.3.58c-.55.24-.56.49-.04.67.46.16.5.16.5-.01Zm27.49-1.49c-.18-.45-.58-1.61-.91-2.58-.57-1.68-.61-1.77-.94-1.92-.46-.22-.46-.24.37 2.15 1.05 2.99 1.14 3.18 1.54 3.18h.24zm.81.63c0-.06-.07-.26-.14-.45-.24-.58-1.36-3.94-1.36-4.09 0-.13-.28-.31-.36-.23-.04.04 1.04 3.26 1.56 4.63.09.24.3.33.3.14Zm-12.32-.42c-.92-.3-1.29-.58-.76-.58.21 0 .21 0 .02-.14-.43-.32.16-.28 1.26.09.94.31 1.46.65 1 .65-.05 0-.07.07-.04.15.09.24-.38.18-1.48-.17Zm13.01.23c.11-.07.07-.28-.27-1.13-.22-.56-.58-1.53-.79-2.13-.32-.92-.42-1.11-.61-1.13-.29-.04-.33-.22.53 2.25.41 1.19.75 2.18.75 2.2 0 .06.25.02.39-.06Zm.48-.74c-.48-1.29-1.43-3.57-1.49-3.57-.09 0 1.16 3.56 1.38 3.92.13.21.21-.06.11-.35Zm.66-.19c.08-.11-.09-.66-.62-2.07-.88-2.35-.92-2.66-.36-2.98.65-.37 2.52-.28 2.52.12 0 .17-.24.19-.86.04-.24-.05-.45-.08-.47-.06-.08.07.26 1.37.5 1.91.39.87.36 1.11-.19 1.44-.48.29-.49.34-.25.98l.11.27.25-.37c.63-.92.89-1.66.89-2.51v-.8L47 30.2c-.63-.07-.63-.34 0-.38.38-.02.49-.08.67-.35.42-.61.41-.67-.1-.67-.26 0-.72-.07-1.04-.15-1.09-.28-1.87-.05-2.23.66-.37.71-.29 1.08.77 3.77.54 1.38.65 1.53.86 1.2Zm-13.46-.22c-1.42-.51-2.18-2.36-.96-2.36.12 0 .19-.07.19-.2 0-.81 1.7-.95 2.24-.19.18.26.22 1.04.06 1.14-.06.04-.03.16.1.32.72.91-.34 1.75-1.63 1.29Zm1.37-.52c.18-.18.18-.17.1-.38-.05-.13-.1-.12-.34.06-.6.44-1.9-.09-1.9-.78 0-.39-.31-.47-.38-.11-.16.84 1.91 1.83 2.52 1.21Zm-.44-.72c0-.04-.05-.13-.12-.2-.09-.09-.05-.16.15-.32.7-.55-.17-1.39-1.07-1.04-.33.13-.14.24.38.24.47 0 .56.03.62.22.1.33-.17.48-.67.35-.7-.17-.81.24-.17.63.33.2.88.27.88.12Zm-6.26-.18c-1.38-.49-2.08-2.44-.88-2.44.32 0 .37-.14.19-.49-.08-.17-.15-.44-.15-.61 0-.25-.04-.3-.23-.3-1 0-2.94-1.13-3.6-2.09-.41-.61-.22-.55-2.5-.76-2.17-.2-2.47-.26-2.47-.51 0-.13.07-.15.38-.1.61.1 3.42.36 3.83.36.36 0 .39-.02.39-.28 0-.53.57-1.02 1.2-1.02.4 0 .38-.14-.1-.78-.37-.49-.48-.72-.34-.72.19 0 .48.27.87.83.44.62.48.65 1.05.76.32.06.91.27 1.32.46l.73.36-.06-2.23c-.11-3.59-.72-7.18-1.22-7.18-.34 0-2.38 2.79-2.64 3.62-.07.21-.18 1.04-.25 1.86-.15 1.7-.16 1.72-.6 1.72-.9 0-1.56.13-1.56.3 0 1.23-2.95.73-3.55-.6-.24-.52-.08-.89.43-1.05.23-.07.32-.15.32-.31 0-.5 1.19-.61 2.05-.19.43.21.44.26.31 1.02-.1.55-.03.57 1.17.48l.93-.07.12-1.36c.18-1.91.24-2.08 1.23-3.58 1.66-2.52 2.26-2.78 2.78-1.23.52 1.6.81 3.81.88 6.84l.05 2.3.89.83c1.23 1.16 1.4 1.98.5 2.5l-.3.17.37.1c.5.14.66.47.45.94-.26.61-.33 1.13-.17 1.35.6.87-.54 1.55-1.82 1.1Zm-5.84-.22c-.72-.21-.96-.32-.98-.46-.03-.14.01-.18.14-.14.11.03.65.18 1.22.33.66.18 1.02.33 1.02.41 0 .2-.32.16-1.4-.14Zm18.76.07c-.15-.09-.16-.13-.05-.2.12-.08.11-.11-.03-.2-.1-.05-.18-.17-.18-.24 0-.18-.01-.18.36-.06.16.05.42.12.57.16.24.05.27.09.21.28-.11.37-.49.48-.88.26Zm6.54-.38c0-.36-.11-.4-.55-.19-.39.19-.42.23-.33.44l.11.23.38-.2c.22-.11.39-.23.39-.28Zm-18.14.21c.13-.09.24-.38.17-.46-.03-.03-.15.01-.27.09-.75.53-2.24-.39-1.91-1.19.1-.23-.23-.19-.38.05-.42.66 1.68 1.99 2.39 1.51Zm-7.01-.34c-1.07-.32-1.29-.43-1.01-.54.24-.09 2.36.56 2.36.73 0 .18-.21.15-1.35-.19Zm24.73-.91-.11-.34-.38.15c-.41.16-.46.26-.28.66l.12.25.38-.19c.36-.19.37-.21.27-.53Zm-17.84.31c.34-.48.22-.85-.34-1.03-.67-.22-.55-.39.21-.31.54.06.59.05.59-.12s-.14-.22-.89-.36c-1.12-.2-1.22-.2-.95.02.16.13.2.26.17.49-.04.27-.02.31.24.36.42.08.76.38.68.6-.1.25-.38.21-.64-.09-.25-.29-.45-.27-.49.04-.08.5 1.12.83 1.42.4Zm-11.84-.29c-1.74-.5-1.65-.46-1.51-.63.1-.12.22-.11.79.06 2.19.64 2.31.68 2.26.83-.07.19.06.21-1.54-.26Zm5.7.25c-1.7-.46-2.54-2.44-1.03-2.44.23 0 .24-.02.18-.39-.11-.66.17-.85 1.16-.79 1.21.07 1.34.26.99 1.48-.13.44-.12.47.13.74.81.87-.1 1.76-1.43 1.4Zm.99-.35c.25-.09.31-.16.31-.4 0-.34-.1-.37-.28-.09-.33.54-2.12-.1-2.12-.76 0-.13.08-.28.18-.33.15-.1.15-.1-.03-.11-.52 0-.59.54-.14 1 .43.43.94.66 1.7.79.03.01.2-.04.38-.1Zm-6.72-.38c-1.34-.4-1.47-.46-1.31-.6.12-.11 2.96.7 3.02.87.06.2-.33.13-1.71-.27Zm6.44-.63c0-.41.22-1.44.32-1.54.15-.15.06-.24-.23-.24-.17 0-.33.07-.39.18-.09.16-.11.15-.31-.05-.23-.26-.28-.27-.5-.13-.12.07-.12.12-.02.22.17.17.15.73-.04 1.09-.19.37-.18.37.48.6.69.24.68.24.69-.13Zm17.93.15c.07-.07-.82-1.03-.96-1.03-.04 0-.08.13-.08.29 0 .36.83.95 1.04.74Zm-29.24-.28c2.55-.8 2.58-2.86.06-4.59-1.09-.75-.83-.23.32.62 2.05 1.52 1.41 3.31-1.33 3.72-2.55.38-6.9-.75-7.8-2.02-.1-.16-.17-.18-.31-.1-.52.29 1.84 1.72 3.6 2.18 1.78.47 4.29.56 5.46.19Zm5.1 0c-1.46-.47-2.05-2.35-.73-2.35.16 0 .28-.11.43-.4.53-1.03 2.36-.2 2.1.95-.06.29-.05.44.06.59.64.91-.49 1.65-1.86 1.21Zm1.41-.35c.1-.06.19-.19.19-.3 0-.18-.01-.18-.29-.03-.58.34-2.01-.2-2.01-.76 0-.16.06-.31.12-.34.22-.07.01-.19-.21-.12-.56.17.03 1.21.84 1.5.48.17 1.09.19 1.36.05Zm-8.09-.12c-.21-.21-.14-.24.6-.23 1.29 0 2.14-.62 2.12-1.55-.01-.65-.21-.98-.21-.36-.03 1.98-4.45 2.42-7.89.77-2.05-.98-2.36-1.98-.95-3.09.44-.34.14-.45-.33-.13-2.45 1.69 1.12 4.51 5.69 4.51.46 0 .87.04.9.1s.09.1.13.1c.03 0 .01-.05-.06-.12Zm7.81-.6c.12-.1.18-.31.19-.78l.03-.65-.43-.14c-.57-.18-.92-.04-.92.36v.27l.21-.23c.37-.39 1.02-.12.81.34-.13.27-.27.3-.68.15-.26-.1-.54 0-.54.2 0 .11.57.3.86.3.28 0 .32.16.07.23-.15.04-.14.05.03.06.11 0 .28-.05.37-.11Zm10.53-.13c.47-.3.5-1.01.07-1.36-.15-.13-.15-.12-.05.08.39.73-.06 1.28-1.18 1.44-.51.07-.5.08.18.04.44-.02.84-.1.98-.2Zm-17.67-.4c.97-.23 1.6-.7 1.32-.98-.05-.05-.53-.18-1.07-.29-1.18-.23-1.29-.29-1.45-.72l-.12-.34-.59.49c-.76.63-1.13.66-1.82.13-.25-.19-.5-.33-.55-.3-.04.03-.47.06-.95.07-.78.02-.89.05-.95.23-.08.2-.08.2-.21-.04a1.5 1.5 0 0 0-.34-.41c-.17-.15-.19-.2-.08-.31s.15-.1.23.05c.19.33.42.21.24-.13-.15-.29-.17-.3-.43-.16-2.37 1.23 3.35 3.51 6.77 2.71Zm16.55.04c-.02-.04.07-.14.2-.21.14-.07.25-.17.25-.23 0-.05.1-.11.21-.13.3-.05-.09-1.05-.56-1.43-.14-.11-.14-.06.04.22.75 1.23-.58 1.96-2.31 1.25-.32-.13-.66-.22-.77-.19-.3.08-1.46-1.12-1.55-1.61-.1-.49.07-.83.48-1.01.31-.14.31-.14.06-.15-1.45-.02-.78 2.14.94 3.01.92.47 3.24.84 3.01.48Zm-20.39-.53c-1.11-.23-1.96-.54-2.09-.75-.09-.14.28-.15.54-.01.89.48 3.74.82 5.1.62.71-.11 1.01 0 .54.19-.58.24-2.87.21-4.09-.05Zm28.5.12c.14-.06.25-.19.25-.29 0-.25-.15-.32-.3-.14-.08.1-.27.15-.52.13-.21-.01-.43.03-.5.1-.12.12-.07.16.37.25.35.08.43.07.7-.05Zm-8.3-.3c.41-.18.32-.72-.22-1.3-.14-.14-.22-.31-.19-.36.08-.13-.33-.39-1.1-.68-.67-.25-.89-.3-.65-.15.21.14.04.29-.33.29-1.44 0-.82 1.6.83 2.13.65.21 1.3.24 1.66.07Zm6.89-.04c.23-.09.2-.21-.07-.28-.46-.11-.79-.46-.75-.77.03-.2 0-.29-.09-.29-.4 0-.19.76.31 1.15.34.27.37.28.6.19ZM2.45 27.2c.03-.05-.01-.23-.1-.39-.39-.76-.1-1.64.72-2.23.24-.18.39-.34.33-.36-.2-.07-1.22.71-1.42 1.08-.36.66.1 2.51.47 1.9Zm22.97-.07c-.86-.3-1.38-1.09-.96-1.43.58-.49 2.34.38 2.34 1.14 0 .47-.54.59-1.38.29Zm9.83-.13c.1-.31-.12-.6-.45-.6-.35 0-.41-.24-.1-.4.16-.08.28-.08.5.03.31.16.4.13.4-.14 0-.14-.11-.19-.47-.25-.26-.04-.62-.13-.8-.2-.18-.08-.39-.14-.48-.14-.24 0-.18.28.07.32.22.03.58.51.47.63-.04.03-.19.01-.34-.05-.22-.09-.32-.08-.43.04-.24.24-.06.44.53.57.31.07.63.18.73.25.23.18.3.17.37-.06Zm-8.85-.24c0-.33-.88-.85-1.42-.86-.57 0-.21.59.53.89.38.15.89.13.89-.03ZM11 26.51c0-.05-.11-.33-.25-.63-.31-.67-.31-.82.04-1.43.15-.27.55-.99.89-1.58l.61-1.08-1 .03-1.01.03-.67 1.16-.67 1.15.45 1.02c.58 1.28.56 1.26 1.54 1.41.04 0 .07-.03.07-.08Zm-3-.11c0-.05-.18-.49-.39-.97-.45-1.01-1.31-2.79-1.31-2.71 0 .68 1.24 3.78 1.51 3.78.1 0 .19-.04.19-.1Zm-1.21-1.01c-.23-.52-.48-.98-.56-1.04-.07-.05-.46-.62-.86-1.25l-.72-1.15-.79-.03c-.77-.03-.78-.03-.7.2.14.46.68 1.31.86 1.36.1.02.18.07.18.11s.07.16.15.27c.2.25-.12-.5-.37-.88-.21-.31-.23-.58-.04-.58.11 0 1.52 2.47 1.78 3.13.21.5-.31.05-.69-.61-.57-1.02-.63-1.03-.14-.03.23.45.4.85.37.88-.13.14-.36-.11-.7-.76-.2-.39-.39-.71-.41-.71-.04 0 .64 1.52.71 1.59.05.05 1.27.01 1.32-.04.02-.01-.3-.59-.71-1.27-1.12-1.86-1.26-2.18-.97-2.18.06 0 1.62 2.56 2 3.29.12.23.62.72.68.67.01-.02-.17-.45-.39-.97Zm3.28.73c-.03-.04-.21-.47-.41-.95l-.36-.88.71-1.05c.48-.69.78-1.04.91-1.04.29 0 .29 0-1.04 1.81-.19.25-.19.26.16 1.22.26.73.32.97.21.97-.08 0-.16-.03-.18-.08Zm-.97-.65c0-.15-.48-1.03-.64-1.16a.84.84 0 0 1-.21-.41c-.04-.18-.11-.27-.19-.24-.12.05-1.02-1.63-.93-1.73.13-.12.38.16.67.77.42.86.44.84.24-.18l-.17-.82h-.88c-.86 0-.89.01-.88.23.01.31.17.77.18.55.03-.51.99 1.2 1.65 2.94.11.28.23.45.3.42s.19.03.26.12c.14.16.6-.22.6-.49Zm9.55-.14c-.44-.06-1.68-.44-1.83-.56-.26-.21.14-.27.68-.11.28.08.54.13.56.11.03-.02-.23-.12-.56-.21-.38-.11-.6-.22-.6-.32 0-.19.12-.18 1.15.15.89.29 1.18.5.73.53-.12 0 0 .04.27.07.35.04.5.1.5.21 0 .16-.35.21-.9.13Zm8.99-2.01c-.02-2.78-.34-5.23-.9-6.95-.26-.79-.26-.94-.01-.84.81.31 1.81 9.77 1.03 9.77-.08 0-.11-.58-.12-1.98Zm.84 1.93c-.03-.03-.03-.65-.01-1.38.1-2.71-.23-5.57-.87-7.44-.28-.82-.28-1.25-.01-.98.63.64 1.21 4.2 1.21 7.4 0 2.14-.07 2.65-.32 2.4Zm-21.22-1.6c-.71-1.46-.74-1.55-.5-1.55.15 0 1.29 2.21 1.36 2.64.1.59-.28.12-.86-1.09Zm2.94.82c0-.2.63-1.32 1.15-2.04.14-.21.45-.32.45-.17s-1.46 2.44-1.55 2.44c-.03 0-.05-.1-.05-.23Zm9.8-.92c.19-.23-.01-.41-.28-.26-.7.37-2.34-.36-2.12-.95.11-.27.08-.29-.21-.13-.48.25.26 1.11 1.21 1.4.46.14 1.27.1 1.4-.06Zm12.95-.52c.04-.27.11-.99.14-1.61.06-1.15.19-1.44.34-.75.16.72-.15 2.83-.41 2.83-.12 0-.13-.08-.07-.47Zm-13.36-.41c.26-.99.2-1.07-.91-1.13-.74-.04-.73.17.02.25l.6.07v.34c0 .4-.16.54-.34.3-.16-.22-.79-.26-.84-.04-.02.11.09.19.37.28.22.06.43.16.46.21.16.26.54.1.64-.28Zm25.12.13c-4.13-.9-5.8-3.95-2.79-5.09l.45-.18-.13-.39c-.28-.79.17-1.69.83-1.69.27 0 .33.04.33.21 0 .19.04.21.31.15.17-.03.36-.06.4-.06.05 0 .07-.11.03-.25-.23-.93 1.69-.7 1.97.23.1.33.15.37.46.39.7.04.86.35.37.71l-.27.19.28.46c.29.5.34.54.52.36.22-.22.43-.02.43.41v.4l.42-.02c.38-.03.43-.01.48.23.03.14.22.41.43.59 2.15 1.87-.9 4.13-4.52 3.35Zm3-.41c1.79-.52 2.39-1.89 1.19-2.74-.37-.26-.37-.22-.05.26.51.75.21 1.68-.63 1.95-.2.06-.41.15-.46.2s-.15.04-.23-.02c-.09-.09-.2-.07-.4.06-.72.48-3.76-.19-5.06-1.11-.65-.47-.95-.45-.42.02 1.37 1.22 4.32 1.89 6.06 1.38Zm-.68-.68c.96-.15 1.57-.37 1.57-.57 0-.07-.07-.08-.17-.04-.72.3-1.15.36-2.3.33-.67-.01-1.25.01-1.29.05-.13.12-.26.08-.21-.07.07-.18-.27-.28-.43-.12-.08.08-.14.07-.23-.05-.07-.09-.28-.2-.47-.24-1.25-.27-1.98-1.13-1.59-1.86.1-.19.09-.2-.11-.09-1.43.76 1.06 2.43 4.16 2.79.06 0 .54-.05 1.07-.13Zm.45-.9c.4-.13.54-.51.31-.8-.2-.25-.19-.46.02-.46.22 0 .59.54.59.86 0 .34.16.46.26.2.06-.17-.09-.49-.42-.89-.18-.22-.22-.33-.14-.47.08-.15.06-.17-.11-.13-.29.08-.63-.3-.5-.56.09-.15.07-.17-.13-.14-.13.03-.28-.02-.35-.11-.12-.14-.16-.14-.38.04-.45.35-.89.26-1.16-.25l-.16-.3-.01.57c0 .54-.11.8-.25.58-.03-.05-.26-.1-.5-.1-.46 0-.69-.19-1.07-.89-.09-.17-.24-.31-.33-.31-.15 0-.15.02-.01.22.34.49.13.95-.62 1.32-.58.3-.5.71.23 1.16.45.28.54.21.25-.18-.35-.47-.09-1.22.41-1.22.18 0 .19.02.05.15-.2.2-.29.52-.22.78.16.65 3.1 1.29 4.24.93Zm-2.67-.29c-.45-.16-.56-.43-.15-.33.16.03.45.09.64.12.68.11.81.15.75.24-.08.14-.82.12-1.24-.03Zm-3.61-.37c-.14-.27-.12-.77.05-1.09.12-.25.32-.4 1.21-.98.4-.26-.2-.13-.71.15-.85.46-1.22 1.39-.79 2 .18.27.39.2.24-.08Zm3.7-1.84c0-.64.47-1.25 1.25-1.62l.5-.24-.4.06c-.98.14-1.95.98-1.95 1.7 0 .31.03.34.3.34.25 0 .3-.04.3-.24Zm-1.86-.92c.09-.03.16-.16.16-.28s.05-.27.1-.32c.07-.07.04-.16-.1-.29-.11-.1-.2-.29-.2-.42 0-.34-.19-.28-.36.12-.14.34-.12.7.08 1.08.1.19.1.19.32.11Zm1.99-1.31c-.04-.23-.11-.33-.23-.33-.13 0-.16.06-.13.24.04.17-.02.3-.16.42-.21.18-.27.44-.14.58.17.17.71-.58.66-.91Zm-6.46.67c.39-.23.45-.35.72-1.33.36-1.31.24-1.58-.93-2.11-.39-.18-.78-.41-.86-.51-.41-.5-1.36-.74-2.14-.54-.37.09-.56.07-1.47-.19-3.15-.91-12.19-3.24-12.6-3.26-.87-.02-1.51.94-1.53 2.3-.01 1.05.2 1.17 3.64 2.04 5.98 1.51 9.73 2.58 10.66 3.05 1.52.76 3.72 1.04 4.51.55Zm-1.16-.29c-.3-.3-.25-1.15.07-1.19.25-.04.92.55.92.8 0 .45-.66.72-.99.39Zm-1.83-2.09c.02-.81.05-1.48.06-1.5.02-.01.28-.08.6-.14.75-.16.78-.12.84 1.17l.05 1.05-.56.24c-.3.14-.58.3-.62.35-.33.54-.4.31-.37-1.17Zm-2.31.8c-.1-.1-.17-.25-.17-.33s-.1-.19-.22-.24c-.32-.14-.34-.4-.04-.7.26-.26.26-.26.57-.08.7.41 1.08 1.1.77 1.41-.18.18-.73.14-.91-.06Zm-22.53-.87c-2.8-.51-5.59-1.92-6.5-3.29-1.23-1.87-.1-3.79 2.55-4.36.44-.09.59-.16.52-.23-.19-.19-.12-.58.2-.96.19-.24.36-.62.45-1.02.75-3.2 5.85-2.62 5.62.64-.07.88-.04.95.27.89.54-.1.71.38.31.85-.39.46-.17.81.81 1.32 1.96 1.02 2.82 2.77 2.09 4.26-.77 1.57-3.55 2.41-6.32 1.9Zm29.51-1.14c.14-.57.29-1.1.33-1.19.03-.1-.08-.05-.32.13-.46.35-.86.36-2.16.02-1.57-.41-8.59-2.31-11.1-3.01-1.29-.35-3.09-.83-4-1.06s-1.8-.5-1.99-.61c-.41-.24-.35-.3-.64.62l-.24.75.36-.18c.68-.35.53-.38 9.36 2 4.68 1.26 4.7 1.27 5.66 1.24 1.1-.04 1.46.07 2.15.63a4 4 0 0 0 .97.55c.59.22 1.02.63 1.13 1.07.1.37.19.19.49-.96Zm-26.4.74c1.76-.33 2.89-1.19 3.08-2.35.06-.35.06-.35-.18.11-.5.97-3.04 2.36-3.05 1.68-.01-.1-.04-.08-.11.04-.09.15-.26.17-1.23.17-2.55 0-5.12-.83-6.73-2.18-.61-.5-1.05-.47-.51.04 1.95 1.83 6.06 3 8.73 2.49Zm9.5-.95c-2.6-.67-2.75-.72-2.75-.86 0-.19.22-.18 1.05.06.39.11 1.26.34 1.95.51 1.66.4 1.6.38 1.6.55 0 .19-.14.17-1.85-.26Zm-10.11.05c-.05-.12-.27-.15-1.14-.15-2.79 0-6.06-1.26-6.75-2.61-.4-.76.05-1.49.99-1.62C7.39 8.42 8.2 7.7 8.2 6.9q0-.3-.15-.3c-.08 0-.15.09-.15.2 0 .59-.51 1.09-1.44 1.4-3.13 1.04-1.02 3.71 3.74 4.74.94.21 3.11.21 3.04.01Zm1.94-.41c1.38-.72 1.85-2.03 1.03-2.88-.43-.45-.52-.38-.21.16.67 1.19-.04 2.23-1.89 2.74-.39.11-.61.23-.61.32 0 .25.86.08 1.68-.34Zm8.9.06c-1.37-.35-1.44-.38-1.3-.52.11-.11 2.27.35 2.47.53.26.24-.19.24-1.17-.01Zm-11.19-.4c1.98-.33 3.08-1.93 1.65-2.4-.35-.12-.45-.34-.2-.43.74-.29 1.49 1.09 1.06 1.94l-.21.4.21-.13c.61-.38.62-1.27.01-1.86-.57-.57-1.55-1.1-1.47-.8.3 1.09.18 1.33-.65 1.43-.52.06-.68.13-1.03.45-.48.44-.83.54-1.34.41-.48-.13-.52-.21-1.27-2.25-.35-.94-.71-1.89-.81-2.11l-.18-.4-.06.5C8.49 7.95 7.31 9 6.29 9c-.11 0-.31.11-.45.25-1.17 1.17 4.18 3.41 7.05 2.95Zm8.64-.23c-.62-.17-1.02-.47-.63-.47.2 0 1.45.33 1.53.4.24.21-.24.25-.9.07Zm18.38-.07c.46-.25.62-1.01.29-1.42-.29-.38-.58-.47-6.23-1.94-2.87-.74-5.67-1.48-6.22-1.64-5.96-1.72-6.54-1.78-6.87-.68-.24.81-.2.83 3.62 1.83 1.4.37 3.5.93 4.65 1.25 1.16.32 3.4.93 5 1.36 1.59.42 3.37.89 3.95 1.05 1.14.31 1.51.34 1.81.19Zm-15-.24c-.15-.18-.04-.95.17-1.18.22-.25.57-.22.8.07.16.2.21.22.26.1.04-.11.14-.13.38-.08.7.13.86.39.5.83l-.19.23-.39-.19q-.39-.195-.36-.36c.03-.2-.06-.22-.27-.09-.07.05-.1.14-.06.2.27.44-.51.87-.84.47Zm14.06.08c-.03-.04-.04-.19-.01-.34.05-.22.02-.28-.16-.33-.3-.08-.19-.32.14-.3.2.01.26-.03.26-.18 0-.1.07-.19.15-.19.09 0 .15.09.15.25 0 .2.05.25.25.25.16 0 .25.06.25.15 0 .1-.1.15-.28.15-.22 0-.3.07-.39.3q-.165.435-.36.24Zm-15.12-.37c-.19-.15-.16-.61.07-1.13.2-.43.98-.28.98.18 0 .1-.05.18-.11.18s-.08.08-.04.19c.17.55-.42.93-.9.58Zm13.59-.1c-.06-.17.23-1.24.37-1.32.18-.12.2.23.04.79-.17.58-.31.77-.41.53Zm-15.26-.28c-.1-.05-.18-.18-.18-.27-.01-.16-.01-.16-.11.01-.22.37-.89.13-.89-.33 0-.86.68-1.45 1.1-.95.07.08.28.15.47.15.72 0 .8.3.33 1.3-.09.18-.49.24-.72.09Zm-10.88-.17c0-.11-1.43-4.13-1.8-5.06-.29-.73-.3-1.17-.02-.84.11.14.93 2.3 1.62 4.25.38 1.12.83 2.02.64 1.33-.03-.14-.28-.83-.54-1.55-.75-2.03-1.5-4.23-1.5-4.4 0-.49.31.11.87 1.66 1.45 4 1.54 4.19 1.74 4.08.25-.13.28-.01-.45-2.01-.35-.96-.9-2.55-1.21-3.54-.67-2.11-.61-2.02-1.2-1.74-1.16.56-1.3 1.46-.51 3.2.27.58.75 1.79 1.08 2.7s.67 1.73.75 1.82c.16.18.53.25.53.1Zm-6.42-.11c.1-.06.09-.16-.09-.45-.66-1.13.09-2.34 1.76-2.81.81-.23 1.23-.6.55-.5-2.08.33-3.26 1.59-2.85 3.03.23.77.35.91.63.73Zm2.97-.3a2.4 2.4 0 0 1-.5-.18c-.11-.06-.36-.18-.55-.27-.4-.17-.86-.61-.73-.69s.99.34 1.22.6c.12.13.38.23.71.27s.5.11.47.19c-.05.15-.23.17-.62.08Zm5.31-.53c-.36-.8-1.42-3.55-1.98-5.16-.8-2.28-1.01-2.62-.37-.61.98 3.14 2.02 5.89 2.22 5.89.12 0 .17-.05.13-.12Zm.58-.26c-.5-1.97-2.38-6.87-2.66-6.9l-.26-.03.39 1.13c1.32 3.75 2.26 6.08 2.46 6.08.1 0 .11-.08.07-.28Zm1.75-.68c-.27-.29-1.09-.74-1.36-.74-.24 0-.08.14.68.61.76.45 1.04.51.68.13Zm24.18-.37c-.69-.21-.83-.44-.47-.81.18-.19.72.05.66.29-.05.21-.01.24.44.35.3.07.5.17.5.26 0 .19-.3.16-1.13-.09Zm-12.83-.18c-.03-.06.06-.24.22-.4.15-.16.22-.29.16-.29-.07 0-.12-.07-.12-.15 0-.18.32-.2.62-.04.19.1.18.13-.23.55-.46.46-.54.51-.65.33ZM38.6 8.2c0-.05-.07-.07-.15-.04-.16.07-.82-.13-.9-.27-.05-.07.07-.41.2-.57.04-.05 1.09.19 1.2.28.1.08.1.18.02.4-.11.28-.37.42-.37.2Zm-1.5-.3c-.08-.04-.41-.13-.73-.2-.53-.11-.57-.13-.51-.36.05-.18.02-.24-.1-.24-.09 0-.13.06-.1.15.1.25-.2.27-.82.07-.52-.17-.59-.22-.55-.43l.03-.24-.18.22c-.18.2-.22.21-.79.09-.62-.13-.69-.23-.5-.73.05-.14.45-.18.45-.05 0 .04.17.07.37.06.44-.01 1.03.21 1.03.37 0 .07.1.09.24.05.15-.04.26-.01.29.07q.06.135.06 0c.02-.21.42-.15.48.07s.19.27.25.09c.03-.1 1.41.21 1.54.34.04.04-.24.78-.29.76-.01 0-.09-.04-.17-.09Zm-14.84-.75c-.15-.14-.35-.25-.45-.25-.41 0-.57-.63-.23-.93.52-.47 1.33.05 1 .64-.09.16-.13.31-.09.34.12.07.21.45.12.45-.05 0-.2-.11-.35-.25Zm15.89-.29c-.88-.24-2.95-.79-4.6-1.23C23.79 3.02 23.2 2.86 23.2 2.69s.41-.09 2.48.47C31.03 4.6 37.7 6.38 39.13 6.75c.96.25 1.02.28.92.44-.09.15-.11.15-1.9-.33ZM13.5 6.62c0-.04-.09-.2-.2-.37-.16-.25-.2-.47-.2-1.24 0-.82-.03-1-.24-1.36-.22-.37-.88-.86-1-.74-.04.04.91 2.92 1.19 3.62.07.16.45.25.45.09Zm18.6-.01c0-.06-.14-.11-.3-.11-.18 0-.33-.06-.36-.15-.04-.08-.1-.12-.15-.1-.05.03-.93-.17-1.96-.44-1.04-.27-2.69-.71-3.68-.96-2.63-.68-2.85-.75-2.85-.91 0-.18.14-.18.76 0 .27.08 2.06.56 3.99 1.05 1.93.5 3.58.96 3.68 1.02.21.12.2.12.36-.19.1-.19.15-.21.34-.11.11.07.3.12.42.13.14.01.19.07.17.21-.02.11-.04.29-.06.4-.03.21-.36.35-.36.16Zm-7.25-1.38c-2.28-.6-2.24-.58-2.08-.74.09-.09.6.01 1.95.35 2.34.6 2.48.65 2.48.82 0 .19.04.2-2.35-.43Z"/></svg>