<svg xmlns="http://www.w3.org/2000/svg" width="51" height="51" viewBox="0 0 51 51"><path fill="#fff" fill-rule="evenodd" stroke="#fff" stroke-width=".364" d="M30.7 47.98c-.72-.36-.9-.84-.9-2.3 0-.65-.01-1.19-.02-1.2-.02-.01-2.66-.05-5.88-.08-7.67-.07-7.02.32-7.1-4.15l-.05-2.8-5.27-.05c-5.88-.06-5.52-.01-6.04-.77-.21-.32-.35-11.19-.34-27.77.01-5.46.02-5.59.9-6.1.36-.21 13.09-.35 13.9-.15.84.2 1.2.9 1.2 2.34 0 .85.03 1.04.16 1.09.09.03 2.75.06 5.92.06 7.81.01 7.23-.34 7.3 4.35l.04 2.81 4.62-.04c5.56-.05 5.79-.01 6.34 1.1l.23.47.02 15.98c.02 17.23.05 16.43-.51 16.96-.49.47-.48.47-7.46.47h-6.62zm14.04-.28c.16-.08.39-.28.5-.43l.21-.28V30.87c0-18.33.09-16.54-.86-17.07l-.44-.25-4.92.03-4.93.04-.01-.24c-.01-.12-.04-1.51-.08-3.08-.09-4.29.9-3.85-8.66-3.85h-7.4l-.36.23c-.63.39-.59-.75-.62 18.59l-.02 17.82.21.27c.55.74.07.69 6.73.72l5.98.02.05 1.38c.05 1.62.17 1.93.81 2.23.57.26 13.3.25 13.81-.01Zm-13.85-.15c-.47-.26-.59-.69-.59-2.14V44.1h1.33c1.59 0 2.06-.17 2.41-.85.21-.4.21-.49.24-14.97l.02-14.58h4.88c5.46 0 5.48.01 5.92.72.2.33.2.46.2 16.35 0 17.05.02 16.36-.49 16.7-.36.25-13.48.32-13.92.08Zm9.04-.15c4.44 0 4.58-.01 4.77-.2.26-.26.32-7.97.06-7.87-.18.07-.46-.23-.46-.49.01-.17.02-.17.2.04.11.13.24.21.3.17.16-.1.13-7.95-.03-7.96-.09 0-.08-.02.01-.06.08-.03.12-.27.12-.69 0-.63 0-.63-.25-.54-.13.05-.27.05-.3.01-.05-.1.11-.25.38-.34.13-.05.17-.18.17-.59v-.53l-.73-.03c-1.46-.05-2.09-.24-1.52-.46.08-.03.15-.12.15-.2s.15-.23.33-.33c.35-.21.68-.93.42-.93-.07 0-.2.1-.29.22l-.17.23.05-.23c.06-.32-.16-.27-.51.12-.22.26-.41.36-.75.41-.72.11-.83.05-.81-.38.02-.37.02-.37-.37-.37-.27 0-.39-.04-.38-.12.02-.08-.07-.13-.22-.13-.2 0-.25-.04-.22-.23.01-.17-.04-.25-.18-.29-.2-.05-.27-.19-.12-.25.05-.02.05-.41.01-.87-.05-.46-.06-.87-.03-.92.08-.14-.04-.11-.31.07-.24.15-.25.15-.25-.04 0-.14.09-.22.29-.27.29-.06.54-1.05.27-1.05-.04 0-.06-.06-.03-.13.08-.21-.19-.48-.5-.51-.16-.02-.29-.1-.31-.2-.02-.09-.14-.19-.28-.22-.21-.05-.24-.12-.24-.55 0-.27-.04-.49-.1-.49-.25 0-.42-.48-.3-.85.11-.33.1-.38-.13-.59-.3-.28-.37-.19-.37.44 0 .21-.04.42-.1.45-.06.04-.1-.11-.1-.37-.01-.63-.25-1.9-.44-2.26-.25-.48-.21-.53.31-.5.54.03.48-.1.56 1.32.03.5.07.62.31.79.25.18.27.23.2.73l-.06.53.33.08c.34.09.52.33.25.33-.13 0-.16.08-.14.35.01.19.07.35.13.35.07 0 .2.09.29.19.1.11.28.22.41.25.14.04.29.15.35.26.14.26.26.25.33 0 .05-.21.27-.28.27-.08 0 .06-.08.2-.17.3-.15.17-.15.2.06.48.12.17.17.3.12.3s-.13-.05-.16-.1c-.14-.23-.25.05-.25.66 0 .66.11.8.31.42.17-.33.28-.38.91-.38.57 0 .8.12.59.33-.08.08-.11.08-.11-.01 0-.13-.31 0-.58.26a.5.5 0 0 1-.26.12c-.16 0-.41.28-.33.36.03.04.33-.03.66-.14.73-.25 1.04-.14.8.29l-.14.24-.03-.24c-.04-.25-.04-.25-.89 0-.52.16-.76.02-.55-.31.14-.23.04-.26-.22-.07-.16.11-.17.22-.11.65.08.61.25.66.99.3.49-.23 1.22-.16 1.89.18.45.22 1.17-.06 1.17-.46 0-.06.05-.1.1-.1.06 0 .1.11.1.25s.05.25.1.25c.06 0 .1-.08.1-.18 0-.23.19-.42.42-.42.22 0 .29-9.72.07-10.12-.25-.46-.48-.48-5.54-.48l-4.75.01v2.48l.29-.17c.16-.09.32-.14.36-.11.14.15.38 1.19.4 1.74.01.33.03.77.04.97 0 .23.1.48.26.66.14.17.25.38.25.48-.01.18-.01.18-.11.02-.05-.1-.27-.29-.47-.43s-.32-.25-.27-.25c.09 0 .13-1.57.05-1.85a1 1 0 0 1-.05-.2c-.19-.88-.22-.91-.54-.69-.26.19-.3 5.93-.03 6.02.17.05.15.22-.03.22-.12 0-.15.17-.15.95 0 .94.09 1.15.3.75.06-.11.24-.27.4-.35.51-.26.28-1.22-.26-1.09-.32.08-.32-.14 0-.26.47-.18.5-.44.11-.95-.31-.41-.45-.75-.3-.75.26 0 .85 1.14.75 1.45-.08.23-.08.39-.01.52.27.48.47 1.01.37.97-.19-.07-.87.63-.8.83.05.14.04.15-.04.04-.09-.12-.13-.12-.26-.02-.17.14-.23.97-.06.86.05-.03.07-.13.04-.23-.05-.15-.04-.15.08-.02.07.09.26.25.42.38.25.19.26.23.11.28-.11.05-.22.01-.3-.09-.16-.22-.25-.21-.41.01-.16.2-.19.82-.04.82.06 0 .1-.07.1-.15s.04-.15.1-.15.1.05.1.1c0 .3 1.47-.02 1.52-.33.05-.32.27-.33.24 0-.05.42.39 1.03.75 1.03.59 0 1.16-.48 1.02-.88-.03-.06.02-.12.11-.12.2 0 .21-.36.01-.74-.17-.33-.12-.47.09-.25.29.29.41 1.19.16 1.19-.04 0-.13.14-.19.3-.05.17-.06.28-.01.25.04-.03.1 0 .12.06.08.25.75.01.88-.31.19-.47.7-.44.7.04 0 .21.06.36.15.4.08.03.15.13.15.22 0 .13-.03.14-.15.04a.43.43 0 0 0-.37-.05c-.13.04-1.11.11-2.18.15-2.16.08-2.24.1-2.46.51-.18.36-.74.43-.74.1 0-.11.04-.23.1-.26s.1-.01.1.04c0 .2.17.12.53-.24.43-.43.34-.5-.37-.28l-.56.17v.99c0 .86.02.98.16.93.09-.03.19-.06.23-.06.03 0 .08-.12.09-.27.03-.32.3-.65.51-.61.09.02.21-.05.26-.16.16-.31.37-.33.26-.03-.05.14-.07.28-.04.31.04.03-.03.06-.14.06-.37 0-.7.35-.56.59.18.28.17.31-.11.31-.18 0-.25.06-.28.22-.02.15-.09.22-.21.22-.13-.01-.17.06-.17.28 0 .17.04.27.1.23.06-.03.1-.12.1-.19 0-.13.98-.39 1.13-.29.13.08-.03.23-.26.23-.49 0-1.25.76-.88.88.06.02.09.07.06.12s0 .2.06.33c.09.2.07.33-.1.72-.16.36-.21.68-.21 1.32v.85l.48-.08c.26-.04.61-.07.78-.06.3.02.54-.25.54-.61 0-.07.11-.29.25-.5l.26-.37-.26-.1c-.34-.13-.4-.32-.21-.69.11-.2.12-.32.05-.36-.17-.11-.22.01-.33.77-.11.73-.44 1.13-.76.93-.3-.18-.03-1 .35-1.07.23-.04.34-.46.15-.58-.12-.08.42-1.03.74-1.29.63-.52.96-1.08.77-1.3-.1-.11-.3-.21-.45-.21-.14 0-.26-.04-.26-.09 0-.14.51-.73.58-.67.03.03-.01.13-.09.22-.11.14-.1.19.11.35.48.38.55.39.94.2.47-.25.46-.11-.05.36-.65.6-.66.69-.08.68.26 0 .48.04.48.1s-.15.09-.33.07c-.19-.02-.37.02-.41.08-.06.09-.1.09-.17-.01-.08-.12-.11-.12-.15.01-.04.08-.28.38-.56.67-.27.28-.46.57-.42.62.09.16.47.13.73-.05.13-.09.26-.14.28-.11.03.03-.15.17-.4.32-.41.24-.66.51-.66.7 0 .04.14.05.3.03.32-.05.37.01.18.2-.18.18.18.15.74-.06.49-.18.62-.27.64-.43.01-.05.02-.13.03-.19 0-.06.16-.1.35-.1s.41-.06.48-.13.24-.13.38-.14c.13-.01.31-.12.4-.23.16-.21.5-.19.5.02 0 .05.04.06.1.03.06-.04.04-.14-.04-.28-.17-.27-.22-.56-.12-.79.04-.09.03-.25-.03-.37-.17-.31-.13-.59.09-.66s.27-.48.1-.75c-.1-.16-.15-.07-.22.35-.02.11-.19.28-.38.37-.35.18-.44.56-.19.82.12.13.12.63-.01.71-.06.04-.1-.08-.1-.29 0-.47-.09-.66-.27-.59-.13.05-.13.03-.04-.15.15-.29.14-.37-.04-.22-.08.07-.15.25-.15.41s-.04.29-.09.29c-.16 0-.19-.38-.05-.66.08-.15.13-.33.12-.4-.02-.07.01-.12.07-.11s.09.05.08.09c-.02.04.11.02.27-.04.17-.05.37-.07.46-.04.12.05.15.02.1-.1-.03-.08-.06-.23-.06-.31 0-.13-.02-.13-.17-.02-.12.1-.17.11-.2.02-.02-.07-.12-.09-.21-.06-.1.04-.07-.03.08-.15.28-.24.23-.28-.15-.1-.2.09-.31.08-.5-.02-.2-.11-.27-.11-.42.01-.1.09-.14.09-.1.02.09-.14-.35-.29-.52-.18-.06.03-.11-.01-.11-.1 0-.14.07-.16.51-.1.46.06.51.05.56-.14.08-.31.23-.25.23.09s.06.36.37.15c.14-.1.19-.22.16-.35-.04-.14 0-.2.12-.2.11 0 .15.05.11.15-.03.08.06.26.21.41l.26.26.23-.29c.13-.15.23-.32.24-.37 0-.05.13-.06.29-.03s.33.01.4-.06c.14-.14.38.12.48.52.05.22.09.23.54.18.32-.04.49-.02.49.05 0 .06.08.17.17.24.1.07.14.16.1.21-.05.04-.15 0-.22-.11-.11-.14-.22-.17-.46-.12-.48.09-.79-.02-.79-.29 0-.29-.11-.37-.62-.41l-.4-.03.07.74c.06.67.05.76-.14.91-.16.14-.18.22-.1.37.06.1.08.34.04.53-.04.23-.01.41.1.56.28.41.04.91-.28.59-.17-.17-.21-.14-.56.39-.18.28-.45.58-.59.67-.68.41-.9.58-.86.64.02.04-.03.09-.11.13-.08.03-.21.17-.27.32-.07.16-.34.37-.69.55-.92.46-2.17 1.99-1.63 1.99.21 0 .17.19-.11.56-.14.18-.25.44-.25.58s-.04.26-.08.26c-.05 0-.17.07-.28.15-.16.13-.16.14-.01.09.09-.03.17-.01.17.05s-.04.11-.08.11c-.3 0-.52.43-.52 1.04v.63l.37-.01c.25-.01.45-.09.66-.28.16-.16.33-.25.39-.22.05.03.01.12-.09.2-.23.17 1.01.08 1.62-.12.49-.16 1.59-.08 1.51.12-.03.07 0 .15.07.17s.08.08.04.13c-.04.04-.21 0-.36-.09-.69-.41-1.13-.22-1.83.79-.59.84-.8.83-.24-.01.46-.7.46-.69-.21-.34-.32.16-.72.3-.9.31s-.3.04-.28.06.06.03.1.02c.15-.03.34.51.26.73-.08.21-.09.21-.3-.13-.32-.54-.29-.9.09-.9.34 0 .94-.22 1.04-.38.04-.06-.24-.02-.61.08s-.71.16-.75.14c-.33-.21-.57.32-.58 1.27 0 2.24-.55 2.79-2.77 2.79h-1.25l.03 1.24c.06 1.88.07 1.88 2.84 1.81 1.1-.03 4.06-.05 6.58-.05Zm3.64-1.44c-.03-.07-.19-.16-.35-.19-.22-.04-.31-.13-.34-.29-.02-.19-.12-.24-.6-.33-.32-.05-.67-.18-.77-.27-.11-.09-.35-.18-.53-.2-.23-.02-.34-.09-.37-.23-.04-.24-1.01-1.24-1.01-1.04-.01.11-.03.11-.13-.02-.09-.12-.48-.21-1.3-.33-1.18-.16-1.93-.38-1.83-.54.03-.05.36-.01.75.09.38.1 1.04.18 1.47.19.44.01.93.08 1.09.15s.49.21.73.31c.46.19.57.39.17.32-.34-.07-.4.06-.1.2.13.06.27.23.31.37.04.17.13.25.28.25.12 0 .37.11.56.25.21.15.47.25.69.25.47 0 .86.21.86.45 0 .12.08.21.2.23.26.05.45.21.45.38 0 .18-.16.18-.23 0ZM18.05 43.8c-.11-.04-.31-.2-.45-.35l-.25-.27-.03-17.8c-.02-16.49-.01-17.82.15-18.15.3-.65.04-.63 8.16-.63h7.34l.33.23c.18.12.43.35.54.5l.21.28.03 17.51c.02 19.67.08 18.1-.7 18.58-.35.21-14.82.31-15.33.1Zm10.49-.19c.07-.11-.74-1.11-2.01-2.49-.89-.96-.97-1.02-1.34-1.02-.25 0-.46-.07-.58-.19-.16-.16-.2-.17-.25-.05-.03.08-.19.14-.41.14h-.35v-.51c0-.66-.24-.62-.28.04-.03.45-.05.47-.33.47-.29 0-.29 0-.29-.61v-.61l-.33.06c-.27.05-.34.02-.42-.16-.23-.52-.79-.25-.73.34.03.38.43.51.71.24.25-.25.57-.2.57.08 0 .32-.53.76-.91.76-.94 0-1.45-.95-.99-1.84l.19-.39-.55.06c-.61.06-1.56.47-2.21.96l-.43.31v1.99c0 2.25.01 2.28.83 2.42.65.1 10.05.1 10.11 0Zm3.84.01c.08-.06-.19-.42-.94-1.23-.59-.63-1.27-1.4-1.52-1.71-.36-.46-.51-.58-.73-.58-.17 0-.34-.08-.43-.22-.13-.18-.16-.19-.16-.05 0 .13-.08.17-.34.17-.38 0-.46-.12-.46-.72v-.39l-.26.2c-.15.12-.4.21-.55.21-.26 0-.29.03-.29.35 0 .29-.04.36-.25.41-.25.06-.24.07.31.68.3.33.98 1.11 1.49 1.73.71.83 1.02 1.13 1.22 1.16.52.08 2.78.07 2.91-.01Zm1.02-1.32v-1.09l-.72-.59c-.95-.77-.91-.75-1.37-.61-.35.1-.44.09-.74-.09l-.35-.2-.06.21c-.08.31.29.79 1.72 2.28 1.5 1.56 1.52 1.56 1.52.09Zm.4-17.1c0-9.71-.04-17.71-.08-17.78-.05-.07-.08 7.93-.08 17.77.01 9.84.04 17.84.08 17.78.04-.07.08-8.06.08-17.77Zm9.29 15.73c-.13-.25-.31-.59-.39-.75-.11-.23-.19-.28-.35-.23-.11.04-.32.09-.47.12-.42.08-.34.19.43.59.78.41.81.57.05.25-.63-.28-.96-.62-.96-1.02 0-.31 0-.31.25-.15.19.12.3.14.44.06.36-.19.6-.12.76.23.09.17.26.5.4.72s.25.46.25.53c0 .25-.17.11-.41-.35Zm-10.27-2.1c-.32-.43-.98-1.4-1.47-2.15l-.87-1.38h-.58c-.66 0-.76-.11-.62-.65.07-.25.14-.31.41-.33.38-.04.38-.04-.22-1.1-3.23-5.64-4.84-7.12-7.72-7.12-1.37 0-2.48.38-3.68 1.26l-.47.34v2.55c0 1.4.02 2.55.04 2.55s.24-.12.5-.26c1.3-.73 3.03-.73 4.62 0 1.16.53 5.74 3.96 7.24 5.41.42.41.48.44.87.38.55-.07.93.27.94.84 0 .35.06.43.77.99l.77.61.03-.58c.03-.57.02-.6-.56-1.36Zm-10.84.91c.12-.08.22-.22.22-.31 0-.15-.02-.14-.18 0-.24.21-.76.22-.93.01-.52-.63.34-1.61.91-1.04.35.35.53.23.25-.17-.31-.44-1.31-.35-1.49.12-.37.97.47 1.92 1.22 1.39Zm2.12-.43c0-.71-.13-.86-.66-.76-.24.04-.34.03-.29-.04.03-.06-.01-.11-.09-.11-.13 0-.16.13-.16.7 0 .4.04.7.1.7s.1-.18.1-.39c0-.33.19-.71.35-.71.25 0 .35.17.35.59 0 .26.03.51.07.54.16.17.23.03.23-.52Zm1.41.49c.32-.17.22-.29-.23-.27-.43.02-.43.02-.43-.33 0-.34.01-.35.38-.35.41 0 .44-.15.04-.29-.44-.16-.79.15-.75.67.04.56.5.82.99.57Zm.99-.3c0-.4 0-.4.39-.4.46 0 .71-.2.71-.59 0-.4-.18-.51-.82-.51h-.58v.95c0 .78.03.95.15.95.11 0 .15-.11.15-.4Zm3.48-.29c-.04-.82-.26-.96-.3-.19-.03.46-.06.53-.26.56-.24.04-.27-.02-.37-.6-.09-.56-.25-.46-.25.15 0 .66.1.77.72.74l.49-.02zm1.43.49.24-.2-.4.06c-.31.04-.44.02-.54-.1-.12-.14-.08-.16.4-.16.58 0 .58-.16 0-.22-.19-.02-.36-.08-.38-.14-.06-.18.36-.24.51-.08.19.18.26.18.26-.01 0-.24-.45-.4-.75-.27-.44.2-.46 1.04-.02 1.22.33.13.43.12.68-.1Zm-3.01-.49c0-.32-.03-.73-.06-.9-.12-.6-.24-.3-.24.59 0 .73.03.9.15.9s.15-.13.15-.59Zm7.2.21c0-.07.05-.22.1-.33.13-.24-.07-.26-.36-.04-.25.19-.34.19-.34 0 0-.18.39-.35.81-.35.35 0 .35.02.04.48-.14.2-.25.31-.25.24Zm-8.88-1.62c.52 0 .76.04.9.17.49.44.12-.26-.59-1.15-3.43-4.22-6.74-5.52-9.17-3.61l-.26.2v2.6c0 1.42.03 2.59.06 2.59s.26-.14.51-.32c1.27-.87 2.95-1 4.43-.35.47.2.99.37 1.15.37.15 0 .36.07.46.16.16.15.2.15.41 0 .44-.31 1.23-.03 1.3.46.01.07.03-.15.05-.49l.04-.63zm9.73.96c-.05-.11-.03-.27.05-.4.26-.4.9-1.55.9-1.61 0-.36-.76.17-.84.59-.04.19-.13.39-.2.46-.12.09-.12.04 0-.36.17-.56.16-.57-.19-.39s-.43.04-.13-.24c.17-.16.25-.19.28-.1s.14.07.4-.09c.39-.24.88-.22.88.04 0 .18-.57 1.33-.77 1.55-.08.09-.18.3-.22.45-.08.26-.09.27-.16.1Zm-9.93-.23c.04-.33.46-.44.67-.19s.06.46-.34.46c-.34 0-.36-.02-.33-.27Zm6.15-2.22c-.7-.92-.75-.96-1.15-.99-.23-.02-.42.01-.42.06 0 .11 1.52 2.44 1.94 2.97l.31.39.03-.73.03-.74zm-3.08 2.1c.2-.2.19-.2-.12-.52-.27-.26-2.46-2.06-2.97-2.43-.2-.15.73.99 1.68 2.05.64.72.86.92 1.2 1.08.01 0 .11-.08.21-.18Zm5.22-.44c.21-.16.33-.54.19-.62-.16-.1-.11-.28.06-.21.19.07.57-.21.48-.35-.03-.05-.19-.09-.35-.09h-.31l.23-.37c.12-.21.4-.57.61-.79.7-.73.23-.58-.51.16l-.71.71v.84c0 .87.03.94.31.72Zm7.23-.54c-.04-.16-.07-.43-.05-.62.03-.32.02-.33-.28-.29-.37.05-.42-.09-.06-.18.41-.1.55.01.55.44 0 .21.05.43.11.49.13.13.05.43-.1.43-.05 0-.12-.12-.17-.27Zm-4.24.03c0-.23.68-.86.92-.86.26 0 .22.15-.1.35-.15.1-.39.29-.54.43-.24.22-.28.23-.28.08Zm-22.85-.57c-1.04-.03-3.37-.07-5.17-.08-3.39-.01-3.66-.04-3.93-.44-.19-.29-.24-32.42-.05-32.78.28-.52.25-.52 7.23-.57 8.18-.06 7.67-.19 7.67 1.95 0 .59.05 1.15.11 1.23.19.28.06-2.3-.14-2.67-.36-.68-.08-.66-7.46-.64-7.26.02-7.08.01-7.48.59-.28.42-.28 32.53 0 32.96.37.55.37.55 5.97.54 3.87-.01 4.68-.03 3.25-.09Zm18.23-1.7c-.23-.3-.23-.3-.29-.07-.04.18-.11.22-.33.2-.34-.04-.34-.03.29.79l.5.66.03-.63c.02-.53-.01-.69-.2-.95Zm-20.85.35c-2.43-2.16-4.35-3.6-5.71-4.28l-.72-.36v5.11l.36.15c.61.26 1.4.32 4.32.33l2.83.01zm4.47-.13c0-1.08 0-1.09-.27-1.26-.53-.34-2.28-1.69-3.38-2.6-3.2-2.66-7.07-5.75-7.18-5.75-.04 0-.07 1.05-.07 2.32v2.33l.97.49c1.34.68 4.17 2.84 6.48 4.93l.69.63h2.76zm18.17-.03c.21-.03.84-.36.76-.4-.04-.03-.33-.02-.63.01l-.55.06-.03.4-.02.4.19-.23c.11-.13.24-.23.28-.24Zm-2.27-.53v-.25h-3.2v.5h3.2zm4.6-.53c.19-.1.41-.29.47-.43.14-.29.86-.92 1.26-1.1.14-.06.35-.25.48-.43l.23-.31-.27.18c-.14.09-.4.17-.57.17-.22 0-.33.06-.41.23-.09.2-.5.41-1.41.7-.2.07-.58.77-.58 1.07 0 .24.15.22.8-.08Zm4.16.02c-.27-.26-.2-.66.26-1.44.24-.42.38-.83.38-1.13 0-.19.06-.4.13-.46.18-.14.29-.03.18.18-.05.09-.12.42-.16.73-.04.34-.13.59-.21.62s-.14.12-.14.2-.06.17-.12.19c-.07.03-.05.06.06.06.17.01.16.04-.08.26-.59.54-.04.89.86.54.37-.15.41-.35.13-.63-.26-.26-.32-.46-.15-.46.06 0 .1.04.1.08 0 .25.75.83.99.77.2-.04.22-.03.11.05-.08.05-.29.1-.46.1s-.37.06-.43.14c-.25.3-1.22.44-1.45.2Zm-8.88-.11c-.31-.64-.32-.65-.61-.59-.16.03-.48.06-.7.06h-.41l.29.3c.27.28 1.56.49 1.43.23Zm-16.27-2.7c-1.62-1.4-2.79-3.66-4.05-7.86-1.03-3.38-3.34-9.57-3.58-9.57-.17 0-1.81 1.7-2.31 2.4l-.47.64v2.58c0 1.65.04 2.58.1 2.58.39 0 3.22 3.11 5.4 5.95 2.63 3.42 2.89 3.71 4.4 4.85l.95.72.03-.93.03-.94zm15.98 1.72c.66-.34.65-1.25-.02-1.55-1.56-.71-3.54.31-2.64 1.35.39.46 1.95.57 2.66.2Zm-2.36-.42c-.22-.08-.15-.51.12-.69.87-.57 2.9-.02 2.15.58-.22.18-1.91.26-2.27.11Zm1.85-.19c.34-.1.23-.37-.18-.46-.73-.15-1.88.16-1.5.42.16.11 1.31.13 1.68.04Zm1.6-3.99c-.03-2.21-.08-3.01-.23-3.78l-.18-.98-.25.31c-.37.47-.8.65-1.49.61-.34-.02-.91-.58-1.04-1.02-.41-1.35 1.21-2.35 2.3-1.43l.31.26v-.29c0-.15-.04-.44-.09-.63-.06-.19-.15-.54-.21-.78-.1-.38-.13-.42-.35-.36-.39.1-.65-.64-.29-.84.2-.11.15-.51-.08-.66-.37-.23-.53.04-.49.78.04.81 0 .84-1.04.57-1.01-.26-1.04-.31-.89-1.59l.07-.52h.77v.54c0 .3.05.58.1.61.06.04.1-.09.1-.32.01-.64.46-1.03 1.2-1.03.23 0 .39-.04.35-.09-.03-.05-.29-.07-.59-.04-.95.1-1.71-.32-2.01-1.1l-.16-.43-.72.08c-3.14.37-6.53 2.07-9.07 4.56l-1.05 1.03.7-.49c5.02-3.56 8.67-2.68 10.7 2.56l.29.73.37-.06c.59-.1.83.08.64.45l-.16.3h.43c1.33 0 1.63.14 1.51.7l-.06.3h-.98c-1.1 0-1.12.01-.68.38.38.32.59.78.59 1.31v.4l.57.03.58.03v.9l-.41.03-.41.03.66 1.33.66 1.33.03-.46c.02-.25.02-1.72 0-3.26Zm-3.63 2.91c.22-.16.57-.27.93-.31.31-.03.64-.07.73-.08.15-.02.13-.11-.11-.72l-.28-.7-.83-.1-.84-.1-.03-.65c-.05-1.06.05-1.5.43-1.86.3-.28.33-.35.24-.6-.05-.16-.28-.85-.5-1.54-.99-3.05-2.23-4.51-4.14-4.9-1.85-.38-4.65.71-7.12 2.79l-.63.53v3.88l.47-.34c1.4-.99 2.93-1.38 4.55-1.16 2.08.29 3.26 1.25 5.69 4.64.57.8 1.05 1.45 1.06 1.46.01 0 .18-.11.38-.24Zm7.07.16c.01-.05.28-.3.58-.57.6-.53.82-.45.27.1-.32.32-.93.65-.85.47ZM16.8 30.26c0-1.02-.01-1.06-.35-1.63-1.48-2.49-1.68-3.87-1.66-11.85.01-3.34-.02-6.09-.06-6.11-.33-.21-4.94 2.26-5.5 2.94-.1.12.01.46.56 1.74.95 2.21 2.14 5.53 3.05 8.5 1.23 4.03 1.75 5.13 3.23 6.82.72.82.73.81.73-.41Zm-5.41-1.33c-2.26-2.98-5.04-6.13-5.41-6.13-.04 0-.08.58-.08 1.28v1.29l2.67 2.14c1.46 1.18 2.98 2.4 3.37 2.71.39.32.75.58.79.58.05 0-.56-.84-1.34-1.87ZM43.8 30.4c0-.08-.14-.09-.42-.05-.45.07-.89-.39-.75-.77.03-.08.09-.03.15.14l.11.27.52-.34c.78-.53.94-.46.74.34-.11.41-.35.7-.35.41Zm-11.12-1.22c-.03-.22-.07-.23-1.38-.28-1.53-.06-1.56-.08-1.31-.92.23-.74.79-.63.88.16.05.43.07.46.36.46.28 0 .29-.02.23-.31-.03-.17-.06-.4-.06-.51 0-.33-.54-.78-.93-.78-.69 0-.96.51-.97 1.83v.57h3.21zM16.8 18.8V9.3h-.3c-.44 0-.96.24-1.15.54-.24.37-.17 13.35.09 14.66.27 1.39 1.11 3.8 1.33 3.8.01 0 .03-4.27.03-9.5Zm27.84 9.3c.38-.14.41-1.56.04-1.45-.86.26-1.76 1.47-1.02 1.37.11-.01.31.02.45.07.13.05.25.1.26.1.01.01.13-.03.27-.09Zm-9.27-.82c.06-.05.2-.08.3-.07.29.04.95-.13.86-.21-.04-.05-.3-.04-.58 0-.27.05-.71.12-.97.15-.38.05-.48.1-.48.25 0 .19.58.12.87-.12Zm6.8-.54c.21-.29.16-.34-.37-.34-.36 0-.5.04-.5.14 0 .08-.03.22-.07.32-.09.24.76.13.94-.12Zm-9.57-.59c0-.24-.03-.25-.59-.25a7 7 0 0 1-.9-.06c-.28-.06-.31-.04-.31.19 0 .24.04.26.53.3 1.3.09 1.27.09 1.27-.18Zm-2-.27c0-.25.07-.49.17-.61.17-.18.16-.18-.17-.15-.38.03-.36-.01-.23.81.08.5.23.47.23-.05Zm10.58.1c.09-.09.12-.09.12.01 0 .17 2.63.04 3.05-.16.19-.09.31-.1.33-.03.09.27.22.05.22-.4 0-.58-.2-.68-.42-.22-.1.2-.2.26-.38.24-.14-.01-.47.07-.74.19-.34.14-.51.18-.54.1-.13-.4-.85-.6-.75-.21.04.14 0 .2-.11.2-.09 0-.16-.08-.16-.2 0-.11-.07-.2-.16-.2-.08 0-.12-.04-.09-.1.11-.18-.23-.11-.8.17-.55.27-.69.43-.39.43.08 0 .13.04.1.09-.13.2.53.28.72.09Zm-4.14-.73c-.08-.2-.01-.48.14-.53.07-.02.12.06.13.2v.23l.09-.22c.11-.28.3-.3.3-.04 0 .31-.56.62-.66.36Zm5.11-.85c.08-.31.25-.61.44-.79.29-.27.34-.38.46-1.11.06-.41.68-1.3.9-1.3.26 0 .36.35.23.83-.12.45.15 1.17.44 1.17.05 0 .08.05.06.11-.04.13-1.28.19-1.45.07-.06-.05-.14-.04-.18.03-.04.06-.03.14.04.18.51.32-.01 1.31-.69 1.31h-.38zm.7.05c.26-.25.32-.5.15-.6-.17-.11-.49.05-.55.28-.04.12-.09.3-.11.4-.08.26.22.21.51-.08Zm-10.67-.05c.67-.41.79-1.36.22-1.84-.54-.45-1.28-.46-1.69-.02-.98 1.04.25 2.6 1.47 1.86Zm-1.03-.42c-.65-.38-.39-1.18.38-1.18.41 0 .77.28.77.59 0 .47-.72.85-1.15.59Zm2.27-3.8-.04-3.78h-.23c-.18 0-.26.08-.35.34-.06.19-.21.47-.32.61-.23.29-.24.2.22 1.49.16.45.19.67.13.95-.07.28-.04.53.13 1.06.24.76.44 1.99.44 2.72 0 .26.01.44.03.42s.02-1.74-.01-3.81Zm-1.44 3.28c.04-.32-.1-.46-.49-.46-.35 0-.53.23-.45.55.1.41.89.33.94-.09Zm4.28-.06c.17-.33.57-.8.69-.8.08 0 .22-.1.32-.22.18-.23.43-.35.43-.2-.01.15-.26.4-.6.57-.19.1-.48.32-.63.49-.16.17-.25.24-.21.16Zm7.81-.35c.11-.06-.26-.55-.42-.56-.17-.02-.17-.02.03-.06.18-.04.22-.11.22-.39 0-.43-.14-.43-.4-.01-.54.87-.23 1.42.57 1.02Zm-1.97-.04c0-.06.04-.12.09-.16.06-.03.03-.18-.07-.35-.24-.42-.03-.78.61-1.04.73-.3.75.02.04.81-.19.21-.37.48-.41.61-.07.22-.26.31-.26.13Zm-.82-.5.04-.5-.39-.03c-.35-.03-.38-.06-.39-.33 0-.17-.06-.4-.12-.51-.06-.12-.09-.24-.06-.27.09-.09-.08-.77-.18-.71-.06.04-.08-.21-.06-.67.03-.71.02-.74-.24-.87-.51-.24-.26-1.18.37-1.42.21-.08.22-.11.12-.49-.09-.32-.14-.38-.24-.29-.2.16-.29.01-.11-.19.09-.1.19-.28.22-.4.12-.38.26-.26.26.21 0 .23.05.57.11.74.07.22.07.36 0 .51-.08.14-.08.22 0 .27.19.11.06 1.5-.16 1.74-.19.21-.13.68.17 1.28.09.16.09.25 0 .34-.08.08-.05.15.11.29.19.15.2.21.09.38-.11.2-.1.21.28.21h.41l-.03.57c-.02.31-.07.58-.13.6s-.09-.16-.07-.46Zm-22.19-1.8c2.62-2.52 6.07-4.19 9.63-4.66.45-.06.48-.08.58-.45.15-.56.74-1.06 1.03-.87.32.21.33.58.02.87-.34.32-.32.4.1.4h.34l.03-.72.03-.73.34-.03c.88-.09 1.56.36 1.67 1.09.06.33.1.39.3.39h.24l.01-3.52c.02-5.98.09-5.49-.84-5.63-1.13-.16-14.31 0-14.64.18l-.33.18v15.13l.52-.6c.29-.32.72-.79.97-1.03Zm16.43.5c-.15-.09.17-.36.71-.59.34-.15.47-.09.47.22 0 .41-.75.65-1.18.37Zm4.01-.54c-.09-.18-.2-.27-.37-.27-.3 0-.48-.41-.51-1.18-.02-.32-.06-.98-.1-1.49-.07-.88-.02-1.34.12-1.19.08.08.24 2.04.23 2.71-.01.55.08.85.24.85.27 0 .58.35.54.6l-.03.24zM31 19.71c0-.66.15-.91.56-.91.62 0 .89.5.54 1-.24.33-.26.5-.05.5.86 0 .63-1.9-.25-1.98-.78-.08-1.2.25-1.2.93 0 .43-.01.45-.3.45-.32 0-.33-.01-.3-.72.01-.42-.01-.48-.19-.48-.19 0-.21.06-.21.75v.74l.43.11c.23.06.47.13.52.15.38.14.45.06.45-.54Zm9.45-1.98c-.08-.35-.29-.22-.33.2-.02.24.03.45.15.61l.18.24.03-.41c.02-.22.01-.51-.03-.64ZM32 17.52c1.14-.81.83-2.58-.47-2.78l-.43-.07v.67c0 .59.02.66.2.66.16 0 .2-.07.2-.35 0-.44.28-.48.59-.09.37.47.18 1.29-.36 1.53-1.31.6-2.45-.66-1.51-1.66.22-.23.19-.53-.06-.53-.55 0-.86 1.29-.5 2.07.37.76 1.62 1.06 2.34.55Zm-.18-.79c.34-.3.23-.43-.39-.43h-.57l.34.3c.42.35.39.34.62.13ZM7.49 14.6c1.87-1.86 3.88-3.16 6.48-4.19.59-.24.84-.39.89-.54.16-.56.85-.97 1.6-.97h.31l.05-.84c.08-1.54.59-1.97 2.46-2.04l1.12-.05V4.9c0-1.02-.01-1.08-.26-1.31l-.26-.24-6.46-.03c-6.81-.03-7.02-.02-7.33.29-.18.18-.19.38-.19 6.46v6.28l.32-.4c.17-.22.74-.83 1.27-1.35Z"/></svg>