<svg xmlns="http://www.w3.org/2000/svg" width="51" height="51" viewBox="0 0 51 51"><path fill="#fff" fill-rule="evenodd" stroke="#fff" stroke-width=".8" d="M11.44 40.31c-1.58-.96-.56-3.45 1.22-3 1.42.36 1.69 2.13.45 2.96-.44.3-1.22.31-1.67.04Zm13.38.02c-.79-.39-1.08-1.57-.58-2.33.89-1.36 2.83-.83 2.94.79.09 1.25-1.22 2.1-2.36 1.54Zm13.27-.06c-1.01-.68-1.07-2.1-.1-2.74 1.38-.93 3.05.54 2.36 2.08-.37.81-1.53 1.15-2.26.66Zm-24.99-.2c.79-.55.8-1.8.03-2.35-1.45-1.03-3.12.99-1.84 2.22.48.46 1.26.51 1.81.13Zm13.2.08c1.22-.63.7-2.75-.68-2.75-1.39 0-1.97 1.98-.79 2.7.38.24 1.06.26 1.47.05Zm13.37-.05c.84-.51.84-1.9-.01-2.45-1.22-.8-2.69.63-2.01 1.94.34.66 1.36.92 2.02.51Zm-28.52-1c.04-.06.55-.1 1.21-.1.69 0 1.14.04 1.14.1s-.47.1-1.21.1c-.77 0-1.18-.04-1.14-.1Zm13.25 0c0-.06.47-.1 1.2-.1s1.2.04 1.2.1-.47.1-1.2.1-1.2-.04-1.2-.1Zm13.3 0c0-.06.47-.1 1.2-.1s1.2.04 1.2.1-.47.1-1.2.1-1.2-.04-1.2-.1ZM11.65 27.06c-.8-.35-1.2-1.24-.9-2.01.51-1.34 2.24-1.49 2.94-.24.73 1.29-.68 2.85-2.04 2.25Zm13.5.07c-1.02-.25-1.49-1.63-.86-2.5.65-.9 1.84-.97 2.54-.14 1.04 1.24-.09 3.02-1.68 2.64Zm13.15-.04c-1.92-.81-.79-3.78 1.16-3.04 1.24.47 1.42 2.07.32 2.88-.31.23-1.11.32-1.48.16Zm-25.32-.29c1.16-.71.85-2.43-.48-2.65-.89-.15-1.81.73-1.67 1.61.16.99 1.31 1.55 2.15 1.04Zm13.32-.02c.52-.36.72-.69.72-1.21 0-1.88-2.66-1.97-2.8-.1-.08 1.17 1.15 1.94 2.08 1.31Zm13.26.06c1.06-.5.97-2.13-.13-2.6-1.58-.68-2.71 1.62-1.27 2.57.35.23.95.24 1.4.03ZM11.1 25.8c0-.06.47-.1 1.2-.1s1.2.04 1.2.1-.47.1-1.2.1-1.2-.04-1.2-.1Zm13.3 0c0-.06.49-.1 1.26-.1.81 0 1.23.04 1.19.1s-.57.1-1.26.1c-.73 0-1.19-.04-1.19-.1Zm13.25 0c-.04-.06.38-.1 1.19-.1.77 0 1.26.04 1.26.1s-.46.1-1.19.1c-.69 0-1.22-.04-1.26-.1ZM11.7 13.79c-1.13-.45-1.4-1.92-.49-2.73.9-.82 2.2-.47 2.65.7.47 1.23-.91 2.52-2.16 2.03Zm13.11-.1c-.66-.4-.96-1.06-.81-1.76.39-1.71 2.74-1.75 3.19-.06.36 1.35-1.2 2.54-2.38 1.82Zm13.34.02c-1.24-.77-1.18-2.43.11-2.97 1.51-.63 2.94 1.18 1.98 2.49-.46.63-1.48.86-2.09.48Zm-25.02-.27c.88-.63.79-2.02-.16-2.47-1.27-.61-2.55.6-1.99 1.87.37.83 1.43 1.13 2.15.6Zm13.24.06c1.56-.94.22-3.32-1.43-2.54-1.34.64-.84 2.74.66 2.74.27 0 .58-.08.77-.2Zm13.3 0c.91-.55.87-2.05-.07-2.52-.98-.5-2.2.21-2.2 1.27 0 1.08 1.34 1.82 2.27 1.25Zm-28.57-.9c0-.06.47-.1 1.2-.1s1.2.04 1.2.1-.47.1-1.2.1-1.2-.04-1.2-.1Zm13.36.01c-.06-.09 2.13-.22 2.28-.14.04.03.02.09-.05.14-.18.11-2.16.12-2.23 0Zm13.24-.01c0-.06.47-.1 1.2-.1s1.2.04 1.2.1-.47.1-1.2.1-1.2-.04-1.2-.1Z"/></svg>