<svg xmlns="http://www.w3.org/2000/svg" width="51" height="51" viewBox="0 0 51 51"><path fill="#fff" fill-rule="evenodd" stroke="#fff" stroke-width=".613" d="M25.06 50.13c-.08-.08-.08-3.76 0-3.97.17-.44.24.14.24 1.94 0 1.81-.05 2.22-.24 2.03Zm-2.11-4.39c-5.55-.61-10.08-2.82-12-5.86-.17-.27-.35-.48-.41-.48-.17 0-3.54 1.45-5.58 2.41-1.72.8-2.18.97-1.9.69.13-.13 3.17-1.54 5.44-2.52 1.02-.44 1.87-.81 1.89-.83s-.13-.41-.32-.87c-.68-1.59-1.27-4.07-1.27-5.34v-.38l-.94.92c-1.12 1.1-1.03 1.09-1.55.18-.69-1.21-.74-1.11.87-1.81l.73-.32-2.25-.05c-1.45-.03-2.3-.09-2.39-.16-.3-.26.23-2.69.65-2.96.13-.08.58.03 1.9.46.95.31 1.84.59 1.98.63s-.26-.28-.88-.7c-1.51-1.02-1.51-1.01-.29-2.29l.67-.71.33.37c.19.21.6.8.93 1.33l.59.95.08-.33.53-1.81c.25-.82.41-1.52.37-1.56-.09-.08-1.88-1.21-5.28-3.34-2.56-1.6-2.58-1.61-2.54-1.75.02-.06.33.08.69.32 1.21.81 7.31 4.59 7.34 4.56.02-.02.22-.46.45-.96.86-1.93 1.9-3.62 3.17-5.13l.75-.89-.51-.64c-.27-.36-.5-.69-.5-.74s-.18-.17-.4-.27c-.51-.22-.9-.69-.9-1.07 0-.23-.37-.82-1.46-2.37C9.61 10.54 9.27 10 9.43 10c.03 0 .61.78 1.28 1.73.67.94 1.33 1.87 1.46 2.05l.25.33.27-.43c.76-1.19 2.89-2.08 5.02-2.08.7 0 .71-.01.43-.57-.46-.9-.27-1.86.52-2.6l.46-.42-.2-.73c-.4-1.43-1.03-4.21-.97-4.26.11-.11.19.13.61 1.9.24 1.01.5 2.11.59 2.44l.17.62.45-.14c2.62-.79 7.11 1.57 9.59 5.04.58.82.61.84 1.4 1.16 1.41.57 3.34 1.64 4.68 2.57.7.5 1.32.87 1.36.82 1.98-2.23 2.09-2.53 2.09-5.7.01-2.88-.36-5.18-1.09-6.8-.36-.79-.42-.69.55-.83 3.75-.53 12.85.15 12.85.95 0 .12-.07.12-.42-.01-1.97-.69-8.39-1.09-11.77-.74-1.15.12-1.08.05-.76.86 1.1 2.75 1.4 8.47.59 11.15-.04.15.02.15.61-.02 2.71-.75 7.5-.65 10.28.22 1.14.35 1.06.38 1.28-.49l.17-.67-.01 1.12c-.01 1.08-.02 1.12-.21 1.08-2.66-.57-7.42-.28-10.6.65-.84.24-.78.3-.65-.69s.16-.95-.62-.77-.75.21-.56-.61c.08-.37.14-.69.13-.7s-.33.38-.71.88-.78.99-.9 1.11l-.21.2.74.71c5.55 5.34 7.3 13.14 4.31 19.22-.21.43-.35.82-.31.86s1.38.53 2.97 1.1c1.6.56 2.94 1.06 2.99 1.1.31.27-.27.12-2.31-.62-1.25-.45-2.65-.94-3.09-1.09l-.82-.28-.48.67c-2.32 3.17-6.61 5.45-11.79 6.27-.97.15-5.18.28-6.1.18Zm5.65-.38c7.74-1.04 12.84-5.02 14.16-11.06.31-1.41.26-5.16-.09-6.7-1.33-5.87-5.18-10.26-11.46-13.09-1.28-.58-1.27-.58-1.06-.08.12.3.23.38.67.52 2.26.74 5.24 2.68 7.07 4.6.86.91 1.93 2.33 1.89 2.51-.02.07-1.39 1.05-3.06 2.18s-3.23 2.2-3.47 2.37c-.43.31-.45.31-.77.16-.92-.42-8.41-2.97-8.75-2.97-.12 0-.36 1.01-.26 1.1.05.04 1.49.5 3.21 1.03 1.73.52 3.16.98 3.2 1.01.23.24-.47.07-3.21-.78-3.6-1.1-3.33-1.05-3.41-.65-.14.71-.08 1.18.17 1.24.12.03 1.68.34 3.46.7s3.26.67 3.29.7c.03.02-.12.23-.32.45-.71.79-.3 1.9.67 1.77.78-.11 1.05-.71.71-1.57-.21-.52-.22-.51.6-.34s.82.17.67-.4c-.14-.56-.14-1.16-.01-1.16.05 0 .1.13.1.29 0 .47.23 1.33.37 1.38.06.03.39-.1.72-.28.65-.36.81-.34.63.06-.4.87.4 1.61 1.12 1.04.49-.39.27-1.18-.39-1.35-.14-.03-.25-.11-.25-.18 0-.12 1.49-.97 3.35-1.89.61-.31 1.5-.78 1.99-1.06 1.06-.59 1.03-.6 1.46.5 1.35 3.51 1.21 8.03-.36 11.24-.71 1.46-2.88 4.05-3.38 4.05-.28 0-1.44-2.85-1.62-3.97-.04-.25-.12-.43-.19-.43-.21 0 .48 2.72 1.07 4.2.36.9.33.86.54.66.25-.26.28-.12.05.32-.41.8-.86 1.03-2.46 1.26-.55.08-1.29.26-1.65.4-5.37 2.15-13.37 1.87-17.9-.62-4.96-2.72-6.96-7.22-5.91-13.33.99-5.76 4.95-11.75 8.82-13.36.54-.22.71-.32.49-.29-4.31.69-6.76-.26-5.37-2.08.93-1.21 4.96-1.9 6.25-1.07 1.1.7 2.77 1.32 3.97 1.46.44.05.38.01-.57-.34-3.82-1.41-5.27-3.02-4.03-4.5 1.44-1.7 5.33-.37 8.75 2.99.85.84.89.87.47.33-2.29-2.98-6.39-4.97-8.73-4.24-1.61.5-2.24 2.06-1.29 3.19.38.45.33.52-.37.52-2.92 0-5.38 1.22-5.55 2.74-.1.84.64 1.26 2.57 1.47.52.05 1.01.12 1.08.14.08.03-.27.45-.9 1.07-6.42 6.37-8.3 17.06-4 22.84 2.1 2.83 6.09 4.78 10.87 5.32 1.3.15 5.17.13 6.35-.02Zm.55-1.26c1.19-.21 2.8-.62 3.85-.98l.55-.19-.8-.07c-.44-.04-1.28-.12-1.86-.18-.8-.08-1.35-.08-2.21 0-3.95.4-7.87-.11-10.85-1.44-.71-.31-.64-.33-1.05.29-.64.96-.64.94-.2 1.16 1.13.58 3.75 1.28 5.57 1.5.49.06 1.04.13 1.2.15.88.12 4.65-.03 5.8-.24Zm-.73-1.61c1.41-.14 1.34-.07.92-.91-.94-1.86-1.71-4.51-1.6-5.49l.07-.59-.28.05c-.15.03-.71.12-1.23.2-3.04.5-6.68 2.45-8.48 4.55l-.43.5.56.25c2.87 1.26 6.85 1.82 10.47 1.44Zm-11.94-.89.49-.76-.84-.49c-2.82-1.65-4.98-4.65-5.29-7.35-.09-.84.1-.73.25.15.49 2.81 2.33 5.3 5.19 7.03l.87.53.49-.56c2.01-2.3 5.53-4.12 9.04-4.68 1.37-.22 1.83-.43.65-.3-2.68.31-3.59-.4-3.57-2.77.01-1.52.18-1.98 1.64-4.25.46-.73.51-.67-.9-.94-1.71-.33-1.54-.18-1.47-1.3.03-.53.13-1.21.22-1.53l.15-.56-.6-1.01c-1.53-2.61-3.28-4.42-5.22-5.44l-.68-.35-.95.9c-6.71 6.35-8.21 17.42-3.03 22.34.87.83 2.91 2.24 3.05 2.11.01-.01.24-.36.51-.77Zm19.71.59c.3-.06.62-.22.8-.38l.3-.28-.39-.99c-.44-1.13-.84-2.44-1.01-3.36-.16-.88-.16-.88-.39-.88-.34 0-.13 1.12.65 3.41.59 1.76.6 1.73-.12 1.65-2.04-.24-4.71-1.72-6.67-3.7l-1.09-1.1.07.44c.15.99 1.26 4.08 1.71 4.76.12.18.3.23 1.17.34.57.06 1.12.13 1.23.14.56.08 3.31.05 3.74-.05Zm.21-1.03c0-.01-.2-.62-.45-1.34-.48-1.4-.85-2.8-.85-3.24v-.28h-1.77c-2.07-.01-4.16-.14-4.58-.3-1.27-.48 1 2.06 3 3.35 1.57 1.03 4.65 2.22 4.65 1.81Zm2.15-1.27c1.7-1.56 2.98-3.88 3.52-6.39.49-2.32-.05-7.2-.96-8.69-.06-.1-.35.02-1.27.53-.65.36-1.14.66-1.07.66.06 0 .26.2.44.45.19.25.52.69.75.99 1.59 2.1 1.42 4.92-.32 5.38l-.43.12.79.78c1.32 1.31 1.61 2.2.74 2.25-.47.03-2.72.21-3.67.29l-.69.06.07.37c.17.97 1.25 3.71 1.45 3.71.05 0 .34-.23.65-.51Zm-21.92-3.08c-.99-.45-1.4-2.11-.71-2.86.71-.78 1.74-.54 2.3.54.81 1.54-.17 2.96-1.59 2.32Zm1.38-.4c.73-.74-.06-2.71-1.09-2.71-.96 0-1.42 1.11-.91 2.18.41.84 1.42 1.11 2 .53Zm2.69-.69c-1.38-.73-1.84-4.2-.69-5.17 1.6-1.34 3.73 3.08 2.31 4.77-.47.56-1.05.7-1.62.4Zm17.3-.03c2.7-.2 2.74-.21 2.46-.74-.52-.95-2.69-2.65-4.47-3.49-1.96-.92-2.65-1.04-3.4-.55-.83.53-.84.52.58.99 2.64.86 7.33 3.07 7.07 3.33-.03.03-.83-.34-1.77-.83-1.92-.99-3.56-1.69-5.27-2.24-.63-.2-1.23-.42-1.33-.47-.74-.41-3.85 3.53-3.14 3.98.35.22 6.36.24 9.27.02Zm-23.58-.67c-.94-2.45-.93-6 .03-8.83.47-1.37 2.07-4.99 2.21-4.99.16 0 .18.12.05.25-.14.14-1.64 3.65-1.99 4.65-1 2.86-1.03 6.39-.06 8.98.27.71.27.72.15.72-.05 0-.23-.35-.39-.78Zm7.62.23c.61-.61.71-1.67.26-2.87-1.03-2.76-2.83-2.38-2.68.57.11 2.11 1.39 3.33 2.42 2.3Zm5.29-.31.78-.06.44-.68c.24-.38.59-.86.78-1.07l.35-.39-.91.01c-2.03 0-3.4-1.17-3.65-3.12l-.07-.58-.27.46c-1.59 2.71-.84 5.75 1.37 5.54zm-19.4-1.86c1.01-.96 1.24-1.57.54-1.45-.54.09-2.42.94-2.39 1.09.1.39.75 1.38.86 1.29.06-.05.5-.47.99-.93Zm32.11-.66c.97-.56.99-2.94.04-4.42l-.23-.35-.06.85c-.1 1.5-.87 2.58-2.1 2.94l-.4.12.83.58c.91.63 1.24.68 1.92.28Zm-9.88-.68c1.2-.33 2.39-1.49 2.46-2.39l.03-.5-.6-.12c-.68-.13-.71-.12-.56.15.41.77-.17 1.72-1.04 1.72-1 0-1.49-1.07-.9-1.94.29-.43.4-.37-1.29-.7-1.46-.29-1.37-.31-1.66.31-.4.83-.28 1.86.27 2.35 1.32 1.2 4.69.58 5.15-.94.09-.31.13-.36.2-.23.32.56-.89 1.62-2.19 1.91-2.19.48-3.93-.43-3.93-2.07 0-.38.28-1.25.45-1.39.19-.16.1-.3-.19-.3-.57 0-.84 2-.39 2.86.67 1.26 2.38 1.78 4.19 1.28ZM8.84 30.68c.03-.34.05-.62.04-.63-.07-.05-4.55-1.45-4.73-1.47-.26-.04-.64 1.05-.68 1.95l-.02.62 1.05.06c.58.03 1.77.06 2.66.07l1.61.02zm29.15.37c1.63-.82 2.16-3.25 1-4.55-.29-.32-.3-.33-.13-.05.6.98.73 1.58.55 2.4-.22 1-1.16 1.89-2.29 2.18-.29.07-.49.16-.46.2.16.15.87.06 1.33-.18Zm-1.12-.66c1.82-.56 2.44-1.79 1.68-3.35-.41-.84-.38-.84-1.82-.08-1.64.86-1.6.83-1.24 1.05.35.21.56.75.42 1.11-.39 1.04-1.94.79-1.93-.3.01-.49.03-.48-.42-.21l-.35.21.19.5c.24.63.19.59 1.15.92.44.16.87.32.95.37.17.1.48.05 1.37-.22Zm6.63.12c0-.06.1-.13.23-.16.59-.13 6.81-1.05 7.09-1.05.87 0-.18.22-3.32.7-1.9.28-3.57.54-3.72.57-.17.03-.28.01-.28-.06ZM9.04 29.12c.06-.4.02-.49-.69-1.61-1.07-1.68-1.08-1.69-2.12-.28-.42.57-.53.43 1.23 1.62 1.48.98 1.47.98 1.58.27Zm25.36-2.1c0-.06 5.56-3.44 5.93-3.6.04-.02.07.02.07.1 0 .07-.64.51-1.42.98-.79.47-2.09 1.24-2.9 1.72-1.42.85-1.68.97-1.68.8Zm-1.11-.7c.2-.16 1.28-.91 2.41-1.67s2.44-1.65 2.92-1.98c1.04-.7 1.02-.61.31-1.55-1.87-2.5-4.83-4.68-7.88-5.82-.94-.36-1.02-.41-1.25-.82-2.16-3.83-8.03-7.09-10-5.56-1.85 1.44.56 3.66 5.25 4.83 1.48.37 1.4.34 1.27.47-.08.08-.44.08-1.34-.01-1.88-.18-2.82-.44-4.38-1.24l-1.35-.7-1 .01c-2.54.02-4.65.96-4.65 2.08 0 1.14 2.09 1.44 5.98.86 1.06-.16 1.95-.25 1.98-.2.03.04-.01.1-.08.12-1.97.61-3.15 1.03-3.62 1.29-.58.33-.81.57-.54.57.08 0 .52.23.98.52 1.65 1 3.7 3.31 4.85 5.45.25.48.31.53.79.64.56.13 6.01 1.97 7.66 2.58 1.28.48 1.24.48 1.69.13Zm8.51-2.61c0-.05.66-.58 1.48-1.18 2.3-1.7 2.8-2.04 2.86-1.95.05.08-4.13 3.22-4.28 3.22-.03 0-.06-.04-.06-.09Zm-4.25-1.92c-1.6-1.89-4.25-4.1-7.55-6.3-.14-.09-.22-.2-.18-.24.14-.15 2.93 1.81 4.78 3.36 1.39 1.16 3.7 3.53 3.7 3.79 0 .21-.17.07-.75-.61Zm5.16-4.38c2.12-.39 5.34-.5 7.49-.26l.45.05-.45-.16c-2.49-.85-6.59-1.17-9.35-.73-.86.13-.81.08-.9 1l-.06.76.88-.24c.48-.13 1.35-.32 1.94-.42Zm-27.16-1.12c-.22-.03-.69-.09-1.04-.13l-.63-.06.24.33c.13.17.35.47.48.64l.24.33.55-.53.56-.52zm26.27-2.87c-.89-1.87-.34-2.78 2.24-3.73 1.85-.68 2.24-1 2.24-1.83 0-.91-1.01-1.39-3.33-1.59-2.13-.18-1.68-.48.73-.49 3.25-.01 5.05 1.23 4.76 3.27-.18 1.33-.84 1.88-3.34 2.76-2.05.72-2.62 1.17-2.62 2.06 0 .67-.22.53-.68-.45Zm4.43.73c-1.27-.45-1.28-1.67-.03-2.29.77-.38.87-.36.75.17-.17.74.64 1.97 1.3 1.97.07 0 .13.07.13.15 0 .2-1.58.2-2.15 0Zm1.05-.54c-.5-.5-.67-.94-.58-1.46.08-.4-.29-.27-.94.33-.76.7.11 1.59 1.59 1.61l.42.01zm-16.1.32c0-.18 2.18-8.94 2.24-9 .2-.21.06.5-.92 4.46-.92 3.73-1.32 5.11-1.32 4.54Zm11.14-.58c.17-.68.89-1.14 2.91-1.85 2.39-.84 2.98-1.39 2.98-2.75 0-1.66-1.65-2.76-4.08-2.74l-.7.01.74.13c2.9.53 3.26 2.57.62 3.51-1.71.61-2.19.84-2.6 1.29-.65.71-.72 1.21-.29 2.17.24.54.33.59.42.23Z"/></svg>