<svg xmlns="http://www.w3.org/2000/svg" width="51" height="51" viewBox="0 0 51 51"><path fill="#fff" fill-rule="evenodd" stroke="#fff" stroke-width=".469" d="M9.41 39.74c-.16-.12-.21-.26-.21-.6 0-.24-.05-.44-.1-.44-.06 0-.1-.07-.1-.15s.04-.15.09-.15.11-.09.14-.2.1-.2.17-.2.14.09.17.2c.05.19.19.24.55.21.15-.02.18.06.18.54 0 .53.01.56.23.53.19-.03.23-.11.27-.53.06-.55.36-.75.34-.22-.02.88-.05 1.08-.16 1.05-.07-.01-.23.02-.36.06-.14.05-.28.03-.36-.03-.09-.08-.22-.08-.39-.02-.18.07-.3.06-.46-.05Zm2.77.09c-.21-.05-.33-.45-.23-.7.05-.1.07-.26.06-.37-.05-.33.6-.51.87-.24.23.23.16 1.31-.08 1.25-.11-.03-.23-.01-.26.04-.05.09-.08.1-.36.02Zm1.2 0c-.33-.09-.2-.33.17-.33.42 0 .46-.15.06-.23-.63-.13-.41-.91.23-.85.46.04.49.38.04.39h-.33l.32.16c.72.36.3 1.08-.49.86Zm1.7-.04c-.33-.19-.22-.41.17-.33.44.08.45-.06.02-.26-.64-.3-.35-.87.39-.76.38.05.43.03.48-.19.08-.3.26-.33.33-.06.03.11.13.21.24.24.25.07.24.23-.01.3-.15.04-.2.14-.2.41 0 .29.04.36.2.36s.2-.07.2-.35c0-.66.57-.96.98-.52.35.37.29.57-.18.57-.31 0-.38.03-.33.16.04.11.13.13.33.09.38-.08.47.1.16.3-.23.15-.28.15-.55.02-.26-.13-.32-.13-.42-.01-.28.34-.79-.05-.79-.6 0-.3-.03-.34-.32-.39-.47-.07-.54.02-.16.21.41.21.48.54.16.76-.26.18-.46.2-.7.05Zm3.19.05c-.04-.04-.07-.38-.07-.75v-.67h.58c.85.01.92-.01.92-.17 0-.08.07-.15.15-.15s.15.07.15.15.09.15.19.15c.11 0 .23.05.26.1.04.07.12.07.25 0 .44-.24.95.06.88.52-.03.2-.08.23-.42.2-.29-.03-.37 0-.34.1.03.07.19.13.38.13.42 0 .5.22.14.36-.2.07-.35.07-.52 0-.16-.08-.29-.08-.43 0-.34.18-.69-.13-.69-.61 0-.29-.04-.4-.15-.4s-.15.12-.15.5-.04.5-.15.5-.15-.12-.15-.48c0-.78-.42-.79-.53-.01-.06.43-.18.65-.3.53Zm9.49-.09c-.23-.23-.24-1.85-.01-1.85.12 0 .15.15.15.79 0 .72.02.79.21.84.23.06.21.3-.03.35-.09.02-.23-.04-.32-.13Zm5.18-.08c-.52-.41-.15-1.4.46-1.24.16.04.2 0 .2-.23 0-.26.21-.46.34-.33.03.04.06.48.06.99v.92l-.41.04c-.3.03-.48-.01-.65-.15Zm1.66.16c-.4-.14-.56-.96-.24-1.27.34-.35.94-.09.94.4 0 .21-.04.24-.4.24-.32 0-.38.03-.33.16.04.12.14.14.39.09.27-.05.34-.03.34.1 0 .12-.42.39-.53.34-.01 0-.09-.03-.17-.06Zm2.61-.09c-.13-.1-.21-.28-.23-.56-.05-.66-.28-.61-.28.06 0 .74-.25.79-.36.09-.08-.61-.11-.65-.35-.53-.14.08-.19.21-.19.55 0 .33-.04.45-.15.45-.18 0-.27-.34-.23-.91l.03-.44.73.02c.55.01.72-.02.72-.12 0-.23.22-.29.36-.1.07.1.27.18.46.19l.33.02v1.38l-.32.02c-.18.01-.41-.05-.52-.12Zm1.24-.08c-.48-.48-.19-1.31.43-1.24.23.03.27-.01.32-.26.11-.63.25-.28.28.66.03.96.02.98-.2.97a1 1 0 0 0-.4.06c-.12.04-.25-.01-.43-.19Zm1.44.12c-.39-.31-.21-.88.27-.88.14 0 .23-.04.2-.09-.03-.04-.17-.06-.31-.03-.28.05-.36-.21-.09-.32.58-.22.84.04.84.83 0 .47-.02.51-.24.51-.13 0-.3.02-.38.05-.07.03-.21 0-.29-.07Zm-25.51-.58c-.04-.7-.01-.8.18-.8.3 0 .33 1.32.02 1.38-.13.03-.17-.08-.2-.58Zm7.94-.08.03-.67.42-.02c.23-.02.45.02.48.07.04.06.13.05.25-.02.44-.28.75 0 .78.7.02.48 0 .62-.11.62-.16 0-.27-.29-.27-.72 0-.21-.05-.28-.2-.28-.17 0-.2.07-.2.5s-.03.5-.2.5-.2-.07-.2-.48c0-.53-.05-.63-.26-.55-.09.03-.14.21-.14.54 0 .43-.03.49-.2.49-.19 0-.21-.05-.18-.68Zm2.29.42c-.26-.33-.26-.54-.01-.87.11-.14.2-.32.2-.39 0-.14.4-.58.53-.58s.07.38-.09.51c-.14.11-.13.14.1.26.14.08.26.19.27.26 0 .07.04.02.09-.11.12-.3.28-.28.41.06.05.15.12.34.15.42.04.1.13.02.27-.27.12-.24.27-.43.34-.43s.13-.11.13-.26c0-.19.04-.25.18-.22.29.05.31 1.88.02 1.88-.18 0-.2-.06-.2-.57v-.57l-.27.54c-.36.7-.47.72-.77.13-.21-.4-.25-.44-.26-.23-.01.67-.69.94-1.09.44Zm4.34.04c-.35-.51-.02-1.23.53-1.16.23.03.27-.01.32-.27.1-.59.25-.23.28.69l.03.93-.5.01c-.41.01-.53-.02-.66-.2Zm1.58.14c-.59-.38-.16-1.45.51-1.28.64.16.55.83-.1.77-.27-.02-.35.01-.32.11.03.08.19.12.42.11.31-.02.37.01.34.15-.03.18-.63.29-.85.14Zm1.67-.62c0-.56.03-.7.15-.7s.15.14.15.7-.03.7-.15.7-.15-.14-.15-.7Zm8.83.36c-.28-.59.12-1.19.66-1.01.16.05.2 0 .23-.27.06-.67.23-.25.26.66l.03.93-.51.02c-.48.01-.51-.01-.67-.33Zm-31.05-.32c.03-.31-.18-.52-.39-.38-.11.06-.12.58-.02.68.16.16.38-.01.41-.3Zm10.42.01c0-.29-.04-.35-.21-.35s-.2.04-.15.23c.03.12.06.28.06.35 0 .06.07.12.15.12.1 0 .15-.11.15-.35Zm4.9.16c.13-.25.13-.27-.05-.45-.22-.21-.45-.09-.45.23 0 .45.3.58.5.22Zm4.38.07c.27-.27.02-.75-.32-.62-.16.06-.23.54-.09.67.1.11.28.08.41-.05Zm3.9-.22c.05-.37-.1-.51-.37-.37-.23.13-.27.41-.09.59.2.2.43.09.46-.22Zm4.12-.06c0-.33-.03-.4-.2-.4-.2 0-.3.56-.13.73.19.19.33.05.33-.33Zm1.38.06c.04-.32-.15-.51-.35-.34-.14.11-.18.5-.06.62.15.15.38-.01.41-.28Zm2.56.28c.18-.07.22-.59.06-.69-.25-.16-.55.47-.33.68.08.08.08.08.27.01Zm-29.79-3.18c-3.14-.76-3.93-4.85-1.17-6.09 1.01-.46 3.07-.76 5.14-.77.89 0 .95-.08.85-.97-.15-1.31-1.75-1.68-4.08-.94-1.5.48-2.15.36-2.35-.43-.25-1.02.9-1.74 3.41-2.13 3.77-.57 5.87.78 5.86 3.79-.01 1.66-.79 6.37-1.15 6.91-.71 1.07-2.56.76-2.56-.43 0-.19-.05-.17-.46.19-.98.86-2.23 1.18-3.49.87Zm8.08-.16c-.71-.43-.75-.8-.33-3.1.17-.91.49-2.8.7-4.2.44-2.79.57-3.27 1.01-3.64.82-.7 2.16-.3 2.35.7l.06.34.34-.29c1.15-1.01 3.02-1.4 4.27-.88.43.19 1.19.87 1.48 1.34l.21.34.29-.39c1.23-1.68 4.31-2.08 5.79-.75 1.13 1.01 1.22 2.23.51 6.68-.54 3.44-.74 3.88-1.79 4.02-.68.09-1.26-.19-1.52-.73l-.22-.44.47-2.78c.53-3.1.6-4.13.32-4.56-.57-.87-2.33-.66-3.07.36-.47.64-.47.64-1.44 6.26-.24 1.36-.64 1.83-1.63 1.89-.71.05-1.17-.19-1.4-.74-.14-.35-.13-.51.26-2.83.63-3.77.67-4.34.32-4.99-.37-.67-1.75-.66-2.66.03-.77.59-.85.87-1.6 5.21-.41 2.39-.58 2.86-1.16 3.15-.49.26-1.15.26-1.56 0Zm17.68.02c-.82-.45-.83-.71-.27-4.02.2-1.13.49-2.9.66-3.95.43-2.63.65-3.08 1.67-3.29.47-.11 1.08.1 1.38.46.34.4.33.58-.24 4.18-.99 6.2-.97 6.11-1.54 6.54-.38.28-1.22.33-1.66.08Zm-23.29-.35c.31-.15.78-.5 1.06-.77.64-.63.72-.63.72 0 0 1.19 1.57 1.45 2.09.36.38-.77 1.18-6.07 1.08-7.11-.25-2.61-2.52-3.7-6.15-2.96-1.9.4-2.62.8-2.62 1.48 0 .82.54.98 1.8.54 2.73-.96 4.64-.4 4.65 1.35 0 .99-.01 1-2.13 1.07-4.1.13-5.52.96-5.52 3.22.01 2.33 2.81 3.9 5.02 2.82Zm7.16.05c.46-.3.55-.65 1.17-4.42.47-2.85.84-3.63 1.99-4.23.58-.29 1.64-.3 2.03-.01.88.66.91 1.29.24 5.29-.49 2.87-.49 2.86-.12 3.27.53.59 1.57.4 2.03-.38.1-.17.34-1.32.58-2.77.52-3.1.71-3.88 1.15-4.53.85-1.29 2.98-1.49 3.58-.34.25.48.17 1.91-.23 4.15-.62 3.5-.63 3.61-.07 3.95.66.4 1.62.18 1.91-.45.13-.28.71-3.61.97-5.59.42-3.25-.5-4.71-2.96-4.7-1.44.01-2.5.49-3.27 1.49-.48.62-.62.67-.76.28-.41-1.16-1.28-1.68-2.77-1.68-1.34 0-1.93.23-2.84 1.1-.71.68-.68.68-.73-.07-.06-.79-.34-1.08-1.08-1.08-1.03 0-1.24.43-1.7 3.5-.16 1.13-.46 2.93-.65 4-.41 2.29-.43 2.67-.14 3.04.35.44 1.13.53 1.67.18Zm17.71-.07c.41-.35.43-.42 1.12-4.75.64-4.05.75-4.94.65-5.35-.12-.48-.93-.69-1.61-.41-.66.28-.65.25-1.6 6.04-.65 3.92-.66 4.03-.26 4.43.41.4 1.24.42 1.7.04Zm-26.21-1.39c-.9-.33-1.28-.81-1.28-1.62 0-1.2.98-1.74 3.2-1.74 1.7 0 2.03.45 1.34 1.82-.63 1.25-2.14 1.96-3.26 1.54Zm1.94-.49c.74-.43 1.25-1.17 1.35-1.97.08-.56-.16-.63-1.77-.57-1.94.08-2.55.41-2.55 1.37 0 1.27 1.67 1.93 2.97 1.17Zm23.54-10.06c-.12-.19.13-1.16.43-1.63.72-1.14 2.41-1.33 3.01-.35.4.65.15 1.43-.55 1.77-.52.25-2.77.42-2.89.21Zm2.52-.36c1.29-.39 1.07-1.95-.28-1.95-1.05 0-1.74.61-1.95 1.73l-.07.37h.89c.51 0 1.11-.07 1.41-.15Zm-16.67-.75c-3.23-.68-5.17-3.07-4.97-6.15.19-3.16 1.95-4.43 6.91-5.01 1.6-.19 9.32-.31 9.55-.15.22.15.25 1.68.06 2.89-.63 3.98-3.59 7.28-7.37 8.23-.95.23-3.43.35-4.18.19Zm3.44-.31c4.44-.73 7.75-4.64 7.92-9.35l.05-1.42-1.58-.07c-3.49-.17-8.58.19-10.77.75-2.54.64-3.77 2.14-3.77 4.55.01 1.73.42 2.77 1.56 3.92 1.56 1.56 3.73 2.09 6.59 1.62Zm1.29-2.71c-.72-.69-.72-.68-.43-1.33.67-1.51-.33-3.04-1.91-2.93-1.49.11-2.27 1.63-1.55 3.04.14.27.25.51.25.55 0 .08-1.37 1.19-1.48 1.19-.26 0-.77-.85-.98-1.65-.79-2.96 1.68-5.89 4.53-5.36 3.21.59 4.75 4.09 2.88 6.54-.5.66-.58.66-1.31-.05Zm1.02 0c3.05-3.61-2.6-8.57-5.85-5.13-1.28 1.35-1.53 3.85-.51 5.06l.27.33.55-.48.55-.49-.23-.56c-1-2.41 1.79-4.45 3.57-2.62.7.72.84 1.47.49 2.52l-.2.6.47.54c.55.65.53.64.89.23Z"/></svg>