<svg xmlns="http://www.w3.org/2000/svg" width="51" height="51" viewBox="0 0 51 51"><path fill="#fff" fill-rule="evenodd" stroke="#fff" stroke-width=".456" d="M6.3 50.96c-2.47-.75-4.46-2.38-5.54-4.53-.33-.65-.79-2.24-.74-2.55.02-.13.13.16.27.72.81 3.21 3.59 5.81 6.79 6.35.44.07.58.25.2.24-.13 0-.57-.11-.98-.23Zm37.46.15c.05-.04.4-.16.79-.25 3.11-.76 5.61-3.27 6.35-6.37.23-.97.35-1.16.26-.39-.31 2.46-2.2 5.01-4.64 6.24-1.03.52-3.14 1.11-2.76.77Zm-19.88-8.96c-2.83-.78-4.39-3.71-3.48-6.58.12-.38.2-.7.18-.72-.45-.38-.58-.34-1.32.4-3.79 3.85-10.05.02-8.32-5.09l.27-.79-.23-.15c-2.16-1.44-2.75-4.69-1.27-6.92 1.26-1.88 3.74-2.66 5.94-1.86l.65.23.2-.34c.11-.19.2-.35.2-.37 0-.01-.21-.17-.46-.36-.57-.41-1.26-1.33-1.53-2.05-1.53-4.08 2.15-7.99 6.22-6.61l.78.26.57-.62c1.18-1.28 2.27-1.73 4.03-1.66 3.36.12 5.54 3.47 4.4 6.72-.12.33-.21.6-.21.62 0 .01.14.11.31.22l.31.19.72-.72c2.7-2.74 7.08-1.85 8.37 1.71.33.91.32 2.35-.04 3.34l-.27.75.28.19c.89.64 1.7 1.85 1.97 2.97.91 3.87-2.84 7.17-6.6 5.81-.75-.28-.72-.28-.92.12l-.16.35.34.28c1.32 1.08 1.99 2.46 1.99 4.09 0 3.47-3.34 5.79-6.7 4.64l-.65-.22-.8.79c-1.38 1.36-3.07 1.85-4.77 1.38Zm2.25-.2c.96-.2 1.61-.58 2.5-1.48l.78-.78.74.26c4.34 1.49 8.09-3.02 5.74-6.9-.33-.55-1.14-1.4-1.54-1.62-.19-.11-.19-.12.05-.63.31-.67.27-.66 1.18-.34 4.19 1.46 7.89-2.6 5.95-6.56-.25-.52-1.2-1.58-1.7-1.92l-.23-.15.27-.64c.79-1.93.17-4.45-1.39-5.6-2.15-1.58-4.85-1.29-6.7.73l-.56.62-.51-.24c-.28-.13-.51-.25-.51-.26 0-.02.11-.36.24-.77 1.75-5.2-4.33-8.92-8.03-4.9l-.68.73-.39-.16c-1.99-.85-4.09-.43-5.5 1.08-2 2.17-1.55 5.68.95 7.29l.25.15-.33.56-.32.56-.59-.24c-3.93-1.59-7.89 2.16-6.41 6.07.35.91 1.44 2.22 2.03 2.41.08.03.03.26-.17.74-.7 1.67-.3 3.9.93 5.13 2.21 2.21 5.49 1.94 7.49-.62l.22-.28.51.26c.45.23.51.29.45.48-.61 1.88-.61 3.21-.01 4.42.99 2.01 3.13 3.06 5.29 2.6Zm-1.76-2.39c-.79-.29-1.34-.9-1.57-1.74-.19-.71 0-1.28.99-2.96.48-.83 1.74-3.03 2.8-4.88 1.06-1.86 1.98-3.38 2.04-3.38.16 0 3.97 2.29 3.97 2.39 0 .19-4.67 8.33-5.41 9.42-.79 1.17-1.71 1.54-2.82 1.15Zm1.23-.17c.9-.21 1.06-.42 3.44-4.52 1.36-2.35 3.26-5.74 3.26-5.81s-3.5-2.16-3.61-2.16c-.04 0-.94 1.52-2 3.38-1.06 1.85-2.27 3.96-2.7 4.69-.91 1.55-1.03 1.87-.97 2.59.09 1.02.87 1.74 2.08 1.93.03 0 .25-.04.5-.1Zm5.85-1.55c-.59-.15-.85-.27-.85-.39 0-.15 2.04-3.71 2.25-3.94.17-.18.91.48 1.16 1.04.77 1.67-.83 3.72-2.56 3.29Zm1.28-.38c.68-.29 1.27-1.22 1.27-2 0-.74-.91-2.01-1.13-1.59-.05.1-.52.91-1.03 1.79-.52.89-.94 1.66-.94 1.72 0 .24 1.33.29 1.83.08Zm-17.92-3.4c-1.18-.43-1.79-1.76-1.39-3.07.15-.51.1-.53 1.92.52 2.71 1.55 2.58 1.42 1.95 2-.67.62-1.67.84-2.48.55Zm1.79-.36c.5-.26.84-.64.68-.77-.18-.14-2.64-1.56-3.16-1.82-.52-.27-.57-.2-.57.81 0 1.57 1.61 2.5 3.05 1.78Zm.68-3.88c-2.62-1.52-4.91-2.91-5.08-3.07-1.51-1.44-.48-3.95 1.62-3.95.79 0 1.09.14 4.14 1.9 5 2.89 6.54 3.82 6.54 3.95s-1.41 2.69-1.94 3.54c-.15.23-.32.41-.39.41-.06-.01-2.27-1.26-4.89-2.78Zm6.16.36c.42-.74.76-1.39.76-1.45 0-.11-1.2-.84-6.13-3.68-3.29-1.9-3.58-2.04-4.25-2.05-1.5-.01-2.55 1.59-1.93 2.95.27.59.46.73 4.12 2.85 1.84 1.06 3.97 2.3 4.74 2.75l1.4.81.27-.41c.14-.23.6-1.03 1.02-1.77Zm12.64-2.13c-.37-.19-1.16-.62-1.75-.96-4.72-2.71-7.5-4.34-7.62-4.45-.13-.12 1.52-3.25 2.1-3.97.15-.19.21-.17 2.05.9 1.04.61 3.24 1.88 4.89 2.83 3.31 1.89 3.34 1.92 3.7 2.64 1.06 2.13-1.18 4.14-3.37 3.01Zm2.21-.11c1.28-.64 1.57-2.36.57-3.33-.56-.54-9.79-5.82-9.92-5.68-.42.44-2.05 3.51-1.92 3.62.11.1 4.85 2.86 7.88 4.58 2.07 1.18 2.45 1.27 3.39.81ZM25.2 26.13a6 6 0 0 1-.48-.29c-.04-.03.32-.73.51-.98.13-.18.15-.18.61.09.61.36.63.44.31.99-.31.54-.35.54-.95.19Zm.75-.33c.18-.35.15-.45-.25-.65-.28-.14-.29-.14-.5.21-.12.19-.21.36-.19.38.09.07.65.35.71.36.04 0 .15-.14.23-.3Zm-5.22-2.83c-1.06-.62-1.93-1.18-1.93-1.24 0-.07.58-1.11 1.28-2.3.7-1.2 1.86-3.21 2.57-4.48 1.67-2.95 2.15-3.45 3.34-3.45 2.19 0 3.03 1.96 1.79 4.16-2.09 3.7-4.88 8.39-4.99 8.41-.08.01-1.01-.48-2.06-1.1Zm3.05-.87c.52-.91 1.67-2.88 2.55-4.38 1.78-3.04 1.96-3.48 1.79-4.31-.22-1.06-.94-1.6-2.11-1.61-1.26 0-1.38.13-3.53 3.95-.75 1.32-1.81 3.17-2.37 4.1-.55.94-1.01 1.74-1.01 1.8 0 .12 3.51 2.16 3.64 2.12.05-.02.52-.77 1.04-1.67Zm13.12-1.84c-1.45-.77-3.44-1.94-3.47-2.03-.07-.19.47-.71.99-.97 2-1 4.16.99 3.27 3.02l-.14.33zm.7-.91c0-1.91-2.06-2.82-3.57-1.56-.39.33-.31.41 1.52 1.45 2.05 1.17 2.05 1.17 2.05.11Zm-19.93-2.04c-1.43-1.58-.63-3.86 1.39-3.99.7-.05 1.59.2 1.51.42-.2.49-2.28 3.92-2.39 3.94-.08.02-.31-.15-.51-.37Zm1.59-1.76c1.13-1.98 1.12-1.91.24-2.02-1.52-.18-2.74 1.4-2.2 2.83.14.37.7 1.06.83 1.01.05-.01.56-.84 1.13-1.82ZM.01 7.19C-.04 4.72 3.13.98 5.86.28c.44-.11.46-.13.24-.19-.14-.04 3.98-.06 9.15-.06l9.4.02L15.8.1C6.98.15 6.95.16 6.22.38 3.27 1.29 1.19 3.47.29 6.6c-.22.73-.28.87-.28.59Zm51-.09C49.89 3.02 47.31.57 43.65.11c-.42-.05-.06-.08 1.2-.07 1.26 0 1.53.02.9.06l-.89.05.69.22c1.94.63 3.84 2.31 4.84 4.3.37.75.84 2.32.79 2.65-.03.18-.07.13-.17-.22Z"/></svg>