<svg xmlns="http://www.w3.org/2000/svg" width="51" height="51" viewBox="0 0 51 51"><path fill="#fff" fill-rule="evenodd" stroke="#fff" stroke-width=".467" d="M10.21 35.79c-.44-.18-.81-.5-1.08-.97l-.28-.47-.05-4.25-.05-4.25-4.27-.03C1.74 25.81.2 25.76.2 25.7s.21-.1.48-.1c.26-.01 2.18-.02 4.27-.03l3.8-.02L8.8 21c.05-4.98.04-4.82.67-5.42.64-.61-.08-.58 12.61-.58h11.58l.44.22c.24.13.58.4.74.61l.31.39.05 3.15.05 3.16 2.8-2.59c3.2-2.96 3.17-2.94 3.65-2.94.92 0 1 .39 1 4.81v3.66l2.48.06c1.36.04 3.16.07 4 .07.94 0 1.52.04 1.52.1s-1.4.1-3.99.1h-3.98l-.07.46c-.03.26-.06 1.92-.06 3.7v3.22l-.26.31c-.21.26-.33.31-.68.31-.41 0-.5-.06-2.11-1.53-3.53-3.19-4.19-3.77-4.27-3.77-.04 0-.08 1.31-.08 2.9 0 2.7-.01 2.94-.2 3.29-.24.48-.83.98-1.3 1.11s-23.16.12-23.49-.01Zm23.64-.38c.94-.43 1.05-.75 1.06-3.14.02-2.51.12-4.2.24-4.24.06-.02 1.47 1.21 3.14 2.72 4.25 3.86 4.01 3.94 4.01-1.27V25.8H9.09l.03 4.28.03 4.28.27.41a2 2 0 0 0 .7.62l.43.21H22c10.92 0 11.47-.01 11.85-.19Zm8.43-13.8c.03-5.55.3-5.46-4.03-1.46-1.7 1.57-3.14 2.84-3.19 2.82-.07-.02-.13-1.16-.16-3.35-.06-3.64-.04-3.54-.72-4.05-.47-.35-1.75-.38-12.88-.35-12.14.03-11.15-.03-11.84.82l-.31.38-.03 4.54-.03 4.53.98.04c.54.02 8 .03 16.58.03l15.6-.01zM12.24 12.6c-2.03-.81-2.72-3.46-1.32-5.05 2.07-2.35 5.73-1.06 5.72 2.01 0 2.27-2.31 3.87-4.4 3.04Zm17.89-.35c-1.9-.82-2.31-3.76-.73-5.18 1.29-1.16 3.37-.82 4.06.67.41.88.37.96-.49.96h-.72l-.19-.35c-.38-.7-1.44-.67-1.81.06-.3.57-.18 1.81.22 2.2.53.53 1.25.43 1.59-.23.2-.39 1.64-.44 1.64-.05-.01.62-.79 1.61-1.52 1.92-.46.19-1.62.19-2.05 0Zm-11.48-.07c-.03-.07-.04-1.37-.03-2.88l.03-2.75 1.3-.03c1.6-.04 2.23.08 2.69.51.74.7.74 2.08 0 2.82l-.34.35.54.97c.31.54.52 1.01.47 1.06-.04.04-.43.07-.86.05l-.78-.03-.46-.92c-.44-.87-.48-.92-.78-.93h-.32l-.03.93-.03.92-.68.03c-.48.02-.69-.01-.72-.1Zm5.1-.01c-.03-.07-.04-1.36-.03-2.87l.03-2.75 1.94-.03c2.24-.03 2.23-.03 2.19.72l-.03.51-1.27.03-1.28.03v.88l1.13.03 1.12.03.03.59c.04.75.02.76-1.25.76H25.3v.8h1.18c1.35 0 1.42.03 1.42.7 0 .25-.05.51-.12.58-.18.18-3.97.17-4.03-.01Zm-9.21-.22c1.68-.81 2-3.1.61-4.33-1.76-1.55-4.56-.09-4.32 2.25.18 1.73 2.14 2.84 3.71 2.08Zm17.49.06c.38-.15.96-.7 1.18-1.12.25-.5.26-.49-.26-.49-.4 0-.5.05-.84.4-1.27 1.34-2.95-.62-2.12-2.47.42-.91 1.62-1.04 2.22-.24.3.41 1.25.48 1.14.09-.44-1.53-2.63-2.01-3.83-.85-1.33 1.27-.97 3.86.62 4.58.45.2 1.48.25 1.89.1Zm-12.23-.73c0-1.12.03-1.18.61-1.18h.49l.45.9c.5 1 .53 1.03 1.18.98l.45-.03-.54-.94c-.63-1.1-.62-1.02-.22-1.21.93-.44.91-2.2-.03-2.75-.29-.17-.56-.21-1.81-.23l-1.48-.04V12h.9zm7.8.32v-.4H25V9.8h2.3V9H25v-.69c0-.84-.05-.81 1.46-.81h1.14v-.7H24V12h3.6zm-7.63-2.27c-.04-.03-.07-.44-.07-.9V7.6h.73c.9 0 1.07.11 1.14.72.07.58-.08.85-.55.98-.42.11-1.15.13-1.25.03Zm1.43-.38c.11-.07.14-.92.03-.98-.05-.03-.34-.08-.65-.11l-.58-.07v1.34l.55-.06c.3-.03.59-.08.65-.12Z"/></svg>