<svg xmlns="http://www.w3.org/2000/svg" width="51" height="51" viewBox="0 0 51 51"><path fill="#fff" fill-rule="evenodd" stroke="#fff" stroke-width=".743" d="M11.35 38.44c-9.55-2.12-9.92-15.66-.5-18.36 1.17-.34 3.73-.34 4.9 0 .88.25 2.63 1.07 3.09 1.45l.29.23-.61 1.1c-.34.6-.7 1.3-.82 1.57-.25.55-.28.56-.83.18-5.04-3.45-11.29 1.72-8.62 7.15 1.77 3.62 6.64 4.25 9.38 1.23.5-.55.79-1.05 1.96-3.44 2.33-4.74 3.41-7.01 3.41-7.17 0-.08-.71-1.07-1.57-2.19-3.22-4.19-4.73-6.2-4.73-6.3 0-.06.85-.08 2.27-.07l2.27.03 1.81 2.37c.99 1.3 2.34 3.08 3.01 3.95.66.87 1.23 1.63 1.27 1.7.04.06-.22.7-.58 1.42s-.65 1.33-.65 1.35c0 .04-1.53 3.21-3.17 6.56-2.06 4.19-2.96 5.27-5.41 6.5-1.67.83-4.33 1.15-6.17.74Zm26 .1c-.11-.02-.51-.12-.89-.2-2.7-.62-5.34-2.9-6.41-5.53-1.75-4.31-.08-9.37 3.86-11.71a9.47 9.47 0 0 1 13.33 3.88c.39.78.39.78-1.19 1.28-2.08.65-1.85.66-2.34-.09-3.18-4.89-10.62-2.75-10.61 3.04.01 4.41 4.49 7.07 8.44 5.02.84-.44 1.71-1.27 2.16-2.06.17-.31.36-.57.4-.57.07 0 2.01.58 3.08.91.4.13.4.24-.02 1.07-1.16 2.3-3.22 3.98-5.81 4.74-.68.2-3.44.35-4 .22Zm-22.07-.3c2.25-.46 4.33-1.83 5.62-3.7.63-.91 6.2-12.22 6.2-12.58 0-.06-.52-.78-1.16-1.61-.64-.82-1.99-2.59-3.01-3.92L21.09 14h-4.1l.31.44c.17.24 1.04 1.37 1.92 2.52.89 1.15 2.17 2.82 2.86 3.72l1.24 1.64-.57 1.21c-4.62 9.73-5.1 10.45-7.46 11.27-4.33 1.51-8.65-2.27-7.73-6.78.86-4.24 5.97-6.17 9.44-3.58l.34.26.34-.67c.18-.38.51-1 .73-1.4.49-.9.51-.81-.29-1.29-6.51-3.97-14.59 1.16-13.9 8.82.48 5.41 5.67 9.19 11.06 8.08Zm25.4 0c2.68-.55 4.93-2.22 6.16-4.55.35-.65.44-.9.34-.94-.5-.18-2.78-.85-2.9-.85-.09 0-.34.29-.57.64-1.9 2.95-6.32 3.5-8.9 1.1-1.28-1.18-1.93-2.67-1.93-4.39 0-5.98 7.65-8.26 10.95-3.27.23.34.46.6.53.58.06-.02.71-.23 1.45-.46s1.37-.44 1.41-.47c.25-.14-1.1-2.2-2.03-3.09-1.88-1.79-3.67-2.48-6.39-2.49-4.35 0-7.77 2.57-8.91 6.7-1.81 6.61 4.07 12.88 10.79 11.49Zm-2.3-7.65c-.13-.07-.18-.23-.18-.59v-.49l-.58-.03-.57-.03v-1.1l.57-.03.58-.03v-.47c0-.65.08-.74.61-.7l.44.03.03.57.03.57.57.03.57.03v1.1l-.57.03-.57.03-.03.57-.03.57-.35.02c-.19.02-.43-.02-.52-.08Zm.72-.73c0-.61.06-.66.76-.66.42 0 .44-.01.44-.3 0-.26-.03-.3-.29-.3-.82 0-.91-.07-.91-.71 0-.59 0-.59-.3-.59-.28 0-.3.03-.3.38 0 .74-.06.81-.69.84-.55.03-.56.04-.59.35l-.03.32.58.03.58.03.03.58.03.57h.69zM28.05 16.53c-1.02-1.37-1.85-2.53-1.85-2.59 0-.07.72-.13 2.23-.18 2.73-.08 3.15-.03 3.68.41 1.08.91.85 2.85-.44 3.82-.29.22-.8.53-1.14.7l-.63.31zm2.69 1.79c1.31-.69 1.81-1.4 1.81-2.59 0-.8-.15-1.1-.75-1.5-.32-.22-.4-.23-2.81-.23-1.37 0-2.49.02-2.49.06 0 .06 3.43 4.64 3.48 4.64.02 0 .36-.17.76-.38Z"/></svg>