<svg xmlns="http://www.w3.org/2000/svg" width="51" height="51" viewBox="0 0 51 51"><path fill="#fff" fill-rule="evenodd" stroke="#fff" stroke-width=".712" d="M6.89 48.87c-1-.28-1.81-.97-2.23-1.86l-.21-.46V4.65l.22-.47c.7-1.53 2.5-2.34 4.03-1.81.48.16 7.98 4.4 11.8 6.66l1.35.8 1.1-.19A16.43 16.43 0 0 1 41.19 20.1l.32.85 2.17 1.3c2.88 1.72 3.34 2.22 3.2 3.48-.15 1.34-.14 1.34-7.63 5.66-1.21.7-3.28 1.91-4.6 2.68-2.26 1.32-10.47 6.02-14.9 8.53-1.1.63-3.82 2.19-6.05 3.48-5.27 3.05-5.51 3.16-6.81 2.79Zm2.37-.55c.34-.17 1.24-.68 2-1.13.77-.45 3.33-1.93 5.71-3.29l4.32-2.48-.91-.32c-9.28-3.24-13.57-13.98-9.13-22.85 1.88-3.74 6.04-7.24 9.7-8.16.58-.15.57-.18-.22-.64C12.78 4.86 8.74 2.6 8.33 2.54c-1.51-.23-2.81.42-3.39 1.7l-.23.51-.03 20.8-.03 20.8.21.46c.79 1.7 2.72 2.37 4.4 1.51Zm17.72-10.14c2.9-1.65 6.71-3.85 8.47-4.87 1.76-1.03 3.77-2.2 4.47-2.6s1.31-.78 1.36-.84c.39-.49.71-3.75.54-5.6-.65-7.19-5.57-12.69-12.79-14.29-1.48-.33-5.02-.32-6.53 0-9.6 2.09-14.99 11.68-11.85 21.09 1.26 3.77 4.29 7.19 8.01 9.03.79.4 2.66 1.1 2.92 1.1.08 0 2.51-1.36 5.4-3.02Zm-2.53-2.08c-7.14-.85-11.26-8.7-8-15.25 3.86-7.74 15.75-7.41 19.1.53 3.17 7.52-2.99 15.68-11.1 14.72Zm2.9-.35c9.48-1.53 12.07-14.06 3.9-18.85-6.83-3.99-15.35.54-15.62 8.3-.24 6.64 5.27 11.6 11.72 10.55Zm-4.7-3.15c-1.54-.51-2.45-1.79-2.45-3.47 0-2.64 2.63-4.27 5.26-3.26.12.04.14-.47.14-3.61 0-3.66 0-3.66.21-3.66.31 0 5.72 1.42 5.88 1.54s.11 2.71-.05 2.86c-.05.04-.88-.14-1.84-.4s-1.9-.51-2.09-.55l-.34-.07.07 3.58c.07 3.96.02 4.48-.5 5.45-.79 1.45-2.65 2.14-4.29 1.59Zm2.7-.42c.66-.35 1.18-.9 1.52-1.63l.28-.6.03-4.12c.02-3.23.06-4.13.16-4.13.11 0 3.72.94 4.04 1.05.09.03.12-.25.12-1.2v-1.24l-.38-.1c-.2-.05-1.41-.37-2.67-.7-1.26-.34-2.36-.61-2.42-.61-.1 0-.13.8-.13 3.64 0 2.03-.04 3.67-.09 3.7s-.31-.04-.57-.16c-.74-.34-2.09-.32-2.84.03-2.68 1.25-2.59 5.11.13 6.19.76.3 2.12.24 2.82-.12Zm18.27-3.64c2.65-1.53 2.98-1.86 2.98-3.01 0-1.13-.21-1.34-3-3.02-1.88-1.13-2.02-1.2-1.95-.94.31 1.22.37 1.76.42 3.48.05 1.78-.07 3.35-.33 4.33-.09.31-.16.34 1.88-.84Z"/></svg>