<svg xmlns="http://www.w3.org/2000/svg" width="51" height="51" viewBox="0 0 51 51"><path fill="#fff" fill-rule="evenodd" stroke="#fff" stroke-width=".42" d="M30.51 50.76c-.1-.12-.08-.31.09-.98.37-1.36.5-2.01.5-2.44 0-.25.07-.51.19-.66.16-.2.71-1.32.71-1.44 0-.2-.37.06-.69.49-.92 1.25-2.14 1.51-3.09.65-.26-.23-.98-.65-1.62-.96-2.14-1.02-2.23-1.52-.58-3.29.6-.65.7-.9.24-.59-.37.24-.39.21-.33-.35.07-.6-.08-.56-.38.11-.21.46-.35.46-.92.04-.31-.23-.7-.33-.59-.15.05.08-1.04.23-1.13.15s.09-.15.56-.2c.54-.07.67-.35.27-.57-.17-.09-.18-.09-.05.06.12.15.11.17-.08.17-.18 0-.21-.04-.16-.2.09-.29.01-.25-.6.3-.3.28-.64.5-.75.5-.1 0-.22.05-.25.1-.1.17-.24.11-.38-.16-.09-.17-.17-.23-.21-.15-.04.06-.15.11-.26.11-.1 0-.2.07-.23.14-.15.37-.7.3-2.69-.37-4.39-1.47-4.36-1.79.47-4.16 2.51-1.24 2.14-1.18 4.87-.76 3.42.53 3.85.76 3.17 1.68l-.22.3.26-.07c.53-.13.73-.25 1.11-.66.73-.79 1.71-.91 3.72-.43 1.56.37 1.7.23 1.76-1.68l.03-1.07-.5.3c-.27.16-.85.47-1.27.68-.43.22-.85.51-.94.65l-.17.26-1.16-.06c-1.55-.09-3.41-.41-3.57-.63-.1-.14-.15-.15-.25-.04-.17.16-.49.15-.73-.03a.9.9 0 0 0-.44-.15c-.26 0-.63-.17-.74-.34-.28-.42.05-.78 1.32-1.41.41-.21 1.22-.64 1.79-.97 1.35-.78 1.4-.79 2.7-.62 1.1.14 4.03.68 4.31.78.17.07.29-1.47.15-2.01-.11-.44-.85-.33-.85.12 0 .46-.23.55-.56.25-.29-.28-.44-.77-.44-1.45 0-.33-.07-.6-.2-.8-.29-.44-.34-1-.15-1.8.4-1.69.4-2.11.02-1.95-.35.15-1.69.4-1.8.33-.52-.32 1.04-2.95 2.15-3.61.27-.16.29-.2.23-.63-.05-.37-.03-.48.09-.52.43-.17.19-.67-.29-.6-.78.1-.34-.87.61-1.35.27-.14.22-.76-.06-.69-.34.09-.5-.11-.5-.61 0-.7.27-.89 1.33-.95.5-.03.84-1.29.51-1.86-.23-.39-.24-.38-.52.04-.12.2-.46.51-.75.69-1.44.93-1.9 2.29-1.13 3.3.33.44.27.6-.09.26-.9-.85-.53-2.58.73-3.43.26-.17.7-.56.99-.86.55-.57.73-.59.89-.09.05.17.08.16.22-.14.51-1.01 1.96.63 1.95 2.19 0 .63-.41 1.73-.64 1.73-.14 0-.11-.11.16-.64.56-1.1-.16-3.46-1.05-3.46-.11 0-.6 1.75-.6 2.15 0 .03.15.05.34.05.39 0 .47.14.4.62-.05.25-.01.38.15.52.22.2.28.6.11.71-.05.03.01.21.15.4.13.21.21.43.18.55-.08.31.09.24.44-.17.39-.48.54-.37.19.13-.33.48-.33.48.68.35 1.85-.25 4.01.49 5.47 1.86.79.75.77.75.77.18 0-.88-1.77-2.18-3.29-2.41l-.44-.07.19.22c.23.25.2.26-.27.06-.22-.09-.67-.15-1.12-.15-.43 0-.75-.04-.75-.1 0-.05.03-.1.07-.1 1.22-.03 1.95-.32 2.37-.94.45-.64.45-.67-.03-.98l-.38-.25-.32.78c-.18.44-.37.79-.42.79-.15 0-.1-.24.16-.84.33-.74.32-1.07-.06-1.72-.43-.77-.14-.69.36.09.72 1.12 1.2 1.29 1.47.51.64-1.83-.03-2.74-2-2.74-1.23 0-3.4-.21-4.33-.41-.57-.13-.92-.07-2.35.37-1.27.39-2.04.54-2.86.54-1.18 0-1.57.69-1.58 2.77v.52l.45.2c.82.36 1.83 2.24 1.31 2.44-.66.25-2.47 3.75-2.95 5.7-.44 1.76-.7 4.6-.45 4.88.21.24.14 1.42-.12 1.7-.21.23-1.82 1-2.15 1.03-.14.01-.44.16-.65.33-.51.4-1.46.93-1.67.93-.1 0-.31.12-.47.28-.41.38-2.49 1.49-4.2 2.23-.3.13-.87.45-1.27.71-1.37.89-1.64.94-1.45.24.13-.44.01-.39-.22.09-.22.45-.39.45-.34 0 .05-.43-.09-.46-.23-.05-.06.17-.15.3-.2.3-.2 0-.2-.32-.01-1.17.11-.48.23-1.05.27-1.25.03-.24.11-.38.2-.38.18 0 .2.39.05.89-.05.19-.08.36-.06.38.08.08.74-.23 1.04-.48.56-.49.89-.62 1.01-.41.06.09.11.12.11.06.01-.34-1.56-.9-2.05-.74-.41.14-.48.24-.69 1.1-.09.36-.21.74-.27.85-.07.14-.07.3 0 .49.06.15.11.38.11.52 0 .52-.2.19-.55-.93-.54-1.73-.71-1.72-.4.02.08.44.15.88.15.98 0 .23-.21.22-.27-.01-.13-.52-1.52-.59-1.54-.08q0 .225-.06.06c-.04-.08-.12-.19-.18-.25-.09-.07-.16-.91-.24-2.75-.07-1.46-.16-3.1-.21-3.65-.17-1.82-.23-6.79-.11-8.55.07-.91.15-2.02.18-2.48.07-.94-.01-1.02-.41-.42-.14.22-.22.4-.16.4s.08.1.05.23c-.03.12-.07.33-.09.47-.07.41-.17.6-.33.6-.13 0-.13-.04.02-.26.25-.38-.16-.15-.45.26-.12.17-.26.27-.32.24-.07-.05-.09.01-.05.17.1.39.2 2.75.12 2.67-.04-.04-.16-.67-.26-1.39-.1-.73-.22-1.35-.25-1.38s-.03.13.01.37c.04.25.03.42-.03.42-.11 0-.22-.33-.22-.68 0-.25-.17-.41-.79-.78l-.42-.26.16.38c.55 1.32.69 2.7.85 8.54.06 1.9.14 3.95.19 4.55.15 1.68.14 3.18-.01 3.13-.08-.03-.15-.34-.19-.84-.03-.47-.06-.61-.07-.36-.03.63-.32.55-.48-.13-.06-.28-.22-.79-.34-1.15-.21-.6-.22-.84-.24-3.07 0-1.32-.04-2.39-.09-2.36-.1.06-.09-.19.04-.55.08-.22.07-.36-.01-.52-.14-.27-.34-.14-.49.33-.1.29-.09.3.04.13.08-.11.18-.16.22-.13.03.04-.06.2-.21.36l-.28.29.25.78c.29.92.41 1.83.28 2.03-.07.1-.11 0-.16-.35-.09-.66-.59-2.34-.63-2.11-.05.25-.34.17-.49-.13a.7.7 0 0 0-.61-.39c-.08-.01-.05.13.12.41.28.48.35.82.4 1.83.02.39.09 1.13.15 1.65s.11 1.22.12 1.55c0 .33.03.54.06.47.14-.34.33-.1.33.41v.54l.41-.01c.37-.01.43.02.52.27.13.41-.08.61-.31.29-.19-.25-.47-.22-.68.06-.09.12-.13.12-.19.02a.146.146 0 0 1 .05-.2c.09-.06.09-.13.01-.28a1.2 1.2 0 0 1-.11-.48v-.27l-.21.27c-.23.29-.39.26-.39-.07a1.4 1.4 0 0 0-.16-.47l-.15-.25.04.33c.08.67-.2.48-.4-.28-.26-.95.14-1.03.66-.13.08.14.1.06.11-.35 0-.44-.03-.52-.19-.52-.75 0-3.51-1.1-3.51-1.41 0-.15.12-.12.91.22.95.41 2.18.79 2.56.79.53 0 .03-2.26-.9-4.14-.18-.38-.27-.69-.25-.88.05-.33.07-.33-.34-.08-.39.23-1.62.7-1.83.7-.34 0-.11-.28.39-.49 2.2-.91 3.77-4.33 2.88-6.26-.5-1.09-1.24-1.56-2.55-1.63C-.26 21.26-.41 21 .69 21c3.33 0 4.42 3.7 2.02 6.83-.45.58-.48.66-.24.51.46-.29.93-.77.93-.95 0-.09.16-.5.35-.9.75-1.6 1.08-4.23.62-5.07-.45-.83-1.73-1.28-3.43-1.2-1.09.05-1.36-.15-.37-.28 1.22-.15 2.68.13 3.4.65 1.2.87 1.24 3.64.09 5.94-.5 1-.38.98.31-.07 1.31-1.97 1.59-3.21 1.07-4.75-.35-1.08-.36-1.14-.21-1.45.14-.3.14-.35-.04-.63-.11-.17-.22-.55-.26-.85-.03-.29-.09-.55-.13-.58-.03-.03-.24-.32-.45-.65-.92-1.4-2.67-2.81-3.82-3.06-.32-.07-.53-.18-.53-.26 0-.17.25-.17.86.02.27.08.52.15.56.15.19 0 1.3-2.55 1.63-3.75.81-2.91 1.02-3.34 2.13-4.47l.66-.68-.12-.47c-.07-.26-.42-1.09-.78-1.84-.77-1.65-.77-1.57-.06-2.46L5.45 0h4.12l1.59.54c2.11.71 2.48.86 3.9 1.61l1.22.64.22-.6c.12-.33.34-.75.49-.92l.28-.31.64.28c1.71.73 2.37 1.28 2.15 1.81l-.14.32.57.18c2.12.66 4.14 2.23 4.75 3.7.28.65.57 1.98.46 2.09-.1.1-.09.15-.4-.94-.99-3.43-4.85-5.48-8.63-4.59l-.49.11.07.37c.09.5.1.5.54.35.84-.29 3.81-.38 3.97-.13.03.05-.48.09-1.14.09-.67 0-1.59.07-2.08.16s-.97.17-1.06.18c-.22.03-2.43 2.36-3.3 3.47-2.14 2.75-3.33 5.33-3.99 8.68-.26 1.33-.42 1.62-.35.66.25-3.69 2.38-7.82 5.98-11.65.65-.69 1.18-1.32 1.18-1.41 0-.22-.3-1.22-.4-1.33-.11-.11-.7.35-.65.51.02.06-.05.19-.16.29-.12.1-.35.42-.52.71s-.35.53-.39.53c-.13 0-.09-.16.11-.42.11-.13.16-.3.12-.36-.04-.07-.35.2-.85.77-2.14 2.43-4.05 6.2-4.87 9.61-.22.94-.45 1.7-.51 1.7-.11 0-.1-.05.34-2.05.89-4.12 4.48-10.06 6.96-11.5.18-.11.31-.24.29-.3-.08-.25-2.46-1.29-4.58-2L8.62.1H7.37c-1.54 0-1.6.02-2.21.8-.55.7-.56.69.39 1.03.85.31 2.3.91 3.47 1.46 1.05.48 1.06.52.42 1.48-1.24 1.86-2.63 5.17-3.28 7.78-1.06 4.26-1.21 7.85-.28 6.65 1.06-1.37 1.46-1.42 2.79-.34.5.41.63.42.63.09 0-.46.31-1.78.66-2.85 2.42-7.3 10.25-12.01 12.52-7.53.64 1.25.77 2.28.62 5.08-.06 1.21-.17 3.55-.25 5.2-.2 4.05-.21 9.91-.01 9.98.16.06.14.23.4-3.69.23-3.43.38-4.14 1.38-6.58.26-.66.48-1.25.48-1.32 0-.06.09-.23.2-.37.15-.19.25-.61.39-1.62.19-1.36.41-2.01.41-1.2 0 .55-.27 2.35-.39 2.68l-.11.28.58-.03.57-.03.07-.5c.03-.27.11-.88.18-1.35.62-4.8-.19-11.38-1.57-12.59-.59-.53-1.03-.45-1.08.2-.01.12-.12.29-.24.39l-.23.17 1.01 1.99c1.51 3 1.87 4.71 1.63 7.93-.17 2.36-.32 2.15-.32-.44-.01-5.51-.84-7.15-4.55-9-1.51-.75-1.5-.72-.66-2.43.72-1.46.71-1.46 2.07-.76 2.8 1.45 3.22 1.95 3.89 4.61.5 2.02.78 6.85.5 8.56l-.07.39.31-.22c.24-.18.5-.25 1.28-.31.54-.04 1.27-.17 1.63-.27.36-.11 1.05-.31 1.54-.46 1.22-.36 1.04-.37 6.94.23 2.05.21 2.5 2.32 1.03 4.83l-.39.66.52.17c1.12.37 2.81 1.58 2.98 2.14.1.35.58.03.58-.38 0-.27.08-.49.25-.69.17-.21.25-.42.25-.68 0-1.31.83-1.63 1.07-.42l.08.39.4-.66.4-.67.65.06c.61.05.67.08 1.07.51.24.25.5.45.58.45s.22.16.31.35.2.35.24.35c.17 0 .29.58.15.76-.11.15-.09.2.08.34.12.1.17.22.12.29-.04.07-.09.3-.1.51-.05.69-.18.8-.87.8h-.6l.05.29c.05.21 0 .39-.17.64l-.24.35.43.17c1.45.55 2.73 3.23 2.21 4.6-.23.59-.28.58-1.13-.27-.7-.7-.72-.71-.63-.38.24.83-.01 2.23-.6 3.4l-.3.59.21.54c.13.35.3.59.49.7.83.49 1.01.99.74 2.02-.13.5-.13.66-.03.99.36 1.08-1.66 3-3.37 3.22-.65.08-.69.14-.59.91.06.5.13.63.59 1.12.29.31.72.81.96 1.11s.61.71.82.91c.57.55.36 1.59-.32 1.59-.05 0-.08.44-.07.98l.02.97-.83.03c-.72.02-.82.05-.72.17.17.2-.13.2-.7 0-.69-.24-1.03-.19-1.7.24-.42.28-.86.45-1.38.57-.9.2-1.04.26-2.23 1.04-1.16.77-1.39.8-2.94.41-2.21-.56-3.86-.13-5.56 1.46-.23.21-.28.22-.38.09Zm1.32-1.24c1.59-1.02 2.61-1.2 4.47-.78 1.72.39 1.96.36 3-.39.67-.48 1.38-.81 2.05-.95.53-.11 1.55-.53 1.55-.65 0-.02-.16.03-.35.11-.41.17-.45.17-.45.04 0-.14.78-.52.99-.48.25.04 1.25-.85 1.63-1.46.24-.38.33-.46.36-.33.02.1-.14.44-.35.75s-.39.6-.41.64c-.05.11.61.27 1.47.34l.84.07-.07-.91-.07-.91.41-.21c.42-.22.59-.81.2-.71-.08.02-.25.03-.37.03-.15-.01-.23.04-.23.14 0 .13-.03.14-.14.04-.09-.07-.47-.11-.98-.11-1.06.01-1.48-.03-1.56-.16-.04-.06-.49-.26-1-.43-.53-.19-.91-.37-.89-.44.05-.12.02-.13 1.12.19l.8.24.17-.22c.2-.25.68-.08.68.25 0 .23.19.24.27.01.15-.41.73-.45 1.27-.08.87.59.53-.05-.74-1.4-.73-.77-.82-.95-.9-1.83l-.07-.73-.7-.72c-1.1-1.13-1.18-1.39-.83-2.66.26-.93.47-1.33 1.21-2.34 1.21-1.62 1.59-2.75 1.59-4.69 0-1.1.1-1.48.24-.95.37 1.39-.2 3.95-1.22 5.46-.21.31-.42.62-.46.69-.12.2.88-.54 1.51-1.11 1.41-1.29 2.23-2.91 2.23-4.39 0-.74-.26-1.48-.51-1.48-.19 0-.19.01-.03.32.21.4.32 1.58.15 1.58-.06 0-.11-.16-.11-.35 0-.55-.35-1.41-.73-1.8-.47-.48-.54-.3-.18.42.49.95.63 1.94.41 2.75-.19.65-.26.49-.22-.47.03-.7 0-1.06-.13-1.46-.29-.92-.37-.99-1.04-.99h-.58l-.16.58c-.16.58-.77 1.56-.84 1.35-.02-.06.07-.29.21-.5.22-.33.45-1.04.46-1.39 0-.06-.11-.16-.24-.22-.21-.09-.24-.19-.3-.94-.11-1.37-.52-2.54-.96-2.78-.11-.06-.2-.17-.2-.24 0-.66-2.35-2.36-3.95-2.86-1.27-.39-3.86-.24-3.99.23-.14.53-.08.65.36.72 1.3.2 1.86.84 2.07 2.36.19 1.4-.34 1.79-1.17.84-.59-.66-1.02-.1-.8 1.05.15.79.77 2 1.07 2.06 1.18.27 1.56.44 2.36 1.09.64.52.7.42.19-.33-.65-.94-.18-.73.51.23l.21.28.45-.35c.26-.19.67-.4.93-.48.61-.17.76-.4.76-1.14 0-.66.16-.67.27-.02.06.38-.54 2.86-.69 2.86-.12 0-.09-.39.06-.97.08-.29.11-.53.07-.53-.39 0-1.61.71-1.61.93.01.07.18.52.39 1l.38.89.58.23c.87.36 1.44 1.04 1.45 1.73 0 .35-.13.26-.33-.23-.26-.63-.73-1-1.59-1.25-.85-.25-.96-.33-.78-.55.47-.57-1.96-2.67-3.42-2.96-.54-.11-.61-.15-.84-.54-.45-.77-.85-2.04-.83-2.6.02-.43-.01-.55-.24-.77-.15-.15-.27-.33-.27-.4-.01-.07-.09.03-.19.22-.31.58-.55.73-1.01.67-.38-.05-.4-.04-.39.21.01.39.14.69.23.54.08-.13.46-.17.46-.04 0 .04-.05.13-.12.2-.09.09-.08.15.05.24.23.18.5.85.36.93-.05.04-.21-.19-.37-.54-.15-.34-.3-.61-.35-.61-.13 0 .02.39.39 1.05.19.33.64 1.21 1 1.95.75 1.52 1.75 2.67 2.67 3.08.25.11.5.3.57.42.06.12.3.38.52.58.43.39.77 1.01.78 1.4 0 .13.17.54.38.9.2.37.51.93.67 1.26.39.76.73.98 1.04.67.22-.22.41-.28.41-.12 0 .05-.1.15-.22.23l-.23.15.32.07c.42.09.73.49.73.92 0 .2.05.33.11.32.22-.05.52.61.53 1.16.01.89-.79 1.79-1.83 2.06-.25.07-.54.14-.64.17-.23.06-.08.27.37.51.43.22 1.69.21 2.14-.02.51-.26.37-.36-.23-.15-.57.2-1.05.25-1.05.11 0-.04.33-.18.74-.3.76-.22 1.06-.42 1.06-.69 0-.11-.08-.08-.3.11-.3.25-1.14.56-1.52.56-.36 0-.17-.2.33-.34.29-.09.72-.27.96-.41l.44-.26-.07-.47c-.06-.47-.06-.47.31-.61.2-.07.39-.11.41-.08.06.06-.36.47-.48.47-.04 0-.03.11.03.24.08.16.17.22.3.19.43-.12.45.93.02 1.29-.15.12-.16.1-.09-.12.2-.63.13-.77-.07-.16-.3.91-.63 1.11-1.83 1.11-.61 0-.8.03-.77.13.17.44-1.37-.91-1.57-1.38-.11-.28-.3-.41-.3-.22 0 .62.25 1.22.55 1.32.17.06.47.22.66.36.56.42 1.26.74 2 .9 2.28.52.92 2.52-3.01 4.43l-1.15.56h-1.2c-.98-.01-1.48-.07-2.73-.34l-1.53-.34-.59.3c-.54.28-.7.31-.7.13 0-.04.18-.15.4-.26.44-.21.52-.36.17-.34-.37.03-.49.01-.42-.1.03-.05.16-.1.28-.1.19 0 .17-.03-.13-.29-.46-.38-.6-.26-.6.48 0 .32-.11.94-.25 1.41-.14.46-.25.87-.25.92 0 .1-.01.11.93-.5Zm6.74-1.47c3.64-1.37 5.97-3.76 4.06-4.15-.86-.18-1.51-.45-2.17-.9-.82-.56-.88-.51-.42.38.9 1.76-.32 2.23-3.13 1.19-.42-.15-.58-.17-.78-.08-.62.28-1.73-.06-1.73-.54 0-.4-.49-.21-1.29.51-1.56 1.4-1.2 2.81.86 3.3 2.45.58 3.62.66 4.6.29Zm-3.17-.35c-.79-.09-2.21-.37-2.29-.45-.14-.15.18-.17.82-.06 1.88.33 3.15.39 3.69.16.11-.04.18-.03.18.04 0 .29-1.22.44-2.4.31Zm-5.15-1.5c.12-.05.38-.27.56-.5.78-.97.83-1.01 1.21-1.02.3-.01.46-.1.8-.45.23-.23.4-.43.38-.43-.15.01-1.61.5-1.92.65-.22.11-.42.3-.49.48-.47 1.13-2.07 1.16-2.54.04-.12-.28-.26-.37-1.12-.69-.54-.21-1.1-.49-1.25-.63-.34-.31-.33-.32-.52.09-.24.5-.15.59 1.02 1.11 1.13.5 1.42.68 2.07 1.23.42.35 1.07.4 1.8.12Zm-.06-.96c.11-.14.26-.4.32-.58.12-.34.75-.67 1.91-1 .67-.19.98-.51.7-.72-.14-.1-.14-.14-.03-.28.1-.11.12-.32.08-.67-.08-.69.15-.61.27.09.06.32.15.52.23.52.15 0 .16.04.04.28-.05.09-.16.34-.25.56l-.17.38.41-.32c.56-.44.55-.84-.02-1.83-.23-.4-.54-.94-.68-1.22-.14-.27-.34-.62-.44-.77-.2-.31-.24-1.17-.06-1.63.13-.35.21-.29-.85-.6-1.84-.54-2.82-.47-3.59.25-.45.42-.64.52-1.68.84-1.08.34-1.22.41-1.78.92-.75.7-.75.72.05 1.15l.65.34.33-.39c.48-.56.74-.44.67.32l-.02.23.4-.26c1.13-.74 1.11.09-.02 1.2-1.17 1.15-1.13 1.27.7 1.98.86.34 1.1.47 1.12.64.1.66 1.32 1.07 1.71.57Zm9.14-1.13.45-.2-.28-.91c-.16-.5-.34-1.27-.41-1.7-.13-.92-.1-.91-.75-.45-.42.3-.48.39-.46.65.05.4-.13.38-.24-.02-.09-.32-.11-.33-.73-.36l-.64-.03.06.38c.04.21.07.52.07.7 0 .39.66.59.96.29.19-.2.38-.11.31.15-.03.11-.02.17.03.14.04-.03.19.04.32.15.14.11.27.17.3.15.14-.15.43.41.42.81-.01.5-.01.51.59.25Zm-4.51-1.18c.09-.36.54-.76.78-.7.08.03.23.08.33.12.2.08.17-.87-.04-1.27-.28-.54-1.23-.21-1.33.46-.21 1.37-.01 2.43.26 1.39Zm-7.58-.78c.04-.13.02-.16-.09-.11-.08.03-.15.02-.15-.02.01-.17.18-.32.75-.62.75-.4 3.3-2.07 3.46-2.26.13-.16.29-.19.29-.05 0 .13-1.05.94-2.25 1.76-.55.37-.91.64-.8.6s.4-.15.65-.25c.61-.24 1.1-.34 1.1-.22 0 .05-.51.3-1.12.55-.62.25-1.3.52-1.52.62-.36.15-.38.15-.32 0Zm7.4-1.43.27-.2-.33-.25c-.41-.31-.72-.41-1.04-.33-.33.09-.31.19.18.93l.41.64.12-.29c.07-.16.25-.38.39-.5Zm6.92.1c.64-.33 1.05-.83 1.11-1.36.07-.55-.04-1.07-.17-.86-.06.09-.05.19 0 .24.51.51-.72 1.89-1.79 2.03-.57.08-.58-.12-.01-.26.81-.21 1.82-1.23 1.51-1.54-.07-.07-.07-.15.02-.25.09-.12.04-.11-.22.03-.51.26-1.41.55-1.71.55-.33 0-.6 1.37-.32 1.64.13.14 1.17-.01 1.58-.22Zm-20.65.01c.24-.14.33-.15.48-.06.28.18.73-.03 1.02-.46.64-.97 2.34-2.58 3.19-3.01.65-.33.92-.24-2.33-.76L21 36.18l-1.88.92c-2.72 1.34-3.81 1.99-3.58 2.16.26.19 3.51 1.3 5.04 1.73.02.01.17-.07.33-.16Zm3.15-1.46c.54-.49.98-.8 1.35-.94.35-.13.55-.27.57-.39.02-.1.14-.3.25-.43l.22-.23-.25.07c-.79.24-2.04 1.26-3.09 2.53-.7.83-.78 1.01-.23.48.2-.19.73-.69 1.18-1.09Zm13.89 1.33c.04-.06.29-.23.57-.39.27-.16.45-.32.39-.35-.13-.08.01-.48.29-.83.21-.27.15-.46-.33-1-.16-.18-.22-.46-.29-1.3-.1-1.22-.09-1.19-.37-1.01-.25.15-.54.02-.59-.28-.07-.37-.22-.38-.22-.02 0 .41-.29.6-.55.38-.35-.29.05-.96.51-.87.13.02.25-.01.27-.06.07-.21.27.05.27.34 0 .18.04.28.1.24.16-.1.12-.82-.06-.99-.14-.14-.18-.14-.41.01-.2.13-.29.14-.44.05-.13-.08-.19-.09-.19-.01 0 .17-.52.06-.64-.13-.23-.37.35-.78.6-.44.1.15.12.15.18.01.06-.18.47-.2.64-.03.09.09.12-.05.12-.63 0-.73-.01-.75-.35-1.02-.19-.15-.35-.34-.35-.42 0-.21.1-.19.37.07l.23.21v-.21c0-.17-.17-.29-.84-.61-1.35-.63-2.16-1.51-2.32-2.51l-.07-.41-.15.31c-.27.55-.92.63-.92.12 0-.08-.13.05-.3.29-.45.67-.42.74.48.87 1.23.19 1.82 1.34.77 1.54-.14.02-.21.12-.23.36l-.03.33.25-.16c.5-.33 1.09.16.79.64-.14.22-.64.27-.78.07-.1-.12-.14-.03-.22.5-.07.52-.07.64.04.6.07-.03.13.01.13.1 0 .12-.07.14-.29.09-.37-.08-.37-.08-.46 1.12-.07 1.01-.07 1.01.16 1.05.32.04.39.52.1.67-.11.06-.3.26-.42.43-.12.18-.16.27-.09.2.28-.25.8.01.8.4 0 .19-.54.58-.81.58-.29 0-.44-.27-.3-.56.06-.14.07-.23.01-.19-.14.09-.3.74-.3 1.23 0 .44.07.49.65.43.43-.04.88.12 1.52.56.86.59 1.83.7 1.83.21 0-.26.22-.58.41-.58.12 0 .12.17-.01.25-.17.1-.11.63.08.74.22.13.69.14.77.01Zm-2.58-1.11c-.43-.7-.42-.74.13-.83.9-.14 1.09.08.78.89-.27.71-.43.7-.91-.06Zm5.7-.86c.84-.33 1.17-.68.56-.61-.52.07-.87-.13-.8-.48.05-.27-.07-.22-.61.24-.27.24-.3.31-.19.41.24.19.48.03.41-.28l-.05-.26.2.24c.12.13.21.29.21.37 0 .31-.78.46-1 .19-.2-.24-.23-.1-.05.24.18.36.27.35 1.32-.06Zm-2.85-.22c.04-.27.02-.28-.18-.19-.32.15-.67-.07-.62-.37.04-.21.02-.2-.27.11-.63.66-1.4.36-1.33-.53.02-.32.08-.41.35-.53.17-.08.34-.25.37-.36.16-.61.96-.16.96.54 0 .37.01.38.29.34.29-.04.91.47.91.75 0 .07.05.13.1.13.16 0 .11.27-.06.34-.39.15-.56.07-.52-.23Zm8.33-.1c.73-.34 1.29-.8 1.67-1.4.42-.67.34-.69-.3-.09-.34.31-1.01.76-1.6 1.07-1.59.83-1.4 1.17.23.42Zm-38.41.12c-.18-.54-.37-.99-.51-1.17-.17-.24-.17-.2.05.51.12.38-.03.57-.24.29-.29-.4-.38-1.15-.19-1.57.22-.48.35-.5.35-.06 0 .21.08.41.19.51s.25.31.31.47c.16.37.18.34.44-.43.12-.34.27-.64.35-.66.15-.05.14.09-.13 1.13-.09.33-.18.72-.21.88-.06.3-.32.37-.41.1Zm36.82-.44c1.28-.39 3.6-1.95 3.4-2.28-.03-.04.04-.42.16-.85.24-.94.17-1.19-.48-1.66-.43-.31-.74-.74-.74-1.05 0-.22-.01-.22-.86.64-.72.71-2.08 1.71-2.53 1.86-.18.05-.78 1.61-.67 1.72.09.09 1.07-.17 1.62-.43.73-.34 1.55-1.12 1.9-1.79.46-.88.63-.68.19.22-.51 1.01-1.82 1.95-3.12 2.24-.69.16-.71.42-.04.47 1.82.13 3.81-1.53 3.81-3.2 0-.41.15-.51.25-.17.5 1.57-1.65 3.55-4.04 3.72l-.35.02.33.38c.39.44.31.42 1.17.16ZM1.4 36.58c0-.08.11-.2.25-.26.25-.11.25-.13.1-.41-.1-.2-.12-.32-.04-.36.06-.04.08-.13.05-.2-.07-.2.17-.66.34-.63.19.04.82.97.78 1.16-.04.2-.28.28-.28.1 0-.08-.06-.23-.14-.33-.13-.18-.14-.18-.09.08.05.24.02.28-.13.25-.13-.02-.19.03-.19.16 0 .12-.14.28-.32.39-.27.15-.33.16-.33.05Zm10.8-.06c0-.11.09-.44.19-.75l.2-.56-.33-.21c-.45-.27-.46-.27-1.47.27-1.05.55-1.03.5-.36.9l.52.32.06-.36c.12-.69.44-.68.79.05.26.54.4.66.4.34Zm4.94-.19c.03-.07.17-.13.31-.13.3 0 .85-.26.85-.4 0-.06-.11-.1-.25-.1-.13 0-.28-.07-.33-.17-.17-.29-1.72.49-1.72.87 0 .12 1.09.06 1.14-.07Zm16.83-.28c-.35-.34-.32-1.35.03-1.35.29 0 .8.48.8.76 0 .47-.56.87-.83.59ZM6.46 34.61c-.04-.58-.11-1.53-.16-2.11s-.1-1.97-.11-3.1c-.02-1.85-.03-1.95-.09-1-.04.58-.12 1.39-.18 1.8-.13.91 0 4.96.18 5.54.24.78.44.14.36-1.13Zm23.74 1c0-.16 1.39-1.07 2.28-1.5.82-.4 1.14-.9.72-1.16-.23-.14-3.52 1.68-3.44 1.9.03.07-.02.25-.11.39s-.14.3-.1.36c.08.13.65.13.65.01Zm-13.25-.31.7-.29.17.21c.13.14.18.16.18.06 0-.35 3.15-2.3 6.12-3.79.65-.33 1.18-.61 1.18-.64 0-.11-2.79-1.75-2.97-1.75-.02 0-.03.37-.02.82.02.75 0 .83-.22 1.01-.32.26-2.33 1.28-2.89 1.47-.25.08-1.01.45-1.7.82-.69.36-1.74.9-2.33 1.2l-1.09.54.79.31c.98.39 1.21.39 2.08.03Zm2-.3c.08 0 .15.09.15.21 0 .19.02.19.5-.08.3-.17.5-.35.5-.45s.06-.18.14-.18c.07 0 .3-.11.5-.25.21-.14.42-.23.47-.2.12.08 1.3-.55 1.37-.74.08-.2.42-.53.42-.41 0 .07.06.07.2 0 .25-.13.29-.66.04-.56-.09.03-.64.34-1.22.68-.59.34-1.53.87-2.09 1.19-1.27.71-1.63.96-1.63 1.14 0 .09.09.05.25-.1.13-.14.31-.25.4-.25Zm-9.01.24c.21-.08.21-.71.01-2.59-.08-.77-.19-2.73-.25-4.35-.23-7.17-.52-7.34-.42-.25.03 2.37.35 7.25.47 7.25.02 0 .1-.03.19-.06Zm1.11-.51.55-.27v-.66c0-.41.05-.73.15-.86.27-.39.32-.95.18-2.14-.31-2.84-.26-8.09.09-9.15.17-.51.43-.61.36-.14-.03.19-.02.59.03.89s.11.81.15 1.13c.11 1.1.31.25.47-2.03.02-.29.05-.34.22-.32.3.06.35.19.36 1.02.01.41.04 1.09.08 1.5l.06.75.08-1.24c.09-1.39.1-1.45.38-1.31.18.1.19.23.19 2.05 0 1.52.04 2.16.2 2.97.26 1.39.52 3.29.46 3.36-.13.13-.22-.16-.43-1.46l-.22-1.37.06 1.6c.06 1.82.04 1.71.4 1.56.67-.28.66-.22.34-1.82-.51-2.52-.63-5.65-.25-6.64.11-.28.26-.16.2.18-.07.39-.18 3.56-.12 3.42.03-.05.1-.57.16-1.15.18-1.75.32-2.8.39-2.8.21 0 .44.99.62 2.68.11 1.03.23 2.1.28 2.37l.08.5.07-.55c.15-1.16.11-2.15-.17-3.75-.33-1.85-.27-1.71-.66-1.51-1.84.96-3.4-1.13-2.52-3.36 1.05-2.66 3.34-4.12 4.82-3.07 1.18.84.59 3.93-1.05 5.48-.36.35-.5.76-.21.65.16-.07.21.16.06.31-.05.06-.06.59-.03 1.2l.05 1.1.18-1.25c.17-1.13.58-2.6.8-2.85.16-.17.09.33-.15 1.18-.32 1.09-.72 4.35-.92 7.34l-.06 1.02.61-.3.61-.31v-1.06c0-.59.03-1.25.05-1.47l.05-.4-.14.37c-.08.21-.2.75-.26 1.2-.19 1.42-.2 1.48-.35 1.48-.29 0-.03-3.29.37-4.75.13-.47.13-.47-.01-1.03-.09-.35-.08-.51.08-.97.11-.29.22-.94.26-1.42.07-1 .12-1.23.26-1.23.05 0 .07.39.03.99l-.07.99.37-.11c.42-.14.43-.22.26-2.27-.05-.63-.08-1.16-.05-1.18.15-.16.3.62.34 1.88.05 1.18.09 1.45.21 1.48.28.05.25-1.8-.04-3.07-.28-1.21-.5-2.7-.42-2.79.14-.14.25.2.4 1.23.27 1.85.34 1.87.35.06.01-1.47-.01-1.63-.15-1.57-.22.09-1.84-.24-1.84-.37 0-.06.15-.07.37-.03 1.15.19 1.55.2 1.52.01-.12-.58-2.18-.72-3.24-.22-.85.41-.96.3-.19-.18.92-.56 3.1-.46 3.58.18.24.33.3 3.72.09 5.67l-.11 1.05.33.3.33.31.07-.69c.07-.78 0-1.02-.1-.33-.04.25-.12.46-.18.46-.16 0 .01-1.1.23-1.53.28-.52.3-4.06.03-5-1.07-3.83-7.13-.14-8.27 5.04-.59 2.66-.61 2.92-.62 8.09-.01 5.43 0 5.18-.15 5.03-.24-.24-.24-9.46.01-10.63.12-.58.28-1.46.35-1.95.4-2.66 2.6-5.91 4.65-6.88 2.78-1.32 4.48-.24 4.51 2.87.01 1.05.05.98.24-.47.04-.29.1-.45.17-.41.12.08.04 1.11-.18 2.24-.28 1.41-.57 5.11-.42 5.35.07.11-.06 2.26-.22 3.6-.18 1.6-.16 1.73.25 1.81.47.08.45.13.55-1.18.05-.64.13-1.33.19-1.54.11-.43.34-4.12.25-4.25-.02-.04.04-.97.15-2.06.45-4.47.36-5.46-.63-6.9-2-2.9-6.53-.87-8.98 4.02-.96 1.9-1.28 3.21-1.53 6.1-.16 1.89-.35 2.56-.35 1.25 0-5.97 2.71-11.05 6.75-12.66.79-.32.15-.24-.86.1-3.23 1.1-6.6 6.61-6.48 10.62.02.46.03.38.19-.79.07-.48.16-.9.21-.93.12-.07.12.01-.12 2.55-.26 2.78.03 12.31.38 12.31.01 0 .27-.12.58-.27Zm2.24-.05c.02.26 3.55-1.35 5.13-2.34.38-.24.52-.83.26-1.09-.04-.05-5.23 2.59-5.44 2.76-.08.07-.14.28-.13.53 0 .32.02.37.09.21.05-.11.09-.14.09-.07Zm15.3.12c.46-.08.79-.21 1.21-.5.31-.21 1.01-.61 1.55-.89l.98-.49-.39-.11c-2.81-.74-3.83-.71-5.44.2-.74.42-1.57.88-1.85 1.02-.49.25-.49.26-.25.35.54.21 1.06.24 1.2.08.24-.3.8-.16.8.2 0 .28.94.34 2.19.14Zm-19.68-.78c-.48-1.87-.81-4.18-.81-5.79 0-1.67.15-1.63.23.05.07 1.44.23 2.72.55 4.37.32 1.64.34 1.75.23 1.75-.06 0-.15-.17-.2-.38Zm1.74-.04c-.19-.92-.34-7.28-.16-7.28.13 0 .2 1.06.26 4.48.06 2.77.04 3.4-.1 2.8Zm24.12.15c-.13-.12-.07-.4.11-.56.26-.23.52-.22.52.03 0 .11.06.2.14.2.2 0 .15-.63-.07-.85-.1-.09-.16-.24-.13-.32s.06-.16.06-.18c0-.14.42-.25.6-.15.21.11.28.64.1.75-.05.03-.1.11-.1.16 0 .06.04.08.09.05.18-.12.33.21.19.43-.24.38-1.27.68-1.51.44ZM15.79 32.3c1.44-.74 2.61-1.38 2.61-1.42 0-.03-.34-.25-.77-.48l-.76-.41-1.16.61c-.64.33-1.66.86-2.27 1.17-1.04.52-1.12.59-1.25.97l-.14.41.45.27c.58.34.29.43 3.29-1.12Zm8.15.18c.14-.31.15-.32.21-.1.09.27.05.27.65-.03.46-.23.78-.8.57-1.01-.2-.2-1.67.78-1.67 1.11 0 .44.06.44.24.03Zm-3.49-1.02c.69-.36 1.33-.7 1.41-.76.24-.21.15-.33-.1-.13-.3.24-1.55.77-1.62.7-.12-.12.08-.25.95-.63l.9-.39-.02-.42c-.02-.52.12-.54-1.32.2l-1.2.62-.05.59c-.03.34-.11.61-.18.64-.11.03-.18.22-.08.22.02 0 .61-.29 1.31-.64Zm-8-.38c-.07-.95.09-.92.2.04.04.32.09.58.11.58.1 0 1.43-.7 1.47-.77.06-.11-.2-4.75-.32-5.58-.07-.5-.08-.09-.03 1.45.11 3.44.09 3.83-.17 3.54-.05-.05-.14-1.71-.21-3.69s-.15-3.85-.2-4.15l-.07-.55-.02.61c-.01.54-.2 1.93-.37 2.63-.1.47-.54-.93-.54-1.78 0-.14-.05-.33-.11-.41-.28-.41-.03 2.32.33 3.54l.35 1.19.06-.63c.04-.35.07-.86.07-1.14 0-.61.09-.96.23-.96.06 0 .07.5.03 1.48-.12 2.65-.25 2.75-.84.7l-.41-1.43v.88c-.01.63.02.86.11.85.15-.03.26.66.27 1.67 0 .49-.02.65-.09.55-.05-.08-.1-.3-.1-.49s-.02-.32-.05-.29c-.09.09.18 2.98.27 2.98.05 0 .07-.36.03-.82Zm6.62-.1c-.03-.21.01-.39.1-.5.14-.16.13-.18-.11-.28-.15-.05-.37-.15-.49-.21-.21-.1-.21-.09-.03.05.1.08.24.17.3.19s.08.08.04.12c-.11.11-1.38-.53-1.38-.69 0-.38.27-.36 1.18.09l.91.44 1.18-.58 1.17-.58-.46-.11c-.26-.07-.91-.17-1.46-.23l-.99-.11-.92.47c-1.13.56-1.13.62-.01 1.24.71.39.86.51.88.74.02.15.06.27.09.27s.03-.15 0-.32Zm13.49-.9c-.01-.62.03-.78.23-1.05.21-.28.24-.43.25-1.3.01-.95.02-.98.24-1.01.14-.02.21-.09.18-.15-.36-.81-.57-1.44-.65-1.88-.08-.5-.09-.46-.1.51-.01.58-.08 1.48-.17 2-.22 1.4-.29 2.8-.14 3.24.16.49.16.47.16-.36Zm-7.42-.2c.02-.18.1-.82.16-1.43.29-2.9 1.11-5.24 2.62-7.47.76-1.14.76-1.13.39-1.32-.64-.34-.94-.16-1.66.98-1.4 2.23-2.19 4.9-2.29 7.75l-.05 1.35.32.22c.42.3.45.3.51-.08Zm-9.21.15c.03-.05-.04-.54-.14-1.09-.1-.56-.23-1.6-.29-2.3-.07-.71-.13-1.3-.15-1.32-.11-.12-.12 1.79-.01 2.53.31 1.99.43 2.45.59 2.18Zm.57-.72c0-.25-.11-1.2-.24-2.11s-.27-2-.31-2.42c-.13-1.48-.23-1.39-.24.22-.01 1.39.14 2.87.45 4.57.09.5.34.31.34-.26Zm-12.02.06c.23-.28.25-.65.03-.72-.24-.07-.18-.27.07-.24.4.04.39-.03-.03-.42-.44-.41-.45-.41-.71-.24-.5.32-1.02.86-1.08 1.1-.04.14-.07.28-.09.32-.01.04.27.12.63.19.9.16 1.06.16 1.18.01Zm19.51-2.42c.15-3.64.79-6.11 2.1-8.05l.3-.44-.21-.23c-.25-.27-.16-.44.1-.2.1.1.28.17.4.17.24 0 .81.45.7.56-.04.04-.13.02-.2-.03-.43-.33-.87.14-1.56 1.67-.56 1.24-1.33 4.26-1.19 4.63.03.06.06.03.06-.07.03-.77 1.17-3.37 2.08-4.74.81-1.22.91-1.26 2.06-.77.22.09-.06-.54-.49-1.12-.24-.31-1.42-.82-1.63-.69-.05.03-.14-.01-.21-.09-.46-.56-1.26.56-1.85 2.6-.65 2.25-1.23 8.91-.8 9.21.25.18.23.37.34-2.41ZM5.98 25.71c.09-.05.11-.29.06-.95l-.07-.88-.27.73c-.34.94-.52 1.29-1.06 2.06l-.42.62.33.25.33.26-.03-.28c-.05-.37.06-1.02.16-1.02.05 0 .09.33.09.74 0 .47.05.77.13.84.1.08.12-.12.09-.99-.03-.66 0-1.09.05-1.09.06 0 .13.5.16 1.12.09 1.77.21 1.84.27.15.04-1.04.09-1.5.18-1.56Zm16.36-.83c.02-2.33.12-5.18.25-7.28.41-6.48.34-7.72-.53-9.08-2.55-3.97-10.31 1.63-12.11 8.74-.52 2.03-.32 2.55.29.79 1.96-5.58 6.42-8.73 9.88-6.99 2.05 1.03 2.62 3.07 2.14 7.64-.09.85-.16 2.25-.16 3.1 0 1.71-.17 6.06-.25 6.58-.05.29-.04.32.19.32h.26zm-3.52 3.4c.25-.09.28-.15.28-.56 0-.57.09-.92.23-.92.06 0 .08.25.04.69-.04.54-.03.71.08.75.17.06.22-.18.29-1.44l.05-.85-.23.29c-.38.46-.5.27-.42-.71.08-1.01.12-1.13.37-1.13.16 0 .18.07.13.68l-.05.67.18-.28c.16-.25.41-.32.36-.1-.14.67-.25 2.93-.15 2.93.07 0 .21-1.24.49-4.43l.06-.68-.35.35c-.53.53-1.67.68-1.93.26-.13-.2-.23.02-.35.7-.16.96-.08 1.07.21.27.22-.63.59-.98.46-.44-.28 1.14-.43 4.21-.19 4.12.09-.04.29-.12.44-.17ZM0 27.96c0-.18.12-.33.43-.54 2.03-1.41 2.12-3.36.15-3.35-.42.01-.58-.03-.58-.13 0-.37 1.42-.23 1.9.19l.24.22-.15-.25c-.24-.37-.66-.54-1.37-.55-.67 0-.86-.18-.32-.3 2.82-.62 2.92 3.05.13 4.71l-.43.25zm49.95-.14c.21-1.26-1.17-3.47-2.4-3.83-.49-.14-3.08-.2-3.2-.07-.03.03.01.45.1.93.08.48.15 1.05.15 1.25 0 .26.05.4.16.44.22.08.31-.01.16-.16s-.16-.38-.01-.38c.05 0 .15.14.21.3.22.64 1.11.47 1.07-.2-.05-.66.13-.68.54-.05.63.93 1.27.76.88-.23-.12-.29-.16-.52-.11-.52.15 0 .43.48.55.98.1.36.23.56.65.92l.53.45-.06-.3c-.04-.16-.1-.41-.13-.54-.05-.18-.04-.23.07-.19.16.05.37.68.38 1.14.02.58.36.62.46.06ZM25.4 25.84c0-1.15 1.67-5.54 2.1-5.54.14 0 .16-.04-.5 1.31-.38.8-.76 1.81-1.06 2.84-.5 1.72-.54 1.84-.54 1.39Zm5.19-1.21c.17-.36 1.03-1.53 1.13-1.53.15 0 .08.15-.42.9-.28.41-.47.76-.42.78.33.11 1.59-.87 1.98-1.53.24-.42.53-.63.41-.31-.44 1.14.49 1.43 1.02.31.25-.54.34-.56.63-.1.52.81 1.15.52.68-.31-.48-.86-.15-.72.43.19.93 1.43 1.33 1.58 1.24.46-.1-1.17-.54-1.89-1.28-2.09-.63-.17-2.35-.15-2.72.03-.18.09-.54.26-.81.38-1.15.52-3 3.09-2.22 3.09.15 0 .27-.09.35-.27Zm-11.05-.97c.96-.4 1.1-1.47.26-2.04-1.07-.73-2.46.8-1.59 1.74.41.45.78.53 1.33.3Zm25.99-1.2c.23-.15 1.59-.46 2.02-.46.18 0 .25-.05.25-.2 0-.3-2.15.07-2.35.4-.04.06-.11.08-.16.05-.49-.31 1.03-.84 2.83-1 .51-.05.82-.13.9-.23.12-.13.08-.15-.27-.09-1.75.27-2.16.3-2.26.2-.19-.19-.01-.31.39-.27.2.03.57.01.82-.04.25-.06.35-.1.23-.11-.43-.02-.23-.19.3-.26.79-.1.86-.13.8-.36-.08-.31-1.14-.1-2.72.53-.27.1-.35.1-.38 0a.23.23 0 0 0-.19-.12c-.45 0 .49-.7 1.62-1.21.43-.19.62-.34.58-.41-.06-.09-.09-.09-.12 0-.07.22-.2.12-.27-.19l-.07-.32-.24.31c-.28.35-1.53 1.37-1.6 1.3-.02-.03.09-.23.25-.45.34-.46.61-.97.61-1.13 0-.21-.16-.01-.67.82-.28.46-.74 1.11-1.02 1.46-.59.72-.59.7-.26 1.4.26.57.52.67.98.38Zm-38.11-.94c.09-.15.44-.65.77-1.11.72-.98.72-.93-.08-1.48-1.01-.69-1.24-.58-2.34 1.07-.48.71-.5.67.46 1.27.97.61.97.61 1.19.25Zm8.38-.3c.59-.27 1.62-1.39 2.03-2.19 2.04-4.12-1.38-5.68-3.78-1.73-1.52 2.51-.45 4.91 1.75 3.92Zm18.96-.37c.17-.03.21-2.12.05-2.28-.26-.27-.74.41-.78 1.1-.01.24-.13.68-.26.97l-.24.52.61-.15c.34-.09.62-.16.62-.16Zm-20.91-.39c-.77-1.84 1.49-5.37 3.28-5.13.49.07.77.31.58.49-.1.11-.14.1-.22-.04-.16-.29-.86-.24-1.4.1-1.47.94-2.58 3.51-2 4.61.08.13.08.22.01.26-.06.04-.17-.09-.25-.29Zm.53-.07c-.8-.79.26-3.41 1.65-4.08 1.55-.75 2.16.74 1.08 2.63-.88 1.53-2.04 2.15-2.73 1.45Zm1.38-.31c1.08-.73 1.96-2.77 1.48-3.46-.52-.74-2.12.43-2.65 1.94-.55 1.55.02 2.28 1.17 1.52ZM5 17.49c0-.97.83-5.07 1.3-6.44.37-1.07.14-.67-.6 1.02-.92 2.12-1.14 2.71-1.4 3.72l-.2.81.37.64c.4.67.53.73.53.25Zm19.5.21c0-.14.13-.89.29-1.66.4-1.93.54-3.43.5-5.33-.04-1.54-.01-1.82.17-1.43.15.34.16 3.24.01 4.52-.23 1.89-.97 4.89-.97 3.9ZM4.27 14.9c.34-1.16 1.54-3.85 2.75-6.18.55-1.06.97-1.99.94-2.07-.06-.18-1.46-.85-1.77-.85-.69 0-1.99 1.87-2.45 3.52-.6 2.18-.89 3-1.44 4.09l-.58 1.17.62.45c.33.25.81.65 1.06.9l.45.45.09-.31c.04-.18.2-.7.33-1.17Zm19.66-.25c.18-3.4.48-5.36.47-3.12-.01 1.02-.33 3.93-.45 4.05-.04.04-.05-.38-.02-.93Zm-20.19-1.5c.28-1.19 2.45-5.72 3-6.24.38-.37.51-.26.15.12-.28.31-1.58 2.89-2.35 4.7-.65 1.51-.94 2.03-.8 1.42Zm28.97-2.76c-.91-.46-1.37-1.5-1.35-3.04.05-3.89 5.1-8.7 6.75-6.42.32.44.38 1.16.12 1.25-.09.02-.11-.05-.07-.26.04-.18 0-.41-.1-.6-.94-1.81-3.9-.02-5.69 3.45-1.74 3.38-.21 6.48 2.56 5.2l.49-.22h-.89c-1.51 0-2.07-.7-2.08-2.6 0-2.65 1.59-5.01 3.79-5.6.74-.2 1.38-.12 1.44.19.03.15.01.16-.19.06-.57-.31-1.98.17-2.91.99-2.18 1.93-2.52 6.29-.52 6.67 1.62.3 3.34-1.43 3.34-3.36 0-1.39-1.58-1.38-2.08.02-.16.47-.32.63-.32.33 0-1.68 2.18-3.04 2.85-1.76 1.32 2.55-2.65 6.96-5.14 5.7ZM8.44 5.96c.17-.32.18-.38.04-.49-.08-.06-.5-.39-.93-.72-.42-.32-.72-.61-.66-.63.14-.05.76.35 1.41.89l.46.37.22-.34.22-.34-.47-.3c-.69-.44-3.52-1.84-3.59-1.77-.1.09.17.51.55.85.27.25.31.32.15.27-.22-.06-.22-.05.05.78l.26.83.67.28c.36.15.81.37 1 .5.39.27.38.28.62-.18Zm8.16.25c0-.71 4.05-1.69 5.43-1.3.65.18.41.24-.81.21-1.41-.04-2.37.16-3.69.78-.95.44-.93.44-.93.31Zm7.39-1.98C23.5 3.26 23.41 3 23.6 3c.17 0 .11-.25-.15-.6-.16-.21-.21-.36-.15-.38.1-.04.23.1.52.52.08.12.68-.4.68-.58S22.22.5 21.9.5c-.09 0-.94 1.59-.88 1.65.02.02.27.13.57.24 1.04.42 2.2 1.48 1.9 1.75-.08.08-.13.08-.16-.01-.21-.56-2.11-1.88-2.43-1.68-.43.27-.17.57.95 1.1.62.3 1.46.79 1.86 1.1.41.3.75.55.76.55s-.21-.43-.48-.97ZM9.55 4.01c-.25-.25-4.63-2.07-4.73-1.96-.03.02.17.14.44.26 1.09.48 2.53 1.19 3.29 1.62.7.4.82.44.95.32.09-.1.11-.18.05-.24Zm8.19-.8c.33-.06.9-.11 1.28-.11 1.23 0 1.02-.44-.58-1.21-1.25-.6-1.2-.6-1.49.04-.44.92-.42 1.56.04 1.43.09-.03.43-.1.75-.15Z"/></svg>