<svg xmlns="http://www.w3.org/2000/svg" width="51" height="51" viewBox="0 0 51 51"><path fill="#fff" fill-rule="evenodd" stroke="#fff" stroke-width=".717" d="M14.5 36.43c-3.39-2.27-3.78-2.45-5.47-2.59l-.83-.07.02-1.86.03-1.86 1.15.02c2.06.03 3.42.55 5.95 2.27l1.4.95.07-.47c.03-.26.07-.92.07-1.48l.01-1.01-2.54-1.66c-3.41-2.24-3.66-2.36-5.39-2.52l-.77-.07v-1.79c0-2.09-.09-1.95 1.25-1.92 1.9.04 3.21.54 5.78 2.22.85.56 1.57 1.01 1.6 1.01.16 0 .08-2.98-.08-3.04-.08-.03-1.13-.73-2.34-1.55-3.21-2.19-3.53-2.34-5.34-2.49l-.82-.07-.03-1.86-.02-1.87.32-.06c.44-.08 2.07.08 2.88.29.97.24 2.48 1.02 4.05 2.08l1.4.95.03-1.74c.02-1.66.03-1.74.22-1.74.11 0 1.22.69 2.47 1.54 3.12 2.1 3.69 2.36 5.18 2.36 1.58 0 2.47-.4 3.91-1.72 2.21-2.03 3.67-2.62 6.54-2.61 2.64 0 4.25.64 7.37 2.94l.53.4v2.15c0 1.77-.03 2.16-.14 2.2-.09.03-1.1-.58-2.41-1.45-3.29-2.19-4-2.49-5.7-2.38-1.52.1-2.29.46-3.75 1.76-2.14 1.92-3.69 2.54-6.4 2.55-2.37.01-3.59-.43-6.08-2.19-.68-.47-1.26-.85-1.28-.82-.02.02-.07.71-.1 1.53l-.06 1.49.55.33c.3.17 1.31.84 2.24 1.48 2.74 1.88 3.8 2.29 5.36 2.07 1.37-.2 1.87-.49 3.89-2.2 1.68-1.44 3.47-2.06 5.98-2.07 2.57 0 3.63.37 6.4 2.24l1.5 1.02v2.12c0 1.16-.04 2.17-.09 2.25-.07.11-.5-.14-1.92-1.1-3.57-2.4-4.22-2.69-5.88-2.69-1.71.01-2.62.37-3.92 1.57-1.94 1.8-3.3 2.45-5.66 2.73-2.34.28-4.13-.26-6.87-2.09-.72-.48-1.37-.91-1.44-.95-.09-.06-.12.25-.12 1.41v1.49l2.45 1.67c2.57 1.76 3.18 2.1 4.05 2.27 1.73.33 3.23-.17 4.88-1.63 2.27-2.01 3.99-2.71 6.67-2.72 2.36 0 3.54.43 6.43 2.35l1.42.94v2.28c0 1.96-.02 2.28-.15 2.28-.08 0-1.04-.61-2.13-1.36-1.08-.75-2.26-1.53-2.62-1.74-2.36-1.39-4.83-1.14-6.82.68-2.39 2.19-3.74 2.76-6.58 2.77-2.57 0-3.72-.4-6.3-2.23l-1.25-.89-.05 1.75c-.03 1.05-.09 1.76-.15 1.78-.05.01-1.2-.72-2.55-1.63Zm2.4-.52c0-1.28.03-1.7.13-1.74.07-.02.75.4 1.51.94 2.5 1.79 3.88 2.31 6.16 2.32 2.55.01 4.21-.66 6.26-2.53 1.67-1.54 3.2-2.09 4.98-1.8 1.41.22 1.91.48 4.86 2.5 1.02.69 1.91 1.3 1.98 1.34.09.06.12-.36.12-1.97v-2.05l-1.52-1c-2.67-1.74-3.62-2.11-5.61-2.19-2.82-.12-4.64.57-7.09 2.7-1.64 1.42-3.12 1.95-4.75 1.68-1.22-.19-1.45-.32-5.53-3.11l-1.15-.78-.06.66c-.04.37-.07 1.13-.08 1.69 0 .56-.05 1.05-.11 1.08-.05.03-.85-.45-1.77-1.06-2.6-1.74-4.02-2.29-5.95-2.29H8.5v3.3h.63c1.39 0 2.02.29 5.27 2.44 1.29.86 2.38 1.56 2.42 1.56.05 0 .08-.76.08-1.69Zm.09-9.34c.05-.05.74.35 1.61.93 2.84 1.89 3.82 2.25 6.1 2.24 2.55-.01 4.23-.68 6.15-2.44 1.56-1.42 2.62-1.9 4.27-1.9s2.51.37 5.43 2.32c1.1.74 2.06 1.37 2.13 1.42.09.06.12-.35.12-1.92v-1.99l-1.42-.96c-2.74-1.82-3.59-2.12-6.13-2.12-2.88 0-4.21.52-6.6 2.59-1.18 1.02-1.96 1.43-3.11 1.63-1.78.3-2.67-.03-5.9-2.22-2.7-1.84-2.44-1.76-2.44-.69 0 1.25-.11 2.54-.22 2.54-.05 0-.84-.49-1.76-1.09-2.74-1.78-3.7-2.17-5.64-2.28l-1.08-.06v3.33h.53c1.39.01 2.2.38 5.47 2.54l2.35 1.55.03-1.67c.01-.91.06-1.7.11-1.75Zm.01-6.02c0-1.41.03-1.75.14-1.75.07 0 .69.39 1.37.87 2.5 1.75 3.7 2.22 5.79 2.3 2.79.1 4.55-.58 6.82-2.65 1.25-1.13 2.18-1.56 3.64-1.68 1.69-.13 2.55.22 5.77 2.35l2.24 1.49.07-.67c.03-.36.06-1.23.06-1.93v-1.26l-.37-.3c-.82-.64-2.63-1.77-3.48-2.17-1.25-.6-1.97-.76-3.55-.82-2.85-.1-4.59.6-6.99 2.82-1.47 1.36-3.16 1.83-5 1.4-.93-.22-1.55-.57-4.04-2.26l-2.22-1.5-.05 1.75c-.03.96-.08 1.77-.12 1.81-.03.04-.82-.44-1.74-1.06-2.6-1.74-3.77-2.21-5.84-2.35l-1-.07v3.33h.29c1.61 0 2.6.44 5.61 2.49 1.29.88 2.41 1.6 2.48 1.6.09.01.12-.4.12-1.74Z"/></svg>