<svg xmlns="http://www.w3.org/2000/svg" width="51" height="51" viewBox="0 0 51 51"><path fill="#fff" fill-rule="evenodd" stroke="#fff" stroke-width=".783" d="M25.48 43.93c-.43-.49-4.36-6.67-5.66-8.9-5.32-9.15-7.02-13.83-6.38-17.5.91-5.25 4.79-9.23 9.91-10.18 1.37-.26 4.15-.17 5.47.18 6.31 1.66 10.31 7.92 8.98 14.04-.68 3.09-3.58 9.11-7.53 15.58-1.31 2.15-4.46 6.95-4.57 6.95-.04 0-.14-.08-.22-.17Zm1.02-1.26c5.75-8.66 9.94-16.58 11.03-20.85.32-1.28.32-4.18-.01-5.4-1.48-5.45-6.19-9.02-11.9-9.02-6.1 0-10.92 4.11-11.98 10.2-.63 3.64 1.14 8.41 6.61 17.75 1.53 2.61 5.28 8.45 5.43 8.45.04 0 .41-.51.82-1.13Zm-1.9-17.04c-2.51-.4-4.5-2.86-4.5-5.58 0-4.97 6.08-7.42 9.6-3.86 3.82 3.86.33 10.31-5.1 9.44Zm2.89-.46c3.72-1.3 4.81-6.08 2.01-8.87-3.37-3.37-9.21-.99-9.2 3.75.01 3.81 3.6 6.37 7.19 5.12Z"/></svg>