<svg xmlns="http://www.w3.org/2000/svg" width="51" height="51" viewBox="0 0 51 51"><path fill="#fff" fill-rule="evenodd" stroke="#fff" stroke-width=".494" d="M15.3 37.45c-.14-.17.01-.29.78-.59 1.57-.61 2.04-1.15 2.24-2.57.17-1.21.17-16.82.01-17.62-.22-1.04-.58-1.35-1.98-1.72-.9-.24-1.16-.56-.58-.72.15-.04 4.26-.08 9.13-.08h8.85l.67 1.65c1.01 2.5 1.51 3.88 1.44 4.05-.12.33-.44.12-1.2-.8-2.04-2.48-3.87-3.6-6.43-3.95-1.17-.16-5.28-.09-5.46.09-.2.2-.24 10.11-.04 10.11.49 0 3.24-.33 3.87-.46 1.73-.37 2.86-1.45 3.24-3.09.22-.93.27-1.05.47-1.05.36 0 .39.37.39 5.4 0 4.88 0 4.89-.21 5.01-.3.15-.42 0-.69-.91-.93-3.13-2.67-4.2-6.88-4.2h-.33l.03 4.73c.03 4.55.04 4.73.23 5.07.36.6 1.12.95 2.68 1.25.22.05.28.1.25.28l-.03.22h-5.18c-3.45 0-5.22-.03-5.27-.1Zm8.34-.49c-.49-.22-1.11-.83-1.26-1.24s-.2-20.03-.06-20.54c.1-.35.49-.47 1.8-.57.73-.06-.22-.09-3.19-.1-2.33 0-4.23.01-4.23.03 0 .03.22.12.49.21.61.2 1.15.73 1.36 1.34.34.96.45 15.21.14 18.05-.16 1.47-.62 2.21-1.73 2.76l-.41.2h3.7c3.22-.01 3.66-.03 3.39-.14Zm6.64-12.99-.03-2.02-.37.78c-.85 1.78-2.64 2.73-5.18 2.77-.64.01-.31.16.52.24 2.33.23 4.01 1.53 4.8 3.72l.23.65.03-2.06c.01-1.14.01-2.97 0-4.08Zm4.09-7.28-.84-2.14-2.84-.02c-1.65 0-2.71.02-2.54.07.16.05.71.18 1.2.3 1.75.41 3.62 1.59 5.12 3.25.37.41.69.73.7.71.02-.02-.34-1-.8-2.17Z"/></svg>