<svg xmlns="http://www.w3.org/2000/svg" width="51" height="51" viewBox="0 0 51 51"><path fill="#fff" fill-rule="evenodd" stroke="#fff" stroke-width=".487" d="M24.18 45.48c-2.35-2.5-3.57-3.89-4.99-5.68-6.36-8.03-9.46-14.54-9.43-19.85C9.83 7.99 22.78.48 33.36 6.26c5.58 3.05 8.87 9.47 8.05 15.69-.6 4.49-3.8 10.66-8.98 17.31-1.79 2.31-6.57 7.64-6.83 7.64-.05 0-.68-.64-1.42-1.42Zm2.83-.3c7.87-8.5 12.81-16.36 14.01-22.31.32-1.59.32-4.45 0-5.94-1.29-5.99-6.01-10.73-11.95-12.02-10.08-2.19-19.4 5.46-19.04 15.64.22 6.47 5.1 14.91 14.31 24.78.65.7 1.22 1.27 1.27 1.27.04 0 .67-.64 1.4-1.42Zm-8.53-16.64c-2.17-.52-3.24-1.96-3.49-4.68-.17-1.82-.07-6.41.16-7.36.56-2.38 2.19-3.53 5-3.52 2.84 0 4.55 1.4 4.95 4.06.17 1.16.12 1.22-1.7 1.65-1.68.39-1.68.39-1.94-.69-.25-.99-.88-1.36-1.87-1.1-.94.26-1.01.56-.97 4.14.04 3.32.08 3.51.88 3.73 1.07.31 1.87-.13 1.97-1.08l.06-.57-.66-.04c-1.02-.06-1.07-.14-1.07-1.64 0-1.66-.18-1.56 2.75-1.52 2.9.04 2.65-.18 2.65 2.37-.01 3.49-.56 4.87-2.3 5.8-1.08.58-3.07.78-4.42.45Zm3.49-.32c1.56-.49 2.47-1.5 2.83-3.12.15-.71.25-4.04.13-4.5l-.09-.35-1.42-.07c-.78-.05-1.86-.05-2.39 0l-.98.07-.03 1.14c-.03 1.38-.02 1.39.91 1.43l.72.03.03.57c.06 1.17-.58 1.76-1.8 1.65-1.4-.13-1.66-.96-1.56-5.04.08-2.91.34-3.43 1.76-3.43.94 0 1.35.35 1.61 1.37.21.83.21.83 1.73.47 1.59-.37 1.52-.32 1.45-1.18-.21-2.61-1.83-4-4.67-4.01-2.64 0-4.06.85-4.72 2.83-.3.91-.4 7.55-.14 8.82.4 1.93 1.47 3.02 3.38 3.45.83.19 2.42.13 3.25-.13Zm4.83-.14c-.2-.22-.2-.27-.18-7.31l.03-7.09.24-.19c.23-.19.41-.19 4.63-.17l4.4.03.24.28c.23.27.24.35.24 1.66 0 2.02.28 1.85-3.17 1.91l-2.78.05v1.6l2.05.06c1.13.03 2.06.06 2.07.07.33.28.47 2.58.22 3.31-.16.47-.38.51-2.5.51H30.4v2.53c0 3.24.17 2.97-1.85 2.97-1.46 0-1.55-.01-1.75-.22Zm3.3-2.65c.04-1.96.08-2.65.18-2.75s.66-.14 2.15-.16c1.42-.02 2.04-.07 2.09-.15.11-.17.09-2.89-.02-3.07-.08-.12-.45-.16-2.09-.19-2.27-.04-2.19-.01-2.28-.84-.07-.68.1-1.23.4-1.31.12-.03 1.4-.06 2.85-.06 2.41 0 2.63-.01 2.7-.17.14-.34.08-2.78-.07-2.96-.2-.25-8.95-.26-9.05-.02-.12.32-.08 14.06.05 14.21.1.12.41.14 1.58.12l1.46-.03z"/></svg>