<svg xmlns="http://www.w3.org/2000/svg" width="51" height="51" viewBox="0 0 51 51"><path fill="#fff" fill-rule="evenodd" stroke="#fff" stroke-width=".576" d="M24.1 49.55c-2.2-.36-4.48-1.42-5.77-2.67-.36-.36-.68-.56-1.1-.7-4.41-1.48-7.68-5.1-9.47-10.49-1.89-5.7-2.08-10.92-.61-16.8 1.67-6.64 6.15-11.52 11.49-12.5.65-.12.67-.13.95-.64.56-.99 1.48-1.6 2.6-1.71.5-.06.61-.1.66-.28.29-1.08.68-1.62 1.45-2.01 1.65-.84 3.62.01 4.06 1.74l.11.45.69.12c1.2.2 2.01.74 2.5 1.68l.29.55.7.11c8.65 1.42 14.26 13.36 11.89 25.3-1.55 7.78-5.03 12.66-10.29 14.41-.53.17-.85.36-1.3.77-2.37 2.12-5.84 3.17-8.85 2.67Zm3.73-.49c1.64-.36 3.59-1.35 4.77-2.44.51-.46.82-.65 1.4-.86 5.63-2.03 8.88-6.83 10.34-15.26.96-5.59-.27-12.82-2.94-17.15-2.14-3.49-5.66-6.06-8.97-6.56l-.82-.12-.16-.42c-.41-1.09-1.48-1.79-2.72-1.79H28V4c-.01-1.64-1.95-2.69-3.51-1.89-.74.37-1.29 1.3-1.29 2.17 0 .15-.1.18-.67.18-1.21.01-2.26.7-2.72 1.78-.18.42-.21.43-.74.49C10.41 7.75 4.72 19.91 7.21 32.06c1.49 7.26 4.72 11.7 9.94 13.65.56.21.98.43 1.12.6 1.79 2.12 6.37 3.43 9.56 2.75Zm-3.57-.36c-1.64-.26-3.5-1.03-4.73-1.96-.4-.3-.73-.56-.73-.57s.48-.01 1.08.01c1.23.04 2.21-.13 3.06-.53 3.53-1.67 3.12-7-.54-7-2.3 0-3.35 2.5-1.59 3.76.48.34.25.44-1.04.44-1.3 0-1.85-.15-2.92-.78l-.7-.41.71-.16c1.22-.28 1.71-.71 2.05-1.82.28-.88.26-1.08-.11-1.08-1.03 0-3.4-.74-5.03-1.57-4.19-2.14-6.32-5.72-6.31-10.58.02-6.31 3.87-10.77 10.43-12.09 1.13-.23 1.16-.24 1.19-.51.07-.56-.19-1.18-.73-1.71-.49-.49-.7-.6-1.62-.84-.55-.14-.54-.22.09-.58 1.23-.7 3.17-1 4.06-.63l.32.13-.34.27c-1.74 1.35-.79 3.76 1.49 3.76 3.38 0 4.2-5 1.11-6.78-.61-.36-1.69-.68-2.49-.76-.69-.06-.72-.07-.69-.31.12-1.1 2.02-1.82 3.21-1.23.55.27.52.3.35-.37-.44-1.63 1.02-2.98 2.54-2.35 1 .43 1.38 1.4.97 2.55-.08.23-.15.44-.15.46s.15-.05.33-.16c1.16-.68 2.6-.38 3.24.68.36.59.32.72-.25.72-4.34 0-6.5 5.44-2.89 7.27 2.52 1.27 4.93-1.5 2.91-3.36-1.24-1.15 2.84-.8 4.26.36l.24.21-.58.13c-1.24.27-2.08 1.08-2.25 2.17-.1.66-.12.65.99.86 6.15 1.14 10.02 5.15 10.6 10.96.5 5.1-1.91 9.53-6.4 11.8-1.53.77-3.91 1.5-4.9 1.5-.38 0-.41.49-.1 1.34.35.93.99 1.39 2.23 1.62.49.08.39.2-.56.68-1.22.62-2.78.85-3.66.55l-.32-.11.42-.36c1.53-1.32.67-3.59-1.41-3.7-2.54-.15-4.08 2.55-2.87 5 .86 1.75 2.64 2.64 5.14 2.56 1.18-.03 1.18-.04.38.57-1.96 1.49-5.14 2.32-7.49 1.95Zm2.99-.45c1.04-.18 2.34-.65 3.3-1.2l.7-.4-.8-.06c-2.08-.16-3.81-1.18-4.52-2.69-.34-.72-.33-.72-.63-.02-.66 1.53-2.34 2.53-4.54 2.71l-.79.06.89.47c2.12 1.11 4.28 1.5 6.39 1.13Zm-8.05-2.51c-5.6-.7-9.9-5.75-11.64-13.69-.59-2.64-.57-2.9.08-1.27 1.72 4.32 5.28 7.19 10.04 8.09 1 .19 1.02.2.81.84-.43 1.28-1.74 1.72-3.4 1.14l-.7-.24.22.3c1.48 2.08 5.91 3.11 7.28 1.71l.36-.37-.45-.05c-2.13-.27-1.69-2.99.49-3.08 3-.12 3.58 4.1.8 5.88-.89.58-2.59.9-3.89.74Zm10.88-.04c-2.87-.52-4.54-3.02-3.45-5.15.5-.99 1.23-1.45 2.28-1.45 2.21 0 2.65 2.83.49 3.1l-.45.05.36.37c1.28 1.31 4.77.67 6.85-1.24.77-.71.75-.8-.07-.52-1.74.59-2.94.13-3.39-1.29-.15-.49-.17-.48.93-.7 4.76-.95 8.39-3.89 9.95-8.05.62-1.64.67-1.52.22.64-1.2 5.84-3.15 9.5-6.41 12.01-2.2 1.69-5.22 2.62-7.31 2.23Zm-8.73-.45c1.9-.4 3.15-1.74 3.15-3.35-.01-2.06-2.13-3.21-3.4-1.85-.78.83.16 2.07 1.25 1.65.35-.13.42.08.21.64-.98 2.57-6.63 1.39-8.79-1.84-.61-.9-.52-.96.57-.44 1.87.91 3.22.81 3.66-.27.16-.37.09-.44-.54-.53-3.14-.49-6.99-2.9-8.67-5.45-.66-1-.67-.98-.29.35 2.13 7.32 7.75 12.17 12.85 11.09Zm10.82.04c4.1-.56 7.82-3.89 9.78-8.79.37-.92 1.15-3.34 1.15-3.57 0-.02-.23.31-.52.74-1.81 2.71-5.13 4.85-8.66 5.57-.91.18-.89.16-.61.68.57 1.02 2.14 1.01 3.97-.04.68-.38.73-.32.31.39-2.09 3.54-8.42 4.76-9.04 1.74l-.07-.33.51.07c1.1.15 1.73-.63 1.26-1.56-.68-1.3-2.84-.77-3.41.83-.89 2.53 1.86 4.75 5.33 4.27Zm-12.04-3.01c-.94-1.03-.69-2.73.51-3.55 1.58-1.07 3.9-.43 4.73 1.32.21.45.21.45.68-.28.74-1.14 1.73-1.64 3.09-1.55 2.12.14 3.29 2.34 2.09 3.96l-.24.32h.53c.62-.01 1.15-.12 1.94-.41l.57-.22-.38-.13c-1.1-.37-1.91-1.66-1.83-2.91l.03-.48 1.31-.26c7.23-1.46 11.19-6.81 10.11-13.65-.83-5.23-4.98-9.05-10.62-9.79-.88-.12-.85-.08-.85-.86 0-1.13.64-2.09 1.75-2.62l.49-.24-.57-.21c-.7-.26-1.89-.46-2.24-.37l-.26.06.21.22c.77.82.68 2.41-.19 3.24-1.54 1.45-4.11.86-5.13-1.19l-.24-.48-.26.54c-1.17 2.4-4.58 2.62-5.6.36-.37-.82-.22-1.83.36-2.46.35-.39-.64-.43-1.87-.08-.98.28-1.04.37-.44.64 1.01.48 1.69 1.55 1.69 2.67 0 .63.01.63-1.4.88-5.89 1.03-9.67 4.96-10.22 10.62-.62 6.31 3.49 11.49 10.07 12.68 1.62.29 1.5.22 1.49.91-.03 1.2-.66 2.23-1.66 2.69-.57.26-.55.28.46.61.45.15.96.23 1.4.24h.69zm9.11-8.23c-1.47-.26-2.16-.57-1.89-.83.03-.04.82-.1 1.73-.13 1.89-.07 2.51-.22 3.86-.92 1.47-.76 2.97-2.47 3.21-3.67.03-.19.09-.44.12-.55.04-.16-.01-.14-.28.12-1.5 1.42-3.23-.02-2.76-2.3.53-2.59 1.81-3.18 3.03-1.39 1.23 1.78 1.22 4.18-.02 6.7-1.23 2.49-3.75 3.56-7 2.97Zm3.35-.3c2.59-.61 4.27-3.14 4.26-6.4-.01-1.98-.98-3.75-2.05-3.75-1.15 0-1.85 3.37-.9 4.32.69.69 2.03.34 2.26-.58.13-.51.34-.27.34.39-.01 2.96-3.29 5.47-7.4 5.66l-1.45.06 1.05.22c1.28.26 2.97.29 3.89.08Zm-15.02-.26c-3.16-.35-4.46-3.35-2.81-6.5.7-1.32.99-1.31.63.04-.48 1.84-.25 2.95.81 3.9 1.33 1.2 3.31 1.34 5.59.41.97-.39 2.2-1.31 2.06-1.54-.09-.14-1.26-.49-2.35-.7-1.4-.28-1.5-.39-1.11-1.25.44-.97 1.56-1.59 4.29-2.36.97-.28 1.81-.53 1.85-.56.35-.21-1.64-.84-2.76-.88s-1.15-.07-.92-.9c.45-1.66 1.33-1.63 4.44.16 1.55.89 1.87 1.01 3.79 1.49.51.13.53.29.1.66-.52.43-.92.55-2.37.7-2.03.21-4.31.73-5.65 1.29-.47.2-.48.18.47.44 2.16.59 2.51 1.63 1.05 3.17-1.7 1.8-4.41 2.72-7.11 2.43Zm3.08-.44c2.15-.46 4.65-2.45 4.65-3.7 0-.48-.46-.8-1.73-1.2-.74-.23-1.17-.41-1.17-.5 0-.45 3.81-1.51 6.3-1.75 1.37-.13 1.79-.23 2.14-.51.29-.23.26-.39-.06-.39-.46 0-2.38-.74-3.23-1.24-3.08-1.83-4-1.96-4.43-.67-.24.68-.21.71.66.71 1.54 0 3.72.93 3.03 1.29-.1.06-.96.33-1.92.61-2.8.82-3.68 1.26-4.15 2.06-.43.73-.34.85.75 1.05 1.49.29 2.71.75 2.71 1.03 0 .24-1.17 1.23-1.82 1.54-4.42 2.09-8.4-.12-7.34-4.07.18-.67.06-.56-.28.25-1.65 3.97 1.08 6.51 5.89 5.49ZM7.1 23.3c0-1.01 1.01-5.14 1.65-6.75 2.18-5.49 6.43-9.16 10.9-9.41 3.1-.18 5.36 1.54 5.23 3.97-.13 2.27-2.37 3.49-3.89 2.12-1-.91-.51-2.53.76-2.53.49 0 .53-.05.29-.38-.74-1.05-3.49-1-5.58.11-.68.36-2.17 1.73-1.76 1.62 1.37-.37 1.95-.39 2.7-.08.89.36 1.61 1.75.98 1.87-5.55 1.06-8.97 3.75-10.73 8.41-.38 1-.55 1.33-.55 1.05Zm36.66-.68c-1.76-4.77-5.37-7.8-10.31-8.65l-.8-.14.01-.31c.07-1.32 1.92-2.14 3.53-1.57.56.19.62.13.25-.26-1.9-2.01-5.76-2.81-7.12-1.48-.42.41-.4.49.11.49 1.77 0 1.85 2.51.09 3-2.21.61-3.95-1.97-2.84-4.22 1.09-2.21 4.33-3.01 7.45-1.83 4.86 1.83 8.31 6.58 9.61 13.25.54 2.81.55 3.14.02 1.72Zm-33.52-5.27c1.82-1.8 4.59-3.24 7.24-3.75.73-.15.79-.3.32-.83-.75-.86-2.65-.7-4.11.34-.83.59.09-.99 1.14-1.97 2.39-2.22 6.61-2.72 7.64-.89.41.73.33.95-.32.88-1.53-.16-1.84 1.52-.4 2.13 2.36.98 3.79-2.84 1.72-4.61-3.32-2.85-9.7-.25-12.99 5.3-.93 1.56-2.38 5.29-2.38 6.1 0 .05.28-.34.62-.86.36-.55.99-1.31 1.52-1.84Zm32.71 1.88c-1.14-4.25-3.2-7.53-6.04-9.62-3.79-2.79-8.32-2.78-9.87.01-.97 1.76.4 4.08 2.21 3.74 1.55-.29 1.52-2.33-.04-2.24-.71.04-.73.02-.6-.45.75-2.73 6.6-1.67 8.78 1.58.72 1.09.71 1.24-.07.71-1.68-1.12-3.78-.97-4.16.3-.06.19-.01.22.56.34 3.66.71 7.03 2.85 8.83 5.59.33.5.61.91.62.91s-.09-.39-.22-.87Zm-18.89-.52c-.07-.11.51-.63 1.21-1.08.29-.18.53-.36.53-.4 0-.12-1.38.06-1.88.26-1.06.39-.55-.77.57-1.34.81-.41 3.21.13 3.21.71 0 .76-3.29 2.43-3.64 1.85Zm1.8-.66c.73-.34 1.54-.97 1.54-1.2 0-.14-.99-.5-1.64-.59-.67-.09-1.3.11-1.76.56-.49.47-.48.52.05.33.73-.26 2.25-.16 2.25.14 0 .05-.28.25-.62.45-.35.19-.76.45-.93.56l-.3.21.35-.06c.19-.04.67-.21 1.06-.4Zm.97-10.31c.86-.79 1.61-1.14 2.97-1.37l.7-.12-.15-.23c-.66-.93-2.28-.84-3.34.19-.71.68-.76.56-.26-.77.63-1.68.22-2.75-1.06-2.74-1.49.01-1.85 1.02-1.08 3.02.4 1.05.32 1.18-.32.52-.95-1-2.27-1.16-3.16-.39-.46.4-.48.37.56.57 1.68.34 3.04 1.26 3.66 2.48l.27.53.31-.57c.17-.31.57-.82.9-1.12Z"/></svg>