<svg xmlns="http://www.w3.org/2000/svg" width="51" height="51" viewBox="0 0 51 51"><path fill="#fff" fill-rule="evenodd" stroke="#fff" stroke-width=".673" d="M24.15 46.14c-4.78-.49-7.87-1.63-11.18-4.12C4.8 35.88 2.5 24.44 7.62 15.38c4.96-8.78 15.97-12.5 25.61-8.66 15.11 6.02 17.06 27.34 3.3 36.24-3.44 2.23-8.64 3.57-12.38 3.18Zm4.16-.4c16.26-2.26 23.08-22.31 11.65-34.22C29.48.6 10.42 5.1 6.06 19.52c-4.38 14.49 7.34 28.3 22.25 26.22Zm-4.95-1.65C11.78 42.87 4.33 31.46 7.7 20.12c1.99-6.69 8.11-11.84 15.17-12.77 12.69-1.66 22.88 9.06 20.68 21.76-1.64 9.46-10.47 16-20.19 14.98Zm3.64-.2c8.58-.79 15.26-7.12 16.45-15.59 1.79-12.86-9.47-23.25-22.14-20.44C9.77 10.43 3.76 23.11 9 33.85c3.26 6.7 10.5 10.73 18 10.04Zm-3.61-4.34c-4.73-.77-8.74-3.71-10.73-7.87-.82-1.72-.79-1.84 1-3.57 1.63-1.57 2.17-1.73 2.74-.79.38.62.22.97-.99 2.21l-.86.88.44.83c.72 1.37.56 1.35 1.75.18 1.24-1.22 1.66-1.34 2.32-.68.6.6.46.98-.89 2.34l-1.02 1.03.5.45c3.5 3.15 8.89 3.84 13.17 1.68 2.4-1.21 4.11-2.96 5.42-5.54.74-1.43.9-1.6 1.57-1.6 1.44 0 1.2 1.76-.6 4.43-3 4.45-8.58 6.88-13.82 6.02Zm4.71-.3c4.37-.85 8.1-3.7 9.96-7.63.72-1.52.66-2.23-.2-2.3-.57-.05-.79.17-1.35 1.33-3.55 7.43-13.23 9.46-19.09 4l-.56-.52 1.12-1.16c1.27-1.32 1.41-1.65.86-2.14-.53-.48-.85-.35-2.04.82-.58.58-1.1 1.05-1.16 1.05-.05 0-.38-.52-.73-1.16l-.64-1.16.8-.81c1.34-1.37 1.52-1.79.98-2.32-.48-.49-.72-.38-2.16.96-.71.66-1.34 1.29-1.39 1.39-.65 1.21 2.02 5.25 4.77 7.23 2.04 1.46 3.92 2.16 6.98 2.61.61.09 3.03-.03 3.85-.19Zm-2.51-6.14-.24-.19-.03-2.87-.03-2.87-1.44 1.41c-1.5 1.45-1.72 1.59-1.99 1.19-.3-.42-.2-.58 1.54-2.33l1.7-1.7-1.7-1.7c-1.73-1.72-1.84-1.89-1.52-2.18.39-.35.6-.23 2.02 1.18.75.74 1.39 1.35 1.43 1.35s.07-1.3.07-2.88c0-3.23 0-3.22.71-3.22.37 0 .72.33 2.72 2.53 1.31 1.46 1.35 1.27-.63 3.43-.74.8-1.36 1.5-1.38 1.55s.58.75 1.33 1.56c.75.82 1.44 1.62 1.53 1.8.21.43.05.65-1.85 2.61-1.59 1.64-1.75 1.73-2.24 1.33Zm2.44-1.88c1.07-1.12 1.47-1.6 1.47-1.77 0-.26-.33-.66-2.03-2.5-.55-.58-.97-1.1-.95-1.16.01-.05.66-.78 1.43-1.61 1.72-1.86 1.74-1.9 1.43-2.34-.53-.74-2.92-3.26-3.16-3.32-.57-.14-.57-.13-.6 3.21-.02 2.29-.05 3.06-.14 3.06-.07 0-.78-.65-1.58-1.45-1.54-1.53-1.55-1.53-1.86-1.31-.18.14-.09.24 1.54 1.88.94.96 1.72 1.78 1.72 1.83 0 .06-.63.73-1.41 1.5-1.66 1.66-2.01 2.07-1.93 2.29.12.32.39.13 1.91-1.34.86-.82 1.59-1.47 1.64-1.44s.09 1.42.09 3.1v3.05l.23.08c.32.13.54-.04 2.2-1.76Zm-1.81-1.8c.02-1.62.07-2.58.13-2.6.11-.03 2.4 2.44 2.4 2.58 0 .12-2.35 2.59-2.46 2.59-.06 0-.08-1.01-.07-2.57Zm1.32.99.98-1.02-.97-1.05c-.53-.58-1-1.03-1.04-1.01-.11.07-.14 4.19-.03 4.15.04-.02.53-.5 1.06-1.07Zm-14.53-4.59c-1.64-.5-1.93-1.82-1.01-4.64 1.58-4.83 5.51-8.33 10.62-9.46 1.19-.26 4.57-.26 5.78.01 5.33 1.16 9.4 5.03 10.74 10.2.59 2.25.19 3.39-1.32 3.86-1.87.58-3.13-.21-3.72-2.31-.48-1.75-.03-2.96 1.23-3.3.23-.06.48-.13.55-.15.31-.09-.99-1.93-2.2-3.1-5.27-5.11-14.02-4.12-18.12 2.04-.78 1.17-.77 1.08-.22 1.16 1.64.25 2.13 2.2 1.09 4.31-.66 1.32-1.93 1.83-3.42 1.38Zm1.67-.14c1.03-.22 1.8-1.34 2.04-2.95.2-1.4-.26-2.13-1.51-2.37-.72-.14-.71-.1-.25-.87 4.74-8.09 16.52-8.07 21.04.03.37.66.35.71-.36.82-1.32.19-1.79 1.25-1.34 3 .56 2.18 2.08 2.98 3.89 2.05 1.25-.63 1.32-2.29.21-5.07-4.59-11.49-21.29-11.44-25.89.08-1.3 3.25-1.01 4.9.92 5.29.6.11.7.11 1.25-.01Zm11.57-1.02c-.15-.39 0-5.02.17-5.02.18 0 2.37 2.33 2.38 2.53 0 .14-2.29 2.62-2.43 2.62-.04 0-.1-.06-.12-.13Zm2.19-2.37c.08-.18-.89-1.39-1.73-2.14l-.21-.19v4.42l.93-.95c.5-.53.96-1.04 1.01-1.14Z"/></svg>