<svg xmlns="http://www.w3.org/2000/svg" width="51" height="51" viewBox="0 0 51 51"><path fill="#fff" fill-rule="evenodd" stroke="#fff" stroke-width=".439" d="M0 47c0-.07 8.58-.1 25.55-.1H51.1v-4.2l-25.55.02L0 42.75l.02-21.4.03-21.4.02 21.33L.1 42.6h51.1v4.5H25.6C8.6 47.1 0 47.07 0 47Zm14.4-14.52c-.78-.4-.9-.78-.9-2.85v-1.74l.73.03.72.03.05 1.58c.05 1.52.06 1.6.29 1.78.31.26.45.24.83-.1l.33-.29.03-1.51.03-1.51h1.39v4.7h-.6c-.53 0-.6-.02-.6-.2 0-.24.05-.25-.54.05-.62.31-1.18.32-1.76.03Zm4.86.11c-.67-.16-.69-.22-.5-1.15l.04-.22.75.2c1.25.32 1.77-.03.78-.53-1.26-.64-1.63-1.02-1.63-1.69 0-1.05 1.19-1.62 2.71-1.31.86.18.94.27.73.81-.23.61-.27.64-.62.46-.4-.2-1.32-.22-1.32-.02 0 .08.3.27.67.42 1.44.61 1.85 1.49 1.18 2.51-.36.55-1.64.79-2.79.52Zm13.01-.02c-2.46-.77-1.84-4.77.74-4.77 1.25 0 2.08.87 2.09 2.18v.62h-1.45c-.8 0-1.45.02-1.45.05 0 .69 1.09 1.06 2.1.7.23-.08.47-.12.52-.09.15.09.04 1.04-.13 1.15-.45.27-1.76.36-2.42.16Zm3.81-.02c-.47-.15-.48-.17-.48-.56 0-.69.11-.8.67-.63.86.26 1.69.17 1.48-.15-.03-.06-.37-.27-.73-.45-2.64-1.34-.92-3.86 1.85-2.71.38.16.37.13.19.56-.07.19-.16.42-.19.51-.06.16-.09.16-.41.03-.44-.19-1.39-.2-1.34-.03.03.07.44.33.92.57 1.06.53 1.29.82 1.23 1.54-.1 1.2-1.62 1.82-3.19 1.32Zm4.22.03c-.53-.15-.61-.25-.54-.72.09-.67.07-.66.63-.5.63.19 1.46.15 1.46-.06 0-.09-.33-.32-.77-.55-1.19-.63-1.44-.94-1.35-1.74.11-.96 1.2-1.42 2.65-1.1.81.17.88.26.68.87l-.17.51-.41-.15c-.46-.16-1.24-.19-1.33-.05-.06.11.16.25.89.57 1.09.47 1.52 1.12 1.27 1.93-.27.92-1.67 1.38-3.01.99Zm-32.18-3 .03-3.03 1.55.01c1.39.01 1.59.03 1.98.23.83.42 1.1 1.48.57 2.25l-.26.38.3.34c.7.79.45 2.05-.51 2.56-.39.2-.59.23-2.06.26l-1.62.04zm14.92 2.89c-.02-.07-.03-1.11-.02-2.32l.03-2.2.73-.03.72-.03v4.71h-.7c-.48 0-.72-.04-.76-.13Zm2.56-2.22V27.9h.65c.58 0 .65.02.65.2s.02.18.53-.05c.95-.45 1.75-.28 2.31.48.19.26.21.44.24 2.18l.03 1.9-.73-.03-.73-.03-.05-1.63c-.05-1.8-.13-2-.7-1.87-.59.14-.7.43-.7 1.9 0 1.72.03 1.65-.81 1.65h-.69zm-14.04 1.86c1.02-.46 1.15-2.06.19-2.49-.32-.15-.32-.23.05-.5.4-.3.56-.85.38-1.36-.26-.76-.79-.95-2.66-.96H8.29l.02 2.58c.01 1.41.04 2.65.07 2.74.08.34 2.41.33 3.18-.01Zm4.8-.08c.53-.35.67-.34.58.03-.06.22-.03.24.3.24h.36v-4.1h-.8l-.01.98c-.01 1.94-.3 2.56-1.18 2.5-.77-.05-.91-.38-.91-2.09V28.2h-.88l-.07.87c-.15 1.72.08 2.76.69 3.15.47.29 1.3.21 1.92-.19Zm4.99.23c1.17-.49.93-1.76-.44-2.38-1.01-.45-1.28-.83-.8-1.09.21-.11 1.01-.08 1.45.06.18.05.23.01.32-.23.1-.3.1-.3-.33-.41-1.44-.36-2.55.07-2.55 1 0 .52.3.84 1.21 1.29.99.5 1.23.91.68 1.2-.24.13-1.09.13-1.48-.01-.37-.13-.37-.13-.46.23-.06.24-.03.28.27.37.52.15 1.74.13 2.13-.03Zm2.85-2.02V28.2h-.9v4.09l.32.03c.6.06.58.13.58-2.08Zm5.21 2.06h.3l-.03-1.76-.03-1.76-.37-.34c-.51-.46-1.09-.47-1.94-.04l-.6.3c-.01 0-.05-.11-.08-.25-.05-.21-.12-.25-.44-.25h-.37l.03 2.05.03 2.05h.89v-1.25c0-1.71.25-2.25 1.06-2.25.82 0 .94.27.94 2.16 0 1.29.02 1.45.16 1.4.09-.03.29-.06.45-.06Zm4.75-.01c.41-.11.44-.14.44-.44v-.33l-.37.14c-1.14.4-2.34-.17-2.22-1.06l.04-.25h2.75v-.56c0-2.05-3.14-2.32-3.69-.32-.56 2.01.9 3.36 3.05 2.82Zm4.08-.03c.49-.2.76-.61.76-1.13 0-.57-.25-.82-1.24-1.27-.97-.44-1.24-.96-.59-1.12.26-.07 1.06 0 1.34.11.12.05.19-.02.27-.24l.1-.3-.49-.1c-2.47-.53-3.47 1.18-1.32 2.26.86.43 1.11.7.93 1.02-.17.33-1.02.4-1.88.15-.37-.11-.32.51.06.64.41.15 1.68.14 2.06-.02Zm3.97.04c.56-.16.84-.52.84-1.1 0-.63-.18-.82-1.23-1.32-1.43-.69-1.07-1.52.48-1.08.37.11.44.07.54-.26.19-.64-2.23-.57-2.68.07-.46.66-.1 1.32 1.05 1.89.85.43 1.06.67.89 1-.18.33-.76.37-1.83.14-.4-.09-.37.56.03.67.38.11 1.51.1 1.91-.01ZM9.3 30.86c0-1.03.02-1.06.66-1.06.97 0 1.44.33 1.44 1 0 .58-.36.8-1.3.8h-.8zm1.65.34c.2-.16.19-.74-.01-.91-.09-.07-.42-.15-.75-.17l-.59-.04v1.35l.6-.06c.34-.03.67-.11.75-.17Zm21.13-1.41c-.17-.11.02-.67.29-.89.61-.48 1.58-.08 1.51.63l-.03.32h-.83c-.46 0-.88-.03-.94-.06Zm1.52-.38c0-.43-.72-.6-1.1-.26-.37.34-.26.45.45.45.57 0 .65-.02.65-.19Zm-24.23-.75a2.7 2.7 0 0 1 0-.8l.06-.36h.54c1.05 0 1.51.42 1.23 1.1-.14.34-.56.5-1.31.5h-.46zm1.37.04c.2-.07.26-.16.26-.4 0-.36-.27-.5-.96-.5H9.6v1h.44c.25 0 .56-.04.7-.1Zm12.58-1.36c-.49-.34-.11-1.24.52-1.24.68 0 .98.95.42 1.32-.19.13-.71.09-.94-.08Zm.91-.28c.24-.36-.33-.85-.67-.56-.21.17-.2.57.02.69.19.11.53.05.65-.13Zm.57-2.26c-1.28-.3-1.59-2.5-.44-3.21 1.76-1.09 3.52 1.18 2.13 2.75-.24.28-1.13.65-1.32.55-.01-.01-.18-.05-.37-.09Zm-3.12-1.27c-.03-1.2-.04-1.28-.23-1.28-.32 0-.32-.48-.01-.73.15-.11.26-.3.26-.41 0-.66.44-1.01 1.27-1.01.77 0 .89.09.77.52-.09.3-.14.33-.51.36-.52.04-.69.32-.2.32.72 0 .84.77.15.93l-.37.09-.03 1.21-.03 1.22-.52.03-.52.03zm5.89 1.21c-.04-.04-.07-.81-.07-1.71V21.4h.45c.31 0 .47.05.53.17.09.15.12.14.37-.05.27-.22.79-.3.89-.14.02.04.02.27-.01.5-.05.4-.07.42-.39.42-.56 0-.68.25-.74 1.43l-.05 1.02-.45.03c-.25.02-.49 0-.53-.04Zm-1.47-.42c.83-.6.77-2.11-.1-2.54-1.09-.55-2.21.26-2.07 1.5.12 1.09 1.3 1.66 2.17 1.04Zm-3.6-1.06v-1.25l.37-.03c.57-.05.6-.38.04-.38-.71 0-.5-.83.23-.92.59-.06.41-.28-.23-.28-.68 0-.91.19-.91.77 0 .24-.07.37-.32.55l-.33.23.3.05.3.06-.03 1.22-.02 1.22h.6zm5.82.28c.03-1.05.33-1.54.93-1.54.18 0 .25-.05.25-.2 0-.29-.28-.25-.74.1-.48.36-.56.37-.56.05 0-.18-.05-.25-.2-.25-.19 0-.2.07-.2 1.4v1.4h.24c.24 0 .24-.02.28-.96Zm-3.38.54c-.67-.32-.62-1.8.06-2.08.79-.33 1.43.63 1.05 1.57-.22.55-.64.74-1.11.51Zm.7-.33c.39-.4.29-1.33-.17-1.49-.51-.18-.92.54-.67 1.19.18.47.54.59.84.3Zm-17.8-.18c-.03-.08-.04-.47-.02-.88l.03-.74h11.7v1.7l-5.83.03c-4.82.02-5.83 0-5.88-.11Zm23.63.06c-.04-.03-.07-.44-.07-.9v-.83h11.7v1.8h-5.78c-3.18 0-5.82-.03-5.85-.07ZM19.3 23.2c0-.2-.07-.2-5.6-.2s-5.6 0-5.6.2.07.2 5.6.2 5.6 0 5.6-.2Zm23.6 0c0-.2-.07-.2-5.6-.2s-5.6 0-5.6.2.07.2 5.6.2 5.6 0 5.6-.2Zm-23.6-.75v-.25H8.1v.5h11.2zm23.6 0v-.25H31.7v.5h11.2zM8.07 18.83c-.13-.13-.08-8.98.05-9.11.15-.15 3.86-.17 4.41-.01 1.03.28 1.49 1.1 1.55 2.74.09 2.72-.47 3.54-2.57 3.78l-.98.11-.07 1.15c-.04.63-.12 1.21-.18 1.28-.11.14-2.08.19-2.21.06Zm7.63-.09c-.45-.2-.86-.59-1.13-1.09-.35-.64-.33-3.21.03-3.84.49-.86 1.42-1.31 2.73-1.31.58 0 .58 0 .55-.27l-.03-.28-1.24-.05-1.25-.05-.09-.35c-.11-.42-.02-1.57.14-1.76.17-.2 2.87-.2 3.56.01.62.18 1.26.84 1.43 1.44.07.28.1 1.55.08 3.82l-.03 3.41-.28.24c-.36.3-3.81.37-4.47.08Zm6.09-.12c-.06-.15-.09-.64-.07-1.1.04-1.11.06-1.12 1.66-1.12 1.22 0 1.23 0 1.2-.22s-.09-.23-1.05-.28c-1.24-.06-1.69-.31-2.15-1.19l-.28-.53v-2.1c0-2.63-.07-2.48 1.23-2.48 1.35 0 1.27-.12 1.27 2.02v1.78h1.1v-1.73c0-2.15-.05-2.07 1.32-2.07.68 0 .99.04 1.07.14.24.28.19 7.14-.05 7.66-.6 1.29-1.08 1.5-3.39 1.5H21.9zm7.43.16c-.09-.09-.12-.98-.12-3.4V12.1l-.22-.05c-.13-.02-.41-.06-.63-.07l-.4-.03-.03-.99c-.03-1.13.05-1.29.66-1.41.71-.13 1.19-.42 1.62-.96.89-1.14 1.43-1.1 1.48.12l.03.76.52.09c.67.12.75.29.68 1.49l-.06.9-.57.03-.58.03v3.32c0 2.46-.03 3.36-.12 3.45-.08.08-.48.12-1.13.12s-1.05-.04-1.13-.12Zm4.3 0c-.17-.17-.17-8.89 0-9.06.15-.15 2.1-.16 2.25-.01.07.07.27.05.68-.07.7-.2 1.45-.15 2.01.14.38.19.38.19.84 0 1.44-.63 2.95-.17 3.56 1.09l.29.58.03 3.45c.02 2.26 0 3.55-.07 3.73l-.11.28-1.17-.03-1.18-.03-.05-3.26c-.05-3.48-.07-3.59-.56-3.59-.53 0-.54.05-.54 3.49 0 2.33-.03 3.2-.12 3.29-.18.18-2.27.16-2.34-.02-.03-.08-.06-1.59-.07-3.35-.02-3.46-.01-3.4-.54-3.41-.52 0-.53.06-.53 3.49 0 2.33-.03 3.2-.12 3.29-.08.08-.48.12-1.13.12s-1.05-.04-1.13-.12Zm-7.74-.36c.54-.28.97-.89 1.11-1.53.12-.55.15-4.25.04-5.92l-.06-1.07H25v1.78c0 2.04.01 2.02-.81 2.02-.89 0-.89-.01-.89-2.06V9.9h-1.9v4.36l.29.47c.43.66.93.89 2.06.95 1 .05 1.15.12 1.15.52 0 .44-.17.49-1.56.52l-1.29.03-.03.84c-.04 1.22-.18 1.14 1.71 1.09 1.44-.03 1.67-.06 2.05-.26Zm9.48.18h.34v-2.99c0-3.52.01-3.58.47-3.78.4-.16.97-.04 1.07.23.03.09.06 1.56.06 3.29 0 3.64-.09 3.37 1.12 3.33l.83-.03.06-.95c.04-.52.07-2.01.08-3.31.01-2.65.01-2.64.71-2.64.81 0 .8-.05.8 3.6 0 3.69-.11 3.35 1.05 3.35s1.05.36 1.05-3.49c0-3.87-.05-4.2-.69-4.81-.68-.65-1.84-.79-2.8-.35l-.54.25-.5-.25c-.73-.36-1.57-.33-2.6.1-.12.05-.17.02-.17-.09 0-.14-.14-.16-.95-.16h-.95v3.18c-.01 1.74-.01 3.64-.01 4.22-.01.58 0 1.1 0 1.17.01.16.29.22.8.17.24-.02.59-.04.77-.04ZM10.2 17.3l.05-1.25.99-.07c2.05-.15 2.56-.76 2.56-3.13 0-1.76-.22-2.29-1.14-2.78-.42-.22-4.13-.33-4.34-.13-.04.04-.08 2.01-.1 4.37l-.03 4.3.98-.03.98-.03zm9.84 1.08c.19-.27.24-6.55.06-7.18-.12-.43-.61-.93-1.11-1.14-.44-.18-2.25-.3-2.94-.19l-.5.08-.03.83c-.02.45.01.82.05.82.04.01.58.02 1.19.03 1.22.02 1.44.11 1.44.58 0 .44-.23.59-.94.59-1.93 0-2.57.67-2.64 2.76-.06 1.76.24 2.51 1.13 2.9.59.26 4.1.19 4.29-.08Zm11.28-3.15.03-3.38.5-.03c.7-.05.75-.12.75-1.02s-.05-.97-.75-1.02l-.5-.03-.03-.82c-.04-1.17-.2-1.16-1.24.09-.34.42-1.32.88-1.86.88-.09 0-.12.27-.12.95v.94l.63.03.62.03.03 3.38.02 3.37h1.9zm-14.6 1.45c-.16-.16-.16-1.8 0-1.96.17-.17 1.1-.15 1.34.02.19.14.26 1.49.1 1.92-.07.18-1.26.2-1.44.02Zm1.23-.93v-.8l-.52-.03-.53-.03v1.72l.53-.03.52-.03zm-7.71-1.88c-.03-.08-.03-.56-.02-1.08l.03-.94.59-.03c.84-.04.96.09.96 1.08 0 .96-.11 1.1-.94 1.1-.38 0-.58-.04-.62-.13Zm1.24-1 .03-.78-.53.03-.53.03-.03.78-.03.78.53-.03.53-.03zM17.93.03c1.8-.02 4.74-.02 6.55 0 1.8.01.32.02-3.28.02S16.12.04 17.93.03Zm24.55 0c.5-.02 1.34-.02 1.85 0 .5.01.09.03-.93.03s-1.43-.02-.92-.03Z"/></svg>