<svg xmlns="http://www.w3.org/2000/svg" width="51" height="51" viewBox="0 0 51 51"><path fill="#fff" fill-rule="evenodd" stroke="#fff" stroke-width=".391" d="M20.45 46.55c-5.84-.53-11.35-2.03-15.89-4.31-1.39-.7-3.19-1.74-3.12-1.81.02-.02.45.21.96.52 13.79 8.36 35.97 7.24 48.04-2.42.44-.36.68-.51.51-.33-.73.78-3.47 2.59-5.68 3.75-6.93 3.63-16.34 5.37-24.82 4.6Zm-2.95-2.72c-5.5-.29-11.02-1.45-15.15-3.18-.44-.19-.89-.33-1-.32s-.19-.03-.18-.09c.01-.07-.03-.11-.1-.1-.14.01-1.06-.56-1.07-.66 0-.04.41.13.91.38 14.42 7.18 38.21 4.08 49.06-6.4.7-.66 1.21-1.12 1.15-1-.16.3-1.71 1.75-2.85 2.66-7.28 5.81-19.63 9.3-30.77 8.71Zm19.1-7.07c0-.2.22-.35.66-.43.46-.1.98-.94.89-1.46-.07-.44-1.43-3.4-1.6-3.5-.35-.19-.12-.28.68-.25s1.09.18.55.28l-.27.05.51 1.23c.28.68.54 1.2.59 1.15.04-.04.26-.55.49-1.13s.44-1.1.47-1.17c.02-.06-.06-.13-.19-.15s-.22-.07-.2-.13c.03-.15 1.14-.13 1.2.03.02.07-.05.12-.16.12-.23 0-.4.35-1.37 2.85-.76 1.94-.95 2.3-1.35 2.5-.37.19-.9.2-.9.01Zm-23.33-1.91c-2.2-.57-1.58-3.86.73-3.85.88.01 1.76.75 1.31 1.11-.32.26-.38.24-.58-.18-.66-1.4-2.36-.13-1.94 1.43.23.85 1.01 1.23 1.98.98.6-.16.73-.13.54.1-.31.37-1.38.59-2.04.41Zm3.36.05c-.37-.15-.43-.42-.43-1.94 0-1.39-.01-1.46-.2-1.46-.27 0-.26-.04.19-.58.21-.26.44-.57.5-.69.19-.38.31-.26.31.32v.55h.59c.33 0 .62.04.66.09.09.16-.3.31-.79.31H17v1.34c0 1.65.06 1.73 1.07 1.41.39-.13.27.22-.15.44-.48.24-1.01.33-1.29.21Zm5.57-.02c-1.92-.54-1.84-3.5.1-3.83 1.14-.19 2.17.49 2.34 1.54.24 1.51-1.02 2.7-2.44 2.29Zm-18.17-.05c-.84-.04-1.07-.16-.53-.27l.3-.05V29.1h-.22c-.32 0-.58-.17-.38-.24.8-.25 3.48-.11 4.24.23 2.49 1.09 2.26 4.63-.35 5.57-.47.17-1.73.24-3.06.17Zm5.72-.01c-.12-.12-.03-.21.23-.24l.27-.03.03-1.57.03-1.58H10q-.3 0-.3-.15c0-.12.14-.15.7-.15h.7v1.74c0 1.73 0 1.75.23 1.78.12.02.22.08.21.13-.01.1-1.7.16-1.79.07Zm8.85-.08c0-.08.1-.14.25-.14h.25v-3.2h-.3q-.3 0-.3-.15c0-.12.14-.15.7-.15h.7l.02 1.73c.03 1.7.03 1.72.26 1.75.62.09.17.28-.68.29-.7 0-.9-.02-.9-.13Zm6.2-.01c0-.06.1-.13.23-.15.22-.03.22-.06.25-1.6l.03-1.58h-.26c-.16 0-.25-.06-.25-.15 0-.12.13-.15.6-.15h.6v.33c.01.26.02.29.11.14.26-.44 1.36-.64 1.95-.35.6.29.69.56.69 2.01 0 1.29 0 1.32.23 1.35.62.09.18.28-.63.28-.61-.01-.85-.05-.85-.13 0-.07.08-.13.19-.13.49 0 .41-2.73-.09-3-.64-.35-1.41.1-1.55.89-.13.79.03 2.11.27 2.11.11 0 .18.05.16.11-.05.16-1.68.18-1.68.02Zm5.05-.08c-.78-.77-.02-1.69 1.59-1.91l.46-.07v-.46c0-.63-.21-.91-.68-.91-.5 0-.82.23-.82.59 0 .33-.21.54-.47.49-.25-.05-.2-.54.09-.86.46-.5 1.26-.66 1.92-.38.59.25.66.45.66 1.94v1.34l.3-.07c.34-.07.39.04.12.28-.28.25-.69.31-.96.13-.22-.14-.28-.14-.6-.01-.57.24-1.32.2-1.61-.1Zm3.6.17c-.09-.09.06-.22.26-.22.31 0 .3-3.17-.01-3.22-.43-.07-.22-.23.32-.26.57-.03.58-.03.58.24v.28l.29-.28c.37-.35.93-.38 1.25-.07.37.38-.14.82-.54.46s-.92.18-.93.98c-.02 1.62.02 1.86.28 1.89.14.02.25.07.25.13 0 .09-1.66.16-1.75.07Zm-27.26-.33c1.33-.28 2.07-1.33 1.99-2.81-.09-1.7-.9-2.48-2.65-2.56l-.93-.04v2.7c0 2.49.01 2.71.18 2.75.32.09.91.07 1.41-.04Zm17.19-.11c.62-.67.57-2.45-.09-2.92-1.01-.7-2.01.72-1.59 2.25.23.83 1.17 1.2 1.68.67Zm8.26-.09c.22-.18.26-.28.26-.76v-.56l-.47.07c-.86.11-1.33.69-.99 1.2.21.33.81.36 1.2.05Zm-21.28-4.25c-.2-.19-.2-.24 0-.52.23-.33.68-.27.72.1.05.42-.44.71-.72.42Zm8.79-.15c-.09-.28.22-.61.54-.57.52.06.29.78-.24.78-.15 0-.26-.07-.3-.21Zm1.7-3.58c-1.13-.3-1.56-.98-.91-1.45l.28-.21.17.23c.84 1.19 1.69 1.43 2.39.69.66-.7.3-1.34-1.07-1.91-1.49-.62-2.01-1.1-2.01-1.88 0-1.19 1.13-1.98 2.66-1.85 1.3.1 2.14 1.12 1.21 1.46-.32.12-.44.04-.51-.34-.23-1.19-2.26-.85-2.26.38 0 .37.46.71 1.62 1.22 1.87.82 2.31 1.72 1.42 2.91-.47.63-2 1.02-2.99.75Zm5.5.03c-1.3-.34-1.81-.94-1.19-1.43.36-.28.49-.26.64.08.41.99 1.57 1.32 2.24.62.71-.74.37-1.37-1.03-1.95-.5-.21-1.05-.47-1.23-.59-1.6-1.08-.47-3.17 1.71-3.17 1.26 0 2.22.8 1.62 1.34-.31.28-.64.17-.72-.24-.23-1.12-2.19-.78-2.19.39 0 .38.47.77 1.39 1.15 1.77.73 2.33 1.51 1.87 2.59-.38.91-1.93 1.51-3.11 1.21Zm11.46-.05c-.13-.05-.3-.17-.36-.26-.13-.17-.19-.16-.9.11-.9.34-2.35.16-2.81-.35-1.02-1.13.36-2.59 2.75-2.91l.89-.12.05-.56c.14-1.27-.24-1.9-1.12-1.9-.99 0-1.59.46-1.42 1.08.11.36-.03.56-.46.73-.46.17-.53.12-.53-.4 0-1.89 3.59-2.52 4.48-.78.24.45.25.56.26 2.5l.01 2.02.24.03c.13.02.28-.01.34-.07.15-.15.27-.14.27.02 0 .46-1.18 1.06-1.69.86Zm-34.89-.17c-.07-.19.03-.25.51-.31l.42-.06.03-4.44c.02-4.83.04-4.68-.56-4.73-.25-.02-.37-.08-.37-.18 0-.4 5.2-.23 6.2.2 2.11.9 1.93 3.76-.28 4.46l-.54.17.57.29c.32.16.75.47.95.7.6.66.71.98 1.02 3.03.08.49.09.5.48.55.27.03.41.1.43.23.04.2-2.31.27-2.43.06-.04-.06-.13-.8-.2-1.65-.19-2.36-.65-2.86-2.67-2.93l-1.08-.03v2.03c0 2.3-.01 2.26.6 2.31.36.02.45.07.45.21 0 .24-3.43.33-3.53.09Zm10.48.06c-.74-.28-.8-.5-.8-3.24v-2.43l-.42-.03c-.3-.02-.43-.08-.43-.18 0-.14 1.89-.45 2.08-.33.04.02.07 1.15.07 2.49v2.46l.28.28c.47.47 1.43.49 2.47.06l.33-.14.04-2.19c.05-2.55.07-2.43-.42-2.43-.39 0-.6-.14-.44-.3.05-.05.55-.12 1.12-.16l1.02-.07v5.82l.37.03c.27.02.39.08.41.21.03.15-.07.17-1.02.17H17v-.25c0-.3.03-.3-.94.01-.95.3-2.16.4-2.66.22Zm16.72-.15c.02-.13.16-.2.43-.23l.4-.05.03-2.62.02-2.62-.47-.03c-.35-.02-.48-.07-.48-.18 0-.17 2.03-.45 2.19-.3.04.04.09 1.36.1 2.92l.01 2.83.4.05c.27.03.41.1.43.23.03.16-.09.17-1.53.17s-1.56-.01-1.53-.17Zm9.5 0c.02-.1.12-.19.23-.21.11-.01.3-.05.43-.08l.22-.04v-5.2h-.46c-.38 0-.45-.03-.42-.17.03-.15.21-.2.98-.29 1.11-.13 1.25-.07 1.15.43-.07.39-.05.4.43.09 1.23-.81 3.07-.69 3.68.23.35.53.44 1.22.44 3.22v1.78l.32.03q.33.03.36.21c.03.16-.09.17-1.42.17-1.22 0-1.46-.02-1.46-.15 0-.08.12-.17.28-.2.58-.13.57-.08.6-1.99.01-.97-.02-1.94-.08-2.15-.29-1.09-1.83-1.38-2.78-.51l-.32.29.02 2.13.03 2.13.3.03c.34.04.57.2.49.33-.11.19-3.06.11-3.02-.08Zm-4.12.02c0-.03-.15-.11-.32-.18-.76-.32-1-1.28-.5-1.96.27-.36.22-.39-.24-.1-.99.61-.99 1.79.01 2.14.39.14 1.05.2 1.05.1Zm3.05-.05.27-.1-.24-.19c-.23-.19-.23-.21-.23-2.28 0-2.32-.05-2.55-.68-2.93-.45-.28-.51-.25-.25.11.26.34.27.55.18 3.5-.06 2.02.04 2.23.95 1.89Zm-33.31-.17c-.11-.26-.17-7.65-.07-8.55l.09-.78H4.05l.07 2.07c.03 1.15.03 3.28 0 4.76L4.05 26h.64c.56 0 .62-.02.55-.17Zm5.58.08c-.09-.05-.18-.42-.23-.92-.2-1.84-.66-2.7-1.73-3.2-.8-.38-.98-.37-.44.04.7.52.89 1.03.98 2.61.09 1.63.06 1.56.88 1.56.41 0 .62-.04.54-.09Zm4.28 0c.22-.06.2-.08-.18-.13-1.17-.16-1.27-.43-1.27-3.25 0-1.49-.04-2.33-.1-2.33s-.26.03-.45.06l-.35.06.05 2.51c.06 2.68.08 2.8.49 3.02.27.15 1.37.19 1.81.06Zm2.98-2.75c.02-1.57-.01-2.87-.06-2.9-.2-.12-.92.06-.81.21.09.1.1.84.05 2.83l-.07 2.7h.87zm2.62 2.57c-.65-.85-.58-.8-.75-.59-.19.24-.06.48.37.69.5.25.63.22.38-.1Zm2.51.04c1.41-.95 1.03-2.1-.99-2.96-1.59-.68-2.04-1.35-1.41-2.15.24-.31.16-.33-.27-.07-.41.25-.68.83-.6 1.3.11.68.37.88 2.26 1.75 1.19.55 1.52 1.73.63 2.25-.1.06-.13.11-.07.11s.26-.1.45-.23Zm2.76-.07c-.14-.16-.28-.39-.32-.5-.08-.25-.31-.26-.44-.01-.13.23.02.44.44.66.48.24.6.19.32-.15Zm2.87-.08c.48-.44.63-1.3.3-1.79-.28-.43-.52-.59-1.59-1.05-1.5-.63-1.95-1.34-1.34-2.12.33-.42.01-.3-.47.18-.97.96-.56 1.79 1.25 2.56 1.63.68 2 1.3 1.37 2.23l-.25.36.27-.1c.15-.06.35-.18.46-.27Zm3.28-2.52c-.03-3.22.03-2.98-.7-2.84-.28.06-.29.08-.21.37.12.43.12 4.79-.01 5.11-.09.26-.09.26.43.26h.52zm9.44-.01-.09-2.91-.3.06c-.16.03-.36.06-.44.06-.1 0-.11.04-.03.19.12.23.13 4.46.01 5.09l-.08.42h1.02zm4.47.8c-.03-3.15-.29-3.61-2.05-3.58-.69.01-.7.02-.3.1.66.13 1.12.46 1.36.98.26.56.31 4.16.07 4.45-.12.14-.07.16.4.16h.54zm-9.11 1.6.38-.19v-.74c0-.4.03-.88.07-1.06l.06-.33-.7.06c-1.44.12-2.09.68-2.04 1.75.03.73 1.25 1.01 2.23.51Zm-2.35-3.71c.04-.07.08-.34.08-.6v-.47l-.23.22c-.33.33-.42.97-.14.97.11 0 .24-.06.29-.12Zm-10.92-.68c.11-.18-.04-.45-.34-.63-.37-.22-.48-.22-.28.01.08.09.19.29.22.45.07.27.28.36.4.17Zm-15.56-.37c1.61-.82 1.27-3.44-.51-3.94-.24-.07-.81-.13-1.28-.13l-.85-.01-.03 2.17-.02 2.17.32.04c.77.11 1.82-.02 2.37-.3Zm.88.02c2.14-.9 1.82-3.64-.47-3.99l-.45-.07.32.2c1.16.73 1.34 2.68.35 3.73-.3.32-.26.34.25.13Zm22.35-2.47c-.5-.25-.37-.96.23-1.25.34-.16.36-.16.63.04.69.52-.07 1.6-.86 1.21Zm.61-.19c.42-.23.51-.71.17-.89-.55-.3-1.26.58-.72.89.22.13.29.13.55 0ZM6.95 13.9c-3.21-.5-5.02-3.18-4.34-6.42.97-4.63 7.74-5.41 9.85-1.13 1.96 3.98-1.15 8.24-5.51 7.55Zm20.3 0c-3.48-.74-3.39-5.9.11-6.39 2.26-.32 3.76.97 3.76 3.23 0 2.07-1.86 3.59-3.87 3.16Zm14.29-.09c-.02-.02-.04-.13-.04-.23 0-.22.05-.22-.82.02-2.47.68-4.12-.46-4.13-2.85 0-2.42 2.39-3.91 4.81-2.98.12.04.14-.25.14-1.96V3.8l-.26-.1c-.14-.06-.41-.1-.6-.1-.35 0-.43-.1-.21-.27.14-.11 1.54-.33 2.07-.33h.35l-.03 5.15-.03 5.15h.28c.37 0 .57.14.5.33-.05.15-1.9.31-2.03.18Zm-28.35-.18c-.11-.13.07-.26.51-.36.21-.05 1.31-1.31 2.07-2.38.24-.33-1.55-2.83-2.07-2.91-.14-.02-.26-.11-.28-.21-.03-.16.07-.17 1.4-.15 1.25.03 1.43.05 1.46.2.02.13-.05.17-.33.2l-.36.03.62.88c.34.49.62.87.64.85s.33-.41.7-.88l.67-.85-.36-.03c-.28-.03-.36-.08-.36-.23 0-.19.06-.2 1.03-.17.82.02 1.02.06 1.02.18 0 .09-.12.17-.3.2-.35.06-2.08 2.04-2.02 2.31.12.46 1.88 2.89 2.15 2.95.47.1.52.13.52.29 0 .08-.03.15-.07.15-1.65.08-2.88.02-2.91-.13-.02-.11.07-.18.32-.22l.35-.07-.66-.99c-.36-.54-.69-.99-.73-.99-.11 0-1.61 1.95-1.52 1.97.59.12.63.15.6.31-.04.21-1.92.26-2.09.05Zm7.33-.02c-.07-.18.16-.31.56-.31h.32V8.1h-.29c-.39 0-.61-.09-.61-.25s.22-.25.61-.25h.29v-.93c0-2.26.63-3.44 2.01-3.77.77-.19 1.36-.06 1.81.4.47.46.47.63.04 1.06-.47.47-.72.45-.81-.06-.17-1.01-1.1-1.35-1.53-.56-.13.25-.17.66-.2 2.09l-.04 1.77h1.06c.87 0 1.08.03 1.13.15.09.24.03.26-1.11.32l-1.06.06v5.07l.23.04c.12.03.44.08.7.11.36.05.47.1.45.22-.04.21-3.48.26-3.56.04Zm11.21.07c-.09-.15.09-.28.48-.34l.39-.07-.02-2.61-.03-2.61-.43-.03c-.84-.06-.51-.36.51-.45 1.14-.11 1.17-.1 1.17.55v.53l.23-.39c.56-.99 1.79-1.13 2.3-.27.21.35.14.57-.24.76-.38.2-.45.19-.85-.12-.44-.33-.78-.25-1.08.27-.19.32-.21.55-.24 2.36l-.03 2.02.56.07c.44.05.56.1.53.23-.03.17-3.14.26-3.25.1Zm-5.05-.45c-1.18-1.21-1.17-3.92.02-5.11l.33-.34-.39.17c-2.22.92-2.28 4.46-.09 5.46.54.25.54.24.13-.18Zm13.22.26c.27-.01.29-.03.1-.06-1.5-.26-2.31-1.22-2.32-2.77-.01-1.15.32-1.94 1.06-2.48l.41-.31-.35.07c-1.91.36-2.71 3.23-1.35 4.84.44.52 1.32.87 1.9.76.11-.02.36-.04.55-.05Zm2.38.01h.27V3.19l-.4.06c-.7.11-.81.16-.62.27.24.13.26 4.74.02 4.64-.08-.03-.15-.01-.15.03 0 .05.07.12.15.15.14.05.16.38.15 2.37-.01 1.27.01 2.33.04 2.36s.03.17-.01.31c-.05.21-.03.24.11.19.1-.04.3-.07.44-.07ZM9.3 13.09c2.9-1.55 2.79-7.41-.18-8.77C6.51 3.13 3.95 5.53 4.13 9c.17 3.49 2.63 5.44 5.17 4.09Zm.99.03c3.39-1.65 3.31-7.1-.13-8.77-.82-.4-1.61-.62-.9-.26 3.03 1.57 3.25 7.25.34 9.14-.57.37-.17.31.69-.11Zm8.51.07c-.12-.21-2.32-3.48-2.98-4.43-.23-.33-.42-.65-.42-.73 0-.09-.14-.13-.44-.13-.24 0-.51-.03-.59-.06s.68 1.19 1.69 2.72c1.01 1.52 1.84 2.79 1.84 2.83 0 .03.22.04.5.03.45-.04.49-.06.4-.23Zm3.75.2c-.14-.23-.07-9.28.08-9.57.21-.43.05-.4-.33.05-.57.69-.6.97-.62 5.49l-.03 4.12.47-.02c.25 0 .44-.04.43-.07Zm6.39-.28c1.18-1.15 1.1-4.17-.13-4.99-.4-.26-1.17-.3-1.61-.07-1.51.78-1.55 4.33-.06 5.27.5.31 1.36.21 1.8-.21Zm.51.21c2.15-1.32 1.87-4.63-.46-5.51-.22-.08-.18-.01.22.39 1.06 1.06 1.13 3.42.13 4.83-.37.51-.35.57.11.29Zm4.17-2.7c-.03-3.03-.01-2.91-.54-2.85-.35.05-.37.07-.32.3.04.14.07 1.41.08 2.82l.01 2.56.4-.03.4-.04zM5.67 13.13c-1.39-.99-2.16-3.75-1.65-5.93.37-1.62 1.83-3.26 2.93-3.31.11 0 .14-.03.08-.06-.19-.07-1.21.25-1.86.59-3.04 1.62-3.31 6.45-.47 8.39.76.52 1.68.82.97.32Zm35.66-.34c.26-.33.26-4.08-.01-4.32-2.01-1.82-4.57 1.65-2.87 3.88.61.81 2.36 1.07 2.88.44Zm-5.19-4.42c.35-.58-.99-.89-1.56-.37l-.33.3.28-.1c.29-.1.77.06.92.31.1.16.57.06.69-.14Zm-11-4.16c.37-.41-.17-1.11-.85-1.11h-.28l.24.24c.13.13.29.42.36.65.13.45.27.51.53.22Z"/></svg>