<svg xmlns="http://www.w3.org/2000/svg" width="51" height="51" viewBox="0 0 51 51"><path fill="#fff" fill-rule="evenodd" stroke="#fff" stroke-width=".652" d="M20.05 47.5c-7.59-1.99-13.54-7.54-15.88-14.82-.47-1.43-.8-2.85-.73-3.04.1-.26.16-.12.36.78 1.86 8.3 8.12 14.75 16.35 16.83.71.18 1.31.38 1.33.44.06.17-.22.13-1.43-.19Zm4.3.24c-5.2-.53-8.43-1.72-12.13-4.48C3.05 36.43.7 23.15 6.97 13.55 15.25.89 33.44-.02 42.89 11.75c8.94 11.14 5.06 27.74-7.94 33.91-3.14 1.49-7.67 2.38-10.6 2.08Zm5.3-.04c-.07-.12.01-.15.8-.3 1.67-.32 4.64-1.5 6.31-2.5 5.45-3.25 8.77-7.67 10.45-13.89.21-.79.41-1.46.44-1.49.3-.31-.23 1.98-.91 3.87-2.51 7-8.55 12.39-15.89 14.17-1.15.28-1.12.27-1.2.14Zm-4.25-5.45V36.9H14.7v7.77l1.48.71c2.24 1.07 4.47 1.74 6.77 2.01.5.06 1.01.13 1.15.15s.49.04.78.05l.52.01zm2.16 5.24c2.66-.26 6.17-1.34 8.39-2.6l.55-.31V38.3h-1.84c-2.14 0-2.12.01-2.01-.85l.06-.55H25.8v2.88c0 1.58-.03 3.98-.07 5.34l-.06 2.48h.4c.22 0 .89-.05 1.49-.11ZM14.27 36.93c-.02-.02-1.71-.02-3.76-.01l-3.72.03.62.9c1.62 2.38 3.48 4.24 5.94 5.94l.9.62.03-3.72c.01-2.05.01-3.74-.01-3.76Zm23.36 6.95c2.5-1.68 4.46-3.61 6.11-6l.68-.98H38.3v.58c0 .72-.1.82-.82.82h-.58v3c0 1.65.02 3 .06 3 .03 0 .33-.19.67-.42Zm-.37-6.33.34-.06v-4.46l-5.11-5.07-5.11-5.08.16-.79c.93-4.64-2.49-8.67-7.19-8.46-6.87.31-9.29 9.1-3.55 12.9 1.59 1.05 3.76 1.41 5.57.93l.52-.14 1.37 1.39 1.38 1.39h1.82c2.39 0 2.14-.23 2.14 1.97v1.84l1.83-.02 1.82-.02.03 1.74c.01.96.04 1.79.06 1.84.04.11 3.39.2 3.92.1Zm-22.98-6.43.02-5.32H3.58l.07.93c.22 2.9 1.08 6.15 2.31 8.65l.55 1.12 3.87-.02 3.87-.03zm11.1 2.48.02-2.85-1.33-1.33-1.34-1.34-.44.13c-.68.19-2.61.16-3.44-.05-1.32-.35-2.43-.97-3.62-2.02l-.53-.47V36.5l5.33-.02 5.32-.03zm7.3 1.92.03-.92h-1.79c-1.35 0-1.82-.03-1.9-.13-.07-.08-.1-.76-.1-1.87l.02-1.75-1.57-.03-1.57-.03v5.71l3.43-.02 3.42-.03zm12.21.44c1.37-2.44 2.4-6.12 2.65-9.48l.05-.68H36.9v5.64l.68.68.67.68.03 1.85.04 1.85h6.26zM36.5 28.4v-2.6h-5.26l2.61 2.6c1.43 1.43 2.61 2.6 2.63 2.6.01 0 .02-1.17.02-2.6Zm-22.2-3.14c0-.08-.18-.47-.39-.88-1.27-2.36-1.29-5.04-.05-7.37.41-.77.44-.89.44-1.57v-.74H6.5l-.6 1.23c-1.28 2.61-2.05 5.51-2.26 8.5l-.06.97h5.36c4.57 0 5.36-.02 5.36-.14Zm22.18-5.3.02-5.39-3.52.06c-1.94.04-4.38.07-5.41.07h-1.89l.62.68c1.7 1.85 2.41 4.25 1.95 6.57l-.13.7 1.36 1.38 1.37 1.37 2.8-.02 2.8-.03zm11.04 4.54c-.1-2.7-.97-5.98-2.29-8.67l-.55-1.13H36.9v10.7l5.33-.02 5.32-.03zm-28.95-2.44c-3.13-1.17-2.18-5.73 1.13-5.43 2.17.19 3.27 2.88 1.86 4.53-.72.84-2.06 1.25-2.99.9Zm28.83-1.23C45.42 12.15 38.61 5.41 30.08 3.7c-.59-.12-.79-.3-.32-.3.14 0 .8.14 1.47.31 6.97 1.76 12.96 7.13 15.49 13.89.4 1.07 1.08 3.57 1.08 3.97 0 .52-.19.17-.4-.74Zm-44 .66c0-.44.58-2.61.99-3.73C7.13 10.42 13.43 4.99 20.94 3.5c.58-.12 1.11.02.55.14-2.25.5-3.38.84-4.82 1.47C10.24 7.9 5.58 13.48 3.85 20.46c-.27 1.09-.45 1.5-.45 1.03Zm17.22-.35c1.64-1.15.96-3.68-1.02-3.82-1.94-.14-3.04 1.99-1.78 3.43.75.85 1.91 1.01 2.8.39Zm-6.35-6.98c.02-.01.02-1.69.01-3.71l-.03-3.68-1 .68c-2.46 1.66-4.99 4.33-6.37 6.7-.06.09 7.3.1 7.39.01Zm2.66-.3c2.38-1.28 5.03-1.28 7.46 0 .45.24.87.41.92.38s.09-2.33.09-5.35v-5.3l-.62.06c-1.95.18-2.73.28-3.58.47-2.14.45-3.72.99-5.52 1.89l-.98.49v7.8h.7c.64 0 .78-.04 1.53-.44Zm19.5.34c.04 0 .07-1.73.07-3.85V6.51l-1.32-.65c-2.77-1.35-5.66-2.09-8.53-2.18l-.9-.03-.03 5.2c-.01 2.86 0 5.24.02 5.3.03.08 3.69.1 10.69.05Zm7.83-.03c.07-.06-1.03-1.66-1.71-2.47-1.41-1.69-3.59-3.62-5.32-4.71l-.33-.21v7.47l3.66-.02c2.01-.01 3.67-.03 3.7-.06Z"/></svg>