<svg xmlns="http://www.w3.org/2000/svg" width="51" height="51" viewBox="0 0 51 51"><path fill="#fff" fill-rule="evenodd" stroke="#fff" stroke-width=".742" d="M22.83 40.23c-.1-.03-.13-.69-.13-2.79V34.7h-4.14c-2.28 0-4.21-.03-4.3-.06-.14-.06-.16-.65-.16-5.68v-5.62l.28-.26c.29-.27 4.24-3.34 6.72-5.22l1.55-1.18.05-3.47c.04-3.08.07-3.46.21-3.45.17.01 1.2.75 4.44 3.19 1.1.83 3.28 2.47 4.85 3.65 3.9 2.93 4.36 3.43 4.86 5.3.26.97.27 12.75.01 13.9-.52 2.32-2.2 3.94-4.52 4.35-.78.14-9.4.21-9.72.08Zm10.11-.47c2.05-.61 3.39-2.02 3.81-4.01.26-1.22.22-12.86-.05-13.89-.25-1-.62-1.68-1.26-2.31-.45-.45-6.1-4.76-10.65-8.12L23 10.1l.01 3.33v3.32l3.26 2.45c1.8 1.35 3.71 2.8 4.25 3.23l.98.77v5.65c0 4.96-.02 5.66-.15 5.71-.08.04-1.99.07-4.23.08l-4.07.01-.03 2.67L23 40l4.67-.03c4.11-.03 4.75-.06 5.27-.21ZM18.71 34.3h3.99v-8.6c0-4.73-.03-8.6-.07-8.6s-.32.19-.62.43c-.31.24-2.15 1.66-4.08 3.16l-3.53 2.73v5.5c0 4.98.02 5.5.16 5.44.09-.03 1.95-.06 4.15-.06Zm12.49-5.49v-5.49l-1.42-1.09c-2.89-2.22-6.64-5.03-6.71-5.03-.04 0-.07 3.85-.07 8.55v8.55h8.2z"/></svg>