<svg xmlns="http://www.w3.org/2000/svg" width="51" height="51" viewBox="0 0 51 51"><path fill="#fff" fill-rule="evenodd" stroke="#fff" stroke-width=".73" d="M26.1 45.39c-2.38-.27-3.88-.77-7.07-2.38-3.6-1.8-5.13-2.86-6.95-4.8C2.89 28.44 7.02 12.2 19.75 8c2.73-.9 6.87-1.17 9.45-.61 5.12 1.09 9.15 3.85 12.07 8.26.32.49.95 1.42 1.38 2.05 6.52 9.55 2.32 22.68-8.55 26.73-2.36.88-5.45 1.25-8 .96Zm4.53-.35C40 43.76 46.72 34.75 45.35 25.31c-.44-3.01-1.4-5.37-3.24-8.01-.48-.69-1.13-1.63-1.44-2.11-5.31-8.12-17.04-10.34-25.29-4.8-10.84 7.29-10.67 23.45.32 30.57.97.62 5.54 2.94 6.48 3.28 2.67.96 5.39 1.22 8.45.8Zm-6.33-1.65C12.96 42.62 5.23 31.45 8.46 20.5c3.68-12.48 19-16.91 28.95-8.36 6.01 5.16 7.75 14.05 4.19 21.31-2.44 4.97-7.09 8.56-12.48 9.64-.91.18-1.37.23-3.17.35-.27.01-1.02-.01-1.65-.05Zm4.8-.54c9.41-1.97 15.45-10.86 13.86-20.4-1.84-11-13.72-17.46-24.17-13.16C9.18 13.25 5.11 24.76 10.07 34c3.61 6.73 11.54 10.42 19.03 8.85Zm-5.85-8.31c-2.17-.33-3.35-.86-4.69-2.14-3.2-3.03-3.72-9.29-1.09-13.16 2.91-4.27 10.15-5.18 14.51-1.82 1.31 1.02 2.52 3.27 2.52 4.7v.38l-2.36-.02-2.36-.03-.17-.55c-.73-2.33-3.12-3.48-5.63-2.7-4.46 1.38-4.86 9.24-.57 11.28 2.84 1.35 5.56-.08 6.47-3.4l.1-.38-2.01-.01c-2.68-.01-2.52.05-2.52-.99v-.85l4.75-.05c2.61-.03 4.78-.04 4.82-.02.05.02.08 2.12.08 4.68v4.64h-4.3v-5.05l-.31.9c-.78 2.32-2.56 4.01-4.68 4.44-.62.13-2.11.22-2.56.15Zm2.69-.44c2.87-.73 4.86-3.6 4.86-7.02v-.98h-2.55c-2.2 0-2.55.02-2.55.15s.31.15 2.2.15c2.52 0 2.41-.04 2.15.87-.73 2.51-2.37 3.92-4.55 3.93-4.24.01-6.73-5.27-4.54-9.62 1.97-3.91 7.65-3.79 8.84.2l.13.42h2.19c1.2 0 2.18-.03 2.18-.08 0-.04-.07-.38-.15-.76-1.53-7.21-13.91-7.81-17.15-.83-1.75 3.77-1.11 8.78 1.48 11.49 1.8 1.89 4.87 2.74 7.46 2.08Zm8.96-4.65V25h-9.2v.4c0 .31.04.4.18.41.09.01 1.22.01 2.51 0s2.43.01 2.54.05c.19.06.19.14.14 3.63-.03 1.96-.03 3.75 0 3.99l.06.42h3.77zm-3 .09c0-2.96.03-3.75.12-3.71.07.02.13.09.12.15-.01.07-.02 1.74-.02 3.72-.01 2.32-.06 3.6-.12 3.6s-.1-1.32-.1-3.76Zm1.15 3.63c-.1-.25 0-7.32.1-7.32.06 0 .11 1.33.13 3.73.02 3.46-.02 4.14-.23 3.59Zm1.12.06c-.16-.15-.08-7.43.08-7.43.13 0 .15.48.15 3.75 0 3.42-.03 3.89-.23 3.68Z"/></svg>