<svg xmlns="http://www.w3.org/2000/svg" width="51" height="51" viewBox="0 0 51 51"><path fill="#fff" fill-rule="evenodd" stroke="#fff" stroke-width=".769" d="M21.05 33.53c-.6-.14-.85-.74-.85-2.05 0-1.06.14-1.03-1.7-.34-1.49.56-4.45 1.46-4.81 1.46-.33 0-.12-.17.44-.36 2.22-.72 6.01-2.49 6.13-2.86.1-.34-.02-.32-1.18.2-1.1.49-3.35 1.33-3.9 1.46-.67.16-.02-.66 3.1-3.85l1.92-1.97v-3.18c.01-3.57.05-3.97.46-4.32.55-.48.74-.39 4.64 2.06l2.25 1.42L29 19.75c1.28-1.28 1.7-1.62 1.7-1.38 0 .1-.78 1.09-1.67 2.11-.95 1.07-.93 1.02-.53 1.25l.3.18 2.43-2.43c2.46-2.45 4.11-4.27 5.41-5.95.39-.5.74-.92.79-.92.2-.02-.02.39-1.01 1.85-1.92 2.84-3.19 4.41-5.34 6.6-1.61 1.63-1.61 1.64-1.2 1.64.37 0 3.55 2.04 3.82 2.45.31.47.26.92-.14 1.29-.43.4-9.98 6.11-11.51 6.88-.38.19-.74.27-1 .21Zm2.9-1.49c3.03-1.74 8.99-5.33 9.41-5.67.4-.34.46-.79.14-1.2-.19-.24-3.27-2.27-3.44-2.27-.05 0-.36.26-.7.57-2.08 1.93-4.94 3.94-8.05 5.66-3.16 1.74-3.55 1.97-3.26 1.91.98-.21 3.28-1.22 5.52-2.43.62-.33 1.15-.56 1.17-.52.07.11-2.42 1.65-3.71 2.3l-.63.31v.89c0 1.04.12 1.46.49 1.66.42.24.73.12 3.06-1.21Zm-6.86-1.86c3.15-1.17 6.99-3.47 10.46-6.25 1.78-1.43 1.77-1.42 1.36-1.66l-.3-.17-1.23 1.03c-2.76 2.31-8.13 5.77-8.97 5.77-.43 0-.02-.86 1.21-2.52.33-.44.56-.79.51-.77-.13.06-4.3 4.39-4.66 4.83l-.31.39.28-.07c.16-.04.9-.3 1.65-.58Zm2.09-1.77c1.03-.52 1.03-.53 1-1.55l-.03-.89-.63.89c-.71.99-1.18 1.84-1.02 1.84.06 0 .36-.13.68-.29Zm3.06-2.04a35 35 0 0 0 4.28-3.56l1.28-1.23-1.43-.9c-5.17-3.28-5.16-3.28-5.68-2.72l-.24.26-.03 4.69-.03 4.7.43-.27c.24-.15.88-.59 1.42-.97Z"/></svg>