<svg xmlns="http://www.w3.org/2000/svg" width="51" height="51" viewBox="0 0 51 51"><path fill="#fff" fill-rule="evenodd" stroke="#fff" stroke-width=".304" d="M32.38 44.96c-.06-.14-.07-.33-.03-.43.05-.1.07-.24.06-.31-.01-.08.06-.2.16-.28.47-.35 1.01.04.74.54-.06.09-.12.29-.16.45-.08.37-.6.39-.77.03Zm14.2-2.07c-.22-.13-.24-.62-.02-.83.35-.35.94-.04.94.49 0 .41-.5.59-.92.34ZM18 42.7c-.28-.28-.25-.57.09-.91.53-.53 1.11-.27.97.44-.13.63-.66.87-1.06.47Zm5.95-1.95c-.14-.13-.25-.29-.25-.35 0-.05-.11-.1-.25-.1-.25 0-.65-.31-.65-.5 0-.05-.09-.1-.19-.1-.11 0-.23-.05-.26-.1-.17-.27-1.47-1.2-1.67-1.2-.17 0-.27-.08-.35-.3a.66.66 0 0 0-.42-.41c-.17-.06-.31-.15-.31-.21s.07-.07.18-.03c.09.04.28.1.42.12.15.03.3.14.35.26.06.14.21.23.38.25.16.02.31.1.33.17.03.08.21.23.39.33l.32.2.07-.71c.07-.74.27-1.09.68-1.23.15-.04.18-.12.13-.35-.11-.51 1.1-1.64 1.73-1.62.81.02 1.32.14 1.32.29 0 .1-.07.13-.24.08-.13-.03-.27-.01-.3.04-.04.07-.16.05-.34-.04-.36-.17-.84-.06-.97.24-.05.12-.13.22-.17.22-.32 0-.69.56-.63.96.06.41.05.42-.25.49-.51.11-.6.28-.6 1.15 0 .84.15 1.16.51 1.07.13-.04.19.02.21.22.03.23.08.26.46.29.36.03.42.06.42.26 0 .53.55.61 1.16.17.63-.46 1.06-.44 1.25.07.06.13 1.4-.03 1.49-.19.1-.15 1.09-.14 1.24.02q.09.09-.03.09c-.07 0-.09.05-.05.12.05.08-.03.1-.27.06-.19-.04-.52 0-.74.08-.59.22-1.71.3-1.9.14-.12-.1-.18-.1-.3 0-.08.07-.15.1-.15.07s-.24.01-.52.09c-.74.19-.95.18-1.23-.11Zm12.87.05c-.12-.05-.3-.23-.4-.4-.14-.24-.24-.3-.5-.3-.48 0-.92-.34-.92-.71 0-.52-.7-.4-1.01.18-.14.26-.27.31-.86.35-.24.02-.43.08-.43.13 0 .06-.04.03-.09-.05-.13-.19-.04-.3.24-.3.13 0 .26-.04.3-.1.03-.05.12-.07.2-.04.07.03.24-.05.37-.18.12-.13.3-.27.39-.33.09-.05.28-.18.43-.29.37-.26.76-.02.76.48 0 .39.31.56 1.01.56.36 0 .39.02.39.3 0 .34.44.49.93.31.16-.06.46-.11.67-.11.65 0 1.08-1.47.61-2.04-.13-.15.13-.63.62-1.17.22-.25.26-.26.75-.16.48.1.71.27.37.27-.08 0-.15.05-.15.12 0 .06-.06.04-.13-.06-.45-.61-1.1.3-1.01 1.41.13 1.39-.17 1.89-1.18 2.04-.35.05-.74.11-.88.14-.14.02-.35 0-.48-.05Zm-20.45-.37c-.26-.04-.27-.06-.12-.17.16-.12.16-.13 0-.29-.21-.22-.41-.22-.54.01-.09.16-.11.16-.25-.03-.16-.22-.12-.35.08-.35.08 0 .16-.1.19-.21.05-.2.07-.21.23-.05.11.11.25.15.4.12.14-.04.24-.02.24.04 0 .05.11.1.24.1.4 0 .51.24.26.6-.12.16-.27.29-.33.29-.07-.01-.25-.04-.4-.06Zm14.43-.41c0-.04.09-.15.2-.25.11-.09.2-.23.2-.3s.2-.32.45-.54c.64-.57.65-1.07.04-1.23-.48-.13-.59-.09-.24.1.33.18.35.78.04 1.06l-.22.19.07-.39c.06-.32.04-.43-.17-.65-.13-.14-.29-.44-.36-.67-.11-.35-.21-.45-.67-.67-.66-.33-.72-.61-.21-1 .28-.21.33-.31.29-.56-.04-.27.03-.38.56-.88.32-.32.67-.72.75-.89.42-.82 1.51-1.43 2.32-1.29.58.1.61.09 1.58-.13.9-.2 1.67-.07 1.67.28 0 .1-.27.03-.48-.13-.13-.1-1.16.06-1.59.26-.2.09-.23.15-.17.41l.06.3-.32-.27c-.9-.76-2.02-.39-2.91.98-.23.36-.57.74-.76.85-.33.19-.35.23-.3.61s.03.41-.35.65c-.48.31-.45.43.15.61.38.11.5.2.61.47.33.78.85.75 1.88-.1 1.02-.84 1.22-.71.23.15-.63.55-.74.68-.69.88.08.31-.21 1.08-.49 1.3-.12.1-.35.35-.5.56-.25.32-.67.51-.67.29Zm12.47-1.09c-.12-.12-.07-.5.07-.62.41-.34.99.15.66.55-.13.14-.61.19-.73.07Zm-15.62-.72c-.03-.06.12-.24.34-.41.41-.33.44-.54.1-.65-.1-.04-.19-.1-.19-.14 0-.1.6-.71.7-.71.15 0 .18.39.04.51-.17.14-.19.39-.03.39.06 0 .24-.11.41-.25.41-.34.66-.32.8.06.07.21.15.28.25.24.11-.04.13-.01.09.11-.03.08-.06.21-.06.27 0 .07-.12-.03-.26-.2-.14-.18-.3-.33-.36-.33-.17 0-1.08.73-1.08.86 0 .15-.06.19-.42.28-.15.03-.29.02-.33-.03Zm9.84-1.36c-.27-.45-.46-.55-1.03-.55-.43 0-.46-.02-.46-.27 0-.26 0-.26-.21-.07s-.21.18-.4-.05c-.19-.24-.21-.24-.55-.08-.57.28-.74.21-.34-.13.39-.34.5-.36.9-.15.39.2.5-.06.15-.41s-.07-.3.38.07c.21.17.44.28.52.25.17-.06.21.09.05.19-.24.15-.09.35.24.35.34 0 .96.4.96.62 0 .06.07.16.17.23.16.12.11.35-.08.35-.05 0-.19-.16-.3-.35Zm-26.34-.29c-.22-.13-.65-.31-.96-.4-1.11-.31-2.04-1.92-1.19-2.05.83-.11 1.65.36 2.6 1.5l.47.57.12-.38c.06-.2.11-.48.11-.61v-.23l.21.23c.15.16.18.25.1.34-.05.07-.13.33-.17.57-.12.77-.52.92-1.29.46Zm-.01-.98c-.82-.83-1.22-1.08-1.74-1.08-.84 0 .09 1.19 1.06 1.35.22.03.6.19.84.35.73.49.66.22-.16-.62Zm27.83.67c-.1-.07-.42-.16-.72-.2-.66-.08-.95-.37-.95-.94 0-.72 1.03-1.37 1.59-1.02.09.06.23.04.38-.06.13-.09.33-.13.47-.09.36.09.8-.18.95-.59.12-.35.25-.44.36-.25.08.14-.15.9-.37 1.19-.1.13-.18.36-.18.52 0 .45-.21.79-.62 1-.2.1-.45.28-.55.38-.15.17-.21.17-.36.06Zm-19.92-.32c-.22-.08-.51-.14-.65-.14-1.04.04-1.78-1.12-1.36-2.13.09-.22.14-.41.12-.43-.07-.07-.46.07-.46.17 0 .05-.15.06-.34.03-.31-.05-.34-.03-.4.28-.14.75-1.23 1.07-2 .59l-.47-.3.03-.52c.04-.72 1.21-1.4 1.52-.89.03.05.17.12.31.15.13.03.36.18.5.32.33.32.88.31.93-.03.04-.3-.33-.53-.88-.53h-.46l.04-.35c.05-.44-.11-.52-.87-.37-.56.1-1.41-.01-1.41-.19 0-.04-.13-.21-.3-.37-.17-.17-.3-.37-.3-.46s-.19-.25-.42-.37c-.24-.12-.55-.32-.69-.46-.24-.22-.33-.24-1.05-.21l-.79.03-.11.35c-.25.77-.24.85.03 1.27.29.46.96.93 1.31.93.3 0 .81.37.6.45-.22.09-1.08-.22-1.6-.57-.61-.42-.73-.78-.58-1.74.06-.37.09-.67.08-.69-.02-.01-.24-.12-.5-.24-.48-.23-.72-.5-.84-.95-.1-.41.21-.33.43.11.28.58.46.63 2.45.63h1.78l.06.25c.05.19.13.25.35.25.16 0 .37.09.48.21s.33.22.48.23c.67.02.34.4-.45.51l-.72.1.43.27c.4.25.53.28 1.36.28.96 0 1.39.19 1.25.55-.05.11 0 .15.17.15.13 0 .35.03.48.07.22.06.23.04.17-.2-.07-.29.02-.35.22-.15.09.09.08.16-.05.3-.15.17-.14.2.11.44.14.15.26.3.26.34s.26.08.58.08c.8-.01 2.13.16 2.39.3.14.08.24.09.28.02.09-.15.78-.12 1.01.04.13.1.34.13.66.09.37-.04.55-.01.83.16.54.32.82.28.9-.11.2-.92.95-1.96 1.43-1.99.09-.01.48-.03.86-.05.74-.05 1.47.21 1.67.58.11.21.64.24.76.05.04-.08.27-.3.5-.51l.42-.38.52.17.51.17.3-.36c.55-.67.79-.72 1.44-.31.39.25.59.33.68.26.18-.15 1.46.09 1.46.27 0 .4 1.66-.1 2.15-.65.16-.19.48-.4.7-.47.22-.08.44-.23.5-.35.11-.23.38-.27.79-.11.23.08.28.06.42-.22.15-.29.18-.3.62-.24 1.59.23 2.34.16 3.32-.34 1.04-.53 1.69-1.45 1.89-2.7.06-.36.17-.7.25-.76.1-.07.14-.25.13-.52-.01-.33.04-.47.26-.7.15-.16.25-.31.22-.34-.16-.16-.12-1.55.05-1.79.21-.27.37-.21.21.09-.1.18.01 1.77.13 1.89.07.07.39.07.93-.01.49-.07.52-.07.65.21.1.21.22.29.5.33.21.03.47.13.58.23.11.09.27.17.35.17.7 0 .57 1.69-.15 1.85-.23.05-.3.12-.3.31 0 .27-.17.33-.26.09-.12-.3.05-.6.38-.7.56-.17.68-1.15.14-1.15-.14 0-.3-.1-.4-.25-.11-.17-.23-.24-.39-.21-.12.03-.29.05-.37.05-.09.01-.21.16-.28.34-.15.43-.15.47.04.47.11 0 .14.06.09.21-.04.12-.02.24.03.28.06.03.25.35.44.71.22.43.4.66.53.68.56.09.76.24.7.53-.04.15.01.48.1.75.27.8-.37 1.9-1.22 2.07-.34.07-.58.86-.34 1.1.14.14.14.3 0 .21-.08-.05-.09.21-.04.93.1 1.44-.03 1.62-.88 1.24-.69-.31-1.37-.24-1.37.14 0 .71-1.81 1.06-2.49.49-.31-.26-.41-.66-.21-.79.06-.03.1-.17.1-.3 0-.27.07-.3 1.02-.4.38-.04.63-.02.77.07.32.2.25.31-.15.25a1.04 1.04 0 0 0-.64.08c-.15.08-.36.12-.46.09-.42-.1-.52.65-.11.83.55.24 2-.08 1.81-.39-.03-.05.02-.11.1-.14.25-.1.19-.31-.2-.74-.47-.52-.36-.65.14-.17.31.3.45.37.77.37.22 0 .6.09.84.2.76.35.81.28.6-.86-.07-.35-.08-.95-.04-1.51l.07-.91.46-.12c.7-.17 1.26-.78 1.19-1.27-.09-.68-.24-1.24-.35-1.35s-.14-.07-.28.4c-.07.23-.24.12-.24-.17 0-.35-.58-1.27-.84-1.35-.19-.05-.19-.06-.03-.24.21-.23.22-.32.03-.32-.07 0-.2.1-.29.23-.14.21-.15.19-.12-.36.02-.33.1-.66.18-.75.17-.2.33-1.17.2-1.25-.05-.03-.3-.01-.57.04-.36.06-.53.06-.64-.03-.12-.1-.19-.07-.39.17-.23.29-.24.4-.07.94q.075.24-.03.18c-.06-.04-.18.02-.27.12-.12.13-.14.21-.07.26.08.04.06.11-.04.21-.08.09-.15.26-.15.4 0 1.78-2.1 3.21-4.58 3.12l-1.25-.05-.16.28c-.12.22-.21.27-.36.22-.3-.1-.55-.06-.74.11-.1.09-.25.16-.35.16-.27 0-.72.27-.9.54-.21.32-.78.62-1.36.7-.25.04-.58.12-.73.18-.24.09-.31.08-.55-.15-.46-.44-.87-.46-1.08-.06-.17.31-.19.32-.22.12-.02-.13-.1-.23-.18-.23s-.17-.07-.21-.15c-.03-.09-.23-.25-.44-.35l-.38-.2-.31.26c-.37.32-.64.8-.56 1.01.04.08-.1.01-.29-.16-.2-.17-.41-.29-.46-.25-.05.03-.17 0-.25-.07-.19-.16-.67.29-1.04.98-.3.57-.53.69-.44.24.06-.3.05-.31-.29-.31-.26 0-.36-.05-.4-.19-.15-.58-1.74-.84-2.44-.41-.53.32-.94 1.18-.95 1.95 0 .28-.02.34-.07.21-.06-.15-.1-.16-.15-.07-.11.18-1.04.04-1.35-.2-.3-.24-.36-.24-.61.03l-.21.23-.17-.22c-.29-.37-.71-.47-1.02-.25-.26.19-.26.19-.5 0-.18-.15-.37-.19-.79-.17-.31.01-.66-.03-.78-.09-.35-.19-.9-.15-1.12.09-.59.64-.1 1.94.74 1.91.27-.01.46.05.68.24.22.18.39.25.59.22.32-.05.35-.02.1.11q-.165.09-.57-.06Zm-3.58-.09c-.15-.08-.37-.12-.47-.09-.31.1-.44-.04-.24-.26.32-.36 1.23-.08 1.24.39 0 .16-.18.15-.53-.04Zm24.18-.25c.39-.26.46-.35.41-.55-.03-.12-.02-.26.04-.29.44-.27-.28-.65-.77-.41-.23.11-.4.13-.57.06-.4-.15-1.11.26-1.11.65-.01.47.12.65.48.66.18.01.43.05.57.09.4.13.47.12.95-.21Zm-37.84-.93c-.07-.08-.11-.3-.09-.48.05-.55 1.08-.52 1.08.03 0 .45-.72.77-.99.45Zm13.02-.54c.05.1.09.09.19-.03.07-.09.18-.14.24-.12s.18-.05.28-.16c.21-.23-.03-.7-.35-.71-.09 0-.19-.03-.22-.07-.16-.15-.8-.13-.98.03-.27.25-.25.72.04.83.13.05.29.17.37.26.13.16.15.16.26 0 .09-.12.13-.13.17-.03Zm22.23-.44c-.29-.4.31-.9.7-.58.19.17.18.36-.06.6-.26.26-.45.25-.64-.02Zm-31.63-.27c-1.25-.34-1.41-.47-1.97-1.58-.24-.49-.36-.86-.36-1.15 0-.56-.09-.88-.25-.88-.15 0-.29.62-.2.93.06.2.05.21-.06.03-.14-.22-.19-.95-.09-1.16.04-.08.05-.35.01-.6-.07-.47.23-.9.56-.82.37.08.03-.7-.41-.96-.2-.12-.36-.29-.36-.39.01-.16.02-.16.1-.02.05.09.21.2.34.23.14.03.28.16.32.28l.06.21.14-.24c.18-.32.17-.54-.01-.69-.21-.17-.19-.57.05-.91.12-.15.26-.42.31-.59.14-.38.49-.61.49-.31 0 .11-.04.22-.09.25s-.12.18-.16.33c-.03.14-.15.38-.26.51-.19.24-.27.78-.1.68.24-.15.91-1.76.91-2.19 0-.48-.09-.57-.56-.57-.36 0-.66-.35-.62-.72.05-.47-.19-.46-.33.01-.07.23-.18.41-.26.41-.09 0-.11-.05-.06-.12.04-.07.06-.24.04-.36-.03-.23.32-.72.51-.72.2 0 .48.42.48.74s.02.35.43.41c.55.09.65.18.72.68l.07.42.43-.03c.57-.05 1.09.41 1.62 1.44.27.52.45.76.61.81.31.07.32.04.2-.47-.91-3.95 4.21-6.12 5.91-2.5.36.76.38 2.58.04 3.32-1.04 2.26-4.17 2.52-5.49.46-.19-.3-.32-.39-.62-.44-.34-.05-.41-.12-.77-.77-.86-1.6-1.41-1.91-2.06-1.19-.34.37-1.1 2.02-1.09 2.38 0 .16.01.67.03 1.14.02.6-.01.92-.11 1.07-.1.16-.12.34-.07.6.05.21.09.49.1.63.04.66.61 1.56 1.12 1.78 1.26.54 2.98.64 3.7.22.17-.1.41-.16.52-.13.29.07.5-.13.43-.4-.05-.22-.05-.22.16-.03.43.37.18.76-.48.76-.17 0-.43.08-.57.17-.41.27-2.07.29-3 .04Zm33.67-.59c.38-.33.35-.64-.08-.7-.12-.02-.31-.15-.42-.29-.17-.21-.25-.24-.54-.19-.19.04-.37.02-.41-.03-.07-.13.27-.31.6-.31.2 0 .28-.07.36-.29.31-.89 2.02-.61 2.34.38.13.43-.61 1.11-1.22 1.11-.11 0-.28.09-.39.21-.1.11-.28.25-.39.31s-.04-.03.15-.2Zm-33.12-.21c-.43-.43-.45-.54-.22-1.02.35-.71.66-.85 1.14-.52.17.12.25.13.28.05.05-.16.22-.15.22.01 0 .08.09.22.2.32.26.23.27.83.02.92-.09.04-.29.19-.44.35-.38.4-.74.37-1.2-.11Zm.85-.03c.81-.42.81-1.08 0-1.08-.07 0-.13-.05-.13-.11 0-.13-.4-.08-.42.06-.01.06-.08.16-.15.23-.17.18-.17.41.02.48.08.04.15.12.15.18 0 .29.24.4.53.24Zm33.55-.64c.25-.17.3-.54.08-.54-.08 0-.16-.1-.18-.22-.04-.26-.48-.41-.96-.32-.36.07-.49.21-.34.36.08.08.06.15-.04.25-.2.2-.07.36.26.31.21-.03.3 0 .33.14.06.23.54.24.85.02Zm-12.32-.57c-.37-.27-.01-.76.46-.64.32.08.42.41.19.61-.21.19-.41.2-.65.03Zm-6.01-.76c-.44-.04-.6-.1-.6-.21 0-.13.19-.14 1.25-.12 1.76.05 2.8.15 2.8.27 0 .11-2.48.16-3.45.06Zm23-.85c0-.37.05-.6.18-.73.09-.11.17-.27.17-.37 0-.09.07-.19.15-.22.08-.04.15-.15.15-.25 0-.26-.16-.24-.23.03-.07.25-.19.18-.24-.14-.05-.29.14-.48.48-.48.41 0 .41.59-.01 1.37-.28.52-.29.57-.13.68.26.19.4.08.36-.28-.04-.3-.03-.31.11-.13.32.4.1.91-.34.82-.18-.03-.33 0-.4.09-.2.25-.25.17-.25-.39Zm1.93-.15c-.1-.22-.14-.47-.11-.65.06-.27.04-.28-.21-.22-.23.06-.26.03-.26-.18 0-.13-.03-.32-.07-.42-.04-.12-.03-.15.05-.1.07.04.12.01.12-.08s.04-.16.09-.16.11-.12.13-.27c.04-.34.42-.43.73-.18.19.15.19.15-.07.09-.22-.05-.29-.02-.34.12-.04.11-.14.27-.22.37-.1.11-.11.17-.04.17s.12.09.12.2c0 .23.08.24.44.1.21-.08.26-.06.26.06 0 .08-.06.17-.14.2-.2.08-.31.61-.16.79.08.1.09.15.02.15-.06 0-.12.08-.14.19-.02.14-.07.1-.2-.18Zm-10.48-.03c-.14-.06-.45-.14-.7-.17-.55-.07-.72-.41-.21-.41.26 0 .31-.04.31-.23 0-.24.17-.47.35-.47.05 0 .02.05-.07.11-.26.15-.23.44.05.45.12.01.38.09.57.18l.35.15-.4-.04c-.3-.04-.35-.03-.2.04.11.05.38.1.61.1.23.01.56.06.75.13l.34.12-.4.08c-.56.1-1.06.09-1.35-.04Zm-33.22-.47c-.03-.2 0-.44.06-.53.07-.13.07-.21 0-.28-.29-.29-.63.67-.38 1.05.22.33.37.21.32-.24Zm11.01-.18c-.28-.07-.41-1.96-.2-2.73.17-.63 1.11-.33 1.11.35 0 .97 1.54 1.71 2.2 1.05.53-.53.23-.84-1.35-1.39-1.62-.58-2.15-1.08-2.15-2.05 0-1.5 1.68-2.59 3.35-2.17.37.09.49.09.68-.04.16-.1.35-.13.56-.09l.32.07-.03 1.11-.03 1.11h-.4c-.36 0-.42-.04-.56-.34-.44-.94-2.09-.97-2.09-.04 0 .42.2.56 1.37.97 1.25.43 1.56.58 1.81.91l.2.25.11-.76c.37-2.48 2.55-4.01 4.39-3.06.32.17.42.19.42.08 0-.22.23-.26 1.65-.26 1.62 0 1.65.01 1.65.51 0 .34-.05.42-.34.6-.43.25-.46.41-.46 2.41 0 2.15.31 2.73 1.33 2.54.78-.15.87-.41.87-2.57 0-2.11-.02-2.2-.6-2.43-.4-.16-.41-.17-.38-.59l.03-.42 1-.07c1.39-.09 2.23-.01 2.36.24.16.31.01.78-.29.89-.41.16-.42.21-.42 2.26 0 2.13.04 2.34.55 2.64.3.18.35.26.35.6v.39h-3.59c-3.86 0-3.92-.01-3.76-.51.07-.2.03-.19-.31.09-.52.41-1.13.55-2.23.51-1.07-.05-1.43-.3-1.85-1.32l-.23-.57-.12.4c-.17.58-.85 1.25-1.41 1.4-.52.14-2.05.09-2.37-.09-.16-.08-.28-.07-.5.04-.29.15-.35.16-.64.08Zm17.39 0c-.36-.09-.24-.82.15-.98.61-.25.62-.29.62-2.39 0-2.12-.04-2.27-.59-2.47-.37-.13-.57-.78-.33-1.07.18-.22 4.16-.12 4.81.13.66.24 1.22.82 1.37 1.41l.12.47.21-.4c1.68-3.2 6.16-1.85 6.2 1.87.02 2.18-1.16 3.45-3.19 3.45-1.96 0-3.16-1.17-3.32-3.23l-.06-.73-.31.3c-.82.79-1.92.63-1.84-.27.03-.35.05-.37.43-.4.5-.04.65-.17.65-.54 0-.89-1.48-1.3-2.02-.57-.65.87-.52 4.28.16 4.45.26.06.41.42.31.73-.08.26-2.61.44-3.37.24Zm-13.71-.48c.42-.18.9-.86.99-1.41.14-.93-.34-1.4-1.96-1.95-1.33-.44-1.65-.71-1.65-1.34 0-1.26 2.08-1.44 2.68-.22.32.63.47.4.47-.7 0-.56-.02-.63-.2-.63-.13 0-.2.07-.2.2 0 .24-.05.24-.6.05-1.75-.62-3.68.65-3.2 2.1.19.59.76.95 2.24 1.45.94.31 1.36.69 1.36 1.24 0 1.55-2.82 1.11-3.05-.47-.06-.37-.11-.47-.26-.47-.18 0-.19.09-.19 1.15 0 .96.03 1.15.15 1.15.08 0 .15-.09.15-.2 0-.24.15-.25.66-.04.8.34 1.91.37 2.61.09Zm5-.01c.69-.25 1.2-1.06.95-1.5-.08-.13-.12-.08-.23.27-.35 1.09-1.83 1.23-2.59.26-.53-.67-.68-2.48-.3-3.5.6-1.59 2.4-1.84 2.4-.33 0 .72.37 1.03.81.67.55-.45.2-1.5-.64-1.9-1.96-.95-4.07 1.11-3.84 3.77.18 2.15 1.44 2.97 3.44 2.26Zm19.29-.04c2.38-1.03 2.07-5.21-.45-6.05-2.43-.8-4.38 1.56-3.56 4.32.47 1.58 2.41 2.42 4.01 1.73Zm-30.6.09c2.51-.63 2.54-5.21.05-6.04-1.98-.65-3.74.78-3.74 3.05 0 2.26 1.56 3.52 3.69 2.99Zm23.04-.03c0-.08-.09-.18-.21-.21-.96-.31-.85-4.57.13-5.29.57-.41 1.64-.18 2.11.46s.1 1.58-.63 1.58c-.24 0-.27.03-.23.21.15.56 1.34.01 1.53-.7.38-1.43-1.75-2.81-3.18-2.07-.29.15-.33.15-.38.01-.1-.25-2.04-.22-2.04.03 0 .11.14.25.36.35.57.28.64.58.64 2.74 0 2.08-.05 2.29-.57 2.53-.76.35-.45.5 1.07.5 1.15 0 1.4-.03 1.4-.14Zm-7.4-.06c0-.05-.12-.16-.27-.24-.75-.39-.78-.47-.81-2.64-.04-2.27.03-2.68.49-2.84.54-.19.35-.35-.51-.42-1.48-.13-2.35.11-1.63.46.52.25.58.53.58 2.78 0 2.24-.05 2.44-.56 2.62-.73.25-.34.38 1.21.38.91 0 1.5-.04 1.5-.1Zm3.7.03c-.01-.05-.15-.17-.33-.28-.53-.34-.57-.5-.57-2.82 0-2.24.06-2.6.44-2.65.13-.02.21-.1.21-.23 0-.24-.61-.31-1.92-.2-.94.08-1.04.2-.4.5.59.28.66.55.66 2.65.01 2.07-.11 2.48-.73 2.71-.77.28-.45.39 1.14.39.83 0 1.5-.03 1.5-.07Zm-20.88-.39c-1.21-.62-1.36-3.85-.22-4.88.74-.67 1.75-.43 2.3.54.37.66.38 2.8.02 3.52-.41.84-1.35 1.2-2.1.82Zm30.2 0c-1.83-.93-1.31-5.34.63-5.34 2.23 0 2.45 5.31.23 5.47-.36.03-.64-.02-.86-.13Zm-15.62-.6c.12-.3.12-3.7.01-3.99-.06-.15-.09-.05-.13.34-.14 1.43-1.57 1.36-1.74-.08-.07-.67-.2-.78-.74-.66-1.41.31-1.62 3.87-.27 4.58.91.47 1.91-.28 1.36-1.03-.24-.31-.21-.67.07-.94.34-.35 1.04-.08 1.04.39 0 .34-.28.4-.32.07-.02-.21-.08-.27-.28-.27-.39 0-.35.46.05.57.53.13.75.71.5 1.32-.07.16-.06.17.14.07.12-.07.26-.23.31-.37Zm12.7.37c0-.04-.31-.07-.7-.06-.73.03-.9-.04-.66-.27.09-.1.11-.2.05-.3-.12-.21-.04-.39.27-.61.28-.21.74-.16.74.07 0 .09-.07.12-.17.1-.29-.08-.57.19-.48.45.05.18.09.2.22.1.12-.1.16-.1.23.01.04.07.17.11.29.07.27-.07.56.15.48.37-.07.17-.27.23-.27.07Zm-26.07-.1c.55-.21.98-1.51.74-2.28l-.11-.38-.04.32c-.04.41-.29.55-.85.51-.64-.05-.64-.35 0-.34l.48.01.05-.4c.04-.36.08-.4.31-.38.26.01.26.01.17-.39-.37-1.68-2.13-1.62-2.48.09-.46 2.2.37 3.75 1.73 3.24Zm30.47-.18c1.15-1.06.5-4.53-.85-4.53-1.15 0-1.83 2.51-1.09 4.05.36.76 1.36 1 1.94.48Zm-1.24-.55c-.39-.95-.41-1.03-.36-1.9.04-.69.3-.98.3-.34 0 .21.06.36.15.4.08.03.19.16.24.29.08.19.15.23.35.2.35-.07.42.16.27.8-.2.88-.69 1.16-.95.55ZM5.91 23.36c-.19-.23.03-.56.38-.56.33 0 .46.22.31.51-.13.22-.52.25-.69.05Zm32.75-2.02a.6.6 0 0 1 .09-.5c.12-.18.14-.37.09-.73-.04-.31-.02-.51.05-.55.06-.04.11-.2.11-.35s.05-.32.11-.38c.17-.17.03-.46-.31-.65-.36-.2-.38-.42-.1-1.18.22-.59.2-.78-.1-1.05-.21-.19-.28-.85-.1-.85.06 0 .1-.31.1-.74 0-.64.1-.99.25-.84.02.02.07.55.1 1.18.07 1.28.17 1.66.46 1.73.32.09.25.48-.08.45-.25-.03-.28 0-.25.25.02.17-.03.29-.13.33-.26.1-.18.44.1.44.38 0 .63.88.33 1.18-.09.09-.08.21.02.52.12.35.11.42-.03.58-.1.1-.17.3-.17.45 0 .14-.04.29-.1.32-.05.03-.1.19-.1.36 0 .37-.25.39-.34.03Zm-29.49-.75c-.31-.44.14-.83.72-.63.34.12.39.47.09.68-.31.22-.64.2-.81-.05Zm-7.14-1.93c-.55-.48.13-1.11.7-.66.33.26.35.54.05.74-.3.22-.42.2-.75-.08Zm12.19-.73c.06-.33 5.18-.3 5.18.03 0 .12-.43.14-2.61.14-2.43 0-2.6-.01-2.57-.17Zm-5.58-.54c-.24-.26-.08-.54.31-.54s.55.28.31.54c-.11.12-.24.21-.31.21s-.2-.09-.31-.21Zm2.62-1.7c-.3-.24-.36-.73-.09-.87.25-.15.71.06.88.39.31.59-.23.92-.79.48Zm6.21-.26c-.15-.15-.06-.63.13-.73.44-.23.9.28.6.65-.13.15-.61.21-.73.08Zm-14.52-.69c-.2-.2-.16-.53.08-.68.21-.14.7.1.75.37.08.42-.5.63-.83.31Zm29.61-1c-.2-.19-.2-.25-.02-.49.16-.23.61-.13.79.17.24.37-.44.66-.77.32Zm-30.09-.25c-.21-.12-.22-.48-.03-.75.2-.26.5-.08.54.34.04.36-.22.57-.51.41Zm11.63-.06c-.52-.19-.44-.83.11-.83.2 0 .59.33.59.49 0 .27-.38.46-.7.34ZM3.96 12.08c-.19-.27-.04-.61.26-.56.33.05.53.42.33.62-.22.22-.41.2-.59-.06Zm19.94-.28c0-.12.07-.2.16-.2.12 0 .15-.06.11-.22-.18-.68 1.22-1.66 1.57-1.09.03.04.26.14.51.21.79.22 1.15.66.83.98-.09.09-.02.12.32.12.5 0 .76.12.66.29-.15.23-4.16.15-4.16-.09Zm21.99-.06c-.17-.21 0-.49.31-.49s.48.28.31.49a.47.47 0 0 1-.31.16.47.47 0 0 1-.31-.16Zm-19.45-.29c.2-.08.36-.2.36-.26 0-.12-.61-.39-.9-.39-.11 0-.2-.04-.2-.1 0-.34-.98-.11-1.19.28-.3.57.94.88 1.93.47Zm-21.58-.58c-.21-.16-.18-.55.05-.7.44-.28.98.26.63.64-.2.22-.43.24-.68.06Zm35.16-.09c-.19-.19-.14-.37.14-.63.4-.37.84-.3.84.14 0 .37-.74.73-.98.49Zm-29.57-.68c-.16-.05-.46-.07-.66-.04C9.09 10.18 8 9.3 8 8.61c0-1.2 2.32-2.47 3.26-1.76.1.08.4.15.65.15.7 0 .95.34.6.79-.22.29-.47.21-.29-.09.18-.29-.02-.44-.46-.36-.2.04-.36.11-.36.16 0 .06-.04.1-.1.1-.05 0-.1-.09-.1-.2 0-.99-2.58-.04-2.86 1.06-.14.53.92 1.41 1.47 1.22.22-.07.38-.07.55.01.61.28 1.61.09 1.8-.33l.13-.31.01.33c0 .4-.3.72-.69.72-.16 0-.41.02-.57.05-.16.02-.42 0-.59-.05ZM5.89 8.69c-.26-.26-.22-.97.08-1.38.4-.52 1.43-.27 1.43.35 0 .14.07.27.15.3.19.08.2.34.01.34-.08 0-.16.1-.18.22-.06.4-1.14.52-1.49.17Zm7.13-.11c-.17-.17-.15-.42.06-.61.35-.32.82-.15.82.28 0 .4-.59.62-.88.33Zm-6.14-.81c.2-.33.07-.47-.34-.39-.26.05-.5.45-.38.63.11.19.55.04.72-.24Zm7.03.04c-.32-.59.77-1.06 1.13-.48.15.23-.19.56-.66.63-.3.05-.38.03-.47-.15Zm5.69-.44c-.29-.14-.4-.69-.19-.94.28-.33 1.29.04 1.29.47 0 .4-.68.69-1.1.47ZM5.44 6.06c-.13-.33 0-.51.36-.51.29 0 .36.04.38.24.06.37-.61.61-.74.27Zm3.23-.03c-.15-.14-.06-.7.13-.88.32-.29.7-.13.7.29 0 .48-.55.87-.83.59Zm34.05-.54c-.13-.05-.26-.18-.29-.28-.07-.28-.51-.36-.75-.14-.3.27-1 .24-1.3-.04-.14-.13-.37-.23-.52-.23-.63 0-1.27-1.09-.91-1.56.08-.1.15-.35.15-.55 0-.52.19-.63 1.14-.65.83-.02 1.46.21 1.46.53 0 .07.12.15.28.18.15.03.4.1.57.15.34.12.55-.01.37-.23-.09-.11-.07-.22.11-.48.46-.68 1.64-.78 2.31-.18.19.16.38.29.42.29.05 0 .15.09.22.2.07.12.23.2.4.2.15 0 .32.04.38.09.14.14.7.17.85.04.73-.58 1.29.34.61 1.02-.14.14-.37.28-.51.32-.14.03-.34.13-.45.22-.2.18-.87.21-1.78.08-.5-.07-.59-.06-.74.12-.17.19-.17.19-.34-.01-.19-.23-.4-.17-.4.11 0 .1-.09.21-.2.24s-.2.01-.2-.04.08-.1.18-.1c.09-.01.04-.04-.13-.08-.18-.04-.31-.14-.33-.25-.03-.13 0-.17.11-.13.08.03.27-.03.42-.13.22-.15.33-.16.58-.08.24.09.31.08.39-.06.07-.13.13-.14.23-.06.07.06.34.12.59.14.26.02.5.07.53.1.12.12.49.06.86-.14.2-.11.43-.2.5-.2.17 0 .49-.34.41-.43-.04-.04.01-.09.1-.13.22-.08.21-.36-.01-.32-.1.02-.19.13-.21.26-.05.32-.38.48-.45.21-.04-.16-.12-.2-.34-.17a.57.57 0 0 1-.46-.15.48.48 0 0 0-.43-.14c-.17.03-.28-.01-.35-.14-.42-.79-1.81-1.17-2.34-.64-.28.27-.33.5-.1.41.21-.08.14.12-.16.46l-.27.3-.6-.21c-.32-.12-.66-.19-.74-.16-.11.04-.18-.02-.22-.19-.13-.5-.59-.72-.89-.41-.12.11-.21.12-.44.03-.37-.14-.63-.05-.63.22 0 .11.03.2.08.2.04 0 .18.09.32.2l.25.2-.32-.06c-.26-.05-.34-.02-.48.19-.22.34.22.97.67.97.16 0 .38.11.52.25.31.3.78.33 1.12.06.13-.11.32-.18.42-.16.67.14.73.16.7.33-.02.1.06.21.2.27.12.05.22.18.22.27 0 .2-.05.21-.38.07Zm-27.84-.74c-.35-.2-.41-.87-.09-1.04.13-.07.17-.18.14-.35-.07-.37.23-.49.67-.26.19.1.49.25.67.33.38.18.5.5.32.84-.26.49-1.22.75-1.71.48Zm1.11-.4c.29-.14.45-.38.34-.49-.1-.1-.43-.07-.43.05 0 .05-.08.09-.17.08-.54-.05-.83.02-.83.19 0 .36.56.45 1.09.17ZM5.61 4.33c-.69-.13-1.14-.81-1.01-1.51.13-.76.23-.79 1.29-.52.82.2 1.18.64 1.05 1.27-.13.66-.56.9-1.33.76Zm.89-.52c.28-.53.05-1.02-.49-1.05-.15-.01-.35-.07-.44-.14-.46-.39-.95.47-.55.95.34.42 1.3.57 1.48.24Zm12.09-.37c-.19-.23.01-.49.37-.49.2 0 .3.06.32.18.08.4-.43.63-.69.31ZM10.7 2.4c-.46-.46-.1-1 .67-1 .35 0 .73.18.73.35 0 .61-.98 1.07-1.4.65Z"/></svg>