<svg xmlns="http://www.w3.org/2000/svg" width="51" height="51" viewBox="0 0 51 51"><path fill="#fff" fill-rule="evenodd" stroke="#fff" stroke-width=".8" d="M13.45 36.63c.03-.14 1.17-2.54 2.52-5.32s3.14-6.48 3.98-8.21 2.1-4.32 2.8-5.75 1.65-3.41 2.12-4.4.9-1.86.96-1.93c.16-.2.27-.03 1.1 1.73 1.08 2.3 2.11 4.42 6.02 12.35 4.22 8.58 5.59 11.46 5.51 11.65-.07.2-5.98.22-6.13.02-.05-.06-.19-.39-.32-.72s-.49-1.13-.79-1.78l-.55-1.17h-9.42l-.85 1.88-.86 1.87-3.08.03-3.08.02zm6.7-1.67c.43-.94.84-1.81.92-1.94l.14-.22 4.77.02 4.77.03.47.9c.26.49.64 1.34.85 1.87l.38.98h2.72c1.49 0 2.78.03 2.87.06.1.04.16.01.16-.07 0-.19-1.97-4.31-4.88-10.19-2.81-5.69-6.1-12.43-6.87-14.08-.27-.56-.51-.99-.55-.95s-.37.73-.75 1.53c-.37.8-1.59 3.32-2.7 5.6-5.08 10.4-5.97 12.23-7.31 15.04-.79 1.64-1.44 3.01-1.44 3.05 0 .03 1.28.06 2.84.07l2.84.01zm10.57-2.48c.05-.14 4.03-2.17 4.26-2.18.37-.01-.11.28-2.06 1.25-2.29 1.13-2.26 1.11-2.2.93Zm-13.9-1.59c.03-.1 5.59-2.86 6.74-3.34.46-.19.41.01-.06.26-.58.32-6.29 3.07-6.51 3.14-.15.05-.2.03-.17-.06Zm6.68-2.09c0-.11.13-.47.29-.79.16-.31.64-1.36 1.06-2.32.93-2.1 1.02-2.26 1.2-2.08.19.19 2.35 5 2.35 5.21 0 .17-.18.18-2.45.18-2.39 0-2.45 0-2.45-.2Zm4.56-.32c-.27-.64-2.09-4.63-2.12-4.67-.02-.02-.09.09-.14.25-.06.17-.49 1.15-.96 2.2-.47 1.04-.92 2.04-1 2.22l-.14.32h4.5zm-.81-2.68c.07-.11 3.84-2.02 4.23-2.14.67-.22-.02.21-1.92 1.17-2.03 1.02-2.45 1.2-2.31.97Zm-5.35-5.78c0-.11 6.38-3.27 6.46-3.2.1.11-.47.43-3.43 1.89-2.72 1.34-3.03 1.48-3.03 1.31Z"/></svg>