<svg xmlns="http://www.w3.org/2000/svg" width="51" height="51" viewBox="0 0 51 51"><path fill="#fff" fill-rule="evenodd" stroke="#fff" stroke-width=".446" d="M15.37 35.99c-.78-.57-1.29-1.16-1.67-1.93l-.3-.59v-9.74c0-9.5 0-9.75.2-10.13.74-1.44 3-1.33 3.78.2l.22.44v17.83l.23.21.23.22h7.97c4.38 0 7.97-.04 7.97-.08 0-.05-.09-.26-.19-.48-.19-.39-1.21-2.81-2.94-6.94-.99-2.39-1.19-3.38-.85-4.35.23-.67 4.09-7.05 4.54-7.51 1.22-1.24 3.34-.39 3.34 1.34 0 .74-.09.92-1.89 3.75-2.16 3.4-2.14 3.36-2.01 3.52.06.07.08.19.05.27s.88 2.53 2.03 5.44c2.8 7.07 3.15 8.01 3.16 8.52l.01.43-11.62.02-11.63.03zm23.6-.14c-.05-.32-1.45-4-2.58-6.8-1.66-4.12-2.79-7.08-2.79-7.31 0-.22 1.88-3.32 3.22-5.32.63-.94.78-1.3.78-1.89 0-1.66-2.14-2.23-3.13-.84-.61.88-4.08 6.76-4.18 7.11-.26.88-.09 1.81.7 3.7 1.83 4.36 3.14 7.47 3.28 7.73.3.6.69.57-8.18.57H18l-.32-.29-.33-.29-.05-9.09-.05-9.1-.28-.36c-.78-1.03-2.41-1.03-3.08 0-.18.27-.19.71-.19 10.02v9.73l.35.67c.39.73.84 1.23 1.61 1.76l.49.33 11.43-.01 11.44-.02zm-15.64-4.16c-1.93-.32-3.3-1.55-3.87-3.48-.14-.48-.16-1.38-.16-7.36v-6.81l.23-.44c.74-1.47 2.98-1.39 3.62.13.13.31.15 1.23.15 6.8v6.44l.23.34c.32.48 1.03.54 1.36.13.21-.27.21-.3.21-6.8 0-6.99-.01-6.86.53-7.43 1.02-1.08 2.62-.88 3.28.41.18.36.19.69.19 7.32v6.96l-.25.67c-.89 2.36-2.98 3.54-5.52 3.12Zm2.42-.44c1.09-.31 2.08-1.18 2.64-2.35l.36-.75.03-6.95c.02-4.76 0-7.07-.08-7.32-.31-1.06-1.78-1.39-2.7-.61-.57.48-.55.18-.6 7.4l-.05 6.72-.29.3c-.52.55-1.48.38-1.89-.32-.09-.17-.13-1.83-.17-6.87l-.05-6.65-.22-.31c-.64-.89-2.28-.87-2.89.03-.31.46-.35 13.82-.03 14.75.83 2.46 3.28 3.67 5.94 2.93Z"/></svg>