<svg xmlns="http://www.w3.org/2000/svg" width="51" height="51" viewBox="0 0 51 51"><path fill="#fff" fill-rule="evenodd" stroke="#fff" stroke-width=".697" d="M19.65 46.1c-7.83-.05-8.02-.06-8.77-.27-3.17-.9-5.31-3.01-6.3-6.24l-.23-.74-.03-13.2c-.02-9.75 0-13.44.09-14.1.48-3.66 2.99-6.48 6.56-7.37l.88-.22H25.4c12.26.01 13.62.02 14.28.17 3.59.82 6.27 3.8 6.71 7.47.07.56.09 5.32.07 13.95-.04 12.94-.05 13.11-.26 13.95-.78 3.14-3.15 5.53-6.35 6.42-.92.26-4.6.29-20.2.18Zm19.97-.39c3.12-.8 5.21-2.75 6.24-5.81l.29-.85.03-6.93.03-6.92H25.6v20.7l3.43.03c6.56.07 9.72 0 10.59-.22Zm-14.22-2.8c0-1.64-.03-6.29-.07-10.34l-.06-7.37H4.6l-.02 5.53c-.04 6.74-.02 7.52.18 8.46.72 3.37 3.41 5.91 6.93 6.56.6.1 2.16.13 7.24.13l6.47.01zm-13.28-4.84c-.29-.29-.52-.57-.52-.62s.45-.55 1-1.1l1-1-1-1c-1.16-1.16-1.15-1.11-.49-1.75s.57-.67 1.75.51l1.01 1.01.93-1.01c1.08-1.16 1.1-1.17 1.73-.53.62.63.62.63-.43 1.67-.49.49-.9.97-.9 1.05s.41.56.9 1.05c1.06 1.05 1.06 1.05.35 1.75l-.55.54-1.03-1.01-1.02-1.02-1.01.99c-.55.55-1.05 1-1.1 1s-.33-.24-.62-.53Zm1.58-.72c.52-.52 1.01-.95 1.1-.95.08 0 .59.44 1.12.97l.98.98.47-.48.48-.47-.98-.98c-.53-.53-.97-1.04-.97-1.12s.44-.59.97-1.12l.97-.98-.39-.4c-.51-.53-.46-.54-1.55.55-.52.52-.99.95-1.05.95s-.53-.43-1.05-.95c-1.09-1.09-1.04-1.07-1.54-.56l-.39.4.7.78c.39.43.83.89.97 1.02.37.35.36.36-.69 1.41-.52.52-.95.98-.95 1.01 0 .07.72.85.8.88.03 0 .48-.42 1-.94ZM32.2 37v-.9h7.61l-.03.88-.03.87-3.77.03-3.78.02zm7.4-.05v-.65h-7.2v1.3h7.2zm-7.35-2.53c-.03-.03-.05-.41-.05-.84v-.78h7.61l-.03.82-.03.83-3.72.01c-2.05.01-3.75-.01-3.78-.04Zm7.35-.82V33h-7.2v1.2h7.2zM25.3 14.55V4.2h-6.64c-5.49 0-6.77.03-7.35.15-3.1.65-5.5 2.84-6.43 5.87-.22.72-.22.8-.26 7.71l-.03 6.97H25.3zm20.9 3.75c0-7.31-.01-7.39-.64-8.96-1.02-2.5-3.14-4.28-5.89-4.94-.77-.19-1.19-.2-7.43-.2h-6.61l-.06 2.03c-.09 2.58-.09 7.28 0 13.65l.06 5.02H46.2zm-32.32-1.07-.03-1.48-1.3-.02c-.71-.01-1.36-.02-1.43-.03-.08 0-.12-.24-.12-.85V14h2.89l.03-1.47.03-1.48h1.6l.05 1.45.05 1.45 1.47.03 1.48.03v1.69h-1.34c-1.82 0-1.66-.15-1.66 1.56v1.44h-1.69zM15.4 17v-1.5h3v-1.3h-3v-2.9h-1.2l-.01.93c-.01.5-.02.97-.04 1.02-.01.06-.03.29-.03.53l-.02.42h-2.9v1.3h2.9v3h1.3zm16.8-2.15V14l3.78.02 3.77.03.03.83.03.82H32.2zm7.3 0v-.65l-3.52.02-3.53.03-.03.63-.03.62h7.11z"/></svg>