<svg xmlns="http://www.w3.org/2000/svg" width="51" height="51" viewBox="0 0 51 51"><path fill="#fff" fill-rule="evenodd" stroke="#fff" stroke-width=".768" d="M24.15 35.2c-2.63-.42-5.11-2.23-6.3-4.6-2.71-5.43.69-11.67 6.75-12.38 1.44-.17 13.55-.04 14.08.14 1.05.38.91 1.56-.51 4.19l-.32.6-6.55.05-6.55.05-.57.27c-2.82 1.32-2.91 4.91-.16 6.35.76.4 2.06.41 2.88.02 1.2-.57 1.88-1.6 1.97-3l.06-.79H34v.58c-.02 5.31-4.66 9.33-9.85 8.52Zm3.53-.41c3.38-.85 5.76-3.85 6.08-7.67l.07-.82H30.8v.83c0 4.01-3.89 6.13-7.61 4.15-1-.53-2.5-2.1-2.37-2.49.02-.07.26.18.52.55 3.02 4.24 9.26 2.72 9.26-2.26v-.78h-1.47l-.06.75c-.15 2.02-1.56 3.3-3.62 3.3-4-.01-5.04-5.31-1.38-7.03l.58-.27 6.53-.03 6.52-.03.51-1.02c1.33-2.65 1.32-3.3-.06-3.47-1.52-.2-13.4-.12-14.43.1-6.41 1.32-8.8 9.33-4.17 13.96 2.15 2.14 5.18 2.98 8.13 2.23Z"/></svg>