<svg xmlns="http://www.w3.org/2000/svg" width="51" height="51" viewBox="0 0 51 51"><path fill="#fff" fill-rule="evenodd" stroke="#fff" stroke-width=".691" d="M24.85 46.2c-2.33-.25-4.34-1.22-5-2.41l-.3-.54-.03-1.97c-.02-1.09-.08-1.98-.13-1.98-.04 0-.31.09-.58.2-2.07.81-3.95.59-5.1-.59-.71-.73-.88-1.27-1.16-3.71-.5-4.28-.64-4.59-2.01-4.6-.54 0-1.35-.3-1.72-.65-.72-.66-.54-1.31.97-3.65 1.69-2.59 2.27-4.08 2.03-5.18-.07-.31-.2-.89-.28-1.27-.63-2.88 1.21-7.3 3.9-9.39 4.94-3.83 11.93-4.9 16.98-2.59l.77.36.36-.31c1.19-1.05 3.09.4 2.34 1.79-.2.37-.02.56.78.83 1.37.46 1.78.98 1.93 2.43.11 1.01.08.98.75.99 1.4.02 2.02 1.85.85 2.52l-.27.15.24.76c.78 2.52.76 5.3-.04 7.54-.57 1.6-1.23 2.62-3.04 4.64-3.18 3.56-3.34 4-3.35 9.58-.01 4.25-.02 4.36-.6 5.13-1.03 1.35-5.02 2.27-8.29 1.92Zm4.23-.46c2.35-.41 3.56-1.03 4.09-2.12l.28-.57-.03-3.55c-.06-5.65.22-6.51 3.18-9.8 3.32-3.69 4.31-6.35 3.76-10.09-.27-1.83-.63-2.84-1.05-2.92-1.07-.22-1.61-1.47-.96-2.2.17-.18.18-.25.07-.65-.07-.24-.12-.66-.12-.92 0-1.06-.6-1.76-1.83-2.13-.34-.1-.69-.28-.77-.39-.15-.2-.18-.2-.45-.06-1.01.53-2.18-.19-2.19-1.36l-.01-.47-.85-.4c-5.04-2.33-12.39-1.02-17.18 3.07-2.43 2.08-3.81 6.38-3.02 9.42.43 1.64.07 2.67-2.03 5.94-1.83 2.85-1.71 3.46.74 3.77.53.07 1.01.18 1.11.26.4.35.71 1.82 1.07 5 .15 1.33.25 1.85.44 2.26.8 1.75 2.73 2.29 5.17 1.44.7-.24 1.08-.33 1.15-.26.06.06.12 1 .15 2.17.07 2.57.27 3 1.82 3.78 1.03.52 1.78.72 3.63.98.56.08 2.95-.04 3.83-.2Zm2.03-19.7c-.8-.21-1.71-.69-2.29-1.2l-.52-.45-.67.28c-1.54.64-3.34.29-4.47-.86l-.49-.5-.56.44c-2.28 1.79-5.32 1.58-7.36-.49-2.23-2.27-2.24-5.59 0-7.81l.7-.7-.28-.55c-1.04-2.02.96-4.19 3.17-3.44.47.16.48.16.64-.07 1.91-2.73 6.02-2.83 8.09-.21l.39.49.37-.43c1.46-1.68 4.49-1.21 5.39.84.28.62.34 1.71.14 2.37-.17.54-.12.64.34.65.14 0 .49.09.78.19l.54.18-.35-.36c-.94-.98-.8-2.37.31-3.16 1.19-.83 2.95 0 3.18 1.51.19 1.28-.99 2.48-2.28 2.31l-.38-.05.58.42c5.19 3.83 1.23 12.27-4.97 10.6Zm2.94-.29c5.63-1.47 5.43-9.79-.27-11.02l-.77-.16-.56.52c-.87.83-1.74 1.1-2.89.9l-.7-.12-.43.48c-.5.55-.53.69-.15.89.15.08.49.37.76.65 1.52 1.64 1.49 4.14-.07 5.86l-.44.49.46.39c1.33 1.1 3.38 1.55 5.06 1.12Zm-13.83-1.34c.75-.26 1.14-.46 1.75-.93l.51-.39-.31-.67c-.42-.88-.46-2.44-.1-3.25.16-.34.19-.49.1-.52-.07-.02-.3-.09-.52-.15-1.19-.36-2.37-1.31-2.91-2.34-.26-.5-.31-.55-.54-.48-.59.16-1.35.06-1.98-.28l-.62-.33-.35.28c-1.16.88-1.84 2.37-1.85 4.01-.01 3.51 3.57 6.17 6.82 5.05Zm7.26-.01c.6-.26.59-.22.28-.63-1.25-1.67-1.48-4.09-.57-6.03l.29-.63-.3-.06c-.25-.06-.35-.02-.61.23-.44.42-1.41.99-2.02 1.18l-.5.16.03.62c.06 1.09-.37 2.54-1.05 3.58l-.17.28.39.41c1.1 1.13 2.82 1.49 4.23.89Zm1.47-1.07c1.25-1.6 1.22-3.77-.07-5.18-.95-1.05-1.16-1.04-1.57.04-.65 1.67-.46 3.63.49 5.1.49.75.58.75 1.15.04ZM23.17 22c.39-.78.63-1.77.63-2.64v-.66h-1.21l-.22.48c-.32.69-.32 2.36 0 3.05.28.6.38.57.8-.23Zm.13-4.71c.01-.57-1.34-2.01-2.34-2.49-.99-.47-1.1-.47-1.35-.06-.13.2-.36.44-.52.53-.87.52 1.11 2.59 2.86 2.98l.5.11.42-.45c.23-.25.42-.53.43-.62Zm1.85.56c.39-.19.86-.47 1.05-.64l.35-.3-.61-.01c-.6 0-1.45.2-1.95.46-.25.13-.26.15-.16.54.14.49.23.49 1.32-.05Zm-.89-.92c.48-.22.79-.28 1.64-.33l1.04-.05.23-.4c1.08-1.89.77-4.45-.72-5.9-1.4-1.37-3.64-1.76-5.39-.92-.75.36-1.96 1.4-1.96 1.69 0 .06.15.28.34.49.46.5.68 1.26.6 2l-.06.55.48.19c1.21.45 2.32 1.39 2.9 2.45.15.28.28.5.29.5.02 0 .29-.12.61-.27Zm3.87-.67.46-.54-.32-.25-.33-.25-.37.73c-.2.4-.33.76-.3.79.17.16.43.01.86-.48Zm11.86 0c.51-.27.68-1.12.31-1.59-.65-.82-1.9-.38-1.9.66.01.85.82 1.32 1.59.93Zm-8.54-.81c.28-.13.64-.38.8-.56l.3-.31-.55.07c-.97.11-2.6.71-2.6.95 0 .28 1.37.18 2.05-.15Zm-13.22-.15c.13-.11-.04-1.2-.19-1.2-.51 0-2.14.53-2.14.69 0 .41 1.96.84 2.33.51Zm11.17-.1c.58-.39 1.81-.78 2.71-.86.92-.09 1.04-.28 1.04-1.59 0-2.84-3.57-4.08-5.29-1.83l-.26.35.23.59c.18.49.22.81.23 1.84l.01 1.25.38.27c.46.34.4.34.95-.02Zm-10.25-.41c.42-.47.41-.5-.2-.59-.5-.08-.5-.07-.39.63.08.47.13.46.59-.04Zm17.47-.09c1.22-.34 1.67-1.86.82-2.8-.65-.72-1.53-.86-2.31-.39-1.68 1.03-.42 3.72 1.49 3.19Zm-20.41-.45c.29-.13.85-.29 1.24-.36l.7-.11.01-.77c.01-.5.09-.94.22-1.29l.21-.54-.34-.14c-1.46-.61-3.16.62-3.03 2.2.04.42.32 1.26.43 1.26.02 0 .27-.11.56-.25Zm3.54-.7c.12-.81-.42-2.15-.86-2.15-.25 0-.61 1.99-.41 2.28.07.1.64.27 1.08.31.07.01.15-.19.19-.44Zm20.74-.18c-.66-.5-.33-1.47.49-1.47.69 0 1.07.86.59 1.34-.29.28-.8.35-1.08.13Zm.85-.33c.2-.19.2-.34 0-.62-.21-.3-.59-.29-.8.03-.33.5.38 1.02.8.59Zm.66-2.66c-1.39-.95-.82-3.08.82-3.08 1.72 0 2.39 2.13.98 3.07-.46.32-1.34.32-1.8.01Zm-4.12-.08c-1.82-.96-1.12-3.77.93-3.74 2.1.03 2.75 2.82.87 3.8-.39.2-1.35.17-1.8-.06Zm5.78-.2c.87-.55.73-2.04-.23-2.41-1.23-.46-2.37.77-1.78 1.92.35.66 1.34.9 2.01.49Zm-8.3-.24c.29-.29.34-.41.34-.79 0-1.18-1.53-1.68-2.17-.71-.77 1.18.84 2.49 1.83 1.5Zm4.34.12c.93-.64 1.08-1.76.34-2.57-1.31-1.46-3.59.09-2.73 1.86.42.86 1.64 1.22 2.39.71Zm-5.14-3.79c-.48-.38-.28-1.2.33-1.34.33-.07.85.15.95.4a.815.815 0 0 1-1.28.94Zm.88-.25c.21-.2.2-.43-.01-.66-.31-.34-.83-.12-.83.36 0 .44.52.63.84.3Zm3.1-.58c-.89-.89.01-2.36 1.2-1.96.66.21 1.01 1 .72 1.62-.36.75-1.34.92-1.92.34Zm1.39-.16c.33-.26.41-.62.23-1.04-.36-.87-1.7-.56-1.7.41 0 .7.89 1.09 1.47.63Zm2.66-.73c-.5-.33-.75-.89-.6-1.37.31-1.03 1.41-1.32 2.18-.55 1.02 1.02-.38 2.73-1.58 1.92Zm1.38-.42a.97.97 0 0 0-.29-1.51.973.973 0 0 0-1.43.88c0 .88 1.14 1.31 1.72.63Z"/></svg>