<svg xmlns="http://www.w3.org/2000/svg" width="51" height="51" viewBox="0 0 51 51"><path fill="#fff" fill-rule="evenodd" stroke="#fff" stroke-width=".625" d="M23.75 45.39C16.4 44.63 9.97 39.61 7.37 32.6c-3.08-8.3-.34-17.73 6.68-22.97 14.6-10.91 34.42 2.38 30.47 20.42-.25 1.15-.74 2.58-.87 2.56-.13-.03-.13-.05.23-1.42 1.87-7.1-.61-14.4-6.43-18.94-7.28-5.69-18.44-3.52-23.87 4.65-6.85 10.3-1.43 24.85 10.13 27.2 4.56.93 8.8.05 13.02-2.7.59-.38 1.1-.7 1.13-.7.44 0-1.42 1.47-2.92 2.3-3.32 1.84-7.63 2.76-11.19 2.39Zm4.22-.34c1.26-.18 2.09-.37 3.37-.76 1.29-.4 1.19-.44-.2-.09-7.4 1.88-15.29-1.63-19.52-8.67-.58-.97-2.33-4.68-2.7-5.71-.24-.69-.27-.91-.27-2.17v-1.4l.63-2.15c1.06-3.61 1.41-4.64 1.97-5.78 3.89-7.9 12.91-11.67 21.3-8.91 6.18 2.04 10.97 7.77 11.99 14.36.21 1.31.21.15.01-1.39-1.28-9.78-10.66-17.27-20.5-16.39C12.15 7.06 4.13 18.45 6.9 30.35c2.2 9.44 11.66 16.04 21.07 14.7Zm-1.52-1.56c-5.1-.4-10.04-3.64-12.6-8.28-.66-1.19-.59-1.58.1-.53.58.87 2.56 2.79 3.64 3.51 7.93 5.27 18.53 1.9 21.87-6.96l.23-.62-.72.35c-3.61 1.73-7.48 1.62-12.42-.38-.82-.33-1.56-.62-1.62-.65-.47-.19.54 1.33 1.45 2.18 2.75 2.57 7.15 2.64 9.86.15.44-.41.46-.42.46-.21 0 .45-2.19 1.71-3.59 2.06-3.17.8-6.99-.9-8.32-3.68l-.34-.73-.82-.25c-.92-.29-2.19-.55-2.28-.47-.03.03-.05 1.26-.05 2.74v2.68h-3.1v-5.53l-.52.06c-1.45.18-3.51.99-4.83 1.91-1.06.74-.94.26.22-.85.7-.68 1.72-1.29 2.9-1.75 1.15-.43.92-.43-.42.01-1.08.35-2.53 1.02-3.21 1.49-.76.51-.65.1.19-.7 1.3-1.26 2.62-2.04 4.46-2.64l1.16-.38v-4.37l-1.83-.03-1.83-.02.03-1.53.03-1.52h10.6l.03 1.38.03 1.38.37-.45c2.5-3.03 6.87-3.6 10.05-1.32 1.34.95 1.34.92-.02 2.31-1.16 1.19-.94 1.15-1.91.4-2.56-1.99-6.45.06-6.58 3.46l-.04 1.07.57.21c3.82 1.43 8.49 1.3 12.2-.35l.58-.25-.06-1.22c-.15-2.93-.92-5.33-2.48-7.68s-4.98-5.08-7-5.6c-.44-.11-.69-.39-.36-.39.36 0 3.03.73 3.79 1.04 5.73 2.32 9.59 8.16 9.61 14.56.03 8.15-6.84 15.82-14.63 16.35-.47.03-1.07.07-1.35.09-.27.01-.95-.01-1.5-.05Zm3.38-.3c10.73-1.61 17.06-13.77 12.11-23.29-1.01-1.94-3.08-4.42-4.5-5.39l-.49-.33.45.38c2.64 2.24 4.31 4.64 5.3 7.63.39 1.17.67 2.47.56 2.58-.1.11-.14 0-.31-.82-.98-4.83-4.63-9.37-8.93-11.14-1.49-.61-1.51-.54-.12.4 2.72 1.84 5.04 4.9 5.99 7.91.63 2 .94 5.24.65 6.8-.08.46-.19 1.08-.24 1.38-.04.3-.22.93-.4 1.4-3.9 10.55-16.01 13.62-24.31 6.18-1.11-1-1.12-.99-.3.12 3.32 4.47 9.24 6.99 14.54 6.19Zm-16.34-5.76c-7.98-11.82-.11-28 13.86-28.52l1.8-.07-1-.08c-7.75-.67-15.34 4.55-17.68 12.14-2.26 7.32-2.26 7.29.38 12.65 1.01 2.03 1.81 3.31 2.68 4.24.55.6.54.51-.04-.36Zm7.61-5.87v-2.63l-.31-.07c-.17-.03-.78-.06-1.35-.06H18.4v5.4h2.7zm14.81-.01c1.53-.26 3.3-.99 3.84-1.56.35-.36.37-.37-.75.18-3.68 1.79-6.71 1.63-12.2-.62-4.86-1.99-7.18-2.23-10.29-1.04-.82.31-1.05.47-.4.29 2.81-.81 6.21-.53 9.34.77 4.61 1.92 7.6 2.48 10.46 1.98Zm-2.32-1.17c.47-.28.89-.53.93-.55.03-.02.3.17.59.42s.62.45.74.45c.68 0 2.99-.8 3.81-1.33.43-.27.46-.33.69-1.55l.07-.33-.39.24c-3.8 2.4-8 2.68-13.92.92-1.05-.32-1.94-.55-1.97-.52s.1.08.28.12c.53.11 3.27 1.15 3.98 1.5 1.01.51 3.13 1.09 4.14 1.14.1.01.57-.22 1.05-.51Zm1.59.46c.22-.06.21-.08-.15-.4-.21-.18-.41-.33-.45-.34-.08 0-1.28.71-1.28.76 0 .06 1.63.04 1.88-.02Zm.15-1.54c2.35-.46 5.17-1.78 5.17-2.42v-.28l-.57.26c-3.7 1.68-7.79 1.77-12.68.27-5.93-1.81-10.06-1.42-13.65 1.28-1.07.81-1.07.86.02.34 3.72-1.76 7.27-1.89 12.13-.45 4.56 1.36 6.67 1.58 9.58 1Zm-8.47-3.04c-.11-.6.11-1.73.5-2.47 1.34-2.55 4.63-3.3 6.76-1.53l.42.35 1-1.01 1.01-1.01-.45-.41c-2.21-1.98-5.63-2.36-8.3-.9-2.01 1.09-3.54 3.48-3.76 5.86l-.06.73.97.23c.54.12 1.15.28 1.34.35.58.22.64.19.57-.19Zm-7.41-.56c.39-.05.91-.1 1.17-.1h.48l.02-2.07.03-2.08 1.93-.03L25 21.4v-2.6H14.7v2.6h3.7v2.26c0 2.1.01 2.25.17 2.2.1-.03.5-.1.88-.16Zm4.38-.64c.06-.9.41-2.11.83-2.85.33-.61.32-.61-1.56-.61h-1.69l-.03.93c-.02.5-.01 1.43 0 2.05l.04 1.12.61.01c.5.01 1.29.09 1.68.18.03 0 .09-.37.12-.83Z"/></svg>