<svg xmlns="http://www.w3.org/2000/svg" width="51" height="51" viewBox="0 0 51 51"><path fill="#fff" fill-rule="evenodd" stroke="#fff" stroke-width=".653" d="M23.1 46.69C8.9 45.05.25 30.09 5.93 16.97 9.25 9.29 16.53 4.42 24.95 4.23c17.92-.41 28.28 19.85 17.47 34.19-4.44 5.91-11.95 9.12-19.32 8.27Zm4.92-.25c10.93-1.41 18.68-10.45 18.46-21.53C46.16 9.47 29.87-.3 16 6.65c-11.22 5.62-15.07 20-8.14 30.4 4.43 6.66 12.44 10.39 20.16 9.39Zm-3.97-7.05c-8.86-1.07-14.39-9.76-11.6-18.23 2.84-8.64 13.3-12.17 20.94-7.06 1.1.74 1.09.72.19 1.47-.4.33-1.35 1.13-2.12 1.77-1.59 1.34-1.37 1.26-2.3.81-5.47-2.63-11.8 1.38-11.79 7.45.02 8.38 11.05 11.33 15.35 4.1.27-.46.54-.94.59-1.07l.09-.23h-7.9v-5.6h13.68l.05.23c.31 1.23.31 3.51.01 5.08-1.35 7.14-8.09 12.14-15.19 11.28Zm4.7-.52c5.28-1.35 9.07-5.28 10.23-10.62.18-.87.24-3.87.09-4.77l-.08-.48H25.7v1.1l6.18.02 6.17.03.08.75c.62 5.98-3.82 11.81-9.93 13.01-10.11 2-18.26-7.92-14.22-17.3 2.78-6.44 10.48-9.4 16.92-6.49.79.35 2.1 1.16 2.1 1.29 0 .16-.17.1-.63-.21-5.32-3.59-13.44-1.98-17 3.37-5.76 8.67.48 19.74 10.87 19.3 6.63-.29 11.41-5.15 11.63-11.84l.06-1.73H25.7v1.1l5.53.02 5.52.03.03.55c.35 5.97-5.87 11.5-12.16 10.8-6.06-.67-10.26-5.23-10.26-11.15 0-7.47 6.88-12.81 14.11-10.96 1.27.33 3.33 1.27 3.33 1.52 0 .14-.03.13-1.23-.46-3.56-1.73-7.82-1.49-11.05.65-6.5 4.28-6.66 13.89-.31 18.17 7.25 4.89 16.56.55 17.34-8.08l.07-.76-.78-.06c-.44-.03-2.89-.06-5.46-.07l-4.68-.01v1.11h9.7v.29c0 .46-.48 1.98-.9 2.89-1.91 4.07-6.41 6.27-10.91 5.34-5.31-1.1-8.67-6.02-7.74-11.33.26-1.5 1.15-3.62 1.41-3.36.03.03-.1.36-.29.73-2.16 4.29-.89 9.46 2.96 12.12 5.16 3.56 12.02 1.72 14.49-3.89.5-1.13.83-2.4.66-2.51-.1-.06-5.54-.05-8.85.01l-.53.01v1.2h3.95c4.56 0 4.21-.1 3.59 1.07-1.64 3.1-4.27 4.75-7.59 4.76-6.27.01-10.37-6.36-7.73-12.03 1.95-4.22 7.03-6.07 11.24-4.11l.8.38.81-.66c2.66-2.2 3.24-2.73 3.12-2.87-.48-.58-3.29-1.95-4.86-2.36-1.51-.4-4.75-.48-6.18-.14-6.58 1.53-10.9 6.87-10.88 13.46.02 6.6 4.78 12.19 11.38 13.35 1.32.23 4.14.14 5.4-.18Zm-9.73-20.69c.08-.23 1.81-1.33 2.61-1.67 2.05-.85 4.76-1.04 6.62-.47 1.09.33 2.35.93 2.35 1.12s-.03.18-.63-.15c-3.01-1.7-7.34-1.32-10.25.89-.53.41-.77.5-.7.28Z"/></svg>