<svg xmlns="http://www.w3.org/2000/svg" width="51" height="51" viewBox="0 0 51 51"><path fill="#fff" fill-rule="evenodd" stroke="#fff" stroke-width=".707" d="M6.45 50.29c-2.69-.76-4.69-2.7-5.52-5.34l-.28-.9L.62 26.5C.59 7.61.6 7.26 1.09 5.84c.83-2.43 3-4.41 5.44-4.99C7.64.59 43.7.63 44.74.9c2.67.68 4.89 2.94 5.56 5.65.2.79.2 1.11.18 19.3l-.03 18.5-.31.87c-.91 2.54-3 4.45-5.61 5.13-1.02.27-37.13.21-38.08-.06ZM44.92 50c2.55-.82 4.54-2.91 5.18-5.45.2-.8.2-1.01.18-19.2l-.03-18.4-.23-.7c-.88-2.61-2.86-4.51-5.4-5.16-1.2-.3-36.97-.3-38.16.01-2.55.65-4.7 2.84-5.37 5.45-.3 1.2-.36 36.86-.06 38 .7 2.65 2.71 4.71 5.37 5.49l.85.25h18.37L44 50.3zm-34.03-5.89c-1.1-.35-2.05-1.31-2.29-2.31-.07-.32-.1-5.14-.08-16.15l.03-15.7.26-.56c.83-1.77 1.67-2.02 6.59-1.98l3.35.02.4-.24c.58-.35 1.58-.34 2.4.03.56.25.7.27 1.98.27h1.38l.37-.41c.74-.82 1.89-1.04 2.97-.55.84.39 1.6 1.03 3.85 3.22 1.13 1.1 2.64 2.54 3.35 3.2 5.59 5.14 8.95 9.03 10.36 11.99 1.58 3.32 1.24 6.82-.97 10.11-3.19 4.74-8.5 8.01-12.54 7.71l-.85-.07-.5.52c-.28.29-.74.63-1.05.78l-.55.26-8.95.02c-8.41.02-8.98.01-9.51-.16Zm18.86-.29c.49-.23 1.45-1.06 1.45-1.27 0-.05-.39-.24-.88-.42-.48-.17-3.52-1.29-6.77-2.48-5.39-1.98-5.93-2.16-6.21-2.06-.44.16-5.36.15-5.52-.01-.17-.17-.17-17.89 0-18.06.09-.09.09-.18-.01-.38-.2-.45-.24-1.35-.07-1.88.09-.29.12-.54.07-.6-.1-.12-.06-2.39.04-2.55.03-.06.4-.11.84-.11h.78l-.31-.62c-.4-.8-.44-1.88-.09-2.53.86-1.61 2.66-1.71 4.56-.26l.66.51-.22-.48c-.32-.72-.28-1.64.1-2.34l.3-.55-.81-.07c-1.29-.1-5.45-.07-6.16.05-1.22.19-2.01.75-2.49 1.78l-.26.56v31.7l.22.46c.42.84 1.21 1.48 2.13 1.73.47.13 1.83.15 9.35.13l8.8-.02zm4.44-1.57c5.08-.97 10.61-5.99 11.93-10.83.31-1.12.31-3.44 0-4.56-.91-3.29-3.92-7.05-10.72-13.39a300 300 0 0 1-3.85-3.67c-1.99-1.94-2.64-2.49-3.39-2.87-1.99-1.01-3.94 1.03-2.93 3.08.23.47 4.63 4.87 6.31 6.31.28.24.32.58.07.58-.06 0-1.4-1.23-2.98-2.72-1.59-1.5-3.33-3.13-3.88-3.63s-1.46-1.34-2.02-1.88c-1.16-1.1-1.62-1.36-2.44-1.37-1.7 0-2.69 1.67-1.94 3.28.26.56 1.27 1.58 6.2 6.26 2.36 2.25 2.57 2.47 2.35 2.61-.12.08-.94-.67-5.28-4.8-4.84-4.62-5.01-4.75-6.27-4.83-1.84-.12-2.83 1.53-2.04 3.38.25.57.79 1.12 5.19 5.28 4.59 4.35 5.8 5.53 5.8 5.69 0 .27-.37.11-.8-.33-1.77-1.83-8.09-7.59-8.58-7.82-1.57-.72-3.07.3-3.05 2.07.01 1.09.22 1.42 2.23 3.41 12.32 12.26 12.51 12.45 12.48 12.7-.05.39-.22.36-2.54-.51-2.61-.97-3.43-1.19-4.4-1.19-2.24 0-4.6 1.92-4.16 3.38.2.67-.15.52 8.72 3.76 2.06.76 4.35 1.6 5.09 1.88 2.43.9 3.29 1.03 4.9.73Zm-17.87-5.07c-2.98-1.18-.31-5.08 3.47-5.08.88 0 1.74.23 4.06 1.1 1.04.39 1.99.74 2.1.77.38.12-.98-1.28-7.48-7.71L12 19.85l-.01 3.1c0 1.71-.02 5.35-.03 8.1-.02 2.75-.01 5.3.01 5.68l.05.67 2.41-.01h2.42zM13.1 15.49c.2-.06.64-.09.98-.07l.62.03-.57-.57-.57-.58H12v2.01l.37-.36c.2-.19.53-.4.73-.46Zm11.83-5.41c-.28-.56-.36-1.4-.2-2.05l.09-.33h-1.36c-.75 0-1.36.02-1.36.04 0 .05 3.02 2.86 3.07 2.86.02 0-.09-.24-.24-.52Z"/></svg>