<svg xmlns="http://www.w3.org/2000/svg" width="51" height="51" viewBox="0 0 51 51"><path fill="#fff" fill-rule="evenodd" stroke="#fff" stroke-width=".316" d="M10.42 50.97c-.92-.98.23-2.31 1.34-1.55.65.45 1.11 1.61.68 1.75-.06.02-.08-.1-.06-.31.08-.67-.65-1.46-1.35-1.46-.75 0-.98.96-.38 1.56.14.14.19.24.11.24-.07 0-.22-.1-.34-.23Zm35.7-.43c-.76-.69-.85-.84-.51-.84.11 0 .17-.04.14-.1-.03-.05.01-.1.09-.1.09 0 .16.06.16.14s.26.35.58.59c.64.5 1.11.97.96.97-.06 0-.23-.14-.4-.31-.32-.34-1.33-1.03-1.41-.96-.02.03.27.3.66.61s.71.59.71.61c0 .18-.36-.04-.98-.61Zm-37.89-.59c-.71-.75-.7-1.27.04-1.33.66-.05 1.32.66 1.18 1.29-.14.62-.64.64-1.22.04Zm.99-.01c.23-.51-.33-1.14-1.02-1.14-.37 0-.4.27-.08.73.46.69.9.85 1.1.41Zm37.5-.02c-.68-.43-.56-1.15.16-.97.33.08.77.38.64.43-.06.02-.22-.04-.34-.12-.27-.19-.5-.2-.66-.04-.13.13.02.48.22.48.07 0 .23.11.36.25.3.32.17.31-.38-.03Zm-2.3-.04c-.32-.32.01-.79.44-.59.35.16.31.65-.06.69-.14.02-.31-.03-.38-.1Zm-6.55-1.36c-.2-.22-.24-1.36-.06-1.48.08-.04.1.14.07.61-.02.45.01.7.08.72.14.05.29-.86.19-1.16-.03-.12-.02-.21.03-.21.16 0 .23.65.13 1.09-.09.42 0 .55.18.24.14-.25.25-.09.11.16-.13.26-.51.27-.73.03Zm9.05-.44c-.33-.33.13-.8.53-.54.3.2.31.28.07.49-.22.2-.43.22-.6.05Zm-42.29-.23c-.57-.4-.47-1.45.17-1.78.89-.46 2.07.41 1.61 1.2-.09.15-.1.13-.11-.14-.01-.93-1.05-1.39-1.66-.72-.63.7.22 1.74 1.07 1.29.12-.07.19-.07.19-.01 0 .3-.91.41-1.27.16Zm36.07-.32c-1.1-.77-.76-1.97.51-1.8.87.12 1.3 1.05.78 1.71-.25.32-.9.36-1.29.09Zm7.54.02c-.13-.34 0-.6.31-.6.18 0 .3.05.29.13-.01.06-.02.22-.03.35-.01.25-.49.35-.57.12Zm-6.5-.11c.23-.09.39-.66.27-.97-.26-.68-1.81-.75-1.81-.08 0 .72.87 1.31 1.54 1.05Zm-18.66-.35c-10.37-1.34-17.65-10.7-16.57-21.3.78-7.75 6.2-14.24 13.63-16.33l1.08-.31.02-1.87c.02-2.35.12-2.48 2.02-2.48.5 0 .68-.1.44-.25-.74-.46-.67-2.35.12-3.21.16-.18.17-.27.09-.65-.14-.6-.13-.69.04-.69.1 0 .15.1.15.31 0 .17.07.47.16.66l.17.34-.32.29c-.78.72-.92 2.41-.23 2.83.05.04 0-.12-.11-.34-.4-.81-.15-2.04.49-2.46.39-.25 2.38-.25 2.77 0 .71.46.9 1.61.42 2.46-.3.51-.27.68.03.19.57-.94.49-1.92-.23-2.62-.34-.34-.4-.45-.34-.66.04-.14.07-.42.08-.62.01-.28.05-.38.17-.38.14 0 .15.08.09.55-.06.53-.05.57.28.95.73.85.75 2.4.04 2.99-.29.24-.19.28.75.36 1.12.08 1.35.17 1.49.52.14.38.28 2.92.17 3.21-.13.37.06.59.69.77C44.1 13.1 49.19 29.31 40.39 40.3c-4.04 5.06-10.64 7.65-17.31 6.79ZM0 47.01c0-.05.09-.11.2-.14.46-.12.49-1.1.05-1.46-.33-.25-.33-.47-.01-.26.56.37.7 1.16.3 1.64-.24.29-.54.41-.54.22Zm27.05-.12c.33-.06.93-.13 1.34-.15 1.52-.07 3.61-.66 5.46-1.53 1.65-.79 2.12-1.13 3.67-2.68.81-.8 1.51-1.43 1.55-1.39.04.03-.33.48-.83.99-.49.5-.71.76-.49.57 8-6.94 9.05-18.96 2.35-27.1-.82-1-2.99-3.05-2.66-2.52.17.29-1.4-.82-1.89-1.33-.48-.49-2.83-1.54-4.59-2.05-1.04-.3-1.36-.52-1.36-.93 0-.19-.01-.19-.12-.05s-.22.15-.83.06c-1.06-.15-4.67-.2-4.76-.07-.04.08-.12.08-.26.01-.13-.07-.23-.08-.3-.01-.18.18-1.43.21-1.43.03 0-.26-.25-.09-.28.19-.04.34-.31.51-1.02.67-.92.21-2.1.6-2.1.7s-1.12.7-1.3.7c-.06 0-.08-.05-.05-.11.11-.16-1.13.49-1.95 1.04-4.22 2.8-7.23 7.23-8.19 12.02-.34 1.7-.53 4.98-.29 4.93.07-.02.19.42.34 1.27.34 1.97.3 2.6-.06.89-.1-.49-.19-.79-.19-.67-.06 1.64 1.82 6.76 3 8.23.14.17.11.09-.06-.23-.38-.67-.24-.71.18-.06.44.69.59.99.51.99-.03 0-.15-.1-.26-.22-.11-.13 0 .06.24.42 1.21 1.82 4.17 4.24 6.86 5.64 1.24.63 4.14 1.59 3.52 1.15-.11-.08-.01-.09.35-.04.62.09.77.17.45.25-.22.06.95.27 2.35.44.71.08 2.55.05 3.1-.05ZM11 46.19c-1.23-.51-.91-2.49.41-2.49.81 0 1.02.26.97 1.21-.05 1.09-.6 1.6-1.38 1.28Zm.98-.33c.5-.49.11-1.46-.58-1.46-.88 0-1.17.38-.83 1.07.29.6 1.01.8 1.41.39Zm8.97.08c-.33-.08-.64-.2-.7-.26-.07-.07-.03-.09.15-.05.14.04.7.13 1.25.22 1.27.2 1.35.23.55.23-.36 0-.92-.06-1.25-.14ZM50 45.3c0-.12.07-.34.15-.5.14-.27.14-.3 0-.3-.09 0-.13-.05-.09-.11.03-.06.01-.14-.05-.18-.09-.06-.06-.15.08-.32.11-.13.2-.19.21-.12 0 .06-.04.15-.1.18-.05.03-.1.11-.1.17 0 .23.3-.16.42-.53.06-.22.15-.39.2-.39.12 0 .1.18-.08.51-.08.17-.17.38-.19.47-.15.79-.45 1.53-.45 1.12Zm.51-.16c-.01-.25.38-1.54.51-1.71.06-.07.08-.2.04-.28-.03-.09-.02-.13.04-.1.23.14.03 2.25-.22 2.25-.05 0-.07-.08-.04-.18.12-.39.25-1.08.25-1.27 0-.11-.06.03-.13.3-.18.68-.44 1.27-.45.99Zm-18.71-.29c0-.02.37-.22.82-.44.46-.22 1.21-.63 1.67-.91.99-.6 1.19-.6.29.01-1.06.72-2.78 1.55-2.78 1.34Zm15.73-.02c-.07-.02-.13-.13-.13-.22 0-.2.37-.58.46-.48.09.09-.06.28-.17.22-.05-.04-.09.03-.09.14 0 .42.31.07.77-.88.27-.55.48-.89.51-.79.02.09-.13.47-.32.84-.2.37-.36.73-.36.8s-.1.2-.22.28c-.24.17-.26.17-.45.09Zm-35.33-.37c0-.54-1.04-.81-1.43-.38-.16.17-.14.18.38.18.44-.01.59.03.77.22.28.27.28.27.28-.02Zm-8.77-.52c.37-.2.34-.22-.17-.17-.38.05-.48.02-.71-.21-.29-.29-.33-.95-.06-1.04.11-.04.12 0 .06.14-.21.51.09.94.66.94.46 0 .55-.12.33-.45-.14-.21-.14-.24-.02-.2.16.06.38.47.38.69 0 .19-.33.46-.56.46-.15-.01-.14-.04.09-.16Zm.47-.64c0-.05.06-.1.14-.1s.22-.07.3-.16c.57-.56-.43-1.72-1.15-1.34-.12.07-.19.07-.19.01 0-.18.41-.33.74-.27.79.15 1.22 1.28.7 1.81-.17.17-.54.2-.54.05Zm31.56-.03c.03-.08.53-.57 1.12-1.08.59-.52 1.42-1.3 1.84-1.74.43-.44.78-.74.78-.67 0 .17-1.17 1.38-2.47 2.55-1.18 1.05-1.37 1.19-1.27.94Zm15.19-1.22c.41-1.22.55-1.53.55-1.24 0 .4-.76 2.49-.9 2.49-.04 0 .11-.56.35-1.25Zm-2.95.88c0-.06.28-.44.61-.85.34-.4.8-.99 1.02-1.3.44-.62.56-.67.38-.17-.09.27-.09.3.04.19.08-.07.15-.08.15-.02 0 .16-.27.35-.32.21-.02-.06-.29.2-.6.59-.32.38-.54.73-.5.77s.02.05-.05.03c-.06-.01-.25.13-.42.32s-.3.3-.31.23Zm0-1.99c-.23-.52-.23-.54-.11-.54.05 0 .12.1.16.22.06.2.08.21.12.05.03-.1 0-.24-.06-.31-.08-.1-.08-.16.01-.23.37-.28.61-.21.7.22.04.17.08.14.21-.15.09-.19.16-.27.17-.18 0 .22-.21.68-.32.68h-.15c-.05 0-.09-.09-.09-.2-.02-.27-.1-.34-.31-.26-.15.06-.15.08-.03.16.12.07.13.15.03.39-.09.24-.08.31.03.35.19.07.18.26-.01.26-.09 0-.24-.2-.35-.46Zm-35.59-.57c-.79-.91-2.15-2.76-2.08-2.83.03-.03.27.25.53.63.26.37.88 1.17 1.37 1.76 1.01 1.21 1.14 1.56.18.44Zm10.39.37c-2.84-.16-6.05-.55-6.4-.76-.58-.36-1.15-2.64-1.79-7.13-.86-6.04-.93-14.96-.13-16.04 1.04-1.41 14.48-1.83 21.4-.66 1.59.26 1.7.47 1.92 3.7.45 6.66-.98 19.11-2.31 20.08-.71.52-8.76 1.03-12.69.81Zm-13.41-.2c-.26-.07-.53-.21-.6-.31-.12-.14-.12-.15.01-.1.62.25 1.29.39 1.67.34.36-.04.42-.02.32.09-.15.18-.8.17-1.4-.02ZM.7 40.4c-.47-.47-.13-1.3.53-1.3.43 0 .67.26.67.73 0 .46-.29.77-.7.77a.8.8 0 0 1-.5-.2Zm30-.16c2.29-.18 4.06-.41 4.31-.57 1.25-.78 2.66-15.2 2.04-20.98-.21-2.05-.17-2-2.2-2.29-5.4-.79-13.06-.78-18.49.01-2.05.3-2.03.27-2.25 2.15-.51 4.28.05 12.47 1.24 18.29.59 2.87.58 2.86 1.76 3.03 3.92.58 9.05.72 13.59.36Zm-29.16.03c.34-.25.18-.91-.22-.95-.43-.04-.62.12-.62.52 0 .52.42.74.84.43Zm21.96-.14c-4.29-.08-6.93-.42-7.19-.92-.29-.54-1.18-5.68-1.5-8.66-.54-5.07-.58-12.61-.07-13.44.15-.24 3.46-.63 6.86-.82 4.57-.25 13.22.17 14.64.71.76.28.72 9.64-.05 15.3-.49 3.61-1.11 6.77-1.38 7.03-.42.42-6.11.94-9.36.85-.38-.01-1.26-.03-1.95-.05Zm6.11-.33c3.82-.2 4.99-.4 5.15-.91.11-.33.66-3.19.85-4.44.05-.33.12-.71.15-.84l.05-.24-1.55.07c-.85.03-1.76.09-2.01.13l-.46.06.08-1.74c.18-3.87-.06-14.91-.33-15.18-.05-.06-1.88-.18-3.84-.25-1.49-.06-1.53-.06-1.03.09 1.73.49 3.07 1.89 3.28 3.44.04.28.1.51.15.51.17 0 .18.32.04.86-.13.51-.13.59.01.74.39.43-.27 3.23-.8 3.36-.18.04-.24.15-.29.54-.17 1.31-.8 2.43-1.71 3.05-.63.44-.65.47-.27.44.59-.05.62-.02.62.5 0 .79-.02.81-.82.81-.68 0-.7.01-.64.23.11.37.19 2.74.1 2.8-.05.03-.27.07-.49.08l-.4.04.03-.78c.04-.93 0-.95-.29-.16-.25.69-.34.75-.84.59-.44-.15-.45-.1.15-1.48.28-.64.5-1.2.5-1.24s-.35-.08-.79-.08h-.79l-.05-.57c-.06-.67.06-.83.62-.84h.36l-.25-.17c-1.04-.71-1.86-1.98-1.97-3.07-.05-.44-.09-.55-.24-.55-.59 0-1.38-3-.9-3.44.18-.17.18-.19 0-.89-.25-.95-.24-1.06.08-1.39.25-.26.26-.31.15-.6-.15-.39-.01-.67.38-.75.27-.05.28-.07.14-.27-.16-.26-.1-.36.21-.36.11 0 .37-.16.56-.36.43-.45 1.12-.81 1.92-.99l.62-.15-1.3.05c-3.72.13-4.05.16-4.1.39-.26 1.17-.47 7.02-.43 11.96l.03 4.75-.45-.03c-1.32-.09-3.35-.19-3.37-.18-.03.02.5 2.97.9 5.04.08.4.18.77.24.83.51.51 7.94.84 13.04.59Zm17.75-.03c-.24-.17-.26-1.05-.04-1.18.1-.05.14-.17.11-.29-.04-.15.02-.22.22-.3.34-.13.88-.13.8 0-.03.05-.21.1-.38.1-.18 0-.39.05-.47.1-.12.08-.09.1.12.1.15 0 .3.04.33.1s-.01.1-.1.1c-.57 0-.97 1.04-.45 1.17.11.03.2.09.2.14 0 .13-.13.11-.34-.04Zm2.84-.39c0-.31.19-.61.21-.33 0 .13.07.06.21-.23.15-.33.17-.47.08-.57-.14-.17-.06-.47.2-.7.27-.25.37-.12.11.14-.29.29-.3.62-.01.36.25-.23.25-.12.01.39-.11.23-.26.58-.35.79-.17.41-.46.51-.46.15Zm-48.08.06c-.17-.08-.42-.58-.42-.87 0-.61 1.03-.93 1.36-.42.39.59-.31 1.55-.94 1.29Zm.63-.39c.58-.57.07-1.24-.66-.85-.23.13-.25.57-.03.88.2.29.39.28.69-.03Zm19.1.06c-.3-.13-.53-.36-.85-.84-.25-.37-.48-.67-.51-.67-.14 0-.16.75-.02.85.09.07.1.19.05.4l-.08.3-1.05-.04c-1.21-.04-1.19-.03-1.19-.42 0-.22.06-.32.25-.39.14-.05.25-.11.25-.12 0-.02.09-.64.2-1.38.17-1.18.18-1.36.05-1.46-.08-.06-.15-.23-.15-.38v-.26h2.4v.34c0 .24-.05.35-.17.38-.11.02-.2.21-.28.56-.14.61-.15.61.64-.01.54-.41.6-.49.49-.66-.26-.42-.07-.51 1.17-.51 1.03 0 1.15.02 1.15.18 0 .26-.07.33-1.12 1.05-.53.37-1 .72-1.03.77-.08.13 1.02 1.58 1.44 1.9.72.56-.6.88-1.64.41Zm2.15.08c0-.06.13-.75.29-1.53.36-1.74.39-2 .23-2.19-.09-.1-.1-.22-.02-.41l.1-.26h2.15c2.43 0 2.3-.05 2 .8-.22.61-.19.7.1.3.61-.86 1.86-1.35 3.31-1.28 1.08.04 1.14.1.88.9-.24.74-.56.92-.75.41-.35-.92-1.76-.34-2.09.85-.33 1.25.45 1.75 2.13 1.36.24-.06.27-.03.27.17-.01.72-.45.93-1.95.93-1.75 0-2.59-.98-2.25-2.63.04-.2 0-.26-.2-.31a.42.42 0 0 1-.3-.3c-.05-.23-.11-.25-.73-.28-.73-.03-.71-.05-.82.61l-.06.37h.76c.82 0 .85.03.66.7-.06.23-.12.25-.86.3l-.79.05-.09.43c-.07.35-.05.46.07.55.1.08.14.2.1.35-.07.25-2.14.36-2.14.11Zm-.5-.17c0-.04-.09-.13-.2-.19-.1-.07-.51-.54-.9-1.04l-.71-.92.27-.28c.14-.15.64-.54 1.1-.85.99-.68.96-.76-.28-.72-.76.03-.81.04-.65.2.09.09.17.21.17.26 0 .17-1.73 1.43-1.83 1.33-.16-.16.12-1.39.35-1.55.36-.26.11-.36-.88-.36-.53 0-.94.03-.92.08.02.04.1.19.17.33.11.22.1.47-.08 1.65-.21 1.31-.29 1.53-.58 1.54-.45 0-.05.28.48.34.99.1 1.29.08 1.29-.09 0-.08-.04-.15-.1-.15-.13 0-.13-.27.01-.9.13-.62.21-.62.62-.03.62.92 1 1.26 1.48 1.33.62.1 1.19.11 1.19.02Zm2.4-.01c0-.06-.05-.13-.11-.17-.11-.06-.06-.84.07-1.18.03-.09.31-.15.81-.19.84-.06.78-.04.87-.35.07-.21.06-.22-.68-.22-.86 0-.85.02-.65-.9l.11-.51.86.03c.82.03.86.04.92.27.1.42.24.33.42-.26l.16-.56-1.95.06c-2.1.06-2.12.06-1.94.4.11.21-.18 2.21-.49 3.35l-.08.32h.84c.46 0 .84-.04.84-.09Zm6.22-.16c.35-.14.22-.48-.14-.39-1.66.37-2.54-.7-1.83-2.19.45-.96 2.06-1.34 2.31-.55.09.3.21.21.38-.29.19-.56.21-.53-.47-.6-2.45-.25-4.57 1.72-3.62 3.36.41.7 2.37 1.08 3.37.66ZM.17 38.32c-.22-.24-.23-1.14-.03-1.31.46-.39 1.16-.02 1.16.61 0 .7-.73 1.14-1.13.7Zm.77-.18c.5-.49-.03-1.36-.6-.99-.44.29-.24 1.15.26 1.15.1 0 .26-.07.34-.16Zm2.58-.26c-.21-.21-.14-.82.11-1.06.3-.28.87-.3.87-.03 0 .77-.61 1.46-.98 1.09Zm.57-.26c.12-.23.25-.92.17-.92-.32 0-.66.33-.66.64 0 .48.29.65.49.28Zm41.55-.01c.19-.3.92-.55 1.8-.59.57-.03.87-.01.83.05s-.44.13-.9.15c-.47.03-.93.1-1.03.16-.15.09-.11.1.21.06s.36-.03.23.06c-.26.16-1.23.26-1.14.11Zm-3.98-.68c.14-.37.36-.95.47-1.28.15-.4.23-.53.25-.39.04.28-.69 2.26-.86 2.32-.08.02-.03-.2.14-.65Zm3.59-.1c-.53-.06-.59-.13-.75-.79-.11-.46-.11-.57 0-.64.25-.15 2.34-.5 3.94-.65l.69-.07-.44-.2c-.66-.3-2.28-.85-2.74-.93-.61-.1-.76-.16-.7-.25.17-.28 3.83.97 4.1 1.4.11.17.09.18-1.13.29-1.29.12-3.1.4-3.31.51-.22.12 1.7.2 4.12.17 1.19-.01 2.17.01 2.17.06 0 .08-.59.23-.75.18-.05-.02-1.11-.02-2.35-.02-1.24.01-2.52-.03-2.84-.09-.71-.11-.69-.12-.55.29.08.22.16.3.26.27.31-.12 1.23-.19 1.23-.09 0 .06-.28.14-.62.18l-.63.08.45.08c.25.04 1.38.05 2.51.02 1.28-.04 2.12-.02 2.23.04.29.16-3.62.28-4.89.16Zm-35.59-.91c-.45-.87-1.7-5.19-1.42-4.91.03.02.28.85.56 1.83.28.99.65 2.13.81 2.54.3.76.33 1.09.05.54Zm-6.03-.12c-.47-.19-.6-1.07-.21-1.34.42-.3.91-.19 1.14.25.32.63-.29 1.34-.93 1.09Zm.52-.22c.54-.24.35-1.08-.25-1.08s-.77.61-.28 1.02c.24.21.21.21.53.06Zm-3.77-.79c.17-.18.15-.47-.04-.66-.1-.11-.14-.26-.1-.45.04-.21.02-.28-.09-.28-.38 0-.1-.19.31-.22.63-.04.81-.3.42-.59-.31-.23-.36-.39-.13-.39.08 0 .14.04.12.09-.01.04.08.17.21.27.33.27.17.68-.32.84-.4.13-.46.35-.2.75.2.31.15.69-.11.73-.16.03-.18.01-.07-.09Zm49.02-.53c-.3-.13-.78-.33-1.05-.46s-.86-.38-1.3-.56c-.59-.24-.8-.37-.8-.51 0-.2 1.08-.3 1.93-.18.78.12.43.2-.7.18-1.05-.03-1.11-.02-.83.11.39.19 2.48 1.09 3.03 1.31.23.1.42.21.42.26 0 .13-.08.11-.7-.15Zm-23.25-1.21c0-.33-.04-1.02-.08-1.52l-.09-.93h.59c.71 0 .82-.07.9-.54l.06-.38-.79.06c-.98.08-1.28.08-2.31 0l-.83-.06v.92h.85c1.02 0 1-.09.35 1.4-.57 1.32-.58 1.36-.27 1.42.2.04.26-.04.56-.84.46-1.21.61-1.18.61.13 0 .98 0 1 .23.97.2-.03.22-.08.22-.63Zm23.3.35c-.04-.06.08-.11.27-.11.18-.01-.2-.07-.85-.14-1.58-.18-1.62-.29-.07-.21 1.29.06 1.53.14 1.3.41-.14.17-.56.2-.65.05Zm-30.49-2.92c-.09-2.56.01-7.96.21-11.49l.05-.86-.39-.06c-.21-.04-1.19-.07-2.19-.07h-1.81l-.07.73c-.29 3.28.06 11.83.59 14.13.04.2.14.22 1.62.31.87.05 1.69.1 1.83.11l.25.02zm15.76 2.66c.97-.06 1.07-.08 1.12-.28.08-.32.44-3.63.58-5.31.13-1.69.15-7.73.02-8.8l-.09-.7h-2.17c-1.19 0-2.19.02-2.21.05-.03.03 0 .66.06 1.4.13 1.52.16 12.95.04 13.49l-.07.34.82-.06c.46-.04 1.31-.09 1.9-.13Zm15.81-.91c-.35-.02-.63-.08-.63-.13 0-.06-.22-.1-.48-.1-.46 0-.5-.03-.96-.55-.57-.66-.48-.73.14-.1l.44.45h.91l.9-.01-.4-.21c-.22-.12-.87-.41-1.45-.65-1.12-.46-1.34-.61-1.21-.81.06-.1.19-.1.59-.01.61.13.7.3.12.22-.57-.08-.5.01.23.27.34.13.97.41 1.39.62.43.21.84.38.93.38.11 0 .15.1.15.35 0 .19-.01.34-.02.33a8 8 0 0 0-.65-.05Zm-.33-1.4c-1.03-.39-1.06-.4-.97-.49.11-.11 1.97.57 1.97.72 0 .08-.01.14-.02.13-.02 0-.46-.16-.98-.36ZM0 30.68c0-.08.15-.13.4-.13.75-.01.99-.78.29-.92-.26-.05-.28-.08-.15-.15.43-.24.92.51.63.96-.21.32-1.17.51-1.17.24Zm21.54-.12c-.29-.22-.04-.4.55-.4.6 0 .93.21.65.41-.24.17-.95.17-1.2-.01Zm6.79.04c-.14-.06-.21-.15-.17-.24.12-.31 1.36-.27 1.42.06.05.26-.76.37-1.25.18Zm-2.28-1.49c.1-.2.11-.45.04-1.06-.04-.44-.08-.88-.08-.97-.01-.28.18-.21.25.1.11.46.15.45.5-.04.41-.57.45-.89.12-.78-.89.28-1.82.32-2.16.08-.13-.09-.37-.14-.58-.12l-.36.03.38.57c.21.31.41.55.46.52.04-.03.08 0 .08.07 0 .08.04.08.15-.01a.54.54 0 0 0 .15-.36c0-.25.21-.45.28-.25.02.07.19.29.38.49.36.39.53 1.2.19.92-.08-.07-.15-.19-.15-.26 0-.08-.04-.14-.1-.14-.05 0-.1.09-.1.21 0 .21 0 .21-.19-.02-.22-.28-.38-.2-.22.09.14.26.14.52.01.52-.05 0-.11-.12-.11-.27-.01-.23-.03-.24-.06-.06-.05.26.3.98.54 1.12.21.11.38 0 .58-.38Zm23.97-.41c-.27-.36-.28-.5-.03-.5.26 0 1.21.41 1.21.52 0 .1-.31.03-.72-.18s-.54-.17-.3.09c.12.13.22.26.22.3 0 .16-.18.05-.38-.23Zm-25.53-.31c-.21-.64-.57-1.24-.75-1.24-.22 0-.61-.65-.7-1.15-.04-.19-.11-.38-.16-.41-.19-.12.14-.61.62-.91.45-.28.55-.42.48-.65-.04-.11-1.58-.16-1.58-.06 0 .04.12.26.26.46.33.5.21.62-.17.17-.36-.43-.41-1-.08-1 .16 0 .19-.04.14-.17-.04-.1-.12-.31-.17-.48-.26-.77-.61-1.06-.91-.76-.08.08-.05.11.1.11.3 0 .32.06.37 1.09.04.9-.08 1.32-.19.69-.03-.18-.09-.54-.14-.81-.05-.29-.05-.5.01-.53.06-.04.06-.1 0-.16-.34-.34-.39.12-.12 1.29.28 1.19.34 1.31.72 1.41.32.08.33.11.39.68.1.95 1.05 2.44 1.55 2.44.08 0 .19.09.26.2.17.27.2.2.07-.21Zm3.37-.54c.35-.47.63-1.25.71-1.98.07-.71.16-.87.49-.87.2 0 .26-.08.39-.53.27-.94.45-1.91.35-2.01-.15-.15-.3.04-.3.38 0 .19-.06.39-.14.45-.18.15-.29-.37-.2-.88.1-.53-.28-.17-.52.5-.29.79-.5.98-1.18 1.07l-.6.07.62.63c.78.8.82 1.57.12 2.71-.31.49-.33.33-.05-.35.14-.32.24-.66.24-.74s-.06.01-.13.2-.32.72-.54 1.18c-.23.45-.38.82-.35.82s-.01.07-.08.16c-.08.09.1.02.39-.16.29-.17.64-.47.78-.65ZM0 28.41c0-.06.17-.11.44-.11.75 0 1.36-.12 1.36-.26 0-.29-.47-.47-1.15-.42-.51.03-.65.01-.65-.1 0-.27 1.58-.12 1.81.17.24.29.24.57.02.66-.35.13-1.83.19-1.83.06Zm8.94-1.71c.11-2.09 1.32-5.9 1.87-5.9.05 0-.04.27-.21.6-.87 1.72-1.42 3.73-1.56 5.64-.02.39-.07.72-.11.75-.03.04-.03-.46.01-1.09Zm.4.05c.19-1.97 1.14-4.92 1.89-5.87.3-.38.26-.15-.09.54-.8 1.6-1.33 3.26-1.55 4.93-.14 1.1-.34 1.42-.25.4Zm-1.83-.22c-.05-3.53 1.89-7.76 4.82-10.5 1.58-1.47 1.64-1.29.09.25-2.81 2.78-4.69 6.68-4.73 9.8-.01.96-.17 1.36-.18.45Zm40.79-.08c-.21-.25.03-.67.37-.63s.52.31.37.56c-.15.23-.57.27-.74.07Zm-2.66-.3c-.15-.38.59-.63.87-.29.11.14.1.18-.06.3-.25.19-.74.18-.81-.01Zm-45.32-.3c-.26-.56.32-1.04.84-.7.47.31.18.95-.43.95-.22 0-.33-.06-.41-.25Zm.85-.12c.25-.32-.18-.64-.57-.43-.38.2-.16.76.25.64.11-.03.25-.13.32-.21Zm23.98-.17c.29-.13.4-.13.81 0 1.02.31 1.7.12 1.08-.3-.45-.31-.54-.31-1.11-.1-.35.14-.49.15-.69.05-.47-.21-1.44.04-1.44.39 0 .15.96.12 1.35-.04Zm-21.34-.75c-.4-.78-.22-1.38.34-1.13.2.09.24.08.28-.06.05-.24.19.87.15 1.23-.05.5-.51.48-.77-.04Zm.55-.66c-.07-.27-.52-.5-.6-.3-.08.22.13.84.37 1.08l.22.22.03-.39c.02-.22.01-.49-.02-.61Zm21.79.43c.32-.15.32-.42-.01-.9-.15-.21-.29-.52-.33-.7-.08-.38-.43-.47-.49-.13-.02.11-.15.44-.3.73-.41.84.23 1.41 1.13 1Zm-1.87-1.04c.51-.36.29-.54-.59-.5-.87.04-.95.07-.85.31.13.34 1.05.47 1.44.19Zm3.7 0c.51-.36.25-.52-.86-.52-.63 0-.72.02-.72.18 0 .28.39.5.9.5.25 0 .56-.07.68-.16Zm-2.88-.95c.11-.21.04-.29-.26-.29-.13 0-.26-.04-.29-.1s-.14-.1-.23-.1c-.14 0-.14.02-.03.09.2.13.06.41-.21.43-.13 0-.03.04.22.07.43.06.45.08.49.41l.04.35.08-.35c.05-.19.13-.42.19-.51Zm1.77.1c.27-.01.31-.03.13-.06-.38-.07-.48-.22-.26-.39.24-.17.15-.17-.48-.01-.42.11-.46.14-.32.26.09.07.16.2.16.28 0 .1.04.11.19.03.11-.05.37-.11.58-.11Zm-1.31-.68c.09.07.22.06.46-.04.68-.31 2.22-.46 2.6-.26.43.23.42-.36-.02-1.01-.26-.39-.24-1.27.03-1.03.29.27.57.87.64 1.38.12.88.26.62.2-.36-.12-1.98-.94-3.07-2.7-3.61-1.27-.38-3.17-.1-3.74.55l-.18.21.3-.21c.43-.3 1.4-.57 1.61-.45.14.08.1.1-.17.16-.34.06-1.59.61-1.59.7 0 .05.33-.04.88-.24.5-.19.91-.05 1.45.48.54.54.58.9.08.77-1.5-.37-2.37.17-2.56 1.58-.05.31-.14.52-.26.6-.45.28-.23.42.69.44.57.01 1.06.08 1.42.21.3.11.59.16.64.11s.15-.04.22.02Zm24.36-.13c-.27-.27-.06-.68.35-.68.19 0 .23.05.23.28 0 .29-.16.52-.35.52-.06 0-.16-.05-.23-.12Zm-27.56-.76c.19-.09.24-.19.24-.5 0-.22.11-.6.26-.88l.25-.49-.26.3c-.54.63-.77 1.13-.8 1.72-.01.32-.01.44.02.27.03-.21.12-.35.29-.42Zm-.15-1.13c.62-.97 1.16-1.3 2.21-1.32.71-.02.78-.1.21-.26-.43-.12-1.11 0-1.9.35-.29.13-.65.24-.79.24-.25 0-.26.02-.2.35.05.27.02.42-.13.64-.24.33-.26.59-.09 1.33l.12.53.13-.69c.08-.43.24-.87.44-1.17Zm-19.78.35a.43.43 0 0 1 .04-.33c.09-.14.06-.16-.22-.13-.44.05-.81-.28-.65-.58.15-.27.58-.26.92.03.22.19.25.26.15.37-.1.1-.07.11.13.05.77-.22 1.3-.04 1.14.4-.14.34-1.39.5-1.51.19Zm1.3-.23c.14-.14-.21-.33-.5-.26-.42.09-.71.34-.54.44.14.09.9-.04 1.04-.18Zm37.18-.78c-1.19-2.35-3.36-5.11-4.22-5.38-.11-.04-.18-.09-.15-.12.1-.1 1.14.58 1.47.96 1.71 1.97 3.59 4.93 3.47 5.46-.02.09-.28-.33-.57-.92Zm7.93-.08c.05-.28.05-.28-.06-.07-.11.22-.28.3-.28.12 0-.05.22-.55.49-1.12s.54-1.24.61-1.51c.12-.45.3-.73.3-.45 0 .18-.2.88-.35 1.23-.07.17-.21.59-.3.95-.1.36-.25.76-.32.9l-.14.25zm-46.46-.46c-.57-.32-.36-.99.3-.99.81 0 1.14.68.47.96-.4.16-.54.17-.77.03Zm43.22.06c0-.13 1.75-2.54 1.89-2.6.16-.07.04.13-.89 1.45-.64.91-1 1.32-1 1.15Zm4.75-.25c.03-.14.17-.74.32-1.35.24-1.04.43-1.52.43-1.1 0 .38-.52 2.33-.66 2.51-.15.18-.15.18-.09-.06Zm-47.11-.1c.3-.3-.56-.67-.9-.39-.18.15-.18.24.03.44.17.18.68.14.87-.05Zm1.58-.18c.68-.81.88-1.07.88-1.14 0-.19-.25-.04-.8.48-.32.3-.61.51-.64.46-.06-.1.78-.94 1.13-1.12.33-.17.62.09.4.37-.53.68-.94 1.13-1.02 1.13-.06 0-.03-.08.05-.18Zm14.52-1.03c.09-.68.22-.65-1.98-.41-2.16.24-2.46.32-2.46.61 0 .2.08.21 1.58.24.86.01 1.85.04 2.18.05l.61.02zm15.83.41c1.06 0 1.13-.01 1.13-.2 0-.34-.48-.45-3.09-.7-1.58-.15-1.52-.18-1.34.7l.06.33 1.05-.07c.58-.03 1.56-.06 2.19-.06Zm10.13-.62c0-.13.81-1.18.91-1.18.15 0 .1.1-.23.54-.2.26-.24.34-.1.22.3-.26.41-.12.13.18-.23.24-.71.41-.71.24Zm3.04-.73c.09-.44.01-.45-.2-.03-.1.19-.19.28-.22.2-.06-.18.4-.83.56-.77.07.02.18-.07.25-.23.25-.57.51-.56.45.02-.06.47-.5 1.16-.75 1.16-.12 0-.14-.08-.09-.35Zm-4.49-.49c.33-.27 2.15-1.18 2.28-1.13.13.04-1.92 1.17-2.26 1.24-.22.04-.22.04-.02-.11Zm2.25-.33c0-.06.13-.27.3-.48.16-.2.28-.41.25-.45-.06-.1.84-.7 1.04-.69.13 0 .12.02-.03.12-.67.42-1.02.87-.68.87.1.01.01.09-.21.21-.22.11-.36.23-.33.27.04.03.12 0 .18-.06.07-.07.17-.12.22-.12.06.01 0 .1-.14.21-.15.13-.26.17-.28.09-.03-.08-.08-.08-.18.01-.08.06-.14.07-.14.02Zm-36.4-.68c-.43-.46-.24-1.55.27-1.55.6 0 .94 1.1.48 1.55-.3.31-.46.31-.75 0Zm.62-.12c.25-.22.23-.71-.04-1-.49-.52-.86.05-.54.82.17.39.3.43.58.18ZM.56 13.41C.28 13.12.07 12.3.27 12.3c.06 0 .13.19.16.42.05.4.34.78.58.78.21 0 .08-.65-.18-.92-.14-.15-.24-.31-.2-.34.03-.03.19.09.36.28.46.5.41 1.18-.08 1.18-.04 0-.2-.13-.35-.29Zm41.99.09c-.08-.13.05-.17.75-.25.3-.03.71-.08.9-.12.48-.08.28.13-.25.26-.36.1-.35.1.19.05.4-.04.56-.02.52.05-.09.14-2.02.15-2.11.01Zm-35.04-.36c-.21-.27-.28-.64-.12-.64.05 0 .11.13.14.29.1.51.83.55 1.05.06.39-.86-.32-1.53-1.1-1.05-1.02.62-2.02-.57-1.19-1.41.6-.6 1.54-.23 1.55.6.01.33.05.41.2.41.39 0 .89.66.83 1.11-.11.83-.91 1.2-1.36.63Zm-4.55-.26c-.4-.4-.44-.42-.52-.23-.2.46-1.02.15-1.6-.6-1.14-1.49 1.1-4.23 2.39-2.93.26.26.4.32.77.33.85.01 1.38.66 1.26 1.54-.04.25-.08.6-.09.76-.04.36-.23.74-.4.77-.07 0-.18.02-.25.02-.07.01-.2.17-.3.36-.27.55-.7.54-1.26-.02Zm1.11-.04c.13-.21.14-.3.05-.45-.14-.21-.05-.24.32-.1.31.12.42 0 .5-.56.03-.24.09-.6.12-.82.12-.8-.49-1.39-1.32-1.26-.35.05-.44.03-.44-.09 0-.73-1.31-.7-1.94.05-.86 1.02-.87 1.87-.04 2.66.68.65 1.18.5.79-.23-.11-.21-.18-.4-.14-.43.03-.03.08-.01.1.05.11.32.34.49.28.22-.09-.43.13-.33.25.1.23.88 1.12 1.39 1.47.86Zm12.37-.39c.77-.62 2.99-1.58 4.18-1.79.72-.13.38.09-.5.32-1.04.28-1.98.68-2.99 1.28-.81.48-1.15.58-.69.19Zm17.74-.3c-.95-.49-2.66-1.14-3.4-1.29-.4-.09-.35-.27.05-.2 1.06.2 4.14 1.5 4.47 1.89.2.24.02.17-1.12-.4Zm15.88.46c-.04-.06-.16-.11-.27-.11-.26 0-.24-.17.04-.24.12-.03.46-.24.76-.46.29-.23.56-.39.59-.36.03.04-.03.13-.14.21-.17.13-.17.14-.01.15.09 0 .17.05.17.11 0 .07-.09.09-.22.06-.28-.08-.96.32-.76.44.09.06.1.11.02.19-.09.09-.14.09-.18.01ZM7.45 11.55c.68-.67-.32-1.69-1.02-1.03-.29.27-.31.8-.03 1.08s.75.26 1.05-.05Zm41.75 0c0-.38-.61-.5-1.77-.36-1.1.13-1.53.14-1.53.02 0-.08 1.54-.25 2.36-.25.76-.01 1.59.58 1.09.78-.11.04-.15-.01-.15-.19Zm-38.46-.48c-.44-.38-.12-2.47.38-2.47.06 0 .08.06.05.12-.76 1.81-.72 2.38.16 2.38.61 0 .96-.54.98-1.53.01-.51.01-.51.12-.19.39 1.23-.82 2.44-1.69 1.69Zm36.96-.56c0-.05.08-.12.18-.15.09-.03-.08-.03-.4-.01-.31.03-.63.08-.72.11s-.16.02-.16-.04.23-.15.5-.21c.65-.14 1.43-.14 1.35-.01-.03.06.02.1.11.1q.165 0 .09.09c-.15.13-.95.23-.95.12Zm-24.61-.42c-.21-.06-.22-.07-.06-.14.25-.11 5.57 0 5.87.12.27.11-5.39.13-5.81.02ZM7.27 9.6c-.61-.48-.52-1.46.14-1.74 1.04-.44 1.98 1.28.98 1.79-.39.21-.82.19-1.12-.05Zm1.11-.16c.16-.11.22-.25.22-.55 0-1.06-1.35-1.25-1.56-.21-.13.64.77 1.16 1.34.76Zm28.46-.79c-.1-.25.68-2.25.87-2.25.13 0 .11.06-.1.48-.24.47-.63 1.64-.56 1.7.02.03.13-.06.24-.19.24-.28.28-.13.05.19-.17.25-.42.29-.5.07ZM5.8 8.25c0-.03.08-.18.17-.32q.18-.27.06-.3c-.08-.03-.07-.17.04-.51.08-.29.12-.64.08-.89-.08-.52.11-.59.21-.08.07.39-.02 1.03-.18 1.22-.05.07-.07.17-.03.23.08.13-.13.7-.26.7-.05 0-.09-.02-.09-.05Zm-1.19-.28c-.88-.45-.95-2.19-.1-2.62.32-.17.97-.19 1.19-.05.11.07.02.1-.33.1-1.18 0-1.76 1.41-.92 2.2.66.62 1.58-.15.98-.82-.09-.1-.13-.21-.09-.26.14-.14.46.4.46.78 0 .59-.65.96-1.19.67Zm5.68-.16c-.33-.33-.37-.67-.14-1.11.51-.99 2-.4 1.65.66-.25.74-1 .96-1.51.45Zm4.73.17c-.32-.32-.01-.89.38-.68.29.15.25.74-.05.78-.11.01-.26-.03-.33-.1Zm6.91-1.36c-.01-.75.01-1.08.06-.92l.09.25.01-.27c.01-.34-.24-.38-.33-.06-.12.47-.07 2.43.06 2.3.09-.09.12-.48.11-1.3ZM11.34 7.68c.37-.32.44-.8.17-1.07-.31-.31-.84-.28-1.1.05-.6.76.22 1.64.93 1.02ZM23.5 6.62c0-.86-.03-1.22-.1-1.12-.13.2-.13 2.4 0 2.4.06 0 .1-.49.1-1.28Zm-.8-.04c0-.83-.03-1.18-.1-1.08-.18.28-.12 2.3.07 2.3.02 0 .03-.55.03-1.22Zm24.96.67c-.38-.19-.79-.35-.9-.35-.14.01-.06.09.27.26.63.33.6.39-.05.1-.62-.28-.76-.56-.28-.56.17 0 .4.05.51.1.13.07.19.07.19 0 0-.18 2.6-.01 3.19.21.45.17.15.19-.95.04-.6-.08-1.34-.15-1.64-.15h-.55l.35.22c.31.2.47.22 1.44.2 1.31-.02 1.32.14.01.22-.89.06-.91.06-1.59-.29Zm-12.12.11c-.07-.18.24-.64.67-1.01.51-.42.47-.19-.06.35-.27.28-.45.5-.4.5s.31-.21.57-.47c.53-.52.65-.48.19.07-.4.49-.89.77-.97.56Zm-1.14-.41c0-.11 2.03-1.66 2.09-1.6.07.07-.17.28-1.25 1.11-.66.51-.84.61-.84.49Zm6.94-.14c-.49-.3-.89-1.55-.55-1.75.11-.07.34.2.36.42.01.1.05.28.09.41.06.16.05.21-.03.17-.06-.04-.15-.21-.2-.39l-.09-.32-.01.29c-.01.33.32.91.59 1.06.53.28 1.3-.04 1.3-.54 0-.13.03-.39.06-.57.06-.33.06-.33-.1-.14s-.17.18-.14-.2c.03-.4.03-.4-.34-.4-.2 0-.42-.06-.49-.12-.18-.18-.39.03-.39.38 0 .15-.04.3-.09.33-.08.05-.06-.18.05-.71.04-.23.46-.33.58-.15.03.05.18.07.35.04.22-.03.33.01.43.17.07.12.21.21.32.21.14 0 .17.05.11.23-.04.12-.09.46-.12.75-.09.9-.91 1.31-1.69.83ZM33.5 5.78c0-.16 1.14-1.28 1.31-1.28.07 0-.12.25-.44.55-.7.67-.72.76-.08.3.26-.19.52-.35.56-.35.05 0 .23-.12.42-.26.18-.14.39-.24.45-.22.14.05-1.85 1.38-2.06 1.38-.09 0-.16-.05-.16-.12ZM7.06 5.12c-.11-.5-.18-2.58-.08-2.42.09.15.27 2.7.19 2.7-.03 0-.07-.12-.11-.28Zm25.64-.11c0-.13.49-.46.8-.56.14-.04.3-.11.35-.15.24-.17 1.29-.72 1.2-.63-.58.61-2.35 1.61-2.35 1.34Zm-5.9-.66c.56-.49.75-1.52.41-2.15-.32-.61-2.85-.6-3.17.01-.31.6-.14 1.61.34 2.12.35.37 2.02.38 2.42.02Zm17.44-.08c-.32-.28-.46-1.14-.22-1.34.28-.24 1.4.88 1.14 1.14-.02.03-.11-.09-.2-.25-.08-.16-.3-.42-.48-.57l-.33-.28-.03.33c-.05.53.05.76.43.94.4.19.44.26.16.26-.11 0-.32-.1-.47-.23ZM.08 3.13C0 2.98.12 2 .21 2c.05 0 .09.08.09.19 0 .1.07.24.16.31.22.19.14.64-.13.68-.11.02-.23 0-.25-.05Zm2.08-.15c.04-.07.29-.43.56-.79.55-.76.63-1.07.16-.63-.31.29-.3.22.04-.28.2-.3.44-.38.34-.13-.12.32.2.07.64-.5.38-.49.52-.6.78-.62.4-.02.4.05-.04.62-.26.34-.33.5-.25.58.26.26.01.87-.37.87-.17 0-.32-.17-.32-.39 0-.03.23-.37.5-.75.5-.69.64-1 .34-.75-.09.08-.64.76-1.22 1.51-.87 1.14-1.46 1.78-1.16 1.26Zm11.08-.68c-.48-.19-.75-.69-.73-1.34.02-.72.07-.96.19-.96.05 0 .07.08.03.17-.06.17-.05.17.14.01.3-.27.51-.23.26.04-.5.56-.58 1.19-.19 1.61.67.73 1.86.23 1.86-.78 0-.71-.27-.88-.94-.6-.31.13-.09-.13.27-.31.3-.16.31-.16.59.15.84.95-.29 2.49-1.48 2.01Zm-3.17-.11c-1.43-.08-1.52-.22-.11-.17l1.12.03.49-1c.3-.63.55-1.01.66-1.03.18-.04-.8 2.11-1 2.2-.04.02-.57.01-1.16-.03Zm-3.3-.16C6.47 1.74 7.01 0 7.4 0h.28l-.14.41c-.08.23-.12.51-.08.63.06.19.05.2-.11.05C7.21.95 7.2.86 7.29.54c.18-.66.03-.49-.18.21-.33 1.05-.29 1.24.14.77.21-.22.34-.31.34-.22 0 .31-.66.9-.82.73Zm9.35-.18c-.22-.27-.37-1.18-.26-1.59.12-.48.21-.27.2.48-.01.77.23 1.31.48 1.06.06-.06.03-.17-.11-.32-.11-.13-.23-.29-.27-.36-.08-.14.23-1.12.36-1.12.11 0 .1.09-.08.57-.16.42-.16.43.1.73.29.35.32.5.14.68s-.35.15-.56-.13Zm31.28.05c0-.35.28-.92.41-.84.09.05.1-.02.06-.26-.04-.18-.08-.4-.08-.49-.01-.09-.04-.03-.08.14-.04.22-.13.31-.3.33-.35.05-.46-.11-.31-.47.16-.4.31-.4.24-.01-.04.19-.02.3.05.3.06 0 .11-.14.11-.31 0-.55.43-.36.54.23.04.27.11.48.15.48.18 0 2.21-.88 2.11-.92-.06-.02.07-.04.3-.04.52-.02.51.01-.12.21-.72.23-2.28.96-2.28 1.07 0 .05.09.04.21-.02.11-.06.25-.09.32-.07.07.03-.02.1-.19.17-.23.08-.33.19-.38.41-.07.38-.26.38-.26-.01 0-.22-.04-.28-.15-.24-.08.04-.15.14-.15.24 0 .11-.04.22-.1.25-.05.03-.1-.03-.1-.15ZM0 1.51C0 .97.51 0 .8 0 .97 0 .96.05.69.45.52.7.3 1.14.2 1.43l-.19.52zm33.25-.11c.04-.06.54-.1 1.18-.1.76 0 1.07.03.97.1-.2.13-2.23.13-2.15 0Zm.85-.6c.17-.11 1.71-.11 2.15 0 .19.05-.19.08-1 .09C34.38.89 34 .87 34.1.8Z"/></svg>