<svg xmlns="http://www.w3.org/2000/svg" width="51" height="51" viewBox="0 0 51 51"><path fill="#fff" fill-rule="evenodd" stroke="#fff" stroke-width=".686" d="M28.17 47.43c-.04-.03-.07-1.47-.07-3.19v-3.12l1.28-.75c.7-.41 3.07-1.78 5.27-3.05 2.2-1.26 4.38-2.52 4.85-2.79l.85-.49.03-8.51.02-8.51-.37-.23C38.71 16 33.44 13 33.36 13c-.05 0-.07 1.64-.05 4.07.07 7.16 0 18.73-.11 18.73-.06 0-1.23-.86-2.6-1.92l-2.5-1.92V27.7h-5.25l-.02 9.77c-.01 5.88-.06 9.8-.11 9.85-.06.06-1.52-.72-3.83-2.04-2.06-1.18-6-3.44-8.77-5.03L5.1 37.37V25.56c0-11.66 0-11.81.2-11.94.56-.35 13.53-7.85 16.06-9.29 1.6-.9 1.44-1.18 1.44 2.55v3.19l-5.62 3.22c-3.09 1.78-5.79 3.34-6 3.47l-.38.24.02 8.56.03 8.56 2.3 1.32c1.27.73 2.77 1.59 3.35 1.93l1.05.61.03-11.44c.02-9.05.05-11.44.15-11.44s3.87 2.87 4.75 3.62l.32.27v4.11h5.3v-9.7c0-8.5.02-9.71.15-9.76.09-.04 1.54.73 3.47 1.84 5.46 3.12 13.19 7.58 13.81 7.96l.57.35-.02 11.78-.03 11.77-7 4.03c-6.76 3.9-10.68 6.13-10.77 6.13-.03 0-.08-.03-.11-.07Zm2.86-1.75c1.28-.72 3.33-1.9 4.57-2.61l8.55-4.93 1.6-.92V13.85L44 12.84c-.96-.55-2.99-1.72-4.5-2.59s-4.62-2.66-6.9-3.97l-4.15-2.37-.05 9.72-.05 9.72-2.84-.03c-1.56-.02-2.88-.05-2.93-.09-.06-.03-.08-.94-.07-2.11l.03-2.06-2.3-1.78c-1.26-.98-2.32-1.78-2.37-1.78-.04 0-.07 5.12-.07 11.37.01 7.38-.02 11.39-.09 11.41-.08.03-2.34-1.24-6.36-3.57l-.8-.47V16.85l.65-.39c.36-.22 2.72-1.58 5.25-3.04 2.53-1.45 4.92-2.83 5.31-3.05l.72-.41.06-.6c.15-1.42.07-5.39-.1-5.32-.18.07-3.03 1.7-6.59 3.76-1.21.7-3.53 2.04-5.15 2.98-1.62.93-3.49 2.01-4.15 2.4l-1.2.7.01 11.68.01 11.67 2.99 1.72c1.64.94 5.48 3.14 8.53 4.89 3.04 1.74 5.56 3.14 5.59 3.11.04-.03.08-4.42.1-9.76l.04-9.69 1.12-.02c1.67-.02 2-.02 3.38 0l1.28.02v4.37l2.27 1.74c1.25.96 2.3 1.75 2.33 1.77.03.01.07-5.1.09-11.35.01-6.26.04-11.39.06-11.41.05-.06.55.22 4.08 2.26l3.37 1.95-.02 8.69-.03 8.7-3.9 2.25c-2.14 1.23-4.88 2.81-6.07 3.5l-2.18 1.26v2.94c0 2.61.02 2.94.15 2.89.09-.03 1.2-.65 2.48-1.38Z"/></svg>