<svg xmlns="http://www.w3.org/2000/svg" width="51" height="51" viewBox="0 0 51 51"><path fill="#fff" fill-rule="evenodd" stroke="#fff" stroke-width=".735" d="M24.24 46.5c-3.48-.27-7.3-1.79-10.9-4.36-.45-.32-.64-.4-.72-.32-.14.14-.46-.1-1.62-1.19-5.56-5.22-7.81-13.54-5.7-21.07C7.52 11.64 14.07 5.8 22.26 4.43c1.49-.25 5.24-.25 6.69 0C43.19 6.88 50.84 22.01 44.4 35.01c-3.7 7.47-11.86 12.12-20.16 11.49Zm4.96-.5c16.58-2.88 23.06-23.61 11.1-35.49-5.94-5.91-15.06-7.69-22.79-4.45C5.84 10.95 1.24 25.09 7.72 36.1c1.03 1.76 2.97 4.05 4.3 5.12l.37.29-.06-7.43c-.09-10.79.1-12.15 2.08-15.35 1.41-2.26 5.05-5.13 6.97-5.49l.32-.06v5.89l-.75.58c-2.99 2.29-3.88 6.23-2.2 9.7 2.14 4.41 7.76 5.61 11.73 2.5 3.93-3.07 3.73-9.5-.38-12.3l-.7-.49v-2.8c0-1.55.04-2.87.09-2.95.28-.44 3.32 1.21 5.09 2.77 8.12 7.13 4.05 21-6.72 22.88-.91.16-3.78.15-4.48-.02l-.28-.06v7.21l.43.05c.23.03.56.08.72.1.78.11 3.76-.03 4.95-.24Zm-6.41-6.27v-6.38l-.92-.44c-2.85-1.37-4.69-5.08-4.13-8.35.36-2.18 1.42-3.88 3.33-5.36l.32-.25.03-2.73.03-2.73-.25.06c-.4.11-1.96.91-2.68 1.39-3.23 2.14-5.23 5.33-5.77 9.16-.12.93-.15 2.43-.15 9.18l.01 8.07 1.52 1c2.65 1.75 5.66 3.11 7.92 3.59.39.08.71.15.73.15.01.01.02-2.86.01-6.36Zm5.38-1.08c9.37-1.92 13.62-13.22 7.78-20.7-1.47-1.88-3.52-3.42-5.59-4.2l-.66-.25.01 2.73v2.72l.7.5c3.99 2.84 4.26 8.94.53 12.34-2 1.83-5.43 2.61-7.68 1.75-.14-.06-.16.18-.16 2.49v2.56l.38.07c1.42.27 3.33.26 4.69-.01Zm-5.23-13.28c-.2-.11-.21-15.63-.01-15.9.11-.16.37-.17 2.77-.15l2.65.03.03 8.02.02 8.02-2.66.03c-1.46.02-2.72-.01-2.8-.05Zm5.16-7.97V9.6h-5v15.6h5z"/></svg>