<svg xmlns="http://www.w3.org/2000/svg" width="51" height="51" viewBox="0 0 51 51"><path fill="#fff" fill-rule="evenodd" stroke="#fff" stroke-width=".782" d="M9.18 33.13 7.2 33.1v-3.08l1.58-.07c1.08-.05 14.92-.01 15.6.05.01 0 .02.69.02 1.54v1.53l-.52.07c-.5.05-10.47.05-14.7-.01Zm18.44 0-.82-.04v-4.3c0-2.83.04-4.37.11-4.5.1-.19.24-.2 8.48-.19 4.6.01 8.43.05 8.49.09.09.05.12.48.1 1.57l-.03 1.49-6.91.03-6.91.02-.07 2.87c-.05 2.08-.1 2.89-.19 2.95-.12.07-.53.08-2.25.01Zm-3.52-1.58V30.2H7.51l-.03 1.3-.03 1.29.65.04c.36.02 4.1.04 8.33.05l7.67.02zm5.61.97c.01-.2.05-1.52.08-2.92l.06-2.55 6.92-.03L43.7 27v-.93c0-.5.03-1.09.06-1.29l.07-.38H27.1v8.5h2.6zM7.27 27.23c-.16-.15-.08-3.01.09-3.07.2-.08 16.68-.08 16.88 0 .14.05.16.29.16 1.6v1.54h-8.53c-4.7 0-8.57-.03-8.6-.07ZM24.1 25.7v-1.3h-8.29c-7.47 0-8.29.02-8.35.16-.08.21-.08 2.29.01 2.37.03.04 3.79.07 8.35.07h8.28zM7.27 21.43c-.04-.03-.07-.75-.07-1.6V18.3l8.58.02 8.57.03v3.1l-8.51.03c-4.68.01-8.54-.01-8.57-.05Zm19.6 0c-.09-.08-.09-2.76-.01-2.97.09-.24 17.09-.24 17.18 0 .08.2.08 1.17-.01 2.22l-.06.82h-8.52c-4.68 0-8.55-.03-8.58-.07Zm-2.79-1.55-.03-1.33-4.45-.03c-2.45-.02-6.17 0-8.27.04l-3.82.06-.03 1.29-.03 1.29h16.66zm19.7 0-.03-1.33-2.6.01c-1.43.01-5.18.02-8.32.03l-5.73.01v2.6h16.71z"/></svg>