<svg xmlns="http://www.w3.org/2000/svg" width="51" height="51" viewBox="0 0 51 51"><path fill="#fff" fill-rule="evenodd" stroke="#fff" stroke-width=".323" d="M21.05 49.41c-4.22-2.51-13.56-8-17.63-10.36C.83 37.54 0 37.01 0 36.86c0-.13.03-.16.12-.08.07.05 2.94 1.74 6.38 3.75 9.25 5.4 17.78 10.43 17.95 10.58.54.5-.95-.25-3.4-1.7Zm-7.5-6.12C5.29 38.46.04 35.34.01 35.24c-.02-.14.04-.13.4.08 1.93 1.11 10.17 5.91 14.79 8.61 3.11 1.82 7 4.09 8.65 5.05 3.61 2.11 3.79 2.22 3.45 2.21-.14-.01-6.32-3.56-13.75-7.9ZM23 48.01C15.6 43.7 3.28 36.53 1.48 35.49c-.81-.46-1.47-.9-1.48-.98 0-.23-.51-.52 22.9 13.14 6.68 3.9 6.11 3.55 5.8 3.55-.15 0-2.53-1.34-5.7-3.19Zm7.7 2.87c-1.02-.58-6.04-3.5-7.95-4.63-1.04-.61-3.29-1.92-5-2.9s-4.7-2.71-6.65-3.85-5.17-3.01-7.15-4.15C1.98 34.21.28 33.23.18 33.16c-.16-.1-.18-.27-.16-1.76l.02-1.65.06 1.53.05 1.52.35.22 3.9 2.26c1.95 1.13 5.15 2.98 7.1 4.12s4.32 2.51 5.25 3.05c3.81 2.19 5.08 2.93 6.74 3.92.96.57 1.78 1.02 1.82 1.01.11-.04.94-1.76.88-1.82-.18-.16-11.22-6.38-11.51-6.49-.34-.12-.17-.32.66-.82.84-.5.96-.65.5-.65-.48 0-.27-.34.54-.86 1.55-1.02 1.49-.99 1.86-.79l.33.18.84-.52c.46-.28.9-.51.98-.51.37 0 13.04 7.09 13.09 7.31.01.08-.35.39-.8.7l-.83.56-.22.89c-.12.49-.35 1.52-.53 2.29-.17.77-.42 1.83-.55 2.36-.31 1.2-.32 1.11.13 1.34.2.11.53.3.72.42.57.37-.02.3-.7-.09Zm2.88-1.16.02-1.49-.67-.28-.66-.29.39-.34c.32-.28.45-.33.72-.28l.32.05.02-2.32.01-2.32.07 2.3c.04 1.27.06 2.33.04 2.37-.03.04.05.09.16.13.11.03.2.11.2.16 0 .18.23.35.73.54.61.23.63.28.21.49-.2.09-.33.12-.29.06.09-.15-.48-.13-.64.03-.1.1-.12.09-.09-.02.02-.08-.04-.16-.14-.18-.14-.04-.16.1-.16 1.29 0 1.67 0 1.58-.14 1.58-.1 0-.12-.35-.1-1.48Zm2.88 1.4c.05-.05.55-.41 1.11-.8.83-.59 1-.75.96-.92-.03-.11-.08-.2-.12-.2-.03 0-.07-.12-.07-.26-.03-.37-.09-.39-.46-.14l-.33.22.34-.29c.26-.23.32-.34.27-.51l-.07-.22-.32.21-.32.21.28-.24c.35-.3.34-.41-.05-.73-.2-.16-.24-.22-.1-.15.12.06.22.07.22.03 0-.17-1.05-3.26-2.39-7.07-.12-.33-.21-.62-.2-.65.02-.24.91 1.95 1.6 3.94.46 1.32.86 2.42.89 2.45s.05.09.05.15.06.28.13.5c.08.22.15.46.18.54.03.11.09.1.32-.03l.27-.17-.27.22c-.27.22-.27.22-.11.63.21.52.19.51.4.35.17-.13.17-.13.01.07-.29.34-.2.76.11.52.12-.1.12-.08-.01.08-.15.17-.16.23-.05.37.12.17 1.31-.6 4.41-2.85l.28-.2-.43-.42c-.24-.22-.42-.43-.4-.45.16-.2-.31-.21-.6-.02l-.34.23.33-.29c.4-.35.25-.66-.2-.42-.13.06-.2.08-.16.04.05-.05-.16-.2-.45-.35-2.33-1.18-2.44-1.29-1.82-1.72.26-.18.55-.38.64-.45.14-.1.12-.16-.2-.5-.6-.64-3.03-3.37-3.19-3.58-.7-.92 1.84 1.67 3.51 3.57l.24.28.82-.51.81-.51 1.04.53c1.67.86 1.82 1.09 1.03 1.63-.66.46-.79.61-.71.82.05.14.09.14.24.03.14-.11.14-.1-.02.08-.25.31-.15.58.16.42.22-.11.22-.11-.02.17-.37.42-.52.52-.69.46-.11-.04-.1-.08.07-.15.3-.14.28-.22-.14-.46-.36-.21-.64-.27-.64-.13 0 .08 1.19 1.46 1.31 1.5.09.04 4.41-3 4.46-3.14s-.82-.58-.97-.49c-.08.05-.11.04-.06-.03.11-.19-.32-.36-.52-.2-.15.12-.16.11-.04-.04.14-.18-.16-.46-.33-.3-.05.04-.05.02-.01-.05.07-.13-.28-.28-.44-.18-.06.04-.09.01-.08-.05.02-.06-.17-.23-.42-.37-.98-.57-5.61-3.08-6.54-3.55-.54-.27-1.08-.58-1.19-.69-.27-.25-1.62-.99-1.8-.99-.39 0-.42-.32-.07-.61.45-.38.42-.38 1.7.26 1.23.62 1.24.63.75 1.01l-.36.27 1.98 1.02c1.09.56 2.56 1.34 3.27 1.73.7.4 1.33.69 1.39.65.05-.03.08-.02.04.03-.09.15 1.59.98 1.8.9.14-.06.15-.05.06.05-.2.2.63.64.86.47.14-.11.14-.11.03.04-.14.18.16.36.38.23.05-.03.07 0 .04.08-.03.1.05.19.23.26.15.06.37.17.48.25.18.13.3.07 1.5-.8.72-.51 1.33-.94 1.37-.94.23 0-.05.24-1.23 1.07-1.29.9-1.31.92-1.06 1.04.24.11.34.06 1.27-.61.55-.4 1.03-.7 1.06-.67.11.11-.07.26-.97.88-1.03.71-1.05.89-.05.54.38-.13.64-.19.58-.13-.09.09-.04.16.18.3.49.29.39.61-.1.33-.14-.08-.43-.14-.65-.15h-.4l.3.25c.17.14.49.31.73.37.28.08.42.18.42.29 0 .25-.72.09-1.24-.28l-.41-.29-1 .71-2.38 1.69-1.39.99.25.25.25.25.38-.28.39-.27-.33.28-.32.27.31.19.32.2-.24.22c-.6.55-.95.69-1.3.5-.27-.14-.36-.14-.53-.04-.19.12-.2.11-.08-.02.14-.17-.16-.48-.45-.48-.2 0-4.08 2.77-4.05 2.89.01.07-.1.1-.27.09-.24-.02-.27-.05-.18-.18.26-.43-.06-.51-.6-.13-.28.19-.56.34-.63.31-.07-.02.16-.23.49-.47.59-.41.7-.62.46-.89-.02-.02-.48.28-1.02.67s-1.05.71-1.12.71c-.09 0-.11-.03-.05-.08Zm9.25-1.25c5.16-3.72 5.49-3.95 5.49-3.75s-6.83 5.08-7.11 5.08c-.14 0 .43-.47 1.62-1.33Zm-4.36-.41c1.21-.85 1.9-1.39 1.89-1.5-.01-.09.2-.29.5-.47.64-.39.61-.36.47-.53-.11-.13-.25-.06-.99.47-.48.35-1.6 1.14-2.5 1.76-1.12.78-1.61 1.19-1.57 1.28.03.08.05.19.05.24 0 .21.35.01 2.15-1.25Zm-11.03-.43c.15-.6.46-1.91.68-2.93.23-1.02.44-1.93.47-2.03.03-.13-.22-.01-.84.41-1.02.68-1.04.7-1.28 1.37-.1.27-.42 1.08-.72 1.79-.64 1.54-.67 1.35.37 1.96 1.09.64 1.01.67 1.32-.57Zm11.13-.62c2.42-1.7 2.5-1.77 2.22-1.95-.16-.1-.3-.01-3.1 1.95-1.58 1.11-1.74 1.26-1.64 1.53.08.21-.19.38 2.52-1.53Zm-12.91-1.25c.37-.87.65-1.6.63-1.62s-.33.17-.7.41c-.36.25-.71.45-.77.45-.13 0-1.05 1.83-.94 1.87.05.02.29.16.54.32.55.35.45.47 1.24-1.43Zm16.61 1.09c.16-.14.25-.25.18-.25s-.28-.14-.48-.31c-.38-.34-.46-.33-.99.06-.23.17-.24.16.38.49.59.31.54.31.91.01Zm-18.17-2.22c-.22-.13-.43-.23-.47-.23-.09 0-.93 1.71-.87 1.78.03.03.23.15.43.28l.38.23.46-.92.47-.92zm7.2 1.96c-.1-.05-.18-.18-.18-.27 0-.32-.88-.54-1.09-.28-.09.11 0 .18.51.39.65.27 1.1.36.76.16Zm11.83-1.87c.68-.48 1.75-1.23 2.38-1.66l1.14-.79-.24-.18c-.13-.09-.28-.15-.34-.11-.13.08-4.59 3.23-4.64 3.28-.07.06.21.34.34.34.07 0 .68-.39 1.36-.88Zm-1.33-.01c3.26-2.21 4.13-2.89 3.9-3.05-.12-.09-.26-.12-.32-.07-.13.09-1.3.92-3.06 2.16-1.54 1.09-1.46 1.01-1.3 1.2.16.2.12.21.78-.24Zm-16.7-.18c1.35-.85 5.11-3.47 5.07-3.53-.03-.05-.44-.29-.93-.55-.48-.26-2.26-1.27-3.97-2.23-1.7-.96-3.14-1.75-3.2-1.75-.25 0-5.57 3.48-5.44 3.55 5.4 3.08 7.51 4.29 7.79 4.47.42.25.35.25.68.04Zm14.84-1.69.28.17v-.39c0-.36.05-.43.55-.81.65-.49.66-.54.17-.85-1.01-.63-1.82-.97-2.05-.85-.64.35-2.46 1.63-2.4 1.7.05.04.59.34 1.22.67l1.15.61.4-.21c.37-.19.41-.19.68-.04Zm-20.77-4.92c1.43-.9 2.61-1.65 2.62-1.66.04-.03-4.17-2.26-4.27-2.26-.06 0-.47.22-.91.5-.9.56-.89.56-1.28.36-.26-.14-.31-.12-1.27.44l-.99.59.33.12c.49.17.38.36-.55.93l-.81.51 1.06.59c.59.32 1.52.85 2.07 1.16.82.47 1.04.56 1.2.47.11-.05 1.37-.84 2.8-1.75Zm25.74-.17c-1.18-.6-1.37-.76-1.14-.95.19-.16.19-.3 0-.3-.18 0-7.86-1.8-7.97-1.87a.14.14 0 0 1-.08-.12c0-.09.33-.02 4.87 1.03 1.83.43 3.38.76 3.45.75.29-.03.48.02.46.12-.02.07.39.31.91.55.52.23 1.03.5 1.14.59.22.19.33.13 1.05-.53.48-.46.53-.72.17-1.07-.37-.38-.71-.33-1.17.17-.38.41-.4.42-.54.24-.21-.3-.17-.41.21-.56.19-.08.35-.19.35-.26s.12-.14.28-.16c.23-.04.25-.05.08-.13-.11-.05-.31-.04-.5.03-.17.06-.47.09-.66.06-.48-.08-1.1.27-1.1.62 0 .3-.05.3-.42-.01-.24-.2-.26-.25-.11-.25.1 0 .36-.17.57-.38l.4-.37.98-.02c.69-.01 1.02.03 1.11.12.07.07.32.22.54.33.89.46.6 2.02-.37 2.02-.12 0-.74.44-1.03.72-.25.25-.28.24-1.48-.37Zm1.35.06c.08-.13-1.93-1.03-2.13-.96-.11.05.13.22.79.55.95.49 1.24.58 1.34.41Zm-14.18-1.16c-.78-.28-.64-1.18.15-.98.25.07.25.33-.01.33-.24 0-.27.25-.04.34.42.16.62.07.69-.31.03-.21.16-.46.28-.55.29-.23-.02-.25-.37-.03-.21.14-.25.14-.36.01-.18-.23.45-.51.94-.42.9.17 1.08.97.23 1.04-.22.02-.37.08-.36.15.06.48-.45.67-1.15.42Zm14.59.05c-.04-.06.02-.25.12-.43.32-.55.93-.45.93.15 0 .31-.26.5-.4.28-.04-.07-.14-.09-.21-.05-.08.04-.03-.02.11-.14.21-.16.23-.22.12-.33s-.18-.08-.38.16c-.2.23-.23.31-.12.37.09.06.09.09.01.09-.06 0-.15-.05-.18-.1Zm-38.04-3.13c-.28-.45-.59-.92-.68-1.04l-.18-.23-.63.4c-.61.39-.64.4-.92.25-.45-.23-.37-.41.38-.89 1.45-.93 1.37-.95 2.45.52 1.02 1.39 1.01 1.32.35 1.67l-.27.15zm37.49.76c-.25-.02-1.44-.1-2.65-.18-2.41-.17-5.17-.44-5.25-.52-.06-.06.78 0 4.45.27 1.38.11 3.11.22 3.85.26 1.62.08 2.25.23.95.21-.49 0-1.1-.02-1.35-.04Zm-36.6-.55c0-.11-1.3-1.88-1.51-2.05-.14-.11-1.68.7-1.69.89 0 .17.32.06.86-.28.7-.45.7-.45 1.44.7.56.85.9 1.14.9.74Zm27.75-.58c-.11-.05-.42-.09-.68-.09-.41-.01-.48-.04-.45-.18.02-.1-.03-.23-.11-.29s-.11-.16-.07-.22c.09-.15.43-.16.51-.02.04.07.12.07.25 0 .1-.05.28-.1.39-.1.13 0 .21-.08.23-.22.02-.15.14-.26.33-.33.16-.05.38-.18.47-.27.1-.1.32-.18.48-.18.23 0 .3-.05.3-.19 0-.11.06-.21.13-.24.09-.03.09-.09-.01-.26-.21-.36.16-.58.47-.28.11.1.14.1.18 0 .06-.18.28-.16.43.02.1.12.1.19.02.27-.28.28.27.41.67.17.34-.22.59.03.31.31-.23.23-.73.24-1.47.04-.17-.05-.23-.02-.23.1 0 .13.11.16.51.16.6 0 .63.2.06.33-.27.07-.37.14-.37.28 0 .1-.04.19-.09.19-.04 0-.25.14-.46.3-.22.17-.5.3-.66.3-.2 0-.27.04-.23.14.11.28-.48.44-.91.26Zm-12.4-1.29c-2.06-1.07-2.05-1.01-.38-2.12 1.23-.83 1.06-.82 2.47-.12 1.23.61 1.26.64 1.26 1.44v.47l-.72.43c-.4.23-.82.48-.93.55-.18.12-.37.04-1.7-.65Zm14.75.73c.28-.07 7.35-.44 8.05-.43l.7.02-.9.08c-2.01.19-8.35.45-7.85.33Zm-38.7-.13c0-.05.08-.15.18-.2.13-.08.05-.1-.34-.11-.33 0-.56-.05-.64-.15-.15-.18-.05-.35.21-.35.11 0 .17.05.14.1-.04.06.13.1.43.1.56 0 .83.2.65.48-.11.19-.63.29-.63.13Zm9.6 0c-1.48-.45-1.95-1.76-.9-2.51.35-.25.57-.25 1.15 0 .5.21.52.4.04.4-.34 0-.79.26-.79.45 0 .09.11.07.38-.07.7-.37 1.97-.07 2.32.54.46.84-.91 1.58-2.2 1.19Zm1.74-.42c.62-.49.02-1.13-1.07-1.14-.55 0-.61.02-.86.33-.27.31-.28.32-.44.14-.33-.36-.19-.95.28-1.2.2-.11.2-.11-.02-.12-.31 0-.83.55-.83.9 0 .97 2.1 1.75 2.94 1.09Zm14.88-.3c.79-.48.78-.46.33-.65-.31-.13-.48-.34-.27-.34.04 0 .18-.09.32-.19l.24-.19-.96-.46c-.53-.25-1.02-.46-1.09-.46-.16 0-1.99 1.22-1.99 1.32 0 .08 2.48 1.37 2.64 1.37.06.01.4-.18.78-.4Zm-25.8 0c-.34-.17-.62-.34-.62-.38 0-.17.14-.19.41-.06.37.2.42.19.29-.06-.2-.36.04-.52.69-.44l.56.07-.27-.22c-.29-.22-.36-.4-.17-.4.12 0 .98.66 1.11.85.14.2-.08.23-.72.1-.36-.08-.73-.14-.84-.15-.37 0 .04.29.5.36.51.07.49.24-.04.24-.28 0-.33.03-.24.12.36.36.09.35-.66-.03Zm9.28.11c-.37-.37-.21-.69.37-.77.7-.09 1.27.33 1.03.76-.15.3-1.11.3-1.4.01Zm14.67-.37c-.14-.13-.06-.21.58-.63.39-.25.72-.39.82-.36.22.09.04.28-.67.71-.62.38-.63.38-.73.28Zm17.53-.14c.79-.16 5.44-.78 5.48-.74.09.08-.23.14-2.93.49-2.63.35-3.47.43-2.55.25Zm-18.1-.34c0-.17 1.17-.94 1.43-.95.31 0 .14.23-.49.67-.62.43-.94.53-.94.28Zm-21.23-.68c-.55-.37-.56-.54-.05-.82.39-.21.59-.16.38.1-.18.22-.05.3.25.17.6-.27 1.21.13.76.49-.13.1-.29.19-.37.19s-.14.05-.14.1c0 .19-.35.09-.83-.23Zm7.71-.35c-.43-.26-.78-.52-.78-.58 0-.13.6-.54.79-.54s.12.28-.09.35c-.26.08-.25.2.03.32.16.08.3.06.54-.05.43-.2.56-.06.2.22l-.27.22.35.17c.37.18.47.38.18.36-.1 0-.53-.22-.95-.47Zm31.15-.58c-.29-.14-.53-.29-.53-.34 0-.15.52-.42.71-.37.13.04.19 0 .19-.13 0-.57 1.47-.56 1.66.02.13.41-.9.67-1.4.35-.21-.14-.26-.14-.36-.02-.09.11-.05.17.26.32.2.1.37.22.38.28.02.19-.39.14-.91-.11Zm-37.08.06c-.25-.1-.65-.48-.65-.6 0-.11.74-.6.9-.6.29 0 1.32.62 1.21.73-.09.09-.25.05-.65-.16-.46-.24-.56-.26-.8-.16-.6.28-.05.62.72.45.44-.1.42.11-.03.3-.39.16-.42.16-.7.04Zm-6-.96c-.07-.42-.01-.51.41-.6.3-.06.31-.04.38.36.11.73-.65.96-.79.24Zm33.63.06c-.2-.12-1.58-.44-2.56-.6-.9-.15-1.35-.46-1.3-.93.11-1.07 2.51-.99 3.03.1.11.23.27.43.35.43.2.01.41.18.68.57.34.48.24.68-.2.43Zm-25.99-.3c-.62-.32-.71-.51-.33-.69.32-.14.6.02.34.2-.12.09-.12.1.03.05.1-.03.3-.06.44-.06.25 0 .25-.01.1-.18-.34-.38-.22-.55.32-.49.61.07 1.36.38 1.06.44-.72.14-.71.14-.51.28.3.22.1.33-.56.3-.54-.03-.59-.02-.35.08.15.06.27.14.27.18 0 .19-.33.15-.81-.11Zm37.19-.06c-.43-.23-.25-.84.25-.84.24 0 .32.21.14.35-.25.18-.21.25.16.25.28-.01.67-.19.67-.32 0-.03-.38-.22-.85-.43-.88-.4-.96-.48-.68-.63.11-.07.33-.01.74.19.59.29.8.35.78.22-.04-.27.03-.43.21-.43.14 0 .2.07.2.24 0 .22.03.23.58.22.84-.02.82.27-.03.34-.47.04-.55.07-.37.13.28.1.24.31-.07.35-.12.02-.32.14-.46.28-.28.28-.84.32-1.27.08ZM4.51 29.4c-.35-.26-.4-.34-.31-.46.27-.31 1.25.09 1.25.51 0 .33-.45.3-.94-.05Zm30.89 0c-.37-.28-.49-.41-.73-.8-.4-.62-1.91-.81-2.41-.3l-.21.21.27.24c.16.14.51.28.85.34.32.06.96.19 1.43.3 1.09.24 1.1.24.8.01Zm-34-.29c-2.17-.71-1.78-2.56.56-2.69 2.27-.12 3.6 1.62 1.91 2.5-.45.23-1.97.35-2.47.19Zm2.18-.37c1.03-.37.97-1.29-.12-1.8-1.27-.59-3.16-.11-3.16.81 0 .96 1.82 1.51 3.28.99Zm7.9-.15c-.63-.32-.72-.5-.33-.67.34-.16.61-.15.77.02.08.07.28.17.45.2.35.08.6.31.44.4-.05.03-.21.02-.36-.04-.39-.15-.66-.13-.36.03.14.06.26.18.29.25.06.2-.29.13-.9-.19Zm-9.63.17c-.06-.02-.22-.07-.37-.1-1.05-.23-1.2-1.35-.23-1.71 1.65-.64 3.62.74 2.3 1.61-.24.15-1.45.3-1.7.2Zm1.66-.53c.51-.51-.03-1.04-1.14-1.11-1.22-.08-1.92.46-1.29 1 .49.44 2.04.51 2.43.11Zm1.4-.26c-.19-.24-.02-.44.43-.5.63-.09 1.01.04 1.01.34 0 .29-1.21.43-1.44.16Zm43.44-1.73c-1.54-.8-6.24-3.21-10.45-5.36s-8.57-4.39-9.7-4.98-3.74-1.93-5.8-2.97c-3.78-1.92-6.48-3.3-11.7-5.98-1.57-.8-3.67-1.87-4.67-2.37l-1.81-.92-.99.33c-.55.17-1.5.56-2.11.86C.19 5.3 0 5.36 0 5.21c0-.1.15-.25.38-.36 1.03-.5 2.38-1.05 3.08-1.26l.78-.23 3.3 1.67c1.82.92 5.29 2.69 7.71 3.93s6.27 3.2 8.55 4.36 5.16 2.64 6.4 3.28c2.13 1.11 3.41 1.77 9.55 4.9 1.43.73 3.05 1.56 3.6 1.85s2.54 1.3 4.43 2.25c2.66 1.34 3.42 1.77 3.42 1.91 0 .11-.01.18-.02.18zM19.1 27.43c-.3-.02-.59-.09-.65-.16s-.59-.2-1.19-.3c-7.3-1.22-10.86-5.92-7.21-9.54.6-.59.79-.83.68-.87-.62-.24 2.19-1.45 4.22-1.81 8.33-1.49 16.81 3.01 15.25 8.09-.77 2.49-4.01 4.23-8.48 4.56-1.26.09-1.55.1-2.62.03Zm4.4-.52c6.01-1.05 8.43-5.04 5.16-8.49-3.38-3.56-11.16-4.75-16.54-2.52-1.19.5-1.19.49-.44.76l.57.21.75-.35c5.44-2.49 14.02-.3 15.31 3.92 1.03 3.34-2.66 5.96-8.4 5.96-1.15 0-1.2.02-1.21.57 0 .3 2.97.26 4.8-.06Zm-19.53-.18c-.33-.32.58-.95.99-.68.31.2.31.2-.16.5-.39.25-.7.31-.83.18Zm14.43-.02c-.08-.05-.42-.12-.75-.16-6.74-.8-10.48-5.69-6.9-9.03.36-.34.65-.64.65-.67 0-.46-1.84 1.33-2.26 2.2-1.21 2.5 1.23 5.56 5.56 6.99 1.53.5 4.28 1 3.7.67Zm30.55-1.12c-3.78-1.9-16.52-8.4-18.4-9.39-.49-.26-2.79-1.43-5.1-2.6s-5.82-2.96-7.8-3.98C3.98 2.6 1.36 1.38.47 1.65c-.46.14-.47.14-.47-.09 0-.19.08-.25.52-.35C1.64.94 1.83 1.04 23.3 11.97c4.43 2.26 9.26 4.73 10.75 5.5 4.8 2.49 16.31 8.33 16.74 8.5.35.14.41.2.41.45 0 .15-.01.28-.02.27-.02 0-1.02-.5-2.23-1.1Zm-9.83.72-1.64-.06-.3-.34c-.47-.53-.23-1.11.56-1.32.26-.07.53-.25.76-.52.73-.82 2.8-.38 2.8.6 0 .05.14.14.3.2.95.36.62 1.56-.42 1.51-.24-.01-1.17-.04-2.06-.07ZM1.8 26.05c-.17-.46-.06-.75.31-.75.19 0 .43.49.37.77-.06.31-.56.3-.68-.02Zm16.7.16c0-.04.8-.11 1.78-.14 4.99-.15 7.87-1.82 7.87-4.57 0-4.63-9.51-7.5-15.26-4.6-.46.24-.68.29-.93.24-.31-.05-.39 0-1 .56-2.85 2.67-1.04 6.23 4.02 7.9 1.6.53 3.52.87 3.52.61Zm22.74-.19c.06-.11-.18-1.22-.33-1.5-.47-.87-2.39-.8-2.41.09 0 .11-.12.18-.4.22-.8.11-1.12.54-.69.93.18.16.42.2 1.48.25 2.1.09 2.3.09 2.35.01ZM.03 24.18c-.02-1.78.02-1.9.55-1.8.06.02.12-.04.12-.13 0-.08.08-.15.18-.15s.23-.05.3-.12c.1-.1.82.31.82.47 0 .02-.43.27-.95.55l-.94.51-.04 1.17c-.02.95-.03.86-.04-.5Zm16.87-.47c-1.59-.52-2.66-1.36-2.57-2.03.1-.76 1.2-1.48 1.73-1.13.52.34.43.75-.15.75-.3 0-.44.41-.21.65l.22.24.32-.34c1.2-1.27 4.74.29 3.58 1.58-.43.49-1.85.63-2.92.28Zm2.64-.4c.34-.32.33-.61-.02-.94-.84-.81-2.89-.89-3.24-.13-.15.34-.3.33-.73-.05-.49-.44-.34-.94.37-1.22.1-.04.1-.08-.01-.16-.35-.24-1.31.43-1.31.92 0 1.21 3.97 2.49 4.94 1.58Zm-2.24-.03c-1.15-.32-.86-1.36.37-1.31.98.03 1.52.49 1.25 1.07-.15.35-.88.45-1.62.24Zm1.18-.24c.33-.09.3-.49-.05-.62-.81-.32-1.57-.21-1.51.21.05.35.92.58 1.56.41Zm2.17-1c-.45-.11-.75-.27-.75-.4 0-.17-.04-.17.45.01 1.8.65 3.34-.9 1.62-1.63-.78-.33-2.09-.26-2.57.15-.34.28-.38.28-.99-.17l-.43-.32.48-.35c.27-.19.55-.38.63-.42.29-.17.01-.31-.3-.16-.27.15-1.48.91-1.56.99-.02.02.43.32 1.01.67.88.52 1.29.89 1 .89-.17 0-2.44-1.44-2.41-1.54.03-.12 1.13-.88 1.81-1.26l.44-.23.3.24c.41.32.41.32-.29.75l-.61.37.21.2.2.21.52-.25c1.82-.85 4.37.39 3.38 1.65-.37.47-1.44.77-2.14.6Zm-.05-.61c-.45-.07-.94-.56-.86-.86.19-.79 2.36-.43 2.36.39 0 .43-.59.62-1.5.47Zm1.08-.35c.19-.19.14-.34-.13-.46-.63-.29-1.55-.27-1.55.04 0 .35 1.4.7 1.68.42ZM.02 18.41 0 16.07l.21.19c.18.16.19.2.05.3-.13.09-.16.45-.19 2.15l-.02 2.04zm21.47.25-.2-.35-.21.21c-.32.32-1.28.08-1.28-.33 0-.3.43-.45.9-.32.38.1.39.09.34-.12-.12-.49.25-.39.45.13.13.31.15.32.37.17.52-.34 1.54-.01 1.28.42-.09.14-.24.18-.66.18-.48 0-.54.02-.5.17.08.32-.28.2-.49-.16ZM1 17.87c-.61-.3-.63-.51-.06-.79.25-.12.46-.26.46-.3s.14-.08.3-.08c.17 0 .29-.05.28-.12-.04-.15.59-.58.85-.58.17 0 .18.02.06.16-.12.15-.11.18.05.28.85.5.85.92 0 .82-.52-.06-.53-.05-.56.21l-.03.27-.38-.33-.37-.33-.43.2c-.41.2-.42.2-.17.3.61.23.75.26.64.11a.4.4 0 0 1-.04-.34c.06-.18.08-.18.24.07.4.61-.05.84-.84.45Zm2.68-1.68c-.45-.34-.27-.88.25-.75.17.04.25 0 .32-.16.16-.34.47-.39.95-.16.71.35.62.85-.13.75-.32-.04-.36-.03-.26.09.34.41-.63.6-1.13.23Zm-2.45-.66c-.22-.15-.23-.2-.17-1.12.07-1.13 0-1.29-.64-1.38Q0 12.97 0 12.82c0-.23.8-.07 1.1.24.24.23.25.3.23 1.24-.02 1.23-.02 1.23 1.21.53 1.14-.66 1.25-1.03.13-.45-.81.41-.76.44-.74-.46.03-1.06-.42-1.52-1.48-1.52H0l.02-2.28.03-2.27.02 2.13.03 2.12h.43c1.05.01 1.67.59 1.67 1.57v.64l.54-.3.54-.31.31.26c.43.36.44.35-.84 1.08-1.26.73-1.21.71-1.52.49Zm4.71-.45c-.71-.4-.77-.45-.7-.57.04-.06.21-.18.39-.27.17-.09.37-.23.45-.3.07-.08.21-.14.3-.14.1 0 .25-.09.35-.2.21-.25.6-.25 1.13-.01.51.23.63.4.35.48-.12.03-.21.09-.21.13 0 .24-.94.63-1.24.52-.25-.1-.33-.09-.45.03-.14.13-.12.15.12.15.29 0 .34.09.15.28-.16.16-.17.16-.64-.1Zm2.08-1.54c-.61-.4-.62-.5-.02-.81l.43-.23.47.26c.31.17.55.24.69.19.3-.09.26-.17-.16-.4s-.54-.45-.25-.45c.33 0 .87.43.87.7 0 .32-.53.6-1.15.6-.41.01-.43.02-.26.15.16.12.15.36-.02.34-.04 0-.31-.16-.6-.35Zm-4.04.15c-.22-.12-.23-.52-.02-.73.39-.39 1.46.01 1.28.48-.13.34-.86.49-1.26.25Zm5.98-1.28c-.21-.16-.42-.32-.49-.34-.09-.03-.08-.08.02-.2.18-.22.46-.22.69.01.12.12.29.16.57.14l.4-.04-.44-.16c-.24-.1-.46-.22-.48-.29-.05-.15.86-.69 1.09-.65.14.02.18-.03.18-.23 0-.33.33-.32.38.01.02.12.16.27.35.35.18.08.3.19.27.24-.05.11-.14.11-.72 0-.24-.05-.38-.04-.38.02s.14.13.31.17c.41.08.33.32-.1.28-.3-.03-.31-.02-.19.17.16.27.05.36-.45.36-.38 0-.42.02-.4.23.04.3-.17.28-.61-.07Zm-7.54.03c-.24-.17-.29-.53-.1-.72s.92-.15 1.11.06c.51.56-.36 1.12-1.01.66Zm2.2.07c-.15-.09-.92-2.15-.92-2.46 0-.2.71-.65 1.02-.65.07 0 .47.27.9.61.65.5.84.59 1.06.55.4-.09.93.34.72.59-.13.15-.11.19.13.37.35.26.34.32-.09.57l-.35.21-.35-.26-.34-.26-.79.41c-.89.46-.81.44-.99.32Zm2.14-.8c.55.3.8.15.33-.2-.29-.21-.3-.24-.14-.41.2-.23.04-.36-.25-.2-.18.1-.32.03-1.07-.54-.95-.73-.92-.72-1.33-.51-.37.19-.37.22 0 1.25.5 1.34.39 1.27 1.27.79l.76-.42zm35.13.39c-2.67-.47-3.77-3.51-2-5.53 1.17-1.33 4.21-1.26 5.31.12 1.94 2.47-.19 5.96-3.31 5.41Zm-14.69-.19c-.16-.31-.14-5.92.03-6.15.24-.33 3.54-.2 4.3.18 1.41.69 1.71 2.57.58 3.67-.56.54-1.03.69-2.15.69h-.76v.84c0 .99.03.96-1.1.96-.68 0-.81-.03-.9-.19Zm6.12.11c-.09-.07-.12-.78-.1-3.23l.03-3.14h3.71l.59.3c1.37.7 1.69 2.47.65 3.59l-.38.41.54.94c.73 1.27.72 1.28-.73 1.16l-.84-.07-.39-.79-.4-.79h-.9v.79c0 .63-.03.8-.16.85-.23.09-1.47.07-1.62-.02Zm10.4-.37c2.49-.86 2.58-4.62.12-5.54-1.9-.72-3.9.13-4.4 1.86-.72 2.48 1.71 4.56 4.28 3.68Zm-38.79-.03c-.03-.09-.17-.41-.3-.71-.38-.89-.24-.94.73-.25.76.54.75.52.2.87-.51.32-.55.32-.63.09Zm23.97-.66v-.83l.53-.07c.28-.03.7-.06.92-.06 1.63-.01 2.62-1.5 1.96-2.96-.4-.89-1.14-1.14-3.33-1.14H27.4v5.9h1.5zm5.9-.01v-.86l.68.03.67.03.39.76.4.77.74.06c.95.09.93.13.32-.94l-.52-.92.4-.41c1-1.03.82-2.53-.38-3.21-.55-.31-.56-.31-2.27-.34l-1.73-.04v5.92h1.3zm-25.76-.49C7.19 8.97 7.06 8.88 6.97 9.12c-.16.45-.26.49-.68.28l-.39-.2v-.8c0-.87.19-1.08.53-.57.12.18.18.2.28.1.24-.24.46-.13 1.6.73 2.27 1.72 2.25 1.7 1.61 2.03l-.37.19zm32.45-.09c-1.09-.72-.95-2.62.25-3.24 1.5-.78 3.02.99 2.26 2.64-.37.83-1.7 1.14-2.51.6Zm-31.61.04c.1-.06-.27-.4-1.32-1.2L7.1 8.09l-.35.21-.35.22-.09-.24c-.08-.19-.1-.14-.1.28-.01.72.4.9.54.24.09-.42.1-.42 1.52.7 1.3 1.02 1.38 1.06 1.61.91Zm33.44-.27c.54-.28.76-1.32.44-2.07-.51-1.21-2.32-1.04-2.67.25-.39 1.45.9 2.5 2.23 1.82ZM28.9 8.01c0-1.18-.01-1.17.96-1.06.9.09 1.19.35 1.19 1.04 0 .78-.23.95-1.3 1l-.85.03zm5.94.86c-.03-.08-.04-.54-.02-1.03l.03-.89.4-.03c1.38-.11 2.18.61 1.79 1.63-.16.4-2.06.68-2.2.32ZM30.6 8.5c.54-.54.16-1.15-.77-1.26l-.63-.07V8.7h.6c.47 0 .64-.04.8-.2Zm5.98.04c.23-.16.31-.75.14-1.02-.11-.17-.67-.32-1.19-.32h-.43v1.5h.63c.4 0 .7-.05.85-.16ZM1.35 6.01c-.12-.2.15-.5.55-.62.47-.14.47-.14.52.31l.03.35-.52.03c-.28.02-.54-.02-.58-.07Zm1.55-.66c0-.42.21-.55.58-.34s.37.33-.03.52c-.5.24-.55.22-.55-.18Zm.83-.45c-.39-.24-.41-.37-.09-.51.23-.11.96.19.96.38 0 .3-.48.37-.87.13Z"/></svg>