<svg xmlns="http://www.w3.org/2000/svg" width="51" height="51" viewBox="0 0 51 51"><path fill="#fff" fill-rule="evenodd" stroke="#fff" stroke-width=".49" d="M25.08 43.34c-1.06-.57-.58-2.44.63-2.44 1.04 0 1.66.95 1.23 1.86-.31.65-1.21.94-1.86.58Zm1.28-.32c.53-.42.59-1.09.15-1.53-.78-.77-2.12.11-1.71 1.12.23.55 1.11.78 1.56.41Zm-1.71-2.82c-4.09-1.34-3.15-7.15 1.15-7.15 3.37 0 4.96 3.99 2.5 6.29-1.01.94-2.41 1.27-3.65.86Zm10.15.11c-.77-.24-1.36-.79-1.64-1.52-.14-.38-.16-.87-.14-3.69l.03-3.25.49-.12c.27-.07.83-.18 1.23-.25.89-.15.97-.09.88.69-.1.83-.03.93.61.93h.54v2.6h-1.1v1.09c0 1.19 0 1.19.62 1.29l.43.08.03.96.03.97-.52.16c-.56.16-1.08.18-1.49.06Zm-20.45-.13c-.03-.07-.04-2.34-.03-5.03l.03-4.9h2.15c2.44 0 2.8.07 3.56.64 1.05.79 1.5 2.46.97 3.63l-.21.47.28.36c1.2 1.51.57 3.76-1.3 4.64-.54.25-.61.26-2.98.29-1.94.03-2.43.01-2.47-.1Zm15.52.06c-.04-.04-.07-2.2-.07-4.8 0-4.42.01-4.73.18-4.78.61-.18 2.25-.47 2.37-.42.13.05.15.7.13 5.03l-.03 4.98-1.26.03c-.69.01-1.28-.01-1.32-.04Zm-2.62-.48c2.1-1.03 2.59-3.82.95-5.46-1.31-1.33-3.52-1.32-4.89 0-1 .97-1.31 2.69-.69 3.86.88 1.66 2.99 2.39 4.63 1.6Zm9.15.19c.06-.04.1-.4.1-.81 0-.68-.02-.74-.2-.74-.76 0-.92-.34-.88-1.85l.03-1.1.53-.03.52-.03V33.4h-1.1v-.85c0-.98.09-.93-1.2-.67l-.85.18-.03 3.14c-.03 3.51 0 3.69.62 4.29.55.54 1.92.79 2.46.46Zm-17.02-.1c1.95-.58 2.7-3.05 1.37-4.51l-.34-.37.2-.28c.72-1.02.31-2.91-.79-3.64-.71-.47-1.19-.55-3.29-.55H14.6V40h2.13c1.62 0 2.26-.04 2.65-.15Zm12.82-4.61v-4.76l-.22.05c-.13.03-.6.13-1.05.23l-.83.17V40h2.1zm-15.5 1.81v-.85h.73c1.33.01 1.87.27 1.87.92 0 .6-.35.78-1.55.78H16.7zm8.25.53c-1.09-1.01.16-2.75 1.42-1.98 1.07.65.63 2.3-.62 2.3-.37 0-.52-.06-.8-.32Zm-6.08-.1c.18-.14.16-.63-.02-.78-.08-.07-.53-.15-1-.18l-.85-.05v1.18l.87-.03c.49-.02.94-.08 1-.14Zm7.44-.01c.73-.56.35-1.77-.56-1.77a.97.97 0 0 0-.95.95c0 .72.96 1.24 1.51.82Zm-9.63-4.04c-.06-1-.1-.96.9-.91.96.05 1.32.29 1.32.89 0 .57-.36.79-1.33.79h-.85zm1.8.35c.45-.45-.04-.98-.9-.98-.67 0-.68.01-.61.63l.06.47h.66c.39 0 .72-.05.79-.12Zm-.23-7.57c-.51-.23-1.01-.8-1.15-1.3-.06-.25-.09-1.92-.08-4.72l.03-4.34h1.45c1.59 0 2.13-.13 3.13-.75l.47-.29.63.33c1.85 1 4.02.98 5.72-.06.4-.25.52-.28.68-.19 1.25.79 2.31 1.05 3.85.97l1.12-.05v8.97l-.28.53c-.48.92-.94 1.09-3.01 1.09-2.25 0-2.72-.17-3.24-1.14-.21-.38-.22-.56-.25-2.78l-.03-2.37-.56-.07c-.62-.07-2.55 0-2.72.1-.07.05-.11.8-.11 2.29 0 2.85-.23 3.43-1.49 3.86-.6.2-3.68.14-4.16-.08Zm4.3-.3c.95-.44 1.05-.77 1.05-3.61V20l.28-.12c.3-.13 3.25-.18 3.55-.06.15.07.17.28.17 2.43 0 3.66.15 3.84 3.12 3.85 1.78 0 2.06-.05 2.52-.48.56-.53.56-.54.56-5.19v-4.28h-1.27c-1.4 0-2.07-.16-3.07-.73l-.49-.28-.76.38c-1.73.88-3.48.88-5.32.02l-.78-.37-.69.36c-1.01.53-1.85.7-3.1.64l-1.03-.06.03 4.44.03 4.43.31.39c.54.67.76.73 2.74.73 1.48 0 1.81-.03 2.15-.19Zm-4.97-11.54c-1.5-.57-2.15-1.57-1.82-2.83.21-.83 1.38-3.04 1.82-3.46.62-.59.44-.58 8.06-.58 8.62 0 7.8-.22 9.12 2.44.96 1.92 1 2.69.18 3.56-.69.73-1.26.95-2.54.95-1.22 0-1.72-.17-2.68-.92-.68-.52-.9-.54-1.39-.07-.75.7-1.53.99-2.73.99-1.26 0-1.73-.15-2.66-.86-.78-.61-.86-.61-1.61-.01-.33.27-.8.57-1.04.67-.58.24-2.19.31-2.71.12Zm2.73-.48c.31-.15.74-.43.96-.63.6-.54 1.02-.51 1.85.12 1.52 1.15 3.55 1.12 4.98-.08.65-.54 1.13-.56 1.73-.05 1.47 1.26 3.85 1.26 4.95.01.45-.52.55-.99.36-1.72-.18-.69-1.24-2.76-1.62-3.18-.54-.58-.3-.56-7.94-.56-8.62 0-7.59-.26-8.88 2.24-.98 1.92-1.02 2.56-.18 3.37.86.83 2.57 1.05 3.79.48Z"/></svg>