<svg xmlns="http://www.w3.org/2000/svg" width="51" height="51" viewBox="0 0 51 51"><path fill="#fff" fill-rule="evenodd" stroke="#fff" stroke-width=".743" d="M23 43.73v-2.78l-.67-.13c-4.07-.77-7.87-4.3-9.06-8.42-.54-1.87-.78-5.43-.39-5.82.17-.17.44-.06 9.22 3.82 1.4.62 2.7 1.19 2.88 1.27l.32.13-.02-2-.03-2-1.95-.85c-6.61-2.85-9.75-4.32-9.78-4.59-.16-1.3 2.33-6.61 4.55-9.7 2.29-3.17 6.77-7.96 7.45-7.96.56 0 4.16 3.78 6.26 6.56 5.05 6.71 7.6 15 6.24 20.29-1.25 4.83-4.96 8.45-9.54 9.3l-.38.07-.01 1.37c0 .75-.03 1.54-.07 1.75l-.07.39-2.23.98c-1.22.54-2.34 1.02-2.47 1.05l-.25.06zm.63 2.1c.1-.13.28-.28.4-.34.21-.11.21-.1-.02.15-.32.34-.27.33.76-.13.49-.21 1.09-.48 1.35-.59.27-.12.48-.25.48-.31s.06-.08.13-.05c.08.03.34-.04.6-.15l.47-.2.02-1.72.03-1.73 1-.28c1.7-.49 3.69-1.4 3.82-1.74.03-.08.11-.14.18-.14.41 0 2.55-2.05 2.55-2.43 0-.1.04-.16.09-.12.3.18 1.64-2.39 2.09-4 .65-2.3.72-6.01.13-6.69-.09-.11-.1-.16-.03-.12.15.09.15.04.02-.64-.17-.89-.3-1.3-.42-1.27-.06.01-.13-.04-.16-.12s0-.11.07-.07c.18.12.13-.23-.23-1.39-.52-1.67-.58-1.85-.7-1.85s-.36-.32-.49-.65c-.05-.13.01-.1.17.1.3.35.32.3.1-.25-.09-.22-.22-.4-.3-.4s-.11-.06-.07-.16c.03-.09-.07-.43-.23-.76-.28-.6-.29-.6-.36-.32-.06.26-.07.25-.04-.06.06-.56-2.37-4.72-3.45-5.91-.13-.14-.31-.38-.39-.52-.53-.92-4.6-5.27-5.43-5.82-.27-.17-.27-.17-.74.21-1.37 1.12-4.75 4.74-5.81 6.22-.3.43-.3.43-.15.87.08.25.13.5.1.57-.02.07-.1-.09-.17-.35-.14-.53-.24-.56-.48-.12-.09.17-.2.31-.24.33-.05.02-.08.08-.08.12 0 .05-.11.21-.25.36-1.35 1.46-4.43 8.16-4.12 8.96.03.08.49.34 1.03.57.55.24 1.64.73 2.43 1.08 1.16.53 1.45.63 1.53.52s.09-.11.05.02c-.06.18 1.55.94 1.79.85.08-.03.14 0 .14.07s.21.22.48.33c.26.12 1.34.58 2.4 1.04l1.92.83v2.23c0 1.22-.03 2.25-.07 2.27-.09.05-1.18-.41-4.85-2.04-2.81-1.25-2.62-1.19-2.76-.76l-.12.32.05-.41.05-.4-2.37-1.02c-1.3-.55-2.41-.98-2.46-.95-.17.1-.01 3.47.21 4.48.54 2.5 1.95 4.93 3.71 6.43.64.55.75.56.84.12.03-.14.05-.06.04.17-.02.41-.02.42.63.81 1.44.88 1.89 1.03 1.91.64 0-.11.02-.12.06-.04.03.07 0 .19-.06.26-.11.13 1.2.62 2.49.93l.35.09.03 1.27c.02.89.06 1.27.14 1.27.09 0 .09.03 0 .12-.14.14-.16.62-.02.53.16-.1.12.11-.05.25-.11.09-.15.35-.15 1.07 0 1 .04 1.05.43.56Z"/></svg>