<svg xmlns="http://www.w3.org/2000/svg" width="51" height="51" viewBox="0 0 51 51"><path fill="#fff" fill-rule="evenodd" stroke="#fff" stroke-width=".43" d="M14.69 43.34c-2.07-.63-2.7-4.06-1.04-5.66 1.34-1.3 3.96-1.11 4.71.33.32.63.05 1.21-.64 1.35-.29.06-.37.02-.75-.39-1.03-1.11-2.32-.49-2.32 1.12 0 1.71 1.18 2.32 2.43 1.26.88-.76 1.79-.06 1.27.96-.49.94-2.3 1.45-3.66 1.03Zm12.71.02c-1.25-.35-1.65-.89-1.21-1.63.29-.47.67-.51 1.36-.14.94.5 1.95.42 1.95-.15 0-.24-.26-.36-1.05-.5-1.93-.33-2.8-1.46-2.21-2.88.69-1.66 5.06-1.62 5.06.05 0 .74-.64.97-1.49.53-.63-.33-1.51-.38-1.78-.11-.32.31-.06.5 1.12.79 1.93.49 2.54 1.27 2.14 2.73-.33 1.16-2.17 1.78-3.89 1.31Zm-7.06-.15c-.64-.29-.97-.8-1.02-1.56-.09-1.4.66-2 2.84-2.27l.95-.11-.03-.31c-.06-.64-.99-.71-2.12-.16-.76.36-.77.36-1.15.04-.83-.69-.01-1.67 1.63-1.95 1.54-.26 2.8.09 3.26.92.35.61.39 4.91.06 5.28-.36.4-1.56.23-1.56-.21 0-.06-.09-.03-.19.06-.52.47-1.92.61-2.67.27Zm12.65.08c-.47-.17-.49-.35-.49-4.3v-3.7l.25-.24c.19-.2.34-.25.73-.25.76 0 .86.17.9 1.52.04 1.03.05 1.09.21.94.66-.6 2.32-.53 3 .12.56.53.63.91.65 3.45.01 2.51.03 2.47-.89 2.47-.85 0-.87-.06-.92-2.27-.06-2.5-.23-2.82-1.31-2.41-.62.23-.72.56-.72 2.46 0 1.86-.08 2.15-.61 2.26-.39.07-.47.07-.8-.05Zm-15.7-.44c.62-.34.91-.67.91-1.04 0-.59-.41-.66-1.04-.17-1.37 1.05-2.67.42-2.83-1.36-.17-1.85 1.65-2.87 2.81-1.57.72.79 1.48.01.79-.82-.64-.75-2.03-1.01-3.17-.59-2.35.88-2.37 4.88-.02 5.74.68.26 1.89.16 2.55-.19Zm4.82.21c.2-.04.54-.22.76-.41.5-.42.49-.42.56-.06.08.37.31.5.75.44.48-.08.52-.28.51-2.31 0-2.31-.06-2.67-.52-3.08-1.19-1.09-4.64-.44-4.33.81.1.38.39.39 1.08.04 1.32-.68 2.48-.39 2.48.61 0 .45.07.42-1.32.6-1.86.23-2.5.7-2.5 1.8 0 1.02 1.01 1.84 2.02 1.65.08-.02.31-.06.51-.09Zm7.7.03c.88-.3 1.38-1.07 1.26-1.94-.13-.89-.55-1.21-2.09-1.56-1.32-.31-1.69-.77-1.06-1.32.32-.27 1.27-.23 1.98.09.62.28.87.28 1.03.03.53-.85-1.63-1.61-3.23-1.13-1.57.47-1.84 2.31-.44 3.02.11.06.67.22 1.24.36 1.19.3 1.3.37 1.3.81 0 .79-1.43 1.04-2.35.42-.59-.4-1.15-.23-1.15.33 0 .72 2.29 1.3 3.51.89Zm4.21-.21c.04-.07.08-.87.08-1.78 0-1.42.03-1.71.2-2.08.44-.96 1.98-1.1 2.29-.21.06.18.11 1.05.12 1.98.01 2.16.01 2.15.67 2.19.67.04.67.04.59-2.52-.1-2.84-.37-3.32-1.92-3.3-.76 0-1.14.15-1.54.58-.36.38-.41.26-.41-1.05 0-1.45-.06-1.59-.63-1.59-.7 0-.67-.16-.67 3.96v3.73l.22.16c.26.18.86.14 1-.07Zm-12.82-.81c-.49-.25-.52-1.02-.05-1.33.32-.21 2.13-.5 2.27-.36.17.17-.1 1.06-.41 1.36-.45.43-1.3.59-1.81.33Zm1.48-.44c.26-.2.6-.88.49-.99-.08-.09-1.77.23-1.93.36-.2.17-.18.67.04.8.26.16 1.1.06 1.4-.17ZM8.04 33.96c-1.25-.29-1.94-.82-1.94-1.48 0-.81.98-1.29 1.61-.79 1.01.79 2.49.72 2.49-.11 0-.35-.12-.41-1.4-.68-1.72-.38-2.35-.82-2.6-1.82-.48-1.91 1.42-3.37 3.9-2.99 1.71.27 2.52 1.01 2.06 1.9-.29.56-.76.63-1.5.21-.97-.55-2.36-.5-2.36.08 0 .38.24.51 1.3.72 2.16.42 2.85 1.01 2.85 2.44 0 1.95-1.97 3.07-4.41 2.52Zm34.91.09c-.05-.02-.22-.06-.38-.09-.15-.04-.45-.22-.66-.41-.58-.53-.66-.93-.66-3.43 0-2.05-.01-2.12-.2-2.12-.41 0-.66-.13-.8-.41-.34-.66-.06-1.29.59-1.29h.33l.05-.8c.05-.93.25-1.23.91-1.41.92-.25 1.2.03 1.27 1.25l.05.91.61.05c.78.06.94.2.94.79 0 .7-.27.91-1.16.91h-.45l.03 1.95c.03 2.04.08 2.24.48 2.09 1.13-.43 2 .2 1.6 1.16-.24.58-1.8 1.1-2.55.85Zm-14.42-.15c-1.75-.37-2.5-2.32-1.41-3.65.54-.65 1.47-.99 3.15-1.15 1.12-.1 1.09-.09.95-.58-.25-.83-1.57-.84-2.72-.02-1.04.74-2.02-.53-1.15-1.49 1.33-1.47 4.93-1.27 5.78.32.34.65.4 5.77.07 6.2-.33.42-1.3.4-1.7-.03-.23-.25-.3-.27-.39-.16-.37.44-1.73.74-2.58.56Zm-13.95-.07c-.66-.1-.68-.2-.68-3.84v-3.28l.23-.27c.37-.43 1.39-.41 1.76.03l.26.31.32-.28c.84-.75 3.06-.53 3.53.35l.14.25.3-.29c1.01-.98 2.97-1.01 3.94-.08.75.71.86 1.27.91 4.64.03 2.17-.09 2.43-1.14 2.43-1.09 0-1.15-.15-1.15-3.12 0-2.03-.01-2.19-.19-2.37-.46-.46-1.48-.31-1.87.27-.28.42-.36 1.13-.32 3.07.04 2.04-.02 2.16-1.1 2.16-.98 0-1.02-.09-1.02-2.59-.01-2.82-.08-3.08-.9-3.19-.53-.07-.98.14-1.26.6-.17.28-.2.58-.24 2.54-.05 2.06-.07 2.24-.25 2.42-.21.2-.81.31-1.27.24Zm21.35-.01c-.72-.07-.73-.14-.73-3.84v-3.29l.26-.26c.36-.36 1.36-.31 1.68.09.21.26.21.26.41.06.87-.86 2.29-.69 2.42.29.09.69-.14.99-1 1.23-1.6.45-1.6.44-1.67 3.14-.06 2.61-.11 2.7-1.37 2.58Zm-25.34-.27c1.06-.37 1.61-1.09 1.61-2.09 0-1.29-.72-1.82-3.12-2.27-.75-.14-1.02-.36-1.02-.83 0-.89 1.37-1.14 2.65-.48.73.38.76.38 1.06.1.8-.75-.49-1.62-2.42-1.62-1.9-.01-2.9.79-2.89 2.3 0 1.05.61 1.54 2.42 1.95 1.34.3 1.62.46 1.62.98 0 .96-1.52 1.27-2.66.53-.83-.53-1.44-.36-1.44.4 0 .97 2.58 1.6 4.19 1.03Zm34.14-.03c.51-.23.67-.55.51-1.01-.1-.26-.11-.26-.95-.23-1.19.04-1.14.16-1.14-2.42v-2.11l.65-.03c.77-.04.9-.13.9-.62 0-.44-.1-.5-.8-.5-.81 0-.8.01-.8-1.11s-.1-1.27-.77-1.14c-.64.12-.83.42-.83 1.34v.8l-.38.06c-.98.16-1.01 1.15-.02 1.15h.38l.04 2.38c.04 2.54.09 2.83.59 3.29.52.46 1.74.54 2.62.15Zm-14.31-.07c.18-.1.48-.31.65-.48.36-.34.42-.32.58.16.1.3.13.32.67.35.81.04.8.1.76-3.01-.04-3.44-.21-3.77-2.08-4.08-2.04-.33-4.54.91-3.57 1.78.35.32.52.33.93.06 1.54-1.06 3.13-.78 3.17.56l.02.46-1.15.13c-2.64.28-3.68 1.06-3.45 2.58.2 1.38 2.08 2.19 3.47 1.49Zm-14.92.02.25-.13.05-2.19c.07-2.83.28-3.31 1.5-3.43 1.25-.12 1.44.29 1.48 3.23.04 2.59.03 2.55.77 2.55.73 0 .72.02.77-2.35.05-2.31.12-2.61.66-3.07.63-.53 1.76-.45 2.12.15.18.29.2.52.2 2.52 0 2.66.01 2.69.81 2.73.83.04.81.14.77-2.9-.03-2.87-.07-3.07-.7-3.65-.92-.86-2.78-.75-3.67.23-.43.46-.61.55-.61.29 0-.65-.78-1.1-1.9-1.09-.88 0-1.22.15-1.72.74-.43.5-.48.5-.48.01s-.19-.65-.8-.65c-.84 0-.81-.17-.78 3.58l.03 3.3.25.13c.32.16.68.16 1 0Zm21.39-.14c.05-.1.11-1.08.12-2.18.05-2.58.24-2.95 1.67-3.27 1.23-.27 1.44-1.58.26-1.58-.61 0-1.84.87-1.84 1.3 0 .05-.05.1-.11.1s-.08-.15-.04-.43c.1-.68-.57-1.03-1.26-.67-.23.13-.3 6.55-.07 6.78.2.2 1.15.15 1.27-.05Zm-7.59-.92c-.79-.2-1.06-.97-.52-1.5.27-.27 1.31-.55 2.37-.63.37-.03.4-.01.43.24.14 1.19-1.08 2.2-2.28 1.89Zm1.33-.48c.6-.3.86-1.33.35-1.33-1.12.01-2.18.44-2.18.89 0 .65.97.88 1.83.44Zm-8.6-11.37c-1.55-.71-.54-4.53 1.46-5.55.8-.41 2.14-.21 2.4.35.25.57-.03 1.08-1.33 2.43-1.4 1.45-1.63 1.86-1.21 2.21 1.13.94 6.66-3.82 7.76-6.69.64-1.68.16-3.43-.98-3.58-1.04-.14-3.22.84-5.38 2.42-3.78 2.75-4.69 3.17-5.91 2.7-1.73-.66-1.91-2.29-.49-4.32 4.07-5.8 12.87-7.74 15.1-3.33 1.88 3.71-.83 8.94-6.3 12.14-1.93 1.13-4.16 1.66-5.12 1.22Zm1.09-.39c-.5-.53-.17-1.22 1.3-2.68 1.65-1.66 1.67-2.39.06-2.39-1.41 0-2.87 1.87-2.92 3.75-.02 1.09.35 1.54 1.28 1.55h.49zm3.5-.88c2.31-1.17 5.25-4.03 6.3-6.14 1.08-2.15 1.04-4.89-.1-6.4-2.6-3.47-10.71-1.22-14.21 3.94-1.27 1.86-1.24 3.06.09 3.74 1.21.63 2.11.24 5.96-2.58 4.45-3.25 7.17-3.21 7.02.1-.09 2.03-2.15 4.87-5.12 7.07-.45.33-.83.62-.86.65-.08.07.47-.15.92-.38Z"/></svg>