<svg xmlns="http://www.w3.org/2000/svg" width="51" height="51" viewBox="0 0 51 51"><path fill="#fff" fill-rule="evenodd" stroke="#fff" stroke-width=".389" d="M5.24 48.38c.03-1.56.09-5.01.12-7.67l.05-4.84-.23.15c-.13.08-1.24.68-2.48 1.33S.35 38.62.22 38.73l-.22.2v-.25c0-.22.27-.39 2.73-1.69l2.72-1.44.03-2.62c.02-2.46.01-2.63-.15-2.63-.1 0-1.34.47-2.75 1.04-1.99.79-2.58.99-2.58.87 0-.17 1.38-.77 4.11-1.81l1.36-.52.05-.91c.03-.51.06-5.23.06-10.5.01-8.65.03-9.64.18-10.09.09-.27.17-.63.18-.79.03-.39.39-.74.93-.89.35-.1 4.39-.13 19.06-.14l18.62-.01.4.28c.69.49.73.72.74 3.86.01 1.51.02 2.75.03 2.77.03.02 3.69-1.54 4.91-2.09l.58-.26-.03.3c-.03.36-.44.61-3.68 2.35l-1.75.94-.02 2.17c-.01 1.82-.02 3.64-.01 5.73.01 2.1 0 4.18-.02 4.75-.04.81-.04 5.08-.01 5.45.01.14 0 1.91-.04 3.95-.03 2.04-.06 3.79-.05 3.9.01.43.02 1.22 0 1.5-.01.32-.02 1.69-.03 6.28l-.01 2.77h-.28c-.15 0-.28-.04-.28-.1 0-.05.05-.1.1-.1.06 0 .03-.11-.06-.25-.1-.15-.12-.25-.05-.25.06 0 .11.05.11.12 0 .06.03.09.06.05.1-.1.13-2.76.04-3.08-.06-.21-.05-.27.02-.23.08.05.09-.03.04-.27-.05-.19-.11-.45-.14-.58-.03-.14-.01-.21.04-.18.06.03.11-.47.12-1.24.02-.86 0-1.29-.07-1.29-.06 0-.11-.1-.11-.22 0-.19.02-.2.1-.08.09.13.18-1.79.12-2.45-.03-.34-.03-.6.03-4.3.03-1.98.06-3.69.05-3.8 0-.11-.02-.73-.04-1.37-.02-.68-.08-1.23-.14-1.31-.08-.1-.09-.16-.01-.24.2-.2.25-6.4.05-6.24-.14.11-.16.11-.16-.03 0-.09.06-.15.13-.13.14.02.15-.87.02-1.37-.05-.18-.04-.27.02-.23.11.07.12-.22.13-4.62.01-2.93-.01-3.24-.16-3.36-.18-.13-.12-.51.06-.4.05.03.1-.03.1-.14 0-.12-.07-.21-.15-.21-.17 0-.2-.27-.04-.32.2-.07.25-1.09.05-1.2-.1-.06-.16-.21-.15-.41l.01-.32.13.3.14.3.01-.34c0-.19-.08-.43-.17-.53-.15-.17-.15-.22-.04-.41.21-.33.26-2.38.06-2.31-.09.04-.15 0-.15-.09 0-.08.05-.17.11-.19.38-.13-.53-.82-1.21-.92-.25-.04-3.26-.06-6.7-.06-3.44.01-11.63.02-18.2.03-12.71.02-12.17 0-12.62.48-.1.1-.18.26-.18.35 0 .1-.09.44-.21.76-.25.72-.37 17.54-.12 17.77.17.15.17.63.01.79-.09.09-.13.86-.15 2.9-.02 1.52-.05 2.87-.08 3-.03.12-.01.22.04.22.12 0 .19 1.05.1 1.55-.08.45-.2 2.31-.12 2.03.02-.1.09-.18.15-.18.13 0 .01.84-.13.88-.05.02-.07.08-.04.12.11.18.22 1 .14 1-.05 0-.09.12-.09.28.01.15-.02.4-.06.56-.05.21-.04.27.05.22.08-.05.11.07.11.38 0 .25-.04.46-.1.46-.11 0-.07 5.27.05 5.77.06.25.03.35-.14.49-.12.1-.21.25-.2.34 0 .1.03.09.09-.05.07-.18.08-.19.15-.02.04.09.02.23-.03.3-.07.08-.07.18-.02.27.13.2.12.64 0 .76-.16.16-.25 1.5-.11 1.58.14.09.15.76 0 .76-.05 0-.09.08-.08.18.03.32-.01.42-.17.42-.13 0-.15-.31-.1-2.82Zm26.11 2.72c.04-.06.87-.1 2.15-.1s2.11.04 2.15.1c.04.07-.7.1-2.15.1s-2.19-.03-2.15-.1Zm-15.6-1.58c-2.64-.91-3.37-4.15-1.39-6.18 1.73-1.77 4.83-1.2 5.93 1.09.86 1.79-.28 4.57-2.11 5.12-.68.2-1.8.19-2.43-.03Zm16.06-.04c-1.96-.61-3.05-3.27-2.14-5.2.18-.38.37-.68.42-.68.16 0 .14.12-.16.76-1.05 2.24.59 4.98 2.97 4.97 1.58-.01 2.51-.55 3.05-1.75.88-1.95-.08-4.4-1.87-4.84-.16-.03-.28-.1-.28-.15 0-.43 1.42.29 1.99 1.01 1.4 1.77.86 4.8-1.01 5.68-.9.42-2.05.5-2.97.2Zm-13.68-.24c1.73-.59 2.72-3.2 1.82-4.82-1.1-2-3.8-2.46-5.34-.92-2.64 2.63.01 6.94 3.52 5.74Zm-.63-1.36c.01-.19 1.18-.89 1.26-.76.08.12-.23.39-.78.68-.44.23-.48.24-.48.08Zm14.07-1.87c-.83-.98-.84-1.11-.07-1.11.26 0 .3-.04.35-.37.1-.6.13-.63.47-.63.52 0 .81.25.76.66-.04.33-.03.34.32.34s.6.14.6.33c0 .17-1.43 1.57-1.6 1.57-.09 0-.47-.35-.83-.79Zm3.49.7c-.03-.05.03-.29.14-.52.13-.29.2-.66.2-1.07 0-.47.03-.63.12-.59.23.07.15 1.35-.1 1.85-.23.44-.27.48-.36.33Zm-2.04-.78c.68-.67.7-.73.24-.73-.41 0-.51-.12-.51-.6 0-.31-.03-.35-.27-.38-.26-.03-.28-.01-.28.35 0 .51-.08.61-.53.65l-.38.03.53.62c.64.75.51.75 1.2.06Zm8.31-1.21c-.16-.1-.35-.62-.29-.79.09-.23.24-.14.36.22.13.41.1.68-.07.57Zm-27.86-3.68c-.04-.04-.24-.07-.44-.08l-.38-.01v-2.1l.28-.03c.24-.03.3.02.47.4.11.24.2.35.2.25.01-.66.61-.99.87-.47.12.23.13.24.13.04 0-.33 1.18-.52 1.47-.23.08.08.13.08.17 0 .12-.2.54-.12.74.14l.19.24.11-.24c.13-.28.46-.33.6-.09.08.15.1.15.15 0 .2-.52.65-.08.69.69.04.85.28.87.28.02 0-.7.14-.93.49-.82.44.14.42 1.63-.03 2.02-.42.36-1.18.24-1.33-.21-.06-.2-.07-.2-.12.03-.11.44-.38.5-.7.15l-.28-.31-.11.3c-.09.23-.15.28-.29.22-.1-.04-.22-.07-.28-.06-.73.13-1.48.11-1.66-.05s-.19-.16-.19.01c0 .15-.06.17-.35.12-.19-.03-.37-.01-.4.04-.07.11-.19.12-.28.03Zm2.77-1.11c-.06-.53-.09-.6-.26-.55-.17.04-.17.06-.02.16.31.23.14.6-.31.67l-.4.06.37.02c.21 0 .43.07.5.15.18.2.19.17.12-.51Zm-2.16.15q.12.015.12-.48c0-.69-.14-.63-.34.15-.19.77-.2.88-.03.55.08-.14.19-.24.25-.22Zm1.82-3.23c-1.25-.35-2.11-1.28-2.46-2.67-.25-.97.02-2.58.43-2.58.08 0 .12.06.09.13-1.33 3.19 1.61 6.09 4.57 4.49 2.53-1.36 2.3-5.21-.36-6.2-.69-.26-1.61-.29-2.36-.06-.53.15-.68.14-.56-.05.14-.23 1.17-.43 1.96-.39 3.23.19 4.59 4.19 2.17 6.43-.95.88-2.29 1.23-3.48.9Zm16.25.06c-1.93-.51-3.2-2.68-2.71-4.62.16-.6.76-1.69.94-1.69.21 0 .17.15-.14.62-1.98 2.93 1.14 6.65 4.28 5.1 1.83-.9 2.43-3.22 1.29-4.99-.33-.51-1.01-1.15-1.34-1.26-.06-.02-.07-.09-.03-.15.11-.17.78.22 1.23.72 1.73 1.91 1.15 4.98-1.13 6.03-.59.27-1.82.4-2.39.24Zm1.35-.5c0-.05.24-.22.52-.38.29-.16.63-.35.75-.43.35-.22.41-.01.08.26-.53.43-1.35.76-1.35.55Zm-16.6-1.14c0-.07.24-.21.53-.3 1.55-.49 2.22-2.02 1.6-3.63-.03-.08.01-.14.1-.14.38 0 .55 1.7.24 2.42-.23.55-.91 1.23-1.45 1.46-.69.29-1.02.35-1.02.19Zm15.23.03c-.88-.18-2.03-1.1-2.03-1.62 0-.18.08-.13.5.34 1.01 1.14 2.47 1.36 3.73.58.55-.34.57-.35.57-.16 0 .5-1.8 1.06-2.77.86Zm3.24-1.68c.1-.47.1-1.03-.01-1.67-.08-.46-.07-.49.08-.35.42.41.38 2.4-.05 2.4-.06 0-.07-.14-.02-.38Zm-3.19-.03c-.12-.06-.18-.22-.18-.44 0-.33-.02-.35-.34-.35-.76 0-.66-.37.38-1.53.54-.6.57-.59 1.39.33.83.94.86 1.2.11 1.2-.21 0-.24.05-.24.33 0 .53-.59.77-1.12.46Zm.82-.63v-.45l.39-.03.39-.03-.59-.65-.59-.65-.59.65-.59.65.44.03.44.03v.45c0 .44 0 .44.35.44s.35 0 .35-.44Zm-2.2-2.58c0-.13.85-.68 1.04-.68.18 0 .01.23-.35.45-.55.35-.69.4-.69.23ZM11.33 28.8c-.24-.1-.36-1.75-.15-2.06.21-.33 1.19-.21 1.45.17.14.2.15.2.21-.04.09-.36.66-.48.66-.14 0 .05.09.02.19-.07.27-.25.55-.13.85.37.24.41.25.41.26.14 0-.56.5-.94.67-.52.05.14.07.14.23 0 .24-.22.56-.05.75.38.11.24.14.27.15.12.01-.5.44-.79.73-.5.13.13.16.13.27 0 .18-.21 1.38-.21 1.46 0 .09.22-.14.45-.45.46-.24.01-.24.01.07.1.51.15.45.54-.11.71l-.42.13.45.05c.48.05.63.27.4.55-.2.24-1.17.2-1.32-.04-.11-.18-.13-.18-.24-.03-.19.26-.91.25-1.09-.01l-.15-.21v.23c0 .21-.03.23-.31.17-.18-.03-.38-.01-.45.05-.11.09-.18.08-.28 0-.11-.1-.2-.1-.36-.01-.18.09-.25.08-.41-.06-.11-.1-.19-.12-.19-.06 0 .07-.11.12-.25.12-.16 0-.25-.06-.25-.16 0-.12-.05-.11-.19.07-.24.3-.53.17-.62-.27-.05-.28-.05-.29-.13-.06-.14.4-.91.63-1.43.42Zm7.97-.15c-.16-.2-.18-1.91-.02-2.07.17-.17 1.07-.15 1.27.02.26.21.36.56.25.85-.07.19-.05.36.06.65.3.75-.19.96-.63.28l-.28-.43-.03.3c-.06.51-.36.71-.62.4Zm-6.9-.34c.34-.64 0-1.41-.61-1.41h-.39v1.6h.45c.34 0 .47-.05.55-.19Zm2.34.03c.1-.26.07-.44-.07-.38-.08.03-.19-.13-.31-.46-.23-.64-.36-.72-.36-.22 0 .3.04.41.19.45.12.03.21.17.25.41.07.38.2.47.3.2Zm-3.24-.64V27h.29c.4 0 .61.24.61.7s-.21.7-.61.7h-.29zm6.8-.07.35-.12h-.32c-.4-.01-.56-.36-.27-.59.18-.13.18-.14-.01-.1-.18.03-.2.12-.22.73-.01.42.01.6.06.45.04-.16.19-.29.41-.37Zm1.56-.01c.13-.02.29.06.4.21l.19.23v-.5c0-.66-.08-.76-.56-.76h-.39l.01.73c.01.48.04.62.08.42q.06-.3.27-.33Zm-.22-.27c-.12-.29.04-.46.38-.43.42.04.53.42.16.52-.36.09-.48.07-.54-.09Zm12.31-2.4c-3.21-.6-5.09-2.86-5.09-6.1 0-4.23 2.41-6.95 6.15-6.95.96 0 2.2.27 2.34.5.15.24-.09.27-.53.08-.35-.16-.74-.23-1.52-.26-3.56-.15-5.87 2.09-6.07 5.9-.04.77-.02 1.12.06 1.22.13.16.41 1.09.41 1.39 0 .2-.16.23-.23.05-.02-.07-.02-.02 0 .12.13.83 1.21 2.24 2.18 2.85 6.15 3.87 12.74-3.85 7.95-9.32-.56-.65-.69-.94-.31-.73.3.15 1.27 1.41 1.59 2.06 1.26 2.51.74 5.32-1.37 7.45-1.59 1.59-3.37 2.15-5.56 1.74Zm-15.94-.8c-1.34-.38-2.55-1.82-2.63-3.14-.04-.62.18-.64.26-.03.28 2.1 2.34 3.44 4.34 2.83 3.6-1.09 2.98-6.41-.75-6.41-.58 0-.73-.03-.73-.15 0-.22 1.4-.2 2.06.02.69.23 1.53 1.09 1.84 1.88 1.11 2.85-1.49 5.81-4.39 5Zm-.65-1.73c-.71-.17-.38-.32.56-.26 2.01.13 3.06-.76 3.16-2.68.04-.87.16-1.12.28-.62.29 1.15-.49 2.83-1.58 3.4-.35.19-1.87.29-2.42.16Zm16.62-2.32c-.78-.42-1.27-1.37-1.15-2.25.16-1.12 1.13-2.08 1.47-1.46.16.32.12.47-.25.84-1.04 1.04.27 2.74 1.52 1.97.64-.38.83-1.28.41-1.9-.34-.49-.48-.49-.48-.02 0 .69-.29 1.04-.69.83-.23-.13-.41-2.04-.22-2.4.23-.41.75-.23.83.29.03.22.07.25.36.22.63-.07 1.32.94 1.32 1.9 0 1.61-1.73 2.71-3.12 1.98Zm1.82-.25c1.08-.56 1.32-2.27.44-3.09-.42-.38-.65-.33-.27.06 1.06 1.13.42 2.88-1.06 2.88-1.38 0-2.03-1.57-1.12-2.7.36-.45.26-.62-.12-.22-1.44 1.51.3 4.02 2.13 3.07Zm6.6-.65c0-.06-.04-.08-.1-.05-.19.12-.1-.52.1-.7s.2-.17.2.28c0 .25-.04.49-.1.52-.05.03-.1.01-.1-.05Zm-26.1-.9c0-.13.79-.7.97-.7.24 0 .14.16-.31.48-.45.33-.66.4-.66.22Zm1.46-.18c-.13-.21.27-.35 1.02-.36.99-.01 1.11.17.17.25-.38.03-.8.09-.92.13s-.24.03-.27-.02Zm17.34-1.26c0-.53-.04-.98-.1-1.01-.06-.04-.1.3-.1.94 0 .61.04 1.01.1 1.01s.1-.38.1-.94Zm7.38.31a1 1 0 0 1-.08-.38c0-.11-.05-.16-.14-.13-.12.05-.37-.61-.36-.98.01-.25.3.25.3.51 0 .2.02.23.1.11.07-.11.11-.08.2.15.13.33.1 1.03-.02.72ZM38 15.88c-.19-.51-.37-.96-.39-1.01-.02-.06.02-.06.09-.02.17.11.8 1.45.8 1.72 0 .43-.15.23-.5-.69Zm-.53-.25c-.25-.51-.42-.95-.37-.98.12-.07.51.55.74 1.18.32.86.1.74-.37-.2Zm-25.56.03c-.25-.3-.1-2.2.18-2.24.13-.02.28.01.34.07s.16.05.31-.04c.26-.17.58-.02.87.41.17.26.19.27.19.07 0-.52.46-.75.69-.35.09.16.11.16.24-.03.12-.15.27-.19.72-.19 1.25 0 1.46 1.32.25 1.59-.22.05-.3.14-.37.43-.1.44-.41.51-.59.13-.12-.23-.12-.23-.18-.03-.16.49-.91.21-1.13-.42-.06-.17-.08-.14-.13.18-.07.52-.34.7-.6.39-.17-.22-.18-.22-.23-.03-.06.23-.39.27-.56.06Zm5.23.04c-.41-.16-.54-.49-.54-1.36 0-1.34.6-1.51.7-.2.03.36.08.66.13.66h.16c.05 0 .12-.31.16-.7.08-.78.22-.98.55-.8.16.09.25.09.33.01.18-.18 1.43-.14 1.61.05.29.28.16.74-.2.74-.23 0-.24.03-.24.64 0 .8-.06.96-.36.96-.32 0-.44-.27-.44-.99 0-.58-.01-.61-.25-.61-.23 0-.25.04-.25.45 0 .93-.62 1.45-1.36 1.15Zm.77-.39c.21-.17.24-.28.25-.97.02-.78.02-.78-.05-.19-.1.77-.18.94-.49 1.02-.43.1-.56-.07-.63-.83l-.05-.69-.02.62c-.03.91.11 1.16.64 1.22.07 0 .22-.08.35-.18Zm-3.62-.53c-.01-.35-.05-.74-.09-.88-.06-.18-.08-.06-.07.39.03.83-.09.84-.61.06-.55-.85-.62-.83-.6.18.01.53.03.65.05.35.05-.56.31-.66.58-.23.08.14.22.36.3.5.28.46.45.32.44-.37Zm.94-.1c.07-.04.23-.08.38-.08.31 0 .49-.17.49-.45 0-.32-.2-.45-.67-.45H15l.02.88c0 .48.03.71.05.52.03-.19.1-.38.16-.42Zm4.52-.88c.13 0 .27-.04.3-.1.04-.06-.21-.1-.67-.09-.61.01-.68.02-.42.1.36.1.43.27.46 1.14.02.51.03.47.05-.23.04-.79.05-.82.28-.82Zm-4.65.34v-.35l.43.03c.73.05.64.67-.1.68-.31 0-.33-.02-.33-.36Zm32.7-.89c1.34-.73 2.06-1.16 1.7-1.02-2.59 1-3.75 1.57-3.78 1.86l-.03.31.33-.19c.18-.1.98-.53 1.78-.96Z"/></svg>