<svg xmlns="http://www.w3.org/2000/svg" width="51" height="51" viewBox="0 0 51 51"><path fill="#fff" fill-rule="evenodd" stroke="#fff" stroke-width=".751" d="M11.47 51.09C4.9 50.46.3 45.61.05 39.05c-.05-1.33.01-1.12.3 1.2.72 5.56 4.57 9.57 10.09 10.51.74.13 4.82.31 8.36.37.8.01-.33.03-2.5.03-2.17.01-4.35-.03-4.83-.07Zm15.94.07c.02-.03 2.7-.09 5.94-.15 8.39-.16 9.49-.34 12.03-2.02 3.48-2.28 5.22-5.41 5.6-10.07.1-1.15.22-1.46.22-.56 0 6.32-4.32 11.59-10.29 12.55-1.39.22-13.7.45-13.5.25Zm-6.12-22.65c-.63-.63-.35-1.12 1.17-2.03.57-.35 1.04-.65 1.04-.69 0-.06-.1-.13-6.35-4.39-2.53-1.72-4.68-3.22-4.77-3.33-.51-.56.05-1.39.79-1.18.25.07 4.4 2.87 9.48 6.39l1.8 1.25h.7c.58 0 .78-.04 1.1-.25.94-.59 14.4-8.35 15.13-8.72.64-.33 1.32.09 1.32.81 0 .61.07.56-6.1 4.13-1.68.97-4.55 2.61-6.37 3.66-1.83 1.04-3.33 1.92-3.33 1.96s.27.26.6.48c1.33.9 1.54 1.26 1.09 1.84-.38.48-.77.38-1.94-.5-.7-.52-.7-.52-1.42-.52-.72.01-.75.02-1.9.69-1.33.78-1.6.83-2.04.4Zm1.94-.58c1.17-.66 1.17-.66.98-.87-.25-.29-.41-.61-.41-.85 0-.29-.05-.28-1.11.35-1.54.93-1.83 1.36-1.23 1.83.38.3.48.28 1.77-.46Zm5.21.41c.39-.38.2-.67-.99-1.53-.82-.6-.79-.59-.95-.22-.06.16-.2.37-.3.46-.18.17-.15.2.68.81.9.67 1.27.78 1.56.48Zm-2.66-1.23c1.07-.55.72-2.24-.49-2.38-.41-.05-.5-.02-.82.27-1.2 1.05-.09 2.83 1.31 2.11Zm6.97-4.63c6.59-3.77 9.22-5.32 9.53-5.6.32-.3.3-.8-.04-1.07-.46-.36.47-.84-9.24 4.77-7.34 4.24-7.15 4.12-6.9 4.29s.5.64.5.93v.22l.33-.2c.17-.11 2.8-1.61 5.82-3.34Zm-8.54 2.46c.19-.2.19-.21-.09-.4-.35-.26-5.52-3.81-10-6.87-1.12-.76-1.77-.79-1.7-.06.03.32.15.42 2.03 1.71 1.1.75 3.64 2.49 5.65 3.86l3.65 2.5.14-.27c.07-.14.22-.35.32-.47ZM.01 12.67C-.07 6.13 4.51.9 11 .1c.52-.06 3.39-.09 7.5-.08l6.65.02-6.65.07c-7.58.07-8.44.14-10.4.84-2.68.96-5.36 3.34-6.63 5.9C.85 8.11.49 9.58.2 12.04l-.18 1.51zm51.05.41c-.03-.13-.06-.44-.06-.7-.02-5.69-4.18-10.83-9.6-11.87C39.87.21 39.04.17 34 .1L28.65.03l5.85.02c5.49.02 5.91.03 6.8.22 5.07 1.1 8.77 4.89 9.65 9.88.25 1.43.34 3.78.11 2.93Z"/></svg>