<svg xmlns="http://www.w3.org/2000/svg" width="51" height="51" viewBox="0 0 51 51"><path fill="#fff" fill-rule="evenodd" stroke="#fff" stroke-width=".665" d="M7.69 45.86c-1.04-.28-2.04-1.16-2.33-2.04-.2-.61-.27-35.68-.08-36.38.24-.86.94-1.63 1.84-2.04.42-.19.86-.2 18.49-.2h18.05l.51.25c.61.31 1.27.99 1.56 1.63l.22.47v35.9l-.28.57c-.47.95-1.44 1.67-2.56 1.88-.84.16-34.82.12-35.42-.04Zm35.96-.37c.74-.27 1.56-1.03 1.85-1.71l.23-.53.01-17.75.01-17.75-.26-.56c-.33-.7-.87-1.25-1.54-1.55l-.52-.24-17.99.02c-17.13.03-18.01.04-18.32.21-.55.3-1.12.88-1.4 1.41l-.27.51v36l.29.53c.39.7 1.13 1.27 1.96 1.53.14.04 8.16.08 17.82.08 17.54.01 17.57.01 18.13-.2Zm-19.58-1.74c-2.17-.35-3.87-1.05-5.28-2.16l-.37-.29h-3.78c-4.28 0-4.31 0-5.07-.7-1.03-.94-.93.2-1.03-12.3-.05-6.02-.09-12.82-.09-15.1V9.05l.28-.57c.31-.63.79-1.07 1.48-1.35.42-.17 1.16-.18 15.39-.18h14.95l.55.26c.66.31 1.21.85 1.52 1.48l.23.46v29.7l-.33.67c-.79 1.61-1.28 1.78-5.13 1.78-1.98 0-2.9.03-2.95.11-.33.54-2.74 1.74-4.33 2.16-1.22.32-4.56.42-6.04.18Zm1.31-4.22-.03-4.08-.28-.8c-1.4-3.97-4.8-6.6-8.84-6.82l-1.03-.06v3.4l.42.13c2.1.62 4.51 2.77 5.6 5 .79 1.6 1.07 2.86 1.17 5.28l.06 1.56.3.08c.58.14 1.9.36 2.28.37l.38.01zm3.48 3.99c.07-.04.13-.83.17-2.22.15-5.24 1.6-8.45 4.99-11 1.26-.95 3.68-2.04 4.14-1.86.27.1.15 6.33-.14 7.37-.49 1.75-1.33 3.33-2.4 4.49l-.64.7h2.78c3.2 0 3.28-.02 4.09-.92.77-.85.76-.73.73-7.29l-.03-5.76-1.4.34c-3.45.84-3.15.93-3.15-.94V25.1h-.54c-4.31 0-9 3.08-10.67 7-.9 2.12-1.06 3.21-1.14 7.83l-.07 3.67h1.59c.87 0 1.63-.04 1.69-.08Zm1.69-.34c4.03-1.15 6.96-4.63 7.46-8.83.16-1.35.02-5.65-.18-5.65-1.06 0-4.19 1.97-5.44 3.42-2.21 2.57-2.96 4.76-3.06 8.96l-.06 2.43.29-.07c.16-.03.6-.15.99-.26Zm-8.48-1.95c-.13-4.68-2.56-8.3-6.51-9.69l-.39-.14.06 1.87c.11 4.04 1.44 6.61 4.42 8.61.6.4 2.12 1.11 2.39 1.12.05 0 .06-.79.03-1.77Zm-4.18-.4c-.08-.1-.36-.44-.64-.75-1.82-2.04-2.27-3.81-2.29-8.98l-.01-3.55.6-.03c4.14-.22 8.51 3 9.8 7.23l.21.7.13-.65c.41-2.13 1.34-4.07 2.77-5.74.35-.42.5-.66.4-.66-.67 0-3.35-1.13-4.79-2.02-4.24-2.6-7.69-2.81-13.95-.86l-1.33.42.03 6.65.03 6.66.27.46c.3.52.77.95 1.23 1.15.53.23 7.72.2 7.54-.03Zm12.03-13.16c2.1-1.72 4.29-2.56 7.39-2.83.98-.08.99-.08.99 1.66 0 1.02.03 1.31.13 1.27.06-.02 1.03-.26 2.13-.53l2.02-.48.07-7.26c.11-10.72.11-10.72-.98-11.65-.81-.69.17-.66-16.33-.63l-14.89.03-.41.22c-.54.29-1.07.91-1.24 1.45-.15.46-.17 8.96-.04 14.24l.07 2.51 1.21-.39c6.04-1.95 9.77-1.73 14.01.81 1.52.91 2.02 1.14 3.7 1.72 1.41.48 1.41.48 2.17-.14Zm-6.74-7.07c-1.3-.15-1.61-1.84-.44-2.45.3-.16.42-.31.57-.69.82-2.17 3.93-1.76 4.25.56.14.99-.6 2.25-1.44 2.48-.43.11-2.25.18-2.94.1Zm10.17-.6-.59-.6H31.7c-1.33 0-1.3.03-1.3-1.32v-1.09l-.65-.64c-.79-.77-.79-.7 0-1.45l.64-.63.03-1.11.03-1.11 1.11-.03 1.1-.03.64-.64c.79-.8.81-.8 1.6 0l.64.64 1.1.03 1.11.03.03 1.16.03 1.16.64.57c.79.7.79.63 0 1.45l-.65.68v1.06c0 1.29.02 1.27-1.36 1.27h-.97l-.63.6c-.34.33-.68.6-.76.6-.07 0-.4-.27-.73-.6Zm-7.15.18c1.91-.97 1.24-3.83-.88-3.83-1.09 0-1.69.5-1.92 1.59-.04.23-.13.32-.37.38-.95.25-.97 1.67-.03 2.01.48.18 2.77.07 3.2-.15Zm8.58-.49.6-.57-.36.09c-.5.12-1.4.11-1.82-.01-.34-.1-.34-.1.25.5.33.33.62.59.66.58.04-.02.34-.28.67-.59Zm-2.34-.79c-.49-.24-1.3-1.04-1.55-1.51l-.17-.34-.04.95c-.05 1.2-.15 1.1 1.1 1.1h1.07zm5.09.13c.02-.05.01-.5-.01-1.02l-.04-.94-.16.34c-.22.45-.99 1.22-1.48 1.48l-.39.2 1.02.01c.56 0 1.03-.03 1.06-.07Zm-1.96-.33c1.06-.53 1.77-1.51 1.9-2.6.08-.71.25-.63.21.1l-.03.6.59-.59.6-.6-.5-.44c-.43-.39-2.69-2.23-3.28-2.69-.19-.14-.53-.17-2.31-.19l-2.1-.02.04 1.03.03 1.02-.68.64-.69.64.63.63c.52.51.62.58.58.37-.11-.5-.11-.93 0-.97.07-.02.13.16.17.47.26 2.21 2.84 3.6 4.84 2.6Zm-20.16-1.6c-2.91-.37-4.17-3.3-2.3-5.35 1.76-1.91 4.73-1.25 5.45 1.21.13.47.18.53.49.58 1.62.31 1.77 2.86.2 3.46-.39.15-2.89.21-3.84.1Zm3.97-.45c1.2-.72.91-2.48-.47-2.89-.42-.12-.46-.16-.57-.59-.38-1.49-1.54-2.35-3.03-2.25-3.47.25-3.8 5.07-.4 5.83 1.03.23 4.03.16 4.47-.1Zm18.14-4.37c-.02-.04-.52-.07-1.11-.06l-1.09.01-.6-.64-.61-.64-.53.53-.53.52h1.87l1.26 1.05 1.27 1.06.05-.88c.03-.48.04-.91.02-.95Z"/></svg>