<svg xmlns="http://www.w3.org/2000/svg" width="51" height="51" viewBox="0 0 51 51"><path fill="#fff" fill-rule="evenodd" stroke="#fff" stroke-width=".482" d="M24.2 40.12c-2.11-.55-3.31-2.25-3.55-5l-.08-.82-.51.29c-2.39 1.35-4.63 1.16-6.31-.53-1.12-1.13-1.55-2.16-1.55-3.73 0-1.75 1.1-3.37 2.89-4.24.28-.13.5-.26.5-.29s-.39-.3-.86-.6c-2.08-1.34-2.93-3.2-2.4-5.27.95-3.69 4.71-5.02 8.03-2.84l.3.21.02-.85c.03-2.36 1.43-4.38 3.42-4.95.38-.11.45.03.53 1.03l.05.68-.52.23c-1.96.87-2.18 3.28-.66 7.28.27.72.5 1.36.5 1.43 0 .11-.78.61-.85.54-.02-.02-.29-.4-.6-.84-2.74-3.82-5.6-4.98-7.54-3.04-.84.84-1.17 1.99-.87 3.03.51 1.74 2.94 2.91 6.89 3.31l.68.07-.03.56-.03.56-1.35.17c-2.09.27-3.13.55-4.33 1.17-2.11 1.09-2.55 3.24-1.02 4.99 1.78 2.03 4.69.92 7.5-2.86.37-.5.71-.91.77-.91.22 0 .89.42.84.53-1.75 4.02-2.03 6.35-.92 7.87 1 1.38 3.84 1.53 4.81.26 1.15-1.5 1.02-3.32-.53-7.44l-.32-.82.33-.2c.5-.31.62-.26 1.24.57 2.87 3.81 5.6 4.97 7.43 3.15.72-.72 1-1.41 1-2.45-.01-2.09-1.92-3.31-5.98-3.83-1.89-.24-1.72-.17-1.72-.74 0-.6-.05-.57 1.27-.75 4.92-.68 6.88-2.08 6.44-4.61-.14-.78-.17-.74.66-1.19.8-.44.83-.42 1.07.66.53 2.29-.48 4.34-2.7 5.51l-.67.35.64.34c2.33 1.22 3.36 3.59 2.58 5.94-1.05 3.15-4.39 4.38-7.34 2.7-.43-.25-.79-.45-.79-.45-.01 0-.02.4-.03.89-.06 3.63-2.88 5.83-6.33 4.93Zm3.43-.49c1.78-.84 2.66-2.44 2.67-4.89 0-1.01 0-1.01.72-.52 2.65 1.79 5.74 1.14 7.07-1.5 1.32-2.61.43-5.06-2.36-6.5-.4-.2-.73-.4-.73-.44s.36-.26.79-.48c2.39-1.24 3.41-3.39 2.71-5.72l-.11-.37-.53.31-.53.31.04.86c.15 2.62-1.65 3.92-6.35 4.58l-1.32.18v.31c0 .32 0 .32.68.39 3.65.38 5.79 1.29 6.7 2.85.62 1.04.3 2.88-.68 3.94-1.88 2.04-4.8.95-7.79-2.91-.7-.9-.66-.88-.98-.7l-.21.12.34.85c2.08 5.14 1.43 8.17-1.79 8.37-3.83.24-4.84-3.31-2.46-8.65.23-.53.23-.54.04-.68-.27-.2-.25-.22-.95.74-3.26 4.43-7.25 5.14-8.6 1.55-1.05-2.79 1.12-4.69 6.15-5.39 1.19-.17 1.23-.18 1.28-.43.07-.36.02-.41-.48-.41-1.21 0-3.58-.57-4.82-1.16-2.66-1.27-3.18-3.88-1.13-5.77 2.01-1.87 4.94-.67 7.72 3.15.53.73.55.74.82.55.16-.12.13-.22-.32-1.42-.82-2.18-.97-2.82-.96-4.25 0-1.75.46-2.65 1.67-3.27.46-.23.49-.26.43-.55a4 4 0 0 1-.06-.59c0-.38-.17-.37-.92.03-1.62.86-2.63 2.87-2.45 4.86.08.82-.01.84-.88.27-1.15-.75-1.62-.9-2.96-.9-1.13 0-1.17.01-1.9.37-.99.49-1.76 1.29-2.27 2.35-.52 1.09-.55 2.8-.08 3.78.38.77 1.38 1.76 2.39 2.35 1.01.6 1.01.62.04 1.12-1.94 1.01-3.05 2.76-2.82 4.47.41 3.03 2.92 4.95 5.63 4.3.54-.13 1.99-.78 2.41-1.08.37-.26.41-.2.41.54 0 2.75 1.23 4.72 3.3 5.29.98.28 2.6.18 3.43-.21Zm.35-18.18c-.24-.13-.3-.31-.72-2.02-1.14-4.7-1.27-5.82-.82-6.78.49-1.04 1.38-1.65 2.51-1.73 1.69-.11 2.9.82 3.18 2.41l.11.65.3-.23c1.23-.91 3.21-.37 3.99 1.09.33.62.32 2.11-.02 2.8-.52 1.06-1.1 1.42-4.32 2.69-2.93 1.16-3.73 1.37-4.21 1.12Zm5.19-1.81c2.77-1.15 3.33-1.74 3.33-3.48-.01-2.2-2.32-3.34-4.07-2-.41.31-.53.25-.53-.3 0-3.44-5.03-3.63-5.45-.21-.07.56.16 1.82.91 5 .57 2.42.6 2.5.87 2.62s2.47-.6 4.94-1.63Z"/></svg>