<svg xmlns="http://www.w3.org/2000/svg" width="51" height="51" viewBox="0 0 51 51"><path fill="#fff" fill-rule="evenodd" stroke="#fff" stroke-width=".765" d="M.97 38.23c-.12-.11-.08-.69.18-2.3 1.17-7.35 1.69-9.53 2.51-10.63.76-1 3.02-2.75 6.04-4.65.85-.54 1.78-1.12 2.05-1.3 3.3-2.11 10.21-5.53 12.53-6.21 1.72-.5 2.25-.4 2.72.52.41.79.26 2.93-.46 6.46l-.05.27 1.23-.54c2.86-1.23 5.69-2.14 7.27-2.33 1.36-.16 1.93.12 2.06 1.01.06.4.01.86-.39 3.62-.08.55-.16 1.21-.19 1.46l-.04.46.66-.18c3.76-1.03 8.78-1.79 11.81-1.79 1.96 0 1.98.27.05.85-6.98 2.12-12.47 5.3-19.45 11.29-1.61 1.38-2.36 1.07-2.26-.94.1-1.99 1.01-4.6 1.96-5.57.22-.24.38-.43.35-.43s-.77.35-1.63.78c-3.02 1.51-5.52 3.06-8.39 5.19-1.88 1.4-2.34 1.63-2.9 1.42-1.08-.41-1.11-2.56-.07-5.76.68-2.1 1.59-3.33 3.69-4.98.62-.49-2.29 1.13-4.1 2.28-3.29 2.1-8.44 6.22-13.57 10.84-1.32 1.19-1.47 1.3-1.61 1.16Zm1.71-1.56C7.4 32.4 12.24 28.5 15.5 26.38c2.46-1.61 7.12-4.19 7.28-4.03.04.04 0 .12-.1.18-.09.07-.73.52-1.43 1.01-2.74 1.94-3.87 3.39-4.6 5.91-.94 3.26-.82 5.05.34 5.05.45 0 .79-.21 2.71-1.65 1.57-1.19 3.48-2.44 5.4-3.55 1.22-.7 6.22-3.2 6.4-3.2.25 0 .05.19-.57.55-1.76 1.01-2.77 2.69-3.34 5.5-.17.87-.17 2.28 0 2.48.39.48.75.29 3.11-1.73 5.73-4.86 11.72-8.24 18-10.13l1.15-.35-.47-.07c-1.56-.24-7.43.57-11.38 1.56-.85.22-1.61.39-1.68.39-.18 0-.12-.81.23-3.18.31-2.02.32-2.81.06-3.13-.6-.74-4.46.19-8.98 2.17-.69.3-1.3.51-1.34.47s.08-.96.27-2.03c.73-4.16.52-5.5-.85-5.5-3.01 0-17.96 8.27-21.38 11.82-1.16 1.22-1.54 2.52-2.62 9.13-.6 3.67-.64 3.95-.56 3.95.03 0 .72-.6 1.53-1.33ZM35.7 21.28c.01-.07.07-.4.15-.73.23-.95.2-1.82-.07-1.96-.32-.17-1.26-.04-2.67.37-1.24.35-1.79.4-1.07.09.21-.09.89-.3 1.5-.46 2.72-.71 3.17-.27 2.45 2.44-.09.35-.29.52-.29.25ZM25.93 17c.03-.25.1-.81.17-1.24.27-1.87-.1-2.06-2.51-1.31-1.15.36-1.44.42-1.34.25.03-.05.56-.26 1.18-.46 2.78-.9 3.29-.51 2.82 2.15-.16.92-.42 1.4-.32.61Z"/></svg>