<svg xmlns="http://www.w3.org/2000/svg" width="51" height="51" viewBox="0 0 51 51"><path fill="#fff" fill-rule="evenodd" stroke="#fff" stroke-width=".306" d="M39.47 51.03c.03-.1.1-.24.16-.3.07-.1.03-.13-.16-.13-.32 0-.41-.13-.32-.47.05-.2.11-.24.31-.2.23.04.24.02.19-.23-.08-.38.3-.53.54-.22.14.18.18.19.34.07.11-.07.25-.11.33-.08.16.06.19.49.04.58-.16.1-.12.22.1.28.23.06.26.29.06.46-.11.1-.2.1-.38 0-.19-.09-.21-.09-.1.02.2.22.14.39-.13.37-.18-.02-.25-.08-.25-.22 0-.2-.01-.19-.16.02-.19.27-.67.31-.57.05ZM0 50.86c0-.65 6.76-3.64 12.95-5.72 5.75-1.94 10.13-3.12 16.32-4.4 1.63-.33 1.82-.39 1.8-.57-.04-.34.31-.46.54-.18.1.13.19.18.19.12 0-.24.48-.35.7-.16.26.23.25.17-.06-.89-.29-1.01-.27-1.16.15-1.16.26 0 .37.1.82.72l.51.73-.04-.92c-.03-.99.04-1.17.43-1.11.45.06 1.5 3.48 1.16 3.73-.31.22-.46.07-.71-.74l-.24-.76-.01.52c-.02.87-.48.85-.97-.06-.14-.25-.23-.38-.2-.28.38 1.25.41 1.48.21 1.63-.29.21-.39.13-.54-.44-.16-.59-.16-.59-1.18-.41-.42.07-.63.16-.63.25 0 .11-.04.12-.18.03-.25-.16-5.02.84-9.37 1.96-6.98 1.8-16.35 5.23-20.3 7.43-.83.45-.78.51.1.11 6.46-2.92 15.25-5.63 23.65-7.28 1.68-.33 3.43-.69 3.9-.8s1.03-.2 1.25-.2c.22.01 1.28-.13 2.35-.29 1.07-.17 2.24-.33 2.6-.37 1.54-.15 2.79-.38 3.37-.6.72-.29.99-.31 1.11-.08.1.17 1.01.2 2 .07.4-.06.42-.08.42-.4 0-.66.68-.65.84.02.05.19.13.24.37.24h.31l-.08-.42c-.05-.24-.09-.6-.08-.8 0-.5-.87-.55-.99-.06-.06.22-.27.16-.27-.08 0-.09-.1-.14-.27-.13-.52.01-.98.14-.98.28 0 .28-.35.38-.54.15-.22-.27-1.01-.22-1.4.08-.22.17-.26.17-.48.02-.3-.19-.74-.07-1.1.32-.17.19-.28.23-.35.16-.08-.08-.17-.07-.32.03-.27.18-1.02.3-1.09.18-.04-.05-.09-.25-.12-.44s-.24-.94-.47-1.68l-.42-1.33.23-.19c.3-.25.77-.25.9 0 .08.15.06.22-.1.33-.25.16-.08 1.04.18.94.23-.09.43.05.43.31 0 .16-.07.27-.19.3-.11.03-.18.1-.16.16.02.07.09.31.15.54.1.39.12.42.35.33.16-.06.27-.06.31.01.09.14.02.19-.38.25l-.34.06-.16-.59c-.09-.32-.2-.66-.23-.75-.06-.14-.02-.18.14-.18.12 0 .21-.05.21-.11s-.08-.08-.19-.04c-.24.07-.28 0-.47-.71-.14-.54-.12-.8.06-.69.05.03.12 0 .16-.06.06-.11-.44-.05-.55.07-.02.02.12.59.32 1.26.2.68.4 1.38.43 1.56.04.18.11.35.16.38.09.06.98-.15.98-.22 0-.02-.21-.83-.46-1.79-.51-1.94-.5-2.05.13-2.05.55 0 .83.36.83 1.08 0 .57.31 1.23.69 1.47.14.08.15.13-.14-1.09-.14-.58-.25-1.15-.25-1.26 0-.4.8-.56 1.02-.2.07.11.22.2.32.2.11 0 .33.12.48.27l.28.27v-.3c0-.34.16-.54.41-.54.23 0 .29.2.29.96 0 .36.07.97.16 1.36l.16.71.82-.07c.44-.03.94-.06 1.1-.06.28 0 .28-.01.13-.18-.21-.23-.22-.42-.02-.42.09 0 .15.09.15.25 0 .28.34.32 1.33.19l.46-.07-.06-.42c-.1-.79.47-1.51 1.15-1.43.4.05.42.42.03.62-.54.29-.49.81.11 1.12.27.14.65.16 2.75.12 1.33-.02 2.43-.01 2.43.03 0 .08-1.87.19-3.34.19h-1.21l.35.21c.46.28 1.18.97 1.36 1.32.14.26.18.27.88.27.97 0 1.96.11 1.96.21 0 .05-.58.09-1.3.09h-1.29l-.07.36c-.13.68-1.04 1.31-1.6 1.1-.25-.09-.12-.39.24-.57.4-.18.52-.35.52-.71v-.28h-2l.54.82c.77 1.18.92 1.53.76 1.73-.23.27-.55.18-.84-.25-.3-.46-.26-.44-.72-.25l-.35.14.07.6c.06.53.04.6-.14.7-.39.21-.47.05-.86-1.69l-.39-1.7h-.3c-.24 0-.28.03-.22.18.49 1.28 1.35 3.9 1.33 4.05-.04.27-.43.4-.62.21-.08-.08-.29-.59-.48-1.14-.4-1.22-.46-1.24-.5-.12l-.03.87-.31.03c-.37.04-.52-.13-1.03-1.15-.53-1.07-.43-.64.28 1.2.18.45.14.85-.1.97-.33.18-.44 0-.99-1.65-1.07-3.21-1.08-3.23-1.54-3.11l-.24.06.74 2.17c.82 2.4.84 2.56.38 2.61l-.31.03-.72-2.23c-.4-1.23-.77-2.25-.82-2.26-.05-.02-.09-.13-.09-.24 0-.15-.05-.18-.16-.14-.09.04-.82.14-1.63.23-.98.11-1.52.21-1.64.32-.15.12-.2.13-.26.02-.15-.23-3.92.41-4.23.72-.13.13-.42.27-.65.3-.8.13-.88.49-.43 2.03.66 2.26 1.14 2.73 2.09 2.03.19-.14.38-.2.51-.16.17.04.21.02.17-.11-.03-.09-.31-.95-.62-1.91-.59-1.86-.61-2.11-.15-2.11.27 0 .3.04.54.83.32 1.01.36 1.08.64 1 .28-.07.27-.12-.03-.98-.3-.85-.31-1.01-.06-1.15.37-.19.49-.01.95 1.43 1.1 3.47 1.11 3.5.64 3.55-.35.04-.49-.19-.79-1.3-.23-.85-.3-.95-.62-.82-.13.05-.11.19.14.92.16.47.29.94.29 1.04 0 .23-.5.37-.63.17-.07-.12-.15-.09-.42.17-.95.89-2.25.53-2.86-.81-.79-1.75-1.06-3.39-.63-3.86.22-.25.48-.28-3.07.42-8.24 1.62-15.54 3.84-22.76 6.9-2.59 1.1-2.53 1.08-2.53.75Zm30.84-.54a.6.6 0 0 1-.17-.25c-.06-.16-.08-.16-.27.03-.11.11-.26.17-.35.14-.17-.07-.2-.4-.05-.49.17-.11.11-.25-.16-.35-.37-.14-.3-.55.09-.55.23.01.27-.03.27-.27 0-.48.5-.48.51.01v.26l.16-.23c.31-.44.79-.13.49.33-.13.2-.12.22.16.33.4.15.36.48-.06.44-.24-.03-.27 0-.21.18.1.32-.16.59-.41.42Zm3.71-2.76c-.08-.19-.15-.41-.15-.48 0-.06-.11-.48-.24-.92-1-3.36-1-3.35-.22-3.43.87-.1 1.32.47 1.23 1.56-.05.65-.05.65.41 1.26.25.33.46.61.47.63.05.07.35-.12.35-.22 0-.36-.98-3.14-1.17-3.34-.37-.36-.27-.52.45-.72.61-.16 1.05.3.56.58-.15.08-.13.18.14.93.16.46.4 1.14.52 1.52.17.54.26.68.46.73.14.04.27.16.3.3.14.54.84.14.84-.47 0-.36-.06-.45-.79-1.15-1.35-1.29-1.45-2.46-.25-2.7.61-.12.87.47.29.66-.57.19-.48.48.43 1.44 1.28 1.32 1.45 1.88.81 2.61-.63.71-1.68.71-1.56 0 .03-.19.02-.35-.04-.35-.05 0-.09.06-.09.14 0 .19-.11.26-.61.34l-.41.07.22.28c.27.34.23.61-.11.65-.23.03-.35-.08-.85-.77-.69-.96-.73-.95-.43.04.24.84.2 1.07-.2 1.13-.16.03-.25-.05-.36-.32Zm-3.26-.04c.35-.17.6-.46.49-.57-.03-.03-.23.05-.43.2-1.06.72-1.68.17-2.34-2.08-.53-1.78-.36-2.36.69-2.53.52-.08.62-.24.15-.24-1.45 0-1.76.94-1.05 3.12.69 2.08 1.39 2.67 2.49 2.1ZM.4 47.56c0-.08 2.75-2.42 4.27-3.64 1.55-1.24 1.55-1.24 1.18-1.48-.25-.16-.25-.16-1.41.92-1.39 1.3-1.83 1.68-1.9 1.61-.03-.02.63-.69 1.46-1.47 2.5-2.38 1.29-2.02-1.93.57-.62.5-.87.64-.69.37.15-.2 1.22-1.05 2.4-1.88 1.35-.96 1.29-.89 1.04-1.21l-.19-.23-.77.59c-.42.32-.79.59-.81.59-.17 0 .03-.22.6-.65.36-.27.75-.6.88-.75.13-.14.36-.35.51-.46l.28-.21-.38-.94c-.66-1.64-.6-3.77.15-5.44l.3-.65h-.5c-.94 0-.89.19-.89-3.03 0-3.36-.14-3.07 1.45-3.07 2.34 0 3.35.69 3.54 2.38.13 1.16.3.71.33-.85l.03-1.48.44-.03c.58-.04.61.01.62 1.38 0 1.1.01 1.13.14.73.69-2.22 3.24-2.94 4.69-1.32.66.73.67.97.07 1.17-.47.16-.46.16-.7-.23-.63-1.07-2.25-.97-2.8.18-.3.62-.28.87.07.87.46 0 1.52.29 2.16.59.34.16.79.31 1.01.34.48.08.79.4.7.74-.04.18.06.37.45.84 4.95 5.95-2.44 14.18-8.87 9.89L7 42.08v.21c0 .14-.15.3-.42.48-.43.27-2.91 2.24-4.93 3.92-.98.82-1.25 1-1.25.87Zm34.6-.08c0-.07-.11-.53-.25-1.03-.42-1.5-.28-1.54.74-.2.65.85.91 1.1.91.87 0-.04-.25-.41-.56-.82-1.06-1.4-1.07-1.43-.93-1.89.25-.83-.26-1.53-1.03-1.43-.33.04-.34.11-.09.93.11.35.36 1.25.56 1.99s.39 1.43.41 1.53c.06.2.24.23.24.05Zm-2.65-1.4-.34-1.03.32-.12c.68-.25.7-.23 1.01.97.24.92.32 1.1.48 1.1.11 0 .17-.03.15-.07-.03-.05-.28-.84-.56-1.78-.67-2.19-.83-2.65-.93-2.65-.13 0-.09.23.21 1.12l.29.87-.46.15c-.25.09-.49.16-.53.16-.05 0-.2-.39-.35-.87-.26-.87-.54-1.38-.54-1 0 .16 1.17 3.93 1.27 4.1.02.04.1.07.18.07.09 0 .04-.27-.2-1.02Zm6.21.33c.84-.51.69-1.26-.51-2.45-1.01-1-1.21-1.86-.43-1.86.1 0 .18-.04.18-.1 0-.17-.36-.11-.64.11-.54.42-.25 1.21.77 2.11 1.12.99 1.12 2.18 0 2.18-.2 0-.32.04-.28.1.1.16.57.11.91-.09Zm-1.62-.48c-.04-.16-.31-1-.61-1.88-.49-1.47-.52-1.61-.36-1.72.24-.18.09-.27-.29-.17-.33.1-.51.33-.23.3.17-.01.18 0 .96 2.62.2.69.38 1.12.46 1.12.1 0 .11-.08.07-.27Zm3.26-.22c0-.2-1.34-4.18-1.44-4.28-.22-.23-.1.3.47 2.04.36 1.09.69 2.08.72 2.21.08.27.25.29.25.03Zm1.56-.18c-.04-.16-.24-.75-.45-1.33-.54-1.46-.74-2.1-.68-2.17.07-.06 1.03 1.31 1.38 1.97.34.65.48.8.65.73.16-.06.2-2.49.05-3.15-.2-.88.12-.15.68 1.55.64 1.91.75 2.16.88 2.04.14-.15-1.44-4.65-1.75-4.97-.15-.16-.15-.2.04 3.06.08 1.28 0 1.32-.59.28-1.08-1.94-2.37-3.25-1.83-1.86.1.26.46 1.29.8 2.29.39 1.17.66 1.83.75 1.83s.11-.08.07-.27Zm5.19-.04c-.06-.19-.08-.19-.24-.05-.42.38-.8.02-.41-.39l.22-.23-.28-.04c-.36-.04-.47-.43-.15-.53.12-.03.25-.04.3 0 .06.03.09-.07.08-.22-.03-.4.38-.46.55-.08.11.26.12.26.2.06.04-.12.16-.21.27-.21.28 0 .37.37.15.61-.16.18-.16.19.05.19.12 0 .24.07.27.15.08.21-.13.44-.35.38-.15-.04-.17 0-.13.26.05.38-.41.47-.53.1Zm-12.74-.95c-.06-.21-.17-.6-.25-.86l-.15-.48h.29c.59 0 .89 1.06.43 1.51l-.21.22zm10.67-1.05c-.12-.66-.11-.68.51-.9.6-.21.71-.17.97.33.16.31.51.4.39.11-.25-.68-2.54-3.96-2.78-4.01-.36-.07-.31.48.22 2.68.61 2.53.58 2.43.7 2.36.05-.03.04-.28-.01-.57Zm-2.63-1.34L42.18 41l-.46.01c-.26.01-.6.04-.75.08l-.28.06.64.9c.35.5.7 1.01.76 1.13.21.39.24.19.16-1.03Zm-29.7.9c4.94-1.25 6.64-7.29 3.06-10.85-3.59-3.57-9.77-1.68-10.77 3.3-.91 4.57 3.28 8.67 7.71 7.55Zm-2.15-.26c-3.51-.39-5.99-4.04-5.11-7.51 1.2-4.69 6.96-6.13 10.25-2.57 3.77 4.06.38 10.7-5.14 10.08Zm-3.78-.36c.26-.24.23-.37-.24-.9-.24-.27-.54-.63-.68-.8l-.25-.32-.34.28-.33.27.77.82c.86.91.81.88 1.07.65Zm38.01-.15c-.31-.67-.81-3.11-.59-2.87.14.15 1.76 2.64 1.76 2.7 0 .08-.74.39-.94.39-.07 0-.17-.1-.23-.22Zm-31.8-.18c3.77-1.16 5.22-6.18 2.65-9.13l-.33-.37-.58.29-.57.3.42.29c1.35.94 2.21 2.72 2.04 4.2-.08.66-.49 1.89-.71 2.11-.24.24-.2-.04.12-.8 1.07-2.53-.38-5.21-3.15-5.84-1.05-.24-1.55-.62-1.95-1.46-.43-.91-.47-.88-.47.36v1.05h-1v-.94c0-1.08-.2-1.23-.56-.43-.38.83-.99 1.27-1.94 1.39-.53.07-1.28 1.69-1.37 2.98-.06.78.11 1.9.28 1.9.06 0 .07.09.04.2s-.02.2.03.2c.06 0 .13.12.17.28.64 2.58 4.07 4.29 6.88 3.42Zm32.57-.11c0-.18-.64-1.09-.76-1.09-.18 0-.18.05.07.78.2.59.21.61.45.5.13-.06.24-.15.24-.19Zm2.14.07c1.36-.57.83-2.07-1.09-3.07-.83-.44-1.15-.75-1.15-1.14 0-.34.31-.75.57-.75.12 0 .14-.03.07-.1-.32-.32-.94.32-.94.96 0 .48.04.52 1.2 1.22 1.19.71 1.8 1.38 1.8 1.97 0 .29-.49.85-.74.85-.09 0-.16.05-.16.1 0 .13.04.13.44-.04Zm-14.41-2.12c-.43-1.52-.38-1.59.33-.47.73 1.15.84 1.17.84.19 0-.65.1-.99.26-.84.02.03.17.49.33 1.02.29.97.37 1.14.46 1.05.05-.06-.81-2.92-.96-3.21-.2-.38-.27-.05-.24 1.1.04 1.49.05 1.49-.64.45-.59-.9-.87-1.21-.98-1.1-.08.09.78 3.08.87 3.02.04-.02-.08-.57-.27-1.21Zm14.37.57c0-.35-2.06-1.61-2.63-1.61-.58 0-.59-.05.1.91l.58.79h.97c.54 0 .98-.04.98-.09ZM37.09 39c-.3-1.27-.24-1.37.38-.59.6.76.94 1.08.75.72-.07-.12-.17-.25-.22-.28-.43-.26-.99-1.33-.88-1.68.17-.55-.31-1.12-.72-.87-.11.07.58 3.21.77 3.53.13.22.11-.07-.08-.83Zm1.56-.37c-.25-.91-.21-1.24.1-.76.28.43.97 1.23 1.06 1.23.05 0-.14-.29-.4-.64-.42-.55-.51-.75-.61-1.38-.14-.83-.23-.98-.56-.98-.3 0-.35.1-.24.51.05.19.21.84.36 1.44.34 1.46.34 1.45.44 1.45.05 0-.02-.39-.15-.87Zm1.9.06c-.09-.27-.23-.98-.3-1.57-.12-.98-.13-1.01-.14-.44-.01.75-.06.76-.66.15-.59-.6-.48-.38.22.45.29.34.53.67.53.73 0 .26.44 1.52.48 1.36.02-.09-.04-.4-.13-.68Zm-.44-.07c-.12-.41-.5-1.13-.77-1.45l-.24-.29v.34c0 .21.12.53.31.84.53.84.85 1.1.7.56Zm2.42-1.21c-.06-.25-.21-.27-.29-.06-.08.19-.38.19-.53.01-.14-.17.01-.56.22-.56.07-.01-.03-.07-.2-.15-.45-.19-.33-.75.12-.59.06.03.11-.08.1-.23 0-.22.05-.29.23-.31.12-.02.22 0 .22.05.01.26.18.36.35.2.37-.38.77-.05.49.4-.1.15-.14.25-.1.21.05-.04.17-.03.28.03.26.14.2.53-.09.57-.15.02-.23.11-.25.3-.04.35-.47.45-.55.13Zm-7.29-2.96c-.06-.24-.08-.25-.23-.1-.24.21-.48.19-.62-.07-.09-.18-.08-.24.05-.34.16-.11.16-.13-.03-.19-.13-.04-.21-.15-.21-.3 0-.22.24-.4.4-.3.04.03.07-.1.06-.28-.01-.4.35-.52.54-.17.11.2.13.21.3.05.1-.09.27-.15.37-.13.23.04.29.41.08.58-.22.18-.18.3.11.3.22 0 .25.04.22.27-.03.24-.07.28-.31.26s-.27.01-.22.18c.07.22-.1.49-.31.49-.08 0-.16-.11-.2-.25ZM23.89 33.2c-1.6-.26-2.66-1.88-2.38-3.64.62-3.8 5.95-3.03 5.67.83-.14 1.86-1.57 3.08-3.29 2.81Zm3.55-.12c-.05-.08-.07-1.36-.04-3.03l.05-2.9h.9l1.35 2 1.35 2 .05-2 .05-2 .24-.03c.12-.02.34-.01.47.02l.24.06v2.38l.01 2.37.32-.75c.18-.41.62-1.47.97-2.35.69-1.73.7-1.75 1.17-1.75.43 0 .44.03 1.6 2.69l.98 2.26.05-2.4.05-2.4 1.2-.05c2.3-.1 2.93.07 3.35.9.38.74.13 1.65-.6 2.15l-.39.27.8 1.16c.97 1.42.97 1.44.18 1.4l-.61-.03-.6-.95c-.8-1.27-.9-1.36-1.64-1.44l-.61-.05-.07.52c-.03.29-.06.85-.06 1.25v.73l-.91-.03-.91-.03-.32-.8-.32-.8h-2.25l-.37.85-.38.85-.59.03c-.95.05-.92.08-2.25-1.9-.67-1.01-1.29-1.9-1.36-1.98-.12-.12-.14.15-.14 1.83v1.97h-.29c-.16 0-.36.02-.44.05-.07.03-.18 0-.23-.07Zm-10.06-2.46-.03-2.47h-1.8v-1h5.7l.03 2.97.02 2.98h-1v-5.03l-.37.07c-.21.03-.64.06-.95.06h-.57l.01.33c.01.17.01 1.28 0 2.45l-.02 2.12h-1zm26.39 2.41c-.04-.03-.07-.61-.07-1.28v-1.22l-1.06-1.58c-1.17-1.76-1.2-1.88-.42-1.83l.51.03.74 1.15c.41.63.78 1.15.83 1.15.04 0 .43-.53.85-1.17l.77-1.18h.49c.72 0 .7.08-.5 1.85l-1.11 1.63v2.52h-.48c-.27 0-.52-.03-.55-.07Zm-18.65-.17c2.42-.72 2.4-4.61-.02-5.41-1.27-.42-2.56.15-3.1 1.38-1.02 2.31.84 4.72 3.12 4.03Zm-19.38-.18c.24-.34.2-.38-.34-.38h-.5v-4.42l1.03.04c1.65.06 2.1.44 2.15 1.83l.04.84.34-.16c.88-.42-.02-2.59-1.21-2.92-.22-.06-.97-.11-1.67-.11H4.3v5.5h.64c.56 0 .67-.03.8-.22Zm4.36-.74c0-.95 0-.96-.22-.9-.13.03-.26.06-.3.06-.05 0-.08.41-.08.9v.9h.6zm4.3.76c.5-.26.55-.35.27-.53-.2-.13-.26-.12-.57.04-.98.53-2.29.02-2.7-1.05-.16-.42-.65-.38-.56.05.27 1.35 2.22 2.17 3.56 1.49Zm3.8-2.3v-2.5h.95c.95 0 .95 0 .95-.25v-.25h-4.3v.25c0 .25.01.25.9.25h.9v5h.6zm2.88-.28.02-2.72h-.6v5.51l.28-.03.27-.03zm7.04.61c.02-1.37.07-2.18.13-2.18s.75.98 1.55 2.17c1.3 1.94 1.48 2.17 1.73 2.18h.27v-5.5h-.5v2.15c0 1.3-.04 2.15-.1 2.15-.05 0-.59-.75-1.21-1.67-1.7-2.55-1.76-2.63-2.1-2.63h-.29v5.5h.5zM32.97 32l.41-.9h2.5l.34.88c.3.77.37.87.61.9.41.05.42.08-1.05-3.35l-.91-2.13h-.64l-.75 1.93c-.42 1.05-.92 2.29-1.12 2.75l-.35.82h.27c.26 0 .32-.08.69-.9Zm5.03-.35V30.4h.81c.97 0 1.07.08 1.99 1.59.54.88.56.9.93.91.28 0 .36-.03.31-.13-.26-.44-1.07-1.59-1.39-1.97l-.37-.44.38-.13c1.55-.54 1.35-2.58-.26-2.78-.3-.03-1.09-.05-1.75-.03l-1.2.03-.03 2.73-.02 2.72h.6zm6.55.3c.04-.52.05-1.04.02-1.15-.05-.2 1.43-2.6 1.97-3.18l.21-.23-.39.03c-.37.03-.4.06-1.2 1.31l-.81 1.28-.2-.24c-.11-.14-.5-.72-.87-1.31-.64-1.01-.69-1.06-1.02-1.06h-.34l1.04 1.58L44 30.55v1.18c0 1.17 0 1.17.24 1.17.23 0 .24-.03.31-.95Zm-36.79.6c.29-.19.79-.84.71-.92-.08-.07-.65.32-1.22.83l-.4.35.34-.05c.19-.04.45-.13.57-.21Zm15.96-.13c-1.1-.32-1.76-2.08-1.23-3.27 1.04-2.35 4.12-1.36 3.88 1.24-.13 1.52-1.3 2.41-2.65 2.03Zm-9.94-.37.37-.16-.33-.2c-.42-.27-1.6-.69-1.95-.69-.27 0-.27.01-.13.28.4.77 1.26 1.09 2.04.77Zm11.54-.1c1.16-.79 1.09-3.01-.12-3.62-1.81-.92-3.43 1.29-2.29 3.13.47.76 1.65 1.01 2.41.49Zm-18.86-.16c.16-.17.52-.47.79-.67.65-.47.65-.47.65-1.17-.01-1.31-.49-1.75-1.94-1.75H5.1v3.9h.53c.46 0 .57-.04.83-.31Zm27.14-1.22c0-.06.46-1.38.7-2 .12-.33.26-.55.3-.5.08.08 1 2.36 1 2.47 0 .03-.45.06-1 .06s-1-.01-1-.03Zm1.6-.34c0-.05-.14-.44-.32-.87l-.32-.79-.12.34c-.06.19-.21.58-.33.87l-.21.52h.65c.36 0 .65-.03.65-.07Zm-25.12-1.55.03-1.28H9.5v2.61l.28-.03.27-.03zm1.28.94c.39-1.83 2.44-2.44 3.4-1 .21.31.32.34.58.15.16-.12.15-.15-.13-.54-1.27-1.75-4.52-.67-4.51 1.5 0 .32.58.23.66-.11Zm26.68.15c-.03-.08-.04-.52-.02-.98l.03-.84 1.22-.03 1.22-.03.33.29c.6.54.33 1.38-.51 1.62-.56.15-2.21.13-2.27-.03Zm2.45-.32c.44-.22.55-.73.24-1.07-.14-.15-.32-.18-1.3-.18H38.3v1.4h.95c.65 0 1.05-.05 1.24-.15ZM21.5 25.29c-2.55-.22-4.11-2.27-3.72-4.87.36-2.35 1.68-3.47 4.07-3.47 1.8 0 2.7.46 3.31 1.68.32.63.29.77-.26.93-.63.19-.65.19-.85-.25-.64-1.43-3.02-1.68-4.17-.45-1.07 1.14-.99 3.62.15 4.6 1.41 1.2 4.22.66 4.15-.8l-.03-.61-1.17-.03-1.18-.03V20.9h3.7v3.08l-.31.27c-.93.77-2.3 1.17-3.69 1.04Zm14.47.01c-1.45-.25-2.65-1.46-2.7-2.73l-.02-.42h1.19l.19.5c.54 1.46 2.53 1.97 3.64.93.88-.82.28-1.46-1.97-2.08-2.1-.59-2.8-1.18-2.8-2.37.01-1.38 1.11-2.18 3-2.18 1.76 0 2.78.62 3.16 1.93.2.67.14.74-.61.7-.58-.03-.58-.03-.72-.42-.39-1.13-2.28-1.51-3.21-.64-.67.64-.12 1.22 1.58 1.68.63.17 1.38.41 1.65.54 3.24 1.48 1.3 5.17-2.38 4.56Zm-31.32-.09-.6-.06v-4.02c0-2.21.03-4.04.06-4.07s1.36-.08 2.97-.1c3.28-.05 3.15-.08 3.1.71l-.03.48-2.37.03-2.38.02v2.2h4.4l.06.24c.22.89.05.95-2.63.95l-1.83.01V24h2.4c1.84 0 2.42.03 2.45.12.12.36.14.92.04 1.04-.12.15-4.29.18-5.64.05Zm26.89.02c-.07-.06-.09-1.32-.05-4.18l.06-4.1h1.2v8.3l-.55.03c-.3.01-.6-.01-.66-.05Zm8.79.01c-.1-.04-.13-.97-.13-4.14v-4.09l-.4-.11c-.21-.06-.42-.15-.45-.2-.03-.06-.22-.1-.41-.1s-.49-.07-.66-.16c-.26-.13-.37-.14-.74-.04-.33.1-.5.1-.72.01s-.34-.09-.6.05c-.45.22-.8.12-.97-.29-.07-.18-.23-.38-.34-.45-.27-.16-.27-.57-.01-.99.11-.19.15-.35.1-.38-.19-.12-.1-.56.17-.81.14-.13.27-.36.28-.5.01-.3.29-.54.62-.54.17 0 .28-.11.44-.46.12-.25.3-.51.41-.57.1-.07.18-.21.18-.33 0-.59.86-1.8 1.76-2.49.25-.19.68-.69.96-1.11 1.43-2.13 3.41-2.71 5.2-1.51.46.32.54.34.92.25 2.01-.46 3.27.42 3.92 2.77.25.91.31 3.33.1 4.15-.15.58-.15.65-.01.73 1.89 1.05 1.19 3.68-.91 3.43-.55-.06-.74.03-.49.24.17.14.2.53.05.8-.07.13-.07.21 0 .25.41.25-.16 1.06-.77 1.09-.23.01-.45.05-.49.09s-.16.07-.26.07c-.19 0-.2.16-.24 4-.01.58-.02 1.11-.03 1.18-.01.09-.19.12-.69.1l-.67-.03.03-1.82.03-1.83-1.45-.02c-.8-.01-1.67-.02-1.94-.03h-.47l-.05 1.9-.05 1.9-.55.02c-.3.01-.61-.01-.67-.03ZM10.7 21.11c0-4.57-.06-4.21.74-4.21.55 0 .46-.1 2.66 3.1 1 1.46 1.86 2.7 1.91 2.75.07.07.1-.86.08-2.76-.03-3.19-.04-3.09.56-3.09.78 0 .75-.18.75 4.18 0 4.4.05 4.14-.81 4.1l-.64-.03-1.7-2.51c-.93-1.38-1.82-2.68-1.97-2.9l-.28-.39v5.85h-1.3zm15.2-.01V17h1.3l.02 3.52.03 3.52 1.79-.02c2.24-.03 2.16-.05 2.16.64v.54h-5.3zm-2.88 3.89c1.82-.38 2.28-.9 2.28-2.6V21.1h-1.59c-1.69 0-1.71.01-1.71.51 0 .18.08.19 1.2.19h1.2v1.7l-.41.26c-2.88 1.81-5.96-.64-4.93-3.92.72-2.31 4.24-2.82 5.15-.74.14.31.55.36.83.1.31-.3-.72-1.46-1.6-1.81-2.02-.79-4.44.14-5.14 1.97-1.27 3.34 1.25 6.35 4.72 5.63Zm14.87-.03c1.65-.45 2.36-2.03 1.45-3.23-.32-.42-1.4-.94-2.69-1.28-1.68-.45-2.21-.91-1.96-1.68.46-1.39 3.34-1.24 3.81.18.12.37 1 .56 1 .23-.04-2.4-5.16-2.79-5.68-.43-.26 1.21.37 1.89 2.19 2.4 2.32.64 2.79.93 2.79 1.73 0 1.99-3.59 1.98-4.35-.02-.2-.51-.95-.73-.95-.27 0 1.69 2.29 2.92 4.39 2.37Zm-27.79-.31v-.35H5.09l.03-1.47.03-1.48 2.23-.03 2.22-.02v-.7H5.1v-1.3c0-.71.03-1.3.08-1.3.04 0 1.06-.01 2.27-.01 2.53-.02 2.45 0 2.45-.45v-.34H4.3V25h5.8zm1.69-2.67c-.01-2 .02-3.03.09-3.06.1-.03 1.49 1.92 3.27 4.61l.98 1.47h.97v-7.8h-.8l-.02 3.18-.03 3.17-.32-.45c-.18-.25-1.16-1.68-2.19-3.17l-1.86-2.73h-.98V25h.91zM31 24.65v-.35h-4v-7.1h-.9V25H31zm1.6-3.55v-3.9h-.9V25h.9zm8.8 2v-1.9h4.3V25h.9v-2.58c0-2.44-.01-2.6-.2-2.77-.36-.32-.7-.13-.7.4v.45h-4.3v-2.6h-.29c-.16 0-.36-.03-.45-.06-.14-.06-.16.3-.16 3.55V25h.9zm4.1-3.22c0-.54-.3-.88-.77-.88-.44 0-.73-.16-.73-.39 0-.19-.45-.36-.84-.33-.34.04-.86-.19-1.03-.44-.4-.62-.53-.34-.53 1.11v1.35h3.9zm1.74-.34c.1-.09.24-.13.37-.09.55.18 1.07-.36.68-.71-.19-.17-.19-.17.01-.36.35-.33.2-.78-.27-.78-.13 0-.33-.09-.45-.2-.25-.23-.2-.25.15-.09.16.07.31.08.42.02.13-.08.05-.15-.46-.37l-.62-.27.07-.52c.03-.29.09-.67.12-.84.07-.39-.14-.53-.51-.33-.2.11-.26.09-.44-.09-.12-.12-.35-.24-.51-.27-.22-.05-.3-.13-.32-.32-.02-.18-.11-.28-.33-.34-.16-.05-.4-.14-.51-.2-.12-.06-.35-.11-.5-.12-.18-.01-.42-.14-.62-.35-.32-.32-.33-.32-.97-.26-.55.06-.69.05-.85-.1-.11-.1-.26-.15-.35-.11-.09.03-.28-.03-.43-.14-.24-.18-.34-.19-.77-.11-.3.06-.56.06-.67 0-.1-.05-.35-.06-.58-.03-.26.04-.45.02-.55-.06-.09-.08-.27-.1-.47-.06-.18.04-.46.07-.63.07-.16 0-.4.06-.53.15-.12.08-.31.14-.4.13-.55-.05-.77.18-.48.5.17.18.16.19-.13.26-.54.12-.75.75-.25.75.21 0 .17.08-.22.45-.48.46-.45.79.09.83.32.03.56.22.26.22-.06 0-.09.1-.07.22.04.3.34.35.75.12.26-.13.36-.15.45-.06.16.16.77.15 1.08-.02.22-.13.27-.12.54.11.22.19.37.23.59.19.2-.04.36 0 .54.14.17.13.41.2.7.2.25 0 .42.04.38.09-.08.15.29.31.69.31.2 0 .36.04.36.1s.14.1.3.1q.3 0 .3.15c0 .28.43.57.78.51.18-.03.44.01.6.1.15.07.35.14.45.14s.17.08.17.19c0 .3.25.44.69.36.34-.06.4-.04.46.14.09.28.4.44.74.36.21-.04.3-.02.35.1.05.13.37.32.58.34.04.01.14-.06.22-.15Zm1.8-2.81c-.03-.21-.15-.57-.26-.79-.3-.62.15-1.17.6-.72.14.14.16.64.02.73s.24.99.44 1.03c.35.07.96-.71.96-1.22 0-2.13-3.11-2.35-3.28-.24-.06.82.59 1.58 1.36 1.58.21 0 .22-.03.16-.37Zm-28.09-1.52c-.64-.16-1.06-.53-1.3-1.16l-.15-.4.03.7.02.7-.36.03c-.35.03-.37.01-1.17-1.14l-.81-1.16-.03 1.13-.03 1.14h-1.17l-.18-.45-.18-.45-.66-.03-.67-.03-.21.51c-.2.48-.22.5-.59.5-.5 0-.51.08.33-2.01l.72-1.79h.73l.54 1.24.54 1.24.05-1.21.05-1.22.37-.03c.36-.03.37-.03 1.1 1.07l.73 1.11.09-1.11.09-1.1.36.03.36.03.03.59.03.59.21-.42c.56-1.14 2.25-1.33 2.93-.34l.24.36.03-.44.03-.44 2.3-.02c3.28-.03 3.86.27 3.85 1.96-.01 1.61-.61 1.91-3.81 1.91H23v-.93l-.23.33c-.38.57-1.14.87-1.82.71ZM4.2 15.03c-.01-.05.32-.9.72-1.91.96-2.4 1.16-2.5 1.86-.9.22.51.49 1.13.6 1.38l.2.45.01-1.31c.01-1.62-.01-1.59 1.16-1.5.94.07 1.29.17 1.64.49l.23.22-.06-.32c-.07-.29-.05-.32.25-.38.41-.09.33-.24 1.32 2.45.08.22.15.11.61-1.05l.52-1.3.37-.03c.51-.04.5.02-.35 2.06l-.71 1.72h-.74l-.44-1.12-.44-1.13-.05.55c-.12 1.31-.58 1.64-2.38 1.68l-1.37.03-.22-.5-.21-.51h-1.3l-.21.5c-.2.46-1 .8-1.01.43Zm17.83-.18c.28-.13.77-.69.77-.88 0-.17-.3-.05-.41.15-.44.87-1.76.76-2.15-.18-.64-1.53.97-3.02 2.02-1.87.4.44.69.35.33-.1-.7-.9-2.03-.73-2.57.33-.78 1.52.58 3.24 2.01 2.55Zm-16.99-.5.25-.55H6.8l.27.55c.15.3.33.55.4.55.19 0 .19-.01-.56-1.75-.91-2.13-.88-2.13-1.7-.08-.35.87-.65 1.64-.68 1.71-.17.42.3.03.51-.43Zm4.98.27c.45-.28.63-.71.62-1.47-.01-1.2-.42-1.57-1.8-1.63l-.94-.04v3.44l.88-.04c.68-.03.96-.09 1.24-.26Zm3.01-1.31c.69-1.65.76-1.86.55-1.79-.07.03-.39.71-.71 1.51-.33.81-.62 1.47-.66 1.47-.03 0-.31-.68-.6-1.5-.33-.89-.6-1.5-.68-1.5-.17 0-.16.13.03.58.09.2.26.66.39 1.02.82 2.33.8 2.33 1.68.21Zm.9 1.04.27-.55h1.51l.25.55c.25.55.44.71.44.38-.01-.42-1.26-3.18-1.46-3.21-.18-.03-.75 1.21-1.52 3.29-.14.37.29-.02.51-.46Zm2.97-.85c0-.77.04-1.4.08-1.4.05 0 .51.63 1.03 1.4 1.27 1.88 1.29 1.88 1.29-.3 0-1.44-.02-1.7-.15-1.7s-.15.22-.15 1.34c0 1.66-.03 1.68-.78.48-.82-1.32-1.2-1.82-1.36-1.82-.13 0-.3 2.95-.18 3.28.14.4.22-.05.22-1.28Zm8.98 1.23c.03-.1-.23-.13-1.1-.13h-1.13l.01-.67.02-.68.96-.03c1.25-.04 1.26-.22.01-.22h-.95v-1.3h1.05c.63 0 1.05-.04 1.05-.1s-.5-.1-1.3-.1h-1.3v1.63c0 .9.03 1.67.07 1.71.13.13 2.56.02 2.61-.11Zm2.32-.08c.48-.29.7-.77.7-1.55 0-1.22-.45-1.6-1.9-1.6h-.9v3.42l.88-.04c.64-.03.98-.09 1.22-.23Zm18.58.03c.09-.09.18-.09.37 0 .29.13.42.15.32.05-.04-.03.01-.12.11-.19.15-.11.16-.16.03-.46-.57-1.37-.75-2.31-.51-2.68.08-.13.11-.13.22-.01.1.11.1.14.01.18-.3.11.1 2 .51 2.41.53.54.29-1.13-.3-2.03-.2-.3-.01-.34.2-.04.08.12.27.59.42 1.05.38 1.18.7 1.21.76.06.02-.34.07-.62.11-.62.15 0 .18.27.09.83l-.09.57h.27c.71 0 .8-3.29.16-5.2-.61-1.78-1.54-2.39-3.26-2.11l-.76.13-.53-.36c-1.76-1.19-3.94-.44-5.1 1.74-.2.37-.42.65-.56.7-.72.27-1.8 1.7-1.91 2.51-.05.38-.11.49-.27.51-.12.02-.26.16-.34.35l-.13.32.38-.05c.2-.03.53-.1.73-.16.26-.07.42-.07.57.01.29.15 1.58.21 1.94.09.22-.08.37-.06.7.09.79.36 1.19.45 1.63.38.46-.06 1.15.19 1.32.49.04.07.22.16.38.19.76.13 1.55.55 1.55.81 0 .06.17.21.38.32.46.27.45.27.6.12ZM8.22 13.19l.03-1.44.6.03c1.03.04 1.34.28 1.5 1.13.19 1.01-.33 1.62-1.41 1.67l-.75.04zm18.25-.01.02-1.43.48-.03c1.1-.08 1.63.36 1.63 1.36 0 1.08-.44 1.52-1.52 1.52h-.63zm-4.54 1.12c.13-.11.28-.31.31-.46.06-.22.11-.25.39-.22l.32.03.03-.54c.03-.53.03-.54-.24-.48-.22.04-.34-.03-.64-.34-.48-.51-.88-.53-1.34-.06-1.03 1.02.06 2.94 1.17 2.07Zm-12.51-.01c1.17-.32.88-2.17-.35-2.27l-.57-.04v2.42h.28c.15 0 .44-.05.64-.11Zm16.46-1.11.03-1.18H23.9v.7h1.9v.8h-1.9v.38c0 .52.02.53 1.05.5l.9-.03zm1.88 1.07c1.14-.48.74-2.25-.52-2.25h-.54v2.4h.35c.2 0 .51-.07.71-.15ZM5.4 13.53c0-.21.56-1.56.64-1.55.13.01.68 1.41.61 1.53-.07.11-1.25.12-1.25.02Zm8.96-.02c-.07-.11.46-1.52.58-1.54.16-.03.68 1.45.54 1.54-.18.12-1.05.11-1.12 0ZM0 8.1C0 8.03 3.97 8 11.7 8h11.7V3l-11.47-.01C5.61 2.98.34 2.94.2 2.9s5.07-.08 11.58-.09L23.6 2.8v5.4H11.8C4 8.2 0 8.17 0 8.1Zm2.15-.56C.15 6.5.8 3.1 3 3.1c.97 0 1.58.38 1.96 1.23l.19.42.05-.8.05-.8 3.25-.03c4.2-.03 3.7-.29 3.7 1.88v1.8h.88c1.03 0 1.15.06 1.1.51l-.03.34-1.37.03-1.38.03V6.68c0-.57-.03-1.4-.07-1.85L11.27 4H9.2v.99l.98.03.97.03v.7l-.97.03-.97.03-.03.92-.03.92h-.8l-.03-1.82L8.3 4H6.1v1H8v.8H6.11l-.03.93-.03.92-.43.03-.42.03-.01-.88v-.88l-.15.4c-.41 1.11-1.88 1.72-2.89 1.19ZM14.3 5.46V3.22l.3-.07c.59-.13.61-.06.58 2.34l-.03 2.16-.42.03-.43.03zm1.07 2.18c-.09-.09-.09-3.69-.01-4.12.07-.33.31-.47.63-.37.1.03.61.69 1.12 1.47l.94 1.41.08-1.34c.09-1.6.09-1.61.44-1.57l.28.03.03 2.28.02 2.27h-.35c-.35 0-.38-.04-1.33-1.47l-.97-1.48-.05 1.45-.05 1.45-.35.03c-.2.02-.39 0-.43-.04Zm3.7 0c-.15-.15-.08-4.31.07-4.43.09-.08.61-.11 1.62-.09l1.47.03.1.28c.15.45 0 .51-1.23.48L20 3.89V4.9l.62.01c1.28.01 1.53.09 1.53.49v.35l-1.07.03-1.08.03v.99h.89c1.37 0 1.53.05 1.49.49l-.03.36-1.61.03c-.88.01-1.63-.01-1.67-.04Zm-15.2-.33c1.05-.48 1.42-2.05.73-3.14-.82-1.3-2.88-1-3.29.48-.52 1.87.95 3.39 2.56 2.66Zm5.03-.76V5.6h1c.93 0 1-.01 1-.2s-.07-.2-1-.2H8.89l.03-.72.03-.73 1.17-.03c.96-.02 1.18-.05 1.18-.17 0-.13-.23-.15-1.35-.15H8.6v2.05c0 1.76.02 2.05.15 2.05.12 0 .15-.17.15-.95Zm4.94.89c.5-.19.13-.34-.84-.34h-1V5.25c0-1.78-.01-1.85-.2-1.85s-.2.07-.2 2v1.99l.98.04c.53.01 1 .04 1.04.05.03.01.13-.01.22-.04Zm1.06-1.99c0-1.98-.01-2.05-.2-2.05-.2 0-.33 3.84-.13 4.03.29.3.33.05.33-1.98Zm1.05.35c.04-.94.1-1.7.14-1.7.03 0 .47.64.96 1.42 1.04 1.62 1.37 2.04 1.53 1.94.2-.12.17-4.06-.03-4.06-.13 0-.15.25-.15 1.64 0 .91-.04 1.67-.08 1.7-.07.04-1.29-1.75-2.12-3.1-.09-.14-.24-.24-.37-.24h-.23v2.05c0 1.68.02 2.05.14 2.05.11 0 .15-.35.21-1.7Zm6.17 1.55c.16-.22.04-.25-1.17-.25H19.7V5.61l1.07-.03c.93-.03 1.08-.05 1.11-.2s-.09-.18-1.05-.2l-1.08-.03v-1.4l1.18-.03c.95-.02 1.17-.05 1.17-.17 0-.13-.24-.15-1.4-.15h-1.4v4.05l1.38.01c.84 0 1.4-.04 1.44-.11ZM5.8 6.51c0-1.02-.02-1 .87-.93.73.05 1.13-.03 1.13-.23 0-.12-.18-.15-1-.15h-1V3.7H7c1 0 1.2-.02 1.2-.15s-.22-.15-1.4-.15H5.4v2c0 1.93.01 2 .2 2s.2-.07.2-.89Zm-3.36.5c-1.15-.53-1.13-2.66.02-3.21 1.13-.55 2.27.43 2.11 1.81-.15 1.25-1.11 1.88-2.13 1.4Zm1.25-.26c.75-.38.85-1.9.17-2.52-.76-.7-1.85-.26-2.02.82-.19 1.32.81 2.24 1.85 1.7Z"/></svg>