<svg xmlns="http://www.w3.org/2000/svg" width="51" height="51" viewBox="0 0 51 51"><path fill="#fff" fill-rule="evenodd" stroke="#fff" stroke-width=".773" d="M14.01 41.34c-1.35-.36-2.72-1.44-3.35-2.63-.57-1.09-.66-1.65-.66-4.24v-2.28l.25-.24c.31-.32.75-.32 1.12-.01l.28.24.05 2.44.05 2.44.34.67c.69 1.35 1.77 2.02 3.29 2.02h.92l11.03-5.51c10.22-5.12 11.06-5.56 11.54-6.04 1.47-1.47 1.53-3.52.16-5.01l-.56-.6-10.91-5.43c-6-2.99-11.08-5.49-11.3-5.56-1.5-.49-3.47.43-4.23 1.98-.28.56-.28.59-.33 2.92-.05 2.55-.09 2.71-.6 2.89-.35.12-.56.07-.87-.22-.3-.26-.35-4.25-.08-5.32.75-2.91 3.83-4.73 6.63-3.9.99.3 22.32 11.01 22.99 11.55 2.65 2.14 2.56 6.27-.19 8.37-.9.69-22.08 11.27-22.95 11.47-.87.19-1.89.2-2.62 0Zm2.82-.31c.28-.08 5.42-2.61 11.42-5.6l10.9-5.46.76-.76c2.14-2.15 2.11-5.26-.07-7.31-.62-.57-1.17-.86-11.47-6.02-5.95-2.97-11.07-5.49-11.37-5.6-2.28-.81-5.01.27-6.14 2.42-.55 1.03-.66 1.72-.66 4.08 0 2.21.05 2.42.63 2.42.51 0 .55-.17.59-2.6.04-2.46.11-2.8.75-3.73.9-1.3 2.95-1.98 4.38-1.44.22.08 5.26 2.57 11.19 5.53 12.02 6 11.53 5.72 12.16 7.06.72 1.55.28 3.44-1.06 4.57-.7.59-22.3 11.32-22.94 11.4-2.02.25-3.73-.93-4.34-2.98-.12-.43-.16-1.01-.16-2.63 0-1.95-.01-2.09-.2-2.28-.24-.24-.49-.25-.76-.06-.34.25-.28 4.74.08 5.74.97 2.67 3.63 4.05 6.31 3.25Zm1.39-10.25c-.07-.07-.12-.29-.12-.5v-.38h-1c-1.17 0-.92.24-2.25-2.14-.84-1.51-.92-1.61-1.22-1.64-.27-.03-.34.02-.54.37-1 1.79-3.64 1.2-3.77-.83-.13-2.09 2.36-2.97 3.64-1.29.18.23.34.47.36.53.02.07.14.09.3.05.23-.06.33-.25.88-1.7.69-1.83.61-1.75 1.77-1.75h.86l.34-.4c.71-.82 1.84-.71 2.43.25.65 1.06-.38 2.57-1.57 2.29-.37-.09-.9-.49-.98-.74-.06-.17-.15-.2-.74-.2h-.68l-.35.92c-.2.51-.39 1.03-.42 1.16l-.07.22h3c3.47 0 3.31.03 3.31-.59 0-.97.45-1.14 1.44-.54 2.77 1.66 2.77 1.65.76 2.84-1.77 1.05-2.2 1.02-2.2-.13v-.48h-3.05c-1.68 0-3.05.03-3.05.07s.33.64.73 1.35l.72 1.28h1.35v-.33c0-.58.21-.67 1.48-.67 1.52 0 1.52 0 1.52 1.58 0 1.55.03 1.52-1.56 1.52q-1.2 0-1.32-.12Zm2.58-.27c.11-.22.13-1.44.04-2.04l-.07-.38-1.21.03-1.21.03-.03.47-.03.48h-.79c-.74 0-.8-.01-.98-.27-.38-.54-1.63-2.85-1.57-2.91.08-.08 6.18-.16 6.49-.08.23.06.25.11.28.74.03.58.06.67.23.69.32.04 2.8-1.49 2.8-1.72 0-.21-.6-.65-1.97-1.43-.93-.53-1.08-.5-1.08.23 0 .93.31.85-3.51.85-2.65 0-3.39-.03-3.39-.12.01-.07.22-.69.48-1.38l.48-1.25.81-.03c.74-.03.82-.01.88.17.39 1.25 2.45.88 2.45-.44 0-1.33-1.84-1.83-2.45-.66l-.15.3-1.02.03-1.01.03-.62 1.65-.62 1.65-.44.03c-.44.03-.45.02-.66-.42-.81-1.65-3.23-1.21-3.41.62-.18 1.96 2.53 2.66 3.41.89.35-.71.98-.65 1.42.13l1.09 1.93.77 1.37h2.09v.43c0 .58-.03.57 1.26.57 1.02 0 1.14-.02 1.24-.19Z"/></svg>