<svg xmlns="http://www.w3.org/2000/svg" width="51" height="51" viewBox="0 0 51 51"><path fill="#fff" fill-rule="evenodd" stroke="#fff" stroke-width=".468" d="M9.7 50.91c0-.17 1.19-2.43 1.96-3.71 3.08-5.12 8.4-10.51 13.36-13.52l.62-.38h-1c-.64 0-1.04-.04-1.12-.12-.21-.21-.17-14.92.05-15.13.24-.24 7.89-.16 8.98.09 1.59.37 2.79 1.23 3.34 2.39 1.18 2.48.18 5.63-2.13 6.71-1.04.48-1.67.59-3.93.63l-2.13.05v2.09c0 1.15.03 2.09.06 2.09.04 0 .39-.18.78-.39 1.94-1.06 5.68-2.45 7.88-2.93l1.08-.23v-5.17c0-4.56.02-5.18.16-5.32.18-.18 3.96-.24 4.24-.06.13.08.15.79.18 5.19l.03 5.1.42.05c.23.03.81.08 1.29.11 1.7.12 5.78 1.35 5.78 1.76 0 .14-.06.12-1.42-.4-1.84-.71-4.22-1.21-5.72-1.21h-.33l-.05 2.26c-.04 1.77-.09 2.28-.19 2.35-.25.17-4.18.06-4.29-.11-.05-.08-.1-1.06-.1-2.17V28.9h-.23c-1.18 0-5.38 1.46-8.04 2.78-1.48.73-1.53.77-1.53 1.07 0 .46-.15.55-.94.55h-.7l-1.71 1.14c-5.89 3.96-10.62 9.17-13.71 15.1-.66 1.28-.94 1.68-.94 1.37Zm-.2-17.7c-.17-.12-.23-15.01-.07-15.18.13-.13 5.46-.16 6.94-.03 3.24.26 4.75 1.11 5.29 2.96.47 1.64-.4 3.52-1.91 4.1-.56.21-.56.28-.02.43 1.44.42 2.47 1.87 2.47 3.51 0 2.1-1.24 3.54-3.5 4.05-.89.21-8.93.34-9.2.16Zm9.28-.44c1.38-.37 2.38-1.12 2.85-2.15.37-.79.32-2.58-.08-3.31-.52-.94-1.48-1.58-2.65-1.77-.52-.08-.51-.28.03-.44 1.71-.51 2.52-1.52 2.52-3.15 0-1.96-.92-2.9-3.36-3.47-.88-.21-1.19-.22-4.69-.22l-3.75-.01-.03 7.38-.02 7.39 4.27-.05c3.58-.03 4.38-.07 4.91-.2Zm8.62-2.09c0-1.28.03-2.5.06-2.7l.07-.37h1.96c2.88.01 4.1-.32 5.24-1.4 2.15-2.04 1.76-6-.72-7.25-1.3-.66-1.56-.69-6.13-.74l-4.18-.03V33h3.7zm14.38.08.02-2.19-1.77.07c-2.52.1-2.23-.2-2.23 2.27V33l1.98-.02 1.97-.03zm-28.44-.39c-.02-.07-.03-.94-.02-1.92l.03-1.8h1.45c1.16 0 1.54.04 1.92.18 1.5.58 1.75 2.5.42 3.24-.7.39-3.67.63-3.8.3Zm3.51-.48c.66-.32.87-.64.87-1.28 0-1.21-.7-1.64-2.74-1.69l-1.38-.04v3.35l1.38-.05c1.22-.04 1.45-.07 1.87-.29ZM40 28.39c.63 0 1.3-.03 1.48-.06l.32-.05V18.2h-4v10.32l.53-.06c.28-.03 1.04-.06 1.67-.07Zm-12.46-3.54c-.1-.26.03-3.86.14-3.97.22-.22 3.03-.05 3.55.21 1.52.75 1.35 2.96-.28 3.67-.61.27-3.32.34-3.41.09Zm3.51-.45c.67-.35.98-.92.93-1.73-.09-1.26-1.09-1.75-3.25-1.6l-.93.06v3.59l1.38-.04c1.24-.03 1.43-.06 1.87-.28Zm-17.67-.16c-.1-.09-.1-2.99-.01-3.32.09-.36 2.62-.3 3.38.08 1.31.66 1.3 2.36-.03 3.02-.48.24-3.15.42-3.34.22Zm2.42-.25c1.13-.18 1.65-.65 1.65-1.48 0-1.17-1.07-1.71-3.07-1.55l-.78.07v3.07h.78c.42 0 1.06-.05 1.42-.11Z"/></svg>