<svg xmlns="http://www.w3.org/2000/svg" width="51" height="51" viewBox="0 0 51 51"><path fill="#fff" fill-rule="evenodd" stroke="#fff" stroke-width=".393" d="M31.65 38.93c-.39-.06-.41-.09-.49-.66l-.07-.47h.3c.24 0 .31.04.31.19 0 .5.4.69.74.35.28-.27.13-.5-.53-.84-1.2-.61-.87-1.76.49-1.74.89.02 1.16.35.76.9-.14.18-.16.18-.45-.14-.32-.35-.41-.38-.58-.21-.19.19-.04.38.49.65 1.45.73.73 2.2-.97 1.97ZM6.56 37.64c-.32-.7-.67-1.35-.78-1.44-.33-.27-.14-.4.58-.4.68 0 .98.21.61.42-.15.08-.14.15.14.71l.31.61.2-.53.21-.54-.23-.17c-.41-.31-.2-.5.54-.5.68 0 .88.12.63.37-.13.14-.13.22.06.77l.2.61.28-.59c.25-.54.27-.61.12-.71-.43-.31-.09-.44 1.17-.44h1.21l-.02 1.25c-.02 1.1 0 1.26.16 1.38.38.28.12.46-.69.46-.86 0-1.16-.3-.53-.53.14-.05.17-.2.17-1.01v-.94l-.31-.11-.3-.1-.31.67c-1.07 2.4-1.04 2.38-1.54 1.22l-.33-.75-.36.78c-.21.42-.43.77-.49.77-.07 0-.38-.57-.7-1.26Zm6.21 1.05c-.2-.15-.22-.28-.25-1.28-.03-1.01-.05-1.11-.23-1.11-.14 0-.19-.07-.19-.25s.05-.25.2-.25c.17 0 .2-.07.2-.45 0-.87.83-.94.88-.08.03.51.04.53.32.53.32 0 .43.11.34.34-.04.1-.18.16-.35.16h-.3l.03.97.03.98h.48l.47.01v-1.92c0-1.61-.02-1.93-.15-1.98-.18-.07-.2-.45-.02-.51.06-.02.33-.06.6-.1l.47-.06v2.19l.35-.1c.92-.29 1.39.23 1.44 1.6.02.8.06.99.22 1.1.38.26.12.42-.72.42-.77 0-.79-.01-.79-.24 0-.15.07-.26.2-.29.37-.09.25-1.91-.12-1.95-.56-.07-.88 1.53-.38 1.95.11.1.2.25.2.35 0 .26-2.6.24-2.93-.03Zm7.23.01c0-.13.1-.24.25-.3l.25-.1v-1.8c0-1.95.01-1.91-.55-1.7-.14.05-.35.26-.46.45-.34.57-.49.46-.49-.35v-.7h4.01l-.03.68c-.03.76-.2.88-.48.37-.17-.31-.52-.55-.82-.55-.17 0-.18.15-.18 1.85 0 1.74.01 1.85.19 1.85.22 0 .45.25.36.4-.13.22-2.05.13-2.05-.1Zm2.54.05c-.07-.18.03-.35.22-.35.26 0 .2-1.94-.08-2.12-.39-.26-.17-.48.47-.48.31 0 .55.04.55.1 0 .07.06.07.19 0 .56-.3 1.25.07 1.03.55-.13.28-.46.33-.59.1-.2-.36-.44.07-.5.89-.06.74-.05.8.17.96.15.11.21.23.17.34-.09.22-1.55.24-1.63.01Zm2.63-.05c-.61-.48-.2-1.33.78-1.6.68-.19.75-.9.09-.9-.2 0-.23.04-.18.28.07.34-.14.55-.48.5-.36-.05-.33-.73.05-1.02.42-.31 1.26-.29 1.61.03.25.23.26.3.26 1.25v1.01h.4l.4.01v-.94c0-.86-.02-.94-.21-.99-.14-.04-.19-.12-.17-.27.03-.23.91-.37 1.1-.18.07.07.22.05.43-.04.94-.39 1.45.16 1.53 1.63.03.7.08.93.18.93.08 0 .14.11.14.25 0 .25-.01.25-.85.25-.79 0-.85-.01-.85-.2 0-.11.08-.24.18-.27.27-.1.32-.24.32-1.01 0-1.05-.29-1.42-.73-.94-.23.26-.25 1.9-.02 1.98.08.04.15.15.15.25 0 .19-.07.19-1.32.15-.73-.03-1.37-.05-1.43-.05-.05 0-.33.02-.6.05-.41.05-.55.02-.78-.16Zm8.26.04c-.04-.12.02-.24.2-.38l.27-.22v-1.91c0-1.82-.01-1.91-.2-1.96-.46-.12-.23-.44.36-.51.78-.09.74-.2.74 2.33 0 2.23 0 2.29.21 2.34.13.04.2.12.17.24-.05.26-1.65.33-1.75.07Zm2.03-.02c-.49-.55-.1-1.28.86-1.63.56-.21.66-.81.14-.87-.26-.03-.28-.02-.22.23.08.32-.08.55-.38.55-.8 0-.47-1.13.36-1.27 1.1-.17 1.48.24 1.48 1.6 0 .86 0 .87.25.87.3 0 .34.29.08.55-.12.13-.27.15-.57.11-.52-.07-.49-.07-1.21 0-.52.05-.62.03-.79-.14Zm3.46.11c-.28-.11-.42-.62-.42-1.58 0-.74-.03-.95-.14-.95-.08 0-.16-.06-.18-.12-.08-.21.02-.38.23-.38.16 0 .19-.07.19-.49 0-.48.01-.49.35-.55.49-.09.55-.03.48.54l-.06.49.34.03c.48.04.49.42.02.46l-.33.03v.94c0 1.01.04 1.1.45.95.27-.1.55 0 .55.21 0 .3-1.05.6-1.48.42Zm1.97-.16c-.68-.45-.88-1.36-.46-2.17.55-1.11 2.19-1.07 2.69.07.68 1.54-.88 3.01-2.23 2.1Zm2.48.17c-.15-.16-.07-.44.13-.44.27 0 .31-1.93.04-2.08-.09-.05-.14-.18-.12-.28.04-.22 1.08-.35 1.08-.14 0 .07.06.08.19 0 .46-.24 1.11-.05 1.11.34 0 .36-.25.52-.56.37-.43-.19-.54-.01-.54.95 0 .75.02.83.21.89.12.04.19.14.17.23-.03.18-1.55.31-1.71.16Zm-17.64-.31c-.26-.17-.31-.7-.11-.93.09-.1.06-.09-.12.02-.48.3-.23 1.09.35 1.07.06 0 0-.07-.12-.16Zm10.39.05c-.3-.15-.38-.52-.17-.84.16-.25.16-.25-.05-.14-.55.29-.37 1.11.24 1.09.2 0 .2-.01-.02-.11Zm1.68.02c.12-.08.09-.1-.12-.1h-.28v-1.03c0-1.03-.13-1.47-.43-1.47-.08 0-.08.03.01.12.19.19.16 1.97-.04 2.19-.15.16-.14.17.03.13.11-.03.25.02.32.1.15.18.3.2.51.06Zm-26.3-1.25V36.1h-.26c-.21 0-.24.03-.15.14.08.1.09.47.05 1.25-.07 1.09-.07 1.11.14 1.11s.22-.04.22-1.25Zm1.82 1.09c-.21-.15-.22-.21-.21-1.76 0-1.62-.01-1.75-.2-1.63-.14.08-.15 3.09-.01 3.36.07.11.21.19.38.19h.26zm1.77-.58c-.04-.41-.04-.91.01-1.1.04-.2.04-.39-.01-.42s-.09-.56-.09-1.18v-1.13l-.25.05c-.19.03-.23.08-.15.17.07.09.1.86.08 2.24l-.03 2.11h.51zm1.71-.37c-.06-1.22-.21-1.51-.79-1.48-.24.02-.24.02-.03.06.43.08.54.42.5 1.52-.03.95-.02 1.01.17 1.01s.2-.05.15-1.11Zm4.45-.99v-2.1h-.35c-.26 0-.31.03-.22.12.15.15.17 3.6.02 3.89-.1.17-.07.19.22.19h.33zm2.37 1.08c.03-1.16-.05-1.48-.41-1.48-.19 0-.21.03-.12.14.08.1.11.5.09 1.25-.03 1.09-.03 1.11.19 1.11.21 0 .22-.04.25-1.02Zm3.68.93c-.24-.07-.25-.09-.28-1.11-.02-.79-.07-1.09-.19-1.22-.24-.26-.36-.22-.18.06.13.19.16.46.14 1.18-.03 1.08.01 1.18.44 1.17.3-.01.3-.01.07-.08Zm1.46.01c-.02-.04-.06-.61-.07-1.25-.02-1.17-.02-1.17-.27-1.17-.2 0-.22.02-.12.15.08.1.11.48.08 1.25-.03 1.09-.03 1.1.2 1.1.13 0 .21-.04.18-.08Zm1.72-.94c-.06-1.19-.1-1.31-.44-1.47-.35-.16-.4-.14-.14.07.27.22.4 1.41.22 2.05-.1.36-.1.37.15.37h.26zm2.56.56c.11-.42-.02-.63-.61-.96-.64-.36-.78-.62-.55-.98l.16-.25-.25.16c-.51.34-.34.84.42 1.26.6.32.77.64.54 1-.16.23-.16.24.03.14.11-.06.23-.22.26-.37Zm1.48-1.84-.03-2.3h-.25c-.21 0-.23.03-.14.19.11.21.12 2.02.02 3.49l-.07.92h.5zm5.08 2.23c-.42-.07-.5-.29-.5-1.4 0-.9.02-1.03.17-1.03s.15-.01-.02-.13c-.14-.11-.17-.22-.12-.56.04-.3.02-.41-.06-.38-.17.05-.25.73-.26 2.02-.01 1.33.09 1.56.67 1.54.27-.01.3-.03.12-.06Zm1.48-.24c-.3-.4-.32-1.51-.04-1.94.12-.18.14-.26.05-.23-.6.2-.76 1.63-.25 2.17.38.4.53.4.24 0Zm1.74-.3c.32-.61.16-1.48-.33-1.83-.34-.23-.42-.2-.15.07.43.43.42 1.69-.02 2.22-.17.19-.16.19.08.04.14-.09.33-.31.42-.5Zm1.61-.41c-.03-1.19-.09-1.48-.32-1.48-.14 0-.16.16-.16 1.25v1.25h.5zm-37.04.43c-.14-.04-.9-1.71-.83-1.82.03-.05-.06-.09-.19-.09h-.25l.28.52c.15.29.4.83.56 1.2.27.64.29.67.4.45.08-.13.09-.23.03-.26Zm1.81-.03c0-.04-.06-.05-.13-.02-.14.05-.81-1.61-.72-1.77.04-.05-.06-.09-.21-.09-.22 0-.25.03-.16.12.07.07.12.22.12.34 0 .13.04.25.09.28s.23.42.41.87c.32.78.34.8.46.58.07-.13.13-.27.14-.31Zm32.77.44c.18-.11.43-.77.43-1.12 0-1.14-1.07-1.49-1.25-.4-.17.98.3 1.85.82 1.52Zm-15.57-.31c.1-.2.14-.61.06-.61-.36 0-.83.5-.69.73.09.15.53.07.63-.12Zm10.28.07c.14-.14.16-.68.03-.68-.22 0-.64.47-.58.63.07.2.38.22.55.05Zm-25.64-3.03c-.15-.23-.15-.27 0-.5.28-.42.86-.23.86.29 0 .49-.58.63-.86.21Zm31.41-2.29c-.26-.39 0-.76.53-.76.36 0 .39-.03.65-.55.36-.74.44-.45-1.1-4.03-.03-.07-.16-.15-.3-.18-.19-.05-.23-.12-.21-.32.03-.26.04-.26.93-.27h.9l.03.28c.02.19-.01.27-.12.27-.09 0-.16.03-.16.07 0 .14.85 2.23.9 2.23.08 0 .9-1.96.9-2.14 0-.08-.1-.16-.22-.18-.17-.02-.23-.1-.23-.28 0-.24.03-.25.71-.28.87-.03 1.11.13.76.51-.12.13-.53.9-.9 1.73-1.54 3.35-1.93 3.97-2.59 4.1-.26.05-.34.02-.48-.2ZM16.58 31.1c-1.72-.52-2.09-3.09-.6-4.14 1.31-.92 3.51.04 2.93 1.3-.26.58-.97.21-.88-.46.13-.98-1.28-.93-1.69.06-.72 1.71.76 3.5 1.86 2.26.5-.56.88-.58.69-.03-.28.8-1.4 1.29-2.31 1.01Zm4.12.03c-.71-.28-.95-.93-.92-2.51l.02-1.22h-.25c-.21 0-.25-.05-.25-.3 0-.27.03-.3.3-.3h.29l.03-.77.03-.78.53-.03.52-.03v1.48l.51.07c.47.06.5.08.47.34-.03.25-.07.27-.55.3l-.53.03-.02.87c-.04 1.37-.01 1.81.12 1.97.15.18.63.2.92.04.31-.17.45.04.24.35-.25.4-1.04.66-1.46.49Zm5.4-.09c-1.81-.78-1.72-3.84.13-4.39 1.63-.48 2.8.42 2.81 2.16 0 1.79-1.43 2.88-2.94 2.23Zm-20.76-.08c-.08-.21.03-.36.29-.36.52-.01.52 0 .55-2.84l.03-2.65-.28-.06c-.5-.12-.54-.15-.51-.37.04-.27 3.07-.4 4.23-.18 3.26.63 3.65 4.84.57 6.28-.71.34-4.76.48-4.88.18Zm7.26-.1c0-.19.07-.26.3-.31l.3-.07V27.4h-.3c-.26 0-.3-.03-.3-.29 0-.29.44-.41 1.46-.41h.24v3.9h.31c.26 0 .3.03.27.23-.03.21-.07.22-1.15.25l-1.13.03zm9.75.04c-.08-.27.01-.4.29-.4s.36-.45.36-2.07V27.4h-.3c-.27 0-.3-.03-.3-.3 0-.26.04-.3.28-.3.15 0 .51-.03.8-.06l.52-.07v3.82l.28.03c.21.02.28.09.3.31l.03.27h-1.1c-1.01 0-1.1-.02-1.16-.2Zm7.05-.04c0-.18.06-.25.22-.28.23-.03.23-.06.26-1.6l.03-1.58h-.31c-.28 0-.31-.03-.28-.28.04-.35 1.21-.58 1.44-.27.11.15.15.15.43.01.46-.24 1.42-.21 1.76.06.46.36.55.74.55 2.22v1.34l.31.07c.24.05.29.11.27.28-.03.21-.09.22-1.15.25l-1.13.03v-.26c0-.18.05-.25.19-.25.5 0 .51-.03.51-1.51 0-1.63-.1-1.86-.79-1.75-.64.1-.71.29-.71 1.87v1.39h.25c.2 0 .25.05.25.25v.25h-1.05c-1.05 0-1.05 0-1.05-.24Zm5.24.09c-1.05-.73.13-2.45 1.67-2.45.44 0 .48-.97.04-1.26-.41-.27-1.26-.01-.96.29.29.29 0 .87-.43.87-.5 0-.7-.57-.4-1.1.53-.88 2.45-.94 2.89-.09.11.21.15.65.15 1.69 0 .77.03 1.4.08 1.4.04 0 .21-.04.39-.09.28-.08.32-.07.35.12.02.14.1.22.23.22.19 0 .2-.08.23-1.15.04-1.59-.02-2-.33-2-.25 0-.45-.35-.28-.5.34-.31 1.79-.13 1.58.2-.11.17.08.11.31-.11.54-.51 1.66-.25 1.48.34-.15.51-.58.63-.92.27-.18-.2-.19-.2-.48.11-.28.3-.29.33-.32 1.55l-.04 1.24.32.06c.24.05.3.11.28.28-.05.34-2.18.38-2.18.05v-.22l-.23.21c-.33.32-1 .3-1.28-.02l-.21-.24-.35.24c-.42.28-1.26.33-1.59.09Zm10.05-.9c.01-.05-.04-.03-.09.05-.14.22-.21.09-.79-1.35-.57-1.45-.58-1.5-.33-1.64.13-.08-.01-.1-.53-.1-.48 0-.64.03-.49.09.12.04.31.3.44.57.41.87 1.3 3.07 1.3 3.22.01.17.49-.66.49-.84Zm-37.21.73-.28-.1v-2.93c0-2.25.03-2.95.13-2.98.06-.03-.24-.05-.68-.05-.47 0-.7.03-.55.07.31.08.38.57.38 2.61 0 2.56-.09 3.33-.38 3.41-.14.04.17.07.7.07.75 0 .89-.02.68-.1Zm9.56.01c-1.17-.34-1.55-2.57-.62-3.56.26-.28.14-.29-.29-.03-1.48.9-.74 3.69.97 3.68.22 0 .21-.01-.06-.09Zm4.67-.06c.05-.05-.06-.07-.25-.05-.72.08-.86-.23-.86-1.91 0-1.62 0-1.63.7-1.7l.45-.04-.53-.01-.54-.02.04-.75c.03-.75.03-.75-.23-.75h-.26l-.12 1.98c-.14 2.3-.08 2.76.42 3.18.31.26.95.3 1.18.07Zm14.18.01c.02-.02-.06-.04-.18-.04-.59 0-.88-.77-.51-1.38.19-.31.19-.32.01-.23-.8.44-.93 1.6-.18 1.74.22.03.78-.02.86-.09Zm1.98-.08c.1-.08.05-.11-.2-.11h-.32l-.02-1.45c-.03-1.75-.05-1.86-.43-2.05-.42-.22-.57-.19-.27.05.42.33.44 1.26.04 1.52-.08.05-.06.08.06.08.21 0 .21.16.03.92-.07.32-.09.58-.05.58.05 0 .09.06.09.14 0 .42.74.64 1.07.32Zm-27.65-.22c2.5-1.26 2.38-4.74-.2-5.54-.35-.11-.76-.2-.91-.19-.25.01-.24.01.05.08 1.38.34 2.08 1.26 2.07 2.76-.01 1.4-.63 2.52-1.67 3.02-.46.22-.47.24-.16.17.19-.03.56-.17.82-.3Zm3.8-1.54-.03-1.9h-.24c-.43 0-.57.1-.39.27.12.13.14.44.12 1.84l-.03 1.69h.6zm9.78 1.69c-.07-.13-.1-.79-.08-1.9.03-1.68.03-1.69-.19-1.69-.41 0-.55.1-.38.27.16.16.18.83.06 2.56l-.06.97h.38c.35 0 .37-.01.27-.21Zm2.26-.09c-.66-.79-.65-2.62.02-3.34l.27-.28-.3.15c-1.12.57-1.31 2.43-.35 3.39.45.45.73.51.36.08Zm1.95.09c1.17-.83.94-3.21-.36-3.69l-.3-.11.29.27c.77.73.79 3.06.03 3.59-.12.08-.16.15-.08.15.07 0 .26-.09.42-.21Zm2.71-1.3c-.02-.97.01-1.56.07-1.62.16-.16.13-.27-.04-.21-.11.05-.15-.01-.15-.2 0-.23-.04-.26-.34-.26-.4 0-.56.15-.25.23.19.05.2.12.17 1.81l-.03 1.76h.6zm2.61 1.39c-.04-.07-.1-.82-.13-1.65-.06-1.74-.16-1.96-.95-2.08l-.4-.06.35.18c.19.1.4.29.47.43.17.34.18 3.01.01 3.18-.09.09-.03.12.31.12.31 0 .4-.03.34-.12Zm6.39 0c-.15-.15-.17-2.07-.03-2.56.06-.2.06-.32 0-.32-.05 0-.09-.18-.09-.4 0-.43-.01-.43-.49-.34-.28.06-.3.08-.14.19.23.17.34 3.15.13 3.4-.11.13-.06.15.31.15.33 0 .4-.03.31-.12Zm-12.49-.07c.56-.21.89-1.4.67-2.44-.38-1.84-2.02-1.36-2.02.59 0 1.39.55 2.15 1.35 1.85Zm-17.77-.29c.94-.48 1.48-1.51 1.48-2.82.01-1.69-1.04-2.58-2.89-2.48l-.6.03v2.68c0 2.27.02 2.69.15 2.78.24.16 1.4.04 1.86-.19Zm26.78-.14c.16-.26.4-1.08.33-1.15-.28-.27-1.27.38-1.27.85 0 .54.65.74.94.3ZM18.7 27.9c0-.3-.43-.9-.63-.9-.07 0-.04.05.05.11.13.07.18.23.18.58 0 .26.03.5.06.54.13.13.34-.07.34-.33Zm16.45-.32v-.47l-.22.21c-.34.32-.3.83.07.76.11-.02.15-.16.15-.5Zm6.19-.17c.2-.32-.45-.56-.84-.31-.12.08-.09.1.11.1.15 0 .29.07.33.15.06.17.32.2.4.06Zm-27.88-1.63c-.22-.31-.2-.64.04-.88.55-.55 1.3.23.84.88-.1.14-.26.22-.44.22s-.34-.08-.44-.22Zm9.74.02c-.27-.27-.25-.56.05-.85.41-.42.95-.2.95.39s-.59.87-1 .46Zm-9.05-.45c0-.25-.04-.3-.25-.3-.26 0-.37.22-.26.51s.51.13.51-.21Zm9.7 0c0-.34-.3-.43-.48-.14-.15.24-.01.51.25.47.18-.02.23-.09.23-.33ZM8.44 22.46c-3.87-.89-5.23-6.18-2.32-9.06 2.48-2.46 6.99-1.91 8.42 1.03 2.13 4.34-1.48 9.08-6.1 8.03Zm20.51.05c-2.59-.64-3.41-4.49-1.35-6.34 1.86-1.67 5.07-.68 5.59 1.74.61 2.81-1.63 5.23-4.24 4.6Zm12.55-.02c-2.84-.56-3.31-5.45-.64-6.75.84-.41 1.87-.4 2.72.02l.62.31v-1.71c-.01-2.41-.08-2.66-.82-2.66-.38 0-.65-.39-.42-.59.1-.09 2.76-.43 2.82-.36.03.02.05 2.44.06 5.37l.01 5.32.43.09c.38.07.42.11.42.37 0 .38 0 .38-1.23.46l-1.07.07v-.27c0-.32.01-.32-.59-.01-.39.19-1.58.48-1.81.44-.03-.01-.25-.05-.5-.1Zm-25.91-.1c-.16-.09-.15-.62.01-.67.26-.08 1.34-1.25 1.84-2l.48-.73-.8-1.27c-.67-1.07-.85-1.28-1.11-1.35-.29-.07-.32-.11-.29-.4l.03-.32h2.8v.3c0 .25-.04.3-.27.33-.36.04-.36.04.16.85l.43.68.46-.71c.55-.82.54-.78.2-.82-.23-.02-.29-.08-.31-.35l-.03-.33h2.51v.34c0 .35-.15.46-.67.46-.17 0-.42.23-.89.83-.98 1.22-.98 1.03-.06 2.58.99 1.66 1.09 1.79 1.52 1.88.3.06.35.11.38.39l.03.32h-1.64c-1.64 0-1.77-.03-1.77-.35 0-.13.36-.35.56-.35.15 0 .24-.06.24-.16 0-.15-.97-1.84-1.05-1.84-.02 0-.36.44-.75.98-.68.91-.71.97-.49 1 .63.07.7.12.67.4l-.03.27-1.04.05c-.56.03-1.07.02-1.12-.01Zm6.68-.06c-.28-.28.09-.63.67-.63.45 0 .48-.17.44-2.95l-.03-2.1-.55-.05c-.53-.05-.55-.06-.58-.37s-.02-.32.45-.38c.75-.1.73-.08.73-.79 0-2.19.52-3.51 1.58-4.03 1.33-.65 3.12-.02 3.12 1.11 0 .91-1.36.82-1.55-.11-.13-.6-.36-.74-.89-.53-.52.19-.69.82-.74 2.66l-.04 1.61.71.07c.76.08.86.14.77.51-.06.22-.12.24-.74.27l-.67.03v5l.52.08c.51.08.68.23.57.52-.06.16-3.62.24-3.77.08Zm11.33-.23c0-.27.03-.3.31-.3.71 0 .69.07.69-2.64 0-2.69.02-2.62-.65-2.68-.37-.03-.4-.05-.4-.33 0-.34.71-.49 1.95-.43l.55.03.03.48.03.48.4-.41c1.17-1.2 2.92-.94 2.48.37-.19.58-.77.71-1.27.28-.38-.32-.63-.32-1 0-.49.41-.53.63-.5 2.75l.03 1.95.5.1c.43.1.5.14.5.36v.24l-1.82.03-1.83.02zm9.15.11.4-.09-.56-.01c-2.44-.05-3.05-5.07-.75-6.18l.51-.24-.5.06c-1.45.19-2.35 1.28-2.43 2.96-.12 2.41 1.31 3.91 3.33 3.5Zm-34.56-.29c-2.77-1.76-2.47-8.35.44-9.52.68-.27.13-.19-.63.09-4.21 1.59-4.21 7.99-.01 9.53.66.24.71.22.2-.1Zm3.86-.12c4.16-2.05 3.57-8.67-.85-9.54-.32-.07-.3-.05.15.17 2.8 1.37 2.74 7.81-.09 9.49-.7.41-.1.32.79-.12Zm4.78.29c.56-.01.64-.03.37-.08-.44-.09-.6-.18-.6-.35 0-.09 1.4-2.08 1.66-2.35.08-.09.36.26.88 1.12.72 1.2.73 1.49.01 1.6-.17.02.35.05 1.15.06l1.44.01-.44-.22c-.4-.21-.54-.4-1.55-2.08a266 266 0 0 0-1.58-2.61c-.56-.91-.57-1.03-.14-1.17.26-.08.11-.1-.85-.11-1.1-.01-1.5.09-.94.23.25.06 1.96 2.6 1.96 2.9s-1.74 2.48-2.23 2.81c-.27.17-.27.41 0 .31.08-.03.47-.07.86-.07Zm11.81-.34c-1.39-1.45-1.13-5.24.41-5.91.23-.1.25-.13.1-.14-.37 0-1.2.46-1.59.9-1.45 1.61-.97 4.54.89 5.41.61.29.65.23.19-.26Zm2.86.07c1.57-.97 2-3.48.86-5.03-.37-.51-1.38-1.09-1.85-1.09l-.26.01.3.13c1.76.79 1.86 4.96.15 6.15l-.35.24.35-.07c.19-.03.55-.19.8-.34Zm-20.53-.08c1.29-.62 1.99-2.09 2.1-4.44.15-3.52-1.4-5.4-3.9-4.75-1.66.43-2.47 1.82-2.55 4.37-.12 3.9 1.79 6.02 4.35 4.82Zm14.36.27c-.76-.13-.73-.02-.73-2.92V16.5l.26-.1c.14-.06.48-.1.76-.1.72 0 .5-.14-.3-.2l-.67-.05V14.4c0-1.82.1-2.38.54-2.9.5-.6 1.61-.37 1.61.34 0 .67.92.95.98.3.07-.72-1.07-1.28-2.14-1.04-1.4.31-1.78 1.09-2 4.13l-.06.87h-.41c-.23 0-.49.05-.57.1-.11.07-.02.1.32.1.82 0 .81-.04.77 2.86-.05 2.83-.02 2.74-.77 2.85-.27.04.23.06 1.18.06.92 0 1.47-.03 1.23-.06ZM36.57 22c-.21-.04-.43-.12-.5-.19-.19-.19-.22-4.03-.04-4.41.11-.22.12-.27.02-.24-.1.04-.15-.13-.2-.61-.07-.65-.08-.66-.34-.61-.14.03-.6.08-1.01.12l-.75.07.5.11c.64.14.63.1.63 2.91 0 2.75-.01 2.78-.53 2.86-.22.03.27.06 1.1.06.91.01 1.35-.02 1.12-.07Zm7.33-.25c.29-.19.56-.35.61-.35s.09.16.09.35c0 .39.18.43 1.37.29.55-.07.64-.24.13-.24-.63 0-.62.07-.58-5.64l.03-5.16-.3.05c-.16.03-.68.1-1.15.16-.85.11-1.14.19-.69.19.93.01 1.02.24 1.07 2.81.05 2.45.03 2.51-.58 2.07l-.45-.31.31.3c.6.57.68.84.72 2.38.06 2.05-.16 2.73-1.03 3.26-.16.11-.25.19-.19.19.07 0 .35-.16.64-.35Zm-13.52.11c1.81-.94 1.66-5.37-.2-5.87-1.46-.39-2.45 1.37-2.09 3.7.29 1.84 1.22 2.72 2.29 2.17Zm12.64-.06c.89-.25 1.23-1.04 1.23-2.9 0-2-.41-2.69-1.64-2.78-2.23-.15-2.66 5.04-.47 5.67.42.12.46.12.88.01ZM19.7 17.32c.67-.9 1.01-1.22 1.29-1.22.15 0 .33-.05.41-.1.1-.07-.21-.09-.95-.09-.87.01-1.03.03-.77.1.37.11.5.33.35.58-.06.09-.27.42-.47.73-.2.32-.35.58-.33.58.03 0 .24-.26.47-.58Zm18.9-.52c.63-.63-.21-1.26-1.13-.86-.37.17-1.04.72-.72.6.44-.16 1.05-.17 1.05-.01 0 .38.52.55.8.27Z"/></svg>