<svg xmlns="http://www.w3.org/2000/svg" width="51" height="51" viewBox="0 0 51 51"><path fill="#fff" fill-rule="evenodd" stroke="#fff" stroke-width=".453" d="M24.4 41.23c-.66-.24-1.61-1.22-1.88-1.95-.28-.76-.36-11.03-.08-11.56.47-.91.93-1.07 3.16-1.07 2.22 0 2.69.16 3.16 1.06.26.51.21 10.81-.07 11.53-.61 1.66-2.64 2.59-4.29 1.99Zm2.47-.34c.61-.29 1.22-.91 1.53-1.54l.25-.5.03-5.33c.04-6.98.23-6.55-2.93-6.6-2.19-.04-2.44.02-2.91.64l-.29.37-.03 5.2c-.03 5.7-.02 5.76.57 6.68.79 1.25 2.45 1.72 3.78 1.08Zm-7.55-6.01c-.96-.16-1.85-.88-2.39-1.9l-.28-.53v-13.8l.34-.63c.33-.6.85-1.13 1.41-1.42.32-.17 1.31-.41 1.42-.34.09.06.09 18.19 0 18.49-.06.18-.12.2-.5.13Zm11.98-9.27c0-7.37.03-9.31.13-9.32 1.07-.09 2.31.73 2.86 1.9l.26.56v13.6l-.26.56c-.51 1.08-1.47 1.84-2.49 1.96l-.5.06zm-11.7-.01c0-5.76-.04-9.1-.1-9.1-.72 0-1.94.91-2.35 1.75l-.26.53-.02 6.73c-.02 6.69-.02 6.74.19 7.2.41.88 1.25 1.64 2.03 1.85.25.07.47.13.49.13.01.01.02-4.08.02-9.09Zm13.2 8.67c.46-.34.95-.88 1.18-1.32l.27-.5.03-6.7c.02-6.05.01-6.74-.14-7.23-.3-.94-1.23-1.77-2.21-1.95l-.33-.07v18.19l.52-.16c.29-.08.6-.2.68-.26ZM11.26 30.1c-.37-.12-.75-.47-.92-.87-.2-.47-.2-6.59 0-7.06.23-.56 1.19-1.17 1.44-.92.22.22.11 8.96-.12 8.94-.06 0-.24-.05-.4-.09Zm28.11.03c-.04-.03-.07-2.06-.07-4.51v-4.45l.36.06c.47.08.97.46 1.2.94.17.34.19.67.22 3.14.04 2.96-.03 3.7-.39 4.21-.29.41-1.14.8-1.32.61ZM11.6 25.7c0-2.98-.03-4.2-.11-4.2-.22 0-.67.34-.85.64-.3.49-.35 6.34-.06 6.99.17.38.63.76.95.77.04 0 .07-1.89.07-4.2Zm28.74 3.82c.43-.38.46-.66.46-3.84 0-2.8-.01-3.05-.2-3.43-.18-.37-.63-.75-.89-.75-.08 0-.11 1.22-.11 4.2v4.2l.27-.11c.16-.06.36-.18.47-.27Zm-26.09-1.86c-1.59-.69-1.28-3.87.38-4.07l.29-.04V25c0 3.15.04 2.97-.67 2.66ZM36.2 25.7v-2.13l.37.06c.89.15 1.27.7 1.31 1.92.05 1.35-.34 2.02-1.3 2.2l-.38.07zm-21.5-.05V23.8l-.27.11c-1.12.42-1.32 2.77-.29 3.4.56.34.56.35.56-1.66Zm22.27 1.65c.95-.58.98-2.76.03-3.25-.5-.26-.5-.27-.5 1.65 0 .99.03 1.8.08 1.8.04 0 .21-.09.39-.2Zm-13.5-2.94c-.49-.18-.74-.41-.99-.9-.19-.37-.2-.58-.19-5.66.01-2.91.06-5.42.11-5.59.92-3.23 5.45-3.27 6.35-.06.11.39.15 1.61.17 5.7l.03 5.2-.27.47c-.51.85-.74.93-2.93.95-1.43.02-1.99-.01-2.28-.11Zm4.68-.56c.56-.55.57-.58.53-6.2-.04-5.96-.01-5.75-.97-6.71-1.51-1.5-3.92-1.06-4.88.89l-.28.57-.03 5.15c-.03 5.71-.04 5.66.4 6.16.46.52.53.54 2.8.51l2.07-.02z"/></svg>