<svg xmlns="http://www.w3.org/2000/svg" width="51" height="51" viewBox="0 0 51 51"><path fill="#fff" fill-rule="evenodd" stroke="#fff" stroke-width=".5" d="M18.72 37.41c-.98-.12-1.07-.26-1.07-1.59 0-.59.01-5.6.03-11.15l.02-10.07.34-.37.34-.38 2.24-.08c5.67-.21 8.46.08 10.41 1.1 4.21 2.21 3.96 9.08-.41 11.2l-.83.41.35.21c1.17.73 1.97 2.07 3.75 6.29 1.91 4.53 1.93 4.48-1.24 4.46-2.7-.02-2.27.36-3.75-3.3-.69-1.7-1.4-3.4-1.58-3.76-.89-1.8-1.96-2.47-3.94-2.48h-.78v4.39c0 4.61-.02 4.85-.44 5.01-.35.13-2.68.2-3.44.11Zm3.39-.35c.23-.1.34-3.25.25-6.66-.03-1.35-.02-2.51.03-2.58.22-.35 2.29-.2 3.18.23 1.21.6 1.86 1.7 3.63 6.16.55 1.41 1.07 2.64 1.14 2.75.28.38 4.49.33 4.61-.06.11-.35-.26-1.4-1.5-4.32-1.74-4.07-2.29-4.96-3.56-5.74-.32-.2-.59-.4-.59-.43 0-.04.36-.22.8-.4 2.43-.99 3.64-2.92 3.64-5.81 0-2.71-1.22-4.56-3.63-5.47-1.58-.6-2.1-.66-6.6-.7-4.49-.05-4.89-.03-5.26.3l-.25.22-.05 11.1c-.02 6.11 0 11.16.04 11.24.05.07.24.17.42.22.39.09 3.46.06 3.7-.05Zm.33-12.76c-.13-.13-.09-6.69.04-6.82.21-.21 3.9-.04 4.55.21 1.44.57 2.02 1.43 2.02 3.05 0 1.94-1.06 3.14-3.05 3.45-.97.15-3.44.23-3.56.11Zm3.22-.31c2.15-.3 3.18-1.37 3.17-3.34 0-2.26-2.08-3.38-5.56-3.01l-.67.08v6.38h1.14c.63 0 1.49-.05 1.92-.11Z"/></svg>