<svg xmlns="http://www.w3.org/2000/svg" width="51" height="51" viewBox="0 0 51 51"><path fill="#fff" fill-rule="evenodd" stroke="#fff" stroke-width=".7" d="M23.41 49.1c-4.31-.42-9.14-2.33-12.42-4.91l-.36-.28-1.3 1.33c-1.54 1.57-1.92 1.8-2.98 1.8-2.1 0-3.49-2.01-2.75-3.99.2-.5.43-.79 1.6-2l1.38-1.4-.5-.7C1.9 33.04.81 24.34 3.37 17.41 9.38 1.1 30.31-3.36 42.52 9.06c9.44 9.6 8.85 25.23-1.28 34.17-4.93 4.35-11.42 6.49-17.83 5.87Zm4.39-.41c7.84-.71 15.56-6 18.9-12.94 4.81-9.99 1.86-22.28-6.9-28.81C31.73.92 20.79.56 12.63 6.03 3.04 12.45-.45 24.61 4.25 35.2c.73 1.65 2.34 4.36 2.54 4.28.05-.02 1.06-.98 2.26-2.15l2.17-2.12-.36-.83c-.76-1.77-.97-2.76-.97-4.55.01-5.88 4.43-10.47 10.34-10.7l1.37-.06v-2.21c0-2.39.06-2.67.6-2.96.15-.08 2.38-.11 7.83-.1 8.4 0 7.91-.03 8.24.61.21.39.18 15.15-.02 15.93-.84 3.22-4.5 5.02-7.17 3.53-.21-.11-.4-.19-.42-.16-.02.02-.22.4-.44.84-2.65 5.26-8.63 7.43-14.07 5.1-.66-.29-.88-.34-1.03-.26-.21.11-4.22 4.2-4.22 4.3 0 .17 2.75 1.87 4.16 2.57 4.04 2.02 8.31 2.84 12.74 2.43Zm-20.36-2.1c.3-.14 1.05-.82 2.32-2.12 1.04-1.06 2.68-2.72 3.65-3.7l1.76-1.78.39.17c4.78 2.11 9.22 1.4 12.55-1.99.71-.73 1.87-2.42 2.19-3.21.26-.64.27-.65.83-.32 2.48 1.46 5.93-.14 6.86-3.18.21-.67.21-.84.21-8.28v-7.6l-.29-.29-.29-.29H22.33l-.24.26c-.24.25-.24.27-.27 2.63l-.03 2.38-1.37.06c-2.99.12-5.07.97-7.13 2.94-3.13 3-4.09 7.82-2.33 11.77.6 1.34.92.86-3.13 4.77-3.84 3.72-4.1 4.02-4.2 5.02-.21 2.06 1.96 3.63 3.81 2.76Zm12.29-8.79c-7.56-.81-9.74-10.97-3.2-14.89 1.49-.88 4.3-1.38 5.42-.94.16.05.24 6.13.09 6.13-.04 0-.28-.2-.53-.44-2.31-2.15-6.45-.34-6.46 2.84-.01 3.84 5.13 5.07 8.2 1.96 1.63-1.64 1.85-2.4 1.85-6.24 0-1.6.04-2.83.09-2.87.24-.14 1.72 1.44 2.37 2.55 1.23 2.09 1.38 4.91.38 7.17a8.025 8.025 0 0 1-8.21 4.73Zm3.32-.54c2.13-.73 3.97-2.47 4.82-4.56 1.17-2.91.43-6.19-1.91-8.5l-.66-.64v2.81c0 2.56-.02 2.87-.21 3.49-1.01 3.31-4.54 5.35-7.52 4.35-2.87-.96-3.69-4.33-1.57-6.42 1.53-1.51 4.09-1.7 5.51-.41l.39.35-.02-2.79-.03-2.79-.6-.07c-3.5-.42-7.16 2.12-8.16 5.67-1.17 4.11 1.4 8.51 5.62 9.65 1.14.31 3.24.24 4.34-.14Zm12.46-8.7c-.99-1.02-2.56-1.29-3.96-.67l-.45.2-.1-.42c-.83-3.29-2.87-5.9-5.7-7.27-.47-.22-.92-.44-1-.49-.12-.06-.16-.35-.18-1.35l-.03-1.26 5.93.02 5.93.03.03 5.77c.01 3.18-.01 5.78-.06 5.78-.04 0-.23-.15-.41-.34ZM35.8 23v-5.5H24.3v1.1c0 .96.02 1.11.18 1.16 2.89.97 5.57 3.94 6.52 7.23l.23.78.51-.2c1.19-.48 2.98-.16 3.76.68.13.14.25.25.27.25s.03-2.47.03-5.5Z"/></svg>