<svg xmlns="http://www.w3.org/2000/svg" width="51" height="51" viewBox="0 0 51 51"><path fill="#fff" fill-rule="evenodd" stroke="#fff" stroke-width=".471" d="M28 40.63c-.13-.44-.13-.47.11-.64.91-.68.91-.69.6-1.43-.5-1.15-1.13-3.08-1.04-3.17.06-.06.36-.09.69-.07l.58.03.31 1.02c.39 1.31.38 1.31.65.21.32-1.31.3-1.28 1-1.28.75 0 .75-.08.05 1.99-.83 2.45-1.29 3.27-2.06 3.67-.53.27-.75.19-.89-.33Zm12.67.3c-.13-.12-.08-5.48.05-5.61.23-.23 1.08-.12 1.08.14 0 .1.08.09.32-.06 1.45-.88 2.96.89 2.39 2.81-.32 1.05-1.63 1.67-2.41 1.12-.22-.16-.23-.16-.16.02.03.1.04.51 0 .92l-.07.73h-.57c-.31 0-.6-.03-.63-.07Zm-11.56-.5c.58-.53.81-.98 1.49-2.95.71-2.09.69-1.88.22-1.88h-.39l-.34 1.32c-.35 1.33-.51 1.61-.63 1.11-.04-.15-.21-.76-.39-1.35l-.31-1.08h-.86l.42 1.17c.22.65.51 1.42.64 1.72.35.79.24 1.11-.55 1.62-.19.12-.23.2-.17.42.09.38.38.35.87-.1Zm12.59-.68c0-1.01.03-1.06.42-.76 1.34 1.06 2.85-.99 2.03-2.74-.38-.78-1.42-1.04-2.06-.51-.38.32-.47.32-.55.01-.05-.19-.13-.25-.35-.25h-.29v5.2h.8zm-26.97-.26c-.57-.14-.68-.29-.53-.76.17-.53.22-.56.68-.38.52.21.86.17.9-.11.02-.16-.05-.25-.28-.34-1.35-.56-1.67-1.71-.67-2.44.38-.28 1.59-.3 2-.03l.27.18-.21.4c-.17.34-.24.4-.42.35-1.03-.3-1.32.01-.44.45.59.3 1.06.77 1.13 1.14.19 1.04-1.09 1.85-2.43 1.54Zm-3.96-.16c-.4-.26-.71-.95-.63-1.39.14-.72.64-1.08 1.83-1.31.34-.06.41-.11.33-.23-.11-.17-.89-.17-1.21.01-.28.14-.48-.05-.56-.53l-.05-.37.53-.15c1.97-.59 2.62.01 2.67 2.47l.04 1.59-.74-.01c-.4-.01-1 .01-1.33.04-.47.04-.66.01-.88-.12Zm7.98.05c-2.15-.79-1.65-4.17.63-4.18 1.13 0 2.06 1.22 1.78 2.33l-.06.27h-1.15c-.64 0-1.15.04-1.15.09 0 .38 1.12.67 1.6.41.22-.12.47.17.52.6.05.46-1.37.78-2.17.48Zm-12.18-.05c-.09-.08-.09-1.59 0-3.81l.06-1.72h3.15l.04.45c.05.65.05.65-.93.65H8v.99l.83.03.82.03v1l-.8.05c-.9.06-1.05.2-.91.93l.07.36.97.03.97.03.03.29c.02.15.01.39-.02.52l-.06.24H8.26c-.89 0-1.66-.03-1.69-.07Zm14.96-.09c-.05-.14.21-4.08.33-5.01l.06-.43h1.57l.12.43c.27 1.03.76 2.67.8 2.71.02.03.24-.59.48-1.37.59-1.92.48-1.77 1.36-1.77h.74l.05.53c.03.28.08 1.11.11 1.82.03.72.08 1.74.11 2.28l.07.98-.64-.03-.64-.03-.09-1.55-.09-1.54-.44 1.44c-.54 1.73-.53 1.72-1.11 1.68l-.45-.03-.39-1.35c-.22-.74-.43-1.44-.47-1.55-.05-.12-.11.41-.15 1.3-.04.82-.1 1.53-.12 1.57-.1.16-1.14.09-1.21-.08ZM32.8 37.2v-2.19l-.68-.03-.67-.03v-1.1l2.03-.03 2.03-.02-.03.57-.03.58-.68.03-.67.03v4.39h-1.3zm3.07 2.13c-.04-.03-.07-.96-.07-2.05V35.3h.55c.4 0 .56.04.63.16.08.15.12.14.39-.05.57-.43.88-.27.88.44v.6l-.38.06c-.65.1-.72.24-.76 1.64l-.03 1.25h-.57c-.32 0-.61-.03-.64-.07Zm2.77-.06c-.02-.07-.03-.98-.02-2.02l.03-1.9h1.2l.07 1.55c.04.85.05 1.76.02 2.03l-.06.47h-.59c-.39 0-.61-.04-.65-.13Zm-26.49-.17c.43-.22.65-.25.65-.1 0 .06.16.1.36.1h.37l-.05-1.27c-.08-1.94-.32-2.33-1.43-2.33q-1.44 0-1.23.45c.09.2.14.22.35.14.72-.27 1.43-.01 1.43.53 0 .26-.02.28-.43.28-1.24 0-2.04.81-1.66 1.71.26.64.95.84 1.64.49Zm3.98.06c.43-.18.67-.46.74-.89.07-.48-.12-.74-.9-1.17-1.04-.6-.9-1.22.24-1.07.51.07.78-.26.34-.43-.61-.23-1.34-.13-1.71.24-.59.59-.39 1.23.55 1.71.57.29.74.47.69.77-.05.38-.5.53-1.06.35-.26-.09-.47-.15-.48-.14-.02.01-.05.14-.09.28-.11.44.95.66 1.68.35Zm4.34-.07c.15-.06.2-.14.16-.28-.05-.19-.11-.2-.62-.15-.68.08-1.13-.11-1.36-.56-.3-.58-.27-.6 1.05-.6h1.2v-.4c0-1.99-2.68-2.22-3.21-.27-.43 1.61 1.12 2.87 2.78 2.26Zm6.42.02c.11-.07.12-.44.02-2.28-.06-1.21-.11-2.34-.11-2.52V34h-.55c-.65 0-.53-.2-1.24 2.09-.26.85-.52 1.56-.58 1.58-.05.02-.33-.8-.63-1.82l-.53-1.86-.56.03-.56.03-.12 1.25c-.06.69-.14 1.82-.18 2.53l-.08 1.27h.71l.06-.62c.03-.35.09-1.26.13-2.03.05-.87.12-1.38.18-1.35.06.02.35.93.65 2.02l.54 1.98h.65l.4-1.27c.22-.71.48-1.57.57-1.93.36-1.35.51-.96.53 1.4.02 1.85.14 2.16.7 1.81Zm10.01-1.07c0-1.33.26-1.84.95-1.84.11 0 .15-.1.15-.35 0-.45-.26-.47-.73-.05-.43.37-.43.37-.51-.01-.08-.4-.72-.41-.7-.02 0 .13.01.94.02 1.81l.02 1.58.4-.04.4-.04zm-27.2.81c0-.28-.04-.29-1.3-.3h-.65l-.03-.87-.03-.88H9.4v-.59l-.82-.03-.83-.03-.03-.72-.03-.73H9.6v-.57l-1.3-.07c-.71-.04-1.34-.04-1.4-.01-.06.04-.1.98-.1 2.56v2.49h2.9zm24.18-1.97.02-2.18h1.4V34h-3.6v.7H33v4.41l.43-.03.42-.03zm5.82.47V35.6h-.8v3.5h.8zm-28.18 1.33c-.48-.24-.41-.97.12-1.22.8-.38 1.17-.14.96.62-.15.59-.6.83-1.08.6Zm30.65-.09c-.46-.27-.62-1.48-.27-2.06.62-1.03 1.6-.49 1.6.89 0 1.04-.62 1.58-1.33 1.17Zm-29.98-.22c.06-.08.14-.28.17-.45.06-.3.05-.32-.25-.32s-.76.33-.68.48c.02.04.07.15.1.25.08.2.5.23.66.04Zm30.65.02c.68-.31.53-2.09-.17-2.09-.74 0-1.01 1.51-.36 2.03.25.2.22.2.53.06Zm-24.31-1.65c.16-.96 1.27-1.09 1.57-.19.16.5.08.55-.82.55h-.81zm1.37-.02c0-.42-.59-.65-.92-.35s-.23.43.37.43c.3 0 .55-.03.55-.08Zm18.86-1.94c-.34-.48-.04-1.08.52-1.08.55 0 .85.77.44 1.13-.27.25-.78.22-.96-.05Zm.74-.16c.44-.35-.03-.88-.49-.55-.25.17-.26.31-.04.55.2.22.25.22.53 0Zm-5.1-4.09c-4.51-.25-6.3-.37-8.1-.54-2.17-.21-9.17-1.13-11.3-1.49-3.72-.63-9.24-.88-13.17-.6-.91.06-1.68.09-1.71.06-.24-.25.72-.34 4.63-.42 4.18-.09 6.28.06 10.4.71 14.62 2.32 25.69 2.68 34.15 1.09 1.73-.32 1.62-.31 1.67-.17.11.3-5.14 1.09-8.92 1.33-1.43.09-6.23.11-7.65.03ZM6.98 24.25c-.18-.18 1.14-2.08 1.95-2.81 2.25-2.04 4.25-2.55 10.97-2.79 3.81-.14 6.49-.39 6.57-.62.02-.04.41-.66.86-1.38l.83-1.3 1.09-.37c.61-.2 2.01-.65 3.12-.99 1.11-.35 2.01-.64 2-.66-.04-.03-5.85.96-6.56 1.13-.64.14-.65.14-.87-.08-.12-.13-.75-.82-1.4-1.54-2.75-3.02-2.71-2.94-1.52-2.94 1.53 0 17.27 1.36 17.42 1.51.19.17-.2.61-2.38 2.68-1.22 1.15-3.2 3.04-4.41 4.2s-2.25 2.11-2.32 2.11c-.1 0-.62-.54-2.24-2.33l-.36-.4-.94.46c-2.3 1.14-4.73 1.61-9.74 1.92-5.5.33-7.2.6-8.89 1.39-1.31.61-1.89 1.14-2.98 2.69-.07.1-.16.15-.2.12ZM11 20.8c1.46-.49 2.98-.69 7.75-1 5.42-.36 7.51-.76 9.88-1.91 1.06-.51 1.05-.5.73-.99-.31-.47-.95-1.2-1.05-1.2-.04 0-.43.58-.86 1.29-.44.71-.87 1.33-.95 1.36-.58.24-2.86.42-8.4.65-4.35.18-6.32.67-8.25 2.05q-1.275.9-.12.3c.34-.19.91-.43 1.27-.55Zm24.45-3.64c1.32-1.27 3.16-3.03 4.08-3.91 1.87-1.77 1.85-1.69.52-1.79-.49-.04-2.65-.22-4.8-.41-2.14-.19-4.19-.37-4.55-.4-7.3-.57-7.22-.57-7.13-.4.27.45 3.69 4.05 3.82 4.01.39-.1.94-.2 4.75-.86 4.56-.79 4.26-.75 4.26-.57 0 .14-2.39.96-6.05 2.08-.94.28-1.72.53-1.74.55-.02.01.18.28.43.6.26.31.59.78.73 1.03.34.58.54.83 1.65 2.04l.9.97.36-.31c.21-.17 1.45-1.36 2.77-2.63Z"/></svg>