<svg xmlns="http://www.w3.org/2000/svg" width="51" height="51" viewBox="0 0 51 51"><path fill="#fff" fill-rule="evenodd" stroke="#fff" stroke-width=".494" d="M.02 25.58 0 0l1.12.02 1.13.02L1.2.07.15.11v23.37C.15 36.33.12 47.82.09 49S.03 39.64.02 25.58ZM4.2 26V1.2h42.9v49.6H4.2zm13.64 24.08c.25-2.12 0-2.45-1.75-2.34L15 47.8v-1.39l-1.06-.7-1.06-.71H4.4v5.6h13.37zm1.31.32c.22-.7-.04-2.6-.35-2.6-.05 0-.15-.03-.24-.06-.14-.05-.16.11-.16 1.4v1.46h.34c.26 0 .36-.05.41-.2Zm4.08-.01c-.19-.19-.24-.2-.58-.08-.36.13-.38.13-.67-.19l-.29-.34-1.14.28c-1.78.44-1.62.54.83.54h2.06zm8.18.09q0-.15.06 0c.02.06.13.12.24.12.1 0 .19-.06.2-.12 0-.09.02-.09.06.01.05.11.07.11.14 0 .06-.1.09-.11.09-.01 0 .2.66.15.76-.05.04-.1.06-.22.05-.28-.01-.05-.03-.62-.03-1.26l-.01-1.16-1.03.51-1.04.51v.93c0 .92 0 .92.25.92.14 0 .25-.06.26-.12Zm3.19-1.79c0-1.69-.02-1.9-.15-1.79-.12.1-.15.45-.15 1.91 0 1.52.02 1.79.15 1.79s.15-.28.15-1.91Zm.78-.21c.01-1.15 0-2.08-.04-2.08-.03 0-.19.08-.35.17l-.29.17v3.87l.32-.03.33-.03zm1.42 1.35c.01-.43.02-1.25.05-1.83.02-.73.01-.93-.05-.65-.05.26-.06-.01-.03-.74l.05-1.14-.41.24c-.59.33-.56.21-.53 2.67l.03 2.22h.89zm.9-2.14v-2.91l-.41.33-.42.33.07 1.05c.03.57.06 1.73.06 2.58v1.53h.7zm1.1-.4c0-2.17-.03-3.28-.1-3.24-.06.04-.1 1.25-.1 3.31 0 2.09.04 3.24.1 3.24s.1-1.17.1-3.31Zm2.29-.96c-.01-2.46-.05-4.07-.09-3.78-.12.77-.12 8.05 0 8.05.07 0 .1-1.48.09-4.27Zm.31-.15c0-2.9-.04-4.38-.1-4.28-.13.21-.13 8.7 0 8.7.07 0 .1-1.54.1-4.42Zm.48-.3c0-2.6-.03-4.62-.08-4.48-.11.35-.12 9.2-.01 9.2.06 0 .09-1.9.09-4.72Zm5.02-.68v-5.4h-3.77l-.44.52-.44.53-.04 4.87-.03 4.88h4.72zm-18.86 4.4c4.85-1.64 10.93-5.49 13.93-8.82 2.47-2.75 3.77-6.14 4.38-11.48.08-.74.22-1.94.3-2.67.1-.89.15-2.29.15-4.3 0-2.94-.05-3.77-.34-6.63-.08-.8-.18-1.79-.21-2.2-.04-.41-.2-1.83-.36-3.15-.15-1.32-.35-3.25-.44-4.3-.23-2.86-.36-4.11-.45-4.25-.12-.2-.53.14-2.59 2.14-5.54 5.36-9.07 5.33-14.93-.14-.68-.63-1.31-1.21-1.41-1.29-.15-.12-.29-.02-1.33.95-4.28 4.02-7.57 5.25-10.75 4.03-1.28-.5-2.11-1.13-5.33-4.07-1.64-1.5-1.59-1.49-1.75-.5-.06.4-.38 2.44-.72 4.53C4.4 18.61 4.24 24.4 5.51 31.59c1.32 7.4 5.2 11.93 14.02 16.31 4.77 2.38 5.85 2.59 8.51 1.7Zm-7.92.29c.38-.1.38-.1.38-.64v-.54l-.6-.29-.6-.3v.63c0 1.25.07 1.35.82 1.14Zm4.68-1.05c-5.73-1.7-13.08-6.62-15.63-10.46-2.86-4.29-3.84-12.72-2.76-23.75.32-3.39 1.29-9.96 1.49-10.17.05-.05.65.43 1.37 1.09 5.44 4.98 9.49 4.82 15.58-.6l1.08-.96.26.23c.14.12.55.5.91.84 3.66 3.46 7.38 4.72 10.67 3.6 1.66-.56 2.72-1.31 5.1-3.58.56-.54 1.06-.98 1.11-.98.12 0 .17.37.37 2.55.09.93.22 2.29.31 3 1.72 14.89 1.06 23.62-2.19 28.57-2.5 3.82-8.97 8.31-15.03 10.41-1.41.49-1.64.51-2.64.21Zm.9-.73v-.69l-.97-.33c-5.24-1.73-11.39-5.82-13.99-9.33C8.71 35.05 7.6 29.64 7.6 22.5c0-3.09.56-9.62 1.1-12.95.06-.33.13-.75.16-.92.06-.4.16-.41.85-.04 5.43 2.94 11.51 2.56 15.52-.99l.47-.42v-2.7l-.64.6c-5.93 5.55-10.65 5.7-16.08.54-.49-.47-.9-.83-.92-.81-.06.07-.74 4.31-1 6.29-1.67 12.51-.8 22.57 2.34 27.2 2.52 3.72 9.02 8.13 14.9 10.11 1.49.5 1.4.52 1.4-.3Zm1.46.35c5.81-1.96 12.38-6.4 14.92-10.09 3.26-4.73 4.08-13.85 2.47-27.47-.19-1.63-.65-6.1-.65-6.36 0-.04-.41.31-.9.77-2.39 2.22-3.44 2.97-4.86 3.48-3.63 1.31-7.27.12-11.4-3.72-.4-.37-.75-.67-.78-.67s-.06.64-.06 1.43l.01 1.42.62.46c4.57 3.42 9.3 3.81 14.55 1.22 1.7-.84 1.62-.83 1.73-.11 1.85 11.67 1.47 22.22-.98 27.26-1.93 3.98-8.19 8.59-14.83 10.93l-1.05.37-.03.71c-.03.85-.1.83 1.24.37Zm-.35-1.65C32 45.05 37.99 41.1 40.49 37.8c2.04-2.7 2.94-6.49 3.27-13.75.13-2.82-.41-9.9-1.11-14.52-.17-1.16-.1-1.11-.83-.68-5.17 3.03-10.94 2.6-15.74-1.17l-.27-.21-.33.27c-4.47 3.64-9.8 4.09-15.39 1.31-.5-.25-.92-.45-.94-.45-.05 0-.25 1.22-.5 3.13-1.36 10.37-.82 20.04 1.38 24.42 1.88 3.75 8.05 8.29 14.37 10.56 1.27.46 1.35.46 2.41.1Zm-2.2-2.26c-4.77-1.73-10.44-5.74-12.36-8.74C10 32.29 9.33 23.03 10.6 13.07c.13-1.01.09-.97.84-.77 4.11 1.14 9.3.68 13.02-1.15 1.57-.77 1.28-.76 2.34-.15 3.2 1.85 8.29 2.41 12.59 1.39 1.44-.34 1.33-.39 1.55.71 1.09 5.69.83 15.86-.51 20.15-1.23 3.92-5.36 7.62-11.88 10.62-2.43 1.12-2.63 1.15-3.94.68ZM9.1 42.73v-2.07l-.26-.38-.27-.38H4.4v4.9h4.7zm16.6.18c0-1.87.06-1.71-.68-1.86-.45-.09-1.07-.71-1.21-1.2-.07-.27-.11-2.5-.11-7l-.01-6.6-.82-.39c-3.31-1.57-4.5-6.03-2.41-9.09C21.5 15.25 23.64 14 25.21 14h.49v-3.18l-.92.48c-3.6 1.88-9.09 2.4-13.35 1.26-.4-.11-.53-.11-.53-.02 0 .06-.04.47-.1.91-1.07 8.57-.56 17.96 1.16 21.38 1.61 3.18 7.06 7.29 12.44 9.38 1.42.56 1.3.68 1.3-1.3Zm1.38 1.33c5.44-2.1 10.83-6.17 12.45-9.4 1.82-3.63 2.43-13.7 1.26-21.04-.24-1.52-.14-1.43-1.31-1.15-4.16 1.01-9.11.51-12.45-1.25-.53-.27-.97-.5-.99-.5s-.04.7-.04 1.55V14h.33c1.51 0 3.81 1.47 4.76 3.04 1.98 3.29.42 7.83-3.13 9.07l-.38.14.06.59c.03.32.06 1.55.06 2.72v2.14h1.65c2.6 0 2.55-.07 2.55 3.39 0 3.53.06 3.45-2.46 3.49l-1.74.03v.41c0 .98-.59 1.86-1.36 2.05-.27.06-.39.14-.38.26 0 .09.01.87.02 1.72s.05 1.55.1 1.55c.04 0 .49-.16 1-.36Zm-16.4-.98c.04-.85-.09-1.13-.81-1.85l-.55-.53-.04 1.48c-.05 1.79-.11 1.66.7 1.62l.67-.03zm16-2.63c.48-.35.7-.79.78-1.52l.06-.68.61-.07c.33-.03 1.13-.06 1.79-.06 1.67 0 1.63.04 1.73-2.17.18-4.07.19-4.06-2.31-4.14-1.04-.03-1.9-.06-1.91-.07-.11-.09-.01-5.92.1-5.92.44 0 1.65-.76 2.37-1.48 4.91-4.96-.82-12.73-7.05-9.54-4.45 2.28-4.12 9.06.52 10.86l.58.22.05 6.96.05 6.97.3.32c.59.62 1.71.78 2.33.32ZM8.2 39.4c-.1-.19-.21-.2-1.95-.2-1.78 0-1.85.01-1.85.2s.07.2 1.95.2c1.93 0 1.96 0 1.85-.2Zm38.7-.05c0-.13-.25-.15-1.69-.15-1.38 0-1.71.03-1.81.15-.11.13.09.15 1.69.15 1.54 0 1.81-.02 1.81-.15Zm-39.5-1.2c0-.04-.07-.19-.15-.35l-.16-.3H4.4v.7h1.5c.83 0 1.5-.02 1.5-.05Zm39.5-.25v-.3h-2.49l-.16.3-.16.3h2.81zm-22-15.19c-.66-.23-1.4-.97-1.58-1.58-.79-2.64 2.3-4.53 4.2-2.56 1.81 1.87-.17 5-2.62 4.14Zm1.57-.26c2.77-1.16 1.36-5.19-1.51-4.33-.94.29-1.66 1.49-1.5 2.54.2 1.37 1.78 2.3 3.01 1.79ZM16.6 4.55V1.4h-.7v6.3h.7zm19.02.78.02-2.38.06 2.35c.06 2.92.2 1.81.2-1.65 0-2.33.02-2.25-.61-2.25H35v6.3h.6zM15.48 6.58l-.02-1.03-.06.85c-.04.57-.08-.13-.1-2.1l-.05-2.95-.05 2.95-.05 2.95-.04-2.9c-.03-1.76-.07-2.64-.11-2.25l-.07.65-.01-.63c-.02-.62-.02-.62-.32-.62h-.3l.02 2.92.03 2.91.35.13c.79.28.8.27.78-.88Zm1.62-2.03c0-1.97-.04-3.05-.1-3.05s-.1 1.08-.1 3.05.04 3.05.1 3.05.1-1.08.1-3.05Zm.62-.07c.03-2.4.02-2.98-.09-2.98-.1 0-.13.62-.13 3.07 0 1.82.04 3.03.09 2.98.05-.06.11-1.44.13-3.07Zm16.98.07c0-1.97-.04-3.05-.1-3.05s-.1 1.08-.1 3.05.04 3.05.1 3.05.1-1.08.1-3.05Zm2.28-.08L37 1.5h-.71l.05 2.88c.03 1.58.06 2.94.06 3.04 0 .13.06.15.28.09l.27-.07zm-18.8 2.91c.19-.19.17-5.84-.03-5.91-.27-.11-.3.16-.33 3.11-.04 3.02-.02 3.18.36 2.8ZM33.41 4.4l.02-2.95-.3-.03-.3-.03-.08 2.14c-.09 2.84-.02 3.63.34 3.75.14.05.27.09.28.08s.03-1.34.04-2.96Zm4.3 2.8c.21-.12.31-5.8.1-5.8-.41 0-.41-.01-.41 3.01 0 1.59.03 2.89.06 2.89s.14-.05.25-.1ZM14 4.29c0-1.91-.03-2.88-.1-2.84-.14.08-.14 5.75 0 5.75.06 0 .1-1.04.1-2.91Zm5.04 2.85c.14-.05.16-.4.16-2.91V1.39l-.22.03c-.21.03-.23.09-.28.93-.07 1.24.01 4.85.1 4.85.05 0 .15-.03.24-.06Zm-5.58-.91c-.03-.42-.06-1.65-.06-2.75 0-1.25-.04-1.98-.1-1.98-.11 0-.14 3.88-.04 4.89.1.91.28.77.2-.16Zm6.27.6c.59-.09.57-.01.57-2.84v-2.6l-.5.03-.5.03v2.78c0 2.2.03 2.77.13 2.7.06-.04.2-.09.3-.1Zm18.52-2.61c0-1.73-.04-2.73-.1-2.74-.06-.02-.11.96-.13 2.75-.02 2.21 0 2.78.1 2.75.1-.04.13-.66.13-2.76Zm-6.11-.72-.05-2.05-.3-.03-.29-.03v5.2l.28.15.27.14.07-.66c.04-.37.04-1.59.02-2.72Zm6.6 3.17c.17-.12.19-.35.2-2.68l.01-2.54h-.49l-.01 2.67c0 1.48.02 2.68.05 2.68s.14-.06.24-.13Zm-26-1.55c-.03-3.64-.03-3.72-.19-3.72-.13 0-.15.33-.17 2.28l-.03 2.27-.02-2.27-.03-2.27-.28.02c-.34.03-.37.29-.27 2.75l.07 1.73.46.34c.24.19.45.35.46.35s.01-.66 0-1.48Zm8.36-1.33c0-1.98-.02-2.29-.15-2.29-.15 0-.23 4.18-.08 4.56.16.43.23-.22.23-2.27Zm19-.2c0-1.79-.02-2.09-.15-2.09s-.15.31-.15 2.21c0 1.96.02 2.2.15 2.09.12-.1.15-.48.15-2.21ZM21.76 5.66c.22-.23.21-4.11-.02-4.2-.35-.14-.45 1.01-.28 3.42.07.98.08 1 .3.78Zm1.12-2.55-.02-1.66-.06 1.7-.06 1.7-.02-1.67-.02-1.68H22v4.01l.45-.37.45-.36zm6.72.24c0-1.88-.01-1.95-.2-1.95s-.2.07-.2 1.77.07 2.13.37 2.13c.01 0 .03-.88.03-1.95Zm-19.1-.28V1.43l-.3.05-.3.04v1.31c0 1.27.18 1.87.57 1.87.02 0 .03-.73.03-1.63Zm32.28.14c.07-.09.12-.46.12-.98V1.4l-.35.03-.35.02v2.28l.23-.19c.12-.1.28-.25.35-.33ZM28.34 2.04c.23-.59.15-.64-1.09-.64H26.1v.8h1.09c.9 0 1.1-.03 1.15-.16ZM6.85 1.65c0-.19-.08-.2-1.23-.23L4.4 1.39v.52l1.22-.03c1.15-.03 1.23-.04 1.23-.23ZM14.52.03c6.08-.02 16.07-.02 22.2 0 6.12.01 1.14.02-11.07.02S8.43.04 14.52.03Z"/></svg>