<svg xmlns="http://www.w3.org/2000/svg" width="51" height="51" viewBox="0 0 51 51"><path fill="#fff" fill-rule="evenodd" stroke="#fff" stroke-width=".366" d="M21.77 50.79c-.11-.06-.33-.08-.53-.04-.39.07-.64-.02-.43-.17.18-.12-.59.01-.85.14-.14.08-.17.07-.14-.04.02-.07.67-.44 1.43-.82 2.87-1.43 3.66-2.98 3.15-6.21l-.07-.5-.02.58c-.04 1.72-1.07 3.01-3.3 4.14-1.12.57-1.94 1.3-2.49 2.22-.42.71-.68.92-.53.44.13-.41.22-2.53.11-2.53-.16 0-.43 1.22-.44 2-.02.86-.32.65-.39-.27-.1-1.16-.12-3.71-.04-3.79.18-.18.07-1.34-.12-1.34-.28 0-.46.22-.61.74-.07.25-.17.46-.22.46-.09 0-.05-.34.08-.82.05-.16.02-.16-.48-.01-.29.09-.91.26-1.38.39l-.85.22-.03.38c-.02.21.02.9.08 1.53.19 2.01.24 3.25.12 3.17-.06-.03-.14-.32-.18-.62l-.07-.56-.54.61c-.46.51-.88.83-.69.52.04-.05 0-.11-.06-.14-.08-.03.04-.22.33-.53.65-.69.79-.93.79-1.35 0-.54-.08-.53-.61.11-2.41 2.9-5.21 1.05-7.64-5.08-.64-1.59-.72-1.28-.25.97.38 1.84.83 3.36 1.09 3.72.12.16.21.34.21.4 0 .07.27.52.6 1.01.65.95.74 1.14.35.78-.21-.19-.25-.21-.25-.07 0 1.1-1.46-1.98-2.04-4.31-.85-3.37-1.04-5.11-.87-7.86.06-.97.11-2.23.11-2.79-.01-1.19-.02-1.18-.7.54-.67 1.69-1.25 2.79-1.86 3.54-.69.85-.73.9-.46.44 1.52-2.54 2.84-6.21 2.64-7.33-.14-.76-.16-2.36-.03-2.36.05 0 .12.26.16.58.1.87.13.85.14-.08.01-.76-.01-.87-.2-.98-.29-.18-.49.01-.49.47 0 1.45-2.8 7.44-3.27 6.98-.03-.03.2-.5.51-1.04.97-1.72 1.55-3.22 1.82-4.68.22-1.2.24-1.24.19-.54-.02.42-.08.84-.11.94q-.075.18.03.12c.09-.06.36-.94.58-1.91.05-.26.04-.28-.17-.23a.56.56 0 0 1-.42-.09.84.84 0 0 0-.41-.14c-.12 0-.3-.09-.4-.2-.22-.24-.34-.18-.28.13.03.13-.08.52-.23.88-.15.35-.37 1.01-.5 1.46-.26.95-.42 1.3-.45.98-.03-.3-.03-.37.05-.83.05-.32.03-.42-.05-.36-.15.09-.07-.96.1-1.4.23-.57.37-.14.18.54-.25.87-.21.85.19-.1.47-1.1.53-1.35.3-1.27-.1.04-.34-.02-.57-.16L0 29.15v-.76c0-.8.32-2.24.55-2.48.32-.33.31.04-.04 1.38-.2.77-.33 1.43-.28 1.47.11.12.15.03.32-.77.29-1.41.62-2.26.8-2.07.04.03-.07.63-.24 1.33-.34 1.37-.39 1.89-.18 1.83.16-.06.57-1.58.62-2.33.03-.44.08-.61.19-.63.28-.06.28.23-.04 1.53-.27 1.14-.31 1.49-.15 1.33.03-.03.17-.65.32-1.37.24-1.22.4-1.58.6-1.38.03.04-.08.72-.25 1.52-.21 1.03-.26 1.45-.18 1.45s.18-.32.26-.82c.19-1.17.43-2.01.59-2.06.1-.03.12.03.09.24-.37 2.08-.48 2.77-.43 2.82.1.11.15-.06.3-1.19.18-1.31.32-1.89.45-1.89.18 0 .19.19.06.91-.08.41-.17 1.1-.21 1.54l-.07.8.21-.19c.18-.16.21-.3.21-1 0-1.21.1-1.86.28-1.86.15 0 .15.16-.04 2.18-.04.36-.02.62.03.62s.14-.53.2-1.18c.13-1.29.18-1.52.39-1.52.17 0 .17.13-.01 1.25-.17 1-.2 1.79-.06 1.55.05-.08.11-.57.15-1.08.09-1.22.15-1.52.33-1.52.13 0 .14.21.07 1.45-.04.98-.03 1.45.04 1.45.09 0 .17-.92.25-2.9l.02-.34-1.3-.33C.51 25.28 0 25.04 0 24.33c0-.24.03-.43.08-.43.16 0 3.23.81 4.35 1.14 1.21.37 1.47.4 1.81.27.15-.06 0-.13-.6-.29-.64-.17-.85-.29-1.12-.58-.56-.6-2.24-1.24-3.65-1.39-.53-.06-.66-.11-.7-.27-.15-.56 1.47-.25 4.58.87 1.6.57 2.37.66 3.37.37.79-.22.89-.14.21.16-.45.2-.46.21-.18.22.71 0 1.75-.71 2.53-1.73.57-.75 1.21-1.92.99-1.84-.25.09-.21-.09.13-.58.16-.23.39-.66.5-.94.45-1.14.79-1.65 1.05-1.55.11.05.08.16-.15.52-.35.57-.17.75.35.37.17-.13.53-.34.8-.48s.84-.58 1.25-.99c.41-.42.81-.77.88-.79.14-.05.34-.84.24-.94-.22-.21-.85-.02-1.47.45-.47.35-.66.45-.63.33.02-.1.27-.34.56-.53l.53-.35-.32-.07a.94.94 0 0 0-.6.08c-.31.16-.46.34-.29.34s-.41.96-.86 1.43c-.37.38-2.01 1.26-2.66 1.42-.16.04-.4.28-.64.63-1.51 2.19-2.64 2.89-5.47 3.33-1.11.17-.75.32.47.19 2.08-.21 4.01-1.27 4.94-2.71.64-.99.75-1.11.67-.76-.04.19-.02.26.05.22.06-.04.1.05.1.23 0 .53-1.6 1.91-3.18 2.74-.76.39-.66.48.25.23.1-.03.04.01-.14.1-.7.33-2.1.41-3.23.19-.16-.03-.07.05.23.21 1.8.97 3.98.22 5.41-1.88.81-1.18 1.01-1.14.38.08-1.26 2.39-3.77 3.14-6.46 1.94-.48-.22-1.36-.51-1.95-.65-1.95-.46-2.35-.75-.71-.53 3.73.5 6.03-.29 8.14-2.82l.47-.57-1.03-.01c-.75 0-1.3-.07-2.03-.26-1-.25-2.55-.35-2.55-.16 0 .05-.2.14-.45.2-.28.07-.51.21-.62.37l-.65.9c-.8 1.09-.14.61 1.05-.76.26-.3.43-.44.36-.3-.14.3-.6.92-1.03 1.39-.69.75.87-.06 1.84-.96.76-.71.89-.77.63-.32-.6 1.03-1.77 1.76-3.32 2.08-1.31.26-1.57.27-1.21.03.61-.41 2.11-2.12 1.86-2.12-.02 0-.23.07-.47.16-.67.24-2.19.32-2.19.11 0-.17.13-.22.85-.32.27-.04.92-.23 1.45-.42.52-.19 1.09-.4 1.25-.45.16-.06 1.2-.12 2.3-.12 1.97-.02 2.01-.03 2.95-.34 1.01-.35 1.88-.84 1.59-.9-.33-.06-3.59.55-3.59.68 0 .04-.2.13-.44.19-.56.14-.69.14-.6 0 .04-.08-.27-.1-1.09-.07-.63.01-1.17.01-1.2-.02-.02-.03-.09-.18-.16-.35-.11-.29-.11-.29-.08.12.03.46-.1.55-.37.27-.18-.18-.18-.17-.07-.67.13-.53-.59-.88-2.13-1.05-.45-.05-.61-.11-.61-.22 0-.31 1.49-.19 2.27.17.92.43.95.37.67-1.11-.17-.91-.25-1.16-.38-1.16-.34 0-.8-.39-.91-.78-.09-.28-.2-.41-.41-.49-.4-.16-.41-.55-.01-.51.34.04.34-.25 0-.89-.21-.41-.22-.43-.05-.78.1-.2.15-.46.11-.59-.03-.13-.01-.27.05-.3.21-.13.12-1.02-.15-1.53-.62-1.15.13-3.69 1.29-4.37.45-.27.77-.77.77-1.22 0-.13.07-.36.16-.5.11-.16.15-.36.11-.59C4 .32 4.05.31 4.26.71c.13.27.14.38.04.75-.07.23-.09.47-.06.52s-.05.26-.19.46-.25.41-.25.46c0 .06-.22.26-.49.45-1.16.84-1.82 3.03-1.19 3.96.15.21.27.57.31.91.1.81.32 1.27.89 1.82.28.28.37.46.43.86.04.27.08.5.1.5s.15-.04.29-.1c.2-.07.26-.06.26.04 0 .07.07.2.16.27.11.09.14.23.1.49-.05.3-.01.4.24.64.22.2.3.38.31.64.01.21.02.44.03.52.03.38.16.38 1.03 0 .49-.21 1.4-.54 2.03-.73 1.24-.39 1.73-.66 2.63-1.46.32-.28.91-.76 1.32-1.05.82-.61 1.46-1.37 1-1.2-.09.04-.15 0-.15-.09 0-.26 3.32-2.89 4.15-3.28 1.5-.7 4-.64 6.34.16.41.14.96.25 1.21.25 1.27 0 4.16 2.03 4.57 3.21.13.38.28.58.58.79 1.48 1.02 1.86 2.9.72 3.6-.7.43-1.05 1.19-1.22 2.61-.15 1.34-.4 2.12-.76 2.45-.19.17-.28 1.04-.11 1.04.23 0 .82-.64.82-.89 0-.35.39-.95 1.27-1.96.86-.98.93-1.11.93-1.72 0-1.12 1.32-2.13 2.03-1.55.17.14 2.25.75 3.28.97 2.28.47 3.9 1.36 5.66 3.12l1.01 1.02.49-.15c1.14-.36 2.13-.02 1.6.55-.62.67-.84 1.43-.32 1.08 1.15-.76 1.85-.6 1.51.36-.13.34-.12.37.05.37.37 0 2.09.61 2.09.74 0 .18-.19.33-.54.42-.16.04-.41.13-.55.2-.14.08-.42.14-.62.14s-.39.03-.43.07-.24.06-.44.05c-.33-.03-.38 0-.51.3-.07.18-.25.5-.39.71-.3.44-.29.45.34.53.27.04.56.12.64.19s.27.15.41.18c.3.08.81.55.76.71-.02.06-.34.18-.7.26-.37.08-.67.2-.67.26 0 .23-.25.33-.62.25l-.37-.09.32.41c1.14 1.45 1.56 1.67 3.17 1.67.82 0 1.36.13 1.25.3-.1.15-2.34.12-2.88-.04-.78-.23-.83.11-.22 1.34.55 1.09 2.05 2.37 3.17 2.71.41.13.67.26.65.33-.04.12-.12.12-.7.03l-.38-.06.42.47c.44.51.64.82.52.82-.15 0-.82-.45-.81-.54.02-.19-1.2-1.28-1.71-1.52-1.14-.54-1.68-1.25-2.31-3.04-.48-1.34-.49-1.55-.03-1.16.58.49.56.22-.04-.49-.71-.85-1.4-1.35-1.77-1.28-.33.07-.33.17-.01.45.24.21.36.56.15.43-.13-.08-.13-.05.05.45.08.23.15.59.14.79 0 .32-.03.27-.25-.39-.14-.41-.3-.79-.35-.85-.06-.06-.01.13.09.41.11.28.26.79.33 1.15.07.35.16.67.21.7s.12.26.14.5l.05.44-.14-.3-.14-.3-.07.4c-.04.22-.14.56-.23.77-.08.2-.12.41-.09.46.17.28 1.44 1.11 2.51 1.64 2.58 1.3 3.08 1.82 3.89 4.08.51 1.41.41 3.21-.25 4.39-.22.4-.22.4.15-.78.29-.91.35-2.28.13-2.88-.1-.28-.12-.12-.12 1.05s-.03 1.43-.2 1.76c-.21.41-.51.64-.38.29.05-.14.01-.13-.2.06-.33.3-.34.23-.03-.24.2-.28.25-.32.28-.18.07.27.38-.84.38-1.32 0-1.04-.52-2.87-1.06-3.72-.37-.58-.55-.73-.25-.2.64 1.09.82 3.08.41 4.39-.23.75-.5 1.12-.6.84-.05-.15-.09-.14-.3.09-.17.19-.26.22-.32.13-.04-.07-.05.05-.02.27l.05.4-.3-.35c-.22-.25-.31-.29-.31-.17 0 .17-.11.22-.24.1-.03-.04-.14-.08-.24-.09-.09-.01-.26-.05-.36-.09-.64-.27.69 3.25 1.69 4.48.51.63.51.7-.01.31-.76-.59-1.52-2.02-2.13-4.04-.21-.69-.57-1.61-.79-2.05l-.41-.8.05.5c.3 2.68 1.54 5.6 3.02 7.12.58.59 1 .79.46.22-.45-.48-.94-1.12-.94-1.22 0-.22.33 0 .68.46.23.29.53.64.67.77.15.14.32.39.39.55.09.2.34.42.79.69.76.44 1.09.74.67.61-.61-.19-2.18-.99-2.45-1.24-.33-.32-1.55-.96-1.55-.83 0 .05.09.17.21.28.57.52.35.76-.23.26-.18-.16-.69-.48-1.13-.72-.44-.23-.84-.46-.89-.51-.05-.04-.14-.05-.21-.03-.07.03-.16.01-.19-.04-.03-.06-.14-.08-.24-.06-.17.05-.66-.35-.87-.69-.06-.11-.34-.2-.78-.27-1.65-.26-2.55-.82-3.12-1.95-1.5-2.97-2.69-3.18-1.96-.35.1.41.17.77.15.79-.07.07-1.04-.72-1.48-1.19l-.44-.5-.07.63c-.04.34-.21 1.14-.37 1.77-.52 2.02-.45 4.22.18 6.04.18.49.18.66-.01.66-.16 0-.3-.43-.69-2.03-.46-1.92-.43-2.69.15-4.79.16-.59.32-1.31.35-1.6l.04-.53-.14.36c-.43 1.1-2.65 4.44-2.83 4.25-.07-.06.11-.37 1.04-1.8 1.9-2.91 2.15-4.81 1.03-7.74-.16-.42-.45-1.22-.64-1.77-.77-2.17-2.03-3.17-4.01-3.19-1.05-.01-1.86.36-3.68 1.71-2.03 1.51-2.31 1.71-3.76 2.66-.79.52-2.17 1.28-3.31 1.83-1.07.51-2.44 1.19-3.03 1.5-1.55.8-1.54.5.01-.42.8-.47.74-.27.56-2.05-.25-2.43-.01-6.06.56-8.46.11-.48.18-.99.15-1.13-.04-.2.02-.36.26-.66.65-.81 1.17-2.15 1.44-3.64.22-1.28.23-1.26-.29-1.22l-.45.04-.12.54c-.07.3-.16.57-.2.6-.04.02-.03.18.03.35.17.49.05.43-.49-.26-.44-.54-.56-.79-.77-1.57-.61-2.31-1.26-3.42-1.55-2.66a.8.8 0 0 0-.06.33c.02.06.06.22.09.38.05.21.12.27.34.28.26 0 .26.01.05.11-.2.09-.22.18-.2.69.03.79-.14.94-.42.37-.23-.47-.26-.73-.12-.82.19-.12-.24-1.26-.48-1.26-.56 0-.79 1.37-.37 2.19.2.38.2.41-.04.41-.15 0-.2.07-.2.25 0 .34-.11.31-.37-.11-.27-.42-.28-.48-.08-.78.18-.28-.01-.64-.29-.53-.27.11-.34.46-.19.96s.18 1.51.04 1.51c-.11 0-.21-.36-.21-.8 0-.42-.34-.73-.45-.41-.03.1.01.31.1.47.2.39.2 1.24 0 1.24-.1 0-.17-.14-.21-.4-.13-.81-.41-.25-.31.61.03.27.13.65.22.83.09.19.14.39.11.45-.17.27.78 2.37 1.22 2.72.21.16.24.23.14.42-.06.12-.13.62-.17 1.11-.1 1.43-.42 3.13-.84 4.52-1.5 4.97-1.71 6-1.77 8.79-.07 2.76 0 2.85 2.11 2.85 1.42 0 3.52-.57 6.6-1.77.77-.3 2.12-.81 3-1.13s2.32-.92 3.2-1.33c2.12-.99 5.37-2.17 5.99-2.17.38 0 .02.19-1.15.6-.64.22-1.43.52-1.75.66l-.59.25.49-.06c.78-.1 2.18-.07 2.29.04.08.08-.06.11-.48.11-1.77 0-4.39.62-5.44 1.29-.22.14-.05 1.32.24 1.73.13.18.4.61.6.96.53.91.54.76.01-.2-.45-.84-.69-1.38-.61-1.38.12 0 1.34 1.96 1.88 3.02.79 1.56 1.33 2.08 2.16 2.08.4 0 2.66 1.51 3 2 .14.21.21.27.17.13-.27-.89-.25-1.84.06-2.69.2-.56 1.23-.88 1.32-.41.07.35.26 1.76.25 1.9-.01.21-.38-.91-.45-1.38-.07-.5-.1-.52-.4-.3-.53.36-.74 1.49-.49 2.64.19.93.2.93-.51.25-1.06-1.01-2.52-1.88-3.33-1.97l-.43-.05.43.39c.24.21.47.39.51.39s.14.13.23.3.34.39.58.51c.62.31 1.3 1.01.8.82-.52-.2-1.43-.8-1.8-1.19-.81-.84-.97-.53-.21.38.84 1 .86 1.09.09.31-.7-.72-.9-1.14-.59-1.26.08-.03.06-.06-.04-.06-.1-.01-.39.14-.66.33-.81.59-1 .49-.27-.14.3-.26.4-.4.29-.4-.09 0-.51-.16-.94-.35-1.21-.55-1.21-.55-.92.65.24.98.25 1 .53 1 .36 0 .99.25 1.62.63.67.41.53.43-.39.08-1.41-.55-1.7-.51-1.46.18.11.32-.1.34-.33.04-.09-.11-.23-.11-.85.02-.98.22-2.69.3-2.93.14Zm-10.23-1.45c.97-.65 1.79-1.73 1.74-2.34l-.03-.42-.5.63c-.89 1.11-2.12 1.54-3.02 1.06-.49-.26-.4-.13.15.22.34.22.61.31.9.31.43 0 .63.14.36.24-.61.23-1.32-.11-2.11-1-.32-.37-.85-.97-1.18-1.33s-.74-.84-.92-1.06c-.55-.7-.54-.2.02.78 1.66 2.87 3.18 3.83 4.59 2.91Zm30.36-.54c-.09-.06-.39-.08-.71-.04-.42.04-.65.02-.88-.1-.42-.22-.39-.29.04-.1.4.16.64.18.85.04.23-.14.03-.25-.52-.26-.8-.01-1.42-.98-1.03-1.58.14-.2.14-.26.03-.33-.08-.04-.26-.31-.4-.58s-.31-.5-.38-.5c-.2 0-.5-.47-.52-.8-.02-.31-.14-.55-.29-.55-.14 0-.1.27.06.44.11.11.13.21.07.33-.05.1-.07.24-.04.32s-.01.12-.09.09c-.37-.12-.41-1.53-.04-1.44.24.06.24.06-.08-.4-.58-.84-.61-.89-.2-.46.23.24.45.43.49.43.05-.01.1.1.12.24.03.26.17.34.25.13.09-.27.85.66 1.02 1.25.13.44.23.61.45.72.34.17.84.8.76.93-.03.06.01.16.1.23s.29.38.44.7c.46.91 1.25 1.36 2.02 1.15.21-.06.21-.06.04.05-.11.06-.42.1-.77.07-.32-.02-.56-.01-.53.04.07.11-.08.1-.26-.02Zm-14.2-.78c0-.05-.12-.19-.26-.33-.14-.13-.4-.46-.56-.74-.17-.27-.27-.41-.23-.3s.09.29.12.4l.04.2-.16-.2c-.09-.11-.41-.68-.72-1.27-.3-.58-.68-1.21-.84-1.4l-.3-.33.07.7c.04.39.1.71.15.73.1.04.33.72.26.79-.04.03-.13-.1-.21-.28-.2-.46-.2-.14 0 .65.16.62.17.64.54.7.21.03.71.22 1.11.41.74.35.99.42.99.27Zm-16.22-.21c.61-.31 1.93-1.85 1.78-2.09-.03-.05-.49-.09-1.02-.1-1.46-.03-1.76-.15-2.2-.88-.1-.17-.14-.17-.75.06-1 .38-2.03.26-2.53-.29-.3-.33-.1-.42.37-.16.73.4 2.44.3 2.73-.17.08-.13-.18-.09-.74.12-2.12.81-3.7-1.16-4.55-5.65-.11-.58-.19 1.52-.09 2.4.09.87.14 1.03.36 1.22.14.12.48.72.75 1.34.56 1.24.76 1.59.92 1.59.06 0 .02-.12-.09-.27-.2-.29-.72-1.28-.72-1.38 0-.24.34.06.6.53.64 1.12 2.88 3.57 3.5 3.81.43.17 1.28.13 1.68-.08Zm10.15-.73c.77-.42 1.57-1.15 1.88-1.72.41-.77-.06-.66-.64.16-.29.41-1.06.84-1.33.74-.14-.06-.4.34-.55.86-.1.35-.1.35.64-.04Zm24.86-1.07c-.48-.68-.77-1.12-1.64-2.46-1.28-1.98-1.67-2.41-3.04-3.42-1.23-.91-1.86-1.45-2.03-1.78-.06-.11.16.05.5.36.33.31.96.78 1.39 1.04 1.46.88 1.72 1.2 4.13 4.98.38.59 1.28 1.53 1.38 1.43.02-.02-.12-.25-.32-.5-.48-.64-.73-1.1-1.31-2.44-.57-1.31-1.4-2.19-3.35-3.52-.49-.34-1.01-.78-1.17-.98l-.28-.37.3.23c.53.41 2.25 1.5 2.25 1.42 0-.11-.84-.71-1.46-1.04-.44-.24-.54-.35-.74-.83-.12-.3-.37-.68-.55-.84s-.58-.78-.91-1.37c-.32-.59-.91-1.6-1.32-2.25-1.3-2.09-1.35-2.58-.06-.67.82 1.23 1.2 1.66 1.28 1.47.02-.07.05-.03.05.08.02.48.26 1.01.87 1.92.37.54.76 1.21.89 1.49s.36.61.54.73c.34.24.43.11.14-.21-.09-.1-.14-.21-.11-.24s.16.09.29.26c.68.9.98 1.17.99.88 0-.15-.04-.29-.09-.32s-.14-.36-.21-.73c-.35-1.89-1.01-3.22-2.2-4.47-.47-.5-.71-.8-.53-.68.75.53 2.25 2.57 2.64 3.61.29.78.72 2.78.67 3.12-.04.28.34.81.48.67.09-.1-.31-1.92-.65-2.98-.35-1.08-.33-1.29.04-.45.39.86.73 2.15.81 2.99.06.68.1.77.42 1.08.19.18.32.26.29.17s-.15-.94-.27-1.9c-.31-2.38-.75-3.38-2.31-5.13-.48-.54-.5-.57-.21-.42.17.09.6.5.95.9.34.41.86.93 1.15 1.15.93.74 1.59 1.86 1.88 3.21.18.8.34 1.13.34.66 0-.15.04-.25.1-.21.06.03.1.17.1.31 0 .13.05.24.1.24.15 0 .12-.88-.05-1.55-.34-1.33-.91-2.12-2.13-2.98-1.36-.96-1.7-1.37-.47-.56 2.12 1.4 3.05 2.82 3.05 4.67 0 .1.09.27.2.37.19.18.2.17.2-.03 0-.11.05-.24.11-.28.18-.11.02-1.57-.27-2.43-.59-1.78-1.85-3.66-2.74-4.11-.3-.15-.64-.38-.75-.51l-.2-.24.21.18c.11.09.49.28.83.42.69.28 1.35.67 1.47.87.04.06-.1.01-.31-.12l-.38-.24.47.6c.27.32.62.78.79 1.01.17.24.35.43.4.43.04 0 .06.04.02.1-.03.05.06.32.2.61.3.58.92 2.3 1.1 3.04l.12.5.18-.4c.27-.58.32-2.02.1-2.85-.39-1.53-1.04-2.28-2.95-3.4-.65-.38-1.44-.92-1.78-1.2l-.6-.5-.6.14c-.34.08-.63.13-.65.12-.02 0 .21.23.51.52.6.57.58.7-.04.22-.93-.71-1.22-.87-1.79-.99-1.05-.23-2.1-.9-3.08-1.94l-.48-.52.24.5c.59 1.19 5.53 4.45 6.75 4.45.04 0 .18.12.3.28.13.15.52.63.88 1.07s.75.94.87 1.1c.42.59-.12.04-.98-.99-.82-1-.84-1.01-1.56-1.25-.93-.3-1.91-.76-2.94-1.39-1.71-1.04-1.92-1.17-2.39-1.56-.41-.33-.46-.35-.31-.13.09.15.13.27.07.27-.22 0-.86-.88-1.23-1.7-.26-.58-.39-.77-.39-.6l-.01.25-.14-.25c-.07-.14-.17-.52-.21-.85s-.09-.52-.12-.42c-.05.23-.22.12-.23-.16-.01-.2-.02-.2-.08.03-.07.21-.09.18-.15-.25-.11-.7-.12-.73-.25-.43-.16.43-.24.33-.16-.21.06-.47-.07-.79-.24-.54-.29.46-1.88.7-2.12.32-.05-.08-.09-.11-.09-.07 0 .18-.02.24-.12.36-.07.08-.07.12.01.12.07 0 .09.12.06.33-.08.53-.08.6-.07 1.05l.02.44.33-.29c.18-.15.33-.32.33-.38-.01-.13 1.24-1.28 1.31-1.21.03.03-.11.24-.31.46-.41.45-.45.55-.16.4.29-.16.26.06-.11.76-.71 1.33-.88 1.71-.94 2.17-.09.56-.04.59.25.11.28-.44.35-.39.15.09-.08.2-.15.65-.16.99l-.01.63-.11-.43-.12-.43-.23.21-.22.21-.02-.38c-.04-1.05 0-1.33.31-1.89.17-.32.31-.62.31-.67 0-.06.15-.28.33-.51.52-.64.54-.7.17-.51-.17.09-.29.19-.26.22s-.23.38-.57.77c-.93 1.05-.97 1.14-.97 2v.74l.39.31c.21.17.56.54.77.81.53.69.91.26.49-.54-.15-.28-.13-.33.44-1.55.32-.69.69-1.59.81-1.99.29-.97.31-.93.24.56-.13 2.53 1.59 6.44 4.27 9.72l.2.25-.06-.32c-.12-.6.1-.34.44.53s.51 1.07.32.37c-.14-.49-.14-.7-.01-.57.05.05.18.52.29 1.03.15.7.26.98.44 1.15.14.13.28.37.32.55.04.21.15.35.3.41.13.05.31.22.39.37s.34.46.56.68c.23.22.5.55.62.72.22.36.35.45.18.12-.15-.27-.07-.35.14-.14.09.09.17.28.17.43.01.17.03.21.06.1.05-.22.17-.23.33-.03.07.08.16.12.21.1.04-.03.18.04.31.17.12.12.31.23.41.23.11.01.27.11.36.23s.34.28.56.36c.54.2.6.19.44-.03Zm-24.08-.5c.48-.47.54-1.13.18-1.83l-.21-.42-.21.39c-.11.22-.31.55-.45.73-.22.29-.23.35-.12.62.09.21.09.37.02.6-.17.47.28.42.79-.09ZM.36 44.95c.19-.91 1.21-3.71 1.87-5.1.42-.88.86-1.96.98-2.4.23-.87.46-1.27.33-.6-.12.66-.48 1.61-1.22 3.2-.39.83-.96 2.26-1.27 3.2-.57 1.7-.81 2.29-.69 1.7Zm20.49-1.57c.04-.11.03-.18-.03-.18s-.15.12-.2.28c-.07.17-.11.21-.11.1-.02-.43-2.01.4-2.01.83 0 .11.06.19.14.19s.24.09.37.19c.23.19.24.19.48 0 .39-.31 1.09-.19 1.13.19 0 .09.04-.19.08-.63s.1-.88.15-.97Zm-11.7.54c.28-.08.55-.16.61-.18.07-.01.13-.6.17-1.71.06-1.74.28-3.15.78-4.96l.24-.87-.21-.8c-.24-.88-.15-1.1.11-.3.09.28.2.48.25.45.19-.12-.31-1.72-.87-2.77-.27-.49-.73-.73-.73-.37 0 .3-.11.49-.3.49-.22 0-.3.19-.3.75 0 .24-.04.47-.1.5-.05.03-.1.16-.1.28s-.11.42-.25.66c-.31.53-.33 1.14-.06 1.73.11.24.27.72.36 1.08s.21.73.26.83c.06.1.07.27.04.38-.04.13-.02.19.08.19.34 0 .39 1.62.08 2.55-.1.33-.27.88-.36 1.23-.1.34-.23.62-.3.62-.42 0-1.82-2.16-1.89-2.9-.01-.21-.06-.42-.1-.49s-.04-.2 0-.29.08-.4.09-.67c0-.27.08-.63.16-.8.09-.16.22-.57.29-.9s.23-.83.35-1.1c.17-.38.2-.57.13-.75-.05-.14-.07-.47-.03-.73.04-.33.01-.56-.09-.75a2.7 2.7 0 0 1-.21-.63c-.06-.39-.28-.65-.6-.7-.11-.02-.26-.19-.35-.37-.1-.23-.23-.35-.42-.39-.33-.06-.39-.44-.13-.8.1-.15.12-.24.05-.28-.08-.05-.07-.11.01-.21.1-.12.08-.19-.09-.37-.16-.17-.18-.26-.1-.4.14-.26-.05-.46-.3-.31-.12.08-.19.3-.23.75-.04.35-.12 1.23-.2 1.94-.4 4.06.02 7.29 1.31 9.85.86 1.7 1.44 2 2.95 1.52Zm32.56-.8c-.43-.53-1.2-1.58-1.7-2.32s-1.41-2.07-2.02-2.95c-1.57-2.28-2.56-4.31-3.03-6.16l-.22-.86-.21.56c-.11.31-.19.72-.17.91.01.19.03.41.03.47.01.07.08.13.16.13.19 0 .19.05-.02.41-.15.25-.15.31-.04.38s.11.13-.02.32c-.22.37-.34.91-.13.64.14-.18.15-.15.09.43-.04.46-.03.62.07.62.08 0 .1.08.06.26-.04.14-.02.42.05.61l.11.35.35-.87.36-.87-.22-.9c-.28-1.12-.23-1.2.17-.26 1.15 2.76 1.35 3.14 2.58 4.99 1.17 1.76 1.18 2.17.02.66-1.18-1.54-1.74-2.46-2.12-3.51-.1-.29-.34.08-.38.6-.02.27-.07.38-.17.36-.08-.02-.11.03-.08.11.03.07.02.32-.03.55l-.07.43.23-.16.24-.15-.19.3c-.19.32-.19 1.63 0 1.85.05.05.09.2.09.32 0 .25.55 1.18.84 1.42.09.08-.02-.21-.26-.65-.41-.76-.43-.82-.41-1.59.01-.44.03-1.15.04-1.57.02-.65.17-1.05.2-.5 0 .14.02.13.09-.03.09-.22.11-.15.25.65.04.28.15.41.51.64.28.18.56.48.75.8.17.28.52.77.79 1.09.26.32.69.98.95 1.47.49.92.88 1.3 1.69 1.64.51.21.79.22.52.01-.33-.25-.1-.17.3.1.8.54.79.3-.05-.73ZM36.5 41c-.15-.37-.18-.56-.1-.64.05-.05.1-.18.1-.28s.07-.21.15-.25c.14-.05.14-.08 0-.3-.23-.35-.1-.41.19-.1.34.37.52.34.29-.03-.28-.48-.73-.88-.73-.66 0 .15-.03.16-.15.06-.46-.39-.43 1.08.05 2.11.39.85.52.9.2.09Zm-18.81-3.1c.91-.45.89-.42 1-2 .1-1.35.03-2.69-.18-3.73l-.16-.82-.78-.05c-.76-.05-.78-.05-.85.2-.18.64-.05 6.8.14 6.8.02 0 .4-.18.83-.4Zm22.21-.58c-1.03-.68-1.66-1.47-2.41-2.97-.41-.8-.49-1.06-.44-1.32.06-.34-.08-.73-.26-.73-.07 0-.09.1-.05.25.04.14.02.25-.03.25-.11 0-.21-.25-.21-.56 0-.47.58-.21.75.34.03.12.17.34.31.47.26.26.31.5.11.58-.08.03-.13-.04-.12-.21 0-.17-.06-.28-.17-.3-.9-.18 1.43 3.38 2.73 4.17.19.12.27.21.19.2-.08 0-.26-.08-.4-.17Zm-20.48-.37c.32-.32.48-.86.5-1.71 0-.38.03-.54.05-.36s.09.3.14.27c.13-.09.11.43-.05 1.05-.17.66-.13.74.19.35.29-.35.64-1.39.72-2.12.03-.29.1-.5.14-.47.15.09.1.65-.1 1.39-.22.78-.2.89.08.54.66-.82.53-1.94-.42-3.61-.75-1.32-1.08-2.13-1.22-2.97-.05-.31-.04-.42.04-.37.06.04.11.16.11.27 0 .4 1.22 2.66 2.05 3.78.33.44.43.66.35.71-.09.06-.08.14.04.33.13.19.14.26.04.29-.09.03-.04.16.16.42l.29.38-.27-.17c-.3-.2-.35-.07-.08.19.29.26.59-.09.36-.42-.19-.27.08-.32.36-.07.18.16.5.11.5-.08 0-.12-.89-.97-1.02-.97-.04 0-.21-.28-.38-.62-.29-.6-.3-.61-.06-.33.14.16.31.42.37.57s.21.3.33.34c.11.03.31.16.43.27l.23.2-.16-.46c-.16-.47-.2-.51-2.03-2.04-.14-.11-.23-.24-.19-.28.14-.14.54.05 1.16.55.34.27.62.46.62.4 0-.05-.11-.17-.25-.26s-.25-.22-.25-.29c0-.06-.12-.18-.27-.25-.19-.08-.23-.14-.14-.18.09-.03-.06-.23-.47-.61-.98-.91-1.06-1.71-.3-2.96.36-.61.62-1.45.44-1.45-.28 0-1.99 1.59-2.26 2.1-.17.31-.07 1.4.2 2.39.12.4.18.76.16.79-.09.08.47 1.03.72 1.23.16.12.19.19.1.19-.69 0-1.52-2.04-1.65-4.04-.06-.89-.08-.97-.2-.8-.19.24-.13.89.28 3.47.28 1.77.31 2.07.27 3.8-.05 1.99-.04 2.01.34 1.62ZM.11 35.25c.05-.24.35-1.06.67-1.82.33-.76.65-1.56.71-1.78.36-1.17.61-1.58.61-1 0 .72-1.72 5.05-2.01 5.05-.04 0-.03-.2.02-.45Zm49.08-1.13c-.68-.43-1.46-.91-1.74-1.07-.63-.36-1.72-1.45-2.04-2.05-.23-.42-.2-.4.51.35.58.61 1.07.99 2.04 1.6 1.51.93 2.73 1.77 2.74 1.88 0 .18-.36.01-1.51-.71ZM11.9 32.95c.89-3.18.92-5.34.06-4.66-.42.33-1.92.84-2.33.79-.19-.02.05-.19 1.07-.72 1.62-.86 1.56-.64.82-2.81-.34-.99-.62-1.94-.62-2.11 0-.3 0-.3-.65.34-.65.63-1.49 1.12-1.95 1.12-.5.01-.51.08-.2 1.32.16.63.42 1.49.58 1.89.17.41.51 1.26.76 1.89.65 1.62 1.96 4.24 2.06 4.14.05-.05.23-.59.4-1.19Zm14.46-.5c.14-.11.16-.15.04-.15-.21-.01.18-.3.4-.3.29 0 1.54-.68 1.85-1 .38-.4.44-1.33.11-1.69l-.2-.22-.12.3c-.13.31-.97 1.01-1.22 1.01-.09 0-.02-.1.18-.25.19-.14.36-.25.39-.25s.16-.15.29-.33c.28-.42.29-.72.01-.37l-.21.25.06-.35.06-.35-.27.34c-1.05 1.33-3.83.54-4.83-1.38-.1-.2-.34-.48-.54-.63l-.35-.28-.1.33c-.32.98.85 2.89 2.25 3.68.72.41.5.52-.27.13-.74-.37-1.51-1.2-1.93-2.06l-.36-.73v.51c0 .93 1 2.38 1.87 2.71.07.03.13.09.13.14 0 .13-.71-.18-.97-.43-.43-.41-.23-.02.22.42.42.41.53.46 1.72.76 1.52.38 1.54.38 1.79.19ZM25 31.87c-.33-.1-.31-.11.5-.18.89-.07 1.2-.15 1.2-.31 0-.05.04-.06.1-.03.18.11.67-.24 1.21-.86.56-.65.71-.64.45.04-.38.99-2.26 1.72-3.46 1.34Zm17.21-1.14c-.54-.77-.91-1.71-.98-2.49-.08-.84.1-.84.25.01.12.6.46 1.55.56 1.55.03 0-.04-.26-.15-.57-.2-.59-.39-2.24-.23-2.1.04.04.16.46.25.94.29 1.42 1.05 3.07 1.38 3.01.35-.07.47-.86.23-1.53-.34-.99-.35-1.02-.05-.55.37.59.42.31.15-.78-.35-1.33-.5-1.54-1.27-1.65-.17-.02-.37-.07-.45-.1-.57-.24-.87-.15-.92.28-.02.25-.09.31-.4.39-.21.05-.38.16-.38.23s-.14.16-.3.19c-.38.08-.38.05.15 1.25.48 1.08 1.03 1.92 1.38 2.11.13.06.02-.11-.24-.39-.48-.51-.87-1.13-.71-1.13.05 0 .41.38.82.85.4.47.8.9.89.95.39.23.4.06.02-.47Zm-11.31-.51c0-.82.11-1.42.21-1.17.05.14.07.09.07-.17-.01-.21.05-.46.14-.55.08-.1.21-.44.28-.76s.17-.53.21-.46c.04.06.1-.13.14-.42.1-.73.26-1.1.19-.44-.11 1.12-.38 2.79-.42 2.67-.08-.25-.22.01-.21.41.01.96.37.85.68-.22.07-.23.15-.5.18-.59.05-.11.03-.13-.06-.07-.1.06-.12-.05-.07-.51.03-.33.05-.72.05-.88s.05-.43.1-.6.12-.44.16-.61l.07-.3.12.3c.09.2.21.31.36.32.12.01.3.09.39.17.53.48 1.47-.25 1.38-1.06-.11-.91-.47-1.86-.98-2.55l-.49-.68v.36c0 .28.11.51.52 1.03.46.61.52.73.55 1.24.02.54.02.55-.08.22l-.11-.35-.14.35c-.08.19-.22.38-.3.43-.28.16.12.45.54.38.22-.04.13.18-.15.32-.25.14-.28.12-.6-.19-.4-.41-.4-.43-.03-.79.45-.43.44-.49-.48-1.99-.11-.19-.12-.16-.06.19l.07.4-.22-.19c-.23-.21-.33-1.56-.11-1.56.06 0 .1.1.1.22 0 .13.05.3.1.38.16.24.12-.31-.05-.8-.12-.34-.13-.63-.05-1.6.13-1.55.31-2.4.44-1.99.39 1.33.89 1.96 1.74 2.19.69.19.7.18.43-.43-.1-.23-.24-.58-.31-.77-.08-.19-.19-.42-.26-.5-.16-.19-.53-1.01-.54-1.17 0-.1.24-.13.89-.13h.89l.07-.29c.07-.31-.08-.98-.32-1.44-.23-.45-.26-.25-.03.24.11.24.19.58.19.74v.3l-.1-.25c-.43-1.06-1.08-1.98-.96-1.35.21 1.02.2 1.06-.02 1.12-.11.03-.21.11-.21.19 0 .07-.08.19-.18.26-.4.28-.51 1-.26 1.62.05.14.04.17-.04.12-.24-.14-.59-1.02-.66-1.61-.22-1.9-.68-2.75-1.1-2.03l-.19.33-.07-.25-.06-.25-.17.32c-.21.39-.21.7-.02 1.03l.14.25.01-.35c0-.35.14-.6.33-.6.06 0 .07.23.04.53-.03.28-.03.46 0 .39.02-.06.09-.1.14-.06.05.03.19-.14.3-.38l.2-.43-.05 1.1c-.02.61-.13 1.52-.25 2.03-.11.51-.27 1.53-.37 2.25-.41 3.19-1.73 8.06-2.56 9.42-.53.88-.47 1 .31.74l.61-.21zm9.87.49c-.49-.52-.81-1.1-1.17-2.09-.22-.6-.4-.88-.4-.6 0 .07.2.57.45 1.11.24.54.39.97.32.94-.13-.04-.63-.96-.89-1.65-.16-.4-.19-.42-.38-.32-.17.09-.25.08-.38-.03-.33-.29-.89-.28-.6.01.09.09.09.12 0 .12-.06 0-.17-.09-.24-.2s-.2-.2-.29-.2c-.3 0-.43-.27-.26-.53.15-.23.14-.25-.14-.41-.18-.11-.29-.25-.27-.35.02-.09-.05-.29-.15-.44-.13-.21-.15-.32-.07-.46.14-.27.02-.51-.24-.51-.39 0-.59-.23-.54-.61.04-.21-.01-.46-.1-.64-.08-.16-.18-.43-.22-.6-.06-.26-.07-.23-.14.27-.09.73.3 2.23.73 2.78.16.19.47.69.7 1.1.48.84.88 1.41 1.09 1.54.08.05.46.38.85.73.67.61 1.37 1.13 1.54 1.13.04 0-.09-.14-.29-.3-.32-.27-1.18-1.62-1.18-1.86 0-.05.18.18.4.52.49.75 1.89 2.02 2.24 2.04.05 0-.12-.22-.37-.49Zm-22.47.12c0-.09-.05-.46-.1-.82-.06-.36-.13-.81-.16-.99l-.05-.33-.34.43c-.18.25-.42.51-.54.59-.14.1-.22.3-.27.66l-.06.52.53.04c.3.02.64.04.76.05.16.01.23-.04.23-.15Zm11.46-.98c.19-.29.67-1.56.61-1.62-.03-.02-.1.1-.17.26-.07.17-.19.36-.27.42-.18.15.36-1.36.7-1.95.26-.45.62-1.64.53-1.74-.03-.03-.06 0-.06.06 0 .21-.41 1.22-.5 1.22-.1 0 .09-.71.42-1.59.14-.35.23-.49.28-.4.08.12.2-.22.35-1.01.04-.19.09-.44.11-.55.05-.2.05-.2-.1-.01-.09.11-.18.17-.21.15-.08-.09.12-.64.23-.62.14.03.17-.1.4-1.54.16-.97.16-1.13.04-1.13-.18 0-.12-.39.17-1.02.33-.74.53-1.87.31-1.73-.05.03-.1.22-.1.4 0 .4-.28 1.15-.42 1.15-.06 0-.08-.1-.04-.22.17-.65.18-1.26.02-1.5l-.17-.23-.89.95c-1.03 1.09-1.02 1.06-.53 1.15.86.16 1.85 2.41 1.23 2.8-.06.04-.1-.11-.1-.37-.01-.9-.37-1.48-1.08-1.79-.6-.26-.69-.24-.76.14-.03.19-.17.44-.31.57-.27.25-.25.4.06.4.14 0 .25-.1.32-.3.23-.62.33-.32.12.37-.06.18-.01.24.26.36.7.29.78.73.13.71-.55-.02-.52-.01-.76-.29-.12-.14-.28-.25-.35-.25s-.22-.09-.34-.21c-.36-.36-.45-.12-.31.81.17 1.22 0 1.47-1.08 1.59-.66.07-.72.2-.4.92.26.61.22.68-.34.62-.5-.06-.6.03-.61.57-.01.2-.13.52-.28.74-.59.85-.34 1.24.97 1.55 1.55.37 2.34 1.01 2.51 2.02.08.45.18.49.41.14Zm-2.83-.66c.22-.12.37-.28.37-.4 0-.04-.51-.09-1.12-.11-1.26-.05-1.73-.21-2.47-.85-.52-.44-.63-.36-.26.17.74 1.07 2.54 1.68 3.48 1.19Zm-9.31-.67c.87-1.21 1.32-1.54 1.44-1.08l.06.25.29-.33c.15-.18.6-.59.99-.91.86-.72.86-.68.01-1.6-.37-.41-.83-1.03-1.02-1.38l-.33-.62-.09.5c-.23 1.41-.79 3.02-1.25 3.63-.13.17-.35.69-.48 1.15-.37 1.28-.31 1.34.38.39Zm9.52.02c.49-.19-.27-.48-1.79-.69-.65-.09-1.29-.21-1.44-.26-.25-.09-.25-.09-.06.07.48.39 1.28.67 2.1.73.46.04.87.1.91.14.09.09.08.08.28.01ZM6.38 26.96c.09-.02.44-.07.78-.11l.61-.07-.09-.56c-.16-1.03-.27-1.32-.49-1.32-.16 0-.19.04-.14.18.14.32.25 1.06.18 1.13-.2.2-.63.21-.64.03 0-.16-.02-.15-.09.04-.05.12-.16.25-.25.28-.1.04-.15.19-.14.48.01.22.04.31.06.19s.12-.24.21-.27Zm17.9-.16c.22-.2.52-1.05.52-1.46 0-.19.06-.23.38-.26.62-.05.47-.89-.19-1.03-.35-.08-.47-.29-.29-.5.12-.14.15-.14.3 0 .34.31 1.46.21 1.53-.14.1-.48.3-.6.89-.54.89.09.94-.04.73-1.74-.19-1.54-.17-1.65.45-2.63.36-.57.5-1.46.5-3.14v-1.25l-.29-.2c-.38-.27-.47-.26-.76.07l-.24.27-.01-.29c0-.29 0-.29-.21-.1-.26.23-1.13 1.46-1.52 2.15l-.28.49h.56c1.26 0 2.7 1.21 2.13 1.78-.18.18-.46.14-.53-.07-.17-.55-.99-1.12-1.8-1.25l-.41-.07-.49.73c-1.26 1.86-3.17 3.32-5.25 4.04-.93.32-.74 1.08.77 2.97 1.78 2.23 2.78 2.85 3.51 2.17Zm14.58-.45c.05-.29.11-.35.4-.41.44-.08.39-.64-.05-.64-.06 0-.11-.09-.11-.19 0-.23-.49-.24-.66-.02-.06.08-.28.14-.5.15-.21.01-.5.09-.64.19-.13.09-.3.17-.37.17-.17 0-.16.18.02.36.12.12.18.12.34.02.17-.11.23-.1.34.06.2.27.52.15.37-.13-.12-.23.02-.36.27-.27.12.05.14.16.1.51-.1.7.36.89.49.2Zm1.74-.15c.08-.05.16-.22.17-.37s.04-.56.08-.9l.06-.63h-.4c-.3 0-.43.05-.51.2-.13.24-.4.27-.4.04 0-.08-.04-.12-.1-.09-.23.14-.11.51.18.5.22 0 .28.05.3.28.04.37.22.24.23-.16 0-.32 0-.32.11-.07.17.4.18.88.03 1.04-.22.22-.03.34.25.16Zm-34.42-.28c.02-.08-.11-.12-.37-.12-.23 0-.67-.09-.99-.2-1.19-.41-3.2-.92-3.33-.84-.05.03-.09.01-.09-.04s-.12-.12-.28-.15c-.15-.03-.36-.09-.47-.13-.2-.07-.2-.07-.01.14.19.22 1.13.62 1.44.62.15 0 .15-.02.02-.1-.18-.12-.02-.12.25 0l.2.09-.2.01c-.11.01.27.14.85.3.58.15 1.39.37 1.8.48.73.19 1.1.17 1.18-.06Zm39.55-.04c-.47-.22-.09-.36.81-.3.25.02.27 0 .16-.13-.09-.1-.33-.15-.79-.16-.36-.01-.57-.03-.46-.06.35-.08.43-.26.1-.2-.16.03-.58.09-.93.12-.55.06-.61.09-.5.23.14.16-.16.15-.67-.04-.13-.05-.17-.04-.1.03.06.06.24.15.4.21.16.05.39.13.49.18.14.05.17.04.12-.04-.09-.15-.1-.15.54.08.3.1.66.19.8.19h.25zm-8.33-1.14c0-.14.28-.26.41-.18.05.03.09.12.09.2s.05.14.1.14.1-.05.1-.11c0-.17.32-.38.58-.39.19 0 .21-.03.13-.17-.26-.48-.37-.56-.59-.44-.12.06-.22.08-.22.03s-.11-.07-.25-.04c-.14.02-.25.08-.25.13s.04.08.09.07c.33-.1-.05.47-.41.61-.23.08-.25.07-.2-.14.03-.19-.01-.24-.19-.27-.3-.04-.41-.48-.12-.48.11 0 .24.05.31.12.09.09.12.08.12-.04 0-.09-.05-.18-.11-.2-.07-.02-.06-.13.02-.33.24-.59.21-.98-.05-.76-.08.07-.18.1-.23.09-.24-.08-.57.42-.38.56.11.08.24.12.29.09s.06 0 .04.08c-.03.08-.13.14-.24.14-.42.01-.6.4-.3.67.12.11.12.15-.01.31-.15.16-.14.17.05.17.11 0 .24-.05.28-.11.04-.07.12.02.21.22.21.49.73.51.73.03Zm6-.18c.19-.02.56-.04.81-.05.3 0 .49-.06.52-.15.04-.11-.04-.13-.36-.1-.41.04-.41.04-.14-.09.15-.07.24-.16.21-.2-.04-.04.09-.13.28-.21s.43-.27.52-.41.24-.25.33-.25.14-.03.1-.06c-.08-.08-.86.23-1.07.41-.08.08-.17.13-.2.12s-.33.18-.67.41c-.78.53-.84.53-.28.01.53-.48.52-.61 0-.29-.27.16-.39.2-.44.11-.11-.17-.52.37-.5.65 0 .04-.05.11-.13.16s.03.06.27.02c.22-.03.56-.07.75-.08Zm-8.89-1.65c-.07-.16-.14-.47-.15-.69-.02-.24-.15-.57-.33-.83-.73-1.06-.74-1.29-.09-1.29h.3l-.26-.27c-.14-.16-.32-.39-.41-.52l-.16-.23-.07.37c-.1.56.05 1.7.32 2.39.18.47.84 1.49.92 1.42.02-.03-.01-.18-.07-.35Zm10.22-.39c.12-.11.17-.12.17-.02 0 .08.08.1.28.05.15-.04.68-.07 1.17-.06 1.02 0 1.68-.16.75-.19-.54-.02-.54-.02-.2-.12.78-.22.39-.37-.79-.3-.33.02-.33.02-.17-.23.09-.14.14-.25.1-.25-.03 0 .05-.17.17-.37l.23-.38-.34.24c-.51.35-1.7 1.53-1.64 1.63.03.04.02.08-.03.08-.04 0-.19.1-.33.21l-.25.2.35-.17c.19-.09.43-.23.53-.32Zm-2.91.11c.11-.1.35-.26.54-.38 1.46-.87 1.63-.99 1.83-1.36.12-.21.19-.39.15-.39s.03-.11.16-.25.25-.33.26-.42c.02-.1.11-.23.2-.3.14-.1.15-.13.03-.13-.08 0-.24.07-.35.15-.24.18-.34.19-.34 0 0-.39-.28.04-.45.68-.14.56-.27.8-.56 1.1-.43.43-.63.49-.49.13.05-.13.06-.27.03-.3-.04-.03.04-.18.18-.34.13-.15.17-.21.09-.14-.2.17-.33.15-.26-.05.13-.34-.41.27-.66.73-.2.39-.21.46-.08.55s.13.1 0 .07c-.26-.05-.79.4-.73.62.07.25.2.25.45.03Zm-5.42-.45c0-.07.03-.22.06-.33.04-.15-.03-.27-.26-.44-.4-.29-.51-.2-.19.16.25.28-.25-.04-.91-.58l-.25-.2.25.05c.21.05.21.04-.05-.09-.51-.24-.73-.2-.47.08.23.25.29.47.12.47a.1.1 0 0 1-.1-.1c0-.06-.05-.1-.12-.1-.06 0 .03.14.2.31.18.17.32.34.32.38 0 .03.09.12.2.19.27.17.45.06.28-.16-.08-.1 0-.07.19.06.18.13.35.27.38.32.09.14.35.12.35-.02Zm2.74-.3c.13-.63.08-1.25-.1-1.32-.08-.03-.14-.17-.14-.31 0-.57-.36-.02-.47.72-.06.46.04 1.16.15 1.09.05-.03.14-.01.22.05.23.14.27.11.34-.23Zm-1.68-.71c-.11-.88-.96-2.75-.96-2.08 0 .11-.03.11-.17 0-.22-.18-.12 0 .28.52.15.19.3.48.34.65l.06.29-.15-.32c-.08-.18-.19-.33-.24-.33s-.14-.1-.19-.22c-.11-.23-.1-.04.01.98.04.31.28.73.7 1.22.29.32.4.06.32-.71Zm-34.81.67c-.11-.02-.44-.09-.73-.16-.71-.15-.78-.31-.1-.21 2.49.35 5-.18 6.7-1.44.63-.46.51-.13-.14.4-1.35 1.08-4.15 1.78-5.73 1.41Zm16.19-.96c.11-.72.14-1.53.05-1.31-.04.13-.1.35-.13.5-.02.16-.05.3-.05.32-.01.02-.08-.02-.16-.09-.27-.22-.18-.66.2-1.04s.44-.56.19-.56c-.5 0-.83.63-.91 1.78l-.06.72h.41c.39 0 .41-.02.46-.32Zm21.26-.68c0-.52.03-.7.1-.6.05.08.1.43.1.78 0 .34.04.62.09.62.18 0 .71-.71.71-.95 0-.71-1.75-3.39-2.56-3.91-.19-.12-.06.06.36.53.76.84 1.27 1.64 1.35 2.13.08.43-.03.32-.55-.62-.54-.97-1.84-2.29-1.65-1.68.1.32-.08.22-.4-.22-.35-.48-.69-.74-1.07-.84l-.27-.06.2.54c.11.29.2.73.2.97 0 .52.32 1.18.63 1.27.12.03.32.16.45.28l.23.21-.06-.25c-.04-.14-.24-.6-.45-1.03-.33-.69-.35-.78-.18-.75.11.02.24.17.32.38.07.19.29.77.48 1.28.4 1.08.41 1.09.62.92.19-.16.19-.6 0-1.07-.13-.3-.13-.34-.01-.24.18.15.46.95.46 1.3 0 .14.13.53.3.85.16.33.27.63.24.68-.03.04 0 .17.07.29.18.34.29.05.29-.81Zm-20.09.71c2.45-.84 4.59-2.75 5.63-5.03.57-1.24.5-1.28-.14-.09-1.37 2.57-3.03 4.09-5.33 4.91-.91.32-1.05.39-.86.39.09.01.4-.07.7-.18Zm-2.43-.8c.06-.5.17-1.01.24-1.15.1-.23.07-.3-.33-.75-.54-.6-.52-.6-1.21-.1l-.57.42.21.51c.11.28.32.84.45 1.24l.25.72h.84zm2.37-.25c.54-.76 1.2-2.16 1.02-2.16-.07 0-.18.09-.25.2-.18.29-.32.25-.32-.09 0-.25-.04-.29-.37-.35-.77-.12-.77-.12-.68.47.1.65.1 1.26 0 2-.1.75.02.74.6-.07Zm1.29-.1c1.56-.86 2.7-2 3.59-3.59.26-.47.47-.87.47-.9 0-.02-.21.07-.47.2-.27.13-.72.31-1.01.39-.39.12-.56.23-.67.44-.08.16-.37.51-.63.77s-.55.59-.65.72c-.19.29-.34.22-.17-.08.06-.12.07-.21.02-.21-.04 0-.32.48-.61 1.07-.29.6-.62 1.2-.73 1.36-.27.38-.09.35.86-.17Zm20.73-.19c-.04-.45-.03-.48.09-.32.08.1.14.31.14.47 0 .15.05.28.11.28s.09-.09.06-.2c-.07-.26.01-.25.3.02.26.24.55.17.61-.14.08-.39-1.81-2.13-3-2.77-.8-.42-.82-.43-.58-.15.14.16.29.31.33.33.29.12.78.69 1.06 1.21.43.81.35.98-.11.23-.2-.32-.47-.67-.59-.78l-.23-.2.23.35c.12.19.43.78.69 1.3.28.58.47.88.5.78.05-.25.22-.22.22.03 0 .12.04.18.11.13.07-.04.09-.26.06-.57Zm-31.18-1.48c.44-.16 1.46-.87 1.9-1.33.39-.4.28-.49-.16-.12-.56.47-1.93 1.05-2.53 1.07-.23 0-.23.01-.05.09.19.08.19.09-.02.09-.68.02-1.76.25-1.58.33.27.11 2.02.02 2.44-.13Zm11.34-1.31c.26-.17.52-.39.58-.49.15-.3-.35-.25-.77.07-.22.17-.51.28-.82.31l-.47.04.49-.2c.67-.28.88-.48.55-.55-.5-.1-2.32-.13-2.13-.03.11.05.29.2.42.33l.23.24-.26.1c-.57.22.07.49.85.36.34-.05.39-.04.33.1-.09.25.39.11 1-.28ZM7.22 16.4c.25-.22.71-.77 1.02-1.22l.57-.83-.87-.03c-1.74-.06-3.31 1.21-2.88 2.33.15.37 1.66.2 2.16-.25Zm2.63-.26c1.38-.27 1.66-.38 2.2-.85.61-.54.27-.78-.41-.29-.66.47-1.44.8-1.89.79-.4 0-.4-.01.25-.23.36-.13.88-.37 1.15-.54l.49-.3-.54-.16c-1.05-.31-1.76-.15-2.28.53-.4.51-.46.7-.19.63.21-.05.21-.05-.02.31-.27.44-.36.43 1.24.11Zm14.68-1.02c.8-.4 1.68-1.15 2.28-1.97.34-.46 1.02-1.15 1.24-1.27.19-.1.19-.1.04.08-.24.27-1.4 2.15-1.5 2.41-.13.34-.02.28.17-.09.2-.39 1.88-2.06 2.19-2.18.24-.09.66.07.73.27.02.09-.05.11-.26.07-.17-.03-.38-.01-.49.05-.15.09-.12.1.17.08.48-.03.54.16.08.24-.52.08-1.06.59-.63.59.08 0 .3.13.48.3.39.33.46.3.7-.31.45-1.11-.33-1.99-1.19-1.34-.49.37-.35-.14.19-.67.37-.36.38-.38.16-.38-.42 0-.85.36-1.82 1.53-2.18 2.61-3.89 3.26-6.14 2.32-.66-.28-.27-.41.62-.22 1.03.23 1.26.22 2.05-.13.83-.36.98-.38.45-.04-.29.18-.33.24-.15.19.55-.16 1.28-.63 1.86-1.22.76-.78 2.02-2.31 1.53-1.87-2.12 1.93-4.32 2.42-8.44 1.89-3.57-.45-3.61-.59-.15-.62 1.35-.01 2.7-.06 3-.13.3-.06.84-.15 1.2-.2 1.1-.16 1.6-.31 3-.91.75-.32 1.79-.68 2.33-.8.53-.12.95-.24.93-.26-.14-.15-1.73-.35-3.34-.42-1.85-.09-2.14-.13-1.99-.27.1-.1 3.95-.2 4.18-.12.21.08.25-.02.07-.2-.2-.2.12-.15.35.06.19.16.2.16.14-.01-.06-.16-.05-.16.2 0 .25.17.26.17.15-.03-.47-.88-3.23-2.63-4.15-2.64-.27 0-.99-.16-1.6-.35-2.41-.75-4.48-.74-5.92.03-.55.29-.31.27.44-.04.35-.14.7-.24.78-.22s-.34.22-.95.46c-1.1.44-1.94.93-2.67 1.57l-.4.35.37-.15c.66-.27.65-.16-.02.21-.36.2-.68.41-.72.48-.17.25-.06.24.37-.05 2.82-1.91 7.02-2.88 9.25-2.14.91.3.75.46-.2.2-.98-.26-4.24-.14-4.17.16.01.06-.7.36-1.58.68-3.12 1.12-4.97 2.45-5.71 4.11-.04.08-.21.3-.37.47-.41.44-.28.52.17.13.37-.33.49-.31.19.02-.48.53.98.02 1.68-.59.73-.64.86-.63.33.03l-.39.47.33-.17c.18-.09.75-.56 1.25-1.04a54 54 0 0 1 1.3-1.19c.2-.18.37-.37.37-.42 0-.11 1.7-1.09 2.62-1.51 1.5-.67 4.23-1.12 5.02-.81.46.18.22.25-.72.22-2.04-.06-4.57.84-6.57 2.33-.95.72-2.35 2.06-1.82 1.76.46-.27.59-.21.21.09-.45.35-.15.23.38-.15.55-.41.69-.41.37-.01-.34.44-.13.31.78-.48 1.1-.97 1.3-.97.32 0-1.32 1.3-.44.86 1.01-.5 1.66-1.55 3.29-2.46 4.42-2.45.42.01.27.1-.73.46-1.14.4-2.02.91-2.66 1.51-.32.3-.5.52-.4.49s.55-.15 1-.27c.47-.12 1.52-.54 2.48-1 .91-.43 1.94-.85 2.3-.93l.64-.15-.65.06c-.5.04-.62.03-.54-.06.31-.33 2.14-.15 2.14.2 0 .05.06.09.14.09.17 0 .3.3.13.3-.07.01.05.07.27.15.49.17.73.38.29.26-.17-.05-.73-.15-1.24-.22l-.94-.14.75-.06.75-.05-.67-.02c-1.05-.03-4.47 1.18-4.48 1.58 0 .03.73.06 1.63.08.89.01 2.03.06 2.52.1l.9.08-1.75.07c-2.07.09-3.94.24-4.7.37-.37.07-.56.07-.58 0-.08-.24-.79.05-1.37.56l-.3.26.55-.05c.6-.06 1.46.08 1.56.25.05.07-.01.09-.17.05-.13-.03-.51-.08-.84-.11l-.6-.06.5.15c.27.08.61.15.74.15s.21.03.17.07c-.03.04-1.04.08-2.24.09-1.96.03-2.26.06-3.12.29-.52.14-1.51.36-2.19.5-.68.13-1.4.3-1.6.37l-.36.12.5.07c.28.04 1.13.17 1.9.28 1.33.2 3.12.21 3 .01-.02-.03-.3-.14-.62-.23s-.8-.23-1.08-.32l-.5-.15.8.05c.55.03 1.08.13 1.7.35.5.18 1.19.36 1.55.41 1.01.13 1.18.19.98.3-.25.14-1.37.14-1.83.01-.25-.08-.66-.09-1.1-.05-1.08.11-.29.23 1.66.26 1.31.03 1.61.06 1.84.21.15.1.38.19.51.2.13 0 .24.04.24.09 0 .04.21.07.46.07h.47l-1.09-.71c-.97-.63-1.49-1.07-1.39-1.17.06-.06 1.41.67 2.24 1.21.9.61 1.29.74 1.6.58.29-.16.38-.13.15.05-.48.38 1.38.11 2.29-.34Zm-3.87-.83c-1.14-.17-.79-.26.91-.25 1.3 0 1.86-.04 2.46-.18.94-.21 1.07-.16.34.13-.94.38-2.36.5-3.71.3Zm-10.92-.6c.47-.13 1.51-1.08 1.71-1.56.08-.18.18-.33.23-.33s.18-.12.27-.27l.18-.27-.35.3c-1.85 1.56-1.78 1.51-3.03 1.95l-.8.27.7.01c.39.01.88-.04 1.09-.1Zm21.07-.28c.55-.69-.18-2.01-1.11-2.01-.25 0-.39.04-.35.1.03.05.15.1.25.1.56 0 1.03.87.79 1.45-.3.73-.05.95.42.36Zm-27.17-.62c-.04-.07.1-.26.32-.45.5-.42.4-.52-.58-.6-1-.09-1.11-.05-.96.38.16.48.36.66.77.71.2.02.4.04.44.05.05.01.05-.03.01-.09Zm17.21-.43c-.3-.14-.29-.14.35-.15.36-.01 1.03-.07 1.5-.15.75-.12 1.19-.26 2.6-.81.4-.16.8-.19.8-.06 0 .1-2.2.96-2.83 1.11-.85.18-2.09.22-2.42.06Z"/></svg>