<svg xmlns="http://www.w3.org/2000/svg" width="51" height="51" viewBox="0 0 51 51"><path fill="#fff" fill-rule="evenodd" stroke="#fff" stroke-width=".723" d="M1.97 51.13 0 51.1V0h25.6c17 0 25.6.03 25.6.1s-2.54.1-7.42.1h-7.42l.45.29c.56.35.99.86 1.44 1.73.2.37.42.68.5.68.22 0 .27.18.15.53-.1.28-.05.56.43 2.37.31 1.13.72 2.7.92 3.5.27 1.07.43 1.52.61 1.71.28.29.29.37.1.58-.13.14-.1.32.25 1.46.21.72.82 2.94 1.35 4.95 1.04 3.99 3.81 14.38 5.86 22 1.69 6.32 1.68 6.25 1.68 6.95 0 1.51-.77 2.96-1.98 3.75-.21.14-.08.15 1.42.11 1.47-.03 1.66-.01 1.66.13 0 .15-1.99.16-23.12.16-12.72 0-23.35.02-23.63.03-.28.02-1.39.02-2.48 0Zm1.07-.57c-.67-.46-1.48-1.54-1.75-2.35-.28-.82-.22-1.65.21-3.11.33-1.13 3.79-14.01 5.94-22.1.41-1.57 1.27-4.79 1.91-7.15.63-2.37 1.54-5.76 2.01-7.55 1.78-6.75 1.89-7.03 3.13-7.82l.45-.28H.23L.16 3.72C.13 5.66.1 17.07.11 29.08V50.9h3.44zm44.93-.04c.96-.62 1.62-1.63 1.84-2.85.16-.86.07-1.31-1.11-5.67-1.29-4.73-5.55-20.71-6.4-24-.79-3.03-1.58-5.81-1.69-5.92-.04-.04-1.31 1.31-2.83 3s-3.03 3.36-3.35 3.71l-.58.63-1.47-.73c-.81-.4-1.49-.71-1.51-.69-.04.06-2.82 5.1-4.27 7.75-.51.94-1.75 3.19-2.75 5-2.71 4.9-4.97 8.99-5.98 10.85-1.8 3.3-3.39 6.15-3.47 6.23-.07.08-1.4-.48-1.4-.59 0-.03.24-.46.54-.97.29-.51 1.24-2.22 2.11-3.82.87-1.59 2.37-4.34 3.35-6.1 2.13-3.85 4.89-8.88 7.9-14.35 1.22-2.23 2.32-4.22 2.44-4.42.11-.2.18-.39.16-.41-.03-.02-.75-.41-1.6-.86-.85-.46-1.6-.88-1.67-.94-.09-.09.12-1.08.96-4.37 1.49-5.85 1.54-6.02 1.68-6.07.1-.04 4.94 2.36 5.63 2.8.11.06.21.09.23.07.06-.06 1.32-2.38 2.17-3.99l.65-1.22.33.05c.39.06.39.05.05-.53-.44-.78-.79-1.15-1.39-1.51l-.58-.35-9.81-.03C15.46.18 15.35.19 14.54.73c-1.07.71-1.19 1-2.88 7.37-.63 2.39-1.62 6.11-2.2 8.25-.57 2.15-1.37 5.12-1.76 6.6-.84 3.14-2.18 8.18-3.2 11.95-.39 1.46-1.09 4.09-1.57 5.85-.47 1.76-1.01 3.74-1.2 4.4-.48 1.64-.49 2.45-.05 3.38.38.83 1.25 1.77 1.95 2.12l.51.25 21.66-.02 21.65-.03zM15.5 45.44c.64-1.15 1.85-3.35 2.7-4.89.84-1.54 2.48-4.51 3.63-6.6 1.16-2.09 2.96-5.37 4.02-7.3 1.05-1.92 2.59-4.72 3.41-6.22s1.55-2.72 1.62-2.73c.06 0 .76.32 1.54.72l1.41.72.21-.26c.12-.14.78-.88 1.47-1.64.69-.77 2.11-2.33 3.14-3.49s1.97-2.17 2.08-2.26c.19-.15.08-.22-2.29-1.43-1.37-.71-2.53-1.32-2.58-1.36-.09-.09.36-.94 2.07-3.98.73-1.29.84-1.54.69-1.58-.09-.03-.32-.12-.51-.2-.42-.19-.29-.36-1.62 2.11-.62 1.16-1.24 2.31-1.38 2.57s-.3.48-.35.48-1.24-.6-2.65-1.33c-2.69-1.39-3.11-1.6-3.17-1.54-.18.18-2.53 9.92-2.42 10.02.07.07.84.5 1.71.95 1.66.86 1.67.88 1.39 1.35-.1.16-1.35 2.41-2.77 5-3.64 6.64-6.09 11.08-8.2 14.9-1 1.82-2.5 4.55-3.33 6.07-.84 1.53-1.63 2.96-1.77 3.19-.15.22-.25.42-.23.44.13.11.85.44.92.41.06-.01.62-.97 1.26-2.12Zm-1.7 1.79c0-.05.1-.24.21-.43.32-.51 1.87-3.29 2.49-4.45.29-.55 1.22-2.24 2.05-3.75.84-1.51 2.26-4.08 3.15-5.7.9-1.62 2.08-3.76 2.63-4.75.54-.99 1.33-2.43 1.74-3.2.42-.77 1.03-1.89 1.38-2.5.34-.61 1.08-1.94 1.64-2.98 1-1.82 1.4-2.45 1.41-2.2 0 .07-.15.38-.34.7-.38.66-1.69 3.03-4.59 8.33-1.09 2.01-2.25 4.1-2.57 4.65-.31.55-1.01 1.81-1.55 2.8s-1.8 3.29-2.8 5.1-2.26 4.11-2.8 5.1c-1.48 2.73-2.05 3.65-2.05 3.28Zm26.5-36.75c-.05-.18-.43-1.66-.85-3.28-.88-3.37-.82-3.21-1.05-2.84-.61 1.01-2.32 4.15-2.28 4.19.03.04 4.17 2.22 4.25 2.24.01.01-.02-.14-.07-.31Zm-5.1-2.05c0-.05 1.7-3.18 2.68-4.93.47-.82.34-.21-.13.67-1.65 3.09-2.55 4.58-2.55 4.26Z"/></svg>