<svg xmlns="http://www.w3.org/2000/svg" width="51" height="51" viewBox="0 0 51 51"><path fill="#fff" fill-rule="evenodd" stroke="#fff" stroke-width=".672" d="M12.15 44.6c-2.86-.21-4.75-1.69-5.5-4.35-.16-.54-.18-1.64-.24-11.45-.1-18.02-.1-17.72.18-18.58.74-2.27 2.54-3.68 4.98-3.9 1.95-.18 28.72.02 29.33.22 1.86.6 3.2 2.05 3.77 4.06.27.98.28 28.35.01 29.42-.57 2.21-2.2 3.86-4.39 4.45-.7.18-25.7.3-28.14.13Zm27.25-.31c2.53-.31 4.23-1.72 4.97-4.14.28-.93.28-28.67 0-29.59-.57-1.84-1.67-3.05-3.33-3.68l-.59-.23-9.47-.03-9.48-.03v.65c0 .49.04.65.16.7.09.03 4.06.06 8.83.06 5.46 0 8.88.04 9.22.1 1.58.3 2.93 1.68 3.34 3.41.22.95.22 26.58 0 27.63-.39 1.85-1.47 3.11-3.18 3.7-.81.27-26.26.39-27.81.13-1.57-.27-2.71-1.08-3.36-2.37-.6-1.19-.6-1.11-.6-10.57V21.4H6.82l-.06.83c-.1 1.25-.05 16.31.06 17.19.33 2.75 2.18 4.59 4.91 4.88 1.16.12 26.69.12 27.67-.01Zm-.09-1.63c1.78-.38 3.03-1.61 3.43-3.37.24-1.02.25-26.98.02-27.83-.51-1.84-1.83-2.97-3.71-3.16-.49-.05-4.65-.09-9.24-.1h-8.34l.07.62c.04.35.09.84.13 1.11l.06.47-2.64 2.65c-1.44 1.46-2.68 2.65-2.73 2.65-.06 0-1.55-1.44-3.31-3.19l-3.2-3.2-.3.24-.29.24.79.82c.44.45 1.9 1.91 3.24 3.25l2.45 2.42-1.99 2.06c-1.09 1.13-2.31 2.36-2.71 2.72l-.74.65-.52-.1c-.29-.05-.72-.12-.95-.15l-.43-.06v.92c-.04 8.99.02 16.41.15 17.01.36 1.74 1.55 2.94 3.29 3.32.93.2 26.52.21 27.47.01Zm-16.36-4.41c-5.28-.98-9.5-5.18-10.56-10.5-.15-.74-.2-4.63-.07-5.21.06-.29.05-.31-.38-.42-.29-.08-.44-.17-.44-.28 0-.09.93-1.11 2.07-2.27 1.13-1.17 2.21-2.28 2.39-2.47l.34-.34.32.31c.19.17.4.28.48.25s.26-.09.39-.14l.23-.08-.36-.41c-.45-.49-.65-.21 2.03-2.91 2.3-2.33 2.49-2.47 2.7-2.02.07.17.17.24.26.2.93-.35 4.51-.43 5.95-.13 9.54 2.02 13.79 12.41 8.43 20.65-1.78 2.75-4.79 4.77-8.43 5.68-.94.23-4.28.29-5.35.09Zm4.77-.31a13.21 13.21 0 0 0 10.38-8.82c2.58-7.76-2.23-15.75-10.29-17.07-1.62-.27-5.41-.08-5.41.27 0 .12.53 1.16 1.22 2.37.52.93.68 1.45.37 1.26-.05-.04-1.46-.1-3.12-.15-2.96-.07-3.02-.07-3.25.13-.28.26-.27.35.08.76l.29.34.58-.12c2.95-.6 5.96.05 7.58 1.65 1.74 1.7 1.58 3.97-.28 4.12-.69.05-1.04-.19-1.8-1.26-.99-1.4-1.85-1.86-3.42-1.86-.49 0-1.03.03-1.19.07l-.29.08.41.42c.39.39.53.67.35.67-.05 0-.29-.23-.54-.52l-.46-.52-.55.27c-1.57.77-2.32 2.41-2.33 5.07-.01 4.88 2.98 6.8 7.68 4.93l.87-.35v-2.47l-1.81-.03-1.81-.03-.29-.33c-.52-.58-.34-1.76.33-2.14.17-.1.88-.13 2.93-.13 3.07 0 3.24.04 3.73.78l.27.41v2.4c0 3.11-.04 3.21-1.8 4.09-4.73 2.36-10.19 1.48-12.5-2.02-.41-.62-.41-.43.01.5 2.36 5.29 8.06 8.21 14.06 7.23Zm-4.75-4.88c.98-.21 1.81-.5 2.82-.97 1.85-.86 1.9-.98 1.91-3.94 0-3.38.1-3.29-3.6-3.33-3.18-.03-3.59.11-3.46 1.21.09.78.23.83 2.26.9.98.03 1.84.08 1.89.12.07.04.11.57.11 1.41v1.35l-.62.28c-5.13 2.32-8.86-.06-8.54-5.44.21-3.66 1.94-5.45 5.15-5.33 1.61.05 2.49.57 3.51 2.08.69 1.02 1.32 1.26 2.08.8 1.37-.84.3-3.35-1.88-4.42-1.26-.62-1.82-.73-3.75-.73-3.74 0-6.11 1.28-7.41 4-1.17 2.44-1.11 6.11.14 8.5 1.49 2.85 5.5 4.35 9.39 3.51Zm8.12-.62c-1.15-.35-2.09-1.7-2.09-3 0-2.94 3.42-4.33 5.39-2.19 2.21 2.4-.18 6.16-3.3 5.19Zm2.16-.38c1.84-.87 2.3-3.11.94-4.6-1.78-1.95-4.92-.74-4.92 1.89-.01 2.14 2.12 3.59 3.98 2.71ZM12.8 21.87c0-.17.65-1.51.92-1.91.11-.17-.27.16-.85.73-.59.58-1.05 1.06-1.03 1.08.23.23.96.31.96.1Zm-1.7-1.26c.47-.43 1.61-1.58 2.54-2.55l1.69-1.77-3.09-3.1-3.09-3.1-.22.28c-.49.6-.52.87-.59 5.95l-.07 4.77.34.05c.19.03.59.1.89.15s.6.09.65.1c.06 0 .49-.34.95-.78ZM8.05 16.3c.07-5.07.08-5.15.61-6.06l.24-.4-.58-.57c-.69-.68-.64-.68-.97-.12-.74 1.27-.87 2.92-.7 9.23l.07 2.73.64-.03.63-.03zm15.35-1.42c-.23-.4-.68-1.27-1.01-1.92l-.61-1.19-1.79 1.79c-.98.98-1.79 1.82-1.79 1.86s.98.09 2.18.11c1.19.01 2.45.03 2.8.05l.63.02zm-2.04-5.15c-.04-.32-.09-.79-.12-1.05l-.06-.48h-4.47c-3.64 0-4.57.03-5.04.15-.61.16-1.57.6-1.57.73 0 .04 1.41 1.48 3.13 3.2l3.12 3.12 2.54-2.54 2.53-2.55zM9.43 9.32l.27-.28-.63-.62-.63-.62-.29.3-.29.3.59.6c.69.7.64.68.98.32Zm1.1-.82c1.01-.55 1.47-.6 6.28-.6h4.37l.04-.62c.03-.35.04-.64.04-.65-.01-.01-2.25-.04-4.96-.05-5.43-.03-5.64-.01-6.83.58-.85.43-.85.4-.2 1.06.67.68.56.66 1.26.28Z"/></svg>