<svg xmlns="http://www.w3.org/2000/svg" width="51" height="51" viewBox="0 0 51 51"><path fill="#fff" fill-rule="evenodd" stroke="#fff" stroke-width=".768" d="M3.71 51.1c-1.8-.43-3.49-2.2-3.66-3.86-.05-.48-.05-.47.09.12.41 1.76 1.66 3.03 3.56 3.6.71.22.72.31.01.14Zm43.34.01c2.06-.46 3.48-1.82 3.95-3.79.07-.29.14-.51.17-.48.09.08-.26 1.25-.53 1.78-.61 1.2-2.28 2.41-3.49 2.53-.48.04-.48.04-.1-.04ZM.05 26.3c0-11.14.01-15.69.02-10.12.02 5.56.02 14.68 0 20.25C.06 41.99.05 37.44.05 26.3Zm10.6 15.18c-.03-.07-.04-7.22-.03-15.88l.03-15.75h6.4l.03 12.88.02 12.87h8.39c4.62 0 8.46-.03 8.55-.06.12-.05.16-.21.16-.7v-.64H18.6l.02-3.02.03-3.03h21.9v13.4l-14.93.03c-11.89.02-14.94 0-14.97-.1Zm29.65-1.9c0-.95.03-3.86.07-6.46l.06-4.72H18.8v5.5l7.78.02 7.77.03.03.93.03.92-8.78-.02-8.78-.03-.03-12.87L16.8 10h-5.9v31.3h29.4zM18.6 22.3v-3.9h6.3v7.8h-6.3zm7.75 3.78c-.03-.07-.04-1.82-.03-3.88l.03-3.75 3.08-.05c1.7-.03 3.13-.02 3.18.01s.08 1.65.07 3.9l-.03 3.84-3.13.03c-2.45.02-3.14 0-3.17-.1Zm7.9 0c-.03-.07-.04-3.75-.03-8.18l.03-8.05 3.18-.03 3.17-.02v16.4h-3.15c-2.43 0-3.17-.03-3.2-.12Zm-4.29-.18h2.44v-7.3h-5.8v7.43l.46-.07c.26-.03 1.56-.06 2.9-.06Zm10.33-.06c.03-.03.07-3.6.09-7.94l.05-7.9H34.5v15.95l2.87-.03c1.59-.02 2.9-.06 2.92-.08ZM24.7 22.25V18.6h-5.9v7.3h5.9zM51.02 3.83C50.67 2.14 49.38.77 47.6.19c-.3-.1-.47-.18-.38-.18.48-.02 1.55.5 2.3 1.12.84.68 1.79 2.48 1.66 3.14-.02.09-.09-.1-.16-.44ZM.05 3.8C.29 2.19 2.35.19 3.9.06c.25-.02.36-.02.25.01A5.3 5.3 0 0 0 .18 3.58c-.13.39-.17.46-.13.22ZM9.73.03c2.51-.02 6.63-.02 9.15 0 2.51.01.45.02-4.58.02S7.21.04 9.73.03Z"/></svg>