<svg xmlns="http://www.w3.org/2000/svg" width="51" height="51" viewBox="0 0 51 51"><path fill="#fff" fill-rule="evenodd" stroke="#fff" stroke-width=".509" d="M4.3 51.15c0-.04.06-.13.14-.19s1.27-1.03 2.65-2.15l2.51-2.04-.3-.34c-.39-.43-.86-1.37-1.01-1.99-.06-.27-.15-.53-.2-.58-.08-.09-1.66.87-5.22 3.21C.59 48.57.3 48.74.3 48.65c0-.07 3.45-2.34 5.94-3.92l1.79-1.13.01-1.3c.01-.71-.01-1.3-.04-1.3s-.82.3-1.75.66C2.64 43.06.07 44 .02 43.95c-.08-.07-.04-.09.68-.34 1.62-.57 7.26-2.75 7.36-2.85.25-.24.54-2.86.32-2.86s-6.62.98-7.49 1.15c-.71.13-1.03.14-.88.01.06-.05 2.95-.52 5.64-.91 1.32-.19 2.5-.38 2.63-.4.2-.05.22-.11.22-.71v-.65l-.67.06c-.38.03-2.05.17-3.73.3-1.68.14-3.3.27-3.6.3-.39.04-.49.02-.35-.04.2-.1 3.52-.41 6.61-.62l1.71-.12.06-.7c.05-.55.02-.84-.15-1.38l-.22-.69H7.02c-1.08 0-6.3.26-6.8.34-.12.02-.22 0-.22-.04 0-.11 2.42-.28 6.53-.46.86-.03 1.57-.07 1.57-.08 0 0-.09-.33-.2-.71s-.2-.82-.2-.97c0-.23-.05-.27-.37-.32-.83-.13-2.5-.25-4.83-.37-2.33-.11-2.59-.13-2.49-.23.06-.07 5.18.21 6.42.35 1.28.14 1.13.27 1.2-1.02l.07-1.07-1.83-.51c-1.94-.54-3.3-.86-4.89-1.16-.54-.1-.98-.22-.98-.27s.1-.06.23-.03c.12.03.9.18 1.73.35s2.41.55 3.5.86c1.1.31 2.05.57 2.12.57.15.02.67-1.82.54-1.94-.04-.04-1.85-.78-4.02-1.64-2.17-.87-3.99-1.62-4.05-1.67-.16-.16.03-.09 4.25 1.6l3.95 1.59.3-.56c.17-.31.43-.74.57-.95.33-.48.59-.25-2.22-1.86C3.66 21.46 0 19.26 0 19.16c0-.04.12-.01.26.09 1.15.75 9.08 5.35 9.23 5.35.04 0 .16-.1.27-.21.1-.12.47-.43.82-.7l.63-.48-2-1.42c-1.11-.78-1.99-1.45-1.96-1.47.02-.02.9.57 1.96 1.33 1.05.75 1.97 1.39 2.04 1.42.07.02.53-.22 1.02-.53.48-.32.89-.59.91-.6s-.5-.55-1.15-1.19l-1.18-1.18-.03 1.07c-.03 1.22-.03 1.21-.62.6-.81-.82-1.26-.99-2.62-.98-1.09.02-1.57-.11-1.06-.28.07-.03-.67-.63-1.63-1.35-.97-.71-2.4-1.81-3.19-2.42C.91 15.59.19 15.05.11 15c-.09-.05-.13-.11-.1-.15.04-.03.62.38 1.29.91 1.55 1.22 5.21 3.95 5.38 4.02.53.2 1.47-1.49 1.47-2.65v-.83l-4.1-4.12C1.79 9.92.02 8.12.1 8.18s1.9 1.85 4.05 3.97c2.14 2.12 3.91 3.81 3.93 3.75.07-.19.21-.1.38.25.38.8 1.57 1.37 2.84 1.35.41-.01.81-.01.89-.01.07.01-.16.32-.53.71-.99 1.06-1 1 .4 2.41.65.65 1.23 1.19 1.28 1.19.16 0 1.96-.95 1.94-1.02-.03-.06-2.32-2.88-2.84-3.48-.67-.77-1.52-1.86-1.48-1.89.02-.02.05-.02.07 0 .01.02.57.69 1.23 1.49s1.65 2 2.2 2.66c1.09 1.33 1.02 1.29 1.65.79l.26-.19-.34-.45c-.19-.24-.5-.75-.69-1.12-.32-.64-.36-.68-.71-.71-.32-.03-.45-.13-1-.78-.36-.41-1.09-1.24-1.63-1.85s-2.05-2.41-3.36-4-3.46-4.2-4.79-5.8C1.09 2.14-.05.71.02.65c.02-.03.22.19.44.48.21.28 1.49 1.85 2.84 3.47s3.71 4.48 5.24 6.35c2.82 3.43 3.92 4.69 3.82 4.37-.15-.5-.16-.7-.06-.97.06-.16.16-.33.22-.36.08-.05.02-.32-.19-.86-.17-.43-.37-.97-.44-1.2-.08-.28-.19-.45-.33-.49-.65-.19-1.21-.8-.65-.72.6.09.95-1.05.36-1.16-.34-.06-.65-.33-.86-.73-.2-.4-.11-.45.24-.14.37.32.51.36.73.22.15-.09-1.21-2.31-3.88-6.31C5.78.02 5.69-.13 5.93.1c.29.29 4.19 6.22 5.17 7.88.53.89.51.89.79-.05.22-.76.25-.8 1.28-1.82l1.05-1.03-.45-1.07c-.25-.58-.75-1.72-1.11-2.53C12.31.66 12.04 0 12.08 0c.07 0 .56 1.08 1.7 3.75.31.72.57 1.31.58 1.33 0 .01.3-.11.65-.27.77-.34 1.42-.5 2.65-.65l.93-.11-.75-1.95c-.7-1.84-.9-2.47-.6-1.9.07.14.43 1.07.81 2.07l.68 1.81.71.07c1.73.18 3.15.87 4.59 2.24.27.26.47.39.47.31 0-.22-.26-1.7-.69-3.95C23.34.31 23.29 0 23.4 0c.04 0 .11.28.15.62.04.35.22 1.4.41 2.33.19.94.43 2.23.54 2.87.13.75.31 1.39.5 1.8.17.35.33.84.36 1.1.04.27.15.54.25.64.23.21.24.67.03 1.25-.1.27-.17.86-.19 1.54-.02.61-.06 2.04-.09 3.2-.04 1.15-.11 2.27-.17 2.48-.12.46-.14.43.34.52l.38.07-.08-.38c-.31-1.49.03-3.71.73-4.75l.32-.48.07-5.23c.04-2.88.1-5.77.14-6.43.12-1.94.12-.38 0 5-.06 2.73-.07 5.24-.02 5.66l.08.77.62-.57.61-.56.22-1.45c.11-.8.39-2.24.6-3.2s.46-2.18.55-2.7c.31-1.83.83-4.15.92-4.07.02.03-.09.67-.26 1.44-.16.76-.46 2.19-.65 3.18s-.47 2.34-.61 3c-.24 1.08-.66 3.67-.61 3.72.01.02.34-.13.72-.32.98-.48 2.03-.75 2.97-.75.92 0 .74.27 1.54-2.35C34.91 4.17 36.25 0 36.32 0c.08 0 .11-.13-.8 2.75-.39 1.21-1 3.17-1.36 4.35s-.73 2.39-.83 2.67c-.21.65-.27.61.98.73 1.33.14 1.61.22 2.33.65.33.2.63.32.67.28.03-.04 1.36-2.64 2.94-5.76C41.83 2.54 43.14.01 43.17.04s-1.26 2.63-2.86 5.79l-2.91 5.75.82.65c.95.74 1.56 1.36 1.89 1.95.31.53.22.59 1.09-.65 4-5.68 10-13.53 10-13.07 0 .05-.34.5-.76.99-2.27 2.68-9.94 13.02-9.94 13.41 0 .07.05.25.1.4.36.95.31 2.38-.16 4.47-.14.61-.23 1.22-.21 1.35.02.12 0 .25-.04.28-.2.12.04 2.71.24 2.67.24-.05 8.35-5.83 9.95-7.09.45-.36.82-.61.82-.56 0 .2-3.38 2.7-7.94 5.87-2.43 1.7-2.86 2.03-2.81 2.2.03.11.09.75.12 1.41l.06 1.21 2.51-1.28c3.11-1.59 7.76-3.81 7.88-3.77.05.02-.85.48-1.99 1.02-2.34 1.11-7.1 3.5-7.91 3.96l-.52.3v.56c0 .3-.05.75-.11 1-.1.37-.09.48.03.62.08.09.18.24.21.34.03.09.19.19.36.23s.63.28 1.03.54l.73.47 1-.18c.55-.1 2.28-.41 3.85-.68s2.97-.53 3.13-.56c.15-.03.27-.02.27.03s-.46.17-1.02.26c-2.7.46-6.84 1.19-6.97 1.23-.11.04-.1.09.06.27.41.45.66.91.88 1.55.21.62.25.67.51.66 1.04-.04 5.48-.25 5.92-.28.28-.03.52-.01.52.03s-1.18.13-2.62.19c-1.45.07-2.96.15-3.35.19l-.73.06v3.27h.48c.92 0 6.27.22 6.31.26.11.11-.18.12-1.84.04-3.61-.17-4.9-.15-4.88.06.01.11.05.76.08 1.46l.07 1.28 3.26 1.07c1.79.59 3.21 1.08 3.15 1.1s-1.53-.43-3.28-1.01l-3.17-1.04.07.86c.03.48.07 1.04.07 1.25.01.36.04.39.87.89 1.18.7 3.91 2.51 3.87 2.56-.03.02-.6-.34-1.28-.79-.67-.46-1.7-1.11-2.28-1.45l-1.05-.63-.03.57c-.02.31-.01.94.03 1.39l.07.82.81.52c3.64 2.33 5.52 3.58 5.46 3.63-.02.03-.76-.43-1.64-1C47.27 47.5 44.92 46 44.87 46c-.03 0-.08.37-.12.83-.21 2.62-.55 3.25-1.88 3.48-1.78.31-3.24.08-5.26-.8-.5-.23-.96-.41-1.01-.41-.06 0-.1.45-.1 1.05 0 .88-.02 1.05-.16 1.05-.13 0-.15-.17-.13-1.16l.01-1.16-.83-.47c-.46-.26-1.38-.81-2.04-1.21-1.75-1.07-3.81-2.05-3.6-1.7.09.15-.2.72-.51 1.02-.39.36-.92.54-2.53.84-.74.13-1.37.27-1.4.31-.13.13 2.25-.06 2.61-.21.79-.34 1.68-.1 1.68.45 0 .25-.44.74-.79.88-.21.09-.27.18-.24.32.19.73-.45 1.19-1.66 1.19-.53 0-1.36.07-1.86.16-1.75.29-3.77.39-4.62.21-.3-.06-.32-.04-.36.26l-.04.32-.01-.31-.02-.32-1.45-.36c-1.86-.46-1.72-.49-1.8.29-.05.47-.11.65-.22.65-.12 0-.13-.12-.07-.69l.06-.7-.28-.07c-2.31-.55-4.3-1.33-5.62-2.21l-.94-.63-.42.33c-.22.18-1.38 1.11-2.56 2.07-2.61 2.1-2.4 1.94-2.4 1.85Zm19.97-.91c.92-.14 2.1-.27 2.61-.28.81-.03.96-.06 1.17-.26.35-.33.33-.54-.02-.45-1.06.29-3.13.36-3.13.11 0-.1.31-.14 1.35-.19 1.39-.05 2.46-.43 2.96-1.03.38-.46-.36-.66-1.29-.35-1.12.38-3.02.26-3.02-.18 0-.24.04-.25 1.5-.51 2.16-.38 2.6-.56 2.92-1.2.37-.72-.19-.91-1.16-.4-.81.43-3.52.73-3.14.34.04-.03.61-.12 1.28-.2.98-.11 1.32-.2 1.78-.44.31-.16.67-.3.79-.3.2 0 .17-.08-.34-.68l-.56-.68-.56.28c-.31.16-1 .48-1.54.73l-.99.44.07.32c.07.29.06.3-.15.19-.6-.32-.15-.78 1.5-1.5 1.36-.59 1.45-.67 1.35-1.1-.1-.46-.16-.46-2.06.15-2.24.73-2.81.8-3.03.37-.37-.71.22-1.71 1.1-1.88.36-.07.94-.55.94-.79s-.3-.24-1.27 0c-1.61.41-2.29.96-3.34 2.7-.71 1.2-1.82 2.35-2.26 2.35-.05 0-1.08-.56-2.28-1.25-1.21-.69-2.37-1.31-2.57-1.37-.38-.11-.53-.38-.2-.38.09.01.42.11.72.25l.55.23.06-1.91c.04-1.45.13-2.4.37-3.89.18-1.08.32-2.06.32-2.16 0-.17-.12-.21-.97-.3-1.33-.15-4.72-.36-4.78-.3-.03.03-.1 1.11-.15 2.39-.05 1.33-.16 2.75-.26 3.29-.88 4.92 1.07 7.34 7.11 8.83 5.69 1.41 5.9 1.43 8.62 1.01Zm19.06-.34c.63-.19.89-.84 1.07-2.73.1-1.06.07-2.1-.21-6.82-.05-.99-.14-2.92-.18-4.3-.09-2.73-.17-3.15-.72-3.98-.53-.8-2.52-2.08-2.8-1.8-.13.13-.37 1.76-.54 3.59-.18 2.06-.18 1.95-.02 1.91.15-.03.15 0-.03.93-.41 2.09-.08 7.71.51 8.66.22.36.06.51-.21.19-.18-.22-1.43-.67-3.55-1.28-1.05-.31-2.21-.67-2.58-.81-.89-.33-2.45-.76-2.78-.76-.41 0-.48-.18-.7-1.76-.32-2.34-.32-2.35-.15-2.94.39-1.3.04-2.67-1.02-4.03-.6-.76-.62-.67-.07.29.64 1.13.86 1.77.92 2.7.09 1.28-.25 1.24-.77-.09-.29-.75-.8-1.8-.85-1.75-.1.1.55 2.15.85 2.65.16.27.17.33.05.33-.21 0-.67-.96-1.1-2.3-.43-1.29-.9-2.4-1.03-2.4-.29 0-.17.54.47 2.15.27.66.51 1.4.55 1.66.04.25.15.73.26 1.08.24.8-.02.85-.29.05-.16-.49-1.04-1.84-1.2-1.84-.2 0-.18.16.1.56.5.74.69 1.24.69 1.9 0 .34.09.92.21 1.29.19.63.19.9 0 .69-.18-.19-.41-1.12-.5-1.96-.08-.86-.29-1.38-.68-1.69-.15-.12-.16-.12-.09.06.15.4.26 1.19.26 1.89 0 .45.09 1.03.24 1.56.13.47.31 1.16.39 1.53.18.75.33 1 1.15 1.95.35.41.69.69.96.8.9.36 2.24 1.06 3.64 1.91 4.09 2.46 5.84 3.14 8.02 3.07.74-.02 1.52-.09 1.73-.16Zm-25.24-4.72c.05-.13.15-.59.21-1.03.49-3.32 1.76-9 2.46-10.91.25-.71.61-1.86.8-2.55.39-1.54.58-1.91 1.21-2.5.49-.46 1.4-.89 1.88-.89.14 0 .25-.04.25-.1s.18-.1.4-.1c.33 0 .4-.04.45-.22.17-.82.38-6.49.27-7.48-.07-.64-.07-.65-.4-.68l-.32-.03.25.47c.28.53.35 1.95.14 2.96-.75 3.56-6.61 5.46-8.84 2.86-.71-.83-1.25-2.23-1.25-3.25 0-.63.02-.62-.45-.17-.62.58-3.02 2.12-4.22 2.71-1.51.73-2.03 1.39-2.56 3.23-.59 2.02-.59 3.46 0 5.56l.37 1.31 2.16.12c1.18.07 2.57.18 3.07.25 1.01.13 1.03.13 1.03-.43 0-.45-2.29-1.42-3.93-1.66-.42-.07-.7-.35-.34-.35.56 0 3.06.76 3.73 1.14.41.23.44.23.44.06 0-.2-.39-.55-1.7-1.48-1.12-.81-1.56-1.19-1.48-1.27.04-.04.51.24 1.05.62 1.99 1.41 2.1 1.48 1.83 1.18-.14-.15-.56-.51-.95-.81-1.09-.84-1.3-1.03-1.22-1.1.03-.04.5.26 1.04.66l.97.74-.35-.5c-1.66-2.27-2.02-2.87-2.77-4.56-.68-1.54-.77-1.78-.64-1.78.05 0 .33.55.62 1.23.63 1.48.93 1.98 2.32 3.92 2.79 3.88 3.69 7.13 3.52 12.65l-.07 2.16.24.11c.39.19.68.15.78-.09Zm21.76-.45c-.04-.16-.15-.75-.24-1.32-.17-1.02-.18-1.05-.48-1.18l-.31-.12-.21.59c-.21.56-.21.62-.06.88.08.15.21.45.28.66.12.35.59.68 1.06.75.02.01 0-.11-.04-.26Zm-23.04-1.55c.01-2.08-.02-3.82-.06-3.86-.01-.02-.31.17-.66.41s-.9.58-1.22.76l-.58.33.03 1.36.03 1.35 1.15.69c.63.37 1.18.68 1.23.68.04 0 .07-.78.08-1.72Zm2.75.39c.22-.39.57-.96.79-1.26.37-.51.4-.6.34-.96-.28-1.52.47-3.64 2.82-8 1.08-1.99 1.64-3.84 1.57-5.15l-.03-.55-.46.01c-1.34.05-2.2.98-2.69 2.93-.17.68-.53 1.85-.81 2.59-.58 1.59-.84 2.56-1.39 5.27-.48 2.38-1.2 6.18-1.2 6.36 0 .26.68-.54 1.06-1.24Zm18.09.22c.64-.77 1.15-2.39 1.35-4.29.05-.58.17-1.43.25-1.9s.23-1.89.35-3.15c.23-2.67.36-3.62.56-4.17.08-.22.14-.42.14-.43 0-.02-.3-.08-.66-.15-.79-.15-.8-.15-.89.84-.32 3.42-1.54 7.82-2.18 7.87-.07 0-.37 0-.67-.01-1.55-.03-3.79.71-4.91 1.62-.15.11-.09 1.33.11 2.36 0 .01.12.02.26.02.36 0 1.65.34 2.61.69.85.32 3.09 1 3.3 1.01.06 0 .23-.14.38-.31Zm-11.93-1.11c1.91-.6 1.83-.51 1.48-1.6-.13-.38-.24-1.13-.3-1.91-.1-1.45-.2-1.69-.84-2.1-1-.63-1.6-.71-1.8-.22-.16.38-.6 2.3-.71 3.06l-.06.47.46-.1c1.25-.27 1.19 1.18-.06 1.52-.43.12-.49.3-.28 1.03.13.48.11.48 2.11-.15Zm-4.37-3.2c.16-.64.34-1.07 1.48-3.56.69-1.51 1.44-2.95 2.62-5.07 1.29-2.3 1.61-3.58 1.45-5.75-.05-.69-.1-1.41-.11-1.6-.02-.19-.06.55-.09 1.65-.07 2.17-.17 3.05-.33 3.05-.06 0-.08-.26-.03-.72.03-.4.09-1.62.13-2.7.03-1.09.1-1.98.15-1.98s.06-.19.03-.43c-.04-.24-.1-.86-.14-1.38-.07-.93-.07-.91-.14.91-.08 1.75-.17 3.3-.37 5.9-.12 1.58-.46 2.42-2.99 7.2-1.57 2.98-2.02 4.24-2 5.65l.02.7.08-.62c.04-.35.15-.91.24-1.25Zm-5.17-.19c.47-.35.47-.36.44-.9-.04-.73-.08-.75-.93-.34-.4.19-.79.35-.86.35-.18 0-.23.13-.34.82-.05.35-.12.76-.15.92l-.06.29.71-.39c.4-.21.93-.55 1.19-.75Zm6.78-.51c.23-1.34.55-2.15 1.61-4.07 2.12-3.81 2.68-5.5 2.8-8.31.04-1.11.02-1.53-.08-1.78-.13-.3-.14-.18-.14 1.3 0 2.06-.22 2.74-1.83 5.72-1.46 2.69-2.03 3.84-1.93 3.9.11.07 1.21-1.79 1.88-3.21.62-1.31.6-1.29.69-1.2.11.1-.51 1.5-1.31 2.97-.98 1.82-1.29 2.46-1.48 3.05-.2.61-.47 2.27-.45 2.75.01.33.01.33.05.05.02-.16.1-.69.19-1.17Zm8.49.57c1.12-.72 2.5-1.13 4.1-1.24l.99-.06.23-.4c.58-1.04 1.31-3.94 1.57-6.3.09-.77.18-1.49.21-1.61.04-.17-.02-.23-.38-.34-2.91-.87-3.86-2.88-2.73-5.78.29-.73.32-.89.2-.98-.25-.2-.16-.33.19-.28 1.18.17 2.55-1.88 1.78-2.65-.35-.35-1.41-.51-1.41-.21 0 .05-.03.16-.06.24-.06.15-.03.15.23 0 .35-.2.73-.14 1.03.18.23.25.18.38-.07.16-.3-.25-.61-.28-.87-.07l-.25.19.25.25c.13.13.24.33.24.44 0 .23-.57.74-.72.64-.07-.04-.01-.15.15-.29.3-.26.35-.55.12-.74a.54.54 0 0 1-.15-.36c0-.12-.05-.26-.11-.3-.06-.03-.08-.17-.05-.31.06-.2-.1-.42-1.02-1.43-1.17-1.27-1.87-2.24-2.27-3.14-.22-.5-.28-.56-.54-.56-.17 0-.41-.05-.55-.11-.59-.27-1.5.36-3.26 2.26-1.05 1.13-1.27 1.56-.56 1.09.26-.16.26-.16.26.09 0 .33-.16.44-.78.53-.57.07-.75.34-.23.34.86 0 1.17 1.29.52 2.1-.36.45-.37.5-.15.91.21.41.08.51-.22.16l-.24-.28v.24c0 .72.1.89.5.82.43-.07.93.13 1.1.45.06.11.28.29.5.4.55.28.57.37.14.82-.46.47-.83.68-1.19.68-.42 0-.14 1.08.37 1.44.97.68 5.08-.81 5.75-2.08.1-.2.18-.25.25-.18.45.45-1.47 1.86-3.25 2.37-.54.16-.58.19-.78.66-.23.53-.84 1.15-1.24 1.25-.22.05-.44.01-.96-.21-.14-.05-.18.06-.27.68-.14.88-.6 2.2-1.32 3.72-.61 1.29-.73 1.96-.45 2.6.11.26.19.35.22.25.11-.31.25-.41.39-.29.11.09.14.08.14-.04 0-.09.1-.23.21-.31.2-.14.21-.17.08-.48-.33-.79-.11-1.86.37-1.74.14.04.24.01.28-.09.1-.28.69-.18 1.02.17 1.79 1.91 2.43 3.69 1.99 5.49-.17.71-.14 1.59.05 1.59.05 0 .35-.16.65-.35Zm-15.84-1.6c.79-.4.86-.51.7-1.06-.14-.46-.06-.45-.84-.14l-.64.26-.09.64c-.12.78-.11.79.87.3Zm16.39.26c0-.61 2.71-2.81 2.95-2.4.08.13.09.12-.4.37-.67.33-1.58 1.07-1.99 1.61-.36.48-.56.63-.56.42Zm-5.35-1.37c-.1-.26-.33-.64-.51-.84s-.42-.56-.51-.79l-.18-.42-.42.73c-.47.81-.48.79.25 1.03.29.09.74.31 1 .49.57.4.59.38.37-.2Zm3.2-.46c-.3-1.18-1.75-3.52-1.75-2.83 0 .2.35.9.65 1.3s.78 1.37 1.01 2.05c.25.73.31.35.09-.52Zm-14.31.01c.58-.23.59-.25.4-.86-.04-.14-.8-.18-.87-.06s-.19 1.13-.14 1.13c.03 0 .3-.1.61-.21Zm17.93-5.15c-.28-.28.73-.89 1.73-1.05 1-.15 2.7.05 2.7.32 0 .06-.14.07-.38.02-1.32-.28-3.16 0-3.78.58-.11.1-.23.16-.27.13Zm-1.72-.24c-.24-.76-1.29-1.02-2.65-.65-.63.17-.9.19-.9.06 0-.33 2.4-.66 2.99-.41.27.11.91.9.91 1.12 0 .17-.29.07-.35-.12Zm8.76-1.45c.03-.02 1.35-.49 2.95-1.04 1.59-.54 3.86-1.32 5.04-1.74 2.69-.93 2.64-.92 2.56-.78-.04.06-.39.21-.79.32-.4.12-1.84.62-3.2 1.11-4.81 1.71-6.78 2.35-6.56 2.13Zm-1.37-.37c-.04-.18-.19-.94-.34-1.68-.33-1.56-.66-3.64-.75-4.65-.03-.38-.09-.83-.12-.99l-.05-.3-.15.27c-.31.6.42 5.13 1.22 7.55.09.27.24.11.19-.2Zm.02-1.9c-.57-3.11-.68-4.13-.76-7.18-.08-3.03-.19-3.75-.71-4.69-.11-.2-.17-.27-.14-.16.41 1.29.5 2.87.22 3.77-.14.45-.14.47.11.71.23.23.25.34.29 1.34.05 1.5.35 3.81.83 6.26.22 1.15.41 2.11.41 2.15.01.04.03-.01.06-.1.02-.1-.12-1.04-.31-2.1Zm-.46 2.07c0-.02-.16-.62-.35-1.32-.43-1.62-.94-4.61-.95-5.66 0-.05-.05-.05-.11-.02-.27.17.61 6.1 1.02 6.88.09.15.39.25.39.12Zm-.7-.21c0-.04-.15-.79-.34-1.68s-.43-2.34-.52-3.23c-.1-.9-.2-1.63-.24-1.63-.47 0-.46.45.05 3.25.29 1.54.4 2.6.26 2.3-.1-.2-.75-3.73-.87-4.72-.09-.71-.17-.67-.52.25-.79 2.05-.72 3.5.22 4.41.45.44 1.96 1.24 1.96 1.05Zm2.01-1.1c.11-.5.1-.68-.14-1.88-.48-2.36-.6-3.78-.51-5.86.13-2.96.06-3.61-.53-4.92-.31-.71-.25-.87.11-.25.6 1.02.7 1.48.7 3.31 0 1.6.01 1.66.13 1.15.6-2.42 0-4.52-1.81-6.31-.95-.93-.71-.86.42.12 1.46 1.27 1.82 1.98 1.89 3.7.05 1.05.02 1.27-.38 3.15-.34 1.58-.23 4.03.26 5.7l.15.5-.06-.6c-.03-.33-.15-1.14-.26-1.8-.25-1.48-.2-2.72.17-4.25.74-2.97.29-5.12-1.36-6.52-2.31-1.96-3.58-2.43-6.64-2.42-2.51 0-5.2 1.8-5.85 3.92-.35 1.12-.24 1.21.27.22.81-1.59 2-2.4 3.65-2.48 1.1-.06 1.19.13.11.21-2.14.16-3.85 1.81-4.17 4.02-.06.38-.05.37.14-.13.33-.91 1.48-2.34 2.19-2.71.36-.2.24-.02-.43.62-1.06 1.03-1.55 1.92-1.7 3.07l-.06.45.13-.4c.19-.55.61-1.34.91-1.7.29-.35.35-.16.07.23-.24.35-.56 1-.66 1.32-.03.14.08.02.26-.27.43-.68 2.52-2.74 3.06-3.02.61-.31.73-.26.22.1-.53.38-2.05 1.85-2.61 2.54-.23.28.19-.11.93-.86 1.61-1.64 2.21-2.01 2.95-1.81.76.2 1 .16 1.23-.22.48-.78 1.69-1.65 2.29-1.66.36 0 .18.16-.34.3-.31.09-.65.31-1.05.67l-.58.54.35.31c.44.39.37.49-.09.14l-.35-.27.08.35c.11.49.5 1.26.62 1.23.06-.01.26.18.45.43 2.39 3.16 3.13 3.8 3.39 2.95.51-1.67-.21-4.28-1.57-5.7-.71-.75-.59-.89.14-.17.48.45.49.46.32.14-.09-.19-.14-.36-.12-.39.06-.06.39.41.67.97.13.24.35.6.51.8.81 1.01 1.1 2.39 1.13 5.4.03 2.4.23 4.43.66 6.55.17.86.18.88.19.39 0-.29-.06-.87-.14-1.3-.27-1.48-.36-2.59-.44-5.59-.09-3.68-.59-5.34-2.18-7.27-.49-.6-.48-.77 0-.3.67.65 1.78 2.77 2.17 4.13.19.65.22 1.05.25 3.24.03 2.64.13 3.87.46 5.75.14.77.2 1.44.17 2.07-.03 1.06.05 1.19.23.37Zm-18.49-2.2c1.52-.39 3.01-1.54 3.58-2.75.57-1.23.61-3.02.09-3.88-.28-.46-.35-.32-.18.36.87 3.54-1.31 6.05-5.27 6.07-2.15.02-3.64-1.62-3.64-4 0-.34-.04-.53-.1-.49-.15.09-.12 1.13.05 1.78.68 2.62 2.62 3.65 5.47 2.91Zm-.62-.58c2.71-.49 4.13-2.06 3.97-4.37-.1-1.35-.13-1.35-.77-.05-.85 1.74-1.35 2.16-2.69 2.24-1 .06-2.55-.63-3.89-1.72-.93-.76-.97-.77-1.06-.35-.26 1.33.63 3.52 1.66 4.05.65.34 1.62.41 2.78.2Zm1.64-2.8c.65-.38 1.25-1.4 2.07-3.56.32-.82.33-.91.36-2.65l.04-1.8-.32.51c-.42.67-.58.76-1.59.85-.98.09-1.05.07-.86-.29.15-.29.5-.47 1.83-.97.75-.28.86-.36.98-.73.06-.21.03-.2-.43.13-1.03.73-2.72 1.41-2.72 1.09 0-.25.16-.48.27-.41.15.09 1.21-.46 1.88-.97.33-.25.66-.46.74-.46.09 0 .11-.08.07-.25-.03-.13-.13-.59-.21-1.01-.13-.7-.51-1.54-.76-1.69-.25-.16-.69.14-1.85 1.27-1.4 1.38-1.31 1.31-2.04 1.6-.51.2-.72.22-2.64.23h-2.1l-.13.78c-.07.42-.2.94-.28 1.13-.54 1.31.85 4.23 2.75 5.79 1.89 1.54 3.79 2.09 4.94 1.41Zm17.76-1.12c0-.16 10.8-11.27 10.88-11.2.02.03-1.53 1.66-3.45 3.63s-4.36 4.49-5.42 5.61c-1.86 1.94-2.01 2.09-2.01 1.96Zm-29.46-2.45c.16-.24.37-.54.48-.65l.19-.21-.73-.05c-.75-.05-1.31-.26-1.95-.75l-.33-.24v.39c0 .72-.36 1.66-.85 2.2l-.45.5.83.04c.91.05 1.6.34 2.14.9l.28.29.05-.99c.04-.87.08-1.04.34-1.43Zm10.51 2.14c-.53-.11-1.05-.36-1.05-.5 0-.11.06-.14.21-.1.13.04.42-.04.7-.19.54-.27.84-.32.53-.09-.1.08-.16.15-.13.15.12 0 1.05-.34 1.25-.47.31-.2.36-.04.12.39-.33.58-1.05.94-1.63.81Zm8.37-.76c-.27-.08-.32-.14-.27-.31.03-.12.07-.31.09-.43.1-.67 1-.86 2.32-.47.12.03.25.01.28-.05.04-.06.15-.11.24-.11.15.01.15.02-.01.14-.17.14-.17.15.05.22l.23.08-.25.07c-.23.06-.22.07.1.08.32.02.33.03.17.15-.14.11-.15.16-.05.22.09.06 0 .11-.27.16-.22.03-.65.14-.95.22-.61.18-1.19.19-1.68.03Zm-8.36-1.06c-.44-.05-.63-.12-.77-.3-.23-.28-.14-.49.09-.22.27.31 1.51.38 1.86.1s.34-.66-.05-1.29c-.46-.75-.3-.83.19-.08.78 1.2.22 1.96-1.32 1.79Zm14.78-.23c-.1-.13-.44-.5-.74-.83-1.29-1.38-2.09-2.55-2.45-3.55-.1-.27-.14-.31-.2-.19-.2.49 2.93 4.78 3.49 4.79.05 0 .01-.1-.1-.22Zm-3.73-.2c-.29-.13-.89-.24-1.78-.33-1.53-.16-1.9-.32-1.64-.74.07-.11.12-.11.32.02.13.08.73.19 1.32.26 1.29.13 2.37.55 2.37.93 0 .11-.08.09-.59-.14Zm4.2-.93a5 5 0 0 1-.62-.7c-.13-.19-.29-.35-.36-.35-.13 0-.56-.51-.48-.58.02-.03.12.01.2.08.42.35-.15-.65-.88-1.52-.21-.27-.34-.48-.29-.48.2 0 1.03 1.06 1.43 1.84.23.43.66 1.07.95 1.42.61.72.63.81.05.29Zm-21.71-.09c0-.18-.15-.36-.3-.36-.22 0-.36-.17-.45-.53-.04-.15-.13-.27-.19-.27-.3 0-1.03-1.08-.92-1.37.08-.2.22-.09.3.24.03.16.17.42.31.58.25.29.24.27-.06-.4-.58-1.28-1.09-1.56-1-.56.07.74 1.58 2.71 2.08 2.71.13 0 .23-.02.23-.04Zm2.55-.81c-.16-.08-.43-.14-.58-.15-.42 0-.28-.22.24-.38.42-.12 1.43-.33 2.22-.47.37-.06.53.09.22.21-.34.14-.12.22.24.09.37-.13.38-.12.34.06-.03.1-.11.19-.18.19s-.42.13-.77.3c-.69.33-1.23.37-1.73.15Zm-1.63-1.17c.21-.63 1.46-.97 2.48-.69.39.11 1.13.11 2.15-.02.24-.02.33.34.13.5-.23.19-1.77.32-2.58.22a6.2 6.2 0 0 0-1.98.07c-.17.03-.23.01-.2-.08Zm-1.54-.38c.12 0 .11-.05-.06-.2-.16-.15-.22-.32-.22-.65 0-.61.2-.69.22-.08l.02.48.03-.47c.06-.67.23-.6.23.1.01.71.15.53.35-.45.17-.79.16-.8-.34-.64-.6.17-.74.36-.67.85.08.47-.17.35-.29-.15-.21-.86.88-1.2 3.75-1.18 2.76.02 2.78.02 4.55-1.71 1.86-1.81 2.36-1.82 2.95-.06.22.65.47 1.12.35.66-.03-.14-.08-.41-.11-.6a2.6 2.6 0 0 0-.19-.64c-.2-.39-.19-.43.05-.21.11.1.2.24.2.32s.05.11.1.08c.06-.03.08-.18.05-.33s-.02-.21.01-.14c.09.2.24.03.24-.27 0-.15-.08-.36-.19-.45-.11-.1-.21-.36-.24-.61-.14-1.31-1.51-2.81-3.45-3.79-2.88-1.46-7.46-.34-9.11 2.22-.44.69-.39.72.18.1.66-.71.72-.58.09.22-.86 1.11-.92 1.34-.18.7.34-.3.72-.7.85-.89 1.55-2.45 5.59-3.36 8.44-1.9 1.88.96 2.74 1.88 2.69 2.88-.03.61-.22.79-.32.29-.16-.8-.95-1.71-2.03-2.34-.29-.17-.5-.34-.47-.37.13-.13 1.29.59 1.84 1.13.3.3.45.42.33.25-1.95-2.74-7.1-3.02-9.67-.53-.33.33-.47.5-.31.39 1.05-.76 1.77-1.16 2.44-1.36.37-.11.15.14-.27.32-.55.23-1.27.72-2.42 1.64-.58.46-1.22.95-1.42 1.08-.35.21-.38.26-.38.67 0 .25-.06.6-.14.78l-.14.34.57-.29c.62-.32.73-.34 1.64-.31.68.02.75.17.12.25-.25.04-.59.14-.75.22s-.32.15-.35.15-.18.06-.35.15c-.16.08-.48.15-.72.15l-.43.01.38.19.37.18.31-.3c.16-.17.33-.27.37-.23.04.03-.1.22-.3.41l-.38.34.19.57c.41 1.22.67 1.81.96 2.14.17.19.39.57.49.84.18.45.2.48.29.27.06-.12.17-.22.25-.22Zm-1.18-1.95c0-.71.9-1.75 1.52-1.75.1 0 .18-.06.18-.14 0-.21.55-.36 1.36-.36.59 0 .74.03.74.15 0 .09.1.15.26.15.14 0 .23.04.19.1-.03.06-.42.1-.85.1-1.82 0-2.84.47-3.11 1.42-.16.55-.29.7-.29.33Zm.77-.46c.36-.36 2.33-.56 4.46-.44 2.01.1 1.58.2-.96.21-1.75.01-2.34.04-2.8.17-.69.2-.86.22-.7.06Zm.38-.55c.57-.43 2.47-.66 3.7-.45.37.07.69.1.71.08.09-.09-2.43-1.26-2.96-1.38-.32-.08-.47-.15-.36-.17.37-.08 1.32.2 2.16.64.47.24 1.22.63 1.68.85.99.5.98.53-.09.39-2.68-.35-3.28-.34-4.38.05-.55.19-.72.19-.46-.01Zm5.12-.58c-.31-.13-.9-.43-1.3-.67-.82-.5-1.54-.85-1.92-.95s-.45-.28-.07-.21c.34.07.48.14 2.12 1 .58.3 1.3.63 1.6.72.3.1.59.21.65.26.19.18-.51.08-1.08-.15Zm1.49-.83c-.24-.94-1.92-2.46-3.31-2.98-.18-.07-.18-.09-.02-.12.88-.21 3.57 2.21 3.57 3.22 0 .25-.17.17-.24-.12Zm-.61-.19c-.98-1.83-4.17-2.88-6.37-2.09-.66.23-.69.35-.05.18.29-.07.68-.12.87-.1l.35.03-.3.07c-.16.05-.59.16-.95.25l-.65.17.5.05.5.06-.5.08c-.27.05-.64.15-.82.23-.4.16-.42.08-.05-.3.23-.25.24-.28.05-.18-.12.06-.25.16-.28.21-.12.19-.26.11-.16-.09.45-.83 2.96-1.41 4.59-1.07 1.55.32 3.62 1.89 3.62 2.74 0 .23-.15.12-.35-.24Zm3.46-1.98c-.27-.78-1.36-1.71-2.51-2.13-.59-.22-.83-.48-.33-.38 1.43.32 3.11 1.79 3.01 2.63-.03.25-.04.25-.17-.12ZM13.4 8.2c.25-.16.68-.35.95-.41.27-.07.57-.18.65-.25.3-.24 1.47-.56 2.25-.61.96-.07.96.01 0 .16-.39.06-.98.19-1.3.3l-.6.19.6-.05c1.22-.1 1.15.12-.08.25-1.09.11-2.41.43-2.61.63a.4.4 0 0 1-.2.09c-.06 0 .09-.13.34-.3Z"/></svg>