<svg xmlns="http://www.w3.org/2000/svg" width="51" height="51" viewBox="0 0 51 51"><path fill="#fff" fill-rule="evenodd" stroke="#fff" stroke-width=".755" d="M16.83 31.06c-2.74-.9-3.62-4.63-1.62-6.89.95-1.09 2.81-1.5 4.01-.9.53.27.57.28.61.11.05-.17.16-.18 1.34-.16l1.28.03v7.7l-1.28.03c-1.04.02-1.28 0-1.33-.12s-.13-.11-.51.06c-.59.26-1.91.34-2.5.14Zm23.72.01c-3.04-1.01-3.91-4.72-1.64-6.99 1.4-1.4 3.79-1.45 5.29-.11.85.76 1.4 2.02 1.4 3.19 0 .85.02.84-1.19.85-1.15.01-1.12.06.21.34.88.19.91.24.53.9-.88 1.5-3.01 2.34-4.6 1.82Zm-30.35-.06c-1.69-.56-2.32-1.63-2.4-4.06l-.05-1.6-.77-.03-.78-.03v-1.65l1.14-1.37c.63-.76 1.33-1.58 1.55-1.83l.39-.45.99.03.98.03.03.92.03.92 1.27.03 1.27.03.03 1.6c.03 1.98.11 1.88-1.45 1.79l-1.13-.07v.94c0 1.22.1 1.39.84 1.39.29 0 .78-.09 1.09-.19.3-.11.58-.17.61-.14.12.12.07 3.22-.05 3.29-.53.32-3.03.64-3.59.45Zm8.98-.3c.26-.1.55-.22.65-.26.12-.05.17-.03.17.09 0 .14.16.16 1.15.16h1.15l-.02-3.62-.03-3.63h-1.1c-1.08 0-1.1 0-1.08.23.03.29-.02.28-.77-.1-2.25-1.16-4.76.53-4.88 3.28-.13 2.95 2.22 4.85 4.76 3.85Zm3.99.22c-.13-.13-.08-10.68.05-10.81.19-.19 2.32-.16 2.52.04.19.19.25 10.29.06 10.65-.11.19-2.45.31-2.63.12Zm3.38-.05c-.03-.07-.04-2.54-.03-5.48l.03-5.35 1.24-.03c.79-.02 1.28.01 1.35.08s.13 1.06.16 2.76l.05 2.64 1.04-1.25L31.44 23h1.48c2.04 0 2.06-.19-.25 2.53l-1.17 1.38.27.33c.59.71 2.78 3.14 2.8 3.12.02-.01.04-1.66.05-3.67l.03-3.64 1.36-.03c1.35-.03 1.37-.02 1.43.2.08.3.05 7.04-.03 7.43l-.06.3-2.91.03-2.91.02-1.12-1.3-1.11-1.31v.78c0 .43-.03 1.02-.06 1.31l-.07.52h-1.29c-.94 0-1.3-.03-1.33-.12Zm16.1-.03c.94-.25 1.6-.71 2.16-1.52.41-.58.4-.59-.67-.84l-.95-.22-.27.26c-.82.79-1.97.69-2.57-.22-.41-.61-.41-.61 2.41-.61 2.93 0 2.72.09 2.55-1.06-.57-3.86-5.4-4.71-7.05-1.24-.45.94-.46 2.56-.03 3.4.87 1.69 2.64 2.51 4.42 2.05Zm-29.85-.24.75-.18.07-.39c.04-.21.07-.86.07-1.43l.01-1.03-.27.06c-2.06.48-2.35.29-2.37-1.47l-.01-1.02 1.28-.03 1.27-.03v-1.18c0-.65.03-1.32.06-1.49l.06-.31-1.33-.03-1.34-.03-.03-.93-.03-.92H9.41l-.54.63c-.31.34-.98 1.14-1.51 1.77l-.96 1.15.02.65.03.65.8.05.8.05.05 1.8c.05 1.6.08 1.85.27 2.21.84 1.58 2.1 1.99 4.43 1.45ZM29 29.45c.04-1.05.08-1.3.2-1.33.09-.01.6.51 1.25 1.28l1.1 1.3h2.98l-.2-.22c-1.19-1.3-3.03-3.46-3.03-3.55 0-.07.25-.42.55-.77s.95-1.13 1.45-1.73l.9-1.08-1.32-.03c-1.54-.03-1.28-.17-2.68 1.52-.52.63-1.01 1.15-1.08 1.16-.09 0-.12-.63-.12-2.85V20.3h-2.3v5.18c0 2.85.02 5.21.05 5.23.02.03.53.05 1.12.05l1.08-.01zm-3.4-3.95v-5.2h-2.2v10.4h2.2zm11.6 1.48v-3.73h-2.3v7.45h2.3zm-19.55 1.83c-1.88-.86-1.02-3.95.99-3.57 1.29.24 1.83 2.18.88 3.2-.53.56-1.18.69-1.87.37Zm24.81-.22c.81-.49.68-.59-.76-.59h-1.3l.16.25c.37.56 1.28.73 1.9.34Zm-23.36-.11c1.58-1.09.2-3.71-1.5-2.83-.95.49-1 2.29-.07 2.85.45.28 1.15.26 1.57-.02Zm21.13-2.31c-.08-.13.3-.6.67-.81.39-.23 1.06-.24 1.48-.02.32.16.78.73.69.83-.1.09-2.78.09-2.84 0Zm2.47-.27c0-.38-1.04-.61-1.63-.37-.81.35-.68.47.52.47.68 0 1.11-.04 1.11-.1ZM8.87 23.92a.605.605 0 0 1 .45-1.02c.51 0 .78.69.4 1.03-.24.22-.65.21-.85-.01Zm2.23-.02c-.39-.39-.14-1 .42-1 .53 0 .79.74.36 1.04-.3.21-.54.2-.78-.04Zm24.22-1.27c-1.44-.71-.79-3.05.81-2.9.79.07 1.36.62 1.44 1.4.13 1.17-1.17 2.04-2.25 1.5Zm1.47-.3c.89-.65.66-2.05-.38-2.33-1.27-.34-2.27 1.25-1.33 2.12.57.53 1.17.6 1.71.21Z"/></svg>