<svg xmlns="http://www.w3.org/2000/svg" width="51" height="51" viewBox="0 0 51 51"><path fill="#fff" fill-rule="evenodd" stroke="#fff" stroke-width=".769" d="M3.8 30.01c-.06-.13-.1-1.68-.1-4.36s.04-4.23.1-4.36c.13-.24 9.74-.31 9.98-.07.17.17.17 8.69 0 8.86-.15.15-1.44.16-1.53.02-.03-.05-.06-1.43-.05-3.05 0-1.63-.02-3.24-.06-3.58l-.06-.62-3.29.03-3.29.03v3.52c0 2.61-.03 3.56-.12 3.65-.21.21-1.45.16-1.58-.07Zm11.22.07c-.17-.17-.17-8.69 0-8.86.09-.09 1.33-.12 4.95-.12h4.83l.15.24c.26.4.18 4.52-.09 4.72-.21.15-6.24.22-6.6.08-.13-.05-.16-.23-.16-.9v-.84h5.1v-1.63l-.37.07c-.21.03-1.67.06-3.25.06H16.7v5.5h4.1c3.94 0 4.1.01 4.2.19.15.3.12 1.13-.06 1.39l-.15.22h-4.83c-3.61 0-4.85-.03-4.94-.12Zm11.13-.12c-.23-.35-.18-8.62.05-8.76.3-.19 9.75-.13 9.91.07.25.3.2 8.6-.05 8.79-.17.12-1 .14-4.98.14H26.3zm11.15.05c-.14-.27-.13-1.34.02-1.49.09-.09 1.15-.12 4.14-.12 3.75 0 4.03-.01 4.08-.17.03-.1.05-.6.05-1.11l-.01-.92h-4.03c-3.54 0-4.06-.02-4.19-.16-.19-.19-.24-4.4-.06-4.75.1-.18.26-.19 5-.19 5.59 0 5.1-.09 5.1.94 0 .9.19.86-4.37.86H39.1v1.5h4.03c3 0 4.06.03 4.15.12.2.2.17 5.32-.04 5.52-.27.27-9.79.24-9.94-.03ZM5.2 26.25V22.6l.98-.01c5.57-.07 6.17-.07 6.24.04.04.07.08 1.73.08 3.7v3.57h1.1v-8.5l-4.77.02-4.78.03-.03 4.23L4 29.9h1.2zm19.5 3.05v-.6l-4.17-.02-4.18-.03-.03-2.88c-.01-1.88.01-2.95.08-3.07.11-.2.21-.2 3.63-.18l3.52.03.03.99c.02.73-.01 1.02-.1 1.08-.07.04-1.24.08-2.6.08H18.4v1.2l3.13-.02 3.12-.03.03-2.23.02-2.22h-9.5v8.5h9.5zm11.2-3.65V21.4h-9.5v8.5h9.5zm11.18 1.63.02-2.58-4.17-.02-4.18-.03-.03-1.01-.03-1.01.62-.07c.34-.03 2.24-.06 4.21-.06h3.59l-.03-.52-.03-.53h-9.5v4.4l4.18.03 4.18.02-.03 1.38-.03 1.37-4.17.03-4.18.02v.53c0 .3.03.57.07.6.03.04 2.18.06 4.77.05l4.71-.03zm-19.51.88c-.05-.52.01-5.3.07-5.51.02-.07 1.26-.1 3.57-.1h3.54v6.1l-3.56.03-3.56.02zm6.83-2.57v-2.81l-.31.06c-.17.03-1.64.06-3.25.06H27.9v5.5h6.5z"/></svg>