<svg xmlns="http://www.w3.org/2000/svg" width="51" height="51" viewBox="0 0 51 51"><path fill="#fff" fill-rule="evenodd" stroke="#fff" stroke-width=".379" d="M.74 50.95c-.41-1.65.74-3.01 1.67-1.97.41.46.41 2.15.01 2.2-.21.03-.22.01-.13-.17.06-.11.1-.5.09-.88l-.01-.68-.06.75c-.07.92-.12 1-.6 1-.2 0-.43-.06-.5-.12-.11-.1-.13-.1-.07 0 .05.08 0 .12-.13.12-.14 0-.23-.09-.27-.25Zm10 0c-.29-1.18.17-2.3.96-2.3.66 0 .94.37.98 1.3.05.93-.02 1.25-.28 1.25-.14 0-.18-.05-.14-.17.05-.17.05-.17-.06 0-.13.2-.79.24-.99.05-.11-.1-.13-.1-.07 0 .05.08 0 .12-.13.12-.14 0-.23-.09-.27-.25Zm14 .13c-.16-.25-.08-1.75.1-2.03.34-.52 1.17-.57 1.55-.09.4.51.4 2.24 0 2.24-.16 0-.18-.05-.13-.27l.06-.28-.14.25c-.27.49-1.07.36-1.09-.19-.02-.24-.02-.24-.06-.03-.03.13.01.3.07.38.1.11.09.14-.08.14-.12 0-.24-.06-.28-.12Zm6.66-.78v-.9h-.3c-.28 0-.3-.02-.3-.4v-.4H32v2.6h-.6zm13.24.65c-.37-1.47.46-2.69 1.47-2.15.58.32.73 2.4.17 2.4-.12 0-.17-.04-.12-.12.06-.1.04-.1-.07 0-.17.15-.81.16-.97 0-.07-.07-.13-.45-.14-.87l-.02-.76-.03.73c-.03.47 0 .79.08.88.09.11.07.14-.1.14-.14 0-.23-.08-.27-.25Zm-42.76-.07c.07-.07.12-.41.12-.81v-.68l-.27.03c-.45.05-.47 1.57-.02 1.58.03 0 .1-.05.17-.12Zm10.01-.02c.25-.3.1-1.41-.19-1.41-.24 0-.25.03-.28.69-.03.79.16 1.09.47.72Zm13.96-.02c.3-.3.17-1.38-.17-1.42l-.28-.03v.74c0 .9.1 1.06.45.71Zm19.89.1c.19-.07.24-1.38.06-1.49-.33-.2-.5.06-.5.74 0 .81.05.9.44.75ZM11.3 49.2c.57-.36.99.05 1.02 1l.02.65.03-.54c.07-.92-.13-1.31-.68-1.31-.52 0-.69.29-.67 1.18l.01.77.06-.83c.04-.58.11-.86.21-.92ZM1.23 48c-.64-.27-.78-2.16-.2-2.66.89-.77 1.72-.04 1.66 1.45-.05 1.09-.63 1.57-1.46 1.21Zm9.76-.19c-.44-.45-.44-1.97 0-2.42.59-.59 1.51-.29 1.66.55.32 1.69-.69 2.83-1.66 1.87Zm14 .01c-.52-.46-.54-1.98-.04-2.48.54-.53 1.53-.19 1.69.57.33 1.69-.64 2.81-1.65 1.91Zm6.02.02c-.31-.26-.31-.26-.31-1.25 0-1.22.17-1.49.94-1.49.73 0 .96.36.96 1.55 0 1.07-.25 1.45-.95 1.45-.21 0-.45-.09-.64-.26Zm14.03.11c-.56-.38-.63-2.16-.11-2.61.49-.42 1.23-.3 1.52.26.69 1.33-.36 3.09-1.41 2.35Zm1.06-.35c.17-.17.2-.32.18-.98l-.01-.77-.06.83c-.06.86-.15 1.02-.57 1.02-.44 0-.59-.24-.65-1.07l-.06-.78-.01.73c-.03 1.05.6 1.6 1.18 1.02Zm-13.9-.09c.39-.74.01-2.13-.58-2.1-.26.02-.27.02-.02.06.6.11.9 1.53.43 2.05-.09.1-.11.18-.05.18s.16-.09.22-.19ZM1.95 46.6c0-.73-.01-.75-.25-.75s-.25.03-.28.64c-.04.78.01.93.3.89.22-.03.23-.08.23-.78Zm9.94.66c.25-.3.1-1.41-.19-1.41-.24 0-.25.03-.28.69-.03.79.16 1.09.47.72Zm14.01-.05c.26-.49.1-1.41-.25-1.41-.28 0-.35.17-.35.84 0 .7.35 1.03.6.57Zm5.98-.64c.03-.77.02-.78-.2-.75-.23.03-.39 1.04-.24 1.45.17.45.41.06.44-.7Zm13.97.03c0-.73-.01-.75-.25-.75s-.25.03-.28.64c-.04.78.01.93.3.89.22-.03.23-.08.23-.78Zm-34.39-2.07c-.03-.04-.06-.57-.06-1.2V42.2h-.24c-.31 0-.35-.07-.29-.47.05-.33.05-.33.64-.33h.6l-.03 1.57-.03 1.58-.27.02c-.14.01-.29-.01-.32-.04ZM1.4 43.35V42.2h-.25c-.22 0-.25-.04-.25-.4v-.4h1.2v3.1h-.7zm2 0V42.2h-.25c-.23 0-.25-.04-.25-.4v-.41l.58.03.57.03.03 1.53.03 1.52H3.4zm19.59.86c-.62-.63-.36-2.5.38-2.7.76-.21 1.21.23 1.3 1.28.12 1.49-.81 2.28-1.68 1.42Zm2.31-.86V42.2h-.25c-.22 0-.25-.04-.25-.4v-.4H26l.01.93c.01.5.02 1.12.04 1.37.04.69-.01.8-.41.8h-.34zm5.66.84c-.57-.67-.31-2.46.38-2.69 1.03-.34 1.82 1.31 1.21 2.5-.31.6-1.16.71-1.59.19Zm13.92.01c-.41-.42-.4-2 .01-2.44.26-.28.85-.36 1.22-.16.56.3.71 2.02.23 2.59-.37.44-1.02.44-1.46.01Zm-20.8-.16c.12-.08.22-.23.22-.32-.01-.14-.02-.14-.12.03-.46.81-1.05.37-1.11-.8l-.03-.8-.02.83c-.03 1.11.39 1.53 1.06 1.06Zm8 0c.12-.08.22-.23.22-.32-.01-.14-.02-.14-.12.03-.46.81-1.05.37-1.11-.8l-.03-.8-.02.83c-.03 1.11.39 1.53 1.06 1.06Zm-8.19-.38c.25-.3.1-1.41-.19-1.41-.24 0-.25.03-.28.64-.04.88.14 1.17.47.77Zm8.01-.12c.24-.61.08-1.39-.26-1.32-.19.03-.33 1.09-.2 1.44.09.23.36.16.46-.12Zm13.98-.48c.03-.75-.04-.92-.37-.81-.21.06-.33 1.3-.14 1.49.28.27.48 0 .51-.68ZM1.33 40.83C.3 40.62.5 37.9 1.55 37.9c.77 0 1.05.43 1.05 1.6 0 1.09-.4 1.51-1.27 1.33Zm1.66-.22c-.71-.72-.3-2.63.58-2.69.87-.06 1.17.38 1.11 1.65-.05 1.29-.91 1.81-1.69 1.04Zm8.41-.86V38.6h-.24c-.31 0-.35-.07-.29-.48.05-.32.05-.32.64-.32h.59v3.1h-.7zm12 .01V38.6h-.31c-.29 0-.3-.02-.27-.37l.03-.38.57-.03c.71-.04.7-.06.66 1.73l-.03 1.3-.32.03-.33.03zm1.85 1.05c-.5-.21-.75-1.13-.56-2.11.24-1.2 1.78-1.09 1.96.14.22 1.47-.42 2.37-1.4 1.97Zm5.77-.16c-.86-.72-.42-2.75.58-2.75.75 0 1 .38 1 1.5 0 1.37-.74 1.96-1.58 1.25Zm13.86-.05c-.44-.44-.41-2.07.05-2.46 1.01-.86 2.04.47 1.63 2.11-.18.7-1.13.9-1.68.35ZM1.9 40.01c.27-.51.03-1.49-.33-1.35-.21.08-.26 1.39-.04 1.47.21.09.26.07.37-.12Zm2.08-.55c.03-.75-.04-.92-.37-.81-.21.06-.33 1.3-.14 1.49.28.27.48 0 .51-.68Zm21.92.55c.22-.42.09-1.41-.19-1.41-.3 0-.41.22-.41.8 0 .73.34 1.08.6.61Zm5.98-.59c.03-.72-.12-1.02-.38-.76-.17.17-.24 1.22-.1 1.39q.435.525.48-.63Zm14 .04c.03-.75-.04-.92-.37-.81-.21.06-.33 1.3-.14 1.49.28.27.48 0 .51-.68Zm-42.85-2.4c-.52-.45-.45-2.23.11-2.61.32-.23.9-.19 1.23.09.43.37.43 2.15 0 2.52-.38.33-.96.33-1.34 0Zm7.96-.05c-.44-.45-.44-1.97 0-2.42.52-.51 1.33-.36 1.61.3.62 1.51-.6 3.12-1.61 2.12Zm11.96.04c-.28-.27-.37-1.84-.13-2.28.37-.7 1.43-.64 1.74.08.31.74.11 2.1-.34 2.34-.38.2-1.01.13-1.27-.14Zm8.06.07c-.7-.56-.41-2.59.39-2.77.81-.18 1.24.42 1.18 1.66-.05 1.15-.84 1.71-1.57 1.11Zm14.29-.97V35h-.25c-.22 0-.25-.04-.25-.34 0-.39.11-.46.76-.46H46v3.1h-.7zm-21.22.69c.12-.08.22-.19.22-.25 0-.05-.09 0-.2.11-.55.55-1 .15-1-.9s.45-1.45 1-.9c.11.11.2.16.2.11 0-.37-.8-.51-1.1-.21-.54.54-.2 2.2.45 2.2.11 0 .31-.07.43-.16ZM3.95 35.8c0-.73-.01-.75-.25-.75s-.25.03-.28.64c-.04.78.01.93.3.89.22-.03.23-.08.23-.78Zm7.99.64c.23-.61-.02-1.54-.39-1.4-.16.06-.23 1.35-.08 1.49.12.13.41.07.47-.09Zm11.95.02c.25-.3.1-1.41-.19-1.41-.24 0-.25.03-.28.64-.04.88.14 1.17.47.77Zm7.99-.6c.03-.69-.06-.9-.34-.79-.18.07-.29 1.2-.13 1.39.27.33.44.12.47-.6Zm-20.41-2.12c-.04-.04-.07-.58-.07-1.21V31.4h-.25c-.22 0-.25-.04-.25-.34 0-.38.12-.46.71-.46.49 0 .51.05.47 1.8l-.03 1.35-.25.03c-.14.02-.29 0-.33-.04Zm23.93-1.15V31.4h-.28c-.37 0-.39-.03-.34-.45l.04-.35h1.19l-.03 1.57-.03 1.58-.27.02-.28.02zm-32-.04V31.4h-.25c-.22 0-.25-.04-.25-.34 0-.33.01-.34.5-.41.71-.1.7-.12.7 1.56v1.49h-.7zm19.56.84c-.41-.49-.39-1.97.03-2.4.42-.41.96-.41 1.37.02.44.46.45 2.07.01 2.45-.43.37-1.07.34-1.41-.07Zm22.34-.84V31.4h-.25c-.22 0-.25-.04-.25-.34 0-.33.01-.34.53-.39.7-.07.67-.14.67 1.54v1.49h-.7zm-21.36.29c.09-.23.07-1.17-.03-1.32-.3-.48-.71.71-.47 1.34.07.19.43.18.5-.02Zm-.71-2.78c-.45-.2-.53-.43-.53-1.46 0-.88.01-.93.29-1.21.6-.59 1.51-.28 1.67.57.28 1.51-.42 2.54-1.43 2.1Zm12.1.07c-.75-.14-1.01-2.09-.38-2.77.35-.38.96-.36 1.36.03.61.61.34 2.71-.35 2.71-.08 0-.2.02-.28.04-.07.02-.23.01-.35-.01ZM3.4 28.95V27.8h-.26c-.23 0-.25-.03-.22-.37l.03-.38h1.1l.03 1.53.03 1.52H3.4zm8 0V27.8h-.25c-.22 0-.25-.04-.25-.34 0-.33.01-.34.53-.39.68-.06.67-.08.67 1.61v1.42h-.7zm33.9 0V27.8h-.26c-.23 0-.25-.03-.22-.37l.03-.38.58-.03.57-.03v3.11h-.7zm-21.36.29c.23-.61-.02-1.54-.39-1.4-.16.06-.23 1.35-.08 1.49.12.13.41.07.47-.09Zm11.94-.62c.03-.79-.15-1.07-.44-.67-.15.2-.19 1.26-.07 1.39.28.28.48 0 .51-.72Zm-2.51-2.09c-.04-.03-.07-.57-.07-1.2V24.2l-.25.06c-.24.06-.25.04-.25-.35v-.41h1.17l.07 1.1c.1 1.54.02 2-.33 2-.15 0-.31-.03-.34-.07Zm1.97 0c-.58-.11-.9-1.11-.69-2.19.13-.7.85-1.06 1.46-.74.77.42.65 2.9-.15 2.9-.08 0-.2.02-.28.04-.07.02-.23.01-.34-.01Zm7.99-.01c-.85-.13-1.05-2.48-.25-2.91.9-.48 1.52.14 1.52 1.52 0 1.13-.37 1.53-1.27 1.39Zm-40.34-.31c-.52-.52-.38-2.29.2-2.61.95-.5 1.59.26 1.49 1.77-.07 1.09-.98 1.55-1.69.84Zm8.41-1.01c0-1.23-.01-1.3-.2-1.3-.11 0-.2-.07-.2-.15 0-.11.12-.15.5-.15h.5v2.9h-.6zm12 .15V24.2h-.31c-.28 0-.3-.02-.27-.32l.03-.33h1.2l.03 1.48.03 1.47h-.71zm21.97 1.08c-.04-.03-.07-.55-.07-1.15V24.2H45c-.23 0-.3-.05-.3-.19 0-.44.1-.51.71-.51H46v3h-.28c-.16 0-.32-.03-.35-.07Zm-41.43-.79c.09-.23.07-1.17-.03-1.32-.3-.48-.71.71-.47 1.34.07.19.43.18.5-.02Zm31.94-.62c.03-.79-.15-1.07-.44-.67-.15.2-.19 1.26-.07 1.39.28.28.48 0 .51-.72Zm8 0c.03-.77-.1-.99-.43-.72-.16.13-.22 1.3-.08 1.44.28.28.48 0 .51-.72ZM3.25 22.86c-.8-.36-.77-2.52.04-2.86.86-.35 1.36.18 1.36 1.46 0 1.27-.52 1.8-1.4 1.4Zm8.15-1.31V20.1h.6V23h-.6zm11.93 1.38c-.5-.1-.65-.49-.61-1.56.04-1.17.18-1.37.95-1.37.74 0 .93.3.93 1.5 0 1.22-.35 1.61-1.27 1.43Zm12.06-.05c0-.07 0-.59.01-1.15l.02-1.03h-.31c-.29 0-.31-.02-.31-.4v-.4h1.21l-.03 1.53-.03 1.52-.27.03c-.18.02-.28-.02-.29-.1Zm7.94-.04c-.03-.09-.03-.6 0-1.15l.05-.99h-.29c-.27 0-.29-.03-.29-.4v-.4H44v1.49c0 1.46 0 1.49-.22 1.55-.34.09-.38.08-.45-.1ZM33.3 21.75V20.6h-.25c-.22 0-.25-.04-.25-.35v-.35h.59c.68 0 .69.01.65 1.48-.04 1.67 0 1.52-.39 1.52h-.35zm11.64.92c-.32-.28-.47-1.52-.25-2.1.23-.59 1.15-.71 1.62-.21.34.37.36 1.91.03 2.25-.35.34-1.03.37-1.4.06ZM23.9 21.44c0-.72-.01-.74-.25-.74s-.25.02-.25.74c0 .51.04.76.13.79.3.1.37-.06.37-.79Zm-19.95.01c0-.68-.01-.7-.25-.7-.23 0-.25.04-.28.59-.04.73.02.88.3.84.21-.03.23-.08.23-.73Zm41.83.63c.22-.22.15-1.26-.08-1.33-.32-.1-.4.03-.4.69 0 .76.15.97.48.64ZM3.04 19.06c-.58-.58-.47-2.18.17-2.52.88-.45 1.49.11 1.49 1.36 0 1.38-.85 1.97-1.66 1.16Zm20.36-.81V17.1h-.26c-.23 0-.25-.03-.22-.37.03-.38.03-.38.52-.41.59-.04.64.03.6.71-.01.29-.03.94-.03 1.45l-.01.92h-.6zm9.57.87c-1-1.1-.09-3.3 1.12-2.68.58.3.76 2.12.26 2.61-.31.31-1.12.36-1.38.07Zm2.33-.97c0-1.13 0-1.15-.22-1.12-.2.02-.23-.03-.26-.35l-.03-.38H36v3h-.7zm8.1 1.08c-.01-.05-.02-.55-.03-1.13l-.02-1.05-.27.03c-.27.03-.28.01-.28-.37v-.41H44v3h-.3c-.16 0-.3-.03-.3-.07Zm-39.51-.67c.25-.3.1-1.41-.19-1.41-.24 0-.25.03-.28.69-.03.79.16 1.09.47.72Zm30.01-.71c0-.76-.15-1-.46-.74-.22.18-.19 1.35.03 1.47.34.19.43.03.43-.73ZM3.4 14.5c0-1.09-.02-1.3-.15-1.3-.09 0-.15-.09-.15-.25 0-.23.04-.25.45-.25H4v3.1h-.6zm19.84 1.21c-.73-.31-.78-2.38-.07-2.7.97-.44 1.63.38 1.46 1.81-.09.73-.76 1.16-1.39.89Zm10.13.03c-.04-.04-.07-.56-.07-1.16V13.5h-.25c-.22 0-.25-.04-.25-.4v-.4h1.18l.07.73c.03.39.05 1.08.03 1.52l-.03.8-.3.03c-.17.02-.34 0-.38-.04Zm9.88-.03c-.69-.29-.9-2.1-.32-2.68.8-.8 1.67-.15 1.67 1.27 0 1.19-.54 1.75-1.35 1.41Zm-7.92-1.11.05-1.1h-.29c-.27 0-.29-.03-.29-.4v-.4H36v3h-.71zm-11.38-.01c.1-.6-.02-.99-.31-.99-.28 0-.39 1.33-.11 1.43.23.08.36-.05.42-.44Zm19.93-.36c.03-.71.02-.73-.21-.73-.28 0-.37.21-.37.91 0 .52.06.61.35.57.18-.03.2-.11.23-.75Zm-10.51-2.1c-.04-.03-.07-.55-.07-1.15V9.9h-.25c-.22 0-.25-.04-.25-.4v-.4H34v3.1h-.28c-.16 0-.32-.03-.35-.07Zm7.88-.02c-.88-.37-.86-2.58.03-2.92.66-.25 1.31.25 1.33 1.03l.02.43.06-.52c.11-.93 1.02-1.31 1.61-.68.5.53.41 2.23-.13 2.55-.56.34-1.47.04-1.47-.48 0-.11-.08-.04-.2.16-.28.46-.77.62-1.25.43ZM35.38 11l.04-1.1h-.31c-.3 0-.31-.02-.31-.4v-.4H36v3h-.65zm6.52-.35c0-.72-.01-.75-.24-.75-.29 0-.53 1.19-.29 1.43.32.33.53.06.53-.68Zm1.95 0c0-.71-.22-1.01-.46-.63-.1.16-.12 1.22-.02 1.32.28.28.48 0 .48-.69Zm-10.76-2.2c-.62-.34-.69-2.03-.11-2.6.49-.49 1.61-.16 1.62.48 0 .07.08-.02.16-.2.31-.61 1.12-.67 1.6-.1.36.43.33 1.92-.04 2.29s-1.05.32-1.43-.1c-.32-.35-.39-.39-.39-.19 0 .42-.93.7-1.41.42Zm8.21-1V6.3h-.25c-.22 0-.25-.04-.25-.4v-.4H42l.01.55c.01.3.02.71.02.9s-.01.64-.02 1L42 8.6h-.7zm1.95 1.06c-.64-.28-.89-1.91-.39-2.58.33-.44 1.11-.46 1.48-.03.37.44.39 1.94.04 2.35-.25.28-.79.41-1.13.26Zm-9.47-.7c.22-.14.12-1.45-.12-1.49-.26-.05-.36.15-.36.79 0 .66.17.9.48.7Zm10.01-.05c.2-.24.1-1.4-.13-1.44-.26-.05-.36.15-.36.79 0 .68.22.98.49.65Zm-7.91-.67c.03-.7-.13-.94-.44-.68-.15.12-.2 1.2-.07 1.33.27.27.48 0 .51-.65ZM33.3 3.85V2.7h-.26c-.23 0-.25-.03-.22-.37l.03-.38.58-.03.57-.03V5h-.7zm8.07 1.08c-.04-.03-.07-.55-.07-1.15V2.7h-.25c-.22 0-.25-.04-.25-.4v-.4H42v1.49c0 1.27-.02 1.5-.16 1.55-.2.08-.39.08-.47-.01Zm1.71-.08c-.53-.3-.67-1.92-.22-2.52.3-.4 1-.44 1.4-.09.42.35.5 1.96.12 2.4-.28.34-.9.44-1.3.21Zm.7-.64c.22-.14.12-1.45-.12-1.49-.26-.05-.36.15-.36.78 0 .67.17.91.48.71Zm-10.53-2.9c-.33-.14-.56-.47-.62-.9L32.57 0h.37c.31 0 .36.03.36.24 0 .13.06.29.14.35.22.18.46.02.46-.3 0-.41.28-.38.33.04l.04.32.01-.32c.03-.48.32-.45.32.03 0 .76-.66 1.23-1.35.95Zm7.86-.05c-.31-.17-.5-.53-.51-.93 0-.41.27-.45.33-.06l.04.28.02-.27c.01-.35.31-.39.31-.04 0 .13.07.29.15.36.2.17.45-.03.45-.36 0-.37.28-.3.33.09l.04.32.01-.32c.03-.46.62-.51.62-.05 0 .34.26.72.48.71.14 0 .14-.02.02-.06-.37-.13-.59-.93-.25-.93.1 0 .15.1.15.31 0 .27.03.3.28.27.22-.02.27-.08.27-.31-.01-.25.02-.27.37-.27.36 0 .38.02.38.3 0 1.11-1.42 1.5-1.93.53l-.14-.26-.07.26c-.12.48-.85.71-1.35.43Z"/></svg>