<svg xmlns="http://www.w3.org/2000/svg" width="51" height="51" viewBox="0 0 51 51"><path fill="#fff" fill-rule="evenodd" stroke="#fff" stroke-width=".376" d="M14.07 50.78c-.12-.87-.91-1.59-1.91-1.73-1.74-.23-2.45-1.16-2.56-3.37-.12-2.3-.56-2.8-2.53-2.91-2.48-.14-3.01-.75-3.52-3.96C3.12 36 2.38 34.98.46 34.49c-.38-.09-.67-.39-.38-.39.6 0 1.68.55 2.35 1.19.83.79 1.08 1.4 1.37 3.41.46 3.11 1.09 3.8 3.46 3.8 1.85 0 2.52.84 2.64 3.33.1 2.03.74 2.77 2.62 3.02.59.08 1.18.5 1.53 1.1.33.55.45 1.25.23 1.25q-.15 0-.21-.42Zm26.68-6.02c-5.44-1.14-9.19-3.7-13.15-8.99-.5-.67-.79-.97-.89-.94-.16.04-6 3.96-7.73 5.18-1.2.85-1.19.85-1.39.02-.39-1.64-1.51-5.79-1.59-5.87-.14-.14-4.53.99-9.72 2.5-.46.13-.19-.35 3.96-7.35.66-1.12.64-.97.21-1.6-.28-.43-.48-.92-.71-1.78-.01-.06-1.43-.8-3.14-1.64-2.17-1.07-3.1-1.57-3.08-1.67.04-.18 2.95-1.33 5.93-2.34 1.16-.39 2.11-.72 2.12-.72.01-.01.09-.55.18-1.21.08-.66.18-1.33.21-1.48.06-.26-.03-.22-1.13.62-1.38 1.07-1.37 1.07-1.48-.3-.04-.49-.1-.89-.14-.89-.15 0-.31.25-.31.47 0 .29-.07.29-.3.01l-.18-.23-.11.28c-.06.16-.11.33-.11.38 0 .16-.11.1-.32-.16-.14-.18-.29-.25-.54-.25-.39 0-.46-.17-.09-.26.34-.08.5-.31.47-.65-.04-.33.13-.39.23-.09.08.26.31.26.45 0 .14-.27.24-.25.38.05.23.51.57.15.36-.39-.03-.08-.66-.47-1.4-.87s-1.33-.77-1.31-.83c.02-.08 2.26-1.31 2.7-1.48.04-.02.17-.62.29-1.34.3-1.92.31-1.92 1.83-.54l1 .91.95-.06c.52-.03 1.18-.08 1.46-.12.58-.06.77.14.54.58-.16.29-.11.32 1.2.79.63.23 2.17.8 3.43 1.26l2.27.86.68-.74c.38-.4 1.52-1.65 2.54-2.78 2.44-2.7 2.39-2.66 2.65-2.43.18.16 2.56 2.83 4.06 4.55.64.74.6.73 1.42.25.74-.43 5.8-3.19 6.53-3.56.51-.26.63-.29.68-.17.03.08-.2 1.67-.5 3.53-.63 3.78-.64 3.43.12 3.84.26.15.32.27.46.89.2.88.16.94-.54.75-1.84-.49-1.36-.05 1.11 1.02 5.25 2.28 5.81 2.56 5.57 2.79-.11.1-4.52 2.01-6.76 2.92-.34.14-.62.3-.62.36 0 .21 2.41 5.01 2.83 5.65l.42.63.5-.05c1.62-.19 2.25-.2 2.3-.05.03.08-.24.7-.6 1.37l-.66 1.22.56 1.23c.82 1.82.81 1.82-1.1 1.51-1.36-.23-1.29-.25-2.35.71-1.48 1.33-1.46 1.33-1.63.03-.14-1.03-.3-1.21-.53-.59-.12.32-.13.33-.2.12-.13-.45-.44-.2-.44.36v.26l-.33-.36c-.26-.29-.38-.35-.6-.31-.39.08-.34-.14.08-.31.32-.14.35-.18.35-.58l.01-.43.18.23c.21.24.51.3.51.08 0-.07.07-.19.15-.26.13-.11.15-.08.15.13 0 .16.08.31.21.37.28.16.34.06.23-.38-.08-.33-1.58-1.31-2.69-1.75-.22-.09.25-.43 1.25-.9.58-.27 1.11-.54 1.18-.6.11-.09-4.45-.96-5.07-.97-.25 0 .08 2.19.55 3.65 1.08 3.36 3.09 5.85 6.72 8.29 1.42.97 1.32 1.05-.73.62Zm.84-.2c-.02-.01-.47-.33-.99-.71-4.19-2.99-6.29-6.48-6.76-11.23-.08-.88-.37-.85 2.74-.31 1.3.22 2.51.43 2.69.46.36.06.42-.05.46-.87l.02-.45-.9-.06c-.49-.04-1.9-.1-3.12-.14l-2.23-.08v.64c.01 3.92 1.03 6.84 3.49 9.92.8 1.01.72 1.1-.45.48-3.93-2.11-6.74-4.48-8.89-7.51-.36-.52-.68-.96-.7-.98s-1.84.87-4.06 1.99c-3.39 1.7-4.04 1.99-4.13 1.87-.06-.08-.56-1.08-1.11-2.22l-1-2.07-.55.06c-.3.04-1.97.26-3.7.51-3.64.51-3.3.48-3.3.31 0-.11 1.22-2.77 2.14-4.66.32-.66.32-.76.05-.95-.21-.15-.24-.11-1.11 1.37-2.9 4.92-3.69 6.29-3.65 6.34.03.02.43-.07.89-.21 1.23-.37 7.43-2.04 8.1-2.18.75-.15.67-.27 1.28 2.07.28 1.1.6 2.29.7 2.65s.26.91.35 1.23l.16.58.37-.29c.2-.16 1.72-1.21 3.37-2.32 1.65-1.12 3.46-2.34 4.02-2.72 1.18-.8 1.04-.81 1.85.25 4.06 5.37 7.14 7.61 12.23 8.93 1.13.29 1.88.42 1.74.3Zm-4.88-2.73c-2.45-3.21-3.34-5.64-3.35-9.13l-.01-1.75 2 .03c1.1.01 2.49.06 3.08.1.6.04 1.1.05 1.11.02s-.28-1.13-.66-2.45-.7-2.58-.71-2.79l-.02-.39 1.17-.71c1.39-.84 1.45-.89.81-.69-.76.24-1.98.22-2.53-.05-1.42-.7-1.86-1.02-2.43-1.77l-.29-.4.06.35c.07.46.26 2.09.26 2.35 0 .29-1.54 1.12-1.75.95a.54.54 0 0 1-.15-.36c0-.12-.04-.25-.08-.28-.15-.09-.81.16-.76.29.06.15-.29.42-1.03.79l-.53.26-.25-.4c-.22-.36-.28-.39-.46-.29-.3.15-.5-.07-.84-.93l-.28-.71-.37 1.07c-.49 1.42-.67 1.56-1 .76-.1-.25-.16-.28-.41-.23-.2.04-.35 0-.48-.11-.2-.18-.31.22-.31 1.18 0 .64-.08.7-.83.62-.5-.06-.69-.13-.85-.31-.12-.13-.37-.26-.61-.3-.36-.06-.43-.11-.48-.36l-.06-.29-.22.41c-1.68 3.16-7.12 2.21-7.6-1.32-.12-.89-.11-.87-.7-1-1.5-.33-2.51 1.07-1.88 2.62l.16.41.49-.04c.34-.04.62-.15.94-.37.55-.4.68-.36.85.29.1.39.16.49.28.44.45-.19.54-.11.69.59.16.83.11.91-.79 1.32-1.27.57-2.3.55-3.46-.06-.53-.28-.57-.29-.67-.12-.06.1-.58 1.17-1.14 2.38-.57 1.21-1.09 2.26-1.14 2.33-.19.23-.04.22 2.38-.13 3.81-.54 4.86-.67 4.94-.58.04.04.37.71.74 1.48.36.77.83 1.72 1.04 2.12l.37.71 3.95-1.98c2.17-1.1 4-1.99 4.06-2 .06 0 .52.59 1.04 1.32 1.81 2.55 3.92 4.43 7.29 6.45 1.74 1.05 1.7 1.03 1.42.66Zm5.79-5.03c.17 0 .74.05 1.26.12.52.06.96.09.99.06s-.17-.58-.44-1.23l-.49-1.18.54-1.02c.69-1.3.74-1.22-.58-1.12l-1.11.09-.97-1.04c-1.09-1.16-.98-1.18-1.25.22-.33 1.72-.19 1.53-1.63 2.21l-1.26.6.26.17c.14.09.71.39 1.26.66 1.13.56 1.05.43 1.23 1.98l.12 1.07.88-.8c.7-.62.95-.79 1.19-.79Zm-21.86-3.44c-.04-.11-.14-.13-.34-.09-.35.07-.35.09-.55-1.8-.21-1.94-.21-1.93.16-2.06.56-.19.77-.15.84.2l.07.3.3-.4c.39-.54 1.31-.82 1.41-.43.04.13.05.12.06-.05.02-.35.89-.59 1.13-.32.16.19.17.19.55-.01.77-.4.98-.38 1.25.11l.23.44.03-.3c.06-.63.11-.73.52-.89.53-.21.7-.2.7.04 0 .29.41.26.71-.06.54-.6 1.48-.8 2.05-.45l.32.19.05-.27c.11-.51 3.17-1.24 3.17-.75 0 .08.09.14.2.14.42 0 .19.87-.28 1.07-.34.14-.34.15-.28.61.04.26.09.82.13 1.24l.06.78-.44.2c-.38.17-.45.18-.55.05a.41.41 0 0 0-.28-.15c-.21 0-.31-.28-.4-1.05-.17-1.49-.13-1.4-.57-1.42-.35-.01-.39.01-.39.23s-.04.24-.5.24c-.82 0-1.1.2-1.09.78l.02.47.06-.4c.06-.37.09-.41.56-.57.7-.24 1.05-.23 1.05.02 0 .15.07.2.24.2.7 0 .21 1.71-.59 2.1-1 .48-2.28.02-2.91-1.06-.09-.15-.12-.01-.18.74-.06.78-.11.94-.29 1.07-.27.19-.57.19-.57.01 0-.09-.07-.12-.19-.09s-.24-.03-.33-.16c-.16-.22-.28-.18-.28.08 0 .34-.47.77-.69.63a1.1 1.1 0 0 0-.44-.12c-.21 0-.33-.18-.88-1.25-.35-.69-.66-1.25-.69-1.25-.17.01-.82 1.23-.69 1.31.43.24 1.59 1.11 1.59 1.19 0 .05-.19.2-.42.34l-.41.25-.41-.21c-.23-.11-.55-.31-.73-.44l-.32-.24.06.49.06.49-.42.21c-.35.18-.42.19-.47.07Zm.13-1.26c-.09-.77-.05-.78.9-.13.81.56.82.56 1.08.39l.26-.17-.36-.29c-.19-.15-.58-.43-.85-.6-.6-.39-.61-.27.01-1.22.56-.88.56-.93.08-.81-.24.07-.44.24-.74.68-.54.77-.65.8-.65.16 0-.46-.02-.51-.22-.51-.47 0-.49.08-.33 1.25.08.61.15 1.27.15 1.47 0 .62.07.7.42.52.3-.16.31-.17.25-.74Zm3.8-.08c.06-.04.21-.36.33-.72.3-.89.33-.9.75-.21.62 1.02.75.83 1-1.43.17-1.54.17-1.54-.23-1.37-.28.12-.3.16-.36.88-.03.42-.09.79-.12.82-.08.09-.42-.39-.6-.87-.16-.39-.2-.43-.43-.37-.4.1-.43.18-.25.66.17.45.17.45-.1.88-.15.24-.29.41-.31.39s-.18-.41-.35-.87c-.38-1.05-.35-1.01-.68-.92-.41.11-.38.31.23 1.59.78 1.63.84 1.72 1.12 1.54Zm18.55-.93c-.18-.22-.32-.29-.6-.3-.33 0-.35-.01-.18-.12.5-.3.68-.57.61-.89-.09-.37.08-.31.3.13.13.25.21.29.55.29.48 0 .51.11.08.31-.28.12-.34.2-.36.52-.04.44-.1.45-.4.06ZM29.8 30.9c.34-.18.51-.55.52-1.14.02-.67 0-.69-.45-.61-.65.13-.88.55-.36.68.28.07.24.45-.05.58-.58.27-1.16-.28-1.16-1.09 0-.78.47-1.2 1.22-1.08.43.07.49-.03.18-.34-.38-.38-1.51-.15-1.89.39-1.04 1.46.46 3.43 1.99 2.61Zm10.4-.89c.01-.14.78.13 1.02.36.23.22.03-.25-.91-2.17-.92-1.89-1.17-2.48-1.08-2.57.07-.06.75-.38 1.52-.71 2.09-.89 5.15-2.18 5.54-2.34l.35-.14-1.45-.66c-.79-.36-2.23-1-3.19-1.41-2.86-1.23-3.1-1.35-3.1-1.52 0-.08-.07-.15-.15-.15-.19 0-.21.54-.02.7.06.06 1.11.72 2.32 1.48s2.21 1.44 2.22 1.52c.03.15-2.39 1.78-4.09 2.77-.94.55-.93.22-.06 3.35l.72 2.59.18-.53c.1-.29.18-.55.18-.57Zm-7.98.28c.19-.1.2-.17.13-1.43l-.07-1.32.33-.1c.27-.08.35-.16.37-.37.04-.33.12-.33-1.26.02-1.31.34-1.22.29-1.15.62.05.25.07.26.4.17.54-.15.59-.08.67.79.16 1.81.17 1.84.58 1.62ZM14.5 28.75c1.15-.4 1.31-.64 1.02-1.57l-.17-.58-.49.32c-1.41.92-2.81.07-2.81-1.72 0-1.51 1-2.19 2.61-1.79.57.15.57.15.41-.7-.18-.95-.2-.96-1.35-.96-.88 0-1.03.03-1.62.31-3.99 1.91-1.75 8.15 2.4 6.69Zm6.22-1.52c3.03-1.43 2.89-6.19-.21-6.84-2.12-.45-4.33 1.23-4.49 3.41-.2 2.83 2.22 4.6 4.7 3.43Zm4.68-2.58c0-1.92.04-2.1.34-1.47.34.7 1.16 2 1.31 2.06.23.08.39-.25.9-1.89.52-1.68.51-1.67.64-1.34.07.18.79 1.96 1.28 3.16.08.2 1.53-.33 1.53-.57 0-.09-1.17-3.22-2.02-5.38-.37-.95-.37-.95-1.33-.44l-.49.27-.31 1.25c-.49 1.95-.35 1.99-1.61-.37-.44-.84-.36-.8-1.06-.49l-.55.24-.05 2.04c-.03 1.11-.02 2.59.01 3.28l.06 1.25.5.12c.93.21.85.37.85-1.72Zm-6.35 1.31c-1.21-.54-1.45-2.97-.37-3.74.73-.52 1.72-.18 2.19.76.83 1.7-.35 3.63-1.82 2.98Zm1.35-.54c.59-.58.65-1.79.14-2.57-.48-.73-1.54.39-1.54 1.62 0 1.31.62 1.73 1.4.95ZM9.8 25c0-.25-.31-.48-2.32-1.71-.78-.47-.98-.31 3.14-2.5l1.77-.94.53-1.57c.29-.86.5-1.59.48-1.61-.03-.03-.26-.08-.52-.12l-.47-.07-.1.4c-.06.22-.19.94-.3 1.61-.1.67-.2 1.24-.23 1.26-.03.03-1.03.38-2.24.79-1.2.41-2.98 1.05-3.94 1.42l-1.74.69 2.89 1.41c2.98 1.46 3.05 1.48 3.05.94Zm23.78-.62c.63-.23.61.11.17-3.3-.44-3.35-.47-3.54-.66-3.5-.41.08-1.59.58-1.59.68 0 .26.83 5.64.95 6.22.06.25.19.24 1.13-.1Zm-23.5-.62c.37-.79.95-1.44 1.6-1.79 1.38-.75 3.24-.73 3.51.04.06.19.17.29.3.29.11 0 .26.07.34.15.14.13.19.09.45-.38.86-1.52 3.06-2.38 4.68-1.83.84.28 2.14 1.37 2.52 2.11l.21.4.01-1.42c0-1.79.02-1.83.86-2.19l.67-.28.28.34c.16.19.29.38.29.42s.09.08.19.08c.13 0 .31.19.53.54l.33.54.25-.97.25-.96.74-.37c.94-.48 1.07-.48 1.27.02.14.36.18.39.45.33.34-.07.29-.17 1.44 2.99.44 1.19.8 2.16.82 2.14.01-.01-.04-.42-.12-.92-.43-2.61-.74-4.85-.69-4.97.08-.21 1.85-.87 2.05-.76.09.05.2.24.23.43.06.33.08.35.33.25.29-.11.53.03.53.31 0 .5.13.47.41-.09.55-1.1 1.56-1.82 2.82-2.02.34-.06.65-.13.68-.17.11-.12.22-3.12.12-3.12-.05 0-1.39.43-2.97.96-2.65.88-2.89.94-3.1.81-.12-.08-1.03-.82-2.02-1.64-.98-.82-1.93-1.59-2.11-1.72l-.32-.24-.63.52c-.35.28-1.64 1.33-2.87 2.33l-2.24 1.81-3.61-.93c-1.98-.51-3.65-.93-3.69-.94-.05 0-.15.16-.24.37-.15.36-.14.4.22 1.37.45 1.2.43 1.24-.45 1.16l-.68-.07-.56 1.69-.57 1.69-2.64 1.39c-1.69.89-2.6 1.42-2.52 1.47.26.17 2.32 1.46 2.34 1.47 0 0 .15-.29.31-.64ZM39 23.39c.6-.15 1.42-.68 1.36-.87-.03-.09-.1-.38-.17-.64-.13-.55-.16-.56-.65-.23-1.38.94-2.92-.14-2.82-2 .07-1.47 1.07-2.07 2.63-1.6.62.18.62.19.34-.61-.27-.77-.46-.93-1.21-1.01-3.27-.34-5.08 3.7-2.74 6.11.9.92 1.93 1.19 3.26.85Zm3.18-.45c.4-.25.72-.49.72-.52 0-.04-1-.7-2.22-1.47-1.64-1.03-2.24-1.46-2.28-1.63-.14-.64-.6.13-.6 1.01 0 1.38.61 1.75 1.7 1.03.54-.36.66-.33.86.19.18.47.24.51.54.35.27-.15.4.14.4.89 0 .73-.02.73.88.15ZM11.35 16.6c.67-.52.84-.61 1.1-.56 1.03.17 2.06.28 2.1.24.03-.03-.14-.62-.39-1.32l-.45-1.26.54-1.06.54-1.05-1.29.07-1.28.07-.97-.84c-.52-.46-.99-.83-1.03-.82s-.14.47-.23 1.02-.19 1.11-.22 1.23c-.05.18-.33.36-1.27.8-.68.32-1.19.62-1.16.67.04.06.56.36 1.16.67 1.36.71 1.27.58 1.41 1.97l.12 1.16.26-.18c.14-.11.62-.47 1.06-.81Zm38.93.29c-1.79-.94-2.67-2.4-2.88-4.77-.25-2.75-.84-3.42-2.99-3.42-2.06 0-2.89-.9-3.01-3.3-.1-2.04-.53-2.59-2.35-3.04-1.33-.33-1.89-.86-1.9-1.8 0-.46.02-.51.23-.54.23-.03.23-.03.08.21-.21.31-.06.78.37 1.25.3.31.51.4 1.88.77 1.33.35 1.91 1.28 1.99 3.2.11 2.29.67 2.86 2.97 2.99 2.18.13 2.7.75 2.98 3.53.25 2.49 1.13 3.91 2.9 4.74.36.17.65.37.65.45 0 .2-.06.18-.92-.27Zm-10.88-.68c0-.05.23-1.45.51-3.11s.49-3.04.47-3.06c-.04-.04-3.31 1.72-6.01 3.22-.92.52-1.71.94-1.76.94s-.35-.3-.67-.67c-3.27-3.77-4.18-4.73-4.35-4.56-.09.1-.99 1.1-2 2.23s-2.2 2.42-2.64 2.88l-.8.84-2.2-.82c-3.17-1.19-4.88-1.8-5-1.8-.22 0-.86 1.49-.74 1.72.11.21.12.2.25-.1.18-.43.04-.45 4.09.59l3.54.92 1.73-1.39c.95-.76 2.24-1.8 2.86-2.31 1.35-1.1 1.17-1.08 2.19-.25.45.37 1.47 1.2 2.27 1.85l1.45 1.18 2.9-.95c1.6-.53 3.01-.96 3.13-.96.22 0 .22.82.02 2.97l-.06.61.28.05c.51.07.54.07.54-.02ZM12.9 10.6c-.06-.11-.19-.2-.29-.2s-.21-.09-.24-.2c-.04-.15-.14-.2-.36-.2-.42 0-.39-.18.04-.26.38-.07.6-.34.52-.65-.08-.29.12-.33.23-.05.13.34.47.67.63.6.33-.12.39.24.08.41-.22.11-.31.23-.31.4 0 .32-.16.4-.3.15Z"/></svg>