<svg xmlns="http://www.w3.org/2000/svg" width="51" height="51" viewBox="0 0 51 51"><path fill="#fff" fill-rule="evenodd" stroke="#fff" stroke-width=".772" d="M26.21 48.03c-.85-1.75-1.72-3.6-1.95-4.12l-.4-.93.28-.23c.89-.71 7.7-4.6 13.81-7.9 1.1-.59 2.15-1.16 2.33-1.26.77-.44.78-.23.13 1.71-.63 1.86-5.73 15.18-6.03 15.74-.36.68-.08-.27.58-1.95 2.91-7.42 5.46-14.26 5.68-15.22l.07-.28-.33.17C35.7 36.17 24.39 42.61 24.15 43c-.06.1.72 1.81 2.48 5.46.7 1.43 1.27 2.63 1.27 2.67 0 .32-.37-.36-1.69-3.1Zm-9.14-1.76c-2.09-3.2-2.68-7.88-1.32-10.58 1.17-2.32 4.04-4.55 12.4-9.59 5.42-3.28 7.72-4.81 10.55-7.05 1.56-1.23 1.64-1.25 2.88-.65 4.06 1.99 4.4 8.92.58 11.65-.75.53-1.36.87-4.41 2.5-13.17 6.99-17.15 9.66-19.79 13.28-.54.73-.66.79-.89.44Zm1.08-.98c2.74-3.53 6.48-5.98 20.3-13.34 4.55-2.42 5.35-3.18 5.95-5.66.72-3.01-.28-6.06-2.45-7.45-1.08-.69-1.64-.78-2.18-.37-4.36 3.36-5.77 4.32-11.01 7.48-7.63 4.61-11.18 7.19-12.35 8.99-1.36 2.09-1.59 4.95-.65 8 .31.99 1.41 3.26 1.57 3.25.07 0 .44-.41.82-.9Zm-1.59-13.41c-1.47-2.25-1-5.6 1.08-7.85 1.54-1.65 3.13-2.72 7.31-4.9 3.29-1.72 4.66-2.67 5.11-3.54.33-.64.05-1.71-.58-2.24-.7-.59-2.47-1.25-3.34-1.25-.48 0-.5-.14-.09-.7 1.44-1.96 4.01-3.36 6.35-3.47 4.18-.2 7.1 2.28 7.75 6.57.33 2.15.3 2.18-11 9.37-9.31 5.93-9.8 6.25-11.48 7.6-.89.71-.91.72-1.11.41Zm3.99-2.72c.93-.62 4.2-2.72 7.25-4.66 8.88-5.65 10.65-6.84 11.68-7.93l.52-.56v-.73c0-3.2-2.02-6-4.95-6.86-2.92-.87-5.75-.04-8.17 2.38-.92.92-1.03 1.1-.65 1.1 1.43 0 3.52 1.13 3.98 2.15.73 1.59-.37 2.74-4.85 5.08-5.1 2.65-7.41 4.37-8.59 6.38-.98 1.66-1.12 3.89-.36 5.66.34.79.3.79 1.42-.08.56-.44 1.79-1.31 2.72-1.93Z"/></svg>