<svg xmlns="http://www.w3.org/2000/svg" width="51" height="51" viewBox="0 0 51 51"><path fill="#fff" fill-rule="evenodd" stroke="#fff" stroke-width=".741" d="M24.95 48.91c-.14-.06-.58-.88-1.37-2.52-.64-1.34-1.94-4.03-2.88-5.98s-1.69-3.61-1.68-3.7c.07-.35 2.85-2.06 7.93-4.86 6.49-3.58 7.73-4.22 7.81-4.02.08.23-1.12 3.44-5.6 14.96-2.62 6.73-2.32 6.15-3.27 6.18-.4.01-.83-.02-.94-.06Zm2.26-1.79c3.83-9.76 7.35-19.02 7.22-19.02-.45 0-13.85 7.56-14.78 8.34l-.39.33.33.74c.19.41 1.1 2.32 2.04 4.24.93 1.93 2.03 4.22 2.44 5.1.94 2 .8 1.85 1.74 1.85h.78zm-14.86-9.39c-2.2-4-2.23-7.91-.08-10.75l.51-.66-.49-.99c-1.18-2.4-1.21-4.7-.08-6.59 1.04-1.75 2.93-3.18 7.29-5.51 4.62-2.46 5.36-3.08 5.28-4.39-.05-.83-.35-1.22-1.31-1.69-.71-.34-2.07-.75-2.54-.75s-.27-.4.7-1.34c2.83-2.79 6.34-3.31 9.44-1.4 2.1 1.3 3.33 4.25 3.07 7.42-.05.67-.04.82.08.82.08 0 .52.18.97.4 2.6 1.26 3.75 4.2 2.91 7.45-.58 2.29-1.35 3.02-5.45 5.2-13.2 7.03-16.66 9.32-19.21 12.7-.31.41-.6.75-.64.75-.05 0-.25-.3-.45-.67Zm1.07-.46c2.34-3.1 6.45-5.81 18.73-12.32 4.42-2.34 5.2-3.07 5.75-5.38.76-3.15-.44-6-3.01-7.17-.69-.31-.83-.27-1.67.47-2.38 2.07-5.76 4.29-10.87 7.13-7.85 4.36-10.45 6.68-11.26 10.05-.48 2.01.16 5.28 1.46 7.5.32.55.23.58.87-.28Zm.25-11.84c1.98-1.76 4.18-3.21 8.63-5.68 4.98-2.76 8.6-5.15 11.01-7.28l.54-.47.04-1.12c.12-3.56-1.06-6.09-3.39-7.26-3.03-1.51-6.22-.9-8.82 1.69-.76.74-.82.89-.39.89.35 0 1.8.44 2.33.71.85.43 1.47 1.24 1.48 1.93.01 1.4-.94 2.18-5.95 4.86-4.65 2.49-6.5 4.09-7.26 6.3-.29.85-.31 2.53-.05 3.5.18.68 1 2.5 1.12 2.5.04 0 .36-.26.71-.57Z"/></svg>