<svg xmlns="http://www.w3.org/2000/svg" width="51" height="51" viewBox="0 0 51 51"><path fill="#fff" fill-rule="evenodd" stroke="#fff" stroke-width=".416" d="M16.83 50.78c-.55-.58-.59-.68-.83-1.99-.32-1.82-.29-1.79-1.85-2.04-1.71-.27-2-.5-1.99-1.56l.01-.69-.41-.11c-4.71-1.2-6.69-2.73-9.17-7.04-.51-.89-.81-1.28-1.61-2.06-.83-.81-1.38-1.65-.88-1.34.06.03.1 0 .1-.08 0-.29.31-1.17.4-1.12.05.03.11-.03.14-.13.13-.39 1.08-1.23 1.95-1.7l.51-.29-.25-.11c-.39-.18-1.45.41-2.48 1.36-.26.25-.47.4-.47.34 0-.19 1.17-1.16 1.86-1.54l.67-.36-.41-.13c-.45-.13-.8.02-1.66.7-.22.17-.41.29-.44.27-.09-.09.11-.27.85-.76.86-.56.74-.68-.32-.31-.3.11-.55.16-.55.11s.25-.17.55-.26l.55-.18-.31-.13c-.17-.07-.42-.13-.55-.13-.19 0-.24-.05-.24-.26 0-.24.02-.25.32-.18.18.04.91.1 1.63.14l1.3.07-1.1.02-1.1.03.72.25c.86.29 1.34.21 2.38-.43.33-.2.7-.42.83-.49.26-.14-3.39-.26-4.45-.15-.29.04-.53.03-.53-.01 0-.15.84-.18 3.31-.12 2.8.07 3.04.02 1.97-.37-1.68-.62-3.08-.9-4.45-.9-.82 0-.83 0-.83-.25 0-.14.06-.25.13-.25.12 0 .7-.7.64-.76-.01-.02-.19.01-.4.05-.33.08-.37.07-.37-.1 0-.1.07-.19.15-.19.12 0 .15-.14.15-.62.01-2.62 2.47-6.21 6.22-9.06.94-.72.96-.75 1.22-1.46 1.31-3.57 5.94-5.55 9.31-3.97l.62.28.2-.62.2-.62-.59-.89c-.83-1.24-1.35-2.36-1.62-3.51-.13-.54-.32-1.29-.41-1.68C15.07 1.91 15 1.52 15 .78c0-1.19.17-.93.22.34.04.75.12 1.33.26 1.73.11.33.28.98.37 1.45.21 1.02.48 1.84.87 2.65.31.62 1.38 2.29 1.43 2.23.02-.02.3-.64.62-1.38.83-1.91 1.34-2.73 2.22-3.6 2.04-2.02 6.74-4.77 7.03-4.12.02.04.28.24.59.44s.78.64 1.04.97c.57.73.7.76.61.19-.08-.53-.21-.65-1.21-1.22-.77-.44-.97-.63-.32-.3.88.44 1.48.9 1.54 1.17.07.35.23.45.23.15 0-.45-.21-.97-.47-1.18-.42-.33-.5-.23-.12.17l.34.37-.55-.39c-.3-.21-.56-.39-.57-.4-.02-.01.22-.02.52-.03.54-.01.92.19.96.52.01.06.05-.05.09-.24.08-.39.16.45.12 1.22-.02.35.01.4.55.77.32.21.74.55.93.75.32.32.8.49.8.27 0-.09-.91-.96-1.3-1.24-.24-.17-.23-.17.09 0 .18.1.6.44.92.75.51.52.62.58.98.58.6 0 .54-.22-.29-1.03-.38-.37-.64-.65-.57-.61.39.23.9.71 1.22 1.14.34.47.85.71.85.4 0-.11-1.25-1.4-1.6-1.64-.21-.14-.2-.14.08.01.51.27 1.09.8 1.43 1.29.28.41.99.67.99.36 0-.44-1.27-1.64-2.79-2.64-.58-.37-.99-.68-.92-.68C32.9 0 36 2.66 36 3.28c0 .12.58.27.67.18.34-.34-1.7-2.2-3.42-3.13-.66-.36-.59-.46.08-.12 1.3.66 2.65 1.79 3.27 2.72.39.58.58.75.87.76.16.01.08-.19-.41-1.03-.56-.93-1.36-1.65-2.47-2.2-.5-.25-.84-.46-.76-.46.89 0 2.86 1.63 3.58 2.97.6 1.11 1.08 1.29.53.2-.78-1.53-1.86-2.58-3.13-3.03-.29-.11-.31-.13-.12-.14 1-.01 2.75 1.68 3.47 3.37l.25.58-.07-.45c-.19-1.31-.94-2.4-2.18-3.14-.33-.2-.53-.36-.44-.36.91 0 2.62 2.14 2.75 3.46.06.54.83 1.29.83.81 0-.59-.6-2.25-.99-2.72l-.16-.2.24.2c.43.37 1.01 1.84 1.01 2.57 0 .14.14.38.35.58.43.41.45.31.15-.84-.36-1.41-1.22-2.63-2.49-3.54-.37-.27-.4-.32-.21-.32 1.12 0 2.96 2.72 3.17 4.7.05.47.13.7.39 1.03.47.6.91 1.55 1.1 2.34l.17.69.56.11c.31.06 1 .29 1.53.52 1.63.7 3.55 1.01 4.05.66.95-.67 1.57-3.28 1.19-5.05-.45-2.11-1.56-3.39-3.37-3.88C45.05.86 43.24 0 43.63 0c.15 0 .62.17 1.05.39.42.21 1.13.48 1.57.6 3.12.86 4.55 5.62 2.56 8.56-.38.56-.37.58.15.44.63-.17 1.19-.55 1.65-1.11.23-.29.46-.57.51-.62.05-.06.08-.04.08.05 0 .08-.24.41-.52.74-.45.5-.49.57-.28.52.75-.2.75-.2.63-.07-.06.07-.53.25-1.04.4-1.05.31-1.03.38.1.47.45.03.81.1.81.16 0 .12-1.1.04-1.99-.14l-.62-.13-1.22 1.23c-1.67 1.67-2.68 2.31-3.69 2.31-.34 0-.34-.07-.01.87.26.71.28.9.28 2.25 0 .94.04 1.44.1 1.4.06-.03.49-.32.98-.64 1.57-1.05 2.77-1.41 5.1-1.52 1.32-.07 1.37-.06 1.37.13 0 .18-.09.2-.92.25-.51.03-1.09.08-1.28.1-.19.03-.55.05-.8.06l-.45.02.4.1c.22.05.75.21 1.18.35.69.22.82.23 1.09.12l.31-.13-.49-.12c-.91-.21-1-.29-.31-.3.48-.01.55.01.32.07-.19.05-.06.06.33.02l.62-.05v.31c0 .23-.05.31-.17.32-.15 0-.15.02.02.09s.16.09-.1.1c-.16 0-.5.12-.75.24l-.45.24.37.07c.21.04.53.05.72.03s.32 0 .29.05-.39.07-.79.05c-1.05-.07-1.3.12-.47.35.33.09.76.17.96.17s.37.04.37.1-.08.1-.17.1c-.16 0-.16.02-.03.11.12.08.09.09-.1.04-.48-.13-2.37-.18-2.56-.07-.33.18.2.3 1.59.33l1.27.04v.6c0 .33-.07.99-.15 1.48-.09.48-.15.93-.14 1 .01.06-.02.23-.08.37-.4.98-1 2.77-1.34 3.98-.78 2.84-1.41 4.05-2.78 5.43-1.77 1.77-4.63 3.4-7.04 4-1.04.26-1.03.29.16.88 3.77 1.86 7.34.84 10.8-3.09.5-.57.57-.62.57-.4 0 .15-.17.44-.45.74-.25.27-.42.52-.4.57.03.04-.03.1-.12.13-.61.19-.44.46.29.46.39 0 .68.03.64.07s-.24.07-.44.06l-.37-.02.43.1c.68.16.43.21-.42.08-.74-.11-.78-.11-1.01.11-.38.36-.32.4.58.4.86 0 1.27.07 1.27.2 0 .05-.16.04-.35-.01s-.72-.09-1.17-.07l-.83.03.85.26c.47.15 1.01.31 1.2.37l.35.1-.31.01c-.17.01-.57-.08-.9-.2-1.19-.42-1.21-.42-1.55.04-.34.47-.34.5.12.37.18-.06.61-.09.94-.09l.6.02-.75.08c-.97.12-1.35.25-1.54.54-.23.35-.21.37.32.16.56-.22 1.63-.46 2.47-.56.9-.1.61.03-.41.2-.49.07-1.3.26-1.81.42l-.91.28-.31.57-.32.57 1.03-.49c1.51-.72 3.28-1.25 3.28-.99 0 .05-.12.09-.26.09-.64 0-3.63 1.2-4.16 1.68-.41.36-.1.27 1.15-.33 1.47-.7 3.27-1.3 3.27-1.07 0 .04-.28.14-.62.21-.82.17-3.68 1.35-3.55 1.47.01.02.3-.05.64-.16 1.21-.37 3.7-.84 3.51-.65-.02.03-.56.14-1.19.25s-1.37.27-1.64.35l-.5.15.5-.05c.27-.03 1.03-.02 1.67.01l1.18.07v.34c0 .18-.04.33-.1.33-.13 0-.13.96.01 1.59.06.28.09.59.07.68-.04.16-.15-.37-.33-1.5-.03-.21-.1-.35-.16-.32-.21.14-.01 1.34.34 2.02.37.71.16 3.03-.35 3.95-.27.47-1.52 1.59-2.65 2.37-1.1.75-1.75 1.3-1.67 1.42.03.05-.07.09-.21.09h-.27l.07-.77c.12-1.36.43-2.22 1.16-3.18.35-.47 1.07-2.21.95-2.32-.11-.12-.97 1.24-1.41 2.24-.62 1.41-.98 2.8-.91 3.51.04.46.02.53-.12.5-.29-.06-.52-2.3-.55-5.18l-.02-2.45.32-.62c.18-.33.39-.94.47-1.35.18-.88.92-2.37 1.91-3.87.38-.58.74-1.13.79-1.21s-.04-.04-.2.09c-2.78 2.15-6.19 2.35-9.17.54-.32-.19-.59-.34-.61-.32-.01.02-.12.81-.25 1.74-.37 2.85-.33 2.7-1.12 3.48l-.69.69.71-.39c1-.54 1.76-1.26 2.59-2.49.8-1.17.96-1.22.75-.24-.08.36-.19 1.26-.25 2-.33 4.2-1 6.08-3.15 8.83-.72.93-.83.95-1.56.25-.56-.55-3.77-2.34-4.02-2.25-.07.02.04.12.23.22s.69.41 1.1.7c.41.28.95.63 1.2.78.25.14.59.37.75.51.37.31-1.26-.65-2.16-1.27-1.14-.8-1.89-1.02-1.89-.57 0 .34 2.12 1.58 3.51 2.05.73.25.91.34.59.29-1.03-.14-2.73-1-3.96-1.99-.28-.23-.45-.31-.55-.25-.19.12.46.8 1.6 1.66.46.35.79.64.74.64-.18 0-1.35-.9-2-1.53l-.63-.61-.35.17-.36.17.42.36c.5.41 1.12.85 1.72 1.21.26.15.33.22.17.17-.34-.09-1.49-.84-1.99-1.3-.38-.33-.44-.36-.67-.25-.35.16-.29.27.59.99.43.34.73.62.68.62-.12 0-1.2-.81-1.45-1.09-.24-.26-.37-.26-.7 0l-.26.2.3.45c.17.24.27.44.22.44s-.22-.18-.37-.4-.31-.4-.35-.4c-.14 0-.5.47-.51.66 0 .18-.01.18-.08.01-.06-.17-.08-.17-.2-.03-.2.24-.55.22-.42-.02.08-.14.03-.37-.2-.93-.45-1.11-.69-2.06-.69-2.77v-.63l-.3.18c-.34.2-.34.21-.16 1.23.15.8.47 1.74.9 2.58.14.29.22.52.16.52-.26 0-1.18-2.51-1.27-3.46l-.06-.62-.33.2c-.51.3-.4 1.03.42 2.82.25.54.43 1.01.4 1.04-.14.13-1.26-2.63-1.26-3.11 0-.29-.07-.37-.26-.3-.25.1-.14.59.59 2.51.19.5.31.92.27.92-.09 0-.97-2.33-1.08-2.87l-.07-.36-.29.24-.28.24.31 1.31c.35 1.49.34 1.44.21 1.44-.05 0-.1-.08-.1-.17 0-.19-.5-2.36-.56-2.42-.21-.24-.33.3-.15.7.28.64.61 1.89.5 1.89-.05 0-.09-.06-.09-.13 0-.21-.58-1.89-.69-2-.19-.19-.41.49-.44 1.33-.01.44-.06.8-.11.8s-.06-.37-.04-.82l.05-.81-.29.31c-.23.26-.28.42-.29.85-.02.52-.02.52-.08.12l-.07-.4-.23.38c-.23.36-.59.53-.47.21 1-2.61 6.46-6.07 10.88-6.9 4.75-.89 6.28-1.95 6.58-4.59.06-.55.14-1.09.17-1.2s-.19.14-.48.55c-1.53 2.11-4.21 3.43-7.56 3.71-2.8.23-6.44 1.92-9.17 4.25-.83.71-.85.76-.61 1.49.04.14.02.12-.09-.05-.08-.14-.16-.34-.16-.45-.02-.46-1.84 1.86-2.26 2.88-.24.58-.38.59-.91.05Zm19.55.05c.02-.15-.13-.34-.55-.69-.8-.67-.82-.68-.48-.51.17.08.51.34.77.56.3.27.49.37.54.3.03-.06-.06-.22-.22-.36l-.29-.25.28.17c.28.16.57.15.57-.04 0-.05-.42-.3-.92-.56-.51-.26-1.45-.76-2.1-1.12l-1.16-.64-.47.29-.47.29 1.33.73c1.75.95 2.32 1.32 2.66 1.75.3.38.46.4.51.08Zm-18.89-.23c.69-1.99 3.9-4.93 7.29-6.67l1.05-.53h-.6c-1.63 0-3.49-.94-4.97-2.5l-.68-.72-1.01.21c-.56.11-1.35.24-1.75.27-.83.08-.81.05-.41.53.99 1.14 2.26 1.86 4.27 2.4.67.19.56.41-.21.41-.35 0-1.47.14-2.48.32-1.62.28-2.06.32-3.69.32-2.01 0-2 0-2 .58 0 .85.36 1.1 1.97 1.35 1.55.24 1.58.27 1.93 2.17.32 1.75.99 2.72 1.29 1.86Zm9.73-.23.27-.2-.2-.28c-.49-.7-1.09-2.46-1.09-3.23 0-.29-.08-.32-.35-.12-.28.21-.16 1.38.3 2.73.55 1.59.48 1.53 1.07 1.1Zm.77-.56.23-.18-.3-.54c-.45-.79-.9-1.97-.97-2.55-.08-.54-.27-.63-.56-.28-.25.3.27 2.29.85 3.28.3.51.4.54.75.27Zm8.8-.54c-.24-.22-.78-.59-1.19-.83s-.7-.44-.65-.44c.06 0 .41.18.79.4.98.58 1.88.93 1.98.77.05-.08-.05-.19-.27-.33-.54-.32-.55-.38-.02-.13.41.2.49.21.57.09.12-.2.06-.23-1.38-.71-1.63-.54-1.5-.62.16-.1 1.54.49 1.46.48 1.61.14.17-.36.14-.37-1.49-.62-.8-.13-1.81-.31-2.24-.42l-.8-.18-.43.32c-.54.4-.55.35.3.82 2.98 1.65 4.01 2.06 3.06 1.22Zm8.86-.25c.01-1.18.68-2.44 2.24-4.15.78-.87.91-1.23.33-.93-.64.33-2.05 2.15-2.58 3.33-.25.57-.29 1.82-.07 2.39.08.21.08.2.08-.64Zm-16.62.18c.28-.16 1.11-.56 1.83-.88 2.26-1.02 4.3-2.84 5.42-4.82l.23-.41-.28.07c-.15.04-.35.13-.44.2-.09.08-.18.11-.22.08-.05-.05-.98.21-1.22.34-.05.03-.22.07-.38.09-.45.05-2.9 2.4-3.41 3.27-.45.77-.57.87-.22.18.38-.75.98-1.44 2.01-2.32 1.01-.87 1.13-1.04.64-.9-.51.15-2.92 2.54-3.6 3.59-.16.25-.29.4-.29.34 0-.32 1.74-2.34 2.73-3.18.58-.49.57-.75-.01-.49-.17.07-.3.09-.7.12-.16.01-.26.11-.33.31-.06.16-.57.73-1.16 1.27-1.71 1.59-1.97 2.21-1.35 3.22.18.27.12.28.75-.08Zm-23.1-.28c-.59-.95-1.54-1.37-3.35-1.48-1.45-.09-1.5-.13-1.56-1.28-.05-.98-.12-1.07-.62-.81-.43.22-.5.11-.09-.14.68-.42.89-.21.89.86 0 1.03.06 1.09 1.37 1.16 1.64.09 2.57.44 3.25 1.21l.27.31-.16-.7c-.43-1.92-2.46-5.84-3.69-7.13l-.52-.54-.63.05c-.35.02-.75.08-.89.12-.24.07-.24.07-.08-.1.18-.2 1.08-.32 1.52-.21 1.32.33 4.8 6.96 4.64 8.84l-.03.36zM29.5 46c.66-.64 1.2-1.22 1.2-1.29 0-.18-.52-.05-.65.17-.05.09-.44.49-.86.89-.55.53-.83.89-1.02 1.31-.34.78-.44 1.18-.13.57.17-.34.64-.88 1.46-1.65Zm-.37-.34c.95-.91.92-.98-.28-.55-1.05.38-1.16.55-1.22 1.94l-.03.9.36-.75c.28-.59.53-.92 1.17-1.54Zm9.61 1.78c.12-.31.04-.33-1.16-.37l-1.23-.03 1.33-.02c1.21-.02 1.32-.04 1.32-.2 0-.17-.12-.2-1.2-.25-.66-.04-1.65-.14-2.21-.24l-1-.16-.31.31-.31.3.42.12c1.61.43 4.26.76 4.35.54Zm11.23-1c-.19-.49-.47-1.27-.63-1.74-.25-.76-.29-.82-.34-.55-.07.36.12 1.29.4 1.9.11.24.2.49.2.55s.12.29.27.51c.42.64.47.31.1-.67Zm-3.69-.58c.63-.94 1.79-2.12 2.17-2.2.28-.06.85-.69.73-.81-.43-.43-3.26 2.46-3.73 3.81-.17.52-.08.65.18.23.11-.19.4-.65.65-1.03Zm4.22.99c.01.06.05.01.1-.1.16-.36.1-.82-.15-1.36l-.26-.54.05.6c.03.33.08.76.1.95.04.23 0 .17-.08-.15a4.8 4.8 0 0 1-.15-1.11c-.01-.58-.33-1.89-.51-2.08-.09-.1-.4.44-.4.71 0 .09.2.71.44 1.38.24.66.5 1.38.57 1.6.1.34.13.37.2.2.04-.11.08-.15.09-.1Zm-11.27-.68c.12-.37.11-.38-.53-.21-.3.08-.75.14-1 .13-.42-.01-.4-.02.26-.14 1.18-.21 1.42-.32 1.49-.66.09-.42.06-.42-.45-.09-.76.49-1.57.64-2.73.51-1.01-.11-1.37-.05-1.37.23 0 .17 1.14.36 2.75.46 1.53.09 1.47.1 1.58-.23Zm7.26-1.4c.73-.93 1.45-1.55 2.09-1.83.78-.35.85-.39.9-.54.04-.1-.03-.11-.29-.07-1.59.31-3.89 2.5-3.89 3.71v.5l.35-.58c.19-.31.57-.85.84-1.19Zm4.31.29c-.09-.54-.74-2.76-.8-2.76-.39-.01-.22 1.01.48 2.84.28.73.44.69.32-.08Zm-12.63.38c.26-.09.68-.3.93-.47s.46-.31.47-.31c.01-.01.05-.14.09-.3l.07-.3-.34.21c-.7.44-1.82.73-2.75.73-.84 0-1.24.13-1.24.41 0 .22 2.15.24 2.77.03ZM46 44.31c.85-1.04 2.8-2.24 3.39-2.08.15.04.27-.03.42-.24l.2-.29h-.21c-.56 0-2.8.9-3.54 1.43-.47.33-.96 1.19-.96 1.69v.43l.18-.26c.09-.14.33-.45.52-.68Zm-8.15.44c.81-.22 1.83-.73 1.91-.97.09-.29-.01-.32-.33-.1-.15.11-.39.23-.53.26-.14.04-.04-.05.22-.19.53-.28.78-.58.78-.94 0-.22-.06-.18-.64.37-.35.34-.68.62-.72.62s.23-.27.59-.6c.72-.66.87-.98.86-1.74l-.02-.5-.14.29c-.09.15-.16.34-.17.41s-.09.21-.18.31c-.08.1-.31.43-.5.74-.2.3-.5.71-.67.91s-.25.36-.19.35c.81-.03-.27.39-1.27.49-.59.07-.85.17-.85.35 0 .15 1.21.1 1.85-.06Zm-22.61-.43c.02-.04-.14-.34-.36-.66s-.37-.6-.35-.62c.06-.07.63.66.78.99.12.28.3.32.77.19.23-.07.23-.07-.08-.26l-.32-.18.11.21c.18.33.04.25-.22-.14-.27-.4-.96-.97-1.08-.9-.04.03-.1.01-.14-.04-.03-.06-.2-.2-.38-.33l-.32-.23.2.31c.11.17.4.63.65 1.02.42.66.62.84.74.64Zm-2.63-.97c-1.07-3.92-.94-3.6-1.86-4.74-.8-.99-.87-.98-.4.07.19.44.35.84.35.88s.2.5.44 1.03c.56 1.23.74 1.82.89 2.78.12.75.13.78.42.83.38.07.4 0 .16-.85Zm24.23.69c.09-.08.16-.11.16-.06s.07.09.15.09.12-.04.09-.09c-.03-.04.01-.05.09-.02.36.13 2.13-2.31 1.92-2.66-.03-.06-.01-.09.06-.08.06.02.14-.04.16-.12.04-.12.03-.12-.05-.02-.05.08-.12.12-.14.1-.03-.01-.38.27-.77.63-.39.37-.71.65-.71.62 0-.22-.58.44-.77.89-.14.32-.3.58-.35.58s-.07.04-.04.09c.04.05 0 .12-.06.14-.09.04-.09.06-.01.06.06.01.19-.06.27-.15Zm-24.97-.59c-.06-.67-.54-2.22-.88-2.85-.23-.42-.21-.3.13 1.05.13.52.22 1.21.22 1.62 0 .76-.01.74.5.82.05 0 .06-.28.03-.64Zm33.63.39c0-.58 2.18-1.83 3.83-2.19.9-.19 1.71-.74 1.1-.75-.84-.02-4.23.46-4.27.6-.22.82-.28.79.89.45 1.23-.36 1.18-.23-.07.17l-1.03.33-.33.64c-.31.63-.42 1.08-.22.96.06-.03.1-.13.1-.21Zm-34.3-.56c0-.78-.69-3.83-1.03-4.58l-.3-.65-.07.39c-.06.3-.02.47.15.8.38.68.66 2 .72 3.33.05 1.01.08 1.23.22 1.26.27.06.31-.02.31-.55Zm16.24-.46c1.24-.45 2.58-1.5 3.51-2.74.65-.87.5-.83-.67.19-2.1 1.82-3.59 2.63-4.82 2.63-.42 0-.04-.25.61-.4 1.34-.31 2.19-.86 4.63-2.97l1.24-1.08.13-.6c.35-1.7.07-3.35-.84-4.91-3.37-5.81-4.65-8.06-7.23-12.69-3.23-5.79-4.18-7.07-6.17-8.32-2.75-1.71-5.92-1.23-8.13 1.24-1.18 1.33-1.4 2.41-1 4.84.32 1.95.49 2.35 1.98 4.74 1.17 1.88 1.67 2.89 2.16 4.37.6 1.8 1.42 3.43 3.35 6.62.86 1.42 2.05 3.5 2.87 5 1.84 3.41 5.44 5.16 8.38 4.08Zm-11.32.04c-.62-.16-.85-.32-.27-.19.54.11 1.65.1 1.65-.02.01-.05-.52-.19-1.17-.31-1.57-.3-2.13-.52-3.38-1.37-.47-.32-.54-.28-.25.13.65.92 2.43 1.89 3.45 1.88h.5zm-7.13-.74c1.01-1.11 1.29-1.87.97-2.63-.24-.57-.28-.53-.61.53-.21.69-.48 1.3-.82 1.85-.47.75-.5.89-.21.92.03.01.34-.29.67-.67Zm-.86-.34c.15-.46.37-1.23.51-1.73.13-.49.36-1.3.5-1.79.32-1.07.32-1.21.04-1.66l-.21-.35-.29 1.4c-.16.77-.54 2.14-.84 3.04-.5 1.51-.6 2.01-.31 1.59.41-.57.39-.55.31-.33-.14.41-.16.65-.07.65.06 0 .22-.37.36-.82Zm23.5.36c3.31-.69 6.57-3.27 6.57-5.2v-.3l-1.02.08c-.57.05-1.39.13-1.82.18-1.02.13-1.01.15-.15-.82.87-.96.85-.96-.94.4-1.54 1.17-1.66 1.3-2.38 2.63-.64 1.18-1.31 2.03-2.14 2.7-.36.29-.65.55-.65.57 0 .08 1.81-.09 2.53-.24Zm-14.68-.04c-.1-.11-.34-.23-.54-.26-.67-.12-3.2-1.11-2.9-1.14.03 0 .63.23 1.32.5 1.33.53 1.6.59 1.51.36-.07-.19-1.24-.67-2.44-1.01-.52-.15-1.15-.38-1.39-.51-.89-.49-.46.16.56.84 1.47.99 4.55 1.96 3.88 1.22Zm-9.26-1.44c.46-1.38.84-2.86 1.02-3.97l.12-.77-.32-.43-.33-.44.05.39c.08.48-.13 1.6-.53 2.89-.17.54-.32 1.26-.35 1.6-.02.34-.15.96-.28 1.37-.18.54-.22.77-.14.82.19.12.34-.17.76-1.46Zm1.45-.46c.43-1.34.59-2.16.51-2.57s-.05-.49-1.08 3.22c-.14.49-.28.99-.32 1.1s.1-.07.29-.4c.2-.33.47-.94.6-1.35Zm-2.36.05c.93-2.26 1.36-3.86 1.3-4.85l-.03-.54-.64 1.54c-.35.85-.83 2.13-1.07 2.83-.23.7-.5 1.39-.59 1.53-.16.25-.16.27.11.55.35.36.33.38.92-1.06Zm41.62.7c.69-.08 1.48-.15 1.77-.15.28 0 .54-.04.57-.09.1-.15-1-.2-2.36-.1-1.88.12-2.08.16-2.08.41 0 .18.04.2.43.14.23-.04.98-.13 1.67-.21Zm-42.61-.57c.11-.29.32-.91.47-1.38.25-.82.85-2.33 1.38-3.53.39-.87.34-.99-.2-.47-.87.85-2.52 5.29-2.13 5.76.19.23.25.17.48-.38Zm9.86.22c-.03-.05-.21-.11-.38-.11-.29-.02-.29-.02-.05-.06l.26-.04-.26-.4c-.14-.22-.35-.41-.46-.44-.12-.02-.68-.11-1.25-.2-1.2-.18-1.92-.48-2.41-1.01l-.35-.38.42.32c.72.56 1.7.89 3.11 1.06.56.07.61.03.34-.32-.15-.19-.33-.25-.93-.33-.87-.11-1.59-.31-2.37-.65-.3-.13-.57-.22-.6-.19s-.12-.01-.21-.08c-.25-.2.26.48.81 1.08.28.31.71.68.96.83.84.5 3.57 1.25 3.37.92Zm-9.93-2.45c.22-.71.49-1.47.6-1.68.38-.75.1-.61-.44.23-.71 1.09-1.44 3.09-1.18 3.25.06.04.1-.08.11-.27.01-.18.05-.44.09-.58.06-.16.07.02.03.47-.07.92.06 1.16.25.43.07-.3.31-1.13.54-1.85Zm12.21 2.1c1.56-.28 1.62-.35.92-1.12-.56-.63-1.45-1.1-2.96-1.57-1.23-.38-1.6-.59-1.84-1.07-.21-.39-.12-.36.3.1.3.32.49.42 1.32.67 1.19.34 2.23.76 2.65 1.05l.3.22-.12-.24c-.33-.62-2.2-3.85-2.78-4.79-.35-.58-.82-1.39-1.04-1.8-1.11-2.07-1.07-2.03-2.2-2.61-.57-.28-1.28-.68-1.58-.87-.71-.45-2.52-.32-3.56.26-.42.23.29.46 1.01.32.36-.07.68-.1.71-.07s-.17.08-.43.12c-.74.1-.8.18-.36.48.29.2.48.25.78.23.22-.02.31-.02.2.01-.5.1-.51.14-.13.47.37.32.4.33 1.2.3.79-.02.77-.01-.2.12l-.42.05.62.7.62.69 1.16.01c.63.01 1.4.04 1.7.08.31.05-.21.06-1.15.03l-1.7-.05.36.39c.74.79 1.77 2.62 3.14 5.59.25.55.66 1.33.91 1.73l.45.72h.62c.34 0 1.02-.07 1.5-.15Zm-13.3-1.56c.45-1.19 1.15-2.26 2.14-3.29.84-.88.91-.99.79-1.16-.41-.55-2.59 2.03-3.11 3.69-.44 1.38-.3 1.98.18.76Zm-.33-.84c.42-1.36 1.18-2.41 2.59-3.58.69-.57.38-.87-.39-.39-1.56.97-2.69 2.92-2.7 4.63 0 .43.12.59.21.27.04-.13.17-.54.29-.93Zm10.1.65c0-.19-.4-.5-.64-.5-.98 0-3.24-.87-4.06-1.57-.47-.41-.46-.35.08.4.64.89 4.62 2.33 4.62 1.67Zm-10.7-.36c0-.26.5-1.94.71-2.4.3-.62.88-1.24 1.68-1.79.7-.48.76-.61.41-.83-.9-.56-2.92 1.55-3.05 3.19q-.045.63.03.39c.2-.59.72-1.33.72-1.02 0 .05-.06.15-.14.21-.21.18-.44.91-.4 1.31.03.3.02.31-.05.1-.06-.18-.08-.07-.09.43 0 .39.03.65.09.62.05-.04.09-.13.09-.21ZM14 37.7c-.13-.24-.14-.24-1.7-.74-1.34-.44-2.48-.97-2.81-1.32-.2-.22-.15-.2.35.1.86.52 3.38 1.46 3.9 1.46.06 0-.03-.19-.21-.47-.05-.07-.81-.35-1.69-.63-.89-.27-1.87-.61-2.18-.75-.32-.14-.55-.21-.51-.15.1.16-.11.12-.25-.05-.07-.08-.17-.15-.23-.15-.17 0 1.31 1.48 1.77 1.77.54.35 1.56.72 2.56.93 1.13.25 1.13.25 1 0ZM3.4 35.52c.26-1 1.18-1.99 2.26-2.43 1-.42.19-.77-1.01-.45-1.75.46-2.98 2.48-2.29 3.77l.19.34.06-.75c.1-1.27.44-2.1 1.07-2.66.42-.37.46-.28.06.13-.78.78-1.17 2.53-.84 3.73l.13.45.13-.87c.07-.48.18-1.05.24-1.26Zm30.31.14c.34-.61 1.59-2.75 2.77-4.76 2.84-4.81 2.66-4.49 3.72-6.55.51-.99 1.19-2.21 1.5-2.7 1.36-2.13 1.65-3.01 1.65-4.85-.02-4.78-4.19-7.67-8.87-6.14-2.02.66-3.16 1.92-5.16 5.64-1.08 2.02-2 3.66-2.98 5.33l-.64 1.08.16.32c.27.51 4.4 7.71 5.1 8.89 1.24 2.06 1.54 2.94 1.54 4.53l.01 1 .28-.34c.16-.19.57-.85.92-1.45Zm1.96-.55c1.01-.67 1.89-2.65 2.52-5.61.33-1.53.33-1.58-.01-.98-.13.24-1.08 1.85-2.1 3.59s-2.05 3.51-2.29 3.95l-.43.79.84-.66c.47-.36 1.13-.84 1.47-1.08Zm1.53 1.2c.55-.3 1.32-1.06 1.8-1.77.71-1.07.63-1.09-.38-.13-1.04 1.01-1.62 1.42-2.39 1.71-.32.12-.63.26-.7.32-.18.16 1.36.04 1.67-.13Zm-23.9-.05c0-.18-.24-.43-.48-.5-1.53-.45-2.79-.76-3.09-.76l-.38.01.29.16c.25.13 3.37 1.2 3.59 1.22.04.01.07-.05.07-.13Zm24.89.08c.99-.2 3.58-4.75 3.49-6.13l-.03-.46-.49.69c-.32.44-.66 1.11-.97 1.93-.73 1.9-1.39 2.89-2.43 3.67-.53.39-.42.47.43.3Zm-1.5-.53c.47-.25 1.23-.84 2.1-1.66.37-.36.72-.61.77-.57s.06.03.02-.02-.03-.15.02-.21c.11-.13.81-1.87.77-1.91-.03-.03-1.67 1.84-2.33 2.65-.33.42-.89 1.02-1.23 1.34-.68.62-.69.67-.12.38Zm3.74-.42-.02-.34.1.32c.11.39.38.35.4-.06.02-.24.02-.24.06-.03.13.65.26.08.25-1.04-.02-1.43.04-1.39.13.08l.07 1.07.39-.19c.48-.25.51-.51.12-1.3l-.26-.55-.07.3c-.06.23-.08.16-.1-.35-.01-.36-.06-.78-.1-.95l-.07-.3-.12.3c-.22.51-.69 2.01-.76 2.39-.04.2-.11.36-.16.36s-.09.16-.09.36c0 .24.04.34.13.31.07-.02.11-.18.1-.38Zm-38.07-1.2c.47-.92 1.57-1.65 2.67-1.77l.62-.07-.36-.28c-.97-.74-3.37 1.03-3.67 2.7-.05.29-.06.5-.02.48.04-.03.1-.22.14-.44.03-.21.15-.49.26-.62l.21-.24-.15.31c-.2.41-.31 1.08-.21 1.31.06.13.11.01.21-.44.07-.35.21-.77.3-.94Zm10.49 1.12c-.17-.34-.49-.43-2.33-.67-.62-.08-1.31-.21-1.52-.29-.4-.14-1.42-.85-1.23-.85.06 0 .22.09.36.2.49.39 1.15.6 2.48.79.74.11 1.49.23 1.68.27l.35.07-.2-.34-.2-.34-1.15-.07c-1.74-.11-2-.25-.35-.2l1.39.05-.27-.36c-.25-.33-.3-.35-.54-.25-.17.06-.64.08-1.23.04-.74-.05-1.03-.03-1.32.09-.2.08-.42.15-.49.14-.71-.04.88-.33 1.82-.34 1.33 0 1.48-.05 1.23-.4-.22-.3-.44-.31-1.19-.03-.51.19-.77.22-1.92.2L6.89 33l.78.85c.85.93 1.18 1.1 2.04 1.06.41-.02 2.12.35 2.7.58.49.2.61.15.44-.18ZM1.49 34.6c.04-1.01 1.35-2.24 3.06-2.84.24-.09-.12-.46-.44-.46-.27 0-1.72.94-2.19 1.41-.58.59-1.01 2-.71 2.35.15.19.27 0 .28-.46Zm41.59-.13c.02-.09-.21-.75-.51-1.49-.3-.73-.6-1.51-.67-1.72l-.13-.4-.16.45c-.19.49-.12 1.25.15 1.67.09.13.13.3.1.38s-.02.13.03.09c.09-.05.31.54.45 1.17.07.3.67.18.74-.15ZM1.07 34.1c.21-1.13.85-1.85 2.34-2.65l.63-.33-.37-.18c-.81-.39-2.75 1.17-2.96 2.37-.15.87-.13 1.28.03.61.08-.29.17-.56.21-.6s.05.04.01.18c-.13.48-.19 1.2-.1 1.2.05 0 .15-.27.21-.6Zm43.26-.26c.03-.04-.13-.34-.37-.68-.69-.98-1.12-1.75-1.46-2.61-.51-1.29-.77-1.44-.66-.38.09.87.56 1.74 1.57 2.88.74.85.8.9.92.79Zm.72-.48c.2-.16.2-.16-.05-.39-.14-.13-.38-.39-.55-.58-.16-.19-.04-.1.27.2.37.36.62.52.72.48.25-.1.22-.16-.84-1.47-1.11-1.39-1.64-2.29-1.83-3.15l-.13-.58-.37.7c-.32.61-.35.71-.21.84.08.08.34.6.58 1.16.44 1.02.9 1.8 1.54 2.65.37.49.41.5.87.14Zm-6.33-.95c1.22-1.09 3.34-3.68 3.16-3.86-.05-.05-1.58 1.43-2.68 2.61-.47.5-.96.97-1.1 1.04s.05-.15.42-.49c.74-.68 1.53-1.59 1.46-1.67-.03-.02-.39.24-.81.6-.42.35-.85.7-.96.78-.23.16-.44.65-.37.85.03.07.02.13-.03.13-.06 0-.31.43-.31.53 0 .2.8-.14 1.22-.52ZM10 32.68c.89-.25.93-.28.75-.51-.13-.18-.17-.18-1.22.03-.59.12-1.54.24-2.11.27-.7.04-1 .09-.93.16.32.32 2.46.36 3.51.05Zm36.1-.19c0-.26-.64-1.68-.99-2.19-.51-.76-.56-.84-.43-.76.32.19 1.52 2.38 1.52 2.76 0 .1.03.1.15 0 .26-.22-.06-1.08-.85-2.27l-.32-.48.31.35c.17.19.5.72.73 1.17.44.85.58 1 .58.61 0-.61-.6-1.55-2.29-3.61l-1.2-1.47-.25.56c-.14.31-.24.6-.21.64.03.05.07.3.1.56.07.84.51 1.58 2.08 3.56.66.85 1.07 1.06 1.07.57Zm-36.82-.4c1.18-.22 1.23-.25.93-.53-.18-.16-.26-.16-1.42-.01-3.05.4-3.17.43-2.69.71.32.19 1.63.12 3.18-.17Zm-1.97-.48c.63-.11 1.46-.23 1.86-.27.75-.07.87-.25.35-.53-.44-.23-4.57.6-4.24.85.24.18.71.17 2.03-.05Zm39.89-.26c.2-.24.06-.88-.38-1.78-.4-.85-2.67-4.37-2.81-4.37-.12 0-.61 1.21-.54 1.34.04.06.45.58.92 1.14 1.34 1.62 1.97 2.5 2.28 3.18.3.68.34.72.53.49Zm-41.45-.23c.18-.09.59-.35.91-.56.33-.22.8-.48 1.07-.59.55-.23.57-.29.17-.57l-.29-.21-.42.22c-.23.11-.84.49-1.34.84-.51.35-1.03.66-1.15.7l-.23.07.24.19c.26.21.51.19 1.04-.09Zm33.37-.61c.42-.34.83-.63.9-.65.43-.06 2.94-2.56 2.57-2.56-.24 0-1.33.64-1.81 1.07-1.45 1.28-2.57 2.42-2.64 2.69-.08.33-.16.38.98-.55ZM7.9 30.8c.63-.11 1.19-.2 1.24-.2.06 0-.05-.16-.24-.35-.41-.42-.49-.43-1.25-.06-1.69.83-1.65.94.25.61Zm-1.94-.82c1.25-.83 1.35-.92 1.19-1.05-.26-.18-.22-.2-1.37.53-.56.36-1.24.75-1.5.87-.54.25-.57.3-.25.45.39.19.53.13 1.93-.8Zm41.88.44.18-.39-.32-.64c-.38-.74-.84-1.43-1.88-2.84-.41-.55-.88-1.28-1.03-1.62-.32-.71-.42-.77-.58-.32-.12.35-.1.39 1.5 2.75.69 1.03 1.69 2.94 1.69 3.24 0 .43.2.35.44-.18Zm-43.51-.28C5 29.8 6.6 28.77 6.6 28.68c0-.4-1.09-.24-1.86.26-.69.46-1.42.82-1.84.91l-.34.07.44.24c.58.3.7.29 1.33-.02Zm35.06-.67c1.24-1.19 1.87-1.69 2.76-2.18.87-.47 1.15-.89.61-.89-1.34 0-4.07 2.31-4.4 3.72-.09.4-.05.37 1.03-.65Zm8.91.02c.2-.47-.64-1.75-2.27-3.47-.43-.45-.75-.82-.72-.82.16 0 2.11 2.16 2.61 2.89.57.84.76.95.53.33-.65-1.84-2.18-3.56-3.53-3.97l-.22-.06.17.35c.09.2.21.36.25.36.05 0 .07.04.03.09-.05.09.23.52 1.42 2.16.62.84 1.43 2.18 1.43 2.36 0 .2.18.07.3-.22Zm.55-1.5.17-.51-.51-1.04c-.72-1.45-1.7-2.25-3.16-2.58-.17-.04-.01.08.38.28.88.45 2.57 1.88 2.57 2.17 0 .05-.26-.17-.59-.5-1.04-1.04-3.02-2.21-3.22-1.9-.06.1 0 .18.24.28 1.11.5 1.44.7 1.92 1.16.61.59 1.42 1.79 1.76 2.6.27.66.24.66.44.04Zm-40.91.16c.43-.13 1.05-.27 1.38-.31.75-.09.78-.15.19-.48l-.49-.26-.54.2c-.29.11-.79.36-1.12.55-.32.2-.6.34-.63.32-.06-.07.87-.64 1.52-.92.56-.25.58-.28.4-.41-.43-.32-.84-.19-1.88.59l-.67.51.37.23c.47.28.5.28 1.47-.02Zm4.81-.14c-.05-.17-.15-.21-.58-.23l-.52-.02.47-.03.47-.04-.21-.35c-.22-.38-.16-.37-1.03-.17-.2.04-.2.02-.11-.74.08-.67.07-.83-.08-1.08-.17-.3-.17-.29-.12.55.06 1.06-.09.75-.18-.39-.08-.92-.24-1.4-.38-1.19-.07.1-.08.09-.05-.02.04-.16-.26-.84-.42-.94-.26-.16-.19 2.09.09 3.14.19.67 1.11 1.47 1.78 1.56.31.03.64.1.72.14.19.11.23.06.15-.19Zm27.4-.75c.8-.5 1.88-.96 2.25-.96.11 0 .2-.04.2-.1 0-.53-3.48.82-3.7 1.43-.15.46-.12.51.18.31.15-.1.63-.4 1.07-.68Zm-33.64.19c.29-.25.75-.56 1.01-.69l.48-.24-.44-.17c-.54-.21-.72-.13-1.65.71l-.64.58.29.13c.4.17.36.18.95-.32Zm3.41-.47a6.98 6.98 0 0 1-1.82-6.11c.12-.64.11-.68-.18-1.44-.44-1.14-.66-2.32-.58-3.16l.06-.68-.82.62C3.07 18.89.6 22.47.6 24.88v.7l.39-.09c2.85-.64 6.35.03 8.81 1.69.66.44.69.39.12-.2Zm-3.95-1.14c-.32-.32-.84-.12-1.32.51-.58.76-.64.92-.35.97.19.03 1.77-1.38 1.67-1.48Zm43.11.38c-.42-1.52-1.42-2.54-2.97-3.02-.88-.28-1.19-.26-1.31.06-.14.35-.08.41.48.46 1.29.12 2.56 1.1 3.29 2.53.5.99.79.97.51-.03Zm-7.83-.04c.45-.15.76-.18 1.27-.14.68.05 1.02-.13.83-.43-.41-.67-3.3-.39-3.63.35-.16.33-.15.36.06.25.24-.13 1.43-.43 1.48-.38.03.03-.19.12-.48.22-.98.31-1.45.56-1.56.8s-.09.23.66-.12c.42-.19 1.04-.44 1.37-.55Zm-31.37.05c-.06-.21-.11-1.05-.13-1.88-.04-1.78-.03-1.68-.14-1.61-.28.18-.32 2.03-.06 2.99.05.18.04.19-.04.06-.27-.42-.35-1.55-.19-2.46.14-.8.14-.9 0-1.15-.25-.43-.29-.35-.39.75-.08.81-.1.9-.11.42 0-.33.03-.85.08-1.15.1-.7-.03-.86-.36-.45-.57.68.04 3.24 1.08 4.49.37.45.38.45.26-.01Zm2.32-.07c-.23-.6-1-2.03-1.81-3.34-1.48-2.37-1.64-2.78-1.99-4.87-.44-2.7-.07-3.96 1.63-5.51 2.53-2.31 5.91-2.44 8.56-.34.54.43.54.43.31.11-1.89-2.67-6.57-2.62-9.32.09-2.65 2.61-2.61 5.66.12 9.95.35.54 1.05 1.7 1.57 2.57.9 1.53 1.13 1.84.93 1.34Zm37.07-.38-.06-.43.14.3.14.3.01-.38c.01-1.04-1.39-2.84-2.87-3.68-.59-.34-.61-.49-.05-.49 1.08 0 3.2 1.87 3.23 2.84l.01.31.14-.33c.14-.32.13-.37-.11-.8-.19-.34-.21-.4-.06-.22.2.24.2.24.14.03-.16-.65-2.67-2.2-3.6-2.23-.11 0-.79.78-.72.84.02.02.31.15.63.3.32.14.57.29.54.31-.03.03-.31-.07-.63-.21l-.58-.27-.2.24-.19.24.95.11c1.02.12 1.59.36 2.07.9.21.23.16.21-.24-.1-.64-.47-1.35-.68-2.23-.64-.56.03-.63.05-.38.11 2.12.57 3.2 1.4 3.72 2.88.22.6.27.62.2.07Zm-8.22-.64c.85-.19 1.47-.14 2.27.2.28.12.56-.51.31-.7-.94-.71-2.58-1.3-2.7-.96-.04.09-.15.28-.25.41-.28.37-.23.41.55.43.39.01.54.03.32.05-1.1.09-1.25.13-1.4.43-.2.39-.19.44.08.35.12-.04.49-.13.82-.21Zm8.47-1.26c-.42-.95-1.88-2.19-2.73-2.33-.59-.1-.58 0 .02.3.96.49 2.25 1.95 2.7 3.05l.14.35.03-.47c.02-.31-.04-.63-.16-.9Zm-5.49.42c.14-.55-2.45-1.71-2.79-1.25-.2.27-.17.35.11.35.3 0 1.1.35 1.89.83.63.38.71.39.79.07Zm.21-.56c.06-.14-.21-.64-.48-.89-.06-.06-.22-.24-.36-.4-.13-.17.01-.06.32.24.32.3.55.58.52.63-.03.04.01.05.09.02.15-.05.37-.46.37-.68 0-.18-1.85-1.18-2.22-1.2-.4-.01-.46.17-.11.31l.28.1-.34-.01c-.3-.01-.38.04-.58.39-.28.49-.28.55-.05.55.35 0 1.3.38 1.84.73.62.41.64.42.72.21Zm6.08-.69c-.02-.48-.24-.87-.69-1.22-1.03-.8-2.82-1.48-3.12-1.18-.16.16-.26.1 1.12.66 1.07.43 2.15 1.22 2.41 1.76.23.48.3.48.28-.02Zm.28-.79c0-.94-1.68-2.07-3.14-2.1-.88-.02-.81.17.18.48.97.3 2.25 1.1 2.59 1.61.24.36.37.37.37.01Zm-23.55-2.41c.76-1.32 1.53-2.71 1.72-3.1.2-.38.69-1.3 1.1-2.03.72-1.29.74-1.34.55-1.48-.59-.41-.68-1.51-.22-2.76.73-2 .71-3.05-.08-3.47-.77-.41-1.14 1.06-.71 2.79.59 2.33.31 2.45-4.27 1.75-3.11-.48-4.93-.58-6.04-.34-.62.13-.62.09.07.83.31.33.77.93 1.01 1.31.25.38.73 1.13 1.07 1.65.61.92 1.12 1.8 3.25 5.58.57 1.01 1.07 1.79 1.11 1.75s.69-1.16 1.44-2.48ZM45 22.2c.14-.26.07-.36-.41-.6-.21-.11-.39-.23-.39-.25 0-.03.22.06.49.19.48.25.71.22.71-.11 0-.24-1.28-.75-2.2-.88-.41-.06-1 .39-.78.6.05.05 2.33 1.22 2.4 1.24.04 0 .12-.08.18-.19Zm5.8-.91c0-.09-.1-.29-.22-.45l-.22-.29.22.19c.2.17.22.18.22.02 0-.38-3.13-1.27-3.43-.97-.07.07-.01.12.19.16 1.31.26 2.31.77 2.79 1.39.28.37.44.35.45-.05Zm-5-.39c0-.21-1.99-1-2.54-1-.57 0-.48.47.09.53.29.03.91.21 1.37.4.77.32 1.08.34 1.08.07Zm.25-.29c.08-.13-.32-.42-1.22-.89-1.21-.62-1.62-.65-1.63-.1 0 .13.08.18.28.18.38 0 1.38.35 1.87.65.43.26.61.3.7.16Zm.43-.43c.21-.21.13-.28-.8-.73-.51-.25-.86-.45-.78-.45s.54.19 1.03.42c.83.39.89.41 1.05.24.21-.2.18-.23-.83-.65-1.05-.44-1.92-.58-2.33-.37-.45.23-.42.28.46.64.42.17 1 .47 1.27.66.54.38.74.43.93.24Zm1.12-1.06.23-.19-.74-.27c-.56-.22-.98-.3-1.74-.33-1.12-.06-1.19.02-.23.22.36.07.96.27 1.34.43.83.37.86.37 1.14.14Zm.66-.51.23-.18-.42-.16c-.75-.29-1.46-.39-2.15-.32-.74.08-.68.19.18.29.3.04.8.18 1.1.31.68.29.76.29 1.06.06Zm.69-.43c.14-.06.25-.14.25-.18 0-.12-1.3-.52-2.13-.66l-.82-.14.7.05c.38.03 1.11.16 1.62.31.81.23.94.24 1.18.12.26-.14.25-.15-.62-.44-1.3-.43-2.13-.41-3.13.07-.99.49-1.3.72-.8.61.72-.15 2.22-.06 2.75.15.61.25.67.26 1 .11ZM0 15.85c0-.08.15-.21.33-.29.34-.14.33-.15-.22-.32-.31-.1-.03-.12.43-.03.33.06.53.06.6-.01s.05-.1-.06-.1c-.23 0-1.08-.4-1.08-.51 0-.05.19 0 .41.12.48.24 1.33.35 1.68.21.23-.08.16-.13-.75-.61-1.1-.58-1.4-.78-1.31-.87.03-.03.26.08.52.26.5.35 1.86 1 2.07 1 .07 0-.03-.1-.22-.21-.52-.32-1.95-1.54-2.19-1.88-.3-.42-.26-.52.05-.13.88 1.11 2.38 2.15 2.97 2.05l.37-.06-.8-.39C1.43 13.41.27 12.15.05 11.1c-.05-.26.03-.16.29.38.85 1.74 3.01 3.15 4.21 2.75.27-.09.27-.09-.36-.47C2.86 12.95.9 11.3.9 10.99c0-.05.28.19.63.54 1.23 1.25 3.3 2.62 3.79 2.52l.32-.07-.28-.15c-.64-.34-2.65-1.75-3.21-2.26C1.46 10.95-.06 9.2.08 9.2c.06 0 .42.38.81.85 1.72 2.04 4.72 4.02 5.48 3.61l.26-.13-.29-.07c-.48-.12-1.32-.65-2.38-1.51-.56-.44-1.3-1.03-1.66-1.3C1.44 9.99.97 9.5.76 9.01c-.17-.36-.21-.39-.47-.34-.24.05-.29.02-.29-.14 0-.15.09-.22.3-.27l.3-.06-.17-.42C.34 7.54.2 7.26.11 7.15c-.15-.19-.15-.19.03-.05.11.08.28.34.38.57.18.4.19.41.48.31.38-.13.4-.03-.3-1.08C.37 6.4.14 6 .19 6c.06 0 .22.2.37.45.3.51.39.57.29.18-.03-.14-.08-.5-.09-.78-.04-.67-.11-.78-.47-.71-.23.04-.29.02-.29-.13 0-.2 1.03-.45 5.11-1.26 4.35-.86 5.85-1.52 7.16-3.14.43-.54.52-.6.87-.6l.38-.01-.06.87c-.35 4.54-1.17 6.76-3.81 10.27C8 13.33 7.13 13.9 4.3 14.63c-.96.25-2.31.66-2.99.91-1.44.53-1.31.5-1.31.31Zm43.89-2.36c.7-.15 1.59-.72 2.46-1.58 1.09-1.07 1.05-1.15-.86-1.8-.63-.21-1.46-.53-1.85-.7s-.9-.33-1.13-.37l-.41-.07v.89c0 .49-.05 1.18-.1 1.54-.09.58-.07.68.1.9.11.14.34.48.52.77.36.58.44.6 1.27.42ZM7.08 13.3c.42-.26.44-.22-.43-.72-1.38-.79-3.39-2.15-4.25-2.87C1.36 8.83.82 8.45.73 8.53c-.16.17.66 1.22 1.41 1.8.44.34 1.09.86 1.45 1.15 1.28 1.03 1.77 1.37 2.41 1.69.78.39.68.37 1.08.13Zm23.96-.39c.2-.22.17-.43-.17-1.26-.13-.33-.27-.69-.31-.8-.07-.18-.09-.16-.22.14-.28.66-.11 1.88.28 2.04.21.09.24.08.42-.12Zm-23.2-.16c.11-.08.18-.16.15-.18-.02-.02-.3-.18-.62-.35-1.22-.68-2.36-1.58-4.51-3.55-.62-.56-.77-.66-.96-.59-.21.08-.2.09.17.35.49.34 1.81 1.67 1.66 1.67-.07 0-.16-.06-.2-.14-.09-.16-1.48-1.42-1.79-1.63-.16-.1-.28-.11-.49-.03l-.27.1.48.37c.27.2.85.67 1.29 1.03.94.79 1.97 1.49 3.55 2.42 1.25.74 1.26.74 1.54.53Zm.41-.52c0-.06-.49-.47-1.1-.93-.6-.45-1.41-1.1-1.8-1.44-.38-.34-.99-.84-1.35-1.11-.36-.26-.76-.59-.9-.71-.24-.22-.7-.25-.7-.04 0 .04.56.58 1.23 1.19 2.29 2.09 4.62 3.62 4.62 3.04Zm.5-.43c.1-.11.16-.22.14-.24-.02-.01-.55-.29-1.17-.61s-1.1-.6-1.08-.62.56.22 1.21.54c1.11.56 1.17.57 1.3.39.23-.31-.13-.64-2.05-1.92-.96-.64-1.94-1.32-2.18-1.51-.38-.31-.47-.34-.8-.28l-.37.07.4.34c.53.45 1.5 1.09 2.56 1.68.47.26.99.59 1.15.73.25.22.26.23.04.11-.14-.09-.68-.39-1.2-.68-1.13-.63-1.98-1.19-2.61-1.72-.29-.23-.57-.38-.74-.38-.42 0-.27.19.7.92.49.37 1.23.97 1.65 1.33.94.84 2.57 2.05 2.74 2.05.07 0 .21-.09.31-.2Zm19.46-.68c-.15-.31-.32-.68-.35-.82-.04-.14.12.12.35.58.24.45.49.82.56.82.28 0 .24-.32-.09-.83-.59-.89-.8-1.58-.84-2.77l-.03-1.05.09 1.02c.13 1.36 1.14 3.83 1.28 3.11.02-.09-.17-.46-.41-.81-.58-.86-.71-1.6-.62-3.65.04-.87.02-1.53-.03-1.61-.11-.15-.32-.07-.32.12 0 .66-2.1 3.86-2.93 4.48-.22.15-.13.02.27-.41 1.09-1.21 2.87-4.2 2.5-4.2-.19 0-.46.26-.59.56-.2.47-1.34 2.39-2.01 3.37-.3.43-.52.82-.49.87.03.04-.02.1-.1.13-.2.08-.76.87-.69.98.11.19.44.07.65-.23.13-.18.62-.74 1.1-1.24.47-.51 1.08-1.26 1.34-1.68.55-.9.71-1.01.25-.18-.45.8-.95 1.44-1.89 2.41-.82.84-.92 1.03-.54 1.09.14.02.28-.09.48-.4.4-.61 2.09-2.81 2.29-2.97.12-.1.11-.03-.06.35-.59 1.3-.05 3.54.84 3.54h.28zm4.24-.19c-.29-.69-.56-1.96-.86-4.01-.16-1.14-.34-2.23-.4-2.44-.17-.65-.26-.42-.13.35.07.39.13 1.06.14 1.48 0 .49.06.91.17 1.15.12.28.17.73.18 1.64.02.97.07 1.4.24 1.93l.22.68.29-.21c.29-.21.3-.22.15-.57Zm9.3 0c.26-2.72-.81-5.31-2.57-6.2-1.34-.68-1.89-.83-1.51-.4 1.11 1.22 1.83 3.46 1.68 5.23-.05.67-.04.82.08.87.53.2.28-3-.38-4.78-.19-.49-.27-.81-.19-.71.51.7.95 2.69.96 4.36 0 1.17.05 1.39.3 1.4.04 0 .09-.08.11-.17.02-.1.03-.08.02.04-.02.22.19.38.36.27.42-.26-.25-4.54-.83-5.3-.16-.21-.17-.25-.05-.15.6.48.96 1.89 1.04 4.07l.06 1.71.3.18.3.18-.05-1.54c-.03-.86-.01-1.34.03-1.09s.08.98.08 1.63c.01 1.33.16 1.55.26.4Zm-14.28.5c-.04-.1-.16-.45-.27-.78-.17-.47-.21-.77-.18-1.38l.03-.78-.2.24c-1.1 1.34-1.78 2.34-1.7 2.47.2.32.77-.35 1.31-1.54.12-.28.23-.46.23-.39.01.16-.41 1.07-.73 1.59-.31.5-.09.76.27.32.18-.22.18-.22.08-.01-.12.23.41.45.68.29.05-.04.12-.02.16.04.11.18.38.12.32-.07Zm-8.79-1.03c.12-.36.29-.83.37-1.05.19-.51.75-1.48.81-1.42.03.03-.09.3-.26.6-.32.57-.9 2.07-.9 2.33 0 .12.6.12.77 0 .01-.01.09-.34.17-.75.19-.91.81-2.21 1.35-2.83.23-.25.41-.49.41-.52 0-.16-.23-.01-.84.55-.36.33-.66.56-.66.5 0-.07-.08-.07-.26-.01-.14.06-.31.1-.37.09-.07 0 .06-.07.27-.15.22-.08.55-.26.74-.42 1.13-.89 1.65-1.07 2.92-.97 1.35.11 1.54-.28.2-.42-.78-.08-1.48.1-2.65.67-.55.26-1.08.51-1.18.54-.38.12-1.82 3.7-1.55 3.87.27.18.43.03.66-.61Zm14.42.52c.17-.14.2-.22.12-.42-.06-.14-.28-1.4-.51-2.8-.65-4.03-.6-3.8-.85-3.8-.59.01-.65.07-.5.63.07.29.24 1.35.38 2.37.48 3.45.82 4.46 1.36 4.02Zm-9.13-.55c1.68-2.45 3.08-4.77 3.02-4.96-.02-.05-.24 0-.51.13s-.48.21-.48.19c0-.22-.42.27-.51.59-.06.23-.58 1.35-1.15 2.49-.57 1.15-1.04 2.1-1.04 2.13 0 .22.32-.05.67-.57Zm-14.57.37c0-.08-.24-.4-.52-.71-.29-.31-.44-.51-.32-.45.11.06.4.32.63.57.29.31.46.44.53.37.28-.28-.2-.72-1.72-1.57-.47-.26-1.24-.74-1.72-1.07-.78-.53-.9-.59-1.23-.52-.47.09-.42.14 1.18 1.22 2.29 1.54 2.58 1.75 2.8 2.03.25.32.37.36.37.13Zm13.84-.42c.21-.77.2-1.2-.04-1.6-.38-.61-.57-.37-.78 1.01-.09.57-.09.57.11.4.19-.16.19-.14-.03.21-.26.42-.18.56.31.56.24 0 .28-.06.43-.58Zm5.89.01c-.1-.15-.12-.24-.05-.2.15.1.15.12-.03-.47-.28-.93-.14-2.28.29-2.75.32-.35-.05-2.26-.42-2.19-.13.03-.16.11-.12.33.03.17.04.57.03.9s-.03 1.15-.05 1.82-.04 1.2-.06 1.19c-.15-.15-.19-1.27-.07-2.06.12-.81.08-1.9-.08-2.07-.09-.08-.35.1-.31.21.03.07.06 1.06.07 2.19l.02 2.05.34.43.34.44-.33-.3c-.31-.27-.32-.28-.17-.05.09.14.29.44.44.68.17.25.29.36.31.28s-.05-.27-.15-.43Zm-8.77-.08.12-.5-.05.53c-.05.48-.04.52.16.52.11 0 .21-.04.21-.09s.09-.07.19-.04c.17.04.2-.02.26-.44.12-.89.75-2.53.75-1.96 0 .06-.04.15-.1.18s-.1.11-.1.17c0 .17.59-.42.77-.76.08-.16.36-.51.61-.78.54-.58.54-.59-.41-.6-.66 0-.79.03-1.1.26-1.15.88-2.52 4.14-1.7 4.04.23-.03.29-.1.39-.53Zm13.33.35c.16-.08.18-.2.15-.82-.04-.8.01-.74.11.13.05.5.08.56.26.52.58-.16.53-.94-.22-3.88-.34-1.3-1.16-2.75-1.56-2.75-.13 0-.23.02-.23.04 0 .16 1.03 6.09 1.12 6.44.11.46.11.46.37.32Zm5.48-1.89c-.03-.69-.13-1.48-.21-1.75-.35-1.11-1.45-2.93-1.81-3.01-.34-.08-.78-.15-1.29-.22-.57-.07-.58-.08.27 1.1.9 1.26 1.35 2.54 1.44 4.14.05.92.08 1.03.24 1.03.38 0 .17-2.24-.32-3.37-.11-.25-.18-.48-.16-.5.22-.21.74 1.8.81 3.07.03.77.06.85.25.88.2.03.21-.01.21-.7 0-1.75-.53-3.39-1.54-4.76-.57-.77-.6-.91-.05-.26 1.03 1.24 1.59 2.76 1.66 4.54.04.9.08 1.18.21 1.28.28.22.35-.13.29-1.47ZM35.3 10.1c.19 0-.16-2.7-.52-4.04-.14-.52-.36-1.01-.65-1.44-.24-.36-.35-.58-.23-.47.79.72 1.6 3.51 1.6 5.56 0 .26.03.29.32.29h.31l-.06-1.12c-.11-2.03-.43-3.23-1.11-4.18-.48-.67-.52-.8-.12-.35.84.93 1.23 2.19 1.33 4.27l.06 1.28h.7l-.06-.93c-.04-.5-.09-1.05-.12-1.22-.02-.17.02-.07.1.2s.17.83.21 1.23c.06.63.09.72.27.72.19 0 .2-.04.14-.83-.14-1.72-.58-2.93-1.62-4.43l-.66-.94-.72.01c-.4 0-.93.04-1.19.07l-.47.07.43.65c.56.84.82 1.55 1.16 3.2.52 2.48.53 2.51.68 2.45.07-.03.18-.05.22-.05Zm-25.15-.11c.04-.05 0-.18-.09-.28s-.14-.2-.11-.23c.13-.12-.8-.76-1.91-1.33-.65-.33-1.33-.7-1.51-.82-.35-.24-.59-.28-.81-.15-.13.09 1.54 1.24 2.63 1.81.33.17.83.49 1.1.7.55.43.61.46.7.3Zm15.21-3.73.07-.29-.52.29c-.75.4-1.21 1.53-1.2 2.89v.6l.8-1.6c.43-.88.82-1.73.85-1.89ZM10.5 9.46c.16-.2-.19-.66-.87-1.13-.29-.2-.51-.38-.49-.4.07-.07.43.15 1.03.64.55.45.83.46.83.02 0-.1-1.79-.81-1.89-.74-.1.06-.99-.36-1.63-.77-.38-.23-.54-.28-.78-.23-.5.11-.33.25 1.29 1.1 1.11.58 1.63.91 1.89 1.21.42.48.45.49.62.3Zm.65-1.16c.03-.06 0-.12-.07-.14-.73-.21-1-.31-.88-.34.08-.01.36.04.63.12.75.22.64.01-.14-.28-.38-.14-.76-.26-.82-.26-.07 0-.58-.23-1.14-.51-.97-.48-1.03-.49-1.29-.36l-.28.15.54.34c.61.38.98.54 1.5.62.19.04.67.22 1.05.41.79.38.81.39.9.25Zm-8.91-.76c.09-.03.16-.17.16-.31 0-.32.43-1.6.76-2.25.29-.56.27-.64-.12-.51-.31.1-.93 1.43-.94 2.01 0 .44-.15.33-.29-.23-.11-.42-.06-.89.14-1.38.09-.2-.42-.14-.58.07-.25.34.35 2.66.69 2.66.01 0 .09-.03.18-.06Zm.56-.22c0-.04.28-.55.63-1.12C4.5 4.38 4.57 4.17 4 4.28S2.14 7.4 2.66 7.4c.08 0 .14-.03.14-.08Zm8.99-.11c.1-.17.05-.19-.46-.26-.82-.1-1.12-.25-.38-.19.33.03.7.07.81.1.16.03.23-.02.27-.18.08-.3.16-.28-1.34-.35-.87-.04-1.43-.11-1.59-.2l-.25-.14.25.06c.14.04.89.09 1.67.12l1.43.05.1-.28c.14-.35.22-.34-1.18-.18-.73.08-1.41.1-1.65.05-.46-.08-.7-.04-.61.1.03.05-.05.09-.18.09-.35 0-.64.23-.46.37.22.18 2.73.93 3.4 1.02.04.01.12-.07.17-.18Zm-8.28-.28c.86-.91 2.11-2.74 1.97-2.88-.25-.25-.82.12-1.08.7-.15.34-.53 1.02-.84 1.51-.31.48-.56.92-.56.96 0 .17.17.07.51-.29Zm1.76-.49c1.45-1.09 2.77-2.63 2.49-2.91-.16-.16-.69.14-.88.51-.41.81-1.32 1.72-2.74 2.72-.63.44-.64.48-.17.4.3-.04.66-.25 1.3-.72Zm.21.39c.18-.03.35-.1.39-.16s0-.08-.1-.04c-.38.15-.13-.05.43-.33 1.08-.55 1.75-1.38 2.14-2.68.17-.53-.32-.24-.59.36-.48 1.05-1.22 1.81-2.74 2.8-.28.19-.31.22-.11.17.14-.04.4-.09.58-.12Zm15.31-.4c1.29-.63 2.26-.79 3.27-.54.82.21.76-.05-.07-.31-1.02-.31-1.87-.3-2.59.04-1 .47-2.21 1.38-1.84 1.38.04 0 .6-.26 1.23-.57ZM6.76 6.4c.87-.3 1.21-.62 1.65-1.54.21-.44.53-1.05.7-1.33L9.42 3l-.38.14c-.36.12-.41.19-.75 1.06-.43 1.07-.89 1.61-1.78 2.09-.65.35-.55.4.25.11ZM20.45 6c1.27-.86 2.54-1.02 3.84-.48.48.2.69.24.83.17.62-.33-.97-.74-2.85-.73-1.66.01-1.63 0-2.17.84-.45.71-.43.72.35.2ZM9.17 5.08c.69-.55 2.08-2.66 1.89-2.86-.15-.15-.71.42-1.11 1.13-.25.44-.6.96-.77 1.15-.28.32-.29.33-.12.05 1.13-1.87 1.14-1.89.79-1.73-.15.07-.42.42-.67.87-.41.75-.98 1.89-.98 1.97 0 .09.55-.24.97-.58Zm1.53.49c.14-.07.47-.21.75-.32.27-.1.64-.27.82-.38.6-.35.34-.36-.49-.01-.46.18-.92.34-1.03.34s.09-.11.45-.24c1.42-.52 1.48-.56 1.6-1.09.13-.64.14-.63-.15-.29-.14.17-.91.64-1.85 1.13-1.04.53-1.56.86-1.48.91.2.12 1.1.09 1.38-.05Zm15.04-.13c.28-.11.18-.21-.51-.51-1.33-.59-3.75-.75-4.23-.28-.19.2-.19.2 1.11.17 1.41-.04 2.43.12 3.09.48.42.23.35.21.54.14Zm.46-.39c-.68-.82-4.02-1.58-4.56-1.04l-.24.24h1.23c1.3 0 1.95.15 2.97.7.54.28.79.33.6.1Zm.99-.2c.32-.16-.85-.77-2.47-1.28-1.53-.49-1.9-.53-2.26-.24l-.3.24.64.07c.92.11 2.35.59 3.1 1.05.66.41.79.42 1.29.16Zm.61-.25c0-.38-2.79-1.57-4.1-1.74-.59-.08-.91.1-.34.19.77.12 2.61.77 3.39 1.19.82.46 1.05.53 1.05.36Zm-16.13-.49c.21-.1.58-.36.82-.58l.43-.38.14-1.29c.14-1.28.14-1.96 0-1.03-.18 1.21-.51 1.82-1.6 2.95-.73.76-.7.8.21.33Zm17.07.26.3-.13-.31-.22c-1.11-.79-4.59-1.81-5.15-1.51-.26.14-.27.13.68.33.94.19 2.13.67 2.99 1.21.74.46 1.02.52 1.49.32Zm1-.32c.15-.08.4-.15.53-.15.22 0 .24-.02.13-.15-.09-.11-.09-.15-.01-.15.16 0-.14-.69-.42-.97-.95-.95-4.07-2.12-4.07-1.53 0 .06-.09.1-.19.1-.39 0-.3.18.11.25 1.09.18 4.67 1.89 4.44 2.12-.02.02-.3-.13-.62-.33-1.86-1.19-4.17-1.94-4.83-1.56-.4.22-.39.32.03.32.35 0 1.35.18 2.61.46.73.16 1.91.69 1.3.59-.22-.04-.14.02.29.24.62.32.89.51.82.58-.02.03-.23-.07-.45-.21-1.07-.68-3.85-1.56-4.91-1.56-.73 0-.47.14.99.51 1.64.42 2.5.74 3.25 1.24.59.39.62.4 1 .2Zm.27-1.73c-.05-.1-.17-.24-.25-.31-.09-.08-.14-.17-.11-.21.03-.05 0-.12-.06-.16-.08-.04-.09-.03-.05.04.12.2-.02.13-.51-.25-.89-.67-1.91-1.02-2.32-.79-.24.13-.23.14.35.31.83.24 1.7.66 2.34 1.13.62.45.75.5.61.24ZM0 1.26c0-.17.44-.22 2.95-.36C5 .78 6.34.62 8.3.24 8.99.11 9.8 0 10.1.01c1.52.02-3.85.94-6.35 1.09-1.04.06-2.28.15-2.75.2-1.07.12-1 .12-1-.04Z"/></svg>