<svg xmlns="http://www.w3.org/2000/svg" width="51" height="51" viewBox="0 0 51 51"><path fill="#fff" fill-rule="evenodd" stroke="#fff" stroke-width=".698" d="M26.16 38.01c-.04-.05.16-.45.43-.88s1.06-1.72 1.76-2.88c.71-1.16 1.61-2.61 2.02-3.23.4-.62.73-1.16.73-1.2s-.57-.43-1.27-.87c-.71-.43-2.45-1.51-3.88-2.4s-2.86-1.76-3.17-1.94c-.32-.18-.58-.38-.58-.44 0-.2 2.46-2.55 8.75-8.37 1.16-1.06 2.31-2.14 2.57-2.39l.48-.45.35.17c.78.37 3.56 2.2 3.53 2.32-.03.11-4.29 4.15-7.54 7.14-.62.57-1.11 1.07-1.09 1.11.03.04 1.02.68 2.22 1.41 3.78 2.34 5.07 3.16 5.17 3.31.09.15-.39.97-3.14 5.37l-1.35 2.16-1.7.62c-.94.35-2.19.81-2.8 1.02-.6.22-1.17.42-1.26.46-.1.03-.2.02-.23-.04Zm3.05-1.3c1.34-.49 2.52-.92 2.61-.96.1-.04 1.08-1.54 2.19-3.33 1.11-1.8 2.11-3.4 2.22-3.56.25-.35.36-.24-1.48-1.38-6.59-4.08-6.13-3.71-5.47-4.28.2-.18 1.43-1.33 2.72-2.55A710 710 0 0 1 35.9 17c.85-.79 1.55-1.48 1.55-1.54 0-.11-3.26-2.17-3.37-2.13-.07.02-5.99 5.52-9.58 8.89-1.02.96-1.85 1.79-1.85 1.85s.58.47 1.3.91c4.1 2.5 7.5 4.64 7.53 4.72.02.05-.25.54-.61 1.07-1.04 1.6-4.17 6.68-4.17 6.79 0 .07 0 .07 2.51-.85Zm-15.05-.1c-.11-.18.93-5.64 3.09-16.1.14-.68.23-1.26.21-1.28s-.78-.06-1.7-.1c-1.64-.06-1.66-.06-1.66-.29 0-.18.42-2.19.85-4.11l.05-.23h4.05c2.98 0 4.05.03 4.05.11 0 .33-4.27 21.57-4.4 21.87-.1.22-.11.22-2.29.22-1.21 0-2.22-.04-2.25-.09Zm4.29-.31c.03-.05.96-4.6 2.05-10.12 1.1-5.52 2.02-10.11 2.04-10.22.05-.18-.08-.18-3.71-.13-2.06.04-3.78.08-3.8.11-.03.02-.09.24-.14.48s-.12.51-.15.62c-.06.18.04.18 3.11.11l3.18-.08-.06.24c-.03.13-.25 1.14-.5 2.24s-.72 3.06-1.05 4.35-.74 3.18-.92 4.2c-.17 1.02-.54 3.06-.81 4.54-.27 1.47-.49 2.76-.49 2.85 0 .22-.26.58-.35.49-.04-.04.18-1.46.49-3.15s.65-3.64.76-4.33c.23-1.46.53-2.82 1.2-5.45.52-2.04 1.32-5.56 1.27-5.61-.1-.1-5.97.11-5.97.21 0 .09.69.14 2.58.19 1.41.04 2.61.11 2.66.16.13.13-.27 2.02-1.2 5.75-.41 1.65-.86 3.68-.99 4.5-.41 2.5-.65 3.62-1.16 5.53-.6 2.22-.66 2.39-.8 2.25-.07-.07.08-.81.5-2.39.38-1.44.76-3.18 1.01-4.68.23-1.36.66-3.42 1-4.75.46-1.78 1.4-5.8 1.4-5.96 0-.11-5.04-.15-5.11-.03-.33.51-.21.55 1.66.63.96.04 1.75.1 1.75.14 0 .03-.05.23-.1.43-.19.68-2.58 12.52-2.95 14.6-.2 1.12-.38 2.11-.41 2.21-.06.19 3.88.27 4.01.07Zm13.35-5.83c0-.07.16-.36.36-.65.2-.3.34-.56.31-.58-.02-.03-.67-.41-1.43-.86-2.37-1.38-6.28-3.79-6.49-3.99-.19-.19-.19-.2.85-1.24 1.18-1.18 1.15-1.17 1.58-.72.42.43.42.41-.3 1.15-.51.52-.6.66-.48.73.08.06 1.65.97 3.49 2.04 4.02 2.33 3.73 2.09 3.32 2.77-.71 1.18-1.21 1.73-1.21 1.35Zm1.07-1.74c.03-.07-.13-.23-.34-.36-.62-.39-6.05-3.52-6.5-3.76-.56-.28-.55-.35.22-1.06.7-.66.74-.74.47-.98-.17-.15-.23-.11-1.07.73-.49.49-.87.91-.84.93.24.19 6.74 4.12 7.44 4.5.33.18.56.18.62 0Zm-10.24-13.3c.02-.05.07-.2.11-.35l.06-.28h-7.58l-.06.23c-.03.12-.06.28-.06.35 0 .14 7.45.19 7.53.05Z"/></svg>