<svg xmlns="http://www.w3.org/2000/svg" width="51" height="51" viewBox="0 0 51 51"><path fill="#fff" fill-rule="evenodd" stroke="#fff" stroke-width=".691" d="M6.98 50.95C3.38 49.96 0 46.15 0 43.09c0-.58.09-.45.27.43.7 3.42 3.55 6.38 6.95 7.23.86.22.92.19 1.07-.51.48-2.21 3.4-9.7 5.41-13.91l.68-1.42-1.06-.57c-4.31-2.28-5.17-4-4.1-8.18.36-1.41.52-1.64.63-.89.45 3.06 5.75 6.07 16.35 9.28 7.77 2.34 15.09 3.73 23.07 4.36 1.47.12 1.85.2 1.7.35-.17.18-6.16-.49-10.84-1.21-10.24-1.58-22.33-5.47-27.43-8.83-1.52-1-2.99-2.71-3-3.49-.01-.33-.17.07-.35.87-.86 3.84-.08 5.25 4.15 7.56l1.18.65-.8 1.7c-2.15 4.61-4.51 10.62-5.24 13.34-.37 1.38-.54 1.25 1.65 1.25 2.15 0 1.99.07 2.31-1 .81-2.75 5.05-12.85 5.66-13.49.15-.16 7.24 2.13 7.24 2.34 0 .15-3.46 5.62-4.68 7.4-.52.77-1.46 2.13-2.09 3.02-.62.89-1.13 1.64-1.13 1.67s1.07.06 2.38.06h2.39l1.55-2.27c1.83-2.68 3.15-4.73 4.57-7.1.76-1.27 1.09-1.73 1.23-1.73.1 0 .99.2 1.96.44 2.66.67 5.92 1.31 8.63 1.71 1.34.2 2.46.39 2.5.43.03.04.39.59.79 1.22 1.84 2.9 3.54 5.3 3.75 5.3.2 0 1.86-1.8 2.23-2.42l.33-.55-.91-1.31c-.5-.72-.95-1.34-1-1.37-.06-.04-.1-.13-.1-.22 0-.17 2.75-.11 2.93.07.18.16-.13.19-1.29.11-.65-.05-1.2-.07-1.22-.06s.37.59.85 1.29l.88 1.26.27-.58c.14-.31.36-.93.48-1.37.26-.94.46-1.24.37-.53-.4 3.11-3.15 6.21-6.57 7.4l-.95.33-17.9.02-17.9.02zm10.9-.77c.35-.51 1.28-1.87 2.08-3.03.8-1.15 2.07-3.07 2.81-4.25.75-1.18 1.61-2.53 1.9-2.99.3-.46.52-.85.49-.88-.11-.11-6.6-2.24-6.71-2.2-.11.05-1.73 3.48-2.67 5.67-1.24 2.86-3.18 8.04-3.18 8.46 0 .11.43.14 2.33.14h2.32zm25.37.72c1.24-.27 1.87-.48 2.79-.95 1.1-.56 1.1-.57.39-1.51-.58-.76-2.24-3.22-3.29-4.9l-.51-.8-1.99-.28c-3-.42-8.61-1.58-10.76-2.22-.12-.04-.42.38-1.24 1.73-1.46 2.41-3.2 5.1-4.62 7.17-.65.94-1.21 1.77-1.26 1.84-.14.24 19.37.17 20.49-.08Zm2.46-7.79c-.79-.04-1.16-.1-1.19-.18-.04-.15.7-.17 2.06-.06.59.04.82.1.82.19s-.1.13-.28.12c-.15-.01-.78-.04-1.41-.07ZM42.7 36.8c-3.23-.48-3.97-.63-4.07-.79-.05-.09-.85-1.55-1.78-3.24l-1.67-3.08-1.14 2.28c-.62 1.25-1.24 2.41-1.37 2.58l-.24.29-1.99-.52c-1.1-.29-2.03-.58-2.09-.63-.07-.07.05-.39.35-.97 2.12-4.05 2.7-5.2 3.45-6.82 5.6-12.02 7.78-19.81 6.39-22.91-.34-.74-.29-.78.5-.45 1.82.78 3.23 1.92 3.51 2.86.36 1.21.3 2.86-.17 5.22l-.22 1.06 1.01 1.49c3.27 4.85 8.23 13.43 7.98 13.82-.08.14-.22.1-2.15-.49-.85-.26-1.91-.56-2.35-.66-.99-.22-.85-.07-1.97-2.04-1.26-2.2-4.08-6.74-4.14-6.67-.02.01-.21.53-.43 1.15-.53 1.46-1.61 4.19-2.15 5.41l-.43.96 1.12 2.1c.61 1.16 1.92 3.56 2.92 5.35 2.43 4.38 2.59 4.7 2.36 4.83-.05.02-.6-.04-1.23-.13Zm1-.15c0-.13-.84-1.7-2.45-4.6-.95-1.7-2.23-4.04-2.85-5.2l-1.12-2.1.15-.4c.08-.22.48-1.19.88-2.15.39-.96 1.02-2.56 1.38-3.55.45-1.21.72-1.81.83-1.83.21-.04 3.32 4.88 4.87 7.7.51.93.38.84 1.59 1.13.53.13 1.62.44 2.41.69.8.25 1.46.46 1.47.46.36 0-4.65-8.57-7.63-13.07l-1.33-2.02.25-1.23c.51-2.39.45-4.85-.13-5.62-.45-.59-2.8-2.16-3.24-2.16-.03 0 .07.33.2.72.85 2.54-.72 9.05-4.1 16.96-1.72 4.04-3.94 8.7-5.67 11.9-.34.62-.61 1.17-.61 1.21 0 .07 3.52 1.02 3.77 1.01.07 0 .69-1.15 1.39-2.55.91-1.83 1.32-2.55 1.43-2.53.08.02.83 1.29 1.67 2.83s1.64 3.01 1.79 3.27c.21.39.32.48.53.48.15.01 1.17.16 2.27.35 2.21.37 2.25.37 2.25.3Zm5.74-4.1c-.56-.17-2.41-.72-4.11-1.21l-3.1-.88-1.22-2.33c-.67-1.28-1.19-2.38-1.16-2.44.21-.34 11.25 2.62 11.25 3.02 0 .17-.31.09-1.99-.45-3.09-1-8.72-2.48-8.87-2.33-.03.03.44 1.02 1.05 2.19l1.12 2.14.87.23c.67.17 6.86 1.96 7.5 2.16.21.07.13.25-.1.24-.13-.01-.68-.16-1.24-.34Zm-29.79-1.69c-1.93-.79-2.54-1.09-2.55-1.25-.01-.78 5.89-10.7 9.07-15.23l1.24-1.78-.76-2.27C24.98 5.38 24.5 2.21 25.18.66c.12-.27.22-.5.22-.53 0-.02-3.88-.02-8.62-.01L8.15.15l-.97.27c-3.4.93-5.97 3.54-6.82 6.89-.27 1.08-.41 1.25-.33.44C.24 5.26 2.69 2.1 5.41.81 7.26-.07 5.49 0 25.66 0h17.82l.86.25c3.33.96 5.92 3.69 6.71 7.05.08.36.15.77.15.92 0 .5-.16.29-.28-.35-.71-3.84-3.6-6.78-7.47-7.58C42.64.12 42.04.1 37.7.1h-4.85l.76.78c.83.85 1.29 1.39 1.29 1.52 0 .05-.24.26-.52.47-.29.21-.99.77-1.56 1.26-1.23 1.03-1.11 1-1.62.35-.68-.85-1-2.06-1-3.77V.1h-1.5v.58c0 2.61 1.39 7.19 4.19 13.85.66 1.59 1.21 2.98 1.21 3.08 0 .49-2.05 5.12-2.24 5.06-.06-.02-.63-1.15-1.27-2.51-.63-1.36-1.2-2.48-1.25-2.48-.09 0-1.14 1.58-2.8 4.22l-.85 1.35 1.28.12c1.79.17 4.16.52 4.27.63s-.27 1.04-1.16 2.82c-.55 1.12-.59 1.17-.85 1.13-.44-.07-4.08-.43-5.1-.5l-.91-.06-1.07 2c-.59 1.11-1.1 2.01-1.13 2.01-.04 0-.65-.24-1.37-.54Zm1.56-.24 1.05-1.96.78-1.49 1.36.07c.74.03 2.16.15 3.14.26.99.11 1.84.16 1.88.12.18-.18 1.58-3.36 1.51-3.43-.09-.08-1.83-.34-3.38-.49-.6-.06-1.34-.13-1.62-.16-.33-.03-.53-.1-.53-.18 0-.12 1.53-2.58 3.03-4.88.97-1.48 1-1.49 1.57-.2.24.53.77 1.66 1.16 2.51l.72 1.53.15-.28c.24-.48 1.17-2.64 1.53-3.56l.34-.88-1.19-2.82C29.85 7.96 28.58 3.8 28.48.87L28.45.1l-1.39.02-1.4.03-.24.6c-.65 1.57-.21 4.44 1.43 9.35.41 1.23.75 2.34.75 2.46s-.46.86-1.02 1.65c-2.81 3.98-5.34 8.1-8.26 13.49l-1 1.84.81.39c.78.37 2.66 1.16 2.77 1.17.03 0 .17-.21.31-.48Zm-8.74-3.64c-.76-.74-1.16-1.39-1.17-1.89-.01-.95 2.54-1.74 6.58-2.05 1.22-.09 1.24-.24-.31 2.61-.85 1.56-.92 1.65-1.31 1.65-.17 0-.76.07-1.31.16-.55.08-1.16.18-1.36.21-.33.05-.4.01-1.12-.69Zm2.58.21c.77-.11 1.45-.25 1.52-.32.13-.13 1.93-3.42 1.93-3.53 0-.24-3.99.3-5.26.71-1.98.63-2.12 1.11-.78 2.55.87.92.68.87 2.59.59Zm18.2-15.63c-.32-.49-1.56-4.16-1.46-4.34.18-.34 2.58-2.59 3.2-3.02.69-.46 1.47-.8 1.85-.8.89 0 .97 2.32.17 5.55-.49 2-.5 2-1.07 1.25-.5-.66-.48-.66-1.54.55-1.05 1.2-.95 1.12-1.15.81Zm2.26-2.16c.1 0 .19.03.19.07.01.05.16.26.34.47l.34.39.16-.56c.59-2.03.93-4.92.67-5.7-.11-.32-.17-.37-.44-.37-.87 0-3.01 1.57-4.39 3.22l-.4.49.42 1.22c.24.67.56 1.57.73 2l.29.79.95-1.01c.56-.6 1.02-1.01 1.14-1.01Zm-2.08-6.09c1.36-1.09 1.36-.89.02-2.24L32.48.1H30.4l.06.82c.15 2.06.33 2.72.95 3.43l.31.35.27-.23c.15-.12.8-.64 1.44-1.16ZM1.67.03c.94-.02 2.52-.02 3.5 0 .98.01.21.02-1.72.02C1.53.06.72.04 1.67.03Zm44.41 0c.94-.02 2.5-.02 3.45 0 .94.01.17.03-1.73.03S45.13.04 46.08.03Z"/></svg>