<svg xmlns="http://www.w3.org/2000/svg" width="51" height="51" viewBox="0 0 51 51"><path fill="#fff" fill-rule="evenodd" stroke="#fff" stroke-width=".762" d="M32.42 38.1c-3.72-3.74-6.81-6.8-6.86-6.8s-3.14 3.04-6.87 6.75-6.85 6.75-6.93 6.75c-.18 0-5.36-5.29-5.36-5.47 0-.07 3.04-3.16 6.75-6.85s6.75-6.75 6.75-6.8-.56-.66-1.25-1.37l-1.25-1.28v-5.41l-.87-.82-.88-.82-.05 2.06-.05 2.06-.98.97-.97.98-2.93-2.9c-1.6-1.6-3.13-3.1-3.4-3.35l-.47-.44-.89.88c-.49.48-.91.84-.94.79-.3-.48.74-4.51 1.5-5.83 2.29-3.96 5.88-5.46 9.17-3.82.89.44.98.52 4.34 3.86 1.89 1.88 3.48 3.49 3.54 3.6.08.16-.02.3-.65.95l-.76.76 1.69 1.75 1.68 1.75.79-.75c.43-.41 1.22-1.18 1.75-1.7l.98-.95-.83-.83-.82-.83 3.5-3.47c3.64-3.62 4.18-4.07 5.39-4.51 1.01-.36 2.67-.37 3.75-.02 2.42.79 4.71 3.56 5.61 6.76.3 1.08.59 3.09.46 3.22-.03.04-.45-.31-.91-.77l-.85-.84-.32.29c-.18.16-1.71 1.66-3.4 3.34-1.95 1.93-3.11 3.02-3.2 2.99-.08-.03-.54-.5-1.04-1.03l-.89-.98-.05-1.96-.05-1.96-.83.79-.82.79v5.25l-1.26 1.37-1.25 1.36.29.37c.17.2 3.23 3.28 6.81 6.84 3.58 3.55 6.51 6.52 6.51 6.6 0 .21-5.22 5.49-5.43 5.48-.1 0-3.18-3.01-6.95-6.8Zm9.03 4.48c1.1-1.12 2.25-2.29 2.55-2.6l.54-.58-6.84-6.85-6.84-6.84.3-.4c.16-.22.73-.86 1.27-1.44l.97-1.04v-5.27l1.03-.98c.56-.54 1.08-.98 1.15-.98.09 0 .12.5.12 2.18v2.17l.88.87.87.87 3.34-3.29c1.84-1.82 3.4-3.3 3.48-3.3.07 0 .44.3.83.66.79.75.79.76.55-.6-.63-3.59-2.8-6.72-5.42-7.82-.64-.27-.77-.29-2.08-.29-1.55 0-2.06.14-3.12.86-.45.3-7.23 6.96-7.23 7.1 0 .04.35.41.78.82l.77.76-1.85 1.86c-1.02 1.02-1.92 1.85-2 1.85-.16 0-3.7-3.62-3.7-3.78 0-.06.35-.42.77-.8l.77-.71-1.31-1.38c-5.21-5.5-6.53-6.5-8.78-6.61-1.86-.09-2.99.35-4.44 1.74-2.14 2.03-3.12 4.07-3.56 7.39l-.06.5.73-.79c.62-.67.77-.78.96-.72.13.04 1.68 1.53 3.46 3.31l3.23 3.23.87-.87.86-.86v-2.17c0-1.41.04-2.19.11-2.23.05-.04.57.39 1.15.96l1.04 1.03v5.28l1.21 1.26c.67.7 1.26 1.38 1.32 1.51.11.22-.25.6-6.67 6.95-6.07 6.01-6.78 6.74-6.68 6.91.06.11 1.21 1.3 2.56 2.64l2.44 2.44 6.8-6.76C22.31 34.04 25.43 31 25.5 31c.08 0 3.21 3.06 6.96 6.8s6.86 6.8 6.91 6.8c.04 0 .98-.91 2.08-2.02Z"/></svg>