<svg xmlns="http://www.w3.org/2000/svg" width="51" height="51" viewBox="0 0 51 51"><path fill="#fff" fill-rule="evenodd" stroke="#fff" stroke-width=".709" d="M4.22 47.08c-.17-.17-.17-29.89 0-30.06.09-.09 2.3-.12 9.34-.12h9.22l.87-.95c.78-.85.86-.97.74-1.12-.08-.1-.79-.87-1.59-1.71s-1.49-1.61-1.54-1.71c-.05-.11-.05-1.69 0-3.63l.09-3.43 12.76-.03c11.78-.02 12.78-.01 12.9.15.19.22.17 25.26-.02 25.49-.09.12-.75.14-3.73.14h-3.61l-1.67-1.67-1.67-1.67-.78.74-.78.75-.05 9.31c-.04 7.69-.07 9.34-.19 9.47-.18.22-30.08.26-30.29.05Zm30.08-9.33c0-4.98-.03-9.05-.07-9.05s-.98.91-2.1 2.02l-2.03 2.02v5.01c0 2.98-.04 5.06-.1 5.15-.08.13-1.38.15-10.7.15s-10.62-.02-10.7-.15c-.1-.16-.05-21.44.05-21.61.04-.05 2.05-.09 5.04-.09h4.98l1.88-1.95 1.87-1.95H4.4v29.5h29.9zm-4.5.18v-4.88l-3.03 3.03c-1.66 1.66-3.1 3.02-3.19 3.02-.21 0-11.38-11.07-11.38-11.29 0-.09 1.38-1.54 3.07-3.23l3.08-3.08H8.8v21.3h21zm.11-5.28c3.45-3.44 6.33-6.25 6.4-6.25s.87.74 1.79 1.65l1.66 1.65h6.91l.07-.31c.08-.4.08-23.91 0-24.39l-.06-.35-12.54.03-12.54.02v6.72l1.65 1.71c.91.94 1.65 1.78 1.65 1.85 0 .15-2.34 2.55-8.65 8.89-2.09 2.1-3.81 3.86-3.83 3.91-.03.09 11.03 11.12 11.15 11.12.03 0 2.89-2.81 6.34-6.25Zm-9.29-1.98c-1.55-1.55-2.82-2.87-2.82-2.94 0-.06.97-1.07 2.16-2.25 1.19-1.17 4.03-4.04 6.33-6.37l4.16-4.24-2.53-2.46-2.53-2.47.03-.79.03-.8 8.64-.03c5.97-.01 8.68.01 8.75.08.14.14.2 12.9.09 15.55l-.08 1.8-.76.03-.75.03-2.38-2.46c-1.31-1.35-2.43-2.45-2.49-2.45s-2.95 2.83-6.42 6.3c-3.47 3.46-6.38 6.3-6.46 6.3s-1.41-1.27-2.97-2.83Zm9.43-3.75c3.47-3.45 6.25-6.29 6.22-6.36s-1.3-1.33-2.82-2.81l-2.77-2.68-1.07 1.09c-.59.6-3.43 3.47-6.31 6.37l-5.24 5.28 2.74 2.74c1.72 1.72 2.78 2.71 2.86 2.67.07-.04 2.94-2.87 6.39-6.3Zm12.59-1.8c.03-.2.06-3.99.06-8.42V8.65H25.6v1.22l3.98 3.84c2.18 2.12 4.18 4.04 4.44 4.27.25.24 2.01 2.03 3.89 3.98l3.43 3.54h1.23z"/></svg>