<svg xmlns="http://www.w3.org/2000/svg" width="51" height="51" viewBox="0 0 51 51"><path fill="#fff" fill-rule="evenodd" stroke="#fff" stroke-width=".439" d="M11.55 43.87c-2.77-.92-3.07-4.61-.49-5.88 2.21-1.09 4.59.4 4.59 2.86 0 2.14-2.1 3.68-4.1 3.02Zm23.63-.04c-3.43-1.29-2.59-6.17 1.07-6.18 3.39 0 4.37 4.7 1.27 6.08-.65.28-1.73.33-2.34.1Zm-21.65-.29c1.59-.54 2.35-2.53 1.57-4.08-1.37-2.69-5.5-1.69-5.51 1.34-.01 2.06 1.94 3.42 3.94 2.74Zm24.02-.11c2.26-1.17 2.01-4.59-.39-5.39-2.99-1-5.25 2.88-2.89 4.95.83.74 2.32.93 3.28.44Zm-21.29-1.54c-.03-.08-.06-.57-.09-1.09-.19-4.88-7.26-4.85-7.42.03-.04.97 0 .95-1.15.61-1.41-.42-1.41-.43-1.34-2.57.05-1.49.09-1.75.25-1.97.29-.37.36-.58.48-1.39.13-.85.43-1.61.64-1.61.07 0 .43-.27.78-.6s1.11-.92 1.69-1.31 1.08-.8 1.12-.9c.12-.3.39-.36 3.04-.58 4.64-.4 5.28-.43 7.79-.38 4.26.09 6.43.67 11.19 3.03 1.26.63 1.31.64 2.6.79 5.07.59 8.58 2.04 8.82 3.63.04.26.12.63.19.83.14.39.06 1.7-.13 2.04-.43.8-2.03 1.35-4.3 1.47l-.52.03-.03-1.05c-.05-2.29-1.49-3.75-3.67-3.75-2.16 0-3.57 1.4-3.68 3.66l-.05.96-1.56.07c-3.85.16-14.6.19-14.65.05Zm-4.38-.38c-.72-.64-.25-1.81.72-1.81 1.07 0 1.43 1.38.5 1.93-.43.26-.85.21-1.22-.12Zm23.85.22c-.66-.13-.95-1.15-.48-1.71.81-.97 2.41.23 1.69 1.27-.15.21-.73.53-.91.5-.04-.01-.18-.04-.3-.06Zm-4.07-.19.62-.06-.05-.37c-.18-1.35.77-3.11 2.04-3.78 2.69-1.42 5.88.47 5.88 3.49 0 1.04-.19.97 1.82.63 1.75-.31 2.18-.5 2.51-1.15.29-.57.28-.87-.04-1.34-.19-.28-.23-.41-.15-.49.19-.19.13-.65-.11-.78-.12-.06-.46-.31-.75-.55-.98-.8-2.09-1.16-3.99-1.3l-.89-.07.5.42c.76.64.88.68 2.17.72 1.33.05 1.23-.1-.12-.18-.73-.05-.89-.09-1.12-.31-.45-.42-.25-.61.23-.23.17.13.48.2 1.06.24 1.02.06 1.58.32 2.13.95.61.72.54.96-.1.38-.47-.42-1.06-.56-2.38-.56-1.09 0-1.16-.03-2.17-.89-.32-.28-.63-.51-.67-.51s-.08-.07-.08-.15c0-.3 2.42-.13 3.75.26.78.23 1.16.44 1.93 1.07.3.24.56.42.58.39.12-.11-.14-.42-.7-.81-1.77-1.26-4.42-2.02-8.36-2.41-.53-.05-.92-.19-2.05-.75-2.97-1.45-5.51-2.39-7.55-2.77-1.61-.3-7.31-.25-10.99.1-1.57.15-2.88.27-2.93.27s-.12.1-.17.23-.44.44-.92.74c-.98.6-2.44 1.82-2.32 1.94.04.04.28.09.53.11.37.02.46.07.48.24.04.27-1.32 1.57-1.82 1.74-.31.1-.36.16-.36.41 0 .19-.09.38-.24.52-.23.21-.25.29-.31 1.93l-.07 1.71.27.21c.14.12.52.28.83.37s.64.18.73.21c.14.04.17-.08.21-.74.2-3.5 4.46-5.07 6.82-2.51q1.245 1.35 1.14 3.06l-.03.56 7.3-.07c4.02-.03 7.58-.09 7.91-.12Zm-18.62-.46c.23-.32.2-.54-.1-.77-.43-.34-.94-.11-.94.43s.74.78 1.04.34Zm23.38.05c.37-.33.11-1.03-.39-1.03-.53 0-.77.64-.41 1.07.15.18.58.16.8-.04Zm4.77-.5c-.11-.26-.23-.61-.26-.77l-.06-.28.49.05c.27.04.93.09 1.47.13.92.06.97.07.97.29 0 .46-.34.72-1.13.85-.39.06-.84.13-1 .16-.25.05-.29.01-.48-.43Zm2.25-.42c.06-.1-.75-.21-1.58-.21-.78 0-.62.18.19.23 1.21.07 1.34.07 1.39-.02Zm-10.42-4.22c.03-.09.24-.16.59-.18.49-.04.44-.05-.51-.15-1.37-.14-1.31-.32.1-.28 1.61.05 2.08.21 1.49.49-.42.2-1.73.29-1.67.12Zm-25.31-.91.19-.38h-.24c-.2 0-.25.07-.35.44-.21.83-.05.81.4-.06Zm.87-.8c-.64-.1-.98-.09-.98.02 0 .06.1.1.23.1.43 0 .54.15.34.49-.29.49-.19.48.33-.04l.51-.5zm6.92.52c0-.15.13-.18 1.38-.25.93-.05 1.12-.04 1.12.08 0 .1-.19.16-.68.2-1.01.1-1.82.08-1.82-.03Zm8.11-.61c-1.84-.1-3.38-.22-3.43-.27-.14-.14-.71-2.5-.65-2.66.05-.13.27-.16 1.34-.16 3.64.01 5.6.42 8.16 1.72 1.2.61 1.51.89 1.45 1.3-.04.31-2.14.33-6.87.07Zm-5.81-.46c-.8-.06-2.63-.34-2.79-.43-.24-.13-1.76-1.4-1.79-1.5-.02-.05.07-.11.2-.14.38-.08 4.62-.34 4.74-.29.13.05.54 1.56.54 1.96 0 .25-.18.48-.34.45-.06-.01-.31-.03-.56-.05ZM.04 25.61c-.02-.02-.01-.08.02-.12.09-.15 50.94-.11 50.94.04 0 .11-50.84.2-50.96.08Zm15.74-3.17c-.62-.19-1.31-.88-1.52-1.52-.29-.86-.19-12.62.11-13.17.3-.56.8-1.01 1.32-1.2.55-.19 18.9-.23 19.66-.04.54.14 1.18.67 1.48 1.23l.22.41v12.7l-.28.47c-.34.58-.81.95-1.43 1.14-.71.21-18.87.2-19.56-.02Zm19.77-.33c.5-.22 1.01-.79 1.15-1.28.08-.26.1-2.3.08-6.6l-.03-6.21-.3-.43c-.16-.23-.5-.53-.74-.66l-.45-.23-9.76.02-9.77.03-.39.27c-.21.15-.5.44-.64.65l-.25.37-.03 6.2c-.03 6.64-.03 6.66.47 7.27.7.85-.08.79 10.71.79 9.02 0 9.57-.01 9.95-.19Zm-19.56-1.4-.24-.19.03-6.09c.03-5.98.04-6.08.24-6.25.35-.3 18.74-.27 19.12.03l.26.2v5.98c0 5.9 0 5.99-.21 6.25l-.2.26H25.6c-9.09 0-9.39-.01-9.61-.19Zm19.06-6.26v-6.1l-9.39-.03c-6.85-.01-9.42.01-9.52.09-.19.16-.21 11.88-.02 12.07.09.09 2.29.12 9.53.1l9.4-.03zM17.3 19.68c.01-.07 0-2.42-.01-5.23-.01-2.8-.01-5.16 0-5.23.01-.16 3.85-.17 4.81-.01 2.35.38 3.39 2.13 3.27 5.52-.09 2.76-.77 4.16-2.33 4.78-.72.29-5.74.44-5.74.17Zm8.95 0c-.03-.07-.04-2.47-.03-5.33l.03-5.2 2.37-.03c3.52-.04 4.28.18 4.93 1.43.6 1.16.33 2.6-.63 3.32l-.43.32.4.2c2.01 1.03 1.66 4.24-.56 5.12-.72.29-5.98.44-6.08.17Zm-4.32-.18c2.27-.33 3.2-1.8 3.21-5.1.01-2.64-.68-4.11-2.22-4.71-.52-.21-.77-.23-2.99-.27l-2.43-.04V19.6h1.88c1.03 0 2.18-.05 2.55-.1Zm9.17-.01c1.95-.24 2.8-1.11 2.8-2.85 0-1.12-.43-1.77-1.42-2.14-.55-.2-.57-.35-.1-.59 1.13-.58 1.55-2.07.93-3.29-.52-1.03-1.22-1.22-4.43-1.22H26.5v10.2h1.88c1.03 0 2.25-.05 2.72-.11Zm-11.33-1.46c-.09-.08-.09-6.86-.01-7.07.05-.12.2-.16.63-.16 1.79 0 2.4.82 2.49 3.35.09 2.78-.6 3.94-2.34 3.95-.39 0-.74-.03-.77-.07Zm9.03-1.38V15.2h.8c1.42 0 1.94.38 1.94 1.42.01 1.04-.56 1.48-1.92 1.48h-.82zm-7.86 1.15c1.35-.22 1.98-1.86 1.67-4.31-.22-1.77-.74-2.38-2.03-2.39H20v3.4c0 3.17.01 3.4.18 3.4.09 0 .44-.04.76-.1Zm9.57-.06c.4-.08.71-.47.76-.96.1-.9-.24-1.2-1.49-1.32l-.68-.07v2.52l.58-.06c.31-.03.69-.08.83-.11Zm-1.71-5.59V10.8h.63c1.23 0 1.87.41 1.87 1.21 0 1.01-.58 1.48-1.82 1.49h-.68zm1.83.83c.29-.2.47-.71.4-1.11-.09-.47-.45-.69-1.23-.75l-.7-.05v2.18l.63-.05c.35-.03.75-.13.9-.22Z"/></svg>