<svg xmlns="http://www.w3.org/2000/svg" width="51" height="51" viewBox="0 0 51 51"><path fill="#fff" fill-rule="evenodd" stroke="#fff" stroke-width=".664" d="M22.15 51.13C11.26 49.65 2.61 41.55.33 30.68c-.34-1.65-.46-7.21-.18-9.08 1.22-8.33 6.42-15.4 14.1-19.16C17.48.86 20.91-.03 23.61.02c.57.01.82.03.54.05-12.5.75-22.47 10-23.9 22.18-1.76 15.06 9.12 28.15 24 28.88.33.02.06.03-.6.04-.66 0-1.33-.02-1.5-.04Zm5.27-.03c12.6-.99 22.16-10.33 23.63-23.1l.14-1.25-.04 1.15c-.12 3.41-1.58 7.88-3.69 11.28-4.29 6.91-12.32 11.81-19.61 11.97-1.47.03-1.48.03-.43-.05ZM10.9 37.43c-1.03-.19-.99-1.06.09-2.18 1.36-1.41 1.45-3.19.22-4.42l-.29-.3-1.89-.07-1.88-.06-.27-.3c-.48-.53-.39-.8.67-1.91 1.51-1.58 1.47-3.1-.1-4.57-.79-.74-.9-.99-.64-1.55.22-.49.53-.57 2.28-.57h1.61l.41-.37c1.37-1.24 1.33-3.02-.12-4.46-1.02-1.01-1.12-1.48-.42-1.94.32-.21 17.43-.34 18.73-.14.35.06.65.09.67.08.01-.02-.11-.57-.27-1.23-.56-2.25-.74-2.08 3.3-3.24 3.72-1.06 4.03-1.09 4.4-.39.19.34 6.2 24.64 6.2 25.04 0 .59-.25.7-3.55 1.65-1.71.49-3.29.9-3.52.9-.84 0-.77.18-2.28-5.85-1.91-7.59-2.37-9.4-2.4-9.43-.02-.02-.27.16-.57.4-.62.5-1.33.83-2.01.93-.39.06-.47.1-.41.24.36.86.47 1.27.51 1.96.06.88-.13 1.84-.47 2.43-.11.18-.2.35-.2.36 0 .02.23.06.51.09 4.16.5 5 6.59 1.18 8.59l-.64.33-9.3.01c-5.11.01-9.41 0-9.55-.03Zm19.41-.56c3.72-1.82 2.72-7.58-1.4-8.13-.6-.08-.59-.04-.2-.87.54-1.17.54-2.61 0-3.85-.34-.76-.33-.76.47-.85.73-.08 1.52-.46 2.11-1.02.53-.5.75-.53.83-.13.03.13.87 3.49 1.87 7.48 2.03 8.06 1.93 7.79 2.7 7.65.43-.08 5.84-1.61 6.24-1.77.56-.22.57-.2-.72-5.38-.56-2.23-1.89-7.61-2.97-11.95s-2-7.98-2.05-8.08c-.24-.44-.51-.5-1.4-.27-2.62.66-5.75 1.63-5.98 1.85l-.24.24.37 1.52c.42 1.74.42 1.75-.4 1.59-1.16-.22-18.67-.09-18.93.14-.38.35-.28.67.43 1.29 1.67 1.48 1.75 3.69.19 5.06l-.46.41H9.1c-1.85 0-2.02.05-2.16.63-.06.25.01.35.69 1 1.74 1.66 1.72 3.31-.04 5.13-1.27 1.3-1.02 1.57 1.57 1.64l1.83.05.34.33c1.42 1.38 1.35 3.35-.19 4.9-.67.68-.79.9-.7 1.26.11.45.03.45 9.91.43l9.4-.02zM13 35.66c0-.07.11-.33.24-.57.66-1.22.74-2.65.22-3.89-.15-.36-.3-.73-.33-.82-.05-.17.38-.18 7.98-.18h8.04l.5.24c2.01.93 2.1 3.9.15 5.04l-.45.27-8.17.03c-6.95.02-8.18 0-8.18-.12Zm16.55-.35c1.69-.76 1.88-3.49.31-4.46l-.49-.3-7.95-.03c-7.56-.02-7.94-.02-7.87.15.69 1.69.71 2.91.06 4.27l-.28.56h7.91c7.43 0 7.93-.02 8.31-.19Zm6.71-2.84c-.42-1.66-.76-3.09-.76-3.17 0-.21 4.45-1.49 4.61-1.33.13.13 1.61 6.03 1.55 6.19-.04.1-4.24 1.35-4.52 1.34-.06 0-.45-1.36-.88-3.03Zm3.04 2.18c1.07-.31 1.98-.59 2.02-.63.06-.06-1.27-5.7-1.38-5.81-.07-.07-4.14 1.13-4.14 1.22 0 .22 1.43 5.77 1.49 5.77.03 0 .94-.25 2.01-.55ZM9.56 28.71c-.03-.05.1-.43.29-.84.65-1.36.65-2.68.01-3.95-.14-.28-.26-.56-.26-.62 0-.07 2.57-.1 8.02-.1h8.03l.5.24c2.15 1 1.99 4.58-.24 5.24-.47.15-16.27.17-16.35.03Zm16.5-.4c1.69-.77 1.84-3.52.24-4.48l-.54-.33h-7.89c-7.48 0-7.89.01-7.81.18.76 1.73.73 2.74-.13 4.7-.1.23 15.61.17 16.13-.07Zm8.99-.73c-.06-.17-1.55-6.16-1.55-6.22s3.9-1.33 4.36-1.42c.37-.07.23-.45 1.19 3.45.79 3.21.78 3.05.18 3.21-.27.06-1.23.34-2.14.61-1.78.52-1.97.56-2.04.37Zm2.6-.81c1.58-.47 1.8-.56 1.77-.73-.06-.36-1.43-5.78-1.47-5.82-.04-.05-3.97 1.18-4.07 1.27-.05.05 1.16 5.18 1.38 5.8.05.17.07.16 2.39-.52Zm13.37-3.92C49.69 10.35 39.59.73 27.1.06c-.36-.02.05-.02.9-.01 4.5.08 10.06 2.34 14.1 5.73 5.24 4.41 8.7 10.94 9.07 17.15.08 1.41 0 1.37-.15-.08Zm-38.04-1.1c-.03-.03.13-.42.36-.86l.41-.81v-1.17c0-1.1-.02-1.19-.32-1.85-.18-.37-.33-.72-.33-.77 0-.13 15.75-.12 16.22.01 2.34.65 2.42 4.4.13 5.36-.34.14-16.33.23-16.47.09Zm16.5-.42c1.86-.88 1.86-3.9 0-4.67-.61-.26-16.04-.24-15.92.02.72 1.64.7 3.27-.06 4.49l-.2.33 3.48.02c7.4.06 12.33-.02 12.7-.19Zm3.53-1.9c-.57-2.19-1.71-6.86-1.68-6.89.18-.18 4.6-1.35 4.67-1.24.14.22 1.72 6.78 1.68 6.96-.02.14-.54.34-2.13.86-2.48.8-2.41.79-2.54.31Zm2.35-.54c2.13-.68 2.04-.64 2.04-.87-.01-.2-1.55-6.4-1.61-6.46-.02-.03-.72.15-1.54.38-2.71.78-2.66.76-2.61.94.03.09.37 1.45.76 3.02.92 3.7.89 3.6.99 3.6.05 0 .94-.27 1.97-.61Z"/></svg>