<svg xmlns="http://www.w3.org/2000/svg" width="51" height="51" viewBox="0 0 51 51"><path fill="#fff" fill-rule="evenodd" stroke="#fff" stroke-width=".473" d="M13.5 34.61c-3.22-.69-5.75-3.07-6.77-6.38-.38-1.24-.41-3.84-.05-5.06 1.92-6.65 9.91-9.04 15.02-4.5l.44.4-1.09 1.17c-.6.64-1.11 1.16-1.13 1.16-.01 0-.26-.18-.54-.41-3.98-3.14-9.75-.4-9.72 4.61.03 5.03 5.68 7.73 9.73 4.64.6-.46.57-.48 1.7.73 1.15 1.21 1.12 1.15.69 1.51-2.3 1.96-5.36 2.75-8.28 2.13Zm3.77-.16c1.67-.35 4.53-1.84 4.53-2.35 0-.05-.42-.53-.93-1.06l-.93-.97-.49.38c-3.14 2.4-7.6 1.41-9.35-2.07-2.88-5.75 3.7-11.44 9.03-7.81l.81.55.92-.98c.51-.55.93-1.02.94-1.06.02-.36-2.47-1.82-3.75-2.19-1.02-.3-3.25-.38-4.31-.14a9.18 9.18 0 0 0-5.5 3.62c-1.91 2.64-2.16 6.4-.65 9.42 1.76 3.49 5.88 5.47 9.68 4.66Zm-3-4.75c-.81-.25-1.58-.79-2.06-1.43-3.23-4.28 2.51-9.41 6.4-5.71 2.04 1.95 1.57 5.43-.92 6.79-1.05.57-2.33.7-3.42.35Zm21.61.06c-1.5-.43-2.79-1.87-3.08-3.45-.05-.3-.1-2.14-.1-4.12V18.6h3.1v2.75h1.17c1.15 0 1.2.01 1.94.36.94.45 1.66 1.15 2.11 2.06.5 1.01.5 2.64 0 3.66-.94 1.92-3.13 2.91-5.14 2.33Zm-19.19-.25c3.66-1.14 4.08-5.95.65-7.58-2.03-.97-4.33-.17-5.45 1.89-.51.94-.51 2.49-.01 3.51.93 1.88 2.9 2.77 4.81 2.18Zm21.62.02c1.83-.59 3-2.31 2.86-4.23-.18-2.65-2.64-4.31-5.4-3.64l-.27.06v-2.93l-1.27.03-1.28.03.03 3.7c.04 4.18.07 4.37.75 5.37 1.01 1.47 2.92 2.14 4.58 1.61Zm-18.09-2.75.03-2.73.34-.62c.41-.77 1.13-1.46 1.89-1.81.87-.41 2.32-.39 3.17.04l.6.3.65-.3c1.73-.82 3.96-.19 4.98 1.41.55.87.62 1.31.62 4v2.44l-1.52-.03-1.53-.03-.05-2.36c-.06-2.69-.09-2.79-.8-2.79-.68 0-.69.06-.72 2.76l-.03 2.39-1.52.03-1.53.03v-2.34c0-2.68-.05-2.87-.76-2.87-.72 0-.74.09-.74 2.8v2.4h-3.11zm21.53 1.47c-.08-1.42-.03-6.31.07-6.41.1-.09 2.24-.17 2.65-.09l.33.06v7.69h-2.98zm-18.74.93.02-2.28c.02-2.38.05-2.52.63-2.76.44-.18.78-.1 1.09.28l.25.3v4.58h2.59l.03-2.29c.04-2.7.08-2.84.9-2.89 1.03-.07 1.2.44 1.1 3.41l-.05 1.77h2.75l-.04-2.47c-.04-2.29-.06-2.53-.27-3.06-.75-1.91-3.13-2.8-5.07-1.89l-.71.33-.34-.2c-1.48-.86-3.31-.6-4.48.64-.92.98-.95 1.1-.99 4.08l-.03 2.57h1.3c.98 0 1.31-.03 1.32-.12Zm21.59-3.53V22H42v7.3h2.6zm-7.89 1.44c-.92-.19-1.43-1.49-.89-2.28.51-.74 1.29-.96 1.99-.55 1.54.9.65 3.19-1.1 2.83Zm-21.99-.2c-1.27-.82-.67-2.84.85-2.84 1.53 0 2.12 2.05.81 2.85-.45.27-1.22.27-1.66-.01Zm1.55-.19c.96-.58.76-2.04-.33-2.4-1.05-.35-2.06.84-1.58 1.85.33.71 1.23.97 1.91.55Zm21.57-.01c1.04-.82.54-2.39-.77-2.39-.74 0-1.27.54-1.27 1.3 0 1.05 1.24 1.72 2.04 1.09Zm4.58-5.46c-.97-.48-1.16-1.79-.37-2.58 1.29-1.28 3.41.13 2.71 1.8-.34.8-1.5 1.2-2.34.78Zm1.48-.18c1.27-.66.9-2.51-.53-2.63-.95-.08-1.57.47-1.57 1.37 0 1.06 1.15 1.75 2.1 1.26Z"/></svg>