<svg xmlns="http://www.w3.org/2000/svg" width="51" height="51" viewBox="0 0 51 51"><path fill="#fff" fill-rule="evenodd" stroke="#fff" stroke-width=".455" d="M23.01 38.15c-3.91-1.09-2.85-7.63 1.37-8.45 3.3-.65 5.07 2.48 3.37 5.96-.92 1.89-3 2.98-4.74 2.49Zm8.44-.07c-.53-.2-1.14-.68-1.37-1.08-.3-.53-.33-.51-.49.27l-.14.68-.52.03c-.29.02-.53.01-.53-.02s.27-1.28.59-2.78c.33-1.5.74-3.43.92-4.28s.44-2.11.58-2.8l.26-1.25.58-.03c.35-.02.57.01.57.07s-.18.93-.4 1.93c-.22 1.01-.4 1.86-.4 1.9s.15-.07.33-.24c1.08-1.02 2.96-1.15 4.15-.28 2.14 1.55 1.18 6.32-1.55 7.66-.65.32-2 .44-2.58.22Zm-23.55-.2c-.01-.07.36-1.9.82-4.05l.82-3.93h1.08l-.07.33c-.04.17-.09.43-.12.56-.05.19.02.15.41-.24 1.33-1.32 3.48-1.25 4.1.13l.18.39.4-.43c1.56-1.7 4.42-1.22 4.56.77.05.66.02.86-.64 3.98-.59 2.78-.52 2.61-1.15 2.61h-.52l.06-.32c.03-.18.29-1.39.57-2.68.75-3.47.75-3.85 0-4.22-.77-.39-1.62-.17-2.4.61-.72.72-.88 1.13-1.51 3.96-.62 2.77-.57 2.65-1.13 2.65-.25 0-.47-.03-.5-.08-.02-.04.2-1.22.5-2.62.73-3.37.77-3.85.36-4.31-.29-.32-.34-.34-.94-.33-1.49.01-2.53 1.22-3.04 3.58-.5 2.28-.77 3.41-.86 3.59-.11.21-.98.25-.98.05Zm17.51-.21c3.19-1.53 3.77-6.66.86-7.63-2.33-.77-4.82.94-5.33 3.66-.58 3.07 1.85 5.22 4.47 3.97Zm8.54-.06c2.28-1.13 3.36-5.07 1.87-6.82-1.09-1.27-3.24-1.19-4.51.16-.43.46-.65.51-.56.12.06-.3.71-3.33.8-3.75.07-.33.06-.33-.27-.3l-.33.03-.32 1.6c-.47 2.31-1.85 8.78-1.9 8.93-.04.08.05.12.26.12s.31-.05.31-.16c0-.08.07-.46.16-.85.18-.78.36-.89.55-.32.46 1.41 2.37 2.01 3.94 1.24Zm2.95.24c0-.08.18-1 .41-2.03.22-1.03.58-2.7.8-3.72s.42-1.93.45-2.02c.05-.18 1.14-.28 1.14-.1-.01.04-.4 1.85-.88 4.02l-.87 3.95-.53.03c-.42.02-.52 0-.52-.13Zm2.48.1c-.03-.03.03-.4.13-.83.09-.42.61-2.84 1.14-5.37s.98-4.68 1.01-4.77c.09-.31 1.18-.26 1.11.05-.03.12-.47 2.18-.97 4.57s-.99 4.69-1.1 5.1c-.1.41-.21.87-.24 1.03-.06.25-.1.27-.55.27-.26 0-.5-.02-.53-.05Zm-30.59-.62c.09-.34.27-1.18.75-3.43.44-2.06 1.76-3.5 3.2-3.5 1.56 0 1.75.72 1.05 4.02-.22 1.06-.44 2.16-.5 2.43-.05.27-.12.58-.15.67-.04.14.01.18.24.18.24 0 .31-.05.36-.26.04-.14.27-1.15.51-2.24.53-2.35.74-2.97 1.27-3.67.89-1.2 2.57-1.55 3.35-.69l.36.39-.06.81c-.03.44-.28 1.87-.56 3.17-.28 1.31-.51 2.4-.51 2.43s.13.06.3.06.3-.02.3-.04.22-1.09.49-2.37c.66-3.1.73-3.55.66-3.99-.3-1.79-2.71-1.95-4.3-.29-.62.64-.72.64-.74.02-.02-.6-.87-1.15-1.76-1.15-.83 0-1.41.27-2.2 1.02-.75.73-.89.6-.58-.52.03-.14-.02-.18-.26-.18s-.3.05-.35.28c-.03.15-.35 1.67-.7 3.37-.89 4.26-.83 3.85-.52 3.85.21 0 .27-.06.35-.37Zm29.08-.23c.07-.3.42-1.9.78-3.55s.68-3.08.71-3.18c.05-.16.01-.18-.27-.15l-.32.03-.78 3.6c-.91 4.18-.87 3.87-.52 3.83.24-.03.29-.09.4-.58Zm2.42.23c.14-.53.9-4.06 1.59-7.38l.58-2.8-.24-.03c-.34-.05-.33-.07-.76 2-.21 1.01-.71 3.35-1.1 5.21l-.72 3.37h.27c.24 0 .3-.06.38-.37Zm-17.34-.07c-2.92-1.35-1.29-6.85 2.03-6.86 1.63 0 2.52.94 2.52 2.67 0 2.99-2.4 5.2-4.55 4.19Zm8.65.13c-2.45-.74-1.89-5.62.78-6.82 1.76-.78 3.39.24 3.5 2.18.16 2.88-2.08 5.3-4.28 4.64Zm-6.4-.44c1.4-.71 2.42-3.07 2-4.65-.63-2.41-3.84-2.2-5.04.34-1.35 2.86.55 5.56 3.04 4.31Zm8.27.05c1.53-.69 2.6-3.24 2.08-4.96-.49-1.65-2.65-1.94-4.05-.54-1.59 1.59-1.59 4.95 0 5.59.43.17 1.51.12 1.97-.09Zm5.43-8.57c.01-.05.09-.42.18-.83l.18-.75.52-.03c.6-.04.59-.07.35.96l-.17.72h-.53c-.29 0-.53-.03-.53-.07Zm.97-.68c.17-.67.16-.75-.06-.75-.25 0-.36.16-.5.72-.15.62-.15.6.16.56.23-.03.29-.1.4-.53ZM8.1 24.91c0-.06.09-.53.21-1.04.11-.5.63-2.99 1.15-5.51.52-2.53.99-4.76 1.04-4.98l.11-.38h3.17c3.46 0 3.87.05 4.86.58 4.02 2.15 2.57 9.5-2.18 11.09l-.81.27-3.77.04c-2.65.02-3.78 0-3.78-.07Zm14.76-.03c-.05-.16-.1-.62-.36-3.68-.39-4.57-.6-7.26-.6-7.72V13h3.58l.06.53c.14 1.13.46 4.85.46 5.29 0 .88.06.78 2.3-4.04l.83-1.78h1.88c1.45 0 1.89.03 1.89.12-.01.07-1.33 2.76-2.94 5.98l-2.93 5.85-2.07.03c-1.6.02-2.07 0-2.1-.1Zm8.24-.09c0-.21 1.81-9.08 2.21-10.86l.21-.93h3.59c4.4 0 4.92.09 5.67.94 1.07 1.23.43 3.79-1.1 4.41l-.43.17.36.19c2.16 1.1 1.49 4.78-1.06 5.85-1.21.5-9.45.7-9.45.23Zm-15-.28c2.36-.7 3.91-2.46 4.45-5.07.65-3.15-.64-5.52-3.3-6.09-1.12-.24-6.42-.22-6.49.03-.1.35-.48 2.17-1.2 5.72-.41 2.01-.84 4.07-.95 4.57-.12.51-.21.95-.21.97 0 .26 6.78.13 7.7-.13Zm10.77.16c.05-.05 5.73-11.35 5.73-11.4 0-.04-.74-.07-1.65-.07h-1.64l-.37.78c-.2.42-.72 1.56-1.16 2.52-1.13 2.46-1.77 3.72-1.87 3.66-.05-.03-.11-.58-.15-1.23s-.16-2.1-.27-3.23c-.1-1.13-.19-2.15-.19-2.27 0-.23-.01-.23-1.6-.23h-1.6l.06.83c.04.45.26 3.03.48 5.72l.41 4.9.6.06c.49.05 3.16.01 3.22-.04Zm12.81-.11c1.68-.43 2.66-1.45 2.93-3.03.21-1.2-.23-2.18-1.15-2.62-.72-.33-.7-.41.19-.86 1.27-.64 1.81-2.36 1.14-3.66-.52-1.03-.94-1.12-5.36-1.17l-3.63-.04-.1.26c-.05.14-.42 1.82-.81 3.73-.4 1.91-.91 4.38-1.14 5.48-.42 1.99-.42 2-.21 2.07.45.15 7.47.02 8.14-.16Zm-4.52-2.34c-.07-.12.38-2.4.5-2.52.15-.14 2.76.06 3.12.24.79.41.71 1.65-.12 2.08-.47.24-3.37.41-3.5.2Zm-22.86-.19c0-.04.27-1.41.6-3.03s.6-2.99.6-3.04c0-.19 2.33-.01 2.76.22 1.11.57 1.42 1.92.84 3.67-.53 1.59-1.44 2.18-3.47 2.23-.73.02-1.33 0-1.33-.05Zm26.01-.13c.94-.26 1.09-1.4.23-1.76-.31-.13-2.74-.32-2.74-.22 0 .03-.09.5-.2 1.03s-.2.99-.2 1.01c0 .09 2.57.03 2.91-.06Zm-22.96-.34c1.86-.88 2.45-4.33.88-5.12-.45-.23-2.28-.43-2.44-.27-.07.07-1.19 5.37-1.19 5.6 0 .17 2.31 0 2.75-.21Zm21.17-3.73c-.49-.05-.49-.06-.28-1.33l.12-.75h1.36c1.64 0 1.91.12 1.96.84.07.99-1.08 1.44-3.16 1.24Zm2.52-.46c.58-.39.6-1.08.04-1.26-.33-.1-2.47-.27-2.49-.2 0 .02-.06.42-.13.88l-.12.83 1.21-.04c.95-.03 1.28-.08 1.49-.21Z"/></svg>