<svg xmlns="http://www.w3.org/2000/svg" width="51" height="51" viewBox="0 0 51 51"><path fill="#fff" fill-rule="evenodd" stroke="#fff" stroke-width=".445" d="M10.31 48.84c-.32-.4-.33-13.87-.02-14.25.25-.32 1.98-.42 2.49-.15.53.27.53.33.5 7.54l-.03 6.64-.28.24c-.45.38-2.36.37-2.66-.02Zm5.92.02-.28-.24.03-6.84c.02-3.75.06-6.91.08-7.01.16-.54 2.16-.69 2.73-.21l.31.26v5.58h5.49l.03-2.8c.04-3.46-.07-3.25 1.58-3.25 1.01 0 1.11.02 1.32.23l.23.23.03 6.83.02 6.84-.26.31c-.26.31-.26.31-1.29.31-1.72 0-1.65.15-1.65-3.35V43.1h-5.45v.52c-.03 5.9.09 5.48-1.59 5.48-.96 0-1.07-.02-1.33-.24Zm14.52-.01-.25-.24V34.88l.29-.29c.42-.41 2.02-.44 2.48-.05l.28.24.05 2.83.05 2.83 2.41-2.59c1.33-1.43 2.63-2.8 2.88-3.05l.47-.45 1.25-.03c2.65-.07 2.71-.21-2.1 5.12l-.68.76.8 1.27c.43.71 1.55 2.47 2.47 3.93 1.83 2.89 1.93 3.09 1.76 3.46l-.11.25-1.42-.03-1.42-.03-.36-.47c-.19-.26-1.08-1.63-1.97-3.05s-1.68-2.66-1.75-2.75c-.12-.16-.24-.06-1.2.99l-1.08 1.16v1.78c0 2.36-.02 2.39-1.56 2.39-.98 0-1.07-.02-1.29-.25Zm-18.01-.16.26-.2v-6.76c0-6.15-.01-6.78-.17-6.95-.21-.23-2.13-.27-2.32-.04-.22.26-.17 13.87.05 14.03.31.23 1.86.17 2.18-.08Zm5.89 0 .27-.2.02-2.82.03-2.82 2.84-.03c2.05-.02 2.87.01 2.98.09.11.1.13.62.13 2.88-.02 3.31-.1 3.11 1.31 3.11 1.43 0 1.29.79 1.29-7.19 0-7.93.15-7.11-1.28-7.11-1.38 0-1.26-.28-1.32 3.07l-.05 2.88-2.97.03-2.98.02v-2.78c0-3.45.09-3.22-1.35-3.22-1.5 0-1.35-.8-1.35 7.17 0 7.91-.14 7.13 1.29 7.13.74 0 .93-.03 1.14-.21Zm14.45.05c.21-.15.22-.2.22-2V44.9l.89-.98c.49-.53 1.05-1.13 1.25-1.32l.37-.35.18.24c.1.13.7 1.06 1.32 2.05.62 1 1.5 2.39 1.96 3.09l.83 1.28 1.27-.03 1.28-.03.03-.25c.02-.18-.3-.77-1.11-2.05-.62-.99-1.75-2.78-2.5-3.98-.76-1.2-1.4-2.24-1.43-2.32-.04-.09.34-.57.98-1.27 2.36-2.58 3.58-4.02 3.58-4.24 0-.15-2.39-.21-2.74-.08-.09.04-1.47 1.48-3.07 3.2C34.8 39.59 33.45 41 33.4 41c-.06 0-.1-1.16-.1-3.04 0-2.64-.02-3.07-.16-3.2-.2-.21-2.06-.23-2.22-.03-.21.25-.18 13.74.03 13.97.24.26 1.77.29 2.13.04Zm11.47-15.18c-2.61-.52-4.35-2.08-5.06-4.54-.59-2.03-.44-6.61.26-8.35 1.66-4.08 7.51-5.18 10.98-2.06.73.65.51.73-.25.1-3.89-3.21-9.75-1.5-10.85 3.16-.29 1.24-.26 5.76.05 6.88.66 2.39 2.36 4.01 4.72 4.51 2.23.47 5.07-.28 6.39-1.7.27-.29.41-.33.41-.12s-1.31 1.21-2.04 1.56c-1.24.59-3.23.83-4.61.56Zm-37.33-.19c-.06-.06-.17-.39-.26-.72s-.31-1.07-.49-1.65l-.33-1.05H.78l-.33.88c-.42 1.11-.45 1.14-.44.41 0-.32.03-.53.06-.46.03.08.16-.11.28-.43.13-.31.26-.6.3-.63.11-.12 5.32-.14 5.53-.03.17.09.53 1.11 1.05 2.96l.14.5 1.52.03c.87.01 1.51-.01 1.51-.07 0-.1-2.97-8.88-4.15-12.26-.42-1.21-.86-2.48-.98-2.82l-.21-.63H1.85l-.73 2.1C.21 22.11.07 22.44.02 22.12c-.02-.13.13-.67.32-1.2.2-.54.58-1.6.85-2.37l.49-1.4 1.75-.03 1.75-.02.32.82c1.06 2.79 5.28 15.33 5.18 15.43-.12.12-3.36.14-3.46.02Zm10.43.03c-5.4-.05-5.5-.05-5.54-.25-.02-.11 0-3.77.04-8.13l.07-7.92 5.52.02 5.51.03v2.7l-3.82.03-3.83.02v3.7h3.24c2.64 0 3.26.03 3.35.14.08.09.11.55.09 1.37l-.03 1.24-3.32.03-3.33.02v4.2l3.83.02 3.82.03.03 1.34c.01.74-.01 1.37-.05 1.4s-2.55.04-5.58.01Zm11.12-4.62c-.86-2.55-2.08-6.16-2.72-8.02-.63-1.87-1.13-3.46-1.11-3.53.04-.11.42-.13 1.83-.11l1.77.03.47 1.55c.26.85 1.05 3.51 1.75 5.9.69 2.39 1.29 4.39 1.32 4.44.05.09 1.04-3.08 2.58-8.29.52-1.76.98-3.3 1.04-3.43.09-.22.13-.22 1.84-.22.96 0 1.77.04 1.8.09.03.04-.26 1.02-.65 2.17-2.27 6.71-4.21 12.4-4.49 13.16l-.32.88h-3.56zm-5.67 3.27V30.9h-7.7l.02-2.37.03-2.38 3.33-.03 3.34-.02-.04-1.1-.03-1.1H15.4l.02-2.12.03-2.13 3.77-.03 3.77-.02.06-.53c.04-.28.05-.79.03-1.12l-.03-.6-4.95-.02c-2.72 0-5.12.01-5.32.04l-.38.05V33.2h10.7zm10.65.97c.15-.38 2.94-8.58 4.09-11.99l1.21-3.62-.82-.06c-.86-.08-2.18-.04-2.28.06-.03.04-.48 1.5-1 3.26-.51 1.76-1.23 4.14-1.58 5.29-.36 1.15-.77 2.53-.92 3.07-.29 1.02-.39 1.15-.49.7-.04-.16-.86-2.99-1.83-6.3l-1.77-6.02-.45-.07c-.43-.07-2.59.01-2.67.09-.02.02.44 1.43 1.02 3.13.59 1.7 1.79 5.24 2.67 7.87l1.59 4.77h1.58c1.41 0 1.59-.02 1.65-.18ZM45 31.01c-1.27-.39-2.2-1.53-2.5-3.08-.21-1.06-.08-5.45.18-6.15 1.2-3.27 5.43-3.18 6.62.14.54 1.49.37 5.84-.29 7.23-.71 1.52-2.45 2.33-4.01 1.86Zm2.26-.41c1.55-.68 2.04-2 2.04-5.5 0-2.27-.08-2.88-.5-3.7-1.23-2.42-4.8-2.26-5.81.25-.35.88-.42 5.68-.1 6.74.62 2.04 2.55 3.02 4.37 2.21ZM1.4 27.24c0-.14.33-1.26 1.61-5.46.17-.57.35-.98.43-.98.16 0 2.2 6.42 2.08 6.54-.15.16-4.12.06-4.12-.1Zm3.75-.41c-.03-.16-.43-1.47-.89-2.93l-.84-2.65-.22.75c-.12.41-.51 1.7-.86 2.86S1.7 27 1.7 27.04c0 .03.79.06 1.76.06h1.76z"/></svg>