<svg xmlns="http://www.w3.org/2000/svg" width="51" height="51" viewBox="0 0 51 51"><path fill="#fff" fill-rule="evenodd" stroke="#fff" stroke-width=".27" d="m8.71 50.4-.01-.25 2.37.05 2.38.05-2.32.03c-2.1.02-2.32.04-2.36.2-.03.11-.05.09-.06-.08Zm7.92-1.42c-.82-.9-1.62-1.78-1.79-1.96l-.29-.32-.51.25c-.28.13-.68.27-.9.31l-.39.06-.35-.96c-.2-.56-.41-.96-.48-.96-.15 0-.11-.25.04-.26.62-.03 1-.39.41-.39-.23.01-.25-.01-.12-.15.11-.12.12-.19.03-.28-.08-.08-.35.11-1.07.73-.87.77-1.21.98-1.21.77 0-.07-1.06-1.33-2.11-2.52-.27-.3-.79-.91-1.15-1.35-.73-.87-1.5-1.73-3.79-4.24C.88 35.46.57 35.1.62 35.05c.13-.14 9.48 10.28 9.48 10.56 0 .1.37-.19 1.45-1.15l.5-.45-.22-.22-.22-.22-.7.62c-.39.34-.75.6-.8.57-.05-.04-.78-.86-1.62-1.84-.84-.97-2.96-3.34-4.71-5.25-3.1-3.39-3.19-3.5-3.02-3.68.16-.18.17-.22.02-.47-.12-.2-.14-.37-.08-.67l.08-.4.01.37c.01.48.1.68.29.68.08 0 .13-.02.1-.05-.02-.03.37-.46.88-.97l.92-.93.07-.83.06-.83-.76-.9c-.84-.98-.87-1.09-.33-1.54l.31-.26-.36-.37c-.62-.62-1.33-.03-.76.63.45.51.3.52-.19.02l-.43-.43.46-.43.46-.43.48.44c.59.52.6.55.16.98-.19.19-.35.37-.35.41 0 .08 1.19 1.52 1.75 2.11.34.37.32.48-.06.28-.17-.09-.19-.07-.19.17 0 .15-.03.39-.06.53-.05.2.06.12.53-.37.33-.35.64-.63.69-.63.47-.01.36-.22-.59-1.18-.92-.93-.98-1.01-1-1.43-.03-.6.44-.72.68-.17.21.5 2 2.22 1.91 1.84-.04-.15-.1-.41-.13-.57s-.12-.29-.2-.29c-.87 0-1.55-1.74-1.13-2.86.08-.19-.08-.07-.54.42-.79.85-.98.81-.21-.05.3-.34.55-.67.55-.74s.61-.74 1.35-1.51c1.28-1.32 2.13-2.52 1.93-2.72-.04-.03-1.19 1.08-2.56 2.47l-2.49 2.54.33.39c.5.58.41.68-.13.14l-.46-.46.46-.54c.26-.29 1.43-1.49 2.62-2.67C6.03 21.53 7 20.53 7 20.47c0-.05.14.03.31.17.31.26.4.3.7.27.09-.01.5.36.93.81.73.79.78.82.92.64.22-.3.17-.62-.15-.98-.15-.18-.26-.39-.24-.46.05-.12-.1-.12-.69.05-.13.03-.18-.02-.18-.19 0-.13-.03-.34-.05-.48-.05-.22-.04-.22.04-.05.09.18.1.18.1.02.01-.1.05-.16.11-.12.23.14.79-.37.8-.73 0-.13.04-.21.09-.17.24.14-.46 1.25-.79 1.25-.06 0-.1.07-.1.16 0 .19.59.1.76-.12.06-.07.14-.11.17-.07.12.11.07.43-.07.49-.11.04-.08.11.09.28.13.13.29.42.35.65.06.22.12.41.14.41.29 0 .95-.36 1.09-.6.23-.38 2.28-2.52 2.35-2.45.03.03-.15.27-.41.53-.46.47-.46.48-.25.61.22.14.48-.04.76-.56.11-.18.98-.21 1.16-.03.07.07.06.1-.02.1-.07 0-.12.05-.12.1 0 .19.17.09.78-.46.91-.82.75-.53-.25.48-1.02 1.03-.93 1.14.21.26.45-.34.75-.55.67-.45-.12.15-.1.17.22.17.19 0 .4.06.46.14.12.14.51.11.51-.04 0-.04-.25-.3-.55-.58-.29-.27-.51-.53-.48-.56.04-.04.34.21.68.54l.61.61 1.05-.26c2.3-.58 3.83-.45 4.78.41.57.51.61.52.61.19 0-.2.05-.25.24-.25.13 0 .38-.03.55-.06.24-.05.31-.03.31.09 0 .11-.12.17-.42.2l-.43.04.43.01c.73.03.47.32-.29.32-.42 0-.43.05-.07.53.17.22.48.12.93-.29.17-.16.53-.5.82-.77l.51-.48 1.18 1c.64.56 1.21 1.01 1.25 1.01.32 0-.01-.44-1.56-2.05-.98-1.02-1.76-1.85-1.74-1.86.38-.12.68-.05.64.15-.06.23 3.86 4.38 4 4.24.08-.07-.62-.89-1.84-2.17-.72-.76-.7-.66-.25-1.25 1-1.32 1.47-1.53 1.67-.75.12.47-.58.93-.89.58l-.19-.21.31.06c.53.12.87-.52.38-.71-.15-.06-.78.53-1.04.97-.17.3.24.68.49.46.2-.18.21-.18.68.35 1.25 1.41 1.56 1.69 1.7 1.57.12-.09.07-.19-.29-.57-.24-.25-.58-.62-.76-.82l-.33-.36.38-.37c.41-.39.53-.44.53-.22 0 .07.17.33.38.56l.38.43.23-.49c.12-.27.33-.64.47-.83.14-.21.22-.42.18-.53-.05-.16.01-.18.55-.18h.61v-.9h-1.4v.61c0 .37-.04.58-.1.54-.06-.03-.1-.35-.1-.71v-.64h1.81l-.03.63-.03.62-.5.03c-.45.03-.52.06-.62.3-.07.15-.32.59-.57.97-.44.69-.44.7-.25.9.19.19.2.19 1.17-.78 1.05-1.04 1.2-1.11 1.68-.74.66.51 2.07 2.06 2.02 2.24q-.03.18.39.57c.31.27.43.34.43.22 0-.14.23-.16 2.15-.16H42v.8h-3.74l.53.54.53.54-.71.68-.71.69.92 1.04.92 1.04-.34.28c-.28.24-.31.3-.2.44.07.08.1.18.06.22-.03.03-.07.04-.09.02-.01-.02-.42-.48-.91-1.01-.75-.83-.86-.99-.74-1.11.19-.19.63-.33.53-.18-.04.07.1.33.3.59.3.38.31.41.06.14-.17-.18-.31-.29-.31-.26 0 .04-.09-.01-.2-.11-.5-.45-.26.01.36.69l.69.75.27-.26.28-.26-.43-.47c-.23-.25-.59-.68-.81-.94l-.39-.48-.73.73c-.4.4-.76.7-.8.66-.04-.03.56-.7 1.32-1.47l1.39-1.41-1.14-1.1c-.76-.72-1.18-1.06-1.25-.99-.06.06.25.42.93 1.07l1.02.98-1.45 1.55c-.8.85-1.44 1.6-1.42 1.65.03.12.56.07.73-.06.07-.07.14-.06.18.01.05.07.2.09.41.05.37-.06.46.25.13.46-.21.13-.32.11-.25-.07.05-.12 0-.15-.21-.12-.14.02-.29.1-.31.18-.05.13-.03.13.12.01.15-.13.19-.13.26-.01.12.19.03.3-.23.31-.18.01-.19.02-.04.06.1.03.29-.02.42-.11.18-.12.26-.13.31-.04.04.07.02.14-.04.16-.07.02-.12.15-.12.28s-.04.24-.08.24-.06.16-.04.35c.04.33-.11.5-.21.23-.03-.1-.07-.1-.2.01-.22.17-.34-.08-.18-.37.06-.11.07-.22.04-.26-.03-.03.01-.06.09-.06.11 0 .14.06.11.2-.03.11 0 .2.06.2s.11-.11.11-.24.06-.26.13-.29c.06-.02-.18-.06-.56-.08-.49-.03-.67-.01-.67.09 0 .07.13.12.31.12.26 0 .3.03.24.18-.04.09-.08.24-.09.32-.02.08-.1.16-.19.18-.2.04-.23-.14-.04-.21.09-.03.09-.07 0-.17s-.15-.09-.28.04c-.09.09-.12.16-.06.16.08 0 .11.6.11 1.85V32l-1.58 1.68c-.86.92-2.45 2.64-3.52 3.82s-2.24 2.43-2.6 2.78-.6.62-.54.6c.05-.01 1.12-.39 2.37-.83l2.27-.8V36.4h9.25c8.16 0 9.25.02 9.25.15s-.31.15-2.15.15H46.3V44H32.21l-.06-.52c-.03-.29-.04-1.01-.02-1.59.07-1.46.2-1.41-1.89-.76-.99.31-2.33.71-2.98.89l-1.19.33-1.72 1.85c-.94 1.02-2.36 2.55-3.14 3.4l-1.41 1.55.5.03c.64.04.49.16 2.55-2 1.46-1.54 2.33-2.31 2-1.78-.03.06.01.1.09.1.36 0 .16.27-1.34 1.84-.88.92-1.57 1.72-1.54 1.78.05.07.44.08 1.22.03l1.15-.07-.07.36-.07.36h1.66c1.08 0 1.64.03 1.6.1-.04.06-1.59.1-4.34.1h-4.27l-.29.3c-.42.43-.39.45-2.02-1.32Zm-2.73 1.3c0-.09-.05-.18-.12-.2-.13-.05-.02-.28.14-.28.05 0 .07.08.04.18-.04.09.3-.2.75-.66 1.13-1.14 1.21-.99.1.18-.55.58-.9.88-.91.78Zm5.9-1.74c4.1-4.4 5.47-5.89 5.44-5.93-.16-.18-.74.33-2.25 1.96-1.73 1.88-2.31 2.5-3.9 4.16l-.84.88-.55-.58c-.3-.32-1.04-1.09-1.63-1.72-.77-.81-1.11-1.11-1.19-1.03s.06.29.48.75c.33.35 1.09 1.19 1.69 1.86.61.66 1.15 1.21 1.2 1.21.06 0 .75-.7 1.55-1.56Zm4.4 1.01v-.25h-4.57l-.23.25-.23.25h5.03zm-17.37-.57-.52-.53.45-.5c.24-.27.44-.56.44-.62 0-.07.07-.13.15-.13.24 0 .18.15-.3.68-.25.27-.45.54-.45.59 0 .11.78.89.82.82.02-.02.27-.3.57-.61l.55-.57-.53-.61c-.58-.67-.6-.82-.15-1.16l.31-.24.26.37c.14.21.37.51.51.67.38.43.34.52-.61 1.48-1.03 1.04-.87 1-1.5.36Zm5.49-.06c-.24-.31-.68-1.09-.99-1.72s-.57-1.17-.59-1.19-.27.18-.56.43l-.53.47-.7-.78c-.38-.43-.97-1.07-1.31-1.42l-.62-.65-.78.77c-.43.42-.8.77-.81.77-.16 0 .1-.34.75-.95.97-.93.92-1.12-.33-1.06l-.75.03v-.92h-.95c-.57 0-.95-.04-.95-.1 0-.11 1.67-.14 1.94-.04.09.03.16.12.16.2 0 .12 1.43.23 1.93.15.04 0 .07.08.07.19 0 .21-.15.27-.25.1-.11-.17-1.85-.13-1.85.05 0 .12.15.15.78.15l.77.01L8 44.81c.68.76 1.34 1.51 1.45 1.65l.2.26.54-.57c.29-.31.55-.54.57-.52s.26.49.54 1.05c.52 1.06.54 1.09.82.88.16-.12.14-.2-.23-1.1-.24-.57-.37-1.02-.32-1.07s.17.13.27.43c.46 1.3.96 2.1 1.29 2.02.19-.04.27-.03.23.04-.09.16.54.84.71.77.09-.03.13 0 .11.07-.08.24-.28.18-.66-.21-.22-.23-.46-.41-.53-.41s-.26-.12-.41-.27c-.28-.27-.28-.27-.48-.07-.22.21-.05.58.58 1.27.16.17.22.31.16.37-.05.05-.25-.12-.52-.48Zm9.93-.43c.33-.38 1.06-1.15 1.62-1.72.7-.69.99-1.05.92-1.12s-.36.17-.91.75c-.45.47-1.21 1.26-1.7 1.76-.48.49-.88.93-.88.97 0 .25.44-.04.95-.64Zm-.91-2.69c1.1-1.18 2.15-2.32 2.35-2.52.23-.25.3-.38.2-.38-.08 0-1.36 1.3-2.84 2.9-1.49 1.59-2.73 2.9-2.76 2.9-.07 0-1.26-1.22-2.27-2.32-.34-.37-.64-.63-.67-.57-.07.1.11.3 1.9 2.23l1 1.07.55-.58c.3-.32 1.45-1.55 2.54-2.73Zm5.04 3.03c-1.34-.03-1.58-.06-1.58-.19 0-.08.04-.12.1-.09s.1-.03.1-.14c0-.12.06-.21.14-.21.09 0 .12.07.09.2-.04.15 0 .2.15.2s.19-.05.15-.2c-.05-.19 0-.2 1.41-.2h1.46v.29c0 .26-.19.45-.38.39-.04-.01-.78-.04-1.64-.05Zm-11.91-.19c-.03-.03-.04-.11-.01-.18.02-.06-.11-.27-.31-.46-.19-.19-.35-.28-.35-.21 0 .11-.03.11-.15.01-.19-.16-.09-.32.18-.29.12.01.3-.02.41-.06.14-.06.27.01.59.35.4.44.42.67.06.78-.11.04-.11.02-.02-.08.13-.14.07-.4-.09-.4-.06 0-.06.06.01.14.08.1.09.16.01.21-.06.03-.08.11-.05.16.07.1-.18.13-.28.03Zm13.83-.13c0-.12-.63-.21-1.62-.21-.72 0-.88.03-.88.15 0 .13.21.15 1.25.15.69 0 1.25-.04 1.25-.09Zm-8.2-2.08c.96-1.04 2.09-2.23 2.5-2.67l.75-.79-.39.08c-.36.06-4.93 1.45-6.4 1.94-1.14.38-1.14.36.31 1.94.69.75 1.31 1.37 1.37 1.37.07 0 .9-.84 1.86-1.87ZM9 47.58c0-.11-.82-1.18-.91-1.18-.16 0-.41.4-.32.52.76 1 .85 1.09 1.04.92.11-.1.19-.21.19-.26Zm9.12.13c.07-.22 2.32-2.6 2.4-2.55.09.06-.09.28-1.4 1.72-.76.82-1.1 1.1-1 .83Zm6.58-.41v-.4h1.9c2.06 0 2.01-.01 1.8.54l-.1.26h-3.6zm.84.09c-.18-.07-.17-.08.04-.08.12-.01.22.04.22.1 0 .12.62.08.94-.06.14-.06.17-.05.12.03-.05.09.12.12.62.12.55 0 .71-.03.76-.16.11-.29.06-.33-.24-.23-.16.06-.52.09-.8.07-.27-.01-.5 0-.5.04s-.1.04-.22-.01c-.57-.2-1.18-.14-1.18.13 0 .2.04.23.22.18.21-.05.21-.06.02-.13Zm-11.93-.59c.15-.09.17-.15.09-.31-.09-.15-.15-.17-.3-.09-.32.17-.37.12-.54-.5-.16-.57-.28-.71-.4-.51-.05.07.11.62.39 1.39.05.15.49.16.76.02Zm1.42-1.13c.68-.76.82-1.07.49-1.07-.24 0-1.62 1.42-1.62 1.67 0 .51.26.37 1.13-.6Zm-1.11-.11c0-.07-.55-.73-1.84-2.2-.7-.81-.25-.06.64 1.07.9 1.14 1.19 1.41 1.2 1.13Zm.52-.52c.2-.2.14-.3-.72-1.21-.61-.65-.73-.73-1.06-.73h-.38l.39.43c1.64 1.86 1.53 1.76 1.77 1.51Zm5.01-1.37c4.94-1.66 4.93-1.65 6.97-4.22.14-.18-.24-.08-2.25.6-1.33.46-2.71.91-3.07 1.01-.63.17-.69.22-1.81 1.38l-1.16 1.21-1.16.4c-1.03.35-1.14.41-1.06.57.12.22-.4.36 3.54-.95Zm-4.45.72c0-.13-1.3-1.49-1.42-1.49-.16 0-.05.18.57.9.56.65.85.85.85.59Zm12.43-.06-.43-.04v-1.07c0-.64.04-1.02.09-.93.07.11.52.13 2.35.1l2.27-.04-.07.3c-.1.5-.13.5-2.13.46-1.31-.02-1.91 0-1.95.08-.04.06-.16.11-.27.11-.1 0-.19.07-.19.15 0 .15.38.21 1.02.17.18-.01.28.03.28.11 0 .1-.15.12-.6.09-.48-.04-.6-.02-.6.1 0 .29 1.73.4 1.84.12.09-.23.08-.24-.24-.2-.21.02-.3-.01-.3-.11 0-.11.07-.14.22-.1.12.04.27.02.34-.04.18-.14.23.01.15.41l-.07.35-.64.01c-.36 0-.84-.01-1.07-.03Zm-16.5-.63c.55-.48.56-.67.02-.25-.5.37-.59.21-.11-.19.33-.28.36-.34.2-.4-.12-.05-.27.03-.49.24l-.31.3-.7-.82c-.97-1.15-3.44-3.93-5.95-6.7-1.35-1.48-1.37-1.4.65-3.51.91-.94 1.62-1.75 1.59-1.8s-.94.81-2.02 1.92-2.02 2.01-2.08 2.01c-.13 0 .2.4 1.27 1.55 1.84 1.97 3.85 4.19 3.85 4.25 0 .04.19.27.42.51.24.24.53.58.65.75.4.56 1.2 1.57 1.71 2.16.55.65.53.65 1.3-.02Zm6.46-.16c.05-.04-.2-.4-.61-.86-.46-.52-1.02-.4-1.55.33-.19.27-.39.49-.44.49-.06 0 .04.18.22.39l.31.4 1.02-.36c.55-.2 1.03-.38 1.05-.39ZM46 40.25V36.7l-6.8-.02-6.8-.03v7.15H46zM32.7 42.8V42l6.51-.02c3.58-.02 6.52-.01 6.55.01.17.18-.87.21-6.52.21h-6.46l.04.7c.02.39 0 .7-.05.7-.04 0-.07-.36-.07-.8Zm2.9.43c0-.22-.02-.25-.1-.13-.07.11-.1.05-.1-.22 0-.28.04-.38.16-.38.11 0 .14.06.1.18-.05.15-.04.15.08-.02.12-.15.3-.19.88-.2l.73-.01.02.45c.01.41.01.42-.05.1s-.62-.58-.62-.29c0 .14.2.21.2.07 0-.08.04-.07.11.04.26.45.02.68-.72.68-.69 0-.69 0-.69-.27Zm2.52-.25.02-.53.03.47c.03.39.07.46.24.45.24-.02.27-.64.03-.81-.13-.1-.13-.12.05-.12s.21.06.21.49c0 .31.04.46.1.42s.08-.15.05-.26c-.04-.1-.02-.27.04-.36.09-.15.1-.13.11.12 0 .17.05.37.11.45.07.11.09.03.07-.32-.02-.27 0-.48.04-.48.05 0 .08.18.08.41 0 .22.04.38.09.35.05-.04.12 0 .14.06.03.07.06-.02.06-.2.01-.17-.03-.32-.09-.32-.05 0-.1-.07-.1-.15 0-.12.12-.15.55-.14.3.01.55.05.55.09 0 .05.03.15.06.24.09.25-.12.19-.24-.06-.1-.21-.11-.19-.11.17-.01.29.02.36.09.25.08-.12.1-.11.1.08 0 .22-.02.22-1.15.22H38.1zm-19.3-.5c.48-.51.86-.94.84-.96-.11-.1-.67.33-1.14.87-.63.72-.7.73-1.15.21-.54-.63-.63-.47-.11.2.59.76.53.77 1.56-.32Zm8.61.42c.04-.16.13-.2.49-.18l.43.01-.37.04c-1.05.11-.2.23 1.55.22 1.11-.01 1.77-.05 1.57-.09l-.35-.07.33-.02c.2-.01.32-.06.32-.15 0-.16-4.16-.21-4.26-.05-.07.12.05.49.16.49.04 0 .1-.09.13-.2Zm-17.46-.72c-.72-.71-1.07-1.42-1.82-3.72l-.61-1.88-.58.62c-.54.58-.71.96-.25.54.2-.18.22-.18.34-.01.06.09.17.17.24.17.06 0 .1.04.09.09-.02.04.07.17.2.27l.23.19-.34.33-.33.32-.29-.3-.29-.3.22-.23c.32-.34.27-.45-.06-.14l-.28.27-.23-.26c-.13-.15-.19-.29-.15-.33.05-.03.39-.38.77-.77l.67-.71-.48-1.64c-.27-.9-.62-2.1-.77-2.67-.16-.56-.32-1.01-.36-1-.04.02-.73.72-1.53 1.57-1.68 1.77-1.73 1.88-1.1 2.57.2.21.66.73 1.03 1.14.36.41 1.33 1.49 2.16 2.4s2.02 2.25 2.65 2.98c.99 1.14 1.16 1.3 1.28 1.18.13-.12.07-.22-.41-.68Zm3.48.37c2.97-.52 10.97-2.83 12.77-3.7.67-.32 1.44-1.1 1.77-1.78.56-1.15.37-2.33-1.14-7.27-.29-.96-.74-2.53-1-3.49-1.27-4.76-2.46-6.46-4.55-6.44-1.54.02-5.93 1.12-10 2.51-6.41 2.19-6.6 2.53-4.94 8.67 2.99 11.06 3.64 12.1 7.09 11.5Zm12.4-.46c.99-.28 2.79-.82 4-1.19l2.2-.67.03-.31c.02-.18.02-.32 0-.32s-.67.23-1.43.51c-.77.27-2.19.75-3.15 1.05-1.92.6-3.31 1.09-3.7 1.3l-.25.13.25.01c.13 0 1.05-.23 2.05-.51Zm19.93-.35c-.05-.04-.08-.33-.08-.64 0-.75.52-.7-6.76-.7H32.8l-.01.68-.01.67-.09-.45c-.05-.25-.07-.6-.04-.77l.06-.33h6.55c5.4 0 6.56.02 6.6.13.08.21 0 1.5-.08 1.41Zm-19.61-1.19c.48-.53.89-1.03.91-1.13.03-.17-1.59 1.46-2 2.02-.44.6.18.09 1.09-.89Zm6.83.65v-.5h.46c.27 0 .43.04.39.1-.03.06-.03.15.01.22.05.08.1.06.15-.08.05-.13.08-.04.08.29.01.35-.03.47-.14.47-.08 0-.15-.05-.15-.11 0-.05.04-.07.1-.04.16.1.12-.25-.05-.41-.12-.12-.15-.12-.16-.02-.01.07-.05.02-.09-.12l-.08-.25-.01.28c-.01.16-.05.26-.1.23s-.07-.15-.04-.26.01-.2-.04-.2-.09.18-.1.41c-.01.3.03.39.13.35.07-.03.16-.01.19.04.04.06-.07.1-.24.1-.3 0-.31-.01-.31-.5Zm1.87.44c-.04-.04-.07-.18-.07-.31 0-.32-.22-.54-.41-.42-.11.07-.11.09.04.09.12 0 .17.08.17.3 0 .17-.05.3-.1.3s-.1-.12-.1-.27c0-.22-.02-.25-.1-.13-.07.11-.1.07-.1-.17 0-.32.02-.33.39-.33h.39l-.06.45c-.03.29-.01.45.06.45.06 0 .13-.19.15-.42l.04-.43-.01.44c-.01.42-.13.6-.29.45Zm1.03-.43v-.51l.38.02.38.01-.01.46c0 .46 0 .46-.38.49l-.37.03zm2.1.36c0-.05.11-.07.25-.04.18.03.29-.01.36-.15.09-.16.07-.18-.15-.14-.21.04-.26.01-.26-.15 0-.1-.05-.19-.11-.19-.05 0-.08.03-.06.08.03.04.01.16-.04.27-.06.17-.08.16-.09-.1-.01-.25-.03-.27-.09-.11-.07.19-.08.19-.13-.02-.05-.19-.02-.22.27-.22.18 0 .4-.03.49-.06s.16-.01.16.05-.07.11-.15.11-.15.05-.15.1c0 .14.13.13.28-.02.07-.07.12-.08.12-.04 0 .05.07.02.17-.05.15-.13.15-.12.05.08-.07.12-.12.31-.12.42 0 .12-.06.22-.12.23-.4.05-.68.03-.68-.05Zm1.75-.36c0-.44.02-.47.27-.49s.26-.01.21.38c-.04.25-.02.4.05.4.06 0 .12-.17.14-.37.03-.41.26-.58.26-.18 0 .14-.04.25-.09.25s-.09.1-.08.23c0 .21.01.21.09.02.08-.18.09-.18.09-.02.01.11.06.15.12.11.06-.03.09-.24.07-.45-.04-.39.03-.46.36-.33.08.03.12.12.09.2s0 .14.06.14.11-.08.11-.19c0-.17.4-.22.9-.12.17.03-.03.67-.21.68-.1.01-.19-.02-.19-.08 0-.05.07-.09.15-.09.09 0 .15-.09.14-.22-.01-.17-.02-.19-.06-.05-.06.24-.23.21-.23-.04 0-.18-.03-.19-.14-.1-.08.07-.14.26-.14.42.01.2.04.26.09.17.07-.1.09-.09.09.05 0 .12-.08.17-.25.17-.2 0-.25-.05-.25-.25 0-.18-.04-.23-.16-.18-.13.05-.15.02-.1-.15.04-.11.02-.23-.05-.27-.08-.06-.1.06-.08.38l.04.46h-.65l-.65-.01zm3.85.04c0-.25.03-.45.08-.45.04 0 .06.18.04.4-.03.25 0 .4.07.4.06 0 .11-.17.11-.4 0-.22.05-.4.1-.4.06 0 .1.18.1.4 0 .53.18.51.23-.02l.04-.43.01.43c.01.23.05.42.1.42.04 0 .07-.17.06-.37-.01-.35-.01-.35.03-.05.05.39.27.38.3-.02.01-.14-.02-.24-.08-.21-.05.04-.09.02-.09-.03 0-.06.07-.13.16-.16.13-.05.15.02.12.42l-.03.47-.68.03-.67.03zm-17.12-.09c.49-.26 1.28-1.14 1.14-1.28-.13-.13-.89.53-1.33 1.15-.23.31-.19.33.19.13Zm6.24-1.93-.02-.83h6.5c5.77 0 6.5.02 6.5.15 0 .14-.71.15-6.42.13l-6.43-.03-.06.7-.05.7zm-20.11.55c-1.93-.55-2.85-3.41-1.82-5.64.58-1.23 1.39-1.87 4.43-3.46 3.67-1.91 4.16-2.38 4.06-3.93-.05-.72-.63-2.18-1.17-2.94-.33-.46-.27-.59.36-.77.68-.2.63-.24 1.33 1.19.56 1.16.58 1.15.67-.41.07-1.46.03-1.39.83-1.44l.65-.03-.03.65c-.2 4.73-1.3 6.38-5.92 8.9-3.61 1.97-4.29 2.73-4.06 4.53.25 1.89 1.52 2.41 3.46 1.43.44-.22.45-.24.48-.74.04-.6.04-.6-.87-.32-.76.24-.72.27-.78-.52l-.05-.63 1.43-.47c1.29-.42 1.45-.45 1.51-.3.12.31.6 3.22.55 3.36-.08.19-2.42 1.33-3.12 1.51-.66.17-1.43.18-1.94.03Zm15.27-.69c-.45-.54-.52-.57-.67-.32-.16.3.66 1.19.9.97.17-.16.17-.18-.23-.65Zm6.97.72c-.03-.07 0-.08.09-.05.13.05.16-.01.16-.3 0-.25-.04-.36-.15-.36-.35 0-.11-.19.28-.22.67-.05 1.67.03 1.67.13 0 .05-.07.09-.15.09-.19 0-.21.66-.02.73.06.03-.22.06-.63.06l-.75.01.04-.46c.02-.34 0-.45-.09-.39-.06.04-.1.23-.08.43.03.37-.21.58-.37.33Zm2.65-.42v-.49h1.26c.81 0 1.23.04 1.19.1-.03.06-.13.1-.21.1s-.14.06-.14.13-.03.08-.08.02c-.15-.22-.32-.14-.32.14 0 .26.03.29.3.27.21 0 .29-.05.25-.14-.03-.07 0-.1.05-.07.06.03.1.15.1.26 0 .19-.07.2-1.2.18l-1.2-.01zm3.44.36c-.03-.07-.04-.28-.02-.47l.03-.33 1.03-.03c.95-.03 1.22.04.9.24-.07.04-.08.03-.04-.04s.02-.12-.03-.12c-.06 0-.11.05-.11.11 0 .05-.04.07-.1.04-.06-.04-.1.08-.1.29 0 .26.04.34.14.3.08-.03.17 0 .21.06.04.07-.23.1-.9.09-.69-.01-.98-.05-1.01-.14Zm2.56-.35v-.5h.89c.5 0 .93.05.96.1.03.06-.05.1-.18.1-.35 0-.45.64-.1.66.13.01.24-.05.26-.15.03-.11.05-.09.06.07.01.21-.02.22-.94.22h-.95zm-28.84-.01c.66-.2 2.2-.93 2.56-1.21.16-.12-.18-2.87-.37-3.06-.04-.05-.47.09-1.6.5l-.81.28.04.35c.05.41.1.42.87.15.96-.33.95-.34 1.11.81l.06.47-.77.36c-2.56 1.22-4.08.48-4.09-1.99 0-1.84.67-2.54 4.24-4.45 4.32-2.31 5.28-3.65 5.69-7.95.12-1.15.15-1.07-.36-.99l-.4.06-.07 1.07c-.13 2.09-.39 2.62-.76 1.59-.48-1.35-.99-2.19-1.29-2.12-.5.12-.5.16-.01 1.01 1.84 3.21 1.31 4.27-3.4 6.73-3.47 1.8-4.34 2.65-4.6 4.48-.4 2.85 1.46 4.68 3.96 3.91Zm15.26-1.77c.8-.86 2.34-2.51 3.43-3.67l1.97-2.1-.02-1.9c-.02-1.04-.01-1.92 0-1.95.16-.34.04-1.6-.17-1.69l-.23-.11v5.57l-1.17 1.24c-.65.68-1.81 1.92-2.57 2.74-.77.83-1.78 1.89-2.24 2.36-.78.8-.93 1.09-.58 1.09.07 0 .78-.71 1.58-1.58ZM1.29 38.8c-.4-.1-.33-.62.09-.71.18-.04.32-.03.32.02s.11.09.25.09c.21 0 .25.05.25.29 0 .31-.37.44-.91.31Zm27.95-1.53c.72-.78 2.2-2.38 3.3-3.55 1.11-1.17 2.02-2.21 2.04-2.3.03-.2-1.43 1.3-4.42 4.53-1.17 1.26-2.2 2.36-2.29 2.44-.16.12-.15.32.01.3.04 0 .65-.64 1.36-1.42Zm3.76.27c0-.57.03-.62.26-.4.19.19.18.32-.01.16-.13-.11-.15-.07-.15.29 0 .48.14.54.29.11.12-.35.22-.39.18-.08-.01.15.03.23.13.23.09 0 .15-.09.15-.25 0-.14-.07-.28-.15-.32-.11-.05-.09-.07.07-.07.21-.01.23.04.23.43v.45l-.5-.01H33zm3.45.45c-.04-.06-.04-.13-.01-.16.03-.04.06-.01.06.05 0 .07.11.12.25.12.2 0 .25-.05.25-.26 0-.18.06-.28.22-.32.21-.05.21-.06.02-.13-.14-.05-.11-.07.13-.06.18 0 .34.06.37.13s.14.1.27.07c.15-.04.2-.03.15.05-.04.07-.16.12-.27.12-.12 0-.19.07-.19.19 0 .15.07.19.3.19.16-.01.3-.06.3-.12s.05-.04.1.04c.08.12.1.09.1-.13 0-.15.05-.27.1-.27.06 0 .1.14.1.3v.3h-1.09c-.67 0-1.12-.04-1.16-.11Zm-16.35-.18c-3.61-1.19-1.74-7.31 2.23-7.31 3.39 0 3.56 5.31.23 6.96-.76.37-1.9.54-2.46.35Zm9.09-1.19c.63-.7 2.08-2.25 3.23-3.45l2.08-2.18-.02-1.52c0-.84-.03-1.37-.05-1.19-.04.32-.19.38-.83.34-.08 0-.43-.02-.78-.03-.49-.02-1.06-.19-.63-.19.06 0 .11-.04.11-.08s-.09-.08-.2-.08c-.12 0-.2.07-.2.17 0 .61-1.33.47-1.38-.15l-.03-.38-.29.27c-.16.16-.26.33-.23.39s.03.08-.02.04c-.04-.04-.21.04-.37.17-.16.14-.33.25-.38.25-.16 0-.24-.24-.09-.28.08-.03.6-.5 1.16-1.05.99-.97 1.5-1.31.78-.53-.31.34-.35.45-.35.93v.54l.48-.03c.46-.03.47-.04.5-.38.04-.54.13-.7.22-.4.06.18.08.2.09.06.01-.13.06-.17.21-.13.1.03.22 0 .25-.07.03-.08.07-.07.11.02.05.1.09.1.2.01.08-.07.17-.09.21-.05.09.08-.28.47-.38.4-.05-.03-.09-.01-.09.05 0 .05-.03.16-.06.25-.11.3.11.16.39-.24.29-.41.65-.56.53-.22-.06.16-.05.16.08 0 .15-.21.37-.23.54-.06.08.08.15.08.26-.01s.15-.09.19.01c.03.07.05-.05.05-.27s-.02-.32-.05-.22c-.04.17-.33.25-.33.09 0-.04-.16-.06-.35-.04-.29.04-.34.01-.29-.12.03-.09.11-.16.16-.16.06 0 .07-.11.04-.26-.06-.21-.04-.25.11-.22.11.02.17.11.15.23-.02.18-.02.19.08.03.15-.25.4-.22.41.05.01.15.04.11.1-.13.16-.65.03-1.02-.61-1.65-.33-.33-.62-.56-.66-.53-.06.07.46.78.58.78.14 0 .58.55.58.72 0 .13-.07.15-.31.11-.16-.02-.37.01-.45.08-.11.09-.14.08-.14-.1 0-.11-.04-.21-.1-.21s-.1.09-.1.2c0 .14-.07.2-.21.2-.15 0-.19-.05-.15-.15.07-.2-.08-.19-.24 0-.19.22-.35.03-.21-.24.16-.3-.03-.26-.23.04-.22.34-.46.33-.46-.02 0-.67.31-.99.49-.51.07.19.08.19.14.04.06-.14.15-.16.52-.1.5.07.55.01.24-.32-.18-.19-.25-.21-.45-.12-.21.1-.28.08-.52-.15l-.28-.27-1.79 1.81q-2.535 2.565-1.56 2.04c.14-.08.8-.68 1.46-1.35.66-.66 1.27-1.2 1.35-1.2s-.49.64-1.27 1.42c-.78.77-1.4 1.45-1.37 1.49.03.05-.12.1-.33.11s-.45.02-.53.04c-.08.01-.23.02-.32.03-.34.02-.18.21.17.21.4 0 .42.04.15.45-.11.16-.2.33-.2.37 0 .09.72-.03.88-.15.06-.05.12-.07.12-.04s.03.12.06.21c.05.14-.04.16-.65.16-.39 0-.71.01-.71.03 0 .01.07.2.15.42l.14.4.01-.32c0-.18.05-.33.1-.33.06 0 .1.03.1.08 0 .04.2.07.45.07s.45-.03.45-.06c0-.04.2-.06.45-.05.25 0 .45.03.45.06s.51.04 1.12.03c1.92-.02 1.89.12-.39 2.33l-1.77 1.7-.01 1c-.01 1.02-.2 1.7-.62 2.16-.09.1-.12.18-.07.17.05 0 .6-.58 1.23-1.27Zm-23.53.87c-.14-.21-.13-.25.19-.61.33-.36.35-1.02.04-.82-.05.03-.09-.01-.09-.09s.07-.18.16-.21c.12-.04.15-.02.11.09-.08.2.08.28.23.1.13-.15.05-.39-.11-.3-.05.03-.06-.01-.03-.09.11-.28-.16-.17-.35.15-.1.17-.22.3-.25.29-.04 0-.2.1-.36.24-.36.3-.22.44.22.22.42-.22.45-.14.09.26-.29.32-.3.33-.46.13-.37-.48-.37-.49.29-1.14l.63-.62.36.32.37.32-.27.36-.26.36.3-.28c.51-.47.52-.12.01.41-.72.76-.86 1-.33.53.28-.24.58-.53.67-.65.09-.11.2-.18.23-.14.09.09-.24.51-.79.99l-.45.39zm16.22-.07c3.55-1.11 3.83-6.78.32-6.6-2.44.13-4.26 2.68-3.6 5.04.4 1.42 1.71 2.04 3.28 1.56Zm-1.54-.9c-1.9-1.2-.56-4.82 1.78-4.82 2.65 0 1.79 4.75-.89 4.97-.46.03-.64 0-.89-.15Zm1.52-.31c1.44-.66 2.09-3.03 1.08-3.96-.34-.32-1.16-.35-1.72-.06-2.34 1.21-1.72 5.09.64 4.02Zm19.89-.78c-.81-.21-1.23-1.68-.95-3.35.31-1.82 2.24-2.09 2.7-.38.57 2.12-.36 4.1-1.75 3.73Zm-4.03-2.41.03-2.37.35-.02c1.81-.1 2.71.68 2.13 1.86-.19.38-.19.39.01.67.29.4.29 1.32 0 1.71-.32.43-.61.53-1.62.53h-.92zm6.17 2.06c0-.18-.01-1.25-.02-2.38l-.02-2.05.52-.03.51-.03.39 1.17.38 1.17.05-1.14.05-1.14.4.03c.22.02.41.05.42.06.03.02.06 2.87.04 3.88l-.01.78h-.45c-.52 0-.54-.02-1.11-1.7l-.29-.85-.03 1.27-.03 1.28h-.39c-.38 0-.4-.01-.41-.32Zm3.23-2.06.03-2.37h1l.37 1.1.36 1.1.01-1.06.01-1.07.38-.04c.65-.08.62-.18.62 2.39v2.34l-.52-.03-.53-.03-.47-1.35-.47-1.35v1.37l-.01 1.38h-.8zM4.8 35.1c-.08-.05-.15-.13-.15-.17s-.07-.18-.16-.31l-.16-.23-.31.36c-.28.31-.52.45-.52.29 0-.03.26-.33.59-.66.63-.65.95-.72 1.07-.22.03.13.1.24.15.24.13 0 .11.54-.03.68s-.28.15-.48.02Zm34.98-.11c.51-.32.59-1.34.13-1.79-.28-.28-.28-.29-.08-.48.77-.77.15-1.82-1.07-1.82H38v4.33l.78-.06c.44-.02.88-.11 1-.18Zm2.99.06c.9-.63.77-3.76-.16-4.15-1.07-.44-1.68.51-1.59 2.49.08 1.59.83 2.3 1.75 1.66Zm4.89-1.5c.02-2.49-.02-2.48.8-.12.56 1.63.58 1.67.86 1.67h.28V33c0-2.03-.01-2.1-.2-2.1s-.2.07-.2 1.54c0 2-.08 2-.7.06l-.51-1.6h-.69v2.16c0 2 .01 2.15.18 2.12.15-.03.17-.19.18-1.63Zm-3.16-.12c0-2.01.03-2.01.75.09.52 1.51.53 1.53.84 1.56l.31.03v-2.1c0-2.04-.01-2.11-.2-2.11s-.2.07-.21 1.22c0 .68-.03 1.41-.08 1.63l-.07.4-.17-.45c-.1-.25-.34-.97-.55-1.6-.38-1.12-.39-1.15-.7-1.18l-.32-.03v2.1c0 2.04.01 2.11.2 2.11s.2-.07.2-1.67Zm-2.56 1.37c-.64-.26-.75-2.9-.14-3.45.68-.62 1.12.13 1.08 1.83-.04 1.48-.28 1.89-.94 1.62Zm-3.52-.81.03-.84.42-.03c.59-.04.83.21.83.87 0 .59-.11.7-.79.78l-.52.06zm4.1.39c.17-.31.17-2.34 0-2.65-.19-.35-.58-.3-.71.08-.45 1.31.16 3.53.71 2.57Zm-3.14 0c.34-.34.07-.98-.4-.98-.2 0-.28.05-.28.18 0 .09-.03.34-.06.54-.07.41.43.57.74.26Zm-36.11-1.7c2.35-2.39 2.45-2.51 2.37-2.82-.03-.15-.11-.25-.18-.24-.18.04-2.04-1.94-2.08-2.22-.04-.34-.32-.32-.36.02-.03.22.14.46.97 1.34 1.11 1.19 1.12 1.2.76 1.36-.14.06-.25.18-.25.27s-.75.94-1.65 1.9c-1.41 1.49-1.63 1.76-1.54 1.92.15.29.16.29 1.96-1.53Zm27.21-.2c.89-.86 1.17-1.18 1.02-1.18s-.2-.06-.2-.25c0-.14-.04-.25-.1-.25s-.1.14-.1.31c0 .23-.13.44-.57.9l-.56.59h-.94c-.96 0-1.03.03-.78.36.14.19.14.19.15-.02 0-.17.06-.22.25-.2.14 0 .25.05.25.09 0 .05.05.05.1.02.28-.18.39.03.23.44-.14.37-.17.39-.54.37-.37-.03-.38-.02-.33.23.12.56.14.56.52.15.2-.21.92-.92 1.6-1.56Zm8 .26c-.05-.04-.08-.38-.08-.76v-.68h.49c1.08 0 1.13 1.32.06 1.47-.22.02-.43.01-.47-.03Zm.81-.38c.27-.32.09-.81-.29-.81s-.48.21-.36.71c.07.28.46.33.65.1Zm-8.81-.41c.25-.27.32-.43.31-.72-.01-.22-.04-.29-.06-.16-.02.12-.16.29-.3.38-.14.1-.23.12-.19.07.04-.07-.11-.12-.41-.14l-.48-.03.03-.4c.05-.49-.09-.4-.17.12-.09.54-.31.55-.32.01-.02-.34-.03-.37-.06-.13-.05.33-.21.57-.32.5-.04-.02-.06-.18-.03-.35.05-.38-.12-.39-.28-.01-.09.22-.16.27-.32.23-.18-.04-.19-.02-.13.19.09.3.17.37.22.22s.33-.18.33-.04c0 .05-.07.14-.15.21s-.15.22-.15.33c0 .4 2.06.17 2.48-.28Zm-1.52-1.91c-.14-.36.11-.44 1.16-.38.55.02.97.01.95-.03-.03-.04.06-.22.19-.38l.24-.3V30h.35c.19 0 .35.05.35.1 0 .06-.22.1-.5.1-.47 0-.5-.02-.5-.25s-.02-.24-.2-.15c-.12.07-.49.08-1 .04-.57-.05-.8-.04-.8.05 0 .07.29.11.9.11.53 0 .9.04.9.1 0 .19-1.97.13-2.04-.06Zm-20.38-.19C7 28.96 7.96 25.6 9.8 25.6c1.63 0 1.59 1.82-.06 2.6-.54.26-.63.34-.53.46.17.21.57.17 1.17-.11.69-.32.66-.33.8.21.15.56.1.64-.61.94-.67.29-1.62.36-1.99.15Zm1.63-.3c.55-.2.78-.41.72-.66-.06-.23-.11-.23-.52-.03-.6.3-1.06.3-1.36 0-.34-.34-.29-.56.18-.72 1.4-.49 1.99-1.87.96-2.23-1.24-.43-2.38 1.17-1.99 2.78.22.93.94 1.24 2.01.86Zm1.7-.85c-1.33-1.34-.32-3.77 1.76-4.24 1.28-.29 1.17-.39 1.32 1.32.07.81.15 1.72.18 2.03l.05.55-.39.12c-.56.17-.83.15-.83-.04 0-.12-.11-.06-.4.2-.55.5-1.23.52-1.69.06Zm1.49-.2c.16-.11.36-.41.46-.67.19-.49.32-.41.33.2.01.26.45.33.7.11.01-.01-.04-.76-.13-1.66s-.16-1.69-.16-1.77c0-.39-1.83.23-2.34.79-1.27 1.41-.28 4.01 1.14 3Zm13.9-.1c.24-.34.46-.38.67-.12.08.09.12.12.09.06-.03-.07.4-.58.97-1.15 3.44-3.49 3.33-3.36 3.12-3.59-.27-.3-.18-.37-2.35 1.93-1.12 1.16-2.05 2.11-2.09 2.1-.1-.03-.51.39-.51.53 0 .06-.07.17-.15.24s-.15.16-.15.21c0 .18.19.08.4-.21Zm-14.66-.56c-.5-.76-.18-2 .61-2.35.69-.31.79-.23.71.59-.15 1.56-.85 2.49-1.32 1.76Zm3.13.2c-.03-.05-.07-.29-.08-.54l-.04-.44.45-.09c.66-.13.96-.49.52-.64-2.01-.67-1.78-2.52.37-2.88.52-.09.61.01.61.62 0 .41-.01.42-.42.5-.64.13-.61.36.07.67 1.53.7.87 2.66-.96 2.84-.26.02-.49 0-.52-.04Zm-7.04-.61c.11-.68.95-1.26 1.27-.88.19.23 0 .58-.51.95-.6.43-.83.41-.76-.07Zm4.49.19c.38-.43.64-2.07.32-1.95-.6.22-.84.61-.84 1.35 0 .67.23.94.52.6Zm3.75-.02c1.12-.5 1.11-1.57-.02-2.18-.77-.41-.65-1.12.2-1.12.1 0 .15-.1.15-.31 0-.31-.01-.31-.37-.24-1.56.28-1.9 1.56-.57 2.16.96.44.93 1.29-.06 1.29-.34 0-.41.08-.33.38.07.28.42.29 1 .02Zm15.43-.36c.15-.38.13-.42-.25-.55-.2-.08-.31-.17-.26-.22s.21-.02.38.07c.2.1.45.13.78.1.43-.05.47-.04.4.13-.04.1-.1.29-.12.43-.04.22-.1.25-.53.27-.49.02-.49.02-.4-.23Zm-4.71-.65c-.52-.62-.56-.65-.8-.43-.19.17-.19.19.33.71.48.49.53.52.7.36.17-.15.16-.18-.23-.64Zm2.84-2.19 1.39-1.44.28.31c.22.25.31.29.39.19.12-.15-.4-.71-.54-.59-.18.17.37-.54.79-1.02l.45-.5.44.49c.28.32.48.47.56.42.08-.06-.01-.23-.33-.6l-.45-.53.34-.33.34-.33.42.47c.71.78.83.42.13-.41-.73-.85-.59-.97.17-.13.46.5.61.62.71.52.07-.07.16-.12.22-.12s.05.05-.02.12c-.16.16-.15.43.01.57.1.08.22.01.52-.29l.38-.39-.29-.23c-.16-.13-.51-.48-.79-.78-1.33-1.46-1.19-1.47-2.72.17-1.85 1.98-3.86 4.04-3.93 4.01-.04-.02-.55-.56-1.15-1.2-.6-.65-1.14-1.18-1.21-1.18-.35 0-.15.31.96 1.41l1.22 1.22-.78.78c-.77.77-.78.79-.59.99.1.11.21.2.24.2.08 0 3.19-3.32 4.46-4.75 1.63-1.84 2.45-2.63 2.45-2.36 0 .25-2.58 3.2-5.29 6.05-1.11 1.16-1.3 1.41-1.19 1.53.1.13.19.08.57-.33.25-.27 1.08-1.14 1.84-1.94Zm-2.98.77.9-.85-.34-.36c-.37-.38-.71-.31-.71.16 0 .1-.06.18-.13.18s-.38.26-.69.58l-.57.57.15.54.16.53.17-.24c.09-.14.57-.63 1.06-1.11Zm9.43-.47 1.3-1.36-.94-.96c-.72-.74-.96-.93-1.04-.83s.08.33.66.94c.77.82.77.82.58 1.04-.81.95-2.1 2.27-2.21 2.27-.07 0-.18-.11-.23-.25-.13-.35-.2-.31-.2.13 0 .37 0 .38.39.37.37 0 .46-.07 1.69-1.35Zm.02-1.79c-.57-.68-.87-.94-.94-.82-.09.14.06.4.43.75.41.39.4.43-.2 1.01-.83.81-1.15 1.25-.98 1.36.1.06.4-.17 1.11-.88l.97-.97zM5.85 24.6c.38-.47.43-.57.31-.68-.15-.15-.41-.07-.31.08.03.05-.16.32-.43.6-.27.27-.47.52-.45.53.14.15.51-.08.88-.53Zm-.55-.14c.25-.23.45-.5.46-.61.02-.31.15-.56.27-.48.05.03.07.01.03-.05-.03-.06.03-.13.14-.17s.39-.31.61-.61c.5-.66.65-.67 1.22-.07.33.34.49.44.63.39.15-.06.11-.14-.31-.56-.79-.8-1.41-.58-2.44.86-.13.19-.29.34-.36.34-.06 0-.27.22-.48.48-.2.27-.48.6-.61.75l-.24.26.31-.06c.18-.03.52-.24.77-.47Zm21.55-.26c.58-.59.76-.83.68-.91s-.3.09-.83.63c-.44.44-.73.68-.77.61-.1-.27-.21-.11-.12.17.15.4.14.41 1.04-.5Zm8.06.22-.34-.28.56-.58c.75-.76.93-.68.22.09q-.555.585-.45.69c.06.06.1.06.1 0 0-.05.05-.02.1.06.08.12.22.03.75-.5l.65-.65-.38-.44-.37-.43-.35.44c-.19.23-.54.64-.79.91-.44.47-.44.47-.25.69.42.49.58.58.74.42.12-.12.1-.17-.19-.42Zm-1.35-.91-.26-.25-.55.54c-.6.6-.63.65-.39.91.16.18.2.16.81-.38l.64-.56zm-7.03-.34.4-.48-.59-.6c-.76-.78-.9-.86-1.15-.63-.27.24-.25.33.26.91.53.6.52.59.2.93-.22.23-.24.31-.15.55l.11.28.25-.24c.14-.13.44-.46.67-.72Zm7.43-.63-.7-.74-.38.37c-.44.43-.45.49-.16.8.2.21.23.22.39.07s.21-.12.64.33l.47.48.22-.28.23-.28zM.8 23.23c0-.28.04-.43.08-.35.1.15 1.5.15 1.7 0 .09-.08.12 0 .12.36 0 .34-.04.46-.15.46-.17 0-.2-.25-.05-.35.28-.17.03-.24-.72-.2-.64.03-.84.08-.86.2-.02.09.04.15.17.15.11 0 .23.05.26.1.04.06-.07.1-.24.1-.3 0-.31-.01-.31-.47Zm27.59-.81c-.51-.49-1.11-1.04-1.32-1.22l-.38-.33-.29.28c-.16.15-.27.32-.24.37.04.05.17-.01.31-.14l.25-.23 1.16 1.22c1.02 1.08 1.18 1.21 1.31 1.08s.03-.25-.8-1.03Zm-20.53.76c.04-.05-.09-.25-.27-.44s-.28-.34-.22-.34.25.17.42.37.34.34.38.3-.11-.26-.33-.48l-.4-.4-.2.22c-.1.12-.13.19-.06.15.06-.04.12-.02.12.04s-.08.14-.18.18c-.17.06-.17.1-.06.39.14.32.6.33.8.01Zm22-1.05c-.34-.31-.56-.36-.56-.12 0 .06.04.07.1.04s.1.01.1.09c0 .34-.9-.29-2.28-1.58l-.53-.5-.54.54c-.45.44-.52.56-.39.63.11.06.25-.03.54-.35l.38-.43.54.51c.29.29.96.89 1.48 1.34l.95.81.29-.32.29-.33zm5.86-.49c-.24-.33-.31-.29-1.05.55l-.39.43.24.25.23.25.57-.63c.55-.61.56-.63.4-.85ZM3.7 22.65c0-.17-.02-.18-.11-.05-.08.11-.12.12-.16.02-.03-.07-.25-.12-.59-.12H2.3v-.45c0-.25.05-.45.1-.45.06 0 .1.04.1.1s.44.1 1.1.09c1.19 0 1.3.02 1.25.29-.02.09-.04.23-.04.3-.01.07-.16.12-.42.12-.28 0-.46.06-.55.18-.13.16-.13.16-.14-.03Zm5.66-.07c.07-.12-1.3-1.51-1.4-1.41-.02.03-.15-.02-.28-.11-.31-.22-.35-.21-.53.14-.33.64.05.84.66.33.18-.15.3-.21.27-.13-.04.09.16.37.5.72.59.61.66.65.78.46Zm-4.66-.43c0-.12-.19-.15-1.15-.15-.98 0-1.14.02-1.09.15.05.12.27.15 1.15.15.9 0 1.09-.03 1.09-.15Zm34.7-.25c0-.22-.36-.26-1.13-.14-.7.12-.45.34.38.34.68 0 .75-.02.75-.2Zm-9.17-.71c-.33-.35-.75-.82-.95-1.03-.19-.21-.39-.37-.45-.35s.33.52.86 1.11c.54.61.99 1.04 1.04.99s-.17-.37-.5-.72Zm-18.44.59c.57-.18 1.37-1.1 1.14-1.31-.17-.14-.23-.1-.91.64-.41.43-.7.79-.66.79.03 0 .23-.05.43-.12Zm19.33-.2c.02-.06-.29-.46-.69-.88-.39-.42-.82-.88-.93-1.03-.22-.28-.4-.35-.4-.16 0 .12 1.81 2.18 1.92 2.18.03.01.08-.04.1-.11Zm-17.84-.29c.26-.07.42-.18.43-.28.01-.09.03-.34.05-.55l.03-.4-.18.3c-.1.16-.39.49-.65.72-.26.24-.39.41-.29.39zm-3.18-.15c-.06-.14-.1-.37-.1-.5q0-.255-.12-.18c-.07.04-.03-.03.09-.15.23-.22.39-.28.28-.1-.05.07.05.08.29.04.2-.04.36-.06.37-.04.17.98.09 1.19-.44 1.19-.2 0-.3-.07-.37-.26Zm4.44-.58.27-.36-.24.09c-.27.1-.47-.02-.47-.28.01-.13.02-.13.11.02.12.2.49.23.49.03 0-.17-.62-.28-.72-.12-.04.06-.08.35-.08.64 0 .62.16.61.64-.02Zm-3.24.3c0-.08.23-.36.5-.63l.51-.48-.36-.52c-.19-.29-.35-.57-.35-.63 0-.05-.13-.1-.28-.1-.47 0-.82.85-.49 1.19.1.11.09.13-.03.09-.33-.1-.26-1.24.09-1.35.09-.03.26-.09.38-.15.24-.12.43-.04.43.18 0 .08.16.37.35.65s.35.56.35.63c-.01.17-1.1 1.29-1.1 1.12Zm20.7-.3c0-.06-.25-.4-.55-.76-.3-.35-.55-.71-.55-.79 0-.11-.08-.08-.27.11l-.26.27.68.75c.65.73.95.87.95.42Zm-24.53-.05c-.14-.17-.28-.27-.32-.23-.05.04-.05.02-.02-.04s-.03-.21-.15-.33l-.2-.23-.48.47-.47.46-.24-.2c-.13-.1-.21-.23-.17-.27s.15-.01.23.06c.14.12.22.08.58-.29l.42-.42-.25-.19-.24-.18-.39.35-.39.35-.54-.53c-.52-.51-.66-.81-.44-.94.06-.03.1.02.1.12s.2.41.45.68l.45.5.25-.28c.3-.34.31-.39.03-.63-.2-.18-.21-.18-.15-.01.04.11.03.16-.03.12-.15-.09-.12-.32.05-.39.09-.03.23.06.37.24.12.17.27.3.33.3s.44.36.84.8c.77.85.84.89 1.13.63.16-.15.18-.15.18 0 0 .17-.29.37-.53.37-.09 0-.26-.13-.4-.29Zm40.74-.3c-.37-.35-.39-.46-.09-.62.21-.11.22-.11.09.05-.25.3.38.83.67.54.25-.25-.05-.51-.36-.31l-.27.17.19-.22c.11-.12.14-.22.09-.22-.06 0-.13-.09-.16-.2-.07-.27-.04-.26.44.21l.41.4-.23.25c-.29.31-.4.3-.78-.05Zm-7.35-.07c-.05-.13-.09-.15-.18-.06-.16.16-.28.15-.28-.03 0-.08-.04-.15-.1-.15-.05 0-.07-.07-.04-.15.06-.14.08-.13.2.02.13.17.13.17.14-.02s.02-.19.12.02c.14.29.34.35.35.11.01-.13-.03-.18-.13-.14-.08.03-.14.01-.14-.04 0-.06.24-.1.53-.09.36 0 .46.03.32.08-.11.05-.22.07-.25.05-.03-.01-.07.06-.07.17-.01.1.05.19.13.19s.14-.07.14-.15.05-.15.1-.15c.06 0 .1.06.1.14s.05.18.11.22c.08.05.1-.03.07-.25-.03-.21 0-.31.09-.31.07 0 .13.11.13.25s.05.25.1.25c.06 0 .1-.11.1-.25 0-.2.05-.25.26-.25.23 0 .25.03.22.33l-.03.32-.96.03c-.83.02-.98 0-1.03-.14Zm2.64-.19c0-.27.04-.35.18-.35.09 0 .13.04.07.08-.17.12-.17.42 0 .42.09 0 .14-.04.11-.09s.03-.11.14-.14c.14-.04.2 0 .2.11 0 .15.02.15.1.02.06-.1.1-.11.1-.02 0 .06.09.12.2.12s.2-.05.2-.11c0-.05-.04-.08-.09-.05-.05.04-.07-.03-.04-.14.08-.3 1.53-.31 1.53-.01 0 .11.03.26.06.34.05.13-.11.16-1.05.16-.62 0-1.11-.04-1.11-.09 0-.06-.1-.06-.26 0-.35.14-.34.14-.34-.25Zm-38.7-.16c-.14-.12-.4-.34-.57-.5-.18-.16-.33-.27-.33-.23s-.06.01-.14-.06c-.2-.16-.11-.37.43-.93.55-.57.57-.57 1.06-.07.46.47.36.54-.12.08l-.33-.32-.47.4c-.61.53-.61.51.07 1.09.32.28.61.56.64.63.07.16.06.15-.24-.09Zm13.3-.83c0-.34-.04-.46-.17-.49-.15-.04-.15-.06.05-.12.7-.23.21-.35-1.43-.35-1.5 0-1.65.02-1.65.18 0 .12-.09.17-.3.18-.18.01-.4.11-.51.23-.26.28-.25.3-.21-.56l.04-.73h4.38v.3c0 .28.01.29.58.32l.57.03.03.73.03.72H18.1zm1.18-.34c.03-.52.03-.52-.27-.52-.16 0-.37-.03-.46-.07-.15-.05-.17 0-.14.4.02.26.01.47-.03.47-.05 0-.08.07-.08.16 0 .12.1.14.48.12l.47-.03zm21.3.18c-.11-.37-.1-1.4.02-1.4.06 0 .1.14.1.3 0 .25.04.3.25.3.23 0 .25.04.25.46 0 .27-.04.43-.1.39-.05-.03-.1-.19-.1-.36 0-.48-.28-.37-.32.13-.03.37-.04.39-.1.18Zm.92-.54c0-.49.04-.76.11-.76s.09.1.05.25c-.06.23-.03.25.24.25.29 0 .3.02.3.45 0 .25-.04.45-.1.45-.05 0-.1-.16-.1-.35 0-.24-.05-.35-.15-.35s-.15.1-.15.34c0 .19-.04.38-.1.41-.06.04-.1-.22-.1-.69Zm1.28.67c-.49-.08-.51-.93-.02-.93.2 0 .24-.05.24-.3 0-.16.05-.3.1-.3.06 0 .1.28.1.64 0 .37.05.68.11.72.11.06-.08.26-.21.22-.03 0-.17-.03-.32-.05Zm-35.68-.4v-.33l.73.01c.58 0 .67.02.47.1-.14.06-.43.09-.64.07-.25-.01-.41.02-.44.1-.03.09.15.12.62.12.52 0 .66.03.66.15s-.14.14-.7.13l-.7-.02zm17.9.12c0-.11-.12-.15-.5-.15H24v-1.3h1.2v.8c0 .47-.04.8-.1.8-.05 0-.1-.07-.1-.15Zm19.88.08c.45-.06.49-.69.05-.76-.23-.03-.21-.04.1-.06.33-.01.37-.04.37-.27 0-.2-.04-.25-.16-.2-.14.05-.15.04-.04-.09.2-.24.3-.18.3.2 0 .33.02.35.35.35.39 0 .48-.25.19-.54-.14-.15-.11-.16.28-.16h.43v.37c0 .28-.05.39-.18.41-.09.02-.17.09-.17.15 0 .08-.03.08-.09-.01-.21-.33-.96-.1-.99.31-.03.36-.04.37-.4.35l-.37-.01zm-19.8-.7c.03-.21 0-.23-.47-.23-.48 0-.51.02-.51.26 0 .36.93.33.98-.03Zm-6.88-.38c0-.13-.3-.15-2.1-.15s-2.1.02-2.1.15.3.15 2.1.15 2.1-.02 2.1-.15Zm-8.05-1.92C3.48 14.67 2.92 5.37 9.44 3.95c4.68-1.03 8.58 3.19 7.12 7.71-.87 2.7-3.71 4.51-6.41 4.07Zm2.1-.48c5.58-1.46 5.65-9.45.09-10.9-4.95-1.29-8.8 3.63-6.4 8.19 1.09 2.1 3.95 3.32 6.31 2.71Zm6.97-1.57.03-1.43.55-.03c.94-.04 1.44.46 1.08 1.08-.15.26-.14.29.03.44.66.56.05 1.36-1.03 1.36h-.69zm2.48 1.2c-.3-.33-.3-1.88 0-1.88.18 0 .2.07.2.78 0 .86.08 1.02.52 1.02.37 0 .48-.24.48-1.1 0-.63.02-.71.18-.68.15.03.17.16.17 1 0 1.01-.05 1.19-.29.99-.1-.08-.16-.09-.21-.01-.12.19-.83.12-1.05-.12Zm1.98.16c-.15-.14.05-.43.22-.34.27.14.66.12.79-.04.14-.16.03-.27-.51-.49-.78-.33-.55-1.21.3-1.15.34.02.47.07.47.18s-.09.14-.3.12c-.6-.05-.75.4-.18.54.59.14.84.72.47 1.08-.15.16-1.13.23-1.26.1Zm3.03-.2c-.31-.39-.31-1.84-.01-1.84.18 0 .2.07.2.74 0 .96.25 1.26.81.96.16-.09.19-.22.19-.9 0-.73.02-.8.2-.8.19 0 .2.07.2 1.03v1.03l-.69.02c-.64.02-.71 0-.9-.24Zm2.09-.74c0-1.01.16-1.39.41-.99.06.11.11.11.21.01.56-.56 1.18.03 1.18 1.13 0 .78-.02.85-.2.85s-.2-.07-.2-.78c0-.81-.09-1.02-.42-1.02-.39 0-.58.35-.58 1.1 0 .63-.02.7-.2.7-.19 0-.2-.07-.2-1Zm2.45.75c-.38-.37-.36-1.16.04-1.56.32-.31.86-.4 1.09-.17.09.09.12-.02.12-.51 0-.54.02-.62.18-.59.15.03.17.2.2 1.56.03 1.54-.02 1.74-.35 1.41-.08-.08-.13-.08-.17 0-.14.21-.85.13-1.11-.14Zm3.35-1.2V12.2h.59c.94 0 1.4.55.96 1.17-.13.18-.12.22.05.38.63.57.07 1.35-.96 1.35h-.64zm2.3 1.25c-.44-.44-.13-.96.61-1.06.77-.1.7-.5-.08-.47-.29.01-.53-.01-.53-.05 0-.2.28-.32.71-.32.66 0 .79.2.79 1.25v.81l-.65.02c-.54.01-.69-.02-.85-.18Zm2-1.35c0-1.48.01-1.55.2-1.55.18 0 .2.07.2.6v.6l.26-.1c.37-.14.7-.12.88.06.23.22.23 1.94.01 1.94-.12 0-.15-.15-.15-.71 0-1.03-.23-1.32-.78-.93-.19.13-.22.24-.22.9 0 .67-.02.74-.2.74-.19 0-.2-.07-.2-1.55Zm2.3.5c0-.98.01-1.05.2-1.05.11 0 .2.05.2.1 0 .07.06.07.19 0 .32-.16.76-.12.96.1.3.34.35 1.9.06 1.9-.19 0-.21-.05-.21-.62 0-.84-.08-1.07-.37-1.14-.44-.12-.63.19-.63 1.03 0 .66-.02.73-.2.73-.19 0-.2-.07-.2-1.05Zm-20.58.58c.11-.06.1-.55-.01-.71-.04-.07-.28-.14-.52-.15l-.44-.02-.03.39c-.05.64.39.86 1 .49Zm11.69.07c.47-.26.19-1.4-.34-1.4-.31 0-.59.35-.59.74 0 .62.43.92.93.66Zm3.42.01c.59-.23.34-.91-.33-.91H35v.5c0 .55.15.63.73.41Zm2.08-.01c.3-.17.25-.6-.07-.6-.52 0-.79.31-.52.58.15.15.33.15.59.02ZM9.62 13.54c-2.77-1.38-1.04-5.69 1.92-4.8 1.95.59 2.54 3.21 1.02 4.54-.68.59-2.03.71-2.94.26Zm2.04-.19c1.76-.52 1.93-3.22.25-4.07-1.6-.82-3.3.19-3.31 1.95 0 1.66 1.38 2.62 3.06 2.12Zm24.17-.05c.27-.24.02-.65-.4-.68l-.43-.03v.92l.38-.07c.2-.03.41-.1.45-.14Zm-15.29-.12c.17-.27-.05-.52-.48-.56-.41-.04-.52.11-.42.54.08.31.71.32.9.02Zm-13.9-2.84c-.12-.99 0-1.78.4-2.59 1.84-3.72 7.71-2.58 7.94 1.54.04.8-.1 1.46-.22 1.06-.83-2.56-3.33-3.7-5.71-2.61-1.02.46-1.98 1.72-2.12 2.75-.08.58-.2.51-.29-.15Zm12.56-.39V9h2.69c2.5 0 3.03-.05 2.69-.26-.06-.04-1.05-.1-2.18-.14-1.93-.06-2.09-.08-2.51-.31-1.17-.64-1.24-2.91-.11-3.61l.37-.23h8.58l.23.7c.13.39.38 1.19.56 1.8l.34 1.09.36-.99c.2-.55.51-1.37.68-1.83l.32-.83 1.07.03 1.06.03.65 1.84.64 1.85.32-.98c.17-.53.44-1.38.59-1.87l.27-.89h4.47c4.44 0 4.47 0 4.91.22.8.41 1.08 1.57.61 2.49-.22.42-.22.42-.02.63.82.87.35 2.71-.77 3.04-.27.08-1.47.12-3.74.12h-3.35l-.06-1.97c-.06-2.37-.12-2.25 1.02-2.21l.86.03.03 1.08.03 1.07h1.94c1.88 0 1.95-.01 1.95-.2 0-.18-.08-.2-1.62-.22l-1.63-.03-.03-.84c-.04-1.05-.11-1.01 1.7-1.01 1.25 0 1.48-.02 1.48-.15s-.4-.15-2.99-.15h-2.99l-.57 1.58c-.32.86-.7 1.89-.85 2.27l-.26.7-1.21.03-1.21.03-.3-.78c-.16-.43-.44-1.2-.62-1.71s-.36-.89-.4-.85c-.03.04-.28.69-.55 1.43-.74 2.09-.56 1.9-1.84 1.9-1.31 0-1.12.23-1.97-2.29-.37-1.12-.73-2.09-.79-2.16-.18-.23-5.7-.25-5.63-.02.04.09.61.13 2.24.17 3.08.07 3.49.33 3.49 2.2 0 2-.21 2.1-4.57 2.1H19.2zm6.97.39c.82-.6.86-2.57.06-3.09-.29-.19-1.94-.34-3.75-.35-1.33 0-1.66-.18-1.4-.75l.12-.25h6.08l.26.72c.14.4.5 1.43.79 2.28l.52 1.55h1.87L31.26 9c.3-.8.62-1.64.7-1.88.17-.46.39-.55.49-.19.04.12.34.97.68 1.9l.6 1.67h1.95l.16-.42c.09-.24.47-1.26.84-2.28l.67-1.85 3.14-.03c3.42-.03 3.41-.03 3.41.54 0 .48-.2.54-1.74.54H40.8v1.07l.77.07c.42.03 1.11.06 1.54.06.86 0 1.07.15.95.66-.11.41-.33.45-2.48.42l-2.03-.03-.03-1.07-.03-1.08H38.2v3.52l3.28-.04c3.07-.03 3.29-.04 3.62-.23.9-.53.97-2.33.1-2.63-.37-.13-.37-.19-.05-.44.76-.59.72-1.92-.07-2.35-.38-.21-8.28-.34-8.78-.15-.22.09-.32.33-.84 1.96-.33 1.03-.65 1.95-.72 2.03-.16.23-.24.05-.96-2-.77-2.24-.65-2.07-1.46-2.07-.88 0-.79-.11-1.6 2-.39 1.02-.74 1.93-.77 2.02-.11.29-.23.21-.35-.23-.22-.82-1.11-3.63-1.16-3.68-.09-.1-6.72-.1-7.57-.01-1.19.12-1.68.73-1.54 1.92.15 1.27.41 1.39 3.21 1.5 2.32.09 2.46.12 2.46.57 0 .49-.1.51-2.14.51-1.05 0-2.21.03-2.58.07l-.68.06v1.18l3.14-.03c3-.03 3.16-.04 3.43-.24ZM7.86 8.15c1.86-1.81 5.19-1.46 6.56.69l.2.31-.07-.39c-.66-3.88-6.96-3.8-7.51.09l-.06.4.21-.33c.12-.18.42-.53.67-.77Z"/></svg>