<svg xmlns="http://www.w3.org/2000/svg" width="51" height="51" viewBox="0 0 51 51"><path fill="#fff" fill-rule="evenodd" stroke="#fff" stroke-width=".725" d="M27.3 45.34c-1.09-.3-2.09-1.11-2.52-2.05l-.23-.49h-1.2c-6.9 0-12.76-1.74-16.27-4.83-4.45-3.92-4.38-11.98.14-14.88l.48-.31v-1.62c.01-3.27.28-3.76 4.37-7.92 1.75-1.78 2.36-2.18 3.78-2.5 1.58-.34 12.14-.27 13.32.1.79.25 1.57.9 2.9 2.42 2.06 2.35 1.79 2.23 7.02 3.2 5.6 1.03 5.86 1.11 6.85 2.09 1.23 1.21 1.46 2.1 1.46 5.65 0 2.9-.05 3.26-.51 3.64l-.31.26h-2.06c-2.38 0-2.22-.05-2.66.86-1.89 3.94-7.29 3.65-8.9-.48l-.15-.38h-5.45c-2.99 0-5.51.03-5.6.06s-.32.39-.51.8c-1.85 3.85-7.4 3.61-8.9-.38l-.18-.48h-1.83c-2.35 0-2.63-.19-2.64-1.75v-.5l-.2.25c-1.59 2.04-1.7 5.39-.27 8.14 1.93 3.71 8.5 6.15 16.59 6.16h.67l.32-.61c.91-1.71 2.83-2.41 5.79-2.12 1.13.11 1.45.29 1.56.9l.06.33h2.48v1.19c0 1.4.12 1.29-1.37 1.23l-1.13-.05v.63h2.5v2.3h-2.48l-.06.33c-.03.19-.2.47-.37.63l-.3.29-1.82.02c-1.36.02-1.96-.01-2.37-.13Zm4.34-.37c.13-.13.26-.42.3-.65l.06-.42h2.4v-1.8h-2.5v-1h2.5v-1.88l-.63-.06c-.34-.04-.89-.07-1.22-.09-.59-.02-.6-.02-.63-.33-.07-.72-.3-.79-2.45-.78-2.67 0-3.6.43-4.47 2.05l-.33.62-2.26-.06c-7.84-.2-13.6-2.58-15.53-6.42-.71-1.41-1.08-3.43-.89-4.82.2-1.41.87-3 1.51-3.58.18-.16.2-.3.2-1.42v-1.24l-.23.12c-.43.23-1.94 1.85-2.31 2.49C3.09 29.26 3.94 34.69 7 37.53c3.32 3.08 8.36 4.71 15.33 4.96 1.31.05 2.39.11 2.4.13.01.01.15.29.31.61.44.88 1.39 1.64 2.33 1.86.21.05 1.2.09 2.21.1 1.78.01 1.84 0 2.06-.22Zm-4.04-1.78c-1.2-.48-1.33-2.42-.22-3.11.32-.2.53-.23 1.55-.27l1.17-.03v.93c0 .52-.03 1.31-.07 1.77l-.06.82-1.06-.01c-.58 0-1.17-.05-1.31-.1Zm2.18-1.61.03-1.48h-.91c-1.63 0-2.3.63-1.99 1.87.21.82.78 1.13 2.09 1.1l.75-.02zM17.82 31.39c1.57-.33 3.05-1.71 3.51-3.3.08-.27 5.74-.4 10.1-.22l1.65.06.13.44c.41 1.47 1.96 2.77 3.64 3.05 2.08.35 4.23-.96 5-3.04l.17-.46 2.25-.04 2.25-.03.29-.33.29-.32v-2.93c-.01-3.73-.15-4.33-1.29-5.48-.98-.97-1.26-1.06-6.61-2.03-5.2-.95-5.11-.92-6.71-2.68-3.13-3.44-2.6-3.27-10.34-3.28-7.55 0-7.29-.09-10.74 3.5-3.52 3.66-3.34 3.22-3.39 8.65-.04 5.35-.29 4.86 2.52 4.94l1.89.06.12.42c.61 2.06 3.09 3.48 5.27 3.02Zm-1.72-1.94c-1.42-.45-2.22-2.26-1.61-3.6 1.17-2.57 5.01-1.8 5.03 1.01.01 1.8-1.75 3.13-3.42 2.59Zm20.6 0c-1.43-.45-2.21-2.19-1.58-3.56 1.21-2.65 5.03-1.88 5.03 1.01 0 1.83-1.71 3.09-3.45 2.55Zm-18.9-.36c1.54-.69 1.98-2.62.87-3.77-1.52-1.59-4.11-.59-4.11 1.58 0 1.73 1.71 2.88 3.24 2.19Zm20.98-.16c1.4-.86 1.53-2.91.25-3.89-1.6-1.22-3.87-.1-3.87 1.9.01 1.84 2.04 2.97 3.62 1.99ZM9.92 22.58c.04-4.36-.23-3.73 3.11-7.22 2.72-2.84 2.16-2.68 9.59-2.64l5.43.03.57.28c.45.22.83.56 1.92 1.76 2.56 2.82 2.24 2.68 8.6 3.86 5.03.93 5.3 1.04 5.88 2.3.25.53.39 3.29.23 4.52l-.06.53h-3.18l-.15-.54c-1.18-4.03-7.24-4.07-8.65-.05l-.19.54-5.8.03-5.8.02-.17-.52c-.73-2.29-3.21-3.58-5.61-2.93-1.44.39-2.78 1.68-3.14 3.03l-.11.42h-2.5zm2.58 2.34c1.75-3.88 7.45-3.69 8.95.31l.18.47h11.15l.36-.75c1.82-3.84 7.45-3.74 8.87.15l.22.6H45v-2.01c0-2.36-.06-2.65-.7-3.3-.59-.6-.76-.65-4.75-1.39-6.77-1.24-6.56-1.15-9.11-3.92-.83-.91-1.58-1.63-1.85-1.78l-.44-.25-5.7-.03c-7.47-.04-6.63-.31-9.91 3.22-1.27 1.38-1.92 2.16-2.12 2.55l-.27.56-.04 3.18-.03 3.17h2.07z"/></svg>