<svg xmlns="http://www.w3.org/2000/svg" width="51" height="51" viewBox="0 0 51 51"><path fill="#fff" fill-rule="evenodd" stroke="#fff" stroke-width=".735" d="M18.71 36.24c-.49-.21-.51-.38-.51-4.28v-3.63l-.42-.28c-4.91-3.22-5.92-7.69-2.53-11.11 2.74-2.77 7.15-2.85 10.38-.19l.66.54.53-.36c3.69-2.51 8.95-1.61 10.61 1.8 1.45 3-.09 7.26-3.27 9.04-.13.07-.16.66-.18 4.01l-.03 3.92-.31.31-.31.31-7.18.01c-5.06.02-7.26-.01-7.44-.09Zm14.61-.25c.45-.24.48-.55.48-4.53v-3.74l.78-.55c1.86-1.3 2.97-3.27 3.17-5.59.45-5.08-6.25-7.71-10.98-4.32l-.49.35-.51-.44c-3.34-2.85-8.01-2.79-10.59.14-2.97 3.36-2.04 7.06 2.64 10.48l.58.42v7.4l.25.24.24.25H26c4.9 0 7.18-.03 7.32-.11ZM20.1 30.98c0-1.89-.03-3.52-.06-3.63s-.47-.47-.97-.8c-1.36-.89-2.94-2.49-3.41-3.45-.93-1.92-.53-3.5 1.33-5.15 1.9-1.68 5.26-1.49 7.5.44l.44.38-.54.59c-.93 1.01-1.99 2.63-1.99 3.03 0 .22.53.71.77.71.41 0 .59-.16 1.36-1.18 2.36-3.11 4.42-4.42 6.97-4.42 3.79 0 5.57 2.78 3.95 6.15-1.26 2.63-4.84 3.88-10.97 3.84-1.38 0-1.62.02-1.79.17-.26.23-.26.94 0 1.18.63.57 4.9.44 8.18-.25.57-.12 1.07-.19 1.11-.15.08.09.15 5.41.07 5.73l-.05.23H20.1zm11.7.45v-2.75l-.27.05c-.16.02-.93.17-1.73.32-1.54.29-5.19.46-6.46.3-.98-.12-1.41-.83-.99-1.64.23-.45.52-.5 3.2-.54 5.5-.1 8.38-1.13 9.57-3.42 1.56-3.01.38-5.52-2.8-5.97-2.6-.36-5 .92-7.29 3.91-1.24 1.61-1.49 1.8-2.09 1.61-1.2-.4-.92-1.45.99-3.79l.61-.74-.44-.38c-1.66-1.43-4.6-1.73-6.44-.65-.59.35-1.6 1.46-1.93 2.15-.92 1.86.29 4.24 3.1 6.16.49.33 1.03.72 1.2.87l.32.26.03 3.52.04 3.51 5.69-.02 5.69-.01z"/></svg>