<svg xmlns="http://www.w3.org/2000/svg" width="51" height="51" viewBox="0 0 51 51"><path fill="#fff" fill-rule="evenodd" stroke="#fff" stroke-width=".36" d="M37.7 50.86c-1.77-.64-4.29-2.09-5.96-3.43l-.41-.33-13.64-.02-13.64-.03v-43l21.46-.03c18.68-.02 21.48 0 21.59.13.09.11.12 1.66.12 6.37l.01 6.23.96.37c.53.21 1.29.47 1.69.58 1.13.33 1.33.67.92 1.58-.15.32-.17.49-.1.68.15.4.13.5-.28.97l-.38.44-.77 5.49c-.43 3.02-.89 6.35-1.03 7.39-.21 1.61-.51 3.66-.68 4.66-.04.21 0 .27.29.38 2.46.88 1.16 7.24-1.77 8.7-.69.35-1.02.38-1.77.15l-.53-.15-.84.58c-2.08 1.44-3.97 2.53-4.37 2.53-.12 0-.51-.11-.87-.24Zm2.05-.57c1.08-.61 3.75-2.38 3.75-2.48 0-.04-.15-.21-.32-.38l-.33-.32-.85.7c-1.41 1.17-2.1 1.63-2.22 1.51-.11-.11.05-22.43.16-22.61s8.49-4.32 8.63-4.27c.11.05.14.15.09.39-.03.17-.35 2.57-.71 5.32-.58 4.37-1.34 9.75-1.51 10.73-.06.29-.04.32.17.32.5 0 .67-.11.71-.43.03-.18.23-1.62.46-3.22.23-1.59.69-4.86 1.02-7.25.99-7.18.97-7.09 1.38-7.47.32-.31.33-.34.27-.85-.05-.42-.02-.61.14-.93.36-.68.24-.83-.94-1.15-.44-.12-1.11-.34-1.5-.5-.38-.15-.98-.33-1.33-.39-.35-.07-1.03-.24-1.5-.38-.48-.14-1.16-.29-1.52-.34-.36-.04-1.02-.17-1.47-.28-.67-.17-1.12-.21-2.51-.21-1.98 0-2.13.04-5.85 1.53l-2.08.83-.49-.24c-1.82-.9-3.92.13-4.09 2-.01.04-.42.28-.91.53-.99.5-1.01.53-1.2 1.56-.14.78-.13.79 1.36 1.53l1.12.55.11.63c.06.35.38 2.5.71 4.78s.62 4.21.65 4.28.23 1.49.45 3.15c.47 3.46 1.27 9.12 1.35 9.43.1.45 3.36 2.68 5.2 3.56 2.19 1.04 2.39 1.06 3.6.37Zm-1.6-.39c-1.56-.55-5.72-2.95-6.39-3.69-.18-.19-.83-4.35-1.51-9.56-.2-1.49-.46-3.42-.6-4.3-.13-.88-.36-2.39-.5-3.35s-.35-2.37-.47-3.13c-.12-.75-.19-1.39-.16-1.42s1.13.35 2.44.84c5.71 2.13 6.63 2.37 7.52 2 .27-.11.34-.11.41-.01.17.27.39 21.55.24 22.21-.13.52-.38.63-.98.41Zm.69-.26c.14-.36-.02-21.95-.16-22.09-.03-.04-.23.01-.43.09-.66.28-1.98-.09-7.21-2.04-1.19-.45-2.18-.79-2.21-.77-.02.03.3 2.29.71 5.03.41 2.75.87 5.91 1.01 7.04.28 2.23 1.22 8.74 1.31 9.02.12.38 3.9 2.69 5.72 3.49.97.42 1.17.46 1.26.23Zm1.81-1.08c.22-.16.77-.6 1.22-.98l.81-.67-.14-.48c-.55-1.79 1.45-6.14 3.24-7.07.17-.09.33-.24.36-.33.15-.52 2.31-16.22 2.24-16.29-.02-.02-8.18 4.04-8.24 4.1-.12.1-.14 22.17-.03 22.11.08-.05.32-.22.54-.39Zm5.34-.81c2.44-1.23 3.81-6.39 2.12-8-.37-.34-1.31-.46-1.97-.25-1.87.62-4.06 5.46-3.23 7.17.55 1.14 1.98 1.64 3.08 1.08Zm-1.64-.4c-1.32-.55-1.52-1.18-.91-3.01 1.18-3.53 2.93-5.27 4.37-4.31 1.36.89.99 4.43-.66 6.24-.53.59-.76.54-.34-.07.88-1.3 1.39-2.8 1.39-4.07 0-.84-.06-.88-.66-.45-.84.61-1.58 2.01-2 3.81l-.28 1.14.23.4c.37.63-.08.76-1.14.32Zm.89-.23c-.66-1.5 1.47-5.92 2.86-5.92.25 0 .25-.02.01-.48-.35-.67-1.03-.87-1.76-.52-1.63.79-3.62 5.54-2.7 6.46.51.51 1.78.88 1.59.46Zm-15.92-.29c1.53-.06 1.57-.07 1.46-.26-.09-.17-1.33-8.48-1.53-10.23-.08-.72-.25-1.08-.25-.52 0 .59-.29 1.02-.31.45-.01-.41-.18.13-.18.61-.01.59-.15.52-.41-.2-.12-.35-.28-.66-.35-.7-.16-.1-.95-1.42-1.05-1.77-.07-.22-.08-.18-.09.22-.01.36.03.47.15.47.08 0 .22.17.31.37.08.21.24.5.35.66.17.23.18.32.08.62-.13.4-.35.37-.27-.04.03-.15-.02-.43-.13-.66l-.19-.4.06.57c.06.58-.11.85-.21.36-.36-1.72-.47-1.82-.41-.35l.05 1.18-.41-.23c-.47-.26-.79-.73-.79-1.17 0-.35-.15-.42-.25-.11-.09.27.02.58.26.7.25.14.28.9.03.9-.12 0-.14-.07-.09-.28.04-.22 0-.33-.2-.52-.32-.3-.32-.68 0-1.54.14-.37.25-.81.24-.99-.01-.28-.03-.24-.19.27-.23.72-.4.93-.4.5 0-.51.88-3.05 1.1-3.19.12-.08.12 0 .01.45-.23.83-.32 2.84-.14 2.97.09.07.25.25.35.4l.19.28-.07-.4c-.03-.22-.12-.66-.19-.98-.14-.63-.05-.74.22-.25l.17.33.08-.5c.33-2.13.51-2.39.58-.85l.05 1.25.46.72.45.71.12-.44c.15-.56.26-.55.54.03.23.47.23.48.26.18.06-.47-.17-2-.49-3.24-.33-1.27-.31-1.51.05-.7l.24.54-.05-.45c-.03-.25-.27-1.97-.54-3.83s-.49-3.4-.49-3.42c0-.03-.51-.3-1.12-.61-1.39-.69-1.48-.77-1.48-1.25 0-1.23.33-1.77 1.39-2.28.7-.33.76-.39.82-.72.26-1.66 2.5-2.65 4.21-1.87l.56.26 1.97-.79c1.08-.44 2.51-.97 3.17-1.19l1.21-.4 1.61.01c1.3.02 1.79.06 2.56.25.52.13 1.21.25 1.53.28s.62.08.66.11c.08.05 2.27.65 2.37.65.07 0 0-12.37-.07-12.44-.08-.08-42.47-.11-42.56-.03-.2.21-.09 30.87.11 30.69.1-.09.25-.31.32-.49.24-.57.32-.46.29.4-.03.7-.02.76.06.42.06-.22.17-.62.25-.9.08-.27.22-.98.31-1.57.16-1.02.33-1.43.33-.79 0 .17.04.32.09.35.04.03.11.27.15.53.04.27.19.75.34 1.07l.27.59.48-1.03c.55-1.15.63-1.2.46-.28-.14.74-.07 1.27.21 1.6l.19.23.01-.38c0-.46.17-.4.26.09.09.51.25.29.58-.78.34-1.12.41-1.1.41.07.01.94.01.95.35 1.3.61.63.74.52 1.2-1.06.37-1.28.4-1.3.41-.31.01.45.03.87.04.92s.03.27.04.48l.02.37.44-.8c.25-.44.59-1.15.77-1.57.33-.81.54-1.01.46-.46-.09.61.48 2.75.68 2.55.03-.03.09-.45.12-.93.06-.79.32-1.38.32-.73 0 .22 0 .22.15.03.13-.18.14-.16.15.23 0 .37.07.5.49.97l.49.54.17-.69c.1-.41.15-.91.13-1.2-.06-.63.06-.63.27.01s.15.69.84-.68c.65-1.27.98-1.77.86-1.32-.03.14-.24.94-.45 1.78l-.38 1.53.24.24.24.24v-.53c0-.73.1-1.16.26-1.16.08 0 .14.09.14.19 0 .28.11.52.21.45.05-.03.09-.14.09-.25 0-.24.7-2.09.79-2.09.04 0 .04.26 0 .57-.15 1.19-.11 2.19.1 2.44.18.22.2.23.27.06.08-.23-.03-1.08-.16-1.21s-.13-.36-.01-.36c.17 0 .49.64.77 1.53.19.57.31.84.38.77.12-.12.14-1.72.03-2.98-.1-1.15.06-1.22.35-.16.11.38.25.72.33.76.07.04.16.19.19.33.09.34.21.32.32-.06.05-.17.14-.31.19-.31.1 0 .1.15 0 1.07-.03.38-.03.37.07-.07.13-.56.24-.61.37-.15.05.17.1.26.1.18.01-.19.31.06.32.28.01.09.05-.06.1-.33.12-.71.29-.82.29-.19 0 .66.06.8.41.98l.28.15.03-.77.03-.78.23.45.22.45-.04-.73c-.03-.75.12-.97.25-.36.2.92-.01 1.9-.35 1.57-.03-.03-.06.08-.06.25 0 .32-.21.45-.35.22a.2.2 0 0 0-.16-.1c-.06 0 .01.15.14.32.24.32.45 1.28.28 1.28-.16 0-.47-.43-.33-.47.14-.05.17-.43.03-.43-.06 0-.18.14-.28.3-.29.5-.53.35-.53-.33 0-.51-.15-.64-.3-.27-.18.43-.33.33-.44-.28-.08-.45-.36-.77-.36-.41 0 .05-.04.07-.1.04s-.1-.23-.1-.43l-.01-.37-.2.38c-.11.21-.19.5-.17.64.03.3-.18.43-.25.16-.03-.13-.09-.06-.22.25-.27.63-.48.56-.76-.24-.16-.46-.25-.61-.29-.48-.06.23-.33.64-.41.64-.13 0-.59-1.2-.6-1.56-.01-.38-.01-.37-.17.2-.19.66-.38.82-.48.4-.07-.27-.07-.27-.15-.06-.12.33-.13.94-.01 1.23.12.3-.21 1.19-.45 1.19-.18 0-.1-.45.12-.67.19-.18.18-.33 0-.57-.14-.18-.15-.17-.15.22 0 .29-.06.45-.19.54s-.21.28-.23.56c-.04.58-.23.53-.23-.07 0-.34-.04-.47-.12-.44-.31.12-.35-.5-.08-1.17.26-.65.67-2.11.61-2.17-.02-.02-.13.21-.26.51-.26.66-.44.85-.57.61-.07-.12-.12-.03-.22.38-.15.67-.42.97-.68.76-.17-.13-.17-.13 0 .13.22.34.23.88.02.88-.09 0-.15-.09-.15-.25 0-.14-.17-.58-.37-.98-.37-.71-.38-.72-.41-.38-.05.54.06.96.34 1.22.66.61.81 1.13.25.84-.47-.24-.81-.72-.81-1.13 0-.32-.01-.34-.13-.18-.23.32-.57-.14-.87-1.18-.16-.6-.17-.6-.23-.27-.04.19-.03.39.03.47.21.24.08 1.59-.15 1.62-.27.04-1-.21-.98-.34.01-.05.05-.23.08-.39l.07-.3-.17.23c-.11.15-.24.22-.36.19-.13-.03-.19 0-.19.1 0 .13-.03.13-.15.03-.11-.09-.13-.24-.1-.54.05-.39.05-.4-.08-.14-.07.14-.21.36-.31.47-.17.19-.17.21-.03.21.21 0 .21.04.01.35-.11.17-.13.29-.06.42.12.2-.08.67-.32.76-.13.05-.13.12-.04.37.14.42.06.46-.36.21-.37-.23-.59-.7-.55-1.18.01-.15.01-.59.01-.96-.02-.88-.25-.88-.32-.01-.04.44-.09.59-.2.59-.15 0-.16-.08-.06-.95.03-.29.02-.32-.08-.18-.08.11-.2.15-.34.11-.17-.04-.21-.02-.17.09.08.2-.4.51-.66.43-.33-.11-.52-.5-.45-.95.08-.49.03-.5-.18-.05-.27.56-.43.36-.81-1l-.13-.5-.01.63c-.01.53.03.69.24.96.33.44.41.86.22 1.23-.43.82-1.16.57-.97-.33.04-.22.1-.64.13-.94l.06-.55-.17.65c-.21.78-.39 1.13-.55 1.07-.13-.04-.13-.04-.17-.74l-.03-.48-.04.42c-.02.23-.1.47-.18.53-.11.09-.12.16-.02.3.09.15.08.27-.01.53-.09.24-.12 1.61-.12 5.1v4.77h11.73c6.44 0 12.43-.03 13.29-.07Zm17.41-1.99c-.09-.25.1-.76.38-.96.34-.26.59-.15.59.27 0 .53-.81 1.11-.97.69Zm-36.59-8.22c-.04-.24-.16-.5-.3-.63l-.24-.22v.42c0 .32.06.48.26.68.31.31.36.27.28-.25Zm3.3.25c-.03-.09-.03-.21.01-.27.03-.05-.01-.13-.09-.16-.19-.07-.22-.58-.04-.52.27.09.52.78.35.96-.15.14-.17.14-.23-.01Zm4.95.01c-.1-.31-.04-1.58.08-1.58.07 0 .15.06.17.13.02.06.11.34.21.62.09.28.19.58.22.68.04.14-.01.17-.31.17-.2 0-.36-.01-.37-.02Zm-12.34-.43c.19-.33.19-.35 0-.72l-.19-.38-.12.65c-.17.89-.03 1.09.31.45Zm20.05-.07c-.01-.23-.12-.45-.36-.72l-.34-.4.06.35c.06.31.48 1.09.59 1.09.03 0 .05-.15.05-.32Zm-13.3-.62c0-.62-.23-1.12-.34-.75-.31 1.06-.27 1.38.16 1.39.15 0 .18-.1.18-.64Zm-5.1-.15c0-.52-.11-1.02-.2-.96-.15.09-.23 1.05-.1 1.2.21.25.3.17.3-.24Zm-1.4-3.9c0-.13-.08-.21-.22-.23-.36-.05-.33-.3.31-3.53.77-3.88.63-3.55 1.56-3.55.71 0 .75.01.81.25.04.15.13.25.24.25.21 0 .15-.22.9 3.55l.48 2.4.01-3.07c.01-1.68.04-3.13.07-3.22.1-.25 2.34-.23 2.89.03.91.41 1.55 1.45 1.55 2.52-.01 1.29-.8 1.99-2.25 1.99h-.35v2.8h-.65c-.57 0-.65-.02-.65-.19 0-.13-.09-.2-.3-.23-.26-.04-.3-.01-.3.19 0 .22-.04.23-.65.23-.58 0-.65-.02-.65-.19 0-.13-.08-.21-.22-.23-.19-.02-.25-.12-.32-.56l-.09-.53-.36.03-.36.03-.1.7-.1.7-.62.03c-.57.03-.63.01-.63-.17Zm9.4-.01c0-.13-.07-.2-.2-.2-.1 0-.24-.09-.3-.19-.11-.21-.15-6.06-.04-6.6l.07-.31h1.15c1.42 0 1.83.12 2.43.7 1.68 1.62.89 4-1.33 4H17v2.8h-.65c-.58 0-.65-.02-.65-.2Zm-5.9-.47c0-.08-.44-2.42-.95-5.11l-.27-1.42H7.32l-.16.7c-.08.39-.36 1.77-.61 3.08-.25 1.3-.48 2.45-.51 2.55-.05.14.02.17.4.17.5 0 .46.05.63-.9l.09-.45h1.49l.07.5c.16.98.14.95.63.95.25 0 .45-.03.45-.07Zm1.83-.85c.04-.46.07-1.06.07-1.34v-.51l.75-.06c1.34-.1 1.8-.58 1.8-1.87 0-1.45-.59-1.93-2.39-1.94l-1.11-.01-.03 3.28-.02 3.27h.87zm4.71-.53.01-1.3.8-.06c1.38-.1 1.84-.57 1.85-1.86 0-.96-.29-1.5-.97-1.79-.38-.16-1.98-.3-2.37-.2l-.26.06v6.51l.46-.03.47-.03zm-9-1.12c.03-.1.14-.74.26-1.42.29-1.76.35-1.76.62-.03.26 1.73.28 1.62-.38 1.62-.48 0-.55-.02-.5-.17Zm4.35-1.07c-.02-.02-.03-.52-.01-1.1l.03-1.06h.5c.92 0 1.33.73.95 1.65-.19.45-1.18.79-1.47.51Zm4.71-1.06v-1.1h.55c.78 0 1.05.27 1.05 1.04 0 .81-.32 1.16-1.06 1.16h-.54zm1.17.62c.39-.49.27-1.12-.22-1.12H17v.71c0 .74.2.89.57.41Zm-4.72-.06c.29-.44.17-1-.23-1.04l-.32-.03v.65c0 .74.23.91.55.42Zm22.85-2.15c-3.66-1.29-7.53-2.82-7.83-3.09-.97-.88 1.55-2.54 6.53-4.32 3.17-1.13 4.52-1.12 8.65.07 4.9 1.41 5.15 1.52 5.15 2.31 0 .54-.87 1.16-3.47 2.46-1.41.7-1.57.75-1.67.51-.09-.26-.76-.47-1.43-.47-1.17-.01-2.19.72-2.43 1.73-.09.37-.23.58-.6.93-.65.61-.83.6-2.9-.13Zm2.39.24c.36-.18.81-.71.81-.94 0-.33.51-1.2.87-1.47 1.04-.79 2.46-.85 3.44-.13.17.13 3.35-1.42 4.21-2.06 1.34-.99.54-1.42-6.02-3.18-3.43-.92-6.97-.17-11.83 2.52-2.03 1.13-2.12 1.56-.49 2.24 2.08.88 8.33 3.17 8.65 3.17.04 0 .21-.07.36-.15Zm1.71-1.09c0-.88 2.35-1.67 2.65-.88.08.22.02.26-1.18.71-1.26.48-1.47.51-1.47.17Zm1.41-.42c1.04-.39 1.2-.6.38-.51-.65.08-1.49.52-1.49.79 0 .12.05.11 1.11-.28Zm-21.79-.57c-.5-.16-1.28-.91-1.47-1.41-.24-.63-.18-4.76.07-5.23.78-1.42 2.94-1.09 3.84.57.23.43.34 4 .14 4.79-.29 1.17-1.33 1.68-2.58 1.28ZM6.93 23c-.03-.11-.13-.2-.23-.2-.22 0-.33-2.08-.28-5.15l.03-1.9h.65c.6 0 .65.02.68.22.02.15.13.25.28.29l.24.06v6.88h-.66c-.57 0-.67-.03-.71-.2Zm2.47 0c0-.14-.07-.2-.24-.2-.35 0-.36-.11-.36-3.62 0-3.73-.05-3.48.72-3.48.57 0 .6.01.71.3.06.16.2.3.3.32.14.02.28.26.51.88l.31.85.05-1.15.05-1.15.39-.03c.61-.05.86.04.86.33 0 .18.05.25.19.25.3 0 .31.13.31 3.61v3.29h-.65c-.55 0-.65-.03-.65-.18 0-.09-.1-.22-.21-.27-.15-.07-.35-.42-.63-1.15l-.41-1.05-.03 1.33-.03 1.32H10c-.53 0-.6-.02-.6-.2Zm4.7.01c0-.13-.08-.21-.22-.23l-.23-.03v-7l1.59-.03c1.65-.03 1.86.02 1.86.39 0 .12.07.19.2.19.18 0 .2.07.2.6v.6h-2.01l.03.53.03.52H16c.37 0 .47.04.55.23.05.12.18.25.27.28.14.04.18.17.18.6v.54h-1.5v3h-.7c-.62 0-.7-.02-.7-.19Zm6.61-.54c.66-.44.7-.64.67-3.24-.03-2.16-.04-2.33-.24-2.59-.76-1.03-2.35-.98-2.9.08-.25.48-.2 4.83.06 5.26.42.68 1.73.95 2.41.49ZM7.6 19.3V16h-.9v6.49l.23.04c.12.02.32.05.45.06l.22.01zm2.38 1.27c.01-1.08.06-1.97.11-1.97.04 0 .41.87.83 1.93l.75 1.92.42.03.41.03V16h-.85l.03 1.91c.04 2.18-.03 2.34-.5 1.08-.16-.41-.49-1.25-.74-1.87L9.98 16H9.1v6.49l.28.04c.6.09.57.19.6-1.96Zm4.82.53v-1.5h1.6v-.8h-1.61l.03-.98.03-.97 1.03-.03c.89-.02 1.03-.05.98-.18-.03-.09-.06-.27-.06-.4V16h-2.9v3.24c0 3.58-.05 3.32.63 3.35l.27.01zm22.25 1.19c-1.49-.35-4.7-1.55-4.73-1.77-.1-.66.15-.65 2.49.08 1.05.33 2.17.65 2.5.72l.59.12 2.28-1.12c2.25-1.12 2.57-1.23 2.8-1 .38.38.21.5-2.39 1.82-2.6 1.3-2.71 1.34-3.54 1.15Zm3.37-1.36c2.13-1.08 2.52-1.33 2.34-1.51-.04-.03-1.13.46-2.42 1.11-1.29.64-2.42 1.17-2.53 1.17-.22 0-2.54-.67-4.05-1.17-.86-.28-1.1-.33-1.17-.22-.14.23.06.31 4.56 1.74.57.18.99.04 3.27-1.12Zm-21.21.61c-.2-.25-.21-.39-.21-2.31v-2.04l.26-.25c.29-.3.65-.27.99.07.3.29.31 4.25.01 4.58-.28.31-.79.28-1.05-.05Zm.81-.11c.28-.25.28-4.03 0-4.03-.38 0-.42.18-.42 2.06 0 2.18.03 2.32.42 1.97Zm8.18-2.32c0-.66 2.46-1.41 2.58-.79.03.13-.22.25-1.22.57-1.46.48-1.36.46-1.36.22Zm-21.9-4.7c0-.13-.08-.21-.22-.23-.36-.05-.34-.25.32-3.52.78-3.93.62-3.58 1.57-3.54.72.03.78.05.81.26.02.13.1.22.22.22.22 0 .17-.18.8 3.15.28 1.48.52 2.74.55 2.8.02.06.04-1.3.04-3.02.01-1.71.04-3.18.07-3.27.1-.25 2.24-.22 2.79.03 1.36.63 1.85 2.25 1.04 3.42-.18.26-.18.27.01.44.89.81.57 2.76-.54 3.26-.61.28-2.72.28-2.81 0s-.55-.35-.52-.07c.02.19-.04.21-.65.24-.62.03-.68.01-.68-.17 0-.13-.08-.21-.22-.23-.19-.02-.25-.12-.32-.56-.09-.5-.11-.52-.42-.52-.35 0-.37.04-.49.75-.12.76-.11.75-.76.75-.52 0-.59-.02-.59-.19Zm9.4-.01c0-.14-.07-.2-.24-.2-.13 0-.27-.07-.3-.16-.08-.21-.08-4.87.01-6.03l.06-.91 1.66.02c1.62.03 1.66.04 1.69.25.02.14.11.23.25.25.19.03.22.1.25.6l.03.58H17v1.09l.53.03c.43.02.54.07.62.26.05.12.18.22.28.22.16 0 .18.08.15.58l-.03.57-.77.03-.78.03v2.99h-.65c-.58 0-.65-.02-.65-.2Zm3.34.03a.5.5 0 0 0-.27-.28c-.29-.13-.29-.12.46-3.9l.62-3.1h.8c.73 0 .81.02.9.22.05.12.17.24.26.26.15.04.61 2.1 1.11 5.07.12.71.13.57.18-2.4l.05-3.15h.7c.65 0 .7.02.73.23.02.14.1.22.23.22.18 0 .19.1.19 2.65v2.65h.7c.67 0 .7.01.7.24 0 .17.07.25.25.28l.25.05V7.09l.68.03c.6.03.67.05.7.24.02.12.12.24.23.27.18.05.19.16.19 2.66v2.6l.68.03c.6.03.67.05.7.24.02.12.12.24.23.27.16.04.19.14.19.61v.56h-1.56c-1.45 0-1.56-.01-1.61-.19-.07-.29-.41-.34-.45-.07-.04.31-3.18.39-3.18.07 0-.28-.48-.35-.52-.07-.04.31-1.28.38-1.28.08 0-.13-.09-.22-.25-.26-.2-.05-.25-.14-.31-.56-.06-.49-.07-.5-.4-.5-.37 0-.37 0-.52.95l-.07.5-.64.03c-.54.03-.63 0-.67-.15Zm-9.28-.7c-.03-.16-.31-1.64-.63-3.3L8.56 7.4h-.63c-.35 0-.63.01-.63.03 0 .05-1.19 6-1.25 6.25-.05.2-.02.22.4.22.49 0 .45.05.62-.9l.09-.45.71-.03.71-.03.11.51c.06.28.11.59.11.7 0 .18.17.25.79.29.2.01.23-.02.17-.26Zm3.65.01c.9-.52 1.04-2.26.23-2.98l-.34-.3.29-.27c.53-.48.62-1.49.21-2.17-.29-.48-.78-.64-1.99-.66l-1.06-.01-.03 3.34-.02 3.33 1.18-.04c.94-.03 1.25-.08 1.53-.24Zm6.37-.39c.08-.33.15-.66.18-.73.02-.08.26-.12.73-.12h.69l.13.69.12.69.43.04c.32.02.44-.01.44-.1 0-.16-1.08-5.99-1.16-6.24-.04-.15-.17-.18-.67-.18h-.62l-.59 3.03c-.33 1.66-.61 3.12-.64 3.24-.03.17.01.22.24.26.54.08.58.05.72-.58Zm6.37.2v-.4l-.92-.03-.93-.03V7.4h-.9v3.23c0 1.78.02 3.26.04 3.28.03.02.65.04 1.38.04h1.33zm3.7.35c.04-.06.04-.24 0-.4l-.07-.3H28.1v-2.77c0-3.04 0-3.05-.56-3.07l-.39-.01-.03 3.27-.02 3.27.22.04c.49.09 2.47.07 2.53-.03ZM16.3 12.45v-1.44l.77-.03.78-.03.03-.37.03-.38H16.4v-2h2v-.8h-3v6.5h.9zm-4.66.62c-.02-.07-.03-.58-.02-1.13l.03-.99.42-.03c1.1-.08 1.57 1.71.57 2.17-.34.15-.93.14-1-.02Zm1.11-.41c.27-.41.17-1.1-.17-1.14l-.28-.03v.7c0 .78.15.93.45.47ZM7.3 11.59c0-.66.68-3.4.7-2.81 0 .04.09.66.2 1.37.11.72.2 1.36.2 1.43 0 .08-.18.12-.55.12-.34 0-.55-.04-.55-.11Zm12.8-.01c0-.19.29-1.85.41-2.4.1-.44.29-.66.29-.35 0 .06.09.7.2 1.41.1.72.17 1.33.14 1.38-.09.14-1.04.1-1.04-.04Zm-8.48-2.46.03-.97.49.01c.4 0 .53.05.72.28.59.68.06 1.66-.91 1.66h-.36zm1 .51c.29-.26.25-.83-.07-.83-.23 0-.25.03-.25.5 0 .54.04.59.32.33Z"/></svg>