<svg xmlns="http://www.w3.org/2000/svg" width="51" height="51" viewBox="0 0 51 51"><path fill="#fff" fill-rule="evenodd" stroke="#fff" stroke-width=".76" d="M17.55 42.7C7.18 41.51.34 32.16 2.41 21.98 4.21 13.19 13.02 7.13 21.9 8.6c.49.09.81.08 1.35-.02.91-.17 4.08-.17 5 0 .51.09.83.1 1.2.02.88-.18 3.13-.24 4.25-.11 11.54 1.33 18.48 12.82 14.21 23.52-2.76 6.9-9.83 11.34-17.04 10.69-.84-.08-1.72-.14-1.97-.13s-1.32.04-2.37.08c-1.29.05-2.28.04-3.01-.04-.78-.09-1.25-.09-1.72-.01-.92.15-3.31.2-4.25.1Zm5.2-.5c6.51-1.4 11.62-6.59 13.05-13.25.31-1.45.39-4.49.15-6C34.5 13.69 25.68 7.34 16.43 8.9 10.2 9.96 5.06 14.31 3.14 20.16 2.02 23.6 2.02 27.63 3.17 31c2.06 6.07 7.08 10.29 13.53 11.35 1.31.22 4.75.13 6.05-.15Zm6.37.01c5.97-1.29 11.01-5.95 12.67-11.73 2.06-7.14-.45-14.5-6.39-18.7-2.94-2.09-6.13-3.1-9.75-3.08-2.52 0-2.76.07-1.51.42 5.98 1.68 10.97 7.29 12 13.48 1.43 8.62-3.98 17.33-12.14 19.52l-.85.23.6.06c1.25.14 4.34.02 5.37-.2Zm5.56.14C44.6 40.61 50.87 31 48.39 21.33 46.48 13.87 39.77 8.7 32.02 8.7c-2.5 0-2.69.06-1.48.42 7.67 2.27 12.81 9.74 12.16 17.68-.58 7.11-5.13 12.94-11.82 15.15-1.29.42-1.32.44-.88.47 1.2.11 3.9.07 4.68-.07Zm-17.43-6.62c-.03-.38-.05-2.31-.03-4.3s0-3.64-.04-3.68c-.03-.04-1.99-.07-4.35-.08l-4.28-.02-.03-2.03-.02-2.02h8.8v-8.8h3.9l.02 4.38.03 4.37 4.37.03 4.38.02v3.98l-.31.06c-.17.03-2.15.06-4.4.06H21.2v8.7h-3.88zm3.77-3.9.03-4.38 4.38-.03 4.37-.02-.02-1.78-.03-1.77-4.37-.03L21 23.8V15l-1.72.02-1.73.03-.03 4.38-.02 4.37h-3.88c-2.13 0-4.11.03-4.4.06l-.52.07v3.47l4.38.02 4.37.03.03 4.38.02 4.37H21z"/></svg>