<svg xmlns="http://www.w3.org/2000/svg" width="51" height="51" viewBox="0 0 51 51"><path fill="#fff" fill-rule="evenodd" stroke="#fff" stroke-width=".8" d="M16.38 37.44c-2.49-2.45-4.71-4.67-4.92-4.92-1.17-1.4-1.21-3.02-.12-4.49.38-.51 3.8-3.95 8.24-8.27l1.42-1.4 2.25 2.25c1.24 1.23 2.25 2.28 2.25 2.34 0 .05-1.59 1.69-3.52 3.62l-3.53 3.53 3.53 3.53c1.93 1.93 3.52 3.56 3.52 3.6 0 .11-4.41 4.67-4.51 4.67-.04 0-2.12-2.01-4.61-4.46Zm6.8 1.98 2.11-2.19-3.5-3.49c-1.92-1.92-3.48-3.55-3.47-3.62.02-.07 1.56-1.68 3.43-3.59 1.87-1.9 3.42-3.5 3.44-3.55.04-.12-4.09-4.28-4.24-4.28-.06 0-2.25 2.15-4.86 4.78-5.38 5.4-5.32 5.32-5.33 6.77-.01 1.34-.06 1.29 5.33 6.62 2.62 2.6 4.81 4.72 4.87 4.73.06 0 1.06-.98 2.22-2.18Zm4.24-8.6c-1.28-1.25-2.33-2.31-2.32-2.37 0-.05 1.59-1.69 3.52-3.62l3.53-3.53-3.6-3.6-3.6-3.61 1.5-1.45c.83-.79 1.92-1.84 2.43-2.31l.93-.86 2.92 2.89c7.76 7.68 7.42 7.27 7.42 8.89 0 1.51.05 1.45-5.49 7.01-2.64 2.66-4.83 4.84-4.86 4.84s-1.1-1.03-2.38-2.28Zm7.14-2.74c5.4-5.42 5.39-5.41 5.39-6.88-.01-1.38 0-1.37-4.78-6.15-2.31-2.31-4.46-4.44-4.78-4.74l-.59-.54-.32.26c-.18.15-1.21 1.12-2.28 2.16l-1.95 1.9 3.6 3.6 3.6 3.61-3.58 3.58-3.57 3.57 2.17 2.18c1.2 1.19 2.23 2.17 2.28 2.17.06 0 2.23-2.13 4.81-4.72Z"/></svg>