<svg xmlns="http://www.w3.org/2000/svg" width="51" height="51" viewBox="0 0 51 51"><path fill="#fff" fill-rule="evenodd" stroke="#fff" stroke-width=".753" d="M12.72 24.68c-.14-.14-.17-4.25-.03-4.47.09-.14 5.44-1.5 5.93-1.51.14 0 .85.21 1.57.46l1.3.46 2.79-.71c3.07-.78 3.17-.8 3.32-.52.17.32.13 4.26-.04 4.44-.08.08-1.49.47-3.13.87l-2.98.73-1.05-.37c-1.86-.67-1.43-.68-4.56.07-3.08.74-2.95.72-3.12.55Zm2.17-.58c3.11-.76 3.78-.9 4.08-.81.15.05.72.25 1.27.45.54.2 1.11.36 1.26.36.22 0 3.61-.8 5.53-1.31l.37-.1V18.5h-.22c-.13 0-1.46.31-2.96.69l-2.73.69-1.43-.49-1.44-.49-2.88.72-2.89.73-.03 1.65c-.04 1.96.02 2.5.26 2.5.09 0 .91-.18 1.81-.4Zm-2.17-5.12c-.2-.2-.17-4.32.03-4.52.18-.18.18-.18 3.2-.91 2.82-.69 2.8-.69 4.33-.12l1.22.46 1.33-.34c1.21-.31 4.38-1.05 4.5-1.05.42 0 .59 4.13.2 4.57-.13.15-.95.39-3.11.91l-2.94.72-1.37-.45c-1.72-.56-1.46-.57-4.48.2-2.78.71-2.74.7-2.91.53Zm3.1-.85 2.67-.67 1.53.48 1.54.48 2.92-.72 2.92-.73v-2.08c0-1.65-.03-2.09-.13-2.09-.21 0-1.9.38-3.8.86-2.15.54-1.87.54-3.38-.02-1-.37-1.32-.44-1.63-.39-.48.07-3.05.67-4.46 1.04l-1.05.28-.06.79c-.08 1.17.02 3.44.15 3.44.06.01 1.31-.3 2.78-.67Z"/></svg>