<svg xmlns="http://www.w3.org/2000/svg" width="51" height="51" viewBox="0 0 51 51"><path fill="#fff" fill-rule="evenodd" stroke="#fff" stroke-width=".8" d="M22.45 40.85c-5.74-1.55-10.03-7.47-11.6-15.99l-.22-1.21-1.56.04c-1.8.04-2.03-.04-2.47-.81-.39-.67-.37-2.52.02-3.19.51-.87.3-.84 6.18-.84 6.02 0 5.72-.05 6.25 1 .26.52.3.71.3 1.4 0 1.53-.21 1.69-2.54 1.89-.95.09-1.75.17-1.77.19-.08.08.41 2.13.77 3.22 2.9 8.7 10.5 11.42 16.15 5.78 1.64-1.64 2.56-3 4.07-5.98 1.25-2.48 1.47-2.68 2.78-2.41 1.88.39 1.98 1.72.44 5.56-2.41 6-6.72 10.2-11.65 11.35-.86.2-4.42.2-5.15 0Zm5.9-.39c4.63-1.42 8.61-5.59 10.88-11.42 1.4-3.59 1.2-4.8-.84-4.92-.96-.06-1.05.05-2.4 2.69-1.36 2.68-2.23 3.94-3.78 5.5-2.28 2.29-4.04 3.11-6.66 3.13-4.26.02-8-3.24-9.85-8.61-.37-1.06-.97-3.6-.87-3.69.02-.02.84-.11 1.82-.19 1.25-.1 1.86-.2 2.03-.31.84-.55.59-2.83-.38-3.39-.5-.29-10.44-.32-10.97-.03-1.16.64-1.16 3.54 0 4.15.27.13.56.15 1.89.1l1.57-.06.06.37c1.5 9.09 5.72 15.25 11.57 16.87 1 .27 4.81.15 5.93-.19Zm12.08-23.5c-3.14-1.03-3.36-5.16-.35-6.54 2.74-1.25 5.79 1.86 4.51 4.59-.74 1.58-2.61 2.46-4.16 1.95Zm2.29-.33c2.33-1.04 2.63-4.26.54-5.7-2.03-1.4-4.86-.06-5.12 2.43-.25 2.4 2.34 4.26 4.58 3.27Z"/></svg>