<svg xmlns="http://www.w3.org/2000/svg" width="51" height="51" viewBox="0 0 51 51"><path fill="#fff" fill-rule="evenodd" stroke="#fff" stroke-width=".668" d="M23.4 44.39c-3.37-.38-7.07-1.92-9.54-3.97l-.5-.41-.01-.66c-.02-.73.1-.84.75-.72.33.07.55-.56.43-1.26-.05-.32-.01-.4.36-.76.22-.22.41-.47.41-.55 0-.28-.22-.63-.5-.8-.16-.09-.39-.3-.51-.47-.23-.33-.88-.78-1.28-.89-.16-.04-.36-.24-.51-.51-.24-.39-.31-.45-.71-.49-.7-.09-.83-.27-.58-.83.19-.42-.15-1.3-.76-1.97-.63-.69-.74-.88-1.11-2.02-.27-.83-.3-.88-.56-.88-.23 0-.3-.05-.34-.29-.04-.18-.11-.28-.19-.25-.18.07-.35-.19-.43-.67-.04-.24-.1-.42-.12-.4-.03.02-.15-.01-.27-.08l-.23-.12v1.71c0 .93-.04 1.7-.09 1.7-.38 0-.25-5.85.18-7.74.4-1.71.95-1.25 1.2.98.06.55.18 1.07.25 1.15.08.09.17.26.2.38.04.11.13.27.21.33.17.14.2.7.05.7-.06 0-.15-.1-.2-.22-.06-.13-.14-.3-.19-.38s-.12-.23-.15-.33c-.03-.09-.19-.2-.37-.24-.39-.08-.47-.27-.25-.67.19-.35.14-1.35-.09-2.03l-.12-.36-.11.34c-.24.74-.44 2.2-.46 3.24l-.01 1.1.25.03c.38.06.58.3.66.79.04.25.1.4.14.33.1-.16.4.15.4.41 0 .13.07.19.23.19.28 0 .42.22.62.99.25.97.5 1.46 1.08 2.09.67.73 1.06 1.72.88 2.23-.14.41-.08.49.39.49.39 0 .8.34.94.77.03.1.27.27.53.37.28.12.69.42.98.71.27.29.61.57.73.64.59.31.63 1.24.07 1.66-.31.24-.33.29-.33.9 0 .36-.06.81-.12 1.01l-.12.36-.48-.07-.47-.06.04.53c.06.62.15.72 1.63 1.72 3.03 2.06 6.23 3 10.2 3.01 10.16.01 17.94-7.29 18.72-17.57.1-1.27.09-1.5-.03-1.65-.09-.1-.28-.49-.44-.88-.53-1.32-.84-1.85-1.05-1.85-.11 0-.2-.04-.2-.08 0-.2-.64-.32-.74-.14-.05.09-.28.35-.51.56l-.43.39.41.21.42.21-.02.71c-.03 1.15-.71 2.7-1.74 4-.63.8-.44.84.39.08.75-.68.86-.64.77.25-.17 1.67-.44 2.47-1.32 3.87-1.09 1.72-1.22 2.09-1.12 2.99.13 1.22.03 1.48-.97 2.47-.67.65-.84.88-.84 1.11 0 .2-.11.38-.35.6-.19.18-.65.63-1.02 1.01-1.5 1.52-3.92 2.47-4.14 1.62-.05-.16-.17-.38-.28-.5-.12-.12-.24-.37-.27-.56-.04-.19-.17-.54-.3-.77-.35-.61-.26-1.42.21-1.89.21-.21.23-.3.18-.73-.09-.77-.09-.77-1.14-.43-9.71 3.19-18.75-5.45-15.94-15.23.71-2.46 2.68-5.17 4.82-6.63.62-.42.75-.74.37-.89-.34-.13.31-1.75.83-2.11.14-.09.4-.32.57-.51s.48-.52.69-.72c.39-.4.44-.53.26-.65-.06-.03-.08-.15-.06-.25.05-.18.01-.19-.31-.13-.5.09-.81.34-.82.63 0 .15-.16.39-.41.63-.22.21-.45.52-.51.68-.09.28-.5.51-.65.37-.03-.04-.13.02-.22.12-.09.11-.33.22-.55.26l-.38.06.06-.38c.04-.21.07-.49.09-.63.01-.18.09-.26.26-.28.23-.04 1.41-.77 1.41-.88 0-.02-.18.05-.4.16-.43.22-.7.26-.7.1 0-.15.38-.5.54-.5.07 0 .2-.07.27-.17.13-.15.11-.16-.23-.09-.43.08-.54-.04-.36-.36.07-.13.11-.29.09-.36-.05-.26.42-.62 1.66-1.26.13-.06.23-.14.23-.18 0-.14.63-.4 1.54-.64.67-.18.78-.23.41-.19-4.82.58-9.73 3.97-12.64 8.72l-.63 1.03.16.47c.09.25.16.63.16.82v.36l.21-.32c.22-.34.46-.42.67-.21.1.09.16.08.3-.05.16-.17.16-.19-.01-.28-.2-.12-.14-.29.11-.29.1 0 .23-.09.3-.21.1-.16.2-.2.41-.16.2.04.3.01.39-.14.08-.12.23-.19.45-.19.17 0 .51-.02.73-.06.26-.04.44-.02.48.05.04.06.18.11.31.11s.25.05.27.12c.06.17.28 0 .28-.23 0-.1.07-.19.15-.19.21 0 .19.43-.03.63-.1.09-.32.15-.52.14-.19-.01-.45.02-.57.06-.16.06-.27.03-.41-.11-.17-.17-.22-.18-.46-.05-.14.08-.3.11-.35.08-.05-.02-.22.02-.37.1-.16.08-.34.15-.41.15-.06 0-.25.19-.4.43-.25.36-.34.42-.63.42-.53-.01-1.07.72-1.19 1.59-.03.22-.12.41-.18.44-.18.05-.17-.55.02-1.08.15-.43.2-1.27.09-1.68-.06-.21-.08-.22-.24-.07-.87.79.74-2.17 2.15-3.96 2.86-3.62 7.72-6.42 11.73-6.75 1.18-.1 1.28.3.15.56-1.39.3-2.21.62-1.85.72.17.05.32.13.32.19 0 .07.12.08.3.04.19-.04.3-.03.3.04 0 .06.07.11.16.11s.18.09.21.19c.03.13.17.22.42.26.46.08 1.01.4 1.01.59 0 .17.21.26.6.26.19 0 .42.12.66.34l.37.34-.28.26c-.15.14-.32.26-.36.26-.05 0-.09.11-.09.24s-.17.43-.38.67c-.22.24-.42.56-.46.71-.03.16-.12.28-.2.28-.07 0-.19.07-.26.15-.07.09-.29.15-.51.15-.23 0-.6.11-.88.25-.33.18-.57.24-.73.2-.2-.05-.38.04-.89.46-.91.74-.91.75-.14.36 1.9-.94 3.7-1.31 5.97-1.25 1.71.05 1.88.02 1.88-.33 0-.1.1-.21.22-.25.12-.03.28-.13.36-.2.15-.16.29-.16 1.27-.05.77.09 1.24-.05 1.21-.35 0-.11.07-.18.22-.19.52-.04.43-.22-.15-.29-.63-.08-.72-.15-1.17-.99-.25-.49-.21-.82.08-.58.09.08.16.22.16.33 0 .42.91 1.03 1.37.92.25-.07.25-.07-.18-.45-.4-.35-.42-.4-.27-.52s.11-.19-.44-.68c-.7-.63-.94-.74-1.26-.6-.3.14-.69.14-.78 0-.09-.15.13-.27.63-.35.23-.03.41-.11.4-.17s.11-.13.27-.16c.27-.06.27-.07.1-.22-.36-.31-.63-.39-1.28-.36-.71.02-.99-.11-.77-.37.19-.23-.47-.39-1.94-.45-1.33-.06-1.77-.23-.75-.29 2.52-.16 5.96.54 8.45 1.72 6.83 3.24 10.78 9.58 10.8 17.31.02 11.28-9.79 20.01-21.05 18.74Zm9.37-2.54c.97-.33 1.63-.77 2.5-1.68.38-.39.82-.8.96-.9.15-.1.27-.27.27-.38 0-.34.26-.71.99-1.44.85-.83.94-1.07.8-2.16l-.1-.78.37-.73c.2-.4.63-1.17.96-1.7.72-1.18.93-1.71 1.13-2.84.21-1.22.22-1.21-.45-.65-.69.58-.97.57-1.19-.05-.07-.19-.19-.34-.28-.34s-.33-.18-.54-.41l-.38-.41-.06.39c-.53 3.28-3.14 6.93-6.19 8.63l-.58.33.06.51c.04.28.1.61.13.73.03.15-.03.29-.21.46-.51.48-.6 1.16-.21 1.73.14.2.25.51.25.69 0 .2.08.39.24.54.13.13.27.34.3.47.08.31.28.31 1.23-.01Zm5.54-3.29c-.14-.16-.06-.56.2-1.01.09-.16.22-.48.28-.7.14-.47 1.51-2.02 1.7-1.91.29.18.08.8-.75 2.18-.78 1.31-1.19 1.73-1.43 1.44Zm1.4-1.98c.54-.96.78-1.59.37-.96-.09.13-.34.42-.57.66-.22.23-.41.49-.41.57 0 .09-.09.34-.2.56-.74 1.44-.11.8.81-.83Zm-12.26.87c3.39-.55 6-2.16 7.97-4.91 4.42-6.18 2.03-14.99-4.9-18.05-7.87-3.47-16.69 2.01-16.99 10.56-.27 7.69 6.39 13.62 13.92 12.4Zm-4.05-2.04c-7.29-1.61-10.41-10.43-5.72-16.21 4.61-5.7 13.46-4.85 16.88 1.63 2.98 5.66-.15 12.84-6.31 14.48-1.16.31-3.66.36-4.85.1Zm3.57-.12c.78-.11 2.6-.63 2.77-.8.22-.2-.25-.49-.79-.49-.45 0-.55-.04-.69-.25-.21-.32-.42-.32-1.47.03-.65.22-.93.27-1.24.21-.26-.05-.61-.02-1.03.09-.59.15-.64.15-.96-.02-.61-.32-1.37-1.08-1.57-1.54-.11-.25-.4-.65-.65-.89-.33-.33-.43-.5-.39-.64a.4.4 0 0 0-.05-.34c-.1-.11-.07-.24.1-.61.19-.39.22-.57.17-1.17-.06-.82.44-2.08.91-2.3.12-.06.29-.24.38-.41.17-.32.32-1.86.19-1.86-.05 0-.78.25-1.63.56-.97.36-1.56.53-1.61.46-.03-.05-.05-.68-.03-1.4l.03-1.29 2.32-.84c1.28-.45 2.72-.97 3.22-1.15 1.05-.37 1.07-.41.6-.88-.4-.41-.43-.86-.04-.66.25.14.39.05.32-.19-.03-.14.02-.2.22-.25.21-.05.24-.1.15-.21-.08-.1-.08-.15 0-.2s.06-.11-.06-.2c-.1-.07-.15-.19-.11-.28.04-.1-.03-.23-.2-.35-.19-.14-.26-.27-.25-.51 0-.24-.04-.31-.18-.31-.22 0-.39.22-.21.28.22.07.31.5.21.99-.07.31-.07.49 0 .58.06.07.08.2.04.29-.14.37-.61.03-.49-.35.06-.19.05-.21-.11-.14-.11.04-.34.1-.53.13l-.34.05.06-.39c.08-.51.37-.88.73-.94.16-.03.27-.1.25-.15-.02-.06-.06-.16-.08-.22-.09-.22.04-.4.33-.46.39-.07.64.12.64.49 0 .23.07.36.25.48.14.09.25.22.25.29.01.18.42.64.47.52.27-.67.39-.8.72-.77l.33.02-.31-.31c-.17-.17-.31-.37-.31-.45s-.05-.14-.1-.14c-.06 0-.18-.16-.27-.34-.2-.42-.73-.53-2.01-.41-3.02.28-5.9 1.94-7.52 4.34-4.75 7.05 1.14 16.47 9.57 15.3Zm4.49-1.83c2.62-1.96 4.25-5.5 3.98-8.61-.1-1.12-.21-1.25-.72-.89-.21.14-1.88.14-2.12-.01-.17-.1-.44.24-.44.56l-.01.34-.59-.03c-.4-.02-.68-.1-.84-.23-.16-.12-.4-.19-.68-.19h-.44l-.02 2.46-.03 2.46-1.75.63c-.96.34-2.49.9-3.39 1.24-.91.33-1.66.59-1.68.58-.02-.02-.04-1.21-.06-2.64-.02-2.18-.04-2.57-.15-2.42-.07.11-.19.19-.27.19-.36 0-.84 1.21-.78 1.96.04.57.02.79-.15 1.17-.12.27-.17.49-.11.52.05.04.09.19.09.34 0 .18.14.42.44.75.25.26.48.6.51.76.07.3.89 1.13 1.38 1.39.23.12.36.13.75.02.27-.06.77-.11 1.13-.1.42.01.83-.05 1.2-.19 1.03-.37 1.35-.38 1.67-.05.25.24.35.28.73.25s.48 0 .73.27l.29.3.36-.19c.2-.1.64-.39.97-.64Zm-7.15-2.52c.68-.26 2.1-.77 3.14-1.14l1.9-.68.03-4.87.02-4.87-.22.05c-.13.04-2.33.81-4.9 1.73l-4.68 1.67v2.26l.83-.3c1.29-.49 2.19-.79 2.34-.79.11 0 .13.7.13 3.7 0 2.04.04 3.7.08 3.7s.64-.21 1.33-.46Zm15.81-3.69c.72-1.06 1.14-2.11 1.21-3l.05-.71-.39-.17c-.49-.21-.44-.22-.59.13-.07.16-.21.32-.32.36-.19.06-.24.02-1.19-.88-.32-.3-.36-.5-.14-.68.17-.14.28-.1.91.3.32.21.64.18.64-.05 0-.2.19-.28.35-.15.18.15.6-.12.8-.5.24-.46.42-.56.65-.35.18.16.23.17.45.05.14-.07.26-.11.28-.09.19.24.58.99.89 1.73l.39.91-.06-.7c-.09-1.06-.51-3.03-.92-4.28-1.95-6.07-7.6-10.87-14.16-12.03-.32-.05-.36-.04-.31.1.04.1.18.16.36.16.43 0 1.15.36 1.35.68.1.15.24.32.32.38.09.07.12.18.07.29-.06.16-.08.17-.24.01-.1-.09-.32-.16-.48-.16h-.29l.26.18c.76.5 1.15.78 1.24.89.06.06.29.16.51.22.41.11.63.34.44.46-.18.11-.1.26.09.2.24-.07.81.47.81.76 0 .25-.15.24-.33-.01-.14-.2-.15-.2-.46-.03-.17.1-.31.21-.31.25s-.14.23-.3.42c-.19.21-.28.4-.24.5.03.09-.01.28-.11.42a.7.7 0 0 0-.1.55c.09.41-.12.46-.74.15-.62-.32-.67-.51-.11-.42.3.05.4.03.4-.07 0-.16-.82-.37-1.3-.33-.19.02-.38-.02-.42-.08-.09-.14-.75.2-.89.47-.14.25-.11.27.83.54 5.04 1.46 8.63 5.98 8.85 11.17l.06 1.28.43.43c.45.45.84 1.12.84 1.43 0 .52.16.39.92-.73Zm-8.27-2.88c-.15-.59.77-.85 2.25-.61.28.04.4.01.55-.15.1-.12.26-.21.37-.21.22 0 .22-.1-.01-.75-.16-.43-.21-.5-.42-.47-.13.02-.44.06-.69.08l-.45.06-.35-.61c-.18-.34-.37-.61-.42-.61-.16 0-.3.41-.18.55.2.24-.06.97-.33.93-.13-.02-.23-.12-.27-.28-.05-.22-.61-.7-.81-.7-.05 0-.13.18-.19.4-.12.46-.36.53-.5.15-.05-.14-.14-.25-.2-.25-.05 0-.1-.07-.1-.16 0-.13.07-.15.33-.1.36.06.23-.04-.38-.3l-.35-.14v1.32l.35-.06c.31-.06.35-.04.41.19.08.32.01.4-.24.26-.5-.27-.62-.16-.62.53v.63l.57.07c.31.04.64.13.73.2.13.13.34.18.88.25.08 0 .1-.07.07-.22Zm2.82-2.61c.12-.12-.59-1.27-.72-1.16a.4.4 0 0 1-.34.05c-.16-.05-.2-.03-.15.09.04.09.01.23-.06.31-.09.11-.09.22 0 .49l.11.35.56-.04c.3-.02.57-.06.6-.09Zm-2.57-.15c-.15-.29-.12-.51.08-.58.09-.04.22-.14.29-.22.09-.13.14-.14.24-.03.11.1.49.18.49.09 0-.01-.09-.2-.2-.42-.21-.42-.27-1-.1-1.1.34-.21-.56-1.21-1.84-2.06-.67-.43-.78-.46-.96-.24-.07.08-.25.15-.4.15s-.33.07-.4.15-.24.15-.39.15c-1.16-.01-1.54.13-1.76.67-.09.22-.21.33-.34.33-.14 0-.21.07-.21.19 0 .11-.17.34-.39.53-.38.33-.38.33-.22.62.21.37.02.39 1.88-.24 1.77-.6 1.7-.6 1.81-.03.1.54.42.91.96 1.09.28.1.51.25.59.39.11.22.72.72.9.74.04.01.03-.08-.03-.18Zm5.46-1.73c-.08-.13-.17-.33-.21-.46-.03-.12-.31-.4-.61-.62-.57-.43-.7-.69-.6-1.24.14-.76.65-.79.75-.04.06.4.1.45.59.71.28.16.52.35.52.43 0 .09.16.35.36.59.3.37.34.47.24.64-.16.31-.84.29-1.04-.01Zm.74-.13c0-.18-.87-1.15-1.22-1.36-.38-.22-.44-.3-.48-.7l-.05-.44-.08.36c-.1.5-.04.62.59 1.03.35.24.54.43.54.56 0 .24.34.6.55.6.08 0 .15-.02.15-.05Zm-23.14-2.53c-.08-.16-.22-.32-.31-.35-.26-.11-.17-.25.3-.46.52-.23.59-.36.14-.27-.38.07-.69-.08-.69-.34 0-.23-.03-.24-.28-.11-.16.09-1 .28-1.47.33-.39.05-.21-.26.2-.35.22-.04.54-.11.7-.14.17-.03.4-.13.53-.21.24-.16.62.05.62.33 0 .17.33.25.54.13.1-.05.24-.07.33-.04.16.06.43-.09.43-.25 0-.04-.09-.11-.2-.14-.26-.08-.26-.22.01-.3.16-.05.19-.12.14-.32-.04-.19.02-.33.27-.61.31-.36.31-.37.1-.4-.3-.05-.29-.39.04-1.05l.26-.52-.24.23c-.13.12-.33.22-.44.22-.12 0-.26.11-.34.25-.13.24-.65.55-.93.55-.08 0-.31.16-.5.35-.6.6-.79.38-.27-.33.17-.23.35-.42.4-.42.06 0 .1-.09.1-.2 0-.34.59-1.37.93-1.63.52-.4 1.77-.65 1.77-.35 0 .06.09.03.2-.07.36-.33.58 0 .24.36-.67.7-1.55.85-1.06.19.25-.33.25-.34-.38-.19-.47.11-1 .52-1 .78 0 .09-.09.27-.2.41-.2.26-.26.65-.11.74.12.08.58-.3.66-.54.04-.11.15-.2.26-.2s.33-.09.48-.21c.68-.5 1-.05.52.73-.37.6-.37.55-.01.5.17-.02.3-.01.3.02 0 .15-.39.82-.58.99-.17.15-.19.24-.11.5.15.53.11.66-.41 1.21-.34.36-.46.56-.39.63.15.15-.03.77-.24.81-.09.02-.22-.08-.31-.26Zm14.15-.33c.16-.16.23-.18.34-.09.08.07.19.08.26.04.08-.04 0-.13-.22-.25-.19-.09-.38-.15-.43-.12-.05.04-.14-.01-.2-.09-.1-.13-.67-.38-.87-.38-.04 0 .04.18.18.4.21.31.31.39.46.34.16-.05.19-.03.14.15-.07.27.07.27.34 0Zm-9.06-3.27c.15-.15.4-.25.76-.29.3-.03.64-.12.75-.2.12-.07.46-.16.75-.2.46-.05.5-.08.31-.16-.33-.15-.2-.32.22-.29.35.03.36.02.3-.23-.05-.19-.02-.25.09-.25.18 0 .62-.4.63-.58.01-.07.02-.21.03-.32 0-.12.12-.25.27-.3.18-.07.24-.15.2-.26a1.1 1.1 0 0 1-.06-.3c0-.1-.13-.14-.44-.14-.25 0-.48-.04-.51-.1-.03-.05-.24-.1-.45-.1s-.42.05-.45.1-.17.1-.3.1c-.44 0-.72.19-.67.46.03.18-.05.33-.32.6-.2.2-.36.41-.36.48 0 .16-.47.6-.85.79-.17.08-.44.39-.62.69-.44.75-.47.91-.2 1.04.23.11.29.07.92-.54Zm-1.67-1.73c.09-.01.2-.01.24 0 .04 0 .1-.09.13-.22.03-.12.22-.33.4-.46.44-.3.51-1.21.09-1.21-.16 0-.19.26-.04.35.33.2-.18.82-1.13 1.37-.33.19-.47.34-.47.49 0 .2.01.2.31-.05.17-.14.38-.27.47-.27Zm2.1-2.69c-.27-.07-.4-.6-.14-.6.08 0 .18-.04.21-.1.13-.21-1.32.26-1.74.56-.16.12.22.19.99.19.5 0 .81-.02.68-.05Z"/></svg>