<svg xmlns="http://www.w3.org/2000/svg" width="51" height="51" viewBox="0 0 51 51"><path fill="#fff" fill-rule="evenodd" stroke="#fff" stroke-width=".723" d="M2.58 51.05C1.44 50.63.26 49.32.04 48.22c-.04-.21-.03-.32.05-.32.06 0 .11.07.11.16 0 1.01 1.62 2.59 3.08 2.99l.47.13h-.4c-.22.01-.57-.06-.77-.13Zm45.62-.12c.86-.32 1.55-.78 1.98-1.32.34-.43.82-1.33.82-1.56 0-.08.05-.15.11-.15.08 0 .09.11.05.32-.27 1.34-1.91 2.83-3.24 2.95-.47.04-.47.03.28-.24ZM40.17 40.4c-.99-.78-4.4-6.1-5.27-8.23-1.49-3.66-.42-6.96 2.78-8.56 4.85-2.43 10.52 2.01 9.18 7.19-.43 1.64-2.59 5.44-4.76 8.35-1.15 1.54-1.37 1.69-1.93 1.25Zm1.01-.45c1.64-1.85 4.69-6.94 5.33-8.85.92-2.79-.4-5.92-3.05-7.2-5.11-2.47-10.42 2.02-8.66 7.32.64 1.9 2.26 4.71 4.36 7.55 1.28 1.73 1.46 1.83 2.02 1.18ZM21.43 36c-2.19-.39-3.2-1.54-7.49-8.58l-.21-.33-.63.91c-1.27 1.83-2.36 2.52-4.06 2.58-2.49.1-4.48-1.46-4.84-3.78-.22-1.43 0-2.01 1.9-5.15.73-1.21 1.71-2.85 2.18-3.65 1.46-2.5 2.2-3.36 3.34-3.92 1.91-.94 3.99-.71 5.66.62.53.41.92.97 3.67 5.25.55.85 1.03 1.55 1.07 1.55s.69-1.09 1.44-2.43c.76-1.33 1.67-2.94 2.04-3.57s.82-1.44 1.01-1.8c1.43-2.76 4.97-3.87 7.85-2.45 1.26.62 1.61 1.02 4.98 5.65 4.31 5.92 4.19 5.73 3.35 5.49-.8-.24-3.21-.18-4.09.09-3.19 1-4.98 3.29-5.19 6.62-.07 1.24-.13 1.27-.64.34-.72-1.29-1.41-2.44-1.47-2.44-.03.01-1.13 1.52-2.45 3.37s-2.58 3.59-2.8 3.87c-1.03 1.29-3.01 2.04-4.62 1.76Zm1.92-.35c2.22-.58 3.79-2.65 3.62-4.8-.07-.99-.35-1.64-1.36-3.16-.48-.74-1.47-2.28-2.21-3.44-.73-1.16-1.33-2.11-1.35-2.12-.01-.02-.26.41-.57.95-.31.53-1.21 2.11-2.01 3.51-1.82 3.15-1.9 3.35-1.91 4.66-.02 2.94 2.89 5.15 5.79 4.4Zm16.16-2.81c-.85-.93-.82-.75-.79-4.11l.03-2.98h1.48l-.02 1.84c-.01 1.01.01 2.31.05 2.89.09 1.4.11 1.42 1.48 1.42 1.4 0 1.36-.02 1.36.81v.69h-3.08zm3.39-.13v-.48l-1.13-.05c-1.84-.08-1.8 0-1.81-3.65l-.01-2.63h-.47c-.39 0-.48.03-.49.18-.01.09-.03 1.4-.04 2.9l-.03 2.73.45.59c.67.9.67.9 2.2.9h1.33zM29 29.75c.95-1.32 1.84-2.54 1.96-2.71l.23-.3-.51-.8c-.52-.82-2.02-3.39-2.78-4.78-.24-.43-.67-1.2-.97-1.7-.78-1.32-.95-1.83-1.02-3.05l-.06-1.04-.76 1.34c-.42.74-1.25 2.19-1.85 3.23l-1.08 1.89.2.32c.45.74 2.07 3.28 3.08 4.83 1.62 2.48 1.71 2.7 1.71 4.14 0 .64.03 1.14.06 1.1.04-.04.84-1.15 1.79-2.47Zm-11.43-.2c.11-.27.84-1.62 1.63-3 3-5.22 2.72-4.66 2.53-4.95-.1-.14-.75-1.15-1.46-2.25-.7-1.1-1.29-2-1.3-2.01s-.02.37-.02.84c-.01 1.66-.47 2.56-3.06 5.98-1.09 1.45-1.99 2.67-1.99 2.7 0 .09 1.4 2.33 2.49 3.99l.86 1.3.06-1.05c.04-.67.14-1.23.26-1.55Zm-7.72.71c1.31-.35 2.15-1.05 3.35-2.81.41-.61 1.56-2.18 2.56-3.51 2.65-3.51 2.99-4.22 2.92-5.99-.15-3.58-4.62-5.44-7.68-3.19-.71.52-1.3 1.3-2.38 3.14-.44.74-1.5 2.52-2.36 3.95-1.72 2.86-1.76 2.94-1.83 4.1-.18 2.81 2.65 5.06 5.42 4.31Zm23.5-2.64c.49-2.56 2.62-4.7 5.4-5.43.89-.23 2.86-.29 3.63-.11.23.05.42.08.42.06 0-.06-4.64-6.47-5.12-7.09-.35-.44-.39-.46-.31-.2.04.17.08.77.08 1.35 0 1.84-.12 2.06-3.69 7.22l-2.28 3.31.21.36c.12.2.47.82.79 1.37l.57 1.02.08-.57c.04-.31.14-.89.22-1.29Zm-1.03-2.52c.46-.69 1.55-2.27 2.41-3.53.87-1.25 1.7-2.53 1.86-2.85 1.14-2.26.84-4.46-.86-6.17-3.46-3.49-9.61-1.15-9.57 3.65.01 1.29.15 1.69 1.24 3.6.42.74 1.19 2.09 1.7 3 1.26 2.22 2.21 3.73 2.3 3.63.04-.04.45-.64.92-1.33ZM.01 3.05C-.01 1.89 2.09-.11 3.17.02c.25.03.22.05-.25.21C1.68.67.69 1.62.24 2.84l-.23.61zm51.05.1c-.37-1.32-1.41-2.4-2.8-2.91-.58-.22-.59-.23-.25-.23 1.23-.02 3.31 2.06 3.17 3.15l-.04.29zM9.27.03c2.48-.02 6.58-.02 9.1 0 2.52.01.49.02-4.52.02S6.78.04 9.27.03Z"/></svg>