<svg xmlns="http://www.w3.org/2000/svg" width="51" height="51" viewBox="0 0 51 51"><path fill="#fff" fill-rule="evenodd" stroke="#fff" stroke-width=".408" d="M31.41 50.72c-.01-.29.94-6.71 1.04-6.99.03-.08-.08-.08-.38.02-.23.08-3.46.93-7.17 1.9-3.71.98-7.38 1.95-8.15 2.17-1.28.36-9 1.99-9.35 1.97s.91-.32 4.05-.95c1.84-.37 3.35-.7 3.35-.73s-.53-.25-1.18-.48c-3.56-1.27-4.92-1.77-4.89-1.79.05-.05 2.61.79 4.6 1.5 1.04.38 1.9.66 1.92.64.04-.04-.31-2.49-.74-5.18-.28-1.76-.77-5.49-.83-6.35l-.03-.4-2.75-.01c-3.48-.01-4.19-.2-5.29-1.4-.97-1.06-1.16-1.88-1.05-4.51.03-.95.03-2.37-.01-3.16l-.07-1.43-2.24-1.18C1.01 23.71 0 23.14 0 23.09c0-.12.17-.05 2.15 1.01.99.52 1.92 1 2.06 1.07l.27.12.04-1.02c.07-1.48.25-1.87 1.9-4.05.76-1.01 1.31-1.81 1.21-1.78-.3.09-7.48 1.86-7.55 1.86-.56 0 .6-.34 3.86-1.14 2.16-.53 4-1.02 4.09-1.09.08-.07.52-.58.96-1.14 1.4-1.78 1.6-1.85 5.07-1.91 2.46-.04 2.65-.03 3.07.16.45.2.87.76.87 1.17 0 .19-.23.22 1.86-.3.98-.25 1.85-.45 1.92-.45.72 0 1.12-.38 2.4-2.34 1.68-2.58 2.98-4.44 4.66-6.7 1.28-1.73 1.51-2.11 2.56-4.2.63-1.27 1.2-2.32 1.26-2.33.06-.02-.42 1.03-1.07 2.34s-1.16 2.39-1.14 2.41c.04.05.91-.87 2.94-3.11.84-.93 1.56-1.66 1.59-1.63.03.04-.06.19-.19.34-.14.15-.87.97-1.64 1.82-1.87 2.09-2.88 3.12-2.95 3-.12-.2-5.8 7.83-6.82 9.65-.04.07 1.04.1 3.15.1 3.74 0 3.73 0 4.7 1.05 1.4 1.51 1.57 3.55.35 4.3-.73.44-1.15.19-1.77-1.02-.23-.46-.56-.96-.73-1.11l-.3-.29-2.28.04c-1.26.02-2.31.06-2.35.1-.07.06-.03.2.68 2.19.66 1.85.56 1.73 2.71 3.33 2.96 2.21 3.62 2.93 4.07 4.44.15.53-.05.57 2.11-.48l1.85-.91.22-.77c1.24-4.32 2.86-9.73 3.01-10.03.46-.89 1.38-1.08 2.09-.44.45.41.65.96 1.72 4.72.52 1.85.66 2.23.81 2.23.3 0 .58-.36.58-.75 0-.48.21-1.87.31-2.05.05-.09.06-.02.04.2-.16 1.17-.25 2.73-.25 4.03v1.5l.99 3.51c1.6 5.64 1.67 5.92 1.52 6.29-.06.18-.13.36-.14.4-.01.05.45.26 1.03.47.58.2 1.03.41 1 .46-.04.09-3.55 1.68-10.85 4.93-4.8 2.14-4.94 2.21-4.99 2.4-.03.09-.28 1.62-.56 3.4s-.55 3.4-.59 3.6l-.09.36zm-6.86-5.17 7.5-1.97 4.45-1.98c2.45-1.09 5.62-2.51 7.05-3.15s3.07-1.37 3.64-1.63l1.03-.46-.88-.32c-1.02-.38-1.12-.39-1.38-.19-.28.21-1.05.19-1.42-.04-.53-.32-.66-.6-1.44-3.19l-.31-1.02h-5.54l-.52 1.63c-.8 2.49-1.5 3.19-2.63 2.6-.85-.44-.95-1.04-.45-2.7.15-.47.25-.86.23-.88-.05-.05-1.73-.55-1.84-.55-.06 0-.18.33-.26.74-.34 1.53-1.36 2.98-2.45 3.49-.44.2-.67.22-2.84.27l-2.37.05-.59.8c-.32.44-1.53 2.11-2.68 3.7s-2.77 3.85-3.61 5.01l-1.52 2.12.66-.18c.37-.1 4.05-1.06 8.17-2.15Zm-8.7 1.82c.16-.23.92-1.3 1.7-2.37.77-1.07 1.92-2.67 2.55-3.54.63-.88 1.74-2.41 2.46-3.4l1.32-1.81-.78-.06c-2.52-.2-4.48-3.51-3-5.09.63-.67 1.25-.46 2.07.7.3.41.59.74.66.73s1.05-.44 2.19-.97c1.75-.8 3.12-1.38 4.02-1.7.23-.08.17-.48-.2-1.24-.31-.63-.6-.87-4.16-3.48-3.82-2.8-4.04-3.1-4.02-5.29.02-1.76.32-2.84 1.05-3.76l.29-.37-.38.09c-3.07.73-3.72.92-3.72 1.13 0 .26-.64.83-1.05.95-.24.06-1.32.11-2.67.11h-2.27l-.74.92c-3.74 4.68-3.69 4.58-3.65 6.62l.03 1.48 1.5.8c.83.44 2.14 1.16 2.92 1.59l1.42.78.81-.06.8-.06v-.87l-1.33.07c-1.16.05-1.38.04-1.71-.12-1.08-.51-1.16-2.03-.14-2.65.43-.26 5.76-.31 5.97-.06.09.11.11 1 .09 3.33l-.03 3.18-.32.66a4.23 4.23 0 0 1-3.2 2.34c-.51.07-.51.07-.47.38l.2 1.74c.08.79.33 2.59.54 4 .22 1.42.5 3.29.62 4.15.26 1.78.23 1.72.63 1.15Zm13.21-11.64c2.37-.8 3.41-5.35 1.94-8.5-.5-1.07-1.16-1.66-5.2-4.64-3.16-2.33-3.31-2.56-2.53-4.01.49-.91.36-.87 3.21-.9l2.52-.03.27.28c.16.15.51.69.78 1.19.72 1.32 1.29 1.44 1.83.38.62-1.24-.23-3.23-1.72-4.03-.58-.31-6.13-.4-6.98-.11-1.34.44-2.09 1.83-2.24 4.14-.16 2.37-.09 2.46 4.95 6.19 1.6 1.18 2.74 2.09 2.92 2.34.96 1.32.99 3.18.09 4.61-.54.84-.61.86-3.28.86h-2.33l-.45-.42c-.24-.24-.65-.74-.91-1.13-.77-1.11-1.33-1.24-1.8-.4-.73 1.29.45 3.6 2.16 4.21.6.22 6.12.19 6.77-.03ZM15 35.49c.75-.22 1.37-.67 1.92-1.4.64-.85.68-1.14.68-4.51V26.6h-5.52l-.34.34c-.56.56-.42 1.56.28 1.92.26.14.57.16 1.77.13l1.46-.04v1.7c0 2.73.09 2.67-3.94 2.66-4.39-.01-4.14.34-4.09-5.51l.03-3.95.32-.6c.29-.55 2.17-3.03 3.65-4.82l.59-.73h2.4c2.68 0 2.94-.05 3.29-.62.34-.56.22-1.21-.29-1.55-.33-.23-4.65-.32-5.66-.13-1.19.23-1.32.35-3.81 3.55-3.23 4.16-2.96 3.28-2.92 9.26l.03 4.64.27.57c.56 1.2 1.75 2.09 3.03 2.26 1.17.17 6.12.03 6.85-.19Zm20.2.06c.47-.24.7-.69 1.29-2.49l.56-1.71 2.97-.03 2.96-.02.21.62c.11.35.34 1.1.52 1.68.53 1.76.78 2.1 1.57 2.1.54 0 1.12-.5 1.12-.96 0-.29-.33-1.53-2.2-8.09C40.89 15 41 15.3 39.95 15.3c-.61 0-.86.34-1.29 1.73-.39 1.28-1.58 5.3-2.21 7.52-.46 1.6-1.96 6.75-2.51 8.65-.47 1.6-.45 1.92.19 2.3.38.24.68.25 1.07.05Zm-6.79-2.74c.37-.4.79-1.32.79-1.75 0-.18-.09-.25-.53-.39-.78-.25-.48-.34-3.87 1.21-1.93.88-1.93.87-1.61 1.13.21.18.41.19 2.54.19h2.3zm-15.04-.19c-.04-.26-.09-.89-.13-1.39l-.07-.92-.96-.54c-1.42-.8-4.56-2.47-4.64-2.47-.04 0-.07 1.06-.07 2.35 0 3.53-.11 3.42 3.64 3.44l2.29.01zm1.28.07c.28-.28.3-.33.33-1.34l.04-1.05h-.34c-.2 0-.57.03-.83.07l-.47.06.06.76c.04.42.09 1.02.12 1.33l.06.56.37-.05c.21-.03.49-.18.66-.34Zm19.56-1.41c.68-2.29 1.26-4.38 1.19-4.36-1.37.55-3.6 1.75-3.56 1.93.04.11.09.74.13 1.41l.06 1.21.86.26c.47.14.91.26.98.26.07.01.22-.32.34-.71Zm-4.91-.99c0-.21-.04-.3-.12-.26-.07.02-.3.1-.51.18l-.38.13.33.12c.56.21.68.18.68-.17Zm.81-1.35c-.14-.32-.54-.88-.94-1.32l-.69-.77.7.72c.65.65 1.28 1.62 1.2 1.83-.02.05-.14-.16-.27-.46Zm7.75-.23c-.09-.15 1.97-7.25 2.14-7.36.15-.09.24.18.98 2.8.87 3.08 1.12 4.06 1.12 4.39v.26h-2.09c-1.16 0-2.12-.04-2.15-.09Zm3.94-.33c0-.07-.15-.69-.34-1.38-.7-2.64-.79-2.9-.94-2.9-.12 0-1.13.51-1.3.65-.01.01-.26.86-.55 1.88l-.53 1.87h1.83c1.4 0 1.83-.03 1.83-.12ZM40 24.1l.59-.3-.2-.67c-.11-.38-.22-.79-.26-.92-.08-.31-.14-.18-.47.95-.14.5-.28.99-.32 1.08-.08.22-.03.21.66-.14Zm3.9-.8v-1l-.25.12c-.3.14-.3.12-.03 1.09.27 1 .28.99.28-.21Zm-18.66-1.62c-.04-.07-.35-.9-.69-1.85l-.61-1.73-.23.3c-.17.24-.19.34-.11.49.05.11.28.68.5 1.28.3.83.47 1.14.72 1.35.35.29.54.36.42.16Zm-1.43-1.79c-.42-1.12-.56-1.16-.56-.16 0 .44.04.52.43.89.58.54.59.47.13-.73ZM45.75 7.6c.04-.25.25-1.39.46-2.54.22-1.15.38-2.12.37-2.17-.04-.09-1.98.68-6.46 2.58-.19.08-.31.1-.28.05.08-.14 2.3-1.13 4.54-2.03 1.67-.67 1.91-.79 1.73-.88-.23-.13-2.33-.95-4.66-1.83C39.98.23 39.49 0 39.77 0c.14 0 2.88 1.02 5.11 1.9l1.84.73 2.19-.68c1.21-.38 2.22-.65 2.26-.62.07.08.19.04-2.25.81-1.12.35-2.04.65-2.06.67-.01.02-.26 1.19-.55 2.59-.49 2.33-.74 3.32-.56 2.2Z"/></svg>