<svg xmlns="http://www.w3.org/2000/svg" width="51" height="51" viewBox="0 0 51 51"><path fill="#fff" fill-rule="evenodd" stroke="#fff" stroke-width=".54" d="M31.85 46.9c-2.56-.05-2.61-.05-3.18-.32-1.1-.52-1.96-1.55-2.31-2.79-.29-.99-.19-13.24.11-13.97a4.2 4.2 0 0 1 2.62-2.43c.88-.27 13.21-.3 14.12-.03 1.13.34 2.03 1.17 2.51 2.34.27.66.42 12.84.18 14-.38 1.79-1.78 3.01-3.68 3.21-.9.09-5.86.09-10.37-.01Zm-25.02-.21c-.72-.28-1.35-.99-1.57-1.77-.27-.99-.24-15.29.04-16.04.23-.61.82-1.24 1.5-1.59l.45-.24 7.7.03 7.7.02.52.26c.61.3 1.07.79 1.4 1.5l.24.52-.03 7.69c-.03 8.67.02 8.13-.83 8.98s-.31.8-8.95.82c-7.45.02-7.66.02-8.17-.18Zm36.49-.27c.81-.33 1.6-1.08 2-1.9l.33-.67v-13.7l-.27-.57c-.54-1.16-1.53-1.89-2.81-2.09-1.48-.23-12.94-.07-13.6.19-1.11.45-1.98 1.37-2.34 2.47-.2.64-.33 12.08-.14 13.1.31 1.69 1.54 3.04 3.05 3.35.22.04 3.29.07 6.81.07l6.4-.02zm-20.36-.06c.78-.36.77-.46-.08-.46-.41 0-.78.04-.83.09-.11.1-14.28.18-14.55.08-.08-.03-.42-.08-.74-.11l-.59-.05.2.2c.48.48.49.48 8.53.48l7.55.01zm6.54-.49c-.96-.27-1.72-.97-2.12-1.96-.26-.63-.41-11.55-.19-12.99.17-1.12.79-1.98 1.76-2.5l.5-.27 6.54-.03c7.4-.03 7.12-.06 8 .74.29.26.62.69.78 1.02l.28.57.03 6.05c.04 7.97-.03 8.32-1.76 9.17l-.57.28-6.4.02c-4.85.02-6.51-.01-6.85-.1Zm-7.7-.22v-.25h-7c-6.72 0-7 .01-7 .18 0 .1.03.22.07.25.03.04 3.18.07 7 .07h6.93zm21.5-.27c.6-.35.94-.72 1.22-1.33l.23-.5.03-6.3c.02-4.26 0-6.46-.08-6.8-.15-.72-.72-1.43-1.45-1.8l-.59-.3-6.19-.03c-7.52-.03-7.66-.01-8.55 1.34-.52.78-.54.97-.5 7.64l.03 6.15.26.55c.32.69.79 1.16 1.44 1.47l.5.23 6.6-.02 6.6-.03zm-21.56-.89c.04-.23.05-.43.04-.44-.02-.01-3.32-.05-7.34-.09l-7.32-.06-.06.22c-.21.82-.94.74 7.6.76l7.01.02zm2.54-.01c-.06-.37 0-.61.12-.53.1.06.23-.42.15-.55-.04-.06-.3-.1-.58-.1h-.52l-.02.34c-.02.19.02.38.07.41.06.03.1-.03.1-.14 0-.12.07-.21.15-.21.11 0 .15.12.15.48 0 .52.05.62.28.62.11 0 .13-.08.1-.32Zm-18.06-.55c-.05-.75-.12-.84-.57-.81-.28.03-.3.06-.33.5-.03.52.08.62.26.23.2-.44.46-.33.27.11-.22.53-.19.64.14.64h.29zM21.37 43l.1-.5h-6.31c-3.47 0-6.61.03-6.98.07l-.68.06v.76l1.58.04c.86.01 3.96.04 6.88.05l5.31.02zm-14.43-.06c.09-.69.08-.84-.09-.84-.41 0 .06-.49.77-.81l.27-.12.03-1.51.03-1.51.63-.03.62-.03-.01-.57c0-.31-.03-.51-.06-.43-.04.1-.07.11-.13.01-.06-.09-.11-.07-.19.09-.3.54-.47.05-.26-.75.1-.38.12-.61.05-.68-.06-.06-.1-.37-.1-.7 0-.56-.01-.58-.15-.4-.42.52-.13-1.28.3-1.91.22-.32.52-.77.68-1 .23-.36.35-.45.86-.59l.6-.17.4-.84c.94-1.93 2.33-2.68 4.7-2.51 2.23.16 3.88.99 4.57 2.3.23.44.37.59.76.77.29.13.57.37.72.59.14.22.47.48.83.68.71.38.75.41.96 1.11.25.79.17 1.18-.21 1.03-.11-.04-.14-.01-.1.1.04.09.03.19-.02.24-.1.1.82 2.4 1.05 2.63.13.14.15-.28.15-3.6 0-4.44-.01-4.52-.85-5.35-.87-.88-.46-.84-9.05-.81l-7.45.02-.53.29c-.55.31-.92.72-1.2 1.34-.15.33-.17 1.02-.2 7.1l-.03 6.72h.51c.27 0 .5-.04.5-.1 0-.14.2-.12.24.03.03.06.07.24.1.39.09.42.23.34.3-.18Zm17.66-2.55v-2.61l-.32-.36c-.43-.5-1.45-2.74-1.46-3.22 0-.08-.04-.25-.07-.37-.05-.17-.03-.23.08-.23.23 0 .09-.4-.19-.5-.29-.11-.52-.5-.3-.5.08 0 .17.08.2.17.03.1.2.26.37.35.16.1.28.22.24.27-.03.06.04.15.15.21.19.1.2.09.11-.07-.05-.1-.18-.37-.28-.6-.12-.28-.32-.51-.62-.69-.23-.16-.59-.46-.78-.69-.31-.36-.67-.64-.85-.65-.09 0 .01.6.12.75.04.06.08.21.08.35.01.46.3 1.6.5 1.93.1.18.18.4.16.5-.01.09.01.17.05.17s.22.13.39.29l.32.28-.13.53c-.09.36-.23.61-.42.76l-.28.22.29.04.29.03.08 1.38c.09 1.52.08 1.56-.47 1.84-.65.33-.67.82-.03.84.95.03.97.05 1.02.87.02.4 0 .86-.05 1.02l-.09.3h1.89zm-3.31 1.65.62-.07-.03-.41c-.05-.62-.67-.7-.7-.09l-.01.38-.04-.36-.04-.36-.86-.07c-.48-.04-3.4-.04-6.5 0l-5.63.07v.77l1.33.01c.72 0 1.41.04 1.52.09.23.1 9.42.13 10.34.04Zm14.31-1.32-.3-.3V37.9h-1.2c-1.59 0-1.9-.15-1.9-.91 0-.65.32-.79 1.8-.79h1.3V35c0-1.56.15-1.9.85-1.9.62 0 .8.37.82 1.72.01.67.02 1.26.03 1.3 0 .05.56.08 1.24.08 1.47 0 1.8.15 1.8.84s-.24.8-1.74.84c-.9.03-1.3.07-1.31.15-.01.07-.02.65-.03 1.29-.01 1.31-.1 1.51-.73 1.64-.27.05-.37.01-.63-.24Zm.92-.19c.16-.14.18-.33.18-1.43 0-1.58-.09-1.5 1.57-1.5 1.32 0 1.34 0 1.44-.24.33-.71-.19-.98-1.79-.94-1.29.03-1.22.1-1.22-1.38 0-1.44-.07-1.64-.53-1.64-.53 0-.57.11-.57 1.46 0 1.66.1 1.54-1.3 1.54-1.65 0-2.19.29-1.76.95.16.25.18.25 1.51.25h1.35l.11.28c.07.17.09.62.05 1.19-.1 1.41.32 2.04.96 1.46Zm-15.42-.2v-.23H8.4v.47l6.35-.01 6.35-.01zm-.28-.69.45-.06-.08-.42c-.05-.22-.08-.44-.09-.49 0-.04-2.7-.07-6-.07-3.3.01-6.04-.02-6.1-.05-.31-.19-.6.07-.6.56v.49l4.88.03c2.68.01 5.37.03 5.98.05.61.01 1.31-.01 1.56-.04ZM22 37.65v-.55h-1.7c-1.32 0-1.76.03-1.93.15-.27.17-1.61.16-1.94-.03-.29-.16-1.49-.15-2.06.02-.26.08-.47.12-.47.09s-.06-.01-.12.04c-.23.18-2.21.02-2.34-.18-.03-.05-.45-.09-.95-.09H9.6v.48c0 .27.03.52.07.55.03.04 2.82.07 6.2.07H22zm-9.8-1.6c.15-.96.33-1.1.25-.2-.04.39-.08.76-.11.83-.02.06.01.12.05.12.05 0 .11-.06.14-.12.03-.1.07-.1.2.01.15.12.17.11.17-.03 0-.19.16-.22.23-.04.09.27.2-.05.18-.53-.02-.44 0-.5.16-.47.15.03.18.13.17.6-.01.44.01.55.12.51.19-.07.18-1.2-.01-1.53-.08-.14-.14-.21-.15-.16-.01.34-.3-.25-.3-.62 0-1.72 2.77-1.93 3.15-.23.03.16.15.37.26.47.27.24.24.39-.05.21-.22-.15-.25-.15-.42.04-.16.18-.16.19-.01.13.09-.03.17-.02.18.02 0 .05.02.28.04.52.07.91.13.98.93 1.08.2.03.44.07.53.1.58.17.85-.35.49-.94-.15-.25-.18-.37-.1-.52.05-.1.1-.28.1-.4s.05-.2.12-.18c.24.08.47-.31.54-.94.04-.35.11-.68.16-.75.06-.08.06-.25-.02-.48-.06-.19-.09-.49-.05-.65.12-.55-.21-.36-.35.2-.42 1.76-3.18 1.76-3.71 0-.21-.68-.72-.59-.88.14-.26 1.15-1.76 1.83-2.79 1.27-.27-.14-.23.17.09.77.16.32.18.32.24.11.07-.2.08-.21.17-.05.14.24.04.8-.2 1.14-.35.5-.35 1.49 0 1.14.17-.17.28-.15.28.05 0 .34.09.05.2-.62Zm-2.65-.23c.12-.38.14-.56.06-.66-.08-.09-.05-.19.14-.36.15-.14.25-.34.24-.49 0-.26 0-.26-.11-.04-.06.13-.17.23-.25.23-.15 0-.11-.13.17-.45.31-.37.35-.64.06-.36-.31.29-.34.14-.06-.22.11-.14.27-.42.35-.61.27-.65.35-.42.28.83l-.06 1.2.24-.05c.49-.11.48-.1.33-.61-.08-.26-.13-.6-.1-.75.05-.28-.25-1.11-.5-1.36-.08-.07-.14-.24-.14-.38 0-.28-.28-.33-.36-.06-.03.09-.12.28-.2.42-.09.14-.18.32-.2.41-.03.09-.15.21-.27.26-.12.06-.33.3-.46.54s-.18.38-.1.31c.18-.16.29-.15.29.04 0 .11.06.13.19.09.27-.08.31.21.1.65-.3.59-.35.95-.14.86.13-.05.16-.02.12.11-.21.66-.21.67-.02.6.18-.08.18-.01 0 .48-.07.18-.06.18.07.05.09-.08.23-.39.33-.68Zm11.15.48c-.3-.25-.36-.26-.41-.12-.11.3-.58-.81-.71-1.65l-.12-.78-.11.67c-.12.73-.29 1.03-.45.78-.14-.23-.25.37-.11.66.06.14.11.36.11.49v.25h1.08l1.07-.01zm-4.73-.4c-.06-.25-.12-.46-.13-.48 0-.01-.18.05-.39.14-.24.1-.51.13-.72.09-.18-.03-.33-.04-.33-.01 0 .02-.03.11-.06.2-.04.11-.01.16.1.16.09 0 .16.06.16.14s.08.12.23.09c.12-.02.42.03.67.11.56.17.62.12.47-.44Zm5.93 0c0-.05-.04-.12-.1-.15-.18-.11-.11-.25.12-.25.21 0 .2-.02-.1-.3-.18-.16-.39-.3-.47-.3-.17 0-.64-.56-.8-.95-.07-.16-.16-.39-.2-.5a1 1 0 0 1-.06-.37c.01-.09-.11-.23-.3-.32l-.32-.16.07.38c.03.2.06.49.06.64 0 .19.05.28.16.28.12 0 .14.07.09.31-.05.23-.04.29.04.24.27-.16.45.04.23.26-.22.2-.3.49-.13.49.05 0 .11-.05.13-.12.02-.06.1.03.17.2.08.18.19.32.26.32.06 0 .19.08.28.18.17.18.87.28.87.12Zm-6.19-1.02c.06-.15.15-.26.19-.23.14.09.31-.23.25-.48-.28-1.11-2.24-1.1-2.52.01-.07.3.25.62.63.62.16 0 .22.04.18.15-.04.09.06.21.27.34.39.24.8.08 1-.41Zm-2.67-1.61c.62-.19.99-.92.82-1.61s-2.7-.67-2.94.04c-.41 1.15.73 1.99 2.12 1.57Zm4.76-.33c.67-.27 1.05-1.39.62-1.82-.65-.65-3.02-.24-3.02.52 0 1.24 1.09 1.82 2.4 1.3Zm-5.88-.34c-.18-.15-.21-.25-.16-.46.06-.23.04-.26-.1-.21-.13.05-.15.03-.07-.12.2-.36.94-.47 1.42-.2.44.25.62.49.36.49-.08 0-.17.09-.2.19-.1.41-.9.6-1.25.31Zm4.68-.15c0-.08-.03-.14-.07-.14-.23.04-.31-.03-.26-.21.03-.11 0-.2-.06-.2-.25 0-.23-.31.03-.55.51-.47.93-.45 1.79.08l.52.32-.38.03c-.21.02-.45-.02-.53-.09-.11-.09-.18-.09-.26-.01-.09.09-.07.12.09.12.12 0 .24.04.28.09.07.13-.27.31-.59.31-.16 0-.26.06-.26.14s-.07.16-.15.2c-.09.03-.15 0-.15-.09Zm3.7.1c0-.05-.32-1.57-.36-1.72-.07-.26.13-.32.35-.1.11.1.12.07.07-.18-.36-1.5-2.1-2.47-4.66-2.62-2.12-.12-3.39.56-4.24 2.24-.39.78-.39.79.56.75.53-.02 1.15.03 1.7.14.93.19.86.2 2.08-.25.66-.25 3.06-.3 3.53-.08.24.11.47.44.47.67 0 .17-.18.11-.23-.07-.02-.1-.02.07.01.37.05.6.23.89.53.87.1-.01.19-.01.19-.02ZM7.07 23.56c-.9-.33-1.62-1.08-1.88-1.96-.07-.23-.09-2.87-.07-7.55l.03-7.2.23-.43c.31-.57.87-1.12 1.47-1.42l.5-.25 18.12-.03c20.63-.03 18.71-.11 19.68.84.96.93.9.38.9 8.59 0 6.82-.01 7.23-.19 7.69-.23.6-.74 1.18-1.35 1.54l-.46.27-18.3.02c-15.22.02-18.36 0-18.68-.11Zm9.15-.48c-.22-.44-.21-1.2.02-1.96.24-.77.41-.82.32-.09-.05.39-.04.48.05.37.08-.12.1-.1.06.11-.02.15.02.35.1.45.1.14.13.14.14.03.02-.15.05-.43.07-.73.01-.11.07-.16.16-.13.15.06.26-.2.26-.61 0-.12.07-.25.15-.28.17-.07.2-.4.05-.49-.06-.03-.1-.18-.1-.32 0-.36-.4-1-.94-1.51-.55-.5-.68-1.52-.2-1.52.1 0 .11.06.04.26-.19.49-.12.7.42 1.26.29.29.58.62.65.73.21.36-.03-.5-.26-.95-.12-.22-.21-.46-.21-.53.01-.18.29.21.57.78.27.56.25.16-.03-.52-.18-.44.01-.52.26-.11.44.73.49 2.5.08 2.83-.38.3-.56 1.85-.28 2.4.32.63.11.83-.24.24l-.19-.32-.15.28c-.14.28-.15.28-.3.09-.13-.18-.14-.17-.08.15.08.45-.03.42 1.32.39l1.19-.03-.42-.46c-.74-.8-.87-1.33-.53-2.21.11-.29.2-.72.2-.95 0-.43.13-.57.24-.27.1.25.07.54-.1 1.29l-.17.71.27.49c.22.43.31.5.28.24-.07-.54-.08-3.49-.02-3.49.23 0 .33.49.32 1.59-.01.85.03 1.24.15 1.49.21.45.27.34.07-.14-.18-.42-.14-1.38.05-1.57.17-.17.13-.56-.13-1.43-.26-.86-.25-1.02.05-.65.29.36.25.03-.16-1.13-.43-1.21-.47-2.02-.13-2.74l.21-.47.13.3.13.3.01-.45c0-.25.07-.7.15-1 .52-1.82.95-3.85.95-4.44 0-.62.17-1.12.56-1.64.48-.62.18-.42-.35.24-.36.44-.58.64-.68.6s-.17.01-.2.15c-.03.11-.23.57-.44 1-.21.44-.35.78-.31.75.05-.03.17-.23.27-.46.27-.59.37-.5.31.28-.04.44-.02.58.03.42.05-.14.09-.4.1-.58.01-.3.2-.47.22-.19 0 .06.05.01.11-.13.23-.5.21.16-.02.87-.12.38-.24.74-.26.8-.06.24-.24.13-.25-.14l-.01-.28-.07.31c-.16.67-.65 1.35-1.59 2.21-1.11 1.02-1.53 1.61-1.51 2.12l.02.36.06-.41c.08-.45.34-.92.57-1.01.24-.09.27.03.07.39-.13.23-.19.63-.23 1.32-.06 1.18-.16 1.27-.52.43-.81-1.9-.57-2.9.97-3.97.69-.48.84-.63 1.13-1.19.28-.56.37-1.06.11-.58-.15.26-.42.22-.34-.05.04-.13.09-.31.12-.42.04-.14.07-.16.13-.05.06.09.12.05.2-.17.07-.16.25-.55.42-.87l.29-.57-.54.54c-.34.35-.69.59-.95.66-.36.11-.41.17-.51.56-.15.6-.56 1.03-1.43 1.49-1 .55-2.18 1.85-1.67 1.85.07 0 .08.2.04.54-.06.45-.02.71.2 1.41.35 1.07.3 1.48-.26 2.5-.4.74-.41.75-.15.64.39-.18.45-.01.08.27-.36.28-.44.51-.12.34.3-.16.24.03-.07.27-.38.28-.75.9-.45.74.5-.27.58.03.09.34-.17.11-.33.29-.35.4-.04.16 0 .15.18-.07.12-.16.25-.28.3-.28.17 0-.05 1.06-.28 1.32-.08.1-.12.24-.09.31.03.08 0 .2-.06.26-.16.16-.37-.06-.37-.4 0-.16-.04-.29-.1-.29-.14 0-.12-.69.04-1.23.07-.25.12-.56.09-.69-.03-.14.05-.38.21-.61.14-.21.26-.43.26-.5 0-.17.4-1.19.52-1.34.37-.45.39-1.24.04-2.08-.78-1.85-.3-2.95 1.79-4.11.95-.53 1.01-.61 1.1-1.46.06-.51.1-.6.49-.92.24-.19.61-.62.82-.96.31-.48.49-.65.89-.84 1.95-.9 2.19-1 2.22-.9.03.08.23.06.66-.08.59-.19 1.18-.2 1.6-.03.14.06.17.02.17-.24V5h-8.16c-5.78 0-8.28.03-8.54.11-.6.18-1.32.78-1.65 1.39l-.3.55-.03 6.98c-.03 7.81-.04 7.66.65 8.46.2.24.59.54.87.67l.51.24h9.03zm8.1-.46c.89-1.49.91-2.01.08-2.49-.3-.18-.68-.33-.83-.33-.63 0-1.57-.73-1.57-1.21 0-.16.09-.1.49.29.48.48.51.49 1.37.6.81.11 1.36.31.88.33-.18 0-.18.01.01.09.45.2.71.11 1.18-.38.67-.73 1.2-1.85.91-1.96-.09-.03-.14.01-.14.13 0 .28-.43.84-.67.87-.2.03-.22.01-.16-.29.07-.39.12-.45.22-.28.06.08.1.03.14-.19.12-.55-.14-.67-.56-.25-.26.26-.32.37-.22.45.16.14.01.98-.21 1.2-.15.14-.16.12-.1-.14.19-.81.19-.86 0-.86-1.39-.01-3.71-1.45-3.91-2.41-.08-.42-.35-.34-.49.16l-.11.39-.06-.33c-.06-.28-.09-.32-.22-.21-.12.1-.16.1-.19-.01-.02-.08-.07-.21-.09-.29-.03-.08-.06.08-.07.35l-.01.5-.19-.24c-.11-.13-.2-.19-.2-.13 0 .28.34 1.99.55 2.79.26.94.26 2.61 0 2.56-.17-.03-.24-.66-.13-1.11.17-.67.03-.59-.2.11s-.19 1.15.17 1.85c.1.21.24.56.31.8l.13.42h3.43zm1.64.31c.6-1.67.79-1.83 1.06-.87l.17.59-.07-.7c-.16-1.6.08-3.03.49-2.9.17.06.59-.81.59-1.2 0-.08.09-.15.19-.15.23 0 .2.17-.24 1.26-.14.36-.24.71-.21.77.03.07.05.06.05-.03.02-.27.61-1.41.7-1.36.19.12-.49 1.78-.71 1.74-.08-.02-.14.08-.15.27-.02.27-.02.28.07.08.11-.27.44-.32.37-.05-.03.09-.08.29-.11.45-.04.15-.11.27-.16.27-.15 0-.12.67.03.73.08.03.29.39.48.81l.34.76h2.31l-1.14-1.15c-.67-.69-1.12-1.23-1.11-1.33.03-.26-.11-.7-.27-.83-.24-.2-.16-.39.17-.39.19 0 .28-.04.23-.11a.15.15 0 0 1 .06-.19c.1-.06.09-.18-.04-.57-.19-.56-.38-2.02-.28-2.17.03-.06.13.08.23.3l.18.39v-.46c.01-.31-.05-.54-.18-.7-.1-.14-.26-.4-.34-.59-.3-.69-.42-.76-.39-.21.13 1.76-1.47 5.05-2.72 5.62-.18.08-.24.28-.41 1.25l-.21 1.14h.42c.41 0 .43-.01.6-.47Zm5.63-1.48c-.05-1.07-.04-3.6.02-6.25.07-3.1.07-5.19 0-6.9-.06-1.35-.11-2.64-.11-2.87 0-.3-.04-.43-.14-.43-.24 0-.22 17.83.02 18.15.28.38.3.2.21-1.7Zm.6 1.38c-.04-.32-.13-1.44-.19-2.48-.07-1.04-.14-1.92-.16-1.94-.07-.07-.04 3.09.02 4.07.06.77.1.92.24.92.15 0 .16-.07.09-.57Zm11.95.43c.47-.19 1.13-.82 1.39-1.3.22-.4.22-.5.25-5.08l.03-4.66-.61-.37c-.33-.2-.6-.41-.6-.47s-.11-.08-.25-.06c-.33.07-.32-.1.01-.18.18-.05.31 0 .48.15l.24.22.16-.47c.2-.6.2-1.14 0-1.89-.24-.91-.64-3.05-.64-3.43 0-.31-.38-.62-.76-.62-.16 0 .83 5.2 1.02 5.39.02.03.1-.1.16-.27.15-.38.28-.42.28-.07 0 .49-.53.82-.7.43-.11-.29-.96-4.34-1.05-5.05-.06-.5-.08-.53-.36-.53h-.28l.23.35c.7 1.02.55 2.95-.35 4.39-.23.38-.26.47-.12.41.82-.34 1.24.23.72.96l-.21.3.62 1.35c.54 1.17.62 1.4.56 1.74-.03.22-.02.41.04.45.3.19-.07 1.01-.55 1.21-.79.33-1.6.13-1.9-.46-.48-.93.12-1.83.99-1.5.32.12.32.11.02-.48-.13-.26-.38-.82-.56-1.24-.3-.73-.34-.78-.62-.78-.98 0-1.15-1.04-.33-2.05.86-1.05 1.19-2.37.85-3.39-.15-.46-.21-.46-.82.12-1.12 1.04-1.18 1.63-.54 5.33.25 1.4.5 2.92.56 3.39.11.81.25 1.25.52 1.63.11.14.1.22-.02.45-.23.4-.46.39-.89-.05-.44-.43-.5-.68-.96-3.51-.31-1.94-.3-1.92-.64-1.92-.36 0-.87-.33-1.06-.7-.26-.51-.51-.4-.88.38l-.32.67.01 1.75c.01 2.66.51 5.36 1.09 5.9.37.35.53.03.75-1.49.06-.4.13-.77.16-.82s-.08-.12-.25-.15c-1.13-.23-.94-2.04.23-2.07.88-.02 1.33.73 1.12 1.89-.09.43-.2 1.17-.26 1.64-.24 1.85-1.29 2.84-2.24 2.09l-.26-.2v.27c0 .77.63 1.44 1.35 1.44.96 0 1.59-.38 1.72-1.02.03-.16.1-.28.16-.28.34 0-.22 1.06-.69 1.29-1.33.65-2.73-.09-2.74-1.45 0-.23-.11-.66-.25-.95-.46-1.03-.9-3.23-1.01-5.12-.04-.63-.13-1.21-.2-1.32-.36-.55-.41-2.9-.17-7.27L35.83 5h-3.81l-.04 6.42c-.02 4.72 0 6.46.08 6.53.07.06.14.74.19 1.8.14 3.41.23 3.16.18-.5-.04-2.82-.02-3.67.07-3.59.1.1.18 2.01.3 7.57 0 .24 10.77.27 11.34.03Zm-29.15-1.1c-.22-.47-.31-.82-.32-1.25l-.02-.6-.2.37-.2.37-.03-.28c-.04-.35.27-.87.69-1.11l.32-.19-.08.39c-.08.44-.08 1.54 0 1.62.03.03.05-.15.05-.4 0-.24.11-.78.25-1.18.31-.93.31-1.22-.01-1.77-.36-.62-.24-.76.14-.16.39.6.41 1.06.12 2.08-.14.48-.2 1-.2 1.67 0 1.19-.11 1.29-.51.44Zm15.85-6.44C30.83 4.67 30.84 5 30.59 5h-.22l.07 3.43c.04 1.88.07 5.78.08 8.67 0 4.93.03 5.5.27 5.5.03 0 .06-3.09.05-6.88ZM9.85 22.18c-.3-.99-.42-1.25-.69-1.61-.34-.45-.65-.57-.85-.34-.15.19-.17 1.23-.02 1.41.06.07.08.16.04.19-.03.04-.11-.01-.18-.09-.1-.15-.14-.15-.43 0-.52.27-.89.22-.97-.14-.04-.16-.11-.32-.16-.35a.24.24 0 0 1-.09-.17c0-.16.31.13.41.39.23.62.95.2 1.02-.61.16-1.69 1.72-.91 2.03 1.03.06.38-.01.58-.11.29Zm29.12-1.58c.51-.31.7-.81.98-2.65.32-2.04.18-2.55-.68-2.55-.65 0-1.06 1.08-.55 1.44.45.32.82.2.47-.15-.23-.23-.22-.62.03-.67.38-.07.53.42.35 1.21-.09.4-.23 1.09-.32 1.55-.25 1.31-.44 1.58-.92 1.26-.99-.64-1.82-6.79-1.15-8.47.51-1.25.86-1.4 1.53-.67.36.39.54.51.88.56.52.08.45-.14.9 2.62.38 2.29.54 2.81.93 3.06.34.21.45-.08.2-.53-.15-.26-.28-.83-.42-1.77-.11-.77-.37-2.29-.57-3.39-.6-3.24-.5-4.19.56-5.18.85-.8 1.21-.78 1.41.08.29 1.25-.03 2.35-1.05 3.63-.61.75-.37 1.62.4 1.48.29-.06.34-.03.4.16.08.26.87 2.11 1.16 2.72.24.5.18.55-.3.28-.42-.24-.96-.29-1.07-.1-.18.28-.08.99.18 1.24.69.69 2.29.02 1.81-.75-.06-.1-.09-.36-.06-.58.05-.35-.03-.59-.56-1.68-.68-1.43-.69-1.45-.42-1.69.54-.49.31-.83-.41-.61-.68.22-1.02.62-.43.51.28-.06.36-.04.33.06-.03.08-.2.13-.44.13-.51 0-.57-.29-.16-.77 1.29-1.47 1.72-3.62.96-4.85-.49-.79-.96-.76-1.9.14-1.39 1.34-1.67 2.5-1.18 4.95.1.49-.33.37-.87-.24-.78-.89-1.78-.65-2.28.53-.75 1.73-.2 7.61.86 9.21.44.66.87.81 1.4.48Zm-20.91-3.75c-1.02-1.91-.87-2.76.83-4.87.74-.93.85-.75.17.29-1.31 2.04-1.44 2.81-.73 4.42.6 1.34.42 1.45-.27.16Zm.86.12c-1-1.06-1.03-2.89-.05-3.8.19-.18.49-.57.66-.87.39-.68.46-.46.13.35-.15.37-.3.6-.4.59-.18-.02-.67 1.06-.73 1.6-.03.29.06.7.3 1.39.19.53.34.97.32.97-.01 0-.11-.1-.23-.23Zm8.43-1.63c-.08-.2-.13-.39-.1-.42.1-.1.35.22.47.62l.13.41.03-.44c.02-.32-.03-.57-.22-.93-.14-.28-.26-.6-.26-.73 0-.22-.04-.23-.6-.22-.63.02-.71.09-.45.43.08.1.15.34.15.52s.07.49.15.68.18.58.21.87c.05.37.09.46.14.32.07-.18.09-.17.26.12l.19.33.03-.59c.02-.38-.03-.73-.13-.97Zm2.66-1.46c-.06-1.39-.13-3.96-.17-5.7L29.78 5h-.81l.07 1.88c.04 1.03.11 2.74.16 3.8.07 1.34.07 1.99-.01 2.13-.18.35-.07.82.2.89.24.05.25.09.26 1 .01.86.26 1.92.42 1.76.02-.02 0-1.18-.06-2.58Zm-3.57 1.67c-.09-.3-.18-.55-.2-.55s-.2.11-.4.25c-.25.17-.5.25-.8.25-.61 0-.62.15-.01.29.29.06.67.2.85.31l.32.2v-.31c0-.38.16-.3.26.14.05.22.09.26.12.14.02-.1-.04-.42-.14-.72Zm-10.94.04c-.66-1.39-.44-2.87.53-3.64.57-.45 1.99-1.17 1.95-.98-.02.09-.39.36-.83.6-1.68.91-2.11 2-1.49 3.79.35 1.01.26 1.13-.16.23Zm6.97-.08c.08.08.22.08.49-.01.28-.1.39-.1.42-.01.06.18.3.13.42-.1.07-.11.1-.21.08-.22-.91-.45-.98-.59-.77-1.33.15-.51.46-.72.79-.54.26.14.34.12.2-.05-.13-.16-.06-.35.14-.35.19 0 .56.39.56.58-.01.14-.04.13-.19-.05-.25-.3-.35-.29-.27.01.08.32-.05.39-.39.22-.36-.19-.52-.12-.59.28-.1.53.18.86.73.86.1 0 .26.09.36.2.29.32.87.27 1.3-.11s.45-.53.05-.44c-.21.05-.3.03-.31-.07 0-.07-.05.02-.1.2-.15.49-.35.41-.31-.13.03-.37.07-.44.17-.35.34.29.66-.35.4-.8l-.14-.25-.01.28c0 .57-.18.24-.23-.45-.08-1.06.03-1.23.73-1.2.72.04 1.16.18 1.35.45.15.21.16.21.13-.12-.03-.43-.26-.58-1.08-.68-.61-.07-.65-.1-.65-.33 0-.32.63-.39 1.32-.16l.45.15-.06-.27c-.09-.36-.64-1.15-1.33-1.91-.43-.49-.53-.65-.42-.71.16-.11.22-.08-1.15-.5-1.94-.59-2.45-.41-2.32.83.06.63-.08.79-.18.19-.27-1.67.55-2.69 1.78-2.22.27.1.35 0 .14-.18-.79-.63-1.82.08-2.2 1.5-.2.75-.41 1.18-.58 1.18-.06 0-.03-.17.05-.37.08-.21.21-.66.3-1 .08-.35.25-.78.36-.98.17-.29.18-.34.05-.29-.32.12-.85 1.43-.96 2.39-.06.5-.14 1.01-.17 1.14-.05.21-.03.23.13.16.95-.41 3.33.01 3.05.53-.14.27-.57.29-1.25.06-.59-.2-1.78-.16-2.01.07-.14.14-.49 1.33-.77 2.61-.06.26-.07.76-.03 1.13l.07.65.25-.2c.36-.28.77-.27.68.01-.07.2-.04.21.23.16.32-.07.42.04.42.46 0 .16.03.18.12.09.18-.18.38-.15.31.06-.06.16-.05.16.13 0 .15-.13.23-.15.31-.07Zm6.48-.47c-.05-.37-.03-.48.11-.58.17-.13.05-.56-.16-.56-.17 0-.6-.74-.6-1.02 0-.34.16-.37.27-.05.06.17.09.08.14-.38.05-.47.02-.7-.13-1.04-.2-.48-.15-.68.09-.36.14.19.15.18.09-.15-.04-.19-.09-1.6-.13-3.12L28.57 5H27.1v1.18c0 1.63.22 3.12.44 3.12.08 0 .17.27.25.73.07.39.17.86.22 1.03.12.4.2 1.84.09 1.84-.04 0-.15-.17-.24-.37l-.17-.38.05.62c.07.74.21 1.12.79 2.04.5.81.51.82.42.23Zm7.35-3.8c.07-.21.2-.51.28-.66.14-.24.14-.51.03-2.45-.16-2.94-.19-3.13-.42-3.13-.17 0-.19.09-.19.83 0 .45-.05 1.88-.11 3.17-.1 1.93-.1 2.51.02 3.25l.13.9.07-.76c.03-.42.12-.93.19-1.15Zm-13.29.9c-.48-.34-.77-.39-1.41-.25-.93.22-1.1.24-1.1.13 0-.12 1.45-.62 1.8-.62.41 0 1.36.71 1.24.92-.07.12-.15.09-.53-.18Zm22.77-3.29c-.03-2.16-.12-2.5-.77-3.09l-.22-.2.07.45c.04.24.2 1.07.36 1.84.55 2.59.54 2.44.3 3.13l-.21.62.22.15c.28.2.3-.03.25-2.9Zm-32.29 2.07c-.19-.65-.08-2.8.17-3.22.48-.82 1.17-.79 1.46.05l.16.5.14-.35c.12-.29.12-.36.01-.38-.19-.05-.16-.22.05-.22.14 0 .24-.18.41-.72.13-.4.29-.83.37-.96.19-.29.39-.3.23-.01-.06.12-.22.52-.34.9l-.24.69h.33c.19 0 .39.06.45.13.17.21.26.77.12.77-.06 0-.11-.11-.11-.24 0-.55-.75-.63-.98-.11s-.29.6-.47.6c-.13 0-.22-.14-.32-.47-.55-1.9-1.71.82-1.25 2.96.12.56-.03.62-.19.08Zm26.04-.89c-.29-2.16-.05-3.09 1.1-4.3l.7-.73h-1.12c-.99 0-1.11.02-1.12.18s-.02.16-.06 0c-.04-.15-.16-.18-.69-.18h-.64v.34c0 .19.06.36.12.38.1.04.09.09-.03.21-.13.12-.17.49-.23 1.74-.08 1.88-.07 1.93.46 1.93.51 0 .89.2 1.19.64.33.5.4.45.32-.21Zm-2.36-.15c.06-.07.13-1.2.17-2.5L37.4 5h-.73l.07.98c.03.53.09 1.66.13 2.49.06 1.49.1 1.67.3 1.41ZM26.76 8.05c-.08-.33-.87-.82-1.44-.89-.26-.04-.65-.09-.87-.12-.53-.08-.37.06.4.36.81.31 1.46.73 1.7 1.1l.2.3.03-.26c.02-.15.01-.37-.02-.49ZM26.7 6.2V5H26v1.98l.33.21c.17.11.33.21.35.21.01 0 .02-.54.02-1.2Zm-1.1.01c0-1.15-.04-1.21-.71-1.21h-.59v.49c0 .56.25.95.74 1.17.52.22.56.19.56-.45Z"/></svg>