<svg xmlns="http://www.w3.org/2000/svg" width="51" height="51" viewBox="0 0 51 51"><path fill="#fff" fill-rule="evenodd" stroke="#fff" stroke-width=".793" d="m6.32 25.62.03-11.67h38.5v11.5c0 6.33-.03 11.58-.07 11.67-.07.17-1.08.18-19.28.18H6.3zm38.13 11.4c-.23-.2-3.05-1.89-13.6-8.17-2.2-1.31-4.94-2.95-6.1-3.65s-3.45-2.07-5.1-3.05-5.25-3.13-8-4.78-5.03-3.02-5.07-3.04c-.05-.02-.08 5.09-.08 11.36V37.1h19.02c10.46 0 18.98-.04 18.93-.08Zm.24-12.14c0-5.82-.01-10.58-.05-10.58-.03 0-3.21 1.89-7.07 4.21-3.86 2.31-8.09 4.85-9.39 5.62-2.26 1.35-2.36 1.43-2.16 1.57.11.08 2.51 1.52 5.32 3.19s6.93 4.13 9.16 5.47l4.05 2.42.06-.66c.04-.37.07-5.43.08-11.24Zm-9.57-5.15 9.3-5.58-9.4-.03c-5.17-.01-13.66-.01-18.86 0l-9.46.03 6.62 3.97c6.31 3.77 11.6 6.92 12.03 7.16.28.16-.5.6 9.77-5.55Z"/></svg>