<svg xmlns="http://www.w3.org/2000/svg" width="51" height="51" viewBox="0 0 51 51"><path fill="#fff" fill-rule="evenodd" stroke="#fff" stroke-width=".343" d="M5.6 48.47v-2.74l-1.27-.06c-.71-.04-1.97-.07-2.8-.07-.95 0-1.53-.04-1.53-.1s1.03-.1 2.88-.1h2.88l.29-.3.29-.3H3.17C.42 44.8 0 44.78 0 44.65s.43-.15 3.3-.15h3.3v-5.77c0-3.18.03-5.96.07-6.18l.06-.39-.41.33-.42.33-.02 5.51-.03 5.52-2.92.03C1 43.89 0 43.87 0 43.8c0-.06.97-.1 2.78-.1h2.79l.06-1.58c.04-.86.07-3.26.07-5.33v-3.76l-1.72-.06c-.95-.04-2.24-.07-2.86-.07-.83 0-1.12-.03-1.12-.13 0-.09.62-.11 2.84-.08l2.83.03.34-.31.34-.3-3.17-.01C.42 32.1 0 32.08 0 31.95c0-.17 18.85-.11 19.04.06.05.04.08 2.79.07 6.23-.02 5.42 0 6.16.13 6.16.18 0 .2-.59.24-7.4.02-2.72.05-4.97.08-5 .08-.07 11-.12 11.52-.05l.42.06v6.2c0 5.38.02 6.19.15 6.19.26 0 .17-24.73-.09-24.78-.18-.04-.19.13-.15 6l.04 6.03-5.97.03-5.98.02-.02-6.02c-.02-4.35-.06-6.02-.14-6.05s-.14 1.6-.19 6.02l-.07 6.05-6.22-.02-6.21-.03.02-5.97c.01-3.29-.01-5.98-.04-5.98s-.21.11-.4.26l-.33.25v5.38c0 4.19-.03 5.41-.12 5.49-.19.15-5.78.21-5.78.06 0-.08.82-.13 2.77-.18 1.53-.04 2.8-.09 2.83-.12.08-.09.06-10.31-.02-10.4-.07-.06-1.06-.1-5.35-.23-.13-.01-.23-.06-.23-.12 0-.08.83-.09 2.87-.04l2.88.07.29-.31.3-.31H4.23c-2.49 0-4.23-.09-4.23-.23 0-.06 1.24-.08 3.3-.06l3.3.04V6.86l-.35.34-.35.34-.02 5.55-.03 5.56-.4.03c-.74.07-5.45-.1-5.45-.19 0-.05 1.23-.09 2.79-.09h2.79l.08-.66c.08-.83 0-9.91-.09-10.01-.06-.05-2.1-.14-5.29-.22C.12 7.5 0 7.45 0 7.39c0-.08.77-.09 2.82-.04l2.83.07.29-.31.3-.31H3.12C.41 6.8 0 6.78 0 6.65s.43-.15 3.25-.15H6.5V.1h-.6v2.68c0 1.47-.03 2.77-.06 2.9l-.06.22H2.89C1.03 5.9 0 5.86 0 5.8s1-.1 2.8-.1h2.8V.1L2.78.07C1.22.06 11.49.05 25.6.05s24.38.01 22.83.02L45.6.1v5.6h2.8c1.8 0 2.8.04 2.8.1s-.99.1-2.78.1h-2.78l-.27.28c-.15.15-.27.32-.27.37 0 .04 1.37.05 3.05.02 2.63-.05 3.05-.04 3.05.08 0 .13-.46.15-3.2.15h-3.2l-.02 4.32c-.03 4.11-.03 5.98.01 7.32l.01.6.28-.27.27-.26.03-5.47c.01-3 .05-5.5.08-5.55.07-.11 5.74-.12 5.74-.01 0 .1-2.39.22-4.25.22h-1.22l-.06.68c-.04.37-.07 2.77-.07 5.35v4.67h2.8c2.46 0 2.8.02 2.8.15 0 .14-.31.15-2.77.09-2.76-.06-2.78-.06-3.05.15-.49.39-.38.41 2.77.41 2.64 0 3.05.02 3.05.15s-.42.15-3.2.15h-3.2v12.24l.3-.29.3-.29V20.1h1.08c.6 0 1.91-.03 2.9-.07 1.65-.06 1.82-.05 1.82.1s-.25.17-2.64.17c-1.45 0-2.71.03-2.8.06-.16.06-.26 10.07-.1 10.49.06.14.32.15 2.8.09 2.51-.06 2.74-.06 2.74.09s-.26.17-2.78.17h-2.78l-.29.3-.29.3h3.07c2.65 0 3.07.02 3.07.15s-.44.15-3.17.17l-3.18.03-.03 6.14-.02 6.15.3-.29.3-.29v-5.52c0-3.74.03-5.55.1-5.59.16-.1 5.7.06 5.7.16 0 .05-1.26.09-2.8.09h-2.8v10.7h2.8c1.8 0 2.8.04 2.8.1s-.99.1-2.78.1h-2.78l-.26.3-.26.3h3.04c2.64 0 3.04.02 3.04.15s-.42.15-3.2.15h-3.2V48c0 2.78-.02 3.2-.15 3.2s-.15-.41-.15-3.07v-3.08l-.24.25c-.23.24-.35 2.08-.36 5.48 0 .23-.04.42-.1.42s-.1-.98-.1-2.74v-2.74l-2.12-.07c-1.17-.03-3.59-.05-5.38-.03l-3.25.03-.03 2.78c-.01 1.73-.06 2.77-.12 2.77s-.1-1.06-.1-2.9v-2.9h11.1l.32-.3.33-.29-6.18-.01H32.1V48c0 2.78-.02 3.2-.15 3.2s-.15-.41-.15-3.08l-.01-3.07-.29.33-.3.32v2.75c0 1.77-.04 2.75-.1 2.75s-.1-.98-.1-2.75V45.7H20.3v2.75c0 1.51-.04 2.75-.08 2.75-.11 0-.2-2.17-.18-4.2l.02-1.55 5.54-.03 5.54-.02.28-.27c.15-.15.28-.3.28-.35 0-.04-2.74-.08-6.09-.08h-6.1l-.07.22c-.04.12-.05 1.57-.03 3.22.03 2.33.01 3-.08 3.03-.1.04-.13-.61-.13-3.02v-3.07l-.29.24c-.29.22-.3.26-.3 1.09-.02 1.97-.15 4.79-.23 4.79-.04 0-.08-1.24-.08-2.75V45.7H7.6v2.08c0 2.23-.08 3.42-.22 3.42-.04 0-.07-1.29-.06-2.87l.03-2.88 5.56-.03 5.55-.02.34-.35.34-.35H6.83l-.06 1.67c-.04.91-.07 2.37-.07 3.25 0 .97-.04 1.58-.1 1.58s-.11-1.13-.12-3.05l-.03-3.05-.27.23-.27.22-.02 2.2c-.01 2.43-.07 3.45-.2 3.45-.05 0-.09-1.23-.09-2.73Zm39.8-.17v-2.9h1.68c.93 0 2.24-.03 2.9-.07 1.09-.05 1.22-.04 1.22.1 0 .15-.24.17-2.49.17-1.37 0-2.63.03-2.8.06l-.31.07v2.73c0 1.76-.04 2.74-.1 2.74s-.1-1.03-.1-2.9Zm-2.12-3.76 1.2-.07.04-6.01c.03-6.75.06-6.17-.27-5.86l-.25.23v3.81c0 2.1-.03 4.59-.07 5.54l-.06 1.72H32.94l-.29.3-.28.29.74.04c1.42.06 8.97.07 10.17.01ZM18.9 38.3l.01-6.1H6.9v12.2h11.98zm12.3 0v-6.1l-5.72.02-5.72.03-.04 6.08-.04 6.07H31.2zm1.3 5.73c.22-.27.22-.34.19-2.53-.01-1.24-.02-3.7-.01-5.48l.02-3.22h11l.38-.35.37-.34-6.18-.01H32.1v6.1c0 3.68.04 6.1.09 6.1s.19-.12.31-.27Zm11.2-5.68V33H32.9v10.7h10.8zm-22.76 4.52c-.03-.08-.04-.54-.02-1.03l.03-.89.65-.06c.36-.04 1.78-.07 3.17-.08 1.38 0 2.54-.04 2.56-.08.03-.05.08-.38.12-.75l.07-.68-1.83-.02-1.84-.03v-2.1l1.75-.03c1.98-.03 1.9.01 1.9-.89v-.63l-3.27-.02-3.28-.03V34.5c0-1.3-.47-1.18 4.51-1.19 4.39-.01 4.24-.03 4.24.61 0 .36.01.38.33.38.53 0 .57.11.57 1.56 0 1.47-.06 1.64-.61 1.64h-.29v1.4h.34c.46 0 .44-.07.47 1.65l.03 1.5-.41.03c-.41.03-.42.04-.45.45l-.03.42-4.33.03c-3.54.02-4.33 0-4.38-.11Zm8.46-4.72V33.6h-8.2v1.7l3.28.02 3.27.03-.03.95c-.02.52-.05.96-.06.97-.02.02-.84.06-1.84.1l-1.82.06V39l1.88.02 1.87.03-.03.9c-.02.5-.07.93-.1.97-.04.04-1.5.1-3.25.14l-3.17.07v1.57h8.2zm5.12 3.63.03-.83.77-.03.76-.03.07-.39.07-.4h.73c1.03 0 1.05-.01 1.05-.7v-.59l-.32-.03c-.28-.03-.34-.08-.38-.33-.05-.29-.06-.3-.73-.33l-.67-.03v-.79h-.91l.03-.87.03-.88.42-.03c.4-.03.42-.04.45-.4l.03-.37.67-.03c.67-.03.68-.03.68-.31 0-.37.12-.41 1.15-.41 1.27 0 1.15-.33 1.15 3.11v2.98l.48.03c.46.03.47.03.5.4l.03.37.77.03.77.03v1.6l-3.83.03-3.83.02zm7.4.02.03-.6h-.45c-.97 0-1.2-.09-1.2-.45 0-.37-.12-.45-.66-.45h-.34v-6h-.84c-.88 0-.96.04-.96.51 0 .17-.08.19-.64.19h-.65l-.03.38c-.03.36-.04.37-.44.4l-.41.03-.06.56c-.07.71-.06.73.5.73h.46l-.07.4-.06.4h.69c.69 0 .7 0 .73.28.02.22.09.28.38.32l.35.05.03.88.03.87h-.43c-1.18 0-1.47.1-1.5.49l-.03.36-.77.03-.78.03v1.19h7.08zM30.3 40.5v-1.3h-.6v2.6h.6zm6.24-3.24c-.19-.5-.01-.71.61-.71h.6l.03.43.03.42h-.61c-.43 0-.62-.04-.66-.14Zm-6.26-1.38.03-1.28h-.61v2.61l.28-.03.27-.03zM44.5 25.85v-6.06l-.24.18-.24.18-.03 5.47c-.03 3.01-.08 5.5-.12 5.55-.05.04-2.52.07-5.5.06l-5.42-.02-.28.27-.28.27 1.48.05c.81.03 3.54.07 6.06.08l4.57.02zm-11.86-.18c0-3 .04-5.49.09-5.53.04-.04 2.55-.08 5.58-.09l5.5-.01.32-.32.32-.32H32.13l-.07 4.3c-.04 2.36-.04 5.11 0 6.11l.07 1.8.25-.24.24-.25zm-13.81 4.61c.04-.62.07-3.28.07-5.9V19.6h-12v11.8h11.87zm12.37-4.73V19.7H19.75l-.04 5.85-.03 5.85H31.2zm12.5.1V20.3l-5.37.02-5.38.03-.03 5.33L32.9 31h10.8zm-31.22 3.97-.03-.77-.55-.05-.55-.05-.03-.38c-.05-.56-.55-.52-.6.05-.03.35-.05.37-.4.4s-.37.05-.4.41l-.03.38-.47-.03-.47-.03v-.45c0-.45 0-.45.38-.48.36-.03.37-.04.37-.42 0-.4.11-.5.57-.5.45 0 .27-.44-.19-.48l-.38-.03v-1.16l-.77.01-.78.01-.03-.44c-.04-.55.04-.61.9-.61h.67l.03-.62.03-.63.37-.03c.59-.05.57-.52-.02-.52h-.4v-.8h-.8v-1h.99l.03.38c.03.35.05.37.41.4.35.03.37.05.37.37 0 .25.05.35.2.4.29.09.4-.02.4-.4v-.34l.6-.07.59-.06.03-.72.03-.71.47-.03.47-.03.03.78.03.78.6.05.6.05.03.38c.05.55.45.51.5-.05.03-.37.04-.38.43-.38s.39 0 .39-.41v-.4l.52.03c.52.03.53.04.56.35.05.49-.13.73-.53.73-.33 0-.35.02-.35.34 0 .33-.02.35-.37.38-.47.04-.65.48-.2.48.5 0 .57.08.57.71V25h.8c.76 0 .8.01.86.24.16.67-.05.83-1.08.85l-.58.01v1.1h-.35c-.53 0-.51.44.03.57.34.08.37.12.37.43 0 .33.02.35.38.38l.37.03v.99h-1v-.8h-.8v-.41c0-.5-.54-.59-.56-.09-.01.14-.02.31-.03.38-.01.08-.2.12-.61.12h-.6v1.6h-.99zm.82-.27v-.75h1.2v-.4c0-.39.01-.4.4-.46.37-.06.4-.09.4-.4s.02-.33.38-.36l.37-.03.03-.57.03-.58h.79c.79 0 .8 0 .8-.25s-.01-.25-.8-.25h-.8v-1.29l-.42-.03c-.41-.03-.42-.04-.43-.38 0-.32-.03-.35-.35-.4s-.35-.08-.38-.42l-.03-.38H13.3v-.75c0-.73-.01-.75-.24-.75s-.25.04-.31.75l-.07.75h-1.07l-.03.38c-.03.35-.05.37-.43.42s-.4.07-.43.42c-.03.37-.04.38-.43.38H9.9v1.3h-.8c-.78 0-.8.01-.8.25s.02.24.82.27l.83.03.03.58.03.57h.34c.32 0 .34.02.37.38s.04.37.46.4.42.03.42.42v.39l.58.03.57.03-.01.73-.02.72h.58zm7.87.68c-.09-.08-.09-.84-.01-1.88.07-.79.07-.8.46-1.08.22-.15 1.56-1.07 2.98-2.03 1.43-.96 2.62-1.79 2.65-1.84.04-.06-.56-.1-1.59-.1H24v.71l-1.42-.03-1.43-.03v-1.9l.38-.03c.36-.03.37-.04.37-.42 0-.52-.06-.51 4.05-.48l3.4.03.03.41c.03.4.05.42.43.48l.39.06v2.58l-2.42 1.6c-1.34.89-2.54 1.7-2.68 1.81l-.25.2 2.68.01h2.67v2h-4.48c-2.47 0-4.52-.03-4.55-.07Zm8.78-.93v-.75l-2.6-.03c-1.74-.01-2.61-.06-2.66-.13-.11-.18.02-.49.25-.6.11-.06 1.3-.84 2.63-1.72L30 24.25V22.1h-.9v-.9h-6.89l-.03.42c-.03.42-.04.43-.4.46l-.38.03v1.49h2.3v-.8l1.92.02 1.93.03.03.26c.03.27-.51.66-5.4 3.93l-.77.51-.01 1.11c0 .61.03 1.14.07 1.17.03.04 1.96.06 4.27.05l4.21-.03zM11.3 24.7v-.9h1.77l.06.69c.09 1.12.1 1.11-.94 1.11h-.89zm1.58.03-.03-.68-.62-.03-.63-.03v1.41h1.31zm18.55-5.39.37-.07V6.96l-.3.29-.3.29V18.6H20.21l-.36.31c-.19.17-.35.35-.35.4 0 .1 11.32.13 11.93.03Zm-15.4-.11c-1.66-.02-4.4-.02-6.1 0-1.69.01-.33.02 3.02.02 3.36 0 4.74-.01 3.08-.02ZM44.5 13V6.9H32.8v5.88c0 5.16-.02 5.9-.16 6.1l-.15.22H44.5zm-24.56.06c.01-3 .06-5.49.1-5.53s2.54-.1 5.54-.13l5.47-.05.27-.27.27-.28H19.43l-.07.53c-.03.28-.06 3.03-.06 6.1v5.58l.31-.24.32-.25zm12.56-.28c0-5.81 0-5.88-.2-5.88s-.2.07-.2 6.07c0 6.05 0 6.06.2 5.88s.2-.31.2-6.07Zm-13.5.95c0-2.85.03-5.54.06-5.98l.07-.8H6.9V18.9H19zm11.93 3.84c.04-.45.07-2.86.07-5.34V7.7H20.33l-.07.46c-.03.26-.06 2.67-.06 5.35v4.89h10.67zM9.82 16.53l.03-.98.83-.03.83-.03-.02-1.59-.01-1.59-.81-.03-.82-.03-.03-.4c-.03-.5-.16-.34 1.7-2.03l1.57-1.43.68.03.68.03.06 3.1c.04 1.71.07 3.29.08 3.53l.01.42h.78c.47 0 .83.05.9.12.13.13.16 1.26.06 1.66l-.06.22H9.79zm6.26-.02.03-.71H14.3v-2.18c0-1.21-.03-2.8-.07-3.55l-.06-1.37h-.49c-.5 0-.5 0-2.01 1.37-.84.76-1.53 1.37-1.54 1.38-.01 0-.04.12-.08.28l-.07.27h.8c.98 0 .89-.2.93 1.95l.04 1.8-.83.05-.83.05-.03.68c-.01.37 0 .69.02.72.02.02 1.37.02 3 .01l2.97-.03zm8.07.54a3 3 0 0 1-.09-.29c-.03-.1-.22-.16-.53-.18-.41-.03-.48-.06-.51-.26-.02-.13-.1-.22-.21-.22-.22 0-.41-.19-.41-.41 0-.09-.09-.19-.2-.22-.17-.04-.2-.14-.2-.55 0-.47-.01-.5-.3-.56l-.31-.06.03-1.42.03-1.43.28-.03c.26-.03.27-.06.27-.58 0-.47.03-.54.19-.54.13 0 .21-.08.23-.22.02-.15.13-.24.36-.3.25-.07.32-.14.32-.33 0-.23.04-.25.49-.25.44 0 .5-.03.53-.23.05-.35 3.01-.35 3.06 0 .03.2.09.23.53.23.32 0 .49.04.5.13.01.06.02.19.03.27 0 .08.14.17.31.2.21.04.31.12.33.27.02.14.12.23.25.25.19.03.22.1.25.55s.06.52.25.55c.22.03.22.06.22 1.48v1.45l-.27.03c-.27.03-.28.06-.28.58 0 .46-.03.54-.19.54-.11 0-.21.09-.25.24-.04.16-.15.25-.36.29-.24.05-.3.12-.3.32 0 .23-.03.25-.49.25-.47 0-.5.02-.53.28l-.03.27-1.48.03c-1.25.02-1.48 0-1.52-.13ZM27 16.8c0-.06-.5-.1-1.3-.1s-1.3.04-1.3.1.5.1 1.3.1 1.3-.04 1.3-.1Zm-.08-.53a.22.22 0 0 0 .02-.19c-.07-.11.4-.28.76-.28.22 0 .29-.05.32-.22.02-.16.11-.24.3-.26.25-.03.27-.07.3-.55.03-.45.06-.52.28-.57.25-.06.25-.07.28-1.27l.03-1.2-.31-.06c-.29-.06-.3-.08-.3-.61 0-.52-.01-.55-.27-.58-.2-.02-.29-.09-.31-.25-.03-.2-.09-.23-.46-.23-.52 0-.68-.16-.68-.65V9h-2.46l-.08.47-.09.48-.47.03c-.39.03-.47.06-.5.25-.02.15-.11.23-.3.25-.25.03-.27.07-.3.6-.03.5-.06.57-.25.6-.38.05-.35 2.39.02 2.48.23.06.25.11.25.6 0 .48.02.54.2.54.12 0 .25.1.32.25.09.2.21.26.6.31.41.06.48.1.48.29 0 .13.06.26.13.28.22.09 2.42-.06 2.49-.16Zm-2.85-.84c-.04-.03-.07-.14-.07-.24 0-.11-.09-.19-.22-.21-.16-.02-.24-.11-.26-.3s-.1-.28-.25-.3c-.17-.02-.23-.11-.25-.36-.04-.43.6-.47.66-.04.03.16.1.22.28.22.19 0 .26.06.31.3l.06.3h2.66l.03-.27c.02-.22.09-.29.3-.31.19-.02.28-.1.3-.25.02-.17.1-.22.33-.22.43 0 .46.58.03.63-.21.03-.27.09-.3.3-.02.19-.1.28-.25.3-.17.03-.23.1-.23.28v.24h-1.53c-.85 0-1.57-.03-1.6-.07ZM21.9 12.9c0-1.21-.12-1.59-.24-.74-.12.91-.07 1.94.09 1.94.13 0 .15-.2.15-1.2Zm7.8 0c0-1-.02-1.2-.15-1.2-.12 0-.15.2-.15 1.2s.03 1.2.15 1.2c.13 0 .15-.2.15-1.2Zm-5.93-.87c-.03-.05-.07-.33-.08-.63l-.04-.55h4l.03.39c.02.22.01.5-.02.63l-.06.23h-1.9c-1.04 0-1.91-.03-1.93-.07Zm.93-.58c0-.34-.01-.35-.4-.35s-.4.01-.4.35.01.35.4.35.4-.01.4-.35Zm1.7 0v-.35h-1.5v.28c0 .4.04.42.82.42h.68zm1 0c0-.34-.01-.35-.38-.35-.38 0-.38 0-.34.35.04.32.07.35.38.35.32 0 .34-.02.34-.35ZM19.04 6.6c.03-.03.08-1.51.12-3.28L19.23.1h-.73v5.8H7.54l-.34.34-.33.35.64.04c.97.06 11.47.03 11.53-.03Zm11.94-.07.82-.06V.1h-.6v5.8h-5.47l-5.48.01-.32.29c-.18.16-.33.32-.33.35 0 .07 10.4.06 11.38-.02ZM44.5 3.35V.1h-.25c-.25 0-.25 0-.25.93 0 .52-.03 1.82-.07 2.9l-.06 1.97H32.84l-.34.35-.34.35H44.5zM20 2.93V.1h-.6v6.24l.3-.29.3-.29zm25.4 0V.1h-.6v6.24l.3-.29.3-.29zm-38-.05V.1h-.6v6.14l.3-.29.3-.29zm25.3 1.97c0-.45-.03-1.7-.07-2.78L32.57.1h-.47v6.14l.3-.29c.29-.27.3-.33.3-1.1Zm-14.46.69c.03-.09.06-1.35.06-2.8V.1H7.6v5.6h5.29c4.73 0 5.3-.02 5.35-.16Zm12.74-2.66L31 .1H20.25l.03 2.8.03 2.8 5.32-.02 5.32-.03zm12.72.02V.1H32.9v2.73c0 1.51.03 2.77.07 2.8.03.04 2.46.07 5.4.07h5.33z"/></svg>