<svg xmlns="http://www.w3.org/2000/svg" width="51" height="51" viewBox="0 0 51 51"><path fill="#fff" fill-rule="evenodd" stroke="#fff" stroke-width=".496" d="M16.35 40.53c-6.18-.77-10.42-5.64-10.22-11.73.26-8.02 8.43-13.14 15.9-9.95.16.07.17-.1.17-2.82 0-3.19.05-3.56.6-4.32 1.32-1.82 4.55-1.61 5.63.37.45.83.48 1.45.46 9.92-.01 7.73-.01 7.86.2 8.51 1.08 3.39 5.16 4.46 7.72 2.02 1.26-1.2 1.47-2.06 1.47-6 0-1.63.04-2.13.17-2.53.93-2.79 4.96-2.94 6.23-.22.27.57.27.57.3 3.36.04 3.07-.06 4.06-.53 5.51-2.38 7.28-11.16 10.23-17.47 5.86-.41-.28-.89-.66-1.07-.85l-.34-.35-.63.52c-2.37 1.97-5.81 3.05-8.59 2.7Zm26.3-.17c-1.27-.55-1.26-2.42.02-2.98.82-.36 1.69-.01 2.12.86.64 1.28-.8 2.71-2.14 2.12Zm-23.87-.06c2.17-.28 5.53-1.84 6.51-3.03.19-.23.34-.21.62.09.43.47 1.37 1.14 2.23 1.6 6.23 3.31 13.73.43 16.03-6.16.53-1.49.58-1.98.58-5.3v-3.05l-.33-.68c-1.16-2.34-4.41-2.37-5.64-.04-.21.4-.23.57-.29 3.37-.07 3.26-.14 3.68-.78 4.69-2.25 3.51-7.55 2.8-8.82-1.18-.21-.65-.21-.82-.24-8.99-.02-5.79-.07-8.48-.15-8.8-.62-2.55-4.53-2.94-5.78-.58l-.27.51-.03 3.23c-.03 3-.04 3.23-.2 3.16-6.58-2.83-13.77.51-15.6 7.24-.4 1.48-.39 4.22.01 5.67 1.48 5.36 6.73 8.93 12.15 8.25Zm25.02-.4c.13-.09.13-.1-.01-.1-.08 0-.24-.17-.34-.37l-.19-.38-.05.3c-.04.21-.13.31-.29.33-.21.03-.22.01-.22-.82V38h.46c.76 0 1.04.34.75.89-.07.12-.05.3.03.55l.13.38.22-.27c.57-.74-.06-1.85-1.05-1.85-.93 0-1.43 1.36-.73 2.01.33.3.97.4 1.29.19ZM16.55 34c-3.78-.78-5.25-5.25-2.64-8.04 2.34-2.51 6.43-1.92 7.92 1.14 1.75 3.55-1.42 7.69-5.28 6.9Zm1.69-.2c2.21-.36 3.86-2.31 3.86-4.55 0-4.14-4.8-6.18-7.86-3.33-3.3 3.09-.5 8.62 4 7.88Z"/></svg>