<svg xmlns="http://www.w3.org/2000/svg" width="51" height="51" viewBox="0 0 51 51"><path fill="#fff" fill-rule="evenodd" stroke="#fff" stroke-width=".718" d="M35.75 45c-2.42-.33-4.52-2.27-5.09-4.7-.96-4.07 2.7-8.02 6.78-7.31.85.15.83.19.48-.8-.93-2.63-3.21-7.27-5.19-10.56-.4-.68-.73-1.27-.73-1.32 0-.09 1.12-.59 2.28-1.01.52-.19.64-.2.78-.1.67.56 6.56 11.31 6.66 12.17.03.21-1.35.96-3.11 1.69-.21.09-.16.13.65.53 2.66 1.32 4.03 4.46 3.12 7.16-.96 2.88-3.72 4.65-6.63 4.25Zm2-.35c4.59-.96 6.19-6.66 2.77-9.86-2.66-2.49-6.89-1.99-8.81 1.06-2.74 4.34 1.04 9.85 6.04 8.8Zm-.65-2.09c-3.5-1.07-3.28-.94-3.29-2.03l-.01-.41 1.64-1.16c2.03-1.43 2.35-1.8 1.85-2.06-.39-.22-1.29.41-1.29.9 0 .3-.12.31-.83.08-.77-.25-.85-.45-.46-1.25 1.08-2.23 4.5-1.83 4.49.53-.01.92-.8 1.94-2.26 2.91-.3.2-.54.39-.54.42 0 .04.47.2 1.05.35.58.16 1.08.32 1.1.36.06.09-.34 1.3-.48 1.48-.12.15-.06.15-.97-.12Zm1.02-.66c.1-.29.17-.54.15-.55-.01-.01-.53-.16-1.16-.33-.62-.17-1.16-.34-1.2-.37-.07-.07-.06-.08 1.38-1.18s1.86-1.83 1.62-2.75c-.5-1.83-3.2-1.72-4.03.17-.22.48-.2.51.39.74l.43.17.2-.41c.47-.9 1.83-1.1 1.83-.26 0 .45-.28.73-1.76 1.77-2.18 1.54-2 1.36-1.87 1.97l.11.52.82.25c.45.14 1.25.39 1.77.55 1.15.36 1.09.37 1.32-.29Zm-16.66-.52c-.02-.07-.13-.49-.25-.93s-.42-1.24-.65-1.77c-.24-.53-.41-1-.38-1.03s.6-.05 1.26-.05c1.39 0 2.51-.2 2.81-.5.2-.2.2-.3.23-11.18.03-10.28.01-11.59-.24-14.55l-.07-.78 2.21.04c2.34.04 2.52.07 2.52.51 0 .12-.14.35-.31.52-.17.16-.36.38-.42.49-.09.15-.13 3.6-.17 13.3-.05 14.09-.03 13.39-.57 14.12-.6.82-1.55 1.21-3.86 1.59-.83.13-1.64.27-1.8.3-.18.04-.28.01-.31-.08Zm2.09-.49c2.73-.44 3.75-1.02 4.04-2.29.07-.29.11-4.82.11-13.11 0-14.06-.04-13.29.67-14.01.53-.54.43-.58-1.93-.58h-2.01l.08.55c.34 2.52.42 24.94.09 25.6-.26.51-.72.66-2.48.77-.86.05-1.58.11-1.6.12-.01.02.16.41.38.87s.47 1.19.57 1.62l.18.77.3-.05c.16-.03.89-.14 1.6-.26ZM13.2 33.23c-.37-.16-1.71-.56-2.27-.68-.43-.09-.42-.17.12-.98 2.33-3.46 4.02-7.38 4.76-11.01.16-.77.32-1.43.36-1.47s.82.12 1.73.36c2.84.75 2.81.73 2.02 1.57-.61.65-.78.99-1.32 2.63-1.11 3.38-2.52 6.44-4.09 8.87-.61.95-.68.99-1.31.71Zm1.38-1.28c1.29-2.08 2.58-4.92 3.73-8.23.72-2.1.78-2.21 1.37-2.84.25-.26.43-.51.4-.54-.03-.02-.82-.25-1.75-.49s-1.77-.47-1.85-.5c-.13-.05-.18.03-.23.37-.55 3.42-2.37 7.96-4.48 11.21-.4.62-.76 1.17-.8 1.23-.04.07.24.19.8.33.47.12 1.11.32 1.42.45.66.27.56.34 1.39-.99Zm26.5-.31c.19-.09.32-.21.32-.32 0-.63-5.83-11.3-6.46-11.82-.14-.12-2.46.68-2.58.89-.03.04.11.31.3.6 1.37 2.03 4.48 8.27 5.4 10.82l.38 1.06 1.16-.54c.63-.31 1.3-.61 1.48-.69Z"/></svg>