<svg xmlns="http://www.w3.org/2000/svg" width="51" height="51" viewBox="0 0 51 51"><path fill="#fff" fill-rule="evenodd" stroke="#fff" stroke-width=".721" d="M23.26 45.39C13.1 44.08 5.73 35.71 5.76 25.5 5.81 10.89 21.11 1.35 34.29 7.7c11.56 5.58 14.86 20.44 6.76 30.45-4.23 5.23-11.23 8.08-17.79 7.24Zm5.34-.34c14.18-2.28 21.3-18.29 13.46-30.25-7.7-11.74-25.14-11.74-32.89 0-3.82 5.79-4.25 13.48-1.11 19.71 2.07 4.12 5.8 7.53 10.22 9.34 1.72.7 3.46 1.11 5.92 1.39.68.08 3.47-.04 4.4-.19Zm-4.9-3.71c-2.74-.5-4.24-1.02-6.1-2.12-9.27-5.47-10.5-18.42-2.43-25.47 9.46-8.27 24.45-2.73 26.08 9.63 1.1 8.31-4.14 15.8-12.4 17.73-.87.2-4.42.36-5.15.23Zm4.93-.44c8.71-1.86 14.05-10.15 12.16-18.88-1.25-5.74-6.26-10.57-12.12-11.67-11.92-2.23-21.62 8.87-17.78 20.34 2.42 7.23 10.35 11.79 17.74 10.21Zm-11.35-7.83c-3.04-3.52-3.64-8.72-1.47-12.75 3.41-6.36 11.99-7.86 17.29-3.04l.55.51-1.27 1.28-1.28 1.28.45.55c2.16 2.64 2.19 6.52.07 9.29-2.54 3.31-7.12 3.96-10.51 1.49-.36-.27-.7-.48-.75-.48-.06 0-.61.54-1.24 1.2s-1.2 1.2-1.26 1.2c-.07 0-.33-.24-.58-.53Zm1.79-.97 1.11-1.15-.34-.4c-3.59-4.18-1.49-10.89 3.86-12.32 2.21-.6 5.14.1 6.78 1.61l.43.4 1.2-1.2c.65-.65 1.19-1.22 1.19-1.26 0-.16-1.67-1.38-2.47-1.8-9.12-4.81-19.1 4.22-15.26 13.81.53 1.32 2.05 3.61 2.32 3.49.04-.02.57-.55 1.18-1.18Zm7.55.8c2.4-.35 4.63-1.99 5.64-4.15 1.2-2.6.82-5.8-.93-7.73l-.38-.42-5.14 5.12c-2.82 2.82-5.14 5.17-5.14 5.23-.02.17.94.84 1.78 1.25 1.45.7 2.71.91 4.17.7Zm-.54-7.8c1.45-1.46 3.09-3.11 3.65-3.68l1.02-1.03-.44-.4c-1.82-1.63-4.68-2.17-7.13-1.34-4.69 1.59-6.47 7.8-3.3 11.56l.47.57 1.55-1.52c.85-.83 2.73-2.7 4.18-4.16Z"/></svg>