<svg xmlns="http://www.w3.org/2000/svg" width="51" height="51" viewBox="0 0 51 51"><path fill="#fff" fill-rule="evenodd" stroke="#fff" stroke-width=".726" d="M21.61 41.15c-.04-.06-.61-1.05-1.27-2.22l-1.19-2.12-2.63-.03-2.63-.03-2.56-4.45c-1.4-2.45-3.11-5.42-3.79-6.61S6.3 23.45 6.3 23.36s.67-1.32 1.49-2.74c.81-1.41 2.28-3.96 3.26-5.67s2.02-3.51 2.32-4.02l.55-.92.61-.06c.34-.04 3.83-.05 7.75-.03l7.13.03.18.24c.1.13.67 1.1 1.27 2.16l1.09 1.92 2.63.08 2.63.07.83 1.42c.86 1.46 2.88 4.94 5.31 9.16 1.77 3.07 1.65 2.65 1.05 3.77-.64 1.17-4.83 8.5-6.17 10.77l-1 1.69-7.77.01c-5.08.01-7.8-.02-7.85-.09Zm16.17-1.3c3.35-5.73 6.58-11.4 6.74-11.83.11-.27.07-.38-.41-1.23-.74-1.31-5.27-9.15-6.24-10.81l-.81-1.38-2.6-.02-2.6-.03-1.18-2.05c-.65-1.13-1.22-2.11-1.26-2.18-.11-.17-8.36-.28-12.53-.17l-2.87.07-1.73 3.02c-.95 1.65-2.65 4.61-3.77 6.56l-2.05 3.55.33.6c.19.33 1.23 2.15 2.33 4.05 1.09 1.9 2.65 4.61 3.45 6.02l1.47 2.58h5.22l1.24 2.2 1.24 2.19 7.69-.02 7.7-.02zm-15.46-2.57c-.45-.79-1.03-1.79-1.3-2.23l-.48-.8-2.61-.03-2.6-.02-.28-.53c-.4-.74-1.87-3.3-4.01-6.99-1.01-1.74-1.84-3.23-1.84-3.29 0-.07.64-1.23 1.42-2.58 2.87-4.98 3.95-6.88 4.33-7.58.32-.58.45-.73.69-.77.39-.08 11.07-.08 11.82 0l.6.06 1.23 2.17 1.23 2.16h2.53c1.88.01 2.57.04 2.68.13.08.07.48.7.87 1.4.4.7 1.78 3.1 3.07 5.34l2.35 4.08-.38.67c-.46.82-4.83 8.37-5.46 9.43l-.45.75-6.3.03-6.3.02zm13.65.55L39 32.61c1.44-2.49 2.65-4.62 2.67-4.71.03-.11-.69-1.45-1.85-3.47-1.04-1.8-2.41-4.18-3.04-5.28l-1.14-2-2.63-.05-2.63-.05-1.14-2c-.62-1.1-1.18-2.08-1.24-2.18-.1-.16-.48-.17-6.32-.15l-6.23.03-.54 1c-.29.55-1.45 2.57-2.56 4.5s-2.23 3.87-2.49 4.32l-.47.82 2.39 4.13c1.31 2.27 2.68 4.65 3.03 5.28l.65 1.15 2.57.03 2.58.02.49.77c.27.42.86 1.43 1.32 2.24l.83 1.48 6.17.01h6.16zm-6.18-1.99-1.87-1.05-.38.26c-.26.18-.49.25-.69.23-.46-.05-10.35-5.68-10.48-5.96-.08-.17-.07-.36.02-.7.07-.26.09-.48.04-.49-.37-.13-3.73-2.17-3.73-2.28 0-.14.95-1.81 1.15-2.04.12-.13 1.4.53 3.72 1.91l.32.19.21-.41c.12-.23.19-.44.16-.47-.02-.03-.87-.53-1.87-1.12-1-.58-1.84-1.11-1.86-1.17-.04-.13 1.01-1.96 1.19-2.08.1-.06.71.23 2.07.98 1.06.59 1.94 1.06 1.95 1.04.01-.01.12-.2.24-.41l.21-.37-.37-.23c-.2-.13-1.08-.64-1.94-1.13-.87-.49-1.58-.93-1.58-.99 0-.17 1.23-2.15 1.35-2.15.05 0 .92.47 1.92 1.05 2.1 1.21 1.93 1.16 2.21.66l.23-.4-.73-.42c-2.28-1.32-3.08-1.82-3.08-1.91 0-.16 1.1-2.18 1.18-2.18.04 0 .95.49 2.02 1.09l1.94 1.09.25-.19c.6-.47.98-.31 5.46 2.26 6.19 3.56 5.7 3.21 5.7 4V23l1.75 1.01c.96.56 1.81 1.07 1.88 1.14.17.16-.93 2.24-1.18 2.25-.09 0-.98-.47-1.98-1.05s-1.86-1.05-1.91-1.05c-.15 0-.55.71-.45.79.11.1 3.04 1.81 3.52 2.05.17.09.32.21.32.27 0 .16-1.14 2.11-1.27 2.16-.06.02-.95-.43-1.96-1.01-1.02-.58-1.9-1.06-1.96-1.06-.2 0-.55.72-.4.81.08.05.93.54 1.89 1.1.96.55 1.79 1.05 1.84 1.09.14.14-1.13 2.32-1.31 2.25-.09-.03-.99-.53-2.01-1.1-1.7-.97-1.86-1.04-1.98-.88-.2.27-.38.63-.33.66.02.02.87.52 1.88 1.12 1 .6 1.85 1.14 1.88 1.21.06.17-1.05 2.14-1.21 2.14-.06 0-.95-.48-1.97-1.06Zm2.46-.07c.26-.45.49-.85.51-.88.02-.04-.76-.53-1.73-1.1-2.42-1.42-2.25-1.25-1.8-1.93.21-.31.41-.55.45-.53s.91.52 1.94 1.11c1.03.58 1.89 1.06 1.92 1.06.05 0 1.06-1.74 1.06-1.83 0-.03-.84-.53-1.87-1.13-1.04-.59-1.92-1.11-1.97-1.15-.1-.09.54-1.19.7-1.19.07 0 .97.49 2.02 1.09l1.89 1.08.52-.89c.59-1.03.59-1.03.29-1.19-.79-.4-3.68-2.13-3.66-2.18.21-.45.64-1.11.72-1.11.09 0 1.87.99 3.47 1.93l.47.28.51-.92c.28-.5.51-.95.51-.98s-.86-.55-1.91-1.15c-1.69-.96-1.89-1.1-1.84-1.3.04-.11.09-.28.11-.37.1-.35-.15-.68-.83-1.07-.37-.21-1.71-.99-2.98-1.72-6.01-3.49-6.53-3.73-7.09-3.29-.32.25-.19.31-2.37-.91-.99-.55-1.81-1-1.84-1-.02 0-.27.41-.54.92l-.5.92 1.22.71c.67.4 1.55.91 1.95 1.14l.72.42-.32.59c-.18.33-.37.6-.43.6-.05 0-.92-.47-1.93-1.05s-1.87-1.05-1.92-1.05c-.04 0-.33.4-.63.9l-.55.89 1.61.93c.89.5 1.79 1.02 2 1.15l.38.24-.27.47c-.46.8-.3.82-2.39-.34-1.05-.58-1.93-1.06-1.97-1.07-.06-.02-1.19 1.75-1.15 1.79.01.01.83.49 1.82 1.07.99.59 1.86 1.1 1.94 1.14.17.11-.36 1.23-.59 1.23-.08 0-.98-.47-1.99-1.05s-1.87-1.02-1.92-1c-.09.06-1.11 1.77-1.07 1.8.02.01.84.48 1.83 1.05 2.24 1.29 2.08 1.14 1.87 1.72-.23.65-.51.45 5.11 3.63 5.3 2.99 5.33 3 5.84 2.49l.27-.27.6.34c.34.18 1.17.66 1.86 1.05.69.4 1.3.73 1.37.73.06.01.32-.36.58-.82Zm-7.7-3.73c-4.7-2.61-5.95-3.35-5.95-3.51 0-.17.18-.48 3.73-6.62 2.27-3.94 2.2-3.81 2.28-3.81.06 0 4.77 2.62 6.78 3.77.58.33 1.09.66 1.14.74.11.18-5.72 10.37-5.98 10.46-.06.02-.96-.45-2-1.03Zm4.68-3.86c1.47-2.55 2.78-4.82 2.92-5.05l.25-.41-2.27-1.3c-4.25-2.41-5.44-3.05-5.53-2.96-.04.05-.83 1.4-1.75 2.99-.92 1.6-2.18 3.78-2.81 4.85-.62 1.07-1.15 2.02-1.18 2.1-.04.11.42.42 1.77 1.17 1 .57 2.7 1.52 3.77 2.13 1.07.6 2 1.1 2.05 1.1.06 0 1.31-2.08 2.78-4.62Z"/></svg>