<svg xmlns="http://www.w3.org/2000/svg" width="51" height="51" viewBox="0 0 51 51"><path fill="#fff" fill-rule="evenodd" stroke="#fff" stroke-width=".798" d="M13.63 38.09C11.52 35.9 11 35.34 11 35.25c0-.05 2.23-2.32 4.95-5.05 2.72-2.74 4.95-5.02 4.95-5.08s-.4-.52-.9-1.04l-.89-.93-.01-1.92V19.3l-.5-.55-.5-.55v2.83l-.67.71c-.36.39-.72.74-.79.79-.08.05-.93-.74-2.55-2.38-1.33-1.35-2.47-2.45-2.53-2.45s-.41.3-.78.67c-.85.84-.93.79-.72-.47.38-2.38 1.14-4.01 2.5-5.37 1.67-1.67 4.07-2.02 5.85-.84.4.27 3.91 3.74 5.14 5.09l.49.53-.54.54-.53.54 1.17 1.25 1.18 1.24 1.06-1.1c1.37-1.42 1.32-1.28.78-1.92-.25-.29-.46-.6-.46-.67 0-.2 5.28-5.43 5.69-5.64 1.18-.6 2.51-.72 3.64-.34 2.38.79 4.35 3.74 4.6 6.87.07.89-.1.92-.79.18-.3-.32-.58-.56-.63-.54-.05.01-1.23 1.13-2.61 2.47l-2.52 2.44-.76-.76-.77-.77v-3.02l-.53.58-.52.57v3.96l-.91.95c-.82.86-.89.97-.77 1.14.07.1 2.32 2.36 5.01 5.02 2.68 2.66 4.87 4.88 4.87 4.93 0 .12-2.09 2.31-3.25 3.39l-.93.88-5.04-5c-2.76-2.75-5.07-5-5.13-5-.05 0-2.38 2.28-5.17 5.07l-5.06 5.06zm11.71-8.89c.1 0 2.43 2.25 5.2 5l5.02 4.99 1.92-1.92c1.3-1.31 1.91-1.98 1.87-2.08-.03-.08-2.28-2.35-5-5.03s-4.95-4.94-4.95-5.02.42-.58.93-1.11l.92-.95v-3.96l.65-.69c.93-.98.9-1.01.9.89l.01 1.63.65.69.66.69 2.47-2.47c1.35-1.35 2.53-2.46 2.61-2.46s.38.23.67.52c.62.61.64.58.37-.83-.69-3.65-3.58-6.3-6.32-5.8-1.34.25-1.53.39-4.39 3.29l-2.61 2.66.49.54c.27.29.49.58.49.64 0 .05-.57.7-1.27 1.44l-1.27 1.35-.64-.63c-.35-.35-.96-.98-1.34-1.42l-.7-.78.53-.54.52-.53-1.7-1.78c-3.41-3.56-3.95-3.99-5.41-4.24-2.93-.52-5.8 2.55-6.37 6.8l-.07.55.57-.62c.31-.34.65-.62.74-.62s1.26 1.1 2.61 2.45l2.45 2.45.62-.62.63-.62v-1.63c0-.89.04-1.64.09-1.67.1-.07 1.41 1.28 1.42 1.47 0 .06.02.25.03.42s.03 1.01.04 1.89l.02 1.59.9.91c.5.51.9.99.9 1.07s-2.05 2.19-4.56 4.69c-2.5 2.5-4.73 4.76-4.96 5.03l-.4.47 1.91 1.98 1.9 1.99 5.04-5.04c2.77-2.76 5.12-5.03 5.21-5.03Z"/></svg>