<svg xmlns="http://www.w3.org/2000/svg" width="51" height="51" viewBox="0 0 51 51"><path fill="#fff" fill-rule="evenodd" stroke="#fff" stroke-width=".685" d="M33.05 50.98c-.42-1.23-.55-4.19-.26-5.78s.98-3.33 1.76-4.42c.19-.26.32-.48.27-.48-.04 0-.56.16-1.15.35-1.35.43-2.4.65-3.09.65-2.87-.01-6.11-2.86-7.53-6.63-.24-.66-.33-.64-.61.14-.36 1.03-.29 2.83.22 4.89.37 1.51.42 2.28.17 2.59-.33.4-.69.23-.99-.47-.69-1.6-.79-1.73-1.71-2.37-.48-.33-1.28-.99-1.79-1.47-.5-.49-.94-.88-.97-.88s-.31.48-.64 1.07c-.87 1.6-1.25 1.91-1.74 1.42-.16-.16-.2-.29-.16-.53.03-.17.13-.72.22-1.23l.16-.92-.46-.45c-.85-.85-1.77-3.14-1.61-4 .1-.52.97-1.38 1.88-1.86l.65-.34.06-1.46c.03-.8.15-2.15.27-3 .29-2.04.25-2.33-.48-4.06-.95-2.22-1.13-3.15-.78-3.99.4-.94 1.75-.82 2.66.23.37.44.41.45.46.25.95-3.52 4.07-6.73 7.28-7.49.43-.1.75-.22.73-.28-.06-.19-8.64-6.81-12.72-9.81-.51-.38-.74-.61-.64-.63.09-.01.58.29 1.09.67 1.08.81 1.07.81.91 0-.07-.33-.1-.63-.07-.66.13-.13.25.14.36.85.14.89-.08.65 1.84 2.06l.78.58-.07-.73c-.04-.41-.15-1.2-.25-1.77C16.97.25 16.96 0 17.05 0c.15 0 .29.69.5 2.45.09.72.19 1.33.23 1.36.04.04 1.6 1.25 3.47 2.7 1.87 1.44 3.77 2.92 4.21 3.27l.82.65 1.58.02c3.99.06 7.24 2.08 9.04 5.64l.32.65.19-.25c.34-.43 1.54-2.92 1.83-3.79l.28-.85-.46-.82C37.28 7.93 36.1 3.3 36.37.53c.1-.93.23-.56.23.61 0 2.14.46 4.59 1.25 6.71.47 1.24 1.63 3.58 1.74 3.51.05-.03.19-.59.32-1.23.58-2.91.07-7.36-1.08-9.33l-.14-.25.06.3c.59 2.73 1.2 6.44 1.08 6.56-.06.06-.23-.65-.47-2.03-.31-1.76-.78-4.12-1.03-5.16-.04-.18-.01-.22.19-.22.59 0 1.68 3.44 1.88 5.93.28 3.3-.68 7.19-2.52 10.23l-.55.92.18.58c.1.33.24.84.3 1.15.11.55.12.57 1.07 1.29 4.5 3.41 11.27 8.64 11.92 9.19.88.75.3.51-.77-.31-.59-.47-2.18-1.7-3.53-2.74s-2.92-2.26-3.5-2.7c-3.37-2.58-4.91-3.74-4.95-3.74-.03 0-.05.44-.05.98 0 4.94-2.97 8.97-7.62 10.37-.9.27-.98.31-1.04.58-.19.87-1.12 1.34-2.54 1.28-1.88-.08-2.24-.06-2.73.13-.54.2-.56.27-.28 1.09 1.15 3.34 3.97 6.02 6.46 6.15 1.09.06 1.68-.06 3.95-.8 1.81-.59 1.86-.62 2.46-1.17 3.09-2.9 8.03-3.88 12.31-2.44.86.28 2.08.86 2.18 1.03.14.23-.03.19-.78-.19-4.32-2.17-9.97-1.46-13.47 1.69l-.45.41.6-.08c5.42-.71 10.68 2.59 13.61 8.52l.54 1.09-.01 1.36c0 1.48 0 1.48-.5-.1-2.06-6.59-8.09-10.94-13.79-9.96-1.63.28-1.94.54-2.89 2.43-1.13 2.26-1.49 6.42-.76 8.75.07.2-.13.26-.2.06ZM.01 44.19c-.02-1.05 1.09-4.6 2.04-6.55 1.6-3.27 4.01-6.04 7.69-8.87.22-.17.35-.35.32-.43-.03-.09-3.17-4.33-4.01-5.42-.01-.02-.65.06-1.41.18-1.77.25-4.64.29-4.64.05 0-.13.27-.15 1.8-.15 1.5 0 3.83-.2 3.98-.35.03-.02-2.33-3.22-4.81-6.5-.82-1.1-1.17-1.69-.9-1.52.06.04.96 1.21 1.99 2.6 1.04 1.38 2.97 3.96 4.29 5.72 1.33 1.76 2.8 3.72 3.27 4.37l.87 1.16-1.41 1.13C4.3 33.43 1.77 37.35.45 43c-.38 1.61-.43 1.76-.44 1.19Zm22.67-2.62c.02-.36-.06-.95-.22-1.59-.62-2.6-.64-4.5-.05-5.65.26-.51.4-.69.58-.71.13-.02.25-.12.28-.22.1-.4.88-.64 2.21-.68 1.27-.04 1.35-.07 1.02-.37-.23-.21-.26-.57-.06-.74.16-.13.86-.26 2.25-.4a9.96 9.96 0 0 0 7.95-5.62c3.77-7.87-2.72-16.54-11.01-14.7-3.47.76-6.28 3.46-7.4 7.11-.3 1-.37 1.1-.53.8-.63-1.18-2.02-1.8-2.57-1.16-.52.61-.38 1.65.56 3.88.87 2.07.86 2.03.56 4.36-.15 1.09-.29 2.8-.32 3.82-.07 2.06.03 1.81-.98 2.64-1.28 1.06-1.27 2.61 0 3.96l.52.55-.2 1.17c-.21 1.26-.19 1.48.13 1.48.25 0 .6-.48 1.25-1.69.27-.51.55-.95.62-.98s.57.36 1.1.87c.54.5 1.37 1.18 1.86 1.51.96.66 1.22.98 1.63 2.04.46 1.19.77 1.31.82.32ZM19 31.6c-.91-.51-.96-.76-.5-2.49.46-1.71.82-1.72 2.83-.13.98.79 1 .95.25 1.69-1.33 1.29-1.69 1.41-2.58.93Zm1.26-.16c.56-.38 1.52-1.23 1.58-1.41.04-.09-.02-.25-.11-.36-.34-.38-2.14-1.67-2.34-1.67-.26 0-.54.62-.81 1.84-.25 1.09-.25 1.1.57 1.57.61.35.63.35 1.11.03Zm5.99-1.18c-4.47-.88-7.39-4.6-7.39-9.41-.01-4 1.75-6.88 5.17-8.5 5.38-2.55 11.83 1.01 12.78 7.05.99 6.33-4.56 12.03-10.56 10.86Zm4.05-.51c9.53-3.08 7.84-17.5-2.11-17.92-5.51-.24-9.67 4.3-9.1 9.92.06.66.07.61.13-.7.09-2.19.54-3.23 2.02-4.71 3.35-3.33 8.99-3.67 11.74-.71.2.21.3.24.67.19.8-.09 1.31.74.91 1.48-.12.21-.12.29.04.6.1.2.25.6.34.9 1.88 6.47-5.42 12.52-11.79 9.76-.68-.3-.5-.12.45.43 1.93 1.13 4.62 1.43 6.7.76Zm-2.23-.91c1.86-.38 2.03-.58 2.03-2.29 0-1.39-.22-1.73-1.65-2.52-.55-.31-1.12-.64-1.26-.75-.18-.12-.36-.16-.56-.12-.39.08-.83-.27-.83-.66 0-.21-.09-.35-.32-.51-.18-.13-.63-.52-1.02-.86-1.54-1.39-2.42-1.48-3.65-.38-.37.32-.62.45-.93.5l-.43.07.07.96c.09 1.2.46 2.69.87 3.51 1.17 2.3 4.64 3.68 7.68 3.05Zm5.09-3.03c1.81-2.18 2.34-5.29 1.3-7.57-.2-.44-.29-.54-.5-.54-.57 0-1.03-.7-.86-1.31.09-.31-.18-.63-1.14-1.28-3.2-2.2-7.81-1.48-10.79 1.68-1.04 1.11-1.81 2.63-1.24 2.45.48-.15.82-.39 1.66-1.17.48-.45 1.17-.99 1.52-1.2.36-.2.73-.5.82-.66.52-.89 2.11-1.07 2.97-.34.18.15.58.31.98.4 1.5.35 2.61 1.05 4.2 2.68 1.45 1.48 1.66 1.99 1.27 3.16-.08.24-.19.78-.24 1.21-.16 1.2-.67 2.45-1.57 3.84-.32.5 1.02-.62 1.62-1.35Zm-1.05-.13c.33-.65.79-2.16.79-2.59 0-.16.09-.65.21-1.09.28-1.08.08-1.83-.6-2.27-.16-.1-.51-.45-.79-.79-.95-1.15-2.39-2.04-3.97-2.44-.45-.11-.83-.27-.88-.36-.4-.71-2.21-.54-2.75.25-.12.19-.46.48-.74.63-.63.35-.92.56-1.96 1.51-.58.53-.98.81-1.32.92-.55.18-.6.26-.6 1.01 0 .73.33.76 1.12.09 1.34-1.14 2.32-1.1 3.75.18 1.21 1.08 1.53 1.31 1.65 1.19.41-.41 1.23.17 1.11.78-.04.23.05.31 1.14.92 1.7.96 1.98 1.31 2.1 2.73.06.7.07.74.28.69.13-.03.27.01.35.11.15.18.5-.28 1.11-1.47Zm-11.15.57c-.86-.79-1.43-3.85-.72-3.85.22 0 .32.21.51 1.05.09.44.32 1.25.51 1.8s.34 1.06.34 1.13c0 .2-.35.13-.64-.13Zm8.24-3.07c-.81-.55-.98-1.29-.42-1.79.96-.86 2.55.28 1.97 1.41-.32.62-.96.78-1.55.38Zm1.23-.3c.24-.28.22-.93-.03-1.18l-.21-.21-.23.27c-.26.31-.74.28-.83-.06-.07-.25-.19-.25-.33-.01-.45.85 1 1.91 1.63 1.19Zm-5.28-2.2c-.72-.39-1.06-1.07-.8-1.57.38-.74 1.32-.83 1.92-.17.83.9-.08 2.32-1.12 1.74Zm.93-.31c.32-.34.37-.76.13-1.14-.24-.39-.42-.42-.56-.11-.12.28-.6.36-.84.14-.35-.32-.45.34-.11.76.42.54 1.05.7 1.38.35Zm-10.85-1.31c-.61-.53-.21-1.56.61-1.56.68 0 1.08.63.81 1.27-.24.57-.93.71-1.42.29Zm34.63-.07c-4.35-.63-7.51-3.9-8.32-8.6-.14-.84-.13-1.16.05-1.04.05.02.11.33.15.67.47 4.66 4.58 8.76 8.78 8.78.42 0 .68.08.68.21 0 .11-.52.1-1.34-.02Zm-33.54-.16c.27-.24.23-.68-.09-.93-.45-.35-1.03-.08-1.03.49 0 .54.7.82 1.12.44Z"/></svg>