<svg xmlns="http://www.w3.org/2000/svg" width="51" height="51" viewBox="0 0 51 51"><path fill="#fff" fill-rule="evenodd" stroke="#fff" stroke-width=".781" d="M22.97 43.14C14.11 41.76 7.61 33.91 7.93 25c.24-6.54 3.79-12.17 9.57-15.14 8.65-4.44 19.24-1.13 23.78 7.44 2.14 4.04 2.69 9.89 1.16 12.2-.66.99-12.69 12.92-13.35 13.24-1.13.54-4.02.73-6.12.4Zm4.95-.29c1.76-.37 2.08-.74 2.92-3.35 1.08-3.4 2.07-5.13 4.05-7.11 1.79-1.78 3.03-2.49 5.66-3.24 2.6-.73 2.4-.43 2.39-3.7 0-2.6-.12-3.42-.84-5.56-3.56-10.71-16.71-15.16-26.14-8.85-11.36 7.62-10.1 24.45 2.29 30.37 3.01 1.44 6.94 2.03 9.67 1.44Zm10.21-9.15c3.16-3.21 4.37-4.54 4.37-4.81 0-.03-.33.05-.72.17-.4.12-1.15.34-1.67.49-3.31.91-6.37 3.63-7.96 7.07-.32.71-1.55 4.19-1.55 4.41 0 .15 3.61-3.36 7.53-7.33Zm-13.73.34c-3.41-.65-6.79-3.62-5.95-5.24.55-1.07 1.83-.95 2.74.25a5.54 5.54 0 0 0 4.41 2.19c1.7 0 3.02-.64 4.38-2.11.94-1.02 1.28-1.21 1.92-1.03 2.61.74-.22 4.71-4.1 5.75-.63.17-2.85.29-3.4.19Zm3.28-.44c3.1-.78 5.82-3.65 4.69-4.95-.52-.6-1.32-.43-2.03.44-1.4 1.69-2.74 2.36-4.74 2.36-1.9 0-3.03-.53-4.4-2.04-1.02-1.12-1.43-1.31-2.1-.96-1.06.55-.49 2.05 1.33 3.5 2.16 1.72 4.68 2.29 7.25 1.65Zm-7.83-8.64c-1.07-.46-1.69-2.18-1.3-3.61.77-2.86 3.85-2.29 4.03.75.11 1.98-1.32 3.48-2.73 2.86Zm10.17-.02c-1.73-.88-1.81-4.38-.12-5.24 1.51-.77 2.98.65 2.89 2.79-.09 1.85-1.5 3.1-2.77 2.45Zm1.55-.37c1.31-.88 1.34-3.68.05-4.52-1.03-.67-2.19-.13-2.57 1.2-.65 2.22.96 4.36 2.52 3.32Zm-10.26 0c1.54-1.04 1.28-4.32-.38-4.76-1.21-.32-2.13.65-2.21 2.34-.09 1.95 1.33 3.27 2.59 2.42Z"/></svg>