<svg xmlns="http://www.w3.org/2000/svg" width="51" height="51" viewBox="0 0 51 51"><path fill="#fff" fill-rule="evenodd" stroke="#fff" stroke-width=".749" d="M28.33 43.73c-.11-.15-.39-.64-.63-1.08-2.38-4.4-4.56-6.86-8.75-9.89-4.07-2.95-4.31-3.18-5.16-4.8-.29-.55-.86-1.54-1.26-2.19-.86-1.36-1.16-2.11-1.44-3.51-.17-.81-.28-1.12-.6-1.59-.71-1.08-.52-1.47 1.19-2.51 1.29-.78 1.77-1.23 1.67-1.57-.11-.37-.22-.46-.71-.59-.55-.16-.84-.5-.84-.99s.47-2.7.61-2.87c.37-.45 2.79-.64 3.67-.28 1.11.44 1.38 1.46.76 2.83-.13.29-.24.58-.24.63 0 .3 1.71-1.02 3.3-2.57 1.82-1.76 1.9-1.8 3.9-1.8 1.98 0 3.93.44 9.44 2.1 3.79 1.15 5.73 1.34 8.08.81 1.42-.32 1.7-.28 1.45.19-.37.72-2.15 1.7-4.4 2.44-3.51 1.15-5.31 1.21-9.49.31-6.75-1.44-10.32-.31-12.33 3.91-.79 1.66-.71 2.21.42 3.1.98.78 1.37 1.3 1.78 2.32 1.05 2.63 2.59 4.85 4.05 5.81 2.15 1.42 3.11 2.77 4.63 6.51 1.31 3.22 1.84 5.45 1.31 5.53-.15.02-.28-.06-.41-.25Zm.47-.11c-.01-1.06-2.13-6.71-3.17-8.44-.62-1.04-1.74-2.19-2.88-2.95-1.48-.99-2.38-2.18-3.66-4.83-.39-.8-.82-1.69-.96-1.98-.19-.39-.46-.69-.98-1.12-1.52-1.24-1.66-1.74-.97-3.38 1.92-4.58 5.84-5.91 12.82-4.37 3.99.89 5.85.82 9.31-.31 1.58-.51 2.82-1.11 3.65-1.74.83-.65.78-.7-.49-.4-2.44.58-4.52.39-8.21-.75-5.58-1.73-8.97-2.43-10.46-2.17-.99.18-1.44.46-2.59 1.62-2.76 2.8-4.59 3.74-3.65 1.88.9-1.77.18-2.73-2.06-2.73-1.73 0-1.88.1-2.17 1.4-.13.57-.22 1.25-.2 1.58l.02.59.59.24c.69.28.85.46.86.96 0 .45-.45.87-1.8 1.68-1.5.9-1.73 1.3-1.16 2.05.39.51.53.87.71 1.75.31 1.61.5 2.06 1.55 3.7.37.58.89 1.47 1.15 1.98.77 1.5 1.03 1.74 5.1 4.7 3.8 2.75 4.93 3.91 7.1 7.22.9 1.38 1.23 1.92 2.12 3.48.21.37.43.55.43.34Zm-.26-4.43c-.29-.32-.24-1.71.1-3.22.72-3.11 1.94-6.21 4.27-10.82.97-1.92 1.93-3.9 2.13-4.39.97-2.33 1.48-2.87 2.49-2.56.61.18.97.59.97 1.1 0 .93-1.18 3.55-2.6 5.75-2.48 3.86-3.07 4.85-3.69 6.17-.65 1.38-2.13 5.14-2.63 6.66-.5 1.53-.66 1.73-1.04 1.31Zm.77-1.35c.46-1.4 2.14-5.61 2.73-6.86.5-1.05 1.7-3.05 3.46-5.78 1.86-2.89 2.97-5.44 2.69-6.17-.11-.29-.65-.63-1.01-.63-.73 0-1.01.36-1.94 2.51-.35.82-1.38 2.95-2.28 4.72-2.62 5.17-4.16 9.49-4.33 12.14-.1 1.63.16 1.66.68.07Zm-3.12-3.56c-.39-.73.44-5.72 1.36-8.1.74-1.91 3.4-6.98 3.94-7.5.88-.83 2.43-.45 2.27.56-.12.74-1.34 3.11-3.17 6.18-1.58 2.63-2.44 4.57-3.3 7.44-.23.76-.46 1.45-.51 1.52-.16.19-.46.14-.59-.1Zm.86-1.53c.89-2.97 1.69-4.73 3.55-7.85a67 67 0 0 0 2-3.63c1.17-2.31 1.18-2.61.12-2.74-.95-.11-1.08.03-2.74 3.19-2.56 4.89-3.18 6.81-3.57 11.05-.17 1.89.07 1.87.64-.02Zm-3.54-2.19c-.44-.53-.35-2.01.25-4.1.77-2.67 2.78-7.4 3.52-8.28.37-.44 1.29-.41 1.67.04.49.58.33 1.06-1.95 5.53-1.55 3.03-2.06 4.17-2.61 5.75-.42 1.23-.58 1.42-.88 1.06Zm.89-1.86c.28-.74 1.37-3.06 2.41-5.15 2.35-4.72 2.46-5.1 1.59-5.36-.75-.23-.89-.09-1.83 1.8-2.13 4.26-3.48 8.98-2.93 10.26l.08.2.09-.2c.04-.11.31-.81.59-1.55Zm-3.44-2.02c-.62-.89.74-6.76 2.04-8.78.43-.67 1.14-.89 1.79-.55.61.31.56.65-.33 2.37-.88 1.71-1.5 3.19-2.21 5.28-.29.85-.56 1.63-.6 1.73-.1.24-.51.21-.69-.05Zm1.03-1.74c.59-1.8 1.52-4 2.32-5.5.82-1.54.78-1.94-.18-1.94-.57 0-.81.23-1.28 1.24-1.19 2.53-2.17 7.05-1.69 7.75.22.3.21.31.83-1.55Z"/></svg>