<svg xmlns="http://www.w3.org/2000/svg" width="51" height="51" viewBox="0 0 51 51"><path fill="#fff" fill-rule="evenodd" stroke="#fff" stroke-width=".769" d="M8.71 40.53c-.23-.2-.35-.42-.42-.73-.11-.59-.11-24.89 0-26.06.21-2.14 1.17-3.01 3.55-3.25 1.33-.13 27.02-.02 28.06.12 1.79.25 2.81 1.14 3.16 2.78.17.81.2 17.39.04 18.56-.32 2.16-1.46 3.08-3.9 3.12-.74.01-4.57.07-8.5.13-9.15.15-11.49.23-12.18.44-.34.11-1.55.86-3.6 2.23-4.31 2.9-5.42 3.37-6.21 2.66Zm2.11-.45c.95-.45 1.97-1.09 4.43-2.78 2.3-1.58 2.82-1.86 3.74-2.05.66-.14 5.97-.27 16.91-.43l4.65-.07.57-.28c.98-.48 1.49-1.26 1.68-2.53.17-1.2.13-17.56-.05-18.49-.29-1.51-1.18-2.3-2.9-2.54-1.02-.14-27.17-.25-28.2-.11-1.21.15-1.72.36-2.26.9-.85.85-.79-.23-.79 14.92v13.39l.26.26c.34.34.96.28 1.96-.19Z"/></svg>