<svg xmlns="http://www.w3.org/2000/svg" width="51" height="51" viewBox="0 0 51 51"><path fill="#fff" fill-rule="evenodd" stroke="#fff" stroke-width=".706" d="M16.65 40.84c-1.18-.42-1.97-1.77-1.74-3 .49-2.63 3.93-3.1 5.05-.69.97 2.08-1.16 4.45-3.31 3.69Zm21.14.02c-2.01-.71-2.54-3.28-.97-4.61 1.75-1.48 4.39-.27 4.4 2.01.01 1.81-1.8 3.18-3.43 2.6Zm1.88-.42c2.16-1.02 1.55-4.32-.85-4.61-2.26-.26-3.56 2.47-1.98 4.15.76.82 1.73.97 2.83.46Zm-21.36.14c1.69-.5 2.22-2.87.92-4.1-1.55-1.47-4.12-.35-4.13 1.8 0 1.69 1.55 2.8 3.21 2.3Zm7.19-4.04c-7.84-1.39-13.29-6.96-14.25-14.56-.45-3.63-1.31-5.2-3.4-6.22-.7-.35-2.01-.76-2.41-.76-.44 0-.46-.16-.37-2.37l.08-2.08.48-.03c1.03-.07 2.87.43 4.37 1.18 3.17 1.59 5.12 4.76 5.7 9.29.51 3.94 2.36 7.09 5.31 9.04 7.31 4.83 17.07.52 18.55-8.19.1-.54.22-1.04.28-1.11.14-.16 3.57-.28 4.01-.15l.3.09-.01.79c-.02 1.01-.25 2.17-.76 3.69-1.9 5.74-6.29 9.76-12.13 11.11-1.16.27-4.81.44-5.75.28Zm5.34-.44c7.03-1.51 12.13-7.02 13.06-14.13.17-1.27.33-1.18-1.97-1.15l-1.97.03-.12.75c-1.56 10.11-13.63 14.24-20.74 7.11-2.12-2.13-3.16-4.32-3.59-7.51-.54-4.07-1.88-6.69-4.35-8.55-1.31-.97-4.06-1.95-5.52-1.95H5.3v4l.28.06c1.9.43 2.88.9 3.81 1.82 1.14 1.13 1.67 2.35 1.96 4.47.86 6.3 3.26 10.19 8.11 13.1 3.32 1.99 7.7 2.75 11.38 1.95Zm-5.09-5.65c-1.69-.31-2.65-.8-2.65-1.34 0-.29 3.92-7.25 4.32-7.68.55-.59.92-.27 2.11 1.82.46.83 1.32 2.33 1.91 3.34 1.52 2.64 1.51 2.72-.27 3.36-1.75.63-3.76.81-5.42.5Zm3.92-.31c.88-.18 2.22-.67 2.53-.92s.23-.47-.97-2.55c-.58-1-1.44-2.49-1.9-3.32-1.49-2.62-1.31-2.64-3.09.45-3.38 5.89-3.14 5.38-2.62 5.7 1.29.8 3.94 1.08 6.05.64Zm-9.33-2.5c-1.65-1.67-2.86-4.09-3-5.98-.07-.89 0-.98.78-1.08 1.23-.15 6.89.01 7.18.21.5.36.4.59-2.18 5.06-1.66 2.85-1.7 2.88-2.78 1.79Zm1.29.2c.21-.24 2.75-4.61 3.47-5.97.56-1.06.72-1.01-3.6-1.05-4.23-.03-4.05-.07-3.96.8.23 1.97 1.3 4.12 2.85 5.7.85.86.91.89 1.24.52Zm12.2-.16c-.21-.23-1.42-2.31-2.81-4.84-1.2-2.18-1.16-2.24 1.9-2.31 2.72-.06 4.59.06 4.88.32.77.7-1.02 4.92-2.78 6.58-.57.53-.87.59-1.19.25Zm.66-.12c1.03-.54 2.54-3.1 3.07-5.23.41-1.6.7-1.47-3.36-1.51-3.45-.03-3.7-.01-3.7.4 0 .28 3.06 5.83 3.48 6.31.18.21.16.2.51.03Z"/></svg>