<svg xmlns="http://www.w3.org/2000/svg" width="51" height="51" viewBox="0 0 51 51"><path fill="#fff" fill-rule="evenodd" stroke="#fff" stroke-width=".739" d="M8.9 50.51c0-4.24-3.8-8.19-8-8.33l-.75-.03-.03 1.7c-.03 2.41-.09 2.46-.11.09L0 41.92l.26-.05c.47-.09 1.86.13 2.8.44 2.54.84 4.56 2.79 5.55 5.33.5 1.29.78 3.56.44 3.56-.12 0-.15-.14-.15-.69Zm3.5.07C12.39 44.3 6.75 38.61.53 38.6H0v-3.65c0-3.25.02-3.66.16-3.72.26-.1 2.71.17 3.99.43 7.72 1.63 13.61 7.54 15.2 15.24.32 1.59.47 4.3.23 4.3-.13 0-.16-.26-.21-1.52-.28-7.7-5.6-14.7-13.02-17.13-1.84-.61-4.22-1.05-5.62-1.05H.2v6.77l.78.07c5.18.46 9.44 3.74 11.03 8.47.56 1.67.9 4.39.55 4.39-.13 0-.16-.11-.16-.62Zm10.8-.36c0-4.73-2.06-10.27-5.26-14.12-4.12-4.97-10.99-8.3-17.1-8.3H0v-7.4h26.2v-.39c0-5.17 4.36-9.58 9.76-9.88 5.74-.31 10.84 4.25 10.84 9.68v.59H49c1.89 0 2.2.02 2.2.15s-.31.15-2.19.15h-2.19l-.07.58c-.33 2.7-1.81 5.41-3.82 7.02-6.23 5-15.32 1.4-16.61-6.58l-.16-1.02-10.76.01c-9.63.01-10.67.02-9.95.15C19.59 23.38 30.5 35.97 30.5 49.77c0 1.91-.16 1.82-.24-.15-.48-10.66-6.15-19.9-15.43-25.16-3.81-2.15-9.53-3.76-13.4-3.76H.2v6.77l1.08.06c12.15.7 21.65 10.22 22.19 22.25.05 1.28.04 1.42-.1 1.42-.15 0-.17-.13-.17-.98ZM39.05 30c3.45-.94 6.02-3.52 7.12-7.15.37-1.24.4-3.93.05-5.18-2.55-9.14-15.6-9.83-19.07-1.02-2.34 5.93 1.46 12.42 7.95 13.59.69.12 3.17-.02 3.95-.24Zm-4.33-5.9c-.49-.21-.54-.55-.5-4.07l.03-3.25.28-.24c.52-.45.66-.38 3.18 1.5 2.45 1.81 2.64 2.01 2.41 2.5-.1.22-1.46 1.28-4.08 3.19-.56.4-.96.52-1.32.37Zm1.14-.59c1.76-1.19 3.99-2.97 4.02-3.22.04-.31.13-.23-2.43-2.13-3.1-2.3-2.95-2.41-2.95 2.05 0 3.16.01 3.3.2 3.49.29.29.5.25 1.16-.19ZM9.01 15.33c-.96-.47-1.18-1.82-.44-2.64 1.09-1.21 3.06-.33 2.91 1.31-.11 1.17-1.39 1.86-2.47 1.33Zm5.42.02c-.52-.22-.93-.88-.93-1.49 0-1.57 1.76-2.32 2.86-1.22 1.31 1.31-.22 3.46-1.93 2.71Zm5.16-.08c-.65-.43-.95-1.39-.65-2.1.78-1.85 3.59-1 3.22.98-.21 1.08-1.67 1.72-2.57 1.12Zm-8.97-.29c.78-.55.78-1.75.01-2.32-.87-.65-2.23.03-2.23 1.12 0 1.2 1.27 1.88 2.22 1.2Zm5.27.03c.9-.64.91-1.79.01-2.39-.71-.48-1.73-.12-2.05.72-.48 1.25.97 2.44 2.04 1.67Zm5.36-.01c.76-.47.86-1.54.21-2.19-.84-.84-2.36-.24-2.36.94 0 1.25 1.11 1.89 2.15 1.25Z"/></svg>