<svg xmlns="http://www.w3.org/2000/svg" width="51" height="51" viewBox="0 0 51 51"><path fill="#fff" fill-rule="evenodd" stroke="#fff" stroke-width=".733" d="M12.29 51.01c.19-.36 1.08-1.06 1.93-1.53.59-.33.92-.58 1.06-.81.17-.3.26-.35.83-.44.99-.17 1.19-.27 1.19-.62 0-1.3 1.12-3.51 1.78-3.51.09 0 .3.13.47.29.24.24 1.71.81 2.07.81.03 0 .16-.21.28-.46s.36-.55.52-.67l.3-.22-4.59-.05c-4.3-.05-4.63-.07-5.35-.27-1.9-.53-2.8-1.05-4.14-2.38C6.6 39.13 6.4 38.3 6.4 31.8c0-4.58.15-10.63.31-12.33.37-4.14 2.22-6.09 6.19-6.53.36-.04 1.89-.1 3.42-.13l2.76-.06-.96-1.64c-1.06-1.81-1.21-2.35-.88-2.99.51-.98 1.92-1.05 2.65-.14.31.4 2.2 3.45 2.66 4.3l.28.52h5.44l1.29-2.16c1.63-2.73 1.88-3.05 2.41-3.22.9-.29 1.92.34 2 1.25.06.62-.06.91-1.15 2.75-.45.75-.82 1.39-.82 1.42s1.27.06 2.83.06c3.8.01 4.86.16 6.45.92 2.13 1.01 3.1 2.93 3.31 6.52.31 5.18.33 6.24.29 11.16-.05 4.75-.07 5.22-.26 6.1-.59 2.64-2.48 4.66-5.25 5.59-1.77.6-2.39.66-7.03.66l-4.21-.01.43.91c.49 1.02.49 1.02 1.64.9.61-.07.68-.1 1.06-.52l.42-.45.53.28c.76.42 1.42 1.12 1.84 1.97l.37.74.81.19c1.98.44 3.23 1.48 3.56 2.94.13.61-.18.51-.33-.1-.33-1.28-1.41-2.12-3.26-2.55a16 16 0 0 1-.85-.2c-.06-.01-.28-.37-.49-.79-.49-1-1.66-2.17-1.66-1.67 0 .17-.55.63-1.14.95-.56.31-.97.42-2.36.62-.25.03-.67.15-.93.25-.55.22-.67.23-.67.09s.8-.48 1.3-.56c.63-.1.64-.13.32-1-.34-.92-.71-1.66-.72-1.42 0 .26-.46.56-1.08.69-.64.13-4.42.03-4.42-.12 0-.05.18-.09.39-.09.61 0 .71-.07.71-.51 0-.38 0-.38-.32-.32-.74.13-1.09.52-1.34 1.47-.24.9-.21 1.01.33 1.12.31.06.49.15.51.25.04.24-1.06-.07-1.68-.46-.59-.37-1.92-1.38-2.09-1.59-.34-.4.05-.23.91.41 1.61 1.2 1.55 1.18 1.65.6l.05-.35-.73-.22c-1.05-.3-1.24-.38-1.5-.66-.3-.32-.42-.3-.75.09-.55.65-.86 1.49-1.09 3-.07.44-.36.61-1.37.79-.49.09-.61.15-.73.38-.09.18-.47.47-1.02.79-1.06.61-1.67 1.08-.78.6.92-.49 1.94-1.09 2.32-1.35.19-.13.51-.26.72-.29.2-.04.46-.11.58-.17.31-.15.4-.03.18.22-.11.12-.31.2-.49.2-.35 0-.48.07-2.04 1.02-1.94 1.18-2.88 1.57-2.63 1.09Zm11.86.02c.23-.6.26-1.2.1-1.83-.09-.36-.19-.75-.22-.87-.03-.13-.01-.23.05-.23.14 0 .42.75.49 1.31.03.26.09.52.13.58.1.18.8.26.9.11.1-.16.31-.04.24.15-.03.07.03.18.14.24.17.09.2.06.25-.32.08-.58.55-2.05.68-2.13.21-.13.2.06-.04.78-.14.4-.31 1.1-.37 1.56-.09.57-.16.82-.26.82-.08 0-.14-.08-.14-.18 0-.21-.52-.49-1.09-.58-.39-.06-.4-.06-.51.35-.07.26-.17.41-.26.41-.11 0-.14-.05-.09-.17Zm12.56-.2c-.59-.59-1.95-1.63-2.13-1.63s-.38-.28-.38-.54c0-.22.17-.2.25.02.03.09.38.33.77.52 1.05.52 1.8 1.08 1.73 1.29-.03.11.03.25.15.36.11.1.2.22.2.27 0 .17-.26.04-.59-.29Zm-3.14-.49c-.32-.42-.57-.8-.57-.84 0-.2.2-.19.31.02.07.12.34.5.6.84.53.66.56.74.36.74-.08 0-.39-.34-.7-.76Zm-13.41-.03c-.04-.06.05-.13.21-.17.86-.19.93-.28.93-1.12 0-.89-.07-.99-.51-.76-.42.22-2.19.27-2.26.07-.04-.1.18-.13.85-.13.8 0 .96-.03 1.46-.3.69-.36.69-.36.7.96.01.87-.01.95-.24 1.18-.27.28-1.03.45-1.14.27Zm9.92-1.47c-.34-.18-.38-.4-.05-.29.36.13 1.31.16 1.46.06.49-.32-1.02-.94-1.63-.66-.14.06-.17.04-.14-.11.12-.63 2.18.02 2.18.68 0 .41-1.25.63-1.82.32Zm.22-2.35.25-.07-.27-.01c-.16-.01-.28-.05-.28-.11 0-.1.23-.13.71-.11.34.03 1.23-.58 1.27-.86.05-.33-.29-.34-.5-.01-.28.45-.59.58-1.52.65-.7.05-.86.09-.81.2.03.08.05.23.05.34 0 .2.4.19 1.1-.02Zm-3.36-1.9c.03-.17.06-.48.06-.68v-.37l4.78.01c5.73 0 6.65-.11 8.57-1.07 2.67-1.34 3.89-3.22 4.16-6.43.22-2.67 0-14.56-.32-17.1-.39-3.08-1.73-4.67-4.57-5.42-.95-.25-2.63-.34-7.5-.42-.59-.01-.57-.09.53-1.96.53-.9 1-1.78 1.05-1.96.28-.96-.85-1.89-1.76-1.46-.39.19-.57.46-2.27 3.27l-1.23 2.05-2.87.03c-2.65.02-2.87.01-2.97-.15-.51-.9-2.35-3.91-2.67-4.39-.63-.92-1.35-1.18-2.04-.71-.76.51-.71 1.15.26 2.77.97 1.64 1.25 2.16 1.25 2.34 0 .14-.26.16-2.47.16-4.97 0-6.77.41-8.19 1.86-1.76 1.77-1.95 3.32-1.96 15.29-.01 5.73.01 6.7.16 7.4.52 2.55 2.79 4.73 5.81 5.57.77.22.98.23 5.88.26l5.08.03.09.25c.06.14.1.42.1.63 0 .52-.03.51 1.55.51h1.43zM22.21 34.3c-1.35-.28-2.61-1.98-2.61-3.52 0-1.25 1.17-1.21 1.6.06.76 2.3 2.21 2.46 3.3.36.67-1.28 1.48-1.35 2.03-.18.82 1.72 1.78 2.13 2.72 1.14.23-.23.49-.64.59-.91.47-1.32.76-1.62 1.31-1.37.46.21.59.55.46 1.2-.62 3.08-3.7 4.34-5.58 2.28l-.48-.53-.45.5c-.71.8-1.84 1.18-2.89.97Zm1.55-.38c.59-.21.98-.5 1.44-1.1l.33-.43.55.61c1 1.12 2.24 1.4 3.4.76 1.21-.67 2.34-2.95 1.73-3.5-.36-.32-.66-.15-.91.52-.49 1.35-.8 1.76-1.54 2.07-.87.36-1.66-.12-2.35-1.44-.66-1.28-1.09-1.25-1.76.13-.98 1.97-2.71 1.86-3.55-.23-.43-1.06-.43-1.06-.81-1.06-1.01 0-.08 2.66 1.2 3.42.77.46 1.44.53 2.27.25ZM13.6 28.59c-1.28-.51-1.37-2.5-.13-3.12 1.35-.68 6.54-2.37 7.28-2.37 1.1 0 1.76 1.25 1.26 2.37-.25.55-.45.66-2.13 1.23-.79.26-2.37.82-3.51 1.24-2.11.77-2.33.82-2.77.65Zm23.2.04c-.08-.03-1.12-.4-2.3-.83s-2.73-.97-3.45-1.2c-1.78-.59-2.24-1.13-1.95-2.27.36-1.44.94-1.52 3.95-.57 3.44 1.08 5.07 1.77 5.4 2.27.75 1.15-.44 3.03-1.65 2.6Zm-19.93-1.17c1.42-.51 3.02-1.08 3.55-1.26 1.06-.34 1.33-.56 1.44-1.16.17-.91-.32-1.64-1.09-1.64-.72 0-6.07 1.73-7.24 2.34-.87.44-.9 1.8-.07 2.45.41.33.66.27 3.41-.73Zm20.97.64c.61-.54.73-1.55.25-2.06-.6-.64-7.2-2.83-7.93-2.63-.66.18-1.02 1.05-.76 1.84.16.5.28.56 2.97 1.5 1.31.45 2.87 1.01 3.48 1.23 1.34.5 1.54.51 1.99.12Z"/></svg>