<svg xmlns="http://www.w3.org/2000/svg" width="51" height="51" viewBox="0 0 51 51"><path fill="#fff" fill-rule="evenodd" stroke="#fff" stroke-width=".489" d="M30.75 41.26c-.72-.18-1.31-.51-1.87-1.04-.64-.6-.8-.88-1.81-3.22-.47-1.07-2.15-4.88-3.74-8.45-1.6-3.57-3.44-7.71-4.09-9.2l-1.19-2.7v-1c0-.89.03-1.07.28-1.6 1.26-2.69 5.05-2.94 6.69-.44.19.3 1.22 2.52 2.28 4.94 1.97 4.5 5.39 12.15 6.79 15.2 1.14 2.48 1.16 2.54 1.16 3.7 0 .92-.03 1.06-.32 1.67-.77 1.64-2.58 2.56-4.18 2.14Zm-12.03-.34c-.72-.26-1.57-.87-2.05-1.47-.44-.56-.48-.62-2.1-4.3-.63-1.43-1.84-4.11-2.67-5.95-.84-1.84-2.05-4.54-2.7-6-.64-1.46-1.49-3.32-1.87-4.15-.82-1.75-.97-2.31-.91-3.3.23-3.56 4.67-5.03 7.23-2.4.59.6.58.58 3.29 6.7 1.12 2.53 3.04 6.81 4.26 9.5s2.36 5.24 2.53 5.65c.9 2.17 0 4.54-2.1 5.56-.76.37-2.1.44-2.91.16Zm14.23-.13c1.27-.6 2.08-1.87 2.08-3.29 0-1-.11-1.34-1.1-3.5-.47-1.02-1.31-2.89-1.88-4.15s-1.36-3.04-1.78-3.95c-.41-.91-1.65-3.72-2.76-6.25s-2.17-4.92-2.36-5.31c-1.66-3.41-6.42-2.76-6.91.94-.13.97-.16.89 5.99 14.67 1.54 3.46 3.05 6.89 3.34 7.6.75 1.81 1.1 2.32 2.03 2.96s2.34.76 3.35.28Zm-12.1-.03c1.77-.47 2.87-1.82 2.93-3.61.05-1.1-.05-1.41-1.16-3.86-2.91-6.37-6.1-13.5-7.52-16.75-1.01-2.3-1.19-2.62-1.84-3.22-2.32-2.14-6.13-.87-6.56 2.17-.14 1.02.02 1.65.95 3.65.46 1 1.28 2.82 1.83 4.06s1.67 3.74 2.49 5.55c.83 1.81 2.03 4.49 2.67 5.95.65 1.46 1.35 3.02 1.56 3.47.96 2.04 2.83 3.08 4.65 2.59ZM35.9 27.7c-2.52-.53-4-3.36-2.94-5.61 1.81-3.82 7.45-2.85 7.71 1.33.17 2.67-2.22 4.81-4.77 4.28Zm2.3-.52c2.75-1.26 3.04-5.06.52-6.66-2.53-1.61-5.82.19-5.82 3.18 0 2.75 2.83 4.61 5.3 3.48Zm1.68-7.77c-3.21-1.06-3.6-5.56-.6-7.03.93-.46 2.44-.49 3.34-.06.74.34 1.52 1.12 1.86 1.86.42.89.4 2.42-.05 3.27-.87 1.68-2.83 2.53-4.55 1.96Zm2.67-.41c2.21-1.07 2.71-4.02.97-5.73-1.43-1.4-3.74-1.38-5.07.04-1.69 1.8-1.02 4.88 1.25 5.77.78.31 2.13.27 2.85-.08Z"/></svg>