<svg xmlns="http://www.w3.org/2000/svg" width="51" height="51" viewBox="0 0 51 51"><path fill="#fff" fill-rule="evenodd" stroke="#fff" stroke-width=".773" d="M20.3 42.33c-1.25-.07-1.27-.14-.74-2.36.19-.82.34-1.5.32-1.51-.02-.02-.39-.15-.83-.3-2.69-.93-5.95-3.52-5.95-4.72 0-.39.58-.95 2.38-2.32 1.58-1.19 1.52-1.19 2.65.03 2.65 2.85 6.88 3.93 9.84 2.49 1.51-.73 2.31-2.38 1.71-3.54-.46-.9-1.22-1.24-4.85-2.15-4-1.01-5.65-1.8-7.02-3.39-1.44-1.66-1.72-4.53-.69-7.01 1.12-2.71 4.36-4.81 8.04-5.21l.62-.06.12-.62c.3-1.54.54-2.4.71-2.57.26-.26 5.1-.29 5.47-.03.29.2.29.53-.04 2.33-.14.79-.24 1.45-.22 1.46.02.02.39.17.84.34 2.44.94 5.06 3.26 4.6 4.08-.15.27-1.32 1.31-2.39 2.14-1.03.8-1.28.85-1.73.38a8.5 8.5 0 0 0-6.24-2.72c-2.81-.01-4.59 1.06-4.6 2.75 0 1.52.76 1.95 5.5 3.13 2.58.65 3.98 1.16 5.04 1.85 2.01 1.31 2.91 3.01 2.91 5.5-.01 4.59-3.24 7.8-8.75 8.67l-1.09.17-.12.56c-.22 1.09-.58 2.23-.76 2.41-.19.2-2.92.33-4.73.22Zm4.08-.29.52-.07.24-.76c.13-.42.29-1.07.36-1.46.16-.9.17-.91.99-.99 5.31-.49 9.02-3.99 9.01-8.5-.01-3.83-1.97-5.58-7.9-7.06-4.29-1.06-5.36-1.63-5.55-2.95-.3-1.99 1.46-3.33 4.5-3.42 2.64-.09 4.55.63 6.37 2.4.47.45.73.64.86.6.22-.05 1.67-1.2 2.67-2.09l.68-.62-.13-.33c-.42-1.02-2.84-2.76-4.8-3.45-.78-.28-.75-.13-.36-2.33.15-.84.25-1.6.22-1.67-.05-.12-.51-.14-2.68-.12l-2.63.03-.12.36c-.06.2-.23.91-.36 1.58-.14.67-.27 1.25-.31 1.28-.03.03-.47.12-.98.19-4.97.73-8.01 3.58-8.16 7.64-.14 4.07 1.89 5.88 8.38 7.44 3.94.95 4.93 1.59 4.94 3.2.02 2.3-2.66 3.89-5.98 3.55-2.75-.28-4.8-1.42-6.78-3.77-.14-.18-.31-.32-.37-.32-.15 0-2.43 1.74-3.13 2.39-.68.63-.69.68-.22 1.32 1.09 1.49 3.74 3.26 5.82 3.89.39.12.72.26.72.31 0 .04-.16.74-.35 1.55-.45 1.89-.46 2.11-.02 2.17.55.07 3.99.07 4.55.01Z"/></svg>