<svg xmlns="http://www.w3.org/2000/svg" width="51" height="51" viewBox="0 0 51 51"><path fill="#fff" fill-rule="evenodd" stroke="#fff" stroke-width=".465" d="M9.81 47.04c-2.52-.52-4.73-2.6-5.5-5.19-.27-.93-.41-30.72-.15-31.99.54-2.61 2.41-4.69 5-5.55l.92-.31h15.39c16.84 0 15.75-.04 17.23.59 1.96.82 3.45 2.41 4.17 4.46l.28.8.03 15.4c.03 17.31.09 16.01-.73 17.7-.97 1.99-2.44 3.26-4.6 3.96l-.7.23H25.76c-11.14.01-15.55-.02-15.95-.1Zm31.9-.37c1.6-.53 1.53-.43 1.7-2.47.32-3.93-.81-7.77-2.86-9.68-2.02-1.88-4.39-2.43-10.35-2.4-3.82.02-4.16-.03-5.79-.83-2.21-1.09-3.29-2.99-3.51-6.19-.31-4.35-1.44-6.38-3.78-6.75-.23-.04-.42-.12-.42-.17 0-.16-1.91-.02-3.1.22-2.73.56-6.04 2.2-8.5 4.22l-.65.54-.05 8.79c-.07 9.9-.09 9.51.67 11.05.87 1.76 2.64 3.21 4.5 3.68.98.25 31.39.24 32.14-.01Zm-14.01-.82c-.15-.18-.05-.65.14-.65.26 0 .4.28.28.55-.13.29-.24.31-.42.1Zm16.67-.62c1.09-.91 2.03-2.41 2.39-3.81.18-.74.2-1.43.17-6.79l-.03-3.93-.47.08c-.27.04-1.22.07-2.13.07-4.59-.01-8.87-2.09-17.49-8.53-3.74-2.79-6.51-4.11-8.66-4.12h-.4l.51.24c1.67.78 2.6 2.7 2.85 5.91.29 3.82 1.11 5.5 3.24 6.61 1.52.81 1.99.87 6.45.89 3.15.01 4.01.05 4.75.19 4.64.87 6.58 2.67 7.71 7.11l.38 1.5.01 2.15c0 1.18-.04 2.37-.08 2.64-.1.57-.16.59.8-.21Zm-12.97.13c0-.13-.07-.26-.15-.3-.08-.03-.15-.1-.15-.16 0-.05.07-.1.15-.1s.15.04.15.1c0 .05.06.07.14.04.17-.06.31.12.16.21-.05.03-.1.15-.1.26 0 .1-.04.19-.1.19-.05 0-.1-.11-.1-.24Zm-3.37-.73c-.07-.02-.13-.14-.13-.25 0-.16.03-.18.14-.09.07.06.21.09.3.05.1-.04.16-.01.16.09 0 .12-.24.31-.33.26-.01 0-.08-.03-.14-.06Zm18.32-14.12.5-.06.08-9.25c.04-5.09.05-9.67.03-10.17-.18-3.17-2.32-5.73-5.51-6.59-.67-.18-30.96-.21-31.72-.03C7.22 5 4.97 7.29 4.45 9.78c-.16.77-.21 10.35-.07 12.19l.07.81 1.1-.84c3.62-2.76 7.17-4.07 10.96-4.06 3.84.01 5.91.83 10.26 4.08 2.2 1.64 5 3.57 7.22 4.99 4.76 3.02 8.34 4.05 12.36 3.56ZM33 23.06c0-.25.05-.57.12-.71.09-.2.08-.36-.08-.8-.19-.56-.15-.83.14-.93.19-.06.37.44.23.62-.09.11-.1.24-.02.51.07.26.07.45-.01.63-.06.15-.12.45-.12.66-.01.58-.26.6-.26.02Zm11.06-1.32c-.21-.2-.2-.31.03-.44.25-.13.51-.03.51.21 0 .28-.35.43-.54.23Zm-12.44-.76a.28.28 0 0 1 .26-.26c.27-.04.28.01.05.28-.23.26-.35.25-.31-.02Zm2.29.08c-.11-.13.02-.94.22-1.33.21-.4.3-.9.18-.97-.06-.04-.13.1-.16.31-.15.9-.34.87-.31-.04.02-.74.19-.92.53-.57.16.16.18.15.25-.14.15-.58.58-.53.58.08 0 .22.07.58.16.81.18.44-.06.93-.37.74-.09-.06-.08-.11.05-.21.16-.11.16-.17.05-.51-.23-.68-.23-.68-.73.6-.32.83-.33.97-.03.94.12-.01.26-.05.32-.1.06-.04.31-.21.57-.38 1.72-1.11 2.04-4 .62-5.58-1.97-2.19-5.86-1.29-6.55 1.51-.27 1.09.01 2.89.37 2.41.07-.1.14-.28.14-.4 0-.24.25-.32.32-.12.03.09.1.08.24-.01.28-.17.55-.01.7.42l.12.33.01-.47c.01-.27.06-.48.11-.48.06 0 .1.2.1.44 0 .36.03.44.18.42.14-.01.16.06.14.34-.06.56-.42.68-.7.22-.1-.17-.23-.27-.31-.24-.11.04-.12-.01-.07-.19.12-.39.12-.52 0-.56-.07-.02-.14.08-.18.22s-.13.25-.21.25c-.11 0-.15.12-.15.48 0 .34.03.43.1.32.09-.13.11-.13.2 0 .14.22.12.56-.04.69-.17.15-.28.01-.15-.19.14-.23.11-.34-.06-.2-.23.19-.35.02-.36-.53-.01-.29-.03-.44-.06-.34-.22.82-.87-.75-.81-1.98.13-3.05 3.21-4.77 6.06-3.37 2.1 1.02 2.69 4.19 1.15 6.2-.27.37-1.22 1.02-1.48 1.02-.08 0-.15.04-.15.09 0 .14-.49.2-.59.07Zm-6.49-.38c-.14-.14-.16-.44-.02-.53.12-.08.52.33.47.48-.05.17-.3.2-.45.05Zm5.5-.5c-.14-.14-.15-.43-.02-.67.06-.11.06-.36.01-.62-.08-.38-.09-.4-.1-.13-.01.37-.21.57-.46.48-.13-.05-.16-.02-.13.17q.03.24-.12.24c-.17 0-.16-.45.02-.79.1-.19.11-.19.24-.02.11.16.13.13.19-.28.08-.54.15-.6.41-.41.16.11.19.26.19.93 0 .44.04.78.08.75s.07-.49.06-1.03c-.02-.95.09-1.39.31-1.25.05.03.13-.09.19-.27.18-.52.31-.2.17.42-.08.35-.18.56-.28.58-.14.03-.16.15-.11.78.06.71.05.75-.21.99-.31.29-.29.28-.44.13Zm5.44-.64c-.28-.28-.02-.78.31-.58.23.14.28.41.13.59-.16.19-.25.19-.44-.01Zm-13.46-.37c0-.21.26-.51.38-.43.09.05.07.14-.04.32-.18.26-.34.32-.34.11Zm5.51-1.72c-.4-.45-.43-.88-.06-.83.14.02.25.08.25.13-.01.06-.08.09-.16.07-.21-.04-.17.12.1.37.19.18.28.21.44.12.29-.15.35-.01.1.26-.28.3-.3.29-.67-.12Zm-3.57-.1c-.09-.37.02-.42.31-.15.27.25.25.4-.05.4-.13 0-.22-.09-.26-.25Zm-11.74-3.2c-.2-.21-.22-.28-.12-.5.18-.39.72-.22.56.18-.03.08 0 .18.06.22.08.05.08.11-.01.21-.16.19-.22.18-.49-.11Zm3.42-.66c-.49-.19-.34-.79.2-.79.3 0 .3.01.25.37-.08.45-.16.53-.45.42Z"/></svg>