<svg xmlns="http://www.w3.org/2000/svg" width="51" height="51" viewBox="0 0 51 51"><path fill="#fff" fill-rule="evenodd" stroke="#fff" stroke-width=".454" d="M11.94 47.77c-.03-.08-.04-.54-.02-1.03l.03-.89.68-.03c.62-.03.69-.05.77-.28.06-.15.1-2.18.1-4.89V36l.23-.05c.3-.08 2-.01 2.15.09.15.09.17 7.89.02 9.19-.17 1.45-.7 2.26-1.68 2.55-.56.17-2.21.16-2.28-.01Zm2.42-.36c.47-.21.95-.76 1.14-1.29.11-.28.15-1.48.17-5.15l.04-4.78-.97.03-.98.03.03 4.41c.03 5.49.04 5.44-1.08 5.44h-.51v1.5h.88c.63 0 .98-.06 1.28-.19Zm13.74-2.62a3.4 3.4 0 0 1-.93-.39c-.38-.24-.47-.26-.43-.13.12.38-.06.44-1.2.41l-1.09-.03v-11.8h2.3l.03 1.78.02 1.79.24-.15c1.27-.84 3.32-.45 4.17.79.86 1.25.89 5.1.05 6.42-.63 1-1.96 1.55-3.16 1.31Zm-9.28-.18c-1.71-.64-2.46-1.95-2.46-4.31 0-1.82.41-2.97 1.3-3.65 2.01-1.53 4.84-.93 5.88 1.25.42.89.47 3.64.08 4.62-.72 1.78-2.98 2.76-4.8 2.09Zm14.92.01a5.5 5.5 0 0 1-1.73-.89c-.3-.25-.24-.37.61-1.2l.63-.63.38.25c1.13.77 3.27.63 3.27-.21 0-.37-.37-.53-1.61-.69-2.03-.27-2.72-.68-3.05-1.81-.38-1.33.29-2.66 1.69-3.3 1.23-.57 3.56-.34 4.66.47l.44.31-.73.73-.73.73-.41-.21c-.5-.26-1.71-.36-2.16-.17-.71.29-.42.93.48 1.06 2.06.29 2.72.52 3.24 1.14 1.16 1.4.46 3.59-1.37 4.3-.83.32-2.72.38-3.61.12Zm-12.24-.35c1.61-.6 2.42-2.49 2.11-4.95-.26-2.01-1.34-3.09-3.2-3.2-2.73-.16-4.23 1.97-3.72 5.28.38 2.5 2.46 3.74 4.81 2.87Zm8.34.09c1.3-.54 1.85-2 1.73-4.61-.1-1.94-.48-2.8-1.49-3.31-.97-.49-2.11-.43-2.99.16l-.44.29-.06-1.17c-.04-.64-.07-1.5-.08-1.89l-.01-.73h-1.8v11.3h1.8v-.35c0-.43.05-.43.58-.04.8.59 1.87.72 2.76.35Zm7.2-.07c1.31-.39 2.06-1.46 1.93-2.76-.13-1.23-.96-1.84-2.84-2.1-1.26-.17-1.53-.28-1.72-.68-.48-1.01 1.37-1.5 3.02-.8.13.05.3-.05.7-.45.59-.59.58-.62-.3-1-2.6-1.15-5.38.03-5.37 2.27 0 1.54.65 1.95 3.59 2.29 1.18.13 1.52 1.17.55 1.67-.57.29-2.09.21-2.79-.15-.6-.32-.59-.32-1.25.39l-.48.52.44.27c1.28.82 2.88 1 4.52.53ZM19.66 42.8c-.85-.27-1.09-.87-1.04-2.64.04-1.88.35-2.36 1.53-2.36 1 0 1.48.59 1.6 2 .19 2.2-.68 3.45-2.09 3Zm7.89-.04c-.73-.33-.95-.88-.95-2.38 0-1.39.12-1.89.57-2.28.62-.55 1.76-.38 2.19.34.27.45.28 3.24.01 3.73-.33.62-1.18.89-1.82.59Zm-6.75-.31c.53-.27.65-.65.65-2.1 0-1.77-.29-2.28-1.3-2.28-.9 0-1.22.46-1.32 1.85-.13 2.12.7 3.19 1.97 2.53Zm8.1-.12c.72-.65.63-3.74-.11-4.14-.61-.32-1.47-.09-1.74.46-.21.46-.21 2.83 0 3.29.33.69 1.29.89 1.85.39Zm-15.38-8.5.03-.98h2.4v1.9l-1.23.03-1.23.03zm2.16 0 .03-.73H13.8v1.39l.32.04c.18.02.6.04.93.03l.6-.01zm8.37-4.03c-7.72-.88-12.56-8.64-10.05-16.11 2.33-6.96 10.42-10.3 17.02-7.04 7.64 3.78 9.21 13.94 3.06 19.81-2.68 2.57-6.28 3.76-10.03 3.34Zm3.35-.34c8.68-1.31 13.03-11.18 8.16-18.5-5.45-8.19-18.18-6.49-21.3 2.85-2.89 8.62 4.15 17 13.14 15.65Zm-1.38-3.39c-.31-.33-.3-.9.03-1.22.53-.54 1.45-.16 1.45.6s-.97 1.16-1.48.62Zm.96-.13c.25-.17.31-.74.1-.92-.63-.49-1.44.32-.88.88.24.24.48.25.78.04Zm1.76-2.14c-.3-.12-.64-.58-.64-.87 0-.91 1.15-1.36 1.7-.66.6.77-.17 1.89-1.06 1.53Zm-2.57-.11c-.34-.2-.5-.74-.33-1.14.25-.58.85-.71 1.35-.29.82.69-.1 1.96-1.02 1.43Zm3.38-.34c.3-.3.31-.54.04-.89-.39-.5-1.19-.24-1.19.39 0 .67.69.97 1.15.5Zm-2.45-.01c.2-.23.16-.75-.05-.9-.63-.46-1.4.31-.88.88.2.22.76.24.93.02Zm3.91-2.2c-.53-.45-.51-1.32.05-1.69.9-.59 2.11.43 1.63 1.38-.32.62-1.14.77-1.68.31Zm-2.62-.13c-.6-.61-.2-1.61.65-1.61.75 0 1.19.56.96 1.24-.23.7-1.08.9-1.61.37Zm-2.43-.12c-.3-.35-.32-.58-.11-.98.29-.56 1.25-.58 1.54-.03.51.95-.74 1.83-1.43 1.01Zm6.13.16c.64-.32.55-1.22-.13-1.45-.89-.29-1.46.74-.75 1.34.35.3.49.32.88.11Zm-8.37-.18c-.3-.32-.29-.77.03-1.07.73-.69 1.82.34 1.1 1.05-.32.33-.83.34-1.13.02Zm5.98-.2c.32-.56-.29-1.22-.9-.97-.36.15-.53.58-.36.91.26.52.98.56 1.26.06Zm-9.7.13c-.41-.41 0-1.2.54-1.04.66.19.54 1.24-.14 1.24-.11 0-.29-.09-.4-.2Zm1.77.02c-.23-.25-.21-.75.02-.96.43-.39 1.33.09 1.16.63-.16.51-.85.7-1.18.33Zm5.21.01c.34-.3.37-.59.08-.88-.3-.3-.59-.32-.86-.05-.56.56.19 1.44.78.93Zm-8.58-.13c-.48-.48.12-1.14.68-.74.37.26.13.94-.33.94-.08 0-.24-.09-.35-.2Zm6.18.04c.26-.18.28-.5.05-.76-.21-.24-.48-.23-.73.02-.48.48.12 1.14.68.74Zm-7.62-.1c-.19-.19-.2-.25-.03-.48.19-.26.61-.18.65.12.07.44-.32.67-.62.36Zm5.58 0c.36-.36 0-.87-.45-.64-.21.12-.25.5-.07.68.16.16.33.15.52-.04Zm-6.8-.09c-.09-.23.03-.45.26-.45.25 0 .37.25.2.45-.16.19-.39.19-.46 0Zm4.94-.16c.03-.28-.16-.43-.43-.33-.15.06-.21.45-.08.58.16.16.48.01.51-.25Zm-1.7-.02c.04-.2-.25-.34-.4-.19s-.01.44.19.4c.1-.02.19-.11.21-.21Zm14.95-1.52c-.18-.08-.42-.29-.53-.47-.64-1.05.52-2.22 1.57-1.58 1.22.74.26 2.62-1.04 2.05Zm-2.6-.06c-.7-.2-.95-1.11-.47-1.68.69-.82 2.09-.2 1.9.85-.06.3-.54.84-.76.84-.05 0-.14.02-.22.04-.07.02-.27 0-.45-.05Zm-2.97-.4c-.83-.99.48-2.17 1.4-1.25.37.37.42.62.19 1.06-.31.6-1.16.71-1.59.19Zm6.38.21c.58-.22.69-1.1.19-1.5-.91-.72-2.01.59-1.12 1.34.33.28.53.32.93.16Zm-8.78-.31c-.64-.76.26-1.76 1.15-1.29.36.2.51.65.35 1.04-.27.65-1.06.78-1.5.25Zm6.07.19c.77-.4.53-1.48-.33-1.48-.74 0-1.1.95-.54 1.39.3.24.55.26.87.09Zm-8.31-.21c-.49-.52-.15-1.27.57-1.27s1.06.76.56 1.25c-.32.33-.83.34-1.13.02Zm5.83-.02c.5-.49.17-1.19-.52-1.13-.51.04-.81.45-.64.86.22.53.78.66 1.16.27Zm-9.35.08c-.63-.22-.45-1.13.22-1.13.42 0 .73.52.5.86-.07.1-.47.35-.54.33-.02 0-.1-.03-.18-.06Zm1.57-.11c-.48-.53.12-1.4.77-1.1.4.18.53.63.29.96-.26.34-.81.42-1.06.14Zm5.28-.07c.37-.36.27-.77-.21-.95a.603.603 0 0 0-.64 1c.27.27.56.25.85-.05Zm-8.7-.05c-.24-.27-.13-.68.22-.76.5-.13.86.29.6.7-.21.31-.57.34-.82.06Zm-1.47-.15c-.08-.19-.08-.28.02-.4.32-.38.94.01.7.45-.16.29-.58.26-.72-.05Zm7.8.13c.2-.2.14-.56-.13-.74-.48-.31-1.01.15-.7.62.17.26.62.33.83.12Zm-8.94-.13c-.09-.23.03-.45.26-.45.25 0 .37.25.2.45-.16.19-.39.19-.46 0Zm4.84.06c.21-.13.1-.46-.16-.49-.24-.04-.38.18-.28.43.06.17.24.19.44.06Zm2.02-.06c.16-.19.04-.52-.21-.6-.21-.07-.59.18-.59.4 0 .32.57.47.8.2Zm-3.62-.16c.04-.19-.19-.31-.38-.19-.18.11-.04.42.17.38.1-.02.19-.1.21-.19Zm12.1-1.66c-.32-.2-.48-.52-.48-.98 0-.85 1.23-1.3 1.83-.67.9.94-.24 2.34-1.35 1.65Zm-2.67-.19c-.56-.47-.36-1.41.34-1.64.45-.15.98.07 1.2.5.48.93-.73 1.83-1.54 1.14Zm-2.43-.14c-.56-.56-.18-1.45.61-1.45.71 0 1.13.63.84 1.23-.28.58-.98.68-1.45.22Zm6.29-.02a.755.755 0 0 0-.28-1.27c-.68-.24-1.34.38-1.08 1.01.24.57.89.7 1.36.26Zm-8.39.06c-.74-.4-.24-1.6.58-1.4.76.19.86 1.08.17 1.44-.28.15-.42.15-.75-.04Zm5.87-.38c.2-.57-.44-1.13-1-.88-.57.26-.55.99.05 1.29.33.16.82-.04.95-.41Zm-7.95.24c-.41-.41-.12-1.2.45-1.2.31 0 .75.41.75.7 0 .55-.81.89-1.2.5Zm-3.4-.1c-.24-.24-.25-.38-.04-.68.27-.39.94-.17.94.31 0 .21-.35.57-.55.57-.08 0-.24-.09-.35-.2Zm1.57.02c-.33-.37-.05-1.02.43-1.02.27 0 .6.35.6.63 0 .5-.7.76-1.03.39Zm7.08.04c.42-.3.14-1.06-.4-1.06-.55 0-.86.67-.49 1.04.19.2.64.21.89.02Zm-10.15-.11c-.16-.2-.05-.62.19-.7.42-.13.72.25.51.65-.13.24-.52.27-.7.05Zm7.78.03c.07-.07.12-.24.12-.38s-.05-.31-.12-.38-.24-.12-.38-.12-.31.05-.38.12-.12.24-.12.38.05.31.12.38.24.12.38.12.31-.05.38-.12Zm-4.1-.07c.24-.15.1-.56-.18-.56s-.39.27-.2.5c.14.17.2.18.38.06Zm2.06-.13c.15-.24-.03-.52-.37-.56-.33-.04-.53.28-.37.59.14.25.58.23.74-.03Zm-6.9-.03c-.08-.21.02-.45.19-.45.2 0 .4.27.33.45-.07.19-.45.2-.52 0Zm3.24-.13c.03-.16-.02-.22-.17-.22-.24 0-.35.15-.27.36.09.23.4.13.44-.14Zm9.85-1.59c-.71-.14-.97-1.1-.44-1.64.76-.76 1.97.09 1.55 1.09-.11.27-.7.68-.86.61-.02-.01-.13-.04-.25-.06Zm-2.79-.37c-.58-.5-.22-1.46.56-1.46.7 0 1.11.54.86 1.15-.25.59-.93.74-1.42.31Zm3.51-.11c.3-.3.31-.54.04-.89a.68.68 0 0 0-1.09.01c-.55.7.42 1.51 1.05.88Zm-2.5-.1a.583.583 0 0 0-.68-.94c-.45.24-.5.67-.11.98.34.27.5.26.79-.04Zm-1.02-2.29c-.6-.51-.21-1.56.58-1.56.2 0 .4.1.6.29.8.8-.32 2.01-1.18 1.27Zm.99-.23c.22-.2.23-.61.01-.85-.34-.38-1.03-.11-1.03.4 0 .54.62.81 1.02.45Z"/></svg>