<svg xmlns="http://www.w3.org/2000/svg" width="51" height="51" viewBox="0 0 51 51"><path fill="#fff" fill-rule="evenodd" stroke="#fff" stroke-width=".768" d="M.05 25.35c0-13.97.01-19.7.02-12.73.02 6.96.02 18.39 0 25.4-.01 7-.02 1.3-.02-12.67Zm24.9 18.36c-9.56-.06-8.98-.03-10.19-.56-1.73-.75-3.07-2.37-3.51-4.25-.26-1.13-.22-25.78.04-26.82.58-2.28 2.19-3.88 4.48-4.45.62-.16 1.6-.17 11.23-.18 12.15 0 11.19-.07 12.21.95 1.04 1.04.96-.44.98 16.78.01 9.91-.02 15.16-.09 15.59-.21 1.27-.81 2.13-1.88 2.65l-.67.33-1.85.01c-1.02 0-5.85-.02-10.75-.05Zm13.17-.54c.7-.34 1.31-1.01 1.55-1.7.17-.49.18-1.13.18-10.38v-9.86l-.28-.36c-.16-.22-.53-.49-.94-.69l-.68-.33-5.08-.03c-5.82-.03-5.52-.07-6.4.87-.72.77-.76 1-.7 4.32.08 4.1-.08 4.98-1.04 5.91-.8.78-.91.8-4.87.82-2.98.02-3.6.05-4.1.19-3.77 1.1-5.42 4.83-3.7 8.36.61 1.24 1.77 2.21 3.46 2.89.47.19 6.5.28 17.18.27h4.85zm-25.93-9.11c.48-.7 1.46-1.53 2.24-1.9 1.32-.64 1.73-.69 5.32-.68 3.74.02 3.98-.02 4.75-.74.94-.88.95-.93.95-5.24 0-3.39-.02-3.8-.18-4.22-.22-.57-1.02-1.33-1.55-1.48-.47-.13-6.33-.13-7.27 0-2.01.28-3.59 1.41-4.51 3.22-.53 1.04-.54 1.2-.54 7.03l.01 5.4.24-.48c.14-.27.38-.68.54-.91Zm-.45-11.22c.96-1.92 2.63-3.05 4.97-3.34 1.74-.21 6.95-.1 7.45.17.47.25 1.08.89 1.31 1.38l.16.34.27-.42c.34-.52.73-.89 1.27-1.2l.43-.23-.33-.16c-.6-.3-1.15-.87-1.49-1.56l-.33-.66.03-3.71c.04-4.33.03-4.28 1.05-5.2l.6-.55h-5.09c-5.83.01-6.18.04-7.51.7-1.05.52-1.94 1.37-2.45 2.36-.73 1.39-.72 1.25-.72 7.36-.01 3.02-.01 5.48 0 5.48s.18-.34.38-.76Zm26.61-3.61c.54-.29 1.09-.88 1.34-1.43.28-.61.32-7.19.05-8.09-.19-.65-.78-1.32-1.49-1.69l-.5-.27-4.78-.03c-5.45-.03-5.39-.04-6.27.75-.98.88-.95.73-.95 5.03v3.75l.27.51c.32.61.93 1.18 1.62 1.5l.51.24 4.9-.02c4.81-.03 4.91-.03 5.3-.25ZM9.77.03c2.55-.02 6.71-.02 9.25 0 2.55.01.47.02-4.62.02S7.23.04 9.77.03Z"/></svg>