<svg xmlns="http://www.w3.org/2000/svg" width="51" height="51" viewBox="0 0 51 51"><path fill="#fff" fill-rule="evenodd" stroke="#fff" stroke-width=".76" d="M21.95 38.66c-1.92-1.11-4.27-2.46-5.2-3s-2.35-1.37-3.14-1.84l-1.44-.84.06-4.42c.04-2.42.1-5.78.14-7.45l.06-3.03.51-.33c1.08-.69 12.32-7.16 12.53-7.21.15-.04.51.1 1.15.47 2.04 1.16 9.9 5.7 10.94 6.32l1.11.66.06.77c.09.98.07 12.39-.02 13.57l-.06.88-2.3 1.33c-1.26.73-4.18 2.41-6.48 3.74-2.31 1.33-4.24 2.42-4.3 2.41-.07 0-1.69-.91-3.62-2.03Zm8.7-1.08c2.47-1.43 5.25-3.03 6.18-3.56l1.67-.97V18.13l-3.62-2.11c-4.76-2.76-9.05-5.22-9.22-5.28-.11-.04-8.51 4.74-11.98 6.83l-1.08.64v2.84l1.88 1.06c1.8 1.03 9.68 5.56 10.63 6.12l.45.27 1.45-.83c.79-.46 2.51-1.45 3.81-2.2s2.41-1.37 2.47-1.37c.08 0 .11.95.11 3.02l-.01 3.03-3.67 2.12c-2.02 1.16-3.79 2.16-3.93 2.23-.24.11-.52-.04-4.04-2.05a351 351 0 0 0-3.91-2.22c-.16-.06-5.06 2.79-4.97 2.88.08.08 3.41 2.02 7.78 4.54 1.32.76 2.96 1.71 3.65 2.11 1.24.71 1.25.72 1.55.56.16-.08 2.33-1.32 4.8-2.74Zm-1.2-5.42 3.7-2.14.03-2.81c.01-1.54 0-2.81-.02-2.81-.06 0-2.06 1.15-5.39 3.09-1.15.66-2.14 1.21-2.2 1.21s-.67-.33-1.36-.73c-.69-.41-2.97-1.72-5.06-2.92s-4.41-2.53-5.15-2.96-1.36-.77-1.38-.75c-.06.06-.23 11.48-.17 11.54.03.04.18 0 .33-.09 3.11-1.81 4.86-2.79 4.96-2.79.15 0 1.89.96 5.21 2.89 1.32.76 2.49 1.4 2.6 1.4.11.01 1.86-.95 3.9-2.13ZM22.9 21.14c-1.35-.79-2.46-1.48-2.48-1.53-.05-.14 4.89-3.01 5.18-3.01.09 0 .96.47 1.95 1.03 2.54 1.46 3.1 1.82 3.1 1.96 0 .15-4.9 3.01-5.14 3-.09 0-1.26-.66-2.61-1.45Zm5.08-.13c1.28-.73 2.32-1.37 2.32-1.42 0-.08-1.78-1.16-3.78-2.29l-.92-.52-1.13.62c-1.85 1.04-3.67 2.12-3.67 2.19.01.09 4.64 2.8 4.76 2.78.06-.01 1.15-.62 2.42-1.36Z"/></svg>