<svg xmlns="http://www.w3.org/2000/svg" width="51" height="51" viewBox="0 0 51 51"><path fill="#fff" fill-rule="evenodd" stroke="#fff" stroke-width=".777" d="M12.8 37.61c-1.18-.36-2.01-1.39-2.21-2.73-.17-1.17-.02-18.57.17-19.25.2-.72.93-1.51 1.75-1.88l.62-.27 3.06-.06c1.68-.02 3.82-.01 4.76.03l1.7.07 1.46 1.45 1.47 1.44 5.89-.01c7.12-.01 7.26.01 8.34 1.17.89.95.84.39.84 9.53 0 7.65-.01 8.08-.19 8.6-.26.74-1.01 1.49-1.79 1.78l-.58.22-12.52-.01c-6.89 0-12.63-.04-12.77-.08Zm25.9-.43c.54-.23 1.14-.78 1.43-1.33.22-.4.22-.41.25-8.49.03-8.92.04-8.73-.59-9.49-.96-1.16-1.02-1.17-8.22-1.17h-6.1l-.59-.65c-.33-.36-1.02-1.04-1.54-1.51l-.95-.85-4.67.03c-4.22.03-4.71.05-5.06.21-.66.29-1.23.83-1.53 1.45l-.28.57v19.4l.22.41c.33.61.7 1.01 1.22 1.32l.46.27 12.15.05c13.32.06 13.15.06 13.8-.22Z"/></svg>