<svg xmlns="http://www.w3.org/2000/svg" width="51" height="51" viewBox="0 0 51 51"><path fill="#fff" fill-rule="evenodd" stroke="#fff" stroke-width=".69" d="M1.9 43.6v-6.9h-.32c-.18 0-.43-.03-.55-.06l-.23-.06V.7l18.02.02 18.03.03.02.4c.01.22.02.48.02.58.01.15.14.17 1.35.17h1.34l.07.5.07.51 1.03.5c3.35 1.63 5.35 3.53 7.1 6.75.82 1.51 1.65 2.63 2.13 2.88.41.21.42.4.42 12.78V36.6h-1.1l-.02 6.31-.03 6.3-6.17.02-6.17.02-.03.6-.03.6-17.47.03-17.48.02zm15.85 6.36c-3-.49-4.45-.93-6.72-2.05-4.54-2.26-7.14-5.07-8.5-9.21-.19-.57-.36-1.06-.39-1.09-.02-.02-.04 2.8-.04 6.27v6.32l8.52-.01 8.53-.01zm18.85-.21c0-.25-.03-.45-.08-.45-.04 0-.36.07-.72.16-.36.08-1.39.28-2.3.44l-1.65.29h2.38l2.37.01zm-5 .01c4.68-.77 6.82-1.34 8.95-2.36 4.8-2.31 7.59-6.25 8.64-12.2 1.59-9 .78-20.2-1.81-25-1.83-3.39-4.69-5.89-8.23-7.18-5.42-1.99-15.23-2.6-21.93-1.36C9.15 3.15 4.13 7.1 2.6 13.19.84 20.22.75 29.25 2.36 36.92 4.02 44.8 10.4 49.17 21.31 49.9c2.26.15 9.09.06 10.29-.14Zm17.41-5.53c.04-3.92-.01-7.48-.09-6.71-.05.44-.59 1.94-1.07 2.93-1.86 3.9-5.1 6.81-9.15 8.21l-.95.32 5.61.01 5.61.01zm-30.87-4.66c-.59-.28-1.07-.82-1.3-1.46-.34-.95-.32-21.4.01-21.27.08.03.31.08.52.11l.38.07-.45-.28c-1.12-.67-1.55-1.35-1.54-2.44.01-2.05 1.92-3.22 3.72-2.28.55.29 3.9 2.38 9.37 5.85 1.81 1.15 4.65 2.94 6.3 3.98 3.88 2.46 4.35 2.92 4.35 4.22 0 1.43-.2 1.6-6.6 5.6-1.84 1.16-5.17 3.26-7.4 4.68s-4.34 2.77-4.7 2.99c-.85.54-1.83.62-2.66.23Zm2.29-.3c.23-.13 2.18-1.36 4.32-2.73 2.15-1.37 4.71-3 5.7-3.62 9.45-5.96 8.7-5.36 8.7-6.87 0-1.44.57-.97-7.23-5.94C20.99 13.16 19.36 12.16 18.7 12c-2.55-.61-3.75 2.89-1.5 4.37 1.01.65 1.07.71.92.81-.09.06.13.22.75.51 1.5.72 2.32 1.21 7.38 4.42 1.54.97 3.93 2.47 5.3 3.32 1.38.85 2.61 1.64 2.74 1.74l.24.2-1.34.8c-.74.44-2.26 1.33-3.39 1.98-4.21 2.43-7.65 4.6-11.2 7.08-.94.66-1.42.88-1.06.48.62-.69 7.57-5.13 12.36-7.91 1.07-.62 2.46-1.43 3.08-1.8l1.13-.68-.9-.56-.9-.57-4.93 3.12c-2.71 1.71-5.7 3.63-6.63 4.25-1.62 1.08-2.17 1.37-1.84.98.07-.09.71-.54 1.41-1.01.84-.55 1.3-.92 1.33-1.06.03-.12.04-3.1.03-6.61l-.03-6.4-2.15-1.12c-1.18-.62-2.25-1.15-2.38-1.17l-.23-.04.03 10.31c.03 11.66-.03 10.78.85 11.55.74.66 1.81.77 2.66.28ZM1.96 36.24c-.03-.09-.06-.25-.07-.37 0-.12-.03-.16-.06-.1-.02.07-.12.13-.2.13-.14 0-.15-.13-.09-.99.05-.8.04-1.01-.07-1.08-.11-.06-.16-.45-.2-1.53-.11-2.57-.22-2.1-.25 1.05L.99 36.4h.52c.43 0 .5-.03.45-.16Zm48.13-2.56-.01-2.73-.18 1.39c-.1.76-.28 1.93-.39 2.6-.27 1.56-.28 1.46.19 1.46h.4zm-23.84-3.95C31.8 26.21 32 26.08 32 26.05c0-.02-1-.66-2.22-1.43-1.23-.77-3.4-2.13-4.83-3.04s-2.7-1.7-2.83-1.77l-.22-.12v6.37c0 5.05.03 6.35.13 6.31.06-.02 1.97-1.21 4.22-2.64Zm10.1-3.67c-.66-.41-3.27-2-5.8-3.54-2.53-1.53-5.32-3.23-6.2-3.77s-2.9-1.76-4.5-2.72c-2.96-1.79-3.23-1.97-3.08-2.06.05-.03.67.3 1.38.73 1.96 1.18 7.64 4.63 12.85 7.8 2.56 1.56 5.13 3.12 5.73 3.48.99.6 1.25.82.95.82-.07 0-.67-.34-1.33-.74ZM1.2 20c.07-.8.2-1.94.29-2.53.1-.59.14-1.1.09-1.13-.16-.1-.1-1.24.07-1.24.08 0 .16.08.16.18.01.09.05.04.09-.13.16-.62.14-.65-.35-.65H1.1v1.98c0 1.1-.03 2.68-.06 3.53-.08 1.92 0 1.91.16-.01Zm48.9-3.3v-3.3h-.61c-.53 0-.6.02-.55.18.33 1.11.92 4.36 1.02 5.64.04.43.08.78.1.78s.04-1.48.04-3.3ZM1.93 13.08c.04-.62.07-3.59.07-6.6V1h-.9v13.2h.77zm1.16-2.07c2.36-5.48 7.24-8.57 15.61-9.89.71-.11-13.93-.27-15.43-.17l-1.07.07.01 6.27v6.26l.24-.81c.13-.45.42-1.23.64-1.73ZM39.4 2.5v-.3h-.89c-.49 0-.98-.03-1.08-.07-.1-.03-.15-.03-.12 0 .05.06 1.79.62 2.02.66.04 0 .07-.12.07-.29Zm-2.8-1.05V1l-2.72.01c-1.5.01-2.62.03-2.48.06.14.02.9.13 1.7.24s1.79.29 2.2.39c1.23.3 1.3.28 1.3-.25Z"/></svg>