<svg xmlns="http://www.w3.org/2000/svg" width="51" height="51" viewBox="0 0 51 51"><path fill="#fff" fill-rule="evenodd" stroke="#fff" stroke-width=".492" d="M15.3 38.69a2.738 2.738 0 0 1-.7-4.39c1.69-1.7 4.73-.47 4.58 1.85l-.03.5-2.12.03c-1.25.01-2.13.06-2.13.12 0 .16.61.8.91.96.63.32 1.48.17 2.05-.38l.32-.3.41.27c.47.31.45.42-.15.95-.91.79-2.04.93-3.14.39Zm6.16.15c-1.52-.48-2.3-2.5-1.51-3.92.7-1.28 2.29-1.79 3.53-1.14.52.27.52.27.52.02 0-.17.07-.2.5-.2h.5l-.02 2.63-.03 2.62-.29.03c-.41.05-.76-.06-.76-.23 0-.13-.07-.12-.42.06-.54.28-1.39.33-2.02.13Zm16.02.06c-1.13-.34-2.08-1.77-1.93-2.92.37-3.01 4.47-3.41 5.31-.51.1.33.13.68.1.89l-.07.34h-4.3l.18.31c.6 1.03 2.02 1.21 2.82.35.31-.33.39-.33.81.03l.35.29-.4.41c-.76.79-1.89 1.11-2.87.81ZM10.2 36.25V33.6l1.73.02 1.72.03.03.29c.09.74.05.76-1.28.76h-1.2l-.02 2.07-.03 2.08-.47.03-.48.03zm15.65 2.53c-.03-.07-.04-1.64-.03-3.48l.03-3.35h1v6.9l-.48.03c-.32.02-.49-.01-.52-.1Zm1.92.05c-.04-.03-.07-1.23-.07-2.65V33.6h.43c.24 0 .48.05.53.1.07.07.22.06.47-.05.7-.29 1.43-.16 2.19.37.13.1.2.09.35-.05.77-.69 2.09-.6 2.85.2.52.54.58.86.58 2.88v1.86l-.48-.03-.47-.03-.05-1.8c-.05-1.93-.09-2.08-.61-2.39-.34-.2-.62-.2-.99-.01-.53.28-.6.55-.6 2.5v1.76l-.47-.03-.48-.03-.05-1.8c-.05-1.94-.1-2.14-.6-2.4-.39-.2-.69-.19-1.07.05-.45.27-.53.67-.53 2.57v1.63h-.43c-.24 0-.47-.03-.5-.07Zm-10.23-.27c.53-.22 1.09-.76.95-.92-.16-.19-.33-.17-.54.06-.53.59-1.87.66-2.53.13-.47-.38-.82-.89-.82-1.19v-.24h4.3v-.45c0-1.16-1.11-2.18-2.35-2.19-2.08 0-3.2 2.4-1.9 4.1.55.72 2 1.07 2.89.7Zm5.59 0c.21-.08.46-.21.56-.3.27-.25.51-.2.51.09 0 .2.05.25.25.25h.25v-4.7h-.25c-.2 0-.25.05-.25.25 0 .3-.18.32-.51.07-.91-.7-2.54-.48-3.24.43-1.5 1.98.38 4.72 2.68 3.91Zm15.99.02c.22-.06.58-.29.81-.5.4-.36.41-.38.23-.53-.17-.13-.22-.12-.52.14-.97.86-2.5.57-3.1-.57-.38-.73-.4-.72 2.03-.72h2.15l-.07-.47c-.44-3.07-4.78-2.77-4.8.32 0 1.73 1.56 2.85 3.27 2.33ZM10.9 36.5v-2.1h2.5v-.5h-2.9v2.19c0 1.21-.03 2.26-.06 2.35-.05.12 0 .16.2.16h.26zm15.7-1.1v-3.2h-.5v6.4h.5zm1.85 1.58c0-1.8.08-2.14.56-2.49.65-.46 1.49-.29 1.91.4.21.33.23.5.26 2.04s.05 1.67.22 1.67.19-.13.22-1.73c.03-1.87.09-2.07.64-2.43.37-.25 1.06-.24 1.4.02.65.48.69.6.72 2.45.03 1.59.05 1.69.23 1.69s.19-.09.19-1.69c0-.96-.05-1.82-.11-1.98-.44-1.17-2.12-1.54-2.93-.64-.11.12-.24.21-.31.21s-.2-.09-.31-.21c-.49-.54-1.45-.68-2.09-.3-.43.25-.55.26-.55.06 0-.09-.09-.15-.25-.15H28v4.7h.23c.22 0 .22-.01.22-1.62Zm-6.85 1.11c-.82-.33-1.42-1.47-1.2-2.31.53-1.96 3.17-1.99 3.8-.05.46 1.43-1.18 2.92-2.6 2.36Zm1.56-.44c1.27-.75 1-2.63-.45-3.06-.75-.22-1.64.24-1.96 1.03-.58 1.46 1.04 2.83 2.41 2.03Zm-8.56-1.9c0-.24.25-.67.57-.97.87-.82 2.39-.6 3.03.45.41.67.42.67-1.7.67-1.65 0-1.9-.02-1.9-.15Zm21.8-.06c0-.36.39-.88.87-1.15 1.09-.65 2.53-.08 2.88 1.14l.06.22h-1.9c-1.88 0-1.91 0-1.91-.21Zm-18.3-.1c0-.07-.19-.31-.43-.54-.73-.74-1.76-.69-2.47.11-.46.53-.44.54 1.3.54 1.12 0 1.6-.03 1.6-.11Zm21.7-.06c0-.09-.18-.33-.4-.54-.69-.66-1.65-.63-2.36.07-.6.61-.54.64 1.21.64 1.38 0 1.55-.02 1.55-.17ZM24.3 17.29c-3.98-.42-8.38-2.59-9.67-4.77-.53-.89-.14-2.1.81-2.53.89-.4 1.55-.17 2.79.98 1.59 1.47 3.88 2.43 6.57 2.73 2.86.32 6.69-1.08 8.34-3.06 1.25-1.5 3.56-.87 3.56.98 0 .6-.26 1.05-1.09 1.89-2.53 2.55-7.46 4.2-11.31 3.78Zm3.94-.5c3.57-.68 7.25-2.79 8.06-4.62.45-1.01-.3-2.07-1.45-2.07-.63 0-.98.2-1.81 1.05-3.74 3.79-10.99 3.78-15.05-.01-1.3-1.22-2.05-1.37-2.92-.56-.92.86-.38 2.1 1.56 3.54 2.25 1.66 4.63 2.53 8.07 2.92.66.07 2.55-.06 3.54-.25Z"/></svg>