<svg xmlns="http://www.w3.org/2000/svg" width="51" height="51" viewBox="0 0 51 51"><path fill="#fff" fill-rule="evenodd" stroke="#fff" stroke-width=".464" d="M10.38 42.01c-.76-.09-1.31-.4-1.63-.93-.2-.32-.2-.57-.23-10.43-.02-5.56 0-10.34.03-10.63.09-.72.27-.91 2.12-2.17 2.26-1.55 2.03-1.18 2.03-3.14.01-2.49-.05-2.45 3.45-2.48 1.37-.01 2.62-.05 2.77-.07.15-.03 1.47-.87 2.94-1.86 4.06-2.76 3.34-2.73 7.12-.21l2.83 1.88 2.62.07c3.86.1 3.9.13 3.95 2.72l.04 1.65.51.37c.29.21 1.06.75 1.73 1.2.66.45 1.36.98 1.55 1.18l.34.35.06 1.72c.12 3.06.1 18.98-.02 19.42-.11.4-.47.87-.84 1.08-.33.19-29.82.45-31.37.28Zm24.12-.4c7.6-.07 7.29-.04 7.67-.74.19-.33.29-18.94.11-19.12-.04-.04-.17.02-.29.14-.65.61-16.19 9.68-16.38 9.57-.03-.02-1.21-.68-2.61-1.46-4.26-2.39-9.32-5.31-12.46-7.2l-1.61-.98-.06 2.32c-.04 1.27-.07 5.44-.07 9.26v6.96l.23.44c.45.9-.03.84 7.92.91 3.85.03 7.83.03 8.85.01s4.93-.07 8.7-.11Zm-7.37-11.32c2.16-1.24 6.79-3.93 8.97-5.21l1.95-1.14v-5.35c0-5.86.02-5.63-.62-5.95-.59-.29-8.35-.41-14.78-.24-9.91.27-9 .23-9.32.46l-.28.21-.03 5.41-.02 5.4 3.12 1.8c4.03 2.32 9.49 5.42 9.56 5.42.02 0 .67-.37 1.45-.81Zm-5.76-7.86c-.03-1.7-.03-3.53.01-4.08l.07-1 1.29-.03c1.54-.03 1.34-.16 2.64 1.68.53.74 1.07 1.51 1.21 1.7l.26.35.05-1.85.05-1.85h2.7l.03 2.25c.02 1.24 0 3.07-.03 4.08l-.07 1.82h-1.3c-1.13 0-1.33-.02-1.45-.17-.07-.1-.66-.96-1.31-1.92l-1.17-1.73-.06 1.58c-.04.88-.07 1.74-.08 1.92l-.01.32h-2.77zm2.53.88c0-1.04.03-1.96.06-2.05.09-.24.41-.19.56.07.07.13.69 1.05 1.37 2.05l1.23 1.82h2.15l.07-3.72c.04-2.07.03-3.75-.02-3.8s-.53-.07-1.08-.06l-.99.03-.03 1.98c-.02 1.98-.02 1.98-.24 1.95-.14-.02-.39-.27-.67-.68-.24-.36-.87-1.25-1.38-1.97l-.94-1.33H21.7v7.6h2.2zm-11.2-3.07v-3.35l-1.66 1.12c-2.03 1.38-2.14 1.5-2.14 2.31 0 .92.23 1.24 1.34 1.89 1.28.75 2.4 1.39 2.43 1.39.02 0 .03-1.51.03-3.36Zm27.5 2.38c1.89-1.12 2.05-1.29 2.05-2.27 0-.39-.06-.69-.16-.85-.15-.23-3.47-2.56-3.53-2.49-.08.09-.15 6.59-.07 6.59.04 0 .81-.44 1.71-.98Zm-9.15-10.66c.06-.02-1.07-.8-2.5-1.75-3.23-2.15-2.81-2.11-5.15-.54-1.86 1.26-3.42 2.32-3.48 2.37-.04.04 10.97-.04 11.13-.08Z"/></svg>