<svg xmlns="http://www.w3.org/2000/svg" width="51" height="51" viewBox="0 0 51 51"><path fill="#fff" fill-rule="evenodd" stroke="#fff" stroke-width=".777" d="M21.05 50.95c-9.14-1.74-16.41-7.78-19.59-16.28-.83-2.2-1.47-5.32-1.45-7l.02-1.02.08 1.01c.61 7.95 4.78 14.91 11.64 19.44 3.21 2.11 7.36 3.55 11.53 3.99l.77.08-.9.01c-.54 0-1.38-.09-2.1-.23Zm6.25.19c.19-.03.89-.11 1.55-.2 7.4-.93 13.9-4.97 18.07-11.24 2.36-3.55 3.7-7.43 4.17-12.1l.1-.95-.04 1.25c-.13 4.5-2.2 9.71-5.47 13.82-4.27 5.35-11.46 9.23-17.48 9.42-.69.03-1.09.02-.9 0Zm-9.43-14.16c-.16-.12-.17-.95-.17-11.42-.01-11.85-.02-11.56.44-11.56.25 0-.51-.42 8.91 4.97 4.24 2.42 8.37 4.77 9.18 5.23 1.65.92 1.77 1.01 1.77 1.35 0 .35.01.35-8.1 4.97-12.32 7.03-11.7 6.7-12.03 6.46Zm2.03-.99c2.5-1.39 16.99-9.67 17.45-9.98.68-.46.59-.63-.75-1.39-.63-.35-5.01-2.85-9.73-5.54-4.71-2.69-8.65-4.88-8.75-4.86-.16.03-.17.69-.2 11.23-.01 6.16 0 11.26.03 11.32.08.22.25.15 1.95-.78ZM.02 23.75c-.08-5.32 2.9-11.97 7.38-16.46C11.71 2.97 18.45-.06 23.61.01l1.04.02-1.08.08C14.69.74 6.73 6.08 2.71 14.09 1.15 17.18.27 20.64.07 24.4c-.02.3-.04.01-.05-.65Zm51.04-.37a3 3 0 0 1-.06-.55c0-.17-.11-.98-.25-1.8C48.79 9.48 38.66.56 26.95.07c-.39-.02-.13-.04.57-.05C30.53-.03 34.66 1.14 38 3c6.73 3.73 11.5 10.25 12.85 17.58.33 1.77.48 3.8.21 2.8Z"/></svg>