<svg xmlns="http://www.w3.org/2000/svg" width="51" height="51" viewBox="0 0 51 51"><path fill="#fff" fill-rule="evenodd" stroke="#fff" stroke-width=".76" d="M23.67 38.49c-.93-.22-1.38-.57-3.9-3.08-3.01-2.99-3.12-3.15-3.12-4.76 0-.93.02-1.05.33-1.67l.32-.66-.8-.84c-1.56-1.6-1.94-3.28-1.15-4.96.42-.9 8.71-9.11 9.65-9.56.97-.46 2.26-.46 3.2.01s5.43 4.89 5.88 5.79c.61 1.22.62 2.4.03 3.55l-.28.57.84.83c1.79 1.79 2.1 3.84.81 5.49-.74.94-8.68 8.78-9.1 8.98-.87.4-1.84.52-2.71.31Zm2.41-.44c.7-.32.43-.07 5.18-4.86 4.79-4.82 4.69-4.68 4.69-6.24 0-1.35-.23-1.85-1.42-3.07l-.87-.88-.63.62-.63.63.79.8c.94.96 1.04 1.14 1.04 1.85 0 .87-.12 1.02-4.32 5.23-4.45 4.47-4.39 4.42-5.31 4.42-.89-.01-.92-.03-3.32-2.36-2.39-2.3-2.68-2.68-2.68-3.43.01-.98.13-1.13 4.33-5.34 4.49-4.5 4.46-4.47 5.32-4.47.7 0 .91.13 2.03 1.19l.64.61.54-.57c.69-.72.69-.73-.23-1.58-1.34-1.23-2.53-1.62-3.91-1.26-.94.24-1.12.4-5.69 4.98-4.87 4.88-4.78 4.76-4.78 6.33 0 1.49.15 1.72 3.07 4.61 1.51 1.5 2.6 2.5 2.88 2.65 1.03.53 2.3.58 3.28.14Zm-.51-1.96c.43-.27 8.15-8.14 8.3-8.47.15-.34.16-1.17.02-1.45-.15-.29-1.51-1.67-1.64-1.67-.06 0-1.48 1.4-3.16 3.12-3.61 3.7-4.08 4.11-5.03 4.4-1.56.47-2.79.11-4.22-1.24-.94-.9-.96-.9-1.01-.15-.04.45-.01.58.27.99.47.7 4.52 4.56 4.86 4.63.16.04.34.08.39.1.21.08.91-.08 1.22-.26Zm-1.32-4.35c.61-.2 9.33-8.81 9.77-9.64.37-.72.34-2.32-.06-3.15-.35-.71-4.87-5.26-5.66-5.69-1-.55-2.45-.54-3.4.01-.29.17-2.18 1.96-4.78 4.53-5.01 4.96-4.87 4.78-4.87 6.45 0 1.34.29 1.95 1.45 3.1l.8.8.61-.62.62-.61-.66-.62c-1.14-1.06-1.42-1.97-.91-2.98.3-.61 7.87-8.12 8.56-8.49.49-.27 1.12-.3 1.66-.07.42.17 4.73 4.4 4.99 4.89.22.41.21 1.31-.01 1.75-.28.53-8.13 8.38-8.61 8.61-.94.44-1.61.24-2.65-.76-.91-.89-.84-.89-1.49-.21-.64.68-.65.59.22 1.43 1.52 1.47 2.76 1.83 4.42 1.27Zm-.38-2.02c.15-.12 1.77-1.7 3.58-3.52l3.3-3.31-.75-.71c-.98-.93-1.1-1-1.73-1-.77-.01-.71-.06-4.45 3.66l-3.42 3.4.72.73c.39.4.86.79 1.02.88.42.21 1.35.14 1.73-.13Zm-1.37-6.57c4.03-4.03 4.05-4.05 5.57-4.13 1.34-.07 2.06.25 3.43 1.54.76.72.8.72.8-.03 0-.78-.06-.86-2.52-3.29-2.41-2.39-2.61-2.54-3.47-2.39-.57.09-.62.14-4.84 4.3-4.7 4.63-4.73 4.68-4.11 5.93.22.45 1.32 1.62 1.52 1.62.04 0 1.67-1.6 3.62-3.55Z"/></svg>