<svg xmlns="http://www.w3.org/2000/svg" width="51" height="51" viewBox="0 0 51 51"><path fill="#fff" fill-rule="evenodd" stroke="#fff" stroke-width=".689" d="M24.05 47.2c-6.17-.55-12.61-3.99-14.46-7.75-.99-2.02.37-2.56 1.56-.61.36.59.44.66.85.76.75.18 1.2.5 1.5 1.05.39.72 1.85 1.49 4.48 2.34 8.21 2.68 17.32-.21 22.52-7.13 1.09-1.45 1.62-1.71 2.65-1.32 1.48.57 1.41 1.98-.21 4.13-4.42 5.86-11.72 9.16-18.89 8.53Zm5.2-.49c5.82-.96 12.12-5.16 14.35-9.57.73-1.43.15-2.54-1.26-2.42-.65.06-.75.14-1.68 1.38-5.34 7.15-15.1 10-23.6 6.88-2.47-.91-3.44-1.46-3.79-2.16-.24-.47-.58-.75-1.11-.88l-.29-.07.33.49c1.1 1.62 3.13 3.03 5.87 4.09.69.26.83.37.65.48-.2.13-3.28-1.33-4.42-2.08-.91-.61-1.9-1.68-2.85-3.1-1.21-1.82-1.74-2.27-1.91-1.61-.26 1.05 1.7 3.5 4.12 5.12 4.58 3.08 10.24 4.33 15.59 3.45Zm2.15-9.24c-2.33-.79-3.71-2.61-3.96-5.2l-.06-.68-2.82-1.42c-3.35-1.69-2.96-1.57-3.59-1.09-2.96 2.26-7 1.02-8.12-2.51-1.41-4.43 3.24-8.22 7.4-6.04 1.69.89 2.68 2.68 2.64 4.76l-.02.94 2.73 1.37 2.73 1.38.71-.72c4.13-4.15 11.08-.05 9.32 5.5-.95 2.98-4.13 4.68-6.96 3.71Zm2.67-.13c4.17-.86 5.73-5.96 2.74-8.93-2.17-2.17-5.43-2.12-7.65.11l-.78.79-2.82-1.42c-1.54-.78-2.84-1.45-2.89-1.48-.04-.04-.08-.65-.1-1.37-.04-2.09-.91-3.51-2.67-4.37-3.9-1.91-8.2 1.87-6.76 5.94 1.2 3.4 4.94 4.39 7.89 2.08l.47-.37 3.1 1.56 3.1 1.57v.45c.02 3.52 3.07 6.12 6.37 5.44Zm-26.55-.71c-.9-.44-2.27-3.58-2.87-6.56C3 21.81 6.1 13.58 12.76 8.56c3.84-2.89 8.27-4.32 8.78-2.85.23.66-.08.93-1.64 1.44-4.84 1.58-9.58 6.97-11.21 12.74-1.26 4.46-1.02 8.74.73 13.26.6 1.54.68 2.26.31 2.85-.44.72-1.46 1-2.21.63Zm1.54-.32c.79-.48.8-1.22.04-3.21-2.15-5.65-1.93-11.39.65-16.67 2.14-4.39 6.33-8.34 10.15-9.58 1.29-.42 1.42-.5 1.38-.88-.17-1.71-5.75.49-9.53 3.76-6.44 5.55-8.87 14.48-6.19 22.65 1.17 3.59 2.19 4.73 3.5 3.93Zm36.33-6.43c-.06-.11-.15-.76-.2-1.42-.49-6.52-2.52-11.13-6.6-15-3.35-3.19-7.35-4.95-12.68-5.6-1.58-.19-2.18-.74-2.08-1.88.13-1.51 1.3-1.88 4.56-1.43C39.23 6.04 47.1 14.96 47.1 25.74c0 2.7-.5 4.36-1.31 4.36-.19 0-.32-.07-.4-.22Zm.73-.26c.44-.49.72-2 .71-3.92-.01-10.56-7.69-19.3-18.33-20.86-3.2-.47-4.4-.12-4.4 1.27 0 1.02.43 1.31 2.24 1.54 11.13 1.37 18.34 9.19 19.11 20.75.08 1.08.16 1.4.39 1.4.07 0 .2-.08.28-.18ZM23.7 22.79a3 3 0 0 0-.66-1.06c-.24-.24-.44-.45-.44-.47 0-.06 1.4-.93 3.08-1.91l1.52-.89v-.51c0-3.98 5.15-5.61 7.33-2.32 1.61 2.42.17 5.71-2.7 6.17-1.01.17-1.98-.08-3.09-.79-.18-.12-.41-.02-2.39 1.13-1.2.69-2.23 1.26-2.3 1.26s-.22-.28-.35-.61Zm2.69-1 2.14-1.23.36.23c2.94 1.82 6.13.15 5.99-3.14-.2-4.72-7.03-4.64-7.37.08l-.06.9-2.22 1.3-2.21 1.31.34.39c.18.22.43.64.55.93s.25.52.28.5 1.02-.59 2.2-1.27Z"/></svg>