<svg xmlns="http://www.w3.org/2000/svg" width="51" height="51" viewBox="0 0 51 51"><path fill="#fff" fill-rule="evenodd" stroke="#fff" stroke-width=".691" d="m9.75 42.21-.7-.06v-16.4c0-9.02.03-16.48.07-16.58.07-.16.93-.17 16.55-.15l16.48.03v33.1l-.5.07c-.61.08-30.91.07-31.9-.01Zm28.78-.48 3.17-.06V9.5H9.63l-.06 7.97c-.04 4.38-.07 11.62-.07 16.1v8.13l4.78.03c8.75.05 21.03.05 24.25 0Zm-15.08-.98c-13.86-2.17-17.98-20.08-6.4-27.81 10.2-6.8 23.77.42 23.78 12.66.01 9.24-8.39 16.57-17.38 15.15Zm4.95-.35c7.22-1.46 12.15-7.49 12.15-14.85 0-7.27-4.84-13.18-12.05-14.72-1.23-.26-4.69-.26-5.9.01-9.77 2.13-14.91 12.65-10.49 21.49 2.31 4.63 6.51 7.49 12.24 8.31.71.1 3.05-.04 4.05-.24Zm-4.05-.47c-12.09-1.1-17.51-15.88-8.96-24.44 6.26-6.25 16.45-5.5 21.77 1.61 2.7 3.61 3.45 8.41 2.02 12.94-1.98 6.29-8.28 10.49-14.83 9.89Zm4.18-.47c11.04-2.53 14.95-16.27 6.84-24.03-7.57-7.23-20.09-4.07-23.25 5.87-2.6 8.16 2.65 16.76 11.12 18.25 1.07.19 4.31.13 5.29-.09Zm-7.07-9.88c-.16-.22-.15-.25.16-.71l.2-.27-.71-.79c-1-1.11-.95-1.08-1.33-.76-.26.22-.34.37-.38.74l-.05.46h-6.4v-.5c0-.49.01-.5.32-.53l.32-.03.03-1.6.03-1.59h-.76l.03-.52.03-.53h4.6v1l-.37.03-.38.03v2.89l.58-.29c.31-.16.86-.45 1.2-.65.75-.42.71-.42.81-.14.07.19.19.1 1.42-1.05.74-.7 1.4-1.27 1.47-1.27.08 0 .65.5 1.28 1.11l1.13 1.12.55-.44c.71-.57.83-1.25.24-1.31-.32-.03-.33-.04-.36-.55l-.03-.53h2.39c2.36 0 2.39 0 2.9.26 1.55.77 1.94 3.02.75 4.34-.69.77-.88.81-3.68.78l-2.4-.03-.03-.29c-.07-.56.05-.76.43-.76h.35v-1.13l-.47.43c-.27.24-1.12 1.07-1.89 1.86-1.47 1.5-1.69 1.63-1.98 1.22Zm2.38-1.96c1.5-1.48 1.96-1.98 1.96-2.17 0-.33-.03-.32-.61.16l-.49.42-.52-.49c-.29-.27-.84-.79-1.22-1.16l-.7-.66-1.41 1.31c-1.2 1.14-1.4 1.37-1.43 1.66l-.03.34.31-.27c.44-.36.34-.43 2.04 1.41l.38.41-.27.36c-.25.33-.29.73-.06.64.05-.02.97-.9 2.05-1.96Zm7.93.27c-.08-.57-.01-.69.39-.69h.34V24h-.7v-1.1l2.28.02 2.27.03.03.53.03.52h-.71v1.4c0 .77.03 1.4.07 1.4.03 0 .58-.27 1.21-.61.7-.37 1.18-.57 1.23-.52s.08.66.07 1.34l-.03 1.24-3.21.03-3.21.02zm-12.57-.9v-1.1l-.72.39c-1.44.79-1.72.92-1.8.84-.05-.05-.07-.82-.06-1.73l.03-1.64.33-.03c.28-.03.32-.07.32-.33v-.29h-4.1v.33c0 .3.02.32.33.32h.32v3.7l-.32.03c-.29.03-.33.07-.33.33v.29h6zm10.81 1c1.86-.56 2.14-3.48.44-4.54l-.48-.3-2.34-.03-2.33-.03v.3c0 .26.04.3.32.33l.33.03v3.7l-.33.03c-.28.03-.32.07-.32.33v.29h2.16c1.34 0 2.31-.04 2.55-.11Zm7.99-1v-1.11l-.32.2c-.95.56-1.98 1.04-2.12.99-.14-.06-.16-.27-.14-1.69l.03-1.63.3-.03c.38-.04.49-.15.4-.41-.06-.2-.12-.21-2.11-.21H32v.29c0 .27.03.3.38.33s.37.05.36.36c0 .17-.01 1.02-.02 1.87l-.02 1.55h-.35c-.32 0-.35.02-.35.3v.3h6zm-9.6-1.43c0-1.13.04-1.2.53-1.03.88.3.72 2.07-.19 2.07h-.34zm.7.64c.29-.29.27-.91-.03-1.26-.34-.39-.45-.24-.46.66-.01.87.09 1 .49.6Z"/></svg>