<svg xmlns="http://www.w3.org/2000/svg" width="51" height="51" viewBox="0 0 51 51"><path fill="#fff" fill-rule="evenodd" stroke="#fff" stroke-width=".732" d="M24.39 43.2C22 42.93 21 42.42 21 41.46c0-1.2.57-1.46 2.36-1.06 1.21.27 3.05.27 4.34 0 1.36-.28 1.75-.27 2.1.08.84.84.32 2.02-1.02 2.35-1.38.34-3.23.49-4.39.37Zm3.45-.46c1.53-.26 2.06-.6 2.06-1.31 0-.92-.45-1.1-2.05-.77-1.64.32-2.98.32-4.61-.01-1.14-.24-1.26-.25-1.53-.11-.33.18-.55.7-.46 1.09.28 1.1 3.52 1.65 6.59 1.11Zm-3.44-5.19c-5.14-1.16-9.83-7.4-10.85-14.46C12.36 14.81 17.82 8 25.66 8c5.93 0 10.78 4.01 11.98 9.92 1.89 9.26-6.18 21.22-13.24 19.63Zm2.75-.3c2.99-.63 6.34-3.84 8.44-8.08 4.04-8.18 2-16.52-4.83-19.78-6.67-3.18-14.77.53-16.59 7.61-2.47 9.56 5.41 21.85 12.98 20.25Zm-2.33-1.76c-3.29-.55-4.74-5.54-3.26-11.19.68-2.58 2.15-5.56 3.51-7.09l.39-.44.47.53c.89.98 1.86 2.6 2.62 4.35 3.13 7.2 1.12 14.65-3.73 13.84Zm2.26-.6c4.09-2.09 3.35-11.84-1.32-17.44-.32-.38-.42-.3-1.38 1.14-3.44 5.15-4.16 12.13-1.59 15.39 1.02 1.29 2.8 1.67 4.29.91Zm4.6-3.05c-.03-.03-.02-.22.03-.42.81-3.59-.31-8.98-2.68-12.82-.53-.85-1.5-2.16-1.82-2.44-.32-.29-.26-.42.41-.92 3-2.21 6.13-1.71 7.53 1.2.66 1.38.79 2.06.79 4.26.01 3.87-1.06 7.04-3.53 10.42-.55.76-.62.83-.73.72Zm-12.8-.81c-3.8-5.32-4.74-12.11-2.15-15.56 1.52-2.01 4.42-2.11 6.95-.23.75.56.75.51.06 1.33-1.94 2.28-3.56 5.98-4.15 9.43-.15.86-.18 3.76-.05 4.98.1 1.02.04 1.03-.66.05Zm.3-.78c-.52-4.06 1.24-9.87 4.09-13.52l.72-.93-.32-.24c-2.29-1.71-4.93-1.85-6.4-.32-2.3 2.39-2.26 7.89.08 12.71.55 1.13 1.82 3.21 1.91 3.13.01-.02-.02-.39-.08-.83Zm13.63-.17c2.91-4.37 3.78-9.98 2.08-13.54-1.29-2.71-4.12-3.19-6.96-1.18l-.62.44.73.94c2.1 2.69 3.44 5.85 4.01 9.46.19 1.19.23 3.81.07 4.47-.13.57-.04.49.69-.59Zm-8.05-16.13c-1.28-.99-2.95-1.69-4.37-1.81-1.04-.09-1.11-.15-.61-.52 1.69-1.22 4.24-1.94 6.31-1.77 1.7.13 3.94.93 4.91 1.74.44.36.39.41-.6.57-1.62.26-2.93.82-4.15 1.79-.82.65-.65.66-1.49 0Zm1.35-.25a8.5 8.5 0 0 1 3.44-1.65c1.45-.33 1.44-.24.15-.88-2.75-1.37-5.68-1.42-8.35-.12-1.42.69-1.43.7-.54.85 1.38.23 2.88.89 4.08 1.79.66.5.6.5 1.22.01Z"/></svg>