<svg xmlns="http://www.w3.org/2000/svg" width="51" height="51" viewBox="0 0 51 51"><path fill="#fff" fill-rule="evenodd" stroke="#fff" stroke-width=".458" d="M6 49.31c-2.08-.56-3.51-1.99-4.1-4.12-.27-.99-.32-38.02-.05-39.18.49-2.04 2.01-3.56 4.16-4.11 1.2-.32 38.06-.31 39.19.01 2.09.58 3.67 2.13 4.1 4.04.2.87.14 38.63-.06 39.4-.51 1.96-2.14 3.5-4.24 3.99-1.07.26-38.07.22-39-.03Zm39.2-.26c1.91-.51 3.41-2.01 3.85-3.86.22-.97.23-38.35 0-39.23-.5-1.9-2.07-3.43-3.99-3.86-.88-.2-38.36-.15-39.11.05-1.49.4-2.68 1.31-3.34 2.54C1.96 5.92 2 4.5 2 25.57v19.22l.23.74c.54 1.7 1.95 3.05 3.68 3.51.81.22 38.47.23 39.29.01ZM13.48 33.38c-.02-.46-.02-4.51 0-9l.03-8.18h2.63c2.31 0 2.65.02 2.7.16.08.2.08 17.48 0 17.68-.05.14-.39.16-2.69.16h-2.63zm6.99.75c-.1-.1-.08-17.66.02-17.81.15-.25 9.61-.11 10.76.15 4.27.98 6.38 3.83 6.37 8.63 0 5.19-2.21 8.14-6.68 8.9-1.17.2-10.29.32-10.47.13ZM18.6 25.2v-8.8h-4.9V34h4.9zm12.65 8.53c4.34-.99 6.29-3.88 6.12-9.08-.13-3.96-1.81-6.56-4.89-7.59-1.58-.53-2.08-.58-7.1-.63l-4.68-.05v17.64l4.83-.05c4.4-.04 4.9-.06 5.72-.24Zm-6-2.94c-.03-.08-.04-2.64-.03-5.69l.03-5.55 1.6.01c3.62.01 5.22 1.08 5.79 3.86.74 3.59-.61 6.45-3.38 7.2-.94.26-3.93.38-4.01.17Zm3.89-.39c2.42-.62 3.39-2.15 3.39-5.35 0-3.88-1.69-5.32-6.29-5.35h-.71l-.06 4.98c-.04 2.74-.04 5.23 0 5.52l.06.53 1.42-.06c.88-.04 1.71-.14 2.19-.27Z"/></svg>