<svg xmlns="http://www.w3.org/2000/svg" width="51" height="51" viewBox="0 0 51 51"><path fill="#fff" fill-rule="evenodd" stroke="#fff" stroke-width=".467" d="M15.16 41.49c-2.1-.5-3.3-2.52-2.83-4.76.55-2.58 4.16-9.15 8.12-14.79l.93-1.33.06-4.27c.04-2.36.09-4.3.11-4.33.22-.21.25.47.23 4.4l-.03 4.24-.69.95c-2.92 3.98-6.64 10.35-7.89 13.5-1.08 2.7-.8 4.45.85 5.54 1.06.7.52.67 11.79.64l10.14-.03.58-.23c2.27-.92 2.93-3.24 1.76-6.19-.88-2.21-4.01-7.69-6.9-12.09L30 20.64v-4.32c0-3.77.02-4.32.15-4.32s.15.54.15 4.26v4.26l1.53 2.37c3.13 4.81 6.02 9.93 6.82 12.06 1.11 2.95.48 5.08-1.84 6.23l-.75.37-10.25.02c-5.99.01-10.42-.03-10.65-.08Zm-.03-1.73c-.96-.45-1.43-1.47-1.22-2.63.42-2.3 3.69-8.18 8.25-14.85l.94-1.37v-4.46c0-3.53.03-4.46.13-4.43.09.04.13 1.05.15 4.5l.02 4.46-.95 1.41c-4.16 6.14-7.18 11.36-8 13.85-.53 1.58-.27 2.69.74 3.23l.44.23h9.86c10.7 0 10.37.02 11.03-.58 1.37-1.23 1.07-2.47-1.87-7.82-1.62-2.95-2.68-4.71-4.66-7.71l-1.69-2.57v-4.51c0-3.94.02-4.51.15-4.51s.15.56.15 4.47v4.46l1.58 2.41c3.48 5.28 6.75 11.18 7.22 13.01.42 1.64.03 2.7-1.23 3.38l-.42.22-10.05.03-10.05.02zm15.7-1.13c-.24-.08-.43-.18-.43-.23s-.23-.13-.52-.19c-.96-.21-1.56-.92-1.45-1.73.05-.37.82-2.41.99-2.65.11-.14.97.12 1.04.32.03.07-.15.63-.4 1.23-.62 1.49-.6 1.66.18 1.79.49.08.57-.01 1.06-1.28.49-1.24.53-1.28 1.1-1.05.31.12.42.13.45.04.04-.13.25-2.21.25-2.46 0-.12 1.05-.09 1.18.04.07.05-.3 3.79-.37 3.87-.18.19-1.16-.07-1.2-.33-.02-.18-.21.17-.66 1.25-.71 1.67-.64 1.59-1.22 1.38Zm.54-.51c.06-.15.35-.86.66-1.59l.55-1.32-.29-.1c-.33-.11-.31-.13-.59.6-.71 1.81-.95 2.02-1.84 1.65-.68-.29-.68-.48.05-2.43.25-.66.25-.71-.1-.75-.28-.04-.98 1.51-1.08 2.37-.09.81.52 1.37 1.49 1.37.4 0 .48.03.48.18 0 .38.52.39.67.02Zm-8.03-.11c-.44-.27-.64-.59-.64-1.04 0-.87.48-1.25 1.67-1.34.61-.05.73-.09.71-.22-.04-.18-1.09-.23-1.61-.07-.27.08-.57-.32-.57-.78 0-.43 2.15-.6 2.87-.23.56.29.73 1.16.58 2.91l-.07.87h-.61c-.34 0-.94.03-1.32.05-.57.04-.76.01-1.01-.15Zm1.79-.32.28-.21.06.22c.04.16.12.2.32.18l.26-.03.03-1.1c.06-2.05-.04-2.23-1.3-2.32-.98-.07-1.62.09-1.52.4.09.29.06.29.43.16.41-.14 1.51-.06 1.63.13.04.07.07.27.06.43l-.03.3-.8.06c-1.19.08-1.55.32-1.55 1.03 0 .9 1.3 1.36 2.13.75Zm-1.37-.41c-.4-.56-.03-.93.93-.93h.66l.03.42c.03.38 0 .43-.27.57-.46.24-1.16.21-1.35-.06Zm1.18-.14c.09-.03.16-.17.16-.3 0-.28-.71-.35-1.05-.1-.43.31.28.63.89.4Zm8.85-2.26c.07-.68.14-1.44.18-1.69.05-.44.04-.47-.22-.53-.36-.09-.34-.16-.5 1.3-.08.71-.18 1.46-.21 1.66-.06.38-.03.4.52.47.07.01.15-.44.23-1.21Zm-15.39.83c0-.06.11-.59.25-1.17.3-1.25.37-1.08-.7-1.73-.94-.57-.97-.65-.4-.98l.39-.21.59.29c.69.35.63.38.85-.42.17-.64.17-.64.67-.8.68-.22.7-.17.41.99a16 16 0 0 0-.26 1.06c0 .03.43.3.95.61 1.08.63 1.14.76.49 1.08l-.46.22-.6-.33c-.33-.19-.61-.32-.62-.3-.02.01-.11.33-.21.7-.17.64-.19.68-.59.81-.22.08-.49.18-.59.22s-.17.03-.17-.04Zm.82-.53c.08-.07.24-.44.33-.81.23-.85.21-.84.97-.41.5.29.68.34.88.27.39-.13.3-.24-.61-.75-1-.57-.96-.48-.69-1.59.25-1 .25-1.03-.1-.86-.18.09-.28.28-.41.8-.22.89-.2.87-.94.48-.58-.31-.67-.33-.91-.22l-.27.12.69.41c.38.22.79.46.9.54l.21.13-.23.88c-.28 1.02-.29 1.13-.11 1.13.07 0 .2-.06.29-.12Zm6.21-1.28c-1.46-.34-1.73-2.57-.4-3.27.89-.47 2.38-.08 2.77.72.75 1.55-.58 2.98-2.37 2.55Zm1.46-.38c1.02-.51 1.09-2.11.13-2.59-.51-.25-1.57-.24-1.95.01-.56.37-.76 1.4-.41 2.07.31.61 1.51.88 2.23.51Zm3.07-.4c-.02-.09-.26-.88-.51-1.74-.53-1.79-.53-1.87-.05-2.03l.35-.13-.35-.03c-.32-.04-.35-.07-.33-.34 0-.16.05-.8.09-1.42l.07-1.12-.24-.09c-.27-.11-.86-.04-.95.1-.03.05-.14.65-.24 1.34-.22 1.49-.14 1.36-.81 1.26-.46-.06-.54-.1-.51-.27.01-.11.09-.69.17-1.3.16-1.24.08-1.55-.4-1.55-.64 0-.69.08-.93 1.46-.12.71-.26 1.32-.3 1.36-.06.05-1-.07-1.08-.15-.04-.04.52-3.73.59-3.84.09-.14.88-.05 1.02.11.06.07.35.1.76.08.51-.03.76.01 1.05.16.32.16.53.19 1.2.15.93-.06 1.32.08 1.65.6.22.34.22 2.28 0 3.19-.07.31 0 .66.45 2.2.29 1 .5 1.86.46 1.89-.31.27-1.09.35-1.16.11Zm-4.68-.22c-.67-.67-.16-1.7.83-1.7.87 0 1.27.76.84 1.59-.27.54-1.18.59-1.67.11Zm-2.6.13c-.21-.02-.38-.07-.38-.11s.07-.88.15-1.87.15-1.86.15-1.93c0-.15 1.06-.17 1.15-.01.06.09-.1 2.91-.21 3.66-.05.35-.03.34-.86.26Zm3.69-.14c.36-.13.43-.25.43-.75s-.15-.64-.7-.67c-1.01-.04-1.09 1.43-.08 1.52.04.01.19-.04.35-.1Zm4.42-.05c.02-.02-.16-.75-.41-1.61-.4-1.4-.47-1.58-.68-1.61-.42-.07-.42.11.07 1.77.47 1.59.48 1.62.73 1.56.14-.04.27-.08.29-.11Zm-7.46-1.24c.04-.66.1-1.45.13-1.75l.07-.55h-.32c-.17 0-.31.01-.32.03-.05.1-.26 3.34-.22 3.4.02.04.17.07.32.07h.28zm6.68-3.26c.1-.92.1-2.1-.01-2.38-.2-.53-1.23-.76-1.99-.44-.32.13-.35.12-.63-.15-.3-.3-1.23-.35-1.97-.12-.2.07-.22.05-.17-.12.05-.16.01-.22-.2-.26-.31-.06-.28-.15-.54 1.63-.11.8-.23 1.53-.26 1.62-.04.15.01.18.28.18h.34l.18-1.12c.22-1.37.26-1.44.77-1.58 1.09-.29 1.36.25 1.08 2.15-.13.84-.14.81.21.9l.26.06.17-1.23c.21-1.44.3-1.58 1.08-1.58.83 0 .93.18.85 1.57-.04.62-.09 1.2-.12 1.27-.04.09.03.16.18.19.39.07.43.02.49-.59Zm5.5-7.06c-1.78-2.05-3.12-3.71-3.08-3.82.02-.07.54-.12 1.55-.14l1.52-.03.02-3.17.03-3.17.89-.03c.65-.02.92.01.98.1.04.07.08 1.51.08 3.2v3.07l1.47.03c.96.02 1.48.07 1.5.14.02.06-.76 1.07-1.74 2.24s-1.86 2.24-1.96 2.37c-.27.33-.28.33-1.26-.79Zm.97-2.08.03 2.65.41-.45c.22-.25 1.03-1.2 1.79-2.12l1.39-1.67-1.43-.03-1.42-.03-.03-3.17-.02-3.18h-1.4v6.39l-1.49.03-1.49.03 1.77 2.09 1.76 2.08.05-2.63.06-2.64zm-17.35-7.72c-.28-.35-.22-1.6.08-1.79.07-.04 2.92-.06 6.33-.03 3.42.02 6.28.04 6.37.04.37 0 .54 1.24.23 1.68l-.15.22h-6.38c-4.99 0-6.41-.03-6.48-.12Zm12.75-.23c.14-.05.17-1.11.03-1.19-.05-.04-2.89-.08-6.3-.11L19.4 9.9l-.11.27c-.05.15-.09.45-.07.67l.03.41 3 .05c3.2.05 9.42.02 9.63-.05Z"/></svg>