<svg xmlns="http://www.w3.org/2000/svg" width="51" height="51" viewBox="0 0 51 51"><path fill="#fff" fill-rule="evenodd" stroke="#fff" stroke-width=".444" d="M22.85 49.59C7.09 47.61-2.49 31.69 3.16 16.88 6.29 8.65 14.1 2.66 22.92 1.71 34.92.4 45.92 8 48.9 19.65c1.14 4.46.86 10.31-.69 14.3l-.28.72.53.47c1.98 1.74 1.65 6.5-.63 9.21-2 2.38-3.38 2.86-8.33 2.92l-3.35.04-.77.34c-3.67 1.65-8.67 2.42-12.53 1.94Zm5.2-.19c2.18-.24 4.53-.83 6.5-1.64l1.1-.45-3.75-.01c-2.06 0-3.81-.04-3.89-.09-.21-.14-.09-2.62.18-3.66.75-2.85 2.93-5.1 5.7-5.88.73-.2 1-.21 6.64-.25l5.87-.03.65-1.29c2.66-5.3 3.12-12.16 1.21-17.93C44.22 5.93 31.37-.83 18.9 2.72 6.06 6.37-1.28 20.29 2.91 33.04 6.4 43.67 17.07 50.62 28.05 49.4Zm14.5-2.41c4.17-.5 6.95-3.8 6.95-8.25V37.6h-6.89c-7.29 0-7.91.03-9.21.46-2.37.79-4.36 2.97-5 5.49-.21.8-.39 3.08-.27 3.39.08.2 12.82.24 14.42.05Zm-5.59-2.52c-.77-.43-1.03-1.29-.63-2.07.75-1.5 2.89-1.15 3.05.49l.05.51h-1.17c-1.18 0-1.34.06-.94.34.29.21.82.2 1.03 0 .16-.16.85.06.85.27 0 .53-1.56.85-2.24.46Zm5.69.09c-.54-.23-.73-.68-.5-1.22.17-.42.53-.6 1.38-.69.69-.08.81-.17.48-.35-.29-.15-.72-.12-.93.07-.26.23-1.02 0-.88-.28.31-.56 1.41-.83 2.14-.51.64.29.76.61.76 1.97v1.05h-.38c-.21 0-.43-.05-.48-.1-.07-.07-.22-.06-.47.05-.44.18-.72.18-1.12.01Zm-10.13-2.03.03-2.08h1.1c1.25 0 1.68.13 1.9.56.22.41.19 1.02-.05 1.24-.19.17-.19.18 0 .42.28.36.33.75.15 1.2-.25.62-.53.73-1.94.73H32.5zm7.88 1.89c-.24-.2-.38-.79-.39-1.64-.01-.44-.03-.48-.26-.48-.22 0-.25-.04-.25-.4s.03-.4.25-.4c.21 0 .25-.05.25-.28 0-.22.08-.33.39-.5.51-.29.51-.29.51.27v.5l.38.03c.35.03.37.05.4.41l.03.37h-.81v1.5h.34c.4 0 .73.53.45.71-.25.16-1.05.1-1.29-.09Zm-1.74-.16c.35-.23.18-.46-.21-.28-.49.22-1.03.15-1.37-.18-.47-.48-.36-.55.97-.58l1.18-.03-.06-.35c-.28-1.7-2.81-1.48-2.81.24 0 1.14 1.32 1.82 2.3 1.18Zm5.35-.05c.35-.26.39-.26.39-.01 0 .15.07.2.25.2.34 0 .38-1.73.05-2.27-.34-.57-1.27-.66-2.01-.21-.34.21-.34.21-.11.29.17.06.3.04.45-.06.49-.35 1.36-.05 1.37.46 0 .13-.16.18-.8.23-.95.09-1.33.33-1.33.84 0 .76 1.01 1.07 1.74.53Zm-8.91.04c.54-.28.62-1.11.14-1.56l-.24-.22.25-.23c.18-.17.25-.33.25-.61 0-.79-.45-1.03-1.92-1.03h-.88v3.8h1.05c.74 0 1.15-.04 1.35-.15Zm6.44.06c.08-.13-.15-.29-.49-.33l-.3-.03-.03-.92-.03-.93h.41c.33 0 .4-.03.4-.2s-.07-.2-.4-.2h-.4v-.45c0-.44 0-.44-.25-.33-.19.09-.25.19-.25.45 0 .29-.03.33-.25.33-.18 0-.25.05-.25.2 0 .14.07.2.24.2.23 0 .24.03.28.94.05 1.15.18 1.36.84 1.36.24 0 .45-.04.48-.09Zm1.34-.32c-.23-.13-.23-.42.01-.63.31-.28 1.45-.28 1.49 0 .07.5-.97.94-1.5.63Zm-9.68-.64v-.65h.7c1.04 0 1.46.44.99 1.04-.19.24-.26.26-.95.26h-.74zm10.74.34c.41-.32.33-.43-.26-.36-.53.07-.86.27-.74.46.12.18.72.12 1-.1Zm-9.2-.05c.4-.4.06-.74-.75-.74h-.59v.9h.59c.41 0 .65-.05.75-.16Zm2.11-.96c.2-.7 1.15-.89 1.62-.33.42.48.33.55-.73.55-.94 0-.95 0-.89-.22Zm1.59-.12c-.13-.34-.86-.46-1.16-.19s-.21.33.52.33c.54 0 .68-.03.64-.14Zm-5.24-.86v-.6h.74c.84 0 1.06.13 1.06.6 0 .43-.32.6-1.12.6h-.68zm1.5.26c.31-.38.09-.61-.62-.64l-.68-.03v.81h.59c.39 0 .63-.05.71-.14Zm-9.95-.55c-.79-.5-7.93-7.85-8.01-8.24-.22-1.23.63-2.27 1.86-2.27.77 0 .99.16 3.13 2.28l1.97 1.96V27.1H10.15l-.38-.25c-.85-.58-1.02-1.89-.58-4.39C11.55 9.28 27.94 4.32 37.5 13.89c2.82 2.82 4.26 5.86 4.7 9.91.2 1.78-.06 2.61-.94 3.12l-.41.23-6.67-.01-6.68-.01v8.01l2.08-2.06c1.76-1.76 2.13-2.07 2.45-2.13 1.62-.31 2.9 1.1 2.28 2.51-.24.54-6.87 7.29-7.7 7.85-.55.36-1.38.41-1.86.1Zm1.91-.38c1.23-.98 7.42-7.4 7.53-7.81.29-1.07-.54-2.12-1.69-2.12-.63 0-.8.14-3 2.34-1.13 1.13-2.08 2.06-2.13 2.06-.04 0-.07-2.15-.05-4.78l.03-4.77.33-.67c.34-.7.78-1.14 1.47-1.48l.4-.2h-8.42c-4.63 0-8.44-.04-8.47-.08-.07-.11.18-1.16.5-2.17 1.18-3.65 4.25-6.74 8.03-8.09 6.7-2.39 16.99 1.19 19.87 6.92.41.81.42.78.08-.24-1.31-3.94-4.42-7.32-8.49-9.25-9.24-4.36-20.47.75-22.95 10.45-.44 1.74-.48 2.2-.12 1.3 1.97-4.87 8.61-9.69 15-10.88.23-.04.32-.02.3.06-.02.06-.32.17-.67.24-3.94.81-8.49 3.32-11.56 6.4-2.91 2.91-4.37 7.25-2.81 8.37l.31.22 6.85.05 6.85.05.03 4.28c.01 2.35-.01 4.27-.05 4.27-.05 0-.98-.9-2.08-2.01-2.21-2.22-2.52-2.43-3.3-2.37-1.14.1-1.9 1.32-1.41 2.26.16.3 7.59 7.73 7.91 7.91.38.22 1.28.08 1.71-.26Zm22.78-3.91c-.13-.58-.56-1.32-1.05-1.77l-.51-.48-.59 1.19c-.32.65-.59 1.22-.59 1.27 0 .04.63.07 1.4.07h1.4zm-8.59-10.28c1.4-.24 1.54-2.92.31-5.94-1.4-3.42-5.79-6.52-10.89-7.7-1.17-.27-1.18-.25-.12.14 4.37 1.6 7.95 5.85 8.27 9.82l.03.39-4.25.05-4.25.05-.55.26c-1.09.51-1.72 1.34-1.86 2.46l-.07.53 3.84.02c4.54.03 9.12 0 9.54-.08Zm-2.69-3.99c-.23-2.01-1.58-4.55-3.33-6.28-7.17-7.09-19.19-3.92-21.73 5.76l-.28 1.07h25.41z"/></svg>