<svg xmlns="http://www.w3.org/2000/svg" width="51" height="51" viewBox="0 0 51 51"><path fill="#fff" fill-rule="evenodd" stroke="#fff" stroke-width=".744" d="M22.99 44.05c-2.5-.39-4.75-1.27-6.87-2.68-6.8-4.53-9.16-13.62-5.45-21 .69-1.39 2.3-3.67 2.58-3.67.15 0 .37.64.76 2.2l.22.85-.46.68c-1.59 2.34-2.41 5.96-2.04 9l.09.68 2.43-2.36 2.43-2.35 2.84-.85c1.55-.46 4.2-1.25 5.88-1.75 2.23-.66 3.11-.96 3.26-1.13.69-.73 5.97-6.54 8.58-9.45 1.6-1.77 2.17-2.12 3.46-2.12 1.93 0 3.3 1.41 3.33 3.42.01 1.39-.18 1.65-3.32 4.56-1.47 1.36-4.39 4.06-6.49 6l-3.82 3.53v1.17c0 1.5-.17 8.53-.25 10.4l-.07 1.44.24-.07c.57-.16 2.33-1.1 3.09-1.66 4.75-3.5 6.85-9.73 5.09-15.12l-.3-.92.72-.68c1.24-1.16 1.38-1.25 1.54-1.02.21.29.9 2.48 1.09 3.45 2.13 11.08-7.5 21.17-18.56 19.45Zm4.32-.2c10.62-1.41 16.93-11.97 13.17-22.02l-.2-.53-.22.18c-.13.1-.53.45-.9.79l-.67.62.25.79c1.84 5.82-.55 12.39-5.73 15.78-.97.63-2.63 1.44-2.95 1.44-.22 0-.22-.11-.14-2.6.05-1.29.12-4.25.16-6.58l.07-4.24.4-.36c.22-.19 2.07-1.89 4.1-3.77 9.09-8.39 8.76-8.07 9.01-8.93.61-2.07-.85-4.07-2.96-4.06-1.45 0-1.5.03-5.5 4.49-1.34 1.49-3.38 3.72-4.53 4.97l-2.1 2.28-.76.24a725.69 725.69 0 0 1-7.61 2.26c-1.35.4-2.69.8-2.97.88-.51.15-.53.16-.53.51.01.65.3 7.52.4 9.31.14 2.5.13 3.6-.03 3.6-.2 0-1.78-1.42-2.37-2.14-1-1.22-1.06-.95.59-2.6l1.43-1.43-.11-2.08a80 80 0 0 1-.11-3.03c0-.52-.02-.93-.04-.91-.06.06-.43 1.7-1.06 4.74-.29 1.38-.56 2.54-.61 2.59-.22.24-.18-.16.21-1.96.41-1.88 1.2-5.77 1.2-5.87 0-.02-.99.94-2.2 2.14-1.28 1.27-2.24 2.14-2.29 2.09-.16-.16-.31-1.5-.31-2.72 0-2.5.69-5.02 1.96-7.12.3-.49.54-.98.54-1.08 0-.16-.46-1.85-.66-2.41-.05-.17-1.15 1.27-1.85 2.42-3.06 5.09-2.91 12.02.36 17.09 3.3 5.09 9.61 8.03 15.56 7.23Zm-10.42-7.7c-.06-1.32-.13-2.55-.17-2.73l-.07-.32-1.24 1.24-1.25 1.25.14.28c.15.28 2.58 2.78 2.65 2.71.02-.01-.01-1.11-.06-2.43Zm3.36-13.31c-3.47-.84-5.71-4.72-4.69-8.14.48-1.62 1.87-3.3 3.34-4.02 4.39-2.15 9.44.96 9.43 5.82-.01 4.22-3.97 7.33-8.08 6.34Zm2.8-.19c4.87-1.03 6.7-6.87 3.28-10.45-4.97-5.22-13.27.72-10.06 7.2 1.2 2.41 4.12 3.81 6.78 3.25Zm7.32-5.83c-.05-.07-1.28-5.2-1.42-5.91l-.07-.34.52.07c1.26.17 4.95 1.68 4.95 2.03 0 .12-3.75 4.23-3.87 4.23-.04 0-.09-.03-.11-.08Zm1.92-2.16c.94-1.02 1.71-1.89 1.71-1.95 0-.13-.87-.57-2.05-1.04-.99-.39-2.75-.9-2.75-.79 0 .04.29 1.3.65 2.81s.65 2.76.65 2.78c0 .1.23-.13 1.79-1.81Z"/></svg>