<svg xmlns="http://www.w3.org/2000/svg" width="51" height="51" viewBox="0 0 51 51"><path fill="#fff" fill-rule="evenodd" stroke="#fff" stroke-width=".493" d="M16.85 33.77c-5.49-1.53-7.94-7.57-5.07-12.52.44-.75 2.07-2.39 2.84-2.83 1.21-.71 3.16-1.34 3.44-1.11.11.09.14.53.14 2.35v2.23l-.67.32c-2.96 1.41-2.95 5.53.02 6.84l.55.25-.02 2.32c-.03 2.71.08 2.51-1.23 2.15Zm16.25-2.1v-2.33l.65-.32c3-1.48 2.95-5.57-.09-6.83l-.56-.23V17.3h.41c.51 0 2.06.51 2.79.92 6.08 3.41 5.75 12.23-.57 15.1-.69.31-1.99.68-2.4.68h-.23zm2.26 1.53c5.09-2.03 6.73-8.57 3.22-12.8-1.16-1.39-3.14-2.56-4.86-2.85l-.42-.07v1.79c0 2.45.01 2.48.64 2.8 3.03 1.52 3.03 5.65-.01 7.15l-.63.31v2.07c0 1.14.03 2.09.06 2.12.09.09 1.2-.2 2-.52ZM17.9 31.58v-2.13l-.57-.24c-2.96-1.29-3.01-5.61-.07-7.13l.64-.33v-4.27l-.42.07c-1.77.3-3.95 1.67-5.08 3.2-1.75 2.37-2.09 5.71-.84 8.34 1.04 2.2 2.84 3.73 5.22 4.41.37.1.77.19.9.19l.22.01zm6.58-2.07c-2.43-.8-3.56-3.4-2.45-5.63 1.89-3.83 7.62-2.49 7.62 1.77 0 2.71-2.66 4.69-5.17 3.86Zm2.37-.28c3.29-1.15 3.49-5.55.32-7.03-1.89-.89-4.03-.08-5 1.9-1.42 2.88 1.6 6.2 4.68 5.13Z"/></svg>