<svg xmlns="http://www.w3.org/2000/svg" width="51" height="51" viewBox="0 0 51 51"><path fill="#fff" fill-rule="evenodd" stroke="#fff" stroke-width=".645" d="M0 51c0-.06 1.33-.1 3.78-.11 3.32-.01 3.71-.02 3.29-.14-2.28-.63-4.75-2.67-6.01-4.97C.54 44.84 0 43.14.01 42.49c.01-.54.01-.53.29.53.99 3.68 3.21 6.17 6.59 7.39.75.27 1.39.21 3.45-.31 6.05-1.55 8.86-4.99 7.98-9.77l-.21-1.13-.67-.62c-1.34-1.26-1.96-2.28-2.65-4.36l-.43-1.32H14c-.57 0-.6.06-.42.9.24 1.16.21 4-.07 5.05-.27 1.06-1.08 2.66-1.76 3.48-.78.95-3.03 2.87-3.36 2.87-.12 0-.32-.61-.23-.69.05-.04.54-.44 1.09-.88 1.56-1.25 1.98-1.84 2.34-3.26.43-1.7.35-3.48-.25-5.44-.85-2.74-1.05-3.5-1.19-4.56-.08-.62-.28-1.57-.45-2.12-.33-1.08-.7-3.02-.7-3.67 0-.43.51-1.08.84-1.08.1 0 .16-.09.16-.24 0-.39-.68-4.96-.84-5.66-.08-.36-.23-1.26-.32-2s-.18-1.37-.19-1.38c-.02-.02-.61-.08-1.32-.12-1.79-.12-2.18-.27-3.35-1.25-2.02-1.69-1.92-5.26.24-8.79.54-.89 1.44-2.76 1.32-2.76-.18 0-1.73 1.17-2.36 1.78C1.58 4.63.64 6.44.13 8.95l-.08.4-.03-.53C-.15 6.02 3.18 1.79 6.56.53c.41-.16.74-.31.74-.35S5.65.09 3.62.07C1.6.06 11.49.05 25.6.05S49.52.07 47.4.1l-3.85.05.55.19c3.63 1.25 7.1 5.41 7.1 8.52 0 .69-.15.52-.28-.31-.56-3.63-3.81-7.15-7.5-8.14l-.73-.2.28.51c.16.28.49.74.74 1.02 1.22 1.35 1.79 2.82 1.94 5.02.24 3.31-2 5.62-5.16 5.32l-.41-.04.06.38c.03.2.1 1.73.16 3.4.05 1.67.14 3.35.19 3.73.05.39.12 1.07.16 1.53.06.68.1.82.23.8.32-.06.47.49.34 1.23-.1.58-.09.72.08 1.16.64 1.68 1.24 5.09 1.17 6.58-.06 1.3-.2 1.82-.92 3.67-1.25 3.16-1.29 4.24-.29 7.56.62 2.05 1.51 3.63 2.83 5.04.48.51.6.71.62 1.02.16 1.78-3.28-2.37-5.13-6.2-1.13-2.34-1.39-4.65-.75-6.84.53-1.84.86-3.07.92-3.42.03-.21.11-.38.17-.38.19 0 .01 1.08-.38 2.36-1 3.3-.85 5.69.53 8.36.48.93 1.04 1.73.89 1.27-1.05-3.17-1.21-3.9-1.13-5.28.05-1.03.12-1.26 1.06-3.46 1.37-3.2 1.36-4.8-.09-10.34-.28-1.07-.4-1.76-.41-2.25 0-.73-.03-1.01-.35-3.43-.16-1.23-.21-1.43-.36-1.43-.1 0-.18-.04-.18-.08 0-.05-.27-.41-.6-.8s-.56-.73-.51-.76c.08-.05.97.83 1.25 1.24.21.31.21.14.02-.85-.11-.53-.12-.84-.04-1.25.06-.31.08-1.27.05-2.23-.03-1.23-.02-1.67.07-1.64.06.02.12.17.14.33.07.81.01.77 1.15.71 2.06-.11 3.16-.77 3.94-2.35l.38-.76V7.25c-.01-2.06-.34-3.23-1.32-4.72-.4-.6-.35-.57-.88-.38-.44.16-1.15.2-1.15.06 0-.04.27-.14.6-.2.73-.14.73-.19.2-1.11-.5-.85-.19-.8-4.36-.8h-3.5l-.3.33c-.27.28-.89 1.12-1.08 1.44-.04.07.11.24.39.43.78.54.4.51-.68-.05C30.58.84 28.49.48 26.05 1.01l-1.56.34.05.27c.03.16.09.41.12.58.12.56-.15.32-.32-.29l-.16-.59-.74-.11c-2.53-.37-4.93.06-7.47 1.34-1.32.67-1.15.69-1.7-.18-.26-.41-.74-1.08-1.08-1.5L12.58.1h-1.79C8.82.1 7.95.24 6.67.77l-.69.28-.47 1.1c-.26.61-.7 1.46-.98 1.9C3.74 5.27 2.55 8.6 2.9 8.6c.12 0 .7.88.7 1.05 0 .08.05.17.1.2.13.08.13.25 0 .25-.06 0-.13-.07-.17-.16-.03-.09-.21-.39-.4-.66l-.33-.5v.73c.01 2.99 2.28 4.48 5.07 3.32.41-.16.53-.16.53 0 0 .09-.36.25-.92.42-1.11.34-1.02.45.14.16 1.33-.34 1.66-.2.42.18l-.59.18.93.07c.89.08 1.08.16.77.33-.2.11-.06 1.62.34 3.76.16.84.41 2.43.57 3.54.24 1.71.31 2.03.46 2.06.33.09.18.26-.21.24-.5-.02-.9.19-.98.52-.1.41.15 2.11.51 3.38l.33 1.18.08-1.05c.08-1.21.2-1.89.71-4.11.38-1.64.38-1.93 0-2.21-.13-.09-.47-2.41-.37-2.51.14-.14.2.05.36 1.18.14 1.02.25 1.44.25.97 0-1.24.61-4.9 1.05-6.32.65-2.07 2.84-5.36 3.77-5.65.38-.13.28.03-.55.87-1.12 1.11-1.32 1.54-.27.54 1.06-.99 1.17-.82.16.24-2.02 2.12-3.2 5.03-3.41 8.45-.08 1.27-.38 3.2-.71 4.55-.57 2.36-.56 2.33-.55 4.69.02 2.74.13 3.39.9 5.71.94 2.8 1.06 4.43.48 6.25-.32.98-.3 1 .2.28 1.47-2.11 1.6-4.38.53-9.18-.5-2.21-.59-2.85-.4-2.85.06 0 .1.02.1.05 0 .15.62 2.99.74 3.4l.15.51.41-.04c.47-.05.46.03.16-1.02-.35-1.22-.56-2.33-.63-3.28-.07-.97-.33-1.49-.58-1.15-.18.25-.29.1-.18-.23.08-.23.03-.4-.24-.93-.88-1.74-.56-3.43.93-4.86l.63-.6.21-1.4c.73-5.09 2.28-7.38 6.3-9.4 1.51-.75 2.1-.91 3.3-.86 1.25.04 2.06.04 3.6 0 2.16-.06 5.29 1.39 6.96 3.24.84.92 2.44 3.59 2.44 4.06 0 .05.12.11.27.13.14.02.29.09.31.17.03.1-.01.12-.17.08-.26-.07-.29-.22.3 1.5.48 1.39.88 3.12 1.04 4.48.08.7.57 2.79.8 3.45.37 1.05.76 2.86.73 3.38-.02.28 0 .52.05.52.04 0 .07.05.07.1 0 .06-.06.1-.13.1-.08 0-.32.22-.55.49s-.55.55-.72.63c-.17.07-.33.22-.35.33s-.16.75-.3 1.43c-.54 2.51-1.55 4.46-3.27 6.28-1.07 1.13-1.2 4.28-.25 6.17 1.48 2.95 6.88 5.87 9.48 5.11 3.32-.97 6.05-4.03 6.81-7.63.32-1.54.38-1.67.34-.71-.16 3.46-3.14 7.24-6.68 8.44l-.73.25 3.73.01c2.41 0 3.72.04 3.72.1 0 .07-8.6.1-25.6.1S0 51.07 0 51Zm41-.39c-3.33-1.1-6.35-3.63-7.1-5.96-.13-.39-.26-.79-.3-.89-.04-.12-.12.33-.19 1.05-.15 1.41-.17 1.53-.31 1.44-.14-.08-.13-.51.05-1.85.08-.63.21-1.72.3-2.42.08-.7.17-1.39.21-1.54.06-.23-.12-.1-1.09.77-1.97 1.79-2.24 1.88-5.8 1.89-2.73.02-2.76.01-3.93-.58-.74-.38-2.12-1.28-3.26-2.15-.49-.36-.93-.69-.99-.72-.11-.08-.09.06.22 1.65.26 1.37.41 2.82.34 3.37-.11.88-.27 1.44-.39 1.4s-.12-.08.05-1.12c.07-.42.09-.94.04-1.3l-.07-.6-.19.73c-.91 3.59-5.01 6.33-10.54 7.05-.17.02 7.37.05 16.75.05l17.05.01zm-12.05-7.85c1.46-.07 2.06-.42 4.15-2.42.53-.52 1.02-.94 1.08-.94.32 0 2.09-2.38 2.63-3.53 1.26-2.69 1.88-10.56 1.15-14.59-.46-2.58-1.75-5.93-2.97-7.74-1.28-1.9-2.86-3.06-5.54-4.05-.87-.32-.95-.33-2.15-.3-2.2.05-2.53.04-3.45-.03-1.09-.1-1.9.12-3.49.94-3.09 1.59-4.73 3.5-5.46 6.35-.23.89-.73 3.85-.67 3.91.03.03.33-.05.68-.17.8-.27 2.06-.3 2.62-.06.4.17.52.44.15.33-1.17-.33-2.06-.29-3.09.15-.46.2-.46.21-.52.77-.04.31-.2 1.09-.36 1.72-.8 3.09-.75 3.81.3 4.57.53.37.57.72.05.38-.15-.1-.29-.16-.31-.13-.05.05.54 2.87.9 4.28.13.52.33 1.34.44 1.82.26 1.1.61 1.95 1.16 2.78.44.66 1.74 2 1.94 2 .06 0 .61.42 1.22.92 3.78 3.17 4.17 3.29 9.54 3.04Zm-3.15-6.61c-.84-.1-1.56-.27-2.64-.62-1.08-.34-1.51-.44-1.54-.35-.04.14-.32.17-.32.03 0-.13.29-.41.42-.41.06 0 .74.2 1.5.45 1.1.36 1.69.49 2.83.62l1.43.17 1.04-.28c1.32-.36 2.39-.77 3.12-1.21.58-.35.96-.45.96-.25 0 .06-.05.1-.11.1s-.38.17-.7.39c-.64.43-1.85.9-3.27 1.27-1.05.27-1.1.27-2.72.09Zm15-2.47c0-.07.07-.35.15-.63.3-.97.36-1.77.2-2.67-.15-.86-.06-1.27.16-.72.31.78.21 2.76-.18 3.77-.15.36-.33.5-.33.25Zm-14.45-1.94c-.3-.08-1-.14-1.75-.14-1.44 0-1.5-.03-1.5-.7 0-.54.84-2.1 1.03-1.91.07.07-.04.32-.32.79-.31.51-.41.79-.41 1.1v.42h1.22c.72.01 1.48.07 1.83.15.85.21 1.28.19 1.83-.09.26-.14.75-.27 1.12-.31 1.19-.13 1.32-.54.6-1.89-.39-.75-.4-1.12-.01-.57.38.53.71 1.35.71 1.77 0 .66-.21.83-1.22.98-.51.08-1 .22-1.21.34-.4.26-1.14.28-1.92.06Zm12.56-1.04c.8-.65.83-1.06.31-3.2l-.39-1.55-.06 1.6c-.04.88-.13 2.02-.2 2.53-.15 1.03-.15 1.03.34.62Zm1.81-3.77c-.1-.16-.34-.55-.52-.88s-.49-.82-.67-1.09c-.23-.31-.31-.52-.25-.58s.21.07.43.38c.42.62 1.39 2.26 1.39 2.36 0 .17-.19.07-.38-.19Zm-26.21-.28c0-.46.44-2.26.55-2.25.2.02-.15 2.01-.41 2.36-.13.18-.14.17-.14-.11Zm-1.56-1.36c.08-.52.27-1.48.44-2.14.16-.66.32-1.4.36-1.65l.07-.45-.33.3c-1.38 1.26-1.71 2.75-.98 4.45.27.63.26.63.44-.51Zm5.15.21c-.57-.11-.76-.48-.33-.64.18-.07.36.02.28.14-.03.04.04.06.15.03s.2-.01.2.04.15.1.32.11c.37.03.54.15.43.31-.06.11-.55.11-1.05.01Zm.42-.75c-.23-.07-.55-.21-.7-.32-.2-.13-.45-.18-.94-.18-.73 0-1.23-.31-1.3-.8-.05-.31.15-.31.33.01.08.16.26.3.38.32.2.03.21.01.12-.17a.9.9 0 0 1-.11-.35c0-.23.31-.2.37.03.03.11.13.21.24.24.23.06.24.01.02-.21-.23-.24.08-.3.41-.08.13.08.33.12.44.09l.2-.05-.2-.2c-.31-.31-.08-.44.33-.19.42.26.57.27.35.02-.26-.29-.03-.34.39-.1.2.12.39.18.43.14s.01-.1-.05-.12c-.14-.05-.18-.33-.05-.33.04 0 .25.09.47.19.22.11.71.24 1.08.29.76.12 1.41.47 1.59.87.16.36 0 .45-.24.12-.17-.24-.65-.57-.83-.57-.03 0-.03.11.01.25.03.13.02.37-.04.53-.09.27-.08.28.18.24.18-.03.27-.09.24-.17-.11-.27.15-.24.35.04.26.36.26.45.04.39-.1-.03-.56.01-1.03.08-1.09.16-1.94.16-2.48-.01Zm15.13-.15c-.08-.13.03-.3.18-.3.07 0 .38-.13.69-.29.53-.28.57-.29.72-.12.22.24.2.34-.05.28-.17-.05-.18-.03-.07.1.11.14.1.16-.14.11-.16-.03-.28-.01-.28.03 0 .05-.09.09-.19.09-.11 0-.23.05-.26.1-.03.06-.17.1-.3.1s-.27-.04-.3-.1Zm-2.97-.5c-.19-.12-.24-.45-.09-.54.05-.03.07-.15.04-.26-.1-.4.51-.83 1.62-1.15.33-.1.69-.22.8-.28.65-.33.65-.33.65-.1 0 .14.03.13.23-.05.37-.35.55-.18.2.2-.15.17-.15.18.05.18.12 0 .35-.17.55-.4.52-.62.7-.39.21.26l-.26.34h.27c.15 0 .42-.09.61-.2.34-.22.56-.12.34.15-.07.09-.08.15-.02.15.05 0 .15-.07.22-.15.17-.2.3-.19.3.02 0 .15.01.15.14-.02.21-.29.53-.13.34.18-.39.58-1.05.78-1.7.52-.13-.05-.18-.02-.18.08 0 .65-1.03 1.08-2.6 1.07-.58 0-1.16.02-1.3.05s-.33 0-.42-.05Zm8.48-3.69c-.94-1.33-1.08-1.57-.86-1.49.23.07 1.82 2.35 1.78 2.55-.02.12-.31-.21-.92-1.06ZM15.8 15.95c0-.94.04-1.34.15-1.56.19-.35.39-.3.25.06-.05.14-.12.79-.16 1.45-.09 1.6-.24 1.63-.24.05Zm-2.8-.46c0-.6.56-2 1.16-2.9.59-.89 1.74-1.97 1.74-1.63 0 .03-.33.41-.73.84-.82.86-1.24 1.59-1.68 2.87-.33.95-.49 1.22-.49.82Zm-1.88-1-.5-1.02-.33.47c-.18.25-.36.46-.41.46-.26 0 .09-.59.97-1.63.38-.44 1.31-2.2 1.74-3.3.35-.88.89-1.97.97-1.97.03 0 .14.05.25.1.22.12.26.35.04.26-.31-.12-.13.18.46.75.34.33.59.62.56.65-.09.1-.88-.49-1.12-.84-.14-.2-.26-.29-.3-.23-.07.12.2.54.54.85.24.22.27.36.07.36-.08 0-.29-.17-.47-.39l-.33-.38-.18.36-.18.36.65.58c.36.32.65.63.65.68 0 .21-.29.06-.75-.41-.6-.61-.61-.61-.85-.05l-.19.45.35.48c.2.26.4.49.45.5.05.02.09.1.09.18 0 .3-.27.12-.62-.41l-.36-.54-.13.3c-.11.29-.09.37.25 1.06.34.7.4.93.19.8-.04-.03-.21-.32-.38-.66-.16-.33-.32-.6-.35-.61-.07 0-.4.59-.4.72 0 .06-.08.17-.17.24-.17.12-.15.18.25.92.46.88.48.92.29.92-.08 0-.24-.23-.37-.5-.13-.28-.3-.56-.37-.62-.26-.21-.13.27.29 1.13.23.46.44.87.46.92.02.04-.03.07-.11.07-.09 0-.35-.4-.65-1.01Zm-6-7.32c-.79-.6-1.15-1.06-1.24-1.61-.05-.31.21-.3.28.01.14.56.34.81 1.18 1.42.81.59 1.02.82.74.81-.07-.01-.5-.29-.96-.63Zm15.13-3.59c-.8-.25-1.88-.48-2.33-.48-.46 0-.82-.1-.82-.21 0-.37 3.85.4 3.98.79.05.16-.11.14-.83-.1Zm-7.08-.6c-.08-.13-.23-.44-.33-.69-.11-.29-.23-.45-.31-.42-.07.03-.13-.02-.13-.12 0-.09.05-.13.1-.1.16.1.12-.07-.09-.39-.37-.56.08-.89.46-.33.13.17.34.46.47.62.27.33.44.85.28.85-.06 0-.24-.24-.41-.54-.59-1.05-.48-.53.26 1.22.09.21-.16.13-.3-.1Zm2.74-.71C18.36 1.03 20.56.61 23.12.9c.74.09.98.07 1.7-.1 2.48-.59 4.86-.39 7.28.59.41.17.76.31.78.31.01 0 .02-.13.02-.28 0-.16.07-.51.15-.77.08-.27.13-.5.11-.52-.01-.02-4.56-.02-10.1-.01L12.99.15l.61.8c.34.44.76 1.03.93 1.32s.32.53.32.53c.01 0 .48-.24 1.06-.53Zm17.45-.92c.06-.44.24-.63.24-.28.01.19.22-.03.72-.7l.2-.28-.52.03c-.51.03-.54.05-.65.38-.18.53-.28 1.3-.16 1.3.05 0 .13-.2.17-.45Z"/></svg>