<svg xmlns="http://www.w3.org/2000/svg" width="51" height="51" viewBox="0 0 51 51"><path fill="#fff" fill-rule="evenodd" stroke="#fff" stroke-width=".697" d="m6.43 38.33-1.13-.04V12.6l.26-.1c.41-.16 30.16-.13 30.37.03.15.11.17.46.19 3.49l.03 3.37 1-.82c.55-.45 2.04-1.67 3.3-2.72 3.41-2.83 3.94-3.25 4.1-3.25.13 0 .15 1.6.15 12.76 0 12.52 0 12.75-.19 12.72-.11-.02-1.96-1.49-4.12-3.28-2.15-1.79-4-3.31-4.1-3.38-.18-.13-.19-.03-.19 3.37v3.51H22.62c-7.41 0-13.83.02-14.27.04-.44.01-1.31.01-1.92-.01Zm18.37-.31c0-.04-.4-.42-.89-.84l-.9-.78H21.3v-1.45l-5.17-4.3C10.64 26.08 10 25.53 10 25.4c0-.04.66-.64 1.47-1.32 3.95-3.32 4.87-4.09 7.26-6.11l2.57-2.18v-.73c0-.86-.01-.85 1.2-.86h.75l.77-.68c.42-.37.77-.7.77-.74.01-.05-4.3-.08-9.57-.08H5.63l-.05 12.51c-.03 6.88-.04 12.59-.01 12.7.05.19.25.19 9.64.19 5.28 0 9.59-.03 9.59-.08Zm8.76-.77-.88-.85H30.4v-.79c0-.53.04-.81.12-.83.12-.04-.67-.74-6.92-6.02-2.35-1.99-3.75-3.24-3.75-3.35 0-.1.53-.63 1.31-1.28 1-.84 7.68-6.57 9.28-7.96.15-.13.17-.2.09-.24-.09-.03-.13-.3-.13-.83v-.77l.38-.07c.2-.03.75-.06 1.22-.06l.85-.01.8-.74.8-.74-4.6-.01h-4.6l-.85.82-.85.81.47-.06c.61-.08.7.03.66.9l-.03.68-1.57.05-1.56.05-1.24 1.06c-.68.58-3.2 2.71-5.62 4.74-3.45 2.9-4.35 3.71-4.24 3.79.27.22 8.56 7.13 9.8 8.18l1.27 1.07 1.58.03 1.58.03.03.54c.05.94.01 1.01-.66 1.01h-.57l.9.85.9.84h9.2zm2.24-2.7v-3.54l-2.2-1.84c-1.2-1.02-2.66-2.22-3.24-2.68s-1.05-.9-1.05-.96c-.02-.3.06-.24 3.49 2.63 1.46 1.22 4.68 3.89 7.15 5.94l4.5 3.72.03-6.27c.01-3.45.01-9.05 0-12.46l-.03-6.19-2.25 1.86c-1.24 1.02-3.12 2.58-4.18 3.45-1.07.88-1.98 1.59-2.03 1.57-.06-.02-.1-1.24-.09-3.23.01-3.94.02-3.85-.59-3.85-.43 0-.51.04-1.21.7-.41.38-.78.7-.83.7-.04 0-.07.04-.07.1 0 .05.1.09.23.07.21-.02.22.02.25.81l.03.82H32.4c-1.26 0-1.32.01-1.53.24-.17.19-8.53 7.37-10.46 8.99-.41.34-.71.01 2.34 2.58 3.21 2.7 5.37 4.53 6.97 5.91l1.36 1.17 1.29.03 1.28.03v.8c0 .77-.01.8-.24.83-.21.03-.14.12.6.82.8.75.86.79 1.32.8h.47zM7.7 35.6v-.8H11v1.6H7.7zm4.52.02.03-.77h3.3l.03.77.03.78h-3.42zm4.5 0 .03-.77h3.3l.03.77.03.78h-3.42zm9.12.64c-.03-.07-.04-.42-.02-.77l.03-.64h3.3l.03.77.03.78h-1.66c-1.3 0-1.67-.03-1.71-.14Zm-15.08-.3c.03-.13.04-.38.02-.57l-.03-.34-1.37-.03L8 34.99v1.21h1.35c1.33 0 1.35 0 1.41-.24Zm4.54-.36V35h-1.24c-1.58 0-1.56-.01-1.56.66v.54h2.8zm4.5 0v-.61l-1.37.03-1.38.03-.03.57-.03.58h2.81zm4.6 0V35h-2.8v1.2h2.8zm4.5 0v-.61l-1.37.03-1.38.03-.03.57-.03.58h2.81zm4.5 0V35h-2.7v1.2h2.7zM7.7 15.12v-.79l.98-.06c2.35-.16 2.32-.17 2.32.84v.79H7.7zm4.5 0v-.79l1.49-.08c1.99-.09 1.93-.12 1.89.83l-.03.77-1.67.03-1.68.02zm4.57.72c-.04-.04-.07-.4-.07-.79v-.72l.83-.06c1.13-.09 2.29-.08 2.45.02.09.05.12.29.1.82l-.03.74-1.61.03c-.88.01-1.63-.01-1.67-.04Zm9.1 0c-.13-.13-.08-1.54.06-1.54.06 0 .71-.03 1.44-.07 1.88-.08 1.84-.1 1.81.85l-.03.77-1.61.03c-.88.01-1.63-.01-1.67-.04Zm-15.07-.79v-.55H8v1.1h2.8zm4.5 0v-.55h-2.8v1.1h2.8zm4.5 0v-.55H17v1.1h2.8zm4.6 0v-.55h-2.8v1.1h2.8zm4.5 0v-.55h-2.8v1.1h2.8zm4.5 0v-.56l-1.38.03-1.37.03-.03.53-.03.52h2.81z"/></svg>