<svg xmlns="http://www.w3.org/2000/svg" width="51" height="51" viewBox="0 0 51 51"><path fill="#fff" fill-rule="evenodd" stroke="#fff" stroke-width=".496" d="M29.23 40.33c-.3-.04-.34-.1-.69-.94-.48-1.16-.54-1.18-.54-.17 0 1.09-.01 1.1-.91 1.06l-.74-.03v-5.2l.77-.03.77-.03.03.72.03.72.48-.71.47-.72h.74c.41 0 .78.04.81.1.03.05-.23.51-.59 1.02-.63.89-.65.92-.51 1.22 1.33 3.04 1.29 2.91.84 3-.32.06-.38.06-.96-.01Zm-15.21-2.65.03-2.63.77-.03c.9-.03.92-.01.86 1.06l-.03.67.32.03.32.03.03-.88.03-.88.77-.03.78-.03v5.32l-.78-.03-.77-.03-.03-.92-.03-.93h-.58l-.03.93-.03.92-.83.03-.82.03zm7.36 2.5c-.08-.26-.09-4.93 0-5.06.06-.09.31-.12.83-.1l.74.03v5.2l-.76.03c-.56.02-.78-.01-.81-.1Zm12.22-2.53V35h3.2v1.4H36c-.78 0-.8.01-.8.25 0 .23.03.24.73.27l.72.03.03.66c.03.76-.06.83-1 .72l-.48-.06v.62l.82.03.83.03v1.3l-1.62.03-1.63.02zm-18.18 1.47.03-.97h1.1l.03.97.03.98h1.09v-4.91l-.58.03-.57.03-.03.87-.03.88H15.4v-1.8h-1.1v4.9h1.09zm7.28-1.47V35.2h-1.1v4.9h1.1zm5 1.61c0-.68.04-.88.19-1.07.25-.31.31-.25.79.91l.39.95.56.03c.7.04.7.12-.03-1.55-.33-.75-.6-1.42-.6-1.48s.27-.51.61-.98l.6-.87h-.55c-.61 0-.64.02-1.49 1.32-.42.66-.47.61-.47-.42v-.9h-1.1v4.9h1.1zm8.9.34v-.5H35v-1h1.5v-.89l-.73-.03-.72-.03-.03-.47-.03-.48h1.61v-1h-2.8v4.9h2.8zM17.1 28.65c-2.02-.42-5.25-1.63-6.42-2.4-.36-.24-.38-.27-.32-.68.28-2.05 1.78-3.79 4.6-5.33l.71-.38-.95-.53c-2.41-1.33-3.97-3.07-4.34-4.86-.16-.77-.14-.81 1.3-1.53 1.76-.89 5.1-1.95 6.47-2.06l.4-.03.05 3.05.05 3.05.28.6c.51 1.09.46 1.05 1.24.88 3.21-.67 7.24-.69 10.62-.04l.93.18.19-.31c.53-.86.57-1.16.6-4.06.03-3.37.02-3.36.55-3.32 1.88.15 6.94 1.99 7.66 2.78.3.34-.09 1.67-.81 2.72-.73 1.09-2.68 2.68-3.98 3.26l-.42.19.87.5c2.75 1.57 4.42 3.58 4.42 5.33 0 .52-.19.65-2.12 1.49-2.04.88-5.82 1.95-6.06 1.71-.04-.04-.09-1.48-.12-3.19l-.05-3.12-.27-.55c-.14-.3-.31-.61-.36-.68-.07-.11-.4-.08-1.78.15-2.3.37-6.28.4-8.44.06-.74-.12-1.54-.25-1.76-.29l-.42-.06-.38.78-.39.78-.03 3.08c-.03 2.82-.04 3.08-.2 3.07-.09 0-.69-.11-1.32-.24Zm1.32-3.08.03-3.03.34-.67c.5-.98.5-.98 1.51-.81 4.12.67 6.21.69 9.99.1 1.69-.26 1.61-.29 2.14.82l.32.67.03 2.97c.03 2.62.05 2.98.19 2.98 1.41 0 7.63-2.28 7.63-2.8 0-1.81-2.04-4.14-4.83-5.51-.81-.4-.82-.41-.09-.78 2.72-1.38 4.92-3.84 4.92-5.52 0-.6-6.01-2.88-7.62-2.89-.17 0-.18.2-.18 2.73-.01 2.94-.05 3.29-.52 4.26-.39.77-.39.77-1.41.58-3.37-.66-6.54-.69-9.99-.11-1.75.3-1.58.36-2.12-.76l-.31-.65-.03-3.03c-.03-2.76-.05-3.02-.2-3.02-.96.01-4.65 1.19-6.4 2.05l-1.33.66.07.37c.35 1.96 1.89 3.63 4.77 5.21.42.24.77.46.77.49 0 .04-.43.29-.96.56-2.5 1.27-4.31 3.27-4.5 4.96l-.06.55 1.18.57c2.11 1.02 5.12 1.99 6.41 2.07l.22.01zm6.08-4.43c-1.87-.29-3.7-.89-3.7-1.24 0-.39 2.15-1.13 3.87-1.33 2.02-.22 5.73.63 5.73 1.33 0 .65-4.07 1.51-5.9 1.24Zm2.05-.24c1.32-.15 3.55-.79 3.55-1.01 0-.11-1.39-.65-2.2-.85-1.73-.44-4.34-.23-6.07.48-.4.17-.73.33-.73.38 0 .22 2.66.93 3.85 1.03.22.02.47.04.55.05s.56-.03 1.05-.08Z"/></svg>