<svg xmlns="http://www.w3.org/2000/svg" width="51" height="51" viewBox="0 0 51 51"><path fill="#fff" fill-rule="evenodd" stroke="#fff" stroke-width=".65" d="M10.57 46.79c-2.98-.31-5.1-1.78-5.95-4.11l-.27-.73-.05-6.35c-.05-6.35-.05-6.35-.27-6.77-.33-.6-.89-.9-2.02-1.07-1.37-.2-1.76-.67-1.76-2.16 0-1.5.48-2.06 1.85-2.16 2.22-.17 2.19-.05 2.2-8.09 0-6.23.02-6.44.65-7.71 1.04-2.13 3.35-3.3 6.58-3.36 1.7-.03 2.46.9 2.17 2.66-.21 1.27-.59 1.58-2.21 1.76-1.7.19-2.39.51-2.8 1.33-.19.36-.2.66-.22 6.4-.03 5.26-.05 6.09-.19 6.56-.24.76-.63 1.53-1.09 2.11l-.39.5.39.5c1.21 1.53 1.24 1.74 1.28 8.6.04 6.57.02 6.37.46 6.87.48.55.99.73 2.39.84 1.84.15 2.38.66 2.38 2.26 0 1.9-.7 2.38-3.13 2.12Zm27.76-.04c-.94-.41-1.28-2.02-.69-3.31.34-.74.58-.87 1.95-1 1.5-.15 1.94-.27 2.42-.71.69-.62.69-.62.69-7.03 0-6.82.07-7.3 1.24-8.67l.36-.41-.36-.43c-1.18-1.41-1.18-1.4-1.24-8.59-.04-5.65-.07-6.28-.22-6.56-.42-.76-1.3-1.17-2.99-1.37-1.24-.15-1.5-.29-1.87-.96-.72-1.27-.08-3.34 1.05-3.43 3.19-.26 6.3 1.07 7.4 3.17.78 1.48.76 1.35.82 8.52.06 6.27.06 6.42.27 6.7.34.47.98.73 1.77.73 1.38 0 1.92.6 1.92 2.15 0 1.53-.45 2.08-1.85 2.25-1 .12-1.51.41-1.84 1.05-.2.39-.21.56-.26 6.6l-.05 6.2-.28.8c-.65 1.83-1.92 3.13-3.79 3.85-1.35.52-3.73.76-4.45.45Zm-25.55-.31c.85-.59.93-2.62.13-3.38-.28-.27-.38-.3-1.38-.37-1.89-.15-2.59-.45-3.05-1.31l-.23-.43-.05-6.2c-.06-7.18-.05-7.05-1.29-8.63-.49-.62-.49-.53-.06-.99.46-.49 1.12-1.83 1.25-2.52.06-.32.1-2.9.1-6.26 0-6.35 0-6.34.66-7 .45-.45 1.22-.72 2.59-.9.63-.08 1.24-.21 1.36-.27.64-.39.88-1.89.46-2.81-.37-.82-.61-.91-2.07-.84-3.48.18-5.68 1.63-6.47 4.28-.14.46-.17 1.46-.22 6.99l-.06 6.45-.27.45c-.38.65-.91.92-1.93.98C.9 23.76.5 24.19.5 25.61c.01 1.36.32 1.75 1.53 1.9 1.31.16 2.11.72 2.36 1.64.07.27.11 2.32.11 6.2 0 6.44.02 6.6.65 7.94.78 1.63 2.71 2.88 4.98 3.21.99.14 2.41.11 2.65-.06Zm29.27-.14c2.07-.65 3.53-1.95 4.24-3.78l.26-.67.05-6.25c.05-6.07.06-6.26.26-6.7.39-.85 1.34-1.4 2.4-1.4.86 0 1.37-.75 1.36-2 0-1.25-.43-1.74-1.57-1.85-1.19-.1-1.35-.15-1.76-.52-.7-.64-.7-.59-.68-7.33.01-5.73 0-5.98-.2-6.73-.77-2.92-2.88-4.37-6.61-4.54-1.73-.08-2.19.33-2.2 1.91 0 1.38.39 1.8 1.8 1.96 1.71.19 2.69.61 3.2 1.36l.25.37.06 6.21c.04 4.29.09 6.34.18 6.64.2.75.67 1.65 1.1 2.14l.42.48-.39.47c-1.28 1.57-1.26 1.39-1.32 8.68-.05 6.18-.05 6.2-.27 6.62-.46.85-1.23 1.19-3 1.32l-1.16.08-.33.36c-.78.84-.71 2.6.12 3.26.4.32 2.67.26 3.79-.09Zm-2.15-.19c0-.09.17-.14.95-.26 1.89-.28 3.69-1.56 4.48-3.19.59-1.2.6-1.28.66-7.81l.06-6 .29-.53c.48-.86 1.08-1.24 2.38-1.51.63-.13.78-.27 1.09-.95.14-.33.24-.45.31-.38.15.15-.34 1.17-.63 1.33-.13.06-.57.2-.99.31-1.25.31-1.97.97-2.2 2.01-.07.35-.1 2.28-.09 5.97.01 6.15 0 6.34-.7 7.75-.79 1.59-2.35 2.75-4.28 3.19-.8.18-1.33.21-1.33.07Zm-18.94-1.86c-.49-.17-1.09-.75-1.38-1.34-.22-.44-.23-.59-.26-3.18L19.29 37h-.96c-1.58 0-2.41-.43-2.98-1.55l-.3-.59v-7.6c0-4.19.03-7.69.07-7.78.11-.28 20.93-.28 21.06 0 .17.34.15 14.97-.02 15.56-.38 1.29-1.29 1.88-2.98 1.94l-1.18.04v2.57c0 1.94-.04 2.7-.14 3.05-.53 1.76-2.67 2.32-3.94 1.03-.78-.8-.82-.96-.82-3.99V37h-2.89l.02 2.68c.02 2.6.01 2.68-.21 3.17-.58 1.25-1.85 1.83-3.06 1.4Zm1.69-.3c.17-.07.46-.27.64-.46.63-.63.65-.75.71-3.84l.05-2.8 1.63-.03 1.62-.02v2.58c0 2.88.06 3.29.61 3.95.81.98 2.3 1.06 3.16.16.64-.68.67-.85.73-3.89l.05-2.75 1.15-.06c1.64-.08 2.38-.5 2.85-1.62.13-.32.15-1.37.15-8.02V19.5l-10.32.02-10.33.03-.03 7.5c-.03 8.35-.05 8.07.64 8.84.59.66 1.05.83 2.39.89.65.03 1.13.09 1.17.16.05.06.08 1.29.07 2.73 0 2.46.01 2.65.21 3.1.53 1.21 1.65 1.67 2.85 1.18Zm6.23-.26c-.34-.19-.18-.27.45-.22.93.07 1.61-.48 1.76-1.45.07-.44.31-.56.31-.15-.01 1.19-1.62 2.35-2.52 1.82Zm-7.66-.15c-.12-.08-.22-.19-.22-.25 0-.13.27-.12.32.02.02.05.21.13.43.16.69.09 1.48-.64 1.61-1.49.04-.24.12-.38.21-.38.39 0-.23 1.4-.8 1.81-.46.33-1.17.4-1.55.13ZM7.53 35c-.01-3.88.02-5.2.11-5.17.13.04.22 8.1.11 9.55-.15 1.85-.21.55-.22-4.38Zm9.49 1.19c-.64-.32-1.11-.81-1.37-1.43-.23-.55.04-.47.34.1.31.58.89 1.07 1.48 1.26.49.16.69.38.35.38-.1 0-.46-.14-.8-.31Zm16.4.21c.02-.07.26-.21.53-.31.59-.23 1.09-.69 1.41-1.32.23-.45.44-.61.44-.34 0 .23-.59 1.14-.92 1.42-.5.42-1.55.82-1.46.55Zm-22.16-3.24c-.57-.21-1.08-.67-1.36-1.22l-.25-.48-.03-5.2c-.03-6.01-.03-5.99.76-6.76a2.364 2.364 0 0 1 3.7.49l.27.46v11.22l-.3.49c-.58.92-1.8 1.37-2.79 1Zm27.23 0c-.68-.24-1.22-.81-1.47-1.55-.19-.54-.17-10.53.02-11.15.64-2.11 3.54-2.2 4.47-.14l.24.53v10.5l-.23.47c-.6 1.2-1.86 1.76-3.03 1.34Zm1.83-.37c.41-.21.8-.67 1.03-1.22.22-.53.23-10.33.01-10.95-.66-1.86-3.09-2.1-3.97-.39-.29.55-.32 11.02-.04 11.58.58 1.14 1.83 1.56 2.97.98Zm-27.36.05c.5-.24 1.01-.88 1.13-1.42.15-.73.09-10.69-.07-11.07-.65-1.51-2.83-1.71-3.78-.34l-.29.42-.03 5.49-.03 5.49.27.49c.26.47.47.67 1.04.97.35.18 1.35.16 1.76-.03Zm26.2-.4c-.23-.23-.2-.25.24-.18.58.09 1-.2 1.38-.96.15-.32.17-.77.17-4.58 0-3.31.03-4.22.13-4.22.15 0 .18 8.04.02 8.61-.3 1.06-1.43 1.84-1.94 1.33ZM6.1 24.99c0-.06.11-.25.24-.42.31-.4.82-1.49 1.04-2.19.14-.46.16-1.26.17-6.43v-5.9l.23-.47c.5-1.02 1.54-1.58 3.56-1.92 1.01-.18 1.12-.24 1.28-.77.12-.42.28-.52.28-.19 0 .75-.34 1.03-1.45 1.2-1.92.29-2.95.82-3.41 1.76l-.27.55.02 5.57c.02 6.13-.01 6.5-.57 7.75-.48 1.04-1.12 1.89-1.12 1.46Zm39.88-3.26c-.1-.42-.01-10.93.1-10.93.16 0 .18 10.85.02 10.95-.05.03-.11.03-.12-.02Zm-8.01-.71c-.38-.42-.06-1.12.51-1.12.55 0 .85.77.44 1.13-.25.22-.75.21-.95-.01Zm-27.16-.11c-.24-.24-.26-.4-.09-.76.22-.49 1.04-.44 1.22.08.24.67-.63 1.18-1.13.68Zm4.32-2.37c-.11-.28.06-1.58.32-2.49.62-2.15 2.07-4.06 4.08-5.37.42-.28.77-.52.77-.55 0-.02-.35-.71-.77-1.53-.82-1.57-.86-1.8-.36-1.88.24-.04.32.08 1.19 1.74.37.71.69 1.31.7 1.33.02.02.42-.11.91-.28 2.18-.79 5.21-.81 7.45-.04.43.14.8.25.82.22.02-.02.32-.54.66-1.14.94-1.68 1.08-1.87 1.32-1.83.5.07.45.29-.41 1.88-.46.83-.81 1.53-.79 1.55.01.01.44.3.94.63 2.44 1.63 4.15 4.52 4.18 7.07l.01.8-10.48.03c-9.5.02-10.48.01-10.54-.14Zm20.82-.72c-.37-3.1-1.96-5.57-4.62-7.16-.77-.46-.79-.26.21-2.08.47-.84.83-1.54.81-1.57-.14-.14-.43.25-1.15 1.53-.45.8-.87 1.46-.92 1.46-.06 0-.41-.11-.78-.24-2.29-.83-5.17-.83-7.5 0-.52.19-.98.34-1.02.34s-.39-.63-.78-1.39c-.81-1.57-.95-1.79-1.07-1.68-.04.05.27.78.7 1.62.89 1.75.89 1.6.01 2.11-2.38 1.39-4.16 4.18-4.49 7.02l-.07.62h20.74zM16.9 15.35c0-.82 3.42-4.45 4.19-4.45.25 0 .07.19-.59.64-1.25.85-2.64 2.39-3.16 3.49-.15.3-.44.52-.44.32Zm3.55-.59c-.6-.26-.73-1.09-.26-1.57.44-.44 1.02-.43 1.43.02.78.83-.11 2.01-1.17 1.55Zm9.65.07c-1.2-.47-.61-2.26.64-1.92.7.19.96 1.14.45 1.64-.25.25-.8.4-1.09.28Zm-8.65-.48c.46-.46.13-1.25-.52-1.25-.73.01-1.07.95-.5 1.35.32.22.74.18 1.02-.1Zm9.52.03c.47-.44.13-1.28-.52-1.28-.38 0-.75.37-.75.75 0 .67.78.99 1.27.53Zm-.17-3.17c-1.76-1.26-5.53-1.55-8.33-.64-1.04.33-1.28.16-.27-.2 1.91-.68 4.45-.79 6.55-.27.83.21 2.5.98 2.48 1.15-.02.16-.17.15-.43-.04Zm-25-2.94c0-.51 1.95-2.36 2.21-2.1.06.06-.1.23-.46.48-.54.37-1.2 1.07-1.44 1.53-.13.24-.31.3-.31.09Z"/></svg>