<svg xmlns="http://www.w3.org/2000/svg" width="51" height="51" viewBox="0 0 51 51"><path fill="#fff" fill-rule="evenodd" stroke="#fff" stroke-width=".405" d="M23.95 48.91c-1.99-.9-1.44-4.16.7-4.16 1.18 0 1.85.76 1.85 2.11-.01 1.65-1.24 2.65-2.55 2.05Zm7.45-.03c-1.56-.8-1.46-3.42.15-4.03 1.85-.71 3.32 1.69 2.1 3.44-.51.75-1.46 1-2.25.59Zm-12.3-.26c0-.42.14-.58 1.33-1.55.64-.52.82-.8.67-1.06-.15-.29-.52-.27-.89.05l-.31.26-.29-.24c-.79-.62.42-1.56 1.65-1.29 1.4.32 1.51 1.62.22 2.75l-.53.46h1.46l-.03.48-.03.47-1.62.03-1.63.02zm7.64.24c-.17-.44.01-.72.96-1.52.73-.61.96-.86.98-1.08.06-.51-.39-.61-.87-.2l-.31.26-.29-.24c-.43-.34-.44-.44-.08-.82.69-.72 2.11-.68 2.61.08.42.65.15 1.48-.77 2.28l-.42.37.68.01h.68l-.03.48-.03.47-1.53.03c-1.25.02-1.53 0-1.58-.12Zm-4.56-.38c.03-.16-.06-.18-.82-.18-1.05 0-1.07-.07-.25-.79 1.29-1.14 1.31-2.23.05-2.47-.75-.13-1.78.38-1.44.72.16.17.18.17.36 0 .5-.44 1.35-.21 1.35.37 0 .39-.23.68-1.18 1.47-1.28 1.07-1.24 1.16.52 1.1 1.21-.04 1.38-.07 1.41-.22Zm3.3.05c1.03-.77.98-2.77-.08-3.35s-2.25.18-2.38 1.53c-.14 1.5 1.38 2.63 2.46 1.82Zm4.1-.01c.03-.21.01-.22-.77-.22-1 0-1.01-.07-.16-.78 1.13-.94 1.32-1.9.45-2.35-.62-.32-1.9 0-1.9.48 0 .2.31.27.49.11.35-.32.99-.28 1.23.08.29.43-.08 1-1.23 1.88-1.07.82-1 .96.43 1.01 1.5.04 1.43.05 1.46-.21Zm3.26.08c1.52-.74 1.17-3.39-.46-3.57-1.09-.13-1.73.56-1.73 1.87 0 1.53.98 2.29 2.19 1.7Zm-8.65-.45c-.82-.44-.68-2.34.19-2.59.7-.2 1.22.39 1.22 1.37 0 1.13-.61 1.66-1.41 1.22Zm7.53 0c-.71-.51-.69-2.04.03-2.51.84-.55 1.75.7 1.36 1.89-.22.65-.91.96-1.39.62Zm-6.55-.42c.35-.53.15-1.71-.33-1.9-.69-.26-1.22.93-.79 1.77.25.49.84.56 1.12.13Zm7.43.07c.25-.25.34-.6.27-1.16-.14-1.28-1.37-1.06-1.37.24 0 .96.58 1.44 1.1.92Zm2.71-2.93c-.17-.17-.15-6.52.02-6.64.23-.17 1.49-.03 1.54.17.05.17.08.17.51-.07 2.7-1.44 4.87 3.04 2.33 4.82-.62.44-1.88.45-2.44.02l-.37-.28v1c0 .74-.03 1.01-.13 1.02-.61.07-1.38.04-1.46-.04Zm1.29-1.27c0-1.23.01-1.24.62-.8 1.55 1.13 3.32.06 3.32-1.99 0-2.01-1.85-3.15-3.3-2.05-.45.33-.57.33-.63-.01-.06-.28-.09-.3-.59-.33l-.52-.03v6.31h1.1zm-28.27-.29c-3.16-1.09-3.12-5.61.06-6.61 3.08-.97 5.87 1.84 4.59 4.62l-.27.58.3.2c.39.28.37.42-.12.95-.47.51-.59.54-1.01.24l-.29-.21-.65.21c-.81.26-1.88.27-2.61.02Zm6.82.05c-.88-.39-1.05-.91-1.05-3.25 0-2.14-.06-2.01.89-2.01.81 0 .81 0 .81 1.8 0 1.81.06 2 .69 2 .73 0 .76-.07.79-1.97.04-1.9 0-1.83.88-1.83s.85-.11.82 2.76l-.03 2.49-.83.03c-.76.03-.82.01-.82-.17 0-.19-.02-.19-.42.04-.49.28-1.24.33-1.73.11Zm14.87-.05c-.71-.24-1.36-.88-1.62-1.59-.19-.49-.2-.74-.18-2.8l.03-2.27.83-.03.82-.03v2.03c0 1.12.05 2.2.1 2.4.25.88 1.43 1.21 2.12.59l.33-.29.05-2.34.05-2.33h1.6l.03 2.24c.03 2.71-.04 3.06-.76 3.8-.76.79-2.18 1.04-3.4.62Zm-10-2.53.03-2.63.77-.03c.96-.04.89-.26.86 2.83l-.03 2.4-.83.03-.82.03zm2.65 2.56c-.04-.04-.07-.29-.07-.55 0-.47.01-.49 1.19-1.76.65-.7 1.17-1.3 1.16-1.31-.02-.02-.52-.05-1.12-.05l-1.08-.02-.03-.69c-.04-.9-.14-.86 2.29-.86 2.31 0 2.29-.01 2.29.72 0 .53.02.49-1.47 2.14-.46.5-.83.94-.83.97 0 .04.51.08 1.12.09l1.13.03v1.3l-2.26.03c-1.24.01-2.28-.01-2.32-.04ZM10.9 43c.7-.25.75-.25 1.11.02l.3.22.36-.37.37-.37-.33-.28-.34-.28.29-.54c.6-1.16.34-2.78-.58-3.7-1.24-1.24-4.03-1.14-5.06.18-1.21 1.54-.9 3.88.64 4.78 1 .59 2.18.71 3.24.34Zm6.03-.1c.58-.36.55-.36.59-.02.03.3.27.38.84.27l.34-.06V38.4h-1.1v1.38c0 2-.18 2.42-1.03 2.42-.92 0-1.07-.33-1.07-2.3v-1.5h-1.1v1.88c0 1.69.02 1.9.2 2.2.47.77 1.49.96 2.33.42Zm9.95.21c.08-.05.12-.23.1-.47l-.03-.39-1.2-.01c-.65-.01-1.2-.05-1.22-.1s.53-.72 1.22-1.49c1.19-1.33 1.25-1.42 1.25-1.83v-.42l-2.02.02-2.03.03v.9l1.28.03c.7.01 1.27.06 1.27.11 0 .04-.58.71-1.3 1.49-1.47 1.59-1.68 2.06-.97 2.15.63.08 3.52.07 3.65-.02Zm5.49-.06c1.27-.38 1.53-1.05 1.53-3.97V36.9h-1.09l-.03 2.13c-.03 2.35-.08 2.54-.67 2.94-.73.49-1.79.22-2.25-.57-.19-.32-.21-.51-.21-2.42V36.9H28.5v2.22c0 2.52.05 2.73.76 3.42.64.62 1.99.84 3.11.51Zm-10.97-2.3V38.4h-1.07l-.07.61c-.08.78-.08 3.72 0 3.93.05.12.2.16.6.16h.54zm16.14 1.45c-1.31-.53-1.01-2.71.4-2.87 1.12-.13 1.8 1.06 1.27 2.24-.29.62-1.01.9-1.67.63Zm-28.68-.1c-1.64-.5-1.79-3.32-.22-4.12 1.43-.73 3.06.33 3.06 2 0 1.08-.18 1.22-.86.65l-.45-.36-.35.35-.35.34.45.42c.26.24.46.47.46.52 0 .27-1.1.39-1.74.2Zm29.75-.2c.28-.15.49-.63.49-1.1 0-1.06-.93-1.58-1.69-.94-1.06.89-.01 2.68 1.2 2.04Zm-28.78-.39c-.53-.48-.53-.55-.01-1.08.5-.51.53-.51 1.04-.13.49.37.5.37.58-.04.39-2.05-2.48-3.11-3.41-1.26-.71 1.4.13 2.9 1.62 2.89h.6zm32.4-2.62c-1.43-.41-1.56-2.62-.2-3.28 1.29-.63 2.52.13 2.52 1.55 0 1.32-1.04 2.1-2.32 1.73Zm1.27-.41c1.38-.7.94-2.78-.58-2.78-1.34 0-2.08 1.42-1.25 2.41.51.6 1.12.73 1.83.37Zm-1.55-.38c-.04-.07-.02-.17.04-.23.14-.14.15-1.34.01-1.42-.26-.16.14-.35.71-.35.88 0 1.25.49.83 1.08-.14.2-.14.24.06.52.26.37.19.5-.26.5-.28 0-.36-.05-.44-.25-.12-.31-.17-.32-.16-.02.01.25-.65.39-.79.17Zm.55-.55c0-.33.02-.35.29-.33.36.03.61-.17.61-.47 0-.26-.17-.35-.65-.35h-.33l-.04.75c-.02.41 0 .75.05.75.04 0 .07-.16.07-.35Zm-22.46.12c-.03-.08-.04-.41-.02-.73l.03-.59h1.6v1.4l-.78.03c-.59.02-.79 0-.83-.11Zm1.36-.62v-.45h-1.1v.9h1.1zm21.17-.01c-.16-.17-.06-.44.19-.5.29-.07.65.19.49.35-.14.14-.59.23-.68.15ZM24.2 34.59c-4.92-.41-9.41-3.06-12.19-7.22-3.13-4.66-3.47-11.16-.85-16.28C15.47 2.66 26.43-.34 34.31 4.75c13.01 8.42 8.14 28.43-7.26 29.85-1.21.11-1.45.11-2.85-.01Zm3.11-.3C40.47 32.94 46.3 17 37.11 7.47 28.19-1.77 12.69 2.65 9.99 15.2c-.53 2.43-.31 5.96.51 8.43 2.34 6.99 9.34 11.43 16.81 10.66ZM24 32.79C12.73 31.44 7.34 18.27 14.45 9.43c3.77-4.69 10.3-6.53 16.02-4.52C36.06 6.89 40 12.48 40 18.45c0 8.56-7.57 15.34-16 14.34Zm4.53-.49c4.97-1.05 9.13-4.86 10.55-9.66 2.41-8.1-2.41-16.22-10.69-18.01-1.2-.26-4.39-.25-5.58.01-8.45 1.84-13.21 10.2-10.52 18.44 2.16 6.59 9.37 10.68 16.24 9.22Zm-3.03-5.67c0-.98-.03-2.56-.07-3.51l-.06-1.72h-3.53c-2.26 0-3.55-.04-3.59-.1-.03-.06.22-.58.56-1.18.34-.59 1.94-3.39 3.57-6.22 3.07-5.36 3.09-5.4 3.23-5.4.05 0 .09 1.58.09 3.55v3.55h3.6c3.1 0 3.61.02 3.66.15.04.08-.29.74-.74 1.52-.44.76-1.08 1.87-1.42 2.48-2.46 4.31-5.02 8.57-5.19 8.63-.08.03-.11-.46-.11-1.75Zm1.57-1.03c.6-1.02 1.88-3.2 2.83-4.85s1.96-3.41 2.25-3.9l.53-.9-3.59-.03c-3.33-.02-3.59-.04-3.6-.2-.01-.09-.01-1.05-.01-2.12.01-1.07-.02-2.49-.06-3.15l-.07-1.19-2.2 3.84c-1.21 2.12-2.72 4.77-3.37 5.89s-1.18 2.05-1.18 2.07 1.53.04 3.39.04c1.87 0 3.46.03 3.55.06.14.05.16.44.16 3.32 0 2.77.02 3.24.14 3.12.07-.08.63-.98 1.23-2Z"/></svg>