<svg xmlns="http://www.w3.org/2000/svg" width="51" height="51" viewBox="0 0 51 51"><path fill="#fff" fill-rule="evenodd" stroke="#fff" stroke-width=".318" d="M.36 50.87c-.17-.12-.18-.88-.14-15.9C.23 26.3.22 19.2.18 19.2c-.03 0-.09.06-.11.13-.03.06-.06 0-.06-.15-.01-.16.03-.28.09-.28.07 0 .1-3.15.1-9.24C.2 2.37.23.39.33.33.46.24 49.49.19 50.38.27l.52.05v25.24c0 24.84 0 25.23-.19 25.34-.32.17-50.12.14-50.35-.03Zm49.97-.13.37-.07v-2.01c-.01-1.41-.04-1.96-.11-1.83-.26.44-.89.15-.65-.31l.15-.29-.42-.06c-.36-.06-.45-.03-.64.18-.26.29-.83.35-.83.09 0-.2 1.08-1.74 1.27-1.81.13-.05.63.06 1.09.24.12.04.14-.87.14-6.06 0-5.98 0-6.11-.19-6.11-.27 0-.34-.15-.21-.42.09-.18.06-.17-.1.05-.21.26-.53.36-.64.18-.08-.13.34-.63.49-.57.07.02.22-.02.33-.09.1-.08.22-.11.26-.08.03.03.06-.24.06-.6 0-.55-.03-.65-.15-.61-.17.07-.21-.21-.05-.31.06-.03.1-.1.1-.15s-.12.02-.27.17c-.25.23-.34.25-.84.19-1.08-.11-1.07-.1-.32-1.22.65-.94.67-.96 1.17-.84l.36.08v-7.61c0-7.59 0-7.6-.2-7.42-.11.1-.2.26-.2.35 0 .35-.46.5-1.07.34-.35-.1-.28-.32.37-1.11.34-.41.63-.8.67-.88.03-.08.14-.15.24-.15.18 0 .19-.17.19-5.75V.5H38.85C27.19.5 27 .5 27.12.69c.09.15.09.23-.01.35-.29.35-1.11.08-1.11-.36 0-.23-.05-.23-.48.04-.28.17-.34.18-.3.06.11-.27-.21-.28-12.68-.28H.4l.01 7.53c.01 4.13.04 7.99.08 8.55l.06 1.04.5.17c.61.21.66.38.25.85-.37.41-.53.46-.48.14.02-.15-.03-.24-.15-.26-.16-.03-.17.09-.17 1.43 0 1.3.02 1.46.15 1.35.12-.1.15-.1.15.03 0 .09-.08.2-.17.26-.17.09-.18.91-.21 14.6l-.03 14.5.33.04c.54.06 49.2.07 49.61.01Zm-48.07-1.4c-.11-.3-.06-.42.22-.49.87-.21 1.04-.92.32-1.36-1.2-.73-.74-2.19.69-2.19.55 0 .43.41-.18.63-.76.27-.8.65-.1 1.07.55.34.83.81.75 1.25-.14.71-1.51 1.6-1.7 1.09Zm3.39-.03c-1.33-.61-1.64-2.18-.66-3.32 1.33-1.57 3.63-.73 3.62 1.32 0 1.58-1.57 2.64-2.96 2Zm8.81-.81c-.85-1.13-.88-1.2-.47-1.49.61-.44.48-.98-.28-1.08l-.41-.06v3.53H13c-.4 0-.41-.09-.38-2.25l.03-1.8.5-.03c1.67-.11 2.43.75 1.61 1.83l-.27.35.6.81c.62.82.65.91.31 1.09-.16.09-.29-.03-.94-.9Zm1.55.82-.21-.17 1.01-1.97c1.12-2.18 1.13-2.18 1.51-1.5 1.37 2.45 1.88 3.55 1.71 3.68-.29.22-.36.17-.76-.56l-.38-.7H17l-.29.64c-.34.75-.42.82-.7.58Zm16.16-.04c-.08-.13-.25-.43-.38-.68l-.24-.45h-1.9l-.32.6c-.32.61-.56.75-.76.44-.1-.16 1.53-3.52 1.88-3.88.16-.16.25-.03 1.48 2.23.96 1.75.95 1.71.68 1.86-.27.14-.29.13-.44-.12Zm-21.74-.02c-2.33-.73-1.58-3.6 1.05-4.02.42-.06.42-.06.42.24 0 .28-.03.3-.45.36-2.31.35-2.36 2.96-.05 2.96.62 0 1 .3.66.52-.18.12-1.17.08-1.63-.06ZM21 47.7V46h-1.6v-.7h3.8v.6h-1.5v3.5H21zm2.7-.35V45.3h.7v4.1h-.7zm2.57 1.91c-1.24-.45-1.66-1.7-.96-2.83.51-.83 2.37-1.57 2.54-1.02.08.24-.08.39-.4.39-.89.01-1.9 1.02-1.82 1.83.08.84.6 1.17 1.85 1.17.63 0 .63 0 .6.28-.04.33-1.1.43-1.81.18Zm-19.09-.52c1-.59.98-2.48-.03-2.9-1.36-.56-2.65 1.13-1.85 2.44.35.57 1.31.8 1.88.46Zm11.16-1.81c-.2-.38-.38-.7-.4-.72-.03-.03-.64 1.27-.64 1.35 0 .02.32.04.71.04h.71zm12.86.62c0-.02-.14-.34-.32-.7l-.32-.65-.28.61c-.37.81-.37.79.32.79.33 0 .6-.02.6-.05Zm17.68-1.44c.2-.28.24-.29.81-.24.65.06 1.09-.27.85-.65-.11-.17-.96-.45-1.05-.34-.17.2-.99 1.4-.99 1.46 0 .15.18.04.38-.23Zm-11.38.11c0-.07-.07-.12-.15-.12-.18 0-.19-.11-.02-.3.06-.08 0-.05-.14.08-.46.4-.54.22-.13-.27.27-.32.71-.44.6-.16-.04.13-.02.13.14.05.31-.17.33-.12.09.28-.28.47-.39.59-.39.44Zm3.3-1.25c-.84-.22-.34-1.39.62-1.45.33-.02.52-.1.68-.27.24-.26.73-.34.85-.15.08.13-1.41 2-1.58 1.99-.07 0-.32-.06-.57-.12Zm1.2-.89c.7-.83.79-1.11.17-.5-.23.23-.5.42-.58.42-.16 0-.39.19-.39.31 0 .04.1.05.21.02.16-.04.2-.02.17.08-.02.08-.17.15-.31.17-.35.04-.44-.19-.23-.56.12-.19.06-.15-.19.12-.36.4-.36.5 0 .59.45.11.56.05 1.15-.65Zm-2.64.55c-.15-.04-.17-.12-.13-.44.06-.48.04-.48-.23-.04-.22.35-.61.48-.76.24-.07-.12.49-.98 1.05-1.6.49-.55 1.06-.5.99.09l-.04.35.21-.27c.42-.53 1.01-.29.63.27-.93 1.34-1.17 1.54-1.72 1.4Zm1.06-.95c.64-.8.69-1.09.07-.35-.49.57-.63.53-.54-.14.1-.75-.18-.67-.88.26-.68.89-.74 1.1-.13.4.53-.6.76-.54.58.14-.17.69.21.55.9-.31Zm-6.62-.53c-1.9-.43-2.97-.63-3.21-.59s-.39.01-.48-.1c-.14-.17-.79-.3-1.33-.27-.21.01-.38-.03-.38-.08 0-.13-.15-.17-3.85-.97-1.95-.42-3.35-.67-3.78-.68-.37-.01-.71-.06-.75-.12-.1-.15-.42-.25-.42-.13 0 .09-.54.05-.9-.08-.12-.04-.12-.06.04-.12.11-.04-.45-.21-1.55-.45-.96-.2-2.57-.56-3.59-.78-1.04-.22-2.21-.41-2.67-.43-.89-.04-1.14-.11-.92-.27.09-.06-.04-.07-.36-.04-.32.04-.41.03-.25-.02.21-.07.17-.09-.28-.16-.33-.04-.52-.12-.52-.2 0-.44-.83-8.08-1.2-11.11-.11-.88-.36-2.99-.55-4.7s-.38-3.23-.42-3.4c-.04-.16-.06-.34-.05-.38.03-.12-.28-2.85-.37-3.27-.07-.31-.08-.33-.15-.13-.05.17-.12.2-.34.16-.15-.03-.35-.05-.45-.05-.1.01-.16-.05-.14-.11.02-.07.09-.12.16-.12s.18-.07.25-.17c.06-.09.23-.18.36-.2.22-.03.25-.07.23-.43-.06-1-.09-1.05-.62-1.05-.65 0-1.12-.1-1.18-.26-.05-.13.57-1.11 1.09-1.7l.31-.35-.11-1.07c-.17-1.55-.18-1.52.2-1.52.17 0 1.89.27 3.81.61 1.92.33 3.51.58 3.54.56.13-.14-.1-1.37-.26-1.38q-.15 0-.03-.06c.15-.06.15-.32.01-1.45l-.12-.88h-.41c-.34 0-.45.05-.66.3l-.25.31-.93-.09c-1.08-.11-1.2-.18-1-.59.11-.22.2-.28.45-.28.29 0 .3-.01.17-.16-.44-.49.19-1.11 1.07-1.07.64.03.64.03.67.35.03.28.07.31.43.35l.4.04-.03-.71-.03-.7.53.02c.49.02 2.74.4 5.52.93.58.11 3.28.58 6 1.05 12.63 2.17 10.95 1.8 11.66 2.6.55.62.56.63.75.44.33-.33.66-.08.38.29-.07.09-.02.07.12-.06.3-.26.79-.3.79-.06 0 .09-.16.31-.36.5l-.37.33 1.03 1.15 1.04 1.15.2-.4c.41-.8.68-1.04 1.07-.93.35.1.41.26.24.69-.05.12.04.07.22-.14.27-.31.86-.4.68-.1-.04.05-.02.09.04.09.05 0 .13-.05.16-.1.03-.06.24-.1.46-.1.44 0 .6.2.38.46-.1.13-.09.16.1.21.3.08.24.54-.14 1.11-.32.48-.63.58-1.29.41-.56-.14-.59-.31-.16-.95.42-.6.3-.56-.15.06-.2.28-.47.56-.6.63-.3.16.86 1.65 1.24 1.59.12-.02.21.02.21.08s.05.08.11.04c.06-.03.15 0 .2.07.06.1.09.11.09.02 0-.07.05-.13.1-.13.16 0 .12.2-.09.46-.17.21-.17.28-.05.61.07.22.13.8.14 1.35 0 .86.02.98.18.98.15.01.15.02.01.13s-.14.3-.03 1.92c.07.99.13 2.02.13 2.28.01.42.03.48.2.42.46-.14.65.2.34.65-.14.22-.13.22.15-.04.18-.16.35-.26.39-.22.14.13-.56.68-.78.61-.24-.08-.24-.37.01 3.53.26 4.12.24 3.98.57 3.97.38 0 .39.2.03.57-.29.28-.31.35-.25.74.06.46.19.62.31.43.05-.08.03-.09-.06-.04-.08.05-.11.03-.08-.06.07-.21.38-.24.38-.04 0 .13.03.15.13.07.18-.16.69-.03.62.16-.04.12-.03.13.1.02.23-.19.28-.06.07.2-.15.18-.22.21-.37.13-.12-.07-.14-.13-.06-.17.16-.1.14-.26-.03-.26-.08 0-.18.09-.21.21-.07.19-.07.2-.21.02-.09-.12-.13-.14-.14-.04 0 .08-.07.11-.2.08-.18-.05-.22 2.8-.05 3.01.03.03 1.55-2.14 2.19-3.13.46-.71.44-.7.52-.63.09.09-.09.39-1.42 2.39-.68 1.02-1.24 1.92-1.24 2.01 0 .46-.61.38-5.19-.71l-2.04-.48.07 1.61c.16 3.93.18 4.27.32 4.22.16-.06.19.1.04.19-.11.07-.12 1.12-.01 1.59.06.28.08.26.87-.75.88-1.12 1.24-1.5 1.24-1.3 0 .07-.47.72-1.04 1.45-.57.74-1.06 1.42-1.08 1.52-.05.29-.24.27-3.28-.41Zm-24.83.2C7.85 43.16 7.29 43 7.71 43c.37 0 2.65.42 2.73.5.13.13.08.12-1.47-.15Zm27.83-.27c0-.24-.07-1.62-.15-3.08s-.22-4.02-.3-5.7c-.09-1.68-.25-4.53-.35-6.35-.11-1.81-.24-4.23-.28-5.37-.09-2.41-.01-2.22-.88-2.07-1.33.23-3.03-.21-4.94-1.29-.73-.41-.85-.51-.83-.72.01-.14.07-.72.13-1.29.2-2.07.1-4.14-.26-4.82-.18-.36-.02-.33-11.34-2.29-1.62-.28-4.73-.82-6.9-1.2-2.17-.37-4.21-.73-4.52-.78l-.58-.09v.26c0 .14.14 1.43.3 2.86.17 1.43.39 3.42.5 4.41.36 3.3.8 7.14 1.31 11.39.27 2.31.64 5.63.82 7.39l.32 3.18 2.1.43c1.16.24 3.25.69 4.65 1s4.53.98 6.95 1.5c6.04 1.29 7.85 1.68 11.15 2.41 1.57.34 2.91.63 2.98.63.08.01.12-.14.12-.41Zm9.55.32c-.15-.24.52-.87.81-.76.23.09.16.32-.17.6-.32.27-.54.33-.64.16Zm-.65-.28c0-.23.33-.55.6-.59.28-.04.26.28-.03.55s-.57.29-.57.04Zm-36.75-.38c-1.17-.23-1.18-.24-.45-.19.41.03 1.09.13 1.5.24 1.06.27.39.24-1.05-.05Zm23.84-3.36c-.4-.1-.49-.33-.49-1.3 0-.37-.04-.5-.21-.58-.38-.21-.49.02-.42.88l.06.75-.44-.07c-.59-.09-.56-.03-.64-1.48l-.07-1.28.33.06c.19.04.43.12.54.17.11.06.37.09.58.08.97-.07 1.27.38 1.27 1.88 0 .56-.03 1.01-.07 1-.05-.01-.24-.05-.44-.11Zm-6.78-.3c-.84-.14-1.4-.82-1.09-1.3.12-.18.13-.29.06-.42s-.06-.25.02-.42c.11-.19.1-.27-.04-.48-.53-.82.39-1.6 1.32-1.12.15.07.51.17.8.21.56.07.71.35.37.68-.07.08-.17.26-.2.4-.1.4-.29.49-.9.45-.81-.05-.74.1.13.27 1.66.34 1.2 2.02-.47 1.73Zm2.84-.43c-1.02-.36-1.55-2.22-.75-2.65.94-.5 2.1.27 2.1 1.4 0 .45-.02.46-.76.24-.65-.19-.8-.16-.6.11.11.16.26.2.68.2h.53v.4c0 .47-.43.58-1.2.3Zm-5.78-1.19c-1.46-.54-1.58-2.76-.16-2.76.97 0 1.48.53 1.57 1.65.07.98-.51 1.44-1.41 1.11Zm-2.67-.65c-.24-.07-.69-2.34-.53-2.64.06-.11.75.03.93.19.1.09.2.1.3.04.45-.29.71-.1.63.47-.05.38-.08.42-.37.45l-.31.03v.77c.01.85-.01.87-.65.69Zm-5.4-.08c-.38-.07-.41-.15-.25-.64l.16-.46-.56-1.32c-.62-1.48-.62-1.47-.03-1.35.42.09.43.1.68.81.3.89.36.9.52.13.12-.6.12-.6.48-.6.65 0 .66.03.21 1.57-.61 2.12-.52 1.98-1.21 1.86Zm3.95-.2a.8.8 0 0 1-.28-.13c-.05-.04-.25-.06-.45-.03-.77.09-1.37-.65-1.37-1.68.01-.95.55-1.37 1.27-.98.2.11.21.09.16-.4-.05-.5-.05-.51.23-.51.73 0 .74.02.87 1.77.17 2.26.2 2.11-.43 1.96Zm24.62-1.55c-.07-1.23-.56-9.14-.92-14.83-.09-1.32-.19-2.87-.22-3.45l-.06-1.05h-1.36c-1.61-.01-2.56-.28-4.21-1.18l-.95-.53.01-.49c0-.28.04-1.35.09-2.4.08-2.06-.01-3.07-.35-3.62-.22-.36.36-.24-8.3-1.73-4.85-.84-9.37-1.63-13.87-2.44l-.73-.13v.31c0 .36.58 5.57.62 5.62.02.01 2.76.5 6.08 1.08 10.06 1.75 9.5 1.64 9.73 2 .09.12.28.36.44.52.54.56 4.27 4.76 5.28 5.96l1.02 1.21.07 1.81c.04.99.16 3.27.26 5.06.11 1.79.24 4.31.31 5.6.07 1.37.16 2.38.22 2.42.12.08 2.12.56 4.47 1.08.96.21 1.84.41 1.95.43.5.11.49.16.42-1.25Zm-25.09.25c.04-.44-.14-.75-.41-.71-.26.04-.34.4-.17.82.15.4.54.33.58-.11Zm-5.54 0c-.18-.03-.22-.13-.27-.69-.06-.76-.01-.7-.55-.79l-.43-.07.07.66.07.66-.34-.06c-.63-.12-.62-.1-.8-1.86-.19-1.89-.23-1.71.35-1.63l.45.07.07.59c.07.67.05.64.56.73l.37.07-.06-.57-.06-.57.47.05c.64.08.58-.14.79 2.91.04.62.01.64-.69.5Zm20.01-.4c-.22-.08-.7-.17-1.07-.2-.57-.05-.68-.09-.68-.24 0-1.07 1.69-.98 2.26.12.25.49.13.56-.51.32Zm-3.42-.54c-.52-.2-1.17-.81-1.1-1.02.11-.34 1.62.07 2.02.55.56.66.13.88-.92.47ZM5.15 32.73c-1.36-.16-1.69-.22-1.63-.28.09-.09 2.68.16 3.1.3l.43.13H6.7a31 31 0 0 1-1.55-.15Zm24.6-.5c-1.16-.26-2.12-.79-2.4-1.32-.2-.4-.14-.41.89-.25 1.15.19 1.52.37 1.87.93.43.67.36.8-.36.64Zm9.76-.37c-.96-.24-1.7-.46-1.64-.49.11-.07 3.53.71 3.68.84.17.16-.27.08-2.04-.35Zm-7.91.13c0-.79.7-1.28 1.83-1.29.8 0 .84.1.3.62-.45.43-.71.57-1.38.74-.67.18-.75.18-.75-.07Zm15.74-.04c-.14-.35.42-.85.75-.69.18.09.18.11-.05.47-.25.39-.6.5-.7.22Zm-17.44-.14c0-.33-.81-.71-1.8-.85l-.45-.07.4.3c.57.42 1.85.85 1.85.62Zm3.07-.33c.73-.34.78-.53.13-.45-.57.07-1.03.32-1.08.61-.04.2.29.15.95-.16Zm-27.32-.3c-.44-.05-1-.13-1.25-.17l-.45-.09.5-.01c.67-.01 2.28.19 2.4.3.1.1-.06.1-1.2-.03Zm12.71-.51c-1.67-.39-1.51-.12-1.75-2.81-.11-1.21-.24-2.22-.28-2.26-.07-.07-2.69-.6-2.93-.6-.14 0-.11.92.09 2.8.1.91.14 1.69.09 1.74-.05.06-.68-.02-1.65-.2l-1.58-.3-.09-.53-.1-.53-.4.05c-.22.03-.45.13-.52.21-.13.18-.24.21-.24.06 0-.12.53-.4.77-.4.74-.01.55-.97-.28-1.42-.74-.39-.71-.47.05-.13l.58.25-.07-.32c-.09-.38-.16-.44-.65-.57-.19-.05-.48-.13-.65-.17l-.3-.08.28-.04c.15-.02.5.03.77.11l.49.14-.05-.46c-.03-.25-.11-1.04-.18-1.76-.08-.72-.29-2.53-.47-4.03-.17-1.5-.3-2.75-.27-2.78s.82.1 1.74.28l1.69.33.07.65c.04.36.14 1.3.22 2.1s.16 1.52.17 1.6c.03.12 3.02.83 3.16.75.02-.01-.04-.69-.11-1.51-.08-.82-.17-1.82-.21-2.22l-.06-.72h.28c.42.01 3.13.56 3.22.66.05.05.16 1.06.26 2.24.09 1.18.32 3.88.51 5.99s.34 3.92.34 4.03c0 .25-.26.23-1.94-.15Zm1.64-.22c0-.13-.04-.68-.1-1.22-.17-1.66-.59-6.5-.7-8.03-.06-.8-.13-1.68-.16-1.96l-.06-.52-1.44-.28c-.79-.15-1.46-.25-1.49-.22-.06.06.19 3.21.31 4.01.07.46-.07.47-1.71.13l-1.1-.22-.45.36c-.25.21-.65.48-.89.61-.89.48-1.11 1.65-.64 3.33l.17.61.18-.61c.14-.48.28-.71.61-1.01.24-.23.47-.48.5-.57.04-.1.18-.16.39-.16.18 0 .6-.03.93-.06.4-.04.57-.02.5.04-.06.06-.23.12-.4.14-.18.02.17.12.93.27 1.07.2 1.23.26 1.27.45.03.11.14 1.17.24 2.35.11 1.17.22 2.15.24 2.17.05.05 2.48.62 2.7.63.12.01.17-.07.17-.24Zm30.31-.46c.4-.42.37-.57-.11-.65-.22-.04-.4-.1-.4-.14 0-.18.32-.32.6-.26.37.07.4-.11.04-.24-.41-.16-.47-.13-.95.53-.66.89-.65.85-.17.95.65.15.68.14.99-.19Zm-4.34-.96c-.92-.31-1.66-.58-1.63-.6.12-.13 3.14.83 3.41 1.08.15.14.01.1-1.78-.48ZM13.25 27.8c-.04-.42-.1-.82-.15-.89-.12-.21-.98.21-1.04.51-.33 1.65-.35 1.59.37 1.74l.52.1.18-.34c.16-.29.18-.47.12-1.12Zm16.6 1.18c-.41-.15-.68-.18-1.51-.14-1.15.05-1.19.04-.99-.34.73-1.42 3.15-1 3.15.55 0 .18-.01.18-.65-.07ZM4.9 28.75c-1.62-.29-1.81-.35-.93-.3.84.06 2.13.31 2.27.45.12.12.19.13-1.34-.15Zm6.74-.7.07-.51-.41-.27c-1.09-.71-1.33.07-.34 1.08.54.56.57.55.68-.3Zm19.56.65c0-.1.08-.24.19-.29.1-.06.28-.26.39-.46.34-.56.76-.77 1.45-.72.6.05 1.12.3 1.01.48-.12.2-1.25.67-1.76.74-.28.04-.65.16-.82.26-.39.24-.46.24-.46-.01Zm-1.48-.43c-.43-.43-1.18-.46-1.7-.07l-.34.25 1.05.05c.58.03 1.09.08 1.13.12.04.05.1.06.13.03s-.1-.2-.27-.38Zm3.22-.27c.79-.25.89-.36.37-.45-.45-.07-.98.13-1.19.45-.16.26-.04.26.82 0Zm13.87-1.02c-.05-.14-.1-.17-.15-.1-.04.07-.18.12-.32.12-.34 0-.31-.29.06-.65.35-.33.54-.26.22.08-.36.38-.25.44.13.07.19-.19.35-.28.35-.21s.04.1.1.06c.12-.07.6.05.6.15 0 .45-.85.86-.99.48Zm-35.67-.74c-.26-.86-.44-1.18-.75-1.35-.41-.21-.22.93.22 1.34.19.18.42.43.51.55.27.34.28.28.02-.54Zm16.71.47c-1.24-.32-.92-.81.53-.81.89 0 1.45.21 1.5.58.03.19-.01.22-.35.22-.21 0-.6.02-.88.05-.27.02-.63.01-.8-.04Zm2.87-.13c-.33-.33-.05-1.44.43-1.66.54-.25 1.95-.01 1.95.33 0 .11-.98.65-1.18.65-.04 0-.29.18-.56.4-.56.46-.49.43-.64.28Zm1.38-1.11.55-.24-.42-.07c-.82-.15-1.33.15-1.33.77v.28l.33-.25c.17-.13.57-.35.87-.49Zm17.95.24c.03-.05.01-.12-.04-.15-.05-.04-.12-.02-.16.04-.12.2-.26.1-.15-.11.17-.3.06-.34-.14-.04-.23.35-.38.32-.32-.07l.05-.33-.24.27c-.19.23-.28.26-.47.19-.13-.04-.28-.06-.35-.04-.19.07-.26-.17-.12-.43.1-.19.64-.31.64-.14 0 .01.14.04.3.06.17.03.32.1.33.15.03.06.1.05.19-.02.11-.1.16-.1.22 0 .05.07.12.12.17.12.05-.01.1.04.1.09.01.06.02.13.03.17 0 .04.08-.03.17-.15.08-.12.2-.2.25-.16.12.07-.21.64-.39.64-.07 0-.11-.04-.07-.09Zm-46.4-.55c-1.62-.34-1.95-.44-1.55-.45.3-.01 3.06.54 3.4.68.49.19-.28.09-1.85-.23Zm7.3-1.73c-.06-.71-.11-.88-.37-1.2-.57-.71-.75-1.7-.49-2.62.2-.72.75.24.92 1.6.06.46.14 1.09.19 1.39l.07.55.02-.57c.03-1.31.47-2.74.92-2.98.22-.12.2-1.81-.03-2.05-.09-.11-2.8-.66-2.87-.59-.03.03.13 1.49.34 3.27.39 3.15.4 3.22.66 3.45.15.12.35.42.46.67.23.58.28.31.18-.92Zm16.49.98c-1.06-.38-1.31-.6-1.02-.89.48-.48 2.48.32 2.48 1 0 .14-.94.07-1.46-.11Zm.91-.21c-.13-.2-.85-.5-1.22-.5-.5 0-.33.16.43.4.68.22.88.24.79.1Zm-24.9-.11c-.03-.04-.12-.06-.2-.02-.2.07-.19-.06.05-.45.28-.46.53-.45.29.01-.09.18-.06.16.2-.07.17-.17.31-.25.31-.18 0 .06.07.09.15.06.18-.07.19.12.02.46-.12.25-.71.38-.82.19Zm30.2-.36c-.72-.17-2.02-.57-2.1-.64-.14-.14.02-.11 1.2.22 1.27.36 1.92.66.9.42Zm12.75-.17c0-.08.05-.18.1-.21.06-.03.1-.14.1-.23 0-.12-.08-.08-.28.16-.31.37-.42.4-.42.13 0-.21-.23-.45-.33-.34-.13.13-.07.35.08.29.16-.06.21.09.06.18s-.41-.05-.41-.22c0-.13-.02-.13-.18.01-.19.18-.42.23-.42.1 0-.05-.12-.09-.26-.09-.39-.03-.41-.12-.06-.46.39-.39.52-.31.22.14l-.22.33.32-.34.32-.33.56.11c.32.07.69.13.85.15.4.03.49.17.35.49-.14.29-.38.37-.38.13ZM28.92 23c-.55-.73.08-1.9 1.02-1.9.37 0 .05 1.22-.43 1.64-.11.11-.21.27-.21.38 0 .26-.13.22-.38-.12Zm.69-.91c.22-.45.24-.59.05-.59-.25 0-.66.48-.66.78 0 .56.27.47.61-.19Zm-3.11.1c-1.53-.2-1.86-.45-1.15-.87.65-.37 1.29-.27 1.77.29.56.65.49.73-.62.58Zm-15.84-1.32c-.24-1.06-.36-1.16-.36-.32 0 .55.05.78.22 1.05.3.48.35.21.14-.73Zm1.75.63c.2 0 .23-.1.13-.59l-.07-.32-.38.37c-.27.27-.39.47-.39.67v.28l.26-.2c.15-.12.35-.21.45-.21Zm14.49.3c0-.26-.68-.44-1.12-.3l-.43.14.5.12c.63.15 1.05.17 1.05.04Zm18.51-.41c-.23-.09-.23-.1-.06-.37l.18-.27-.3.28c-.32.29-.77.36-1.06.15-.22-.16.54-1.58.84-1.58.1 0 .21-.05.25-.12.05-.08.02-.09-.09-.05s-.17.01-.17-.08c0-.2.49-.2.57.01.03.09-.05.26-.21.43-.44.46-.29.48.18.02.46-.45 1.16-.55 1.16-.16 0 .11.06.12.31.03s.34-.08.47.06c.15.15.1.22-.68.96-.86.81-.97.86-1.39.69Zm1.14-.84c.76-.7.77-.91.01-.24-.54.48-.68.45-.37-.06.41-.69-.01-.79-.64-.15-.42.43-.59.49-.72.26-.06-.11-.13-.06-.3.24l-.22.38.25.06c.22.06.32 0 .66-.39.53-.61 1-.52.53.11-.5.67-.02.54.8-.21Zm-19.73-.02c-.07-.16-.23-.46-.34-.68-.48-.87-.34-2.02.18-1.54.6.55.87 1.5.6 2.14-.18.42-.28.44-.44.08Zm8.34-.34c.24-.06.44-.15.44-.19 0-.16-6.1-7.13-6.17-7.06-.02.02.01.27.07.56.17.88.09 3.08-.16 4.72l-.05.36 1.03.56c1.92 1.02 3.54 1.38 4.84 1.05Zm-33.71-.04c-.05-.02-.27-.06-.47-.1-.23-.03-.38-.12-.38-.2 0-.18.49-.75.65-.75.07 0 .16-.11.19-.25.13-.51 1.36-.45 1.36.08 0 .65-.82 1.4-1.35 1.22Zm23.5-.29c-.79-.38-1.8-1.1-1.8-1.29 0-.47 1.56-.06 2.26.6 1.02.95.78 1.3-.46.69Zm1.88-.74c-.26-.53-.28-.55-.31-.29-.02.17.08.52.25.85.26.53.28.55.31.29.02-.17-.08-.52-.25-.85Zm-24.69.56c.24-.34.2-.38-.32-.38-.68 0-1.24.42-.7.53.58.11.87.07 1.02-.15Zm23.21-.18c-.31-.32-.91-.64-1.4-.76-.44-.1-.24.07.7.61.93.53 1.1.56.7.15ZM3.6 18.56c-.69-.17-1.14-.32-1-.34.24-.03 2.17.42 2.28.53.13.13-.12.09-1.28-.19Zm22.05-1.09c-.6-.18-.62-.2-.69-1.14-.04-.49-.1-1.12-.13-1.4l-.06-.53h-.97v-1.26l.68-.22c.63-.2 1.47-.2 1.67 0 .05.05.24 2.66.26 3.73.02 1.02 0 1.04-.76.82Zm.51-.79c-.03-.35-.08-1.15-.11-1.78-.1-1.98-.2-2.11-1.4-1.74-.54.17-.55.18-.55.57v.4l.45-.06c.51-.07.48-.12.6 1.28.14 1.73.14 1.74.49 1.84.57.17.57.16.52-.51Zm17.79-.28c-.04-.06-.11-.08-.16-.05-.05.04-.09.01-.09-.06 0-.08-.04-.08-.12-.01-.3.24-.67.03-.56-.31.16-.46.24-.52.52-.37.14.07.32.1.4.07.09-.04.21 0 .28.07s.2.11.3.08c.22-.05.24.16.04.43-.15.21-.52.3-.61.15Zm5.99-.34c.38-.5.32-.56-.1-.1-.19.21-.33.33-.29.27.04-.09-.04-.13-.29-.13-.45 0-.52-.12-.24-.44.29-.33.72-.27.63.08-.05.16-.02.15.12-.06.17-.27.43-.38.43-.18 0 .05.06.07.14.04.19-.07.31.33.16.51a.48.48 0 0 1-.31.15c-.11 0-.19.05-.19.1 0 .06-.07.1-.16.1-.13 0-.11-.07.1-.34Zm-1.87-.22c-.04-.04.03-.21.14-.38.2-.3.2-.3-.1.03-.33.37-.54.36-.28-.01.36-.51.49-.63.54-.5.03.06.11.12.19.12.13 0 .12.05-.03.31-.21.36-.37.51-.46.43Zm-5.8-.52c.27-.17-.68-1.43-2.97-3.92-.53-.58-1.45-1.6-2.04-2.28-.6-.67-1.1-1.21-1.12-1.2-.01.02.02.39.08.83.08.58.07 1.36-.02 2.89-.06 1.14-.08 2.12-.03 2.16.25.25 2.39 1.23 3.03 1.39.76.2 2.82.29 3.07.13Zm-39.36-.94c-.26-.09-.26-.24-.01-.66.21-.34.68-.43.77-.16.02.07-.05.1-.21.07-.18-.04-.28.02-.41.21-.27.41.08.65.45.31.16-.14.17-.14.16.07-.01.25-.34.32-.75.16Zm47.04-.58c.03-.06 0-.1-.07-.1s.08-.18.35-.41c.44-.38.68-.99.38-.99-.1 0-1.31 1.43-1.31 1.54 0 .1.59.06.65-.04Zm-40-.47c-.9-.13-1.5-.33-.99-.33.33 0 2.65.38 2.71.44.1.1-.65.05-1.72-.11Zm1.67-.68c-1.27-.22-1.73-.35-1.2-.35.3 0 2.31.36 2.73.49.54.17-.09.11-1.53-.14Zm-6.08-.21c.17-.07.2-.53.08-1.33l-.07-.44-.53.74c-.62.87-.63.92-.2 1 .49.09.55.1.72.03Zm26.66-.04c-.25-.04-.84-.13-1.31-.2l-.86-.12-.1-.54-.1-.54.66-.53c.86-.69 1.14-1.16.86-1.47-.2-.22-.85-.25-1.26-.06-.14.06-.18-.02-.24-.5-.09-.72-.02-.78.88-.78 1.98 0 2.74 1.62 1.42 3.03l-.46.49.38.06c1 .17.93.12.93.72s.03.58-.8.44Zm10.42-.28c.16-.17.48-.76.48-.87 0-.03-.13-.05-.3-.05-.34 0-.44-.33-.13-.44.12-.05.13-.1.05-.18-.15-.15-.36.03-.69.61-.15.25-.35.57-.46.71-.19.25-.19.25.05.31.44.13.85.09 1-.09ZM42 12.1c-.29-.18 0-.65.43-.68l.37-.03-.12.28c-.19.46-.42.6-.68.43Zm-1.09-.37c.14-.16.38-.45.53-.66.24-.33.56-.44.4-.14-.03.07.02.03.11-.08.31-.38-.15-.37-.58.02-.54.49-.78.29-.53-.44.13-.39-.37-.31-.63.1l-.2.32.24.03c.24.03.25.06.19.47-.09.7.07.82.47.38Zm5.79-1c0-.04.1-.18.23-.31l.22-.25-.32.23c-.45.32-.56.15-.15-.21.25-.22.39-.28.55-.23.32.09.32.09.02.48-.24.32-.55.48-.55.29Zm2.01-1.87-.14-.25-.25.19c-.33.26-.4.25-.34-.05.05-.3.22-.44.22-.19 0 .16.01.16.2-.01.11-.1.2-.13.2-.07s.07.09.15.06c.08-.04.15-.01.15.05s.07.08.15.05c.19-.08.32.24.15.39-.1.1-.11.07-.05-.13l.06-.25-.18.23-.19.23zM44 8.69c-.14-.06-.84-.26-1.55-.44-.71-.19-1.16-.34-1-.35.53 0 2.85.69 2.85.85 0 .06.01.06-.3-.06Zm.43-1.94c.04-.08.01-.17-.05-.21s-.08-.03-.04.04c.07.11-.11.28-.2.19-.06-.06.24-.67.32-.67.04 0 .04.09.01.21-.05.2-.05.2.14.03.18-.16.24-.13.2.1-.01.05.05.03.14-.04.08-.07.18-.1.21-.07.07.07-.28.56-.4.57-.05 0-.03-.06.03-.14.08-.09.08-.16.02-.2-.05-.04-.12.03-.16.14-.03.11-.11.2-.17.2-.05 0-.08-.07-.05-.15Zm-1.26-.18c-.15-.11-.15-.14.04-.45.21-.32.46-.45.35-.17-.21.52-.21.51-.02.35.4-.32.68-.16.35.21-.2.24-.2.24-.09.02.13-.28.03-.29-.25-.03-.18.16-.24.18-.38.07ZM10.64 5.41c.39-.15.47-.53.19-.83-.33-.35-.25-.63.14-.53.45.11.48.11.48-.05 0-.11-.13-.16-.43-.18-.76-.06-1.17.44-.75.9.23.26-.03.56-.34.39-.19-.1-.43.01-.43.2 0 .15.83.22 1.14.1Zm.73-.17c.15-.2.31-.27.66-.31.59-.07.62-.29.06-.38-.22-.04-.42-.05-.43-.03-.02.01-.17.24-.35.51-.33.48-.28.67.06.21Zm33.46-.11c-.36-.07-.34-.3.08-1.11.5-.94.56-1.02.81-1.02.29 0 .33.28.09.77-.31.64-.19.65.42.05 1.01-1 .8-.66-.68 1.11-.23.27-.29.28-.72.2Zm.61-.38c.03-.08.01-.15-.04-.15-.16 0-.12-.28.11-.71.39-.77.14-.72-.28.06-.24.43-.4.81-.37.86.09.15.51.1.58-.06Zm-23.19-.87c-.49-.11-.94-.24-1-.3-.07-.06-.02-.08.15-.04.14.03.77.15 1.4.27.63.11 1.17.23 1.19.25.11.11-.93 0-1.74-.18Zm13.68-.85c-.19-.07-.16-.21.15-.67.45-.67.45-.66.24-.66-.12 0-.35.22-.61.6-.68.97-1.42.82-.86-.17.16-.28.27-.61.26-.79-.03-.6.2-.68 1.45-.47 1.32.23 1.32.23.49 1.4-.58.81-.74.92-1.12.76Zm.96-.98c.58-.8.6-.77-.57-.96-.72-.11-.85-.11-.92.02-.07.1-.05.15.05.17.17.04.2.18.06.27-.11.06-.61.94-.61 1.06 0 .27.33.01.7-.56.23-.36.46-.65.5-.65.7 0 .8.17.42.73-.44.65-.46.69-.29.65.09-.01.38-.34.66-.73Z"/></svg>