<svg xmlns="http://www.w3.org/2000/svg" width="51" height="51" viewBox="0 0 51 51"><path fill="#fff" fill-rule="evenodd" stroke="#fff" stroke-width=".8" d="M20.02 37.48c-1.51-3.79-4.25-10.59-7.52-18.63-1.11-2.75-2.25-5.54-2.51-6.2-.27-.66-.49-1.25-.49-1.31 0-.21 6.18-.36 7.67-.18l.51.07.45 1.06c1.03 2.41 6.99 17.11 7.28 17.94.16.44.21.46.35.1 2.55-6.51 7.7-19.04 7.86-19.15.3-.18 8.08-.06 8.08.13 0 .05-.27.73-.59 1.51-.6 1.46-3.53 8.71-7.26 17.98-1.14 2.83-2.54 6.28-3.1 7.65l-1.02 2.5-4.15.03-4.15.02zm9.25 3.05c-.03-.1-.51-1.3-1.07-2.68-.56-1.37-1.9-4.68-2.97-7.35s-2.24-5.57-2.6-6.45-.99-2.43-1.4-3.45c-3.77-9.31-3.66-9.06-4.11-9.14-.49-.08-5.92-.08-6.7 0l-.6.07.38.91c1.23 2.96 11.07 27.36 11.33 28.09.06.16.34.17 3.93.17 3.63 0 3.86-.01 3.81-.17Zm2.48-5.28c1.13-2.8 2.87-7.1 3.85-9.55s2.65-6.56 3.7-9.15 1.94-4.77 1.96-4.86c.08-.23-.75-.29-4.32-.29-2.25 0-3.04.03-3.16.12-.2.16-1.44 3.17-7.1 17.3l-.91 2.27.92 2.28c.51 1.25 1.36 3.37 1.89 4.7s1 2.39 1.04 2.35c.03-.04.99-2.37 2.13-5.17Z"/></svg>