<svg xmlns="http://www.w3.org/2000/svg" width="51" height="51" viewBox="0 0 51 51"><path fill="#fff" fill-rule="evenodd" stroke="#fff" stroke-width=".727" d="M21.9 49.19c-7.23-.14-11.02-1.08-14.28-3.54-3.49-2.63-5.23-6.18-5.99-12.25-.27-2.17-.27-14.65 0-16.75.82-6.35 2.76-10.13 6.45-12.59C11.84 1.55 15.9.8 25.6.8c11.23.01 15.59 1.1 19.36 4.85 4.17 4.15 5.19 9.33 4.74 24-.23 7.55-1.54 11.6-4.8 14.85-3.99 4-8.73 4.96-23 4.69ZM1.4 44.86c0-2.42.04-4.37.09-4.4.12-.08.23.09.56.89 1.31 3.23 3.41 5.69 6.13 7.2 1.17.65 1.19.65-3.03.65H1.4zm40.9 4.22c0-.07.28-.29.62-.48 2.78-1.58 4.96-4.18 6.43-7.69.26-.63.3-.16.33 4.02l.02 4.27H46c-2.89 0-3.7-.03-3.7-.12Zm-34.2-.3c-3.23-1.99-4.71-3.75-6.38-7.58-.08-.19-.11.79-.11 3.78L1.6 49h6.85zm25.77-.02c4.04-.47 6.61-1.27 8.83-2.74 4.19-2.77 6.32-7.36 6.7-14.42.14-2.57.14-12.46 0-13.95-.94-10.38-5.43-15.14-15.35-16.3-4.31-.5-14.4-.42-18.15.16C8.03 2.71 3.77 6.62 2.3 13.99c-.98 4.93-.97 17.32.01 22.2C3.91 44.2 9.17 48.25 18.8 48.9c2.18.14 13.54.04 15.07-.14Zm15.62-3.59-.04-3.83-.5 1.01c-1.33 2.69-3.2 4.8-5.46 6.15l-.82.5h6.85zm-28.02-4.04c-.04-.03-.07-3.71-.07-8.16v-8.1l-.59-1.31c-.33-.72-1.16-2.55-1.85-4.06l-1.26-2.75.02-2.1.03-2.1 7.76-.03 7.77-.02.06.22c.03.13.06 1.11.06 2.19v1.96l-.69 1.44c-.37.79-1.21 2.57-1.85 3.94l-1.16 2.5V32c0 3.99-.03 7.69-.07 8.23l-.06.97h-4.02c-2.21 0-4.05-.03-4.08-.07Zm7.93-1.27v-1.04l-1.57-.07c-1.44-.07-6.12 0-6.21.1-.02.02-.01.49.03 1.04l.08 1.01h7.67zm0-8.19v-6.82L31.21 21c.99-2.12 1.82-3.9 1.85-3.96.03-.07-.28-.13-.93-.17-1.26-.09-12.71-.09-13.5-.01l-.6.07 1.24 2.71c.69 1.49 1.52 3.31 1.85 4.05l.61 1.35-.05 6.73-.06 6.73h7.78zm-4.33 1.89c-1.08-.4-1.21-.75-1.25-3.48-.04-2.5.03-3.12.45-3.66.87-1.15 2.9-.69 3.23.74.13.54.12 4.48-.01 5.04-.25 1.11-1.38 1.74-2.42 1.36Zm1.43-.35c.63-.33.8-.78.8-2.13v-1.17l-.25.25c-.14.14-.41.32-.6.4-.69.29-1.58.12-2.1-.4l-.25-.25v1.17c0 1.34.13 1.72.69 2.09.43.29 1.21.31 1.71.04Zm-.28-2.81c.21-.06.51-.27.72-.5l.36-.4v-1.15c0-1.8-.35-2.3-1.6-2.3-1.24 0-1.6.51-1.6 2.29v1.15l.32.37c.52.59 1.04.75 1.8.54Zm6.95-15.07c-.04-.75-.07-1.65-.07-2v-.63l-7.57.02-7.58.03-.03 1.92-.02 1.93 7.57.03c4.17.01 7.62.03 7.67.05.05.01.06-.54.03-1.35ZM1.42 6.08 1.45.85 7.97.82C13.4.8 14.5.82 14.5.93c0 .09-.29.2-.88.31C7.94 2.35 3.43 6 1.86 10.78c-.1.3-.24.52-.32.52-.12 0-.14-.75-.12-5.22Zm47.98 4.81c0-.59-1.82-3.61-2.97-4.94-1.95-2.24-5.56-4.15-9-4.75-.48-.09-.73-.18-.73-.27 0-.11 1.13-.13 6.5-.13h6.5v5.1c0 4.47-.02 5.1-.15 5.1-.08 0-.15-.05-.15-.11ZM3.65 6.88l.65-.86V1H1.6v9.53l.7-1.39c.38-.77.99-1.78 1.35-2.26ZM49.5 5.65V1h-3.1v4.53l.54.66c.72.89 1.55 2.17 2.07 3.24.24.48.45.87.46.87.02 0 .03-2.09.03-4.65ZM6.15 4.34c.33-.27.84-.64 1.13-.83l.52-.33V1H4.5v2.12c0 2.75-.01 2.72.59 2.15.25-.24.73-.66 1.06-.93ZM46.2 3.15V1h-4.22l-4.23.01 1.1.29c2.63.7 5.08 1.95 6.7 3.44.33.3.61.55.63.56.01 0 .02-.97.02-2.15Zm-35.81-1.2c.51-.2 1.44-.5 2.05-.66l1.11-.28L10.83 1H8.1v2l.68-.34c.37-.18 1.09-.5 1.61-.71Z"/></svg>