<svg xmlns="http://www.w3.org/2000/svg" width="51" height="51" viewBox="0 0 51 51"><path fill="#fff" fill-rule="evenodd" stroke="#fff" stroke-width=".334" d="M15.55 48c-.6-.24-.7-.52-.73-1.98-.06-2.35-.33-2.22 4.68-2.22h3.89l-.28-.47c-1-1.69-1.11-1.93-.91-1.93s1.3 1.89 1.3 2.25c0 .13.68.15 5.99.15 3.57 0 6.1.04 6.25.1.51.19.61.52.61 1.95-.01 1.46-.12 1.83-.65 2.1-.33.17-19.74.22-20.15.05Zm1.85-2.06v-2.06l-1 .04c-1.41.04-1.44.08-1.48 1.78-.05 1.96.18 2.29 1.65 2.3h.83zm16.3.01V43.9H17.5V48h16.2zm2.14 1.73c.31-.31.33-.39.4-1.24.16-2.14-.08-2.54-1.55-2.54h-.89V48h.86c.84 0 .87-.01 1.18-.32Zm-17.69-.38c-.17-.07-.16-.09.11-.09.48-.01.69-.31.56-.81-.09-.36-.08-.4.09-.4.13 0 .19.07.19.21 0 .2.01.2.21-.05.13-.17.25-.24.33-.19.06.05.32.08.59.07.49-.02.54.04.37.37-.08.15-.07.19.03.19.08 0 .17-.13.21-.3.04-.21.11-.3.26-.3.23 0 .23 0 .1.34-.14.37.05.32.2-.04.08-.18.2-.3.31-.3.22 0 .24.12.08.42-.08.16-.08.22.02.29.25.15.01.2-1.01.23-1.08.02-1.27-.05-1.15-.44.09-.29-.02-.25-.2.08-.37.67-.83.93-1.3.72Zm4.58.03c1.97-.02 5.17-.02 7.1 0 1.94.01.33.02-3.58.02s-5.49-.01-3.52-.02Zm-.56-.45c-.07-.04-.02-.2.16-.46.57-.86 1.3-1.05.9-.22-.12.22-.16.39-.09.37.06-.02.18-.23.27-.47.19-.53.55-.79.46-.34-.18.87-.19.94-.08.94.06 0 .14-.15.19-.32l.08-.33h.75c.78 0 .82.03.63.5-.07.17-.06.18.08.07.09-.07.19-.24.22-.37.06-.23.25-.33.39-.19.03.03.02.17-.03.3-.12.29.01.31.26.03.15-.16.16-.24.07-.39-.17-.26 0-.36.75-.45l.63-.07-.07.62c-.05.46-.04.61.05.56.06-.04.11-.15.11-.25 0-.24.2-.41.47-.41.28 0 .4.24.23.45-.1.12-.09.15.04.15.24 0 .19.19-.08.31-.17.08-.41.08-.8.02-.31-.06-.59-.06-.62-.02-.04.07-.44.07-1.87 0-.24-.01-.27-.04-.21-.26.03-.14.03-.25 0-.25-.04 0-.11.11-.16.25-.15.39-.44.33-.36-.07.05-.31.05-.32-.09-.14-.08.11-.15.26-.15.33 0 .15.04.14-1.13.16-.49.01-.94-.01-1-.05Zm7.01-.06c-.23-.27.16-.82.58-.82.35 0 .36.01.32.3-.03.19-.01.29.06.27.06-.02.12-.13.14-.25.04-.25.27-.46.41-.38.07.05.07.15 0 .33-.15.4-.02.4.15-.01s.52-.52.43-.14c-.02.13-.08.31-.12.41-.13.31.13.18.34-.18.14-.25.27-.35.45-.35.25 0 .42.25.24.36q-.105.06.03.15c.11.06.11.13.03.26-.14.23-2.88.27-3.06.05ZM18.6 44.88v-.29l.63.01c.34.01.69 0 .77-.03s.22-.05.3-.05.32-.04.53-.08l.37-.07v.42c0 .34-.03.41-.2.41-.16 0-.2-.07-.2-.3 0-.39-.26-.4-.33-.01l-.06.29h-.91l-.9-.01zm2.7-.09c0-.33.03-.4.16-.35.09.03.2.06.25.06s.09.08.09.18c0 .14.02.15.1.02.05-.09.25-.15.47-.15.21 0 .44-.04.51-.09.17-.11.28.01.35.39.06.3.05.31-.39.31-.36.01-.44-.02-.44-.17 0-.11-.07-.19-.15-.19s-.15.04-.15.1.04.1.1.1.1.05.1.1c0 .06-.22.1-.5.1h-.5zm6.85.33c-.23-.23.05-.83.29-.63.07.06.21.08.31.05.12-.05.23-.01.31.11.13.18.14.18.14-.03 0-.12.05-.22.1-.22.06 0 .1.08.1.18.01.16.01.16.11 0 .19-.33.39-.21.39.22v.39l-.85-.01c-.46 0-.87-.03-.9-.06Zm2-.11c-.09-.3.04-.49.38-.54.46-.06.53-.01.49.38-.05.42-.29.47-.35.08l-.04-.28-.02.28c-.01.32-.36.39-.46.08Zm1.15-.06c0-.13-.03-.31-.07-.4-.05-.15-.01-.16.33-.11.79.13 1.34.16 1.34.06 0-.05.06-.07.14-.04s.11.15.08.3c-.02.14 0 .24.07.24.06 0 .11.05.11.1 0 .07-.37.1-1 .09-.97-.01-1-.02-1-.24Zm-7.66-2.17c-.2-.4-1.16-1.43-3.85-4.15-3.1-3.13-3.82-3.93-3.53-3.93.03 0 1.69 1.63 3.68 3.63 3.57 3.56 4.48 4.62 4.19 4.91-.14.13-.24.04-.49-.46Zm4.86.12c0-.14 1.01-.8 1.23-.8.31 0 .13.23-.44.57-.55.34-.79.41-.79.23Zm-.8-.4c0-.11.32-.82.72-1.58.39-.75.78-1.49.85-1.64.16-.3.33-.37.33-.13 0 .17-.47 1.12-1.04 2.13-.48.85-.46.86.17.11.28-.36.97-1.09 1.53-1.64.6-.6 1.52-1.69 2.28-2.7 1.77-2.37 3.66-4.36 3.66-3.86 0 .04-.48.6-1.06 1.22-.58.63-1.67 1.95-2.42 2.94-.78 1.04-1.78 2.22-2.36 2.8-.56.55-1.32 1.35-1.69 1.78-.69.77-.97.94-.97.57Zm2.85-.91c-.09-.13-.23-.04 1.3-.83.71-.38 1.51-.83 1.77-1.02.45-.32.64-.33.53-.02-.14.37-3.47 2.1-3.6 1.87Zm-12.63-.99c-1.72-.24-3.17-.91-3.68-1.71-.59-.95-.42-2.53.35-3.23.34-.31.47-.06.16.3-.52.6-.38.92.48 1.14 1.82.47 2.63.86 3.36 1.63.53.56.28.65-.32.11-.67-.6-1.4-.96-2.59-1.28-.54-.14-1.09-.33-1.23-.42l-.25-.16v.55c0 1.92 2.73 3.15 5.85 2.65.3-.05.33.15.05.29-.36.17-1.43.23-2.18.13Zm4.92-.26c-.27-.75-.75-1.89-1.3-3.11-.35-.77-.64-1.48-.64-1.57 0-.32.21-.15.44.36 1.66 3.69 1.86 4.22 1.69 4.39-.1.1-.14.08-.19-.07Zm7.98-.35c.04-.16 2.09-1.19 2.2-1.12.21.12 0 .28-.84.67-1.17.55-1.42.63-1.36.45Zm-1.26-1.67c-.06-.1.28-.6 1.42-2.1 1-1.32 2.03-2.99 3.32-5.37 1.1-2.04 2.1-3.63 2.58-4.08.5-.48.46-.12-.06.55-.64.81-1.13 1.62-2.29 3.78-1.97 3.64-4.71 7.63-4.97 7.22Zm-1.86-.17c0-.52 3.99-7.91 5.32-9.86 1.47-2.16 3.18-2.89 4.95-2.1 2.09.93 1.99 2.59-.26 4.24-.53.38-1.56 1.29-2.28 2-1.26 1.25-1.53 1.43-1.39.99.1-.3 2.24-2.33 3.28-3.11 1.55-1.15 1.99-1.76 1.79-2.47-.43-1.54-2.8-2.12-4.35-1.05-1.08.75-3.23 4.26-6.06 9.91-.74 1.47-1 1.85-1 1.45Zm7.34-1.26c.21-1.25.25-1.16-.38-.98-.55.15-.73-.05-.23-.26 1-.41 1.3-.13.99.94-.22.77-.49.99-.38.3Zm-16-2.01c-.21-.35-.64-1.02-.96-1.49-.63-.93-.65-.99-.43-.99.14 0 2.05 2.78 2.05 2.99 0 .3-.32.05-.66-.51Zm-3.45-1c-3.57-2.3-4.78-3.7-4.67-5.42.21-3.29 4.48-4.12 5.98-1.16.66 1.3 2.11 4.85 2.02 4.94-.11.12-.23.05-.32-.16-2.29-5.57-2.51-5.9-4.04-6.19-2.03-.37-3.57 1.11-3.31 3.2.14 1.17.46 1.53 3.1 3.5 2.12 1.58 2.1 1.57 1.98 1.64-.06.04-.39-.12-.74-.35Zm.65-2.7c-.27-.35-1.09-1.25-1.83-2.01-1.06-1.08-1.32-1.4-1.23-1.49.2-.2 3.82 3.63 3.82 4.04 0 .25-.35 0-.76-.54Zm-5.85-1.6c-.13-.49-.07-1.44.11-1.78.2-.38.31-.09.2.51-.06.3-.08.74-.05.99.08.61.08.64-.04.68-.05.02-.15-.16-.22-.4Zm2.18-2.15c-.15-.14-.07-.8.11-.96.27-.24.72-.22.72.02 0 .59-.56 1.22-.83.94Zm-.65-1.65c.13-.38 1.37-.83 2.09-.76.62.06.42.25-.31.31-.49.04-.85.14-1.17.31-.5.29-.67.32-.61.14ZM0 23.05c0-.08.04-.15.09-.15.06 0 .11-.61.13-1.4.02-1.07 0-1.4-.1-1.4-.06 0-.12-.09-.12-.2 0-.2.07-.2 3.12-.22l3.13-.03-3.03-.02-3.03-.03.03-1.4c.02-1.07 0-1.4-.1-1.4-.06 0-.12-.09-.12-.2 0-.2.07-.2 3.12-.22l3.13-.03-3.02-.02L.2 16.3v-2.9l2.98-.03 2.97-.02-3.07-.03C0 13.3-.39 13.25.1 12.95c.13-.08.13-2.85 0-2.85-.06 0-.1-.09-.1-.2 0-.2.07-.2 3.12-.22l3.13-.03-3.02-.02L.2 9.6V6.91l.98-.04.97-.03H1.07C.02 6.85 0 6.84 0 6.62c0-.12.04-.22.1-.22s.1-.55.1-1.45S.16 3.5.1 3.5 0 3.41 0 3.3s.04-.2.1-.2.1-.55.1-1.46C.2.7.16.21.1.25.05.28 0 .24 0 .16 0 .02 2.48 0 25.58 0h25.57l-.05 1.56c-.03.86-.03 1.58-.01 1.6.09.09-.01 3.09-.11 3.15-.05.04-.03.09.06.12.16.06.23.37.08.37-.08 0-.1 2.82-.02 2.9.03.03.03.75 0 1.6l-.05 1.55-2.9.05-2.9.05 2.98.03c2.56.02 2.97.04 2.97.17 0 .08-.03.15-.08.15-.04 0-.06.67-.04 1.5l.03 1.5-2.98.03-2.98.02 3 .03 3 .02-.03 1.27c-.01.71-.05 1.43-.08 1.6l-.05.33-2.92.03-2.92.02 3.03.03c3.02.02 3.41.07 2.92.37-.13.08-.13 2.85 0 2.85.06 0 .1.07.1.15 0 .13-2.91.15-25.6.15S0 23.18 0 23.05Zm15.93-.45h2.77v-2.2h-2.84c-2.63 0-2.85-.01-2.89-.17-.03-.1-.05.39-.06 1.09 0 .69-.04 1.35-.08 1.45-.06.17-.06.17.14.01.18-.16.47-.18 2.96-.18Zm3.56-1.05c0-.6-.04-1.19-.09-1.3-.05-.12-.09.35-.09 1.25-.01.97.03 1.4.09 1.3.05-.08.09-.64.09-1.25Zm15.74 1.05H38v-2.2h-2.85c-2.47 0-2.85-.02-2.85-.15 0-.08-.04-.15-.1-.15s-.1.54-.1 1.42c0 1.36.01 1.41.18 1.25.16-.15.52-.17 2.95-.17Zm3.49.13c.07-.32-.04-2.63-.13-2.63-.05 0-.09.63-.09 1.4 0 1.23.09 1.75.22 1.23Zm9.27-.13h2.81v-2.2h-2.85c-2.47 0-2.85-.02-2.85-.15 0-.08-.04-.15-.1-.15s-.1.54-.1 1.43c.01 1.2.03 1.39.14 1.25.12-.16.38-.18 2.95-.18Zm-19.22 0h2.83v-2.2h-2.85c-2.47 0-2.85-.02-2.85-.15 0-.08-.04-.15-.1-.15s-.1.52-.1 1.37c0 1.07.03 1.34.12 1.25s.88-.12 2.95-.12ZM5.9 21.5v-1.1H.5v2.2h5.4zm6.4 0v-1.1H6.9v2.2h5.4zm12.8 0v-1.1h-5.4v2.2h5.4zm19.3 0v-1.1H39v2.2h5.4zm-34.17-1.47c-.62-.02-1.65-.02-2.3 0-.65.01-.14.03 1.12.03 1.27 0 1.8-.02 1.18-.03Zm12.5 0c-.57-.02-1.49-.02-2.05 0-.57.01-.11.03 1.02.03s1.59-.02 1.03-.03Zm-11.56-.4c-.81-.02-2.13-.02-2.95 0-.81.01-.14.03 1.48.03s2.29-.02 1.47-.03Zm6.41 0c-.81-.02-2.16-.02-3 0-.84.01-.18.03 1.47.03s2.34-.02 1.53-.03Zm6.39 0c-.81-.02-2.13-.02-2.95 0-.81.01-.14.03 1.48.03s2.29-.02 1.47-.03Zm6.51 0c-.81-.02-2.16-.02-3 0-.84.01-.18.03 1.47.03s2.34-.02 1.53-.03Zm6.4 0c-.81-.02-2.16-.02-3 0-.84.01-.18.03 1.47.03s2.34-.02 1.53-.03Zm6.35 0c-.78-.02-2.08-.02-2.9 0-.81.01-.17.03 1.42.03s2.26-.02 1.48-.03Zm-20.79-.33c2.5 0 2.78-.02 2.72-.16-.03-.09-.06-.58-.06-1.1v-.94h-2.84c-2.63 0-2.85-.01-2.89-.17-.03-.1-.05.47-.06 1.26-.01 1.39 0 1.44.17 1.28.16-.15.52-.17 2.96-.17Zm3.49-1.23c-.08-1.71-.23-1.61-.23.15 0 1.26.02 1.41.15 1.27.12-.12.14-.36.08-1.42Zm6.37.07c0-.83-.04-1.34-.1-1.34s-.1.54-.1 1.41c0 .91.04 1.38.1 1.34s.1-.62.1-1.41Zm9.37 1.16h2.73v-2.2h-2.8c-2.4 0-2.81-.02-2.86-.15-.14-.36-.19-.06-.21 1.25l-.03 1.41.22-.16c.19-.13.65-.15 2.95-.15Zm3.49-.49c-.03-.24-.06-.79-.06-1.22 0-.46-.04-.79-.1-.79s-.1.54-.1 1.43c.01 1.3.02 1.4.16 1.22.11-.14.14-.32.1-.64Zm-38.51.59c.04-.06 1.1-.1 2.86-.1h2.79v-2.2H9.45c-2.59 0-2.85-.02-2.85-.17 0-.09-.03-.14-.06-.1-.08.08-.11 2.67-.02 2.67.04 0 .1-.04.13-.1Zm-3.22-.1H5.9v-2.2H.5v1.16c0 1.16 0 1.16.23 1.1.12-.03 1.33-.06 2.7-.06Zm15.27-1.1v-1.1h-5.4v2.2h5.4zm12.9 0v-1.1h-5.4v2.2h5.4zm6.4 0v-1.1h-5.4v2.2H38zm12.8 0v-1.1h-5.4v2.2h5.4zM9.62 16.33 6.6 16.3v-2.9l2.93-.03 2.92-.02-2.98-.03-2.97-.02v3.1l3.08-.02 3.07-.03zm7.96 0c-.81-.02-2.16-.02-3 0-.84.01-.18.03 1.47.03s2.34-.02 1.53-.03Zm6.5 0c-.81-.02-2.16-.02-3 0-.84.01-.18.03 1.47.03s2.34-.02 1.53-.03Zm6.4 0c-.81-.02-2.16-.02-3 0-.84.01-.18.03 1.47.03s2.34-.02 1.53-.03Zm6.4 0c-.82-.02-2.14-.02-2.95 0-.82.01-.15.03 1.47.03s2.29-.02 1.48-.03Zm6.4 0c-.81-.02-2.16-.02-3 0-.84.01-.18.03 1.47.03s2.34-.02 1.53-.03Zm-20.92-.25 2.79-.03.03-1.17.03-1.18h-2.86c-2.47 0-2.85-.02-2.85-.15 0-.08-.04-.15-.1-.15s-.1.55-.1 1.46c0 1.21.02 1.45.13 1.35.09-.07 1.07-.12 2.93-.13Zm3.54-1.29V13.4l2.98-.02 2.97-.03-2.85-.03c-3.71-.03-3.3-.22-3.3 1.54 0 .94.04 1.43.1 1.39s.1-.63.1-1.46Zm9.27 1.31H38v-2.4h-2.85c-2.47 0-2.85-.02-2.85-.15 0-.08-.04-.15-.1-.15s-.1.56-.1 1.47c0 1.14.03 1.44.12 1.35s.88-.12 2.95-.12Zm3.53-1.3c0-.93-.04-1.5-.1-1.5s-.1.57-.1 1.5.04 1.5.1 1.5.1-.57.1-1.5Zm9.27 1.3h2.83v-2.4l-2.82-.02c-2.12-.02-2.82-.06-2.85-.15-.04-.1.61-.13 2.89-.16l2.93-.02-2.97-.03L45 13.3v1.19c0 .65-.03 1.34-.06 1.52-.06.28-.04.32.07.22.1-.1.83-.13 2.96-.13Zm-29.2-1.22.05-1.18h-2.86c-2.61 0-2.86-.01-2.95-.17-.07-.13-.1.22-.11 1.22v1.4l2.91-.05 2.92-.05zM5.9 14.9v-1.2H3.14c-2.48 0-2.76.02-2.7.16.03.09.06.63.06 1.2v1.04h5.4zm6.4 0v-1.2H6.9v2.4h5.4zm19.3 0v-1.2h-5.4v2.4h5.4zm12.8 0v-1.2H39v2.4h5.4zm-26.97-1.57c-.78-.02-2.08-.02-2.9 0-.81.01-.17.03 1.42.03s2.26-.02 1.48-.03Zm6.49 0c-.78-.02-2.06-.02-2.85 0-.78.01-.14.03 1.43.03s2.21-.02 1.42-.03Zm12.81 0c-.79-.02-2.07-.02-2.85 0-.79.01-.15.03 1.42.03s2.21-.02 1.43-.03Zm6.5 0c-.78-.02-2.08-.02-2.9 0-.81.01-.17.03 1.42.03s2.26-.02 1.48-.03Zm-37.1-.4c.03-.05-.72-.07-1.66-.05-3.21.04-3.53.08-.95.1 1.41.01 2.59-.01 2.61-.05Zm.55-1.49c-.04-1.77-.18-1.72-.18.07 0 .94.03 1.38.1 1.34s.1-.56.08-1.41Zm6.42 0c0-.83-.04-1.34-.1-1.34s-.1.54-.1 1.41c0 .91.04 1.38.1 1.34s.1-.62.1-1.41Zm6.4.06c0-.87-.04-1.4-.1-1.4s-.1.53-.1 1.4.04 1.4.1 1.4.1-.53.1-1.4Zm9.31 1.08 2.74-.03.03-1.07.03-1.08h-2.82c-2.57 0-2.83-.02-2.95-.17-.11-.15-.13.04-.14 1.26 0 1.38.01 1.43.18 1.28.16-.14.55-.17 2.93-.19Zm3.49-1.14V10.1l.53-.02c.45-.01.47-.02.13-.05-.87-.09-.86-.11-.86 1.48 0 .91.04 1.38.1 1.34s.1-.62.1-1.41Zm9.33 1.16h2.77v-2.2h-2.85c-2.59 0-2.85-.02-2.85-.17 0-.09-.02-.14-.05-.11-.16.15-.1 2.76.06 2.62.13-.11.66-.14 2.92-.14Zm3.57.15c.11-.13.55-.15 2.86-.15h2.74v-2.2h-2.86c-2.5 0-2.85-.02-2.8-.15.03-.08 0-.15-.07-.15-.09 0-.12.37-.13 1.4 0 1.4.03 1.53.26 1.25ZM5.9 11.5v-1.1H3.21c-1.49 0-2.71.03-2.73.08-.02.04-.02.53 0 1.1l.04 1.02H5.9zm6.4.31c0-.43.03-.93.06-1.1l.07-.31H6.9v2.2h5.4zm6.4 0c0-.43.03-.93.06-1.1l.06-.31H13.4v2.2h5.3zm6.44.63c.03-.09.06-.58.06-1.1v-.94h-5.4v2.2h2.64c2.31 0 2.65-.02 2.7-.16ZM38 11.5v-1.1h-5.4v2.2H38zM11.17 9.63c-.81-.02-2.13-.02-2.95 0-.81.01-.14.03 1.48.03s2.29-.02 1.47-.03Zm6.4 0c-.81-.02-2.13-.02-2.95 0-.81.01-.14.03 1.48.03s2.29-.02 1.47-.03Zm6.51 0c-.81-.02-2.16-.02-3 0-.84.01-.18.03 1.47.03s2.34-.02 1.53-.03Zm6.4 0c-.82-.02-2.14-.02-2.95 0-.82.01-.15.03 1.47.03s2.29-.02 1.48-.03Zm6.4 0c-.82-.02-2.14-.02-2.95 0-.82.01-.15.03 1.47.03s2.29-.02 1.48-.03Zm4.83-.33h2.69V7.1h-2.85c-2.47 0-2.85-.02-2.85-.15 0-.08-.04-.15-.1-.15s-.1.55-.1 1.46v1.45l.26-.2c.26-.2.39-.21 2.95-.21Zm1.62.33c-.78-.02-2.08-.02-2.9 0-.81.01-.17.03 1.42.03 1.6 0 2.26-.02 1.48-.03Zm1.85-1.5c-.02-.98-.06-1.33-.15-1.33-.1 0-.13.36-.13 1.46 0 1.33.01 1.45.16 1.33.13-.11.15-.34.12-1.46ZM9.58 9.3h2.72V7.1H9.44c-2.5 0-2.85-.02-2.8-.15.03-.08.01-.15-.04-.15-.06 0-.1.57-.1 1.42 0 1.36.01 1.41.18 1.25.16-.15.51-.17 2.9-.17Zm3.51-1.14c-.03-.78 0-1.28.06-1.3.06-.03.02-.05-.07-.05-.16-.01-.18.12-.18 1.41 0 1.04.03 1.39.11 1.31.07-.07.1-.54.08-1.37Zm9.32 1.14c3.09 0 2.79.13 2.79-1.26V7.1h-2.85c-2.47 0-2.85-.02-2.85-.15 0-.08-.04-.15-.1-.15s-.1.54-.1 1.41v1.4l.22-.15c.19-.14.64-.16 2.89-.16Zm6.46 0h2.73V7.1h-2.85c-1.83 0-2.85-.04-2.85-.1a.1.1 0 0 0-.1-.1c-.06 0-.1.52-.1 1.36v1.35l.22-.15c.19-.14.65-.16 2.95-.16Zm3.57.15c.16-.12.68-.15 2.88-.15H38V7.1l-2.88-.02c-2.23-.02-2.86-.06-2.85-.15.02-.07-.02-.13-.07-.13-.06 0-.1.53-.1 1.4 0 1.44.02 1.5.34 1.25ZM5.9 8.2V7.1H.5v2.25l2.7-.03 2.7-.03zm44.9.05V7.1h-5.4v2.3h5.4zm-32.06.28c.03-.42.06-.91.06-1.1V7.1h-5.5v2.2h5.37zM4.88 6.33c-.76-.02-2-.02-2.75 0-.76.01-.14.03 1.37.03s2.13-.02 1.38-.03Zm6.29 0c-.81-.02-2.13-.02-2.95 0-.81.01-.14.03 1.48.03s2.29-.02 1.47-.03Zm6.4 0c-.81-.02-2.13-.02-2.95 0-.81.01-.14.03 1.48.03s2.29-.02 1.47-.03Zm6.31 0c-.82-.02-2.14-.02-2.96 0-.81.01-.14.03 1.48.03s2.29-.02 1.48-.03Zm5.05 0c-2.8-.03-3.03-.05-3.01-.21.05-.65-.04-2.62-.12-2.62-.06 0-.1.55-.1 1.45V6.4l3.13-.02 3.12-.03zm6.26-.23H38V3.8h-2.85c-2.47 0-2.85-.02-2.85-.15 0-.08-.04-.15-.1-.15s-.1.56-.1 1.48c.01 1.24.03 1.44.14 1.3.12-.16.38-.18 2.95-.18Zm1.43.23c-.78-.02-2.06-.02-2.85 0-.78.01-.14.03 1.43.03s2.21-.02 1.42-.03ZM38.8 5.3c0-.48-.03-1.08-.06-1.34-.13-.91-.24-.44-.24 1 0 1.29.02 1.45.15 1.34.11-.09.15-.34.15-1Zm4.28 1.03c-.75-.02-2.01-.02-2.8 0-.79.01-.17.03 1.37.03s2.18-.02 1.43-.03Zm2.12-1.27c0-1.14-.06-1.56-.21-1.56-.05 0-.09.66-.09 1.46 0 1.29.02 1.45.15 1.34.12-.1.15-.37.15-1.24Zm3.92 1.27c-.73-.02-1.9-.02-2.6 0-.7.01-.1.03 1.33.03s2-.02 1.27-.03Zm-33.15-.31 2.73-.03V3.8h-2.84c-2.63 0-2.85-.01-2.89-.18-.03-.09-.05.48-.06 1.27-.01 1.32 0 1.42.16 1.3.12-.11.76-.15 2.9-.17ZM22.53 6h2.67V3.8h-2.85c-2.6 0-2.85-.01-2.94-.18-.07-.12-.1.24-.11 1.25v1.42l.28-.15c.21-.11.82-.14 2.95-.14Zm-16.79.04c.13-.05.16-.25.16-1.15V3.8H.5v2.3h2.54c1.4 0 2.61-.03 2.7-.06Zm6.19 0 .37-.07V3.8H6.9v2.3h2.32c1.28 0 2.5-.03 2.71-.06ZM44.4 4.95V3.8H39v1.08c0 .6.03 1.12.07 1.15.03.04 1.25.07 2.7.07h2.63zm6.4 0V3.8h-5.4v1.08c0 .6.03 1.12.07 1.15.03.04 1.25.07 2.7.07h2.63zM31.6 4.9V3.8h-5.4V6h5.4zm-7.77-1.47c-.78-.02-2.08-.02-2.9 0-.81.01-.17.03 1.42.03 1.6 0 2.26-.02 1.48-.03Zm6.95 0c-.53-.02-1.43-.02-2 0-.57.01-.13.03.97.03s1.56-.02 1.03-.03Zm-13.21-.4c-.81-.02-2.13-.02-2.95 0-.81.01-.14.03 1.48.03s2.29-.02 1.47-.03Zm6.51 0c-.81-.02-2.16-.02-3 0-.84.01-.18.03 1.47.03s2.34-.02 1.53-.03Zm4.77-.33h2.75V.5h-2.85C26.28.5 25.9.48 25.9.35c0-.08-.04-.15-.1-.15s-.1.55-.1 1.45V3.1l.2-.2c.19-.19.33-.2 2.95-.2Zm1.63.33c-.82-.02-2.14-.02-2.95 0-.82.01-.15.03 1.47.03s2.29-.02 1.48-.03Zm1.86-.09c.09-.23-.06-2.74-.16-2.68-.11.07-.1 2.84.01 2.84.05 0 .12-.07.15-.16Zm6.4 0c.15-.38.01-2.78-.15-2.68-.12.07-.12 2.84 0 2.84.05 0 .12-.07.15-.16ZM9.52 2.8h2.78V.5H9.46C6.83.5 6.61.49 6.57.33c-.03-.1-.05.47-.06 1.26-.01 1.13.02 1.42.11 1.33s.87-.12 2.9-.12Zm6.4 0h2.78v-.62c0-.35.03-.87.06-1.16l.07-.52h-2.91C13.69.5 13 .47 12.97.38c-.03-.07-.06.5-.06 1.27-.01 1.08.02 1.36.11 1.27s.87-.12 2.9-.12Zm6.55-.1h2.73V.5h-2.89c-2.67 0-2.9-.01-2.94-.17-.03-.1-.05.46-.06 1.25l-.01 1.43.22-.15c.19-.14.65-.16 2.95-.16Zm22.73.2c0-.06 1-.1 2.8-.1h2.8V.5h-2.84c-2.63 0-2.85-.01-2.89-.17-.03-.1-.05.46-.06 1.25-.01.89.03 1.42.09 1.42s.1-.04.1-.1ZM5.9 1.65V.5H.5v2.3h5.4zm32.1 0V.5h-5.4v2.3H38zm6.4 0V.5H39v2.3h5.4z"/></svg>