<svg xmlns="http://www.w3.org/2000/svg" width="51" height="51" viewBox="0 0 51 51"><path fill="#fff" fill-rule="evenodd" stroke="#fff" stroke-width=".467" d="M9.85 42.96c-.98-.28-1.77-1.55-1.61-2.59.04-.22.06-6.41.06-13.76 0-13.06 0-13.38.2-14.15.31-1.22.78-1.88 1.65-2.34.69-.37 4.07-.42 4.13-.07.09.6.12.65.42.65.17 0 .3.05.3.13s.03.09.08.01c.12-.18.62-.23.78-.07.12.13.15.12.2-.01.07-.19.64-.22.83-.03.11.09.14.09.18 0 .06-.16.55-.17.7-.02.09.09.16.07.28-.05.17-.16.49-.14.69.04.05.05.15.02.23-.06.19-.19.38-.18.58.03.16.16.18.16.27 0 .12-.22.46-.22.71 0 .18.17.19.17.28 0 .11-.2.49-.23.67-.05.09.09.15.09.24 0 .15-.15.61-.15.76 0 .09.09.15.09.24 0 .16-.16.65-.15.71 0 .04.11.07.11.18 0 .15-.14.59-.16.59-.03 0 .14.37.01.56-.2.17-.19.14-.19-1.92-.14-7.75.19-7.94.18-7.94-.21 0-.31.44-.35 5.5-.43l5.09-.09.68-.7c1.32-1.36 2.73-1.21 2.73.29v.4l.93-.06c2.38-.15 8.59-.25 8.97-.15 1.22.33 1.68 1.34 1.95 4.31.07.85.19 2.11.26 2.81l.12 1.28.33.19c.54.32.64.64.74 2.44.05.89.14 2.14.19 2.77.11 1.21.04 1.86-.23 2.05-.12.1-.12.13.06.24.2.13.2.17.12 1.94-.11 2.25-.08 4.61.08 6.77.2 2.61.18 3.43-.1 3.73-.22.23-.23.28-.12.87.21 1.18-.18 2.14-1.19 2.9-.67.51-.05.46-8.41.7-3.99.11-9.9.31-13.15.45-8.99.37-9.03.37-9.6.21Zm3.34-.95c.67-.04.96-.1.99-.2.04-.11-.23-.12-1.69-.05-.96.05-1.96.08-2.24.07-.46-.02-.48 0-.31.13.21.15 1.47.17 3.25.05Zm6.39-.27c.65-.1.39-.35-.3-.29-.35.02-1.43.08-2.4.11-1.48.05-1.78.09-1.78.21 0 .15 3.49.12 4.48-.03Zm-7.18-.29c1.51-.09 8.64-.34 12.75-.45 2.2-.05 4.63-.12 5.4-.15 10.16-.39 9.67-.35 10.17-.82.28-.27.58-1.28.41-1.42-.08-.08-3.41-.02-14.08.23-3.52.09-8.36.2-10.75.26-6.23.14-6.33.15-6.7.75-.61.99 0 1.79 1.3 1.7.36-.02 1.03-.07 1.5-.1Zm15.25-.06c3.96-.2 4.89-.28 2.6-.23-5.68.12-6.65.16-6.65.32 0 .13.15.14.98.08.53-.03 1.92-.11 3.07-.17ZM9.7 38.26c.19-.08.6-.17.91-.21l.57-.07.06-.45c.08-.61.08-18.51-.01-21.65l-.06-2.48H8.8v12.63c0 6.95.03 12.67.07 12.7.03.04.16-.02.27-.12.12-.11.37-.27.56-.35Zm10.74.48c.09-.03.16-.13.16-.22 0-.13-.19-.14-1.57-.09-.87.04-1.88.07-2.25.07-.54 0-.68.03-.68.15 0 .16 3.96.24 4.34.09Zm-6.84-.91c.06-.06.02-27.15-.05-27.21-.08-.08-1.34-.15-1.67-.08l-.35.06.01 13.71.01 13.71 1-.07c.55-.04 1.02-.09 1.05-.12Zm16.55-.39c4.55-.06 10.55-.21 10.92-.27.83-.13.84-.29.44-5.02-.16-1.87-.32-4.01-.36-4.75-.07-1.5-.12-1.9-.26-1.9-.05 0-.09.11-.09.25 0 .17-.06.25-.18.26-.13 0-.14.02-.02.06.35.14.44.83.11.83-.11 0-.28.03-.38.06-.11.04-.14.03-.06-.03.14-.1.19-.68.08-1.06-.09-.33-.2-.33-2.45-.12-3.2.31-5.56.43-6.05.3l-.3-.08.34.37c.38.39.34.48-.07.15-.2-.16-.34-.19-.64-.14-.5.09-.5-.09-.01-.26l.38-.12-.38-.13c-.2-.07-.53-.25-.72-.4-.3-.22-.36-.24-.41-.1-.03.09-.13.16-.21.16s-.35.14-.6.3c-.47.32-.67.38-.61.18.03-.07.34-.28.71-.48l.66-.36-.23-.29c-.23-.3-.77-1.23-.74-1.28.01-.01-.05-.26-.12-.56-.08-.34-.1-.81-.06-1.27l.06-.74h-.26c-.14 0-.23-.04-.19-.1.03-.05-.03-.18-.15-.3-.28-.28-.08-.25.28.05l.29.24.36-.72c.35-.69.99-1.52 1.1-1.41.06.06.47-.18.47-.27 0-.03-.11-.19-.25-.35-.18-.2-.21-.3-.12-.36.18-.11.27-.1.27.05 0 .4.45.59 1.01.43.3-.08.79-.17 1.09-.21.3-.03.58-.12.62-.18.06-.09.08-.09.08 0 0 .19 1.71.05 1.88-.15.07-.1.12-.11.12-.04 0 .14 1.48.16 3.22.06l1.05-.07-.1-.27c-.13-.34-.03-.6.23-.6.17 0 .2.06.2.46 0 .32.04.44.13.41.15-.05.13-.73-.14-3.21-.36-3.38-.53-3.94-1.32-4.35l-.43-.22-3.55.11c-6.07.18-6.31.2-5.74.47.14.06.23.07.19.02-.03-.05.1-.09.28-.08.27 0 .3.02.13.09-.18.08-.18.09-.02.09.1.01.25-.06.33-.14.18-.18.94-.2.94-.03 0 .09.03.09.12 0 .15-.15.65-.16.74-.01.04.08.09.08.17 0 .14-.14.64-.14.72-.01.09.15.25.12.25-.06 0-.11.08-.14.33-.12.19.02.31.08.29.16-.03.18.25.15.32-.04.11-.28.71-.14.71.16v.25l-1.95.07c-1.07.04-2.08.11-2.25.17l-.3.09.4.01c.39.01.39.01.17.17-.13.09-.26.13-.29.1s-.14-.01-.25.05c-.14.07-.23.07-.34-.02-.2-.16-.17-.27.09-.32.12-.02.03-.05-.21-.06-.27 0-.41.03-.37.09.03.06.01.1-.04.1-.06 0-.11-.05-.11-.11s-.14-.09-.31-.07c-.26.03-.89 1.17-.89 1.63 0 .05 1.04-.07 1.69-.2.76-.16.84-.16.99-.01s.12.16-.31.16c-.3 0-.46.04-.42.1.03.06.19.1.36.1.16 0 .28.03.27.08-.05.15.4.62.6.62.14 0 .22.08.24.22.03.2.09.23.41.22.41-.01.45.03.2.22-.31.23-.64.17-.75-.14-.11-.27-.13-.28-.57-.21-.67.11-1.13.11-1.06-.01.03-.05.23-.13.44-.16.7-.11.74-.64.04-.64-.13 0-.32-.05-.42-.12-.14-.08-.3-.08-.66.01-.3.08-.5.09-.54.02-.07-.11-.61-.1-.61.02 0 .04-.31.8-.69 1.7-.38.89-.72 1.74-.75 1.89-.06.27-.13.36-.48.61-.09.07-.7 1.29-1.36 2.72s-1.63 3.51-2.16 4.63c-1.08 2.28-1.02 2.12-.77 2.12.11 0 .21.04.23.1.03.09.88-.17 1.03-.32.04-.04-.19-.09-.49-.13-.31-.04-.58-.11-.61-.15-.06-.1.24-.22.35-.15.12.07 1.45.17 2.02.16.54-.02.65.15.16.24-.48.09-.69.09-1.02 0-.25-.07-.27-.05-.22.11.08.28-.74.56-1.36.48l-.45-.06-.22.51c-.98 2.3-2.85 5.15-4.22 6.48-.49.47-1.18.53-1.4.12-.23-.44-.3-.16-.27 1.13l.03 1.33.69.03c.39.02.74-.02.8-.08.13-.13.29-.13.21 0-.04.06.28.1.89.1.65 0 .96-.04.96-.11 0-.08-.14-.1-.4-.06-.23.03-.38.01-.34-.04.03-.05.14-.09.24-.09s.22-.04.25-.1c.03-.05.18-.07.33-.04.17.03.54-.04.96-.2.38-.14.77-.26.87-.26.12 0 .16-.05.13-.15-.04-.09 0-.15.1-.15.09 0 .16.08.16.2 0 .16.07.2.31.2.18 0 .28.04.24.1s-.28.1-.53.09c-.77-.03-1.14.09-1.06.34.06.19.05.2-.09.09-.13-.11-.24-.1-.64.02-.45.13-.36.14 1.7.13 1.76 0 2.17-.03 2.13-.14-.07-.18.11-.16.22.02.07.13.22.15.9.09.55-.05.79-.1.75-.18-.04-.06 0-.06.09.01.08.07.17.1.21.07.03-.03.15-.01.26.05.17.09.34.06.93-.19.79-.34 1.2-.35.48-.01l-.45.21h.85c.56 0 .95-.05 1.14-.15.15-.08.36-.15.45-.16.09 0 .01-.05-.16-.1-.53-.15-.38-.24.4-.25.75 0 1.17-.14 1.17-.4 0-.11-.12-.14-.52-.13-.29.01-.67-.01-.83-.05-.22-.05-.51.01-.99.19-.53.2-.78.24-1.12.19-.53-.08-.59-.26-.08-.21.36.04.91-.11 1.45-.38.21-.11.47-.13 1.03-.09.87.08 1.15.02.96-.21-.11-.13-.08-.15.19-.15.38 0 1.13-.4 1.06-.57-.05-.15.11-.27.2-.14.03.06.11.08.18.05.07-.02.19.07.27.21.1.19.21.25.46.25.43 0 .52.17.14.25-.32.07-.8-.15-.8-.36 0-.05-.27.05-.59.23-.33.18-.57.37-.53.42.03.05-.02.07-.11.03-.23-.09-.43.18-.2.28.1.05.22.07.27.06s.21.1.37.25l.28.27.41-.22c.49-.25.77-.2.91.16.09.26.42.25.64-.01.13-.15 1.45-.66 1.7-.66.18.01.19.02.03.13-.09.07-.19.29-.23.49-.05.28-.13.37-.31.41-.28.05-.33-.09-.06-.17.13-.04.28-.46.17-.46-.13 0-1.07.38-1.25.51-.47.33-.9.35-.9.04 0-.38-.22-.4-.84-.05-.31.18-.56.27-.56.21 0-.05.08-.15.18-.2.16-.1.16-.1 0-.11-.1 0-.26-.09-.36-.21l-.2-.2-.27.25-.28.26.24.09c.32.13.13.13-.33.01-.3-.09-.44-.08-.67.05-.17.08-.39.15-.51.15-.11 0-.2.05-.2.11 0 .16 5.92.08 5.98-.08.02-.07.08-.13.13-.13.06 0 .08.04.05.09-.13.2 1.27.27 3.16.14.72-.04.98-.1.98-.2 0-.07.05-.13.1-.13.06 0 .1.07.1.15 0 .13.12.15.68.11.93-.06 1.12-.13 1.19-.47.07-.38.53-.43.53-.06 0 .32-.24.62-.43.54-.09-.03-.18 0-.21.09-.03.08-.16.19-.28.24-.21.09-.2.1.05.05.21-.04.28-.02.25.07-.05.16-.68.24-.68.09 0-.07-.24-.11-.6-.11-.46 0-.6.03-.6.15 0 .23-.5.32-.65.11-.11-.14-.45-.16-3.26-.15-1.73.01-3.04.04-2.92.06.36.07.27.23-.12.23-.24 0-.35-.05-.35-.15 0-.08-.04-.15-.1-.15s-.1.06-.1.14-.07.17-.16.2c-.28.11-.54.06-.54-.09 0-.08-.07-.15-.15-.15s-.15.07-.15.15q0 .15-.3.15t-.3-.15c0-.08-.06-.15-.14-.15s-.16.07-.2.15c-.03.09-.18.15-.37.15-.24 0-.3-.04-.25-.15.03-.09 0-.15-.08-.15s-.16.07-.2.15c-.03.09-.18.15-.37.15-.24 0-.3-.04-.25-.15.05-.13-.4-.15-3.72-.13-2.07 0-3.62.03-3.44.05.45.06.43.33-.03.33-.24 0-.35-.05-.35-.15 0-.08-.04-.15-.1-.15-.05 0-.1.07-.1.15 0 .1-.11.15-.35.15s-.35-.05-.35-.15c0-.08-.07-.15-.15-.15-.09 0-.12.06-.09.15.05.12-.02.15-.3.15-.4 0-.49-.16-.13-.23.12-.02-.76-.05-1.96-.06-1.85-.01-2.18.01-2.23.14-.07.18-.3.2-.37.03-.03-.07-.06 0-.06.16l-.01.29 5.72-.06zM15.3 35.77c.01-.12-.02-.37-.06-.54-.06-.29-.04-.33.15-.33.12 0 .43-.11.69-.25.53-.28.87-.33.79-.11-.04.1.07.2.34.3.76.31.09.76-1.11.76-.15 0-.35.09-.45.2-.24.26-.35.25-.35-.03Zm22.1-.25c0-.06.21-.2.46-.31.29-.13.43-.25.38-.32-.05-.09.01-.1.19-.05.16.04.42 0 .63-.09.2-.08.57-.15.81-.15.36 0 .44-.03.4-.15-.08-.2.11-.29.29-.14.14.11.15.1.12-.11-.02-.19-.09-.25-.28-.26-.41-.02-.43-.03-.3-.19.15-.18.07-.19-.22-.04-.13.07-.24.07-.3.01-.07-.07 1.07-.72 1.28-.72.14 0-.01.21-.27.38l-.31.19.31.06c.31.07.5.87.21.87-.06 0-.24.1-.4.21-.18.14-.37.2-.51.16-.13-.03-.61.09-1.18.29-1.27.47-1.31.48-1.31.36Zm-3.38-1.34c.05-.15 1.36-.67 1.72-.68.2 0 .27-.04.23-.14-.03-.08.02-.16.14-.19.16-.04.17-.02.08.15-.23.43.69.41 1.27-.03.1-.08.34.08.34.23 0 .04-.13.08-.28.08s-.45.09-.67.2c-.43.22-.7.25-.8.1-.1-.16-.45-.12-1.2.15-.8.28-.88.29-.83.13Zm-17.92-.37c0-.05.03-.16.06-.25.05-.13-.01-.16-.27-.16-.32-.01-.33-.01-.15-.15.11-.08.28-.15.38-.15s.18-.02.18-.04.03-.11.06-.2c.04-.12 0-.16-.16-.16-.12 0-.18-.04-.15-.1.04-.06.1-.08.15-.05s.14-.04.2-.16c.14-.25-.04-.22-.78.13-.4.19-.6.57-.29.59q.15 0 0 .06c-.18.07-.16.3.02.37.08.03.15.12.15.21q0 .15.3.15c.17 0 .3-.04.3-.09Zm2.39-3.49c.55-.92.57-1.21.11-1.44l-.35-.18-.23.47c-.23.45-1.13 3.06-1.26 3.68-.07.3.83-1.01 1.73-2.53Zm9.13 2.17c.1-.05.18-.17.18-.24 0-.16-.25-.2-.34-.06s-1.86.25-1.99.12c-.06-.06-.22-.11-.36-.11-.25-.01-.25-.01-.06-.16.11-.08.25-.12.32-.1.07.03.15.01.18-.04.09-.15.25-.12.25.05s.15.18.84.09c.34-.05.46-.11.42-.2-.03-.08.01-.14.09-.14s.15.05.15.1c0 .15.4.12.4-.02.01-.07.1-.02.2.11.24.28 1.1.24 1.1-.06 0-.12.03-.13.15-.03.41.34.86.48 1.21.38.28-.07.41-.06.6.07.41.26.26.49-.15.23-.14-.09-.29-.09-.54-.01-.19.06-.41.07-.48.02a.54.54 0 0 0-.36-.02c-.17.04-.23.01-.23-.11 0-.09-.06-.16-.14-.16-.2 0-.29.17-.14.23.07.03-.15.02-.48 0-.4-.04-.64-.02-.68.06a.27.27 0 0 1-.19.11c-.07 0-.04-.05.05-.11Zm-11.07-.92c-.01-.15.02-.27.06-.27s.09-.08.12-.19c.03-.14 0-.17-.14-.14-.27.07-.24-.16.03-.26.16-.06.27-.24.37-.57.08-.27.16-.55.19-.62.03-.09-.02-.11-.2-.07-.19.05-.27.01-.36-.19-.06-.14-.08-.26-.03-.26s.11.07.15.15c.14.37.66.02.66-.46 0-.1-.63-.12-.74-.02-.04.04-.26.06-.49.05-.49-.03-.73.09-.64.32.05.12.16.15.44.12.21-.02.29-.01.18.01-.11.03-.25.09-.31.14s-.19.06-.29.03c-.14-.06-.16-.02-.13.19.01.14-.01.25-.07.24-.05-.01-.09-.08-.07-.15.02-.06-.02-.12-.08-.12-.05 0-.1.16-.1.35 0 .4 0 .4.58.18.42-.16.43-.16.58.06.11.16.22.2.37.15.21-.06.21-.05-.01.11s-.24.16-.42 0c-.41-.37-1 .04-1 .7v.33l.42-.15c.42-.14.74-.11.63.07-.03.05-.13.1-.21.1-.45 0-.81.27-.76.58l.04.31.62-.22c.55-.2.61-.25.61-.5Zm6.37.22c.05-.14.12-.18.88-.52.49-.22.81-.26 1.47-.18.07 0 .1.08.06.18-.05.13-.03.15.13.09.29-.12 1.53-.3 1.6-.24.13.13-.37.5-.51.38-.1-.09-.28-.08-.72.03-.32.09-.59.12-.61.08-.18-.51-.32-.5-1.8.08-.35.14-.52.17-.5.1Zm-2.84-.83c-.17-.23-.17-.25.07-.4.24-.16.25-.16.25.09 0 .15.03.24.08.22.1-.07 1.85-.37 2.2-.38.2-.01.22-.03.07-.06-.46-.1-.5-.15-.2-.24.25-.07.34-.05.54.15.31.32.2.46-.37.46-.42 0-1.72.2-2.27.35-.14.03-.25-.03-.37-.19Zm19.93-.14c-.06-.12-.3-.24-.58-.31-.26-.07-.56-.19-.65-.28-.15-.14-.24-.13-.85.11-.37.14-.83.29-1.02.32-.55.11-.29-.11.44-.38.36-.12.65-.27.65-.31s.04-.06.09-.03c.05.04.21.02.34-.03.17-.07.27-.07.29 0 .07.2 1.33.47 1.46.32.22-.23.39-.15.4.18.01.28-.01.29-.12.14-.07-.11-.18-.15-.25-.11-.09.06-.09.11 0 .22s.09.18.02.25c-.08.08-.14.05-.22-.09Zm-13.66-.92c-.03-.06-.35-.1-.71-.1-.38 0-.63-.04-.59-.09.03-.06-.14-.11-.37-.13-.43-.03-.61-.25-.29-.36.08-.03.11 0 .08.05-.07.12 1 .1 1.11-.02.11-.11-.39-.46-.62-.43-.12.01-.3-.03-.41-.09-.28-.15-1.35-.27-1.35-.15 0 .05-.12.13-.27.17-.32.08-.75-.27-.56-.46.08-.08.13-.05.18.1.07.23.21.26.45.11.1-.06.11-.1.03-.1-.3 0-.12-.4.28-.6.54-.28.72-.2.23.1l-.39.25.33.03c.17.02.32.08.32.14s.13.08.35.04c.19-.04.35-.03.35.02s.19.12.42.15c.24.03.44.11.46.17.03.07.21.08.51.04.38-.05.49-.03.54.09.04.11.01.14-.07.11-.07-.03-.32.11-.55.31l-.43.35h.47c.57 0 1.37.19 1.29.31-.07.12-.71.11-.79-.01Zm11.06-.37c-.25-.2-.4-.24-.66-.2-.2.03-.37.01-.41-.05s-.25-.08-.51-.05c-.42.04-.45.03-.55-.25-.08-.21-.16-.28-.29-.25-.12.03-.16 0-.12-.1.07-.17-.63-.13-1.74.08-.29.06-.61.1-.7.09-.32-.04-.44 0-.38.1.03.05-.07.12-.22.16s-.59.15-.98.25c-.38.1-.71.16-.73.14-.11-.11.15-.25.75-.4.38-.1.72-.22.77-.27.17-.14-.49-.09-1.29.11-.55.14-.84.17-.97.1-.3-.16-.21-.26.24-.26.24 0 .71-.08 1.06-.17.62-.16 1.1-.13 1.24.07.04.07.11.07.21-.01.07-.07.16-.1.19-.07.02.03.39-.02.82-.1 1.4-.27 2-.22 2.26.2.24.38.14.36 1.4.35.33-.01.47.06.76.34.42.41.32.55-.15.19ZM21.14 26.4c.46-1.02 1.3-2.82 1.86-4 2.23-4.71 2.54-5.43 2.33-5.57-.32-.24-.42-.1-1.27 1.77-.46 1.02-1.61 3.49-2.56 5.5s-1.83 3.89-1.95 4.17l-.24.53.27.2.26.21.23-.48c.13-.26.61-1.31 1.07-2.33Zm17.7 2.55c.13-.35-.66-.66-1.63-.63-.74.02-.91-.01-1.07-.16-.18-.18-.17-.18.02-.12.22.07 1.9-.08 2.19-.2.18-.07.18-.06.06.09-.09.12-.1.17-.02.17.07 0 .1.04.06.09-.03.05.03.12.14.16.1.03.26.14.36.25.19.21.85.28.85.1 0-.06.07-.1.15-.1.22 0 .18.17-.07.34-.3.22-1.12.22-1.04.01ZM20.29 26c.65-1.4 1.42-3.04 1.71-3.65.29-.6 1.01-2.16 1.61-3.45l1.07-2.35-.3-.15c-.36-.17-.27-.3-1.14 1.6-.37.8-1.07 2.31-1.57 3.35-.49 1.04-1.24 2.67-1.67 3.6-.42.94-.96 2.07-1.19 2.52-.48.97-.47.91-.19 1.03.41.16.48.07 1.67-2.5Zm-1.93 1.79c.14-.28.76-1.62 1.39-2.98.62-1.35 1.41-3.04 1.75-3.76 1.5-3.13 2.29-4.95 2.16-4.95-.02 0-.11-.03-.2-.06s-.16-.01-.16.05c0 .14-2.74 6.19-5.08 11.23-.22.48-.37.89-.34.92.13.13.23.03.48-.45Zm-2.34-.41c.37-.09.53-.08.71.01.34.18.99.1 1.14-.14.16-.27.16-.38-.01-.32-.31.12-.58-.61-.31-.83.08-.07.15-.2.15-.3s.07-.2.15-.24c.08-.03.15-.1.15-.16 0-.07-.06-.07-.21 0-.28.15-.38.04-.13-.15.28-.22.65-.37.81-.31.14.06.19.27.06.25-.35-.06-.38.05-.17.55.06.16.04.18-.17.13-.45-.11-.75.61-.32.78.22.08.26.03.78-1.03.49-1.03.52-1.12.3-1.12-.08 0-.15.06-.15.12 0 .08-.17.14-.48.15-.43.02-.45.01-.28-.12.11-.08.28-.15.37-.15.1 0 .19-.05.21-.11q.03-.105.3 0c.21.08.27.07.33-.07.15-.39-.76-.5-1.18-.14-.15.13-.21.13-.42.02-.19-.1-.22-.16-.13-.22.08-.05.18-.01.26.09.11.15.12.15.12 0 0-.09.08-.2.17-.26.18-.1.08-.14-.52-.23-.17-.03-.45-.42-.58-.83-.02-.06-.18-.05-.42.03-.55.16-.71-.02-.21-.23.49-.21.81-.16.82.1.01.24.21.65.32.66.04 0 .19.02.34.03s.36.1.47.2c.14.13.28.16.46.12.17-.04.31-.01.41.09.09.08.2.13.25.1.16-.1.6-1.17.55-1.32-.03-.08-.02-.12.03-.09.04.03.18-.17.31-.44.26-.55.13-.9-.34-.9-.18-.01-.17-.03.08-.17.28-.14.3-.14.46.06.16.22.16.22.38-.27.26-.57.27-.63.07-.56-.08.04-.15.01-.15-.05s.09-.11.2-.11.2-.05.2-.11.07-.17.16-.26c.08-.09.13-.22.1-.3s-.02-.12.03-.09.12-.01.15-.1c.1-.26.07-.34-.11-.28-.11.04-.08-.03.09-.18.34-.29.35-.38.03-.38-.26 0-.45-.25-.45-.59 0-.25-.26-.33-.7-.21-.19.06-.48.1-.65.1-.54-.01-.02-.21.67-.26s.73-.07.82-.46c.07-.32-.03-.35-.64-.19-.8.21-1.03.22-.9.06.07-.08.31-.19.54-.25 1.33-.33 1.27-.3 1.47-.79.11-.25.26-.59.35-.75l.17-.29-.28.07c-.2.05-.26.03-.22-.06.02-.07.14-.12.25-.11.22.03.53-.33.72-.81l.1-.26-.3.15c-.37.19-.57.19-.68-.01-.06-.11-.17-.15-.3-.12-.18.05-.19.03-.09-.13.12-.19.27-.25.27-.11 0 .19.5.3.85.18.44-.16.53-.25.35-.37-.12-.07-.11-.1.06-.15.12-.03.33-.27.48-.54.31-.57.31-.6.06-.53-.11.03-.2.01-.2-.05s.13-.13.29-.17c.46-.1.72-.55.32-.55-.25 0-.29.03-.24.18.06.16.05.16-.14-.01-.24-.21-.34-.22-.27-.02.1.26-.25.3-.48.05-.19-.2-.26-.21-1.07-.16-.47.04-1.12.06-1.44.06-.45-.01-.62.03-.74.17-.13.16-.14.17-.09.01.07-.24-.5-.25-.76-.01-.17.15-.18.15-.18 0 0-.27-1.5-.24-1.75.03-.21.23-.11.25.25.05.34-.19 1.36-.2 1.43-.01.08.2-.03.27-.24.16-.22-.13-1.57.08-1.8.27-.26.22-.45.16-.24-.07.1-.11.15-.23.11-.27s.04-.13.16-.2c.2-.12.17-.13-.32-.07-.8.1-1.15.38-.88.71.1.12.09.17-.05.24-.18.1-.24.39-.08.39.04 0 .2-.09.35-.21.21-.17.3-.18.41-.09.08.07.23.09.36.05.15-.05.19-.04.14.04s.01.1.19.05c.14-.03.37-.07.51-.08.14 0 .25-.04.25-.07 0-.11.33-.21.85-.25.35-.02.45-.01.35.06-.08.05-.23.1-.32.1-.18 0-.26.39-.11.54.04.03.08.16.1.29.03.17.01.19-.09.09-.06-.06-.29-.12-.5-.12-.42 0-.51-.15-.14-.24.29-.07.43-.36.17-.36-.39 0-.94.35-.77.49.2.17.2.31.01.31-.08 0-.15-.07-.15-.16s-.14-.21-.3-.27-.3-.15-.3-.19c0-.14-.35-.08-.67.12-.39.23-.46.55-.1.45.24-.08.25-.08.47-.06.08.01-.02.11-.23.22-.51.27-.4.35.17.16.9-.31.57.07-.37.42-.22.09-.27.15-.22.31.04.11.02.2-.04.2s-.11.07-.11.15c0 .19-.01.19.66-.1.45-.2.54-.28.45-.38-.16-.2-.01-.3.19-.12.15.13.23.12.8-.1.42-.17.67-.22.74-.15.13.13.13.13-.69.43-.65.24-1.97.77-2.02.82-.02.01-.06.32-.09.69l-.06.67.39-.06c.64-.11 1.12-.25 1.18-.34.03-.05.23-.12.45-.16s.4-.11.4-.17c0-.05.09-.07.19-.03.11.03.29 0 .4-.07.16-.1.23-.1.33 0 .14.14-.3.35-.97.47-.22.04-.53.15-.7.23-.16.09-.59.21-.95.27-.72.11-1.04.57-.48.68l.23.04-.22.08c-.19.06-.23.15-.23.46v.39l.52-.22c.29-.12.68-.22.86-.22.2 0 .32-.04.32-.13 0-.07.05-.13.11-.13.44 0-.08.37-.88.63l-.93.29v.42c0 .3.03.37.1.26.05-.08.1-.12.1-.08 0 .07.73-.2 1.68-.63.48-.21.62-.23.62-.09 0 .06-.05.1-.11.1s-.52.2-1.03.44-1.02.47-1.14.5c-.31.1-.27.65.05.77.14.05.23.17.23.29 0 .11.07.2.15.2s.15-.04.15-.09c0-.15.43-.21.58-.08.12.1.1.14-.14.24-.37.15-.71.16-.76.02-.06-.19-.38.2-.38.47 0 .36.01.39.11.36.14-.03.11.08-.06.25-.27.27-.08.26.5-.02.31-.14.59-.24.62-.21.04.03-.1.13-.3.21-.21.08-.37.21-.37.29s-.11.17-.25.2c-.38.1-.33.38.06.31.19-.04.28-.02.24.05-.03.05-.15.1-.26.1-.1 0-.19.02-.19.04s-.03.11-.06.19c-.04.11.02.17.23.19l.28.04-.27.14c-.41.2-.38.5.05.43.24-.04.37 0 .51.16.11.12.27.21.38.21.25 0 .23.16-.03.23-.13.04-.26-.01-.37-.14-.18-.21-.43-.24-.73-.09-.3.17-.23.33.11.27.42-.09.45.06.04.28-.26.14-.34.24-.33.44 0 .25.01.25.09.04.05-.13.29-.29.65-.42.68-.26.64-.25.9-.01.17.16.27.18.53.11.43-.13.51.04.12.24-.29.15-.32.15-.57-.05-.32-.25-.43-.25-1.04.01-.46.2-.7.47-.31.36 1.1-.32 1.12-.32 1.29-.14.1.09.13.17.08.18-.64.04-.86.09-1.2.22-.39.15-.4.15-.47-.06-.04-.15-.06-.06-.07.25-.01.41.01.47.17.41s.16-.05 0 .14c-.3.33-.2.58.12.31.08-.07.07-.04-.03.08-.26.32-.24.63.03.39.16-.15.2-.15.2-.03 0 .19-.34.5-.45.41-.04-.05-.05-.02-.01.05.05.08.15.11.25.07.09-.04.37-.11.63-.17Zm19.23-2.04c.27-.28.28-.28.22-.05l-.06.24 1.17-.06c.64-.04 1.78-.16 2.52-.27s1.54-.2 1.77-.2c.28 0 .42-.04.4-.12-.01-.06.07-.14.17-.16.14-.03.17 0 .13.12-.09.23.2.2.33-.03.26-.5.07-2.85-.23-2.75-.13.04-.17.02-.13-.05.04-.06.14-.11.23-.11.12 0 .14-.07.08-.37-.04-.21-.07-.59-.06-.85.01-.33-.02-.48-.11-.48-.08 0-.09-.03-.02-.1.26-.26.04-.89-.3-.84-.29.05-.3.05-.12-.1.11-.09.26-.16.34-.16.09 0 .11-.07.07-.22-.1-.34-.22-.43-.38-.3-.15.12-1.83.27-4.27.38-1.05.04-1.62.11-1.77.2-.29.18-.39.18-.22-.02.11-.14.05-.15-.57-.08-.38.03-.78.06-.89.05-.39-.03-1.85.21-1.85.3 0 .05-.07.09-.15.09-.23 0-1.07.81-1.01.97.03.07 0 .13-.07.14-.27.01.31.18.68.19.38.01.39.02.15.12-.23.11-.21.12.3.17.3.04.6.1.67.14.06.04.23.03.36-.02.17-.07.35-.06.56.02.23.08.34.08.42 0 .09-.09.07-.11-.1-.06-.27.07-.28-.13-.01-.27.11-.06.18-.15.15-.2-.06-.09-.56.02-.93.22-.17.09-.25.09-.34 0-.17-.17-.05-.25.78-.55.76-.27.95-.26.67.05-.15.17-.15.18.08.18.42.01.69.28.45.46-.25.18-.22.2.41.27.41.05.52.03.57-.1.05-.12.16-.14.54-.09.35.04.53.02.7-.1.2-.14.23-.14.28 0 .05.12.18.15.48.14.35-.03.41 0 .41.17 0 .11.07.21.17.23.22.04.34-.16.14-.24-.3-.12-.12-.64.22-.64.09 0 .11.07.07.21-.06.18-.05.19.13.1.42-.23.52.19.14.54l-.27.25h.28c.51 0 .23.25-.34.3-.3.03-.77.18-1.06.33s-.64.27-.78.27-.34.09-.45.2c-.38.38-.98.12-.72-.31.1-.16.09-.19-.07-.19-.28 0-.35-.17-.12-.29.37-.2.91-.14 1 .11.08.2.1.21.16.06.04-.1.11-.18.17-.18.05 0 .06.05.03.1-.09.15.33.12.7-.06.34-.16.5-.38.39-.55-.14-.23-2.54-.1-2.64.13-.05.13-.09.17-.09.11-.01-.16-.31-.17-.31-.02 0 .08-.04.08-.12.02-.14-.11-1.75-.24-1.95-.16-.07.03-.13.18-.13.34s-.05.29-.11.29-.08.09-.03.22c.06.2.05.21-.09.09-.09-.07-.15-.17-.12-.21.06-.09-.8-.21-1-.14-.08.04-.15.01-.15-.05s-.16-.11-.35-.11c-.28 0-.35.04-.35.2 0 .11.04.2.1.2.05 0 .07.07.04.15-.04.09 0 .16.07.16.08.01.25.03.39.05 2.07.3 3.14.14 3.23-.46.05-.33.21-.35.41-.05.16.25.16.27-.06.45l-.23.19.39-.09c.47-.1.68-.04.61.2-.05.14.04.18.57.24.35.04.88.11 1.18.15.41.06.62.05.82-.06.33-.16.36-.33.07-.33-.18 0-.19-.02-.09-.15.14-.17.66-.2.75-.05.08.13-.19.51-.47.67-.21.11-.17.12.35.13.6 0 .74-.14.41-.4-.25-.21-.15-.85.14-.86.29-.02.3-.03.34-.39.05-.45.55-.71 1.56-.77.67-.05.8-.04.75.08-.06.17.06.14-.85.23-.63.07-1.46.41-.99.41.22 0 .1.28-.14.34-.14.04-.25.12-.25.2 0 .07-.07.2-.16.27-.15.12-.13.14.17.21.42.08.52.02.38-.24s.1-.48.52-.48c.39 0 .48.34.18.66l-.22.24h.26c.33 0 .43.16.18.29-.28.15-.56.14-.71-.04-.18-.22-.39-.18-.5.09-.05.13-.15.27-.22.3-.17.08.65-.02.89-.11.17-.07.17-.06.01.17-.09.14-.24.24-.34.23-.11-.01-.41.03-.68.08s-.52.06-.55.01c-.06-.08-1.72-.42-2.06-.42-.09 0-.35.18-.57.4-.39.39-.68.51-.68.3 0-.06.15-.26.34-.45l.34-.33-.25-.07c-.31-.07-.42 0-.36.24.04.15-.03.19-.35.25-.33.05-.39.09-.35.25.03.12-.02.2-.14.23-.1.03-.26.09-.37.13-.14.06-.17.04-.14-.06.03-.08-.02-.19-.11-.26-.14-.11-.14-.14.07-.28.24-.17.21-.37-.05-.33a.18.18 0 0 1-.21-.11c-.03-.1 0-.12.12-.08.17.07.2-.01.08-.19-.06-.1-3.42-.28-3.42-.18 0 .35.52.74 1.01.74.15 0 .3.04.34.09.03.06.19.04.4-.05.19-.08.4-.14.46-.14.16 0-.19.38-.41.45a.42.42 0 0 0-.24.21c-.04.12-.02.15.09.1.08-.03.15-.01.15.04 0 .17 1.11.22 2.37.11.71-.06 1.64-.13 2.08-.16.44-.04 1.41-.13 2.15-.2 2.19-.23 3.08-.2 2.78.1-.04.04-1.66.22-2.28.25-.08.01-.6.05-1.15.11-3.14.29-4.95.38-5.8.28-.65-.08-.89-.08-1 .01-.12.1-.18.06-.3-.21-.08-.19-.15-.3-.15-.24s-.05.03-.1-.07c-.07-.11-.17-.14-.32-.1-.21.05-.22.04-.09-.11.1-.13.11-.2.02-.3-.06-.08-.08-.16-.05-.2.03-.03-.04-.1-.15-.17-.12-.06-.2-.18-.19-.27.02-.11-.06-.19-.22-.24-.16-.04-.19-.07-.08-.08.2-.01.25-.31.06-.32q-.15 0 0-.06c.17-.07.15-.38-.04-.57-.08-.09-.11-.16-.06-.16.13 0 .22-.52.12-.7-.05-.09-.03-.21.05-.31.08-.08.16-.24.18-.35.04-.27.44-.91.62-.98.08-.03.14-.11.13-.17-.04-.15.7-.59.99-.59.12 0 .25-.04.28-.1.03-.05.26-.1.49-.1.56 0 1.06-.1 1.06-.21 0-.36-2.37.19-2.98.68-1.87 1.52-1.73 4.72.25 5.94.94.57 1.04.59 2.69.56l1.52-.04zm-17.89-2.63c-.04-.05.07-.12.24-.16.35-.08 1.3-.52 1.3-.61 0-.04-.2-.04-.45-.01-.35.05-.45.04-.45-.08 0-.08-.08-.18-.18-.24-.16-.09-.16-.1.02-.17.13-.05.23-.02.31.1.14.18.47.12.39-.08-.03-.09.1-.12.46-.13.39-.01.75.14.43.18-.48.04-.82.19-.45.19.26 0 .28.17.05.42-.15.17-.14.18.18.18.32.01.33.01.15.15-.13.1-.23.12-.3.05-.15-.15-.48-.12-.91.1-.42.22-.7.25-.79.11Zm17.4-1.79c-.06-.1.32-.46.51-.48.41-.03.46-.05.39-.11-.04-.05-.38-.1-.74-.13-.67-.05-.67-.05-.67-.35 0-.22.05-.31.2-.34.16-.03.17-.01.07.12-.13.15-.07.16 2.13.32.68.05.69.05.37-.09-.18-.08-.35-.22-.38-.31-.03-.08-.09-.13-.13-.11-.12.08-.34-.11-.27-.23.13-.2.66-.13.75.11.06.18.09.19.14.05.08-.22.35-.22 1.9.02 1.54.24 2.13.51 1.4.63-.16.03-.36.09-.47.13-.16.07-.17.05-.08-.12.11-.19.07-.21-.68-.3-.44-.05-.8-.06-.8-.02s-.09.11-.2.14c-.39.12-.19.21.96.39.98.16 1.17.17 1.25.05.08-.14.49-.22.49-.1 0 .13-.51.61-.65.61-.08 0-.15.04-.15.1s-.04.1-.1.1c-.05 0-.07-.06-.04-.13.09-.26-1.85-.49-2.18-.26-.35.25-.6.24-.28-.01l.25-.2h-.51c-.34 0-.56.05-.64.15-.13.16-.4.21-.4.07 0-.04.05-.13.12-.2.09-.09.09-.12-.03-.12-.09 0-.24.09-.34.2s-.32.24-.49.29-.38.12-.47.16c-.1.03-.2.02-.23-.03Zm-2.44-.82c.1-.15.1-.22 0-.32-.37-.37.39-.65 1.32-.49.04.01.14-.04.22-.1.08-.07.17-.09.21-.06.03.04-.02.09-.11.13-.12.05-.14.1-.06.19.15.18-.36.53-1.03.71s-.69.18-.55-.06Zm4.63-1.66c.94-.04 1.81-.07 1.95-.06s.32-.02.4-.05.27-.05.43-.04c.15.02.27-.03.27-.09 0-.1-2.9-.07-4.73.05-.15.01-.58.02-.97.03-.58.02-.68.05-.63.17.04.13.19.15.82.11.42-.03 1.53-.08 2.46-.12ZM15.6 17.3c0-.14.05-.15 1.29-.34 1.16-.18 1.19-.19 1.01-.41-.18-.21-.06-.29.2-.13.18.11.23.11.35-.05.13-.18.14-.17.3.07.14.2.21.24.35.16.23-.12.4-.13.4-.02 0 .21-.74.32-.93.15-.18-.17-.27-.13-.39.19-.09.22-2.58.58-2.58.38Zm10.98-2.22c1.11-2.55 1.82-4.63 1.88-5.53.03-.42.01-.52-.05-.35-.11.34-2.37 5.43-2.67 6.02l-.24.47.27.15c.16.08.31.15.34.16.04 0 .25-.42.47-.92Zm.37-3.24c.84-1.87 1.35-3.17 1.35-3.41 0-.02-.11-.03-.24-.03-.49 0-2.04 2.18-3.54 4.97-.88 1.63-.92 1.73-.63 1.73.21 0 .36-.26 1.91-3.2 1.35-2.55 1.44-2.7 1.58-2.7.22 0 .25-.06-2.34 4.73-.76 1.41-.75 1.32-.21 1.5l.42.15.33-.72c.19-.39.8-1.75 1.37-3.02ZM16.8 15.03c0-.05.38-.22.85-.37.73-.24.85-.31.8-.47-.07-.2.05-.25.21-.09.1.1.54.03.54-.09 0-.26-.47-.5-.8-.41-.44.13-.66-.05-.26-.2.63-.24 1.53-.37 1.7-.24.21.15.02.24-.5.24-.41 0-.42.09-.09.4.36.34.34.71-.03.64-.2-.04-.49.03-.94.25-.69.32-1.48.5-1.48.34Zm13.6-.11c0-.05.12-.14.26-.21.35-.16.15-.41-.32-.41-.19 0-.34-.04-.34-.1 0-.26.79-.1 1.02.2.21.29.48.4.48.21 0-.05.14-.12.3-.16s.3-.1.3-.14c0-.17 1.02-.52 1.16-.4.11.09.2.07.39-.05.13-.09.32-.16.4-.16.27 0 .11.23-.22.34-.36.13-.59.32-.26.22.16-.05.25-.02.33.14.08.15.17.19.31.15.25-.08.24.07-.02.23-.18.12-.23.11-.36-.08-.08-.11-.23-.2-.33-.18s-.28-.06-.39-.17c-.22-.19-.22-.19-.85.13-.35.18-.7.32-.78.32s-.18.03-.21.06c-.1.1-.87.15-.87.06Zm-19.18-3.26.03-1.45-.3.06c-1.16.22-2.23 1.64-2.06 2.76.01.04.53.07 1.15.07h1.15zm25.09-.79c-.01-.15-.08-.18-.38-.16-.8.05-1.23 0-1.23-.16 0-.08.05-.15.11-.15.05 0 .07-.04.04-.1-.04-.06.08-.1.29-.1.19 0 .37.06.39.13.04.09.08.09.15-.01.12-.18.78-.22.75-.04-.02.06.04.12.12.12s.14-.06.13-.12c-.02-.09.09-.13.32-.13s.34.04.33.13c-.02.06.04.12.12.12s.14-.06.13-.12c-.02-.09.1-.13.37-.13.31 0 .41.04.43.19.06.3-.09.35-1.05.37-.75.02-.93.05-.96.18-.04.13-.05.12-.06-.02Z"/></svg>