<svg xmlns="http://www.w3.org/2000/svg" width="51" height="51" viewBox="0 0 51 51"><path fill="#fff" fill-rule="evenodd" stroke="#fff" stroke-width=".72" d="M18.6 44c-6.19-.36-9.75-3.38-10.49-8.9-.38-2.76-.34-14.92.04-17.4.74-4.73 3.39-7.51 7.99-8.39 1.04-.2 3.22-.4 4.83-.44l.92-.02-1.04-1.14c-1.43-1.56-1.63-2.17-1.01-3.11.46-.7 1.54-.93 2.28-.47.34.2 1.19 1.08 2.74 2.8l.6.68 1.48-1.58c1.87-2 2.1-2.16 2.93-2.11.75.05 1.09.26 1.41.88.45.89.25 1.38-1.17 2.95l-.99 1.1.61.02c1.91.07 4.28.26 5.09.39 4.54.77 7.26 3.65 8.04 8.54.35 2.12.34 15.32 0 17.54-.77 4.93-3.76 7.84-8.81 8.57-.95.14-13.38.21-15.45.09Zm16.1-.44c4.43-.89 7.11-3.57 7.85-7.85.49-2.77.48-15.75 0-18.3-.8-4.17-2.99-6.69-6.67-7.66-1.39-.36-2.4-.47-4.87-.54-1.44-.04-2.26-.1-2.28-.17-.02-.05.35-.53.83-1.05 1.48-1.61 1.56-1.74 1.62-2.31.09-.95-.65-1.68-1.59-1.55-.58.08-.73.2-2.46 2.07-.87.94-1.61 1.7-1.65 1.7s-.24-.19-.45-.42c-2.14-2.37-2.96-3.18-3.34-3.28-1.14-.31-2.18.66-1.88 1.75.06.2.45.74.97 1.31 1.3 1.45 1.55 1.75 1.51 1.78-.02.01-1.07.08-2.34.14-4.71.23-6.95.96-8.89 2.89-1.91 1.89-2.61 3.86-2.87 8.03-.14 2.2-.06 12.78.11 14.4.58 5.64 3.66 8.57 9.7 9.24 1.26.13 15.9-.02 16.7-.18ZM19.44 40.8c-3.31-.16-4.78-.65-6.2-2.05-1.19-1.19-1.65-2.42-1.85-5.05-.14-1.93-.06-14.18.1-15.35.54-3.72 2.26-5.43 5.96-5.95 2.47-.35 15.31-.2 17.22.19 3.07.64 4.77 2.73 5.14 6.36.17 1.55.16 13.29 0 14.93-.43 4.34-2.17 6.24-6.26 6.83-.95.14-11.67.21-14.11.09Zm13.66-.31c4.36-.41 6.15-2.39 6.5-7.16.12-1.71.13-11.66 0-13.63-.29-4.77-2.11-6.69-6.75-7.11-1.78-.16-13.07-.16-14.76 0-3.79.35-5.61 1.85-6.24 5.12-.34 1.81-.44 13.71-.14 16.74.33 3.35 1.98 5.22 5.19 5.86 1.78.35 13.03.48 16.2.18Zm-8.39-10.07c-.6-.3-.71-.67-.71-2.29 0-1.01-.03-1.43-.12-1.43-.12 0-1.58.4-4.83 1.31-1.16.33-2.3.59-2.55.59-1.26 0-1.98-1.26-1.37-2.41.38-.73-.03-.58 8.62-3.05 3.27-.93 3.55-.78 3.65 1.87l.05 1.46 2.9-.83c4.44-1.27 4.67-1.3 5.34-.62.68.69.67 1.65-.02 2.36-.36.38-.23.33-6.21 2.06-4.32 1.26-4.25 1.24-4.75.98Zm1.94-.41 3.05-.89c1.13-.33 2.77-.81 3.64-1.07.87-.25 1.72-.53 1.88-.61.88-.46.91-1.92.05-2.44-.55-.34-.5-.35-4.99.92-1.58.44-2.94.78-3.03.74-.12-.04-.15-.3-.15-1.52 0-1.99-.27-2.48-1.25-2.3-.53.1-8.11 2.25-9.42 2.67-1.31.43-1.74 1.76-.82 2.53.52.44.85.43 2.53-.04 5.21-1.45 5.79-1.6 5.93-1.49.1.09.13.46.13 1.46 0 2.36.34 2.65 2.45 2.04Z"/></svg>