<svg xmlns="http://www.w3.org/2000/svg" width="51" height="51" viewBox="0 0 51 51"><path fill="#fff" fill-rule="evenodd" stroke="#fff" stroke-width=".431" d="M34.95 46.5c-1.68-.26-2.49-1.32-2.5-3.25 0-1.86.77-2.83 2.52-3.15 1.57-.28 3.23.61 3.23 1.74 0 .22-1.23.4-1.35.19-.33-.57-.62-.73-1.28-.73-1.16 0-1.72.61-1.72 1.9.01 1.67 1.18 2.53 2.65 1.94.37-.15.4-.19.4-.55v-.39h-1.4V43h2.8v2.69l-.43.25c-.88.52-1.93.72-2.92.56Zm-21.33-.07-.82-.04V40.2h1.88c1.75 0 1.91.02 2.32.23.92.46 1.18 1.5.57 2.3l-.27.35.39.39c.6.6.67 1.42.18 2.13-.57.85-1.12.95-4.25.83Zm16.7-.06c-.05-.07-.35-.57-.67-1.12s-.67-1.13-.78-1.28l-.2-.29-.48.48-.49.48v1.76h-1.4v-6.2h1.4v1.28l.01 1.27 1.22-1.28 1.22-1.28.88.01c.48 0 .87.03.87.08 0 .04-.49.57-1.1 1.17-.6.6-1.1 1.13-1.1 1.17 0 .03.53.88 1.18 1.88.64 1.01 1.17 1.85 1.17 1.89 0 .12-1.64.1-1.73-.02Zm-11.26-.73c-.03-.42-.03-1.82.01-3.1l.06-2.34h2.03l.5 1.84c.3 1.13.52 1.79.57 1.7.04-.07.21-.66.38-1.31s.37-1.42.45-1.7l.15-.53h1.99v6.2h-1.3l-.02-1.96-.03-1.96-.5 1.94-.51 1.93-.66.03-.67.03-.1-.38c-.05-.21-.26-1.03-.47-1.83-.51-2.01-.53-2.01-.54.23v1.97h-1.27zm18.32.25.67-.34.03-1.17.03-1.18H35.8v.8h1.4v.45c0 1-1.59 1.51-2.67.85-1.03-.62-1.26-2.82-.39-3.75.71-.75 2.34-.69 2.77.11.12.23.17.25.53.19.53-.08.54-.1.3-.53-.7-1.22-3.01-1.37-4.22-.27-1.55 1.39-.97 4.57.92 5.06.23.05.46.12.51.14.38.17 1.8-.05 2.43-.36Zm-20.18.06c.94-.55.93-2.12-.02-2.61-.18-.09-.34-.18-.36-.19-.01-.01.15-.2.37-.42.5-.5.61-.97.34-1.5-.35-.66-.72-.77-2.7-.81l-1.73-.04v5.84l1.88-.04c1.66-.03 1.91-.05 2.22-.23Zm2.98-2.1c.03-3.2.13-3.21.92-.08.27 1.09.53 2.08.56 2.21.06.2.12.23.52.2l.46-.03.46-1.8c.98-3.75 1-3.77 1-.55v2.4h.9v-5.8h-1.59l-.1.38c-.81 3.11-1.02 3.82-1.12 3.82-.09 0-.18-.28-.8-2.57l-.44-1.63H19.3v5.81l.43-.03.42-.03zm7.29 1.49v-.85l.59-.6c.32-.32.61-.59.64-.59s.46.65.94 1.45l.88 1.45h1.17l-1.15-1.76c-.63-.97-1.14-1.8-1.12-1.84.02-.05.47-.56 1.01-1.14l.98-1.06h-1.09l-1.35 1.41c-.75.77-1.41 1.38-1.47 1.34s-.1-.58-.1-1.41V40.4h-.93l.06 2.63c.04 1.44.07 2.74.07 2.9 0 .25.03.27.44.27h.43zm-13.35.18c-.09-.06-.12-.35-.1-1.03l.03-.94h1.1c1.23 0 1.57.12 1.76.63.16.42-.05.98-.43 1.18-.35.18-2.15.31-2.36.16Zm2.37-.46c.25-.22.28-.73.07-1.02-.12-.16-.29-.19-1.2-.22l-1.06-.04v1.54l.99-.04c.8-.02 1.03-.07 1.2-.22ZM14 41.99v-.91l1.16.04c1.34.04 1.73.26 1.6.91s-.59.87-1.86.87H14zm1.71.61c.61-.12.81-.31.77-.75-.04-.38-.44-.54-1.45-.54l-.73-.01v1.4h.44c.24 0 .68-.05.97-.1Zm7.19-4.24c-2.26-.4-5.06-1.49-6.15-2.4l-.3-.25 5.93-.01c3.51 0 5.92-.04 5.9-.09-.01-.05-.44-.51-.93-1.03l-.9-.93-6.35-.03-6.35-.03-.48-.47c-.65-.63-1.61-1.81-1.54-1.88.03-.04 2.76-.09 6.06-.12l6-.05-.67-.73-.67-.73-5.9-.01h-5.91l-.42-.85c-.23-.47-.42-.91-.42-.99 0-.22 30.75-.33 31.48-.1.09.02.02.24-.23.74l-.35.7h-9.15c-5.03 0-9.15.02-9.15.05 0 .04.15.22.34.4l.33.35h8.57c7.37 0 8.56.02 8.56.14 0 .08-.27.55-.61 1.05l-.6.91-6.84.02-6.84.03.6.68.61.67h5.54c4.37 0 5.54.03 5.54.12 0 .16-1.14 1.13-2.23 1.9l-.8.58h-5.49l.76.82c.89.95.88.94.34 1.09-1.99.53-5.56.75-7.28.45Zm4.05-.16c1.35-.13 3.15-.5 3.15-.64 0-.07-.18-.29-.39-.5l-.4-.39-5.4-.01c-6.07-.01-5.82-.05-3.86.66 2.2.81 4.55 1.11 6.9.88Zm1.95-2.01c-.17-.3.05-.29-6.05-.27l-5.7.03.4.22c.4.22.42.22 5.93.23h5.53zm6.56-1.17c.5-.37 1.08-.82 1.3-1l.39-.32H26.87l.78.82c.43.46.87.91.98 1 .17.16.47.18 3.06.18h2.86zm-9.47-1.79c-.07-.1-.4-.47-.74-.83l-.6-.65 7.11-.03 7.11-.02.47-.7c.25-.38.46-.72.46-.75s-3.69-.05-8.21-.05h-8.21l.46.54c.25.29.46.56.46.6 0 .03-2.75.06-6.11.06h-6.11l.27.33c.15.17.56.62.91 1l.63.67h6.12c5.81 0 6.11-.01 5.98-.17Zm-3.98-4.12c-.16-.29.39-.31 9.83-.31h8.72l.21-.44.21-.43-.71-.06c-.4-.04-7.34-.04-15.44 0l-14.72.06.35.69.34.68h5.65c5.49 0 5.65-.01 5.56-.19ZM20 27.05l-.23-.25-5.16-.02-5.15-.03-.2-.68c-.16-.59-.17-.7-.05-.78.08-.05 2.18-.09 4.69-.09h4.54l.58.57.57.57 11.06-.03c12.2-.03 11.29-.08 11 .62l-.15.37H20.23zm21.4-.25c.11-.2.08-.2-10.65-.2s-10.76 0-10.65.2c.17.32 21.13.32 21.3 0Zm-22.19-.49c-.06-.1-.26-.32-.46-.5l-.36-.31H9.38l.06.23c.04.12.09.34.12.5l.06.27h4.85c4.69 0 4.83-.01 4.74-.19ZM8.97 24.83c-.03-.05-.07-.24-.09-.43l-.03-.35 4.2-.03 4.21-.02.44.45.44.45h-4.56c-2.51 0-4.59-.03-4.61-.07Zm8.43-.32c0-.19-.44-.21-4.31-.21-3.5 0-3.98.02-3.93.15.07.17 8.24.23 8.24.06Zm-8.73-2.48c-.18-.17-.07-.73.16-.78.12-.03 7.73-.04 16.92-.03l16.7.03v.8l-16.86.03c-9.27.01-16.89-.01-16.92-.05Zm33.53-.38c0-.13-1.92-.15-16.65-.15s-16.65.02-16.65.15 1.92.15 16.65.15 16.65-.02 16.65-.15Zm-2.54-2.77c-.43-1.72-2.62-2.46-4.19-1.42-.27.18-.39.21-.42.12-.23-.64-.35-1.03-.35-1.14 0-.12.57-.14 3.52-.12l3.53.03.17.6c.28 1.02.37.95-1.18.95-1.13 0-1.35.02-1.25.13.08.11.4.13 1.4.09l1.3-.05.05.27c.04.14.08.37.11.51l.05.25h-1.34c-1.3 0-1.34-.01-1.4-.22Zm1.91-.08c.46 0 .51-.02.46-.2-.06-.21-1.6-.3-2.05-.12-.41.16.13.43.72.36.19-.02.58-.04.87-.04Zm-.86-1.2h1.09l-.07-.32c-.13-.73.12-.68-3.49-.68-3.07 0-3.26.01-3.19.18.04.09.09.24.12.33.04.13.12.12.55-.1 1.03-.51 2.27-.39 3.14.29.27.21.55.36.62.34.08-.02.63-.04 1.23-.04Zm-7.16-2.4c-1.21-.96-3-.97-4.37-.02l-.46.31-.43-.87-.47-.94c-.02-.05 2.85-.08 6.38-.08h6.41l.34.73c.18.4.37.85.4 1l.07.27h-7.37zm-18.16.04c-1.37-1.04-3.26-1.11-4.86-.18-.76.44-.79.32-.25-.76l.38-.75 2.99.03c1.64.01 3 .04 3.02.06.03.03-.81 1.74-.9 1.82-.02.02-.19-.08-.38-.22Zm25.44-.56c-.14-.35-.31-.68-.37-.73-.07-.07-2.16-.09-6.16-.07l-6.06.03.29.59.29.58.35-.24c1.34-.91 3.4-.85 4.5.12l.38.33 3.52.01h3.52zm-24.85-.2.28-.56-.29-.06c-.16-.03-1.38-.06-2.72-.06h-2.42l-.28.52c-.17.31-.23.49-.14.45 1.37-.59 1.43-.61 2.39-.61 1.09-.01 1.53.1 2.3.57.3.18.56.33.57.32s.15-.26.31-.57Zm5.7-2.45c-7.46-.02-9.98-.06-9.98-.15 0-.13.55-.87 1.27-1.72l.5-.58 12.13.01 12.13.01.29.32c.47.54 1.48 1.89 1.48 1.97 0 .09-4.53.22-6.49.19-.75-.02-5.85-.04-11.33-.05Zm-2.48-.65c1.9-1.06 4.44-1.01 6.43.12l.54.3h6.41c3.52 0 6.43-.04 6.46-.08.02-.04-.28-.47-.68-.95l-.72-.88-12.04-.02-12.03-.02-.74.9-.74.9.53.06c.29.04 1.75.06 3.23.05l2.7-.02zm4.5.33c1.91-.02 1.93-.04.67-.48-1.4-.49-3.3-.41-4.7.2l-.52.22 1.1.05c.61.03 1.23.05 1.4.04s1.09-.02 2.05-.03Zm-7.25-4.3c-.15-.26 2.45-1.57 4.2-2.1 4.31-1.33 8.42-.99 12.5 1.04 1.44.71 1.7.89 1.6 1.04-.08.14-18.21.15-18.3.02Zm16.73-.76c-4.77-2.43-10.22-2.44-15.01-.04-.56.28-1.04.53-1.06.55s3.82.04 8.55.03h8.59z"/></svg>