<svg xmlns="http://www.w3.org/2000/svg" width="51" height="51" viewBox="0 0 51 51"><path fill="#fff" fill-rule="evenodd" stroke="#fff" stroke-width=".38" d="M42.34 50.94c-.06-.25 0-1.54.12-2.34.03-.26-.02-.18-.2.29-.38 1-.66 1.1-.31.11.18-.52.19-.73.01-.41-.08.15-.16.2-.2.13s.18-.53.48-1.04c.65-1.11.97-1.53.61-.82-.14.29-.28.69-.31.9l-.05.39.16-.25c.15-.24.16-.22.11.45a77 77 0 0 0-.12 1.77c-.07 1.06-.17 1.34-.3.82Zm2.36-.24c0-.7.17-1.05.89-1.78.74-.76.98-1.14.56-.86-.15.1-.49.28-.76.4l-.49.23v-.3c0-.43.96-2.27 1.64-3.14l.31-.39-.8.44c-.44.24-1.04.59-1.34.78l-.54.35.06-.54c.05-.53.35-1.44.44-1.35.03.02-.01.3-.07.61-.15.74-.15.74.82.19.45-.26 1.14-.65 1.51-.87 1.08-.61.55-.53-1.11.17-.86.36-.97.33-.72-.23.23-.51 1.41-2.28 2.11-3.18.59-.75.59-.76.12-.67-1.61.28-4.59 3.58-5.68 6.28-.72 1.77-.93 1.84-.3.09.86-2.41 2.56-4.53 5.27-6.55 1.28-.96 1.52-1.09.94-.49l-.39.39.43-.09c.51-.12.73-.23 1.23-.61.45-.36.49-.23.06.18l-.3.29.73.11.73.11-.81.02c-1.05.01-1.12.08-3.12 3-.9 1.3-.9 1.27.21.81 1.22-.51 2.45-.86 3.34-.95 1.06-.1 1.14.07.11.22-1.61.23-2.35.89-3.82 3.42-.36.62-.66 1.18-.66 1.22 0 .14 1.15-.47 1.55-.82.83-.73.11.76-.84 1.74l-.46.48.77-.35c1.19-.54 2.9-.82 3.53-.57.14.06 0 .1-.5.16-2.46.25-4.35 1.17-4.35 2.11 0 .32-.04.44-.15.44s-.15-.12-.15-.5ZM5.13 49.55c.06-1.6.1-1.75.43-1.44 1.12 1.05 3.79-.65 4.1-2.61.05-.32.1-.4.23-.35 1.07.42 3.09-.04 4.85-1.1.46-.27.57-.31.64-.19s.12.1.32-.11c.23-.25.24-.25 2.02-.25 2.55 0 3.08-.16 4.27-1.25.91-.85 1.01-1.06.94-1.94-.06-.71-.07-.73-.42-.91-.2-.1-.92-.61-1.61-1.14s-1.56-1.2-1.93-1.49c-.83-.63-1.41-1.33-1.64-1.98l-.17-.48-.46.05c-.25.03-1.09.14-1.87.25-1.99.27-2.38.25-3.35-.12-.66-.26-.82-.29-.9-.18-.18.27-.85 1.65-1.07 2.21-.13.32-.28.58-.33.58-.21 0-.82-2.12-1.24-4.35-.1-.52-.21-.95-.25-.95-.03 0-.4-.16-.8-.35-.79-.37-.47-.42.38-.05l.41.18.01-1.26c0-.69.05-1.5.12-1.79.06-.3.09-.56.07-.58-.44-.45-4.52-2.16-6.53-2.75l-1.3-.37-.03-.48-.03-.47.33.07c3.29.66 5.02 1.32 6.67 2.55 1.03.77 1.14.96.17.31-1.77-1.2-3.57-1.87-6.86-2.57-.79-.17.3.38 1.4.7 1.63.48 3.22 1.12 4.94 1.98.76.38 1.39.68 1.41.66.01-.02.21-.4.44-.86l.42-.83-1.33-.63c-.73-.35-1.93-.87-2.66-1.16s-1.31-.54-1.29-.56c.13-.13 3.52 1.24 4.83 1.95.51.27.51.27.64.08.15-.25.04-.36-.95-.82-3.23-1.53-4.86-1.84-7.68-1.48l-.47.06v-.34c0-.7.34-.89 1.58-.89 2.43.01 5.48.76 7.8 1.94l.51.26.41-.51c.44-.56.77-1.12 1.9-3.19.4-.74.94-1.67 1.21-2.07l.48-.72-.32-.06c-3.35-.57-8.35-.68-11.66-.25-.9.12-1.69.19-1.77.16-.18-.07-.2-1.73-.03-2.1.26-.55 2.19-1.31 3.98-1.56.92-.13.87-.04.6-.92-.12-.4-.38-1.56-.58-2.58l-.37-1.84-1.65-.51c-2.65-.82-2.64-.93.11-1.56.52-.12.98-.24 1.01-.28.04-.03-.04-1.07-.16-2.31C2.65.04 2.66.2 2.91.2c.12 0 1.57 1.01 3.48 2.44l3.26 2.43 3.08-.05 3.07-.05.73.48c.39.27 1.28.93 1.96 1.48 1.5 1.2 1.47 1.18 1.56.7.12-.68 1.13-4.35 1.6-5.83.25-.8.44-1.53.41-1.62-.03-.14.02-.18.23-.18.93 0 4.86 6.91 5.25 9.25l.07.4.8.18c.59.14.96.3 1.47.63l.67.45.3-.33c.16-.19.7-.8 1.19-1.36 3.03-3.46 6.24-5.11 13.21-6.76 3.86-.91 3.81-.93 2.23.71-1.37 1.43-1.88 2.08-2.9 3.71-1.28 2.04-2.76 5.17-2.55 5.38.23.23 1.21-.1 1.95-.65 1.59-1.18 6.81-4.71 6.96-4.71.14 0 .04.55-.23 1.23-.16.41-.6 1.77-.96 3.03-2.29 7.89-2.42 8.2-4.34 10.27-.85.92-.88.86.36 1.04 3.78.56 5.13.99 5.21 1.65.04.37-.05.41-2.33 1.06-1.16.34-2.89.88-3.85 1.21-.96.34-1.77.61-1.8.62-.03 0 1.03.24 2.34.52 1.32.29 2.41.57 2.43.64.09.27-5.83 2.14-8.67 2.74-.58.12-1.06.22-1.08.24-.01.01.18.44.42.96.4.87 1.21 3.15 1.46 4.16.09.37.14.43.38.43.15 0 .36.03.47.06.41.11 3.99-2.79 6.94-5.61.46-.44.79-.71.73-.6-.16.32-2.86 2.91-4.04 3.89-1.22 1.01-1.22 1.01-.7 1.15.43.12.96.01 1.52-.31l.35-.2-.35.31c-.86.75.93-.29 1.95-1.14 1.14-.95 1.2-.99.62-.38l-.59.6.43.37c.52.44 1.29.69 2.21.7.83 0 .87-.04-1.02.96-1.67.88-1.69.9-3.07 1.92-.97.72-1.13.8-.91.49.48-.68 2.88-2.34 4.06-2.81.43-.17.4-.26-.09-.34-.48-.08-1.04-.35-1.48-.72l-.32-.26-.62.43c-1.47 1.01-2.43 1.84-4.11 3.56-.99 1-1.82 1.81-1.84 1.78-.15-.15 2.11-2.64 3.51-3.87l.77-.68h-.45c-.24 0-.62-.07-.84-.16l-.4-.16-.68.53c-.37.29-1.29 1.02-2.03 1.64-.74.61-1.64 1.34-2 1.62-.65.51-1.42 1.28-1.93 1.93-.15.19-.27.3-.27.24 0-.22.66-1.12 1.33-1.81 1.55-1.6-.88-.47-3.19 1.48-1.11.94-1.25 1.02-4.65 2.38-4.67 1.86-6.91 2.86-10.76 4.78-2.04 1.01-3.79 1.83-3.89 1.81-.23-.04.64-.88 2.06-1.99 2.21-1.71 2.39-1.92 1.47-1.65-.64.19-.67.19-.67.07 0-.15 1.13-.97 2.15-1.55 3.02-1.75 3.29-2.08 1.38-1.76-1.79.31-3.14.93-5.73 2.65-1.24.82-1.83 1.16-2.29 1.3-.27.08.82-1.24 2.17-2.62.44-.46.77-.83.74-.83-.11 0-.75.41-1.01.64l-.23.21.06-.22c.09-.29.08-.29-.61.06-1.49.75-2.52 1.05-3.55 1.05-.95.01-.96.01-1.01.26-.02.14-.08.33-.12.43-.06.15-.01.13.3-.07.21-.14.43-.26.49-.26.12 0-.64.69-.76.7-.04 0-.52.4-1.05.9-1.31 1.21-1.86 1.42-2.83 1.09-.43-.16-.5-.04-.5.97 0 .57-.04.86-.16 1-.14.17-.15.08-.11-1.11Zm22 .81c.1-.73.69-1.7 1.19-1.97.23-.13.2-.05-.17.46-.22.3-.65 1.09-.65 1.2 0 .03.28-.24.62-.61.35-.37 1.31-1.24 2.13-1.94.83-.7 1.57-1.35 1.64-1.44.08-.09.37-.35.65-.58.29-.24.02.08-.64.76-.63.65-1.63 1.58-2.22 2.08-1.27 1.06-1.28 1.08-.4.65.37-.19.9-.42 1.17-.51.28-.1.58-.22.68-.27q.18-.105.21.03c.02.07.07.21.1.31.11.34-.05.52-.24.26l-.18-.23-.6.22c-.8.3-1.77.84-2.64 1.49l-.71.54zm11.66.17c-.61-1.56.84-5.22 2.97-7.48.75-.8.68-.66-.27.56-1.73 2.19-2.57 4.33-2.47 6.29.04.91-.04 1.13-.23.63ZM8.4 50.52c0-.16.77-1.27 1.06-1.52.16-.14.24-.18.18-.1s-.23.38-.38.65l-.27.5.28-.31c.15-.17.52-.6.82-.95.77-.91 1.78-1.78 3.16-2.71.66-.45 1.31-.9 1.45-1.02.19-.16.18-.13-.05.12-.17.19-.61.57-1 .85-1.92 1.4-3.07 2.48-3.8 3.56-.45.66-1.45 1.3-1.45.93Zm16.97-.09c-.19-.32-.39-1.74-.34-2.47.08-1.2.12-1.25.57-.81l.38.37.23-.35c.42-.61 2.14-1.99 3.07-2.46.63-.32.53-.21-.6.67-.95.73-2.1 1.86-2.49 2.43l-.16.24-.29-.34c-.25-.3-.29-.32-.35-.15-.11.28-.1 1.22.01 1.29.06.03.1.21.1.38v.32l.26-.45c.33-.59.62-.89.99-1.06.19-.08.23-.13.13-.14-.61-.01 1.35-1.93 3.41-3.35 2.13-1.47 2.18-1.49.52-.14-1.68 1.36-.8 1.27 1.94-.19 3.19-1.69 3.86-2.13 5.9-3.82 1.49-1.24 1.91-1.52 1.15-.8-3.08 2.95-8.76 6.36-10.01 6-.4-.12-1.03.31-2.12 1.43-.78.81-.78.81-.06.63.93-.25.72.06-.3.45-.63.23-1.14.66-1.42 1.21-.27.53-.24.55.2.15.53-.47 1.81-1.2 1.81-1.02 0 .02-.35.3-.78.61-.42.31-.98.77-1.23 1.01-.26.25-.49.41-.52.36Zm5.63-.11c0-.12 1.53-1.49 2.23-2.01.32-.23.8-.7 1.07-1.04s.85-1.07 1.29-1.63c.89-1.12 2.01-2.22 4-3.92.75-.64 1.93-1.7 2.62-2.37 1.95-1.88 3.18-2.71 4.78-3.25.56-.19 1.16-.23.66-.05-1.7.62-3.45 1.8-5.35 3.61-.69.66-1.88 1.73-2.65 2.39-2.01 1.72-2.93 2.63-3.87 3.83-1.52 1.94-2.39 2.81-3.94 3.98-.71.54-.84.61-.84.46ZM19.01 47.6c.95-.84 1.39-1.17 1.39-1.07 0 .03-.41.39-.91.82-.49.42-.88.79-.87.81.02.02.82-.36 1.78-.84 1.75-.88 4.91-2.26 8.85-3.85 3.66-1.48 3.89-1.6 4.63-2.27.37-.34.87-.76 1.11-.94l.44-.31-.28-.03c-.16-.02-.96.05-1.79.17-.83.11-1.94.22-2.46.25-2.37.13-5.57 1.37-7.5 2.91-.86.68-1.96 1.42-3 2.01-1.26.7-1.46.84-1.32.84.07 0 .22-.05.33-.11.11-.05.28-.08.38-.04.27.08-.84 1.23-2.35 2.41-.68.53-1.24.99-1.24 1.01 0 .21 1.94-1.01 2.81-1.77Zm22.95-.77c1.21-1.91 2.54-3.48 4.19-4.96.79-.71.79-.7-.36.53-1.31 1.42-2.94 3.37-3.64 4.34-.58.81-.68.86-.19.09Zm-24.21-2.47 1-.51-.89-.03c-1.18-.04-1.29.04-3.4 2.47-.12.13.35-.14 1.04-.59s1.7-1.05 2.25-1.34Zm8.05-.63c.14-.1.65-.54 1.13-.98 1.35-1.23 2.02-1.46 4.17-1.44 1.14.02 1.54.16.47.18l-.99.01-.6.54c-.56.51-1.12.81-2.83 1.51-.9.38-.11-.08 1.05-.59.97-.43 1.35-.66 1.7-1.02l.45-.46-.72.05c-1.19.09-1.47.22-2.48 1.17-.51.47-1.08.93-1.26 1.03-.33.17-.33.17-.09 0Zm-1.5-2.32c-.01-.25-.06-.75-.13-1.11l-.12-.65h-.76l.06.53c.03.28.08.78.11 1.1.09.94.09.94.5.75.32-.16.34-.2.34-.62Zm1.51-.22c1-.57 1.29-.87 2.19-2.29 1.41-2.21 5-7.51 5.35-7.9.24-.26.72-.23.9.05.3.47-1.14 4.63-2.66 7.67-.27.54-.49 1-.49 1.02 0 .07 1.05-.02 2.65-.21.71-.08 1.57-.13 1.91-.1.59.06.63.05 1.43-.44.95-.57.85-.53 1.06-.33.23.23.51.11 1.14-.46l.54-.49-.23-.93c-.44-1.81-1.37-4.34-1.95-5.34-.15-.26-.6-.69-1.2-1.14-.88-.67-1.26-1.02-.72-.68 1.04.69 1.25.78 1.48.68.6-.26 2.84-.82 4.17-1.05.81-.14 1.9-.36 2.42-.5l.95-.25-.65.05c-.36.02-1.14.09-1.75.16-.68.07-1.71.08-2.7.04-2.76-.12-2.76-.22 0-.23 1.43 0 2.87-.04 3.2-.09l.6-.09-1.05-.07c-2.8-.2-5.55-.53-5.8-.69-.1-.06-.02-.07.25-.04 1.48.2 7.01.56 8.2.55l.7-.01-.55-.14c-.61-.15-3.6-.72-5.45-1.04-.66-.11-1.3-.23-1.43-.25-.26-.06 2.06-2.43 3.78-3.88 1.63-1.36 2.88-2.67 3.56-3.72.1-.16-1.25.96-3.01 2.49-4.78 4.17-5.22 4.54-5.47 4.67-.53.27 3.89-3.73 7.07-6.4 2.1-1.78 2.03-1.65 4-6.96.51-1.37 1.06-2.83 1.24-3.24.17-.4.31-.76.31-.79s-.29.26-.66.66c-1 1.09-3.99 3.89-4.38 4.09-.2.11-1.15 1.1-2.31 2.43-1.09 1.24-2.25 2.54-2.59 2.89l-.61.65.53-.45c1.57-1.3 2.58-2.09 2.67-2.08.15 0-1.43 1.48-3.03 2.81-1.61 1.35-3.12 2.75-3.12 2.9 0 .12.21-.04 1.41-1.09.52-.44 1.4-1.19 1.96-1.66 3.15-2.6 6.08-5.6 8.05-8.25 1.25-1.67 1.64-2.12 1.17-1.34-.92 1.51-1.34 2.17-1.75 2.72-.92 1.25-5.14 5.37-7.44 7.26-.52.43-1.47 1.23-2.1 1.78s-1.16 1-1.17 1.01c-.05.03.1.75.16.75.19 0 4.19-3.47 5.51-4.79 2.19-2.18 2.49-2.43 1.35-1.11-1.58 1.83-2.76 2.94-4.9 4.6l-2 1.56-.06.64c-.08.85-.42 2.07-.78 2.78-.67 1.32-2.54 2.82-3.12 2.51-.27-.14-.25-.18-.37.93-.13 1.22-.32 1.62-1.23 2.68-.4.47-1.23 1.48-1.85 2.25-1.9 2.38-2.88 3.23-3.99 3.48-.31.07-.56.16-.56.2-.01.04.05.39.11.78.07.39.1.84.06 1-.08.39.02.38 1.05-.22Zm2.4-.94c.24-.08.87-.21 1.38-.3.52-.08 1.01-.2 1.08-.27.41-.42 2.34-5.02 2.87-6.88.2-.69.38-1.31.41-1.37.02-.08-.04-.13-.15-.13-.13 0-.56.55-1.5 1.93-2.51 3.68-4.77 7.17-4.65 7.17.06 0 .31-.07.56-.15Zm.37-.84c.82-.95 1.59-2.11 2.81-4.24 1.16-2.04 1.94-3.29 2.18-3.49.26-.2.12.1-.51 1.11-.29.47-.95 1.6-1.46 2.51-1.18 2.08-1.98 3.29-2.69 4.03-.81.86-1.04.91-.33.08Zm-3.4-.65c1.33-.34 1.73-.68 3.39-2.81.48-.61 1.21-1.51 1.63-2 1.09-1.28 1.03-1.07.99-3.35-.02-1.09-.01-2.01.03-2.05.17-.17.3.5.37 1.93.07 1.7.08 1.69.27-.73l.06-.75.22.32c.36.54.66.58 1.29.15 3.18-2.1 3.63-6.4.98-9.28l-.58-.63-.28.74c-.44 1.2-1.49 2.96-2.35 3.95-.42.49-.49.65-.26.65.39 0 1.44-1.44 2.46-3.37.43-.82.53-.84 1.09-.26 1.51 1.57 1.64 4.24.32 6.17-.43.63-.57.67-.28.1 1.14-2.25 1.08-4.61-.13-5.83-.55-.54-.64-.09-.1.48.37.39.6.92.6 1.36-.01.12-.06.06-.14-.16-.16-.46-.49-1-.76-1.24-.19-.17-.18-.14.04.25.37.64.32.73-.15.28l-.41-.39-.29.41-.3.41.8.77c1.24 1.2 1.51 1.94.97 2.6-.13.15-.26.41-.3.57-.2.87-.43 1.09-1.4 1.32-.92.21-1.23-.32-.76-1.34.2-.45.57-.63.47-.23-.09.34.21.23.34-.13.06-.18.21-.38.32-.43.29-.13.63-.82.48-.97-.12-.12-2.84-.18-2.96-.06-.14.15.07 1.08.23 1.01.12-.04.11.02-.06.22-.12.16-.22.37-.22.47 0 .11-.04.19-.09.19-.09 0-.21-.72-.21-1.34 0-.7-.09-.71-.89-.1-1.37 1.03-1.39 1.02-1.43-.06l-.03-.65-.78.74c-.54.53-.8.85-.87 1.11-.12.45-.26.58-1.15 1.04-.78.41-.77.41.51-.03.85-.29 2.24-.57 2.07-.41-.04.04-.51.22-1.03.4s-1.66.56-2.54.86c-.87.29-1.74.63-1.95.75l-.36.22.45-.47c.34-.35.84-.67 2.01-1.26 1.51-.78 1.56-.81 1.68-1.2.14-.47 1.03-1.47 1.67-1.87.56-.36.61-.91.16-1.86l-.27-.59-.82.9c-.46.5-1.36 1.3-2.05 1.83-1.18.89-2.78 2.34-2.78 2.51 0 .4.86-.11 2.09-1.26.28-.27.39-.33.32-.19-.06.12-.16.25-.21.28s-.15.16-.21.28c-.1.2.65-.52 1.17-1.13.51-.6 1.62-1.24 1.47-.84-.11.29-2.67 2.55-3.86 3.42-.65.47-1.34 1.03-1.53 1.25-.42.5-.46.26-.04-.31.31-.43.37-.66.2-.77-.11-.07-.32.08-1.5 1.14l-.83.74-.04.56c-.01.31-.12.87-.23 1.25-.26.85-.25.87.93 1.19.76.2.87.25.73.36-.13.11-.27.11-.82-.03-1.28-.32-1.45-.53-1.24-1.48.19-.89.19-.88.07-.8-.07.04-.42.27-.79.51-.79.5-.76.37-.38 1.86.46 1.82.54 1.93 3 3.81 2.4 1.83 2.53 1.87 4.78 1.3Zm-14.95-5.41c.42-.81.79-1.31 1.71-2.3.99-1.08.94-.9.57-1.82-.16-.39-.37-1-.47-1.35-.24-.89-.25-.89-.93.02-1.26 1.67-1.9 3.4-2.11 5.64-.14 1.44-.1 1.52.18.4.28-1.15.85-2.12 2.11-3.62.68-.81.6-.54-.13.44-1.17 1.58-1.79 3.05-1.91 4.53l-.06.66.39-1.05c.21-.58.5-1.28.65-1.55Zm10.43 1.43c-.18-.25-.21-.48-.07-.48.05 0 .11.07.15.15.04.12.14.1.51-.14.63-.4 1.3-.55 2.07-.46 1.43.17 1.43.47 0 .38-1.05-.06-1.28 0-1.99.53-.39.3-.48.3-.67.02Zm-8.29-3.2c.57-.57.74-.81.69-.94-.13-.35-2.02 1.79-2.61 2.97-.38.74-.31.69.46-.32.39-.52 1.05-1.28 1.46-1.71Zm2.53 2.31c0-.62-.33-.76-2.01-.84l-1.35-.07-.18.27c-.23.36-.15.4.88.54.45.06.92.12 1.06.14.59.09 1.6.07 1.6-.04Zm-6.16-1c.21-1.84 1.21-4.05 2.59-5.72l.39-.47-.21-.95c-.35-1.58-.27-1.94.89-4.3 1.67-3.4 4.01-6.15 5.23-6.15.76-.01.57-.18-.29-.27-.64-.07-.73 0-1.98 1.47-1.37 1.62-2.01 2.59-3.46 5.3-.4.74-.92 1.63-1.16 1.97-2.3 3.23-2.93 4.99-2.68 7.39.04.43.09.68.11.54.34-2.5 1.11-4.42 2.55-6.38.67-.9.53-.51-.31.87-1.27 2.09-1.76 3.69-1.88 6.13-.07 1.27.09 1.68.21.57Zm5.39-.31c-.27-.47-1.73-.56-2.12-.14l-.24.25.24.05c.13.03.56.07.94.09.39.02.85.04 1.03.05l.34.02zm1-5.18c.68-2.77 2.04-5.36 3.69-7.04.77-.78.78-.8.67-1.13-.16-.49-.17-.48-1.27.37-.56.44-1.02.77-1.02.74 0-.17.43-.63 1.09-1.16.94-.75.92-.66.29-1.27-1.02-.98-1.63-.66-3.32 1.68-1.86 2.59-2.21 3.54-2.13 5.81.07 1.95-.06 2.02-.24.14-.21-2.13 0-2.82 1.65-5.34 2.13-3.26 2.94-3.72 4.25-2.42.55.54.72.78.86 1.24l.18.56-.54.57c-1.77 1.86-3.11 4.38-3.79 7.15-.45 1.85-.36 1.76.39-.4 1.09-3.15 2.09-4.98 3.54-6.47.84-.87.86-.88 1.2-.18.4.82.47.71.4-.67-.06-1.4.02-1.26-1.22-2.09-.4-.27-1.01-.59-1.35-.71-.68-.25-.53-.38.21-.17.41.11 1.41.71 2.16 1.29l.27.22v-.3c0-.16-.05-.43-.11-.6-.14-.42-.06-.65.11-.3.13.27.3.29.3.03 0-.24-1.48-1.03-2.27-1.21-1.79-.4-2.21-.17-4.1 2.16-1.55 1.92-3.33 5.35-3.33 6.41 0 1.14 1.02 4.45 1.96 6.34.7 1.42.82 1.59.6.84-.29-.94-.75-4.79-.58-4.79.1 0 .31 1 .33 1.51.01.42.17-.09.18-.57.02-1.07 1.13-3.85 1.9-4.74.24-.28.17-.09-.34.9-1.52 2.97-1.77 5.1-1.03 8.75.01.06.05-.84.08-2 .06-1.77.11-2.26.33-3.15Zm2.5 3.5c1.14-.78 1.12-.76.99-1.04-.11-.25-2.77-.78-3.16-.63-.29.11-.17.36.22.46 1.68.44 2.09.52 2.41.46.33-.06.34-.05.2.12-.32.4-.71.44-1.5.13-.87-.35-.97-.25-.43.43.55.68.4.67 1.27.07Zm21.18-.29c1.67-.35 6.81-1.82 6.59-1.89-.11-.04-2.68.6-4.7 1.18-.74.21-1.72.46-2.17.56s-.79.22-.77.26c.06.1-.03.11 1.05-.11Zm-17.13-3.1c2.32-2.36 2.24-2.25 2.29-3.19.03-.65.02-.74-.09-.58-.62.91-2.06 2.63-3.18 3.79l-1.37 1.41-.23-.69c-.13-.39-.25-.76-.28-.82-.02-.07.01-.13.06-.13.06 0 .19.25.28.55.1.3.2.55.24.55.2 0 2.6-2.7 3.58-4.01 1.04-1.42 1.06-1.46.97-2.15l-.07-.58-.36.7c-.28.54-.71 1.05-1.92 2.29-.86.88-1.68 1.75-1.83 1.93-.15.19-.27.31-.27.27 0-.21.79-1.16 1.85-2.25 1.05-1.07 2.13-2.46 2-2.58-.23-.24-1.57 1.14-3.33 3.43l-.23.3.22-.45c.12-.25.38-.68.58-.95.64-.86.55-.83-.36.11-1.8 1.87-2.16 3.13-1.38 4.89l.25.57.42-.33c.24-.18 1.21-1.12 2.16-2.08Zm-3.43 1.52c-.78-1.91.7-4.47 3.84-6.63 1.71-1.17 1.71-1.17 1.59-1.59l-.09-.34-.57.07c-.31.04-.75.16-.97.28q-1.08.555-1.32.36c-.24-.19-1.97 1.83-2.8 3.28-.52.9-.53.71-.02-.28.47-.9 1.08-1.75 2.01-2.8.59-.67.59-.67.42-.93-.19-.3-.21-.28-.98.54-1.3 1.39-3.07 5.06-3.6 7.46l-.07.3.82.13c1 .16.96.21.6-.83-.34-.96-.38-1.2-.17-1.28.07-.03.26-.27.41-.54.71-1.21 1.93-2.55 3.17-3.46 1.14-.84 1.07-.71-.37.71-1.21 1.18-2.34 2.59-2.73 3.4-.16.34.03 1.23.44 2.05.16.3.51.39.39.1Zm14.91-1.09c.58-.17.84-.43.84-.84 0-.13.16-.48.36-.77l.36-.52-.21-.47c-.21-.47-1.51-1.84-1.74-1.84-.07 0-.28.28-.49.63l-.36.62 1.01.05c1.42.07 1.64.47.82 1.54-.19.26-.35.57-.35.71 0 .18-.1.31-.32.45-.87.51-.83.71.08.44Zm10.41-1.48c1.54-.56 3.3-1.14 5.28-1.71 1.82-.53 1.96-.6 1.04-.51-1.06.1-3.37.71-5.79 1.53-2.98 1.01-2.87.95-2.25 1.03.27.04.51.08.52.08.01.01.55-.18 1.2-.42ZM43 25.8c1.29-.45 2.86-.95 3.49-1.11 1.41-.38 1.46-.41.5-.33-1.87.15-3.47.56-5.64 1.44-.94.38-1.2.45-.93.23 1.06-.86 4.61-1.83 7.43-2.03.88-.07 1.71-.14 1.85-.17l.25-.06-.3-.09c-.67-.21-3.98.11-5.19.49-1.15.36-1.16.36-.56.08.88-.42 1.94-.65 3.3-.72 1.51-.08 1.42-.13-.98-.53l-1.83-.31-.62.45c-.34.25-.75.55-.92.67l-.3.21.3-.29c.17-.16.48-.51.7-.78s.9-1.03 1.52-1.68c1.89-2 2.21-2.73 4.07-9.28.61-2.15.34-1.68-.84 1.46-.43 1.16-1.03 2.69-1.33 3.4-.3.72-.58 1.41-.62 1.55-.13.44-.94 1.57-1.83 2.56-.48.53-.92 1.04-.98 1.15-.16.28-2.81 3.05-3.31 3.46q-1.275 1.05.99-1.38c1.68-1.8 1.24-1.48-1.39 1.04-.68.64-1.29 1.18-1.36 1.19-.23.03.89.15 1.54.16.59.02.92-.07 2.99-.78ZM29.04 25c2.06-3.77 2.26-5.45 1.05-8.85-.94-2.66-2.69-5.03-3.85-5.21-.7-.1-2.24.01-2.67.19l-.39.17.3.37c.16.21.48.65.71.97l.41.6.88.02c1.69.04 2.01.46 2.78 3.72.42 1.77.59 7.38.27 8.72-.08.36-.01.25.51-.7Zm1.37-.47c3.08-2.91 4.07-7.78 2.12-10.4-1.16-1.57-2.72-3.27-3.24-3.53-.87-.45-3.37-.6-3.99-.25l-.35.2.7.06c1.4.12 2.61 1.25 3.89 3.62 1.84 3.42 2.06 6.38.67 9.2-.21.42-.37.77-.36.77.42 0 2.06-3.75 2.2-5.02.27-2.47-1.76-6.72-3.98-8.35-.65-.48-.52-.54.2-.1 1.14.7 2.05 1.85 2.97 3.78 1.86 3.88 1.52 6.41-1.34 10.04-.35.44-.68.87-.74.95-.2.27.58-.34 1.25-.97Zm-20.85.32c.21-.32.3-.25-1.08-.84C5.26 22.63.95 21.92.41 22.68l-.19.28.81-.09c2.23-.23 4.81.42 7.67 1.92.69.36.66.36.86.06Zm16.69-1.4c2.18-2.16 2.5-3.97 1.34-7.63-.64-2.02-.69-2.07-1.96-2.19-2-.19-4.24 2.66-4.23 5.36l.01.86.15-.4c.09-.22.18-.55.21-.72.06-.37.1-.39.56-.19 1.17.49 2.05 2.42 2.08 4.55l.01.76.18-.7c.73-2.71-.25-5.04-2.38-5.66-.32-.09-.39-.15-.28-.21.21-.12 1.03.18 1.48.53.55.43.21-.31-.54-1.18-.29-.33-.3-.36-.08-.22.56.36 1.9 2.63 2.15 3.64.3 1.25.21 2.47-.26 3.61-.46 1.1-.32.99.37-.29 1.7-3.14 1.92-5.74.66-7.74-.42-.66-.8-.77-2.17-.6l-.6.07.4-.2c.76-.37 1.8-.29 2.24.19 1.52 1.63 2.17 4.89 1.31 6.66-.18.39-.34.77-.34.85-.01.08-.07.15-.15.15s-.15.09-.17.19c-.01.11-.14.31-.29.45-.23.23-.21.17.16-.59.73-1.5.95-2.49.81-3.65l-.08-.6-.07.75c-.16 1.63-.77 3.25-1.82 4.86l-.56.86.48-.34c.26-.18.88-.73 1.38-1.23Zm11.05 1.01c0-.02.82-.74 1.82-1.59 1.97-1.66 3.89-3.58 4.79-4.77 1.48-1.97 2.65-3.59 3.04-4.2.58-.91.76-.99.31-.14-.53 1-3.25 4.74-4.42 6.07-1.1 1.25-5.54 4.96-5.54 4.63Zm-8.24-.98c.57-3.49.45-4.97-.6-7.29-.58-1.3-.48-1.27.14.04 1.23 2.59 1.43 4.98.63 7.55-.24.77-.32.63-.17-.3Zm7.76-1.91c.31-.35 1.09-1.19 1.74-1.87.64-.69 1.94-2.13 2.87-3.2.94-1.07 1.8-2.05 1.91-2.18l.21-.24-.55.22c-.3.13-2.46.71-4.79 1.29l-4.24 1.07-.02 1.26-.01 1.27.6.63c.34.35.83 1.03 1.1 1.51.58 1.04.49 1.02 1.18.24Zm-22.57-4.28c.13-.19-1.41-.54-4.4-.99-4.24-.64-10.18-.1-9.57.88.07.1.29.09 1.13-.04 2.27-.35 7.25-.33 10.44.05 1.94.22 2.32.24 2.4.1Zm.99-1.15c.69-.78.76-.68-.7-1.04-5.01-1.24-12.02-.93-13.99.62-.29.23-.35.62-.07.54 2.85-.87 8.76-.7 13.12.38.95.24.99.23 1.64-.5Zm6.66-.21c.14-.26.45-.71.69-1.01l.43-.54-.46-.67c-.8-1.18-3.01-3.21-5.61-5.17-1.01-.77-1.09-.81-1.92-.98-2.95-.62-9.8-.86-12.76-.45-1.25.17-1 .23.37.09 2.91-.3 7.25-.04 9.31.55 3.23.94 7.47 3.75 8.49 5.65.14.26.02.18-.48-.37-3.76-4.06-9.15-6.06-15.31-5.68l-1.3.08 1.44.19c3.64.46 7.28 1.79 11.4 4.16.51.29.95.51.98.49.06-.06-1.7-1.23-2.59-1.72-.72-.39-.86-.52-.4-.34 1.99.76 7.26 5.29 6.61 5.7-.11.07.52.48.76.49.06 0 .21-.21.35-.47Zm15.64-.54c3.49-.88 5.53-1.51 6.84-2.1.7-.31.83-.45.22-.24-.23.08-1.11.33-1.98.55-.86.23-2.29.61-3.17.85s-2.36.64-3.3.89c-2.55.68-2.45.65-2.38.81.07.19-.36.28 3.77-.76Zm-16.84.42c0-.81-5.27-4.32-8.71-5.8-2.86-1.22-9.74-2.9-10.16-2.47-.02.01.56.2 1.28.41 3.12.91 7.13 3.26 9.58 5.6.92.88 1.07.99 1.58 1.11l.56.13-.59-.6c-2.31-2.37-5.79-4.57-8.74-5.54-.3-.1-.49-.2-.43-.22.31-.11 3 .99 4.28 1.74 1.31.77 3.91 2.76 5.36 4.1.93.86 1.27.98 1.69.58.37-.35.97-.3 2.15.2 2.08.87 2.15.9 2.15.76Zm14.81-.65c.9-.24 3.28-.88 5.29-1.42 4.25-1.13 4.37-1.17 2.75-1.09-1.88.09-10.02 1.48-10.29 1.76-.09.09.39 1.29.5 1.25.07-.03.85-.25 1.75-.5ZM12.6 13.9c-2.36-2.14-5.54-4.13-8.03-5.02l-.47-.17.05.22c.03.12.19.9.36 1.72.52 2.6.76 3.25 1.15 3.25h.32l-.29-.69c-.16-.38-.49-1.41-.73-2.28s-.47-1.66-.51-1.75c-.1-.24.17-.24.38 0 .08.09.36.67.62 1.27s.74 1.62 1.06 2.26l.59 1.16 1.38.07c1.41.08 2.81.2 3.87.35.33.05.64.09.7.1.06 0-.15-.22-.45-.49Zm11.59-.53c.07-.77-4.82-5.56-7.48-7.33-1.55-1.03-6.55-.88-11.86.35l-1.3.3.95-.07c3.37-.25 10.28.26 11.45.86 1.84.93 6.2 4.95 6.99 6.44l.19.36.53-.42c.29-.22.53-.45.53-.49Zm11.36.18c1.1-.24 2.49-.51 3.08-.62l1.09-.18.78-1.55c.79-1.56 1.11-2.05 2.51-3.87.82-1.06 2.23-2.55 2.37-2.51.04.02.59-.52 1.21-1.2.62-.67 1.09-1.22 1.04-1.22-.42 0-3.91 3.24-6.47 6-.48.52-.77.79-.64.6.32-.49 1.57-1.98 2.35-2.81.78-.82.8-1.01.04-.26-.3.29-.49.42-.42.3.12-.23.94-.97 1.05-.94.04.01.48-.35.99-.8s1.22-1.05 1.6-1.33c.86-.65.86-.65-1.44-.11-6.46 1.51-9.75 3.32-13.1 7.21-.94 1.09-.93 1-.23 1.77.3.34.81.95 1.12 1.35.5.63.6.72.82.66zm-29.28-.93c-.35-.7-.83-1.71-1.07-2.24-.24-.54-.45-.97-.46-.95-.04.04.64 2.32.93 3.12.14.39.3.85.36 1.03.09.29.14.32.49.32h.38zm28.24.29c.94-1.7 4.82-5.4 7.89-7.51.6-.42.13.05-.72.72-2.94 2.29-4.52 3.79-6.56 6.23-.41.49-.77.92-.8.95s.06-.15.19-.39Zm2.35-.06c.38-1.03 2.8-4.22 4.25-5.6.66-.62.58-.48-.24.44-.92 1.03-2.43 2.97-3.16 4.06-.82 1.22-.96 1.4-.85 1.1Zm3.75-.31c.04-.02.35-.7.69-1.51.35-.82.76-1.74.92-2.06.83-1.67-.45.3-1.48 2.27-.78 1.51-.8 1.67-.13 1.3Zm.95-.17c0-.01.15-.45.33-.97.52-1.52 1.59-3.54 2.93-5.53.72-1.07.7-1.2-.05-.35-1.2 1.38-2.33 3.44-3.75 6.87-.04.11.48.09.54-.02Zm-9.36-.05c0-.86 4.53-5.36 6.61-6.55.87-.5 1.89-.98 1.98-.93.04.03.92-.31 1.95-.74 1.03-.44 1.91-.8 1.94-.8.04 0-.92.51-2.13 1.13-3.37 1.72-4.83 2.71-6.25 4.24-.4.43-.63.62-.5.43.45-.66 1.4-1.68 2.13-2.26.87-.69 1.17-.99.62-.59-1.8 1.28-4.28 3.6-5.56 5.18-.43.54-.79.94-.79.89Zm15.3-1.57c1.9-1.8 3.21-3.2 2.68-2.89-.35.2-1.98 1.36-1.98 1.4 0 .03.15-.04.33-.16.31-.21.31-.21-.04.12-.2.18-.85.62-1.44.98-2.66 1.61-3.22 2.03-2.63 1.94.18-.03.53.01.78.09l.45.14.5-.41c.27-.23.88-.77 1.35-1.21Zm-23.59-.15c1.32-.56 1.34-.64.16-.56-.53.04-1.18.09-1.43.13l-.45.06.37.38c.45.47.26.47 1.35-.01Zm-.72-.91c.53-.07 1.43-.1 2.41-.07l1.58.05-.23-.71c-.56-1.8-1.58-3.99-2.76-5.96-.57-.95-1.33-2.03-1.16-1.65.02.06.59 1.23 1.25 2.61.97 2 2.42 5.38 2.42 5.62 0 .28-.38-.46-.86-1.66C25.19 6.27 22.43.67 22.3.75c-.04.02-.1.15-.13.27-.02.13-.3 1.09-.6 2.13-.3 1.05-.74 2.63-.97 3.53l-.41 1.62.83.8c.67.65.88.79 1.08.76.14-.02.63-.1 1.09-.17Zm2.06-1.41c-.81-2.12-2.31-5.15-2.2-4.48.03.19.14.91.25 1.6.19 1.18.35 2.97.26 2.75-.07-.14-.74-4.04-.82-4.71-.14-1.14.43-.42 1.46 1.86.71 1.56 1.5 3.7 1.37 3.7-.02 0-.16-.33-.32-.72Zm2.21 0c-.03-.29-.06-1.5-.06-2.68 0-1.95-.09-3.61-.26-5.1-.04-.3-.03-.52.01-.48.18.17.36 2.46.41 5.51.07 3.14.04 3.87-.1 2.75ZM5.15 5.9c.03-.05-.08-.36-.24-.69-.62-1.22-1.6-3.95-1.47-4.08.02-.02.13.08.25.23S4.72 2.5 5.7 3.56l1.8 1.91.53-.09c.28-.04.67-.11.85-.14.32-.05.26-.1-2.1-1.88C3.44.85 3.43.85 3.35 1.1c-.39 1.24 1.26 5.67 1.8 4.8Zm1.31-.21c.83-.16.83-.14-.17-1.24-.5-.55-1.3-1.44-1.76-1.98-.47-.54-.88-.96-.9-.94-.06.07 1 2.73 1.41 3.55.41.81.4.8 1.42.61Z"/></svg>