<svg xmlns="http://www.w3.org/2000/svg" width="51" height="51" viewBox="0 0 51 51"><path fill="#fff" fill-rule="evenodd" stroke="#fff" stroke-width=".446" d="M23.84 45c-.33-.13-1.13-1.09-1.26-1.51-.1-.36-.03-.8.7-4.52.45-2.27.93-4.77 1.06-5.57s.28-1.59.32-1.75l.07-.3-.3.36c-.16.21-1.27 1.7-2.47 3.32-2.64 3.57-2.94 3.95-4.38 5.54-1.6 1.75-1.86 1.88-2.83 1.35l-.5-.28.01-.57c.02-.68.05-.73 1.93-3.17l3.04-3.95c.94-1.21 2.02-2.58 2.41-3.05.69-.82.7-.84.31-.6-1.5.91-4.05 2.55-7.2 4.62-2.39 1.57-2.33 1.54-3.37 1.63l-.86.07-.42-.39-.42-.39.07-.65c.07-.59.11-.67.54-1.09.7-.69 2.78-2.03 5.66-3.66 3.71-2.1 4.95-2.83 4.95-2.93 0-.14-1.08-.2-7.15-.41-3.13-.11-5.98-.25-6.33-.31-2.04-.37-2.33-2.59-.33-2.59 1.15 0 13.04.84 13.59.95.63.14.25-.13-4.53-3.33-3.39-2.27-5.65-3.83-6.72-4.64-.51-.39-.51-.39-.67-1.26-.21-1.13-.24-1 .36-1.77l.52-.67.92.04.92.03.83.65c3.15 2.43 8.08 6.02 8.16 5.95.07-.05-2.76-5.16-4.07-7.34-2.1-3.52-2.23-4.09-1.2-5.49.74-1.01.84-1.06 1.74-.99 1.72.14 1.8.22 2.97 2.94.52 1.2 1.83 3.98 2.93 6.18 1.09 2.2 2.09 4.29 2.22 4.65s.24.58.24.49.13-1.42.29-2.95a194 194 0 0 0 .5-5.4c.21-2.62.28-3.04.71-4.03.25-.56 1.17-1.31 1.62-1.31.39 0 .98.41 1.4.98l.42.57-.58 3.4c-.32 1.87-.77 4.42-1 5.68-.23 1.25-.39 2.26-.35 2.25.04-.02 1.07-1.29 2.28-2.82 2.45-3.1 4.01-4.89 5.04-5.78l.68-.59.92.03.91.03.36.47c.19.26.46.67.6.92l.24.45-.18.88c-.22 1.06-.23 1.08-1 2.03-1.97 2.42-5.87 7.9-5.62 7.9.02 0 1.27-.25 2.77-.55 3.05-.61 6.7-1.24 7.28-1.27.25-.01.63.1 1.06.3l.67.32-.04.58c-.02.34-.14.78-.28 1.07-.3.59-.05.51-3.89 1.36-5.36 1.18-6.77 1.5-7.46 1.68l-.7.18.7.06c.39.04 1.91.12 3.4.17 1.49.06 3.53.17 4.55.25l1.85.15.68.46c1.15.79 1.58 1.68 1.12 2.3-.11.14-.59.47-1.06.72l-.85.46-3.8-.92c-4.4-1.07-6.79-1.62-7-1.62-.15 0 .95 1.09 3.37 3.31 5.96 5.49 5.95 5.48 5.18 6.42-.53.65-.91.41-6.09-3.78-1.32-1.06-2.44-1.96-2.5-2-.1-.06 1.37 2.23 3.23 5l1 1.5.05.92c.06 1.08-.04 1.3-.7 1.64-.44.22-1.26.22-1.69-.01-.45-.24-5.98-8.59-6.32-9.54-.02-.06-.07-.09-.09-.06-.06.05-.58 5.67-.84 8.95-.16 2.11-.24 2.56-.49 2.93-.3.41-1.42.86-1.81.72Zm.79-.4c1.06-.4.99-.16 1.37-4.75.44-5.35.62-7.27.71-7.52.19-.51.43-.27 1.37 1.31 1.57 2.63 4.94 7.71 5.35 8.05.26.21 1.19.26 1.55.07.44-.23.52-.43.52-1.34v-.8l-1.48-2.23c-3.28-4.96-3.24-4.9-3.01-5.05.14-.08.27.02 3.15 2.37 2.53 2.07 4.64 3.68 5.17 3.95.52.28.94-.39.68-1.08-.08-.21-1.06-1.16-5.26-5.04-2.51-2.32-3.79-3.6-3.71-3.72.15-.25.77-.12 9.09 1.89l2.19.53.71-.38c1.53-.83 1.54-1.43.02-2.52l-.66-.47-1.67-.13c-.92-.07-2.79-.18-4.17-.24-5.41-.22-5.44-.22-5.32-.53.06-.16 2.17-.7 5.77-1.47 3.11-.67 6.34-1.41 6.51-1.51.19-.09.43-.65.53-1.21.08-.45-.05-.59-.79-.87l-.56-.21-2.37.4c-1.3.22-3.59.65-5.07.95-3.01.61-3.05.62-3.05.39 0-.48 2.89-4.62 5.61-8.04.94-1.19.85-1.02 1.07-2.03l.2-.87-.52-.77c-.58-.88-.76-.97-1.67-.87-.96.1-2.49 1.69-6.31 6.56-2.89 3.69-2.88 3.69-2.17-.12.74-3.98 1.49-8.34 1.49-8.62 0-.5-.95-1.48-1.44-1.48-.29 0-1.16.62-1.32.93-.43.83-.55 1.44-.74 3.87-.27 3.38-.81 8.7-.91 8.98-.16.42-.37.25-.59-.49-.12-.39-.99-2.27-1.94-4.17-2.02-4.05-2.74-5.59-3.56-7.54-.8-1.92-1.23-2.25-2.81-2.16l-.53.03-.58.75c-1 1.3-.87 1.88 1.15 5.25 1.26 2.11 3.72 6.5 4.23 7.58.22.45.08.7-.24.46-.11-.08-1.07-.77-2.13-1.53-2.06-1.48-3.34-2.44-5.69-4.24l-1.45-1.12H9.72l-.43.56-.43.56.13.75c.07.42.15.82.18.9.07.18 2.77 2.08 6.63 4.65 6.55 4.38 6.58 4.41 3.25 4.08-1.04-.1-2.66-.23-3.6-.3-.93-.06-3.26-.22-5.18-.35-3.61-.25-3.68-.25-4.04.08q-.45.405.03 1.11c.49.71.85.76 6.94.96 5.64.18 7.83.29 7.94.4.06.06.07.19 0 .37-.1.3-.39.48-4.64 2.88-4.33 2.45-6.23 3.73-6.4 4.34-.31 1.13.09 1.57 1.31 1.47.99-.08.63.11 4.14-2.19 3.68-2.42 7.06-4.57 7.17-4.57.31 0 .11.4-.69 1.37-.89 1.07-3.03 3.81-5.86 7.49-1.9 2.48-2.07 2.93-1.27 3.34 1.19.61 1.86-.11 8.68-9.33.96-1.29 1.24-1.58 1.39-1.43.09.09-.69 4.52-1.48 8.41-.87 4.3-.87 4.08-.01 4.98.54.55.46.53 1.15.27Z"/></svg>