<svg xmlns="http://www.w3.org/2000/svg" width="51" height="51" viewBox="0 0 51 51"><path fill="#fff" fill-rule="evenodd" stroke="#fff" stroke-width=".441" d="M14.5 45.75c-1.89-.58-2.57-3.43-1.19-4.98 1.12-1.28 3.27-1.22 4.26.11.49.65.45.88-.16.97-.49.07-.5.06-.94-.39-1.33-1.39-3.3.35-2.51 2.22.57 1.37 2.04 1.46 2.79.17.1-.17.13-.17.63-.01.58.2.61.26.31.76-.68 1.14-1.86 1.56-3.19 1.15Zm6.49-.08c-.87-.46-1.35-1.58-1.08-2.54.58-2.07 3.55-1.93 3.94.19.14.76.11.78-1.41.78-1.48 0-1.59.06-1.09.55.32.33.75.32 1.14-.01.3-.25.33-.25.73-.12.52.18.56.28.22.67-.6.72-1.62.91-2.45.48Zm3.81.06c-1.43-.74-.75-2.48.97-2.48.79 0 .93-.13.55-.48-.26-.24-.65-.21-.9.06-.23.24-1.22.19-1.22-.06 0-.87 1.76-1.47 2.69-.92.71.42.76.58.76 2.33v1.57l-.7.03c-.39.01-.95.05-1.25.08-.41.04-.64 0-.9-.13Zm8.55.03c-1.18-.52-1.64-2.22-.9-3.28 1.15-1.62 3.79-.77 3.63 1.18l-.03.39-1.37.03c-1.5.03-1.56.06-1.09.53.37.37.79.38 1.19.04.58-.48 1.34-.03.92.55-.45.63-1.58.9-2.35.56Zm-15-.08c-.03-.07-.04-1.37-.03-2.88l.03-2.75h1.1v5.7l-.53.03c-.36.02-.54-.01-.57-.1Zm9.9 0c-.08-.29-.13-2.29-.07-3.08l.07-.85.41-.03c.27-.02.45.02.53.12.11.14.16.13.38-.02.38-.24 1.25-.22 1.6.04.55.4.64.73.61 2.39l-.03 1.5-.49.03c-.64.04-.66.01-.64-1.43.01-1.41-.07-1.65-.56-1.65-.57 0-.66.2-.73 1.74l-.06 1.36h-.49c-.3 0-.5-.05-.53-.12Zm8.3 0c-.03-.08-.04-.99-.03-2.03l.03-1.9.34-.03c.19-.02.44.02.56.08.17.09.28.09.43.01.11-.06.37-.11.57-.11h.36l-.03.53c-.03.5-.04.52-.34.55-.63.06-.78.38-.84 1.75l-.05 1.22-.48.03c-.32.02-.49-.01-.52-.1Zm-20.1-.25c.4-.2.83-.61 1.01-.96.14-.26.13-.28-.11-.37-.37-.14-.39-.13-.58.2-.35.58-1.32.86-2.04.59-1.58-.59-1.58-3.49 0-4.08.71-.27 1.59-.04 2.03.54.21.28.29.32.51.26.92-.25-.66-1.51-1.89-1.51-3.07 0-3.51 4.76-.51 5.49.46.12 1.17.04 1.58-.16Zm5.94.17c.32-.09.91-.55.91-.71 0-.18-.45-.16-.71.03-.65.48-1.79-.01-1.79-.77v-.25h2.83l-.06-.5c-.26-2.19-3.48-1.91-3.47.31.01 1.27 1.15 2.22 2.29 1.89Zm3.87-.15c.58-.29.54-.29.54-.1q0 .15.3.15h.3v-1.35c0-1-.04-1.44-.15-1.64-.39-.76-2.08-.82-2.59-.1-.26.38.25.48.66.14.49-.41 1.05-.3 1.34.26.31.6.19.73-.66.7-1.18-.03-1.77.39-1.66 1.18.13.87 1.01 1.22 1.92.76Zm8.52.1c.36-.16.82-.52.82-.66 0-.18-.53-.19-.74-.01-.63.57-1.59.2-1.81-.71l-.07-.26 1.38-.03 1.39-.03.03-.38c.13-1.57-2.21-2.17-3.14-.8-.99 1.47.55 3.54 2.14 2.88ZM19.22 42.9l.03-2.6h-.65v5.2h.59zm9.88 1.45c0-1.52.21-1.95.95-1.95.65 0 .85.44.85 1.84v1.26h.6v-1.4c0-.86-.05-1.49-.12-1.65-.26-.58-1.19-.73-1.82-.3-.45.3-.56.31-.56.05 0-.16-.07-.2-.3-.2h-.3v3.5h.7zm8.23.11c.08-1.37.41-1.96 1.12-1.96q.15 0 .15-.3c0-.16-.05-.3-.1-.3-.2 0-.75.27-.89.43-.19.24-.31.21-.31-.08 0-.2-.05-.25-.25-.25h-.25v3.5h.23c.23 0 .24-.03.3-1.04Zm-11.98.62c-.78-.44-.36-1.21.65-1.19.7.01.8.05.8.31 0 .72-.84 1.23-1.45.88Zm.95-.38c.38-.38.21-.6-.45-.6-.34 0-.65.21-.65.44 0 .38.76.5 1.1.16Zm-5.45-1.3c-.23-.36.38-1.05.94-1.05.62 0 1.24.57 1.08.99-.07.18-1.91.24-2.02.06Zm12.2 0c-.22-.36.43-1.05 1-1.05.56 0 1.31.72 1.1 1.05-.08.13-2.02.13-2.1 0Zm-10.45-.27c0-.45-.89-.67-1.27-.31-.35.33-.29.38.52.38.41 0 .75-.03.75-.07ZM34.8 43c-.22-.41-.94-.55-1.22-.22-.35.4-.33.42.52.42.77 0 .8-.01.7-.2Zm-10.7-5.09c-3.59-.07-3.73-.09-4.46-.78-1.03-.97-1.11-1.38-1.29-6.33-.08-2.23-.22-5.71-.3-7.75-.17-4.06-.17-4.13.27-4.5.71-.6 1.87-.14 2.03.81.11.68.17.7.31.16.27-1.05.57-1.26 1.67-1.2.83.05 1.2.35 1.32 1.09.11.7.21.77.3.23.15-1.02.53-1.34 1.57-1.34 1.02 0 1.58.58 1.58 1.63 0 .32.09.15.26-.49.23-.92.46-1.09 1.49-1.09 1.06 0 1.36.22 1.58 1.19l.13.61.12-.53c.24-1.07.51-1.32 1.39-1.32.38 0 .5.05.79.34.4.4.38.21.24 3.21-.05 1.16-.19 4.4-.3 7.2-.28 6.94-.3 7.09-1.39 8.07-.91.82-1.57.89-7.31.79Zm5.93-.36c.99-.26 1.62-.81 2.02-1.78.2-.49.31-2.05.5-7.17.09-2.34.2-5.1.25-6.15.19-3.79.18-3.85-.85-3.85-.68 0-.78.13-1 1.25-.31 1.57-.45 1.59-.74.1-.26-1.26-.35-1.35-1.35-1.35-.98 0-1.08.11-1.32 1.34-.28 1.53-.43 1.54-.69.09-.23-1.28-.37-1.43-1.35-1.43s-1.11.14-1.34 1.43c-.25 1.35-.41 1.37-.65.07-.26-1.42-.34-1.5-1.36-1.5-.91 0-1.06.16-1.3 1.4-.25 1.32-.45 1.45-.6.41-.23-1.57-.38-1.81-1.15-1.81-.98 0-.99.07-.8 4.15.05 1.1.14 3.31.2 4.9.26 7.03.29 7.4.44 7.91.3.98 1.08 1.74 2.06 2 .72.2 8.28.19 9.03-.01Zm-4.9-3.07c-.08-.09-.09-1.8-.05-5.73l.07-5.6h.8v11.4l-.36.03c-.21.02-.4-.02-.46-.1Zm.52-5.64c0-4.81-.02-5.49-.15-5.49s-.15.68-.18 5.4c-.02 5.49-.01 5.7.21 5.62.09-.03.12-1.23.12-5.53Zm-3.84 3.72c-.08-.09-.1-1.36-.09-4.52l.03-4.39h.8l.03 4.39c.02 4.62.02 4.66-.43 4.66-.12 0-.28-.06-.34-.14Zm6.81.01c-.09-.11-.12-1.28-.1-4.53l.03-4.39.42-.03c.58-.04.57-.19.47 4.76l-.09 4.27-.31.03c-.18.02-.36-.03-.42-.11Zm-6.27-4.45V23.9h-.43l.04 4.13c.03 2.26.05 4.18.04 4.25 0 .08.08.12.18.1.16-.03.17-.31.17-4.26Zm6.85.03c0-4.18 0-4.25-.2-4.25s-.2.07-.2 4.25 0 4.25.2 4.25.2-.07.2-4.25Zm.9-11.1c-1.29-.18-4.26-.58-6.6-.89s-4.43-.62-4.65-.69c-1-.31-1.13-1.72-.2-2.23.32-.17.4-.17 2.15 0l1.81.19.62-.65c.75-.79 1.23-.98 2.41-.98 1.98.01 3.2.66 3.85 2.07.27.58.18.54 1.81.78 1.87.27 2.06.33 2.39.71.57.64.35 1.57-.45 1.9-.42.17-.32.18-3.14-.21Zm3.28-.2c.58-.48.45-1.3-.24-1.57-.22-.09-.95-.23-1.64-.33-1.87-.25-1.94-.28-2.15-.77-.66-1.5-1.71-2.1-3.7-2.11-1.15-.01-1.51.15-2.31.98-.35.36-.71.65-.81.65s-.74-.07-1.43-.15c-2.38-.28-2.8-.16-2.8.78 0 .88-.16.83 5.02 1.52 2.33.32 5.29.72 6.58.9 2.98.41 3.1.42 3.48.1Zm-.08-5.61c-3.84-.58-6.55-2.96-7.41-6.5-.26-1.03-.35-4.64-.13-4.71.09-.03.13.52.16 1.99.06 2.38.2 3.06.95 4.58.87 1.78 2.7 3.3 4.83 4.03l.95.32 9.28.03c8.06.02 9.27.05 9.27.17 0 .14-17.02.22-17.9.09Zm1.54-3.4c-2.03-1.38-1.07-5.25 1.21-4.9 2 .32 2.41 4.05.54 5.02-.47.24-1.3.18-1.75-.12Zm4.59.18-1.33-.03-.01-.27c-.03-.57.06-.7 1.05-1.64 1.11-1.05 1.36-1.43 1.18-1.83-.25-.54-1.02-.41-1.28.21-.15.35-.16.36-.57.3-.52-.09-.51-.08-.42-.53.23-1.25 1.97-1.72 3-.82.87.77.6 1.79-.79 3.05l-.59.54h.9c.74 0 .92.03.97.16.09.22.07.84-.01.85-.25.03-.94.04-2.1.01Zm3.52-.06c-.81-.36-1.15-1.08-1.15-2.43 0-2.01 1.03-2.99 2.62-2.51.77.23 1.42 1.27.81 1.29-.16 0-.37.04-.48.08-.15.06-.26.01-.46-.21-.51-.54-1.39-.15-1.39.62v.29l.35-.15c1.75-.73 3.19 1.13 1.98 2.57-.48.56-1.55.77-2.28.45Zm-12.78-.03c-.04-.03-.07-.22-.07-.42 0-.33.1-.46 1.16-1.47l1.15-1.12-.03-.43c-.05-.75-.93-.83-1.25-.11-.1.2-.18.38-.19.4-.01.01-.2 0-.43-.04-.49-.08-.54-.3-.21-.93.67-1.32 2.99-1.09 3.26.33.12.67-.1 1.12-.99 2.03l-.82.82.9.03.9.03.03.48.03.47h-1.69c-.93 0-1.72-.03-1.75-.07Zm6.3-.22c1.38-.63 1.39-3.66.01-4.37-.41-.21-1.29-.15-1.66.13-1.06.79-1.06 3.26 0 4.06.54.41 1.02.46 1.65.18Zm8.23-.09c.79-.59.94-1.67.31-2.24-.37-.33-1.16-.39-1.78-.13-.6.25-.66.22-.61-.34.11-1.14 1.16-1.7 1.81-.97.28.31.84.18.66-.15-.28-.54-1.44-.78-2.09-.44-1.34.69-1.32 3.66.03 4.35.5.25 1.26.22 1.67-.08Zm-12.17.12c.66-.06.77-.1.77-.25 0-.17-.09-.19-1-.19-1.25 0-1.25-.02-.14-1.09.89-.87 1.14-1.27 1.14-1.84 0-1.18-1.96-1.62-2.68-.6-.35.5-.37.73-.08.73.14 0 .26-.04.26-.09 0-.48.84-.88 1.37-.66.99.41.69 1.18-1.1 2.82-.54.51-.67.68-.67.93v.3h.68c.38 0 1.03-.03 1.45-.06Zm8.77-.19c0-.25 0-.25-.98-.25-.54 0-1.02-.03-1.05-.07-.04-.03.33-.48.83-.98 1.18-1.21 1.41-1.75 1.01-2.41-.65-1.07-2.81-.69-2.81.51 0 .29.44.17.59-.16.38-.87 1.73-.6 1.73.35 0 .46-.23.76-1.37 1.81-.78.72-.95.93-.95 1.16v.29h3zm-6.14-.47c-1.33-1.33-.11-4.42 1.24-3.13.37.35.5.79.5 1.65-.01 1.49-.94 2.28-1.74 1.48Zm7.89-.01c-.45-.45-.53-.81-.28-1.15.6-.81 1.82-.65 1.99.25a1 1 0 0 1-1.71.9Zm-6.77-.2c.6-.64.45-2.58-.23-2.89-.66-.3-1.14.35-1.15 1.55 0 1.32.73 2.03 1.38 1.34Zm8.02.03c.2-.2.27-.74.12-.96-.38-.57-1.52-.25-1.52.43 0 .61.96.97 1.4.53Z"/></svg>