<svg xmlns="http://www.w3.org/2000/svg" width="51" height="51" viewBox="0 0 51 51"><path fill="#fff" fill-rule="evenodd" stroke="#fff" stroke-width=".783" d="M24.64 40.56c-.18-.08-1.26-.7-2.4-1.38-1.15-.69-3.15-1.84-4.44-2.58-4.75-2.69-5.09-2.94-5.44-3.97-.23-.68-.24-13.32-.01-14.1.23-.77.8-1.34 2.14-2.12 10-5.86 9.99-5.86 11.04-5.86 1.15 0 .87-.14 8.07 4.03 4.51 2.62 4.95 2.95 5.24 3.93.27.91.24 13.38-.04 14.11-.37 1-.78 1.31-4.95 3.73-1.59.92-3.69 2.14-4.65 2.7-2.67 1.56-2.74 1.59-3.55 1.63-.45.01-.81-.03-1.01-.12Zm2.27-.43c1.55-.85 9.55-5.53 10.24-5.98 1.73-1.15 1.67-.79 1.63-8.85-.03-6.6-.03-6.65-.25-7.05-.44-.81-.57-.91-4.73-3.32-7.18-4.18-7.15-4.16-8.25-4.17-.97 0-1.04.03-4.82 2.25-1.42.83-3.59 2.09-4.83 2.8-2.63 1.51-3.2 2-3.4 2.91-.08.38-.1 2.44-.08 7.13.03 6.55.03 6.6.25 7 .45.84.6.94 5.13 3.52 1.73.99 3.88 2.24 4.78 2.77 2.24 1.34 2.33 1.38 3.13 1.33.5-.03.8-.12 1.2-.34Zm-9.73-8.71c-.62-.38-.69-1.2-.15-1.69.19-.18 4.55-2.73 6.8-3.97l.67-.38v-4.24c0-4.67.01-4.79.59-5.08.38-.2.54-.2.91-.01.55.28.55.26.6 5l.05 4.39 3.45 1.97c4.13 2.37 3.98 2.27 4.16 2.61.41.77-.24 1.69-1.1 1.55-.23-.04-4.86-2.63-7.57-4.23-.04-.02-.94.47-2 1.08-6.24 3.6-5.8 3.39-6.41 3Zm4.19-1.95c1.75-1.01 3.4-1.96 3.67-2.1l.5-.26.5.27c.28.16 1.98 1.13 3.78 2.16 3.6 2.07 3.69 2.1 4.18 1.49.43-.55.18-1.09-.72-1.58-.87-.47-6.62-3.77-6.75-3.87-.1-.08-.13-1.1-.13-4.5v-4.4l-.29-.29c-.36-.36-.7-.37-1.08-.05l-.28.24-.03 4.46-.03 4.45-1.22.7c-6.01 3.41-6.42 3.67-6.58 4.09-.21.56.34 1.17.98 1.08.17-.03 1.75-.87 3.5-1.89Z"/></svg>