<svg xmlns="http://www.w3.org/2000/svg" width="51" height="51" viewBox="0 0 51 51"><path fill="#fff" fill-rule="evenodd" stroke="#fff" stroke-width=".787" d="M11.55 35.17c-.09-.23-.01-19.14.08-19.23.16-.17 3.97-.08 4.82.1 2.38.52 4.2 1.62 5.65 3.43 4.35 5.41 1.59 13.75-5.15 15.55-1.05.28-5.31.4-5.4.15Zm23.23-.03c-6.22-1.13-9.66-8.13-6.83-13.89 1.84-3.73 5.76-5.73 10.6-5.4l1.02.07.07.81c.07 1.02.06 14.87-.03 16.97l-.06 1.55-2 .02c-1.35.01-2.25-.03-2.77-.13ZM15.16 35c1.5-.12 2.19-.31 3.49-.95 6.34-3.14 7.18-11.8 1.55-16.07-1.78-1.36-3.92-1.93-6.95-1.86l-1.4.03-.03 9.42-.02 9.42.77.04c.43.01.94.04 1.13.05s.85-.02 1.46-.08Zm24.22-9.42-.03-9.43h-1.8c-2.56.01-3.67.24-5.39 1.14-6.03 3.13-6.69 11.76-1.21 15.84 1.96 1.46 3.31 1.85 6.43 1.86l2.02.01z"/></svg>