<svg xmlns="http://www.w3.org/2000/svg" width="51" height="51" viewBox="0 0 51 51"><path fill="#fff" fill-rule="evenodd" stroke="#fff" stroke-width=".676" d="M0 25.56C0 8.59.03 0 .1 0c.14 0 .14 50.96 0 51.05-.07.04-.1-8.48-.1-25.49Zm16.71 25.22c-.56-1.48-.3-4.2.59-6.06 3.34-7 13.33-7.04 16.71-.06.93 1.93 1.11 5.18.34 6.2-.19.26-.18.11.05-.81 1.4-5.47-3.78-11.02-9.67-10.36-5.27.6-8.96 5.49-7.94 10.54.14.69.09 1-.08.55Zm5.19-5.33V42.2h1v6.5h-1zm2.28 3.19c-.05-.04-.08-1.53-.08-3.32v-3.25l1.43.05c1.65.06 2.3.25 2.92.85 1.55 1.51 1.06 4.59-.88 5.44-.54.24-3.21.42-3.39.23Zm-1.48-3.19V42.4h-.6v6.1h.6zm4.75 2.76c1.07-.47 1.67-1.48 1.68-2.8.02-2.1-.98-2.98-3.55-3.08l-1.28-.06v3.05c0 1.68.03 3.08.08 3.12.17.18 2.55 0 3.07-.23Zm-2.5-.32c-.03-.08-.04-1.25-.03-2.59l.03-2.45.44-.03c2-.15 3.06.74 3.06 2.58 0 1.8-.64 2.42-2.62 2.57-.66.05-.84.03-.88-.08Zm1.96-.3c1.84-.48 1.85-3.89.02-4.38-.23-.06-.73-.13-1.1-.14l-.68-.02-.03 2.39-.02 2.39.72-.07c.4-.04.89-.11 1.09-.17Zm-12.18-8.93c-1.57-.51-2.57-2.52-1.98-3.98.06-.15.03-.16-.27-.07-1.97.59-3.96-.95-3.86-2.98.03-.72.09-.9.71-2.19 2.42-5.11 2.43-10.29.01-15.46-.59-1.24-.68-1.52-.72-2.14-.12-1.89 1.59-3.36 3.54-3.04.68.11.7.1.55-.31-.47-1.35.57-3.22 2.04-3.64.94-.28 1.52-.17 3.12.55 5.13 2.34 10.01 2.48 14.55.44 2.56-1.15 2.37-1.09 3.23-1.09 1.21 0 2.08.54 2.67 1.68.24.45.32 1.77.15 2.26-.09.22-.08.23.25.15 2.04-.52 3.93.83 3.93 2.81-.01.75-.04.87-.53 1.95-1.53 3.32-1.92 4.98-1.92 8.22 0 2.95.45 5 1.61 7.31.95 1.88 1.1 2.76.65 3.74-.66 1.41-2.4 2.23-3.69 1.74-.16-.06-.3-.11-.32-.11s.04.21.12.48c.52 1.68-.85 3.63-2.67 3.79-.69.07-.97-.02-2.62-.78-2.8-1.3-4.62-1.71-7.68-1.7-3.09 0-4.86.4-7.89 1.81-1.47.69-2.18.82-2.98.56Zm3.09-.84c5.38-2.45 10.34-2.45 15.63 0 2.04.94 2.62.98 3.72.25 1.23-.82 1.53-1.97.98-3.74l-.07-.22.53.21c1.43.54 3-.14 3.66-1.59.41-.89.31-1.47-.55-3.29-1.35-2.87-1.74-4.54-1.75-7.54-.01-3.29.39-5 1.97-8.46.7-1.52.71-2.28.07-3.25-.79-1.17-2.37-1.56-3.82-.95-.14.06-.14 0 .03-.51.59-1.73-.5-3.55-2.27-3.79-.62-.09-1.2.08-2.68.77-5.08 2.37-9.89 2.38-15.17.04-2.52-1.12-3.29-1.11-4.42.05-.86.88-1.07 1.76-.68 2.87.24.68.25.66-.3.47-1.02-.36-2.33-.08-3.08.65-1.02 1-1.06 2.03-.13 4 1.4 3 1.81 4.77 1.81 7.86 0 3.1-.46 5.12-1.77 7.88-.98 2.07-.98 2.95.02 4.05.78.87 2.02 1.16 3.15.73.32-.12.49-.15.46-.08-.62 1.47-.41 2.66.65 3.61 1.08.97 1.83.97 4.01-.02ZM15 32.33c0-.04.19-.32.43-.62.42-.54 2.81-3.92 4.65-6.57 1.91-2.77 2.07-3.47 1.15-4.99-.62-1.01-4.52-6.62-5.55-7.98-1.02-1.35-.92-1.4.48-.24.55.45 1.49 1.23 2.09 1.72.61.49 2.17 1.78 3.48 2.86 2.4 1.99 2.57 2.09 3.36 2.09.92 0 4.13-2.08 8.69-5.64 2.28-1.78 2.31-1.8 2.38-1.73.03.02-1.6 2.02-3.61 4.43-3.97 4.76-4.17 5.06-4.17 6.07-.01.9.24 1.31 2.09 3.52.87 1.05 2.4 2.87 3.39 4.05 2.1 2.52 2.39 2.88 2.31 2.97-.04.03-.32-.17-.64-.44-2.37-2.03-7.35-5.52-8.93-6.27-.6-.28-.73-.31-1.7-.31-1.3.01-1.21-.03-3.25 1.66-.88.74-2.39 1.99-3.35 2.78-.96.8-2.07 1.73-2.46 2.08-.69.61-.84.71-.84.56Zm3.55-3.15c1.04-.86 2.48-2.04 3.19-2.63 3.57-2.95 4.26-2.98 7.23-.35 2.15 1.91 6.06 5.02 5.86 4.67-.04-.09-.71-.91-1.48-1.83-5.23-6.25-5.19-6.2-5.19-7.29 0-1.19-.02-1.15 4.07-6.05 2.59-3.09 2.84-3.42 2.21-2.95-1.07.81-2.46 1.94-4.04 3.31-3.19 2.75-3.72 3.09-4.8 3.09-1.06 0-.97.06-5.45-3.65-3.45-2.86-4.19-3.45-4.1-3.3.21.36 3.02 3.74 5.43 6.55 2.14 2.5 2.14 3.41-.04 6-4.67 5.55-5.46 6.53-4.98 6.14.1-.09 1.05-.86 2.09-1.71Zm2.25-4.03c2.09-2.47 2.41-3.3 1.75-4.61-.18-.36-3.93-4.9-4.33-5.24-.03-.03.19.31.5.75 4.09 5.92 4.04 5.62 1.37 9.46-1.97 2.83-1.98 2.83.71-.36Zm8.7 1.81c-2.36-2.25-3.61-2.81-4.95-2.2l-.4.18.99.07c1.13.08 1.87.39 3.51 1.48.94.62 1.09.7.85.47Zm-2.95-8.21c.35-.14 2.08-1.44 2.8-2.09.4-.36.2-.26-.95.51-1.6 1.06-2.48 1.52-3.13 1.61-.41.06-.41.06-.12.13.36.08.99.01 1.4-.16ZM13.12.03c6.7-.02 17.66-.02 24.35 0 6.7.01 1.22.02-12.17.02S6.43.04 13.12.03Z"/></svg>