<svg xmlns="http://www.w3.org/2000/svg" width="51" height="51" viewBox="0 0 51 51"><path fill="#fff" fill-rule="evenodd" stroke="#fff" stroke-width=".431" d="M0 25.6V0h51.2v51.2H0zm50.98.02L50.95.25H25.63C11.71.25.3.27.28.3s-.02 11.45 0 25.38L.3 51H51zM33.2 39.8c-1.37-.1-2.87-.33-5.42-.8-7.36-1.38-12.92-1.25-18.51.45-.97.29-1.09.31-1.15.16-.1-.22-.09-24.8.01-25.13.21-.78 3.31-2.08 6.17-2.59 3.54-.64 6.51-.39 12.05 1.01 1.71.43 3.58.88 4.16 1 4.17.83 9.17.08 11.74-1.75.73-.51.81-.53.92-.22.04.12.07 5.8.05 12.62l-.03 12.4-.25.26c-1.57 1.64-6.12 2.85-9.74 2.59Zm3.21-.34c2.31-.31 4.24-1 5.87-2.09l.62-.42.01-6.65c.01-3.66.03-8.04.06-9.75.02-1.71.01-4.32-.03-5.82l-.06-2.71-.46.35c-1.71 1.31-4.89 2.12-8.27 2.13-2.25 0-3.95-.28-7.61-1.26-2.32-.62-3.62-.9-5.27-1.15-4.33-.67-9.28.1-12.14 1.87l-.71.44-.07.93c-.08 1.17-.02 23.93.07 24.02.03.04.43-.05.87-.19 5.21-1.65 11.06-1.79 18.36-.46 4.77.87 6.68 1.03 8.76.76Zm-21.44-6.33c-.09-.08-.09-14.16-.01-14.37.05-.14.31-.16 1.89-.16 2.06 0 1.95-.05 1.95.81v.49l.39-.39c1.88-1.88 5.17-1.81 6.99.14l.61.64.64-.64c2.46-2.46 6.88-1.71 8.33 1.4.52 1.11.55 1.49.52 7l-.03 5.1-1.92.03-1.91.02-.07-.29c-.03-.16-.05-2.27-.03-4.68.03-4.05.02-4.41-.15-4.78-.82-1.82-3.24-1.88-4.2-.1-.22.39-.22.5-.24 4.9-.02 2.48-.05 4.6-.08 4.73l-.05.22-1.93-.02-1.92-.03-.05-4.65c-.05-4.2-.07-4.69-.23-5.05-.87-1.93-3.66-1.84-4.37.13-.1.28-.14 1.48-.17 5l-.04 4.62h-1.93c-1.06 0-1.96-.03-1.99-.07Zm3.73-4.83.05-4.65.27-.52c1.02-1.93 3.77-1.77 4.72.27.2.43.21.63.24 5.03l.03 4.57 1.67-.02 1.67-.03.05-4.55c.05-4.36.06-4.57.26-5.01 1.01-2.18 4.01-2.13 4.8.08.1.3.13 1.39.14 4.93v4.55H36v-5.06c0-4.75-.01-5.11-.2-5.85-.96-3.75-5.74-4.87-8.39-1.97l-.69.76-.25-.39c-1.6-2.54-5.79-2.7-7.49-.29-.41.58-.48.51-.48-.51v-.84h-1.19c-.65 0-1.39.03-1.65.06l-.46.07V33l1.73-.02 1.72-.03z"/></svg>