<svg xmlns="http://www.w3.org/2000/svg" width="51" height="51" viewBox="0 0 51 51"><path fill="#fff" fill-rule="evenodd" stroke="#fff" stroke-width=".44" d="M19.62 49.52c.03-1.64.04-1.7.3-2.09.7-1.05 2.15-.88 2.69.32.21.45.29 3.45.09 3.45-.06 0-.1-.53-.1-1.37 0-2.14-.34-2.83-1.38-2.83-1.11 0-1.42.6-1.42 2.7 0 .99-.04 1.5-.11 1.5s-.09-.54-.07-1.68Zm8.78.1c0-1.31.03-1.64.19-1.98.61-1.35 2.5-1.13 2.9.33.13.46.15 3.23.02 3.23-.05 0-.11-.69-.13-1.52-.06-2.1-.37-2.68-1.41-2.68-1.06 0-1.37.61-1.37 2.68 0 .95-.04 1.52-.1 1.52s-.1-.59-.1-1.58Zm-7.85-4.91c-.88-.39-1.05-.94-1.05-3.52v-2.16l-1.02-.06c-3.86-.24-5.97-2.38-6.23-6.34l-.07-1.02-2.38-.03c-2.24-.03-2.4-.04-2.67-.24-1-.75-.98-2.01.06-2.71.33-.22.41-.23 2.67-.23h2.34v-5.6H9.97c-2.11 0-2.25-.01-2.67-.22-1.16-.59-1.22-2-.12-2.74.45-.31 1.25-.38 3.27-.29l1.72.07.08-.98c.3-4.14 2.26-6.16 6.23-6.41l1.02-.06v-1.93c0-1.06.05-2.16.11-2.44.34-1.61 2.24-1.93 2.97-.5.21.42.22.56.22 2.67v2.23h5.48l.04-2.28c.03-2.12.05-2.3.25-2.68.62-1.17 2.2-1.13 2.81.06.21.42.22.56.22 2.66v2.21l1.08.06c3.86.23 6.01 2.37 6.21 6.22l.06 1.1h4.61l.41.27c1.09.72 1.03 2.22-.11 2.77-.39.19-.6.21-2.69.21H38.9v2.49c0 1.37.03 2.63.06 2.8l.07.31h2.24c2.51 0 2.81.07 3.21.72.43.72.4 1.27-.11 1.85-.52.59-.7.63-3.22.63H38.9v.89c0 3.88-2.27 6.22-6.28 6.47l-1.02.07v2.2c0 2.97-.26 3.52-1.65 3.52-1.37 0-1.59-.46-1.63-3.47L28.29 39H22.8v2.25c0 2.52-.06 2.79-.71 3.26-.35.25-1.19.35-1.54.2Zm1.25-.3c.71-.38.8-.73.8-3.33V38.8h6.01l-.01 2.32c-.02 2.51.01 2.71.49 3.11.57.47 1.15.47 1.72 0 .55-.46.59-.69.59-3.17v-2.24l.98-.07c4.23-.3 6.32-2.48 6.32-6.61v-.74h2.23c1.22 0 2.39-.05 2.59-.1.91-.26 1.3-1.41.71-2.11-.47-.55-.69-.59-3.23-.59h-2.3v-6h2.13c1.16-.01 2.32-.05 2.57-.09.99-.2 1.46-1.36.84-2.11-.49-.58-.61-.6-3.17-.6h-2.34l-.07-1.23c-.2-3.91-2.19-5.87-6.21-6.13l-1.04-.07-.03-2.36c-.03-2.25-.04-2.38-.26-2.72-.58-.95-1.86-.88-2.38.13-.11.21-.14.8-.14 2.63v2.35h-5.99l-.03-2.37c-.03-2.06-.05-2.42-.21-2.71-.38-.69-1.24-.92-1.88-.49s-.69.64-.69 3.23v2.31l-1.09.07c-3.77.22-5.97 2.22-6.17 5.58-.03.51-.07 1.12-.1 1.36l-.05.42h-2.32c-2.07 0-2.36.02-2.67.19-.74.39-1 1.21-.59 1.88.4.64.56.68 3.27.71l2.42.03v2.32c0 1.28-.03 2.62-.07 3l-.06.67h-2.31c-2 0-2.36.02-2.66.18-1.06.53-1.04 1.94.03 2.43.37.16.68.19 2.73.19h2.31l.06 1.33c.16 3.73 2.09 5.66 5.95 5.99l1.32.11-.02 2.31c-.03 2.18-.02 2.33.18 2.66.43.73 1.16.98 1.84.61Zm-4.4-8.67c-.92-.25-1.78-1.11-2-2.01-.15-.64-.24-10.81-.12-13.93.13-3.52.57-4.2 2.89-4.51 1.43-.19 15.07-.07 15.69.14 1.45.48 1.91 1.27 2.04 3.43.12 2.1.04 14.06-.09 14.67-.23 1.01-.77 1.68-1.66 2.09l-.5.23-7.85.02c-6.68.02-7.93 0-8.4-.13Zm15.83-.14c1.14-.17 1.75-.6 2.19-1.55l.23-.5v-7.9c0-8.87.03-8.55-.73-9.27-.6-.58-1.1-.77-2.27-.89-1.5-.15-14.43-.06-15.08.1-.78.21-1.38.67-1.72 1.36l-.3.6v16l.23.5c.42.92 1.07 1.39 2.1 1.54.82.12 14.52.13 15.35.01ZM0 31.52c0-.06.64-.12 1.58-.14 2.08-.04 2.56-.3 2.56-1.39 0-1.1-.43-1.33-2.51-1.37C.66 28.6 0 28.54 0 28.48c0-.21 3.36-.05 3.66.18.97.72.97 1.96 0 2.68-.3.23-3.66.39-3.66.18Zm24.1-.08c-5-1.34-6.13-7.96-1.85-10.83 5.16-3.45 11.54 2.33 8.63 7.82-1.27 2.39-4.22 3.7-6.78 3.01Zm23.53-.05c-.87-.43-1.14-1.47-.59-2.29.41-.62.69-.7 2.56-.7 2.15 0 2.06.17-.11.22l-1.7.03-.41.43c-.39.42-.4.46-.36.99.09 1.08.6 1.32 2.86 1.33.81 0 1.32.04 1.32.1 0 .22-3.1.12-3.57-.11Zm-20.74-.14c2.81-.67 4.82-3.55 4.43-6.36-.76-5.38-7.58-6.94-10.59-2.41-2.81 4.24 1.19 9.94 6.16 8.77Zm-2.09-2.74c-3.34-1.02-2.64-5.86.85-5.86 2.74 0 3.93 3.27 1.88 5.15-.76.69-1.85.98-2.73.71Zm1.9-.43c2.64-1.13 1.86-5.18-1-5.18-1.69 0-2.8 1.07-2.8 2.7 0 2.08 1.88 3.31 3.8 2.48ZM0 22.72c0-.09 1.46-.22 2.61-.22 1.45 0 2.12-1.34 1.12-2.27l-.34-.33h-1.7C.22 19.9 0 19.88 0 19.74c0-.27 3.29-.16 3.67.12.98.73.98 1.95 0 2.68-.31.23-3.67.4-3.67.18Zm47.86-.02c-1.31-.4-1.48-2.28-.25-2.9.51-.27 3.59-.31 3.59-.05 0 .13-.26.15-1.71.15h-1.71l-.39.39c-.62.61-.5 1.56.24 2.01.28.18.51.2 1.95.2 1.37 0 1.62.02 1.62.15 0 .17-2.79.21-3.34.05ZM20.49 4.27c-.76-.39-.89-.8-.89-2.69 0-.99.04-1.58.1-1.58s.1.57.1 1.5c0 2.05.32 2.7 1.33 2.7 1.11 0 1.41-.54 1.45-2.62.05-2.03.22-2.07.22-.05 0 1.65-.11 2.08-.61 2.54-.52.47-1.05.54-1.7.2Zm8.81.01c-.78-.4-.9-.73-.9-2.66 0-1.01.04-1.62.1-1.62s.1.57.1 1.52c0 2.07.31 2.68 1.37 2.68 1.03 0 1.34-.58 1.41-2.67.06-1.95.22-2 .22-.05-.01 1.97-.18 2.43-1.05 2.83-.52.24-.72.24-1.25-.03Z"/></svg>