<svg xmlns="http://www.w3.org/2000/svg" width="51" height="51" viewBox="0 0 51 51"><path fill="#fff" fill-rule="evenodd" stroke="#fff" stroke-width=".738" d="M39.3 41.71c-1.73-.54-3.72-1.17-4.42-1.39-1.54-.51-1.37-.51-2.4-.03C20.24 45.95 6.62 35.9 8.61 22.68 10.66 9.01 27.48 3.57 37.3 13.4c5.15 5.15 6.32 13.16 2.87 19.63l-.41.78.17.47c.7 1.9 2.77 8.24 2.72 8.32-.08.14.15.2-3.35-.89Zm2.95.22c-.15-.51-2.19-6.58-2.53-7.55l-.21-.57.54-1.06c2-3.93 2.39-8.75 1.04-12.8C38.18 11.2 28.57 6.52 19.76 9.57c-5.59 1.93-9.55 6.45-10.78 12.31-.33 1.57-.33 5.07 0 6.62 2.3 10.62 13.55 16.11 23.57 11.5l.89-.41 2.65.85c1.46.47 3.47 1.1 4.46 1.4s1.81.55 1.82.55c.01.01-.04-.2-.12-.46ZM23.27 39.1c-8.14-1.29-13.54-8.89-11.91-16.78 1.61-7.82 9.79-12.84 17.53-10.77 9.22 2.47 13.4 12.84 8.46 20.95l-.53.88.83 2.54c.63 1.92.8 2.54.69 2.56-.14.04-.89-.18-3.45-.99-1.89-.6-1.62-.61-3.01.1-2.19 1.11-3.79 1.51-6.33 1.56-.93.02-1.96 0-2.28-.05Zm4.46-.35c1.32-.23 2.68-.7 4.11-1.41l1.28-.65 2.45.77c1.35.41 2.47.73 2.5.7.03-.02-.3-1.12-.72-2.43l-.77-2.38.17-.3c1.42-2.38 1.98-3.83 2.3-5.95 1.47-9.67-7.62-17.78-17.19-15.34-9.33 2.37-13.52 13.02-8.24 20.96 3.06 4.6 8.65 6.99 14.11 6.03Zm-6.6-5.94c-.26-.12-.52-.35-.7-.62l-.28-.43-.05-5.2c-.03-2.9-.01-5.27.04-5.33.1-.15 9.81-.19 10.04-.05.1.07.12 1.16.1 5.33l-.03 5.25-.28.43c-.53.79-.59.81-4.77.81-3.37 0-3.68-.02-4.07-.19Zm7.77-.11c.41-.11.94-.61 1.09-1.03.07-.19.11-2 .11-5.28V21.4h-9.8v4.68c0 2.57.05 4.94.1 5.27.12.72.56 1.24 1.17 1.35.58.12 6.93.11 7.33 0Zm-9.68-13.12.03-.93 1.54-.06 1.54-.06.31-.36.31-.37h4.39l.4.39.41.4 1.5.03 1.5.03.03.93.03.92H19.19zm11.68-.03v-.75h-2.99l-.32-.4-.32-.4h-4.13l-.38.39-.38.38-1.39.05c-1.6.05-1.56.03-1.51.86l.04.62H30.9z"/></svg>