<svg xmlns="http://www.w3.org/2000/svg" width="51" height="51" viewBox="0 0 51 51"><path fill="#fff" fill-rule="evenodd" stroke="#fff" stroke-width=".758" d="M38.5 40.24c-8.56-1.05-8.65-1.07-9.24-1.62-.93-.88-.61-2.57.57-3.01.46-.18 1.09-.13 3.42.24 3.5.56 5.57.86 5.61.82.03-.02-.64-.98-1.48-2.13-.85-1.15-1.93-2.64-2.42-3.32-.66-.92-.92-1.22-1.04-1.17-.09.03-.5.09-.92.12-4.8.37-7.61-5.35-4.28-8.7l.68-.67-.69-2.03c-.38-1.11-1.01-2.94-1.4-4.06-.7-1.98-.79-2.53-.36-2.11.12.13 1.85 3.85 3.41 7.38.61 1.38.62 1.28-.19 2.02-1.47 1.33-1.59 3.37-.29 4.81.91 1.01 2.1 1.26 3.62.74 1.4-.48 1.44-.46 3.06 1.5.59.72 1.6 1.91 2.24 2.65 1.24 1.44 4.35 5.18 4.86 5.85.92 1.19.9 2.28-.06 2.92-.45.31-.83.29-5.1-.23Zm4.89.08c.68-.36.89-1.19.5-1.98-.19-.39-3.91-4.96-5.49-6.74-.37-.41-1.21-1.41-1.88-2.22-1.73-2.09-1.65-2.04-2.83-1.61-2.27.81-4.21-.12-4.84-2.31-.37-1.28.01-2.53 1.08-3.58.62-.6.69-.7.6-.9-.6-1.38-3.07-6.77-3.09-6.75-.01.01.49 1.52 1.12 3.35l1.14 3.33-.7.65c-1.12 1.06-1.59 2.29-1.45 3.78.29 2.96 2.41 4.68 5.56 4.53l1.16-.06.54.77c.29.42 1.25 1.76 2.14 2.97 1.87 2.55 2.35 3.23 2.35 3.37 0 .12-.17.1-4.55-.59-4.02-.63-4.55-.67-5.05-.38-.94.56-1 2.01-.1 2.65.41.29 1.14.42 5.35.94 2.04.26 4.56.57 5.6.7 2.39.3 2.43.3 2.84.08Zm-36.37-.37c-.39-.28-.54-.7-.42-1.14.1-.39 7.49-10.41 8.28-11.23.49-.52.83-.56 1.82-.24 1.28.41 2.18.29 2.98-.4 1.19-1.01 1.21-3.03.05-3.91-1.26-.96-1.53-1.4-1.33-2.14.17-.62.78-2.23 2.48-6.54.82-2.09 1.69-4.29 1.92-4.88.63-1.61 1.11-2.07 2.17-2.07 1 0 1.65.53 1.79 1.45.11.74.06.87-2.91 7.97l-1.57 3.76.4.54c2.11 2.82 1.16 7.12-1.89 8.62-1.29.63-3.25.86-4.34.51-.17-.05-.4.18-1.35 1.37-.63.79-1.82 2.24-2.65 3.23s-1.68 2.02-1.9 2.29l-.4.49.85-.07c.95-.07 8.48-.93 8.96-1.02.26-.05.33-.12.44-.47.97-3.32 5.09-4.63 7.47-2.4.74.69.56.94-.27.38-1.82-1.23-4.41-.64-5.43 1.23-.26.48-.39.98-.52 1.94-.04.3-.13.51-.23.57-.23.12-12.71 2.23-13.52 2.28-.49.03-.7 0-.88-.12Zm7.58-1.19c3.49-.59 6.44-1.1 6.55-1.15.17-.07.23-.24.32-.9.39-2.68 2.57-4.05 5.36-3.36.12.02-.02-.07-.3-.21-2.22-1.08-5.07.37-5.89 2.99-.13.42-.23.59-.38.62-.49.11-9.75 1.15-10.23 1.15-.4 0-.29-.17 2.03-2.98 1.22-1.47 2.64-3.19 3.16-3.82s1.01-1.14 1.09-1.13.41.07.74.13c4.94.98 8.51-5.01 5.35-8.98l-.4-.5 1.61-3.83c2.93-6.99 2.83-6.73 2.84-7.61 0-1.15-.65-1.71-1.78-1.54-1.04.16-.71-.53-4.83 10.04-1.52 3.89-1.53 3.99-.36 4.83.89.65 1.18 1.07 1.32 1.93.37 2.29-1.88 4.05-4.08 3.17-.72-.29-1.32-.28-1.6.02-.69.74-8.22 10.96-8.28 11.24-.13.66.28 1.07 1.01.99.22-.02 3.26-.52 6.75-1.1Z"/></svg>