<svg xmlns="http://www.w3.org/2000/svg" width="51" height="51" viewBox="0 0 51 51"><path fill="#fff" fill-rule="evenodd" stroke="#fff" stroke-width=".777" d="M9.1 34.51c0-.18 8.48-11.61 8.81-11.88.22-.17.11-.31 3.43 4.12 1.7 2.26 3.18 4.2 3.3 4.33l.22.22 1.02-.76c.56-.42 1.02-.79 1.02-.83 0-.03-.45-.67-1-1.41-2.18-2.95-2.94-4.05-2.93-4.22.02-.25 5.41-7.48 5.58-7.48.07 0 .73.8 1.46 1.78.73.97 2.99 3.97 5.03 6.67 5.07 6.7 6.96 9.27 6.96 9.47 0 .17-.85.18-16.45.18-16.23 0-16.45 0-16.45-.19Zm32.6-.1c0-.12-2.21-3.11-5.74-7.76-2.49-3.28-5.06-6.7-7.24-9.63-.17-.23-.17-.23-2.84 3.37-1.48 1.98-2.68 3.66-2.68 3.73s.45.74 1 1.48c2.61 3.55 3.01 4.12 2.98 4.2-.07.19-2.23 1.71-2.39 1.68s-.77-.81-4.91-6.3c-.99-1.31-1.81-2.38-1.84-2.38-.04 0-7.32 9.71-8.38 11.18l-.38.52h16.21c8.92 0 16.21-.04 16.21-.09Z"/></svg>