<svg xmlns="http://www.w3.org/2000/svg" width="51" height="51" viewBox="0 0 51 51"><path fill="#fff" fill-rule="evenodd" stroke="#fff" stroke-width=".437" d="M40.77 48.12c-.92-.93-1.67-1.76-1.67-1.83 0-.53 1.95-1.99 2.65-1.99 1.63 0 2.11 1.66.88 3.09l-.35.41.52.61.53.6-.3.37c-.45.56-.46.55-2.26-1.26Zm2.06 1.12.19-.25-.51-.59c-.61-.7-.61-.66-.11-1.15.95-.93.95-2.11 0-2.6-.34-.18-.93-.19-1.23-.04-.28.14-1.77 1.6-1.77 1.74 0 .13 3.02 3.14 3.15 3.14.06 0 .18-.11.28-.25Zm-2.03-2.49-.55-.56.58-.56c.63-.6.88-.64 1.34-.21s.39.83-.25 1.51c-.46.48-.47.47-1.12-.18Zm1.37-.49c.14-.26.13-.31-.05-.55q-.465-.63-1.17.09l-.39.4.44.45.44.45.29-.28c.16-.15.36-.4.44-.56Zm2.23-.9L43.06 44l.34-.35c.19-.2.4-.33.47-.31.07.03.16-.09.23-.29.19-.58.36-.63.75-.25.42.41.42.44.09.83l-.25.3.43.46c.23.25.64.69.91.97l.48.5-.38.43-.38.42zm.96-.39c-.96-1.04-.93-.99-.67-1.36.26-.36.26-.43.02-.65-.23-.21-.58.18-.48.54.06.25-.09.36-.29.19-.12-.1-.19-.08-.37.09l-.22.22 1.2 1.2 1.19 1.2.22-.27.22-.27zm1.61-.67c-.79-.24-1.57-1.18-1.57-1.91 0-2.18 2.72-2.66 3.69-.66.68 1.4-.65 3.01-2.12 2.57Zm1.34-.43c1.06-.7.96-2.15-.2-2.88-1.13-.72-2.46-.02-2.46 1.31 0 1.32 1.61 2.27 2.66 1.57Zm-1.06-.47c-.41-.16-.95-.88-.95-1.25 0-1.05 1.18-1.08 1.87-.06.55.81-.06 1.67-.92 1.31Zm.75-.3c.56-.56-.57-1.9-1.24-1.47-.42.28-.36.7.18 1.23.48.48.75.55 1.06.24Zm-31.82-7.9c-7.97-1.26-11.12-11.01-5.35-16.57 4.94-4.76 13.19-3.1 15.72 3.18l.34.84 3.56.03 3.55.02.01-1.72c.02-2.12.05-2.31.42-2.38l.28-.05-.34-.48c-.96-1.35-2.52-1.62-6-1.04-4.18.71-6.31-.22-8.89-3.85-2.16-3.05-3.84-4.03-6.88-4.01-4.29.02-8.34 1.57-11.72 4.47-.83.71-1.22.74-.42.03 1.83-1.63 4.39-3.13 6.64-3.88 2.71-.9 6.48-1.15 8.2-.53 1.66.59 2.88 1.66 4.5 3.93 2.43 3.43 4.52 4.27 8.82 3.56 3.49-.57 5.07-.22 6.08 1.35l.32.5h2.14c2.01 0 2.14.01 2.24.19.06.12.1.96.1 2.05v1.86h1.74c1.45 0 1.77.03 1.9.16.18.18.25 5.58.07 5.68-.05.04-.77.09-1.6.13-.83.03-1.51.09-1.51.13 0 .18 1.54 1.52 2.18 1.89 1.75 1.04 3.95 1.56 6.65 1.56 1.35 0 1.87.03 1.87.12 0 .16-1.52.27-2.64.19-3.56-.25-6.69-1.56-8.06-3.39l-.35-.46-6.48.02-6.48.02-.24.59c-1.62 4-6.11 6.53-10.37 5.86Zm3.54-.4c2.94-.65 5.37-2.71 6.64-5.64l.31-.71 8.16-.03L43 28.4V23h-3.7v-1.59c0-.87-.03-1.79-.06-2.05l-.07-.46H34.3v1.79c0 .99-.05 1.92-.1 2.06l-.1.27-3.7-.04-3.7-.03-.16-.5c-1.89-5.79-9.16-8.17-14.3-4.68-6.18 4.2-5.16 13.76 1.76 16.59 1.57.64 3.98.83 5.72.44Zm-2.65-4.97c-.55-.09-.25-.21.66-.26.5-.03 1.04-.08 1.2-.12.38-.1.35.1-.04.24-.37.13-1.42.21-1.82.14Zm-.44-.67c-3.9-1.27-3.17-6.83.92-7.04 2.84-.14 4.6 2.74 3.23 5.31-.77 1.44-2.64 2.22-4.15 1.73Zm2.2-.33c1.71-.54 2.71-3.06 1.85-4.69-1.69-3.21-6.6-1.82-6.36 1.79.15 2.25 2.25 3.61 4.51 2.9Zm-6.27-10.52c-.26-.41 2.57-1.72 3.94-1.82.68-.06.64.15-.05.23-1.15.15-2.44.65-3.25 1.28-.49.37-.58.42-.64.31Zm17.99-2.53c-.1-.24.57-1.23 1.32-1.95 1.16-1.12 2.95-1.8 5.34-2.02 1.92-.18 4.68-.09 4.76.15.02.07-.58.09-2.04.06-4.94-.1-7.6.9-9.03 3.41-.22.38-.31.47-.35.35Z"/></svg>