<svg xmlns="http://www.w3.org/2000/svg" width="51" height="51" viewBox="0 0 51 51"><path fill="#fff" fill-rule="evenodd" stroke="#fff" stroke-width=".614" d="M22.8 48.54c-9.17-1.25-16.91-7.88-19.14-16.43-2.49-9.49.36-18.45 7.74-24.35 10.59-8.45 26.13-5.87 33.59 5.59 6.96 10.7 3.52 25.44-7.49 32.07-4.39 2.64-9.78 3.78-14.7 3.12Zm4.85-.15c19.03-1.64 27.62-25.17 14.11-38.64C32.03.06 16.42.95 7.78 11.69c-6.47 8.05-6.31 20.5.37 28.51 4 4.79 9.39 7.57 15.95 8.23.77.08 2.41.06 3.55-.04Zm-3.7-7.3c-10.8-1.13-17.26-12.86-12.4-22.52 5.03-9.99 18.73-11.65 25.94-3.14 9.04 10.69.38 27.11-13.54 25.66Zm3.95-.34c13.44-2.16 17.74-19.5 6.84-27.52-6.26-4.6-14.6-3.97-20.09 1.52-9.01 9.01-3.62 24.44 9.1 26.08.82.11 3.28.06 4.15-.08Zm-4.35-2.71c-10.2-1.83-14.19-14.08-6.95-21.35 6.1-6.12 16.33-4.53 20.25 3.17 4.62 9.06-3.36 19.96-13.3 18.18Zm4.47-.35c9.56-1.88 13.24-14.02 6.32-20.85-8.55-8.46-22.91-1.09-20.99 10.76 1.12 6.88 7.76 11.45 14.67 10.09Zm-4.04-2.53C15.67 33.69 12.91 23.2 19.46 18c7.32-5.82 17.83.94 15.49 9.95-1.28 4.91-6.09 8.07-10.97 7.21Zm3.49-.32c8.06-1.66 10.28-12.44 3.51-17.05-7.44-5.07-17.21 2.11-14.47 10.63 1.47 4.55 6.3 7.39 10.96 6.42Zm-3.06-2.65c-6.93-1.36-7.57-10.8-.88-13.03 3.58-1.19 7.58.97 8.51 4.59 1.22 4.78-2.93 9.36-7.63 8.44Zm2.72-.35c4.78-1.24 6.5-7.32 3.06-10.84-3.31-3.38-9.25-2.01-10.79 2.5-1.62 4.71 2.9 9.59 7.73 8.34Zm-2.65-2.63c-2.8-.92-3.62-4.45-1.49-6.44 2.3-2.15 6.05-.72 6.38 2.43.27 2.62-2.42 4.83-4.89 4.01Zm2.7-.51c1.69-.9 2.42-3.04 1.6-4.71-1.44-2.92-5.74-2.5-6.64.65-.82 2.89 2.38 5.48 5.04 4.06ZM3.35 23.1c.1-4.19 2.59-9.5 6.16-13.09 4.39-4.42 9.67-6.67 15.79-6.76l2.25-.03-2.25.08c-6.19.22-10.94 2.22-15.43 6.49-3.7 3.52-6.21 8.86-6.51 13.86-.02.33-.02.08-.01-.55Z"/></svg>