<svg xmlns="http://www.w3.org/2000/svg" width="51" height="51" viewBox="0 0 51 51"><path fill="#fff" fill-rule="evenodd" stroke="#fff" stroke-width=".702" d="M14.29 43.53c-1.67-4.4-2.43-8.54-2.43-13.23 0-8.81 2.84-15.7 9.06-21.97l1.42-1.43h7.18c6.24 0 7.18.02 7.18.15 0 .08-.46.49-1.02.92-9.52 7.2-13.91 17.77-12.22 29.43.2 1.38.47 2.7.95 4.63.22.86.37 1.62.34 1.67-.04.06-1.97.1-5.21.1H14.4zm11.95.14c-.03-.08.24-1.28.6-2.68.35-1.4 1.23-4.95 1.96-7.89.72-2.94 1.33-5.43 1.36-5.52.05-.17-.13-.18-2.76-.18-2.15 0-2.82-.03-2.85-.12-.07-.21 1.01-4.59 1.15-4.68.17-.11 11.61-.12 11.77-.02.13.08.08.44-1.68 11.52-.22 1.4-.53 3.34-.69 4.3s-.41 2.51-.55 3.45c-.15.94-.32 1.76-.37 1.83-.16.18-7.86.18-7.94-.01Zm-1.74-.22c0-.03-.18-.77-.39-1.63-2.11-8.46-1.64-15.05 1.59-22.11 2.06-4.52 5.89-9.14 10.02-12.1.27-.19.47-.35.45-.37-.01-.01-3.12-.03-6.91-.05l-6.88-.04-1.43 1.46c-5.15 5.3-7.86 10.91-8.7 18.04-.35 2.92-.2 6.98.36 9.95.31 1.62.63 2.79 1.8 6.58l.11.32h4.99c2.74 0 4.99-.02 4.99-.05Zm9.55-.17c.06-.28.73-4.44 2.1-13.06.57-3.61 1.07-6.76 1.11-6.99l.07-.43H25.81l-.1.38c-.21.76-.91 3.85-.89 3.88.02.01 1.29.06 2.83.1 2.39.08 2.8.11 2.79.24-.02.23-3.54 14.45-3.79 15.33l-.23.77H34zm.52-21.02c-2.44-.91-3.07-4.88-1.21-7.68 1.61-2.42 4.48-2.4 5.59.05 1.59 3.49-1.42 8.73-4.38 7.63Zm2.03-.46c2.55-1.31 3.4-6.14 1.42-8.07-1.65-1.61-4.27-.36-5.17 2.48-1.16 3.69 1.04 6.98 3.75 5.59Z"/></svg>