<svg xmlns="http://www.w3.org/2000/svg" width="51" height="51" viewBox="0 0 51 51"><path fill="#fff" fill-rule="evenodd" stroke="#fff" stroke-width=".764" d="M17.17 43.49c-1.25-.3-2.29-1.36-2.62-2.67-.15-.57-.16-2.08-.12-15.5l.04-14.87.23-.6c.31-.81 1.13-1.63 1.95-1.96l.6-.24 4.9-.03c3.24-.02 5.29.01 6.05.08 5.89.6 9.54 4.54 9.54 10.3 0 2.78-.81 4.98-2.38 6.49-.47.46-.46.6.14 1.1 2.48 2.09 3.37 6.54 2.15 10.74-1.06 3.66-3.72 6.13-7.5 6.98-.96.21-1.22.22-6.8.25-3.33.02-5.96-.01-6.18-.07ZM30 43.06c4.1-.96 6.45-3.28 7.58-7.45.37-1.38.4-4.63.04-5.85-.48-1.67-1.35-3.14-2.37-4.01-.7-.6-.7-.74.01-1.56 1.7-1.96 2.34-3.94 2.21-6.78-.24-5.09-3.57-8.64-8.79-9.36-1.79-.25-11.21-.18-11.9.09-.58.22-1.42.95-1.67 1.45-.37.71-.38 1.27-.37 16.31l.01 14.85.26.55c.44.94 1.05 1.49 2.07 1.86.62.23 11.91.14 12.92-.1Zm-8.3-6.76c-.33-.33-.31-7.49.02-7.8.21-.19.34-.2 3.12-.2 3.07 0 3.48.05 4.34.49 2.81 1.43 2.45 6.39-.54 7.51-.83.31-6.63.31-6.94 0Zm6.8-.25c1.49-.53 2.25-1.82 2.25-3.85 0-1.68-.57-2.65-1.94-3.29l-.56-.26h-6.4v7.5l2.05.06c2.61.08 4.07.03 4.6-.16Zm-6.22-14.22c-.79-.07-.78-.01-.78-3.59 0-3.03.01-3.11.21-3.3.33-.29 5.74-.29 6.64.01 3.45 1.13 2.9 6.26-.74 6.86-.53.08-4.31.1-5.33.02Zm6.24-.61c1.26-.62 1.83-1.58 1.82-3.07-.01-1.59-.86-2.65-2.43-3.01-.58-.14-5.62-.2-5.95-.08-.17.07-.25 6.05-.08 6.3.14.21.4.23 3.17.21l2.81-.02z"/></svg>