<svg xmlns="http://www.w3.org/2000/svg" width="51" height="51" viewBox="0 0 51 51"><path fill="#fff" fill-rule="evenodd" stroke="#fff" stroke-width=".343" d="M25.25 44.09c-.83-.19-3.16-1.12-3.33-1.34-.25-.32-.36-.35-.72-.25-.29.08-.39.06-.78-.2-.25-.17-.51-.3-.59-.3-.07 0-.13-.06-.13-.14 0-.28-.58-.63-1.32-.8-.63-.14-.79-.23-1.19-.62-.54-.53-1.32-.65-1.98-.3-.19.1-.6.2-.9.21-.51.02-.58.06-.92.44-.2.22-.4.41-.43.41-.11 0 .14-.43.42-.72.3-.32.36-.29-1.1-.52-4.16-.65-8.94-3.22-9.37-5.02-.41-1.7 1.96-3.67 5.83-4.84l.88-.27-.98-.65C3.99 26.13-.1 20.24 1.4 18.76c.88-.88 4.91-.65 8.43.47.42.14.77.24.77.22s-.09-.54-.19-1.17c-.64-3.7-.45-7.1.43-7.8.82-.67 4.16.35 6.13 1.87.85.65.73.81 1.03-1.44.24-1.78.4-2.26.79-2.39.54-.19.96.04 2.23 1.27.59.57.68.62.74.45.3-.85 1.16-2.79 1.66-3.7.82-1.52 1.1-1.78 1.92-1.75.68.03 2.01 2.07 2.96 4.56.13.33.25.62.26.64.02.02.22-.13.44-.33.73-.65 1.21-.72 1.54-.21.13.19.46 1.59.46 1.93 0 .02.29-.18.64-.43 2.46-1.75 5.52-2.28 6.32-1.08.63.95.63 5.96 0 8.07-.08.25-.12.46-.1.46.03 0 .32-.14.65-.31 1.47-.74 3.37-1.14 4.25-.9 1.14.31 1.2.77.35 2.69-.44.99-.55 1.32-.43 1.28.91-.28 3.45-.42 4.74-.27 3.22.37 3.51 1.57 1.06 4.31-1.5 1.68-4.1 3.83-6.24 5.16-1.08.66-1.08.67-.51.84 1.94.58 5.76 3.4 6.46 4.78.22.42.29 1.22.11 1.22-.05 0-.1-.1-.1-.22-.01-1.35-4.38-4.85-6.9-5.52-.14-.04.16.13.65.37.5.24.96.51 1.04.6.2.24.05.21-.53-.12-.28-.16-.85-.43-1.27-.59l-.76-.29-.39.2c-2.6 1.34-6.31 2.35-8.74 2.37-.44.01-.68.08-1.22.38l-.67.38.62.8c1.01 1.3 1.36 1.7 1.88 2.09.28.21.48.4.45.42-.21.21-1.28-.79-2.35-2.2-.94-1.23-1.03-1.18-.18.1.35.54.79 1.26.97 1.61.55 1.05 1.37 1.58 3.5 2.27 2.85.92 4.8.98 7.87.25 1-.24 1.13-.24 1.13-.06 0 .44-4.48 1.16-6.11.97-1.28-.15-3.56-.78-5.1-1.42-.94-.38-.92-.38-1.3.29-2.12 3.75-3.37 4.7-5.54 4.21Zm1.99-.4c.6-.17 1.18-.8 2.09-2.27 1.71-2.76 1.72-3.06.22-5.32-.74-1.11-.73-1.1-2.49-1.32l-1.54-.2-1.28.42c-1.48.49-2.72.62-3.65.4l-.53-.13-.38.42c-.55.62-1.09 1.48-1.37 2.16-.47 1.16-.26 3.15.34 3.15.35 0 .76.18 1.05.45.23.22 1.03.54 1.74.7.17.03.41.14.55.24 1.24.86 4.2 1.59 5.25 1.3Zm-1.86-4.9c-.04-3.11-.03-3.18.1-3.05.11.12.16 5.86.04 5.98-.07.07-.11-.91-.14-2.93Zm12.89 1.55c-.82-.15-2.04-.61-2.47-.93-.43-.34-.16-.32.51.03.7.38 1.95.76 2.46.76.3 0 .52.14.36.23-.05.02-.43-.02-.86-.09Zm-19.51-.16c-.26-.98.41-3.24 1.29-4.34.39-.49.36-.23-.06.46-.73 1.21-1.03 2.12-1.03 3.17-.01.91-.08 1.15-.2.71Zm-3.41-.64c.38-.09 1.06-.27 1.51-.4l.81-.25.12-.51c.2-.74.73-1.74 1.35-2.52l.55-.69-.62-.39c-.34-.22-1.06-.84-1.6-1.38-.53-.54-1.07-1.02-1.2-1.05-1.18-.34-3.3-1.09-4.57-1.61l-1.55-.63-.65.15c-2.21.5-4.56 1.7-5.68 2.88-1.03 1.09-.87 2.08.51 3.14 3.35 2.56 7.94 3.92 11.02 3.26Zm-4.31-.48c-1.3-.27-2.19-.56-3.22-1.03-.83-.37-2.62-1.5-2.62-1.64 0-.15.16-.1.57.2 1.7 1.23 3.8 2.03 6.46 2.46.4.06.52.25.15.24-.13 0-.73-.11-1.34-.23Zm17.44-.46c-.04-.08-.09-.4-.12-.7-.05-.48-.28-1.44-.51-2.17-.05-.14-.03-.23.03-.23.13 0 .47 1.06.63 1.94.11.63.09 1.45-.03 1.16Zm9.64-.24c-.71-.23-.99-.59-.68-.85.11-.1.23-.08.55.08 1.03.53 1.91.14 1.91-.84 0-.84-.85-1.09-1.7-.5-.71.49-.75.41-.72-1.25.02-.8.07-1.49.11-1.53s.68-.06 1.42-.05l1.34.03v.6l-1.12.03-1.13.03v.7c0 .69.01.71.23.64 1.03-.31 1.77-.1 2.09.61.67 1.52-.65 2.84-2.3 2.3Zm1.66-.42c1.05-.73.51-2.44-.74-2.31-.38.04-.38.04.08.05 1.15.04 1.52 1.71.49 2.27-.14.08-.21.14-.16.15.06 0 .21-.07.33-.16Zm-6.3-1.54c-1.07-.18-2.32-.72-2.86-1.23-.5-.48-.38-.52.21-.08.6.46 1.62.87 2.56 1.05.49.09 1.08.41.64.35-.04-.01-.29-.05-.55-.09Zm4.43-1.44-.02-1.15 1.13-.04 1.13-.03-1.17-.02-1.18-.02v1.27c0 .69.03 1.24.06 1.2.04-.03.06-.58.05-1.21Zm8.29.47c-1.1-1.08-2.48-1.78-4.19-2.13-.47-.09-.87-.22-.89-.28-.11-.35 2.66.47 3.77 1.11.77.43 2.34 1.94 1.94 1.85-.05 0-.33-.25-.63-.55Zm-22.35-.67c1.31-.44 1.24-.38.9-.78-.56-.66-.7-1.52-.4-2.37l.14-.41-.47-.38c-1.07-.83-7.78-5.08-8.36-5.28-.85-.3-1.11 0-1.04 1.2.19 3.04 3.72 7.12 6.82 7.88.89.22 1.2.45.44.33-1.7-.29-3.77-1.64-5.28-3.46-.61-.73-.62-.69-.08.24.52.87 2 2.38 2.81 2.86 1.25.73 2.7.79 4.52.17Zm-10.05-.03c-2.63-.17-3.6-.27-3.6-.36 0-.06.34-.08.98-.03 2.67.19 4.24.24 5.35.15 1.12-.08 1.38-.07 1.25.06-.16.16-2.64.27-3.98.18Zm15.28-.27c2.66-.94 4.55-4.32 4.51-8.06l-.01-.85-.19 1.1c-.62 3.61-1.99 6.14-3.85 7.12-1.08.57-1.14.39-.08-.23 2.04-1.19 3.6-4.49 3.8-8.04.11-1.9-.32-2.16-1.58-.98-.29.27-1.09.94-1.78 1.47-4.85 3.81-6.55 6.69-4.71 8 .61.44.77.39.84-.23.08-.83.53-1.56 1.69-2.76 1.66-1.72 2.52-3 2.82-4.17.16-.66.58-1.57.76-1.68.23-.14.2.04-.09.51-.16.27-.39.85-.51 1.29-.35 1.3-1.08 2.4-2.76 4.16-1.26 1.3-1.64 1.92-1.67 2.72l-.02.52.85.11c1.21.16 1.52.16 1.98 0Zm-5.64-.4c-2.86-1.37-6.33-4.97-6.7-6.96-.1-.51.09-.28.4.5.46 1.13 1.05 2.01 2 2.95 1.42 1.41 4.11 3.36 4.94 3.57.2.06.32.28.14.28-.04 0-.39-.15-.78-.34Zm1.54-.93c-.33-.76.03-2.25.66-2.69.31-.22.3-.09-.04.37-.61.84-.71 1.73-.29 2.46.15.28.16.33.03.33-.08 0-.24-.21-.36-.47Zm8.67.28c4.91-1.02 9.52-3.59 13.71-7.65 1.43-1.38 1.44-1.4.56-1.22-.78.16-1.08.38-1.48 1.07-.43.73-.84 1.04-1.75 1.34-.97.33-1.32.56-1.86 1.25-1.24 1.57-1.96 2.14-3.7 2.9-1.82.8-5.29 1.83-6.9 2.05-.31.04-.58.14-.69.26-.24.26.84.27 2.11 0Zm-.7-.62c4.51-.86 7.99-2.49 9.43-4.43.75-1.01 1.23-1.36 2.26-1.68.8-.24 1.23-.59 1.65-1.32.37-.67.78-.93 1.78-1.12 1.35-.26 2.22-1.65 1.47-2.35-.76-.71-4.13.35-6.88 2.16-.98.64-1.24.68-.46.06 1.21-.96 3.59-2.08 5.35-2.53.89-.22.89-.22.5-.29-1.38-.24-3.29-.19-5 .13l-.62.11-.59 1.35c-1.47 3.37-3.9 6.49-6.37 8.16-.48.33-.85.61-.83.63.01.02.59-.15 1.28-.37 1.31-.42 1.48-.45 1.48-.32 0 .09-2.32.84-3.13 1.02-.56.12-2.25.78-2.33.91-.03.06.05.08.18.05.12-.03.5-.1.83-.17ZM5.1 32.52c0-.15 1.33-.96 2.29-1.39.99-.44 1.21-.5 1.21-.33 0 .06-.06.1-.13.1-.2 0-2.1.95-2.68 1.34-.54.36-.69.42-.69.28Zm28.25-.67c2.24-.99 4.82-3.36 6.56-6.05.87-1.34.73-1.27-.31.15-1.45 1.99-3.68 3.96-6.12 5.4-1.36.8-1.43 1.08-.13.5Zm-17.25-.17c-.12-.18-.45-.81-.73-1.4-.5-1.03-.54-1.08-.92-1.19-1.85-.49-3.95-1.3-3.95-1.5 0-.14.18-.1.68.15.71.36 3.4 1.2 3.51 1.1.02-.02-.06-.4-.19-.85-.55-2.07-.07-3.18 1.21-2.77l.51.17-.07-.52c-.05-.42-.13-.57-.38-.79-.78-.67-4.15-2.5-6.55-3.56-.58-.26-.92-.52-.68-.52.5 0 5.93 2.86 7.34 3.86l.22.16v-1.21l-1.18-.79c-3.27-2.16-7.31-3.44-10.97-3.46-2.23-.02-2.69.28-2.44 1.58.46 2.5 4.13 6.83 7.64 9.04.84.52 3.4 1.61 5.25 2.23 2.07.69 1.98.68 1.7.27Zm7.3-.05c-.25-.19-1.67-1.23-3.15-2.31-2.81-2.04-3.18-2.32-2.97-2.32.15 0 5.59 3.91 6.22 4.48.57.51.5.61-.1.15Zm4.55.26c.04-.06.26-.28.49-.49.22-.21.75-.79 1.16-1.29.8-.98 1.11-1.08.39-.14-.6.8-1.79 2.03-1.96 2.03-.08 0-.11-.05-.08-.11Zm6.03-1.13c3.96-2.51 6.65-5.76 8.57-10.34.87-2.09.95-2.4.69-2.67-.51-.51-3.31.38-5.19 1.64-.63.43-.86.52-.64.25.38-.45 2.23-1.45 3.49-1.88.9-.31.64-.34-.4-.05-1.9.52-4.86 2.28-7.23 4.28-.74.63-.77.68-.77 1.08 0 .42.01.43.34.43 1.31 0 1.45 4.56.22 7.34-.31.7-.31.7.92-.08Zm-21.48-.2c-3.59-1.46-8.54-5.7-9.46-8.09-.14-.38.17-.13.45.36.75 1.32 3.09 3.74 4.97 5.15 1.63 1.23 2.5 1.7 5.02 2.72.2.09.31.3.14.3-.04-.01-.54-.2-1.12-.44Zm12.35-.05c.15-.34.17-.75.19-3.25 0-1.57.04-2.86.08-2.86.12 0 .21 2.35.14 3.94l-.07 1.61.63-.7c.34-.39 1.02-1.09 1.52-1.56l.89-.85-.06-.99c-.08-1.16.1-1.22.2-.06.07.8.11.86.4.66.25-.18.18-.83-.28-2.54-.26-1-.31-1.36-.14-1.19.05.05.66 2.41.8 3.12l.06.29.27-.26.27-.27-.3-.87c-.91-2.66-2.87-5.75-3.78-5.98-1.06-.27-4.97 4.73-4.75 6.08.04.18.07.15.22-.21.16-.36.47-.64.33-.29-.02.06-.12.38-.22.69l-.18.56.63 1.84.63 1.83.77.53c.42.29.92.66 1.11.82.43.37.43.37.64-.09Zm13.45-.9c0-.06.28-.44.63-.84.34-.4.98-1.21 1.42-1.82.43-.61.8-1.12.82-1.14s.06-.01.1.02c.09.09-.68 1.22-1.64 2.42-.87 1.08-1.33 1.56-1.33 1.36Zm-17.27-3.26c-2.06-6.33-3.16-9.08-3.56-8.92-.83.32-1.5 7.52-.77 8.2.1.1.11.08.05-.08-.04-.11-.09-.38-.12-.6-.07-.55.09-.35.31.38.09.31.22.62.29.68.17.15 2.11 1.38 2.14 1.36.01-.02-.13-.52-.31-1.12-.58-1.89-1.46-6.75-1.46-8.01 0-.89.13-.34.45 1.93.47 3.28 1.37 7.1 1.75 7.47.16.15.15.06-.54-2.49-.61-2.28-.6-2.25-.46-2.25.05 0 .14.19.2.43.7 2.67 1.24 4.55 1.36 4.67.13.13 1.47.99 1.51.96 0 0-.37-1.18-.84-2.61Zm14.56-.08c-.37-.2-.44-.29-.44-.53 0-.37.24-.42.65-.13.74.55 2 .27 2-.45 0-.69-.38-.96-1.35-.96-.55 0-.71-.13-.59-.45.05-.11.21-.15.61-.15.47 0 .59-.04.84-.29.87-.87-.18-1.69-1.36-1.06-.46.25-.5.25-.62.09-.44-.6 1.24-1.2 2.22-.8.8.34.99 1.59.32 2.14-.14.12-.12.16.15.41.37.33.5 1.24.26 1.71-.38.72-1.76.96-2.69.47Zm-4.41-1.74 1.02-.88v-.46c0-1.5-1.28-4.83-2.36-6.16-1.26-1.55-1.39-1.15-1.04 3.13.2 2.45.38 3.5.39 2.27.01-.57.21-.95.21-.4.02 1.21.46 3.37.69 3.37.04 0 .53-.39 1.09-.87Zm-26.04-.75c-.23-.24-.83-.95-1.34-1.58s-1.08-1.31-1.28-1.52c-.19-.2-.32-.42-.3-.48.04-.13.94.84 1.98 2.15.35.44.81.99 1.03 1.22.22.22.38.46.36.52-.03.07-.23-.08-.45-.31Zm15.74 0c.11-.24.25-.88.31-1.46.2-1.7 1.1-4.96 1.58-5.69.31-.47.25-.12-.17.99-.49 1.3-1.07 3.53-1.16 4.48l-.06.65.47-.75c.26-.41.52-.82.6-.9.07-.08.15-.53.19-1 .03-.47.12-1.21.2-1.65.27-1.53.3-2.24.11-2.31-.47-.18-2.27 2.28-3.08 4.19l-.3.71.54 1.58c.3.87.55 1.58.56 1.58 0 0 .1-.19.21-.42ZM38 22.79c0-.72-.45-1.09-1.31-1.09-.44 0-1.09.21-1.09.36 0 .02.13-.02.3-.11 1.24-.64 2.57.49 1.73 1.49-.1.12-.06.09.1-.06.17-.18.27-.39.27-.59Zm.83-.15c.09-.16.46-.73.84-1.26.37-.53.73-1.05.79-1.15.07-.1.15-.15.2-.1.08.08-1.67 2.69-1.85 2.75-.09.03-.08-.04.02-.24Zm-23.09-2.15c-.4-1.01-3.85-8-4.29-8.69-.14-.23-.24-.47-.22-.53.09-.28 3.35 5.99 4.48 8.61l.44 1.03.07-.38c.39-2.04.49-2.49.68-2.88.12-.24.29-.47.39-.5.15-.04.17-.23.19-1.63l.01-1.57-.67-.67c-.8-.82-.65-.91.19-.11.5.48.59.53.59.34 0-.25-.27-.51-1.28-1.22-1.99-1.39-4.85-2.15-5.41-1.43-.65.83-.74 4.07-.2 7.34.24 1.47.13 1.31 1.31 1.84.95.43 3.03 1.62 3.68 2.11l.35.26.03-.49c.02-.38-.05-.71-.34-1.43Zm17.14.59c.44-1.67.51-3.87.24-7.28-.1-1.18-.17-1.42-.41-1.38-.35.07-1.79 3.25-1.67 3.72.11.43.2.3.45-.61.13-.49.28-.92.32-.97.17-.19.09.31-.2 1.28l-.28.96.24.67c.34.95.53 1.93.53 2.76 0 .4.08 1.02.17 1.4.21.79.28.73.61-.55Zm-3.12.75c-.02-.1-.07-.45-.11-.78-.1-.97-.44-2.86-.61-3.38-.09-.27-.13-.51-.09-.55.1-.11.22.17.43 1.02.18.7.28 1.33.57 3.48.05.38-.09.54-.19.21Zm-1.22-.85c-.04-.51-.1-1.04-.14-1.17l-.06-.24-.21.22c-.36.38-.35.69.05 1.43.21.37.38.68.4.68.01 0 0-.42-.04-.92Zm12.66.76c0-.04.22-.45.49-.93.26-.47.69-1.28.95-1.79s.51-.9.56-.87c.17.1-1.7 3.65-1.92 3.65-.05 0-.08-.03-.08-.06Zm-7.28-.72.57-.44-.05-.81c-.13-1.9-.75-5.28-1.05-5.76-.08-.12-.09-.08-.05.19.34 2.11.22 5.4-.24 7-.18.61-.23.62.82-.18Zm-13.84-1.67c.72-1.46 2.22-3.44 2.71-3.6.4-.12.26-1.3-.3-2.44l-.32-.64-.34.66c-.18.37-.38.67-.43.67-.06 0-.14.08-.18.18s-.37.7-.75 1.33c-.37.64-.83 1.54-1.03 2-.39.89-.54 1.14-.54.86 0-.48 2.04-4.37 2.29-4.37.04 0 .17-.19.27-.42s.29-.55.42-.7c.27-.31.22-.48-.14-.48-.53 0-3.07 4.67-3.16 5.82-.03.42.86 2.51.96 2.25.05-.12.29-.63.54-1.12Zm3.32.4c0-.19-.21-.65-.3-.65-.07 0-.2.75-.2 1.14.01.2.02.19.25-.07.14-.15.25-.34.25-.42Zm12.11.13c.58-.43.77-.71 1.3-1.96.25-.58.59-1.96.59-2.39 0-.18.05-.33.11-.33.3 0-.2 2.29-.72 3.32-.37.74-.38.73.2.37.48-.29.5-.32.66-1.01.57-2.53.62-6.77.09-7.8-.55-1.07-3.56-.51-5.8 1.07-.74.53-.85.65-.78.92.05.19.13.14.7-.44.36-.35.69-.61.74-.58s-.22.38-.61.77l-.71.71.07.45c.11.77.16.78.51.1.31-.58.74-1.08.93-1.08.62 0 1.66 3.97 1.96 7.48.08.96.02.93.76.4Zm-11.61-.85c0-.38-.3-.84-.52-.81-.34.05-.36.47-.03.78.14.13.25.31.25.39.01.2.3-.16.3-.36Zm3.68.18c.07-.16.26-.35.42-.43.28-.14.29-.16.14-.36-.34-.49-.84-.1-.84.65 0 .5.1.55.28.14Zm3.59-.92c-.14-.35-.36-.84-.51-1.09-.28-.49-.31-.6-.17-.6.06 0 .3.41.55.91.51 1 .6.98.21-.05-.76-2.03-2.29-4.24-2.83-4.09-.59.15-1.63 2.13-1.27 2.43.09.07.37.46.64.86l.49.72.04-.54c.05-.57.28-.94.6-.94.42 0 1.57 1.35 2.14 2.52.36.74.41.68.11-.13Zm-6.67-.69c-.31-.58-.47-.06-.18.6l.23.53.03-.46c.02-.25-.02-.55-.08-.67Zm1.32.35c-.06-.87-.4-.86-.52.02l-.06.48h.31c.3 0 .3 0 .27-.5Zm-.63-.78c.27-.33.91-.11.91.31 0 .13.05.11.23-.09.47-.56 1.14-.38 1.04.27-.05.32-.05.33.24.27.17-.03.35 0 .44.07.54.45-.11-.72-1.06-1.91-.97-1.22-1.45-1.3-2.37-.36-.34.34-1.38 2.06-1.29 2.12.25.2.54.12.54-.15 0-.97 1.01-.65 1.04.34.02.36.03.34.08-.15.03-.31.12-.63.2-.72Zm1.8.75c.12-.34.13-.44.02-.54-.17-.17-.51.24-.51.61 0 .57.27.53.49-.07Zm-6.94-3.8c.66-1.13.66-1.16.56-1.58-.19-.76-.03-.89.17-.14.08.28.11.32.17.17.1-.23-.31-1.19-.89-2.12-.25-.38-.42-.72-.39-.75.1-.1.61.62 1.08 1.55.37.73.53.94.65.89.36-.15.47-.14.73.06.33.26.68.92 1 1.89l.24.71.18-.34.18-.34-.38-.53c-.22-.3-.49-.67-.62-.82-.13-.16-.23-.33-.23-.38 0-.22.2-.03.75.7.33.44.63.77.68.74.3-.18-2.87-3.81-4.13-4.72-.46-.33-.9-.4-1.09-.17-.2.24-.82 4.86-.88 6.58l-.06 1.57.27.31c.14.17.26.37.26.43 0 .07.25-.48.54-1.22.3-.73.84-1.85 1.21-2.49Zm3.54 2.5c.77-1.51 2.15-2.25 2.91-1.57.23.21.21.22.48-.3.21-.42.1-.95-.21-.95-.07 0-.25-.11-.42-.24-.23-.19-.35-.22-.54-.15-.27.11-.43.02-.21-.11.25-.16.52-.11.87.16.43.33.42.24-.03-.26-.66-.73-1.36-.4-2.42 1.18-.66.96-.72 1.13-.69 1.91.02.83.01.82.26.33Zm-5.44-1.54c.04-.29.15-1.07.25-1.73.11-.66.22-1.57.26-2.03.07-.88.24-1.23.24-.5 0 .5-.22 2.29-.44 3.68-.09.52-.16.98-.16 1.03 0 .04-.05.07-.11.07-.07 0-.09-.17-.04-.52Zm12.82-.52c.05-.55-.16-2.33-.48-4.23-.13-.77-.37-1.03-.75-.83-.53.29-2.94 3.12-2.94 3.46 0 .05.14.29.31.52l.3.41.43-.44c.27-.29.51-.45.66-.45.31 0 1.15.87 1.77 1.81.53.83.62.79.7-.25Zm-14.89-.76c-.49-.48-1.22-1.09-1.63-1.36-.69-.45-.88-.64-.66-.64.38 0 3.31 2.48 3.31 2.8 0 .19-.16.07-1.02-.8Zm14.09-.93c-.05-1.25.02-1.77.15-.97.1.65.09 2.08-.01 2.14-.04.03-.11-.5-.14-1.17Zm-4.38-.35c.25.03.53.08.63.12.13.06.26-.07.59-.56.23-.35.62-.86.86-1.14.57-.68.58-.67-.61-3.17-1.84-3.89-2.68-3.63-4.76 1.46l-.58 1.4.92 1.11c.5.61 1.02 1.26 1.14 1.44l.24.32.56-.51c.53-.48.58-.5 1.01-.47Zm11.85-.42c.03-.63.08-1.14.13-1.12.12.04.06 2.03-.07 2.16-.07.07-.09-.25-.06-1.04Zm-8.4-.26c.07-.18.24-.64.62-1.72.09-.23.2-.4.25-.37.12.08-.64 2.18-.81 2.23-.09.03-.11-.01-.06-.14Zm-6.41-2.02c.11-.95 1.09-3.34 1.29-3.14.05.05.01.23-.11.43-.33.57-.8 1.86-.93 2.54-.15.75-.34.88-.25.17Zm4.36.33c-.04-.05-.1-.37-.14-.7-.08-.67-.57-2.29-.87-2.88-.21-.42-.17-.62.07-.31.38.5 1.08 2.92 1.03 3.59-.02.22-.06.36-.09.3Z"/></svg>