<svg xmlns="http://www.w3.org/2000/svg" width="51" height="51" viewBox="0 0 51 51"><path fill="#fff" fill-rule="evenodd" stroke="#fff" stroke-width=".455" d="M4.9 32.52c-.75-.37-.72-.14-.72-6.55-.01-5.14.01-5.76.16-6.05.46-.9 1.73-.93 2.32-.05.22.32.22.33.45.14 1.76-1.37 4.79-1.18 6.35.4l.48.48.53-.5c.92-.87 2.13-1.29 3.71-1.29 2.51 0 4.16 1.33 4.67 3.76.26 1.21.21 8.76-.05 9.19-.54.87-1.9.83-2.36-.06-.14-.27-.16-.86-.17-4.43-.02-4.51-.03-4.58-.67-5.25-.93-.97-3.17-.85-4.01.21-.56.7-.59.93-.59 5.17 0 3.48-.02 3.89-.18 4.2-.51 1.01-1.83 1.06-2.42.09-.19-.31-.2-.51-.2-4.29 0-4.43-.03-4.69-.66-5.39-1.1-1.22-3.54-.81-4.37.74-.21.4-.22.54-.27 4.56-.06 4.61-.04 4.48-.73 4.9-.4.25-.81.25-1.27.02Zm22.91.01c-.8-.42-.76-.05-.79-6.41-.03-6.12-.02-6.23.49-6.66.63-.53 1.84-.25 2.15.49.25.61.2 11.59-.06 12.02-.39.65-1.17.89-1.79.56Zm10.22-.02c-3.34-.96-5.31-4.77-4.35-8.43.94-3.52 4.46-5.61 8.17-4.83 2.34.49 4.32 2.42 5.02 4.9.27.98.32 7.26.05 7.75-.73 1.34-2.62.83-2.62-.71v-.31l-.45.4c-1.42 1.25-3.9 1.78-5.82 1.23Zm3.31-.27c.87-.21 1.77-.69 2.45-1.3.76-.69.81-.69.81.1 0 1.36 1.46 1.9 2.05.76.24-.47.17-6.76-.08-7.65-1.99-6.83-11.97-6.08-12.77.96-.54 4.72 3.15 8.21 7.54 7.13Zm-35.05-.19.26-.25.05-4.13c.05-4.04.05-4.13.28-4.62 1.03-2.24 4.36-2.38 5.33-.23.24.53.24.57.29 4.75l.05 4.21.24.26c.46.49 1.33.43 1.69-.13.15-.22.18-.74.22-4.36.06-4.52.05-4.51.74-5.32 1.05-1.24 3.67-1.18 4.54.1.58.84.57.78.57 5.22s0 4.41.55 4.7c.57.29 1.28.08 1.5-.45.24-.57.08-8.85-.18-9.54-.71-1.9-1.92-2.74-4.08-2.84-1.67-.07-2.77.31-3.85 1.35l-.58.55-.55-.59c-1.52-1.65-4.33-1.81-6.24-.36-.5.39-.52.4-.52.1 0-1.06-1.8-1.28-2.07-.25-.14.52-.06 11.38.08 11.65.3.55 1.21.65 1.68.18Zm22.55.21c.69-.29.66.02.66-6.29 0-3.99-.03-5.75-.11-5.9-.31-.61-1.23-.78-1.76-.33l-.28.24-.03 5.73c-.03 6.22-.03 6.16.52 6.5.37.23.56.24 1 .05Zm10.29-1.81c-2.24-.63-3.58-2.78-3.24-5.19.71-5.03 7.65-5.41 8.7-.48.74 3.49-2.23 6.58-5.46 5.67Zm2.05-.25c3.8-.88 4.42-6.63.89-8.26-.9-.42-2.62-.43-3.5-.02-2.6 1.22-3.29 4.87-1.32 7.06.94 1.05 2.53 1.54 3.93 1.22ZM27.81 17.69c-1.04-.42-1.49-1.52-1.02-2.55.88-1.95 3.86-.91 3.39 1.18-.24 1.07-1.42 1.75-2.37 1.37Zm1.25-.38c1.44-.66.98-2.91-.6-2.91-1.63 0-2.18 2.17-.73 2.89.51.26.8.26 1.33.02Z"/></svg>