<svg xmlns="http://www.w3.org/2000/svg" width="51" height="51" viewBox="0 0 51 51"><path fill="#fff" fill-rule="evenodd" stroke="#fff" stroke-width=".422" d="M30.6 38.17c-1.97-.7-3.08-1.54-6.55-4.97-2.99-2.95-3.43-3.32-4.57-3.84-1.66-.77-3.47-1.01-6.95-.9l-2.22.07-.11-.28c-.27-.7.38-.85 3.77-.85h1.13v-.28c0-.25-.05-.3-.42-.41-1.37-.4-2.47-1.68-2.8-3.23l-.12-.58h-.67c-.59 0-.7-.03-.83-.22-.37-.53-.12-.79.84-.86l.7-.05v-2.51c0-3.55.18-4.35 1.22-5.39 1.43-1.43 4.01-1.45 5.42-.04.5.51.92 1.3 1.08 2.07l.11.56h.91c2.33-.02 3.06 1.04 3.14 4.51l.04 2.11 1.52.67c.83.37 1.79.82 2.13 1.01l.63.34.45-.32c1.4-.99 3.25.01 3.25 1.75 0 .47.01.48.28.45l.27-.03.07-1.12c.11-2.01.99-2.98 2.53-2.8 1.24.13 1.87 1 1.93 2.62l.04 1.02.52.13c2.24.55 3.17 1 3.01 1.45-.17.47-.35.51-1.06.22-.59-.23-2.13-.67-2.38-.67-.05 0-.2.21-.31.48-.26.59-.6.94-1.11 1.17-.24.11-.39.25-.39.36 0 .2.01.2 1.62.39 2.61.3 4.06 1.01 3.51 1.69l-.19.23-1.04-.35c-3.56-1.2-6.05-.91-10.42 1.23-2.22 1.08-2.2 1.06-1.85 1.34.12.1.47.43.78.73l.56.54 1.24-.59c2.54-1.23 6.13-1.88 6.4-1.16.18.51-.08.68-1.16.76q-1.605.12-3.09.6c-.74.24-2.36.98-2.36 1.08 0 .07 1.4.74 2.1 1 .64.24.8.59.42.93-.23.21-.24.21-1.02-.06Zm.94-.23c.08-.21.14-.17-.77-.53-.97-.39-1.65-.73-1.97-.99l-.25-.21 1.05-.5c1.74-.83 3.06-1.19 5.05-1.38.64-.07.8-.11.83-.25.03-.16-.06-.18-.88-.18-1.71 0-3.71.56-5.59 1.56-.46.24-.87.44-.93.44-.11 0-1.98-1.8-1.98-1.91 0-.12 4.43-2.26 5.25-2.54 2.49-.84 5.23-.82 7.73.07.83.29 1.02.29 1.02.02 0-.36-2.17-.98-4.08-1.17l-1.22-.11v-.42c0-.4.02-.42.45-.58.55-.22 1.02-.74 1.17-1.32.1-.36.16-.44.36-.44.29 0 1.91.44 2.59.71.53.21.73.19.73-.07 0-.2-.61-.46-2-.84-1.77-.49-1.6-.33-1.6-1.52-.01-1.66-.5-2.37-1.71-2.46-1.49-.11-2.1.62-2.19 2.58l-.05 1.25-.52.11c-.64.14-.63.15-.63-.61 0-1.76-1.69-2.65-2.94-1.54l-.34.3-1.44-.69c-.79-.38-1.85-.86-2.35-1.07l-.93-.38v-1.98c0-2.24-.09-2.8-.53-3.46-.62-.92-1.88-1.36-3-1.05-.44.12-.42.14-.61-.75-.63-3.06-4.21-4.08-6.22-1.78-.83.95-.88 1.17-.92 4.63-.03 2.41-.06 3.04-.17 3.08-.07.03-.44.09-.82.12-.59.06-.68.1-.68.27 0 .18.08.21.8.25l.8.05.07.59c.2 1.6 1.31 2.89 2.81 3.27l.48.12-.03.51-.03.51-2.35.06c-2.84.08-2.6.05-2.6.28 0 .19.13.2 3.28.24 5.59.08 5.99.26 10.72 4.92 3.39 3.35 4.35 4.08 6.25 4.76.64.22.81.23.89.03Zm7.53-2.61c-.33-.13-.97-.34-1.44-.46-.92-.24-1.1-.38-.99-.8.11-.47 1.33-.32 2.94.35.81.33 1 .62.67.98-.23.25-.45.24-1.18-.07Zm1.03-.28c0-.22-1.72-.85-2.73-.99-.46-.07-.48-.06-.45.15.03.19.16.25.93.45.49.12 1.15.33 1.45.46.55.25.8.23.8-.07Zm-15.8-2.7c-.74-.75-1.09-1.16-.99-1.19.08-.02.41-.09.74-.16.86-.18 2.51-.73 3.4-1.14l.77-.36.27.21c.14.11.41.27.59.34l.32.14v1.49l-.82.45c-.96.52-2.82 1.37-3.01 1.37-.07 0-.64-.52-1.27-1.15Zm2.32.44c.51-.22 1.28-.59 1.7-.82l.78-.42v-.62c0-.38-.04-.63-.11-.63-.05 0-.26-.11-.45-.24l-.36-.24-.71.33c-.83.38-2.75 1.01-3.37 1.11l-.42.07.93.93c.52.52.97.94 1.01.94s.49-.18 1-.41Zm3.28-1.99c0-.57.01-.6.33-.76.68-.35.99-.78 1.18-1.62.1-.48.44-.72 1.03-.72.03 0 .17.21.3.48.28.56.57.83 1.11 1.09.36.16.4.22.43.6.04.48.13.43-1.18.63-.41.06-1.28.29-1.94.51-.65.21-1.2.39-1.22.39s-.04-.27-.04-.6Zm1.42-.14c.57-.19 1.41-.4 1.86-.46.93-.14 1.15-.44.52-.7-.39-.16-1.04-.81-1.2-1.2-.14-.33-.17-.34-.54-.2-.17.06-.26.17-.26.32 0 .61-.93 1.88-1.37 1.88-.08 0-.13.13-.13.35 0 .19.02.35.04.35s.5-.15 1.08-.34Zm-9.22-.48c-1.4-1.31-3.4-2.19-5.53-2.43l-.57-.06v-1.07l.37-.07c.48-.09 1.24-.47 1.66-.85.43-.37.34-.39.93.18.33.32.67.54.97.63l.47.13v1.02c0 .98.01 1.01.25 1.12l.25.12v-.69c0-1.39.06-1.56.59-1.7.85-.23 1.91-1.58 1.91-2.44 0-.16.05-.18.27-.12.42.1 2.6 1.11 3.43 1.58l.75.43.03 1.57.03 1.58-.68.3c-1.27.57-3.82 1.31-4.47 1.29-.06-.01-.36-.24-.66-.52Zm1.72.07c.91-.19 1.46-.36 2.74-.87l1.01-.4.07-.9c.03-.5.06-1.15.06-1.44v-.53l-1.72-.85c-2.3-1.14-2.29-1.13-2.52-.4-.23.74-1.08 1.63-1.76 1.86l-.45.15-.03 1.09-.03 1.1.78.67c.87.74.83.73 1.85.52Zm5.43-.64c-.71-.29-.9-.89-.83-2.54.08-1.67.69-2.31 1.74-1.81.72.34 1.06 2.58.55 3.7-.26.58-.91.87-1.46.65Zm.86-.31c.38-.21.49-.62.49-1.9 0-1.59-.2-2-.99-2-.71 0-.86.31-.89 1.93l-.03 1.44.31.32c.33.33.74.4 1.11.21Zm3.69-.62c-.62-.43-.71-.75-.68-2.38.04-1.89.35-2.49 1.34-2.52 1.18-.05 1.54.53 1.54 2.53 0 1.94-.36 2.59-1.45 2.59-.27 0-.54-.08-.75-.22Zm1.55-.41c.4-.4.5-.99.43-2.41-.07-1.39-.54-1.98-1.43-1.82-.75.14-.95.67-.95 2.48v1.4l.34.34c.49.49 1.13.49 1.61.01Zm-15.15-.21c0-.98-.09-1.2-.58-1.41-.25-.1-.63-.34-.84-.53l-.38-.34-.35.26c-.41.32-1.33.76-1.57.76-.14 0-.18.08-.18.34v.33l.65.07c.7.07 2.21.48 2.64.71.45.24.61.19.61-.19ZM16 23.25v-2.84l.32-.09c.34-.08.54-.51.26-.53-.07-.01-.22-.02-.33-.03-.17-.01-.21-.1-.25-.61-.04-.52-.08-.6-.25-.6-.26 0-.32.86-.34 4.68L15.4 26h-.25c-.71 0-1.8-.88-2.24-1.8l-.26-.55-.03-3.45c-.02-2.33 0-3.64.08-4.05.6-3.05 4.42-3.62 5.77-.86.27.53.28.64.33 2.41s.06 1.85.25 1.85c.18 0 .2-.08.25-.98.06-1.06.07-1.09.7-1.27 1.16-.33 2.18.15 2.67 1.25.22.49.32 4.89.14 5.75-.16.74-.54 1.25-1.17 1.56-.7.34-.77.28-.72-.65.03-.75.03-.76-.22-.76-.24 0-.25.02-.28.78-.03.91-.19.99-.9.47-.7-.5-.78-.7-.51-1.27.34-.72.42-3.43.1-3.43-.26 0-.29.15-.34 1.65q-.075 2.85-2.49 3.39l-.28.06zm1 2.25c1.03-.53 1.49-1.42 1.56-3.07.07-1.52.09-1.61.4-1.69.53-.13.64.14.64 1.58 0 1.17-.03 1.36-.26 1.96l-.27.66.43.38c.55.49.6.48.6-.11 0-.89.36-1.3.89-1.01.18.09.21.2.21.8 0 .85.18.92.78.32.59-.59.64-.89.6-3.87-.03-2.47-.04-2.62-.26-3.02-.34-.64-.83-.93-1.59-.93-1.07 0-1.13.07-1.13 1.16 0 .85-.02.94-.22 1.08-.7.5-.88.1-.88-1.96 0-1.83-.1-2.32-.65-3.03-1-1.32-3.27-1.24-4.32.13-.59.78-.63 1.07-.63 4.92 0 4.38.12 4.85 1.42 5.6.95.54.88.8.88-3.29v-3.6l.22-.15c.47-.33.88-.01.88.69 0 .41.02.45.25.45.54 0 .58.81.04 1.04l-.3.13-.06 2.57-.06 2.58.24-.07c.13-.04.4-.16.59-.25Zm10.81-7.68c-.64-.32-.94-.99-.8-1.76.15-.85.81-1.3 1.94-1.3l.72-.01.12-.57c.27-1.34.49-1.4 4.48-1.36 3.47.03 3.43.03 3.87.77.7 1.2-.2 2.4-1.81 2.41h-.73v.37c0 .54-.41 1.17-.93 1.42-.93.45-3.47.27-3.47-.25 0-.43.34-.54 1.68-.54 1.12 0 1.31-.02 1.45-.18.23-.25.21-.68-.03-.99-.5-.64-.19-.83 1.39-.83 1.41 0 1.61-.08 1.61-.63 0-.54-.17-.57-3.27-.57-3.03 0-3.23.03-3.23.55 0 .08.09.32.2.52.42.78.18.93-1.46.93-1.32 0-1.54.09-1.54.62 0 .44.28.58 1.18.58 1.07 0 1.54.38 1.04.83-.27.25-1.93.24-2.41-.01Zm2.24-.32c0-.12-.19-.16-.94-.2-1.12-.06-1.48-.32-1.37-.99.11-.69.38-.81 1.87-.81 1.44 0 1.45-.01 1.08-.64-.27-.46-.13-.98.33-1.22.33-.17 5.74-.17 6.11 0 .46.22.58.92.23 1.33-.24.28-.25.28-1.6.31-1.47.04-1.5.05-1.16.57.62.94.1 1.38-1.75 1.45-1.13.04-1.3.07-1.33.23-.05.27 2.69.26 3.15-.03.41-.24.66-.73.66-1.26v-.41l.9-.07c1.39-.11 1.93-.53 1.84-1.45-.12-1.17-.38-1.25-4.02-1.25-3.69-.01-3.92.07-4.03 1.37l-.04.55-.94.04c-1.06.04-1.36.19-1.66.79-.33.64-.1 1.45.52 1.76.37.19 2.15.13 2.15-.07Z"/></svg>