<svg xmlns="http://www.w3.org/2000/svg" width="51" height="51" viewBox="0 0 51 51"><path fill="#fff" fill-rule="evenodd" stroke="#fff" stroke-width=".441" d="M2.65 50.83c-1.46-.75-2.72-2.38-2.63-3.42.03-.35.04-.34.21.24.28.91.66 1.52 1.27 2.07.52.46 1.96 1.28 2.26 1.28.08 0 .14.05.14.1 0 .2-.57.08-1.25-.27Zm44.7.27c.03-.05.11-.1.16-.1.75 0 2.6-1.44 3.06-2.38.79-1.61-.23-8.06-2.17-13.76C41.99 16.06 25.42 2.66 5.86.46 3.7.22 3.66.22 3.18.4 1.73.95.6 2.13.19 3.5l-.14.45-.03-.43C-.07 2.27 2.33 0 3.75 0c.95 0 4.62.49 6.39.86 20.1 4.13 35.65 19.48 40.11 39.57.54 2.47 1.03 6.38.89 7.21-.21 1.27-1.31 2.62-2.65 3.26-.62.29-1.27.41-1.14.2Zm-9.54-6.4c-.69-.17-1.11-.95-.9-1.72.19-.72.63-.97 1.71-.98.44 0 .48-.02.48-.24 0-.41-.22-.49-1.05-.42-.74.07-.75.06-.85-.18-.2-.53 0-.66 1.1-.73 1.53-.09 1.8.3 1.8 2.58v1.57l-.25.06c-.14.04-.33.02-.43-.03a.36.36 0 0 0-.32-.01c-.26.13-.93.19-1.29.1Zm-20.36-.13c-.2-.11-.23-3.79-.02-3.94.2-.16 1.93-.14 2.07.02.25.31.02.75-.39.75-.75 0-.81.12-.81 1.74v1.44l-.35.04c-.19.02-.42 0-.5-.05Zm3.63.01c-.22-.17-1.4-3.44-1.36-3.77.03-.23.08-.26.43-.26h.4l.46 1.4c.54 1.6.43 1.63 1.06-.25.39-1.15.44-1.21.88-1.18.44.04.43.29-.1 1.83-.68 2.03-.83 2.29-1.25 2.33-.19.02-.43-.03-.52-.1Zm3.06.02c-.72-.29-.9-1.52-.31-2.17.33-.35.37-.36 1.15-.41.71-.04.82-.07.82-.23 0-.4-.29-.52-1.11-.45-.81.07-.89.03-.89-.44 0-.75 2.27-.6 2.77.17.25.37.27 3.38.03 3.53-.21.13-.58.12-.62-.01-.03-.09-.09-.09-.25 0-.25.13-1.28.14-1.59.01Zm4.26-.03c-.56-.19-.7-.59-.7-1.99v-1.17l-.32-.03c-.5-.05-.5-.71-.01-.76.3-.03.32-.05.35-.5.03-.47.03-.47.42-.5.44-.04.56.07.56.56 0 .31.01.32.46.32h.45l-.03.43c-.03.42-.03.42-.46.45l-.42.03v1.09c0 1.2.01 1.21.65 1.3.35.04.4.08.43.35.06.52-.55.7-1.38.42Zm2.01.04c-.32-.09-.45-.32-.37-.65l.06-.26.8.06c.85.07 1.1-.01 1.1-.37 0-.21-.2-.32-.89-.49-.93-.24-1.36-1.32-.81-2.03.57-.72 2.56-.59 2.41.15l-.07.33-.6-.03c-.76-.04-1.04.04-1.04.27 0 .26.16.36.87.56.99.28 1.35.93 1 1.78-.29.67-1.4.98-2.46.68Zm-17.86-.13c-.03-.07-.04-1.28-.03-2.68l.03-2.55h.9l.03 1.13.03 1.13.97-.03.97-.03.03-1.08.03-1.08.47.03.47.03v5.2l-.47.03-.48.03v-2.28l-1 .01-.99.01-.03 1.1-.03 1.1-.43.03c-.28.02-.44-.01-.47-.1Zm21 0c-.03-.07-.04-1.32-.03-2.78l.03-2.65h.9l.05 1.5.05 1.5.63-.78c.6-.73.66-.77 1.03-.77.61 0 .59.2-.1 1.09-.73.95-.73.72-.01 1.82.69 1.05.7 1.13.09 1.17l-.44.03-.54-.86c-.66-1.05-.69-1.05-.73-.02l-.03.82-.43.03c-.28.02-.44-.01-.47-.1Zm-7.82-.18c.32-.18.38-.18.43-.05.04.08.12.15.2.15.11 0 .14-.28.14-1.45 0-2.05-.13-2.25-1.45-2.25-.74 0-.95.06-.95.29 0 .14.11.16.74.13.9-.04 1.16.13 1.16.77v.38h-.8c-1.2-.01-1.69.5-1.44 1.51.16.67 1.18.94 1.97.52Zm6.68-.18c.62-.69.37-1.42-.56-1.71-.96-.3-1.05-.36-1.05-.76 0-.45.24-.58 1.03-.53.52.02.62 0 .65-.14.04-.23-.32-.31-1.13-.26-.79.05-.96.19-1.03.87-.06.63.2.92.99 1.11.65.15.89.34.89.7 0 .6-.56.8-1.58.58-.31-.07-.33-.06-.3.15.07.5 1.65.49 2.09-.01Zm6.67.18c.28-.17.33-.18.38-.05.11.27.33.16.4-.21.1-.53 0-2.66-.14-2.91-.3-.55-2.32-.68-2.32-.15 0 .15.1.17.78.14.9-.04 1.07.05 1.18.64.09.47-.03.54-.94.54-1.14 0-1.67.76-1.19 1.7.26.52 1.23.67 1.85.3Zm-25.8-1.07.03-1.13h2.39v.93c0 1.11.06 1.37.31 1.37.18 0 .19-.12.19-2.45V39.5h-.5v2.2h-2.4v-2.2h-.5v4.91l.23-.03c.21-.03.22-.07.25-1.15Zm4.79-.17c-.02-1.54.08-1.78.84-1.91.29-.05.39-.11.39-.26 0-.26-.44-.25-.93.01-.32.18-.38.18-.43.05-.04-.08-.12-.15-.2-.15-.11 0-.14.33-.14 1.8v1.8h.49zm3.87 1.06c.12-.24 1.16-3.17 1.16-3.28 0-.02-.11-.04-.24-.04-.21 0-.27.1-.54.93-.49 1.49-.73 2.08-.85 2.04-.06-.02-.33-.69-.6-1.5-.45-1.37-.5-1.47-.74-1.47-.29 0-.33-.18.45 2.03l.55 1.57h.33c.26 0 .37-.06.48-.28Zm7.64.06c.03-.15-.04-.18-.36-.18-.67 0-.77-.21-.77-1.64v-1.21l.48-.03c.77-.05.62-.35-.23-.44-.22-.03-.25-.09-.28-.45-.05-.66-.37-.61-.46.07-.06.47-.08.5-.36.5-.24 0-.3.04-.3.21s.05.2.32.17l.33-.03-.03.9c-.05 1.22.05 1.92.29 2.16.27.27 1.32.24 1.37-.03Zm4.62-.62c0-1.32.37-1.32 1.18-.01.43.69.58.85.78.85.33 0 .32-.01-.36-1.01-.72-1.05-.72-.84 0-1.8l.61-.79h-.29c-.23 0-.36.11-.76.65-.45.61-.71.85-.94.85-.05 0-.13-.68-.17-1.5-.06-1.34-.09-1.5-.24-1.5-.17 0-.18.2-.23 2.36-.06 2.57-.05 2.74.23 2.74.17 0 .19-.08.19-.84Zm-9.8.34c-.24-.24-.26-.67-.04-.98.13-.2.24-.22.96-.22h.81l-.07.41c-.15.92-1.08 1.37-1.66.79Zm13.42-.03c-.57-.61-.17-1.17.84-1.17h.74v.45c0 .86-1.01 1.32-1.58.72Zm-12.44-.08c.29-.1.42-.32.42-.71 0-.32-1.17-.26-1.32.06-.13.31-.05.54.24.66.3.12.3.12.66-.01Zm13.46 0c.23-.11.36-.35.36-.71 0-.28-1.15-.26-1.3.02-.28.53.32.97.94.69ZM9.65 35.77c-.03-.06-.04-2.98-.03-6.47l.03-6.35 1.23.02c3.58.06 8.59.87 12.02 1.96l1.05.33.03 5.32.02 5.32h-7.15c-5.63 0-7.17-.03-7.2-.13Zm15.53-5.59-.03-5.72-1.35-.44c-.74-.23-2.02-.6-2.83-.8-.81-.21-1.49-.42-1.5-.47-.07-.32 5.07-1.42 8.65-1.86 1.15-.14 1.02.11 1.24-2.34.15-1.69.2-1.99.35-2.02.13-.04.2-.26.29-1.06.15-1.18.43-2.44.58-2.59.48-.48 1.04 1.85 1.28 5.4l.07 1.02h.33c.18 0 .49.09.68.21l.36.21v15.86l-.25.16c-.21.14-.71.16-4.05.16h-3.8zm-1.5 5.43c.1-.01.12-1.06.1-5.08l-.03-5.06-.55-.19c-2.62-.89-6.5-1.62-10.25-1.93-1.04-.08-2.16-.17-2.47-.2l-.58-.06v12.56l6.83-.02zm8.92-7.28c0-4.06-.03-7.68-.07-8.05l-.06-.68h-.34c-.42 0-.38.14-.63-2.35-.22-2.14-.42-3.35-.64-3.9l-.13-.3-.12.41c-.1.36-.26 1.37-.46 2.9-.04.3-.11.43-.25.47-.17.04-.2.14-.2.55 0 .27-.07 1.16-.15 1.98-.17 1.63-.22 1.74-.81 1.74-1.11 0-7.35 1.14-8.54 1.56-.08.03.53.23 1.36.44 1.6.41 3.63 1.06 3.78 1.2.05.05.08 2.54.07 5.74l-.02 5.66h7.21zm.35-8.51c-.11-.11-.11.31-.06 7.88l.06 7.85.03-7.84c.01-4.31 0-7.86-.03-7.89Zm7.35-4.58c-.3-.08-.92-.33-1.38-.56-.7-.35-.86-.4-1.03-.3-.68.43-1.35-.39-.98-1.21.09-.19.04-.35-.3-.98-.76-1.41-1.01-3.19-.66-4.68.94-3.95 5.88-5.89 9.17-3.59.35.24.89.52 1.2.62 1.11.37 1.56 1.03 1.14 1.69-.13.2-.12.28.09.77 1.92 4.47-2.51 9.5-7.25 8.24Zm2.67-.2c2.83-.58 4.74-2.96 4.73-5.89-.01-.88-.12-1.34-.61-2.52-.12-.29-.11-.34.03-.45.16-.13.34-.58.23-.58-.03 0-.32.28-.63.61-1.22 1.32-6.66 5.94-8.75 7.43-.74.53-.79.67-.18.46.37-.12.43-.11.88.15 1.51.85 2.84 1.09 4.3.79Zm-4.9-1.8c3.37-2.49 9.03-7.47 9.03-7.96 0-.54-2.66-.81-4.8-.5-1.32.2-1.3.18-.61.69.73.54.72.46.14 1.24-3.1 4.22-4.83 6.73-4.83 7.02 0 .26.13.2 1.07-.49Zm1.16-3.39c.99-1.38 1.99-2.75 2.22-3.05s.44-.6.48-.66c.04-.07-.16-.29-.49-.54-1.05-.79-.7-.98 2.24-1.22l1.52-.12-.47-.29c-1.11-.69-3.06-.95-4.38-.58-1.46.41-3.1 1.72-3.73 2.99-.83 1.69-.68 4.41.35 5.96.23.36.26.38.36.2.06-.1.92-1.31 1.9-2.69Zm11.79-6.11c-.44-1.7-1.56-2.89-3.3-3.5l-.67-.23h.46c1.52-.02 3.77 2.29 3.67 3.77l-.03.47zM11.57.03c2.71-.02 7.15-.02 9.85 0 2.71.01.5.02-4.92.02S8.87.04 11.57.03Z"/></svg>