<svg xmlns="http://www.w3.org/2000/svg" width="51" height="51" viewBox="0 0 51 51"><path fill="#fff" fill-rule="evenodd" stroke="#fff" stroke-width=".657" d="M5.16 45.87a.37.37 0 0 1-.14-.38l.03-.24h8.4v.7l-4.05.03c-3.23.02-4.1 0-4.24-.11Zm38.74-.03c-.14-.09-2.11-2.02-4.37-4.28-2.27-2.26-4.17-4.12-4.22-4.14s-.44.24-.87.56C23 46.55 6.72 38.38 6.7 24.06 6.68 10.15 22.12 1.87 33.71 9.6c8.38 5.58 10.24 17.47 3.96 25.3l-.36.44 4.29 4.26c4.66 4.61 4.58 4.51 4.31 5.33-.28.84-1.38 1.34-2.01.91Zm1.05-.18c.44-.19.75-.69.75-1.21 0-.39-.08-.47-4.36-4.76l-4.35-4.36.44-.54c4.54-5.57 4.96-14.01 1.01-20.07C33.33 6.89 22.96 4.58 14.95 9.5c-8.1 4.98-10.48 15.99-5.19 24.06.88 1.35 3.45 3.87 4.94 4.87 6 3.98 13.84 3.68 19.72-.75.43-.32.83-.58.9-.58s2.02 1.89 4.33 4.21c4.58 4.59 4.63 4.63 5.3 4.35ZM13.3 45.6c0-.06-1.4-.1-4-.1s-4 .04-4 .1 1.4.1 4 .1 4-.04 4-.1Zm-5.8-2.26c-2.86-3.02-2.77-2.84-1.29-2.84h.99v-3.57l1.9-.07c1.05-.03 1.95-.04 2-.01.06.04.1.83.1 1.85v1.79l1.07.03c.65.02 1.08.07 1.1.14.05.15-3.99 4.46-4.15 4.43-.04-.01-.81-.8-1.72-1.75Zm4.51-1.46 1.01-1.07-.99-.03-.98-.03-.03-1.82L11 37.1H7.5l-.02 1.83-.03 1.82-.97.05-.97.05 1.87 1.98 1.87 1.98.88-.93c.49-.51 1.33-1.41 1.88-2Zm10.1-3.19c-8.99-1.04-14.95-10.5-12.1-19.23 2.76-8.44 12.57-12.58 20.51-8.66 6.75 3.33 9.9 11 7.42 18.11-2.3 6.62-8.75 10.6-15.83 9.78Zm4.19-.31c10.22-1.43 15.65-13.71 9.87-22.33C28.22 4.19 9.57 9.77 9.55 24c-.01 9 7.73 15.65 16.75 14.38Zm-4.86-4.8c-.69-.57-1.38-1.12-1.51-1.22-.25-.19-.26-.19-1.13.09-1.25.4-1.2.45-2.1-2.05-.62-1.74-.47-1.56-1.55-1.78-1.18-.23-1.16-.16-.82-2.15l.28-1.63-.51-1.44c-.66-1.86-.66-1.86.35-2.28s.88-.2 1.29-2.21c.46-2.27.38-2.19 1.88-1.97 1.58.23 1.43.28 1.63-.62.46-2.15.29-2.05 2.71-1.63l1.78.3.72-.69c.92-.9.73-.94 2.44.49.63.53 1.24 1.04 1.36 1.13.2.16.25.16 1-.07 1.37-.43 1.31-.48 2.12 1.8l.6 1.7.87.22c1.28.31 1.25.25.91 1.97l-.29 1.44.52 1.75c.63 2.1.63 2.06-.44 2.38-.91.27-.79.07-1.1 1.75-.54 2.95-.38 2.75-1.94 2.45-.99-.19-1.51-.25-1.51-.18s-.42 1.95-.51 2.29c-.05.21-.17.39-.28.43-.14.04-2.59-.36-3.67-.6-.16-.03-.38.13-.91.65-.38.39-.75.7-.81.7s-.68-.46-1.38-1.02Zm2.15.02.66-.69 1.75.34c.96.19 1.85.35 1.97.35.25 0 .26 0 .57-1.53.13-.65.26-1.21.3-1.24.03-.04.67.04 1.42.17.79.13 1.39.19 1.44.14s.23-.88.41-1.84c.42-2.31.33-2.15 1.25-2.41.96-.28.94-.21.43-1.96l-.44-1.48-.09.43c-.09.41-.02.79.41 2.24q.075.27-.81.45c-.29.06-.29.06-.22-.33.03-.21.15-.93.26-1.59s.33-1.85.5-2.65c.43-2.08.46-1.95-.47-2.15-1.21-.25-1.09-.12-1.8-2.1-.35-.99-.67-1.83-.72-1.88s-.5.05-1.05.22l-.96.31-.78-.67c-1.33-1.15-2.19-1.83-2.31-1.83-.06 0-.41.32-.78.7-.62.65-.69.7-.97.64-1.1-.25-3.53-.6-3.62-.53-.06.05-.24.68-.39 1.39-.32 1.49-.17 1.38-1.6 1.15-1.72-.28-1.53-.49-2.05 2.1-.34 1.69-.3 1.63-1.27 2-.4.14-.75.31-.78.35-.03.05.19.78.49 1.62l.54 1.53-.29 1.59c-.33 1.86-.36 1.79.69 1.96 1.06.17 1.04.16 1.47 1.37 1.05 2.99.9 2.82 2.15 2.37.87-.31.66-.4 2.38 1 .79.64 1.49 1.16 1.54 1.16.06 0 .41-.31.77-.7Zm-2.04-.81c-.66-.54-1.21-1.02-1.23-1.07-.02-.06.32-.24.75-.4 3.5-1.35 3.19-1.26 3.9-1.14.8.13.81.14.52.5-1.08 1.33-2.48 2.94-2.63 3.03-.06.04-.65-.38-1.31-.92Zm2.53-.83c1.29-1.54 1.3-1.56.51-1.56-.47 0-3.94 1.29-3.82 1.41.33.33 1.9 1.58 1.99 1.58.06.01.66-.64 1.32-1.43Zm1.95.86c-.72-.15-1.35-.3-1.38-.34-.09-.09 1.64-2.08 1.81-2.08s1.77.31 1.85.36c.03.02-.06.54-.21 1.16-.33 1.35-.18 1.28-2.07.9Zm1.82-.95c.21-1.03.27-.93-.65-1.08l-.73-.13-.54.6c-.29.32-.62.71-.73.85l-.19.26 1.27.25c1.49.29 1.34.35 1.57-.75Zm-9.83-.01c-.14-.17-1.15-3.06-1.1-3.12.05-.04.76.09 4.97.9 1.14.21 1.46.39.96.52-.15.04-1.27.46-2.51.94-1.58.62-2.26.84-2.32.76Zm2.25-1.01c1.05-.41 1.97-.75 2.04-.75.46 0-2.54-.65-4.83-1.05l-.27-.04.41 1.12c.22.62.43 1.2.45 1.3.08.25.12.24 2.2-.58Zm10.23-.28c-.29-.1-.58-.45-1.88-2.27-1.87-2.64-2-2.8-2.15-2.8-.07 0-.66.36-1.31.8-1.25.85-1.31.87-1.39.68-.04-.11-1.27-1.87-3.45-4.9-.3-.43-.61-.78-.69-.78-.07 0-.95.56-1.96 1.23-1 .68-1.88 1.27-1.96 1.32-.11.06-.12-.02-.06-.51.12-.96 1.04-5.67 1.13-5.76.07-.07 2.47.27 5.27.77.77.14 3.18.56 5.35.95 4.99.88 5.64 1 5.77 1.08.08.05.06.34-.08 1.02-.11.52-.49 2.57-.84 4.55-.91 5.1-.83 4.75-1.14 4.74-.14 0-.42-.05-.61-.12Zm-3.09-.47c-.9-.16-1.65-.31-1.67-.33-.17-.16-1.44-2.14-1.44-2.23 0-.14 1.88-1.44 2.07-1.44.14 0 .48.45 1.96 2.59.59.84 1.04 1.57 1.01 1.62-.07.12-.01.12-1.93-.21Zm4.03-1.07c.14-.76.48-2.64.75-4.18.28-1.54.57-3.12.65-3.5s.12-.73.08-.77c-.14-.13-15.87-2.86-15.96-2.77-.07.07-1.08 5.5-1.04 5.54.02.03.67-.39 1.43-.91 2.11-1.44 2.21-1.49 2.48-1.31.13.08.95 1.16 1.82 2.38 2.29 3.23 2.26 3.19 2.36 3.19.05 0 .6-.34 1.23-.76.85-.56 1.2-.74 1.35-.69.12.03.96 1.12 1.96 2.53 1.77 2.48 1.88 2.6 2.36 2.61.26.01.27-.01.53-1.36Zm-2.51.94c-.04-.07-.64-.92-1.32-1.89l-1.24-1.77-.88.6c-.49.33-.89.63-.89.67s.3.51.66 1.04l.67.97.66.11c.36.06 1 .17 1.41.24 1 .18 1.02.18.93.03Zm-7.38-.87c-1.43-.26-3.5-.65-4.6-.85s-2.03-.4-2.06-.43c-.06-.07.15-1.43.4-2.63.13-.63-.11-.41 2.75-2.39l1.5-1.03.23.29c.13.16.66.9 1.18 1.64 3.24 4.64 3.94 5.66 3.95 5.78 0 .2-.58.13-3.35-.38Zm2.95.16c0-.03-.59-.89-1.32-1.93-.72-1.03-1.83-2.61-2.45-3.5-.63-.9-1.19-1.63-1.24-1.63-.11 0-.77.43-2.6 1.72l-1.27.88-.27 1.41c-.14.78-.25 1.42-.23 1.43.02.02.46.1.98.2.52.09 2.5.45 4.4.81 3.23.6 4 .71 4 .61Zm4.12-3.7c-2.57-.82-2.01-4.46.68-4.46 2.05 0 3.03 2.5 1.53 3.92-.55.53-1.5.76-2.21.54Zm1.36-.32c1.98-.82 1.6-3.68-.52-3.91-1.47-.17-2.67 1.4-2.1 2.75.44 1.05 1.62 1.58 2.62 1.16Zm-1.34-.43c-1.12-.51-1.34-1.84-.43-2.65 1.51-1.37 3.62.89 2.18 2.33-.5.5-1.11.61-1.75.32Zm1.27-.26c.9-.47.9-1.93 0-2.4-.91-.47-2.01.17-2.01 1.18 0 1.04 1.09 1.69 2.01 1.22Zm-15.2-1.35c-.18-.56-.34-1.07-.37-1.14-.05-.12 1.02-.63 1.12-.54.02.03-.02.45-.11.93-.08.48-.15 1.02-.15 1.19-.01.71-.17.56-.49-.44Zm15.99-3.77c-.14-.03-1.97-.36-4.07-.74S22.72 18 22.61 18c-.12 0-.21-.06-.21-.13 0-.13 1.39-1.8 2.46-2.95l.49-.53 1.2 1c.66.55 1.2 1.05 1.2 1.12s-.8.42-1.79.79c-1.38.52-1.73.68-1.55.73.47.13.79.06 1.91-.39 1.35-.54 3.42-1.24 3.68-1.24.19 0 .19 0 .85 1.84.47 1.32.47 1.3-.15 1.19Zm.17-.36c-.02-.06-.23-.65-.47-1.29l-.42-1.17-1.52.53c-2.21.78-2.76.99-2.76 1.06 0 .05 4.65.95 5.09.99.07.01.11-.05.08-.12Zm-5.22-1.94c.94-.35 1.71-.66 1.73-.67.04-.05-1.88-1.61-2.01-1.63-.11-.02-2.47 2.64-2.55 2.87-.04.1.53.19.88.13.14-.02 1.02-.34 1.95-.7Zm-5.13.52c-.39-.06-.75-.14-.78-.17-.07-.08.45-2.26.56-2.33.07-.04 2.8.4 3.08.5.16.06-.1.41-1.08 1.47-.68.74-.62.73-1.78.53Zm1.82-.96c.38-.44.67-.81.65-.84-.06-.05-2.5-.47-2.53-.43-.06.07-.47 1.81-.43 1.84.05.05 1.06.21 1.37.23.19 0 .41-.18.94-.8Z"/></svg>