<svg xmlns="http://www.w3.org/2000/svg" width="51" height="51" viewBox="0 0 51 51"><path fill="#fff" fill-rule="evenodd" stroke="#fff" stroke-width=".403" d="M5.15 51.01c-1.58-.58-2.66-1.35-3.69-2.64C.69 47.4 0 45.84 0 45.07c0-.42.09-.29.26.4.68 2.64 2.62 4.55 5.64 5.56l.45.15-.35.01c-.19 0-.57-.08-.85-.18Zm40.45-.1c2.86-.93 4.58-2.77 5.42-5.81.11-.41.12-.43.16-.16.06.46-.43 1.85-.97 2.72-1.12 1.82-3.64 3.56-5.1 3.53-.3 0-.23-.05.49-.28Zm-22.66-6.65c-2.19-1.02-2.17-5.58.04-6.52.64-.27 1.71-.16 2.26.23l.46.33-.01-.53c-.02-1.4-.26-1.97-.85-1.97-.21 0-.24-.04-.24-.4V35h3v4.04c0 4.51-.02 4.4.7 4.55.29.05.36.12.38.35.06.47-.31.55-1.91.39-.73-.06-.68-.03-.92-.71-.04-.1-.14-.05-.34.17-.66.7-1.67.89-2.57.47Zm11.61.05c-1.29-.6-1.64-2.23-.68-3.16.44-.43 1.11-.64 2.31-.73l.87-.07.03-.56c.04-.7-.1-1.06-.45-1.2-.53-.2-1.03.21-1.03.86 0 .57-1.59.29-1.74-.31-.42-1.66 4.14-2.21 4.98-.59.19.37.21.57.21 2.59.01 2.35.03 2.46.58 2.46.15 0 .18.06.15.38l-.03.37-.9.03c-1.27.04-1.52-.02-1.6-.38-.08-.37-.08-.37-.54 0-.65.52-1.45.64-2.16.31Zm-26.02.02c-.29-.11-.15-.73.16-.73a1 1 0 0 0 .52-.19l.24-.19.03-3.17c.03-3.59.03-3.61-.65-3.67-.36-.03-.38-.05-.41-.4l-.03-.38h4.32l-.03.38c-.03.31-.07.37-.28.4-.91.1-.9.05-.9 3.51 0 3.51.05 3.71.9 3.71.3 0 .31.02.28.38l-.03.37-2 .02c-1.1.01-2.06-.01-2.12-.04Zm4.59 0c-.25-.1-.15-.73.12-.73.14 0 .38-.11.53-.24l.28-.24v-2.1c0-2.31-.01-2.37-.62-2.48-.32-.06-.34-.08-.31-.43l.03-.36h2.7l.03.36.03.36.33-.33c.58-.58 2.03-.72 2.78-.26.72.45.82.81.88 3.17.07 2.32.08 2.41.54 2.53.31.09.37.27.21.7-.05.13-.98.16-2.17.05l-.56-.05-.04-2.43c-.03-2.79-.08-2.97-.81-3.03-.81-.07-1.07.58-1.07 2.7 0 1.7.07 1.95.57 2.04.32.06.34.09.31.43l-.03.36-1.8.02c-.99.01-1.86-.01-1.93-.04Zm16.36-.01-.68-.03v-.33c0-.31.03-.34.39-.4.56-.09.61-.32.61-2.63 0-2.19-.03-2.3-.61-2.39-.39-.07-.4-.08-.37-.43l.03-.36 1.25-.03c.69-.01 1.35 0 1.48.03l.22.05v2.6c0 2.95.02 3.07.62 3.17.38.06.39.07.36.42l-.03.36h-1.3c-.71 0-1.6-.01-1.97-.03Zm-4.68-.27c.14-.07.41-.29.59-.49.46-.47.58-.45.72.09l.11.45h1.09c1.14 0 1.46-.15.77-.35-.74-.23-.73-.19-.7-4.56l.03-3.89H26.1c-1.01 0-1.31.03-1.28.13.03.06.13.14.24.15.6.11.84.73.84 2.15 0 1.07-.07 1.18-.51.71-1.13-1.23-3.14-.59-3.63 1.15-.8 2.86 1.01 5.51 3.04 4.46Zm11.48-.04c.21-.11.48-.31.61-.45.28-.3.46-.22.56.25l.07.29h1.04c1.02 0 1.31-.1.81-.29s-.52-.29-.52-2.55c0-2.5-.08-2.81-.78-3.15-1.18-.56-3.74-.21-3.93.53-.14.56.17.86.88.86.36 0 .38-.02.38-.31 0-.79 1.03-1.17 1.61-.59.29.28.3.32.27 1.12l-.03.83-.9.08c-1.81.15-2.62.6-2.72 1.49-.19 1.63 1.21 2.63 2.65 1.89Zm-23.88-.06c0-.09-.09-.15-.24-.15-.14 0-.38-.11-.53-.24l-.28-.24v-3.35c0-3.74-.01-3.69.71-3.83.19-.03.34-.12.34-.2 0-.11-.35-.14-1.9-.14-1.62 0-1.9.02-1.9.15 0 .09.1.15.26.15.15 0 .38.12.55.29l.29.29v3.22c0 3.77-.03 3.9-.86 3.9-.15 0-.24.06-.24.15 0 .13.28.15 1.9.15s1.9-.02 1.9-.15Zm4.3.05c0-.05-.16-.16-.35-.24-.52-.22-.57-.46-.53-2.51.04-2.1.13-2.39.84-2.64.35-.12.44-.12.76.03.61.29.68.61.68 3.21v2.25h1.2c1 0 1.2-.02 1.2-.15 0-.08-.08-.15-.18-.15-.5 0-.57-.27-.62-2.54-.04-1.85-.07-2.16-.25-2.51-.59-1.18-2.27-1.27-3.25-.17l-.5.56V38h-1.2c-1 0-1.2.02-1.2.15 0 .08.07.15.15.15.73 0 .85.4.85 2.74 0 2.19-.09 2.53-.68 2.71-.81.23-.36.35 1.38.35 1.05 0 1.7-.04 1.7-.1Zm15.88-.02c-.03-.07-.18-.16-.36-.2-.6-.16-.62-.25-.62-3.15V38h-1.3c-1.09 0-1.3.02-1.3.15 0 .09.09.15.24.15.13 0 .35.09.5.21l.26.2v2.2c0 2.47-.05 2.72-.62 2.87-.85.22-.39.32 1.42.32 1.37 0 1.81-.03 1.78-.12Zm3.03-.44c-.48-.34-.64-1.18-.34-1.81.21-.45.78-.72 1.52-.73h.54l-.06.74c-.14 1.57-.86 2.36-1.66 1.8Zm-11.86-.27c-.84-.84-.84-3.7.01-4.55.41-.41 1.06-.42 1.49-.02.89.83.81 4.14-.11 4.75-.42.27-1.01.2-1.39-.18Zm1.35-.15c.71-.72.75-3.48.05-4.18-.91-.9-1.67-.08-1.73 1.86-.06 1.75.29 2.6 1.08 2.6.21 0 .41-.09.6-.28Zm11.48.05c.28-.3.42-.78.42-1.46v-.53l-.48.07c-.83.12-1.15.46-1.15 1.2 0 .87.69 1.28 1.21.72ZM0 25.65V17h25.6c17 0 25.6.03 25.6.1s-8.57.1-25.5.1H.2V34h25.5c22.6 0 25.5.02 25.5.15s-2.91.15-25.6.15H0zm20.52 4.57c-1.37-.49-1.97-1.52-1.97-3.36 0-1.64.43-2.47 1.59-3.09.7-.38 2.52-.33 3.26.09 2.17 1.22 2.02 5.28-.22 6.24-.74.32-1.95.37-2.66.12Zm5.16.01c-.41-.11-.23-.72.22-.79.68-.11.7-.19.7-2.66V24.6h-1v-.87l.48-.07.48-.06.11-.71c.24-1.51.82-1.94 2.65-1.94 1.55 0 2.12.29 1.94.98-.16.65-1.42.88-1.58.29-.06-.2-.18-.37-.35-.45-.42-.19-.63.17-.63 1.09v.74h1.6v1h-1.6v2.19c0 2.56 0 2.58.88 2.68l.53.06-.03.36-.03.36-2.1.01c-1.15.01-2.18 0-2.27-.03Zm-2.86-.24c1.25-.32 1.98-1.74 1.85-3.58-.14-1.84-1.4-2.86-3.34-2.68-1.73.17-2.58 1.21-2.58 3.17.01 2.51 1.59 3.71 4.07 3.09Zm7.08-.13c0-.09-.16-.15-.46-.19-.94-.1-1.05-.45-.97-3.23l.06-2.03.76-.03c.7-.03.76-.05.79-.26s.01-.22-.77-.22h-.79l-.07-.31c-.11-.5.04-1.55.26-1.84.38-.47 1.19-.15 1.19.47 0 .17.05.19.33.13.57-.12.67-.16.78-.36.27-.51-.48-.89-1.73-.89-1.59 0-2.16.47-2.42 2.03l-.12.72-.47.03c-.42.03-.47.06-.47.27 0 .22.05.24.53.27l.52.03v2.27c0 2.57-.05 2.74-.78 2.91-.21.05-.37.15-.37.23 0 .12.37.14 2.1.14 1.71 0 2.1-.03 2.1-.14Zm-8.6-.23c-1.19-.44-1.47-4.06-.39-5.09.6-.57 1.54-.38 1.98.41.28.52.23 3.35-.08 3.98-.31.65-.91.92-1.51.7Zm1.11-.52c.5-.54.67-3.08.26-4.03-.48-1.13-1.79-.74-2.08.62-.52 2.43.67 4.66 1.82 3.41ZM3.52 11.42c-2.31-.83-2.25-4.77.09-5.46 1.62-.49 3.45.39 2.56 1.22-.46.43-.84.4-.97-.07-.12-.45-.33-.61-.79-.61-1.29 0-1.66 3.16-.48 4.04.33.25 1.16.26 1.49.02l.46-.32c.32-.23.44-.08.35.42-.15.75-1.6 1.15-2.71.76Zm4.7.06c-1.68-.37-2.04-3.23-.52-4.08.6-.33 1.56-.34 2.17-.02 1.63.85 1.23 3.7-.57 4.11-.52.12-.51.12-1.08-.01Zm8.83-.02c-.84-.31-1.04-.84-.51-1.35.37-.35.56-.34.56.03s.37.76.71.76c.99 0 .86-.77-.19-1.11-1.62-.52-1.74-2.17-.19-2.6.83-.23 1.97.18 1.97.71 0 .49-.82.86-.88.4-.07-.5-.7-.7-1.06-.34-.3.3-.06.55.82.86.92.32 1.32.72 1.32 1.31 0 1.04-1.37 1.76-2.55 1.33Zm4.16.01c-.65-.23-.76-.5-.79-2.12l-.04-1.44-.26-.03c-.39-.04-.33-.28.14-.6.23-.15.49-.44.58-.63.28-.59.86-.52.86.1v.45h1v.7h-1.02l.03 1.31c.04 1.48.13 1.66.77 1.54.3-.06.32-.04.32.25 0 .45-.91.72-1.59.47Zm5.74.06c-.76-.19-.95-.68-.95-2.41V7.9h-.25c-.39 0-.34-.41.08-.6.17-.08.45-.34.6-.57.46-.69 1.01-.6.89.15l-.05.32h.52c.45 0 .51.03.57.24.09.37-.02.46-.58.46h-.5l.04 1.36c.04 1.5.07 1.56.68 1.52.65-.05.56.46-.11.66-.54.17-.6.17-.94.09Zm-15.79-.18c-.08-.22.03-.43.27-.51.34-.11.37-.21.37-1.62V7.9h-.24c-.31 0-.4-.14-.32-.46.06-.24.08-.25.99-.22.68.02.91.06.89.16-.01.08.11.06.38-.08 1.31-.67 2 .07 2 2.15 0 1.25 0 1.25.25 1.37.2.09.25.18.23.37-.03.26-.04.26-.88.26h-.85l-.05-1.6c-.05-1.68-.08-1.79-.4-1.88-.49-.13-.65.21-.69 1.52l-.03 1.21.31.11c.27.09.32.16.29.38l-.03.26-1.21.03c-1.02.02-1.23 0-1.28-.13Zm11.78.01c-.1-.26.01-.51.24-.54.22-.03.22-.06.22-1.48V7.9h-.26c-.23 0-.25-.03-.22-.32l.03-.33.93-.03.92-.03v3.59l.31.06c.26.05.3.1.27.33l-.03.28-1.18.03c-.96.02-1.18 0-1.23-.12Zm6.7-.05c-.49-.3-.64-.82-.64-2.21V7.9h-.26c-.23 0-.25-.03-.22-.32l.03-.33.88-.03.87-.03v1.48c0 1.89.28 2.45.89 1.84.33-.33.32-2.58-.01-2.63-.18-.02-.23-.1-.23-.33v-.3l.93-.03.92-.03v3.59l.25.06c.2.05.25.13.25.36v.3h-.81c-.72 0-.81-.02-.86-.2-.05-.19-.05-.19-.44 0-.49.25-1.15.26-1.55.01Zm4.87.03c-.41-.29-.51-.72-.51-2.14V7.9h-.25c-.2 0-.25-.05-.25-.25 0-.16.06-.25.16-.25.19 0 .84-.65.84-.85 0-.24.63-.35.76-.13.04.07.07.27.06.45-.03.31-.02.32.45.35.46.03.48.04.51.36s.03.32-.43.32h-.46l.03 1.38.03 1.37.48.03c.47.03.48.04.45.35-.04.36-.22.44-1.08.46-.37.01-.64-.05-.79-.15Zm1.99-.18c0-.28.04-.35.23-.38.21-.03.22-.06.25-1.45l.03-1.43h-.26c-.24 0-.26-.03-.23-.32l.03-.33.93-.03.92-.03v3.59l.31.06c.26.05.3.1.27.33l-.03.28-1.22.03-1.23.03zm3.85.18c-1.43-.74-1.53-3.24-.16-3.94 2.16-1.1 4.12 1.24 2.81 3.35-.42.67-1.87 1-2.65.59Zm3.35-.13c0-.22.05-.3.25-.35l.25-.06V9.35c0-1.38-.01-1.45-.2-1.45-.16 0-.2-.07-.2-.35V7.2h.85c.79 0 .85.01.85.2 0 .2.01.2.31-.02.38-.29 1.2-.31 1.61-.04.47.31.58.71.58 2.15v1.31l.25.06c.19.05.25.13.25.35v.29h-.89c-1.08 0-1.01.13-1.01-1.85 0-1.46-.01-1.55-.21-1.65-.55-.3-.79.25-.79 1.79v.97l.31.11c.24.09.3.17.27.35-.03.22-.06.23-1.25.26l-1.23.03zm-38.21-.09c.36-.18.6-.46.49-.57-.04-.04-.2.03-.36.15-.9.67-2.21.13-2.53-1.02-.15-.58-.07-2.02.16-2.56.44-1.06 1.94-1.18 2.19-.16.1.4.66.22.66-.21 0-.76-2.01-.96-3.02-.3-1.24.81-1.33 3.49-.15 4.39.65.5 1.88.63 2.56.28Zm4.21-.04c1.16-.6 1.26-2.61.16-3.42-.4-.3-1.72-.3-2.12 0-1.07.79-.98 2.77.16 3.43.48.28 1.23.28 1.8-.01Zm9 .04c1.1-.54.87-1.55-.47-2.06-1.09-.41-1.35-.77-.94-1.27.37-.46 1.41-.21 1.41.34 0 .18.02.18.22.05.81-.54-1.02-1.11-1.88-.59-.9.55-.62 1.35.69 1.99.64.31.9.49.97.68.35.91-1.3 1.24-1.69.33-.18-.45-.22-.46-.45-.2-.57.63 1.16 1.22 2.14.73Zm3.67.06.28-.11-.44-.07c-.67-.1-.71-.22-.71-1.87V7.7h.5c.64 0 .66-.18.03-.22l-.48-.03-.03-.42c-.04-.53-.28-.57-.57-.1-.11.17-.35.41-.53.53l-.33.23.28.03.28.03.03 1.51c.02 1.49.03 1.52.29 1.78.29.29.89.35 1.4.14Zm5.59-.03c.18-.13.17-.14-.18-.15-.61 0-.68-.2-.68-1.87V7.7h.5c.28 0 .5-.04.5-.1 0-.05-.15-.1-.34-.1-.56 0-.66-.08-.66-.51 0-.51-.19-.51-.53 0-.14.21-.4.45-.57.52l-.31.14.28.05.28.05.05 1.5c.05 1.53.1 1.73.45 1.93.29.16.98.15 1.21-.03Zm3.25-.15.44-.3.09.25c.09.23.15.25.75.25.64-.01.65-.01.39-.16l-.28-.15V9.2c0-1.93.04-1.85-.88-1.75l-.66.07.32.14.32.13v1.04c0 1.64-.17 2.07-.83 2.07-.68 0-.77-.25-.77-2.06V7.38l-.31.06c-.17.03-.5.06-.73.07-.39 0-.4.01-.16.12.38.18.4.23.4 1.66v1.33l.34.34c.45.45.95.47 1.57.04Zm4.67.24c.3-.08.28-.24-.03-.24-.61 0-.75-.34-.75-1.9V7.7h.5c.64 0 .66-.18.02-.22l-.47-.03-.03-.42c-.04-.53-.28-.57-.57-.1-.11.17-.35.42-.54.54-.34.23-.34.23-.07.23h.26l.01.88c.01 2.52.32 3.02 1.67 2.66Zm6.13-.05c1.01-.34 1.45-1.85.87-2.99-.57-1.09-2.62-1.1-3.17-.01-.89 1.73.54 3.58 2.3 3Zm-28.78-.14c-.81-.35-.42-3.35.44-3.35.6 0 .73.35.73 2v1.5h.72c.7-.01.72-.01.46-.16l-.28-.15V9.65c0-1.7-.16-2.07-.97-2.3-.23-.06-.87.16-1.15.41-.19.18-.42.09-.34-.12.04-.11-.1-.14-.72-.13-.65.01-.72.02-.44.1l.32.1v3.09l-.32.2-.33.2h1.1c1.02-.01 1.08-.02.78-.15Zm11.7 0-.33-.14v-1.7c0-1.94.06-1.82-.86-1.72-.61.07-.65.09-.36.16l.32.08v3.07l-.32.2-.33.2h1.1c1.04-.01 1.08-.02.78-.15Zm13.61.01c-.36-.16-.46-.82-.41-2.64.02-1.09.05-1.06-.81-.97l-.67.08.33.13.32.14v1.43c0 1.48-.03 1.63-.45 1.85-.15.09.05.11.9.11 1.01 0 1.07-.01.79-.13Zm7.13-.02-.29-.15.04-1.36c.03-1.47.19-1.83.82-1.83.51 0 .61.29.64 1.96l.03 1.54h.72c.68-.01.71-.02.45-.15-.26-.15-.26-.15-.3-1.52-.04-1.48-.14-1.83-.55-2.02-.51-.23-1.29-.07-1.62.33-.19.23-.31.2-.31-.08 0-.3-.12-.34-.8-.27-.53.06-.53.06-.27.18l.27.13v1.43c0 1.48-.03 1.63-.45 1.85-.16.09.04.11.85.11 1 0 1.04-.01.77-.15Zm-37.25-.1c-.99-.69-.7-3.34.37-3.34.64 0 1.01.64 1.01 1.75 0 1.32-.67 2.09-1.38 1.59Zm32.52.05c-.52-.26-.77-1.35-.55-2.4.28-1.35 1.48-1.39 1.82-.06.38 1.53-.33 2.91-1.27 2.46Zm-31.58-.55c.38-.9.07-2.64-.47-2.64-.56 0-.79.46-.79 1.58 0 1.32.85 2.04 1.26 1.06Zm32.4.15c.32-.36.28-2.33-.05-2.6-.68-.55-1.14.06-1.09 1.47.04 1.25.57 1.76 1.14 1.13ZM23.62 6.54c-.27-.19-.29-.64-.04-.87s.85-.22 1.05.01c.54.59-.34 1.33-1.01.86Zm13.6 0c-.4-.27-.21-1.02.26-1.05.79-.06 1.19.52.69.99-.27.26-.64.28-.95.06ZM24.4 6.32c.26-.21.18-.5-.18-.59-.47-.12-.83.37-.46.64.24.17.38.16.64-.05Zm13.68-.25c.06-.5-.79-.48-.86.02-.02.15.04.24.2.3.33.12.62-.02.66-.32Zm12.75-.62C49.96 2.79 47.96.87 45.35.22c-.67-.16-.68-.17-.31-.2 2.09-.17 5.13 2.51 5.96 5.25.35 1.16.2 1.32-.17.18ZM0 6.01C0 3.55 3.9-.18 6.27.02c.36.03.34.04-.3.2C3.21.92 1.21 2.73.39 5.29.04 6.38 0 6.46 0 6.01ZM14.33.03C18.5.01 25.3.01 29.43.03c4.14.01.73.02-7.58.02S10.16.04 14.33.03Z"/></svg>