<svg xmlns="http://www.w3.org/2000/svg" width="51" height="51" viewBox="0 0 51 51"><path fill="#fff" fill-rule="evenodd" stroke="#fff" stroke-width=".413" d="M22.42 48.19c-.37-.14-.26-.52.18-.6.19-.04.26-.07.14-.08-.11 0-.29-.1-.4-.22l-.18-.2-.08.21c-.06.16-.15.21-.35.18-.27-.03-.28-.06-.31-.65-.04-.83-.37-.94-.47-.15-.03.26-.07.54-.08.62-.02.12-.19.15-.87.15h-.85l-.05-.6c-.07-.84-.4-.95-.4-.13 0 .64-.09.81-.41.76-.21-.03-.25-.09-.29-.6-.07-.81-.4-.97-.4-.2 0 .79-.01.8-1.05.81-.79.01-.96-.02-1.19-.2l-.26-.2-.26.2c-.32.25-.99.28-1.31.06-.19-.13-.22-.13-.27 0-.07.18-.37.2-.54.03-.08-.08-.12-.52-.12-1.3V44.9h-.7v-1.4c0-1.69.33-1.61-2.7-.66-2.08.65-2.37.72-2.52.59-.14-.13-.23-.12-.72.03-.56.18-.74.16-.61-.07.08-.12 2.12-1.11 3.37-1.64.77-.32.76-.3.45-.73-1.69-2.29-4.76-.28-3.92 2.56.3 1 1.31 1.92 2.13 1.92.48 0 .79-.16 1.37-.71l.53-.5.37.15c.27.12.4.13.54.04.19-.12 1.51.44 1.51.64s-1.09 1.17-1.61 1.43c-1.08.55-3.11.74-4.35.41-2.94-.78-4.27-4.27-2.55-6.67 2.09-2.92 7.07-2.62 8.72.51.22.43.23.53.2 2.13l-.03 1.67 6.08-.01c5.77-.01 6.93-.05 6.52-.21-.24-.1-.58-.81-.58-1.21 0-.29-.05-.37-.3-.47-.36-.15-.5-.37-.5-.79 0-.31 0-.31.55-.31.43 0 .55.03.55.16 0 .11.08.14.28.12.57-.06.35-.42-.3-.48-.72-.07-.98-.3-1.05-.94l-.06-.46h-.68c-.86 0-.9.15-.21.76l.47.42v.93c0 1.72-.24 1.94-2.02 1.94-1.79 0-2.18-.36-2.1-1.96.06-1.28.4-1.66 1.59-1.76.4-.04.58-.1.58-.19 0-.11-.29-.14-1.4-.14h-1.4v1.79c0 2.22-.03 2.33-.67 2.29l-.48-.03-.03-2.02L16.9 40h-.8l-.02 2.03-.03 2.02-.52.03-.53.03v-1.19l-1.01-.04c-1.44-.04-1.59-.21-1.59-1.78V40h-.31c-.3 0-.3-.01-.27-.47l.03-.48 5.95-.07c3.27-.04 6.32-.09 6.77-.13.53-.04.89-.03 1.02.05.15.07 2.12.11 6.49.13l6.27.02v.9l-.42.03-.43.03-.02 2.02-.03 2.02h-1l-.03-2.02L36.4 40h-1.5v.3c0 .23.07.33.3.45.47.24.6.61.6 1.68 0 1.31-.33 1.67-1.53 1.67h-.37v-1h.8v-1.5h-.39c-.33 0-.4.04-.43.23-.05.37-1.28.4-1.28.02 0-.44-.77-.37-.85.08-.15.77-.04 1.12.37 1.15.42.04.52.21.39.67-.16.6-1.53.33-1.81-.36-.18-.42-.09-1.89.14-2.24.34-.51 1.47-.73 2.1-.4.43.23.96-.03.96-.45V40h-4l-.02 2.03-.03 2.02h-1l-.03-2.02L28.8 40H28l-.02 2.03-.03 2.02h-1l-.03-2.02L26.9 40h-.8v.98c0 1.09-.1 1.37-.57 1.67-.52.32-.44.98.13 1.14.24.06.29.13.32.44l.03.37h6.25c4.96 0 6.25.03 6.22.13-.04.09-.92.13-3.86.15l-3.82.02v.34c0 .29.03.33.19.29.21-.05.81.22.81.37 0 .05.16-.02.36-.15.47-.32.85-.32 1.23.01.31.26.42.64.19.64-.07 0-.05.05.04.11.25.14.22.32-.11.68-.32.35-.91.43-1.26.17-.16-.12-.21-.11-.33.01-.32.32-.57.12-.6-.47-.05-.86-.52-.9-.52-.04 0 .57-.07.64-.66.64-.82 0-.97-.2-1.08-1.41-.06-.79.49-1.42.71-.81.07.17.22.32.35.32.05 0 .08-.16.08-.35v-.35h-9.97l.05.3c.03.18 0 .3-.07.3-.06 0-.03.08.07.18.16.18.18.18.41 0 .37-.28.87-.19 1.19.21.11.15.13.15.22 0 .28-.47 1.24-.48 1.6-.02.23.3.27 1.24.07 1.83-.18.52-.76.73-1.35.49Zm12.6.01c-.34-.14-.31-.6.06-.61.25 0 .25-.01.06-.09-.37-.15-.64-.59-.64-1.05 0-.86 1.01-1.25 1.66-.64l.24.22.23-.21c.71-.67 1.87-.08 1.73.88-.11.71-1.01 1.06-1.58.61l-.24-.2-.12.44c-.17.63-.75.9-1.4.65Zm-11.58-.42c.25-.35.22-1.74-.03-1.88-.86-.46-1.76.63-1 1.21.24.19.89.26.89.11 0-.05-.14-.09-.32-.09-.58 0-.87-.64-.48-1.03.54-.54 1.05-.06.96.89-.07.76-.23.95-.73.87-.18-.02-.33-.01-.33.05 0 .21.88.1 1.04-.13Zm12.6 0c.25-.35.22-1.52-.04-1.78-.45-.45-1.3-.13-1.3.5 0 .6 1.01 1.12 1.18.62.03-.11 0-.12-.16-.03-.63.34-1.16-.66-.57-1.05.55-.36.96.13.87 1.04-.05.62-.31.88-.76.76-.16-.04-.26-.02-.26.05 0 .22.88.13 1.04-.11Zm3.8-.07c-.48-.22-.7-.67-.8-1.58-.03-.32-.09-.78-.15-1.03-.12-.6-.19-3.81-.09-4.01.05-.09.03-.31-.04-.54-.55-1.59 2.49-2.54 3.37-1.06.42.72.01 2.46-.61 2.57-.64.11-.68.22-.22.66.22.21.4.45.4.53 0 .28.17.15.63-.47.51-.7 2.1-2.18 2.33-2.18.42 0 1.44.34 1.44.47 0 .09-.35.52-.77.97-1.2 1.27-1.18 1.17-.35 2.25.39.5.87 1.18 1.06 1.5.4.66.68.83 1.79 1.12 1.52.41 1.08.89-.8.89h-1.09l-.12-.33c-.16-.44-.56-.81-.9-.83-.15-.01-.3-.03-.33-.03-.04-.01-.2-.21-.36-.46l-.3-.46-.27.4c-1.09 1.57-2.56 2.19-3.82 1.62Zm2.12-.29c.44-.22 1.16-.95 1.59-1.6.35-.53.36-.53.8.08.28.38.42.49.56.45.22-.07.91.52 1.09.94l.12.29 1.04-.02c1.07-.02 1.56-.18.98-.31-1.43-.32-1.9-.63-2.52-1.65-.65-1.09-1.36-1.85-1.66-1.82-.16.02-.26-.01-.25-.05.13-.29.84-1.19 1.43-1.8.78-.82.78-.79.05-.98-.48-.13-.54-.13-.78.05-.32.22-1.62 1.58-2.14 2.23-.44.54-.61.59-.75.18-.06-.16-.26-.42-.46-.57-.58-.46-.45-.89.29-1.01.45-.07.71-.54.61-1.09-.04-.18-.02-.35.04-.39.36-.22-.17-1.08-.78-1.25-1.26-.34-2.47.31-2.27 1.24.03.17.05.69.05 1.16-.03 1.95.02 3.08.16 3.61.08.31.14.74.14.95 0 .51.17 1.09.35 1.24.51.43 1.6.48 2.31.12Zm-16.99-.17c-.92-.93.45-2.34 1.4-1.45.21.18.21.18.38 0 .76-.84 2 .29 1.56 1.43-.23.59-.61.29-.61-.48 0-.83-.47-.66-.52.18-.03.57-.24.73-.56.44-.15-.13-.2-.14-.36-.01-.33.24-.99.18-1.29-.11ZM13.1 46.04c0-.69-.04-1.14-.1-1.14s-.1.47-.1 1.21c0 .77.04 1.18.1 1.14s.1-.55.1-1.21Zm1.67 1c.31-.31.22-.46-.1-.16-.45.43-1.07.24-1.07-.32 0-.54.59-.88.9-.51.1.12.06.17-.23.29-.38.15-.57.36-.33.36.23 0 .86-.4.86-.56 0-.38-1-.47-1.24-.12-.58.82.5 1.73 1.21 1.02Zm1.61.17c.08-.04.13-.12.12-.17s.03-.1.09-.12.11.07.12.2c.01.23.01.23.09-.02.32-1.01-.71-1.82-1.37-1.06-.55.65.24 1.63.95 1.17Zm.97-.88c.16-.73.85-.5.85.27 0 .32.05.62.1.65.06.04.1-.15.1-.49 0-.73.25-1 .71-.76.15.09.19.22.19.65 0 .3.04.55.1.55s.1-.21.1-.48c0-.77-.41-1.14-.95-.86-.17.09-.33.11-.44.05-.65-.35-1.01-.02-1.01.95 0 .46.15.52.18.07.01-.21.05-.48.07-.6ZM20.9 46c.44-.28.73.01.81.79l.06.56.02-.61c.01-.69-.17-.96-.66-.96-.39 0-.63.34-.63.91 0 .71.14.72.2.02.03-.4.1-.65.2-.71Zm5.29 1.12c.28-.22.31-.84.06-1.12-.25-.27-.88-.27-1.15 0-.65.65.38 1.71 1.09 1.12Zm.98-1.04c.33-.37.67-.1.81.67l.1.5.01-.51c.02-.82-.5-1.25-1.02-.83-.24.18-.27.27-.26.82l.01.62.09-.54c.05-.3.17-.63.26-.73Zm2.71 1.1c-.25-.09-.28-.14-.28-.58 0-.27-.04-.52-.1-.55-.06-.04-.1.12-.1.41 0 .53.2.84.54.83.18 0 .16-.02-.06-.11Zm.93-1.19c.41-.26.73.05.72.7 0 .28.03.54.08.57s.09-.22.09-.55c0-.74-.16-.94-.72-.89l-.38.04v-.48c0-.27-.04-.48-.1-.48s-.1.47-.09 1.22l.01 1.23.13-.64c.07-.35.19-.67.26-.72Zm2.47 1.11c.12-.12.22-.26.22-.32s-.1-.02-.23.1c-.41.39-1.07.18-1.07-.33 0-.33.43-.69.74-.61.37.09.32.22-.14.46-.23.12-.38.25-.35.3.06.09.68-.21.93-.44.18-.18-.19-.49-.58-.49-.74 0-1 1.04-.35 1.41.3.17.59.14.83-.08Zm4.62 0c.12-.12.2-.33.2-.55 0-.95-1.32-1.06-1.55-.13-.16.63.88 1.15 1.35.68Zm-.82-.04c-.46-.23-.28-1.16.22-1.16.29 0 .63.34.63.63 0 .49-.41.75-.85.53Zm-21.59-.2c-.16-.35-.03-.75.28-.87.58-.22 1.03.34.69.86-.23.35-.82.36-.97.01Zm9.71.05c-.23-.44.05-1.01.5-1.01.48 0 .78.71.44 1.04-.22.23-.81.21-.94-.03Zm4.96-.54c-.03-.28-.11-.54-.18-.59-.18-.11-.68-.1-.68.02 0 .06.16.1.36.1.31 0 .35.03.29.18-.15.35-.17.63-.05.77.21.26.33.05.26-.48Zm-21.33.38c.85-.18 1.52-.54 2.11-1.14l.47-.47-.5-.24-.5-.23-.36.31c-1.28 1.13-3.23 1.09-4.28-.07-1.56-1.73-.95-4.47 1.15-5.17 1.36-.45 3.12.27 3.71 1.54.11.24.18.23.85-.04.41-.17.32-.39-.49-1.28-2.86-3.13-8.24-.35-7.15 3.69.63 2.37 2.62 3.61 4.99 3.1Zm14.32-.2c0-.25-.04-.3-.25-.3-.26 0-.37.22-.26.51s.51.13.51-.21Zm2.83.19c.05-.09.07-.25.05-.35-.1-.35-.57-.34-.68.02-.13.4.43.68.63.33Zm9.78-.1c.07-.29-.06-.47-.31-.42-.28.05-.41.33-.26.52.21.25.5.2.57-.1Zm1.84.11c.2-.25.08-.5-.25-.5-.24 0-.31.05-.33.24-.06.37.34.55.58.26Zm-21.35-.25c0-.33-.39-.4-.55-.1-.15.27-.04.42.28.38.21-.02.27-.08.27-.28Zm-10.79.07c-3.11-1.97-3.07-6.05.07-7.62.38-.19.63-.35.55-.35-.77 0-2.6 1.45-3.06 2.42-.91 1.94 0 4.42 1.98 5.4.58.29.78.35.46.15Zm10.29-1.03c.25-.04.46 0 .74.13.33.17.41.18.45.06.05-.11.24-.14.78-.13.4 0 .87-.02 1.04-.06.24-.04.37 0 .62.21.31.26.32.26.32.06 0-.12.05-.21.11-.21.08 0 .08-.04-.01-.15a.42.42 0 0 1-.05-.35c.06-.2.04-.2-3.19-.2H13.3v.22c0 .53.1.69.33.53.39-.27 1.36 0 1.37.37 0 .07.1.01.21-.14.12-.16.34-.3.54-.34Zm-7.18-.05c.67-.25 1.27-.72 1.04-.81-.18-.06-.34.02-.82.42-.33.28-.58.5-.55.5s.17-.05.33-.11Zm33.31-.75c-.04-.05.25-.43.63-.84.44-.48.68-.69.69-.58 0 .22-1.24 1.55-1.32 1.42ZM25.7 44.3c0-.23-.05-.3-.19-.3-.58 0-.72-1.25-.18-1.5.44-.2.56-.62.56-1.93.01-1.44-.12-1.61-1.24-1.55-.9.04-1.06.17-1.13.87-.09.94.24 1.31 1.18 1.31h.5v.4c0 .58-.65.84-1.03.4a.62.62 0 0 0-.43-.2c-.37 0-.28.38.16.68.28.19.37.33.45.75.15.73.3.96.78 1.18.55.24.57.24.57-.11Zm-9.9-.72c0-.2-.01-.21-.2-.03-.11.1-.23.15-.28.11-.04-.04.05-.17.21-.28l.27-.2v-3.39l.68.03.67.03.05 1.07.05 1.07.25-.12c.24-.12.25-.17.28-1.1l.03-.97h1.07c1.13 0 1.72-.11 1.92-.35.11-.13-.41-.15-4.34-.15-4.41 0-4.46 0-4.46.2 0 .15.09.22.3.27l.3.06v1.09c0 1.6.17 1.78 1.7 1.78h.9v.55c0 .54 0 .55.3.55.24 0 .3-.04.3-.22Zm2-.68v-.89l-.32.14c-.36.15-.34.03-.29 1.47.01.13.09.18.31.18h.3zm4.47.66c.26-.23.28-.29.31-1.2.04-1.07-.04-1.31-.58-1.62-.25-.15-.3-.25-.3-.55 0-.43.12-.49 1.01-.49.48 0 .57-.03.62-.2.08-.29-2-.31-2.26-.02-.12.13-.14.21-.06.29.06.06.09.26.07.44l-.03.34-.72.05c-1.09.07-1.33.35-1.35 1.51-.02 1.51.18 1.69 1.89 1.69 1.04 0 1.14-.02 1.4-.24Zm5.43-1.75c0-1.1.03-2.01.08-2.04.04-.02.33-.01.65.01l.57.04v3.98h.7v-3.97l.6-.07c.69-.08 3-.07 3.47.01.32.05.33.07.33.53 0 .64-.67 1.06-1.16.74-.61-.41-1.72-.18-1.96.4-.48 1.16-.04 2.36.88 2.36.62 0 .68-.47.07-.52l-.38-.03-.03-.78c-.04-.96.04-1.07.69-1.07.43 0 .51.03.61.25.15.34.69.36.83.03.13-.3.57-.45.93-.32.27.09.27.1.27.99v.9l-.37.03c-.59.05-.57.52.02.52.88 0 1.15-.4 1.08-1.65-.04-.78-.19-1.08-.65-1.26-.2-.07-.23-.16-.23-.59v-.5h1.9v4h.7v-4h.24c.37 0 .56-.1.56-.3 0-.25-.85-.3-4.75-.26-1.76.02-4.09.04-5.17.05l-1.98.01v.26c0 .24.03.26.42.22l.43-.03.03 2.03.02 2.02h.6zm-7.88 1.37c-.07-.07-.12-.44-.12-.94 0-1.08.06-1.14 1.1-1.14s1.1.06 1.1 1.14c0 .5-.05.87-.12.94-.16.16-1.8.16-1.96 0ZM8.9 42.67c.8-.25 1.79-.55 2.2-.67.83-.24 1-.34.83-.51-.1-.1-4.18 1.34-4.63 1.63-.18.12-.29.15 1.6-.45Zm12.48.37c.22-.06.23-.1.2-.88l-.03-.81-.62-.03c-.94-.04-1.03.04-1.03.93 0 .62.03.74.18.78.26.07 1.04.07 1.3.01Zm-13.52-.53c1.92-.79 2.34-1.02 2.23-1.23-.35-.64-1.49-1.49-1.99-1.47-.08 0-.04.05.09.1.64.25 1.69 1.47 1.45 1.68-.05.04-.59.29-1.19.55-1.04.44-1.48.66-1.34.66.03 0 .37-.13.75-.29Zm5.56-.43c-.08-.08-.12-.49-.12-1.19v-1.08l.91-.03c.5-.02.93-.01.95.01s.04.58.04 1.23v1.18h-.83c-.51 0-.88-.05-.95-.12ZM15 40.95V40h-1.5v.88c0 1.06-.03 1.02.82 1.02H15zm9.27-.11c-.04-.04-.07-.38-.07-.76v-.69l.48.03.47.03v1.4l-.4.03c-.23.02-.44 0-.48-.04Zm.73-.69c0-.54 0-.55-.3-.55s-.3.01-.3.55 0 .55.3.55.3-.01.3-.55ZM.57 35.53a.21.21 0 0 1-.07-.15c0-.04 2.67-.08 5.93-.08 3.86 0 5.87-.04 5.77-.1-.08-.05-.42-.19-.76-.3-.96-.32-1.17-.66-1.49-2.37a51 51 0 0 0-.41-1.96c-.14-.6-.29-1.7-.34-2.5-.1-1.47-.17-1.93-.46-2.99-.18-.65-.2-1.44-.14-4.93.02-1.21-.02-1.73-.2-2.7-.22-1.18-.24-3.04-.04-3.72.05-.18.02-.23-.13-.23-.69 0-.55-1.22.28-2.4l.42-.59-.21-.53c-1.41-3.54.88-6.33 5.45-6.65 4.28-.3 8.21 3.61 5.77 5.75l-.44.39.28.39c.16.22.36.45.45.53.25.2.21.46-.12.77-.25.23-.28.33-.24.62.05.26.02.38-.11.48-.1.07-.15.18-.11.24s0 .21-.08.33-.16.44-.19.7c-.09.81-.63 1.07-2.2 1.07-.91 0-1.31.18-1.58.7-.35.68-.25 1.17.3 1.56 1.23.89 2.19 2.07 2.55 3.14.22.65.24.66.81.25 1.13-.8 2.94-3.13 2.94-3.78 0-.05.09-.22.21-.38l.2-.29-.27-.1c-.15-.06-.89-.27-1.65-.48-.77-.2-1.39-.4-1.39-.44 0-.19.81-.03 2.63.53l.98.3.54-.41c.3-.23 1.73-1.49 3.19-2.8 1.83-1.65 2.71-2.37 2.83-2.34.1.02.77.18 1.48.34 1.68.39 3.47.9 3.62 1.02.09.07-.61.82-2.51 2.71-1.45 1.44-2.79 2.85-2.97 3.13-.19.28-.54.75-.78 1.05s-.59.86-.78 1.26c-.28.59-.42.76-.78.98-.25.14-.45.27-.45.28s.36.02.81.02h.81l.52.56C29.58 22.64 33 27.3 33 27.62c0 .37 1.57 2.63 2.33 3.35 1.32 1.25 3.97 2.33 6.91 2.83 1.41.23 1.49.49.37 1.21l-.45.29 4.25.02c2.74.02 4.24.07 4.24.13 0 .11-7.61.2-8.62.1-.8-.08-.79-.12.11-.58 1.29-.66 1.28-.69-.29-1-3.47-.69-5.98-1.85-7.22-3.34-.65-.78-1.83-2.65-1.83-2.9 0-.31-4.22-5.99-4.77-6.43-.29-.22-1.4-.28-1.88-.1-.67.26-.41-.23.43-.82.32-.22.52-.49.82-1.07.21-.44.56-.99.77-1.23.21-.25.57-.72.81-1.06.24-.33 1.53-1.69 2.88-3.02 1.35-1.34 2.43-2.44 2.42-2.45-.06-.06-2.66-.75-3.76-1.01-1-.23-1.15-.24-1.3-.11-.09.08-1.16 1.03-2.37 2.12s-2.65 2.34-3.2 2.78c-.92.74-1.03.86-1.4 1.61-.79 1.59-1.75 2.77-2.93 3.58-.61.42-.8.36-1.06-.37-.39-1.08-1.36-2.35-2.16-2.83-.81-.48-1.08-.97-.89-1.64.27-1.02.69-1.27 2.28-1.38 1.48-.09 1.61-.15 1.61-.79 0-.32.05-.53.15-.61.11-.09.14-.22.09-.42-.05-.24-.02-.3.15-.35.18-.05.2-.1.15-.44-.06-.34-.03-.42.2-.6.27-.21.34-.53.15-.64-.2-.13-.69-.88-.69-1.06 0-.1.13-.25.3-.34 1.7-.88.68-3.52-1.84-4.75-3.14-1.54-7.75-.44-8.94 2.13-.51 1.1-.19 3.87.45 3.87.12 0 .14.07.09.32-.24 1.15-.37 2.1-.46 3.34-.05.78-.16 1.7-.25 2.05-.13.58-.13.72.03 1.54.14.75.16 1.39.14 3.76-.03 2.79-.02 2.9.23 4 .15.63.32 1.87.4 2.79.08.91.23 2.02.34 2.48.12.45.29 1.31.4 1.9.28 1.59.43 1.84 1.35 2.18.9.34 1.21.55 1.13.78-.06.16-11.94.26-12.1.09Zm17.82-.04c-.12-.07.16-.28 1.11-.82 1.83-1.04 4.13-3.4 6.1-6.25.46-.67.9-1.22.97-1.22.15 0 .47.47 1.41 2.05.4.66.83 1.33.96 1.5l.24.3.58-.14c.33-.07.68-.15.79-.18.45-.1 2.42 1.59 3.03 2.59.33.55.72 2.01.58 2.15-.1.1-15.61.12-15.77.02Zm19.01-.14c0-.12.16-.15.85-.15s.85.03.85.15-.16.15-.85.15-.85-.03-.85-.15Zm-3.55-.52c-.16-1.18-1.19-2.55-2.66-3.56l-.54-.37-.57.2c-1.03.36-1.08.31-2.43-1.94-1.14-1.89-1.03-1.83-1.66-.89-1.97 2.94-4.46 5.5-6.59 6.76l-.45.27h14.97zm-.81-3.14c-.15-.25-1.67-1.28-2.57-1.74-.53-.27-.97-.53-.97-.57-.01-.46 3.65 1.74 3.88 2.33.05.13-.26.11-.34-.02Zm-2.86-4.03c-.34-.29-.49-.56-.32-.56.12 0 .84.66.84.78 0 .19-.12.14-.52-.22Zm-3.35-1.81c-1.69-1.35-3.66-3.56-3.47-3.87.04-.05.09-.06.13-.01.04.04.33.43.64.85.71.94 2.25 2.43 3.34 3.23.73.53 1.01.85.75.85-.05 0-.67-.47-1.39-1.05Zm-14.5-.09c-.82-.87-1.77-2.56-1.44-2.56.05 0 .24.29.41.65.33.7 1.37 2.06 1.76 2.32.27.17.31.33.1.33-.08 0-.45-.33-.83-.74Zm6.83-1.15c-.12-.18.13-.6.91-1.52.43-.52 1.04-1.28 1.36-1.69.82-1.06 2.14-2.07 2.4-1.81.29.29-.68 2.07-1.71 3.14-.86.89-2.81 2.13-2.96 1.88Zm1.08-.72c1.49-1.08 1.7-1.26 2.28-2.04.57-.76 1.23-1.94 1.13-2.03-.14-.14-1.47 1.03-2.1 1.84-.38.49-.98 1.22-1.32 1.62-1.07 1.23-1.06 1.38.01.61Zm-.74-4.66c-.15-.61-.8-1.25-1.73-1.71-.64-.31-.93-.61-.45-.46 1.24.38 2.47 1.58 2.48 2.42 0 .39-.17.24-.3-.25Z"/></svg>