<svg xmlns="http://www.w3.org/2000/svg" width="51" height="51" viewBox="0 0 51 51"><path fill="#fff" fill-rule="evenodd" stroke="#fff" stroke-width=".494" d="M21.34 44.56c-.03-.07-.04-.35-.02-.62l.03-.49.43-.03.42-.03V41.3h-.91l.03-.57.03-.58 1.68-.03 1.67-.02v1.19l-.47.03-.48.03-.03 1.02-.03 1.02.53.03.53.03-.04.55c-.01.3-.04.56-.05.56-.14.11-3.28.11-3.32 0Zm3.89.07c-.1-.03-.13-.59-.13-2.29V40.1h2.21l.13.33c.07.17.28.73.47 1.22l.34.9.03-1.23.03-1.23.72.03.72.03.03 2.22.02 2.22-1.02.03c-1.32.04-1.22.1-1.53-.86a20 20 0 0 0-.45-1.32l-.18-.49.01 1.25c.01.69-.02 1.31-.06 1.38-.08.12-1.08.16-1.34.05ZM24.5 44v-.4h-1v-2.5h1v-.67l-.75-.06c-1.24-.11-2.25.01-2.25.27 0 .34.13.44.55.48l.4.03.03 1.19c.03 1.33.02 1.36-.6 1.36-.37 0-.38.01-.38.35v.35h3zm1.89-1.17c-.03-1.12-.01-1.57.08-1.6.11-.04.48.83.98 2.35l.27.82h1.88v-4h-1.11l.02 1.55c.01.85-.02 1.56-.07 1.57-.06.02-1.02-2.38-1.2-2.99-.02-.09-.31-.13-.99-.13h-.95v4h1.12zm-14.54-8.81c-.03-.08-.05-2.1-.05-4.49v-4.36l2.4-2.42 2.4-2.41-2.4-2.39-2.4-2.39v-4.27c0-2.35.03-4.34.06-4.43.05-.14.54-.16 4.47-.16h4.41l2.38 2.37 2.38 2.37 2.38-2.37 2.38-2.37h4.39c2.42 0 4.46.04 4.53.08.1.07.12 1 .1 4.5l-.03 4.42-2.34 2.34-2.34 2.34 2.36 2.44 2.37 2.43v4.31c0 2.38-.02 4.39-.05 4.46-.05.11-.81.13-4.46.12l-4.41-.02-2.4-2.38-2.39-2.38-.87.84c-.48.46-1.57 1.54-2.43 2.4l-1.56 1.55h-4.41c-3.59 0-4.43-.03-4.47-.13Zm11.21-2.52c2.11-2.09 2.46-2.39 2.63-2.31.1.06 1.24 1.14 2.52 2.4l2.34 2.3 4.22.01H39v-8.62l-2.35-2.39c-1.29-1.32-2.35-2.45-2.35-2.51s1.06-1.17 2.35-2.47L39 15.54V7h-8.65L28 9.35c-1.29 1.3-2.4 2.34-2.46 2.33-.06-.02-1.18-1.08-2.49-2.35L20.67 7H12.1v8.56l1.95 1.87c1.06 1.03 2.15 2.13 2.41 2.43l.48.55-2.42 2.42-2.42 2.42v8.65h8.53z"/></svg>