<svg xmlns="http://www.w3.org/2000/svg" width="51" height="51" viewBox="0 0 51 51"><path fill="#fff" fill-rule="evenodd" stroke="#fff" stroke-width=".273" d="M17.98 49.61c-1.45-.21-1.39-.12-.9-1.28.83-2.01 2.11-4.51 3.57-6.99l.42-.71-.66-.17c-1.39-.36-2.15-.94-2.29-1.74l-.07-.44-1.62.01c-1.79.02-3.03-.14-4.3-.54-1.35-.42-1.6-.68-1.62-1.66-.01-.41-.14-.69-.32-.69-.04 0-.38.4-.77.89-1.32 1.65-2.22 2.3-3.15 2.31-1.74.01-2.06-1.52-.87-4.07.31-.67.37-.9.33-1.22l-.06-.41h-.71c-2.26-.01-3.48-.69-3.67-2.06-.15-1.05-.14-1.16.12-1.37.21-.17.22-.18.05-.68-.09-.28-.16-.7-.16-.94 0-.26-.06-.47-.15-.55-.19-.16-.19-.64 0-.84.22-.22.19-.83-.04-.96-.54-.28-.53-1.81.02-2.37l.31-.33-.21-.22c-.54-.6-.66-1.98-.21-2.45.2-.21.29-.43.34-.85.12-.98 1.1-1.56 3.26-1.93l.38-.06V12c0-3.54.03-5.31.1-5.35.35-.22 6.65-.1 7.12.13.46.23.91.7 1.07 1.14.08.22.09.21.29-.18.56-1.1 1.42-1.37 4.42-1.38 2.69-.01 3.46.3 3.8 1.54.22.79.24.77.3-.27.06-1.27-.05-1.2 1.82-1.26 2.14-.07 1.98-.24 1.98 2.11l.01 1.87.74-1.89c.41-1.04.8-1.95.86-2.02.2-.24 3.03-.2 3.27.04.16.16.2.17.28.04.15-.23 6.43-.32 6.62-.1.09.12.12.56.1 1.64l-.03 1.49-1.48.03-1.47.03v2.29h.38c.22 0 .94-.03 1.6-.07l1.22-.06V9.2c0-2.15.02-2.6.15-2.7.5-.42 6.35.02 7.1.53 1.03.7 1.09.97 1.13 4.69l.03 3.16.52.12c1.37.33 2.63.93 2.85 1.38.05.09.05.58 0 1.07-.04.5-.08 1.17-.07 1.51 0 .33-.05.73-.12.9-.07.16-.13.58-.14.94s-.05.83-.09 1.06c-.07.37-.06.42.18.57.29.2.36 1 .15 1.82-.05.22-.11.7-.14 1.07-.02.37-.07.73-.12.8-.04.07-.11.47-.15.88s-.1.98-.14 1.25c-.05.48-.04.51.25.68l.31.18v1c0 1.52-.41 1.93-2.31 2.34l-.76.16-.1.9c-.07.63-.16.95-.29 1.1-.11.12-.23.48-.29.82-.1.61-.11.62-.6.89-2.35 1.27-8.38 1.05-9.68-.36-.23-.25-.25-.25-.73-.11-.27.08-.6.17-.74.19-.14.03-.36.19-.48.35l-.22.3.78.42c1 .55 3.65 2.22 4.18 2.62 1.29 1 7.14 7.43 7.14 7.86 0 .45-.43.14-4.7-3.39-.91-.75-1.97-1.62-2.37-1.94l-.72-.57-1.53.87c-3.34 1.92-5.56 3.36-6.34 4.11-1.02.98-3.37.81-3.82-.27-.32-.77-1.69-.16-5.07 2.25-.88.63-1.67 1.14-1.75 1.13-.08 0-.68-.08-1.32-.17Zm1.75-.84c.27-.34 1.42-1.61 2.56-2.82 2.35-2.48 4.51-4.86 4.51-4.97 0-.04-.18-.19-.4-.33s-.4-.27-.4-.29.07-.23.15-.47c.19-.52.15-.63-.26-.85l-.32-.16-.35.41c-.39.47-.44.48-.95.21-.2-.11-.39-.2-.41-.2-.07 0-1.3 2.07-1.66 2.8-.37.74-1.64 2.87-2.22 3.73-.7 1.03-.52.53.33-.95.45-.79 1.03-1.79 1.27-2.23.25-.44.8-1.38 1.22-2.1.43-.71.8-1.42.84-1.57.1-.45 2.84-4.08 3.08-4.08.13 0 .07.08-1.18 1.66-1.68 2.14-1.7 2.21-.19.71 1.7-1.69 2.09-1.96 2.57-1.71.83.42.85.59.24 2.27-.93 2.56-1.19 2.66-.37.15.6-1.81.59-1.79.22-2.01-.49-.29-.59-.22-2.23 1.4-1.74 1.73-1.69 1.67-1.3 1.87l.28.14.78-.94c1.56-1.86 2.25-2.12 1.7-.65-.31.83-.39.89-.94.67-.68-.27-.67.1.01.44.43.23.46.31.24.83-.2.49-.2.52.17.75.4.26.17.44 2.29-1.86 2.05-2.22 2.05-2.22 2.34-2.22.43 0 2.73 1.79 10.29 8 3.43 2.81 3.47 2.83 1.45.6-4.41-4.87-5.49-5.74-10.6-8.5-.74-.4-1.74-.97-2.24-1.25-2.8-1.62-3.86-2.04-4.23-1.67-.71.71-4.51 6.78-6.37 10.17-1.1 2.02-2.65 5.3-2.54 5.39.04.03 1.57.22 1.94.24.13.01.36-.2.68-.61Zm4.32-2.45c.44-.22 1.06-.48 1.37-.57.57-.18.57-.19.64-.64.25-1.85 2.54-2.52 2.54-.75v.44h.48c.58 0 1.09.29 1.23.7l.11.29 1.01-.68c1-.67 4.06-2.51 5.4-3.26.56-.3.66-.4.55-.5-1.09-.99-5.18-4.19-5.71-4.46l-.39-.2-.47.48c-.25.26-1.5 1.6-2.76 2.98-1.27 1.37-3.13 3.39-4.15 4.49-4.31 4.65-4.21 4.51-2.18 3.13.84-.58 1.89-1.23 2.33-1.45Zm4.8.52c1.53-.39 1.6-1.63.09-1.72l-.64-.04v-.51c0-.81-.48-1.09-1.2-.72-.74.38-1.04 2.32-.43 2.72.66.43 1.28.51 2.18.27Zm-8.48-.01c-.19-.18.04-.65 1.24-2.66 1.79-2.97 3.02-4.14 3.78-3.6.49.34.19.85-2.06 3.5-2.38 2.8-2.67 3.06-2.96 2.76Zm2.04-2.2c.5-.57.87-1.07.84-1.13-.13-.2-.79-.11-.94.12-.76 1.21-1.71 2.84-1.71 2.92.01.12.37-.26 1.81-1.91Zm8.24-.17-.5-.43.18-.37c.23-.49.22-.58-.13-.91-.32-.31-.23-.32-.97.21-.23.17-1.11-.48-1.01-.75.06-.18 2.81-3.12 3.27-3.49.93-.77.81-.44-.19.53-.28.28-.7.72-.93.99l-.42.5.75-.51c1.51-1.02 1.77-1.08 2.33-.62.49.4.48.41-.33 2.31-1.39 3.22-1.34 3.17-2.05 2.54Zm1.54-2.21.91-2.09-.27-.28c-.15-.15-.32-.28-.38-.28-.26 0-3.61 2.29-3.79 2.59-.03.04.05.18.17.29l.23.22.8-.67c2.07-1.73 2.61-1.84 1.92-.4-.46.97-.56 1.02-1.04.56-.65-.63-.85-.21-.22.47l.41.45-.16.35c-.23.47-.22.55.11.8.35.29.27.42 1.31-2.01Zm-7.81.07c.61-.75.92-1.26.92-1.49 0-.53-1.99.99-2.45 1.86-.18.36-.14.39.71.5.06 0 .43-.39.82-.87Zm-2.79-2.53c.17-.28.31-.52.31-.54s-.24-.06-.52-.1c-.82-.11-1.96-.43-2.49-.71-.55-.28-.58-.24-.39.48.13.45.64.79 1.73 1.14.99.31 1 .31 1.36-.27Zm.26-.89c-.16-.04-.66-.15-1.1-.25-1.18-.26-1.79-.56-1.95-.94-.13-.33-.27-.36-.44-.09-.27.43 2.14 1.37 3.49 1.36h.3zm.81-.87.33-.52-.32-.05c-.18-.02-.76-.09-1.29-.15s-1.3-.21-1.71-.34l-.74-.24.1.46c.12.58.2.66.92.92 1.72.61 2.28.59 2.71-.08Zm-15.58.01c1.44-.72 3.91-4.23 4.25-6.05.12-.69.22-.69.18 0l-.02.49.71.16c1.32.3 2.31.39 3.85.33 2.13-.09 2.05-.05 2.05-.83v-.64l-.42.07c-.73.13-4.47.07-5.02-.08-.54-.15-.8-.46-.3-.35 2.13.44 5.17.31 6.04-.26.25-.16.91-.43 1.47-.61 1.06-.33 1.43-.68 1.43-1.37 0-.11.05-.2.11-.2.12 0 .08.54-.06.99-.08.23-.07.23.36.16.24-.04 1.04-.07 1.79-.07h1.35l.02-.31c.01-.18.05-.56.09-.84.06-.5.05-.53-.2-.63-.26-.09-.26-.11-.26-1.06v-.96l-.19.23c-.16.2-.31.25-.88.29l-.68.05-.02.69c-.02.81.02.76-.66.83-.48.05-.57.03-.68-.14-.12-.2-.12-.2-.31-.01-.15.15-.31.18-.76.16l-.57-.03-.05-.5-.05-.5-.13.32c-.24.55-.53.49-.72-.14-.08-.26-.08-.26-.09.12-.02.79-.02.8-.99.84-1.76.09-1.87.08-1.9-.15-.04-.26-.62-.22-.62.05 0 .31-.17.42-.81.51-.56.08-.52.08.31.03.52-.03 1.53-.14 2.24-.24s1.32-.16 1.35-.14c.02.03 0 .05-.05.05s-.52.09-1.04.21c-.7.15-1.48.22-2.97.26l-2.03.06v-1.01c0-1.45-.28-1.39-.32.06l-.03.97-.63.07c-.35.04-.78.11-.95.17-.18.05-.74.15-1.25.22-1.11.14-1.22.08-1.3-.69-.04-.48-.05-.5-.46-.62-.22-.07-.58-.21-.79-.32-.48-.24-.51-.21-.43.36.09.6.35.89 1.09 1.26.39.2.51.29.32.25-.5-.1-1.13-.45-1.4-.77-.14-.17-.28-.28-.31-.25-.13.13.24.63.61.84.5.28.38.3-.15.03l-.4-.2v.37c.01 1.26 1.48 1.97 2.47 1.2 1.35-1.06 2.62-.9 2.5.31-.17 1.66-2.88 5.58-4.39 6.36-.29.15-.42.19-.28.09 1.21-.88 1.86-1.6 2.98-3.28 1.81-2.71 2.07-4.05.78-4.05-1.68 0-4.53 3.96-4.81 6.68-.13 1.22.82 1.76 2.03 1.16Zm10.4-.1c.47-.06.52-.09.52-.31 0-.16.1-.29.3-.41.72-.41.46-.48-1.92-.47-2.63 0-3.65-.15-5.3-.8-.26-.1-.26.75 0 .97.78.7 4.35 1.26 6.4 1.02Zm6.1-1.34.32-.5h-.81c-1.57 0-3.83-.47-4.57-.96l-.25-.16.07.38c.04.22.09.47.12.56.16.54 2.25 1.15 3.99 1.17l.8.01zm19.75-.01c1.71-.34 2.27-.64 2.27-1.22 0-.24-.03-.28-.17-.22-2.17.85-6.95.86-9.06 0-.72-.29-.71-.29-.57.24.32 1.19 4.34 1.83 7.53 1.2ZM5.85 36.4c-.96-1.06 2.92-6.39 3.93-5.38.77.77-2.4 5.58-3.67 5.58-.04 0-.16-.09-.26-.2Zm27.72-.33c.17-.23.86-1.12 1.53-1.97 1.17-1.5 1.82-2.58 1.96-3.29.09-.45-1 .67-2.67 2.75-.61.77-1.34 1.62-1.61 1.9l-.49.51.43.26c.54.33.47.34.85-.16Zm-15.43.12c.03-.03-.13-1.08-.18-1.16-.01 0-.19-.04-.41-.07-.27-.04-.32-.03-.15.02.14.05-.67.07-1.8.06-2.15-.01-3.01-.14-4.28-.62-.56-.21-.57-.21-.85.33-.29.58.93 1.07 3.68 1.49.36.05 3.93.01 3.99-.05ZM6.61 36c.24-.19.24-.19.03-.2-.67-.01.26-2.04 1.63-3.59 1.36-1.52 1.28-.16-.11 1.99-.61.94-.5.89.15-.06 1.81-2.69 1.43-4.1-.46-1.74-1.5 1.86-2.44 4.61-1.24 3.6Zm16.44-.21c-2.47-.2-3.82-.66-4.13-1.4-.16-.38-.18-.39-.39-.24-1.02.71 1.77 1.74 4.67 1.73l.85-.01zm10.78-1.89c.56-.69 1.53-1.78 2.15-2.42 1.25-1.29 1.29-1.39.59-1.74-.18-.09-.4-.24-.5-.32-.34-.3-1.16-.21-1.81.18-1.54.93-4.54 4.86-4.01 5.26.26.2.35.15.53-.31.52-1.33 2.53-3.84 3.44-4.31.63-.33 1.03.19.77.99-.44 1.35-2.82 4.25-3.5 4.27-.08.01.02.09.21.2l.35.19.39-.37c.21-.2.84-.93 1.39-1.62Zm1.16 1.59.41-.12v-.51l-.01-.51-.35.4c-.58.67-.8 1-.62.93.09-.04.34-.12.57-.19Zm-10.3-.65.42-.66-1.03.07c-1.23.08-2.91-.07-4.06-.36-.97-.24-.97-.24-.83.29.19.69 2.13 1.28 4.32 1.31l.77.01zm13.56.5c-1.24-.29-2.1-.73-2.35-1.19-.14-.26-.3-.24-.3.04 0 .48 1.92 1.31 3 1.3.14-.01-.02-.07-.35-.15Zm4.36.05c2.2-.22 3.44-.7 3.54-1.37.15-.93.15-.97.05-.81-.77 1.3-7.92 1.36-9.54.08-.33-.26-.37-.22-.43.34-.08.72.91 1.25 2.97 1.61.85.14 1.17.18 2.11.24.15.01.73-.03 1.3-.09Zm-35.34-.52c.57-.76 1.73-2.77 1.59-2.77-.09 0-1.09 1.36-1.48 2-.7 1.16-.77 1.64-.11.77Zm24.18.02c-.08-.33.07-.64.88-1.82 1.11-1.63 2.08-2.44 1.99-1.67-.02.22 0 .21.17-.1.68-1.2-.35-.75-1.51.66-1.64 1.99-2.4 3.46-1.68 3.27.17-.05.2-.11.15-.34Zm-13.83-.35c.21-.04.38-.12.38-.2 0-.07.18-.28.4-.46.6-.52.45-.56-1.53-.5-1.87.05-3.32-.07-4.61-.39-.44-.1-.8-.18-.82-.17-.05.06-.34.81-.34.89 0 .62 4.42 1.18 6.52.83Zm15.23-1.04c.41-.63 1.17-2.06.98-1.85-.5.53-1.93 2.68-1.93 2.89 0 .18.51-.38.95-1.04Zm-2.87.55.22-.45h-1v.35c0 .32.18.54.46.55.05 0 .2-.2.32-.45Zm-5.32-.13c.67-.07.73-.1 1.12-.51.48-.51.63-.51 1.7-.01l.64.3.29-.29c.16-.16.29-.38.29-.48-.01-.14-.04-.11-.16.09-.21.4-.36.34-.18-.07.07-.19.14-.53.14-.75v-.4l-.53.3c-.57.32-1.76.66-2.6.75-.47.04-.45.03.17-.1 2.29-.48 3.39-1.33 2.39-1.84-2.21-1.12-7.23-1.02-9.2.19-.83.5.05 1.15 2.17 1.6.47.1.72.19.55.19-.68.02-2.5-.53-2.88-.87-.25-.22-.25.68 0 .94.72.71 3.76 1.19 6.09.96ZM44 33.65c.81-.22 1.56-.59 1.7-.84.09-.18.15-.81.07-.81-.02 0-.39.1-.83.21-1.8.48-5.39.35-6.95-.27-.82-.31-.8-.32-1.12.26l-.28.49.58.3c1.72.86 4.89 1.17 6.83.66Zm-13.41-.64c.3-.41.3-.41-.65-.41-.74 0-.85.02-.8.16.03.09.06.24.06.35 0 .35 1.13.27 1.39-.1Zm-24.94-.52c.04-.06.04-.25.01-.43l-.06-.32-1.04-.13c-1.12-.13-2.1-.4-2.65-.74l-.34-.2.07.39c.09.46.28.69.76.94.86.44 3.08.78 3.25.49Zm15.89-.13c-2.11-.4-2.2-1.45-.15-1.82 3.27-.58 6.95.48 5.03 1.45-.87.44-3.48.64-4.88.37ZM7.1 31.68c.1-.16-.84-.82-1.02-.71-.23.13-.07.82.24 1.08l.32.27.18-.24c.1-.12.23-.3.28-.4Zm24.11.46c.03-.01.26-.29.51-.61l.45-.58h-3.65l.14.27c.08.15.14.38.14.52 0 .5.23.59 1.34.51.56-.04 1.03-.09 1.07-.11Zm16.54-.16c1.24-.35 1.53-.58 1.57-1.23.01-.3.01-.54-.02-.52-.03.01-.28.14-.57.29-.28.15-.73.32-1 .38-.29.07-.59.22-.75.39-.16.16-.42.34-.58.41-.27.11-.39.37-.24.52.09.09.83-.02 1.59-.24Zm-3.32.02c1.81-.37 2.47-.8 2.47-1.6v-.29l-.62.29c-2.1.98-5.87 1.04-8.25.15l-.63-.24v.23c0 .13-.03.37-.06.53-.17.87 4.42 1.47 7.09.93Zm-19.15-.06c.82-.16 1.26-.38 1.2-.57-.28-.88-6.18-.81-6.18.07 0 .55 3.16.87 4.98.5Zm-4-.3c-.1-.03-.18-.12-.18-.2 0-.13.15-.14.98-.09.53.04 1.53.02 2.22-.03 1.26-.11 1.54-.06 1.25.18-.17.14-3.87.26-4.27.14ZM5.7 31.33c0-.05-.35-.09-.78-.1-1.42-.04-3.04-.64-3.18-1.18-.07-.3-.24-.33-.24-.05 0 .45.91.96 2.2 1.24.7.15 2 .21 2 .09Zm39.15-.68c1.29-.33 2.05-.77 2.05-1.19s-.26-.51-.4-.15c-.57 1.36-5.06 1.91-7.85.97-1.11-.38-1.66-.84-1.89-1.6-.05-.17-.66-.28-.66-.13 0 .21.35.66.7.9.23.16.45.36.51.46.45.85 5.23 1.32 7.54.74Zm-39.02.19c.17-.17-.38-.84-.69-.84-.59 0-2.05-.3-2.65-.54-.32-.14-.59-.21-.59-.17 0 .72.43 1.1 1.6 1.4.71.19 2.2.28 2.33.15Zm26.27-.24c.3 0 .5-.11 1.09-.58.97-.79 1.53-1.07 2.19-1.07.52 0 .53-.01.48-.25-.04-.14-.09-.49-.12-.77-.07-.54-.24-.64-.24-.14 0 .49-.27.67-1.2.84-.47.09-1.19.24-1.6.33-1.41.32-5.96.09-5.39-.27.08-.05.09-.09.03-.09s-.18-.16-.27-.35c-.11-.23-.24-.35-.37-.35-.25 0-.53-.31-.61-.68-.06-.24-.07-.24-.08.1-.02.59-.09.68-.52.68-.48 0-.49.1-.06.45.17.15.22.22.1.16-.36-.18-.5.81-.15 1.11.54.47 3.71 1 5.46.92.49-.02 1.06-.04 1.26-.04Zm16.4-.26c.83-.37 1.08-.74.74-1.09-.15-.15-.18-.13-.34.23-.17.38-1.15 1.02-1.57 1.02-.07 0-.13.05-.13.11 0 .17.6.05 1.3-.27Zm-4.3-.15c1.49-.35 2.02-.73 2.13-1.51l.05-.36-.33.19c-.49.29-2.11.57-3.71.64-1.79.07-1.93.02-1.96-.62l-.01-.48-.06.45c-.1.71-1.29.71-1.42-.01-.04-.19-.07-.25-.08-.14-.03.41-.13.46-.72.34-.69-.14-.68-.12-.78-1l-.08-.74-.02 1.06c-.01 1.19.02 1.26.86 1.68 1.52.76 4.12.97 6.13.5Zm3.81-.3c.48-.24.61-.41.66-.94l.06-.44-.37.19c-.21.1-.55.21-.77.25l-.39.07v.6c0 .67.02.67.81.27Zm-35.11-.1c-.88-.1-2.71-.46-2.79-.55-.03-.04.08-.04.24 0 3.07.6 6.98.54 9.19-.14.86-.27.55-.06-.38.25-1.45.49-4.17.68-6.26.44Zm-7.44-.41c-.03-.13-.06-.34-.06-.48 0-.25-.04-.26-1.04-.42-.89-.14-1.8-.4-2.6-.73-.23-.1-.14.68.11.97.57.64 3.75 1.22 3.59.66Zm3.78-.49c.71-.11.75-.13.81-.41.09-.39.07-.4-.55-.27-.7.15-.7.15-.7-1.72 0-1.76-.01-1.73.73-1.84.46-.07.47-.08.47-.42 0-.28-.03-.33-.17-.29-.1.03-.51.12-.91.21-.92.21-.88.08-.84 2.68.04 2.49-.1 2.25 1.16 2.06Zm24.01-.27.9-.18-.5-.08c-.27-.04-.61-.14-.74-.23-.16-.1-.26-.12-.33-.05-.12.12-1.07.04-1.25-.1-.06-.05-.17-.32-.25-.61l-.13-.52-.05.6-.05.6-.4.03c-.85.07-1.05-.03-1.06-.56-.01-.46-.01-.46-.1-.15-.14.49-.42.63-1.27.63-.8 0-.87.08-.39.44.64.48 3.63.57 5.62.18Zm8.15-.27v-.44l.78-.03.77-.03.03-1.63c.03-2.13.04-2.11-1.6-2.28l-.68-.07v2.41c0 2.54-.01 2.5.48 2.51.2.01.22-.04.22-.44Zm2.76.3c1.76-.34 2.24-.65 2.24-1.46v-.48l-.35.24c-.39.26-1.05.43-2.02.52-.45.04-.63.1-.63.2 0 .34-.47.63-1.05.63-.52 0-.55.01-.55.25 0 .31 1.04.35 2.36.1Zm-32.62-.67c.03-.29.06-.74.06-1 0-.51.16-.64.71-.56.23.03.24.07.27 1.01.03 1.03.18 1.23.63.85.25-.22.14-4.78-.11-4.78-.47 0-.5.07-.5 1.15v1.03l-.45.06c-.63.1-.65.07-.65-1.06 0-.87-.02-.99-.16-.94-.09.03-.24.06-.35.06-.18 0-.19.1-.19 2.35v2.35h.34c.33 0 .33-.01.4-.52Zm28.4.36c.17-.43.06-4.64-.11-4.64-.1 0-.28-.03-.4-.06l-.23-.06v2.39c0 1.32.03 2.43.07 2.46.13.13.61.07.67-.09Zm7.86 0c.85-.24 1.12-.49 1.18-1.12l.05-.52-.44.24c-.39.22-.68.31-1.61.51-.26.05-.28.09-.28.55 0 .59.11.62 1.1.34Zm-42.23-.1c.02-.05-.41-.17-.94-.26-1.38-.24-2.25-.53-2.78-.93-.52-.4-.55-.41-.55-.17 0 .66 4.07 1.96 4.27 1.36Zm32.93-.08c0-.42-.24-1.75-.37-2.08-.14-.35-.14-.44 0-.91.38-1.27.33-1.76-.19-1.77-.27 0-.34.17-.34.83 0 1.04-.09 1.27-.45 1.27h-.32l-.07-.77c-.03-.42-.06-.93-.06-1.15 0-.31-.04-.38-.19-.38-.11 0-.27-.03-.36-.06-.24-.09-.19 4.71.05 4.86.49.31.6.16.6-.85v-.95h.29c.39 0 .44.1.56 1.1.09.77.12.85.35.91.4.11.5.1.5-.05Zm-23.7-.18c0-.37.12-.46.73-.53.53-.07.57-.06.57.13 0 .27.14.35.49.27l.28-.06-.24-1.12c-.13-.61-.36-1.63-.51-2.27l-.27-1.15-.37-.03c-.41-.04-.39-.08-.62 1.08-.08.41-.29 1.36-.46 2.1s-.33 1.45-.35 1.58c-.05.2-.02.22.35.22.35 0 .4-.03.4-.22Zm20.33-.28c.13-.52.05-2.29-.12-2.39-.07-.05-.36-.11-.64-.14-.7-.09-.89-.44-.73-1.33l.07-.36.7.06.69.07v-.29c0-.35-.48-.52-1.43-.52-.72 0-.77.08-.84 1.38-.07 1.31.01 1.45.87 1.55.63.08.7.16.7.82 0 .73-.07.79-.79.71-1.04-.12-.88.52.19.72.97.18 1.22.12 1.33-.28ZM7.7 27.5v-.49l-.41.14c-.51.18-.5.18-.43 0 .03-.08.24-.2.45-.25.44-.12.62-.8.21-.8-.29 0-1.24.53-1.4.77-.22.36.72 1.06 1.5 1.12.05.01.08-.21.08-.49Zm-2 .01c0-.16.03-.43.06-.6l.07-.31h-.65c-.83 0-2.21-.24-2.93-.51-.66-.25-.71-.22-.52.23.24.56.92.94 2.24 1.22 1.55.34 1.73.34 1.73-.03Zm4.63.12c.04-.02.07-.26.07-.53v-.49l-.32.06c-.8.16-.8.15-.85.67l-.04.48.53-.07c.29-.04.56-.09.61-.12Zm7.78.07c.18 0 .19-.08.19-1.25 0-1.57.15-1.67.56-.4.32.98.31.98.64-.07.38-1.23.5-1.14.5.36v1.26h.8v-5.01l-.42.03-.43.03-.35 1.23c-.19.67-.37 1.22-.41 1.22-.06 0-.69-1.89-.69-2.09 0-.06-.19-.11-.45-.11h-.45v2.46c0 2.2.02 2.46.16 2.4.09-.03.24-.06.35-.06Zm12.39-.54c0-2.29.36-2.39.9-.26.21.82.19.8.57.8h.35l-.07-.47c-.03-.27-.2-.9-.37-1.41l-.31-.93.32-1.02c.38-1.25.38-1.17-.04-1.17-.38 0-.57.41-.74 1.58-.05.38-.1.47-.26.47-.19 0-.2-.08-.23-1.07l-.03-1.08h-.45c-.38 0-.45.03-.4.16.03.09.06 1.21.06 2.49v2.34l.23.04c.47.09.47.09.47-.47Zm-8.08-.28.03-.73.72-.03c.95-.04.94-.02.96-1.82.02-1.89.07-1.83-1.41-1.78-1.05.03-1.29.13-1.17.46.03.08.05 1.15.05 2.38v2.24h.79zm6.47.41c.18-.52.15-4.44-.04-4.62-.29-.3-1.97-.33-2.32-.05-.1.08-.13.67-.13 2.32 0 2.78-.09 2.63 1.52 2.65l.86.01zm-3.25-.3c.04-.28.06-1.41.05-2.5l-.02-1.99h-.77v5h.34c.33 0 .34-.01.4-.51Zm16.14.23-.38-.03v-1.2c0-.65-.01-1.22-.02-1.26-.05-.13.5-.15.72-.03.18.1.2.2.2 1.3 0 1.3.01 1.27-.52 1.22Zm-27.67-1.15c.27-1.15.25-1.23-.16-1.13-.25.06-.25.08-.25 1.16 0 1.39.08 1.38.41-.03Zm31.58.78c.56-.31.78-.6.6-.81-.17-.2-.23-.18-.36.15-.12.34-.46.58-1.17.84l-.51.18.49-.05c.26-.03.69-.17.95-.31Zm-28.49-.9V24.8h-.24c-.38 0-.39.11-.09 1.25.33 1.3.33 1.3.33-.1Zm21.62.08c-.02-.54.01-1.39.05-1.88l.08-.9.65.03c.43.01.69.07.76.17.07.09.14.11.2.05.07-.07.42-.07 1.01-.01 1.36.14 2.8-.1 3.42-.58l.24-.18-1.28-.32c-1.54-.37-1.36-.19-1.8-1.7-.19-.69-.38-1.27-.4-1.3-.03-.02-.05.48-.05 1.12 0 .66.04 1.18.1 1.22.78.48-2.45.85-3.6.41-.49-.18-.9-.52-.9-.73 0-.19.17-.16.4.07.45.45 3.17.77 3.52.42.07-.07.09-.12.04-.12-.11 0-2.66-.39-2.99-.46-.26-.05-.27-.08-.27-.69 0-.59-.01-.63-.26-.69-.32-.08-.29-.12-.46.49l-.14.5h-.59c-1.31 0-1.05.88.38 1.35.46.15.52.19.23.15-1.02-.16-1.85-.78-1.72-1.29.07-.28-.11-.36-.9-.36-1.09 0-.93.75.3 1.36.76.38.55.37-.3-.01-.82-.36-1.15-.85-.79-1.15.19-.16.19-.3.01-.3-.24 0-.34.91-.14 1.34.12.28.15.29.98.46.75.14.83.21.91.77l.06.48.02-.47c.01-.59.07-.62.91-.48l.7.12.02.56.02.57.03-.54.04-.54.64.05c.34.03.68.09.75.13.16.1.07 1.28-.14 2-.14.46-.14.54.05 1.17.26.85.25.87.21-.29Zm8.63.83c1.3-.35 1.75-.71 1.75-1.4V25l-.37.2c-.47.24-1.46.5-1.91.5-.31 0-.34.02-.28.23.03.12.06.41.06.65 0 .47.02.48.75.28Zm-32.48-.03c-.07-.1.27-1.9.37-2 .11-.12.24.16.4.9.2.85.2 1.07.02 1.07-.07 0-.27.03-.44.06-.16.03-.32.02-.35-.03Zm12.23-1.76v-1.84l.29-.06c.72-.15.72-.15.69 1.87l-.03 1.81-.47.03-.48.03zm6.8 1.48c0-.3-.04-.35-.27-.4-1.21-.24-1.39-.5-1.29-1.95l.05-.85-.14.5c-.07.27-.18.63-.24.78-.08.22-.07.4.08.85.1.31.23.73.28.92.08.32.12.36.53.41.98.13 1 .13 1-.26Zm10.22.24c1.06-.23 1.48-.57 1.48-1.19 0-.27-.03-.31-.17-.25-.39.14-1.4.35-1.75.35h-.38v.6c0 .68-.02.67.82.49Zm-34.24-.24.42-.07v-.9l-.52.07c-.69.09-.68.09-.68.61 0 .38.03.45.18.4.09-.02.36-.08.6-.11Zm17.84-1.05c.06-1.23 0-2.02-.16-1.97-.06.02-.11.16-.1.3 0 .15.01.81.02 1.47.02 1.46.17 1.58.24.2Zm-20.81.59c.63-.19.69-.23.69-.48v-.27H6.28c-2.1-.01-4.13-.41-4.81-.94-.35-.27-.37-.26-.37.23 0 .52.13.66.9 1 1.43.63 3.74.85 5.01.46Zm28.59-1.18c0-.9.09-.82-1.08-.96l-.53-.07.03.43.03.44.53.07c.73.11.92.23.92.58 0 .17.02.3.05.3s.05-.36.05-.79Zm-25.42.53c.22-.04.34-.54.12-.54-.54 0-1.1.23-1.1.46 0 .26.07.27.98.08Zm12.19-1c-.07-1.28-.05-1.34.42-1.34.64 0 .83.52.67 1.84l-.07.56h-.96zm22.18.81c.84-.16 1.77-.54 2.12-.87.31-.29.35-1.22.05-.95-.44.4-1.88.84-2.9.88-.54.03-.54.03-.48.32.03.16.06.4.06.53 0 .29.09.3 1.15.09Zm3.13 0c1.19-.28 1.61-.6 1.72-1.29l.06-.43-.61.29c-.34.16-.85.31-1.13.35-.4.04-.54.11-.71.34-.12.16-.39.38-.61.49-.79.4-.01.55 1.28.25Zm-35.38-.27c0-.18-.03-.64-.07-1.01l-.06-.69-.56-.26c-.31-.14-.59-.28-.63-.3-.05-.02-.08.09-.08.25 0 .27-.03.29-.42.3l-.43.01.33-.14c.33-.14.47-.42.15-.29-2.14.84-5.93.96-8.02.25l-.83-.28.06.31c.13.7.84 1.04 2.78 1.33 1.7.25 2.98.17 3.29-.19.3-.35 2.75-.97 3.81-.97h.28v1c0 .93.01 1 .2 1 .16 0 .2-.07.2-.32Zm-4.6 0c0-.1-.37-.13-1.48-.14-2.55-.01-4.72-.66-4.72-1.41 0-.2-.18-.15-.31.08-.3.56 1.19 1.26 3.26 1.52.83.11 3.25.07 3.25-.05Zm9.28-.34c.2-.06.22-.12.22-.75v-.69h-.51c-.43 0-.5.02-.45.18.02.09.1.43.17.74.12.59.16.62.57.52Zm-2.48-.45c.13-.49.13-.49-.39-.56l-.41-.06v1.03h.35c.32 0 .35-.03.45-.41Zm30.12-.24c1.59-.33 2.78-1.26 1.5-1.17-.35.03-.55.11-.78.33-.37.36-1.09.65-1.88.74-.38.05-.53.1-.45.16.21.13.85.11 1.61-.06Zm3.2-.06c1.03-.22 1.79-.75 1.58-1.09-.09-.14-.39.1-.4.32 0 .11-1.02.56-1.42.64-.21.03-.38.1-.38.15 0 .11-.02.11.62-.02Zm-28.37-.8c.26-.82.39-.92 1.15-.87.44.03.45.04.51.43l.06.4.02-.36c.05-1.44-2.78-2.23-6.48-1.8-3.23.38-4.82 1.55-2.89 2.13.21.06.38.15.38.19s.15.03.32-.02c.58-.16 1.09-.12 1.15.11.08.29 1.03.3 1.03.01 0-.16-.12-.21-.7-.31-1.57-.27-1.89-1.15-.56-1.56 1.32-.4 4.37-.36 5.33.06.61.27.73 1.02.18 1.16l-.23.06.2.59c.24.71.23.71.53-.22Zm28.47.26c.52-.18.93-.57 1.03-.97.08-.33.12-.33-.53-.08-.29.11-.65.2-.8.2-.41 0-.49.11-.44.58s.09.49.74.27ZM8.6 23.1c1.52-.32 1.92-.49 2.01-.84.05-.16.2-.41.35-.57.38-.4.24-.51-.39-.29-.28.1-.8.24-1.14.31-.37.08-.63.18-.63.25 0 .12-1.16.54-2.73.99-.73.21-1.07.06-1.07-.48v-.33l-1-.13c-1.08-.13-2.05-.41-2.59-.74l-.34-.2.05.47c.1.89 1.04 1.42 3.18 1.8.66.12 3.29-.03 4.3-.24Zm23.04-.78c.68-.04.96.04.96.29 0 .19.01.19.16.05.08-.09.26-.19.4-.22.66-.17-.54-.43-2.51-.54l-1.3-.07 1-.01c.88-.02 1.69.06 2.57.24.26.05.26.05.25-.48-.01-.29.01-.62.06-.74.07-.2.02-.21-.99-.32-.58-.07-1.1-.14-1.15-.18-.05-.03-.9-.05-1.87-.05-2.03.01-1.97.03-2.21-.75l-.17-.59-.47-.03-.47-.03v.64c0 .81.09.77-1.94.77-1.97 0-1.86.08-1.86-1.37 0-.69-.04-1.13-.1-1.13-.05 0-.1.15-.1.34 0 1.2-.84 2.11-2.21 2.39l-.64.13.57.12c.75.17 1.17.47 1.46 1.05.19.35.29.46.41.42.72-.29 2.71-.13 2.86.23.07.14.09.13.14-.08.12-.42 1.43-.38 1.52.05.04.17.07.22.08.13.05-.71 2.82-.69 3.18.02l.13.25v-.65h.64c.84 0 .96.05.97.44l.01.31.07-.3c.06-.28.1-.3.55-.33Zm-14.38.33c.09-.08.32-.15.52-.15.97 0 1.42-.38.8-.68-1.36-.65-6.5-.16-5.46.52.65.42 3.79.66 4.14.31Zm-10.3-.36C8.65 21.75 8.5 22 8.5 19.8v-1.87l1.42-.22c2.79-.44 2.93-.62 3.1-3.94.27-5.4-.05-6.64-1.75-6.82-.69-.07-5.72-.03-5.8.05-.18.18-.11 15.7.07 15.7.07 0 .71-.18 1.42-.41ZM5.5 14.81V7.1h2.93c4.51 0 4.38-.11 4.45 3.85.09 5.81-.05 6.13-3.03 6.58l-1.5.22-.03 1.92c-.02 1.36-.06 1.94-.15 2-.11.09-1.8.65-2.39.79l-.28.06zm8.35 7.49c-.14-.23.15-.27 2.16-.29 1.66-.01 2.1.01 2.07.11-.09.26-4.08.42-4.23.18Zm32.21-.07c-.02-.1-.08-.34-.11-.53-.04-.19-.32-1.22-.61-2.29l-.54-1.93.25-.2c.8-.62.86-.83.97-3.28.31-6.77.09-7.1-4.9-7.18l-2.72-.04v14.19l1.13.17c.61.1 1.29.2 1.5.23l.38.06-.01-2.09c-.01-1.15-.01-2.18-.01-2.28.01-.33.18-.05.3.49.13.58 1.16 4.14 1.22 4.19.07.06 2.73.64 2.97.65.18.01.22-.03.18-.16Zm2.09-.18c.62-.17.92-.44 1.01-.9.11-.59.02-.68-.49-.46-.46.2-1.83.51-2.24.51-.18 0-.23.04-.19.18l.11.49c.09.45.61.5 1.8.18Zm-2.7.1c-.05-.02-.63-.16-1.27-.3L43 21.58l-.11-.41c-.06-.23-.33-1.15-.59-2.04-.27-.89-.52-1.78-.56-1.98-.05-.28-.11-.35-.3-.35h-.24V19c0 1.57-.03 2.2-.11 2.2-.14 0-2.05-.29-2.37-.36l-.22-.04.02-6.93.03-6.92 1.6-.03c2.9-.06 4.46.2 5.09.83.56.56.61.93.61 4.5 0 3.97-.07 4.3-1 4.91-.14.09-.25.22-.25.3 0 .11.98 3.66 1.26 4.57.05.16-.13.22-.41.12Zm-38.61-.4c.45-.14.87-.28.93-.33.09-.06.13-.62.15-2.02l.03-1.95L9 17.28c3.68-.59 3.45-.24 3.45-5.28 0-4.93.32-4.55-3.75-4.55H5.95l-.03 7.28c-.01 4 .01 7.27.05 7.27s.43-.11.87-.25ZM5 21.8c0-.05-.04-.1-.09-.1-1.07 0-2.8-.59-3.25-1.11-.33-.39-.35-.4-.45-.21-.17.32-.14.4.27.66.76.5 3.52 1.09 3.52.76Zm40.28-.32c-.03-.13-.28-1.07-.57-2.09-.62-2.26-.62-2.16-.03-2.59.75-.56.76-.62.77-4.6V8.75l-.24-.42c-.47-.82-1.35-1.03-4.38-1.03H38.8v13.17l.78.12c.42.07.87.15 1 .18l.22.05v-1.95c0-2.31.04-2.47.59-2.47.53 0 .52-.02 1.25 2.49.35 1.23.68 2.27.73 2.32.06.06 1.45.42 1.87.48.04 0 .06-.09.04-.21ZM5 20.67v-.72l-.75-.12c-1.92-.31-1.9-1.46.02-1.78.57-.1.73-.15.73-.26 0-.49-3.13.64-3.26 1.18-.1.38.59.82 1.79 1.13.4.1.64.19.53.19-.34.01-1.41-.3-1.85-.55-.54-.3-.51-.31-.51.12 0 .69.98 1.26 2.55 1.47.79.11.75.15.75-.66Zm5.38.42c.93-.31 1.22-.59 1.22-1.18v-.48l-.56.28c-.3.16-.91.36-1.35.45l-.79.17v1.1l.43-.07c.23-.04.7-.16 1.05-.27Zm3.48-.42.8-.11-.4-.31c-.72-.53-.9-1.06-.94-2.72l-.04-1.42-.25.49c-.28.56-.89 1.06-1.4 1.16-.4.08-.4.08-.04.45.53.53.57 2.06.06 2.59-.42.44-.24.51.62.23.43-.13 1.14-.3 1.59-.36Zm33.49-.13c1.52-.28 1.89-.52 2-1.28.09-.55.17-.54-.88-.16-.32.11-1.04.28-1.6.37-.56.1-1.04.18-1.05.19-.14.09.3 1.12.46 1.09.09-.02.58-.11 1.07-.21ZM37.1 19.53c.13-.6.27-1.15.31-1.24.09-.17.04-.18-2.33-.45l-.58-.06v-3l1.27.03 1.28.03v-2.49l-1.3-.05-1.3-.05-.03-1.2c-.02-.66 0-1.35.03-1.52l.06-.33h2.89V6.7h-6.1l.02 6.68.03 6.67.75.08c.41.04 1.54.16 2.5.26s1.87.19 2.01.2c.25.01.27-.03.49-1.06Zm-17.6.67c.89-.2 1.44-.54 1.76-1.14l.29-.51.03-5.02c.04-7.07.2-6.78-3.63-6.78-3.03.01-3.83.28-4.14 1.4-.17.63-.14 10.49.03 10.98.25.69.72 1.04 1.61 1.18.67.11 3.36.03 4.05-.11Zm15.4.05c-.63-.08-1.66-.19-2.28-.25l-1.12-.12V6.9h5.68l.04 1.03c.06 1.29.21 1.17-1.48 1.17H34.3v3.28l1.3.07 1.3.07v2.19l-1.28-.03-1.27-.03v3.3l1.4.15c1.61.17 1.49.03 1.18 1.4l-.19.85-.35.01c-.19.01-.86-.04-1.49-.11Zm-19.63-.14c-.44-.09-.81-.35-1.11-.75-.24-.32-.39-10.4-.16-11.18.28-.96.95-1.19 3.6-1.25 4.02-.1 3.93-.24 3.88 6.71l-.03 4.62-.3.59c-.5.98-1.21 1.21-4 1.29-.83.03-1.67.02-1.88-.03Zm-5.62-.3c.51-.24.97-.72.99-1.05.01-.31.12-.34.21-.06.08.24-.18.76-.46.91-.4.21-.11.2.39-.01 1.33-.57.87-1.71-.63-1.55l-.67.07.31.32c.46.48.26.95-.5 1.17-.21.07-.39.18-.39.26 0 .18.28.16.75-.06Zm20.99.11c.04-.07-1.27-5.35-1.68-6.75l-.17-.58.65-2.02c.96-3 1.16-3.69 1.1-3.79-.03-.04-.67-.08-1.43-.08h-1.38l-.58 1.52c-1.74 4.59-1.65 4.53-1.65 1.03V6.7h-3v13.2h3v-2.59c0-1.43.03-2.66.06-2.75.1-.25.33-.19.45.11.17.47.79 2.6 1.13 3.92l.33 1.26 1.24.05c.68.03 1.38.07 1.56.08.17.01.34-.02.37-.06Zm5.85-.3c.31-1.13.44-1.01-1.43-1.22-1.22-.13-1.16-.03-1.16-1.99 0-2.31-.13-2.11 1.36-2.11h1.24v-1.37l-.31-.07c-.17-.03-.71-.06-1.18-.06-1.16 0-1.11.1-1.11-2.06 0-2.19-.13-2.03 1.61-2.06l1.34-.03v-1.4l-2.52-.03-2.53-.02v6.15c0 3.38.01 6.15.03 6.16.16.03 4 .47 4.24.48.29.01.33-.03.42-.37Zm-17.94.08c2.57-.24 2.54-.17 2.55-6.55 0-6.19.15-5.91-3.1-5.89-4.04.01-3.82-.37-3.78 6.71.04 6.4-.15 6.15 4.33 5.73Zm9.83.03c-.62-.03-.78-.07-.82-.21-.03-.09-.17-.62-.31-1.17s-.47-1.69-.72-2.52l-.46-1.53h-.67v5.4h-2.7V6.9h2.7v5h.28c.26 0 .3-.07 1.21-2.5l.94-2.5h1.28c.71 0 1.29.02 1.29.05s-.4 1.31-.89 2.85l-.9 2.79.31 1.13c.78 2.87 1.55 5.98 1.5 6.03s-.48.04-2.04-.02ZM5 19.35c0-.19-.05-.25-.22-.25-.39 0-.68-.12-.68-.26 0-.08.1-.14.23-.14.38 0 .67-.12.67-.26 0-.18-.34-.18-.98.01-1.13.34-1.01.83.27 1.05.71.12.71.12.71-.15Zm25 0c0-.03-.38-1.51-.85-3.29-1.02-3.89-1.02-3.19-.05-6.17.44-1.36.8-2.5.8-2.53s-.42-.06-.92-.06h-.93l-.9 2.4c-1 2.7-.94 2.6-1.5 2.6-.66 0-.65.02-.65-2.62V7.3h-2v12h2v-2.59c0-2.94-.03-2.84.81-2.79l.53.03.33 1.05c.19.58.53 1.77.76 2.65l.42 1.6.5.06c.66.08 1.65.1 1.65.04ZM9.44 19.2c.36-.13.34-.5-.04-.78-.43-.32-.5-.28-.5.33 0 .59.06.64.54.45Zm37.31-.05c.85-.14 1.66-.37 2.27-.65.29-.14.48-.58.48-1.12v-.27l-.42.24c-.56.31-1.61.6-2.76.75-.51.07-.92.16-.92.2s.05.22.11.41.12.4.15.47c.04.15 0 .15 1.09-.03ZM16.6 18.03a.54.54 0 0 1-.22-.17c-.12-.17-.1-8.6.02-8.9.11-.3 2.21-.41 2.48-.14.21.21.17 8.92-.04 9.09-.17.14-1.96.24-2.24.12Zm31.04-.44c1.36-.34 2.05-.82 1.72-1.18-.5-.55-3.06-1.36-3.06-.97 0 .15.05.17.87.36 1.95.44.92 1.8-1.36 1.8-.51 0-.62.05-.55.24.06.16 1.28.03 2.38-.25Zm-21.14.14c0-.05-.13-.48-.29-.98l-.29-.9-.01.97-.01.98h.3c.16 0 .3-.03.3-.07ZM38 15.4v-2.41l-.3.16c-.3.15-.3.16-.3 1.05 0 1.09.06 1.05-1.42 1.01l-1.18-.03v1.11c0 .82.03 1.11.13 1.12.06 0 .73.09 1.47.18l1.48.2c.09.01.12-.53.12-2.39Zm-19.35.98c.04-.73.06-2.67.04-4.3l-.04-2.98H16.7v8.6h1.87zm-1.78 1.16c-.1-.1-.09-8.06.02-8.22.05-.09.29-.12.82-.1l.74.03.03 4.13.02 4.12h-.57c-.32 0-.67.03-.78.06s-.24.02-.28-.02Zm5.2-6.47c-.01-1.16-.02-.21-.02 2.13s.01 3.29.02 2.12c.02-1.16.02-3.08 0-4.25Zm24.55 6.09c.71-.13 1.22-.4 1.15-.59-.12-.38-1.47-.72-1.47-.37 0 .17.07.2.41.2.56 0 .46.24-.12.28-.34.03-.49.1-.67.33-.27.33-.25.34.7.15ZM18.1 15.7v-1.5h-.9v3h.9zm12.8.6c0-.11-.07-.2-.15-.2s-.15-.09-.15-.2.07-.23.15-.26c.33-.13.12-.2-.31-.1-.38.09-.44.14-.4.31.03.11.06.26.06.33 0 .13.33.3.63.31.11.01.17-.06.17-.19Zm-23.1-1c-.15-.28-.03-6.08.12-6.27.14-.17 2.09-.18 2.26-.01.21.21.17 6.12-.05 6.29-.31.27-2.19.25-2.33-.01Zm2.18-3.12L10 9.3H8.1v5.81l.93-.03.92-.03zm-1.66.05.03-2.78.73-.03.72-.03v2.74c0 3.12.08 2.87-.91 2.87H8.3zm32.7 2.65c-.09-.09-.12-.84-.12-2.95 0-3.33-.11-3.07 1.35-3.01 1.36.05 1.26-.21 1.23 3.17l-.03 2.86-1.15.03c-.81.02-1.19-.01-1.28-.1Zm-10.49-.28h.37l-.01-3.72c0-2.05-.02-3.68-.04-3.63s-.4 1.28-.86 2.71l-.82 2.62.29 1.06c.26.96.31 1.07.49 1.02.11-.03.37-.06.58-.06Zm-21.1-.82c.03-.46.06-1.54.07-2.4l.01-1.58H8.6v4.8h.77zm33.75-1.8-.03-2.63h-1.9l-.03 2.63-.02 2.62h2zm-1.61 2.45c-.16-.04-.17-.22-.15-2.51l.03-2.47.75.04c.41.02.78.08.82.15.09.13.11 4.48.02 4.7-.06.16-.99.21-1.47.09Zm1.08-2.48v-2.1l-.47-.03-.48-.03v2.09c0 2.31-.02 2.24.55 2.2l.4-.03zm-24.55 1.4v-.45h-.9v.9h.9zm0-2.25V9.6h-.9v3h.9z"/></svg>