<svg xmlns="http://www.w3.org/2000/svg" width="51" height="51" viewBox="0 0 51 51"><path fill="#fff" fill-rule="evenodd" stroke="#fff" stroke-width=".691" d="M23.66 47.89C15.53 47.22 8.1 41.84 5.02 34.4-.64 20.73 7.7 5.75 22.26 3.43c1.56-.25 5.49-.24 6.89.01 13.1 2.34 21.29 14.71 18.19 27.45-2.62 10.74-12.61 17.91-23.68 17Zm5.76-.48c10.78-1.99 18.33-11.02 18.3-21.86C47.67 6.9 26.18-3.31 11.61 8.38 2.44 15.73.77 29.46 7.88 38.93c3.6 4.79 9.12 7.91 15.42 8.71.95.12 5.08-.03 6.12-.23Zm-3.3-8.37c-4.95-.83-8.87-5.12-9.19-10.05-.11-1.79.46-2.7 1.69-2.69 1.07.01 1.65.72 1.79 2.18.38 4.04 3.13 6.74 7.29 7.17q2.325.24 2.07 2.16c-.17 1.24-1.3 1.62-3.65 1.23Zm2.76-.28c.68-.35.92-1.51.45-2.14-.38-.51-.64-.61-1.83-.76-2.45-.31-4.04-1.13-5.53-2.86-.9-1.04-1.77-3.2-1.77-4.37 0-1.45-.9-2.37-1.98-2.02-.87.27-1.18.94-1.08 2.29.3 3.93 2.67 7.34 6.3 9.06 1.88.88 4.52 1.28 5.44.8ZM27.18 34c-.84-.45-1.11-1.59-.59-2.44.33-.53.82-.74 2.03-.85 3.9-.38 6.6-3.12 7.09-7.21.2-1.75 1.13-2.56 2.34-2.06.95.4 1.19.93 1.12 2.41-.27 5.59-5.21 10.37-10.69 10.35-.72-.01-1.01-.05-1.3-.2Zm2.77-.15c4.86-.79 8.67-4.98 9.02-9.92.11-1.58-.39-2.33-1.54-2.33-.97 0-1.33.51-1.53 2.12-.48 4.01-3.25 6.76-7.26 7.23-1.45.17-1.94.47-2.1 1.3-.26 1.41.99 2 3.41 1.6Zm-16.58-4.07c-.96-.2-1.37-.85-1.37-2.14.01-4.65 3.61-9.15 8.27-10.33 2.78-.7 4.15-.4 4.53.99.32 1.18-.48 2.01-2.05 2.14-4.11.34-6.98 3.27-7.31 7.48-.1 1.36-.93 2.11-2.07 1.86Zm1.1-.38c.52-.31.64-.6.79-1.87.48-4.15 3.28-6.9 7.45-7.33 1.49-.15 1.93-.53 1.86-1.62s-.62-1.43-2.22-1.35c-5.43.27-10.06 4.98-10.09 10.29-.01 1.71 1.04 2.6 2.21 1.88Zm17.27-4.78c-.67-.43-.89-.91-.98-2.17-.25-3.71-3.31-6.66-7.26-7-1.55-.14-2.32-.96-2-2.14.29-1.1 1.12-1.49 2.78-1.3 5.1.57 8.99 4.21 9.87 9.23.41 2.38-.04 3.46-1.5 3.54-.46.02-.67-.01-.91-.16Zm1.57-.25c.75-.49.92-1.28.63-2.98-.79-4.71-4.15-8.15-8.84-9.03-2.34-.45-3.48.05-3.38 1.47.07.97.51 1.28 2.05 1.42 3.85.34 6.89 3.38 7.22 7.21.09 1.02.23 1.45.58 1.76.47.43 1.23.49 1.74.15Z"/></svg>