<svg xmlns="http://www.w3.org/2000/svg" width="51" height="51" viewBox="0 0 51 51"><path fill="#fff" fill-rule="evenodd" stroke="#fff" stroke-width=".736" d="M14.59 38.81c-.41-.22-1.46-.79-2.34-1.28l-1.6-.89-.03-8.57c-.02-6.69.01-8.57.1-8.57.15 0 1.25.6 8.85 4.82 3.25 1.8 5.96 3.28 6.02 3.28.09 0 2.42-1.27 10.23-5.58 2.74-1.52 4.62-2.52 4.71-2.52.04 0 .06 3.84.05 8.52l-.03 8.53-2.35 1.32c-1.29.73-2.38 1.33-2.43 1.33-.04 0-.07-2.43-.07-5.4 0-3.33-.04-5.4-.09-5.4-.06 0-1.24.64-2.63 1.41-1.39.78-3.61 2.02-4.92 2.75-1.32.74-2.43 1.34-2.48 1.34-.04 0-2.23-1.18-4.86-2.63-2.62-1.45-4.85-2.66-4.94-2.7-.17-.06-.18.25-.2 5.25-.02 3.76-.06 5.32-.14 5.35-.06.02-.44-.14-.85-.36Zm.81-5.26c0-2.94.04-5.35.08-5.35.12 0 1.87.94 6.21 3.34 2.05 1.13 3.75 2.06 3.77 2.06s.04-1.29.04-2.87v-2.88l-4.42-2.45c-7.1-3.94-10.12-5.6-10.2-5.6-.05 0-.08 3.75-.08 8.34v8.33l1.88 1.03c1.03.57 2.01 1.11 2.17 1.21.58.36.55.63.55-5.16Zm23.3 3.78 1.65-.91.03-8.31.02-8.31-.62.31c-.35.18-2.18 1.18-4.08 2.22-1.9 1.05-4.89 2.7-6.65 3.67l-3.2 1.76-.07 2.89c-.04 1.59-.05 2.91-.04 2.93.02.01.86-.44 1.87-1.01 6.84-3.85 8.05-4.5 8.19-4.42.07.04.1 1.87.1 5.41v5.35l.58-.33c.31-.18 1.31-.74 2.22-1.25ZM24.95 25.76c-2.4-1.34-8.54-4.72-11.17-6.16l-3.18-1.72v-3.1c0-2.91.01-3.1.17-3.04.22.09 2.26 1.2 9.31 5.09 3.45 1.89 5.51 2.97 5.62 2.94.17-.04 2.21-1.16 11.48-6.29 1.77-.98 3.27-1.78 3.32-1.78.07 0 .09 1.06.08 3.07l-.03 3.07-2.9 1.59c-1.6.88-4.96 2.73-7.48 4.13s-4.59 2.54-4.6 2.54-.29-.15-.62-.34Zm.55-2.83v-2.88l-3.82-2.1c-2.1-1.16-5.39-2.96-7.32-4.02l-3.51-1.92-.03 2.81c-.02 2.17.01 2.85.1 2.94.07.06 2.11 1.2 4.53 2.52s5.66 3.1 7.2 3.96 2.81 1.56 2.83 1.56c.01 0 .02-1.29.02-2.87Zm3.36 1.11c1.65-.92 3.42-1.9 3.94-2.19s1.87-1.03 3-1.65 2.62-1.44 3.32-1.82l1.28-.7v-2.84c0-1.56-.02-2.84-.04-2.84-.03 0-1.98 1.07-4.33 2.37s-5.61 3.1-7.23 3.99l-2.95 1.62-.05 2.68c-.05 2.43-.03 3.04.05 3.04.02 0 1.37-.75 3.01-1.66Z"/></svg>