<svg xmlns="http://www.w3.org/2000/svg" width="51" height="51" viewBox="0 0 51 51"><path fill="#fff" fill-rule="evenodd" stroke="#fff" stroke-width=".782" d="m21.75 43.31-3.5-2.08-.05-6.73-.05-6.74-1.85-1.07c-1.02-.59-3.51-2.04-5.55-3.22l-3.7-2.15-.03-4.06L7 13.2l.82-.53c.99-.64 5.25-3.15 5.86-3.46l.43-.22.47.27c1.23.71 8.89 5.25 9.8 5.8l1.04.64 5.7-3.27c3.14-1.79 5.8-3.28 5.92-3.3.14-.03 1.36.66 3.66 2.04l3.45 2.08.03 3.94c.01 2.58-.01 3.98-.08 4.06-.06.07-2.69 1.6-5.85 3.41l-5.75 3.28v13.34l-.67.39c-.38.22-1.94 1.15-3.49 2.06-1.54.92-2.87 1.67-2.95 1.66-.08 0-1.71-.94-3.64-2.08Zm3.58-2.28c.04-2.23.07-7 .07-10.59v-6.53l-2-1.15c-1.1-.64-2.89-1.67-3.97-2.3-1.09-.62-3.26-1.88-4.83-2.78-3.15-1.82-6.57-3.76-7.07-4.02l-.33-.17v7.66l2.83 1.64c1.55.9 4.07 2.37 5.59 3.25l2.78 1.61v13.41l1.26.75c.69.41 2.21 1.31 3.37 2.01 1.17.69 2.15 1.27 2.18 1.27.03.01.09-1.82.12-4.06Zm3.5 2.16c1.77-1.05 3.28-1.96 3.34-2.01.1-.08.13-1.6.15-6.75l.03-6.65 5.75-3.29 5.75-3.28.07-1.18c.08-1.47.08-6-.01-6.3-.06-.2-.73.16-9.06 4.93-4.95 2.83-9.05 5.2-9.12 5.27-.1.11-.25 21.17-.15 21.17.01 0 1.48-.86 3.25-1.91Zm-.66-20.96c1.42-.81 4.63-2.64 7.13-4.08s5.42-3.1 6.48-3.7c1.05-.6 1.92-1.12 1.92-1.15 0-.04-1.48-.96-3.3-2.05l-3.3-1.98-5.8 3.32c-3.19 1.82-5.83 3.31-5.88 3.31-.04 0-1.27-.71-2.73-1.58-5.03-3.02-8.47-5.02-8.63-5.02-.15 0-4.53 2.53-6.02 3.49l-.77.49.42.22c.7.35 13.44 7.66 17.06 9.79.39.22.73.41.77.41s1.24-.66 2.65-1.47Z"/></svg>