<svg xmlns="http://www.w3.org/2000/svg" width="51" height="51" viewBox="0 0 51 51"><path fill="#fff" fill-rule="evenodd" stroke="#fff" stroke-width=".747" d="M23.9 43.29C13.31 42.2 6.08 32.42 8.21 22.05c2.48-12.13 16.24-18 26.83-11.43 8.49 5.26 10.84 16.73 5.14 25.05-3.65 5.33-9.92 8.27-16.28 7.62Zm5.15-.49c11.4-2.42 17.33-14.66 12.15-25.05-5.15-10.33-18.89-12.87-27.43-5.07-3.65 3.33-5.5 7.46-5.64 12.57-.24 8.92 5.96 16.26 14.92 17.7 1.35.22 4.67.13 6-.15Zm-5.35-2.84C14.63 38.65 8.99 29.6 11.86 21c1.62-4.84 5.77-8.47 10.94-9.57 1.21-.26 4.39-.26 5.6 0 5.79 1.24 10.1 5.51 11.36 11.27.46 2.06.23 5.33-.51 7.57-2.15 6.46-8.88 10.65-15.55 9.69Zm4.35-.32c9.9-1.65 14.98-13.27 9.5-21.75-6.33-9.8-21.46-8.09-25.35 2.86-3.66 10.33 5.03 20.69 15.85 18.89Z"/></svg>