<svg xmlns="http://www.w3.org/2000/svg" width="51" height="51" viewBox="0 0 51 51"><path fill="#fff" fill-rule="evenodd" stroke="#fff" stroke-width=".8" d="M7.55 33.56c-1.09-.47-1.5-1.83-.88-2.88.23-.39 7.19-9.71 7.76-10.4.63-.76 1.57-.99 2.37-.58.47.24.87.73 4.11 5.04 3.2 4.27 3.09 4.16 4.1 4.16 1.16 0 1.98-1.05 1.69-2.18-.13-.54-.26-.73-2.57-3.8-1.18-1.56-1.83-2.51-1.83-2.66 0-.32.37-.85 2.79-4.03 3.38-4.43 3.28-4.33 4.26-4.33.58 0 1.01.2 1.47.68.54.57 13.17 17.36 13.59 18.07.63 1.06.21 2.46-.88 2.91-.47.2-35.52.2-35.98 0Zm35.54-.15c1.16-.23 1.73-1.44 1.18-2.52-.19-.38-11.71-15.78-13.24-17.71-.63-.8-1-1.02-1.69-1.02-.89 0-.72-.19-4.79 5.19-1 1.32-1.87 2.5-1.94 2.63-.16.31-.15.34 2.21 3.48 1.07 1.43 2 2.75 2.06 2.94.59 1.69-1.13 3.34-2.73 2.61-.51-.23-.61-.35-3.91-4.76-1.48-1.97-2.86-3.76-3.06-3.97-.66-.67-1.59-.73-2.26-.14-.46.4-7.99 10.47-8.19 10.94-.4.97.18 2.08 1.22 2.33.42.1 34.61.1 35.14 0Z"/></svg>