<svg xmlns="http://www.w3.org/2000/svg" width="51" height="51" viewBox="0 0 51 51"><path fill="#fff" fill-rule="evenodd" stroke="#fff" stroke-width=".8" d="M20.55 42.3c-.04-.06-.03-.25 0-.43.06-.26.05-.3-.06-.19-.23.22-.49.15-.49-.13 0-.37.26-.72.84-1.12l.51-.35-.53.06a4.6 4.6 0 0 0-1.08.33c-.59.3-.86.24-.65-.14.09-.18.07-.2-.14-.15-.31.05-.32-.11-.05-.55.38-.63 1.37-.93 3.04-.93h1.04l.36-.4c.47-.53.46-.69-.13-1.18l-.49-.41-1.43.39c-1.73.48-2.06.49-2.78.1-.63-.35-.61-.34-.61-.15 0 .24-.47.18-.65-.07-.4-.58-.77-2.09-.72-2.96.11-1.88.69-2.42 4.16-3.93 1.91-.83 2.02-.98 1.71-2.18-.21-.82-.26-.91-.69-1.27-.63-.53-.86-1.45-.59-2.36.11-.36.09-.44-.36-1.37-.56-1.16-.68-1.92-.43-2.54.09-.21.23-.37.32-.37.11 0 .15-.06.11-.17-.03-.1-.25-.85-.5-1.68-1.51-5.08-1.66-5.72-1.66-7.25 0-1.62.26-1.96 1.37-1.75 1.52.28 5.72 4.72 8.22 8.7.35.55.97 1.44 1.37 1.98.84 1.11 1.64 2.66 1.93 3.77.41 1.51.55 4.56.26 5.79-.37 1.56-1.71 3.25-3.12 3.92-1.43.68-1.02 1.08 1.56 1.54 2.08.37 2.86.7 3.63 1.52 1.08 1.14 1.16 3.94.12 4.41-.83.39-2.1-.13-5.01-2.04-1.56-1.02-1.78-1-1.98.21-.15.91-.4 1.09-1.92 1.39l-1.08.21-.05.56c-.06.64-.29.99-.67.99-.16 0-.23-.06-.23-.2 0-.13-.07-.2-.2-.2-.15 0-.2-.07-.2-.25 0-.14-.06-.25-.13-.25-.27 0-1.17.53-1.46.86-.33.37-.37.39-.46.24Zm1.66-1.31c.52-.14.84-.07.75.16-.04.11.02.15.19.15.19 0 .25.05.25.21 0 .11.05.17.1.14.06-.03.1-.3.1-.58 0-.78.05-.81 1.7-1.07.95-.16 1.23-.41 1.4-1.28.27-1.33.67-1.35 2.56-.11 2.74 1.78 4.2 2.33 4.73 1.8.43-.43.51-1.92.16-2.9-.47-1.34-1.46-1.92-4.04-2.37-2.09-.36-2.74-.74-2.49-1.44.06-.2.23-.34.56-.48 1.56-.65 3-2.43 3.33-4.1.16-.84.07-3.7-.16-4.76-.35-1.67-1.16-3.36-2.24-4.65-.21-.25-.71-.97-1.1-1.59-1.53-2.4-2.08-3.12-4.17-5.43-1.95-2.15-3.44-3.29-4.32-3.29-.36 0-.44.04-.52.26-.15.38-.12 2 .05 2.95.12.72 1.74 6.42 2.05 7.23.16.44.13.59-.12.53-.76-.2-.64 1.06.27 2.96.36.74.37.78.21 1.02-.38.58-.12 1.63.55 2.16.31.25.42.43.58.97.47 1.62.27 2.01-1.41 2.72-3.83 1.61-4.33 2.1-4.33 4.15.01.93.64 2.98.73 2.38.05-.31.25-.29.86.08.74.46 1.1.47 2.61.05 1.71-.48 1.81-.47 2.44.11.62.57.65.82.16 1.46-.42.55-.42.55-2.05.6-1.32.05-2.03.22-2.35.57-.17.19-.16.19.2.13l.37-.06-.16.31-.16.31.33-.19c.38-.23 1.13-.36 1.51-.26.42.1.32.39-.29.81-.58.39-.99.89-.55.65.3-.16.53-.05.45.2-.06.18-.02.17.37-.09.24-.17.64-.36.89-.42Z"/></svg>