<svg xmlns="http://www.w3.org/2000/svg" width="51" height="51" viewBox="0 0 51 51"><path fill="#fff" fill-rule="evenodd" stroke="#fff" stroke-width=".714" d="M10.2 37.1v-3.9H18V41h-7.8zm11.5 0v-3.9l3.81-.02c2.09-.02 3.87.01 3.95.05.15.08.22 7.24.08 7.61-.05.14-.5.16-3.95.16H21.7zm11.4 0v-3.9l3.92.02 3.93.03v7.7l-3.93.03-3.92.02zm-15.3 0v-3.7h-7.4v7.4h7.4zm11.5 0v-3.7h-7.4v7.4h7.4zm11.4 0v-3.7h-7.4v7.4h7.4zM10.22 25.58l.03-3.93h7.7l.03 3.93.02 3.92h-7.8zm11.5 0 .03-3.93 3.84-.03c3.01-.02 3.86.01 3.93.1.09.15.11 7.38.02 7.62-.05.14-.5.16-3.95.16H21.7zm11.4 0 .03-3.93 3.87-.03 3.88-.02.05.22c.03.13.04 1.9.03 3.93l-.03 3.7-3.93.03-3.92.02zm-15.32.03v-3.68l-.46-.07c-.6-.08-3.69-.08-5.51.01l-1.43.06v7.37h7.4zm11.5 0v-3.68l-.46-.07c-.6-.08-3.02-.08-5.22.01l-1.72.06v7.37h7.4zm11.4 0v-3.68l-.46-.07c-.61-.08-4.17-.08-5.72.01l-1.22.06v7.37h7.4zM10.22 14.08l.03-3.93h7.7l.03 3.93L18 18h-7.8zm11.5 0 .03-3.93 3.84-.03c3.01-.02 3.86.01 3.93.1.09.15.11 7.38.02 7.62-.05.14-.5.16-3.95.16H21.7zm11.4 0 .03-3.93 3.87-.03 3.88-.02.05.22c.03.13.04 1.9.03 3.93l-.03 3.7-3.93.03-3.92.02zm-15.37-.03v-3.7l-2.85-.03c-1.57-.02-3.22 0-3.67.03l-.83.07v7.38l3.68-.02 3.67-.03zm11.55 0V10.3h-3.24c-1.78 0-3.44.03-3.7.06l-.46.07v7.37h7.4zm11.38.03-.03-3.73-3.35-.03c-1.84-.02-3.5 0-3.68.03l-.32.06v7.39h7.4z"/></svg>