<svg xmlns="http://www.w3.org/2000/svg" width="51" height="51" viewBox="0 0 51 51"><path fill="#fff" fill-rule="evenodd" stroke="#fff" stroke-width=".686" d="M24.5 49.24C10.57 48.35.54 36.43 2.15 22.68c1.11-9.52 7.99-17.47 17.19-19.89 3.23-.84 7.74-1.04 10.69-.46 14.88 2.93 23.24 18.73 17.26 32.65-3.79 8.83-13.41 14.85-22.79 14.26Zm4.6-.49c3.39-.54 6.61-1.8 9.5-3.73l1.15-.77-.59-.05-.59-.06-3.78-3.84c-4.48-4.55-4.31-4.31-3.88-5.76l.21-.71-1.44-1.41-1.43-1.41-.25.17c-5.43 3.59-11.91 3.19-16.78-1.06-6.06-5.27-5.75-15.43.62-20.36 7.21-5.58 17.54-2.85 20.87 5.51 1.54 3.87 1.01 9.04-1.26 12.29-.25.36-.45.68-.45.71s.63.69 1.4 1.45l1.4 1.39.89-.22c1.44-.37 1.16-.57 5.44 3.7 3.75 3.72 3.97 3.97 3.97 4.49 0 .54-1.83 2.65-3.53 4.07-.58.49-.9.81-.81.83.57.13 3.9-3.29 5.4-5.56 4.43-6.66 5.07-15.51 1.65-22.76C42.1 5.67 31.5.48 20.45 2.77 14.69 3.96 9.38 7.59 6.07 12.6c-6.62 10.03-4.53 23.62 4.78 31.13 5.13 4.13 11.96 6.01 18.25 5.02Zm11.14-5.64c.45-.38 1.26-1.16 1.81-1.72 1.77-1.83 2-2.21 1.71-2.75-.13-.26-5.14-5.29-6.93-6.97-.83-.78-1.15-.84-2.38-.46l-.68.21-1.51-1.49c-.83-.81-1.52-1.51-1.54-1.54-.02-.04.22-.45.53-.93 3.47-5.32 2.63-12.47-1.97-16.82-7.11-6.73-19.29-3.37-21.72 5.99-1.21 4.64-.07 9.3 3.07 12.54 4.61 4.77 11.43 5.56 17 1.96l.69-.44 1.76 1.73c3.43 3.36 6.79 6.3 9.52 8.32.18.14-1.25-1.56-2-2.38-.3-.32-1.72-1.7-3.14-3.05-1.43-1.35-2.74-2.61-2.91-2.81-.39-.43-1.75-2.45-1.75-2.6 0-.27.24.01 1.03 1.18.8 1.2 1.02 1.43 3.23 3.52 4.22 3.99 6.45 6.42 6.14 6.74-.2.21-4.52-3.3-7.77-6.32l-1.12-1.04-.16.56c-.2.68-.21 1.25-.05 1.57.16.29 7.34 7.59 7.64 7.75.3.17.58.03 1.5-.75Zm.61-4.42c-.6-.61-1.91-1.88-2.9-2.82-1.58-1.5-2.11-2.08-1.77-1.96.13.05 3.83 3.54 4.95 4.67.55.55.88.96.85 1.06-.02.12-.35-.16-1.13-.95Zm-9.13-7.56c-.88-.9-1.49-1.6-1.44-1.65.09-.09 3.12 2.93 3.12 3.11 0 .22-.19.06-1.68-1.46Zm-13.26-.48c-6.15-1.16-10.02-7.06-8.51-13 2.41-9.51 15.36-10.88 19.78-2.1 3.8 7.56-2.99 16.65-11.27 15.1Zm3.9-.29c7.96-1.7 10.93-11.75 5.16-17.44-6.4-6.3-17.22-2.14-17.59 6.76-.29 6.81 5.85 12.08 12.43 10.68Z"/></svg>