<svg xmlns="http://www.w3.org/2000/svg" width="51" height="51" viewBox="0 0 51 51"><path fill="#fff" fill-rule="evenodd" stroke="#fff" stroke-width=".746" d="M6.62 45.16c-.49-.46-.49-.68.16-5.46.69-5.02 2.19-16.44 2.43-18.5.51-4.35.61-5.03.85-5.9.57-2.16 1.49-3.73 3.18-5.48 2.76-2.85 5.5-4.11 9.56-4.41 1.61-.12 11.86-.04 13.1.1 3.68.42 6.89 2.7 8.19 5.83.87 2.08.96 3.9.43 8.06-1.1 8.64-1.19 9.28-1.53 10.5-1.12 4-4.5 7.52-8.54 8.88-2.26.77-3.12.83-10.75.8-5.86-.03-6.52-.01-7.18.15-2.83.67-4.8 1.83-7.19 4.24-1.77 1.78-1.96 1.87-2.71 1.19Zm1.13.04c.08 0 .48-.41.9-.9 1.65-1.94 4.22-3.69 6.5-4.43 1.85-.6 1.99-.61 9.15-.58 7.01.03 7.45 0 9.29-.5 4.7-1.27 8.4-5.17 9.37-9.85.19-.91.24-.85-1.01-1.14-4.19-.98-9.6-1.07-14.15-.24-6.27 1.15-12.33 3.98-18.67 8.73l-1.81 1.36-.07.55c-.04.3-.22 1.65-.41 3-.36 2.6-.41 3.29-.23 3.61.12.23.67.51.87.44.08-.03.2-.05.27-.05Zm1.6-9.4c6.82-5.09 13.47-7.89 21.15-8.91 3.03-.41 8.63-.06 11.78.73.45.11.84.19.86.17.08-.08 1.46-10.92 1.46-11.43v-.33l-1.32-.27c-1.25-.24-3.23-.55-3.59-.56-.26 0-2.51 2.7-2.46 2.95.02.11.27.99.55 1.95.29.96.48 1.78.44 1.82-.05.05-.94-.29-2-.74l-1.92-.81-1.59.96c-.88.54-1.66.97-1.75.97-.13 0-.14-.25-.1-2.02l.06-2.03-1.62-1.29-1.61-1.28-.62.11c-5.57 1.06-10.94 2.81-15.92 5.19-1.94.92-1.72.73-1.84 1.57-.28 1.91-1.91 14.38-1.91 14.63 0 .08.23-.05.53-.29.28-.23.93-.72 1.42-1.09Zm22.74-14.39c.53-.33 1.25-.76 1.6-.95l.63-.36 1.76.75c.96.41 1.78.73 1.8.7.04-.04-.21-.98-.94-3.47-.03-.11.35-.63 1.12-1.53.64-.75 1.15-1.38 1.13-1.4s-.91-.11-1.98-.21l-1.93-.19-1.11-1.68c-.61-.93-1.13-1.65-1.15-1.6-.02.04-.31.84-.65 1.77l-.62 1.7-1.55.27c-.85.15-1.7.31-1.88.34-.33.06-.33.06 1.23 1.31.86.69 1.58 1.31 1.61 1.37.02.07.01.94-.03 1.95-.05 1-.06 1.82-.04 1.82s.47-.27 1-.59ZM10.51 21c5.04-2.54 10.8-4.37 17.84-5.7 1.21-.22 2.43-.46 2.72-.51l.51-.1.62-1.74c.35-.96.69-1.8.76-1.86.11-.09 2.2 2.85 2.36 3.32.02.06.75.17 1.63.25 3.31.3 6.28.74 7.49 1.11.18.05.19 0 .13-1.08-.25-5.04-4.03-8.64-9.42-8.97-2.71-.17-12.99-.09-14.1.11-4.64.84-8.63 4.01-10.29 8.15-.52 1.29-.73 2.31-1.01 4.82-.14 1.24-.27 2.35-.3 2.48-.07.29-.1.3 1.06-.28Z"/></svg>