<svg xmlns="http://www.w3.org/2000/svg" width="51" height="51" viewBox="0 0 51 51"><path fill="#fff" fill-rule="evenodd" stroke="#fff" stroke-width=".453" d="M9.6 36.05V29l.24-.06c.7-.17 6.31.02 6.9.24 4.4 1.63 4.36 7.82-.07 9.4-.65.23-.9.26-2.55.3l-1.82.04v1.93c0 1.06-.03 2-.06 2.09-.05.13-.27.16-1.35.16H9.6zm10 6.92c0-.15.16-.58 4.43-12.07l.72-1.95h2.09l.24.6c.6 1.48 4.82 13.17 4.82 13.35 0 .19-.06.2-1.34.2-1.54 0-1.42.07-1.8-1.05-.15-.44-.34-.99-.43-1.22l-.16-.43h-4.75l-.16.43c-.09.23-.3.83-.49 1.32l-.33.9-1.42.03c-1.13.02-1.42 0-1.42-.11Zm15.47.07c-.04-.04-.07-1.03-.07-2.21V38.7L32.59 34c-1.32-2.59-2.39-4.78-2.37-4.88.03-.15.19-.17 1.48-.17h1.45l.42.8c.23.44.97 1.96 1.65 3.37l1.23 2.57 1.7-3.37 1.7-3.37 1.48-.03c1.35-.02 1.47-.01 1.47.15 0 .19-3.77 7.67-4.5 8.93l-.44.75-.05 2.15-.06 2.15-1.31.03c-.71.01-1.33-.01-1.37-.04Zm-23.05-2.31.03-2.08 1.95-.06c2.38-.08 2.87-.21 4.06-1.09 2.09-1.57 2.23-5.18.25-7.03-1.19-1.11-1.88-1.27-5.53-1.27H9.9v5.98c0 3.28-.03 6.34-.07 6.8l-.06.82H12zm10.72.72.49-1.35h5.15l.44 1.33.45 1.32 1.18.03c1.09.02 1.17.01 1.12-.15-.11-.4-4.57-12.56-4.76-12.98l-.2-.45h-1.66l-.22.58c-.12.31-.83 2.24-1.59 4.27-1.73 4.69-3.1 8.35-3.19 8.57-.07.17.02.18 1.12.18h1.19zm14.8.58c.03-.42.06-1.34.06-2.04V38.7l.5-.89c.38-.7 4.24-8.21 4.38-8.53.02-.04-.53-.08-1.22-.08h-1.25l-1.71 3.45c-.94 1.9-1.76 3.45-1.83 3.45s-.86-1.54-1.77-3.42l-1.65-3.43-1.28-.03c-.7-.01-1.27 0-1.27.04 0 .03.44.92.99 1.97.54 1.06 1.62 3.17 2.4 4.69l1.41 2.76v4.12h2.17zm-13.6-3.86c-.03-.08.01-.27.07-.43.07-.16.47-1.28.89-2.49.59-1.66.82-2.2.94-2.2.16 0 1.86 4.7 1.86 5.12 0 .19-3.68.19-3.76 0Zm3.43-.29c-.11-.32-1.27-3.68-1.39-4.08l-.15-.45-.43 1.3c-.37 1.13-.91 2.62-1.15 3.18-.07.16.04.17 1.55.17 1.26 0 1.61-.03 1.57-.12Zm-15.3-1.5c-.09-.3-.09-4.46-.01-4.87l.06-.31h1.52c1.96 0 2.41.12 3.12.84 1.29 1.28 1 3.4-.58 4.23-.51.27-.59.28-2.29.31l-1.76.04zm3.54-.19c1.09-.28 1.78-1.34 1.66-2.55-.17-1.65-1.64-2.41-4.21-2.18l-.76.07v2.37c0 1.3.02 2.39.04 2.41.08.08 2.91-.02 3.27-.12ZM.1 25.54c0-.19 50.35-.13 50.54.06.07.07-8.66.1-25.22.1C2.25 25.7.1 25.69.1 25.54Zm9.78-2.94c-1.29-.22-2.21-.79-2.72-1.7-.96-1.71.07-5.44 2.26-8.15 2.29-2.86 6.06-4.24 11.57-4.25h1.63l-.04.28c-.05.27-.67 2.59-2.14 8.03-.95 3.52-.95 3.87.02 3.6 1.64-.45 2.76-2.09 3.59-5.26 1.09-4.16 1.71-5.32 3.31-6.13.94-.47 2.65-.73 2.72-.41.02.14-1.26 5.09-2.43 9.33-.44 1.62-.46 2.16-.07 2.46.63.5 2.4-.09 3.51-1.18 1.15-1.13 1.56-2 2.27-4.83.7-2.82 1.02-3.55 1.97-4.53.84-.85 2.06-1.36 3.29-1.36.7 0 .68-.15.17 1.79-.85 3.29-1.13 4.33-1.75 6.56-.75 2.66-.84 3.23-.59 3.48.72.73 2.82-1.26 5.91-5.6l1.16-1.63h.98c1.38 0 1.38.02.38 1.41-4.45 6.22-6.44 7.98-9.08 8.02-1.48.02-2.74-.7-3.09-1.76l-.13-.38-.59.55c-2.53 2.34-7.03 2.29-8.24-.11l-.22-.42c-.01-.02-.3.22-.64.53-2.28 2.12-5.61 2.12-6.64.01l-.27-.55-.62.56c-1.45 1.3-3.61 1.95-5.48 1.64Zm2.82-.46c.92-.27 1.87-.84 2.66-1.57l.74-.69.1.29c.54 1.5 1.36 2.06 3 2.05 1.36 0 2.76-.65 3.87-1.8l.52-.54.3.59c1.32 2.6 5.87 2.56 8.24-.07.53-.59.59-.58.77.05.32 1.13 1.38 1.8 2.85 1.79 2.53-.02 4.28-1.53 8.55-7.4l1.01-1.39-.68-.03c-.95-.04-1.02 0-1.53.75-2.6 3.87-5.14 6.53-6.27 6.56-.97.03-.99-.65-.1-3.83.54-1.89 1.8-6.66 2.1-7.91.07-.26.06-.26-.41-.22-2.66.26-3.73 1.51-4.76 5.55-.65 2.56-.97 3.38-1.69 4.33-1.72 2.27-4.74 3.02-4.94 1.23-.06-.51-.12-.25 1.56-6.53.67-2.47 1.21-4.53 1.21-4.57 0-.27-2.07.29-2.74.73-1.26.84-1.75 1.86-2.8 5.89-.88 3.35-2.39 5.3-4.1 5.3-.94 0-.95-.44-.12-3.47.3-1.09.82-3.04 1.16-4.33s.72-2.73.86-3.19c.13-.47.21-.87.18-.9-.19-.2-3.69.02-5.64.35-4.8.81-7.88 3.54-9.26 8.21-.79 2.68.05 4.44 2.38 4.93.61.13 2.33.04 2.98-.16Zm-1.56-1.35c-.84-.25-.9-1.43-.19-3.55q1.56-4.665 5.1-6.42c.9-.44 1.91-.79 2.02-.69.16.16-1.57 6.5-2.02 7.42-1.07 2.16-3.4 3.7-4.91 3.24Zm1.31-.34c1.23-.32 2.59-1.53 3.29-2.93.43-.86.52-1.17 1.31-4.22.36-1.4.68-2.63.71-2.73.13-.41-2.07.63-3.15 1.5-1.77 1.4-3.37 4.26-3.8 6.77-.27 1.58.15 1.99 1.64 1.61Z"/></svg>