<svg xmlns="http://www.w3.org/2000/svg" width="51" height="51" viewBox="0 0 51 51"><path fill="#fff" fill-rule="evenodd" stroke="#fff" stroke-width=".383" d="M8.45 51.13c-4.64-1.04-8.5-5.28-8.44-9.27l.02-.81.08.7C.73 46.57 4.28 50.23 9.1 51c.41.06.82.13.9.15.08.01-.19.03-.6.03s-.84-.02-.95-.05Zm33.29-.08c5.26-.86 8.75-4.46 9.35-9.65l.08-.75.02.81c.07 4.64-4.64 9.53-9.34 9.7l-1 .04zM8.97 49.84a9.49 9.49 0 0 1-7.49-6.79l-.23-.8-.03-15.8c-.02-11.1 0-16.13.08-16.9a9.246 9.246 0 0 1 8-8.25c1.59-.2 32.7-.09 33.49.13 3.59.98 6.23 3.72 6.96 7.21.23 1.13.23 32.86 0 33.96-.79 3.75-3.66 6.5-7.58 7.25-1.14.22-31.99.21-33.2-.01Zm33.84-.35c3.93-1.09 6.61-4.26 6.86-8.11l.06-.98H1.39l.06.78c.36 4.51 3.59 7.92 8.07 8.51.35.05 7.76.08 16.48.07l15.85-.01zm-24.94-1.55c-.04-.04-.07-.74-.07-1.56 0-.81-.01-1.48-.02-1.48-.02 0-.47.22-1.01.49-1.11.56-1.13.56-1.45.01l-.22-.4.92-.46c1.21-.6 2.49-1.49 3.18-2.18.64-.66.66-.66 1.11-.2l.34.35-.55.52c-.3.29-.7.64-.87.79l-.33.26-.02 1.94-.03 1.93-.45.03c-.25.02-.49 0-.53-.04Zm5.64-.38c-.2-.31-.21-.48-.21-2.85V42.2h1.1v2.15c0 1.41.04 2.15.1 2.15.4 0 2.09-1.11 2.8-1.84.56-.58.68-.56 1.11.17.29.51-2.27 2.42-3.9 2.91-.73.22-.76.21-1-.18Zm14.07-.1c-.2-.53-.22-.51.78-.77 1.53-.4 2.64-1.19 3.46-2.46.47-.72.45-.71.99-.38l.4.26-.28.51c-.87 1.61-2.93 3.04-4.66 3.24l-.52.06zm-26.45-.2c-.23-.29-.77-.9-1.19-1.35l-.77-.82.28-.29c.38-.4.51-.38 1.02.12l.43.42.75-.74.76-.75-2.13-.05-2.13-.05v-1l2.63-.03 2.64-.02.29.31c.16.17.29.37.29.45 0 .13-1.98 2.46-2.21 2.6-.06.03.06.25.26.49.43.53.43.45-.01.89-.45.45-.41.46-.91-.18Zm7.47-1.3c0-2.09-.07-1.89.91-2.71l.8-.68-.22-.23-.21-.23-.75.65c-.93.81-1.95 1.49-2.95 1.94-.87.39-.84.36-.6.68l.19.24 1.11-.56c.61-.31 1.13-.52 1.16-.47s.04.77.03 1.6l-.03 1.51h.56zm20.2 1.53c1.53-.42 2.72-1.25 3.61-2.53l.5-.7-.23-.18c-.32-.24-.28-.27-.86.57-.9 1.3-2.02 1.99-3.84 2.39-.25.06-.26.08-.16.36.12.36.05.35.98.09Zm-14.05-.09c1.69-.58 3.65-2.18 3.29-2.68l-.16-.23-.59.53c-.97.85-2.63 1.88-3.03 1.88-.03 0-.06-1.01-.06-2.25V42.4h-.7v2.3c0 3.05.03 3.12 1.25 2.7Zm-12.72-.44c-.03-.06-.19-.28-.36-.48l-.29-.38 1.05-1.11c1.88-2 1.88-1.99-1.55-1.99H8.4v.6h4.53l-.75.82c-.41.45-.87.91-1.02 1.02l-.26.2-.43-.42c-.46-.45-.67-.51-.87-.26-.11.13-.04.25.52.82.35.37.84.91 1.08 1.2l.43.53.23-.22c.13-.12.21-.27.17-.33Zm17.77-2.01v-.55h5.9l.06.24c.03.13.04.37.02.52l-.03.29-2.98.03-2.97.02zm8.37.09-.87-.44.2-.4c.28-.54.28-.54 1.29-.08.98.45 1.03.51.7 1.04-.25.42-.24.42-1.32-.12Zm-2.67-.14v-.3H30v.6h5.5zm3.8.11c.15-.29.15-.28-.47-.6-.88-.44-.98-.45-1.11-.17-.1.23-.08.26.61.59.86.42.84.42.97.18Zm-.05-1.35c-.22-.13-.62-.35-.88-.5l-.48-.27.23-.4c.26-.47.28-.47 1.43.06.83.37.84.4.53.96-.25.45-.3.46-.83.15Zm.64-.32c.14-.32.2-.26-.59-.63-.76-.36-.86-.37-1-.12-.09.17-.01.24.63.59.87.49.81.48.96.16Zm1.72-.66c-.33-.64-.32-.73.09-.83.36-.09 1.02 1.11.73 1.32-.32.24-.49.14-.82-.49Zm.8-.25c-.33-.71-.32-.76.17-.89.13-.04.27-.03.31.02.09.1.51 1.13.51 1.24 0 .06-.52.3-.66.3-.01 0-.16-.3-.33-.67Zm5.97-2.31c.1-.07.12-3.04.1-15.13l-.03-15.04-.23-.8c-.99-3.5-3.7-5.89-7.22-6.35-.6-.08-5.36-.1-16-.08l-15.15.03-.8.23c-3.32.94-5.72 3.6-6.25 6.92-.06.42-.1 5.84-.1 15.48V40.2h22.78c12.52 0 22.83-.04 22.9-.08ZM2.52 24.83l.03-15.28.23-.75c.96-3.09 3.53-5.49 6.55-6.11.95-.19 1.36-.19 16.6-.17l15.62.03.88.28c2.54.79 4.33 2.37 5.49 4.83.82 1.77.78.68.78 17.52V40.1h1l-.02-15.52-.03-15.53-.23-.8c-1.09-3.83-4.09-6.37-7.99-6.75-1.36-.13-30.61-.13-31.78 0-3.69.42-6.57 2.75-7.78 6.3l-.32.95-.02 6.45c-.02 3.55-.04 10.6-.05 15.68l-.03 9.22H2.5zm14.5 11.87a.67.67 0 0 1-.31-.33c-.15-.39-1.41-11.24-1.41-12.14 0-1.07 1.21-1.28 1.5-.25.09.32.89 6.05.91 6.5.02.54.22-.53.54-2.83.61-4.49.57-4.35 1.29-4.35.89 0 .79-.33 1.51 4.95.14 1.05.3 2.01.34 2.15.09.27.04.53.66-4 .41-3.04.53-3.28 1.41-3.06.65.17.65.2-.37 7.96-.77 5.85-.7 5.66-2.05 5.45-.64-.09-.67-.2-1.1-3.02-.21-1.39-.39-2.51-.4-2.5s-.19 1.11-.39 2.45c-.39 2.63-.45 2.84-.82 3.01-.28.13-.99.13-1.31.01Zm8.34-.11-.26-.2v-6.4c0-6.26 0-6.39.2-6.59.26-.26 4.1-.3 4.44-.05.24.18.36.99.26 1.74-.11.85-.23.91-1.91.91H26.7v2.68l.96.04c1.22.04 1.34.15 1.34 1.23 0 .99-.08 1.05-1.33 1.05h-.97v3h1.4c1.83 0 1.9.05 1.9 1.35 0 1.41-.06 1.45-2.6 1.45-1.64 0-1.79-.02-2.04-.21Zm6.36-.04c-.28-.36-.35-12.73-.08-13.11.31-.42 3.15-.27 4.05.21.88.48.96.71.99 2.81.04 2.11-.03 2.49-.57 3.07l-.38.4.38.38c.52.52.59.87.59 2.99-.01 3.04-.34 3.4-3.21 3.48l-1.56.04zm2.63-.04c1.87-.18 2.1-.53 2.1-3.25 0-2.24-.04-2.4-.7-2.93-.44-.35-.44-.34.09-.87.58-.58.69-1.1.65-3.1-.06-2.48-.51-2.86-3.35-2.86-1.21 0-1.25.01-1.33.23-.08.2-.08 1.88-.02 10.5.01 2.64-.1 2.54 2.56 2.28Zm-15.95-.16c.07-.08.3-1.33.52-2.78.4-2.63.45-2.84.7-2.74.14.05.18.23.73 3.89.26 1.72.29 1.78 1.01 1.78.62 0 .79-.13.87-.67.08-.51 1.01-7.56 1.26-9.64.31-2.44.24-2.82-.43-2.65-.39.1-.41.2-.85 3.56-.48 3.67-.48 3.67-.66 3.74-.32.12-.42-.24-.74-2.56-.67-4.92-.64-4.78-1.21-4.78-.44 0-.56.21-.69 1.22-.75 5.68-.9 6.38-1.25 6.09-.18-.15-.17-.11-.51-2.66-.66-4.94-.62-4.8-1.33-4.54-.36.14-.35.4.18 5.1.73 6.5.86 7.47 1 7.64.17.21 1.23.21 1.4 0Zm11.26-.1c.16-.25.18-1.64.02-1.81-.14-.14-.96-.23-2.06-.24H26.5v-3.4h.98c1.23 0 1.27-.03 1.27-.83 0-.9-.07-.96-1.23-.99l-.97-.03-.03-1.56c-.03-1.86-.21-1.69 1.76-1.69h1.32l.1-.26c.14-.36.13-1.67-.02-1.82-.17-.17-4.09-.17-4.26 0s-.17 12.59 0 12.76c.09.09.69.12 2.1.12h1.98zm3.42-2.11c-.05-.04-.08-.76-.08-1.61V31h.65c1.28 0 1.65.34 1.65 1.52 0 .95-.1 1.22-.52 1.44-.35.18-1.58.31-1.7.18Zm1.23-.29c.59-.09.74-.34.74-1.27 0-.98-.2-1.22-1.11-1.34-.71-.08-.69-.11-.73 1.36-.03 1.37-.01 1.42.42 1.36.18-.03.48-.08.68-.11Zm-1.24-5.02c-.13-.12-.08-2.91.05-2.99.39-.24 1.78.03 2.03.39.2.29.2 1.67 0 2.06-.23.45-1.77.85-2.08.54Zm1.61-.39c.3-.2.42-.53.42-1.2 0-.9-.37-1.24-1.35-1.24h-.45v2.73l.57-.07c.32-.04.68-.14.81-.22ZM11.1 21.45c-.61-.19-1.1-.62-1.45-1.26l-.3-.54-.03-4.64c-.03-5.25-.02-5.34.7-6.15 1.17-1.34 3.14-1.13 4.06.43.27.46.27.47.27 2.36v1.9l-.68.03c-.91.04-.97-.02-.97-.93 0-1.06-.75-1.54-1.44-.92l-.25.22-.03 2.72c-.03 3.01 0 3.17.66 3.34.72.19 1.06-.19 1.06-1.2 0-1.02-.01-1.01.92-1.01h.79l-.03 1.93c-.03 1.67-.06 1.97-.23 2.32-.57 1.16-1.9 1.77-3.05 1.4Zm6.79.06c-.79-.26-1.51-.94-1.79-1.69-.27-.71-.31-9.11-.05-9.99.77-2.59 4.59-2.36 5.15.31.19.93.09 9.31-.12 9.77-.54 1.2-2.07 1.97-3.19 1.6Zm6.91 0c-.78-.16-1.53-.81-1.92-1.66-.33-.74-.32-9.45.02-10.22.95-2.16 3.77-2.22 4.71-.1.2.46.23.72.27 2.24l.04 1.72-.24.06c-.13.03-.51.05-.83.03l-.6-.03-.06-.79c-.08-1.18-.82-1.66-1.56-1.02l-.28.24v2.75c0 3.02.01 3.04.64 3.28.74.29 1.21-.26 1.21-1.38v-.83h.79c.96 0 .91-.08.91 1.59 0 1.95-.2 2.7-.88 3.39-.58.57-1.49.87-2.22.73Zm6.4-.06c-.62-.19-1.24-.75-1.53-1.38l-.25-.52-.05-4.1c-.07-5.45-.02-5.85.8-6.71 1.37-1.4 3.8-.76 4.33 1.14.19.68.13 9.39-.06 9.97-.45 1.3-1.89 2.01-3.24 1.6Zm7.96.01c-.62-.23-1.09-.67-1.43-1.36l-.33-.63v-3.68l.87.03.88.03.03.85c.04 1.13.42 1.55 1.18 1.3 1.24-.41.79-1.72-.93-2.71-1.64-.94-2.02-1.62-2.03-3.55 0-2.63.8-3.74 2.7-3.74 1.77.01 2.53 1.21 2.48 3.96l-.03 1.59h-1.5l-.06-.75c-.08-1.15-.49-1.56-1.27-1.29-1.04.36-.59 1.54.9 2.33 1.79.96 1.98 1.31 1.98 3.71 0 1.94-.11 2.47-.6 3.08-.68.81-1.91 1.17-2.84.83Zm-26.41-.35c1.12-.51 1.47-1.36 1.43-3.52l-.03-1.54-.57-.03-.58-.03v.82c0 1.42-1.01 2.01-1.91 1.1l-.39-.39v-2.71c0-3.06.03-3.21.67-3.48.88-.36 1.63.24 1.63 1.32v.65h1.2v-1.48c0-2.09-.23-2.74-1.15-3.28-1.25-.73-2.72-.19-3.3 1.19-.26.63-.23 9.61.03 10.2.52 1.15 1.87 1.69 2.97 1.18Zm6.78.06c.52-.22.98-.68 1.23-1.22l.24-.5v-4.59c0-5.23.01-5.16-.75-5.92-1.4-1.41-3.69-.67-4.03 1.31-.18 1.04-.09 9.16.1 9.57.58 1.23 2.03 1.84 3.21 1.35Zm6.38.03c1.22-.34 1.63-1.18 1.67-3.43l.04-1.78-.59.03-.58.03-.03.82c-.04 1.22-.78 1.77-1.72 1.28-.57-.29-.6-.48-.6-3.4 0-3.18.09-3.48 1.09-3.48.82 0 1.21.46 1.21 1.43v.6h1.2v-1.54c0-1.12-.04-1.65-.15-1.97-.76-2.15-3.74-2.07-4.39.12-.23.76-.24 8.9-.01 9.65.37 1.26 1.63 1.98 2.86 1.64Zm7.34-.25c.33-.21.57-.47.79-.85l.31-.55v-4.7c0-5.36.01-5.32-.8-6.03-1.18-1.04-2.92-.7-3.68.72-.34.64-.35 9.77-.01 10.41.7 1.3 2.2 1.74 3.39 1Zm7.95.03c.89-.54 1.11-1.08 1.17-2.95.09-2.52-.13-3.01-1.76-3.91-1.72-.95-2.19-1.97-1.23-2.72.81-.64 1.82.04 1.82 1.22v.68h1.23l-.06-1.62c-.09-2.25-.51-3.06-1.77-3.39-1.72-.45-2.89.74-2.98 3.05-.08 2.09.25 2.74 1.88 3.71 1.76 1.04 2.22 1.97 1.42 2.86-.85.95-2.02.26-2.02-1.18V16h-1.32l.04 1.73c.03 1.48.06 1.78.24 2.17.62 1.33 2.11 1.81 3.34 1.08Zm-23.46-3.02-.34-.34V12l.33-.37a1.19 1.19 0 0 1 1.94.28c.2.38.18 5.4-.02 5.79-.35.68-1.35.82-1.91.26Zm13.38 0-.37-.34v-2.8c0-2.69.01-2.82.21-3.09.48-.65 1.67-.62 2.07.06.25.43.26 5.58.01 5.97-.42.64-1.33.73-1.92.2Zm-11.83-.21.26-.25.03-2.33c.04-2.67 0-3.1-.33-3.43-.43-.43-1.21-.3-1.5.26-.21.4-.22 5.22-.01 5.59.31.56 1.08.64 1.55.16Zm13.44-.05.28-.31-.03-2.71-.03-2.7-.28-.24c-.39-.33-.95-.33-1.36.02l-.31.26v2.7c0 1.65.04 2.77.1 2.88.3.57 1.16.62 1.63.1Zm2.75-7.18c-.03-.71-.1-1-.32-1.46-.15-.31-.26-.58-.25-.6.02-.01.27-.19.55-.39.64-.46.65-.46 1.08.05.6.69.38 1.87-.54 2.91-.44.51-.47.49-.52-.51Zm15.63.28C50.99 5.11 47.03.69 41.53.11l-.78-.08.88-.02c3.83-.05 8.03 3.38 9.27 7.59.21.74.4 3.07.27 3.55-.02.11-.05-.05-.06-.35ZM.04 9.55C.11 4.72 4.84-.05 9.49.01l.76.01-.89.14C3.85 1.01.53 4.7.06 10.5c-.02.25-.03-.18-.02-.95Zm36.57-.12c.14-.51.07-.82-.27-1.22l-.26-.31-.26.2c-.69.51-.66.44-.43.89.12.22.26.75.32 1.17l.12.76.33-.53c.18-.3.38-.73.45-.96Z"/></svg>