<svg xmlns="http://www.w3.org/2000/svg" width="51" height="51" viewBox="0 0 51 51"><path fill="#fff" fill-rule="evenodd" stroke="#fff" stroke-width=".419" d="M4.16 38.96c-.33-.44-.35-.39.28-.75.75-.43 1.56-1.39 1.56-1.86 0-.03-.43-.05-.95-.05H4.1v1H3.09l.03-.97.03-.98.68-.03.67-.03v-.79h1.1v.9h.73c1.01 0 1.05.05.83.77-.44 1.39-1.08 2.31-2 2.83-.64.37-.68.37-1-.04Zm9.02.13c-.44-.23-.44-.23-.18-.56.31-.39.5-1.17.57-2.3l.06-1.03h.31c.75 0 .78.04.71.89-.1 1.24-.25 1.91-.55 2.58-.31.69-.37.72-.92.42Zm10.83-.05c-.39-.33-.39-.38.06-.77.38-.33.93-1.36.93-1.74 0-.53.65-.77 1.04-.38.13.14.16.13.31-.07l.15-.23-1.42-.05-1.43-.05v-1l2 .01c2.86 0 2.83-.01 2.07 1.15-.72 1.09-.82 1.17-1.26.91-.39-.23-.38-.24-.56.33-.21.67-.5 1.15-.97 1.66-.53.57-.52.57-.92.23Zm5.26-.02c-.33-.35-.34-.46-.02-.6.58-.27 1.75-1.59 1.75-1.99 0-.37-.84-.14-1.35.37-.56.57-.66.59-1.11.25l-.33-.25.42-.43c.23-.23.61-.73.83-1.12l.41-.7.43.03c.59.04.75.18.56.47-.14.22-.13.23.16.29.58.12.62.09.35-.28l-.26-.33.23-.22c.2-.19.27-.2.5-.1.22.11.29.1.43-.04.18-.18.93.29.93.58 0 .25-.52.5-.65.31-.11-.14-.14-.14-.29.03-.17.18-.16.2.03.26.76.24-1.69 3.75-2.61 3.75-.08 0-.26-.13-.41-.28Zm4.33.07c-.19-.12-.37-.23-.39-.25-.01-.01.08-.27.22-.57.29-.6.47-1.52.47-2.39 0-.67.03-.7.61-.6l.44.07-.04.85c-.04 1.14-.16 1.73-.51 2.47-.33.71-.32.71-.8.42Zm-14.54-.31c-.26-.43-.22-.68.11-.68.54 0 1.94-1.05 2.58-1.94l.46-.65.35.21c.2.12.38.27.41.34.13.36-1.64 2.19-2.62 2.7-.97.51-1 .51-1.29.02Zm25.66.12c-.31-.41-.29-.45.39-.81.65-.35 1.16-.87 1.49-1.53l.2-.41-1.41-.03-1.4-.03.03-.47.03-.47 1.73-.03 1.72-.02v-.25c0-.46.35-.64.85-.45.35.13.34.89-.02 1.05-.12.05-.24.22-.27.39-.22 1.09-1.36 2.6-2.34 3.1-.65.33-.73.33-1-.04Zm-29.4-.03c-.22-.23-.22-.3-.2-2.23l.03-1.99.54-.03.54-.03-.05 1.57-.06 1.58.29-.35c.15-.18.38-.55.5-.81.24-.52.36-.57.8-.31.37.22.37.37-.07 1.09-.82 1.36-1.84 2.02-2.32 1.51Zm15.11-.29c.6-.48 1.77-2.27 1.77-2.72 0-.19-.31-.26-1.17-.26-.81 0-.81 0-.53-.4.22-.31.18-.4-.22-.4-.23 0-.33.09-.58.54-.17.3-.49.75-.71.99l-.39.46.22.16c.22.16.24.15.68-.34l.45-.51h1.38l-.07.31c-.13.65-1.05 1.74-1.84 2.18-.15.09-.15.11.02.3.21.23.34.19.99-.31Zm5.18.28c-.22-.23-.23-.3-.21-2.17.01-2.15 0-2.13.61-2.04l.44.07-.04 1.45c-.04 1.67-.03 1.68.65.63l.44-.68.4.21c.48.27.48.22.06.95-.42.7-1.06 1.36-1.58 1.63-.47.24-.5.24-.77-.05Zm-30.6-.06c.83-.43 1.89-1.98 1.93-2.83l.01-.32-.84-.03-.83-.03.07-.44c.06-.45.06-.45-.23-.45-.28 0-.3.03-.36.45l-.07.45H3.3v.75c0 .73.01.75.25.75.23 0 .25-.03.25-.5v-.5h1.19c.68 0 1.22.04 1.26.1.21.34-.76 1.69-1.52 2.12-.52.29-.53.31-.37.49.21.23.16.23.65-.01Zm8.88-.23c.24-.56.39-1.27.47-2.26l.07-.81h-.63v.58c0 .84-.17 1.7-.43 2.23-.2.41-.21.48-.07.57.27.19.4.13.59-.31Zm10.96.01c.6-.7 1.18-2.14.93-2.3-.32-.2-.44-.08-.66.65-.16.57-.32.86-.68 1.26-.38.42-.44.54-.34.66.2.24.36.18.75-.27Zm9.42-.19c.25-.63.43-1.6.43-2.37 0-.51 0-.52-.3-.52h-.3v.73c0 .79-.2 1.73-.47 2.18-.16.27-.16.29.02.44.29.21.38.15.62-.46Zm12.36-.49c.47-.51 1.08-1.62 1.22-2.21.09-.35-.14-.39-2.06-.39H44.3v.6h1.34c.74 0 1.37.04 1.4.08.2.33-.95 1.84-1.73 2.29-.25.15-.48.28-.5.3-.02.01.04.12.14.23.24.27.95-.11 1.68-.9Zm-26.48.69c1.12-.55 2.72-2.21 2.45-2.54-.18-.22-.36-.18-.56.12-.53.82-1.6 1.71-2.44 2.03-.49.18-.52.23-.34.48.19.27.15.28.89-.09Zm-12.11.07c-.03-.08-.04-.29-.02-.48l.03-.33.83-.03.82-.03v-1.58l-.62-.03-.63-.03-.03-.47-.03-.48h3.72l-.03.48-.03.47-.62.03-.63.03v1.58l.88.03.87.03v.9l-2.23.03c-1.85.02-2.23 0-2.28-.12Zm8.04 0c.84-.44 1.89-2.03 1.46-2.2-.24-.09-.34-.07-.34.07 0 .21-.68 1.14-1 1.37l-.31.22.03-1.61.03-1.61h-.54l-.03 1.78c-.04 2.12.04 2.33.7 1.98Zm20.48-.15c.75-.54 1.59-1.75 1.33-1.92-.24-.15-.38-.1-.55.22-.18.36-.92 1.19-1.05 1.19-.05 0-.09-.7-.09-1.55V34.9h-.48l-.04 1.83c-.05 2.23.03 2.4.88 1.78ZM12.3 38.3V38h-1.7v-2.1h.65c.63 0 .65-.01.65-.25v-.25H8.6v.25c0 .24.02.25.64.25h.63l.06.43c.03.23.04.56.03.72-.02.16-.04.45-.04.63L9.9 38h-.8c-.78 0-.8 0-.8.25v.25l1.88.03c1.03.01 1.93.03 2 .05.07.01.12-.09.12-.28Zm6.63-1.27c-.35-.15-.63-.32-.63-.39 0-.14.39-.84.46-.84.05 0 1.27.6 1.32.65.06.05-.38.85-.46.84-.04 0-.35-.12-.69-.26Zm19.69-.2.03-.48 2.23-.03 2.22-.02v1h-4.51zm4.28-.03v-.3h-4v.6h4zm-23.2-.01c.07-.11.1-.22.08-.23l-.5-.23-.46-.22-.15.22c-.14.21-.13.23.32.44.58.27.58.27.71.02Zm7.51-.56c.94-1.28 1.01-1.23-1.48-1.23H23.8v.5h1.49c1.67 0 1.71.02 1.35.56-.25.36-.25.39-.08.51.25.18.26.18.65-.34Zm-7.66-.49c-.33-.15-.61-.27-.63-.29-.02-.01.07-.19.19-.39.24-.42.42-.42 1.27-.05.46.19.46.2.1.72-.23.32-.18.32-.93.01Zm.8-.24c.19-.21.1-.28-.62-.46-.52-.14-.61.27-.11.47.56.22.52.22.73-.01Zm11.75-.35c.07-.09.11-.17.09-.18-.62-.44-.93-.42-.57.03.27.34.31.35.48.15Zm16.28-.27c.03-.25 0-.28-.27-.28-.2 0-.31.05-.31.14 0 .08-.03.22-.06.31-.06.14-.01.16.27.13.29-.02.34-.07.37-.3Zm-38.4-3.99C1.95 29.71-.04 20.19 6.99 16.56c2.03-1.05 2.21-1.06 13.53-1.06H30v-.58c0-2.26 1.72-4.33 3.98-4.81 3.07-.65 6.02 1.83 6.02 5.05v.41l1.03.06c2.22.11 3.84.85 5.47 2.47 4.54 4.51 1.85 11.6-4.84 12.75-.99.17-30.53.21-31.68.04Zm32.5-.77c3.59-1.11 5.67-3.65 5.66-6.92 0-3.92-3.19-6.87-7.64-7.05l-1.15-.05.03-.83c.1-2.78-1.91-4.78-4.67-4.65-2.49.12-4.42 2.37-4.15 4.85l.06.63h-9.9c-10.61 0-10.85.01-12.37.51-6.51 2.16-6.87 10.47-.57 13.1 1.74.72.66.68 18.22.66l15.75-.02zm-32.36-.23c-6.6-.87-8.78-8.5-3.43-12.03 2.05-1.35 1.47-1.3 13.67-1.33l10.42-.04.31.56c1.7 3.01 5.87 3.09 7.66.16.4-.67.47-.71 1.18-.71 4.49.01 7.78 2.87 7.79 6.75.01 3.02-2.13 5.55-5.47 6.48l-.8.22-15.35.01c-8.44.01-15.63-.02-15.98-.07Zm31.66-.34c5.37-1.12 7.52-6.69 4.05-10.46-1.34-1.45-3.06-2.18-5.28-2.26l-1.3-.05-.3.52c-1.76 3.03-6.07 3.08-7.91.1l-.35-.57-1.57-.07c-2.09-.09-14.93-.06-17.46.04-2.25.09-3 .25-4.16.86-5.64 2.97-4.36 10.48 2.02 11.88.97.21 31.26.22 32.26.01ZM19.01 27.5c-1.53-.33-2.37-1.44-2.48-3.3-.15-2.44 1.12-3.9 3.41-3.9 2.11 0 3.26 1.27 3.26 3.6v.6h-4.33l.06.4c.14 1.09 1.38 1.43 1.75.49l.15-.39h1.14c1.28 0 1.32.03.98.84-.54 1.28-2.27 2.01-3.94 1.66Zm9.96-.04c-2.92-.63-3.28-5.49-.52-6.86.78-.39 2.46-.37 3.29.04.82.4 1.43 1.3 1.45 2.14l.01.32h-2.38l-.07-.37c-.19-1.02-1.18-1.02-1.46 0-.15.57-.06 2.34.14 2.74.39.74 1.1.44 1.32-.54l.07-.33h2.38v.25c0 1.83-2.03 3.08-4.23 2.61Zm9.35.05c-1.35-.35-2.03-1.96-1.37-3.28.45-.89 1.25-1.28 2.91-1.39l.94-.07v-.31c0-.5-.24-.76-.7-.76-.41 0-.6.18-.6.59 0 .3-.11.32-1.25.25-1.22-.08-1.26-.12-1-.8.66-1.74 4.09-2.12 5.43-.59.45.51.47.63.47 3.55v2.65h-2.3l-.05-.29c-.05-.27-.06-.28-.19-.12-.38.46-1.56.75-2.29.57Zm-29.05-.18c-.07-.13-1.96-6.36-1.99-6.58-.03-.19.03-.2.99-.23l1.02-.03.14.48c.08.26.32 1.13.53 1.93l.39 1.45.46-1.9.45-1.9.62-.03c.6-.03.62-.02.68.25.85 3.33.92 3.57.99 3.28.04-.16.28-1.02.54-1.9l.46-1.6h2l-.01.25c-.01.29-2 6.4-2.12 6.52-.05.05-.51.07-1.03.06l-.94-.03-.27-1c-.14-.55-.27-1.02-.28-1.05 0-.03-.13.42-.28 1l-.27 1.05-1.02.03c-.56.01-1.03-.01-1.06-.05Zm14.51-2.9c-.05-2.46-.04-5.56.01-6.11.01-.1.28-.12 1.14-.1l1.12.03v9.1l-1.11.03-1.11.03zm10.07 2.85c-.03-.07-.04-1.62-.03-3.43l.03-3.3 1.13-.03 1.12-.03-.02 3.43-.03 3.43-1.08.03c-.81.02-1.09-.01-1.12-.1Zm-12.69-.13c.81-.24 1.42-.86 1.68-1.72.07-.23.06-.23-.88-.23s-.96 0-1.02.25c-.1.41-.5.65-1.08.65-.77-.01-1.16-.48-1.16-1.4v-.4h4.2l.01-.22c.13-2.35-.88-3.53-3.01-3.53-1.84.01-2.83.85-3.11 2.64-.45 2.93 1.59 4.79 4.37 3.96Zm10 0c.86-.26 1.56-1.06 1.78-2.07l.06-.28h-1.97l-.12.41c-.35 1.16-1.51 1.19-1.8.05-.19-.75-.14-2.44.09-2.94.39-.87 1.55-.75 1.75.18l.07.3H33l-.06-.27c-.64-2.68-4.98-2.68-5.91 0-.38 1.1-.18 2.8.44 3.7.65.94 2.26 1.35 3.69.92Zm8.67.01c.18-.07.5-.32.72-.55l.4-.42.05.48.05.48.93.03.92.03V24.6c0-2-.03-2.68-.14-2.94-.7-1.68-4.89-1.52-5.32.2-.09.36-.03.39.97.42.83.04.89.03.89-.16 0-1.01 1.48-.87 1.71.16.16.73.07.79-1.18.84-1.64.06-2.55.57-2.82 1.55-.49 1.74 1.17 3.2 2.82 2.49Zm-28.39-1.13c.42-1.72.48-1.71.91.02l.29 1.15h1.64l.11-.32c.05-.18.51-1.59 1-3.14.5-1.54.91-2.84.91-2.87 0-.04-.36-.07-.8-.07h-.79l-.09.32c-.05.18-.31 1.11-.58 2.06-.27.99-.52 1.71-.58 1.69s-.34-.93-.61-2.03l-.51-1.99-.45-.03-.45-.03-.48 2.03c-.26 1.11-.49 2.04-.52 2.07-.12.12-.26-.28-.77-2.14l-.54-2-.81-.03c-.45-.02-.82-.01-.82 0 0 .12 1.76 5.9 1.9 6.26.09.2.16.22.93.22h.83zM25.8 22.8v-4.4H24v8.8h1.8zm10 1.15V20.7h-1.7v6.5h1.7zm3.53 2c-.51-.36-.5-1.37.03-1.71.3-.2 1.39-.31 1.58-.15.26.22-.13 1.55-.55 1.85-.29.2-.78.21-1.06.01Zm.94-.29c.45-.38.68-1.28.36-1.4-.64-.25-1.43.22-1.43.84 0 .73.53 1.01 1.07.56ZM18.7 22.95c0-1.52 2.02-1.87 2.29-.39.12.64.12.64-1.15.64H18.7zm2.06-.35c-.07-.43-.47-.8-.87-.8-.33 0-.89.46-.89.73a1 1 0 0 1-.06.3c-.04.13.1.15.91.14l.97-.02zm13.34-3.74c-3.03-.67-4.14-4.51-1.93-6.7C34.36 10 38.1 11.03 38.86 14c.72 2.81-1.92 5.49-4.76 4.86Zm2.45-.51c3.34-1.6 2.65-6.5-1.01-7.07-3.39-.52-5.61 3.38-3.45 6.06 1.06 1.32 2.93 1.74 4.46 1.01Zm-2.16-2.29c-1.03-.58-.65-2.26.5-2.26.85 0 1.38.56 1.28 1.33-.11.81-1.09 1.32-1.78.93Zm1.01-.21c.97-.5.6-1.85-.5-1.85-.71 0-1.17 1.01-.72 1.56.36.45.74.54 1.22.29Z"/></svg>