<svg xmlns="http://www.w3.org/2000/svg" width="51" height="51" viewBox="0 0 51 51"><path fill="#fff" fill-rule="evenodd" stroke="#fff" stroke-width=".77" d="M10.33 38.84c-.1-.26.05-4.63.22-6.44.88-9.39 2.96-16.06 5.88-18.92 2.99-2.91 6.52-.44 8.72 6.1l.41 1.23.49-1.33c1.33-3.65 2.98-6.09 4.7-6.94 2.72-1.33 5.62 1.49 7.54 7.31 1.55 4.69 2.58 11.87 2.49 17.25l-.03 1.85h-3.9l-.07-1.55c-.04-.85-.12-2.71-.18-4.13-.38-9.09-1.85-16.55-3.61-18.35-2.37-2.42-4.88 6.36-5.19 18.18-.06 2.06-.13 3.81-.15 3.88-.04.1-.5.12-2.07.1l-2.03-.03-.02-1.5C23.35 22.32 20.7 12.19 18.16 15c-1.74 1.93-3.18 9.39-3.57 18.5-.06 1.4-.14 3.2-.17 4l-.07 1.45-1.98.03c-1.75.02-1.98.01-2.04-.14Zm3.81-2.22c.39-12.31 2.1-21.15 4.32-22.22 2.7-1.31 5.05 7.38 5.31 19.68l.06 2.72h3.57v-.87c.03-8.09.97-15.07 2.59-19.15 2.31-5.81 5.14-1.54 6.4 9.67.36 3.19.7 8.82.71 11.73v.52h3.43l-.06-2.82c-.24-11.21-3.28-21.2-7-23.02-2.7-1.33-5.2 1.22-7.47 7.62-.18.5-.38.92-.44.92s-.36-.73-.66-1.62c-1.63-4.8-3.75-7.3-6.08-7.16-4.18.25-7.81 10.79-8.19 23.81l-.06 2.27h3.51z"/></svg>