<svg xmlns="http://www.w3.org/2000/svg" width="51" height="51" viewBox="0 0 51 51"><path fill="#fff" fill-rule="evenodd" stroke="#fff" stroke-width=".474" d="M14.47 46.16c-1.04-.38-.97.34-.97-9.85v-8.9l-3.01-.03-3-.03-.39-.41-.38-.41-.07-6.74c-.1-9.79-.06-11.94.23-12.4.44-.72-1.06-.67 18.72-.71 20.21-.03 18.27-.11 18.7.77.29.6.31 18.58.02 19.14-.38.76-.38.76-3.7.79l-2.97.03-.02 5.96-.01 5.96-3.44 3.43-3.43 3.44-7.95.05c-6.52.03-8.02.02-8.33-.09Zm16.15-3.32.03-3.16.33-.29.32-.29h6.1v-7.87c0-4.34-.03-8.12-.06-8.4l-.07-.53H13.82l-.07 2.12c-.03 1.17-.05 6.32-.03 11.45.03 9.28.03 9.32.24 9.6.41.55.09.53 8.66.53h7.97zm4.56-1.37 2.04-2.04-1.44-.06c-3.54-.17-4.64-.08-4.82.38-.03.09-.09 1.48-.13 3.08l-.06 2.92 1.19-1.12c.65-.61 2.1-2.03 3.22-3.16ZM24.44 38.4c-1.27-1.29-1.3-1.35-.72-1.73.99-.64 2.3-.73 3.33-.22.87.42.95.58.54 1.03-.71.78-1.94 2.02-2 2.02-.03 0-.55-.5-1.15-1.1Zm3.16-1.32c0-.28-1.32-.7-2.12-.67-.81.04-1.76.37-1.85.66-.02.05.4.55.93 1.12l.97 1.02 1.04-1.03c.56-.56 1.03-1.06 1.03-1.1Zm-6.34-1.87c-.93-.96-.93-.99-.08-1.61 2.3-1.69 5.04-1.99 7.47-.8.8.39 2.05 1.31 2.05 1.52 0 .12-1.49 1.68-1.61 1.68-.04 0-.27-.16-.51-.36-1.66-1.4-4.14-1.46-5.88-.13-.25.19-.5.38-.56.42-.06.03-.44-.28-.88-.72Zm9.14-.92c0-.13-1.21-.94-1.95-1.3-2.36-1.14-5.26-.77-7.3.95l-.4.34.55.6c.73.79.74.79 1.4.33 1.74-1.22 4.11-1.21 5.77.03l.58.44.68-.66c.37-.37.67-.69.67-.73Zm-11.97-1.9c-.4-.45-.73-.88-.73-.95 0-.31 1.93-1.68 3.25-2.3 3.9-1.85 8.88-1.09 12.05 1.83l.55.51-.7.78c-.99 1.09-.9 1.07-1.74.36-1.67-1.4-3.27-1.97-5.56-1.97s-3.71.5-5.45 1.9c-.44.36-.84.65-.88.65s-.4-.37-.79-.81Zm1.57-.08c3.24-2.72 8.29-2.61 11.38.23l.43.39.7-.68c.38-.38.69-.72.69-.75 0-.04-.29-.3-.65-.59-3.68-2.99-8.73-3.36-12.64-.94-.76.48-1.91 1.38-1.91 1.51 0 .08 1.19 1.42 1.26 1.42.02 0 .36-.27.74-.59Zm-6.5-7.66V22.2l.23-.09c.25-.1 23.61-.06 23.77.04.06.04.1.98.1 2.51v2.44h5.92l.34-.34.34-.34v-9.2l-5.27-.04c-2.91-.01-11.3-.01-18.65 0l-13.38.04v4.36c0 4.64.03 4.97.47 5.32.25.19.39.2 3.19.2h2.94zm23.47-7.75h7.23V7.6l-.29-.32-.29-.33-5.09-.03c-2.79-.02-10.9 0-18.02.03l-12.93.07-.32.28-.31.28-.03 4.73-.03 4.72 11.42-.06c6.28-.04 14.68-.07 18.66-.07Zm-15.09-1.75c-.05-.05-.08-.39-.08-.77v-.68l.68-.72c1.66-1.78 1.95-2.26 1.46-2.45-.24-.09-.64.14-.64.37 0 .18-.06.2-.75.2h-.75v-.35c0-1.86 3.04-2.32 3.76-.58.34.81.1 1.5-.95 2.71l-.71.82h1.8v1.4h-.92c-.51 0-1.36.03-1.88.06-.52.04-.98.03-1.02-.01Zm6.65-.02c-.07-.02-.13-.2-.13-.39v-.33l-1.17-.03-1.18-.03-.03-.66c-.03-.65-.02-.66.94-2.55.53-1.04 1.02-1.93 1.08-1.97.12-.09 1.43-.03 1.53.06.03.04-.33.82-.81 1.76-.95 1.87-.96 1.91-.61 1.91.23 0 .25-.04.25-.4v-.4h.74c.79 0 .86.05.86.55 0 .14.07.25.2.28.17.04.2.14.2.72s-.03.68-.2.72c-.13.03-.2.14-.2.28 0 .49-.08.55-.74.54-.33 0-.67-.03-.73-.06Zm-3.13-.73v-.5h-.95c-.52 0-.95-.03-.95-.07 0-.05.34-.46.76-.93.91-1.02 1.14-1.43 1.14-2.07 0-1.87-3-2.1-3.36-.25l-.06.32h.48c.41 0 .51-.04.74-.31.32-.39.75-.42 1.02-.09.36.44.21.74-1.17 2.21L22 13.84v1.06h3.4zm4.3.16c0-.26.05-.36.2-.41.16-.05.2-.15.2-.56 0-.42-.03-.49-.2-.49-.16 0-.2-.07-.2-.35v-.35h-1.1v.7h-.55c-.3 0-.55-.02-.55-.05s.41-.86.9-1.85l.9-1.8h-1.19l-.9 1.79c-.82 1.62-.91 1.85-.91 2.35v.56h2.3v.8h1.1z"/></svg>