<svg xmlns="http://www.w3.org/2000/svg" width="51" height="51" viewBox="0 0 51 51"><path fill="#fff" fill-rule="evenodd" stroke="#fff" stroke-width=".414" d="M5.91 51.04c-2.98-.8-5.68-3.66-5.87-6.23L0 44.25l.23.82c.82 2.88 2.87 4.95 5.73 5.78 1.23.36 1.19.52-.05.19Zm38.34.1c.06-.02.5-.15.98-.29 2.99-.86 4.91-2.86 5.73-6l.24-.9-.05.62c-.26 2.86-2.8 5.69-5.82 6.47-.53.14-1.36.22-1.08.1ZM12.9 45.51c-1.69-.55-2.6-2.01-2.47-3.97.27-4.44 6.51-4.62 7.03-.2.2 1.64-.65 3.3-2.01 3.96-.54.25-2.04.38-2.55.21Zm18.63-.16c-2.29-1.16-2.12-4.89.25-5.69.99-.34 2.27-.13 3 .5.52.44.52.44-.05 1.1l-.47.54-.25-.24c-1.01-.93-2.31-.38-2.31.99 0 1.35 1.45 1.94 2.34.96.28-.31.38-.27.86.41l.43.62-.34.28c-.96.8-2.46 1.03-3.46.53Zm5.48.08c-1.93-.7-2.41-3.89-.79-5.27 1.81-1.55 4.59-.29 4.58 2.08 0 .91.11.86-1.91.86-1.92 0-1.96.01-1.62.5.46.68 1.5.74 2.3.14.46-.35.56-.31.88.37.34.71.35.7-.65 1.18-.7.33-2.08.4-2.79.14ZM18.7 43.36v-2.15l-.42-.03-.43-.03v-1.4l.4-.05c.39-.05.4-.06.46-.51.22-1.52 1.71-2.26 3.38-1.68.36.13.37.15.12.94-.15.48-.23.59-.38.57-.98-.19-1.33-.08-1.33.44 0 .23.02.24.8.24h.8v1.5h-1.6l-.02 2.13-.03 2.12-.87.03-.88.03zm4.67 2.08c-.04-.04-.07-1.01-.07-2.16V41.2h-.8v-1.49l.42-.03.43-.03.07-.53c.21-1.45 1.24-2.06 2.86-1.71.82.17.86.23.58.99-.19.51-.28.64-.43.62-.98-.19-1.23-.11-1.23.39v.29h1.6v.53c0 .95-.02.97-.86.97h-.74l-.02 2.13-.03 2.12-.85.03c-.47.01-.89 0-.93-.04Zm4.15-2.86.03-2.93.77-.03c1.04-.04.99-.2.96 3.1l-.03 2.73-.88.03-.87.03zm-12.37 2.55c2.15-.69 2.79-4.24 1.05-5.87-1.28-1.19-3.45-1.14-4.67.12-1.19 1.22-1.12 4.02.13 5.11.97.85 2.13 1.06 3.49.64Zm18.82.02c.2-.09.52-.27.7-.41l.32-.24-.31-.44-.3-.44-.44.31c-1.16.81-2.5.04-2.48-1.43.02-1.4 1.29-2.12 2.42-1.37l.41.26.31-.4c.38-.47.34-.56-.46-.95-1.87-.91-3.93.3-3.98 2.34-.04 2.22 1.84 3.59 3.81 2.77Zm5.81-.15c.68-.32.71-.38.42-.85l-.2-.32-.56.28c-1.21.61-2.52.14-2.57-.92l-.02-.34 1.83-.03 1.82-.02v-.58c-.02-1.52-.92-2.45-2.39-2.45-1.51 0-2.49.94-2.59 2.49-.16 2.49 1.92 3.83 4.26 2.74ZM20.2 43.15V41h1.57l.07-.46c.08-.63.06-.64-.86-.64h-.81l.06-.42c.09-.65.45-.92 1.12-.84l.52.06.12-.41c.17-.55.08-.61-.86-.66-1.33-.07-2.05.51-2.2 1.76l-.06.51h-.77V41h.8v4.3h1.3zm4.7 0V41h.64c.91 0 .96-.03.96-.61v-.49h-1.63l.06-.47c.07-.66.35-.87 1.04-.79l.51.06.15-.45.16-.44-.37-.11c-1.57-.43-2.61.19-2.8 1.67l-.07.57h-.4c-.44.01-.51.13-.4.72.06.32.08.34.45.34h.4v4.3h1.3zm4.1-.55v-2.7h-1.3v2.63c0 1.45.03 2.67.07 2.7.03.04.33.07.65.07H29zm-15.89 1.43c-1.76-.87-1.3-4.33.6-4.51 1.39-.13 2.16.8 2.07 2.54-.09 1.7-1.34 2.62-2.67 1.97Zm1.64-.32c.95-.52 1.11-2.74.25-3.56-.66-.63-2.02-.41-2.44.41-.98 1.88.53 4.06 2.19 3.15Zm22.05-1.68c0-.33.26-.86.51-1.07.7-.59 1.89-.1 1.89.78v.36H38c-.66 0-1.2-.03-1.2-.07Zm2.15-.23c.08-.13-.21-.66-.4-.74-.67-.25-1.45.14-1.45.74 0 .13 1.77.14 1.85 0Zm-11.14-2.76c-.64-.45-.58-1.43.11-1.77 1.22-.6 2.18 1.16.98 1.78-.38.2-.8.19-1.09-.01Zm1.18-.4c.28-.35.26-.69-.04-.99-.7-.71-1.81.29-1.13 1.02.31.33.9.32 1.17-.03Zm-17.09-4.5c0-.09.29-.47.65-.85.75-.8 1.47-2.16 1.66-3.16l.12-.63-.79-.77c-7.22-7.11-4.4-18.69 5.51-22.63 3.37-1.34 8-1.55 11.55-.53 8.19 2.35 12.74 9.83 10.55 17.38-2.39 8.23-12.3 12.75-21.37 9.73l-1.26-.42-.91.43c-2.33 1.08-5.71 1.94-5.71 1.45Zm3.25-.79c.72-.23 1.76-.64 2.32-.9l1.02-.47 1.38.45c2.25.74 2.79.82 5.73.82 3.49-.01 5.01-.34 7.75-1.7 10.36-5.13 10.84-18.6.87-24.19-8.12-4.55-18.99-1.75-23 5.93-2.7 5.15-1.45 11.94 2.87 15.62.51.43.52.45.46.87-.18 1.23-.94 2.8-1.77 3.65-.32.33-.58.6-.58.62 0 .1 1.87-.35 2.95-.7Zm2.7-3.78c-.03-.07-.04-1.45-.03-3.07l.03-2.95h1.5l.03 2.33.02 2.32h1.08c1.25 0 1.32.04 1.32.71 0 .83.11.79-2.01.79-1.43 0-1.91-.03-1.94-.13Zm4.62.07c-.04-.04-.07-1.1-.07-2.35 0-2.55-.05-2.39.78-2.39.76 0 .73-.1.7 2.46l-.03 2.29-.65.03c-.36.02-.69 0-.73-.04Zm2.08-.06c-.03-.08-.04-1.15-.03-2.38l.03-2.25.58-.03c.52-.03.59-.01.64.17.05.2.05.2.41 0 .49-.25 1.36-.26 1.78 0 .64.39.79.94.79 2.86v1.7l-.58.03c-.87.04-.9-.01-.83-1.28.09-1.69-.18-2.37-.86-2.11-.43.16-.51.45-.57 1.96l-.06 1.4-.63.03c-.45.02-.64-.01-.67-.1Zm4.92.05c-.04-.03-.07-1.48-.07-3.2v-3.14l.72.03.73.03.03 1.48.03 1.48.26-.33c.79-.98.93-1.08 1.54-1.08 1.1 0 1.1.02.14 1.19-.41.5-.75.96-.75 1.03s.39.62.86 1.21c.96 1.2.96 1.22.06 1.31-.7.08-.68.09-1.7-1.08l-.42-.49v.7c0 .4-.05.74-.12.81-.13.13-1.2.17-1.31.05Zm-7.97-.68v-.45h-2.4v-4.8h-1v5.7h3.4zm2.15-.17c-.01-.32-.02-1.25-.03-2.08l-.02-1.5h-.9v4.21l.48-.03.47-.03zm2.05-.63c0-1.69.2-2.15.95-2.15s.95.46.95 2.15v1.25h.92l-.04-1.62c-.03-1.42-.06-1.68-.23-1.98-.43-.73-1.38-.88-2.15-.35-.45.31-.5.31-.5 0 0-.22-.04-.25-.4-.25h-.4l-.01.53c-.01.45 0 3.38.01 3.6 0 .04.2.07.45.07h.45zm4.9.35c0-1.14.04-1.14 1.03 0l.77.9h.5c.62 0 .62.03-.08-.83-.32-.4-.71-.89-.86-1.09l-.28-.37.76-.93.76-.93-.46-.03c-.53-.04-.73.11-1.46 1.06-.64.83-.68.77-.68-1.08v-1.6h-1v5.8h1zm-8.08-4c-.31-.29-.3-.83.03-1.15.49-.5 1.26-.22 1.41.52.14.68-.9 1.13-1.44.63Zm.96-.16c.41-.29.19-.96-.32-.96-.56 0-.84.54-.46.92.24.24.48.25.78.04Zm-6.12-2.29c-1.98-.41-3.32-1.67-3.67-3.47-.29-1.43.13-1.69 3.6-2.29 1.84-.31 2.15-.17 2.36 1.11.16.98.42 1.17 1.43 1.05 2.47-.29 5.77-1.81 7.79-3.58.42-.37.41-.47-.08-1.62-.61-1.44-.6-1.45 2.13-3.51 2.01-1.51 2.27-1.5 3.04.11 1.13 2.34.64 4.31-1.63 6.6-3.72 3.74-10.93 6.44-14.97 5.6Zm3.85-.31c5.44-.93 11.15-4.51 12.77-8.02.52-1.13.28-3.11-.52-4.31-.51-.76-.74-.71-2.24.43-2.83 2.15-2.78 2.07-2.23 3.23.67 1.4.62 1.63-.54 2.49-2.58 1.9-5.58 3.13-7.68 3.14-1.03 0-1.09-.06-1.42-1.39-.25-1.05-.35-1.08-2.45-.67-2.98.58-3.04.61-2.98 1.58.2 2.81 3.14 4.23 7.29 3.52ZM.04 6.45c.2-2.87 4-6.49 6.75-6.44l.46.01-.6.13C3.37.87 1.19 2.95.2 6.27l-.2.68zm50.87-.33C50 2.95 47.76.83 44.6.16c-.63-.14-.64-.14-.21-.15 2.64-.05 5.88 2.81 6.66 5.88.25.98.13 1.17-.14.23Z"/></svg>