<svg xmlns="http://www.w3.org/2000/svg" width="51" height="51" viewBox="0 0 51 51"><path fill="#fff" fill-rule="evenodd" stroke="#fff" stroke-width=".73" d="M7.19 41.9c-.49-.26-1.06-.91-1.18-1.37-.15-.51-.15-24.83-.01-25.34.27-.97.58-1.18 3.5-2.37 1.07-.44 3.5-1.45 5.4-2.25 8.55-3.6 10.11-4.21 10.7-4.21.6.01.85.1 6.8 2.57 12.83 5.32 12.35 5.1 12.77 5.96.19.4.22 25.36.03 25.86-.15.38-.73.97-1.15 1.16-.64.29-36.31.28-36.86-.01Zm37.02-.35c.23-.16.53-.5.66-.74l.23-.44V15.25l-.23-.39c-.33-.59-.44-.64-4.32-2.27C28.21 7.42 26.16 6.6 25.59 6.6c-.54 0-1.52.39-13.74 5.5-5.12 2.13-5.12 2.13-5.43 2.68l-.22.4v12.66c0 13.83-.04 12.9.58 13.49.62.6-.52.56 19.04.54l17.96-.02zM9.94 38.01c-.12-.12-.03-20.78.09-20.93.1-.14 12.72-5.47 14.76-6.24.88-.33.82-.35 3.32.7 1.92.81 6.47 2.7 11.74 4.87l1.4.58.03 10.5L41.3 38l-4.8.02c-2.64.01-5.01.02-5.27.03h-.48l-.03-1.17-.03-1.17.56-.36c1.96-1.31 3.5-3.42 4.22-5.8.38-1.27.41-3.96.05-5.19-2.06-7.1-10.21-9.94-15.99-5.57-4.14 3.13-5.25 8.85-2.59 13.38.69 1.17 2.46 2.96 3.34 3.36.21.1.22.16.22 1.29 0 .87-.03 1.18-.12 1.19-.47.03-10.4.03-10.44 0Zm14.7 0c-.02-.02-.04-1.02-.04-2.22 0-2.71.08-2.52-1.39-3.25-4.04-1.99-4.98-6.88-1.91-9.94 3.73-3.73 10.13-1.34 10.47 3.9.17 2.63-1.22 4.82-3.92 6.17-.49.25-.94.53-1 .62-.05.09-.12 1.17-.15 2.41l-.05 2.25-.98.05c-.54.03-1.01.03-1.03.01Zm-4.34-1.19v-.99l-.52-.34c-3.03-1.95-4.93-6.05-4.49-9.66.88-7.22 8.26-11.39 14.77-8.34 7.1 3.33 8.12 12.86 1.89 17.64l-.95.72v1.95h9.97l.07-.46c.03-.26.06-4.9.06-10.31v-9.84l-.32-.13c-.73-.3-9.81-4.06-12.38-5.13-2.43-1.01-2.79-1.14-3.06-1.05-.17.05-3.64 1.48-7.72 3.18l-7.42 3.09V37.8h10.1zm6.1-1.09c0-2.68-.04-2.58 1.45-3.33 4-2 4.94-6.63 1.95-9.6-3.75-3.74-10.01-1.21-10 4.04 0 2.61 1.23 4.43 3.76 5.61 1.29.6 1.24.47 1.24 3.12v2.23h1.6zm-2.03-3.9c-.03-.05.24-.98.6-2.07.35-1.1.62-2.05.59-2.13-.04-.1-.31-.13-1.06-.13-1.9 0-1.91.04.49-3.72 1.49-2.35 1.6-2.35.86-.03-.25.77-.48 1.57-.51 1.78l-.07.37h1.36c1.41 0 1.77.1 1.63.47-.1.24-3.7 5.53-3.78 5.53-.04 0-.09-.03-.11-.07Zm2.17-3.31c.8-1.17 1.46-2.17 1.46-2.22 0-.06-.5-.1-1.22-.1-1.96 0-1.92.04-1.43-1.7.19-.68.33-1.25.32-1.27-.04-.03-1.74 2.64-2.12 3.34-.37.65-.41.61.98.69.75.05 1.21.12 1.28.2.09.11-.24 1.31-.89 3.24-.1.3.18-.07 1.62-2.18Z"/></svg>