<svg xmlns="http://www.w3.org/2000/svg" width="51" height="51" viewBox="0 0 51 51"><path fill="#fff" fill-rule="evenodd" stroke="#fff" stroke-width=".361" d="M7.15 51.03c-3.23-.44-5.7-2.47-6.77-5.54l-.33-.94-.03-18.7C0 9.52.02 7.06.15 6.42.76 3.44 3.02 1 5.92.2c.72-.2.95-.2 19.8-.2H44.8l.92.3c2.55.82 4.44 2.69 5.27 5.21l.21.65-.02 19.15c-.04 21.67.05 19.5-.88 21.45-1.03 2.13-3.06 3.68-5.37 4.09-.74.13-36.88.3-37.78.18Zm36.35-.37c3.21-.12 5.85-1.98 6.85-4.83.64-1.84.6-.47.6-20.93V6.35l-.31-.88C49.68 2.8 47.43.88 44.63.34 43.3.09 7.77.14 6.52.4 3.48 1.02 1.12 3.38.5 6.41.23 7.7.19 43.25.45 44.5c.71 3.36 3.29 5.71 6.81 6.18.58.08 33.96.06 36.24-.02ZM6.88 50.4c-3.02-.52-5.25-2.55-6.11-5.57l-.22-.78v-18.3C.56 5.85.53 6.68 1.12 5.2c.71-1.8 2.06-3.2 3.9-4.04C6.5.47 5.28.51 25.81.48L44.35.45l.88.28c2.72.85 4.54 2.63 5.27 5.17l.22.75-.02 18.3c-.02 19.71 0 19.03-.53 20.61-.82 2.39-2.64 4.06-5.12 4.7-.75.2-37.07.33-38.17.14Zm36.86-.3c3.73-.36 6.13-2.78 6.55-6.62.19-1.74.15-36.2-.05-37.16-.52-2.56-2.53-4.57-5.34-5.34l-.85-.23-18.28.02C5.84.8 6.8.77 5.36 1.36 3.39 2.16 1.81 3.93 1.19 6c-.21.73-.22.91-.29 8.35-.11 10.86-.11 26.96 0 28.6.26 3.96 2.32 6.43 5.95 7.1.9.17 35.15.21 36.89.05ZM7.2 47.98c-1.37-.21-2.77-1.24-3.39-2.46-.66-1.31-.63-.45-.64-16.74L3.15 14 8.6 8.55l5.45-5.45L29 3.13c16.55.03 15.28-.02 16.61.68 1.21.65 2.07 1.78 2.36 3.11.28 1.31.17 36.24-.12 37.33-.5 1.89-1.76 3.15-3.6 3.59-.7.17-36.04.3-37.05.14Zm37.03-.51c1.68-.49 2.8-1.57 3.23-3.12.17-.64.29-12.87.29-29.9 0-7.08 0-7.1-.22-7.81-.5-1.59-1.9-2.75-3.64-3.04-.42-.06-5.66-.1-15.14-.1h-14.5L8.93 8.82 3.6 14.15v14.77c0 10.56.03 14.92.11 15.3.36 1.66 1.73 3.03 3.4 3.38.9.18 36.46.06 37.12-.13Zm-30.2-3.74c-.41-.05-.4-.03-.34-1.73l.06-1.45h3.3l.03.28c.02.16-.03.39-.12.51-.08.13-.16.41-.18.62l-.03.39-1.02.03c-1.39.04-1.33.22.07.22.98 0 1.1.02 1.2.19.16.3.01.81-.27.92-.23.09-2.04.1-2.7.02Zm4.04 0-.28-.04.03-1.57.03-1.57h1.1l.05.44.05.44.51-.47c.49-.43.55-.46 1.08-.46.73 0 .73.14 0 .91l-.57.59.57.65c.72.81.71.99-.04 1.03l-.55.04-.52-.59-.53-.58V43c0 .67-.22.84-.93.73Zm4.96 0L22 43.69v-.98l.48-.03.47-.03.03-.57.03-.57-.53-.03c-.53-.03-.53-.03-.56-.39-.02-.21.02-.4.1-.47.11-.09 2.07-.17 3.16-.12.09 0 .12.14.1.48l-.03.47-.52.03-.53.03v1.18l.53.03.52.03.03.43c.04.48-.18.64-.86.6-.2-.01-.83-.04-1.39-.05Zm4.2-.03c-.22-.09-.23-.15-.23-1.15V41.5h-1.01l.03-.47.03-.48h3.3l.03.24c.08.57-.04.71-.63.71h-.55v1.09c0 1.24-.17 1.43-.97 1.11Zm5.2.03c-.08-.03-.13-.25-.13-.59v-.54h-1.09l-.03.52-.03.53h-1.1l-.03-1.38c-.03-1.64.01-1.77.62-1.77.47 0 .56.09.56.58 0 .26.01.27.54.24l.55-.04.03-.36.03-.37.53-.03c.37-.02.52.01.53.1.05.94-.05 3.04-.14 3.1-.13.09-.65.09-.84.01Zm1.94 0-.28-.04.03-1.57.03-1.57h3.3l-.02.35c-.01.19-.02.56-.03.81-.01.63-.14.72-.95.67-.7-.04-.81-.09-.72-.33.05-.11.22-.15.67-.15.53 0 .6-.02.6-.2 0-.19-.07-.2-.9-.2h-.9v1.09l1.07.03 1.08.03.03.45c.05.65-.07.7-1.52.69-.67-.01-1.33-.04-1.49-.06Zm-17.77-.58c0-.12-.19-.15-1.1-.15h-1.1v-1h.98c1.07 0 1.12-.01 1.05-.31-.06-.22-1.43-.25-1.85-.05-.15.07-.18.03-.18-.23v-.31h1.15c.96 0 1.15-.03 1.15-.15 0-.13-.21-.15-1.3-.15h-1.3v2.5h1.25c1.04 0 1.25-.02 1.25-.15Zm1.92-.36c.05-.47.18-.68.42-.69.05 0 .35.27.66.61.46.5.61.6.83.57.27-.03.27-.03-.29-.66l-.57-.63.59-.6c.54-.54.56-.59.33-.59-.16 0-.39.14-.64.41-.78.81-1.25.84-1.25.08 0-.42-.03-.49-.2-.49-.19 0-.2.07-.2 1.25 0 .99.03 1.25.14 1.25q.135 0 .18-.51Zm6.36.33c.03-.09-.12-.12-.52-.12h-.56v-1.9h.55c.42 0 .55-.03.55-.15 0-.13-.21-.15-1.3-.15-1.07 0-1.3.03-1.3.14s.15.16.53.18l.52.03v1.8l-.52.03c-.5.03-.62.1-.46.26.13.13 2.46.02 2.51-.12Zm2.94-.89.03-1.08.53-.03c.37-.02.52-.07.52-.18s-.23-.14-1.25-.14c-1.04 0-1.25.02-1.25.15 0 .11.12.15.5.15h.5v1.1c0 1.03.01 1.1.2 1.1.18 0 .2-.08.22-1.07Zm2.9.55.03-.53h1.9l.03.53c.02.37.07.52.18.52s.14-.23.14-1.25-.03-1.25-.14-1.25-.16.14-.18.48l-.03.47-.98.03-.99.03.03-.48c.03-.37 0-.48-.11-.48-.12 0-.16.23-.18 1.23-.02 1.02 0 1.22.12 1.22.11 0 .16-.14.18-.52Zm6.28.37c0-.12-.19-.15-1.1-.15h-1.1v-1.89l1.12-.03c.78-.02 1.13-.07 1.16-.15.03-.1-.27-.13-1.26-.13h-1.29l-.07.38c-.03.2-.06.76-.06 1.25v.87h1.3c1.09 0 1.3-.02 1.3-.15ZM16.25 38.1l-.5-.05-.03-1.67c-.03-2.18-.3-1.98 2.64-1.98h2.34v-1.3h-6.29l-.03.88-.03.87h-3.6l-.03-5.11c-.02-4.23 0-5.13.12-5.23.1-.08 1.94-.1 6.82-.09l6.69.03.02 6.7c.02 3.69-.01 6.75-.05 6.82-.08.12-7.01.24-8.07.13Zm15.73-.01c-.23-.13-.28-3.42-.05-3.56.06-.04 1.19-.09 2.5-.11l2.37-.04V28.1h-6.3l-.01 1.52c-.01 2.57-.1 5.13-.18 5.21-.04.04-.86.06-1.82.05l-1.74-.03-.03-5.09c-.01-3.67.01-5.13.09-5.22.09-.12.97-.14 4.83-.14h4.72l.48.49c.71.72.39 1.03-.35.36l-.39-.35h-8.9v9.5h2.7v-3.19c0-1.84.04-3.31.1-3.45l.1-.26h3.42c2 0 3.49.04 3.58.1.21.13.18 6.96-.03 7.17-.1.1-.68.14-2.45.14l-2.32.01v2.68H40v-8.85l-.5-.43-.5-.43v-2.48l.33-.25.32-.26h-1.22c-1.61 0-1.53.09-1.53-1.78 0-2.02-.1-1.92 1.79-1.92 1.91 0 1.81-.09 1.81 1.73v1.37h1.34c1.89 0 1.82-.07 1.78 1.91-.04 1.93.1 1.79-1.81 1.79-1.93 0-1.81.1-1.81-1.48v-1.24l-.22.14c-.21.14-.23.24-.26 1.21l-.03 1.05.51.44.5.43v4.65c0 2.75-.04 4.71-.1 4.8-.12.19-8.12.28-8.42.09Zm-8.08-6.86v-6.36l-1.42.06c-.79.04-3.65.07-6.36.07H11.2v9.4h2.7v-.79c0-1.19-.27-1.11 3.61-1.11 2.09 0 3.37.04 3.5.1.23.13.29 1.99.07 2.18-.08.06-1.05.11-2.38.13-1.24.02-2.31.05-2.38.07-.09.03-.12.39-.12 1.33v1.29h7.7zm-9.82-1.44c-.22-.12-.27-1.96-.06-2.17.17-.17 6.89-.17 7.06 0 .22.22.16 2.05-.07 2.18-.26.14-6.7.13-6.93-.01Zm6.62-1.04v-.65h-6.3v1.3h6.3zm22.4-2.55v-1.3h-2.6v2.6h2.6zm-3.74-1.9H40v-2.6h-2.6v1.28c0 1.5-.02 1.46.74 1.38.32-.03.88-.06 1.22-.06Zm-28.48-2.41c-.24-.13-.27-3.29-.05-3.48.09-.07.96-.12 2.48-.13l2.34-.03.03-3.07.02-3.08h-2.38c-1.72 0-2.41-.03-2.5-.12-.17-.17-.17-3.39 0-3.56s13.29-.17 13.46 0c.08.08.12.62.12 1.78s-.04 1.7-.12 1.78c-.09.09-.78.12-2.5.12H19.4l.02 3.08.03 3.07 2.34.03c1.52.01 2.39.06 2.48.13.18.15.19 3.29.01 3.47-.16.16-13.14.17-13.4.01Zm20.98-.05c-.13-.12-.16-.41-.16-1.48v-1.33l-1.07-.06c-.58-.04-1.65-.07-2.38-.07-1.66 0-1.55.13-1.55-1.86 0-2.13-.25-1.94 2.61-1.94 2.17 0 2.29-.01 2.29-.19 0-.1.03-.39.06-.65l.07-.46h-2.4c-1.93 0-2.43-.03-2.52-.14-.08-.09-.11-.66-.09-1.82l.03-1.68.4-.09c.22-.04 1.33-.07 2.48-.05l2.07.03v-.77c0-1.07.02-1.08 1.97-1.08 1.86 0 1.83-.02 1.83 1.12v.8l2.33-.04c1.87-.02 2.37 0 2.5.11.21.17.25 3.29.05 3.49-.09.09-.78.12-2.5.12H35.5v1.3h2.34c2.92 0 2.66-.18 2.66 1.86 0 2.14.27 1.94-2.6 1.94h-2.4v1.39c0 1.14-.03 1.43-.16 1.55-.23.24-3.25.24-3.48 0ZM23.9 20.1v-1.3h-2.31c-1.4 0-2.38-.04-2.5-.1-.3-.16-.3-6.94 0-7.1.12-.06 1.1-.1 2.5-.1h2.31V8.8H11.2v2.7h2.33c1.71 0 2.38.03 2.5.12.21.17.28 6.78.07 7.04-.1.11-.55.14-2.51.14H11.2v2.6h12.7zm11-.08c0-.94.04-1.42.12-1.5.09-.09.79-.12 2.55-.12h2.44l-.03-1.37-.03-1.38-2.39-.03c-2.86-.03-2.68.06-2.64-1.21s-.1-1.21 2.81-1.21H40v-2.6h-2.44c-2.86 0-2.7.06-2.64-1.05l.03-.75h-2.74l-.03.88-.03.87-2.47.03-2.48.02v2.6h2.28c2.83 0 2.72-.05 2.72 1.16 0 1.29.07 1.24-1.69 1.24-.81 0-1.89.03-2.39.06l-.92.07v2.67h2.39c2.88 0 2.63-.16 2.62 1.65l-.02 1.35h2.71zM5.05 7.99C4.24 7.76 3.5 6.73 3.5 5.84c0-2.37 2.87-3.34 4.17-1.41 1.21 1.8-.53 4.17-2.62 3.56Zm1.63-.48c1.41-.72 1.39-2.85-.04-3.56-1.54-.77-3.23.73-2.74 2.44.31 1.08 1.74 1.65 2.78 1.12ZM5.04 7.3c-1.49-.74-1.13-3.09.5-3.27 1.94-.22 2.7 2.47.92 3.28-.53.24-.91.24-1.42-.01ZM6.35 7c1.28-.62.94-2.52-.48-2.67-1.49-.15-2.03 2.01-.67 2.69.45.23.64.23 1.15-.02Z"/></svg>