<svg xmlns="http://www.w3.org/2000/svg" width="51" height="51" viewBox="0 0 51 51"><path fill="#fff" fill-rule="evenodd" stroke="#fff" stroke-width=".768" d="M10.13 43.55c-2.33-.65-3.08-2.5-1.94-4.8 1.02-2.07 2.77-3.17 6.05-3.8.86-.17 1.37-.32 1.49-.44.27-.27.37-.73 2.81-12.79 2.56-12.63 2.47-12.23 2.7-12.56.35-.54.9-.71 3.29-1.01 1.93-.25 1.97-.24 2.84 1.25.28.47 2.3 3.91 4.49 7.65l6.47 11.05c3.54 6.04 3.43 5.77 3.35 7.75-.15 3.67-3.32 6.96-6.73 6.99-4.48.03-4.31-6 .27-9.37 1.5-1.11 1.53-.98-.86-5.07-1.48-2.53-1.69-2.8-2.2-2.8-.74 0-10.03 1.54-10.52 1.75-.54.22-.61.45-1.44 4.71-1.43 7.22-1.4 7.11-2.14 8.23-1.54 2.31-5.51 3.95-7.93 3.26Zm2.4-.2c2.49-.43 4.77-1.96 5.69-3.81.39-.79.46-1.11 1.48-6.22 1.12-5.65 1.19-5.9 1.76-6.17.32-.15 4.07-.81 8.57-1.5 2.55-.4 2.57-.4 3.08.25.15.19.96 1.53 1.79 2.98 2.02 3.49 2.04 3.64.55 4.72-2.28 1.65-3.45 3.65-3.45 5.91 0 1.95.91 2.99 2.7 3.07 3.9.19 7.53-4.32 6.69-8.3-.18-.82-.52-1.44-5.44-9.78-2.64-4.49-5.61-9.55-7.5-12.8-2.05-3.54-1.93-3.4-2.89-3.4-.83.01-3.29.41-3.71.61-.48.23-.6.62-1.59 5.54-3.02 14.95-3.81 18.81-4.01 19.5-.23.8-.41.91-2.1 1.26-3.43.7-5.35 2.09-6.05 4.38-.63 2.03.32 3.46 2.55 3.81.76.12.96.11 1.88-.05ZM22.1 23.2c-.28-.28-.26-.51.3-3.39 1.42-7.18 1.48-7.45 1.71-7.63.55-.45.83-.18 2.21 2.14 4.32 7.26 4.34 7.31 3.89 7.72-.25.23-.39.26-4.1.86-3.55.57-3.73.58-4.01.3Zm2.58-.31c5.78-.95 5.58-.9 5.48-1.4-.06-.33-4.86-8.58-5.24-9.01a.47.47 0 0 0-.76.05c-.08.12-.46 1.89-.85 3.92s-.83 4.23-.96 4.88c-.45 2.1-.55 2.03 2.33 1.56Z"/></svg>