<svg xmlns="http://www.w3.org/2000/svg" width="51" height="51" viewBox="0 0 51 51"><path fill="#fff" fill-rule="evenodd" stroke="#fff" stroke-width=".433" d="M6.29 46.26c-.58-.2-.93-.51-1.25-1.08l-.29-.53-.03-2.37-.04-2.38H6.3v2.28c0 1.61.04 2.34.13 2.52.18.37.74.62 1.2.55.96-.14 1.07-.43 1.07-2.77 0-1 .03-2 .06-2.2l.07-.38h1.47v2.18c0 2.56-.09 3.05-.69 3.62-.66.63-2.33.91-3.32.56Zm24.41-.1c-1.79-.91-1.87-4.63-.12-5.78.82-.54 2.8-.82 3.11-.44.18.22.1 1.22-.09 1.17-1.3-.3-2.34.08-2.59.95l-.09.3.52-.13c2.08-.57 3.6 1.13 2.66 2.96-.55 1.1-2.23 1.57-3.4.97Zm11.28.17-.88-.04v-6.41l1.88.04c2.01.04 2.21.08 2.71.62.45.48.38 1.53-.13 1.95-.14.12-.11.18.28.52.5.44.69 1 .56 1.66-.25 1.37-1.39 1.8-4.42 1.66ZM13.7 45.2v-1.1h-2.3v-1.2h2.3v-2.2h1.2v2.2h2.31l-.03.58-.03.57-1.12.03-1.13.03v2.19h-1.2zm5.2.6v-.5h1.3v-3.6h-1.3v-.4c0-.37.02-.4.38-.49.43-.12.79-.35 1.05-.68.16-.19.28-.23.79-.23h.61l-.04 2.68-.04 2.67.68.03.67.03v.99h-4.1zm5.42-2.68.03-3.17 2.27-.03 2.28-.02v.44c0 .79.05.76-1.56.76H25.9v1.3h1.29c1.44 0 1.43 0 1.35.64l-.07.46H25.9v2.8h-1.6zM37.9 45.6v-.7h-2.98l-.04-.57c-.05-.67-.16-.49 1.7-2.85l1.23-1.58h1.46l.06.98c.04.53.07 1.39.07 1.9v.92h.91l-.03.58-.03.57-.42.03-.43.03v1.39h-1.5zm-29.19.35c1.13-.4 1.29-.82 1.29-3.57V40.2H9v1.98c0 2.77-.19 3.21-1.38 3.3-1.39.1-1.56-.24-1.6-3.15l-.03-2.23-.32.04c-.18.02-.4.04-.49.05-.22.01-.27 3.83-.06 4.53.37 1.25 1.97 1.8 3.59 1.23Zm23.8.14c.95-.21 1.59-1.01 1.59-2.02 0-1.3-1.3-2-2.86-1.52-.27.08-.51.15-.53.15-.14 0 .11-.96.33-1.25.42-.54.79-.69 1.69-.68l.77.01v-.33c0-.4-.46-.52-1.41-.36-1.69.28-2.39 1.15-2.47 3.06-.09 2.22 1.02 3.34 2.89 2.94Zm-9.81-.29v-.3h-1.3v-5.3h-.38c-.29 0-.45.07-.67.3-.16.16-.48.37-.72.46-.71.27-.6.54.22.54h.65l-.02 1.98-.03 1.97-.62.03c-.62.03-.63.03-.63.32v.3h3.5zm2.9-1.1v-1.4h2.7v-.59l-1.32-.03-1.33-.03v-1.8l1.47-.03 1.48-.03v-.59h-4v5.9h1zm13.5.65v-.75h.45c.67 0 .69-.52.03-.66l-.43-.09-.03-1.83-.02-1.82h-1.18l-1.41 1.79c-1.4 1.78-1.41 1.8-1.35 2.2l.07.41h2.97v1.5h.9zm6.01.52c1.34-.6 1.46-2.35.2-2.92l-.41-.18.35-.34c.74-.72.66-1.65-.17-2.03-.37-.17-.66-.2-2.05-.2H41.4v5.92l1.68-.04c1.25-.03 1.76-.09 2.03-.21ZM14.6 44.9v-1.1h2.3v-.7h-2.3V41h-.7v2.1h-2.2v.7h2.2V46h.7zm16.81.52c-.58-.29-.75-.63-.79-1.51-.05-.91-.05-.91 1.12-.91.64 0 .7.02 1.02.34.97.97-.15 2.7-1.35 2.08Zm11.1-.01c-.08-.05-.11-.4-.09-1.12l.03-1.04 1.03.01c.87 0 1.06.03 1.3.21.61.45.49 1.49-.21 1.77-.37.15-1.88.27-2.06.17ZM32.53 45c.8-.95.13-1.95-1.17-1.76-.6.09-.7.53-.34 1.49.23.6 1.1.76 1.51.27Zm12.06-.08c.19-.14.27-.3.29-.59.05-.62-.2-.77-1.29-.81l-.89-.04v1.75l.81-.06c.59-.04.89-.11 1.08-.25Zm-8.79-1.13c0-.12 1.77-2.36 2.03-2.58.25-.2.26-.17.34 1.32l.06 1.37h-1.21c-.8 0-1.22-.04-1.22-.11Zm2.1-1.14c0-.58-.02-1.05-.05-1.05-.05 0-1.65 1.97-1.65 2.04 0 .03.38.06.85.06h.85zm4.54-.18c-.03-.08-.04-.47-.02-.88l.03-.74.83.02c1.17.02 1.61.39 1.36 1.12-.18.51-2.03.91-2.2.48Zm1.68-.29c.79-.4.28-1.08-.82-1.08h-.6v1.31l.63-.07c.34-.04.7-.11.79-.16ZM9.3 37.61c0-.29 1.49-7.3 2.06-9.73.23-.98.43-1.33.56-.99.07.2 1.66 1.24 2.75 1.79 4.61 2.34 9.09 3.5 15.61 4.03 1.51.12 5.69.07 6.55-.09.56-.1.64-.04.37.31-.61.77-.75 1.32-.8 3.12l-.05 1.7-13.52.03c-13.36.02-13.53.02-13.53-.17Zm28.43-.49c-.37-2.99.55-4.55 2.95-5.02 3.05-.6 5.19 1.8 4.68 5.24l-.07.46h-7.47zm-1.63-.81c0-1.43.11-2.08.49-2.84l.28-.58-.86.08c-7.67.71-18.03-1.57-23.26-5.12-.61-.41-.97-.6-1-.52-.14.41-2.15 9.81-2.15 10.06 0 .08 3.47.11 13.25.11H36.1zm8.98-.19c-.04-1.59-.22-2.07-1.06-2.91-1.28-1.27-3.68-1.26-5.08.02-.98.89-1.17 1.58-.97 3.6l.06.67h7.09zm-14.23-4.63c-4.63-.44-11.04-1.86-13.79-3.06-1.38-.6-3.33-1.88-4.47-2.94l-.37-.34.09-.87c.4-4.2 4.29-8.74 8.99-10.49.73-.27.74-.28.35-.28-1.28-.02-4.18.74-4.96 1.3-3.13 2.25-5.15 5.72-5.75 9.94-.37 2.56-.91 5.06-1.1 5.12-.2.07-1.07-.81-1.3-1.32-.39-.83-.39-.86 1.01-19.35.12-1.48.49-2.33 1.4-3.19 1.88-1.78 5.3-1.11 6.46 1.25.41.82.42 1.52.05 4.43-.14 1.12-.26 2.14-.26 2.26v.22l.98-.29c1.25-.38 2.16-.55 3.29-.64l.91-.07.06-.96c.03-.53.09-1.73.12-2.66.08-2.21.34-2.75 1.29-2.75 1.2.01 1.4.74 1.1 4.05-.08.88-.15 1.72-.15 1.88V13h1.65c4.74 0 8.2 1.07 11.28 3.48.51.41.59.44.75.3.09-.08.51-.43.92-.79 1.52-1.33 3.14-2.59 3.32-2.59.55 0 1.18.67 1.18 1.25 0 .5-.16.67-2.51 2.77l-1.36 1.21.54.76c1.78 2.47 2.88 6.4 2.53 9.02-.15 1.18-.14 1.15-.93 1.53-2.73 1.29-7.35 1.92-11.32 1.55Zm5.58-.35c2.34-.29 4.72-.92 5.88-1.56.6-.33.75-1.69.44-3.87-.36-2.48-1.22-4.64-2.59-6.46-.53-.71-.63-.53 1.09-2.06 2.28-2.02 2.35-2.1 2.35-2.53s-.44-.96-.79-.96c-.22 0-1.1.68-3.09 2.37-1.52 1.3-1.39 1.25-2 .74-2.82-2.34-6.02-3.39-10.64-3.48-2.44-.05-2.58-.06-2.58-.24 0-.11.09-1.24.21-2.52.11-1.27.18-2.46.14-2.63-.15-.81-1.13-1.15-1.66-.56-.29.32-.31.55-.45 4.24-.04.97-.1 1.81-.13 1.86-.03.06-.49.27-1.01.47-5.08 2-8.64 6.12-9.04 10.47l-.06.67.76.63c2.79 2.31 5.64 3.45 11.45 4.57 5.16 1 8.53 1.25 11.72.85ZM9.99 28.53c.12-.54.33-1.65.47-2.48.13-.82.3-1.91.38-2.4.53-3.19 2.98-7.16 5.5-8.9l.54-.37.06-.66c.04-.37.16-1.37.28-2.22.43-3.21.29-4.11-.77-5.09-1.13-1.05-3.37-1.45-4.54-.82-1.54.82-1.99 1.87-2.21 5.16-.05.88-.21 3.02-.35 4.75-.51 6.51-.86 11.86-.8 12.23.1.67.81 1.77 1.14 1.77.04 0 .18-.44.3-.97Zm20.96-1.89c-2.05-1.06-1.67-4.54.5-4.54 1.11 0 1.85.91 1.93 2.36.1 1.79-1.11 2.87-2.43 2.18Zm1.42-.24c1.12-.68 1.02-3.05-.15-3.82-.67-.44-1.68-.13-2.12.64-.93 1.66.8 4.08 2.27 3.18ZM17.7 22.23c-.99-.52-.97-2.15.05-3.15 1.32-1.3 3.25-.86 3.25.74s-2.02 3.08-3.3 2.41Zm1.55-.32c1.92-.87 2.07-3.31.2-3.31-1.14 0-2.07.88-2.22 2.09-.13 1.16.85 1.76 2.02 1.22Z"/></svg>