<svg xmlns="http://www.w3.org/2000/svg" width="51" height="51" viewBox="0 0 51 51"><path fill="#fff" fill-rule="evenodd" stroke="#fff" stroke-width=".473" d="M8.29 44.21C8 43.92 8 43.91 8 42.68l-.01-1.23-.32-.2c-.5-.31-.45-.99.09-1.23.23-.11.24-.15.24-1.13 0-1.85.06-1.89 3.13-1.89 2.54 0 2.77.07 2.77.9 0 .61-.3.7-2.31.7H9.8v1.3h1.24c1.43 0 1.76.14 1.76.74 0 .64-.13.7-1.62.76l-1.33.05-.03.73-.03.72h1.58c.87 0 1.75.05 1.95.1.67.19.88.81.43 1.25l-.24.25H8.58zm8.43.22c-.29-.11-.42-.62-.42-1.62 0-.98 0-1-.31-1.3-.36-.37-.34-.73.06-1.06.22-.19.24-.27.27-1.58.04-1.9.01-1.87 2.12-1.87 1.85 0 2.39.13 2.96.7 1.07 1.07.79 3.01-.52 3.68-.41.21-1.44.37-2.65.42-.09 0-.13.23-.13.82 0 1.56-.47 2.18-1.38 1.81Zm5.78-.18c-.34-.36-.29-.61.53-2.76.41-1.06.92-2.43 1.13-3.04.49-1.4.63-1.55 1.47-1.55.89 0 .94.07 1.88 2.71 1.58 4.39 1.54 4.2 1.14 4.63-.52.56-1.25.22-1.55-.71-.21-.63-.22-.63-1.5-.63-1.3 0-1.27-.01-1.54.7-.35.91-1.04 1.2-1.56.65Zm7.96-.06c-.24-.29-.26-.37-.26-1.36 0-1-.01-1.06-.25-1.25-.37-.29-.3-1.18.1-1.18.11 0 .14-.3.17-1.46.04-1.98 0-1.94 2.12-1.94C35 37 36 37.63 36 39.34c0 .81-.62 1.89-1.2 2.08-.12.04-.06.24.32.99.52 1.03.59 1.44.28 1.77-.6.64-1.03.35-1.84-1.2-.59-1.13-.62-1.16-.99-1.22-.55-.09-.57-.05-.57 1.1 0 1.03-.01 1.06-.29 1.35-.41.41-.9.4-1.25-.02Zm7.19.06-.25-.24v-6.62l.25-.24c.26-.27.6-.32.98-.14.39.18.5.48.56 1.52l.06.99.94-1.17c1.26-1.55 1.54-1.72 2.15-1.24.45.35.35.62-.64 1.89-.49.63-.88 1.18-.87 1.22s.52.67 1.14 1.41c1.64 1.97 1.69 2.07 1.27 2.56-.54.65-.84.48-2.35-1.34-1.28-1.54-1.13-1.43-1.44-1.07-.21.23-.24.37-.25 1.05 0 .85-.17 1.39-.48 1.56-.35.19-.81.13-1.07-.14Zm-23.98-.21c.15-.24.15-.29.02-.53-.18-.33-.58-.39-2.62-.4l-1.48-.01.03-.92.03-.93L11 41.2c1.5-.06 1.6-.09 1.6-.49 0-.48-.21-.56-1.64-.61l-1.31-.05-.03-.82-.03-.82 1.96-.03c2.08-.03 2.14-.05 2.15-.54 0-.57-.08-.59-2.64-.59-2.97.01-2.79-.09-2.84 1.66-.04 1.19-.04 1.2-.3 1.3-.53.2-.56.61-.07.9l.35.21v1.24c0 1.19.01 1.26.25 1.49l.24.25h4.81zm3.93.06c.16-.16.2-.33.2-.87 0-.38.03-.91.06-1.19l.07-.52 1.16-.04c1.9-.06 2.61-.58 2.69-1.98.1-1.74-.75-2.3-3.5-2.3-1.79 0-1.78-.01-1.78 1.88 0 1.38 0 1.39-.25 1.5-.19.09-.25.19-.25.42 0 .21.08.34.25.46.24.16.25.2.25 1.3 0 1.26.12 1.54.65 1.54.14 0 .34-.09.45-.2Zm5.94.01c.09-.1.27-.45.39-.77l.23-.59 1.25-.03c1.61-.04 1.6-.04 1.83.6.32.93.81 1.23 1.27.77.28-.28.25-.41-.7-3-.43-1.18-.88-2.44-1-2.81-.33-1-.51-1.18-1.17-1.18-.73 0-.81.1-1.38 1.71-.26.74-.77 2.09-1.12 3.02-.35.92-.64 1.77-.64 1.89 0 .51.69.78 1.04.39Zm8.02-.02c.16-.17.2-.42.24-1.37l.05-1.17h1.2l.65 1.25c.76 1.46 1.03 1.7 1.44 1.31.36-.34.33-.58-.24-1.67-.59-1.13-.58-1.08-.21-1.24 1.14-.47 1.47-2.26.6-3.25-.51-.58-1.01-.7-2.86-.7-2.1 0-1.97-.12-2.01 1.85-.03 1.44-.04 1.49-.25 1.52-.32.04-.32.69.01.83.21.09.22.15.22 1.21 0 .97.03 1.15.21 1.38.25.32.68.35.95.05Zm7.14.03c.2-.16.22-.26.21-1.08-.01-.9 0-.92.36-1.38.2-.26.41-.45.46-.43.06.02.65.68 1.32 1.48 1.37 1.62 1.63 1.8 2 1.37.33-.39.28-.49-1.16-2.22-.71-.84-1.29-1.6-1.29-1.67 0-.08.41-.66.9-1.29.5-.63.9-1.21.9-1.29 0-.21-.3-.51-.51-.51-.35 0-.51.15-1.53 1.39-1.43 1.76-1.36 1.72-1.36.65-.01-1.55-.2-2.04-.77-2.04-.61 0-.63.09-.63 3.58 0 2.71.02 3.21.16 3.4.19.27.63.29.94.04Zm-14.1-2.59c0-.38.88-2.93 1.01-2.93.08 0 .99 2.76.99 2.99 0 .07-.33.11-1 .11-.89 0-1-.02-1-.17Zm1.41-1.18c-.2-.63-.39-1.15-.42-1.15-.04 0-.21.46-.39 1.03-.18.56-.35 1.08-.37 1.15-.04.09.15.12.75.12h.79zm-8.07.16c-.02-.02-.04-.55-.04-1.18V38.2h.88c1.22 0 1.61.27 1.62 1.12 0 .83-.36 1.12-1.5 1.18-.5.03-.94.03-.96.01Zm13.88-1.13.03-1.13.79-.03c1.23-.05 1.76.29 1.76 1.12 0 .84-.49 1.16-1.75 1.16h-.86zm-11.91.63c.21-.22.29-.39.29-.66 0-.72-.35-.95-1.46-.95h-.64v1.9h.76c.7 0 .78-.02 1.05-.29Zm14 0c.37-.38.39-.88.05-1.28-.23-.26-.31-.28-1.1-.32l-.86-.03v1.92h.81c.76 0 .82-.02 1.1-.29ZM17.58 33.2c-2.01-.36-3.68-1.28-5.06-2.75-2.43-2.6-2.82-7-.87-10 .44-.69 14.43-14.78 15.4-15.52 7.2-5.46 16.9 3.28 12.18 10.97-.5.81-13.92 14.41-15.38 15.59-1.66 1.33-4.34 2.07-6.27 1.71Zm2.89-.36c2.12-.44 2.27-.56 8.78-6.99 9.42-9.31 9.92-9.87 10.58-11.8.42-1.24.46-3.44.09-4.65C38.15 3.77 31.48 1.64 27 5.28c-1.18.95-14.71 14.58-15.14 15.25-1.91 2.95-1.57 7.2.79 9.75 2.09 2.25 4.89 3.17 7.82 2.56Zm6.13-14.22c-5.84-5.87-5.94-5.97-5.84-6.13.31-.49 6.7-6.63 7.31-7.03 4.53-2.93 10.57-.09 11.25 5.29.2 1.58-.16 3.35-.93 4.58-.34.53-7.25 7.57-7.44 7.57-.05 0-2.01-1.92-4.35-4.28ZM37.57 16c2.88-3.33 1.71-8.7-2.35-10.73-1.25-.62-2.15-.81-3.56-.74-2.53.12-3.36.69-8.36 5.71l-2.35 2.36.95.97c.52.54 2.77 2.81 5 5.05l4.05 4.08 2.98-2.98c1.65-1.63 3.28-3.31 3.64-3.72Z"/></svg>