<svg xmlns="http://www.w3.org/2000/svg" width="51" height="51" viewBox="0 0 51 51"><path fill="#fff" fill-rule="evenodd" stroke="#fff" stroke-width=".693" d="m21.34 50.81.06-.4-1.06-.55c-2.61-1.36-4.67-3.4-5.61-5.56-.18-.41-.38-.76-.45-.78-.07-.01-2.07.23-4.43.53-4.75.62-5.19.64-5.65.2-.42-.41-.43-.44-1.1-5.46-.67-5.08-.68-5.21-.4-5.66.38-.63.3-.61 3.92-1.08 10.37-1.36 9.21-1.15 9.43-1.73.95-2.55 3.32-4.88 6.16-6.04.43-.17.79-.36.79-.4s-.27-.97-.59-2.07c-1.78-5.93-2.22-10.87-1.22-13.51 1.06-2.79 4.22-2.89 5.86-.19 1.15 1.88 1.6 4.89 1.6 10.74v3.9h1.65c.91 0 2.2.04 2.86.08l1.21.08.07-.48c.42-3.23.68-8.03.42-8.03-.09 0-.59.05-1.11.12-1.65.2-2.49-.12-3.02-1.15-1.77-3.42 4.94-8.51 8.7-6.6 2.73 1.38 3.15 5.39 1.36 13.09-.38 1.66-.99 3.97-1.14 4.36-.05.12.09.25.62.54 2.93 1.61 4.89 3.94 5.65 6.69.39 1.44.31 4.29-.18 5.87-.04.13.04.19.33.27 2.57.71 2.72 5.37.28 8.56-1.05 1.37-2.73 2.74-4.41 3.61-.97.51-1.01.55-.85 1.12.08.25.07.32-.04.32-.13 0-.35-.57-.35-.9 0-.09.36-.34.83-.59 1.96-1.03 3.89-2.63 4.88-4.04 2.11-3.01 1.79-7.58-.57-7.85-.4-.04-.45-.07-.41-.26.03-.12.15-.64.27-1.16 1.09-4.59-1.03-8.96-5.48-11.36-.48-.26-.88-.48-.89-.49-.01 0 .11-.48.28-1.06 2.79-9.66 2.66-15.1-.4-16.56-3.32-1.58-9.47 2.81-8.41 6.01.4 1.22 1.36 1.55 3.58 1.24.45-.06.85-.08.89-.04.13.13-.34 6.68-.61 8.31l-.11.7-.4-.02c-.22-.01-1.61-.06-3.1-.1-2.61-.08-2.7-.09-2.7-.28 0-.11.04-1.23.08-2.5.32-8.93-1.26-13.86-4.46-13.85-3.54.01-4.03 6.38-1.21 15.74.3.99.53 1.85.5 1.91-.02.05-.4.25-.84.43-2.81 1.15-5.14 3.35-6.04 5.69-.17.46-.38.85-.47.88-.09.02-2.9.41-6.26.85-7.13.95-6.93.89-6.88 2.14.05 1.27 1.23 9.47 1.4 9.76.41.69.32.69 5.56.01 4.73-.61 4.97-.62 4.97-.27 0 .3.93 1.98 1.47 2.67 1.11 1.39 2.87 2.77 4.63 3.61l.88.43c.02.02-.02.23-.09.49-.14.57-.34.62-.25.07Zm1.16.35c0-.03.07-.35.15-.71.19-.82.2-.82-.94-1.29-2.58-1.07-4.85-3.15-5.8-5.3-.2-.46-.27-.86-.15-.86.09 0 4.68-.6 4.99-.65.25-.04.42.03.9.4 3.15 2.37 9.28 3.12 14.83 1.8 2.56-.61 4.28-1.65 6.75-4.07.73-.72 1.49-1.39 1.69-1.49 1.9-.97 2.62 2.27 1.17 5.29-.78 1.62-2.96 3.56-5.27 4.7-1.31.64-1.31.64-1.09 1.5.1.36.15.67.12.7-.11.11-.25-.15-.39-.78-.2-.86-.11-1.04.74-1.4 2.39-1.01 4.76-3.04 5.66-4.85 1.12-2.25.96-5.05-.29-5.05-.52 0-.76.18-2.32 1.7-3.26 3.18-5.95 4.32-10.95 4.59-4.34.24-7.94-.51-10.4-2.17l-.94-.64-1.66.21c-3.85.51-3.48.35-3.01 1.29.95 1.87 2.77 3.55 4.98 4.58 1.78.83 1.68.76 1.71 1.12.04.38-.24 1.42-.38 1.42-.06 0-.1-.02-.1-.04Zm5.9-7.07c-2.5-.3-4.66-1.01-5.8-1.88-.24-.19-.24-.2-.07-.56.23-.48.22-.79-.12-3.27-.17-1.17-.42-3.07-.56-4.22-.5-4.01-.37-3.89-3.51-3.41-1.07.16-1.13.11-.86-.54.94-2.26 3.77-4.45 6.98-5.4 3.9-1.15 9.51-1.06 13.09.2 4.85 1.7 7.38 4.81 7.38 9.09 0 2.78-.39 3.65-2.61 5.81-2.72 2.66-4.11 3.4-7.47 4-1.36.24-5.11.35-6.45.18Zm5.8-.34c3.75-.57 4.95-1.17 7.98-4.04 1.56-1.48 1.92-2.01 2.29-3.41.25-.92.25-3.49 0-4.4-1.22-4.49-5.92-7.33-12.65-7.66-6.46-.31-12.07 2-13.96 5.74-.34.67-.4.64.84.46 2.64-.37 2.86-.21 3.2 2.24.92 6.51 1.12 8.34.96 8.81-.18.55-.19.53.89 1.08 1.45.74 2.99 1.11 5.7 1.37.8.08 3.73-.04 4.75-.19ZM5 43.18c-.09-.23-.19-.9-.85-5.91-.41-3.1-.43-3.53-.17-3.61.09-.03 1.41-.21 2.92-.41s5.06-.67 7.89-1.06c6.05-.81 5.57-.78 5.7-.36.1.31 1.03 7.13 1.17 8.54.07.8.04.85-.71.96-1.62.25-15.5 2.07-15.75 2.07-.06 0-.15-.1-.2-.22Zm3.04-.38c3.34-.43 12.75-1.69 13.08-1.76.25-.05.28-.1.28-.49 0-.58-1.09-8.68-1.18-8.76-.04-.04-.83.04-1.77.17-.93.13-3.93.53-6.65.89-7.41.98-7.71 1.03-7.77 1.08-.03.03 0 .43.06.89l.51 3.88c.57 4.38.58 4.4.82 4.4.12 0 1.29-.14 2.62-.3Zm21.66.06c-1.51-.42-2.5-1.38-2.86-2.77-.15-.56-.16-.68-.03-.93.26-.54 1.05-.51 1.21.04.04.14.12.44.18.68.62 2.38 5.09 2.26 5.61-.15.15-.71.32-.93.74-.93 1.45 0 .43 2.79-1.36 3.71-.92.47-2.49.62-3.49.35Zm2-.17c1.43-.22 2.68-1.13 3.09-2.24.34-.91.24-1.45-.28-1.45-.19 0-.41.32-.41.59 0 .67-.64 1.52-1.46 1.94-1.73.89-4.45-.05-4.69-1.62-.18-1.14-1.04-1.29-.92-.15.2 1.95 2.36 3.3 4.67 2.93Zm-1.36-4.83c-.69-.31-.97-1.16-.55-1.67.31-.39 1.99-.42 2.36-.05.91.91-.54 2.3-1.81 1.72Zm1.09-.17c.65-.18.98-.97.57-1.34-.3-.27-1.7-.28-1.99-.01-.7.63.37 1.65 1.42 1.35ZM37 35.27v-2.64l.01-2.52-.68-.03-.68-.03v-1.6l1.2-.03c.66-.02 1.35 0 1.53.03l.32.06v2.77c0 1.52-.03 3.07-.07 3.45l-.06.67h-.78c-.56 0-.79-.04-.79-.13Zm-13.43-.04c-.04-.03-.07-1.25-.07-2.7V29.9h-1.31l.03-.78.03-.77 1.3-.03c1.94-.04 1.75-.27 1.75 2.02 0 1.06-.03 2.61-.07 3.44l-.06 1.52h-.77c-.42 0-.8-.03-.83-.07ZM38.4 31.9v-3.2h-2.5v1.1h1.3v5.3h1.2zM25 31.8v-3.2h-2.6v1.09l.68.03.67.03.03 2.63.02 2.62H25zm12.7-7.81c-.14-.06-.65-.21-1.14-.34s-.9-.26-.93-.28c-.02-.03.08-1.09.22-2.36.3-2.78.51-6.18.41-6.84-.15-1-.41-1.09-2.57-.92-1.28.1-1.54.04-1.79-.38-1.27-2.07 3.68-5.97 6.55-5.17 2.55.71 2.84 5.15.84 13.14-.8 3.2-.91 3.42-1.59 3.15Zm-13.34-.28c-.14-.23-1.12-3.46-1.4-4.63-1.69-6.86-1.28-11.68.98-11.68 2.38 0 3.51 3.7 3.49 11.4-.01 4.08-.04 4.31-.53 4.42-.19.04-.84.18-1.43.31s-1.09.21-1.11.18Zm14.03-.53c.86-2.6 1.85-7.74 1.98-10.21.25-4.92-2.14-6.5-6.02-3.99-2.61 1.68-3.31 4.28-1.11 4.08 2.6-.23 2.83-.19 3.12.49.28.67.13 4.41-.31 7.96-.21 1.74-.23 1.66.28 1.79.23.06.67.19.97.3.84.28.86.28 1.09-.42Zm-12.48 0c.72-.15 1.11-.28 1.15-.38.03-.08.08-1.48.11-3.1.13-7.16-.72-11.05-2.62-11.91-3.01-1.37-3.2 5.81-.4 14.54.29.89.42 1.17.53 1.12.08-.03.63-.15 1.23-.27Z"/></svg>