<svg xmlns="http://www.w3.org/2000/svg" width="51" height="51" viewBox="0 0 51 51"><path fill="#fff" fill-rule="evenodd" stroke="#fff" stroke-width=".703" d="M23.8 49.13C11.11 47.91 1.99 38.03 1.97 25.5 1.95 13.47 10.46 3.78 22.55 2.08c1.38-.19 5.24-.16 6.65.05 13.98 2.14 22.82 15.78 19.21 29.63C45.6 42.52 34.73 50.19 23.8 49.13Zm3.5-.23c12.39-.93 21.66-11.01 21.64-23.55C48.92 13.9 41.06 4.59 29.6 2.43c-1.66-.31-6.41-.26-8.31.09C12.89 4.08 6.04 9.99 3.37 18c-1.55 4.66-1.57 10.08-.05 14.8.42 1.28 1.25 3.3 1.37 3.3.03 0 1.19-.98 2.56-2.16 2.84-2.45 4.1-3.54 9.26-7.96 2.01-1.72 6.19-5.31 9.29-7.96 3.09-2.66 5.77-4.9 5.96-4.98.43-.18 4.96-.2 5.55-.03.5.16 1.05.61 1.32 1.12l.22.42v22.1l-.22.4c-.66 1.23-1.04 1.35-4.16 1.35h-2.53l-.54-.32c-.39-.25-.61-.47-.84-.88l-.31-.55V25.9c0-5.91.03-10.92.07-11.13l.07-.38-.28.23c-.34.28-6.78 5.81-10.61 9.13-1.51 1.3-3.39 2.91-4.17 3.57-.79.66-1.45 1.22-1.47 1.26s1 .05 2.27.03c2.92-.04 3.21.01 3.93.73.72.73.76.96.72 4.48-.03 3.21-.05 3.3-.9 4.02-.6.52-.86.56-3.51.56-2.99 0-3.45-.17-4.02-1.53-.18-.43-.22-6.06-.05-6.66.13-.47.15-.48-.75.32-.92.82-6.17 5.35-6.54 5.65l-.25.19.59 1.01c3.79 6.56 11 10.99 18.75 11.52 1.59.11 1.75.11 3.2 0Zm-4.64-10.7c-.55-.28-.82-.55-1.11-1.14l-.25-.5v-6.47c0-7.55-.01-7.45 1.12-8.09.68-.38 4.55-.5 5.81-.18.52.13 1.22.79 1.44 1.36.27.71.28 13.02 0 13.73-.22.57-.79 1.14-1.36 1.34-.72.25-5.12.21-5.65-.05Zm-3.26-.3c.24-.14.58-.44.74-.68l.31-.43.08-2.02c.23-5.66.09-5.86-4.06-5.87-3.98 0-3.91-.08-4.01 4.2-.08 3.37-.04 3.68.57 4.35.65.71.85.75 3.57.72 2.3-.02 2.36-.03 2.8-.27Zm9.07.03c.47-.25.84-.71 1.02-1.22.16-.48.16-12.84 0-13.32-.42-1.24-.9-1.43-3.68-1.47-2.94-.04-3.52.11-4 1.06-.23.46-.43 12.81-.21 13.6.11.44.66 1.14 1.04 1.34.69.37 5.14.38 5.83.01Zm8.66.16c.49-.13 1.05-.63 1.28-1.14.18-.38.19-.98.19-11.36V14.63l-.23-.44c-.16-.29-.4-.54-.72-.74l-.48-.3-2.38-.03c-2.74-.04-3.01.01-3.63.61-.69.66-.66.1-.66 12.02 0 10.3.01 10.82.19 11.2.24.51.68.93 1.17 1.1.48.17 4.68.21 5.27.04Z"/></svg>