<svg xmlns="http://www.w3.org/2000/svg" width="51" height="51" viewBox="0 0 51 51"><path fill="#fff" fill-rule="evenodd" stroke="#fff" stroke-width=".756" d="m13.66 40.89-.26-.31V26.42c0-16.01-.06-14.72.76-14.88.5-.09 2.36.01 2.62.15.17.09.65.79 1.67 2.45.09.14.18.1.75-.3 3.74-2.63 9.31-3 13.53-.88 5.97 2.99 8.68 9.74 6.52 16.21-2.53 7.55-11.15 11.03-18.56 7.49l-.69-.33v4.25l-.26.31-.26.31h-5.56zm5.9-.1c.17-.19.19-.41.22-2.5.02-1.26.04-2.29.06-2.29s.46.2.97.44c5.04 2.39 10.5 1.68 14.57-1.87 5.04-4.39 5.83-12.3 1.77-17.68-4.05-5.39-12-6.71-17.67-2.93-.59.39-1.03.62-1.07.56-.03-.05-.33-.53-.66-1.07-.33-.53-.73-1.12-.88-1.31l-.28-.34H15.3c-1.46 0-1.55.04-1.65.73-.03.23-.05 6.65-.03 14.25l.03 13.84.24.19c.38.31 5.39.29 5.67-.02Zm5.54-9.2c-6.4-1.65-7.24-10.32-1.27-13.09 4.52-2.09 9.65 1.01 9.85 5.96.19 4.7-4.12 8.29-8.58 7.13Zm2.8-.13c6.43-1.16 7.62-9.98 1.72-12.73-4.62-2.15-9.85 1.35-9.59 6.42.21 4.04 3.93 7.02 7.87 6.31Z"/></svg>