<svg xmlns="http://www.w3.org/2000/svg" width="51" height="51" viewBox="0 0 51 51"><path fill="#fff" fill-rule="evenodd" stroke="#fff" stroke-width=".732" d="M23.1 40.7C15.53 39.65 9.6 34.2 8 26.85c-.3-1.4-.39-3.53-.37-8.25.04-5.27.08-5.43 1.42-5.78.82-.22 27.81-.19 28.05.03.44.4.33.57-1.85 2.73l-2.05 2.03-9.17-.07c-9.97-.08-10.43-.06-10.79.33l-.24.26v3.16c0 4.01.2 5.31 1.16 7.48 1.51 3.4 5.42 6.21 9.41 6.74 6.18.82 12.14-3.39 13.56-9.58l.14-.61-1.89-.04c-2.89-.05-2.89-.02.02-3.18 4.22-4.57 4.49-4.82 4.94-4.58.32.17 5.14 5.48 5.99 6.59.3.4.35.8.11 1-.11.09-.7.14-2.02.18l-1.87.06-.07.6c-.75 6.1-5.91 12.08-12.09 14.04-2.17.68-5.28.99-7.29.71Zm5.38-.49c7.2-1.55 12.88-7.57 13.77-14.59.08-.64-.02-.61 2.22-.64 1.83-.03 1.89-.04 1.8-.4-.08-.32-5.44-6.39-5.97-6.76-.28-.2-.41-.09-2.11 1.7-3.95 4.17-4.88 5.25-4.67 5.4.02.01.91.04 1.98.07l1.95.06-.02.53c-.08 1.79-1.64 4.73-3.53 6.63-4.92 4.94-12.64 4.91-17.66-.06-1.82-1.8-2.9-3.96-3.39-6.79-.21-1.24-.22-6.9-.01-7.41.3-.71-.32-.67 10.54-.66l9.75.01 1.94-1.92c1.83-1.82 2.09-2.16 1.81-2.35-.2-.12-27.35-.04-27.82.08-.5.13-.91.55-1.05 1.05S7.86 23.08 8 24.74c.66 7.92 6.66 14.3 14.67 15.61 1.29.21 4.56.13 5.81-.14Z"/></svg>