<svg xmlns="http://www.w3.org/2000/svg" width="51" height="51" viewBox="0 0 51 51"><path fill="#fff" fill-rule="evenodd" stroke="#fff" stroke-width=".393" d="M8.86 46.84c-.08-.2-.08-42.18 0-42.38.06-.15 1.63-.16 16.8-.16H42.4l.02 8.97.03 8.97.35-.31c.19-.16.41-.28.48-.26.07.03.4-.21.74-.52.59-.55.63-.57 1.05-.52.83.09 1.72.98 1.8 1.81l.04.41-2.25 2.3-2.25 2.3-.01 9.78V47H25.66c-15.17 0-16.74-.01-16.8-.16Zm4.12-.14c.04 0 .07-9.5.07-21.1l.01-21.1H9.1v42.2l1.78.02c.97.02 1.83.02 1.9.01.08-.02.17-.03.2-.03Zm29.05 0c.06-.06.14-14.9.08-14.9-.02 0-.93.67-2.02 1.49l-1.99 1.5.5.03c.78.05.65.23-.19.26l-.74.03-1.1.87-1.09.87 1.81.05c2.54.07 2.41.24-.24.3l-2.1.05-1.1.85-1.1.85 3.23.03c2.03.01 3.22.06 3.22.12 0 .13-.16.13-1.71.1-.69-.01-2.16.01-3.26.05l-1.99.07-1.13.87-1.12.86 4.57.05c3.53.04 4.58.08 4.62.18.03.09-.98.12-4.82.12h-4.85l-1.16.88-1.15.87 6.01.03c4.73.02 6 .05 5.96.15-.03.09-1.4.12-6.28.13l-6.24.01-.8.4c-.44.22-1.09.53-1.45.68s-1 .45-1.42.66c-.96.47-1 .42-.43-.7.25-.5.45-.96.45-1.02 0-.07-.79-.1-2.72-.08-2.02.02-2.73 0-2.76-.09s.67-.12 2.81-.12h2.84l.6-.92.61-.93-3.44-.03c-2.18-.01-3.44-.06-3.44-.12s1.22-.1 3.38-.1c3.98 0 3.59.08 4.5-.96l.73-.84-4.27-.02c-3.31-.02-4.28-.06-4.32-.16-.03-.09.91-.12 4.46-.12h4.5l.82-.9.82-.9-5.26-.02c-3.4-.02-5.27-.07-5.29-.13-.01-.07 1.86-.11 5.43-.13l5.46-.02.89-.9.9-.9h-6.38c-4.18 0-6.37-.03-6.37-.1 0-.05.06-.1.12-.1.07 0 2.99-.02 6.48-.05l6.34-.05.91-.9.9-.9h-7.38c-4.05 0-7.37-.04-7.37-.08 0-.14 3.6-.22 9.49-.22l5.55.01.89-.91.89-.9H24.7c-9.06 0-9.61-.01-9.58-.17.03-.17.6-.17 9.78-.14l9.75.03.59-.62c.54-.56.57-.62.4-.74-.53-.39.98-2.09 4.11-4.65.71-.58 1.57-1.31 1.89-1.63l.59-.57-.06-.83c-.04-.46-.07-2.63-.07-4.83v-4l-10.98-.02c-11.71-.02-16.16-.09-16.06-.25.04-.06 4.93-.07 13.23-.02 13.16.07 13.91.06 13.91-.21 0-.13-1.51-.15-11.58-.15-11.43 0-14.92-.05-14.92-.22 0-.04 5.94-.08 13.2-.08h13.2v-1.6h-8.93c-9.92 0-15.29-.08-15.24-.23.02-.06 4.55-.09 12.16-.08 11.2.02 12.13.01 12.07-.14-.03-.09-.06-.34-.06-.56V8.8l-11.57-.02c-9.12-.02-11.57-.06-11.6-.15-.04-.1 2.35-.13 11.59-.15l11.63-.03.03-.87.03-.88H31.5c-9.44 0-10.7-.02-10.7-.15s1.25-.15 10.64-.15c9.61 0 10.64-.02 10.7-.16.08-.2.08-.69 0-1.25l-.06-.44-14.24-.01-14.24-.02v42.25l14.19-.01c7.81-.01 14.22-.03 14.24-.06Zm-16.51-3.25c.94-.65.98-1.16.13-1.8-.72-.56-.82-.51-1.68.79l-.76 1.16.42.39.41.39.38-.21c.2-.12.7-.45 1.1-.72Zm2.45-1.24c1.12-.83 1.22-.97.65-.86-.36.06-1.57 1.11-1.84 1.59-.14.25-.05.2 1.19-.73Zm.32-1.18c.91-.87 5.41-5.32 9.98-9.89 8.79-8.77 8.5-8.44 8.28-9.06-.02-.08-4.15 3.96-10.13 9.91-10.04 9.98-10.09 10.04-9.98 10.32.14.38-.04.5 1.85-1.28Zm10.61-11.9 7.44-7.42-.29-.3c-.36-.39-1.06-.67-1.31-.53-.5.28-14.41 14.36-18.67 18.9l-1.18 1.25.37.13c.21.07.49.24.63.38l.25.26 2.66-2.63c1.47-1.44 6.01-5.96 10.1-10.04ZM30.66 40.2l1.15-.9h-.68l-.68.01-.93.89-.93.9h.46c.43 0 .54-.07 1.61-.9Zm2.72-2.08 1.1-.87-.96-.03-.96-.03-.9.91-.91.9h1.54zM36.12 36l1.1-.9h-2.5l-.93.9-.92.9h2.14zm3.72-2.87c1.22-.91 2.23-1.68 2.26-1.71.03-.02.05-.87.05-1.88V27.7l-2.48 2.48-2.47 2.47.97.05c1.49.08 1.39.3-.14.3h-1.18l-.9.9-.9.9h2.59zm-3.39-4.54c.34-.3.41-.51.29-.84-.07-.18-.11-.14-.58.68-.32.54-.22.6.29.16Zm4.85-4.76c0-.06-.39.29-2.63 2.36-.92.85-1.67 1.61-1.67 1.69s.97-.79 2.15-1.93 2.15-2.1 2.15-2.12Zm-22.28 1.65c-.08-.08-.12-.5-.12-1.25V23.1h-.35c-.33 0-.35-.02-.35-.34v-.34l1.03-.04c1.31-.06 1.37-.04 1.37.38 0 .33-.01.34-.4.34h-.4v1.19c0 .99-.03 1.2-.16 1.25-.25.09-.49.07-.62-.06Zm2.23.03c-1.21-.53-.6-2.61.7-2.37.79.15 1.28 1.56.54 1.56-.22 0-.29.05-.29.19 0 .34-.57.42-.83.13-.41-.45-.22-.55 1.01-.56.26 0 .29-.23.07-.65-.23-.45-.97-.58-1.28-.23-.9.99.23 2.4 1.2 1.5.33-.31.5-.18.21.16-.26.3-.94.44-1.33.27Zm4.19-.01c-.24-.09-.34-.46-.34-1.21 0-.61-.24-.7-.58-.22l-.23.34.3.41c.42.57.4.68-.13.68-.36 0-.46-.04-.51-.21l-.07-.21-.15.21c-.1.15-.25.21-.54.21-.46 0-.49-.11-.14-.62.31-.46.31-.53 0-1.03-.35-.57-.32-.65.19-.65.36 0 .46.04.51.2.03.11.1.2.15.2s.12-.09.15-.2c.05-.16.15-.2.55-.2.46 0 .49-.02.52-.27.05-.45.76-.47.84-.04.04.17.13.31.2.31.08 0 .14.04.14.09s.03.16.06.25c.04.11-.02.19-.2.26-.34.13-.38.8-.06 1.07.52.45.03.91-.66.63Zm2.81.01-.7-.06-.03-1.3c-.04-1.88-.11-1.76 1.06-1.73l.97.03.03.33.03.32h-.6c-.58 0-.61.01-.61.24s.04.25.53.28c.5.03.52.04.52.33s-.02.3-.52.33c-.51.03-.53.04-.53.33s.01.29.54.29c.56 0 .81.15.7.43-.05.14-.38.28-.59.25-.05-.01-.41-.04-.8-.07Zm1.93-.1c-.81-.64-.41-2.42.52-2.29.27.04.3.02.31-.24.01-.15.02-.34.03-.4.01-.16.49-.33.7-.25.14.06.16.28.16 1.67v1.61l-.42-.01c-.24-.01-.57.02-.73.05-.22.05-.37.01-.57-.14Zm2.25.09c-.22-.09-.23-.15-.23-1.2v-1.1h.5c.44 0 .52-.03.61-.24.21-.46.89-.5.89-.06 0 .19.05.3.14.3.38 0 .42.53.05.63-.3.08-.28.98.04 1.12.47.21.29.6-.27.59-.64-.01-.76-.17-.76-1.06 0-.54-.03-.68-.15-.68s-.15.15-.15.74c0 .94-.16 1.17-.67.96Zm2.9 0c-.67-.27-.84-1.38-.3-1.97.87-.95 2.27-.01 1.88 1.26-.2.69-.88.99-1.58.71Zm1.84.03c-.17-.17-.07-2.32.1-2.36.27-.07 1.06-.03 1.21.06.21.14.15.67-.07.67-.46 0-.51.09-.51.85 0 .57-.03.74-.16.79-.21.08-.49.08-.57-.01Zm-2.73-.22c.03-.05-.05-.12-.19-.15-.35-.09-.4-1.56-.05-1.56.11 0 .2-.04.2-.1 0-.05-.09-.1-.19-.1-.14 0-.21-.08-.23-.28-.04-.34-.32-.36-.36-.03-.02.13-.12.26-.23.28-.26.07-.24.21.04.25.2.03.22.09.27.82.04.67.08.8.25.87.28.11.43.11.49 0Zm2.08-.23c.32-.42.15-1.46-.27-1.62-.81-.31-1.53.44-1.25 1.29.21.65 1.12.84 1.52.33Zm-16.93-.96-.04-1.17.43-.03q.42-.03.42-.18c0-.11-.2-.14-1-.14-.82 0-1 .03-1 .15 0 .11.11.15.4.15h.4v1.2c0 1.16.01 1.2.21 1.2.21 0 .21-.03.18-1.18Zm4.04.85.19-.32.18.23c.1.12.2.27.22.33s.11.1.21.08c.15-.04.13-.1-.13-.48l-.29-.45.34-.48c.3-.42.32-.48.16-.48-.11 0-.28.15-.41.37l-.22.38-.22-.37c-.12-.22-.29-.38-.39-.38-.17 0-.17.04.07.44.32.55.32.59.01 1-.3.39-.31.46-.07.46.09 0 .25-.15.35-.33Zm2.42.23c-.03-.06-.13-.1-.21-.1-.11 0-.14-.16-.14-.75 0-.68.02-.75.2-.75.11 0 .2-.04.2-.1 0-.05-.09-.1-.19-.1-.14 0-.21-.08-.23-.27-.04-.36-.28-.43-.28-.08 0 .18-.06.29-.2.32-.11.03-.2.09-.2.14s.09.09.2.09c.18 0 .2.07.2.78 0 .43.03.82.07.85.11.11.65.08.58-.03Zm3.35 0c0-.06-.27-.1-.6-.1h-.6v-1h.5c.38 0 .5-.04.5-.15s-.12-.15-.5-.15h-.5v-.9h.6c.47 0 .6-.03.6-.15s-.16-.15-.8-.15h-.8v2.7h.8c.47 0 .8-.04.8-.1Zm1.68-.02c.08-.08.15-.08.27.02.26.21.3.04.33-1.36.03-1.3.03-1.34-.17-1.34-.18 0-.21.06-.21.5v.49l-.48-.06c-.6-.07-.74.08-.8.82-.07.86.57 1.42 1.06.93Zm1.72-.67c0-.44.03-.86.06-.95.04-.12 0-.16-.15-.16-.2 0-.21.05-.21.95 0 .78.03.95.15.95s.15-.15.15-.79Zm4.9.09c0-.67.01-.7.3-.85.16-.09.3-.2.3-.25 0-.13-.06-.13-.31.03-.17.09-.23.09-.26 0-.03-.07-.13-.13-.24-.13-.17 0-.19.08-.19.95 0 .88.01.95.2.95.18 0 .2-.07.2-.7Zm-2.2.4c-.4-.4-.15-1.4.35-1.4.29 0 .55.38.55.8s-.26.8-.55.8c-.08 0-.24-.09-.35-.2Zm-5.1-.09c-.15-.3-.12-.97.06-1.15.5-.51 1.05.28.74 1.08-.12.33-.64.37-.8.07Zm.58-.5c.03-.47-.12-.68-.35-.49-.26.21-.13 1.01.16.96.11-.02.17-.16.19-.47Zm5.16.33c.17-.44-.07-1-.39-.88-.17.07-.29.56-.2.84.08.24.5.27.59.04Zm-14.71-.51c-.45-.09-.21-.63.27-.63s.71.52.28.64c-.13.03-.25.05-.28.05-.03-.01-.15-.04-.27-.06Zm10.9-1.3c-.19-.07-.16-.62.03-.7.24-.09.68.1.72.32.07.31-.38.54-.75.38Zm-15.74-2.36c-.9-.26-1.42-.87-1.43-1.72l-.01-.4h.64c.63 0 .65.01.74.3.16.49.36.65.82.65.78 0 .79-.03.85-3.09l.05-2.66.58-.03c.93-.05.89-.18.85 2.83-.03 2.57-.03 2.61-.29 3.1-.47.92-1.63 1.35-2.8 1.02Zm5.79.02c-.99-.16-1.57-.8-1.78-1.96-.36-2.03.88-3.53 2.72-3.29 1.43.19 2.04 1.06 1.96 2.78-.09 1.89-1.11 2.76-2.9 2.47Zm5.17 0c-1.06-.14-1.25-.52-1.25-2.47v-1.51l-.37-.03-.38-.03-.03-.57-.03-.58h.71v-.53c0-.66.11-.77.76-.77.8 0 .84.03.84.7v.59l.43.03.42.03v1.1l-.42.03-.43.03v1.33c0 1.47-.01 1.45.68 1.46.2 0 .22.05.22.59v.59l-.37.03c-.21.02-.56.02-.78-.02Zm2.52-.03c-.69-.25-.97-.66-.97-1.44 0-1.02.65-1.51 2.11-1.6l.89-.05v-.28c0-.71-1.06-.97-1.31-.33-.11.3-1.35.37-1.45.09-.41-1.05 1.92-2.09 3.2-1.43.83.42.97.81 1.02 2.72.03.88.08 1.75.13 1.93.12.42.09.43-.71.43-.65 0-.69-.01-.79-.26-.09-.25-.11-.25-.27-.11-.48.43-1.19.56-1.85.33Zm-11.8-.27c.99-.37 1.13-.82 1.13-3.86V13.9h-.99l-.03 2.61-.03 2.61-.33.29c-.55.49-1.29.34-1.59-.32-.24-.52-1.19-.62-1.07-.11.28 1.14 1.68 1.78 2.91 1.31Zm5.45 0c1.19-.32 1.81-2.47 1.09-3.75-.84-1.5-3.34-1.21-3.9.45-.7 2.1.8 3.86 2.81 3.3Zm4.78-.13c0-.39-.11-.56-.34-.56-.58 0-.76-.72-.61-2.44l.07-.86h.39c.63 0 .6-.57-.03-.62l-.43-.03-.03-.62-.03-.63h-.99v1.2l-.4.06c-.59.1-.61.61-.02.66l.37.03.05 1.67c.05 1.6.06 1.67.3 1.93.48.52 1.7.67 1.7.21Zm3.25-.17.45-.41.1.28c.06.16.13.35.15.42.07.2 1.01.12.96-.08-.02-.08-.07-.95-.1-1.92-.05-1.56-.08-1.8-.26-2.04-.8-1.07-3.45-.73-3.45.44 0 .29.84.23 1.08-.08.55-.7 1.62-.28 1.62.64v.42l-1.03.11c-1.15.12-1.6.3-1.82.73-.72 1.39 1.12 2.58 2.3 1.49Zm4.12-.16c-.04-.03-.07-.46-.07-.95V18H35c-.44 0-.8-.03-.81-.07 0-.05-.02-.27-.05-.51-.07-.72.05-.82.91-.82h.74l.03-.87.03-.88.67-.03c.75-.03.88.11.75.77-.04.16-.03.45 0 .65l.06.36h.66c.88 0 .93.04.89.76l-.03.59-.77.03-.78.03v.79c0 1.09 0 1.1-.74 1.1-.35 0-.66-.03-.69-.07Zm-5.17-.15c-.96-.51-.33-1.5 1.03-1.6l.57-.05v.49c0 .87-.9 1.52-1.6 1.16Zm-8.31-.13c-.8-.43-.85-2.55-.07-3.09.58-.41 1.48-.07 1.68.62.47 1.69-.45 3.1-1.61 2.47Zm14.63-.87.03-.93.78-.03.77-.03v-.79H37v-1.8h-.89l-.03.88-.03.87-.82.03-.83.03v.79H36v.88c0 1.03 0 1.02.56 1.02h.43zm-5.27.6c.16-.14.28-.38.32-.62l.06-.39-.54.06c-.61.08-1.02.33-1.07.67-.08.5.76.68 1.23.28Zm-8.11-.21c.3-.41.3-1.73 0-2.14-.86-1.16-2.11.33-1.53 1.84.27.71 1.1.88 1.53.3Z"/></svg>