<svg xmlns="http://www.w3.org/2000/svg" width="51" height="51" viewBox="0 0 51 51"><path fill="#fff" fill-rule="evenodd" stroke="#fff" stroke-width=".635" d="M11.37 44.13c-.04-.03-.07-.39-.07-.79v-.73l-1.57-.03-1.58-.03-.03-12.47-.02-12.46-.48-.12c-.4-.1-.52-.19-.85-.66-.48-.68-.44-.74.53-.74h.78l.04-4.45c.02-2.93.07-4.48.14-4.55s5.43-.09 17.5-.08l17.39.03.03 1.51.03 1.52.73.07.73.06.07.47c.07.56.07 30.93-.01 32.44l-.06 1.08H28.05c-9.14 0-16.65-.03-16.68-.07ZM44.5 27.2V10.4h-1.3l-.01 15.13c-.01 8.31-.04 15.54-.08 16.05l-.06.93-15.72-.01-15.73-.01V44h32.9zm-1.6-2.45V7.2H26.35c-9.1 0-16.87.03-17.25.06l-.7.07v8.77H9l.02-4.12.03-4.13h.83c.45 0 7.93.02 16.62.03l15.8.02v4.44c0 2.45-.03 4.46-.07 4.48-.05.02-.78.01-1.63-.03-1.43-.07-4.42.03-5.17.17-.92.17-5.57 5.05-8.07 8.48-.98 1.34-1.03 1.48-.43 1.11 2.39-1.47 7-2.85 9.52-2.85.32 0 .47-.09 1.01-.59 1.25-1.17 3.62-2.41 4.61-2.41h.23v21H9v-24h-.6v24.6h34.5zm-.88 16.58c.16-.66.09-5.42-.09-5.58-.1-.09-.94-.61-1.88-1.17-1.78-1.05-3.03-1.93-4.43-3.11l-.83-.69-.97.42c-5.36 2.35-10.57 5.58-13.56 8.4l-.86.81-2.89-.03c-1.59-.02-2.93-.07-2.98-.11-.13-.14.25-.39 2.41-1.62 1.91-1.09 2.05-1.19 2.44-1.74 4.3-6.1 11.24-10.9 17.99-12.45.73-.17.54-.33 2.07 1.71 1.05 1.41 3.38 3.94 3.51 3.81.09-.09.12-8.85.02-8.94-.34-.34-3.2 1.15-4.39 2.29l-.56.54-1.09.12c-3.47.38-6.44 1.32-8.9 2.81-.63.39-1.17.7-1.19.7-.34 0 1.94-3.24 3.68-5.22.38-.42.68-.78.68-.8s-1.83-.03-4.08-.03c-4.05-.01-4.97-.06-7.31-.42-.97-.15-1.04-.18-1.21-.46-.14-.23-.53-.47-1.52-.96-.73-.36-1.34-.71-1.35-.76-.02-.07.98-.11 3.04-.1 4.64 0 7.42-.4 12.08-1.76.77-.23 1.55-.46 1.73-.51.26-.07.38-.21.61-.66.16-.31.38-.68.49-.82l.2-.24.56.47c.45.39.59.46.74.38.3-.16 3.84-1.31 4.03-1.31.35 0 .19.17-1.16 1.25-.75.59-1.35 1.08-1.33 1.1.02.01.39-.02.83-.07s1.85-.07 3.13-.06l2.33.03.06-4.23.06-4.22H9.33l-.08 3.89c-.04 2.14-.04 3.94-.01 4 .05.08 2.14.11 7.07.11 7.93 0 7.39-.07 6.71.83l-.4.54-1.24.21c-2.99.51-7.02.63-10.32.28-.92-.09-1.71-.15-1.74-.11-.12.11-.14 5.49-.07 14.49l.07 9.16h16.33c15.47 0 16.33-.01 16.37-.17Zm-21.65-2.18c3.12-2.83 7.92-5.78 13.15-8.09l1.28-.56 1.36 1.1c1.77 1.42 5.43 3.8 5.86 3.8.04 0 .08-1.1.08-2.44v-2.45l-.66-.58c-.95-.83-2.22-2.27-3.37-3.83-.55-.74-1.03-1.39-1.07-1.43-.18-.21-3.45.8-5.4 1.67-5.07 2.27-10.1 6.42-13.1 10.82-.3.45-.54.62-1.8 1.35-.8.46-1.74 1-2.1 1.21l-.65.38h5.36zm8.69-17.92 1.42-.06.17-.61c.1-.34.4-1.33.66-2.21s.46-1.61.45-1.63c-.02-.01-.57.13-1.22.33-5.35 1.62-11.63 2.42-14.97 1.9-.49-.08-.22.09.93.59.85.38 1.14.56 1.25.77.08.15.23.3.32.33.34.1 2.28.35 3.53.46 2.08.18 5.26.24 7.46.13Zm3.93-2.54 1.81-1.75-.43-.42c-.5-.5-.4-.48-1.44-.17l-.83.26-.39 1.27c-.65 2.09-.81 2.73-.67 2.65.07-.05.95-.87 1.95-1.84ZM18.6 17.8c2.84-.26 3.89-.53 4.3-1.1l.21-.3H6.78l.2.33c.28.44.5.53 1.82.72 2.95.41 7.31.57 9.8.35Zm17.12-1.48c.3-.26.83-.7 1.17-.97.81-.64.72-.65-.95-.09-1.94.65-1.85.57-1.33 1.1.53.54.44.54 1.11-.04Zm-2.67-.28c.64-.18.65-.21.26-.58-.38-.36-.5-.31-.85.34-.23.42-.25.52-.12.47.09-.04.41-.14.71-.23ZM9.6 15.52c0-.05.84-.38 1.88-.71 2.13-.7 3.18-1.17 4.94-2.24 3.59-2.17 6-3 8.13-2.78.76.08.74.24-.04.33-1.92.22-3.58.92-6.51 2.76-1.53.96-2.57 1.47-3.8 1.87-1.7.54-4.6 1.03-4.6.77Zm3.45-.72c1.97-.51 3.03-.99 5.26-2.41 1.37-.87 2.78-1.59 3.9-1.99.65-.23.75-.29.43-.25-1.43.17-3.27.96-6.03 2.59-2.03 1.2-2.7 1.52-4.31 2.07-1.26.43-.96.42.75-.01Zm2.45-.09c-.21-.14-.16-.17 1.2-.51 1.88-.47 3.32-1.08 5.26-2.2 3.59-2.1 5.62-2.89 7.84-3.05 1.28-.09 1.48.22.25.39-1.43.2-3.61 1.18-6.05 2.71-1.52.95-2.73 1.54-4.11 1.99-1.56.5-4.05.88-4.39.67Zm17.8-.08c0-.05.18-.37.39-.7l.39-.61-.34-.06c-.53-.1-.36-.7.6-2.09.52-.76.52-.75.29-.92-.64-.47 1.2-.64 2.71-.25 2.58.66 2.87 1.43 1.19 3.21-1.06 1.12-1.73 1.37-3.85 1.46-.88.04-1.38.02-1.38-.04Zm3.05-.4c1.1-.24 1.68-.65 2.59-1.86.48-.64.46-.68-.21-.61-2.5.26-6.19 1.24-4.68 1.24.45 0 .45.13 0 .81-.2.28-.38.56-.42.62-.08.13 1.84-.01 2.72-.2Zm-18-.03c1.9-.42 3.58-1.15 5.65-2.45 1.41-.88 3.28-1.85 4.28-2.21 1.06-.37.09-.19-1.18.23-1.25.41-2.48.98-3.96 1.83-2.8 1.62-3.43 1.93-5.14 2.5-1 .34-.89.37.35.1Zm16.96-2.09c1.3-.33 2.98-.61 3.61-.61 1.36 0-.48-1.11-2.32-1.4-.69-.1-1.7-.14-1.7-.05 0 .03.05.13.11.23.09.15.03.29-.33.82-.74 1.07-.94 1.45-.76 1.38.09-.04.72-.2 1.39-.37Z"/></svg>