<svg xmlns="http://www.w3.org/2000/svg" width="51" height="51" viewBox="0 0 51 51"><path fill="#fff" fill-rule="evenodd" stroke="#fff" stroke-width=".484" d="M3.04 49.26c-.1-.27.01-.51.26-.54.31-.05.53.23.39.49-.12.22-.57.25-.65.05Zm46.91-.06c-.14-.43.44-.67.68-.28.08.12.07.21-.02.32-.19.23-.58.2-.66-.04Zm-33.55-.35c0-.08-.09-.15-.2-.15-.23 0-.27-.18-.05-.26.08-.04.15-.14.15-.24 0-.24.2-.37.3-.2.05.08.16.09.3.05.2-.06.22-.05.16.18-.03.14-.02.29.04.32.2.13.1.27-.15.21-.18-.05-.25-.02-.25.09 0 .08-.07.15-.15.15s-.15-.07-.15-.15Zm20.2-1.05c0-.05.11-.26.25-.46s.25-.46.25-.57c0-.25.46-.87.66-.87.22 0 .17.24-.11.5-.17.16-.25.34-.25.56 0 .2-.1.44-.26.63-.25.3-.54.41-.54.21Zm8.7-6.01c0-.1-.04-.21-.1-.24-.15-.09-.12-.25.05-.25.08 0 .2-.1.26-.22.11-.2.13-.2.24-.05.07.09.2.17.29.17s.16.07.16.15-.04.15-.1.15c-.05 0-.1.1-.1.23 0 .2-.05.23-.35.23-.27 0-.35-.04-.35-.17Zm-25.35-.24a7 7 0 0 0-.48-.1c-1.22-.2-1.99-2.07-1.48-3.6.62-1.83 3.36-2.15 4.36-.51.45.75.45 2.48 0 3.21-.42.68-1.75 1.24-2.4 1Zm-6.35-2.6V36.4l.24-.06c.76-.19.93.03.95 1.21l.01.7.94-.94c.93-.93.95-.94 1.5-.99.93-.08.87.12-.44 1.43l-1.13 1.14 1.16 1.21c.65.67 1.15 1.26 1.12 1.31-.04.05-.32.09-.64.09h-.58l-.96-.97-.97-.98V40c0 .25-.03.69-.06.98l-.07.52H13.6zm10.67 2.48c-.04-.03-.07-.96-.07-2.05V37.4h-1.6v-.29c0-.16.04-.41.1-.55l.1-.26h1.99c2.39 0 2.31-.02 2.31.61v.49h-1.7v4.1h-.53c-.3 0-.57-.03-.6-.07Zm3.13-2.41c0-2.72 0-2.72.6-2.72.59 0 .6.04.6 2.22v1.97l1.13.03 1.12.03.03.48.03.47H27.4zm3.92-.09.03-2.58.48-.03c.65-.04.67.04.67 2.68 0 2.62.03 2.5-.66 2.5h-.54zm1.84 2.26c-.08-.39-.06-3.31.03-4.19l.06-.65.35-.03c.35-.03.39.01 1.54 1.43.65.8 1.22 1.45 1.27 1.45s.09-.6.09-1.33c0-1.44.04-1.57.51-1.57.61 0 .59-.11.59 2.66v2.54h-.87l-1.19-1.52-1.19-1.53-.03 1.53-.03 1.52h-.53c-.52 0-.54-.01-.6-.31Zm-11.7-.15c1.02-.48 1.36-2.53.61-3.66-.54-.82-2.14-1.06-3.05-.45-1.16.76-1.23 3.13-.12 3.96.59.43 1.81.51 2.56.15Zm-6.96-.89c0-.72.04-1.05.11-1.05s.6.47 1.19 1.05c.92.91 1.11 1.05 1.39 1.05.34 0 .34 0-.73-1.1-.58-.61-1.06-1.15-1.06-1.22 0-.06.48-.6 1.07-1.19 1.07-1.09 1.07-1.09.73-1.09-.29 0-.47.14-1.45 1.1-.61.6-1.14 1.1-1.18 1.1-.03 0-.08-.48-.09-1.07l-.03-1.08-.27-.03-.27-.03-.03 2.3-.03 2.31h.65zm10.6.43c0-.35.03-1.27.07-2.05l.06-1.43h.79c.77 0 .78 0 .78-.25v-.25h-3.9v.25c0 .23.03.24.78.27l.77.03.03 2.03.02 2.02h.6zm5.5.43c0-.17-.11-.2-1.15-.26l-1.15-.07V36.6h-.6v4.6h1.45c1.36 0 1.45-.01 1.45-.19Zm1.6-2.11v-2.3h-.6v4.6h.6zm1.82.68c.02-.98.07-1.63.13-1.65s.68.71 1.4 1.62c1 1.29 1.34 1.65 1.52 1.65h.23l.02-1.9c.01-1.04.02-2.07.02-2.28.01-.33-.02-.37-.26-.4-.26-.03-.28-.01-.29.35-.01.21-.04.99-.08 1.74l-.06 1.37-1.39-1.75c-1.88-2.36-1.8-2.39-1.84.6l-.02 2.27h.6zm-14.51 1.05c-.98-.51-1.12-2.34-.26-3.2.48-.48 1.56-.49 2.1-.02.78.69.74 2.52-.07 3.12-.39.29-1.32.34-1.77.1Zm1.49-.26c.76-.38.83-2.39.1-2.85-.36-.22-1.02-.25-1.4-.05-.94.48-.98 2.56-.06 2.93.32.13 1.08.11 1.36-.03ZM9.2 38.16c0-.08-.08-.13-.17-.12-.14.01-.17-.05-.14-.29.04-.4.1-.48.26-.35.09.08.15.08.2 0 .1-.16.38-.12.31.05-.03.08.02.18.11.23.18.11.09.32-.13.32-.08 0-.14.07-.14.15s-.07.15-.15.15-.15-.06-.15-.14Zm30.3-4.28c0-.18.26-1.14.34-1.27.08-.12.96.38.96.55 0 .13-.99.84-1.18.84-.06 0-.12-.06-.12-.12Zm.76-.8c-.21-.12-.36-.02-.36.23 0 .19.01.19.26.03.22-.15.23-.19.1-.26Zm-24.78-.8c-.03-.84-.05-.93-.23-.97-.7-.13-.71-.17-.2-.72l.48-.51-.03-8.41c-.02-4.63-.02-8.48-.02-8.55.03-.23 20.12-.17 20.12.06 0 .1-2.05 2.23-4.85 5.02-2.67 2.66-4.85 4.85-4.85 4.86s2.21 2.23 4.91 4.92c3.07 3.05 4.9 4.94 4.87 5.03-.04.12-1.51.14-10.11.17l-10.06.02zm18.85.65.99-.06-4.09-4.09c-2.24-2.25-4.43-4.41-4.85-4.79l-.77-.71-4.73 4.77c-2.6 2.63-4.74 4.81-4.76 4.86-.04.1 16.69.12 18.21.02ZM20 28.54c2.28-2.31 6.64-6.68 9.69-9.7l5.54-5.49-1.69-.06c-.93-.04-3.11-.04-4.86-.01l-3.16.05-4.86 4.86-4.87 4.87-.06 4.88c-.04 2.94-.03 4.87.03 4.85.05-.02 1.96-1.93 4.24-4.25ZM.92 27.23c-.54-.47-.54-.46.24-.82.83-.39.88-.35.57.42-.33.83-.33.82-.81.4Zm48.57-2.3c-.01-.05-.01-.15 0-.25.01-.09-.03-.19-.09-.23-.16-.1-.12-.22.1-.28.11-.03.2-.12.2-.21s.07-.16.15-.16.15.07.15.15.09.15.2.15c.21 0 .27.24.09.35-.06.04-.08.14-.05.22.09.23-.03.36-.2.22-.11-.09-.18-.09-.26-.01-.14.14-.27.16-.29.05ZM20.5 17.95l4.65-4.65h-9.47l.03 4.58c.03 4.06.04 4.72.12 4.72.01 0 2.11-2.09 4.67-4.65ZM6.37 14.34c-.14-.14-.07-.24.28-.39.24-.09.4-.25.5-.47.12-.3.65-.68.95-.68.22 0 .08.32-.21.48a.75.75 0 0 0-.36.45c-.08.41-.92.85-1.16.61Zm31.43-1.45c-.46-.55-.46-.58.19-.83.56-.22.62-.15.54.67-.07.81-.16.83-.73.16Zm.46-.56c-.07-.07-.36.1-.36.21 0 .3.25.37.32.09.04-.15.06-.28.04-.3ZM23.3 4.95c-.2-.24-.08-.5.24-.5.36 0 .56.26.37.49-.17.2-.45.21-.61.01Zm25.02-.12c.02-.09.2-.21.4-.27s.46-.23.58-.39c.24-.31 1.1-.41 1.1-.13 0 .16-.21.26-.53.26-.14 0-.28.11-.38.29-.22.39-1.24.6-1.17.24ZM1.9 4.35c-.09-.11-.16-.12-.25-.05-.16.13-.28-.01-.19-.23.03-.08.01-.18-.05-.22-.19-.11-.13-.37.08-.3.12.03.21 0 .25-.1.08-.21.23-.19.29.05.03.13.11.18.2.14.24-.09.29.13.07.29-.12.08-.18.2-.15.3.09.21-.1.3-.25.12Zm11.13-.02c-.07-.03-.13-.2-.13-.4 0-.26-.08-.42-.3-.63-.34-.32-.46-1.3-.16-1.3.17 0 .26.22.26.62 0 .2.09.39.3.58.42.39.44 1.28.03 1.13ZM38.1 2.64c0-.12-.05-.26-.1-.29-.16-.1-.12-.25.06-.25.09 0 .23-.08.31-.17.11-.14.16-.15.2-.05.03.07.16.18.3.23.24.09.25.11.09.28-.09.1-.14.25-.11.33.05.12-.02.15-.34.15-.36 0-.41-.03-.41-.23Z"/></svg>