<svg xmlns="http://www.w3.org/2000/svg" width="51" height="51" viewBox="0 0 51 51"><path fill="#fff" fill-rule="evenodd" stroke="#fff" stroke-width=".699" d="M16.89 44.56c-1.04-.28-2.11-1.21-2.55-2.24-.14-.31-.39-.84-.57-1.17l-.32-.6.03-13.8c.02-8.04.07-13.95.12-14.16.21-.8.94-1.59 1.82-1.99.42-.19.76-.2 10.43-.2h10l.5.24c1.07.51 1.68 1.47 1.74 2.73.03.76.12 1.02.24.71.12-.33.89-1.17 1.02-1.12.18.07.95 1.18.95 1.38 0 .09-.24.29-.52.46l-.53.3h1.15v.38c0 .21-.05.64-.11.95-.14.69-.18.7-1.34.23l-.85-.34v6.08h.23c.12 0 1.05-.09 2.07-.2 3.92-.43 3.7-.48 2.96.79-.25.42-.87 1.8-1.39 3.06-1.32 3.19-1.33 3.21-1.58 3.39-.18.12-.48.16-1.26.16h-1.02l-.03 5.52-.03 5.53-.23.47c-.33.66-1.2 1.44-1.84 1.63-.44.13-1.52.15-7.29.15h-6.78l-.66.5c-1.54 1.16-2.96 1.54-4.36 1.16Zm2.27-.31c.87-.26.93-.35.59-.86-.34-.52-3-4.19-3.62-5.01-.54-.7-.59-.71-1.07-.08-2.27 2.98.5 7.02 4.1 5.95Zm1.91-1.04c.31-.22.37-.11-1.16-2.29-1.65-2.34-1.55-2.24-2.77-2.73-1.2-.49-1.23-.48-.81.04.19.23 1.05 1.41 1.92 2.62s1.69 2.35 1.83 2.53c.26.36.24.37.99-.17Zm.87-.85c-.01-.08-.5-.85-1.09-1.7-1.08-1.55-1.42-1.86-2.06-1.86-.04 0 .56.9 1.34 2 1.34 1.9 1.42 1.99 1.62 1.86.11-.08.19-.21.19-.3Zm14 .13c.54-.15 1.57-1.19 1.74-1.75.12-.43.18-9.44.06-9.44-.03 0-1.05.76-2.27 1.68s-2.27 1.71-2.34 1.75c-.14.09-.84-.21-1.76-.75-1.61-.96-2.57-.94-3.42.05-.79.92-.67 2.1.31 3.16l.55.6-1.33.99c-1.61 1.19-4.79 3.52-5.05 3.69-.25.16 12.93.18 13.51.02Zm-13.36-.45c.12-.08.22-.2.22-.25 0-.09-1.14-1.8-1.53-2.31-.13-.17-1.12-.38-1.06-.22.1.23 2.01 2.94 2.07 2.94.04 0 .18-.07.3-.16Zm.81-.61.22-.18-.32-.5c-.64-1.02-.97-1.35-1.36-1.35-.42 0-.44-.08.42 1.18.77 1.12.74 1.09 1.04.85Zm2.51-1.83c1.02-.75 2-1.46 2.17-1.59l.33-.22-.37-.45c-.21-.24-.41-.44-.47-.44-.1 0-3.76 2.69-4.13 3.04l-.22.21.3.47c.19.28.36.45.43.41.06-.04.94-.68 1.96-1.43Zm-11.87.51c.07-.78.44-1.58 1.03-2.21.58-.62.5-.62 2.2.05 2.89 1.12 4.94 1.43 5.71.86.95-.69 1.12-2.27.36-3.28-.32-.44-.48-.51-1.86-.89-.65-.18-1.22-.35-1.25-.39-.11-.11.31-.43 6.08-4.63 3-2.18 5.89-4.28 6.42-4.67l.97-.72-.5-.2c-.89-.38-.88-1.04.02-1.33.29-.1.95-.14 1.94-.15.83 0 1.76-.02 2.08-.03l.57-.02v-5.9l-12.02.02-12.03.03-.03 11.7c-.01 6.44 0 11.85.03 12.03.09.5.22.38.28-.27Zm11.22-1.91c2.11-1.58 2.24-1.7 2.05-2-.07-.12-.16-.09-.52.17-1.26.93-3.44 2.51-3.77 2.73-.36.24-.37.27-.23.48.21.32.14.36 2.47-1.38Zm.83-1.65 1.11-.8.01-.48c.01-1.53 1.57-2.62 3.1-2.16l.38.12 2.58-1.9c1.43-1.04 2.85-2.07 3.16-2.29.61-.42.75-.75.95-2.2l.06-.44h-2.24l-4.12 3.03c-2.27 1.67-4.85 3.57-5.75 4.22-.89.66-1.7 1.25-1.78 1.32-.13.1-.11.18.18.69.34.61.44 1.48.25 2.18l-.08.28.54-.38c.3-.22 1.04-.75 1.65-1.19Zm-2.33-2.1c.22-.17 1.82-1.35 3.55-2.61 7.82-5.7 7.6-5.53 7.48-5.8-.07-.15-.15-.21-.22-.15-.22.16-5.76 4.21-8.31 6.06-1.43 1.04-2.85 2.07-3.15 2.29l-.54.4.29.12c.34.14.34.13.9-.31Zm1.11-1.83c1.41-1.03 4.1-2.99 5.98-4.36 4.21-3.07 3.89-2.78 4.1-3.77.1-.45.16-.82.14-.84-.05-.05-6.23 4.41-13.42 9.69l-1.08.79.63.18c.35.09.74.17.86.18.14.01 1.18-.69 2.79-1.87Zm10.62 0 2.32-1.74v-.64c0-.82-.1-.82-1.1-.08l-2.87 2.1c-1.17.85-2.13 1.57-2.13 1.59 0 .09 1.25.62 1.35.57.06-.03 1.15-.84 2.43-1.8Zm-1.18-1.05c2.46-1.8 2.65-1.97 2.65-2.25.01-.37.32-.56-2.86 1.76-3.46 2.52-3.18 2.29-2.95 2.47.24.18.03.32 3.16-1.98Zm6.02-2.45c.09-.09.39-.71.67-1.37l.5-1.2-.97-.06c-.53-.04-1.38-.07-1.87-.08l-.9-.01-.28 1.33c-.15.73-.27 1.38-.27 1.45 0 .22 2.93.17 3.12-.06Zm1.93-4.42c.34-.8.76-1.68.93-1.96.18-.28.32-.53.32-.56s-.49.01-1.09.09c-.59.07-2.29.24-3.76.38-2.81.26-3.09.33-3.2.78-.03.12-.14.6-.25 1.07s-.2 1.02-.2 1.22v.37l1.33.04c.72.01 2.22.03 3.31.02h1.99zm-17.6.36c-1-.46-1.68-1.49-1.77-2.66l-.03-.35.54-.06c.96-.12 1.4-.3 1.92-.77l.49-.44.48.44c.54.5.91.66 1.84.76l.63.07-.04.4c-.18 2.1-2.28 3.45-4.06 2.61Zm2.2-.25c.56-.25 1.14-.8.95-.91-.43-.22-.9-.21-1.23.03-.46.35-1.07.64-1.51.72-.44.09-.37.2.19.34.49.12 1.07.05 1.6-.18Zm-1.24-.63c1.25-.59.78-.79-.99-.42-.94.19-1.01.25-.65.54.35.28.87.24 1.64-.12Zm-9.19.02c-.86-.18-1.2-.47-1.08-.93.25-1 3.76-.83 3.76.17 0 .61-1.46 1.02-2.68.76Zm1.73-.31c.84-.23.91-.57.17-.86-1.19-.45-3.28.02-2.64.6.38.34 1.68.48 2.47.26Zm16.67-.45c.85-.59.8-.68-.41-.62-1.49.07-2.04.49-1.21.9.56.29.88.23 1.62-.28Zm-10.57.1c.64-.2 2.48-.21 3.27-.01l.57.14.14-.36c.36-.89.34-.99-.2-1.06-.79-.11-1.38-.34-1.82-.71l-.41-.36-.37.32c-.46.41-.83.56-1.63.69-.77.13-.74.1-.6.61.27 1 .26.99 1.05.74Zm-5.03-.5c-.43-.3-.3-.65.48-1.3.39-.32.7-.61.7-.65 0-.03-.31-.36-.7-.73-.79-.75-.91-1.12-.46-1.41.32-.21.46-.14 1.66.85 1.49 1.21 1.49 1.29.08 2.42-1.28 1.04-1.38 1.09-1.76.82Zm12.53.04c-.11-.06-.64-.47-1.17-.91-1.28-1.04-1.28-1.09-.15-2.09 1.52-1.35 1.63-1.42 1.97-1.08.36.36.26.63-.54 1.37l-.73.68.73.63c.84.71 1 1.05.64 1.34-.25.21-.46.22-.75.06Zm-11.03-1.01c.57-.46 1.04-.9 1.06-.99.04-.19-2.06-1.99-2.27-1.96-.49.09-.37.38.49 1.18l.85.8-.5.42c-1.17 1-1.2 1.05-1.06 1.22.22.26.36.2 1.43-.67Zm11.66.62c.02-.11-.27-.42-.77-.85-.43-.38-.8-.73-.8-.78-.01-.05.33-.41.74-.79.74-.67.92-1.01.6-1.13-.13-.05-1.85 1.3-2.22 1.74-.18.21-.08.35.75 1.04 1.23 1.02 1.62 1.2 1.7.77Zm5.46-6.45c.03-.09.06-.56.06-1.05v-.89H13.7v2.1h12.04c10.89 0 12.04-.02 12.1-.16Zm2.29-.41.05-.43-.66.01c-1.25.01-1.26.12-.07.72.57.29.61.27.68-.3Zm-1.01-.99c.43-.25.81-.5.84-.55.05-.09-.54-.99-.66-.99-.14 0-1.1 1.39-1.16 1.68-.09.43.03.42.98-.14ZM37.8 13.6v-.4l-12.02.02-12.03.03-.03.37-.03.38H37.8zm0-.79c0-.04-.05-.22-.11-.4l-.11-.31H14.09l-.15.35c-.07.19-.14.37-.14.4s5.4.05 12 .05 12-.04 12-.09Zm-27.05-.96c-.46-.45-.13-1.25.51-1.25.59 0 1.76.82 1.59 1.1-.27.44-1.71.55-2.1.15Zm1.75-.21c.16-.16-.74-.74-1.15-.74-.5 0-.75.46-.42.79.15.15 1.41.11 1.57-.05Zm24.49-.2c-.18-.2-.52-.45-.74-.57l-.4-.22H25.9c-11.23 0-10.3-.06-11.25.78l-.4.36 11.54.01h11.55zm-24.15-1.13c-2.45-.96-3.37-3.02-1.73-3.86C12.62 5.67 14 7.3 14 9.87c0 .87-.04.89-1.16.44Zm.96-.25c0-1.73-.77-3.35-1.66-3.52-.55-.1-.56.04-.05 1.08.27.53.58 1.29.71 1.67.26.82.34.91.93 1 .04 0 .07-.1.07-.23Zm-1.1-.19c0-.39-1.28-3.17-1.45-3.17-.5 0-.84.82-.61 1.45.26.66 2.06 2.17 2.06 1.72Zm2.63-.51c-.86-1.75-.2-3.57 1.06-2.92.88.46.73 1.87-.33 2.99-.44.47-.47.46-.73-.07Zm.69-.28c.71-.93.88-1.79.43-2.23-.91-.92-1.61.6-.99 2.14.2.49.25.5.56.09Z"/></svg>