<svg xmlns="http://www.w3.org/2000/svg" width="51" height="51" viewBox="0 0 51 51"><path fill="#fff" fill-rule="evenodd" stroke="#fff" stroke-width=".408" d="M11.36 44.44c-1.92-.46-3.47-1.94-4.09-3.89l-.22-.7v-13.8c0-12.88.01-13.84.18-14.44.53-1.94 2.16-3.55 4.07-4.02.93-.24 28.12-.2 28.97.03 2.06.57 3.72 2.17 4.12 3.98.19.86.16 27.64-.03 28.35-.62 2.3-2.4 4.04-4.61 4.5-1.03.22-27.49.21-28.39-.01Zm28.59-.26c2.09-.67 3.37-1.89 4.03-3.83l.27-.8.03-13.58c.03-15 .06-14.26-.61-15.51-.44-.84-1.29-1.65-2.19-2.09-1.44-.71-.52-.68-16.05-.65l-13.98.03-.58.22a5.63 5.63 0 0 0-3.29 3.28l-.23.6-.03 13.89c-.03 15.27-.06 14.42.58 15.71.74 1.51 2.31 2.61 4.05 2.85 1.26.17 27.45.06 28-.12Zm-28.25-.39c-1.29-.21-2.69-1.25-3.33-2.47-.67-1.27-.67-1.26-.67-8.35V26.6l.26-.1c.28-.11 17.21-.14 17.48-.04.14.06.16.91.16 8.69v8.62l-.82.06c-1.24.1-12.45.06-13.08-.04Zm14.67.04-.27-.04.02-8.52.03-8.52 8.78-.03c8.29-.02 8.78-.01 8.85.15.17.43.08 12.15-.11 12.83-.54 1.99-1.79 3.34-3.67 3.96-.53.17-12.67.33-13.63.17Zm-.97-8.68V26.7H8v6.42c0 4.05.04 6.6.11 6.88.37 1.61 1.83 3.13 3.35 3.49.22.05 3.44.09 7.16.1l6.78.01zm14.22 8.34c1.36-.28 2.63-1.27 3.29-2.54s.64-1.07.64-7.85v-6.15h-8.52c-4.68 0-8.54.03-8.57.06-.04.03-.09 3.78-.13 8.33l-.06 8.26h6.41c4.28 0 6.59-.04 6.94-.11ZM17.9 40.61c-.86-.18-1.22-.48-1.15-.94.03-.23.22-1.38.42-2.55.39-2.37.39-2.42-.12-2.42-.4 0-.4 0-.24-.86.12-.66.19-.74.7-.74h.35l.14-.67c.23-1.18.17-1.13 1.14-1.13 1.01 0 .97-.04.81.9-.2 1.07-.22 1 .4 1 .3 0 .55.02.55.06 0 .03-.07.36-.16.75l-.16.69h-.48c-.27 0-.51.04-.54.08-.08.13-.66 3.66-.66 4.02v.32l.53-.04.52-.03-.01.4c-.02 1.01-.1 1.15-.63 1.15-.27 0-.61.02-.77.04-.16.03-.45.01-.64-.03Zm-5.7-.16c0-.03.23-1.26.51-2.73.29-1.47.52-2.74.53-2.82.01-.11-.12-.16-.46-.18-.54-.03-.54-.04-.37-.84.15-.68.23-.78.7-.78.37 0 .39-.02.49-.42.49-1.95 1.58-2.72 3.45-2.43l.48.07-.07.53c-.11.99-.17 1.06-.79.99-.67-.08-.9.04-1.05.54-.2.66-.18.69.43.74.74.06.75.09.39 1.4-.04.13-.18.18-.62.2l-.57.03-.27 1.43c-.16.78-.4 2.06-.55 2.85l-.28 1.42-.97.03c-.54.01-.98 0-.98-.03Zm7.36-.18c.04-.03.09-.26.11-.52l.06-.45h-.52c-.39 0-.53-.04-.58-.17-.06-.15.18-1.84.54-3.8l.15-.83h.53c.5 0 .53-.01.58-.29.03-.16.09-.4.13-.55.06-.26.05-.26-.45-.26-.63 0-.66-.05-.46-.99.08-.4.15-.74.15-.77 0-.02-.31-.04-.69-.04h-.69l-.12.67c-.2 1.08-.23 1.13-.69 1.13-.43 0-.44.02-.57.72l-.06.38h.41c.51 0 .51-.17.01 2.8-.49 2.89-.5 2.63.08 2.89.46.21 1.9.27 2.08.08Zm-5.52-.49c.18-1.19.88-4.86.96-5.05.08-.2.17-.23.59-.23.56 0 .63-.08.75-.73l.07-.37h-.49c-.59 0-.74-.14-.66-.61.17-1 .61-1.38 1.43-1.24l.38.06.1-.5c.12-.63.15-.61-.74-.61-1.59 0-2.22.62-2.67 2.62-.06.25-.11.28-.51.28-.47 0-.48.01-.61.72l-.06.38h.46c.43 0 .46.02.46.25 0 .24-.85 4.88-.96 5.28-.05.15.03.17.69.17h.74zm15.39-1.14c-2.16-1.07-1.34-5.48 1.15-6.2 1.52-.45 2.79.27 2.85 1.59l.02.42-.76.03-.76.03-.06-.31c-.19-.91-1.41-.46-1.88.7-.72 1.79.6 3.39 1.54 1.87.22-.34 1.57-.43 1.57-.09 0 .52-.88 1.62-1.55 1.93-.51.24-1.66.25-2.12.03Zm2.24-.39c.37-.22 1.13-1.14 1.13-1.37 0-.31-.94-.06-1.3.35-.75.83-1.79.46-1.95-.71-.14-1.02.35-2.44.98-2.82.6-.37 1.57-.14 1.57.37 0 .09.16.13.56.13h.57l-.06-.37c-.24-1.43-2.36-1.69-3.62-.45-.81.8-1.31 2.54-1.06 3.67.31 1.36 1.88 1.96 3.18 1.2Zm1.83.26c0-.05.07-.44.15-.87s.29-1.7.45-2.83c.17-1.14.33-2.14.36-2.23.07-.24 1.31-.27 1.4-.03.05.12.12.11.42-.05.67-.36 1.59-.23 2.06.29l.19.2.44-.32c.88-.63 2.12-.41 2.55.44.29.55.13 2.41-.42 4.97l-.12.52h-.8c-.78 0-.8-.01-.74-.22.17-.63.66-3.57.66-3.99 0-.54-.26-.72-.78-.53-.49.18-.62.51-.98 2.58-.19 1.09-.37 2.02-.4 2.07-.09.15-1.44.11-1.44-.03 0-.07.14-1.02.32-2.11.35-2.2.34-2.5-.15-2.55-.52-.06-.82.39-1.02 1.53-.1.55-.27 1.49-.39 2.1l-.21 1.1-.78.03c-.44.02-.77-.01-.77-.07Zm4.24-.28c.03-.1.19-.99.36-1.97.32-1.91.49-2.35 1-2.61.65-.34 1.3-.02 1.3.63 0 .39-.57 3.79-.66 3.94-.03.04.19.08.5.08.63 0 .53.23.91-2.03.37-2.18.35-2.89-.09-3.33-.55-.55-1.47-.48-2.2.17-.36.31-.64.25-.66-.13-.02-.52-1.76-.47-2.19.06-.2.24-.41.19-.41-.09 0-.23-.04-.25-.44-.25-.53 0-.42-.33-.91 2.9-.2 1.29-.38 2.43-.41 2.52-.05.16.02.18.49.18h.53l.28-1.62c.45-2.69.69-3.18 1.5-3.18.78 0 .85.57.41 3.14-.14.82-.25 1.56-.25 1.63 0 .21.87.17.94-.04ZM7.83 26.03c-.16-.06-.19-12.83-.03-13.77.29-1.76 1.67-3.36 3.4-3.92.64-.21 14-.35 14.3-.15.15.1.2 17.57.05 17.82-.06.09-17.49.12-17.72.02Zm18.4 0c-.21-.08-.19-17.66.01-17.83.31-.25 13.38-.08 14.17.18 1.92.64 3.16 2.13 3.4 4.08.12.96.07 13.33-.05 13.53-.07.11-17.27.15-17.53.04Zm-.83-8.93V8.39l-6.92.03c-6.92.03-6.93.03-7.48.25-1.24.51-2.23 1.49-2.72 2.71l-.23.57-.03 6.93-.03 6.92H25.4zm18.18 1.72-.03-6.97-.36-.75c-.43-.89-1.14-1.64-1.97-2.08-1.17-.62-1.11-.62-8.28-.62h-6.51l-.06.82c-.04.46-.07 4.37-.07 8.71v7.87h17.31zm-9.01 4.32c-.04-.04-.07-.17-.07-.3 0-.17-.08-.23-.38-.29-1.47-.27-2.61-1.46-2.78-2.89-.08-.67-.01-.76.62-.76.85 0 1.04.08 1.04.48 0 .72.52 1.44 1.24 1.72l.26.1v-1.65c0-1.27-.03-1.65-.13-1.65-.2 0-1.54-.67-1.92-.96-1.69-1.29-.66-4.06 1.67-4.49.36-.07.37-.09.4-.54l.03-.46.62-.03.62-.03.03.47.03.47.55.14c1.32.33 2.3 1.49 2.3 2.7 0 .42-.12.47-.94.38l-.64-.06-.06-.41c-.09-.55-.21-.75-.59-.98-.56-.35-.57-.33-.57 1.13 0 1.56-.04 1.47.85 1.82 1.68.67 2.35 1.48 2.22 2.7-.14 1.33-1.31 2.55-2.69 2.8-.3.06-.37.12-.4.34-.03.25-.06.26-.63.29-.34.02-.64 0-.68-.04Zm-15.79-.34c-.97-.17-1.86-.94-1.91-1.65-.02-.29-.01-.3.62-.37.35-.04.7-.09.77-.12s.22.1.32.29c.47.79 1.74.53 1.89-.39l.06-.36-.43.15c-1.85.65-3.45-.72-3.45-2.95 0-2.22 1.12-3.51 2.93-3.36.42.04 1.2.08 1.72.09l.95.02.08 1.2c.1 1.44-.07 4.85-.28 5.65-.38 1.42-1.6 2.09-3.27 1.8Zm16.82-.15c0-.19.06-.26.28-.3q2.82-.6 2.82-2.88c0-.99-.49-1.5-2.1-2.18l-.85-.36-.07-.84c-.03-.46-.06-1.21-.07-1.66l-.01-.83h.28c.63.01 1.31.66 1.47 1.43.05.25.08.27.6.27h.55l-.07-.32c-.21-1.17-.85-1.86-2.03-2.22l-.75-.22-.03-.42c-.03-.42-.04-.42-.42-.42s-.39 0-.42.42l-.03.42-.76.23c-1.82.55-2.7 2.39-1.73 3.6.29.36 1.4 1.01 2.22 1.3l.32.11v1.8c0 2 0 1.99-.65 1.76-.7-.23-1.45-1.26-1.45-1.98 0-.13-.11-.16-.55-.16h-.55v.33c0 1.28 1.11 2.42 2.7 2.79.42.1.5.15.5.35s.05.23.4.23c.36 0 .4-.03.4-.25Zm-15.13-.2c1.29-.38 1.62-1.6 1.63-5.97V14.4h-1.32l.07.3c.05.23.03.3-.09.3-.08 0-.16-.1-.18-.22-.07-.54-1.51-.7-2.29-.27-1.8 1-1.9 4.42-.15 5.44.56.33 1.37.36 2.04.1.55-.22.67-.12.58.47-.17 1.11-1.62 1.55-2.32.71-.2-.24-.26-.25-.78-.19-.63.08-.65.1-.34.56.61.89 1.87 1.23 3.15.85Zm15.15-2.7V18.1h.26c.41.01 1.05.33 1.35.69.74.89-.12 2.61-1.31 2.61h-.31zm1.3.83c.72-.83.15-2.18-.93-2.18-.05 0-.09.6-.09 1.4v1.4l.37-.15c.21-.08.5-.29.65-.47Zm-26.01-3.1c.01-1.56.04-3.48.08-4.28l.06-1.45h1.5l.03 1.98.02 1.98.88-.8.87-.81h.98c1.25 0 1.25.02-.13 1.32-.6.57-1.1 1.09-1.1 1.16s.5.87 1.11 1.78c1.43 2.15 1.41 1.94.21 1.94h-1l-.67-1.07c-1.11-1.78-1.15-1.78-1.15-.05v1.12h-1.7zm1.49 1.44c0-1.98.23-1.97 1.49.07l.63 1.01h1.46l-1.09-1.65c-.6-.91-1.09-1.7-1.09-1.77s.48-.61 1.07-1.2l1.08-1.08h-.57c-.79 0-.97.09-1.86.95-1.15 1.1-1.12 1.14-1.12-1.25v-2h-1.2v8.1h1.2zm6.36.17c-.93-.73-.81-3.25.17-3.75.49-.26 1.24-.14 1.59.25.32.36.43 2.46.15 3.01-.33.65-1.37.92-1.91.49Zm1.27-.2c.63-.28.82-2.66.25-3.18-.8-.75-1.76-.09-1.86 1.29-.11 1.6.55 2.38 1.61 1.89Zm14.35-2.29c-1.7-.49-1.68-2.88.03-3.02l.34-.03.03 1.49c.03 1.61.01 1.67-.4 1.56Zm.14-1.52c.05-1.46.08-1.39-.5-1.08-.83.44-.9 1.37-.14 2 .57.47.59.44.64-.92Z"/></svg>