<svg xmlns="http://www.w3.org/2000/svg" width="51" height="51" viewBox="0 0 51 51"><path fill="#fff" fill-rule="evenodd" stroke="#fff" stroke-width=".499" d="M24.85 49.38c-.54-.32-.62-1.58-.1-1.58.11 0 .15-.1.15-.35 0-.24.05-.35.15-.35.35 0-.04-.75-.86-1.67-.72-.8-1.19-1.49-1.19-1.76 0-.16-.04-.18-.22-.12-.13.04-.37.09-.54.12-.21.03-.35.13-.43.29-.11.24-.44.33-.56.14-.03-.05-.17-.1-.31-.1-.25 0-.36-.41-.14-.55.05-.03.01-.14-.1-.25-.19-.19-.2-.19-.97.25-1.15.66-1.1.71-1.63-1.33-.11-.43-.7-.67-.7-.28 0 .24-.16.27-.65.14-.44-.12-.46-.14-.41-.41.05-.22 0-.37-.19-.59-.14-.16-.25-.36-.25-.44 0-.18.01-.18-.52.06-.31.13-.85.23-1.74.3-.71.05-1.44.14-1.63.19-.64.19-1.41.81-1.41 1.15 0 .18.04.16.33-.12.58-.56.85-.34.53.42-.41.98-1.89.87-1.74-.14.04-.29.03-.3-.34-.3-1 0-1.06-1.25-.08-1.75.31-.16 1-.21 1-.07 0 .05-.16.27-.36.5-.44.52-.31.55.18.05.59-.63.69-.92.84-2.59.09-1.1.18-1.63.32-1.9l.19-.37-.45-.24q-.45-.24-.72-.18c-.4.09-.72-.79-.4-1.07.31-.26.27-.74-.08-.82-2.06-.5-1.99-.42-1.38-1.6.48-.94.44-1.26-.12-1.05-.26.1-.42-.01-.42-.29 0-.07-.06-.22-.13-.33-.1-.17-.09-.23.1-.39.12-.1.26-.35.31-.56.05-.22.11-.45.13-.53s-.07-.17-.23-.21c-.34-.1-.77-.41-1.54-1.1-.82-.75-1.63-1.19-1.76-.96-.05.09-.19.16-.31.16s-.28.09-.34.2c-.26.4-1.5.34-1.73-.1-.18-.33-.12-.76.14-1.01l.24-.23-.24-.23a.765.765 0 0 1 .02-1.14c.35-.32 1.28-.34 1.53-.03.09.12.29.24.44.28.15.03.27.13.27.21 0 .38.74-.06 1.95-1.15.44-.4.99-.81 1.22-.91.41-.19.41-.2.27-.47-.07-.15-.14-.39-.14-.54 0-.19-.05-.28-.15-.28-.21 0-.3-.27-.17-.53.06-.12.12-.29.14-.36.03-.09.17-.15.38-.15.56-.01.58-.22.1-1.18-.54-1.09-.63-.98 1.28-1.48.43-.11.68-.8.28-.8-.22 0-.26-.24-.11-.66.12-.35.17-.39.47-.39.18-.01.49-.11.68-.23s.38-.22.42-.22-.01-.18-.13-.39c-.14-.28-.23-.72-.3-1.62-.16-2.07-.33-2.45-1.05-2.4-.74.04-1.34-.43-1.34-1.04.01-.51.43-.87.93-.78.25.05.27.03.27-.3 0-1.02 1.4-1 1.71.03.21.68-.16.98-.49.4-.09-.16-.23-.3-.29-.3-.2 0-.16.13.16.57.48.66 1.09.85 3.27 1.02.68.05 1.23.15 1.42.25.29.15.32.15.32 0 0-.09.09-.28.19-.43.11-.15.21-.42.23-.6.04-.46.72-.74 1-.41.3.36.66.26.78-.22.5-1.92.42-1.85 1.54-1.24.93.5 1.14.47 1.08-.15-.03-.21.02-.31.15-.35.1-.03.26-.1.35-.15.27-.14.45-.11.6.09.07.1.27.22.43.26.17.04.37.09.46.12.12.03.21-.08.33-.39.09-.25.49-.8.92-1.28.79-.86 1.34-1.77 1.15-1.88-.58-.36-.89-1.65-.51-2.13.29-.38.86-.39 1.2-.03l.23.24.19-.24c.21-.27.73-.34 1.07-.15.44.23.52 1.43.13 1.72-.17.13-.35.39-.49.67-.1.21.24.74 1.12 1.74.45.51.89 1.12.98 1.36.13.31.22.41.33.37.09-.03.27-.06.4-.06s.34-.11.46-.25c.23-.27.38-.3.66-.16.09.05.25.12.35.15.13.04.18.14.15.35-.06.61.15.64 1.08.14 1.06-.56 1.07-.56 1.34.66l.23 1.01h.33c.24 0 .34-.05.39-.21.12-.38 1.05-.03 1.05.39 0 .16.09.41.2.55s.2.3.2.36c0 .14 0 .14.46-.05.22-.1.91-.2 1.59-.25 1.87-.14 2.95-.64 2.95-1.37 0-.12-.1-.05-.34.23-.43.5-.62.4-.47-.24.25-1.13 1.71-1.26 1.71-.15 0 .26.03.29.36.3.81.02 1.05.92.39 1.52-.33.31-.41.33-.92.31-.76-.04-.84.16-1.03 2.45-.06.83-.15 1.29-.29 1.56l-.2.38.32.06c.17.03.38.13.46.2.09.08.33.16.54.18.51.04.82.7.47 1-.52.43-.29.72.8 1.03 1.24.34 1.21.27.63 1.36-.53 1.02-.5 1.19.24 1.19.28 0 .33.03.33.24 0 .14.04.28.1.31.18.11.1.35-.15.47-.19.08-.25.19-.25.42 0 .17-.09.46-.2.64-.11.17-.16.32-.11.32s.51.38 1.02.85c.78.71 1.69 1.35 1.94 1.35.03 0 .05-.09.05-.2 0-.12.09-.22.24-.26.13-.03.26-.14.29-.24.05-.21.71-.35 1.17-.25.67.15.92.95.42 1.37l-.28.23.28.23c.37.31.38.79.03 1.12-.33.31-1.29.35-1.5.07a.5.5 0 0 0-.35-.17c-.14 0-.24-.08-.27-.2-.1-.38-.87.05-1.96 1.07-.38.35-.79.69-.92.75l-.24.11.21.27c.11.15.2.43.21.63.01.27.07.38.24.46.28.13.28.16.03.69-.22.46-.23.46-.49.32-.49-.26-.55.22-.12 1.01.64 1.17.65 1.16-1.11 1.6-.55.13-.68.54-.28.87.34.29-.01 1.16-.44 1.08-.22-.04-.4 0-.61.14-.16.11-.38.2-.47.2-.16 0-.16.02.01.33.24.4.38 1.13.46 2.37.09 1.3.5 2.16 1.2 2.52.11.06.03-.07-.17-.29-.21-.21-.38-.44-.38-.51 0-.17.65-.15 1 .03.98.51.91 1.75-.1 1.75-.4 0-.4 0-.4.38 0 .91-1.09 1.03-1.6.19-.2-.32-.27-.97-.11-.97.05 0 .25.17.45.37.42.44.51.23.11-.26-.48-.56-1.15-.8-2.58-.91-1.14-.1-1.57-.18-2.19-.45-.14-.05-.18-.02-.18.12 0 .11-.11.3-.24.42-.19.18-.23.3-.19.55.05.3.03.32-.42.44-.5.13-.65.1-.65-.14 0-.35-.63-.12-.72.26-.49 2-.49 2-1.59 1.37-.81-.46-1.37-.45-1.07.03.15.23.04.5-.21.5-.11 0-.23.05-.26.1-.13.21-.54.11-.61-.15-.04-.17-.13-.25-.28-.25-.11 0-.33-.06-.48-.14-.26-.14-.26-.13-.43.29-.09.24-.49.81-.9 1.27-.98 1.09-1.33 1.72-1.11 1.97.09.1.16.3.16.44q0 .27.15.27c.18 0 .35.39.35.8 0 .72-.91 1.11-1.43.62-.23-.21-.23-.22-.42-.02-.25.25-.74.34-1 .18Zm1.18-3.88c.07 0 .21.15.3.33l.16.32v-.56c.01-.46.05-.59.27-.8l.26-.24-.29-.05c-.24-.05-.28-.1-.25-.34.04-.34-.13-.56-.43-.56s-.47.22-.43.57c.03.24-.01.28-.24.31-.33.04-.35.15-.07.33.15.1.22.29.26.72l.06.59.13-.31c.07-.17.19-.31.27-.31Zm2.04-1.23c.28-.33.43-.62.43-.79 0-.31-.11-.36-.3-.13-.15.18-.71.2-.88.03-.41-.41.11-.81.97-.76.58.03.61.02.72-.25.14-.33.37-.47.77-.47.75 0 .54.68-.28.93-.27.08.43.29.76.22.18-.03.44-.15.58-.26l.27-.21-.42-.4c-1.47-1.43-.86-3.53.85-2.88.2.07.26.06.26-.04 0-.3.59-.66 1.07-.66.87 0 1.33.64 1.33 1.85v.65h.3c.57 0 1.1-.41 1.1-.84 0-.13-.04-.13-.31.01-.56.28-1.06-.19-.64-.61.22-.21.78-.3 1.05-.16.12.06.22.1.23.08.26-.51.38-.66.69-.81.44-.22.78-.1.78.27 0 .26-.19.45-.59.62l-.26.1.26.17c.26.17 1.38.36 2.18.37.43 0 .44 0 .26-.2-.13-.14-.31-.2-.62-.2-.52 0-.65-.19-.41-.61.14-.24.15-.29.02-.4-.26-.21-.14-.82.19-.97.31-.15.87-.01.87.22 0 .06.05.03.11-.06.3-.52 1.01-.12.79.43-.12.27-.11.33.1.52l.22.22-.05-1.05c-.05-1.06-.18-1.63-.43-1.9-.12-.12-.14-.11-.14.13 0 .37-.34.69-.68.65-.57-.06-.3-.97.38-1.27.29-.13.36-.21.29-.32-.26-.41-.03-1.19.36-1.19.28 0 .41.33.31.75-.08.32.08.32.39.01.23-.23.52-1.03.41-1.14-.04-.03-.33-.04-.66-.03-1.11.04-1.8-.47-1.8-1.34 0-.41.22-.9.47-1.03.12-.07.16-.25.17-.76.02-1.49 1.62-1.74 2.87-.44l.46.48.18-.27c.29-.44.36-.92.19-1.32l-.15-.36-.14.39c-.19.53-.47.7-.73.44-.16-.16-.15-.53.03-.88.1-.19.11-.31.04-.35-.32-.2-.3-1.19.04-1.52.36-.36.9.47.61.94-.48.77.48.29 1.71-.84l.68-.63h-.41c-.34 0-.47.06-.68.3-.29.32-.64.27-.64-.09 0-.12-.11-.23-.29-.29-.75-.26-.72-1.32.03-1.32.18 0 .25-.07.3-.3.07-.38.37-.4.6-.05.14.21.24.25.63.25h.47l-.24-.17c-.14-.09-.58-.46-.99-.81-.79-.69-1.18-.89-1.35-.72-.07.07-.07.1.01.1.32 0 .34.96.03 1.15-.59.36-1.08-.87-.59-1.49.2-.25.2-.28.04-.52-.21-.33-.16-.88.08-.92.26-.05.67.36.67.67.01.25.01.25.15.07.22-.29.18-.92-.07-1.37l-.22-.39-.51.54c-1.27 1.33-2.92 1.03-2.83-.51.03-.45-.01-.55-.25-.81-.92-.96-.24-2.12 1.3-2.2.8-.04.83-.05.83-.29 0-.55-.4-1.13-.89-1.28-.23-.07-.23-.07-.07.16.3.43.16.99-.25.99-.37 0-.7-1.06-.39-1.25.19-.11.1-.23-.25-.35-.42-.14-.75-.57-.75-.99 0-.59.69-.48.99.14l.15.3.13-.34c.14-.34.37-2.51.27-2.6-.02-.03-.12.03-.21.11-.15.15-.17.39-.11.93.03.23-.44.34-.66.16-.09-.08-.22-.07-.44.05-.52.26-.88.02-.84-.56.01-.25.02-.64.02-.87 0-.42.23-.64.5-.48.17.11.54-.02.67-.23.1-.18.07-.18-.7-.15-1.32.06-1.65.13-1.95.38l-.27.24.27.01c.68 0 .93.92.27.98-.35.03-.99-.48-.99-.79 0-.06-.07-.06-.19.01-.31.16-.79.12-1.01-.1-.41-.41-.14-.76.5-.66.68.11.34-.64-.38-.84-.61-.16-.6-.18-.64.86l-.03.95-.42.4c-.6.56-1.18.56-1.73.01-.32-.32-.42-.37-.61-.3-1.56.58-2.04-1.35-.71-2.83.45-.5.45-.51.26-.7-.27-.27-.73-.37-1.14-.26l-.35.09.33.13c.37.16.59.59.41.81-.24.29-1.09.05-1.09-.31 0-.28-.28-.43-.69-.38-.76.1-1.43-.33-1.11-.72.17-.2.79-.19 1.02.02.17.15.18.15.18-.06 0-.3-.33-.91-.65-1.21-.15-.14-.45-.47-.66-.73-.37-.46-.39-.47-.39-.22 0 .16.12.41.3.61.33.38.31.61-.06.7-.15.04-.25.16-.29.35-.17.79-1.45.72-1.45-.08 0-.08-.13-.19-.3-.24-.4-.14-.4-.48 0-.77.23-.17.3-.31.3-.55v-.32l-.27.35c-.15.19-.49.58-.75.86-.64.68-1.05 1.64-.56 1.3.32-.23.81-.2 1.04.05.32.36-.2.72-.98.67-.54-.03-.59-.01-.65.2-.11.47-1.13.87-1.26.5-.08-.26.15-.66.44-.79.38-.15.21-.29-.38-.29-.3 0-.5.07-.73.26l-.31.27.4.38c1.44 1.39 1.1 3.32-.51 2.91-.37-.1-.41-.09-.71.25-.93 1.01-2.17.18-2.17-1.46v-.74l-.47.06c-.51.05-.93.41-.93.78 0 .16.03.18.19.09.66-.35 1.27.26.66.66-.25.16-.7.16-1.07-.01-.13-.05-.18-.03-.18.1 0 .33-.55.75-.99.75-.67 0-.49-.8.21-.95l.32-.07-.27-.15c-.15-.07-.78-.18-1.4-.24-.61-.05-1.21-.12-1.32-.16-.2-.06-.2-.05-.01.16.15.16.31.21.71.21.59 0 .71.12.51.51-.1.2-.1.3.03.56.28.62-.35 1.18-.91.81-.19-.13-.26-.13-.5 0-.45.22-.62.1-.55-.42.05-.37.03-.46-.18-.66l-.25-.24.05.45c.02.24.07.79.1 1.22.04.72.43 1.87.45 1.32.01-.5.69-1 .98-.72.3.31-.34 1.37-.82 1.37-.11 0-.11.08.01.44.19.57.03.99-.39 1.04-.4.05-.59-.38-.36-.79.16-.27.16-.29-.01-.29-.34 0-.81.68-.81 1.18v.3l.79.03c1.55.08 2.24 1.32 1.24 2.26-.18.18-.29.35-.23.38.19.11.12 1-.1 1.28-.58.73-1.77.55-2.68-.41-.41-.44-.43-.44-.62-.27-.32.29-.44.79-.29 1.23l.12.37.14-.32c.18-.45.91-.76.94-.41.04.48-.36 1.08-.73 1.08-.22 0-.22.04-.02.35.31.47-.09 1.52-.54 1.43-.34-.07-.48-.52-.29-.94.29-.6-.07-.59-.85.03-.26.21-.72.58-1.02.83l-.56.45.36.03c.29.03.43-.03.68-.26.35-.33.56-.32.56.03 0 .18.07.25.29.3.75.16.85 1.35.11 1.35-.21 0-.4.2-.4.42 0 .25-.44.24-.61-.02-.09-.13-.29-.23-.54-.26l-.4-.06.61.6c.81.78 1.23 1.09 1.59 1.18.25.05.28.04.18-.07-.3-.31-.03-1.29.35-1.29.39 0 .66 1.03.38 1.44-.21.33-.2.36.09.36.5 0 .93.76.62 1.08-.21.21-.63.03-.77-.33-.12-.31-.18-.31-.3-.01-.11.29.03.85.29 1.17l.18.22.42-.42c.74-.74 1.65-1 2.31-.66.51.26.76 1.06.5 1.55-.08.16-.06.21.12.31.41.21.58.51.58 1.06 0 .93-.65 1.39-1.89 1.31-.6-.03-.57-.07-.53.58.02.29.52.84.76.84.13 0 .14-.04.04-.25-.15-.32.03-.75.31-.75.43 0 .66.74.36 1.17-.14.2-.13.22.15.31.47.17.8.56.8.95 0 .69-.91.5-1.02-.21-.12-.83-.54.36-.6 1.71l-.04.97.24-.23c.2-.21.22-.27.11-.5-.23-.5.34-.82.75-.41.09.08.16.1.16.04 0-.32.91-.3 1.12.03.13.2.09.59-.08.78-.14.16-.14.2.01.43.26.39.13.56-.39.56-.3 0-.51.07-.67.2l-.24.21 1.1-.06c1.18-.07 1.66-.17 1.85-.41.1-.12.08-.14-.14-.14-.36 0-.68-.34-.64-.68.06-.54 1.03-.36 1.3.24.11.23.16.24.5.19.67-.12 1.29.33 1.03.74-.09.15-.78.14-.94-.01-.1-.11-.12-.07-.09.16.04.37.42.66.96.73l.42.06v-.72c0-1.6 1.16-2.39 2.18-1.47.34.31.42.34.83.29 1.55-.18 1.86 1.52.53 2.88l-.46.46.27.21c.36.29.9.38 1.23.22l.27-.13-.29-.06c-.35-.07-.7-.5-.6-.74.16-.42 1.34-.03 1.34.45 0 .1.16.12.58.1.77-.05 1.24.27.97.66-.19.27-.7.3-.97.05-.17-.15-.18-.15-.18.15 0 .28.59 1.18.9 1.37.06.04.25.25.41.47l.29.41v-.31c0-.23-.07-.36-.25-.48-.36-.24-.34-.61.05-.69.23-.05.3-.12.3-.3 0-.28.43-.65.75-.65.31 0 .75.37.75.64 0 .15.09.25.3.33.17.06.3.17.3.23 0 .07-.13.25-.3.4-.21.2-.3.37-.3.6v.32l.43-.52c.23-.28.61-.75.84-1.03Zm-7.97-1.9c0-.06-.07-.46-.17-.89l-.16-.77-.39.34c-.21.19-.45.35-.53.35-.2 0-.04 1.21.21 1.62.07.1 1.04-.51 1.04-.65Zm13.14-.13c.19-.75.2-.84.03-.84-.07 0-.32-.16-.54-.35-.47-.4-.43-.44-.63.69-.11.57-.11.7.01.77.08.04.3.19.49.32.4.29.42.28.64-.59Zm-11.83-1.16c.45-.88.06-1.43-.76-1.06-.21.09-.25.17-.21.37.03.14.11.54.17.89l.12.63.24-.23c.14-.13.34-.4.44-.6Zm10.13-.11.13-.85-.24-.11c-1.06-.49-1.26.62-.3 1.66.26.29.26.3.41-.7Zm-12.15-.81c.43-.44.44-.45.27-.7-.42-.65-1.06-.15-1.06.84 0 .6.08.59.79-.14Zm14.09.04c-.06-.83-.55-1.29-.96-.88-.27.27.5 1.45.97 1.48.02 0 .01-.27-.01-.6Zm-20.16-.6h.41l-.23-.25-.23-.25.21-.23c.46-.49.13-.96-.4-.57-.33.24-.42.25-.58.05-.21-.26-.41-.19-.3.11.12.31-.07.73-.44.98-.38.24-.33.38.11.3.39-.07.39-.05.17.51-.05.13.09.05.39-.22.39-.36.53-.43.89-.43Zm26.65.63c-.02-.1-.08-.26-.12-.37-.07-.17-.04-.18.36-.11l.44.08-.43-.46c-.44-.48-.49-.65-.32-.98.09-.16.07-.19-.09-.19-.1 0-.21.07-.25.15-.06.16-.36.21-.36.05 0-.15-.39-.32-.59-.25-.32.1-.34.36-.06.65l.25.26-.21.25-.21.24.37.03c.45.04.77.23.95.57.15.29.35.34.27.08ZM23.2 38.78c-.56-.29-1.04-.98-1.21-1.73-.13-.57-.16-.59-.68-.49-.41.09-.49.91-.08.9.3-.01.34.33.08.65l-.2.24-.23-.23c-.19-.19-.23-.33-.23-.86v-.64l-.8-.04c-1.75-.1-2.84-1.23-3.02-3.15-.07-.73-.23-.72-.42.02-.11.43-.14 1.02-.04.78.02-.07.13-.13.24-.13.24 0 .26.36.03.68-.36.52-.7.04-.61-.86l.05-.6-.33.09c-1.89.53-2.76-2.08-1.61-4.82.05-.12 0-.18-.18-.23-1.45-.36-1.75-2.4-.66-4.43.33-.61.37-.77.3-1.03-.21-.74.21-2 1.01-2.97.41-.51.42-.55.4-1.17-.03-.75.14-1.23.55-1.55 1.5-1.2 9.96-4.21 11.82-4.21 1.11 0 1.37.59.79 1.83-.4.86-2.82 3.76-2.99 3.59s.17-.71 1.23-1.92c1.71-1.96 1.83-2.37.65-2.33-1.86.06-9.38 2.75-11.25 4.01-.12.09 1.55 1.34 4.95 3.71l.62.42.73-.21c.39-.12.97-.24 1.26-.27.69-.07.7-.11.34-1.2-.58-1.71-.7-4.28-.2-4.11.22.07 1.04 1.77.92 1.89-.09.09-.16.09-.29-.02-.22-.18-.13.92.17 2.09.31 1.21.14 1.5-.9 1.63a8.5 8.5 0 0 0-1.32.29l-.69.23-.58-.38c-1.45-.96-5.34-3.78-5.39-3.91-.09-.24.15-.42 1.41-1.03 4.29-2.1 10.2-3.84 11.02-3.26.26.17.34.11.34-.26 0-.8-1.47-.63-5.3.62-3.21 1.06-6.83 2.62-7.32 3.16-.22.24-.39 1.03-.32 1.42.09.42 1.86 1.9 4.39 3.66 1.05.74 2.59 1.99 3.21 2.63 2.04 2.08 1.68 2.96-1.61 3.91-1.87.54-3.12 1.22-4.34 2.36-1.36 1.26-1.85 1.44-2.5.89-.4-.33-.4-.15 0 .3.7.81 1.39.62 2.79-.76 1.23-1.21 1.71-1.47 4.11-2.27 3.2-1.06 3.71-2.22 2-4.5-1.07-1.42.12-.65 2.68 1.72.68.64 1.46 1.27 1.73 1.42 1.27.69 2.76.28 3.24-.9l.16-.39-.32.31c-1.06 1.03-2.89.66-4.61-.95-1.21-1.12-2.1-1.83-3.34-2.67-.55-.36-.99-.7-.99-.73.04-.23 2.24-.46 2.24-.23 0 .05-.3.12-.67.15-1.11.12-1.11.11-.2.73 1.08.73 1.92 1.41 3.11 2.51.87.81 1.79 1.43 1.92 1.29.03-.02-.11-1.07-.3-2.33-.37-2.43-.76-5.17-.76-5.35 0-.06-.07-.03-.16.06-.09.08-.24.13-.34.1-.16-.05-.19.04-.25.75-.08.89-.11.93-.4.47-.12-.19-.34-.36-.55-.43-.37-.12-.62-.46-.58-.79.05-.32.32-.29.82.09l.46.36v-.31c0-.68.47-1.1.84-.74.13.13.14.09.09-.38-.05-.51.15-1.27.34-1.27.04 0 .33.48.63 1.07s.66 1.19.79 1.35c.51.62.01.78-.54.16l-.38-.41.07.54c.03.3.27 2.04.53 3.87l.47 3.32h.38c1.4 0 1.53-.38 1.13-3.15-.46-3.09-.74-5.27-1-7.65-.14-1.29-.28-2.49-.31-2.66-.05-.3.2-1.13.31-1.02.03.03.23.41.44.86.22.44.56.98.76 1.21.31.34.35.43.25.6-.15.28-.3.26-.58-.06l-.23-.28.06.8c.1 1.22.52 4.56.86 6.85.37 2.47.42 3.74.16 4.42-.23.6-.95 1.26-1.47 1.34-.61.1-.61.1-.49 1.13.12 1.05 0 2.07-.31 2.78-.32.73-.43.56-.35-.53.04-.59.02-1.41-.05-2.14l-.13-1.18-.36-.1c-.57-.18-1.17-.62-2.36-1.72-1.09-1.02-1.85-1.66-1.85-1.57 0 .02.12.25.26.5.46.84.42 2.02-.1 2.65-.37.42-1.08.77-2.87 1.38-1.85.62-2.62 1-3.28 1.6l-.46.42.01.68c.01 1.74 1.04 2.68 2.89 2.65 1.39-.02 1.57-.08 1.72-.61.07-.25.25-.71.4-1.03l.27-.58-.32-.25c-.37-.3-.4-.51-.11-.88.2-.25.64-.36.71-.17.02.05.38-.28.81-.75l.78-.83-.22-.3c-.2-.27-.21-.34-.11-.7.27-.89.83-.69.87.31.01.3.05.59.08.65.12.18-.04.45-.23.4-.12-.03-.39.17-.84.63-.68.69-.76.84-.51.94.22.08.19.22-.19.85-.41.68-.82 1.68-.73 1.77.16.17 2.1-.88 3.29-1.77.99-.74 1.01-.86.4-2.16-.92-1.96-1.06-2.51-.78-3.01.12-.23.14-.22.93.7.44.51.78.99.76 1.05-.08.2-.34.15-.61-.09-.21-.21-.2-.15.13.57.62 1.34.65 1.43.65 1.94 0 1.29-1.99 3.02-4.54 3.97-.54.2-.59.48-.21 1.28.5 1.06 1.37.85 2.67-.64 1.88-2.14 2.86-2.86 5.16-3.77 1.69-.66 1.57-.51 1.31-1.53-.62-2.45 1.26-4.03 2.33-1.96.47.9.21 2.2-.61 3.09l-.41.44.28.25c.73.69 1.79.61 2.41-.18.45-.58.47-.42-.68-9.47-.92-7.21-.95-7.67-.52-7.67.14 0 1.64 3.09 1.57 3.25-.09.24-.35.06-.67-.44-.36-.57-.36-.76.11 2.82 1.25 9.53 1.34 10.59.96 11.65-.64 1.84-2.92 2.24-3.9.68-.16-.25-.3-.46-.32-.46s-.56.2-1.21.46c-2.35.9-3.3 1.55-4.94 3.38-1.59 1.77-2.12 2.04-3.09 1.54Zm5.1.04c0-.04.06-.14.13-.22.1-.12.09-.12-.03-.03-.21.16-.47.11-.66-.13-.14-.18-.15-.18-.04.04.16.33.08.36-.42.14s-.78-.5-.61-.6c.07-.04.11-.16.1-.27-.02-.22.17-.27.47-.12.14.07.22.05.3-.09.09-.17.11-.16.16.11l.07.3.11-.41c.23-.81.75-.95.76-.21.01.32.14.42.32.24.14-.14.34-.06.34.13 0 .11.06.2.14.2.29 0 .26.19-.07.44-.38.29-1.07.6-1.07.48Zm-3.68-.35c.2-.12.82-.73 1.37-1.34 1.76-1.96 2.59-2.52 5.16-3.54 2.27-.89 2.99-1.64 2.99-3.09 0-1.91-1.66-2.38-2.03-.58-.14.68.15 2.38.38 2.23.05-.02 0-.28-.1-.57-.26-.76-.25-1.65.03-1.95.42-.45 1.11-.25 1.42.41.54 1.15-.22 1.99-2.67 2.97-2.82 1.11-3.49 1.6-5.99 4.37-.95 1.05-1.73 1.18-2.43.41-.4-.44-.46-.38-.12.12.51.77 1.29.99 1.99.56Zm6.1-.98c-.22-.51-.31-.59-.75-.68-.36-.08-.5-.38-.34-.71.19-.37.35-.35.82.12l.44.44.06-.36c.12-.66.65-.94.87-.46.16.36.04.6-.26.52-.26-.06-.26-.07-.42.89-.12.7-.2.75-.42.24Zm2.19-.7c-.26-.28-.29-1.11-.07-1.64.19-.45.41-.47.32-.03-.22 1.03-.22 1.01.14.93l.33-.07-.07.33c-.11.56-.38.76-.65.48Zm-11.11-.64c2.26-.56 5.4-2.71 5.4-3.72 0-.12-.07-.07-.24.17-.3.45-1.59 1.37-2.77 1.99-3.52 1.83-6.4 1.39-6.96-1.06l-.13-.58.05.55c.23 2.33 1.95 3.31 4.65 2.65Zm-1.26-1.6c-.07-.3-.4-.55-.7-.55-.23 0-.34-.17-.34-.54 0-.5.34-.51.86-.04l.21.19.07-.49c.07-.56.25-.77.56-.67.5.16.45.93-.06.81-.24-.06-.24-.05-.24.58 0 .91-.21 1.31-.36.71Zm14.85-.24c.38-.19.85-.73.96-1.1.07-.21.03-.2-.28.11-.84.84-1.99.89-2.79.11-.44-.43-.65-.25-.3.24.65.9 1.45 1.12 2.41.64Zm-16.63-1.07c-.74-.74-.18-1.25 2.56-2.34 1.39-.55 1.48-.57 1.48-.36 0 .27-.74.75-2.04 1.32-1.6.7-1.59.69-1.52 1.1.05.24.02.33-.1.38-.21.08-.2.08-.38-.1Zm-6.55-.15c.47-.25.39-1.09-.1-1.09-.21 0-.62.44-.87.91l-.15.29h.46c.26 0 .55-.05.66-.11Zm28.79.03c0-.16-.77-1.07-.93-1.1-.45-.09-.64.61-.27.98.2.2 1.2.3 1.2.12Zm-30.5-.15c0-.07.13-.34.3-.6l.3-.47h-.28c-.15 0-.51-.07-.81-.15-.62-.16-.64-.14-.97.58-.21.45-.24.42.61.6.89.19.85.19.85.04Zm32.03-.07c.66-.13.69-.22.32-.85l-.24-.42-.53.13c-.29.08-.63.14-.76.14s-.22.03-.2.08c.27.6.62 1.13.71 1.09.07-.03.38-.1.7-.17Zm-17.81-.22c-.3-.39-.18-1.38.17-1.38.22 0 .67.34.81.61.27.49-.63 1.2-.98.77Zm-9.02-.45c.14-.09.59-.48 1-.88 1.3-1.24 2.15-1.7 4.5-2.44 2.61-.83 3.04-1.28 2.32-2.42-.35-.54-2.39-2.49-2.61-2.49-.19 0-1.77 1.25-3.36 2.66-1.09.96-2.16 1.74-2.41 1.74-.59 0-1.19 2.43-.83 3.37.24.63.84.83 1.39.46Zm19.23-.2c-.17-.41-.13-1.09.08-1.56s.29-.3.22.48c-.04.53-.03.75.06.75.06 0 .11-.07.11-.15s.07-.15.15-.15c.2 0 .2.49-.01.78-.22.32-.43.27-.61-.15Zm-1.38-.76c.52-.74-.39-2.09-.95-1.42-.15.18-.09 1.33.09 1.78l.11.28.3-.21c.16-.12.36-.31.45-.43Zm-3.32.16c.04-.03.01-.16-.06-.27-.21-.33-.3-1.26-.12-1.26.08 0 .15.06.15.13 0 .06.07.03.16-.08.14-.19.16-.19.28-.03.11.16.14.16.28.01.15-.14.17-.13.23.06.03.11.13.21.21.21.47 0 .14.67-.51 1.05-.38.23-.78.34-.62.18Zm7.83-.41c-.03-.2-.06-.84-.06-1.42 0-1.33-.19-3.13-.64-6.05-.53-3.46-.6-4.15-.47-4.48.15-.39.31-.31.65.34.87 1.64 1.14 2.03 1.18 1.68.02-.18.08-.34.13-.36.08-.02.12 1.29.05 1.67 0 .03-.07-.03-.14-.13-.08-.1-.12-.27-.09-.37.04-.13-.01-.22-.13-.26-.11-.03-.34-.23-.52-.43l-.32-.36.05.3c.13.79.75 5.01.85 5.87.16 1.25.08 3.17-.15 3.8-.22.62-.31.66-.39.2Zm-26.66.18a1 1 0 0 0-.42-.1c-.19 0-.28-.05-.28-.16s.06-.14.21-.09c.14.05.25.02.3-.06.07-.11.09-.11.09.02 0 .25.48.31.56.07.29-.91-.82-1-1.66-.13l-.32.33.48.07c.27.04.54.08.59.1.25.09.6.05.45-.05Zm30.11-.02.7-.11-.38-.39c-.72-.74-1.63-.76-1.63-.03 0 .24.05.35.15.35.08 0 .15-.04.15-.1 0-.16.77-.12.83.04.04.11-.07.17-.46.24-.29.05-.42.1-.29.11.13 0 .55-.04.93-.11Zm-26.04-.15c-.37-.42-.28-1.71.15-2.09.21-.19.21-.19.14.11-.09.36-.17 1.58-.1 1.33.09-.3.34-.21.34.11 0 .47-.31.78-.53.54Zm2.28-1.42c-.13-.43-.46-.71-.81-.71-.39 0-.52-.27-.35-.73.17-.43.6-.3 1.02.31.16.22.16.22.23-.25.1-.73.46-1.02.79-.65.28.3.22.63-.09.6s-.39.13-.49 1.05c-.07.58-.19.73-.3.38Zm-2.23-1.74c.32-.17 1.19-.86 1.95-1.53.76-.66 1.8-1.53 2.31-1.94.89-.7.92-.73.72-.87-.23-.17-1.19.53-3.4 2.48-2.23 1.96-3.19 2.27-3.86 1.23-.25-.38-.29-.2-.05.2.48.77 1.43.95 2.33.43Zm4.29-.13c-.46-.41-.51-.68-.2-1.08l.21-.27.45.26.45.25.22-.27c.11-.14.24-.3.27-.35.09-.14 1.19.64 1.19.85 0 .24-.38.87-.52.87-.2 0-.78-.68-.78-.91 0-.19-.06-.13-.29.26-.46.8-.53.83-1 .39Zm-4.88-.39c.18-.09.6-.39.94-.68.34-.28 1.28-1.08 2.1-1.77.81-.69 1.61-1.35 1.78-1.46l.29-.22-.54-.35c-.7-.45-1.68-1.18-3.09-2.3l-1.12-.89-.19.24a3.36 3.36 0 0 0-.78 1.9c-.06.8.02.84.53.31.19-.2.38-.33.42-.29.13.13-.27.75-.77 1.17-2.01 1.71-1.65 5.35.43 4.34Zm17.53-.21c-.36-.25-.38-.29-.33-.66.1-.73.34-.79.96-.24l.24.21-.07-.35c-.03-.19-.13-1-.21-1.79-.18-1.75-.1-1.66-.93-.92-.38.33-.72.61-.75.61-.23 0 .03-.36.68-.98.41-.39.75-.74.75-.79 0-.04-.13-1.05-.29-2.23-.66-4.91-.73-6.22-.29-6.08.08.03.81 1.54 1.19 2.46.13.34-.18.42-.43.11l-.2-.24.06.55c.1.84.56 4.32.62 4.59l.05.24.22-.21c.21-.21.21-.23.04-.51-.32-.55-.07-1.45.37-1.28.52.2.42 1.53-.16 2.13l-.39.41.15 1.88c.09 1.04.18 1.9.2 1.93.02.02-.04.12-.14.22-.31.31-.2.72.25.94s.7.13.7-.27c-.01-.14.03-.23.07-.21.13.09.09.42-.08.58-.22.22-.45.2-.86-.07l-.34-.24-.3.23c-.36.29-.31.29-.78-.02ZM7.79 26c.49-.07.63-.35.32-.61-.16-.13-.33-.18-.48-.14-.2.05-.23.02-.23-.27v-.32l-.28.27c-.24.23-.37.27-.88.28h-.59l.38.16c.46.19.47.36.05.54l-.33.14.65.06c.52.05.67.11.8.3l.15.23.05-.3c.04-.24.11-.3.39-.34Zm37.23.09c.57-.01.6-.02.33-.11-.64-.23-.65-.49-.01-.67.26-.08.21-.09-.36-.1-.59-.01-.69-.04-.87-.26l-.2-.26-.03.28c-.02.23-.08.28-.3.29-.67.02-.78.66-.12.77.3.04.44.16.44.37 0 .17.02.17.25-.05.2-.21.34-.25.87-.26ZM14 26.23c-.01-.05.63-.69 1.41-1.44l1.42-1.35-.18-.47c-.26-.68-.07-1.27.41-1.27.33 0 .57.48.49.98l-.06.37.18-.23c.25-.3.33-.19.21.26-.14.51-.26.64-.49.52-.15-.08-.23-.03-.49.28-.68.85-2.89 2.63-2.9 2.35Zm12.6-.58c-.19-.23-.23-.95-.08-1.44.22-.73.38-.63.32.21-.02.4-.01.67.02.61.14-.31.46-.14.39.2-.12.55-.39.73-.65.42Zm12.23-.19c-.39-.49-.37-1.84.03-2.17.13-.11.14-.02.08.72-.05.7-.04.82.07.72.22-.21.29-.15.29.25 0 .6-.21.82-.47.48Zm-4.53-.38c-.33-.54-.18-2.08.19-2.08.14 0 .14.15 0 .64-.13.48-.02 1.26.12.88.13-.35.34-.21.33.21-.02.68-.34.85-.64.35Zm-5.09-1.69c-.37-.6-.39-1.72-.04-2.01.15-.12.16-.07.1.44-.07.77-.01 1.01.24.85.28-.18.41.01.29.45-.16.57-.35.66-.59.27Zm-7.76-2.4c-.26-.52-.45-.69-.76-.69-.36 0-.64-.39-.55-.75.1-.41.77-.18 1.21.42.12.16.14.14.2-.22.14-.85.44-1.17.84-.89.33.24.25.59-.14.59-.32.01-.43.29-.45 1.2-.01.62-.14.75-.35.34Zm-9.67.09c.51-.51-.05-1.03-1-.94-.87.08-.89.09-.54.45.51.53 1.26.77 1.54.49Zm29.45-.02c.32-.14.94-.72.86-.8-.03-.03-.41-.08-.86-.12l-.81-.07-.17.32c-.32.63.21 1 .98.67Zm-30.62-1.61.47-.06-.36-.54c-.4-.61-.49-.64-1.31-.39-.58.17-.58.18-.17.83.24.37.27.39.58.31.18-.04.54-.11.79-.15Zm32.4-.47.19-.37-.42-.11c-.24-.06-.57-.15-.74-.2-.28-.07-.33-.05-.42.15-.06.12-.25.39-.42.59l-.32.36.28.01c.16 0 .54.06.84.13.62.13.66.11 1.01-.56Zm-11.78.26c-.33-.51-.19-2.21.17-1.99.04.03.03.26-.02.52-.11.62-.03 1.04.16.78.23-.32.42.06.25.52-.18.47-.33.51-.56.17Zm-18.82-.08c.26-.56-.22-1.06-1.01-1.06-.39 0-.38.07.07.66.55.73.75.82.94.4Zm28.51-.89c.14-.26-.83-.18-1.13.09-.25.22-.25.79-.01.93.17.11.86-.51 1.14-1.02Zm-20.28.18c-.22-.33-.16-1.41.1-1.79.25-.39.3-.27.16.37-.16.72-.07 1.17.19.93.23-.21.31-.2.31.04 0 .62-.46.9-.76.45Zm7.48-1.11c-.25-.17-.29-.63-.1-1.25.1-.35.28-.54.28-.29 0 .06.05.1.11.1.63 0 .88.83.4 1.31-.34.34-.39.34-.69.13Zm-9.42-2.52c0-.12 5.18-2.17 5.27-2.09.08.08-.2.21-2.76 1.22-2.62 1.03-2.51.99-2.51.87Zm0-.29c0-.12.16-.19 2.28-1.05 2.41-.96 2.82-1.11 2.89-1.04.1.09.11.09-2.47 1.11-1.35.53-2.51.99-2.58 1.02-.06.03-.12.01-.12-.04Zm-6.15-1.63.22-.2.18.2c.44.48.94.11.55-.42l-.22-.3.23-.24.22-.24h-.48c-.43 0-.52-.04-.86-.4l-.38-.39.06.36c.06.33.04.36-.13.29-.55-.23-.58-.18-.14.28.38.4.45.52.44.86-.02.46.02.48.31.2Zm26.39-.01c.25-.2.28-.2.45-.05.26.23.31.2.31-.2s.3-.89.6-.99c.11-.04.2-.13.2-.2 0-.12-.06-.12-.27-.04-.43.16-.57.05-.38-.31.22-.43.05-.37-.28.1-.27.39-.8.61-1.06.45-.14-.08-.14.01 0 .26.08.16.07.26-.05.44-.26.39-.19.7.15.74.04.01.18-.08.33-.2Zm-19.3-1.12c.09-.25.06-.31-.39-.72-.63-.56-.65-.56-.65.1 0 .89.79 1.36 1.04.62Zm13.68.02c.14-.18.18-.38.16-.72l-.03-.47-.57.46c-.35.27-.55.51-.53.59.03.08.07.22.1.31.08.25.64.14.87-.17Zm-11.88-.45c.27-.27.12-.81-.38-1.41-.37-.44-.42-.42-.49.2-.04.29-.09.67-.13.83-.09.46.65.74 1 .38Zm10 .03c.17-.13.18-.2.06-1.01l-.12-.88-.3.34c-.88 1-.6 2.25.36 1.55Zm1.88-1.81a9 9 0 0 0-.13-.74l-.11-.53-.46.27c-.26.15-.5.3-.54.33-.04.04-.03.45.04.93l.11.86.56-.46c.39-.32.55-.52.53-.66Zm-13.37.19c.16-.87.19-.8-.49-1.16-.46-.25-.5-.22-.66.6-.11.54-.11.65.01.71.08.05.32.22.54.39.48.36.41.41.6-.54Zm6.45-2.24c.05-.11.1-.31.1-.45 0-.21.05-.26.25-.26.14 0 .25-.03.25-.06s-.11-.15-.25-.26c-.22-.17-.25-.28-.25-.81l-.01-.62-.2.38c-.24.45-.37.47-.5.07-.16-.45-.24-.36-.21.2.04.45.01.52-.29.8l-.33.3h.32c.3 0 .32.02.32.38 0 .56.55.78.8.33Z"/></svg>