<svg xmlns="http://www.w3.org/2000/svg" width="51" height="51" viewBox="0 0 51 51"><path fill="#fff" fill-rule="evenodd" stroke="#fff" stroke-width=".758" d="M3.85 51.06c-1.31-.41-2.51-1.35-3.18-2.47-.41-.7-.7-1.56-.65-1.91.02-.15.12.04.28.56a5.41 5.41 0 0 0 3.85 3.68c.27.06.54.16.6.2.14.12-.45.08-.9-.06Zm42.55.06c.08-.05.33-.13.55-.16 1.71-.3 3.46-1.99 3.92-3.78.17-.65.33-.89.33-.48 0 .31-.45 1.46-.81 2.06-.69 1.14-2.45 2.32-3.61 2.41-.35.03-.48.01-.38-.05ZM23.2 40.46c-5.69-1.02-10.19-4.91-11.93-10.31-1.36-4.24-.67-9.25 1.8-12.92 4.15-6.17 12.29-8.39 18.98-5.18 7.54 3.62 10.66 12.44 7.09 20.05-1.9 4.04-5.73 7.13-10.12 8.16-1.33.32-4.54.43-5.82.2Zm5.4-.31c5.86-1.3 10.25-5.71 11.52-11.58.3-1.39.33-4.57.05-5.87-2.03-9.48-12.22-14.59-20.96-10.49-6.74 3.16-10.04 10.98-7.66 18.16 1.66 5 6.17 8.87 11.45 9.83 1.33.25 4.4.22 5.6-.05Zm-4.45-3.21c-7.37-1.08-11.77-8.34-9.28-15.29 2.78-7.73 12.74-9.96 18.73-4.19 6.32 6.09 3.42 16.91-5.15 19.19-.98.27-3.37.42-4.3.29Zm4.16-.47c4.1-1.07 7.16-4.17 8.21-8.34.32-1.24.32-4.1.01-5.23-.58-2.09-1.39-3.56-2.78-4.99-6.15-6.36-16.72-3.67-19.02 4.86-.4 1.46-.4 4.21-.01 5.66 1.18 4.3 4.54 7.38 9 8.23 1.15.21 3.39.12 4.59-.19Zm-8.12-3.26c-.46-.15-.79-.43-1.06-.89-.42-.71-.36-1.24.37-3.32.34-.96 1.16-3.34 1.81-5.29.66-1.95 1.29-3.72 1.4-3.94 1.02-1.99 3.52-2.44 5.06-.91.71.71.68.64 3.09 7.72 1.55 4.57 1.62 4.87 1.24 5.61-.87 1.72-2.84 1.36-3.66-.67l-.29-.72-2.58.02-2.59.03-.27.63c-.57 1.35-1.57 2.03-2.52 1.73Zm1.38-.44c.39-.26.77-.84 1.05-1.6l.21-.57 2.74.02 2.75.03.29.76c.63 1.62 1.82 2.12 2.9 1.22.88-.74.84-1.01-.87-6.07-1.91-5.65-2.28-6.62-2.7-7.19-1.36-1.86-4.01-1.55-5.07.58-.13.28-.88 2.37-1.65 4.65s-1.55 4.53-1.72 5c-.41 1.1-.5 1.6-.38 2.14.24 1.14 1.49 1.66 2.45 1.03Zm2.49-5.95c-.04-.07 1.03-3.42 1.29-4.04.04-.1.15-.18.25-.18.19 0 1.66 4.11 1.52 4.24-.09.09-3 .07-3.06-.02Zm2.84-.21c0-.07-1.06-3.19-1.26-3.71-.05-.13-1.32 3.36-1.33 3.68-.01.09.31.12 1.29.12.71 0 1.3-.04 1.3-.09ZM.03 4.31C.24 2.45 2.49.21 4.31.05L4.85 0l-.7.23C2.12.91.74 2.29.27 4.13c-.2.77-.31.86-.24.18Zm50.9-.04C50.53 2.36 49.07.87 47 .26c-.78-.23-.82-.25-.43-.25 1.93-.03 4.63 2.66 4.63 4.61 0 .37-.16.16-.27-.35Z"/></svg>