<svg xmlns="http://www.w3.org/2000/svg" width="51" height="51" viewBox="0 0 51 51"><path fill="#fff" fill-rule="evenodd" stroke="#fff" stroke-width=".397" d="M13.22 48.78c-.01-1.26-.01-2.28.01-2.28s.16.15.33.32c.27.31.28.32.02.09l-.28-.24-.03 2.19-.02 2.19zm8.1 1.93a.87.87 0 0 0-.2-.45c-.16-.2-.16-.2 0-.07.17.13.18-.08.2-4.1l.03-4.24.02 3.87.03 3.88 13.48.03 13.47.02-13.47.03-13.47.02-.04.63c-.02.34-.04.51-.05.38Zm-9.18-3.21c0-1.29.02-1.82.03-1.17.02.64.02 1.7 0 2.35-.01.64-.03.11-.03-1.18Zm36.89.23c.43-.02 1.1-.02 1.5 0 .4.01.05.03-.78.03-.82 0-1.15-.02-.72-.03ZM4.74 45.51l1.09-1.1-.39-.04c-.36-.03-.35-.04.11-.05l.5-.02-1.15 1.15c-.63.63-1.17 1.15-1.2 1.15-.02 0 .44-.49 1.04-1.09Zm28.29-2.28c3.35-.02 8.79-.02 12.1 0 3.31.01.58.02-6.08.02-6.65 0-9.36-.01-6.02-.02Zm-28.61-3.2c.54-.02 1.42-.02 1.96 0 .53.01.09.03-.98.03s-1.51-.02-.98-.03Zm32.21-.11c-.06-.04.89-.06 2.1-.04 3.35.04 3.63.08.67.1-1.46.01-2.7-.02-2.77-.06Zm7.29-3.18c.07-.06 4.4-.05 4.47.01.02.03-.98.05-2.24.05s-2.26-.03-2.23-.06Zm-4.1-1.56c-.18-.18-.15-.32.23-.88.59-.87.58-1.04-.11-2.85-.3-.76-.42-.98-.65-1.09s-.29-.12-.29-.02c0 .27-.37.48-.73.41-.52-.1-.67.17-.67 1.22 0 .8.01.82.28.95.15.07.27.2.27.28 0 .23-1.75.27-1.91.05-.1-.14-.13-.14-.24 0-.15.18-.71.2-.87.04-.09-.09-.22-.08-.52.04-.78.32-1.51-.13-1.51-.92 0-.45.15-.6.87-.91.66-.28.87-.51.79-.85-.1-.41-.52-.34-.74.13-.19.41-.56.51-.75.2-.37-.57.94-1.36 1.79-1.08.52.17.64.51.64 1.75v1.05h.3c.19 0 .3.05.3.14s.07.12.2.09c.32-.08.31-2.38-.01-2.46-.42-.11-.18-.4.46-.56.53-.13.6-.12.69.01.09.14.13.14.44 0 .31-.15.36-.15.63 0 .16.1.31.13.34.07.14-.21 1.85-.11 1.85.12 0 .12-.08.23-.2.26-.11.03-.2.06-.2.07 0 .2.6 1.47.64 1.36.15-.39.46-1.33.44-1.34-.7-.24-.54-.51.31-.54.89-.04 1.09.09.7.41-.18.15-.46.68-.84 1.62-.32.77-.75 1.84-.97 2.38-.42 1-.62 1.19-.96.85Zm8.79-1.75c.52-.5 1.24-1.27 1.59-1.72s.65-.81.67-.81c.11 0-.7 1.01-1.4 1.76l-.78.83 1.28.04 1.28.03-1.37.02-1.38.02-.42.37c-.24.2 0-.05.53-.54Zm-7.62-.32c.19-.47.2-.55.07-.65-.18-.13-.89-2.04-.81-2.17.04-.05-.08-.09-.25-.09-.27 0-.29.02-.21.19.38.7 1.02 2.69.97 3-.07.43-.02.38.23-.28Zm-22.22.25c-1.47-.53-1.44-2.68.06-3.31.79-.33 2.06-.06 1.81.38-.21.36-.25.37-.66.16-.64-.32-1.13-.1-1.28.57-.24 1.07.7 1.97 1.46 1.39.52-.39.72-.04.24.44-.47.46-1.01.59-1.63.37Zm3.07.04c-.45-.18-.54-.46-.54-1.72 0-1.18 0-1.18-.24-1.18-.13 0-.27-.07-.3-.16-.08-.21.11-.44.35-.44.1 0 .21-.1.24-.22.23-.74.85-.91.85-.24v.45l.42.03c.35.02.43.07.43.23s-.08.21-.43.23l-.42.03v1.04c0 1.32.02 1.37.5 1.29.28-.05.39-.02.43.09.03.1.14.13.31.1l.26-.05V31.7c0-1.11-.01-1.18-.21-1.23-.38-.1-.18-.4.36-.54.77-.2.75-.23.75 1.44 0 1.44.01 1.49.23 1.58.12.06.22.17.22.25 0 .22-1.73.28-1.81.06-.05-.12-.12-.12-.47.05-.46.2-.61.22-.93.09Zm4.51-.04c-.89-.4-1.29-1.49-.89-2.44.7-1.68 3.05-1.41 3.3.39.2 1.48-1.13 2.62-2.41 2.05Zm-16.1-.05c-.09-.16.13-.41.35-.41.25 0 .3-.28.3-1.75 0-1.84-.07-2.33-.34-2.37-.13-.02-.21-.1-.21-.23 0-.36 3.1-.3 3.88.08 1.74.86 1.46 3.63-.46 4.48-.61.27-3.38.42-3.52.2Zm5.45-.1c0-.11.09-.22.2-.26.18-.06.2-.15.2-1.22 0-1.06-.01-1.15-.2-1.2-.4-.11-.23-.41.32-.58.83-.24.78-.33.78 1.38v1.53l.31.11c.57.22.3.38-.69.41-.86.03-.92.01-.92-.17Zm13.3-.02c0-.12.08-.23.2-.26.32-.08.3-2.24-.02-2.45-.35-.23-.16-.43.53-.58.56-.12.63-.12.74.03.11.16.15.16.44.01 1.03-.52 1.61.17 1.61 1.9 0 .96.02 1.05.2 1.11.11.04.2.15.2.26 0 .28-1.73.25-1.78-.03-.02-.1.05-.19.18-.23.2-.06.2-.13.18-1.17-.03-1.3-.12-1.44-.72-1.15l-.36.17v1.04c0 .96.02 1.05.2 1.11.11.03.2.15.2.26 0 .17-.08.19-.9.19-.85 0-.9-.01-.9-.21Zm-12.21-.28c-.06-.16-.09-.86-.07-1.55s.02-1.26.01-1.26c-.25 0-.53.23-.44.34.08.1.11.55.09 1.4-.02 1.05-.01 1.26.12 1.3.36.09.39.07.29-.23Zm2.96.19c.18-.08.17-.09-.08-.09-1.09-.03-1.72-1.56-.99-2.43.27-.33.27-.33.02-.17-1.41.91-.46 3.34 1.05 2.69Zm2.8 0c.17-.07.15-.09-.12-.09-.41-.01-.53-.35-.53-1.5 0-1.02.07-1.31.29-1.32.14-.01.13-.02-.01-.06-.14-.03-.18-.15-.18-.46 0-.41 0-.41-.19-.22-.23.23-.24.38-.23 2.12.02 1.6.19 1.86.97 1.53Zm7.57-1c-.02-.61 0-1.19.04-1.28.06-.16.06-.63-.01-.7-.02-.02-.19 0-.39.03-.31.06-.34.09-.21.22.19.19.22 2.52.03 2.71-.09.09-.04.12.23.12h.34zm4.33 1c.19-.08.19-.09-.02-.09-.38-.01-.66-.38-.6-.77.07-.39-.04-.43-.34-.13-.48.48.29 1.28.96.99Zm3.07-.02c-.17-.17-.16-2.19 0-2.37.1-.11.1-.13 0-.07-.08.05-.12-.02-.12-.25 0-.28-.03-.31-.22-.25-.13.03-.29.06-.37.06-.11 0-.11.04.02.18.24.26.25 2.43.01 2.66-.14.15-.11.16.32.16.37 0 .45-.03.36-.12Zm-25.78-.12c-.23-.17-.35-3.76-.14-4.16.1-.18.08-.2-.22-.2h-.33l.03 2.11c.02 1.49-.01 2.15-.09 2.25-.1.12-.03.14.42.14.48 0 .51-.01.33-.14Zm12.58-1.33c-.04-1.68-.01-1.56-.33-1.44-.13.05-.18.1-.11.1.11.01.13.3.1 1.41-.03 1.34-.02 1.4.17 1.4s.2-.06.17-1.47Zm1.96 1.1c-.33-.54-.34-1.77 0-2.22.27-.37.15-.41-.22-.06-.33.31-.46.64-.46 1.2s.13.89.46 1.2c.39.36.49.3.22-.12Zm2.08-.4c.32-.74.08-1.66-.51-2.03-.43-.27-.49-.25-.2.06.42.45.52 1.64.21 2.39l-.17.39.27-.24c.15-.14.33-.39.4-.57Zm3.84-.53c-.06-1.5-.18-1.75-.81-1.68l-.34.04.28.12c.39.17.49.52.45 1.74l-.03 1.08h.5zm3.49 1.23c-.24-.06-.29-.33-.29-1.49 0-1.11-.07-1.29-.55-1.4-.29-.06-.29-.06-.09.1.43.31.4.96-.05 1.21l-.26.15.26-.06c.27-.06.48.6.33 1.01-.09.23.25.55.55.54.15-.01.19-.03.1-.06Zm-8.29-.13c.57-.3.48-2.19-.11-2.51-.55-.29-.99.23-.99 1.16 0 1.08.49 1.68 1.1 1.35Zm-14.14-.19c.82-.37 1.24-1.35 1.04-2.43-.19-.98-.73-1.41-1.79-1.42l-.66-.01-.03 1.83c-.01 1.14.01 1.9.08 2.02.14.26.8.27 1.36.01Zm1.27-.51c.92-1.08.72-2.81-.37-3.31-.57-.26-.76-.24-.35.04.95.62 1.09 2.49.28 3.5-.43.53-.04.33.44-.23Zm20.15.38c.14-.14.15-.47.03-.67-.14-.21-.61.12-.61.43 0 .37.32.5.58.24Zm-18.42-3.31c-.28-.21-.18-.69.18-.82.49-.17.83.38.46.75-.23.23-.39.25-.64.07Zm7.54-.07c-.37-.37-.06-.89.44-.76.37.09.46.53.16.78-.28.23-.35.23-.6-.02Zm-6.46-7.19c-1.39-.85-.87-3.23.74-3.39.81-.07 1.52.48 1.52 1.2 0 .36-.04.37-1.14.45-1.05.07-1.07.08-.82.68.24.56.73.71 1.19.35.51-.4.89-.1.46.37-.5.53-1.38.69-1.95.34Zm2.69-.16c-.6-.6-.35-1.17.74-1.66.7-.32.77-.4.69-.75-.1-.4-.52-.33-.73.14-.2.4-.51.53-.72.28-.63-.76 1.37-1.7 2.09-.98.3.3.3.31.3 1.46v1.16l.24-.06c.17-.04.27-.01.34.12.06.1.16.15.26.11.27-.1.23-2.23-.04-2.45-.29-.25-.12-.42.55-.57.54-.13.57-.13.62.05s.07.18.26.05c.64-.45 1.44.18.88.69-.15.13-.24.15-.46.06-.51-.19-.65.07-.65 1.21 0 .93.01.98.22 1.01.13.02.24.11.26.21.03.17-.05.18-1.1.17-.62 0-1.26.02-1.41.06-.17.04-.38.01-.51-.06-.18-.09-.29-.09-.44-.01-.44.24-1.01.14-1.39-.24Zm10.71.25c-.31-.12-.72-.66-.84-1.11-.49-1.79 1.79-3.26 2.78-1.79.54.8.21 1.08-1.25 1.09-.58.01-.63.03-.63.24 0 .73.84 1.2 1.4.78.32-.23.46-.26.55-.11.34.55-1.19 1.24-2.01.9Zm2.56 0c-.31-.07-.33-.34-.03-.38.34-.05.36-2.31.02-2.39-.42-.11-.19-.46.45-.65.61-.19.76-.17.76.08 0 .13.03.13.22 0 .43-.3 1.08-.13 1.08.28 0 .36-.32.58-.73.51-.5-.1-.67.18-.67 1.11 0 .85.06 1.04.3 1.04.21 0 .35.29.17.35-.25.08-1.33.12-1.57.05Zm3.87-.1c-.28-.22-.5-.81-.4-1.06.09-.25.37-.11.58.29.22.4.43.52.76.42.38-.12.21-.55-.39-.95-1.27-.84-1.01-2.1.43-2.1.75 0 1.23.59.85 1.05-.18.22-.26.19-.49-.2-.22-.37-.5-.45-.7-.21-.19.23.03.53.59.81.6.3.8.58.8 1.08 0 .89-1.3 1.44-2.03.87Zm-24.6.03c-.14-.13-.06-.24.23-.34l.3-.11v-3.96l-.3-.11c-.68-.23-.21-.51.88-.51.57 0 .83.04.92.15.14.17.05.35-.19.35-.37 0-.41.18-.41 2.12v1.88h.65c.69 0 .82-.07 1.26-.71.41-.6.59 0 .28.99l-.11.32h-1.72c-.95 0-1.76-.03-1.79-.07ZM25.75 22c-.09-.15.03-.3.25-.3.25 0 .3-.19.3-1.13 0-.95-.07-1.27-.26-1.27-.21 0-.17-.38.06-.5.38-.2 1.1-.25 1.1-.06 0 .2.09.2.34.01.11-.09.41-.15.68-.15.86 0 1.08.43 1.08 2.12 0 .77.02.89.2.98.48.26.23.4-.7.4-.9 0-1.25-.18-.7-.35.18-.06.2-.15.2-1.2 0-1.33-.09-1.48-.71-1.17l-.34.17-.03 1.02c-.02.94-.01 1.03.18 1.13.11.06.2.17.2.25 0 .18-1.74.22-1.85.05Zm-11.9-.37c-.21-.21-.22-3.65-.01-4.06l.15-.27h-.45c-.45 0-.45 0-.3.22.21.3.23 3.69.03 4.08-.13.25-.13.25.3.22.37-.04.41-.06.28-.19Zm4.8.17c.16-.07.11-.09-.22-.09-.73-.02-1.08-.37-1.15-1.16-.03-.39-.02-.4.32-.46l.35-.06-.33-.02c-.42-.01-.44-.35-.05-.82.24-.28.25-.31.06-.2-1.59.85-.62 3.52 1.02 2.81Zm2.29-.04c-.46-.2-.63-.94-.26-1.15.27-.16.05-.13-.27.04-.74.38-.45 1.25.42 1.25l.42-.01zm1.45.07c-.24-.06-.29-.33-.29-1.55 0-1.16-.09-1.38-.55-1.38h-.24l.24.25c.38.37.29.81-.23 1.1l-.27.14.33-.06.32-.05v.59c0 .34-.05.64-.12.72-.11.1-.1.11.03.06.09-.03.22.01.29.1.07.08.24.14.39.14.15-.01.19-.03.1-.06Zm1.83-.05c-.19-.19-.16-1.98.04-2.26.12-.17.12-.22.02-.2-.08.02-.14-.08-.16-.25-.04-.32-.01-.31-.42-.13-.24.1-.28.15-.16.19.2.08.24 2.45.04 2.65-.09.09-.02.12.32.12s.41-.03.32-.12Zm2.78-.09c-.07-.13-.1-.58-.06-1.22.07-1.45.07-1.48.01-1.57-.03-.04-.21-.03-.4.03-.28.08-.33.13-.2.19.19.11.23 2.46.03 2.66-.09.09-.03.12.3.12.4 0 .42-.01.32-.21Zm2.01-1.02c-.03-1.65-.26-2.05-1.06-1.79l-.3.1.32.01c.55.02.65.29.61 1.71l-.03 1.21.24-.03c.23-.03.24-.04.22-1.21ZM32 21.8c.11-.07.02-.1-.31-.1-.56 0-1.02-.43-1.13-1.05-.09-.44-.03-.52.44-.58l.35-.04-.37-.01c-.46-.02-.52-.32-.16-.77l.22-.28-.27.17c-.74.49-.88 1.83-.25 2.47.31.31 1.13.41 1.48.19Zm2.29-.07c-.11-.12-.14-.5-.12-1.53l.02-1.37-.4.1c-.38.09-.39.1-.19.24.24.17.31 2.38.08 2.61-.09.09-.02.12.31.12.39 0 .42-.02.3-.17Zm4.42-.02c.51-.41.28-1.06-.53-1.47-.64-.32-.89-.88-.56-1.23.11-.11.09-.11-.09-.02-.57.29-.41 1 .32 1.46.74.48 1.01 1.09.58 1.34-.1.06-.13.11-.07.11.07 0 .22-.08.35-.19Zm-17.47-.27c.14-.06.25-.84.11-.84-.25 0-.55.27-.55.5 0 .38.11.47.44.34ZM3.65 16.52c2.03-2.04 3.71-3.72 3.73-3.72.11 0-.35.46-3.73 3.8l-3.7 3.65zm15.58 3.42c.33-.12-.28-1.04-.69-1.04-.1 0-.08.06.06.2.11.11.21.27.22.35 0 .08.01.21.02.28.01.06-.15.15-.34.18-.33.06-.33.06.12.08.25 0 .53-.02.61-.05Zm13.37-.2c0-.28-.49-.84-.74-.84-.13 0-.12.04.04.2.11.11.21.27.22.35 0 .08.01.21.02.28.01.06-.15.15-.34.18-.29.05-.26.07.22.08.56.01.58 0 .58-.25Zm-14.1-.22c0-.41-.38-.54-.7-.22-.3.3-.24.4.25.4.37 0 .45-.03.45-.18Zm13.28-.03c-.05-.38-.34-.47-.63-.19-.35.33-.32.4.21.4.41 0 .45-.02.42-.21Zm4.02-1.19c0-.1.09-.24.19-.3.34-.18.37-.5.06-.74-.34-.27-.22-.66.21-.66.71 0 1 1.05.45 1.61-.36.35-.91.41-.91.09ZM3.25 14.29c-.04-.06-.04-.25-.01-.43.06-.32.01-.39-1.06-1.5-.62-.64-1.1-1.16-1.06-1.16.03 0 .56.52 1.17 1.16 1.1 1.15 1.11 1.17 1.05 1.55-.04.22-.03.39.02.39.18 0 1.66-1.58 1.6-1.69-.1-.16-.26-.14-.48.05-.17.16-.21.14-.65-.3l-.46-.47.3-.32c1.12-1.17.65-2.95-.71-2.73l-.31.05.31-.1c.41-.15.97.09 1.24.53.38.62.24 1.44-.37 2.25-.28.37-.22.58.26.92.25.18.3.19.41.06.16-.19.34-.19.5.01.12.13.01.27-.71 1-.86.86-.93.92-1.04.73Zm4.75-2c0-.04 2.46-2.54 5.48-5.56 3.01-3.02 4.62-4.62 3.57-3.56l-1.9 1.93h3.45v.59c0 .41-.04.6-.14.64-.17.07-.36-.11-.36-.32.01-.13.02-.13.11.02.18.31.29.18.29-.33v-.5h-1.72l-1.73-.01-3.52 3.58C9.59 10.74 8 12.32 8 12.29Zm15.93-.38c-.73-.34-.86-.99-.29-1.49l.34-.3-.26-.26-.26-.26.22-.3.23-.3-.21-.28c-.61-.83-.04-2.05.96-2.03.77 0 2.06.1 2.12.15.09.1-.3.46-.49.46-.14 0-.16.07-.12.39.11.78-.47 1.41-1.3 1.41-.37 0-.64.21-.52.41.05.08.25.09.59.05 1-.11 1.66.25 1.66.92 0 1.13-1.54 1.96-2.67 1.43Zm1.83-.22c.46-.28.74-.74.74-1.2 0-.57-.26-.73-1.27-.79-1.3-.08-1.47-.55-.27-.71.83-.11 1.09-.4 1.09-1.18-.01-.57 0-.6.27-.65.46-.09.32-.26-.23-.26-.27 0-.69-.05-.92-.11-1.2-.3-2.16 1.03-1.35 1.88l.27.28-.25.28c-.3.35-.3.41.02.66l.26.2-.36.34c-1.08 1.03.64 2.11 2 1.26ZM2.4 10.94l-.65-.65.28-.25c.78-.67 1.88.25 1.39 1.15-.27.49-.3.48-1.02-.25Zm21.88.46c-.41-.32-.42-.58-.03-.97.61-.61 1.75-.4 1.75.32s-1.11 1.14-1.72.65ZM.42 11.38c-.07-.07-.12-.17-.12-.22 0-.15 1.79-2 2.07-2.14.12-.07-.28.36-.88.95-.6.58-1.09 1.12-1.09 1.19 0 .21.19.27.38.12.15-.12.16-.11.03.05-.16.2-.23.21-.39.05Zm3.03-.48c.17-.69-.8-1.27-1.36-.81l-.24.19.6.61c.65.66.84.66 1 .01Zm22.19.39c.34-.27.37-.83.05-1-.3-.16-1.15-.06-1.39.16-.73.66.55 1.46 1.34.84Zm-18.81-.91.06-.43-1.13-1.14C4.71 7.76 4.62 7.68 4.41 7.8c-.28.14-.51.07-.51-.18 0-.11.49-.67 1.14-1.3L6.18 5.2h.5c.49 0 1.12.34 1.12.6 0 .05-.13-.05-.29-.21-.25-.25-.37-.29-.81-.29h-.51l-1.1 1.07C3.85 7.58 3.65 8.01 4.5 7.66c.11-.05.51.29 1.32 1.12 1.15 1.16 1.17 1.19 1.11 1.55-.08.52.04.47.8-.32.75-.77.83-.97.36-.87-.26.05-.37 0-.79-.4-.73-.69-.48-.79 1.2-.49l.85.15.48-.5c.27-.28.47-.56.44-.63-.05-.12-.09-.13-.42-.02-.14.04-.12.02.05-.09.21-.12.27-.12.38-.02.18.18.07.38-.5.93l-.44.43-.84-.15C7.65 8.2 7 8.16 7 8.25c0 .19.87.8 1.13.8.5 0 .42.22-.34 1-.85.88-1.04.95-.96.33Zm9.4-.25c-1.18-.04-1.49-.19-.84-.41.41-.14.51-1.04.35-3.3l-.07-.91-.31-.04c-.28-.04-.28-.04.04-.03l.35.01.06.7c.2 2.25.09 3.5-.34 3.65-.49.17-.3.19 1.46.21 1.92.03 1.74.08 1.83-.59.06-.51-.07-.75-.2-.34-.1.31-.45.62-.69.61-.2-.01-.2-.01.03-.08.15-.04.33-.22.45-.44.33-.61.59-.51.52.2s-.22.84-.96.81c-.31-.01-1.07-.04-1.68-.05Zm14.89-.05c-.15-.07-.22-.2-.22-.39 0-.15-.03-.36-.06-.46-.05-.15-.04-.15.05-.03.06.08.11.27.11.43 0 .85 1.76.59 2.05-.31l.15-.47-.05.39c-.09.78-1.23 1.25-2.03.84Zm-11.9-.15c.02-.09.14-.2.28-.23.25-.06.25-.07.28-1.23l.03-1.16-.26-.07c-.33-.08-.32-.3.01-.38.15-.04.28-.05.31-.03.02.03-.09.08-.24.12l-.28.07.27.14.28.15v1.12c0 1.17-.06 1.37-.42 1.37-.1 0-.18.05-.18.1 0 .06.35.1.86.1.54 0 .83-.04.79-.1-.03-.05-.13-.1-.2-.1-.18 0-.38-.36-.32-.58q.045-.165.12.15c.05.22.15.33.31.37.13.04.24.13.24.21 0 .12-.18.15-.96.15-.85 0-.95-.02-.92-.17Zm2.18.04c0-.08.11-.19.25-.25.28-.13.37-1.45.14-2.11s-1.09-.49-1.2.24l-.06.4-.02-.37c-.02-.6.56-.96 1.08-.67.51.29.61 2.22.14 2.58l-.28.2h.8c.76 0 .79-.01.58-.16-.21-.14-.23-.23-.23-1.07 0-1.05-.11-1.55-.41-1.82s-.95-.25-1.35.03c-.33.23-.44.21-.44-.08 0-.12-.06-.16-.22-.13-.21.04-.22.04-.03-.05.3-.14.35-.13.35.09 0 .25.07.25.45 0 1.02-.67 1.75.14 1.75 1.96 0 .87.01.91.25 1.02.48.22.27.32-.65.32-.69 0-.9-.03-.9-.13Zm5.3-.02c0-.08.11-.17.25-.21l.25-.06V5.3l-.25-.06c-.55-.14.12-.54.9-.54.13 0 .15.38.15 2.46v2.46l.3.11c.61.23.36.37-.65.37-.77 0-.95-.03-.95-.15Zm2.05.05c-.08-.13-.09-.12.28-.28l.27-.12V8.46c0-.68-.04-1.16-.1-1.19s-.05-.04.02-.03c.1.02.14.35.16 1.22l.03 1.2-.33.16-.33.17h.9l.9.01-.32-.2-.33-.2V8.15c0-.8-.01-1.45-.03-1.45-.2 0-.96.34-.91.41.03.05 0 .09-.05.09-.06 0-.11-.06-.11-.14 0-.12.85-.46 1.14-.46.03 0 .06.68.06 1.51v1.5l.3.11c.17.05.29.15.27.22-.05.15-1.73.21-1.82.06Zm4.59-.01c-.07-.12.12-.29.32-.29s.24-.39.24-2.37V5.42l-.28-.21-.27-.2.39-.16c.21-.09.4-.14.43-.12.02.03-.11.1-.28.16l-.33.11.22.2c.21.2.22.28.22 2.2 0 2.19-.01 2.26-.39 2.43-.3.13.3.21 1.12.15.42-.04.42-.04.15-.16l-.28-.12V8.56c0-1.07.01-1.16.22-1.3.52-.37 1.19-.08 1.17.5l-.01.29-.07-.31c-.14-.56-.59-.74-1.03-.4-.33.24-.26 2.32.07 2.4.14.04.25.13.25.21 0 .19-1.74.22-1.86.04Zm2.06-.04c0-.08.11-.17.24-.21.14-.03.27-.13.29-.22.04-.15.05-.15.06.01.01.1-.09.21-.24.27-.41.16-.29.2.55.2.47 0 .8-.04.8-.1 0-.05-.09-.1-.19-.1-.27 0-.31-.18-.31-1.42 0-1.57-.54-2.06-1.63-1.48-.2.11-.38.2-.39.2-.02 0-.01-.54.01-1.19.03-1.03.01-1.2-.13-1.24-.13-.04-.13-.05.01-.03.16.01.18.15.21 1.14.01.61.04 1.12.06 1.12s.17-.07.32-.15c1.07-.56 1.64.05 1.64 1.75 0 1.09 0 1.11.25 1.2.58.22.29.4-.65.4-.73 0-.9-.03-.9-.15Zm-7.1-.08c-.39-.18-.4-.2-.4-2.69 0-2.67.06-2.49-.75-2.24-.4.13-.4.13-.12.21l.27.07V9.7l-.25.1c-.42.16-.29.2.63.19.74 0 .83-.02.62-.12Zm3.16-.18c-.14-.11-.26-.27-.26-.34s-.07-.21-.16-.29c-.13-.14-.13-.16-.01-.16.09 0 .18.13.22.3.15.7 1.15.83 1.15.15 0-.25-.18-.43-.77-.75-1.13-.62-.77-2 .53-2 .64 0 .84.17.84.7 0 .54-.16.58-.4.1-.25-.5-.72-.58-.92-.15-.14.31.08.59.62.81.37.16.8.51.8.67 0 .05-.08-.01-.19-.14-.1-.12-.42-.34-.72-.48-.65-.31-.84-.68-.54-1.01.3-.34.72-.26.98.18l.22.37.03-.35c.09-.89-1.52-.84-1.77.06-.16.59.05.92.85 1.32.43.22.54.38.54.76 0 .48-.57.62-1.04.25Zm-14.9-.15c-.03-.09-.06-.54-.06-1V7.7h.6c.54 0 .61.03.77.27l.18.27.06-.74.05-.75.02.78c.02.82-.13 1.03-.36.52-.1-.22-.18-.25-.67-.25h-.55v.85c0 .79.02.86.22.95.23.09.23.09.02.09-.12.01-.25-.06-.28-.15Zm7.84-.96c-.4-.44-.14-1.68.36-1.68.2 0 .64.3.64.43 0 .06-.1.01-.23-.11-.45-.43-.87-.1-.87.66 0 1.11 1.03 1.12 1.13.02l.04-.45.01.45c.03.82-.58 1.21-1.08.68ZM5.96 7.31l-.57-.58.31-.27c.17-.14.39-.26.48-.26.1.01.04.07-.13.14-.59.26-.6.37-.01.95l.54.53.16-.23c.25-.36.21-.84-.1-1.08-.15-.12-.22-.21-.17-.21.42 0 .65.78.38 1.3-.2.4-.22.39-.89-.29ZM16.5 6.4v-1l.57.02.58.02-.53.03-.52.04V7.3h.55c.49 0 .56-.03.69-.27.08-.16.15-.23.16-.18.01.35-.32.55-.91.55h-.59zm12.88-.41c-.41-.23-.1-.87.36-.75.31.08.4.33.21.62-.17.26-.3.29-.57.13Zm.46-.15c.22-.21.03-.56-.27-.52-.25.03-.34.32-.17.53.16.19.25.19.44-.01Zm-17.69-.26c1-.51 1.57-1.32 1.66-2.38l.06-.75.01.64c.02.77-.22 1.35-.79 1.92-.35.35-1.07.8-1.26.79-.04-.01.1-.1.32-.22ZM1.56 5.05c.49-.85 1.9-2.32 2.99-3.1.56-.4.24-.1-.63.6-.62.5-1.7 1.67-2.35 2.55-.18.25-.18.25-.01-.05ZM.72 2.88.7.6h2.95C6.4.6 6.84.64 6.48.86 6.41.9 6.4.89 6.44.82 6.49.73 5.79.7 3.66.7H.8L.77 2.93.75 5.15zm10.62 2.08c-.61-.27-1.64-1.41-1.64-1.8 0-.06.13.12.29.4.83 1.44 2.32 1.88 2.86.84.32-.61.1-1.33-.62-2.02-1.06-1.03-2.24-.86-2.54.37-.06.27-.07.28-.08.05-.02-.57.64-1.2 1.27-1.2.98 0 2.22 1.28 2.22 2.3 0 .84-.96 1.42-1.76 1.06Zm-2.5-1.53C8.9 2.14 10.13.77 11.22.81c.13 0 .03.06-.23.13-1.19.32-1.93 1.22-2.1 2.56l-.08.65z"/></svg>