<svg xmlns="http://www.w3.org/2000/svg" width="51" height="51" viewBox="0 0 51 51"><path fill="#fff" fill-rule="evenodd" stroke="#fff" stroke-width=".413" d="M8.1 49.95c-.26-.32.13-.81.48-.59.34.22.22.74-.18.74-.1 0-.23-.07-.3-.15Zm20.88-5.06c-.09-.28-.14-.3-.42-.25-4.84.9-10.61-.62-14.86-3.92-1.56-1.21-2.9-2.66-4.18-4.51-.29-.41-.52-.67-.52-.58 0 .18-.15.23-.25.08-.03-.06.02-.14.11-.19.14-.08.11-.18-.24-.83-3.95-7.24-2.73-16.42 2.98-22.32 4.39-4.54 10.16-6.6 16.49-5.87.96.11 1.11.2 1.11.65 0 .44-.09.49-1.26.78-2.84.7-5.25 2.27-7.19 4.7-.76.95-1.8 2.88-1.71 3.2.04.14-.01.27-.13.37-.41.34-.91 2.91-.91 4.7 0 3.36 1.46 6.87 3.85 9.23 1.14 1.13 3.25 2.6 3.25 2.27 0-.05.07-.1.16-.1.11 0 .15.06.11.19-.03.12.03.27.14.37.27.25.24.6-.07.81-.27.17-.28.17-1.19-.31-6.05-3.15-8.92-10.61-6.66-17.36.57-1.7 1.46-3.24 2.69-4.66.38-.44.67-.85.64-.92-.02-.06.04-.12.13-.12s.47-.27.85-.59c.85-.73 1.64-1.28 2.55-1.74l.7-.37h-.68c-.54 0-.67.03-.65.14.02.08-.01.14-.07.13-.05-.01-.1-.07-.09-.13.03-.27-2.62.27-4.31.88-2.26.83-4.9 2.42-4.78 2.88.06.22-.22.3-.3.08-.07-.22-2.68 2.49-3.47 3.6-1.17 1.66-2.63 4.72-2.24 4.72.08 0 .14.07.14.16 0 .11-.06.15-.19.11-.15-.04-.21.05-.35.54-.19.7-.19.7-.05.67.06-.02.14.03.16.1.03.07-.03.12-.15.12-.56 0-.79 4.33-.37 6.85.95 5.75 4.54 10.66 9.7 13.26.77.38 1.48.68 1.57.65.1-.02.21.01.26.08.12.21 1.05.52 1.1.38.02-.07.11-.12.19-.12.09 0 .13.06.09.15-.04.1.06.17.34.25.22.05.57.14.78.2 1.95.5 5.26.5 7.52 0 1.4-.3 2.8-.79 2.8-.97 0-.11.06-.14.23-.09.59.14 4.44-2.16 4.17-2.49-.07-.08-.09-.19-.05-.25.09-.15.28-.01.21.16-.1.27.1.13.99-.64 1.11-.97 1.35-1.23 1.18-1.29-.16-.06-.17-.33-.03-.33.06 0 .13.07.16.15.1.24.26.05.19-.22-.05-.21-.03-.24.14-.18.71.22 3.79-5.78 3.93-7.68.04-.49-.13-.39-.81.45-2.52 3.14-6.56 5.17-10.39 5.22-1.2.01-1.32-.03-1.32-.5 0-.43.2-.54 1.15-.62l.9-.07v-1.5c0-2.11-.39-2.71-1.7-2.63-1.33.08-1.55.51-1.55 2.97 0 2.15-.1 2.4-.84 2.11l-.26-.1v-2.01c0-2.42.05-2.65.76-3.36 1.43-1.44 3.97-.9 4.6.99.09.3.18 1.05.22 1.92l.07 1.44.65-.2c.36-.1.89-.28 1.18-.4l.52-.2v-3.65l-.25-.11c-.25-.12-.33-.36-.16-.47.05-.03.17.02.25.11.15.14.16-.01.16-1.65V25.4H25.8l-.02 3.17-.03 3.17-.26.15c-.24.13-.29.13-.53-.02l-.26-.17v-3.65c0-2.8.03-3.66.13-3.72.19-.12 12.49-.04 12.64.09.1.08.13 1.03.15 4.05l.03 3.94.94-.63c2.15-1.43 4.13-3.8 4.94-5.92.36-.95 1-1.12 1.27-.32.25.78-.24 3.97-.94 6.08-.23.71-.39 1.28-.34 1.28.04 0 .08.07.08.15 0 .18-.2.2-.21.03 0-.07-.19.25-.42.72-.22.47-.43.88-.45.93-.02.04.03.04.12.01.11-.04.16-.01.16.1 0 .19-.11.21-.28.04-.1-.1-.12-.06-.1.22.02.27-.01.34-.12.33-.08-.02-.25.15-.38.37-2.25 3.93-8.08 8.01-12.36 8.65-.5.08-.52.11-.31.39.08.1.12.23.09.27-.1.18-.25.08-.36-.22Zm-1.52-.4c8.73-.85 15.82-7.77 17-16.59.35-2.63-.04-3.44-.8-1.68-.67 1.55-1.88 3.23-3.17 4.41-.76.7-2.71 2.07-2.95 2.07-.11 0-.14-.75-.16-4.02l-.03-4.03-.55-.07c-.7-.08-11.53-.1-11.74-.02-.29.11-.24 7 .05 7.09.39.13.42-.03.47-3.3l.05-3.15.25-.07c.29-.07 10.61.05 10.74.13.04.03.08 1.81.08 3.95v3.9l-.53.24c-.49.21-1.53.54-2.19.69l-.28.06v-1.39c0-.77-.05-1.63-.11-1.91-.4-1.87-2.91-2.56-4.28-1.17-.63.63-.72 1.07-.69 3.23l.03 1.79h.5l.05-1.9c.07-2.51.35-3.06 1.67-3.22 1.57-.18 2.12.59 2.13 2.99 0 1.79.07 1.67-1 1.75-1.46.11-1.59.63-.16.63 3.09 0 6.53-1.42 8.97-3.69.9-.84 2.25-2.43 2.53-2.98.43-.85.47.15.06 1.72-2.23 8.75-10.37 14.65-19.22 13.94-13.99-1.12-21.63-16.99-13.77-28.6 3.32-4.9 9.05-8 14.78-7.99 1.09 0 1.05.11-.31.78-10.2 5.05-10.47 19.47-.47 25.1.63.36.81.39.99.17.17-.21 0-.4-.69-.75-3.21-1.63-5.94-5.33-6.7-9.07-1.43-7.02 2.92-14.12 9.69-15.81 1.23-.31 1.48-.48 1.17-.79-.3-.3-5.73-.26-7.17.05C10.38 9.45 3.89 20.92 7.66 31.81c2.86 8.29 11.05 13.54 19.8 12.68Zm-11.24-6.61c-.25-.25-.15-.58.17-.58.35 0 .45.12.37.46-.07.26-.34.32-.54.12Zm22.16-10.59c-.11-.06-.18-.22-.18-.39 0-.16-.07-.33-.16-.38-.1-.05-.14-.15-.1-.21.06-.09.12-.09.23.01.09.07.25.12.35.1.48-.08.75.55.36.82-.26.19-.27.19-.5.05Zm-13.57-3.55-.23-.16.04-2.17c.04-1.7.08-2.25.21-2.6.1-.24.16-.56.15-.7-.02-.14.02-.26.09-.26.06 0 .25-.18.41-.4.48-.66.89-1.01 2.62-2.25 2.8-2.01 2.87-2.13 1.82-3.16-1.5-1.47-.7-3.39 1.44-3.45.54-.02.62-.05.76-.29.09-.16.27-.29.44-.33.37-.07.53.07.37.32-.14.22-.08.31.22.31.41 0 .52.27.23.58-.21.22-.24.31-.16.52.07.2.05.28-.09.4-.13.11-.18.3-.19.68-.02.6-.33 1.09-.92 1.47-.28.18-.31.25-.32.73v.52l1.27.94c.82.61 1.32.91 1.39.85.13-.1.34.08.28.25-.02.06.1.2.27.3.18.1.65.5 1.05.89 1.31 1.24 1.64 2.24 1.64 5.08 0 1.93-.05 2.09-.63 2.09-.49 0-.57-.28-.57-2 0-3.17-.34-3.87-2.62-5.41-.48-.32-1.25-.88-1.72-1.23-.47-.36-.9-.67-.95-.7s-.4.18-.78.47c-.37.3-1.2.9-1.85 1.35-1.78 1.26-2.58 2.17-2.3 2.63.12.18.11.21-.06.26-.23.06-.38.74-.27 1.23.03.16.02.31-.04.35-.07.04-.11.58-.11 1.45 0 1.63-.19 1.93-.89 1.44Zm1.45-.03c-.31-.35-.19-1.82.17-1.94.55-.18.77.11.77 1.03 0 1.03-.44 1.46-.94.91Zm1.56.1c-.3-.19-.42-1.43-.16-1.79.18-.26.65-.3.88-.06.27.27.22 1.58-.06 1.78-.25.18-.46.2-.66.07Zm1.42-.05c-.25-.19-.29-1.71-.04-1.86.6-.38 1 0 1 .95 0 .94-.39 1.32-.96.91Zm1.48-.02c-.28-.2-.33-1.51-.06-1.78.54-.55 1.09.01 1.01 1.01-.07.88-.4 1.15-.95.77Zm1.5 0c-.19-.13-.22-.24-.22-.93 0-.86.08-1.01.56-1.01.54 0 .67.22.62 1.08-.05.96-.38 1.27-.96.86Zm1.45-.02c-.13-.14-.17-.38-.17-.93 0-.84.08-.99.55-.99.17 0 .36.05.43.12.09.09.12.09.12 0 0-.07.07-.12.15-.12s.15.07.15.15-.04.15-.09.15c-.04 0-.11.35-.15.78-.08.98-.53 1.36-.99.84Zm1.49.05c-.24-.18-.29-1.72-.06-1.87.62-.4 1-.05 1 .91 0 1.01-.37 1.38-.94.96Zm-9.72-.33c.03-.09.06-.86.06-1.72.01-3.2.33-3.79 3.18-5.82.73-.52 1.57-1.12 1.86-1.34l.54-.39.84.65c.45.35 1.32.99 1.93 1.4 2.4 1.65 2.72 2.27 2.83 5.48l.07 1.85.27.03.28.03v-1.93c0-3.52-.26-3.98-3.75-6.51l-2.1-1.52-.03-.67-.03-.67.4-.2c.58-.3.85-.73.89-1.47.04-.65-.1-.86-.46-.64-.15.08-.14.09.05.1.14 0 .23.06.23.15 0 .08-.09.15-.2.15s-.2.07-.2.15c0 .55-.68 1.11-1.2 1-1.08-.24-.97-2.05.13-2.05.23 0 .37-.21.26-.42-.12-.23-.43-.23-.95.01-1.19.54-1.23 2.2-.08 2.9l.43.26.01.67v.67l-.82.64c-.46.35-1.37 1.02-2.03 1.48-2.51 1.75-2.91 2.49-3.02 5.65-.07 1.97-.03 2.24.31 2.24.13 0 .27-.07.3-.16Zm1.44-.61c-.03-.71-.05-.78-.24-.81-.28-.04-.33.12-.27.91.05.63.07.67.3.67s.24-.02.21-.77Zm1.5-.01.03-.73-.28.03c-.26.03-.28.07-.31.52-.05.72.04.98.31.94.2-.03.22-.09.25-.76Zm1.5 0 .03-.73-.28.03c-.27.03-.28.06-.31.62-.04.73.02.88.3.84.21-.03.23-.09.26-.76Zm1.46.62c.23-.61-.01-1.52-.38-1.38-.16.06-.25 1.32-.09 1.47.12.13.41.07.47-.09Zm1.54-.55c.03-.7-.1-.95-.42-.83-.17.06-.25 1.32-.09 1.48.27.27.48 0 .51-.65Zm1.46.55c.23-.61-.02-1.54-.39-1.4-.16.06-.23 1.35-.08 1.49.12.13.41.07.47-.09Zm1.46-.59c0-.8-.13-1.01-.45-.75-.34.28-.17 1.5.21 1.5.23 0 .24-.03.24-.75Zm6.41-4.09c-.29-.34.1-.93.46-.7.29.18.39.42.27.62-.14.22-.57.27-.73.08Zm-10.64-7.68c.34-.37.47-.98.21-.98-.19 0-.2-.04-.14-.42.06-.42.06-.43-.11-.22-.1.12-.35.27-.55.33-.45.15-.61.33-.61.72 0 .65.78 1.02 1.2.57Zm9.69-.44c-.09-.08-.16-.2-.16-.25 0-.52.81-.7 1.02-.24.22.48-.48.88-.86.49ZM32.93 9.6c-.04-.22 0-.36.12-.5.18-.19.17-.2-.08-.2-.21 0-.3-.07-.41-.32l-.13-.33-.13.28c-.11.21-.2.27-.47.27-.4 0-.43.12-.07.29.23.1.25.16.2.42-.05.27-.04.3.12.24.37-.15.48-.15.67-.01.11.09.21.16.22.16s0-.14-.04-.3Zm4.33-3.33c-.32-.23-.17-.62.23-.62.48 0 .65.29.32.56-.28.23-.32.23-.55.06Z"/></svg>