<svg xmlns="http://www.w3.org/2000/svg" width="51" height="51" viewBox="0 0 51 51"><path fill="#fff" fill-rule="evenodd" stroke="#fff" stroke-width=".703" d="M24.8 41.48c-.54-.37-.75-.73-.75-1.28 0-1.51 2.01-2 2.75-.67.72 1.27-.81 2.75-2 1.95Zm1.31-.13c.9-.47.89-1.88-.03-2.26-.69-.28-1.3-.09-1.68.54-.64 1.04.61 2.29 1.71 1.72Zm-11.69-4.11c-.67-.34-1.01-1.28-.69-1.9.88-1.7 3.41-.67 2.72 1.11-.3.8-1.27 1.18-2.03.79Zm20.83-.04c-1.43-.74-.94-2.74.67-2.74.82 0 1.43.62 1.43 1.44 0 1.09-1.14 1.8-2.1 1.3Zm-19.49-.19c.32-.2.64-.74.64-1.11 0-.66-.86-1.41-1.42-1.25-.57.16-.79.3-.98.6-.69 1.12.63 2.45 1.76 1.76Zm21.01-.25c.8-.87.3-2.1-.87-2.1-.52 0-.94.24-1.16.65-.66 1.29 1.05 2.52 2.03 1.45Zm-15.12-1.13c-1.37-.72-1.66-2.35-.61-3.39 1.31-1.32 3.56-.39 3.56 1.46 0 1.49-1.69 2.6-2.95 1.93Zm1.87-.32c1.26-.8 1.15-2.59-.22-3.29-1.83-.93-3.61 1.51-2.17 2.98.66.68 1.61.8 2.39.31Zm4.79-.03c-1.57-.84-1.57-2.96-.01-3.75 1.55-.8 3.45.69 3.01 2.34-.36 1.31-1.86 2.02-3 1.41Zm1.76-.17c1.1-.5 1.44-1.99.66-2.91-.91-1.09-2.55-.88-3.2.4-.81 1.58.89 3.25 2.54 2.51ZM16.6 31.03c-1.23-.65-1.56-2.18-.68-3.19 1.33-1.51 3.71-.63 3.71 1.37 0 1.56-1.64 2.55-3.03 1.82Zm2.04-.3c.52-.37.8-.94.8-1.58-.03-2.06-2.78-2.58-3.65-.7-.79 1.7 1.3 3.37 2.85 2.28Zm14.18-.4c-.76-.37-1.3-1.41-1.16-2.21.4-2.28 3.65-2.36 4.15-.11.37 1.63-1.49 3.06-2.99 2.32Zm1.71-.17c.8-.33 1.28-1.3 1.06-2.19-.47-1.97-3.43-1.82-3.75.19-.22 1.42 1.33 2.57 2.69 2Zm-10-1.54c-3.32-1.19-2.77-5.97.72-6.2 1.62-.1 2.91.83 3.31 2.38.61 2.38-1.76 4.63-4.03 3.82Zm2.13-.31c1.98-.88 2.42-3.52.83-4.95-1.21-1.09-2.94-1.03-4.1.13-2.32 2.33.26 6.14 3.27 4.82ZM10.02 26.8c-.68-.42-.92-1.32-.52-1.98.97-1.59 3.45-.27 2.57 1.38-.4.75-1.34 1.03-2.05.6Zm29.48.01c-1.1-.58-1.06-2.06.07-2.62 1.39-.68 2.75 1.04 1.76 2.22-.49.58-1.21.74-1.83.4Zm-28.05-.21c.81-.5.81-1.62.02-2.1-.86-.53-1.97.06-1.97 1.05s1.09 1.58 1.95 1.05Zm29.56-.16c.44-.42.55-.86.35-1.39-.52-1.34-2.46-.94-2.46.5 0 1.07 1.33 1.64 2.11.89Zm-24.42-1.98c-1.68-.6-2-2.75-.57-3.72 2.13-1.45 4.48 1.32 2.69 3.16-.64.66-1.33.84-2.12.56Zm1.29-.22c.79-.32 1.25-.99 1.25-1.8 0-2-2.7-2.63-3.6-.84-.79 1.54.78 3.3 2.35 2.64Zm14.97-.49c-.62-.16-1.28-.82-1.45-1.45-.5-1.84 1.63-3.4 3.21-2.36 2.02 1.34.61 4.42-1.76 3.81Zm1.55-.37c1.44-.99 1.24-2.95-.35-3.48-2.12-.7-3.51 2.29-1.6 3.45.55.34 1.47.35 1.95.03ZM21 19.49c-2.04-.81-1.63-3.89.54-4.07 1.97-.16 3.08 1.96 1.8 3.47-.51.61-1.61.89-2.34.6Zm1.47-.2c1.5-.56 1.62-2.79.19-3.49-1.87-.9-3.71 1.33-2.39 2.9.51.61 1.46.87 2.2.59Zm5.33-.06c-1.87-.71-1.82-3.5.07-4.02 2.52-.7 3.84 2.7 1.51 3.9-.36.18-1.23.25-1.58.12Zm1.58-.34c1.23-.6 1.37-2.49.22-3.25-.9-.6-2.22-.3-2.76.62-.95 1.63.82 3.46 2.54 2.63ZM14.32 16.4c-1.29-.79-.77-2.7.73-2.7 1.17 0 1.83.99 1.37 2.03a1.46 1.46 0 0 1-2.1.67Zm20.88.02c-1.02-.51-1.08-2.06-.09-2.57 1.02-.53 2.25.16 2.23 1.26a1.467 1.467 0 0 1-2.14 1.31Zm-19.42-.22c1.04-.63.58-2.3-.62-2.3-.86 0-1.36.47-1.36 1.27 0 .96 1.14 1.54 1.98 1.03Zm20.73.03c.39-.23.73-.93.64-1.33-.33-1.49-2.55-1.32-2.55.19 0 1 1.06 1.64 1.91 1.14ZM24.8 12.12c-1.13-.56-1.06-2.17.12-2.66.59-.24 1.08-.16 1.54.27 1.24 1.14-.15 3.15-1.66 2.39Zm1.2-.17c.99-.51.94-1.92-.1-2.35-.44-.18-.98-.04-1.37.35-.98.98.23 2.64 1.47 2Z"/></svg>