<svg xmlns="http://www.w3.org/2000/svg" width="51" height="51" viewBox="0 0 51 51"><path fill="#fff" fill-rule="evenodd" stroke="#fff" stroke-width=".708" d="M24.83 38.9c-.57-.26-1.03-.96-1.03-1.59 0-1.57 1.82-2.44 3.01-1.44 1.63 1.38-.03 3.92-1.98 3.03Zm1.4-.09c.37-.14.85-.68.98-1.11.55-1.82-2.06-2.86-3-1.2-.72 1.29.63 2.83 2.02 2.31Zm-5.68-4.08c-1.22-.64-1.42-2.12-.42-3 1.67-1.47 3.95.67 2.66 2.49-.44.62-1.56.87-2.24.51Zm4.26-.01c-1.04-.52-1.34-1.93-.59-2.78 1.45-1.65 4.02-.03 3.07 1.94-.43.89-1.61 1.29-2.48.84Zm4.23-.01c-1.62-.99-1.02-3.44.85-3.44 1.54 0 2.39 1.6 1.54 2.89-.44.68-1.71.97-2.39.55Zm-6.88-.2c.9-.55 1.07-1.86.32-2.58-1.14-1.09-2.96-.16-2.75 1.4.15 1.09 1.5 1.75 2.43 1.18Zm4.43-.11c1.15-.81.8-2.59-.55-2.88-1.07-.23-2.04.54-2.04 1.61 0 1.26 1.55 2.02 2.59 1.27Zm4.07.14c.97-.46 1.19-1.89.4-2.61-.82-.76-2.08-.57-2.57.38-.72 1.41.74 2.91 2.17 2.23Zm-14.51-4c-1.05-.55-1.38-1.85-.69-2.71 1.49-1.83 4.29.12 2.99 2.09-.46.7-1.58 1-2.3.62Zm4.3 0c-1.68-.92-1.23-3.28.64-3.42 1.46-.11 2.4 1.29 1.76 2.61-.38.79-1.65 1.22-2.4.81Zm4.3.02c-1.37-.59-1.4-2.57-.05-3.26s2.93.47 2.66 1.94c-.21 1.11-1.55 1.78-2.61 1.32Zm4.3 0c-1.83-.82-1.09-3.6.91-3.44 1.43.12 2.18 1.6 1.4 2.78-.47.71-1.52 1.01-2.31.66Zm4.27-.07a1.77 1.77 0 0 1-.84-2.31c.79-1.78 3.47-1.24 3.47.71 0 1.38-1.38 2.22-2.63 1.6Zm-15.45-.28c.49-.36.79-1.02.69-1.54-.37-1.96-3.21-1.75-3.21.23 0 1.34 1.45 2.09 2.52 1.31Zm4.1.12c.78-.37 1.11-1.48.67-2.24-.92-1.58-3.34-.65-3 1.16.19.98 1.38 1.53 2.33 1.08Zm4.27.03c1.23-.51 1.21-2.41-.03-2.93-.45-.19-1.24-.12-1.59.14-1.62 1.2-.24 3.57 1.62 2.79Zm4.47-.09c.49-.32.82-1 .75-1.56-.25-1.93-3.08-1.83-3.24.11-.1 1.27 1.42 2.16 2.49 1.45Zm4.38-.06c1.24-.89.61-2.91-.91-2.91-1.73 0-2.29 2.26-.76 3.04.45.23 1.25.17 1.67-.13Zm-23.14-3.87c-1.74-.9-1.16-3.44.79-3.44 2 0 2.58 2.53.79 3.44-.41.2-1.19.21-1.58 0Zm4.3 0c-1.8-.94-1.1-3.58.91-3.42 1.81.15 2.36 2.42.8 3.33-.5.29-1.25.33-1.71.09Zm4.23-.04c-1.04-.55-1.31-1.9-.56-2.76 1.11-1.27 3.21-.56 3.21 1.08 0 1.42-1.43 2.32-2.65 1.68Zm4.32.02c-.87-.48-1.26-1.6-.83-2.41.87-1.66 3.53-1.09 3.53.75 0 1.33-1.56 2.29-2.7 1.66Zm4.32-.03c-1.05-.52-1.34-1.9-.59-2.76 1.2-1.36 3.51-.36 3.23 1.41a1.83 1.83 0 0 1-2.64 1.35Zm4.33.04c-1.77-.93-1.18-3.43.8-3.43 1.17 0 2.05 1.1 1.75 2.19-.3 1.11-1.6 1.74-2.55 1.24Zm4.3.03c-1-.44-1.37-1.84-.7-2.71 1.18-1.56 3.76-.44 3.27 1.42-.31 1.15-1.51 1.75-2.57 1.29Zm-24.31-.2c.83-.35 1.22-1.63.7-2.33-.99-1.34-2.99-.76-2.99.87 0 1.21 1.14 1.94 2.29 1.46Zm4.36-.04c.73-.36 1.06-1.29.72-2.05-.7-1.59-3.07-1.11-3.07.63 0 1.24 1.23 1.99 2.35 1.42Zm4.29-.03c1.06-.6 1.11-2.17.09-2.79s-2.48.19-2.48 1.37c0 1.23 1.33 2.03 2.39 1.42Zm4.42-.02c.73-.48.99-1.62.52-2.26-.97-1.3-3.03-.7-3.03.89 0 1.24 1.49 2.05 2.51 1.37Zm4.42-.1c1.22-.93.58-2.87-.95-2.87-1.42 0-2.16 1.51-1.28 2.62.5.64 1.57.76 2.23.25Zm4.06.12c1.47-.89.94-2.99-.75-2.99-1.18 0-1.96 1.16-1.5 2.23.36.85 1.48 1.23 2.25.76Zm4.48-.07c.47-.33.77-1.02.68-1.58-.28-1.89-3.07-1.73-3.23.18-.1 1.31 1.47 2.17 2.55 1.4Zm-27.53-3.91c-1.47-.67-1.32-2.8.22-3.31 1.18-.39 2.44.47 2.44 1.68 0 1.34-1.4 2.2-2.66 1.63Zm4.24-.01c-1.59-.84-1.12-3.23.66-3.38 1.64-.13 2.65 1.65 1.64 2.93-.49.62-1.57.83-2.3.45Zm4.53.09c-1.92-.77-1.42-3.49.66-3.49.84 0 1.48.49 1.73 1.35.39 1.31-1.11 2.65-2.39 2.14Zm4.13-.08c-1.35-.61-1.37-2.5-.04-3.23.52-.29 1.46-.21 1.94.15 1.76 1.35.13 4-1.9 3.08Zm4.36.03c-1.8-.78-1.27-3.44.7-3.44 1.16 0 2.02.93 1.87 2.02-.16 1.17-1.47 1.9-2.57 1.42Zm4.41.05c-1.9-.76-1.44-3.49.59-3.49 1.65 0 2.47 1.8 1.36 2.99-.52.56-1.3.76-1.95.5Zm4.07-.09c-1.7-.9-1.05-3.4.87-3.4 1.44 0 2.32 1.62 1.51 2.78-.52.76-1.59 1.03-2.38.62Zm-24.01-.26c.71-.53.93-1.58.47-2.21-1.1-1.48-3.45-.46-3 1.31.24.97 1.73 1.5 2.53.9Zm4.1.1c.75-.36 1.13-1.35.78-2.08-.76-1.59-3.1-1.1-3.1.64 0 1.23 1.19 1.97 2.32 1.44Zm4.32-.04c1.45-.73.91-3-.71-3-.81 0-1.5.53-1.64 1.25-.25 1.37 1.11 2.39 2.35 1.75Zm4.49-.07c1.58-1.17.21-3.56-1.61-2.79-1.25.52-1.26 2.36-.02 2.92.42.2 1.29.13 1.63-.13Zm4.35-.06c.66-.5.85-1.55.39-2.16-1.15-1.54-3.59-.32-2.91 1.46.37.98 1.68 1.34 2.52.7Zm4.06.13c1.07-.54 1.13-2.09.11-2.77-.99-.68-2.5.13-2.5 1.34 0 1.23 1.28 2 2.39 1.43Zm4.5-.09c1.24-.88.67-2.78-.86-2.89-1.78-.12-2.41 2.31-.78 3.04.43.2 1.25.13 1.64-.15Zm-23.29-3.9c-1.68-.9-1.07-3.42.82-3.41 1.47.01 2.35 1.58 1.55 2.78-.5.76-1.59 1.05-2.37.63Zm4.35.04a1.817 1.817 0 0 1 1.2-3.41c1.43.27 1.86 2.33.67 3.24-.44.33-1.4.42-1.87.17Zm8.6-.01c-1.67-.87-1.22-3.29.64-3.42 1.99-.14 2.77 2.48 1 3.38-.46.24-1.22.26-1.64.04Zm4.3-.01c-1.73-.91-1.17-3.43.76-3.43 1.49 0 2.35 1.7 1.47 2.93-.43.61-1.55.86-2.23.5Zm-15.54-.26c1.44-.95.68-3.11-1.04-2.94-2.03.19-1.86 3.17.18 3.17.37 0 .62-.06.86-.23Zm4.27.03c.99-.61.97-2.19-.04-2.77-1.08-.62-2.44.14-2.44 1.37 0 1.21 1.44 2.03 2.48 1.4Zm8.7-.06c.98-.72.85-2.35-.24-2.8-1.9-.79-3.23 1.68-1.53 2.84.43.3 1.33.27 1.77-.04Zm4.2.06c1.02-.62.97-2.26-.09-2.8-1.13-.58-2.34.15-2.34 1.4 0 1.26 1.36 2.05 2.43 1.4Z"/></svg>