<svg xmlns="http://www.w3.org/2000/svg" width="51" height="51" viewBox="0 0 51 51"><path fill="#fff" fill-rule="evenodd" stroke="#fff" stroke-width=".475" d="M24.1 50.19c-11.15-.5-20.67-8.94-22.81-20.23-.31-1.6-.38-5.77-.15-7.65.7-5.43 3.4-10.76 7.38-14.57 7.43-7.08 18.76-8.83 27.95-4.3 13.1 6.46 17.72 22.62 10.07 35.19-4.01 6.57-11.69 11.21-19.09 11.53-.66.02-1.36.06-1.55.07s-1 0-1.8-.04Zm5.1-.44c15.58-2.35 24.91-18.64 19.05-33.26C44.37 6.84 35.1.83 24.68 1.23 8.05 1.87-3 18.31 2.67 33.99 5.89 42.9 14.1 49.14 23.65 49.94c1.02.08 4.53-.04 5.55-.19Zm-5.54-10.11c-.03-.08-.06-1.64-.06-3.45V32.9l-3.42-.02-3.43-.03-.03-11.61-.02-11.61.31-.07c.58-.11 3.14-.07 3.27.06.09.09.12 2.4.12 9.8v9.68h3.17l.07-6.27c.04-3.45.1-6.31.12-6.35.07-.1 3.25-.1 3.42 0 .09.06.12 1.45.13 6.35l.02 6.27 1.91.02 1.91.03v3.7l-1.92.03-1.93.02V36l5.38.02 5.37.03v3.7l-7.16.03c-6.47.02-7.17.01-7.23-.14ZM37.8 37.9v-1.6l-5.32-.02-5.33-.03v-3.6l1.86-.03 1.86-.02.07-.92c.03-.5.06-1.22.06-1.59v-.68l-.36-.07c-.2-.04-1.08-.03-1.95 0l-1.59.08v-3.95c0-2.16-.03-5.02-.07-6.35l-.06-2.42H23.9v5.78c0 3.17-.03 6-.06 6.28l-.07.52-1.71.04c-1.1.03-1.76.01-1.85-.06-.11-.08-.13-.86-.11-4.31.02-2.31.02-6.66.01-9.67L20.1 9.8H17v22.8l3.43.02 3.42.03.03 3.43.02 3.42h13.9z"/></svg>