<svg xmlns="http://www.w3.org/2000/svg" width="51" height="51" viewBox="0 0 51 51"><path fill="#fff" fill-rule="evenodd" stroke="#fff" stroke-width=".535" d="M15.2 48.54c-.58-.13-1.21-.23-1.41-.24-.5 0-.65-.16-.83-.9-.25-1.06-.71-3.99-.49-3.17.11.44.4-.09.35-.64-.04-.48-.03-.52.32-.8.23-.19.36-.39.36-.54 0-.32 1.37-1.55 1.73-1.55.14 0 .29-.05.33-.11.03-.06.16-.08.27-.05s.48-.04.81-.16c1.98-.66 4.05.83 3.98 2.87-.05 1.15-.04 1.18.03 1.62.1.59.03.8-.62 1.69-.66.91-.71.96-.99.89-.15-.03-.29.07-.59.46-.39.51-.39.51-.85.45-.41-.05-.49-.03-.7.19-.28.3-.34.29-1.7-.01Zm1.08-.66c.21-.21.15-.24-1.14-.59l-1.26-.34-.24-.53c-.33-.75-.42-1.14-.33-1.4.05-.14.05-.22-.02-.22s-.09-.11-.05-.27c.05-.26.05-.26-.11.04-.16.32.19 2.47.47 2.94.17.27 2.46.59 2.68.37Zm2.04-1.26c.92-.93 1.48-1.77 1.48-2.2 0-.18.08-.62.17-.97.37-1.41-.71-2.67-2.32-2.68-.84 0-1.21.19-2.21 1.15-1.59 1.53-1.76 1.91-1.49 3.52l.18 1.13 1.26.35c1.95.55 2.12.53 2.93-.3Zm-2 .1-.43-.4.7-.87c.39-.47.71-.91.71-.96 0-.17.18-.09.61.3l.44.38-.29.41c-.15.23-.51.66-.8.97l-.51.57zm-1.51-1.56c-.85-.86-.86-.94-.04-1.25.65-.25 1.12-.56 1-.67-.04-.05-.17-.03-.27.04-.28.17-.4.15-.4-.06 0-.2.29-.52.47-.52.12 0 1.63 1.54 1.63 1.67 0 .22-.15.21-.42-.02-.38-.32-.57-.21-.23.12.29.29.3.26-.44 1.06-.46.49-.45.49-1.3-.37Zm21.09-.03c-2.4-.23-2.6-.28-2.84-.81s-1.1-.64-1.77-.24l-.39.23-1.41-.2c-.78-.11-1.47-.25-1.54-.31-.27-.22-.4-2.58-.16-2.91.13-.17.21-.43.21-.67 0-.36.08-.48.98-1.41l.97-1.01h.5c.28 0 .74-.09 1.03-.2.72-.28 1.93-.28 2.44 0 .34.18.4.18.72.05.21-.09.47-.12.66-.09.23.05.36.02.53-.14.28-.26.88-.42 1.58-.42 1.95 0 3.55 1.44 3.34 3-.06.42-.03.54.14.76.35.45.27.82-.39 1.83-.53.81-.63.91-.89.91-.25 0-.38.1-.73.56-.4.53-.44.56-.79.51-.32-.04-.41 0-.7.29-.34.35-.45.37-1.49.27Zm.74-.99c.06-.19 0-.21-1.11-.32-1.24-.13-1.37-.19-1.47-.57-.13-.5-.68-1.95-.75-1.95-.31 0-.28.42.13 1.58.51 1.48.33 1.33 1.79 1.52 1.26.16 1.28.16 1.41-.26Zm-19.83-.6c-.75-.69-.75-.59.06-1.55.79-.92.77-.91 1.27-.4l.39.4-.68.71c-.55.56-.66.73-.56.83s.27-.04.86-.66l.72-.77.42.37.42.38-.46.53c-.52.59-.59.61-.92.3l-.24-.22-.25.32c-.33.42-.32.42-1.03-.24Zm14.13-.19c.03-.09 0-.18-.07-.2-.25-.08-1.45-.25-1.74-.25h-.31l-.17-.95c-.3-1.63-.52-.83-.26.93l.06.47.55.03c.3.02.59.05.65.07.31.11 1.23.04 1.29-.1Zm7.27.03c.28-.23 1.06-1.22 1.47-1.86l.41-.63-.15-.42c-.1-.27-.13-.56-.08-.82.23-1.35-.57-2-2.46-2h-1.05l-.65.49c-1.79 1.36-2.59 2.27-2.21 2.51.05.03.28.63.52 1.33.23.7.43 1.29.45 1.31.15.18 3.54.26 3.75.09Zm-1.45-.37c-.52-.35-.51-.43.14-1.26.73-.91.78-.93 1.3-.64.48.27.47.25.13.76-.98 1.4-1.07 1.47-1.57 1.14Zm-4.64-.29c.15-.06.15-.11.03-.47-.13-.37-.13-.41.12-.75.22-.3.18-.27-.28.16-.88.82-.82.8-1.28.39-.22-.2-.45-.34-.5-.31-.12.08-.71-.41-.71-.59 0-.13 1.44-1.35 1.59-1.35.04 0 .16.09.26.2s.23.2.29.2.22.12.35.25c.25.27.41.25.41-.07 0-.11-.08-.22-.2-.25-.28-.07-.26-.11.27-.65.6-.61.38-.63-.27-.02-.45.42-.7.5-.7.22 0-.07.26-.36.58-.66.65-.62.53-.59-.27.06-.5.41-.76.49-.76.24 0-.06.3-.36.68-.65.66-.53.68-.54 1.07-.44.44.12.75-.02.53-.24-.66-.66-3.42.78-4.33 2.25-.21.35-.01 2.25.24 2.26.06.01.49.07.96.14.94.15 1.66.18 1.92.08Zm3.19-.61c-.41-.34-.41-.33.34-1.2.74-.85.78-.87 1.21-.55.46.36.44.44-.33 1.3-.75.84-.76.84-1.22.45Zm-1.06-.74-.38-.33.89-.52c.67-.38.85-.52.71-.58-.09-.03-.24 0-.33.07-.27.22-.38-.11-.12-.38.28-.3.37-.29.72.07.37.38.31.51-.49 1.02-.62.38-.65.42-.49.59.15.17.12.39-.05.39-.04 0-.25-.15-.46-.33Zm3.05-1.01c-.1-.13-.03-.26.49-.84.88-1.01.81-.97 1.4-.67.62.31.62.22-.02.9l-.52.56-.28-.22-.28-.22-.33.32c-.29.28-.34.3-.46.17Zm-14.6-.3c0-.02.3-.22.68-.43.37-.22 2.94-1.72 5.72-3.33s6.33-3.65 7.9-4.52c1.57-.88 2.91-1.65 2.99-1.73.71-.7-2.25.62-12.58 5.59-2.87 1.39-4.59 2.16-4.8 2.16-.07 0-.11.27-.11.79 0 .53-.04.82-.13.9-.23.18-.27.02-.27-.97 0-.88-.02-.96-.29-1.31-.15-.2-.7-.99-1.21-1.76s-.94-1.42-.97-1.45c-.09-.1-.33.35-.33.62 0 .56-1.73 2.54-2.13 2.44-.12-.03-.7-.12-1.27-.21s-1.11-.22-1.2-.3c-.14-.13-.35-.12-1.66.05-.82.11-1.94.22-2.47.26s-.97.11-.97.17c0 .05-.1-.04-.22-.21-.13-.17-.8-1.06-1.5-1.98-1.39-1.83-1.4-1.84-1.02-2.39l.25-.37-.26-.4c-.26-.4-.3-1.58-.05-1.58.11 0 .28-.51.29-.85 0-.26.96-2.49 1.26-2.95.58-.88 2.63-2.44 3.6-2.76.75-.25.75-.23-.09-1.5-.73-1.09-.79-1.15-1.04-1.09-.24.06-.25.05-.09-.07.17-.13.17-.22.08-1.17a29 29 0 0 1-.11-2.43v-1.4l-.5-.66c-.27-.36-.5-.73-.5-.8 0-.12-.72-1.44-1.67-3.09-.14-.24-.22-.43-.19-.43s.42.65.87 1.45.83 1.44.86 1.42c.02-.02-.02-.67-.08-1.43-.16-1.8-.14-1.87.59-2.15 2.35-.9 21.31-7.09 21.71-7.09.41 0 5.91 5.12 12.04 11.19l3.27 3.25v1.21l.52.13c.29.07.72.26.96.43.42.3.44.3.58.13.14-.18.14-.17.04.04-.1.2-.08.27.09.46.35.37.62 1.12.61 1.69-.01.28.01.81.05 1.17l.07.65-.62.93c-.49.74-.66.92-.86.92-.17 0-.33.13-.55.43-.36.5-.65.67-1.01.6-.22-.04-.34.02-.67.37l-.4.42-.6-.07c-.6-.07-.6-.07-.66.22-.11.49-.17.53-2.23 1.41-1.71.73-2.38 1.12-1.92 1.12.05 0 .07.07.04.15-.05.13.04.67.22 1.28.04.11 0 .17-.1.17-.11 0-.21-.19-.33-.6-.09-.33-.2-.6-.24-.6-.18 0-7.66 4.25-14.34 8.15-2.89 1.68-3.05 1.78-3.05 1.71Zm14-.16c-.12-.08-.13-.13-.02-.27.06-.1.17-.27.23-.39.06-.11.24-.28.4-.38.29-.17.4-.46.17-.46-.07 0-.41.3-.74.67-.34.38-.65.65-.69.61-.15-.15.07-.55.66-1.17l.6-.65.35.19c.63.34.63.39-.05 1.09-.33.35-.61.69-.61.75 0 .13-.1.14-.3.01Zm-13.37-2.74c1-.42 2.22-1 7.12-3.38 5.08-2.48 7.97-3.82 11.15-5.18 1.46-.62 2.66-1.14 2.68-1.15.01-.01.09-.58.17-1.26s.22-1.77.31-2.42.14-1.21.1-1.24c-.03-.03-.76.24-1.63.6s-2.34.96-3.28 1.33c-2.55 1-9.97 4.22-13.8 5.99-2.57 1.19-3.33 1.52-3.69 1.61l-.29.07.07 2.36c.06 2.21.12 3.01.23 3.01.02 0 .41-.15.86-.34ZM21.9 34.4l-.05-2.46-.64-.94c-.88-1.29-2.92-4.23-3.01-4.33-.04-.05-.02.17.06.5.17.71.18 1.75.03 1.9-.09.09-.05.23.15.57.17.29.25.53.21.68-.04.16.08.47.4 1.03.35.63.44.86.39 1.1-.03.19.02.45.13.71.15.34 2.35 3.77 2.38 3.71.01-.01-.02-1.12-.05-2.47Zm24.19 1.94c-.19-.21-.3-.25-.57-.2-.28.04-.38-.01-.69-.32-.21-.2-.41-.36-.46-.34-.18.06-.46-.1-.52-.29-.04-.11-.26-.42-.5-.69l-.44-.49.03-1.18c.04-1.65.73-2.91 1.75-3.24.2-.06.44-.21.54-.33s.15-.14.12-.05c-.05.13.11.15 1.21.17.91.01 1.32.05 1.47.15.55.36 1.43 1.22 1.55 1.5.08.17.25.44.38.6.2.23.23.36.18.63-.05.26-.02.4.11.54.2.22-.3 2.76-.58 2.98-.11.08-3.02.82-3.24.82-.05 0-.2-.12-.34-.26Zm-33.84-.19c2.09-.21 2.15-.22 2.15-.46 0-.58.27-.89.78-.89.63 0 .75-.1 1.17-1.05.19-.44.44-.96.54-1.15s.22-.46.26-.6.27-.66.51-1.17l.44-.92-.19-.38c-.12-.24-.22-.71-.26-1.28-.14-2.02-1.33-3.48-3.12-3.85-.52-.11-.67-.25-.39-.36.43-.16 1.84.48 2.76 1.25.57.49.58.43.03-.26-1.27-1.58-4.41-1.43-6.47.31-.37.32-.75.56-.92.58-.26.03-.36.17-1.04 1.49-.41.81-.81 1.54-.88 1.62-.08.09-.11.21-.07.28.04.06-.05.48-.21.94l-.28.84.32.44c.36.51.38.59.16.78-.54.45-.5.58.48 1.86 1.73 2.24 1.75 2.26 2.28 2.19.25-.03 1.13-.13 1.95-.21Zm5.37-.13c1.6-1.77 1.87-2.98 1-4.41-.32-.52-.33-.13-.02.44.15.28.33.71.39.98l.11.47-.85 1.14c-1.12 1.5-.95 1.4-2.15 1.27-1.25-.14-1.23-.14-1.18.02.04.09 1.38.37 2.24.46.07 0 .27-.16.46-.37Zm-8.31-.76c-.37-.5-.94-1.22-1.25-1.61-.68-.85-.68-.84-.02-1.29.19-.13.18-.16-.23-.67-.51-.65-.51-.65.21-2.34 1.17-2.74 1.44-3.25 1.73-3.25.19 0 .45-.16.84-.52 2.57-2.35 6.49-.86 6.69 2.54.04.68.09.91.23 1.04.11.1.19.27.19.39 0 .31-1.77 4.57-1.98 4.76-.04.04-1.23.24-2.65.44-3.01.43-2.57.55-3.74-.99-.42-.56-.79-1.04-.83-1.08-.03-.04-.16-.01-.27.07-.22.15-.21.17.84 1.53.59.75 1.08 1.39 1.1 1.41.11.15 3.59-.41 3.72-.59.29-.42.48-.25.27.24l-.14.33-1.14.12c-.62.06-1.53.18-2.01.25l-.87.13zm39.02.3c.89-.2.82-.11 1.17-1.54.19-.78.21-.96.11-1.16-.1-.18-.1-.29-.02-.44.15-.27.15-.65.01-.4-.11.18-.6 2.55-.6 2.88 0 .25-.21.33-1.27.5-.46.07-.8.17-.77.22s0 .15-.06.23c-.11.13-.07.13.26.01.22-.07.74-.21 1.17-.3Zm-30.62-.83c1.06-1.43 1.01-1.32.84-1.9-.19-.63-.49-.95-.58-.61-.04.14-.01.26.08.31.36.2-.13 1.07-.61 1.07-.19 0-.18.37.03.48.35.2-.22.75-.7.68-.33-.06-.44-.03-.63.15-.15.14-.41.24-.74.27-.7.06-.71.19-.03.27.32.03.67.07.78.09.84.13.87.12 1.56-.81Zm30.04.21c.84-.18.79-.13.98-.97l.15-.67-.35.3c-.4.35-.4.35-1.12-.42-.62-.68-.61-.68-1.08-.25-.46.43-.38.68.12.37l.33-.2.35.4c.22.26.4.38.5.35.49-.19.09.53-.46.81-.29.16-.32.16-.49-.06-.28-.35-.14-.66.18-.39.27.22.37-.04.13-.35-.2-.25-.22-.26-.45-.11-.61.4-1.27-.41-.69-.87.29-.23.32-.36.09-.45-.1-.04-.24.04-.39.23l-.24.29-.68-.69c-.43-.43-.63-.7-.55-.73.07-.03.26-.16.41-.29.16-.13.33-.24.39-.24.11 0 1.02 1.02 1.18 1.33.09.15.12.16.29.03.18-.13.18-.16.04-.28-.25-.21-1.09-1.24-1.09-1.34 0-.05.15-.19.33-.32l.32-.22.44.45.45.44-.21.23c-.2.22-.2.24-.03.51l.17.27.26-.2c.37-.29.42-.27 1.15.51.75.79.8.78.81-.21l.01-.55-.69-.66c-1.38-1.33-2.69-1.43-3.93-.31-.97.88-.86 2.79.2 3.63 1.19.93 1.43.98 3.17.63Zm-34.56-.6c.8-.13 1.59-.24 1.76-.24.51 0 .61-.15 1.55-2.4.89-2.14.89-2.15.7-2.35-.13-.14-.2-.35-.2-.61 0-3.62-3.68-5.22-6.32-2.75-.36.33-.74.61-.85.61-.21 0-2.03 3.86-2.03 4.3 0 .05.62.94 1.38 1.96l1.37 1.85.6-.06c.33-.04 1.25-.18 2.04-.31Zm-.96-.74c-.24-.1-.43-.23-.43-.27 0-.05-.21-.16-.47-.25-.89-.32-.87-.27-.73-1.67.14-1.52.14-1.52-.39-.3-.52 1.18-.52 1.18-1.07.88-.56-.3-.63-.03.78-3.13l1.22-2.68.3.05c.43.07 2.46 1.04 2.46 1.17 0 .18-1.1 2.53-1.27 2.72-.09.1-.26.18-.39.18-.32 0-.34.06-.45 1.41-.1 1.24-.07 1.5.1 1.08.06-.13.29-.69.52-1.24.48-1.15 1.85-4.05 1.92-4.05.11 0 1.39.51 1.9.76.72.36.72.34-.04 2.2-.75 1.85-.62 1.73-1.63 1.46-1.02-.27-.92-.27-1.04.06-.23.65-.74 1.82-.8 1.82-.04 0-.26-.09-.49-.2Zm.82-1.38c.45-1.12.34-1.05 1.25-.76 1.01.32.94.38 1.6-1.24l.59-1.44-.57-.25c-.31-.14-.76-.34-1-.44l-.43-.19-.59 1.23c-1.32 2.78-1.75 3.89-1.54 4.04.24.17.26.14.69-.95Zm-1.58-.87c.13-1.45.13-1.45.59-1.45.35 0 .35-.01.84-1.05.67-1.44.7-1.31-.4-1.81-1.22-.55-1.12-.58-1.54.4-.19.46-.69 1.56-1.1 2.45-.69 1.5-.73 1.62-.56 1.71.26.14.26.14.4-.22.08-.18.33-.78.58-1.33.24-.55.57-1.37.74-1.81.44-1.22.42-1.21 1.16-.94.87.32.87.32.41 1.35-.48 1.1-.47 1.09-.93.9-.52-.22-.52-.22-.66 1.36-.12 1.34-.11 1.43.06 1.56.29.21.29.19.41-1.12Zm14.15-1.13c1.44-.66 2.98-1.34 3.41-1.52.76-.32.77-.33.77-.69 0-.56.14-.68 1.75-1.37.83-.36 3.02-1.3 4.88-2.1l3.37-1.46.2.24c.11.12.18.31.16.41-.06.24-.09.25 2.79-.98 3.25-1.39 3.12-1.32 3.35-1.79.16-.34.55-2.64.46-2.73-.02-.02-.23.05-.47.16-3.71 1.6-23.47 9.57-23.99 9.67l-.29.06.06 1.02c.03.55.08 1.24.12 1.52l.06.51 2.89-1.29c1.83-.82 2.93-1.25 2.99-1.19.15.15-1.4.91-5.08 2.48-.61.26-.71.33-.43.3.2-.03 1.55-.59 3-1.25Zm-11.24.8c-.79-.28-.79-.42.08-2.14l.24-.48.52.2c.28.11.55.23.6.28.08.08-.55 1.93-.75 2.2-.11.15-.1.15-.69-.06Zm7.32-1.64c-.15-1.72.37-.85-4.35-7.28-.67-.91-2.11-2.89-3.2-4.4s-2.39-3.29-2.89-3.95a48 48 0 0 1-1.19-1.6c-.31-.45-.31-.45-.16.97.13 1.34.16 1.4.92 2.39.35.46 1.65 2.24 2.89 3.94 1.23 1.71 2.78 3.84 3.45 4.75 1.1 1.52 3.28 4.66 4.18 6.03.49.74.49.73.35-.85Zm-6.55.56c.27-.74.27-.77.1-.9-.32-.24-.42-.16-.75.58-.41.94-.39 1.01.26 1.07.06.01.24-.33.39-.75Zm-2.9-1.39c.15-.36.26-.67.24-.69-.06-.05-.71-.26-.79-.26-.06 0-.5 1.08-.5 1.23 0 .08.51.36.66.37.06 0 .24-.29.39-.65Zm14-2.4c8.26-3.28 20.33-8.21 20.49-8.36.17-.15-5.55-5.77-12.09-11.88-2.55-2.39-2.72-2.52-3.02-2.47-.76.11-21.47 6.96-21.67 7.16-.13.13.59 1.17 2.85 4.1.52.69 1.49 2.04 2.14 3 3.77 5.55 7.12 10.03 7.45 9.95.13-.04 1.86-.71 3.85-1.5Zm19.45-.5c.08-.07.36-.16.61-.2 2.71-.4 3.73-5.96 1.11-5.99-.52-.01-.72.32-.36.58.16.12.16.15-.03.42-.11.16-.33.51-.48.77-.16.3-.38.54-.56.61-.29.12-.29.12-.09.31.27.24.26.31-.14.79-.58.71-.62.83-.92 2.65l-.05.33.38-.07c.21-.04.45-.13.53-.2Zm-42.94-.64c-.92-.07-.82.07-1.35-1.68-.46-1.48-.49-1.75-.22-2.09.18-.23.18-.29.07-.67l-.13-.43.43-.33c.37-.28.42-.36.33-.52-.12-.23-.02-.39.57-.92.23-.21.45-.49.48-.62.04-.14.19-.31.35-.39.55-.29 1.61-.65 1.75-.6.07.03.37-.02.65-.12 1.88-.61 3.73.77 3.77 2.81.01.44.07.93.13 1.1.17.42.07.69-.65 1.7-.82 1.17-.83 1.17-1.02 1.1-.12-.03-.3.11-.6.5-.41.53-.45.55-.9.55-.42 0-.5.04-.75.35l-.28.35-.92-.02c-.51-.01-1.28-.04-1.71-.07Zm42.86-.21c-.52-.32-.5-.42.28-1.4.82-1.03.73-.99 1.24-.55l.39.35-.25.37c-.91 1.37-1.14 1.54-1.66 1.23Zm-40.45-.7.11-.3-.86-.01c-1.59-.01-1.73-.06-1.88-.64-.42-1.63-.54-1.86-.86-1.62-.15.12-.13.24.28 1.42l.44 1.3 1.22.05c.68.03 1.28.07 1.33.08.06.01.16-.11.22-.28Zm15.98-2.93a697 697 0 0 0-4.8-6c-1.54-1.92-2.8-3.56-2.8-3.64 0-.11 1.06-.51 3.9-1.48 2.14-.73 5.97-2.06 8.5-2.95s4.76-1.67 4.96-1.73l.37-.11.88.95c1.47 1.56 3.22 3.37 6.59 6.82 1.76 1.81 3.21 3.34 3.23 3.41.02.08-.81.44-2.3 1.01-1.28.48-4.11 1.57-6.28 2.42-7.22 2.83-9.65 3.75-9.95 3.79-.29.03-.4-.09-2.3-2.49Zm-5.92 1.3c-2.07-3-4.18-5.96-4.21-5.92-.02.02.01.9.07 1.96.12 2.19.04 1.96 1.33 3.78l.73 1.03 1.05.03c.58.02 1.16.08 1.3.13.53.22.49.09-.27-1.01Zm-8.56.76c.84-.76 2.05-2.66 1.97-3.1-.04-.19-.01-.54.06-.79.41-1.46-1.68-2.9-3.1-2.14-.91.49-3.09 2.79-3.26 3.44-.1.41.04.32.91-.61l.82-.88.36.3c.19.17.36.38.36.48.01.22-.11.22-.4-.02-.38-.31-.7.01-.33.33l.25.21-.51.63c-.6.73-.56.72-1.03.28-.42-.39-.44-.33-.18.5.11.32.25.78.31 1.01.12.49.09.48 2.26.51 1.13.02 1.35 0 1.51-.15Zm19.31-.87c1.36-.52 4.97-1.91 8.02-3.09s6.01-2.32 6.57-2.52l1.02-.38-3.47-3.56c-1.91-1.96-4.24-4.36-5.18-5.34l-1.7-1.77-4.6 1.61c-2.52.88-6.37 2.22-8.54 2.96s-3.98 1.38-4.03 1.42c-.04.04.19.38.51.77.51.6 2.13 2.61 7.55 9.37.65.81 1.23 1.47 1.28 1.47s1.21-.42 2.57-.94Zm-20.76.54c-.53-.38-.55-.29.29-1.35.79-1.02.71-.97 1.22-.66.49.31.48.39-.29 1.42-.76 1.02-.68.98-1.22.59Zm-1.27-.83-.39-.34.2-.25c1.14-1.51 1.27-1.6 1.79-1.25.46.29.46.29-.36 1.3-.82 1-.74.97-1.24.54Zm42.3.02c-.08-.12.33-.73.92-1.38l.41-.46.36.19c.62.33.63.4.17 1.01-.47.62-.55.65-.89.33l-.24-.23-.26.33c-.29.34-.37.38-.47.21ZM5.96 20.11c-.04-.05.28-.52.7-1.05.75-.96.75-.96 1.02-.82.69.37.69.36.21 1.04-.45.65-.52.69-.94.5-.22-.1-.29-.08-.53.15-.3.29-.38.32-.46.18Zm-.93-.57c-.44-.34-.43-.37.33-1.26.73-.87.7-.86 1.19-.57.44.26.43.29-.38 1.3-.7.88-.7.88-1.14.53Zm19.63-.42c-.26-.31-1.61-1.87-3-3.45-1.38-1.59-2.52-2.95-2.54-3.02-.04-.19.26-.33 2.2-1.03 2.52-.92 2.1-1 3.74.78 1.91 2.08 1.9 2.06 1.05 2.49l-.35.18.25.15c.13.08 1.14.68 2.23 1.33 2.23 1.32 2.21 1.29 1.12 1.7l-.43.17-2.6-1.55c-3.23-1.93-3.22-1.92-2.14-2.31.7-.25.71-.21-.26-1.34l-.86-1-.91.31c-.5.18-.9.36-.89.4.01.05.51.65 1.11 1.35 4.66 5.4 4.27 4.82 3.47 5.18-.71.31-.63.33-1.19-.34Zm1.1.02c.36-.09.39-.04-1.79-2.55-3.65-4.21-3.44-3.78-2.02-4.31 1.27-.48 1.08-.54 2.07.6 1.4 1.61 1.39 1.58.48 1.92-.33.12-.59.24-.58.25.06.05 4.05 2.43 4.51 2.69.47.27.97.29 1.12.06.03-.05-.63-.5-1.47-.99-2.98-1.74-2.98-1.75-2.37-2.09.76-.42.86-.19-1-2.25-1.02-1.14-1.07-1.18-1.41-1.14-.34.05-2.4.76-3.34 1.17l-.48.2.29.33c4.55 5.23 5.48 6.27 5.61 6.22.08-.03.25-.08.38-.11Zm2.93-4.61c-3.93-4.11-4.12-4.33-3.86-4.33.02 0 1.01-.36 2.21-.8 1.19-.44 2.21-.8 2.27-.8.28 0 4.12 4.01 4.03 4.23-.03.08-.47.32-.97.52-.51.21-1.16.49-1.45.61l-.54.24 1.14 1.2c.62.67 1.13 1.28 1.13 1.37 0 .15-.83.53-1.15.53-.09 0-1.35-1.25-2.81-2.77Zm3.4 2.25c.24-.09.24-.09-.25-.61-1.52-1.59-1.85-1.98-1.82-2.08.02-.07.69-.39 1.48-.73s1.44-.64 1.44-.68C32.96 12.55 29.4 9 29.25 9c-.08 0-1.03.32-2.1.71l-1.95.71.76.82c.42.44 1.83 1.92 3.13 3.28 2.49 2.6 2.36 2.5 3 2.26Zm-4.12-4.66c-1.71-1.73-1.71-1.54-.06-2.17l.94-.36.75.79c2.21 2.3 2.2 2.28.94 2.79-1.13.46-1.03.5-2.57-1.05Zm2.33.77c.44-.17.8-.34.8-.38 0-.11-2.2-2.51-2.3-2.51-.11 0-1.73.59-1.79.66-.04.04 2.39 2.54 2.47 2.54.01 0 .39-.14.82-.31Z"/></svg>