<svg xmlns="http://www.w3.org/2000/svg" width="51" height="51" viewBox="0 0 51 51"><path fill="#fff" fill-rule="evenodd" stroke="#fff" stroke-width=".786" d="M24.65 44.14c-.44-.3-1.74-1.14-2.9-1.86-7.6-4.77-9.32-6.44-10.06-9.8-1.03-4.64 2.16-12.19 8.47-20.07 2-2.5 5.14-5.91 5.43-5.91.45 0 4.27 4.28 6.65 7.45 6.55 8.75 8.85 15.81 6.63 20.4-1.02 2.11-2.84 3.78-6.95 6.39-.97.62-2.77 1.76-3.99 2.54s-2.28 1.42-2.35 1.41c-.07 0-.49-.25-.93-.55Zm.85-18.52-.01-18.77-1.22 1.25C16 16.59 10.7 26.96 11.89 32.35c.72 3.3 2.21 4.77 9.61 9.47 1.79 1.14 3.41 2.18 3.6 2.32s.36.25.38.26c.01 0 .02-8.45.02-18.78Zm1.79 17.78c6.75-4.28 8.09-5.21 9.45-6.56 1.76-1.77 2.54-3.41 2.71-5.7.11-1.67.41-1.73-3.5.8-1.87 1.21-4.93 3.17-6.8 4.37l-3.4 2.17-.03 2.97-.02 2.97.26-.17c.15-.1.75-.48 1.33-.85Zm1.66-7.25c1.65-1.06 3.92-2.51 5.05-3.24s2.79-1.81 3.69-2.39c.9-.59 1.65-1.11 1.68-1.18.14-.36-1.14-5.14-1.37-5.14-.05 0-1.15.71-2.47 1.57-2.21 1.46-7.95 5.18-9.25 6.01l-.58.37v3.03c0 2.4.03 3.02.13 2.96.06-.05 1.47-.94 3.12-1.99Zm-1.02-5.71c3.77-2.43 9.61-6.27 9.8-6.44.18-.17.17-.21-.32-1.27-.44-.94-1.41-2.79-1.77-3.38-.1-.16-.19-.12-1 .42-.49.33-2.04 1.33-3.44 2.23s-3.21 2.06-4.02 2.58l-1.48.94v3.14c0 1.73.02 3.14.05 3.14s1.01-.61 2.18-1.36Zm1.57-7.64c6.07-3.88 5.92-3.77 5.79-4.03-.53-1-3.98-5.74-5.45-7.49-1.04-1.23-3.94-4.38-4.03-4.38-.03 0-.06 4.12-.07 9.15 0 6.51.03 9.12.1 9.08.06-.04 1.71-1.09 3.66-2.33Z"/></svg>