<svg xmlns="http://www.w3.org/2000/svg" width="51" height="51" viewBox="0 0 51 51"><path fill="#fff" fill-rule="evenodd" stroke="#fff" stroke-width=".773" d="M23.65 44.19C11.09 43.01 3.31 29.46 8.53 17.84 12.57 8.86 23.19 4.57 32.4 8.19c1.18.47 1.85.82 1.85.96-.01.06-1.02.6-2.25 1.22l-2.25 1.12-.6-.14c-3.51-.82-7.12-.42-10.18 1.14-10.55 5.37-10.8 20.1-.43 26 3.38 1.92 8.34 2.28 12.07.88 4.97-1.87 8.63-6.36 9.44-11.6.24-1.55.17-4.16-.14-5.47l-.23-.95 1.1-2.27c.61-1.26 1.15-2.28 1.21-2.28.14 0 .64.99 1.06 2.1 1.45 3.73 1.54 8.63.24 12.51-2.83 8.45-10.76 13.61-19.64 12.78Zm3.6-.19c8.51-.81 15.02-6.94 16.57-15.6.21-1.17.17-4.89-.06-6.15-.3-1.67-1.5-5.15-1.76-5.14-.03 0-.52.96-1.08 2.14l-1.04 2.14.21.83c1.97 7.76-3.49 16.3-11.45 17.92-11.1 2.27-20.53-8.02-17.32-18.88 1.54-5.24 6.03-9.23 11.63-10.33 1.39-.27 4.24-.23 5.7.09l1.1.24 1.95-.96c1.07-.53 2.04-1.01 2.14-1.07.25-.14-.59-.55-2.34-1.13C19.71 4.14 7.53 12.53 7.13 24.9 6.77 36.14 16.15 45.04 27.25 44ZM20.7 30.43c-3.36-3.33-6.1-6.11-6.1-6.18 0-.06 2.37-1.28 5.28-2.7 2.9-1.42 8.27-4.06 11.93-5.87 6.08-2.99 6.99-3.41 6.99-3.22 0 .08-2.01 4.22-4.48 9.24C28.53 33.46 27 36.5 26.9 36.5c-.06 0-2.85-2.73-6.2-6.07Zm6.89 4.45c.38-.79 1.87-3.82 3.31-6.73 2.95-5.97 7.6-15.45 7.6-15.5 0-.02-1.86.88-4.12 2-15.94 7.84-19.42 9.56-19.47 9.6-.04.05 11.88 12.05 11.97 12.05.01 0 .34-.64.71-1.42Z"/></svg>