<svg xmlns="http://www.w3.org/2000/svg" width="51" height="51" viewBox="0 0 51 51"><path fill="#fff" fill-rule="evenodd" stroke="#fff" stroke-width=".747" d="M25.32 40.35c-.23-.47-.67-1.25-.98-1.75l-.55-.9h-1.02c-1.33 0-1.69-.11-2.26-.68-.74-.75-.71-.31-.71-9.67 0-9.01-.01-8.85.53-9.51.61-.73.61-.74 5.22-.74s4.61.01 5.22.74c.5.61.53.86.53 4.39v3.25l.48.18c3.81 1.38 5.52 3.27 6.12 6.75.15.84.25 5.89.15 7.52l-.07 1.27H25.74zm12.46-3.58c-.06-5.3-.24-6.17-1.72-8.13-.83-1.11-2.9-2.39-4.49-2.79l-.27-.07v3.61l.66.37c.36.2.66.35.68.33s-.03-.78-.1-1.68c-.09-1.09-.11-1.68-.04-1.75.15-.15.15-.14.35 1.99.27 3.03.29 3.45.15 3.45-.06 0-1.09-.91-2.27-2.02-1.97-1.85-2.66-2.38-3.09-2.38-.11 0-.12.04-.04.19.15.28.12.87-.05 1.21-.51.99-1.86.94-2.4-.11-.71-1.37.83-2.74 1.94-1.74.23.21.44.35.47.32.13-.12-.19-.46-.62-.67-1.21-.59-2.24.36-2.24 2.08 0 .65 0 .66 1.22 2.76 1.96 3.37 2.1 3.69 2.55 5.74l.05.22h-2.21c-1.22 0-2.21.02-2.21.05s.21.37.47.77c.25.4.66 1.12.91 1.6l.45.88h11.89zm-2.48 3.39c0-.8-2.13-2.67-4.57-4.02-.44-.24-.7-.54-.47-.54.21 0 2.86 1.74 3.76 2.48 1.05.84 1.73 1.87 1.42 2.12-.11.1-.14.09-.14-.04Zm-9.5-.25c0-.11 8.05-.25 8.22-.15.09.06.04.11-.17.15-.45.1-8.05.1-8.05 0Zm.03-.84c-.09-.14-.04-.15 3.62-.17 4.17-.03 4.25-.03 4.25.1 0 .12-7.8.19-7.87.07ZM28 36.56c0-.08-.09-.42-.2-.77-.2-.64-.36-.95-2.09-3.92-1.27-2.2-1.34-2.35-1.27-2.7.06-.3.06-.3-.14-.12-.33.3-.41.09-.3-.82.18-1.59.83-2.34 2.1-2.41 1.02-.06 1.71.37 2.2 1.38.12.26.57.79 1.08 1.27l.87.82.03-5.2c.02-5.71.03-5.62-.58-5.94-.41-.21-7.73-.23-8.23-.01-.71.29-.67-.3-.67 9.21 0 9.4-.03 8.86.59 9.2.38.21 6.61.22 6.61.01Zm-1.1-5.05c0-.12 1.99-1.41 2.17-1.41.25 0 .05.17-.98.84-.98.65-1.19.75-1.19.57Zm-.05-2.07c.73-.34.81-1.25.17-1.87-.64-.61-1.32-.55-1.65.16-.51 1.06.48 2.19 1.48 1.71Zm-1.93-2.31c.61-.92 1.93-.95 2.69-.07.43.5.67.66.44.29-.54-.88-1.1-1.25-1.87-1.25-1.12 0-1.9.96-1.87 2.3l.01.45.17-.67c.09-.36.29-.84.43-1.05Zm-1.28 1.03c-.41-2.22 2.34-3.97 3.94-2.51.45.42.55.79.09.39-1.5-1.34-3.62-.36-3.75 1.72-.05.79-.17.96-.28.4Zm-.52-8.08c-.3-.3-.03-.98.39-.98.21 0 .59.33.59.53 0 .44-.68.75-.98.45Zm1.6 0c-.2-.2-.15-.76.07-.88.11-.05.85-.1 1.69-.1 1.63 0 1.82.06 1.82.61 0 .45-.13.49-1.85.49-1.12 0-1.65-.04-1.73-.12Zm3.33-.38c0-.24-.03-.25-.75-.3-1.16-.08-2.41 0-2.47.16-.15.41 0 .45 1.64.42l1.58-.03zM8.79 16.16c-3.84-1.06-5.16-6.07-2.34-8.91 3.32-3.34 8.95-1 8.95 3.72 0 3.5-3.31 6.1-6.61 5.19Zm2.33-.17c1.37-.29 2.88-1.43 3.48-2.62l.31-.62-4.67-.03c-2.57-.01-4.7 0-4.73.03-.13.14.58 1.25 1.19 1.86 1.2 1.21 2.82 1.71 4.42 1.38Zm29.68-.56c-5.47-.37-7.57-4.05-3.44-6.05 1.17-.57 1.54-.61 1.54-.17 0 .36.39 1.26.86 2 .15.24.61 1 1.01 1.68.7 1.19.73 1.23.83.97.32-.86.08-1.69-.99-3.44-1.17-1.9-1.36-2.73-.87-3.74.26-.54.36-.48.75.38.19.43.59 1.16.89 1.63.31.47.77 1.24 1.04 1.71.65 1.12.64 1.11.79.46.19-.85.02-1.41-.83-2.77-1.14-1.83-1.31-2.25-1.26-3.17.06-1.25.43-1.75.73-1 .09.24.6 1.17 1.13 2.08.53.9 1.08 1.93 1.22 2.28l.25.63.67.23c2.62.92 3.47 3.02 1.85 4.59-1.21 1.17-3.74 1.87-6.17 1.7Zm2.53-.38c5.11-.89 5.74-4.56 1.01-5.9-.07-.02-.21-.32-.33-.67-.12-.34-.53-1.16-.92-1.82-.39-.65-.9-1.54-1.14-1.98l-.42-.79-.12.45c-.26 1.02-.07 1.63 1.04 3.41 1.12 1.81 1.28 2.44.87 3.59-.24.68-.32.66-.74-.17-.21-.39-.72-1.26-1.14-1.92s-.91-1.51-1.09-1.89c-.36-.76-.45-.75-.6.11-.1.65.15 1.33 1.1 2.87 1.21 2 1.4 2.79.89 3.81-.26.53-.36.53-.58-.02-.11-.25-.66-1.23-1.23-2.18-.67-1.11-1.08-1.9-1.16-2.24-.14-.63-.25-.63-1.43-.05-1.31.64-2.06 1.7-1.89 2.63.37 2.02 4.29 3.39 7.88 2.76Zm-28.26-2.93c.12-.57.09-2.12-.06-2.54l-.13-.38H5.42l-.13.53c-.15.58-.17 1.48-.05 2.19l.07.48 3.37.02c1.85.02 4.03.04 4.84.05l1.47.03zm-.37-3.27c0-.22-.52-.99-.99-1.45-2.02-1.99-5.16-1.96-7.12.07-.41.42-.99 1.23-.99 1.38 0 .03 2.05.05 4.55.05s4.55-.02 4.55-.05Z"/></svg>