<svg xmlns="http://www.w3.org/2000/svg" width="51" height="51" viewBox="0 0 51 51"><path fill="#fff" fill-rule="evenodd" stroke="#fff" stroke-width=".432" d="M23.4 42.93c-1.37-.23-2.84-.89-3.98-1.78-.86-.67-.87-.53.14-1.91.93-1.28.78-1.22 1.58-.64 2.42 1.76 4.75 1.72 7.51-.13.82-.55.72-.6 1.59.82.79 1.3.79 1.19.11 1.7-2.06 1.56-4.75 2.31-6.95 1.94Zm2.3-.24c1.46-.18 3.14-.88 4.38-1.81.62-.46.62-.39-.11-1.57-.64-1.03-.6-1.02-1.44-.47-2.67 1.72-5.3 1.71-7.51-.03l-.51-.41-.77 1.01c-.88 1.16-.89 1.06.23 1.85 1.65 1.19 3.67 1.69 5.73 1.43Zm-7.29-6.65c-3.02-.81-4.54-4.12-3.17-6.89 1.82-3.68 7.06-3.62 8.83.1 1.73 3.65-1.76 7.84-5.66 6.79Zm10.24.02c-3.53-.87-4.86-5.32-2.42-8.02 2.78-3.07 7.85-1.52 8.49 2.58.52 3.37-2.71 6.27-6.07 5.44Zm-19.28-.12c-.04-.04-.07-1.55-.07-3.35v-3.28l-.77-.03-.78-.03-.03-1.24c-.02-.93.01-1.26.1-1.33.17-.1 6.09-.1 6.26 0 .09.07.12.4.1 1.33l-.03 1.24-.82.03-.83.03-.02 3.32-.03 3.32-1.51.03c-.82.01-1.53-.01-1.57-.04Zm11.58-.2c3.19-.87 4.37-5.21 2.07-7.61C20.1 25.09 15 27.1 15 31.3c0 3.12 2.9 5.28 5.95 4.44Zm10.43-.05c2.7-.93 3.91-3.97 2.6-6.54-2-3.92-8.01-2.93-8.68 1.44-.55 3.48 2.75 6.25 6.08 5.1Zm4.09.24c-.13-.13-.08-9.08.05-9.21.08-.08.51-.12 1.3-.12h1.17l1.13 1.55 1.13 1.55.05-1.43c.03-.78.09-1.48.13-1.54.15-.24 2.84-.18 2.97.06.15.3.14 8.93-.02 9.09q-.12.12-1.29.12h-1.18l-.44-.57c-.24-.32-.74-1.01-1.12-1.53-.37-.52-.71-.98-.74-1.03-.04-.04-.08.61-.1 1.45-.01.83-.04 1.55-.07 1.6-.06.1-2.88.11-2.97.01ZM12.2 32.51c0-1.76.03-3.26.06-3.35.05-.13.23-.16.9-.16H14v-2.1H8.02l-.07.84c-.1 1.24-.09 1.26.8 1.26.57 0 .74.03.79.16.03.09.06 1.59.06 3.35v3.19h2.6zM38.3 34c0-1.78.09-2.08.42-1.46.07.13.6.89 1.18 1.69l1.05 1.47h2.25v-8.8h-2.6v1.75c0 .99-.04 1.75-.09 1.75s-.35-.37-.67-.82c-.31-.46-.88-1.25-1.26-1.75l-.68-.93h-2.2v8.8h2.6zm-19.55-.87c-1.91-1-1.28-3.83.85-3.83 2.11 0 2.79 2.72.94 3.77-.47.27-1.34.3-1.79.06Zm10.15-.05c-1.12-.6-1.39-2.03-.58-3.03 1.14-1.37 3.39-.71 3.56 1.04.15 1.57-1.59 2.73-2.98 1.99Zm-8.29-.32c1.22-.81.93-2.7-.47-3.16-1.22-.41-2.58.85-2.25 2.09.32 1.22 1.68 1.75 2.72 1.07Zm9.87.19c1.83-.77 1.38-3.35-.59-3.35-1.93 0-2.48 2.51-.74 3.31.49.23.84.24 1.33.04Zm4.12-10.13c-2.35-.62-3.93-2.98-3.59-5.37.39-2.84 3.33-4.84 6.05-4.11.71.19 1.74.75 1.74.95 0 .31-1.61 2.43-1.79 2.35-1.28-.55-2.18-.33-2.69.66-.78 1.5.89 3.14 2.39 2.34l.34-.18-.3-.06-.3-.05v-2.1l1.65-.03c2.33-.04 2.1-.22 2.1 1.66 0 1.78-.02 1.86-.88 2.7-1.2 1.2-3.04 1.68-4.72 1.24Zm-32.4-.28c-.14-.35-.13-8.69 0-8.95.1-.17.22-.19 1.25-.19 1.36 0 1.13-.16 2.51 1.86.55.79 1.02 1.44 1.06 1.44.03 0 .4-.51.82-1.12.42-.62.93-1.35 1.14-1.63l.38-.5 1.24-.03c.92-.02 1.25.01 1.32.1.15.25.1 9.04-.06 9.17-.09.08-.6.11-1.57.09l-1.44-.03-.05-1.49-.05-1.5-.37.6c-.5.8-1.26 1.84-1.36 1.84-.04 0-.43-.5-.87-1.12l-.8-1.11-.05 1.29c-.06 1.66.06 1.54-1.61 1.54H2.3zm10.4.07c0-.1.29-.93.64-1.83.35-.89 1.1-2.84 1.66-4.33.56-1.48 1.06-2.77 1.11-2.87.08-.16.24-.18 1.23-.18h1.13l.12.28c.07.15.33.8.57 1.46.25.65.82 2.16 1.28 3.35 1.12 2.89 1.5 3.97 1.42 4.16-.04.12-.29.15-1.46.15h-1.41l-.17-.4-.17-.4h-2.6l-.2.38-.2.37-1.48.03c-1.4.02-1.47.02-1.47-.17Zm9.85.07c-.03-.07-.04-2.18-.03-4.68l.03-4.55 1.26-.03 1.27-.03 1.13 1.58 1.14 1.58.05-1.55.05-1.55h3v9.3l-1.27.03-1.26.03-1.14-1.59-1.13-1.59-.05 1.56-.05 1.56-1.48.03c-1.12.02-1.49 0-1.52-.1Zm17.29-.02c-.03-.07.24-.89.59-1.82.36-.93 1.11-2.9 1.66-4.38.56-1.48 1.06-2.77 1.12-2.88.09-.16.23-.18 1.18-.18 1.27 0 1.17-.07 1.66 1.2 1.81 4.71 2.97 7.92 2.91 8.07-.04.11-.36.13-1.48.11l-1.43-.03-.18-.37-.19-.38H43l-.2.4-.2.4h-1.41c-1.08 0-1.41-.03-1.45-.14Zm-2.53-.12c.95-.28 1.84-.9 2.41-1.68.28-.39.28-.4.28-1.88V17.5h-3.2v1.7h.35c.6 0 .38.43-.38.75-2.2.92-3.86-2.21-1.89-3.56.44-.3 1.41-.38 1.95-.16l.37.16.7-.98c.81-1.14.8-1.1.37-1.35-3.91-2.25-8.5 2.08-6.46 6.11 1.01 1.99 3.35 3 5.5 2.37ZM5 20.9c0-.98.04-1.6.1-1.6.05 0 .51.58 1.01 1.3 1.06 1.5.81 1.53 1.98-.22.39-.6.76-1.08.81-1.08.06 0 .1.62.1 1.6v1.6h2.7v-8.8H9.45l-.51.73c-.28.39-.81 1.16-1.18 1.69-.37.54-.71.98-.75.98s-.25-.26-.47-.57c-.21-.32-.74-1.09-1.17-1.7l-.78-1.13H2.4v8.8H5zm10.6 1.2.2-.4h2.88l.16.4.16.4h2.59l-.3-.82c-.17-.46-.57-1.53-.9-2.38s-.95-2.46-1.37-3.58l-.76-2.03-1.04.03-1.04.03-.6 1.6c-.33.88-1.06 2.82-1.64 4.32-.57 1.49-1.04 2.74-1.04 2.77s.56.06 1.25.06h1.25zm9.7-1.25c0-1.32.03-1.65.13-1.65.08 0 .67.74 1.31 1.65l1.17 1.65h2.29v-8.8h-2.6l-.01 1.48c-.02 2.38.07 2.36-1.4.32l-1.26-1.75-1.12-.03-1.11-.03v8.81h2.6zm17.4 1.25.2-.4h1.39c1.48 0 1.54.02 1.66.53l.07.27h1.29c.71 0 1.29-.02 1.29-.05 0-.07-2.01-5.48-2.67-7.2l-.58-1.5-1.01-.03-1.02-.03-.17.43c-.09.24-.7 1.85-1.35 3.58s-1.32 3.5-1.49 3.93-.31.8-.31.82c0 .03.56.05 1.25.05h1.25zm-25.92-2.06c-.35-.19-.48-.43-.48-.92 0-.87 1.08-1.28 1.64-.61.72.86-.19 2.06-1.16 1.53Zm27.1 0c-.7-.37-.64-1.44.09-1.79 1.1-.52 1.92 1.24.83 1.8-.36.19-.57.18-.92-.01Zm-26.09-.4c.28-.35.26-.69-.04-.99-.67-.68-1.69.32-1.03 1.02.3.33.8.31 1.07-.03Zm27.1 0c.28-.35.26-.69-.04-.99-.67-.67-1.63.24-1.04.99.15.19.3.26.54.26s.39-.07.54-.26Z"/></svg>