<svg xmlns="http://www.w3.org/2000/svg" width="51" height="51" viewBox="0 0 51 51"><path fill="#fff" fill-rule="evenodd" stroke="#fff" stroke-width=".67" d="M11.24 43.85c-1.93-.42-3.19-1.75-3.71-3.9-.2-.85-.33-18.71-.13-19.43.15-.57.43-.87.94-1.02 1.19-.33 1.71.22 5.36 5.6 5.37 7.91 6.81 9.89 7.98 10.93 1.18 1.05-1.7.65-3.7-.52l-.66-.38-.05 2.21c-.07 3.07-.34 4.01-1.5 5.17-1.2 1.2-2.88 1.7-4.53 1.34Zm2.49-.36c2.46-.82 3.25-2.37 3.33-6.48.03-1.18.06-2.16.08-2.18s.5.21 1.07.51c1.13.59 2.1.93 2.98 1.02l.56.07-.46-.41c-.91-.82-2.39-2.85-7.34-10.12-4-5.88-4.27-6.2-5.24-6.2-.54 0-.95.36-1.1.94-.27 1.09-.06 18.55.24 19.6.75 2.67 3.35 4.1 5.88 3.25Zm24.32.07c-2.58-.64-3.73-2.64-3.84-6.71-.07-2.68.25-2.56-2.5-.94-1.48.87-1.56-.12-.16-1.89 1.65-2.09 3.87-5.08 5.44-7.34 4.46-6.44 5.29-7.32 6.23-6.58.49.38.49.43.46 10-.04 9.95-.01 9.59-.74 11.01-.9 1.79-3.11 2.89-4.89 2.45Zm2.04-.35c1.67-.52 2.73-1.77 3.18-3.76.22-.97.23-18.47.01-18.89-.28-.54-.93-.51-1.51.07-.57.56-2.36 2.98-4.37 5.87a132 132 0 0 1-5.12 6.96c-1.11 1.42-1.48 2.02-1.48 2.39 0 .27.26.16 1.54-.6 1.26-.77 1.86-.99 2.02-.74.04.07.08 1.08.09 2.24.01 1.86.04 2.19.24 2.9.8 2.82 3.04 4.3 5.4 3.56Zm-28.97-.07c-1.8-.48-2.71-1.69-3.02-3.99-.13-.98-.2-17.96-.08-18.42.05-.18.19-.39.31-.48.81-.57 1.51.2 5.05 5.49 3.52 5.26 5.16 7.63 6.7 9.64.41.54-.59.25-1.98-.58-1.38-.81-1.36-.84-1.43 2.15-.05 2.46-.15 3.1-.62 4.09-.78 1.66-3.03 2.62-4.93 2.1Zm2.51-.35c2.15-.7 2.87-2.37 2.87-6.67 0-2.35.06-2.39 1.94-1.41.65.33 1.19.59 1.21.57.01-.01-.5-.75-1.15-1.63-.64-.88-2.56-3.68-4.27-6.21-4.19-6.23-4.81-7.04-5.39-7.04-.65 0-.62-.5-.59 9.45.03 8.77.05 9.43.35 10.56.55 2.04 2.81 3.11 5.03 2.38Zm10.7-7.8c-1-.19-1.89-.82-3.41-2.38-1.43-1.47-1.8-1.99-6.24-8.71-4.27-6.46-4.97-7.13-6.87-6.59-.35.1-.32-4.61.04-6.09.93-3.85 5.76-5.11 8.49-2.22 1.02 1.08 4.7 6.83 8.74 13.65 2.94 4.96 4.04 6.14 6.15 6.59.39.09.35.27-.37 1.35-1.79 2.71-3.47 4.11-5.26 4.4-.72.12-.69.12-1.27 0Zm2.53-.68c1.26-.63 2.44-1.82 3.82-3.86l.61-.89-.78-.26c-1.72-.56-3.01-2.05-5.56-6.4-1.09-1.87-5.16-8.48-6.5-10.56-2.12-3.3-2.89-4.09-4.4-4.48-1.71-.45-3.66.06-4.79 1.24-1.12 1.17-1.36 2.08-1.43 5.52l-.05 2.46.48-.1c.78-.17 1.43.03 2.1.64.97.89 2.13 2.52 6.09 8.52 3.62 5.51 5.67 7.83 7.53 8.53.72.26 1.92.11 2.88-.36Zm5.19-6.16-.41-.15c-.13-.01-1.9-1.54-2.24-1.92-1.49-1.68-4.9-7.39-4.9-8.21 0-.66.41-.73 1.4-.25 1.87.9 2.5.36 6.9-5.92 1.67-2.39 2.27-3.17 2.81-3.6 2.22-1.78 6.43-.72 7.65 1.94.74 1.62.95 6.78.3 7.53l-.22.26-.48-.22c-.67-.29-.87-.27-1.45.19-1 .79-1.99 2.09-4.79 6.25-2.78 4.14-3.27 4.58-4.57 4.1Zm1.34-.29c.49-.26 1.04-.97 3-3.91 2.45-3.65 3.13-4.56 4.31-5.76 1.09-1.1 1.26-1.18 2.08-.87.68.25.72.22.84-.89.24-2.11-.09-5.3-.67-6.49-.74-1.51-2.43-2.39-4.6-2.39-2.18 0-2.55.3-5.51 4.51-4.33 6.16-5.02 6.74-6.93 5.84-1.24-.59-1.47-.29-.78 1.01 3.43 6.53 6.5 9.86 8.26 8.95Zm-1.65-.57c-1.54-.98-3.76-3.99-6.29-8.53-.43-.76-.46-.74.55-.37.77.29 1.58.27 2.18-.03 1.01-.52 1.93-1.67 6.02-7.51 1.86-2.65 3.05-3.29 5.29-2.81 2.72.57 3.63 2.01 3.77 5.91.06 1.78-.04 3.02-.26 2.97-1.11-.25-1.45-.16-2.32.66-1.08 1.02-2.07 2.32-4.39 5.78-3.01 4.52-3.27 4.73-4.55 3.93Zm1.61-.24c.2-.14 1.3-1.69 2.64-3.68 4.02-5.98 5.3-7.29 6.65-6.77.36.13.37.1.37-1.92 0-4.19-.85-5.8-3.36-6.38-2.45-.57-3.37.01-6 3.76-3.08 4.42-4.42 6.06-5.37 6.56-.54.28-1.71.31-2.31.05l-.38-.16.32.57c2.62 4.63 4.6 7.23 6.24 8.21.28.16.81.06 1.2-.24Z"/></svg>