<svg xmlns="http://www.w3.org/2000/svg" width="51" height="51" viewBox="0 0 51 51"><path fill="#fff" fill-rule="evenodd" stroke="#fff" stroke-width=".288" d="M4.35 51.05c-2.78-.88-3.91-4.25-2.96-8.9.93-4.62.92-5.55-.14-7.68C.66 33.28 0 30.98 0 30.16c.01-.62.14-.29.59 1.41.48 1.81.63 2.23 1.01 2.84.99 1.62 1.02 3.19.14 7.54-.54 2.68-.54 3.41-.03 5.49.5 2.07 1.18 2.79 3.22 3.41.48.14.87.28.87.31 0 .09-1.07.01-1.45-.11Zm1.45-.24c-2.28-.75-3.03-1.51-3.59-3.66-.53-2.01-.51-2.9.14-5.53.45-1.83.77-3.7.77-4.57.02-1.39-.08-2.3-.27-2.63-.21-.36-.14-.52.15-.34.12.07.36.1.58.07.69-.11 1.42.56 1.22 1.1-.06.16-.22.74-.35 1.29-.13.56-.49 1.73-.8 2.61-1.23 3.5-1.51 5.67-.97 7.63.59 2.17 1.23 2.84 3.65 3.78 1.84.72 1.46.89-.53.25Zm24.67.21c.12-.09.4-.3.63-.45.8-.56.92-1.16.65-3.17-.08-.58-.15-1.28-.15-1.55-.01-.75-.14-.87-.35-.31-.18.46-.17.9.01 1.96.09.51-.11.26-.25-.32-.18-.77-.14-1.39.14-1.94l.25-.49-.21-.17c-.29-.25-.34-.23-.84.23-.89.82-1.3 1.66-.75 1.54.38-.08.32.22-.06.31-.59.15-.73-.36-.28-1.02 1.48-2.19 2.42-2.07 2.64.33.06.68.15 1.49.2 1.8.28 1.66-.05 2.56-1.15 3.24-.41.26-.8.26-.48.01Zm1.1-.17c.44-.38.85-1.11 1.08-1.95.41-1.53 1.04-1.71 3.09-.89 1.17.47 1.48.49 1.64.14.37-.82.17-1.98-.48-2.81-.98-1.22-1-1.26-1-1.69v-.42l-.46-.07c-1.69-.23-3.28-.05-3.57.4-.12.19-.25.34-.29.34-.16 0-.07-.29.22-.69l.31-.42 1.92.02 1.92.01.47-.98c.91-1.91.79-2.25-.91-2.55-1.98-.35-5.16.59-7.16 2.12-2.63 2-3.75 2.4-8.28 2.94-.77.09-2.16.36-3.18.61-1.62.41-2.06.47-1.86.28.27-.27 3.62-1 5.7-1.24 3.98-.47 5.05-.89 7.76-3.03 1.44-1.13 4-1.97 6.16-1.99 2.66-.03 3.13.67 2 3.02-.3.63-.55 1.21-.55 1.3 0 .42.25.93.72 1.46.83.95 1.17 1.99.97 2.94-.22 1.04-.63 1.21-1.77.71-2.17-.95-2.71-.83-3.13.69-.33 1.2-.98 2.1-1.52 2.1-.17 0-.14-.06.2-.35Zm1.13.27c0-.29 1.26-1.17 1.58-1.1.12.03.04.11-.24.26-.23.12-.59.37-.79.57-.37.34-.55.43-.55.27Zm4.87-.53c-.38-.37-.57-.63-.49-.66.07-.03.12-.22.12-.44 0-.24.04-.38.1-.34.06.03.1.28.1.55 0 .46.02.51.57.99.39.35.51.51.39.51-.1 0-.46-.27-.79-.61Zm2.21.56c-.09-.09.36-4.32.47-4.43.19-.2.12 1.28-.22 4.01-.05.44-.12.55-.25.42Zm1.62-.05c0-.06.07-.99.15-2.08.24-2.95.37-3.7 1.3-7.07 1.29-4.72 1.51-7.63.74-10.11-.32-1.04-.66-1.34-1.48-1.34-.87 0-.89.03-.36.64 1.01 1.18 1.4 2.45 1.4 4.51v1.5l-.62 1.8c-.66 1.91-1.13 4.13-1.13 5.3 0 .76-.27 2.28-.46 2.52-.18.24-.18.1.01-.97.08-.47.15-1.19.15-1.6s.09-1.27.2-1.9c.16-.88.18-1.2.09-1.36-.09-.17-.05-.34.19-.91.66-1.54.76-4.57.22-6.52-.24-.86-.25-.98-.06-.82.3.25.74 2.27.77 3.56.01.49.03.54.09.3.07-.26.08-.22.1.25.04.98.18.16.19-1.1.02-1.95-.37-3.14-1.43-4.43-.8-.98-.78-1.02.55-1.13l.8-.07.43.46c1.6 1.66 1.52 5.56-.23 12.11-.84 3.12-1 4.13-1.19 7.31-.06 1.03-.09 1.2-.24 1.23-.1.02-.18-.01-.18-.08Zm3.4-.14c.05-.13.29-.64.54-1.14.79-1.58.79-2-.01-2.55-1.13-.77-1.93-1.79-1.93-2.46 0-.33.12-.18.34.4.23.63.73 1.19 1.56 1.73 1.13.75 1.16 1.08.24 3.02-.5 1.05-1.04 1.78-.74 1Zm1.5.14c0-.25.67-1.41 1.28-2.19.82-1.09.94-1.35.81-1.87-.17-.63-.28-.72-1.1-.84-1.91-.29-2.69-1.24-2.69-3.3 0-1.09 0-1.12.96-6.85.96-5.74.92-6.48-.31-6.65-.84-.11-.3-.95.62-.95 1.5 0 1.56 1.94.28 9.06-.93 5.11-.82 6.03.9 7.49 2 1.7 2.1 2.25.72 4.06-.45.6-.93 1.33-1.06 1.62-.22.48-.41.67-.41.42Zm2.2.05c0-.15.48-.98.96-1.67 1.22-1.73 1.23-2.26.06-4.16-.68-1.12-.78-1.42-.63-2.06.14-.62 1.03-2.49 1.74-3.65.8-1.3.69-.71-.13.73-1.53 2.68-1.67 3.38-.94 4.56 1.38 2.22 1.4 2.98.15 4.69-.26.36-.6.87-.76 1.14-.23.4-.45.61-.45.42ZM18 50.86c0-.81 4.51-1.41 5.44-.73.28.21.12.39-.22.26-1.11-.44-3.27-.2-5.04.56-.13.05-.18.03-.18-.09Zm21.37.08c-.02-.05 0-.74.05-1.54s.08-1.8.05-2.22c-.05-.76.06-1.05.19-.52.19.75-.07 4.63-.29 4.28ZM8 50.12c-1.5-.79-2.2-1.34-2.56-2.03-.21-.41-.65-1.91-.58-1.99.11-.1.33.33.44.84.28 1.31.93 1.98 2.93 2.99l1.34.69.46-.48c.25-.27.43-.52.41-.55-.06-.11-1.53-1.05-3.22-2.08-1.04-.63-1.65-1.08-1.92-1.39-.58-.68-.49-.82.13-.2.32.34 1.1.89 2.07 1.47 1.87 1.13 2.88 1.81 3.14 2.1l.2.22-.59.59c-.71.72-.49.74-2.25-.18Zm5.49.58c-.86-.15-1.99-.93-2.36-1.63-.16-.32-.08-.53.09-.22.44.77 1.55 1.53 2.41 1.64.28.03.52.12.55.19.04.13-.01.13-.69.02Zm29.91.05c.01-.06.07-.37.15-.7s.15-.84.15-1.13c0-.33.04-.51.1-.47.24.15 0 1.99-.29 2.28-.06.06-.11.07-.11.02ZM8.8 49.72c-.43-.13-2.39-1.25-2.35-1.33.05-.07 2.24 1 2.49 1.22.13.11.05.17-.14.11Zm16.58-.02c-.72-.13-1.98-.52-1.98-.61 0-.13.18-.11.95.11 1.27.37 1.85.37 3.51 0 1.72-.38 1.77-.42 1.72-1.22l-.04-.58h.71c.14 0 .05.16-.14.25-.17.08-.21.18-.21.56 0 .73-.15.84-1.65 1.18-1.53.35-2.23.43-2.87.31Zm-9.88-.19c-.63-.2-1.36-.56-1.45-.71-.1-.17.1-.11.81.23 1.5.7 5.4.19 4.32-.58-.46-.31-2.34-.97-3.9-1.36-2.73-.68-3.52-1.07-5.28-2.59-.58-.49-1.59-1.27-2.25-1.73-1.43-.98-2.7-2.21-3.08-2.97-.27-.55-.38-1.5-.17-1.5.05 0 .1.17.1.38 0 1.03 1.32 2.56 3.45 4 .66.44 1.56 1.13 2 1.52 1.69 1.51 2.49 1.91 5.17 2.6 2.81.73 4.48 1.45 4.48 1.93 0 .68-2.86 1.21-4.2.78Zm19.95-.36c-.35-.14-.82-.24-1.12-.24-.32-.01-.53-.05-.53-.12 0-.19 1.29-.05 1.88.2.9.4.71.53-.23.16Zm-30.8-.72c-.8-1.07-1.39-2.66-1.52-4.1-.09-.95.11-.77.25.23.23 1.58.76 2.88 1.63 3.97.22.27.26.37.15.37-.09 0-.32-.21-.51-.47Zm21.15-.24c-1.5-.09-3.35-.47-4.84-.98-.92-.32-2.45-.58-4.4-.75-2.1-.19-2.81-.34-3.84-.81-.94-.43-2.02-1.15-2.02-1.34 0-.11.04-.11.22.01 1.9 1.25 2.83 1.54 5.73 1.83.88.09 2.05.23 2.6.31 2.08.31 2.57.35 5.1.44 2.75.09 3.43.19 3.8.6.23.25.16.25-.65-.01-.56-.18-5.5-.47-5.68-.33-.34.25 3.9.78 5.66.71 1.36-.06 1.67-.01 1.25.21-.26.13-1.71.19-2.93.11Zm9.86-.59c-1.27-.54-1.2-.74.08-.24 1.33.51 1.59-.02.66-1.35-.5-.72-.48-.89.03-.32.53.59.8 1.17.74 1.59-.12.71-.44.78-1.51.32Zm.39-.51c-.35-.42-.65-1.03-.65-1.31.01-.19.05-.16.22.17.37.72.82 1.38.86 1.26.02-.06-.14-.4-.36-.75-.52-.82-.75-1.37-.63-1.49.06-.06.18.07.31.34.12.24.38.69.56 1 .56.94.33 1.53-.31.78Zm-3.55-.8c0-.5.24-2.09.32-2.09.04 0 .09.21.09.48l.01.47.08-.48c.09-.51.16-.65.26-.54.13.12-.19 1.6-.38 1.79-.1.1-.18.27-.18.38s-.04.2-.1.2c-.05 0-.1-.09-.1-.21Zm-25.48-.41c-.23-.28-.82-1.54-.82-1.76 0-.34.17-.26.24.11.03.18.24.63.46 1.01.22.37.4.7.4.72 0 .09-.18.03-.28-.08Zm-.45-.16c-.46-.51-.94-2.11-.76-2.58.05-.14.08-.09.13.21.19 1.09.38 1.63.8 2.27.2.31.08.38-.17.1Zm41.08.1c-.06-.05-.43-.35-.83-.66-1.6-1.26-1.84-2.58-1.17-6.41 1.54-8.87 1.51-10.34-.21-9.91-.31.08-.31.26 0 .26.13 0 .35.09.5.21.86.67.84 1.49-.19 7.54-1.1 6.45-1.1 7.47-.01 8.43.32.28.56.38 1.31.55.35.08.69.07.6-.01Zm-34.96-1.45c-1.2-.81-1.21-3.01-.01-5.89.33-.78.65-1.6.72-1.8.13-.44.33-.52.24-.1-.12.55-.28 1-.76 2.15-1.06 2.55-1.08 4.81-.04 5.49.34.22.46.38.27.38-.04 0-.23-.1-.42-.23Zm-2.28-1.75c-.16-.54-.13-1.9.04-2.73.22-1.02.55-2.09.66-2.09.12 0 .13-.09-.23 1.37-.33 1.3-.44 2.87-.25 3.56.04.16.03.27-.02.27-.06 0-.15-.17-.2-.38Zm-7.27-.32c.09-.67.45-1.82.55-1.76.04.03-.03.45-.15.93-.13.48-.24.98-.24 1.11 0 .12-.05.22-.11.22-.08 0-.1-.16-.05-.5Zm8.12-.27c-.29-.85 0-3.11.44-3.38.14-.09.13-.03-.16 1.14-.28 1.1-.28 1.12.02 2.44.11.46-.13.31-.3-.2Zm35.64-.35c0-.24.41-3.02.46-3.07.15-.16.14.26-.05 1.5-.19 1.28-.4 2.07-.41 1.57ZM7.6 40.16c-.03-.02-.03-1.57 0-3.43l.05-3.38.58-1.3c.53-1.2.87-1.77.87-1.47 0 .06-.24.69-.54 1.39-.72 1.7-.7 1.56-.71 4.88 0 2.57-.08 3.49-.25 3.31Zm16.18-.57C13.07 38.27 7.7 25.73 14.14 17.08l.65-.87-.55-.25c-.31-.14-1.06-.6-1.67-1.03-4.94-3.42-5.92-3.77-6.93-2.42-.69.92-.75 1.37-.78 5.79-.05 5.93-.28 7.45-1.44 9.73-1.34 2.65-.16 4.23 1.29 1.71.28-.51.59-.75.45-.36-.34.9-1.27 1.92-1.77 1.92-1.08 0-1.2-1.53-.27-3.36 1.14-2.23 1.58-5.45 1.42-10.44-.1-3.19.14-4.47 1.05-5.4 1.17-1.21 2.19-.89 6.31 1.99.91.64 1.98 1.32 2.39 1.53l.74.37.81-.77c6.23-5.95 16.26-4.95 21.27 2.13 3.76 5.31 3.44 12.42-.79 17.43-1.12 1.33.83 1.2 2.29-.15.46-.43.63-.53.72-.44s-.03.25-.49.69c-1.14 1.08-2.11 1.4-2.89.93l-.37-.21-.61.56c-2.88 2.61-7.18 3.93-11.19 3.43Zm4.67-.43c10.56-2.35 14.61-15 7.35-23.01-8.46-9.34-24.12-3.34-24.13 9.25-.01 7.08 4.72 12.71 11.63 13.85 1.11.19 4.16.13 5.15-.09Zm-18.4-.18c.04-.18.29-.93.56-1.66.27-.72.49-1.36.49-1.41s.07-.15.17-.22c.24-.2.15.13-.55 2.03-.53 1.46-.83 2.03-.67 1.26Zm-6.46-.64c.28-.77.91-3.13.91-3.41 0-.17-.63-.53-.94-.53-.29 0-.31.07-.15.44.09.19.09.29 0 .4s-.1.24-.02.53c.19.67.11 2.36-.15 3.26-.15.51.08.05.35-.69Zm8.55-.22c.03-.09.17-.66.31-1.27.31-1.29 1.1-2.93 1.31-2.72.04.04-.13.51-.39 1.04-.25.54-.55 1.35-.66 1.8-.12.46-.27.94-.33 1.08-.13.28-.32.34-.24.07Zm34.76-.05c0-.09.13-.94.29-1.89.44-2.57.91-6.23.91-7.05 0-.69.11-1 .24-.67.2.53-1.02 9.35-1.35 9.69-.06.05-.09.03-.09-.08Zm1.9.08c0-.11 1.54-2.35 1.62-2.35.16 0 .08.17-.5 1.01-.92 1.35-1.12 1.59-1.12 1.34Zm-40.65-.98c-.26-.61.29-4.63.65-4.75.09-.03.11.01.06.14-.23.59-.35 1.37-.41 2.68-.09 1.64-.17 2.22-.3 1.93Zm39.45-.24c0-.05.07-.36.15-.69.23-.97.64-3.51.71-4.42.07-.88.24-1.23.24-.5 0 1.42-.76 5.68-1.02 5.68-.04 0-.08-.03-.08-.07Zm-35.4-.58c0-.42.36-1.54.56-1.75.2-.2.18-.05-.11.75-.13.39-.25.82-.25.97s-.04.3-.1.33c-.06.04-.1-.08-.1-.3Zm27.97-.31q-.06-.57-.36-1.05c-.3-.48-.28-.64.04-.33.39.39.77 1.94.48 1.94-.06 0-.13-.25-.16-.56Zm-28.62-.15c.16-.71 1.17-2.89 1.35-2.89.15 0 .14.03-.29.88-.21.42-.51 1.12-.66 1.55-.27.76-.53 1.06-.4.46Zm-9.11-2.4c-.42-.12-.56-.31-.58-.79-.01-.68.17-.71.75-.15.92.9.85 1.24-.17.94Zm47.21-.97c-.11-1.53-.1-2 .04-3.17.23-1.85-.06-3.94-.74-5.42-.3-.65-.3-.7-.08-.52.71.59 1.35 3.73 1.13 5.6-.21 1.9-.23 2.27-.1 2.93.12.65.07 1.56-.09 1.56-.05 0-.12-.44-.16-.98Zm-26.35.09c-.48-.68-.51-.89-.35-2.36l.14-1.37-.4-.37c-.52-.51-.51-.67.08-.77l.46-.09.47-2.95c.66-4.18.74-4.47 1.46-5.1.49-.43 1.73-1.01 2.28-1.07.62-.07.67.09 1.47 5.4l.52 3.47h.44c.3 0 .45.05.49.15.1.24-.36 1.95-.55 2.07-.14.09-.16.19-.1.62.16 1.13.12 1.51-.24 1.98-.56.73-.7.58-1.32-1.48-.2-.65-.37-1.19-.38-1.2s-.63-.07-1.37-.14-1.39-.13-1.43-.14c-.04 0-.25.67-.47 1.51-.56 2.16-.75 2.46-1.2 1.84Zm.97-2.04c.2-.78.4-1.46.44-1.51.07-.08 2.46.07 3.05.19.18.04.3.3.69 1.52.54 1.68.49 1.6.7 1.43.38-.31.43-.6.33-1.64-.1-.92-.09-1 .08-1.13.11-.08.27-.46.4-.93l.21-.8h-.43c-.55 0-.49.18-.9-2.47-.54-3.47-.92-5.74-1.04-6.15l-.11-.37-.52.16c-2.36.7-2.44.88-3.42 7.18-.29 1.88-.32 1.95-.84 1.95l-.36.01.39.36.39.36-.12 1.49-.13 1.48.29.45.28.45.13-.3c.07-.17.29-.95.49-1.73Zm-4.61 1.71c-.27-.42-2.12-5.06-2.56-6.41-.18-.56-.19-.44-.09.83.04.63.11 2.15.15 3.37.09 2.66.07 2.7-.82 1.82l-.53-.54-.26-1.95c-.68-5.37-.97-9.2-.7-9.5.23-.25 2.09-1.2 2.35-1.2s.25-.04.6 1.9c.59 3.24 1.68 7.88 1.7 7.2.13-5.64.21-8.2.26-8.34.1-.26 1.39-.13 1.92.2.64.41-.33 10.96-1.12 12.11-.46.67-.7.81-.9.51Zm30.61-1.43c.25-5.19-.03-7.59-1.02-8.94-.53-.72-.44-.81.14-.15 1.04 1.18 1.42 4.09 1.12 8.44-.17 2.29-.34 2.77-.24.65Zm-16.63 1.34c-1.99-.26-2.06-.36-2.44-3.69-.46-4.11-.7-8.59-.46-8.79.44-.36 5.18-.42 5.72-.07.29.2.31 1.26.04 2.2l-.12.39-1.31-.07c-.72-.04-1.5-.1-1.74-.13l-.43-.06v3l.53.07c2.37.3 2.63.43 2.41 1.19-.27.91-.26.9-1.65 1.07l-1.24.15v2.6l1.38.07c2.23.12 2.28.16 1.76 1.29-.44.95-.66 1.02-2.45.78Zm-32.35-.04C1.07 31.8.2 28.91.2 28.53c0-.37.17-.26.25.15.04.2.27 1 .51 1.76.38 1.19.55 2.06.33 1.71Zm15.56-3.27c-.1-1.72-.18-3.38-.19-3.68-.02-.83.21-.72.59.3.18.47.69 1.84 1.15 3.05.94 2.49 1.39 3.55 1.51 3.55.73 0 1.41-4.21 1.75-10.86l.07-1.31-.34-.12c-.18-.06-.56-.14-.85-.17l-.52-.07-.06.74c-.04.41-.1 2.56-.14 4.78-.08 4.37-.13 4.72-.51 3.44-.47-1.57-1.61-6.75-1.92-8.66-.06-.43-.16-.8-.21-.84-.1-.05-1.75.72-2.1.99-.24.18.08 4.15.74 9.38l.22 1.75.44.48c.25.26.47.45.49.43.03-.03-.03-1.46-.12-3.18ZM35.8 31.4c.45-.89.46-.87-.78-.94-.59-.04-1.35-.09-1.69-.12l-.63-.06v-1.49c0-1.73-.13-1.57 1.44-1.78l1.21-.16.19-.53c.23-.66.32-.6-1.26-.84-.73-.11-1.39-.22-1.45-.24-.1-.03-.13-.46-.13-1.75v-1.72l1.53.07c.83.04 1.61.08 1.72.09.39.04.76-1.92.39-2.08-.54-.23-5.06-.16-5.37.08-.35.28.56 10.69.99 11.34.28.44 1.27.69 2.81.72l.73.01zm-34.39.08c-.05-.18-.29-1.06-.51-1.96-.43-1.69-.62-2.26-.8-2.37-.28-.17-.1-.4.3-.37.79.08 1.54-.71 1.84-1.96.24-1 .66-4.91.66-6.2 0-1.14.13-1.49.26-.67.11.78-.36 5.73-.67 6.93-.28 1.1-.97 2.01-1.65 2.18-.2.05-.24.11-.2.28.39 1.39 1.06 4.09 1.06 4.25 0 .32-.17.25-.29-.11Zm1.61-1.64c.03-.6.12-.85.66-1.97 1.04-2.11 1.21-3.23 1.31-8.87.09-4.64.14-4.94 1-5.8 1.12-1.12 2.24-.85 5.38 1.31.82.57 1.8 1.22 2.16 1.44.37.22.66.46.67.53 0 .19-.77-.25-2.74-1.56-2.87-1.92-3.8-2.28-4.79-1.84-1.12.5-1.37 1.46-1.37 5.29 0 5.37-.29 7.42-1.38 9.61-.45.91-.57 1.26-.61 1.79-.09.96-.35 1.02-.29.07Zm4.84.08c-.03-.05.04-.18.15-.28.3-.27.57-.84.73-1.55.15-.6.22-.77.31-.68.09.1-.26 1.44-.49 1.83-.28.49-.62.81-.7.68Zm41.24-2.13c0-1.11-.16-1.93-.52-2.67-.23-.48-.18-.67.07-.29.49.75.82 2.41.66 3.35-.13.86-.21.72-.21-.39Zm-5.1.09c-.31-.51-.26-.63.64-1.58.54-.56.67-.78.95-1.57.19-.51.37-.93.42-.93.49 0-.25 1.82-1.13 2.76-.96 1.05-.93 1.69.05.77.99-.94 1.53-1.18 2.16-.98.3.09.26-.03-.31-.98l-.41-.69.16-.5c.15-.47.15-.54-.02-.98l-.18-.47.27-.79c.36-1.04.56-1.49.76-1.68.3-.31.33-.05.05.52-.78 1.54-.82 2.37-.15 2.88.19.15.34.33.34.42 0 .12-.06.1-.25-.08-.46-.44-.78.5-.36 1.08.46.65.88 1.82.66 1.82-.03 0-.22-.07-.42-.15-.67-.28-1.04-.12-2.15.92-.66.62-.81.65-1.08.21Zm-18.97-.39c.09-.52 1.07-5.02 1.13-5.21.09-.31.33-.2.43.2.29 1.11 1.01 5.06.94 5.12-.04.04-.64.11-1.32.15l-1.24.07zm1.75-.06.54-.06-.07-.31c-.03-.17-.25-1.25-.49-2.39l-.42-2.08-.47 2.23c-.26 1.23-.5 2.33-.53 2.46-.07.25.31.29 1.44.15ZM8.1 25.01c0-.69 1.09-2.66 1.67-3.02.52-.32.52-.14-.01.32-.46.41-.92 1.18-1.31 2.22-.17.45-.35.7-.35.48Zm-.83-.08c-.19-.31.57-2.69 1-3.12.56-.57.69-.45.15.13-.23.25-.44.57-.48.73-.41 1.82-.59 2.4-.67 2.26Zm-5.54-.75c.37-1.62.39-1.75.36-3.88-.03-2.44-.03-3.02.02-7.05.04-3.2-.01-3.54-.82-6.55-.37-1.38-.37-2.95 0-4.3.11-.41.26-.95.32-1.2.29-1.17.3-1.2.61-1.2.35 0 .35-.03-.06.78C1.2 2.7 1.04 4.76 1.69 7.2c.76 2.89.75 2.74.72 10.7-.02 4.15-.06 4.9-.37 5.98-.14.5-.42.77-.31.3Zm39.59-1.96c-.9-.9 0-4.46 1.39-5.47l.33-.25h-.32c-.53 0-.9-.42-1.12-1.3-.1-.41-.21-.83-.25-.92-.04-.1-.03-.18.02-.18.14 0 .43.67.5 1.16.14 1.06.92 1.18 2.27.36.44-.27.95-.56 1.12-.65.57-.29.62-.64.21-1.59-.51-1.18-.66-1.84-.77-3.43-.17-2.35-.14-2.31-2.09-3.6-1.39-.91-2.2-1.68-2.98-2.85-1.07-1.6-.87-1.6.27 0 1.11 1.56 1.54 1.9 3.2 2.5 2.09.77 2.07.72 2.12 3.85l.04 2.4.43.98c.6 1.42.56 1.51-1.14 2.59-2.46 1.56-3.15 2.64-3.15 4.89 0 1.15.04 1.29.36 1.29.39 0 2.01-.66 3.04-1.25 1.61-.91 2.19-1.14 1.96-.76-.13.2-2.77 1.62-3.64 1.95-1.26.48-1.55.53-1.8.28ZM0 21.26c0-.1.11-.36.24-.59 1.09-1.87 1.12-7.85.05-10.16-.38-.83-.42-1.52-.04-.79 1.32 2.53 1.52 8.47.37 10.85-.29.62-.62.97-.62.69Zm39.23-1.38c-.14-.55-.19-.94-.13-.96s.1-.22.1-.43c0-.24.04-.38.1-.34.06.03.1.24.1.46 0 .24-.04.38-.1.34-.14-.08-.13.05.04.51.17.51.29 1.34.19 1.34-.05 0-.18-.42-.3-.92Zm5.28-.86c-1.16-.35-.56-1.39 1.34-2.34 1.74-.87 2.15-1.95 1.5-4.01-.4-1.28-.34-2.22.29-4.22 1.08-3.42 1.48-5.36 1.47-7.17 0-1.29.12-1.68.25-.81.24 1.63-.24 4.36-1.47 8.38-.57 1.83-.6 2.43-.2 3.82.66 2.32.23 3.37-1.8 4.39-1.11.55-1.61.98-1.57 1.33.06.51.71.5 3.06-.04.78-.18 1.45-.29 1.47-.24.18.28-3.71 1.1-4.34.91Zm-5.33-2.31c-.14-.12-.31-.4-.38-.65s-.16-.43-.21-.41c-.1.07-.17-2.56-.07-2.69.15-.19.23.33.23 1.46 0 .65.03 1.18.07 1.18.03 0 .09.14.13.3.04.17.18.44.32.61.31.36.26.47-.09.2Zm9.67-1.05c-.26-.26-.3-.49-.42-2.61-.14-2.46-.06-3.05.88-6.1.88-2.88 1.79-5.05 1.87-4.43.02.15-.11.54-.31.95-1.16 2.29-2.39 7.08-2.22 8.57.04.34.1 1.2.14 1.93.11 1.86.35 2.02 1.66 1.09.7-.5.75-.53.75-.32 0 .07-.34.36-.76.65-.86.58-1.22.64-1.59.27Zm-12.67-.22c-.11-.11-.1-.84.01-.84.25 0 .01-1.45-.36-2.2-.5-.98-.5-1.02-.1-.57.6.66 1.03 2.37.68 2.73-.06.05-.11.29-.13.52-.02.24-.06.4-.1.36Zm13.39-.42c-.33-.37-.57-1.9-.57-3.74 0-1.26.16-.89.24.52.09 1.8.22 2.7.46 3.02.3.41.2.56-.13.2Zm-6.47-.41c0-.77-2-3.23-2.85-3.51-.32-.11-.48-.3-.25-.3.58 0 2.32 1.61 2.87 2.65.35.66.52 1.35.34 1.35-.06 0-.11-.08-.11-.19Zm7.26-1.33c-.02-.13-.14-.68-.25-1.23-.26-1.25-.27-2.46-.02-3.45.21-.79.87-2.46 1.02-2.56.18-.11.09.35-.21 1.04-.67 1.59-.89 2.95-.65 4.17.39 2.06.35 1.95.67 1.95.18 0 .28.05.28.15 0 .27-.79.2-.84-.07Zm-37.13-1.13c-.5-.52-1.24-1.34-1.64-1.82-1.38-1.66-2.02-2.2-4.07-3.41C5.81 5.9 4.87 5.07 3.85 3.7c-.73-.98-.96-1.2-1.25-1.2-.5 0-.89 1.14-.9 2.6 0 .66-.03.81-.11.66-.19-.32-.13-1.85.09-2.43.16-.43.17-.5.04-.46-.18.08-.12-.26.2-.99.49-1.15.81-1.06 1.89.54 1.68 2.5 2.01 2.81 4.25 4.04 1.78.98 2.41 1.49 3.65 2.95.89 1.04 1.68 1.79 1.9 1.79.04 0-.08-.46-.27-1.02-.99-2.94-.94-3.45.93-8.38.15-.39.25-.87.25-1.22.01-.67.22-.81.32-.2.08.44-.12 1.25-.54 2.24-.17.38-.3.72-.3.74 0 .03.24-.3.53-.73s.72-1.02.94-1.32c.23-.3.49-.71.6-.92.1-.22.25-.39.35-.39.24 0 .03.38-1.04 1.91-2.39 3.42-2.52 5.99-.48 9.93.35.69.36.8.1 1.06-.43.43-.76.29-1.77-.75Zm1.64.49c.03-.08-.15-.56-.4-1.07-.98-1.96-1.21-2.82-1.21-4.51-.01-1.43-.01-1.47-.14-.95-.22.93-.1 2.06.37 3.52.84 2.55.18 2.52-2.07-.11C10.24 8.13 9.59 7.6 8.25 6.9c-.88-.45-.87-.44.59.51 1.05.69 1.8 1.41 3.54 3.41 1.61 1.84 2.29 2.34 2.49 1.82Zm27.93-.94c-.36-.22-.71-.4-.77-.4-.07 0-.13-.05-.13-.11 0-.17.48-.02 1.03.31.61.38.57.39.57-.17-.01-1.23-.47-2.48-1.31-3.51-.66-.8-.9-.87-.33-.09 1.07 1.45 1.45 2.88.82 3.11-.92.33-3.59-.78-3.57-1.49 0-.19.01-.18.17.04.41.59.48.63 1.63.92 1.78.44 1.96.4 1.78-.42-.26-1.13-1.2-2.4-3.53-4.74-1.63-1.64-3.77-4.02-4.34-4.82L34.59 0h.23c.15 0 .32.13.5.39.57.8 2.51 2.92 3.73 4.06 4.19 3.93 4.4 4.22 4.66 6.29.18 1.4.04 1.55-.91.96Zm-26.1-.67c-.59-.61-1.4-2.94-1.4-4.07 0-2.69 2.85-5.72 5.92-6.32 1.09-.21 1.5-.16 4.96.6 2.38.53 3.93.78 5.53.91l.75.05-.42-.85C31.56.37 31.46 0 31.66 0c.08 0 .14.06.14.13s.25.63.56 1.26c.52 1.07.61 1.37.32 1.14-.07-.06-.65-.13-1.28-.17-1.43-.08-2.4-.23-5.05-.81-3.72-.82-4.19-.87-5.34-.59-3.4.83-5.85 4.1-5.25 7.01.67 3.26 1.77 3.97 3.24 2.1.7-.9 1.08-1 1.76-.46.47.37.6.2.17-.23-.77-.77-1.38-.68-2.13.31-1.29 1.71-2.04 1.25-2.82-1.73-.4-1.57.08-3.12 1.42-4.59C19.61.96 22.54.52 26.31 2.05c1.19.48 1.91.62 3.58.69 1.22.05 1.47.09 1.65.26.11.1.48.41.82.67 2.06 1.63 2 2.68-.16 2.68-2.01 0-2.64-.84-1.54-2.05.44-.48.33-.52-1.22-.43-1.3.07-1.7-.1-.47-.21 2.06-.17 2.7.07 1.97.75-1.02.95-.49 1.68 1.23 1.69 1.99 0 1.87-.84-.34-2.55l-.63-.48-1.62-.08c-1.47-.07-1.72-.11-2.53-.39-2.22-.79-2.54-.89-3.27-1.04-4.2-.86-8.47 2.71-7.55 6.31.66 2.57 1.29 3.11 2.17 1.88 1.03-1.44 1.94-1.54 2.9-.32.45.57-.14.95-.69.44-.58-.54-.68-.5-1.7.72-.76.92-1.57 1.07-2.21.44Zm19.2-1.59c-.41-.35-1.03-.79-1.37-.97-.35-.17-.63-.35-.63-.39 0-.35 1.45.54 2.55 1.55.76.7.3.54-.55-.19ZM.82 8.43C.33 6.52.2 5.84.2 5.1.2 3.84 1.1.08 1.42.02c.14-.03.13.05-.04.55C.39 3.53.29 5.5.98 8.18c.45 1.75.46 1.82.34 1.82-.05 0-.27-.71-.5-1.57Zm44.03-1c-.19-.48-.53-.73-1.41-1.03-.67-.23-.67-.23.13.29 1.01.65 1.32 1.21 1.35 2.5.02.64.03.6.05-.29.03-.79 0-1.16-.12-1.47Zm-7.65-.04c-.25-.1-.75-.23-1.12-.29-.81-.14-.94-.35-.15-.25.75.09 1.52.32 1.67.5.19.23.1.24-.4.04Zm-25.85-.2c-.16-.11-.7-.41-1.2-.66-.49-.25-.84-.48-.77-.5.25-.09 2.42 1.06 2.42 1.28 0 .13-.11.1-.45-.12Zm38.45.09c0-.21 1.08-3.2 1.19-3.31.28-.28.17.15-.4 1.72-.57 1.52-.79 1.98-.79 1.59Zm-18.82-.52c-.44-.16-.88-.43-.88-.55 0-.19.15-.2.34-.02.55.49 2.03.58 4.02.22.67-.11 1.37-.21 1.57-.21.71 0 .43-.66-.82-1.94C33.08 2.08 31.64 0 32.26 0c.08 0 .14.06.14.14 0 .53.84 1.66 2.67 3.6 1.91 2.01 2.14 2.76.85 2.76-.26 0-.96.09-1.56.2-1.25.23-2.83.26-3.38.06ZM18.1 5.93c0-.29.53-.98.99-1.29.61-.4.71-.23.12.19-.28.21-.65.59-.81.84-.22.34-.3.41-.3.26ZM7.98 5.56C6.73 5.04 5.52 4.02 4.7 2.8c-.24-.36-.62-.9-.86-1.2C3.21.78 2.77 0 2.95 0c.08 0 .26.2.41.45.31.53.41.54.19.02-.18-.43-.18-.5-.04-.45.06.02.27.44.48.94.79 1.92 2.15 3.42 3.83 4.22 1.26.61 1.38.88.16.38ZM5.4 4.95c-.3-.31-1-1.22-1.55-2.03C2.68 1.21 2.59 1.16 2.18 2c-.33.66-.35.82-.07.46.43-.54.87-.35 1.7.77.56.74 1.96 2.27 2.08 2.27.03 0-.19-.25-.49-.55Zm37.15.35c-.06-.1.11-.15.76-.23.62-.09 1.31-.49 2.01-1.18.71-.69.95-.69.32.01-.9.99-2.81 1.86-3.09 1.4ZM14.2 5.13c0-.37.9-1.82 1.61-2.59.97-1.06 1.67-1.97 1.75-2.3.03-.13.13-.24.2-.24.33 0-.5 1.21-1.66 2.4-.7.72-1.13 1.35-1.53 2.22-.23.52-.37.71-.37.51Zm28.69-1.57c-.88-.23-2.55-1.93-3.25-3.28-.28-.53.09-.3.48.3 2.33 3.58 4.07 3.71 6.36.49.72-1.01.7-.97.35-.97-.23.01-.35.12-.68.61-1.34 2.03-3.34 1.98-4.4-.11-.29-.57-.29-.6-.12-.6.07 0 .23.2.34.44.93 1.91 3.01 1.91 4 .01.13-.24.06-.2-.36.22-1.12 1.14-2.33 1.05-3.05-.22-.35-.64-.07-.6.33.04.57.93 1.58.93 2.52-.01l.48-.48.85.01.84.01-.74 1.04c-1.67 2.31-2.57 2.88-3.95 2.5ZM0 3.24C-.01 2.56.72 0 .92 0c.14 0 .16.04.08.22C.95.35.72 1.15.49 2 .03 3.73 0 3.8 0 3.24Zm39.68-.62c-.13-.15-.61-.73-1.06-1.28-.45-.56-.88-1.09-.97-1.18-.13-.12-.13-.16-.03-.16.2 0 1.07.99 2.22 2.53.33.43.22.5-.16.09ZM9.34 2.61c-.46-.21-.63-.4-.45-.51.09-.05.08-.1-.04-.2a.48.48 0 0 1-.15-.32c0-.18.04-.17.35.11.47.41 1.31.44 1.86.07.35-.24.99-1.27.99-1.6 0-.09.07-.16.15-.16.31 0-.11 1.02-.67 1.66-.52.59-1.34.8-2.04.54-.39-.15-.41-.04-.02.16.38.21 1.31.24 1.65.06.12-.07.24-.08.27-.03.21.33-1.27.5-1.9.22Zm-4.31-.34C4.1.47 3.91 0 4.09 0c.06 0 .33.54 1.08 2.12.15.32.03.46-.14.15Zm32.11-.95c-.42-.37-.75-.81-.87-1.14-.12-.34.08-.17.46.38.22.31.41.53.45.5.03-.03-.03-.15-.12-.25-.1-.11-.16-.26-.14-.33.03-.08.13.01.26.22.12.19.2.41.17.48-.02.07.02.15.09.18.15.06.3.34.18.34-.04 0-.26-.17-.48-.38Zm13.96.34c0-.02-.16-.41-.35-.85-.31-.74-.33-.81-.15-.81.11 0 .23.11.29.28l.11.27-.05-.27c-.04-.19-.01-.28.08-.28.1 0 .14.23.16.85.01.47 0 .85-.03.85s-.06-.02-.06-.04ZM5.62.4C5.23.16 5.21 0 5.56 0c.14 0 .23.04.19.1-.03.06.06.15.2.2.36.14.42.13.66-.11.29-.29.44-.19.19.14-.26.33-.7.36-1.18.07Z"/></svg>