<svg xmlns="http://www.w3.org/2000/svg" width="51" height="51" viewBox="0 0 51 51"><path fill="#fff" fill-rule="evenodd" stroke="#fff" stroke-width=".8" d="M15.45 38.96c-1.06-.27-1.64-.82-1.86-1.8-.12-.56-.09-.77 1.61-10.41 1.77-10 2.29-12.83 2.44-13.2.18-.42.72-1.02 1.1-1.23.58-.31 12.86-.4 13.86-.1.54.16.96.53 1.24 1.1.32.65.33.99.01 2.69-.14.74-.25 1.35-.25 1.36s1 .03 2.23.05c3.2.04 3.25.09 2.82 2.66-.53 3.13-.4 3.02-3.66 3.02-1.32 0-2.39.03-2.39.08 0 .04-.18 1.08-.4 2.32-.22 1.23-.4 2.3-.4 2.36 0 .09.57.13 2.18.16 3.27.06 3.28.07 2.72 3.08-.49 2.61-.26 2.44-3.44 2.5l-2.51.05-.17.95c-.54 2.99-.59 3.13-1.32 3.77-.79.69-.55.67-7.26.69-4.58.02-6.17 0-6.55-.1Zm12.35-.26c1.01-.16 1.74-.78 2-1.69.1-.34.6-3.12.6-3.32 0-.05-1.95-.09-4.99-.09-5.62 0-5.37.03-5.62-.78-.12-.42.48-3.76.77-4.19.38-.59.22-.58 5.79-.63l5.1-.05.37-2.1c.2-1.15.4-2.25.43-2.42l.06-.33H27.5c-5.31 0-5.32 0-5.7-.62-.11-.18-.2-.47-.2-.64 0-.51.6-3.55.76-3.87.3-.56.36-.57 5.89-.57 2.78 0 5.05-.01 5.05-.03s.11-.66.25-1.43c.14-.76.25-1.52.25-1.69 0-.51-.43-1.29-.86-1.56l-.39-.24-6.48-.03c-6.86-.03-7.02-.02-7.57.44-.65.55-.56.13-2.9 13.44-.32 1.84-.84 4.79-1.16 6.55-.31 1.76-.57 3.47-.58 3.8-.02 1.08.57 1.76 1.74 2.01.71.16 11.25.19 12.2.04Zm2.74-5.68c.03-.15.19-1.05.36-2.01s.35-1.93.4-2.15c.05-.23.1-.45.1-.49 0-.18-10.04-.03-10.32.15-.33.21-.4.44-.78 2.45-.32 1.7-.3 2.09.12 2.26.07.03 2.37.06 5.1.06l4.96.01zm5.3.09c.18-.2.86-3.26.86-3.88 0-.19-.09-.43-.24-.6l-.24-.28-2.25-.04-2.25-.03-.06.28c-.03.16-.22 1.19-.41 2.29s-.37 2.1-.4 2.23l-.05.22h2.43c2.28 0 2.45-.01 2.61-.19Zm-3.5-10.39c.04-.07.86-4.61.86-4.79 0-.14-9.77-.27-10.12-.14-.43.16-.55.46-.89 2.27-.4 2.09-.33 2.46.49 2.65.39.09 9.6.1 9.66.01Zm5.05-.03c.44-.16.56-.44.85-2.1.32-1.77.33-2.32.07-2.58s-1.34-.35-3.25-.26l-1.54.07-.07.47c-.03.25-.2 1.23-.36 2.16-.17.94-.33 1.85-.36 2.03l-.06.32h2.2c1.35 0 2.32-.04 2.52-.11Z"/></svg>