<svg xmlns="http://www.w3.org/2000/svg" width="51" height="51" viewBox="0 0 51 51"><path fill="#fff" fill-rule="evenodd" stroke="#fff" stroke-width=".504" d="M4.51 42.54c-.4-.29-.49-.73-.78-3.87-.19-2.13-.31-3.07-.39-3.07-.21 0-.24-.29-.24-2.4 0-1.15-.05-2.64-.1-3.32-.06-.68-.13-1.54-.15-1.93s-.17-2.12-.34-3.85c-.64-6.78-.77-6.37 2.1-6.27l1.79.06v-7.23c0-3.97.03-7.77.07-8.44l.06-1.21.64.06c.53.05.63.03.63-.1 0-.09.1-.19.22-.23.18-.05 11.29.04 11.34.09.01.01.05 1.48.08 3.27.05 2.75.22 6.29.3 6.38.18.19 4.45.34 10.41.35l6.7.02-.03.55-.04.55 4.77.43c2.62.24 4.87.47 5 .52.41.16.5.44.7 2.2.02.19.29 2.49.59 5.1.31 2.61.59 5.09.62 5.5s.07.91.09 1.1.07.6.1.9c.02.3.07.78.1 1.05l.09.85c.02.19.07.56.11.82.27 1.68-.04 1.88-3.35 2.14-1.18.09-2.17.18-2.19.2s.02.48.09 1.03c.27 2.11.31 2.09-4.67 2.57-1.53.15-1.83.2-1.83.33 0 .09.05.53.11.97.21 1.5-.05 2.15-.92 2.28-1.05.16-.99.12-.99.68v.5l-2.92-.03c-2.72-.04-2.93-.03-2.96.13-.03.17-.32.18-4.5.15-4.02-.02-4.69 0-6.62.2-1.18.12-3.59.34-5.35.48s-4.05.34-5.08.45c-2.32.25-2.95.25-3.26.04Zm3.35-.29c1.32-.14 3.56-.34 4.99-.45 2.51-.19 5.71-.47 12.7-1.1 1.81-.16 4.18-.37 5.25-.45 2.46-.2 5.51-.52 5.71-.6.4-.15.51-1.2.29-2.59-.13-.84-.42-.72 2.15-.96 4.69-.44 4.39-.29 4.3-2.21l-.07-1.36.64-.07c.34-.03 1.28-.11 2.08-.16 3.16-.24 3 .02 2.56-4.1-.15-1.35-.29-2.83-.32-3.3-.02-.47-.07-.98-.11-1.15-.09-.45-.18-1.29-.27-2.5-.03-.38-.08-.86-.12-1.05-.03-.19-.08-.48-.09-.65-.09-1.21-.17-1.93-.21-2.08-.03-.1-.08-.37-.1-.6-.03-.23-.07-.58-.09-.77-.16-1.42-.35-2.6-.44-2.79-.18-.32-.33-.26-.27.12.03.17.12 1 .21 1.82l.4 3.65c.14 1.18.31 2.8.4 3.6s.24 2.22.35 3.15c.56 4.74.59 5.43.32 5.68-.13.12-.8.21-2.9.4-1.5.14-2.75.27-2.78.3-.03.02 0 .62.06 1.32.15 1.71.47 1.52-3.37 1.88-1.75.16-3.19.3-3.21.32-.01.01.04.68.12 1.49.16 1.55.15 1.7-.12 1.81-.09.04-2.22.24-4.72.46-2.5.21-6.51.57-8.9.79s-6.08.53-8.2.7c-3.48.28-7.05.59-8.65.76-.86.09-.84.13-1.06-2.53-.11-1.26-.35-4.12-.54-6.38s-.44-5.2-.55-6.55-.29-3.3-.4-4.35c-.25-2.37-.26-3.28-.04-3.46.14-.12 3.74.12 5.73.38l.44.06-.06-.99c-.23-3.58-.22-3.64.48-3.64.32 0 .34.06-.34-1.13C6.27 8.03 7.16 2.73 11.08 1.19c.46-.18.47-.18.14-.19-.55 0-1.75.66-2.56 1.41-.86.8-.86.8-.86-.28V1.3H6.7l-.02 2.03c-.01 1.11-.01 4.29 0 7.07s-.01 5.66-.05 6.4l-.08 1.35-.25-.02c-3.09-.18-3.58-.16-3.82.21-.13.19-.08 2.34.08 3.91.18 1.62.23 2.2.3 3.05.07.96.13 1.63.24 2.51.05.48.14 1.74.2 2.8.1 1.97.15 2.59.51 6.34.11 1.16.26 2.73.33 3.51.21 2.29-.02 2.18 3.72 1.79Zm21.15-1.15c.05 0 .09-.07.09-.15 0-.13.39-.15 2.95-.15H35v-.72l-.48.06c-.54.07-3.06.29-5.67.51-.99.08-2.41.21-3.15.27l-1.35.13 2.15.05c1.18.03 2.21.04 2.28.03.08-.02.18-.03.23-.03Zm-22.86-.2c.35-.08.33-.09-.23-.06-.78.05-.67.4-.92-3.09-.11-1.59-.29-3.8-.4-4.9s-.29-3.19-.4-4.65-.34-3.95-.5-5.54c-.34-3.23-.36-3.76-.17-3.76.12 0 3.88.35 4.87.45.3.03.65.08.78.11.12.02.22 0 .22-.05 0-.16-5.97-.76-6.14-.61-.04.05-.03.63.03 1.32.07.67.23 2.4.36 3.83.14 1.43.4 4.49.6 6.8.19 2.31.46 5.55.6 7.2s.25 3.01.25 3.03c0 .05.68 0 1.05-.08Zm1.59-.51c.43-.06.84-.08.91-.06.06.03 1.67-.08 3.56-.24s4.02-.34 4.74-.39c1.22-.09 3.57-.31 6.95-.65.8-.08 2.06-.19 2.8-.25 1.26-.1 4.13-.35 7.14-.62l1.28-.11-.07-1.21c-.04-.67-.09-1.23-.11-1.25-.05-.05-1.82.09-8.19.65-2.14.18-5.2.45-6.8.59l-5.79.51c-3.31.3-3.09.35-3.21-.61-.08-.67.18-.65-3.22-.28l-2.53.28v.3c0 .3.02.31.38.27.28-.02.33-.01.22.07-.08.06-.25.11-.37.11-.25 0-.28.13-.17.68.06.28.08.29.33.21.37-.13 1.94-.28 2.04-.19.05.04-.2.1-.55.14s-.89.12-1.22.19l-.58.12.06.65c.03.36.06.8.06.99v.33l.78-.06c.42-.04 1.12-.12 1.56-.17Zm14.16-.79c1.73-.17 5.51-.51 8.39-.75 2.88-.25 5.26-.47 5.28-.49.09-.08-.21-2.76-.3-2.76-.05 0-.07.22-.03.52.19 1.76.19 2.18 0 2.18-.11 0-1.43.11-2.94.25s-3.83.34-5.15.45c-2.98.24-7.52.68-8.25.79-1.07.17-.11.1 3-.19Zm-7.6-2.8c1.24-.11 3.65-.31 5.35-.45 1.71-.14 5.35-.46 8.1-.7s5.9-.51 7-.6c1.44-.11 6.38-.55 7.23-.65.07 0-.12-2.17-.2-2.3-.06-.09-.07.29-.03 1.01l.06 1.17-.68.06c-.37.04-1.8.18-3.18.31-1.37.13-3.24.29-4.15.35-1.95.13-4.31.33-7 .6-1.07.11-3.34.31-5.05.45-1.7.13-3.75.3-4.54.37-1.14.1-1.45.1-1.49 0-.02-.07-.08-.09-.14-.06-.1.06-.63.14-2.62.39-1.4.17-1.32.2-1.35-.47-.03-.77-.11-.73-.11.06 0 1.06-.16.69-.29-.66-.17-1.85-.61-6.93-.62-7.25-.01-.16-.03-.21-.06-.11-.06.24.62 8.34.73 8.67.03.1.15.12.42.07.2-.03 1.38-.15 2.62-.26Zm-.4-.4c.19-.04.44-.11.55-.15.16-.06.17-.05.05.04-.17.13.29.07 1.12-.14.51-.13.62-.11.26.06-.27.11.1.09 4.37-.26 3.88-.32 7.43-.64 7.75-.7.36-.07 3.38-.32 5.35-.45.94-.06 3.1-.24 4.8-.41 1.71-.16 3.16-.29 3.24-.29.13 0 .12-1.95-.01-2.04-.04-.03-2.33.16-9.38.79-2.78.24-5.95.51-7.05.6-2.31.17-3.78.3-5.94.5-2.43.24-2.49.23-2.69-.25l-.17-.4h-1.47c-1.16 0-2.95.14-3.05.23-.03.03.18 2.62.23 2.86s1 .25 2.04.01Zm-6.15-.21c1.04-.11 2.17-.24 2.5-.27.56-.07.6-.09.58-.32-.01-.14-.05-.64-.08-1.12-.06-.83-.08-.88-.28-.83-.43.09-2.05.24-3.75.36l-1.74.12.07 1.11c.09 1.31.07 1.26.48 1.21.17-.03 1.18-.14 2.22-.26Zm3.6-3.02c-.09-1.06-.24-2.89-.35-4.07l-.31-3.63c-.06-.81-.14-1.45-.17-1.43-.05.06.06 1.58.48 6.31.16 1.81.33 3.75.37 4.3s.09.87.11.72c.02-.16-.04-1.15-.13-2.2Zm-4.85.55c.08-.04.15-.14.15-.22 0-.12.16-.15.85-.15.63 0 .84.03.83.13-.02.08.11.12.41.12.38 0 .43-.03.39-.19-.05-.2.33-.31 1.1-.31.42 0 .42.02.31-1.33l-.07-.77-2.36.06c-1.3.03-2.6.07-2.89.1l-.54.06.07.81c.11 1.38.08 1.33.68 1.32.76 0 .74.28-.03.36-.53.06-.53.06.2.07.41 0 .82-.02.9-.06Zm13.3-.27c1.46-.13 3.82-.34 5.25-.45s3.34-.28 4.25-.36c1.93-.18 4.78-.42 9.7-.84 6.29-.54 8.7-.77 8.77-.83.08-.09-.53-6.09-1.33-12.87-.14-1.18-.3-2.74-.36-3.46l-.12-1.31-.85-.07c-.47-.03-1.99-.17-3.36-.31s-3.6-.34-4.95-.45-3.69-.31-5.2-.45c-1.51-.13-3.63-.32-4.7-.4-1.82-.15-5.15-.43-9.65-.81-1.04-.09-2.03-.14-2.2-.13l-.3.04.03.85c.02.47.12 1.91.22 3.2.11 1.29.27 3.34.35 4.55s.19 2.56.25 3c.05.44.14 1.38.2 2.1s.15 1.75.2 2.3c.06.55.22 2.31.36 3.9.29 3.31.26 3.17.56 3.1.13-.03 1.42-.16 2.88-.3Zm-3.04-.16c-.03-.19-.17-1.62-.31-3.19s-.36-3.95-.5-5.3c-.13-1.35-.31-3.44-.4-4.65s-.22-3.06-.31-4.1c-.35-4.51-.38-5.05-.28-5.15.07-.07.85-.04 2.4.1 1.26.11 4.41.38 6.99.6 13.72 1.18 21.34 1.86 21.4 1.92.04.04.28 2.17 1.01 8.73.82 7.45.92 8.49.84 8.58s-1.54.23-9.05.87c-1.98.17-4.61.4-5.85.5-1.24.11-3.89.33-5.9.5-3.54.29-8.41.74-9.47.86l-.52.07zm4.19-.33c1.6-.15 4.25-.37 5.9-.51s5.34-.45 8.2-.7 5.31-.45 5.45-.46c.14 0 .19-.03.12-.06-.13-.05-.53-.02-5.62.42-1.57.13-3.95.33-5.3.45-4.36.36-7.19.61-9.89.86-1.45.13-2.65.24-2.67.24-.01 0-.05-.38-.09-.85s-.1-.84-.12-.81c-.03.03-.02.45.02.94l.07.89.51-.08c.29-.04 1.83-.19 3.42-.33Zm-7.2.14c.99-.05 1.92-.1 2.08-.1.21 0 .27-.05.27-.21 0-.19-.04-.2-.67-.15l-.68.05.7-.19c.74-.19.67-.23-.4-.22-.43.01-.46 0-.2-.07.17-.05.51-.09.77-.1.42-.01.46-.03.41-.22-.04-.16-.11-.19-.29-.15-.14.04-.24.02-.24-.04 0-.05.12-.1.26-.1.34 0 .29-.31-.06-.41-.24-.07-.24-.07-.02-.08.17-.01.22-.07.22-.26 0-.24-.02-.25-.67-.25-.48 0-.64-.03-.53-.1.08-.05.39-.1.69-.1.5 0 .67-.27.37-.58-.03-.03-4.17.19-4.31.23-.07.02-.07.49.02 1.46.06.79.12 1.52.12 1.63.01.13.06.16.18.12.1-.04.99-.11 1.98-.16Zm4.65-.24c.36-.03 1.1-.1 1.65-.16 4.72-.44 9.67-.87 13.3-1.15 1.05-.08 2.1-.17 2.35-.2.4-.05 4.05-.35 5.95-.5 1.37-.1 5.39-.46 5.41-.48.16-.18-.25-2.02-.46-2.08-.24-.07-.24-.07-.02-.08.27-.01.27.18-.02-2.36-.14-1.15-.3-2.67-.37-3.37-.07-.71-.16-1.28-.19-1.28-.14 0-1.37.59-1.94.94-.33.2-.7.36-.83.36-.32 0-1.2.46-1.32.69-.08.14-.25.19-.75.23-1.02.09-1.91.58-1.27.71.33.07.61.44.39.51-.07.02-.69.09-1.38.15-.69.07-1.97.19-2.85.27s-3.85.28-6.6.44c-2.75.17-6.48.42-8.29.55-1.81.14-3.55.25-3.88.25-.55 0-.58.01-.58.25 0 .23.04.25.4.25.22 0 .4.04.4.1s-.17.1-.37.1c-.6 0-.28.13.5.2l.72.07-.78.02c-.73.01-.77.02-.77.24 0 .47.12.67.39.68l.26.02-.27.04c-.16.02-.28.1-.28.16 0 .18 5.72-.14 9.9-.54 1.22-.12 5.42-.29 5.53-.22.14.09.07.22-.15.25-.13.02.32.02 1-.01 1.04-.03 1.22-.01 1.22.12 0 .12-.22.16-1.13.21-.61.04-1.39.11-1.72.16-.49.08-4.97.31-8.85.45-.8.03-1.41.1-1.82.22-.1.02-.18 0-.18-.06 0-.05.08-.12.18-.14.09-.02.06-.03-.08-.01s-1.07.06-2.08.1c-1.89.07-2.03.12-1.66.53.05.05 3.81-.18 4.89-.3.89-.11 1.74-.09 1.45.03-.19.08-3.28.37-4.5.43-1.75.09-1.92.13-1.86.44.03.14.11.86.17 1.58.12 1.26.13 1.32.33 1.28.12-.02.5-.06.86-.09Zm-8.23-2.13c.66-.16-.03-.33-1.26-.32-.85.01-2.27.15-1.83.18.3.02.28.21-.03.21-.14 0-.25-.05-.25-.11 0-.07-.14-.08-.42-.04-.23.04-.73.11-1.12.16-.44.05.32.06 1.99.03 1.48-.03 2.8-.07 2.92-.11Zm-1.85-.57c2.01-.01 2.08-.02 2.08-.21 0-.34-.15-.48-.46-.41-.16.03-.67.08-1.14.12s-1.03.08-1.25.1-.83.06-1.35.09c-1.43.08-1.6.1-1.6.18v.17c0 .07.28.08.83.03.45-.04 1.75-.07 2.89-.07Zm-2.22-.47c.57-.01 3.58-.27 3.98-.35.12-.02.22-.12.22-.2 0-.1-.06-.14-.14-.11-.32.12-1.14.19-3.28.26-2.34.07-2.45.09-2.34.37.05.13.15.15.54.1.26-.03.72-.06 1.02-.07Zm7.02-.06c-.47-.19.24-.43 1.31-.43.42 0 .53.25.15.33-.13.02.05.05.39.06.34 0 .65-.03.68-.09.03-.05-.01-.1-.09-.1-.23 0-.2-.21.03-.27.15-.04.19-.12.15-.36-.02-.18-.06-.62-.1-.99l-.06-.68h-1.91c-1.06 0-2.08.03-2.27.06l-.36.06.08.86c.13 1.39.09 1.31.74 1.25.58-.06.96.13.56.29-.09.04.05.07.33.07.28-.01.44-.03.37-.06Zm9.58-.02c-.27-.18-.05-.2 2.71-.31 1.5-.05 3.03-.12 3.39-.15s.79-.01.95.04l.3.09-.3.01c-.16.01-1.02.05-1.9.11-.88.05-2.25.12-3.05.15s-1.56.08-1.7.1c-.14.03-.32.01-.4-.04Zm11.8-.31c-.12-.07-.08-.1.15-.11.16-.01.95-.05 1.75-.09.8-.05 2.55-.13 3.9-.19 1.35-.05 2.86-.13 3.36-.16.58-.04.94-.03.98.03.1.16-3.11.38-7.04.47-1.24.03-2.41.08-2.6.1s-.42 0-.5-.05Zm-7.7-.3c0-.1.61-.17 2.25-.25.66-.04 1.85-.13 2.65-.21.8-.07 2.87-.16 4.6-.19 3.36-.06 8.26-.3 9.24-.45.61-.1.72-.08.62.08-.14.23-6.18.61-9.81.62-2.19.01-3.13.05-6.1.29-2.09.16-3.45.21-3.45.11Zm-18.02-.26 1.42-.06v-.47c0-.71-.67-8.41-.74-8.48-.02-.02-4.46-.47-5.44-.55l-.44-.04.07.66c.03.36.17 1.71.3 3 .14 1.29.28 2.71.32 3.14l.08.79.82-.02c.89-.02 2.4.16 2.49.3.07.12-.26.11-1.25-.02-.45-.06-1.1-.08-1.44-.05l-.62.07.04.46.03.46 2.44-.07c1.53-.05 2.44-.04 2.44.02 0 .05-.61.12-1.37.16-3.31.15-3.55.17-3.49.33.03.08.06.23.06.33 0 .2.1.21 4.28.04Zm15.03-1.68c.02-.02.63-.07 1.34-.1.71-.04 1.93-.13 2.7-.21s2.37-.19 3.55-.25c1.92-.1 2.84-.18 4.29-.37.34-.05.42-.03.36.07-.06.09 0 .11.21.06.29-.05 1.1-.09 1.29-.06.06.01.01.06-.1.11-.13.06.16.07.88.04.66-.04 1.07-.02 1.07.04 0 .19.21.17-5.35.46-1.59.08-3.32.17-3.83.2-.82.04-.93.03-.88-.11.05-.13-.01-.14-.37-.09-1.48.2-5.31.36-5.16.21Zm-8.01-.41c0-.13-.28-.15-1.92-.15-2.84 0-3.55.14-1.08.2 1.07.03 2.19.07 2.48.08.4.02.52-.01.52-.13Zm25.06-.34c-.04-.06-.32-.11-.62-.11-.34 0-.53-.04-.49-.1.08-.13 1.05-.13 1.05.01 0 .05.04.08.09.05.14-.09 4.18-.25 4.71-.19.97.11.48.2-1.52.27-1.12.03-2.28.09-2.59.12-.37.04-.59.02-.63-.05Zm-25.2-.23c-.03-.13-.06-.31-.06-.4 0-.17-.18-.18-2.3-.18-1.98 0-2.3.02-2.3.15 0 .12.16.15.88.15.6 0 .82.03.72.1-.08.05-.48.1-.87.1-.58 0-.73.03-.73.15 0 .13.33.15 2.36.15h2.36zm7.49.02c.31-.09 2.05-.2 7.1-.45 1.59-.08 3.46-.2 4.14-.25.87-.08 1.27-.08 1.34-.01.08.08.07.11-.02.11-.07 0-.96.07-1.99.15s-2.88.19-4.12.25-3.06.15-4.05.2c-2.27.12-2.83.12-2.4 0Zm-4.71-.25c-.1-.25.98-.33 14.61-1.05 1.04-.05 2.28-.13 2.75-.16l.85-.07-.6-.17c-.33-.09-1.13-.36-1.79-.6l-1.18-.43-.77.22c-.42.12-.86.24-.98.28-.13.03-.99-.2-2.1-.57l-1.87-.61-.77.4c-.83.45-1.05.5-.95.24.08-.21-9.06.09-9.2.31 0 0 .04.48.1 1.06l.11 1.04.48-.03c.35-.02.49.01.53.13.04.11.19.16.45.16.29 0 .37-.03.33-.15Zm-2.84-1c0-.29-.37-.31-3.27-.18-1.4.06-1.5.07-1.46.25.05.17.2.18 2.39.18h2.34zm24.01-.44c.32-.07.29-.08-.51-.29-1.23-.3-2.63-.08-2.35.38.08.13 2.13.06 2.86-.09Zm-25.18-.01c.88 0 1.07-.03 1.07-.15 0-.17-1.15-.2-3.42-.08-1.04.05-1.28.09-1.28.21 0 .13.18.14 1.28.09.7-.04 1.75-.07 2.35-.07Zm22.28-.36c.25-.23 1.46-.38 2.05-.26.44.1.51.08 1.01-.2.37-.21.72-.32 1.15-.35.53-.05.7-.12 1.03-.4.23-.2.62-.4.95-.49.3-.08.71-.23.9-.34s.77-.41 1.28-.66c.73-.37.92-.51.92-.68 0-.23-.28-2.74-.56-5.07l-.18-1.47-.5-.05c-1.49-.17-2.36-.2-2.36-.07 0 .16-.29.5-.43.5-.05 0-.07-.15-.04-.34l.05-.34-.7-.07c-.69-.06-.72-.06-.93.21-.23.29-.45.26-.45-.07 0-.13-.07-.19-.22-.2-.13 0-.56-.04-.96-.08s-.75-.04-.78 0c-.1.17-.76.2-1.06.05-.17-.09-.41-.16-.54-.16-.12 0-.29-.07-.38-.15-.09-.09-.17-.11-.21-.05-.1.16-.91.12-1.05-.05-.17-.2-.05-.32.15-.15.1.08.31.1.69.06.36-.05.56-.03.61.04s.21.09.48.05c.35-.06.39-.05.33.1-.05.15-.01.16.41.11.82-.1 1.67-.12 1.86-.03.1.04.55.08 1 .08.77 0 3.75.22 4.79.35.43.06.47.09.51.38.03.25.04.23.05-.12.02-.34-.01-.42-.15-.42-.1 0-.56-.04-1.03-.1-.84-.09-3.79-.36-9.4-.84-1.57-.14-3.39-.3-4.05-.36-.66-.05-2.75-.23-4.65-.4-1.9-.16-3.94-.34-4.55-.39-.61-.06-1.41-.13-1.8-.16-1.4-.1-4.21-.36-4.47-.4l-.28-.04.02.77.02.77.03-.67c.02-.38.05-.68.06-.68s.58.06 1.27.14 2.04.22 3 .31c1.95.18 4.69.45 7.53.75 1.04.11 1.93.18 1.98.14.05-.03.12.02.15.11.06.14.24.16 1.51.11 1.4-.04 2.28.02 3.26.25.76.18.4.28-.43.13-.48-.09-1.4-.14-2.54-.14-1.05 0-1.83-.04-1.9-.1-.07-.05-2.64-.34-5.72-.65-3.07-.3-6.1-.6-6.72-.67-.62-.06-1.15-.09-1.18-.05-.03.03.06 1.6.2 3.49.15 1.88.26 3.54.26 3.68 0 .25 0 .25 1 .25.66 0 1.03.04 1.12.12.06.07.3.13.52.13.95 0 1.83.23 1.56.4-.18.11-2.09.09-2.16-.02-.03-.04-.23-.08-.45-.08-.26 0-.42-.05-.45-.15-.04-.11-.21-.15-.58-.15h-.51l.03.55.04.55h2.94c1.89 0 2.94.04 2.94.1s-1.01.1-2.82.1c-2.97 0-3.11.02-3.01.38.06.25.46.27 4.43.27 2.09 0 3.67.22 3.3.45-.11.07-.08.1.13.1.47 0 .3.15-.43.39-.68.23-.81.23-3.48.21-3.67-.04-3.82-.03-3.82.15 0 .16 8.2.21 10.15.06.84-.06.97-.05 1.94.26.57.18 1.15.33 1.28.33s.22.04.19.09c-.03.04.26.17.64.28l.7.21.76-.24c1-.32 1.08-.31 2.69.25 1.52.54 1.8.59 2.06.35Zm-21.33-.32c.08-.06.1-.19.06-.4l-.06-.32h-2.34c-1.29 0-2.34.04-2.34.09s.03.23.06.4l.07.31h2.21c1.21 0 2.27-.04 2.34-.08Zm-.03-1.39c-.03-.27-.08-.64-.11-.83l-.06-.35-.19.5c-.22.59-.41.75-.85.75-.38 0-.43-.08-2.33-3.35-.6-1.04-1.24-2.12-1.41-2.4l-.31-.5.06 1.05c.06.95.36 4.02.5 5.07l.06.42 1.27.04c.7.01 1.76.04 2.35.05l1.08.02zm19.55.07c0-.06.1-.1.22-.1.13 0 1.04-.07 2.03-.15 2.06-.17 3.65-.19 3.65-.06 0 .05-.48.12-1.07.15-.6.03-1.69.11-2.44.16-1.71.13-2.39.13-2.39 0Zm-11.4-.46c.32-.32-.27-.38-3.1-.33-.25 0-1.27 0-2.28-.01-2-.02-1.94-.03-1.86.27.07.24 7 .31 7.24.07Zm3 .08c0-.06.26-.14.58-.17.91-.11 3.15-.45 3.19-.49.02-.02-.12-.07-.32-.1-.57-.11-.38-.36.28-.36.29 0 .3-.01.11-.15-.12-.09-.31-.12-.51-.09-.2.04-.33.02-.33-.04 0-.11.13-.16.7-.27.19-.04.44-.16.56-.26.51-.47 2.1-.79 2.89-.58.52.13.45.13 1.53.04 1.22-.1 1.22.08-.01.25-.8.1-1.02.1-1.55-.04-.67-.17-1.17-.14-1.62.09-.16.08-.4.15-.53.15-.39 0-1.17.63-.86.7.42.1.3.35-.16.33l-.4-.01.34.12c.19.07.37.18.39.24.04.12-.06.15-1.13.36-.92.19-.74.19 1.45.02 2.45-.19 4.04-.24 4.1-.11.03.06-.45.12-1.3.17-.74.03-2.07.11-2.95.17-2.04.14-2.18.14-2.09-.01.05-.08-.07-.09-.47-.05-1.39.17-1.89.2-1.89.09Zm-12.2-.15c-.09-.07-1.03-1.64-2.1-3.49-2.25-3.91-2.26-3.94-2.63-3.84-.24.06-.27.11-.27.49 0 .9.25 4.07.32 4.07.11 0 .11.05-.08-2.23-.25-2.99-.11-2.98 1.61.03 1.35 2.35 2.67 4.65 2.81 4.88.08.12.22.22.32.22.15-.01.15-.02.02-.13Zm25.08-.29c.16-.16 4.2-.19 4.24-.03.02.06-.76.11-2.17.13-1.77.02-2.17 0-2.07-.1Zm-3.13-.28c-.09-.14 0-.16 1.95-.35 2.21-.22 2.14-.22 2.18-.1.01.06-.57.17-1.4.26-2.39.27-2.67.29-2.73.19Zm-1.91-.27c-.25-.06-.51-.16-.57-.22s-.38-.11-.72-.12c-.56-.01-.58-.02-.25-.1.8-.21 1.86-.33 1.93-.22.06.09 2.7-.01 4.32-.16.89-.08 1.46-.01 1.04.13-.47.16-5.36.35-5.57.22-.06-.03-.25-.03-.43.01l-.34.07.5.13c.27.07.72.13.98.13.27 0 .46.04.43.09-.09.15-.81.17-1.32.04Zm-19.75-.8.38-.79-.23-2.38c-.12-1.31-.26-2.84-.3-3.4-.09-1.29-.13-1.39-.63-1.55-.42-.12-.51-.24-.28-.38.38-.23.28-.71-.16-.77-2.09-.32-2.76-4.07-.93-5.21.55-.33 1.36-.4 1.93-.16.4.16.34.31-.13.31-1.58 0-2.2 2.33-.96 3.63.61.65 1.97.91 2.24.43.05-.1.23-.16.43-.16.46 0 .59-.4.53-1.65-.14-3.18-3.65-5.25-5.21-3.07-.22.31-.33.39-.35.28-.1-.48 1.17-1.66 2.07-1.93 2.92-.85 5.87 3.52 4.43 6.54-.2.41-.23.39.8.47l.87.06.07-.47c.03-.27.11-.53.16-.6.06-.07.05-.61-.01-1.44-.06-.73-.11-2.6-.11-4.14V1.03l-3.51.03c-2.71.03-3.62.07-4 .18-3.35 1-4.96 5.18-3.53 9.17.35.98.9 2.07 1.81 3.58.41.68 1.29 2.19 1.95 3.35 1.57 2.76 2.19 3.78 2.24 3.73.03-.02.22-.4.43-.84Zm24.07-.62c-.04-.05-.01-.13.06-.18.19-.12 4.88-.17 4.88-.06 0 .06-.89.12-2.27.15-1.26.03-2.35.09-2.44.12-.1.04-.2.03-.23-.03ZM8.12 18.33l-.32-.04v-1.63c0-2.21.1-3.78.24-3.73.06.02.25.28.41.58l.31.54-.04 2.18c-.02 1.59-.07 2.17-.15 2.15-.07 0-.27-.03-.45-.05ZM43.74 17c-.28-.04-.61-.13-.74-.2s-.4-.1-.64-.07c-.26.04-.5.01-.66-.08-.14-.08-.37-.14-.52-.15-.34 0-.59-.1-.53-.2.06-.09.82-.01 1.07.11.09.05.59.09 1.11.1.85.01 1.62.16.97.2-.35.02.55.17 1.08.18.23.01.42.06.42.11 0 .11-.79.11-1.56 0Zm-18.54-.36c-.63-.08-1.28-.19-1.44-.24-.16-.06-.67-.13-1.12-.17-.46-.03-.81-.1-.78-.14.07-.12 1.71-.11 1.79.01.03.06.24.1.45.1s.41.04.44.09c.03.04.47.12.97.16.51.03.98.09 1.05.12.16.06.08.24-.09.22-.07-.01-.64-.08-1.27-.15Zm12.5-.15c0-.16.66-.39 1.15-.39.32 0 .45-.04.45-.14 0-.33.52-.58 1.05-.51 1.21.14 2.38.16 2.46.03.14-.22 1.59-.1 1.59.13 0 .06-.23.07-.61.03-.45-.05-.63-.03-.69.06-.1.16-2.1.16-2.4 0-.5-.27-1.26.03-1.16.45.05.21.03.22-.38.18-.27-.03-.63.01-.92.11-.56.19-.54.19-.54.05Zm-1.1-4.99c0-.54.3-.51-5.45-.48l-5 .03 3.4.29c1.87.16 3.99.34 4.7.41s1.54.13 1.83.14l.52.01zm-22.38-.47c.04-.61.04-.62-.26-.75-1.73-.71-2.12-3.51-.61-4.35l.4-.23h-.32c-2.51-.01-2.44 4.57.08 5.02l.59.1.01.52c.01.65.06.5.11-.31Zm2.86-.85c.4-.49.54-2.28.27-3.33-.59-2.26-2.7-3.74-4.47-3.16-.69.23-.63.36.13.33 2.41-.12 4.57 3.39 3.51 5.72-.12.27-.22.5-.22.52 0 .1.69.02.78-.08ZM8.5 2.24c.42-.42 1.07-.89 1.53-1.09.3-.13.25-.14-.81-.15H8.1v.49c0 .27-.03.63-.06.8-.08.4.03.39.46-.05Z"/></svg>