<svg xmlns="http://www.w3.org/2000/svg" width="51" height="51" viewBox="0 0 51 51"><path fill="#fff" fill-rule="evenodd" stroke="#fff" stroke-width=".5" d="M15.44 30.31c-.17-.1-.46-.38-.65-.62l-.34-.43-.03-3.63-.03-3.63h2.11v6.5h1.7v-1.32c0-1.19.03-1.38.24-1.83.97-2.05 4.07-2 5.01.09l.22.49.06-.3c.27-1.35 2.42-2.21 3.83-1.53.52.26 1.2.99 1.31 1.43.05.21.1-.34.13-1.63l.05-1.95h1.8l.05 2.13.05 2.13.34-.58c.19-.32.54-.86.79-1.2l.44-.63h.88c1.04 0 1.11.06.72.62-.47.71-1.65 2.72-1.65 2.83 0 .06.43.77.96 1.58.54.82.95 1.53.92 1.58-.07.11-1.65.12-1.8.01-.06-.04-.44-.54-.85-1.11l-.75-1.03-.05 1.08-.05 1.09h-1.8l-.05-1c-.04-.75-.07-.93-.13-.71-.4 1.45-2.38 2.2-3.83 1.45-.54-.28-1.21-1.06-1.31-1.52-.06-.29-.06-.29-.29.18-.93 1.95-3.51 2.23-4.75.52l-.29-.4v1.53h-1.33c-1.11 0-1.37-.03-1.63-.19Zm2.76-.86v-.74l-.97-.03-.98-.03-.03-3.22-.02-3.23h-1.5v6.96l.25.35c.49.66.57.69 1.98.69h1.27zm4.11.4c.89-.63 1.04-.97 1.07-2.56.04-1.6-.08-1.99-.78-2.63-1.1-1-3.23-.63-3.92.67-.39.72-.34 3.06.07 3.72.54.86 1.17 1.17 2.37 1.13.67-.03.82-.07 1.19-.33Zm5.07.19c1.01-.42 1.42-1.23 1.42-2.83 0-1.42-.12-1.83-.7-2.42-1.1-1.11-3.12-.88-3.95.45-.57.93-.48 3.12.17 4.03.61.84 2.04 1.2 3.06.77Zm3.3-1c-.02-.79.01-1.18.08-1.21.06-.02.5.5.98 1.17l.87 1.2h.69c.39 0 .7-.02.7-.05 0-.02-.41-.66-.9-1.42s-.9-1.43-.9-1.48c0-.06.41-.78.9-1.59.49-.82.9-1.51.9-1.53 0-.01-.31-.03-.69-.03-.81 0-.75-.05-1.79 1.6-.32.51-.64.96-.71.98-.08.03-.11-.57-.11-2.22V22.2h-1.4v8h1.41zm5.46.26c-1.92-.45-2.11-3.69-.26-4.31.98-.33 2.72-.1 3.31.44 1.13 1.04.6 3.46-.85 3.86-.44.12-1.72.13-2.2.01Zm2.34-.54c1.17-.61 1.24-2.55.11-3.21-.51-.3-2.45-.3-2.85.01-.76.56-.99 1.74-.5 2.58.46.78 2.26 1.13 3.24.62Zm-18.19-.32c-.21-.23-.24-.36-.27-1.25-.04-.98-.04-.99.26-1.29.46-.46 1.26-.37 1.51.17.23.5.14 2.11-.14 2.38-.35.36-1.02.35-1.36-.01Zm5.53.19c-.38-.15-.6-1.93-.31-2.56.23-.51 1.04-.63 1.44-.22.23.23.25.31.25 1.3s-.02 1.07-.25 1.3c-.23.24-.77.33-1.13.18Zm-4.32-.33c.33-.33.29-1.91-.05-2.25-.28-.29-.64-.32-.94-.07-.34.27-.35 2.07-.02 2.34.3.24.76.23 1.01-.02Zm5.26.06c.16-.12.2-.29.22-1.14.04-.98.03-.99-.23-1.21-.69-.53-1.15-.08-1.15 1.14 0 1.16.5 1.69 1.16 1.21Zm10.83-.16c-.11-.06-.19-.3-.24-.65-.05-.46-.1-.55-.27-.55s-.19.04-.13.23c.19.56.12.92-.18.95-.42.05-.67-.22-.67-.74 0-.34-.04-.44-.2-.49-.11-.03-.2-.13-.2-.21 0-.07.09-.19.2-.26s.2-.21.2-.3c0-.3.68-.25.8.06.07.18.14.22.34.19.27-.06.36.08.52.72.07.3.07.3.21-.18s.36-.68.54-.5c.06.06.06.2 0 .39-.06.16-.15.48-.21.71-.16.62-.39.82-.71.63Zm-.87-.42c-.19-.19-.15-.85.05-.97.14-.08.08-.1-.27-.1-.25.01-.37.03-.27.06.11.03.17.14.17.36 0 .49.11.77.28.77.12 0 .13-.03.04-.12Z"/></svg>