<svg xmlns="http://www.w3.org/2000/svg" width="51" height="51" viewBox="0 0 51 51"><path fill="#fff" fill-rule="evenodd" stroke="#fff" stroke-width=".736" d="M13.12 40.14c-.89-.26-1.48-.83-1.83-1.75-.23-.6-.3-24.75-.08-25.49.19-.64.78-1.31 1.44-1.65l.59-.3 12.2-.03c8.63-.02 12.36 0 12.71.08.91.2 1.8 1.03 2.07 1.93.1.33.13 3.03.13 12.72v12.3l-.21.46c-.55 1.18-1.36 1.71-2.69 1.76-3.13.1-23.96.08-24.33-.03Zm25.13-.39c.67-.19 1.18-.64 1.52-1.33l.28-.57-.01-12.2c-.01-8.77-.04-12.32-.13-12.61-.17-.61-.61-1.15-1.22-1.49l-.54-.3H25.8c-11.65 0-12.38.01-12.82.18-.58.22-1.32 1-1.47 1.53-.19.69-.15 24.69.05 25.26.29.87 1.02 1.52 1.86 1.66.86.15 24.29.03 24.83-.13Zm-22.22-4.32c-.1-.04-.13-2.1-.13-9.82v-9.78l.46-.07c.78-.1 18.6-.07 18.88.04l.26.1v9.7c0 7.68-.03 9.71-.12 9.74-.19.06-19.21.15-19.35.09Zm12-.33h7.17V16.13l-.52-.07c-.7-.08-16.73-.08-17.71 0l-.77.07v19.1l2.33-.06c1.27-.04 5.55-.07 9.5-.07Z"/></svg>