<svg xmlns="http://www.w3.org/2000/svg" width="51" height="51" viewBox="0 0 51 51"><path fill="#fff" fill-rule="evenodd" stroke="#fff" stroke-width=".788" d="M18.03 42.75c-3.41-.92-5.23-3.51-5.54-7.9-.19-2.72-.51-3.84-1.9-6.77-.69-1.44-.8-1.74-.75-2.04.14-.7.51-.7 2.12.01 2.29 1.02 1.85.97 10.04 1.05 7.78.08 8.04.1 9.17.65 2.24 1.1 3.18 4.42 2.06 7.28-.41 1.06-.49 1.12-3.88 3.19-5.35 3.27-6.09 3.71-6.79 4.04-1.36.62-3.26.83-4.53.49Zm3.66-.41c.9-.29 1.3-.52 4.31-2.36l4.05-2.47c2.68-1.64 2.86-1.83 3.2-3.47.57-2.76-.28-5.16-2.16-6.08-1.12-.54-1.61-.57-9.04-.6-8.05-.03-7.81 0-10.74-1.31-1.27-.57-1.55-.19-.86 1.16 1.55 3.05 2.06 4.72 2.25 7.35.32 4.4 1.89 6.85 5 7.83 1.29.4 2.68.38 3.99-.05ZM36.1 33.4c-.24-.24-.23-.13-.25-1.9-.04-3.06-1.2-5.09-3.55-6.23-1.69-.82-1.46-.8-9.05-.81-6.19-.01-6.74-.02-7.29-.19-1.43-.44-2.43-1.23-3-2.38-.44-.88-.53-1.36-.65-3.49-.14-2.53-.5-3.65-1.85-5.77-.81-1.29-.9-1.75-.41-2.27.84-.91 4.93-.99 8.2-.16 3.74.94 11.22 4.53 16 7.67 4.13 2.72 5.34 3.89 6.6 6.41 1.55 3.1.59 6.16-2.68 8.55-1.03.75-1.7.94-2.07.57Zm1.2-.3c1.52-.77 3.17-2.63 3.78-4.28.96-2.59-.68-6.15-3.98-8.66-5.37-4.09-15.06-8.95-19.85-9.96-1.48-.32-4.64-.4-5.82-.15-1.69.36-1.8.79-.68 2.6 1.37 2.2 1.71 3.34 1.85 6.1.16 3.4 1.13 4.74 3.85 5.38.36.09 2.39.12 7.2.12h6.7l.95.33c2.37.82 3.63 2.06 4.42 4.33.31.9.33 1.01.34 2.53.02 2.05.14 2.21 1.24 1.66Z"/></svg>