<svg xmlns="http://www.w3.org/2000/svg" width="51" height="51" viewBox="0 0 51 51"><path fill="#fff" fill-rule="evenodd" stroke="#fff" stroke-width=".755" d="M23.95 37.6c-4.01-.43-8.54-2.78-12.73-6.6-2.02-1.85-4.82-5.02-4.82-5.46 0-.25 1.31-1.87 2.67-3.32 4.07-4.35 9.03-7.47 13.36-8.41 5.09-1.1 10.12.41 15.77 4.75 2.26 1.73 5.46 5.03 6.54 6.75.2.31-.13.81-1.76 2.67-6.04 6.87-12.78 10.28-19.03 9.62Zm3.64-.3c3.92-.5 7.94-2.61 12.19-6.43 1.5-1.34 4.34-4.46 4.73-5.19.24-.44-3.63-4.67-5.96-6.53-8.9-7.11-16.54-7.2-25.45-.31-1.74 1.34-5.76 5.48-6.43 6.63-.11.18 1.41 2.02 3.12 3.77 4.75 4.84 9.37 7.48 14.16 8.09.66.09 2.85.06 3.64-.03Zm-3.48-2.11c-3.47-.4-7.95-2.82-11.6-6.25C11.5 28 9.4 25.71 9.4 25.56c0-.4 3.41-3.76 5.25-5.19 7.11-5.53 13.17-5.93 20.1-1.32 2.58 1.72 7.22 6.03 7.03 6.54-.01.06-.57.69-1.23 1.42-5.32 5.83-11.24 8.78-16.44 8.18Zm3.47-.34c2.93-.48 6.19-2.12 9.36-4.73.94-.77 4.28-4.08 4.46-4.42.13-.25-.37-.89-1.84-2.35-5.55-5.5-11.43-8.04-16.26-7.02-4.24.9-8.87 3.9-12.92 8.4l-.7.77.18.28c.34.53 3.4 3.56 4.39 4.35 4.74 3.8 9.21 5.39 13.33 4.72Zm-.75-2.83c-.16-.1-1.33-2.05-1.33-2.21 0-.08.14-.36.3-.63l.3-.48v-3.2c0-2.44.03-3.21.13-3.27.24-.15 2.37-.09 2.47.07.06.09.1 1.59.1 3.48 0 3.8.06 3.47-.98 5.14-.66 1.07-.8 1.22-.99 1.1Zm.85-1.35c.89-1.47.82-1.06.82-4.87v-3.4h-2.09l-.03 3.18-.03 3.19-.33.52-.32.53.22.36c1.05 1.75 1 1.73 1.76.49Zm-12.16-1.89c-.13-.13-.18-6.24-.04-6.44.08-.13 1.97-.24 2.27-.14.17.06.21.19.25.95l.05.88.53-.87c.62-1.01.71-1.06 1.85-1.05.95.01 1.31.09 1.35.29.02.13-.42.91-1.47 2.56l-.32.52.91 1.56c.53.9.89 1.63.86 1.72-.05.12-.27.14-1.28.12l-1.23-.03-.62-.93-.62-.92-.03.92-.03.93-1.15.03c-.81.02-1.19-.01-1.28-.1Zm6.93-.01c-.03-.07-.04-1.56-.03-3.32l.03-3.2 1.19-.03c.78-.02 1.23.01 1.32.09.19.16.21 6.28.02 6.47-.17.17-2.47.17-2.53-.01Zm6.89-.02a.36.36 0 0 1 .02-.27c.04-.07.48-.77.97-1.56l.89-1.43-.85-1.32c-1.04-1.63-1.11-1.77-1-1.88.14-.14 1.24-.22 1.95-.15l.64.07.55.88.54.88.05-.86.05-.86 1-.08c.67-.06 1.09-.05 1.28.02l.27.11-.02 3.27-.03 3.28-1.14.03c-1.39.03-1.39.03-1.43-.96l-.03-.77-.59.88-.59.87h-1.24c-.99 0-1.25-.03-1.29-.15ZM17.8 27.5c0-.61.04-1.1.08-1.1.05 0 .4.49.78 1.1l.69 1.1h2.16l-.27-.48c-.15-.26-.56-.95-.91-1.54-.5-.84-.62-1.11-.54-1.25.05-.1.46-.76.9-1.47.45-.71.81-1.33.81-1.38s-.48-.07-1.07-.06l-1.08.03-.7 1.12c-.38.62-.73 1.12-.77 1.12-.05.01-.08-.51-.08-1.14V22.4h-2.1v6.2h2.1zm7-2v-3.1h-2.1v6.2h2.1zm7.7 2c.4-.6.76-1.07.81-1.04s.09.52.09 1.1v1.04h2v-6.21l-1.02.03-1.03.03.03.7c.02.39-.01.9-.06 1.15l-.08.45-.16-.25c-.09-.14-.41-.67-.73-1.17l-.56-.93h-1.1c-.6 0-1.09.02-1.09.05 0 .02.43.72.96 1.55l.96 1.5-.9 1.42c-.49.79-.92 1.49-.96 1.56-.06.09.17.12 1.02.12h1.09z"/></svg>