<svg xmlns="http://www.w3.org/2000/svg" width="51" height="51" viewBox="0 0 51 51"><path fill="#fff" fill-rule="evenodd" stroke="#fff" stroke-width=".75" d="M15.57 39.93c-.04-.03-.07-.48-.07-1V38h12.71l-.03.98-.03.97-6.26.03c-3.44.01-6.29-.01-6.32-.05Zm20.98-.07c-5.75-1.32-8.42-7.66-5.25-12.47 2.66-4.06 8.29-4.89 12.08-1.78 3.36 2.76 3.8 8.05.95 11.43-1.87 2.22-5.17 3.42-7.78 2.82Zm-11.27-.16H28v-1.5H15.8v1.63l3.38-.06c1.85-.04 4.6-.07 6.1-.07Zm13.87 0c6.62-.95 9.19-9.11 4.31-13.67-4.43-4.14-11.86-1.79-13.11 4.15-1.13 5.32 3.46 10.28 8.8 9.52Zm-1.38-1.77c-.71-.8-1.66-4.87-1.21-5.24.07-.05.76-.08 1.65-.07l1.54.03-.03.55c-.15 2.93-1.23 5.52-1.95 4.73Zm.75-.59c.5-.89.98-2.88.98-4.07v-.37h-2.83l.07.9c.08 1.1.45 2.58.81 3.31.49.96.56.98.97.23Zm-3.62-.12c-1.27-.75-2.56-2.45-2.91-3.84-.19-.79-.19-.79 1.38-.76l1.38.03.07.95c.09 1.13.31 2.26.63 3.2.29.85.24.89-.55.42Zm5.76-.09c.27-.63.63-2.42.7-3.44l.07-.97.36-.06c.53-.09 2.24-.07 2.39.02.25.17-.21 1.62-.82 2.55-.6.94-2.17 2.27-2.68 2.27-.16 0-.16-.03-.02-.37Zm-5.55-.67c-.27-.88-.51-2.27-.51-2.98v-.58h-2.5l.06.28c.34 1.38 1.38 2.87 2.58 3.68.62.41.62.41.37-.4Zm7.06-.2c.78-.72 1.37-1.61 1.63-2.45.31-.98.37-.92-.97-.89l-1.18.03-.02.35c-.09 1.24-.42 3.03-.69 3.75-.11.29.47-.09 1.23-.79ZM9.9 35.21c-.92-.09-1.33-.38-1.65-1.13-.25-.62-.22-21.16.04-21.73.2-.46.69-.91 1.09-1.03.35-.09 32.09-.09 32.44 0 .4.12.89.57 1.09 1.03.17.37.19.75.19 4.93v4.52h-2v-8.5H10.11l-.01 9.95-.01 9.95 9.03.02 9.03.03.03.98.03.97h-7.98c-4.39 0-8.36.02-8.83.04s-1.14.01-1.5-.03Zm18.08-.98-.03-.78-9.02-.03-9.03-.02V13.12l1.53-.07c.83-.04 7.01-.04 13.72-.01 6.71.02 13.09.05 14.18.05l1.97.01v8.5h1.61l-.03-4.48c-.03-5-.02-4.88-.78-5.39l-.33-.23H9.43l-.33.23c-.81.54-.75-.38-.78 11.32-.03 10.82-.03 10.86.4 11.4.44.56.07.54 10.06.55h9.23zm3.92-3.47c0-1.25 1.72-3.68 3.12-4.41.7-.36.73-.33.48.41-.31.9-.51 1.84-.64 3.07l-.11 1.12-1.43.03-1.42.03zm4.55-.53c.22-2.56 1.16-5 1.78-4.61.32.2.94 1.5 1.17 2.46.2.78.41 2.78.31 2.88-.02.02-.78.04-1.69.04h-1.64zm4.91-.14c-.09-1.18-.3-2.28-.61-3.19-.3-.89-.28-.92.4-.56 1.48.77 3.15 3.11 3.15 4.42V31h-2.87zm-6.73-.19c.09-1.03.32-2.22.57-2.96.21-.61.2-.62-.23-.32-1.42.97-2.44 2.4-2.83 3.93l-.06.26 1.23-.03 1.24-.03zm4.83 0c-.11-1.51-.75-3.62-1.21-4-.52-.43-1.34 1.84-1.59 4.38l-.05.52h2.92zm4.64.82c0-.05-.11-.42-.25-.83-.44-1.28-1.55-2.66-2.65-3.28l-.41-.23.15.36c.24.57.56 2.19.63 3.16l.06.9h1.23c.68 0 1.24-.04 1.24-.08Zm-21.23-2.69c-.17-.17-.08-9.53.1-9.53.45 0 7.75 4.63 7.57 4.8-.42.41-7.58 4.83-7.67 4.73Zm3.16-2.1c4.77-2.99 4.35-2.66 3.79-3.02-2.05-1.35-6.62-4.14-6.68-4.09-.07.08-.09 8.88-.01 8.88.04 0 1.35-.8 2.9-1.77Z"/></svg>