<svg xmlns="http://www.w3.org/2000/svg" width="51" height="51" viewBox="0 0 51 51"><path fill="#fff" fill-rule="evenodd" stroke="#fff" stroke-width=".798" d="M15.49 35.63c-.12-.27-.74-1.72-1.39-3.23-3.55-8.27-5.53-12.88-5.99-13.91-.28-.64-.51-1.21-.51-1.27 0-.09.51-.12 1.84-.12h1.84l.57 1.28c1.2 2.66 5.3 12.17 5.59 12.97.06.15.26-.23.85-1.6.43-.99 1.73-4.03 2.91-6.75 1.17-2.72 2.23-5.16 2.37-5.43l.24-.47 1.85.02 1.85.03.65 1.45c1.05 2.33 5.44 12.58 5.44 12.69 0 .26.19.07.38-.36.92-2.19 5.33-12.36 5.63-13l.38-.83h1.87c1.73 0 1.86.01 1.81.18-.05.18-3.36 7.91-6.22 14.52-.91 2.12-1.73 3.95-1.81 4.08-.15.22-.17.22-1.97.2l-1.82-.03L28.83 29c-1.66-3.88-3.06-7.13-3.1-7.23-.06-.13-.29.32-.9 1.75-.73 1.71-2.3 5.34-4.33 9.98-.37.85-.78 1.77-.91 2.05l-.24.5-1.83.03-1.83.02zm4.19-.88c2.11-4.78 5-11.47 5.66-13.08.1-.26.21-.37.32-.35s1.16 2.35 3.24 7.23l3.09 7.2 1.7.03 1.7.02.2-.38c.22-.43 2.27-5.17 5.58-12.87l2.2-5.13c.04-.1-.29-.12-1.58-.1l-1.64.03-.24.5c-.2.42-1.92 4.38-5.43 12.53-.71 1.65-.81 1.79-.94 1.4-.09-.31-5.31-12.49-5.83-13.61l-.4-.87-1.68.02-1.68.03-.28.58c-.15.32-.61 1.36-1.01 2.3C17.58 32.02 17.59 32 17.5 32c-.04 0-.15-.21-.25-.47-.33-.88-4.73-11.09-5.89-13.65l-.26-.58H9.5c-.88 0-1.6.02-1.6.04s.42 1 .93 2.18c.51 1.17 2.3 5.31 3.97 9.21l3.03 7.07 1.71-.02 1.7-.03z"/></svg>