<svg xmlns="http://www.w3.org/2000/svg" width="51" height="51" viewBox="0 0 51 51"><path fill="#fff" fill-rule="evenodd" stroke="#fff" stroke-width=".433" d="M15 42.06c.41-.38 5.41-2.08 8.13-2.75 4.94-1.23 8.56-1.72 13.04-1.75 2.39-.01 3.14.12 1.58.27-4.94.48-7.44.84-11.45 1.63-2.87.56-7.14 1.57-9.42 2.23-1.91.55-2.11.59-1.88.37Zm7.4-2.01c3.26-.75 5.63-1.21 8.75-1.69 1.26-.19 2.41-.37 2.55-.39s0-.05-.31-.06c-2.67-.06-11.14 1.59-13.84 2.69-.58.24-.71.27 2.85-.55Zm-14.6.11c.2-.2 2.97-1.34 4.45-1.84 6.13-2.06 13.84-3.41 21.25-3.72 3.85-.16 9.66-.08 9.87.14.14.13-.12.17-2.48.31-12.09.75-23.71 2.52-31.46 4.8-1.66.49-1.85.53-1.63.31Zm4.33-1.3c6.61-1.71 16.21-3.12 26.82-3.94l.9-.07-.95-.05c-7.82-.42-21.33 1.59-27.5 4.09-.96.39-.87.38.73-.03Zm-4.88-4.18c-.58-.31-.58-.6.01-3.26 1.38-6.27 1.59-7.49 1.38-7.73-.38-.42.65-.99 1.78-.99 1.07 0 1.19.18 3.34 5.07.65 1.49 1.2 2.7 1.22 2.69.05-.05.71-3.07 1.17-5.34.46-2.28.47-2.33.29-2.53s-.18-.21.12-.49c.97-.86 2.34-.7 2.34.27 0 .19-.23 1.4-.5 2.71-1.23 5.73-1.51 7.19-1.48 7.61.04.56-.55.93-1.51.94-1.3.01-1.42-.16-3.72-5.32l-1.04-2.34-.16.74c-.87 3.93-1.4 6.54-1.36 6.72.02.12.08.29.11.38.22.51-1.38 1.21-1.99.87Zm1.43-.46c.29-.21.3-.25.25-.75-.04-.46.95-5.52 1.48-7.49.18-.69.26-.59 1.17 1.47 2.13 4.83 2.5 5.52 3.12 5.8.72.33 2.06-.01 1.95-.48-.06-.22.55-3.36 1.38-7.17.84-3.81.84-3.86-.19-3.78-.78.07-1.1.33-1.06.86.03.39-.65 3.97-1.29 6.8-.26 1.14-.35 1.42-.48 1.4-.1-.02-.62-1.09-1.43-2.93-2.14-4.88-2.29-5.11-3.33-5.03-.89.07-1.31.35-1.27.85s-.18 1.68-1.09 5.86c-1.01 4.63-.95 4.31-.75 4.62.23.35 1.03.33 1.54-.03Zm12.47-1.78c-2.27-.83-1.91-4.97.63-7.24 1.38-1.24 3.66-1.8 5-1.24 2.54 1.06 1.17 6.54-2.03 8.08-1.16.56-2.69.73-3.6.4Zm2.11-.15c2.54-.46 4.59-3.09 4.59-5.89 0-1.65-.71-2.4-2.29-2.4-3.04 0-5.67 2.72-5.66 5.87.01 1.97 1.18 2.82 3.36 2.42Zm-.53-.8c-1.61-.48-1.14-5.06.65-6.23 1.51-1 2.67-.3 2.65 1.59-.04 3.08-1.52 5.17-3.3 4.64Zm1.33-.38c1.46-.66 2.39-4.93 1.27-5.81-1.08-.85-2.73.53-3.18 2.67-.55 2.58.25 3.89 1.91 3.14Zm6.44.07c-1-.28-1.14-.94-.65-3.03.09-.38.27-1.22.4-1.86.13-.63.27-1.27.3-1.41.06-.23.04-.26-.36-.31-.55-.07-.73-.26-.64-.66.09-.41.58-.81 1-.81.37 0 .41-.07.51-.8.04-.34.03-.55-.06-.65-.18-.22-.06-.42.47-.75 1.2-.76 2.11-.14 1.84 1.25-.12.63-.22.59 1.08.4.61-.09 1.15-.13 1.21-.1.41.26-.44 1.21-1.31 1.47-.3.09-.74.22-.99.3l-.45.13-.49 2.36c-.54 2.59-.54 2.89-.07 2.89.43 0 .9-.19 1.53-.61.79-.53 1.19-.31.83.45-.59 1.24-2.74 2.14-4.15 1.74Zm2.45-.56c.73-.35 1.41-.96 1.51-1.38.1-.38.02-.38-.56.01-.72.49-1.5.71-1.87.53-.41-.2-.37-1.03.16-3.46.51-2.39.42-2.24 1.38-2.46.85-.19 1.56-.55 1.74-.87.17-.32.06-.34-1.09-.16-.59.1-1.11.17-1.15.17-.05 0-.05-.4-.02-.89.11-1.32-.43-1.69-1.47-1-.35.23-.36.24-.31.79.09.94-.09 1.37-.6 1.45-.98.16-1.25.85-.37.95.61.07.61.1.01 2.9-.52 2.38-.59 2.96-.4 3.31.32.6 1.87.65 3.04.11Zm4.5-.54c-3.04-1.11-.86-7.16 3.05-8.48.95-.32 2.02-.26 2.54.14 1.01.77 1.02 2.32.02 3.32-.6.59-.83.67-3.06 1.04l-1.55.25-.03.72c-.03.67-.01.74.27 1.05.59.66 2.67.27 3.33-.63.38-.51.75-.31.63.35-.15.75-1.08 1.62-2.24 2.07-.65.26-2.45.36-2.96.17Zm2.17-.19c1.39-.29 2.78-1.39 2.78-2.2 0-.19-.04-.18-.41.16-.58.52-1.21.77-2.1.82-1.28.09-1.74-.33-1.73-1.6 0-.92 0-.92 1.99-1.26 2.47-.42 2.96-.69 3.3-1.83.66-2.24-1.65-3.12-4.07-1.56-3.18 2.05-4.24 6.87-1.64 7.48.48.12 1.29.11 1.88-.01Zm-1.08-4.63c-.09-.24.5-1.39.98-1.92.94-1.03 2.05-1.06 2.24-.07.17.92-.29 1.46-1.53 1.78-1.42.36-1.62.38-1.69.21Zm1.3-.37c1.36-.32 1.52-.42 1.67-1.07.39-1.76-1.77-1.07-2.56.82-.23.55-.32.53.89.25ZM1.25 13.41c-.64-.04-.86-.09-.75-.16.15-.1 50.07-.08 50.23.02.04.02.05.09.02.14-.07.1-47.9.1-49.5 0Z"/></svg>