<svg xmlns="http://www.w3.org/2000/svg" width="51" height="51" viewBox="0 0 51 51"><path fill="#fff" fill-rule="evenodd" stroke="#fff" stroke-width=".479" d="M17.88 39.29c-3.09-.31-5.63-2.81-6.07-5.95-.19-1.35-.16-15.59.03-16.34 1.11-4.28 5.8-6.54 9.75-4.7 1.8.84 3.07 2.25 3.72 4.12l.28.8.11-.43c.55-2.1 2.42-4.05 4.56-4.75 3.76-1.23 7.78.98 8.91 4.91.29 1.02.32 15.83.04 16.99-1.21 4.81-6.6 6.97-10.65 4.25-1.31-.87-2.23-2.07-2.77-3.57-.15-.43-.29-.7-.32-.62s-.11.33-.18.55c-.92 3.06-4.07 5.07-7.41 4.74Zm2.26-.34c1.21-.25 2.29-.87 3.26-1.85 1.39-1.39 1.86-2.5 2-4.75.18-2.99 1.48-5.05 3.96-6.26 3.55-1.73 8.09 0 9.57 3.66.28.69.25-11.7-.03-12.79-1.09-4.26-6.14-6.35-9.89-4.08-2.13 1.29-3.14 3.06-3.31 5.79-.15 2.49-.95 4.18-2.62 5.48-3.58 2.82-8.59 1.67-10.78-2.46l-.35-.67-.03 5.37c-.04 5.85.02 6.98.44 8.24 1.04 3.14 4.45 5.03 7.78 4.32Zm14-.05c4.13-1.05 6.26-5.85 4.28-9.65-.87-1.66-2.84-3.12-4.74-3.5-4.99-.99-9.37 3.94-7.71 8.68 1.22 3.48 4.67 5.37 8.17 4.47Zm-3.84-3.29-.35-.06-.03-3.03c-.03-3.51-.05-3.42.73-3.42.89 0 .85-.14.85 3.35 0 1.67-.03 3.06-.07 3.08-.17.09-.8.14-1.13.08Zm3.1-.26c-.19-.21-.25-.39-.28-.93l-.04-.67-.71-.73-.72-.73.73-.65c.72-.65.72-.66.72-1.17 0-.86.5-1.43 1.19-1.35.33.04.39.27.4 1.52l.01.99-.35.33c-.19.18-.35.36-.35.39 0 .04.16.25.35.48l.35.41v1.02c0 1.32-.01 1.34-.59 1.34-.38 0-.52-.05-.71-.25Zm-2.12-.75c.02-.41.01-1.75-.03-2.98l-.07-2.22h-.98v6.01l.53-.03.52-.03zm3.12-.26v-1.07l-.35-.43c-.19-.23-.35-.46-.35-.51s.16-.24.35-.43l.35-.34v-1.08c0-1.08 0-1.08-.24-1.08-.59 0-.86.38-.86 1.24v.54l-.62.53c-.35.29-.65.55-.67.56-.03.02.25.34.62.71.66.66.67.69.67 1.2 0 .84.24 1.18.88 1.21.21.01.22-.01.22-1.05ZM20.44 25.2c4.05-1.03 6.17-5.54 4.39-9.34-2.77-5.88-11.4-4.95-12.78 1.38-1.09 4.96 3.42 9.23 8.39 7.96Z"/></svg>