<svg xmlns="http://www.w3.org/2000/svg" width="51" height="51" viewBox="0 0 51 51"><path fill="#fff" fill-rule="evenodd" stroke="#fff" stroke-width=".496" d="M23.53 45.99a10.41 10.41 0 0 1-8.24-9.08c-.55-5.03 2.84-9.88 7.76-11.12.5-.13.81-.25.7-.26-1.88-.3-3.98-1.39-5.45-2.84-3.03-3-3.85-7.81-2.01-11.75 2.42-5.16 8.67-7.33 13.86-4.79 8.41 4.1 7.31 16.49-1.7 19.1-.48.14-.99.25-1.14.26-.14.01.01.07.35.14 5.96 1.31 9.57 7.31 7.88 13.11-1.49 5.16-6.77 8.33-12.01 7.23Zm4.39-.28c3.73-.96 6.5-3.66 7.5-7.31.36-1.32.33-3.98-.05-5.24-.93-3.01-2.89-5.31-5.55-6.53-5.73-2.61-12.37.55-14.04 6.67-.34 1.25-.34 3.98 0 5.15 1.53 5.27 7.05 8.57 12.14 7.26Zm.37-20.65c8.98-2.52 10-14.92 1.55-18.83-2.68-1.23-6.01-1.19-8.68.11a9.7 9.7 0 0 0-2.76 2.02l-.55.58.51-.46c2.22-2.01 5.78-1.24 7.03 1.52.11.25.21.54.21.65.01.16.06.13.32-.18.99-1.22 2.78-1.05 3.5.32 1.21 2.32-1.99 4.41-3.52 2.29-.17-.22-.3-.35-.3-.27 0 .38-.73 1.64-1.25 2.14-.93.91-1.66 1.2-3.05 1.2-1.09 0-1.19-.02-1.83-.32-2.16-1.03-3.18-3.51-2.31-5.68.29-.75.04-.47-.5.55-1.33 2.54-1.48 5.73-.4 8.47 1.19 3.02 3.92 5.33 7.14 6.04 1.28.28 3.6.21 4.89-.15Zm-5.82-9.24c3.1-.97 4.05-4.89 1.72-7.07-1.7-1.59-4.42-1.5-5.97.2-.86.93-1.07 1.5-1.07 2.8 0 1.04.02 1.14.32 1.75.97 1.97 3.04 2.93 5 2.32Zm6.18-2.46c1.51-1.16.78-3.46-1.11-3.46-1.58 0-2.39 1.94-1.32 3.16.64.72 1.7.85 2.43.3Zm-8.43-.04c-.03-.08-.05-.82-.06-1.66l-.01-1.51.43-.03.42-.03v3.29l-.36.04c-.25.03-.38 0-.42-.1Zm1.86.1c-.23-.03-.28-.1-.34-.4-.08-.46-.22-.73-.46-.9-.24-.18-.23-.27.11-.7.21-.26.31-.5.33-.82.03-.44.03-.45.42-.48l.38-.03-.04.65c-.03.45-.1.71-.22.85-.19.2-.19.22-.01.41.2.22.34 1.34.19 1.42-.05.02-.21.02-.36 0Zm-1.3-1.7c.02-1.37.02-1.42-.18-1.42-.19 0-.2.06-.2 1.46 0 1.33.01 1.45.18 1.42.15-.03.17-.19.2-1.46Zm1.46 1.06c-.04-.24-.13-.53-.2-.65-.18-.28-.18-.42 0-.62s.25-1.12.09-1.18c-.06-.02-.14.13-.18.39-.04.24-.18.58-.32.76l-.24.32.24.29c.13.16.27.48.31.7.04.27.11.41.21.41.12 0 .14-.09.09-.42Z"/></svg>