<svg xmlns="http://www.w3.org/2000/svg" width="51" height="51" viewBox="0 0 51 51"><path fill="#fff" fill-rule="evenodd" stroke="#fff" stroke-width=".706" d="m26.18 42.23 3.02-.03.01-.63c0-.34.04-.8.09-1.02.07-.31.08-.17.05.57-.02.54-.06 1.02-.1 1.08-.04.07-1.08.09-3.08.08l-3.02-.03zm14.89 0 3.02-.03.04-.98.03-.97.02 1.03.02 1.02-3.08-.02-3.07-.03zm-33.5-.5c-.04-.03-.07-.6-.07-1.25V39.3h1.2l.02-14.82.03-14.83h33.6l.03 14.82.02 14.82.63.03.62.03v2.4h-6.2l-.03-1.22-.03-1.23h1.21v-11H27.4v11h1.4v2.5h-3.09c-1.71 0-3.12-.03-3.14-.07-.03-.05-.07-.6-.08-1.23l-.04-1.15.63-.03.62-.03V28.3H12.5v10.99l.62.03.63.03v2.4l-3.06.03c-1.68.01-3.08-.01-3.12-.05Zm5.93-1.18v-.95H7.8v1.9h5.7zm15 0v-.95h-5.7v1.9h5.7zm14.9 0v-.95h-5.7v1.9h5.7zm-31.18-6.87.03-5.63 5.79-.03c3.99-.01 5.83.01 5.9.08.08.08.1 1.86.08 5.66L24 39.3h3.1l.02-5.62.03-5.63 5.87-.03L38.9 28v11.3h3.2V9.9H9v29.4h3.2zm.63 4.93c-.03-.1-.03-2.25 0-4.77.03-2.53.05-4.67.05-4.76 0-.1.05-.18.1-.18.07 0 .1 1.72.1 4.95 0 4.55-.04 5.4-.25 4.76Zm14.95-4.76c0-3.23.03-4.95.1-4.95s.1 1.72.1 4.95-.03 4.95-.1 4.95-.1-1.72-.1-4.95Zm-15.55-9.17c-.03-.07-.04-2.72-.03-5.88l.03-5.75h11.8l.03 5.45c.02 3 0 5.64-.03 5.88l-.06.42h-5.85c-4.58 0-5.86-.03-5.89-.12ZM27.1 18.9V13h5.89c4.62 0 5.9.03 5.93.12.03.1.02 10.35-.02 11.5 0 .17-.35.18-5.9.18h-5.9zm15.82 5.5c-.07-1.12-.06-11.77.01-11.37.04.25.06 3.01.04 6.14-.01 3.12-.03 5.48-.05 5.23ZM23.7 18.9v-5.6H12.5v11.2h11.2zm14.9 0v-5.6H27.4v11.2h11.2zm-25.72.37c-.03-5.11-.03-5.27.13-5.27.13 0 .12 10.07-.01 10.15-.06.04-.11-1.68-.12-4.88Zm14.99 4.86c-.11-.11-.08-2.91.03-2.98.07-.04.1.48.1 1.49 0 .86-.01 1.56-.03 1.56s-.07-.03-.1-.07Zm-.07-7.27c0-2.46.06-3.26.22-2.89.08.2-.04 5.73-.12 5.73-.06 0-.1-1.1-.1-2.84Z"/></svg>