<svg xmlns="http://www.w3.org/2000/svg" width="51" height="51" viewBox="0 0 51 51"><path fill="#fff" fill-rule="evenodd" stroke="#fff" stroke-width=".8" d="M16.5 34.95V32.1h5.6l-.02 2.83-.03 2.82-2.77.03-2.78.02zm5.4.01c0-2.34-.01-2.55-.17-2.6-.27-.07-2.2-.07-3.7 0l-1.33.07v5.07h5.2zm-5.38-9.63c.04-5.48.04-5.71.25-6.43 1.29-4.45 4.5-7.01 8.83-7.04 1.67-.01 2.35.13 3.68.75 7.53 3.49 7.16 14.8-.58 17.78-1.51.58-1.82.61-7.25.61h-4.96zm11.03 5.18c4.43-1.25 7.17-5.1 6.92-9.7-.21-3.7-2.4-6.83-5.71-8.15-2.31-.93-5.44-.7-7.52.55-2.37 1.43-3.96 3.85-4.39 6.69-.12.73-.15 2.09-.15 5.93v4.98l5.03-.03c4.86-.04 5.05-.05 5.82-.27Zm-5.63-7.73.03-2.53.28-.55c1.22-2.38 4.15-2.9 5.95-1.07 1.68 1.71 1.43 4.6-.51 5.93-.97.67-1.34.74-3.68.74h-2.1zM26 25c2.89-.55 4.08-4.08 2.07-6.14-1.73-1.76-4.5-1.3-5.59.92l-.33.66-.03 2.19c-.02 1.2-.02 2.24.01 2.31.06.16 3.09.21 3.87.06Z"/></svg>