<svg xmlns="http://www.w3.org/2000/svg" width="51" height="51" viewBox="0 0 51 51"><path fill="#fff" fill-rule="evenodd" stroke="#fff" stroke-width=".488" d="M10.23 47.93C1.23 47.9 0 47.88 0 47.75s1.08-.15 8.97-.16c4.94-.01 8.87-.04 8.73-.06s-.73-.15-1.32-.29L15.31 47H7.66C.92 47 0 46.98 0 46.85s.84-.15 6.97-.15c3.83 0 6.93-.03 6.89-.08-.04-.04-3.18-.05-6.97-.03-6.28.03-6.89.02-6.89-.13 0-.14.4-.16 4.13-.16h4.13l-.47-.5c-.67-.71-.77-1.01-.55-1.59.09-.25.2-.54.23-.63.05-.17-.17-.18-3.71-.18-2.21 0-3.76-.04-3.76-.09 0-.06 1.58-.11 3.79-.13 2.09-.02 3.81-.05 3.84-.08s.08-.2.12-.37l.07-.33H3.91C.5 42.4 0 42.38 0 42.25s.51-.15 3.99-.15h3.99l.06-.22c.03-.13.06-.27.06-.31s-1.82-.05-4.05-.01c-3.73.07-4.05.06-4.05-.09 0-.16.35-.17 4.09-.17 2.63 0 4.12-.04 4.16-.1.04-.07-1.35-.1-4.09-.1-3.63 0-4.16-.02-4.16-.15s.53-.15 4.15-.15c2.28 0 4.15-.03 4.15-.07 0-.05-.09-.19-.19-.32l-.19-.24-3.78.11c-2.09.06-3.87.14-3.96.17-.12.05-.18.02-.18-.08 0-.24.42-.27 4.23-.34 3.22-.05 3.58-.07 3.55-.22-.03-.14-.42-.16-3.78-.17-4.18-.01-4 0-4-.14 0-.06 1.32-.1 3.76-.1 3.52 0 3.75-.01 3.72-.17-.03-.17-.3-.18-3.76-.21C.52 39 0 38.98 0 38.85s.51-.15 3.68-.18l3.67-.02-3.67-.03C.49 38.6 0 38.58 0 38.45s.46-.15 3.51-.15c3.3 0 3.51-.01 3.44-.18-.03-.09-.36-.63-.71-1.19l-.66-1.03H2.79C.38 35.9 0 35.88 0 35.75s.34-.15 2.48-.15h2.47l-.3-.2c-.28-.18-.47-.2-2.47-.2-1.87 0-2.18-.02-2.18-.15s.29-.15 2.05-.15H4.1l-.16-.25-.17-.26-1.88.07c-1.66.06-1.89.05-1.89-.08s.27-.16 1.75-.2c1.94-.05 1.87-.03 1.76-.44l-.07-.29-1.72-.03C.28 33.4 0 33.37 0 33.25c0-.13.27-.15 1.68-.15h1.69l-.09-.58c-.06-.31-.07-.9-.04-1.29l.06-.73H1.65C.26 30.5 0 30.48 0 30.35c0-.12.28-.15 1.66-.17l1.66-.03.18-.7c.1-.39.27-.95.39-1.25s.21-.56.21-.58c0-.01-.92-.02-2.05-.02-1.76 0-2.05-.02-2.05-.15s.31-.15 2.15-.15c2.05 0 2.15-.01 2.25-.2.11-.21.1-.21-2.14-.18-1.59.02-2.26 0-2.26-.08 0-.13 1.62-.24 3.52-.24.82 0 1.29-.04 1.34-.11.05-.08-.62-.1-2.4-.08-1.73.03-2.46.01-2.46-.07 0-.11 2.18-.24 4.11-.24.83 0 .98-.03 1.14-.2.18-.2.17-.2-2.53-.2-1.75 0-2.72-.04-2.72-.1s.32-.11.73-.11c.39-.01 1.8-.05 3.12-.08l2.4-.07-3.13-.02c-2.85-.02-3.64-.09-2.81-.26.17-.03 1.7-.06 3.39-.06 3.51 0 3.18.09 3.69-1l.31-.65-3.85-.03C.53 23.3 0 23.28 0 23.15s.54-.15 3.87-.17c2.98-.02 3.87-.06 3.91-.15.03-.1-.79-.13-3.87-.13-2.54 0-3.91-.04-3.91-.1s.98-.1 2.73-.1c1.49 0 3.23-.03 3.85-.07l1.12-.06v-.87H3.85C.49 21.5 0 21.48 0 21.35s.49-.15 3.8-.15c2.09 0 3.8-.02 3.8-.04 0-.01-.05-.17-.11-.35l-.11-.31H3.69C.48 20.5 0 20.48 0 20.35s.47-.15 3.66-.15c2.89 0 3.65-.03 3.62-.12-.45-1.21-.69-2.13-.61-2.27.09-.14-.05-.16-1.36-.14-4.82.09-5.31.08-5.31-.05 0-.08.2-.12.62-.13 4.61-.1 5.98-.15 5.98-.23 0-.06-1.27-.09-3.3-.07-2.96.02-3.3.01-3.3-.13s.34-.16 3.2-.16c2.27 0 3.2-.03 3.2-.11s-.91-.1-3.2-.08c-2.51.03-3.2.01-3.2-.09 0-.09.37-.12 1.48-.13.81-.01 1.52-.02 1.57-.04.06-.01.79-.03 1.62-.03l1.53-.02v-.33c0-.53.19-1.04.55-1.52l.35-.45H3.55C.46 14.1 0 14.08 0 13.95s.48-.15 3.74-.15c2.39 0 3.77-.04 3.81-.1.04-.07-1.23-.1-3.74-.1-2.1 0-3.81-.04-3.81-.09 0-.14 1.67-.21 4.91-.21 3.12 0 3.79-.08 3.79-.48 0-.03-1.96-.02-4.35.01-3.84.06-4.35.05-4.35-.08s.37-.15 2.73-.16c1.49-.01 3.62-.04 4.72-.08l2-.07.8-.37.8-.37H5.53C.68 11.7 0 11.68 0 11.55s.72-.15 5.85-.15h5.85l1.18-.36C17.16 9.75 20.44 9.52 35 9.51l5.96-.01.32-.65c.18-.36.32-.7.32-.75 0-.07-7.02-.09-20.8-.08C4.36 8.04 0 8.02 0 7.93c0-.1 4.41-.13 20.9-.15 21.93-.03 21.09-.02 21.1-.4 0-.05-9.45-.08-21-.08-13.93 0-21-.03-21-.1s2.96-.1 8.68-.1c13.23 0 33.46-.12 33.55-.19.04-.04-9.45-.05-21.08-.03C1.64 6.92 0 6.91 0 6.76s1.66-.16 21.18-.16c23.05 0 21.27.04 21.56-.48.06-.1-4.16-.11-21.33-.05C1.47 6.13 0 6.12 0 5.97c0-.16 1.5-.17 21.48-.17l21.47-.01.58-.82c.32-.45.69-.96.82-1.12l.24-.3-22.3.03C2.24 3.61 0 3.59 0 3.45c0-.13 2.26-.15 22.38-.15 19.83 0 22.4-.02 22.58-.15.17-.14-2.22-.15-22.39-.09C1.61 3.13 0 3.12 0 2.97c0-.16 1.64-.17 22.65-.17H45.3l.42-.3.41-.3H23.07C2.91 2.2 0 2.18 0 2.05c0-.12 3.1-.15 24.53-.17 26.95-.03 26.67-.03 26.67.18 0 .11-.15.14-.65.14h-.65l.16.25c.14.21.24.25.65.25.37 0 .49.04.49.15s-.13.15-.54.15c-.3 0-.58.04-.61.1-.04.06.17.1.54.1.48 0 .61.03.61.15s-.16.15-.87.15h-.87l-.76.78c-.42.42-.86.92-.99 1.09l-.22.33h1.85c1.59 0 1.86.02 1.86.15s-.28.15-1.93.15c-1.75 0-1.96.02-2.1.18-.38.42-.28.44 1.93.4 1.69-.04 2.1-.02 2.1.09 0 .1-.45.13-2.25.13-1.57 0-2.25.03-2.25.11s.65.1 2.22.08c1.7-.03 2.22-.01 2.26.09.03.09-.5.12-2.36.12h-2.39l-.11.25-.12.25h2.5c2.16 0 2.5.02 2.5.15s-.36.15-2.62.15h-2.63l-.75 1.22c-.41.67-.83 1.36-.93 1.55l-.17.33h3.55c3.18 0 3.55.02 3.55.16 0 .13-.1.15-.47.13-.27-.01-1.91-.02-3.65-.01l-3.18.02-.2.4-.2.4 1.62.02c.9 0 1.68.02 1.73.03.06.02 1.06.03 2.23.04 1.34.01 2.12.05 2.12.11s-1.37.1-3.9.1h-3.9l-.2.32-.2.33 4.07.05c3.13.04 4.07.08 4.11.18.03.09-.74.12-3.63.12-2.41 0-3.64.03-3.6.1.04.06 1.37.1 3.66.1 3.12 0 3.59.02 3.59.15s-.45.15-3.45.15h-3.44l.24.36c.3.44.45.95.45 1.52v.42h3.1c2.69 0 3.1.02 3.1.15s-.43.15-3.17.16c-1.94.01-3 .05-2.73.1.25.04 1.68.08 3.18.08 1.74.01 2.72.05 2.72.11s-1.15.1-3.24.1c-2.79 0-3.25.02-3.3.15s.35.15 3.24.15c2.87 0 3.3.02 3.3.15s-.44.15-3.39.15h-3.4l-.24.33c-.39.51-.89 1.45-.97 1.82l-.08.35h4.04c3.52 0 4.04.02 4.04.15s-.52.15-4.05.15H43.1v.35c0 .21.05.35.13.36.06 0 1.68 0 3.59-.01 1.9-.01 3.67.02 3.92.05 1.18.18.17.25-3.59.25H43.1v1h4.05c3.17 0 4.05.03 4.05.13 0 .09-.86.11-4.05.09-3.63-.03-4.05-.02-4.05.12s.44.16 4.05.16c3.53 0 4.05.02 4.05.15s-.52.15-4.05.15H43.1v.47c0 .41.04.5.4.85l.41.38h3.64c3.16 0 3.65.02 3.65.15s-.46.15-3.27.18l-3.28.02 3.28.03c2.83.02 3.27.04 3.27.17s-.4.15-3.02.15l-3.03.01.3.25.3.26 2.73-.07c2.44-.06 2.72-.05 2.72.09s-.3.16-2.62.16c-2.33.01-2.61.02-2.44.15.16.12.65.15 2.63.15 2.09 0 2.43.02 2.43.15s-.33.15-2.35.15c-2.04 0-2.34.02-2.29.15s.41.15 2.35.15c1.97 0 2.29.02 2.29.15s-.31.15-2.2.15h-2.2l.18.38c.19.37.55 1.42.66 1.95l.06.27h1.75c1.49 0 1.75.02 1.75.15s-.26.15-1.72.15h-1.73V33h1.73c1.35 0 1.73.03 1.7.12-.04.1-.51.14-1.84.16l-1.8.02-.12.33c-.07.19-.12.36-.12.4s.88.07 1.95.07c1.67 0 1.95.02 1.95.15s-.29.15-2.05.15c-1.94 0-2.05.01-2.15.2-.11.2-.08.2 2.05.2 1.84 0 2.15.02 2.15.15s-.32.15-2.28.15c-2.16 0-2.3.01-2.47.2-.18.2-.16.2 2.25.22 1.84.02 2.44.06 2.48.16.03.09-.6.12-2.9.12l-2.93.01-.41 1.22c-.22.67-.44 1.3-.48 1.4-.08.16.12.17 3.33.17 2.96 0 3.41.02 3.41.15s-.47.15-3.59.15c-3.1 0-3.6.02-3.65.15s.39.15 3.59.15c3.18 0 3.65.02 3.65.15s-.49.15-3.84.15c-3.11 0-3.86.03-3.95.14-.17.2.69.26 3.69.26 2.8 0 4.1.07 4.1.23 0 .07-1.35.08-4.1.04l-4.09-.06-.21.27-.22.27 4.31.03c3.74.02 4.31.04 4.31.17s-.57.15-4.27.17l-4.28.03 4.25.05c2.34.03 4.26.07 4.28.08.21.19-.4.22-4.12.22h-4.14l.11.3.11.3h4.03c3.52 0 4.03.02 4.03.15s-.5.15-3.94.15h-3.95l.13.37.13.37 3.64-.03c2-.01 3.72.01 3.82.04.51.21-.14.25-3.57.25h-3.74l.05.73c.07.87-.06 1.34-.49 1.83l-.3.34h4.11c3.59 0 4.11.02 4.11.15s-.86.15-7.02.17l-7.03.03 7 .05c3.85.03 7.01.06 7.03.08.21.19-.67.22-7.56.22l-7.57.01-1.2.29-1.2.28 8.78.01c7.38.01 8.77.03 8.77.15 0 .11-1.7.15-10.67.2-5.88.03-12.79.07-15.38.09s-9.3.02-14.92 0Zm20.12-.33c2.8-.16 9.17-1.79 9.92-2.54.03-.03-.83-1.76-1.02-2.04-.01-.01-.59.13-1.29.33-1.05.28-2.98.65-3.45.65-.19 0-.12-.32.09-.37.44-.12.18-.84-.44-1.22-.44-.27-.52-.26-.32.04.24.37.2.54-.26.97-.27.25-.38.42-.31.45.45.17-.15.4-1.52.58-3.79.51-10.37.4-14.05-.23-.4-.07-.45-.1-.46-.35-.01-.2-.17-.44-.58-.83-.41-.4-.6-.67-.68-.99-.07-.24-.15-.42-.2-.39-.12.08-.1 1.08.04 1.59.19.72.14.72-1.88.21-.98-.25-1.81-.42-1.85-.38-.12.12-1.19 1.85-1.19 1.91 0 .12 1.86 1 2.66 1.26 1.09.36 4.92 1.19 6.19 1.34.96.12 8.64.12 10.6.01Zm-6.7-.3c-1.53-.09-3.62-.34-3.72-.44-.18-.17.24-.17 1.89-.01 2.14.22 6.61.26 8.26.07 1-.12 1.33-.09 1.15.08-.26.26-5.04.44-7.58.3ZM9.89 46c.14-.1.37-.4.51-.67.24-.46.99-1.75 1.28-2.2.13-.21.12-.23-.24-.38-.57-.24-.6-.21-1.28 1.3-.34.77-.73 1.6-.85 1.84l-.23.44.28-.07c.15-.04.39-.16.53-.26Zm-.1-1.81.77-1.74-.55-.33c-.31-.18-.75-.49-.99-.69-.24-.19-.44-.34-.46-.32-.01.02-.2.6-.41 1.29s-.46 1.44-.57 1.68c-.28.68-.01 1.32.82 1.88.46.32.45.32 1.39-1.77Zm13.26 1.95c-2.67-.14-5.54-.51-5.79-.75-.21-.19.07-.21.81-.06 3.22.69 8.03.75 12.88.18 2.11-.25 2.74-.26 2.53-.06-.35.35-7.61.83-10.43.69Zm19.01-.16c-.16-.22-.87-1.64-1.39-2.8-.28-.63-.31-.65-.82-.44l-.34.15.74 1.42c.77 1.49 1.13 1.89 1.74 1.89.23 0 .23-.01.07-.22Zm.84-.08c.81-.81.7-2.92-.24-4.35l-.17-.26-.32.25c-.31.25-1.22.82-1.42.89-.15.05 1.24 3.03 1.63 3.5.19.22.27.22.52-.03Zm-13.7-1.5c.69-.05 1.72-.15 2.29-.21l1.05-.12.59-.61.59-.6-.23-.44c-.2-.35-.21-.44-.1-.51.46-.29 1.71.7 1.71 1.34 0 .42 4.76-1.04 6.05-1.86 1.57-1 3-2.82 3.6-4.6l.33-.96-.49-.17c-1.97-.71-3.65-5.48-2.85-8.11.52-1.71 1.24-2.31 2-1.65.51.46.55.75.13 1.19-1.19 1.24-.83 5.08.6 6.43 1.95 1.84 2.45-3.72.55-6.21-.29-.37-.33-.48-.23-.63.26-.42-.09-1.17-.62-1.34-.34-.1-1.05-.72-1.23-1.06-.26-.5-.17-4.46.12-5.08l.21-.46-1.43.72c-1.67.85-3.65 1.52-5.79 1.99l-1.5.32-.07.44c-.03.24-.07.65-.07.91l-.01.48.33-.06c2.77-.52 6.33-1.82 7.36-2.71.44-.37.51-.4.51-.19 0 .64-3.3 2.13-6.24 2.82-.61.14-1.28.3-1.48.35l-.38.1v.7c0 1.38-.65 2-1.8 1.69-.79-.21-1.05-.57-1.04-1.44v-.76l-.85.08c-3.35.29-10.23.04-13.26-.48-3.73-.64-7.9-2.37-9.04-3.74-.16-.19-.06-.35.13-.21 4.21 3.19 9.38 4.36 18.58 4.21 4.65-.07 4.6-.07 4.56-.54-.02-.3-.12-.43-.53-.75l-.5-.38-1.5.08c-9.68.51-18.41-1.11-21.63-4.02-.76-.69-.79-.53-.2 1.25.9 2.7.72 4.51-.59 5.74-.81.76-.76 1.65.08 1.66.23 0 .26-.03.21-.25-.15-.82 1.07-1.3 1.62-.64 1.97 2.34.16 9.22-2.55 9.65l-.35.06.64.96c.36.54.89 1.46 1.18 2.07 1.2 2.49 2.78 3.51 6.87 4.45 1.11.26 1.1.26.97-.21-.22-.74-.07-1.7.28-1.84.22-.08.39.11.46.56.05.31.21.55.71 1.09.36.38.65.76.65.84 0 .52 7.63.96 11.6.66Zm12.2-3.98c0-.04.19-.26.41-.47 1.17-1.12 1.54-1.91 1.18-2.55-.27-.48-.17-.66.16-.27.38.43.41.86.11 1.46-.43.83-1.86 2.25-1.86 1.83ZM6.68 35.24c1.89-.94 3.15-5.19 2.32-7.87-.34-1.1-.83-1.5-1.38-1.11-.29.2-.28.37.07.72 1.5 1.49.09 7.22-1.78 7.22-1.7 0-1.87-4.34-.25-6.78.26-.4.34-.61.32-.9-.01-.2.01-.47.06-.59.11-.34-.11-.29-.49.11-3.24 3.44-2.32 10.92 1.13 9.2Zm39.52-.1c1.85-1.67 1.62-6.5-.41-8.55l-.52-.54-.08.44c-.07.37-.05.47.16.75 1.29 1.69 1.55 5.61.43 6.62-1.93 1.76-4.1-4.72-2.27-6.79.42-.48.42-.54.06-.95-.41-.44-.8-.19-1.28.83-1.63 3.47 1.61 10.27 3.91 8.19Zm-39.96-.37c2.15-1.6 3.06-5.18 2-7.83-.28-.7-.25-.94.07-.56.78.97.89 3.88.22 5.76-.54 1.53-1.63 2.87-2.33 2.85h-.25zm37.7-.21c-1.66-1.73-2.46-6.21-1.35-7.57.3-.38.31-.2.04.61-.65 1.9.01 4.87 1.47 6.69.59.73.48.93-.16.27ZM6.59 33.55c1.21-1.09 1.86-4.49 1.15-5.98-.16-.33-.18-.34-.64-.29-.26.02-.56-.01-.68-.07-.18-.09-.23-.07-.4.17-1.86 2.64-1.38 7.93.57 6.17Zm-2.76-1.96c.08-1.59.72-3.86 1.16-4.14.25-.15.22.07-.12.87-.43 1.01-.66 2.01-.75 3.32-.05.71-.11 1.01-.21 1.04-.12.04-.13-.15-.08-1.09Zm43.07-.03c0-1.11-.32-2.51-.79-3.43-.28-.56-.3-.73-.1-.73.16 0 .79 1.47.99 2.3.25 1.07.29 2.8.05 2.8-.12 0-.15-.17-.15-.94Zm-13.25-5.61c.56-.23.58-.34.53-2.95l-.03-1.45-.41-.03c-.53-.04-2.73.23-2.85.35-.06.06.14.28.51.56.75.59.82.75.64 1.58-.27 1.27-.15 1.67.61 1.94.51.18.58.18 1 0Zm-3.7-3.91c.4-.04.53-.11.6-.27.17-.39 3.55-.78 3.83-.44.26.31 4.12-.69 6.34-1.65 2.86-1.22 4.06-2.41 3.96-3.93-.09-1.36-1.51-2.86-1.89-2.01-.1.22-.07.28.25.61 1.67 1.66-.11 3.86-4.22 5.24-9.69 3.24-27.55 1.85-30.39-2.37-1.18-1.76-.11-3.19 3.47-4.6 6.16-2.44 20.01-2.6 26.69-.31.78.27.84.26 1.14-.36l.27-.55h-.95c-1.5 0-1.25-.28.29-.32.79-.03.8-.03 1-.37l.2-.34-2.87.04c-1.87.03-2.87.01-2.87-.06 0-.06 1.05-.11 2.9-.13 2.77-.02 2.9-.03 3-.22.13-.24-4.36-.29-7.7-.08-1.02.07-4.54.12-7.85.13-6.65.01-7.03.03-10.25.77-4.77 1.08-8.4 3.3-8.4 5.13 0 2.78 6.21 5.36 14.75 6.14 1 .1 7.75.05 8.7-.05ZM29.1 21c6.19-.44 11.32-1.8 13.25-3.54l.5-.45-.3-.26c-.77-.66-1.33-.77-.82-.15.27.31.43.68.34.77-.03.03-.12-.08-.21-.24-.16-.31-.46-.61-.46-.47-.02.68-1.39.59-2.58-.17-1.04-.66-1.04-.66-.87-1 .2-.37.2-.36-.21-.49-.29-.1-.49-.1-.91 0-1.02.22-1.53-.02-1.26-.59.21-.42.52-.57.95-.45.48.14.49.36.01.28-.32-.05-.42-.02-.62.2l-.24.25.27.07c.14.03.46.01.71-.05.6-.15 1-.14 1.35.04l.28.15.5-1.03c.27-.56.49-1.03.48-1.04s-.57-.18-1.23-.37c-9.8-2.82-25.71-1.53-29.31 2.38-.86.93-.62 2.36.27 1.62.49-.41.81-.45 1.36-.19.39.19.61.12.8-.23.52-.99 1.03-1.41 1.92-1.59.53-.1.49-.25-.04-.2-.36.04-.43.03-.26-.04.12-.05.57-.1 1-.1.56 0 .91-.06 1.23-.2.37-.16.53-.18.93-.1.67.12 2.31-.34 2.21-.63-.06-.2.28-.38.71-.38.13 0 .3-.07.38-.15.2-.19 2.01-.33 2.11-.16.05.08-.16.11-.76.11-.46 0-.9.05-.98.1-.13.08-.12.1.04.1.11 0 .3.1.43.22.39.37 2.44.11 2.13-.27-.29-.35 1.57-.4 1.94-.06.21.19.3.22.71.15.32-.04.43-.09.34-.15-.32-.21.15-.3 1.16-.23.55.04 1.61.08 2.35.08 1.54.01 1.84.11 1.74.52-.06.25-.05.26.36.22.54-.04.67.18.16.28-.51.09-.86-.02-.86-.28 0-.48-.43-.58-1.27-.28-.82.29-1.73.26-1.73-.05 0-.07-.07-.16-.16-.19-.24-.09-1.61-.07-1.46.03.22.13-.08.3-.7.37-.48.06-.58.04-.77-.15-.25-.25-1.31-.32-1.31-.07 0 .43-2.44.75-2.77.36-.14-.16-.3-.2-.81-.2-.57 0-.63.02-.52.15.28.34-1.7.99-2.67.89-.45-.05-.67-.02-.91.1-.17.09-.47.16-.67.16s-.57.08-.83.19c-.26.1-.66.24-.9.3-.38.11-.48.21-.98.96-.59.92-.78 1.02-1.34.7-.43-.24-.81-.18-1.23.21l-.38.35.21.29c1.69 2.37 11.87 4.18 20.2 3.6Zm-7.59-1.41c-1-.17-1.71-.59-1.71-1.03 0-1.18 4.51-1.53 5.67-.44 1.02.95-1.48 1.88-3.96 1.47Zm10.6-.02c-.42-.21-.5-.45-.21-.69.54-.44 2.25-.08 2.05.44-.14.36-1.32.52-1.84.25Zm-7.55-.41c1.37-.42.95-1.11-.84-1.36-1.6-.22-3.62.23-3.62.79 0 .66 2.95 1.03 4.46.57Zm-10.62-1.27c-1.15-.27-1.05-.95.18-1.25 1.56-.38 3.15.45 2.13 1.12-.3.2-1.71.28-2.31.13Zm1.89-.3c.83-.23.19-.77-.93-.78-.51 0-1.42.28-1.48.46-.09.31 1.63.54 2.41.32Zm25.74-1.97c.34-.7.78-1.65.98-2.12 1.19-2.69 4.38-7.8 5.82-9.31.4-.42.73-.81.73-.88 0-.06.13-.11.29-.11.17 0 .33-.04.36-.1.13-.21-.81-.1-1.34.17-1.87.93-3.2 2.83-6.32 9.05l-2.19 4.37.38.06c.2.04.42.08.47.1.06.02.13.04.16.04.03.01.33-.56.66-1.27Zm-11.86 1.07c-1.5-.29-1.02-1.18.64-1.19 1.81 0 2.43.93.8 1.2-.68.11-.83.11-1.44-.01Zm13.48-.3q.36-1.035-.27-1.71l-.39-.41-.32.68c-.38.83-.38.83.24 1.33.61.5.6.49.74.11Zm-1.38-4.12c2.83-5.68 3.42-6.63 5.12-8.23.98-.93 1.59-1.26 2.4-1.32.37-.03.57-.09.54-.16-.17-.56-2.62-.65-3.52-.12-1.69.98-3.15 3.15-6.02 8.94-1.19 2.38-2.14 4.35-2.12 4.36.25.23 1.34.84 1.41.8.05-.03 1.04-1.95 2.19-4.27Zm-10.62 4.12c.28-.06.53-.15.57-.2.19-.31-1.65-.52-2.35-.28-.91.32.62.73 1.78.48Zm-13.46-.8c-.46-.14-.59-.43-.32-.7.43-.43 2.19-.18 2.19.31 0 .4-1.09.63-1.87.39Zm8.47-.99c-.4-.4.01-.7.95-.7s1.4.35.95.72c-.33.27-1.63.25-1.9-.02Z"/></svg>