<svg xmlns="http://www.w3.org/2000/svg" width="51" height="51" viewBox="0 0 51 51"><path fill="#fff" fill-rule="evenodd" stroke="#fff" stroke-width=".452" d="M24.65 43.11c-.88-.54-.94-.8-.95-4.14v-2.79l-2.25 2.19c-1.24 1.2-2.42 2.26-2.62 2.36-1.13.59-2.64-.35-2.63-1.64.01-.78.28-1.11 3.96-4.79l3.54-3.55V27.5h-3.45l-3.5 3.5c-1.93 1.93-3.63 3.59-3.8 3.69-1.52.92-3.3-.73-2.55-2.37.13-.29.91-1.16 2.32-2.6l2.13-2.17L12 27.5c-2.62-.05-2.88-.07-3.19-.25-1.09-.65-1.34-1.97-.53-2.87.61-.68.74-.7 3.8-.77l2.73-.06-2.16-2.23c-2.56-2.63-2.74-2.94-2.26-3.97.33-.72.86-1.05 1.67-1.05.84 0 1.03.15 4.71 3.83l3.53 3.52h3.4v-3.4l-3.64-3.6c-3.97-3.92-3.97-3.91-3.81-4.86.16-.94.78-1.44 1.79-1.44.92 0 .98.04 3.63 2.6l2.02 1.95.03-2.87c.03-3.1.05-3.19.6-3.7 1.04-.98 2.69-.49 3.07.92.07.24.11 1.44.11 3.04v2.63l2.17-2.12c1.19-1.16 2.34-2.2 2.54-2.31 1.5-.76 3.15.68 2.55 2.24-.12.33-.93 1.19-3.71 3.97l-3.55 3.55v3.4l1.67-.01 1.66-.01 3.54-3.49c1.95-1.92 3.69-3.57 3.86-3.66 1.09-.61 2.55.19 2.65 1.45.06.78-.18 1.12-2.5 3.51-1.15 1.18-2.08 2.16-2.08 2.18s.91.02 2.03 0c2.45-.05 3.64.06 4.11.38.94.65 1.15 1.95.44 2.76-.6.68-.63.68-3.75.74l-2.81.05 2.09 2.18c2.2 2.28 2.48 2.67 2.49 3.45 0 1.25-1.4 2.11-2.54 1.57-.18-.09-1.94-1.75-3.9-3.7l-3.58-3.55H27.5v3.35l3.55 3.55c2.38 2.39 3.59 3.67 3.7 3.92.59 1.44-.7 2.97-2.18 2.57-.34-.09-.81-.5-2.72-2.37l-2.3-2.27-.05 2.85c-.05 2.81-.05 2.86-.3 3.28-.48.85-1.77 1.22-2.55.73Zm1.75-.22c.73-.41.74-.47.8-3.88.04-2.24.08-3.05.17-3.08.07-.03 1.2 1.01 2.51 2.31 1.47 1.44 2.5 2.38 2.66 2.42 1.37.34 2.54-.97 2-2.24-.1-.25-1.33-1.56-3.75-3.97l-3.59-3.61v-1.61c0-2.15-.23-1.93 1.98-1.93h1.85l3.54 3.53c1.94 1.93 3.68 3.6 3.85 3.69 1.22.66 2.56-.51 2.17-1.9-.12-.43-2.52-3.07-4.35-4.79-.57-.53-.58-.53 2.44-.53 3.1 0 3.39-.04 3.93-.59.62-.62.65-1.51.06-2.18-.54-.61-.64-.63-3.87-.63-2.05 0-2.9-.03-2.9-.11 0-.06 1.01-1.16 2.25-2.45 1.39-1.43 2.32-2.48 2.41-2.7.53-1.26-.81-2.53-2.12-2.04-.15.06-1.91 1.73-3.91 3.71l-3.64 3.59-1.82-.02-1.82-.03-.03-1.79-.02-1.79 3.64-3.66c3.25-3.27 3.65-3.71 3.76-4.11.37-1.38-1.11-2.51-2.33-1.77-.21.13-1.39 1.21-2.62 2.41-1.24 1.19-2.29 2.15-2.35 2.11s-.1-1.14-.1-3.03c0-2.63-.02-3.01-.18-3.32-.53-1.05-2.2-1.1-2.82-.08-.19.31-.2.51-.2 3.35 0 2.02-.04 3.04-.11 3.08-.05.04-.65-.47-1.32-1.12-2.56-2.5-3.5-3.35-3.83-3.49-1.13-.47-2.24.25-2.24 1.45 0 .79-.04.74 3.92 4.62l3.53 3.47-.03 1.77c-.02.98-.05 1.82-.08 1.87-.03.04-.85.08-1.82.08h-1.76l-3.56-3.55c-2.37-2.36-3.67-3.59-3.92-3.7-1.01-.42-2.01.04-2.28 1.06-.22.81-.1.99 2.41 3.57 1.26 1.3 2.29 2.42 2.29 2.49 0 .1-.59.13-2.9.13-3.23 0-3.33.02-3.87.63-.58.67-.56 1.52.05 2.16.54.57.8.61 3.95.61 1.85 0 2.77.03 2.77.1 0 .06-.99 1.11-2.19 2.34-1.21 1.23-2.26 2.37-2.35 2.54-.72 1.39.55 2.86 2.01 2.31.15-.05 1.9-1.72 3.88-3.7l3.6-3.59h3.72l.07.53c.08.68.08 2.02-.01 2.62-.06.47-.11.52-3.45 3.83-3.49 3.46-3.92 3.95-4.03 4.63-.2 1.17 1.21 2.18 2.28 1.63.17-.1 1.32-1.14 2.55-2.33 2.26-2.18 2.48-2.38 2.6-2.26.04.04.07 1.4.07 3.03 0 2.82.01 2.99.21 3.32.45.78 1.44 1.04 2.24.59Z"/></svg>