<svg xmlns="http://www.w3.org/2000/svg" width="51" height="51" viewBox="0 0 51 51"><path fill="#fff" fill-rule="evenodd" stroke="#fff" stroke-width=".8" d="M19.21 37.49c-2.99-.39-4.98-2.32-5.47-5.28-.38-2.36-.45-10.51-.1-12.77.53-3.5 2.58-5.4 6.26-5.83 2.25-.27 9.82-.2 11.99.1 3.39.47 5.31 2.59 5.72 6.32.14 1.3.06 11.3-.1 12.07-.59 2.83-2.1 4.53-4.66 5.27-.67.19-12.33.3-13.64.12Zm13.29-.33c2.45-.55 3.93-2 4.62-4.56.32-1.19.36-12.49.05-13.83-.59-2.49-2.29-4.19-4.72-4.68-1.66-.34-9.19-.52-11.85-.29-4.48.4-6.4 2.28-6.8 6.65-.23 2.53-.1 9.88.21 11.8.49 3.04 2.55 4.76 6.02 5.05 1.94.16 11.61.05 12.47-.14Zm-12.36-8.58c-.13-.21-.07-5.77.06-5.93.21-.25 7.06-.17 7.04.08-.02.23.09.22.31-.03.26-.29 4.57-.27 4.63.02.02.1-.47.68-1.29 1.52l-1.32 1.36 1.32 1.35c1.79 1.85 1.84 1.75-.93 1.75h-2.23l-.9-.92c-.49-.51-1.17-1.23-1.52-1.59l-.62-.67 1.22-1.28 1.23-1.29-1.18 1.15c-.64.63-1.21 1.22-1.27 1.32-.07.13.19.45 1.31 1.61.77.8 1.4 1.5 1.4 1.56 0 .16-7.16.16-7.26-.01Zm5.74-.15 1.14-.06-1.36-1.36c-.75-.75-1.36-1.41-1.36-1.46s.6-.69 1.32-1.42l1.33-1.33h-6.52l-.07.38c-.08.49-.08 4.26 0 4.86l.07.46h2.16c1.19 0 2.67-.03 3.29-.07Zm5.65-.01.37-.07-1.3-1.3c-.71-.71-1.3-1.36-1.3-1.45 0-.08.6-.74 1.32-1.47l1.33-1.33h-4.2l-1.37 1.37-1.37 1.37 1.42 1.47 1.42 1.47 1.65.01c.91 0 1.82-.03 2.03-.07Z"/></svg>