<svg xmlns="http://www.w3.org/2000/svg" width="51" height="51" viewBox="0 0 51 51"><path fill="#fff" fill-rule="evenodd" stroke="#fff" stroke-width=".523" d="M7.44 50.6C4.11 50.11.91 46.92.51 43.71.36 42.52.36 10.39.51 8.98.89 5.5 3.15 2.16 6.08.77l.67-.32h37.4l.95.4c2.81 1.2 4.96 3.79 5.3 6.41.08.53.1 6.69.08 18.89l-.03 18.1-.31.82c-.9 2.38-2.93 4.36-5.44 5.27l-.85.31-17.95.01c-9.87.01-18.18-.02-18.46-.06Zm35.85-.11c.93-.15 2.17-.57 2.49-.84.15-.12.43-.3.62-.4.5-.25 2.1-1.68 2.1-1.87 0-.04.14-.23.31-.43.46-.52 1.05-1.63 1.36-2.55.21-.65.34-33.73.14-36.36-.24-3.11-2.11-5.66-5.11-6.95-1.42-.61-.91-.6-20.4-.57L7.05.55l-.68.28C3.64 1.93 1.16 5.32.71 8.54.57 9.56.56 43.05.7 44.03c.41 2.81 3.51 5.79 6.68 6.42.88.17 34.86.21 35.91.04ZM19.1 45.94c-.72-.28-.96-.45-1.04-.78-.12-.5-3.03-1.37-6.04-1.81-1.21-.17-4.21-.94-4.71-1.2-.45-.23-.54-.46-.37-.96.16-.46-.04-.91-.45-1.04-.1-.04-.3-.32-.44-.63-.15-.31-.36-.77-.48-1.02-.46-.98-.34-2.03.43-3.68.27-.59.54-1.32.6-1.62.15-.74.47-1.52.8-1.98.44-.61.48-.73.6-1.82.19-1.81.65-3.64 1.53-6.16l.31-.91-.18-.41c-.22-.47-.21-.48.7-1.66.55-.7.61-.86 1.94-5.2.7-2.32 1.16-3.14 1.72-3.16.1 0 .32-.13.5-.28.18-.16.67-.45 1.08-.65 1.14-.56 1.36-.75 1.59-1.35.23-.59.26-.76.12-.67-.25.15-.2-.21.08-.55.22-.27.31-.5.31-.74 0-.46.26-.72.81-.81.72-.12 1.06-.38 1.01-.78-.08-.72.55-1.06 1.99-1.07.46 0 .94-.07 1.2-.16.51-.19 1.79-.24 2-.08.32.25 1.26.47 2.08.48.9.01 1.97.44 2.42.96.09.1.32.22.52.25.43.08 1.15.68 1.48 1.23.3.49.35.52.94.52.65 0 2.3.32 3.72.71 1.19.33 1.49.5 2.69 1.57.32.29 1.04.81 1.59 1.15 1.09.7 1.3.99 2.1 2.95.16.37.52 1.22.82 1.89.67 1.53 1.16 2.88 1.44 3.95.13.54.5 1.4 1.05 2.48.79 1.57.95 2.03.76 2.26-.05.05-.14.36-.21.69-.16.76-1.97 3.71-3.08 5.02-.74.88-1.7 2.27-2.32 3.36-.18.31-.62.94-.97 1.39-.71.9-.73.97-.43 1.39.18.26.2.4.17 1.12l-.05.82-.91 1.37c-.51.76-1.03 1.66-1.17 2.01-.28.69-1.48 2.92-1.72 3.19-.32.36-1.07.4-2.89.18-3.86-.47-9.24-.35-11.28.26-1 .3-1.54.3-2.36-.02Zm2.29-.41c1.27-.55 7.67-.72 11.06-.29 1.37.18 2.33.2 2.67.07.26-.1 1.25-1.83 1.8-3.13.17-.4.48-.98.68-1.28 1.64-2.42 1.91-3.29 1.14-3.7-.49-.27-.32-.78.57-1.77.25-.28.84-1.12 1.29-1.85.96-1.54 1.42-2.18 2.21-3.08.5-.58 2.18-3.12 2.62-3.97.24-.46.22-1.24-.04-1.57l-.21-.27-.43.4c-.58.53-1.94 1.17-2.69 1.26-.33.04-.73.13-.9.2s-.47.18-.66.24c-.28.09-.12.1.81.07l1.17-.04.25.39c.14.21.21.41.16.44-.05.04-.09-.01-.09-.09 0-.23-.22-.31-.36-.12-.12.16-.13.16-.18-.01-.03-.1-.04.05-.01.33.04.56-.14 1.05-.69 1.89-.19.27-.39.69-.47.93-.07.26-.16.39-.21.34-.14-.14.04-.71.38-1.22.33-.5.35-.53.58-1 .13-.27.15-.49.1-.9l-.06-.55h-.8c-.77.01-.8.02-.98.3-.25.41-.31 1.03-.08.89.08-.05.09-.02.05.1-.04.1-.07.27-.07.37 0 .11-.04.18-.09.15s-.11.12-.14.33c-.06.44-.55 1.61-.68 1.61-.05 0-.09.07-.09.15s-.04.15-.1.15c-.11 0-.4.52-.4.71 0 .07.07.04.16-.07.15-.18.15-.18.09.11-.07.33-.25.58-.25.36 0-.08-.07-.19-.16-.25-.2-.15-.09-.46.51-1.33.25-.36.48-.78.5-.92.03-.14.1-.45.15-.69.06-.23.1-.64.1-.9 0-.32.08-.61.25-.9.24-.42.25-.62.04-.62-.05 0-.1.08-.1.18-.01.16-.02.16-.06 0-.07-.29-.2-.21-.27.16-.06.33-.44.92-.53.83-.02-.03.08-.3.22-.62.31-.71.31-.67-.05-.63-.39.04-1.17 1.65-1.85 3.78-.55 1.73-1.15 2.99-1.7 3.6-.66.73-.7.79-.44.73.16-.04.2-.02.17.08-.03.08-.18.16-.34.19-.31.06.92.29 1.73.32.23.01.4.05.37.09-.03.05.09.15.25.24.17.08.34.22.39.31.08.14.11.12.2-.12.06-.16.32-.52.59-.81.27-.28.47-.57.44-.64-.02-.06.01-.09.06-.06s.34-.35.63-.86c.29-.5.57-.96.62-1.02.04-.05.24-.35.44-.65s.47-.66.59-.8c.13-.14.4-.56.6-.95.21-.38.44-.74.51-.78.08-.04.14-.14.14-.21 0-.1.54-1.19.67-1.35.01-.02.06-.02.09.02.09.09-.55 1.58-.83 1.91-.13.16-.33.47-.45.7-.11.22-.4.66-.64.96-.76.97-1.08 1.43-1.68 2.43-.32.53-.61.97-.65.97-.03 0-.2.21-.36.45-.16.25-.33.45-.37.45s-.12.18-.18.4c-.1.39.28 1.24.62 1.38.29.12.08.65-.97 2.31-.4.64-1.05 1.79-1.44 2.57s-.83 1.56-.96 1.74c-.19.26-.22.37-.14.53.08.15.08.22-.02.29-.16.11-3.58.02-4.34-.12-.56-.1-7.88-.13-8.57-.04-.32.04-.47.12-.54.27-.28.63-3.19.32-3.19-.34 0-.33-.31-.5-1.8-.99-1.87-.61-3.54-1.04-4.6-1.19-1.83-.26-3.4-.67-4.18-1.09-.49-.26-.66-.22-.67.14 0 .26 3.06 1.13 4.9 1.39 3.25.46 5.96 1.32 6.23 1.98.14.32.66.62 1.42.81.32.07 1.15-.04 1.54-.21Zm13.01-.98c0-.34-.79-1.15-1.12-1.15-.37 0-1.08-.22-1.08-.34 0-.05.15-.05.32-.02.88.19.98.19.98.02 0-.09-.01-.16-.02-.17-.02 0-.37-.02-.78-.05-.41-.02-1.14-.09-1.62-.14-2.54-.27-9.82.23-10.43.72-.36.28-.31.43.08.2.48-.29 3.85-.88 3.62-.64-.05.06-.57.18-1.15.27-1.57.25-2.12.4-2.58.69-.42.26-.61.57-.22.36.12-.07.34-.07.62-.01.24.05 2.5.1 5.03.1 2.53.01 4.98.05 5.45.1.99.1 2.9.13 2.9.06Zm-14.56-.77c.07-.44.06-.48-.13-.48-.12 0-.21-.03-.21-.07 0-.05-.19-.09-.43-.1-.23-.01-.67-.09-.97-.18-.3-.08-1.25-.31-2.1-.5s-1.68-.39-1.85-.44c-.43-.15-1.44-.31-2.6-.41-.55-.05-1.4-.16-1.9-.24-1.53-.25-1.17-.02.6.38.61.14 1.55.32 2.1.41 1.12.17 3.75.88 5.29 1.4.55.19 1.02.35 1.03.35s0-.07-.03-.15c-.08-.19-.04-.19.46.01.22.09.45.25.51.36.14.25.15.23.23-.34Zm15.81-1.74c.44-.87 1.07-2.06 1.4-2.64 1.02-1.79 1.08-1.96.7-2.06-.14-.03-.25-.12-.25-.19 0-.08-.05-.26-.1-.41l-.11-.27-.24.23c-.31.29-.31.38 0 .46.34.08.32.16-.22 1.03-.56.92-.51.86-.6.78-.07-.08.27-.75.59-1.16.19-.25.24-.61.08-.61-.19 0-.73.92-.59 1.01.11.06.1.11-.04.27-.09.1-.17.23-.17.28 0 .06-.11.25-.25.44-.25.34-.25.6.01.39.09-.07.14-.08.14-.01 0 .06-.04.13-.09.16-.04.03-.11.2-.15.37-.04.22-.1.3-.21.25-.1-.03-.2.05-.31.27-.09.18-.22.39-.29.47s-.21.35-.31.6c-.09.25-.26.55-.37.68-.17.18-.18.22-.05.22.17 0 .58-.74.58-1.03 0-.1.05-.14.14-.11.1.04.21-.1.37-.45.12-.28.25-.51.3-.51.14 0 .11.12-.18.6-.45.78-.83 1.6-.83 1.8 0 .11-.07.2-.15.2-.2 0-.19.19.02.42.26.29.33.2 1.18-1.48Zm-11.62 1.29c.04-.06.48-.13.98-.15.5-.03.94-.1.98-.14.07-.11 5.15 0 5.74.11.63.13.41.25-.3.17-.89-.09-5.55-.07-6.62.03-.55.05-.82.04-.78-.02Zm-4.34-.41c-.06-.09-.3-.26-.52-.36-.23-.1-.49-.22-.57-.27-.59-.35-.98-.51-1.9-.78-1-.3-2.91-.71-3.92-.86-.3-.04-.48-.11-.48-.19 0-.15-.05-.16-1.44-.41-.89-.15-.89-.15-1.13.07l-.24.23.27.07c.15.04.33.03.38-.01.06-.05.4-.06.76-.02.5.05.6.09.42.15-.13.04-.45.05-.72.01s-.5-.03-.54.03c-.03.05-.28.08-.56.06-.48-.03-.69.09-.32.2.59.16 1.4.27 1.71.22.42-.06 2.77.34 3.33.57.2.08.62.2.95.27 1.23.24 2.79.63 2.9.72.06.05.31.11.55.13.54.05.68.08.93.23.26.15.27.15.14-.06ZM21 41.63c1.54-2 2.66-3.26 3.39-3.81.17-.13.31-.28.31-.33s.15-.22.33-.38c.42-.39.41-.39-1.38-.99-1.94-.66-4.71-1.15-6.16-1.1l-.96.03-1.34.89c-.74.5-1.59 1.1-1.9 1.34-.31.25-.72.5-.9.56-.34.11-.34.12-.31.7.03.65-.14.95-.52.97-.14 0-.07.06.19.15.22.08.5.12.62.09s.28.01.35.08c.17.16.94.39 1.33.39.16.01.35.07.43.14.07.08.23.14.35.14.81.01 3.98.95 4.23 1.26.06.08.16.14.21.14.06 0 .27.16.47.35.49.46.41.49 1.26-.62Zm3.55.51c1.81-.02 2.53-.06 2.95-.18.3-.09.78-.16 1.07-.16.28 0 .55-.04.58-.1.03-.05.19-.1.35-.1s.32.05.35.1c.04.06-.07.1-.27.1-.18 0-.4.05-.48.11-.11.07.12.08.8.04.76-.05 1.05-.03 1.45.1.55.19 1.55.16 1.81-.06.19-.16.3-.04.14.16-.22.26.07.17.4-.12.26-.25.91-1.61 1.32-2.78.34-.98 1.16-2.4 1.6-2.78.4-.34.29-.45-.46-.45-.28-.01-1.09-.06-1.81-.13-2.75-.25-7.75.29-7.75.84 0 .07-.22.23-.49.36-.54.24-.88.54-.52.44.12-.03.21-.1.21-.16s.03-.07.06-.04c.08.08-.45.87-.57.87-.14 0-.11-.12.08-.32.09-.1.11-.18.05-.18-.19 0-2.31 2.32-3.21 3.5-1.12 1.49-1.1 1.43-.54 1.18.44-.19.68-.21 2.88-.24Zm-16.1-2.52a.2.2 0 0 0-.1-.24c-.36-.21-.81-1.49-.7-2.05.09-.47.25-.41.25.1 0 .9.56.91.84.02.09-.3.21-.57.26-.6s.06-.21.03-.4c-.04-.23-.02-.35.06-.35.06 0 .11.06.12.13.01.06.04.01.08-.13s.13-.24.19-.22c.07.01.12-.03.12-.1 0-.06.08-.01.19.1.1.12.23.22.28.22.06 0 .17.19.26.41.15.37.19.41.43.35.26-.07.26-.07.2.39-.06.36-.04.45.07.45.08 0 .18.12.21.28.36 1.47.41 1.33.41-1.2v-2.13l-.28-.44c-.16-.24-.31-.59-.34-.78-.04-.24-.08-.3-.14-.21-.06.08-.09-.01-.09-.26 0-.29.03-.37.11-.29.14.14 1.08-.87 1.4-1.49.12-.24.54-.97.94-1.63.99-1.64 1.48-2.59 1.35-2.63-.15-.05-.12-.32.04-.32.1 0 .13-.12.1-.48-.01-.26-.01-.37.02-.24l.05.23.2-.25c.23-.3.24-.36.02-.36-.09 0-.4-.08-.69-.17-.75-.23-.86.05-.16.4.15.07.29.25.34.41.1.39.02.46-.13.12-.18-.4-.47-.34-.54.12-.07.42-.43 1.33-.8 2.05-.29.54-.32.77-.1.77.23 0 .18.17-.19.57-1 1.09-1.38 1.65-1.4 2.07-.01.21-.36.32-.36.12 0-.39.73-1.52 1.46-2.26.2-.21.23-.32.18-.57-.05-.24 0-.43.18-.75.14-.24.31-.61.38-.83s.19-.49.26-.6c.22-.31.18-1.12-.06-1.27-.23-.15-.27-.33-.06-.25q.15.06.09-.09c-.06-.17-.01-.18-.48.06s-.57.25-.97.04c-.42-.22-.78.14-.78.77 0 .53-.43 2.2-.75 2.93-.14.32-.3.79-.36 1.05-.1.49-.25.79-.33.7-.08-.08.29-1.51.48-1.88.24-.45.76-2.46.76-2.92 0-.47.43-1.29.68-1.29.13 0 .13-.02-.01-.18-.32-.35-.04-.32.35.04.28.24.45.33.59.29.1-.04.19-.02.19.04 0 .18-.41.23-.65.07-.13-.09-.26-.12-.29-.07-.16.25.69.38 1.02.15.22-.15.21-.15-.36-.45-.75-.4-1.37-1.01-1.73-1.71-.35-.69-.51-.73-.66-.15-.06.23-.32 1.03-.58 1.77-.61 1.78-.91 3.07-1.1 4.64-.12 1.04-.2 1.37-.41 1.75-.82 1.41-.96 1.73-.9 2.03.05.23-.08.59-.6 1.68-.36.76-.68 1.55-.71 1.77l-.06.38.24-.2c.13-.11.3-.26.37-.34.1-.13.12-.12.12.05.01.17.01.17.11.02.05-.09.16-.15.24-.12.09.04.21-.08.34-.34.19-.36.54-.62.67-.49.04.04-.23.97-.33 1.16-.12.21-.2-.16-.08-.39.23-.44.18-.6-.06-.2-.12.19-.31.44-.44.55s-.26.32-.29.47c-.1.42-.28.35-.2-.08.07-.36.06-.36-.17-.24-.37.2-.59 1.27-.32 1.54.04.04.2.37.34.74.28.7.49.91.49.48 0-.23.09-.31.32-.27.05 0 .08-.08.08-.19 0-.21.15-.27.25-.1.03.05.12.07.19.04s.16.02.2.12c.04.12.02.15-.09.1-.17-.06-.19.11-.06.47.11.28.65.27.76-.01Zm5.16-3.19c.55-.38 1.35-.92 1.77-1.21 1.16-.79 1.55-.96 2.05-.88.23.04.49.07.57.07s.67.09 1.3.19c.63.11 1.61.26 2.17.35 1.23.18 2.71.64 3.73 1.15.61.31.77.35.87.25.43-.46 4.29-1.04 6.98-1.05l1.1-.01.33-.43c.17-.24.32-.47.32-.51s.21-.31.47-.59l.48-.51-1.8-.06c-1.99-.07-2.54 0-2.97.36-.25.21-.4.25-.96.26-.37 0-.9.04-1.17.1-1.16.21-1.62.22-2.17.03-.34-.12-.82-.18-1.35-.19-.72 0-.84-.03-1.03-.23l-.21-.22-.22.25c-.35.4-.81.44-1.09.09-.54-.66-1.08-1.07-1.93-1.49-.86-.42-2.17-1.46-2.02-1.61.09-.09.64.33.93.72.15.19.31.34.37.34.41 0 2.01.96 2.44 1.46.56.64.81.69 1.23.22l.3-.32.28.27c.26.25.35.27 1.09.27.49 0 .95.06 1.16.15.42.17 1.23.19 1.87.04.25-.06.82-.12 1.28-.14.72-.03.89-.07 1.24-.32l.41-.28 2.12-.01c2.57-.02 2.41.07 3-1.64.13-.36.26-.73.3-.83.07-.16-.02-.14-.53.12-.34.17-.7.31-.81.31s-.43.09-.71.2c-.51.2-1.2.25-1.79.14-.57-.12-.34-.26.3-.19 1.28.15 3.78-.9 3.83-1.6.02-.17.25-.77.53-1.35.61-1.28.69-1.61.42-1.78-.36-.23-.24-1.17.22-1.68.18-.19.18-.22.03-.53-.09-.18-.13-.35-.1-.38s-.09-.13-.27-.22c-.79-.4-1.19-2.92-.5-3.18.27-.1.33-.23.33-.75 0-.62.07-.78.35-.78.4 0 .68.47.6 1-.04.25-.11.65-.15.9-.05.36-.08.41-.15.26-.05-.11-.04-.47.03-.85.12-.69-.02-1.18-.31-1.08-.14.04-.14.05-.22 1.59-.07 1.21-.25 1.55-.25.47 0-.6-.15-.79-.26-.34-.11.46.2 1.99.46 2.25.22.22.57.16.65-.11.04-.1.1-.19.15-.19s.18-.15.27-.34c.31-.6 1.49-1.46 2-1.46.15 0-.16.25-.51.4-.53.23-1.07.8-1.45 1.55-.35.69-.5 1.22-.32 1.11.06-.04.11-.02.11.04s.15 0 .33-.14c.61-.47.75-.16.21.43-.22.24-.24.24-.24.06-.01-.16-.04-.14-.17.1-.09.17-.27.4-.39.52a.72.72 0 0 0-.24.55c0 .25.03.29.1.18.07-.12.27-.14.93-.12.64.03.99-.01 1.51-.17.82-.25 1.12-.15.35.11-.89.32-1.55.41-2.1.31-.44-.09-.49-.08-.55.1-.15.48 1.85.66 2.51.23.12-.08.5-.18.85-.22.78-.09 2.2-.76 2.69-1.28.43-.44.64-.45 1.02-.05.42.45.5.13.11-.48-.16-.27-.55-1-.87-1.63-.44-.89-.56-1.06-.5-.75.04.22.1.45.15.5.11.15.08 1.56-.04 1.52-.15-.05-.26-.56-.19-.88.03-.16 0-.41-.06-.56-.06-.16-.15-.78-.21-1.4-.11-1.3-.33-2.02-1.25-4.08-.35-.77-.66-1.5-.7-1.63s-.09-.21-.11-.19c-.03.02.08.47.25.98.35 1.15.41 1.39.32 1.39-.08 0-.21-.32-.67-1.7-.39-1.15-.71-1.77-1.12-2.15-.67-.64-3.28-1.85-3.98-1.85-.13 0-.24-.04-.24-.1 0-.21 1.45.12 2.19.49 1.2.61 1.97 1.11 2.36 1.52.53.56.56.49.15-.35-.31-.63-.63-.93-1.65-1.51-.27-.16-.79-.55-1.15-.87-1.35-1.21-2.04-1.52-4.45-2-.9-.18-2.38-.28-2.49-.17-.05.04.24 1.98.43 2.98.15.76.14 1.67-.05 2.36-.12.46-.14.86-.09 1.75.07 1.26-.11 2.34-.55 3.15-.21.41-.26.11-.05-.38.05-.12.03-.17-.09-.17-.1 0-.16-.08-.16-.22 0-.42-.3.04-.39.6-.09.55-.33.92-.61.92-.21 0-.55.37-.65.7-.04.14-.13.33-.21.44-.07.1-.1.24-.08.31.06.14-.79.89-1.13.99-.11.04-.27.13-.33.21-.07.08-.23.15-.35.15-.13 0-.25.06-.27.12-.03.07-.2.13-.38.14-.19.01-.38.08-.44.16-.14.19-1.15.3-1.41.16-.11-.06-.29-.19-.4-.28-.11-.1-.42-.21-.69-.25s-.66-.18-.87-.31-.42-.24-.46-.24c-.16-.01-.87-.74-.88-.91-.01-.09-.27-.45-.58-.79-.55-.61-.57-.62-.88-.51-.18.06-.33.11-.35.11-.09 0-.97-1.44-1.2-1.96-.14-.32-.39-.73-.56-.9-.31-.33-.47-.83-.48-1.48 0-.22-.06-.47-.13-.55-.08-.09-.19-.43-.26-.76s-.16-.74-.22-.91c-.12-.41-.11-1.21.02-1.84.06-.28.09-.54.06-.56-.07-.07-1.17.56-1.17.66 0 .05-.26.24-.57.44-.38.23-.68.51-.87.81-.35.56-.45.53-.16-.05l.21-.42-.23.04c-.16.02-.32.19-.52.58-.34.63-1.48 4.43-1.35 4.48.05.02.09.13.08.25 0 .21-.01.21-.08.02-.1-.25-.22-.06-.41.65-.26.97-.54 1.54-1.15 2.31-.7.88-.73 1.1-.18 1.24.31.07.42.2.85.98.53.98 1.36 1.49 3.21 1.97 1.29.33 1.27.34 1.97-.59.31-.41.52-.61.67-.61.12 0 .28-.03.37-.06.1-.04.3.14.63.58.26.34.83 1 1.26 1.45.83.88.83.88.64 1.79-.07.34-.1.88-.07 1.26.03.37.04.65.02.63s-.29.09-.6.25c-.31.15-.86.38-1.21.51-1.09.39-2.21 1.62-2.35 2.58-.09.58-.74 1.97-1.14 2.42-.17.2-.36.47-.41.61-.06.15-.4.45-.83.73-.8.53-.96.65-.84.65.04 0 .52-.3 1.07-.67Zm.18-.96c.09-.16.33-.47.53-.7.39-.44.98-1.69.98-2.09.01-.96 1.4-2.5 2.73-3.02 1.43-.57 1.42-.56 1.42-1.18.01-.29.05-.83.09-1.21l.09-.67-.65-.68c-.35-.37-.83-.93-1.06-1.24-.51-.69-.64-.71-1.11-.17-.2.23-.61.67-.91.98-.44.45-.58.67-.69 1.11-.15.61-.69 1.67-1.71 3.35-.37.61-.77 1.3-.9 1.54-.12.24-.41.65-.65.9-.61.66-.63.83-.19 1.7.36.71.37.77.36 1.71l-.01.98.76-.51c.42-.29.84-.65.92-.8ZM39 33.99c0-.06.15-.5.34-.98.55-1.38.97-2.52 1.11-3.04.14-.5.71-1.47.86-1.47.14 0 .11.09-.16.44-.14.18-.33.64-.44 1.02-.46 1.74-1.71 4.68-1.71 4.03Zm-11.74-2.11c-.09-.05-.2-.07-.25-.04-.04.03-.18-.05-.3-.18-.21-.22-.67-.37-1.89-.62-.12-.02-.39-.2-.6-.38-.2-.18-.47-.36-.6-.4-.24-.08-.3-.26-.08-.26.12 0 .29.11 1.02.65.12.09.44.2.7.24.79.14 1.54.35 1.54.43 0 .11.62.43.84.43.11 0 .21.05.23.11.05.14-.37.15-.61.02Zm5.4-2.46c.05-.05.55-.26 1.11-.47.57-.21 1.03-.42 1.03-.45 0-.09-1.5.32-2.22.61-.5.2-.78.2-.78-.01 0-.05.08-.1.18-.1.09 0 .4-.08.67-.19.28-.1.85-.27 1.29-.37.43-.1.8-.24.83-.31.08-.2.19-.15.32.14.17.37.04.47-1.15.88-.96.33-1.48.44-1.28.27ZM31 29.07c0-.08.07-.2.15-.27.23-.19-.28-.72-.62-.64-.14.04-.23.02-.23-.05s-.27-.11-.72-.12c-.4-.01-.84-.05-.98-.09l-.25-.08.25-.03c.14-.01.32-.02.4-.01.08 0 .49.02.9.03.67.02.79.05 1.13.32.37.29.4.29.7.15.53-.25 2.15-.7 2.39-.66.14.02-.17.16-.82.36-1.26.39-1.66.58-2.02.95-.19.19-.28.24-.28.14Zm-5.04-.79c.03-.13.07-.23.08-.23 0 0 .15-.09.31-.21.43-.29.57-.33 1.6-.44 1.17-.12 1.65-.28.87-.29-.33-.01-.51-.05-.47-.11.03-.05.19-.1.35-.1.56 0 .69-.13.25-.25-.34-.1-.4-.16-.43-.41-.05-.52-.45-.75-.92-.52-.49.24-1.73.36-1.95.18-.19-.16-.19-.3 0-.3.08 0 .15.04.15.1 0 .22 1.8-.06 1.88-.29.07-.21.37-.11.75.24.29.26.37.4.32.55-.05.16-.02.2.18.2.31 0 .6.31.51.55-.08.2.76.17 2.06-.09.36-.07.8-.14.99-.14.49-.02 1.26-.29 1.47-.53.29-.32 1.13-.91 1.24-.87.15.05-1.19 1.18-1.66 1.39-.22.1-.76.23-1.2.28-1.59.19-2.51.33-3.19.46-.38.08-.96.17-1.27.19-.88.08-1.34.23-1.62.56-.3.36-.4.38-.3.08Zm-2.06-1.46c0-.55-.26-.74-1.65-1.17-.66-.2-1.3-.43-1.42-.51-.33-.21-.29-.37.05-.2.15.08.47.19.72.26.25.06.54.14.65.17.16.04.18.03.08-.08-.07-.07-.13-.17-.13-.22s.05-.05.13.01c.27.21.9.27 2.24.21.55-.03.86 0 .94.08.09.09-.06.12-.65.11-.43 0-.9.05-1.06.12-.24.1-.37.09-.75-.05-.25-.1-.48-.15-.51-.12s.17.12.45.22c.65.21 1.01.63 1.01 1.16 0 .21-.02.39-.05.39s-.05-.17-.05-.38Zm6.4-3.45c0-.05.13-.25.28-.45.28-.37 1.81-2.55 1.96-2.8.05-.08-.01-.16-.16-.21-.18-.08-.1-.1.37-.09.34 0 .51.03.39.06-.12.04-.47.44-.78.9s-.71 1.04-.89 1.29c-.39.55-1.16 1.41-1.17 1.3Zm-4.63-3.44c.12-.15.3-.27.4-.28.29-.02.63-.16.63-.25 0-.04.19-.06.42-.03 1.09.11 1.21.07 1.21-.37 0-.17.04-.3.09-.3.04 0 .08.15.08.33.01.3.01.31.15.13.16-.21.31-.14.37.17.04.21.23.23.23.02 0-.25.24-.42.35-.25.18.28.43-.03.61-.75.17-.71.4-1 .72-.91.42.11.63-1.09.38-2.17-.07-.29-.04-.55.11-1.1.24-.83.21-2.36-.05-2.97-.08-.19-.18-.75-.22-1.25-.09-1.15-.41-1.94-1.03-2.53-.52-.49-.59-.49-.38.03.22.52.2.62-.07.37l-.23-.22-.17.34c-.08.19-.19.5-.22.7-.04.2-.11.38-.15.41-.12.07-.21-.25-.15-.46.04-.11.02-.19-.03-.19s-.17-.18-.27-.4c-.22-.49-.4-.47-.4.03 0 .2-.03.37-.07.37h-.17c-.12 0-.37-.66-.45-1.21-.09-.63.06-.99.41-.99.59 0 .57-.17-.03-.4-.46-.17-.69-.2-1.04-.15-.25.04-.54.08-.65.07-.25 0-1.49-.44-1.53-.54-.07-.16-1.29-.07-1.92.13-.38.12-.86.19-1.15.18-.27-.02-.66-.02-.85-.01l-.35.03.25.14c.14.08.4.14.58.15.38 0 .35.15-.03.23-.15.02-.32-.01-.4-.09a.53.53 0 0 0-.35-.14c-.14 0-.19-.04-.14-.12.05-.09.02-.09-.09.01-.12.09-.16.26-.15.54.03.43-.33.81-.86.92-.66.13-.76.17-.76.29 0 .08.07.21.15.3.14.13.1.24-.35 1.05-1 1.81-1.28 3.33-.91 4.86.06.22.13.53.17.7.04.16.13.36.21.43.08.09.13.38.13.81 0 .64.02.71.39 1.18.22.27.49.73.59 1.01.31.82.96 1.63 1 1.25.05-.44.22-.52.22-.1 0 .32.03.37.23.37.15 0 .41.18.71.48l.47.47-.16-.37c-.17-.43-.2-.72-.05-.63.05.03.13.23.16.43.06.35.08.37.47.39.22.02.44.08.48.14.04.07.14.03.28-.12.16-.18.21-.19.21-.07 0 .26.27.29.35.05.06-.22.06-.22.17.03.09.19.12.21.15.09.04-.18.4-.32.48-.19.02.04.15.05.27.03.14-.03.31.03.43.15.26.24.8.12 1.12-.25Zm1.2-1.37c-.1-.14-.34-.3-.56-.37s-.48-.24-.6-.4c-.25-.33-1.01-.44-1.01-.14 0 .28-.26.15-.35-.17-.13-.43-.78-.57-.75-.16.03.36.01.5-.08.44-.2-.12-.12-.78.09-.83.15-.04.19-.11.15-.27-.03-.11-.08-.4-.12-.64-.04-.23-.11-.45-.15-.48-.05-.03-.09-.17-.09-.31 0-.17-.11-.36-.3-.52-.39-.35-.52-1-.21-1.08.32-.08.29-.53-.04-.53-.14 0-.25.05-.25.11 0 .07-.09.09-.23.05-.17-.04-.25 0-.32.16-.2.44-.38.34-.31-.16.07-.41.05-.49-.16-.66-.27-.23-.29-.21.44-.26.54-.03.57-.02.67.24.11.28.1.06-.05-1.34-.06-.53.04-.73.29-.57.06.04.26.08.42.08.37 0 .46.32.15.6-.16.15-.2.3-.2.84 0 .42.04.61.09.52.11-.17.31-.06.31.19 0 .31.11.5.3.5.12 0 .21.1.25.29.03.16.13.32.22.35.15.06.14.19-.01.57-.05.1.01.19.17.26.17.08.27.23.31.47.09.45-.02.66-.2.42-.16-.22-.23-.09-.17.32.04.27.09.32.25.26.1-.03.25-.01.32.05.1.08.17.07.26-.04a.31.31 0 0 1 .31-.1c.15.05.17.01.12-.28-.07-.45.12-.83.33-.66.08.06.17.1.19.07.1-.1-.07-.37-.26-.43-.27-.09-.25-.55.06-1.13.41-.8.58-.95 1.1-1.01l.46-.06-.42-.27c-.28-.18-.56-.28-.82-.28-.27 0-.37-.04-.34-.12.08-.26 1.03-.15 1.35.15.33.32.38.33.44.09.06-.23-.63-.66-1.07-.66-.21-.01-.31-.07-.33-.2-.04-.16 0-.18.32-.12.5.09.45-.01-.11-.26-.37-.17-.64-.21-1.21-.19-.48.02-.79-.02-.89-.1-.13-.11-.19-.09-.4.15-.13.16-.27.26-.3.22-.08-.07.25-.56.37-.56a.1.1 0 0 0 .1-.1c0-.05-.11-.1-.24-.1-.32 0-.41-.28-.18-.54.1-.12.26-.33.35-.48.11-.18.32-.31.59-.39.24-.06.47-.14.53-.17.06-.04.2-.05.33-.03.55.07.1-.69-.56-.94-.54-.2-.67-.29-.58-.43.15-.25 1.6.72 1.71 1.15.1.41.36.73.71.88.47.2.45.47-.06.7-.69.31-.7.42-.07.69.41.19.57.32.65.54.06.19.19.32.35.36.74.18.3 1.34-.56 1.45-.39.06-.44.11-.79.71l-.38.65.25.12c.26.14.42.66.31 1.01-.13.38-.66 1.02-.86 1.02-.55 0-.17 1.12.42 1.24.38.08.96.61.82.76-.08.08-.15.04-.27-.14Zm-12.46-.72c-.84-1.27-.95-2.33-.41-3.79.33-.87 1.08-1.85 1.42-1.85.06 0 .31-.18.55-.41.25-.22.47-.38.5-.35.1.1-.37.56-.94.92-.62.41-.94.8-1.23 1.54-.6 1.51-.58 2.09.11 3.48.46.95.46 1.16 0 .46Zm6.37-2.15c-.1-.05-.18-.15-.18-.21s-.13-.26-.3-.45c-.35-.39-.45-1.54-.24-2.81.04-.25.02-.32-.07-.26-.09.05-.11.01-.06-.15.03-.12-.01-.34-.09-.49s-.14-.35-.14-.44c0-.11-.05-.15-.14-.12-.23.09-.28-.13-.12-.51.1-.23.22-.35.34-.35.11 0 .31-.09.45-.2.31-.25.63-.26.72-.02.05.13.11.05.22-.32.18-.62.12-.8-.26-.71-.66.14-.98-.47-.43-.82.15-.1.33-.26.4-.35.07-.1.17-.18.23-.18.19 0 .08.29-.21.58-.39.39-.38.42.09.42.59 0 .67.16.53 1.08-.07.42-.12 1.04-.12 1.38 0 .82-.1 1.54-.23 1.54-.06 0-.07-.19-.03-.5.07-.53.04-.56-.37-.41-.49.19-.6 3.08-.12 3.46.14.12.25.26.25.33 0 .12.31.32.49.32.06 0 .08-.28.04-.72-.08-1.27-.08-1.43.02-1.48.05-.03.12.08.15.25.05.25.1.3.33.28.21-.01.27.03.27.18 0 .1-.06.19-.14.19-.18 0-.28.51-.2 1.02.09.54-.51.8-1.08.47ZM1.8 7.82c0-.18.33-1.05.68-1.82.26-.58 1.18-2.02 1.57-2.47.47-.55.68-.56.23-.02-.18.22-.38.48-.43.58-.05.09-.27.43-.48.74-.48.73-1.1 1.96-1.32 2.65-.18.55-.25.64-.25.34Z"/></svg>