<svg xmlns="http://www.w3.org/2000/svg" width="51" height="51" viewBox="0 0 51 51"><path fill="#fff" fill-rule="evenodd" stroke="#fff" stroke-width=".636" d="M6.75 48.46c-1.56-.38-2.55-1.47-2.91-3.18-.24-1.14-.15-38.67.09-39.56.47-1.72 1.31-2.58 2.94-3 1.02-.26 36.52-.25 37.5.01 1.62.43 2.59 1.41 2.92 2.95.15.7.16 38.74.01 39.52-.3 1.57-1.47 2.86-2.95 3.25-.79.2-36.76.22-37.6.01Zm37.87-.89c.68-.27 1.32-.88 1.68-1.6l.31-.63.01-19.84.01-19.85-.23-.53c-.3-.7-1.01-1.33-1.77-1.58-.86-.28-37.03-.3-37.94-.02-1.15.36-1.76 1.06-2.07 2.39-.22.98-.27 38.42-.04 39.4.28 1.21 1.04 2.04 2.12 2.33.94.25 37.27.18 37.92-.07ZM13.23 43.9c-1.99-.52-3.47-1.98-4.07-4-1.69-5.7 5.3-9.97 9.46-5.78 4.09 4.13.17 11.24-5.39 9.78Zm3.03-.4c4.45-1.54 4.94-8.14.74-10.16-4.32-2.08-9.04 2.22-7.42 6.76.99 2.76 4.03 4.31 6.68 3.4Zm-3.07-.73c-3.38-1.22-4.33-5.44-1.76-7.83 3.39-3.17 8.62-.25 7.67 4.29-.56 2.72-3.42 4.44-5.91 3.54Zm3.26-.71c2.6-1.29 3.23-4.71 1.25-6.8-3.28-3.47-8.84.45-6.81 4.8.99 2.12 3.5 3.02 5.56 2Zm-3.52-1.78c-.68-.69-1.02-1.77-.77-2.42.15-.39.34-.16.34.41 0 .7.24 1.27.75 1.77.21.22.34.43.31.52-.08.22-.19.17-.63-.28Zm1.37-.91c-1.26-.43-.93-2.32.4-2.32 1.29 0 1.69 1.95.47 2.3-.45.13-.53.13-.87.02Zm1-.57c.27-.27.25-.4-.05-.4-.38 0-.68-.36-.61-.72.05-.27.04-.29-.17-.22-.91.27-.71 1.54.25 1.54.25 0 .45-.07.58-.2Zm-2.15-7.69c-2.73-.8-4.4-3.08-4.38-5.96.05-5.03 6.4-7.62 9.93-4.06 4.26 4.29.15 11.7-5.55 10.02Zm2.91-.31c4.28-1.1 5.5-7.14 1.98-9.89-3.65-2.85-9.2.06-8.91 4.69.18 2.81 1.91 4.73 4.82 5.34.5.1 1.39.04 2.11-.14Zm-2.13-.61c-3.59-.62-5.36-4.85-3.18-7.62 1.9-2.41 5.3-2.67 7.37-.55 1.97 2.02 1.62 5.55-.72 7.32-.96.71-2.33 1.05-3.47.85Zm2.59-.86c3.7-1.74 3.25-7.26-.67-8.27-3.84-1.01-7 3.3-4.86 6.62 1.21 1.85 3.58 2.56 5.53 1.65Zm-4.08-2.15c-.56-.67-.95-1.84-.8-2.43.12-.49.33-.28.38.38.05.63.35 1.33.79 1.89.4.5.05.65-.37.16Zm1.79-.59c-1.32-.38-1.34-2.34-.02-2.69 1.33-.36 2.38 1.22 1.48 2.24-.25.29-.85.59-1.09.55-.03 0-.19-.05-.37-.1Zm11.17-.36c-1.53-.56-2.37-2.65-1.64-4.11 1.31-2.64 5.24-1.88 5.51 1.06.2 2.15-1.88 3.78-3.87 3.05Zm-10.35-.07c.62-.26.79-.95.21-.88-.49.06-.8-.27-.71-.74.07-.39-.01-.42-.45-.19-1.14.59-.25 2.31.95 1.81Zm12.52-.66c2.11-1.21 1.23-4.51-1.19-4.5-2.04.01-3.1 2.41-1.78 4.02.69.83 1.99 1.04 2.97.48Zm-1.63-1.14c-1.19-.53-.55-2.29.71-1.95.74.21 1 1.11.47 1.69-.32.36-.75.45-1.18.26Zm.88-.53c.1-.09.18-.27.18-.4 0-.25-.1-.29-.28-.11-.1.1-.16.08-.3-.06-.16-.16-.16-.18.02-.32.19-.13.18-.14-.09-.14-.56 0-.86.61-.48 1.02.2.22.7.23.95.01ZM13.95 18.2c-4.76-.53-7.17-6.28-4.19-10.02 2.27-2.86 6.61-3.11 9.19-.53 4.07 4.07.7 11.18-5 10.55Zm2-.45c5.12-1.31 6.03-8.55 1.37-10.88-4.44-2.22-9.49 1.63-8.38 6.38.76 3.22 3.97 5.28 7.01 4.5Zm9.68-.05c-.86-.52-.81-1.84.08-2.32 1.16-.62 2.44.56 1.9 1.76-.32.74-1.26 1-1.98.56Zm1.38-.48c.69-.62.17-1.71-.75-1.59-.94.13-1.19 1.27-.38 1.71.42.23.78.19 1.13-.12Zm-13.95-.32c-3.62-1.28-4.69-5.71-2.02-8.35 4.35-4.31 10.99 1.03 7.73 6.22-1.19 1.91-3.68 2.84-5.71 2.13Zm2.99-.5c3.4-1.17 4.35-5.44 1.75-7.83-3.71-3.4-9.45.82-7.31 5.38.97 2.09 3.44 3.18 5.56 2.45Zm9.5-2.92c-3.07-1.1-2.34-5.78.9-5.78 3.02 0 4.03 4.25 1.33 5.59-.66.34-1.6.41-2.23.19Zm-11.7-.2c-1.41-.81-.82-2.98.8-2.98 1.5 0 2.16 2.04.94 2.91-.47.33-1.23.36-1.74.07Zm1.66-.54c.27-.28.34-.51.31-1.04l-.02-.24-.16.22c-.19.28-.57.29-.84.02s-.26-.65.02-.84c.22-.16.22-.16-.16-.16-1.04 0-1.64 1.14-.99 1.9.5.6 1.32.66 1.84.14Zm12.14-.04c1.52-.83 1.53-3.21.01-4.15-1.53-.94-3.56.26-3.56 2.1 0 1.87 1.89 2.96 3.55 2.05Zm-1.53-1.01c-1.05-.31-.82-2.09.27-2.09.71 0 1.3.67 1.16 1.3-.06.27-.56.8-.75.8-.05 0-.14.02-.22.04-.07.02-.28 0-.46-.05Zm.82-.54c.57-.57-.12-1.43-.83-1.04-.55.31-.3 1.19.34 1.19.18 0 .4-.07.49-.15Zm-15.78-.74c-.27-.44 2.17-2.25 2.64-1.96.21.13.09.34-.25.44-.57.16-1.19.57-1.68 1.11-.44.49-.61.59-.71.41Z"/></svg>