<svg xmlns="http://www.w3.org/2000/svg" width="51" height="51" viewBox="0 0 51 51"><path fill="#fff" fill-rule="evenodd" stroke="#fff" stroke-width=".636" d="M6.89 51.1c-2.29-.27-4.37-1.38-5.72-3.05-.59-.74-1.19-1.8-1.15-2.03.02-.11.19.11.45.58 1.15 2.06 2.81 3.37 5.08 4.02l.8.23h18.8c21.29 0 19.18.08 21.11-.85 2.26-1.09 3.78-3.16 4.34-5.9l.22-1.05-.05-17.9c-.04-12.43-.08-18.1-.16-18.55-.54-3.18-2.63-5.66-5.36-6.35C44.36.02 5.98.02 5.01.25 3.18.69 1.41 2.14.47 3.99c-.31.62-.43.78-.45.62-.04-.28.56-1.38 1.2-2.18C1.83 1.65 2.7.99 3.8.46l.85-.41h41l.85.41c2.21 1.08 3.63 3 4.28 5.79.27 1.18.31 36.64.04 37.97-.69 3.35-3.02 5.82-6.32 6.7l-.85.23-18.05.01c-9.93.01-18.35-.02-18.71-.06Zm.36-2.31c-3.13-.46-5.56-2.9-6.05-6.04-.2-1.34-.09-35.37.13-36.1.74-2.54 2.8-4.56 5.27-5.17.96-.23 35.82-.19 36.7.05 2.59.7 4.56 2.68 5.21 5.26.19.74.19 1.28.17 18.51l-.03 17.75-.31.88c-.84 2.35-2.61 4.03-4.99 4.74-.67.19-34.8.31-36.1.12Zm35.7-.3c2.36-.44 4.3-2.19 5.19-4.66l.31-.88.03-17.5c.02-12.46 0-17.69-.08-18.15-.46-2.69-2.58-4.93-5.23-5.55-.77-.18-35.43-.23-36.32-.06-2.48.49-4.56 2.45-5.28 4.98l-.22.78-.03 17.15c-.02 11.38.01 17.41.07 17.93.44 3.29 3.01 5.78 6.24 6.05 1.46.12 34.65.04 35.32-.09ZM8.5 47.64c-3.08-.48-5.03-2.1-5.92-4.94l-.23-.75v-16.8c0-16.01.01-16.83.18-17.52.61-2.38 2.44-4.22 4.87-4.9.99-.28 33.97-.28 35 0 2.36.63 4.01 2.22 4.82 4.62l.23.7.03 16.65c.03 18.62.07 17.5-.68 19.08-.86 1.8-2.16 2.96-4.05 3.6l-.8.27-16.6.01c-9.13.01-16.71 0-16.85-.02Zm33.85-.38c2.39-.71 4.07-2.44 4.72-4.86.28-1.01.28-33.7 0-34.7-.66-2.43-2.26-4.03-4.72-4.76-.63-.18-11.45-.35-12.71-.19l-.51.06-.43 1.52c-.24.84-.53 1.84-.65 2.24l-.22.72 1.14.36c3.67 1.16 6.52 3.59 8.11 6.93.88 1.86.85 2.59-.03.95-1.71-3.15-4.41-5.35-8.09-6.58-1.56-.52-1.41-.63-2.09 1.6-.32 1.05-.87 2.82-1.22 3.95s-.63 2.05-.62 2.06 2.58.06 5.72.12c6.18.11 6.53.14 8.17.75 5.12 1.88 6.01 8.38 1.55 11.28-.7.46-.7.47.13.8 5.58 2.17 5.54 10.15-.06 12.8-2.21 1.05-2.75 1.09-15.66 1.09H13.91l-.47.72c-.67 1.04-1.54 2.15-2.13 2.73l-.52.5 1.28.06c3.67.16 29.67.03 30.28-.15Zm-31.25-.5c.74-.78 1.37-1.57 2.02-2.56l.5-.75-3.09-.05-3.08-.05v-3.3l4.07-.03L15.6 40l.39-.78c.92-1.84 3.41-7.53 3.41-7.81 0-.08-1.55-.12-5.22-.13l-5.23-.03v-3.3l5.96-.03 5.97-.02.06-.26c.04-.14.38-1.07.76-2.06l.7-1.81v-1.84c0-1-.01-1.84-.02-1.85-.02-.02-3.36-.05-7.43-.08l-7.4-.05v-1.57c0-.86.04-1.6.08-1.65.05-.04 3.92-.09 8.61-.11l8.53-.03.27-.87c.15-.48.65-2.11 1.11-3.62s.9-2.94.99-3.17c.19-.54.2-.54-2.15-.6-6.1-.17-10.74 2.4-13.75 7.62-.41.71-.43.35-.03-.71 1.52-4.04 5.12-6.9 9.99-7.96 1.21-.26 5.03-.33 5.9-.11.24.07.46.1.48.08.05-.04 1.31-4.36 1.32-4.47 0-.12-19.08-.09-20.25.02-2.97.29-5.16 2.11-5.92 4.9-.2.77-.34 32.31-.14 33.8.48 3.59 3.06 5.87 6.68 5.89l1.21.01zm25.4-3.71c2.02-.23 3.16-.52 4.25-1.08 4.27-2.16 5.09-8.4 1.48-11.27-.54-.43-2-1.16-2.52-1.26-.5-.1-.46-.19.43-.78 2.54-1.69 3.55-4.28 2.71-6.93-.77-2.44-2.75-3.99-5.85-4.58-1.07-.21-18.94-.42-25.22-.3l-3.98.07v2.88l7.38.02 7.37.03.03 4.12.02 4.13-6.72.02-6.73.03-.03 1.42L9.09 31l6.73.02 6.73.03.05 3.07.05 3.07 1.18-.64c1.41-.78 1.11-.77 2.45-.05.6.33 1.13.6 1.16.6s.06-1.37.06-3.04v-3.03l.61-.07c.94-.09 5.69-.07 7.02.04 3.95.33 5.62 1.67 5.62 4.5 0 2.73-1.38 4.17-4.39 4.59-.52.08-5.26.11-14.7.11H7.73l-.07.46c-.08.62-.08 2.39.01 2.47.15.15 27.52.08 28.83-.08Zm-14.03-5.02c-.04-1.08-.07-3.03-.07-4.35V31.3h-2.68l-.23.58c-.57 1.44-2.17 5.09-2.85 6.5-.41.85-.74 1.57-.74 1.59 0 .01 1.49.03 3.32.03h3.31zm14.52 1.74c2.65-.59 4.04-2.65 3.5-5.19-.59-2.79-3.28-3.66-10.56-3.42l-2.11.07-.04 3.02c-.01 1.67-.07 3.07-.11 3.12-.05.04-.64-.21-1.33-.57l-1.24-.65-.86.45c-.47.24-.99.52-1.15.62l-.29.18v2.61l6.73-.04c5.74-.03 6.83-.06 7.46-.2Zm-9.44-11.98c-.03-.13-.04-1.97-.03-4.09l.03-3.85 3.7.01c5.05.01 6.26.23 7.36 1.36 1.78 1.82 1.18 5.21-1.09 6.19-1.06.46-1.56.51-5.84.56l-4.07.05zm-5.15-1.61-.01-1.73-.64 1.69c-.36.93-.65 1.71-.65 1.73s.29.03.65.03h.65zm12.32 1.52c1.66-.12 2.5-.33 3.25-.83 2.11-1.41 1.82-5.18-.49-6.17-1.14-.49-3.35-.69-7.5-.7H27.8v7.8h2.73c1.49 0 3.38-.05 4.19-.1ZM12.66 13.5c5.96-7.36 17.87-7.31 23.42.1.77 1.03.81 1.05.38.25-3.33-6.21-12.23-8.5-19.18-4.94-2.42 1.25-4.84 3.71-5.49 5.59l-.09.25.18-.25c.09-.13.44-.58.78-1Z"/></svg>