<svg xmlns="http://www.w3.org/2000/svg" width="51" height="51" viewBox="0 0 51 51"><path fill="#fff" fill-rule="evenodd" stroke="#fff" stroke-width=".664" d="M.9 38.5V26.4l1.83-.02 1.82-.03.03-12.98L4.6.4l21.03.02 21.02.03.03 12.98.02 12.97h3.57l.07.38c.08.49.08 22.28-.01 23.15l-.06.67H27.92l-1.12-1.2c-.62-.66-1.18-1.2-1.24-1.19-.06 0-.6.54-1.21 1.19l-1.1 1.2H.9zm22.39 9.07c.18-1.53.32-2.79.3-2.81-.05-.05-4.31-.42-6.89-.61-1.13-.08-3.13-.24-4.45-.35-1.32-.12-3.48-.29-4.8-.4s-3.23-.27-4.25-.35c-1.01-.08-1.89-.15-1.95-.15-.09 0-.15 5.4-.07 6.98l.02.52 10.87-.02 10.88-.03zm26.81-.92c0-3.51-.01-3.75-.17-3.75-.1 0-1.21.09-2.48.2-3.64.31-11.81.98-14 1.15-1.1.08-2.89.22-3.98.31l-1.97.17.05.31c.05.3.65 5.21.65 5.31 0 .03 4.93.05 10.95.05H50.1zm-23.58 2.11c.53.55 1.05 1.1 1.17 1.24.26.32.27.41-.09-2.5-.32-2.64-.35-3-.21-3 .05 0 .53-.04 1.07-.1.55-.05 2.45-.21 4.24-.35 4.44-.34 10.18-.81 12.95-1.05 1.26-.11 2.75-.23 3.3-.28l1-.07-.02-.26c-.01-.15-.74-2.11-1.62-4.35l-2.38-6.09-.78-2-.84-.05-.84-.05-.14-.4a36 36 0 0 1-.37-1.26l-.24-.86.67-.07c.36-.03.86-.06 1.11-.06.53-.01 1.04-.23 1.54-.67l.36-.32V.6H4.8v25.68l.37.32c.53.47.85.57 2.12.64.63.04 1.16.08 1.17.09.02.01-.15.6-.37 1.3l-.4 1.27H6.05l-1.09 2.83c-.6 1.55-1.69 4.36-2.43 6.24-.75 1.89-1.33 3.49-1.3 3.56.04.1.36.16 1.09.21.56.04 3.17.25 5.78.46 2.61.22 6.51.53 8.65.7 4.22.33 7.07.58 7.13.64.03.04-.48 4.34-.64 5.36-.05.33.01.28 1.13-.89l1.19-1.24zM50.1 34.2v-7.6h-3.77l-.29.26c-.49.43-.92.57-2.02.62-.84.04-1.02.07-.98.19.03.08.17.52.3.99.31 1.06.32 1.07.67.99.53-.12 1.29.04 1.39.29.04.11.62 1.58 1.28 3.26 2.61 6.67 3.37 8.6 3.39 8.6s.03-3.42.03-7.6Zm-45.7-.7c1.63-4.25 1.41-3.88 2.37-3.92l.77-.03.32-1.02.32-1.03H7.4c-1.12 0-1.7-.15-2.18-.56l-.4-.34H1.2v15.05l.94-2.35c.51-1.29 1.53-3.9 2.26-5.8Zm22.52 7.37c-.05-.07-.35-1.99-.67-4.27-.49-3.52-.73-4.94-.75-4.32-.01.7-1.16 8.51-1.26 8.61-.03.03-.11.01-.18-.04-4.79-3.46-9.73-4.24-15.43-2.43-.73.23-1.35.39-1.38.36-.09-.08 2.9-11.43 3.24-12.3.14-.36.75-.8 1.64-1.16 3.84-1.6 9.08-.17 12.97 3.55l.45.43.62-.54c4.42-3.85 9.52-5.11 13.28-3.27 1.13.56 1.18.62 1.63 2.36.22.83.74 2.74 1.15 4.25 1.21 4.38 1.76 6.54 1.68 6.63-.04.04-.41-.04-.82-.18-5.53-1.91-11.03-1.21-15.41 1.95-.48.35-.69.45-.76.37Zm-2.58-1.92c.14-.88.43-2.97.66-4.65.45-3.4.46-3.5.6-3.5.06 0 .1.03.1.07 0 .12 1.3 9.27 1.35 9.5.05.2.11.18 1.01-.42 4.22-2.83 9.69-3.48 14.75-1.76l.87.29-.54-2.06c-1.64-6.3-2.72-10.06-2.96-10.24-1.8-1.41-5.57-1.64-8.58-.51-1.69.64-3.79 1.94-5.27 3.28l-.73.67-.57-.52c-4.24-3.88-9.42-5.21-13.18-3.4-1.15.56-1 .22-2.34 5.2-1.48 5.48-2.01 7.53-1.98 7.57.02.01.5-.13 1.08-.32 4.37-1.42 9-1.15 12.81.75.95.48 2.4 1.39 2.53 1.61.11.17.13.11.39-1.56ZM6.67 25.23c-.04-.03-.07-5.14-.07-11.35V2.6h37.9v22.7h-2.8l-.47-.34c-3.36-2.39-8.04-2.39-12.06-.01l-.58.35h-5.9l-.72-.39c-4.33-2.36-8.35-2.36-11.89.01l-.57.38H8.12c-.76 0-1.42-.03-1.45-.07Zm3.28-.53.38-.3H7.8V3.6h35.6l-.02 10.38-.03 10.37-1.24.03-1.23.03.41.29c.4.3.43.3 1.71.3h1.3V2.8H6.9V25h1.34c1.33 0 1.33 0 1.71-.3Zm19.16 0 .54-.3h-8l.45.3.45.29h3.01l3.01.01zm-17.61-.9c2.58-1.19 5.66-1.19 8.61-.01l.97.39 4.65-.04 4.65-.04.65-.3c2.65-1.2 6.25-1.18 8.68.04l.65.33 1.42-.05 1.42-.05-.02-10.11-.03-10.11-17.35-.01c-9.54 0-17.45.02-17.58.04L8 3.92v20.17l1.28.04c.7.01 1.29.04 1.31.05s.43-.16.91-.38Zm11.82-5.43c-.05-.06-.13-.28-.17-.47s-.52-2.26-1.06-4.58c-1.05-4.48-1.05-4.52-.87-4.52.23 0 8.45 4.77 8.67 5.03.17.21.1.23-1.35.52-.71.14-1.3.27-1.31.29-.02.02.37.53.87 1.14.49.61.9 1.17.9 1.24 0 .14-1.44 1.33-1.6 1.33-.06 0-.57-.51-1.13-1.14s-1.07-1.16-1.14-1.18c-.06-.02-.44.5-.84 1.17-.78 1.31-.82 1.36-.97 1.17Zm.79-1.34c.64-1.1.87-1.43.99-1.43.07 0 1.88 1.99 2.15 2.37.12.16 1.45-.75 1.45-1 0-.04-.41-.58-.9-1.19-.5-.61-.89-1.15-.87-1.21.04-.13.33-.21 1.42-.42.44-.09.91-.18 1.04-.21.21-.05.07-.16-.93-.75-2.8-1.65-6.98-4.01-7.02-3.97-.02.03.34 1.69.81 3.69s.93 3.99 1.02 4.41c.09.43.17.78.18.78.02 0 .31-.48.66-1.07Zm2.14-.99c-.66-.74-1.23-1.34-1.27-1.34s-.31.4-.6.9c-.29.49-.57.88-.63.86-.09-.02-1.53-5.59-1.54-5.98-.01-.29.1-.24 2.58 1.21 1.31.77 2.57 1.49 2.81 1.61.54.27.46.33-.7.55-1.29.24-1.27.21-.72.86.98 1.16 1.82 2.19 1.82 2.23 0 .03-.13.14-.28.25l-.28.2zm1.35.86c0-.06-.49-.7-1.1-1.42-.61-.73-1.1-1.37-1.1-1.44s.33-.19.78-.28c.42-.1.85-.2.96-.24.14-.06-.35-.39-2.19-1.46-1.3-.75-2.39-1.36-2.4-1.34-.03.03.85 3.77 1.16 4.92l.1.38.46-.73c.71-1.15.54-1.18 1.92.35 1.15 1.28 1.41 1.51 1.41 1.26Z"/></svg>