<svg xmlns="http://www.w3.org/2000/svg" width="51" height="51" viewBox="0 0 51 51"><path fill="#fff" fill-rule="evenodd" stroke="#fff" stroke-width=".706" d="M22.92 46.27c-.05-.06-.26-.84-.45-1.72-.2-.88-.75-3.31-1.21-5.4l-.86-3.8.43-.71c1.08-1.83 4.55-7.39 4.77-7.65l.25-.29.53.32c.29.18 1.93 1.23 3.65 2.34 1.71 1.1 3.4 2.18 3.74 2.39.52.31.65.44.73.74.1.39 1.19 5.15 1.95 8.54.26 1.15.43 2.13.39 2.17-.08.07-9.56 2.28-12.44 2.9-.52.11-1.05.22-1.16.25-.12.03-.26-.01-.32-.08Zm1.89-.51c2.86-.63 11.74-2.68 11.78-2.72.05-.04-.73-3.56-1.75-7.94-.46-1.98-.69-2.79-.81-2.88-.1-.07-1.26-.82-2.58-1.65-1.32-.84-2.71-1.73-3.1-1.98-1.4-.92-2.46-1.59-2.49-1.59-.04 0-.21.27-3.31 5.28-1.51 2.44-1.86 3.08-1.83 3.3.06.36 2.27 10.23 2.33 10.4.06.16 0 .17 1.76-.22Zm-.86-1.28c-.08-.23-1.85-8.21-1.85-8.35 0-.08.35-.69.79-1.36.43-.67 1.33-2.1 2.01-3.17.67-1.07 1.29-2.01 1.36-2.09.18-.2.24-.17 2.98 1.53 1.27.79 2.68 1.64 3.13 1.9.72.42.84.52.92.84.12.44 1.3 5.65 1.61 7.1.14.66.19 1.07.13 1.13-.08.08-10.7 2.59-10.96 2.59-.04 0-.1-.06-.12-.12Zm1.35-.39c.47-.11 2.22-.52 3.9-.9 4.98-1.15 5.52-1.28 5.58-1.34.03-.03-.07-.63-.22-1.33-.33-1.53-1.43-6.38-1.52-6.7-.04-.15-.42-.44-1.18-.89-.61-.36-2.05-1.24-3.21-1.96-1.42-.88-2.13-1.27-2.22-1.21-.22.15-4.14 6.38-4.09 6.5.02.06.44 1.9.92 4.08.69 3.1.92 3.96 1.04 3.96.08 0 .53-.09 1-.21ZM8.03 36.87c-.06-.06-.63-2.44-1.28-5.27s-1.34-5.87-1.55-6.75c-.37-1.61-.38-1.95-.04-1.95.08 0 1.65-.34 3.47-.76 1.83-.41 4.21-.95 5.29-1.2l1.97-.44.53.31c1.81 1.06 8.08 5.03 8.08 5.12 0 .18-5.35 8.57-5.46 8.57-.02 0-1.11.25-2.41.55-1.31.31-3.66.85-5.23 1.2-1.57.36-2.95.67-3.06.7-.12.03-.26-.01-.31-.08Zm5.57-1.37c2.87-.66 5.25-1.22 5.29-1.25.15-.09 4.79-7.26 5.21-8.05.15-.28.45-.06-3.15-2.3-1.7-1.06-3.52-2.19-4.04-2.51-.52-.33-1.02-.59-1.11-.59-.21 0-10.59 2.36-10.65 2.42-.03.02.17 1.01.44 2.19.28 1.18.73 3.15 1.01 4.39 1.57 6.91 1.57 6.9 1.69 6.9.05 0 2.44-.54 5.31-1.2Zm-4.49-.67c-.35-1.29-2.42-10.48-2.39-10.61.02-.09.17-.19.33-.23.17-.03 2.02-.45 4.11-.93 2.1-.47 3.89-.86 3.97-.86.09 0 .92.49 1.84 1.08 1.37.88 3.36 2.15 4.71 2.98.12.08.22.19.22.25 0 .1-3.91 6.49-4.15 6.77-.04.04-8.24 1.92-8.39 1.92-.09 0-.19-.16-.25-.37Zm4.74-.88c3.1-.71 3.72-.88 3.85-1.06.31-.44 3.9-6.24 3.9-6.31 0-.03-.73-.52-1.62-1.09-.9-.56-2.35-1.48-3.23-2.05l-1.6-1.03-4.1.93c-3.74.84-4.1.94-4.07 1.12.04.23 2.19 9.63 2.33 10.15.09.36.1.37.47.28.2-.05 2.04-.47 4.07-.94Zm19.99-4.01c-3.22-1.95-7.04-4.39-7.04-4.51 0-.09 5.19-8.34 5.35-8.52.02-.02.41-.12.87-.23 1.09-.25 9.44-2.14 9.84-2.23.2-.04.35-.01.41.07.19.23 3.19 13.49 3.1 13.72-.06.15.15.1-6.02 1.51-2.53.58-4.67 1.08-4.76 1.1-.09.03-.84-.35-1.75-.91Zm5.87-.29c2.28-.52 4.65-1.07 5.27-1.21 1.33-.31 1.26-.01.66-2.66-1.5-6.71-2.22-9.86-2.44-10.69-.06-.22-.17-.39-.25-.39-.13 0-10.1 2.25-10.47 2.36-.1.03-1.27 1.76-2.6 3.86-2.85 4.46-2.84 4.45-2.78 4.51.31.28 8.25 5.17 8.4 5.17.04 0 1.93-.43 4.21-.95Zm-5.11-1.36c-.74-.5-2.22-1.45-3.27-2.11-1.06-.67-1.93-1.26-1.93-1.31 0-.09 2.62-4.38 3.61-5.93l.59-.91 1.17-.26c.65-.15 2.55-.58 4.23-.96 1.68-.39 3.08-.67 3.12-.63.1.1 2.54 10.99 2.48 11.06-.08.08-8.23 1.96-8.45 1.95-.11 0-.81-.41-1.55-.9Zm5.79-.29c2.11-.49 3.86-.92 3.89-.95s-.13-.9-.36-1.93c-1.15-5.19-1.94-8.67-1.97-8.7-.01-.02-1.03.2-2.26.48s-3.05.69-4.04.92c-.99.22-1.86.45-1.92.51-.16.12-4.07 6.46-4.02 6.51.02.02.78.51 1.69 1.08.91.58 2.35 1.5 3.2 2.06 1.04.68 1.62 1 1.75.97.11-.03 1.93-.45 4.04-.95Zm-16.54-4.17c-1.23-.79-5.4-3.44-6.52-4.15-.34-.22-.64-.47-.67-.56-.16-.55-2.36-10.51-2.36-10.69 0-.3-.1-.27 2.82-.93 1.45-.33 4.5-1.02 6.78-1.54 3.28-.76 4.17-.93 4.27-.83.07.06.37 1.2.67 2.52.31 1.32.87 3.75 1.25 5.4l.69 3-1.74 2.8c-2.88 4.65-3.58 5.7-3.79 5.72-.11.01-.74-.32-1.4-.74Zm4.79-4.8 1.87-3.02-.6-2.58c-.33-1.42-.76-3.3-.96-4.18-.71-3.14-.87-3.8-.95-3.88-.06-.07-13.35 2.88-13.48 2.99-.02.01.22 1.14.53 2.51.62 2.69 1.3 5.7 1.65 7.26l.22.98.71.46c.4.26 2.27 1.45 4.16 2.65l3.45 2.18.76-1.17c.42-.65 1.6-2.54 2.64-4.2Zm-4.39 2.83c-.11-.08-1.56-1-3.23-2.06-1.66-1.06-3.05-1.96-3.07-2.01-.03-.05-.37-1.42-.76-3.06-1.03-4.42-1.23-5.32-1.18-5.37.04-.04 3.13-.76 8.88-2.07 2.19-.49 2.17-.49 2.3-.01.18.66.49 1.92.96 3.92.25 1.07.57 2.45.72 3.06l.26 1.11-.44.64c-.25.35-1.23 1.84-2.18 3.32-1.76 2.72-1.84 2.81-2.26 2.53Zm1.51-1.83c.59-.93 1.52-2.34 2.06-3.16.54-.81.98-1.53.98-1.61 0-.27-1.84-8.03-1.92-8.12-.04-.03-7.84 1.71-10.35 2.31-.31.07-.33-.06.58 3.84 1.12 4.82.94 4.29 1.64 4.76 1.55 1.03 5.71 3.65 5.82 3.65.06 0 .6-.75 1.19-1.67Z"/></svg>