<svg xmlns="http://www.w3.org/2000/svg" width="51" height="51" viewBox="0 0 51 51"><path fill="#fff" fill-rule="evenodd" stroke="#fff" stroke-width=".675" d="M7 25.6V0h37.2v51.2H7zm3.52 25.13c-1.25-.62-2.59-2.02-3.08-3.21l-.24-.57V51l1.68.03c.92.01 1.83.03 2.02.05.32.02.28-.02-.38-.35Zm4.39.08c1.09-.34 1.51-.7 5.94-5.1 2.37-2.34 4.42-4.37 4.58-4.51l.28-.24 4.57 4.56c2.84 2.83 4.75 4.66 5.05 4.83 4.31 2.47 9.77-1.9 8.46-6.77-.36-1.32-.65-1.67-5.4-6.43-2.41-2.42-4.39-4.45-4.39-4.5 0-.06 1.85-1.95 4.11-4.2 4.23-4.22 4.88-4.94 5.32-5.81 1.89-3.74-1.09-8.29-5.43-8.29-2.31 0-2.58.19-8.01 5.68l-4.35 4.41-4.3-4.33c-3.06-3.08-4.5-4.47-5.02-4.82-3.94-2.64-9.31.45-9.1 5.25.09 2.12.23 2.3 5.15 7.14 2.23 2.18 4.26 4.21 4.51 4.51l.46.54-4.46 4.41c-4.7 4.66-5.04 5.04-5.43 6.29-1.42 4.46 2.94 8.77 7.46 7.38Zm20.74-.07c-.91-.45-.77-.32-5.58-5.12l-4.37-4.36-.42.4c-.24.21-2.21 2.15-4.38 4.31-4.26 4.22-4.45 4.4-5.26 4.78-.3.14-.54.27-.54.28s4.77.02 10.59.02h10.59zm6.58.26H44v-4.25l-.24.56c-.62 1.52-1.91 2.83-3.44 3.51-.61.27-.63.29-.27.24.22-.03 1.2-.06 2.18-.06ZM12.6 48c-1.78-.38-2.84-2.35-2.13-3.92.17-.38 1.38-1.63 5.72-5.94l5.51-5.46-.32-.37c-.31-.35-4.11-4.09-8.49-8.36-2.44-2.37-2.63-2.64-2.64-3.65-.01-1.53 1.18-2.76 2.76-2.88 1.28-.09 1.13-.21 7.23 5.88 2.97 2.97 5.42 5.39 5.45 5.38.03-.02 2.3-2.3 5.04-5.08 5.35-5.43 5.86-5.91 6.5-6.1 1.81-.54 3.71.86 3.71 2.75.01 1.09.03 1.07-5.87 7.01l-5.41 5.45 5.42 5.42c4.45 4.46 5.45 5.51 5.63 5.92.78 1.76-.53 3.78-2.53 3.93-1.1.08-.97.18-6.96-5.83-2.99-3-5.47-5.45-5.51-5.45-.03 0-2.54 2.45-5.57 5.44-6.19 6.11-6.23 6.15-7.54 5.86Zm1.52-.41c.25-.13 2.52-2.29 5.97-5.7 3.05-3.02 5.58-5.49 5.62-5.49s2.59 2.51 5.66 5.59c6.06 6.07 5.85 5.89 6.88 5.78 1.81-.19 3-2.16 2.24-3.7-.14-.28-2.03-2.25-5.67-5.89l-5.46-5.48 1.34-1.36c.74-.75 3.2-3.23 5.45-5.51 4.43-4.47 4.55-4.61 4.55-5.6 0-1.49-1.09-2.57-2.6-2.58-1.27 0-.71-.49-8.29 7.18-2.28 2.29-4.15 4.17-4.16 4.17s-2.47-2.45-5.46-5.44c-3.61-3.6-5.58-5.51-5.86-5.65-2.43-1.22-5.01 1.72-3.35 3.82.2.26 1.9 1.95 3.77 3.75 1.87 1.81 4.28 4.15 5.35 5.21l1.95 1.93-5.56 5.52c-3.84 3.8-5.63 5.65-5.79 5.96-1.04 2.03 1.4 4.52 3.42 3.49Zm-6.26-5.57c.23-.35 2.02-2.2 4.76-4.91 2.41-2.38 4.38-4.39 4.38-4.45S14.93 30.5 12.41 28c-4.18-4.14-4.62-4.61-4.9-5.2l-.3-.65v10.6c0 9.13.02 10.55.14 10.22.08-.2.31-.63.51-.95ZM44 32.62l-.01-10.67-.28.6c-.49 1.03-.88 1.47-5.25 5.85l-4.25 4.26 4.05 4.04c4.3 4.29 5.05 5.12 5.44 6.03.14.31.26.57.28.57.01 0 .02-4.8.02-10.68ZM29.96 19.76c3-3.04 4.48-4.46 4.92-4.75 2.98-1.89 7.12-.65 8.72 2.61l.4.83V.22l-.89-.07C42.63.11 38.99.1 35.02.12l-7.21.03.83.26c3.77 1.17 6.5 4.97 6.49 9.04 0 7.2-7.16 11.87-13.73 8.97-7.91-3.49-7.37-15.32.83-18.01.37-.13.67-.23.67-.24C22.9.11 9.01.09 8.2.15l-1 .07.01 9.12c0 9.09 0 9.11.19 8.64 1.44-3.54 5.92-4.96 9.03-2.88.51.34 1.94 1.71 4.92 4.73 2.31 2.34 4.23 4.26 4.26 4.26.04.01 2-1.94 4.35-4.33Zm-2.59-.91c7.4-1.57 10.12-10.67 4.78-16C27.06-2.24 18.06.12 16.29 6.99c-1.81 7.02 4.1 13.35 11.08 11.86Zm-3.65-3.05c-3.91-1.05-5.88-5.61-4-9.23 2.4-4.62 9.23-4.51 11.53.18 2.43 4.93-2.2 10.49-7.53 9.05Zm3.75-.32c4.41-1.56 5.65-7.01 2.34-10.28C25.88 1.3 19.2 4.04 19.2 9.54c0 4.26 4.3 7.34 8.27 5.94Z"/></svg>