<svg xmlns="http://www.w3.org/2000/svg" width="51" height="51" viewBox="0 0 51 51"><path fill="#fff" fill-rule="evenodd" stroke="#fff" stroke-width=".617" d="M19.5 51.13c-4.63-.78-10.61-4.42-13.97-8.5-1.55-1.89-1.59-1.95-2.94-4.35C1.38 36.11 0 31.88 0 30.31c0-.66.18-.17.44 1.19.56 2.89 2.19 6.85 3.58 8.61.15.2.28.43.28.51 0 .07.09.19.2.26s.2.17.2.23c0 .16 1.07 1.46 1.4 1.71.17.12.3.27.3.32.01.31 2.53 2.64 3.69 3.4 3.27 2.14 3.58 2.32 5.34 3.05 1.66.69 4.24 1.41 5.03 1.41.13 0 .26.05.29.1.06.1-.73.12-1.25.03Zm10.95-.03c.16-.05.84-.19 1.5-.31 3.43-.62 7.6-2.77 10.86-5.58 1.42-1.21 3.89-3.97 3.89-4.32 0-.06.21-.44.48-.84 1.92-2.97 3.18-6.16 3.73-9.45.13-.82.29-1.14.29-.59 0 1.34-1.37 6.06-2.11 7.29-.05.08-.29.53-.54 1-1.27 2.36-1.77 3.1-3.45 5.04-3.02 3.49-8.93 7.01-12.99 7.71-.92.17-2.2.2-1.66.05Zm-4.05-4.06c-.19-.02-.96-.11-1.7-.2-6.22-.71-11.55-3.25-14.95-7.13-1.18-1.35-1.19-1.38-1.11-2.97l.07-1.32-1.26-.88c-1.68-1.17-1.8-1.35-2.39-3.66-1.53-5.97-.41-12.54 2.92-17.08 2.91-3.96 7.43-7.98 10.23-9.08C23 2.83 30.29 4 35.7 7.54c7.41 4.84 9.24 7.23 10.64 13.91 1.14 5.47-.28 12.59-2.76 13.86l-.4.21.22.2c1.04.97.64 2.24-1.35 4.24-4.75 4.77-11.08 7.64-15.65 7.08Zm3.07-.43c.19-.06 1.19-.84 2.39-1.88 1.14-.98 3.09-2.65 4.33-3.72 2-1.72 5.53-4.82 6.05-5.32.18-.17.18-.18-.17-.33-.99-.41-.99-1.22-.02-3.17 1.28-2.54 1.47-3.42 1.46-6.56-.02-6.29-2.62-11-8.21-14.86-2-1.38-3.7-2.11-6.14-2.66-1.71-.39-2.24-.74-2.14-1.42.03-.22.05-.2.23.16.27.53.59.69 1.99 1C34.6 9 39.82 13.1 42.11 17.94c1.23 2.62 1.59 4.2 1.66 7.23.08 3.46-.12 4.41-1.46 7.12-.99 2-.96 2.58.18 2.92 2.5.75 4.78-6.98 3.76-12.76-1.16-6.62-2.7-9.01-8.46-13.13-2.94-2.1-4.52-2.99-6.65-3.72-9.64-3.32-14.91-1.53-22.4 7.65-2.87 3.52-4.37 8.48-4.04 13.42.2 3.03.88 5.88 1.59 6.64.28.3 2.43 1.8 2.49 1.74.13-.12-.25-3.05-.62-4.92-1.01-5-.86-7.55.65-11.44.89-2.29 2.16-3.85 5.09-6.31 1.63-1.36 4.9-3 4.9-2.45 0 .06-.26.2-.58.3-1.64.52-3.41 1.67-5.48 3.56-2.13 1.93-2.95 3.08-3.76 5.23-1.43 3.77-1.54 6.17-.53 11.21.29 1.46.48 2.72.56 3.72.09 1.36.13 1.52.33 1.7 5.79 5.12 7.44 6.12 11.94 7.25.45.12.57.3.18.3-.67 0-3.96-1.18-5.48-1.97-1.19-.61-2.01-1.23-4.7-3.53l-2.23-1.92-.13.74c-.24 1.39-.13 1.7 1.17 3.17 1.76 1.99 5.14 4.25 8.01 5.36 3.24 1.26 9.5 2.12 11.37 1.56Zm2.43-.54c3.62-1.14 7.4-3.58 10.31-6.65 1.39-1.47 1.69-2.18 1.3-3.1-.39-.93-.63-.82-3.13 1.4-1.01.9-2.46 2.17-3.23 2.83-1.31 1.12-6.58 5.67-6.8 5.87-.14.13.48-.01 1.55-.35Zm-8-5.44c-3.93-.61-6.39-1.81-9.17-4.46-5.78-5.51-5.86-15.13-.17-20.57 3-2.87 5.35-4.27 8.09-4.81 1.09-.22 4.77-.19 5.83.04 5.86 1.29 11.41 6.98 12.04 12.35.32 2.77-.71 4.55-2.19 3.78-.6-.3-.76-.67-.85-1.95-.71-9.9-12.32-14.9-19.47-8.39-.5.46-.49.42-.03.56 1.29.39 2.04 2.02 1.57 3.43-.3.89-1.53 1.95-1.88 1.6-.06-.06.04-.15.29-.26 2.07-.86 1.81-4.32-.34-4.52-1.58-.15-4.02 4.74-4.02 8.05 0 6.61 5.94 12.23 12.55 11.88 4.43-.23 8.09-2.6 10.84-7.01 1.41-2.25 2.73-2.73 3.41-1.22.48 1.05.22 1.86-1.17 3.72-3.28 4.38-7.04 6.99-11.09 7.69-.82.15-3.53.2-4.24.09Zm3.12-.23c4.34-.41 8.45-3.02 11.82-7.49 1.51-2.02 1.69-2.44 1.41-3.38-.48-1.61-1.66-1.21-3.06 1.02-4.57 7.33-12.53 9.29-18.84 4.63-5.21-3.85-6.46-10.36-3.08-16.01.99-1.65 3.75-4 5.62-4.78 7.64-3.2 16.23 2.08 16.81 10.32.11 1.54.35 1.98 1.16 2.15 1.3.26 1.89-2.74 1.04-5.36-1.64-5.04-6.77-9.56-11.86-10.45-3.08-.54-6.6-.02-8.87 1.31-2.18 1.27-5.46 4.22-6.4 5.75-3.5 5.68-2.63 13.22 2.05 17.74 2.68 2.6 5.08 3.84 8.48 4.39 1.59.26 2.3.29 3.72.16Zm-2.78-5.9c-4.52-.82-7.74-4.49-7.74-8.84 0-1.9 2.88-2.29 3.14-.43.02.18.09.69.15 1.14.3 2.41 1.98 4.24 4.46 4.88 3.7.95 7.43-2.07 7.22-5.85-.18-3.17-2.27-5.36-5.46-5.69-1.45-.15-1.96-.58-1.96-1.63 0-2.76 5.62-1.69 8.26 1.58 3.01 3.73 3.23 7.69.63 11.11-2.21 2.9-5.5 4.31-8.7 3.73Zm3.23-.36c3.06-.63 5.96-3.49 6.79-6.69.98-3.81-1.75-8.69-5.67-10.15-2.39-.89-4.29-.57-4.29.72 0 .93.43 1.25 1.9 1.43 4.34.54 6.85 4.95 4.98 8.75-2.8 5.69-11.26 4.02-11.75-2.32-.16-2.14-2.7-2.21-2.65-.07.12 5.39 5.32 9.44 10.69 8.33Zm23.59-12.56c-.03-.18-.08-.58-.11-.88-.22-1.99-1.85-6.54-3-8.39-.05-.09-.25-.43-.44-.76-.45-.78-1.02-1.63-1.32-1.96-.13-.14-.3-.37-.38-.52-.23-.43-2.31-2.57-2.56-2.63-.13-.03-.26-.12-.29-.2s-.1-.14-.16-.14c-.1 0-1.92-1.41-2.5-1.94-.62-.57-1.94-1.36-2.26-1.36-.08 0-.14-.03-.14-.07 0-.05-.2-.16-.44-.26-.23-.1-.52-.25-.62-.35-.22-.19-1.24-.72-1.4-.72-.06 0-.24-.07-.4-.15-.43-.21-2.62-.81-3.84-1.04l-1.05-.2.96.04c.97.04 2.74.44 3.74.84 3.56 1.43 7.04 3.7 9.6 6.26.85.85 1.95 2.16 1.95 2.32 0 .05.09.18.2.28.38.34 1.65 2.48 2.45 4.1.99 2 2.03 5.5 2.12 7.08.05.94-.01 1.31-.11.65ZM.01 20.54c-.03-1.64 1.54-5.98 3.12-8.64C7.1 5.22 15.16-.05 21.3.01l1.25.02-1 .08C14.31.74 6.85 5.72 3.15 12.4c-.25.47-.53.96-.61 1.1-.75 1.27-1.82 4.48-2.42 7.2l-.1.45zM17.52 9.38c.19-.57 6.29-2.19 6.45-1.72.02.06-.47.19-1.24.32-1.44.23-2.59.55-4.12 1.13-1.19.44-1.14.43-1.09.27Z"/></svg>