<svg xmlns="http://www.w3.org/2000/svg" width="51" height="51" viewBox="0 0 51 51"><path fill="#fff" fill-rule="evenodd" stroke="#fff" stroke-width=".773" d="M24.46 44.49C17.1 43.71 9.16 35.33 6.96 26c-1.39-5.86-.33-10.84 2.99-14.14 5.5-5.44 19.02-6.76 27.4-2.67 5.1 2.49 7.5 6.37 7.49 12.11-.01 6.88-3.95 14.63-9.89 19.45-3.57 2.89-6.98 4.11-10.49 3.74Zm3.89-.63c4.82-1.24 9.26-4.92 12.54-10.41 4.92-8.22 5-16.62.22-21.35-6.76-6.7-23.91-6.79-30.89-.16C6.05 15.9 5.44 22.79 8.6 30.15c4.09 9.53 12.7 15.51 19.75 13.71Zm-4.59-.36c-.48-.1-.91-.21-.94-.24-.16-.17.17-.17.9 0 1.71.38 4.01.2 5.66-.45.41-.16.52-.18.52-.07 0 .19-1.23.63-2.27.81-1.15.2-2.77.18-3.87-.05Zm11.94-4.72c.01-.07.37-.42.81-.78 1.51-1.21 3.03-3 4.07-4.78.64-1.09.78-1.29.87-1.2.1.1-.97 1.93-1.74 2.96-1.23 1.64-4.02 4.29-4.01 3.8Zm-12.95-7.52c-.42-.18-.82-.68-.96-1.19-.2-.73-.03-9.13.19-9.5.41-.71 1.17-.93 1.98-.58.87.39 7.07 4.15 7.45 4.52.59.59.59 1.56.01 2.19-.15.16-1.91 1.26-3.91 2.46-3.86 2.3-4.1 2.4-4.76 2.1Zm4.76-2.38c4.01-2.41 4.09-2.47 4.09-3.28s-.09-.88-3.91-3.17c-4.25-2.54-4.45-2.63-5.15-2.17-.54.36-.54.36-.54 5.29 0 5.03-.01 4.97.63 5.35.72.44.81.4 4.88-2.02Zm-3.98-3.1c.04-1.5.11-2.76.17-2.82.1-.1.81.48 3.17 2.57.73.65 1.33 1.22 1.33 1.28 0 .22-.27.04-1.04-.69-.91-.85-3.11-2.75-3.26-2.8-.06-.02-.1.41-.1 1.06 0 1.9-.12 4.12-.23 4.12-.07 0-.08-.92-.04-2.72Zm19.9-3.45c.04-.38.07-.98.07-1.35 0-.39.04-.68.1-.68.11 0 .14 2.27.04 2.54-.16.41-.27.13-.21-.51Z"/></svg>