<svg xmlns="http://www.w3.org/2000/svg" width="51" height="51" viewBox="0 0 51 51"><path fill="#fff" fill-rule="evenodd" stroke="#fff" stroke-width=".785" d="M13.83 42.92c-2.58-.92-3.25-4-1.27-5.81.31-.28.6-.51.65-.51s.09-3.8.09-9.53v-9.54l-.25-.11c-2.12-.97-2.23-4.47-.17-5.72l.41-.25.01-1.85c0-2.56-.16-2.31 1.54-2.28l1.41.03.03 2.01.02 2.01.4.18c.22.1.62.41.88.69l.47.51 1.3-.03c6.69-.16 8.24 1.53 8.29 9.01l.01 2.39.47.33c1.78 1.3 1.83 3.81.1 5.35l-.55.49.06 2.98c.08 4.71-.02 4.57 3.37 4.74 2.49.11 2.71.09 3.04-.42.14-.21.51-.57.81-.8l.55-.41-.01-9.37v-9.36l-.59-.38c-2.86-1.84-1.4-6.12 2.1-6.12 3.45 0 4.85 4.37 1.97 6.2l-.47.3v4.16c0 2.29-.03 6.52-.07 9.41l-.06 5.26.39.2c.48.25 1.14.94 1.46 1.54.34.63.33 2.12-.01 2.81-1.07 2.19-3.95 2.73-5.66 1.08l-.5-.49-2.5-.05c-3.47-.07-4.51-.35-5.67-1.51-1.3-1.3-1.65-2.74-1.72-7.1l-.05-2.78-.59-.53c-1.59-1.44-1.53-3.74.13-5.1l.47-.39-.05-2.71c-.07-3.51-.28-4.57-.94-4.83-.58-.23-1.52-.32-3.29-.32h-1.83l-.43.46c-.24.25-.62.57-.85.71l-.43.25v18.76l.24.06c.41.1 1.33 1.03 1.63 1.64.37.76.4 2.01.06 2.75-.75 1.62-2.81 2.56-4.4 1.99Zm1.82-.17c2.9-.47 3.53-4.54.9-5.91l-.55-.29.02-9.5.03-9.5.49-.26c.27-.14.68-.47.91-.74l.42-.47h1.94c1.94-.01 2.95.09 3.46.34.72.34 1.02 1.81 1.1 5.34l.06 2.51-.46.33c-1.76 1.26-1.82 3.66-.14 5l.57.45v2.6c0 4.29.34 5.85 1.56 7.15 1.15 1.23 3.28 1.7 6.92 1.53l1.12-.06.58.55c1.19 1.14 2.5 1.35 3.89.64 2.3-1.18 2.41-4.39.18-5.57l-.45-.24v-19.1l.54-.32c1.83-1.1 2.06-3.62.45-5.07-1.42-1.27-3.75-1.05-4.9.48-1.14 1.51-.69 3.64.97 4.61l.44.26v9.59c0 5.28-.04 9.6-.08 9.6-.22 0-1.01.64-1.37 1.11l-.39.52-2.26-.06c-4.03-.1-3.95 0-4.13-5.01l-.11-3.09.3-.2c2.03-1.44 2.15-4.05.25-5.37l-.5-.35-.04-2.9c-.1-7.01-1.3-8.35-7.54-8.37-1.12 0-2.03-.04-2.03-.07 0-.21-.78-.93-1.25-1.17l-.55-.26V7.5h-2.4v3.99l-.44.3c-2.07 1.42-2.11 4.08-.1 5.37l.54.35v19.08l-.54.41c-1.74 1.27-1.91 3.47-.4 4.9.7.66 1.68 1.05 2.39.94.11-.01.38-.06.6-.09Z"/></svg>