<svg xmlns="http://www.w3.org/2000/svg" width="51" height="51" viewBox="0 0 51 51"><path fill="#fff" fill-rule="evenodd" stroke="#fff" stroke-width=".702" d="M9.15 44.52c-1.44-.5-2.21-1.32-2.61-2.79-.23-.85-.21-31.62.02-32.51.29-1.11 1.05-2 2.12-2.5l.57-.27 16.22-.03 16.22-.02.56.21c1.11.41 1.98 1.33 2.35 2.48.21.66.21.74.24 16.16.02 9.28 0 15.74-.06 16.1-.21 1.36-.98 2.42-2.16 2.98l-.67.32-16.15.02c-15.12.02-16.18.01-16.65-.15Zm33.08-.3c1.25-.51 2.02-1.48 2.27-2.84.16-.85.05-31.49-.11-32.03-.37-1.27-1.38-2.32-2.51-2.59-.15-.03-7.48-.07-16.3-.07L9.55 6.67l-.6.23c-.91.35-1.76 1.24-2.06 2.16l-.22.69v15.7c.01 17.12-.02 16.28.57 17.29.51.88 1.52 1.5 2.68 1.65.35.05 7.63.08 16.18.07l15.55-.01zm-31.93-.96C9.14 43 8.38 42.3 8.06 41.2c-.14-.48-.16-1.15-.14-4.7l.03-4.15.95-.06c1.25-.09 33.09-.09 33.8-.01l.55.07.09 3.75c.13 5.52-.04 6.19-1.74 6.99l-.55.26-15.1.02c-11.62.01-15.23-.01-15.65-.11Zm30.86-.31c.74-.22 1.29-.67 1.61-1.33.34-.68.4-2.27.28-6.6l-.07-2.52-17.37.02-17.36.03v8.6l.29.53c.4.72.99 1.16 1.79 1.32.83.16 30.27.12 30.83-.05Zm-26.9-2.71c-.09-.23-.07-1.37.02-1.52.07-.09.95-.12 4.08-.1l3.99.03v1.7l-4.01.03c-3.6.02-4.02.01-4.08-.14Zm7.84-.74v-.6h-7.6v1.2h7.6zm-7.8-3.45v-.85l4.02.02 4.03.03v1.6l-4.03.03-4.02.02zm7.8-.05v-.6l-3.78.02-3.77.03-.03.57-.03.58h7.61zM8.02 31.02c-.1-.07-.12-1.24-.1-5.53l.03-5.44 1.5-.06c1.94-.08 28.26-.08 31.4 0l2.4.06.03 5.44c.02 4.29 0 5.46-.1 5.53-.17.1-34.99.1-35.16 0ZM43 25.56c0-4.68-.02-5.25-.16-5.3-.21-.08-33.44-.08-34.12 0l-.52.07V30.8H43zm-28.76.71c-.03-.08-.04-.47-.02-.88l.03-.74h8.1v1.7l-4.03.03c-3.31.02-4.03 0-4.08-.11Zm7.86-.77v-.6h-7.6v1.2h7.6zM9.32 18.83l-1.43-.04.03-4.37c.03-4.22.04-4.39.24-4.83.31-.66.86-1.23 1.47-1.5l.52-.24 14.5-.05c17.64-.06 16.83-.1 17.84.91.78.77.76.62.79 5.6l.03 4.46-.98.06c-.94.07-30.07.06-33.01 0Zm33.66-4.6-.03-4.38-.28-.48c-.31-.52-.94-.99-1.62-1.2-.31-.09-3.86-.12-15.45-.12-16.89 0-15.65-.06-16.52.73-.9.81-.96 1.28-.9 6.34l.05 3.48h34.78zm-25.53 3.05c-.03-.07-.06-.78-.07-1.58l-.03-1.45-1.52-.03-1.53-.03V12.4h3.09l.03-1.57.03-1.58h1.7l.03 1.57.03 1.57 1.57.03 1.57.03v1.7l-1.1.06c-.61.04-1.31.07-1.57.08l-.48.01v3.1h-.85c-.59 0-.87-.04-.9-.12Zm1.45-1.57c0-1.87-.13-1.71 1.44-1.71 1.82 0 1.78.01 1.74-.74l-.03-.61-1.57-.03-1.58-.03V9.5h-1.2v3.1h-1.29c-.71 0-1.43.03-1.6.06l-.32.07.03.61.03.61 1.55.05 1.55.05.03 1.53.03 1.52h1.19z"/></svg>