<svg xmlns="http://www.w3.org/2000/svg" width="51" height="51" viewBox="0 0 51 51"><path fill="#fff" fill-rule="evenodd" stroke="#fff" stroke-width=".402" d="M1.8 26c0-23.73 0-23.8.2-23.8.17 0 .2.07.2.46v.46l.28-.29c.67-.73-1.08-.67 18.77-.67 9.79-.01 19.81.01 22.26.04l4.46.05.4.28c.22.15.46.39.54.54.14.26.14.25.19-.32.03-.34.1-.6.17-.63.1-.03.13 4.78.13 23.82V49.8H1.8zm47.3 23.24c0-.14-.04-.23-.09-.19-.17.1-.24-.18-.08-.3.12-.08.17-.27.17-.56-.01-.38-.02-.41-.12-.24-.06.11-.25.35-.42.53-.63.67 1 .63-23.11.57-24.22-.07-22.32-.01-22.99-.76l-.36-.39v.45c0 .33.04.45.15.45.08 0 .15.07.15.15s-.07.15-.15.15-.15.09-.15.2c0 .2.07.2 23.5.2h23.5zm-14.46-.63c.62-.39.95-1.41.96-2.99v-.52H2.2v1.05c0 1.35.25 1.98.95 2.38.19.12 3.92.15 25.08.25 5.91.02 6.1.02 6.41-.17Zm6.67-.03c.8-.54 1.25-2.5.74-3.2l-.2-.27-2.96-.01h-2.95l-.11 1.23c-.11 1.28-.24 1.69-.71 2.2l-.26.27h3.06c3 0 3.06 0 3.39-.22Zm6.31.12c.99-.28 1.37-.99 1.38-2.52V45.1h-6.81l.17.32c.39.75.07 2.44-.58 3.09l-.3.29h2.89c1.67 0 3.04-.04 3.25-.1Zm-9.85-3.89L49 44.8v-5.86l-23.4-.03-23.4-.02v5.91l5.53.02c3.03.02 8.51.02 12.17.01 3.66 0 11.7-.01 17.87-.02Zm3.83-6.66.54-.55-.97-.98c-.53-.53-.97-1.01-.97-1.05s.43-.49.95-.99c.52-.49.95-.96.95-1.03s-.43-.52-.95-1-.95-.91-.95-.95.43-.49.95-1.01c.52-.51.95-.95.95-.99 0-.03-.43-.5-.95-1.05s-.95-1.02-.95-1.05.44-.46.97-.96l.98-.91-.97-1.03-.97-1.04.95-.98.96-.99-.97-1.01-.97-1.02 1.02-1 1.02-.99-1.01-1.01-1.01-1.01.95-.95c.52-.52.95-.99.95-1.05 0-.05-.44-.54-.98-1.08l-.97-.98.98-.92c.54-.51.97-.95.97-1 0-.04-.4-.52-.9-1.06-.49-.55-.9-1.02-.9-1.05s.4-.45.89-.93c1.08-1.06 1.21-1.37 1.03-2.41-.27-1.62-.49-1.71-4.41-1.71l-3.04-.01.41.44c.58.63.63.97.6 4.55l-.03 3.04-.42.12c-1.01.3-1.68 1.32-1.48 2.25l.07.3h2.29c2.59 0 2.43-.06 2.31.85l-.07.6-1.33.03c-1.07.02-1.32.05-1.32.17s.25.15 1.32.17l1.33.03v1.6l-1.22.03-1.23.03v.69h2.5v1.8h-2.6v.6h2.6v1.6h-2.6v.8h2.58l.04.43c.07.68.1.67-1.33.67H35.9v1.3h2.6v1h-2.6v.6h2.58l.04.43c.07.64.02.67-1.38.67H35.9v.6h2.58l.04.68c.02.37.02.82 0 1l-.03.32h-1.07c-1.33 0-1.52.05-1.52.36v.24h2.6v1.5h-2.6v.6h2.57l.06.43c.08.58.03.61-1.37.65l-1.23.04-.07.52c-.08.69-.08 4.41.01 4.49.03.04 1.22.07 2.63.07h2.56zm6.07.45H49V3.77l-.25-.42c-.47-.81-.4-.8-3.94-.83l-3.14-.03.28.33c.43.5.57.94.58 1.78.01.95-.13 1.2-1.17 2.17l-.73.68.88.99c.49.54.89 1.05.89 1.15 0 .09-.41.55-.92 1.02l-.93.87.75.78.75.79 2.1.05 2.1.05v5.8l-2.55.03c-2.44.02-2.55.03-2.77.24-.27.25-.22.38.17.38.26 0 .29.04.32.38l.03.37 1.88.03 1.87.02v-.39c0-.42.11-.51.58-.51.44 0 .54.13.5.61-.03.43-.04.44-.4.47-.6.05-.58.62.02.62h.41l-.03 1.33-.03 1.32-.37.03c-.32.03-.38.07-.38.27s.06.24.38.27l.37.03v1.8l-.37.03-.38.03v1.28l.31.03c.66.06.69 1.08.04 1.08-.31 0-.35.03-.35.25 0 .2.05.25.24.25.75 0 .85 1.03.11 1.12-.54.06-.49.58.05.58h.41l-.03 1.33-.03 1.32h-1l-.03-.37-.03-.38h-.65c-.61 0-.64.01-.64.24 0 .48-.09.56-.61.56h-.49v-.8h-1.04l.39.41.4.41-1.03.96-1.02.97.95.95c1.09 1.09 1.11 1.14.5 1.66-.69.58-.69.58 1.97.51 1.33-.04 3.01-.07 3.75-.07Zm-12.13-4.02c.1-5.6.16-18.93.09-19.5-.05-.42-.09-.48-.29-.48-1.43 0-2.29-2.15-1.38-3.41.28-.39.87-.79 1.37-.94.17-.04.18-.24.15-3.27-.03-3.64-.06-3.76-.81-4.28l-.37-.25H3.44l-.42.28c-.8.53-.82.61-.82 4.35v3.29l.38.07c2.14.34 2.13 3.72-.01 4.15l-.32.07-.03 11.97L2.2 38.6h33.28zm-11.67-2.2c-.35-.68-1.37-2.65-2.26-4.38-.9-1.73-1.66-3.18-1.69-3.22-.04-.03-.85.7-1.8 1.63l-1.72 1.68.1 1.08c.18 1.94.2 1.85-.62 2.69-.39.41-.77.74-.84.74-.08 0-.52-.75-.98-1.67l-.85-1.68-1.65-.82c-.95-.47-1.66-.89-1.66-.97 0-.07.3-.44.67-.81l.67-.68 1.53.07 1.54.07 1.75-1.72c.96-.95 1.71-1.76 1.67-1.8-.08-.08-.55-.32-6.1-3.24-1.55-.82-2.85-1.55-2.88-1.62-.08-.21 1.73-1.92 2.04-1.93.26 0 3.01.68 6.66 1.65 1.32.35 2.85.75 3.4.89l1 .26 2.45-2.43c2.9-2.88 2.88-2.87 3.49-2.87.74 0 1.51.64 1.51 1.25 0 .73-.17.94-2.8 3.6l-2.58 2.6L25.26 26c.73 2.89 1.34 5.36 1.34 5.5 0 .26-1.72 2.1-1.97 2.1-.07 0-.41-.55-.76-1.22Zm19.64.92c.05 0 .09-.11.09-.25 0-.21-.05-.25-.3-.25s-.3.04-.3.23c0 .29.09.39.28.32.07-.03.18-.05.23-.05Zm-18.52-7.18-1.39-5.47 2.6-2.6c1.42-1.43 2.64-2.73 2.69-2.88.32-.85-.18-1.57-1.09-1.57h-.53l-2.68 2.66-2.67 2.66-2.19-.57c-10-2.63-8.89-2.46-9.86-1.55-.42.4-.77.76-.77.8 0 .08 1.5.89 6.47 3.5 1.39.72 2.56 1.36 2.6 1.42.03.07-.77.93-1.86 2l-1.92 1.88-1.53-.06-1.54-.07-.51.48c-.28.26-.51.54-.51.61s.7.48 1.55.91l1.54.77.82 1.55c.44.86.83 1.58.85 1.6.03.03.32-.22.65-.55l.61-.59-.07-1.2c-.03-.66-.08-1.34-.11-1.51-.05-.29.06-.42 1.76-2.1.99-.98 1.89-1.8 1.98-1.82.18-.03 1.01 1.5 3.64 6.65l1.13 2.22.86-.85.86-.86zm13.29 6.9c.03-.21.01-.22-.97-.24-.56-.01-1.09-.02-1.19-.02-.11-.01-.18.08-.2.27l-.03.28 1.18-.03c1.14-.03 1.18-.04 1.21-.26Zm7.72-.78v-1.05l-.27.03c-.24.02-.29.08-.31.36-.05.51-.95.46-1-.05-.03-.27-.07-.33-.28-.33-.23 0-.24.03-.24.65v.64l.78.03.77.03.03.38c.03.32.07.37.28.37.24 0 .24 0 .24-1.06Zm-3.22-.41-.03-.68-.37-.03c-.37-.03-.38-.04-.38-.43 0-.46-.13-.5-.52-.13-.22.22-.25.31-.17.46.18.34.07.83-.2.86l-.23.04.28.29c.25.27.34.29.96.29h.69zm.8 0c-.03-.62-.05-.68-.25-.71-.21-.03-.23.01-.23.45 0 .26-.03.58-.06.7-.06.2-.03.23.25.23h.32zm-5.38-.63v-.5h-2.3v.89l.78.04c.42.01.94.04 1.15.05l.37.02zm4.58-.58c-.02-.21-.08-.27-.28-.27s-.26.06-.28.27c-.03.25 0 .28.28.28s.31-.03.28-.28Zm.82-.42v-.7h-.8v-.4c0-.36-.02-.4-.25-.4-.33 0-.41.23-.26.67.1.26.1.38.02.46-.19.19-.12.26.31.29l.43.03-.03.38c-.03.35-.02.37.27.37h.31zm.8-.5v-1.2h.4c.38 0 .4-.02.4-.3s-.02-.3-.4-.3h-.4v-.8h-1.3v.29c0 .27.03.3.38.33.63.05.61.98-.03.98-.32 0-.35.02-.35.3s.02.3.4.3h.4v.8c0 .79 0 .8.25.8h.25zm.8.8v-.4h.4c.38 0 .4-.02.4-.3s-.02-.3-.4-.3h-.4v-.4c0-.36-.02-.4-.25-.4h-.25v2.2h.25c.23 0 .25-.04.25-.4Zm-6.95-1.15c0-.19-.08-.2-1.09-.23-1.11-.03-1.34.03-1.23.33.11.27 2.32.18 2.32-.1ZM42 28.7c0-.17.07-.2.4-.2.38 0 .4-.02.4-.3s-.02-.3-.4-.3H42v-.8h-.52c-.78 0-1.23.46-.5.52.34.03.37.06.42.38.08.59.6 1.19.6.7Zm-3.8-.4v-.31l-1.12.03-1.13.03-.03.28-.03.27h2.31zm5.4-.1c0-.25-.04-.3-.25-.3s-.25.05-.25.3.04.3.25.3.25-.05.25-.3Zm2.4 0c0-.25-.04-.3-.25-.3s-.25.05-.25.3.04.3.25.3.25-.05.25-.3Zm-3.2-.89v-.39l.8-.07c.91-.08 1.1 0 1.1.46 0 .24.04.29.25.29.24 0 .25-.02.25-.64v-.65l-.37-.03c-.52-.04-.66-.92-.17-1.04.45-.11.79.06.82.44.03.26.07.32.28.32.23 0 .24-.03.24-.64v-.65l-.38-.03c-.35-.03-.37-.05-.4-.4-.05-.55-.62-.59-.62-.04 0 .41-.11.46-.93.46-.75 0-.84-.06-.89-.5-.03-.3-.07-.35-.28-.35-.3 0-.42 1.02-.19 1.58.13.3.12.32-.46.84l-.58.53h.36c.58 0 .66.06.6.51-.06.38-.05.39.26.39.29 0 .31-.02.31-.39Zm-4.5-.66v-.25h-2.4v.5h2.4zm4.57-.41c-.04-.04-.07-.27-.07-.51v-.43h.5c.58 0 .68.12.53.63-.09.32-.74.53-.96.31Zm-4.59-1.22c.03-.22.01-.22-1.17-.22-1.19 0-1.21 0-1.21.23 0 .35 2.33.34 2.38-.01Zm4.25-1.4.52.03.03.38.03.37h1.29v-.8h.4c.36 0 .4-.03.4-.25v-.24l-1.17-.03-1.18-.03-.03-.77c-.04-1.21-.62-1-.62.22v.5l-.39.06c-.37.06-.4.09-.43.43-.02.29-.07.37-.27.39-.22.04-.2.07.3.58l.54.55.03-.71.03-.71zm3.52-1.07V21.5h-.27c-.23 0-.27.05-.3.33l-.03.32-.93.03-.93.03.03-.48.03-.48.78-.03.77-.03v-.59h-1.8c-.99 0-1.8.04-1.8.08 0 .22.45.47.93.52l.52.05.03.78.03.77h1.07c1.17 0 1.32.06 1.32.52 0 .24.04.28.28.28h.27zm-7.75.11c0-.26-.44-.36-1.72-.36h-.68v.6h1.2c1.19 0 1.2 0 1.2-.24Zm3.7-.23v-.37l-.3.29c-.16.16-.3.32-.3.37 0 .04.14.08.3.08.28 0 .3-.03.3-.37Zm3.2-.68c0-.24-.02-.25-.65-.25s-.65.01-.65.25.02.25.65.25.65-.01.65-.25Zm-7-1.25V20h-2.3v1h2.3zm7.8-.4c0-.25-.04-.3-.25-.3s-.25.05-.25.3.04.3.25.3.25-.05.25-.3Zm-7.7-1.49c0-.17-.11-.2-1.05-.26-1.16-.08-1.35-.05-1.35.25 0 .19.06.2 1.2.2 1.11 0 1.2-.01 1.2-.19Zm7.03.12.67-.06v-5.24l-.77-.07c-2.25-.19-2.93-.07-2.93.5 0 .02.72.04 1.6.04h1.6v2.09c0 2.47.23 2.21-1.93 2.21-1.63 0-2.07.11-2.07.52 0 .09 2.85.11 3.83.01Zm-7.05-.91-.03-.27-1.13-.03-1.12-.03v.61h2.31zm6.97-1.34c.04-.79.03-1.63-.02-1.88l-.09-.45-1.64.03c-2.07.04-2.1.06-2.1 1.36 0 .74.02.85.24 1.05l.24.23.06-.64.09-1.03.02-.4h2.6l.03 1.19c.03 1.5.07 1.46-1.23 1.46-1.02 0-1.03 0-1.07.25l-.05.25h2.85zm-.85-.43V15h-2.2v2.1h2.2zm-6.2.1c0-.12-.19-.15-1.15-.15-.98 0-1.14.02-1.09.15.05.12.27.15 1.15.15.9 0 1.09-.03 1.09-.15Zm0-.7v-.25H36v.5h2.2zM3.3 13.83c.57-.65.36-1.86-.42-2.33-.67-.41-.68-.38-.68 1.34v1.54l.4-.1c.25-.07.52-.24.7-.45Zm34.18.4c-.49-.02-1.27-.02-1.75 0-.49.01-.09.03.87.03s1.36-.02.88-.03Zm.66-.29c.09-.03.16-.17.16-.3v-.24h-4.33l.19.22c.1.13.24.26.29.3.12.09 3.47.11 3.69.02Zm-34.2-1.61c-.15-.86-.61-1.4-1.36-1.61-.39-.11-.68.12-.3.24.89.29 1.33.67 1.53 1.34.15.5.22.52.13.03Z"/></svg>