<svg xmlns="http://www.w3.org/2000/svg" width="51" height="51" viewBox="0 0 51 51"><path fill="#fff" fill-rule="evenodd" stroke="#fff" stroke-width=".706" d="M6.75 38.8c-.07-.12-.03-26.37.04-26.49.07-.11 24.44-.34 32.01-.29l5.55.03v26.8l-18.77.03c-12.12.01-18.79-.01-18.83-.08ZM44.1 25.46V12.32l-.57-.04c-.9-.05-31.17.1-34 .18L7 12.52V38.6h37.1zM9.95 35.68c-.03-.07-.04-4.72-.03-10.33l.03-10.2 8.6-.08c4.73-.05 10.86-.05 13.63-.01l5.02.06v9.97c0 5.48-.03 10.13-.06 10.34l-.07.37H23.53c-10.74 0-13.55-.03-13.58-.12Zm29.02.05c-.16-.16-.08-3.51.09-3.57.09-.03.9-.06 1.8-.06h1.64v3.7h-1.73c-.96 0-1.77-.03-1.8-.07ZM36.9 25.46c0-9.06-.02-10.04-.16-10.1-.21-.08-25.48-.08-26.08 0l-.46.07V35.5h26.7zm5.4 8.49V32.4h-3.1v3.1h3.1zm-22.23-4.11c-.09-.99-.09-9.29-.01-9.37.11-.11 1.12.5 5.41 3.27 1.17.75 2.2 1.39 2.28 1.42.57.22.41.39-1.58 1.67-2.79 1.8-5.75 3.67-5.9 3.73-.11.04-.15-.13-.2-.72Zm3.05-1.37c2.96-1.89 4.25-2.72 4.45-2.89.13-.11-.1-.26-4.68-3.18-1.18-.76-2.25-1.43-2.37-1.49l-.22-.12v4.71c0 2.58.02 4.7.05 4.7s1.28-.78 2.77-1.73Zm15.78-.06c0-2.24-.21-2.01 1.86-2.01h1.74v3.7h-3.6zm3.4-.16V26.7h-3.1v3.1h3.1zm-3.36-3.88c-.02-.07-.03-.89-.02-1.82l.03-1.7 1.78-.03 1.77-.02v3.7h-1.75c-1.34 0-1.77-.03-1.81-.13Zm3.36-1.72V21.1h-3.1v3.1h3.1zm-3.33-4.02c-.04-.03-.07-.84-.07-1.8V15.1h1.79c.99 0 1.81.03 1.83.08.03.04.02.85 0 1.8l-.04 1.72h-1.72c-.95 0-1.76-.03-1.79-.07Zm3.31-1.7-.03-1.58-1.52-.03-1.53-.03v3.21h3.11z"/></svg>