<svg xmlns="http://www.w3.org/2000/svg" width="51" height="51" viewBox="0 0 51 51"><path fill="#fff" fill-rule="evenodd" stroke="#fff" stroke-width=".703" d="M24.78 44.11c-1.26-.8-.97-1.31 1.52-2.74 11.12-6.35 11.94-6.89 12.64-8.32.5-1.03.57-1.72.63-6.12.1-7.86-.2-9.2-2.42-10.78-1.91-1.36-8.74-5.18-10.08-5.64-1.89-.65-2.71-.37-8.42 2.9-5.66 3.25-6.24 3.73-6.77 5.65-.29 1.07-.41 12.73-.14 13.67.34 1.17 1.01 1.7 4.8 3.81 3.73 2.07 3.63 2.07 7.26.04 5.54-3.1 9.04-5.2 9.57-5.74.75-.77.78-1 .78-5.34 0-5.1.13-4.83-3.23-6.83-.99-.6-2.43-1.4-3.18-1.79l-1.37-.7-.79.04c-.87.04-1.55.34-4.37 1.98-3.03 1.75-3.74 2.36-4.08 3.48-.27.85-.27 8.21-.01 8.68.32.59 2.42 1.79 3.12 1.79.43 0 7.89-4.1 8.27-4.56.21-.23.36-2.61.23-3.36-.1-.55-.48-.88-1.89-1.68-1.21-.68-1.85-.53-3.82.88-.57.41-.57.4-.63 2.41l-.05 1.8-.31.18c-.8.47-1.7.32-1.99-.32-.27-.59-.18-4.04.12-4.71.29-.65 1.22-1.34 3.68-2.72 1.8-1.01 2.44-.86 5.7 1.31 1.56 1.05 1.65 1.27 1.65 4.35 0 2.75-.11 3.06-1.35 3.88-1.68 1.12-8.76 5.08-9.19 5.14-.89.14-1.61-.14-3.89-1.52-2.33-1.4-2.21-1.08-2.25-6.03-.06-8.28-.29-7.84 5.82-11.33 4.99-2.85 5.27-2.89 8.47-1.17 5.54 2.97 7.1 4.16 7.55 5.75.23.78.33 8.16.14 9.51-.31 2.18-.57 2.4-7.25 6.26-7.75 4.47-7.62 4.4-8.87 4.46-1.29.06-1.82-.14-4.85-1.88-6.76-3.85-6.44-3.3-6.5-11.03-.1-11.71-.18-11.53 6.32-15.29 10.7-6.2 9.83-6.09 16.82-2.12 8.26 4.7 8.9 5.2 9.53 7.44.38 1.39.53 7.52.3 12.5-.24 5.06-.1 4.91-10.15 10.72-6.69 3.86-6.19 3.65-7.07 3.09Zm2.07-.52c1.4-.78 8.51-4.89 10.15-5.87 1.29-.77 1.94-1.21 2.68-1.8l.43-.35-.29-.17c-.16-.1-.51-.43-.77-.73l-.49-.55-.55.5c-.73.65-2.2 1.56-7.27 4.49-6.1 3.52-6.25 3.62-6.37 3.87-.13.29.13.68.69.99.54.31.56.31 1.79-.38Zm-5.26-3.39c.5-.19 1.29-.62 2.94-1.57l.77-.45v-1.04c0-.57-.03-1.04-.07-1.04s-.7.36-1.47.79c-3.52 1.99-3.57 1.99-7.49-.22-2.75-1.55-3.58-2.09-4.11-2.68-.83-.92-.81-.73-.81-7.54 0-6.4.03-6.9.5-8.07l.22-.58-.43-.25c-.49-.29-.89-.76-1-1.19l-.07-.3-.24.3c-.89 1.1-.98 2.02-.98 9.79 0 9.16-.2 8.61 3.89 11.03 5.79 3.44 6.58 3.72 8.35 3.02Zm6.46-3.58c7.29-4.17 7.74-4.51 8.11-6.18.47-2.15.21-10.34-.34-10.68-.16-.1-1.73 1.04-1.68 1.22.5 1.64.46 8.11-.06 9.23-.46 1.01-.58 1.09-6.98 4.8l-1.45.85-.03 1.07-.03 1.08.23-.12c.13-.07 1.13-.64 2.23-1.27Zm12.77-1.92c.86-1.25 1.02-3 .95-10.48-.04-5.77-.08-6.17-.71-7.4-.46-.9-.49-.91-.77-.36-.21.43-.84 1.04-1.2 1.16-.09.03-.08.12.03.33.47.94.68 2.71.75 6.5.09 5.18-.12 7.62-.78 8.86-.36.68-.35.71.45 1.47.68.64.79.64 1.28-.08Zm-19.49-.46c.29-.15 1.3-.72 2.25-1.26l1.72-1v-2.2l-.32.2c-3.46 2.1-4.66 2.62-5.4 2.31-1.31-.53-2.59-1.49-2.8-2.08-.19-.54-.13-7.65.07-8.41l.2-.75c.04-.16-.11-.31-.82-.78-.96-.64-.92-.64-1.2.18-.21.63-.33 10.01-.13 10.74.14.54.55.94 1.71 1.66 2.7 1.68 3.6 1.95 4.72 1.39Zm6.12-3.49c1.58-.91 2.75-1.64 2.75-1.71 0-.08-1.46-1.14-1.55-1.12-.05.02-.76.41-1.57.88l-1.48.84v1.09c0 .59.03 1.06.08 1.04.04-.02.84-.48 1.77-1.02Zm3.25-2.37c.31-.69.27-5.68-.05-5.68-.02 0-.4.22-.84.48l-.81.49-.02 2.01-.01 2.02.69.55c.83.66.8.66 1.04.13Zm-8.96-.72.34-.14.04-1.74c.02-.95.07-1.8.11-1.89.09-.17-1.55-1.25-1.73-1.14-.33.2-.46 4.38-.14 4.83.18.26.85.3 1.38.08Zm1.38-4.6c.96-.67 2.14-1.26 2.53-1.26.38 0 1.32.47 2.4 1.2l.72.49.86-.5c.97-.56.98-.59.24-1.1-2.06-1.44-3.65-2.22-4.37-2.17-.7.05-4.8 2.34-4.8 2.68 0 .05 1.69 1.1 1.76 1.1.02 0 .31-.2.66-.44Zm-5.46-2.77c.41-.44 1.28-1.04 2.84-1.96 4.03-2.39 4.81-2.68 6.11-2.26 1.12.36 6.06 3.25 6.89 4.03l.49.45.81-.53c.93-.6.93-.61.1-1.34-.92-.81-6.74-4.18-8.08-4.68-1.52-.57-2.57-.17-8.17 3.15-3.34 1.98-3.45 2.12-2.32 2.88.97.66.95.66 1.33.26Zm-5.08-3.18c.6-.75 1.79-1.53 5.65-3.75 7.55-4.32 7.2-4.29 13.27-.88 4.39 2.47 5.92 3.44 6.84 4.33.67.66.71.66 1.38.01.45-.42.58-.9.35-1.25-.31-.48-2.77-2-8.22-5.09-6.18-3.51-6.31-3.52-11.77-.42-7.11 4.03-9.29 5.41-9.28 5.86.01.47.5 1.14 1.05 1.42.4.21.37.22.73-.23Z"/></svg>