<svg xmlns="http://www.w3.org/2000/svg" width="51" height="51" viewBox="0 0 51 51"><path fill="#fff" fill-rule="evenodd" stroke="#fff" stroke-width=".44" d="M10.75 45.62c-.03-.03-.05-.9-.05-1.92v-1.88l.52-.22c2.2-.95 5.04-1.2 13.59-1.2 9.79 0 12.71-.42 14.61-2.09.69-.61.68-.64.68 1.48v1.88l-.5.47c-.66.61-1.69 1.1-3.11 1.45-2.47.62-2.63.63-11.19.72-4.32.04-8.07.1-8.35.13-.27.04-.93.11-1.45.17-1.35.14-2.87.45-3.85.78-.46.15-.87.26-.9.23Zm1.15-.61c2.56-.8 6.37-1.07 13.78-.98 8.3.1 12.19-.49 13.74-2.1l.37-.38.03-1.61.03-1.6-.57.42c-2.13 1.57-4.23 1.84-14.78 1.94-9.06.09-10.69.22-12.95 1.07l-.5.19-.03 1.68c-.02 1.33 0 1.67.1 1.63.07-.03.42-.15.78-.26Zm-1.15-5.49c-.03-.03-.05-.88-.05-1.88 0-2.15-.1-1.97 1.33-2.38 2.55-.74 6.06-.99 14.07-1.01 5.53-.01 6.63-.04 7.7-.18 3.02-.43 4.86-1.03 5.71-1.88.22-.22.43-.39.48-.39.13 0 .21.9.21 2.33v1.28l-.51.54c-1.07 1.13-2.89 1.75-6.39 2.16-.56.07-4.1.14-8.6.19-9.08.09-10.52.2-13.12 1.03-.42.14-.8.22-.83.19Zm1.21-.61c2.41-.71 4.06-.82 12.89-.91 5.92-.06 7.97-.11 8.85-.23 3.18-.42 4.74-.94 5.74-1.95l.46-.46v-3.05l-.56.39c-1.08.75-2.9 1.3-5.59 1.67-1.13.15-2.15.18-7.85.18-4.27.01-7.04.06-7.95.14-3.29.28-5.3.61-6.42 1.03l-.53.19v1.66c0 1.36.02 1.64.14 1.6.07-.03.44-.15.82-.26Zm-1.24-13.08.03-6.38h4.1v12.7l-2.08.03-2.07.02zm8.38-.03v-6.4h4.17l.06 1.13c.09 1.45.09 6.85 0 9.55l-.06 2.12H19.1zm8.42.03.03-6.38h4.1v12.7l-2.08.03-2.07.02zm-4.48 5.39c.03-.37.06-3.11.06-6.1V19.7h-3.7v12.25l1.79-.03 1.78-.03zm-8.42-3.54c.03-4.37.03-5.22 0-6.95l-.02-1.03H11v12.2h3.6zm16.8.15c.01-2.25.01-4.98.01-6.08l-.02-2-1.8-.03-1.81-.02v12.2h3.6zm4.53 3.65c-.03-.07-.04-2.81-.03-6.08l.03-5.95h4.1l.08 1.4c.04.77.06 3.03.05 5.02l-.03 3.62-.37.38c-.87.89-3.66 2.06-3.83 1.61Zm2.33-.92c.37-.19.87-.52 1.12-.74l.45-.4.03-4.86.03-4.86H36.2v11.59l.71-.2c.39-.11 1-.35 1.37-.53ZM10.74 17.17c-.02-.07-.03-.93-.02-1.92l.03-1.8.3-.06c.39-.09 28.31-.09 28.7 0l.3.06v3.8l-14.63.03c-11.85.02-14.64 0-14.68-.11Zm27.64-.14 1.42-.06-.02-1.66-.03-1.66-14.37-.03L11 13.6v3.39l1.23.04c2.5.06 24.77.07 26.15 0Zm-27.64-4.76c-.02-.07-.03-.93-.02-1.92l.03-1.78 7.36-2.46 7.37-2.45 1.33.42c.74.24 4.02 1.34 7.29 2.46l5.95 2.02.03 1.92c.03 2.12.04 2.08-.62 1.82-.42-.16-27.29-.2-27.96-.04-.69.17-.7.17-.76.01Zm1.06-.37c.41-.11 3.65-1.18 7.19-2.37l6.44-2.17 7.11 2.38c3.91 1.3 7.14 2.37 7.19 2.37.04-.01.06-.76.05-1.68l-.03-1.66-.95-.33C28.08 4.78 25.74 4 25.45 4.01c-.11 0-3.39 1.07-7.3 2.37l-7.1 2.37-.03 1.68c-.01.92-.01 1.67 0 1.67.02 0 .37-.09.78-.2Zm25.38-.08c.4-.07.02-.21-5.65-2.12l-6.08-2.04-6.15 2.07-6.15 2.07 2.25.02c4.81.07 21.37.06 21.78 0Z"/></svg>