<svg xmlns="http://www.w3.org/2000/svg" width="51" height="51" viewBox="0 0 51 51"><path fill="#fff" fill-rule="evenodd" stroke="#fff" stroke-width=".785" d="M35.19 40.42c-.71-.75-1.25-1.54-2.17-3.17-1.23-2.17-2.09-3.13-3.84-4.28-5.53-3.64-5.19-8.46.93-13.07 1.08-.81 2.71-1.8 2.97-1.8.33 0 2.67 5.61 3.76 8.98.25.79.93 3.22 1.51 5.4.57 2.19 1.2 4.48 1.4 5.1.25.83.32 1.19.25 1.32-.33.61-3.19 2.2-3.96 2.2-.14 0-.45-.25-.85-.68Zm2.12-.01c.96-.42 1.8-.95 2.23-1.4l.29-.31-.36-1.17c-.2-.65-.82-2.91-1.37-5.03-.56-2.12-1.33-4.79-1.71-5.94-1.14-3.4-3.13-8.16-3.41-8.16-.2 0-1.92 1.06-2.83 1.75-4.46 3.36-5.75 7.02-3.59 10.17.6.88 1.18 1.39 2.74 2.43 1.84 1.22 2.67 2.18 4.12 4.74.81 1.41 1.26 2.07 1.95 2.81.65.71.59.7 1.94.11ZM22.23 26.65c-1.75-.76-2.25-3.1-1.01-4.74.29-.37.33-.51.33-1.01-.02-2.14-2.78-2.54-6.59-.95-.73.3-1.38.55-1.44.55-.19 0-1.23-1.42-1.58-2.15-.7-1.47-1.11-4.16-.7-4.58.45-.44 4.37-.59 6.21-.23 3.04.59 5.22 1.61 6.67 3.13.5.53 1.3 1.64 1.4 1.95.03.08.48-.03 1.3-.3.69-.23 1.32-.42 1.4-.42.32 0 1.73-1.9 1.91-2.57.13-.49.32-.55.65-.2.28.3.28.64-.03 1.62-.32 1.02-.31 1.11.05 1.42.39.32.38.54-.02.77-2.53 1.46-4.87 4.2-5.63 6.56-.22.69-.2.67-1.05 1.01-.78.32-1.37.36-1.87.14Zm1.94-.43c.55-.27.56-.28.87-1.12.88-2.33 2.55-4.3 5.08-6 .78-.52.78-.51.36-.89l-.32-.29.34-1.17c.24-.84.31-1.22.24-1.33-.18-.29-.3-.23-.5.25-.12.27-.52.9-.9 1.41l-.68.93-.86.25c-.47.14-1.14.36-1.5.5-.86.32-.79.34-1.25-.49-.8-1.45-2.55-2.87-4.4-3.58-2.5-.97-5.95-1.41-8.1-1.04-1.32.23-1.29.2-1.22 1.29.1 1.75.69 3.42 1.62 4.59.61.77.59.77 1.83.24 3.36-1.44 5.77-1.39 6.73.11.47.74.42 1.42-.16 2.26q-1.065 1.56-.36 2.94c.71 1.4 1.83 1.8 3.18 1.14Zm-1.72-.26c-1.68-.78-1.63-3.96.07-3.73.83.11 1.97 1.69 1.85 2.57-.13.97-1.09 1.55-1.92 1.16Zm1.21-.34c.71-.57.58-1.62-.32-2.61-.93-1.03-1.88-.61-1.88.84-.01 1.38 1.35 2.47 2.2 1.77Z"/></svg>