<svg xmlns="http://www.w3.org/2000/svg" width="51" height="51" viewBox="0 0 51 51"><path fill="#fff" fill-rule="evenodd" stroke="#fff" stroke-width=".635" d="M24.1 40.7c-6.62-.65-12.27-5.66-13.73-12.18-.34-1.52-.31-4.59.06-6.33 1.81-8.56 9.81-13.7 18.57-11.93 7.6 1.54 12.98 9.5 11.76 17.39-1.23 8.03-8.64 13.83-16.66 13.05Zm4.15-.45c10.66-1.92 15.78-14.32 9.67-23.45-7.21-10.76-24.51-7.43-27.18 5.23-.34 1.62-.43 4.24-.2 5.72 1.25 8.17 9.5 13.98 17.71 12.5Zm-4.6-1.3C12.61 37.22 7.9 24.64 15.1 16.11c4.06-4.8 12.1-6.05 17.55-2.71 7.77 4.75 9.01 15.23 2.57 21.69-3.01 3.01-7.48 4.51-11.57 3.86Zm4.06-.31c10.9-1.83 15.17-15.2 7.34-22.99-2.64-2.63-5.56-3.8-9.5-3.8-14.57 0-18.9 19.37-5.74 25.64 2.41 1.15 5.34 1.58 7.9 1.15Zm-4.34-.39c-7.01-1.15-11.98-8.02-10.82-14.96 1.93-11.53 16.6-15.08 23.57-5.69 5.16 6.95 2.01 17.11-6.22 20.05-1.93.68-4.54.93-6.53.6Zm4.58-.6c9.66-2.02 13.46-13.79 6.75-20.88-7.82-8.26-21.71-2.81-21.74 8.53-.02 6.44 4.52 11.53 11.19 12.54.62.09 3.03-.03 3.8-.19Zm-3.62-.16c-6.47-.64-11.29-6.2-11-12.69.5-10.99 14.03-15.67 21.32-7.37 7.19 8.18.54 21.12-10.32 20.06Zm3.45-.34c9.36-1.78 12.89-13.43 6.13-20.24-7.48-7.53-20.41-2.2-20.41 8.42 0 7.57 6.85 13.23 14.28 11.82Zm-3.88-1.31c-5.16-1.03-8.67-4.88-8.96-9.84-.31-5.14 2.89-9.45 8.06-10.87 1.02-.28 4.16-.25 5.25.05 4.76 1.31 7.79 5.3 7.8 10.27.01 4.88-3.06 8.86-7.84 10.16-.75.2-3.65.36-4.31.23Zm3.8-.38c6.93-1.51 10.35-9.47 6.62-15.46-4.61-7.42-16.04-6.04-18.65 2.25-2.36 7.51 4.34 14.88 12.03 13.21Zm-3.83-.06c-3.74-.59-6.98-3.49-8.14-7.27-.37-1.23-.4-4.02-.05-5.27 2.52-9 14.68-10.25 18.88-1.94 3.7 7.32-2.53 15.76-10.69 14.48Zm3.95-.49c6.62-1.72 9.55-9.17 5.82-14.78-3.43-5.15-10.41-5.9-15-1.6-4.95 4.63-3.5 12.83 2.79 15.77 1.9.89 4.4 1.13 6.39.61Zm-4.02-.46c-6.92-1.4-9.78-9.58-5.19-14.82 4.22-4.83 11.88-3.95 14.84 1.69 3.49 6.64-2.37 14.6-9.65 13.13Zm4.1-.65c6.34-1.83 8.36-9.7 3.7-14.41-6.63-6.71-17.73.72-14.1 9.43 1.04 2.52 3.3 4.44 5.9 5.03.41.09.8.19.85.21.33.13 2.96-.06 3.65-.26Zm-4.25-.36c-7.47-1.66-8.68-11.66-1.85-15.28 3.47-1.83 7.79-.92 10.12 2.15 3.57 4.7 1.5 11.39-4.02 12.99-1.01.3-3.23.37-4.25.14Zm3.63-.2c6.22-1.28 8.37-9.39 3.63-13.75C26 14.96 17.93 18.29 17.53 25c-.25 4.23 2.31 7.46 6.62 8.34.53.1 2.43.05 3.13-.1Zm-3.46-.64c-1.31-.35-3.9-2.04-3.6-2.35.03-.04.25.12.48.35 4.15 4.15 11.13 1.54 12-4.49 1.07-7.35-8.11-11.12-12.82-5.26-2.64 3.28-2.16 8.33 1.02 10.57.56.39.72.58.51.58-.22 0-1.35-.95-1.8-1.52-4.09-5.16-.2-12.9 6.38-12.65 5.25.19 8.36 5.08 6.45 10.16-1.32 3.49-5.16 5.55-8.62 4.61Zm.68-.69c-6.4-1.19-7.73-9.24-2.05-12.46 4.06-2.3 9.43.82 9.63 5.6.17 4.18-3.6 7.59-7.58 6.86Zm2.7-.36c3.87-1.03 5.83-5.5 3.98-9.09-2.51-4.86-9.24-4.69-11.53.29-2.26 4.91 2.28 10.21 7.55 8.8Zm-3.12-.5c-4.49-1.14-5.88-6.82-2.44-10.01 3.17-2.95 8.3-1.46 9.45 2.76 1.17 4.23-2.79 8.32-7.01 7.25Zm2.48-.16c3.46-.64 5.51-4.57 4.07-7.81-.14-.32-.27-.58-.29-.58-.01 0-.29.12-.62.26l-.59.26.18.37c1.61 3.34-1.6 7.16-5.03 6-4.77-1.6-3.42-8.54 1.61-8.27.47.03.94.09 1.04.13.18.07.18.04.12-.59q-.075-.66.03-.66c.06 0 .14.31.18.69.06.65.08.69.39.84l.33.16.2-.5c.12-.27.26-.49.31-.49.15 0 .14.04-.14.6l-.25.49.48.49.47.49.62-.21.62-.21-.33-.46c-1.97-2.7-5.97-2.94-8.35-.51-3.94 4-.55 10.52 4.95 9.51Zm-.14-1.63c2.27-.53 3.64-3.04 2.89-5.27-.32-.95-.31-.94-.82-.77l-.44.15.04.59c.1 1.48.06 2.08-.16 2.5-1.37 2.61-5.02 1.73-5.03-1.22 0-1.66 1.21-2.77 3.01-2.76h.68l.27-.4c.34-.48.23-.62-.53-.74-2.68-.4-5.05 1.81-4.79 4.45.24 2.39 2.54 4.02 4.88 3.47Zm.14-1.7c1.1-.51 1.73-2 1.33-3.15-.09-.27-.15-.3-.33-.24-.97.36-1.77-.39-1.21-1.13.23-.31.19-.34-.48-.34-1.2 0-2.1.51-2.53 1.44-1 2.14 1.13 4.39 3.22 3.42Zm.89-3.6c.42-.18.43-.25.1-.64-.5-.6-1.15-.44-1.15.29 0 .47.43.61 1.05.35Zm1.13-1.38c-.18-.27-1.02-.89-1.17-.88-.04.01-.18.2-.33.43l-.27.42.32.16c.18.1.4.26.5.37l.19.2.49-.2.49-.2zm2.82-1.07c0-.44-1.62-1.96-2.57-2.42-.53-.25-.8-.49-.57-.49.25 0 1.6.86 2.12 1.34.87.82 1.44 1.66 1.12 1.66-.05 0-.1-.04-.1-.09Z"/></svg>