<svg xmlns="http://www.w3.org/2000/svg" width="51" height="51" viewBox="0 0 51 51"><path fill="#fff" fill-rule="evenodd" stroke="#fff" stroke-width=".68" d="M4.1 51.13c-1.89-.34-4.21-3.04-4.08-4.76.03-.42.03-.41.21.28.53 2.1 1.76 3.49 3.66 4.15 1.08.37 1.16.5.21.33Zm42.21.03c.04-.04.36-.15.73-.26 1.93-.55 3.38-2.05 3.89-4.03.18-.69.27-.82.27-.4 0 1.48-1.39 3.42-3.05 4.24-.73.36-2.06.69-1.84.45Zm-22.86-4.23C6.75 44.88-1.32 25.74 8.92 12.49 17.74 1.07 35.55 1.75 43.55 13.8c7.67 11.56 2.32 27.55-10.71 32.03-2.84.98-6.7 1.43-9.39 1.1Zm4.35-.24c12.81-1.17 21.68-13.87 18.4-26.36C43.61 10.46 34.49 3.91 24.27 4.6c-13.83.93-22.96 14.78-18.45 28 2.54 7.43 9.55 13.18 17.08 13.99.58.06 1.19.13 1.35.15.69.07 2.48.05 3.55-.05Zm-4.7-2.24C7.42 42.07 1.28 22.99 12.66 12c2.8-2.7 5.89-4.28 9.89-5.07 1.29-.25 4.99-.25 6.4.01C40.21 9 47.08 19.99 43.94 30.93c-1.96 6.84-7.51 11.89-14.69 13.38-1.33.27-4.74.35-6.15.14Zm4.41-.15c15.83-1.61 22.66-20.91 11.32-32.01-10.56-10.36-28.29-4.94-31.41 9.6-.4 1.91-.4 5.75.02 7.6 2.11 9.43 10.69 15.76 20.07 14.81Zm-7.49-5.61c-1-.2-1.33-1.47-.54-2.09.24-.19.43-.2 6.23-.2h5.99l.3.28c.54.48.47 1.46-.14 1.85-.23.16-11.15.3-11.84.16Zm11.79-.48c.35-.36.4-.95.1-1.32l-.19-.24-5.79-.03c-3.18-.02-5.88 0-6 .03-.66.16-.85 1.04-.34 1.56l.29.29h11.64zm-15.23-3.57c-.79-.43-.76-1.69.06-2.08.61-.29 18.03-.19 18.43.1.59.44.63 1.33.07 1.85l-.26.24-9.01.02c-7.84.02-9.06 0-9.29-.13Zm18.27-.2c.5-.19.55-1.17.08-1.54-.25-.2-.35-.2-9.19-.2h-8.93l-.28.24c-.37.32-.39.93-.04 1.3l.24.26h8.98c4.94 0 9.05-.03 9.14-.06Zm-11.32-5.76c-6.72-7.18-6.38-6.76-5.79-7.45l.24-.28 1.86-.03 1.86-.04v-6.71l.25-.42c.42-.73.52-.75 3.94-.75h3l.37.32c.63.56.64.61.64 4.27v3.3l1.91.03c1.87.03 1.91.04 2.1.27.3.37.24.83-.17 1.33-.41.49-5.47 5.96-6.75 7.31-1.26 1.31-1.11 1.36-3.46-1.15Zm3.48.75c1.03-1.06 5.21-5.57 6.32-6.82 1.09-1.22.86-1.41-1.69-1.41h-1.93l-.03-3.53c-.04-4.82.26-4.47-3.83-4.47-4.19 0-3.89-.35-3.93 4.46l-.03 3.54H18l-.16.25c-.26.41-.13.61 1.72 2.6.98 1.04 2.65 2.84 3.72 4 2.23 2.4 2.28 2.45 2.52 2.45.09 0 .64-.48 1.21-1.07ZM.04 4.46C.19 2.61 2.53.25 4.42.03c.69-.08.61-.02-.42.34-1.88.64-3 1.8-3.76 3.91L0 4.95zm50.88-.08C50.44 2.31 49 .88 46.75.24l-.8-.23h.47c1.34-.02 3.18 1.19 4.05 2.66.5.85.9 2.23.65 2.23-.04 0-.13-.24-.2-.52Z"/></svg>