<svg xmlns="http://www.w3.org/2000/svg" width="51" height="51" viewBox="0 0 51 51"><path fill="#fff" fill-rule="evenodd" stroke="#fff" stroke-width=".724" d="M7.61 50.94c-3.16-.93-5.82-3.27-6.98-6.14-.34-.86-.63-2.06-.62-2.59.01-.43.02-.41.14.27.75 4.16 3.72 7.34 7.82 8.38.53.13.99.26 1.01.29.13.13-.61.01-1.37-.21Zm34.79.14c1.7-.46 2.28-.66 3.1-1.09 2.98-1.53 4.89-4.13 5.55-7.56l.15-.78-.05.65c-.21 3.18-2.64 6.49-5.89 8.01-.94.44-2.44.89-2.9.88l-.31-.01zm-17.08-6c-.1-.14-.37-1.37-.48-2.25-.08-.62-.04-.6-.59-.27l-.44.25-1.86-.26c-2.21-.31-2.1-.27-2.29-.76-.63-1.56-.48-1.72 2.04-2.14 2.3-.38 2.13-.33 2.08-.64-.03-.14-.35-1.52-.73-3.06-.37-1.54-.93-3.87-1.25-5.18-.31-1.3-.6-2.4-.63-2.44-.07-.06-4.29-.72-13.2-2.07-2.02-.3-3.72-.58-3.77-.61-.14-.09-.78-2.16-.96-3.14-.22-1.14-.01-2.73.38-2.97.11-.07 3.3-.41 7.93-.84 4.52-.42 9.28-.9 9.33-.94.02-.02.07-.82.12-1.78l.08-1.73 1.18-1.13c.66-.63 1.39-1.28 1.63-1.45l.43-.32-1.37-.07c-1.7-.09-4.42-.35-4.55-.43-.16-.1-.11-.33.08-.39.4-.13 3.76-.47 5.12-.53 1.38-.05 1.46-.07 1.72-.31l.28-.26.24.23c.23.22.38.24 1.83.32 3.04.15 5.43.5 5.43.79 0 .26-3.1.6-5.45.6h-.89l.45.28c.24.16.99.82 1.66 1.48l1.23 1.19.06 1.77c.04.98.09 1.78.11 1.78s1.38.13 3.01.29c1.63.17 5.45.53 8.47.81 3.03.28 5.6.55 5.72.6.26.11.63 1.18.63 1.82 0 .82-.81 4.03-1.09 4.31-.08.08-.76.19-7.91 1.27-8.14 1.24-9.01 1.38-9.07 1.43-.12.12-2.68 10.86-2.6 10.93.02.03.71.16 1.53.3 2.82.47 2.84.47 2.84 1.13 0 .47-.26 1.24-.48 1.44-.12.11-.81.25-2.09.42l-1.91.27-.41-.28c-.51-.33-.45-.43-.76 1.11-.3 1.5-.49 1.83-.83 1.43Zm.61-1.68c.15-.74.33-1.95.41-2.68.17-1.49.18-1.52.51-1.52.29 0 .14.51 1.35-4.6.56-2.34 1.19-4.95 1.4-5.8.22-.85.44-1.86.51-2.25.18-1.1.22-1.15.71-1.15.32 0 .39.03.28.1-.08.05-.25.1-.37.1-.18 0-.23.08-.32.52-.27 1.36-.33 1.79-.29 1.83.02.03 1.05-.11 2.29-.3 1.23-.18 4.98-.75 8.32-1.26l6.08-.93.15-.35c.35-.83.75-2.6.81-3.52l.06-.96-1.17-.12c-.64-.06-2.27-.2-3.63-.31-5.5-.45-12.88-1.12-12.95-1.18-.04-.04-.09-.9-.13-1.92-.03-1.02-.08-2.04-.11-2.28l-.05-.42h-8.46l-.08 2.19c-.04 1.4-.11 2.25-.19 2.34-.08.1-1.17.24-4.16.51-5.16.46-13.18 1.16-13.37 1.16-.37 0-.04 2.24.59 4.15l.24.7 2.19.33c1.21.18 4.97.75 8.35 1.27 3.38.51 6.17.92 6.19.9.03-.04-.25-1.82-.35-2.17-.03-.1-.15-.18-.27-.18s-.29-.05-.37-.1c-.11-.07-.02-.1.32-.1h.47l.1.55c.06.3.16.81.22 1.13.06.31.3 1.38.54 2.37s.85 3.51 1.35 5.6.94 3.88.96 3.98c.03.1.15.17.29.17.33 0 .34.03.5 1.55.15 1.42.53 3.94.62 4.08.11.18.21-.13.46-1.43Zm-1.62-1.17c.4-.26.41-.28.35-.73-.03-.25-.08-.8-.12-1.24l-.07-.78-.46.06c-1.63.22-4.15.72-4.27.84-.2.19.1 1.6.35 1.63.03 0 .74.11 1.56.24 2.01.31 2.17.31 2.66-.02Zm5.18.03c1.78-.26 1.73-.23 1.96-1 .2-.67.19-.85-.07-.96-.19-.08-4.28-.8-4.56-.8-.07 0-.32 1.77-.32 2.32 0 .24.68.67 1.05.67.16 0 1.04-.1 1.94-.23Zm-4.77-15.13c-1.08-.53-1.24-1.13-1.2-4.34.03-2.76.08-2.98.7-3.56.98-.92 2.55-.61 3.21.62.32.58.34 5.68.03 6.25-.56 1.06-1.77 1.51-2.74 1.03Zm1.86-.87.37-.36.03-1.46.03-1.45-.53.3c-.29.17-.95.55-1.45.84l-.93.52v.4c0 1.42 1.53 2.16 2.48 1.21Zm.42-4.33c0-.18.07-.21-1.49.57-.84.42-1.41.76-1.41.84 0 .1.45-.08 1.45-.57.8-.4 1.45-.77 1.45-.84Zm-1.32-.09 1.32-.57v-.44c0-1.74-2.33-2.06-2.79-.38-.16.58-.15 2.09.02 2.02.06-.03.72-.31 1.45-.63ZM7.42 20c1.83-.16 4.41-.39 5.73-.5 2.48-.21 6.31-.56 7.23-.66.52-.05.52-.06.52-.4 0-.41.05-.4-1.9-.19-.74.09-3.02.31-5.06.5-3.51.33-8.15.77-9.52.91-.56.06-.65.1-.78.35-.19.37-.43.37 3.78-.01Zm40.18.17c0-.44-.03-.44-5.65-.97-2.97-.28-6.75-.64-8.4-.8-1.65-.17-3.06-.3-3.12-.3-.08 0-.13.14-.13.35 0 .31.03.35.32.39.35.05 7.7.69 12.78 1.11 1.68.14 3.12.27 3.2.29.4.1 1 .05 1-.07Zm-18.9-6.93c-.47-.47-1.19-1.1-1.61-1.4-.69-.49-.78-.59-.97-1.12-.42-1.15-.72-1.15-1.06.01-.14.48-.22.57-.93 1.09-.43.32-1.16.96-1.63 1.43l-.85.85h7.9zm-4.82-1.06c.13-.13 2.6-.24 3.16-.14.84.16.28.26-1.46.26-1.39 0-1.79-.03-1.7-.12Zm.65-1.51c.12-.37.07-.4-.69-.45-.62-.04-5.1.38-4.88.45.3.1 3.34.31 4.33.29l1.14-.01zm5.75.23c2.3-.16 2.39-.21.82-.41-1.71-.22-3.66-.34-4.13-.25-.37.07-.43.28-.2.69.06.1 1.78.09 3.51-.03Zm20.77-2.12c-.52-3.8-3.52-7.23-7.35-8.4l-.75-.23L27 .1 11.05.05H29.1c9.93 0 17.2.01 16.15.03l-1.9.02.97.34c3.53 1.21 6.49 4.76 6.84 8.2.08.78-.01.89-.11.14ZM.01 8.84c-.02-.97.79-3.11 1.68-4.43C2.96 2.55 4.92 1.09 7.1.39c.78-.25.82-.28.5-.32-.19-.02.08-.04.6-.05l.95-.01-1.1.28c-2.85.73-4.89 2.16-6.39 4.48C.9 5.95.54 6.9.11 8.85l-.09.4z"/></svg>