<svg xmlns="http://www.w3.org/2000/svg" width="51" height="51" viewBox="0 0 51 51"><path fill="#fff" fill-rule="evenodd" stroke="#fff" stroke-width=".685" d="M23.8 46.33c-3.36-.25-6.75-1.38-9.55-3.17-1.12-.73-3.33-2.51-3.44-2.79-.02-.05.95-1.08 2.15-2.28l2.19-2.19H7.22l-.52-1.28c-.76-1.84-1.06-2.68-1.34-3.79-1.6-6.3-.17-12.9 3.9-17.94.96-1.19 1.5-1.79 1.61-1.79.06 0 1.06.97 2.24 2.16l2.14 2.15.05-3.83.05-3.83 1.15-.57c7.52-3.74 17.54-2.23 22.99 3.47l.64.67-2.14 2.14-2.14 2.14h3.81c4.34 0 3.89-.1 4.44 1 3.75 7.49 2.36 17.07-3.38 23.2l-.71.75-2.2-2.2-2.21-2.2v7.63l-.34.21c-2.59 1.61-7.62 2.63-11.46 2.34Zm3.45-.23c2.67-.23 6.77-1.43 7.9-2.32l.25-.19-.01-3.12c-.01-1.72-.04-4.72-.08-6.67l-.06-3.55-7.63 7.6-7.63 7.6.4.12c1.67.49 4.62.72 6.86.53Zm-2.75-5.45c2.61-2.61 4.72-4.76 4.7-4.78-.03-.03-3.14-.02-6.92.01l-6.86.05-2.18 2.18-2.18 2.19.39.41c1.05 1.08 3.85 2.96 5.49 3.67.72.31 2.63 1.02 2.76 1.02.03 0 2.19-2.14 4.8-4.75Zm16.45-1.42c1.66-1.89 3.08-4.33 3.86-6.62l.34-1.01-4.75-4.75-4.75-4.75-.08.45c-.04.25-.06 3.33-.05 6.85l.03 6.4 2.2 2.2c1.21 1.21 2.23 2.2 2.27 2.2s.46-.44.93-.97Zm-20.01-3.61c.06-.1-1.63-1.77-6.03-5.97-1.72-1.65-4.5-4.39-6.18-6.1-2.34-2.39-3.06-3.07-3.12-2.95-.26.46-.71 3.7-.71 5.16 0 2.92.72 5.95 2.23 9.36l.26.58h6.75c3.71 0 6.77-.04 6.8-.08Zm11.47-2.86 2.87-2.81.01-4.1.01-4.1-2.92-2.93-2.92-2.92h-8.02l-2.92 2.92-2.92 2.92v8.34l.38.32c.2.18 1.49 1.41 2.86 2.74 1.46 1.42 2.6 2.44 2.75 2.47.14.04 1.99.04 4.11.02l3.85-.06zm13.13-2.79c.88-4.23.46-8.43-1.25-12.46-.28-.68-.61-1.34-.73-1.47l-.21-.23-6.78.06-6.79.06 7.68 7.68c4.23 4.23 7.72 7.65 7.76 7.61.05-.05.19-.61.32-1.25Zm-30.19-7.24-.07-6.98-2.11-2.15C12 12.42 11 11.44 10.94 11.42c-.12-.03-.83.74-1.83 1.98-1.17 1.46-2.43 3.82-3.17 5.93l-.27.78 2.03 2.07c2.69 2.75 7.53 7.51 7.64 7.52.04 0 .05-3.08.01-6.97Zm13.42 6.9c-.04-.03-.07-.19-.07-.34v-.27l-1.02-.07-1.03-.06-1.37-1.4-1.38-1.39h-1.95c-1.64 0-1.95.02-1.95.15 0 .27-.73.92-1.18 1.05-1.18.31-2.17-.47-2.17-1.7 0-1.82 2.21-2.44 3.17-.88.23.37.24.37.88.38h.65l1.42-1.42 1.43-1.42 1.07-.04c.68-.02 1.12-.08 1.18-.16.79-.96 2.31-.22 1.96.96-.25.81-1.14 1.02-1.8.43-.37-.34-.41-.35-1.19-.35h-.81l-.93.96c-1.23 1.26-1.25 1.18.37 1.11.76-.04 2.88-.07 4.72-.07h3.34l-.06-.34c-.1-.53.07-.51 1.09.09 1.42.85 1.41.76.05 1.49-1.03.55-1.09.56-1.09.11v-.35h-3.45c-1.9 0-3.45.02-3.45.04s.42.47.92 1l.93.97.83-.07c.82-.07.82-.07.82-.35v-.29h2.1v2.3h-.98c-.54 0-1.02-.03-1.05-.07Zm1.83-1.13v-.9h-1.7v.7h-1.98l-1.11-1.18-1.1-1.17 1.42-.06c.78-.04 2.49-.07 3.79-.08l2.37-.01.03.38.03.37.82-.46.83-.46-.84-.51c-1-.62-.93-.6-.88-.19l.04.34-3.78.06c-5.3.1-6.24.09-6.24-.04 0-.06.48-.62 1.08-1.25l1.07-1.14h1.93l.35.35c.52.52 1.23.39 1.46-.26.33-.94-.84-1.57-1.54-.81-.24.26-.3.27-1.33.3l-1.07.03-1.42 1.42-1.43 1.42-.72.03-.73.04-.24-.46c-.75-1.44-2.91-.96-2.91.64 0 1.62 2.24 2.1 2.95.62l.2-.43 2.02.03 2.02.03 1.34 1.4 1.34 1.4 1.09.05 1.09.05.03.33.03.32h1.69zm-7.11-15.01c4.16-4.2 7.3-7.44 7.25-7.49-.43-.42-4.52-.79-6.79-.62-2.73.21-6.34 1.24-8.12 2.34l-.33.2v5.62c0 3.1.03 6.1.06 6.69l.07 1.05.27-.19c.14-.11 3.56-3.53 7.59-7.6Zm14.16.01 2.19-2.2-.44-.46c-1.14-1.17-2.94-2.44-4.87-3.42-1.14-.58-3.16-1.36-3.37-1.3-.06.02-2.25 2.18-4.86 4.81l-4.74 4.77h13.89z"/></svg>