<svg xmlns="http://www.w3.org/2000/svg" width="51" height="51" viewBox="0 0 51 51"><path fill="#fff" fill-rule="evenodd" stroke="#fff" stroke-width=".765" d="M6.2 41.33c0-.14.18-1.23.4-2.42.21-1.19.66-3.69.99-5.56 1.43-8.13 1.72-9.72 1.84-10.1l.12-.4 1.98-.03c1.08-.01 1.97-.05 1.97-.08 0-.04.3-1.67.66-3.63s.76-4.19.9-4.96c.61-3.45.75-4.22.85-4.44l.1-.24 4.17.06c2.29.04 8.7.02 14.25-.04C45.28 9.36 45 9.35 45 9.87c0 .32-.44 2.97-1.36 8.13-.36 2.01-1.08 6.08-1.6 9.05-1.61 9.18-1.94 10.99-2.05 11.32l-.11.33-7.16.02-7.16.03-.24 1.3c-.13.72-.28 1.36-.34 1.43-.08.09-2.09.12-9.44.12H6.2zm18.84-1.45c.27-1.48 1.79-10.28 2.16-12.48.12-.69.32-1.85.46-2.58.13-.73.24-1.39.24-1.46 0-.11-18.06-.33-18.17-.22-.01.01-.52 2.85-1.13 6.31-.61 3.47-1.33 7.52-1.6 9.01-.28 1.49-.5 2.74-.5 2.78 0 .03 4.11.06 9.14.06h9.14zm14.75-2c.22-1.11.62-3.36 1.21-6.73.34-1.92 1.04-5.91 1.56-8.85 1.27-7.19 2.02-11.45 2.1-12.03l.06-.47-14.27.04c-7.85.03-14.29.07-14.31.08-.01.02-.19.98-.39 2.13-.2 1.16-.72 4.03-1.15 6.39-.44 2.37-.77 4.32-.74 4.35s3.27.08 7.19.09c5.3.03 7.15.07 7.18.15.02.07-.18 1.38-.45 2.92-1.35 7.77-2.1 12.02-2.15 12.23l-.05.22h14.11zm-22.99-.19c-1.27-.39-2.47-1.82-3.04-3.66-.25-.82-.49-2.55-.39-2.91.05-.19 1.97-1.18 3.55-1.82l.57-.23 1.48.61c.81.33 1.79.74 2.17.92l.69.3-.06.88c-.27 3.79-2.64 6.62-4.97 5.91Zm1.9-.54c1.45-.74 2.49-2.71 2.78-5.27.08-.76.08-.77-.17-.88-.15-.07-1.06-.46-2.04-.86l-1.78-.75-1.02.45c-1.48.65-2.76 1.25-2.81 1.34-.02.04 0 .48.05.97.39 3.8 2.73 6.15 4.99 5Zm-2.15-1.46c-.04-.05.01-.57.1-1.14l.17-1.03-.3-.39c-.65-.84-.37-1.96.58-2.24 1.43-.43 2.42 1.2 1.41 2.33-.27.31-.27.31-.15.97.08.36.13.87.14 1.14v.47h-.94c-.56 0-.98-.04-1.01-.11Zm1.65-.5c0-.18-.05-.6-.12-.95l-.11-.64h-.85l-.16.88c-.09.48-.16.9-.16.95 0 .04.32.07.7.07h.7zm-.17-2c.99-.51.63-2.09-.48-2.09-.75 0-1.28.74-1.05 1.45.21.64.93.94 1.53.64Zm-3.28-3.78c-.03-.11-.01-.39.06-.63.75-2.82 4.24-3.21 5.49-.63.26.53.38 1.35.2 1.35-.32 0-1.3-.44-1.3-.58 0-.28-.4-.8-.74-.96-.93-.44-2.08.04-2.31.97-.06.21-.17.29-.58.42-.29.09-.57.18-.64.21-.06.03-.14-.04-.18-.15Zm.8-.38c.12-.03.29-.22.4-.45.63-1.3 2.5-1.48 3.3-.31.14.21.25.43.25.5 0 .12.67.39.76.3.03-.02-.04-.27-.14-.55-.68-1.79-2.7-2.36-4.1-1.16-.61.52-1.3 1.98-.85 1.79.1-.04.27-.1.38-.12Z"/></svg>