<svg xmlns="http://www.w3.org/2000/svg" width="51" height="51" viewBox="0 0 51 51"><path fill="#fff" fill-rule="evenodd" stroke="#fff" stroke-width=".759" d="M6.1 50.67c0-3.71 1.49-8.49 3.67-11.74 8.88-13.31 28.03-10.9 33.88 4.26.93 2.41 1.87 8.01 1.35 8.01-.06 0-.1-.31-.1-.72 0-1.67-.68-5.13-1.37-6.98-5.11-13.71-21.52-17.47-31.39-7.18-3.47 3.62-5.39 8.22-5.79 13.91-.08 1.02-.25 1.34-.25.44Zm6.45-.24c.58-6.71 5.14-11.89 11.25-12.79 6.71-.98 12.95 3.73 14.45 10.91.21.98.32 2.65.18 2.65-.06 0-.13-.4-.16-.9-.53-7.42-6.88-13.18-13.79-12.5-6.09.59-11.11 5.79-11.63 12.03-.09 1.06-.15 1.37-.26 1.37-.07 0-.08-.26-.04-.77ZM0 46.82c0-.92 1.3-5.29 2.18-7.34C5.56 31.65 12.68 25.66 20.6 24c14.34-3 27.85 7.08 30.54 22.78.03.17.01.32-.04.32-.11 0-.11-.03-.4-1.5-3.21-16.31-19.24-25.93-33.78-20.25C8.4 28.69 2.4 36.2.34 46.12c-.19.9-.34 1.21-.34.7Zm50.18-17.75C43.19 20.01 32.65 15.5 21.75 16.9 13.8 17.92 6.68 21.96 1.3 28.5.06 30.02.12 29.95.04 29.88c-.27-.28 3.73-4.56 5.96-6.39 7.16-5.87 16.51-8.26 25.53-6.53 5.84 1.13 11.39 4.15 15.92 8.69 1.5 1.49 3.75 4.19 3.75 4.49 0 .19-.24-.06-1.02-1.07ZM.1 19.91c0-.25 2.37-2.26 4.28-3.62 8.97-6.4 20.19-8.55 30.57-5.84 4.12 1.07 8.03 2.87 11.85 5.46 1.92 1.3 4.54 3.48 4.38 3.65-.04.04-.29-.13-.55-.37-1.51-1.41-4.64-3.66-6.79-4.88C31.78 7.49 17.33 8 5.68 15.66c-1.82 1.2-4.49 3.31-5.22 4.13-.2.22-.36.27-.36.12Z"/></svg>