<svg xmlns="http://www.w3.org/2000/svg" width="51" height="51" viewBox="0 0 51 51"><path fill="#fff" fill-rule="evenodd" stroke="#fff" stroke-width=".433" d="M26.02 50.12c-.09-.07-.12-.7-.1-2.83l.03-2.74.63-.03.62-.03-.02 2.83-.03 2.83-.5.03c-.27.01-.56-.02-.63-.06Zm.88-2.82c0-2.5-.01-2.6-.19-2.6-.52 0-.51-.07-.51 2.66v2.54h.7zm-6.02.48c-.46-.12-.46.02-.02-1.71.61-2.47.49-2.2.96-2.14.6.08.65.17.46.9l-.49 1.85c-.17.67-.37 1.22-.43 1.21s-.28-.06-.48-.11Zm10.84-.01c-.11-.13-1.02-3.28-1.02-3.51 0-.17.7-.42.92-.34.1.04.96 3.09 1.02 3.62.02.16-.81.36-.92.23Zm-10.03-1.75c.48-1.87.48-1.78.17-1.84-.24-.05-.25 0-.65 1.58-.23.9-.41 1.66-.41 1.68 0 .04.19.11.41.15.04 0 .25-.7.48-1.57Zm10.56 1.08c-.22-1.29-.72-2.85-.93-2.88-.12-.02-.24.03-.27.1-.04.11.5 2.24.8 3.15.11.33.46 0 .4-.37Zm5.22-.17c-.78-1.24-2.48-4.36-2.43-4.48.05-.13.76-.55.93-.55.1 0 .38.47 1.8 2.94 1.13 1.97 1.11 1.86.42 2.21l-.49.25zm-22.69.06c-.53-.27-.52-.27.83-2.63 1.54-2.68 1.39-2.51 2-2.2.64.32.65.26-.47 2.21-1.82 3.18-1.66 3-2.36 2.62Zm1.6-1.81c1.05-1.83 1.45-2.58 1.4-2.63-.1-.08-.48-.25-.57-.25-.1 0-.55.74-1.92 3.12l-.68 1.18.27.15c.44.24.46.22 1.5-1.57Zm21.84 1.54.26-.17-1.24-2.14c-1.46-2.53-1.25-2.26-1.64-2.06s-.46.02.96 2.53c1.2 2.1 1.22 2.13 1.66 1.84ZM26.1 43.31c-.89-.29-1.38-.88-1.31-1.58.02-.23 1.11-.17 1.11.05 0 .44.82.71 1.11.36.2-.24 0-.45-.69-.71-1.3-.48-1.72-1.15-1.27-2.03.61-1.18 2.92-.96 3.2.32.09.38 0 .46-.54.49-.38.03-.45 0-.58-.24-.2-.39-.98-.37-.98.03 0 .21.09.28.74.52 1.23.45 1.62 1.06 1.26 1.96-.27.68-1.28 1.08-2.05.83Zm1.25-.35c.59-.25.86-1.18.48-1.65-.1-.12-.52-.35-.93-.52-1.11-.45-1.34-.75-.9-1.19.31-.31.86-.27 1.2.1.47.51 1.02.26.64-.29-.54-.76-2.26-.66-2.6.16-.28.65-.07 1.06.7 1.43.35.16.68.3.74.3.24 0 .62.43.62.7 0 .72-1.33.76-1.6.05-.08-.21-.7-.26-.7-.06 0 .74 1.46 1.34 2.35.97Zm-16.12-.72c-.47-.37-.45-.41.89-1.84 1.31-1.4 1.4-1.45 1.81-1.02.38.39.41.33-1.05 1.79l-1.33 1.33zm28.88-1.18-1.33-1.34.35-.38.36-.39 1.43 1.42 1.42 1.42-.29.31c-.43.45-.49.41-1.94-1.04Zm-27.71.27c1.55-1.61 1.53-1.58 1.35-1.77-.25-.24-.25-.24-1.45 1.04-.94 1.01-1.1 1.23-1 1.35.21.25.32.18 1.1-.62Zm29.49.63c.13-.15-.63-1.03-1.73-2-.63-.55-.68-.57-.85-.42-.17.16-.13.22 1.03 1.36 1.24 1.22 1.35 1.3 1.55 1.06ZM6.52 38.78c-.14-.18-.42-.75-.42-.86 0-.08 1.61-1.06 3.84-2.36.72-.41.82-.44.97-.3.17.16.55.92.48.98-.02.02-.98.59-2.14 1.26s-2.14 1.26-2.2 1.31c-.13.13-.41.11-.53-.03Zm37.5-1.23c-2.64-1.57-2.37-1.36-2.17-1.77.32-.62.43-.7.79-.52.84.43 4.39 2.5 4.42 2.6.08.18-.46 1.04-.64 1.03-.1 0-1.17-.6-2.4-1.34Zm-35.1-.16c2.39-1.39 2.21-1.25 2-1.66l-.17-.32-1.05.61c-1.49.86-3.24 1.9-3.28 1.93-.05.05.28.65.35.65.03 0 1-.55 2.15-1.21Zm37.71.92c.09-.16.17-.31.17-.34 0-.07-4.07-2.38-4.29-2.44-.14-.04-.24.03-.34.24l-.15.29 2.11 1.26c2.4 1.43 2.27 1.38 2.5.99Zm-11.88-2.28c-1.05-.75-2.69-1.93-3.65-2.62-4.71-3.37-6.44-4.7-6.89-5.34-1.38-1.94-7.9-11.8-7.86-11.88.1-.16.6.2 10.56 7.45l1.66 1.21 1.51 2.25c.83 1.24 2.68 4 4.11 6.14 2.4 3.57 2.76 4.16 2.53 4.16-.04 0-.93-.62-1.97-1.37Zm1.29.45c-.36-.62-7.55-11.28-7.61-11.28-.07 0-.93.8-2.45 2.28l-1.08 1.05 2.08 1.54c1.14.85 2.83 2.1 3.76 2.76l3.45 2.49c1.72 1.24 2 1.41 1.85 1.16ZM5.6 32.64c-.32-.84-.4-.78 1.76-1.33 1.89-.48 1.82-.47 1.93-.19.25.69.24.75-.22.87-.23.06-1.09.28-1.9.5l-1.48.4zm39.72-.32-1.64-.46.07-.41c.1-.64.1-.64 2.02-.15 2.11.54 2.08.52 1.9 1.05-.19.54-.34.54-2.35-.03ZM7.59 32.1c.82-.22 1.52-.4 1.54-.4s.02-.11-.01-.25c-.05-.31.1-.32-1.78.16-1.8.46-1.68.41-1.59.68.08.28.09.27 1.84-.19Zm39.84.18c.08-.28.27-.19-1.57-.67-1.63-.43-1.86-.45-1.86-.13 0 .15.25.25 1.48.59 1.75.49 1.88.5 1.95.21Zm-36.77-3.75c-.13-.45-.86-3.87-.86-4.04 0-.16.07-.19.54-.19h.54l.16.73c.09.39.2.9.24 1.12.08.4.09.4.31-.55.33-1.44.25-1.31.84-1.28l.52.03.25 1.14c.13.62.25 1.09.26 1.05.01-.05.12-.57.24-1.16l.23-1.08h.53c.29 0 .55.03.57.08.04.06-.72 3.61-.89 4.15-.04.13-.17.17-.59.17h-.54l-.16-.58c-.49-1.71-.41-1.68-.78-.32l-.23.85-.56.03c-.47.02-.57 0-.62-.15Zm30.09.05c-.03-.08-.04-1.08-.03-2.23l.03-2.1h3.1v1l-.92.03-.93.03v.58l.78.03.77.03v1l-.82.03c-.78.03-.83.04-.83.25 0 .41.12.46 1.05.49l.9.03v.9l-1.53.03c-1.18.02-1.54 0-1.57-.1Zm-29.02-.55c.08-.27.24-.88.37-1.36.28-1.08.36-1.06.67.13.48 1.87.4 1.7.78 1.7.28 0 .36-.04.4-.22.63-2.9.78-3.54.82-3.66.04-.1-.03-.13-.28-.1l-.34.03-.3 1.39c-.17.77-.35 1.41-.41 1.43s-.2-.4-.33-1.04c-.39-1.85-.38-1.83-.71-1.83-.3 0-.33.07-.81 2.38-.17.81-.31.6-.63-.96-.29-1.4-.3-1.42-.56-1.42-.4 0-.4-.01-.04 1.48.17.75.37 1.63.44 1.95.11.56.12.57.45.57.32 0 .35-.03.48-.47Zm31.87.17v-.3h-1.9v-1.2h.8c.79 0 .8 0 .8-.25 0-.23-.04-.25-.42-.25-.24 0-.6-.03-.8-.06l-.38-.07V25h.95c.95 0 .95 0 .95-.25v-.25H41v4h2.6zm-17.1-1.6c1.39-1.35 1.72-1.72 1.6-1.79-.08-.05-2.31-1.66-4.95-3.58-6.03-4.37-6.2-4.49-6.1-4.32.09.15 6.56 9.85 7.21 10.81.21.32.41.57.44.57s.84-.76 1.8-1.69Zm-23.33.63c-.09-.08-.09-.6-.01-.91l.06-.22 2.77.02 2.76.03v1.1l-2.76.03c-1.51.01-2.78-.01-2.82-.05Zm41.2 0c-.03-.05-.04-.3-.03-.58l.01-.5.4-.07c.52-.09 2.39-.1 3.93-.01l1.22.06v1.17h-2.74c-1.51 0-2.77-.03-2.79-.07ZM8.5 26.7v-.4H3.4v.8h5.1zm41.18-.04.03-.36H44.6v.77l2.52-.02 2.53-.02zM7.2 22.09c-2.01-.58-1.84-.49-1.76-.91.12-.65.07-.64 2.02-.13 2.12.56 2.06.53 1.9 1.08-.15.54-.12.54-2.16-.04Zm36.71.38c-.25-.32-.24-.86.03-.97.53-.2 3.38-.9 3.47-.84.14.08.33.84.23.93-.21.19-3.63.99-3.73.88Zm-34.82-.39c.11-.3.24-.24-1.6-.74-1.66-.45-1.79-.46-1.79-.15 0 .14.3.27 1.58.63 1.88.55 1.71.53 1.81.26Zm36.76-.26c1.48-.38 1.67-.48 1.47-.79-.12-.19-3.32.65-3.32.87 0 .38 0 .38 1.85-.08ZM8.31 17.48c-.75-.83-1.41-1.46-1.72-1.64-.37-.22-.48-.34-.45-.48.04-.14-.32-.61-1.25-1.67-.71-.81-1.29-1.54-1.29-1.62 0-.07.28-.5.63-.94.34-.45 1.01-1.32 1.49-1.94.48-.63 1.07-1.35 1.3-1.61.51-.55 5.7-3.98 6.04-3.98.15 0 .85.7 2.46 2.48 3.19 3.5 3.58 3.96 3.58 4.21 0 .18-.75 1.52-2.89 5.16-.46.79-.03.55-4.27 2.4-2.64 1.16-2.2 1.2-3.63-.37Zm33.87.74c-.69-.82-.66-.9.8-1.75 3.79-2.22 3.44-2.1 3.9-1.28.27.47.47.29-1.98 1.71-1.07.62-2.09 1.21-2.26 1.31-.29.18-.32.18-.46.01Zm-29.76-1.18c2.8-1.24 2.88-1.28 2.71-1.45s-5.6 2.32-5.48 2.51c.09.14-.1.21 2.77-1.06Zm32.21-.29c1.14-.66 2.07-1.23 2.07-1.27s-.08-.21-.18-.37l-.17-.29-2.18 1.27c-1.19.69-2.17 1.3-2.17 1.34 0 .16.33.58.44.55.07-.02 1.05-.57 2.19-1.23Zm-31.26-.91c.73-.32 1.33-.61 1.32-.64 0-.03-.13-.2-.29-.39-.35-.41-.05-.5-3.29 1.06-2.77 1.34-2.52 1.16-2.13 1.56l.32.33 1.38-.66c.75-.37 1.97-.93 2.69-1.26Zm-2.24-.34c1.47-.72 2.67-1.33 2.67-1.36 0-.08-1.81-2.08-1.92-2.12-.06-.03-5.13 2.51-5.27 2.63-.06.07 1.71 2.15 1.83 2.15.02 0 1.23-.59 2.69-1.3Zm5.2-1.32c1.76-2.96 2.2-3.77 2.13-3.94-.08-.22.07-.45-1.7 2.5-1.46 2.43-1.65 2.86-1.31 2.86.02 0 .41-.64.88-1.42Zm.15-1.61c1.82-3.04 1.67-2.71 1.4-3.07-.26-.36-.38-.37-.57-.07-.34.52-2.65 4.25-2.83 4.54l-.19.31.32.36c.17.2.35.33.4.3s.71-1.09 1.47-2.37Zm-9.7 1.7c.2-.13 1.37-.75 2.6-1.37 1.22-.63 2.22-1.18 2.22-1.22 0-.1-4.75 2.35-5.15 2.66-.31.24-.09.19.33-.07Zm32.32-.12c-.42-.43-.42-.43 1.23-1.98 1.39-1.31 1.36-1.3 1.71-.84.36.47.41.38-1.07 1.85-1.51 1.49-1.41 1.44-1.87.97Zm-30-1.6c2.44-1.24 2.33-1.15 1.92-1.58l-.34-.35-.81.48c-.45.26-1.6.91-2.54 1.44-1.81 1.02-1.86 1.06-1.52 1.42l.21.23.62-.35c.33-.19 1.44-.77 2.46-1.29Zm32.73-1.07-.22-.22-1.26 1.24-1.25 1.24.22.23.22.24 1.25-1.26 1.26-1.25zm-25.91-.42 1.37-2.19-.49-.56c-.27-.31-.69-.78-.93-1.05l-.43-.49-1.08 1.64c-.6.9-1.35 2.01-1.68 2.47-.7.97-.75.75.41 2.06l.94 1.06.26-.38c.14-.2.87-1.36 1.63-2.56Zm8.82 2.81c-.02-.07-.03-1.05-.02-2.17l.03-2.05.56-.03.56-.03.63 1c.35.55.67.98.71.95.05-.03.09-.48.09-1V9.6h1.2l-.02 2.18-.03 2.17-.52.03c-.59.03-.53.09-1.37-1.31-.62-1.02-.66-.99-.66.45V14h-.55c-.36 0-.57-.05-.61-.13Zm.96-1.47c0-.71.04-1.3.09-1.3.08 0 1.12 1.55 1.53 2.29.14.26.23.31.53.31h.35l.01-1.8c.01-.99.02-1.86.03-1.92.01-.07-.13-.14-.3-.16-.4-.04-.44.09-.44 1.56 0 1.2-.05 1.31-.34.8-1.12-1.94-1.39-2.28-1.78-2.28H25v3.8h.7zm-17.94-.43c2.51-1.41 2.63-1.48 2.68-1.55.02-.04-.23-.38-.57-.75L9.25 9l-1.05.66c-.58.37-1.71 1.07-2.52 1.56l-1.48.9.57.63.56.63.38-.23c.2-.13 1.13-.66 2.05-1.18Zm27.62-.64c-.55-.38-.58-.32 1.45-3.7.94-1.58.85-1.51 1.43-1.17.6.35.63.28-.91 2.93-1.39 2.38-1.37 2.36-1.97 1.94ZM5.96 10.12c1.6-1.89 1.96-2.25 3.49-3.39 1.96-1.48 1.96-1.48-.25-.05-.8.51-1.6 1.1-1.78 1.3-.46.52-2.72 3.39-2.72 3.47 0 .14.23-.11 1.26-1.33Zm7.38-.71c.75-1.1 1.39-2.08 1.42-2.18.04-.1-.27.32-.69.92-.41.61-1.06 1.55-1.45 2.1-.8 1.17-.89 1.31-.75 1.22.06-.04.72-.96 1.47-2.06Zm23.8-.17c1.39-2.41 1.36-2.34.98-2.56l-.3-.18-.24.38c-.45.7-2.28 3.88-2.28 3.98 0 .08.48.43.6.43.03.01.58-.92 1.24-2.05ZM13.4 8.53c1.67-2.47 1.6-2.31 1.24-2.64l-.26-.24-.27.34c-.39.5-2.88 4.03-3.02 4.28-.1.18-.07.27.17.58l.28.37.18-.24c.09-.12.85-1.23 1.68-2.45ZM7.5 9.77c.8-.5 1.56-1 1.69-1.11.29-.26 3.14-3.87 3.09-3.92-.02-.02-.23.09-.46.25-.23.15-.39.3-.36.34.12.11-.18.38-1.56 1.4-1.76 1.29-2.23 1.75-3.99 3.91-.2.25-.23.26 1.59-.87Zm4.8-1.72c.73-1.05 1.46-2.07 1.62-2.27l.3-.38-.59-.61-.58-.61-.15.23c-.08.13-.89 1.17-1.78 2.32-1.86 2.37-1.76 2.01-.83 3 .54.56.32.75 2.01-1.68Zm8.67-.16c-.61-2.23-.62-2.08.2-2.33.25-.08.44.42.99 2.61.32 1.26.31 1.31-.33 1.4l-.39.05zm10.05 1.64c-.13-.03-.26-.11-.28-.18-.09-.22.87-3.66 1.03-3.72.19-.08.93.15.93.28 0 .09-.71 2.7-.96 3.52-.05.17-.23.19-.72.1Zm-8.96-.37c.13-.34-.78-3.26-1.01-3.26-.32 0-.34.06-.19.58.07.26.27 1 .44 1.64.27.99.35 1.18.51 1.18.11 0 .22-.06.25-.14Zm9.48-.04c.91-3.09.93-3.22.53-3.22-.2 0-.26.15-.65 1.58-.23.86-.42 1.63-.42 1.7 0 .19.48.15.54-.06Zm-5.59-.35c-.03-.07-.04-1.31-.03-2.77l.03-2.65h1.2l.03 2.77.02 2.78h-.6c-.4 0-.62-.04-.65-.13Zm.95-2.62V3.6h-.7v5.1h.7z"/></svg>