<svg xmlns="http://www.w3.org/2000/svg" width="51" height="51" viewBox="0 0 51 51"><path fill="#fff" fill-rule="evenodd" stroke="#fff" stroke-width=".67" d="M23.3 51.14c-8.38-.96-14.92-4.89-19.33-11.59C1.86 36.33.21 31.68.05 28.5L0 27.65l.15 1C1 34.58 3.27 39.3 7.2 43.34c12.19 12.53 33.21 9.39 41.04-6.13C56.34 21.15 46.28 2.28 28.5.16c-1-.12-1.07-.14-.53-.15.84-.01 3.24.41 4.74.84C42.74 3.73 50.16 12.63 51.09 22.9c1.27 13.91-7.99 25.83-21.79 28.06-.91.15-5.17.28-6 .18Zm1.19-7.81c-.52-.65-1.71-2.1-2.64-3.23-.94-1.13-2.72-3.29-3.97-4.8-1.24-1.51-2.69-3.25-3.22-3.85-7.96-9.09-3.34-22.77 8.35-24.76 10.41-1.78 19.33 7.47 17.09 17.72-.58 2.66-1.69 4.79-3.75 7.19-.59.68-1.57 1.85-2.19 2.6-4.34 5.28-8.51 10.25-8.61 10.28-.06.02-.54-.5-1.06-1.15Zm3.87-2.49c1.53-1.85 3.68-4.45 4.77-5.78 1.09-1.32 2.35-2.83 2.8-3.34 3.14-3.6 4.43-7 4.24-11.22-.43-9.57-10.19-16.12-19.39-13.01-9.9 3.35-13.08 15.57-6.14 23.56.48.55 1.8 2.13 2.94 3.5 1.13 1.38 3.03 3.67 4.21 5.1 1.19 1.43 2.5 3.04 2.91 3.57s.78.97.81.97c.03.01 1.31-1.5 2.85-3.35Zm-4.73-7.49c-8.17-1.57-12.55-10.02-8.98-17.31 3.62-7.4 13.37-9.14 19.28-3.45 6.92 6.66 3.83 18.11-5.53 20.57-1.2.32-3.62.41-4.77.19Zm4.17-.32c11.34-2.26 13.13-17.99 2.57-22.56-2.98-1.28-6.66-1.3-9.58-.03-7.67 3.31-9.55 13.48-3.58 19.33 2.85 2.8 6.81 4.02 10.59 3.26Zm-3.19-1.13-.54-.05-.48-2.15c-1.78-7.93-3-10.93-5.92-14.52-.98-1.21-.97-1.18-.6-1.18.46 0 1.8.94 2.78 1.94 2.05 2.09 2.99 4.07 4.37 9.16.33 1.24.64 2.29.68 2.33s.26-.56.5-1.35c1.29-4.27 2.51-6.85 4.41-9.32l.22-.28-.39.2c-.53.27-1.69 1.51-2.24 2.39s-.66.87-.63-.04c.02-.87.25-1.78.63-2.52.75-1.49 1.52-1.91 4.45-2.51 1.1-.22 2.08-.42 2.17-.44.26-.06.29.05.13.65-.08.3-.22 1.06-.3 1.69-.38 2.77-1.29 3.8-3.93 4.45-.52.13-.95.25-.97.27-.8.91-2.31 6.06-2.75 9.38-.26 2.06-.23 2.03-1.59 1.9Zm1.18-.87c.76-4.83 1.38-7.22 2.5-9.66.47-1.01.46-1 1.55-1.26 2.5-.6 3.38-1.56 3.75-4.16.11-.77.25-1.55.31-1.74.05-.19.09-.36.07-.37-.07-.07-4.22.87-4.65 1.06-1.21.52-2.31 2.42-2.32 3.99v.34l.39-.6c.81-1.26 2.17-2.43 2.83-2.43.28 0 .22.17-.3.84-1.76 2.22-3.14 5.19-4.32 9.26-.68 2.33-.69 2.32-1.7-1.39-1.66-6.14-3.16-8.58-6.5-10.56-.08-.05-.02.07.14.25 3.15 3.87 4.45 6.9 6.11 14.25.31 1.38.58 2.58.61 2.68.04.14.17.17.74.17h.68zM.01 23c-.06-2.82 1.85-8.3 4.06-11.65C8.28 4.97 15.88.4 22.85.05l.9-.05-1.15.15C10.68 1.67 1.94 10.27.2 22.19c-.11.79-.18 1.09-.19.81Z"/></svg>