<svg xmlns="http://www.w3.org/2000/svg" width="51" height="51" viewBox="0 0 51 51"><path fill="#fff" fill-rule="evenodd" stroke="#fff" stroke-width=".442" d="M23.55 44.79C11.14 43.5 3.05 30.33 7.54 18.71 13.62 2.98 35.84 2.05 43 17.23c.84 1.77 1.73 4.73 1.46 4.83-.07.03-2.65.06-5.73.07-6.3.02-5.86-.03-6.4.77-.22.32-.23.42-.23 2.4 0 3.39-.53 3.14 6.8 3.18 3.11.02 5.68.06 5.72.1.05.05-.05.62-.21 1.27-2.37 9.68-11.12 15.95-20.86 14.94Zm3.56-.19c8.31-.69 15.18-6.66 17.09-14.87.11-.46.2-.88.2-.93 0-.06-2.06-.1-5.53-.1h-5.53l-.5-.25c-.9-.45-.96-.64-.92-3.27.05-3.53-.49-3.27 6.86-3.28h5.52l-.06-.28C42.5 13.95 37.07 8.56 29.38 6.88c-1.4-.31-5.69-.34-7.13-.05-6.28 1.25-11.2 4.97-13.84 10.47C2.54 29.56 11 43.8 24.65 44.63c1.05.07 1.33.06 2.46-.03ZM25.1 38c-4.59-.42-8.13-2.75-9.9-6.53-1.66-3.54-1.61-8.76.12-12.22 2.66-5.31 9.24-7.58 15.78-5.45 3.09 1.01 4.31 2.13 3.66 3.38-.49.95-1.12 1.03-2.67.34-4.67-2.06-9.22-1.67-12.1 1.05-3.57 3.37-3.58 10.44-.04 13.81 2.93 2.79 7.29 3.21 12.1 1.17 1.25-.53 1.42-.57 1.87-.44 1.07.29 1.29 1.71.38 2.53-.7.63-2.99 1.62-4.7 2.04-1.5.37-2.87.46-4.5.32Zm3.5-.35c1.74-.29 4.68-1.44 5.58-2.2.85-.72.45-2.15-.61-2.15-.15 0-.88.25-1.62.55-4.48 1.84-8.5 1.58-11.54-.73s-4.18-7.25-2.66-11.5c1.89-5.28 8.23-7.17 14.45-4.31 1.18.54 1.25.55 1.75.35.49-.21.77-.7.72-1.24-.18-1.72-5.59-3.47-9.64-3.12-7.29.63-11.66 6.4-10.72 14.15.86 7.04 6.94 11.38 14.29 10.2Zm-3.55-5.5c-3.13-.68-4.99-3.15-4.98-6.6.01-4.11 2.6-6.74 6.66-6.75 3.35 0 5.85 1.73 4.48 3.11-.47.47-.7.47-2.15-.02-3.83-1.29-6.41.38-6.24 4.02.14 3.13 3 4.59 6.35 3.24 1.41-.57 2.11-.37 2.37.68.38 1.56-3.54 2.97-6.49 2.32Zm3.65-.3c2.04-.54 2.94-1.4 2.45-2.34-.32-.63-.63-.63-2.39.04-3.53 1.33-6.74-1.12-6.18-4.73.5-3.17 3.31-4.45 6.8-3.07 2.05.82 2.78-1.04.78-1.99-3.34-1.58-7.46-.56-9.03 2.24-1.08 1.92-1.13 4.8-.11 6.88 1.22 2.49 4.56 3.78 7.68 2.97Zm4.14-4.09-.34-.34v-2.06c0-2.25.05-2.52.55-2.74.43-.2 11.51-.17 11.59.03.29.76.34 4.96.07 5.29-.12.14-.78.16-5.83.16h-5.7zm11.65-.04c.25-.47.21-4.18-.06-4.88-.04-.12-.88-.14-5.6-.14h-5.55l-.29.29-.29.29v1.97c0 2.13.03 2.29.53 2.5.55.24 11.13.21 11.26-.03ZM41.18 27c-1.72-.52-1.48-3.21.31-3.37 1.57-.15 2.25 2.39.85 3.19-.38.21-.83.28-1.16.18Zm-6.94-.13c-.02-.07-.03-.8-.02-1.62l.03-1.5.79-.03c1.44-.05 2.07.66 1.47 1.65-.21.34-.3.38-1.03.48l-.48.06V27h-.35c-.2 0-.38-.06-.41-.13Zm2.81.01c-.03-.08-.04-.81-.03-1.63l.03-1.5.89-.03c1.03-.03 1.4.08 1.61.49.22.41.18.83-.1 1.17l-.24.29.35.52c.43.63.39.83-.13.79-.33-.03-.42-.1-.77-.6-.29-.42-.46-.58-.62-.58-.21 0-.23.05-.26.58-.03.56-.03.57-.36.6-.2.02-.34-.02-.37-.1Zm5.21-.27c.43-.26.69-.94.6-1.56-.24-1.54-2.22-1.6-2.57-.08-.28 1.26.94 2.27 1.97 1.64Zm-7.44-.43.03-.53.57-.05c.71-.06 1.02-.32 1.02-.85 0-.6-.3-.8-1.22-.8h-.77l-.03 1.38c-.02 1.31-.02 1.37.17 1.37.17 0 .2-.08.23-.52Zm2.78-.02c0-.9.57-.9 1.17 0 .27.4.42.54.6.54.28 0 .24-.11-.27-.74l-.31-.4.25-.13c.97-.51.48-1.39-.81-1.49l-.82-.07-.11.27c-.06.16-.08.71-.05 1.29.02.56.04 1.08.05 1.15 0 .06.07.12.15.12.11 0 .15-.13.15-.54Zm3.29-.05c-.23-.24-.29-.38-.29-.74 0-1.31 1.61-1.54 1.93-.28.26 1.02-.91 1.75-1.64 1.02Zm1.16-.16c.31-.3.33-.82.04-1.19-.47-.6-1.36-.12-1.26.67.1.73.74 1.01 1.22.52ZM34.8 24.8v-.5h.5c.42 0 .52.04.66.25.27.42-.02.75-.66.75h-.5zm2.8-.05v-.45h.59c.6 0 .91.15.91.45s-.31.45-.91.45h-.59zm-1.96.29c.24-.09.19-.41-.06-.48-.47-.12-.58-.08-.58.24 0 .31.23.4.64.24Zm3.11-.29c0-.16-.08-.21-.39-.23-.43-.04-.62.08-.52.33.1.26.91.17.91-.1Z"/></svg>