<svg xmlns="http://www.w3.org/2000/svg" width="51" height="51" viewBox="0 0 51 51"><path fill="#fff" fill-rule="evenodd" stroke="#fff" stroke-width=".412" d="M11.48 43.07c-.89-.25-1.54-.87-1.94-1.82-.25-.61-.25-15.34.01-16.1.18-.54.52-1.04.98-1.45l.29-.26.1-2.27.09-2.28-.41-.92c-.22-.51-.85-1.68-1.4-2.62-2.09-3.55-2.29-4.95-.9-6.33 1.49-1.48 4.95-1.44 6.63.07l.37.34.48-.45c.79-.74 1.11-.82 3.24-.74 1.01.04 3.18.06 4.83.05 5.01-.04 4.94-.04 5.56.2.3.12.74.37.97.57l.41.35.67-.4c3.74-2.25 8.57-.65 9.54 3.16.65 2.5.09 4.73-1.42 5.66l-.27.17.49.65c1.9 2.51 2 5.35.29 8.81l-.4.81.2.46c.52 1.22 2.21 6.75 2.21 7.24 0 .13.08.4.19.61.1.2.24.55.31.77s.28.61.46.86c1 1.37.87 2.47-.45 3.81-.66.66-.84.79-1.35.93-1.16.34-3.02.08-3.67-.51-.16-.14-.21-.13-.58.14-.68.5-.78.5-10.31.48l-8.95-.01-.54-.3c-.3-.16-.71-.51-.91-.77l-.37-.47-.14.26c-.58 1.08-2.76 1.74-4.31 1.3Zm2.11-.27c1.01-.17 1.79-.7 2.13-1.46.16-.34.22-.31.69.31.31.41.57.63 1.04.86l.62.3 9.04-.03c9.96-.04 9.31 0 10.01-.65l.26-.25.39.3c.57.46 1.39.65 2.47.6 2.52-.13 4.06-2.8 2.56-4.43-.21-.22-.77-1.5-.91-2.05-.05-.19-.16-.66-.24-1.05-.2-.9-1.71-5.64-2.01-6.34-.3-.68-.32-.56.2-1.64 1.63-3.37 1.52-6.26-.34-8.54-.62-.76-.62-.8 0-1.21 1.96-1.27 1.95-5.41 0-7.55-1.83-2-5.99-2.2-8.38-.4l-.33.25-.39-.36c-.93-.84-1.73-1.01-4.08-.88-1.65.1-3.94.09-7.3-.04-2.04-.08-2.36 0-3.19.79l-.53.49-.55-.5c-1.61-1.47-4.98-1.45-6.34.04-1.12 1.23-.91 2.53.9 5.59.96 1.63 1.84 3.39 1.93 3.85.03.19.01 1.36-.04 2.59l-.1 2.25-.49.43c-.98.86-.94.41-.94 9.18 0 8.48-.03 8.01.71 8.78.76.79 1.69 1.01 3.21.77Zm-1.56-1.91c-.58-.17-.56.03-.61-7.34-.04-7.03-.01-7.77.35-8.07.47-.39 4.21.37 5.04 1.02 1.19.95 1.39 2.5.83 6.5-.43 3.06-.7 3.46-2.48 3.63l-1.04.1-.03 1.92c-.05 2.35-.05 2.36-1.08 2.34-.36 0-.81-.05-.98-.1Zm6.47.01c-.56-.13-.77-.47-.85-1.35-.28-2.94.71-12.21 1.33-12.54.38-.2 2.08.33 2.42.76.35.44.24 1.62-.4 4.23-.48 1.92-.61 3.04-.66 5.6-.07 3.56-.15 3.7-1.84 3.3Zm2.19-.09c-.22-.17-.24-.27-.24-.98l.01-.79.76-1.4c.41-.76.89-1.66 1.06-1.99s.54-.96.82-1.4c.77-1.2 1.47-2.62 1.35-2.74-.06-.05-.39-.15-.75-.21-.36-.07-.77-.17-.91-.22-.48-.17-.68-1.02-.27-1.17.19-.07.2-.08.03-.14-.38-.15.01-1.77.43-1.77.18 0 3.84 1.02 4.37 1.22 1.2.45 1.04 1.23-.78 3.91-1.34 1.97-3.07 5.14-3.07 5.63 0 .02.49.04 1.09.04 1.72 0 1.85.09 1.79 1.3-.04.91 0 .9-2.99.9-2.28 0-2.49-.01-2.7-.19Zm6.45.12c-.88-.16-.79-1.87.16-3.23.1-.14.44-.72.75-1.3.32-.58.95-1.59 1.4-2.26 1.19-1.75 1.2-1.84.09-1.84-.89 0-.98-.1-.92-1.06.07-1.14.25-1.44.86-1.44.64.01 3.68.36 3.82.45.59.37.09 1.9-1.39 4.24-1.04 1.64-2.26 4.11-2.09 4.22.07.05.76.09 1.54.09 1.64 0 1.74.05 1.82.9.05.6-.12 1.08-.42 1.15-.26.06-5.33.13-5.62.08Zm6.42-.14c-.36-.29-.35-.47.28-3.03.71-2.87.98-4.07 1.37-5.96.4-1.99.61-2.3 1.67-2.46.91-.14.99 0 2 3.06.87 2.65 1.03 3.22 1.07 3.79.01.26.16.75.32 1.11.17.36.4.97.53 1.35.15.49.31.78.54.97l.31.27-.21.38c-.64 1.12-2.56.95-2.89-.25-.43-1.54-.52-1.64-1.35-1.54l-.55.07-.28 1.05c-.36 1.36-.41 1.4-1.62 1.4-.78 0-.96-.03-1.19-.21Zm-19.88-.36c.03-.19-.02-.22-.4-.25-.33-.02-.44-.07-.46-.22-.03-.16 0-.18.22-.12.15.04.26.02.26-.04 0-.05.11-.12.25-.16l.25-.06v-1.42c0-1.78-.04-1.72 1.27-1.84 1.81-.16 1.92-.37 2.44-4.65.35-2.88.02-4.39-1.13-5.1-.66-.41-4.04-1.08-4.39-.87-.29.19-.38 4.68-.22 11.78l.06 3.01.26.1c.52.19 1.56.09 1.59-.16Zm6.16.05c.1-.18.15-.83.2-2.73.06-2.86.14-3.53.61-5.55.53-2.29.66-3.04.63-3.67l-.03-.58-.56-.28c-.5-.25-1.69-.49-1.69-.34 0 .03-.2 1.46-.45 3.19-.69 4.87-.9 9.29-.46 9.82.33.39 1.53.49 1.75.14Zm6.24-.47c.04-.85.03-.85-1.51-.91l-1.32-.05.01-.31c.03-.6 1.55-3.5 2.92-5.54 1.7-2.55 1.95-3.18 1.4-3.54-.3-.19-4.47-1.38-4.63-1.32-.2.07-.29 1.08-.11 1.18.22.12.2.45-.04.6-.21.13-.25.34-.12.55.04.07.43.19.86.28.88.16 1.26.36 1.26.65 0 .24-.81 1.8-1.46 2.81-.4.64-1.52 2.67-2.32 4.24a2.9 2.9 0 0 0-.3 1.11c-.07.98-.16.95 2.81.92l2.52-.03zm6.71.53c.1-.08.11-.92.02-1.16l-.11-.28h-1.39c-1.43 0-1.91-.09-1.91-.34 0-.3 1.53-3.27 2.35-4.56 1.05-1.67 1.69-3.23 1.46-3.58-.08-.13-2.84-.51-3.73-.52-.44 0-.78.73-.44.92.21.12.21.38 0 .38-.4 0-.11.55.31.58 1.8.11 1.8.16.25 2.47-.48.71-.95 1.46-1.05 1.65-.09.19-.48.87-.86 1.5-.92 1.56-1.15 2.77-.56 3 .2.07 5.57.02 5.66-.06Zm2.94.02c.08-.08.25-.57.37-1.08.26-1.09.38-1.23 1.15-1.32.87-.1 1.27.34 1.55 1.7.12.56.27.69 1 .8.63.1 1.06-.02 1.28-.38l.2-.32-.22-.17c-.14-.11-.36-.54-.56-1.11-.17-.51-.45-1.18-.62-1.5-.2-.37-.28-.63-.23-.77.09-.29-.22-1.44-1.11-4.13-.91-2.76-.92-2.77-1.7-2.6-.66.13-1.09.46-.84.62.13.09.12.13-.06.28-.17.13-.28.47-.49 1.52-.14.74-.38 1.8-.51 2.34-.14.54-.23 1.05-.2 1.12s-.01.26-.09.42c-.08.15-.28.89-.45 1.62-.17.74-.37 1.57-.45 1.84q-.27.9-.03 1.14c.18.18 1.83.16 2.01-.02Zm-4.13-1.1c0-.16.52-.26.75-.14.25.14.07.28-.36.28-.27 0-.39-.04-.39-.14Zm5.58-2.68c-.48-.27-.57-.56-.51-1.64.09-1.41.26-1.55.62-.52.12.35.34.91.48 1.26.24.59.24.63.09.87-.19.29-.2.29-.68.03Zm.19-1.1c-.14-.35-.27-.7-.29-.78-.03-.08-.08.13-.12.47-.08.69.02.99.37 1.12.32.12.33-.08.04-.81ZM14.1 34.1c-.19-.19-.2-.31-.18-2.58l.03-2.37.42-.03c.6-.04.79.18.87 1.04.1 1.06-.08 3.59-.28 3.89-.2.31-.58.33-.86.05Zm2.2-.27c0-.46.14-.73.3-.57.15.15.01.94-.16.94-.09 0-.14-.12-.14-.37Zm-1.54.06c.11-.18.24-3.29.16-3.89-.07-.53-.08-.55-.39-.58l-.33-.03-.02 1.78c-.03 1.98-.01 2.5.06 2.7.06.16.42.17.52.02Zm17.09-4.99c-1.39-.46-2.29-2.03-2.28-4 0-2.18.32-2.61 1.96-2.68 1.94-.08 2.41.44 2.59 2.88.04.54.94.59 1.26.08.21-.33.21-.33.02-.36-.15-.03-.2-.11-.2-.36 0-1.42-.29-1.92-2.22-3.92-3.05-3.16-3.55-4.11-3.14-5.98.77-3.44 4.35-5.37 7.38-3.98 1.34.62 1.81 1.46 1.86 3.32.05 1.89-.28 2.29-1.92 2.38-1.51.08-2.01-.22-2.16-1.3-.15-1.06-.43-1.36-.82-.88-.67.83.01 2.19 1.9 3.83 2.73 2.38 3.33 3.48 3.03 5.59-.15 1.06-.27 1.45-.58 1.86-.14.18-.22.4-.19.48.17.43-.93 1.89-1.79 2.39-1.01.58-3.75.96-4.7.65Zm3.3-.43c1.56-.43 2.9-1.62 2.87-2.53-.01-.23.08-.48.28-.77.37-.53.65-2 .56-2.94-.11-1.25-.45-1.7-3.52-4.63-1.28-1.22-1.68-1.89-1.69-2.77 0-.52 0-.52-.17-.3-.16.21-.18.21-.34.05-.23-.23-.09-.91.2-.96.15-.03.18 0 .13.17-.07.29.29.29.59 0 .53-.5 1.06-.05 1.23 1.04.15 1.04.45 1.23 1.85 1.15 1.44-.08 1.67-.34 1.67-1.91 0-1.73-.46-2.62-1.64-3.18-2.87-1.36-6.21.38-7.02 3.66-.44 1.77.09 2.76 3.2 5.96 1.67 1.72 1.89 2.06 2.07 3.22.08.51.17.77.26.77.33 0 .17.65-.29 1.16-.16.17-.28.2-.77.16-.67-.05-.82-.19-.82-.78 0-1.06-.36-2.14-.79-2.34-.81-.39-2.6-.2-2.86.3-.77 1.49-.18 4.33 1.09 5.19.78.53 2.54.66 3.91.28ZM25.6 27.3c-2.54-.39-4.09-1-4.44-1.75-.17-.36-.23-12.04-.07-13.79.11-1.29-.1-1.22 4.01-1.29 4.19-.07 4.23-.05 4.05 1.36-.18 1.38-.47 1.58-2.48 1.67-1.9.09-1.82.02-1.71 1.52l.09 1.13 1.45.02c2.16.03 2.37.2 2.27 1.79-.09 1.52-.3 1.7-1.75 1.49-.6-.09-1.29-.15-1.53-.13l-.44.03-.07.5c-.12.93-.09 3.4.05 3.57.09.12.53.22 1.63.36 1.64.21 1.89.31 2.03.77.07.24.09 2.4.03 2.66-.09.32-1.38.36-3.12.09Zm2.76-.18c.06-.04.11-.54.11-1.29.01-1.56.09-1.49-1.84-1.74-2.16-.29-2.07-.17-2.01-2.78.06-2.52.08-2.54 2.47-2.16 1.09.18 1.15.16 1.3-.56.18-.83.14-1.52-.1-1.83l-.21-.27-1.47.02c-1.96.03-1.86.09-1.95-1.4-.11-1.79-.08-1.82 2.08-1.91 1.73-.08 1.85-.14 2.05-1.1.31-1.46.47-1.4-3.47-1.34-1.8.03-3.37.07-3.49.1-.48.09-.48.04-.48 7.52v7.04l.36.33c.84.77 5.98 1.83 6.65 1.37Zm-1.39-.83c-.2-.22-.15-.39.12-.39.22 0 .41-.19.41-.42s.26-.24.34-.01c.04.1-.01.27-.14.43-.11.14-.23.33-.27.43-.07.22-.23.21-.46-.04Zm-12.12-1.5c-2.02-.56-1.86-.23-1.83-3.87l.03-2.97-.61-1.2c-.34-.66-.92-1.74-1.28-2.39-2.13-3.74-2.06-4.25.56-4.26 1.29 0 1.82.3 2.26 1.28.5 1.11 1.02 2.42 1.02 2.56 0 .54.36.04 1.29-1.8.96-1.91.83-1.82 2.61-1.78 2.33.06 2.44.47.85 3.31-.37.65-1.03 2.04-1.48 3.08l-.8 1.9-.08 2.4c-.15 4.62-.02 4.44-2.54 3.74Zm1.93-.01c.13-.17.22-1.24.31-3.93l.07-2.2.78-1.85c.43-1.02 1.11-2.46 1.51-3.2 1.51-2.75 1.48-2.89-.58-2.94-1.65-.04-1.47-.17-2.45 1.84-.38.8-.79 1.55-.91 1.67-.28.3-.88.41-1.08.2-.17-.17-.1-.37.14-.37.19 0 .19-.01-.47-1.6-.77-1.86-1.02-2.05-2.69-1.98-1.99.08-1.99.23-.02 3.76.56 1 1.23 2.26 1.49 2.8l.47.97v2.97c0 2.12.03 3 .12 3.09.12.12 2.63.86 2.99.88.12 0 .26-.05.32-.11Zm9.32-6.55c-.5-.08-.55-.12-.38-.3.14-.14.21-.14.58-.02.66.22.52.45-.2.32Zm6.24-2.61c-.04-.15-.11-.33-.17-.4-.07-.09-.07-.16 0-.23.15-.15.43.27.43.63s-.18.36-.26 0ZM19 12.27c0-.22.3-.56.44-.51.09.03.13-.01.13-.12-.03-.26.3-.29.43-.05.09.18.06.23-.22.4-.18.11-.38.25-.45.3-.17.15-.33.14-.33-.02Zm6.92-.49c.05-.14.65-.34.74-.25.04.03.04.13.01.22-.08.19-.81.22-.75.03Z"/></svg>