<svg xmlns="http://www.w3.org/2000/svg" width="51" height="51" viewBox="0 0 51 51"><path fill="#fff" fill-rule="evenodd" stroke="#fff" stroke-width=".441" d="M5.1 50.96C2.75 50 1.22 48.51.33 46.33c-.28-.67-.33-.94-.31-1.4l.03-.58.18.69c.78 2.98 2.79 5 5.87 5.9l.85.25H6.3c-.44-.01-.83-.08-1.2-.23Zm39.1.2c0-.03.26-.1.58-.16 3.11-.64 5.44-2.94 6.2-6.12l.17-.73.03.61c.13 2.65-3.58 6.43-6.3 6.44-.38 0-.68-.02-.68-.04ZM6.8 45.91l-.35-.06-.03-3.43c-.03-3.85-.08-3.58.73-3.54.22.01.79.01 1.26.01 1.75-.01 2.55.76 2.53 2.46-.01 1.65-.81 2.51-2.26 2.43-.37-.02-.69-.04-.69-.03-.01 0-.04.5-.08 1.1l-.06 1.1-.35.01c-.19.01-.51-.01-.7-.05Zm.9-1.39c0-1.37-.01-1.35.48-1.11 1.86.95 3.47-2.14 1.94-3.74-.55-.57-1.88-.71-2.46-.26l-.26.2v-.26c0-.24-.03-.26-.37-.23l-.38.03v6.55H7.7zm4.85-.85c-.67-.31-.7-.42-.7-2.28v-1.68l-.25-.03c-.51-.06-.35-.71.2-.83.23-.05.31-.16.49-.65.38-1.03 1.28-1 1.23.03l-.02.57h.34c.33 0 .66.21.66.41 0 .21-.42.49-.74.49-.42 0-.46.18-.46 1.99v1.24l1.01-.07 1-.07-.03.28c-.07.59-1.88.99-2.73.6Zm2.24-.37c.46-.23.26-.32-.46-.18-1.24.23-1.38.02-1.29-1.87.09-1.75.07-1.71.67-1.79.66-.09.68-.34.02-.38-.41-.03-.48-.06-.46-.23.1-1.04.1-1-.27-1-.33 0-.34.02-.54.63-.19.59-.21.62-.52.62-.18 0-.34.06-.37.14-.06.15.12.26.45.26.16 0 .19.05.13.28-.13.59-.1 2.86.03 3.19.26.61 1.7.8 2.61.33Zm-6.81-.26-.28-.15v-1.33c0-1.67.15-1.99.92-2.04.79-.05 1.08.46 1.08 1.88-.01 1.5-.73 2.18-1.72 1.64Zm21.82-.41c-.36-.26-1.75-1.16-3.1-2.01C13.36 32.23 7.66 26.48 5.99 19.7c-.36-1.46-.34-4.08.04-5.33C7.67 9 13.8 6.66 18.9 9.47c3.03 1.67 6.01 4.81 7.55 7.95l.43.87.43-.72c1.81-3.06 4.45-5.8 7.04-7.3 3.83-2.21 8.53-1.39 10.22 1.79 1.08 2.02 1.1 5.65.07 9.85-1.76 7.17-5.88 14.2-10.93 18.63-.84.74-3.15 2.56-3.25 2.56-.01 0-.31-.21-.66-.47Zm-20.68.08c.64-.6.33-3.01-.38-3.01-.66 0-.84.42-.84 1.98v1.03l.32.14c.37.16.64.11.9-.14Zm23.21-1.34c4.62-3.67 8.48-9.22 10.87-15.62 1.97-5.31 2.49-10.73 1.27-13.3-1.47-3.08-5.71-4.09-9.42-2.25-2.81 1.39-5.97 4.64-7.87 8.09-.27.49-.4.38-1.06-.92-3.09-6.08-9.01-9.78-13.79-8.62-4.54 1.11-7.04 5.28-6.19 10.31 1.13 6.64 7.27 12.98 20.66 21.31 1.07.67 2.33 1.49 2.8 1.81l.85.6.43-.3c.24-.16.89-.66 1.45-1.11Zm-2.44-.59c-.84-1.59-3.35-4.12-7.89-7.98-4.62-3.92-5.2-4.44-6.82-6.07-2.54-2.55-3.72-4.07-4.63-5.98-2.36-4.95-1.04-9.73 2.9-10.46 2.77-.51 4.81 1.65 9.2 9.71 3.53 6.47 4.51 7.42 5.19 4.99 1.12-4.04 5.23-10.4 8.15-12.59 4.42-3.32 7.35-.88 6.08 5.07-1.29 6.06-6.6 16.89-11.14 22.71-.67.86-.85.96-1.04.6Zm1.7-1.93c4.95-7.04 9.43-16.65 10.36-22.24 1.12-6.68-3.66-7.34-8.57-1.17-2.28 2.85-4.55 6.99-5.32 9.71-.36 1.26-.8 1.59-1.55 1.2-.65-.33-2.08-2.54-4.41-6.8-4.26-7.82-6.27-9.75-9.18-8.86-3.3 1-4.28 5.44-2.18 9.86 1.3 2.75 4.07 5.87 8.47 9.55 5.83 4.88 9.19 8.05 10.34 9.72l.6.88.33-.38c.19-.2.69-.86 1.11-1.47ZM.01 6.32C-.02 3.63 3.69-.02 6.42.01l.73.01-.85.19C3.34.88 1.1 3.06.24 6.15l-.23.8zm51.06.33c-.6-2.21-1.02-3-2.22-4.21C47.6 1.18 46.34.48 44.7.15l-.65-.13.78-.01c2.73-.03 6.49 3.75 6.35 6.38-.03.49-.04.52-.11.26Z"/></svg>