<svg xmlns="http://www.w3.org/2000/svg" width="51" height="51" viewBox="0 0 51 51"><path fill="#fff" fill-rule="evenodd" stroke="#fff" stroke-width=".798" d="M23.2 45c-9.1-1.11-16.45-8.78-17.08-17.81-.7-10.14 5.85-18.77 15.77-20.79 9.05-1.84 18.38 3.24 21.81 11.88 1.71 4.32 1.84 9.1.38 13.47-2.23 6.67-7.74 11.52-14.78 13-1.4.3-4.63.42-6.1.25Zm5.99-.45c11.62-2.44 18.36-13.94 14.7-25.08C39.72 6.74 23.98 2.1 13.51 10.5c-4.57 3.67-7.03 8.69-7.18 14.65-.25 10 7.01 18.39 17 19.65 1.4.17 4.48.04 5.86-.25Zm-4.67-9.96c-8.09-1.05-10.93-11.34-4.47-16.22 6.07-4.58 14.64-.3 14.59 7.28-.04 5.45-4.78 9.64-10.12 8.94Zm3.16-.4c6.5-1.49 9.01-9.73 4.45-14.59-1.83-1.96-3.89-2.85-6.53-2.84-5.01.02-8.91 3.85-8.9 8.76.01 5.78 5.31 9.97 10.98 8.67Z"/></svg>