<svg xmlns="http://www.w3.org/2000/svg" width="51" height="51" viewBox="0 0 51 51"><path fill="#fff" fill-rule="evenodd" stroke="#fff" stroke-width=".675" d="M22.43 48.7C15.91 48.16 8.87 43.44 5 37.01.99 30.34.72 21.73 4.3 14.6 9.22 4.79 20.59-.42 31.29 2.21c13.57 3.34 21.49 17.9 16.72 30.76-3.17 8.55-11.11 14.99-19.38 15.72-1.34.12-4.77.12-6.2.01Zm6.65-.34c13.17-1.95 22.39-15.08 19.56-27.86C44.8 3.2 24.43-3.89 10.55 7.25c-8.21 6.58-10.86 18.53-6.21 28 4.59 9.34 14.54 14.61 24.74 13.11ZM9.92 39.8c-2.86-3.1-4.62-6.75-5.39-11.15-.21-1.27-.24-5.13-.04-6.55.56-4.04 2.68-8.52 5.41-11.44l.63-.67 1.54 1.53c.84.84 1.53 1.59 1.53 1.66 0 .08-.25.42-.56.75-1.3 1.43-2.84 4.12-3.48 6.1-1.49 4.53-.93 10.16 1.37 13.91l.24.38.43-1.01.43-1.01-.56-1.08c-2.49-4.79-1.81-10.39 1.73-14.24.34-.38.67-.68.73-.68.12 0 2.84 2.66 2.98 2.93.08.14-.01.3-.51.85-1.23 1.35-2 3.57-2 5.76 0 .6.08.44 1.23-2.39 3.55-8.76 3.85-9.46 4.05-9.53.12-.04 1.38 2.47 4.62 9.21.68 1.41 1.27 2.54 1.32 2.49.04-.04 1.34-2.66 2.89-5.82 1.54-3.16 2.85-5.79 2.9-5.85.19-.2.44.31 1.95 4.06.86 2.11 1.97 4.86 2.48 6.12.51 1.25.95 2.24.99 2.2.04-.03.07-.54.07-1.12 0-2.12-.71-3.94-2.14-5.49l-.4-.43 1.55-1.55 1.54-1.55.61.65c3.74 4 4.41 9.91 1.63 14.53-.59.98-.58.77-.07 1.96l.42.98.23-.38c3.88-6.25 3.15-14.32-1.8-19.96l-.68-.77.3-.38c.16-.2.84-.91 1.51-1.57l1.21-1.2.61.65c6.45 6.93 7.55 17.64 2.62 25.61-.84 1.36-2.94 3.99-3.18 3.99-.06 0-.65-.54-1.31-1.2l-1.2-1.2h-8.16l.03-1.13.03-1.12 1.11-.03 1.11-.03-1.14-2.92c-.63-1.61-1.19-3.03-1.24-3.17-.09-.22-.34.23-2.25 4.09-1.9 3.84-2.16 4.32-2.3 4.2-.13-.11-3.89-7.6-4.16-8.29-.08-.2-.11-.22-.18-.1-.08.15-2.4 6.1-2.4 6.16 0 .02.49.04 1.09.04h1.08l.05 1.08c.03.59.03 1.1.01 1.15-.02.04-1.81.07-3.96.07h-3.93l-.64.66c-.36.36-.95.93-1.33 1.26l-.67.6zm2.84-1.81c.03-.05-.87-.09-2-.09s-2.06.03-2.06.06c0 .08.75.97 1.39 1.66l.44.48 1.09-1.01c.59-.56 1.11-1.06 1.14-1.1Zm28.75 1.33c2.16-2.58 3.19-4.29 4.11-6.87 2.36-6.58 1.36-13.86-2.65-19.47-.69-.96-2.05-2.58-2.17-2.58-.04 0-.67.63-1.4 1.4l-1.32 1.4.49.54c5.05 5.53 5.82 13.78 1.9 20.3l-.35.58.2.49.2.48 1.02.03 1.01.03.03 1.12.03 1.13h-3.96l1.08 1.05c.59.58 1.11 1.05 1.15 1.04.04 0 .32-.3.63-.67ZM8.59 36.27l.01-.67h2l.2-.4c.27-.53.26-.63-.15-1.29-.44-.73-.95-1.94-1.33-3.13-1.88-5.9-.68-11.84 3.4-16.84.32-.39.58-.75.58-.8s-.62-.71-1.38-1.47l-1.39-1.38-.6.68c-6.38 7.23-7.2 17.86-2.01 25.96l.53.81.07-.39c.04-.22.07-.7.07-1.08Zm12.19.5-.03-.92-1.13-.03c-.61-.01-1.12-.05-1.12-.09 0-.22 2.65-6.83 2.74-6.83.06 0 .81 1.45 1.66 3.21.85 1.77 1.82 3.71 2.14 4.33l.6 1.11 2.12-4.3c1.17-2.36 2.17-4.31 2.22-4.33.05-.01.25.37.45.85.61 1.47 2.28 5.77 2.3 5.92.02.11-.22.14-1.13.15l-1.15.01-.03.92-.03.93H42.4v-.49c0-.26-.03-.7-.07-.96l-.06-.47-.94.03-.95.04-.25-.65c-.14-.36-.71-1.73-1.26-3.05-.54-1.32-1.71-4.15-2.57-6.3-2.43-5.99-4.46-10.96-4.62-11.35l-.15-.35-1.4 2.85c-3.77 7.7-4.47 9.1-4.57 9.07-.06-.02-.84-1.56-1.74-3.43-3.56-7.38-4.13-8.5-4.22-8.29-.04.11-.92 2.25-1.95 4.75s-2.29 5.61-2.8 6.9-1.34 3.32-1.83 4.5-1.18 2.83-1.52 3.65c-.77 1.84-.6 1.68-1.74 1.66l-.96-.02v1.91h12.01zm-7.54-7.38 1.05-2.56-.06-.7c-.18-2.16.6-4.6 1.96-6.16.28-.32.51-.61.51-.64 0-.12-2.64-2.73-2.76-2.73-.15 0-1.21 1.21-1.75 2.02-1.99 2.93-2.52 6.9-1.38 10.45.29.89 1.25 3 1.34 2.92.02-.02.51-1.19 1.09-2.6Zm26.7 1.06c2.19-4.45 1.41-9.7-2-13.43l-.49-.53-1.39 1.4-1.39 1.4.35.39c1.6 1.77 2.38 4.18 2.08 6.43l-.11.86.79 1.94c.44 1.07.91 2.18 1.03 2.48l.23.54.23-.29c.12-.16.42-.69.67-1.19Z"/></svg>