<svg xmlns="http://www.w3.org/2000/svg" width="51" height="51" viewBox="0 0 51 51"><path fill="#fff" fill-rule="evenodd" stroke="#fff" stroke-width=".778" d="M27.1 39.69c-7.37-.95-13.66-6.48-15.5-13.63-.68-2.65-.74-3.31-.72-7.71.01-4.11.09-6.64.21-6.83s23.44-.17 24.41.01c2.78.55 4.6 2.43 4.79 4.97.03.47.05 4.48.03 8.93l-.02 8.07h-5.94c-6.42 0-6.77-.02-8.48-.56-4.99-1.57-8.58-6.33-8.58-11.37v-.98l1.38.03 1.37.03.06.95c.29 4.19 3.13 7.68 7.09 8.7 1.13.3 2.7.37 6.82.32l3.38-.04.03-5.57c.04-9.59.06-8.69-.25-9.23-.35-.59-.96-1.03-1.78-1.29-.64-.2-.87-.2-11.1-.19-5.74 0-10.46.03-10.49.06-.16.15-.05 7.63.12 8.72.73 4.62 2.79 8.17 6.25 10.77 2.56 1.92 5.24 2.84 9.05 3.11l.87.06v.71c0 .4-.03 1.02-.07 1.39l-.06.68-1.11-.01c-.61-.01-1.4-.05-1.76-.1Zm2.64-.8c.03-.34.06-.83.06-1.1v-.48l-.42-.05c-.24-.03-.82-.08-1.29-.1-3.91-.25-8.05-2.39-10.67-5.51-2.11-2.51-3.24-5.06-3.79-8.55-.2-1.3-.27-8.8-.08-8.99.16-.16 21.09-.17 21.65-.01 1.08.29 1.82.82 2.25 1.62l.3.53-.04 7.3c-.02 5.25-.07 7.32-.15 7.37-.28.19-8.97.02-9.91-.19-4.38-.99-7.52-4.59-7.82-8.95l-.06-.88H17.6v.84c0 5.31 4.25 10.19 9.8 11.26 1.09.21 8.27.37 11.08.24l1.52-.07v-8.51c0-5.51-.04-8.67-.11-8.96-.39-1.72-1.79-3.09-3.74-3.7-1.07-.33-2.18-.35-13.96-.32l-10.87.03-.06 1.37c-.27 5.63-.08 10.07.55 12.56 1.97 7.9 9.13 13.76 16.9 13.85l.96.01zM28.5 27.13c-2.77-.46-4.9-2.97-4.9-5.77v-.76h1.35c1.52 0 1.37-.1 1.49.95.17 1.46 1.57 2.75 2.99 2.75.62 0 .67.09.67 1.26 0 1.63 0 1.64-.74 1.63-.33-.01-.72-.04-.86-.06Zm1.25-.45c.03-.13.05-.63.03-1.13l-.03-.9-.6-.07c-1.56-.2-2.88-1.55-3.03-3.1l-.05-.58h-2.28l.06.53c.25 2.16 1.07 3.62 2.55 4.57 1.17.75 3.23 1.17 3.35.68Z"/></svg>