<svg xmlns="http://www.w3.org/2000/svg" width="51" height="51" viewBox="0 0 51 51"><path fill="#fff" fill-rule="evenodd" stroke="#fff" stroke-width=".393" d="M.05 25.45c0-13.75.01-19.36.02-12.47.02 6.9.02 18.15 0 25C.06 44.84.05 39.2.05 25.45Zm10.38 24.58L7.1 50V1.2l.23-.05c.3-.08 39.94-.02 40.01.06.08.08.13 48.66.04 48.74-.07.07-31.48.14-36.95.08Zm3.29-2.02c-.04-2.23-.05-2.21 1.21-2.21 1.55 0 2.34.98 1.68 2.07l-.2.32.31.56c.26.48.29.61.19.81-.1.22-.09.24.2.24.26 0 .29-.02.19-.19-.13-.25-.13-3.01 0-3.36.05-.14.23-.31.39-.38.23-.1.28-.16.21-.27-.28-.43.26-1 .94-1 .75 0 .88.61.23 1.01l-.32.19h.36c.51 0 .89.32.89.75 0 .4-.2.55-.74.55-.19 0-.38.05-.41.1-.04.06.07.1.26.1.97 0 .93 1.19-.04 1.21l-.42.01.53.13c.71.18.85.3.8.77l-.04.38h.99l-.21-.23c-.59-.62-.6-3.36-.02-3.67.81-.43 1.2.04 1.2 1.46 0 1.52.17 1.56.22.05.02-1 .06-1.22.22-1.4.25-.27.75-.27 1.1 0l.27.22-.03 1.52c-.03 1.46-.04 1.55-.27 1.79l-.24.26h.51c.52 0 .52 0 .45-.27-.16-.58-.09-3.08.1-3.36.45-.69 1.33-.4 1.77.58l.19.4v-.47c.02-1.09 1.32-1.25 1.61-.2.15.57.13 2.56-.04 2.97l-.15.35h.79l-.16-.25c-.28-.43-.17-3.15.15-3.49.34-.37.83-.35 1.22.03l.29.29v1.52c0 .85-.05 1.6-.1 1.71-.1.18-.07.19.45.19.53 0 .55-.01.39-.17-.5-.51-.63-2.22-.21-3.03.52-1.05 2.28-1.11 2.95-.1.38.57.3 2.55-.12 2.99l-.3.31h.57c.55 0 .57-.01.47-.21-.07-.13-.1-.75-.08-1.76l.03-1.55.28-.24c.55-.47 1.17-.22 1.62.64l.24.47.01-.47c0-.81.72-1.18 1.27-.66.27.25.37 3.4.11 3.66-.09.09.97.12 4.8.12h4.92v-9.33l-.22.21c-.7.65-2.03.39-2.49-.48-.87-1.62 1.12-3.11 2.49-1.87l.22.2V1.4l-8.17.01c-8.17.01-8.18.01-7.28.19 5.58 1.12 10.3 4.17 11.94 7.71.68 1.48.82 2.73.37 3.26l-.24.28-17.97.03c-15.43.02-18.02 0-18.26-.12l-.29-.14v1.91l.23-.21c.46-.43 2.66-.56 3.7-.21 1.35.45 2.04 2.28 1.25 3.31l-.26.34.34.37c.21.23.36.52.41.79.05.29.1-.29.13-1.77.05-1.83.09-2.25.23-2.52.48-.9 1.79-.95 2.41-.1.2.27.21.44.24 2.68l.03 2.39h.29c.39 0 .4-.05.4-2.51 0-2.26.02-2.42.43-2.86.47-.52 1.8-.34 2.15.3.25.47.31 4.91.07 5.73-.79 2.72-5.53 2.52-6.11-.26-.11-.51-.12-.53-.18-.25-.24 1.03-.32 1.21-.71 1.61-.89.88-3.68 1.18-4.7.49l-.35-.24v1.94l.21-.32c.29-.45.92-.73 1.65-.73 1.53.01 2.24.96 2.24 3.03v.81l.9-1.49c1.29-2.12 1.54-2.35 2.6-2.35 1.56 0 2.56 1.36 2.05 2.81-.18.49-1.01 1.62-1.69 2.29-.58.56-.63.39.57 1.83 1.27 1.53 1.46 1.83 1.53 2.44.18 1.44-.88 2.51-2.39 2.41-1.15-.07-1.84-.74-2.98-2.91l-.64-1.22-.05 1.4c-.04 1.24-.08 1.44-.28 1.77-.74 1.2-2.26 1.4-3.29.45l-.43-.4v2.14l.31-.23.31-.23 17.11-.03c9.42-.02 17.46-.01 17.87.03 1.43.13 1.8 1.03 1.05 2.53-1.63 3.26-7.11 4.65-18.25 4.64-10.92-.01-16.44-1.36-18.27-4.46-.1-.17-.12 1.06-.13 5.92v6.12h6.45zm1.01 1.67c.1-.08.17-.31.19-.62.04-.66.22-.68.48-.07.3.69.51.86.92.75.45-.13.47-.42.08-1.05l-.31-.5.21-.26c.3-.38.28-1.22-.03-1.51-.48-.45-1.8-.59-2.17-.22-.27.27-.31 3.18-.04 3.44.19.19.44.2.67.04Zm4.91-.04c.39-.38.18-.63-.58-.73-.68-.08-.87-.61-.21-.61.43 0 .75-.15.75-.35 0-.24-.3-.45-.65-.45-.38 0-.49-.11-.4-.4.05-.16.15-.2.54-.2.65 0 .95-.38.56-.7-.28-.23-1.67-.25-1.95-.02-.3.24-.4 3.11-.11 3.45.19.24 1.82.25 2.05.01Zm3.26.03c.62-.31.91-2.96.39-3.48-.48-.48-.88-.12-.91.81-.03.86-.05 1.41-.07 1.61-.01.2-.25.31-.46.23-.12-.05-.15-.29-.15-1.25 0-1.48-.24-1.88-.88-1.43-.32.22-.34 2.6-.02 3.12.31.5 1.45.72 2.1.39Zm2.4-.07c.15-.15.2-.33.2-.75 0-.75.16-.71.65.18.46.82.83.99 1.24.58.39-.39.28-3.26-.13-3.53-.47-.32-.86.12-.86.95 0 .75-.13.72-.6-.14-.49-.89-1.11-1.13-1.39-.53-.19.42-.15 3.03.06 3.26.21.24.58.23.83-.02Zm.72-.3-.27-.49-.03.37c-.02.2-.08.42-.14.49-.08.1-.01.13.31.13h.41zm3.56.22c.2-.26.13-3.06-.08-3.26-.27-.27-.66-.3-.89-.07-.33.33-.32 3.22.01 3.46.28.19.77.13.96-.13Zm3.36-.01c.52-.49.65-2.38.2-2.98-.45-.59-1.66-.67-2.25-.15-.65.58-.62 2.62.04 3.18.43.36 1.6.33 2.01-.05Zm2.17.19c.16-.09.19-.22.19-.76 0-.84.16-.83.68.06.44.75.75.93 1.16.66l.26-.16v-1.55c0-1.42-.02-1.57-.2-1.75-.45-.45-.83-.14-.9.72-.07.82-.22.82-.63-.02-.38-.77-.7-.99-1.15-.78l-.27.13-.03 1.62c-.03 1.91.13 2.23.89 1.83Zm.86-.24c-.49-.75-.48-.73-.42-.51.03.11.01.35-.04.53l-.1.32h.78zm-4.26-.7c-.19-.23-.1-1.66.11-1.79.33-.21.48.08.48.92 0 .92-.25 1.28-.59.87Zm.37-.9c.02-.52 0-.67-.1-.64-.09.03-.14.28-.16.72-.02.52 0 .67.1.64.09-.03.14-.28.16-.72Zm-17.21-.24c-.09-.15.06-.71.2-.77.39-.14.8.44.51.73-.13.13-.64.16-.71.04Zm3.95-2.14c.53-.3.51-.64-.04-.62-.68.02-1 .7-.39.83.02.01.21-.09.43-.21Zm13.53-3.67c6.45-.61 9.77-1.79 11.16-3.93.68-1.07.75-2.03.16-2.39-.43-.25-35.2-.3-35.82-.05-1.24.52-.4 2.65 1.53 3.87 2.5 1.58 5.52 2.25 11.87 2.63 1.24.07 10.04-.03 11.1-.13Zm14.25-1.16c.86-.44.78-1.9-.12-2.36-.73-.37-1.56-.11-1.85.59-.49 1.18.83 2.36 1.97 1.77Zm-1.28-.21c-.82-.57-.58-1.85.39-2 1.1-.18 1.82 1.15 1.01 1.87-.37.34-1.02.4-1.4.13Zm.77-.6c.18.16.19.16.25-.19.04-.2.1-.44.13-.53.06-.15.05-.15-.14 0-.25.22-.41.23-.65.01-.17-.15-.18-.14-.18.2 0 .55.1.75.26.52.13-.17.15-.17.33-.01Zm-26.73-5.59c-.53-.19-1.12-.79-1.31-1.33-.2-.6-.23-8.39-.03-9.06.43-1.42 2.4-1.89 3.54-.84.79.72.79.75.79 5.48v4.15l-.24.48c-.5 1.02-1.69 1.5-2.75 1.12Zm5.19-.04c-.56-.26-.96-.72-1.1-1.28-.23-.9-.08-8.87.17-9.42.31-.65.93-1.01 1.75-1.01 1.27 0 1.7.42 3.03 2.98l.95 1.83.05-1.53c.07-1.78.2-2.28.72-2.8 1.14-1.14 2.89-.52 3.33 1.2.24.92.18 8.29-.07 8.82-.54 1.16-1.78 1.69-2.83 1.21-.65-.29-1.16-.98-2.16-2.91-.51-.99-.97-1.8-1.01-1.8s-.08.77-.08 1.7c0 1.48-.03 1.76-.19 2.08-.5.98-1.6 1.38-2.56.93Zm14.17.08c-2.79-.36-4.55-2.43-4.69-5.54-.21-4.63 3.51-7.41 7.95-5.94 1.87.62 2.57 2.29 1.41 3.33-.69.63-1.38.68-2.45.19-1.83-.84-3.49.95-2.85 3.09.31 1.01 1.76 1.76 2.5 1.29.22-.14.03-.31-.37-.31-1.7-.01-2.28-2.28-.81-3.15.58-.34 2.65-.29 3.41.08.96.47 1.48 1.43 1.48 2.71-.01 2.86-2.39 4.67-5.58 4.25Zm-28.65-.4c.77-.37.97-.87 1.01-2.49.06-2 .2-2.04 1.09-.26.91 1.82 1.5 2.53 2.36 2.85 1.2.45 2.6-.53 2.6-1.82 0-.71-.22-1.09-1.43-2.52-1.36-1.6-1.3-1.45-.72-2.08 1.36-1.46 1.81-2.21 1.82-3.02.01-1.73-2.27-2.51-3.32-1.13-.13.18-.63.97-1.09 1.76-1.11 1.89-1.22 1.9-1.29.12-.04-.89-.1-1.34-.22-1.55-.76-1.38-2.69-1.4-3.39-.03-.3.59-.29 8.79.01 9.38.46.9 1.61 1.26 2.57.79Zm10.91.02c1.1-.56 1.12-.66 1.12-5.44 0-4.27-.02-4.43-.48-5.06-.74-1-2.55-.93-3.17.13l-.25.43v4.37c0 4.73.01 4.78.56 5.27.59.52 1.55.64 2.22.3Zm5.19.02c.75-.35.87-.73.93-2.82.07-2.6.13-2.6 1.46-.02.53 1.05 1.1 2.06 1.26 2.26.8.96 2.16 1.01 2.95.12.53-.61.55-.75.51-5.27l-.03-4.15-.28-.48a1.726 1.726 0 0 0-3.17.41c-.05.2-.1 1.03-.1 1.84 0 2.45-.13 2.44-1.46-.14-.62-1.19-1.14-2.07-1.39-2.34-1.04-1.1-2.83-.69-3.15.72-.18.77-.12 8.58.06 9.05.35.87 1.49 1.26 2.41.82Zm15.2-.11c1.74-.66 2.63-1.88 2.66-3.62.04-2.03-.89-2.93-3.03-2.94-1.47-.01-2.06.36-2.17 1.36-.1.84.33 1.33 1.32 1.51 1.18.22 1.06.92-.17.92-1.37-.01-2.28-1.02-2.28-2.55 0-2.02 1.67-3.15 3.45-2.34 1.05.48 2.16.15 2.45-.72.82-2.46-4.33-3.74-7.17-1.78-3.11 2.14-2.84 8.05.46 9.78 1.32.69 3.25.86 4.48.38ZM20.8 22.14c-.98-.35-1-.44-1-4.11 0-4.18-.06-4.08 2.35-4.08 2.13 0 3.12.56 3.45 1.96.2.82-.08 2.1-.53 2.48-.25.2-.21.37.23.99.76 1.05.83 1.93.19 2.46-.96.81-2.09.19-2.66-1.48l-.28-.81-.05.91c-.05.93-.2 1.33-.59 1.53-.24.13-.91.22-1.11.15Zm7.53-.08c-2.51-.82-3.5-4.22-1.94-6.64 1.12-1.72 4.15-2.14 5.58-.77 1.05 1.01.03 2.56-1.33 2.05-.83-.32-1.74-.07-2 .55-.54 1.29.29 2.88 1.3 2.49.23-.09.2-.34-.04-.34-1.71 0-1.61-2.26.11-2.46 1.95-.23 3.12 1.27 2.54 3.23-.45 1.5-2.55 2.44-4.22 1.89Zm5.83.04c-.46-.06-.65-.14-.9-.39l-.31-.31-.03-3.2c-.04-4.33-.09-4.22 2.16-4.28 2.26-.07 2.92.22 2.92 1.28 0 .88-.49 1.18-1.98 1.19-.45.01-.52.04-.52.21 0 .18.07.2.55.2 1.3 0 2.02.88 1.46 1.78-.26.4-.47.49-1.33.57-.58.06-.68.09-.68.26s.08.19.63.19c1.01 0 1.64.28 1.87.85.05.11.09-.98.09-2.5.01-3.88.09-4 2.44-4 1.5.01 1.9.1 2.65.64 1.01.72 1.15 2.62.27 3.76l-.24.32.36.53c.92 1.37.96 2.32.1 2.76-1.08.57-1.96-.04-2.49-1.71l-.23-.7-.06.9c-.03.6-.11.99-.22 1.16-.58.87-2.21.64-2.43-.35l-.07-.31-.18.42c-.27.63-.6.76-2.04.79-.66.01-1.46-.01-1.79-.06Zm-3.37-.41c1.37-.59 2.11-2.37 1.48-3.56-.55-1.03-2.76-1.32-3.23-.42-.29.57.07 1.39.61 1.39.65 0 .93.34.58.72-.52.57-1.68 0-1.94-.95-.48-1.79.64-2.91 2.4-2.41 1.41.39 2.09-1.1.86-1.86-1.73-1.07-4.28-.42-5.15 1.31-1.71 3.38 1.18 7.17 4.39 5.78Zm-19.23-.06c1.35-.72 1.69-2.73.61-3.58l-.31-.24.21-.23c.97-1.07.45-2.8-.96-3.22-.71-.21-2.67-.22-3.16-.02-.63.27-.65.4-.65 3.74s0 3.35.74 3.68c.53.24 3 .15 3.52-.13Zm6.44-.09c.38-.22.64-.46.85-.79l.3-.48.03-2.6c.04-3.28-.03-3.47-1.14-3.47-1.03 0-1.13.29-1.14 3.24 0 2.26-.05 2.46-.55 2.46-.58 0-.6-.08-.65-2.67-.06-2.88-.12-3.03-1.09-3.03-1.14 0-1.23.25-1.19 3.43.03 2.74.05 2.84.67 3.5.78.85 2.76 1.05 3.91.41Zm3.73.25c.37-.17.5-.54.55-1.56.04-.83.06-.93.24-.93.1 0 .21.08.25.18.67 1.92 1.03 2.42 1.74 2.42 1.38 0 1.55-1.04.43-2.63-.41-.57-.41-.59-.08-1.03.56-.73.72-1.99.35-2.73-.52-1.01-1.37-1.34-3.31-1.29-1.96.05-1.87-.15-1.8 4.21l.05 2.99.28.24c.31.26.88.32 1.3.13Zm15.83-.22c.73-.86.1-1.63-1.42-1.74-.77-.05-.85-.08-.9-.29-.12-.47.1-.64.82-.64 1.01 0 1.34-.24 1.34-.96 0-.61-.35-.82-1.45-.86l-.6-.03-.03-.39c-.04-.51.05-.56 1.06-.56 1.19 0 1.65-.48 1.32-1.35-.17-.44-.61-.55-2.33-.55-2.34 0-2.27-.11-2.26 3.9 0 3.95-.08 3.82 2.57 3.78l1.64-.03zm2.69.1c.31-.26.44-.78.45-1.74 0-1.1.35-.95.75.35.38 1.21.82 1.67 1.55 1.6 1.21-.12 1.38-1.02.47-2.39-.24-.35-.46-.69-.5-.76-.04-.06.08-.3.28-.53 1.1-1.31.54-3.37-1.04-3.84-.72-.21-2.67-.22-3.17-.01-.61.25-.64.45-.64 3.8 0 3.19.04 3.45.53 3.65.43.17 1.04.11 1.32-.13ZM9.42 19.38l.03-.73.38.01c1.12.04 1.07 1.44-.05 1.44h-.39zm.9.28c.24-.35-.04-.76-.51-.76-.21 0-.32.75-.15.93.09.09.57-.04.66-.17Zm11.87-2.18c-.23-.51 0-1.32.39-1.36 1.09-.11 1.17 1.37.09 1.55-.32.05-.38.02-.48-.19Zm18.43.13c-.09-.05-.12-.28-.1-.77l.03-.69.37-.03c.92-.08 1.21 1.17.35 1.48-.36.12-.48.12-.65.01Zm-17.48-.54c.13-.37-.02-.61-.43-.65l-.31-.03v1.02l.32-.03c.25-.02.35-.09.42-.31Zm18.25.19c.28-.33.09-.81-.31-.84l-.38-.03v.5c0 .54.38.74.69.37Zm-31.97-.64.03-.67.37.01c1.02.03.92 1.34-.1 1.34h-.33zm.84.13c.08-.31-.1-.55-.42-.55-.21 0-.24.05-.24.4 0 .5.54.62.66.15Zm33.63-4.41c.55-.7-.1-2.81-1.4-4.53-2.37-3.16-7.34-5.61-12.67-6.27-1.79-.22-7.9-.15-9.22.1-5.59 1.08-9.64 3.23-11.93 6.35-1.25 1.69-1.78 4.03-1.03 4.53.06.04 8.2.08 18.08.08h17.97zM8.4 7.96c1.99-2.87 6.46-5.45 10.95-6.3.44-.08.89-.17 1-.19.11-.03-2.78-.05-6.42-.06L7.3 1.4v4.28l.01 4.27.29-.62c.16-.35.52-.96.8-1.37Z"/></svg>