<svg xmlns="http://www.w3.org/2000/svg" width="51" height="51" viewBox="0 0 51 51"><path fill="#fff" fill-rule="evenodd" stroke="#fff" stroke-width=".75" d="M21.4 43.64c-2.23-1.3-5.06-2.94-6.3-3.66s-3.24-1.88-4.45-2.58-2.43-1.41-2.7-1.57l-.5-.29-.03-10.37-.02-10.36.32-.25c.18-.13 1.23-.77 2.33-1.42C20.54 7 25.4 4.2 25.59 4.2c.18 0 16.7 9.55 17.69 10.22l.42.29v20.85l-.27.15c-.16.09-1.2.7-2.33 1.36s-3.87 2.26-6.1 3.55C26.47 45.57 25.71 46 25.53 46c-.04 0-1.9-1.07-4.13-2.36Zm7.35.36c3.51-2.03 9.21-5.34 12.23-7.1 1.4-.83 2.09-1.28 2-1.33-.07-.04-.94-.52-1.93-1.06s-3.15-1.72-4.8-2.63c-4.33-2.38-6.55-3.58-6.62-3.58-.03 0-.95.52-2.04 1.17l-1.99 1.16v7.59c0 4.18.03 7.57.08 7.55.04-.02 1.42-.82 3.07-1.77Zm-3.42-13.51c-.18-.17-3.53-2.09-3.65-2.09-.14 0-1.21.58-6.63 3.58-2.03 1.13-4.43 2.43-5.31 2.88l-1.62.83 1.27.74a367 367 0 0 0 3.31 1.92c1.13.65 3.53 2.05 5.35 3.11 1.82 1.05 4.2 2.44 5.3 3.08l2 1.16.03-7.57c.01-4.16-.01-7.6-.05-7.64ZM9.74 34.62c.83-.43 3.22-1.73 5.31-2.89s4.38-2.42 5.08-2.81c1.14-.62 1.27-.71 1.09-.81-.12-.06-.26-.11-.32-.11-.42 0-12.8 7.11-12.8 7.35 0 .11.19.02 1.64-.73Zm33.56.74c0-.34-12.49-7.36-13.09-7.36-.53 0-.1.29 2.52 1.7 1.55.84 4.26 2.33 6.02 3.3 4.05 2.24 4.55 2.5 4.55 2.36ZM9.2 34.35c1.49-.94 4.91-2.92 7.5-4.35 1.13-.62 2.5-1.38 3.05-1.69l1-.56.03-2.65.02-2.65-.62-.36c-5.63-3.23-12.2-6.97-12.4-7.05-.17-.06-.18.46-.18 10.1v10.17l.23-.12c.12-.07.74-.45 1.37-.84Zm34.3-9.26V14.98l-.77.43c-1.36.73-5.77 3.25-9.16 5.21l-3.27 1.9.02 2.61.03 2.61.85.43c4.28 2.22 10.41 5.7 11.9 6.77.19.14.36.25.38.26.01 0 .02-4.55.02-10.11Zm-18.09 4.83c-.06-.11-.78-.66-1.61-1.23-1.36-.94-1.66-1.19-1.42-1.19.08 0 1.06.65 2.48 1.66l.6.42.02-2.18.03-2.19-2.11-1.26c-1.16-.69-2.13-1.25-2.15-1.25-.03 0-.05 1.17-.05 2.6s.04 2.6.08 2.6 1 .54 2.12 1.2c1.96 1.14 2.25 1.26 2.01.82Zm1.87-.53c.76-.44 1.64-.97 1.98-1.17l.6-.36.02-2.53c0-1.39-.02-2.53-.05-2.53s-.97.55-2.09 1.22l-2.04 1.22v4.36l1.54-1.05c.85-.58 1.57-1.05 1.6-1.05.24 0-.13.32-1.36 1.16-1.6 1.08-1.88 1.31-1.88 1.52 0 .19.11.15 1.68-.79Zm.53-5.66c1.15-.69 2.06-1.29 2.02-1.33-.2-.19-4.08-2.4-4.2-2.4-.17 0-4.36 2.41-4.29 2.47.09.1 4.22 2.53 4.29 2.53.04 0 1.02-.57 2.18-1.27ZM23.35 21l2.26-1.31.57.32c.31.18 1.32.77 2.24 1.31.91.54 1.71.98 1.76.98.06 0 .97-.51 2.04-1.14 2.31-1.35 7.54-4.35 9.26-5.31.67-.37 1.21-.7 1.18-.72-.05-.05-12.96.16-13.13.22-.15.05-.27-.11-.14-.19.04-.03 2.64-.1 5.77-.16 6.53-.11 8.06-.18 8.01-.34-.02-.06-1-.68-2.18-1.39L38.85 12l-7.4.04c-7.32.05-8.07.08-16.55.56-1.95.11-3.62.2-3.7.2-.13 0-3.13 1.7-3.29 1.86s.84.2 6.67.24c4.31.03 6.56.08 6.54.15-.01.07-2.21.1-6.35.1H8.44l2.06 1.17 2.05 1.16 1.75.12c.96.06 2.92.19 4.35.28 1.58.11 2.59.21 2.57.27-.03.12-.66.1-3.47-.1-1.1-.08-2.52-.17-3.15-.2-.63-.04-1.24-.09-1.35-.12-.42-.11.07.2 3.05 1.9 1.68.96 3.39 1.95 3.8 2.2s.8.46.87.46c.06.01 1.14-.58 2.38-1.29Zm-4.21-5.29c-.17-.17.23-.21 2.2-.21 2.39 0 3.46.07 3.46.23 0 .09-5.56.07-5.66-.02Zm-2.79-3.41c2.09-.11 4.59-.25 5.55-.31s5.05-.13 9.08-.16c4.04-.03 7.3-.09 7.25-.13-.04-.04-.91-.56-1.93-1.15-5.87-3.4-9.91-5.72-10.3-5.93l-.45-.25-6.35 3.68c-3.49 2.03-6.63 3.85-6.97 4.04-.75.43-.76.47-.16.44.27-.02 2.19-.12 4.28-.23Z"/></svg>