<svg xmlns="http://www.w3.org/2000/svg" width="51" height="51" viewBox="0 0 51 51"><path fill="#fff" fill-rule="evenodd" stroke="#fff" stroke-width=".773" d="M14.75 44.66c-.87-.38-1.15-1.09-1.15-2.93 0-1.48-.03-1.43.76-1.35 1.29.12 1.94-.22 1.94-1.02 0-.72-.26-.86-1.61-.86H13.6v-2.6h1.1c1.21 0 1.5-.13 1.66-.74.2-.79-.37-1.16-1.79-1.16h-.98l.03-1.23.03-1.22.95-.02c1.24-.04 1.37-.07 1.6-.46.28-.44.25-.74-.09-1.08-.29-.29-.31-.29-1.4-.29H13.6v-2.5h1.04c1.44 0 1.99-.47 1.61-1.36-.17-.42-.56-.54-1.72-.54h-.94l.03-1.22.03-1.23 1.1-.03c1.23-.03 1.49-.16 1.61-.77.15-.82-.38-1.15-1.88-1.15h-.88v-1.37c0-1.59.09-2 .53-2.5.58-.66.18-.63 8.76-.63h7.79l.07-1.37c.21-4.32-1.43-6.06-5.75-6.06-3.08 0-4.56.95-5.25 3.38-.24.85-.39.97-1.27 1.03-1.64.1-2.03-.28-1.74-1.74.86-4.4 4.45-6.33 10.46-5.64 2.82.32 4.71 1.55 5.81 3.75.66 1.34.8 2.09.86 4.52l.06 2.11 1.41.04c1.61.03 1.94.16 2.44.91l.27.41v25.74l-.3.44c-.18.25-.49.52-.75.66l-.44.22H25.8c-8.66-.01-10.81-.03-11.05-.14Zm20.01-.48c.68-.6.64.3.64-13.64 0-14.21.06-13.12-.75-13.59-.23-.14-.56-.25-.73-.25h-.32v-1.67c0-4.42-1.03-6.69-3.6-7.95-2.48-1.21-7.45-1.22-9.73-.01-1.61.86-2.85 2.6-3.24 4.55-.27 1.34-.22 1.39 1.14 1.36l1.06-.03.28-.83c.92-2.73 2.83-3.73 6.57-3.42 3.75.3 5.26 2.38 4.95 6.8l-.08 1.15-8.02.05c-7.9.05-8.02.05-8.29.26-.63.47-.69.63-.72 2.19l-.04 1.43.99.04c1.45.05 2.04.59 1.74 1.59-.21.7-.57.89-1.72.89h-.99V25h.86c1.3 0 1.87.37 1.87 1.2 0 .9-.57 1.3-1.87 1.3h-.86v1.9h1c1.15 0 1.63.26 1.76.95.17.9-.51 1.49-1.74 1.51-.48.01-.9.02-.94.03-.05.01-.08.41-.08.9v.89l.99.04c.82.02 1.05.07 1.28.24.68.51.65 1.54-.06 2.01-.29.2-.47.23-1.27.23h-.94v2h2.02l.34.34c.43.43.47 1.04.11 1.57-.29.43-.71.58-1.69.58l-.78.01v1.23c0 1.41.18 1.94.79 2.34l.34.23h19.36zm1.24-.06c.62-.62.6-.05.57-13.8l-.02-12.61-.21-.28c-.3-.4-.82-.73-1.17-.73h-.3l.27.25c.59.55.56-.19.56 13.6 0 13.85.03 13.04-.57 13.68l-.27.27h.38c.31 0 .46-.07.76-.38Zm1.11.07c.73-.52.69.42.69-13.59V18.04l-.22-.44c-.24-.47-.61-.73-1.18-.85l-.35-.07.27.28c.61.66.58-.16.58 13.52 0 13.63.02 13.12-.57 13.75l-.28.3.38-.06c.2-.03.51-.16.68-.28Zm-14.24-8.95c-.04-.04-.05-.16-.02-.28.02-.12.2-1.09.4-2.17l.36-1.97-.35-.46c-2-2.63 1.73-5.75 3.88-3.24.82.95.85 2.08.1 3.19l-.35.53.35 2.12c.2 1.17.36 2.18.36 2.23 0 .12-4.62.16-4.73.05Zm4.39-.41c-.02-.1-.19-1.07-.37-2.15l-.32-1.97.27-.32c1.14-1.36.62-3.34-1-3.79-2.18-.61-3.75 2.01-2.24 3.74l.33.37-.27 1.43c-.15.79-.33 1.75-.4 2.15l-.14.71h2.1c1.95 0 2.09-.01 2.04-.17Z"/></svg>