<svg xmlns="http://www.w3.org/2000/svg" width="51" height="51" viewBox="0 0 51 51"><path fill="#fff" fill-rule="evenodd" stroke="#fff" stroke-width=".737" d="M.07 43.43C0 43.37-.03 41.4.03 41.4c.26 0 17.51-2.8 17.56-2.86.08-.08-.2-3.32-.34-3.93-.6-2.55-2.77-4.02-5.79-3.89l-.81.03-.52-1.05c-2.61-5.26-2.28-10.81.88-14.6l.48-.58-.87-.16c-.48-.09-2.96-.5-5.52-.91s-4.75-.77-4.88-.8C.01 12.6 0 12.55 0 11.6c0-.73.03-1 .12-1 .07 0 2.11.32 4.53.7 2.42.39 5.44.87 6.7 1.07l2.3.36.8-.46c2.91-1.69 7.47-1.95 10.79-.62 1.56.63 2.84 1.5 4.19 2.88l.88.9 2.17.34c1.19.18 3.55.56 5.24.83 1.7.28 3.1.5 3.13.5s.04.44.03.97l-.03.98-.5-.01c-.27-.01-2.26-.29-4.42-.63-4.87-.76-4.37-.78-4.03.12 1.22 3.14.88 7.1-.95 10.93l-.62 1.31-.84-.05c-3.05-.16-5.18 1.34-5.74 4.04-.15.73-.39 2.83-.33 2.88.01.02 2.78-.41 6.13-.95 11.19-1.81 11.18-1.81 11.27-1.67.04.07.08.54.08 1.04v.9l-1.97.32c-1.09.17-4.25.68-7.03 1.13-2.78.44-6.13.98-7.45 1.19s-6.2.99-10.85 1.73c-4.65.75-9.51 1.52-10.8 1.72s-2.42.38-2.51.41c-.08.02-.18.01-.22-.03Zm3.33-.73c2.78-.43 9.68-1.53 17-2.71 7.5-1.2 8.53-1.37 13.6-2.18 2.72-.44 5.32-.85 5.78-.92l.82-.12v-.79c0-.47-.04-.78-.1-.78s-2.91.45-6.33 1c-10.68 1.72-10.86 1.75-10.96 1.65-.12-.12.12-2.54.34-3.39.65-2.6 2.57-3.96 5.56-3.96h1.09l.31-.62c2.08-4.11 2.43-8.29.99-11.7-.16-.36-.26-.68-.24-.71.05-.04 1.75.2 6.24.92 1.68.27 3.06.48 3.06.47.01 0 .03-.35.05-.76l.04-.75-1.6-.27c-1.89-.31-5.54-.9-7.47-1.19l-1.37-.22-1.18-1.16c-2.12-2.08-4.19-3.07-7.14-3.42-2.49-.29-5.49.32-7.51 1.52l-.67.39-1.93-.3c-1.06-.16-3.17-.5-4.68-.74C3.64 11.4.44 10.9.28 10.9c-.1 0-.12.2-.1.75.02.41.05.75.07.75.33 0 11.42 1.87 11.55 1.95.06.04-.15.37-.5.79-3.21 3.88-3.54 8.64-1 14.39l.43.97h1.03c3.03 0 5.04 1.36 5.68 3.85.23.89.5 4.13.36 4.35-.07.12-4.01.79-13.3 2.25-4.96.78-4.4.62-4.34 1.27.09.92.12.99.37.93.12-.02 1.41-.23 2.87-.45Zm16.16-4.92c-.02-.29-.09-1.14-.15-1.89-.33-4.41-2.98-7.09-6.99-7.09h-.49l-.32-.76c-2.2-5.24-1.34-10.06 2.34-13 5.06-4.06 12.84-2.46 15.69 3.23 1.39 2.77 1.27 6.72-.3 9.84l-.33.66-.88.06c-2.55.19-4.56 1.41-5.6 3.42-.66 1.28-.82 1.98-1.11 5.05l-.07.74-.34.07c-.19.04-.58.1-.87.14l-.52.06zm1.51.05c.08-.03.13-.22.13-.53 0-5.17 2.41-8.3 6.69-8.69 1.1-.1 1.06-.06 1.56-1.35 2.06-5.35.61-10.26-3.81-12.87-3.59-2.12-8.46-1.72-11.65.95-3.13 2.62-4.13 6.81-2.67 11.2.61 1.86.66 1.93 1.35 2.01 4.57.49 6.68 2.84 7.06 7.88l.11 1.59.55-.07c.3-.04.6-.09.68-.12Z"/></svg>