<svg xmlns="http://www.w3.org/2000/svg" width="51" height="51" viewBox="0 0 51 51"><path fill="#fff" fill-rule="evenodd" stroke="#fff" stroke-width=".637" d="M25.32 49.53c-.4-1.11-1.86-5.13-1.94-5.34-.08-.22-.17-.28-.56-.34-2.95-.42-5.12-2.97-4.88-5.75l.05-.65-.52-.35c-.28-.19-.86-.68-1.28-1.08l-.77-.73-.88.03-.87.03.78.83c.43.45 1.19 1.17 1.69 1.59 1.3 1.09 1.46.87-1.64 2.31-1.18.55-3.03 1.41-4.1 1.91-1.17.54-1.99.86-2.04.81-.09-.09.39-1.18 2.35-5.33.55-1.14.99-2.1.99-2.13 0-.02-1.17-.04-2.61-.04-2.92 0-3.48-.1-4.62-.84-2.54-1.64-3.3-5.18-1.64-7.64.16-.24.27-.45.25-.46-.01-.02-.41-.16-.87-.32-1.3-.44-1.28-.5.46-1.14l1.28-.48.12-.93c.52-3.85 3.67-6.2 7.28-5.44.38.08.71.15.72.15s.2-.26.42-.58l.39-.58-.27.04c-.3.04-.47-.27-2.6-4.92C8.54 8.97 8.35 8.51 8.46 8.4c.09-.09 2.09.81 6.34 2.87 2.33 1.12 2.3 1.1 2.3 1.31 0 .1-.26.37-.59.61-.64.46-2.71 2.54-3.11 3.11-.23.33-.21.32.29-.13.57-.5 1.69-1.1 2.36-1.25.24-.05.72-.33 1.2-.7 1.61-1.22 4.07-2.26 5.99-2.53l.86-.12v-1.29l-.9.08c-1.13.08-1.14.35.09-3.12 2.13-6.01 2.18-6.12 2.4-5.89.21.23 3.23 8.84 3.15 8.97-.04.07-.36.08-.85.03l-.79-.06v1.28l.99.17c6.56 1.15 11.51 7.14 11.51 13.93v1l.61-.1.62-.1-.06-1.31c-.04-.72-.1-1.66-.13-2.08-.09-1-.28-1.01 2.98.16 6.37 2.27 6.47 2.32 6.07 2.57-.08.04-1.15.43-2.39.85-1.24.43-2.36.81-2.49.86-.23.08-.23.09.22.49 1.44 1.26 2.29 3.74 1.89 5.48-.1.41-.09.46.11.6 2.64 1.75 2.8 5.98.33 8.28-1.67 1.56-1.47 1.53-11.37 1.53-5.52 0-8.2.03-8.24.1-.04.06-.47 1.26-.97 2.68-.49 1.41-.94 2.69-1 2.85s-.17.27-.28.27-.22-.11-.28-.27Zm1.28-2.8c.51-1.48.95-2.74.98-2.8.03-.09-.09-.13-.4-.13h-.43l-.54 1.5c-.3.83-.58 1.49-.63 1.48-.06-.02-.35-.7-.66-1.51l-.57-1.47h-.37c-.49 0-.53-.22.57 2.86.52 1.47.95 2.68.95 2.7 0 .36.34-.45 1.1-2.63Zm-.55-1.76.42-1.12-.9-.03c-.49-.01-.91-.01-.93 0-.01.02.18.56.44 1.2.25.64.48 1.15.51 1.12.03-.02.23-.55.46-1.17Zm18.53-1.42c2.99-.6 4.86-3.26 4.32-6.16-.21-1.16-1.25-2.75-2.11-3.25-.15-.08-.16-.15-.03-.74.7-3.35-2.09-6.6-5.66-6.6-.66 0-1.03.06-2.05.35-.16.05-.25-.05-.5-.52-2.02-3.97-7.94-3.92-9.96.08-.24.48-.34.59-.47.54-2.57-1.07-5.79.12-7.03 2.6-.55 1.11-.76 2.75-.5 3.86.08.35.06.38-.38.73-3.23 2.62-2.47 7.33 1.44 8.87.75.29 2.54.34 14.18.37 6.83.02 8.09 0 8.75-.13Zm-22.08-.86c-1.11-.22-2.5-1.3-2.99-2.32-1.04-2.17-.43-4.19 1.73-5.72l.29-.2-.17-.72c-.95-4.18 3.35-7.63 6.92-5.56.24.14.45.23.46.21.02-.01.11-.26.2-.54 1.52-4.66 7.83-4.53 9.36.19l.12.38.45-.26c2.28-1.27 5.34-.31 6.54 2.06.92 1.82.66 4-.65 5.48l-.21.24.33-.19c.19-.1.49-.36.68-.56.44-.49.55-.48 1.2.14 2.33 2.2 1.52 5.96-1.54 7.2l-.57.23-10.85.02c-5.97 0-11.05-.03-11.3-.08Zm22.46-.4c2.87-.93 3.83-4.29 1.88-6.57-.59-.69-.65-.7-1.35-.13-.63.51-1.84 1.1-1.97.96-.04-.04.02-.12.13-.19.69-.39 1.55-1.58 1.85-2.55 1.2-3.86-2.84-7.27-6.46-5.45-.84.42-.79.43-.93-.1-1.15-4.59-7.36-4.83-8.92-.33-.34.98-.28.94-.85.57-2.36-1.5-5.67-.27-6.66 2.48-.28.77-.28 2.12 0 2.99l.2.62-.45.26c-2.91 1.71-2.8 5.77.2 7.25.93.45.93.45 12.37.42 10-.03 10.37-.04 10.96-.23ZM14.2 39.93c1.35-.63 2.49-1.18 2.53-1.22s-.18-.28-.5-.53c-.81-.64-1.85-1.67-2.77-2.73-.43-.49-.83-.9-.9-.9-.16 0-3.86 7.55-3.86 7.88 0 .05 1.4-.58 5.5-2.5Zm8.45 1.62c-.64-.15-1.03-.35-1.39-.74-.38-.4-.27-.52.15-.17.89.76.42.71 7.31.71 5.5 0 6.65.04 6.17.19-.36.11-11.76.13-12.24.01ZM10.63 40.4c.12-.55 1.35-3 1.51-3 .12 0 .01.3-.45 1.21-.93 1.87-.95 1.77.26 1.17.81-.4 1.07-.5 1.16-.41.1.1-.02.19-.52.42-.35.16-.95.43-1.33.6l-.69.31zm15.57-1.56c-1.34-3.22-.7-6.52 1.62-8.44l.67-.55-.27-.23c-1.09-.9-3.06-.89-4.27.04-.51.38-.77.26-.29-.14 1.23-1.02 3.25-1.1 4.61-.17l.48.33.47-.26c.41-.23.48-.32.54-.67.33-1.99 1.82-3.25 3.85-3.25.64 0 1.8.32 1.99.55.22.26.03.28-.46.05-2.19-1.06-4.87.38-5.11 2.74-.05.5-.09.56-.35.65-.16.06-.6.31-.98.56-2.78 1.85-3.69 5.1-2.35 8.44.37.92.41 1.11.26 1.11-.05 0-.23-.34-.41-.76Zm7.09.19c-1.26-3.31.95-6.32 4.48-6.1.96.06.95.07.51-.77-1-1.91-3.45-3.3-5.7-3.25-.82.02-1.07-.1-.48-.23 1.25-.29 3.53.43 4.89 1.53.36.29.67.47.68.42.29-.86 1.73-1.81 3-1.98 1.17-.16 2.8.53 3.39 1.42.28.43.06.38-.46-.11-1.69-1.58-4.25-1.34-5.54.53l-.28.4.45.72c.44.68.85 1.65.74 1.75-.03.03-.25 0-.48-.07-3.23-.89-6.09 2.04-5.09 5.23.23.73.24.78.1.78-.06 0-.15-.12-.21-.27Zm-15.11-2.18c.19-.42.15-.51-.52-1.04-6.73-5.35-6.61-15.49.23-20.62 3.74-2.79 9.25-3.28 13.41-1.19 4.3 2.17 7.2 6.64 7.2 11.11 0 .89.27 1.79.54 1.79.65-.01.44-3.36-.36-5.74-3.24-9.67-15.67-12.58-22.87-5.35-5.86 5.88-5.12 15.95 1.53 20.86.68.5.69.51.84.18Zm.62-1.26c.07-.12-.1-.31-.8-.88-2.88-2.33-4.25-5.38-4.25-9.41.01-7.24 6.57-12.71 13.74-11.46 5.09.89 9.47 5.41 9.88 10.21.05.66.08.73.51 1.2l.45.5-.07-.95c-.3-3.94-2.21-7.31-5.46-9.62-4.98-3.54-12.32-2.75-16.49 1.78-5.06 5.49-4.4 13.74 1.48 18.63.7.57.7.57 1.01 0Zm6 0c-.14-.06-.54-.16-.9-.23l-.65-.12-.43-.84c-.48-.96-.7-1.95-.56-2.54.14-.57.29-.38.25.31-.06 1.23.63 2.78 1.29 2.89.77.13 1.4.35 1.4.49 0 .17-.05.18-.4.04Zm-4.5-1.99c-.63-4.41 3.06-7.9 7.21-6.82l.66.18.29-.56c1.46-2.8 5.34-3.85 8.15-2.2.64.38.62.41.44-.62-1.42-8.18-11.06-12.31-17.98-7.71-6.49 4.31-6.89 13.9-.78 18.75l.73.59.67-.63c.61-.59.66-.65.61-.98Zm-8.17 1.05.26-.45H9.61c-2.18 0-2.89-.03-3.36-.16-2.91-.75-4.2-4.66-2.26-6.86.39-.45.4-.43-.14-.58-.42-.12-.46-.11-.64.11-1.76 2.13-1.13 5.86 1.25 7.44 1.25.83 1.75.93 4.91.94l2.51.01zm2.97.35c0-.05-.14-.25-.31-.45l-.31-.35h-1.79l.44.45.45.45h.76c.42 0 .76-.04.76-.1Zm-.82-1.07c-.02-.05-.12-.22-.23-.4l-.2-.32-3.6-.03c-4.01-.04-4.15-.06-4.93-.74-1.22-1.04-1.45-3.51-.46-5.01.25-.39.39-.13.15.28-.77 1.33-.67 3.23.21 4.24.8.91.73.9 4.81.93l3.58.03-.3-.53c-.42-.75-.97-2.16-1.26-3.22-.21-.8-.29-1.31-.51-3.13l-.05-.41-.6-.07c-.38-.05-.65-.03-.71.03-.1.1-.02 1.25.19 2.7.05.4.05.42-.21.42-.34 0-.33.02.14 1.11.22.51.4.99.4 1.08 0 .33-.29-.15-.75-1.26l-.47-1.11-1.22-.43c-2.32-.81-3.58-1.19-3.71-1.11-.25.14-.66.71-.91 1.27-.87 1.88.07 4.36 2.01 5.31l.6.29 2.6.05c4.47.1 5.47.1 5.43.03Zm-4.22-5.95c-.16-1.11-.17-3.84-.03-4.58.08-.41.14-.76.13-.77-.02-.03-8.36 2.84-8.42 2.89-.05.05.45.23 5.66 2.02 2.93 1.01 2.74.98 2.66.44Zm36.92-1.44c1.39-.48 2.49-.9 2.45-.94-.04-.03-.8-.32-1.68-.64-4.54-1.64-6.57-2.36-6.68-2.36-.1 0-.11.24-.05.98.04.53.1 1.41.14 1.94l.06.96.51.07c.65.09 1.95.5 2.21.7.29.22.31.22 3.04-.71Zm-3.46.04c.02-.06.69-.3 1.48-.53l1.44-.42-1.19-.4c-1.03-.34-1.55-.63-1.13-.63.29 0 2.78.94 2.78 1.05s-2.96 1.06-3.28 1.05c-.08 0-.12-.05-.1-.12Zm-37.87-.42c-1.48-.53-1.49-.59-.15-1.08 1.48-.53 1.4-.51 1.4-.34 0 .09-.01.16-.03.16-.2 0-1.98.7-1.87.74 1.29.43 2.04.73 2.03.81-.02.16-.15.14-1.38-.29Zm5.89-1.02c.03-.09.06-.35.06-.59 0-.23.07-.82.15-1.3.19-1.08.22-1.07-.48-.26-.89 1.02-1.17 1.48-1.17 1.93v.38h.69c.54 0 .7-.04.75-.16Zm-6.56-1.05c.17-.06.22-.16.22-.42 0-3.2 3.69-5.48 6.83-4.22.38.15.7.25.71.23.01-.01.2-.34.41-.73.74-1.35 1.88-2.88 2.64-3.53l.26-.22-.53.19c-1.27.47-2.16 1.3-3.28 3.1-.02.01-.31-.04-.66-.13-3.61-.9-7.28 1.86-7.28 5.46 0 .54-.02.53.68.27Zm2.92-.99c2.37-.82 2.7-.87 2.55-.41-.02.09-.09.39-.14.66l-.09.5.31-.4c.18-.22.6-.71.94-1.09.56-.62 1.13-1.78 1.13-2.29 0-.38-2.11-.84-3.12-.68-2.31.37-3.62 1.72-4.03 4.14-.08.47-.26.5 2.45-.43Zm29.91-6.84c-.83-.97-2.67-2.78-3.28-3.21-.71-.5-.63-.62.95-1.38 5.9-2.84 6.96-3.31 7.17-3.23.22.08.23.06-1.11 2.93-2.09 4.47-2.72 5.73-2.87 5.73-.08 0-.47-.38-.86-.84Zm-24.39-.38c.91-1.1 1.98-2.15 2.9-2.88.32-.24.56-.45.55-.46-.05-.05-8.08-3.84-8.13-3.84-.04 0 .65 1.55 1.79 4 .99 2.15 1.98 4.2 2.02 4.2.01 0 .4-.46.87-1.02Zm26.01-.65c1.03-2.12 3.05-6.47 3.01-6.51-.03-.05-8.14 3.76-8.14 3.82 0 .01.36.31.8.66.85.66 2.5 2.34 3.1 3.13.19.25.37.47.41.47.03 0 .4-.71.82-1.57Zm-27.73-1.9c-.32-.67-1.2-2.65-1.2-2.69 0-.14.49.03 1.67.58 1.23.56 1.56.78 1.18.78-.08 0-.67-.24-1.3-.54s-1.15-.53-1.15-.5c0 .02.25.56.55 1.2s.55 1.23.55 1.3c0 .23-.16.16-.3-.13Zm27.3.22c0-.03.27-.61.59-1.3l.59-1.24-1.1.55c-.77.39-1.14.52-1.21.45s.31-.3 1.27-.77c.76-.36 1.4-.63 1.43-.6.1.09-1.31 2.96-1.45 2.96-.06 0-.12-.02-.12-.05Zm-12.02-2.64.03-.61H24.3v.58c0 .74-.13.67 1.37.66l1.28-.01zm-.51-.87 2.12.05-.19-.52c-.1-.29-.62-1.76-1.15-3.27-1.01-2.87-1.66-4.62-1.7-4.58-.03.03-.67 1.81-2 5.53-.51 1.43-.96 2.67-.99 2.75-.06.14.04.15.86.07.51-.05 1.88-.06 3.05-.03ZM24.3 7.82c0-.16 1.1-3.36 1.18-3.44.05-.05.14-.03.2.05.15.18 1.15 2.98 1.08 3.04-.12.13-.26-.15-.66-1.29-.24-.68-.46-1.26-.49-1.3-.04-.04-.22.38-.4.95-.5 1.53-.71 2.07-.82 2.07-.05 0-.09-.04-.09-.08Z"/></svg>