<svg xmlns="http://www.w3.org/2000/svg" width="51" height="51" viewBox="0 0 51 51"><path fill="#fff" fill-rule="evenodd" stroke="#fff" stroke-width=".464" d="M23.35 49.39c-6.15-.6-11.97-3.63-15.76-8.19C-4.49 26.66 3.24 5.29 21.75 2.03c1.48-.26 6.38-.26 7.8.01C41.14 4.17 49.4 13.89 49.4 25.4c0 14.24-12.07 25.36-26.05 23.99Zm5.61-.43c7.53-1.08 14.06-5.75 17.44-12.46 1.54-3.07 2.7-7.34 2.7-9.97v-.63h-2.79l-.03.83-.03.82h-2.1l-.03-.82-.03-.83H36.5l-.02 4.72-.03 4.73h-3.2l-.03-4.73-.02-4.72h-4.48l-4.47.01.3.21c2.31 1.69 2.46 5.58.31 7.72-2.83 2.83-9 2.21-10.6-1.07-.29-.59-.59-1.85-.54-2.31l.03-.31h3.28l.12.55c.29 1.4 1.21 2.11 2.75 2.12 1.98.01 3.04-.99 3.04-2.88 0-2.16-1.03-2.94-3.91-2.94H17.7v-1.1H7.2v.48c0 .26-.03.64-.06.85l-.07.37H5v-1.7H2.07l.06 1.13c.23 4.48 2.14 9.35 5.22 13.35 4.94 6.42 13.35 9.75 21.61 8.58Zm-7.05-13.81c2.73-.7 4.3-2.72 4.17-5.38-.08-1.54-.61-2.6-1.71-3.41l-.61-.46H18v.8h1.12c2.9.01 4.09.94 4.1 3.21.01 1.98-1.06 3.09-3.06 3.17-1.79.08-3.03-.79-3.3-2.3l-.07-.38H14v.3c0 3.24 3.94 5.46 7.91 4.45ZM36.2 30.5v-4.6h-2.8v9.2h2.8zM6.9 25.75V24.2H5.2v.88c0 .48.03 1.17.07 1.54l.06.68H6.9zm39.14 1.09c.03-.26.06-.96.06-1.55V24.2h-1.8v.63c0 .35.03 1.05.06 1.55l.07.92h1.54zM4.95 25.05c-.03-.31-.04-.69 0-.86l.07-.3 1.06.03 1.07.03.03.83.03.82H17.7v-1.33l.78.06c2.97.23 4.13-.55 4.15-2.78.02-1.83-.77-2.61-2.63-2.59-1.5 0-2.35.59-2.77 1.9l-.17.54H13.9v-.38c0-1.57 1.09-3.31 2.57-4.1 1.89-1 5.11-1.04 7-.08 3.11 1.57 3.52 6.17.74 8.29l-.62.47 4.78-.02 4.78-.03.03-2.97.02-2.98-1.87-.02-1.88-.03-.03-1.21-.03-1.22.33-.05c1.03-.17 6.46-.7 6.61-.64.16.06.17.4.17 4.62v4.55h7.6v-1.7h1.09c1.27 0 1.24-.02 1.15 1.01l-.07.69h2.83v-.99c0-8.91-6.84-18.01-15.88-21.1-4.38-1.5-9.95-1.6-14.37-.26C9.41 6.12 2.48 14.74 2.13 24.08l-.06 1.52h2.95zm18.27.48c.01-.05.29-.26.61-.47 2.83-1.91 2.56-6.51-.47-7.95-1.09-.53-1.76-.66-3.31-.66-2.68 0-4.46.88-5.35 2.64-.27.54-.65 1.89-.56 1.98.02.02.63.04 1.36.06l1.34.02.22-.57c.54-1.4 1.24-1.83 2.99-1.83 2.05 0 2.86.77 2.86 2.75.01 2.21-.88 3.01-3.46 3.1-1.11.04-1.5.08-1.49.18.01.06.02.28.02.47l.02.35h2.59c1.43 0 2.61-.03 2.63-.07Zm12.98-4.39v-4.47l-.68.06c-1.38.13-5.48.57-5.69.62-.22.05-.23.1-.23 1v.95l1.88.02 1.87.03.03 3.13.02 3.12h2.8z"/></svg>