<svg xmlns="http://www.w3.org/2000/svg" width="51" height="51" viewBox="0 0 51 51"><path fill="#fff" fill-rule="evenodd" stroke="#fff" stroke-width=".475" d="M22.68 41.7c-.89-.16-1.2-.65-1.26-1.97l-.04-.92-.37-.03c-.35-.03-.36-.04-.39-.47-.04-.5.06-.61.56-.61.25 0 .32-.04.32-.2 0-.15.13-.26.47-.41.58-.25.73-.19.73.25v.35l.78.03.77.03v1l-.84.03-.83.03.04.73c.05 1.02.13 1.1 1.1 1.03l.78-.05v.54c0 .35-.05.56-.12.58-.29.09-1.35.13-1.7.06Zm6.82.01c-1.06-.35-1.6-1.05-1.6-2.09 0-2.49 4.19-2.72 4.56-.25.11.77.1.78-1.74.78-1.31 0-1.58.02-1.49.13.37.45 1.45.58 2.34.28.65-.22.73-.17.73.43 0 .46-.01.48-.37.6-.47.15-2.09.24-2.43.12Zm3.68-.07-.48-.15v-.54c0-.63-.03-.62.93-.34.53.16.85.2 1.18.15.92-.14.91-.41-.03-.5-1.53-.16-2.08-.49-2.08-1.25 0-1.14 1.55-1.69 3.33-1.17l.58.17-.07.47c-.08.59 0 .56-.88.38-.93-.2-1.37-.2-1.62-.02-.24.19-.14.22.84.31 1.36.12 1.85.45 1.85 1.25 0 1.16-1.79 1.78-3.55 1.24Zm-18.81-.01c-.04-.03-.07-1.07-.07-2.3V37.1h1.3v3.39l1.52.03 1.53.03.03.57.03.58h-2.14c-1.17 0-2.17-.03-2.2-.07ZM19 39.97c0-.96.02-1.76.04-1.78s.29-.02.6-.01l.56.04v3.48H19zm5.92-.24.03-1.98.58-.03c.43-.02.59.01.63.12.05.12.1.13.39 0 .19-.08.57-.14.85-.14.59 0 .67.11.54.73l-.09.42-.6.02c-.93.02-1.05.22-1.05 1.69v1.14h-1.3zm6.78 1.63c.27-.09.36-.17.38-.38.04-.32.03-.33-.62-.13-.92.28-1.78.16-2.28-.32-.6-.57-.47-.63 1.37-.63h1.65v-.32c0-1.02-.75-1.63-2-1.63-1.05 0-1.59.28-1.91.98-.8 1.78 1.14 3.17 3.41 2.43Zm4.13-.01c.63-.3.85-.99.47-1.47-.22-.28-.73-.44-1.69-.52-.88-.08-1.24-.48-.69-.77.21-.11 1.53-.07 2.11.07.27.06.28.05.25-.22-.04-.38-.7-.57-1.74-.51-2.07.11-2.21 1.83-.16 2.02 1.11.1 1.27.16 1.27.5 0 .53-1.22.75-2.2.4-.54-.2-.55-.19-.55.13 0 .25.05.3.43.42.23.07.47.14.52.16.28.1 1.64-.04 1.98-.21Zm-17.39-.07c.13-.49.15-.48-1.49-.48H15.4v-3.5h-.8v4.2h1.89c1.87 0 1.89 0 1.95-.22Zm5.55.16c.26-.06.31-.11.31-.36v-.29l-.64.07c-1 .1-1.26-.2-1.26-1.45v-.91h.85c.84 0 .85 0 .85-.25 0-.24-.02-.24-.82-.27l-.83-.03-.03-.37c-.04-.43-.03-.43-.42-.23-.21.11-.3.23-.3.4 0 .23-.04.25-.45.25s-.45.02-.45.24.05.25.43.28l.42.03.05 1.11c.07 1.63.68 2.1 2.29 1.78Zm1.91-.82c0-1.55.31-2.02 1.33-2.02.46 0 .47-.01.47-.3 0-.22-.05-.3-.17-.31-.46-.03-.81.04-1.11.22-.42.24-.52.24-.52-.01 0-.16-.07-.2-.35-.2h-.35v3.5h.7zm-6 .35c0-.24.03-.92.07-1.5l.06-1.07h-.35c-.42 0-.48.26-.48 2.03v.97h.35c.35 0 .35 0 .35-.43Zm8.97-1.53c-.12-.12.23-.64.53-.79.37-.19 1.23-.19 1.59 0 .27.14.56.67.44.79-.08.08-2.48.08-2.56 0Zm2.33-.22c0-.45-1.37-.66-1.79-.28-.16.15-.18.21-.09.28.17.1 1.88.1 1.88 0Zm-11.85-1.24c-.61-.35-.37-1.24.31-1.16.67.08.79.89.17 1.17-.28.13-.23.13-.48-.01Zm.53-.3c.32-.32-.1-.78-.5-.56-.33.16-.16.68.22.68.09 0 .21-.05.28-.12Zm-8.4-4.55c-.26-.07-.22-.2.21-.72.74-.89.86-1.23.86-2.46 0-1.25-.19-1.77-.89-2.44-.2-.19-.36-.43-.36-.53 0-.17.56-.18 13.54-.18h13.54l.31.35c1.24 1.42 1.33 3.65.2 5.34l-.41.61-12.56.01c-6.91 0-12.95.02-13.42.04s-.93.01-1.02-.02Zm6.5-.61c1.26-1.59 1.28-3.66.07-5.11l-.27-.31h-6.1l.32.37c1.24 1.41 1.18 3.61-.13 5.1l-.29.33h6.1zm20.56.05c1.11-1.45 1.13-3.66.06-5.18l-.21-.29H18.06l.27.28c1.15 1.2 1.13 3.65-.04 5.13l-.31.39h20.31zm-27.27-8.19c-.02-.07.13-.33.34-.57 1.31-1.49 1.32-3.57.02-5.01-.24-.27-.42-.54-.38-.6.04-.07 4.5-.1 13.64-.1h13.58l.3.43c1.22 1.7 1.24 3.85.04 5.43l-.37.49-13.56.03c-10.8.02-13.57 0-13.61-.1Zm12.83-.55c1.19-1.36 1.17-3.79-.05-5.16l-.24-.27-6.07.02-6.08.03.32.36c1.26 1.44 1.19 3.64-.16 5.12l-.26.27h12.22zm14.53 0c1.02-1.48 1.05-3.42.07-4.96l-.3-.47H24.19l.36.53c.98 1.44.98 3.3 0 4.75l-.36.52h14.18zM11.3 15.62c0-.1.11-.29.25-.42 1.41-1.32 1.48-3.6.16-5.03-.23-.24-.41-.49-.41-.56 0-.08 3.47-.1 13.63-.09l13.62.03.36.54c1.05 1.56 1.02 3.6-.07 5.19l-.36.52H24.89c-13.09 0-13.59-.01-13.59-.18Zm18.03-.3c1.06-1 1.33-2.93.63-4.37-.62-1.26.52-1.12-9.61-1.2l-8.79-.08.46.52c1.22 1.35 1.16 3.63-.12 4.98-.16.18-.3.33-.3.35s3.93.03 8.74.03h8.74zm8.94.17c.12-.04.34-.29.48-.54.9-1.53.85-3.56-.11-4.82l-.25-.33H29.5l.34.45c1.01 1.32 1.05 3.25.11 4.66-.28.4-.33.54-.23.61.16.11 8.24.08 8.55-.03Z"/></svg>