<svg xmlns="http://www.w3.org/2000/svg" width="51" height="51" viewBox="0 0 51 51"><path fill="#fff" fill-rule="evenodd" stroke="#fff" stroke-width=".451" d="M30.14 43.08c.03-.13.06-.42.06-.65 0-.39.02-.43.25-.43.29 0 .31-.06.45-1.34.11-1.05.12-1.06 1.1-1.06 1.28 0 1.24-.04 1.18 1.14-.06 1.14-.04 1.26.22 1.26.13 0 .2.09.22.26.02.2.19-.06.73-1.15.69-1.39.7-1.41 1.03-1.41s.34.01 1.03 1.44c.38.79.69 1.46.69 1.5 0 .19-.8.05-.91-.16-.17-.33-.28-.38-.91-.38-.54 0-.58.02-.73.3-.13.26-.21.3-.55.3-.38 0-.4.02-.4.31 0 .44-.73.41-.78-.04l-.03-.28-.92.03-.92.03-.03.28c-.03.24-.07.27-.44.27s-.4-.02-.34-.22Zm.56-.4c0-.16.12-.18 1.2-.18h1.2v.25c0 .28.15.34.24.09.13-.35.07-.54-.19-.54h-.25v-2.4h-1.67l-.06.75c-.12 1.42-.16 1.55-.48 1.62-.29.05-.43.56-.22.76.09.09.23-.13.23-.35Zm-12.93.11c-1.86-.42-1.59-3.09.32-3.09 1.02 0 1.66.59 1.66 1.53 0 1.15-.84 1.81-1.98 1.56Zm-4.2-.05c-.04-.04-.07-.74-.07-1.56V39.7h.4c.4 0 .4 0 .4.39 0 .86.12.88.81.16.46-.48.57-.55.91-.55.49 0 .48.03-.14.79-.35.44-.48.68-.42.76.05.07.3.41.56.75.53.68.53.8.03.8-.29 0-.4-.08-.82-.59-.66-.82-.91-.83-.95-.03-.03.55-.04.57-.33.6-.17.02-.34 0-.38-.04ZM20 41.42c0-.77-.03-1.47-.06-1.56-.05-.13.01-.16.32-.16.37.01.42.05.89.7.28.38.52.69.55.69s.28-.31.55-.7c.44-.61.54-.69.83-.69h.32l.02 1.25c.01.69.02 1.37.02 1.53.01.24-.02.27-.34.27h-.35l-.07-.74c-.1-.92-.07-.9-.51-.31-.46.62-.58.62-.99.03l-.33-.48-.03.73c-.02.6-.06.72-.2.72-.09 0-.27.03-.39.06l-.23.06zm3.65 1.29c-.03-.06.26-.75.64-1.55l.7-1.46h.71l.69 1.42.69 1.43.01-1.43.01-1.43.43.03.42.03.03.53.03.52h1.29v-1.1h.83l-.06 1.07c-.04.58-.07 1.26-.07 1.5 0 .43 0 .43-.35.43h-.35v-1.1h-1.41l.07.35c.14.75.04.85-.84.81-.74-.03-.78-.05-.95-.35-.3-.5-1.35-.47-1.66.04-.2.35-.71.5-.86.26Zm-4.9-.25c.43-.18.75-.69.75-1.19 0-1.33-1.82-1.86-2.5-.74-.7 1.14.49 2.45 1.75 1.93Zm-4.65-.56v-.6l.38.01c.33 0 .42.07.85.6.27.32.56.59.64.59.18 0 .19.02-.5-.78-.47-.53-.46-.56.08-1.22.62-.76.45-.77-.26-.02-.82.86-1.13.86-1.17 0-.02-.43-.07-.58-.17-.58-.12 0-.15.23-.15 1.3 0 1.09.02 1.3.15 1.3.12 0 .15-.13.15-.6Zm6.4-.35c0-1.13.02-1.14.65-.3.27.36.5.65.5.65.01 0 .25-.29.53-.65.68-.84.71-.83.74.27.02.62.07.93.16.96.15.05.18-2.43.03-2.53-.06-.03-.4.31-.76.75-.37.44-.68.8-.7.8s-.23-.28-.48-.62c-.74-1.05-.83-1.09-.9-.46-.13 1.03-.09 2.08.08 2.08.12 0 .15-.17.15-.95Zm3.89.6.2-.35h1.52l.2.35c.18.29.39.46.39.31 0-.24-1.22-2.56-1.35-2.56-.12 0-1.35 2.33-1.35 2.56 0 .15.22-.02.39-.31Zm3.31-.25v-.61l.92.03.93.03.05.6c.08.95.2.39.2-.92 0-.87-.03-1.14-.12-1.11-.08.03-.14.27-.16.61l-.03.57H27.7v-.6c0-.47-.03-.6-.15-.6-.13 0-.15.21-.15 1.3s.02 1.3.15 1.3c.12 0 .15-.13.15-.6Zm6.68.26.2-.33.78.03c.8.04.87.07 1.14.54.05.08.12.12.15.08.12-.11-1.13-2.6-1.27-2.56-.12.03-1.37 2.32-1.38 2.51-.01.18.2.04.38-.27Zm-16.75.09c-.42-.18-.67-.67-.6-1.17.17-1.26 1.99-1.27 2.23-.02.17.93-.72 1.59-1.63 1.19Zm13.57-.16c0-.07.05-.52.12-1l.12-.89h.57c.68 0 .69.01.69 1.16v.84h-.75c-.49 0-.75-.04-.75-.11Zm-12.45-.24c.52-.51.23-1.32-.5-1.42-.57-.07-.95.24-.95.78 0 .8.9 1.2 1.45.64Zm13.65-.65v-.8h-.34c-.38 0-.4.03-.51 1.03l-.07.57h.92zm-7.7.35c0-.18.62-1.25.7-1.2.12.07.5.93.5 1.11 0 .1-.16.14-.6.14-.33 0-.6-.02-.6-.05Zm10 0c0-.14.61-1.25.69-1.25.07 0 .21.28.58 1.18.04.09-.12.12-.61.12-.36 0-.66-.02-.66-.05ZM13.4 36.1v-2.7h23.55l-.02 2.68-.02 2.67-11.75.03-11.76.02zm23.3-.05V33.6l-11.52.02-11.53.03-.03 2.43-.02 2.42h23.1zm-20.75 1.68c-.33-.08-.55-.34-.55-.65v-.28h1.59c.96 0 1.62-.04 1.66-.1s-.31-.1-.97-.1c-1.85-.01-2.38-.26-2.38-1.11 0-.93.33-1.09 2.25-1.09 1.43 0 1.46.01 1.71.25.53.53.36.6-1.41.62-1.37.01-1.6.04-1.63.17-.03.14.13.16 1.21.16 1.41 0 1.81.1 2.02.51.35.67-.02 1.41-.8 1.59-.41.1-2.34.12-2.7.03Zm4.96-.09c-.2-.14-.21-.24-.21-1.45 0-1.82-.04-1.79 2.05-1.79 1.95 0 2.35.18 2.35 1.05 0 .9-.47 1.15-2.12 1.15-1.42 0-1.33-.05-1.4.74-.04.36-.36.51-.67.3Zm4.45-.1c-.12-.3-.05-.42.8-1.6 1.54-2.12 1.63-2.12 3.22.09.45.63.82 1.21.82 1.29 0 .46-.69.52-1 .08l-.21-.3h-2.55l-.22.3c-.25.34-.75.42-.86.14Zm5.76.04c-.08-.08-.12-.54-.12-1.4 0-1.81-.04-1.78 2.05-1.78.95 0 1.65.04 1.78.11.6.31.76 1.05.32 1.57-.14.17-.25.33-.25.37s.11.2.25.37c.41.48.28.88-.27.88-.22 0-.37-.11-.71-.55l-.42-.55H32v.29c0 .7-.49 1.08-.88.69Zm-12.33-.19c.37-.13.51-.35.51-.83 0-.57-.23-.66-1.75-.66s-1.76-.09-1.6-.57l.1-.28 1.59-.03c1.38-.02 1.56-.04 1.46-.17-.24-.29-3.05-.21-3.35.1-.32.31-.32.66-.01 1.02.24.28.26.28 1.68.33l1.43.05.03.26c.05.43-.13.48-1.78.51-1.46.03-1.53.04-1.36.21.21.2 2.5.25 3.05.06Zm2.61-1.2V35h2.8l.12.26c.23.51.06.59-1.36.62-1.12.02-1.26.05-1.25.2 0 .1.03.12.06.04.07-.17.23-.15.23.03 0 .26 2.19.21 2.54-.06.33-.26.37-.88.06-1.19-.2-.2-2.99-.31-3.44-.14-.16.06-.25 2.51-.1 2.67.25.24.34-.1.34-1.24Zm4.66.96.26-.35h2.69l.35.35c.32.33.54.38.54.14 0-.05-.4-.65-.9-1.33-.86-1.18-1.13-1.42-1.46-1.29-.22.08-1.94 2.44-1.94 2.65 0 .28.16.22.46-.17Zm9.01.19c.03-.09-.07-.31-.26-.54-.38-.47-.38-.53-.06-.7.43-.23.5-.91.13-1.22-.25-.22-3.25-.27-3.46-.06-.23.23-.16 2.58.08 2.58.19 0 .2-.07.2-1.2V35h1.32c1.38 0 1.5.03 1.61.33.17.45-.07.57-1.16.57-1.25 0-1.47.05-1.46.34.01.17.02.17.06.03.05-.18.23-.24.23-.07 0 .06.33.1.79.1.73 0 .8.02.95.25.5.76.91 1.08 1.03.79Zm-8.33-.99c.1-.28.87-1.35.96-1.35.12 0 .61.61.89 1.1l.22.4h-1.06c-.92 0-1.06-.02-1.01-.15Zm1.5-.27c-.44-.77-.51-.79-.87-.28l-.28.4h.61c.46 0 .59-.03.54-.12Zm-4.15-.54c.02-.02.01-.1-.02-.19-.1-.25-2.47-.22-2.47.03 0 .1.03.21.06.24.06.06 2.36-.02 2.43-.08Zm9.7.1c.38-.04.61-.11.61-.19 0-.19-.34-.25-1.42-.25-.98 0-.98 0-.98.25 0 .28.45.33 1.79.19ZM24 32.54c-5.84-.69-9.78-3.82-11.16-8.89-.54-1.98-.4-5.03.33-7.25C16.05 7.71 27.95 5 34.74 11.5c6.67 6.38 4.48 17.29-4.06 20.29-1.73.6-4.89.96-6.68.75Zm4.36-.44c8.13-1.39 12.4-9.68 8.74-17.01-3.72-7.46-13.87-9.29-20.33-3.65-4.92 4.29-5.41 12.35-1.04 17.03 2.81 3 7.85 4.45 12.63 3.63Zm-6.76-3.06c-2.65-.41-4.23-1.63-5.55-4.29-.81-1.64-.9-2.06-.89-4.2 0-2.1.15-2.79.9-4.34 3.71-7.71 15.1-7.73 18.98-.04 2.62 5.22-.17 12.01-5.27 12.83-2.05.32-3.12-.8-3.05-3.21l.03-1.04 3.23-.03c1.77-.01 3.22-.05 3.22-.09 0-.03-.19-.29-.43-.57-2.53-2.99-5.31-7.6-6.73-11.18-.22-.54-.41-.98-.45-.98-.03 0-.2.37-.38.82-1.49 3.69-4.12 8.1-6.68 11.21l-.64.77h6.51v1.18c0 .64-.05 1.34-.11 1.55-.27.99-1.59 1.78-2.69 1.61Zm1.54-.58c.8-.47 1.11-1.3 1-2.67l-.07-.79h-3.28c-1.98 0-3.29-.04-3.29-.09 0-.06.39-.59.88-1.19 2.68-3.36 5.29-7.77 6.7-11.37.22-.54.44-1.01.49-1.02.05-.02.38.65.73 1.49 1.52 3.68 3.47 6.99 6.18 10.48.66.85 1.18 1.58 1.16 1.62-.03.05-1.53.08-3.35.08H27v1.08c0 2.2 1.03 3.04 3.14 2.58 4.98-1.11 7.28-8.12 4.3-13.07-2.91-4.81-9.45-6.37-14.37-3.42-4.84 2.91-6.19 9.18-2.99 13.91 1.42 2.08 4.5 3.29 6.06 2.38Z"/></svg>