<svg xmlns="http://www.w3.org/2000/svg" width="51" height="51" viewBox="0 0 51 51"><path fill="#fff" fill-rule="evenodd" stroke="#fff" stroke-width=".732" d="M14.85 44.39c-3.87-.35-6.62-2.45-7.59-5.81-.53-1.84-.58-2.8-.63-11.88-.08-13.51.1-14.82 2.34-17.21 1.71-1.81 3.31-2.46 6.68-2.69 2.66-.19 20.33-.08 21.55.14 4.06.7 6.33 2.98 7.07 7.12.28 1.52.27 20.98 0 22.78-.65 4.28-2.9 6.67-7.02 7.43-1.02.19-20.43.29-22.4.12Zm20.25-.19c5.43-.33 8.09-2.45 8.87-7.07.24-1.42.28-21.55.05-23.03-.6-3.79-2.76-6.08-6.41-6.81-1.68-.33-5.12-.42-13.86-.36-9.65.08-10.54.15-12.4 1.07-2.71 1.34-4.06 3.63-4.34 7.37-.14 1.8-.14 18.02-.01 19.88.24 3.22.8 4.8 2.27 6.36 1.69 1.79 3.48 2.45 7.03 2.59 2.77.11 16.98.11 18.8 0Zm-20.81-4.9c-1.09-.04-1.3-.08-1.49-.25-.84-.76-.56-2.15.5-2.46.68-.2 10.11-.07 10.43.14.86.56.87 1.9.01 2.38-.31.18-6.58.3-9.45.19Zm13.15-.19c-.9-.55-.81-1.94.16-2.44.53-.27 10.21-.22 10.63.06.85.55.86 1.87.03 2.38-.48.29-10.34.29-10.82 0Zm-3.63-.39c.51-.56.37-1.48-.28-1.81-.38-.19-10.06-.15-10.44.05-.79.4-.68 1.69.16 2.05.11.04 2.46.07 5.23.06l5.04-.02zm14.5 0c.43-.48.41-1.12-.05-1.58l-.34-.34h-5.07c-4.95 0-5.08 0-5.36.21-.67.47-.55 1.53.21 1.92.32.16.73.17 5.33.15l4.99-.03zm-25.45-4.33c-.75-.59-.72-1.81.06-2.29.3-.18 8.46-.35 10-.21 1.37.13 1.93 1.41 1.04 2.36l-.33.35h-5.25c-5.18 0-5.26 0-5.52-.21Zm14.51 0c-.78-.59-.73-1.83.1-2.32.32-.18 8.11-.35 9.82-.2 1.51.13 2.16 1.58 1.1 2.47l-.31.26h-5.21c-5.12-.01-5.23-.01-5.5-.21Zm-3.56-.37c.34-.37.4-1.02.13-1.4-.36-.52-.36-.52-5.62-.52h-4.89l-.34.23c-.48.32-.67.92-.44 1.4.32.68.23.67 5.83.64l5.04-.02zm14.18.27c.82-.29.83-1.62.01-2.04-.39-.2-9.9-.22-10.29-.02-.87.44-.84 1.71.04 2.07.32.14 9.86.12 10.24-.01Zm-23.3-4.39c-2.04-.24-2.49-1.26-2.49-5.55 0-3.51.23-4.52 1.14-5.14.78-.54.49-.53 12.21-.54 12.25-.02 11.62-.05 12.47.71.8.72.83.85.86 4.41.07 6.09-.19 6.35-6.13 6.16-1.78-.05-2.35-.1-2.35-.2 0-.3-.73-1.54-1.17-1.99-2.03-2.06-4.92-2.19-7-.31-.58.52-1.28 1.51-1.44 2.06l-.11.36-2.02.06c-2.33.08-3.06.07-3.97-.03Zm5.91-.54c.52-1.6 2.48-3.19 4.24-3.46 2.33-.36 4.87 1.18 5.67 3.43l.14.38 3.1-.03c4.91-.05 4.87-.01 4.85-5.52 0-4.05-.07-4.32-1.25-4.91l-.6-.3H25.6c-12.54 0-11.72-.05-12.44.75-.58.64-.61.88-.61 4.6 0 2.97.02 3.41.18 3.87.27.78.85 1.24 1.82 1.46.11.03 1.49.05 3.07.06l2.86.01zm4.05-4.23c-1.53-.8-1.75-2.74-.44-3.86 2.02-1.73 4.65.93 3.12 3.15-.52.76-1.9 1.12-2.68.71Zm1.5-.14c.55-.15 1.18-.82 1.35-1.43.5-1.8-1.5-3.26-3.03-2.2-1.87 1.3-.51 4.23 1.68 3.63Zm-12.33-8.34c-1.97-.62-2.17-3.23-.32-4.21.55-.29 23.55-.29 24.1 0 1.8.96 1.75 3.37-.09 4.19-.41.19-23.1.21-23.69.02Zm23.99-.5c1.23-.87 1.15-2.71-.16-3.39-.4-.21-.43-.21-12.17-.21H13.72l-.38.31c-.69.55-.79.76-.79 1.64 0 .92.27 1.38 1.06 1.78l.44.22 11.67-.02 11.66-.03z"/></svg>