<svg xmlns="http://www.w3.org/2000/svg" width="51" height="51" viewBox="0 0 51 51"><path fill="#fff" fill-rule="evenodd" stroke="#fff" stroke-width=".792" d="M20.39 43.91c-.51-.1-.94-.45-1.18-.94-.31-.64-.33-20.35-.02-21.02.45-.97.3-.95 6.41-.95 6.1-.01 5.96-.03 6.41.95.26.57.29 20.21.04 20.83a2 2 0 0 1-.9 1c-.32.18-9.95.29-10.76.13Zm10.81-.44c.81-.54.75.35.74-11.07-.01-11.17.03-10.53-.61-10.96-.26-.18-.57-.19-5.61-.22-5.95-.03-5.8-.05-6.24.67l-.23.36v20.43l.31.39c.53.65.28.63 6.05.63h5.26zm-6.82-12.81c-2.28-.94-2.85-3.67-1.13-5.4 1.65-1.64 4.44-1.14 5.41.98 1.21 2.64-1.59 5.53-4.28 4.42Zm2.56-.3c1.93-.94 2.36-3.49.85-4.96-1.89-1.83-5.1-.64-5.27 1.95-.15 2.41 2.27 4.06 4.42 3.01Zm-8.39-12.87-1.19-1.19.4-.41c.5-.52 2.1-1.59 2.94-1.97 3.74-1.67 8.34-1.29 11.49.95.89.64 1.51 1.22 1.51 1.42 0 .09-.51.67-1.13 1.29l-1.13 1.13-.45-.34c-3.28-2.48-7.31-2.57-10.44-.25-.33.24-.65.47-.71.51-.06.03-.63-.46-1.29-1.14Zm1.97.39c3.21-2.3 7.45-2.21 10.52.24l.39.31 1.06-1.08 1.06-1.07-.45-.41c-4.1-3.68-10.89-3.68-15 .01l-.45.41 1.05 1.05c.57.58 1.06 1.06 1.07 1.06s.35-.24.75-.52Zm-6.5-4.91c-.61-.62-1.12-1.18-1.12-1.24s.35-.44.78-.83c5.85-5.35 15.27-6.04 21.9-1.6.91.61 2.72 2.22 2.72 2.43 0 .12-2.2 2.37-2.32 2.37-.05 0-.41-.28-.81-.63-3.43-2.98-7.59-4.11-12.28-3.31-2.66.45-5.73 2-7.28 3.68-.35.37-.35.37-1.59-.87Zm3.41-.88c2.49-1.67 4.86-2.33 8.27-2.33 4.09 0 7.16 1.17 9.85 3.75l.41.39 1.02-1.03c.56-.57 1.02-1.09 1.02-1.14 0-.14-1.12-1.19-1.88-1.77-5.6-4.27-14.25-4.48-20.22-.5-1.03.69-2.58 1.97-2.67 2.21-.04.1.28.49.97 1.18l1.03 1.04.66-.61c.36-.33 1.06-.87 1.54-1.19Z"/></svg>