<svg xmlns="http://www.w3.org/2000/svg" width="51" height="51" viewBox="0 0 51 51"><path fill="#fff" fill-rule="evenodd" stroke="#fff" stroke-width=".759" d="M28.06 45.78c-.13-.29-.56-1.23-.96-2.08-.69-1.48-3.05-6.62-5.23-11.37l-1.01-2.22-1.26-.57c-.69-.31-4.06-1.86-7.5-3.44s-6.51-2.99-6.82-3.13c-.32-.14-.58-.32-.58-.4 0-.2 1.76-.94 11.35-4.82 1.87-.76 4.71-1.91 6.3-2.55 1.6-.65 4.7-1.91 6.9-2.8s5.73-2.33 7.85-3.2c4.32-1.76 7.28-2.9 7.55-2.9.12 0 .16.05.12.18-.06.21-3.29 8.21-5.52 13.67-.9 2.2-2.24 5.51-2.99 7.35-.74 1.84-1.78 4.41-2.31 5.7-1.5 3.67-2.77 6.79-4.09 10.05-1.35 3.35-1.4 3.43-1.8 2.53Zm2.58-5.19c1.12-2.77 2.45-6.05 2.96-7.29s1.41-3.46 2.02-4.95c.6-1.49 2.1-5.17 3.33-8.2s2.95-7.29 3.83-9.48l1.6-3.99-2.56 2.59c-3.71 3.73-9.5 9.31-14.29 13.76-1.23 1.15-1.9 1.84-1.86 1.93.06.17.18.18-1.67-.06-.85-.11-2.54-.31-3.75-.45-2.26-.26-6.48-.76-10.2-1.21-1.16-.14-2.7-.34-3.44-.45s-1.35-.18-1.37-.16c-.02.01.27.16.64.32s1.91.86 3.42 1.55c2.24 1.04 6.88 3.17 10.95 5.04.39.18.75.39.81.47.1.12 1.77 3.72 4.82 10.39.44.96 1.15 2.49 1.57 3.4s.81 1.76.87 1.9c.13.34-.03.68 2.32-5.11Zm-2.99-18.06C34.52 16.07 43.6 7.22 43.6 7c0-.12-3.57 1.27-8.3 3.23-2.2.91-5.97 2.44-18.15 7.37-7.53 3.05-11.16 4.54-11.43 4.69-.2.11 1.54.34 14.28 1.86 2.45.29 4.65.53 4.9.53l.45.01z"/></svg>