<svg xmlns="http://www.w3.org/2000/svg" width="51" height="51" viewBox="0 0 51 51"><path fill="#fff" fill-rule="evenodd" stroke="#fff" stroke-width=".72" d="M25.46 50.78c-.03-.24-.07-.9-.1-1.48-.63-12.45-11.24-22.87-23.89-23.47-1.14-.05-1.88-.19-1.35-.24.6-.07 2.77-.1 11.83-.15l10.4-.06-.9-.32C9.69 20.8 9.72 4.51 21.5.48l1.25-.43h2.8c3.27 0 3.61.07 5.8 1.15 9.71 4.78 9.51 18.63-.34 23.39-.99.48-.98.48.39.17 10.84-2.46 18.66-11.7 19.64-23.21l.13-1.6.02 1.28c.05 4.68-2.33 10.94-5.68 14.97-3.65 4.4-9.01 7.75-14.06 8.79-.96.19-3.15.51-3.56.51-.47 0-.12-.18.57-.3 3.9-.62 8.01-4.44 9.28-8.6C40.22 8.42 34.49.38 26 .13 14.77-.2 8.66 12.85 16.09 21.28c1.87 2.12 5.68 4.11 7.89 4.12.28 0 .52.05.52.1 0 .07-3.53.1-10.38.11-5.7.01-10.48.05-10.62.09l-.25.08.26.01c.66.03 2.85.46 3.89.78 8.72 2.64 15.49 9.81 17.55 18.58.5 2.12.92 5.84.67 5.99-.07.04-.13-.09-.16-.36Z"/></svg>