<svg xmlns="http://www.w3.org/2000/svg" width="51" height="51" viewBox="0 0 51 51"><path fill="#fff" fill-rule="evenodd" stroke="#fff" stroke-width=".769" d="M17.57 43.09c-.53-.31-.53-.37-.16-4.92.24-2.83 0-3.48-2.02-5.5-1.79-1.79-2.23-2.39-3.19-4.32-2.83-5.72-2.57-9.81.88-14.25 2.14-2.74 4.24-4.15 7.91-5.32 2.18-.7 5.35-.99 7.29-.68.99.15 3.46.96 4.42 1.45 3.93 1.97 5.8 5.73 5.51 11.1-.15 2.67-.08 2.91 1.37 4.53 1.13 1.26 1.38 1.75 1.28 2.49-.11.82-.72 1.62-1.54 2.02-.32.15-.34.17-.27.56.32 1.83.11 3.07-.62 3.64-.26.21-.26.24-.27 1.44-.03 2.68-1.43 3.77-4.86 3.77-2.31 0-3.01.54-3.96 3.07-.44 1.16.31 1.03-6.04 1.03-3.58-.01-5.61-.04-5.73-.11Zm11.27-.38c.09-.16.27-.59.41-.97.87-2.32 1.66-2.88 4.09-2.9 2.35-.03 3.46-.47 4.21-1.68.29-.48.3-.54.34-1.84l.03-1.34.38-.34c.72-.65.74-.81.47-3.63-.02-.19.1-.32.57-.65.89-.61 1.19-1.04 1.24-1.75.06-.79-.12-1.12-1.21-2.29-.49-.53-1.01-1.19-1.16-1.47l-.26-.5v-2.9c-.01-3.7-.18-4.54-1.37-6.87-2-3.93-8.01-6.2-13.47-5.1-4.51.91-7.64 2.82-10.13 6.18-2.87 3.88-3.2 7.52-1.11 12.44 1.02 2.39 1.66 3.33 3.7 5.41 2.21 2.26 2.38 2.88 1.99 7.04-.22 2.29-.21 2.97.02 3.18.21.19.86.21 7.24.25l3.87.02zM18.8 41.19c0-.23.07-1.14.16-2.03.4-4.01.02-5.18-2.6-7.86-1.85-1.89-2.47-2.83-3.4-5.14-1.57-3.9-1.47-6.46.39-9.61 2.58-4.37 6.88-6.77 12.35-6.92 1.76-.04 2.68.07 2.77.33.02.06-.22.28-.54.49-1.99 1.32-3.44 3.58-4.1 6.4-.14.57-.17 1.27-.18 3.71v3.01l-.37.54c-.2.3-.72.94-1.16 1.42-.48.52-.88 1.06-.98 1.32-.33.89.09 1.87 1.03 2.41 1.02.57.94.47.76 1.06-.2.68-.25 2.33-.08 2.73.06.17.3.46.51.65l.39.34-.04.97c-.04 1.28.13 1.89.75 2.58.8.89 2.35 1.41 3.79 1.28.84-.08.96.01.67.5-.13.21-.44.8-.68 1.31l-.45.92H18.8zm9.15-.55c.18-.38.44-.88.58-1.11l.27-.43h-.9c-2.93 0-4.44-1.31-4.45-3.87 0-1.1 0-1.12-.28-1.33-.66-.52-.91-2.18-.52-3.46.08-.27.15-.5.15-.51 0-.02-.18-.12-.4-.23-1-.51-1.6-1.34-1.6-2.21 0-.73.26-1.21 1.26-2.29 1.51-1.65 1.44-1.34 1.35-5.75-.08-3.67 1.49-7.18 4-8.94.89-.63.85-.64-1.25-.65-5.17 0-9.59 2.23-12.18 6.14-2.3 3.49-2.44 6.26-.54 10.65.82 1.9 1.3 2.59 3.06 4.41 2.92 3.02 3.14 3.8 2.61 9.29-.05.49-.08.92-.06.95s1.96.04 4.31.04l4.28-.02z"/></svg>