<svg xmlns="http://www.w3.org/2000/svg" width="51" height="51" viewBox="0 0 51 51"><path fill="#fff" fill-rule="evenodd" stroke="#fff" stroke-width=".324" d="M43.45 49.03c-.16-.02-1.24-.26-2.4-.53-1.15-.27-2.82-.65-3.7-.85-2.56-.58-3.61-.95-4.32-1.52-.49-.39-.45-.84.38-4.52.21-.96.38-1.75.37-1.77-.02-.01-.84.14-1.82.32-.99.19-2.35.42-3.04.52l-1.24.17-.12.36c-.47 1.36-2.02 2.16-4 2.06-.93-.04-4.17-.44-5.07-.63l-.27-.05-.04.88c-.06 1.18-.37 1.82-1.3 2.68-2.42 2.24-8.36 3.49-10.75 2.27-.97-.5-2.74-3.28-3.28-5.17-.1-.33-.24-.8-.32-1.05-.35-1.09-.44-2.8-.16-2.98.06-.04.16-.27.23-.52.36-1.34 1.34-2.53 2.7-3.26.19-.1.46-.29.6-.41s.43-.26.65-.32c.22-.05.76-.23 1.2-.39.76-.28 2.61-.72 3.04-.72.28 0 .3-.05.51-1.52l.2-1.33s-.27.02-.6.03c-.37.02-.78-.02-1.1-.13l-.5-.16-.62.3c-1.64.79-3.03.3-3.86-1.36-.32-.65-1.44-3.72-1.63-4.46-.51-2.09 1.45-3.77 3.52-3.03.34.12.4.11.75-.1.63-.38 1.32-.48 2.06-.29.78.19 1.39.03 1.37-.38-.02-.81-.57-2.92-.75-2.9-.1.01-.8.1-1.54.19-2.62.33-4 .22-4.56-.37-.18-.19-.38-.29-.57-.29-.34 0-.87-.48-.87-.8 0-.71 1.08-1.59 2.34-1.91.54-.13.53-.08.2-.9-1.39-3.37-2.25-6.88-1.95-7.88.24-.8.21-.79 5.31-2.26 7.01-2.02 7.34-2.06 8.2-1.16.35.36.35.36.8.24.85-.21 1.77.08 2.25.72.74.96.43 2.17-1.06 4.26-.63.88-.79 1.19-.63 1.19.03 0 .97-.18 2.07-.41 3.07-.63 4.16-.45 5.33.84l.47.52.33-.32c.83-.79 2.66-1 5.24-.6.63.1 1.23.19 1.33.2.14.02.23-.15.43-.73.39-1.15.92-1.71 1.74-1.86.19-.04.45-.14.56-.23l.21-.16-.2-.42c-.26-.53-.16-1.06.26-1.37.34-.25 1.53-.3 1.8-.07.15.12.23.08.65-.28.26-.22.62-.53.79-.68.41-.35.47-.41.79-.8.29-.37.82-.45 1.21-.18.15.11.24.12.29.04.12-.19.87-.49 1.26-.49.28 0 .47-.08.74-.32.38-.34.64-.25.64.22 0 .09.13.26.3.38.16.12.32.35.36.5.12.57.48 1.21.69 1.22.26 0 .84.36.91.55.05.12.12.08.34-.15.63-.68 1.9-.13 1.9.83 0 .13-.23.62-.51 1.08-1.1 1.78-1.2 1.99-1.14 2.19.04.11-.01.45-.1.76-.16.54-.15.57.03.78.3.32.42.61.42.99 0 .28.05.36.23.41 1.16.29 1.82 2.11 1.32 3.61-.69 2.06-2.02 3.24-4.07 3.61l-.87.16-.21.53c-.12.3-.41.83-.64 1.18l-.43.65.71.07c.39.04.89.13 1.11.19.26.08.57.09.88.04 1.78-.31 3.17.9 3.17 2.73 0 .8-.54 4.47-.75 5.09-.35 1.04-1.25 1.7-2.33 1.7-.74 0-.73-.05-.17.8.58.9.7 1.15.84 1.75.1.4.26.63.81 1.2.76.79.94 1.2.79 1.84-.08.34-.05.47.21.96.32.62.37 1.06.16 1.45-.13.22-.12.27.15.57.63.72.61 1.35-.05 2.51-.25.43-1.02 2.01-1.71 3.52-1.52 3.33-1.53 3.34-2.9 3.13Zm1.1-.29c.19-.07.61-.9 1.7-3.29.42-.93 1.06-2.27 1.42-2.96.6-1.15.65-1.29.58-1.65-.08-.39-.08-.39-.16-.11-.11.41-.69 1.27-.85 1.27-.2 0-.18-.04.21-.63.4-.59.45-.87.15-.87-.33 0-1.52 2.3-3.1 5.98-.3.7-.57 1.21-.64 1.19-.2-.08.49-1.73 2.06-4.97 1.04-2.14 1.11-2.32.94-2.55-.29-.4-.65.12-2.03 2.9-.9 1.8-1.83 3.93-1.83 4.18 0 .09-.07.17-.15.17-.35 0 .13-1.23 1.87-4.8 1.17-2.41 1.27-2.7.9-2.7-.4 0-2.28 3.43-3.32 6.08-.42 1.07-.52 1.23-.64 1.03-.1-.15.63-1.84 1.91-4.46 1.21-2.46 1.36-2.85 1.09-2.85-.51 0-3.36 5.95-3.36 7 0 .32-.26.43-.36.16-.08-.21.77-2.36 1.86-4.71 1.1-2.37 1.13-2.45 1.01-2.64-.22-.35-.57.16-1.54 2.27-1.47 3.19-1.9 4.3-1.84 4.69.06.34-.08.44-.3.22-.21-.21.29-1.59 1.91-5.14.94-2.07 1.06-2.56.59-2.38-.48.18-3.27 6.97-2.96 7.2.15.11.15.13-.01.19-.66.25-.44-.74.76-3.5.79-1.81 1.52-3.52 1.61-3.78.08-.22-.07-.32-.37-.24-.25.06-.32.19-1.27 2.43-1.51 3.55-1.89 4.63-1.63 4.63.17 0 .15.21-.02.27-.63.21-.42-.7.91-3.92 1.45-3.49 1.54-3.81 1.03-3.73-.25.03-.27.08-1.39 2.98-1.42 3.68-1.55 4.09-1.33 4.25.18.14.18.14-.09.15-.53 0-.47-.28.73-3.4 1.43-3.71 1.62-4.58.92-4.21-.17.09-1.97 5.13-2.45 6.86-.08.29-.2.5-.28.5-.2 0-.19-.01.97-3.56 1.16-3.54 1.29-4.09.97-4.09-.11 0-.26.06-.32.14-.28.33-2.14 6.38-2.15 6.98-.01.36-.25.54-.4.3-.05-.08.48-1.95 1.4-4.97.67-2.21.75-2.65.47-2.65-.32 0-.37.12-1.11 2.65-1.05 3.58-1.22 4.21-1.22 4.54 0 .2-.05.31-.14.31-.33 0-.32-.03.9-4.33.89-3.13.94-3.47.54-3.47-.33 0-.39.2-2.01 6.6-.12.47-.23.91-.25.99-.03.1-.07.11-.18.02-.12-.1-.11-.25.1-.99 1.19-4.26 1.68-6.68 1.38-6.79-.21-.07-.41.25-.48.79-.08.62-1.54 6.59-1.67 6.79-.29.47-.14-.4.54-3.15.77-3.11 1.02-4.56.78-4.56-.2 0-.37.54-.9 2.87-.45 1.94-1.11 5.07-1.11 5.24 0 .6 1.54 1.17 5.97 2.2 4.95 1.14 5.24 1.2 5.68 1.03Zm-33.6-.35c4.36-.86 6.9-2.65 6.96-4.91.03-1.1-.2-4.24-.34-4.68-.14-.43-.16-.45-.48-.41-.33.03-.33.02-.16-.16.49-.55-.67-2.63-1.47-2.63-.14 0-.17-.05-.12-.24.13-.51-.77-.88-1.07-.43-.2.3-.34.14-.2-.24.1-.26.09-.31-.1-.43-.57-.36-2.73-.5-2.98-.2-.12.14-.14.14-.25-.01-.11-.14-.19-.15-.73-.04-.58.11-.77.28-.5.45.08.04.08.09 0 .17-.09.09-.17.04-.34-.15l-.22-.28-.94.32c-.78.26-.91.33-.77.43.29.22.17.27-.4.2-.47-.06-.59-.04-.77.12-.12.11-.43.31-.68.46-.81.46-1.49 1.07-1.89 1.68-.46.71-.79 1.61-.61 1.67.19.06.12.22-.15.33l-.27.1.07 1.06c.06.94.1 1.12.33 1.41.18.24.22.36.14.41-.31.2.78 2.71 1.48 3.41.9.9 2.63 1.1 5.1.62.62-.13 1.15-.21 1.18-.19.07.08-2.17.47-3.02.53-.93.07-2.1-.08-2.72-.36l-.44-.19.23.41c1.06 1.89 2.86 2.41 6.13 1.77Zm2.52-1.7c-.78-.41-1.02-1.13-.59-1.79.09-.14.16-.42.17-.64.01-.43.29-.73.75-.83.18-.03.32-.16.41-.36.17-.37.66-.56 1.03-.39.14.06.28.07.37.01.93-.59 2.08 1.31 1.52 2.49-.61 1.29-2.55 2.09-3.66 1.51Zm1.88-.28c1.43-.67 1.96-1.71 1.41-2.79-.32-.64-.48-.76-.88-.68s-.43.08-.89 0c-.39-.06-.69.19-.69.58 0 .13-.08.18-.28.18-.51 0-.75.26-.67.76.05.37.03.44-.14.54-.47.25-.29 1.03.32 1.4.42.26 1.28.26 1.82.01Zm-4.69-2c-.05-.07.37-1.14.51-1.3.2-.24.19.25-.01.71-.26.58-.4.75-.5.59Zm14.69-1.62c1.09-.41 1.95-1.2 1.95-1.79l-.01-.25-.22.3c-1.17 1.62-2.4 1.86-6.39 1.29-1.37-.19-2.53-.32-2.57-.29-.17.18.44.33 2.3.58 1.12.16 2.31.32 2.64.37.78.11 1.65.03 2.3-.21Zm-.43-.59c.84-.26 1.51-.71 1.85-1.25.28-.44.28-.44.89-.45 1.11 0 6.12-.9 6.25-1.12.1-.15.21-.79.16-.84-.03-.03-.49.02-1.03.11-4.91.79-5.85.81-6.26.16-.19-.3-.25-.26-.31.21-.08.62-.71 1.46-1.32 1.78-.67.34-1.39.32-4.29-.14-3.03-.48-2.76-.51-2.76.34 0 .39.03.7.08.7.04.01 1.08.16 2.32.34 2.69.4 3.54.43 4.42.16Zm-.21-1.52c.45-.15.77-.41 1.08-.86l.25-.37-.42.37c-.79.71-1.01.72-5.19.08-2.28-.35-2.33-.36-2.33-.12 0 .35 5.88 1.15 6.61.9Zm23.39-.33c0-.03-.17-.23-.37-.46-.6-.66-1.28-.92-3.24-1.23-1.02-.17-2.57-.53-5.54-1.31-2.05-.53-3.45-.68-3.79-.4-.29.22.04.45.53.37.24-.04.36-.01.42.11.07.13.14.13.39.04.25-.1.32-.08.53.11.18.17.31.21.53.16.22-.04.34 0 .48.15.15.16.22.18.39.1.21-.12.67.02.67.2 0 .06.12.06.31.01.34-.1.63 0 .72.25.05.12.11.13.32.03.27-.12.75.02.75.22 0 .06.17.07.44.04.27-.04.46-.02.5.05.04.06.25.11.46.11.29 0 .42.05.5.2.08.16.15.18.35.1.29-.11.51-.05.59.17.05.11.15.13.44.08s.42-.02.51.09c.1.12.24.14.5.1s.41-.02.49.09c.09.1.25.13.56.1.37-.05.46-.02.58.16.09.14.23.21.45.21.17 0 .35.05.38.1.07.11.15.13.15.05Zm-23.14-.41c.9-.43 1.31-1.23 1.45-2.82.05-.65.28-2.38.49-3.86.22-1.47.4-2.74.4-2.81 0-.08-.3-.14-.97-.18-.54-.04-1.12-.11-1.29-.16-.21-.06-.48-.04-.85.06-.56.15-1.42.11-1.83-.07-.19-.1-.19-.09-.02.02 1.71 1.16 1.67 3.51-.07 4.36l-.37.18.4.64c.73 1.19.72 1.88-.03 2.08-.69.19-.92-.02-1.77-1.61-.54-1.01-.57-1.03-1.3-1.09-.33-.03-.34-.02-.42.42-.25 1.34-.43 1.62-1.05 1.62-.49 0-.93-.46-.93-.96 0-.18.18-1.5.4-2.92.22-1.43.4-2.6.4-2.61 0 0-.24.05-.53.13-.67.18-1.58.18-2.27-.01-.3-.08-.58-.15-.62-.15-.05 0-.08.27-.08.61 0 .33-.05 1.14-.11 1.78l-.1 1.18.31.31c.17.18.39.32.48.32.28 0 .8.37.96.67.08.16.26.35.4.42.38.21 1.26 1.6 1.26 2 0 .09.06.25.14.36.07.11.23.47.35.81l.22.61 2.72.4c3.06.46 3.74.5 4.23.27Zm22.78-.8c.13-.33.05-.73-.25-1.29-.28-.54-.3-.61-.19-.99.16-.57.02-.87-.79-1.71-.58-.61-.69-.77-.8-1.27-.08-.37-.3-.85-.63-1.35-.28-.43-.58-.94-.66-1.13-.15-.35-.15-.35-.22-.1-.05.17-.01.31.11.45.57.63.42 1.23-.29 1.16-.2-.02-.03-.21.19-.21.1 0 .19-.04.19-.09s-.09-.07-.2-.04c-.14.04-.2 0-.2-.11 0-.09.08-.16.2-.16.2 0 .2-.01.05-.3s-.17-.3-.43-.17c-.15.08-.4.17-.55.21-.16.04-.39.19-.52.34-.25.28-.48.25-.24-.04.12-.15.12-.16-.06-.11-.11.03-.49.13-.84.22-.8.2-1.35.48-1.55.77-.09.12-.16.19-.16.15 0-.17-.62.26-.83.58-.18.28-.35.38-.88.55-.74.22-1.12.48-1.34.91l-.16.29h.83c.46 0 .9.05.98.1.1.07-.18.1-.88.1-.62 0-1.02.04-1.02.1s-.14.19-.31.29l-.31.19.58.07c.33.04 1.99.42 3.69.86 1.71.43 3.68.87 4.38.99 1.3.21 2.34.5 2.71.76.26.18.32.18.4-.02Zm-16.51-.49c3.05-.45 2.94-.42 3-.66.07-.24.3-.26-3.08.26-3.16.49-3.56.52-3.97.31-.39-.21-.35 0 .05.24.46.29 1.17.26 4-.15Zm-1.01-.54 2.98-.47c.87-.13 1.18-.22 1.28-.36.21-.29.65-.68.86-.74.46-.15.93-.58 1.21-1.12.35-.66.75-.96 1.56-1.19.73-.2.83-.39.63-1.2-.07-.32-.17-.99-.2-1.49l-.07-.9-1.21-.12c-.66-.07-1.33-.15-1.48-.18-.27-.06-.27-.06-.18.27.23.78.06 2.17-.35 3-.49.97-1.3 1.45-2.98 1.8-2.87.58-2.81.63-3.27-2.68-.38-2.81-.33-2.65-.9-2.55l-.45.08-.22 1.39c-.66 4.16-.83 5.98-.6 6.27.46.57.85.59 3.39.19Zm12.29-.69c-.36-.09-.67-.23-.69-.31-.03-.1 0-.12.13-.07.1.03.58.15 1.08.26s.92.22.95.25c.12.11-.87.03-1.47-.13ZM4.7 37.4c0-.06.08-.23.17-.38.16-.25.15-.25-.18.06-.38.35-.49.39-.49.18 0-.18.68-.78.83-.73.27.09.3.34.08.66-.22.31-.41.4-.41.21Zm17.78-.48c.19-.24.1-.56-.42-1.49-.56-.99-.56-.96-.01-1.17 1.64-.63 1.68-3.02.07-3.89-.47-.26-.56-.27-.88-.17-.54.18-1.44.08-2.03-.22-.67-.35-1.25-.17-1.34.42l-.42 2.65c-.41 2.67-.42 2.99-.02 3.29.51.37.78.1 1-.99s.17-1.04.96-.95c.77.1.77.1 1.41 1.35.73 1.42 1.22 1.76 1.68 1.17Zm23.15-.03c-.52-.15-.52-.32.01-.24.42.07.48.05.77-.25.22-.21.35-.28.42-.21s-.01.21-.27.46c-.4.37-.43.38-.93.24Zm-13.72-1.7c2.75-.49 3.92-2.02 3.43-4.48l-.07-.31h-1.36l.1.32c.35 1.25-.15 2.64-1.09 3.04-.49.2-1.95.45-2.05.35-.07-.07-.66-3.54-.67-3.92 0-.07-.71-.29-.91-.29-.35.01-.41.15-.3.76.06.32.22 1.44.35 2.47.33 2.53.26 2.48 2.57 2.06Zm12.54-.59c-.06-.1.62-.97.78-.99.17-.02.05.32-.19.54-.21.19-.23.25-.1.25.21 0 .21.16 0 .24-.23.09-.42.07-.49-.04Zm-11.56-1.15c.78-.4 1.11-1.44.85-2.72l-.06-.29-1.56-.11c-.87-.06-1.58-.09-1.6-.08-.03.02.46 3.35.52 3.51.05.14 1.44-.09 1.85-.31Zm-19.25-.07c.12-.86.19-3.48.09-3.48-.11 0-.57 3.65-.48 3.8.14.23.33.08.39-.32Zm-.74.14c0-.04.09-.77.2-1.62.31-2.44.29-2.58-.39-1.97-.21.17-.49.41-.64.52-.24.18-.67 2.14-.67 3.06 0 .05.34.09.75.09s.75-.03.75-.08Zm6.78-.16c-.96-.14-.93-.08-.78-1.13.19-1.35.2-1.36.83-1.28 2.01.25 2.73.95 2.07 2.03-.33.54-.66.6-2.12.38ZM39.1 32c-.14-1.49-.36-1.83-.27-.42.05.88.25 1.87.35 1.77.03-.03-.01-.63-.08-1.35Zm-17.64.95c.66-.66.18-1.36-1.11-1.6-1.02-.2-1-.21-1.15.75-.15.94-.18.87.51.99 1.04.17 1.47.14 1.75-.14Zm18.48-.04c.1-.11.31-.25.47-.31.34-.14.33-.1.14-.97-.25-1.09-.21-1.03-.74-1.03-.62 0-.59-.09-.42 1.3.15 1.24.22 1.38.55 1.01Zm1.26-.66c0-.04-.16-.85-.26-1.32-.02-.13-.11-.23-.18-.23-.14 0-.11.23.15 1.23.08.29.29.53.29.32Zm2.53-.76c.33-.4.24-.46-.95-.52-.62-.04-1.23-.09-1.34-.13-.22-.06-.22.15.01 1.12l.05.21 1.02-.24c.72-.16 1.08-.3 1.21-.44Zm2.53-.75c.47-.22.89-.76 1.08-1.37.17-.54.76-4.45.76-5.01 0-1.39-1.22-2.4-2.69-2.22-.76.1-.69.1-1.36-.09-.42-.11-1.11-.17-2.25-.2-.91-.02-1.99-.09-2.4-.16-.64-.1-2.7-.16-3.5-.09-.14.01-.45-.04-.7-.11-.76-.22-4.95-.19-5.41.04-.32.16-.38.16-.72.02-.87-.36-3.82-.39-4.73-.05-.23.09-.4.08-.84-.07-1.07-.35-3.46-.2-4.61.29-.46.19-.46.19-1.09-.02-1.23-.41-2.56-.36-3.82.15l-.58.24-.47-.21c-.64-.28-1.55-.27-2.28.02-.52.21-.57.22-.95.06-.71-.28-1.56-.17-2.24.29-.34.23-.38.23-.7.1-1.37-.58-3.01.17-3.24 1.46-.15.84 1.07 4.78 1.83 5.88.83 1.2 2.18 1.44 3.49.61l.46-.29.42.19c.96.44 1.95.21 2.89-.67l.48-.45.58.35c1.36.83 2.75.91 4.21.22.75-.35.86-.37 1.05-.25.88.56 1.79.67 2.52.3l.39-.2.58.2c.65.22 1.23.24 1.83.06.32-.1.52-.09 1 .02.74.18 2.73.11 3.58-.12.53-.15.63-.15 1.04-.01.7.24 2.21.36 4.28.34 1.13 0 2.14.04 2.5.11.33.06 1.32.13 2.2.15.91.01 1.98.09 2.48.19.97.17 2.1.23 2.44.12.14-.04.35 0 .6.14.47.25 1.4.27 1.89.04Zm-1.21-1.11c-.83-.2-1.11-1.58-.46-2.17.19-.17.19-.2.04-.42-.18-.29-.11-2.37.1-3.03.24-.71 1.25-.91 1.76-.33.34.38.15 3.09-.24 3.52-.15.17-.15.21-.01.49.36.68.11 1.62-.49 1.87-.36.15-.37.15-.7.07ZM7 29.43c-.56-.2-.8-.66-1.59-2.97-.85-2.5-.78-3.06.4-3.06.75 0 .95.25 1.6 1.95.11.29.12.25.34-.71.51-2.21 1.63-2.29 2.39-.16.17.45.31.8.33.78s.13-.4.23-.85c.39-1.6 1.11-2.11 1.9-1.32.47.46.47.68.06 2.71-.51 2.48-.59 2.72-1.01 3.09-.84.74-1.68.27-2.3-1.26l-.23-.54-.17.73C8.62 29.2 7.93 29.77 7 29.43Zm34.67-.28c-1.73-.21-1.83-.34-1.73-2.19.19-3.72.27-3.86 1.95-3.86 1.98.01 2.51.24 2.51 1.1 0 .41-.39 1-.67 1-.11 0-.1.06.06.26.35.45.18 1.64-.23 1.64-.09 0-.03.11.15.29.38.39.42 1.15.06 1.56-.28.34-.7.38-2.1.2Zm4.14-.14c.56-.56.2-1.51-.57-1.51-.53 0-.88 1.16-.46 1.52.4.35.67.35 1.03-.01ZM8.01 29c.28-.16.44-.54.7-1.67.26-1.19.37-1.27.69-.45.62 1.54.91 1.92 1.48 1.92.71 0 .86-.33 1.42-3.01.44-2.13.37-2.59-.4-2.59-.45 0-.65.28-.84 1.16-.45 2.09-.5 2.11-1.1.58-.52-1.31-.67-1.54-1.06-1.54-.43 0-.58.28-.88 1.61-.37 1.66-.41 1.66-1.12-.01-.44-1.05-.58-1.2-1.09-1.2-.86 0-.87.22-.1 2.46.95 2.78 1.34 3.25 2.3 2.74Zm29.11-.2c-1.34-.14-1.41-.28-1.35-2.9.05-2.24.07-2.41.39-2.8l.26-.3h1.26c1.95 0 2.32.18 2.32 1.12 0 .5-.24.88-.55.88-.13 0-.11.06.06.29.38.52.19 1.61-.27 1.61-.12 0-.08.1.15.35.39.45.44 1.16.1 1.59-.23.29-.77.32-2.37.16Zm6.25.02c.71-.45.16-1.42-.81-1.42-.53 0-.66-.09-.66-.42v-.31l.65.07c.87.09 1.05-.01 1.05-.59 0-.53-.13-.62-1-.72l-.6-.06v-.69l.88.07c1.02.08 1.15.01 1.1-.62-.04-.51-.37-.62-1.94-.62-1.59-.01-1.44-.25-1.69 2.72-.21 2.47-.28 2.36 1.5 2.56.95.11 1.38.12 1.52.03Zm-28.45-.18c-2.61-.96-2.61-4.85.01-5.83 3.13-1.17 5.63 2.53 3.4 5-.78.86-2.31 1.23-3.41.83Zm5.19-.06c-.61-.33-.65-.5-.72-2.86-.08-3.09-.08-3.1 1.67-3.22 1.93-.12 2.63.11 3.08 1.02.39.78.3 1.73-.2 2.29-.13.14-.11.22.16.74.42.79.41 1.26-.04 1.71-.62.62-1.3.33-2.08-.89l-.33-.52-.06.63c-.09.95-.79 1.47-1.48 1.1Zm12.04.02c-1.82-.07-2.15-.26-2.15-1.21 0-.43.05-.52.83-1.43.45-.54.9-1.09 1-1.22l.19-.24h-.51c-1.34 0-1.94-1.43-.8-1.91.46-.18 3.85-.08 4.25.14.91.48.63 1.29-1.14 3.2-.52.57-.54.55.38.66 1.11.14 1.55.61 1.29 1.38-.24.75-.31.76-3.34.63Zm-7.01-.28c-.48-.31-.54-.62-.54-3.04v-2.2l.28-.28c.54-.53 2.88-.54 3.92-.02 1.97.99 1.87 4.35-.15 5.37-.81.4-2.98.5-3.51.17Zm14.17-.13c.18-.71-.14-1.05-1.09-1.15-.63-.07-.75-.16-.65-.53.05-.19.13-.21.84-.21.67 0 .8-.03.89-.19.32-.6-.03-1-.95-1.09-.67-.07-.7-.08-.73-.34l-.03-.28h.93c1.02 0 1.18-.07 1.18-.5 0-.59-.15-.65-1.73-.68l-1.45-.04-.17.26c-.24.36-.35 4.41-.13 4.7.32.42 2.98.46 3.09.05Zm-22.26.04c2.1-.71 2.38-3.82.44-4.88-1.94-1.05-4.14.2-4.14 2.35 0 2.01 1.75 3.2 3.7 2.53Zm3.8.01c.29-.12.45-.6.45-1.39 0-.97.14-.98.73-.07.93 1.44 1.41 1.74 1.86 1.16.28-.36.27-.52-.14-1.3-.35-.68-.43-.94-.26-.94.38 0 .67-1.4.4-1.93-.39-.75-.72-.88-2.24-.88-2.08.01-1.99-.13-1.89 2.75.08 2.57.23 2.93 1.09 2.6Zm14.19-.16c.44-.62.13-.97-.95-1.1-1.5-.17-1.5-.18-.93-.83 2.69-3.04 2.67-3.16-.39-3.23-2.05-.05-2.27.01-2.27.55 0 .48.31.63 1.3.63 1.1 0 1.1-.06-.03 1.27-1.46 1.71-1.5 1.78-1.43 2.17.1.55.25.6 1.75.67 2.8.11 2.78.11 2.95-.13Zm-6.79-.19c1.92-.72 2.22-3.93.43-4.77-.87-.41-3.18-.42-3.59-.01-.36.36-.22 4.57.16 4.85.32.23 2.31.19 3-.07Zm17.76-1.01c.17-.33.41-2.66.29-2.88-.25-.47-1.15-.31-1.25.22-.07.41-.25 2.07-.25 2.31 0 .51.97.8 1.21.35Zm-30.68-.08c-1-.66-.64-2.41.53-2.57.83-.11 1.44.5 1.44 1.45 0 1.04-1.12 1.68-1.97 1.12Zm1.43-.53c.54-.64.1-1.67-.72-1.67-1.07 0-1.32 1.71-.29 1.98.44.12.72.03 1.01-.31Zm9.71.26c-.04-.03-.07-.62-.07-1.3V24l.43.01c1.24.01 1.94.99 1.42 1.99-.25.48-1.47.84-1.78.53Zm1.25-.44c.53-.28.42-1.3-.17-1.54-.77-.33-.85-.26-.85.73 0 1.08.21 1.24 1.02.81Zm-6.4-1.66c.03-.42.51-.58.98-.33.49.26.12.7-.6.7h-.41zm-5.93-3.32c.4-.05.74-.11.76-.13.12-.12-2.29-3.58-2.49-3.58-.4.01-1.41.27-1.4.36.55 3.66.75 4.08 1.79 3.69.34-.13.94-.28 1.34-.34Zm3.11.28c0-.17.39-3.59.46-3.96.06-.38.28-.43.45-.11.34.63 2.04 3.25 2.21 3.41.17.14 1.25.27 1.29.15.02-.08.76-5.73.75-5.75-.02-.02-1.17.25-1.22.29-.02.02-.1.62-.19 1.33-.25 2.12-.25 2.15-.41 2.15-.08 0-.14-.04-.14-.08 0-.18-1.8-2.82-1.92-2.82-.21 0-1.73.33-1.8.39-.04.03-.16.8-.28 1.7-.29 2.24-.18 2.22-1.46.25-.74-1.16-.9-1.35-1.08-1.3-.12.03-.4.08-.64.12-.23.04-.41.09-.4.13.02.03.48.74 1.02 1.56.54.83 1.09 1.67 1.23 1.88.17.27.3.37.51.38.15 0 .52.08.82.19.67.22.8.23.8.09Zm22.04-.21c1.08-6.46 1.06-7.76-.13-9.1-.29-.32-.38-.49-.29-.54.14-.09.84.67 1.1 1.18.87 1.74.94 2.37.54 5.38-.14 1.07-.26 2.27-.28 2.65l-.03.7.31.03c.42.04.8-.4 1.44-1.67l.49-.98.75-.12c1.86-.27 3-1.11 3.77-2.77.82-1.79.47-3.39-.87-3.9-.41-.16-.44-.19-.39-.45.1-.46-.26-1.14-.74-1.39-.23-.11-.41-.23-.41-.27 0-.12.99-1.91 1.68-3.04l.7-1.14-.26-.06c-.39-.08-.68-.26-.9-.54l-.2-.26-.25.33c-.39.51-2.27 3.69-2.27 3.84 0 .52-.65.42-2.32-.35-.93-.43-1.9-.68-3.53-.91-.77-.11-1.74-.3-2.14-.41-1.6-.45-2.28-.04-2.87 1.73l-.26.8-.32-.06c-3.46-.72-5.58-.57-6.56.45l-.47.49-.12-.28c-.18-.42-.88-1.07-1.5-1.38-1.05-.52-1.86-.47-5.6.37-6.46 1.43-7.45 1.85-8.25 3.44-.55 1.11-.54 1.72.07 4.5.2.88.46 2.11.58 2.73l.22 1.12h.68c.54 0 .69-.03.69-.15 0-.35-.73-3.8-1.02-4.8-.55-1.92-.34-2.97.75-3.71.51-.35 2.83-.95 8.62-2.24 3.24-.72 4.22-.04 4.48 3.1l.12 1.44.13-.74c.63-3.56 1.16-3.85 5.72-3.15 7.68 1.17 7.87 1.23 8.42 2.3.28.54-.18 5.15-.77 7.71-.04.2.17.27 1.32.42.07.01.15-.13.17-.3Zm.56.13c.05-.11.1-.42.1-.7s.09-1.19.19-2.03c.44-3.47.36-3.64-.13-.28-.19 1.29-.38 2.54-.42 2.78-.07.45.07.58.26.23Zm-21.2-.26c.36-.08.82-.15 1.04-.15h.38l-.23-.39c-.8-1.3-1.83-2.9-1.86-2.88-.02.03-.43 3.45-.43 3.63 0 .04.1.03.23 0 .12-.04.51-.13.87-.21Zm4.71-.03c.14-.15.7-5.15.64-5.67l-.07-.52-.6.12c-.73.16-.6-.24-.97 2.85-.18 1.46-.35 2.77-.38 2.91-.07.39 1.07.64 1.38.31Zm4.73.06c-.04-.07-.18-.27-.31-.44-.8-1.07-.82-3.22-.05-4.31l.21-.29-.92-.17c-1.16-.22-1.62-.51-1.99-1.27-.15-.3-.28-.52-.28-.49 0 .04-.09.51-.21 1.05-.16.79-.79 5.28-.79 5.69 0 .06.54.09 1.47.07.98-.01 1.68.03 2.08.12.8.18.88.18.79.04Zm9.8-2.46c.21-1.41.4-2.73.42-2.92l.04-.35-.14.37c-.44 1.13-.99 1.43-2.44 1.35-1.04-.06-1.04-.06-.98.16.4 1.36.12 2.93-.63 3.61-.34.31-.11.36 1.7.36h1.65zM31.3 20.9c.47-.04.71-.08.54-.08-1.74-.09-2.41-2.73-1.06-4.14.2-.21.33-.38.28-.38-.04 0-.39-.05-.77-.11-.82-.13-.88-.1-1.27.65-.77 1.5-.03 4.43 1.06 4.2.2-.04.75-.1 1.22-.14Zm4.07-.43c.56-.84.73-2.04.44-3.05-.14-.49-.26-.56-1.18-.67l-.63-.07.32.61c.76 1.48-.09 3.42-1.54 3.53-.42.03.96.15 1.62.14l.65-.01zm-2.21-.06c1.73-.79 1.53-3.66-.29-3.92-1.13-.16-1.34-.13-1.82.32-1.78 1.64-.06 4.59 2.11 3.6Zm-15.6-3.89c-.05-.05-1.62.29-1.76.38-.08.05.15.48.66 1.26l.78 1.19.18-1.39c.09-.77.16-1.42.14-1.44ZM8.35 18.2c.94-.12 1.75-.23 1.81-.25.08-.02.02-.4-.18-1.22-.56-2.28-.28-3.85.91-4.96.87-.82 2.02-1.25 5.32-2 1.38-.32 1.43-.34 1.52-.62.06-.17.43-.78.84-1.37 1.51-2.19 1.67-3.4.55-4.12-.74-.47-2.07-.38-2.15.15-.04.23-.18.4-.28.33-.06-.03-.08-.22-.04-.46.11-.61-.46-1.08-1.31-1.08-.63 0-5.86 1.4-10.53 2.82-1.03.31-1.41.68-1.41 1.35 0 1.28.5 3.25 1.58 6.22l.68 1.85.68.11c.71.12 1.11.4 1.04.73-.02.08-.47.3-1.08.51-1.9.68-2.54 1.22-2.02 1.73.5.5 1.58.57 4.07.28Zm13.6-1.29c.09-.74.13-1.36.11-1.38-.04-.05-1.75.32-1.81.39-.02.02.31.56.72 1.21.42.64.78 1.16.79 1.14.02-.02.1-.63.19-1.36Zm22.51.71c-.03-.06.23-.74.58-1.51.36-.77.77-1.68.91-2.03.4-.96.5-1.08.89-1.08 1.38 0 1.32 2.08-.1 3.6-.68.73-2.07 1.35-2.28 1.02ZM3.9 17.41c0-.41 1.06-1.09 2.35-1.51.87-.28.88-.29.75-.45-.31-.37-1.86-.23-2.87.25-1.01.5-1.46 1.18-1.06 1.62.17.19.83.26.83.09Zm9.13-.21c.48-.1.57-.15.51-.28-.53-1.28.69-1.93 1.54-.82.43.57.36.56 1.54.29 1.03-.22 1.03-.22 1.12-.91.16-1.22 1.41-1.36 2.01-.24.23.42.23.42 1.42.15l.91-.21.11-.61c.24-1.38 1.81-1.53 1.81-.17v.37l.58-.11c.68-.14.68-.13.53-1.57-.2-2.08-1.1-2.93-2.79-2.67-.58.09-5.34 1.17-7.67 1.73-3.28.8-3.68 1.63-2.49 5.14.02.07.1.11.17.08.07-.02.39-.1.7-.17Zm32.54-.05c1.66-.83 2.62-3.29 1.5-3.83-.38-.19-.47-.09-.92 1.01-.21.5-.6 1.37-.87 1.92-.64 1.32-.63 1.35.29.9Zm-30.89-.28.53-.13-.3-.42c-.52-.7-1.21-.67-1.21.06 0 .62.13.69.98.49Zm23.84-.28c.3-.22.57-.67.78-1.32.06-.21.18-.41.26-.44.19-.07.19-1.05-.01-1.42-.38-.75-.73-.88-3.35-1.31-6.32-1.04-8.08-1.23-8.73-.96-.76.31-1.4 1.53-1.19 2.25.06.2.14.52.17.71.13.88.59 1.22 1.99 1.51l.91.18.38-.3c1.79-1.44 4.34-1.09 5.79.8.45.59 2.33.77 3 .3Zm-3.41-.38c-.97-1.35-3.36-1.73-4.82-.77-.57.38-.51.42.74.55 1.28.14 2.53.31 3.12.41.22.04.57.08.78.09l.38.01zm-16.3-.31c1-.23.95-.18.59-.68-.44-.62-1.08-.66-1.29-.09-.11.3-.23.97-.17.97.03 0 .42-.09.87-.2Zm-6.67-.51c-.27-.3-.27-1.17.02-1.56.53-.71 1.24-.49 1.24.4 0 1.05-.74 1.73-1.26 1.16Zm.79-.36c.33-.66.27-1.33-.12-1.33-.27 0-.52.34-.58.78-.1.73.41 1.13.7.55Zm10.21-.08c.7-.11.86-.83.26-1.15-.25-.13-.75.02-.83.25-.17.42-.19 1.08-.05 1.02.09-.03.37-.09.62-.12Zm15.02-.4c-.08-.21-.08-.79 0-.99.04-.1.18-.16.41-.16h.35l-.07.38c-.13.74-.53 1.18-.69.77Zm-11.4-1.11c-.23-.23-.2-.85.07-1.25.45-.66 1.14-.75 1.46-.17.42.74-.95 2.01-1.53 1.42Zm.98-.45c.32-.38.42-.74.26-.94-.36-.43-1.1.15-1.1.86 0 .52.43.57.84.08Zm10.06.2c-1.21-.29-8.46-1.59-8.92-1.59-.18 0-.28-.05-.28-.15 0-.22.16-.2 3.3.34 5.05.88 6.6 1.21 6.6 1.41 0 .12-.21.11-.7-.01Zm-14.4-.95c-.24-.62-.18-.99.15-.99.3 0 .78.86.58 1.06-.25.24-.63.21-.73-.07Zm-2.2-1.23c0-.14.39-.21 1.18-.21.74 0 .96.13.41.24-.47.09-1.59.07-1.59-.03Zm22.99-2.38c.12-.25.6-1.09 1.07-1.85 1.05-1.73 1.04-2.07-.07-2.24-.33-.06-.38-.1-.44-.4-.05-.28-.14-.38-.55-.59l-.5-.25v.25c0 .35-.37.34-.5-.01-.08-.21-.13-.24-.25-.14-.08.06-.19.08-.26.04s-.1-.02-.07.07c.02.07-.05.21-.16.31-.21.17-.21.17.07.18.31 0 .36.15.08.23-.48.12-.74-.35-.41-.73.26-.3.25-.3-.09-.3-.21 0-.32.06-.36.2-.04.11-.11.18-.16.14-.06-.03-.08-.12-.05-.2.04-.1-.02-.14-.19-.14-.13 0-.27-.05-.3-.11-.2-.32-.9-.31-1 .02-.03.1-.19.31-.36.46-.43.41-.34.87.21 1.06.12.04.12.06-.03.12-.21.09-.67-.19-.67-.4 0-.18-.14-.19-.41-.04-.2.1-.2.1.01.27.26.21.18.47-.21.67-.35.19-.44.19-.63 0-.21-.21-.56.13-.56.54 0 .26.04.3.33.33.55.05.35.23-.33.29-2.36.21-1.72.75 1.35 1.14 1.48.19 2.47.45 3.28.87.69.35 1.54.67 1.78.68.08 0 .25-.2.38-.47ZM17.51 7.38c-.18-.46-.45-2.69-.34-2.86.42-.69 1.72-.8 1.97-.17.19.52-.25 1.81-.91 2.69-.45.59-.6.66-.72.34ZM18.7 5.6c.38-.96.23-1.4-.48-1.4-.79 0-.9.34-.65 1.97l.18 1.12.37-.59c.21-.33.47-.82.58-1.1Zm20.32 1.54c-.45-.32-.47-.89-.05-1.36.27-.3.33-.09.11.37-.51 1.06.99 1.29 1.9.3.44-.49.7-.56.9-.25.11.19.1.2-.22.2-.25 0-.38.06-.5.25-.4.61-1.59.88-2.14.49Zm-2.34-.93c.38-.11.42-.15.42-.42 0-.17.09-.43.2-.57.37-.46-.9-.62-1.4-.17-.33.3-.07 1.52.28 1.31.04-.02.26-.09.5-.15Zm11.52-.89c0-.2-.34-.52-.66-.62-.55-.18-.63.01-.17.39.34.28.83.42.83.23Zm-3.8-2.14c0-.21-.13-.34-.55-.56-.22-.12-.34-.21-.27-.22.06 0 .12-.08.12-.17-.01-.17-.01-.17-.11-.01-.11.19-.68.38-1.15.38-.44 0-.81.29-.39.31.17.01.52.03.8.05.27.02.52-.01.56-.07s.21-.01.44.15c.42.29.55.32.55.14Z"/></svg>