<svg xmlns="http://www.w3.org/2000/svg" width="51" height="51" viewBox="0 0 51 51"><path fill="#fff" fill-rule="evenodd" stroke="#fff" stroke-width=".769" d="M24.45 44.46c-.5-.13-1.3-.5-1.95-.91-.19-.12-2.44-1.42-5-2.89s-5.12-2.95-5.69-3.29c-1.72-1.03-2.67-2.23-3.06-3.88-.22-.94-.22-14.79 0-15.84.28-1.35 1.17-2.74 2.19-3.44.89-.62 12.69-7.3 13.18-7.48.75-.26 2.81-.26 3.55 0 .29.1 2.11 1.09 4.05 2.21 1.94 1.11 4.74 2.71 6.23 3.56 3.79 2.18 4.64 3.06 5.11 5.29.24 1.16.16 14.99-.09 15.84-.66 2.23-1.12 2.66-5.73 5.32-1.7.98-4.37 2.52-5.94 3.43-3.59 2.09-3.71 2.15-5.2 2.18-.72.02-1.34-.01-1.65-.1Zm2.95-.25c.61-.16 4.14-2.15 11.8-6.64 2.25-1.32 3.08-2.24 3.57-3.97.24-.88.28-15.19.04-16.05-.35-1.23-1.12-2.43-1.93-3.02-.53-.38-1.36-.87-7.33-4.31-6.36-3.66-6.18-3.59-7.96-3.5-1.27.06-1.65.22-4.4 1.8-1.29.75-3.93 2.26-5.87 3.37-5.38 3.08-5.65 3.31-6.3 5.42-.24.8-.31 14.87-.08 15.99.23 1.08.66 1.91 1.38 2.66.7.73.83.82 5.68 3.59 1.9 1.09 4.35 2.51 5.45 3.15 2.54 1.48 2.36 1.39 3.08 1.55.86.19 2.1.17 2.87-.04Zm-5.33-9.04c-.54-.51-.97-.98-.97-1.06 0-.07.47-.62 1.04-1.22 1.34-1.38 1.42-1.5 1.26-1.88-.06-.16-.77-.9-1.56-1.65-1.86-1.76-1.68-1.75-3.31-.14l-1.23 1.22-.91-.89c-1.3-1.29-1.3-1.06.09-2.48.66-.67 1.23-1.32 1.26-1.44.07-.23-.66-1.14-1.83-2.28-.28-.27-.51-.56-.51-.65 0-.16 1.86-2.07 1.94-1.99.03.02.59.57 1.24 1.22 1.34 1.31 1.45 1.35 2.08.88.55-.41 2.72-2.63 2.74-2.81.06-.4-.08-.6-1.21-1.75-1.06-1.08-1.19-1.26-1.1-1.43.13-.24 1.82-1.82 1.94-1.82.05 0 .65.54 1.32 1.2 1.55 1.52 1.45 1.51 2.79.22.56-.53 1.14-1.08 1.29-1.22l.28-.24.94.94c.52.52.95 1.02.95 1.1s-.48.63-1.06 1.2c-.98.98-1.34 1.43-1.34 1.7 0 .16.78.97 2.02 2.11 1.49 1.37 1.43 1.37 2.99-.23l1.18-1.23 1.01 1c.55.55 1 1.03 1 1.07s-.35.44-.78.9C34.33 24.88 34 25.3 34 25.6c0 .07.55.68 1.22 1.36 1.42 1.45 1.4 1.23.15 2.54l-.89.92-1.27-1.26c-1.03-1.02-1.33-1.26-1.56-1.26-.33 0-3.21 2.76-3.32 3.18-.07.31.26.77 1.42 1.92.52.52.95.99.95 1.05 0 .13-1.82 1.95-1.95 1.95-.05 0-.59-.49-1.2-1.09-1.64-1.63-1.61-1.63-3.15-.06-1.4 1.42-1.19 1.39-2.33.32Zm2.13-.43c1.68-1.69 1.67-1.69 3.35-.1l1.2 1.14.83-.81c.96-.96.95-.9.36-1.47-.25-.25-.77-.8-1.15-1.23-1.01-1.13-1.02-1.07.77-2.88 2.1-2.12 2.05-2.11 3.76-.41 1.01.99 1.2 1.14 1.31 1.02.08-.08.46-.5.86-.93l.73-.78-1.15-1.17c-.63-.65-1.17-1.27-1.21-1.39-.12-.37.18-.84 1.23-1.96.56-.6 1.01-1.12 1.01-1.16 0-.03-.38-.45-.85-.91l-.85-.85-1.15 1.16c-1.64 1.66-1.59 1.67-3.66-.3-1.98-1.88-1.97-1.82-.31-3.53L30.42 17l-.78-.83c-.43-.45-.84-.83-.91-.85s-.66.49-1.32 1.12c-1.62 1.57-1.53 1.57-3.17-.06l-1.23-1.21-.9.88-.9.88 1.18 1.24c1.68 1.76 1.69 1.63-.36 3.65-1.93 1.89-1.96 1.89-3.57.27-.6-.6-1.12-1.09-1.15-1.09-.04 0-.44.38-.9.84l-.84.85 1.09 1.16c1.7 1.81 1.69 1.62.08 3.25-.63.64-1.14 1.2-1.14 1.26 0 .05.38.47.85.94l.85.84 1.18-1.17c1.68-1.65 1.56-1.66 3.59.36.85.83 1.56 1.61 1.59 1.72.09.37-.12.68-1.27 1.88l-1.12 1.18.84.85c.46.46.88.84.94.84s.58-.48 1.15-1.06Zm1.04-6.03c-.57-.42-2.8-2.73-2.88-2.98-.13-.4.21-.86 1.68-2.31 1.94-1.93 1.85-1.95 4.24.51 1.43 1.47 1.43 1.51.43 2.64-2.12 2.4-2.67 2.73-3.47 2.14Zm2.49-1.41c1.92-1.97 1.92-1.7-.01-3.62-1.94-1.93-1.71-1.92-3.55-.1-1.59 1.58-1.74 1.79-1.53 2.2.08.15.77.89 1.54 1.65 1.86 1.82 1.62 1.83 3.55-.13Z"/></svg>