<svg xmlns="http://www.w3.org/2000/svg" width="51" height="51" viewBox="0 0 51 51"><path fill="#fff" fill-rule="evenodd" stroke="#fff" stroke-width=".765" d="M24.6 43.46c-8.06-1.16-14.37-8.02-14.77-16.03l-.06-1.33h1.2l.06 1.13c.24 4.83 2.79 9.4 6.87 12.29 6.01 4.27 14.36 3.76 19.95-1.2.81-.73.81-.73 1.26-.26l.34.36-.9.85c-2.03 1.92-4.99 3.41-8.03 4.04-1.27.27-4.53.34-5.92.15Zm5.7-.35c3.15-.64 6-2.06 8.23-4.11l.58-.53-.24-.25-.25-.25-.78.68c-3.88 3.39-9.31 4.75-14.34 3.61-7.01-1.59-12.28-7.73-12.68-14.76l-.07-1.15h-.7l.03.9c.23 7.39 5.83 14.05 13.22 15.71 2.16.48 5.06.55 7 .15Zm7.56-.58c-.03-.03-.06-.21-.06-.4 0-.18-.04-.33-.1-.33a.1.1 0 0 1-.1-.1c0-.05.25-.1.55-.1.42 0 .55.03.55.15 0 .21.27.19.39-.02.17-.31.34-.01.26.46-.07.44-.23.54-.32.21-.06-.21-.42-.28-.39-.07 0 .06-.03.14-.09.17s-.11-.12-.13-.32c-.04-.5-.32-.53-.32-.04 0 .34-.11.52-.24.39Zm-10.89-2.9c-.1-.1-.08-.91.02-.98.05-.03.58-.1 1.18-.16 2.53-.25 5.05-1.29 6.69-2.74l.45-.4-.93-.92-.93-.92-.6.46c-.76.58-2.17 1.27-3.2 1.55-1.19.33-3.84.33-5.04 0-7.68-2.1-9.57-12.12-3.19-16.93 3.45-2.59 8.73-2.46 11.71.3l.28.25 2.56-2.57c1.41-1.41 2.61-2.57 2.68-2.57.11 0 .33.22.65.63.12.16-.14.45-2.81 3.12-1.61 1.62-2.97 2.95-3.01 2.95s-.32-.22-.61-.48c-3.21-2.91-7.91-3.06-11.11-.35-3.38 2.85-3.92 8.03-1.21 11.61 2.25 2.97 6.52 4 10 2.43.74-.34 1.33-.72 2.28-1.49l.68-.55 1.7 1.69c.93.93 1.69 1.76 1.69 1.86 0 .23-1.28 1.38-2.32 2.08a13.1 13.1 0 0 1-5.2 2.05c-.96.15-2.3.2-2.41.08Zm2.83-.39c2.16-.44 4.33-1.51 5.95-2.94 1.06-.94 1.1-.83-1.28-3.19l-.95-.94-.65.54c-5.85 4.84-14.26 1.07-14.27-6.39 0-7.44 8.32-11.31 14.11-6.54.37.3.71.55.75.55s1.33-1.25 2.86-2.79l2.78-2.79-.25-.25-.25-.25-2.6 2.6-2.59 2.59-.28-.26c-2.97-2.76-8.09-2.96-11.5-.45-2.53 1.87-3.77 4.36-3.77 7.57-.01 7.97 8.93 12.11 15.35 7.1l.27-.2 1.03 1.06c.57.58 1.04 1.1 1.04 1.16 0 .2-1.75 1.46-2.68 1.94-1.52.78-3.07 1.23-4.89 1.39l-.78.07v.71l.92-.07c.51-.04 1.27-.14 1.68-.22Zm-12.61-3.81c-3.75-3.98-4.58-10.39-1.99-15.41 2.15-4.17 6.77-7.12 11.17-7.12h.84l-.03.58-.03.57-1.1.07c-4.63.28-8.86 3.52-10.43 7.98-.56 1.61-.67 2.28-.67 4.2.01 3.16.8 5.37 2.84 7.93.71.9.7.84.28 1.25-.42.4-.45.4-.88-.05Zm.72-.11c.27-.23.27-.24-.61-1.37-6.11-7.81-1.05-19.32 8.82-20.11l.88-.07v-.7l-.97.06c-1.72.11-3.25.53-4.83 1.33-7.66 3.88-9.66 13.55-4.23 20.37.59.74.61.75.94.49Zm-2.62-20.6c-.63-.69-.66-.63.71-1.77 2.75-2.3 5.99-3.63 9.62-3.96 1.57-.15 1.58-.14 1.58.54v.54l-1.04.06c-3.69.23-6.99 1.64-9.92 4.24l-.71.63zm2.66-2.01c2.42-1.65 5.83-2.81 8.26-2.81h.67l.04-.35.04-.35h-.69c-3.52 0-7.67 1.73-10.76 4.49l-.44.39.22.31.23.31.71-.65c.4-.37 1.17-.97 1.72-1.34Z"/></svg>