<svg xmlns="http://www.w3.org/2000/svg" width="51" height="51" viewBox="0 0 51 51"><path fill="#fff" fill-rule="evenodd" stroke="#fff" stroke-width=".675" d="M13.84 39.93c.17-29.13.16-28.33.37-28.91.53-1.54 1.9-2.75 3.52-3.12.32-.07 3.08-.09 8.46-.08l7.98.03.86.43c1.01.5 1.98 1.34 2.31 2.01.58 1.16.54-.28.61 21.19l.07 19.72h-.62l-.02-13.37c-.02-7.36-.03-16.11-.03-19.46V12.3h-7.91c-8.59 0-8.04-.03-8.04.51 0 .29-.68.97-1.1 1.1-.59.18-2.58.08-2.95-.15-.42-.25-.66-.61-.72-1.07l-.06-.39h-1.94l-.06 4.27c-.04 2.36-.1 11.11-.13 19.45l-.07 15.18h-.6zm3.91 9.03c-1.47-.66-1.42-3.59.08-4.15.74-.28 2.3-.1 2.76.32 1 .92.76 3.22-.4 3.82-.36.19-2.02.2-2.44.01Zm7.1 0c-1.44-.64-1.44-3.41 0-4.07.58-.27 1.94-.26 2.49.01 1.32.64 1.39 3.2.12 3.95-.5.29-2.05.36-2.61.11Zm7.1 0c-1.48-.66-1.43-3.59.08-4.15.37-.14 1.88-.14 2.24 0 1.47.55 1.56 3.4.12 4.14-.36.19-2.02.2-2.44.01Zm-11.69-.32c.96-.71.96-2.77.01-3.48-.44-.33-2.18-.31-2.65.02-1.1.79-.89 3.25.31 3.61.58.18 2.02.09 2.33-.15Zm6.81.15c1.26-.47 1.45-2.77.29-3.63-.36-.28-2.03-.3-2.53-.03-1.16.62-1.1 3.02.09 3.6.38.19 1.71.23 2.15.06Zm7.34-.12c.92-.61 1.04-2.65.21-3.4-.48-.44-2.34-.47-2.88-.05-.87.69-.85 2.73.02 3.35.58.41 2.1.47 2.65.1ZM18.2 42.81c-1.86-.4-2.11-3.81-.32-4.31 1.94-.54 3.31.29 3.32 2 0 1.82-1.15 2.71-3 2.31Zm7.15 0c-1.11-.2-1.62-1.03-1.53-2.47.09-1.39.63-1.87 2.13-1.92 1.83-.06 2.57.78 2.34 2.67-.16 1.39-1.26 2.03-2.94 1.72Zm7.03 0c-1-.21-1.46-.9-1.47-2.21-.01-1.59.61-2.2 2.25-2.2 1.6 0 2.24.63 2.24 2.2 0 1.73-1.18 2.6-3.02 2.21Zm-12.03-.51c.89-.83.84-2.75-.08-3.44-.41-.3-2.05-.31-2.56-.01-1.06.62-1.06 2.82 0 3.53.51.35 2.24.3 2.64-.08Zm7.2-.1c.83-.8.73-2.68-.18-3.34-.41-.3-2.06-.3-2.56-.01-1.06.62-1.06 2.82 0 3.53.59.4 2.25.3 2.74-.18Zm7.03.03c.85-.81.78-2.72-.12-3.36-.45-.32-2.2-.33-2.63-.01-.52.39-.68.8-.68 1.74 0 1.52.49 2 2.06 2h.98zM24.21 34.7c-5.67-1.19-8.3-7.57-5.08-12.3 2.19-3.2 6.4-4.35 9.92-2.7 6.48 3.02 5.87 12.39-.96 14.72-1.02.34-2.91.48-3.88.28Zm3.34-.35c4.71-1.29 7.11-6.41 5.05-10.8-2.72-5.84-11.15-5.78-13.91.1-2.7 5.78 2.75 12.36 8.86 10.7Zm-2.54-.72c-.42-.5-.78-1.09-.71-1.17.08-.07.31-.08 1.38-.07 1.25.01 1.3.12.52 1.09-.61.74-.67.75-1.19.15Zm1.34-.75.16-.28h-.95c-1.12 0-1.09-.05-.49.72l.46.6.33-.38c.18-.22.4-.51.49-.66Zm-1.8-1.12c-2.66-.65-4.48-3.53-3.8-6.05 1.19-4.48 7.17-5.21 9.37-1.15 1.99 3.68-1.5 8.19-5.57 7.2Zm2.4-.28c1.1-.27 2.44-1.38 3-2.47 1.63-3.23-.89-7.1-4.49-6.89-4.05.24-6.03 4.96-3.33 7.94 1.22 1.35 2.99 1.87 4.82 1.42Zm-2.43-1.65c-1.15-.4-2.07-1.76-2.06-3.03.01-2.87 3.54-4.27 5.49-2.19 2.3 2.46-.26 6.34-3.43 5.22Zm2.35-.32c2.87-1.46 1.97-5.63-1.22-5.65-2.6-.02-3.89 2.99-2.15 4.98.8.91 2.31 1.21 3.37.67Zm-7.84-1.95c-.91-.67-.91-.71.05-1.44.88-.67.97-.61.97.73s-.08 1.39-1.02.71Zm6.06.27c-.55-.34-.73-.96-.44-1.57.44-.92 1.75-.83 2.15.15.41.98-.8 1.99-1.71 1.42Zm5.97-.29c-.11-.85-.07-1.61.1-1.78.2-.2.5-.04 1.26.66.59.55.59.56-.34 1.19-.77.53-.94.52-1.02-.07Zm-11.17-.91c.01-.79-.03-.81-.72-.26-.68.53-.68.5.03 1.01l.55.4.06-.26c.04-.15.07-.55.08-.89Zm6.49.8c.45-.49.23-1.31-.42-1.53-.89-.29-1.62.76-1.02 1.47.41.49 1.02.51 1.44.06Zm5.85-.21c.47-.31.47-.29-.15-.78-.83-.64-.78-.67-.78.42v.96l.28-.18c.15-.09.44-.28.65-.42Zm-7.86-5.96c-.06-.16.38-.88.84-1.37.27-.29.31-.3.52-.16.28.18 1.09 1.36 1.04 1.51-.06.18-2.33.2-2.4.02Zm2.1-.21c-.09-.22-.8-1.15-.89-1.15s-.98 1.11-.98 1.22c0 .05.43.08.96.08.8 0 .95-.02.91-.15Zm-5.93-7.48c.37-.24.66-.75.66-1.14v-.33h-1.07l-.12.4c-.32 1.06-1.71 1.05-2.02-.01l-.12-.39h-.54c-.52 0-.53 0-.53.3 0 .6.44 1.16 1.02 1.31.61.15 2.41.06 2.72-.14Zm-1.05-.93c.26-.33.26-.51.01-.89-.36-.54.02-.68.4-.15.24.34 1.3.47 1.3.16 0-.22-.44-.8-.7-.93-.39-.2-2.79-.17-3.08.03-.24.17-.52.64-.52.89 0 .31.95.2 1.2-.15.38-.53.76-.39.4.15-.35.52-.07 1.15.5 1.15.19 0 .36-.09.49-.26Zm-2.91-1.04c.33-.91.83-1.15 2.42-1.15 1.6 0 2.12.25 2.43 1.18.04.14 15.53.23 15.75.09.1-.07.08-.22-.1-.73l-.23-.64-10.87-.03-10.87-.02-.17.31c-.41.81-.45 1.07-.16 1.12.41.07 1.77-.03 1.8-.13Zm19.39-2.08c-.15-.16-.62-.47-1.06-.7l-.78-.42h-8.21c-7.94 0-8.22.01-8.66.2-.48.2-1.6.93-1.71 1.1-.04.07 3.39.1 10.31.1h10.38z"/></svg>