<svg xmlns="http://www.w3.org/2000/svg" width="51" height="51" viewBox="0 0 51 51"><path fill="#fff" fill-rule="evenodd" stroke="#fff" stroke-width=".456" d="M31.42 40.49c-2.67-.34-5.5-2.46-6.22-4.64-.16-.48-.19-.46-.69.58-1.82 3.78-7.1 5.25-10.97 3.06-4.96-2.8-5.22-10.09-.47-13.19 3.91-2.57 9.58-1.18 11.52 2.82l.39.79.26-.57c2.52-5.49 10.37-6.13 13.7-1.11 3.76 5.69-.81 13.13-7.52 12.26Zm-11.75-.5c2.17-.55 4.04-2.16 4.9-4.22.42-1.01.46-1.02.78-.24 2.46 6.05 11 6.39 13.88.55 2.54-5.13-1.09-11.04-6.78-11.01-3.61.02-6.54 2.28-7.45 5.77l-.26 1-1.85.01c-1.01.01-2.8.02-3.96.03l-2.13.02v2.7h2.09c1.23 0 2.12.04 2.16.1.11.17-.52 1.25-.97 1.66-1.18 1.09-3.59 1.08-5.01 0-1.66-1.26-2.19-4.17-1.1-6.03 1.39-2.37 4.82-2.71 6.4-.64l.38.5h1.98c2.27.01 2.17.06 1.67-.93-2.64-5.2-10.66-5.35-13.58-.25-.86 1.5-1.15 3.97-.69 5.69 1.11 4.05 5.3 6.38 9.54 5.29Zm-6.25-2.26c-.1-.04-.1-.08-.02-.19.12-.13.06-.34-.1-.34-.05 0-.1.07-.12.15-.02.12-.06.11-.16-.06-.08-.13-.09-.18-.02-.14.06.04.2-.01.3-.1.19-.18.38.09.31.44-.02.13 0 .13.13.02.19-.16.22-.01.04.17-.13.13-.16.13-.36.05ZM19 36.71c.71-.27 1.15-.64 1.5-1.24l.3-.52-2.13-.05-2.12-.05v-3.2l4.01-.03 4.01-.02.11-.52c.07-.28.1-.54.06-.57-.03-.03-1-.08-2.15-.09-1.15-.02-2.09-.07-2.09-.12 0-.19-1.04-1.2-1.43-1.39-3.37-1.63-6.65 2.17-4.98 5.76.87 1.84 3.04 2.75 4.91 2.04Zm-6.65-.27c-.25-.38.09-.65.37-.29.22.28.23.41.02.49s-.2.09-.39-.2Zm18.74-.18c-4.02-1.65-2.93-7.4 1.41-7.41 3.63 0 5.17 4.57 2.3 6.84-1.05.83-2.54 1.06-3.71.57Zm2.87-.36c1.69-.83 2.49-2.79 1.85-4.52-1.28-3.39-6.33-2.89-6.9.69-.45 2.88 2.48 5.1 5.05 3.83Zm-2.41-.13c-1.93-.64-2.88-2.75-2.02-4.49 1.49-3.04 6.08-2.01 6.08 1.37 0 2.15-2.11 3.76-4.06 3.12Zm2.11-.41c2.72-1.27 2.05-5.31-.94-5.62-2.57-.27-4.19 2.65-2.63 4.72.8 1.06 2.37 1.46 3.57.9Zm5.68-8c-.75-.75-.15-1.81.92-1.62 1.07.21.84 1.96-.26 1.96-.23 0-.41-.09-.66-.34Zm.59-.56c-.03-.11 0-.2.06-.2s.11.07.11.15.05.15.1.15c.15 0 .12-.26-.05-.4-.28-.23-.64.18-.38.43.13.13.21.07.16-.13Zm-6.83-3.65c-1.43-.33-2.96-1.32-3.72-2.42l-.3-.45-.24.58a3.71 3.71 0 0 1-2.19 2.13c-.54.2-.73.21-3.68.19l-3.12-.03-.03-6.04c-.02-4.56.01-6.07.1-6.18.1-.12.62-.14 3.27-.11l3.16.03.57.27c.81.38 1.43.99 1.82 1.8l.34.69.21-.34c.65-1.06 2.43-2.22 3.86-2.52 3.41-.71 6.79 1.45 7.5 4.8.95 4.51-3.12 8.61-7.55 7.6Zm-22.63-.02c-.15-.14-.08-12.1.07-12.22.09-.08.65-.11 1.77-.09l1.64.03.03 2.23.02 2.22h1.9v-2.13c0-1.52.03-2.16.12-2.25.14-.14 3.24-.17 3.46-.04.1.07.12 1.37.1 6.18l-.03 6.09h-3.6l-.03-2.27-.02-2.28H14v4.6h-1.73c-.96 0-1.77-.03-1.8-.07Zm3.17-.19c.14-.05.16-.36.16-2.35V18.3h2.4v4.71l1.48-.03c.81-.02 1.53-.07 1.6-.12.09-.05.12-1.38.12-5.92V11.1h-3.2v4.5h-2.4v-4.5h-3.1V23h1.39c.77 0 1.46-.03 1.55-.06Zm13.09-.26c1.07-.5 1.62-1.12 1.98-2.21.26-.81.27-.81.73-.12 2.08 3.13 6.64 3.57 9.31.9 2.88-2.87 2.12-7.94-1.45-9.68-2.89-1.41-6.64-.4-8 2.16-.33.61-.43.59-.58-.12-.19-.92-.79-1.66-1.77-2.19l-.5-.27-3.17-.03-3.18-.03v11.92l3.02-.03 3.03-.03zm-3.63-3.42V18.1h.95c1.38 0 1.75.26 1.75 1.24 0 .83-.27 1-1.59 1.04l-1.11.04zm2.24.68c.33-.32.32-1-.01-1.37-.13-.14-.33-.17-1.1-.17h-.93v1.7h.94c.73 0 .98-.04 1.1-.16Zm8.41.07c-1.79-.47-2.89-2.61-2.17-4.23 1.12-2.53 4.63-2.62 5.78-.15 1.06 2.28-1.19 5.02-3.61 4.38Zm2.02-.49c1.43-.74 2.03-2.5 1.31-3.88-1.4-2.68-5.43-1.71-5.43 1.31 0 2.14 2.24 3.53 4.12 2.57Zm-2.05-.11c-1.46-.5-2.2-2.04-1.62-3.39.9-2.1 3.71-2.19 4.71-.16 1 2.02-.98 4.28-3.09 3.55Zm1.79-.38c1.46-.75 1.78-2.56.65-3.69-1.47-1.47-4.01-.42-3.99 1.65a2.3 2.3 0 0 0 3.34 2.04Zm-7.66-1.53c-.21-.22-.47-.42-.57-.46-.24-.07-.24-.38 0-.32.11.03.35-.07.57-.23.5-.38.55-.32.55.62 0 .91-.02.93-.55.39Zm-4.68-1.77c-.04-.03-.07-.51-.07-1.05v-.98h1.1c1.07 0 1.12.01 1.35.26.44.48.27 1.46-.3 1.72-.27.13-1.97.17-2.08.05Zm2.17-.42c.31-.34.32-.86.02-1.16-.24-.24-.31-.26-1.13-.23l-.88.03-.03.64c-.04.93-.06.91.96.91.74 0 .92-.03 1.06-.19Z"/></svg>