<svg xmlns="http://www.w3.org/2000/svg" width="51" height="51" viewBox="0 0 51 51"><path fill="#fff" fill-rule="evenodd" stroke="#fff" stroke-width=".712" d="M29.65 43.84c-.11-.02-.45-.09-.75-.15-1.36-.26-2.61-.8-3.9-1.69-.81-.56-10.4-10.11-10.4-10.36 0-.19 2.8-3.04 2.98-3.04.08 0 2.36 2.2 5.06 4.89 4.68 4.66 4.95 4.9 5.66 5.24 4.37 2.08 9.18-1.04 8.98-5.82-.09-2.07-.62-3.03-3.07-5.53-.89-.91-1.61-1.71-1.61-1.78s.58-.73 1.3-1.46c2.81-2.9 3.43-4.03 3.42-6.24-.01-4.62-5.06-7.53-9.25-5.33-.4.2-2.39 2.14-8.49 8.22l-7.98 7.96-.85-.85c-1.3-1.29-1.63-2.22-1.16-3.25.23-.5 14.1-14.42 15.21-15.27 4.56-3.47 11.36-2.48 14.84 2.15 3 4 2.83 9.56-.4 13.53l-.44.54.45.55c4.99 6.13 2.24 15.18-5.3 17.41-.87.25-3.62.44-4.3.28Zm3.9-.43c7.36-1.82 10.39-10.67 5.75-16.79-.82-1.08-.81-1.06-.32-1.63 3.15-3.6 3.4-9.34.57-13.18-3.3-4.48-9.52-5.6-14.18-2.55-.78.51-15.07 14.66-15.5 15.34-.55.88-.27 1.8.94 3.04l.79.81 7.73-7.77c9.21-9.26 8.83-8.96 11.49-9.06 5.58-.2 8.72 5.81 5.39 10.32-.23.3-1.05 1.23-1.83 2.07-.79.83-1.45 1.56-1.47 1.61-.01.05.68.82 1.56 1.71 1.62 1.65 2 2.12 2.46 3.03 1.54 3.05.17 7.05-2.95 8.59-2 .98-3.76.98-5.78-.01l-.95-.47-4.79-4.79c-2.63-2.63-4.84-4.78-4.9-4.78-.13 0-2.66 2.64-2.66 2.77 0 .17 9.37 9.5 9.98 9.93 1.48 1.06 2.76 1.63 4.27 1.89.33.06.71.13.85.15.58.1 2.78-.04 3.55-.23Zm-3.1-8.13c-.43-.11-9.85-9.37-9.85-9.69 0-.24 9.3-9.46 9.72-9.64 1.7-.7 3.55 1.2 2.83 2.92-.15.34-.68.92-4.52 4.85-.95.97-1.73 1.81-1.73 1.87s1.28 1.41 2.85 2.99c1.56 1.59 2.94 3 3.05 3.15 1.35 1.71-.22 4.08-2.35 3.55Zm1.56-.41c.9-.48 1.31-1.76.84-2.66-.09-.19-1.55-1.73-3.22-3.42-1.8-1.81-3.03-3.14-3.01-3.22.01-.09 1.39-1.55 3.05-3.25s3.08-3.23 3.16-3.38c.82-1.61-.8-3.37-2.5-2.73-.34.12-9.45 9.19-9.41 9.36.07.28 8.88 9.11 9.3 9.32.57.28 1.23.27 1.79-.02Z"/></svg>