<svg xmlns="http://www.w3.org/2000/svg" width="51" height="51" viewBox="0 0 51 51"><path fill="#fff" fill-rule="evenodd" stroke="#fff" stroke-width=".332" d="m38.45 44.85-.25-.24V19.49l.25-.24.24-.25h10.28l.21.23.21.23.07 12.56.07 12.56-.26.26-.26.26H38.69zm10.65-.15c.2-.2.2-.33.2-8.05s0-7.85-.2-8.05c-.28-.28-10.09-.32-10.48-.04l-.22.15v7.9c0 7.76 0 7.89.2 8.09.19.19.33.2 5.25.2s5.06-.01 5.25-.2Zm-5.77-.63c-.66-1.16-1.55-2.28-2.68-3.34l-1.04-.99 1.15-1.25c1.04-1.11 2.38-2.7 2.87-3.39l.17-.25.23.29c.88 1.16 1.92 2.38 2.87 3.4.61.65 1.1 1.22 1.08 1.26-.02.03-.34.34-.73.67-1.08.93-2.35 2.52-3 3.76-.38.72-.41.72-.92-.16Zm1.84-1.68c.4-.53 1.13-1.35 1.62-1.81l.9-.84-1.15-1.25a39 39 0 0 1-2.52-2.94l-.23-.3-.17.25c-.42.61-1.39 1.75-2.49 2.95l-1.2 1.29.62.53c.94.8 2.11 2.22 2.9 3.51l.39.63.3-.52c.17-.29.64-.96 1.03-1.5Zm-18.71-.4-.26-.2v-22.3l.25-.24.24-.25h5.13c5.53.01 5.37-.01 5.58.54.07.18.1 3.87.1 11.17v10.91l-.29.29-.29.29h-5.1c-5 0-5.1 0-5.36-.21Zm10.61-.22c.29-.29.33-15.83.04-16.18l-.19-.24-4.99-.03c-4.97-.03-4.99-.03-5.26.18l-.27.21v7.93c0 8.23 0 8.14.4 8.29.46.17 10.09.02 10.27-.16Zm-6.67-.33c0-.04.14-.22.31-.42.27-.3.79-1.29.79-1.48 0-.03-.2.12-.45.34-2.23 1.96-5.28-1.46-3.1-3.47.39-.36 1.19-.71 1.63-.71.09 0 .12-.06.07-.18-.65-1.64.71-3.4 2.47-3.19 1.45.18 2.45 1.78 1.95 3.15-.07.19-.05.22.16.22.44 0 1.15.31 1.51.66 2.27 2.21-.91 5.56-3.23 3.4-.32-.3-.33-.3-.26-.06.13.43.44.98.75 1.34.42.47.45.46-1.15.46-.8 0-1.45-.03-1.45-.06Zm2.16-.61a4.5 4.5 0 0 1-.53-1.07l-.19-.58-.13.43c-.17.57-.48 1.18-.74 1.47l-.2.22h2.13zm-2.1-.82c.22-.1.56-.37.76-.6.47-.55.76-.55 1.31.02 1.21 1.24 2.87.99 3.56-.53.61-1.33-.38-2.9-1.83-2.9-.56 0-.58-.03-.4-.7.35-1.29-.32-2.41-1.59-2.7-1.5-.33-2.81.96-2.47 2.45.2.91.21.89-.35.96-.68.08-.98.22-1.43.67-1.6 1.6.35 4.28 2.44 3.33Zm-15.94-1.08c-.35-.14-.35-.35-.39-9.86-.04-9.98-.04-9.83.42-10.01.09-.03 2.46-.06 5.26-.06h5.1l.23.23c.3.3.36 2.27.36 12.04v7.11l-.26.31-.26.31-5.16-.01c-2.85 0-5.23-.03-5.3-.06Zm10.49-.32.24-.19V22.58l-.24-.19c-.33-.27-10.01-.3-10.39-.03l-.22.15v15.98l.22.15c.38.27 10.06.24 10.39-.03Zm-7.06-1.93c-2.29-2.29-2.83-3.21-2.73-4.67.17-2.35 3.07-3.39 4.31-1.55l.24.35.27-.36c.91-1.18 2.65-1.21 3.69-.06 1.25 1.38.93 3.16-.9 5.11-1.04 1.11-2.92 2.8-3.11 2.8-.08 0-.87-.73-1.77-1.62Zm2.86.46c2.47-2.15 3.39-3.47 3.39-4.87 0-1.74-1.64-2.96-3.13-2.33-.33.13-1.17.97-1.17 1.16 0 .22-.18.08-.44-.33-1.06-1.67-3.55-1.11-3.96.89-.25 1.18.14 2.18 1.43 3.65.77.88 2.66 2.69 2.81 2.69.04 0 .53-.39 1.07-.86ZM2.75 35.83c-.59-.14-.55.4-.55-8.38v-8.02l.23-.21c.23-.22.23-.22 5.35-.22h5.11l.28.24.28.24.03 7.79c.03 8.48.04 8.25-.54 8.49-.33.14-9.66.2-10.19.07Zm10.27-.4c.25-.23.29-15.82.03-16.03-.24-.2-10.11-.25-10.42-.05l-.23.15v7.9c0 7.04.02 7.9.16 8.04.24.25 10.19.24 10.46-.01Zm-6.56-.21c-.03-.05.15-.29.4-.53.68-.66.76-.86.25-.6-2.24 1.15-4.44-1.47-3.25-3.86.28-.57 3.63-4.19 3.9-4.22.29-.03 3.72 3.54 4.04 4.2.76 1.59.37 3.1-.99 3.81-.68.36-1.65.39-2.24.08-.51-.27-.46-.09.13.54.27.29.5.56.5.59 0 .1-2.68.08-2.74-.01Zm2.05-.4c-.05-.1-.17-.25-.26-.32-.1-.08-.21-.25-.27-.39l-.09-.25-.27.34c-.15.19-.37.45-.49.57l-.22.23h.85c.79 0 .84-.01.75-.18Zm-1.44-1c.37-.26 1.12-.23 1.68.07 1.5.8 3.48-.75 3.2-2.51-.18-1.08-.73-1.84-2.76-3.77l-1.41-1.35-1.67 1.7C3.93 30.17 3.49 31 3.8 32.31c.34 1.41 2.2 2.27 3.27 1.51Zm38.85-.99c-.33-.43-.79-.96-1.01-1.18-.52-.5-.55-.41.39-1.47.45-.5.88-1.04.98-1.2.21-.36.24-.36.63.14.18.24.63.77 1.01 1.2.82.92.82.73-.03 1.71-.39.45-.83.99-.98 1.19-.33.48-.27.51-.99-.39Zm-5.03.2c-.98-.83-.92-3.06.11-3.66 1.06-.63 2.16.33 2.14 1.88-.01 1.63-1.26 2.61-2.25 1.78Zm6.79-1.11c.57-.65.62-.75.5-.91-.07-.1-.47-.57-.88-1.05l-.75-.87-.23.28c-.13.15-.53.61-.89 1.01l-.65.73.46.52c.25.29.65.77.89 1.08l.42.57.25-.32c.14-.17.53-.64.88-1.04Zm-8.28-.27c0-1.48-.01-1.55-.2-1.55-.41 0-.26-.55.2-.74.74-.29.7-.39.7 1.84v2h-.7zm2.67.85c.48-.44.58-1.82.16-2.38-.53-.72-1.43-.07-1.43 1.05 0 1.15.69 1.87 1.27 1.33Zm-8.27-1.89c0-.05.07-.14.16-.21.39-.34.36-.48-.08-.33-1.49.51-2.36-1.66-.93-2.34.3-.14.35-.22.35-.5 0-1.41 1.83-1.85 2.36-.57.08.19.14.46.14.62 0 .23.06.32.29.42 1.17.48 1.1 2.08-.1 2.4-.3.08-.46.07-.74-.04-.38-.16-.38.02-.01.34.3.24.16.3-.64.3-.44 0-.8-.04-.8-.09Zm-5.4-.28c-.38-.15-.98-.92-.83-1.07.15-.14.47-.04.73.24.8.85 1.2.26 1.2-1.76 0-1.61.03-1.71.46-1.6.5.13.3 3.35-.25 3.9-.29.28-.96.44-1.31.29Zm5.74-.68c.2-.14.41-.25.46-.25s.26.11.46.25.47.25.6.25c1.21 0 1.42-1.75.24-1.99-.34-.07-.35-.08-.4-.66-.13-1.57-1.9-1.56-1.9.01v.53l-.4.11a.991.991 0 0 0-.42 1.71c.41.37.86.38 1.36.04Zm4.66-2.33c0-.75.02-.85.25-1.07l.24-.25h9.02l.24.26c.22.24.25.36.25 1.05 0 .68.03.8.2.89.24.13.32-2.44.08-2.68-.21-.21-10.32-.17-10.52.04-.28.27-.23 2.89.04 2.72.17-.11.2-.24.2-.96Zm.51.48c.05 0 .12.07.15.15.09.24.28.18.47-.15.1-.16.22-.3.27-.3s.17.14.27.3c.22.38.43.38.68 0 .25-.37.3-.37.52 0 .22.38.4.38.73-.02l.27-.32.19.32c.23.4.48.41.71.02.22-.38.3-.38.51 0 .22.38.43.38.65 0 .1-.16.22-.3.27-.3s.17.14.27.3c.22.38.4.38.74-.02l.27-.33.18.32c.24.41.46.42.75.02l.22-.32.29.34c.26.32.29.33.42.17.16-.22.26-.23.26-.02 0 .08.05.12.1.09.2-.12.12-1.3-.11-1.59-.27-.34-.34-.33-.61.09-.29.43-.34.43-.59 0-.26-.44-.38-.44-.67 0-.28.43-.32.43-.6 0-.28-.44-.35-.44-.62 0-.12.19-.25.35-.29.35s-.16-.16-.27-.35c-.24-.44-.37-.44-.65.02l-.23.36-.33-.39c-.33-.38-.34-.38-.48-.19-.41.58-.44.61-.55.44-.05-.09-.18-.27-.29-.4l-.21-.24-.32.38-.33.38-.24-.36c-.29-.44-.37-.44-.62 0-.26.44-.32.44-.58-.01-.43-.72-.96-.11-.84.97.04.35.09.56.11.47.02-.1.08-.18.13-.18Zm1.3-.26c-.26-.33-.26-.42 0-.7l.22-.23.18.23c.24.3.24.42 0 .72l-.19.24zm1.17.01c-.24-.32-.23-.47.06-.74l.24-.22.21.3.22.3-.22.31c-.27.36-.29.36-.51.05Zm1.23 0c-.25-.33-.25-.34-.05-.63s.36-.28.56.06c.15.26.15.28-.07.55l-.22.29zm2.35-.02c-.21-.29-.07-.75.25-.81.31-.06.51.52.28.82-.25.32-.29.32-.53-.01Zm1.26.02c-.27-.35-.27-.38.01-.71l.23-.27.22.28c.27.34.27.34-.01.69l-.23.29zm-7.26-.04c-.22-.25-.17-.6.11-.78.34-.23.67.45.38.77-.22.25-.27.25-.49.01Zm4.8-.03c-.21-.3-.2-.41.08-.67l.24-.22.16.22c.21.3.2.52-.02.72-.24.22-.28.21-.46-.05Zm3.6-.07c-.14-.27-.14-.29.13-.55.42-.4.77.11.4.58-.26.33-.35.33-.53-.03ZM18 27.3c0-.05-.26-.07-.64-.03-1.39.13-2.26-.68-2.26-2.12 0-2.16 2.57-2.96 3.54-1.1.33.63.3 1.9-.05 2.36-.2.26-.24.38-.16.51.08.12.07.21-.02.32-.15.18-.41.22-.41.06Zm3.53-.75c-1.08-1.01-1.49-1.7-1.4-2.36.15-1.09 1.24-1.62 2.09-.99l.28.21.28-.21c1.25-.93 2.61.51 1.9 1.99-.22.46-1.91 2.21-2.13 2.21-.06 0-.52-.38-1.02-.85Zm2.02-.37c1.04-1.06 1.27-1.55 1.05-2.22-.3-.92-1.5-1.05-1.98-.2-.07.13-.14.1-.44-.2-1.08-1.08-2.39.38-1.53 1.7.28.42 1.74 1.83 1.9 1.84.05 0 .5-.42 1-.92Zm-6.05.41c0-.06-.08-.24-.17-.4-.16-.26-.16-.31-.03-.39.24-.16.36-.12.49.17.3.65.7-.78.41-1.47-.3-.72-1.12-1.06-1.76-.73-.94.49-1 2.19-.1 2.74.34.21 1.16.26 1.16.08Zm9.18-1.41c.05-.07.12-.54.14-1.04.05-1.47-.43-1.34 4.98-1.34h4.57l.24.26c.21.23.24.35.25 1.14.02.88.07 1.1.25 1.1.14 0 .12-2.83-.03-2.98-.21-.21-10.26-.17-10.5.05-.16.14-.18.33-.18 1.55 0 1.32.05 1.54.28 1.26Zm12.12-.87c0-.64.04-.83.21-1.05l.2-.26h4.6c5.44 0 4.99-.11 4.99 1.25 0 .74.02.86.2.95.27.15.31-2.47.04-2.74-.14-.14-.75-.16-5.2-.16-6.07 0-5.44-.2-5.44 1.7 0 1.28 0 1.3.2 1.2.17-.09.2-.21.2-.89Zm.67.65c.14.18.16.18.44-.16l.3-.35.3.35.29.35.31-.35.3-.35.19.25c.11.14.2.28.2.33 0 .18.31.04.57-.28l.29-.34.18.34c.24.43.38.44.7.03l.25-.33.31.35.3.35.33-.39.34-.38.22.36c.28.45.32.45.69 0l.29-.35.21.35c.27.45.33.45.71-.01.17-.2.32-.35.34-.32.02.02.14.19.27.38.22.32.24.33.37.15.13-.17.14-.17.28.02.22.29.22-1.22-.01-1.54-.21-.31-.5-.28-.69.07-.22.45-.33.46-.56.07-.26-.45-.38-.45-.67-.01-.28.44-.34.44-.55 0s-.38-.44-.68 0c-.3.43-.31.43-.55 0-.1-.19-.24-.35-.3-.35-.07 0-.22.16-.34.35s-.25.35-.29.35-.16-.16-.27-.35c-.1-.19-.24-.35-.32-.35-.07 0-.22.16-.33.35-.12.19-.24.35-.28.35-.05 0-.16-.16-.27-.35-.23-.44-.35-.44-.65 0-.3.43-.32.43-.58 0-.26-.44-.4-.44-.7.02l-.24.37-.21-.37c-.47-.83-1.09-.09-.91 1.1.06.4.08.44.17.28.11-.18.11-.18.25.01Zm-12.04-.16c.2.28.14.31.64-.35l.14-.2.14.2c.46.67.52.67.96-.04.09-.14.11-.14.22.03.07.1.2.28.3.4l.17.21.34-.39.33-.38.22.36c.25.39.46.46.56.17.15-.48.41-.55.65-.17.19.32.5.49.5.29 0-.05.11-.21.23-.37l.24-.29.22.36c.2.33.51.5.51.3 0-.05.11-.21.24-.38l.24-.3.22.38c.27.46.39.46.68.02.28-.44.34-.44.58 0 .19.35.44.47.44.21s.2-.28.29-.04c.07.17.1.02.1-.59.01-1.13-.46-1.66-.84-.94-.22.44-.31.45-.55.06-.27-.44-.43-.44-.71.02l-.23.36-.3-.36c-.38-.45-.39-.45-.66-.02-.12.19-.25.35-.29.35s-.16-.16-.27-.35c-.24-.44-.37-.44-.65.02l-.23.36-.3-.36c-.38-.45-.39-.45-.65-.01-.23.39-.51.32-.66-.17-.09-.29-.3-.23-.56.16-.29.43-.29.43-.57 0-.28-.44-.43-.44-.66 0-.11.19-.23.35-.27.35s-.17-.16-.29-.35c-.47-.76-.96-.16-.83 1.04.05.46.08.59.13.41l.06-.24zm15.58-.26c-.27-.34-.26-.45.03-.73l.24-.22.16.22c.2.3.2.38-.03.72l-.18.28zm-3.63.05c-.21-.12-.24-.58-.04-.84.3-.42.8.24.51.69-.19.29-.22.3-.47.15Zm1.18-.11c-.2-.29-.2-.38.04-.68l.2-.25.2.25c.25.31.25.52.02.73-.24.22-.28.21-.46-.05Zm1.21.04c-.22-.24-.21-.41.04-.72l.21-.25.19.24c.39.48-.04 1.18-.44.73Zm2.39-.04c-.21-.3-.2-.41.07-.66.41-.39.74.13.41.63-.2.31-.29.31-.48.03Zm1.21-.03c-.18-.25 0-.85.24-.85.14 0 .49.52.42.64-.27.48-.42.53-.66.21Zm1.18-.01c-.17-.27-.01-.71.31-.81.27-.08.47.48.27.75-.27.36-.37.37-.58.06Zm1.31.07c-.21-.23-.2-.54.02-.74.24-.22.29-.21.47.07.29.44-.15 1.05-.49.67Zm-19.25-.15c-.26-.27-.27-.48-.03-.69.43-.39.85.21.47.65l-.23.27zm1.14-.1-.19-.35.24-.26.25-.26.23.26.23.27-.2.31c-.27.43-.35.43-.56.03Zm1.27.09c-.26-.33-.26-.34-.06-.63s.36-.28.56.06c.16.27.16.29-.06.56l-.22.29zm1.19-.01c-.27-.34-.26-.45.03-.73l.24-.22.22.3.21.31-.21.3c-.26.36-.24.36-.49.04Zm1.2 0c-.26-.33-.26-.46-.03-.67.25-.23.37-.21.56.08.31.47-.19 1.02-.53.59Zm1.2 0c-.26-.33-.26-.37.02-.69l.22-.26.24.25.23.25-.22.35c-.26.43-.23.42-.49.1Zm-7.24-.02c-.23-.25-.21-.55.04-.78.23-.21.59.06.59.46 0 .38-.4.58-.63.32Zm8.44-.07c-.22-.29-.18-.48.15-.75.39-.33.68.43.3.79l-.24.22zM9.8 24.3c0-.05.09-.15.2-.22.3-.19.25-.24-.24-.2-.62.05-1.03-.19-1.28-.75-.37-.85-.05-1.57 1.21-2.71l.81-.73.85.77c1.55 1.41 1.81 2.33.88 3.14-.33.3-.41.32-.9.28l-.53-.05.2.22c.3.32.26.35-.5.35-.4 0-.7-.04-.7-.1Zm-6.2-2.19V20h.7v1.91l.82-.95c.77-.9.86-.96 1.21-.96.49 0 .49-.01-.39.96l-.76.84.8 1.12c.75 1.06.79 1.13.59 1.2-.4.11-.44.08-.97-.69-.82-1.2-.78-1.17-1.06-.84-.18.21-.24.42-.26.92l-.03.64-.32.03-.33.03zm6.68 1.43c.18-.03.52-.01.76.06 1.02.28 1.81-.73 1.32-1.68-.16-.31-1.7-1.82-1.86-1.82s-1.6 1.41-1.76 1.72c-.27.52-.18 1.16.21 1.55.37.37.36.37 1.33.17Zm28.4-1.36c.07-.07.12-.44.12-.98 0-.77.02-.88.25-1.13l.26-.27h9.08l.2.26c.17.22.21.41.21 1.09 0 .58.04.86.14.94.21.18.26-.07.26-1.35 0-1.71.59-1.54-5.4-1.54-6.03 0-5.4-.2-5.4 1.75 0 1.32.04 1.47.28 1.23Zm-23.93-1.02c0-.76.03-.87.24-1.1l.24-.26h9.08l.24.25c.23.22.25.32.25 1.09 0 .75.02.87.2.96.26.14.31-2.31.06-2.66-.2-.27-10.02-.36-10.42-.09-.32.21-.39 2.94-.06 2.76.14-.08.17-.24.17-.95Zm12.05-.08c0-.7.03-.82.25-1.03l.24-.25h9.08l.24.26c.21.22.24.37.27 1.09.03.6.08.85.18.89.23.09.2-2.41-.03-2.66-.15-.17-.45-.18-5.2-.18-6.06 0-5.43-.2-5.43 1.72 0 1.3 0 1.31.2 1.13.17-.15.2-.31.2-.97Zm12.5.62c.04 0 .1.07.14.15.09.24.24.18.48-.2.28-.43.3-.43.54 0 .24.44.37.44.68-.01l.24-.36.24.36c.29.45.39.45.69.01.3-.43.31-.43.55 0 .23.44.38.44.66 0 .28-.43.3-.43.54 0 .23.44.38.44.66 0 .28-.43.28-.43.56 0 .28.44.36.44.64 0 .28-.43.3-.43.54 0 .23.44.32.44.7-.02l.3-.36.23.36c.26.43.33.45.54.15l.15-.23.1.25c.09.2.11.12.11-.48.01-1.22-.44-1.72-.88-.97-.11.19-.24.35-.28.35-.05 0-.17-.16-.27-.35-.11-.19-.25-.35-.32-.35s-.22.16-.34.35-.26.35-.31.35-.17-.16-.26-.35c-.21-.44-.37-.44-.65 0-.29.43-.34.43-.55 0-.09-.19-.23-.35-.3-.35-.08 0-.23.16-.34.35-.12.19-.24.35-.28.35-.05 0-.16-.16-.27-.35-.1-.19-.24-.35-.32-.35-.07 0-.22.16-.33.35-.12.19-.25.35-.3.35s-.17-.16-.26-.35-.22-.35-.29-.35-.22.16-.34.35-.26.35-.31.35-.17-.16-.26-.35c-.21-.44-.37-.44-.65 0-.27.41-.36.4-.57-.03-.35-.69-.91-.17-.91.84 0 .68.12 1.18.18.77.02-.13.07-.23.12-.23Zm-21.65-.04.29.37.33-.38c.18-.21.34-.36.36-.34s.14.19.26.37c.28.41.31.4.62-.08l.26-.4.27.4c.32.49.29.49.65-.01l.3-.4.23.4c.28.5.4.51.69.05l.22-.36.33.38.33.39.25-.3c.14-.16.25-.33.26-.37 0-.18.2-.06.37.22.2.34.37.38.52.13.1-.16.11-.16.17.05.11.39.24.04.24-.64 0-1.02-.51-1.47-.91-.79-.12.19-.24.35-.28.35-.03 0-.15-.16-.25-.35-.25-.45-.37-.44-.71.06l-.27.41-.25-.41c-.3-.5-.43-.51-.67-.06-.11.19-.22.35-.27.35-.04 0-.16-.16-.28-.35-.11-.19-.27-.35-.36-.35-.08 0-.23.16-.32.35s-.2.35-.24.35-.16-.16-.28-.35c-.11-.19-.26-.35-.33-.35-.08 0-.22.16-.32.35-.11.19-.23.35-.28.35-.04 0-.16-.16-.25-.35S18.09 20 18 20s-.25.16-.36.35c-.1.19-.22.35-.25.35-.04 0-.17-.16-.29-.35-.27-.44-.43-.44-.69.01-.23.39-.34.38-.56-.07-.37-.71-.85-.2-.85.91 0 .51.03.7.1.6.07-.12.12-.12.22-.02.19.19.33.14.6-.23l.25-.36.28.43.28.42.32-.38.31-.38zm13.16-.15c.1.13.19.27.19.32 0 .18.31.04.52-.23.27-.38.28-.38.57.07l.24.37.37-.42.37-.41.19.34c.23.43.43.44.69.05.25-.38.29-.38.55.04.24.4.36.39.69-.09l.23-.35.19.24c.11.13.19.29.19.35 0 .18.27.13.35-.06.06-.17.07-.17.16 0 .2.34.29.16.29-.56 0-1.13-.45-1.55-.89-.82-.11.19-.24.35-.29.35-.04 0-.16-.16-.25-.35s-.23-.35-.31-.35-.23.16-.35.35c-.11.19-.24.35-.29.35-.04 0-.16-.16-.25-.35s-.24-.35-.32-.35c-.09 0-.25.16-.36.35-.12.19-.24.35-.28.35-.03 0-.15-.16-.25-.35-.11-.19-.25-.35-.32-.35s-.22.16-.34.35-.25.35-.29.35c-.03 0-.15-.16-.25-.35-.11-.19-.25-.35-.32-.35s-.22.16-.34.35c-.27.44-.32.44-.56 0-.23-.44-.41-.42-.73.08l-.24.37-.24-.4c-.3-.49-.43-.5-.67-.05-.11.19-.23.35-.27.35s-.17-.16-.29-.35c-.43-.7-.9-.23-.9.89.01.61.02.69.14.53.12-.15.15-.15.26-.02.18.22.27.19.54-.21l.24-.36.24.36c.28.44.41.45.7.06.27-.38.28-.37.58.06l.24.36.34-.37.35-.38zm-14.3-.2-.22-.31.22-.31.22-.32.24.27c.28.33.28.34 0 .7l-.24.29zm1.2 0-.23-.32.23-.27c.13-.15.25-.29.26-.31.04-.07.42.43.43.56 0 .07-.1.24-.23.39l-.24.27zm1.22-.02-.22-.32.22-.28.21-.29.23.22c.29.27.29.4.01.72l-.23.26zm1.19 0-.23-.29.22-.31.22-.32.24.27c.28.33.28.35 0 .68l-.22.27zm1.19.02-.22-.3.22-.31.23-.3.23.22c.29.27.29.49-.01.77l-.24.22zm1.22.01-.21-.29.25-.32.25-.31.19.24c.24.3.24.45 0 .74-.24.28-.23.28-.48-.06Zm6.03-.03-.26-.31.22-.28.23-.28.23.21c.27.25.28.42.03.73l-.19.24zm3.62.06c-.23-.31-.23-.44.03-.71l.22-.23.18.23c.25.31.24.48-.03.73l-.23.21zm1.23-.01c-.26-.33-.26-.42 0-.74l.21-.25.19.24c.24.29.24.47 0 .77l-.19.24zm1.2 0c-.26-.33-.26-.46-.01-.69.41-.37.77.25.41.71l-.19.24zm4.76.09c-.22-.26-.22-.66.02-.87.39-.36.74.37.38.79-.22.26-.23.26-.4.08Zm1.21-.08c-.36-.49.03-1.08.45-.67.21.22.21.22.03.57-.23.41-.26.42-.48.1Zm1.19-.01c-.32-.43.06-1.03.43-.69.25.22.25.43.01.73-.23.27-.22.27-.44-.04Zm1.21.01c-.23-.3-.23-.37.04-.7l.21-.27.18.23c.23.3.23.48 0 .77-.23.27-.22.27-.43-.03Zm1.19-.01c-.32-.43.06-1.03.43-.69.25.22.25.43.01.73-.23.27-.22.27-.44-.04Zm1.17-.09c-.18-.35-.18-.35.04-.57l.23-.23.25.28.24.28-.22.29c-.28.38-.31.37-.54-.05Zm1.23.09c-.2-.27-.16-.53.11-.78.17-.15.2-.14.41.14l.22.31-.23.29c-.28.35-.29.35-.51.04Zm-31.31-.06c-.29-.41.04-1.07.38-.78.33.27.37.46.15.74-.25.32-.33.32-.53.04Zm8.5 0c-.21-.29-.2-.37.05-.64.28-.3.59-.17.59.25 0 .5-.4.74-.64.39Zm3.56.1c-.18-.18-.14-.63.06-.82.2-.17.33-.1.57.32.15.27-.42.71-.63.5Zm2.45-.06c-.22-.24-.21-.41.03-.71l.2-.23.2.23c.39.48-.03 1.16-.43.71Zm1.2 0c-.23-.25-.21-.45.07-.71l.23-.22.17.25c.21.33.2.49-.02.69-.23.21-.25.21-.45-.01Zm4.78-.08c-.18-.27-.01-.7.32-.81.24-.08.46.43.31.74-.18.37-.41.4-.63.07Zm11.99.01c-.15-.23-.15-.26.06-.55.38-.53.82 0 .5.61-.14.26-.36.24-.56-.06ZM2.6 15.33c-.39-.14-.4-.22-.4-4.98 0-4.57 0-4.62.21-4.81.32-.28 6.08-.29 6.36-.01.28.27.28 9.37 0 9.64-.18.18-5.74.33-6.17.16Zm6.85-.17-.25-.25.05-4.63c.05-3.92.08-4.65.21-4.78.12-.13.61-.15 3.15-.15h3.01l.19.24c.25.31.3 9.22.05 9.57-.14.18-.31.19-3.15.22l-3.01.03zm7.18.15c-.42-.19-.43-.32-.43-4.99 0-4.28.01-4.51.19-4.73l.19-.24h2.96c2.65 0 2.97.02 3.12.17.25.25.28 9.31.04 9.6-.17.21-5.63.38-6.07.19Zm6.97.02c-.52-.2-.5 0-.5-4.98 0-4.57 0-4.62.21-4.81.2-.18.4-.19 3.26-.19h3.05l.19.24c.3.36.3 9.16 0 9.52l-.19.24-2.94.02c-1.61.01-3-.01-3.08-.04Zm12.1-.06-.25-.13-.03-4.71c-.02-4.04 0-4.73.13-4.86.34-.34 5.97-.37 6.34-.03.27.25.34 9.25.07 9.62-.18.24-5.8.35-6.26.11Zm7.15.05c-.45-.09-.45-.11-.45-4.97 0-4.57 0-4.62.21-4.81.36-.32 5.98-.29 6.31.04l.23.23.03 4.53c.02 4.22.01 4.54-.15 4.74-.17.19-5.41.4-6.18.24Zm-34.31-.28c.24-.09.24-9.29 0-9.38-.09-.03-1.46-.06-3.05-.06H2.6l-.1.26c-.15.39-.13 8.97.02 9.12.13.13 5.7.18 6.02.06Zm7.12-.06c.11-.18.16-5.78.07-7.68l-.08-1.65h-6.1l-.03 4.6c-.01 2.53 0 4.66.03 4.73.06.17 6 .18 6.11 0Zm6.78.06c.1-.04.16-.17.15-.33l-.01-.26-.07.25-.07.25-2.83.03c-2.01.02-2.88-.01-2.97-.09-.14-.11-.2.02-.07.14.08.09 5.66.09 5.87.01Zm7.14-.06c.07-.07.12-.17.12-.23 0-.05-.05-.02-.11.08-.16.28-5.93.26-6.09-.02-.15-.3-.14-8.83.02-8.99.22-.22 5.94-.17 6.07.06.06.09.11.12.11.07.01-.32-.25-.35-3.22-.35-2.84 0-2.98.01-3.08.19-.14.27-.14 8.85 0 9.12.13.23 5.95.3 6.18.07Zm12.22-.07c.14-.27.14-8.85 0-9.12-.13-.24-5.92-.3-6.07-.06-.12.19-.13 9.1-.01 9.25.2.23 5.95.17 6.08-.07Zm6.94.13c.19-.07.25-8.89.06-9.25-.16-.3-5.94-.3-6.1 0-.06.13-.1 1.74-.1 4.56s.04 4.43.1 4.56c.11.19 5.57.31 6.04.13Zm-36.59-.59c-.21-.31-.73-.92-1.16-1.37-.95-.98-.95-.77-.03-1.79.42-.46.94-1.1 1.16-1.41.47-.7.38-.69.83-.06.21.28.77.93 1.26 1.43l.89.92-.72.74c-.4.41-.95 1.04-1.22 1.42-.6.81-.54.8-1.01.12Zm30.85.36c-.19-.37-.13-8.66.07-8.82.23-.2 5.36-.2 5.55-.01.17.17.14 8.68-.04 8.89-.2.24-5.44.18-5.58-.06Zm-37.89-.27c.24-.26.28-.33.12-.25-.53.27-1.22.14-1.68-.31-.96-.98-.62-2.06 1.16-3.69l.89-.81.88.83c1.12 1.08 1.48 1.53 1.63 2.11.33 1.23-.81 2.38-1.93 1.95-.36-.14-.37-.14-.28.03.05.1.16.2.25.24.38.14.1.26-.62.26h-.77zm32.78-.31c-1.44-1.29-1.88-1.96-1.89-2.83 0-1.35 1.44-2.11 2.39-1.25.3.28.4.32.45.2.31-.81 1.99-.67 2.4.19.47.99.08 1.96-1.34 3.36-1.2 1.19-1.07 1.17-2.01.33Zm-8.71.51.22-.06V5.9h-2.79c-1.54 0-2.82.04-2.85.08-.14.23-.1 8.63.04 8.72.16.11 5.01.13 5.38.04ZM22.3 10.3V5.9h-5.5v8.8h5.5zm-9.36 3.89c.15-.22.61-.76 1.03-1.2l.75-.79-.83-.92c-.46-.51-.96-1.08-1.1-1.26l-.26-.33-.26.4c-.15.23-.62.8-1.03 1.26l-.76.86.75.78c.42.44.88.98 1.03 1.2.33.51.35.51.68 0Zm26.88-.57c1.04-1.07 1.25-1.39 1.34-2.05.19-1.38-1.46-2.15-2.16-1.01l-.21.33-.37-.38c-1.24-1.31-2.83.31-1.89 1.92.28.47 2.01 2.17 2.22 2.17.06 0 .55-.44 1.07-.98Zm-34.76.43c.25-.19.83-.19 1.08 0 .69.52 1.76-.19 1.76-1.17 0-.72-.3-1.18-1.45-2.26l-.89-.83-.93.93c-1.01 1.01-1.33 1.52-1.33 2.15 0 .95 1.09 1.68 1.76 1.18Zm17.42-8.37c-.26-.16-5.91-.05-5.96.12-.04.12-.03.13.1.02.12-.09.82-.12 2.99-.1l2.84.03.05 4.25.05 4.25.03-4.24c.02-3.33 0-4.26-.1-4.33Zm-4.61 6.85c-.15-.14.51-2.05 1.38-4 .15-.35.44-.43.64-.2.18.23 1.62 4.01 1.56 4.14-.13.34-.47.12-.73-.47l-.27-.6h-1.64l-.27.6c-.25.56-.47.74-.67.53Zm6.88-.05c-.03-.08.3-1.06.73-2.19 1.09-2.81 1.06-2.81 2.14.01.8 2.08.85 2.3.48 2.3-.16 0-.27-.14-.46-.54-.26-.57-.43-.66-1.18-.66-.58 0-.72.1-.97.63-.24.53-.63.76-.74.45Zm-6.09-1.26c.05-.05.52-.06 1.05-.04l.97.04.17.46c.1.26.22.52.27.57.11.11-.08-.39-.85-2.34-.59-1.48-.69-1.6-.88-1.04-.06.21-.38 1.03-.71 1.82-.56 1.39-.81 2.22-.34 1.13.12-.29.26-.56.32-.6Zm6.7.48.18-.5h2.03l.18.48c.1.26.22.52.28.57.07.07.08.05.04-.05-.37-1-1.41-3.66-1.44-3.69-.09-.12-.27.27-.82 1.69-.32.85-.64 1.68-.7 1.83-.06.16-.07.26-.02.23s.17-.28.27-.56Zm-6.23-.67-.42-.04.13-.37c.33-.92.79-1.93.86-1.85.15.18.82 2.12.75 2.22-.06.11-.44.12-1.32.04Zm6.57-.05c0-.23.76-2.19.85-2.21.07-.01.94 2.11.95 2.31 0 .01-.41.02-.9.02-.65 0-.9-.03-.9-.12Zm-5.6-.36c0-.05-.11-.35-.24-.67l-.24-.58-.2.45c-.39.9-.4.88.17.88.28 0 .51-.04.51-.08Zm6.74-.54c-.13-.33-.25-.63-.27-.65-.04-.03-.47 1.08-.47 1.21 0 .03.22.06.49.06h.5zM6.75 8.61c-.03-.06.03-.14.12-.2.15-.08.11-.1-.19-.11-1.02-.01-1.08-.92-.13-1.89l.65-.66.65.66c.68.7.82 1.09.55 1.59-.12.22-.64.42-.88.33-.14-.06-.15-.04-.05.09.07.08.1.18.06.21-.1.1-.71.08-.78-.02Zm4.87-.31c-.12-.21-.25-.3-.42-.3-.14 0-.35-.03-.48-.06-.18-.05-.24-.01-.33.25-.11.3-.69.48-.69.22 0-.24 1.04-2.53 1.17-2.58.36-.14 1.56 2.49 1.23 2.67-.27.14-.29.13-.48-.2Zm1.89-.39-.62-.7.62-.77.63-.77.25.31c.14.17.43.51.64.76l.38.45-.52.58c-.28.32-.57.64-.64.71-.1.11-.24 0-.74-.57Zm22.43.59c-.08-.08.04-.47.4-1.35.71-1.76.83-1.76 1.5-.05.49 1.28.51 1.36.36 1.45-.18.11-.48-.05-.54-.3-.1-.39-.99-.37-1.18.02-.14.3-.37.4-.54.23ZM2.71 8.43C2.75 7.94 3.79 5.95 4 5.95c.22 0 1.26 2 1.29 2.48.02.21-.6.06-.69-.18C4.52 8.03 4.45 8 4 8s-.52.03-.6.25c-.09.24-.71.39-.69.18Zm36.92-.45c-.57-.6-.73-.86-.73-1.21 0-.55.73-1.02 1.2-.77.15.08.29.08.54-.01 1.19-.43 1.47.92.4 1.98-.65.66-.77.66-1.41.01Zm1.87-1.14c0-.55-.61-.84-1-.49-.15.14-.18.14-.3 0-.2-.24-.77-.19-.95.09-.24.36-.1.71.53 1.34l.55.55.59-.61c.42-.44.58-.68.58-.88Zm-26.91.89.41-.48-.81-.03c-1-.04-1-.03-.53.52.48.56.44.56.93-.01Zm-7.39.25c.08 0 .28.04.43.08.88.21.86-.8-.03-1.6l-.42-.38-.4.39c-.87.84-.89 1.77-.04 1.57.17-.04.38-.07.46-.06Zm7.3-1.48c-.35-.45-.42-.44-.81.12l-.2.28h1.33z"/></svg>