<svg xmlns="http://www.w3.org/2000/svg" width="51" height="51" viewBox="0 0 51 51"><path fill="#fff" fill-rule="evenodd" stroke="#fff" stroke-width=".297" d="m42.49 45.51-.29-.29V32.26c0-13.47-.01-13.28.42-13.55.19-.12 2.97-.17 6.06-.11.13 0 .34.11.47.25l.25.24v13c0 9.32-.03 13.07-.11 13.24-.2.44-.43.47-3.55.47h-2.96zm6.48-.14c.24-.23.31-9.09.08-9.63-.17-.41-.83-.47-3.98-.38-3.02.09-2.67-.58-2.67 5.13 0 4.95-.01 4.83.55 5.01.59.19 5.82.07 6.02-.13Zm-4.11-1.42c-1.41-1.81-1.51-1.98-1.51-2.71 0-1.19 1.32-1.77 2.23-.99l.27.23.28-.24c.27-.23.56-.29 1.22-.24 1.13.08 1.47 1.26.69 2.41-.56.84-2.07 2.69-2.18 2.69-.06-.01-.51-.52-1-1.15Zm1.98-.39c1.39-1.76 1.65-2.48 1.12-3.01-.48-.48-1.5-.4-1.83.13-.09.15-.18.29-.2.31s-.18-.13-.37-.35c-1-1.16-2.56.08-1.77 1.41.27.46 2.01 2.65 2.09 2.65.04-.01.47-.52.96-1.14Zm-11.91-1.04c-.21-.02-.41-.14-.58-.33l-.25-.31V19.2l.29-.32.29-.33h6.14l.29.33.29.33-.02 11.39-.03 11.4-.25.24-.25.25-2.8.03c-1.54.02-2.94.02-3.12 0Zm5.97-.42c.28-.28.32-9.57.04-9.84-.24-.25-6.09-.24-6.36.01-.17.15-.18.44-.18 4.94v4.78l.22.15c.39.27 6.01.23 6.28-.04Zm-3.9-.24c0-.02.09-.23.2-.47s.2-.54.2-.66v-.23l-.32.2c-1.07.65-2.31-.58-1.73-1.7.17-.33.61-.6.98-.6.22 0 .23-.03.19-.57-.05-.7.18-1.06.78-1.24 1.11-.33 2.1.67 1.6 1.62-.1.17-.07.19.2.19.94 0 1.48.94 1.02 1.79-.37.68-1.13.86-1.74.41l-.28-.21v.23c0 .13.09.43.2.67.28.61.28.61-.55.61-.41 0-.75-.02-.75-.04Zm1.05-.43c-.13-.34-.27-1.33-.21-1.49.05-.13.15-.09.51.25.6.56 1.18.52 1.5-.08.41-.79 0-1.44-.88-1.4-.57.03-.59.01-.33-.55.35-.78-.14-1.42-1.02-1.33-.8.08-1.13.74-.73 1.42.29.5.28.52-.33.47-.71-.06-1.06.24-1.06.88 0 .94.99 1.33 1.67.65.19-.19.39-.35.44-.35.14 0 .1.9-.05 1.33l-.14.37h.35c.29 0 .34-.03.28-.17ZM26.54 39.1c-.57-.23-.54.31-.54-10.26v-9.71l.24-.26c.34-.36.58-.39 3.69-.35l2.79.03.3.34.31.35-.07 9.7-.06 9.71-.3.28-.3.27-2.93-.01c-1.6 0-3.02-.04-3.13-.09Zm6.3-.42c.28-.4.23-9.48-.05-9.73-.19-.18-.42-.19-3.2-.2h-3.01l-.19.24c-.3.37-.3 9.4.01 9.71.33.33 6.21.31 6.44-.02Zm10.36-.17c-.39-.39-.39-2.21 0-2.53.56-.46 1.45-.1 1.43.58-.01.49-.01.89 0 1.38.02.78-.87 1.14-1.43.57Zm-13.89-.37c-.27-.65-1.14-1.63-1.78-2-.55-.33-.54-.36.11-.79.71-.47 1.3-1.12 1.63-1.8.33-.67.35-.67.63-.09.29.59 1.16 1.53 1.8 1.94.61.39.61.42.07.74-.63.36-1.49 1.34-1.78 1.99-.3.71-.4.71-.68.01Zm17.68-.09c-.84-1.04-.94-1.4-.54-1.8.27-.28.62-.32.9-.11.17.12.22.12.39 0 .44-.31 1.06.01 1.06.54 0 .44-.97 1.91-1.26 1.92-.06 0-.31-.25-.55-.55Zm-2.7.13c.14-.24.14-.3-.02-.64-.13-.26-.15-.4-.08-.47.21-.21.13-.75-.13-.92-.53-.35-1.04.23-.73.83.12.24.12.32 0 .47-.17.25-.17.55.03.83.22.32.73.27.93-.1Zm-.85-.03c-.36-.55.33-1.06.7-.53.2.29.2.34-.04.58-.27.27-.46.25-.66-.05ZM30.7 36.69c.36-.37.74-.71.85-.78.19-.11.19-.12-.1-.33-.64-.48-1.29-1.15-1.54-1.6l-.27-.47-.19.32c-.34.6-.76 1.06-1.36 1.51l-.6.45.38.24c.53.34 1.28 1.17 1.54 1.71l.22.44.21-.41c.11-.23.5-.72.86-1.08Zm17.3 1c.73-.92.52-1.92-.24-1.16l-.24.25-.21-.24c-.36-.42-.9-.21-.77.29.06.25.86 1.36.98 1.37.04 0 .26-.23.48-.51Zm-4.42-.7c-.4-.23-.11-.96.32-.81.32.11.4.51.14.76-.18.19-.23.19-.46.05ZM20.53 35.9c-2.04-.05-2.13-.06-2.35-.28l-.23-.23-.03-8.13c-.03-9.11-.08-8.48.69-8.65.28-.06 4.21-.07 5.9-.02.09.01.28.13.43.27l.26.27v16.16l-.22.26c-.28.32-.81.45-1.68.43-.36-.01-1.61-.05-2.77-.08Zm4.15-.36c.12-.08.21-.25.21-.37-.01-.2-.02-.2-.06-.02-.1.43-.22.45-3.27.45-3.61 0-3.26.21-3.26-1.98v-1.64l.22.05c.48.13 1.25-.21 1.41-.61.27-.71.41-1.6.28-1.88-.15-.33-.14-.34.09-.34.1 0 .24-.09.3-.2.12-.23 1.17-.26 1.12-.02-.01.06.02.12.08.12.05 0 .1-.07.1-.15 0-.24.91-.2 1.13.05.09.11.24.2.32.2.19 0 .19.15-.01.46-.13.18-.15.38-.11.79.03.3.01.57-.04.6-.36.23.05 1.15.52 1.15.37 0 .8-1.26.49-1.45-.05-.03-.08-.25-.08-.5.01-.44.02-.45.35-.45h.33v2.27c0 1.24.02 2.24.04 2.22.18-.19.16-8.46-.02-8.62-.18-.17-.47-.18-3.27-.2l-3.07-.02-.2.25c-.21.25-.21.3-.14 4.95l.06 4.7.23.17c.32.25 5.9.27 6.25.02Zm10.54-.37c-.31-.32-.33-2.14-.04-2.4.68-.61 1.42-.08 1.42 1.02 0 1.45-.68 2.13-1.38 1.38Zm3.78.17c0-.03.05-.14.1-.25.1-.17.07-.19-.24-.19-.4 0-.66-.28-.66-.71 0-.26.27-.59.48-.59.07 0 .12-.12.12-.27 0-.34.08-.46.37-.62.45-.23 1.03.14 1.03.66 0 .13.06.23.14.23.18 0 .46.38.46.62 0 .28-.43.71-.73.71-.23 0-.26.03-.21.23.06.23.04.24-.4.24-.25 0-.46-.03-.46-.06Zm3.83-2.79c.21-.15 5.37-.27 5.77-.13.37.14.4.23.4 1.6 0 .9.03 1.28.12 1.28.11 0 .04-3.07-.08-3.19-.03-.03-1.49-.06-3.25-.06H42.6v-1.32c0-1.88-.28-1.73 3.23-1.73 3.48 0 3.19-.16 3.18 1.69-.01.83.02 1.31.09 1.31.22 0 .13-3.08-.1-3.2-.14-.07-1.23-.1-3.3-.08l-3.1.03v-1.32c0-1.88-.28-1.73 3.23-1.73 3.52 0 3.23-.15 3.2 1.59-.01.77.02 1.31.08 1.31.18 0 .11-2.86-.07-3.05-.14-.14-.52-.15-3.3-.13l-3.14.03v-1.36c0-1.89-.28-1.73 3.22-1.75 3.47-.02 3.18-.18 3.18 1.71 0 .83.04 1.35.1 1.35.17 0 .13-2.92-.04-3.16-.14-.18-.29-.19-3.21-.19h-3.07l-.19.23c-.2.25-.27 2.82-.09 3.12.04.07.04.23-.02.35-.06.14-.07.74-.01 1.69.04.81.05 1.5.02 1.54s-.03 1.51 0 3.27c.05 2.57.07 2.93.11 1.82.04-1.18.08-1.41.23-1.52Zm-22.78 2.51c-.09-.13-.38-.43-.66-.66s-.54-.52-.59-.64c-.07-.17-.09-.12-.09.21-.01.34.03.45.22.54.12.07.42.27.66.46.52.39.68.42.46.09Zm4.45.15c0-.16-.53-.55-1.23-.91-.75-.38-.75-.39-.47-1.1.33-.84.17-.86-.25-.04-.33.66-.37.6.95 1.53.86.61 1 .68 1 .52Zm-1.25-.1c-.06-.04-.29-.25-.52-.46l-.43-.37v.92h.52c.3 0 .48-.04.43-.09Zm20.74-.31c1.14-.92 2.66-.91 3.77.03.32.27 1.04.39 1.04.17 0-.05-.09-.1-.2-.1s-.43-.18-.71-.39c-1.27-.96-2.7-.94-4.1.06-.26.18-.56.33-.68.33-.11 0-.21.05-.21.1 0 .23.72.1 1.09-.2Zm-24.08-1.46c-.53-1.09-.62-1.16-1.13-.87-.21.12 0 .96.26 1.06.13.05.13.01-.02-.29-.16-.34-.16-.36.03-.5.24-.17.28-.13.55.56.32.83.73 1.49.78 1.26.02-.1-.19-.65-.47-1.22Zm1.33.44c.12-.07.24-.05.42.06.21.14.24.14.24.02 0-.36-.64-.46-1.03-.16-.23.19-.24.23-.14.57l.12.37.1-.38c.06-.21.19-.42.29-.48Zm18.04.66c.21-.15.25-.15.41 0 .28.25.69.21.77-.08.08-.34-.02-.46-.37-.46-.29 0-.29-.01-.23-.4.06-.36.04-.4-.19-.51-.39-.18-.61.04-.53.52.06.37.05.38-.26.41-.33.03-.46.23-.34.54.07.19.46.18.74-.02Zm9.27-.84c-.78-.81-2.99-1.13-4.25-.61-.72.29-1.4.73-1.4.89 0 .2.29.14.73-.17 1.39-.94 3.5-.86 4.87.21.35.28.39.03.05-.32Zm-26.4-.6c.24-.47.21-.5-.6-.5-.72 0-.75.01-.9.3-.21.4-.22.39.47.43.35.02.69.04.75.05.07.01.19-.11.28-.28Zm-12.06-.58-.31-.28-.06-6.34c-.05-6.86-.06-6.81.46-7.09.15-.08 4.79-.17 6.05-.12.17.01.4.13.58.3l.29.29v12.9l-.29.31-.29.31H10.4zm6.45-.13c.14-.11.26-.24.26-.29s-.11.02-.25.15l-.24.25H13.4c-3.61 0-3.3.17-3.3-1.8 0-.96.04-1.4.11-1.4.06 0 .08-.07.05-.16-.06-.15.38-1.14.52-1.14.13 0 .54.72.59 1.07.11.69.65.44.8-.38.06-.37.25-1.02.42-1.45.16-.44.33-.91.37-1.07l.06-.27 1.76.02 1.75.03.12.48c.22.85.25.64.25-1.52 0-1.99-.01-2.15-.21-2.42l-.2-.29h-3.06c-2.71 0-3.09.02-3.25.17-.17.15-.18.44-.18 4.95v4.79l.25.24.24.25h2.89c2.78 0 2.9-.01 3.16-.21Zm14.55-.55a2.05 2.05 0 0 0-.6-.73c-.49-.33-.49-.33.13-.94.29-.29.58-.61.64-.71.1-.18.13-.16.41.25.17.25.51.58.74.74.4.26.42.29.25.39-.43.25-.84.67-1.01 1.06-.23.51-.28.5-.56-.06Zm-20.24-.54c.1-.12.4-.37.67-.57.3-.24.44-.41.38-.47-.26-.26-1.3.92-1.36 1.56l-.03.43.08-.37c.04-.21.16-.47.26-.58Zm23.94-2.01c.32-.26 5.62-.29 5.96-.03.18.13.21.3.26 1.57l.05 1.42.02-1.61c.02-1.28-.01-1.64-.12-1.73-.1-.09-1.01-.11-3.3-.09l-3.16.03v-1.28c0-1.22.01-1.29.25-1.52l.24-.25h2.79c3.46 0 3.15-.16 3.23 1.67l.05 1.38.02-1.57c.02-1.46.01-1.58-.17-1.68-.39-.2-6.15-.13-6.34.08-.15.16-.16.54-.15 3.38.01 2.26.04 2.79.08 1.81.05-1.31.06-1.4.29-1.58Zm-19.5 2.29c.06-.28.21-.72.32-.97l.2-.45-.27.24c-.34.32-.63.95-.64 1.38 0 .53.27.4.39-.2Zm11.41-.83V29.3h.35c.36 0 .36 0 .3.38-.05.33-.04.34.05.12.4-.92 1.57-.82 1.76.15.22 1.19-.15 2.05-.88 2.05-.57 0-.84-.32-.93-1.06-.11-.98-.14-.95-.08.09l.05.97h-.62zm9.15.8c1.41-.91 2.71-.89 3.78.04.4.35 1.07.52 1.07.27 0-.09-.08-.16-.19-.16-.1 0-.4-.17-.66-.39-1.21-1-3-.96-4.3.08-.23.19-.47.3-.57.28-.18-.05-.25.13-.11.26.12.13.29.07.98-.38Zm8.09 0c1.36-.94 2.48-.94 3.76 0 .46.34 1.1.48 1.1.25 0-.06-.09-.1-.2-.1-.1 0-.35-.14-.54-.3-.18-.17-.59-.42-.91-.56-1.11-.51-2.56-.28-3.51.56-.19.16-.44.3-.54.3-.11 0-.2.07-.2.15 0 .27.36.16 1.04-.3Zm-27.04-1.5V28.1h-.36c-.39 0-.38.15.02.3.23.09.24.12.24 1.25v1.16l-.26-.2c-.15-.12-.32-.21-.39-.21-.17 0-.26.38-.11.44.06.02.03.05-.06.05-.1.01-.18.08-.18.17 0 .13.05.12.27-.05.36-.29.67-.1.71.43.07.83.12.24.12-1.49Zm5.8 1.66c0-.13-.09-.2-.31-.23-.46-.07-.79.01-.72.18.03.09-.01.14-.12.14s-.15-.05-.11-.15c.09-.25-.96-.21-1.19.05-.18.2-.17.2 1.13.2 1.23 0 1.32-.01 1.32-.19Zm9.11-1.41-.44-.45-.43.43-.43.43.4.4c.21.21.39.44.39.49 0 .06.21-.11.48-.37l.47-.48zm-3.33.36c.03-.83-.04-.98-.39-.89-.49.13-.35 1.78.14 1.71.2-.03.22-.1.25-.82Zm11.94-.37c-1.22-1.09-4.84-.95-5.56.23-.19.31.03.31.51 0 1.58-1 4.22-.87 5.16.26.1.13.12.13.16-.03.02-.12-.09-.3-.27-.46Zm3.07.21c1.38-.94 4.08-.86 4.9.13.15.19.41.23.41.06 0-.8-2.68-1.47-4.16-1.04-.85.24-1.74.74-1.74.96 0 .25.07.24.59-.11Zm-20.64-.3c.04-.06-.35-.1-1.09-.1-.71 0-1.16.04-1.16.1s.43.1 1.09.1c.63 0 1.12-.04 1.16-.1ZM1.99 28.91l-.24-.19v-9.64l.28-.24.28-.24h6.01l.29.3.3.3-.03 4.71-.03 4.71-.28.24-.28.24H5.26c-2.84 0-3.05-.01-3.27-.19Zm6.25-.11c.14-.05.26-.15.26-.21 0-.08-.04-.08-.12-.01-.17.14-6.04.2-6.17.07-.06-.06-.12-.32-.14-.6l-.03-.5-.02.52c-.03.84-.06.83 3.2.83 1.55 0 2.88-.04 3.02-.1Zm10.89-.1c-.54-.22-.8-1.13-.31-1.08.25.02.34.08.36.26.02.12.1.22.18.22.11 0 .14-.21.14-1.05V26h.3c.38 0 .44.21.38 1.41q-.075 1.68-1.05 1.29Zm3.87-.03c0-.09.06-.19.12-.24.08-.05-.04-.1-.32-.13-.9-.1-.92-.63-.05-1.75.61-.79.5-.8 1.23.11.92 1.13.91 1.63-.02 1.65-.23.01-.33.03-.23.06.25.07.21.33-.05.33-.13 0-.33.03-.45.06-.17.05-.23.02-.23-.09Zm3.4-1.25c0-1.83-.21-1.72 3.28-1.72 3.42 0 3.15-.15 3.23 1.77l.05 1.38.02-1.56c.03-2 .16-1.86-1.93-1.89-3.63-.05-4.43-.02-4.65.2s-.32 3.29-.1 3.15c.06-.04.1-.59.1-1.33ZM15.05 28.5c-.39-.07-.39-.07-.07-.09.5-.02.27-.4-.26-.42-.3-.02-.32-.03-.1-.06.32-.05.32-.04.16-.38-.18-.39-1.58-.35-1.68.06-.05.18-.04.26.06.26.08 0 .14-.09.14-.19 0-.14.08-.18.35-.18.3 0 .35.03.35.24 0 .13.06.27.12.29.07.03-.2.06-.59.06-.81.01-1.12.29-.35.33l.37.01-.45.07c-.29.04.05.07.95.07.87 0 1.25-.03 1-.07Zm12.51-.31c1.41-.97 2.76-.95 4.1.07.31.24.94.33.94.14 0-.06-.08-.1-.19-.1-.1 0-.36-.14-.57-.31-1.39-1.12-3.15-1.12-4.5 0-.22.18-.43.27-.55.24-.13-.04-.19 0-.19.11 0 .26.47.19.96-.15Zm8.24-.04c1.32-.97 2.54-.95 3.96.07.28.2.51.28.69.26.37-.04.46-.28.11-.28-.14 0-.47-.15-.73-.34-1.36-.97-2.87-.96-4.21.05-.29.22-.6.38-.68.35s-.14.01-.14.09c0 .27.5.16 1-.2Zm8.24-.09c1.3-.89 2.53-.82 3.79.21.34.27.97.32.97.07 0-.1-.06-.13-.18-.1-.12.04-.33-.05-.58-.25-1.33-1.08-2.97-1.11-4.31-.09-.31.23-.59.37-.68.34-.1-.04-.15 0-.15.1 0 .29.48.17 1.14-.28Zm-41.07-.83c-.02-1.23.11-1.72.48-1.86.08-.04.15-.13.15-.21 0-.19.33-.38.53-.3.15.05.27-.32.27-.82v-.24h2.67l.15.59.14.6-.27.2c-.3.22-1.14 1.81-1.07 2.02.02.06.23-.28.47-.77.89-1.86 1.68-1.77 1.83.2.02.22.09.41.15.44.12.03.23-5.44.16-7.47-.03-.77.03-.76-3.11-.79-1.52-.02-2.87 0-2.99.03-.54.13-.53.04-.53 4.36v4l.31.27c.18.14.38.41.45.59.21.5.23.43.21-.84Zm21.31.75c.21-.21.13-.42-.42-1.05l-.53-.61-.47.56c-.54.64-.6 1.04-.16 1.11.18.02.32-.06.52-.3.16-.18.28-.28.28-.23 0 .34.58.72.78.52Zm-8.78-.71c0-.24-.58-1.05-.8-1.12-.37-.12-.34.02.16.64.5.61.64.71.64.48Zm11.8-.24c1.34-.89 3.62-.82 4.87.17.31.24.43.25.43.05 0-.24-.73-.7-1.5-.95-1.5-.48-4.32.1-4.48.92-.04.22.16.16.68-.19Zm13.38.15c-.02-.17-.23-.33-.83-.63l-.79-.4H37.8c-1.48.01-3 .52-3 1.03 0 .18.07.16.98-.3 1.41-.72 3.27-.62 4.4.23.46.34.54.35.5.07Zm8.12.08c0-.8-2.6-1.43-4.2-1.02-.73.19-1.7.71-1.7.92 0 .2.06.19.98-.28 1.42-.72 3.15-.63 4.36.22.47.33.56.36.56.16ZM12.1 25.5c-.08-.05-.32-.12-.52-.15-1.04-.16-1.5-1.72-.73-2.45.97-.92 2.51.33 2.03 1.66-.1.29-.11.45-.04.57.19.3-.38.58-.74.37Zm12.73-3.15c-.13-.17-.31-.25-.68-.3-.67-.08-5.56-.02-5.75.08-.28.14-.15-2.79.13-2.97.32-.21 5.72-.21 6.05 0 .21.14.22.2.22 1.54 0 .82.04 1.41.1 1.45.26.16.12-2.84-.15-3.1l-.24-.25h-6l-.2.26c-.23.29-.33 6.34-.11 6.34.06 0 .1-.53.1-1.34 0-1.87-.27-1.73 3.3-1.7 3.49.03 3.2-.13 3.2 1.69 0 1.81.14 1.81.18.01.02-1.27 0-1.5-.15-1.71Zm8.12.08c-.09-.38-.52-.43-3.51-.43h-2.83l-.2.26c-.23.3-.33 3.14-.11 3.14.06 0 .1-.51.1-1.33 0-1.88-.32-1.71 3.15-1.72 3.64 0 3.34-.16 3.37 1.78l.02 1.42.04-1.45c.01-.8 0-1.55-.03-1.67Zm1.78.1c.16-.16.45-.18 3-.21l2.83-.03.22.24c.19.2.22.35.24 1.57.02.74.04-.06.06-1.79.01-2.8 0-3.17-.15-3.33-.28-.31-6.15-.27-6.37.04-.14.19-.16.67-.14 3.38.01 2.34.03 2.79.07 1.73.05-1.18.09-1.45.24-1.6Zm-19.82 2.49c-.12-.24-.39-.55-.61-.7-.49-.34-.49-.43 0-.76.22-.14.5-.41.62-.6l.22-.34.51.52c.27.29.61.59.75.68l.24.15-.41.26c-.23.15-.5.38-.6.52-.53.76-.48.74-.72.27Zm-2.42.01c0-.16.03-.54.07-.85.15-1.27-1.46-1.67-1.71-.43-.05.21-.04.26.03.16.08-.11.11-.1.16.06.1.31.47.62.39.34-.07-.28 0-.26.36.1.37.37.38.42.09.58-.2.1-.2.1-.02.06.11-.03.29.02.4.1.1.08.2.15.21.15s.02-.12.02-.27Zm6.95-.17c1.26-.96 2.66-.97 4.1-.01.56.37 1.06.46 1.06.2q0-.15-.3-.15c-.18 0-.33-.06-.36-.15-.09-.21-.81-.61-1.49-.8-1.04-.31-2.39-.01-3.23.7-.21.17-.4.25-.52.22-.15-.04-.2 0-.2.14 0 .3.44.23.94-.15Zm7.98.1c1.66-1.12 2.97-1.12 4.31 0 .32.27.87.33.87.09 0-.08-.06-.12-.13-.09-.07.02-.34-.12-.6-.31-1.43-1.09-3.26-1.1-4.53-.02-.18.15-.41.27-.53.27-.21 0-.27.1-.14.23.12.13.4.07.75-.17Zm8.37-.16c1.26-.95 2.69-.92 3.95.09.26.21.49.31.65.29.31-.04.41-.28.11-.28-.12 0-.39-.13-.59-.29-1.31-1.03-3.12-1.05-4.3-.05-.21.19-.49.34-.6.34-.12 0-.21.06-.21.15 0 .27.44.16.99-.25Zm7.91.11c1.24-1.01 2.53-1.08 3.82-.21.57.38.79.47 1.01.43.35-.07.35-.23-.01-.23-.18 0-.38-.1-.53-.26-.99-1.07-3.12-1.1-4.31-.05-.2.17-.45.31-.57.31s-.21.06-.21.15c0 .25.43.17.8-.14Zm-28.09-.54.45-.43-.43-.38-.43-.37-.44.36-.43.37.41.43c.22.24.41.44.42.44 0 .01.21-.18.45-.42Zm8.81-.7c-.47-.52-1.8-.97-2.89-.97-1.17 0-3.03.71-3.03 1.16 0 .2.04.19 1.09-.33 1.58-.79 3.32-.64 4.66.4.27.21.4-.01.17-.26Zm8.18.23c0-.49-1.72-1.2-2.89-1.2-1.1 0-2.43.44-2.92.96-.34.36-.04.39.51.05 1.52-.94 3.2-.92 4.7.03.65.42.6.41.6.16Zm7.79-.42c-.86-.72-2.67-.99-3.96-.6-.78.24-1.63.74-1.63.97 0 .21.1.19.63-.15 1.51-.96 3.42-.92 4.81.1.54.41.68.12.15-.32Zm8.41.42c0-.51-1.72-1.2-2.96-1.2-1.12 0-2.94.72-2.94 1.16 0 .21.17.17.64-.15 1.42-.98 3.56-.89 4.93.19.32.25.33.25.33 0Zm-44.79-.77c-.17-.31-.3-.57-.28-.59.06-.06 4.07-.08 4.07-.02 0 .04-.16.32-.35.63l-.36.55H4.32zm.85-.23c.17 0 .24.05.24.2 0 .11.06.2.14.2.07 0 .16-.09.19-.2.06-.24.57-.29.57-.05 0 .08.07.15.15.15s.15-.06.15-.14c0-.14.21-.26.46-.26.08 0 .14.07.14.15 0 .21.13.19.35-.05.18-.2.17-.2-1.49-.2-1.76 0-1.75 0-1.37.44.16.18.16.18.19-.03.02-.15.11-.21.28-.21Zm1.78-.81c-.03-.05 0-.16.06-.24.1-.13.08-.15-.18-.15-.78 0-.85-.75-.13-1.54.27-.29.54-.62.6-.72.09-.14.14-.15.18-.06.02.07.29.41.58.75.8.95.75 1.65-.12 1.55-.27-.03-.32-.01-.28.11.04.09.07.2.08.26.03.13-.71.17-.79.04Zm10.21-2.66c-.11-.62-.18-.63-3.44-.63-3.72 0-3.42-.17-3.39 1.89l.02 1.46.05-1.37c.08-1.89-.24-1.73 3.33-1.74 3.59-.01 3.28-.17 3.28 1.69 0 .74.03 1.37.08 1.41.09.09.15-2.26.07-2.71Zm17.65 1.41c0-1.3.01-1.36.25-1.59l.24-.25h2.81c3.49 0 3.2-.16 3.2 1.79v1.4l-.32-.1c-.18-.05-1.5-.09-2.93-.09s-2.75.04-2.93.09l-.32.1zm-8.1-.15c0-1.82-.29-1.67 3.24-1.67 3.52.01 3.19-.16 3.27 1.7l.05 1.43.02-1.49c.03-2.05.38-1.86-3.33-1.86-3.72 0-3.39-.18-3.43 1.87-.03 1.02 0 1.43.07 1.38.07-.04.11-.54.11-1.36Zm16.43-1.46c.16-.16.44-.18 3.02-.19 3.49-.01 3.2-.16 3.2 1.66 0 .71.03 1.32.07 1.36.21.2.08-2.73-.13-3l-.2-.26h-2.93c-3.7 0-3.37-.18-3.34 1.83l.02 1.52.05-1.37c.05-1.13.09-1.4.24-1.55ZM2.37 21.94c-.09-.09-.09-2.26-.01-2.48.14-.37.74-.2.74.22l.01.37.33-.37c.27-.31.4-.38.7-.38.44 0 .45.04.01.59-.43.53-.43.42.05 1.25.49.83.49.86.05.86-.31 0-.39-.06-.67-.5-.41-.62-.46-.62-.5-.02-.03.46-.44.73-.71.46Zm8.87-.29c1.32-1.01 3-1 4.34.01.21.16.42.24.6.22.32-.04.32-.22 0-.26-.13-.02-.34-.14-.48-.27-1.1-1.04-3.53-1.04-4.51.01-.13.14-.34.24-.51.24-.18 0-.28.05-.28.15 0 .24.47.18.84-.1Zm16.61-.25c1.26-.8 2.41-.79 3.65.05.5.33 1.1.47 1.1.25 0-.06-.09-.1-.19-.1-.11 0-.33-.11-.49-.25-1.24-1.04-3.11-1.08-4.41-.09-.24.19-.53.34-.63.34-.18 0-.24.11-.11.23.1.11.43-.02 1.08-.43Zm8.01.06c1.39-.89 2.69-.86 3.82.09.3.25 1.02.36 1.02.15 0-.06-.09-.1-.2-.1s-.41-.16-.66-.35c-1.34-1.03-3.5-.93-4.43.19-.07.09-.24.16-.37.16-.15 0-.24.06-.24.15 0 .26.34.17 1.06-.29Zm8.01.05c1.44-.94 2.76-.93 3.91.04.3.25 1.02.36 1.02.15 0-.06-.11-.1-.25-.1-.13 0-.4-.14-.59-.3-1.16-1.02-3.38-.99-4.37.06-.12.13-.33.24-.46.24-.14 0-.23.06-.23.15 0 .25.33.17.97-.24Zm-40.06-.46-.41-.66.36-.47c.3-.39.26-.36-.23.16-.72.76-.71.76-.76.04-.02-.31-.03-.07-.03.53 0 .61.01.89.03.64.03-.33.09-.49.21-.53.09-.03.22-.08.28-.11.07-.04.28.21.49.55.2.34.4.59.42.56.03-.03-.13-.35-.36-.71Zm15.9.35c1.26-.77 2.35-.77 3.62 0 .63.38 1.17.52 1.17.3 0-.06-.09-.1-.2-.1-.1 0-.35-.13-.53-.3-1.19-1.04-3.32-1.02-4.6.06-.17.15-.38.23-.49.21-.11-.03-.18 0-.18.09 0 .26.53.15 1.21-.26Zm-12.86-.16.25-.27.25.27c.2.22.29.25.44.17.41-.22.33-.57-.29-1.16l-.41-.4-.5.52c-.52.55-.58.72-.33.97.21.22.31.2.59-.1Zm9.63-.6c-.05-.28-.71-.74-1.44-.99-1.35-.48-3-.27-4.18.54-.78.54-.51.73.3.21 1.53-.97 3.53-.89 4.91.2.31.24.46.26.41.04Zm23.92-.45c-1.19-1-3.75-1.01-5.22-.04-.73.49-.46.72.29.25 1.51-.97 3.53-.88 4.91.21.43.33.45-.07.02-.42Zm8.4.41c0-.48-1.72-1.2-2.86-1.2-1.1 0-2.68.54-2.98 1.02-.2.32.01.28.95-.19 1.52-.78 3.67-.6 4.55.38.22.25.34.24.34-.01Zm-29.23-.37c1.54-.76 2.95-.7 4.34.18.8.51.95.29.2-.28-1.28-.99-3.96-.96-5.2.05-.78.63-.56.65.66.05Zm8.17-.03c1.51-.76 3.17-.6 4.58.42.22.16.36.03.22-.2-.72-1.15-3.92-1.32-5.46-.29-.28.2-.55.66-.31.56.04-.02.48-.24.97-.49Zm5.22-3.22c-.12-.39 0-15.52.12-15.55.09-.04.12 1.57.12 7.81 0 7.26-.04 8.43-.24 7.74ZM1.94 15.55l-.25-.25.03-4.85.03-4.84.23-.23c.22-.23.23-.23 3.31-.23h3.09l.26.24.26.24v9.76l-.26.2c-.26.2-.38.21-3.36.21H2.19zm7.68.02c-.22-.23-.22-.24-.22-5.14V5.51l.27-.21c.43-.34 6.4-.27 6.75.08l.23.23.03 4.8.03 4.8-.3.29-.29.3H9.83zm7.73-.02-.25-.24v-4.8c0-2.64.03-4.87.06-4.96.16-.41.49-.45 3.64-.45h3.02l.29.3.3.29-.03 4.86-.03 4.87-.24.19c-.22.18-.43.19-3.38.19h-3.14zm7.87.18c-.4-.16-.42-.43-.42-5.33V5.68l.29-.29.29-.29h3.05c2.93 0 3.05.01 3.31.21l.26.2v9.88l-.22.21c-.21.19-6.1.32-6.56.13Zm10.11-.03c-.42-.17-.43-.29-.43-5.28 0-4.57.01-4.81.19-5.03l.19-.24h6.34l.24.28c.13.15.24.4.25.55.01.24.02.23.09-.08.19-.79.23-.8 3.6-.8h2.98l.31.26.31.26v4.8c0 2.93-.04 4.86-.1 4.98-.19.35-.64.4-3.52.4-3.16 0-3.43-.05-3.55-.61l-.06-.31-.12.3c-.26.62-.3.62-3.55.61-1.62 0-3.05-.04-3.17-.09Zm-26.77-.34c.23-.32.21-9.52-.03-9.78-.23-.26-6.11-.28-6.37-.02-.14.14-.16.72-.16 4.94v4.79l.23.16c.37.26 6.13.18 6.33-.09Zm7.62.08.22-.15V10.5c0-4.22-.02-4.8-.16-4.94-.26-.27-6.39-.24-6.54.03-.22.42-.13 9.58.1 9.81.27.27 5.99.31 6.38.04Zm7.59.1c.12-.03.24-.12.27-.2.12-.31.08-9.65-.05-9.8-.1-.12-.61-.14-3.28-.12l-3.15.03-.13.25c-.25.49-.18 9.31.08 9.64l.2.26h2.92c1.61 0 3.02-.03 3.14-.06Zm7.81-.1.22-.15V10.5c0-4.22-.02-4.8-.16-4.94-.24-.25-6.25-.24-6.45.01-.11.13-.14 1.03-.14 4.9v4.75l.24.19c.32.26 5.91.3 6.29.03Zm9.56 0c.36-.14-.01-.24-.9-.24-.52 0-.94-.04-.94-.09 0-.15.29-.21 1.11-.21h.79v-2.55l-.8.81-.8.81v-.34c0-.28.1-.43.57-.88.66-.63.54-.73-.3-.25-.3.17-.63.3-.75.3s-.3-.13-.42-.3c-.48-.67-.59-.41-.18.46.28.6.32.78.32 1.61l.01.93h1.07c.58 0 1.13-.03 1.22-.06Zm-2.79-.14c.04-.06-.47-.1-1.44-.1-.94 0-1.51.04-1.51.1s.55.1 1.44.1c.86 0 1.47-.04 1.51-.1Zm10.32.04c.39-.11.43-.55.43-5.2 0-4.09-.01-4.43-.17-4.55-.15-.11-.16-.11-.05.01.06.08.12.23.12.33 0 .17-.02.17-.19-.04l-.19-.24h-5.64l-.19.24c-.13.16-.19.18-.19.08 0-.38.24-.42 3.24-.48l2.91-.05h-2.96c-2.31.01-2.99.04-3.12.14-.14.12-.16.66-.17 4.82v4.69l.22.15c.23.16 5.4.25 5.95.1Zm-36.5-.1c-.03-.04.05-.23.18-.43.37-.54.32-.77-.09-.46-1.13.85-2.29-.96-1.39-2.16.39-.52 2.05-2.39 2.12-2.39.31 0 2.46 2.74 2.55 3.26.2 1.01-1.09 1.85-1.88 1.23-.31-.25-.33-.12-.06.43.11.23.2.45.2.5 0 .09-1.54.11-1.63.02Zm8.33-.38c-.35-.73-.84-1.3-1.64-1.9-.9-.68-.88-.57-.24-.94.69-.38 1.43-1.18 1.74-1.87.31-.68.37-.68.7-.03s1.28 1.6 1.94 1.93c.61.31.64.22-.24.88-.78.59-1.26 1.12-1.71 1.9-.33.57-.29.57-.55.03Zm7.2.25c0-.05.09-.28.2-.52.3-.67.28-.86-.07-.63-.57.36-1.39.18-1.73-.39-.49-.79 0-1.87.84-1.87.35 0 .36-.01.29-.27-.18-.69.06-1.25.65-1.5 1.09-.45 2.24.6 1.72 1.58-.1.17-.07.19.21.19.39 0 .82.25 1.03.6.62 1.05-.68 2.34-1.72 1.7-.4-.24-.43-.1-.12.59.28.61.28.61-.55.61-.41 0-.75-.04-.75-.09ZM4.26 13.79C2.8 11.97 2.54 11.3 2.95 10.5c.33-.63 1.56-.83 2.13-.35.22.19.31.22.35.12.08-.21.71-.47 1.12-.47 1.15 0 1.74.98 1.28 2.12-.16.39-2.23 3.09-2.43 3.16-.04.02-.56-.56-1.14-1.29Zm9.14 1.17c0-.02-.07-.2-.15-.39-.16-.38-.2-1.07-.07-1.07.04 0 .22.16.41.35.89.95 2.12-.05 1.52-1.23-.16-.32-1.92-2.32-2.1-2.4-.07-.02-1.75 1.85-2.03 2.27-.8 1.19.63 2.37 1.54 1.28.41-.5.59.23.23.93l-.16.3H13c.22 0 .4-.02.4-.04Zm15.35-.23c-.14-.34-.25-.88-.25-1.27v-.39l.45.42c.61.56 1.28.52 1.61-.1.4-.78-.04-1.43-.93-1.37-.54.03-.7-.11-.43-.38.4-.4.23-1.22-.29-1.44-.98-.4-1.84.47-1.32 1.35.27.47.29.44-.29.43-.7-.02-1.04.24-1.08.81-.08 1.05.99 1.46 1.74.66.17-.19.34-.31.38-.28.11.11.05.87-.09 1.28-.08.22-.15.41-.15.43 0 .01.16.02.36.02.31 0 .35-.03.29-.17Zm8.18 0c.23-.03.37-.01.37.06 0 .06.07.11.15.11.23 0 .18-.47-.07-.64-.5-.36-1.38-.09-1.38.41 0 .23.03.25.27.18.16-.03.45-.09.66-.12ZM6.35 13.55c1.4-1.71 1.68-2.46 1.12-3.1-.45-.53-1.59-.43-1.94.16l-.17.28-.3-.35c-.78-.89-2.24-.24-2.01.9.11.52 2.17 3.32 2.36 3.2.04-.02.47-.52.94-1.09Zm14.94.43c.24-.33.73-.83 1.08-1.1l.63-.5-.42-.28c-.57-.36-1.23-1.01-1.57-1.56l-.29-.44-.3.52c-.31.56-.95 1.21-1.5 1.53-.41.25-.42.22.29.75.34.25.82.73 1.08 1.07.55.75.46.75 1 .01Zm16.62-.18c-.15-.68-.54-1.2-.91-1.2-.44 0-1.19.74-1.27 1.25l-.06.4.22-.19c.46-.41 1.8-.27 1.98.2.12.32.14.03.04-.46Zm-1.21-1.91c.69-.19.7-.21.7-1.21 0-.75-.03-.94-.2-1.15-.34-.44-.09-.65.27-.23.21.24.33.26.33.05 0-.09.09-.15.25-.15s.25.06.25.15c0 .08.07.15.15.15s.15-.06.15-.14c0-.16.27-.29.41-.2.05.03.09.12.09.2s.07.14.15.14.15-.07.15-.15c0-.2.37-.19.48.01.08.15.11.15.31-.05.39-.39.68-.2.36.23-.1.14-.15.45-.15 1.03v.83h.72l-.03-.92-.03-.93.25-.03c.42-.05.48.14.52 1.64.01.76.04-.06.05-1.83.02-3.17-.02-3.67-.31-3.85-.21-.14-6.11-.1-6.25.04-.09.09-.12 1.04-.12 3.65v3.53l.53-.34c.28-.19.72-.4.97-.47Zm8.31.71a1 1 0 0 0-.54-.04c-.27.05-.29.04-.25-.14.09-.35-.35-.68-.69-.53-.24.11-.29.1-.41-.06s-.1-.19.15-.23c.46-.08.45-1.1-.01-1.1-.3 0-.58-.29-.3-.32.11 0 .27-.01.36 0 .19.02.46-.7.28-.76-.3-.1-.55-.41-.43-.53.1-.1.18-.08.38.11l.24.23.45-.41c.28-.26.63-.47.91-.54l.46-.12-.03-.46c-.02-.36.01-.46.15-.48.14-.03.17.05.17.47 0 .45.03.51.2.51.34 0 .93.29 1.27.62.31.3.33.31.52.14.37-.34.61-.15.25.19-.33.32-.29.98.07 1.01.08.01.24.02.36.03.34.02.17.31-.17.31-.26 0-.3.05-.43.48l-.13.47.28.09c.28.09.37.29.17.42-.06.03-.16.01-.22-.05-.27-.27-.81.08-.82.52q0 .225-.15.18c-.08-.02-.22-.03-.3-.03-.94.1-1.59.1-1.79.02Zm1.52-.33c1.42-.6 1.56-2.67.24-3.47-1.41-.86-3.23.46-2.86 2.09.25 1.12 1.57 1.81 2.62 1.38Zm-1.49-.22c-1.16-.58-1.38-2.04-.45-2.88.76-.68 1.62-.7 2.35-.06 1.58 1.39-.02 3.88-1.9 2.94Zm1.51-.39c.84-.55.8-1.97-.06-2.42-.68-.35-1.62-.05-1.93.6-.6 1.27.83 2.58 1.99 1.82Zm-7.57-.83-.03-.58-.57-.01-.58-.02v1.18h1.21zm1.07.47c.19-.32-.06-1.1-.36-1.1-.29 0-.29 0-.29.6s.4.9.65.5ZM22.16 8.27c-.14-.24-.42-.57-.63-.72-.21-.16-.4-.3-.42-.31-.02-.02.19-.24.46-.48.28-.25.56-.59.63-.76.17-.4.3-.38.58.11.13.22.43.54.68.72.54.38.54.36-.01.75-.24.17-.53.49-.65.71-.26.51-.32.51-.64-.02ZM2.2 8.45c0-.16.72-2.22.89-2.54.13-.23.43-.28.59-.08.17.21 1.03 2.58.97 2.68-.16.25-.65.09-.79-.26-.12-.29-.2-.35-.45-.35s-.31.05-.41.35c-.12.38-.8.55-.8.2Zm4.43-.33c-.88-1.04-1.04-1.59-.59-2.01.2-.19.32-.22.58-.17.4.08.52.08 1 0 .65-.11 1.09.58.76 1.19C8.24 7.41 7.2 8.6 7.1 8.6c-.04 0-.25-.22-.47-.48Zm3.23.39c-.06-.1.79-2.47.96-2.68.34-.42.49-.22 1.12 1.43.55 1.45.54 1.34.11 1.34-.3 0-.37-.04-.49-.35-.21-.5-.78-.52-.92-.03-.1.34-.63.54-.78.29Zm4.44-.04c0-.07.05-.18.11-.24.07-.07.03-.09-.15-.06-.75.15-.92-.7-.28-1.45.2-.24.46-.57.56-.74l.2-.31.15.24c.09.13.32.42.52.64.8.88.74 1.75-.11 1.63-.25-.04-.27-.02-.19.13.14.27.12.29-.36.29-.3 0-.45-.04-.45-.13Zm3.3 0c-.01-.26.95-2.67 1.09-2.72.34-.13.48.07.94 1.38.56 1.57.55 1.47.13 1.47-.3 0-.36-.04-.46-.35s-.16-.35-.45-.35-.35.04-.45.35c-.12.36-.8.55-.8.22Zm7.76.05c-.05-.09.45-1.66.8-2.5.3-.72.62-.45 1.16.98.58 1.54.59 1.62.16 1.58-.26-.02-.36-.1-.47-.36-.12-.26-.2-.32-.46-.32-.28 0-.33.05-.41.32-.1.34-.63.54-.78.3Zm4.44-.03c0-.06.04-.18.09-.28.08-.15.05-.16-.23-.13-.37.04-.62-.15-.72-.54-.07-.28.19-.74.41-.74.1 0 .15-.1.15-.28 0-.38.28-.62.73-.62.38 0 .67.27.67.61 0 .1.14.31.3.47.47.47.16 1.21-.46 1.09-.16-.03-.24 0-.21.07.2.48.21.46-.27.46-.26 0-.46-.05-.46-.11Zm5.88.04c-.01-.04-.02-.7 0-1.45l.03-1.38h.25c.22 0 .24.03.24.53v.52l.38-.43c.33-.39.41-.43.76-.4l.39.03-.42.5-.41.49.4.73c.49.88.49.93.06.93-.3 0-.38-.05-.58-.42-.32-.57-.46-.59-.5-.06-.03.41-.47.71-.6.41Zm4.16-.18c.06-.22.03-.25-.22-.25-.36 0-.62-.28-.62-.67 0-.29.25-.63.47-.63.06 0 .08-.11.06-.24-.07-.32.28-.66.67-.66.35 0 .7.31.7.63 0 .14.11.28.3.39.59.33.3 1.19-.4 1.22-.3.01-.38.1-.2.21.23.14.07.25-.36.25-.44 0-.46-.01-.4-.25ZM2.8 7.95c.18-.54 1.03-.54 1.26.01.36.85.22.16-.17-.86-.23-.61-.46-1.07-.51-1.02-.13.13-.86 2.22-.78 2.22.05 0 .14-.16.2-.35Zm7.64 0c.23-.54 1.09-.54 1.32.01.08.2.17.34.2.32.06-.06-.79-2.28-.87-2.28-.06 0-.89 2.07-.89 2.23 0 .17.11.05.24-.28Zm7.76 0c.18-.56 1.09-.54 1.3.03.07.2.15.32.17.26.05-.15-.71-2.16-.82-2.16-.05 0-.28.5-.51 1.11S17.96 8.3 18 8.3c.05 0 .14-.16.2-.35Zm8.37-.35c.5 0 .52.01.64.35.07.19.16.35.2.35.07 0-.31-1.13-.66-1.97-.19-.46-.24-.4-.69.81-.37 1.01-.47 1.51-.18.84.16-.37.19-.38.69-.38ZM7.69 7.59c.52-.62.64-1.02.39-1.27-.2-.2-.64-.14-.81.11l-.16.22-.16-.22c-.48-.67-1.14.1-.67.78.77 1.13.78 1.13 1.41.38ZM22.65 8c.03-.1.24-.33.46-.51l.4-.32-.26-.17c-.14-.09-.39-.32-.54-.5l-.27-.33-.17.26c-.09.14-.29.37-.44.51l-.27.25.42.4c.23.23.42.45.42.51 0 .18.18.11.25-.1Zm-8.13-.27c.18-.16.21-.16.49.01.77.45.91-.17.22-.97l-.47-.54-.27.36c-.14.2-.36.45-.48.55-.23.21-.27.46-.09.64.17.17.38.15.6-.05Zm26.66-.31c-.02-.21-.1-.28-.32-.32-.27-.05-.3-.09-.3-.45-.01-.37-.03-.4-.33-.43-.36-.04-.52.23-.34.56.12.23.05.32-.24.32-.31 0-.52.27-.38.48.14.22.4.27.69.12.19-.11.29-.1.56.03.42.2.71.07.66-.31Zm-11.23.28c.03-.05.17-.1.3-.1s.27.05.3.1c.09.15.41.12.55-.05.18-.22.03-.53-.28-.57-.24-.03-.27-.07-.27-.43 0-.39-.01-.4-.35-.4s-.35.01-.35.4c0 .35-.03.4-.25.43-.35.05-.44.16-.36.46.07.27.57.38.71.16ZM3.12 7.42c-.13-.09.12-1.02.28-1.02.18 0 .44.91.29 1.01-.17.11-.4.11-.57.01Zm23.16.01c-.15-.04-.15-.08.01-.54.21-.63.31-.63.53-.02.19.57.05.72-.54.56Zm-15.45-.58c.24-.66.3-.68.46-.14.07.23.15.47.18.55.04.11-.05.14-.4.14h-.45zm7.73.13c.26-.77.24-.75.39-.48.34.66.3.9-.14.9h-.4z"/></svg>