<svg xmlns="http://www.w3.org/2000/svg" width="51" height="51" viewBox="0 0 51 51"><path fill="#fff" fill-rule="evenodd" stroke="#fff" stroke-width=".713" d="M13 45.45C9.44 44.71 6.68 42 5.74 38.3c-.18-.71-.19-1.21-.19-8.55 0-11.94-.43-11.03 8.53-17.89 7.76-5.94 8.24-6.21 11.22-6.33 2.67-.11 4.28.56 7.9 3.3.69.52 1.27.93 1.29.91.02-.01.07-.5.11-1.07.05-.65.14-1.17.25-1.41.48-1.01 1.92-1.11 2.63-.18l.27.35.03 3.1c.03 2.97.02 3.11-.18 3.53-.41.84-1.42 1.12-2.18.61-.2-.13-1.56-1.15-3.02-2.27-3.08-2.35-3.63-2.74-4.31-3.02l-.5-.21-.37.35c-.2.19-1.72 1.4-3.37 2.68-2.64 2.05-5.7 4.46-8.6 6.75-1.61 1.28-2.41 2.24-2.92 3.48-.53 1.3-.53 1.27-.53 10.48v8.56l.68.31c1.18.54.97.53 13.52.5l11.65-.03.65-.23c1.64-.58 2.97-1.92 3.68-3.7l.27-.67v-15.9l-.24-.74c-.29-.89-1-2-1.67-2.61-1-.9-1.19-1.52-.74-2.41.94-1.84 3.57-.32 5.11 2.95.94 2.02 1.03 3.1.96 12.16l-.04 6.45-.26.95c-.88 3.3-3.02 5.6-6.25 6.71l-.97.34-12.25.02c-9.93.01-12.37-.01-12.9-.12Zm24.35-.15c3.58-.33 6.56-2.87 7.72-6.57l.28-.88v-16.4l-.28-.9c-1.23-3.94-4.22-6.39-5.3-4.34-.36.68-.21 1.07.79 2.12.97 1 1.39 1.68 1.76 2.87l.23.75v7.7c0 8.61.04 8.12-.73 9.6-.47.9-1.73 2.18-2.58 2.63-1.36.71-.58.67-13.64.67H13.85l-.7-.22c-2.08-.66-3.86-2.5-4.4-4.53-.22-.84-.22-15.25.01-16.2.44-1.89 1.06-2.6 4.67-5.38C23.27 8.65 23.35 8.6 25.6 8.6c2.14 0 2.5.21 9.02 5.18 1.21.92 1.45 1.01 2.01.81.87-.3.97-.7.97-3.94 0-3.47-.16-3.9-1.39-3.9-1.03 0-1.31.44-1.38 2.17-.04.65-.1 1.21-.14 1.24-.05.03-.79-.48-1.66-1.14-3.6-2.7-4.79-3.22-7.43-3.22-2.62 0-3.77.51-7.5 3.32-9.76 7.36-10.35 7.87-11.34 9.85-.96 1.92-1.06 2.92-1.05 10.83 0 7.75.06 8.4.95 10.29 1.36 2.89 4.08 4.89 7.07 5.21 1.04.11 22.43.11 23.62 0ZM11.72 23.5c.74-2.48 1.24-3.08 5.23-6.21 4.94-3.88 6.89-5.4 8.58-6.73 1.3-1.01 1.75-1.42 1.67-1.5-.23-.23-2.52-.2-3.32.04-1.25.38-1.21.35-8.83 6.18-5.16 3.96-5.33 4.13-5.91 5.89l-.29.88v15.5l.29.7c.47 1.12.97 1.83 1.86 2.58l.45.38.05-8.58c.05-7.54.08-8.65.22-9.13Zm9.65 9.66c-1.95-.7-2.38-3.18-.75-4.36 2.06-1.49 4.72.74 3.64 3.06-.51 1.1-1.8 1.68-2.89 1.3Zm6.78-.09c-1.63-.78-1.98-2.91-.67-4.09 2.28-2.05 5.44 1.15 3.42 3.46-.71.8-1.85 1.06-2.75.63Zm-5.27-.22c1.25-.53 1.76-2.04 1.07-3.21-.73-1.24-2.52-1.41-3.5-.33-1.55 1.72.3 4.42 2.43 3.54Zm7.27-.13c1.28-.7 1.54-2.44.51-3.46-1.38-1.39-3.76-.4-3.76 1.56 0 1.65 1.79 2.7 3.25 1.9Zm-9.23-6.77c-2.29-1.16-1.41-4.65 1.18-4.65 3.17 0 3.22 4.73.06 4.88-.61.03-.78 0-1.24-.23Zm7.11.04c-2.28-1.13-1.45-4.68 1.1-4.69 2.67-.01 3.38 3.72.9 4.75-.53.22-1.49.19-2-.06Zm-5.31-.11c1.59-.47 2.08-2.5.89-3.69a2.17 2.17 0 0 0-3.41.37c-1.11 1.76.52 3.92 2.52 3.32Zm7.42-.17c1.49-.73 1.56-3.02.12-3.86-.69-.41-1.38-.43-2.05-.08-2.66 1.38-.77 5.24 1.93 3.94Z"/></svg>