<svg xmlns="http://www.w3.org/2000/svg" width="51" height="51" viewBox="0 0 51 51"><path fill="#fff" fill-rule="evenodd" stroke="#fff" stroke-width=".406" d="M2.35 50.99c-1.31-.53-2.37-1.84-2.34-2.88l.01-.36.09.43c.26 1.35 1.45 2.51 2.94 2.88.46.11.47.12.15.13-.19 0-.57-.09-.85-.2Zm14.11.09c.04-.07.08-3.77.08-8.24l.01-8.12-2.69-.07c-1.48-.04-5.18-.04-8.22 0l-5.54.08-.03 5.96-.02 5.96-.03-6.13L0 34.4l8.37.02 8.38.03.03 8.38.02 8.37h-.21c-.13 0-.18-.04-.13-.12Zm.66-8.25.03-8.38 8.43-.03L34 34.4v16.8l-.27-.01c-.17-.01-.21-.03-.11-.06.17-.04.18-.52.18-8.23v-8.18l-.32-.05c-.48-.09-6.85-.09-11.8-.01l-4.28.07v8.24c0 7.26-.02 8.23-.15 8.23s-.15-.97-.13-8.37Zm17.28-.03v-8.4h8.4c7.38 0 8.4.02 8.4.15s-.83.14-6.82.12c-3.76-.02-7.49-.02-8.3 0l-1.48.04v8.19c0 6.45.03 8.19.13 8.23.06.03.02.06-.11.06l-.22.01zm13.5 8.3c1.24-.21 2.38-1.11 2.95-2.33.19-.39.34-.63.35-.51.02 1.12-2.04 2.96-3.29 2.93l-.46-.01zm-23.3-3.33c-2.35-.55-3.23-3.05-1.64-4.65l.55-.54-.39-.42c-2.02-2.19 1.03-5.15 3.95-3.86 1.73.76 2.13 2.96.75 4.1-.2.17-.32.3-.26.3.24 0 .98.77 1.2 1.24 1.05 2.26-1.37 4.48-4.16 3.83Zm17.21-.02c-1.08-.31-2.01-1.36-2.01-2.29 0-.35 1.12-.17 1.22.19.15.61.98 1.15 1.75 1.15 1.11 0 2-1.2 2.19-2.97l.07-.58-.39.37c-1.94 1.85-5.04.42-5.04-2.32 0-1.97 1.27-3.25 3.2-3.24 2.3.01 3.53 1.82 3.37 4.99-.17 3.43-1.97 5.37-4.36 4.7Zm-35.11-.2c0-.03.74-1.87 1.65-4.09.91-2.23 1.65-4.07 1.65-4.1s-1.13-.06-2.51-.06h-2.5l.03-.52.03-.53 3.13-.03 3.12-.02v.54c0 .5-1.39 4.12-3.22 8.38l-.2.48h-.59c-.33 0-.59-.02-.59-.05Zm19.89-.06c2.42-.52 2.92-3.51.77-4.61-.38-.19-.39-.22-.21-.32 2.35-1.3 1.22-4.26-1.62-4.26-2.58 0-3.83 2.79-1.82 4.05.47.31.47.3.04.5-.87.42-1.43 1.43-1.32 2.37.21 1.76 2 2.74 4.16 2.27Zm17.06-.06c2.44-.83 3.16-6.65 1.04-8.47-1.57-1.34-4.16-.59-4.74 1.37-.88 2.97 2.54 5.17 4.6 2.96.77-.82.9-.6.6.96-.29 1.52-.9 2.44-1.81 2.71-1.08.31-2.29-.27-2.59-1.23-.09-.32-.65-.33-.65-.01 0 1.25 2.03 2.23 3.55 1.71Zm-35.52-1.1c1.73-4.17 2.87-7.04 2.93-7.4l.07-.43H5.3v.55l2.45-.03c2.16-.03 2.46-.01 2.51.13.05.12-1.92 5.14-3.06 7.8l-.19.45h.33c.34 0 .34-.01.79-1.07Zm16.45.57c-1.93-.58-1.95-3.27-.03-3.79 2.35-.64 4.27 1.12 3.2 2.94-.47.8-1.98 1.21-3.17.85Zm2.35-.42c1.32-.73 1.07-2.66-.39-3.07-1.8-.5-3.22.27-3.12 1.69.1 1.45 2.02 2.2 3.51 1.38Zm15.14-2.92c-2.46-.88-1.91-4.69.68-4.69 2.19 0 3.15 2.8 1.45 4.25-.64.55-1.38.7-2.13.44Zm1.83-.5c1.27-.84 1.17-2.97-.19-3.68-2.5-1.31-4.24 2.5-1.76 3.86.47.26 1.42.17 1.95-.18Zm-19.07-.75c-.84-.22-1.43-.93-1.43-1.72 0-2.21 4.07-2.39 4.28-.18.13 1.41-1.22 2.32-2.85 1.9Zm1.87-.43c1.18-.6.95-2.31-.35-2.67-1.52-.42-2.7.26-2.62 1.51.07 1.2 1.66 1.82 2.97 1.16ZM0 25.6v-8.5l8.38.02 8.37.03v16.9l-8.37.03L0 34.1zm17.15 8.38c-.03-.07-.04-3.89-.03-8.48l.03-8.35 3.94-.03c2.95-.02 3.98-.05 4.09-.15.12-.1-.67-.13-3.94-.17l-4.09-.05-.03-8.32C17.1 1.13 17.08.1 16.95.1s-.15 1.03-.17 8.33l-.03 8.32-8.37.03L0 16.8V2.64l.27-.55C.86.9 2.07.08 3.3.04l.65-.03-.55.08C2.1.27.89 1.16.35 2.32l-.25.53V16.5h16.37l.06-2.52c.04-1.39.07-5.08.07-8.2V.1L10.58.07C7.26.06 8.62.05 13.6.05s7.87.01 6.43.02L17.4.1v16.4h8.15l4.13-4.17 4.12-4.17V.11L32.58.07 31.35.04l1.39-.02L34.13 0l-.05 3.95c-.03 2.17-.02 3.95.03 3.95.25 0 .29-.57.29-4.14V0l1.43.02 1.42.02-1.32.03-1.33.04v7.21l.42-.37c.24-.21 1.89-1.82 3.66-3.59L41.92.15 40.33.1c-.9-.03.09-.06 2.32-.06 2.15.01 2.95.02 1.79.03L42.33.1l-8.39 8.35c-5.09 5.07-8.35 8.38-8.29 8.43s.55.36 1.11.7c2.06 1.26 3.51 2.77 4.64 4.85.23.42.44.77.46.77s4.36-4.33 9.65-9.62l9.61-9.63-.05-.58C50.93 1.81 49.65.46 47.98.1l-.43-.09.52.03c1.57.09 3.02 1.68 3.11 3.4l.04.79-2.52 2.52-2.53 2.53-.01.89c-.03 1.89-1.16 3.02-3.12 3.11l-.92.04-1.58 1.59-1.59 1.59h6.13c5.37 0 6.12.02 6.12.15s-.77.15-6.29.15c-5.46 0-6.3.02-6.41.15s.6.15 6.29.15c5.72 0 6.41.02 6.41.16 0 .13-.69.15-6.56.13l-6.57-.01-1.72 1.72-1.73 1.72-.01 3.69c0 2.07.03 3.69.08 3.69s1.08-.38 2.3-.85c1.21-.46 2.32-.87 2.46-.91.19-.05.77-.73 2.12-2.48 1.03-1.32 1.98-2.56 2.12-2.73.24-.3.31-.33.84-.33h.57v1.65c0 .91.02 1.65.04 1.65.03 0 .83-.29 1.78-.65 1.77-.66 2.02-.73 1.96-.54-.02.06-.88.43-1.91.81l-1.87.7v2.67l.73.03.72.03v1l-.72.03-.72.03-.03 1.02-.03 1.02h-1.2l-.03-1.01-.03-1.01-2.28-.08c-2.23-.07-2.29-.08-2.35-.29-.11-.39-.06-.79.12-.99.17-.19.16-.2-.11-.13-.29.07-3.36 1.23-4.15 1.57l-.42.18.02 2.61.03 2.61 8.28.01c7.04 0 8.27.02 8.27.14s-1.25.14-8.4.14h-8.4v-6.52c0-5.82-.02-6.51-.15-6.37-.13.13-.16 1.03-.22 6.52l-.06 6.37h-8.39c-6.62 0-8.4-.03-8.43-.12Zm-.67-.22c.02-.02.04-3.71.06-8.2l.02-8.16H.1v16.48l8.17-.04c4.49-.03 8.19-.06 8.21-.08Zm12.25.04h5.07v-4.98l-.37.04c-.51.06-6.53.4-10.33.59-1.68.08-3.24.17-3.47.2-.23.02-.45 0-.48-.05-.09-.15 2.83-6.46 4.99-10.77.36-.73.66-1.35.66-1.38s-1.66-.05-3.7-.05h-3.7v16.47l3.13-.03c1.71-.02 5.4-.03 8.2-.04ZM7.87 30.49c-1.97-.32-2.95-2-2.84-4.89.08-2.03.46-3.17 1.34-4.02 1.67-1.62 4.7-.8 4.99 1.35l.07.48-.58-.03c-.58-.03-.59-.04-.68-.38-.16-.63-.92-1.19-1.62-1.2-1.31 0-2.09.99-2.3 2.94l-.07.59.39-.38c1.42-1.4 3.83-.94 4.74.9 1.16 2.36-.84 5.06-3.44 4.64Zm1.93-.55c1.26-.68 1.87-2.22 1.44-3.6-.63-2.02-3.46-2.62-4.69-1-.51.67-.59.59-.52-.51.12-2.14.95-3.23 2.44-3.23.95.01 1.56.37 1.88 1.13.16.4.75.57.75.22 0-1.63-2.67-2.54-4.25-1.45-1.98 1.36-2.19 6.64-.33 8.11.94.75 2.26.89 3.28.33Zm35.02-.86.03-1.03.73-.03c.69-.03.72-.04.72-.27 0-.24-.03-.25-.59-.25-.99 0-.91.3-.91-3.26V21.1h-.34c-.37 0-.15-.26-3.49 4.08-1.41 1.83-1.57 2.08-1.57 2.43V28h4.7v2.1h.69zm-37.39.41c-1.59-.79-1.78-3.09-.35-4.13.62-.44 1.95-.46 2.55-.04 2.34 1.61.32 5.42-2.2 4.17Zm2.04-.35c1.2-.7 1.25-2.75.08-3.56-1.36-.95-3.2.04-3.19 1.72.01.9.7 1.9 1.42 2.06.15.03.32.07.37.1.22.08.93-.09 1.32-.32ZM32 28.68l1.75-.13.03-3.45.02-3.45-1.02 1.02-1.03 1.02-2.35 1.17c-2.66 1.32-5.36 2.6-7.2 3.41-1.24.55-2.2 1.01-2.2 1.06 0 .03 10.03-.51 12-.65Zm-10.17-.54.88-.38-.83-.83c-.45-.46-.85-.83-.89-.83s-1.22 2.46-1.46 3.07c-.02.06.29-.06.69-.27s1.13-.55 1.61-.76Zm3.33-1.53c1.95-.92 6.34-3.08 6.43-3.16.16-.16-1.3-2.41-2.19-3.37-.97-1.06-3.56-2.98-4.01-2.98-.09 0-1.4 2.57-2.99 5.89l-1.31 2.75.93.93c.51.51.96.93.99.93.04 0 1.01-.44 2.15-.99Zm14.96.64c.07-.34 3.92-5.28 4.01-5.14.01.02.01 1.22-.01 2.67l-.03 2.62h-2c-1.72 0-2-.02-1.97-.15Zm3.68-1.15v-1.09l-.77.28c-1.58.58-1.6.6-2.13 1.27l-.5.64h3.4zm-.27-1.29c.25-.1.27-.15.27-.64 0-.3.03-.76.06-1.03l.06-.49-.29.35c-.15.19-.65.83-1.1 1.41l-.82 1.07.77-.28c.42-.16.89-.33 1.05-.39ZM8.35 12.98c-.03-.07-.06-1.83-.07-3.9l-.03-3.77-.6.37c-1.35.84-1.49.84-1.43.01.03-.42.05-.44.68-.8.36-.21.88-.58 1.17-.83.47-.42.56-.46 1.02-.46h.51l-.02 4.73-.03 4.72-.58.03c-.4.02-.59-.01-.62-.1Zm14.08-.04c-.36-.95.8-2.47 3.26-4.26 1.49-1.09 1.76-1.45 1.76-2.41 0-1.19-.54-1.71-1.76-1.72-1.12 0-1.78.65-1.95 1.93l-.07.52h-1.2l.06-.52c.2-1.9 1.39-3.04 3.17-3.02 3.5.03 4.13 3.74 1 5.92-1.7 1.18-2.7 2.1-2.7 2.46 0 .03 1.07.07 2.38.08l2.37.03v1.08l-3.13.03c-2.67.02-3.14 0-3.19-.12Zm21.92-.19c.95-.46 1.47-1.3 1.53-2.45l.04-.75-.31.29c-.17.17-.31.35-.31.41 0 .96-.84 1.97-1.8 2.17-.4.08-.68.2-.83.36l-.22.24.75-.04c.46-.02.9-.11 1.15-.23ZM9.38 8.33 9.4 3.9h-.35c-.27 0-.48.11-.91.45-.31.25-.8.6-1.1.76-.46.26-.54.35-.54.6 0 .36.19.3 1.21-.36.38-.25.74-.45.79-.45.06 0 .1 1.47.1 3.96v3.95l.37-.03.38-.03zM28.5 12.5v-.3h-2.35c-2.63 0-2.61.01-2.26-.67.27-.52 1.07-1.27 2.26-2.1 2-1.4 2.68-2.62 2.21-3.98-.4-1.18-1.22-1.7-2.66-1.7-1.67 0-2.66.9-2.93 2.68-.06.37-.05.37.28.37.3 0 .35-.04.4-.27.32-1.53.89-2.15 2.05-2.21 1.16-.07 1.94.43 2.2 1.4.33 1.2-.24 2.05-2.41 3.61-1.62 1.16-2.34 2.02-2.57 3.05l-.1.42h5.88zm15.6-.6c.37-.26.57-.51.75-.93.22-.52.02-.41-.9.53-.71.72-.62.94.15.4Z"/></svg>