<svg xmlns="http://www.w3.org/2000/svg" width="51" height="51" viewBox="0 0 51 51"><path fill="#fff" fill-rule="evenodd" stroke="#fff" stroke-width=".433" d="M8.1 50.99c-3.36-.9-5.98-3.05-7.36-6.04-.41-.89-.74-2.11-.73-2.69 0-.33.06-.18.29.7.93 3.69 3.39 6.31 7.15 7.61l1.1.38 6.28.03c3.91.02 6.27.06 6.27.12 0 .22-12.16.11-13-.11Zm25.1.12c0-.08 1.38-.11 4.39-.11 5.33 0 5.58-.04 7.77-1.11 3.15-1.54 5.31-4.64 5.63-8.11.13-1.36.25-1.38.18-.03-.21 4.12-3.27 7.76-7.67 9.13l-.85.26-4.72.04c-3.27.02-4.73 0-4.73-.07Zm-18.75-4.38c-1.59-.38-2.37-1.69-1.92-3.24.63-2.13 3.65-2.36 4.58-.34.38.81.22 2.05-.36 2.81-.41.54-1.61.94-2.3.77Zm-8.28-.09c-.09-.09-.09-1.54 0-3.41l.06-1.43h.67c.82 0 .77-.07 1.35 1.55.26.71.48 1.31.49 1.32.01.02.24-.52.51-1.2.67-1.71.64-1.67 1.34-1.67.84 0 .82-.07.79 2.56l-.03 2.29-.43.03c-.68.05-.72-.03-.72-1.42l-.01-1.21-.44 1.19c-.52 1.38-.57 1.46-1 1.46-.45 0-.57-.18-1.06-1.6l-.44-1.25-.05 1.4-.05 1.4-.45.03c-.25.02-.49 0-.53-.04Zm12.17-.07c-.02-.07-.03-1.16-.02-2.42l.03-2.3h1.18l.96 1.41.96 1.42.05-1.42.05-1.41h1.1v4.8l-.56.03-.57.03-.34-.48c-.19-.26-.64-.9-.99-1.42l-.64-.94-.03 1.33c-.02.92-.06 1.37-.15 1.42-.2.13-.97.09-1.03-.05Zm6.63.07c-.04-.04-.07-.9-.07-1.9v-1.83l-.67-.03c-.74-.03-.85-.18-.69-.84l.06-.24 1.83.02 1.82.03.03.53.03.52h-.6c-.34 0-.62.01-.62.03-.01.01-.04.85-.08 1.87l-.06 1.85-.45.03c-.25.02-.49 0-.53-.04Zm3.35-.03c-.09-.05-.12-.69-.1-2.42l.03-2.34 1.15.01c1.33.01 1.79.15 2.1.66.38.62.17 1.62-.41 1.97l-.28.17.55.87c.54.85.65 1.27.28 1.13-.09-.03-.34-.06-.57-.06h-.42l-.48-.84c-.73-1.27-.77-1.27-.77-.12 0 .93-.01.96-.22.97-.13 0-.35.02-.49.04s-.31 0-.37-.04Zm4.63-.03c-.03-.08-.04-1.17-.03-2.43l.03-2.3.62-.03c.44-.02.61-.06.57-.15-.09-.24.52-.69 1-.74.6-.07.62.15.05.56l-.41.3.69.03.68.03v1l-1.02.03c-1.08.03-1.15.06-1.06.55.05.25.08.26.82.29l.76.03v.99h-.8l-.8.01-.03.42-.03.42 1.08.03 1.08.03v1l-1.58.03c-1.22.02-1.59 0-1.62-.1Zm4.03.01c-.11-.07 1.4-4.34 1.65-4.66.05-.07.31-.13.57-.13s.52.06.57.13c.13.16 1.77 4.57 1.72 4.61-.02.02-.27.06-.55.1-.59.07-.66.02-.85-.61l-.12-.43h-1.53l-.18.5c-.1.28-.21.51-.25.51-.24.06-.93.04-1.03-.02Zm5.44.03c-.09-.07-.12-.62-.1-2.43l.03-2.34.43-.03c.71-.05.72-.03.72 1.99v1.78l.93.03.92.03v1l-1.4.02c-.77.02-1.46-.01-1.53-.05Zm-26.59-.25c1.73-.73 1.67-3.56-.08-4.23-2-.76-3.87 1.35-2.87 3.23.51.97 1.9 1.43 2.95 1ZM7 44.78c0-1.53.11-2.24.26-1.73.03.11.29.9.58 1.75l.52 1.55.35.03.36.03.48-1.33c.26-.73.57-1.53.69-1.78l.21-.45.03 1.77.02 1.78h.65l-.03-2.12c-.04-2.39-.02-2.3-.64-2.22l-.46.06-.59 1.52c-.33.83-.64 1.51-.69 1.51s-.33-.68-.62-1.52c-.58-1.65-.58-1.64-1.35-1.55l-.37.04v1.32c0 .72-.03 1.68-.07 2.14l-.06.82H7zm12.29.15c.01-.81.04-1.49.06-1.51.09-.09.27.14 1.21 1.53l.98 1.45h.96v-4.3h-.8l-.02 1.63-.03 1.62-1.1-1.62c-.88-1.31-1.14-1.62-1.37-1.67-.62-.12-.68.11-.68 2.72v1.62h.78zm6.51-.38V42.7h1.3v-.6h-3.3v.6h1.3v3.7h.7zm3.4.9c0-.94 0-.95.24-.95.2 0 .34.17.81.95.56.94.57.95.96.95.49 0 .5.04-.16-.96-.6-.92-.64-1.04-.37-1.04.55 0 .96-.98.68-1.63-.22-.53-.61-.67-1.91-.67H28.4v4.3h.8zm6.8.71c0-.33-.23-.39-1.29-.35l-.86.04-.03-.67-.03-.68h1.72l-.03-.27c-.03-.28-.04-.28-.86-.31l-.82-.03v-.59c0-.41.04-.6.13-.61.06-.01.55-.02 1.07-.03.95-.01.95-.01.98-.27l.03-.27-1.33-.04c-.73-.02-1.39-.02-1.45 0-.1.03-.13.56-.13 2.18v2.14H36zm2.09-.21c.26-.66.25-.65 1.16-.65h.84l.17.55.18.55h.43c.33 0 .42-.03.37-.12-.05-.07-.43-1.05-.85-2.18l-.77-2.05h-.86l-.57 1.55c-.31.85-.68 1.83-.82 2.18l-.26.63.41-.03c.37-.03.42-.07.57-.43Zm7.11.15v-.3h-.94c-1.14 0-1.06.16-1.06-2.07V42.1h-.7v4.3h2.7zm-31.07-.36c-1-.5-1.05-2.17-.1-2.88.49-.36 1.37-.3 1.82.14 1.36 1.32-.05 3.56-1.72 2.74Zm1.58-.4c1.11-1.07.05-2.99-1.34-2.41-1.03.43-1.05 2.24-.03 2.68.39.16 1.05.04 1.37-.27Zm22.79-.63c0-.19.63-1.81.71-1.81.04 0 .2.37.35.83.15.45.29.88.32.95.03.09-.14.12-.67.12-.39 0-.71-.04-.71-.09Zm.92-.71c-.19-.6-.24-.61-.41-.12-.08.2-.16.43-.18.5-.04.08.07.12.35.12h.4zm-10.22-.65v-.65h.55c.46 0 .6.04.8.25.51.5.1 1.05-.8 1.05h-.55zm1.04.35c.59-.22.23-.8-.48-.8-.36 0-.36 0-.36.45 0 .49.23.59.84.35Zm-5.85-5.32c-2.74-.16-5.58-1.13-7.99-2.74-10.56-7.04-9.47-22.91 1.95-28.5 10.47-5.11 22.72 1.84 23.64 13.41.82 10.21-7.3 18.45-17.6 17.83Zm4.49-.47c6.48-1.43 11.26-6.22 12.64-12.67.48-2.26.33-5.68-.37-8.08-1.62-5.6-6.43-9.93-12.45-11.23-1.21-.26-4.87-.26-6.1 0C14.37 7.66 8.94 14.6 9.34 22.84c.37 7.67 6.08 13.95 13.82 15.21 1.3.21 4.47.13 5.72-.14Zm.42-5.7c0-.38-.02-.41-.37-.5-.63-.17-1.65-1.23-1.41-1.46.25-.25 1.28-.34 1.28-.11 0 .07.09.21.2.31.2.18.2.17.2-.46v-.64l-.45-.18c-1.51-.63-1.44-2.78.1-3.19.29-.08.41-.16.38-.25-.14-.36.07-.64.45-.61.35.03.37.05.4.4.03.32.08.38.37.48.39.13 1.17.96 1.13 1.18-.02.08-.27.23-.56.33l-.53.18-.09-.23c-.18-.48-.3-.39-.3.23 0 .48.03.61.15.61.29 0 .93.39 1.15.7.62.88.17 2.19-.92 2.64-.32.14-.37.21-.4.53-.03.36-.05.38-.4.41l-.38.03zm.52-.23c.03-.39.06-.43.37-.49.72-.15 1.25-.81 1.25-1.58 0-.72-.37-1.11-1.36-1.44-.15-.05-.18-.19-.18-.87 0-.9.07-.96.5-.49.28.29.3.3.59.14.17-.08.31-.19.31-.24 0-.21-.81-.81-1.09-.81-.31 0-.41-.14-.41-.61 0-.19-.05-.29-.15-.29-.11 0-.15.11-.15.39 0 .37-.02.39-.38.45-.64.1-1.17.64-1.22 1.26-.07.83.22 1.29 1.01 1.57l.49.18v.87c0 1-.05 1.05-.57.53-.36-.36-.9-.4-1-.08-.08.22.74.92 1.22 1.04.44.11.45.13.45.5 0 .56.28.54.32-.03Zm-10.35-.44c-.17-.17-.08-19.42.09-19.48.27-.1 6.85-.06 7.79.05 3.59.43 5.76 2.72 5.77 6.09.01 2.86-1.61 5.03-4.37 5.86-.85.25-1.04.27-3.42.32l-2.53.04-.02 3.57-.03 3.56-1.61.03c-.88.01-1.63-.01-1.67-.04Zm3.13-3.78v-3.54l2.58-.04c2.86-.06 3.7-.21 4.92-.91 3.85-2.18 3.73-8.25-.2-10.19-1.51-.75-2.53-.85-8.02-.8l-2.28.02v19h3zm7.3 2.34c0-.87.1-1 .5-.6.31.31.27.93-.06 1.19-.41.32-.44.27-.44-.59Zm.5-.01c0-.25-.11-.49-.21-.49-.05 0-.09.24-.09.52.01.49.02.51.15.34.08-.11.15-.28.15-.37ZM28.92 28c-.33-.31-.32-.62.01-.97.41-.45.57-.31.57.47s-.14.9-.58.5Zm-6.25-6.57c-.04-.03-.07-1.52-.07-3.31v-3.24l2.18.04c3.45.07 4.68.72 5.04 2.67.37 1.97-.79 3.5-2.87 3.81-.78.11-4.18.14-4.28.03Zm5.24-.49c1.31-.61 1.94-1.84 1.68-3.28-.34-1.9-1.71-2.56-5.35-2.56H22.8v6.11l2.32-.03c2.13-.03 2.37-.05 2.79-.24Zm23.04-12c-.51-4.11-3.92-7.69-8.25-8.65C41.3-.02 9.97 0 8.53.31c-4 .87-7.12 3.79-8.12 7.64-.12.43-.21.88-.21.99 0 .12-.05.28-.11.36-.21.29-.01-1.17.27-1.97C1.59 3.75 4.42 1.13 8.09.19c1.17-.3 33.96-.3 35.14 0 3.6.93 6.7 3.93 7.67 7.44.24.87.36 1.87.22 1.87-.05 0-.13-.25-.17-.56Z"/></svg>