<svg xmlns="http://www.w3.org/2000/svg" width="51" height="51" viewBox="0 0 51 51"><path fill="#fff" fill-rule="evenodd" stroke="#fff" stroke-width=".416" d="M23.45 45.09C7.54 43.43.33 23.8 11.34 12.12c10.1-10.7 28.17-6.8 32.8 7.08 4.55 13.65-6.42 27.38-20.69 25.89Zm4.56-.24c8.33-1.1 14.93-7.29 16.61-15.56.31-1.53.34-5.65.05-7.19C41.81 6.83 23.5.91 12.17 11.6c-6.62 6.24-7.83 16.84-2.81 24.58 4 6.17 11.45 9.63 18.65 8.67Zm-6.18-4.06c-.53-.16-.63-.4-.63-1.6v-1.06l.5-.06c.65-.08.8-.01.8.33 0 .2-.06.31-.2.35-.17.05-.2.15-.2.66 0 .59 0 .59.3.59h.3v-3.2h-.25c-.22 0-.25.04-.25.34 0 .4-.03.43-.58.52l-.42.07v-.51c0-.94.31-1.22 1.31-1.22.4 0 .55.05.81.29l.33.3-.01 1.65c-.01.91-.05 1.77-.08 1.9-.13.52-1.04.86-1.73.65Zm-2.93-2.34V36.1h.45c.36 0 .45.04.46.17 0 .13.03.12.1-.06.06-.15.14-.21.25-.17.09.03.27.06.4.06h.24v4.6h-.87c-.05.01-.11-.16-.14-.37l-.06-.38-.02.43-.01.42h-.8zm5.27 2.11c-.33-.31-.4-.59-.35-1.46.04-.85.29-1.16 1.05-1.35.47-.12.48-.13.51-.54.02-.3-.01-.43-.13-.47-.21-.08-.45.13-.45.41 0 .25-.17.35-.61.35-.52 0-.36-1.17.2-1.39.36-.14 1.26-.31 1.61-.31h.3v5h-.45c-.4 0-.45-.03-.46-.22 0-.16-.02-.18-.06-.08-.15.38-.78.41-1.16.06Zm2.53-2.1V36.1h1.03l-.05 2.25c-.05 2.5-.01 2.35-.57 2.42l-.41.06zm1.63 2.22c-.55-.27-.74-1.97-.27-2.49.23-.26.74-.49 1.09-.49.23 0 .25-.04.25-.44 0-.66-.46-.77-.52-.13-.05.56-.82.48-.86-.09-.05-.62.22-.88 1.11-1.09.78-.18 1.23-.17 1.21.03-.01.06-.02 1.17-.03 2.45l-.01 2.33-.5-.06c-.28-.04-.53-.03-.56.02-.07.11-.64.09-.91-.04Zm2.44.06c-.09-.09-.08-3.4.01-4.09l.07-.5.71-.13c1.5-.29 1.69.04 1.62 2.81-.05 2.01-.01 1.84-.53 1.89l-.4.03-.03-1.98-.02-1.97h-.5v3.9h-.22c-.13 0-.32.03-.43.06s-.24.02-.28-.02Zm-7.78-.29c.38-.19.41-.34.41-2.22v-1.62l-.28-.21c-.32-.26-1.22-.24-1.48.02-.31.3-.31.98 0 .98.21 0 .26-.05.26-.25 0-.46.43-.75.81-.55.26.15.3 3.28.03 3.54-.21.22-.61.2-.74-.03-.2-.38-.13-1.52.1-1.58.36-.09.21-.23-.25-.23h-.45v.95c0 .82.03.98.2 1.15.24.24.97.27 1.39.05Zm1.95.09c.2-.08.21-.24.01-.24-.23 0-.35-.34-.35-1.04 0-.75.14-.96.66-.96h.34v2.2h.5V36h-.24c-.14 0-.28.05-.31.1-.03.06-.26.1-.49.1-.53 0-.84.23-.92.68-.06.3-.04.32.2.32.21 0 .26-.05.26-.25 0-.29.29-.48.68-.43.26.03.27.06.3.66.02.44-.01.63-.1.66-1.12.31-1.13.32-1.3.66-.5 1 0 2.33.76 2.04Zm4.12-.09c.19-.14.19-.14-.01-.15-.36 0-.45-.2-.45-.96 0-.84.13-1.04.66-1.04h.34v2.2h.5V36h-.25c-.14 0-.25.04-.25.09s-.23.11-.51.13c-.57.06-.74.19-.84.66-.06.29-.05.32.19.32.19 0 .25-.06.28-.27.02-.19.11-.3.29-.37.48-.16.59-.04.59.68v.64l-.52.07c-.81.11-.98.35-.98 1.39 0 1.07.4 1.54.96 1.11Zm-9.56-.92c0-.54.03-1.49.07-2.1l.06-1.13h-.53v2.1c0 2.03.01 2.1.2 2.1s.2-.07.2-.97Zm1-.43c0-1.33-.01-1.4-.2-1.4s-.2.07-.2 1.4.01 1.4.2 1.4.2-.07.2-1.4Zm6.9-.7c0-1.99-.01-2.1-.19-2.1-.27 0-.31.34-.31 2.41v1.79h.5zm4.1.16v-1.94l.3-.07c.57-.13.6-.03.6 2.06v1.89h.5v-1.98c0-2.41.01-2.39-1.07-2.28-.36.04-.7.09-.75.12-.04.03-.08.97-.08 2.1v2.04h.5zm-6.1.49c0-.59-.27-.79-.5-.36-.23.44-.13.91.2.91.3 0 .3-.01.3-.55Zm4-.01c0-.52-.01-.55-.22-.52-.37.05-.4 1.08-.04 1.08.25 0 .26-.03.26-.56Zm-8.9-1.88c0-.13.03-.38.06-.55.06-.28.04-.31-.2-.31-.25 0-.26.02-.26.55 0 .48.02.55.2.55.14 0 .2-.07.2-.24Zm3.08-1.84c-3.19-.02-4.3-.1-3.46-.23.65-.11 11.99.02 11.95.14-.04.13-1.55.14-8.49.09Zm-3.46-.59c-.09-.03-.12-.49-.12-1.79V31.2h.76l-.04.68c-.04.62-.03.65.11.47.27-.35 1.11-.28 1.48.13.69.78.19 2.32-.76 2.32h-.42l-.06-.65c-.08-.8-.32-1.25-.43-.8-.04.15-.04.53 0 .86.06.61-.04.72-.52.52Zm2.62-.24c.03-.17.06-.35.06-.4 0-.14.26-.1.4.06.16.19.59.19.66 0 .08-.19-.1-.41-.58-.71-.76-.48-.46-1.5.37-1.25.06.01.25.03.43.03.34 0 .38.07.21.39-.1.19-.12.2-.29.04-.22-.2-.65-.16-.65.05 0 .08.24.3.53.49.59.38.73.7.51 1.1-.22.38-.63.55-1.01.42-.22-.08-.35-.08-.42-.01-.19.19-.28.1-.22-.21Zm1.95.28c-.07-.3-.07-1.91.01-2.11.15-.39.72-.61 1.22-.47.47.14.58.35.58 1.05 0 .67.07.86.31.86.17 0 .19-.08.19-.9 0-.53-.04-.9-.1-.9s-.1-.04-.1-.1c0-.05.21-.1.48-.1h.48l-.04 1.08c-.04 1.23-.14 1.47-.67 1.55-.85.14-1.05-.1-1.12-1.35-.06-.89-.14-1.05-.49-.91-.14.05-.16.22-.12 1.14.03 1.14.02 1.19-.43 1.19-.1 0-.19-.01-.2-.03Zm3.61-.04c-.51-.19-.66-.81-.31-1.24.17-.22.18-.26.03-.56-.19-.4-.06-.59.45-.69.7-.13.82.02.86 1.13l.03.98.02-1.1c.01-.7.06-1.15.14-1.23.09-.09-.66-.12-3.41-.12-2.78 0-3.52-.03-3.49-.12.05-.13 6.85-.25 7.15-.13.09.03.1.11.03.3-.09.24-.09.25.35.25h.45v.88c0 1.03.13 1.32.49 1.12.22-.11.23-.15.19-1.56l-.03-1.44H32v1.59c0 .88.03 1.67.06 1.76.06.14-.01.16-.47.16-.3 0-.69 0-.87.01-.54.01-.66-.2-.7-1.22-.03-.72-.07-.9-.19-.9s-.14.17-.11 1.05c.03 1.14-.11 1.39-.62 1.07-.1-.06-.22-.07-.31-.01-.16.1-.27.1-.49.02Zm-6.25-1.1c.14-.88-.37-1.52-.85-1.08-.28.25-.25.43.08.47.26.03.27.06.36.77.09.83.25.76.41-.16Zm9.62-1.4c-.01-.43-.03-.08-.03.77s.02 1.2.03.77c.02-.42.02-1.12 0-1.54Zm-2.69 1.6c.03-.59-.01-.63-.35-.31-.35.33-.28.92.11.86.18-.03.21-.11.24-.55Zm-.08-.98c.14-.17.05-.35-.19-.35-.2 0-.41.19-.41.37s.45.17.6-.02Zm-7.02-2.33c-.84-.07-.32-.22.78-.22 1.07 0 1.16-.01 1.09-.18-.44-1.14-.51-3.26-.16-5.02.38-1.9.29-2.21-.89-3.16l-.64-.52-.53.48c-1.45 1.32-3.67 1.26-5.07-.13-2.13-2.13-1.07-5.66 1.9-6.36l.52-.12.04-.78c.21-3.54 4.58-5.15 7.2-2.64l.36.35.34-.25c2.46-1.85 5.83-.54 6.39 2.48.06.31.08.74.04.95l-.06.38.52.11c3.02.65 3.9 4.57 1.44 6.43-2.24 1.69-5.36.3-5.78-2.58l-.11-.71-.64-.12c-.67-.12-1.68-.58-1.91-.85-.19-.23-.25-.21-.85.26l-.54.42.23.3c.12.17.37.59.54.94.37.74.24.74 1.18.06 1.18-.85 1.33-.91 1.33-.57 0 .24-.22 1.12-.46 1.84-.04.12.11.19.73.33.84.18 1.43.4 1.43.53 0 .05-.36.16-.8.26-.99.22-1.38.38-1.79.73-1.56 1.31-1.05 4.62 1.05 6.71.3.3.54.57.54.61 0 .07-6.71.11-7.42.04Zm6.65-.59c-.21-.21-.52-.56-.68-.77l-.31-.39-1.12.63c-.62.34-1.16.59-1.19.56-.1-.09.04-.19 1.02-.76 1.13-.64 1.2-.71 1.06-.99-.16-.3-.19-.29-1.52.5-.66.39-1.23.68-1.27.64-.1-.1.3-.39 1.39-1.01.54-.3 1.01-.59 1.04-.64.07-.11-.12-.6-.23-.6-.09 0-2.07 1.12-2.56 1.45-.27.18-.28.18-.25 0 .03-.11.56-.48 1.39-.97 1.22-.72 1.35-.82 1.34-1.06-.01-.15-.03-.53-.04-.84-.04-.71.02-.71-1.31.03-.95.53-1.44.7-1.13.39.13-.13 2.25-1.3 2.35-1.3.05 0 .09-.06.09-.14 0-.98 1.13-2.02 2.55-2.36l.7-.17-.4-.12c-.22-.06-.68-.16-1.03-.23-.5-.09-.62-.15-.57-.27.17-.43.55-1.85.51-1.89-.03-.02-.48.26-1 .62-1.14.79-.99.79-1.35.03-.53-1.12-.86-1.49-1.18-1.35-.44.18-.45.22-.24.69.44.99.51 2.69.11 2.69-.1 0-.22-.04-.25-.1-.05-.09-1.59-.6-1.8-.6-.04 0 .1.13.31.29.77.55.97.9 1.06 1.83l.03.27.97-.55c.53-.31 1.05-.54 1.15-.52.14.04.11.08-.15.24-.19.1-.73.42-1.2.69l-.87.5-.18.9c-.22 1.15-.19 3.71.07 4.53l.17.52h4.9zM24 25.27c0-.17 2.26-1.47 2.54-1.47s.09.16-.67.58c-.39.21-.98.53-1.29.71-.44.25-.58.29-.58.18Zm10.24-2.67c2.23-.84 2.85-3.9 1.13-5.58-2.1-2.05-5.77-.56-5.77 2.34 0 2.44 2.36 4.09 4.64 3.24Zm-14.58-.01c1.5-.27 2.67-1.47 2.97-3.06.06-.3.05-.32-.34-.38-1.47-.25-2.91-1.63-3.29-3.17l-.12-.45-.43.08c-2.78.52-3.83 4.06-1.79 6.04.5.49 1.11.82 1.75.94.61.12.59.12 1.25 0Zm4.81-2.66-.23-.68-.63.02c-.74.02-.7 0-.82.54-.06.23-.21.65-.34.93s-.23.51-.22.52.4.11.86.23c.46.11 1 .29 1.2.38l.36.18.03-.72c.02-.55-.03-.88-.21-1.4Zm.43-1.29c.36-.17.82-.45 1.02-.63l.36-.32-.34-.57c-.86-1.42-.83-3.08.07-4.32l.32-.44-.49-.45c-2.53-2.29-6.54-.65-6.72 2.74-.17 3.15 2.96 5.31 5.78 3.99Zm4.7-.52c.47-1.13 1.53-1.98 2.79-2.23l.63-.12-.04-.91c-.17-3.92-5.5-4.88-7.16-1.28-1.02 2.2.72 5.09 3.09 5.12h.45zM17.9.1C11.33.06 14.74.04 29.98.02 44.07.01 51.2.03 51.2.1c0 .1-15.02.1-33.3 0Z"/></svg>