<svg xmlns="http://www.w3.org/2000/svg" width="51" height="51" viewBox="0 0 51 51"><path fill="#fff" fill-rule="evenodd" stroke="#fff" stroke-width=".41" d="M8.4 50.9C3.93 49.94.59 46.4.1 42.08-.08 40.55-.03 9.49.15 8.45.77 4.93 3.48 1.73 6.86.56c1.71-.59.74-.57 19.09-.54l16.8.03.75.24c4.22 1.31 7.16 4.79 7.6 9.01.13 1.25.13 30.53 0 32.1-.38 4.6-3.33 8.16-7.75 9.37l-1 .28-16.55.02c-15.72.02-16.59.01-17.4-.17Zm34.5-.33c4.72-1.19 7.61-4.69 7.9-9.57.14-2.25.13-30.46-.01-31.67-.57-5.1-4.44-8.7-9.74-9.04C38.47.12 9.61.27 8.54.45 4.3 1.19.96 4.67.4 8.91.32 9.5.3 14.57.32 26.05l.03 16.3.24.85c1.05 3.85 4.18 6.73 8.08 7.44 1.26.23 33.31.17 34.23-.07ZM14.83 43.9c-.63-.42-.78-1.25-.32-1.84.45-.58 1.89-.62 1.89-.05 0 .33-.15.39-.23.1-.11-.43-1.23-.32-1.41.14-.2.54.06 1.25.53 1.45.29.12.43.11 1.01-.05l.25-.08-.22.23c-.31.33-1.07.38-1.5.1Zm2.72.1c-.03-.06.01-.13.09-.16.19-.07.24-2.04.06-2.04-.06 0-.1-.04-.1-.1 0-.05.2-.1.44-.1.25 0 .48.05.51.1.03.06-.01.1-.09.1-.24 0-.24 1.95 0 2.04.28.11.04.26-.41.26-.24 0-.47-.05-.5-.1Zm2.1 0c-.03-.06.01-.13.09-.16.23-.09.23-1.92.01-2-.25-.1-.17-.24.14-.24.25 0 .42.14 1.02.85.39.47.73.85.75.85s.04-.34.04-.75c0-.61-.03-.75-.16-.75-.08 0-.12-.04-.09-.1.03-.05.22-.1.41-.1s.34.05.34.1c0 .06-.04.1-.1.1s-.1.45-.1 1.15c0 1.44-.03 1.45-1.06.18l-.79-.97-.03.79c-.02.63 0 .8.13.87.08.05.15.13.15.18 0 .13-.67.13-.75 0Zm3.6 0c-.03-.06.01-.13.09-.16.23-.09.23-1.92.01-2-.37-.15-.08-.24.75-.24h.9v.3c0 .16-.04.3-.1.3s-.1.25-.1.55-.04.55-.1.55-.1-.09-.1-.2c0-.16-.07-.2-.36-.2h-.35l.03.43c.03.35.07.43.27.45.35.05.71-.07.71-.23 0-.08.05-.15.1-.15.11 0 .13.3.04.54-.07.19-1.68.24-1.79.06Zm2.95.01c0-.06.05-.13.1-.16.06-.03.1-.5.1-1.06 0-.59-.04-.99-.1-.99a.1.1 0 0 1-.1-.1c0-.17 1.42-.12 1.68.06.41.29.14 1.04-.43 1.18-.41.1-.5-.04-.16-.25.49-.3.38-.89-.16-.89-.3 0-.37 1.93-.07 2.04.08.03.12.1.09.16-.08.13-.95.13-.95.01Zm2.9 0c0-.06.04-.13.1-.16s.1-.5.1-1.06c0-.59-.04-.99-.1-.99s-.1-.04-.1-.1c0-.05.2-.1.45-.1s.45.05.45.1c0 .06-.04.1-.1.1s-.1.4-.1 1v1h.41c.32 0 .42-.04.46-.2.03-.11.1-.2.15-.2.06 0 .08.1.04.22-.03.13-.06.29-.06.36 0 .09-.24.12-.85.12-.47 0-.85-.04-.85-.09Zm2.85-.01c-.03-.06.01-.13.09-.16.23-.09.23-1.92.01-2-.37-.15-.08-.24.75-.24h.9v.3c0 .16-.04.3-.1.3-.05 0-.1.25-.1.55s-.04.55-.1.55-.1-.09-.1-.2c0-.16-.07-.2-.3-.2-.29 0-.3.02-.3.45 0 .4.02.45.23.45.38 0 .67-.12.67-.26 0-.08.05-.14.11-.14.07 0 .09.09.05.22-.03.13-.06.29-.06.36 0 .15-1.66.17-1.75.02Zm2.9.01c-.03-.06 0-.13.08-.18.07-.04.27-.28.45-.52l.32-.44-.21-.36c-.12-.2-.32-.46-.46-.59-.2-.18-.21-.23-.09-.28.29-.11.51.02.75.45l.24.44.24-.29c.12-.16.23-.37.23-.46 0-.18.16-.23.43-.12.11.04.04.17-.29.51-.24.24-.44.49-.44.54 0 .15.72 1.19.82 1.19.05 0 .06.05.03.1-.14.23-.47.08-.77-.35-.39-.55-.37-.55-.71 0-.28.43-.49.56-.62.36ZM24.6 42.46c0-.14.04-.28.1-.31.23-.14.07-.25-.35-.25h-.45v.4c0 .39.01.4.35.4.3 0 .35-.03.35-.24Zm8.7.05c0-.11.04-.23.1-.26.25-.16.09-.35-.3-.35h-.4v.4c0 .38.02.4.3.4.23 0 .3-.05.3-.19Zm-8.23-1.88c-.04-.03-.07-.19-.07-.34 0-.26.02-.27.34-.22.45.07.48-.01.54-1.99.07-2.47-.01-3.15-.39-3.23-.64-.14-.23-.3.76-.3.98 0 1.4.16.81.31l-.26.06v1.92c0 2.19-.1 2.72-.62 3.25-.4.41-.97.69-1.11.54Zm-9.67-.21c.08-.05 1.59-.15 3.35-.21s3.65-.13 4.21-.17c.79-.04 1.03-.02 1.12.09.1.12-.06.15-1.01.2-2.14.12-7.83.19-7.67.09Zm11.6-.17c0-.18 1.54-.2 6.26-.08 3.85.1 2.74.2-2.33.22-3.43.01-3.93-.01-3.93-.14ZM14.25 39c-.04-.06-.05-.12-.04-.13.46-.24.44-.13.47-2.11.02-1.81.02-1.86-.18-1.86-.13 0-.2-.07-.2-.2 0-.19.05-.21.72-.18l.72.03.69 1.5c.37.83.72 1.53.76 1.58.04.04.38-.62.76-1.45.8-1.78.67-1.63 1.46-1.63.65 0 .93.19.45.31l-.26.06v3.77l.28.03c.16.02.27.09.27.18 0 .12-.19.16-.97.18-.92.03-.98.01-.98-.17 0-.13.08-.21.23-.23.22-.03.22-.06.25-1.57.01-.85-.01-1.52-.04-1.48-.04.04-.42.82-.83 1.74-.42.91-.81 1.68-.87 1.7s-.46-.74-.9-1.69l-.79-1.73-.06.7c-.04.39-.07 1.05-.08 1.48l-.01.79.3.11c.17.06.29.16.27.22-.05.14-1.34.19-1.42.05Zm6.35-.06c0-.08.1-.18.23-.23.18-.07.38-.49 1.02-2.1.75-1.91.98-2.31 1.22-2.07.04.03.43.95.88 2.04.63 1.51.88 2 1.06 2.09.52.26.28.38-.76.38-.82 0-1-.03-1-.15 0-.08.1-.16.23-.18.25-.04.26-.1.11-.62-.11-.37-.13-.38-.72-.44-1.03-.1-1.03-.1-1.21.37-.22.58-.21.65.12.69.6.07.29.3-.45.33-.58.02-.73 0-.73-.11Zm8.56.01c-1.14-.41-1.73-2-1.17-3.2.72-1.57 3.52-1.63 4.22-.1.93 2.01-.95 4.05-3.05 3.3Zm3.71.09c-.15-.16-.06-.33.21-.36l.27-.03.03-1.87.02-1.87-.27-.03c-.16-.02-.28-.09-.28-.16 0-.16 2.15-.25 2.84-.12.94.17 1 1.34.1 1.89l-.29.18.59.94c.32.52.69.99.82 1.06s.24.18.24.25c0 .18-1.16.15-1.28-.03-.04-.08-.37-.61-.73-1.18-.75-1.21-.71-1.08-.34-1.16.91-.2.95-1.44.05-1.61-.55-.1-.55-.08-.55 1.92v1.84h.31c.24 0 .3.04.27.18-.03.18-1.84.32-2.01.16Zm-2.06-.51c.87-.51.9-2.83.04-3.39-1.06-.7-2.1.1-2.1 1.61.01 1.57.98 2.41 2.06 1.78Zm-7.61-1.28c0-.02-.09-.28-.21-.57s-.25-.64-.31-.78c-.09-.24-.11-.22-.35.35-.49 1.18-.51 1.05.22 1.05.36 0 .65-.02.65-.05Zm-5.06-4.98c-.03-.08.07-.37.21-.66.32-.63.44-.55-1-.76-4.02-.58-8.88-1.81-12.71-3.23C2.79 26.94.8 26.08.8 25.98c0-.16.35-.07 1.38.38 3.5 1.49 7.91 2.82 12.24 3.68 1.76.36 4.06.71 4.12.65.02-.02.05-4.34.07-9.59l.04-9.55-.28-.59c-.15-.33-.41-.82-.58-1.08-.16-.27-.27-.53-.25-.57.03-.04 1.39-.11 3.03-.15s2.99-.09 3.02-.11c.02-.02-.26-.37-.63-.77-.36-.4-.66-.75-.66-.79s1.49-.07 3.3-.07 3.3.03 3.3.07-.29.39-.65.78-.65.73-.65.76 1.37.08 3.05.12 3.08.11 3.1.15c.03.05-.13.4-.36.8-.91 1.56-.82.53-.87 11.13l-.04 9.38.44-.07c5.22-.77 10.79-2.29 15.73-4.3 1.13-.47 1.83-.7 1.89-.64.11.11-.66.47-2.89 1.35-4.15 1.63-8.98 2.95-13.54 3.7-.85.13-1.56.27-1.59.3-.03.02.12.32.32.66.2.33.34.65.3.7-.07.13-4.21.12-4.29-.01-.03-.05.08-.3.25-.56.4-.57.44-.55-.83-.46l-1.07.07.26.38c.44.66.41.67-1.9.67-2.28 0-2.31-.01-1.91-.61.14-.23.25-.42.23-.44-.07-.05-2.18-.15-2.18-.09 0 .03.14.25.31.5.16.24.27.49.24.54-.1.16-4.04.13-4.11-.03Zm2.4-.28.31-.01-.32-.13c-.27-.13-.37-.12-.77.01-.59.2-.59.28 0 .2.26-.03.61-.06.78-.07Zm5.24.04.54-.06-.33-.14c-.28-.12-.39-.11-.81.03-.75.25-.53.31.6.17Zm6.22.03c0-.23-1-.35-1.41-.17l-.44.2h.93c.5.01.92-.01.92-.03Zm-12.62-.33.74-.28-.07-1.83c-.09-2.18.06-17.14.16-16.27.04.33.07 4.5.08 9.26.01 9.69-.07 8.85.84 9.18.73.26.7.27.47-.11-.19-.32-.2-.54-.2-9.69v-9.36l-.87-.74c-.96-.81-2.08-1.69-2.17-1.69-.03 0 .09.3.27.68l.32.67-.03 9.85c-.04 9.47-.05 9.86-.23 10.18-.3.52-.31.52.69.15Zm5.38-.01.69-.29.06-9.21c.03-5.07.08-9.24.11-9.27.11-.11.18 8.36.12 13.32l-.07 5.18.77.26c.81.28.83.27.61-.11-.15-.27-.23-15.72-.08-18.03l.06-1.07h1.26l1.26-.01.69-.54.69-.54-5.29-.03c-2.91-.02-5.3-.02-5.32-.02-.01.01.28.27.66.58l.69.56h2.48l.49-.35c.7-.5.8-.43.18.11l-.52.46v9.3c0 9.25 0 9.31-.21 9.64-.25.41-.21.42.67.06Zm5.42.02.72-.27.01-9.06c.01-4.98.04-9.33.08-9.66.09-.87.21 6.14.21 12.9v5.8l.75.27c.41.14.75.26.75.25s-.11-.24-.25-.51l-.25-.49v-8.76c.01-9.98.03-10.38.48-11.35.18-.38.32-.7.32-.73 0-.06-1.4 1.02-2.35 1.81l-.8.67-.05 9.37-.05 9.37-.23.33c-.28.39-.26.39.66.06ZM24 21.9v-9.1h-2.3v18.09l.38.04c.2.02.72.04 1.15.05L24 31zm4.73 9.04.77-.07V12.8h-2.17l-.06 1.22c-.04.66-.07 4.76-.07 9.1V31h.38c.22 0 .73-.03 1.15-.06Zm.14-19.83 2.42-.08.98-.74.98-.74-1.3-.06c-.71-.04-2.09-.07-3.05-.08l-1.74-.01-.53.52c-.99.98-.63.41.56-.89l1.19-1.29-2.8-.01h-2.8l.44.46c1.55 1.63 2.18 2.34 2.13 2.39-.03.03-.34-.22-.68-.56l-.63-.62-1.54.01c-.85.01-2.21.04-3.03.08L18 9.55l.96.73.95.74 2.32.07c3.22.11 3.88.11 6.64.02ZM25.5 9.7c0-.67.04-1.1.1-1.1s.1.43.1 1.1-.04 1.1-.1 1.1-.1-.43-.1-1.1Z"/></svg>