<svg xmlns="http://www.w3.org/2000/svg" width="51" height="51" viewBox="0 0 51 51"><path fill="#fff" fill-rule="evenodd" stroke="#fff" stroke-width=".452" d="M8.65 51.04C4 49.93.2 45.76.05 41.6c-.04-.9-.03-.91.05-.28.66 5.16 4.68 9.11 9.95 9.77l.7.08-.75.01c-.41 0-1.02-.06-1.35-.14Zm32.65.02c5.25-.84 8.57-3.99 9.7-9.22l.2-.89-.05.71c-.32 4.7-5.04 9.29-9.75 9.49l-.95.04zM11.55 38.53c-1.26-1.58-1.67-2.41-1.68-3.38-.04-2.44 3.46-3.18 4.43-.93.45 1.06.13 2.09-1.22 3.9-.86 1.15-.93 1.17-1.53.41Zm1.36-.6c.96-1.31 1.29-2.01 1.29-2.77 0-1.27-.74-2.01-2-2.01-1.84 0-2.65 1.71-1.67 3.5.33.58 1.53 2.25 1.62 2.25.02 0 .36-.44.76-.97Zm-1.34-.67c-.67-.91-.9-1.48-.85-2.06.15-1.5 2.03-1.91 2.7-.59.37.71.17 1.47-.68 2.65-.56.79-.59.79-1.17 0Zm1.46-.9c.62-1.23.24-2.26-.83-2.26-1.52 0-1.64 1.72-.21 3.33.19.23.6-.19 1.04-1.07Zm3.82.89c-.24-.08-.41-.11-.43-.05-.06.18-1.59.12-1.66-.06-.08-.21-.08-3.09.01-4.52l.06-1.12h1.77v1.49l.7-.06c1.6-.13 2.39.71 2.28 2.44-.1 1.5-1.38 2.38-2.73 1.88Zm16.59-.09c-1.45-.67-1.77-2.44-.64-3.56.93-.93 2.19-.94 3.11-.01 1.75 1.74-.24 4.61-2.47 3.57Zm4.85.1c-1.79-.64-2.1-2.96-.52-3.96 2.33-1.48 4.71 1.67 2.65 3.52-.61.55-1.38.71-2.13.44Zm4.38 0c-.98-.36-1.49-1.44-1.27-2.64.23-1.23.96-1.78 2.26-1.7l.73.05.03-.71.03-.71.88-.03.87-.03v5.81h-.85c-.52 0-.85-.04-.85-.1 0-.07-.06-.07-.19-.01-.34.19-1.23.22-1.64.07ZM4.7 34.4v-2.9l.25-.06c.42-.1 3.37.02 3.7.15 1.25.51 1.58 2.5.58 3.44l-.3.28.43.85c.61 1.18.63 1.14-.55 1.14h-.99l-.32-.8c-.31-.78-.33-.8-.66-.8H6.5v1.6H4.7zm15.12.78.03-2.13h1.7l.03 2.13.02 2.12h-1.8zm2.3 0 .03-2.13.79-.03c.44-.02.83.01.88.06.06.06.27.04.55-.04.97-.29 1.77-.09 2.2.55.22.32.23.44.23 2.03v1.69l-.87-.03-.88-.03-.05-1.4-.05-1.4-.36-.03c-.53-.04-.58.08-.61 1.54l-.03 1.29-.93.03-.92.03zm5.04.72c-.04-.77-.04-2.08 0-2.9l.07-1.5H29v.81c0 .79 0 .8.23.72.49-.18 1.7-.09 2.03.14.56.4.64.72.64 2.52v1.61h-1.8v-1.29c0-1.54-.02-1.61-.44-1.61-.61 0-.65.11-.68 1.55l-.03 1.3-.86.03-.86.03zm-20.86.4v-.8h.49c.56 0 .56 0 .92.9l.27.65.77.03c.89.03.89.05.29-1.04-.41-.73-.42-.87-.09-1.08.59-.39.79-1.61.4-2.41-.36-.72-.79-.85-2.77-.85H4.9v5.4h1.4zm9.9.6c0-.11.02-.2.05-.2s.23.09.45.2c1.36.69 2.64-.18 2.64-1.8 0-1.64-1.22-2.41-2.77-1.75-.15.06-.17-.01-.17-.79v-.86H15v5.4h.6c.53 0 .6-.02.6-.2Zm5.2-1.7v-1.9H20v3.8h1.4zm2.3.78c0-1.37.05-1.55.41-1.73.86-.45 1.13-.09 1.18 1.55l.03 1.31.62-.03.61-.03V35.5c0-1.66-.05-1.87-.51-2.17-.34-.22-1.26-.21-1.82.02-.4.16-.44.16-.55.01-.1-.14-.25-.16-.72-.14l-.6.03-.02 1.93-.02 1.92h1.39zm5.04.85c.03-.16.05-.75.05-1.33 0-1.16.04-1.24.68-1.36.72-.14.83.07.83 1.61v1.35h1.4v-1.33c0-2.58-.45-2.98-2.72-2.41l-.28.06V31.7h-1.3v5.4h.64c.62 0 .65-.01.7-.27Zm6.39.13c1.51-.65 1.59-2.84.12-3.58-1.94-1-3.82 1.52-2.32 3.11.56.59 1.47.79 2.2.47Zm5.01-.19c1.4-1.08.86-3.38-.83-3.55-2.05-.19-3.12 2-1.64 3.4.61.58 1.81.65 2.47.15Zm4.14.18c.33-.14.38-.14.48 0 .08.1.28.15.68.15H46v-5.4h-1.3v1.62l-.32-.06c-.91-.17-1.11-.18-1.53-.06-1.48.41-1.71 3.05-.34 3.73.43.21 1.29.22 1.77.02Zm-32.35-.73c-.66-.1-.93-1.04-.44-1.53.76-.75 1.94.07 1.5 1.04-.16.34-.63.56-1.06.49Zm4.63-.33c-.46-.36-.37-1.38.15-1.64.42-.22.67-.18 1 .14.86.87-.19 2.25-1.15 1.5Zm17.19-.03c-.65-.65-.22-1.66.7-1.66.4 0 .85.5.85.95 0 .8-1 1.26-1.55.71Zm4.66-.02c-.63-.52-.22-1.64.59-1.64.22 0 .41.09.61.29.84.85-.29 2.12-1.2 1.35Zm4.8 0c-.63-.8.04-1.9 1-1.64l.4.11-.03.87-.03.87-.56.03c-.51.03-.59 0-.78-.24Zm-30.63 0c.16-.11.22-.25.22-.54 0-.67-.68-.93-1.16-.44-.6.59.24 1.47.94.98Zm4.92-.04c.24-.13.36-.74.21-1.06-.21-.48-1.02-.48-1.15-.01-.22.83.29 1.42.94 1.07Zm17.13-.01c.4-.22.52-.83.21-1.13-.21-.21-.77-.2-.97.02-.52.58.09 1.46.76 1.11Zm4.82-.14c.46-.45.19-1.15-.45-1.15-.65 0-.94.79-.44 1.19.35.27.59.26.89-.04Zm4.9-.5v-.7l-.42-.03c-.54-.04-.79.27-.7.86.08.45.31.64.77.6l.35-.03zM6.32 33.58l.03-.83h.68c.63 0 .71.02.93.28.61.71.14 1.37-.96 1.37h-.71zm1.49.41c.34-.54.03-.99-.68-.99H6.6v1.22l.56-.04c.33-.03.6-.11.65-.19Zm12.33-1.43c-.66-.66-.09-1.74.81-1.52.85.22.98 1.39.19 1.72-.49.2-.62.18-1-.2Zm1.08-.13c.41-.37.11-1.13-.45-1.13-.41 0-.67.26-.67.66 0 .55.7.85 1.12.47Zm8.71-4.17c-1.6-1.3-4.16-2.38-6.2-2.61-.69-.08-.76-.25-.1-.25 1.58.01 4.47 1.16 6.16 2.44.29.23.59.45.67.51.23.16 2.64-.11 3.52-.4 2.3-.77 4.47-2.78 5.12-4.75l.14-.43-.52-.48c-2.24-2.06-5.67-3.33-9.02-3.33-3.13 0-5.07.66-8.77 3-4.98 3.15-7.82 4.06-13.13 4.21l-2.05.06.87.33c3.61 1.39 7.61 1.34 9.39-.13 3.89-3.2 9.05-4.24 13.39-2.71 1.46.52 3.23 1.48 2.71 1.48-.04 0-.47-.2-.95-.44-4.92-2.51-10.75-1.74-15.19 2.02-1.72 1.46-6.28 1.37-9.97-.19-1.59-.68-1.58-.69 1.02-.69 3.2 0 5.47-.33 7.98-1.16 1.79-.6 2.77-1.1 5.6-2.9 3.81-2.41 5.93-3.14 9.11-3.14 2.87 0 5.49.82 7.96 2.48 1.95 1.31 1.99 1.39 1.43 2.59-1.32 2.86-4.14 4.67-7.45 4.79l-1.3.04zM12.1 22.7c-1.42-.3-1.55-.34-1.58-.56-.04-.29.7-1.25 1.77-2.32 6.08-6.04 14.59-7.68 18.76-3.63l.51.5.9-.88c3.27-3.23 8.22-4.07 12.29-2.1 1.46.71 1.63.98.44.73-.57-.12-.97-.14-1.74-.08-1.09.09-1.08.09-1.63 0l-.37-.07.28.18c.4.26.34.38-.4.81-2.67 1.55-4.07 1.81-9.23 1.69-.82-.02-3.33.23-4.32.43-2.12.44-3.53 1.09-5.59 2.61-3.32 2.44-6.86 3.38-10.09 2.69Zm3.57-.16c2.37-.35 4.15-1.11 6.36-2.72 2.76-2.02 4.85-2.78 8.19-2.98l1.09-.07-.33-.35c-.49-.52-1.69-1.27-2.56-1.61-5-1.92-12.83 1.08-17.27 6.63-.54.68-.54.68.53.92 1.65.37 2.49.41 3.99.18Zm21.04-5.89c1.3-.22 2.54-.62 3.64-1.15 1.53-.74 1.52-.72.75-1.08-.36-.17-.77-.34-.92-.37-.16-.03-.28-.1-.28-.16 0-.12.41-.08 1.7.16.55.1 1.1.12 2.05.07l1.3-.07-.51-.22c-2.69-1.17-6.16-1.18-8.68-.04-1.26.57-3.92 2.58-3.71 2.8.22.22 3.52.26 4.66.06ZM.01 9.79C-.05 6.01 3.51 1.66 7.76.33l.89-.28H21.6L34.55.04 21.95.1C15.02.13 9.26.19 9.15.22c-.11.04-.54.15-.95.24C4.06 1.41.63 5.38.11 9.83l-.08.72zm51-.44C50.14 4.18 46 .44 40.75.1l-1.2-.08 1.55.02c3.51.06 6.69 2.01 8.7 5.35.78 1.31 1.46 3.45 1.38 4.38-.02.31-.05.24-.17-.42Z"/></svg>