<svg xmlns="http://www.w3.org/2000/svg" width="51" height="51" viewBox="0 0 51 51"><path fill="#fff" fill-rule="evenodd" stroke="#fff" stroke-width=".446" d="M3.9 38.38c.01-.25 4.79-12.41 4.92-12.49.22-.14 2.72-.11 2.91.04.09.06.37.66.62 1.32.26.66 1.18 3.05 2.05 5.3s1.72 4.46 1.89 4.89c.44 1.1.49 1.06-1.26 1.06h-1.48L13 37.02l-.55-1.47-1.96-.03c-1.08-.01-2.08.02-2.21.07-.22.08-.8 1.39-1.23 2.79-.03.09-.44.12-1.6.12-1.17 0-1.55-.03-1.55-.12Zm13.06.04c-.02-.04-.12-.46-.22-.92-.64-3.17.96-6.29 3.73-7.25.79-.28.83-.31.41-.4-1.66-.36-4.02-2.67-3.86-3.78.04-.31 2.57-.39 2.83-.1.08.1.32.37.52.61 1.07 1.26 3.39 1.28 4.56.03.24-.26.46-.53.49-.61.05-.16 2.89-.23 3.04-.08.04.05-.11.45-.34.91-.67 1.36-1.92 2.43-3.41 2.94l-.64.21.44.12c3.08.83 4.98 4.39 4.1 7.7l-.17.65-1.39.03c-1.57.03-1.6.02-1.4-.55 1.04-3.02-.49-5.65-3.2-5.51-2.25.12-3.48 2.44-2.77 5.2.11.42.17.79.14.82-.08.09-2.8.07-2.86-.02Zm12.11.01c-.14-.13-.08-12.41.05-12.5.19-.12 3.39-.16 3.68-.05.22.09.42.58 1.69 4.07 1.29 3.52 1.46 3.94 1.56 3.73.07-.13.72-1.89 1.45-3.93s1.39-3.76 1.48-3.82c.22-.18 3.53-.18 3.7-.01.13.13.18 12.1.06 12.42-.09.24-2.69.24-2.78 0-.03-.09-.06-1.92-.07-4.07 0-2.16-.03-3.85-.06-3.77s-.68 1.83-1.45 3.89c-.76 2.05-1.43 3.82-1.49 3.92-.18.35-1.86.28-2-.08-.06-.16-.75-1.97-1.53-4.03l-1.41-3.75.03 3.78c.02 2.08.01 3.89-.02 4.03-.06.24-.07.24-1.45.24-.76 0-1.41-.03-1.44-.07Zm-22.04-.78c.1-.27.34-.92.54-1.42l.35-.93h2.33c1.76 0 2.36.03 2.42.13.04.06.28.71.54 1.42l.47 1.3 1.32.03c1.04.02 1.31 0 1.27-.1-.03-.07-1.08-2.78-2.34-6.03l-2.28-5.9-1.36-.03-1.36-.03-.16.38c-.09.21-1.13 2.88-2.32 5.93s-2.19 5.61-2.22 5.68c-.04.1.23.12 1.28.1l1.33-.03zm12.4.08c-.43-1.31-.14-3.32.63-4.36 1.49-2.03 4.91-1.5 5.85.92.33.82.38 2.43.11 3.29l-.2.63 1.21-.03 1.22-.03.13-.5c.48-1.86-.13-4.44-1.36-5.72-.84-.88-2.5-1.73-3.35-1.73-.8 0-.72-.25.15-.44 1.78-.4 3.25-1.48 4.01-2.93l.38-.73h-1.28l-1.28.01-.27.39c-1.27 1.83-4.31 1.73-5.58-.18-.14-.22-.2-.23-1.37-.2l-1.22.03.3.63c.72 1.49 2.89 3.02 4.29 3.02.15 0 .33.07.4.15.13.16.06.18-.78.3-1.49.2-3.16 1.47-3.94 2.98-.61 1.2-.77 3.6-.33 4.85.03.09.37.12 1.24.12h1.19zm12.27-3.84c0-3.39.03-4.3.12-4.27.07.03.85 1.97 1.72 4.31l1.6 4.27h1.54l.32-.82c.26-.68 2.69-7.3 2.85-7.76.03-.08.11-.12.18-.1.09.04.13 1.02.15 4.36l.02 4.32h2.3V26.1l-1.71.02-1.72.03-.88 2.45c-2.21 6.13-2.08 5.8-2.23 5.8-.12 0-.23-.29-2.12-5.45l-1.02-2.8-1.76-.03-1.76-.02v12.1h2.4zM8.65 33.4c-.04-.06.23-.92.59-1.93.36-1 .7-1.97.77-2.14.06-.18.16-.33.22-.33.11 0 1.58 3.9 1.61 4.27.01.2-3.07.32-3.19.13Zm2.63-1.02c-.16-.46-.47-1.3-.68-1.88s-.4-.98-.43-.9c-.07.2-1.16 3.26-1.23 3.45-.05.13.14.15 1.29.15h1.36zm33.86-3.99c-.04-.07-.04-1.58 0-3.38.1-4.69-.02-5.26-1.08-5.26-1.15 0-1.3.36-1.36 3.3l-.05 2.3h-2l-.03-6.33-.02-6.33 1.02.03 1.03.03.05 2.99c.04 2.68.07 2.97.2 2.81.29-.36.99-.58 1.82-.58q2.235 0 2.58 2.13c.11.7.14 7.01.04 7.88l-.07.52h-1.03c-.66 0-1.05-.04-1.1-.11Zm1.96-4.12c0-4.31-.04-4.71-.51-5.31-.76-.96-2.99-.97-3.79-.02-.38.46-.4.28-.4-2.94v-3.11l-.78.03-.77.03-.03 6.08-.02 6.07h1.7v-2.17c.01-2.92.18-3.33 1.44-3.41.56-.04.65-.01.94.23.49.41.52.68.52 4.78v3.77h1.7zM13.37 25.4c-4.24-1.06-4.65-7.96-.57-9.51 2.67-1.01 5.54.38 5.95 2.89l.07.42h-2.17l-.23-.5c-.59-1.29-2.52-1.51-3.45-.41-.6.72-.83 2.07-.56 3.31.49 2.27 3.42 2.63 4.15.51l.12-.36 1.07-.03 1.08-.03-.06.53c-.15 1.23-1.17 2.53-2.35 2.99-.64.25-2.37.36-3.05.19Zm8.14-.05c-3.04-.95-3.42-5.42-.59-6.96.82-.44 2.56-.5 3.41-.12 2.93 1.35 2.69 6.08-.35 7.07-.61.19-1.86.2-2.47.01Zm6.42-.01c-.54-.2-1.18-.89-1.33-1.46-.48-1.76.87-3 3.43-3.15 1.05-.06 1.14-.13.85-.66-.4-.76-2.08-.54-2.08.27 0 .14-.16.16-1.05.16-1.23 0-1.23 0-.74-.99.55-1.1 1.58-1.56 3.33-1.49 1.46.06 2.24.51 2.67 1.53.15.36.3 5.66.16 5.76-.05.04-.47.05-.95.03-.86-.03-1.02-.1-1.02-.46 0-.15-.05-.14-.36.07-.77.53-2.04.69-2.91.39Zm7.93 0c-1.53-.48-2.29-1.62-2.3-3.49-.02-2.54 1.37-3.93 3.83-3.83 1.79.07 2.77.9 3.06 2.6.08.49-.1.58-1.19.58-.85 0-.86 0-.92-.27-.22-1.04-.89-1.4-1.8-.97-.96.46-1.08 2.72-.18 3.43.71.56 1.83.07 1.98-.86l.06-.43h1c1.19 0 1.21.02.96.93-.54 1.94-2.47 2.93-4.5 2.31Zm-20.25-.18c1.56-.33 2.53-1.29 2.87-2.83l.1-.43h-1.65l-.17.43c-.44 1.16-1.71 1.73-2.94 1.33-2.23-.74-2.45-4.97-.32-6.08 1.18-.62 2.76-.1 3.2 1.07.08.21.16.23.92.27 1.01.05.95.09.75-.55-1.04-3.3-6.07-3.45-7.62-.23-1.84 3.83.95 7.85 4.86 7.02Zm8.42-.12c1.77-.6 2.65-3.09 1.77-4.98-1.22-2.58-5.29-2.38-6.3.32-1.12 2.97 1.52 5.69 4.53 4.66Zm6.27-.08c.19-.1.47-.3.62-.43.35-.33.58-.25.58.22v.35h1.46l-.04-2.48c-.02-1.36-.08-2.64-.13-2.85-.56-2.19-5.22-1.99-5.75.26l-.06.27h.58c.8 0 .96-.06 1.16-.41.55-.94 2.2-.72 2.49.34.16.6.12.62-1.13.75-2.24.22-3.28.93-3.28 2.26 0 .78.45 1.5 1.15 1.82.42.2 1.89.14 2.35-.1Zm7.8.14c.97-.27 1.76-1.11 2-2.11.15-.62.15-.63-.71-.63l-.72-.01-.12.43c-.42 1.4-2.16 1.53-2.82.22-.43-.84-.24-2.47.36-3.04.81-.77 2.23-.4 2.46.64l.07.3h.79c.9 0 .9 0 .65-.84-.57-1.9-3.51-2.47-5.23-1.02-.94.8-1.33 3.12-.74 4.44.61 1.35 2.39 2.07 4.01 1.62Zm-9.16-1.19c-.78-.34-.67-1.39.18-1.79.47-.23 1.91-.47 2.09-.36s.04 1.22-.18 1.52c-.45.6-1.45.9-2.09.63Zm1.41-.35c.41-.17.65-.6.65-1.17v-.42l-.52.07c-1.48.19-2.17.76-1.67 1.39.24.32.95.37 1.54.13Z"/></svg>