<svg xmlns="http://www.w3.org/2000/svg" width="51" height="51" viewBox="0 0 51 51"><path fill="#fff" fill-rule="evenodd" stroke="#fff" stroke-width=".421" d="M4.36 47.59c-.81-.19-1.57-.96-1.72-1.73-.03-.17-.04-9.74-.02-21.26l.03-20.95.3-.55c.32-.58.76-.94 1.34-1.09.79-.21 31.52-.08 31.91.13.49.26.79.55 1.03 1.01l.22.4.03 9.68.02 9.67h4.68c5.25 0 5.17-.01 5.79.75.51.62.52.72.47 7.5-.05 6.59-.08 6.92-.5 7.39-.6.64-.32.61-5.59.66l-4.8.05-.05 3.4c-.06 4-.1 4.17-1.25 4.78l-.4.22-15.55.02c-9.24.01-15.71-.03-15.94-.08Zm31.84-.41c.31-.16.54-.38.75-.72l.3-.49.03-3.39c.03-3.32.03-3.38-.17-3.38s-.2.08-.23 3.38c-.03 3.72-.04 3.76-.71 4.26l-.28.21-15.82-.04c-17.72-.03-16.19.04-16.64-.77-.23-.39-.23-.4-.23-5.51 0-3.36.03-5.13.1-5.13s.1 1.75.1 5.05c0 5.62 0 5.64.68 5.99.46.24 31.6.26 31.97.02.52-.34.54-.49.61-4.1l.07-3.36H13.82l-.48-.32c-.33-.23-.57-.5-.76-.87l-.28-.53v-6.27c0-4 .04-6.39.1-6.63.15-.52.67-1.17 1.15-1.42l.4-.21 11.67.04 11.68.03v-4.68c-.01-3.96-.03-4.63-.14-4.33-.21.59-.53.96-1.08 1.23l-.52.26H20.08c-17.1 0-15.85.05-16.57-.63-.18-.18-.42-.5-.52-.72-.18-.39-.19-.07-.19 15.49 0 17.25-.03 16.35.58 17.07.63.74-.69.68 16.67.69h15.71zm10.98-8.32c.38-.2.77-.65.91-1.05.18-.54.15-13.21-.03-13.64-.18-.42-.55-.76-1.03-.92-.37-.13-32.28-.13-33.07 0-.42.07-.92.49-1.19.98l-.22.42-.03 6.2c-.02 3.41 0 6.34.03 6.51.09.51.61 1.2 1.08 1.43l.42.21h16.43c13.95 0 16.47-.02 16.7-.14Zm-29.43-2.78c-.03-.07-.04-2.4-.03-5.18l.03-5.05h2.45c2.94 0 3.51.12 4.38.9 1.68 1.51 1.4 4.38-.53 5.37-.66.35-1.33.48-2.72.55l-1.33.06-.02 1.71-.03 1.71-1.08.03c-.8.02-1.09-.01-1.12-.1Zm9.7 0c-.03-.07-.04-2.4-.03-5.18l.03-5.05 1.75-.03c.97-.01 2.05.02 2.42.08 5.03.84 5.11 9.09.09 10.16-.88.18-4.19.2-4.26.02Zm9.97 0c-.14-.14-.18-9.93-.04-10.16.07-.09.81-.12 3.38-.1l3.29.03v1.9l-2.22.03-2.23.02v2.3h1.99c1.12 0 2.02.04 2.06.09.03.05.02.48-.01.95l-.07.86H39.6l-.02 2.08-.03 2.07-1 .03c-.7.02-1.04-.01-1.13-.1Zm-17.64-1.85.02-1.73h.63c3.5-.02 5-.97 5.01-3.2.02-2.57-1.73-3.49-6.16-3.25l-1.38.07v9.77l.63.04c.34.02.76.03.92.03l.3-.01zm11.4 1.67c2.55-.29 3.98-2.11 3.96-5.05-.01-2.75-1.34-4.44-3.75-4.75-.85-.11-2.65-.13-3.33-.04l-.46.07v9.76l.28.04c.54.08 2.49.07 3.3-.03Zm8.2-2.02.02-2.08h4v-1.37l-.82-.06c-.46-.04-1.36-.07-2.01-.07h-1.18l.03-1.37.03-1.38 2.23-.03 2.22-.02v-1.4h-6.3v3.53c0 1.95-.03 4.15-.07 4.9l-.06 1.36.49.04c.27.02.69.03.94.03l.45-.01zm-9.93.39c-.04-.14-.03-1.71.02-3.49l.08-3.23.9.03c2.16.07 3.14 1.56 2.75 4.2-.27 1.87-1.01 2.58-2.81 2.69-.88.06-.88.06-.94-.2Zm1.98-.18c1.01-.26 1.49-1.18 1.55-2.94.08-2.38-.55-3.24-2.4-3.33l-.88-.04v6.5l.68-.05c.37-.03.84-.09 1.05-.14ZM19.8 29.26V27.6h1.28c1.85 0 2.42.41 2.42 1.7 0 1.2-.49 1.52-2.38 1.58l-1.32.04zm2.88 1.2c.81-.42.83-1.89.04-2.43-.21-.14-.53-.18-1.49-.21L20 27.78v2.95l1.19-.06c.8-.03 1.28-.1 1.49-.21Zm13.3-15.42c.92-.46.96-.6 1.02-3.34.04-1.81.08-2.34.18-2.33.16.04.17-5.12.01-5.72-.15-.54-.52-1.01-1-1.25-.39-.2-.55-.2-16.15-.2-17.85 0-16.22-.08-16.81.82l-.28.42.03 5.05c.02 4.31.04 5.12.18 5.48.17.46.91 1.19 1.27 1.26.12.02 7.15.05 15.63.06l15.4.01z"/></svg>