<svg xmlns="http://www.w3.org/2000/svg" width="51" height="51" viewBox="0 0 51 51"><path fill="#fff" fill-rule="evenodd" stroke="#fff" stroke-width=".424" d="M14.6 51.01c-.65-1.23-7.26-1.83-11.68-1.07-1.95.33-2.92.34-2.92.01 0-.08.21-.11.77-.07.51.02 1.19-.03 1.98-.17 4.04-.69 9.33-.43 11.28.55.35.18.97.73.97.86 0 .16-.3.08-.4-.11Zm-3-1.62c-2.95-.36-5.81-1.17-8.72-2.48-1.29-.58-1.4-.61-2.13-.61-.57 0-.76-.03-.72-.12.11-.34 1.56-.14 2.67.37 4.72 2.15 10.58 3.28 12.02 2.31 2.56-1.72-4.11-4.36-11.12-4.4l-2.06-.01-.77-.64c-.42-.35-.77-.7-.77-.79 0-.16-.05-.2.93.6l.68.56 2.37.05c5.22.12 10.36 1.52 11.32 3.1.9 1.46-.82 2.42-3.7 2.06Zm-.25-1.65c-2.79-.41-6.15-1.34-6.15-1.7 0-.16.06-.17.75-.15 1.75.07 6.28 1.14 7.03 1.66.51.37-.05.43-1.63.19Zm.85-.25c-1.05-.43-4.34-1.16-5.95-1.33l-.5-.05.55.2c1.3.47 4.99 1.27 5.85 1.28h.3zm1.45-1.75c-2.67-.56-5.99-2.08-9.03-4.11-2.06-1.38-1.95-1.34-3.42-1.08-.99.17-1.2.18-1.2.06 0-.14.21-.19 1.43-.36 1.35-.19 1.43-.16 3.07.99 2.77 1.94 5.81 3.37 8.77 4.12 2.16.54 3.37.09 3.04-1.14-.45-1.65-5.86-4.12-11.46-5.22-1.48-.29-1.52-.31-2.12-1.07-1.09-1.39-1.45-2.42-1.01-2.86.46-.46 1.74-.59 3.15-.32l.78.15.95.98c3.29 3.39 8.77 6.79 10.44 6.48.8-.15 1.2-.86.92-1.6-.65-1.7-6.41-5.47-10.33-6.75-1.29-.43-1.36-.49-2.09-1.94-1.03-2.03-.7-2.76 1.16-2.64 1.68.12 2.26.44 3.17 1.75 3.23 4.67 8.17 8.84 9.75 8.23.35-.13.68-.66.68-1.07 0-1.67-4.35-5.95-8.74-8.59l-1.51-.91-.34-.99c-.4-1.14-.5-2.55-.21-2.9.21-.25 1.55-.17 2.3.15 1.42.61 1.47.66 2.67 3.02 2 3.94 4.47 7.25 6.39 8.55 1.11.76 2.14.31 2.14-.92 0-1.8-4.01-7.12-7.42-9.86-.7-.57-.9-.78-.98-1.08-.46-1.73-.39-3.41.16-3.77.53-.35 1.78.12 3.04 1.14l.76.6.28 1.24c1.56 6.84 5.78 13.05 7.11 10.48.82-1.59-2.1-7.79-5.47-11.58-.76-.86-.86-1.27-.68-2.83.17-1.47.48-2.09 1.04-2.09 1.6.01 4.18 3.38 5.82 7.57.71 1.82 1.54 5.13 1.54 6.17 0 .17.07.45.16.61.09.17.22.5.28.75.15.54.37.62.63.24.44-.67.18-3.42-.56-6.02-2.66-9.31-9.31-14.25-10.26-7.62-.16 1.17-.11 1.13-.91.65-2.75-1.66-4.52-.75-4.62 2.38-.02.7-.07 1.27-.09 1.27-.03 0-.38-.12-.77-.26-2.91-1.07-4.44.15-4.01 3.18.09.66.15 1.22.12 1.24-.02.03-.43 0-.9-.06-1.61-.2-2.83.14-3.34.92-.45.67-.41 2.12.09 3.25.41.94.41.93-.26.93-3.44.01-4.59 2.15-2.66 4.96.19.27.29.49.23.55-.12.12-1.22.33-1.3.25-.11-.11.16-.24.64-.31l.43-.06-.32-.47c-.88-1.28-1.09-3.1-.45-3.94.58-.76 1.64-1.18 3-1.18.37 0 .67-.02.67-.04 0-.03-.13-.38-.3-.78-1.12-2.8.06-4.48 3.07-4.36l1.14.04-.08-.5c-.15-.97-.1-2.47.11-2.89.71-1.43 1.85-1.67 4.44-.91.21.06.22.05.22-.73 0-3.21 2.17-4.45 4.91-2.8l.55.33.17-.87c1.2-6.32 7.36-2.38 10.38 6.63 1.07 3.21 1.45 6.22.92 7.24-.37.72-.96.69-1.09-.05-.04-.2-.14-.5-.24-.66s-.23-.7-.29-1.2c-.77-5.99-4.63-13.15-7.08-13.15-.51 0-.89 1.38-.81 2.99l.03.76.79.9c3.01 3.44 5.9 9.32 5.5 11.19-.4 1.89-2.16 1.59-3.72-.64-.57-.82-.73-.99-.38-.4 1.49 2.45 1.33 4.15-.37 4.15-1.84 0-5.37-4.28-7.93-9.6-.4-.82-.76-1.43-.94-1.58-.91-.77-2.96-1.33-3.3-.92-.3.36.15 2.96.61 3.51.06.07.41.3.77.5 4.47 2.47 9.42 7.26 9.42 9.12 0 3.68-6.14-.23-10.75-6.83-.98-1.41-1.63-1.75-3.32-1.75-.91 0-1.23.13-1.23.52 0 .6.68 2.16 1.32 3.01.07.1.67.36 1.33.58 4.68 1.56 10.45 5.66 10.45 7.43 0 3.03-6.02.51-11.51-4.81-1.56-1.51-1.49-1.48-3.29-1.48-1.93 0-2.18.51-1.07 2.15.8 1.19 1.02 1.37 1.75 1.49 5.36.92 11.32 3.47 12.23 5.23.76 1.48-.54 2.38-2.76 1.92Zm-.7-1.83c-2.64-.81-6.58-2.72-6.27-3.03.25-.25 4.88 1.43 6.47 2.34 1.62.93 1.53 1.23-.2.69Zm.15-.43c-1.06-.61-5.32-2.29-5.46-2.15-.11.11 2.79 1.41 4.51 2.03 1.44.51 1.69.55.95.12Zm1.63-3.24c-2.12-1.11-5.63-3.57-5.63-3.96 0-.55 5.04 2.46 6.52 3.9.84.81.59.83-.89.06Zm.17-.35c-.82-.72-5.35-3.54-4.85-3.02.54.56 4.86 3.35 5.15 3.33.03-.01-.11-.15-.3-.31Zm2.37-2.8c-1.85-1.39-5.02-4.67-4.82-4.98.29-.48 5.85 4.6 5.85 5.34 0 .27-.35.15-1.03-.36Zm.25-.36c-.63-.8-2.92-2.92-3.97-3.69l-.4-.29.41.5c.85 1.02 3.91 3.84 4.17 3.85.05 0-.05-.17-.21-.37Zm17.33-1.54c-.03-.13-.32-1.32-.64-2.64-.64-2.63-3.88-15.4-5.07-19.97-.85-3.27-.84-3.25-.46-3.35.44-.13 3.41-.09 4.17.05 2.51.46 5.08 1.68 6.83 3.26l.63.56 1.52-1.41c1.85-1.72 1.88-1.74 2.19-1.58.65.34.55.55-1.23 2.34l-1.6 1.62.51.79c1.85 2.83 2.72 6.55 2.3 9.88l-.05.39 2.1.61c2.58.76 2.45.71 2.45.98 0 .79-.29.81-2.62.19-1.01-.27-1.91-.51-2.01-.52-.15-.03-.25.15-.56.96-1.3 3.42-3.57 5.91-6.85 7.5-1.2.58-1.53.65-1.61.34Zm-14.58-.9c-1.71-1.76-4.33-5.62-3.96-5.85.45-.27 5.28 6.21 4.9 6.59-.09.09-.31-.09-.94-.74Zm16.14.28c3.32-1.67 5.57-4.17 6.74-7.52.39-1.11.34-1.07 1.18-.83 3.47.96 3.87 1.02 3.87.64 0-.21-.18-.28-2.27-.88-1.97-.57-2.28-.68-2.26-.84.51-3.86-.24-7.21-2.33-10.35l-.46-.69.4-.48c.23-.26.95-1.01 1.61-1.67 1.18-1.17 1.38-1.46 1.05-1.59-.19-.07-.35.06-2.17 1.75-1.59 1.49-1.41 1.41-1.98.88-1.81-1.7-4.53-3.04-6.99-3.44-.94-.15-3.3-.21-3.88-.09l-.3.06.64 2.47c1.16 4.47 4.65 18.22 5.2 20.46.29 1.21.56 2.3.59 2.43.08.31.16.29 1.36-.31Zm-15.77-.39c-.5-.88-3.2-4.46-3.6-4.78-.36-.29 1.12 1.99 2.01 3.1.88 1.1 1.84 2.11 1.59 1.68Zm3.59-1.3c-.99-1.06-3.92-7.18-3.45-7.18.41 0 3.39 5.35 3.74 6.72.15.59.02.79-.29.46Zm-2.53-.8c-1.23-2.11-2.62-5.68-3.1-7.98-.25-1.17-.32-1.29-1.26-1.96-1.98-1.42-2.76-1.26-2.75.55 0 .78.05 1.14.26 2.07.03.12.53.62 1.13 1.12 1.78 1.48 4.38 4.36 5.59 6.17.46.7.53.71.13.03Zm2.31-.26c-.43-1.08-2.32-4.66-2.63-4.97-.25-.26 1.54 3.47 2.23 4.64.6 1 .69 1.08.4.33Zm13.23-3.86c-.3-.3-.34-.4-.34-.86 0-1.4 1.83-1.66 2.3-.33.39 1.13-1.11 2.04-1.96 1.19Zm1.51-.28c.34-.4.33-.82-.04-1.19-.86-.86-2.14.26-1.36 1.2.41.48.99.48 1.4-.01Zm-4.21-11.42c-1.37-.6-.63-2.69.79-2.24 1.1.35 1.16 1.8.1 2.24-.39.17-.49.17-.89 0Zm1.05-.42c.4-.33.43-.89.07-1.31-.3-.35-.92-.39-1.26-.08-.94.85.23 2.2 1.19 1.39Z"/></svg>