<svg xmlns="http://www.w3.org/2000/svg" width="51" height="51" viewBox="0 0 51 51"><path fill="#fff" fill-rule="evenodd" stroke="#fff" stroke-width=".724" d="M33.42 41.9c-2.84-.57-4.32-3.7-3.83-8.08.25-2.15.93-6.47 1.42-9.04.54-2.81 1.15-6.11 1.24-6.68l.05-.35-.51.55c-2.12 2.27-4.81 7.43-6.29 12.05-.23.71-.54 1.66-.68 2.1l-.27.8-.98.49c-2.22 1.11-2.65.73-2.54-2.28.08-2.12.37-4.28 1.53-11.5.14-.87.23-1.6.21-1.62s-.29.27-.6.65c-2.35 2.86-5.09 9.31-6.76 15.93-.54 2.1-.47 2-1.86 2.7-1.35.68-1.83.71-2.2.15-.49-.75-.41-2.26.45-8.28.33-2.28.82-5.95 1.1-8.15.53-4.18.78-6.06.86-6.39.11-.46-1.58 1.68-2.91 3.67-.87 1.31-1.07 1.46-1.42 1.02-.69-.86-.6-1.23.92-3.83 2.35-4.01 4.04-6.11 5.16-6.41.83-.23 2.61.02 3.01.42.3.3.3.3-1.17 8.73-.64 3.69-1.16 6.97-1.11 7.02.02.02.07-.09.1-.24.42-1.69 2.79-6.94 3.87-8.58.76-1.16 2.37-2.72 3.2-3.13 1.21-.59 1.78-.54 3.05.24 1.33.81 1.33.34-.06 6.68-.33 1.54-.59 2.83-.58 2.88.02.05.25-.44.52-1.09 2.87-6.87 6.38-10.49 9.02-9.29 1.83.84 1.99 1.27 1.43 3.94-1.45 6.99-1.75 8.76-2.23 13.02-.7 6.22-.59 8.15.61 10.54.18.38.33.79.31.9-.05.36-1.24.62-2.06.46Zm1.41-.31c.46-.12.46-.19.02-1.1-.76-1.63-1.12-3.61-1-5.59.28-4.95 1.02-10.03 2.37-16.4.72-3.38.76-3.95.34-4.39-.53-.55-1.63-1.05-2.31-1.06-2.54-.01-5.89 4.47-8.41 11.25-.27.73-.48 1.16-.58 1.18-.09.02-.16.02-.16 0 0-.09.74-3.58 1.35-6.38.36-1.68.69-3.35.72-3.71l.06-.65-.38-.31c-1.16-.96-2.11-1.15-3.17-.65-2.48 1.19-4.67 4.69-6.83 10.92-.31.91-.64 1.84-.72 2.08-.18.53-.39.5-.35-.04.06-.69.81-5.35 1.57-9.74 1.24-7.13 1.23-6.94.68-7.17-.73-.31-2.34-.3-2.87.01-1.07.63-2.57 2.63-4.69 6.26-1.33 2.28-1.39 2.48-.96 3.16.29.48.32.46 1.06-.69.72-1.12 2.16-3.03 2.86-3.82.68-.75.72-.61.42 1.41-.14.93-.43 3.13-.65 4.89-.39 3.16-.96 7.3-1.44 10.6-.86 5.87-.59 6.86 1.58 5.79 1.26-.62 1.37-.76 1.75-2.32 1.69-6.89 4.69-13.83 7.17-16.62 1.02-1.16 1.01-1.36.24 3.48-.96 6.12-1.22 8.2-1.23 10.12-.01 1.59.15 2.06.66 1.97.46-.08 1.34-.42 1.94-.77l.52-.3.36-1.17c1.67-5.49 4.29-10.77 6.74-13.59 1.39-1.61 1.38-1.81.16 4.56-2.37 12.37-2.45 15.31-.48 17.41 1.12 1.2 2.48 1.71 3.66 1.38Zm-22.45-.35c-.29-.15-.63-.68-.53-.84.08-.13.86-.36 2.55-.74.85-.2 2.79-.67 4.3-1.05 3.97-1 7.47-1.7 8.55-1.71h.31l.37 1.33c.2.72.37 1.35.37 1.39 0 .05-.28.08-.62.08-1.53 0-7.65.65-11.85 1.25-1.71.25-3.13.45-3.15.45-.01-.01-.15-.07-.3-.16Zm2.39-.4c2.81-.43 5.17-.71 8.6-1.04 1.81-.17 3.58-.34 3.94-.38l.66-.07-.3-1.08-.3-1.07h-.34c-1.04 0-4.02.6-8.61 1.75-1.85.46-4 .98-4.77 1.15-1.61.37-1.68.4-1.35.75.29.31.39.31 2.47-.01Zm26.13-.32c-.83-.45-2.4-.98-3.57-1.2l-.92-.17-.06-.65c-.05-.66-.22-1.76-.32-2.17-.15-.62 4.23.03 5.25.77.85.61 1.13 1.86.7 3.09-.28.78-.27.77-1.08.33Zm.87-.48c.42-1.4-.07-2.6-1.26-3.04-1.36-.52-4.29-.82-4.17-.44.13.43.26 1.3.26 1.8 0 .6-.1.53 1.05.75.86.16 2.52.72 3.21 1.08.71.36.76.35.91-.15Z"/></svg>