<svg xmlns="http://www.w3.org/2000/svg" width="51" height="51" viewBox="0 0 51 51"><path fill="#fff" fill-rule="evenodd" stroke="#fff" stroke-width=".744" d="M12.41 46.56c-.15-.18-.17-.16 1.15-2.18.58-.88 1.03-1.67 1-1.74-.04-.1-.44-.14-1.78-.16l-1.73-.03v-.7l2-.03 2-.03 3.3-4.92c1.82-2.7 4.17-6.19 5.23-7.76 1.05-1.56 1.9-2.86 1.87-2.89s-4.61-.08-10.18-.11l-10.12-.06v-.7l10.12-.06c5.57-.03 10.15-.08 10.19-.11.03-.04-.81-1.34-1.87-2.9s-3.41-5.04-5.21-7.73l-3.29-4.9-2.02-.05-2.02-.05V9.1c0-.44.12-.47 2.02-.49.78 0 1.44-.05 1.47-.1.03-.04-.49-.9-1.15-1.89-1.19-1.79-1.3-2.05-.97-2.26.26-.16.46.08 1.86 2.17l1.26 1.87h4.93c2.71 0 4.93-.02 4.93-.04 0-.03-.52-.8-1.17-1.73-1.22-1.76-1.34-2.01-1.09-2.22.28-.24.51-.01 1.76 1.78l1.25 1.8.05-.8c.06-.81.15-.98.51-.99.32 0 .39.22.39 1.32V8.6h.88c1.99.01 2.62.13 2.62.49s-.21.41-1.58.41c-1.32 0-1.34 0-1.21.2.59.85 8.45 12.52 9.1 13.52.46.7.87 1.27.9 1.28.03 0 .54-.72 1.13-1.61 1.09-1.63 1.26-1.8 1.55-1.62.31.2.21.43-.91 2.1-.62.92-1.14 1.71-1.16 1.75s1.67.09 3.75.1l3.78.03v.7l-3.77.03c-2.08.01-3.78.05-3.78.08s.48.77 1.06 1.64c1.14 1.71 1.26 2.05.7 2.05-.26 0-.38-.14-1.31-1.57l-1.02-1.56-5.07 7.51-5.06 7.52 1.42.05c1.4.05 1.43.05 1.46.28.07.48-.08.52-1.84.52H27.1v2.3l-.27.06c-.45.12-.57-.05-.63-.87l-.05-.74L25 44.97c-1.16 1.75-1.36 1.93-1.68 1.61-.21-.21-.14-.36.98-2.03.61-.9 1.1-1.66 1.1-1.69s-2.22-.06-4.92-.06h-4.93l-1.29 1.95c-1.33 2.01-1.53 2.2-1.85 1.81Zm1.52-1.78c1.41-2.16 1.31-1.98 1.14-1.98s-2.5 3.47-2.42 3.6c.1.16.11.15 1.28-1.62Zm10.54.48c.4-.62.95-1.42 1.22-1.79.45-.6.48-.67.28-.66-.21 0-2.36 3.02-2.45 3.45-.1.43.32 0 .95-1Zm2.33-1.4c0-.41.03-.81.06-.9.04-.12 0-.16-.15-.16-.2 0-.21.05-.21.9 0 .73.03.9.15.9s.15-.15.15-.74Zm.35-1.84c.17-.26 2.58-3.84 5.35-7.97 2.78-4.12 5.17-7.67 5.3-7.88l.25-.38 3.85-.02c3.35-.02 3.85-.04 3.85-.17s-.5-.15-3.8-.17l-3.8-.02-.2-.25c-.11-.13-2-2.92-4.2-6.2s-4.65-6.93-5.45-8.11l-1.45-2.16-5.94.01c-3.27 0-5.96.02-5.99.04-.03.04 3.21 4.93 6.39 9.63.79 1.17 2.13 3.15 2.97 4.39.84 1.25 1.52 2.34 1.5 2.43-.03.14-.29.17-2.03.21-1.8.05-2 .07-2.03.22-.03.17.11.18 1.96.18 2.32 0 2.36.02 1.9.7-.17.25-2.54 3.76-5.26 7.8s-5.05 7.49-5.17 7.65c-.12.17-.25.36-.29.43-.06.09 1.16.12 5.96.12h6.03zm-12.4.08c.04-.07-.57-.1-1.74-.1-1.14 0-1.81.04-1.81.1s.65.1 1.74.1c1.06 0 1.77-.04 1.81-.1Zm15.55 0c0-.06-.55-.1-1.44-.1-.86 0-1.47.04-1.51.1s.47.1 1.44.1c.94 0 1.51-.04 1.51-.1Zm-13.35-.7c-.04-.06.15-.43.42-.83 3.77-5.62 8.86-13.07 8.93-13.07.05 0 .11.66.12 1.48.03 1.41.04 1.47.24 1.5.28.04.34-.45.34-2.68 0-.91.04-1.71.09-1.78.06-.1.65-.14 2.34-.19 2.04-.06 2.27-.08 2.27-.23s-.23-.17-2.27-.23c-1.25-.04-2.3-.1-2.34-.14-.04-.05-.09-.82-.1-1.73-.03-2.54-.07-2.92-.33-2.88-.2.03-.21.09-.24 1.43-.04 1.95-.03 1.94-1.22.15-.46-.69-2.49-3.71-4.52-6.71C18.66 12.48 17 9.95 17 9.86c0-.14.45-.16 4.58-.16h4.59l.2.22c.11.13 1.56 2.26 3.21 4.73s3.96 5.92 5.13 7.65c1.16 1.73 2.12 3.22 2.11 3.32 0 .09-1.69 2.65-3.75 5.7-2.05 3.04-4.42 6.55-5.25 7.79l-1.51 2.26-1.28.06c-2.09.11-8.01.08-8.08-.03Zm9.28-.47c.07-.52 0-10.48-.09-11.61l-.09-1.13-2.3 3.41c-1.27 1.87-3.23 4.78-4.37 6.46-1.15 1.68-2.08 3.07-2.08 3.09 0 .03 2 .05 4.44.05h4.44zm.58-5.41c.04-4.44.03-4.72-.13-4.72-.17 0-.18.3-.18 4.92 0 4.23.02 4.9.14 4.73.11-.16.14-1.1.17-4.93Zm4.99-2.76c2.48-3.67 4.49-6.7 4.46-6.73-.14-.15-8.95.1-9.01.25-.11.28-.18 13.38-.07 13.27.05-.05 2.13-3.11 4.62-6.79Zm8.34-3.54c-1.23-1.9-2.03-3.02-2.09-2.92-.09.14 2.02 3.33 2.16 3.25.06-.05.04-.16-.07-.33Zm-18.66-3.65c.03-.16-.49-.17-8.02-.17-7.07 0-8.06.02-8.06.15 0 .29 16.03.31 16.08.02Zm15.07.03c0-.25-4.58-.22-4.63.03-.03.16.11.17 2.3.15 1.99-.03 2.33-.05 2.33-.18Zm-.25-.45c0-.02-.68-1.04-1.51-2.27s-2.86-4.26-4.51-6.73c-1.66-2.47-3.05-4.54-3.11-4.6-.11-.11-.02 13.1.09 13.38.05.15.34.17 2.27.2 4.96.06 6.77.07 6.77.02Zm3.02-1.85c1.31-1.95 1.22-1.8 1.04-1.8-.19 0-2.39 3.26-2.3 3.41.09.14.08.15 1.26-1.61Zm-13.1-8 .03-5.25-4.48-.03-4.48-.02 2.72 4.02 4.38 6.53 1.66 2.5.07-1.25c.04-.69.08-3.61.1-6.5Zm.58.32c-.01-3.95-.03-4.7-.15-4.86-.13-.18-.15.37-.15 4.67 0 4.26.02 4.87.15 4.87s.15-.58.15-4.68ZM14.84 9.05c-.08-.21-3.55-.18-3.62.03-.03.09.38.12 1.82.12 1.62 0 1.85-.02 1.8-.15Zm15.46 0c0-.13-.23-.15-1.5-.15-1.29 0-1.49.02-1.44.15.05.12.31.15 1.5.15 1.21 0 1.44-.02 1.44-.15Zm-15.25-.93c-.68-1.05-2.42-3.52-2.48-3.52-.28 0 2.19 3.79 2.47 3.79.18.01.18 0 .01-.27Zm10.99.17c-.34-.55-2.58-3.65-2.66-3.68-.21-.07.01.32 1.17 2.02q1.2 1.755 1.38 1.77c.11 0 .15-.04.11-.11Zm.79-.76c.07-.91.04-1.03-.19-1.03-.11 0-.14.19-.14.95 0 .73.03.95.14.95.09 0 .15-.24.19-.87Z"/></svg>