<svg xmlns="http://www.w3.org/2000/svg" width="51" height="51" viewBox="0 0 51 51"><path fill="#fff" fill-rule="evenodd" stroke="#fff" stroke-width=".726" d="M7.4 51c-3-.83-5.31-2.76-6.61-5.54-.4-.87-.79-2.2-.79-2.7.01-.17.14.21.3.84.89 3.46 3.45 6.13 6.85 7.15.5.15 1.01.31 1.15.35l.25.08H8.3c-.14 0-.54-.08-.9-.18Zm35.65.05c2.29-.68 2.6-.83 3.8-1.85 2.05-1.74 3.37-3.91 4.11-6.75l.23-.9.01.61c.03 3.96-4.14 8.55-8.15 8.98l-.5.05zm6.21-4.01c.57-.8 1.17-2.01 1.44-2.92.28-.96.21-1.03-.09-.09-.49 1.51-1.33 2.9-2.67 4.38l-.58.64.73-.7c.4-.38.93-.97 1.17-1.31Zm-25.06-3c-8.61-3.71-13.59-8.79-14.64-14.93-.14-.81-.16-2-.16-8.41 0-8.63-.09-7.93.98-8.05 5.01-.57 9.08-2.07 13.43-4.93.86-.56 1.65-1.02 1.77-1.02s.84.42 1.59.93c4.36 2.91 8.07 4.36 12.46 4.86 2.25.26 2.01-.33 2.05 5.04.04 5.66-.11 11.57-.32 12.48-1.06 4.63-4.77 8.94-10.42 12.07-1.79.99-5 2.42-5.42 2.42-.15 0-.74-.21-1.32-.46Zm2.64-.25c8.65-3.68 13.62-8.81 14.45-14.92.18-1.29.15-15.71-.03-15.86-.08-.07-.76-.19-1.52-.27-4.45-.48-8.21-1.93-12.52-4.81-.85-.57-1.59-1.03-1.66-1.03s-.46.23-.87.51c-3.35 2.33-6.66 3.88-10.09 4.74-1.26.32-3.8.75-4.42.75-.55 0-.54-.19-.53 8.1 0 8.55-.02 8.27.75 10.45 1.75 4.93 6.41 9.11 13.74 12.31 1.48.65 1.25.64 2.7.03Zm-2.14-.2c-7.67-3.1-12.94-8.08-14.37-13.55l-.28-1.09V13.36l.3-.07c.17-.04.86-.15 1.55-.24 4.15-.56 8.64-2.37 12.69-5.11.51-.35.95-.64.97-.64.03 0 .64.4 1.37.88 4.37 2.91 8.38 4.48 12.58 4.92.63.06 1.24.16 1.37.21l.23.09-.04 7.63c-.04 7.4-.04 7.65-.26 8.59-1.29 5.75-5.95 10.34-13.97 13.76-1.42.61-1.2.59-2.14.21Zm2.65-.69c7.75-3.45 12.36-8.21 13.31-13.75.18-1.03.34-15.65.17-15.65-.92 0-4.09-.57-5.6-1.01-2.58-.75-6.23-2.55-8.77-4.33-.96-.67-.78-.67-1.73-.02-4.29 2.93-8.81 4.66-13.9 5.31-.41.05-.52.11-.57.28-.11.41-.07 14.02.05 14.84.8 5.89 6.24 11.5 14.29 14.72 1 .4.96.41 2.75-.39ZM24 33.54c-5.21-1.36-7.09-9.09-2.5-10.27.75-.2 4.44-.3 6.48-.19 1.53.09 1.67.12 2.26.41 3.87 1.9 1.75 8.8-3.09 10.06-.74.19-2.41.19-3.15-.01Zm3.35-.29c4.06-1.41 6.1-6.56 3.58-9.01-.83-.81-1.14-.87-4.63-.92-3.47-.05-4.56.04-5.37.43-3.14 1.54-1.94 7.17 1.95 9.14 1.2.61 3.28.78 4.47.36Zm-3.2-1.39c-1.59-.36-2.96-1.4-3.63-2.74-.9-1.82-.28-4.22 1.29-5.02l.36-.19.27.28c.34.36.34.39-.19.91-1.5 1.47-1.11 3.97.81 5.17.46.29.47.32.29.89-.16.51 2.37.78 3.83.4.6-.15.72-.21.67-.35-.22-.55-.18-.67.27-.94 1.92-1.12 2.32-3.79.79-5.23-.48-.45-.49-.53-.17-.83.33-.31.64-.23 1.22.31 1.87 1.72 1.27 5.22-1.14 6.65-1.19.71-3.26 1.01-4.67.69Zm-.99-.93c.05-.2.03-.3-.1-.37-2.16-1.29-2.64-4.24-.94-5.71.38-.32.38-.32.18-.5-.43-.39-1.65.95-1.89 2.06-.38 1.75.57 3.74 2.18 4.59.47.25.49.25.57-.07Zm5.37.11c1.72-.88 2.67-3.1 2.13-4.97-.29-1-1.38-2.09-1.73-1.74-.14.14-.12.2.27.64 1.09 1.22 1.2 2.92.3 4.31-.33.51-.56.73-1.37 1.28-.11.08-.14.19-.09.37.08.32.08.32.49.11Zm-4.19-.48c-.03-.08.06-.67.21-1.31l.27-1.15-.31-.35c-.75-.86-.07-2.25 1.09-2.25 1.18 0 1.85 1.47 1.05 2.3l-.27.28.2.89c.12.48.22 1.06.24 1.28l.03.4-1.23.03c-1.01.02-1.23 0-1.28-.12Zm2.26-.23c-.01-.59-.06-.63-1-.63-.83 0-.89.01-.95.23-.18.62-.26.57.89.57.94 0 1.06-.02 1.06-.17Zm-.2-.95c-.01-.07-.07-.41-.14-.75l-.13-.63.27-.29c.59-.61.42-1.48-.34-1.85-1.12-.55-2.16.94-1.3 1.86l.31.33-.13.55c-.22.93-.25.9.66.9.58 0 .8-.04.8-.12Zm-2.5-.6c-1.23-1.34-.68-3.67.99-4.16 1.9-.58 3.62 1.3 2.97 3.24-.18.56-.66 1.14-.92 1.14-.14 0-.12-.07.13-.32 1.42-1.5.49-3.93-1.48-3.92-1.94.02-2.88 2.59-1.45 3.93.14.14.26.28.26.33 0 .17-.22.07-.5-.24Zm-2.83-6.25c-.13-.13-.07-2.38.08-2.96 1.1-4.21 6.72-4.89 8.56-1.03.4.84.5 1.45.47 2.82l-.03 1.19-1.01.03-1.01.03-.06-1.27c-.1-2.14-.87-3.12-2.45-3.14-1.51-.01-2.33 1.05-2.4 3.13l-.04 1.27h-1.03c-.56 0-1.05-.03-1.08-.07ZM23 21.27c0-2.09.96-3.27 2.65-3.27 1.67.01 2.55 1.06 2.63 3.12l.04 1.18h1.71l-.06-1.27c-.06-1.48-.22-2.06-.76-2.9-1.79-2.78-5.99-2.46-7.49.56-.37.74-.37.76-.4 2.18l-.04 1.43H23zM51.06 8.72C50.51 4.09 46.76.44 42.2.11L41.15.03l1.01-.01c4.31-.07 8.58 4.03 9.01 8.62.07.81-.02.88-.11.08ZM.01 8.23C0 7.86.38 6.59.76 5.75 1.84 3.3 4.14 1.27 6.9.34l.85-.29h6.4l6.4-.01-6.2.06C7.36.16 7.5.15 5.72 1 2.86 2.36 1.13 4.48.25 7.7c-.16.59-.24.75-.24.53Z"/></svg>