<svg xmlns="http://www.w3.org/2000/svg" width="51" height="51" viewBox="0 0 51 51"><path fill="#fff" fill-rule="evenodd" stroke="#fff" stroke-width=".477" d="m22.4 45.72-.55-.07-.03-4.49c-.01-2.71.02-4.54.07-4.59.19-.19 2.78-.31 4-.19 3.16.3 4.63 1.56 4.78 4.12.16 2.63-1.28 4.48-3.92 5.06-.76.16-3.45.26-4.35.16Zm-8.95-.14c-.03-.07-.04-2.13-.03-4.57l.03-4.45.3-.08c.64-.18 3.46-.21 4.24-.04 1.71.36 2.57 1.21 2.69 2.61.16 2.05-1.51 3.44-4.15 3.45h-.62l-.03 1.58-.03 1.57-1.18.03c-.88.02-1.19-.01-1.22-.1Zm18.42.05c-.04-.03-.07-2.1-.07-4.59V36.5l.22-.05c.13-.03 1.53-.04 3.13-.03l2.9.03.03.77c.05 1.23.12 1.18-1.93 1.18H34.4v1.7l1.62.02 1.63.03v1.9l-1.65.03-1.65.02-.03 1.71c-.01.94-.05 1.75-.08 1.8-.06.1-2.27.12-2.37.02Zm-5.02-.37c2.44-.68 3.55-2.07 3.55-4.46 0-2.17-.92-3.35-3.11-3.97-.67-.19-4.71-.27-5.11-.11-.17.07-.18.37-.18 4.37v4.3l.28.04c.66.12 3.98-.01 4.57-.17ZM15.6 43.8v-1.6h.88c2.65-.01 4.04-1.15 3.9-3.19-.08-1.1-.56-1.69-1.74-2.14-.6-.22-4.39-.34-4.85-.15-.17.07-.29 8.09-.13 8.51.05.14.21.17 1 .17h.94zm18.52-.18.03-1.77 1.68-.03 1.67-.02v-.7c0-.86.05-.84-1.89-.79l-1.46.04v-2.2l1.83-.03 1.82-.02v-1.37l-.97-.06c-1.24-.09-3.86-.09-4.35-.01l-.38.07v8.67h2zm-10.04.42c-.05-.04-.08-1.41-.08-3.05V38l.26-.06c.74-.19 2.33.13 3.06.61 1.66 1.1 1.07 4.61-.91 5.3-.5.18-2.22.32-2.33.19Zm1.89-.35c1.34-.26 2.12-1.46 2.01-3.13-.1-1.59-1.06-2.36-2.95-2.36h-.73v5.71l.58-.06c.31-.03.8-.11 1.09-.16Zm-10.32-2.91c-.03-.08-.04-.75-.03-1.49l.03-1.34h.9c1.07 0 1.49.19 1.79.78.32.66-.06 1.52-.87 1.93-.43.23-1.75.31-1.82.12Zm1.72-.38c1.04-.47 1.1-1.78.1-2.08-1.42-.44-1.57-.34-1.57 1.09v1.19h.53c.29 0 .7-.09.94-.2Zm-3.66-9.67c-.59-.31-.88-1.16-.58-1.7.07-.13.42-.44.77-.69.84-.61 2.69-2.47 3.47-3.49 3.9-5.16 5.23-9.24 5.29-16.18.02-3.53.07-3.67 1.15-3.67.88 0 1.05.31 1.24 2.17.55 5.31 1.38 8.48 3.04 11.7 1.69 3.26 5.35 7.31 7.84 8.68.8.44 1.02.77.92 1.37-.09.49-.55 1.04-.95 1.13-.81.18-3.44-1.74-5.64-4.1l-.95-1.02-2.1-.08c-1.16-.04-3.2-.04-4.54 0l-2.43.08-.79 1.11c-.9 1.26-3.38 3.8-4.25 4.38-.7.46-1.05.53-1.49.31Zm.86-.24c.91-.34 3.11-2.52 4.65-4.59l.93-1.25 4.6-.03 4.61-.02 1.12 1.19c1.65 1.76 4.17 3.77 4.98 3.97.59.15 1.14-.37 1.14-1.08 0-.41-.1-.5-1.05-1.06-.99-.57-2.14-1.53-3.3-2.73-4.67-4.85-6.61-9.4-7.44-17.42-.21-2.05-.28-2.2-1.01-2.2-.85 0-.85.02-.85 3.26-.01 6.94-1.38 11.14-5.36 16.44-.9 1.19-2.46 2.78-3.51 3.56-.77.58-.78.59-.78 1.03 0 .77.57 1.2 1.27.93Zm7.23-7.83c0-.08.22-.6.49-1.15.58-1.18 1.32-3.34 1.65-4.81.25-1.14.38-1.3.56-.73.57 1.75 1.78 4.32 2.73 5.81.59.9.59.88-.14.96-1.31.13-5.29.07-5.29-.08Zm5.5-.22c0-.03-.27-.49-.59-1.02-.72-1.16-1.47-2.72-2-4.13l-.39-1.03-.12.45c-.63 2.44-1.09 3.78-1.74 5.07l-.36.72h2.6c1.43 0 2.6-.03 2.6-.06Z"/></svg>