<svg xmlns="http://www.w3.org/2000/svg" width="51" height="51" viewBox="0 0 51 51"><path fill="#fff" fill-rule="evenodd" stroke="#fff" stroke-width=".48" d="M29.47 45.03c-.13-.13-.08-7.78.05-7.91.14-.14 9.44-.17 9.66-.04.14.09.31 7.25.18 7.75l-.06.27h-4.89c-2.68 0-4.91-.03-4.94-.07Zm9.63-3.91v-3.79l-1.27-.06c-1.63-.09-3.64-.09-6.21 0l-2.02.06v7.57h9.5zm-17.53-5.79c-.1-.1-.08-7.81.02-7.87.23-.14 17.58-.19 17.67-.05.1.16.19 7.36.1 7.73l-.06.26h-8.84c-4.85 0-8.86-.03-8.89-.07ZM39.1 31.4v-3.8H21.7v7.6h17.4zm-27.23-5.87c-.13-.12-.08-7.81.04-7.89.14-.08 27.3-.06 27.39.02.07.08.13 7.42.05 7.71l-.05.23H25.61c-7.52 0-13.71-.03-13.74-.07ZM39.1 21.6v-3.8H12v7.6h27.1zm-27.25-7.52c-.03-.07-.04-1.89-.03-4.03l.03-3.9h8v8l-3.98.03c-3.13.02-3.99 0-4.02-.1Zm9.7 0c-.03-.07-.04-1.89-.03-4.03l.03-3.9h8v8l-3.98.03c-3.13.02-3.99 0-4.02-.1Zm9.8 0c-.03-.07-.04-1.89-.03-4.03l.03-3.9h7.9v8l-3.93.03c-3.09.02-3.94 0-3.97-.1ZM19.7 10.15V6.3H12V14h7.7zm9.7 0V6.3h-7.7V14h7.7zm9.7 0V6.3h-7.6V14h7.6zm-24.9 2.09c-.01-.08-.01-3.02 0-4.08v-.39l1.14.05c1.16.04 1.51.15 1.83.57.19.25.15 1.02-.06 1.3-.19.24-.19.25.05.43.61.49.48 1.5-.26 1.93-.37.21-2.69.37-2.7.19Zm9.72-2.15.03-2.24.65-.03c1.98-.1 2.88.56 2.31 1.71-.2.41-.2.42-.02.57.63.5.53 1.48-.18 1.93-.31.19-.53.22-1.59.26l-1.22.03zm10.73 2.04c-2.11-1.1-1.48-4.12.9-4.3.99-.08 1.39.11 1.43.68l.03.46-.56-.19c-1.06-.36-1.96.09-2.1 1.06-.18 1.2 1.15 2.08 2.27 1.5.36-.19.5-.07.46.4-.05.51-1.69.78-2.43.39Zm-18.15-.78c.41-.5.02-.95-.82-.95h-.58v1.1h.64c.44 0 .67-.05.76-.15Zm9.72-.02c.49-.45.09-.93-.79-.93h-.63v1.1h.62c.43 0 .67-.05.8-.17ZM16.18 9.54c.56-.39.19-.94-.62-.94h-.46v1.1h.43c.23 0 .53-.07.65-.16Zm9.6.09c.33-.08.47-.49.27-.79-.13-.2-.24-.24-.7-.24h-.55v1.1h.38c.2 0 .47-.03.6-.07Z"/></svg>