<svg xmlns="http://www.w3.org/2000/svg" width="51" height="51" viewBox="0 0 51 51"><path fill="#fff" fill-rule="evenodd" stroke="#fff" stroke-width=".659" d="M9.8 26C9.8 3.67 9.82.8 9.95.8s.15 2.85.15 25.03v25.04l7.22.06c3.98.03 10.98.03 15.56 0l8.32-.06.03-22.16c.01-12.19.02-23.44.02-25 0-2.19.03-2.85.13-2.88.1-.04.12 5 .1 25.14l-.03 25.18-15.83.03-15.82.02zm1.72 24.18c-.07-.07-.12-.36-.12-.65 0-.47-.02-.53-.2-.53-.34 0-.8-.29-.9-.56-.13-.34-.13-34.86 0-38.34.25-6.6.39-7.54 1.23-7.94.61-.28 3.84-.81 7.32-1.18 2-.22 12.25-.18 14.35.05 3.61.39 5.91.85 6.61 1.31 1.05.7 1.02-.02 1.06 25.11l.04 20.91-.21.27c-.14.18-.35.29-.61.33l-.39.07v.48c0 .82.1.79-3.31.79-3.47 0-3.39.02-3.39-.75v-.54l-1.38-.06c-1.77-.08-10.24-.08-12.09 0l-1.43.06v.42c0 .9.11.87-3.39.87-2.25 0-3.1-.03-3.19-.12Zm6.3-.68.03-.5H11.6v.43c0 .6-.19.57 3.16.57h3.02zm21.58.38c0-.07.03-.3.06-.5l.07-.38H33.2v.43c0 .24.03.47.07.5.13.14 6.13.08 6.13-.05ZM25.6 48.6c2.56 0 6.9.02 9.66.05 4.77.05 5.01.04 5.17-.13.2-.21.39-9.72.2-9.72-.17 0-1.76.57-3.03 1.08-3.05 1.24-6.78 1.82-11.78 1.82-5.84 0-8.84-.48-12.74-2.06-.86-.34-1.79-.7-2.07-.78l-.51-.15-.02 1.67c-.01.92-.01 1.92-.01 2.22.01.3.02 1.72.02 3.14.01 2.27.03 2.62.18 2.78.16.17.41.18 5.22.13 2.78-.03 7.15-.05 9.71-.05Zm-11-2.92c-.26-.28-.26-.72 0-.98l.2-.2h-.39c-.39 0-.4 0-.34.33.07.44-.27.87-.68.87-.45 0-.83-.42-.75-.83.13-.62.24-.67 1.75-.67.92 0 1.31-.03 1.21-.1-.08-.05-.97-.1-1.98-.1-1.2 0-1.81-.03-1.77-.1.04-.06.82-.1 2-.1h1.94l.2.29c.24.33.19.41-.22.41-.29 0-.29.01-.14.18.24.27.21.74-.06 1-.3.28-.71.28-.97 0Zm21 .02c-.24-.24-.26-.77-.03-1.02.15-.17.15-.18-.14-.18-.43 0-.47-.1-.16-.42l.27-.28h1.88c1.6 0 1.88.02 1.88.15s-.25.14-1.83.08c-1.34-.04-1.86-.03-1.91.05-.05.09.27.12 1.22.12 1.65 0 2.16.42 1.51 1.24-.47.59-1.46.03-1.19-.68.09-.25.09-.26-.3-.26h-.4l.2.2c.11.11.2.33.2.5a.8.8 0 0 1-.2.5.8.8 0 0 1-.5.2.8.8 0 0 1-.5-.2Zm-20.16-.26c.29-.28.07-.74-.34-.74-.29 0-.54.43-.4.69.13.25.52.28.74.05Zm21.06-.05c.09-.16.08-.26-.05-.45-.27-.41-.85-.27-.85.21 0 .46.69.64.9.24Zm-22.81-.13c.07-.08.11-.27.09-.43-.06-.51-.88-.41-.88.11 0 .42.53.63.79.32Zm24.51-.05c.17-.32-.04-.71-.38-.71-.33 0-.52.16-.52.45 0 .45.69.65.9.26Zm-21.59-1c-.12-.16-.21-.32-.21-.35s4.16-.06 9.25-.06 9.25.04 9.25.08c0 .05-.13.2-.28.35l-.28.27H16.81zm17.75-.06c.17-.13-.86-.14-8.7-.15-7.89 0-8.87.02-8.76.15.19.22 17.16.23 17.46 0ZM11.1 43.5c-.6-.6.26-1.57.88-1 .44.41.15 1.2-.43 1.2-.14 0-.34-.09-.45-.2Zm28.07.02c-.39-.42-.1-1.22.44-1.22.3 0 .69.39.69.71 0 .58-.76.92-1.13.51ZM28.15 41.4c4.35-.24 6.71-.71 9.93-1.99.81-.32 1.74-.67 2.06-.77l.59-.19-.06-15.05c-.09-20.43-.09-20.37-1.28-20.96-1.97-.99-11.34-1.7-17.77-1.35-4.79.26-9.71.98-10.23 1.5-.74.74-.89 4.62-.89 22.46v13.41l.48.12c.26.07 1.31.46 2.33.87 3.17 1.26 5.54 1.74 9.64 1.94 2.38.12 3.11.12 5.2.01Zm-5.05-.77c-6.14-.33-9.26-1.88-10.46-5.18-.39-1.07-.51-2.42-.86-9.2-.26-5.31-.1-17.42.27-20.19.38-2.83.51-2.92 5.05-3.4 7.43-.79 19.53-.35 21.22.77.87.58 1.08 1.86 1.31 7.99.22 5.92.11 13.26-.29 19.58-.31 5.06-1.17 6.76-4.19 8.27-2.21 1.12-6.89 1.65-12.05 1.36Zm5.2-.53c6.37-.37 9.41-2.06 10.15-5.66.25-1.24.62-7.23.67-11.06l.03-1.88H12.2v.58c0 2.99.53 11.76.76 12.67.89 3.47 4.04 5.06 10.59 5.34 2.55.12 2.85.12 4.75.01Zm-2.62-18.8c7.49-.01 13.66.02 13.72.05.07.04.09-1.09.08-3.47l-.03-3.53h-4.78l-.89 1.39c-.48.76-.88 1.42-.88 1.47s.76.09 1.69.09c1.92 0 2.33.05 2.29.29-.05.23-.71.32-2.44.34-2.25.03-2.31-.11-.98-2.19.48-.74.84-1.37.82-1.4-.03-.02-3.97-.03-8.76-.02l-8.71.03.83 1.35c1.2 1.95 1.2 2.13-.01 2.26-.64.07-3.14-.09-3.34-.22-.49-.3.27-.44 2.38-.44.78 0 1.44-.04 1.48-.09.03-.05-.34-.73-.82-1.5l-.87-1.41H11.9l-.02 1.38c-.05 3.29 0 5.91.1 5.75.06-.1 3.02-.13 13.7-.13Zm13.42-7.95v-.75H12.3v1.5h26.8zm-.05-1.75c-.02-.36-.07-1.5-.1-2.53-.1-3.19-.3-4.52-.78-5.05-1-1.1-13.28-1.61-20.67-.87-3.46.35-4.19.53-4.52 1.1-.33.58-.68 4.04-.68 6.73v1.33l13.4-.03 13.4-.02zm-25.44.24c-.39-.33-.4-.7-.07-2.84.52-3.27.74-3.85 1.67-4.24 2.27-.95 15.18-1.15 19.68-.3 1.79.33 2.1.93 2.81 5.26.26 1.62.26 1.74-.09 2.09l-.29.29h-23.4zm23.81-.21c.24-.21.23-.51-.07-2.22-.6-3.4-.82-4.02-1.55-4.38-2.16-1.06-14.95-1.17-19.84-.18-1.43.3-1.57.59-2.21 4.7-.3 1.92-.3 1.76-.05 2.03l.21.22h11.66c10.71 0 11.68-.01 11.85-.17Z"/></svg>