<svg xmlns="http://www.w3.org/2000/svg" width="51" height="51" viewBox="0 0 51 51"><path fill="#fff" fill-rule="evenodd" stroke="#fff" stroke-width=".8" d="M17.99 38.49c-2.97-.38-5.46-2.66-6.03-5.51-.69-3.38 1.14-6.64 4.48-7.98l.89-.36.32-1.2c1.67-6.1 6.15-11.81 10.77-13.72.92-.38 1.42-.41 1.89-.09.75.51.73 1.45-.06 2.22l-.44.42.65.06c3.21.3 6.28 3.04 7.34 6.55.31 1.03.33 1.02-1.07 1.02-4.22 0-7.2-1.48-8.83-4.4l-.31-.55.04.7c.08 1.21.53 2.15 2 4.18.4.55 1.07 1.47 1.49 2.05.43.59.98 1.46 1.23 1.93l.46.86.61.17c3.55.99 5.85 4.78 4.98 8.22-1.28 5.06-7.16 7.14-11.37 4.01-3.37-2.51-3.7-7.43-.69-10.42.86-.86 1.95-1.52 2.89-1.75.26-.07.47-.18.47-.24 0-.16-.96-1.56-1.96-2.86-1.82-2.36-2.43-3.56-2.89-5.75l-.07-.3-.19.25c-1.99 2.47-3.09 4.48-4.09 7.45l-.37 1.1.83.26c.83.26 2.21.98 2.49 1.29.14.15.1.26-.34 1.11-1.48 2.83-1.45 5.91.07 8.82.52 1 .56.89-.54 1.52-.83.47-1.89.83-2.88.95-.89.11-.83.11-1.77-.01Zm15.11-.35c4.3-.95 6.56-5.85 4.49-9.74-.82-1.54-2.64-2.96-4.37-3.41-.53-.13-.53-.13-.98-.99-.25-.47-.84-1.4-1.32-2.06-.47-.65-1.22-1.7-1.67-2.32-1.33-1.84-1.85-3.03-1.85-4.22 0-.53.16-.98.26-.73.82 1.99 3.22 4.02 5.46 4.62 1.29.35 4.47.56 4.63.31.09-.15-.42-1.57-.88-2.44-1.42-2.67-3.96-4.44-6.63-4.63-.46-.03-.84-.08-.84-.11 0-.02.26-.3.58-.61 1.38-1.32.58-2.63-1.22-2.01-4.47 1.53-9.34 7.69-10.97 13.86l-.32 1.21-.56.18c-6.08 1.91-6.63 10.04-.85 12.66 2.19.99 5.21.7 7.01-.67l.32-.24-.3-.52c-1.62-2.74-1.67-6.27-.15-9.16l.44-.83-.4-.3c-.58-.41-1.35-.76-2.27-1.02-.93-.26-.9-.08-.33-1.77.8-2.43 2.11-4.87 3.61-6.75.85-1.07 1.01-1.2 1.01-.85 0 1.56.94 3.52 3.02 6.26 1.3 1.72 2.01 2.79 1.96 2.95-.02.07-.29.18-.58.26-1.09.27-1.99.8-2.91 1.72-4.91 4.91-.28 12.86 6.61 11.35Z"/></svg>