<svg xmlns="http://www.w3.org/2000/svg" width="51" height="51" viewBox="0 0 51 51"><path fill="#fff" fill-rule="evenodd" stroke="#fff" stroke-width=".412" d="M7.22 47.19c-1.54-.3-2.77-1.5-3.23-3.14-.23-.84-.2-13.3.03-14.06.38-1.2 1.33-2.24 2.51-2.73.59-.24 12.85-.39 14.25-.17 1.37.21 2.38.95 2.99 2.19l.38.76v14.11l-.32.67c-.6 1.26-1.58 2.05-2.9 2.33-.77.17-12.91.2-13.71.04Zm23.08 0c-1.24-.24-2.55-1.31-3.02-2.46l-.23-.58V37.1c0-6.46.01-7.09.18-7.55.37-1.06 1.45-2.08 2.57-2.43.84-.26 13.66-.26 14.5 0 1.26.39 2.24 1.28 2.71 2.45l.24.58.03 6.64c.02 4.38-.01 6.82-.08 7.15-.34 1.64-1.58 2.91-3.18 3.25-.64.13-13.02.14-13.72 0Zm-8.78-.47c1.02-.41 1.88-1.35 2.24-2.43.22-.65.34-11.7.15-13.39-.21-1.93-1.22-3.12-2.96-3.51-1.04-.24-13.21-.2-14 .04-1.21.37-2.1 1.18-2.57 2.34l-.23.58-.03 6.3c-.03 7.66-.01 7.91 1.09 9.1 1.16 1.26 1.06 1.24 9.04 1.22l6.7-.02zm23.3-.09c.84-.4 1.41-.97 1.81-1.81l.32-.67v-14.1l-.27-.57c-.53-1.13-1.6-1.94-2.87-2.18-.94-.18-13.05-.13-13.75.05-1.09.29-1.91.94-2.43 1.95-.34.68-.38 1.6-.41 9.05-.02 6.02.04 6.4 1.13 7.5 1.15 1.15 1.08 1.14 9 1.12l6.8-.02zm-36.94.06c-1.07-.07-1.76-.38-2.41-1.08-1.08-1.16-1.09-1.17-1.05-8.91l.03-6.35.31-.65c.62-1.32 1.5-1.92 3.04-2.1 1.16-.13 11.53-.13 12.6.01 2.06.25 3.04 1.32 3.21 3.47.11 1.44.11 11.03 0 12.19-.18 1.78-1.03 2.89-2.54 3.27-.66.16-11.28.29-13.19.15Zm13.4-.46c.81-.33 1.36-.84 1.74-1.61l.33-.67v-13.7l-.24-.53c-.33-.73-1.15-1.47-1.89-1.69-.52-.16-1.16-.18-7.27-.18h-6.7l-.61.28c-1.17.54-1.77 1.45-1.94 2.93-.12 1.07-.13 10.46-.01 11.91.16 1.87.95 2.95 2.51 3.39.9.25 13.43.14 14.08-.13Zm14.75-3.14c-6.19-1.03-6.33-10.15-.18-11.44 4.45-.93 8.24 2.86 6.76 6.76-.72 1.89-2.72 2.62-3.97 1.44l-.33-.32-.23.25c-.52.55-1.52.71-2.33.37-2.13-.88-2.05-4.94.11-5.54.75-.21 1.84-.01 2.08.38.1.16.26.14.26-.03 0-.42.9-.6 1.31-.27.23.19.24.24.29 2.12l.05 1.94.25.12c.8.38 1.42-.9 1.24-2.54-.54-5.11-8.55-4.22-8.54.94.01 3.06 1.91 4.65 5.36 4.49 1.55-.07 1.74-.02 1.74.49 0 .75-1.92 1.17-3.87.84Zm2.73-.3c.68-.13.84-.23.84-.54 0-.32-.17-.36-1.2-.23-3.82.47-6.53-2.22-5.79-5.74.88-4.15 6.92-5 8.66-1.21.74 1.6.23 4.13-.82 4.13-.86 0-.95-.23-.95-2.43 0-1.88-.02-1.97-.55-1.97-.38 0-.55.16-.55.51 0 .38-.15.44-.34.14-.63-.96-2.45-.84-3.15.22-1.19 1.8-.1 4.44 1.84 4.43.33 0 1.15-.34 1.15-.48 0-.04.1-.19.21-.31l.22-.23.24.31c.74.95 2.38.94 3.18 0 .94-1.12 1.13-3.24.43-4.72-2.07-4.32-9.12-3.62-10.42 1.03-1.21 4.36 2.33 7.95 7 7.09Zm-25.81-.74c-4.89-2.55-6.92-7.04-4.29-9.44 1.35-1.24 3.26-1.03 4.71.52l.59.63.65-.65c2.17-2.2 5.22-1.48 5.8 1.36.52 2.55-1.49 5.45-5.2 7.5-1.16.64-1.19.64-2.26.08Zm2.04-.27c1.89-1.03 3.67-2.57 4.39-3.8 2.51-4.27-1.36-8.02-4.71-4.56l-.68.71-.67-.69c-.98-1.01-1.55-1.29-2.62-1.29-2.72 0-3.76 2.92-2.07 5.8.77 1.31 2.55 2.86 4.4 3.84.96.51 1.03.51 1.96-.01ZM36.54 39c-.99-.4-1.09-2.66-.13-3.15 1.03-.54 1.84.17 1.84 1.6 0 1.35-.68 1.97-1.71 1.55Zm.91-.2c.51-.19.75-1.62.39-2.31a.927.927 0 0 0-1.7.08c-.51 1.21.31 2.61 1.31 2.23ZM6.89 24.02c-1.4-.37-2.34-1.29-2.87-2.81-.2-.58-.31-11.68-.12-13.36.18-1.66.86-2.78 2.07-3.43.92-.48 1.42-.53 5.28-.5l3.5.03.02 1.85c.02 1.14.07 1.93.14 2.07.16.3.59.46.91.34.54-.2.58-.39.58-2.43V3.9h8.4v1.93c.01 1.35.04 1.97.13 2.08.34.45.92.46 1.27.02.18-.24.2-.41.2-2.14V3.9h8.4v1.89c0 2.17.09 2.44.8 2.44s.8-.27.8-2.44V3.9h3.63c2.94 0 3.74.03 4.22.15 1.63.43 2.66 1.56 2.95 3.25.23 1.33.09 13.65-.16 14.26-.47 1.14-1.22 1.9-2.34 2.36l-.55.23-18.3.02c-17.02.02-18.35.01-18.96-.15Zm37.81-.39c.81-.33 1.53-1.01 1.92-1.81l.33-.67.03-6.7c.03-7.17.02-7.51-.46-8.38-.92-1.71-2.86-2.16-8.14-1.92l-1.68.07v.9c0 .86.01.91.3 1.19 1.11 1.11.22 3.09-1.39 3.09-1.63 0-2.53-1.97-1.41-3.09.29-.28.3-.33.3-1.19v-.89l-.77-.07c-.98-.08-4.45-.08-5.9.01l-1.13.06v.89c0 .86.01.91.3 1.19 1.11 1.11.22 3.09-1.39 3.09-1.62 0-2.51-1.83-1.45-2.99.33-.38.34-.4.34-1.28v-.9l-.82-.06c-1.07-.09-4.31-.09-5.84-.01l-1.19.07.04.91c.03.83.06.94.32 1.23 1.04 1.19.19 3.03-1.4 3.03-1.65 0-2.55-1.94-1.41-3.06.28-.28.29-.32.3-1.2v-.91l-.92-.07c-1.22-.08-4.16-.07-5.54.03-2.23.16-3.55 1.29-3.84 3.28-.13.9-.13 12.39 0 13.18.2 1.22.98 2.33 1.98 2.81.91.44.35.43 19.62.41l18.35-.02zm-10.58-4.05c-.33-.33-.07-.88.43-.88.66 0 .65-.1-.24-2.37-.58-1.51-.58-1.51-.31-1.81.6-.64.97-.16 1.77 2.28.03.08.25-.42.5-1.13.5-1.39.63-1.53 1.2-1.25.49.23.46.35-.61 3.11-.58 1.48-.81 1.94-1.05 2.07-.27.14-1.54.13-1.69-.02Zm1.7-.38c.15-.18 1.05-2.39 1.53-3.76.21-.59.16-.84-.19-.84-.22 0-.28.11-.73 1.47-.27.81-.54 1.48-.59 1.5s-.28-.54-.52-1.25c-.48-1.45-.64-1.75-.95-1.7-.35.05-.31.29.32 1.97.75 1.96.77 2.31.15 2.31-.46 0-.71.29-.46.54.15.17 1.26-.02 1.44-.24Zm-24.99-.95c-.76-.38-1.13-1.07-.78-1.45.27-.3.63-.25 1.06.15.65.58 1.59.48 1.59-.16 0-.34-.32-.59-.77-.59-.59 0-.83-.15-.83-.54 0-.42.08-.48.79-.57.56-.08.71-.19.71-.55 0-.67-1.1-.62-1.53.08-.36.57-1.14.26-1.03-.4.25-1.6 3.34-1.68 3.76-.11.12.44.01.81-.36 1.2l-.24.25.24.13c.4.22.6.7.54 1.31-.12 1.25-1.81 1.91-3.15 1.25Zm5.17.13c-1.79-.51-2.19-3.99-.58-5.06 1.11-.73 3.08-.17 3.08.88 0 .62-.62.77-1.07.25-.53-.59-1.28-.48-1.57.25-.21.53-.21.53.17.33 1.18-.63 2.67.21 2.67 1.51 0 1.38-1.28 2.25-2.7 1.84Zm4.47-.01c-.83-.27-1.38-.99-1.13-1.48.19-.39.6-.37 1.07.05.69.63 1.59.42 1.59-.37 0-.72-.84-.95-1.57-.44-.43.3-.8.3-1.04.01-.15-.19-.04-2.35.14-2.73l.12-.26 1.48-.03c1.64-.03 1.87.03 1.87.48 0 .51-.2.6-1.35.6h-1.03l-.07.36c-.08.45-.1.44.5.32 1.32-.27 2.41.73 2.21 2.04-.17 1.13-1.56 1.86-2.79 1.45Zm18.17-.11c-.77-.36-1.04-.85-.66-1.19.25-.23.61-.21.88.04.23.22.77.38 1.07.31.33-.07.14-.36-.33-.5-1.35-.4-1.63-.62-1.63-1.35 0-.96 1.1-1.51 2.34-1.17.79.22 1.17 1.01.65 1.35-.27.18-.48.12-.8-.24-.21-.23-.8-.29-.92-.1-.11.18.1.3.82.46.85.19 1.34.61 1.34 1.15 0 1.2-1.45 1.85-2.76 1.24Zm-13.11.04c-.43-.14-.46-.33-.42-2.83.03-1.54.07-2.08.18-2.2.16-.2 2.13-.24 2.86-.06 2.11.53 2.23 4.1.16 4.96-.42.18-2.34.26-2.78.13Zm5.1-.1c-1.25-.76-.66-2.12 1-2.3.75-.09.82-.12.74-.35-.1-.25-.8-.19-1.15.1-.76.64-1.39-.19-.68-.9.69-.69 2.51-.53 2.91.25.22.43.22 3.02-.01 3.24-.2.2-.63.2-.85 0-.16-.14-.2-.14-.48 0-.41.22-1.09.2-1.48-.04Zm-17.65-.21c1.1-.54 1.02-1.96-.12-2.25-.34-.08-.33-.19.05-.34.85-.36.89-1.53.06-1.97-1.1-.57-3.34.39-2.6 1.12.22.22.32.19.54-.19.25-.42.66-.6 1.22-.53 1.15.16.97 1.37-.22 1.53-.55.07-.64.13-.55.38.04.11.19.16.43.16.78 0 1.33.53 1.17 1.13-.16.65-1.47.77-1.96.18-.33-.39-.8-.44-.8-.08 0 .88 1.67 1.39 2.78.86Zm4.39.1c.98-.37 1.4-1.59.82-2.4-.5-.71-1.79-.77-2.51-.12-.27.25-.33.08-.2-.55.24-1.15 1.22-1.58 1.99-.88.45.4.55.43.72.22.47-.56-1.04-1.34-2.06-1.07-1.77.48-2.01 3.84-.33 4.69.48.24 1.11.29 1.57.11Zm4.53.01c.94-.26 1.42-1.5.88-2.3-.43-.65-1.28-.87-2.05-.55-.19.08-.37.15-.39.15s-.04-.34-.04-.75v-.75h2.4v-.5h-1.45c-1.72 0-1.58-.13-1.59 1.49-.01 1.33.06 1.43.73.97.63-.44 1.53-.29 1.79.29.52 1.15-.98 1.97-1.93 1.05-.6-.58-1-.2-.46.42.46.52 1.29.71 2.11.48Zm10.33-.22c.33-.16.38-.17.43-.03.11.28.41.37.6.18.31-.31.16-2.76-.2-3.11-.59-.6-2.46-.3-2.54.41-.04.35.15.35.64.02.6-.41 1.35-.31 1.48.19.11.44-.01.54-.72.61-1.26.12-1.62.36-1.62 1.05 0 .85.94 1.18 1.93.68Zm8.21.18c.44-.18.66-.51.66-.98 0-.53-.24-.73-1.15-.94-.86-.2-1.16-.46-.96-.83.23-.41.95-.38 1.44.07.38.36.72.11.44-.32-.39-.58-1.89-.63-2.38-.08-.64.71-.28 1.31.96 1.61.63.15.95.36.95.61 0 .54-.9.69-1.54.25-.42-.29-.64-.32-.72-.1-.22.57 1.42 1.08 2.3.71Zm-12.54-.07c1.99-.46 2.24-3.8.33-4.47-.52-.17-2.22-.27-2.55-.13l-.28.11v2.23c0 1.23.03 2.27.07 2.3.1.11 1.93.08 2.43-.04Zm3.32-.45c-.59-.41-.05-.96.88-.92.54.03.55.03.53.33-.04.62-.88.97-1.41.59Zm-15.08-.05c-.27-.14-.54-.6-.54-.94 0-.83 1.11-1.26 1.79-.69.91.76-.16 2.15-1.25 1.63ZM26.2 15.7v-1.8h.63c1.24 0 1.9.62 1.9 1.8 0 1.17-.67 1.8-1.93 1.8h-.6zm6.06 1.45c.21-.32.19-.33-.41-.26-.42.05-.51.1-.53.29-.05.35.71.32.94-.03Zm-14.96-.12c.42-.54.09-1.13-.64-1.13-.5 0-.76.23-.76.67 0 .72.95 1.03 1.4.46Zm10.56-.02c.43-.26.69-.95.6-1.59-.11-.86-.55-1.22-1.48-1.22h-.58v3h.58c.38 0 .67-.06.88-.19Zm-11.41-8.1c.69-.39.92-1.31.53-2.11l-.22-.45-.06.7c-.09 1.06-.4 1.45-1.12 1.45-.68 0-1.01-.41-1.08-1.36l-.05-.79-.23.35c-.9 1.42.75 3.06 2.23 2.21Zm9.96.03c.72-.36 1.01-1.61.54-2.29l-.2-.3-.05.7c-.08 1.04-.39 1.45-1.12 1.45-.68 0-1.01-.41-1.08-1.36l-.05-.79-.23.35c-.89 1.4.7 3.02 2.19 2.24Zm10.04-.03c.7-.4.96-1.55.49-2.26l-.19-.29-.06.7c-.1 1.06-.39 1.44-1.09 1.44-.71 0-1.02-.42-1.1-1.45l-.05-.7-.19.28c-.97 1.43.68 3.13 2.19 2.28Z"/></svg>