<svg xmlns="http://www.w3.org/2000/svg" width="51" height="51" viewBox="0 0 51 51"><path fill="#fff" fill-rule="evenodd" stroke="#fff" stroke-width=".743" d="M37.75 42.46c-4.41-1.08-5.9-6.54-2.66-9.77 3.37-3.36 8.96-1.56 9.77 3.16.71 4.06-3.09 7.59-7.11 6.61Zm2.41-.17c4.26-.78 6.01-6.1 3.06-9.3-3.39-3.68-9.61-1.24-9.62 3.76 0 3.54 3.11 6.17 6.56 5.54Zm-3.32-2.74c-.38-.38-.33-1.7.06-1.7.24 0 .25.03.28.63l.03.62 2.02-.02 2.02-.03v-.52c.01-.29.06-.58.12-.64.51-.51.77 1.01.28 1.6l-.27.31h-4.29zm4.56-.15c.16-.16.2-.32.19-.78l-.02-.57-.06.58c-.08.77-.06.77-2.33.77H37.2l-.16-.25c-.11-.18-.14-.35-.09-.65.05-.28.03-.4-.05-.4-.23 0-.07 1.11.2 1.32.36.29 4.01.27 4.3-.02Zm-3.01-2.17c-.56-.54-.79-.83-.77-.98.05-.35.35-.28.85.18l.48.45.02-1.5c.01-1.51.07-1.76.37-1.65.13.05.16.26.16 1.19 0 .62.03 1.3.07 1.51l.06.38.42-.41c.41-.4.85-.5.85-.19 0 .14-1.39 1.66-1.57 1.74-.1.03-.44-.23-.94-.72Zm-25.56-.33c-.88-.18-1.59-.73-2.04-1.6l-.24-.45v-12.9l.9.03c4.14.14 7.16-2.73 7.03-6.69l-.03-1.09 10.05.02 10.05.03.5.23c.69.32 1.21.86 1.45 1.49.19.52.2.79.2 7.46v6.92h-1.48c-2.12.01-3.23.45-4.63 1.84-1.14 1.13-1.89 2.91-1.89 4.47V37l-9.72-.01c-5.35-.01-9.92-.05-10.15-.09Zm19.71-.91c.32-3.45 3.09-5.91 6.69-5.93l1.28-.01-.03-6.85-.03-6.85-.24-.48a2.36 2.36 0 0 0-1.44-1.22c-.39-.12-15.1-.23-19.72-.15h-.3l-.01 1.13c-.04 3.8-3.07 6.68-6.92 6.55l-1.03-.03.03 6.4.03 6.4.28.47c.33.56.8.95 1.39 1.13.35.11 2.34.14 10.19.14l9.76.01zm-10.19-4.98c-.62-.26-.6-.05-.6-5.4 0-5.45-.02-5.33.69-5.47.44-.08.64.02 5.16 2.63 3.65 2.1 4 2.35 4 2.81-.01.47-.28.67-3.8 2.73-4.91 2.87-4.96 2.9-5.45 2.7Zm1.75-.85c2.88-1.61 6.97-4.07 7.14-4.3.32-.41.12-.63-1.3-1.46-7.22-4.18-7.43-4.28-7.78-3.78-.28.39-.24 9.7.04 9.98.32.32.68.24 1.9-.44ZM11.23 21.3c-4.56-.82-6.33-6.6-3.03-9.9 4.13-4.13 11.04-.18 9.71 5.55-.67 2.86-3.76 4.87-6.68 4.35Zm2.19-.31c4.27-.9 5.85-6.33 2.73-9.44-3.47-3.48-9.37-1.02-9.39 3.9-.02 3.66 3.13 6.28 6.66 5.54Zm-4.26-2.36c-.12-.12-.05-.38.36-1.32.41-.96.42-.96 2.42-2.98 1.1-1.12 2.05-2.03 2.11-2.03.18 0 1.35 1.26 1.35 1.44 0 .09-.88 1.06-1.96 2.16-1.88 1.91-1.99 2-2.66 2.26-.97.37-1.55.54-1.62.47Zm3.87-3.09.97-1.01-.38-.42-.37-.42-1.2 1.2c-1.19 1.2-1.19 1.21-.97 1.37.12.08.2.2.17.25-.04.05.01.09.1.09.08 0 .18.07.21.15.08.2.25.06 1.47-1.21Zm1.45-2.13c-.35-.4-.55-.45-.72-.18-.18.29.61.93.86.7.17-.15.16-.18-.14-.52Z"/></svg>