<svg xmlns="http://www.w3.org/2000/svg" width="51" height="51" viewBox="0 0 51 51"><path fill="#fff" fill-rule="evenodd" stroke="#fff" stroke-width=".77" d="M24.4 44.37C10.04 30.33 7.29 27.6 6.55 26.62c-2.87-3.81-3.09-9.15-.54-13.29.74-1.19 2.62-3.08 3.8-3.81 4.72-2.9 10.93-2.32 14.84 1.39l.76.72.47-.45c6.51-6.35 17.32-3.94 20.3 4.54 1 2.83.82 6.1-.48 8.83-1 2.1-1.55 2.71-8 8.95-1.73 1.67-5.18 5.04-7.66 7.47-2.49 2.44-4.53 4.43-4.55 4.43s-.51-.46-1.09-1.03Zm2.7-.83c.85-.85 3.78-3.72 6.5-6.37 10.42-10.13 10.69-10.42 11.68-12.33 1-1.95 1.37-3.64 1.29-5.79-.08-2.01-.83-4.56-1.24-4.24-.23.18-5.02 4.83-13.07 12.7-3.47 3.38-7.67 7.47-9.33 9.08-1.67 1.61-3.03 2.95-3.03 2.99-.01.08 5.52 5.51 5.6 5.52.03 0 .75-.7 1.6-1.56ZM24 35.21c1.62-1.57 5.67-5.51 9-8.76s7.46-7.27 9.18-8.94c1.71-1.67 3.12-3.11 3.12-3.21 0-.33-1.26-2.07-2.14-2.96-1.34-1.34-3.11-2.48-3.44-2.22-.17.13-9.17 8.91-15.15 14.78-1.75 1.72-3.21 3.09-3.25 3.05-.07-.08 4.81-4.93 13.26-13.18l5.03-4.91-.63-.24c-3.92-1.48-8.31-.86-11.62 1.62-.45.33-2.7 2.47-5.01 4.76-2.32 2.28-6.35 6.23-8.98 8.78-2.62 2.55-4.77 4.67-4.77 4.72 0 .04 1.65 1.69 3.68 3.66 2.02 1.97 4.5 4.41 5.52 5.41l1.84 1.82.71-.67c.38-.36 2.03-1.95 3.65-3.51Zm-9.55-12.82c2.59-2.51 6.07-5.92 7.75-7.57l3.05-3.02-.67-.64c-3.45-3.33-8.91-4.2-13.34-2.12-7.34 3.45-9.05 12.63-3.49 18.65l.58.62.71-.68c.39-.37 2.83-2.73 5.41-5.24Z"/></svg>