<svg xmlns="http://www.w3.org/2000/svg" width="51" height="51" viewBox="0 0 51 51"><path fill="#fff" fill-rule="evenodd" stroke="#fff" stroke-width=".714" d="M18.05 44.69c-5.57-.72-9.85-4.74-11.27-10.59-.23-.95-.19-16.01.05-17 1.32-5.55 5.23-9.34 10.7-10.38 1.41-.26 15.08-.26 16.39.01 5.61 1.14 9.68 5.32 10.7 10.99.35 1.93.35 14.33 0 16.06-1.21 5.99-5.7 10.18-11.67 10.91-1.09.13-13.85.13-14.9 0Zm15.51-.34c5.8-1 10.02-5.33 10.9-11.2.24-1.56.16-14.19-.1-15.55-1.04-5.56-5.33-9.78-10.82-10.65-1.46-.23-15.21-.17-16.3.08C11.85 8.23 7.83 12.39 7 17.6c-.18 1.15-.13 15.55.06 16.46 1.12 5.45 5.63 9.7 10.99 10.37 1.05.13 14.69.06 15.51-.08Zm-14.81-2.51c-4.64-.62-8.08-3.85-9.12-8.56-.27-1.23-.27-13.72-.01-15.15.83-4.37 3.75-7.42 8.12-8.46 1.32-.32 14.25-.34 15.66-.03 4.16.91 7.09 3.64 8.17 7.61l.28 1 .05 5.65c.06 7.12.01 8.71-.33 10.02-1.05 3.98-3.9 6.73-8.06 7.75-.62.15-13.74.3-14.76.17Zm14.45-.38c4.33-.93 7.3-3.83 8.24-8.05.31-1.39.33-14.11.02-15.51-.87-3.98-3.61-6.85-7.51-7.85-2.44-.63-14.13-.64-16.6-.01-4.23 1.09-7.1 4.48-7.56 8.95-.21 2.13-.07 13.71.19 14.68 1.17 4.44 4.63 7.48 9.02 7.92 1.59.17 13.34.06 14.2-.13Zm-10.8-9.71c-1.73-2.28-3.16-4.22-3.18-4.3-.03-.13.26-.15 2.12-.15h2.16l.02-4.77.03-4.78h4.2l.03 4.78.02 4.77h2.15c1.82 0 2.15.02 2.15.15 0 .23-6.21 8.34-6.45 8.42-.06.02-1.52-1.84-3.25-4.12Zm4.13 2.69c1.36-1.72 5.12-6.65 5.15-6.74.02-.06-.84-.11-2.05-.12l-2.08-.03-.03-4.77L27.5 18h-3.7l-.01 4.03c-.01 2.21-.04 4.36-.08 4.77l-.06.75-2.03.05-2.03.05 2.67 3.5c1.46 1.93 2.8 3.69 2.97 3.93.39.54.37.55 1.3-.64Zm7.57-17.32c-1.45-.79-1.43-3 .03-3.71 1.79-.87 3.61.97 2.72 2.76-.5.99-1.83 1.45-2.75.95Zm1.65-.21c1.1-.5 1.44-1.75.73-2.72-1.03-1.42-3.21-.71-3.21 1.06 0 1.36 1.28 2.21 2.48 1.66Z"/></svg>