<svg xmlns="http://www.w3.org/2000/svg" width="51" height="51" viewBox="0 0 51 51"><path fill="#fff" fill-rule="evenodd" stroke="#fff" stroke-width=".793" d="M10.53 37.46c-1.39-.44-2.45-1.66-2.73-3.16-.13-.67-.13-15.67 0-16.98.21-2.17 1.51-3.54 3.65-3.83 1.4-.18 19.77-.07 20.43.13 1.64.5 2.69 1.76 2.92 3.49.12.97.12 16 0 16.99-.19 1.42-1.02 2.59-2.28 3.18l-.57.27-10.5.02c-8.49.01-10.58-.01-10.92-.11Zm21.67-.29c.68-.27 1.36-.81 1.75-1.4.67-1.02.66-.77.63-10.48l-.03-8.74-.27-.57c-.54-1.16-1.59-1.96-2.89-2.18-.44-.07-3.7-.1-10.54-.08l-9.9.03-.6.24c-.82.33-1.73 1.24-2.06 2.06l-.24.6-.05 7.8c-.06 8.79-.03 9.84.28 10.65.42 1.09 1.47 1.96 2.62 2.19.25.05 5.02.08 10.65.07 9.51-.01 10.23-.02 10.65-.19Zm9.93-2.76c-.4-.25-4.49-3.35-4.86-3.7-.58-.53-.57-.43-.57-5.19 0-4.39 0-4.39.23-4.72.19-.3 3.91-3.23 5.06-4 .88-.59 1.87-.22 2.08.77.18.83.08 15.95-.1 16.3-.38.71-1.17.94-1.84.54Zm1.24-.21c.53-.32.53-.31.53-8.67 0-8.52.01-8.36-.61-8.68-.6-.32-1.03-.05-5.44 3.38-.95.73-.88.28-.86 5.34.01 2.61.06 4.54.12 4.64.05.1.76.69 1.57 1.3.81.62 1.83 1.4 2.27 1.74 1.64 1.25 1.82 1.32 2.42.95Zm-23.55-2.7c-4.61-1.21-6.17-6.86-2.83-10.21 3.4-3.41 9.15-1.78 10.25 2.91 1.03 4.36-3.11 8.43-7.42 7.3Zm3.23-.32c4.13-1.37 5.46-6.64 2.45-9.69-3.32-3.36-8.99-1.71-9.96 2.91-.9 4.29 3.38 8.15 7.51 6.78Zm-2.91-2.06c-2.52-.87-3.35-4.1-1.55-6.05.76-.82 1.48-1.12 2.71-1.12q2.4 0 3.36 2.1c1.32 2.87-1.56 6.09-4.52 5.07Zm2.56-.38c2.15-.97 2.72-3.82 1.12-5.53-2.33-2.48-6.51-.4-5.91 2.93.41 2.28 2.72 3.53 4.79 2.6Z"/></svg>