<svg xmlns="http://www.w3.org/2000/svg" width="51" height="51" viewBox="0 0 51 51"><path fill="#fff" fill-rule="evenodd" stroke="#fff" stroke-width=".481" d="M32.52 43.88c-.15-.15-.16-.58-.02-.58.06 0 .1-.41.1-1.04 0-.62.04-1.07.1-1.11.08-.05.07-.11-.01-.21-.23-.27-.02-.66.34-.62.35.03.49.36.28.62-.08.1-.07.17.04.26.18.15.21 1.79.04 2.29-.16.45-.6.66-.87.39Zm.56-.3c.21-.21.16-2.3-.06-2.26-.15.03-.17.16-.17 1.04 0 .71-.04 1.06-.14 1.18-.17.2.17.24.37.04Zm-20.91-.35c-.16-.04-.17-.17-.15-1.36l.03-1.31.29-.07c1.14-.31 2.28.77 1.6 1.52-.15.17-.15.2.05.45.26.33.26.46.03.67-.29.27-.5.2-.79-.25l-.28-.42-.03.36c-.03.33-.25.52-.52.47-.03-.01-.13-.03-.23-.06Zm2.67-.08c-1.08-.56-.67-2.15.57-2.15.43 0 1.02.58.97.97-.03.24-.1.3-.48.4l-.45.11.38.01c.46.01.59.24.3.53-.27.26-.9.33-1.29.13Zm3.08.04c-.17-.06-.22-.16-.22-.42 0-1.04-.28-1.29-.32-.29l-.03.67h-.8l-.03-.81c-.04-1.22.04-1.29 1.52-1.29 1.43 0 1.57.09 1.64 1.04.07 1.01-.1 1.31-.63 1.11-.21-.08-.24-.16-.27-.72-.04-.82-.22-.78-.26.06-.03.69-.15.82-.6.65Zm2.52.01c-.66-.26-.86-1.25-.36-1.8.47-.53 1.49-.51 1.87.04.15.2.15.2.15-.06 0-.63.72-.4.93.3l.14.47.14-.5c.14-.49.15-.5.54-.5.52 0 .53.36.03 1.33-.56 1.13-1.02 1.09-1.52-.13-.23-.55-.25-.57-.26-.27-.01.89-.85 1.45-1.66 1.12Zm4.35-.05c-.37-.2-.63-.78-.54-1.22.17-.9 1.42-1.24 1.88-.51.37.59.29.87-.29.98l-.39.08.37.01c.41.01.52.12.43.4-.12.38-.96.53-1.46.26Zm3.32-.02c-.98-.52-1.04-2-.1-2.49.64-.33 1.47-.13 1.86.45.77 1.14-.56 2.67-1.76 2.04Zm2.72.1c-.49-.09-.63-.46-.63-1.62 0-1.12.06-1.31.45-1.31.28 0 .45.19.45.5 0 .23.04.26.36.26.52 0 .94.48.94 1.07 0 .83-.65 1.28-1.57 1.1Zm3.51-.07c-.9-.39-.88-1.76.02-2.06.64-.22 1.44.23 1.44.81 0 .31-.09.39-.54.5l-.31.07.37.01c.42.01.53.12.39.4-.2.36-.85.49-1.37.27Zm2.29.07c-.39-.08-.73-.59-.73-1.08 0-.85.77-1.35 1.6-1.02l.38.15.09-.32c.12-.42.57-.5.74-.12.07.14.21.26.33.28.37.05.34.56-.03.69-.45.16-.46.69-.02.69.38 0 .49.27.22.54-.26.25-.85.27-1.08.03-.12-.12-.19-.39-.21-.88-.04-.63-.06-.68-.18-.5-.11.15-.22.19-.48.14-.28-.04-.36-.01-.45.16-.19.35 0 .56.51.56.36 0 .43.03.46.21.05.37-.53.61-1.15.47Zm-15.01-.54c.75-.79-.26-1.88-1.19-1.3-.59.37-.53 1.29.09 1.56.43.18.76.1 1.1-.26Zm4.12.31c.35-.13.33-.31-.03-.24-.33.07-.71-.1-.71-.31 0-.09.16-.16.43-.2.6-.09.71-.18.63-.5-.13-.5-.92-.64-1.35-.24-.69.65.14 1.83 1.03 1.49Zm-13.14-.35c0-.55.26-.57.69-.07.52.61.85.54.41-.09l-.21-.28.22-.3c.46-.63-.05-1.25-.99-1.19l-.47.03-.03 1.13c-.03 1.07-.02 1.12.18 1.12.16 0 .2-.06.2-.35Zm3.24.29c.27-.1.17-.24-.13-.18s-.71-.09-.71-.27c0-.11.05-.13.68-.29.48-.12.57-.43.22-.75-.49-.44-1.32-.09-1.46.62-.12.61.71 1.13 1.4.87Zm1.28-.4c-.04-.54.12-.94.37-.94.28 0 .41.29.41.89 0 .44.03.51.2.51s.19-.08.22-.67l.03-.68h.3c.3 0 .3.01.35.65.04.51.09.66.23.68.24.05.3-1.25.06-1.54-.14-.17-.65-.25-.93-.14-.15.05-.38.05-.59-.01-.37-.1-.85.02-.99.24-.1.15-.1 1.31-.01 1.41.2.2.38-.01.35-.4Zm6.52-.06c.36-.74.45-1.21.22-1.17-.12.03-.26.27-.39.66-.28.82-.36.82-.6.01-.16-.53-.24-.68-.39-.68s-.18.05-.13.23c.04.12.09.31.12.42.34 1.2.75 1.38 1.17.53Zm5.84.22c.79-.79.29-2-.84-2-.92 0-1.42 1.33-.75 2.01.43.42 1.16.42 1.59-.01Zm2.27.24c.75-.29.47-1.69-.33-1.62-.45.04-.56.28-.13.28.63 0 .66 1.02.03 1.08-.44.05-.55-.22-.5-1.25.03-.79.02-.84-.17-.81-.31.05-.36 1.87-.05 2.18.2.2.79.27 1.15.14Zm3.59 0c.29-.11.17-.2-.22-.16-.73.07-.95-.4-.25-.53.76-.14.88-.31.48-.7-.55-.56-1.45-.18-1.45.62 0 .64.75 1.04 1.44.77Zm2.16-.04c.16-.11.09-.13-.32-.1-.3.02-.68-.3-.68-.58 0-.37.29-.62.71-.62.58 0 .45-.24-.14-.28-.87-.06-1.32.84-.72 1.43.26.26.86.34 1.15.15Zm1.55 0c.03-.06-.02-.1-.12-.1-.11 0-.24-.05-.31-.12-.16-.16-.16-.98 0-1.02.5-.15.54-.19.23-.25-.23-.05-.31-.12-.33-.34-.02-.15-.09-.27-.18-.27-.18 0-.21 1.89-.02 2.08.15.15.64.16.73.02Zm-18.43-.32c-.17-.17-.15-.73.02-.87.26-.21.68-.09.79.22.17.53-.44 1.02-.81.65Zm7.65.01c-.43-.25-.41-1.16.03-1.39.58-.31 1.1.01 1.1.68 0 .68-.57 1.03-1.13.71Zm-7.09-.47c.03-.3.01-.33-.2-.3-.23.03-.34.27-.24.54.11.28.41.11.44-.24Zm7.91.06c.32-.57-.23-1.14-.7-.72-.38.34-.13 1.09.34 1.02.12-.02.28-.15.36-.3Zm2.36-.03c0-.2-.06-.31-.17-.33-.15-.03-.18.04-.18.33s.03.36.18.33c.11-.02.17-.13.17-.33Zm-16.55-.23c0-.17.28-.34.52-.3.39.05.28.33-.14.36-.21.02-.38-.01-.38-.06Zm10.09-.13c.28-.23.64-.22.69.04.03.14-.04.17-.45.17l-.48-.01zm9.33.09c.07-.2.56-.34.69-.21.18.18.01.33-.37.33-.24 0-.34-.04-.32-.12Zm-21.65-.05c-.13-.13-.07-.71.08-.77.29-.11.75.19.75.49 0 .23-.66.46-.83.28Zm11.18-7.98c-.19-.18-.25-.35-.25-.65s.06-.47.25-.65l.24-.25h15.72l.24.25c.19.18.25.35.25.65s-.06.47-.25.65l-.24.25H24.09zm16.07-.22c.22-.19.23-.62.04-.89-.23-.31-15.65-.35-15.96-.04-.27.27-.26.74.03.97.33.26 15.6.22 15.89-.04Zm-20.89-2.88c-1.09-.24-1.51-.55-4.18-3.13-2.89-2.78-3.1-3.07-3.1-4.12.01-1.22-.05-1.15 5.13-6.3 2.58-2.56 5.54-5.52 6.58-6.59 2.08-2.13 2.32-2.3 3.29-2.31 1.08 0 1.26.14 4.76 3.66s3.63 3.7 3.63 4.74c0 1.09.03 1.06-5.87 6.98l-5.42 5.42h12.96l.24.25c.33.32.35 1.01.05 1.33l-.21.22-8.62-.01c-6.86 0-8.75-.03-9.24-.14Zm17.91-.27c.21-.3.2-.61-.03-.89l-.19-.24-6.61-.03c-5.31-.02-6.61-.05-6.61-.15 0-.07 2.47-2.6 5.49-5.61 5.88-5.86 5.91-5.89 5.91-6.87-.01-.98-.16-1.18-3.42-4.46-3.78-3.8-3.93-3.9-5.25-3.63l-.54.12-6.62 6.64c-3.83 3.85-6.71 6.82-6.84 7.06-.29.52-.31 1.45-.04 2.03.22.49 4.78 5.01 5.54 5.49 1.16.74 1 .73 10.84.75l8.22.01zm-17.19-2.05c-.77-.16-.94-.3-3.22-2.56-1.28-1.27-2.33-2.38-2.33-2.47 0-.2 5.7-5.9 5.9-5.9.18 0 5.9 5.71 5.9 5.88 0 .12-2.71 2.99-3.86 4.1-.8.76-1.66 1.1-2.39.95Zm1.1-.34c.34-.08.76-.47 2.63-2.36 1.22-1.24 2.22-2.3 2.22-2.35 0-.13-5.51-5.58-5.65-5.58-.15 0-5.55 5.45-5.55 5.6 0 .21 4.33 4.48 4.7 4.64.41.18 1.09.2 1.65.05Zm14.41-1.91c-.17-.58-.53-1-1.01-1.15-.42-.13-.37-.33.1-.5.52-.17.8-.5.96-1.12.15-.62.34-.66.43-.1.11.7.31.96.86 1.16.62.22.66.45.11.62-.45.13-.71.44-.93 1.1-.2.62-.34.61-.52-.01Zm.75-.94c.12-.13.3-.26.41-.3.26-.08.22-.17-.15-.34-.2-.09-.4-.31-.53-.58l-.22-.42-.1.27c-.13.37-.47.71-.77.79-.33.08-.31.16.08.34.21.11.4.33.57.65l.25.5.12-.33c.06-.19.21-.45.34-.58ZM16.36 14.39a7 7 0 0 1-.1-.63c-.16-1.33-.69-2.04-1.81-2.41-.85-.29-.94-.48-.29-.64 1.37-.35 1.9-1.02 2.19-2.74.09-.54.26-.41.41.3.27 1.31.82 1.98 1.97 2.38.79.27.78.41-.03.72-1.06.39-1.59 1.05-1.94 2.38-.16.62-.32.88-.4.64Zm.74-2.14c.3-.48.73-.82 1.3-1.02.62-.22.62-.24-.02-.47-.73-.25-1.41-.96-1.64-1.7-.17-.55-.34-.66-.34-.22 0 .74-.74 1.58-1.7 1.94-.44.16-.51.22-.35.27.57.19.82.3 1.03.43.36.23.79.92.97 1.57l.17.58.18-.52c.1-.28.28-.67.4-.86Z"/></svg>