<svg xmlns="http://www.w3.org/2000/svg" width="51" height="51" viewBox="0 0 51 51"><path fill="#fff" fill-rule="evenodd" stroke="#fff" stroke-width=".446" d="M11.32 39.67c-.49-.18-.98-.62-1.29-1.15l-.28-.47v-7.3c0-8.15-.05-7.54.71-8.28.79-.77-.19-.72 14.59-.72h13.2l.5.23c.6.28 1 .64 1.28 1.17.29.53.4 13.95.13 14.89-.2.67-.68 1.23-1.3 1.52l-.51.24L25 39.79c-10.01 0-13.43-.03-13.68-.12Zm27.3-.24c.15-.07.45-.28.67-.48.73-.66.71-.42.71-8.25v-6.96l-.25-.51c-.3-.59-.79-.97-1.45-1.12-.64-.15-25.91-.15-26.59 0-.63.13-1.25.57-1.5 1.08-.29.56-.34 14.29-.06 14.99.22.54.96 1.2 1.44 1.28.2.03.41.07.46.09.31.11 26.32-.01 26.57-.12Zm-26.86-1.85c-.28-.39-.24-13.4.04-13.68s25.98-.32 26.38-.04l.22.15v6.67c0 5.88-.02 6.7-.16 6.9l-.15.22H11.91zm26.22-.1c.09-.09.12-1.74.12-6.8V24H11.9v6.68c0 5.06.03 6.71.12 6.8.17.17 25.79.17 25.96 0ZM16.94 35.8c-.41-.16-.64-.64-2.06-4.18-1.58-3.96-1.66-4.29-1.17-4.78.16-.15.41-.28.66-.31.74-.1.97.22 2.03 2.88l.93 2.31.14-.33c.08-.19.5-1.24.94-2.35.89-2.26 1.05-2.49 1.74-2.49s1.24.68 1.06 1.31c-.24.84-2.94 7.43-3.12 7.63-.34.37-.74.48-1.15.31Zm6.36-.03c-.69-.35-.7-.4-.7-4.52 0-4.85-.07-4.67 1.86-4.73 2.85-.1 4.28.7 4.63 2.6.41 2.22-1.18 3.88-3.7 3.88h-.59v1c0 1.17-.12 1.49-.64 1.74-.41.19-.53.2-.86.03Zm7.83-.01c-.63-.28-.64-.33-.61-4.71l.03-3.95.28-.27c.22-.23.37-.28.73-.28.62 0 .93.35 2.14 2.49l.95 1.67.05-1.73c.05-1.87.12-2.12.66-2.36.34-.16.59-.15.94.03.59.31.6.37.6 4.5 0 4.21-.01 4.29-.66 4.6-.78.37-1.06.12-2.39-2.2-.54-.93-1.03-1.75-1.09-1.82-.08-.09-.1.29-.08 1.4.02 1.07 0 1.64-.1 1.91-.22.66-.86.97-1.45.72Zm-13.29-.39c.24-.24 3.03-7.11 3.13-7.71s-.57-1.04-1.22-.8c-.22.09-.39.46-1.41 3.02-.96 2.45-1.04 2.55-1.37 1.67-.67-1.81-1.75-4.34-1.94-4.52-.48-.49-1.33-.14-1.33.54 0 .28.9 2.67 2.44 6.48.63 1.57 1.09 1.93 1.7 1.32Zm6.43-.01c.27-.23.28-.28.33-1.43l.05-1.18 1.05-.06c1.22-.07 1.77-.27 2.32-.83 1.6-1.65.9-4.34-1.27-4.91-1.05-.27-3.3-.21-3.6.1l-.25.24v7.78l.26.27c.34.33.74.34 1.11.02Zm7.84-.05.29-.29v-1.96c0-1.65.02-1.96.15-1.96.08 0 .64.84 1.31 1.98 1.57 2.65 1.86 2.91 2.49 2.27l.25-.24v-3.92c0-4.47.01-4.39-.81-4.39-.71 0-.79.23-.79 2.36 0 2.47-.05 2.56-.71 1.42-1.58-2.76-2.04-3.5-2.22-3.63a.84.84 0 0 0-1.04.07l-.23.21v7.88l.25.24c.33.33.7.32 1.06-.04Zm-7.44-4.28c-.04-.03-.07-.62-.07-1.31v-1.24l.94.04c.83.03.97.06 1.2.27.8.75.44 1.97-.65 2.2-.56.12-1.32.14-1.42.04Zm1.94-.61c.78-.88.16-1.72-1.28-1.72h-.53v2.12l.76-.04c.71-.03.78-.06 1.05-.36Zm12.67-12.01c-3.31-1.09-4.33-5.29-1.87-7.72 3.72-3.66 9.74.62 7.47 5.31-.97 2-3.52 3.1-5.6 2.41Zm2.13-.11c2.95-.56 4.51-3.66 3.19-6.34-1.4-2.84-5.48-3.17-7.44-.61-2.35 3.09.45 7.67 4.25 6.95Zm-2.08-.59c-1.7-.58-2.13-2.06-.77-2.61.69-.28.78-.46.7-1.27-.08-.8.01-.97.65-1.18.82-.27 1.06-.89.78-2.01-.16-.63-.07-.7.73-.54.59.11 1.38.44 1.38.56 0 .11-.68.98-.99 1.28-.39.37-.39.61.01 1.2.17.27.37.71.43 1 .11.51.12.51.54.54.59.04.6.21.07.87-.51.62-.57.94-.3 1.47.15.3.15.32-.02.45-.6.43-2.28.56-3.21.24Zm2.08-.11c.85-.16 1.02-.31.83-.77-.21-.48-.07-.96.4-1.45l.35-.36-.39-.06c-.44-.07-.54-.21-.64-.83-.03-.24-.21-.63-.38-.88-.49-.69-.44-1 .25-1.75.71-.76.71-.83-.01-1.04-.81-.22-.96-.21-.88.07.35 1.17.06 1.98-.84 2.32l-.55.21v.81c0 .94-.16 1.2-.92 1.49-.32.13-.45.24-.49.43-.03.14-.08.34-.11.44-.22.82 1.84 1.66 3.38 1.37Zm-9.98-.26c-.08-.04-.13-.27-.13-.64v-.59l.42-.03c.74-.05.73-.26-.11-2.31-.39-.96-.71-1.78-.71-1.82 0-.03.35-.05.78-.03l.77.03.31.95c.16.52.33.9.36.85.03-.06.16-.49.29-.97l.24-.88h.77c.43 0 .78.04.78.08 0 .2-1.6 4.44-1.79 4.75-.3.49-1.46.85-1.98.61Zm1.37-.39c.38-.2.53-.51 1.33-2.7.36-.99.69-1.88.72-1.98.07-.16.02-.18-.46-.15l-.54.03-.3 1.1c-.46 1.69-.42 1.68-.89.2l-.41-1.3-.48-.03c-.58-.04-.6-.17.18 1.78.42 1.06.63 1.71.59 1.84-.11.36-.46.66-.76.66-.29 0-.32.08-.22.48.08.27.77.31 1.24.07Zm10.19-.21c-.05-.15-.12-.31-.15-.35-.02-.05.11-.25.29-.46.81-.9.79-1.36-.08-1.65-.34-.11-.41-.19-.52-.56-.06-.24-.23-.57-.37-.73-.34-.41-.34-.43.25-1.07.28-.31.56-.66.62-.79.14-.31.19-.29.6.17 1.34 1.48 1.39 3.77.11 5.2-.52.57-.61.6-.75.24Zm.74-.66c.94-1.28.84-3.51-.21-4.51l-.27-.26-.52.65c-.61.74-.61.73-.28 1.04.14.13.28.39.31.57.04.19.14.37.23.4 1.11.35 1.28.93.56 1.87-.33.43-.45.76-.27.76.04 0 .24-.23.45-.52Zm-31.1-.29c-.49-.14-.83-.62-.83-1.15 0-.9.45-1.34 1.47-1.42.34-.02.63-.09.63-.14 0-.06-.2-.08-.47-.04-1.03.13-.95.15-1.15-.37l-.18-.48.37-.17c.57-.25 1.88-.23 2.33.03.61.36.71.7.68 2.3l-.03 1.4-.58.03c-.44.02-.59 0-.63-.12-.05-.14-.09-.14-.33-.02-.38.2-.91.26-1.28.15Zm4.27.04c-.84-.14-.9-.2-.9-.84 0-.66-.02-.65.79-.43.9.25 1.11.09.35-.25-1.78-.82-1.24-2.64.74-2.49 1.15.09 1.37.29 1.08.99-.2.49-.24.5-.68.28-.22-.11-.49-.19-.61-.17-.16.02-.04.1.4.26 1.64.63 1.6 2.25-.07 2.61-.52.11-.65.12-1.1.04Zm11-.03c-.69-.17-1.06-.97-.79-1.74.2-.57.54-.78 1.38-.84.42-.03.68-.09.64-.14-.06-.1-.78-.06-1.2.07-.25.08-.37-.1-.48-.67l-.07-.37.53-.15c.96-.29 1.97-.15 2.44.34.35.36.62 2.74.39 3.34-.08.22-1.06.22-1.24.01-.1-.12-.16-.13-.39-.01-.38.2-.81.25-1.21.16Zm-19.34-.22c-.08-.3-.08-4.07 0-4.47l.06-.31h1.44c1.61 0 1.58-.02 1.49.75l-.07.55H9.99l.03.33.03.32.63.01c.76.01.8.05.74.7-.04.57-.15.64-1.04.64-.37 0-.4.02-.34.24.03.13.03.52 0 .85l-.07.61H9.3c-.62 0-.68-.02-.74-.22Zm11.82.06c-.45-.24-.6-.67-.61-1.65v-.88l-.26.05c-.41.09-.33-.74.1-.99.18-.1.38-.35.5-.62.2-.45.2-.45.69-.45h.5v.8h1v.38c0 .69-.08.82-.5.82-.44 0-.5.12-.5.99v.54l.55-.07.55-.06v.55c0 .5-.02.56-.26.65-.38.15-1.45.11-1.76-.06Zm2.48 0c-.08-.21-.08-3.64.01-4.32l.06-.54 1.26.04c1.4.04 1.91.21 2.24.78.33.54.14 1.48-.36 1.86l-.25.19.64 1c.73 1.14.72 1.17-.27 1.13l-.74-.03-.5-.82c-.62-1.03-.65-1.03-.65.02v.85h-.69c-.54 0-.7-.04-.75-.16Zm14.13-.29c-.9-2.03.54-4.79 2.72-5.2.34-.06.35-.06.52.43.36.98.23 1.41-.5 1.67-.86.32-1.05.69-.81 1.59.14.54.03.72-.49.82-.37.07-.93.48-.93.68 0 .07-.06.21-.14.32-.14.18-.16.16-.37-.31Zm-23.01-.03c.37-.27.42-.27.42-.02 0 .17.07.2.39.2.5 0 .54-.15.45-1.63-.09-1.46-.27-1.69-1.31-1.75-1.08-.06-1.55.1-1.41.49.09.25.14.29.32.24.68-.21 1.15-.18 1.27.08.2.44.08.54-.7.59-.84.04-1.21.27-1.35.81-.26 1.03.97 1.66 1.92.99Zm4.16.17c1.24-.34 1.16-1.41-.15-2.04-1.11-.53-.74-1.02.46-.61.16.06.22.01.32-.23.11-.29.1-.31-.24-.42-2-.66-3.11 1.07-1.22 1.9.62.28.78.47.56.68-.17.18-.88.2-1.29.04-.28-.1-.38 0-.38.38 0 .34 1.15.52 1.94.3Zm3.58.05c.32-.06.37-.1.4-.4l.04-.34-.46.06c-.65.09-.7-.01-.62-1.11l.07-.9.41-.03c.38-.03.42-.06.46-.33.06-.37.03-.39-.49-.39-.43 0-.43 0-.43-.35 0-.56-.57-.52-.84.06-.1.22-.29.45-.42.51-.31.14-.35.63-.05.53.17-.05.19.02.23 1.04.05 1.53.39 1.86 1.7 1.65Zm7.41-.2c.48-.25.49-.25.54-.05.04.17.13.21.44.21h.39l-.01-1.17c-.01-1.97-.25-2.27-1.77-2.2-.91.04-1.08.13-.98.52.06.23.11.26.34.21 1.04-.24 1.32-.17 1.32.35 0 .29-.01.29-.6.29-1.07 0-1.5.31-1.5 1.07 0 .94.85 1.3 1.83.77ZM9.8 14.65v-.85h.64c.68 0 .76-.06.76-.56 0-.23-.03-.24-.7-.24h-.7v-1.2h1.5v-.35c0-.43-.11-.47-1.45-.43l-1 .03-.03 2.23-.02 2.22h1zm14.3.06c0-1.21.32-1.23.99-.05.48.85.51.86 1.14.82l.45-.03-.59-.9c-.68-1.05-.68-1.04-.26-1.3.43-.27.61-.81.44-1.32-.19-.58-.78-.84-2.12-.91l-1.05-.05v4.53h1zm13.67-.09c.1-.06.35-.13.56-.17.41-.08.44-.17.26-.89-.18-.71.05-1.1.85-1.46.82-.38.88-.54.54-1.42-.13-.35-.25-.35-.9-.02-1.59.8-2.43 2.59-1.98 4.23l.12.44.18-.31c.11-.17.27-.35.37-.4Zm-24.37.3c-.47-.14-.41-.71.11-.92.4-.17.63-.09.67.22.06.5-.32.84-.78.7Zm15.2-.02c-.58-.14-.3-.89.35-.93.39-.02.4-.01.43.31.05.52-.25.75-.78.62Zm-14.7-.39c.14-.28.13-.31-.15-.31-.24 0-.51.31-.38.44s.43.05.53-.13Zm15.14.03c.23-.22.2-.34-.09-.34-.13 0-.29.08-.34.19-.18.32.15.44.43.15Zm-4.94-2.09v-.65h.38c.5 0 .82.23.82.6s-.41.7-.86.7h-.34zm.9.15c.11-.21-.06-.45-.38-.53-.2-.05-.22-.02-.22.38s.01.42.25.37c.14-.02.3-.12.35-.22Z"/></svg>