<svg xmlns="http://www.w3.org/2000/svg" width="51" height="51" viewBox="0 0 51 51"><path fill="#fff" fill-rule="evenodd" stroke="#fff" stroke-width=".758" d="M15.95 36.69c-.49-.14-1.1-.73-1.36-1.31l-.24-.53v-4.08c0-3.52.02-4.09.15-4.17.31-.2 2.18-.12 2.3.09.06.13.1 1.55.1 3.93v3.74l3.6-.04c1.98-.02 3.72-.01 3.85.02l.26.07-.03 1.17-.03 1.17-4.15.02c-2.28.01-4.29-.03-4.45-.08Zm10.72.04c-.04-.03-.07-.57-.07-1.18v-1.12l.77-.07c.42-.03 2.15-.06 3.85-.06h3.08v-3.79c0-3.12.02-3.81.14-3.9.09-.08.51-.11 1.22-.09l1.09.03.03 4.18c.02 4.08.02 4.19-.19 4.68-.25.57-.86 1.14-1.38 1.29-.4.11-8.44.14-8.54.03Zm-2.39-1.15-.03-.93-3.81-.03-3.81-.02-.06-2.03c-.04-1.11-.07-2.86-.07-3.89V26.8h-1.8l-.02 2.82c-.06 5.68-.07 5.56.62 6.27.56.58.66.59 5.03.6l3.98.01zm11.23.65c.2-.13.49-.42.65-.65l.29-.41.03-4.19.03-4.18h-.73c-.4 0-.83.03-.95.06l-.23.06v7.68h-3.48c-1.91 0-3.64.03-3.84.06l-.38.07v1.78l4.13-.03c4.07-.03 4.12-.03 4.48-.25ZM18.95 32.3c-.09-.14-.12-.09 2.18-2.97 1.19-1.49 2.17-2.63 2.26-2.63.16 0 .56.45 2.31 2.6.51.63.97 1.15 1.02 1.15s.53-.61 1.06-1.35 1.04-1.36 1.13-1.38c.19-.03 3.39 4.22 3.39 4.51 0 .2-13.22.27-13.35.07Zm12.81-.46c-.42-.63-2.78-3.74-2.84-3.74-.04 0-.52.63-1.06 1.4-.55.77-1.05 1.4-1.12 1.4s-.82-.85-1.66-1.9c-.88-1.08-1.59-1.88-1.68-1.87-.11.02-2.48 2.86-3.86 4.65l-.25.32h12.63zm-17.34-7.41c-.14-.35-.08-8.04.07-8.47.18-.51.76-1.15 1.26-1.37.5-.21 4.21-.33 7-.21l1.8.07v2.3l-3.82.03-3.83.02-.01 3.03c-.01 1.66-.04 3.4-.07 3.87l-.07.85-1.13.03c-1 .02-1.13.01-1.2-.15Zm20 .05c-.09-.09-.12-1.04-.12-3.9V16.8h-7.7v-2.37l3.73-.07c4.95-.1 5.38-.02 6.06 1.01.42.64.42.6.39 5.13l-.03 4.05-1.1.03c-.77.02-1.14-.01-1.23-.1Zm-17.89-2.45c.04-1.24.07-3 .07-3.9V16.5h7.7v-1.81l-4.19.03-4.19.03-.39.31c-.85.69-.83.56-.83 5.17v4.07h1.77zm19.97-1.75c0-4.45-.01-4.49-.66-5.1-.51-.47-.62-.48-4.9-.48H26.9v1.8h7.7v3.83c0 2.11.03 3.87.07 3.9.03.04.46.07.95.07h.88zm-7.76 3.03c-1.07-.49-1.38-1.9-.61-2.78 1.44-1.63 3.94.22 2.83 2.11-.45.78-1.37 1.05-2.22.67Zm1.46-.33c.54-.37.74-.72.74-1.28 0-1.46-1.9-2.03-2.71-.81-.85 1.26.73 2.93 1.97 2.09Z"/></svg>