<svg xmlns="http://www.w3.org/2000/svg" width="51" height="51" viewBox="0 0 51 51"><path fill="#fff" fill-rule="evenodd" stroke="#fff" stroke-width=".263" d="M11.08 49.58c-.02-.17-.11-.24-.31-.26-.56-.07-.58-.92-.03-.92.33 0 .44.17.51.77.05.5-.1.88-.17.41Zm19.1-1.02c-2.28-.61-2.74-3.91-.68-4.96 2.23-1.13 4.74.11 4.74 2.35.01 2-1.86 3.2-4.06 2.61Zm10.85.04c-1.27-.27-2.02-1.27-2.03-2.71 0-1.94 1.6-3.04 3.56-2.44.27.08.5.15.52.15.01 0 .02-.43.02-.95v-.95h1.5v6.78l-.31.06c-.5.1-.76.07-.92-.09-.14-.13-.19-.13-.5 0-.46.19-1.31.26-1.84.15Zm5.27-.05c-.98-.27-1.23-.63-.85-1.21l.14-.22.76.24c2.25.71 3.12-.27.94-1.07-1.73-.63-2.28-1.49-1.53-2.38.61-.72 4.04-.85 4.04-.15 0 .41-.3.86-.52.79-.52-.16-2.02-.17-2.23-.01-.28.21-.15.31.96.72 2 .74 2.53 1.43 2 2.61-.35.76-2.17 1.1-3.71.68Zm-40.32-.07c-.13-.03-.38-.06-.55-.07l-.33-.01v-4.3l1.88.02c2.07.03 2.55.19.85.29-1.04.05-1.43.21-1.43.56 0 .14.06.17.53.27.15.04.27.13.27.21q0 .15.3.15t.3.15c0 .23-.57.19-.72-.05-.08-.13-.24-.2-.44-.2-.43 0-.58-.21-.51-.7l.05-.4H5.4v3.7h1.65c1.42 0 1.65.02 1.65.15 0 .24-2.08.42-2.72.23Zm15.06.04c-.19-.12-2.06-5.04-1.96-5.14.05-.05.38-.08.73-.06l.64.03.55 1.42c.3.79.58 1.43.61 1.43s.25-.48.49-1.08c.76-1.88.72-1.82 1.35-1.82.66 0 .65-.02 1.31 1.72.27.71.51 1.28.54 1.28s.3-.64.59-1.42c.62-1.63.57-1.58 1.34-1.58.81 0 .81-.03-.3 2.74l-.98 2.45-.4.06c-.75.12-.84.02-1.49-1.55-.69-1.66-.61-1.66-1.32.04-.64 1.53-.66 1.56-1.17 1.56-.23 0-.47-.04-.53-.08Zm13.76-2.57V43.4h.68c.37 0 .72.04.77.09.06.06.31.04.65-.05 1.21-.33 1.97-.08 1.63.53-.21.37-.23.38-.93.43-.67.05-.74.07-1.06.42l-.34.38v3.3h-1.4zm14.47 2.31c.45-.23.63-.53.63-1.07 0-.78-.44-1.14-2.12-1.74-1.9-.67-1.16-1.66.96-1.27.47.09.62.09.68-.01.56-.87-2.82-.89-3.5-.02-.64.81-.13 1.34 2 2.09 2.44.87 1.16 2.18-1.39 1.43-.84-.24-1.03-.22-1.03.14 0 .54 2.92.9 3.77.45Zm-16.91-.01c2.26-.67 2.23-3.95-.05-4.62-1.97-.57-3.74.4-3.89 2.15-.16 1.88 1.8 3.11 3.94 2.47Zm10.48-.1c.56-.23.58-.23.63-.04.04.15.14.19.44.19h.39v-3.13c0-3.56.06-3.23-.55-3.19l-.47.04.03.94c.03 1.12.05 1.1-.56.83-1.85-.82-3.68.4-3.53 2.36.15 1.8 1.84 2.74 3.62 2ZM22.59 46.8c.89-2.1.83-2.11 1.86.53l.38.97h.94l.92-2.3c.5-1.26.91-2.32.91-2.35s-.22-.05-.48-.05h-.48l-.6 1.58c-.35.91-.66 1.57-.74 1.57-.07 0-.38-.66-.74-1.57l-.61-1.58h-.48c-.45 0-.49.02-.61.33-.08.17-.37.89-.66 1.6-.29.7-.56 1.27-.6 1.27s-.33-.69-.65-1.52c-.69-1.82-.61-1.7-1.18-1.66l-.46.03.43 1.1c.24.61.64 1.65.9 2.33l.48 1.22h.83zm13.33-.08c.04-2.11.39-2.62 1.77-2.62.48 0 .71-.15.71-.46 0-.17-1.61.03-1.9.24-.37.28-.5.28-.47 0 .02-.21-.03-.23-.44-.26l-.46-.03-.06.78c-.07 1.15-.09 3.72-.02 3.83.03.06.24.1.45.1h.38zm-5.62.86c-1.54-.79-1.06-3.2.68-3.41 1.2-.14 2.02.42 2.18 1.48.23 1.57-1.4 2.67-2.86 1.93Zm10.9.15c-1.78-.67-1.33-3.57.55-3.57 1.08 0 1.65.64 1.65 1.84 0 1.36-1.03 2.17-2.2 1.73Zm-9.34-.28c1.19-.24 1.43-2.28.33-2.87-1.35-.72-2.96.53-2.5 1.94.21.64 1.07 1.16 1.71 1.03.08-.02.29-.06.46-.1Zm10.91-.29c.71-.65.55-2.13-.28-2.58-1-.56-2.19.18-2.19 1.37 0 1.35 1.51 2.09 2.47 1.21ZM6.4 46.97c0-.24-.05-.48-.12-.55-.19-.19-.09-.21 1.06-.24 1.17-.03 1.28.01 1.43.61.12.48-.05.56-1.26.59l-1.11.03zm30.9-.76c0-.99.01-1.01.71-1.01.37 0 .39.02.39.3 0 .27-.03.3-.32.3-.31-.01-.32-.01-.14-.15.19-.14.19-.15-.07-.15-.2 0-.27.05-.27.2 0 .17.07.2.39.2h.38l.02.6.01.6h-1.1zm-28.8.71c0-.36-.33-.52-1.06-.52H6.7v.6h.9c.5 0 .9-.03.9-.08Zm22.78-.64c-.34-.27-.23-1.04.16-1.14.33-.08.58-.02.64.15.03.1-.02.12-.2.08-.33-.09-.61.13-.56.44.02.2.09.25.4.27.27.02.35.07.31.18-.06.17-.53.18-.75.02ZM16.1 43.6c0-.05.09-.1.19-.1s.21-.06.24-.14c.08-.21-.3-.27-1.57-.26-1.39.01-1.32.02-1.19-.11.22-.22 2.93.01 2.93.25 0 .12-.05.27-.12.34-.15.15-.48.16-.48.02Zm-9.8-.3c-.4-.4-.05-.9.64-.9.54 0 .67.23.5.88-.09.3-.84.32-1.14.02Zm1.46-.02c-.11-.34-.14-.88-.05-.83.05.04.09.2.09.36 0 .29.02.3.37.27.5-.04.53-.25.06-.45l-.38-.18.32-.03c.61-.06.99.48.61.86-.16.16-.98.16-1.02 0Zm5.66-1.1c.05-.13 20.14-.26 20.66-.13.89.22-.49.25-10.24.25-8.32 0-10.45-.03-10.42-.12Zm-8.44-.5c-.6-.11-1.17-.54-1.47-1.13l-.26-.49-.06-4.46c-.09-5.79-.09-20.07-.01-23.17l.07-2.41.3-.43c.63-.89.06-.83 8.85-.9 4.26-.04 9.66-.12 12-.17 2.34-.06 6.86-.12 10.05-.14 6.54-.03 6.31-.06 6.99.73.59.69.56-.04.56 15.87v14.71l.43.03c.41.03.42.05.57.51l.15.47.18-.5c.22-.63.69-.72.75-.15.05.42.18.52.27.18.22-.91.7-.72.77.31.04.72-.18.71-.27-.01l-.07-.58-.25.58c-.34.76-.51.72-.67-.16-.09-.47-.19-.41-.36.18-.21.75-.43.71-.71-.12-.17-.52-.47-.75-.35-.28.18.72.19.88.06.83-.08-.02-.21-.26-.3-.52l-.16-.48-.19.41c-.23.53-.82 1.07-1.32 1.21-.44.12-34.83.2-35.55.08Zm35.61-.73c.77-.45.76-.41.79-3.81l.03-3.04-18.78.02-18.78.03-.03 2.75c-.04 3.33.06 3.78.92 4.16.59.25 35.41.15 35.85-.11Zm6.77.03c-.41-.58.23-1.27.82-.89.15.09.07.76-.11.99-.15.19-.54.14-.71-.1Zm1.44.03c-.23-.44-.04-1.01.35-1.01.52 0 .67.17.39.44-.08.09-.11.16-.05.16.15 0 .14.33-.01.48-.18.18-.56.14-.68-.07Zm-32.89-.75c-.24-.29-.09-.71.26-.74.48-.05.48-.27-.02-1.56-.53-1.36-.53-1.42-.19-1.5.47-.12.61.01.87.77l.24.72.27-.73.28-.72h.44c.24 0 .44.05.44.1 0 .15-.98 2.66-1.21 3.12-.32.62-1.07.91-1.38.54Zm7.7.06c-.07-.02-.11-.63-.11-1.92v-1.88l.33-.05c1.36-.2 2.27.13 2.27.82 0 .12.04.21.1.21s.1-.09.1-.19c0-.53.93-1.11 1.45-.91.23.09.24.07.27-.38l.03-.47h.8l.03 1.87.02 1.87-.87-.01c-1.16-.01-1.73-.34-1.73-1.03 0-.08-.04-.15-.1-.15s-.1.07-.1.15c0 .56-.61 1.05-1.29 1.05h-.4l-.03.53c-.03.53-.24.67-.77.49Zm-6.76-.42c.19-.2 1.38-3.1 1.31-3.18-.15-.14-.45.27-.7.97-.35.99-.41.98-.79-.12-.23-.67-.35-.87-.49-.87-.23 0-.25-.08.22 1.16.52 1.39.5 1.94-.09 1.94-.12 0-.21.06-.21.15 0 .22.53.19.75-.05Zm7.35-.44v-.64l.38.14c.48.19.84.07 1.12-.38.59-.97-.16-2.28-1.05-1.85-.21.1-.37.12-.4.07-.03-.06-.15-.1-.26-.1-.18 0-.19.08-.19 1.7 0 1.63.01 1.7.2 1.7.18 0 .2-.07.2-.64Zm-16.92-.22c-.05-.04-.08-.88-.08-1.86V35.6h.93c1.15 0 1.69.23 2.01.85.42.81.18 2.12-.47 2.59-.29.22-2.22.38-2.39.2Zm3.7-.1c-.54-.28-.59-1.06-.11-1.44.26-.2.26-.21.06-.26-.29-.08-.37-.32-.18-.6.48-.74 2.05-.6 2.26.2.1.36.14 2 .05 2.14-.09.15-1.77.12-2.08-.04Zm2.42-1.24v-1.4h.9v2.8h-.9zm1.2-.37c0-1.91.03-2.03.49-2.03.51 0 .52.04.49 1.96l-.03 1.79-.47.03-.48.03zm5.6 1.57c-.19-.19-.2-.3-.18-1.88l.03-1.67.33-.03c.58-.06.62.05.62 1.54v1.34h1.1v-1.33c0-1.43.05-1.57.49-1.57.51 0 .52.04.49 1.96l-.03 1.79-1.32.03c-1.22.02-1.34.01-1.53-.18Zm9.38.04c-.52-.27-.61-1.03-.18-1.44.3-.28.3-.29.08-.32-.78-.11.08-.98.96-.98 1.07 0 1.16.13 1.16 1.65v1.23h-.88c-.55 0-.98-.06-1.14-.14Zm2.78-.07c-.19-.19-.25-.39-.31-1-.04-.45-.13-.81-.21-.88-.19-.16-.18-.69.01-.69.08 0 .15-.04.15-.1 0-.15.61-.8.75-.8.09 0 .15.15.17.42.02.36.07.44.26.46.17.03.22.1.22.34v.31l.34-.35c.84-.86 2.16-.36 2.2.83.01.48-.01.53-.24.59l-.25.06.23.08c.38.13.17.53-.45.85-.54.28-1.41-.02-1.66-.56-.12-.27-.12-.27-.17.17-.06.57-.6.71-1.04.27Zm4.58.13c-1.29-.48-.89-2.8.48-2.8h.48v-.39c0-.44.2-.58.66-.47l.24.06v3.69l-.82-.01c-.46 0-.92-.04-1.04-.08Zm-35.73-.29c-.21-.13-.18-.71.04-.87.61-.44 1.45.32.93.84-.14.14-.77.16-.97.03Zm8.44-.24c.57-.57.57-1.93.01-2.46-.24-.22-1.02-.41-1.72-.41H7.5V39h.91c.89 0 .92-.01 1.24-.33Zm2.46.22c.15-.07.24-.07.35.01.42.36.54-1.65.11-2.07-.37-.37-1.67-.15-1.67.29 0 .14.48.09.54-.07.07-.19.56-.2.81-.01.27.19.12.44-.32.52-1.01.18-1.43.74-.93 1.24.22.22.78.27 1.11.09Zm1.94-.99c0-.98-.02-1.1-.17-1.1-.16 0-.18.12-.18 1.1s.02 1.1.18 1.1c.15 0 .17-.12.17-1.1Zm1.25-.5c0-1.53-.01-1.6-.2-1.6s-.2.07-.2 1.6.01 1.6.2 1.6.2-.07.2-1.6Zm6.9 1.45c0-.11-.17-.15-.72-.17l-.73-.03-.03-1.42c-.02-1.35-.04-1.43-.22-1.43-.2 0-.33 2.94-.13 3.13.14.15 1.83.08 1.83-.08Zm.6-1.45c0-1.53-.01-1.6-.2-1.6s-.2.07-.2 1.6.01 1.6.2 1.6.2-.07.2-1.6Zm5.15 1.51c.11-.05.27-.03.37.03.25.15.25.14.3-1.56.04-1.47.03-1.58-.14-1.58-.15 0-.18.09-.18.55 0 .59-.09.67-.44.4-.59-.45-1.36.18-1.36 1.1 0 .89.66 1.37 1.45 1.06Zm3.35-.97c0-1.08-.03-1.17-.53-1.29-.52-.13-1.27.14-1.27.46 0 .15.36.1.5-.06.16-.19.64-.19.8 0 .19.23.05.42-.38.5-1.5.25-1.4 1.46.12 1.42l.76-.02zm1.9.92c0-.08-.1-.16-.22-.18-.21-.03-.23-.09-.26-.85l-.03-.83h.26c.32 0 .29-.23-.03-.28-.18-.03-.22-.1-.22-.39 0-.3-.02-.34-.15-.23-.08.07-.15.21-.15.32s-.09.22-.2.25c-.23.06-.27.33-.05.33.12 0 .15.15.15.78 0 .92.15 1.22.61 1.22.18 0 .29-.05.29-.14Zm2.14-.07c.34-.26.16-.46-.2-.22-.32.21-.74.13-.97-.19-.29-.39-.15-.48.74-.48.78 0 .79 0 .79-.25 0-.96-1.26-1.41-1.8-.66-.79 1.12.4 2.61 1.44 1.8Zm2.5.11c.16-.06.27-.06.31 0 .27.43.35.06.35-1.5 0-1.36-.02-1.6-.15-1.6-.11 0-.15.12-.15.48 0 .59-.04.64-.38.46-.57-.3-1.13-.02-1.33.66-.32 1.06.4 1.86 1.35 1.5ZM7.9 37.5v-1.2h.59c.83 0 1.12.25 1.19 1.02.08.98-.33 1.38-1.4 1.38H7.9zm3.42 1.08c-.29-.29.02-.61.71-.73.35-.07.37-.06.37.19 0 .51-.74.88-1.08.54Zm13.08-.08c-.27-.27-.28-1.1-.02-1.33.25-.23.75-.21.96.02.67.74-.24 2.01-.94 1.31Zm2.72-.03c-.26-.28-.3-.92-.06-1.25.22-.32.76-.3 1.03.04.62.79-.3 1.93-.97 1.21Zm2.8.11c-.32-.32-.08-.6.61-.73.36-.07.37-.06.37.22 0 .51-.65.84-.98.51Zm7.12-.13c-.21-.33-.2-1.02.02-1.26.3-.33.8-.24 1.03.18.43.83-.55 1.84-1.05 1.08Zm-11.92-.12c.22-.2.24-.76.02-.97-.45-.45-.97.37-.58.92.18.26.31.28.56.05Zm2.72.01c.32-.32.12-1.14-.28-1.14-.22 0-.4.3-.4.65 0 .56.36.82.68.49Zm9.94.04c.31-.31.07-1.18-.32-1.18-.15 0-.36.36-.36.62 0 .51.4.84.68.56ZM9.2 38.2c.5-.5.21-1.53-.45-1.66-.58-.11-.6-.06-.57.95l.03.91h.4c.26 0 .46-.07.59-.2Zm35.41-.06c-.59-.75.25-1.71.97-1.11.24.19.32.54.21.87-.2.55-.83.68-1.18.24Zm2.17-.06c-.68-.93-.97-1.38-.9-1.41.16-.1.92-.18.92-.1.01.04.1.19.21.32l.2.25.25-.32c.22-.27.32-.32.69-.32.64 0 .63.12-.03 1.03-.71.97-.96 1.08-1.34.55Zm-1.28-.19c.25-.47-.15-.93-.6-.69-.2.11-.26.43-.14.74.09.24.61.21.74-.05Zm2.34-.44c.43-.62.44-.65.22-.65-.18 0-.31.12-.5.45-.33.55-.28.55-.63 0-.22-.36-.63-.62-.63-.41 0 .14.84 1.26.95 1.26.07 0 .34-.29.59-.65Zm-4.04-2.3c0-2.13.03-2.75.13-2.75.06 0 1.14.37 2.4.81l2.27.82v.47c0 .5-.09.63-.5.75-.14.04-1.11.39-2.15.77l-1.91.69.04.34c.05.42-.04.85-.18.85-.06 0-.1-1.02-.1-2.75Zm-9.75 2.45c-.09-.14.13-.5.37-.59.46-.17.99.17.84.55-.06.16-1.11.2-1.21.04ZM43 35.05c0-1.63.04-2.55.1-2.55s.1.92.1 2.55-.04 2.55-.1 2.55-.1-.92-.1-2.55ZM1.3 36.87c0-.48.09-.57.58-.57.43 0 .54.13.5.56l-.03.39-.52.03-.53.03zM13.4 36v-.4h.9v.8h-.9zm32.94-.41c1.05-.38 1.92-.69 1.94-.69s.02-.16 0-.36c-.03-.35-.05-.37-.73-.61-.95-.34-3.06-1.1-3.27-1.18-.15-.06-.18-.02-.18.23 0 .29.01.3 1.7.88.94.32 1.69.62 1.67.67-.02.06-.77.36-1.67.67l-1.65.57-.03.33c-.03.28-.01.32.15.25.1-.04 1.03-.38 2.07-.76Zm-44.98.09c-.2-.29-.2-.41.02-.66.41-.48 1.02-.26 1.02.38 0 .5-.75.7-1.04.28Zm44.33-.71c.91-.33 1.19-.46 1.05-.52-.36-.14-2.48-.85-2.56-.85-.04 0-.08.43-.08.96 0 .86.02.95.18.9.09-.03.73-.25 1.41-.49ZM1.28 33.69c-.47-.27-.14-.89.47-.89.52 0 .63.12.56.58-.07.4-.61.57-1.03.31ZM41.4 22.1c0-12.55.02-12.08-.48-12.63-.52-.58-2.28-.62-13.87-.31-3.19.09-9.48.19-13.97.23l-8.18.06-.32.33-.33.32-.03 11.85L4.2 33.8h37.2zM1.31 32.11c-.27-.5-.04-.84.56-.79.38.03.38.03.38.48v.45l-.42.03c-.33.02-.44-.01-.52-.17Zm44.99-.03c-.8-.23-1.3-.9-1.3-1.74 0-1.57 1.85-2.38 3.05-1.33.42.38.43.42.06.69l-.3.2-.41-.21c-.72-.38-1.4-.04-1.4.7 0 .68.98.98 1.54.46l.27-.25.29.22c.81.59-.63 1.61-1.8 1.26Zm1.13-.32c.38-.16.71-.51.62-.65-.09-.16-.24-.13-.52.09-.68.53-1.83-.01-1.83-.85 0-.8.87-1.26 1.78-.94.51.18.73-.03.31-.29-.76-.46-1.65-.37-2.18.23-1.08 1.23.29 3.06 1.82 2.41ZM1.3 30.51c-.36-.68.42-1.29.93-.73.37.41.13.92-.43.92-.29 0-.42-.05-.5-.19Zm17.24-.8c-.76-.19-1.35-1-1.7-2.32l-.18-.67-.67-.04c-2.09-.12-2.82-2.87-1.17-4.45.73-.7 1.34-.87 3.21-.91 2.01-.05 2.04-.03 1.47.69-1.09 1.38-1.52 3.48-1.09 5.25.71 2.92 3.13 1.41 2.97-1.85-.08-1.57-.83-2.58-1.42-1.92-.44.49-.48.08-.06-.65.98-1.73 2.37-1.13 2.96 1.29.69 2.83-1.91 6.19-4.32 5.58Zm1.69-.54c1.97-.9 2.99-3.58 2.14-5.65-.58-1.42-1.25-1.77-1.91-1l-.36.42.36.12c2.1.72 1.36 6.04-.84 6.04-1.83 0-2.23-4.51-.62-6.93l.4-.6-1.42.06c-1.61.06-1.96.14-2.64.6-1.86 1.25-1.34 4.17.75 4.17.27 0 .53-.04.56-.1.04-.06-.1-.1-.35-.1-1.18 0-1.99-1.35-1.6-2.69.3-1.05 1.15-1.6 2.59-1.69 1.26-.07 1.3-.04.83.6-1.37 1.83-1.56 4.38-.47 6.24.5.85 1.43 1.04 2.58.51Zm-18.81-.59c-.47-.59.14-1.26.76-.82.24.17.3.62.1.82-.16.16-.73.15-.86 0Zm44.68-.44c-1.26-.55-1.52-2.41-.41-2.99.44-.22.58-.19.65.16.03.16.13.38.23.47.16.16.15.17-.15.2-.43.04-.57.31-.38.76.36.87 1.76.55 1.76-.4 0-.08-.13-.2-.28-.25-.29-.1-.29-1.09 0-1.09.32 0 .79.36.98.74.73 1.52-.83 3.08-2.4 2.4ZM24.62 28c-1.71-.4-1.55-3.51.22-4.31 1.36-.62 2.53.06 2.75 1.58.05.32.09.49.1.38.08-1.42 2.38-2.64 3.71-1.97.8.39.71.85-.28 1.54l-.43.3-.35-.41c-.64-.75-1.24-.48-1.32.59-.08 1.13.64 1.42 1.73.7.33-.22.66-.4.73-.4s.17-.12.23-.27c.59-1.6 1.34-2.15 3.02-2.21 1.21-.05 1.23-.03.87.68-.15.3-.22.69-.27 1.49l-.06 1.1.44-.16.44-.16.03-1.86c.04-2.69.43-3.35 2.05-3.48 1.12-.09 1.16.29.07.84-.71.36-.8.56-.8 1.77v1l.36-.42c.91-1.07 2.9-1.47 2.13-.43-.16.22-.21.47-.25 1.27-.09 1.79-.26 2.16-1.08 2.28-.24.04-.61.16-.82.26-.68.35-1.41.16-1.59-.41-.07-.2-.08-.2-.38.09-.58.56-1.1.65-1.54.28l-.27-.24-.37.3c-.78.63-1.69.39-1.99-.52-.08-.25-.15-.46-.16-.48 0-.01-.27.24-.6.57-1.45 1.44-3.33.92-3.34-.94l-.01-.5-.13.38c-.36 1.01-1.03 1.63-1.92 1.77-.33.06-.59.09-.59.09 0-.01-.15-.05-.33-.09Zm23.06-.2c.94-.58.93-2.5-.02-2.5-.15 0-.04.47.14.58.42.26.23 1.2-.3 1.47-1.07.56-2.4-.65-1.6-1.45.41-.41.22-.75-.23-.4-1.35 1.07.51 3.21 2.01 2.3Zm-17.74-.14c.38-.16 1.02-.7 1.18-.99.11-.21.11-.21-.18-.02-1.28.84-2.24.45-2.24-.92 0-1.2.96-1.7 1.76-.92l.32.31.42-.33c.69-.56.38-1-.7-.98l-.55.01.47.08c.55.1.68.16.68.36 0 .18-.18.17-.5-.01-1.11-.63-2.54.34-2.67 1.83-.13 1.39.77 2.1 2.01 1.58Zm3.31-.01c.17-.09.45-.29.6-.45.36-.37.42-.37.5 0 .12.53.64.53 1.25-.01.21-.19.27-.28.15-.23-.64.24-.7.17-.73-.86-.01-.58.03-1.14.11-1.45.08-.27.16-.57.18-.65.07-.25-1.45-.19-1.97.08-1.85.95-1.94 4.44-.09 3.57Zm-7.2-.15c1.73-.84 1.58-3.7-.19-3.7-1.27 0-2.15.96-2.16 2.35 0 1.36 1.07 1.97 2.35 1.35Zm11.61-.05c.11-.08.14-.15.07-.15-.94-.02-.25-2.6.69-2.6.21 0 .33 1.15.19 1.85-.11.58-.1.59.23.51.39-.1.53-.5.59-1.74.04-.72.12-1.23.22-1.43.16-.29.15-.31-.02-.26-.1.03-.31.08-.46.12-.16.03-.63.38-1.04.77-.89.85-.93.83-.92-.52 0-1.63.33-2.38 1.04-2.4.35-.01.55-.2.2-.2-.82 0-1.64.51-1.85 1.15-.22.66-.18 4.59.04 4.84s.73.28 1.02.06Zm-12.68-.33c-.89-.93-.55-2.92.5-2.92.92 0 1.38 2.24.61 3.01-.29.29-.8.25-1.11-.09Zm.98-.23c.27-.3.27-1.62.01-2.02-.59-.91-1.45-.03-1.19 1.21.19.91.75 1.29 1.18.81Zm12.34-.15c.12-.31.13-1.64.02-1.64-.17 0-.73.91-.79 1.27-.1.58.57.91.77.37Zm-5.34-.08c-.48-.47-.31-1.39.4-2.09.62-.61 1.16-.64 1.09-.05-.03.18-.07.64-.11 1.01-.09 1.1-.83 1.69-1.38 1.13Zm.78-.28c.26-.23.56-1.98.34-1.98-.39 0-1.08 1.01-1.08 1.58 0 .63.3.79.74.4Zm-32.39-.04c-.1-.11-.15-.29-.13-.53l.03-.36h.5c.45 0 .5.03.59.27.2.58-.55 1.05-.99.62Zm15.29-.66c.02-.13.1-.55.16-.95.12-.75.54-1.75.97-2.32l.26-.34-.74.06c-1.91.14-2.93 1.53-2.19 2.98.36.7 1.44 1.1 1.54.57Zm-15.22-.86c-.09-.06-.12-.26-.1-.58l.03-.49.41-.03c.51-.04.66.13.62.7-.03.45-.55.66-.96.4ZM44 23.46V22.1h.28c.24.01.25.02.1.14-.15.11-.18.3-.18 1.29 0 .66-.04 1.18-.1 1.22s-.1-.42-.1-1.29Zm1.85 1.07c-1.02-.25-1.28-2.3-.34-2.78.73-.38 1.32.03 1.59 1.11.19.74.4.92.6.53.09-.16.09-.32.01-.63-.27-1.05-.19-1.22.62-1.25.25-.01.27.01.27.43 0 .45-.1.56-.49.56-.16 0-.17.07-.13.5.11 1.13-.84 1.16-1.08.04-.23-1.06-.8-1.45-1.4-.96-.34.27-.39 1.14-.12 1.69.34.66.79.72.48.05-.39-.8-.39-1.31 0-1.46.34-.13.61.19.79.94.21.87.33 1 .91 1 .51 0 .84-.38.84-.97 0-.32.12-.43.25-.23.32.52-.39 1.5-1.08 1.5-.64 0-.87-.23-1.17-1.16-.16-.52-.3-.79-.4-.79-.23 0-.24.31-.01.78.11.23.23.59.26.8.08.39.05.41-.4.3ZM1.3 22.75c0-.21-.05-.35-.12-.35-.09 0-.08-.04.02-.1.2-.13 1.1-.13 1.1 0 0 .06-.11.1-.24.1-.37 0-.56.1-.56.31 0 .15.07.19.4.19.22 0 .4.05.4.1 0 .06-.22.1-.5.1h-.5zm42.64-1.89c-.03-.08-.04-.31-.02-.52l.03-.39.65-.05c.36-.03.6-.08.53-.13-.5-.32-.11-1.61.59-1.96 1.56-.75 3.41.37 2.84 1.72-.08.2-.11.37-.05.37.05 0 .09.25.09.55V21h-2.3c-1.88 0-2.32-.03-2.36-.14Zm4.46-.41c0-.18-.05-.25-.2-.25-.11 0-.2-.01-.2-.03 0-.01.09-.2.2-.42.57-1.11-.06-1.89-1.51-1.88-1.21.01-1.86.91-1.34 1.83.25.45.2.5-.5.5-.63 0-.65.01-.65.25v.25h4.2zm-42.2-.21c0-.04.16-.21.37-.38.47-.41.49-.65.43-3.51l-.05-2.2-.35.03c-.83.08-1.18 1.32-.62 2.25.32.54.29.64-.23.71-1.74.27-1.68-2.94.07-3.7.61-.27 7.68-.35 7.68-.09 0 .08-.08.18-.17.22-.65.23-.97.69-1.08 1.54l-.07.57.38.12c.53.17.66.29.58.54-.07.24-.33.56-.46.56-.12 0-.1-.34.04-.48s.11-.17-.2-.27l-.23-.07.03 1.54c.03 1.75.12 2.03.71 2.31.63.29.35.37-1.33.37-1.63 0-1.9-.07-1.46-.35.37-.24.46-.65.46-2.06 0-1.48.03-1.44-.75-.81-1.4 1.12-1.69 2.39-.65 2.82.24.1.28.15.19.26-.12.15-3.29.22-3.29.08ZM46.23 20c-.47-.2-.72-1-.43-1.35.32-.39 1.41-.43 1.87-.07.88.67-.35 1.89-1.44 1.42ZM8.6 19.68c-.56-.93.08-2.2 1.63-3.2.39-.26.62-.58.42-.58-.13 0-.74.35-1.43.82-.91.61-.92.6-.92-.7.01-1.23.1-1.73.4-2.14l.21-.28H7.73c-1.31.01-1.84.09-2.22.38-.89.66-.97 2.87-.1 2.87.38 0 .39-.06.15-.7-.45-1.19.03-2.24 1.04-2.28.71-.02.71-.01.68 3.04-.03 2.46-.04 2.69-.22 2.88l-.19.21H8.8zm3.68-.06c-.22-.36-.23-.43-.23-2.83v-2.46l.28-.36.28-.37h-2.12l.23.31c.3.4.41 5.08.14 5.73l-.15.36h1.81zm2.15.14c-.28-.24-.28-.25-.33-1.73l-.05-1.48-.3-.05c-.65-.11-.25-.64.97-1.26.62-.32.93-.32.84-.01-.23.79-.34 3.51-.15 3.62.06.04.21-.03.33-.14.14-.13.29-.19.39-.15.15.05.17-.04.17-.86 0-.86-.01-.92-.19-.87-.47.12-.33-.41.24-.91.51-.45 1.46-.6 1.36-.22-.02.08-.06.28-.09.45l-.04.3.38-.36c.52-.49.74-.59 1.31-.59h.48l.03 1.73c.04 1.96.01 1.81.36 1.68.21-.09.26-.17.26-.44 0-1.39 1.04-2.75 2.33-3.02.23-.04.27-.1.27-.38 0-.51.49-1.37.9-1.59.44-.23 1.9-.26 1.9-.04 0 .2-.65.75-.98.82-.15.03-.33.07-.39.1-.1.02-.13.42-.13 1.51v1.48l.28-.6c.44-.91.88-1.25 1.64-1.25.67 0 .63-.09.39.85-.24.9-.1 2.45.22 2.45.41 0 .61-.48.67-1.58.08-1.4.24-1.66 1.15-1.79.5-.06.58.07.31.5-.16.26-.33 2.87-.18 2.87.05 0 .26-.07.45-.15.98-.41 1.16-.1.4.66-.67.67-1.33.81-1.83.41-.22-.18-.24-.17-.68.05-.7.36-1.43.22-1.72-.32l-.13-.24-.39.33c-.65.56-1.38.56-1.73.02l-.17-.25-.4.3c-.52.37-1.29.41-1.64.08l-.23-.21-.32.22c-1.06.76-1.79.3-1.79-1.14 0-.57-.03-1.18-.06-1.35l-.07-.32-.24.23c-.43.4-.63.91-.63 1.63 0 .81-.2 1.08-.78 1.03-.29-.02-.38-.08-.4-.25-.03-.21-.05-.21-.48.13-.57.43-1.09.46-1.51.1Zm33.01-.17c.55-.43.19-.99-.64-.99s-1.14.46-.65.95c.31.32.91.34 1.29.04Zm-31.69-.2c.42-.37.4-.47-.05-.24-.57.29-.65.1-.65-1.53 0-.75.03-1.56.08-1.8l.07-.42-.35.15c-.2.08-.5.24-.67.37l-.31.22.21.14c.21.14.22.22.22 1.43 0 1.24.09 1.76.33 1.91.28.18.77.08 1.12-.23Zm4.24.17c.41-.22.64-.52.31-.41-.14.05-.36.09-.5.09l-.25.01-.06-1.7c-.07-2-.01-1.75-.46-1.75-.33 0-.45.08-.96.61-.66.7-.69.7-.71-.06-.01-.67-.24-.74-.82-.23-.34.3-.35.32-.15.4.2.07.21.14.21 1.53v1.46l.33-.03.32-.03.05-.81c.06-.89.37-1.57.92-1.97.48-.36.56-.16.6 1.44.03 1.52.06 1.59.61 1.59.15 0 .4-.06.56-.14Zm1.98.03c.15-.05.46-.26.69-.45.51-.41.5-.41.57-.04.12.58.9.77 1.31.31.15-.16.14-.17-.13-.13-.39.05-.41-.04-.41-2.63 0-2.36.06-2.65.51-2.65.28 0 .81-.29.74-.4-.08-.13-.94-.01-1.26.18-.55.31-.64.61-.69 2.54l-.05 1.77-.29.3c-.89.93-1.84 0-1.27-1.24.19-.43.92-1.15 1.16-1.15.08 0 .15-.04.15-.1 0-.18-.54-.1-.95.13-1.7.97-1.79 4.21-.08 3.56Zm4.96-.05c.18-.09.4-.23.5-.32.16-.15.2-.14.43.11.39.43.93.38 1.47-.13.41-.39.34-.43-.23-.13-.59.3-.6.27-.6-1.38 0-.84.05-1.59.1-1.7.09-.16.07-.19-.12-.19-.5 0-.68.35-.68 1.32 0 1.58-.8 2.58-1.37 1.71-.19-.29-.26-2.02-.11-2.71.07-.32.07-.32-.29-.32-.49 0-1.04.58-1.34 1.4-.12.33-.26.63-.3.66-.15.09-.11 1.14.04 1.14.41-.01.77-.59.77-1.23 0-.61.15-1.27.28-1.27.04 0 .07.6.07 1.34 0 1.78.36 2.22 1.38 1.7Zm-4.22-1.33c.38-.39.46-1.94.09-1.84-.24.06-.78.65-.91 1-.33.86.22 1.43.82.84Zm-21.37-.95c-.18-.47-.01-.71.51-.71h.5v.8l-.48.03c-.34.02-.49-.01-.53-.12Zm42.74-2.51-.02-2.42c-.01-.17.16-.18 2.24-.18h2.25v.9l-1.62.03-1.63.02v.7l1.63.02 1.62.03.01.6c.01.33.04.77.09.97.23 1.16-.29 1.53-2.13 1.53h-1.47v-1l1.3-.05 1.3-.05.03-.28c.07-.56-.17-.67-1.43-.67h-1.12l-.07-.61c-.03-.34-.06-.79-.06-1v-.39h3.3v-.6h-4l.06 2.35c.07 2.15.06 2.35-.09 2.35s-.17-.23-.19-2.25ZM9.17 16.36c.27-.18.72-.46 1.01-.61l.52-.27v-.53c0-1.38-1.36-1.83-1.9-.62-.18.39-.31 2.37-.15 2.37.03 0 .26-.15.52-.34Zm38.94.05c.37-.38.39-.89.04-1.57-.3-.59-.32-.73-.05-.49.19.18.2.17.2-.03 0-.22-.03-.22-1.5-.22h-1.5v.6h1.14c1.26 0 1.56.15 1.56.79 0 .57-.32.71-1.64.71H45.3v.5h1.26c1.25 0 1.26 0 1.55-.29Zm-46.85-.77c-.09-.47.01-.56.6-.52l.49.03v.8l-.51.03-.52.03zm.12-4.19c-.23-.51.15-1.04.66-.91.64.16.51 1.08-.17 1.14-.32.03-.39-.01-.49-.23Zm44.32-.24c-.55-.29-.8-.73-.8-1.43 0-1.13.59-1.43 2.7-1.36l.95.03.03.43c.02.25-.01.42-.08.42-.06 0-.05.11.05.3.31.6.05 1.49-.51 1.7-.46.18-1.95.12-2.34-.09Zm2.49-.37c.27-.35.27-.92 0-1.38l-.21-.36h.21c.14 0 .21-.06.21-.2 0-.37-2.49-.3-2.91.08-.62.55-.4 1.82.34 1.9.29.04.39-.21.13-.31-.43-.17-.54-1.07-.16-1.27 1-.53 2.5.22 2.11 1.06-.25.56-.79.3-.9-.44-.07-.52-.18-.59-.76-.48-.38.08-.52.34-.35.66.15.28.28.25.26-.07-.02-.51.18-.39.35.2.1.32.2.65.23.73.11.28 1.21.19 1.45-.12ZM4.12 8.18c-.17-.17-.15-.54.04-.72.31-.32.74-.1.74.38 0 .43-.48.64-.78.34Zm1.23-.04c-.1-.1-.15-.29-.13-.48.05-.56 1.08-.47 1.08.1 0 .48-.61.72-.95.38Zm1.23.05c-.51-.29-.07-1.03.5-.85.38.12.37.8-.01.9-.28.07-.29.07-.49-.05Zm1.14 0c-.36-.14-.28-.83.1-.87.64-.08 1 .66.42.88-.14.06-.26.1-.27.09-.01 0-.12-.04-.25-.1Zm3.75.05c-.13-.13-.07-.71.07-.83.42-.35 1.08.22.8.67-.11.17-.74.29-.87.16Zm-2.83-.31c-.17-.65.94-.93 1.3-.32l.19.32.16-.27c.27-.44.45-.32.21.14-.24.48-.33.49-.62.1-.12-.17-.25-.3-.3-.3-.04 0-.08.13-.08.3 0 .43-.76.46-.86.03ZM45 7.25c0-.36.03-.45.18-.45.16-.01.16-.01 0-.11-.19-.11-.27-1.79-.1-2.06.04-.06.49-.27 1.01-.46l.93-.33-.93-.25-.94-.25-.03-.43c-.02-.24.01-.48.05-.52.08-.08 1.72.32 2.95.72l.38.12v1.14l-1.39.51c-.76.28-1.5.54-1.65.58-.23.05-.26.11-.26.5 0 .68.16.74 1.91.74 1.62 0 1.59-.01 1.59.66v.34H45zm3.4 0V7h-3.2v.5h3.2zM13 4.7V2.3h3.5v1h-2.4v.79l1.13.03 1.12.03.03.47.03.47-1.13.03-1.13.03-.03.47-.03.47 1.23.03 1.23.03.03.47.03.48H13zm5.05 2.26c-1.77-.81-1.1-3.73.81-3.53l.53.05.03-.56.03-.57h1v4.7L20 7.03c-.25-.01-.49-.02-.55-.03-.06 0-.33.02-.6.05-.32.03-.61 0-.8-.09Zm5.21-.07c-.25-.2-.26-.23-.26-1.34 0-1.1-.01-1.14-.22-1.17-.28-.04-.41-.78-.14-.78.08 0 .23-.17.33-.37.18-.38.78-.86.97-.8.06.02.12.29.14.6.03.53.05.57.28.57.36 0 .32.73-.03.78-.37.05-.35 1.82.01 1.82.28 0 .39.21.26.54-.15.42-.89.5-1.34.15Zm2.8.11c-1.25-.38-1.59-2.27-.57-3.13 1.51-1.27 3.65.38 2.82 2.18-.39.85-1.3 1.23-2.25.95Zm3.06.03c-.22-.04-.22-.06-.22-1.74v-1.7l.63-.01c.34 0 .9-.01 1.25-.01l.62-.02V2.29l.53.03.52.03.03 2.29c.03 2.55.04 2.49-.61 2.4l-.47-.07V5.44c0-1.6-.05-1.78-.33-1.19-.14.28-.22.35-.46.35-.42 0-.53.25-.66 1.45-.11 1.09-.14 1.12-.83.98Zm4.62-.07c-1.39-.62-.89-1.8.96-2.27.41-.1.43-.12.25-.25-.26-.2-.49-.17-.7.06-.25.28-.98.25-1.03-.04-.14-.72 1.2-1.31 2.11-.92.64.27.71.44.78 1.9.03.72.07 1.38.1 1.46.03.12-.05.15-.41.13-.68-.04-.81-.04-1.3.02-.28.03-.57 0-.76-.09Zm3.48.07-.42-.04.02-2.32.03-2.32.44-.03c.61-.05.6-.11.62 2.34.02 2.05-.01 2.47-.19 2.42-.04-.01-.26-.03-.5-.05Zm-15.97-.85c-.03-.46-.05-1.23-.03-1.73l.03-.9.53-.03.52-.03V7h-.98zm-4.87.45c.03-.22.01-.22-1.2-.25l-1.23-.03-.03-.73-.03-.72h2.31v-.5h-1.02c-1.28 0-1.3-.01-1.26-.76l.03-.59 1.18-.03c1.16-.03 1.18-.03 1.15-.25-.02-.17-.09-.22-.3-.21-.16 0-.84.01-1.53.02l-1.25.02v4.31l1.58-.03c1.54-.03 1.57-.03 1.6-.25Zm24.02.13c-.12-.15-.1-1.09.02-1.22.04-.03.01-.15-.05-.25-.1-.16-.09-.21.03-.29s.12-.11-.03-.28c-.23-.25-.21-.47.05-.64.21-.14.21-.16.05-.32-.23-.23-.24-1.18-.02-1.36.11-.09.19-.1.26-.03.08.08.07.13 0 .17-.14.09-.15.93-.01 1.01.19.12.11.64-.11.76-.21.11-.21.11-.01.32.19.22.25.89.11 1.12-.18.28-.2.74-.03.83.09.05.14.14.1.21-.1.15-.21.14-.36-.03Zm-21.1-.11c.32-.18.4-.18.4 0 0 .09.09.15.25.15h.25V2.6h-.31c-.26 0-.29.03-.24.21.04.11.04.42 0 .69l-.07.5-.28-.15c-.97-.5-2 .26-2 1.46 0 1.1 1.12 1.85 2 1.34Zm2.8-1.35V3.8h-.6v3h.6zm2.28 1.32c.02-.07-.05-.12-.15-.12-.37 0-.43-.2-.43-1.32V4.1h.31c.2 0 .29-.04.26-.12-.02-.07-.15-.13-.28-.13-.22 0-.24-.05-.27-.53-.03-.57-.07-.6-.4-.36-.15.1-.22.25-.22.48 0 .25-.05.35-.2.39-.11.03-.2.1-.2.16s.09.11.2.11c.19 0 .2.07.2 1.19 0 1.4.07 1.54.73 1.49.22-.02.42-.09.45-.16Zm3.1-.02c1.31-.8.76-2.9-.77-2.9-1.22 0-1.95 1.22-1.38 2.3.4.76 1.42 1.04 2.15.6Zm2.22-.7c.06-1.05.3-1.53.77-1.58.44-.04.66-.52.24-.52-.16 0-.4.09-.54.2-.3.24-.37.25-.37.05 0-.16-.43-.31-.59-.2-.07.04-.11.6-.11 1.51v1.45l.28-.03c.27-.03.27-.04.32-.88Zm2.58-1.23.02-2.07h-.7v4.21l.33-.03.32-.03zm2.74 1.97c.29-.15.32-.15.43 0 .37.5.48.21.43-1.11l-.05-1.26-.32-.29c-.51-.45-1.72-.32-2.02.23-.13.25.36.27.63.02.28-.26.86-.22 1.1.07.28.34.2.42-.71.72-.98.32-1.21.49-1.21.93 0 .73.92 1.1 1.72.69ZM37.7 4.7V2.6H37v1.94c0 2.2.01 2.26.41 2.26h.29zm3.78.2c-.01-.94-.02-1.8-.02-1.92-.01-.12.05-.23.11-.25.09-.03.13.32.15 1.44l.03 1.48.36.03.36.03.06-.76c.06-.78.11-.96.25-.79.14.18.02 2.44-.14 2.44-.09 0-.14-.11-.14-.3 0-.28-.03-.3-.35-.3s-.35.02-.35.3q0 .3-.15.3c-.13 0-.15-.26-.17-1.7Zm-7.47 1.34c-.33-.42-.2-.65.48-.89.88-.31 1.08-.16.77.6-.25.59-.89.74-1.25.29ZM7.7 6.16V5.9H6.5c-.73 0-1.2-.04-1.2-.1s.47-.1 1.2-.1c1 0 1.2-.02 1.2-.15 0-.08.05-.15.1-.15.06 0 .1.2.1.44 0 .25-.04.48-.1.51-.06.04-.1-.05-.1-.19Zm10.51-.02c-.61-.77-.26-2.04.56-2.04s1.21 1.41.57 2.11c-.26.29-.87.26-1.13-.07Zm7.8-.09c-.35-.41-.42-.96-.16-1.45.56-1.08 2.04-.3 1.81.94-.16.87-1.08 1.15-1.65.51Zm-6.81-.12c.42-.53.1-1.63-.46-1.63-.55 0-.76 1.19-.29 1.65.31.32.48.31.75-.02Zm7.79.12c.74-.38.48-1.65-.33-1.65-.97 0-.95 1.59.02 1.79.02.01.16-.06.31-.14Zm11.95-.78c-.11-.29.01-2.7.14-2.75.09-.03.12.18.12.81 0 .81.01.86.23.89.19.03.22.1.25.61l.03.57h-.36c-.2 0-.38-.06-.41-.13Zm9.24-1.15c.4-.5.18-.68-1.33-1.12-.6-.17-1.18-.33-1.27-.36-.14-.04-.18.01-.18.23 0 .28.03.29 1.1.57.61.16 1.1.32 1.1.36 0 .06-1.45.65-2.07.84-.17.05-.23.15-.23.36v.28l1.38-.5c.75-.28 1.43-.58 1.5-.66Zm-43.83.53c-.34-.33-.36-1.29-.05-1.63.45-.48 1.4-.14 1.4.49 0 .23-.01.22-.2-.08-.4-.66-1.2-.38-1.2.41s.59 1.09 1.11.57c.24-.25.29-.27.29-.11 0 .53-.94.77-1.35.35ZM6.3 3.8c0-.82.03-1 .15-1q.15 0 .15.3c0 .38.01.37.57-.05.48-.37.58-.41.67-.26.07.1-.69.74-1.08.92-.29.14-.35.3-.08.22.11-.02.38.12.71.39.47.38.5.43.31.46-.15.03-.34-.08-.59-.32-.46-.45-.51-.45-.51-.01 0 .24-.05.35-.15.35-.12 0-.15-.18-.15-1Zm14.97-.56c-.11-.12-.08-.69.05-.82.42-.42 1.05-.04.96.59-.03.24-.82.42-1.01.23Z"/></svg>